<?xml version="1.0" encoding="utf-8" ?><svg xmlns="http://www.w3.org/2000/svg" xmlns:xlink="http://www.w3.org/1999/xlink" width="1024" height="1024" viewBox="0 0 1024 1024"><path fill="white" d="M0 0L1024 0L1024 1024L0 1024L0 0Z"/><path fill="#FEE40D" d="M583.551 271.427C594.314 274.078 601.413 274.64 612.475 279.109C642.824 291.371 666.069 316.031 682.669 343.554C723.794 411.738 724.885 494.778 706.447 570.263C683.081 665.924 621.448 756.782 536.712 808.365C486.901 838.687 418.118 858.28 359.954 844.469C344.793 840.869 327.222 833.196 312.155 828.093C321.331 816.469 320.201 804.874 319.173 790.952C318.888 789.348 318.541 787.755 318.133 786.177C315.084 774.113 307.99 762.345 297.146 755.825C299.466 753.086 303.682 747.38 305.511 744.449C323.827 715.103 347.729 703.095 376.891 686.914C415.997 665.215 448.531 634.353 472.539 596.23C500.499 551.094 515.38 499.083 515.525 445.989C515.654 414.68 508.767 383.948 508.327 352.876C508.005 330.156 515.85 309.778 529.716 291.892C535.767 285.802 542.761 280.727 550.428 276.863C560.418 272.195 572.731 271.595 583.551 271.427Z"/><path fill="#D2B90D" d="M583.551 271.427C594.314 274.078 601.413 274.64 612.475 279.109C642.824 291.371 666.069 316.031 682.669 343.554C723.794 411.738 724.885 494.778 706.447 570.263C683.081 665.924 621.448 756.782 536.712 808.365C486.901 838.687 418.118 858.28 359.954 844.469C344.793 840.869 327.222 833.196 312.155 828.093C321.331 816.469 320.201 804.874 319.173 790.952C368.715 802.962 421.064 789.744 465.38 766.667C548.275 722.951 608.519 643.82 636.695 555.081C657.568 489.339 660.552 410.059 629.007 346.891C611.285 311.404 588.625 288.813 550.428 276.863C560.418 272.195 572.731 271.595 583.551 271.427Z"/><path fill="#785E2F" d="M529.716 291.892C529.516 288.415 529.189 284.946 528.733 281.492C525.638 258.393 512.683 230.072 488.354 219.999C481.789 217.281 473.708 220.407 466.838 214.287C459.256 207.532 460.12 198.599 466.636 191.339C484.332 174.851 511.499 160.075 535.537 156.031C539.611 155.346 546.798 157.817 549.534 160.965C560.648 173.906 550.36 184.06 550.583 195.872C551.13 224.781 563.524 251.318 583.551 271.427C572.731 271.595 560.418 272.195 550.428 276.863C542.761 280.727 535.767 285.802 529.716 291.892Z"/><path fill="#785E2F" d="M312.155 828.093C303.606 829.177 294.239 818.916 288.709 811.983C278.099 798.68 270.331 770.783 284.851 757.38C288.007 754.467 293.038 755.115 297.146 755.825C307.99 762.345 315.084 774.113 318.133 786.177C318.541 787.755 318.888 789.348 319.173 790.952C320.201 804.874 321.331 816.469 312.155 828.093Z"/></svg>