<?xml version="1.0" encoding="utf-8" ?><svg xmlns="http://www.w3.org/2000/svg" xmlns:xlink="http://www.w3.org/1999/xlink" width="1024" height="1024" viewBox="0 0 1024 1024"><path fill="white" d="M0 0L1024 0L1024 1024L0 1024L0 0Z"/><path fill="#249CEC" d="M510.503 140.74C604.953 141.165 695.542 178.276 763.146 244.237C837.912 315.758 885.284 423.348 887.45 526.778C889.692 617.668 855.408 705.663 792.269 771.079C719.494 846.876 618.88 880.921 515.559 882.962C433.431 883.419 356.212 862.978 287.9 816.72C271.654 805.912 256.345 793.758 242.135 780.385C177.024 718.414 139.586 632.85 138.258 542.971C135.744 435.321 181.196 328.925 255.324 251.685C322.006 181.897 413.986 141.907 510.503 140.74Z"/><path fill="#000767" d="M504.972 614.716C562.484 610.166 622.421 639.401 657.509 684.568C668.082 698.178 684.098 726.278 683.079 743.578C682.67 751.351 679.085 758.615 673.164 763.668C664.844 770.898 653.647 773.088 642.984 770.417C633.732 768.101 626.771 759.436 618.826 754.531C588.096 735.561 559.978 726.356 524.44 723.603C482.584 722.838 450.405 731.051 413.794 752.452C401.803 758.752 395.093 769.624 380.874 771.092C364.327 772.8 346.665 762.627 345.654 744.238C344.614 725.311 361.495 697.788 374.049 683.455C407.153 645.66 454.412 619.256 504.972 614.716Z"/><path fill="#7995F4" d="M509.984 654.71C548.532 650.926 592.057 674.561 617.974 701.848C622.213 706.312 626.899 711.022 629.99 716.34C625.48 714.723 613.811 706.687 608.366 703.72C582.438 689.594 556.666 682.392 527.128 680.943C483.123 676.982 441.772 692.405 404.643 714.518C407.019 710.962 409.627 707.566 412.45 704.353C436.078 677.299 473.904 657.151 509.984 654.71Z"/><path fill="#000767" d="M390.751 425.664C462.36 419.864 471.879 547.555 402.109 559.754C389.662 561.2 378.499 557.815 368.318 550.394C327.751 520.824 336.03 433.58 390.751 425.664Z"/><path fill="white" d="M403.608 450.82C414.136 448.486 424.549 455.177 426.801 465.723C429.053 476.268 422.281 486.629 411.718 488.798C401.271 490.944 391.049 484.262 388.822 473.832C386.595 463.403 393.196 453.129 403.608 450.82Z"/><path fill="#000767" d="M629.31 425.208C640.21 424.25 652.879 429.079 661.227 436.264C691.013 461.904 693.414 512.73 668.365 542.301C659.867 552.333 647.412 558.897 634.101 559.715C623.284 560.525 611.154 556.477 602.93 549.511C572.599 523.821 569.979 473.239 595.157 443.131C604.359 432.128 615.182 426.484 629.31 425.208Z"/><path fill="white" d="M639.426 450.282C650.176 449.352 659.64 457.321 660.555 468.071C661.471 478.822 653.491 488.276 642.739 489.178C632.007 490.078 622.573 482.115 621.659 471.384C620.745 460.652 628.696 451.209 639.426 450.282Z"/><path fill="#7995F4" d="M716.669 490.944C721.364 506.215 724.187 518.058 731.551 532.828C749.079 567.982 788.392 612.638 753.992 650.222C744.375 660.73 731.682 666.136 717.571 666.715C699.034 666.269 684.374 659.137 674.125 643.177C651.278 607.597 682.35 571.749 698.232 540.703C706.073 525.375 713.051 507.916 716.669 490.944Z"/><path fill="#000767" d="M424.885 296.628C427.275 296.497 430.53 296.631 432.743 297.435C465.311 309.273 432.605 354.167 419.866 368.502C393.431 397.756 356.5 415.37 317.129 417.504C299.302 417.882 288.605 403.45 297.072 386.45C301.772 377.013 314.173 377.186 323.485 376.275C327.755 375.881 331.994 375.211 336.177 374.268C361.539 368.62 389.66 348.499 402.053 325.324C409.102 312.141 406.957 300.018 424.885 296.628Z"/><path fill="#000767" d="M598.97 296.587C615.679 295.727 618.662 305.356 623.419 318.264C633.809 346.459 665.097 367.097 693.182 374.331C702.908 376.836 713.508 375.84 722.709 379.59C740.495 388.765 736.294 412.679 717.339 417.476C662.295 419.53 598.259 377.178 583.322 323.29C579.657 310.07 585.715 299.793 598.97 296.587Z"/></svg>