<?xml version="1.0" encoding="utf-8" ?><svg xmlns="http://www.w3.org/2000/svg" xmlns:xlink="http://www.w3.org/1999/xlink" width="1024" height="1024" viewBox="0 0 1024 1024"><path fill="white" d="M0 0L1024 0L1024 1024L0 1024L0 0Z"/><path fill="#191212" d="M474.071 147.682C491.005 146.197 499.703 145.824 516.79 147.147C573.997 152.26 626.768 180.094 663.292 224.42C669.179 231.513 679.689 245.793 683.741 254.032C688.2 260.787 692.234 268.997 695.248 276.491C700.353 286.966 704.736 302.01 707.134 313.243C707.689 315.73 708.171 318.231 708.58 320.746C708.893 322.346 709.114 323.951 709.377 325.56C710.937 337.892 711.458 346.997 711.129 359.553C720.92 365.005 727.748 372.157 730.946 383.171C734.03 393.687 732.808 404.998 727.55 414.614C722.592 423.557 714.256 430.141 704.407 432.892C699.061 434.392 694.082 434.576 688.597 433.896C680.721 458.658 666.586 485.074 649.603 504.787C665.76 510.414 693.588 510.369 710.443 506.085C710.069 492.862 717.07 487.548 729.746 486.704C733.042 474.408 740.984 472.291 751.455 478.587C753.498 473.71 755.586 470.077 760.895 467.908C764.904 466.307 769.39 466.398 773.331 468.16C777.068 469.814 778.269 471.356 780.739 474.368C793.315 462.773 805.481 472.712 812.332 484.765L812.993 484.675C819.845 483.67 829.628 480.754 836.477 478.9C846.979 476.032 857.511 473.279 868.072 470.64C881.606 467.231 893.215 462.818 905.863 471.99C912.469 476.862 916.912 484.121 918.244 492.22C919.619 500.422 917.596 508.83 912.641 515.509C901.677 530.263 885.386 528.335 869.115 528.872C866.308 528.964 863.474 529.069 860.67 528.929C857.879 529.173 853.87 529.515 851.15 529.349L829.513 529.936C827.025 548.247 821.506 558.603 809.857 572.634C831.996 571.663 830.116 577.987 833.534 597.602C836.571 614.67 838.776 631.875 840.139 649.157C842.405 680.69 841.886 708.94 837.293 740.353C835.853 750.2 835.427 759.113 832.21 768.743C829.323 777.207 824.79 785.017 818.874 791.724C807.628 804.565 792.11 812.677 775 813.682C764.038 814.336 753.09 812.197 743.181 807.465C732.258 802.367 718.901 791.096 709.164 783.398C690.648 768.837 672.523 753.787 654.806 738.263C662.973 769.313 668.993 798.912 672.656 831.481C674.363 846.655 681.662 874.471 655.077 876.434C646.849 877.041 637.782 876.531 629.437 876.527L581.578 876.484L439.625 876.478L370.977 876.522C360.622 876.553 347.635 877.055 337.371 875.987C333.202 875.396 327.108 870.609 325.179 866.928C320.284 857.582 323.264 841.9 324.456 831.811C326.835 810.66 330.242 789.638 334.665 768.819C337.282 756.706 340.103 746.585 343.034 734.786C320.007 775.737 312.039 815.947 308.939 862.035C308.403 870.008 299.651 876.283 291.882 876.43C280.62 876.644 269.045 876.375 257.647 876.328L227.769 876.431C223.418 876.456 211.242 876.951 207.74 875.755C194.656 871.286 199.639 843.545 200.596 834.531C210.427 741.952 249.144 651.499 316.431 586.152C334.085 569.006 352.962 553.238 374.056 540.45C342.027 516.146 314.168 475.555 301.831 437.501C298.267 437.507 295.115 437.249 291.667 436.345C282.121 433.861 273.95 427.693 268.947 419.193C263.378 409.589 261.887 398.154 264.805 387.443C267.956 375.93 274.765 368.402 284.885 362.561C284.874 357.404 284.953 352.247 285.121 347.092C285.044 345.147 285.191 344.293 285.45 342.339C285.397 336.879 286.91 327.402 287.913 321.866C294.303 287.953 308.838 256.101 330.268 229.052C365.691 184.136 417.328 154.918 474.071 147.682Z"/><path fill="#063086" d="M474.071 147.682C491.005 146.197 499.703 145.824 516.79 147.147C573.997 152.26 626.768 180.094 663.292 224.42C669.179 231.513 679.689 245.793 683.741 254.032C688.2 260.787 692.234 268.997 695.248 276.491C700.353 286.966 704.736 302.01 707.134 313.243C707.689 315.73 708.171 318.231 708.58 320.746C708.893 322.346 709.114 323.951 709.377 325.56L708.417 326.325C710.502 334.583 710.577 350.247 710.06 359.036C702.051 356.416 694.258 353.943 686.476 350.687C650.46 335.615 623.009 303.602 620.094 263.828C619.628 257.476 619.936 250.688 619.265 244.423C580.384 276.907 521.394 303.894 470.806 309.208C458.133 310.427 445.373 310.437 432.699 309.237C403.227 306.561 370.816 295.94 349.829 274.336C352.806 294.019 351.018 313.024 338.799 329.489C325.359 347.602 306.249 354.648 285.974 361.898C285.995 358.843 286.434 349.239 285.121 347.092C285.044 345.147 285.191 344.293 285.45 342.339C285.397 336.879 286.91 327.402 287.913 321.866C294.303 287.953 308.838 256.101 330.268 229.052C365.691 184.136 417.328 154.918 474.071 147.682Z"/><path fill="#052464" d="M285.45 342.339C285.397 336.879 286.91 327.402 287.913 321.866C294.303 287.953 308.838 256.101 330.268 229.052C365.691 184.136 417.328 154.918 474.071 147.682L475.509 148.579C463.326 150.938 453.235 152.285 440.986 155.84C392.146 170.013 349.876 200.97 321.626 243.256C306.631 265.189 296.037 289.824 290.43 315.793C289.361 320.889 286.709 339.609 285.45 342.339Z"/><path fill="#052464" d="M516.79 147.147C573.997 152.26 626.768 180.094 663.292 224.42C669.179 231.513 679.689 245.793 683.741 254.032C681.838 253.123 679.244 248.612 678.088 246.757C649.579 200.998 603.015 168.12 551.13 154.159C539.971 151.156 528.17 150.29 516.17 148.128C516.667 147.67 516.696 147.741 516.79 147.147Z"/><path fill="#052464" d="M708.417 326.325C707.481 322.476 707.17 317.496 706.193 313.329L705.711 311.326C705.447 310.268 703.907 305.172 703.931 304.744C704.163 300.684 694.031 278.204 695.248 276.491C700.353 286.966 704.736 302.01 707.134 313.243C707.689 315.73 708.171 318.231 708.58 320.746C708.893 322.346 709.114 323.951 709.377 325.56L708.417 326.325Z"/><path fill="#050E23" d="M474.071 147.682C491.005 146.197 499.703 145.824 516.79 147.147C516.696 147.741 516.667 147.67 516.17 148.128C507.625 147.623 499.064 147.452 490.506 147.616C488.208 147.795 484.271 148.182 482.135 147.984C479.551 148.382 478.574 148.581 475.938 148.494L475.509 148.579L474.071 147.682Z"/><path fill="#052464" d="M482.135 147.984C484.165 147.182 488.281 147.485 490.506 147.616C488.208 147.795 484.271 148.182 482.135 147.984Z"/><path fill="#052464" d="M475.938 148.494C478.89 147.744 479.151 147.867 482.135 147.984C479.551 148.382 478.574 148.581 475.938 148.494Z"/><path fill="#FEDD09" d="M813.048 485.932C830.638 482.4 848.56 476.263 866.202 472.297C881.393 468.881 895.497 462.549 908.634 475.719C914.33 481.397 917.502 489.127 917.436 497.169C917.45 505.076 914.315 512.663 908.723 518.253C897.77 529.062 878.368 528.032 863.355 527.961L862.665 528.087C861.595 528.211 861.353 528.121 860.67 528.929C857.879 529.173 853.87 529.515 851.15 529.349C851.195 529.306 851.69 528.888 851.749 528.861L852.004 528.736L851.885 528.865L851.875 528.647C850.48 528.575 849.879 528.652 848.352 528.469C845.815 528.386 842.387 528.534 839.78 528.566C836.28 528.447 832.973 528.381 829.502 528.872C830.761 521.407 830.651 502.873 826.088 496.296C822.923 491.732 819.832 490.909 814.898 489.859L813.048 485.932Z"/><path fill="#66520B" d="M848.352 528.469C852.189 527.877 859.264 527.911 863.355 527.961L862.665 528.087C861.595 528.211 861.353 528.121 860.67 528.929C857.879 529.173 853.87 529.515 851.15 529.349C851.195 529.306 851.69 528.888 851.749 528.861L852.004 528.736L851.885 528.865L851.875 528.647C850.48 528.575 849.879 528.652 848.352 528.469Z"/><path fill="#66520B" d="M829.502 528.872C832.973 528.381 836.28 528.447 839.78 528.566C836.439 529.321 832.879 529.484 829.502 528.872Z"/><path fill="#F95716" d="M347.177 725.669L346.761 726.268C343.485 731.054 340.859 736.798 338.018 742.218C320.992 774.853 311.556 812.963 309.206 849.659C309.403 877.759 294.965 875.944 272.491 875.449C252.932 875.018 232.594 875.611 212.886 875.431C206.185 875.37 203.768 872.694 201.277 866.45C200.729 865.076 199.899 861.289 199.959 859.734C203.573 766.981 237.546 676.536 298.652 606.321C317.122 585.349 337.966 566.594 360.765 550.432C364.44 547.861 371.222 543.069 375.17 541.261C423.432 578.053 482.148 594.314 541.96 578.66C579.157 595.188 612.954 595.41 639.367 561.074C654.852 565.922 706.005 614.813 716.854 629.289C715.06 618.371 713.83 605.846 713.664 594.822C713.542 586.648 720.802 580.505 728.648 580.118C739.698 579.573 751.419 577.747 762.411 577.519L763.298 576.345C767.599 575.767 773.27 575.519 777.61 575.355C778.319 575.095 778.393 575.142 779.191 575.129L802.502 573.411C804.049 573.292 804.199 573.212 805.786 573.318L805.977 574.102C814.074 573.521 827.137 570.941 829.452 581.923C840.658 635.078 844.014 688.872 836.009 742.74C832.741 764.732 832.034 776.633 815.444 793.813C804.052 805.794 788.263 812.607 771.731 812.677C762.152 812.84 752.665 810.781 744.016 806.661C732.154 801.052 719.013 789.866 708.516 781.584C689.117 766.586 670.335 750.806 652.219 734.282C655.633 745.091 658.602 756.035 661.117 767.088C665.704 787.65 668.855 809.234 671.525 830.175C672.758 839.843 676.321 855.888 672.072 864.776C667.874 873.556 658.406 875.966 649.582 875.259C642.141 875.045 634.432 875.067 627.028 875.045L568.118 874.994L412.108 875.021L368.893 875.104C360.308 875.178 339.488 876.811 332.908 873.093C328.356 870.535 325.104 866.164 323.96 861.069C322.325 854.093 324.299 840.783 325.186 833.29C328.162 806.294 332.86 779.516 339.252 753.119C341.489 744.195 344.546 734.573 347.177 725.669Z"/><path fill="#380D07" d="M779.191 575.129L802.502 573.411C804.049 573.292 804.199 573.212 805.786 573.318L805.977 574.102C797.226 575.207 788.088 575.495 779.287 576.218L779.191 575.129Z"/><path fill="#380D07" d="M763.298 576.345C767.599 575.767 773.27 575.519 777.61 575.355L775.18 576.553C771.476 576.522 766.281 577.275 762.411 577.519L763.298 576.345Z"/><path fill="#611A09" d="M777.61 575.355C778.319 575.095 778.393 575.142 779.191 575.129L779.287 576.218C777.768 576.467 776.705 576.486 775.18 576.553L777.61 575.355Z"/><path fill="#EFA08A" d="M618.402 247.041C618.609 257.668 618.368 264.696 620.512 275.436C627.835 312.121 654.588 338.733 688.373 352.787C703.173 358.943 710.642 357.488 722.287 369.532C722.587 369.675 722.582 369.797 722.752 370.122C735.811 387.761 734.558 412.593 716.215 425.962C709.864 430.592 702.217 433.104 694.358 433.142C693.892 433.53 693.951 433.569 693.462 433.144C691.669 432.986 689.762 432.902 688.05 432.412C678.574 459.186 667.469 482.563 648.488 504.216C641.46 500.525 636.974 496.454 630.617 491.992C614.619 480.764 602.633 477.124 583.5 477.15L583.5 478.373C557.304 479.235 515.211 495.941 500.137 518.002L499.721 517.246C499.305 517.812 498.906 518.392 498.525 518.983C481.776 545.315 522.172 567.23 540.569 577.758C524.752 582.055 511.136 583.483 494.937 583.337C406.395 582.539 329.99 518.651 302.5 436.345C261.18 436.982 250.742 381.767 285.421 363.728C292.043 360.283 300.181 358.264 307.06 354.922C317.941 349.636 327.939 344.023 335.906 334.673C351.531 316.709 352.85 300.003 351.488 277.411C355.795 281.421 361.595 286.398 366.655 289.402C438.53 332.062 529.717 306.057 595.147 263.295C603.25 258 610.571 252.351 618.402 247.041Z"/><path fill="#191212" d="M502.502 513.525C498.104 513.626 493.628 513.605 489.261 513.068C470.731 510.669 453.894 501.061 442.403 486.328C437.474 479.892 428.436 462.512 429.742 454.73C430.162 452.123 431.672 449.818 433.894 448.391C436.074 447.006 438.732 446.59 441.23 447.243C447.454 448.888 448.248 455.534 450.066 460.84C451.118 463.998 452.461 467.053 454.075 469.964C472.548 503.298 523.086 502.641 542.258 471.323C546.967 463.631 548.231 451.521 554.865 447.196C560.538 443.497 565.689 448.778 568.279 453.958C567.465 464.905 563.442 471.49 558.431 480.958C567.476 478.57 574.338 477.653 583.5 477.15L583.5 478.373C557.304 479.235 515.211 495.941 500.137 518.002L499.721 517.246C500.379 516.181 501.694 514.574 502.502 513.525Z"/><path fill="#714539" d="M693.462 433.144C693.761 433.143 694.06 433.143 694.358 433.142C693.892 433.53 693.951 433.569 693.462 433.144Z"/><path fill="#191212" d="M615.583 405.994C631.761 403.977 646.502 415.48 648.478 431.663C650.454 447.847 638.913 462.558 622.725 464.493C606.595 466.421 591.947 454.93 589.978 438.805C588.01 422.68 599.463 408.003 615.583 405.994Z"/><path fill="#F95716" d="M613.7 407.484C629.011 404.462 643.876 414.417 646.911 429.725C649.946 445.034 640.005 459.907 624.698 462.956C609.373 466.008 594.478 456.052 591.439 440.724C588.4 425.396 598.369 410.509 613.7 407.484Z"/><path fill="#191212" d="M375.153 406.043C391.326 404.05 406.044 415.564 408.003 431.741C409.961 447.918 398.416 462.612 382.235 464.536C366.103 466.455 351.462 454.952 349.509 438.823C347.556 422.695 359.029 408.03 375.153 406.043Z"/><path fill="#F95716" d="M374.1 407.454C389.513 404.873 404.09 415.307 406.614 430.73C409.139 446.152 398.65 460.69 383.218 463.157C367.867 465.612 353.422 455.19 350.911 439.848C348.399 424.506 358.768 410.022 374.1 407.454Z"/><path fill="#191212" d="M417.195 341.085C441.386 338.698 459.133 359.55 455.579 383.309C455.25 388.972 445.887 392.533 441.892 389.752C430.603 381.893 443.277 367.341 425.913 360.639C413.557 358.334 407.703 365.81 407.545 377.669C407.466 383.539 407.404 389.871 400.703 391.832C395.17 393.453 390.11 390.438 388.768 384.728C387.526 375.238 388.556 364.485 394.064 356.386C399.946 347.736 407.214 343.227 417.195 341.085Z"/><path fill="#191212" d="M569.815 341.125C577.504 340.41 583.803 341.495 590.449 345.528C598.483 350.436 604.201 358.374 606.31 367.549C607.158 371.133 607.064 373.308 607.581 377.416C608.839 387.413 603.344 396.633 592.494 391.136C587.717 388.716 588.955 377.548 588.041 372.898C587.01 367.657 584.945 364.643 580.159 361.529L579.532 361.127C567.355 357.308 560.124 364.596 559.197 376.433C558.885 380.418 557.819 390.329 552.308 390.606C533.027 391.573 539.726 364.304 546.975 354.938C553.287 346.783 559.62 342.813 569.815 341.125Z"/><path fill="#FEDD09" d="M583.5 478.373C615.309 478.29 623.019 489.348 647.278 504.653C659.796 512.55 695.211 510.753 710.674 507.219C712.148 514.274 714.346 523.87 715.266 530.812C697.228 531.744 656.657 535.829 645.725 550.856C630.643 571.588 617.612 586.279 589.995 588.059C568.141 589.421 547.849 581.958 529.572 570.025C512.476 559.042 485.127 541.74 500.137 518.002C515.211 495.941 557.304 479.235 583.5 478.373Z"/><path fill="#EFA08A" d="M751.895 480.158C753.375 475.919 754.673 473.302 758.549 470.602C761.964 468.255 766.204 467.439 770.246 468.351C775.123 469.412 777.78 472.089 780.436 476.036C780.768 475.709 781.102 475.385 781.439 475.063C790.442 466.464 799.359 470.305 806.802 478.504C807.102 478.67 807.095 478.779 807.277 479.094C810.579 483.562 811.987 485.769 814.153 490.926C818.47 491.825 822.642 492.455 825.116 496.581C828.555 502.312 828.77 510.263 828.994 516.758C829.695 537.053 823.033 558.164 808.164 572.414C807.661 572.894 806.462 573.158 805.786 573.318C804.199 573.212 804.049 573.292 802.502 573.411L779.191 575.129C778.393 575.142 778.319 575.095 777.61 575.355C773.27 575.519 767.599 575.767 763.298 576.345C752.559 576.823 736.523 578.202 725.846 579.481L716.519 531.035C715.08 523.76 713.679 516.326 712.252 509.06C709.509 495.085 716.441 487.987 730.657 488.014C733.603 475.461 741.508 473.131 751.895 480.158Z"/><path fill="white" d="M710.883 532.211C711.992 532.066 714.369 532.025 715.582 531.971C718.765 546.677 722.15 564.684 724.679 579.466C706.335 586.084 713.57 609.517 715.215 625.111C705.049 614.486 696.344 605.387 685.569 595.339C675.427 586.062 652.188 565.706 640.125 559.835C646.392 551.013 651.11 545.418 661.599 541.534C677.589 535.614 693.989 533.262 710.883 532.211Z"/></svg>