<?xml version="1.0" encoding="utf-8" ?><svg xmlns="http://www.w3.org/2000/svg" xmlns:xlink="http://www.w3.org/1999/xlink" width="1024" height="1024" viewBox="0 0 1024 1024"><path fill="white" d="M0 0L1024 0L1024 1024L0 1024L0 0Z"/><defs><linearGradient id="gradient_0" gradientUnits="userSpaceOnUse" x1="328.94589" y1="460.81534" x2="709.21582" y2="561.46277"><stop offset="0" stop-color="#AF4124"/><stop offset="1" stop-color="#E04B2B"/></linearGradient></defs><path fill="url(#gradient_0)" d="M568.384 701.761C565.671 703.259 555.329 705.118 551.794 705.711C518.306 711.321 479.471 707.761 447.765 695.697C399.572 677.561 360.518 641.084 339.139 594.239C316.871 545.756 315.32 490.293 334.844 440.641C367.819 354.516 465.36 300.734 555.779 317.655C563.429 319.086 572.15 320.595 579.407 323.375C591.711 326.793 604.284 332.297 615.479 338.442C621.307 341.48 638.11 351.792 642.684 356.501C683.013 387.54 709.668 433.066 716.999 483.426C724.259 536.362 710.982 586.239 678.562 628.812C655.162 659.24 623.684 682.481 587.716 695.887C583.264 697.512 572.904 701.004 568.384 701.761Z"/><path fill="#AE3821" d="M579.407 323.375C591.711 326.793 604.284 332.297 615.479 338.442C621.307 341.48 638.11 351.792 642.684 356.501C683.013 387.54 709.668 433.066 716.999 483.426C724.259 536.362 710.982 586.239 678.562 628.812C655.162 659.24 623.684 682.481 587.716 695.887C583.264 697.512 572.904 701.004 568.384 701.761C569.813 700.252 579.895 697.505 582.612 696.597C589.179 694.436 595.608 691.876 601.863 688.929C616.018 682.17 629.2 674.28 641.574 664.582C643.515 662.732 645.283 660.753 647.311 658.98C694.283 617.906 722.507 556.694 716.48 493.829C710.975 441.193 684.899 392.864 643.929 359.363C630.336 348.674 612.85 339.983 597.958 331.738C595.029 330.605 581.611 325.122 579.407 323.375Z"/><path fill="#FB753A" d="M359.434 624.452C334.828 590.583 321.456 544.666 323.752 502.901C326.492 451.185 349.759 402.702 388.391 368.211C422.42 337.994 465.593 320.049 511.016 317.242C521.004 316.646 530.058 317.085 540.019 317.66C548.083 318.593 558.26 320.026 565.93 322.456C598.054 332.633 630.34 356.847 651.169 383.088C679.979 419.384 694.242 469.683 688.939 515.652C682.862 570.385 655.237 620.444 612.169 654.763C571.73 686.836 519.53 703.773 467.649 698.498C457.457 697.461 447.265 693.27 437.972 689.02C409.355 676.276 384.282 656.739 364.929 632.107C363.658 630.489 360.413 626.235 359.434 624.452Z"/><path fill="#F99358" d="M359.434 624.452C334.828 590.583 321.456 544.666 323.752 502.901C326.492 451.185 349.759 402.702 388.391 368.211C422.42 337.994 465.593 320.049 511.016 317.242C521.004 316.646 530.058 317.085 540.019 317.66L539.731 318.641C536.846 319.597 532.865 320.226 529.803 320.693C446.095 333.44 378.868 396.946 353.007 476.254C339.463 518.059 339.422 563.066 352.888 604.896C353.952 608.13 359.538 622.095 359.434 624.452Z"/><path d="M583.29 453.653C597.177 453.734 607.162 468.52 609.888 480.753C611.017 486.571 602.185 489.391 600.161 484.422C596.831 476.243 596.162 472.737 588.953 466.513C578.887 460.049 574.465 474.448 571.406 481.712C569.587 486.031 562.225 485.211 561.584 480.749C560.929 476.184 564.264 469.592 566.619 465.807C570.897 459.501 575.738 455.226 583.29 453.653Z"/><path d="M446.802 454.051C450.757 453.685 453.833 453.749 457.499 455.974C465.393 460.828 471.113 468.621 473.653 477.499C475.792 484.977 465.598 487.883 463.226 480.093C461.677 475.009 457.626 468.852 453.003 465.965L451.357 464.942C442.04 463.053 438.592 477.449 436.783 483.311C434.912 489.372 424.064 487.411 427.051 477.502C430.414 466.35 434.793 457.834 446.802 454.051Z"/><path d="M495.465 518.45C502.247 518.842 501.637 523.926 504.977 528.739C509.743 535.608 519.443 538.346 526.723 533.866C532.742 530.162 533.441 523.839 538.424 519.471C539.113 518.868 540.947 518.415 541.849 518.878C547.32 522.025 545.416 525.886 543.753 530.428C537.873 542.694 526.81 548.851 513.429 546.061C505.877 544.484 499.294 539.897 495.199 533.358C492.129 528.441 489.512 522.11 495.465 518.45Z"/><path fill="#AA8E24" d="M497.284 272.425C496.906 269.604 497.142 261.797 497.177 258.688L497.438 232.497L497.683 183.383C497.863 167.239 495.212 146.506 511.63 137.052C516.742 134.108 522.825 133.348 528.504 134.945C534.347 136.618 538.97 140.758 541.846 146.037C547.525 154.374 546.103 170.29 546.089 180.398C546.066 197.135 545.794 213.87 545.273 230.598C545.009 240.311 544.689 250.022 544.312 259.731C544.088 265.456 543.998 272.937 542.973 278.429C541.566 285.581 537.345 291.868 531.257 295.876C513.499 307.4 498.491 290.357 497.284 272.425Z"/><path fill="#FADA16" d="M499.981 265.505C499.857 241.958 499.923 218.41 500.182 194.864C500.259 185.518 500.393 176.166 500.478 166.821C500.554 160.216 500.752 153.522 504.563 147.793C512.372 136.053 522.712 133.208 534.314 140.819L537.08 143.128L539.281 147.357C546.483 153.386 542.87 194.749 543.035 206.027C543.268 221.975 542.908 239.052 542.191 255.054C541.873 260.809 541.823 271.285 540.762 276.807C539.834 281.404 537.801 285.706 534.838 289.342C521.479 305.718 500.139 292.634 500.06 275.089C500.06 274.729 500.064 274.369 500.073 274.009C499.883 271.891 499.848 269.068 499.753 266.886L499.981 265.505Z"/><path fill="#DEB726" d="M539.281 147.357C546.483 153.386 542.87 194.749 543.035 206.027C543.268 221.975 542.908 239.052 542.191 255.054C541.873 260.809 541.823 271.285 540.762 276.807C539.834 281.404 537.801 285.706 534.838 289.342C521.479 305.718 500.139 292.634 500.06 275.089C500.06 274.729 500.064 274.369 500.073 274.009C501.597 280.722 508.837 284.566 515.317 283.752C522.459 282.879 531.179 273.225 532.066 266.253C533.525 254.786 533.86 242.481 534.735 230.871L538.203 188.386C539.23 175.961 540.895 159.548 539.281 147.357Z"/><path fill="#FDEE8F" d="M499.981 265.505C499.857 241.958 499.923 218.41 500.182 194.864C500.259 185.518 500.393 176.166 500.478 166.821C500.554 160.216 500.752 153.522 504.563 147.793C512.372 136.053 522.712 133.208 534.314 140.819C508.004 159.88 514.298 171.955 509.388 201.098C507.994 209.374 502.817 261.286 499.981 265.505Z"/><path fill="#FADA16" d="M512.588 726.881C523.53 720.861 535.277 723.789 541.872 734.528C543.533 736.666 545.644 742.223 546.029 744.96C547.041 749.24 546.722 767.137 546.078 771.722C546.165 791.05 545.144 810.933 544.66 830.256C544.412 840.182 544.678 856.683 542.298 865.944C537.685 883.894 516.757 893.631 502.712 878.03C502.461 877.751 502.216 877.468 501.974 877.18C494.172 869.489 493.455 857.181 494.893 846.958C494.951 837.76 495.844 827.532 496.05 818.117C496.091 815.286 496.243 812.458 496.504 809.639C496.502 806.257 496.897 795.574 497.427 792.292C497.222 788.45 497.697 779.331 497.964 775.36C497.609 769.729 498.465 755.029 499.079 749.394C500.084 740.183 505.15 732.45 512.588 726.881Z"/><path fill="#DEB726" d="M512.588 726.881C523.53 720.861 535.277 723.789 541.872 734.528C543.533 736.666 545.644 742.223 546.029 744.96C547.041 749.24 546.722 767.137 546.078 771.722C546.165 791.05 545.144 810.933 544.66 830.256C544.412 840.182 544.678 856.683 542.298 865.944C537.685 883.894 516.757 893.631 502.712 878.03C502.461 877.751 502.216 877.468 501.974 877.18C503.432 877.55 503.817 877.744 505.272 877.766C504.877 877.196 504.475 876.63 504.067 876.069C515.625 875.708 524.582 868.936 525.824 856.939C526.892 846.613 526.884 835.57 527.46 825.096C528.526 807.544 529.441 789.982 530.205 772.414C531.388 748.075 533.649 746.86 518.658 726.676C517.655 727.093 517.051 727.314 515.994 727.642C514.864 727.362 513.729 727.109 512.588 726.881Z"/><path fill="#AA8E24" d="M546.029 744.96C547.041 749.24 546.722 767.137 546.078 771.722C546.165 791.05 545.144 810.933 544.66 830.256C544.412 840.182 544.678 856.683 542.298 865.944C537.685 883.894 516.757 893.631 502.712 878.03C502.461 877.751 502.216 877.468 501.974 877.18C503.432 877.55 503.817 877.744 505.272 877.766C510.097 879.997 512.323 883.485 518.844 883.178C542.231 882.087 541.912 855.81 542.138 838.634C542.5 811.253 544.407 783.763 544.563 756.39C544.511 755.032 544.511 753.854 544.522 752.491C545.788 748.9 545.604 748.871 546.029 744.96Z"/><path fill="#AD9027" d="M546.029 744.96C547.041 749.24 546.722 767.137 546.078 771.722C545.461 766.761 545.401 761.294 544.563 756.39C544.511 755.032 544.511 753.854 544.522 752.491C545.788 748.9 545.604 748.871 546.029 744.96Z"/><path fill="#AA8E24" d="M512.588 726.881C523.53 720.861 535.277 723.789 541.872 734.528C543.533 736.666 545.644 742.223 546.029 744.96C545.604 748.871 545.788 748.9 544.522 752.491C544.103 744.237 542.487 738.797 537.243 732.227C531.804 727.558 526.08 724.061 518.658 726.676C517.655 727.093 517.051 727.314 515.994 727.642C514.864 727.362 513.729 727.109 512.588 726.881Z"/><path fill="#AF8F26" d="M497.964 775.36C497.609 769.729 498.465 755.029 499.079 749.394C500.084 740.183 505.15 732.45 512.588 726.881C513.729 727.109 514.864 727.362 515.994 727.642C494.58 742.36 502.966 766.232 499.565 788.61C499.633 789.828 499.612 790.477 499.56 791.709C499.165 792.98 498.563 794.363 498.253 795.612L497.684 795.746C497.738 796.057 497.791 796.368 497.845 796.679L497.806 796.69C497.72 796.515 497.491 792.895 497.427 792.292C497.222 788.45 497.697 779.331 497.964 775.36Z"/><path fill="#AA8E24" d="M497.964 775.36C498.907 777.693 499.561 778.829 499.392 781.247C499.244 783.702 499.302 786.165 499.565 788.61C499.633 789.828 499.612 790.477 499.56 791.709C499.165 792.98 498.563 794.363 498.253 795.612L497.684 795.746C497.738 796.057 497.791 796.368 497.845 796.679L497.806 796.69C497.72 796.515 497.491 792.895 497.427 792.292C497.222 788.45 497.697 779.331 497.964 775.36Z"/><path fill="#AD9027" d="M494.893 846.958C495.29 849.599 494.555 850.266 496.58 851.743C497.855 863.956 495.04 864.959 504.067 876.069C504.475 876.63 504.877 877.196 505.272 877.766C503.817 877.744 503.432 877.55 501.974 877.18C494.172 869.489 493.455 857.181 494.893 846.958Z"/><path fill="#AD9027" d="M497.427 792.292C497.491 792.895 497.72 796.515 497.806 796.69L497.845 796.679C497.791 796.368 497.738 796.057 497.684 795.746L498.253 795.612C498.563 794.363 499.165 792.98 499.56 791.709C499.544 796.695 499.32 800.319 498.935 805.271C498.912 808.599 498.584 819.136 498.037 822.05C497.22 820.169 497.266 819.915 496.05 818.117C496.091 815.286 496.243 812.458 496.504 809.639C496.502 806.257 496.897 795.574 497.427 792.292Z"/><path fill="#AA8E24" d="M496.05 818.117C497.266 819.915 497.22 820.169 498.037 822.05C497.722 831.825 496.913 841.75 496.58 851.743C494.555 850.266 495.29 849.599 494.893 846.958C494.951 837.76 495.844 827.532 496.05 818.117Z"/><path fill="#FADA16" d="M452.959 720.153C463.153 713.932 474.333 716.644 480.445 726.97C486.78 739.579 482.272 749.472 478.782 762.368C476.923 769.238 474.794 776.793 472.679 783.577L472.531 784.155C469.467 797.506 464.596 812.131 460.84 825.404C456.837 841.29 453.666 861.139 438.811 870.407C433.412 873.775 426.933 875.53 420.636 874.013C415.031 872.634 410.256 868.979 407.462 863.929C405.107 859.656 404.044 854.79 404.403 849.924C404.835 843.9 409.539 829.666 411.402 823.454C416.664 806.318 421.835 789.154 426.915 771.964C429.52 765.29 433.704 747.195 436.265 742.179C438.653 733.799 444.413 723.507 452.959 720.153Z"/><path fill="#DEB726" d="M452.959 720.153C463.153 713.932 474.333 716.644 480.445 726.97C486.78 739.579 482.272 749.472 478.782 762.368C476.923 769.238 474.794 776.793 472.679 783.577L472.531 784.155C469.467 797.506 464.596 812.131 460.84 825.404L458.601 824.574C454.266 840.52 451.782 859.566 436.502 868.951C428.014 874.164 412.951 873.121 409.613 862.523C424.084 864.346 433.818 857.011 437.794 843.363C447.14 811.289 457.907 779.641 467.156 747.559C470.14 737.208 466.003 726.613 457.388 720.345L457.778 720.193C458.67 719.836 459.097 719.651 460.031 719.435L461.767 719.038L460.899 718.879C456.945 718.099 456.849 720.527 452.959 720.153Z"/><path fill="#AA8E24" d="M476.197 724.945L477.079 725.286C478.265 725.725 479.339 726.366 480.445 726.97C486.78 739.579 482.272 749.472 478.782 762.368C476.923 769.238 474.794 776.793 472.679 783.577C472.246 781.642 471.728 780.71 471.355 778.578C474.518 770.218 477.739 757.085 480.135 748.192C482.479 739.492 481.022 732.482 476.197 724.945Z"/><path fill="#AF8F26" d="M471.355 778.578C471.728 780.71 472.246 781.642 472.679 783.577L472.531 784.155C469.467 797.506 464.596 812.131 460.84 825.404L458.601 824.574C458.675 824.338 458.75 824.102 458.824 823.866L465.346 800.49C467.245 793.661 469.806 785.37 471.355 778.578Z"/><path fill="#AD9027" d="M452.959 720.153C463.153 713.932 474.333 716.644 480.445 726.97C479.339 726.366 478.265 725.725 477.079 725.286L476.197 724.945C471.793 720.627 469.128 719.016 462.784 719.041L461.767 719.038L460.899 718.879C456.945 718.099 456.849 720.527 452.959 720.153Z"/><path fill="#AA8E24" d="M426.915 771.964L429.408 772.967L413.876 824.054C409.925 837.256 403.783 849.263 409.613 862.523C412.951 873.121 428.014 874.164 436.502 868.951C451.782 859.566 454.266 840.52 458.601 824.574L460.84 825.404C456.837 841.29 453.666 861.139 438.811 870.407C433.412 873.775 426.933 875.53 420.636 874.013C415.031 872.634 410.256 868.979 407.462 863.929C405.107 859.656 404.044 854.79 404.403 849.924C404.835 843.9 409.539 829.666 411.402 823.454C416.664 806.318 421.835 789.154 426.915 771.964Z"/><path fill="#AD9027" d="M436.265 742.179C438.976 740.264 438.867 737.394 440.346 737.066C440.209 738.282 438.915 741.762 438.476 743.277C436.397 750.331 434.255 757.365 432.05 764.381C431.488 766.195 429.654 771.539 429.408 772.967L426.915 771.964C429.52 765.29 433.704 747.195 436.265 742.179Z"/><path fill="#AF8F26" d="M452.959 720.153C456.849 720.527 456.945 718.099 460.899 718.879L461.767 719.038L460.031 719.435C459.097 719.651 458.67 719.836 457.778 720.193L457.388 720.345C446.941 726.14 446.623 727.657 440.346 737.066C438.867 737.394 438.976 740.264 436.265 742.179C438.653 733.799 444.413 723.507 452.959 720.153Z"/><path fill="#FADA16" d="M404.699 265C409.561 272.854 414.236 280.823 418.72 288.898C423.476 297.61 427.596 305.433 424.349 315.744C422.556 321.423 418.543 326.135 413.223 328.81C408.293 331.232 402.601 331 397.44 329.347C384.379 325.166 378.912 312.859 372.33 301.76L355.611 273.364C344.825 254.893 333.569 236.328 323.374 217.507C319.943 211.175 318.579 204.535 321.145 197.5C323.115 192.013 327.285 187.596 332.65 185.312C339.016 182.606 345.014 182.853 351.326 185.37C357.703 187.637 361.724 191.455 365.455 196.9L390.449 240.073C393.187 244.722 403.402 261.545 404.699 265Z"/><path fill="#FDEE8F" d="M404.699 265C409.561 272.854 414.236 280.823 418.72 288.898C423.476 297.61 427.596 305.433 424.349 315.744C422.556 321.423 418.543 326.135 413.223 328.81C408.293 331.232 402.601 331 397.44 329.347C384.379 325.166 378.912 312.859 372.33 301.76L355.611 273.364C344.825 254.893 333.569 236.328 323.374 217.507C319.943 211.175 318.579 204.535 321.145 197.5C323.115 192.013 327.285 187.596 332.65 185.312C339.016 182.606 345.014 182.853 351.326 185.37C352.602 187.184 355.181 187.976 353.319 188.539L352.459 188.512C346.351 192.834 343.633 198.331 342.257 205.504C340.135 216.565 346.958 224.054 351.789 232.999C360.746 249.584 370.687 265.652 380.003 282.04C384.285 289.602 389.339 296.956 393.065 304.76C395.086 308.993 395.776 312.008 396.237 316.634L396.502 317.529C396.485 319.883 396.909 324.187 395.071 325.864C395.968 326.612 397.417 327.168 398.516 327.527C408.224 330.702 419.439 324.885 422.27 314.78C423.343 310.855 423.352 306.716 422.296 302.787C420.09 294.277 407.497 274.628 402.634 266.29L404.699 265Z"/><path fill="#AA8E24" d="M404.699 265C409.561 272.854 414.236 280.823 418.72 288.898C423.476 297.61 427.596 305.433 424.349 315.744C422.556 321.423 418.543 326.135 413.223 328.81C408.293 331.232 402.601 331 397.44 329.347C384.379 325.166 378.912 312.859 372.33 301.76L355.611 273.364C344.825 254.893 333.569 236.328 323.374 217.507C319.943 211.175 318.579 204.535 321.145 197.5C323.115 192.013 327.285 187.596 332.65 185.312C339.016 182.606 345.014 182.853 351.326 185.37C352.602 187.184 355.181 187.976 353.319 188.539L352.459 188.512C341.458 183.547 329.319 185.376 323.856 197.573C321.335 203.201 322.211 209.077 324.814 214.438C328.492 221.923 333.072 229.548 337.249 236.77L363.025 280.665L376.786 304.204C378.822 307.712 382.388 314.409 384.737 317.344C387.011 317.446 394.71 318.265 396.237 316.634L396.502 317.529C396.485 319.883 396.909 324.187 395.071 325.864C395.968 326.612 397.417 327.168 398.516 327.527C408.224 330.702 419.439 324.885 422.27 314.78C423.343 310.855 423.352 306.716 422.296 302.787C420.09 294.277 407.497 274.628 402.634 266.29L404.699 265Z"/><path fill="#FDE75A" d="M396.237 316.634L396.502 317.529C396.485 319.883 396.909 324.187 395.071 325.864C389.952 323.255 388.2 321.641 384.737 317.344C387.011 317.446 394.71 318.265 396.237 316.634Z"/><path fill="#DEB726" d="M387.786 241.398C392.043 246.274 398.944 260.059 402.634 266.29C407.497 274.628 420.09 294.277 422.296 302.787C423.352 306.716 423.343 310.855 422.27 314.78C419.439 324.885 408.224 330.702 398.516 327.527C397.417 327.168 395.968 326.612 395.071 325.864C396.909 324.187 396.485 319.883 396.502 317.529C421.257 309.149 408.698 286.143 401.036 270.619C398.002 264.41 395.011 258.181 392.064 251.931C390.534 248.695 388.489 244.874 387.786 241.398Z"/><path fill="#AA8E24" d="M365.455 196.9L390.449 240.073C393.187 244.722 403.402 261.545 404.699 265L402.634 266.29C398.944 260.059 392.043 246.274 387.786 241.398C381.252 228.077 370.715 211.217 363.033 198.165C364.299 197.665 364.34 197.632 365.455 196.9Z"/><path fill="#AF8F26" d="M351.326 185.37C357.703 187.637 361.724 191.455 365.455 196.9C364.34 197.632 364.299 197.665 363.033 198.165C362.901 198.01 362.768 197.855 362.636 197.7C361.173 193.794 355.158 190.865 353.319 188.539C355.181 187.976 352.602 187.184 351.326 185.37Z"/><path fill="#AA8E24" d="M458.772 192.969C460.151 196.712 461.931 203.811 463.073 207.825C465.976 217.956 468.827 228.103 471.626 238.264C474.663 249.3 477.736 260.349 480.629 271.412C482.335 278.515 483.851 286.534 480.559 293.456C469.294 317.146 444.726 307.964 437.66 287.031C432.955 273.092 429.585 259.5 425.428 245.804L411.673 199.235C408.191 187.374 401.273 171.582 406.745 159.873C409.241 154.592 413.718 150.506 419.205 148.501C434.318 143.073 447.059 154.875 451.727 168.369C454.009 175.792 457.139 185.462 458.772 192.969Z"/><path fill="#FADA16" d="M440.757 287.126C440.47 286.445 440.195 285.76 439.93 285.07C436.496 276.119 433.013 262.761 430.283 253.351L416.624 206.74C414.115 197.96 411.347 189.235 408.819 180.46C406.897 173.787 405.896 167.849 409.186 161.26C414.971 149.675 425.765 147.523 436.952 152.786C444.568 158.373 446.326 161.329 449.549 170.081C450.734 173.797 451.885 177.525 453.002 181.262C455.699 191.512 457.865 201.138 460.378 211.327C460.732 211.595 461.439 212.08 461.583 212.558C467.627 232.599 472.369 251.385 478.191 271.679C482.318 286.066 480.018 301.375 462.428 305.083C458.432 305.925 451.696 302.264 448.661 299.725C445.182 296.78 442.558 292.953 441.064 288.646L440.757 287.126Z"/><path fill="#FDEE8F" d="M440.757 287.126C440.47 286.445 440.195 285.76 439.93 285.07C436.496 276.119 433.013 262.761 430.283 253.351L416.624 206.74C414.115 197.96 411.347 189.235 408.819 180.46C406.897 173.787 405.896 167.849 409.186 161.26C414.971 149.675 425.765 147.523 436.952 152.786C416.491 173.232 424.373 180.323 428.387 204.257C430.443 216.516 445.067 278.921 440.757 287.126Z"/><path fill="#DEB726" d="M460.378 211.327C460.732 211.595 461.439 212.08 461.583 212.558C467.627 232.599 472.369 251.385 478.191 271.679C482.318 286.066 480.018 301.375 462.428 305.083C458.432 305.925 451.696 302.264 448.661 299.725C445.182 296.78 442.558 292.953 441.064 288.646C449.062 292.753 456.659 294.023 463.365 286.771C466.537 283.285 468.575 278.916 469.208 274.245C470.038 267.97 468.366 259.923 467.287 253.664L462.679 227.083C461.836 222.18 460.541 216.233 460.378 211.327Z"/><path fill="#FADA16" d="M320.98 373.799C328.452 376.208 335.502 386.072 338.187 393.196C342.445 404.497 335.467 414.441 324.512 417.619C319.009 419.182 313.166 419.076 307.723 417.314C300.501 415.01 294.388 411.033 287.794 407.386L268.524 396.881C248.881 386.054 229.222 375.208 209.53 364.456C200.174 359.461 191.648 352.629 188.868 341.918C185.697 329.7 194.002 319.571 205.723 316.989C215.253 314.89 224.721 318.452 232.523 323.679L233.33 324.231C249.754 332.624 266.577 343.046 282.759 352.054C286.341 354.048 306.062 364.687 308.462 366.633C311.973 368.577 317.808 371.617 320.98 373.799Z"/><path fill="#AF8F26" d="M320.98 373.799C328.452 376.208 335.502 386.072 338.187 393.196C342.445 404.497 335.467 414.441 324.512 417.619C319.009 419.182 313.166 419.076 307.723 417.314C300.501 415.01 294.388 411.033 287.794 407.386L268.524 396.881C248.881 386.054 229.222 375.208 209.53 364.456C200.174 359.461 191.648 352.629 188.868 341.918C185.697 329.7 194.002 319.571 205.723 316.989C215.253 314.89 224.721 318.452 232.523 323.679L233.33 324.231C234.422 325.932 235.216 326.4 236.856 327.608C235.93 327.4 234.998 327.214 234.063 327.049L233.592 327.142C231.753 328.405 226.871 329.548 224.484 330.331C215.745 333.2 207.021 338.958 204.225 348.19C203.296 351.348 203.694 354.304 203.309 357.624C206.872 360.318 213.295 363.53 217.401 365.783L241.737 379.195L281.535 401.146C288.647 405.04 298.434 410.642 305.727 413.83C313.771 412.514 322.86 406.133 323.432 397.239C324.137 386.302 315.331 377.863 309.083 370.045L306.495 368.19C307.489 366.844 306.878 367.37 308.462 366.633C311.973 368.577 317.808 371.617 320.98 373.799Z"/><path fill="#FDEE8F" d="M203.309 357.624C197.293 352.85 192.89 347.758 191.244 340.085C188.26 325.869 202.857 317.055 215.51 319.387C223.288 320.82 226.909 323.577 233.592 327.142C231.753 328.405 226.871 329.548 224.484 330.331C215.745 333.2 207.021 338.958 204.225 348.19C203.296 351.348 203.694 354.304 203.309 357.624Z"/><path fill="#DEB726" d="M309.083 370.045C311.512 370.912 313.304 372.228 314.988 372.762C323.002 378.431 326.342 378.501 332.402 387.311C342.96 402.661 334.044 415.993 316.5 416.111C311.27 416.114 310.378 415.116 305.727 413.83C313.771 412.514 322.86 406.133 323.432 397.239C324.137 386.302 315.331 377.863 309.083 370.045Z"/><path fill="#AD9027" d="M233.33 324.231C249.754 332.624 266.577 343.046 282.759 352.054C286.341 354.048 306.062 364.687 308.462 366.633C306.878 367.37 307.489 366.844 306.495 368.19C303.98 367.47 287.11 357.374 283.517 355.342L250.986 336.951C247.13 334.764 237.159 329.366 234.063 327.049C234.998 327.214 235.93 327.4 236.856 327.608C235.216 326.4 234.422 325.932 233.33 324.231Z"/><path fill="#FADA16" d="M614.433 308.689C614.471 297.582 621.496 287.719 626.886 278.41L643.303 250.052L663.115 215.765C666.893 209.278 670.655 202.687 674.732 196.39C679.612 188.853 691.206 181.976 700.349 183.284C715.697 185.713 720.373 196.805 718.783 211.108C717.329 217.827 711.471 228.42 707.277 233.986C694.642 257.385 678.696 280.399 665.786 303.807C663.415 308.105 658.056 316.634 654.854 320.122C650.882 324.401 645.821 327.519 640.213 329.143C639.763 329.256 639.312 329.368 638.862 329.48C624.806 333.511 614.952 322.073 614.433 308.689Z"/><path fill="#DEB726" d="M698.861 186.18C700.361 185.471 700.661 185.427 702.221 185.023C712.952 190.903 716.574 194.429 717.138 207.221C717.876 209.134 718.311 208.917 718.783 211.108C717.329 217.827 711.471 228.42 707.277 233.986C694.642 257.385 678.696 280.399 665.786 303.807C663.415 308.105 658.056 316.634 654.854 320.122C650.882 324.401 645.821 327.519 640.213 329.143C639.763 329.256 639.312 329.368 638.862 329.48C624.806 333.511 614.952 322.073 614.433 308.689C615.293 307.25 615.991 306.292 616.988 304.938L617.121 304.324C617.388 305.885 618.579 307.479 619.686 308.581C626.471 315.91 643.459 312.228 649.438 304.957C663.449 287.918 675.393 267.97 688.29 249.944C695.216 239.548 702.919 229.817 709.042 218.918C714.291 209.577 713.114 195.968 704.944 188.867C702.723 187.7 701.167 187.094 698.861 186.18Z"/><path fill="#AA8E24" d="M708.672 227.437L708.497 228.432C708.061 231.401 707.241 230.286 707.277 233.986C694.642 257.385 678.696 280.399 665.786 303.807C663.415 308.105 658.056 316.634 654.854 320.122C650.882 324.401 645.821 327.519 640.213 329.143C639.763 329.256 639.312 329.368 638.862 329.48C624.806 333.511 614.952 322.073 614.433 308.689C615.293 307.25 615.991 306.292 616.988 304.938C616.851 326.502 630.483 333.294 648.455 322.679C656.912 316.269 666.767 297.145 672.644 287.323L694.224 251.147C698.608 243.749 703.847 234.42 708.672 227.437Z"/><path fill="#AD9027" d="M717.138 207.221C717.876 209.134 718.311 208.917 718.783 211.108C717.329 217.827 711.471 228.42 707.277 233.986C707.241 230.286 708.061 231.401 708.497 228.432L708.672 227.437C712.021 219.492 716.127 217.314 717.138 207.221Z"/><path fill="#FDEE8F" d="M614.433 308.689C614.471 297.582 621.496 287.719 626.886 278.41L643.303 250.052L663.115 215.765C666.893 209.278 670.655 202.687 674.732 196.39C679.612 188.853 691.206 181.976 700.349 183.284C715.697 185.713 720.373 196.805 718.783 211.108C718.311 208.917 717.876 209.134 717.138 207.221C716.574 194.429 712.952 190.903 702.221 185.023C700.661 185.427 700.361 185.471 698.861 186.18C701.167 187.094 702.723 187.7 704.944 188.867C701.02 194.977 697.917 198.185 691.738 201.974C688.773 203.937 686.607 205.41 684.547 208.273C679.283 215.592 671.962 226.336 667.04 233.243C662.063 240.226 625.965 291.598 621.638 292.913C619.231 297.202 618.292 299.491 617.121 304.324L616.988 304.938C615.991 306.292 615.293 307.25 614.433 308.689Z"/><path fill="#AA8E24" d="M614.433 308.689C614.471 297.582 621.496 287.719 626.886 278.41L643.303 250.052L663.115 215.765C666.893 209.278 670.655 202.687 674.732 196.39C679.612 188.853 691.206 181.976 700.349 183.284C715.697 185.713 720.373 196.805 718.783 211.108C718.311 208.917 717.876 209.134 717.138 207.221C716.574 194.429 712.952 190.903 702.221 185.023C700.661 185.427 700.361 185.471 698.861 186.18C684.483 185.019 676.899 197.816 670.556 208.384C661.319 223.774 652.358 239.29 643.372 254.827L628.717 280.256C626.677 283.818 623.265 289.331 621.638 292.913C619.231 297.202 618.292 299.491 617.121 304.324L616.988 304.938C615.991 306.292 615.293 307.25 614.433 308.689Z"/><path fill="#FADA16" d="M559.301 288.134C557.876 279.793 560.982 272.006 563.271 264.129C565.66 255.909 568.16 247.718 570.566 239.503C574.82 224.666 579.18 209.859 583.644 195.084C589.008 177.072 592.209 153.516 613.897 148.921C620.088 147.609 625.154 149.835 630.033 153.323C634.332 157.308 635.542 159.39 637.491 164.932C637.937 170.307 639.417 172.408 638.028 178.567C637.927 180.061 636.814 185.03 636.114 186.325C632.734 199.563 626.849 213.767 623.672 226.246C619.205 239.615 614.87 253.029 610.669 266.484C607.745 275.705 603.399 293.375 595.93 299.437C589.762 306.786 577.103 309.498 569.041 303.891C563.486 300.028 560.616 294.618 559.301 288.134Z"/><path fill="#FDEE8F" d="M559.301 288.134C557.876 279.793 560.982 272.006 563.271 264.129C565.66 255.909 568.16 247.718 570.566 239.503C574.82 224.666 579.18 209.859 583.644 195.084C589.008 177.072 592.209 153.516 613.897 148.921C620.088 147.609 625.154 149.835 630.033 153.323C630.036 154.389 630.031 155.455 630.018 156.521L628.987 155.891C627.079 157.519 624.534 158.739 622.274 159.854C606.679 167.548 603.136 182.08 597.405 197.402L588.087 221.985C582.923 235.479 577.44 248.848 571.644 262.083C569.816 266.158 565.301 276.425 562.633 279.245L562.371 278.292L561.929 279.988C560.188 282.648 559.964 285.008 559.301 288.134Z"/><path fill="#AA8E24" d="M559.301 288.134C557.876 279.793 560.982 272.006 563.271 264.129C565.66 255.909 568.16 247.718 570.566 239.503C574.82 224.666 579.18 209.859 583.644 195.084C589.008 177.072 592.209 153.516 613.897 148.921C620.088 147.609 625.154 149.835 630.033 153.323C630.036 154.389 630.031 155.455 630.018 156.521L628.987 155.891C618.048 147.702 605.54 151.496 597.902 162.293C592.692 169.657 588.814 186.777 586.046 196.111L573.079 239.944C571.228 246.231 562.846 273.395 562.371 278.292L561.929 279.988C560.188 282.648 559.964 285.008 559.301 288.134Z"/><path fill="#DEB726" d="M636.64 176.549C636.774 176.029 637.192 173.673 637.373 173.4C637.33 173.545 637.288 173.691 637.246 173.836L637.564 173.455C638.093 175.131 637.892 176.777 638.028 178.567C637.927 180.061 636.814 185.03 636.114 186.325C632.734 199.563 626.849 213.767 623.672 226.246C619.205 239.615 614.87 253.029 610.669 266.484C607.745 275.705 603.399 293.375 595.93 299.437C589.762 306.786 577.103 309.498 569.041 303.891C563.486 300.028 560.616 294.618 559.301 288.134C559.964 285.008 560.188 282.648 561.929 279.988L562.371 278.292L562.633 279.245C561.447 290.123 579.375 290.819 585.729 286.162C588.073 284.443 592.959 281.567 594.361 278.731C602.097 263.071 607.231 246.121 613.655 229.891C620.584 211.306 630.389 191.822 635.99 172.902L636.64 176.549Z"/><path fill="#AD9027" d="M623.636 218.931C623.733 221.314 623.586 223.686 623.672 226.246C619.205 239.615 614.87 253.029 610.669 266.484C607.745 275.705 603.399 293.375 595.93 299.437C596.348 297.156 599.699 293.705 598.779 292.796C602.939 284.423 605.473 274.733 608.403 265.819C613.501 250.316 618.106 234.264 623.636 218.931Z"/><path fill="#AA8E24" d="M561.929 279.988C562.146 285.25 561.453 288.322 563.512 293.249C569.574 307.753 586.079 307.517 595.556 296.52C596.3 295.658 597.967 293.382 598.779 292.796C599.699 293.705 596.348 297.156 595.93 299.437C589.762 306.786 577.103 309.498 569.041 303.891C563.486 300.028 560.616 294.618 559.301 288.134C559.964 285.008 560.188 282.648 561.929 279.988Z"/><path fill="#AA8E24" d="M633.084 188.575C633.365 189.084 633.483 189.696 634.065 189.661C634.756 188.712 634.707 188.108 636.114 186.325C632.734 199.563 626.849 213.767 623.672 226.246C623.586 223.686 623.733 221.314 623.636 218.931C624.06 216.169 625.626 213.065 626.222 210.322C627.745 203.315 631.563 195.405 633.084 188.575Z"/><path fill="#AA8E24" d="M636.64 176.549C636.774 176.029 637.192 173.673 637.373 173.4C637.33 173.545 637.288 173.691 637.246 173.836L637.564 173.455C638.093 175.131 637.892 176.777 638.028 178.567C637.927 180.061 636.814 185.03 636.114 186.325C634.707 188.108 634.756 188.712 634.065 189.661C633.483 189.696 633.365 189.084 633.084 188.575C634.804 184.106 635.377 180.953 636.64 176.549Z"/><path fill="#AD9027" d="M634.221 162.878C635.455 163.583 636.308 164.131 637.491 164.932C637.937 170.307 639.417 172.408 638.028 178.567C637.892 176.777 638.093 175.131 637.564 173.455L637.246 173.836C637.288 173.691 637.33 173.545 637.373 173.4C637.192 173.673 636.774 176.029 636.64 176.549L635.99 172.902C636.215 169.059 635.555 166.487 634.221 162.878Z"/><path fill="#AA8E24" d="M630.033 153.323C634.332 157.308 635.542 159.39 637.491 164.932C636.308 164.131 635.455 163.583 634.221 162.878C633.296 160.859 632.074 158.998 630.648 157.3L630.018 156.521C630.031 155.455 630.036 154.389 630.033 153.323Z"/><path fill="#FADA16" d="M157.685 438.743C157.269 438.391 156.639 437.509 156.345 437.046C144.494 420.141 162.005 403.259 179.292 404.925C195.751 406.512 214.959 413.454 231.271 417.267C247.63 421.091 263.739 426.141 280.053 430.072C281.667 430.484 288.814 432.282 289.815 432.798C300.271 434.715 308.156 439.467 313.914 448.607C318.797 458.406 317.772 468.356 307.385 473.848C296.223 482.641 271.078 474.567 258.626 471.587C242.16 467.611 225.733 463.474 209.347 459.177C197.624 456.162 185.619 453.417 174.037 449.928C168.047 448.124 161.387 443.82 157.685 438.743Z"/><path fill="#FDEE8F" d="M157.685 438.743C157.269 438.391 156.639 437.509 156.345 437.046C144.494 420.141 162.005 403.259 179.292 404.925C195.751 406.512 214.959 413.454 231.271 417.267C247.63 421.091 263.739 426.141 280.053 430.072C278.367 430.302 276.174 430.851 274.356 431.154C266.267 429.001 257.035 426.342 248.916 424.607C247.803 425.276 246.688 425.45 245.4 425.334C232.903 424.203 220.21 423.902 207.733 423.379C186.044 422.471 176.275 422.799 159.565 437.101L160.462 438.903C158.737 439.496 159.632 439.444 157.685 438.743Z"/><path fill="#AA8E24" d="M157.685 438.743C157.269 438.391 156.639 437.509 156.345 437.046C144.494 420.141 162.005 403.259 179.292 404.925C195.751 406.512 214.959 413.454 231.271 417.267C247.63 421.091 263.739 426.141 280.053 430.072C278.367 430.302 276.174 430.851 274.356 431.154C266.267 429.001 257.035 426.342 248.916 424.607C229.98 419.243 210.74 414.591 191.774 409.284C187.914 408.204 183.948 407.517 179.95 407.356C164.923 406.597 148.271 418.164 157.653 434.437C158.2 435.358 158.858 436.305 159.565 437.101L160.462 438.903C158.737 439.496 159.632 439.444 157.685 438.743Z"/><path fill="#DEB726" d="M274.356 431.154C276.174 430.851 278.367 430.302 280.053 430.072C281.667 430.484 288.814 432.282 289.815 432.798C300.271 434.715 308.156 439.467 313.914 448.607C312.414 447.388 311.393 445.933 309.544 446.56C313.139 452.495 314.39 453.698 314.356 461.171C313.969 461.912 314.115 461.723 313.908 462.484C311.164 472.594 297.69 476.213 288.5 475.59C280.28 475.033 273.16 472.507 265.448 470.608C277.335 470.183 288.613 468.466 294.867 456.904C299.639 448.082 296.528 441.163 289.208 435.203C285.44 433.944 278.324 431.93 274.356 431.154Z"/><path fill="#AF8F26" d="M274.356 431.154C276.174 430.851 278.367 430.302 280.053 430.072C281.667 430.484 288.814 432.282 289.815 432.798C300.271 434.715 308.156 439.467 313.914 448.607C312.414 447.388 311.393 445.933 309.544 446.56C309.097 446.277 309.122 446.323 308.778 445.896C304.737 440.911 298.76 437.561 292.734 435.566C292.06 435.343 292.319 435.513 291.599 435.146C290.793 435.158 290.013 435.163 289.208 435.203C285.44 433.944 278.324 431.93 274.356 431.154Z"/><path fill="#AA8E24" d="M160.462 438.903C162.694 440.867 168.682 445.825 171.319 446.699C182.021 450.244 194.832 453.069 205.847 455.63C225.504 460.2 245.86 466.404 265.448 470.608C273.16 472.507 280.28 475.033 288.5 475.59C297.69 476.213 311.164 472.594 313.908 462.484C314.115 461.723 313.969 461.912 314.356 461.171C314.39 453.698 313.139 452.495 309.544 446.56C311.393 445.933 312.414 447.388 313.914 448.607C318.797 458.406 317.772 468.356 307.385 473.848C296.223 482.641 271.078 474.567 258.626 471.587C242.16 467.611 225.733 463.474 209.347 459.177C197.624 456.162 185.619 453.417 174.037 449.928C168.047 448.124 161.387 443.82 157.685 438.743C159.632 439.444 158.737 439.496 160.462 438.903Z"/><path fill="#AA8E24" d="M701.637 377.495C706.226 369.031 721.699 361.101 730.059 356.221C743.621 348.411 757.248 340.713 770.939 333.129C784.472 325.513 800.441 315.158 814.795 309.667C831.883 303.131 855.653 318.179 845.105 338.134C839.95 348.94 826.507 354.805 816.42 360.498L785.038 378.119L756.858 394.083C742.384 402.341 722.074 417.448 704.321 405.908C700.722 403.569 698.725 400.702 697.486 396.549C695.763 390.187 697.624 382.651 701.637 377.495Z"/><path fill="#FADA16" d="M704.037 378.143C706.645 374.146 711.018 370.514 715.113 368.04C733.89 356.699 753.069 345.98 772.163 335.179C781.253 330.001 790.383 324.892 799.551 319.853C810.249 314.025 814.024 310.778 826.574 310.438L828.555 310.952C833.511 319.614 833.774 330.21 826.588 337.048C815.37 347.723 789.655 359.032 776.39 366.46C757.6 376.983 741.427 387.312 721.75 394.701C715.772 396.689 705.131 393.61 699.379 391.642L699.417 388.827C699.434 388.574 699.451 388.321 699.468 388.068C700.725 383.602 701.556 381.828 704.037 378.143Z"/><path fill="#FDEE8F" d="M704.037 378.143C706.645 374.146 711.018 370.514 715.113 368.04C733.89 356.699 753.069 345.98 772.163 335.179C781.253 330.001 790.383 324.892 799.551 319.853C810.249 314.025 814.024 310.778 826.574 310.438C825.419 318.31 825.148 322.149 817.236 325.864C808.477 329.977 799.677 334.061 790.936 338.213C770.017 348.313 748.958 358.12 727.765 367.632C722.287 370.09 708.855 376.619 704.037 378.143Z"/><path fill="#DEB726" d="M828.555 310.952C838.988 313.376 847.208 320.743 844.458 332.439C842.153 342.239 834.37 347.337 826.167 352.047L769.938 383.649C762.741 387.755 755.667 391.932 748.475 396.103C739.606 401.247 730.262 407.887 719.654 407.775C709.403 407.667 699.768 403.169 699.379 391.642C705.131 393.61 715.772 396.689 721.75 394.701C741.427 387.312 757.6 376.983 776.39 366.46C789.655 359.032 815.37 347.723 826.588 337.048C833.774 330.21 833.511 319.614 828.555 310.952Z"/><path fill="#AD9027" d="M697.486 396.549C695.763 390.187 697.624 382.651 701.637 377.495L701.505 378.419C700.922 383.047 698.627 381.67 699.468 388.068C699.451 388.321 699.434 388.574 699.417 388.827C699.147 389.609 698.829 390.375 698.676 391.189L698.654 391.182C698.462 390.571 698.653 389.797 698.239 389.267L698.242 389.298L697.814 389.623C696.769 392.485 698.365 393.4 697.486 396.549Z"/><path fill="#FADA16" d="M376.533 354.512C370.373 369.686 355.349 370.588 342.31 364.301C340.335 363.364 338.486 362.183 336.806 360.785C333.879 358.309 329.873 353.921 326.889 351.137C316.073 341.043 305.7 330.419 295.116 320.079L268.942 294.623C262.872 288.693 254.49 281.373 250.261 274.365C243.272 262.784 246.556 245.707 260.874 241.833C267.047 240.162 273.719 240.273 279.31 243.27C288.069 246.555 316.338 276.573 324.57 284.556C334.351 294.01 344.032 303.566 353.613 313.222C356.742 316.353 365.052 324.288 367.435 327.438C370.872 329.452 374.923 338.142 376.448 341.906C376.713 344.629 377.723 346.794 377.355 349.752C377.175 351.196 376.59 353.234 376.533 354.512Z"/><path fill="#FDEE8F" d="M376.533 354.512C370.373 369.686 355.349 370.588 342.31 364.301C340.335 363.364 338.486 362.183 336.806 360.785C333.879 358.309 329.873 353.921 326.889 351.137C316.073 341.043 305.7 330.419 295.116 320.079L268.942 294.623C262.872 288.693 254.49 281.373 250.261 274.365C243.272 262.784 246.556 245.707 260.874 241.833C267.047 240.162 273.719 240.273 279.31 243.27C280.351 244.71 280.626 244.903 282.126 245.879C282.094 246.184 282.047 246.873 281.961 247.131L279.626 246.048C274.672 249.979 270.935 253.987 270.054 260.643C268.144 274.623 280.708 283.256 289.482 291.998C306.448 308.902 323.595 325.752 340.231 342.984C344.437 347.341 347.69 351.598 347.672 357.844C347.447 359.855 347.695 361.698 347.539 363.926C360.02 367.816 371.27 364.645 375.047 351.151L375.345 352.055C375.613 352.959 376.033 353.716 376.533 354.512Z"/><path fill="#AA8E24" d="M376.533 354.512C370.373 369.686 355.349 370.588 342.31 364.301C340.335 363.364 338.486 362.183 336.806 360.785C333.879 358.309 329.873 353.921 326.889 351.137C316.073 341.043 305.7 330.419 295.116 320.079L268.942 294.623C262.872 288.693 254.49 281.373 250.261 274.365C243.272 262.784 246.556 245.707 260.874 241.833C267.047 240.162 273.719 240.273 279.31 243.27C280.351 244.71 280.626 244.903 282.126 245.879C282.094 246.184 282.047 246.873 281.961 247.131L279.626 246.048C273.56 243.401 266.797 242.145 260.436 244.652C256.083 246.367 252.312 249.871 250.586 254.254C248.348 259.934 249.551 266.719 252.036 272.148C256.121 281.073 287.273 308.871 295.709 317.042L337.562 357.887C340.65 357.795 344.608 357.67 347.672 357.844C347.447 359.855 347.695 361.698 347.539 363.926C360.02 367.816 371.27 364.645 375.047 351.151L375.345 352.055C375.613 352.959 376.033 353.716 376.533 354.512Z"/><path fill="#FDE75A" d="M337.562 357.887C340.65 357.795 344.608 357.67 347.672 357.844C347.447 359.855 347.695 361.698 347.539 363.926C342.827 361.811 341.705 361.404 337.562 357.887Z"/><path fill="#DEB726" d="M279.31 243.27C288.069 246.555 316.338 276.573 324.57 284.556C334.351 294.01 344.032 303.566 353.613 313.222C356.742 316.353 365.052 324.288 367.435 327.438C370.872 329.452 374.923 338.142 376.448 341.906C376.713 344.629 377.723 346.794 377.355 349.752C377.175 351.196 376.59 353.234 376.533 354.512C376.033 353.716 375.613 352.959 375.345 352.055L375.047 351.151C371.27 364.645 360.02 367.816 347.539 363.926C347.695 361.698 347.447 359.855 347.672 357.844C349.579 357.405 351.554 356.349 353.046 355.113C371.189 340.072 352.621 323.954 342.32 311.936C334.14 302.393 324.482 292.266 317.022 282.362L316.753 282.001C309.106 272.429 291.764 254.549 281.961 247.131C282.047 246.873 282.094 246.184 282.126 245.879C280.626 244.903 280.351 244.71 279.31 243.27Z"/><path fill="#AF8F26" d="M279.31 243.27C288.069 246.555 316.338 276.573 324.57 284.556C334.351 294.01 344.032 303.566 353.613 313.222C356.742 316.353 365.052 324.288 367.435 327.438C363.997 326.004 365.181 324.76 360.49 323.128C358.675 321.801 352.308 315.161 350.114 312.994L327.91 291.144C325.254 288.5 320.163 282.408 316.753 282.001C309.106 272.429 291.764 254.549 281.961 247.131C282.047 246.873 282.094 246.184 282.126 245.879C280.626 244.903 280.351 244.71 279.31 243.27Z"/><path fill="#AA8E24" d="M360.49 323.128C365.181 324.76 363.997 326.004 367.435 327.438C370.872 329.452 374.923 338.142 376.448 341.906C376.713 344.629 377.723 346.794 377.355 349.752C377.175 351.196 376.59 353.234 376.533 354.512C376.033 353.716 375.613 352.959 375.345 352.055L375.047 351.151C375.081 349.482 375.112 347.867 375.137 346.196C371.945 334.359 368.305 331.912 360.49 323.128Z"/><path fill="#FADA16" d="M711.785 608.229C717.739 606.876 721.492 606.024 727.757 607.438C729.916 607.925 732.984 609.115 734.862 609.363C738.316 609.007 738.687 610.033 742.044 610.264C753.691 615.284 770.699 624.724 782.488 630.67C791.007 634.882 799.468 639.208 807.87 643.648C809.831 644.672 816.35 647.844 817.816 648.806C829.939 653.964 846.222 661.859 851.538 674.672C854.887 682.745 852.922 690.443 846.579 696.337C837.645 705.017 822.561 703.476 812.354 698.224C800.648 692.2 789.036 686.079 777.362 679.998C763.185 672.674 749.085 665.202 735.065 657.583C726.114 652.716 709.164 644.669 703.728 636.667C699.2 631.294 698.241 626.268 698.487 619.536C700.448 619.88 700.006 618.792 700.691 620.37C704.257 612.366 703.385 612.293 711.785 608.229Z"/><path fill="#DEB726" d="M711.785 608.229C717.739 606.876 721.492 606.024 727.757 607.438C729.916 607.925 732.984 609.115 734.862 609.363C738.316 609.007 738.687 610.033 742.044 610.264C753.691 615.284 770.699 624.724 782.488 630.67C791.007 634.882 799.468 639.208 807.87 643.648C809.831 644.672 816.35 647.844 817.816 648.806C829.939 653.964 846.222 661.859 851.538 674.672C854.887 682.745 852.922 690.443 846.579 696.337C837.645 705.017 822.561 703.476 812.354 698.224C800.648 692.2 789.036 686.079 777.362 679.998C763.185 672.674 749.085 665.202 735.065 657.583C726.114 652.716 709.164 644.669 703.728 636.667C699.2 631.294 698.241 626.268 698.487 619.536C700.448 619.88 700.006 618.792 700.691 620.37C700.506 623.376 700.715 624.295 700.973 627.135L703.677 632.551C707.528 634.658 712.344 639.024 717.619 641.828C738.035 652.678 757.916 663.477 778.57 673.992C791.017 679.883 803.791 689.287 816.732 693.605C822.082 695.389 835.075 692.668 835.572 685.467C835.894 680.797 834.655 674.209 831.329 670.884C824.232 663.788 813.934 659.421 805.208 654.555L765.247 632.347C748.393 623.191 730.873 610.482 711.785 608.229Z"/><path fill="#AA8E24" d="M698.487 619.536C700.448 619.88 700.006 618.792 700.691 620.37C700.506 623.376 700.715 624.295 700.973 627.135L703.677 632.551C710.883 643.648 722.636 648.276 734 654.323L766.3 671.453L796.915 687.489C802.309 690.348 809.851 694.659 815.299 697.118C817.618 698.145 820.032 698.94 822.508 699.492C834.861 702.198 845.099 698.481 850.438 686.473C852.681 691.057 847.309 692.276 846.579 696.337C837.645 705.017 822.561 703.476 812.354 698.224C800.648 692.2 789.036 686.079 777.362 679.998C763.185 672.674 749.085 665.202 735.065 657.583C726.114 652.716 709.164 644.669 703.728 636.667C699.2 631.294 698.241 626.268 698.487 619.536Z"/><path fill="#AD9027" d="M698.487 619.536C700.448 619.88 700.006 618.792 700.691 620.37C700.506 623.376 700.715 624.295 700.973 627.135C700.096 627.343 700.155 625.885 699.807 625.103C699.372 626.346 700.414 628.886 700.902 630.007C701.565 631.496 702.341 632.932 703.222 634.304C703.803 635.222 703.748 635.622 703.728 636.667C699.2 631.294 698.241 626.268 698.487 619.536Z"/><path fill="#AF8F26" d="M734.862 609.363C738.316 609.007 738.687 610.033 742.044 610.264C753.691 615.284 770.699 624.724 782.488 630.67C791.007 634.882 799.468 639.208 807.87 643.648C809.831 644.672 816.35 647.844 817.816 648.806C829.939 653.964 846.222 661.859 851.538 674.672C854.887 682.745 852.922 690.443 846.579 696.337C847.309 692.276 852.681 691.057 850.438 686.473L850.445 686.009L850.448 685.236C850.645 666.633 837.018 662.208 823.679 654.317C812.607 649.174 800.725 642.734 789.79 637.119L734.862 609.363Z"/><path fill="#FADA16" d="M246.798 541.854L195.604 541.915C185.692 541.917 175.336 542.255 165.555 541.313C152.93 540.097 138.23 528.376 141.336 514.467C143.924 502.881 156.108 497.288 166.939 496.707C183.438 495.823 200.163 496.375 216.687 496.457C231.797 496.526 246.906 496.685 262.015 496.934C277.168 497.17 296.952 495.626 306.355 510.518C312.907 519.928 307.463 531.142 298.594 536.682C288.382 543.061 278.905 542.156 267.399 542.056L246.798 541.854Z"/><path fill="#FDEE8F" d="M246.798 541.854L195.604 541.915C185.692 541.917 175.336 542.255 165.555 541.313C152.93 540.097 138.23 528.376 141.336 514.467C143.924 502.881 156.108 497.288 166.939 496.707C183.438 495.823 200.163 496.375 216.687 496.457C231.797 496.526 246.906 496.685 262.015 496.934C277.168 497.17 296.952 495.626 306.355 510.518C304.579 509.826 303.226 507.786 301.037 506.364L300.42 507.037C299.918 506.873 298.565 506.02 298.031 505.706C291.694 507.807 277.317 507.889 270.076 508.072C251.829 508.56 233.587 509.199 215.351 509.99C204.672 510.399 192.844 510.242 182.373 511.898C167.709 514.215 158.238 519.491 150.96 532.245C161.389 541.356 173.517 538.968 186.382 538.474C188.732 538.679 198.455 539.659 200.713 540.026C206.604 541.358 216.746 539.807 222.411 540.763C219.865 541.34 204.268 540.884 200.018 541.204C207.172 541.366 243.314 540.789 246.798 541.854Z"/><path fill="#AD9027" d="M246.798 541.854L195.604 541.915C185.692 541.917 175.336 542.255 165.555 541.313C152.93 540.097 138.23 528.376 141.336 514.467C143.924 502.881 156.108 497.288 166.939 496.707C183.438 495.823 200.163 496.375 216.687 496.457C231.797 496.526 246.906 496.685 262.015 496.934C277.168 497.17 296.952 495.626 306.355 510.518C304.579 509.826 303.226 507.786 301.037 506.364L300.42 507.037C299.918 506.873 298.565 506.02 298.031 505.706C287.716 499.751 281.903 499.52 270.065 499.528C261.089 499.535 251.85 499.431 242.867 499.322L204.654 498.802C194.529 498.615 184.455 498.396 174.32 498.561C163.934 498.73 150.663 500.714 145.307 511.061C143.346 514.782 143.017 519.15 144.397 523.123C145.817 527.219 147.886 529.431 150.96 532.245C161.389 541.356 173.517 538.968 186.382 538.474C188.732 538.679 198.455 539.659 200.713 540.026C206.604 541.358 216.746 539.807 222.411 540.763C219.865 541.34 204.268 540.884 200.018 541.204C207.172 541.366 243.314 540.789 246.798 541.854Z"/><path fill="#DEB726" d="M300.42 507.037L301.037 506.364C303.226 507.786 304.579 509.826 306.355 510.518C312.907 519.928 307.463 531.142 298.594 536.682C288.382 543.061 278.905 542.156 267.399 542.056L246.798 541.854C243.314 540.789 207.172 541.366 200.018 541.204C204.268 540.884 219.865 541.34 222.411 540.763C216.746 539.807 206.604 541.358 200.713 540.026C198.455 539.659 188.732 538.679 186.382 538.474C189.231 537.658 203.858 537.116 207.476 537.029C223.633 536.612 239.772 535.642 255.921 534.858C261.557 534.584 271.585 534.976 276.668 533.802C287.339 531.337 299.657 519.165 300.998 508.005L300.42 507.037Z"/><path fill="#AA8E24" d="M300.42 507.037L301.037 506.364C303.226 507.786 304.579 509.826 306.355 510.518C312.907 519.928 307.463 531.142 298.594 536.682C288.382 543.061 278.905 542.156 267.399 542.056L246.798 541.854C243.314 540.789 207.172 541.366 200.018 541.204C204.268 540.884 219.865 541.34 222.411 540.763C216.746 539.807 206.604 541.358 200.713 540.026C224.777 539.411 249.519 540.295 273.611 540.005C284.159 539.829 294.713 538.684 302.288 530.519C308.993 523.292 308.655 514.358 300.998 508.005L300.42 507.037Z"/><path fill="#FADA16" d="M724.998 431.872C727.371 429.146 730.182 426.835 733.315 425.033C739.442 421.458 754.494 417.744 761.77 415.627L810.792 401.549L837.827 393.866C842.678 392.485 848.547 390.498 853.456 389.752C863.033 388.295 875.893 391.62 880.877 400.411C887.88 410.707 880.974 424.636 871.576 430.117C862.154 435.612 846.147 438.778 835.4 441.601C822.018 445.216 808.617 448.763 795.198 452.24C780.756 455.978 766.434 460.312 751.882 463.454C749.234 464.026 744.486 464.594 742.011 464.538C730.266 464.274 715.4 455.583 719.186 441.95C720.063 438.791 722.358 433.745 724.998 431.872Z"/><path fill="#DEB726" d="M864.786 392.266C869.468 393.113 871.852 394.523 875.557 397.623C877.825 398.586 878.771 399.117 880.877 400.411C887.88 410.707 880.974 424.636 871.576 430.117C862.154 435.612 846.147 438.778 835.4 441.601C822.018 445.216 808.617 448.763 795.198 452.24C780.756 455.978 766.434 460.312 751.882 463.454C749.234 464.026 744.486 464.594 742.011 464.538C730.266 464.274 715.4 455.583 719.186 441.95C720.063 438.791 722.358 433.745 724.998 431.872C726.658 431.322 728.132 430.037 729.814 429.042L729.963 430.226C725.687 434.293 723.933 435.956 721.574 441.607C723.699 448.901 744.135 450.561 750.544 449.222C770.097 445.134 789.337 439.99 808.728 435.251L838.307 427.946C842.551 426.886 851.247 425.27 854.853 423.49C869.346 416.337 876.468 405.582 864.786 392.266Z"/><path fill="#AA8E24" d="M875.557 397.623C877.825 398.586 878.771 399.117 880.877 400.411C887.88 410.707 880.974 424.636 871.576 430.117C862.154 435.612 846.147 438.778 835.4 441.601C822.018 445.216 808.617 448.763 795.198 452.24C780.756 455.978 766.434 460.312 751.882 463.454C749.234 464.026 744.486 464.594 742.011 464.538C730.266 464.274 715.4 455.583 719.186 441.95C720.063 438.791 722.358 433.745 724.998 431.872C726.658 431.322 728.132 430.037 729.814 429.042L729.963 430.226C725.687 434.293 723.933 435.956 721.574 441.607C716.14 458.261 739.124 464.826 752.42 461.196C783.433 452.73 814.581 444.608 845.661 436.39C851.353 434.885 858.148 433.26 863.619 431.305C867.167 429.997 870.463 428.088 873.362 425.661C882.751 417.841 883.76 406.682 875.557 397.623Z"/><path fill="#FDEE8F" d="M724.998 431.872C727.371 429.146 730.182 426.835 733.315 425.033C739.442 421.458 754.494 417.744 761.77 415.627L810.792 401.549L837.827 393.866C842.678 392.485 848.547 390.498 853.456 389.752C863.033 388.295 875.893 391.62 880.877 400.411C878.771 399.117 877.825 398.586 875.557 397.623C871.852 394.523 869.468 393.113 864.786 392.266C864.209 392.136 862.209 391.986 861.509 391.916C861.888 399.837 854.068 402.313 847.774 403.979C833.106 407.86 818.186 410.142 803.346 413.411C787.242 417.042 771.108 420.544 754.947 423.917C750.326 424.867 738.48 427.777 734.341 427.246C732.592 428.307 731.577 428.975 729.963 430.226L729.814 429.042C728.132 430.037 726.658 431.322 724.998 431.872Z"/><path fill="#AA8E24" d="M724.998 431.872C727.371 429.146 730.182 426.835 733.315 425.033C739.442 421.458 754.494 417.744 761.77 415.627L810.792 401.549L837.827 393.866C842.678 392.485 848.547 390.498 853.456 389.752C863.033 388.295 875.893 391.62 880.877 400.411C878.771 399.117 877.825 398.586 875.557 397.623C871.852 394.523 869.468 393.113 864.786 392.266C864.209 392.136 862.209 391.986 861.509 391.916C851.961 391.341 837.788 396.322 828.167 399.01C812.906 403.276 797.671 407.634 782.463 412.084L756.287 419.686C749.721 421.594 740.136 423.965 734.341 427.246C732.592 428.307 731.577 428.975 729.963 430.226L729.814 429.042C728.132 430.037 726.658 431.322 724.998 431.872Z"/><path fill="#FADA16" d="M743.265 546.95C750.373 545.641 757.99 548.068 764.953 549.805L765.635 549.947C765.755 549.969 765.874 549.992 765.994 550.014L772.745 551.62C773.625 551.824 774.157 551.953 774.952 552.329C780.388 553.151 787.046 554.886 792.493 556.128L796.993 557.127C798.658 557.496 800.163 557.884 801.858 558.194L841.238 567.388C847.918 568.955 859.25 571.379 865.499 573.637C877.132 576.251 889.426 587.877 886.235 600.868L886.026 601.707C883.749 612.361 867.965 619.279 858.088 617.614C844.195 615.272 829.798 610.842 816.012 607.616C800.486 604.043 784.986 600.363 769.511 596.577C755.266 593.144 725.861 589.268 722.117 571.71C717.13 557.622 730.572 547.933 743.265 546.95Z"/><path fill="#DEB726" d="M743.265 546.95C750.373 545.641 757.99 548.068 764.953 549.805C764.112 550.958 763.773 550.985 762.453 551.612C759.751 550.743 754.073 549.658 751.103 549.048C739.998 548.695 725.05 552.125 723.308 565.341C723.468 566.619 723.649 568.516 723.919 569.712C728.335 574.244 733.372 578.677 739.467 580.712C752.324 585.004 766.862 587.047 780.162 590.07L822.531 599.737C836.523 602.99 871.793 615.076 872.88 590.772C871.812 588.599 868.682 583.344 866.499 582.364C845.172 572.785 820.902 568.786 798.61 561.756C794.471 560.451 791.043 559.612 787.244 557.938C791.637 558.06 795.04 558.958 799.334 559.816C800.555 558.901 800.552 558.875 801.858 558.194L841.238 567.388C847.918 568.955 859.25 571.379 865.499 573.637C877.132 576.251 889.426 587.877 886.235 600.868L886.026 601.707C883.749 612.361 867.965 619.279 858.088 617.614C844.195 615.272 829.798 610.842 816.012 607.616C800.486 604.043 784.986 600.363 769.511 596.577C755.266 593.144 725.861 589.268 722.117 571.71C717.13 557.622 730.572 547.933 743.265 546.95Z"/><path fill="#AA8E24" d="M743.265 546.95C750.373 545.641 757.99 548.068 764.953 549.805C764.112 550.958 763.773 550.985 762.453 551.612C759.751 550.743 754.073 549.658 751.103 549.048C739.998 548.695 725.05 552.125 723.308 565.341C723.468 566.619 723.649 568.516 723.919 569.712C728.341 587.759 753.959 590.347 769.248 594.058L818.918 605.964C830.811 608.817 842.539 611.977 854.49 614.59C866.151 617.141 879.644 612.466 884.107 600.605L884.58 599.762C885.053 598.908 885.112 596.816 885.62 596.807C885.826 597.125 885.573 599.833 886.026 601.707C883.749 612.361 867.965 619.279 858.088 617.614C844.195 615.272 829.798 610.842 816.012 607.616C800.486 604.043 784.986 600.363 769.511 596.577C755.266 593.144 725.861 589.268 722.117 571.71C717.13 557.622 730.572 547.933 743.265 546.95Z"/><path fill="#AA8E24" d="M801.858 558.194L841.238 567.388C847.918 568.955 859.25 571.379 865.499 573.637C864.419 574.389 863.558 574.64 862.419 575.295C841.435 569.956 820.406 564.797 799.334 559.816C800.555 558.901 800.552 558.875 801.858 558.194Z"/><path fill="#AF8F26" d="M865.499 573.637C877.132 576.251 889.426 587.877 886.235 600.868L886.026 601.707C885.573 599.833 885.826 597.125 885.62 596.807C885.112 596.816 885.053 598.908 884.58 599.762L884.107 600.605C883.656 584.359 876.543 580.452 862.419 575.295C863.558 574.64 864.419 574.389 865.499 573.637Z"/><path fill="#AF8F26" d="M764.953 549.805L765.635 549.947C765.755 549.969 765.874 549.992 765.994 550.014L772.745 551.62C773.625 551.824 774.157 551.953 774.952 552.329C780.388 553.151 787.046 554.886 792.493 556.128L796.993 557.127C798.658 557.496 800.163 557.884 801.858 558.194C800.552 558.875 800.555 558.901 799.334 559.816C795.04 558.958 791.637 558.06 787.244 557.938C785.221 557.434 777.173 555.47 775.684 554.699C771.333 553.998 766.81 552.53 762.453 551.612C763.773 550.985 764.112 550.958 764.953 549.805Z"/><path fill="#FADA16" d="M237.672 713.29C228.589 721.7 208.276 722.003 198.922 713.254C195.347 709.877 193.34 705.164 193.385 700.247C193.376 682.261 215.523 673.017 228.906 665.189C244.83 655.856 260.824 646.643 276.887 637.553C285.955 632.401 294.986 627.127 304.052 621.962C314.857 615.805 330.367 614.906 339.534 624.825C348.122 634.597 341.217 649.676 332.235 656.826C323.799 663.541 313.275 668.469 304.196 674.355C289.151 683.082 272.343 694.105 257.104 701.888C254.171 701.505 251 703.922 247.986 704.74C246.881 705.147 239.532 709.455 238.576 710.228C238.63 710.288 239.266 710.861 239.253 711.143C239.241 711.406 238.577 711.8 238.431 711.905C237.907 712.279 237.854 712.687 237.672 713.29Z"/><path fill="#FDEE8F" d="M237.672 713.29C228.589 721.7 208.276 722.003 198.922 713.254C195.347 709.877 193.34 705.164 193.385 700.247C193.376 682.261 215.523 673.017 228.906 665.189C244.83 655.856 260.824 646.643 276.887 637.553C285.955 632.401 294.986 627.127 304.052 621.962C314.857 615.805 330.367 614.906 339.534 624.825C337.658 624.138 336.978 623.895 335.036 623.515C333.377 622.647 331.697 621.875 330.005 621.08L327.785 620.43C324.67 623.653 317.461 627.072 313.404 629.821C297.458 640.502 281.425 651.054 265.308 661.476C248.485 672.235 211.208 692.439 211.507 715.227C211.516 715.803 211.542 716.379 211.584 716.953C220.598 717.297 223.218 716.802 231.75 713.708C233.873 712.762 236.467 711.32 238.576 710.228C238.63 710.288 239.266 710.861 239.253 711.143C239.241 711.406 238.577 711.8 238.431 711.905C237.907 712.279 237.854 712.687 237.672 713.29Z"/><path fill="#AA8E24" d="M237.672 713.29C228.589 721.7 208.276 722.003 198.922 713.254C195.347 709.877 193.34 705.164 193.385 700.247C193.376 682.261 215.523 673.017 228.906 665.189C244.83 655.856 260.824 646.643 276.887 637.553C285.955 632.401 294.986 627.127 304.052 621.962C314.857 615.805 330.367 614.906 339.534 624.825C337.658 624.138 336.978 623.895 335.036 623.515C333.377 622.647 331.697 621.875 330.005 621.08L327.785 620.43C322.54 619.57 314.771 619.482 310.049 621.821C298.998 627.296 287.118 634.631 276.356 640.768L232.543 666C224.424 670.725 216.08 675.351 208.317 680.62C191.86 691.789 190.38 710.085 211.584 716.953C220.598 717.297 223.218 716.802 231.75 713.708C233.873 712.762 236.467 711.32 238.576 710.228C238.63 710.288 239.266 710.861 239.253 711.143C239.241 711.406 238.577 711.8 238.431 711.905C237.907 712.279 237.854 712.687 237.672 713.29Z"/><path fill="#DEB726" d="M330.005 621.08C331.697 621.875 333.377 622.647 335.036 623.515C336.978 623.895 337.658 624.138 339.534 624.825C348.122 634.597 341.217 649.676 332.235 656.826C323.799 663.541 313.275 668.469 304.196 674.355C289.151 683.082 272.343 694.105 257.104 701.888C254.171 701.505 251 703.922 247.986 704.74C246.881 705.147 239.532 709.455 238.576 710.228C236.467 711.32 233.873 712.762 231.75 713.708C233.483 709.113 252.152 697.334 257.097 693.902L296.267 666.695C312.737 655.41 333.704 644.761 330.005 621.08Z"/><path fill="#AF8F26" d="M335.036 623.515C336.978 623.895 337.658 624.138 339.534 624.825C348.122 634.597 341.217 649.676 332.235 656.826C323.799 663.541 313.275 668.469 304.196 674.355C289.151 683.082 272.343 694.105 257.104 701.888C254.171 701.505 251 703.922 247.986 704.74C250.39 702.738 262.17 696.284 265.627 694.3C278.811 686.682 291.916 678.929 304.94 671.042C314.132 665.51 326.264 659.576 333.528 652.037C341.568 643.693 344.792 631.933 335.036 623.515Z"/><path fill="#FADA16" d="M664.259 669.232C667.613 657.189 674.982 653.841 687.498 654.7C688.925 654.798 691.719 655.385 693.051 655.969C698.726 657.582 705.094 661.897 709.119 666.183C723.24 681.222 741.136 695.198 754.829 710.431C755.695 711.031 761.5 716.654 762.084 717.503C771.443 725.525 798.59 748.752 792.715 762.392C790.261 783.775 759.787 783.171 747.817 767.932C742.952 763.531 737.047 757.279 732.276 752.569L704.962 725.825C697.395 718.346 670.577 693.455 667.223 685.956L666.961 685.469C663.941 679.939 663.546 675.326 664.259 669.232Z"/><path fill="#DEB726" d="M664.259 669.232C667.613 657.189 674.982 653.841 687.498 654.7C688.925 654.798 691.719 655.385 693.051 655.969C698.726 657.582 705.094 661.897 709.119 666.183C723.24 681.222 741.136 695.198 754.829 710.431C755.695 711.031 761.5 716.654 762.084 717.503C771.443 725.525 798.59 748.752 792.715 762.392C790.261 783.775 759.787 783.171 747.817 767.932C748.293 764.196 745.021 765.344 746.207 763.118C749.98 766.066 752.024 769.362 756.474 771.897C763.471 772.189 772.658 770.852 774.29 762.464C776.645 750.358 767.249 742.857 759.864 735.131C751.33 726.204 742.057 718.018 733.274 709.337L706.142 682.314C694.6 670.965 688.878 663.901 672.555 660.096C669.521 662.938 668.541 663.803 667.308 668.06C665.7 668.356 665.701 668.413 664.259 669.232Z"/><path fill="#AF8F26" d="M693.051 655.969C698.726 657.582 705.094 661.897 709.119 666.183C723.24 681.222 741.136 695.198 754.829 710.431C754.431 710.321 754.03 710.218 753.627 710.124C748.208 708.882 747.176 700.707 742.147 701.587C740.981 700.788 734.036 693.973 732.796 692.771C726.595 686.761 720.44 680.704 714.333 674.599C706.528 666.85 704.304 664.069 694.57 658.813C696.356 657.399 693.719 657.701 693.051 655.969Z"/><path fill="#AA8E24" d="M790.772 760.391C791.397 759.164 790.7 758.129 791.106 757.659C793.247 756.87 792.664 761.528 792.715 762.392C790.261 783.775 759.787 783.171 747.817 767.932C748.293 764.196 745.021 765.344 746.207 763.118C749.98 766.066 752.024 769.362 756.474 771.897C768.182 781.157 788.798 777.655 790.772 760.391Z"/><path fill="#AF8F26" d="M762.084 717.503C771.443 725.525 798.59 748.752 792.715 762.392C792.664 761.528 793.247 756.87 791.106 757.659C790.7 758.129 791.397 759.164 790.772 760.391C789.705 752.312 790.364 752.159 785.6 744.441C782.56 739.516 766.197 725.925 764.434 722.944C763.827 720.945 762.132 719.08 762.115 718.213L762.084 717.503Z"/><path fill="#AA8E24" d="M664.259 669.232C667.613 657.189 674.982 653.841 687.498 654.7C688.925 654.798 691.719 655.385 693.051 655.969C693.719 657.701 696.356 657.399 694.57 658.813C686.942 656.611 679.612 655.301 672.555 660.096C669.521 662.938 668.541 663.803 667.308 668.06C665.7 668.356 665.701 668.413 664.259 669.232Z"/><path fill="#AD9027" d="M742.147 701.587C747.176 700.707 748.208 708.882 753.627 710.124C754.03 710.218 754.431 710.321 754.829 710.431C755.695 711.031 761.5 716.654 762.084 717.503L762.115 718.213C762.132 719.08 763.827 720.945 764.434 722.944C758.744 718.336 747.541 706.929 742.147 701.587Z"/><path fill="#AF8F26" d="M664.259 669.232C665.701 668.413 665.7 668.356 667.308 668.06C667.04 669.544 666.766 670.844 666.44 672.315C666.642 676.87 667.431 682.322 670.002 686.151C675.657 694.569 684.787 702.096 691.987 709.36C706.177 723.673 720.754 737.495 734.985 751.73C736.832 753.577 745.375 761.788 746.207 763.118C745.021 765.344 748.293 764.196 747.817 767.932C742.952 763.531 737.047 757.279 732.276 752.569L704.962 725.825C697.395 718.346 670.577 693.455 667.223 685.956L666.961 685.469C663.941 679.939 663.546 675.326 664.259 669.232Z"/><path fill="#AD9027" d="M664.259 669.232C665.701 668.413 665.7 668.356 667.308 668.06C667.04 669.544 666.766 670.844 666.44 672.315C662.618 679.708 668.781 682.94 667.223 685.956L666.961 685.469C663.941 679.939 663.546 675.326 664.259 669.232Z"/><path fill="#FADA16" d="M743.62 486.211C752.989 482.102 768.678 482.696 779.357 482.461L826.427 481.592L855.915 480.668C860.583 480.52 871.326 479.983 875.52 480.864C901.593 486.609 906.793 515.819 878.821 523.565C874.924 525.301 857.149 525.207 852.429 525.306L804.249 526.058L772.264 526.646C764.822 526.801 757.65 527.223 750.21 526.571C741.073 525.77 731.234 519.542 729.071 510.186C725.87 498.869 734.951 491.207 743.62 486.211Z"/><path fill="#DEB726" d="M875.52 480.864C901.593 486.609 906.793 515.819 878.821 523.565C874.924 525.301 857.149 525.207 852.429 525.306L804.249 526.058L772.264 526.646C764.822 526.801 757.65 527.223 750.21 526.571C741.073 525.77 731.234 519.542 729.071 510.186C725.87 498.869 734.951 491.207 743.62 486.211L744.532 487.191L745.467 487.047C746.487 486.9 746.637 486.851 747.619 487.226C740.439 490.301 734.475 494.016 731.356 501.744C730.993 502.67 730.64 503.601 730.297 504.535C730.364 505.437 730.483 506.466 730.442 507.353C736.292 509.397 741.005 514.496 748.588 515.008C755.513 515.476 761.639 515.307 768.543 515.124L798.743 514.342C813.379 514.022 828.072 514.282 842.681 513.759C858.146 513.206 875.399 515.201 884.554 500.111C884.79 493.398 884.241 492.435 880.118 487.046C878.348 485.183 877.633 484.867 875.372 483.583L877.338 482.557C876.689 482.002 876.133 481.456 875.52 480.864Z"/><path fill="#AA8E24" d="M729.071 510.186C725.87 498.869 734.951 491.207 743.62 486.211L744.532 487.191L745.467 487.047C746.487 486.9 746.637 486.851 747.619 487.226C740.439 490.301 734.475 494.016 731.356 501.744C730.993 502.67 730.64 503.601 730.297 504.535C730.364 505.437 730.483 506.466 730.442 507.353C731.114 516.064 741.022 522.588 748.942 523.795C756.474 524.942 765.863 524.468 773.587 524.435C791.712 524.307 809.835 523.93 827.949 523.304C842.829 522.911 857.709 523.52 872.532 522.348C883.052 521.516 889.169 517.299 894.686 508.483C895.089 516.946 882.935 519.773 878.821 523.565C874.924 525.301 857.149 525.207 852.429 525.306L804.249 526.058L772.264 526.646C764.822 526.801 757.65 527.223 750.21 526.571C741.073 525.77 731.234 519.542 729.071 510.186Z"/><path fill="#AD9027" d="M875.52 480.864C901.593 486.609 906.793 515.819 878.821 523.565C882.935 519.773 895.089 516.946 894.686 508.483C897.06 497.841 891.616 491.311 883.006 485.594C881.133 484.35 879.218 483.886 877.338 482.557C876.689 482.002 876.133 481.456 875.52 480.864Z"/><path fill="#FDEE8F" d="M743.62 486.211C752.989 482.102 768.678 482.696 779.357 482.461L826.427 481.592L855.915 480.668C860.583 480.52 871.326 479.983 875.52 480.864C876.133 481.456 876.689 482.002 877.338 482.557L875.372 483.583C877.633 484.867 878.348 485.183 880.118 487.046C873.814 494.321 868.538 497.273 858.651 496.917C849.618 496.591 840.776 495.418 831.804 494.529C807.899 492.161 783.958 489.501 760.129 486.818C759.35 486.73 759.383 486.259 759.118 485.636C754.962 485.428 751.616 486.194 747.619 487.226C746.637 486.851 746.487 486.9 745.467 487.047L744.532 487.191L743.62 486.211Z"/><path fill="#AD9027" d="M743.62 486.211C752.989 482.102 768.678 482.696 779.357 482.461L826.427 481.592L855.915 480.668C860.583 480.52 871.326 479.983 875.52 480.864C876.133 481.456 876.689 482.002 877.338 482.557L875.372 483.583C867.362 482.049 842.665 483.507 833.183 483.786L759.118 485.636C754.962 485.428 751.616 486.194 747.619 487.226C746.637 486.851 746.487 486.9 745.467 487.047L744.532 487.191L743.62 486.211Z"/><path fill="#FADA16" d="M696.122 358.904C694.012 361.07 685.193 363.727 682.221 363.867C670.322 364.427 660.913 357.625 660.78 345.21C660.67 334.969 665.214 328.28 672.237 321.521C687.983 306.365 703.494 291.271 719.213 276.118C730.265 265.545 741.191 253.916 753.023 244.221C757.335 241.468 763.754 238.912 768.899 239.052C781.05 239.384 791.517 247.808 790.868 260.606C790.15 274.76 779.313 283.23 769.673 292.015C764.354 296.878 758.992 301.694 753.589 306.464L717.472 340.313C713.2 344.281 700.04 356.921 696.122 358.904Z"/><path fill="#DEB726" d="M771.847 241.951C779.267 240.634 787.498 249.668 788.398 256.664C790.812 275.422 771.056 286.27 759.729 297.844C758.123 299.485 754.657 302.04 753.416 303.621C753.302 305.196 753.147 305.044 753.589 306.464L717.472 340.313C713.2 344.281 700.04 356.921 696.122 358.904C694.989 358.272 695.51 358.663 694.827 357.182C678.458 366.546 659.619 360.223 664.145 338.524C664.996 340.29 666.07 341.843 667.132 343.491C675.229 347.488 685.773 347.989 693.424 342.638C705.354 334.294 716.065 323.413 727.03 313.751C737.588 304.575 748.063 295.303 758.453 285.936C767.77 277.522 781.127 268.635 778.648 254.679C777.734 249.533 776.325 245.963 772.178 242.674L771.847 241.951Z"/><path fill="#AD9027" d="M753.416 303.621C753.302 305.196 753.147 305.044 753.589 306.464L717.472 340.313C713.2 344.281 700.04 356.921 696.122 358.904C694.989 358.272 695.51 358.663 694.827 357.182C697.251 355.44 699.45 353.598 701.677 351.614C719.261 335.952 735.586 319.029 753.416 303.621Z"/><path fill="#FDEE8F" d="M696.122 358.904C694.012 361.07 685.193 363.727 682.221 363.867C670.322 364.427 660.913 357.625 660.78 345.21C660.67 334.969 665.214 328.28 672.237 321.521C687.983 306.365 703.494 291.271 719.213 276.118C730.265 265.545 741.191 253.916 753.023 244.221C757.335 241.468 763.754 238.912 768.899 239.052C781.05 239.384 791.517 247.808 790.868 260.606C790.15 274.76 779.313 283.23 769.673 292.015C764.354 296.878 758.992 301.694 753.589 306.464C753.147 305.044 753.302 305.196 753.416 303.621C754.657 302.04 758.123 299.485 759.729 297.844C771.056 286.27 790.812 275.422 788.398 256.664C787.498 249.668 779.267 240.634 771.847 241.951L772.178 242.674C769.582 254.513 760.262 256.434 751.892 263.65L700.343 308.867C690.992 317.099 676.475 331.128 665.236 335.496L664.145 338.524C659.619 360.223 678.458 366.546 694.827 357.182C695.51 358.663 694.989 358.272 696.122 358.904Z"/><path fill="#AA8E24" d="M696.122 358.904C694.012 361.07 685.193 363.727 682.221 363.867C670.322 364.427 660.913 357.625 660.78 345.21C660.67 334.969 665.214 328.28 672.237 321.521C687.983 306.365 703.494 291.271 719.213 276.118C730.265 265.545 741.191 253.916 753.023 244.221C757.335 241.468 763.754 238.912 768.899 239.052C781.05 239.384 791.517 247.808 790.868 260.606C790.15 274.76 779.313 283.23 769.673 292.015C764.354 296.878 758.992 301.694 753.589 306.464C753.147 305.044 753.302 305.196 753.416 303.621C754.657 302.04 758.123 299.485 759.729 297.844C771.056 286.27 790.812 275.422 788.398 256.664C787.498 249.668 779.267 240.634 771.847 241.951C759.878 239.051 749.9 249.938 742.233 257.401C736.328 263.148 730.366 268.842 724.439 274.566C712.845 285.696 701.334 296.913 689.909 308.217C683.58 314.393 668.059 327.978 665.236 335.496L664.145 338.524C659.619 360.223 678.458 366.546 694.827 357.182C695.51 358.663 694.989 358.272 696.122 358.904Z"/><path fill="#FADA16" d="M585.911 716.322C606.947 722.475 608.169 740.25 612.75 758.683C613.959 763.551 614.984 768.504 616.116 773.393L625.468 812.799C628.171 824.258 631.242 835.781 633.666 847.296C634.564 851.562 633.521 857.419 631.634 861.378L631.26 862.003C620.107 880.938 597.434 875.033 589.051 857.657C584.804 848.854 582.505 833.785 580.256 823.705L570.266 779.837C567.98 769.666 559.378 741.773 562.856 732.69C565.246 730.341 566.78 723.75 569.277 724.539C570.833 723.166 571.059 722.575 573.059 721.087C577.188 717.88 582.561 718.142 587.416 719.161C587.202 717.927 586.573 717.398 585.911 716.322Z"/><path fill="#DEB726" d="M585.911 716.322C606.947 722.475 608.169 740.25 612.75 758.683C613.959 763.551 614.984 768.504 616.116 773.393L625.468 812.799C628.171 824.258 631.242 835.781 633.666 847.296C634.564 851.562 633.521 857.419 631.634 861.378C631.57 858.904 631.632 857.734 630.993 855.286C625.973 871.681 611.334 876.489 598.023 865.347C621.721 863.089 615.02 843.318 611.427 827.345C608.92 816.15 606.317 804.976 603.618 793.826C599.767 777.702 596.175 761.466 592.352 745.34C589.544 733.494 583.427 726.971 573.059 721.087C577.188 717.88 582.561 718.142 587.416 719.161C587.202 717.927 586.573 717.398 585.911 716.322Z"/><path fill="#AF8F26" d="M585.911 716.322C606.947 722.475 608.169 740.25 612.75 758.683C613.959 763.551 614.984 768.504 616.116 773.393L625.468 812.799C628.171 824.258 631.242 835.781 633.666 847.296C634.564 851.562 633.521 857.419 631.634 861.378C631.57 858.904 631.632 857.734 630.993 855.286C631.598 844.742 628.218 835.522 625.805 825.389L617.516 790.161L610.088 759.218C605.776 740.875 605.82 728.628 587.416 719.161C587.202 717.927 586.573 717.398 585.911 716.322Z"/><path fill="#AA8E24" d="M562.856 732.69C565.246 730.341 566.78 723.75 569.277 724.539C566.794 729.012 563.827 735.568 564.511 740.598C566.149 752.656 569.774 766.624 572.451 778.489L582.798 823.021C585.007 832.661 587.001 842.364 589.519 851.929C591.147 858.114 593.626 860.901 598.023 865.347C611.334 876.489 625.973 871.681 630.993 855.286C631.632 857.734 631.57 858.904 631.634 861.378L631.26 862.003C620.107 880.938 597.434 875.033 589.051 857.657C584.804 848.854 582.505 833.785 580.256 823.705L570.266 779.837C567.98 769.666 559.378 741.773 562.856 732.69Z"/><path fill="#FADA16" d="M201.406 630.37C187.31 634.655 173.799 636.608 162.165 625.093C153.986 616.734 155.946 605.348 164.307 598.008C172.335 590.961 183.025 588.919 193.025 586.147C202.039 583.669 211.037 581.137 220.021 578.551L258.762 567.527C270.763 564.126 283.272 559.557 295.787 560.099L296.184 560.38C297.782 561.494 298.172 561.676 299.692 563.046C300.589 563.535 301.993 563.794 303.074 564.133L303.577 564.118C302.674 562.692 302.484 562.498 301.346 561.24C307.562 562.892 311.249 564.998 315.481 569.777C322.786 581.424 315.734 594.175 304.775 600.124C296.489 604.622 286.223 606.913 277.101 609.45L241.752 619.146C235.338 620.929 219.691 625.896 213.901 626.832C210.908 627.928 204.698 629.473 201.406 630.37Z"/><path fill="#FDEE8F" d="M201.406 630.37C187.31 634.655 173.799 636.608 162.165 625.093C153.986 616.734 155.946 605.348 164.307 598.008C172.335 590.961 183.025 588.919 193.025 586.147C202.039 583.669 211.037 581.137 220.021 578.551L258.762 567.527C270.763 564.126 283.272 559.557 295.787 560.099L296.184 560.38C297.782 561.494 298.172 561.676 299.692 563.046C297.694 562.597 297.003 562.593 294.928 562.511C289.576 565.571 275.55 570.182 269.28 572.352L217.179 589.893C196.253 597.031 178.239 602.656 171.782 626.512C171.585 627.232 171.397 627.956 171.219 628.681C178.15 631.342 186.386 632.738 193.455 629.651C196.117 629.967 197.145 629.598 199.723 628.988C200.358 629.583 200.662 629.953 201.406 630.37Z"/><path fill="#AA8E24" d="M201.406 630.37C187.31 634.655 173.799 636.608 162.165 625.093C153.986 616.734 155.946 605.348 164.307 598.008C172.335 590.961 183.025 588.919 193.025 586.147C202.039 583.669 211.037 581.137 220.021 578.551L258.762 567.527C270.763 564.126 283.272 559.557 295.787 560.099L296.184 560.38C297.782 561.494 298.172 561.676 299.692 563.046C297.694 562.597 297.003 562.593 294.928 562.511C280.858 561.931 251.61 572.233 236.989 576.242C223.742 579.855 210.531 583.6 197.359 587.476C187.719 590.23 173.426 592.688 165.987 599.67C154.296 610.643 158.863 621.088 171.219 628.681C178.15 631.342 186.386 632.738 193.455 629.651C196.117 629.967 197.145 629.598 199.723 628.988C200.358 629.583 200.662 629.953 201.406 630.37Z"/><path fill="#DEB726" d="M301.346 561.24C307.562 562.892 311.249 564.998 315.481 569.777C322.786 581.424 315.734 594.175 304.775 600.124C296.489 604.622 286.223 606.913 277.101 609.45L241.752 619.146C235.338 620.929 219.691 625.896 213.901 626.832C210.908 627.928 204.698 629.473 201.406 630.37C200.662 629.953 200.358 629.583 199.723 628.988C197.145 629.598 196.117 629.967 193.455 629.651C213.935 620.06 236.505 613.14 257.802 605.524C282.017 596.865 303.429 595.345 303.074 564.133L303.577 564.118C302.674 562.692 302.484 562.498 301.346 561.24Z"/><path fill="#AA8E24" d="M310.933 568.134C312.711 568.605 313.795 569.089 315.481 569.777C322.786 581.424 315.734 594.175 304.775 600.124C296.489 604.622 286.223 606.913 277.101 609.45L241.752 619.146C235.338 620.929 219.691 625.896 213.901 626.832C211.809 625.484 211.756 627.398 210.564 626.461L209.966 626.026C228.294 620.693 246.658 615.482 265.057 610.393C278.627 606.606 296.846 603.188 308.026 594.794C318.465 586.956 319.067 577.694 310.933 568.134Z"/><path fill="#AA8E24" d="M301.346 561.24C307.562 562.892 311.249 564.998 315.481 569.777C313.795 569.089 312.711 568.605 310.933 568.134C309.918 567.823 305.42 564.899 303.577 564.118C302.674 562.692 302.484 562.498 301.346 561.24Z"/><path fill="#AD9027" d="M209.966 626.026L210.564 626.461C211.756 627.398 211.809 625.484 213.901 626.832C210.908 627.928 204.698 629.473 201.406 630.37C200.662 629.953 200.358 629.583 199.723 628.988C203.133 628.09 206.612 627.114 209.966 626.026Z"/><path fill="#AF8F26" d="M632.456 691.581C653.072 689.994 660.486 706.074 669.063 721.232L684.906 749.148C691.591 760.533 698.212 771.957 704.767 783.418C711.982 795.794 723.127 809.951 716.433 824.857C713.608 831.146 709.547 833.889 703.384 836.198C693.399 838.189 681.009 833.97 674.916 825.562C666.926 814.536 661.23 800.762 654.534 788.827C646.04 773.689 637.965 758.21 630.083 742.75C626.896 735.236 620.988 727.162 618.914 719.285C615.343 705.718 618.628 695.463 632.456 691.581Z"/><path fill="#FADA16" d="M624.855 697.775C634.05 690.349 648.548 695.167 655.256 703.731C659.789 709.519 663.385 716.342 667.062 722.714L686.851 757.628C693.303 768.792 699.835 779.736 706.303 791.069C713.313 803.35 722.662 818.043 709.025 830.294C701.67 836.902 688.511 834.993 681.959 828.365C677.903 825.739 674.832 821.894 672.518 817.663C666.056 805.852 660.115 793.756 653.742 781.886C646.888 769.181 640.108 756.435 633.405 743.65C626.191 729.97 612.319 711.997 624.855 697.775Z"/><path fill="#DEB726" d="M624.855 697.775C634.05 690.349 648.548 695.167 655.256 703.731C659.789 709.519 663.385 716.342 667.062 722.714L686.851 757.628C693.303 768.792 699.835 779.736 706.303 791.069C713.313 803.35 722.662 818.043 709.025 830.294C701.67 836.902 688.511 834.993 681.959 828.365C698.562 829.662 702.734 815.114 696.038 802.461C688.801 788.786 680.714 775.565 673.081 762.103L653.553 727.191C645.004 712.121 641.966 704.148 624.855 697.775Z"/><path fill="#AA8E24" d="M404.988 697.626C410.644 697.291 415.112 697.259 419.977 700.695C428.199 706.502 430.045 719.101 426.269 727.957C422.708 736.312 417.682 744.183 413.101 751.995L388.632 793.255C381.667 804.891 375.03 817.348 367.639 828.594C363.349 835.122 355.226 838.619 347.622 839.848C336.584 840.88 327.847 834.839 325.117 824.109C324.37 821.176 324.022 814.138 325.297 811.219C330.917 798.349 339.389 786.517 346.721 774.498L380.561 718.298C387.454 707.034 391.697 700.836 404.988 697.626Z"/><path fill="#DEB726" d="M404.749 700.291C423.378 697.816 429.814 712.492 423.409 728.462C420.795 734.979 415.302 743.003 411.612 749.279C404.673 761.275 397.648 773.221 390.538 785.116L375.55 810.624C368.445 822.668 362.157 836.588 345.978 837.405C337.614 837.827 331.641 834.182 328.513 826.393C328.498 825.774 327.921 822.853 327.807 821.927C326.966 815.104 327.434 811.68 330.804 805.68C334.833 798.507 339.222 791.576 343.487 784.547L366.822 746.001L380.427 723.311C387.892 710.829 390 704.717 404.749 700.291Z"/><path fill="#FDE75A" d="M404.749 700.291L406.522 700.596C402.292 705.851 395.91 713.388 392.577 719.066C384.074 733.552 377.76 750.184 371.283 765.665C367.076 775.718 362.664 785.716 358.309 795.684C354.515 804.368 350.467 816.601 345.776 824.461C340.228 827.096 334.516 827.221 328.513 826.393C328.498 825.774 327.921 822.853 327.807 821.927C326.966 815.104 327.434 811.68 330.804 805.68C334.833 798.507 339.222 791.576 343.487 784.547L366.822 746.001L380.427 723.311C387.892 710.829 390 704.717 404.749 700.291Z"/><path fill="#FADA16" d="M406.522 700.596C411.635 703.857 411.223 720.482 408.983 725.903C405.533 734.254 399.956 742.042 395.508 749.931C382.904 771.622 369.879 793.21 356.606 814.497C354.072 818.561 350.183 822.443 345.776 824.461C350.467 816.601 354.515 804.368 358.309 795.684C362.664 785.716 367.076 775.718 371.283 765.665C377.76 750.184 384.074 733.552 392.577 719.066C395.91 713.388 402.292 705.851 406.522 700.596Z"/><path fill="#FADA16" d="M269.235 787.307C268.084 786.856 266.946 786.371 265.825 785.851C250.646 778.794 250.783 762.184 261.334 750.722C269.014 742.38 277.153 734.905 285.214 726.965C304.235 708.227 322.808 688.83 342.593 670.906C347.922 666.078 356.847 663.184 363.995 663.659C381.483 664.821 384.689 682.236 376.858 695.434C372.291 703.666 350.517 725.053 343.119 732.947C329.674 747.294 315.164 762.369 301.376 776.535C298.954 779.023 295.258 782.014 292.288 783.893C286.16 787.23 283.301 788.087 276.4 787.999C273.333 788.112 272.529 787.813 269.707 787.376L269.235 787.307Z"/><path fill="#FDEE8F" d="M269.235 787.307C268.084 786.856 266.946 786.371 265.825 785.851C250.646 778.794 250.783 762.184 261.334 750.722C269.014 742.38 277.153 734.905 285.214 726.965C304.235 708.227 322.808 688.83 342.593 670.906C347.922 666.078 356.847 663.184 363.995 663.659C381.483 664.821 384.689 682.236 376.858 695.434L373.475 698.103L372.754 697.877C381.629 684.478 382.043 670.031 363.905 665.811L360.845 666.251C359.897 668.235 354.112 674.18 352.333 676.234L322.81 710.02C309.986 724.836 298.205 740.714 285.483 755.632C281.013 760.874 277.388 766.526 275.239 773.036C274.378 775.44 272.351 784.2 271.63 785.171L271.591 785.447C270.63 786.31 270.285 786.561 269.235 787.307Z"/><path fill="#AA8E24" d="M269.235 787.307C268.084 786.856 266.946 786.371 265.825 785.851C250.646 778.794 250.783 762.184 261.334 750.722C269.014 742.38 277.153 734.905 285.214 726.965C304.235 708.227 322.808 688.83 342.593 670.906C347.922 666.078 356.847 663.184 363.995 663.659C381.483 664.821 384.689 682.236 376.858 695.434L373.475 698.103L372.754 697.877C381.629 684.478 382.043 670.031 363.905 665.811L360.845 666.251C347.281 667.538 340.28 676.137 331.089 685.207L309.325 706.754L279.207 736.44C273.93 741.675 261.141 753.227 258.188 759.702C253.053 770.96 259.095 782.161 271.63 785.171L271.591 785.447C270.63 786.31 270.285 786.561 269.235 787.307Z"/><path fill="#DEB726" d="M363.905 665.811C382.043 670.031 381.629 684.478 372.754 697.877L373.475 698.103L376.858 695.434C372.291 703.666 350.517 725.053 343.119 732.947C329.674 747.294 315.164 762.369 301.376 776.535C298.954 779.023 295.258 782.014 292.288 783.893C292.237 781.098 292.662 782.22 289.967 782.146L292.718 780.356C305.147 758.738 322.753 737.21 338.183 717.493C351.404 700.598 369.158 690.905 363.905 665.811Z"/><path fill="#AD9027" d="M372.754 697.877L373.475 698.103L376.858 695.434C372.291 703.666 350.517 725.053 343.119 732.947C329.674 747.294 315.164 762.369 301.376 776.535C298.954 779.023 295.258 782.014 292.288 783.893C292.237 781.098 292.662 782.22 289.967 782.146L292.718 780.356C298.69 777.62 308.569 765.789 313.319 760.74L336.118 736.71C347.198 725.073 362.897 709.81 372.754 697.877Z"/><path fill="#AF8F26" d="M289.967 782.146C292.662 782.22 292.237 781.098 292.288 783.893C286.16 787.23 283.301 788.087 276.4 787.999C279.615 787.12 279.6 787.89 281.559 785.444C285.121 784.362 286.614 783.896 289.967 782.146Z"/><path fill="#AD9027" d="M271.591 785.447C276.046 785.626 276.998 785.753 281.559 785.444C279.6 787.89 279.615 787.12 276.4 787.999C273.333 788.112 272.529 787.813 269.707 787.376L269.235 787.307C270.285 786.561 270.63 786.31 271.591 785.447Z"/><path fill="#AA8E24" d="M698.487 619.536C704.917 599.971 727.214 602.207 742.044 610.264C738.687 610.033 738.316 609.007 734.862 609.363C732.984 609.115 729.916 607.925 727.757 607.438C721.492 606.024 717.739 606.876 711.785 608.229C703.385 612.293 704.257 612.366 700.691 620.37C700.006 618.792 700.448 619.88 698.487 619.536Z"/><path fill="#AD9027" d="M562.856 732.69C566.073 720.921 573.913 715.338 585.911 716.322C586.573 717.398 587.202 717.927 587.416 719.161C582.561 718.142 577.188 717.88 573.059 721.087C571.059 722.575 570.833 723.166 569.277 724.539C566.78 723.75 565.246 730.341 562.856 732.69Z"/><path fill="#AA8E24" d="M247.986 704.74C251 703.922 254.171 701.505 257.104 701.888C256.214 702.825 239.327 712.5 237.672 713.29C237.854 712.687 237.907 712.279 238.431 711.905C238.577 711.8 239.241 711.406 239.253 711.143C239.266 710.861 238.63 710.288 238.576 710.228C239.532 709.455 246.881 705.147 247.986 704.74Z"/><path fill="#AD9027" d="M295.787 560.099C297.716 560.401 299.529 560.505 301.346 561.24C302.484 562.498 302.674 562.692 303.577 564.118L303.074 564.133C301.993 563.794 300.589 563.535 299.692 563.046C298.172 561.676 297.782 561.494 296.184 560.38L295.787 560.099Z"/></svg>