<?xml version="1.0" encoding="utf-8" ?><svg xmlns="http://www.w3.org/2000/svg" xmlns:xlink="http://www.w3.org/1999/xlink" width="1024" height="1024" viewBox="0 0 1024 1024"><path fill="white" d="M0 0L1024 0L1024 1024L0 1024L0 0Z"/><path fill="#E7E7E5" d="M421.122 151.485C422.561 147.873 427.354 140.905 429.718 137.725C443.622 119.024 459.236 105.098 479.907 94.2317C512.699 77.2663 550.886 74.0152 586.074 85.193C617.956 95.326 648.893 119.633 664.362 149.514C666.827 154.151 671.753 164.51 673.54 169.525C697.297 161.626 723.192 163.263 745.766 174.089C767.66 184.965 784.428 203.978 792.482 227.06C797.744 242.49 798.882 265.212 792.864 280.403C790.943 285.504 788.829 290.53 786.526 295.471C791.415 296.983 797.748 297.935 802.335 299.854C824.325 309.054 838.496 320.94 849.532 341.752C855.358 352.876 858.349 365.266 858.239 377.823C858.229 379.325 858.287 383.298 857.659 384.552C854.828 411.07 837.066 434.344 814.017 446.958C795.267 457.138 773.561 460.483 752.617 456.42C747.606 455.463 741.369 453.503 736.395 452.051C732.322 459.422 727.384 466.281 721.685 472.482C694.834 501.447 651.699 511.499 613.863 503.963C587.004 498.613 566.671 487.331 546.961 468.851C545.536 470.396 544.044 471.879 542.492 473.296C519.033 494.554 489.292 504.169 457.831 502.661C431.985 501.279 407.412 491.002 388.277 473.573C383.857 469.588 379.435 464.574 375.393 460.135C356.265 476.767 324.891 485.869 299.752 486.56C262.071 487.72 225.461 474.821 197.984 448.705C159.745 412.36 153.195 355.769 191.223 316.518C192.025 315.65 192.911 314.846 193.771 314.032C206.806 297.973 228.876 285.498 249.246 282.428C252.661 281.913 258.297 281.414 261.364 280.356L261.842 279.105C260.031 269.455 259.466 259.612 260.159 249.818C262.109 223.239 275.375 200.728 295.304 183.491C297.784 177.414 324.015 164.206 330.447 162.013C351.509 154.916 374.301 154.811 395.428 161.714C400.566 163.436 408.431 167.159 413.48 169.618C415.855 161.949 417.523 158.541 421.122 151.485Z"/><path fill="#BAB9B9" d="M191.223 316.518L191.918 318.163C168.557 364.047 195.887 405.254 237.629 427.426C279.991 449.928 350.19 448.146 381.011 406.797C387.573 425.146 393.746 435.228 408.32 448.69C451.41 488.49 534.533 483.186 561.15 426.305C564.098 420.09 566.008 413.434 566.803 406.602C578.905 435.688 592.483 454.67 622.843 467.294C646.692 477.013 673.423 476.873 697.169 466.903C709.246 461.868 719.905 454.128 728.594 444.319C746.356 424.268 735.703 394.684 727.479 372.789C726.766 370.89 725.74 369.888 725.756 367.715C727.187 368.737 728.562 372.515 729.679 374.217C758.929 418.802 822.194 429.063 856.946 384.364L857.659 384.552C854.828 411.07 837.066 434.344 814.017 446.958C795.267 457.138 773.561 460.483 752.617 456.42C747.606 455.463 741.369 453.503 736.395 452.051C732.322 459.422 727.384 466.281 721.685 472.482C694.834 501.447 651.699 511.499 613.863 503.963C587.004 498.613 566.671 487.331 546.961 468.851C545.536 470.396 544.044 471.879 542.492 473.296C519.033 494.554 489.292 504.169 457.831 502.661C431.985 501.279 407.412 491.002 388.277 473.573C383.857 469.588 379.435 464.574 375.393 460.135C356.265 476.767 324.891 485.869 299.752 486.56C262.071 487.72 225.461 474.821 197.984 448.705C159.745 412.36 153.195 355.769 191.223 316.518Z"/><path fill="#BAB9B9" d="M261.842 279.105C260.031 269.455 259.466 259.612 260.159 249.818C262.109 223.239 275.375 200.728 295.304 183.491L295.044 183.998C292.602 188.665 288.995 193.06 286.994 197.783C272.728 231.452 290.336 266.09 317.963 286.586C325.302 292.032 333.04 298.545 336.887 307.055C313.981 289.582 291.824 279.813 263.258 280.374C262.314 280.393 262.109 279.789 261.842 279.105Z"/><path fill="#BAB9B9" d="M421.122 151.485C457.352 172.873 477.16 210.007 466.375 251.878C463.788 221.832 447.882 193.685 422.921 176.248C421.008 174.911 414.359 171.26 413.48 169.618C415.855 161.949 417.523 158.541 421.122 151.485Z"/><path fill="#BAB9B9" d="M619.33 214.058C619.67 211.765 620.055 209.478 620.486 207.2C626.031 179.18 641.996 164.53 664.362 149.514C666.827 154.151 671.753 164.51 673.54 169.525L672.67 170.02C668.376 172.418 661.52 174.807 656.611 177.27C644.588 183.305 625.899 201.153 621.123 213.688L619.33 214.058Z"/><path fill="#BAB9B9" d="M719.934 312.433C729.9 290.125 750.598 282.781 773.889 279.561C777.194 279.104 790.284 278.268 792.864 280.403C790.943 285.504 788.829 290.53 786.526 295.471C783.35 295.749 775.526 294.417 771.466 294.595C749.308 295.566 737.503 300.285 719.934 312.433Z"/><path fill="#C6C5C5" d="M193.771 314.032C193.625 315.878 193.152 316.437 192.037 317.994L191.918 318.163L191.223 316.518C192.025 315.65 192.911 314.846 193.771 314.032Z"/><path fill="#C6C5C5" d="M619.33 214.058L621.123 213.688C620.706 214.423 619.792 216.089 619.237 216.707L619.171 216.678C618.834 216.167 619.117 215.286 619.216 214.752L619.33 214.058Z"/><path fill="#1287CB" d="M418.208 833.893L418.682 834.42C419.194 839.137 419.222 847.175 419.091 852.005C418.588 870.521 424.474 901.494 412.803 916.999C408.448 922.873 401.885 926.716 394.631 927.638C386.601 928.577 380.867 926.074 374.836 921.183C374.395 920.763 373.966 920.33 373.551 919.885C363.027 908.511 364.3 892.494 372.948 880.689C379.507 871.735 389.239 863.095 397.113 855.104C404.004 848.111 411.014 840.448 418.208 833.893Z"/><path fill="#1287CB" d="M733.835 785.866L734.453 786.734C735.323 804.099 735.155 821.941 735.594 839.357C735.845 849.28 734.496 861.214 728.175 869.333C723.867 874.831 717.555 878.398 710.622 879.252C702.687 880.175 696.492 877.367 690.48 872.642L690.01 872.175C684.521 866.628 681.84 860.621 682.026 852.755C682.433 835.467 694.605 824.966 705.713 813.694C714.881 804.212 724.257 794.934 733.835 785.866Z"/><path fill="#1287CB" d="M351.414 605.971C352.066 607.262 352.524 617.958 352.303 620.305C349.991 644.787 363.354 689.194 331.524 698.651C322.84 701.231 314.771 698.219 308.008 693.208C302.085 687.601 299.416 681.753 299.246 673.529C298.893 656.42 312.645 645.13 323.461 633.848C332.557 624.358 342.234 615.381 351.414 605.971Z"/><path fill="#1287CB" d="M357.382 743.948C358.263 745.168 358.491 761.928 358.352 765.408C357.392 789.479 368.065 832.106 333.365 837.119C326.235 838.15 318.826 834.905 313.513 830.467C308.264 825.327 305.088 818.687 305.091 811.249C305.1 792.988 322.656 778.606 334.765 766.547L357.382 743.948Z"/><path fill="#1287CB" d="M547.415 767.395C547.463 767.605 547.51 767.815 547.557 768.026C547.747 784.273 548.274 801.834 548.585 817.926C548.8 829.107 548.246 841.344 541.677 850.369C537.533 856.005 531.283 859.723 524.352 860.674C515.961 861.897 510.259 859.246 503.843 854.431C503.248 853.829 502.663 853.216 502.091 852.593C481.006 829.746 508.847 805.006 524.504 789.933C532.246 782.48 539.466 774.704 547.415 767.395Z"/><path fill="#1287CB" d="M729.423 500.006C729.532 500.357 729.706 500.86 729.714 501.205C730.105 516.771 730.375 532.382 730.541 547.957C730.614 554.845 730.603 560.763 729.54 567.578C726.048 589.971 703.94 601.186 685.023 586.164C666.707 566.332 681.453 546.434 697.04 531.648C707.962 521.287 717.99 510.008 729.423 500.006Z"/><path fill="#1287CB" d="M452.905 697.37C454.297 698.687 453.983 713.689 453.996 716.349C454.075 732.038 456.04 747.928 454.343 763.546C451.901 786.01 428.668 799.249 409.822 783.951C404.234 778.28 400.89 771.638 401.127 763.465C401.618 746.489 416.694 733.706 427.79 722.509L452.905 697.37Z"/><path fill="#1287CB" d="M536.889 491.387C536.944 491.651 536.999 491.916 537.054 492.18C537.634 508.121 537.436 524.387 537.934 540.3C538.157 547.428 538.078 552.775 537.045 559.514C533.654 581.633 510.612 592.919 492.456 577.488C476.754 560.933 486.332 539.815 500.996 526.743C512.975 516.066 524.441 501.303 536.889 491.387Z"/><path fill="#1287CB" d="M445.417 561.367C445.66 561.599 446.077 562.141 446.082 562.463C446.583 578.931 446.523 595.256 447.142 611.729C447.956 633.395 442.163 657.48 414.73 654.275C409.463 653.659 405.796 651.195 401.832 647.835C396.441 642.067 393.494 636.129 393.553 627.985C393.676 611.198 407.658 599.554 418.461 588.531C427.398 579.428 436.383 570.373 445.417 561.367Z"/><path fill="#1287CB" d="M345.874 490.84L346.528 491.737C347.338 508.634 347.248 525.85 347.922 542.787C348.327 552.99 347.441 565.245 341.101 573.745C336.828 579.532 330.347 583.289 323.201 584.119C315.422 585.055 309.948 582.784 303.982 578.268C287.432 562.571 294.669 543.257 308.293 528.95C320.6 516.024 333.498 503.664 345.874 490.84Z"/><path fill="#1287CB" d="M659.295 699.341L659.952 700.238C660.461 709.294 660.214 718.859 660.364 728.072C660.313 741.082 661.945 754.176 660.129 767.114C656.995 789.449 635.441 800.606 616.454 786.267C616.127 785.966 615.805 785.66 615.487 785.35C610.082 780.061 607.431 773.551 607.429 765.979C607.423 748.132 624.839 733.792 636.714 721.961L659.295 699.341Z"/><path fill="#1287CB" d="M607.415 851.413C608.892 852.931 608.466 870.426 608.473 873.332C608.509 888.176 610.286 903.328 608.42 918.085C605.574 940.591 583.533 952.309 564.374 938.12C541.274 914 567.604 891.132 584.172 874.619L607.415 851.413Z"/><path fill="#1287CB" d="M545.758 626.876L546.356 627.732C547.14 641.217 546.368 655.559 547.071 669.097C548.172 690.327 547.145 719.164 518.717 719.672C511.945 719.793 506.862 717.051 501.844 712.867C501.509 712.527 501.173 712.186 500.838 711.846C495.808 706.272 493.291 698.875 493.876 691.39C495.183 673.254 512.079 660.74 523.894 648.623C530.464 641.886 538.746 632.986 545.758 626.876Z"/><path fill="#1287CB" d="M633.352 548.388C633.397 548.653 633.443 548.917 633.488 549.182C634.126 566.18 634.138 583.241 634.536 600.251C634.795 611.326 633.706 623.543 626.195 632.355C621.666 637.684 615.144 640.915 608.16 641.288C600.587 641.751 594.925 639.109 589.357 634.366C588.677 633.709 588.03 633.019 587.417 632.298C567.211 608.05 596.444 584.807 612.437 569.139C619.277 562.438 626.04 554.488 633.352 548.388Z"/><path fill="#1287CB" d="M748.433 631.949C749.451 633.276 749.65 655.11 749.498 658.336C748.676 675.783 754.364 700.787 742.437 715.186C732.749 726.882 716.777 727.239 705.358 717.42C681.002 692.92 713.267 666.747 729.802 650.371C735.223 645.002 742.457 636.428 748.433 631.949Z"/></svg>