<?xml version="1.0" encoding="utf-8" ?><svg xmlns="http://www.w3.org/2000/svg" xmlns:xlink="http://www.w3.org/1999/xlink" width="1024" height="1024" viewBox="0 0 1024 1024"><path fill="white" d="M0 0L1024 0L1024 1024L0 1024L0 0Z"/><path fill="#FA8920" d="M363.438 156.364C379.49 149.443 390.918 143.87 407.979 138.294C482.076 113.57 562.519 115.765 635.158 144.494C642.459 147.402 654.933 152.835 661.657 156.745C704.804 139.94 743.41 136.939 786.826 156.293C836.558 178.463 874.65 224.234 885.573 277.622C880.472 270.822 871.845 263.13 865.295 257.512C829.978 227.218 782.982 204.124 736.742 197.619C733.673 197.202 730.6 196.819 727.523 196.47C739.178 205.738 749.115 211.842 760.976 222.282C835.504 287.882 882.059 368.337 893.422 467.502C896.491 495.598 896.536 523.943 893.554 552.049C885.577 628.133 857.937 691.785 810.291 751.572C746.539 830.815 653.932 881.504 552.824 892.499C453.019 903.126 353.048 873.981 274.59 811.385C195.055 747.967 143.682 655.788 131.585 554.786C120.312 453.102 150.192 351.134 214.565 271.617C236.051 244.798 260.48 221.203 289.007 202.134C291.445 200.504 294.298 198.655 296.571 196.892L295.948 196.912C287.142 197.25 272.553 200.279 264.087 202.447C216.312 214.907 173.139 240.87 139.735 277.228C141.115 269.548 143.153 262 145.827 254.668C161.679 211.798 193.807 176.915 235.231 157.598C266.889 142.645 302.746 139.108 336.716 147.587C345.946 149.875 354.537 153.066 363.438 156.364Z"/><path fill="#070960" d="M661.657 156.745C704.804 139.94 743.41 136.939 786.826 156.293C836.558 178.463 874.65 224.234 885.573 277.622C880.472 270.822 871.845 263.13 865.295 257.512C829.978 227.218 782.982 204.124 736.742 197.619C733.673 197.202 730.6 196.819 727.523 196.47C720.573 195.329 706.536 195.588 699.412 195.849C661.19 197.246 621.029 207.399 585.452 221.239C577.298 224.411 568.404 229.024 560.393 232.791C586.241 199.598 623.314 173.417 661.657 156.745Z"/><path fill="#070960" d="M139.735 277.228C141.115 269.548 143.153 262 145.827 254.668C161.679 211.798 193.807 176.915 235.231 157.598C266.889 142.645 302.746 139.108 336.716 147.587C345.946 149.875 354.537 153.066 363.438 156.364C406.209 176.76 433.324 196.222 464.92 232.641C421.154 210.884 376.043 197.923 326.954 195.803C320.711 195.534 302.739 195.687 296.571 196.892L295.948 196.912C287.142 197.25 272.553 200.279 264.087 202.447C216.312 214.907 173.139 240.87 139.735 277.228Z"/><path fill="#FECF3D" d="M361.661 598.692C379.963 597.413 389.731 604.938 405.217 613.412C412.901 617.617 421.693 621.987 429.903 625.058C455.887 634.98 483.423 640.221 511.235 640.536C543.86 640.648 576.138 633.84 605.94 620.562C617.464 615.442 627.644 608.948 638.763 603.115C656.144 593.996 678.606 598.547 692.621 611.738C702.212 620.632 707.77 633.047 708.015 646.125C708.232 656.886 704.295 669.535 700.876 679.78C689.412 714.128 669.146 748.869 644.168 775.176C530.539 894.5 376.579 825.289 326.139 686.353C317.79 663.357 310.204 637.978 327.344 616.785C336.527 605.429 347.299 600.303 361.661 598.692Z"/><path fill="#F04B47" d="M361.126 626.568C366.785 626.186 371.201 626.422 376.159 629.484C426.629 660.713 488.549 675.358 547.509 666.636C580.621 661.738 614.822 649.358 643.731 632.688C647.569 630.474 652.16 627.524 656.592 626.733C670.776 624.202 682.021 637.587 679.511 651.256C674.953 673.017 664.966 695.685 653.85 714.847C648.914 723.364 643.418 731.545 637.4 739.335C616.789 764.88 596.668 783.57 566.072 796.85C476.616 835.678 391.036 768.962 357.833 688.389C352.761 676.08 342.031 652.408 346.693 638.971C348.667 633.282 355.582 628.823 361.126 626.568Z"/><path fill="white" d="M219.105 399.279C219.003 396.196 218.958 393.11 218.972 390.025C219.134 347.364 236.442 303.044 266.495 272.269C285.842 253.301 313.797 238.469 341.408 239.328C416.365 241.661 457.735 318.78 457.016 385.838C457.125 391.792 456.807 407.861 455.47 413.545C455.335 419.96 453.843 427.011 452.613 433.354C441.607 490.118 396.076 542.929 334.838 542.454C271.31 541.96 223.432 476.077 220.922 416.612C219.586 413.319 219.236 403.214 219.105 399.279Z"/><path fill="#070960" d="M219.105 399.279C219.003 396.196 218.958 393.11 218.972 390.025C219.134 347.364 236.442 303.044 266.495 272.269C285.842 253.301 313.797 238.469 341.408 239.328C416.365 241.661 457.735 318.78 457.016 385.838C456.143 389.697 454.94 395.785 454.352 399.67C451.397 376.388 446.225 358.033 435.311 337.315C407.549 284.613 347.476 255.648 292.496 286.952C256.529 307.431 238.046 340.693 226.859 379.394C225.176 385.216 224.478 391.582 222.82 397.209L222.609 397.909C221.599 399.258 221.717 399.358 221.236 400.958L220.679 401.036L220.976 401.477L220.852 401.545C220.989 401.652 219.404 399.581 219.105 399.279Z"/><path fill="#060548" d="M454.352 399.67C454.94 395.785 456.143 389.697 457.016 385.838C457.125 391.792 456.807 407.861 455.47 413.545C454.773 409.701 454.767 403.777 454.352 399.67Z"/><path fill="#060548" d="M219.105 399.279C219.404 399.581 220.989 401.652 220.852 401.545L220.976 401.477L220.679 401.036L221.236 400.958C221.717 399.358 221.599 399.258 222.609 397.909C222.208 404.412 221.012 409.819 220.922 416.612C219.586 413.319 219.236 403.214 219.105 399.279Z"/><path fill="#070960" d="M356.092 323.251C392.622 320.289 424.69 347.378 427.874 383.89C431.059 420.401 404.165 452.633 367.674 456.04C330.867 459.476 298.295 432.299 295.083 395.472C291.871 358.644 319.246 326.239 356.092 323.251Z"/><path fill="#F04B47" d="M349.977 338.49C366.817 337.53 381.265 350.363 382.3 367.198C383.334 384.034 370.565 398.539 353.734 399.648C336.797 400.764 322.181 387.898 321.14 370.956C320.099 354.015 333.03 339.455 349.977 338.49Z"/><path fill="white" d="M572.053 421.165C568.182 411.578 568.62 378.78 569.671 367.392C573.521 327.754 590.183 291.142 620.447 265.057C669.546 222.739 732.389 234.611 771.193 283.765C796.654 316.016 809.189 361.833 805.033 402.649C804.958 406.542 804.355 410.729 803.555 414.541C803.286 423.098 801.756 430.632 800.041 438.843C780.341 533.13 678.241 581.98 606.675 502.919C585.53 479.56 574.407 452.71 572.053 421.165Z"/><path fill="#070960" d="M572.053 421.165C568.182 411.578 568.62 378.78 569.671 367.392C573.521 327.754 590.183 291.142 620.447 265.057C669.546 222.739 732.389 234.611 771.193 283.765C796.654 316.016 809.189 361.833 805.033 402.649L802.847 403.97C798.222 361.732 782.818 323.005 748.79 295.858C702.4 258.849 641.208 270.87 605.661 316.372C581.956 346.716 571.527 383.018 572.053 421.165Z"/><path fill="#280F13" d="M805.033 402.649C804.958 406.542 804.355 410.729 803.555 414.541C803.52 410.592 803.324 407.943 802.847 403.97L805.033 402.649Z"/><path fill="#070960" d="M705.41 322.866C741.965 320.559 773.497 348.262 775.916 384.809C778.334 421.357 750.729 452.973 714.189 455.504C677.49 458.046 645.707 430.294 643.277 393.588C640.848 356.882 668.697 325.183 705.41 322.866Z"/><path fill="#F04B47" d="M697.49 338.99C714.204 336.358 729.872 347.816 732.431 364.541C734.989 381.267 723.462 396.884 706.726 399.369C690.093 401.839 674.593 390.399 672.051 373.778C669.508 357.156 680.88 341.606 697.49 338.99Z"/><path fill="#F04B47" d="M542.594 435.231L543.111 435.467C542.935 436.049 534.217 443.455 532.833 444.838C509.135 468.496 494.794 529.607 525.146 553.443C536.305 562.206 556.267 557.495 569.646 555.352C566.801 558.658 564.178 563.168 561.167 566.744C551.187 578.595 541.142 582.469 526.758 585.928C524.569 586.334 522.412 586.688 520.224 586.983C491.865 590.974 466.505 569.828 463.861 541.575C460.041 500.76 501.093 439.747 542.594 435.231Z"/></svg>