<?xml version="1.0" encoding="utf-8" ?><svg xmlns="http://www.w3.org/2000/svg" xmlns:xlink="http://www.w3.org/1999/xlink" width="1024" height="1024" viewBox="0 0 1024 1024"><path fill="white" d="M0 0L1024 0L1024 1024L0 1024L0 0Z"/><path fill="#E9DBC5" d="M246.991 358.407C246.944 351.386 246.783 343.903 247.055 336.878C249.471 274.288 278.764 214.061 323.771 171.274C376.398 121 445.46 97.2534 517.663 99.9396C635.317 104.317 741.612 196.524 757.764 313.924C759.765 328.471 759.698 342.674 759.193 357.37C764.085 359.896 768.824 362.709 773.383 365.795C783.901 373.025 811.504 397.912 813.746 410.261C814.099 411.594 814.133 412.348 815.173 413.231C815.891 414.083 816.013 413.967 816.252 414.904C816.076 418 815.844 419.897 815.36 422.952C813.085 424.068 810.764 424.778 808.366 425.596C802.966 413.242 798.013 403.515 787.04 394.23C779.807 387.637 767.708 381.583 763.298 394.651C761.293 400.595 771.871 408.614 774.953 413.927C775.905 414.699 776.627 416.084 776.907 417.247C781.128 434.778 784.335 452.449 790.827 469.362C794.209 478.171 797.906 484.188 803.699 491.584C798.245 523.54 790.036 546.859 775.352 576.021L774.513 576.096C772.524 576.669 762.286 585.732 758.862 587.882C738.45 600.552 715.779 609.151 692.099 613.207C686.529 614.187 677.26 615.396 671.65 614.93C669.393 615.847 668.381 616.931 666.646 618.651C663.374 621.656 653.71 630.237 650.135 632.189C627.42 650.934 598.496 665.433 570.558 674.353C568.297 674.873 568.451 674.449 567.242 675.86C567.587 683.123 568.595 697.82 565.258 704.503C566.298 692.586 567.696 688.583 566.213 675.747C530.867 685.419 499.888 688.396 463.544 681.377C455.223 679.77 446.812 677.225 438.553 675.149L438.243 674.096C437.449 673.999 436.657 673.893 435.865 673.777L435.634 674.519L435.199 674.449C434.774 674.076 407.463 663.466 403.721 661.7L402.915 661.19C401.128 660.64 397.881 658.979 396.361 657.881C394.437 657.242 394.319 657.309 392.693 656.212C369.908 643.938 358.413 634.446 339.574 617.476C336.474 617.515 326.279 617.225 323.675 616.12C318.213 615.974 309.354 613.804 304.043 612.385C275.089 604.915 248.921 589.212 228.709 567.176C204.56 540.525 188.18 500.041 190.232 463.798C192.159 430.671 205.717 399.286 228.518 375.177C235.208 368.12 240.005 364.648 246.991 358.407Z"/><path fill="#F55127" d="M246.991 358.407C246.944 351.386 246.783 343.903 247.055 336.878C249.471 274.288 278.764 214.061 323.771 171.274C376.398 121 445.46 97.2534 517.663 99.9396C635.317 104.317 741.612 196.524 757.764 313.924C759.765 328.471 759.698 342.674 759.193 357.37C764.085 359.896 768.824 362.709 773.383 365.795C783.901 373.025 811.504 397.912 813.746 410.261C814.099 411.594 814.133 412.348 815.173 413.231C815.891 414.083 816.013 413.967 816.252 414.904C816.076 418 815.844 419.897 815.36 422.952C813.085 424.068 810.764 424.778 808.366 425.596C802.966 413.242 798.013 403.515 787.04 394.23C779.807 387.637 767.708 381.583 763.298 394.651C761.293 400.595 771.871 408.614 774.953 413.927C775.905 414.699 776.627 416.084 776.907 417.247C781.128 434.778 784.335 452.449 790.827 469.362C794.209 478.171 797.906 484.188 803.699 491.584C798.245 523.54 790.036 546.859 775.352 576.021L774.513 576.096C772.524 576.669 762.286 585.732 758.862 587.882C738.45 600.552 715.779 609.151 692.099 613.207C686.529 614.187 677.26 615.396 671.65 614.93C671.59 614.312 671.538 613.737 671.452 613.121C672.612 611.43 684.505 599.217 687.255 595.942C703.187 576.971 712.505 561.228 723.035 539.018C735.29 538.408 743.888 537.621 754.86 531.215C767.35 523.882 776.41 511.883 780.041 497.862C783.529 484.44 781.565 470.183 774.577 458.204C767.184 445.783 756.05 437.208 742.052 433.617C742.088 427.11 742.071 420.603 742 414.097C666.113 396.308 628.911 332.498 645.083 257.454C564.19 348.748 434.002 394.176 313.858 379.845C299.957 378.187 282.503 375.491 269.333 370.823L268.043 371.309C267.621 373.347 268.03 384.474 267.996 387.443C267.822 402.671 268.249 418.222 267.918 433.434C266.405 433.919 264.07 434.755 262.564 434.975C248.347 442.79 236.831 452.81 232.133 468.886C228.072 482.786 229.643 497.725 236.508 510.475C243.514 523.192 255.269 532.62 269.204 536.698C275.251 538.404 281.478 539.024 287.745 539.063C289.542 544.887 293.102 551.747 295.955 557.217C307.605 579.552 321.289 597.209 338.544 615.381C334.309 618.338 325.484 614.952 323.675 616.12C318.213 615.974 309.354 613.804 304.043 612.385C275.089 604.915 248.921 589.212 228.709 567.176C204.56 540.525 188.18 500.041 190.232 463.798C192.159 430.671 205.717 399.286 228.518 375.177C235.208 368.12 240.005 364.648 246.991 358.407Z"/><path fill="#973F31" d="M774.953 413.927C772.118 411.814 770.114 408.999 767.713 406.5C759.382 397.831 760.334 388.735 772.865 385.844C789.105 389.541 804.164 409.585 808.614 424.869C810.524 424.114 813.02 423.212 814.796 422.287L815.173 413.231C815.891 414.083 816.013 413.967 816.252 414.904C816.076 418 815.844 419.897 815.36 422.952C813.085 424.068 810.764 424.778 808.366 425.596C802.966 413.242 798.013 403.515 787.04 394.23C779.807 387.637 767.708 381.583 763.298 394.651C761.293 400.595 771.871 408.614 774.953 413.927Z"/><path fill="#CA402C" d="M262.564 434.975C263.545 433.738 266.694 433.349 266.736 432.432C267.506 415.949 266.723 399.216 266.909 382.709C266.942 379.781 266.513 372.351 267.217 370.154L268.226 369.996L269.333 370.823L268.043 371.309C267.621 373.347 268.03 384.474 267.996 387.443C267.822 402.671 268.249 418.222 267.918 433.434C266.405 433.919 264.07 434.755 262.564 434.975Z"/><path fill="#8D6D5D" d="M649.13 631.965L650.135 632.189C627.42 650.934 598.496 665.433 570.558 674.353C568.297 674.873 568.451 674.449 567.242 675.86C567.587 683.123 568.595 697.82 565.258 704.503C566.298 692.586 567.696 688.583 566.213 675.747C530.867 685.419 499.888 688.396 463.544 681.377C455.223 679.77 446.812 677.225 438.553 675.149L438.243 674.096C443.735 675.36 449.99 677.342 455.677 678.732C464.758 680.872 473.97 682.408 483.254 683.33C540.087 688.788 605.212 668.278 649.13 631.965Z"/><path fill="#716B66" d="M338.544 615.381C354.307 629.491 373.417 646.308 392.88 655.308L392.693 656.212C369.908 643.938 358.413 634.446 339.574 617.476C336.474 617.515 326.279 617.225 323.675 616.12C325.484 614.952 334.309 618.338 338.544 615.381Z"/><path fill="#716B66" d="M403.721 661.7L404.645 661.229C408.608 663.138 412.644 664.89 416.745 666.481C420.218 667.819 433.903 672.483 435.865 673.777L435.634 674.519L435.199 674.449C434.774 674.076 407.463 663.466 403.721 661.7Z"/><path fill="#9F988D" d="M666.32 617.76L666.646 618.651C663.374 621.656 653.71 630.237 650.135 632.189L650.083 631.36C655.076 627.341 661.27 621.194 666.32 617.76Z"/><path fill="#716B66" d="M671.452 613.121C671.538 613.737 671.59 614.312 671.65 614.93C669.393 615.847 668.381 616.931 666.646 618.651L666.32 617.76C668.058 616.244 669.769 614.697 671.452 613.121Z"/><path fill="#C2B9A9" d="M392.88 655.308L393.633 655.558C395.158 655.973 395.531 656.639 396.361 657.881C394.437 657.242 394.319 657.309 392.693 656.212L392.88 655.308Z"/><path fill="#C2B9A9" d="M402.915 661.19C403.691 660.726 404.024 660.451 404.645 661.229L403.721 661.7L402.915 661.19Z"/><path fill="#F55127" d="M330.991 501.409L331.452 500.697C336.437 493.072 348.36 487.572 357.004 486.065C364.807 484.705 372.876 486.016 380 489.32C385.65 491.712 395.614 498.538 397.791 504.468C406.417 514.898 406.609 537.09 398.845 548.063C397.354 552.216 389.244 560.896 385.073 562.284C374.607 571.416 349.647 570.435 339.475 561.252C338.88 561.08 338.937 560.969 338.41 560.452C330.571 556.149 323.661 542.856 322.447 534.21C321.149 524.973 322.609 513.163 328.175 505.458C328.469 504.309 329.982 502.219 330.991 501.409Z"/><path fill="#973F31" d="M338.41 560.452C330.571 556.149 323.661 542.856 322.447 534.21C321.149 524.973 322.609 513.163 328.175 505.458L327.895 506.414C327.032 509.282 325.246 512.239 324.521 514.94C320.552 529.718 323.178 544.133 333.87 555.399C335.037 556.629 337.517 559.054 338.41 560.452Z"/><path fill="#973F31" d="M330.991 501.409L331.452 500.697C336.437 493.072 348.36 487.572 357.004 486.065C364.807 484.705 372.876 486.016 380 489.32C379.06 489.965 378.952 489.559 377.757 489.115C376.607 488.689 375.438 488.315 374.254 487.996C372.821 487.595 371.45 487.232 370.004 486.894C368.414 486.522 367.114 486.459 365.499 486.254C363.21 485.758 361.028 486.312 358.75 486.517C357.411 486.638 355.536 487.106 354.231 487.414C347.719 488.951 341.825 492.049 336.707 496.341C334.997 497.774 333.594 499.734 331.746 500.915L330.991 501.409Z"/><path fill="#973F31" d="M339.475 561.252C342.386 562.135 344.668 563.835 347.744 564.999C355.983 568.117 363.216 568.484 371.787 567.06C377.677 566.082 380.433 563.472 385.073 562.284C374.607 571.416 349.647 570.435 339.475 561.252Z"/><path fill="#973F31" d="M397.791 504.468C406.417 514.898 406.609 537.09 398.845 548.063C399.638 544.479 401.447 541.604 402.358 537.743C404.529 528.543 403.942 518.416 399.99 509.75C399.064 507.719 398.369 506.636 397.791 504.468Z"/><path fill="#F55127" d="M628.514 489.344C637.058 484.617 651.125 484.267 659.999 488.336C665.485 490.507 672.043 494.585 675.555 499.396C676.954 500.252 677.672 501.523 678.49 502.896C678.803 503.273 679.136 503.57 679.272 503.981C688.276 514.623 688.681 537.916 680.318 548.996C679.255 551.543 673.055 559.033 670.549 559.706C666.393 564.303 656.82 567.943 650.653 568.509C637.593 569.709 627.918 566.613 617.874 558.588C616.449 557.188 615.191 555.962 613.798 554.52C599.154 538.683 600.863 507.903 618.914 495.49C619.528 494.493 619.207 494.943 620.411 494.276C622.154 492.578 622.148 492.623 624.498 491.717C624.863 490.878 625.484 490.787 626.297 490.502L627.082 490.18L628.514 489.344Z"/><path fill="#973F31" d="M613.798 554.52C599.154 538.683 600.863 507.903 618.914 495.49C616.781 498.537 613.8 501.304 611.913 503.935C601.712 518.159 602.525 539.626 613.688 553.08C613.852 553.359 614.016 553.638 614.18 553.917L613.798 554.52Z"/><path fill="#973F31" d="M618.587 558.283C632.579 568.51 648.111 571.624 664.24 563.298C666.14 562.318 668.615 560.33 670.549 559.706C666.393 564.303 656.82 567.943 650.653 568.509C637.593 569.709 627.918 566.613 617.874 558.588L618.587 558.283Z"/><path fill="#973F31" d="M679.272 503.981C688.276 514.623 688.681 537.916 680.318 548.996C681.335 544.858 683.556 541.851 684.475 537.001C686.201 527.89 685.99 519.33 682.282 510.672C681.265 508.299 679.99 506.503 679.272 503.981Z"/><path fill="#CA402C" d="M628.514 489.344C637.058 484.617 651.125 484.267 659.999 488.336C658.639 489.143 653.215 487.055 651.13 486.778C645.285 485.999 641.235 486.225 635.488 487.644C633.647 488.098 629.748 490.083 628.514 489.344Z"/><path fill="#553A32" d="M614.18 553.917C615.63 555.392 617.099 556.847 618.587 558.283L617.874 558.588C616.449 557.188 615.191 555.962 613.798 554.52L614.18 553.917Z"/><path fill="#CA402C" d="M675.555 499.396C676.954 500.252 677.672 501.523 678.49 502.896C676.992 501.939 675.153 501.241 675.555 499.396Z"/><path fill="#CA402C" d="M620.411 494.276C622.154 492.578 622.148 492.623 624.498 491.717L624.006 492.34C623.037 493.598 622.433 493.67 620.938 494.114L620.411 494.276Z"/><path fill="#CA402C" d="M624.498 491.717C624.863 490.878 625.484 490.787 626.297 490.502L627.082 490.18C625.941 491.629 626.152 491.836 624.498 491.717Z"/><path fill="#ECAD8E" d="M559.093 578.868C563.172 573.026 567.625 564.077 568.715 557.074C570.395 546.28 580.299 551.298 579.676 556.656C575.16 595.531 532.873 619.011 496.223 614.289C486.624 613.057 467.84 608.282 460.904 602.539C445.822 596.202 427.418 573.344 427.012 556.534C426.885 551.307 433.064 548.672 436.279 552.84C437.275 554.132 438.111 559.032 438.893 560.676C440.884 567.471 443.413 572.208 447.698 577.839C452.071 582.663 454.703 584.64 459.071 588.816C460.111 589.474 460.178 589.491 461.011 590.341C487.16 606.748 516.518 609.239 543.57 593.021C548.07 590.323 552.767 584.73 556.579 582.482C557.553 580.695 557.763 580.484 559.093 578.868Z"/><path fill="#7B5344" d="M559.093 578.868C563.172 573.026 567.625 564.077 568.715 557.074C570.395 546.28 580.299 551.298 579.676 556.656C575.16 595.531 532.873 619.011 496.223 614.289C486.624 613.057 467.84 608.282 460.904 602.539L461.958 602.426C491.267 619.012 530.376 618.175 556.604 595.941C568.266 585.945 577.535 572.236 578.824 556.601C579.051 553.839 576.204 550.806 573.512 551.481C573.177 551.349 571.37 552.375 571.27 552.655C567.526 563.117 566.406 570.344 559.607 579.586L559.093 578.868Z"/><path fill="#7B5344" d="M460.904 602.539C445.822 596.202 427.418 573.344 427.012 556.534C426.885 551.307 433.064 548.672 436.279 552.84C437.275 554.132 438.111 559.032 438.893 560.676C440.884 567.471 443.413 572.208 447.698 577.839L447.32 578.6C442.495 572.957 439.857 566.991 437.854 559.912C436.941 556.685 435.973 552.723 432.488 551.471C429.787 551.524 427.424 553.749 427.666 556.5C429.246 574.52 445.242 593.544 460.9 601.72L460.904 602.539Z"/><path fill="#7B5344" d="M461.011 590.341C487.16 606.748 516.518 609.239 543.57 593.021C548.07 590.323 552.767 584.73 556.579 582.482C555.808 585.62 545.131 592.93 542.341 594.542C515.023 610.326 487.066 606.977 460.98 591.256L461.011 590.341Z"/><path fill="#553A32" d="M447.698 577.839C452.071 582.663 454.703 584.64 459.071 588.816L458.137 589.193C456.09 586.905 450.029 581.346 447.32 578.6L447.698 577.839Z"/><path fill="#553A32" d="M559.093 578.868L559.607 579.586C558.586 580.673 557.736 581.534 556.579 582.482C557.553 580.695 557.763 580.484 559.093 578.868Z"/><path fill="#553A32" d="M459.071 588.816C460.111 589.474 460.178 589.491 461.011 590.341L459.902 590.502L459.376 590.152L459.071 588.816Z"/><path fill="#0F407B" d="M618.5 412.119C622.904 410.825 627.585 410.808 631.998 412.069C643.609 415.387 651.009 426.742 649.356 438.703C647.703 450.665 637.501 459.588 625.426 459.633C613.351 459.678 603.082 450.831 601.341 438.882C599.599 426.933 606.914 415.523 618.5 412.119Z"/><path fill="#0F407B" d="M364.054 427.027C368.149 415.887 379.711 409.352 391.367 411.591C403.023 413.83 411.341 424.182 411.018 436.047C410.694 447.911 401.824 457.795 390.063 459.395C378.303 460.995 367.114 453.841 363.632 442.494C362.079 437.431 362.227 431.998 364.054 427.027Z"/><path fill="#0E355E" d="M364.054 427.027C364.138 427.516 363.75 441.958 363.632 442.494C362.079 437.431 362.227 431.998 364.054 427.027Z"/><path fill="#ECAD8E" d="M498.456 406.811C501.393 405.727 505.712 406.786 505.92 409.891C507.142 428.732 506.387 448.256 506.45 467.17C506.494 480.08 487.553 477.901 484.842 493.242C481.426 512.565 503.356 512.693 516.45 507.622C517.613 506.102 519.115 504.121 520.974 503.421C522.045 503.027 523.226 503.055 524.277 503.499C526.902 504.596 527.531 506.681 528.511 509.134C518.007 527.154 485.587 525.066 475.467 507.805C468.108 495.252 476.86 477.501 489.506 471.143C489.938 470.003 493.792 467.887 495.019 467.136C495.092 455.01 495.083 442.883 494.991 430.757C494.946 424.683 494.696 416.534 495.162 410.347C495.281 408.775 497.137 407.602 498.456 406.811Z"/><path fill="#7B5344" d="M498.456 406.811C501.393 405.727 505.712 406.786 505.92 409.891C507.142 428.732 506.387 448.256 506.45 467.17C506.494 480.08 487.553 477.901 484.842 493.242C481.426 512.565 503.356 512.693 516.45 507.622C516.231 507.907 516.012 508.231 515.701 508.401C503.869 514.84 478.92 511.33 483.932 492.75C486.344 483.808 492.436 480.953 499.686 476.47C502.153 474.945 504.879 472.293 505.385 469.324C505.957 458.279 505.431 447.059 505.449 435.998C505.325 427.69 505.741 419.296 505.325 411.001C505.139 407.294 501.07 406.979 498.456 406.811Z"/><path fill="#7B5344" d="M528.511 509.134C518.007 527.154 485.587 525.066 475.467 507.805C468.108 495.252 476.86 477.501 489.506 471.143L488.782 471.866C483.47 477.081 479.217 478.6 476.129 486.288C467.278 508.328 484.898 521.345 505.17 520.638C513.529 520.346 525.796 517.695 526.771 507.19C526.825 506.216 526.411 505.545 525.886 504.724C521.404 501.892 519.506 506.204 516.45 507.622C517.613 506.102 519.115 504.121 520.974 503.421C522.045 503.027 523.226 503.055 524.277 503.499C526.902 504.596 527.531 506.681 528.511 509.134Z"/><path fill="#7B5344" d="M495.019 467.136C495.092 455.01 495.083 442.883 494.991 430.757C494.946 424.683 494.696 416.534 495.162 410.347C495.281 408.775 497.137 407.602 498.456 406.811C497.849 407.546 497.125 408.423 496.283 409.441C495.65 423.771 496.012 454.554 496.014 467.608C494.987 468.178 490.148 471.068 489.506 471.143C489.938 470.003 493.792 467.887 495.019 467.136Z"/><path fill="#46BF63" d="M671.65 614.93C677.26 615.396 686.529 614.187 692.099 613.207C715.779 609.151 738.45 600.552 758.862 587.882C762.286 585.732 772.524 576.669 774.513 576.096C774.051 577.042 771.911 581.232 771.671 581.959C770.395 584.071 769.557 585.568 768.627 587.867C767.319 589.555 758.448 604.02 758.226 605.465C754.263 610.583 749.016 619.913 744.649 625.882C743.532 627.455 742.911 628.323 742.121 630.031C740.872 630.587 740.174 632.307 739.606 633.497C738.51 634.057 733.876 640.599 733.089 641.919C732.267 642.559 730.95 643.958 730.709 644.983C729.998 646.676 729.184 647.624 729.605 648.956C735.375 654.372 774.725 683.096 776.047 685.592C777.037 686.764 778.538 688.403 780.099 688.654C782.609 690.03 799.19 702.423 800.589 704.509C802.501 705.686 803.919 706.353 804.414 708.582L728.476 799.898C725.482 803.481 710.723 822.233 707.986 824.079C706.88 825.837 704.724 828.915 702.846 829.806C714.235 859.264 720.49 890.456 721.339 922.027L643.114 922.011C630.363 922.011 614.797 922.422 602.237 921.904C594.707 922.173 585.623 921.941 578.008 921.947L528.764 921.963L376.917 921.994L260.887 921.929C263.836 866.946 282.172 813.897 313.806 768.829C322.878 755.891 332.064 744.384 343.457 733.347C345.13 731.594 346.568 730.196 348.41 728.588C372.412 704.18 404.042 687.572 435.199 674.449L435.634 674.519L435.865 673.777C436.657 673.893 437.449 673.999 438.243 674.096L438.553 675.149C446.812 677.225 455.223 679.77 463.544 681.377C499.888 688.396 530.867 685.419 566.213 675.747C567.696 688.583 566.298 692.586 565.258 704.503C568.595 697.82 567.587 683.123 567.242 675.86C568.451 674.449 568.297 674.873 570.558 674.353C598.496 665.433 627.42 650.934 650.135 632.189C653.71 630.237 663.374 621.656 666.646 618.651C668.381 616.931 669.393 615.847 671.65 614.93Z"/><path fill="#058738" d="M437.171 802.632C447.094 801.7 456.827 801.964 466.792 801.977L508.577 802.041C518.509 802.053 554.079 801.341 561.289 803.155C567.072 803.738 573.725 805.477 578.972 807.98L579.641 808.26C587.626 811.477 595.888 818.127 601.833 824.293C602.961 825.462 605.971 828.412 606.205 829.91C609.072 832.823 611.455 837.429 613.149 841.159C620.9 858.221 620.012 875.032 620.03 893.272L620.039 921.691C616.202 921.632 605.6 921.3 602.237 921.904C594.707 922.173 585.623 921.941 578.008 921.947L528.764 921.963L376.917 921.994L376.186 921.466C375.722 918.728 375.826 904.397 375.922 901.07C376.301 888.022 375.133 870.644 377.161 858.027C378.191 851.342 380.38 844.888 383.63 838.956C389.708 826.714 400.112 816.075 412.468 810.136C419.995 805.817 428.604 803.563 437.171 802.632Z"/><path fill="#097231" d="M437.171 802.632C447.094 801.7 456.827 801.964 466.792 801.977L508.577 802.041C518.509 802.053 554.079 801.341 561.289 803.155C559.483 803.781 545.534 803.163 542.283 803.158L472.728 802.729C466.368 802.676 441.12 803.867 437.171 802.632Z"/><path fill="#097231" d="M606.205 829.91C605.222 829.774 598.754 822.48 596.641 820.77C593.022 817.84 588.257 814.006 584.062 811.494C582.584 810.609 580.013 809.531 578.792 808.763C578.852 808.502 578.912 808.241 578.972 807.98L579.641 808.26C587.626 811.477 595.888 818.127 601.833 824.293C602.961 825.462 605.971 828.412 606.205 829.91Z"/><path fill="#097231" d="M412.468 810.136C412.192 811.153 412.187 811.256 411.146 811.824C408.079 813.509 405.143 815.421 402.363 817.546C399.299 819.925 393.462 825.606 391.165 828.701C389.421 831.03 387.78 833.435 386.248 835.908C385.237 837.533 385.474 838.477 383.63 838.956C389.708 826.714 400.112 816.075 412.468 810.136Z"/><path fill="white" d="M671.65 614.93C677.26 615.396 686.529 614.187 692.099 613.207C715.779 609.151 738.45 600.552 758.862 587.882C762.286 585.732 772.524 576.669 774.513 576.096C774.051 577.042 771.911 581.232 771.671 581.959C770.395 584.071 769.557 585.568 768.627 587.867C767.319 589.555 758.448 604.02 758.226 605.465C754.263 610.583 749.016 619.913 744.649 625.882C743.532 627.455 742.911 628.323 742.121 630.031C740.872 630.587 740.174 632.307 739.606 633.497C738.51 634.057 733.876 640.599 733.089 641.919C732.267 642.559 730.95 643.958 730.709 644.983C729.597 646.166 729.078 647.189 727.81 647.424C721.677 643.333 715.554 637.703 709.449 633.322C706.272 636.701 656.514 697.871 656.328 698.442C654.377 700.283 652.397 702.602 651.009 704.907C648.374 707.235 643.117 714.278 640.836 717.29C639.209 717.531 638.612 716.411 637.1 715.482C635.912 713.738 630.448 709.283 628.577 707.765C613.039 695.159 589.489 680.857 570.558 674.353C598.496 665.433 627.42 650.934 650.135 632.189C653.71 630.237 663.374 621.656 666.646 618.651C668.381 616.931 669.393 615.847 671.65 614.93Z"/><path fill="#ECAD8E" d="M438.553 675.149C446.812 677.225 455.223 679.77 463.544 681.377C499.888 688.396 530.867 685.419 566.213 675.747C567.696 688.583 566.298 692.586 565.258 704.503C563.263 710.373 561.611 714.81 558.521 719.986C531.835 764.693 464.974 760.823 443.374 713.572C443.063 712.892 442.696 712.124 442.323 711.489C442.061 708.352 439.582 702.393 439.059 698.248C438.044 690.214 438.53 683.159 438.553 675.149Z"/><path fill="#058738" d="M435.865 673.777C436.657 673.893 437.449 673.999 438.243 674.096L438.553 675.149C438.53 683.159 438.044 690.214 439.059 698.248C439.582 702.393 442.061 708.352 442.323 711.489C440.285 710.578 438.108 697.686 437.707 694.816C436.819 688.462 437.86 681.396 437.397 675.051C437.366 674.627 435.81 674.54 435.634 674.519L435.865 673.777Z"/><path fill="#41A956" d="M348.41 728.588L348.389 729.263C348.37 731.287 345.352 733.09 343.457 733.347C345.13 731.594 346.568 730.196 348.41 728.588Z"/><path fill="#41A956" d="M702.846 829.806C703.406 827.328 705.931 825.444 707.986 824.079C706.88 825.837 704.724 828.915 702.846 829.806Z"/><path fill="#41A956" d="M651.009 704.907C652.397 702.602 654.377 700.283 656.328 698.442C655.166 701.763 653.96 703.01 651.009 704.907Z"/><path fill="#41A956" d="M637.1 715.482C638.612 716.411 639.209 717.531 640.836 717.29C641.911 718.494 638.729 719.949 637.439 716.357L637.1 715.482Z"/><path fill="#41A956" d="M800.589 704.509C802.501 705.686 803.919 706.353 804.414 708.582C802.456 708.045 801.923 706.514 800.589 704.509Z"/><path fill="#ECAD8E" d="M871.961 331.98C878.015 327.198 888.735 334.481 885.945 344.386C880.202 364.767 873.249 384.753 867.279 405.04C869.786 406.241 872.377 407.399 874.748 408.836C876.505 405.145 881.977 393.19 884.182 390.407L884.667 389.473C885.509 387.075 894.264 369.746 895.643 367.895C895.892 366.489 897.725 362.626 898.656 361.379C902.917 351.611 915.84 354.311 917.817 364.092C917.906 364.53 918.164 365.278 918.296 365.742C917.254 368.442 912.277 379.335 910.508 380.99C910.036 382.777 906.784 389.287 905.511 390.505C904.564 393.912 893.664 413.521 891.4 417.493C894.012 419.654 895.67 421.101 898.495 423.167C902.885 418.744 910.709 409.37 915.055 405.705C915.498 405.092 915.909 404.558 916.372 403.963C920.371 400.103 921.549 397.294 927.25 396.795C935.026 396.115 939.826 406.674 935.725 411.807C933.101 415.093 924.524 424.28 921.281 426.794L921.162 426.984C918.714 431.045 913.163 434.609 910.976 438.734C907.228 445.804 905.515 454.185 902.15 461.503C901.738 462.753 901.608 463.623 900.839 464.622C894.369 485.179 887.711 497.953 868.119 508.179L863.425 509.745C861.619 517.166 860.506 524.698 858.677 531.943C855.042 546.345 849.788 562.277 844.158 576.002C843.732 577.286 843.625 578.123 842.813 579.122C838.162 592.67 813.258 643.321 804.251 653.061C803.588 654.667 804.129 654.15 802.918 655.052C801.78 657.34 800.506 659.193 799.053 661.279L794.73 667.433C791.649 671.819 788.429 676.106 785.075 680.287C783.573 682.134 779.417 686.479 780.099 688.654C778.538 688.403 777.037 686.764 776.047 685.592C774.725 683.096 735.375 654.372 729.605 648.956C729.184 647.624 729.998 646.676 730.709 644.983C730.95 643.958 732.267 642.559 733.089 641.919C733.876 640.599 738.51 634.057 739.606 633.497C740.174 632.307 740.872 630.587 742.121 630.031C742.911 628.323 743.532 627.455 744.649 625.882C749.016 619.913 754.263 610.583 758.226 605.465C758.448 604.02 767.319 589.555 768.627 587.867C769.557 585.568 770.395 584.071 771.671 581.959C771.911 581.232 774.051 577.042 774.513 576.096L775.352 576.021C790.036 546.859 798.245 523.54 803.699 491.584C797.906 484.188 794.209 478.171 790.827 469.362C784.335 452.449 781.128 434.778 776.907 417.247C776.627 416.084 775.905 414.699 774.953 413.927C771.871 408.614 761.293 400.595 763.298 394.651C767.708 381.583 779.807 387.637 787.04 394.23C798.013 403.515 802.966 413.242 808.366 425.596C810.764 424.778 813.085 424.068 815.36 422.952C815.844 419.897 816.076 418 816.252 414.904C816.013 413.967 815.891 414.083 815.173 413.231C814.133 412.348 814.099 411.594 813.746 410.261C814.65 411.576 814.427 411.485 815.644 412.453C816.421 408.85 816.987 399.81 817.383 395.685L820.696 361.112C821.258 354.942 821.708 348.629 822.471 342.487C822.879 339.198 824.722 337.088 827.353 335.183C832.602 333.211 836.077 333.314 840.296 337.452C844.35 343.089 841.29 358.398 840.529 365.627C839.506 375.399 838.651 385.188 837.963 394.99C841.091 396.12 844.398 397.179 847.562 398.241C852.394 382.456 858.07 366.51 862.57 350.551C864.071 345.228 866.557 333.971 871.961 331.98Z"/><path fill="#8D6D5D" d="M847.562 398.241C852.394 382.456 858.07 366.51 862.57 350.551C864.071 345.228 866.557 333.971 871.961 331.98C869.613 334.536 868.029 336.281 866.987 339.705C860.933 359.598 854.321 379.519 848.12 399.338C844.419 398.121 840.33 396.676 836.62 395.608C837.412 391.562 837.677 387.455 837.98 383.347C838.929 370.461 840.563 357.629 841.726 344.77C841.922 342.604 840.441 340.101 839.829 338.183L840.296 337.452C844.35 343.089 841.29 358.398 840.529 365.627C839.506 375.399 838.651 385.188 837.963 394.99C841.091 396.12 844.398 397.179 847.562 398.241Z"/><path fill="#8D6D5D" d="M871.961 331.98C878.015 327.198 888.735 334.481 885.945 344.386C880.202 364.767 873.249 384.753 867.279 405.04C869.786 406.241 872.377 407.399 874.748 408.836C876.505 405.145 881.977 393.19 884.182 390.407C883.561 393.053 876.819 406.551 875.17 410.097C872.532 408.482 869.067 406.739 866.284 405.25C869.417 394.593 886.162 346.033 885.549 339.27C885.351 337.091 884.026 334.872 882.264 333.588C879.13 331.304 875.583 331.494 871.961 331.98Z"/><path fill="#8D6D5D" d="M813.746 410.261C814.65 411.576 814.427 411.485 815.644 412.453C816.421 408.85 816.987 399.81 817.383 395.685L820.696 361.112C821.258 354.942 821.708 348.629 822.471 342.487C822.879 339.198 824.722 337.088 827.353 335.183L827.376 336.237C823.941 338.871 823.343 341.252 822.945 345.744C821.374 363.515 819.724 381.323 817.963 399.078C817.772 401.002 816.633 413.802 816.252 414.904C816.013 413.967 815.891 414.083 815.173 413.231C814.133 412.348 814.099 411.594 813.746 410.261Z"/><path fill="#8D6D5D" d="M867.922 507.341L868.119 508.179L863.425 509.745C861.619 517.166 860.506 524.698 858.677 531.943C855.042 546.345 849.788 562.277 844.158 576.002C843.367 574.595 846.655 567.497 847.488 565.085C853.346 548.116 860.284 527.266 862.121 509.344L867.922 507.341Z"/><path fill="#8D6D5D" d="M804.251 653.061C804.641 651.323 815.164 634.415 817.097 630.93C822.238 621.657 826.911 612.647 831.648 603.128C833.868 598.668 840.581 581.524 842.813 579.122C838.162 592.67 813.258 643.321 804.251 653.061Z"/><path fill="#7B5344" d="M891.369 419.171C890.591 417.682 890.185 416.997 891.66 415.305C895.797 410.561 901.741 394.078 905.511 390.505C904.564 393.912 893.664 413.521 891.4 417.493C894.012 419.654 895.67 421.101 898.495 423.167C902.885 418.744 910.709 409.37 915.055 405.705L915.607 406.339C912.903 408.32 901.441 421.273 898.569 424.428C896.444 422.896 894.534 421.217 892.449 419.654C891.931 419.362 891.93 419.355 891.369 419.171Z"/><path fill="#8D6D5D" d="M867.922 507.341C869.09 506.498 871.426 505.584 872.82 504.77C886.283 496.909 892.427 485.548 897.376 471.249C898.287 468.618 898.755 466.768 900.839 464.622C894.369 485.179 887.711 497.953 868.119 508.179L867.922 507.341Z"/><path fill="#8D6D5D" d="M916.372 403.963C920.371 400.103 921.549 397.294 927.25 396.795C935.026 396.115 939.826 406.674 935.725 411.807C933.101 415.093 924.524 424.28 921.281 426.794C925.792 418.107 940.593 412.634 934.891 402.025C933.427 399.299 932.384 398.897 929.509 398.043C923.848 396.36 920.222 401.101 916.704 404.726L916.372 403.963Z"/><path fill="#8D6D5D" d="M898.656 361.379C902.917 351.611 915.84 354.311 917.817 364.092C917.906 364.53 918.164 365.278 918.296 365.742C917.254 368.442 912.277 379.335 910.508 380.99C912.329 371.613 925.672 362.439 907.985 355.775C905.713 356.368 904.536 356.776 902.475 357.743C902.082 357.978 902.293 357.835 901.853 358.187C900.69 359.302 899.919 360.409 898.656 361.379Z"/><path fill="#7B5344" d="M776.047 685.592C776.343 685.729 778.619 686.979 778.703 686.886C784.746 680.185 790.161 672.256 795.559 664.99C797.845 661.913 800.299 657.168 802.918 655.052C801.78 657.34 800.506 659.193 799.053 661.279L794.73 667.433C791.649 671.819 788.429 676.106 785.075 680.287C783.573 682.134 779.417 686.479 780.099 688.654C778.538 688.403 777.037 686.764 776.047 685.592Z"/><path fill="#7B5344" d="M902.15 461.503C901.255 459.95 908.135 444.39 908.603 441.63C909.137 438.484 918.143 428.704 921.162 426.984C918.714 431.045 913.163 434.609 910.976 438.734C907.228 445.804 905.515 454.185 902.15 461.503Z"/><path fill="#BD876C" d="M884.667 389.473C885.509 387.075 894.264 369.746 895.643 367.895C894.9 371.44 887.297 387.48 884.667 389.473Z"/><path fill="#7B5344" d="M744.649 625.882C749.016 619.913 754.263 610.583 758.226 605.465C756.877 610.556 748.777 620.375 746.102 625.49L744.649 625.882Z"/><path fill="#7B5344" d="M827.353 335.183C832.602 333.211 836.077 333.314 840.296 337.452L839.829 338.183C837.514 335.808 836.658 335.481 833.272 334.607C832.495 334.646 832.111 334.688 831.351 334.611C830.013 335.125 828.629 335.533 827.376 336.237L827.353 335.183Z"/><path fill="#8D6D5D" d="M905.511 390.505C905.934 388.286 908.953 382.328 910.508 380.99C910.036 382.777 906.784 389.287 905.511 390.505Z"/><path fill="#7B5344" d="M733.089 641.919C733.876 640.599 738.51 634.057 739.606 633.497C739.532 635.282 734.757 640.613 733.089 641.919Z"/><path fill="#BD876C" d="M771.671 581.959C771.847 584.723 770.898 586.333 768.627 587.867C769.557 585.568 770.395 584.071 771.671 581.959Z"/><path fill="#BD876C" d="M746.102 625.49C744.259 628.243 745.429 627.473 742.587 629.665L742.121 630.031C742.911 628.323 743.532 627.455 744.649 625.882L746.102 625.49Z"/><path fill="#BD876C" d="M739.606 633.497C740.174 632.307 740.872 630.587 742.121 630.031C742.381 631.887 741.617 631.993 740.076 633.141L739.606 633.497Z"/><path fill="#BD876C" d="M916.372 403.963L916.704 404.726C916.314 405.621 916.288 405.566 915.607 406.339L915.055 405.705C915.498 405.092 915.909 404.558 916.372 403.963Z"/></svg>