<?xml version="1.0" encoding="utf-8" ?><svg xmlns="http://www.w3.org/2000/svg" xmlns:xlink="http://www.w3.org/1999/xlink" width="1024" height="1024" viewBox="0 0 1024 1024"><path fill="white" d="M0 0L1024 0L1024 1024L0 1024L0 0Z"/><path fill="#0C0403" d="M478.958 273.196L480.452 273.342C486.136 268.376 489.96 261.209 496.346 256.353C518.323 239.642 579.125 205.519 607.103 207.261C621.352 208.148 634.468 215.598 643.787 226.215C651.583 235.096 655.612 246.142 660.947 256.521C667.326 268.932 674.315 281.568 682.463 292.918C701.448 289.94 710.724 286.702 724.017 303.713C732.933 315.124 742.6 326.496 750.812 338.481C758.167 349.136 756.395 360.935 748.676 370.461C752.296 373.401 756.771 376.852 760.224 379.876C768.34 378.738 779.75 376.934 786.401 382.695C797.476 392.288 806.66 406.51 816.046 417.802C825.801 429.539 829.763 437.951 823.77 452.75C847.841 463.912 873.923 476.412 899.579 483.325C941.825 494.709 978.739 521.179 990.158 565.459C990.711 567.604 994.071 571.561 994.874 573.957C999.49 583.763 1002.59 596.02 1002.59 606.885C1003.03 610.157 1002.59 612.325 1002.45 615.63C996.573 657.934 957.588 680.491 922.941 698.073C863.653 728.159 800.451 744.632 734.611 751.884C721.612 753.223 708.568 754.087 695.506 754.474C691.076 754.593 676.947 754.045 673.768 754.902C670.336 755.827 658.673 761.75 654.52 763.619C641.992 769.283 629.281 774.532 616.407 779.359C546.947 804.78 461.967 820.457 387.705 813.073C359.288 810.248 335.155 798.832 309.993 786.291L282.332 772.699C269.341 766.156 258.467 759.707 244.222 755.592C216.965 747.373 188.677 750.797 160.793 752.249C120.935 754.325 76.4622 750.651 44.771 723.694C22.0087 704.332 21.1325 676.577 25.1353 649.106C26.0011 643.158 27.0377 637.236 28.2439 631.348C30.165 621.453 32.5566 613.99 35.5585 604.355C35.5095 602.074 35.4872 599.792 35.4917 597.511C35.5247 584.582 41.1607 572.904 50.2667 563.875C51.9587 532.765 54.2169 509.554 59.0039 478.559C60.5712 468.257 62.2594 457.973 64.0683 447.711C66.6358 433.386 68.2508 427.329 67.1154 412.628C65.8556 396.316 69.7496 376.056 77.8843 361.705C88.9443 342.194 104.374 332.8 125.727 327.003C141.757 321.336 163.517 319.774 180.244 322.523C186.886 323.614 200.003 327.37 205.579 331.241C208.06 332.496 209.951 333.873 212.223 335.441C215.671 329.554 219.735 323.65 224.566 318.806C244.761 298.555 317.87 258.287 346.96 258.444C365.358 258.543 377.597 268.697 389.906 281.009C411.667 270.483 438.909 265.798 462.921 268.682C467.195 269.196 475.467 270.661 478.958 273.196Z"/><path fill="#036462" d="M747.988 688.909C748.915 688.856 749.841 688.793 750.766 688.722C789.694 685.727 845.614 676.531 875.761 649.858C886.144 640.65 893.952 628.899 898.416 615.759C904.634 597.776 902.653 582.231 917.234 566C926.188 555.952 937.542 549 951.16 548.017C986.158 545.489 1000.11 578.416 1001.53 608.281C1001.8 609.122 1001.91 609.515 1002.13 610.405L1002.05 610.247L1002.27 610.832L1002.24 610.798C1002.24 610.808 1002.56 607.13 1002.59 606.885C1003.03 610.157 1002.59 612.325 1002.45 615.63C996.573 657.934 957.588 680.491 922.941 698.073C863.653 728.159 800.451 744.632 734.611 751.884C721.612 753.223 708.568 754.087 695.506 754.474C691.076 754.593 676.947 754.045 673.768 754.902C670.336 755.827 658.673 761.75 654.52 763.619C641.992 769.283 629.281 774.532 616.407 779.359C546.947 804.78 461.967 820.457 387.705 813.073C359.288 810.248 335.155 798.832 309.993 786.291L282.332 772.699C269.341 766.156 258.467 759.707 244.222 755.592C216.965 747.373 188.677 750.797 160.793 752.249C120.935 754.325 76.4622 750.651 44.771 723.694C22.0087 704.332 21.1325 676.577 25.1353 649.106C26.0011 643.158 27.0377 637.236 28.2439 631.348L28.2823 631.779C28.69 636.909 27.8953 639.714 28.8215 646.099C31.5513 664.918 44.2314 684.058 58.441 696.196C87.1897 720.073 129.417 727.236 165.788 728.727C190.418 729.736 208.543 728.749 232.65 734.672C255.749 739.478 274.35 750.911 294.817 761.283C351.019 789.764 407.067 799.839 469.704 793.657C543.734 786.351 617.965 767.633 683.349 731.565C703.642 720.371 723.765 708.609 739.804 691.481C744.937 686.217 747.907 677.109 751.332 673.386L752.382 673.532C751.608 678.014 750.51 683.512 748.489 687.635L747.988 688.909Z"/><path fill="#079C83" d="M747.988 688.909C748.915 688.856 749.841 688.793 750.766 688.722C789.694 685.727 845.614 676.531 875.761 649.858C886.144 640.65 893.952 628.899 898.416 615.759C904.634 597.776 902.653 582.231 917.234 566C926.188 555.952 937.542 549 951.16 548.017C986.158 545.489 1000.11 578.416 1001.53 608.281C1001.8 609.122 1001.91 609.515 1002.13 610.405L1002.05 610.247L1002.27 610.832L1002.24 610.798C1002.24 610.808 1002.56 607.13 1002.59 606.885C1003.03 610.157 1002.59 612.325 1002.45 615.63L1001.55 616C998.927 632.406 959.691 661.628 944.7 669.858C935.798 674.746 922.841 680.948 913.49 685.212C848.697 715.073 778.583 731.659 707.279 733.994C721.757 723.995 743.974 707.008 747.988 688.909Z"/><path fill="#084240" d="M1002.59 606.885C1003.03 610.157 1002.59 612.325 1002.45 615.63L1001.55 616C1001.5 613.427 1001.5 610.854 1001.53 608.281C1001.8 609.122 1001.91 609.515 1002.13 610.405L1002.05 610.247L1002.27 610.832L1002.24 610.798C1002.24 610.808 1002.56 607.13 1002.59 606.885Z"/><path fill="#079C83" d="M35.5585 604.355C36.2436 605.682 36.3549 606.218 36.7534 607.656C42.9026 629.85 59.5676 645.967 79.2128 656.918C97.1318 667.023 119.346 675.889 139.578 679.064C145.975 680.068 157.748 679.33 164.834 679.638C185.41 680.533 202.067 682.977 222.01 687.973C235.027 691.117 247.704 695.528 259.86 701.143C276.569 708.906 292.293 718.413 309.158 725.947C371.219 753.674 420.871 758.065 488.106 750.47C512.563 747.707 536.607 743.955 560.397 737.479C589.996 729.422 622.617 715.064 638.564 687.381C642.866 679.912 646.513 671.422 648.299 662.965C649.525 657.164 650.219 651.262 651.885 645.556C657.593 626.004 671.415 609.93 691.481 604.547C702.953 601.469 715.782 601.733 726.209 607.928C738.755 615.383 745.91 628.95 749.236 642.76C751.572 652.459 753.911 663.588 751.332 673.386C747.907 677.109 744.937 686.217 739.804 691.481C723.765 708.609 703.642 720.371 683.349 731.565C617.965 767.633 543.734 786.351 469.704 793.657C407.067 799.839 351.019 789.764 294.817 761.283C274.35 750.911 255.749 739.478 232.65 734.672C208.543 728.749 190.418 729.736 165.788 728.727C129.417 727.236 87.1897 720.073 58.441 696.196C44.2314 684.058 31.5513 664.918 28.8215 646.099C27.8953 639.714 28.69 636.909 28.2823 631.779L28.2439 631.348C30.165 621.453 32.5566 613.99 35.5585 604.355Z"/><path fill="#FB6434" d="M125.727 327.003C141.757 321.336 163.517 319.774 180.244 322.523C186.886 323.614 200.003 327.37 205.579 331.241C206.538 333.135 209.785 334.48 211.695 336.273C202.426 358.67 208.459 374.074 226.487 389.141C223.071 391.969 219.118 395.419 215.635 398.06L212.074 401.274C203.228 393.704 176.442 389.696 164.478 390.772C141.133 392.871 130.821 401.864 113.351 415.276L111.983 409.648C110.64 399.259 111.609 389.839 114.506 379.804C119.343 363.052 117.977 348.536 105.913 335.102C111.089 332.798 119.59 329.287 125.006 327.693L125.525 327.545L125.727 327.003Z"/><path fill="#AA2F21" d="M111.983 409.648C115.233 406.46 118.344 403.39 121.742 400.344C149.244 375.691 185.593 379.287 215.635 398.06L212.074 401.274C203.228 393.704 176.442 389.696 164.478 390.772C141.133 392.871 130.821 401.864 113.351 415.276L111.983 409.648Z"/><path fill="#FB6434" d="M389.906 281.009C411.667 270.483 438.909 265.798 462.921 268.682C467.195 269.196 475.467 270.661 478.958 273.196L479.708 274.52C478.518 278.078 476.754 281.282 475.541 284.798C472.169 294.562 472.884 305.274 477.524 314.504C481.229 321.928 485.508 326.109 491.506 331.642C489.401 333.396 485.939 336.448 483.81 337.923L479.407 341.627C477.132 338.362 470.272 338.217 466.446 337.417C449.508 333.878 438.967 334.794 422.879 340.484L418.742 334.296C410.68 322.176 403.6 308.745 397.652 295.464C395.392 290.417 393.362 285.386 389.906 281.009Z"/><path fill="#AA2F21" d="M418.742 334.296C438.34 325.888 453.487 325.303 474.163 332.743C477.156 333.82 481.394 335.905 483.81 337.923L479.407 341.627C477.132 338.362 470.272 338.217 466.446 337.417C449.508 333.878 438.967 334.794 422.879 340.484L418.742 334.296Z"/><path fill="#FB6434" d="M753.032 661.106C798.032 656.247 851.024 647.351 891.858 627.062C878.827 652.207 854.356 665.253 828.263 673.555C806.852 680.367 770.831 686.892 748.489 687.635C750.51 683.512 751.608 678.014 752.382 673.532C753.053 668.839 753.153 665.886 753.032 661.106Z"/><path fill="#C73924" d="M113.351 415.276C130.821 401.864 141.133 392.871 164.478 390.772C176.442 389.696 203.228 393.704 212.074 401.274C205.646 406.859 198.768 412.282 192.467 417.907C172.924 435.357 125.545 448.394 113.351 415.276Z"/><path fill="#C73924" d="M422.879 340.484C438.967 334.794 449.508 333.878 466.446 337.417C470.272 338.217 477.132 338.362 479.407 341.627C474.275 346.053 469.104 350.805 464.042 355.34C451.585 342.383 443.284 342.277 426.54 345.683L422.879 340.484Z"/><path fill="white" d="M104.611 336.128C106.287 337.461 107.412 338.68 108.632 340.402C121.274 357.229 114.164 373.633 110.55 392.275C106.326 414.066 117.422 434.645 140.982 436.996C173.541 440.245 197.197 415.425 219.996 396.321C235.062 383.695 251.227 371.12 266.405 358.508C290.337 339.318 319.717 354.955 335.69 375.974C325.648 382.992 315.18 389.29 305.522 396.941C297.754 403.095 289.156 408.294 282.598 415.816L284.515 415.226C285.127 414.225 285.152 413.942 286.121 413.494C291.084 408.794 302.31 401.028 308.23 396.572C337.319 374.679 365.06 357.815 401.338 350.813C409.963 349.148 435.881 344.394 443.771 345.1C447.768 345.429 451.619 346.756 454.97 348.96C463.72 354.674 485.503 384.749 492.562 394.592C494.492 397.283 495.576 401.534 496.258 404.832C496.018 410.444 494.692 418.85 490.72 423.034C490.365 422.996 489.855 422.976 489.544 422.868C488.931 422.497 488.906 422.51 488.393 421.995L486.482 420.379C486.164 420.208 486.11 420.218 485.907 419.96C483.039 417.812 482.079 416.688 478.52 416.7C487.529 421.598 494.346 428.934 502.933 433.804C459.453 444.227 433.301 456.636 397.852 485.09C391.236 490.4 381.165 498.007 376.087 504.339C378.036 503.246 383.357 498.677 385.331 497.06C391.835 491.645 398.424 486.335 405.097 481.13C437.567 456.32 467.533 441.97 508.068 433.875C537.511 427.995 541.851 451.902 559.18 469.441C564.369 474.694 570.378 483.374 571.816 490.639C572.1 494.58 571.358 503.035 568.188 505.595L566.882 504.815C564.447 503.987 563.76 503.601 561.588 502.191L559.535 502.114C567.688 507.939 595.182 519.587 605.303 523.961C572.063 533.704 546.552 542.43 523.782 571.877C516.406 582.692 510.128 592.909 499.07 600.555C480.905 613.116 454.897 618.252 433.302 612.422C409.942 606.115 386.947 587.916 368.401 572.6C359.038 564.868 350.238 554.834 341.073 546.745C324.909 531.266 308.641 517.241 292.296 502.058C277.159 487.996 262.52 473.298 241.814 466.684C220.682 460.019 202.511 481.901 185.458 490.561C109.682 529.043 56.4142 459.592 70.3371 386.826C74.9056 362.95 85.0649 349.432 104.611 336.128Z"/><path fill="#079C83" d="M286.121 413.494C291.084 408.794 302.31 401.028 308.23 396.572C337.319 374.679 365.06 357.815 401.338 350.813C409.963 349.148 435.881 344.394 443.771 345.1C447.768 345.429 451.619 346.756 454.97 348.96C463.72 354.674 485.503 384.749 492.562 394.592C494.492 397.283 495.576 401.534 496.258 404.832C485.921 401.165 438.439 409.685 425.741 412.991C418.003 415.006 409.24 418.083 401.912 421.376C386.589 428.262 376.535 437.852 363.795 448.246C347.666 461.406 336.256 478.898 312.979 470.643C299.078 465.712 285.547 453.366 279.372 440.018C278.633 438.421 275.752 431.346 275.173 430.482C276.484 424.692 278.718 420.307 282.598 415.816L284.515 415.226C285.127 414.225 285.152 413.942 286.121 413.494Z"/><path fill="#0B8370" d="M286.121 413.494C285.729 414.44 285.329 414.601 284.515 415.226C285.127 414.225 285.152 413.942 286.121 413.494Z"/><path fill="#079C83" d="M376.087 504.339C378.036 503.246 383.357 498.677 385.331 497.06C391.835 491.645 398.424 486.335 405.097 481.13C437.567 456.32 467.533 441.97 508.068 433.875C537.511 427.995 541.851 451.902 559.18 469.441C564.369 474.694 570.378 483.374 571.816 490.639C570.128 492.286 566.296 491.753 563.907 491.954C549.903 493.047 535.399 496.201 521.88 499.842C505.535 504.245 490.111 511.415 475.818 519.907C459.974 529.32 447.267 544.458 434.282 555.496C420.841 566.922 392.712 554.934 383.566 542.882C376.198 535.002 372.275 527.703 368.78 517.626C370.181 513.471 372.905 507.397 376.087 504.339Z"/><path fill="#036462" d="M275.173 430.482C275.752 431.346 278.633 438.421 279.372 440.018C285.547 453.366 299.078 465.712 312.979 470.643C336.256 478.898 347.666 461.406 363.795 448.246C376.535 437.852 386.589 428.262 401.912 421.376C409.24 418.083 418.003 415.006 425.741 412.991C438.439 409.685 485.921 401.165 496.258 404.832C496.018 410.444 494.692 418.85 490.72 423.034C490.365 422.996 489.855 422.976 489.544 422.868C488.931 422.497 488.906 422.51 488.393 421.995L486.482 420.379C486.164 420.208 486.11 420.218 485.907 419.96C483.039 417.812 482.079 416.688 478.52 416.7C462.876 411.293 418.017 429.39 402.126 437.115C387.461 444.279 373.528 452.852 360.523 462.713C358.515 464.22 352.72 468.756 351.327 470.572C330.008 498.382 293.192 488.5 278.911 459.394C274.854 451.127 272.787 440.076 275.173 430.482Z"/><path fill="#036462" d="M571.816 490.639C572.1 494.58 571.358 503.035 568.188 505.595L566.882 504.815C564.447 503.987 563.76 503.601 561.588 502.191L559.535 502.114C535.082 499.441 475.733 528.843 456.978 544.424C441.031 557.672 434.739 576.972 409.381 574.19C384.352 572.333 360.484 541.983 368.78 517.626C372.275 527.703 376.198 535.002 383.566 542.882C392.712 554.934 420.841 566.922 434.282 555.496C447.267 544.458 459.974 529.32 475.818 519.907C490.111 511.415 505.535 504.245 521.88 499.842C535.399 496.201 549.903 493.047 563.907 491.954C566.296 491.753 570.128 492.286 571.816 490.639Z"/><path fill="#084240" d="M561.588 502.191C563.864 502.947 564.896 503.474 566.882 504.815C564.447 503.987 563.76 503.601 561.588 502.191Z"/><path fill="white" d="M698.947 291.749C700.527 291.208 703.32 291.367 704.963 291.777C717.713 295.284 724.735 306.146 732.388 316.427C739.473 325.945 751.897 338.495 754.205 350.032C754.335 357.125 752.03 365.583 747.125 370.812C750.939 373.866 754.722 376.958 758.475 380.087C715.107 391.17 689.583 403.018 654.452 431.511C647.397 437.233 638.072 443.747 632.6 450.823C634.09 450.359 642.041 443.159 643.899 441.63C654.276 433.064 664.961 424.878 675.932 417.088C698.598 401.29 722.236 390.745 748.874 383.804C758.061 381.274 775.628 376.909 784.064 382.773C792.401 388.569 798.882 398.13 805.139 406.096C813.322 416.512 822.148 425.139 825.338 438.168C825.76 444.626 825.125 446.479 822.89 452.59C820.446 451.271 815.144 448.263 812.395 448.357C816.368 451.5 850.501 466.622 857.413 469.703C825.799 479.14 798.552 489.617 777.918 517.509C769.057 530.217 763.891 539.058 749.934 547.649C734.455 557.178 710.147 561.686 692.143 556.844C688.84 555.955 681.137 550.281 677.061 548.382C670.19 544.183 657.954 542.211 651.88 537.657C627.464 519.35 605.502 497.488 584.013 475.982C575.661 467.625 566.785 460.467 558.562 452.74C543.273 438.373 518.446 415.045 497.763 409.933L497.014 409.752C497.069 409.363 497.118 408.973 497.16 408.583C498.661 394.232 473.988 367.944 464.837 356.378C482.364 339.976 501.882 325.051 520.213 309.579C529.165 302.023 539.059 297.292 551.002 298.739C568.244 300.829 580.986 310.949 591.538 324.017C582.647 330.281 549.534 353.409 544.179 359.826C544.97 359.785 544.999 359.806 545.643 359.322C561.674 347.269 579.661 333.119 596.471 322.349C627.835 302.256 662.876 297.124 698.947 291.749Z"/><path fill="#079C83" d="M698.947 291.749C700.527 291.208 703.32 291.367 704.963 291.777C717.713 295.284 724.735 306.146 732.388 316.427C739.473 325.945 751.897 338.495 754.205 350.032C727.842 349.76 684.882 355.98 660.549 367.479C647.782 373.512 631.353 386.103 620.358 395.089C613.091 401.029 606.867 408.025 598.778 413.447C582.215 424.551 562.059 415.093 549.506 402.534C545.491 398.517 542.199 394.256 539.319 389.292C537.633 386.385 535.93 380.156 534.212 378.382C535.715 371.379 539.171 364.945 544.179 359.826C544.97 359.785 544.999 359.806 545.643 359.322C561.674 347.269 579.661 333.119 596.471 322.349C627.835 302.256 662.876 297.124 698.947 291.749Z"/><path fill="#084240" d="M698.947 291.749C700.527 291.208 703.32 291.367 704.963 291.777C703.051 291.983 700.847 292.073 698.947 291.749Z"/><path fill="#079C83" d="M632.6 450.823C634.09 450.359 642.041 443.159 643.899 441.63C654.276 433.064 664.961 424.878 675.932 417.088C698.598 401.29 722.236 390.745 748.874 383.804C758.061 381.274 775.628 376.909 784.064 382.773C792.401 388.569 798.882 398.13 805.139 406.096C813.322 416.512 822.148 425.139 825.338 438.168C783.194 439.897 732.437 456.414 703.246 487.997C695.013 496.904 691.541 504.107 677.472 504.819C664.798 505.46 652.359 497.314 643.354 489.138C634.914 481.475 630.576 474.621 626.766 464.022C626.534 463.377 626.641 463.629 626.26 462.991C627.533 458.24 629.253 454.501 632.6 450.823Z"/><path fill="#036462" d="M534.212 378.382C535.93 380.156 537.633 386.385 539.319 389.292C542.199 394.256 545.491 398.517 549.506 402.534C562.059 415.093 582.215 424.551 598.778 413.447C606.867 408.025 613.091 401.029 620.358 395.089C631.353 386.103 647.782 373.512 660.549 367.479C684.882 355.98 727.842 349.76 754.205 350.032C754.335 357.125 752.03 365.583 747.125 370.812C741.532 365.852 735.005 360.794 727.068 361.608C719.467 362.336 711.951 364.434 704.619 366.55C670.283 376.461 637.377 391.705 610.468 415.59C605.566 419.941 601.921 424.695 596.112 427.987C581.058 436.521 563.771 432.328 551.002 421.482C540.92 413.071 534.674 400.935 533.689 387.842C533.444 384.465 533.554 381.709 534.212 378.382Z"/><path fill="#036462" d="M825.338 438.168C825.76 444.626 825.125 446.479 822.89 452.59C820.446 451.271 815.144 448.263 812.395 448.357C787.382 446.752 730.132 474.191 710.894 491.382C696.083 504.616 691.726 520.461 666.992 518.933C639.723 517.247 619.423 489.38 626.26 462.991C626.641 463.629 626.534 463.377 626.766 464.022C630.576 474.621 634.914 481.475 643.354 489.138C652.359 497.314 664.798 505.46 677.472 504.819C691.541 504.107 695.013 496.904 703.246 487.997C732.437 456.414 783.194 439.897 825.338 438.168Z"/><path fill="#FB6434" d="M606.737 525.079C608.069 525.154 626.444 532.065 629.049 533.101C642.224 538.338 655.793 540.477 668.674 546.103C691.363 556.011 713.286 571.204 726.712 592.386C731.932 600.623 734.772 607.491 738.385 616.295C728.976 607.143 720.978 601.828 707.351 601.38C696.871 601.065 686.518 603.739 677.501 609.09C641.55 630.478 652.763 669.963 638.818 682.106C633.39 686.833 623.613 689.866 616.958 692.561C567.076 712.765 486.724 727.148 433.122 722.656C386.64 719.734 341.842 705.93 299.884 686.271C306.364 675.491 310.922 668.037 318.817 658.293C341.514 630.276 374.398 613.639 408.562 603.773C433.685 616.971 456.909 620.403 484.038 609.976C492.524 606.583 504.342 600.13 510.186 592.844C522.396 577.623 528.467 565.322 544.635 552.75C564.568 537.25 583.068 531.501 606.737 525.079Z"/><path fill="#FEC83E" d="M68.2674 431.368C69.0926 432.271 71.1485 440.789 71.5722 442.521C84.8707 496.876 141.111 518.524 188.683 490.321C209.797 477.804 224.49 457.85 251.014 471.782C270.559 482.05 279.845 492.619 295.67 506.953C310.661 520.367 325.476 533.975 340.113 547.774C348.621 555.787 357.32 564.683 366.011 572.35C378.152 583.061 393.296 593.95 406.979 602.585C393.344 607.052 381.616 611.456 368.728 617.524C335.106 634.348 317.169 654.181 298.723 685.676C294.376 683.423 288.947 680.812 284.942 678.205C258.609 661.069 228.456 652.764 197.707 647.858C184.201 645.703 170.915 646.619 157.413 643.765C138.826 572.226 114.368 518.082 62.7828 464.023C63.8955 455.082 66.3199 439.903 68.2674 431.368Z"/><path fill="#FB6434" d="M857.638 471.068C862.227 470.677 879.235 478.163 884.779 480C901.444 485.521 918.441 489.576 933.852 498.221C960.162 512.98 978.943 532.798 987.515 562.021C979.286 552.856 972.62 548.568 960.155 547.061C933.751 543.623 909.989 564.526 903.597 589.152C900.222 602.155 899.905 612.649 892.916 625C875.855 634.846 848.142 642.218 829.217 647.115C800.795 653.246 782.182 656.471 753.125 659.692C751.026 638.489 747.51 635.03 739.845 617.021C731.253 596.832 725.19 582.288 706.897 567.878C703.664 565.33 699.683 562.197 696.394 559.397C702.829 559.849 709.02 560.345 715.4 559.871C735.248 558.397 757.036 548.759 769.039 532.412C777.551 520.82 781.187 513.315 792.598 503.234C813.043 485.174 832.536 478.719 857.638 471.068Z"/><path fill="#FB6434" d="M49.2875 566.318C50.2077 567.451 50.5119 575.635 51.2485 578.942C51.996 582.298 53.1349 585.554 54.642 588.643C70.5638 621.461 125.645 639.543 159.334 645.633C169.696 647.506 178.59 647.091 188.751 648.206C207.106 650.22 227.207 654.624 244.699 660.505C253.497 663.386 262.035 667.009 270.221 671.334C276.619 674.796 282.726 678.864 289.237 682.331C305.318 691.072 322.118 698.418 339.454 704.288C376.343 716.885 419.378 726.052 458.624 724.638C519.052 722.46 583.877 711.211 638.533 684.336C633.494 693.957 628.487 699.561 620.42 706.766C588.724 733.095 547.442 740.749 508.296 746.767C433.494 758.266 368.886 754.97 300.317 720.602C288.094 714.476 275.172 707.164 262.886 701.217C250.323 695.223 237.19 690.507 223.683 687.143C205.341 682.218 186.514 679.317 167.539 678.49C160.013 678.145 145.192 679.018 138.165 677.563C98.6467 669.381 44.6327 646.99 37.0198 602.256C34.6848 588.535 41.4451 576.656 49.2875 566.318Z"/><path fill="#FB6434" d="M340.643 260.161C367.071 256.935 388.324 275.14 397.492 298.54C403.617 314.175 415.383 331.688 424.7 345.594C389.97 350.356 366.72 357.19 336.667 375.267C323.573 357.584 303.255 344.774 280.678 349.775C269.412 353.277 263.093 359.428 254.136 366.7C245.341 373.924 236.488 381.076 227.578 388.156C227.238 387.921 226.893 387.691 226.566 387.439C217.816 380.71 210.679 371.226 209.066 360.103C207.313 348.015 211.873 336.769 219.044 327.251C237.308 303.01 309.584 264.519 340.643 260.161Z"/><path fill="#FB6434" d="M598.887 208.658C618.892 206.338 638.361 218.325 648.575 234.932C653.509 242.955 657.666 253.242 662.129 261.761C667.864 272.63 674.218 283.16 681.159 293.301C648.58 296.729 620.696 306.599 592.691 323.088L589.795 319.667C579.345 307.455 565.578 298.525 549.287 297.3C532.63 296.385 523.822 304.811 511.989 314.628C505.512 320.089 498.961 325.461 492.338 330.744C484.223 322.632 477.842 316.075 475.573 304.26C472.043 285.878 482.918 269.068 496.709 257.948C503.037 252.845 511.861 247.358 518.895 243.258C542.443 229.531 571.811 213.473 598.887 208.658Z"/><path fill="#079C83" d="M62.3392 465.537C109.391 515.183 141.799 576.872 155.981 643.785C121.542 635.477 79.1424 623.592 57.8801 592.104C51.6018 582.807 51.3258 572.923 51.5621 562.105C51.4822 560.694 50.9238 558.776 51.8676 557.699L52.0605 553.072C51.9726 551.395 51.4824 549.733 52.3827 548.633C53.2239 526.028 58.2614 488.07 62.3392 465.537Z"/><path fill="#084240" d="M52.0605 553.072C51.9726 551.395 51.4824 549.733 52.3827 548.633C52.5748 550.574 52.4307 551.184 52.0605 553.072Z"/><path fill="#084240" d="M51.8676 557.699C52.1061 559.589 51.9308 560.223 51.5621 562.105C51.4822 560.694 50.9238 558.776 51.8676 557.699Z"/><path fill="#FEC83E" d="M496.85 411.133C507.849 413.427 528.888 427.77 537.79 435.428C543.43 440.279 551.482 448.075 557.307 453.388C566.954 462.038 576.47 470.833 585.85 479.77C594.517 488.171 603.095 497.216 611.78 505.4C624.257 517.172 637.361 528.26 651.035 538.618L642.256 536.121C616.429 527.757 594.157 518.076 569.885 506.402C575.461 490.47 573.694 484.938 562.856 472.005C554.558 462.104 546.587 450.296 537.719 441.021C535.535 438.732 533.109 436.685 530.486 434.917C522.799 429.839 512.849 431.527 504.575 433.259C499.928 430.374 496.02 427.554 491.59 424.367C494.339 419.402 495.341 416.554 496.85 411.133Z"/></svg>