<?xml version="1.0" encoding="utf-8" ?><svg xmlns="http://www.w3.org/2000/svg" xmlns:xlink="http://www.w3.org/1999/xlink" width="1024" height="1024" viewBox="0 0 1024 1024"><path fill="white" d="M0 0L1024 0L1024 1024L0 1024L0 0Z"/><path fill="#FEA707" d="M429.835 734.391C427.246 732.893 406.519 732.146 401.842 731.653C386.645 730.052 371.744 727.435 356.787 724.309C322.013 717.043 287.367 704.344 256.636 686.44C243.755 678.936 230.862 670.347 219.251 660.987C204.573 649.155 146.644 593.356 142.909 577.281C141.826 572.623 142.711 566.837 145.232 562.796C147.36 559.383 150.575 556.975 154.281 555.489C158.545 553.781 164.158 553.621 168.714 552.861C175.019 551.827 181.285 550.569 187.5 549.089C278.512 527.518 355.635 461.545 413.33 390.39C439.901 357.119 463.67 321.842 486.11 285.689C492.864 274.807 499.357 263.893 506.998 253.587C532.722 218.894 566.906 191.641 609.625 181.677C647.766 172.59 687.956 179.046 721.332 199.622C748.483 216.594 777.039 247.366 784.361 279.064C790.728 276.552 792.792 278.078 799.23 280.877L852.07 304.131C856.249 305.974 860.151 307.831 864.951 309.86C873.092 313.3 884.533 316.831 879.812 328.57C877.668 333.902 865.738 339 860.146 342.121L831.387 358.331L808.009 371.596C805.119 373.258 797.112 378.353 794.256 378.885C792.599 384.925 792.412 399.349 791.576 406.027C790.152 417.413 788.855 429.282 787.013 440.603C785.613 449.212 784.086 461.344 782.033 469.638C778.5 485.091 775.073 500.251 770.323 515.379C755.733 561.846 730.558 605.644 695.082 639.301C690.765 643.396 667.859 665.002 664.035 664.623C639.605 681.504 617.991 695.819 589.969 706.577C587.315 707.595 573.762 712.541 572.5 713.521C560.565 717.112 548.162 720.975 536.142 724.16C525.626 725.998 515.218 728.317 504.667 730.021C492.699 731.955 481.074 732.662 469.002 733.519C457.993 730.962 450.064 731.706 438.881 733.222C437.088 733.465 431.237 734.521 429.835 734.391Z"/><path fill="#E64F33" d="M664.035 664.623C661.786 661.726 656.047 657.066 652.852 653.104C640.433 637.915 635.328 617.842 637.707 598.383C646.228 528.68 708.606 462.725 782.033 469.638C778.5 485.091 775.073 500.251 770.323 515.379C755.733 561.846 730.558 605.644 695.082 639.301C690.765 643.396 667.859 665.002 664.035 664.623Z"/><path fill="#E64F33" d="M784.361 279.064C790.728 276.552 792.792 278.078 799.23 280.877L852.07 304.131C856.249 305.974 860.151 307.831 864.951 309.86C873.092 313.3 884.533 316.831 879.812 328.57C877.668 333.902 865.738 339 860.146 342.121L831.387 358.331L808.009 371.596C805.119 373.258 797.112 378.353 794.256 378.885C793.217 378.076 790.265 376.841 788.888 376.014C751.059 353.315 752.223 305.553 784.361 279.064Z"/><path fill="#E64F33" d="M493.164 395.691C515.491 392.799 542.202 404.728 556.032 422.242C569.451 439.236 574.662 459.112 571.531 480.718C564.815 527.06 528.683 564.49 493.321 592.38C454.911 621.999 394.122 648.695 344.548 642.916C335.883 641.905 326.344 638.618 320.924 631.344C316.137 618.838 329.64 610.082 337.788 602.91C343.572 597.819 350.097 592.358 356.367 587.906C355.442 588.176 354.507 588.414 353.564 588.62C331.872 593.326 293.394 596.3 273.025 585.029C266.071 581.181 265.393 572.181 270.291 566.286C274.015 561.803 278.798 558.077 283.765 554.787C300.148 543.936 314.916 531.999 329.711 519.112L416.557 443.5C423.582 437.375 430.566 431.201 437.508 424.979C456.456 407.897 466.353 398.722 493.164 395.691Z"/><path fill="#532A12" d="M682.654 260.53C701.589 258.287 718.725 271.899 720.825 290.849C722.925 309.8 709.185 326.834 690.219 328.791C671.454 330.727 654.64 317.164 652.562 298.414C650.484 279.664 663.92 262.749 682.654 260.53Z"/><path fill="#532A12" d="M429.835 734.391C431.237 734.521 437.088 733.465 438.881 733.222C450.064 731.706 457.993 730.962 469.002 733.519C468.655 752.179 467.821 773.829 464.536 792.005C477.244 791.093 549.229 783.446 553.871 798.389C553.471 805.232 538.851 807.139 533.701 806.706L533.966 808.08C538.755 808.147 548.822 810.691 552.789 813.584C558.756 817.934 560.027 821.967 561.345 828.623C553.435 827.11 534.055 825.887 525.474 825.384C532.066 828.81 545.195 834.909 540.754 846.413C540.464 847.165 538.36 848.566 537.45 848.522C520.438 847.697 504.934 834.448 489.148 828.518C480.416 825.141 476.468 823.496 468.001 820.882C451.781 815.873 442.267 815.515 425.303 814.79C412.341 813.825 395.926 817.395 383.997 811.893C381.153 810.581 383.091 803.36 385.468 801.47C398.354 791.224 427.976 792.459 443.283 792.337C436.214 776.927 431.454 760.56 429.157 743.762C428.631 740.164 427.777 737.135 429.835 734.391Z"/><path fill="#AA8A7B" d="M533.966 808.08C533.544 808.041 531.51 808.005 531.405 807.342C531.704 806.941 532.416 806.944 532.863 806.88L533.701 806.706L533.966 808.08Z"/><path fill="#532A12" d="M536.142 724.16C548.162 720.975 560.565 717.112 572.5 713.521C571.528 729.251 571.014 740.208 567.799 755.684C591.321 753.565 617.04 747.865 640.487 751.417C663.021 754.83 657.693 767.969 636.485 769.02L636.556 769.889C650.798 771.64 663.081 774.62 665.629 790.745C656.815 789.748 646.118 788.927 637.564 787.673C636.147 787.867 636.261 787.847 635.01 788.62C643.53 792.116 646.604 799.02 644.37 807.89C643.015 813.265 634.024 809.757 630.842 808.406C621.197 804.312 611.691 799.834 602.01 795.815C583.211 787.97 563.441 782.692 543.234 780.124C529.619 778.377 515.809 778.801 502.108 778.507C498.054 778.42 485.134 777.865 484.636 772.48C484.154 767.263 491.733 762.16 496.161 761.153C511.925 757.569 530.798 757.5 546.725 756.992C540.932 745.112 539.036 736.773 536.142 724.16Z"/><path fill="#CCB6A6" d="M635.01 788.62C634.721 788.588 628.843 787.248 628.666 786.966L628.741 786.838C629.803 786.408 636.206 787.339 637.564 787.673C636.147 787.867 636.261 787.847 635.01 788.62Z"/><path fill="#AA8A7B" d="M632.435 768.746C634.037 768.931 634.872 769.023 636.485 769.02L636.556 769.889C635.895 769.977 635.3 770.053 634.636 770.119C633.894 769.649 633.188 769.195 632.435 768.746Z"/><path fill="#6A3D2D" d="M634.636 770.119C634.142 770.044 630.95 769.787 631.031 769.152C631.381 768.769 631.908 768.806 632.435 768.746C633.188 769.195 633.894 769.649 634.636 770.119Z"/></svg>