<?xml version="1.0" encoding="utf-8" ?><svg xmlns="http://www.w3.org/2000/svg" xmlns:xlink="http://www.w3.org/1999/xlink" width="1024" height="1024" viewBox="0 0 1024 1024"><path fill="white" d="M0 0L1024 0L1024 1024L0 1024L0 0Z"/><path fill="#050202" d="M510.283 103.713C533.692 102.95 547.304 112.634 564.664 126.129L590.923 146.623L631.837 178.734C646.694 190.242 661.926 201.684 676.249 213.826C676.541 201.823 676.212 188.415 676.157 176.32C664.989 175.642 654.269 171.708 650.882 159.774C649.27 154.238 650.014 148.282 652.939 143.314C662.036 127.602 680.798 130.239 696.434 130.206L729.698 130.198C742.867 130.206 759.118 129.691 772.065 130.715C787.533 131.939 801.039 155.438 789.291 168.496C783.612 174.808 778.763 175.101 770.681 175.991L770.542 284.027C781.634 292.118 793.23 301.441 804.177 309.837C821.699 323.15 839.149 336.556 856.529 350.054L879.545 367.988C892.03 377.724 902.795 384.926 907.298 400.903C910.462 411.792 909.148 423.494 903.647 433.411C898.067 443.152 888.825 450.26 877.978 453.154C864.635 456.785 853.281 453.986 841.532 447.266L841.521 705.428L841.523 773.227C841.516 805.438 844.425 829.733 819.27 854.836C808.667 865.445 795.32 872.892 780.723 876.344C766.94 879.637 741.409 878.484 726.116 878.482L649.25 878.504L366.146 878.518L291.569 878.541C279.969 878.554 257.805 879.218 247.075 877.464C231.039 874.85 216.217 867.304 204.669 855.874C193.626 844.907 186.218 830.812 183.448 815.497C181.806 805.945 182.367 785.554 182.374 775.042L182.42 705.926L182.332 448.14C175.312 451.847 170.069 454.032 162.004 454.671C150.492 455.64 139.071 451.963 130.287 444.459C113.169 429.779 110.466 401.897 125.989 384.658C134.701 374.983 150.994 363.931 161.722 355.48L248.815 287.647C299.503 247.905 350.505 208.563 401.815 169.627L447.084 134.914C469.367 117.777 480.754 105.475 510.283 103.713Z"/><path fill="#E5CF95" d="M507.843 214.117C527.615 211.998 540.436 226.067 555.475 237.041C576.133 252.105 596.701 267.293 617.179 282.602L772.145 396.443C794.612 413.22 817.232 429.79 840.004 446.152L839.97 700.344L840.001 770.354C840.015 803.161 843.478 828.206 818.012 853.748C807.803 864.137 794.839 871.394 780.646 874.666C768.515 877.545 757.422 877.016 745.097 877.021L714.735 877.025L616.597 877.053L616.801 696.232L616.793 643.974C616.759 631.951 617.233 617.413 615.109 605.828C611.752 588.168 603.958 571.652 592.462 557.834C573.6 534.796 548.615 521.524 519.125 518.538C516.75 518.436 514.374 518.367 511.998 518.332C485.521 518.103 457.792 529.662 439.042 548.291C424.425 562.8 414.25 581.176 409.709 601.264C406.422 616.174 407.156 633.209 407.162 648.572L407.195 698.174L407.232 877.123C363.212 876.588 319.045 877.358 275.011 877.051C264.611 876.979 253.766 877.465 243.565 875.192C229.227 872.037 216.077 864.884 205.638 854.563C180.492 829.271 183.872 804.728 183.864 772.219L183.856 701.958L183.934 447.24C206.997 430.994 231.28 412.161 254.199 395.293L390.548 294.638C413.173 277.72 435.892 260.929 458.704 244.264C469.878 236.078 481.171 227.365 492.66 219.661C497.334 216.527 502.364 215.113 507.843 214.117Z"/><path fill="#050202" d="M267.206 475.692C279.615 474.815 293.287 475.863 305.849 475.536C314.678 475.306 325.623 475.376 334.126 477.342C341.438 479.01 348.313 482.211 354.296 486.734C364.753 494.563 375.23 510.049 376.195 523.378C377.7 544.168 376.482 565.654 376.923 586.537C377.089 594.416 377.2 604.13 375.575 611.748C373.804 619.932 370.237 627.621 365.131 634.258C355.121 647.234 341.777 653.903 325.761 655.945C310.087 656.475 294.238 656.128 278.546 656.232C271.867 656.277 264.482 656.111 257.99 654.654C250.228 652.89 242.946 649.451 236.652 644.579C218.347 630.244 214.712 612.903 215.557 590.682C216.89 567.502 213.124 540.585 216.968 517.897C220.981 494.213 244.898 478.18 267.206 475.692Z"/><path fill="#92AA9A" d="M279.935 477.25L307.831 477.249C328.801 477.324 343.174 477.42 359.096 493.006C377.656 511.175 375.133 530.088 375.163 553.459L375.171 594.145C375.112 613.676 371.667 627.859 356.193 641.222C341.99 653.487 329.233 654.718 311.375 654.666L283.554 654.65C263.258 654.629 248.84 654.399 232.954 639.098C221.675 628.236 217.499 615.595 217.315 600.202L217.138 557.127C217.102 546.081 216.407 526.696 218.918 516.8C221.17 508.216 225.62 500.367 231.828 494.026C246.525 479.132 260.513 477.287 279.935 477.25Z"/><path fill="#050202" d="M272.077 490.704C281.91 490.613 291.743 490.579 301.575 490.603C318.478 490.61 333.263 489.02 346.799 501.089C360.417 513.231 361.613 526.468 361.156 543.694C360.791 557.481 361.284 571.516 361.105 585.328C360.962 592.974 361.637 600.909 359.984 608.426C358.401 615.409 355.05 621.867 350.251 627.181C342.409 635.764 331.863 640.12 320.357 640.575C306.007 641.026 291.315 640.378 276.934 640.729C265.37 641.012 254.533 638.81 245.404 631.265C237.033 624.207 231.823 614.102 230.929 603.189C230.233 594.639 230.868 576.786 230.946 567.752C231.033 557.556 230.072 531.52 232.088 522.622C233.575 516.176 236.621 510.193 240.957 505.198C249.322 495.482 259.6 491.578 272.077 490.704Z"/><path fill="#92AA9A" d="M232.502 572.394C251.673 572.152 271.35 572.351 290.559 572.338L290.517 639.04L284.621 639.066C268.878 639.109 256.089 639.582 243.843 627.571C229.259 613.267 232.446 591.743 232.502 572.394Z"/><path fill="#92AA9A" d="M301.627 572.429C320.585 572.093 340.454 572.405 359.485 572.413C359.55 593.812 362.865 611.629 347.636 627.616C332.858 640.975 320.323 639.077 301.567 639.099L301.627 572.429Z"/><path fill="#92AA9A" d="M301.549 492.408C319.155 492.41 333.657 490.303 347.293 503.694C362.644 518.77 359.617 538.273 359.581 558.387C340.246 558.085 320.908 558.031 301.571 558.224L301.549 492.408Z"/><path fill="#92AA9A" d="M269.109 492.674C275.873 492.318 283.659 492.474 290.513 492.472L290.523 558.085L254.75 558.068L232.546 558.128C232.51 550.032 232.494 541.893 232.526 533.804C232.615 511.305 246.908 495.442 269.109 492.674Z"/><path fill="#4F6955" d="M292.387 492.401L299.939 492.412C300.398 514.146 299.994 537.64 300.041 559.537C319.913 559.405 339.713 560.033 359.655 559.806C359.657 563.497 359.626 567.188 359.563 570.879C340.717 570.197 318.871 570.688 299.807 570.678C300.572 592.083 300.02 617.424 300.029 639.084L292.262 639.08L292.095 570.848C272.248 570.693 252.399 570.698 232.552 570.863L232.593 559.685L292.359 559.495L292.387 492.401Z"/><path fill="#050202" d="M704.277 476.217C716.309 475.875 756.489 475.304 766.238 477.656C774.175 479.607 781.582 483.293 787.923 488.45C799.527 497.854 806.947 511.459 808.568 526.306C809.241 533.018 809.112 553.719 808.944 561.097C808.649 574.09 810.127 602.035 807.588 613.429C805.77 621.617 801.989 629.242 796.573 635.647C786.107 648.184 772.754 654.969 756.625 656.487L723.446 656.627C701.123 656.7 685.807 658.052 667.661 641.756C656.959 632.152 650.581 618.638 649.968 604.272C649.094 583.352 650.543 561.47 649.942 540.455C649.735 533.224 649.926 523.567 651.885 516.609C658.574 492.855 679.923 477.288 704.277 476.217Z"/><path fill="#92AA9A" d="M699.187 478.146C703.395 477.556 720.993 477.695 725.84 477.829C736.471 478.121 755.108 476.98 764.868 478.973C771.38 480.36 777.553 483.024 783.03 486.81C812.468 506.851 807.513 537.13 807.31 568.209C807.233 580.13 808.342 601.073 806.069 612.355C804.613 619.372 801.689 626 797.49 631.806C788.814 643.859 775.715 651.98 761.062 654.392C751.91 655.918 702.877 655.842 693.701 653.766C686.846 652.215 680.318 649.084 674.578 645.062C663.022 636.965 654.435 624.462 652.145 610.418C650.267 598.902 651.503 583.754 651.493 571.811C651.481 557.864 650.12 534.424 652.515 521.58C653.86 514.06 656.908 506.948 661.426 500.787C670.956 487.672 683.345 480.677 699.187 478.146Z"/><path fill="#050202" d="M700.891 491.635C705.707 491.064 719.006 491.329 724.507 491.364C733.708 491.423 750.734 490.563 759.317 492.172C764.88 493.194 770.184 495.315 774.919 498.41C798.416 513.961 793.241 541.401 793.503 565.799C793.62 576.691 794.517 596.725 792.721 606.814C791.589 612.907 789.185 618.694 785.665 623.795C778.762 633.826 769.087 638.63 757.407 640.812C750.688 641.558 737.534 641.155 730.466 641.078C721.868 640.985 706.522 641.781 698.653 640.271C693.262 639.24 688.12 637.177 683.511 634.196C674.517 628.312 668.242 619.084 666.076 608.557C664.166 599.463 665.473 573.247 665.382 562.752C665.32 555.563 665.025 532.12 665.926 526.202C666.751 520.534 668.797 515.114 671.923 510.315C678.657 500.092 689.033 493.99 700.891 491.635Z"/><path fill="#92AA9A" d="M733.625 572.652C752.477 572.258 772.751 572.616 791.784 572.551C791.312 594.433 795.701 611.09 780.109 627.794C765.482 641.576 752.326 639.782 733.562 639.556L733.625 572.652Z"/><path fill="#92AA9A" d="M733.592 492.95C750.571 492.867 766.428 491.333 779.572 504.23C794.784 519.154 791.783 538.669 791.824 558.484L733.538 558.477L733.592 492.95Z"/><path fill="#92AA9A" d="M666.926 572.546C685.128 572.239 704.164 572.525 722.435 572.523L722.439 639.541C705.416 639.684 692.022 640.838 678.549 628.052C663.593 613.858 666.868 592.234 666.926 572.546Z"/><path fill="#92AA9A" d="M702.937 493.16C708.725 492.801 716.495 492.98 722.431 492.96L722.488 558.485C710.837 558.341 698.921 558.467 687.25 558.477L666.971 558.537C666.902 541.695 664.366 522.931 674.727 509.302C681.574 500.343 691.744 494.524 702.937 493.16Z"/><path fill="#4F6955" d="M724.016 492.975L731.937 492.879L732.016 559.969L791.908 559.895L791.853 571.006L731.953 570.988L731.981 637.125L731.799 638.956C730.06 640.18 726.389 639.704 724.08 639.623L724.021 570.835L666.876 570.987L666.948 559.958C685.823 559.828 705.208 560.262 724.027 559.753L724.016 492.975Z"/><path fill="#F58E67" d="M506.276 105.695C511.902 104.764 522.399 106.022 527.958 107.38C536.197 109.359 543.988 112.873 550.925 117.738C561.925 125.368 574.598 136.046 585.42 144.427L680.603 219.273C703.363 236.844 726.413 253.113 749.367 270.172C779.18 292.588 808.827 315.224 838.305 338.08L871.03 363.499C890.989 378.929 913.664 393.719 905.973 423.119C903.188 433.493 896.356 442.315 887.008 447.605C876.242 453.741 863.299 454.751 851.711 450.359C841.691 446.604 828.505 435.927 819.472 429.259L788.831 406.685L621.844 283.968C601.992 269.099 582.028 254.379 561.956 239.808C549.413 230.568 534.128 216.645 519.185 212.623C498.383 209.6 487.742 220.671 472.19 232.168L437.46 257.667L260.255 388.715L211.946 424.409C202.129 431.711 192.687 438.847 182.46 445.761C157.342 462.744 121.445 448.676 117.704 417.725C114.142 388.249 139.728 375.055 159.927 359.118C187.553 337.33 215.293 315.686 243.146 294.187C295.684 253.172 348.447 212.447 401.434 172.014L450.252 134.718C470.066 119.612 480.266 108.34 506.276 105.695Z"/><path fill="#B14621" d="M504.812 520.21C507.048 519.948 509.898 519.96 512.219 519.97C559.338 520.176 601.423 555.65 612.441 600.963C616.045 615.784 615.182 633.476 615.222 648.845L615.213 703.93L615.07 877.086L518.875 877.014L408.978 877.076C408.011 819.29 408.727 759.883 408.743 702.032L408.746 649.733C408.75 634.589 408.082 618.009 411.005 603.271C414.534 585.82 422.487 569.569 434.103 556.076C452.029 535.274 477.438 522.386 504.812 520.21Z"/><path fill="#050202" d="M574.235 680.081C581.421 678.439 588.933 680.823 593.858 686.309C598.783 691.794 600.346 699.519 597.941 706.488C595.536 713.456 589.541 718.573 582.282 719.854C571.438 721.767 561.046 714.684 558.862 703.892C556.679 693.099 563.5 682.533 574.235 680.081Z"/><path fill="#5F240C" d="M576.757 681.477C586.928 680.311 596.106 687.64 597.22 697.816C598.334 707.993 590.958 717.134 580.776 718.195C570.668 719.25 561.607 711.939 560.501 701.836C559.395 691.733 566.66 682.635 576.757 681.477Z"/><path fill="#B14621" d="M677.741 176.148L769.223 175.949C769.7 210.979 768.971 247.072 768.997 282.297C766.563 281.302 754.382 271.622 751.466 269.528C726.623 251.773 702.101 233.573 677.913 214.936C677.761 202.319 677.395 188.685 677.741 176.148Z"/><path fill="#B14621" d="M672.373 132.164C688.637 131.043 713.617 131.819 730.749 131.832L755.334 131.856C764.017 131.866 773.984 131 781.429 136.153C791.026 142.796 795.624 156.928 788.486 166.95C784.553 172.473 778.049 173.488 771.891 174.456C750.684 174.814 729.472 174.93 708.262 174.806C697.906 174.807 670.673 176.223 662.629 171.857C657.585 169.165 653.876 164.509 652.38 158.991C648.584 144.525 659.46 135.215 672.373 132.164Z"/></svg>