<?xml version="1.0" encoding="utf-8" ?><svg xmlns="http://www.w3.org/2000/svg" xmlns:xlink="http://www.w3.org/1999/xlink" width="1024" height="1024" viewBox="0 0 1024 1024"><path fill="white" d="M0 0L1024 0L1024 1024L0 1024L0 0Z"/><path fill="#F7AC65" d="M540.111 98.8386C546.65 97.3515 563.391 103.878 569.064 107.512C609.857 133.645 598.716 183.065 596.48 224.199L588.019 379.25C587.403 389.521 581.328 462.885 582.938 466.921C599.812 462.569 598.973 449.986 601.034 435.372L605.277 404.413C608.979 376.457 612.987 348.542 617.3 320.674C618.902 312.009 620.076 301.349 621.335 292.497C624.449 270.941 627.447 249.369 630.332 227.781C631.954 216.176 634.088 196.732 637.464 186.355C640.598 176.685 645.76 167.796 652.604 160.281C662.681 149.354 676.905 142.101 691.863 141.454C699.826 140.3 705.46 142.869 712.557 146.097C731.737 154.821 744.453 174.639 746.887 195.295C748.966 212.936 743.84 231.744 740.474 249.164L732.855 289.07L708.185 414.32L699.42 457.204C698.335 462.348 692.76 484.729 693.968 488.192C702.923 492.307 711.646 489.642 715.332 480.198C720.34 467.37 723.729 453.74 727.627 440.51L758.026 338.124L766.062 311.501C773.905 285.47 779.059 268.575 807.442 259.578C809.894 259.295 811.994 258.579 814.65 258.346C819.48 257.14 827.448 259.33 832.086 261.079C847.191 266.773 857.472 280.508 861.063 295.932C862.692 303.235 862.995 310.771 861.959 318.181C860.877 326.396 858.24 336.047 856.205 344.198C853.157 356.463 850.046 368.712 846.872 380.945L817.943 494.605L807.141 536.056C805.374 542.837 802.005 554.286 801.011 560.75C799.508 570.513 798.838 582.783 797.886 592.832L790.22 671.784C787.228 699.944 786.211 726.729 776.057 753.324C774.256 758.04 772.535 764.75 770.227 769.159C750.227 815.315 712.102 851.515 667.133 872.586C587.888 909.719 491.8 900.796 417.822 855.344C379.55 831.829 345.267 797.79 320.344 760.156C305.609 737.907 297.076 714.469 283.11 691.823C263.439 659.77 239.954 630.22 213.17 603.82C201.831 592.57 189.976 581.537 176.313 573.091C168.293 568.133 158.2 562.32 149.365 559.22C144.392 557.475 138.215 556.606 133.214 554.748C129.126 553.228 128.415 551.678 126.734 547.977C122.883 511.24 165.622 482.17 197.665 479.481C254.715 474.695 301.043 521.42 331.371 564.142C334.826 569.01 341.457 573.461 344.58 577.569C350.069 575.656 356.091 571.133 359.575 566.511C375.906 544.848 368.93 515.495 365.058 490.884C361.942 470.784 358.705 450.702 355.347 430.64C344.91 366.479 334.992 302.234 325.595 237.912C322.868 217.912 324.734 200.093 337.156 183.295C344.774 172.994 358.149 163.44 371.127 161.784C378.209 160.12 389.644 162.333 396.374 164.897C416.764 172.667 431.02 190.155 435.505 211.397C437.151 219.193 438.216 227.242 439.385 235.14C441.775 251.953 444.067 268.781 446.262 285.621C452.424 330.427 459.184 375.124 464.917 420C465.763 426.623 470.906 469.786 472.639 472.925C473.451 472.225 474.239 471.499 475.003 470.746C484.817 460.92 483.963 447.522 483.441 434.598C482.251 405.075 481.965 375.633 481.537 346.101L480.359 228.303C480.113 213.905 479.984 199.505 479.972 185.105C479.949 175.872 479.408 165.737 480.805 156.662C485.377 126.959 504.032 104.673 533.947 99.3458C536.229 98.9917 537.804 98.9534 540.111 98.8386Z"/><path fill="#CA8234" d="M126.734 547.977C126.866 544.531 127.848 541.165 130.775 539.05C148.637 526.144 184.137 529.247 198.877 545.788C208.89 557.025 203.77 570.057 188.494 571.31C210.833 577.417 226.601 585.893 244.877 599.659C263.373 613.59 275.916 628.964 290.553 646.64C299.273 657.101 307.933 667.611 316.535 678.169C322.204 685.271 327.556 692.587 333.57 699.411C397.682 772.155 480.443 825.843 579.435 829.529C633.457 831.582 686.99 818.61 734.081 792.056C742.112 787.426 750.206 782.413 757.959 777.3C760.453 775.655 768.12 769.511 770.227 769.159C750.227 815.315 712.102 851.515 667.133 872.586C587.888 909.719 491.8 900.796 417.822 855.344C379.55 831.829 345.267 797.79 320.344 760.156C305.609 737.907 297.076 714.469 283.11 691.823C263.439 659.77 239.954 630.22 213.17 603.82C201.831 592.57 189.976 581.537 176.313 573.091C168.293 568.133 158.2 562.32 149.365 559.22C144.392 557.475 138.215 556.606 133.214 554.748C129.126 553.228 128.415 551.678 126.734 547.977Z"/><path fill="#F08625" d="M344.58 577.569C350.069 575.656 356.091 571.133 359.575 566.511C375.906 544.848 368.93 515.495 365.058 490.884C361.942 470.784 358.705 450.702 355.347 430.64C344.91 366.479 334.992 302.234 325.595 237.912C322.868 217.912 324.734 200.093 337.156 183.295C344.774 172.994 358.149 163.44 371.127 161.784L371.304 162.754C369.394 164.18 367.56 165.004 365.783 166.315C360.636 170.112 353.635 177.294 350.574 182.922C348.46 185.419 346.515 189.364 345.252 192.398C340.288 200.792 337.944 218.964 338.905 228.518C340.054 239.93 343.559 254.079 346.176 265.484L358.261 318.377L382.747 425.926C387.004 444.43 389.887 462.536 396.603 480.247C402.562 497.594 399.946 516.633 402.509 534.435C404.287 546.789 414.428 563.782 426.092 569.039C475.584 591.342 518.045 629.969 539.31 680.516C543.924 691.486 546.095 701.481 548.282 713.015C547.916 714.242 547.778 714.708 547.229 715.868C522.573 654.974 461.401 613.108 399.158 599.028C389.71 596.891 344.689 588.95 344.58 577.569Z"/><path fill="#F08625" d="M693.968 488.192C702.923 492.307 711.646 489.642 715.332 480.198C720.34 467.37 723.729 453.74 727.627 440.51L758.026 338.124L766.062 311.501C773.905 285.47 779.059 268.575 807.442 259.578C808.229 260.341 808.623 260.69 809.471 261.39C778.883 278.31 778.928 306.954 771.941 338.199C764.13 373.13 756.919 408.451 749.665 443.518L743.379 473.952C739.479 492.686 736.454 515.904 709.711 509.67C702.765 508.051 691.403 494.806 693.968 488.192Z"/><path fill="#F08625" d="M481.537 346.101L480.359 228.303C480.113 213.905 479.984 199.505 479.972 185.105C479.949 175.872 479.408 165.737 480.805 156.662C485.377 126.959 504.032 104.673 533.947 99.3458C535.578 99.854 537.127 99.6323 537.466 101.164C527.719 104.659 520.343 108.706 513.286 116.37C493.288 138.09 493.873 162.769 494.67 190.297L495.989 231.36C496.982 271.318 498.201 311.271 499.647 351.216C500.07 362.755 500.419 374.296 500.694 385.839C500.85 391.651 501.309 400.895 500.844 406.413C497.533 397.143 488.338 350.81 484.733 347.057C483.798 346.084 482.796 346.115 481.537 346.101Z"/><path fill="#CA8234" d="M617.3 320.674C619.083 320.912 619.916 320.823 621.21 322.047C623.554 326.348 623.521 373.626 624.204 381.808C624.578 386.283 623.905 397.364 625.186 402.267C624.274 411.795 624.306 421.423 624.661 431.277C625.316 447.334 630.999 468.814 616.864 480.925C610.957 485.986 598.893 486.863 592.049 483.611C588.075 481.723 579.828 471.756 582.359 467.165L582.938 466.921C599.812 462.569 598.973 449.986 601.034 435.372L605.277 404.413C608.979 376.457 612.987 348.542 617.3 320.674Z"/><path fill="#F08625" d="M617.3 320.674C618.902 312.009 620.076 301.349 621.335 292.497C624.449 270.941 627.447 249.369 630.332 227.781C631.954 216.176 634.088 196.732 637.464 186.355C640.598 176.685 645.76 167.796 652.604 160.281C662.681 149.354 676.905 142.101 691.863 141.454C693.299 141.52 695.591 141.54 696.887 141.886C695.278 142.592 695.244 142.253 693.724 142.109C690.307 141.784 681.587 143.656 678.344 144.637C677.97 146.815 677.865 147.178 676.915 149.17C680.468 148.968 689.165 142.997 692.978 143.417L693.155 143.591L692.304 144.52C688.995 144.428 687.08 145.673 684.206 146.983C654.579 160.487 649.094 193.214 645.785 221.486L641.875 255.142C636.265 303.396 631.777 354.655 625.186 402.267C623.905 397.364 624.578 386.283 624.204 381.808C623.521 373.626 623.554 326.348 621.21 322.047C619.916 320.823 619.083 320.912 617.3 320.674Z"/><path fill="#CA8234" d="M481.537 346.101C482.796 346.115 483.798 346.084 484.733 347.057C488.338 350.81 497.533 397.143 500.844 406.413C502.072 412.791 505.23 419.256 507.379 425.501C512.386 439.867 518.886 458.706 510.177 472.93C505.554 480.482 493.467 485.303 485.237 487.354C477.677 489.239 469.013 483.605 464.228 478.11C466.433 476.832 470.832 474.439 472.639 472.925C473.451 472.225 474.239 471.499 475.003 470.746C484.817 460.92 483.963 447.522 483.441 434.598C482.251 405.075 481.965 375.633 481.537 346.101Z"/><path fill="#CA8234" d="M807.442 259.578C809.894 259.295 811.994 258.579 814.65 258.346L814.118 258.954C813.178 260.096 810.831 260.879 809.471 261.39C808.623 260.69 808.229 260.341 807.442 259.578Z"/><path fill="#CA8234" d="M533.947 99.3458C536.229 98.9917 537.804 98.9534 540.111 98.8386C542.115 99.8986 538.115 101.031 537.466 101.164C537.127 99.6323 535.578 99.854 533.947 99.3458Z"/><path fill="#CA8234" d="M548.282 713.015C548.427 713.807 549.818 719.39 548.485 719.135L548.598 718.934L548.586 718.923L548.643 718.594L548.049 718.554C547.736 717.674 547.51 716.759 547.229 715.868C547.778 714.708 547.916 714.242 548.282 713.015Z"/><path fill="#F8C292" d="M694.354 149.131C722.383 147.487 738.093 171.796 736.251 198.043C736.114 200.007 735.792 201.274 734.25 202.48C729.543 201.544 723.915 180.421 711.278 173.222L710.655 172.874C694.896 165.862 681.117 169.915 667.169 179.424C663.878 181.667 658.795 187.55 655.5 187.607L655.084 186.782C655.427 181.801 660.631 172.575 663.706 168.587C671.644 158.293 681.379 150.99 694.354 149.131Z"/><path fill="#F8C292" d="M542.095 104.683C559.49 103.208 576.072 117.381 581.274 133.206C582.459 136.811 586.639 149.637 584.106 152.795L583.023 152.905C579.165 150.911 576.711 144.728 573.867 140.879C567.276 131.957 559.069 126.348 548.113 124.549C516.474 123.188 509.741 147.999 503.027 149.703C498.803 146.055 509.874 125.148 512.868 121.317C520.8 111.168 529.548 106.352 542.095 104.683Z"/><path fill="#F8C292" d="M354.12 181.806C361.428 175.067 368.496 170.12 378.663 168.848C398.461 166.37 423.288 183.402 425.034 203.919C425.155 205.362 424.228 206.914 423.286 207.975C419.891 208.703 414.786 200.325 412.358 197.509C402.615 186.209 388.929 181.844 374.308 183.829C356.643 186.416 353.266 195.253 342.967 205.784C344.942 198.534 346.703 194.45 349.946 187.64C351.322 185.685 352.714 183.74 354.12 181.806Z"/></svg>