<?xml version="1.0" encoding="utf-8" ?><svg xmlns="http://www.w3.org/2000/svg" xmlns:xlink="http://www.w3.org/1999/xlink" width="1024" height="1024" viewBox="0 0 1024 1024"><path fill="white" d="M0 0L1024 0L1024 1024L0 1024L0 0Z"/><path fill="#19C64F" d="M846.132 125.707C904.163 121.892 959.027 205.32 952.218 258.242C947.732 293.103 927.527 302.776 901.915 320.333C890.785 328.062 879.7 335.856 868.661 343.715C856.733 352.313 843.929 362.552 832.664 372.03C744.518 446.199 671.605 537.075 614.919 637.287C589.612 681.854 567.695 728.262 549.354 776.119C539.833 800.756 532.427 826.165 521.99 850.309C517.711 858.932 510.25 867.079 503.056 873.162C462.619 907.355 380.947 907.481 347.207 863.543C335.03 847.686 331.476 826.716 324.899 808.259C319.383 792.778 313.202 777.639 307.311 762.312C279.835 696.789 239.32 627.797 193.881 572.958C178.346 553.625 161.814 535.115 144.35 517.505C134.738 507.858 124.815 498.527 114.597 489.525C100.715 477.084 83.6895 465.68 75.9914 448.036C64.4962 421.892 77.064 394.547 91.1976 372.2C120.856 325.305 200.093 273.518 251.775 315.896C265.198 326.903 278.342 342.519 289.408 356.182C327.887 403.836 361.273 455.387 389.018 509.993C399.575 530.93 409.439 552.211 418.594 573.798C423.527 585.667 427.825 597.569 432.627 609.366C437.945 597.1 442.859 584.281 448.352 572.14C454.896 557.68 462.139 542.737 469.403 528.614C485.199 498.359 502.446 468.883 521.083 440.291C526.103 432.634 531.623 425.05 536.794 417.452C564.555 376.641 594.481 337.345 626.443 299.732C668.089 251.593 782.427 130.314 846.132 125.707Z"/></svg>