<?xml version="1.0" encoding="utf-8" ?><svg xmlns="http://www.w3.org/2000/svg" xmlns:xlink="http://www.w3.org/1999/xlink" width="1024" height="1024" viewBox="0 0 1024 1024"><path fill="white" d="M0 0L1024 0L1024 1024L0 1024L0 0Z"/><path fill="#EE4927" d="M410.676 256.35C409.442 243.762 408.395 226.806 410.764 214.538C431.752 105.859 565.474 72.0107 632.582 163.609C644.75 180.029 651.926 199.61 653.25 220.005C653.658 227.189 652.395 236.497 651.572 243.775L648.319 272.317L636.717 374.095L613.571 577.057L607.75 626.443C606.492 637.589 605.486 649.249 603.789 660.28C627.466 636.795 652.852 614.552 676.699 591.185C689.402 578.738 699.951 573.704 717.65 572.798C718.894 572.574 723.144 572.501 724.324 572.914C745.319 572.942 761.964 573.521 778.007 589.656C788.73 600.424 794.658 615.061 794.452 630.257C794.42 640.186 791.712 649.924 786.613 658.444C782.865 664.579 778.097 669.887 773.318 675.212C737.584 715.033 703.121 756.306 666.799 795.578C643.249 820.86 618.994 845.476 594.062 869.397C570.101 892.465 552.341 914.653 515.854 913.506C494.35 912.83 475.336 904.403 460.537 888.704C450.378 877.926 441.4 868.02 429.885 858.765C425.031 854.864 418.59 847.547 414.131 842.943C373.894 800.749 334.3 757.946 295.364 714.549L269.281 685.52C263.235 678.762 255.78 670.994 251.126 663.356C245.255 653.861 242.299 642.853 242.625 631.695C243.666 597.593 272.749 571.141 306.803 572.726C317.621 573.121 328.132 576.427 337.228 582.295C347.213 588.744 368.881 612.542 377.944 621.991L427.218 672.605C429.543 675.006 441.259 687.442 443.19 688.138L443.664 686.98C443.068 684.779 443.083 684.357 443.137 681.923C441.81 656.575 441.119 629.803 440.323 604.378C440.029 603.363 440.113 602.867 440.127 601.793L439.782 596.219C425.516 588.967 420.585 580.483 409.685 570.353C378.295 541.179 363.977 512.104 380.68 469.361C372.46 460.82 368.884 454.882 364.622 443.774C360.337 454.204 356.965 465.544 353.138 476.178C351.023 482.055 349.225 488.75 346.103 494.138C344.095 497.584 341.49 500.645 338.409 503.179C329.507 510.494 320.049 511.105 309.127 509.97C311.61 518.297 312.159 526.422 306.86 533.992C303.122 539.245 297.437 542.783 291.073 543.815C284.298 544.915 277.366 543.234 271.847 539.153C266.858 535.461 263.616 529.872 262.887 523.709C260.971 508.4 272.178 497.243 287.035 495.79C276.987 484.07 277.346 469.693 284.57 456.843C298.466 432.127 311.274 405.742 325.903 381.543C299.875 373.911 281.29 356.719 270.964 331.777C264.792 335.64 249.878 347.031 241.525 344.899C230.669 342.129 226.095 327.262 234.527 319.27C240.181 313.91 252.436 307.531 260.076 303.318C257.695 292.344 257.574 281 259.72 269.978C263.684 250.17 276.455 232.269 293.218 221.201C310.703 209.683 332.111 205.75 352.547 210.301C381.081 216.361 395.655 233.194 410.676 256.35Z"/><path fill="#180705" d="M410.676 256.35C409.442 243.762 408.395 226.806 410.764 214.538C431.752 105.859 565.474 72.0107 632.582 163.609C644.75 180.029 651.926 199.61 653.25 220.005C653.658 227.189 652.395 236.497 651.572 243.775L648.319 272.317L636.717 374.095L613.571 577.057L607.75 626.443C606.492 637.589 605.486 649.249 603.789 660.28C627.466 636.795 652.852 614.552 676.699 591.185C689.402 578.738 699.951 573.704 717.65 572.798C718.038 572.934 718.528 573.076 718.882 573.275C718.483 573.489 718.048 573.733 717.651 573.967C694.211 575.107 686.264 583.627 670.019 599.121L647.028 621.029L551.522 711.476C552.866 697.56 554.936 683.782 556.641 669.907C560.44 638.117 564.423 606.348 568.592 574.604C578.402 495.791 587.737 416.92 596.599 337.995C599.721 310.639 602.624 283.258 605.305 255.855C606.884 239.503 609.488 222.331 608.084 206.113C606.254 183.877 595.757 161.251 581.867 144.079C572.989 133.103 549.942 112.387 535.163 111.781C473.745 109.262 415.923 160.962 411.131 222.179C409.795 239.255 411.923 258.049 413.503 275.028L419.138 335.448L427.286 430.911C428.307 444.109 428.864 457.183 429.927 470.514C433.341 513.352 439.182 557.866 441.231 600.609C440.906 601.518 441.046 601.716 440.127 601.793L439.782 596.219C425.516 588.967 420.585 580.483 409.685 570.353C378.295 541.179 363.977 512.104 380.68 469.361C372.46 460.82 368.884 454.882 364.622 443.774C360.337 454.204 356.965 465.544 353.138 476.178C351.023 482.055 349.225 488.75 346.103 494.138C344.095 497.584 341.49 500.645 338.409 503.179C329.507 510.494 320.049 511.105 309.127 509.97C311.61 518.297 312.159 526.422 306.86 533.992C303.122 539.245 297.437 542.783 291.073 543.815C284.298 544.915 277.366 543.234 271.847 539.153C266.858 535.461 263.616 529.872 262.887 523.709C260.971 508.4 272.178 497.243 287.035 495.79C276.987 484.07 277.346 469.693 284.57 456.843C298.466 432.127 311.274 405.742 325.903 381.543C299.875 373.911 281.29 356.719 270.964 331.777C264.792 335.64 249.878 347.031 241.525 344.899C230.669 342.129 226.095 327.262 234.527 319.27C240.181 313.91 252.436 307.531 260.076 303.318C257.695 292.344 257.574 281 259.72 269.978C263.684 250.17 276.455 232.269 293.218 221.201C310.703 209.683 332.111 205.75 352.547 210.301C381.081 216.361 395.655 233.194 410.676 256.35Z"/><path fill="#EE4927" d="M541.377 111.84C543.786 111.943 545.813 112.095 548.206 112.5C582.447 118.032 612.957 137.272 632.707 165.784C644.003 181.979 651.086 200.464 651.992 220.285C652.363 228.392 651.21 236.854 650.341 244.957L646.669 277.524L634.557 382.563L612.172 579.576L606.597 626.91C605.55 636.518 604.531 650.034 602.887 659.34C601.976 662.961 583.048 680.114 579.072 683.747C570.639 691.454 561.614 700.998 552.898 708.183C554.336 699.787 554.965 690.92 556.354 682.496C556.718 680.284 557.183 673.311 557.789 671.662C560.54 637.786 567.036 598.2 571.18 564.004L597.685 338.893C600.861 311.703 603.76 284.482 606.383 257.233C607.567 245.297 610.081 226.245 609.914 215.119C609.709 200.474 606.549 186.021 600.623 172.626C589.389 146.605 568.076 122.413 541.377 111.84Z"/><path fill="#C52407" d="M557.789 671.662C557.866 671.905 558.059 672.76 558.315 672.979C564.634 673.947 595.055 658.091 602.887 659.34C601.976 662.961 583.048 680.114 579.072 683.747C570.639 691.454 561.614 700.998 552.898 708.183C554.336 699.787 554.965 690.92 556.354 682.496C556.718 680.284 557.183 673.311 557.789 671.662Z"/><path fill="#A4C76B" d="M418.33 342.083C418.507 346.775 419.272 351.491 419.468 356.304C422.276 380.923 423.279 406.555 426.088 430.658C405.04 437.536 391.804 448.587 381.327 468.093C369.008 455.925 363.109 440.666 361.904 423.486C361.684 420.349 361.905 412.021 361.243 409.761L360.626 409.995L360.005 412.374C360.525 425.307 360.696 429.735 364.16 442.327C360.533 451.033 356.141 462.65 353.408 471.636C345.705 496.972 338.57 512.042 308.509 508.64C296.402 496.005 285 500.567 280.985 480.82C280.218 475.193 280.758 469.465 282.564 464.081C284.186 459.353 288.395 452.048 290.869 447.514L303.989 423.549L318.189 397.673C320.971 392.581 323.998 386.518 327.176 381.779C331.573 382.821 335.744 383.434 340.196 384.132C373.473 385.426 401.536 371.124 418.33 342.083Z"/><path fill="#80AE56" d="M280.985 480.82C293.883 486.489 305.568 486.689 317.86 479.642C329.033 473.237 333.745 462.366 339.441 451.481L351.743 428.068C354.286 423.13 356.966 416.874 360.005 412.374C360.525 425.307 360.696 429.735 364.16 442.327C360.533 451.033 356.141 462.65 353.408 471.636C345.705 496.972 338.57 512.042 308.509 508.64C296.402 496.005 285 500.567 280.985 480.82Z"/><path fill="#80AE56" d="M418.33 342.083C418.507 346.775 419.272 351.491 419.468 356.304C416.118 360.17 413.135 363.774 409.539 367.476C394.057 383.413 361.304 392.021 340.196 384.132C373.473 385.426 401.536 371.124 418.33 342.083Z"/><path fill="#FBA221" d="M272.17 331.01C305.147 311.292 338.007 291.378 370.747 271.268C381.666 264.539 395.272 256.998 405.614 250.035C406.761 251.803 409.321 255.781 409.767 257.633C412.321 268.225 413.153 282.967 414.04 293.955C415.672 305.031 417.741 329.44 418.121 340.622C403.725 362.238 390.241 374.765 363.555 381.15C356.572 382.821 342.577 383.641 335.534 382.051C327.519 381.131 319.729 378.811 312.516 375.198C294.947 366.58 278.528 349.719 272.17 331.01Z"/><path fill="#CE820D" d="M414.04 293.955C415.672 305.031 417.741 329.44 418.121 340.622C403.725 362.238 390.241 374.765 363.555 381.15C356.572 382.821 342.577 383.641 335.534 382.051C336.739 381.031 346.621 377.856 348.754 377.015C380.646 364.438 403.495 338.696 411.404 305.269C412.3 301.481 413.936 297.967 414.04 293.955Z"/><path fill="#180705" d="M309.827 333.88C314.481 333.271 319.101 335.216 321.92 338.969C324.738 342.722 325.316 347.701 323.434 352C321.552 356.3 317.501 359.252 312.832 359.727C305.754 360.448 299.41 355.351 298.589 348.284C297.768 341.218 302.773 334.802 309.827 333.88Z"/><path fill="#F27B85" d="M308.661 335.331C314.925 333.733 321.309 337.47 322.983 343.714C324.657 349.959 320.998 356.388 314.774 358.138C310.681 359.288 306.284 358.149 303.265 355.155C300.246 352.16 299.07 347.774 300.186 343.671C301.303 339.567 304.54 336.382 308.661 335.331Z"/><path fill="#180705" d="M385.55 285.833C392.508 284.446 399.281 288.936 400.713 295.885C402.145 302.834 397.699 309.636 390.759 311.112C383.756 312.602 376.879 308.106 375.434 301.094C373.989 294.082 378.528 287.233 385.55 285.833Z"/><path fill="#F27B85" d="M384.697 287.331C390.905 285.46 397.449 289 399.28 295.219C401.112 301.439 397.53 307.96 391.299 309.752C385.124 311.527 378.674 307.985 376.859 301.821C375.044 295.658 378.545 289.185 384.697 287.331Z"/><path fill="#180705" d="M350.844 298.71C352.746 298.045 354.859 298.489 356.334 299.862C357.808 301.235 358.4 303.312 357.873 305.256C357.345 307.201 355.784 308.693 353.818 309.132C351.011 309.76 348.203 308.089 347.414 305.324C346.625 302.559 348.129 299.658 350.844 298.71Z"/><path fill="#180705" d="M321.888 313.686C323.665 313.046 325.649 313.414 327.078 314.65C328.507 315.885 329.158 317.795 328.781 319.646C328.405 321.497 327.059 323 325.261 323.579C322.546 324.452 319.633 322.989 318.713 320.29C317.793 317.591 319.206 314.653 321.888 313.686Z"/><path fill="#180705" d="M357.403 318.904C366.683 323.553 354.457 349.038 338.728 331.394C336.503 325.902 342.464 333.56 342.599 333.664C349.939 339.35 359.715 334.554 358.992 324.992C358.802 322.472 357.751 321.273 357.403 318.904Z"/><path fill="#025DB3" d="M261.431 303.102C258.148 294.169 259.005 277.79 261.121 268.605C270.211 229.149 311.284 201.758 351.289 211.31C373.249 214.666 390.37 229.402 403.136 246.697C403.697 247.46 404.244 248.234 404.775 249.018C399.65 253.129 387.424 259.761 381.307 263.467L337 290.555L274.334 328.413C266.989 332.772 259.88 337.369 252.447 341.626C241.492 347.9 233.888 341.717 231.1 330.409C230.779 329.737 230.779 329.733 231.235 329.139C232.178 318.063 244.624 314.071 252.749 308.923C255.151 307.401 259.777 305.209 261.431 303.102Z"/><path fill="#0680DA" d="M261.431 303.102C258.148 294.169 259.005 277.79 261.121 268.605C270.211 229.149 311.284 201.758 351.289 211.31C339.265 249.737 308.586 278.143 273.696 296.159C270.104 298.014 264.422 300.713 261.431 303.102Z"/><path fill="#06346D" d="M231.1 330.409C230.779 329.737 230.779 329.733 231.235 329.139C231.255 329.852 231.297 329.793 231.1 330.409Z"/><path fill="#FED04C" d="M367.991 237.353C373.721 235.938 379.516 239.422 380.954 245.146C382.392 250.87 378.932 256.68 373.214 258.141C367.463 259.611 361.613 256.126 360.166 250.369C358.72 244.612 362.228 238.776 367.991 237.353Z"/><path fill="#F27B85" d="M425.196 431.943L425.579 432.071C426.63 433.448 427.024 447.335 427.206 450.247C428.367 466.528 429.759 482.793 431.379 499.035C432.868 515.593 434.184 532.719 436.04 549.192C420.067 552.019 409.13 552.499 392.913 550.799C392.074 550.088 391.001 548.756 390.241 547.888C385.823 541.685 383.035 536.851 380.18 529.699C372.613 510.731 373.055 489.506 381.406 470.869C390.377 450.478 405.102 439.746 425.196 431.943Z"/><path fill="#FBA221" d="M284.642 497.126C285.193 497.077 288.09 496.848 288.493 497.089C297.934 502.733 308.52 503.984 309.665 517.004C310.91 531.158 303.153 540.584 289.351 542.868C283.476 543.473 277.583 541.897 272.795 538.44C256.348 526.654 263.639 500.828 284.642 497.126Z"/><path fill="#F27B85" d="M433.931 550.699C433.986 550.686 435.806 550.169 435.862 550.641C437.593 565.168 438.761 580.056 439.706 594.675C430.552 590.16 424.581 584.163 417.841 576.684L393.743 551.871C405.142 552.927 412.375 553.378 424.001 552.066C427.323 551.698 430.634 551.242 433.931 550.699Z"/><path fill="#180705" d="M724.324 572.914C745.319 572.942 761.964 573.521 778.007 589.656C788.73 600.424 794.658 615.061 794.452 630.257C794.42 640.186 791.712 649.924 786.613 658.444C782.865 664.579 778.097 669.887 773.318 675.212C737.584 715.033 703.121 756.306 666.799 795.578C643.249 820.86 618.994 845.476 594.062 869.397C570.101 892.465 552.341 914.653 515.854 913.506C494.35 912.83 475.336 904.403 460.537 888.704C450.378 877.926 441.4 868.02 429.885 858.765C425.031 854.864 418.59 847.547 414.131 842.943C373.894 800.749 334.3 757.946 295.364 714.549L269.281 685.52C263.235 678.762 255.78 670.994 251.126 663.356C245.255 653.861 242.299 642.853 242.625 631.695C243.666 597.593 272.749 571.141 306.803 572.726C317.621 573.121 328.132 576.427 337.228 582.295C347.213 588.744 368.881 612.542 377.944 621.991L427.218 672.605C429.543 675.006 441.259 687.442 443.19 688.138L443.664 686.98L444.571 688.181L444.731 690.478L444.127 691.075C442.43 690.416 397.138 643.678 391.34 637.668L362.758 607.899C344.638 589.066 334.227 575.438 306.253 573.93C260.469 571.462 228.42 621.734 251.333 661.724C255.847 669.601 264.574 678.432 270.755 685.304L295.636 713.024C334.018 755.845 373.036 798.091 412.677 839.749C435.661 863.752 448.446 876.896 483.899 877.356C517.522 877.792 531.836 867.645 555.413 847.063C569.011 835.144 582.33 822.91 595.359 810.37C637 770.099 671.732 729.841 709.096 685.793C716.563 677.014 723.986 668.197 731.364 659.343C742.467 645.919 751.223 636.313 751.546 617.907C751.484 616.894 751.482 616.627 751.532 615.614C751.84 597.969 742.589 583.726 728.441 573.981C726.22 573.556 726.34 573.806 724.324 572.914Z"/><path fill="#EE4927" d="M731.009 573.972C736.81 574.267 743.494 574.398 749.134 575.429C772.438 579.685 791.822 601.432 793.151 625.158C793.024 626.677 792.973 632.447 793.226 633.809C790.206 658.377 779.105 666.576 763.496 684.353C721.609 732.062 680.508 780.633 636.138 826.086C622.127 840.293 607.927 854.314 593.544 868.144C581.925 879.461 568.018 894.65 554.453 902.64C526.814 918.92 488.519 914.251 465.573 891.839C458.033 884.476 451.162 876.584 443.672 869.206C453.846 872.998 460.312 876.043 471.138 877.614C492.944 880.763 521.853 876.661 539.414 862.238C603.326 809.746 658.556 747.917 711.414 684.783C718.775 676.165 726.091 667.509 733.362 658.815C744.435 645.44 750.254 638.503 752.691 620.722C753.078 617.668 753.144 614.456 752.573 611.42C750.495 593.564 744.21 585.212 731.009 573.972Z"/><path fill="#6D130B" d="M752.573 611.42C753.144 614.456 753.078 617.668 752.691 620.722C752.631 620.259 752.469 617.268 752.171 617.139C751.896 617.306 751.722 617.66 751.546 617.907C751.484 616.894 751.482 616.627 751.532 615.614C751.68 615.816 751.913 616.201 752.151 616.344L752.214 616.311C752.508 615.841 752.509 612.262 752.573 611.42Z"/><path fill="#6D130B" d="M793.151 625.158C793.947 626.123 793.853 632.893 793.226 633.809C792.973 632.447 793.024 626.677 793.151 625.158Z"/><path fill="#180705" d="M440.323 604.378C440.432 604.143 440.51 603.762 440.759 603.666C440.987 603.891 441.235 604.124 441.483 604.338C442.02 627.541 444.128 654.027 444.114 676.878C443.918 679.066 444.29 680.136 443.137 681.923C441.81 656.575 441.119 629.803 440.323 604.378Z"/><path fill="#420D08" d="M717.65 572.798C718.894 572.574 723.144 572.501 724.324 572.914C726.34 573.806 726.22 573.556 728.441 573.981C725.238 574.114 720.965 573.973 717.651 573.967C718.048 573.733 718.483 573.489 718.882 573.275C718.528 573.076 718.038 572.934 717.65 572.798Z"/><path fill="#420D08" d="M444.114 676.878C444.579 680.521 444.486 684.481 444.571 688.181L443.664 686.98C443.068 684.779 443.083 684.357 443.137 681.923C444.29 680.136 443.918 679.066 444.114 676.878Z"/><path fill="#420D08" d="M441.231 600.609C441.506 601.855 441.474 603.065 441.483 604.338C441.235 604.124 440.987 603.891 440.759 603.666C440.51 603.762 440.432 604.143 440.323 604.378C440.029 603.363 440.113 602.867 440.127 601.793C441.046 601.716 440.906 601.518 441.231 600.609Z"/></svg>