<?xml version="1.0" encoding="utf-8" ?><svg xmlns="http://www.w3.org/2000/svg" xmlns:xlink="http://www.w3.org/1999/xlink" width="1024" height="1024" viewBox="0 0 1024 1024"><path fill="white" d="M0 0L1024 0L1024 1024L0 1024L0 0Z"/><path fill="#100D0C" d="M517.86 54.2207C543.595 52.0022 583.32 59.1185 604.292 73.868C624.035 87.7531 632.061 99.2983 636.737 122.189C661.593 119.168 684.685 124.541 705.552 138.543C737.227 159.797 755.093 195.714 762.344 232.258C770.7 274.373 764.528 312.804 754.375 353.805C752.524 361.284 749.654 368.527 747.974 376.028C747.246 379.278 747.486 382.776 747.341 386.093C746.976 394.447 744.218 403.122 739.509 410.061C735.514 415.949 729.696 419.745 725.473 425.252C717.498 435.654 710.233 446.33 701.469 456.137C667.793 494.261 622.315 520.002 572.296 529.25C572.369 544.787 571.727 562.851 582.893 575.171C590.977 584.092 600.387 584.555 611.492 586.34C617.454 587.297 623.384 588.447 629.272 589.789C667.471 598.435 704.525 613.972 732.7 641.842C808.242 716.567 829.379 866.413 829.54 968.145C796.546 968.535 762.805 968.041 729.736 968.059L505.875 968.123L380.282 968.08C359.523 968.071 338.679 967.953 317.914 968.006C310.461 968.024 306.527 970.43 299.57 972.36C291.711 974.493 283.588 975.5 275.445 975.349C227.954 974.075 191.046 934.725 193.057 887.544C193.831 869.392 199.576 857.619 204.579 840.705C211.092 818.488 217.855 796.346 224.867 774.282C230.422 756.84 236.419 736.067 243.333 719.336C272.99 647.566 320.726 607.249 396.118 589.675C409.937 586.453 429.231 586.594 438.76 577.059C449.862 565.951 451.112 544.139 451.566 529.224C402.116 519.313 357.198 493.672 323.52 456.132C318.818 450.934 314.345 445.534 310.114 439.946C304.897 432.956 301.175 426.261 294.528 420.691C283.536 411.481 277.619 399.171 276.844 384.877C276.689 382.018 277.536 375.191 276.943 372.915C275.266 366.27 273.375 359.717 271.873 353.024C254.689 276.45 279.493 197.384 331.819 140.307C379.925 88.0249 446.869 57.0482 517.86 54.2207Z"/><path fill="#FDDE10" d="M618.582 589.131C675.618 599.479 723.068 623.569 756.313 672.182C811.261 752.529 826.901 871.496 828.279 966.751C823.592 967.44 800.378 966.962 794.522 966.96L711.842 966.828C712.158 900.005 703.412 836.07 688.804 771.03C688.28 769.328 687.924 767.404 686.661 766.259C686.075 768.004 689.365 779.762 689.999 782.626C692.888 795.251 695.443 807.949 697.661 820.709C705.376 865.102 710.885 921.682 710.453 966.719C702.4 967.618 678.83 966.978 669.823 966.968L586.595 966.956L321.796 966.839C321.064 966.832 316.399 967.123 316.596 966.086C317.048 965.62 317.41 965.557 318.05 965.368C326.866 960.304 335.339 954.975 342.928 948.174C348.961 942.767 355.17 937.501 361.383 932.301L401.24 899.442L433.868 872.607C440.724 867.008 447.775 861.557 454.207 855.477C465.05 845.228 464.731 831.191 458.868 818.504C457.938 817.56 457.025 816.694 456.223 815.638C459.948 812.643 474.976 799.433 478.102 798.369C489.191 794.592 500.838 791.573 512.084 786.047C514.851 784.718 517.461 783.086 519.868 781.182C525.626 776.71 531.02 770.924 536.634 766.17C549.938 754.907 576.22 736.084 552.218 719.334C556.291 706.204 551.636 696.58 538.191 692.605C540.513 687.693 542.153 682.767 540.489 677.353C536.529 664.472 524.67 664.266 513.929 663.946C522.849 653.745 532.41 640.967 541.222 631.528C571.551 624.871 598.249 613.34 618.582 589.131Z"/><path fill="#C19E15" d="M458.868 818.504C469.759 822.271 479.4 833.198 475.12 845.877C472.667 853.144 464.523 860.049 459.893 866.017C440.025 888.511 420.85 911.626 401.616 934.666C393.16 944.795 382.752 955.77 375.066 966.305C402.156 966.747 430.045 966.439 457.182 966.446L611.803 966.448L676.636 966.484C685.953 966.485 701.889 965.921 710.453 966.719C702.4 967.618 678.83 966.978 669.823 966.968L586.595 966.956L321.796 966.839C321.064 966.832 316.399 967.123 316.596 966.086C317.048 965.62 317.41 965.557 318.05 965.368C326.866 960.304 335.339 954.975 342.928 948.174C348.961 942.767 355.17 937.501 361.383 932.301L401.24 899.442L433.868 872.607C440.724 867.008 447.775 861.557 454.207 855.477C465.05 845.228 464.731 831.191 458.868 818.504Z"/><path fill="#B28B17" d="M321.796 966.839C321.064 966.832 316.399 967.123 316.596 966.086C317.048 965.62 317.41 965.557 318.05 965.368C319.098 966.706 320.018 966.357 321.796 966.839Z"/><path fill="#C19E15" d="M688.804 771.03C691.867 774.044 705.728 810.731 707.9 816.825C720.389 852.057 729.345 888.443 734.636 925.447C736.641 938.567 738.758 953.168 739.681 966.453L800.356 966.444C805.162 966.435 824.862 966.143 828.279 966.751C823.592 967.44 800.378 966.962 794.522 966.96L711.842 966.828C712.158 900.005 703.412 836.07 688.804 771.03Z"/><path fill="#FDDF9D" d="M638.694 600.032C654.488 601.175 681.379 611.385 694.815 619.398C723.907 636.747 748.421 666.208 765.26 695.232C781.12 722.567 792.677 753.377 799.31 784.236C800.549 790.041 803.124 798.93 801.553 804.768C800.936 807.059 799.203 807.836 797.256 808.878C785.56 809.719 786.978 790.732 785.008 781.215C775.415 736.624 754.229 695.352 723.588 661.565C712.692 649.513 695.815 634.694 681.067 627.33C671.656 622.661 661.763 619.034 651.565 616.513C642.097 614.21 627.191 613.228 638.694 600.032Z"/><path fill="#DFA387" d="M607.266 195.894C608.132 197.239 610.315 208.528 610.953 211.068C620.931 250.781 647.562 283.834 684.603 301.039C688.368 316.65 690.026 326.21 691.038 342.099C699.716 339.914 706.975 338.887 715.793 341.243C726.325 344.007 735.31 350.878 740.737 360.319C746.74 370.821 747.74 383.568 744.559 395.136C740.977 408.172 732.275 419.206 720.432 425.728C707.127 433.108 694.832 433.178 680.491 429.134C669.652 454.111 657.863 472.092 637.308 490.484C601.746 522.303 549.357 540.604 501.623 537.767C451.67 534.817 404.927 512.174 371.646 474.807C360.854 461.427 349.982 445.261 344.618 428.877C333.291 431.949 324.864 433.195 313.254 429.791C300.779 426.008 290.305 417.447 284.115 405.974C264.958 370.225 293.644 329.421 334.484 342.657C336.698 319.451 340.583 305.317 349.117 283.852C355.758 284.19 362.41 284.259 369.056 284.059C423.566 282.158 468.084 259.479 504.789 220.066C504.323 221.319 503.826 222.561 503.301 223.791C493.312 246.984 472.111 265.918 448.844 275.292C511.371 277.187 570.08 245.23 607.266 195.894Z"/><path fill="#F1CEB6" d="M659.447 425.065C668.781 424.532 670.079 429.706 666.806 437.633C657.452 460.282 631.839 488.19 608.907 497.671C604.504 498.267 598.68 496.942 599.694 490.731C600.375 486.559 607.85 483.145 611.496 481.007C629.438 470.5 645.362 454.724 653.213 435.214C654.665 431.606 656.106 427.143 659.447 425.065Z"/><path fill="#100D0C" d="M469.327 447.481C474.563 447.299 476.151 450.154 479.509 453.866C495.535 471.58 521.257 475.308 539.013 457.865C542.25 454.684 545.069 449.364 549.072 447.386C550.524 447.316 551.659 447.344 553.023 447.992C554.266 448.583 555.178 449.703 555.504 451.04C556.295 454.162 555.137 455.91 553.54 458.416C550.838 462.511 547.578 466.21 543.854 469.404C533.446 478.206 520.214 481.72 506.608 480.491C492.357 479.204 478.877 471.029 469.598 460.264C467.879 458.27 465.601 454.534 466.091 451.726C466.471 449.544 467.586 448.673 469.327 447.481Z"/><path fill="#E38759" d="M507.482 386.163C507.473 382.512 508.225 362.61 509.882 360.612C511.745 360.353 511.048 360.08 512.29 360.853C513.976 364.548 511.636 383.995 511.461 390.184C503.969 391.109 500.013 391.515 493.423 395.321C499.707 400.645 505.793 400.665 513.249 402.06C518.613 403.064 531.916 401.615 535.412 404.988C538.943 408.396 530.543 416.002 528.137 417.766C517.73 423.913 503.29 422.805 493.069 416.765C486.188 412.699 480.316 404.403 485.676 396.742C490.697 389.567 499.503 387.815 507.482 386.163Z"/><path fill="#AE7969" d="M507.482 386.163C507.473 382.512 508.225 362.61 509.882 360.612C511.745 360.353 511.048 360.08 512.29 360.853C513.976 364.548 511.636 383.995 511.461 390.184C503.969 391.109 500.013 391.515 493.423 395.321C489.488 398.924 485.276 402.539 489.808 408.177C496.129 416.04 508.741 418.387 518.25 416.965C520.035 416.695 523.33 415.292 525.156 414.649L525.709 415.259C526.482 416.133 527.307 416.948 528.137 417.766C517.73 423.913 503.29 422.805 493.069 416.765C486.188 412.699 480.316 404.403 485.676 396.742C490.697 389.567 499.503 387.815 507.482 386.163Z"/><path fill="#100D0C" d="M587.346 345.591C608.149 344.859 613.887 378.491 591.025 385.031C569.064 385.223 565.003 351.994 587.346 345.591Z"/><path fill="#100D0C" d="M432.596 345.579C435.376 345.407 438.181 345.205 440.802 346.227C450.859 350.146 454.863 364.639 450.655 374.034C448.002 379.958 445.105 382.45 439.467 384.842C416.451 387.038 412.242 353.886 432.596 345.579Z"/><path fill="#100D0C" d="M428.387 299.176C439.439 298.176 450.239 300.925 458.806 307.937C465.793 313.655 458.688 322.769 449.895 314.793C445.071 310.417 436.096 309.37 429.605 309.416C418.13 310.972 415.701 316.669 407.414 322.223C404.197 324.379 397.47 317.868 402.457 312.347C409.353 304.711 418.16 300.651 428.387 299.176Z"/><path fill="#100D0C" d="M589.137 299.208C598.716 298.572 607.355 300.829 615.492 306.415C618.054 308.174 628.136 316.676 621.668 320.891C619.033 322.608 614.233 319.586 611.989 317.691C608.192 314.484 604.9 312.582 599.98 310.836C586.468 307.331 581.05 310.849 569.954 317.763C565.581 320.488 559.727 313.564 563.957 309.434C570.832 302.721 579.77 300.036 589.137 299.208Z"/><path fill="#AE7969" d="M705.049 362.09C714.989 361.045 723.973 363.6 731.069 370.974C732.315 372.269 731.873 373.778 730.458 374.746C727.664 376.823 725.651 372.882 723.308 371.31C716.456 366.712 711.234 366.436 703.177 367.975C706.474 378.447 706.41 382.72 702.701 392.764C701.891 394.309 691.549 412.562 687.937 405.258C687.603 404.022 688.728 402.514 689.539 401.768C699.474 392.62 702.547 382.777 698.988 370.02C697.883 370.486 694.092 372.55 693.316 371.827C687.639 366.536 703.114 362.475 705.049 362.09Z"/><path fill="#AE7969" d="M314.403 362.197C316.42 362.09 318.948 362.203 321.494 362.576C323.448 362.862 338.91 367.456 333.499 371.577C332.592 372.268 329.376 371.205 328.069 370.868C327.951 371.226 327.839 371.587 327.714 371.943C321.215 390.536 338.84 401.832 338.935 405.263C338.952 405.904 338.455 406.364 338.026 406.774C337.482 407.293 336.761 407.626 335.997 407.559C334.054 407.39 331.481 403.594 330.325 402.164C329.926 401.67 329.495 401.204 329.126 400.685C328.957 400.448 328.799 400.203 328.63 399.966C328.455 399.722 328.273 399.485 328.094 399.244C320.438 388.556 320.776 380.467 323.815 368.346L323.917 367.925C316.026 366.469 306.719 366.541 301.393 372.914C296.853 378.347 293.568 373.866 296.006 370.771C300.094 365.582 307.824 362.868 314.403 362.197Z"/><path fill="#81644E" d="M513.551 55.6221C522.368 55.362 530.31 55.2248 539.135 55.6401C540.091 55.5158 540.088 55.4242 540.891 55.8376C574.589 58.2665 612.933 71.1068 629.529 102.793C633.173 109.75 634.377 116.292 635.629 123.89C681.636 116.235 721.666 143.638 743.381 182.794C763.233 218.592 767.273 258.966 763.585 299.138C762.666 309.147 760.895 322.148 758.137 331.751C742.98 308.449 728.975 308.144 702.973 305.277C690.374 303.889 670.247 292.796 660.353 285.05C631.462 261.974 612.872 228.406 608.639 191.674C601.731 200.697 597.627 206.251 589.554 214.636C554.674 251.185 506.792 272.511 456.291 273.989C473.331 264.745 489.91 250.836 499.682 233.96C501.555 230.724 508.323 218.461 507.473 215.105C507.426 215.119 494.228 228.974 492.642 230.496C480.171 242.589 466.033 252.835 450.659 260.922C409.143 282.999 365.536 287.412 319.579 278.458C308.563 276.312 298.698 273.209 287.96 269.94C299.391 221.716 317.464 176.48 350.384 138.827C391.588 91.6991 448.624 60.5278 511.109 55.84C512.09 55.3302 512.387 55.5003 513.551 55.6221Z"/><path fill="#534235" d="M511.109 55.84C512.09 55.3302 512.387 55.5003 513.551 55.6221C512.416 56.0409 512.368 55.9833 511.109 55.84Z"/><path fill="#534235" d="M539.135 55.6401C540.091 55.5158 540.088 55.4242 540.891 55.8376C539.948 55.9481 539.923 56.0638 539.135 55.6401Z"/><path fill="#DFA387" d="M522.284 63.2105C559.166 60.7901 606.883 75.0792 622.389 111.932C623.96 115.667 628.939 125.716 621.118 126.15C616.207 124.561 614.426 115.467 610.731 109.529C610.027 108.288 609.268 107.079 608.457 105.906C587.665 75.4017 537.858 68.7575 504.218 74.3781C500.963 74.9221 497.359 75.4769 494.105 74.8684C483.898 63.7918 517.095 63.5318 522.284 63.2105Z"/><path fill="#DFA387" d="M648.982 129.999C688.164 128.689 730.233 166.345 741.996 201.446C743.79 206.801 748.264 212.393 743.308 216.996C739.49 217.595 737.844 216.615 736.413 213.146C733.624 206.384 730.993 199.54 727.712 192.997C724.294 186.27 720.11 179.961 715.243 174.195C701.641 158.052 684.801 146.874 664.147 141.356C659.212 140 652.485 140.291 648.133 137.592C644.886 135.578 647.293 132.004 648.982 129.999Z"/><path fill="#DFA387" d="M749.123 242.376C756.705 243.379 754.655 251.098 755.897 257.521C756.195 259.064 754.111 261.198 752.902 262.212C747.327 261.636 746.692 260.514 746.226 254.829C745.669 248.022 743.055 246.261 749.123 242.376Z"/><path fill="#FDDE10" d="M199.893 860.114C204.161 847.744 207.722 834.402 211.509 821.85C218.021 800.329 224.738 778.87 231.657 757.477C242.588 724.04 250.985 699.924 271.462 670.535C304.406 623.253 353.456 598.339 409.457 588.539C420.769 608.54 452.542 623.079 473.995 628.77C481.513 630.764 490.753 631.953 498.512 633.078C492.105 641.178 484.962 649.531 478.356 657.526C475.539 661.701 476.515 656.694 476.78 654.591C477.096 648.571 476.962 642.579 472.539 638.13C462.533 628.066 446.204 634.238 445.1 648.509C444.391 657.665 444.637 666.496 442.373 675.329C441.121 679.788 436.479 683.88 434.434 687.99C425.234 704.062 423.733 716.087 423.254 734.177C415.747 739.854 406.626 748.017 399.498 753.041C381.758 740.75 370.867 748.485 356.524 759.673C353.826 762.622 349.574 765.936 346.43 768.522C346.89 766.544 347.548 762.927 348.208 761.153C349.828 754.196 352.435 741.546 352.22 734.668L351.95 734.347C349.501 743.155 348.201 754.741 346.339 763.925C346.091 765.62 345.854 768.577 344.719 769.655C340.285 773.869 334.999 778.119 330.285 781.988C317.398 792.442 304.435 802.802 291.396 813.067L249.061 847.112C242.664 852.31 231.496 862.542 224.731 866.498L224.146 867.567L224.524 868.171C228.898 866.712 244.697 852.386 249.053 848.817C273.089 829.122 297.677 810.094 321.794 790.503C331.924 782.275 362.84 754.858 372.137 750.908C378.744 748.1 387.06 747.421 393.567 750.841C408.477 758.677 456.23 811.631 460.578 826.52C462.639 833.577 461.489 842.363 457.841 848.731C456.325 851.378 454.261 853.704 452.049 855.792C440.007 867.16 426.069 877.17 413.28 887.759C399.103 899.591 384.843 911.322 370.499 922.951C363.81 928.468 356.629 934.855 349.859 940.118C340.255 949.247 329.04 958.642 317.042 964.316C245.192 998.297 174.529 935.36 199.893 860.114Z"/><path fill="#C19E15" d="M199.893 860.114C200.466 863.801 200.11 867.527 200.197 871.249C201.464 925.502 245.848 963.811 299.663 956.853C309.222 955.622 318.594 953.219 327.566 949.698C331.565 948.171 347.822 940.232 349.859 940.118C340.255 949.247 329.04 958.642 317.042 964.316C245.192 998.297 174.529 935.36 199.893 860.114Z"/><path fill="#C19E15" d="M346.339 763.925C346.091 765.62 345.854 768.577 344.719 769.655C340.285 773.869 334.999 778.119 330.285 781.988C317.398 792.442 304.435 802.802 291.396 813.067L249.061 847.112C242.664 852.31 231.496 862.542 224.731 866.498C225.996 860.636 232.326 851.67 236.016 846.974C264.08 811.26 306.916 785.358 346.339 763.925Z"/><path fill="#C19E15" d="M348.208 761.153C349.613 763.082 353.066 760.44 355.22 759.958L356.524 759.673C353.826 762.622 349.574 765.936 346.43 768.522C346.89 766.544 347.548 762.927 348.208 761.153Z"/><path fill="#FCCB10" d="M476.78 654.591C477.981 656.014 477.531 655.797 478.356 657.526C475.539 661.701 476.515 656.694 476.78 654.591Z"/><path fill="#DFA387" d="M534.772 596.569C539.425 596.282 542.888 596.816 546.691 599.908C549.772 602.368 551.651 606.031 551.853 609.968C552.172 616.576 548.013 621.169 544.008 625.837C532.736 638.977 522.173 652.808 510.419 665.527C514.252 665.602 518.324 665.519 522.12 665.929C539.443 667.799 543.936 679.782 535.424 693.633C549.882 696.823 554.545 704.829 551.288 718.972C549.23 718.182 546.762 717.21 544.572 717.704L544.438 718.507C549.373 720.072 553.257 720.725 556.739 724.917C561.676 730.86 560.849 740.877 555.907 746.564C551.099 752.096 544.726 756.993 539.241 761.991C532.143 768.006 525.719 774.767 518.359 780.487C511.282 785.985 500.928 789.376 492.573 792.384C488.846 793.726 479.673 795.421 476.729 797.473C469.463 802.54 462.38 808.863 455.453 814.471C451.741 809.286 447.886 804.205 443.891 799.235C431.082 783.342 416.066 767.177 400.481 754.108L424.662 734.783C425.082 715.478 427.04 703.197 437.174 686.109C439.288 682.319 443.559 678.493 444.331 674.116C445.664 666.55 445.984 657.809 446.388 650.134C446.751 643.254 449.62 637.833 456.348 635.42C459.958 634.14 463.937 634.406 467.344 636.157C478.373 641.897 478.307 660.261 469.933 667.715C468.266 669.199 464.726 673.306 463.689 675.091L464.138 675.417C470.827 672.762 516.197 611.194 526.074 602.065C529.704 598.709 529.697 598.391 534.772 596.569Z"/><path fill="#DFA387" d="M453.119 529.493C494.511 542.616 529.598 543.352 570.87 529.316L570.93 538.34C571.798 553.205 572.446 567.361 584.332 578.377C594.141 587.468 605.157 585.78 617.07 588.858C596.149 612.164 572.343 623.395 541.881 630.214C547.284 624.303 553.53 618.822 553.236 610.225C553.087 605.941 551.161 601.913 547.922 599.106C544.663 596.226 540.368 594.803 536.034 595.167C529.351 595.781 525.737 599.917 521.732 604.714C514.294 613.622 507.175 622.916 499.577 631.677C468.444 627.623 435.568 618.295 414.026 592.739C413.115 591.657 411.88 589.448 411.157 588.157C430.377 585.159 442.952 582.799 449.046 561.559C451.744 551.532 452.487 539.832 453.119 529.493Z"/><path fill="#AE7969" d="M453.119 529.493C494.511 542.616 529.598 543.352 570.87 529.316L570.93 538.34C563.546 543.173 555.725 550.895 548.541 556.448C528.579 571.879 506.218 577.083 481.466 572.482C474.292 571.144 467.277 569.056 460.539 566.252C457.888 565.158 451.374 562.141 449.046 561.559C451.744 551.532 452.487 539.832 453.119 529.493Z"/><path fill="#81644E" d="M439.613 71.0431L440.222 71.1052C439.601 72.0577 424.386 79.1463 422.093 80.38C416.818 83.2505 411.63 86.2781 406.536 89.4586C338.221 131.745 304.23 194.683 286.274 271.045C292.756 272.354 302.889 275.91 309.882 277.659C323.487 281.06 333.824 282.254 347.734 283.605C339.022 305.15 335.9 317.731 332.986 340.773C322.518 336.991 313.476 337.653 303.241 341.48C290.109 346.252 282.129 358.614 277.976 371.253C275.168 359.774 272.133 350.694 270.443 338.714C263.409 288.862 271.378 240.086 294.679 195.509C324.519 138.422 378.362 90.907 439.613 71.0431Z"/><path fill="#81644E" d="M686.033 301.543C701.025 307.068 708.182 307.232 723.701 309.238C738.609 311.164 749.403 320.502 757.53 333.03C754.537 344.554 753.224 353.228 749.611 365.607L746.982 372.532C739.514 346.82 718.854 333.503 692.526 340.488C691.547 326.653 689.723 314.926 686.033 301.543Z"/><path fill="#81644E" d="M681.132 430.831C698.247 435.327 706.941 433.719 722.398 426.342C719.533 430.928 715.67 436.927 712.244 441.092C712.114 441.444 712.12 441.39 711.826 441.667C710.962 442.942 710.33 444.018 709.206 445.079C708.932 445.741 709.01 445.693 708.476 446.095L706.719 448.149C706.433 448.767 706.502 448.709 705.979 449.102L704.942 450.184C704.317 451.127 703.912 451.979 702.963 452.567C702.086 453.558 701.119 454.719 700.189 455.635C699.887 456.275 699.966 456.217 699.397 456.555C692.168 464.49 684.408 471.924 676.17 478.806C675.863 479.096 675.935 479.072 675.592 479.216C657.004 496.646 621.03 514.843 596.701 522.349C593.556 523.319 590.119 523.534 586.751 524.4L586.286 524.524L585.98 524.155C588.24 522.485 593.861 520.295 596.721 518.934C602.138 516.355 607.433 513.526 612.589 510.457C645.351 490.867 665.998 465.438 681.132 430.831Z"/><path fill="#534235" d="M702.963 452.567C703.263 451.367 703.993 451.007 704.942 450.184C704.317 451.127 703.912 451.979 702.963 452.567Z"/><path fill="#534235" d="M699.397 456.555C699.491 455.798 699.418 455.756 700.189 455.635C699.887 456.275 699.966 456.217 699.397 456.555Z"/><path fill="#81644E" d="M303.313 427.577C318.595 434.093 327.686 434.603 343.664 430.495C357.939 466.255 382.117 493.168 415.141 512.872C420.897 516.306 428.178 519.661 434.283 522.597L433.804 523.154C423.106 521.006 410.907 516.008 400.976 511.424C361.111 493.331 327.232 464.245 303.313 427.577Z"/></svg>