<?xml version="1.0" encoding="utf-8" ?><svg xmlns="http://www.w3.org/2000/svg" xmlns:xlink="http://www.w3.org/1999/xlink" width="1024" height="1024" viewBox="0 0 1024 1024"><path fill="#FCFCFB" d="M0 0L1024 0L1024 1024L0 1024L0 0Z"/><path fill="#061F79" d="M211.742 541.825C214.261 530.336 218.703 519.524 222.133 508.343C225.062 498.796 227.676 489.963 231.366 480.644C253.692 422.847 293.922 373.708 346.172 340.41C415.342 296.116 499.351 281.316 579.493 299.307C657.625 316.284 725.683 363.888 768.428 431.458C785.276 457.837 795.493 485.603 804.558 515.338C807.538 525.113 811.632 534.705 813.669 544.928C815.085 549.148 815.843 553.519 816.712 557.885C817.288 560.742 817.915 563.576 818.252 566.473C819.494 571.901 820.165 577.558 820.813 583.091C821.171 586.569 821.454 589.127 821.69 592.673C822.532 598.441 823.08 617.252 822.558 623.305C822.515 633.03 821.827 639.816 820.812 649.429C818.065 671.717 812.798 693.622 805.113 714.722C804.395 716.696 801.57 724.306 800.651 725.883C787.727 758.587 765.68 791.91 741.355 817.332C731.134 828.014 719.193 838.301 707.938 847.891C745.259 895.227 704.294 954.606 648.132 947.614C622.236 944.391 603.626 928.396 595.017 904.163C594.164 904.331 591.772 904.854 591.039 904.885C565.67 913.073 512.211 916.822 485.798 913.513C482.538 913.462 474.164 912.723 470.942 912.1C454.014 910.195 445 907.277 429.152 904.05C419.945 931.399 399.018 946.248 370.342 948.182C368.971 948.583 365.815 948.509 364.382 948.152C322.538 947.173 289.868 905.093 306.388 864.936C309.1 858.343 312.643 853.334 316.772 847.635C307.828 840.125 298.115 832.185 289.829 824.031C265.57 800.159 243.739 770.67 229.699 739.604C225.573 734.13 216.043 706.109 213.858 698.572C208.402 682.114 202.438 648.425 202.463 631.209C201.538 625.656 201.907 606.078 202.469 600.317C202.169 587.724 207.786 553.898 211.742 541.825Z"/><path fill="#F09A80" d="M211.742 541.825C214.261 530.336 218.703 519.524 222.133 508.343C225.062 498.796 227.676 489.963 231.366 480.644C253.692 422.847 293.922 373.708 346.172 340.41C415.342 296.116 499.351 281.316 579.493 299.307C657.625 316.284 725.683 363.888 768.428 431.458C785.276 457.837 795.493 485.603 804.558 515.338C807.538 525.113 811.632 534.705 813.669 544.928L813.473 545.066C812.237 544.188 809.872 533.526 809.16 531.329C765.248 395.802 642.593 314.261 500.565 316.571L496.981 315.951C495.48 315.927 494.2 316 492.716 316.082L492.925 316.971C485.142 317.23 473.521 318.857 465.679 320.007C398.312 329.886 334.127 362.586 286.719 411.384C259.191 439.718 228.133 487.826 217.307 526.232C217.029 526.524 217.074 526.558 217.003 526.979C216.32 529.04 215.818 530.618 215.32 532.727C215.047 533.028 215.091 533.074 215.017 533.496C214.229 535.863 213.851 537.29 213.33 539.733C213.286 540.318 213.208 540.409 212.994 540.965C212.148 541.784 212.598 541.553 211.742 541.825Z"/><path fill="#231410" d="M211.742 541.825C214.261 530.336 218.703 519.524 222.133 508.343C225.062 498.796 227.676 489.963 231.366 480.644C253.692 422.847 293.922 373.708 346.172 340.41C415.342 296.116 499.351 281.316 579.493 299.307C657.625 316.284 725.683 363.888 768.428 431.458C785.276 457.837 795.493 485.603 804.558 515.338C807.538 525.113 811.632 534.705 813.669 544.928L813.473 545.066C812.237 544.188 809.872 533.526 809.16 531.329C765.248 395.802 642.593 314.261 500.565 316.571L496.981 315.951C506.362 314.643 526.355 315.699 535.883 316.392C598.516 320.945 656.38 343.466 706.13 381.688C741.482 408.849 775.582 449.708 794.077 490.37L794.776 489.265C784.397 459.473 773.611 439.709 755.219 414.092C754.934 413.796 754.914 413.775 754.709 413.42L753.857 412.237C753.514 411.852 753.479 411.814 753.201 411.395L752.385 410.25C752.069 409.917 751.969 409.822 751.72 409.433L750.837 408.227C750.469 407.794 750.556 407.912 750.295 407.49C746.958 403.017 742.896 398.284 739.15 394.13C685.04 333.314 608.621 296.985 527.296 293.417C524.209 293.523 522.355 293.605 519.369 293.034C506.487 292.948 495.258 293.048 482.398 294.312C413.819 300.732 349.506 330.444 300.162 378.501C267.279 410.339 242.546 449.627 228.054 493.043L228.931 493.443C242.961 465.254 257.684 441.223 279.217 417.787C319.701 373.306 372.219 341.525 430.405 326.296C449.365 321.158 472.985 316.918 492.716 316.082L492.925 316.971C485.142 317.23 473.521 318.857 465.679 320.007C398.312 329.886 334.127 362.586 286.719 411.384C259.191 439.718 228.133 487.826 217.307 526.232C217.029 526.524 217.074 526.558 217.003 526.979C216.32 529.04 215.818 530.618 215.32 532.727C215.047 533.028 215.091 533.074 215.017 533.496C214.229 535.863 213.851 537.29 213.33 539.733C213.286 540.318 213.208 540.409 212.994 540.965C212.148 541.784 212.598 541.553 211.742 541.825Z"/><path fill="#AD8375" d="M794.776 489.265L795.049 490.002C795.422 490.974 796.443 493.43 796.535 494.623C796.453 494.676 796.371 494.728 796.289 494.781C795.363 493.614 794.756 491.744 794.077 490.37L794.776 489.265Z"/><path fill="#7D4E3E" d="M519.369 293.034C522.84 292.684 524.033 292.534 527.296 293.417C524.209 293.523 522.355 293.605 519.369 293.034Z"/><path fill="#AD8375" d="M228.054 493.043L228.931 493.443C228.078 495.705 226.628 498.669 225.582 500.864C226.405 498.017 227.15 495.838 228.054 493.043Z"/><path fill="#231410" d="M769.804 780.615C777.059 771.023 785.934 754.843 791.642 743.952C793.499 740.408 798.426 727.763 800.651 725.883C787.727 758.587 765.68 791.91 741.355 817.332C731.134 828.014 719.193 838.301 707.938 847.891C745.259 895.227 704.294 954.606 648.132 947.614C622.236 944.391 603.626 928.396 595.017 904.163C594.164 904.331 591.772 904.854 591.039 904.885C591.486 903.797 610.369 898.27 612.983 897.381C641.441 887.781 668.417 874.25 693.128 857.18C697.162 854.426 705.198 848.977 708.558 845.738C709.193 845.427 709.178 845.483 709.587 844.926L711.944 842.848C712.241 842.527 712.164 842.571 712.56 842.409L715.566 839.739C716.201 839.437 716.181 839.494 716.585 838.937L718.591 837.27C719.387 836.857 719.566 836.749 720.086 836.008L723.859 832.504C724.59 832.125 724.641 832.11 725.092 831.461L726.826 829.883C728.293 828.732 732.126 825.445 733.087 824.015C736.3 821.009 738.98 818.275 742.017 815.083C743.35 814.217 744.942 812.154 745.85 810.871L746.202 810.442C748.01 808.876 748.552 808.322 749.88 806.334C751.059 805.334 752.522 803.342 753.527 802.079C754.437 801.498 754.749 800.779 755.337 799.846L755.847 799.304C756.496 798.736 756.433 798.851 756.758 798.092C759.023 795.732 761.096 792.832 762.908 790.11C763.388 789.708 763.379 789.714 763.68 789.166L764.255 788.339C765.231 787.31 765.854 786.931 766.293 785.613C767.252 784.597 768.588 782.431 769.403 781.201C769.675 780.916 769.677 780.959 769.804 780.615Z"/><path fill="#F79128" d="M596.071 903.916C636.518 891.716 673.561 874.834 707.028 848.551C713.489 856.449 716.246 862.362 719.318 871.95C731.855 930.238 666.094 966.826 620.643 936.295C615.221 932.617 610.366 928.164 606.234 923.079C600.752 915.802 599.068 912.514 596.071 903.916Z"/><path fill="#ED6C33" d="M596.071 903.916C636.518 891.716 673.561 874.834 707.028 848.551C713.489 856.449 716.246 862.362 719.318 871.95C713.482 874.262 705.933 878.176 700.108 880.934C690.512 885.415 680.881 889.822 671.217 894.154C652.169 902.762 633.16 911.437 613.935 919.645C611.35 920.749 608.762 921.85 606.234 923.079C600.752 915.802 599.068 912.514 596.071 903.916Z"/><path fill="#F79128" d="M304.956 872.269C310.616 872.952 414.895 916.655 420.241 920.599C406.244 938.999 392.16 944.84 369.746 947.108C369.505 947.413 369.406 947.431 369.385 947.722C369.538 948.01 370.068 948.073 370.342 948.182C368.971 948.583 365.815 948.509 364.382 948.152C364.644 947.851 364.708 947.516 364.849 947.121C361.877 946.985 357.113 946.396 354.224 945.841C337.388 942.663 322.533 932.858 312.994 918.627C303.323 904.075 301.511 889.133 304.956 872.269Z"/><path fill="#51290E" d="M364.849 947.121C366.383 947.088 368.229 947.025 369.746 947.108C369.505 947.413 369.406 947.431 369.385 947.722C369.538 948.01 370.068 948.073 370.342 948.182C368.971 948.583 365.815 948.509 364.382 948.152C364.644 947.851 364.708 947.516 364.849 947.121Z"/><path fill="#ED6C33" d="M317.541 848.428C351.988 875.419 386.775 890.8 428.006 903.732C425.745 910.391 424.165 914.691 420.241 920.599C414.895 916.655 310.616 872.952 304.956 872.269C307.971 862.556 311.19 856.541 317.541 848.428Z"/><path fill="#150805" d="M229.699 739.604C231.327 740.583 242.363 762.632 245.228 766.586C245.352 766.942 245.35 766.892 245.623 767.186C246.576 768.783 247.605 770.63 248.71 772.1C248.844 772.447 248.839 772.399 249.114 772.684C250.015 774.164 250.59 775.28 251.716 776.599C252.059 776.698 252.074 776.821 252.316 777.13C252.59 777.798 252.61 777.829 252.999 778.439C253.674 779.427 254.479 780.696 255.218 781.6C255.402 782.03 255.592 782.162 255.917 782.516L256.64 783.35C257.067 783.633 257.266 784.017 257.571 784.454C257.835 785.22 258.038 785.476 258.461 786.179L259.127 786.769C259.499 787.055 259.495 787.147 259.729 787.571C260.458 789.112 260.393 789.113 261.559 790.282L262.081 790.743C262.317 791.273 262.405 791.357 262.758 791.84L263.718 792.89C264.139 793.97 264.243 793.94 265.097 794.781L265.573 795.251C265.849 795.937 266.084 796.119 266.609 796.778L266.817 796.996C267.372 797.976 267.545 798.467 268.477 799.082L270.73 801.603C270.884 801.932 270.902 801.928 271.148 802.194L273.318 804.609C273.578 805.274 273.498 805.213 274.06 805.566C275.105 806.734 276.24 808.059 277.319 809.172C277.559 809.777 277.499 809.714 277.985 810.116L279.855 812.074C280.394 813.24 281.974 814.862 282.976 815.595C286.183 818.945 288.999 821.832 292.43 824.992C293.262 826.194 294.607 827.123 295.778 827.986C299.453 831.706 305.398 836.588 309.481 839.938C309.699 840.199 309.705 840.166 310.038 840.327C311.94 842.08 313.901 843.769 315.917 845.39C316.318 845.558 316.245 845.517 316.559 845.825C320.815 850.23 330.946 856.976 336.163 860.387C360.546 876.33 386.835 889.449 414.648 898.235C420.013 899.929 427.297 902.492 432.728 903.694C433.185 903.714 433.11 903.697 433.536 903.862L436.719 904.755C437.042 905.026 437.134 904.992 437.566 905.087C438.673 905.458 439.469 905.518 440.638 905.693C441.136 905.713 441.048 905.691 441.506 905.881L445.215 906.75C445.55 907.019 445.629 906.981 446.068 907.086C447.753 907.204 447.96 907.283 449.611 907.761C450.332 907.743 450.329 907.698 450.948 908.006C452.309 908.142 452.481 908.146 453.748 908.5L454.701 908.6C455.517 908.67 455.634 908.631 456.349 908.922C457.906 909.297 459.09 909.652 460.702 909.727C461.574 909.584 461.592 909.486 462.31 909.863C465.358 910.355 467.816 910.823 470.822 911.517L470.942 912.1C454.014 910.195 445 907.277 429.152 904.05C419.945 931.399 399.018 946.248 370.342 948.182C370.068 948.073 369.538 948.01 369.385 947.722C369.406 947.431 369.505 947.413 369.746 947.108C392.16 944.84 406.244 938.999 420.241 920.599C424.165 914.691 425.745 910.391 428.006 903.732C386.775 890.8 351.988 875.419 317.541 848.428C311.19 856.541 307.971 862.556 304.956 872.269C301.511 889.133 303.323 904.075 312.994 918.627C322.533 932.858 337.388 942.663 354.224 945.841C357.113 946.396 361.877 946.985 364.849 947.121C364.708 947.516 364.644 947.851 364.382 948.152C322.538 947.173 289.868 905.093 306.388 864.936C309.1 858.343 312.643 853.334 316.772 847.635C307.828 840.125 298.115 832.185 289.829 824.031C265.57 800.159 243.739 770.67 229.699 739.604Z"/><path fill="#0E1C5A" d="M460.702 909.727C461.574 909.584 461.592 909.486 462.31 909.863C461.492 910.108 461.384 910.306 460.702 909.727Z"/><path fill="#0E1C5A" d="M454.701 908.6C455.517 908.67 455.634 908.631 456.349 908.922C455.414 909.074 455.511 909.111 454.701 908.6Z"/><path fill="#0E1C5A" d="M449.611 907.761C450.332 907.743 450.329 907.698 450.948 908.006C450.155 908.094 450.186 908.198 449.611 907.761Z"/><path fill="#0E1C5A" d="M446.068 907.086C447.753 907.204 447.96 907.283 449.611 907.761C447.882 907.606 447.628 907.676 446.068 907.086Z"/><path fill="#0E1C5A" d="M450.948 908.006C452.309 908.142 452.481 908.146 453.748 908.5C452.26 908.508 452.343 908.553 450.948 908.006Z"/><path fill="#0E1C5A" d="M202.463 631.209C204.92 633.96 203.427 640.235 204.046 643.884C206.114 656.049 207.566 668.192 210.326 680.239C211.245 684.255 214.576 695.258 213.858 698.572C208.402 682.114 202.438 648.425 202.463 631.209Z"/><path fill="#0E1C5A" d="M212.994 540.965C211.501 549.501 208.716 560.62 206.916 569.007C205.861 573.92 204.353 598.347 202.469 600.317C202.169 587.724 207.786 553.898 211.742 541.825C212.598 541.553 212.148 541.784 212.994 540.965Z"/><path fill="#060B1E" d="M820.492 642.482C820.576 640.263 821.721 636.409 821.715 634.5C821.701 629.68 821.123 627.965 822.558 623.305C822.515 633.03 821.827 639.816 820.812 649.429C820.312 648.611 820.314 648.619 819.99 647.679C819.944 645.083 819.91 644.996 820.492 642.482Z"/><path fill="#0E1C5A" d="M820.492 642.482C820.619 645.316 820.736 645.119 819.99 647.679C819.944 645.083 819.91 644.996 820.492 642.482Z"/><path fill="#0E1C5A" d="M470.822 911.517C473.874 911.086 483.485 911.581 485.798 913.513C482.538 913.462 474.164 912.723 470.942 912.1L470.822 911.517Z"/><path fill="#0E1C5A" d="M818.252 566.473C816.136 563.923 814.539 560.92 816.712 557.885C817.288 560.742 817.915 563.576 818.252 566.473Z"/><path fill="#060B1E" d="M820.003 584.489L820.813 583.091C821.171 586.569 821.454 589.127 821.69 592.673C821.598 592.941 821.478 593.653 821.204 593.757L821.292 593.661L820.941 593.416C820.621 592.229 820.493 591.394 820.47 590.195C819.855 587.47 819.84 587.306 820.003 584.489Z"/><path fill="#0E1C5A" d="M820.003 584.489C820.825 587.243 820.707 587.317 820.47 590.195C819.855 587.47 819.84 587.306 820.003 584.489Z"/><path fill="#0E1C5A" d="M492.716 316.082C494.2 316 495.48 315.927 496.981 315.951L500.565 316.571C497.893 316.975 495.626 317.074 492.925 316.971L492.716 316.082Z"/><path fill="#0E1C5A" d="M726.826 829.883C727.823 828.647 731.563 824.404 733.087 824.015C732.126 825.445 728.293 828.732 726.826 829.883Z"/><path fill="#0E1C5A" d="M279.855 812.074C280.858 812.341 282.7 814.503 282.976 815.595C281.974 814.862 280.394 813.24 279.855 812.074Z"/><path fill="#0E1C5A" d="M745.85 810.871C744.942 812.154 743.35 814.217 742.017 815.083C742.393 813.601 744.654 811.826 745.85 810.871Z"/><path fill="#0E1C5A" d="M749.88 806.334C748.552 808.322 748.01 808.876 746.202 810.442L746.5 809.957C747.526 808.249 748.303 807.597 749.88 806.334Z"/><path fill="#0E1C5A" d="M292.43 824.992C293.979 825.443 294.912 826.714 295.778 827.986C294.607 827.123 293.262 826.194 292.43 824.992Z"/><path fill="#0E1C5A" d="M766.293 785.613C765.854 786.931 765.231 787.31 764.255 788.339C764.752 787.538 765.448 785.822 766.293 785.613Z"/><path fill="#0E1C5A" d="M266.817 796.996C267.907 797.859 268.156 797.839 268.477 799.082C267.545 798.467 267.372 797.976 266.817 796.996Z"/><path fill="#0E1C5A" d="M718.591 837.27C718.881 836.353 719.196 836.252 720.086 836.008C719.566 836.749 719.387 836.857 718.591 837.27Z"/><path fill="#0E1C5A" d="M755.337 799.846C754.749 800.779 754.437 801.498 753.527 802.079C753.727 801.293 753.884 800.993 754.549 800.49L755.337 799.846Z"/><path fill="#0E1C5A" d="M273.318 804.609C274.091 804.756 274.009 804.799 274.06 805.566C273.498 805.213 273.578 805.274 273.318 804.609Z"/><path fill="#0E1C5A" d="M723.859 832.504C724.258 831.695 724.25 831.73 725.092 831.461C724.641 832.11 724.59 832.125 723.859 832.504Z"/><path fill="#0E1C5A" d="M259.729 787.571C261.027 788.753 260.98 788.651 261.559 790.282C260.393 789.113 260.458 789.112 259.729 787.571Z"/><path fill="#0E1C5A" d="M277.319 809.172C278.139 809.252 277.998 809.342 277.985 810.116C277.499 809.714 277.559 809.777 277.319 809.172Z"/><path fill="#0E1C5A" d="M756.758 798.092C756.433 798.851 756.496 798.736 755.847 799.304C756.091 798.658 756.046 798.304 756.758 798.092Z"/><path fill="#0E1C5A" d="M263.718 792.89C264.781 793.367 264.699 793.694 265.097 794.781C264.243 793.94 264.139 793.97 263.718 792.89Z"/><path fill="#060B1E" d="M490.066 868.127C476.654 867.534 460.398 864.329 447.376 861.053C394.087 847.645 351.565 821.543 314.589 781.185C270.871 732.909 248.033 669.293 251.064 604.234C254.279 537.091 284.223 474.026 334.22 429.096C385.679 382.645 453.277 358.185 522.544 360.951C595.827 364.377 660.096 393.922 709.45 448.223C753.379 497.103 776.476 561.209 773.819 626.874C770.287 693.834 740.125 756.6 690.05 801.193C635.65 850.174 563.526 874.032 490.666 868.249C490.157 868.169 490.338 868.215 490.066 868.127Z"/><path fill="#3A6DC7" d="M502.836 362.217L503.306 362.189C566.391 358.74 638.628 384.196 685.371 426.35C860.363 584.16 755.129 854.892 522.117 867.788C521.565 867.827 521.013 867.859 520.46 867.885C491.4 869.048 462.851 864.538 435.035 856.29C333.296 826.125 257.294 734.671 252.229 627.523C249.162 560.774 273.034 495.59 318.485 446.61C366.232 394.292 432.454 365.458 502.836 362.217Z"/><path fill="#060B1E" d="M501.181 395.01C621.767 388.76 724.619 481.38 730.995 601.959C737.37 722.539 644.858 825.488 524.285 831.99C403.534 838.501 300.399 745.822 294.015 625.064C287.63 504.306 380.416 401.268 501.181 395.01Z"/><path fill="#FCFCFB" d="M506.022 397.203L506.723 397.17C562.068 394.709 621.768 418.268 662.248 455.662C704.179 494.16 729.054 547.77 731.377 604.646C733.696 661.264 713.296 716.46 674.713 757.96C633.388 802.5 580.314 828.176 519.334 830.394C506.059 830.58 491.535 829.874 478.403 827.81C378.23 812.072 298.544 725.661 293.779 623.815C290.732 566.729 310.847 510.828 349.568 468.771C387.011 427.857 442.019 401.029 497.414 397.651C500.281 397.476 503.153 397.333 506.022 397.203Z"/><path fill="#150805" d="M417.968 511.639C426.613 510.962 432.63 516.839 438.41 522.409C456.957 540.286 477.306 557.537 495.16 576.021C508.752 570.121 517.997 570.494 531.581 575.812L532.136 575.229C540.017 567.037 553.985 555.055 562.872 546.823C570.369 539.862 577.907 532.944 585.485 526.07C591.872 520.273 598.945 511.852 607.987 512.066C618.586 512.317 626.071 520.267 625.799 530.724C625.646 536.588 621.132 541.72 617.022 545.413C607.348 554.07 597.548 562.583 587.758 571.108C576.955 580.945 565.301 589.933 554.539 600.097C556.845 609.53 557.645 618.033 554.734 627.506C551.384 638.339 543.817 647.369 533.736 652.562C523.389 657.946 511.328 659.007 500.2 655.512C489.077 651.937 479.856 644.046 474.606 633.608C469.204 622.879 468.978 611.056 472.678 599.754C460 589.71 446.865 576.777 434.158 566.23C425.69 557.99 414.485 550.373 406.641 541.692C396.569 530.546 403.817 514.311 417.968 511.639Z"/><path fill="#ED6C33" d="M508.733 573.145C531.697 570.527 552.437 587.014 555.067 609.976C557.698 632.938 541.222 653.687 518.261 656.33C495.283 658.974 474.515 642.483 471.883 619.504C469.251 596.524 485.752 575.765 508.733 573.145Z"/><path fill="#150805" d="M509.556 598.764C518.603 596.675 527.635 602.296 529.756 611.335C531.876 620.375 526.286 629.426 517.254 631.577C508.178 633.739 499.073 628.116 496.942 619.032C494.812 609.949 500.466 600.864 509.556 598.764Z"/><path fill="#061F79" d="M512.332 599.671C520.907 599.057 528.368 605.486 529.03 614.058C529.691 622.63 523.304 630.126 514.736 630.835C506.1 631.549 498.532 625.101 497.866 616.462C497.199 607.822 503.689 600.29 512.332 599.671Z"/><path fill="#ED6C33" d="M606.028 513.105C619.561 512.191 629.932 526.613 621.768 538.605C618.859 542.879 611.008 549.123 606.872 552.827C595.588 562.892 584.171 572.807 572.622 582.567C568.839 585.802 557.647 596 554.228 598.434L553.572 597.924C548.223 587.085 542.92 582.31 532.648 576.282C535.046 573.727 539.985 569.472 542.722 566.967L561.253 549.846C568.951 542.718 576.687 535.631 584.46 528.585C590.712 522.902 597.736 514.998 606.028 513.105Z"/><path fill="#ED6C33" d="M419.375 512.617C427.184 513.166 431.177 517.099 436.527 522.295C455.275 540.504 475.834 557.811 493.895 576.648C484.81 581.259 480.038 585.916 475.011 594.595L472.973 598.636C469.354 595.769 464.717 591.303 461.104 588.096L440.585 570.178L419.965 552.314C417.106 549.835 407.827 542.263 406.128 539.324C398.759 526.578 405.969 514.619 419.375 512.617Z"/><path fill="#150805" d="M530.145 426.128C556.914 424.4 558.702 454.885 546.336 471.205C543.932 474.378 541.568 477.418 539.05 480.518C545.094 480.279 554.407 479.075 558.569 484.264C560.269 486.353 561.009 489.063 560.607 491.726C560.255 494.263 558.845 496.532 556.725 497.97C552.693 500.743 541.45 499.732 536.189 499.901C528.924 500.134 518.899 502.58 511.97 501.13C507.948 499.219 506.086 497.134 505.705 492.495C505.131 484.604 510.625 480.856 515.453 475.74C522.915 467.833 533.829 458.401 533.885 446.629C533.89 445.474 533.455 445.403 532.681 444.842C525.794 443.83 521.172 463.799 511.27 457.232C502.888 451.674 508.08 442.845 512.602 436.665C517.142 430.459 522.513 427.236 530.145 426.128Z"/><path fill="#ED6C33" d="M528.163 427.586C554.793 424.508 557.845 452.208 546.221 469.356C543.212 473.795 539.57 477.693 536.489 482.201C541.815 481.26 552.313 480.259 556.607 483.826C558.395 485.297 559.487 487.449 559.618 489.761C559.835 493.611 556.509 497.959 552.914 498.042C540.263 498.336 527.056 499.904 514.551 500.501C512.074 499.916 509.959 499.017 508.247 497.051C497.866 485.134 535.061 466.136 535.108 447.526C535.112 446.105 534.836 445.227 533.857 444.168C525.222 441.282 523.625 455.729 517.465 456.492C504.48 458.098 507.388 446.115 511.987 439.444C517.03 432.129 520.217 429.483 528.163 427.586Z"/><path fill="#150805" d="M677.622 573.584C686.145 572.911 697.035 576.91 700.62 585.224C703.84 592.69 702.283 598.769 699.756 605.942C705.44 616.808 709.005 626.166 703.636 638.28C700.526 645.149 694.776 650.471 687.687 653.041C675.083 657.599 663.904 653.081 659.47 640.049C658.209 632.58 661.414 623.889 669.635 622.809C678.937 621.587 679.198 631.28 681.979 633.697C687.154 630.435 684.701 619.361 681.759 614.897C658.734 605.685 681.133 597.401 682.476 593.786C681.343 592.658 672.714 597.78 668.049 594.895C662.089 591.209 661.507 584.977 665.657 579.425C668.267 575.933 673.417 574.553 677.622 573.584Z"/><path fill="#ED6C33" d="M678.973 574.652C696.18 573.805 707.423 590.083 697.855 605.724C704.579 616.531 708.585 628.029 701.556 640.134C697.857 646.382 691.8 650.881 684.748 652.616C671.397 655.918 662.52 649.441 659.959 636.303C660.352 630.775 662.985 625.642 668.504 624.288C676.589 622.305 678.692 628.817 679.985 634.432C681.747 635.762 680.82 635.526 682.749 635.512C685.888 633.429 685.589 626.858 685.934 623.767C687.153 612.86 676.914 614.132 673.534 607.557C669.513 599.737 682.062 599.387 684.162 594.506C684.159 593.05 684.348 592.858 683.51 591.747C680.091 591.33 672.098 597.122 668.212 593.573C656.824 583.172 669.928 576.278 678.973 574.652Z"/><path fill="#150805" d="M521.527 732.56C527.117 732.356 531.993 736.352 531.174 742.233C530.22 749.083 521.912 755.021 516.679 759.261C518.65 759.553 520.434 759.576 522.333 760.286C528.431 762.581 533.362 767.213 536.035 773.155C538.417 778.631 538.501 784.835 536.269 790.373C533.124 798.224 527.096 802.737 519.588 805.78C505.604 808.398 493.732 800.754 490.38 786.937C487.894 776.318 489.62 765.148 495.198 755.775C500.238 747.477 511.634 734.98 521.527 732.56Z"/><path fill="#ED6C33" d="M520.084 734.087C525.026 733.609 529.976 735.162 530.079 740.958C530.213 748.572 519.002 755.169 514.182 760.625C538.863 760.447 545.749 792.226 521.499 803.723C494.233 812.121 484.214 779.959 494.094 760.294C498.623 751.278 510.677 737.51 520.084 734.087Z"/><path fill="#150805" d="M510.34 775.072C519.783 774.159 525.009 780.969 518.025 785.871L517.386 786.331C507.384 788.515 504.265 779.785 510.34 775.072Z"/><path fill="#FCFCFB" d="M510.648 776.107C518.004 775.751 523.669 779.317 516.893 785.208C509.417 786.389 505.613 781.816 510.648 776.107Z"/><path fill="#150805" d="M336.274 576.136C366.516 573.219 366.641 613.426 357.939 632.452C354.12 640.8 348.738 657.654 336.529 652.318C327.166 646.185 338.578 629.217 341.654 620.43C312.009 624.636 309.481 583.501 336.274 576.136Z"/><path fill="#ED6C33" d="M337.91 577.121C351.577 576.039 360.32 588.271 361.496 600.632C362.89 616.547 358.019 634.622 348.734 647.629C344.861 653.055 339.951 653.591 334.934 649.621C331.117 643.403 340.929 625.203 344.107 618.636C311.466 625.231 311.45 581.996 337.91 577.121Z"/><path fill="#150805" d="M336.061 594.472C344.617 593.647 346.194 599.938 340.643 605.46C332.919 607.595 330.645 598.357 335.37 594.979L336.061 594.472Z"/><path fill="#FCFCFB" d="M336.737 595.831C338.227 595.237 339.921 595.494 341.169 596.502C342.416 597.51 343.023 599.113 342.755 600.694C342.488 602.276 341.388 603.589 339.878 604.131C337.599 604.948 335.086 603.788 334.229 601.524C333.373 599.26 334.488 596.727 336.737 595.831Z"/><path fill="#150805" d="M490.81 428.037C491.199 427.982 491.589 427.936 491.98 427.899C501.351 427.05 503.975 434.365 503.553 442.111C503.126 449.947 503.905 460.034 503.107 467.655C502.167 476.632 507.364 501.701 493.625 501.498C489.808 501.421 487.28 499.753 484.816 497.116C482.414 489.783 482.512 469.161 482.22 460.376C460.076 468.051 465.235 436.364 490.81 428.037Z"/><path fill="#ED6C33" d="M491.442 429.069C498.763 428.715 502.336 432.009 502.381 439.372C501.753 444.895 502.785 454.261 501.924 459.398C500.389 468.551 508.234 507.249 489.17 499.309C487.022 498.414 485.914 496.562 485.216 494.491C483.899 488.519 483.44 464.907 483.372 458.306C461.192 467.952 466.272 437.392 491.442 429.069Z"/><path fill="#150805" d="M592.984 746.095C600.709 745.982 601.906 748.709 605.733 755.096C608.866 760.323 614.674 765.135 612.251 771.736C611.363 774.094 609.56 775.993 607.252 777.002C607.122 777.055 606.993 777.107 606.863 777.16L606.002 777.526L605.46 777.585C597.925 778.457 596.975 775.303 593.149 769.73C587.926 762.124 579.859 751.748 592.984 746.095Z"/><path fill="#ED6C33" d="M591.863 747.608C599.919 746.577 600.421 748.849 604.433 755.378C608.818 762.516 617.078 769.91 606.415 776.176C596.418 777.339 596.405 771.658 591.182 764.637C586.121 757.833 584.527 753.091 591.863 747.608Z"/><path fill="#ED6C33" d="M424.873 473.103C422.403 469.923 412.845 457.401 413.996 454.502C422.948 431.951 435.405 456.726 438.644 460.881L439.816 462.368L440.08 462.897C440.245 463.282 440.409 463.666 440.574 464.051C441.6 466.514 441.538 469.297 440.402 471.711C439.402 473.871 437.551 475.519 435.29 476.264C430.815 477.727 427.894 476.02 424.873 473.103Z"/><path fill="#231410" d="M424.873 473.103C422.403 469.923 412.845 457.401 413.996 454.502C422.948 431.951 435.405 456.726 438.644 460.881L439.816 462.368L438.477 462.803C436.896 460.276 433.03 455.604 431.873 453.146C425.483 439.57 408.471 450.628 418.024 461.633C420.579 464.576 423.254 469.076 425.617 472.36L424.873 473.103Z"/><path fill="#150805" d="M439.227 463.514L440.08 462.897C440.245 463.282 440.409 463.666 440.574 464.051C441.6 466.514 441.538 469.297 440.402 471.711C439.402 473.871 437.551 475.519 435.29 476.264C430.815 477.727 427.894 476.02 424.873 473.103L425.617 472.36C432.734 479.276 442.561 474.252 439.227 463.514Z"/><path fill="#51290E" d="M439.816 462.368L440.08 462.897L439.227 463.514C438.746 463.234 438.746 463.275 438.477 462.803L439.816 462.368Z"/><path fill="#150805" d="M429.464 746.57C442.515 745.125 444.775 755.844 437.404 764.459C433.089 769.502 433.354 773.893 426.511 777.449C422.668 777.592 419.001 777.309 416.484 773.758C411.405 766.589 418.045 761.626 421.442 755.627C423.696 751.646 425.643 749.086 429.464 746.57Z"/><path fill="#ED6C33" d="M430.4 747.572C436.984 747.646 441.469 749.611 440.017 758.013C439.673 760.002 436.701 763.365 435.479 765.223C432.418 769.876 431.135 773.809 426.022 776.487C411.624 776.308 415.248 764.599 421.437 757.505C425.094 753.313 424.548 750.537 430.4 747.572Z"/><path fill="#231410" d="M658.222 683.046C664.583 682.938 667.199 685.792 672.655 688.534C676.031 690.232 679.597 691.002 681.201 694.847C684.031 701.633 681.472 705.063 675.225 707.692C668.744 708.492 667.554 706.755 661.884 703.672C658.522 701.845 651.708 699.453 650.76 695.22C649.301 688.711 652.188 684.96 658.222 683.046Z"/><path fill="#ED6C33" d="M659.801 684.096C665.456 684.62 670.713 689.484 676.251 691.466C678.396 692.493 680.162 694.436 680.733 696.682C682.442 703.408 678.467 705.61 672.663 707.053C668.831 706.702 652.721 698.905 651.785 694.643C650.359 688.151 654.176 685.339 659.801 684.096Z"/><path fill="#150805" d="M670.788 517.493C679.562 517.519 684.509 523.358 680.922 531.503C679.755 534.152 664.759 541.517 661.751 542.505C645.565 542.522 648.089 524.961 661.223 522.168C662.23 521.954 669.062 518.215 670.788 517.493Z"/><path fill="#ED6C33" d="M670.49 519.041C681.451 518.468 684.948 529.108 676.217 534.226C672.76 536.252 665.997 539.628 662.449 541.231C655.205 541.567 649.735 537.874 652.14 530.285C653.524 525.919 666.35 521.136 670.49 519.041Z"/><path fill="#150805" d="M354.391 517.507C360.026 517.541 362.006 520.442 366.522 522.366C373.567 525.366 380.768 528.65 377 537.743C375.942 540.299 372.944 541.678 370.543 542.498C361.409 542.667 361.994 539.461 354.475 536.736C343.892 532.901 342.866 520.842 354.391 517.507Z"/><path fill="#ED6C33" d="M375.88 529.542C377.012 532.552 377.555 535.389 375.414 538.009C369.216 545.592 361.545 538.785 355.357 535.712C351.611 534.111 347.003 532.086 347.376 527.249C348.3 515.26 358.648 518.497 365.584 523.101C369.668 525.811 371.65 525.053 375.442 528.884C375.735 529.173 375.689 529.172 375.88 529.542Z"/><path fill="#150805" d="M599.002 446.092C614.813 445.025 612.084 458.878 604.544 466.734C600.199 471.261 603.078 472.525 595.888 476.3C591.592 476.782 587.528 476.189 585.083 472.006C580.581 464.3 589.954 457.579 593.085 451.304C594.338 448.793 596.718 447.268 599.002 446.092Z"/><path fill="#ED6C33" d="M600.01 447.053C607.107 447.166 611.876 451.473 608.261 459.008C606.844 461.961 604.223 464.89 602.485 467.719C599.638 472.353 599.706 473.925 594.387 475.356C580.966 474.619 584.542 463.143 590.852 456.699C594.691 452.78 593.34 449.704 600.01 447.053Z"/><path fill="#231410" d="M365.303 683.484C379.467 682.757 380.969 698.877 367.903 702.315C366.346 702.725 361.009 706.245 358.533 707.291L357.593 707.698C355.068 708.037 353.201 708.308 350.753 707.464C348.748 706.772 347.123 705.271 346.273 703.327C343.695 697.317 347.473 691.499 352.998 689.382C357.191 687.774 360.99 685.142 365.303 683.484Z"/><path fill="#ED6C33" d="M365.803 684.488C377.253 684.612 379.387 696.661 368.939 700.668C364.772 702.267 360.97 705.214 356.315 706.912C342.017 707.436 344.532 691.99 356.154 689.154C357.209 688.896 363.861 685.265 365.803 684.488Z"/><path fill="#ED6C33" d="M511.316 808.126C512.06 808.099 514.755 807.928 515.273 808.094C519.664 809.499 520.031 817.569 518.974 820.998C518.051 823.993 516.828 824.842 514.607 826.194C514.027 826.174 512.257 826.175 511.744 825.991C504.971 823.571 504.417 811.125 511.316 808.126Z"/><path fill="#ED6C33" d="M615.944 428.992C616.71 429.007 617.789 428.99 618.498 429.077C620.138 429.263 621.625 430.124 622.603 431.454C626.459 436.636 620.076 443.245 615.967 445.971C606.135 445.876 607.184 433.628 615.944 428.992Z"/><path fill="#ED6C33" d="M333.751 706.547C343.58 706.241 345.365 716.263 332.5 720.686L332.023 720.709C328.993 720.876 326.549 720.541 325.12 717.44C322.427 711.595 329.456 708.352 333.751 706.547Z"/><path fill="#ED6C33" d="M406.011 429.003C415.231 429.008 420.693 440.004 411.967 445.781C409.051 445.437 406.739 444.772 405.094 442.196C400.526 435.047 399.574 433.42 406.011 429.003Z"/><path fill="#ED6C33" d="M688.995 706.535C699.455 706.767 705.407 716.987 696.314 720.778C691.516 720.378 682.275 717.909 684.189 710.65C684.726 708.612 687.144 707.358 688.995 706.535Z"/><path fill="#ED6C33" d="M614.152 781.509C617.195 781.501 619.235 781.59 620.879 784.55C624.768 791.549 626.188 794.099 619.208 798.404C615.638 797.909 613.425 796.6 611.457 793.504C607.78 787.718 609.154 784.787 614.152 781.509Z"/><path fill="#ED6C33" d="M714.934 609.134C718.028 608.967 720.99 608.736 723.993 609.661C725.317 610.058 726.417 610.984 727.035 612.22C729.182 616.443 726.136 619.247 722.552 620.892C719.68 621.097 716.262 621.346 713.506 620.37C712.218 619.927 711.178 618.956 710.647 617.702C709.238 614.294 710.284 610.492 714.109 609.403L714.934 609.134Z"/><path fill="#ED6C33" d="M509.838 401.521C518.895 401.273 518.492 402.973 518.423 412.251C518.401 415.168 516.297 416.679 514.187 418.341C504.73 419.318 503.893 407.053 509.838 401.521Z"/><path fill="#ED6C33" d="M407.609 781.009C410.411 780.982 412.11 780.961 413.911 783.53C414.877 784.898 415.233 786.605 414.894 788.245C414.228 791.632 411.962 795.514 408.89 797.237L408.096 797.707C397.012 798.652 401.023 786.089 407.609 781.009Z"/><path fill="#ED6C33" d="M691.578 505.069C703.715 504.432 703.373 513.429 692.605 518.629C689.534 519.127 686.205 519.072 684.468 515.984C683.931 515.008 683.819 513.855 684.156 512.793C685.458 508.724 688.089 506.897 691.578 505.069Z"/><path fill="#ED6C33" d="M329.844 505.095L330.554 505.139C339.561 505.621 346.64 514.553 337.365 518.737L336.511 519.133C327.945 518.171 319.186 509.526 329.844 505.095Z"/><path fill="#ED6C33" d="M301.892 609.578C304.056 609.468 308.265 609.167 310.242 609.61C312.044 610.032 313.61 611.142 314.605 612.703C317.154 616.674 313.652 618.694 310.556 620.353C306.878 620.752 300.179 621.673 298.159 617.877C295.952 613.73 298.674 611.212 301.892 609.578Z"/><path fill="#ED6C33" d="M633.762 770.698C637.183 771.236 641.461 777.151 639.976 781.133C638.275 779.827 632.378 773.473 633.385 771.475L633.762 770.698Z"/><path fill="#ED6C33" d="M661.721 463.98C662.249 464.406 663.789 465.746 663.499 466.081C662.206 467.572 657.292 472.412 656.056 473.671C652.037 471.22 659.511 465.812 661.721 463.98Z"/><path fill="#ED6C33" d="M638.507 445.994C643.153 448.561 638.276 451.959 635.643 456.283C635.153 455.875 633.555 454.728 633.558 454.192C633.563 452.909 637.836 446.946 638.507 445.994Z"/><path fill="#ED6C33" d="M680.352 485.422C683.884 488.729 676.469 492.118 673.743 493.94C672.268 491.805 671.962 490.886 674.486 489.435C676.541 488.254 678.443 486.817 680.352 485.422Z"/><path fill="#ED6C33" d="M655.508 752.466C657.631 754.931 661.129 757.822 662.52 760.506C662.838 761.119 661.361 762.531 661.045 762.887C658.694 760.295 656.245 757.373 653.781 754.831C653.572 754.616 655.438 752.548 655.508 752.466Z"/><path fill="#ED6C33" d="M564.622 804.226C565.919 805.329 566.26 806.776 566.44 808.506C566.886 812.78 569.268 812.957 565.743 815.416C564.146 812.913 561.064 807.11 563.884 804.844L564.622 804.226Z"/><path fill="#ED6C33" d="M486.438 407.103C489.251 408.344 490.468 416.126 488.842 417.703L488.328 418.224C485.69 416.311 484.13 409.781 486.438 407.103Z"/><path fill="#ED6C33" d="M307.077 560.386C309.783 560.581 312.088 561.532 314.77 561.948C317.656 562.396 317.748 562.324 317.21 565.015C316.517 565.226 315.502 565.534 314.716 565.187C309.663 562.952 307.517 565.959 307.077 560.386Z"/><path fill="#ED6C33" d="M718.252 560.124C720.488 560.309 719.518 562.473 718.5 562.834C715.955 563.737 713.361 564.386 710.822 565.454C709.397 565.24 709.106 563.383 709.782 562.777C711.494 561.242 715.971 560.531 718.252 560.124Z"/><path fill="#ED6C33" d="M459.658 804.056C463.511 805.447 461.683 805.919 461.075 810.017C460.846 811.56 460.403 813.354 460.079 814.904C455.561 813.318 457.73 810.014 459.033 805.995L459.658 804.056Z"/><path fill="#ED6C33" d="M591.11 795.248C593.039 795.978 597.015 803.024 595.525 805.605L595.308 805.617C591.772 805.842 592.981 802.123 590.959 799.496C589.461 797.55 589.978 796.831 591.11 795.248Z"/><path fill="#ED6C33" d="M390.461 770.389C390.612 770.492 392.761 771.778 392.448 772.311C391.028 774.725 389.07 777.449 387.391 779.738C381.403 780.683 389.801 771.213 390.461 770.389Z"/><path fill="#ED6C33" d="M567.009 411.791C570.608 413.625 569.506 412.59 568.609 416.767C568.16 418.857 567.592 420.983 567.125 423.06C562.753 420.841 565.02 419.078 566.475 413.74L567.009 411.791Z"/><path fill="#ED6C33" d="M388.112 445.322C389.927 447.349 391.517 451.289 393.503 453.445C393.858 453.83 392.094 455.684 391.99 455.807C390.136 454.385 387.959 450.277 386.403 448.304C386 447.794 387.897 445.6 388.112 445.322Z"/><path fill="#ED6C33" d="M369.564 753.304C374.801 754.184 366.829 759.935 365.087 761.698C359.755 760.332 367.737 755.04 369.564 753.304Z"/><path fill="#ED6C33" d="M673.182 732.729C675.999 733.464 679.139 736.816 681.35 738.774C681.646 739.036 680.95 740.523 680.868 740.728C678.504 740.317 671.716 736.158 672.866 733.497L673.182 732.729Z"/><path fill="#ED6C33" d="M434.241 795.72C437.939 798.045 434.303 803.263 432.426 806.284C428.572 803.544 432.168 799.577 434.241 795.72Z"/><path fill="#ED6C33" d="M458.907 411.141C461.106 412.324 461.157 414.207 461.71 416.693C462.478 420.143 463.486 420.461 460.951 422.245C459.219 421.091 457.236 413.148 458.32 411.875L458.907 411.141Z"/><path fill="#ED6C33" d="M709.742 533.461C716.113 534.986 703.956 539.256 703.305 539.566C696.487 538.46 709.334 533.66 709.742 533.461Z"/><path fill="#ED6C33" d="M538.4 407.612C542.217 409.018 539.96 410.134 540.16 414.259C540.243 415.956 540.083 416.842 539.337 418.29C538.964 418.201 537.192 417.946 537.133 417.51C536.778 414.914 537.525 409.975 538.4 407.612Z"/><path fill="#ED6C33" d="M714.125 636.986C716.773 637.043 721.043 637.496 723.583 638.242C724.089 638.391 724.411 640.666 724.482 641.034C721.728 640.954 719.299 640.355 716.731 640.06C714.116 639.759 714.531 639.433 714.125 636.986Z"/><path fill="#ED6C33" d="M487.359 809.202C488.399 809.912 489.443 810.661 488.988 812.238C488.339 814.486 489.252 818.364 487.361 819.818L486.724 820.338C483.752 818.023 485.78 817.416 485.942 813.487C486.003 812.01 486.654 810.499 487.359 809.202Z"/><path fill="#ED6C33" d="M324.922 688.977C330.549 690.966 319.042 694.926 318.169 695.28C314.936 691.437 320.998 690.921 324.922 688.977Z"/><path fill="#ED6C33" d="M709.615 663.716C711.719 664.224 719.588 665.823 718.724 668.435L718.526 669.1C715.57 668.927 711.656 667.962 709.391 665.99C709.077 665.717 709.568 663.956 709.615 663.716Z"/><path fill="#ED6C33" d="M595.025 421.038C596.551 421.612 598.259 421.891 596.94 423.693C595.355 425.86 594.409 428.12 593.432 430.594C589.011 429.365 593.381 423.885 595.025 421.038Z"/><path fill="#ED6C33" d="M721.817 588.235C723.443 587.853 724.773 588.608 724.115 590.096C723.875 590.641 717.017 591.329 716.109 591.49C714.822 591.656 714.132 591.585 713.832 590.105C713.418 588.064 720.218 588.406 721.817 588.235Z"/><path fill="#ED6C33" d="M537.996 809.82C539.699 811.344 541.134 818.435 538.813 820.599C537.122 818.91 535.141 811.689 537.441 810.195L537.996 809.82Z"/><path fill="#ED6C33" d="M314.361 663.992C315.71 663.81 317.554 664.606 316.915 665.714C316.247 666.872 311.355 668.229 309.711 668.899C308.918 668.976 306.632 668.883 307.546 667.279C308.175 666.176 312.756 664.725 314.361 663.992Z"/><path fill="#ED6C33" d="M430.812 421.203C433.719 421.781 436.857 427.676 435.058 430.865C432.768 429.999 429.568 423.674 430.812 421.203Z"/><path fill="#ED6C33" d="M700.62 688.901C703.059 689.721 710.267 691.634 709.616 694.545C707.034 694.595 699.36 692.983 700.401 689.659L700.62 688.901Z"/><path fill="#ED6C33" d="M364.139 464.762C367.029 466.097 369.55 469.252 371.721 471.552C372.112 471.967 371.45 473.392 371.299 473.797C369.576 473.005 362.914 467.645 363.842 465.488L364.139 464.762Z"/><path fill="#ED6C33" d="M346.499 485.743C346.807 485.924 353.945 491.334 353.868 491.24C353.995 491.963 353.178 493.062 352.835 493.652C351.91 493.404 345.581 488.593 345.419 488.312C345.481 487.663 346.221 486.323 346.499 485.743Z"/><path fill="#ED6C33" d="M315.403 534.305C318.496 534.64 321.643 536.037 324.477 537.273C324.967 537.486 324.75 539.07 324.729 539.384C321.909 539.527 318.281 538.019 315.825 536.672C315.307 536.388 315.411 534.746 315.403 534.305Z"/><path fill="#ED6C33" d="M310.898 637.208C311.02 637.204 311.618 637.141 311.795 637.234C311.965 637.324 312.099 637.811 312.138 637.986C312.249 638.484 312.221 639.053 311.899 639.471C311.644 639.802 311.18 639.952 310.781 639.998C308.522 640.265 306.278 640.647 304.058 641.143C297.773 638.736 310.742 637.233 310.898 637.208Z"/><path fill="#ED6C33" d="M301.965 588.452C304.355 588.637 306.646 589.148 309.008 589.437C311.395 589.728 312.018 589.058 311.642 591.748L311.572 592.536C308.946 592.19 304.763 591.595 302.283 590.611C301.901 590.459 301.967 588.739 301.965 588.452Z"/><path fill="#ED6C33" d="M352.338 733.032C352.782 733.429 354.074 734.667 353.838 735.045C353.313 735.888 348.407 740.176 347.647 740.848C343.075 738.684 349.767 735.446 352.338 733.032Z"/><path fill="#060B1E" d="M512.846 78.6925C515.806 78.2083 520.476 78.3813 523.472 78.5457C554.939 80.273 581.721 102.88 579.432 136.041C578.054 155.993 567.648 172.232 550.307 182.227C544.399 185.631 537.808 187.705 532.768 192.345C526.835 197.234 529.298 205.539 528.672 212.088C527.877 220.405 523.952 227.08 514.872 225.94C508.917 225.164 503.527 222.016 499.925 217.21C495.66 211.497 494.941 205.482 495.979 198.628C498.449 182.31 509.376 174.282 521.727 165.282C536.904 154.448 545.76 141.451 536.276 122.061C529.448 108.101 506.259 106.611 494.337 114.211C487.682 118.454 484.67 123.133 482.937 130.901C495.532 133.563 502.326 142.523 494.981 155.326C489.544 164.801 473.038 163.88 465.166 157.469C449.337 144.578 450.433 118.968 463.115 104.115C476.376 88.0958 493.164 81.006 512.846 78.6925Z"/><path fill="#3A6DC7" d="M478.172 161.296C434.265 153.256 450.673 74.6311 529.628 80.1654C530.101 80.1873 530.042 80.1793 530.493 80.3292C545.733 83.4894 559.175 89.8824 568.921 102.452C569.228 102.632 569.194 102.699 569.338 103.058C577.624 115.764 580.247 129.326 577.126 144.281C573.919 159.126 564.872 172.056 552.026 180.158C538.526 188.773 526.315 187.1 527.649 207.648C528.262 208.466 528.121 208.81 527.961 209.811C528.762 231.72 502.267 228.904 496.809 207.215C496.04 204.284 496.338 202.864 497.013 199.974C501.546 174.611 519.092 172.256 534.702 155.471C547.242 141.986 541.075 113.603 521.57 109.676C503.11 105.959 486.207 111.766 481.717 131.699C490.034 133.67 493.094 134.468 496.507 142.63C497.036 144.125 497.469 145.377 496.859 146.947C495.071 155.688 492.169 159.075 483.302 161.283C482.011 161.71 479.366 162.024 478.172 161.296Z"/><path fill="#0E1C5A" d="M497.013 199.974C497.004 202.319 496.971 204.882 496.809 207.215C496.04 204.284 496.338 202.864 497.013 199.974Z"/><path fill="#264472" d="M478.172 161.296C479.693 161.07 481.775 161.121 483.302 161.283C482.011 161.71 479.366 162.024 478.172 161.296Z"/><path fill="#0E1C5A" d="M496.507 142.63C497.036 144.125 497.469 145.377 496.859 146.947C496.436 145.209 496.526 144.475 496.507 142.63Z"/><path fill="#264472" d="M527.649 207.648C528.262 208.466 528.121 208.81 527.961 209.811C527.389 208.964 527.536 208.712 527.649 207.648Z"/><path fill="#3A6DC7" d="M534.893 253.728C535.765 264.984 530.331 273.915 518.502 275.301C513.243 275.907 507.956 274.434 503.767 271.196C500.003 268.313 497.593 263.688 497.064 258.999C496.488 253.625 498.145 248.251 501.648 244.135C509.692 234.641 521.955 236.292 530.511 244.082C533.442 247.483 534.105 249.389 534.893 253.728Z"/><path fill="#060B1E" d="M534.893 253.728C535.765 264.984 530.331 273.915 518.502 275.301C513.243 275.907 507.956 274.434 503.767 271.196C500.003 268.313 497.593 263.688 497.064 258.999C496.488 253.625 498.145 248.251 501.648 244.135C509.692 234.641 521.955 236.292 530.511 244.082L530.461 245.89C526.338 240.383 519.429 237.72 512.677 239.036C505.925 240.351 500.52 245.413 498.767 252.065C498.559 252.853 498.405 253.654 498.306 254.463C497.459 261.403 500.722 268.202 506.667 271.882C512.611 275.562 520.152 275.452 525.986 271.6C531.82 267.748 534.884 260.856 533.834 253.944L534.893 253.728Z"/><path fill="#0E1C5A" d="M498.306 254.463C498.373 253.268 498.349 253.158 498.767 252.065C498.559 252.853 498.405 253.654 498.306 254.463Z"/><path fill="#0E1C5A" d="M530.511 244.082C533.442 247.483 534.105 249.389 534.893 253.728L533.834 253.944C533.39 251.023 532.232 248.256 530.461 245.89L530.511 244.082Z"/><path fill="#4A98EC" d="M458.391 88.2549C460.779 86.2321 465.502 81.8459 468.567 84.8548C468.173 86.7678 466.468 87.4986 464.593 87.8625C452.851 95.4863 444.681 106.302 441.641 120.062C439.416 130.131 441.277 137.894 442.871 147.762C443.03 148.748 442.751 149.294 442.195 150.059C441.261 150.089 439.87 150.306 439.394 149.374C431.03 133.02 437.551 107.601 449.338 96.4295C450.011 94.3895 456.333 89.3704 458.391 88.2549Z"/><path fill="#264472" d="M442.195 150.059C441.261 150.089 439.87 150.306 439.394 149.374C431.03 133.02 437.551 107.601 449.338 96.4295C449.203 96.7083 449.068 96.9871 448.933 97.2659C440.63 109.236 434.479 122.629 437.279 137.526C438.068 141.724 437.88 148.156 442.195 150.059Z"/><path fill="#0E1C5A" d="M462.5 87.986L464.593 87.8625C452.851 95.4863 444.681 106.302 441.641 120.062C439.416 130.131 441.277 137.894 442.871 147.762C443.03 148.748 442.751 149.294 442.195 150.059C441.468 144.023 440 140.397 439.938 133.756C440.059 131.156 440.073 128.552 439.98 125.951C441.158 110.136 450.14 97.3544 462.5 87.986Z"/><path fill="#3A6DC7" d="M439.98 125.951C440.073 128.552 440.059 131.156 439.938 133.756C439.303 130.751 439.256 128.942 439.98 125.951Z"/><path fill="#4A98EC" d="M591.977 120.804C588.088 120.553 588.741 117.486 588.34 114.261C586.5 98.5011 574.742 83.0061 559.708 77.6938C555.221 76.1083 556.988 73.8498 560.504 73.9704C562.585 74.5253 563.586 74.8023 565.537 75.7292C576.879 80.8404 586.29 91.6581 590.584 103.236C592.142 107.436 595.634 117.394 591.977 120.804Z"/><path fill="#264472" d="M591.977 120.804C588.088 120.553 588.741 117.486 588.34 114.261C586.5 98.5011 574.742 83.0061 559.708 77.6938C555.221 76.1083 556.988 73.8498 560.504 73.9704C559.636 74.4575 558.755 74.6131 558.318 75.4059C558.238 75.4552 558.284 75.9664 558.368 75.9978C574.643 82.0688 586.437 95.7962 589.106 113.244C589.562 116.221 588.986 118.745 591.488 120.364C594.506 114.853 589.616 102.604 586.873 97.566C581.823 88.2914 574.984 81.6348 565.94 76.3165C565.805 76.1207 565.671 75.925 565.537 75.7292C576.879 80.8404 586.29 91.6581 590.584 103.236C592.142 107.436 595.634 117.394 591.977 120.804Z"/><path fill="#264472" d="M542.941 242.014C550.34 244.847 554.958 254.915 553.793 262.498C552.523 270.77 549.318 275.563 542.267 279.872C538.825 280.034 539.038 276.703 540.7 275.713C549.556 270.406 551.826 258.093 545.776 249.827C543.347 246.508 539.82 246.042 542.35 242.791L542.941 242.014Z"/><path fill="#4A98EC" d="M542.05 243.442C550.107 243.769 554.553 258.144 552.355 264.995C550.051 272.175 548.48 274.668 542.284 278.855C536.553 279.766 545.537 272.867 544.656 273.801C553.617 264.301 550.939 252.507 542.118 244.222C542.095 243.962 542.072 243.702 542.05 243.442Z"/></svg>