<?xml version="1.0" encoding="utf-8" ?><svg xmlns="http://www.w3.org/2000/svg" xmlns:xlink="http://www.w3.org/1999/xlink" width="1024" height="1024" viewBox="0 0 1024 1024"><path fill="white" d="M0 0L1024 0L1024 1024L0 1024L0 0Z"/><path fill="#FD9774" d="M274.465 304.127C273.644 296.637 273.77 287.24 274.169 279.653C276.635 232.797 295.476 186.727 324.712 150.254C364.842 101.04 422.74 69.6118 485.872 62.773C551.907 55.6458 614.189 74.7957 665.681 116.397C712.454 154.573 742.486 209.493 749.388 269.473C750.866 284.108 751.031 298.846 749.882 313.51C784.878 326.259 815.2 354.861 830.983 388.558C846.442 421.873 848.081 459.953 835.542 494.473C822.323 530.24 795.352 559.238 760.635 575.012C725.138 591.309 684.589 592.692 648.063 578.852C645.282 577.812 642.533 576.69 639.818 575.487C623.906 587.955 597.188 604.615 577.415 609.364L577.028 608.229C563.854 612.175 552.547 615.54 538.875 617.185C480.196 624.243 430.697 609.43 384.437 573.628L382.434 573.876L382.375 574.563L382.013 576.11C380.829 577.316 377.327 578.598 375.677 579.214C322.623 599.004 262.084 586.04 221.807 546.28C195.092 520.112 180.065 484.272 180.132 446.876C180.446 409.024 195.83 372.858 222.879 346.378C236.991 332.453 254.952 321.371 273.247 313.767C275.228 312.944 280.876 311.046 282.82 309.691C282.876 309.217 282.932 308.743 282.988 308.268C281.702 305.453 277.328 304.928 274.465 304.127Z"/><path fill="#FA522B" d="M274.465 304.127C273.644 296.637 273.77 287.24 274.169 279.653C276.635 232.797 295.476 186.727 324.712 150.254C364.842 101.04 422.74 69.6118 485.872 62.773C551.907 55.6458 614.189 74.7957 665.681 116.397C712.454 154.573 742.486 209.493 749.388 269.473C750.866 284.108 751.031 298.846 749.882 313.51C784.878 326.259 815.2 354.861 830.983 388.558C846.442 421.873 848.081 459.953 835.542 494.473C822.323 530.24 795.352 559.238 760.635 575.012C725.138 591.309 684.589 592.692 648.063 578.852C645.282 577.812 642.533 576.69 639.818 575.487C623.906 587.955 597.188 604.615 577.415 609.364L577.028 608.229C579.203 607.057 590.309 603.209 593.761 601.71C606.908 595.99 619.384 588.839 630.964 580.387C670.909 551.751 703.196 502.998 711.236 454.293C717.295 454.85 722.152 455.338 728.29 454.781C745.184 453.265 760.759 445.02 771.511 431.901C794.296 404.12 789.388 366.132 761.802 343.696L762.977 342.542C757.13 338.409 753.599 336.281 747.129 333.216L747.124 332.315C745.029 331.066 740.462 329.532 737.977 329.404L737.594 327.892C727.165 323.378 718.691 321.631 706.652 315.808L705.701 316.933C654.503 291.914 618.282 236.523 611.817 180.349L609.911 180.002C592.23 232.105 554.75 270.532 505.855 294.844C497.817 298.841 472.76 309.357 464.241 309.827L463.257 308.806C439.91 283.77 411.147 275.531 378.505 285.301C364.451 289.507 351.964 298.62 342.457 309.598C341.211 311.037 337.878 315.254 336.675 316.153L336.718 317.148C326.336 316.699 315.208 314.511 305.006 312.36L302.756 311.874C301.605 311.626 300.537 311.389 299.379 311.16C299.497 315.891 299.943 322.514 299.675 327.077L299.27 326.397L298.028 326.489C294.109 323.332 291.093 319.171 287.184 315.922C287.039 319.024 287.394 329.149 286.609 330.756L286.563 332.229C268.965 337.256 255.343 346.796 246.34 362.935C238.438 377.086 236.564 393.822 241.142 409.369C245.709 425.479 256.572 439.071 271.279 447.078C285.54 454.841 297.731 455.815 313.403 454.078C323.16 502.097 345.937 542.585 384.437 573.628L382.434 573.876L382.375 574.563L382.013 576.11C380.829 577.316 377.327 578.598 375.677 579.214C322.623 599.004 262.084 586.04 221.807 546.28C195.092 520.112 180.065 484.272 180.132 446.876C180.446 409.024 195.83 372.858 222.879 346.378C236.991 332.453 254.952 321.371 273.247 313.767C275.228 312.944 280.876 311.046 282.82 309.691C282.876 309.217 282.932 308.743 282.988 308.268C281.702 305.453 277.328 304.928 274.465 304.127Z"/><path fill="#FA522B" d="M382.375 574.563C374.51 579.15 356.908 583.621 348 585.043C310.094 591.291 271.26 582.185 240.083 559.737C156.359 498.616 164.183 378.212 252.096 325.775C261.984 319.878 274.184 315.089 284.74 310.395C284.236 310.619 285.244 308.116 285.537 307.719C287.521 307.732 295.551 310.296 297.81 310.947C298.026 316.118 298.359 321.33 298.028 326.489C294.109 323.332 291.093 319.171 287.184 315.922C287.039 319.024 287.394 329.149 286.609 330.756L286.563 332.229C268.965 337.256 255.343 346.796 246.34 362.935C238.438 377.086 236.564 393.822 241.142 409.369C245.709 425.479 256.572 439.071 271.279 447.078C285.54 454.841 297.731 455.815 313.403 454.078C323.16 502.097 345.937 542.585 384.437 573.628L382.434 573.876L382.375 574.563Z"/><path fill="#030000" d="M312.138 455.634C296.696 457.092 284.804 455.913 270.744 448.42C255.47 440.28 244.708 426.45 239.821 409.898C235.08 393.893 236.971 376.653 245.069 362.056C254.362 345.165 268.367 336.022 286.609 330.756L286.563 332.229C268.965 337.256 255.343 346.796 246.34 362.935C238.438 377.086 236.564 393.822 241.142 409.369C245.709 425.479 256.572 439.071 271.279 447.078C285.54 454.841 297.731 455.815 313.403 454.078C323.16 502.097 345.937 542.585 384.437 573.628L382.434 573.876C373.958 567.439 366.117 558.956 359.09 551.005C333.1 521.593 320.238 493.597 312.138 455.634Z"/><path fill="#FA522B" d="M749.652 314.969C785.936 329.466 815.99 356.801 831.489 392.957C845.807 426.317 846.252 464.006 832.726 497.695C818.573 532.957 790.851 561.057 755.785 575.689C721.526 590.234 681.546 590.808 646.836 577.123C645.083 576.432 642.848 575.412 641.171 574.535C669.793 550.977 691.548 520.151 704.154 485.29C707.289 476.793 711.041 464.684 712.403 455.866C732.37 457.566 748.337 454.748 764.291 441.414C777.714 430.235 786.026 414.087 787.323 396.666C788.926 376.585 778.912 354.776 762.977 342.542C757.13 338.409 753.599 336.281 747.129 333.216L747.124 332.315C748.809 327.66 749.196 320.134 749.652 314.969Z"/><path fill="#030000" d="M274.465 304.127C273.644 296.637 273.77 287.24 274.169 279.653C276.635 232.797 295.476 186.727 324.712 150.254C364.842 101.04 422.74 69.6118 485.872 62.773C551.907 55.6458 614.189 74.7957 665.681 116.397C712.454 154.573 742.486 209.493 749.388 269.473C750.866 284.108 751.031 298.846 749.882 313.51C784.878 326.259 815.2 354.861 830.983 388.558C846.442 421.873 848.081 459.953 835.542 494.473C822.323 530.24 795.352 559.238 760.635 575.012C725.138 591.309 684.589 592.692 648.063 578.852C645.282 577.812 642.533 576.69 639.818 575.487C623.906 587.955 597.188 604.615 577.415 609.364L577.028 608.229C579.203 607.057 590.309 603.209 593.761 601.71C606.908 595.99 619.384 588.839 630.964 580.387C670.909 551.751 703.196 502.998 711.236 454.293C717.295 454.85 722.152 455.338 728.29 454.781C745.184 453.265 760.759 445.02 771.511 431.901C794.296 404.12 789.388 366.132 761.802 343.696L762.977 342.542C778.912 354.776 788.926 376.585 787.323 396.666C786.026 414.087 777.714 430.235 764.291 441.414C748.337 454.748 732.37 457.566 712.403 455.866C711.041 464.684 707.289 476.793 704.154 485.29C691.548 520.151 669.793 550.977 641.171 574.535C642.848 575.412 645.083 576.432 646.836 577.123C681.546 590.808 721.526 590.234 755.785 575.689C790.851 561.057 818.573 532.957 832.726 497.695C846.252 464.006 845.807 426.317 831.489 392.957C815.99 356.801 785.936 329.466 749.652 314.969C749.196 320.134 748.809 327.66 747.124 332.315C745.029 331.066 740.462 329.532 737.977 329.404L737.594 327.892L746.156 330.492C748.992 312.507 749.794 294.26 748.547 276.096C743.48 215.66 714.643 159.703 668.364 120.506C619.637 78.635 556.143 58.0736 492.121 63.4333C428.753 68.7393 370.068 98.9327 328.909 147.405C293.328 189.475 271.497 247.861 276.072 303.239C289.505 307.232 301.042 310.336 314.88 312.92C318.653 313.624 334.757 315.445 336.675 316.153L336.718 317.148C326.336 316.699 315.208 314.511 305.006 312.36L302.756 311.874C301.605 311.626 300.537 311.389 299.379 311.16C299.497 315.891 299.943 322.514 299.675 327.077L299.27 326.397L298.028 326.489C298.359 321.33 298.026 316.118 297.81 310.947C295.551 310.296 287.521 307.732 285.537 307.719C285.244 308.116 284.236 310.619 284.74 310.395C274.184 315.089 261.984 319.878 252.096 325.775C164.183 378.212 156.359 498.616 240.083 559.737C271.26 582.185 310.094 591.291 348 585.043C356.908 583.621 374.51 579.15 382.375 574.563L382.013 576.11C380.829 577.316 377.327 578.598 375.677 579.214C322.623 599.004 262.084 586.04 221.807 546.28C195.092 520.112 180.065 484.272 180.132 446.876C180.446 409.024 195.83 372.858 222.879 346.378C236.991 332.453 254.952 321.371 273.247 313.767C275.228 312.944 280.876 311.046 282.82 309.691C282.876 309.217 282.932 308.743 282.988 308.268C281.702 305.453 277.328 304.928 274.465 304.127Z"/><path fill="#030000" d="M463.257 308.806C511.967 298.452 562.208 262.039 589.018 220.47C600.754 202.275 604.649 188.476 611.93 168.856C617.639 219.89 636.912 264.747 677.93 297.473C686.845 304.56 696.471 310.705 706.652 315.808L705.701 316.933C654.503 291.914 618.282 236.523 611.817 180.349L609.911 180.002C592.23 232.105 554.75 270.532 505.855 294.844C497.817 298.841 472.76 309.357 464.241 309.827L463.257 308.806Z"/><path fill="#EC8360" d="M609.911 180.002C611.181 176.588 611.225 177.167 611.817 180.349L609.911 180.002Z"/><path fill="#030000" d="M609.911 180.002L611.817 180.349C618.282 236.523 654.503 291.914 705.701 316.933L706.652 315.808C718.691 321.631 727.165 323.378 737.594 327.892L737.977 329.404C740.462 329.532 745.029 331.066 747.124 332.315L747.129 333.216C753.599 336.281 757.13 338.409 762.977 342.542L761.802 343.696C755.465 339.155 743.261 331.6 735.214 332.172C729.263 336.012 706.405 362.846 700.897 369.55C699.996 370.647 697.74 381.717 696.837 384.302C691.158 400.557 679.755 415.063 665.399 424.499C681.828 456.507 650.09 491.686 616.662 480.254C606.282 476.688 597.774 469.096 593.053 459.188C588.539 449.689 588.323 440.965 591.216 431.026C566.599 419.607 551.599 401.489 545.213 375.044C544.966 373.546 544.815 372.777 544.409 371.327L544.139 370.314L542.551 369.6C542.376 355.525 531.414 343.982 517.66 341.922C509.473 340.664 501.12 342.693 494.422 347.567C487.974 352.348 484.072 358.92 482.888 366.847C481.49 367.787 481.749 367.231 481.263 368.449C480.592 370.453 480.639 370.718 480.179 372.675C479.897 373.948 479.698 374.744 479.548 376.042C472.676 401.578 457.984 420.63 433.405 431.474C437.972 452.167 429.824 471.733 409.293 479.461C399.207 483.27 388.023 482.927 378.189 478.507C359.956 470.235 350.811 450.488 356.5 431.308C357.233 428.838 358.439 426.333 359.514 423.986C358.449 423.307 357.401 422.6 356.371 421.867C338.412 408.975 328.606 390.547 325.147 369.051C314.924 356.479 302.666 344.643 292.093 331.389C290.28 331.6 288.374 331.941 286.563 332.229L286.609 330.756C287.394 329.149 287.039 319.024 287.184 315.922C291.093 319.171 294.109 323.332 298.028 326.489L299.27 326.397L299.675 327.077C299.943 322.514 299.497 315.891 299.379 311.16C300.537 311.389 301.605 311.626 302.756 311.874L305.006 312.36C315.208 314.511 326.336 316.699 336.718 317.148L336.675 316.153C337.878 315.254 341.211 311.037 342.457 309.598C351.964 298.62 364.451 289.507 378.505 285.301C411.147 275.531 439.91 283.77 463.257 308.806L464.241 309.827C472.76 309.357 497.817 298.841 505.855 294.844C554.75 270.532 592.23 232.105 609.911 180.002Z"/><path fill="#FD9774" d="M609.911 180.002L611.817 180.349C618.282 236.523 654.503 291.914 705.701 316.933C711.576 320.064 718.31 322.902 724.514 325.312L725.358 331.302C716.946 338.433 709.213 347.104 700.605 354.539C699.591 318.585 669.323 287.392 634.241 282.068C613.523 279.117 592.469 284.328 575.518 296.6C559.259 308.386 548.313 326.116 545.062 345.932C538.518 342.323 534.553 339.318 527.021 337.425C508.758 332.834 496.482 335.85 480.741 344.576C476.065 327.543 473.971 324.563 464.241 309.827C472.76 309.357 497.817 298.841 505.855 294.844C554.75 270.532 592.23 232.105 609.911 180.002Z"/><path fill="#FD9774" d="M299.379 311.16C300.537 311.389 301.605 311.626 302.756 311.874L305.006 312.36C315.208 314.511 326.336 316.699 336.718 317.148C329.042 329.143 325.475 340.244 324.84 354.473C319.738 349.334 300.661 332.462 299.675 327.077C299.943 322.514 299.497 315.891 299.379 311.16Z"/><path fill="#FA522B" d="M737.977 329.404C740.462 329.532 745.029 331.066 747.124 332.315L747.129 333.216C745.935 332.764 738.163 330.213 737.845 329.729C737.889 329.621 737.933 329.513 737.977 329.404Z"/><path fill="white" d="M397.135 283.573C438.877 280.362 475.318 311.598 478.528 353.34C481.737 395.082 450.5 431.522 408.757 434.73C367.017 437.938 330.58 406.702 327.37 364.963C324.161 323.223 355.395 286.784 397.135 283.573Z"/><path fill="#030000" d="M398.907 287.62C438.448 285.428 472.274 315.717 474.445 355.259C476.615 394.801 446.308 428.61 406.764 430.759C367.252 432.905 333.475 402.627 331.306 363.116C329.138 323.605 359.397 289.811 398.907 287.62Z"/><path fill="#FD9774" d="M418.442 318.379C427.167 317.724 447.13 314.993 455.534 312.61C460.058 318.23 463.049 322.366 466.377 328.81C484.657 364.214 466.542 408.628 430.414 424.021C413.884 399.882 384.531 396.11 363.844 417.405C330.243 393.783 321.994 352.425 345.444 318.405C365.096 319.651 379.934 321.238 399.808 320.003C386.914 324.932 377.66 332.257 371.78 345.145C362.213 366.116 374.007 391.763 394.888 400.478C430.14 415.19 464.938 379.842 450.797 344.745C445.993 332.822 432.615 321.277 419.6 319.599L418.442 318.379Z"/><path fill="white" d="M404.621 320.585C427.236 316.872 448.539 332.313 452.046 354.961C455.554 377.608 439.919 398.77 417.241 402.072C394.851 405.332 374.018 389.94 370.555 367.581C367.093 345.223 382.294 324.25 404.621 320.585Z"/><path fill="#030000" d="M407.003 334.141C421.98 331.71 436.091 341.882 438.518 356.86C440.945 371.837 430.768 385.945 415.79 388.368C400.818 390.789 386.718 380.618 384.292 365.647C381.866 350.676 392.033 336.572 407.003 334.141Z"/><path fill="#FA522B" d="M398.662 289.198C399.796 289.078 400.935 289.02 402.075 289.022C422.928 289.007 440.12 296.856 454.716 311.477C437.84 314.829 420.78 317.173 403.625 318.497C382.054 319.324 368.312 319.129 346.483 316.987C360.555 299.919 376.796 291.445 398.662 289.198Z"/><path fill="#F07275" d="M392.384 405.178C408.329 404.668 420.215 411.494 428.968 424.599C419.382 427.817 411.55 429.267 401.49 429.345C386.218 428.153 377.755 425.763 364.704 417.895C374.661 410.018 379.631 406.691 392.384 405.178Z"/><path fill="#813F38" d="M419.6 319.599C418.524 319.438 416.423 319.125 415.436 318.756L415.471 318.702C416.35 318.414 417.474 318.438 418.442 318.379L419.6 319.599Z"/><path fill="white" d="M614.367 284.095C656.037 279.713 693.342 310.009 697.602 351.691C701.861 393.374 671.457 430.59 629.762 434.728C588.239 438.849 551.21 408.597 546.968 367.086C542.726 325.576 572.869 288.459 614.367 284.095Z"/><path fill="#030000" d="M618.647 287.241C658.49 285.189 692.431 315.871 694.398 355.718C696.366 395.566 665.613 429.442 625.762 431.326C586.028 433.204 552.274 402.562 550.313 362.833C548.351 323.104 578.922 289.286 618.647 287.241Z"/><path fill="#FD9774" d="M617.812 288.688C640.659 285.803 666.165 299.796 679.557 317.797C690.667 332.95 695.262 351.914 692.319 370.472C689.289 390.539 677.759 406.339 661.631 418.102C660.009 416.517 658.314 415.008 656.552 413.58C646.167 405.145 635.602 402.691 622.58 404.075C621.646 404.248 620.717 404.452 619.796 404.687C608.735 407.458 599.993 414.38 594.256 424.138C525.462 390.661 543.592 297.116 617.812 288.688Z"/><path fill="#030000" d="M607.211 318.984C630.497 316.305 651.567 332.953 654.347 356.226C657.127 379.5 640.571 400.643 617.309 403.524C593.905 406.422 572.603 389.742 569.806 366.325C567.009 342.908 583.782 321.679 607.211 318.984Z"/><path fill="white" d="M606.099 320.547C628.639 317.246 649.575 332.877 652.814 355.427C656.053 377.976 640.363 398.868 617.805 402.045C595.335 405.209 574.542 389.593 571.316 367.133C568.09 344.672 583.647 323.835 606.099 320.547Z"/><path fill="#030000" d="M607.425 334.119C622.414 331.552 636.648 341.616 639.226 356.603C641.803 371.591 631.749 385.832 616.764 388.42C601.763 391.011 587.505 380.945 584.925 365.942C582.345 350.94 592.421 336.689 607.425 334.119Z"/><path fill="#F07275" d="M624.789 405.144C639.01 403.898 650.503 408.985 660.322 419C649.972 425.254 642.649 427.214 631.07 429.225C616.949 430.824 608.801 429.231 595.498 424.629C596.229 423.395 597.051 422.018 597.921 420.874C604.459 412.3 614.113 406.648 624.789 405.144Z"/><path fill="#F07275" d="M360.557 424.696C383.821 438.304 406.636 441.614 432.159 431.765C434.984 447.078 432.893 456.424 423.114 468.605C419.296 472.558 414.694 475.667 409.602 477.733C399.829 481.695 388.871 481.551 379.206 477.333C369.666 473.204 362.224 465.36 358.602 455.616C354.436 444.568 355.812 435.127 360.557 424.696Z"/><path fill="#F07275" d="M663.59 425.531C666.793 427.701 668.031 437.056 668.153 440.879C668.48 451.145 665.376 460.676 658.268 468.211C650.901 476.05 640.667 480.561 629.911 480.711C618.232 480.908 609.661 476.801 601.44 468.789C599.14 466.366 597.158 463.659 595.544 460.734C590.257 451.202 589.505 441.787 592.414 431.437C596.551 433.222 600.843 434.629 605.235 435.639C625.255 440.217 646.276 436.576 663.59 425.531Z"/><path fill="#E09C3B" d="M725.828 325.842C727.42 326.201 729.964 326.322 729.09 328.27C725.859 329.923 726.277 329.535 725.828 325.842Z"/><path fill="#F07275" d="M482.888 366.847C484.072 358.92 487.974 352.348 494.422 347.567C501.12 342.693 509.473 340.664 517.66 341.922C531.414 343.982 542.376 355.525 542.551 369.6L544.139 370.314L544.409 371.327C544.815 372.777 544.966 373.546 545.213 375.044C544.308 376.488 544.353 376.54 543.993 378.221L543.941 424.437C543.928 430.664 544.336 447.405 542.998 452.704C541.596 458.073 538.809 462.98 534.916 466.934C528.98 472.99 520.865 476.416 512.385 476.446C504.001 476.436 495.978 473.032 490.144 467.01C486.24 463.076 483.459 458.171 482.088 452.801C480.691 447.118 481.023 436.4 481.026 430.195L481.051 397.222C481.051 392.318 481.254 384.813 480.977 380.154C480.1 377.912 481.18 376.384 479.548 376.042C479.698 374.744 479.897 373.948 480.179 372.675C480.639 370.718 480.592 370.453 481.263 368.449C481.749 367.231 481.49 367.787 482.888 366.847Z"/><path fill="#030000" d="M481.263 368.449C481.749 367.231 481.49 367.787 482.888 366.847C482.568 384.228 482.447 401.613 482.526 418.998C482.505 426.858 481.996 444.823 483.432 451.474C484.578 456.965 487.244 462.024 491.128 466.073C502.399 477.847 521.703 477.921 533.238 466.488C537.418 462.363 540.321 457.122 541.601 451.391C543.072 444.856 542.485 427.03 542.474 419.296L542.592 373.258L542.551 369.6L544.139 370.314L544.409 371.327C544.815 372.777 544.966 373.546 545.213 375.044C544.308 376.488 544.353 376.54 543.993 378.221L543.941 424.437C543.928 430.664 544.336 447.405 542.998 452.704C541.596 458.073 538.809 462.98 534.916 466.934C528.98 472.99 520.865 476.416 512.385 476.446C504.001 476.436 495.978 473.032 490.144 467.01C486.24 463.076 483.459 458.171 482.088 452.801C480.691 447.118 481.023 436.4 481.026 430.195L481.051 397.222C481.051 392.318 481.254 384.813 480.977 380.154C480.1 377.912 481.18 376.384 479.548 376.042C479.698 374.744 479.897 373.948 480.179 372.675C480.639 370.718 480.592 370.453 481.263 368.449Z"/><path fill="#EC8360" d="M480.179 372.675C480.491 372.812 480.802 372.949 481.114 373.086C481.074 375.55 481.13 377.674 480.977 380.154C480.1 377.912 481.18 376.384 479.548 376.042C479.698 374.744 479.897 373.948 480.179 372.675Z"/><path fill="#FA522B" d="M544.409 371.327C544.815 372.777 544.966 373.546 545.213 375.044C544.308 376.488 544.353 376.54 543.993 378.221C543.969 375.358 543.918 374.126 544.409 371.327Z"/><path fill="#813F38" d="M481.263 368.449C481.466 370.249 481.733 371.383 481.114 373.086C480.802 372.949 480.491 372.812 480.179 372.675C480.639 370.718 480.592 370.453 481.263 368.449Z"/><path fill="#030000" d="M466.973 506.872C467.817 507.767 472.436 520.986 475.287 524.966C495.052 552.561 537.593 549.567 553.401 519.594C554.82 516.904 556.824 508.231 558.201 507.278L558.769 508.013C558.098 511.111 557.53 513.516 556.364 516.484C551.919 527.65 543.241 536.608 532.221 541.405C507.311 552.285 478.829 541.353 468.671 515.895C467.654 513.345 465.921 509.466 466.973 506.872Z"/><path fill="#030000" d="M382.434 573.876L384.437 573.628C430.697 609.43 480.196 624.243 538.875 617.185C552.547 615.54 563.854 612.175 577.028 608.229L577.415 609.364C578.147 618.739 577.402 634.662 576.651 644.226C627.503 646.946 682.077 670.085 721.77 701.595C779.211 746.347 816.465 812.132 825.298 884.411C827.745 905.901 829.108 928.5 814.435 946.224C796.135 968.33 775.339 965.988 749.493 966L698.834 966.013L533.039 965.977L340.638 965.909L280.722 965.913C271.188 965.919 255.253 966.371 246.145 965.509C235.503 964.502 225.412 960.312 217.185 953.486C196.429 936.463 196.558 914.394 198.586 889.902C203.065 835.822 225.965 783.331 260.558 741.787C307.4 685.475 374.865 650.296 447.852 644.124C447.183 632.608 446.887 621.072 446.965 609.537C426.381 602.287 407.356 593.081 390.113 579.696C386.864 577.175 385.493 575.573 382.013 576.11L382.375 574.563L382.434 573.876Z"/><path fill="#069F75" d="M199.46 894.933C200.27 858.28 217.25 810.094 236.006 778.954C275.362 713.616 333.692 670.531 407.348 651.819C409.159 669.013 417.479 686.405 428.819 699.315C449.571 722.937 475.685 734.839 506.753 737.073C510.198 736.915 513.105 736.854 516.563 737.056L519.638 736.856C520.397 736.252 520.446 736.389 521.349 736.637C549.557 734.698 575.872 721.748 594.619 700.582C607.83 685.698 614.016 671.294 618.54 652.187C641.578 658.453 660.539 665.105 681.789 676.592C764.253 721.168 821.427 808.027 825.271 902.205C825.584 909.876 825.372 918.936 823.386 926.343C819.717 939.558 811.015 950.809 799.148 957.684C793.17 961.098 787.267 963.022 780.522 964.169C780.052 964.326 780.156 964.307 779.673 964.345C771.426 965.023 760.241 964.688 751.769 964.681L703.307 964.616C703.369 958 703.359 951.383 703.276 944.768C704.621 944.636 705.962 944.46 707.295 944.241C720.445 942.086 732.185 934.755 739.893 923.884C748.741 911.345 750.04 899.559 748.198 884.547C745.845 865.363 718.436 822.911 702.993 811.945C702.882 789.838 702.946 767.73 703.184 745.623C698.974 747.05 694.736 748.395 690.473 749.656L690.611 733.691C684.208 736.24 676.678 738.481 670.089 740.524C670 736.941 670.659 726.74 668.762 724.47L667.304 724.94L667.732 726.093C663.843 727.843 655.818 730.496 651.557 731.751L649.96 730.649C610.119 744.599 568.066 753.441 533.905 778.948C524.875 785.691 520.477 792.878 513.763 798.141C517.46 790.197 520.507 785.095 525.956 778.209L524.343 778.049C523.236 779.501 520.847 782.46 520.054 783.93C520.029 784.31 519.977 784.312 519.626 784.498C519.302 784.979 518.502 786.09 518.312 786.559C517.697 788.366 518.025 788.682 516.675 789.437C515.54 792.462 515.27 795.102 512.255 796.098C499.36 768.765 471.264 750.927 443.799 740.75C420.456 732.1 397.314 721.752 373.968 713.243L374.109 730.85C369.731 729.282 358.51 725.71 355.051 723.962C355.015 729.222 355.106 735.343 354.899 740.544C348.203 738.622 340.991 736.262 334.319 734.607C334.163 739.45 334.091 744.875 333.768 749.653C329.504 748.413 324.271 746.738 319.994 745.893L320.095 793.283C320.118 799.879 320.534 809.677 320.222 816.03C301.158 838.648 275.861 868.25 278.549 899.532C280.718 924.769 297.547 938.549 320.418 944.747L320.542 964.55L275.556 964.603C265.266 964.623 248.059 965.349 238.754 962.979C229.452 960.615 220.957 955.795 214.156 949.024C202.87 937.798 198.907 924.013 198.982 908.457C198.986 906.22 199.022 903.983 199.089 901.747C198.811 898.141 198.387 898.085 199.46 894.933Z"/><path fill="white" d="M525.956 778.209C547.278 755.791 561.246 750.26 588.788 738.981C609.118 730.813 629.534 722.858 650.032 715.118C650.057 720.295 650.033 725.472 649.96 730.649C610.119 744.599 568.066 753.441 533.905 778.948C524.875 785.691 520.477 792.878 513.763 798.141C517.46 790.197 520.507 785.095 525.956 778.209Z"/><path fill="#020A07" d="M524.343 778.049C532.998 768.269 543.092 759.865 554.278 753.126C566.049 746.097 586.575 738.207 599.868 733.056L651.524 713.058L651.498 730.361C656.73 728.46 661.954 726.471 667.304 724.94L667.732 726.093C663.843 727.843 655.818 730.496 651.557 731.751L649.96 730.649C650.033 725.472 650.057 720.295 650.032 715.118C629.534 722.858 609.118 730.813 588.788 738.981C561.246 750.26 547.278 755.791 525.956 778.209L524.343 778.049Z"/><path fill="#020A07" d="M512.255 796.098C513.52 794.168 515.36 791.005 516.675 789.437C515.54 792.462 515.27 795.102 512.255 796.098Z"/><path fill="#0C513C" d="M506.753 737.073C510.198 736.915 513.105 736.854 516.563 737.056C513.331 737.76 509.987 737.765 506.753 737.073Z"/><path fill="#0C513C" d="M199.46 894.933C199.527 897.812 199.524 898.971 199.089 901.747C198.811 898.141 198.387 898.085 199.46 894.933Z"/><path fill="#0C513C" d="M519.638 736.856C520.397 736.252 520.446 736.389 521.349 736.637C520.588 737.097 520.578 736.977 519.638 736.856Z"/><path fill="#020A07" d="M518.312 786.559C517.697 788.366 518.025 788.682 516.675 789.437C517.083 788.196 517.583 787.641 518.312 786.559Z"/><path fill="#FEB016" d="M321.29 747.727C360.654 758.597 399.782 770.964 438.958 782.224L466.729 790.143C472.814 791.892 480.54 794.398 486.705 795.306C486.316 812.046 486.528 829.52 486.51 846.305L486.539 964.613L321.834 964.55L321.663 944.956C324.553 945.028 330.911 945.253 333.519 944.851C349.63 942.324 365.424 937.58 381.426 934.424C388.405 933.047 396.729 934.173 403.57 932.478C416.683 929.229 418.172 915.807 409.287 906.908C415.369 905.958 419.26 905.927 423.385 900.669C425.688 897.734 426.596 893.64 425.954 889.972C425.316 886.222 423.14 882.909 419.951 880.834C418.896 880.153 417.956 879.67 416.834 879.125C421.168 876.764 423.863 874.868 425.508 869.734C426.668 866.078 426.271 862.106 424.412 858.751C417.726 846.839 401.511 853.987 391.215 856.763L390.215 854.561C395.702 852.272 401.899 850.159 404.37 844.265C407.486 836.83 403.852 828.619 396.491 825.709C394.119 824.769 391.525 824.541 389.025 825.051C383.823 826.08 370.711 831.579 365.165 833.752C352.48 838.721 339.749 843.576 326.975 848.314C329.3 841.891 331.713 835.469 332.376 828.598C333.064 821.483 333.747 806.243 322.12 813.632C321.276 812.068 320.988 754.052 321.29 747.727Z"/><path fill="#FEB016" d="M539.349 795.722L625.144 770.384C640.614 765.962 656.041 761.385 671.42 756.655C681.5 753.646 691.724 750.849 701.683 747.494C701.381 768.221 701.538 790.18 701.712 810.944C700.402 811.827 698.141 813.16 697.612 814.665C693.7 825.794 697.09 837.857 701.55 848.472C689.163 843.92 676.73 839.357 664.372 834.746C658.191 832.44 643.43 826.144 637.654 825.099C634.852 824.605 631.968 824.906 629.328 825.966C625.802 827.369 623.007 830.159 621.598 833.683C615.952 847.956 629.961 852.229 639.9 856.249L637.531 857.196C631.847 855.659 622.789 852.767 617.208 852.287C600.797 850.873 594.35 870.953 610.023 879.156C605.54 881.432 602.293 884.62 601.32 889.77C600.612 893.51 601.516 897.376 603.811 900.413C607.512 905.364 611.643 906.207 617.19 906.977L616.816 907.327L616.202 907.921C613.044 910.944 610.877 914.191 610.981 918.669C611.403 936.802 634.279 932.053 645.362 934.299C664.28 938.133 682.901 945.215 702.009 945.052L702.068 964.568L539.256 964.636C540.142 909.086 539.564 851.377 539.349 795.722Z"/><path fill="#FD9774" d="M700.487 812.856C704.465 813.934 707.775 817.207 710.423 820.469C735.263 851.07 768.927 898.187 730.186 932.339C705.828 953.811 674.969 938.493 647.736 933.329C641.489 932.145 634.912 931.865 628.55 931.36C619.548 930.717 611.73 928.121 612.542 917.197C612.849 913.058 616.032 909.826 619.299 907.389L619.896 906.949C623.166 907.122 648.367 909.059 649.464 908.323C647.163 906.112 643.004 906.988 640.126 906.556C626.601 904.525 604.494 910.647 602.347 891.826C603.959 884.997 605.754 882.519 612.282 879.741C617.351 880.727 647.642 888.041 650.324 886.992C648.855 886.039 644.617 885.306 642.647 884.838C636.538 883.379 630.586 881.942 624.434 880.602C615.972 878.758 602.472 878.612 602.527 866.755C602.561 859.343 607.496 853.766 615.034 853.701C619.601 853.763 624.159 855.32 628.586 856.391C635.829 858.143 643.057 860.015 650.298 861.766C654.807 862.857 659.546 864.359 664.15 864.646C654.462 859.869 628.917 852.914 623.86 844.99C622.042 842.193 621.538 838.741 622.481 835.541C625.381 825.437 635.585 825.439 643.862 828.493C663.917 835.893 684.325 844.44 704.556 851.237C700.075 842.52 692.985 821.288 700.487 812.856Z"/><path fill="#FD9774" d="M327.281 812.893C331.484 814.084 331.222 820.462 331.216 823.945C331.2 833.623 327.914 842.409 324.062 851.145L362.002 836.519C374.779 831.471 405.611 814.137 403.734 842.446C403.153 851.208 370.242 860.282 362.848 864.413C372.465 863.517 408.264 852.918 413.802 853.579C417.237 854.023 420.343 855.847 422.404 858.631C424.395 861.34 425.19 864.746 424.602 868.057C422.779 878.197 412.676 877.792 405.313 880.051C399.676 881.781 379.414 884.803 376.179 887.144L376.518 887.617C389.723 888.55 422.555 868.611 424.709 892.204C423.07 906.728 411.543 905.189 400.343 906.12C395.434 906.529 381.086 905.943 377.645 908.041C380.295 909.177 402.243 907.331 406.535 907.04C414.745 913.1 416.871 925.335 406.179 930.053C401.13 932.281 387.747 932.193 381.193 933.041C358.772 935.94 334.265 949.282 312.027 940.911C282.412 929.267 273.609 901.119 284.176 872.563C286.229 867.036 288.731 861.687 291.656 856.568C297.448 846.384 317.378 817.441 327.281 812.893Z"/><path fill="white" d="M445.763 645.72C446.188 645.646 446.974 645.725 447.446 645.748C448.962 647.628 448.773 651.987 449.521 654.532C456.214 677.308 475.238 695.486 499.086 700.309C516.268 703.749 534.113 700.194 548.663 690.43C565.712 679.068 572.791 664.799 576.725 645.448C592.245 646.843 601.968 648.629 617.385 651.878C612.902 669.797 608.529 680.887 597.142 695.482C579.838 716.407 558.314 729.667 531.39 734.248C502.429 739.446 472.595 732.775 448.607 715.737C426.209 699.676 412.884 678.894 408.441 651.802C420.721 648.887 433.193 646.854 445.763 645.72Z"/><path fill="#FEB016" d="M537.349 797.886C538.516 799.237 538.007 849.814 538.007 855.799L537.893 964.553L487.803 964.645L487.806 955.125L487.994 797.848C493.805 805.264 504.566 810.311 514.013 809.779C523.799 809.227 530.867 804.936 537.349 797.886Z"/><path fill="#FD9774" d="M448.523 614.718C449.734 615.556 452.279 618.066 453.426 619.191C483.135 648.303 546.326 648.896 576.013 619.316C576.785 637.928 576.103 651.598 567.433 668.294C564.516 673.234 561.841 677.021 557.785 681.158C545.809 693.228 529.514 700.024 512.511 700.038C495.386 700.154 478.93 693.394 466.832 681.272C447.634 662.146 448.632 639.843 448.523 614.718Z"/><path fill="white" d="M335.501 736.374L400.412 755.52C435.407 765.734 472.554 773.604 501.878 795.686L500.844 796.659C493.508 793.296 460.919 776.732 455.201 777.922C456.371 779.849 461.562 780.721 463.701 781.541C476.121 786.302 486.977 790.631 498.309 797.721L384.503 764.604C374.783 761.846 365.082 759.024 355.399 756.139C348.931 754.194 341.401 751.682 334.91 750.157C335.375 745.854 335.384 740.758 335.501 736.374Z"/><path fill="white" d="M524.95 794.884C551.404 774.286 586.116 767.063 617.67 757.552C641.563 750.35 665.484 743.725 689.163 735.718L688.903 750.16C650.469 761.037 612.024 773.287 573.564 784.142C566.022 786.271 545.066 793.203 538.626 793.838C538.542 793.056 538.463 792.331 538.354 791.551C546.463 787.4 555.313 784.34 563.817 781.095C565.879 780.308 568.932 779.457 570.661 778.183L570.514 777.607C565.96 777.369 530.591 793.312 525.517 796.127L524.95 794.884Z"/><path fill="white" d="M356.487 726.505C371.528 731.217 386.544 736.005 401.536 740.869C431.227 750.436 466.726 760.953 491.221 780.718C493.81 782.807 506.244 794.508 506.488 797.485C504.284 795.989 502.096 794.204 499.9 792.614C465.515 767.72 421.265 761.802 381.717 748.554C373.744 745.883 364.174 743.09 356.052 741.06L356.487 726.505Z"/><path fill="white" d="M667.732 726.093C668.975 727.891 668.558 737.955 668.542 740.916C649.988 746.522 631.404 752.03 612.792 757.442C572.347 769.128 551.208 773.254 516.882 798.655C547.274 757.172 606.871 749.115 651.557 731.751C655.818 730.496 663.843 727.843 667.732 726.093Z"/><path fill="white" d="M375.29 715.139C391.479 721.717 407.725 728.153 424.027 734.446C449.964 744.541 476.361 753.523 495.607 774.622C500.894 780.419 507.695 789.96 510.064 797.384C502.929 791.128 498.127 783.934 489.522 777.546C466.166 760.206 438.611 751.41 411.275 742.527C399.402 738.668 387.227 734.537 375.339 731.022C375.076 725.99 375.251 720.229 375.29 715.139Z"/><path fill="#E2DEDD" d="M489.766 796.372C491.283 796.678 504.506 799.859 504.49 800.974C504.002 800.944 500.169 800.304 500.169 800.304C495.304 803.107 491.736 799.949 489.766 796.372Z"/><path fill="#E09C3B" d="M379.473 859.246L390.215 854.561L391.215 856.763C387.175 857.653 383.584 858.511 379.473 859.246Z"/><path fill="#EDD6B9" d="M529.417 797.963L531.214 797.356C532.56 796.908 534.965 796.401 536.397 796.055C534.625 798.176 533.972 799.534 531.586 800.689C530.589 799.619 530.043 799.268 529.417 797.963Z"/><path fill="#E2DEDD" d="M531.396 794.704C533.756 793.927 536.065 792.635 538.354 791.551C538.463 792.331 538.542 793.056 538.626 793.838C537.034 794.259 534.227 795.172 532.632 795.692L531.396 794.704Z"/><path fill="#E2DEDD" d="M520.296 801.012C522.118 800.266 525.057 798.876 526.796 798.46L527.561 801.065L520.296 801.012Z"/><path fill="#DFCEBE" d="M526.796 798.46C527.98 798.306 528.27 798.276 529.417 797.963C530.043 799.268 530.589 799.619 531.586 800.689C529.989 800.733 529.168 800.843 527.561 801.065L526.796 798.46Z"/><path fill="#E2DEDD" d="M519.117 799.411C520.913 797.968 523.112 796.283 524.95 794.884L525.517 796.127C523.422 797.569 521.292 798.732 519.273 800.154L519.117 799.411Z"/><path fill="#8E9091" d="M532.632 795.692C531.317 796.343 530.717 796.304 529.31 796.711C523.642 798.354 530.315 795.17 531.396 794.704L532.632 795.692Z"/><path fill="#E09C3B" d="M639.9 856.249C640.861 856.576 641.657 856.984 642.631 857.354L641.718 858.301C640.061 857.762 639.241 857.547 637.531 857.196L639.9 856.249Z"/><path fill="#E2DEDD" d="M501.878 795.686C502.808 796.339 503.724 797.007 504.635 797.687C505.378 798.233 506.128 798.767 506.887 799.291C504.698 798.488 502.935 797.733 500.844 796.659L501.878 795.686Z"/><path fill="#AB783E" d="M642.631 857.354C643.202 857.545 644.861 857.978 645.053 858.646C644.765 858.829 642.208 858.37 641.718 858.301L642.631 857.354Z"/><path fill="#6D6D6E" d="M519.117 799.411L519.273 800.154C517.534 802.785 516.375 802.064 519.117 799.411Z"/><path fill="#404146" d="M508.17 799.566C508.291 799.494 508.431 799.353 508.589 799.386C508.732 799.562 508.708 799.704 508.756 799.981C508.382 800.042 508.524 800.036 508.303 800.025C508.153 799.896 508.196 799.833 508.17 799.566Z"/><path fill="#8E9091" d="M511.831 799.167C511.92 799.158 512.01 799.15 512.099 799.141C512.182 799.29 512.143 799.175 512.147 799.58C512.042 799.442 511.936 799.305 511.831 799.167Z"/></svg>