<?xml version="1.0" encoding="utf-8" ?><svg xmlns="http://www.w3.org/2000/svg" xmlns:xlink="http://www.w3.org/1999/xlink" width="1024" height="1024" viewBox="0 0 1024 1024"><path fill="white" d="M0 0L1024 0L1024 586.707L1024 597.839L1024 1024L784.723 1024L755.217 1024L0 1024L0 0Z"/><path fill="#6F2813" d="M564.248 193.867C575.857 171.563 601.143 150.776 625.217 143.08C650.715 134.985 678.375 137.264 702.204 149.424C729.714 163.612 748.283 190.193 757.451 219.323C777.525 283.101 760.188 357.105 730.186 414.93C724.939 425.044 712.257 447.903 704.915 456.68C782.298 434.768 865.221 444.557 935.375 483.886C969.253 503.224 1010.31 537.423 1021.59 576.306C1022.58 579.71 1023.11 583.406 1024 586.707L1024 597.839L1024 1024L784.723 1024L755.217 1024C736.902 1020.31 718.699 1019.77 699.909 1014.33C694.237 1012.69 653.822 1001.78 653.741 1001.79C652.723 1005.44 649.486 1005.55 646.017 1006.47C633.841 1009.74 621.185 1010.86 608.624 1009.77C573.572 1006.99 544.339 993.294 513.832 976.948C440.165 937.477 364.7 891.927 307.954 829.693C276.316 794.995 250.556 750.066 254.204 701.661C256.831 668.057 276.829 633.108 298.636 608.02C302.196 603.923 308.482 596.432 312.598 592.944L314.215 590.877C315.232 589.941 315.776 589.036 316.559 587.91C355.295 551.97 409.745 494.349 460.821 478.31C465.65 476.187 475.572 474.622 480.778 474.754C503.133 434.863 518.575 391.476 526.448 346.431C530.117 324.318 531.103 304.876 533.025 282.723C535.797 250.782 547.33 222.213 563.435 194.702L564.248 193.867Z"/><path fill="white" d="M1024 597.839L1024 1024L784.723 1024C801.768 1019.94 813.838 1015.81 821.204 998.678C822.826 994.907 824.822 989.346 827.808 986.577C830.613 983.991 834.432 982.449 837.474 980.207C847.674 972.688 853.215 960.178 849.859 947.634C847.852 940.129 844.608 935.256 840.156 929.051C858.753 928.075 871.592 926.924 889.807 919.912C924.037 906.735 957.133 869.645 942.577 830.94C936.274 814.178 919.96 807.124 904.226 800.636C909.372 799.631 915.848 799.151 921.178 798.532C955.547 794.538 994.701 776.927 997.785 737.742C1000.68 700.921 980.942 668.834 957.709 641.878C981.009 640.966 1004.43 637.685 1017.97 615.963C1021.59 610.157 1022.54 604.4 1024 597.839Z"/><path fill="#210705" d="M564.248 193.867C564.602 194.77 564.967 195.34 564.284 196.322C552.537 213.21 545.163 233.787 539.713 253.524C533.534 275.904 533.839 298.639 531.332 321.395C527.186 359.62 517.567 397.052 502.77 432.541C500.499 437.897 483.714 473.866 481.288 475.247L480.778 474.754C503.133 434.863 518.575 391.476 526.448 346.431C530.117 324.318 531.103 304.876 533.025 282.723C535.797 250.782 547.33 222.213 563.435 194.702L564.248 193.867Z"/><path fill="#461010" d="M460.821 478.31C459.338 480.523 456.633 481.163 454.191 482.044C447.59 484.425 441.355 487.186 435.197 490.759C390.906 516.452 355.084 554.427 318.112 589.236C315.992 591.232 313.729 594.634 311.533 596.152C311.948 594.807 311.895 594.83 312.707 593.699L312.598 592.944L314.215 590.877C315.232 589.941 315.776 589.036 316.559 587.91C355.295 551.97 409.745 494.349 460.821 478.31Z"/><path fill="#F8C798" d="M656.698 141.712C666.956 141.032 682.242 144.659 691.788 148.508C717.974 159.213 737.732 180.057 748.78 206.415C775.466 270.086 760.08 345.598 731.214 405.789C727.926 412.645 704.071 455.868 699.713 457.305C641.721 476.429 603.728 513.762 630.955 577.548C603.729 598.294 570.951 624.805 563.215 660.612C557.952 684.972 572.852 705.65 586.073 724.652C584.126 726.462 581.507 728.458 579.391 730.118C559.882 745.418 542.669 765.427 536.486 790.003C529.704 816.959 539.361 844.465 558.41 864.122C540.983 885.939 531.092 909.69 540.728 937.434C550.108 964.437 576.675 979.791 601.21 991.209C573.481 988.887 552.621 977.82 528.34 965.769C475.125 937.633 418.138 903.592 372.428 864.349C327.927 825.422 283.584 777.016 277.68 715.489C273.387 670.76 296.91 633.945 324.284 601.208C344.849 576.939 368.123 556.035 392.399 535.64C420.871 511.719 453.591 484.849 492.239 481.879C513.858 445.572 531.557 396.987 539.119 355.642C541.634 341.947 543.556 328.15 544.882 314.289C545.843 303.359 546.183 292.329 547.428 281.438C554.326 221.095 587.98 147.459 656.698 141.712Z"/><path fill="#F8C798" d="M693.998 466.293C699.173 463.858 705.979 460.528 711.397 458.889C769.316 441.717 834.469 447.59 890.916 467.659C939.819 485.045 990.455 518.246 1014.04 565.934C1026.71 591.575 1021.93 619.752 994.099 631.801C978.706 638.465 965.483 638.789 949.056 638.211C971.1 656.778 991.901 695.07 994.245 723.644C995.577 739.867 992.16 755.343 981.306 767.873C963.859 788.014 934.393 794.731 908.825 796.314C836.762 800.777 680.478 777.743 625.443 729.386C621.38 725.816 617.731 721.723 613.888 717.917C604.669 714.084 593.979 693.163 590.405 684.392C578.419 657.294 592.603 633.914 609.363 612.851C612.986 608.298 624.383 594.722 630.162 594.103C631.304 593.497 643.428 583.887 645.447 582.331C647.439 577.993 650.497 577.857 654.247 575.518C654.651 575.505 656.245 574.08 656.08 573.742C635.635 531.939 647.236 490.375 688.46 466.607L688.805 466.806C677.348 475.486 666.142 483.061 658.378 495.454C657.356 497.086 654.967 499.573 655.216 501.402C664.75 486.112 675.049 476.315 690.84 467.113C692.958 465.879 692.402 465.83 693.998 466.293Z"/><path fill="#783B19" d="M590.405 684.392C578.419 657.294 592.603 633.914 609.363 612.851C612.986 608.298 624.383 594.722 630.162 594.103C611.29 611.245 590.343 635.133 588.098 662.109C587.383 670.699 590.273 677.996 593.198 685.958C600.502 698.926 604.243 706.226 613.888 717.917C604.669 714.084 593.979 693.163 590.405 684.392Z"/><path fill="#783B19" d="M645.447 582.331C647.439 577.993 650.497 577.857 654.247 575.518C654.651 575.505 656.245 574.08 656.08 573.742C635.635 531.939 647.236 490.375 688.46 466.607L688.805 466.806C677.348 475.486 666.142 483.061 658.378 495.454C657.356 497.086 654.967 499.573 655.216 501.402C664.75 486.112 675.049 476.315 690.84 467.113C692.958 465.879 692.402 465.83 693.998 466.293L693.459 466.721C692.002 467.861 688.883 469.81 687.237 470.763C653.335 490.387 638.506 527.209 654.981 563.737C656.477 567.053 657.961 570.562 660.037 573.638C654.43 576.603 650.757 579.023 645.447 582.331Z"/><path fill="#F8C798" d="M610.014 720.36C611.535 720.947 622.221 731.47 624.572 733.503C628.056 736.464 631.651 739.292 635.349 741.981C654.654 755.842 692.153 769.412 714.998 775.715C750.098 785.08 785.843 791.836 821.939 795.93C837.026 797.798 852.179 799.078 867.366 799.764C874.119 800.045 889.579 799.248 894.912 800.716C911.022 805.592 933.259 814.593 939.065 832.155C952.571 873.01 920.118 903.965 885.637 917.545C860.573 926.276 834.226 926.492 808.058 923.703C760.659 918.65 712.543 907.84 666.485 895.736C647.409 890.223 626.058 885.922 608.467 876.54C579.843 861.274 556.996 827.27 560.76 794.1C564.189 763.89 587.661 738.626 610.014 720.36Z"/><path fill="#F8C798" d="M583.2 862.863C589.925 869.174 599.164 876.799 607.579 880.686C624.732 888.609 646.186 894.48 664.49 899.382C690.682 906.426 717.123 912.51 743.76 917.622C774.843 923.696 803.265 928.528 835.152 929.057C849.024 944.612 853.559 962.871 834.247 978.144C831.157 980.587 825.251 982.51 822.993 985.92C818.666 992.453 816.91 999.498 812.45 1006.15C809.279 1009.8 805.824 1012.53 801.455 1014.61C768.112 1030.5 687.873 1009.51 653.472 997.06C651.906 993.13 648.579 985.172 644.816 982.862C640.824 980.381 633.004 983.256 629.151 982.024C583.434 967.403 544.763 927.776 572.692 878.683C575.944 872.966 578.849 867.781 583.2 862.863Z"/><path fill="#FCC235" d="M64.7235 473.182C57.761 464.549 51.2448 455.566 45.2003 446.267C5.57485 384.439 -2.36785 304.672 13.2532 233.883C30.8545 156.274 78.2646 88.6961 145.252 45.734C198.574 11.8525 265.446 -3.9148 327.743 9.91755C332.341 9.27108 344.677 12.0503 349.614 13.3432C442.907 37.776 522.508 108.187 563.435 194.702C547.33 222.213 535.797 250.782 533.025 282.723C531.103 304.876 530.117 324.318 526.448 346.431C518.575 391.476 503.133 434.863 480.778 474.754C475.572 474.622 465.65 476.187 460.821 478.31C409.745 494.349 355.295 551.97 316.559 587.91C278.978 590.508 237.921 585.33 202.71 573.33C153.301 556.49 108.92 526.91 74.6595 487.706C68.0198 480.109 52.6874 462.386 48.5372 453.782L48.9256 453.75C53.9441 460.59 59.0736 467.348 64.3121 474.021L64.7235 473.182Z"/><path fill="#FB9628" d="M327.743 9.91755C332.341 9.27108 344.677 12.0503 349.614 13.3432C442.907 37.776 522.508 108.187 563.435 194.702C547.33 222.213 535.797 250.782 533.025 282.723C531.103 304.876 530.117 324.318 526.448 346.431C518.575 391.476 503.133 434.863 480.778 474.754C475.572 474.622 465.65 476.187 460.821 478.31C409.745 494.349 355.295 551.97 316.559 587.91C278.978 590.508 237.921 585.33 202.71 573.33C153.301 556.49 108.92 526.91 74.6595 487.706C68.0198 480.109 52.6874 462.386 48.5372 453.782L48.9256 453.75C53.9441 460.59 59.0736 467.348 64.3121 474.021L64.7235 473.182C95.9092 510.096 129.112 529.845 175.608 542.555C242.014 560.047 312.633 550.773 372.271 516.729C436.518 480.384 483.584 419.88 503.006 348.667C523.486 271.441 512.317 189.236 471.975 120.274C470.908 118.758 469.772 117.361 469.247 115.598C467.94 114.171 460.871 103.652 460.289 101.835C453.413 94.5297 447.084 86.7291 441.352 78.4959C438.52 76.0958 434.935 72.0362 432.403 69.2632C421.744 57.5926 409.297 48.348 395.982 39.9592C391.767 37.3034 386.776 34.7013 382.722 31.843L381.932 31.2798C381.596 31.1128 381.259 30.9458 380.923 30.7788C377.239 29.3612 365.37 23.3294 361.918 21.3068C360.671 21.2044 352.015 17.7672 350.029 16.8946C342.772 13.706 334.915 12.6147 327.743 9.91755Z"/><path fill="#783B19" d="M471.975 120.274C472.349 120.399 472.723 120.525 473.097 120.65C475.728 124.957 479.309 131.621 481.442 135.906C518.042 208.393 523.797 292.593 497.399 369.384C475.014 435.559 424.343 490.229 362.789 522.79C269.067 572.368 133.673 560.908 64.3121 474.021L64.7235 473.182C95.9092 510.096 129.112 529.845 175.608 542.555C242.014 560.047 312.633 550.773 372.271 516.729C436.518 480.384 483.584 419.88 503.006 348.667C523.486 271.441 512.317 189.236 471.975 120.274Z"/><path fill="#AE6B1F" d="M381.932 31.2798C394.468 34.7789 436.227 67.3405 441.352 78.4959C438.52 76.0958 434.935 72.0362 432.403 69.2632C421.744 57.5926 409.297 48.348 395.982 39.9592C391.767 37.3034 386.776 34.7013 382.722 31.843L381.932 31.2798Z"/><path fill="#AE6B1F" d="M361.918 21.3068C365.984 22.2418 378.408 27.9181 380.923 30.7788C377.239 29.3612 365.37 23.3294 361.918 21.3068Z"/><path fill="#AE6B1F" d="M460.289 101.835C462.861 103.351 468.259 112.439 469.247 115.598C467.94 114.171 460.871 103.652 460.289 101.835Z"/><path fill="#461010" d="M170.876 135.122C205.725 131.998 209.128 213.747 166.93 224.212C153.412 225.818 145.849 213.065 142.457 201.884C135.608 179.303 145.447 141.929 170.876 135.122Z"/><path fill="#461010" d="M291.4 130.587C328.702 127.418 330.013 206.815 291.084 218.038C286.742 218.655 282.315 217.913 278.411 215.912C271.383 212.375 267.26 205.187 264.937 197.945C260.03 182.397 261.492 165.537 269.002 151.065C274.357 140.696 280.185 134.109 291.4 130.587Z"/><path fill="#461010" d="M355.699 259.228C369.037 284.916 388.122 323.64 422.435 324.703C427.092 324.847 431.769 321.432 435.889 325.727C437.092 329.544 431.547 332.911 428.475 333.545C409.878 337.384 396.367 328.456 383.531 316.558C382.543 318.15 379.737 322.887 378.712 324.084C374.731 331.261 368.523 339.126 363.034 345.569C322.664 392.958 249.989 431.549 187.392 410.72C148.026 397.621 122.771 364.125 105.068 328.461C98.4575 335.776 90.0033 341.332 80.9945 345.167C78.046 346.422 76.0912 347.545 72.7784 346.378C69.2556 345.136 62.6963 342.063 64.1429 337.457C66.2025 336.488 73.5359 337.825 78.9032 335.745C104.127 325.969 117.743 296.148 129.207 274.423C125.768 294.248 120.751 306.708 109.386 323.227C122.369 349.456 133.67 368.317 156.954 386.944C213.21 431.949 288.285 405.411 336.928 362.954C351.414 350.309 362.984 337.21 374.759 321.946C376.426 319.18 378.698 315.628 380.053 312.788C367.983 298.326 358.841 277.825 355.699 259.228Z"/><path fill="#6F2813" d="M314.215 590.877C288.571 591.949 262.888 590.173 237.637 585.582C161.358 570.9 93.8075 527.059 49.3346 463.371C0.551845 392.503 -11.908 296.647 12.9963 214.427C14.0532 210.938 15.228 207.436 16.3831 203.976C36.8451 141.036 77.3088 86.505 131.616 48.6799C155.775 32.1707 182.76 18.5508 210.851 10.3042C333.978 -25.8423 460.282 40.8609 531.843 139.975C540.18 151.618 547.859 163.719 554.845 176.22C557.777 181.451 560.961 189.32 564.248 193.867L563.435 194.702C522.508 108.187 442.907 37.776 349.614 13.3432C344.677 12.0503 332.341 9.27108 327.743 9.91755C265.446 -3.9148 198.574 11.8525 145.252 45.734C78.2646 88.6961 30.8545 156.274 13.2532 233.883C-2.36785 304.672 5.57485 384.439 45.2003 446.267C51.2448 455.566 57.761 464.549 64.7235 473.182L64.3121 474.021C59.0736 467.348 53.9441 460.59 48.9256 453.75L48.5372 453.782C52.6874 462.386 68.0198 480.109 74.6595 487.706C108.92 526.91 153.301 556.49 202.71 573.33C237.921 585.33 278.978 590.508 316.559 587.91C315.776 589.036 315.232 589.941 314.215 590.877Z"/></svg>