<?xml version="1.0" encoding="utf-8" ?><svg xmlns="http://www.w3.org/2000/svg" xmlns:xlink="http://www.w3.org/1999/xlink" width="1024" height="1024" viewBox="0 0 1024 1024"><path fill="white" d="M0 0L1024 0L1024 1024L0 1024L0 0Z"/><path fill="#8DB342" d="M512.355 117.463C525.333 108.59 533.746 110.014 545.482 119.742C550.241 116.928 555.8 115.779 561.284 116.476C568.228 117.361 572.587 120.613 576.699 125.918C589.053 121.827 600.444 123.598 607.113 135.766C621.096 132.422 629.799 136.704 636.304 149.21C649.61 146.796 658.066 154.996 662.883 166.353C674.978 166.312 683.723 173.01 686.406 184.837C699.006 187.153 706.493 194.175 708.131 207.213C719.378 211.434 724.576 218.209 724.547 230.295C737.353 235.863 739.754 245.576 738.547 258.234C738.932 258.482 739.315 258.733 739.696 258.987C747.169 264.008 749.339 267.928 751.041 276.43C776.313 268.049 802.096 268.592 826.234 280.089C849.221 291.038 865.074 315.244 853.027 340.191C849.404 347.64 840.064 356.99 832.533 360.778L830.996 361.569C898.514 376.608 948.444 436.381 953.491 505.218C954.064 513.028 954.302 522.595 953.461 530.326C957.119 532.216 960.188 533.87 963.312 536.591C978.573 549.885 982.289 574.743 972.864 592.453C967.326 602.839 957.831 610.552 946.53 613.843C943.36 614.748 940.111 615.352 936.828 615.646C919.137 656.682 895.163 684.923 855.209 706.638C845.461 711.936 837.506 714.809 827.488 719.079C840.049 722.712 853.91 725.615 866.364 730.05C896.95 740.941 935.808 762.522 958.175 786.35C953.386 796.659 945.686 808.594 938.993 817.801C910.906 856.794 871.643 886.341 826.397 902.531C788.374 916.38 754.711 915.541 715.334 915.532L647.651 915.431L510.948 915.475L510.528 915.443C464.437 916.375 415.339 915.356 369.047 915.193L302.371 915.385C269.763 915.418 241.913 915.938 210.231 906.433C144.722 886.779 97.6424 845.386 65.3899 785.883C101.857 752.791 146.236 728.811 195.016 720.226C192.206 718.234 184.394 714.744 180.949 713.082C174.715 710.078 168.592 706.847 162.593 703.397C129.307 684.132 103.199 652.365 88.5844 616.979C59.0772 613.392 39.7486 588.121 48.1544 558.219C51.947 544.727 60.6629 536.436 72.8437 529.892C72.8825 528.102 72.8303 527.909 73.301 526.122C75.7207 497.727 92.4754 461.405 110.55 439.447C98.667 443.142 88.0539 441.523 83.9168 428.188C68.4887 425.704 63.4186 418.882 65.4019 403.574C53.6703 395.18 53.7321 385.028 63.7105 375.188C63.4793 374.656 63.2656 374.117 63.0697 373.571C58.4757 360.613 65.1974 352.164 77.4889 348.597C77.4621 347.16 77.5609 345.633 77.8748 344.227C78.884 339.54 81.8258 335.497 85.975 333.095C91.9012 329.665 96.8386 330.242 102.965 331.863C112.472 321.896 123.732 321.956 133.073 331.877C135.742 330.905 138.556 330.394 141.396 330.366C151.55 330.256 158.039 338.178 158.134 347.949C169.922 352.664 174.251 360.616 169.4 372.734C175.242 380.8 175.29 383.002 174.9 392.625C206.932 378.278 228.133 376.848 262.176 378.565C262.465 378.098 263.577 376.28 263.465 375.818C262.462 371.69 259.914 367.78 259.474 363.527C258.735 356.403 260.82 352.105 265.071 346.838C257.428 335.732 258.922 325.615 268.071 316.081C263 304.303 264.761 293.913 275.26 286.05C272.988 274.502 275.725 264.805 286.13 258.468C285.116 245.457 288.295 237.377 300.766 231.913C301.549 218.871 306.034 212.875 318.045 207.87C319.119 201.952 320.446 197.017 324.72 192.372C328.661 188.144 334.101 185.629 339.874 185.365C342.821 173.095 349.773 166.622 362.639 166.36C366.715 153.141 377.047 149.619 389.61 149.699C395.309 136.205 404.523 133.616 418.052 134.881C425.444 123.899 436.236 121.637 448.424 125.774C458.876 115.353 466.568 114.74 480.022 119.575C489.406 110.935 502.063 109.223 512.355 117.463Z"/><path fill="#351E11" d="M512.355 117.463C525.333 108.59 533.746 110.014 545.482 119.742C550.241 116.928 555.8 115.779 561.284 116.476C568.228 117.361 572.587 120.613 576.699 125.918C589.053 121.827 600.444 123.598 607.113 135.766C621.096 132.422 629.799 136.704 636.304 149.21C649.61 146.796 658.066 154.996 662.883 166.353C674.978 166.312 683.723 173.01 686.406 184.837C699.006 187.153 706.493 194.175 708.131 207.213C719.378 211.434 724.576 218.209 724.547 230.295C737.353 235.863 739.754 245.576 738.547 258.234C738.932 258.482 739.315 258.733 739.696 258.987C747.169 264.008 749.339 267.928 751.041 276.43C735.55 283.982 720.258 292.608 714.341 310.187C711.036 320.045 711.829 330.818 716.541 340.086C720.648 348.275 725.581 353.253 732.768 358.623C700.02 366.61 671.934 381.571 649.675 407.418C647.161 410.528 644.369 413.83 641.959 416.996C619.582 446.383 602.621 493.279 608.76 530.159L608.203 530.671C605.84 532.8 602.42 534.336 600.029 536.498C588.598 546.83 584.255 561.393 585.625 576.447C578.357 576.722 570.264 576.56 562.934 576.557L562.869 599.419C562.783 617.89 561.982 630.718 548.218 644.839C528.744 664.817 496.07 663.497 476.676 644.036C458.236 625.533 461.754 600.424 461.832 576.363C456.043 576.605 449.398 576.615 443.651 576.068C440.811 576.766 440.154 576.53 437.164 576.562C435.623 588.099 429.592 598.562 420.38 605.677C412.152 612.019 404.662 614.416 394.522 615.628C390.378 624.281 386.537 632.515 381.601 640.773C364.196 669.465 339.476 693.014 309.973 709.007C307.678 710.269 288.716 719.439 288.331 719.928C288.987 724.623 288.358 729.883 288.694 734.541C290.539 760.109 282.296 785.194 254.522 792.849C242.395 796.132 229.456 794.408 218.611 788.064C202.756 778.784 194.918 763.074 195.264 744.884C195.336 741.094 196.162 722.863 195.016 720.226C192.206 718.234 184.394 714.744 180.949 713.082C174.715 710.078 168.592 706.847 162.593 703.397C129.307 684.132 103.199 652.365 88.5844 616.979C59.0772 613.392 39.7486 588.121 48.1544 558.219C51.947 544.727 60.6629 536.436 72.8437 529.892C72.8825 528.102 72.8303 527.909 73.301 526.122C75.7207 497.727 92.4754 461.405 110.55 439.447C98.667 443.142 88.0539 441.523 83.9168 428.188C68.4887 425.704 63.4186 418.882 65.4019 403.574C53.6703 395.18 53.7321 385.028 63.7105 375.188C63.4793 374.656 63.2656 374.117 63.0697 373.571C58.4757 360.613 65.1974 352.164 77.4889 348.597C77.4621 347.16 77.5609 345.633 77.8748 344.227C78.884 339.54 81.8258 335.497 85.975 333.095C91.9012 329.665 96.8386 330.242 102.965 331.863C112.472 321.896 123.732 321.956 133.073 331.877C135.742 330.905 138.556 330.394 141.396 330.366C151.55 330.256 158.039 338.178 158.134 347.949C169.922 352.664 174.251 360.616 169.4 372.734C175.242 380.8 175.29 383.002 174.9 392.625C206.932 378.278 228.133 376.848 262.176 378.565C262.465 378.098 263.577 376.28 263.465 375.818C262.462 371.69 259.914 367.78 259.474 363.527C258.735 356.403 260.82 352.105 265.071 346.838C257.428 335.732 258.922 325.615 268.071 316.081C263 304.303 264.761 293.913 275.26 286.05C272.988 274.502 275.725 264.805 286.13 258.468C285.116 245.457 288.295 237.377 300.766 231.913C301.549 218.871 306.034 212.875 318.045 207.87C319.119 201.952 320.446 197.017 324.72 192.372C328.661 188.144 334.101 185.629 339.874 185.365C342.821 173.095 349.773 166.622 362.639 166.36C366.715 153.141 377.047 149.619 389.61 149.699C395.309 136.205 404.523 133.616 418.052 134.881C425.444 123.899 436.236 121.637 448.424 125.774C458.876 115.353 466.568 114.74 480.022 119.575C489.406 110.935 502.063 109.223 512.355 117.463Z"/><path fill="#D2B19B" d="M102.965 331.863C112.472 321.896 123.732 321.956 133.073 331.877C135.742 330.905 138.556 330.394 141.396 330.366C151.55 330.256 158.039 338.178 158.134 347.949C169.922 352.664 174.251 360.616 169.4 372.734C175.242 380.8 175.29 383.002 174.9 392.625C206.932 378.278 228.133 376.848 262.176 378.565C278.002 381.8 284.395 381.194 301.177 387.436L304.034 383.526L303.722 382.953C297.554 371.381 301.923 361.716 313.222 356.172C312.774 352.931 312.462 350.964 313.386 347.707C314.577 343.462 317.441 339.884 321.321 337.792C327.013 334.679 331.193 335.597 336.871 337.22C344.582 323.049 360.126 322.762 369.896 335.303C382.1 329.325 393.775 333.377 397.366 347.003C403.759 348.145 405.283 349.339 409.675 353.829C413.075 359.894 414.422 364.906 411.095 371.347C416.917 377.033 419.366 380.487 419.424 388.991L419.422 389.63L415.255 398.554C414.612 400.398 414.174 402.158 413.646 404.041L413.854 411.88C409.415 419.299 407.274 423.331 398.258 425.651C397.248 425.907 396.233 426.142 395.213 426.356C391.246 432.62 388.754 436.123 381.296 438.389C380.887 440.937 379.86 444.687 378.817 447.056C381.57 451.802 385.566 457.045 388.09 461.566C397.987 479.298 407.244 506.374 405.28 526.74C418.7 531.642 426.969 538.465 433.447 551.594C436.538 557.858 438.548 567.359 437.082 574.271C437.05 575.242 437.071 575.581 437.164 576.562C435.623 588.099 429.592 598.562 420.38 605.677C412.152 612.019 404.662 614.416 394.522 615.628C390.378 624.281 386.537 632.515 381.601 640.773C364.196 669.465 339.476 693.014 309.973 709.007C307.678 710.269 288.716 719.439 288.331 719.928C288.987 724.623 288.358 729.883 288.694 734.541C290.539 760.109 282.296 785.194 254.522 792.849C242.395 796.132 229.456 794.408 218.611 788.064C202.756 778.784 194.918 763.074 195.264 744.884C195.336 741.094 196.162 722.863 195.016 720.226C192.206 718.234 184.394 714.744 180.949 713.082C174.715 710.078 168.592 706.847 162.593 703.397C129.307 684.132 103.199 652.365 88.5844 616.979C59.0772 613.392 39.7486 588.121 48.1544 558.219C51.947 544.727 60.6629 536.436 72.8437 529.892C72.8825 528.102 72.8303 527.909 73.301 526.122C75.7207 497.727 92.4754 461.405 110.55 439.447C98.667 443.142 88.0539 441.523 83.9168 428.188C68.4887 425.704 63.4186 418.882 65.4019 403.574C53.6703 395.18 53.7321 385.028 63.7105 375.188C63.4793 374.656 63.2656 374.117 63.0697 373.571C58.4757 360.613 65.1974 352.164 77.4889 348.597C77.4621 347.16 77.5609 345.633 77.8748 344.227C78.884 339.54 81.8258 335.497 85.975 333.095C91.9012 329.665 96.8386 330.242 102.965 331.863Z"/><path fill="#F85337" d="M102.965 331.863C112.472 321.896 123.732 321.956 133.073 331.877C135.742 330.905 138.556 330.394 141.396 330.366C151.55 330.256 158.039 338.178 158.134 347.949C169.922 352.664 174.251 360.616 169.4 372.734C175.242 380.8 175.29 383.002 174.9 392.625C206.932 378.278 228.133 376.848 262.176 378.565C278.002 381.8 284.395 381.194 301.177 387.436L304.034 383.526L303.722 382.953C297.554 371.381 301.923 361.716 313.222 356.172C312.774 352.931 312.462 350.964 313.386 347.707C314.577 343.462 317.441 339.884 321.321 337.792C327.013 334.679 331.193 335.597 336.871 337.22C344.582 323.049 360.126 322.762 369.896 335.303C382.1 329.325 393.775 333.377 397.366 347.003C403.759 348.145 405.283 349.339 409.675 353.829C413.075 359.894 414.422 364.906 411.095 371.347C416.917 377.033 419.366 380.487 419.424 388.991L419.422 389.63L415.255 398.554C414.612 400.398 414.174 402.158 413.646 404.041L413.854 411.88C409.415 419.299 407.274 423.331 398.258 425.651C397.248 425.907 396.233 426.142 395.213 426.356C391.246 432.62 388.754 436.123 381.296 438.389C380.887 440.937 379.86 444.687 378.817 447.056C381.57 451.802 385.566 457.045 388.09 461.566C397.987 479.298 407.244 506.374 405.28 526.74L403.619 537.546C381.707 516.586 367.224 515.784 340.483 507.657C309.223 497.82 281.273 479.569 259.697 454.902C252.937 447.069 246.509 437.6 240.679 429.038C236.827 439.015 233.689 446.976 227.308 455.709C207.197 483.23 176.352 498.641 143.751 505.851C136.195 507.522 128.134 508.648 120.485 509.883C98.9495 513.36 86.0326 523.379 73.6484 540.578C73.3778 535.841 73.4549 530.9 73.301 526.122C75.7207 497.727 92.4754 461.405 110.55 439.447C98.667 443.142 88.0539 441.523 83.9168 428.188C68.4887 425.704 63.4186 418.882 65.4019 403.574C53.6703 395.18 53.7321 385.028 63.7105 375.188C63.4793 374.656 63.2656 374.117 63.0697 373.571C58.4757 360.613 65.1974 352.164 77.4889 348.597C77.4621 347.16 77.5609 345.633 77.8748 344.227C78.884 339.54 81.8258 335.497 85.975 333.095C91.9012 329.665 96.8386 330.242 102.965 331.863Z"/><path fill="#351E11" d="M372.123 438.407C376.798 438.846 376.433 439.159 381.296 438.389C380.887 440.937 379.86 444.687 378.817 447.056C376.475 443.963 374.621 441.429 372.123 438.407Z"/><path fill="#351E11" d="M413.646 404.041C413.245 403.515 411.197 400.988 411.752 400.433C412.477 399.709 414.147 397.939 415.255 398.554C414.612 400.398 414.174 402.158 413.646 404.041Z"/><path fill="white" d="M175.127 522.136C194.619 520.541 211.735 534.997 213.423 554.481C215.111 573.965 200.737 591.15 181.262 592.931C161.654 594.725 144.326 580.232 142.626 560.616C140.927 540.999 155.503 523.741 175.127 522.136Z"/><path fill="#050404" d="M176.638 536.776C188.253 535.257 198.905 543.428 200.449 555.04C201.993 566.652 193.845 577.322 182.237 578.891C170.593 580.464 159.883 572.286 158.334 560.639C156.786 548.991 164.987 538.299 176.638 536.776Z"/><path fill="white" d="M298.934 522.725C318.296 519.601 336.528 532.756 339.666 552.116C342.804 571.475 329.661 589.716 310.304 592.868C290.927 596.023 272.664 582.865 269.523 563.486C266.382 544.107 279.553 525.853 298.934 522.725Z"/><path fill="#050404" d="M298.01 537.358C305.394 535.704 313.097 538.145 318.179 543.75C323.262 549.355 324.941 557.259 322.575 564.446C320.21 571.633 314.164 576.994 306.746 578.484C295.452 580.752 284.436 573.509 282.043 562.241C279.649 550.973 286.77 539.877 298.01 537.358Z"/><path fill="#050404" d="M182.843 633.453C187.533 634.084 190.378 640.299 193.281 643.976C215.885 672.594 262.017 674.898 287.432 648.831C290.536 646.536 296.82 633.924 300.395 633.47C312.15 631.981 302.651 646.404 301.431 648.277C295.432 657.93 286.377 666.187 276.791 672.121C242.289 693.482 200.665 677.322 180.125 644.787C177.08 639.963 176.653 635.542 182.843 633.453Z"/><path fill="#050404" d="M235.729 573.92C236.937 573.829 238.683 573.76 239.731 574.519C244.933 578.307 236.984 584.137 233.978 587.772C225.713 597.768 224.448 615.836 240.995 617.288C244.699 617.613 250.252 613.246 254.05 616.194C255.806 619.165 255.04 620.909 252.568 623.011C247.976 625.364 241.07 626.584 236.19 625.758C213.703 621.952 216.273 592.84 228.639 579.852C231.148 577.217 232.823 575.969 235.729 573.92Z"/><path fill="#7D5541" d="M468.479 310.317C480.601 315.493 489.476 314.973 498.31 304.282C508.453 312.06 517.237 312.268 527.637 304.482C537.063 314.175 544.721 315.63 557.305 310.59C560.485 315.54 564.957 320.095 570.821 321.562C573.911 322.334 582.218 321.385 583.707 324.357C588.779 334.478 597.596 336.641 608.233 336.598C609.045 350.923 616.129 357.176 629.87 359.949C629.948 373.78 633.089 379.906 646.166 385.251C642.775 393.397 643.312 400.8 649.675 407.418C647.161 410.528 644.369 413.83 641.959 416.996C619.582 446.383 602.621 493.279 608.76 530.159L608.203 530.671C605.84 532.8 602.42 534.336 600.029 536.498C588.598 546.83 584.255 561.393 585.625 576.447C578.357 576.722 570.264 576.56 562.934 576.557L562.869 599.419C562.783 617.89 561.982 630.718 548.218 644.839C528.744 664.817 496.07 663.497 476.676 644.036C458.236 625.533 461.754 600.424 461.832 576.363C456.043 576.605 449.398 576.615 443.651 576.068C440.811 576.766 440.154 576.53 437.164 576.562C437.071 575.581 437.05 575.242 437.082 574.271C438.548 567.359 436.538 557.858 433.447 551.594C426.969 538.465 418.7 531.642 405.28 526.74C407.244 506.374 397.987 479.298 388.09 461.566C385.566 457.045 381.57 451.802 378.817 447.056C379.86 444.687 380.887 440.937 381.296 438.389C388.754 436.123 391.246 432.62 395.213 426.356C396.233 426.142 397.248 425.907 398.258 425.651C407.274 423.331 409.415 419.299 413.854 411.88L413.646 404.041C414.174 402.158 414.612 400.398 415.255 398.554L419.422 389.63L419.424 388.991C419.366 380.487 416.917 377.033 411.095 371.347C414.422 364.906 413.075 359.894 409.675 353.829C413.914 348.295 416.101 343.428 417.215 336.509C429.495 336.044 437.652 333.839 442.966 321.628C455.721 323.326 461.141 320.832 468.479 310.317Z"/><path fill="white" d="M419.422 389.63C437.279 363.609 477.61 371.864 483.217 401.948C484.919 411.233 482.817 420.812 477.383 428.531C472.086 436.244 463.906 441.5 454.689 443.113C434.976 446.517 417.362 433.558 414.169 413.934C414.058 413.25 413.953 412.566 413.854 411.88L413.646 404.041C414.174 402.158 414.612 400.398 415.255 398.554L419.422 389.63Z"/><path fill="#050404" d="M445.332 388.157C456.568 386.118 467.33 393.57 469.375 404.804C471.42 416.038 463.974 426.805 452.741 428.856C441.499 430.908 430.723 423.456 428.677 412.213C426.63 400.97 434.088 390.198 445.332 388.157Z"/><path fill="#E8E4DE" d="M437.082 574.271C439.88 574.865 440.987 575.244 443.651 576.068C440.811 576.766 440.154 576.53 437.164 576.562C437.071 575.581 437.05 575.242 437.082 574.271Z"/><path fill="white" d="M569.82 374.262C588.838 370.642 607.182 383.15 610.757 402.176C614.333 421.202 601.781 439.517 582.746 443.047C563.775 446.566 545.536 434.065 541.972 415.102C538.409 396.14 550.866 377.871 569.82 374.262Z"/><path fill="#050404" d="M574.51 387.912C586.004 387.037 596.036 395.637 596.925 407.131C597.815 418.624 589.227 428.666 577.735 429.571C566.222 430.477 556.158 421.87 555.267 410.356C554.375 398.842 562.994 388.789 574.51 387.912Z"/><path fill="#050404" d="M574.504 484.876C586.275 485.397 579.546 496.346 575.728 501.513C542.2 546.878 488.373 545.516 454.451 502.714C451.396 498.469 441.641 485.566 455.181 485.623C456.925 485.63 459.265 489.325 460.142 490.761C483.301 528.717 543.415 529.033 568.175 492.677C569.992 490.011 571.832 486.808 574.504 484.876Z"/><path fill="#050404" d="M511.035 426.937C513.722 427.556 514.937 427.775 515.761 430.564C515.088 434.386 509.186 438.72 506.319 441.801C497.041 451.611 494.811 470.694 512.374 472.222C517.026 472.627 523.714 468.438 527.465 471.738C528.177 473.325 528.092 473.231 527.864 474.979C526.887 476.747 526.028 477.052 524.252 478.186C512.653 482.405 499.421 482.213 492.987 469.728C485.112 454.448 497.154 433.951 511.035 426.937Z"/><path fill="#D2B19B" d="M751.041 276.43C776.313 268.049 802.096 268.592 826.234 280.089C849.221 291.038 865.074 315.244 853.027 340.191C849.404 347.64 840.064 356.99 832.533 360.778L830.996 361.569C898.514 376.608 948.444 436.381 953.491 505.218C954.064 513.028 954.302 522.595 953.461 530.326C957.119 532.216 960.188 533.87 963.312 536.591C978.573 549.885 982.289 574.743 972.864 592.453C967.326 602.839 957.831 610.552 946.53 613.843C943.36 614.748 940.111 615.352 936.828 615.646C919.137 656.682 895.163 684.923 855.209 706.638C845.461 711.936 837.506 714.809 827.488 719.079C827.59 727.916 827.561 736.752 827.647 745.584C827.903 771.899 806.71 795.672 779.397 794.614C766.795 794.106 754.896 788.668 746.265 779.471C734.324 766.565 733.897 754.492 733.85 738.135C733.769 731.668 733.835 725.2 734.049 718.736C732.351 717.202 730.283 716.447 728.179 715.613C720.082 712.404 712.531 708.417 705.098 703.871C678.672 687.347 656.542 664.791 640.527 638.054C636.566 631.33 633.06 623.22 629.58 616.1C606.332 615.281 589.408 599.083 585.625 576.447C584.255 561.393 588.598 546.83 600.029 536.498C602.42 534.336 605.84 532.8 608.203 530.671L608.76 530.159C602.621 493.279 619.582 446.383 641.959 416.996C644.369 413.83 647.161 410.528 649.675 407.418C671.934 381.571 700.02 366.61 732.768 358.623C725.581 353.253 720.648 348.275 716.541 340.086C711.829 330.818 711.036 320.045 714.341 310.187C720.258 292.608 735.55 283.982 751.041 276.43Z"/><path fill="#E8E4DE" d="M751.041 276.43C776.313 268.049 802.096 268.592 826.234 280.089C849.221 291.038 865.074 315.244 853.027 340.191C849.404 347.64 840.064 356.99 832.533 360.778L830.996 361.569C898.514 376.608 948.444 436.381 953.491 505.218C954.064 513.028 954.302 522.595 953.461 530.326C951.663 544.694 950.438 548.828 945.875 562.486C935.087 530.85 920.055 510.699 888.27 497.274C878.542 493.347 868.172 491.028 858.476 486.988C840.038 479.307 822.092 468.145 807.611 454.38C798.154 445.39 791.588 435.4 785.401 424.174C784.298 426.84 783.068 429.45 781.713 431.997C766.952 459.782 735.982 475.734 707.087 485.482C700.411 487.735 692.392 488.944 685.426 491.12C661.967 498.45 641.345 514.456 626.91 534.173C622.418 540.308 619.118 546.573 615.57 553.201C611.821 546.356 610.152 537.813 608.76 530.159C602.621 493.279 619.582 446.383 641.959 416.996C644.369 413.83 647.161 410.528 649.675 407.418C671.934 381.571 700.02 366.61 732.768 358.623C725.581 353.253 720.648 348.275 716.541 340.086C711.829 330.818 711.036 320.045 714.341 310.187C720.258 292.608 735.55 283.982 751.041 276.43Z"/><path fill="white" d="M839.5 520.051C858.923 516.579 877.471 529.55 880.873 548.985C884.276 568.421 871.239 586.922 851.792 590.255C832.442 593.572 814.055 580.614 810.669 561.277C807.283 541.94 820.175 523.506 839.5 520.051Z"/><path fill="#050404" d="M841.089 534.214C848.622 532.917 856.27 535.772 861.111 541.689C865.951 547.605 867.234 555.667 864.471 562.794C861.708 569.921 855.324 575.011 847.761 576.118C836.269 577.8 825.561 569.93 823.735 558.46C821.909 546.99 829.643 536.184 841.089 534.214Z"/><path fill="white" d="M714.997 517.892C734.496 515.987 751.869 530.195 753.871 549.684C755.873 569.173 741.751 586.616 722.272 588.715C702.656 590.829 685.063 576.585 683.047 556.959C681.031 537.333 695.361 519.811 714.997 517.892Z"/><path fill="#050404" d="M714.266 532.964C725.701 530.325 737.105 537.472 739.716 548.913C742.328 560.354 735.153 571.741 723.706 574.325C712.298 576.9 700.958 569.755 698.356 558.353C695.753 546.951 702.87 535.594 714.266 532.964Z"/><path fill="#050404" d="M840.445 631.98C848.673 632.875 847.251 638.928 843.844 644.222C813.328 691.635 755.762 692.411 722.711 647.36C720.323 643.746 714.956 636.266 719.961 632.935C725.19 629.456 730.905 640.267 733.215 643.154C758.589 674.882 811.973 673.074 834.237 638.856C836.067 636.044 837.259 633.349 840.445 631.98Z"/><path fill="#050404" d="M777.014 572.431C785.641 572.509 782.54 579.345 778.366 582.564C763.905 593.718 763.355 622.058 787.992 614.603C793.546 612.923 799.315 617.228 791.887 622.578C786.583 624.643 780.303 625.588 774.706 624.374C769.875 623.353 765.665 620.415 763.039 616.233C759.297 610.356 758.936 602.94 760.418 596.287C762.58 586.454 768.547 577.878 777.014 572.431Z"/><path fill="#F99909" d="M734.049 718.736C733.835 725.2 733.769 731.668 733.85 738.135C733.897 754.492 734.324 766.565 746.265 779.471C754.896 788.668 766.795 794.106 779.397 794.614C806.71 795.672 827.903 771.899 827.647 745.584C827.561 736.752 827.59 727.916 827.488 719.079C840.049 722.712 853.91 725.615 866.364 730.05C896.95 740.941 935.808 762.522 958.175 786.35C953.386 796.659 945.686 808.594 938.993 817.801C910.906 856.794 871.643 886.341 826.397 902.531C788.374 916.38 754.711 915.541 715.334 915.532L647.651 915.431L510.948 915.475C510.299 905.876 531.756 864.706 537.511 854.7C570.713 797.171 623.418 753.435 686.083 731.412C697.042 727.561 708.326 724.805 719.575 721.972C723.852 720.896 729.098 720.121 733.092 719.008L734.049 718.736Z"/><path fill="#0571BE" d="M195.016 720.226C196.162 722.863 195.336 741.094 195.264 744.884C194.918 763.074 202.756 778.784 218.611 788.064C229.456 794.408 242.395 796.132 254.522 792.849C282.296 785.194 290.539 760.109 288.694 734.541C288.358 729.883 288.987 724.623 288.331 719.928C293.905 722.223 304.303 722.777 310.537 724.416C321.123 727.2 331.378 730.216 341.67 734.003C410.521 759.463 466.511 811.116 497.426 877.696C500.24 883.89 510.459 908.202 510.511 914.476L510.528 915.443C464.437 916.375 415.339 915.356 369.047 915.193L302.371 915.385C269.763 915.418 241.913 915.938 210.231 906.433C144.722 886.779 97.6424 845.386 65.3899 785.883C101.857 752.791 146.236 728.811 195.016 720.226Z"/></svg>