<?xml version="1.0" encoding="utf-8" ?><svg xmlns="http://www.w3.org/2000/svg" xmlns:xlink="http://www.w3.org/1999/xlink" width="1024" height="1024" viewBox="0 0 1024 1024"><path fill="white" d="M0 0L1024 0L1024 1024L0 1024L0 0Z"/><path fill="#FA890A" d="M256.024 691.864C253.364 678.022 252.477 661.111 252.944 647.001C255.188 573.551 286.972 504.113 341.099 454.412C390.038 409.077 454.894 384.894 521.567 387.121C522.688 387.093 523.327 386.987 524.35 387.373C537.069 387.564 553.712 390.169 566.108 392.988C615.123 404.072 659.774 429.384 694.458 465.748C744.689 517.68 772.22 587.447 770.99 659.687C770.797 671.448 769.192 680.501 768.362 691.885C828.986 707.405 888.637 725.049 946.522 749.102C953.836 752.141 960.089 754.78 964.475 761.879C968.268 768.133 969.345 775.664 967.458 782.731C962.912 799.968 948.216 804.318 932.495 800.82C936.819 807.077 938.607 813.899 937.317 821.513C936.166 828.445 932.29 834.627 926.552 838.682C920.817 842.704 913.711 844.266 906.818 843.019C900.897 841.931 883.123 834.095 876.203 831.35C859.861 824.863 843.371 818.758 826.746 813.038C767.394 792.751 706.159 778.461 643.959 770.382C621.486 767.396 598.156 765.58 575.474 764.454C574.173 764.389 573.485 764.004 572.659 763.041L573.098 761.835C570.972 762.059 567.793 761.769 565.589 761.626C542.785 760.154 519.924 760.313 497.063 760.261C487.569 760.222 478.076 760.484 468.598 761.048C464.364 761.276 453.019 762.256 449.341 761.704L449.389 763.431C447.688 764.717 434.278 765.145 431.016 765.405C417.67 766.459 404.339 767.687 391.025 769.089C380.5 770.301 370.005 771.766 359.549 773.481C317.182 779.778 275.314 789.068 234.259 801.282C207.54 809.423 181.134 818.559 155.097 828.67C145.358 832.402 130.165 839.616 121.103 842.359C117.198 843.577 113.066 843.885 109.023 843.261C89.1463 840.146 82.372 818.59 91.3098 801.739C82.5403 803.577 75.3593 804.131 67.3616 798.701C61.8966 794.985 58.1056 789.276 56.802 782.797C56.5242 781.426 56.4176 779.926 56.3244 778.529C56.0069 777.306 56.0515 776.655 56.3339 775.444C56.4958 771.133 57.7282 766.929 59.9201 763.213C61.8219 760.009 64.4189 757.273 67.5193 755.207C74.7465 750.353 96.4875 741.937 104.928 738.688C154.203 719.757 204.679 704.115 256.024 691.864Z"/><path fill="#0DC276" d="M524.35 387.373C537.069 387.564 553.712 390.169 566.108 392.988C615.123 404.072 659.774 429.384 694.458 465.748C744.689 517.68 772.22 587.447 770.99 659.687C770.797 671.448 769.192 680.501 768.362 691.885C828.986 707.405 888.637 725.049 946.522 749.102C953.836 752.141 960.089 754.78 964.475 761.879C968.268 768.133 969.345 775.664 967.458 782.731C962.912 799.968 948.216 804.318 932.495 800.82C936.819 807.077 938.607 813.899 937.317 821.513C936.166 828.445 932.29 834.627 926.552 838.682C920.817 842.704 913.711 844.266 906.818 843.019C900.897 841.931 883.123 834.095 876.203 831.35C859.861 824.863 843.371 818.758 826.746 813.038C767.394 792.751 706.159 778.461 643.959 770.382C621.486 767.396 598.156 765.58 575.474 764.454C574.173 764.389 573.485 764.004 572.659 763.041L573.098 761.835C570.972 762.059 567.793 761.769 565.589 761.626C542.785 760.154 519.924 760.313 497.063 760.261C487.569 760.222 478.076 760.484 468.598 761.048C464.364 761.276 453.019 762.256 449.341 761.704L449.389 763.431C447.688 764.717 434.278 765.145 431.016 765.405C417.67 766.459 404.339 767.687 391.025 769.089C380.5 770.301 370.005 771.766 359.549 773.481C317.182 779.778 275.314 789.068 234.259 801.282C207.54 809.423 181.134 818.559 155.097 828.67C145.358 832.402 130.165 839.616 121.103 842.359C117.198 843.577 113.066 843.885 109.023 843.261C89.1463 840.146 82.372 818.59 91.3098 801.739C82.5403 803.577 75.3593 804.131 67.3616 798.701C61.8966 794.985 58.1056 789.276 56.802 782.797C56.5242 781.426 56.4176 779.926 56.3244 778.529C56.0069 777.306 56.0515 776.655 56.3339 775.444L57.3874 775.025C59.6247 758.525 69.4693 754.305 83.301 748.669C88.0398 746.738 92.886 744.734 97.6427 742.814C144.176 724.405 191.881 709.111 240.443 697.032C248.962 694.852 257.531 692.329 266.07 690.34C295.298 683.683 324.764 678.121 354.407 673.665C383.117 669.364 411.404 667.055 440.338 665.019C442.508 664.867 446.192 664.874 448.087 664.254L448.36 663.051L448.726 661.537C451.186 660.603 456.822 661.098 459.77 660.942C497.811 658.933 536.176 658.92 574.177 661.707C575.094 661.774 575.455 662.965 575.796 663.651C622.151 666.093 668.288 671.664 713.891 680.328C730.121 683.322 751.409 687.307 767.295 691.621C768.095 682.268 769.451 673.582 769.822 664.038C772.161 592.703 746.292 523.32 697.821 470.93C663.384 433.173 618.398 406.632 568.696 394.749C556.018 391.708 539.312 388.957 526.241 388.49C525.758 388.332 523.909 387.897 523.671 387.713L523.621 387.723L523.634 387.676C523.873 387.575 524.111 387.474 524.35 387.373Z"/><path fill="#ECEAB8" d="M433.221 714.941C437.097 714.733 441.028 714.595 444.858 713.934C448.984 713.222 452.974 711.954 457.17 711.675C472.578 710.648 566.926 708.335 573.84 712.765C577.386 715.037 608.093 716.356 615.19 716.967C685.98 722.572 756.962 738.394 824.661 759.471C843.747 765.413 862.537 772.183 881.4 778.778C893.752 783.096 923.643 792.034 931.165 801.136C935.402 806.265 937.176 813.449 936.349 820C935.55 826.33 932.284 832.742 927.191 836.688C922.318 840.463 915.171 842.939 908.933 842.162C900.067 841.059 882.037 832.332 872.942 828.761C857.719 822.81 842.381 817.158 826.936 811.808C760.388 789.003 691.467 773.822 621.495 766.559C608.588 765.237 585.337 762.996 572.659 763.041L573.098 761.835C570.972 762.059 567.793 761.769 565.589 761.626C542.785 760.154 519.924 760.313 497.063 760.261C487.569 760.222 478.076 760.484 468.598 761.048C464.364 761.276 453.019 762.256 449.341 761.704L449.389 763.431C447.688 764.717 434.278 765.145 431.016 765.405C417.67 766.459 404.339 767.687 391.025 769.089C380.5 770.301 370.005 771.766 359.549 773.481C317.182 779.778 275.314 789.068 234.259 801.282C207.54 809.423 181.134 818.559 155.097 828.67C145.358 832.402 130.165 839.616 121.103 842.359C117.198 843.577 113.066 843.885 109.023 843.261C89.1463 840.146 82.372 818.59 91.3098 801.739C82.5403 803.577 75.3593 804.131 67.3616 798.701C61.8966 794.985 58.1056 789.276 56.802 782.797C56.5242 781.426 56.4176 779.926 56.3244 778.529C56.969 778.03 56.753 778.054 57.3245 778.4C58.6379 795.735 78.043 807.99 91.2762 799.965C103.09 792.801 108.283 790.58 121.657 785.55C177.761 764.448 235.518 745.799 294.192 733.317C339.846 723.671 386.105 717.154 432.647 713.812L433.221 714.941Z"/><path fill="#0C0B08" d="M57.3245 778.4C58.6379 795.735 78.043 807.99 91.2762 799.965C103.09 792.801 108.283 790.58 121.657 785.55C177.761 764.448 235.518 745.799 294.192 733.317C339.846 723.671 386.105 717.154 432.647 713.812L433.221 714.941C328.598 723.074 235.196 744.86 136.846 781.157C126.614 784.933 100.503 792.77 93.9879 800.413C90.3636 804.664 89.1137 809.655 88.2472 815.007C88.5154 816.947 88.602 817.178 88.2239 819.071C88.6537 823.179 90.0275 827.133 92.2382 830.622C96.9193 838.005 106.089 843.294 114.908 842.27C121.814 841.468 130.784 837.212 137.36 834.497C144.25 831.671 151.164 828.902 158.101 826.192C171.611 821.002 185.214 816.061 198.905 811.372C269.781 787.115 343.36 771.628 418 765.255C424.291 764.697 444.839 762.372 449.389 763.431C447.688 764.717 434.278 765.145 431.016 765.405C417.67 766.459 404.339 767.687 391.025 769.089C380.5 770.301 370.005 771.766 359.549 773.481C317.182 779.778 275.314 789.068 234.259 801.282C207.54 809.423 181.134 818.559 155.097 828.67C145.358 832.402 130.165 839.616 121.103 842.359C117.198 843.577 113.066 843.885 109.023 843.261C89.1463 840.146 82.372 818.59 91.3098 801.739C82.5403 803.577 75.3593 804.131 67.3616 798.701C61.8966 794.985 58.1056 789.276 56.802 782.797C56.5242 781.426 56.4176 779.926 56.3244 778.529C56.969 778.03 56.753 778.054 57.3245 778.4Z"/><path fill="#504E37" d="M88.2239 819.071C87.5209 817.585 87.7306 816.519 88.2472 815.007C88.5154 816.947 88.602 817.178 88.2239 819.071Z"/><path fill="#0C0B08" d="M454.817 760.625C464.366 759.896 473.933 759.423 483.508 759.207C492.494 758.992 568.777 758.459 573.177 761.298L573.098 761.835C570.972 762.059 567.793 761.769 565.589 761.626C542.785 760.154 519.924 760.313 497.063 760.261C487.569 760.222 478.076 760.484 468.598 761.048C464.364 761.276 453.019 762.256 449.341 761.704C449.276 761.304 449.279 761.577 449.707 760.969L452.41 760.777C453.542 760.494 453.649 760.53 454.817 760.625Z"/><path fill="#504E37" d="M452.41 760.777C453.542 760.494 453.649 760.53 454.817 760.625C453.889 761.381 453.548 761.076 452.41 760.777Z"/><path fill="#0C0B08" d="M524.35 387.373C537.069 387.564 553.712 390.169 566.108 392.988C615.123 404.072 659.774 429.384 694.458 465.748C744.689 517.68 772.22 587.447 770.99 659.687C770.797 671.448 769.192 680.501 768.362 691.885C828.986 707.405 888.637 725.049 946.522 749.102C953.836 752.141 960.089 754.78 964.475 761.879C968.268 768.133 969.345 775.664 967.458 782.731C962.912 799.968 948.216 804.318 932.495 800.82C936.819 807.077 938.607 813.899 937.317 821.513C936.166 828.445 932.29 834.627 926.552 838.682C920.817 842.704 913.711 844.266 906.818 843.019C900.897 841.931 883.123 834.095 876.203 831.35C859.861 824.863 843.371 818.758 826.746 813.038C767.394 792.751 706.159 778.461 643.959 770.382C621.486 767.396 598.156 765.58 575.474 764.454C574.173 764.389 573.485 764.004 572.659 763.041C585.337 762.996 608.588 765.237 621.495 766.559C691.467 773.822 760.388 789.003 826.936 811.808C842.381 817.158 857.719 822.81 872.942 828.761C882.037 832.332 900.067 841.059 908.933 842.162C915.171 842.939 922.318 840.463 927.191 836.688C932.284 832.742 935.55 826.33 936.349 820C937.176 813.449 935.402 806.265 931.165 801.136C923.643 792.034 893.752 783.096 881.4 778.778C862.537 772.183 843.747 765.413 824.661 759.471C756.962 738.394 685.98 722.572 615.19 716.967L615.483 715.791C621.577 716.325 627.662 716.947 633.737 717.659C634.592 717.58 634.612 717.507 635.319 717.844C647.927 718.731 668.088 721.991 680.442 723.955C746.583 734.915 811.559 752.015 874.527 775.033C895.445 782.454 916.466 789.136 935.625 800.483C939.422 802.731 951.281 799.801 954.867 797.69C960.769 794.215 964.993 788.476 966.555 781.807C972.029 758.21 950.104 751.562 933.332 745.083C877.854 723.653 820.002 705.092 762.102 691.301C733.978 684.893 705.645 679.444 677.15 674.962C655.586 671.608 633.904 669.061 612.149 667.328L587.744 665.443C584.899 665.243 578.374 665.072 575.902 664.517L575.796 663.651C622.151 666.093 668.288 671.664 713.891 680.328C730.121 683.322 751.409 687.307 767.295 691.621C768.095 682.268 769.451 673.582 769.822 664.038C772.161 592.703 746.292 523.32 697.821 470.93C663.384 433.173 618.398 406.632 568.696 394.749C556.018 391.708 539.312 388.957 526.241 388.49C525.758 388.332 523.909 387.897 523.671 387.713L523.621 387.723L523.634 387.676C523.873 387.575 524.111 387.474 524.35 387.373Z"/><path fill="#022811" d="M633.737 717.659C634.592 717.58 634.612 717.507 635.319 717.844C634.484 718.114 634.374 718.337 633.737 717.659Z"/><path fill="#022811" d="M456.843 710.649C491.844 708.466 526.939 708.194 561.97 709.833C564.1 709.94 572.297 710.006 573.757 711.023C573.927 711.141 574.445 711.92 574.612 712.164C578.084 713.005 583.063 713.118 586.757 713.388L606.614 714.926C607.936 715.028 614.48 715.485 615.483 715.791L615.19 716.967C608.093 716.356 577.386 715.037 573.84 712.765C566.926 708.335 472.578 710.648 457.17 711.675C452.974 711.954 448.984 713.222 444.858 713.934C441.028 714.595 437.097 714.733 433.221 714.941L432.647 713.812C434.543 713.162 446.936 713.244 449.821 711.555C451.068 710.824 453.674 710.891 455.187 710.89C455.912 710.468 455.937 710.564 456.843 710.649Z"/><path fill="#0A683A" d="M455.187 710.89C455.912 710.468 455.937 710.564 456.843 710.649C456.152 711.169 456.008 711.047 455.187 710.89Z"/><path fill="#022811" d="M57.3874 775.025C57.4746 776.511 57.5268 776.925 57.3245 778.4C56.753 778.054 56.969 778.03 56.3244 778.529C56.0069 777.306 56.0515 776.655 56.3339 775.444L57.3874 775.025Z"/><path fill="#0C0B08" d="M256.024 691.864C253.364 678.022 252.477 661.111 252.944 647.001C255.188 573.551 286.972 504.113 341.099 454.412C390.038 409.077 454.894 384.894 521.567 387.121C521.776 387.386 521.912 387.436 521.893 387.693C521.689 387.918 520.845 388.133 520.533 388.254C457.626 385.089 391.285 410.747 344.705 452.755C291.017 500.611 258.529 567.827 254.384 639.628C253.618 655.222 254.111 676.262 256.975 691.646C298.387 681.591 340.357 673.991 382.665 668.885C398.046 667.099 413.793 666.19 429.21 664.802C432.141 664.538 446.29 663.662 448.36 663.051L448.087 664.254C446.192 664.874 442.508 664.867 440.338 665.019C411.404 667.055 383.117 669.364 354.407 673.665C324.764 678.121 295.298 683.683 266.07 690.34C257.531 692.329 248.962 694.852 240.443 697.032C191.881 709.111 144.176 724.405 97.6427 742.814C92.886 744.734 88.0398 746.738 83.301 748.669C69.4693 754.305 59.6247 758.525 57.3874 775.025L56.3339 775.444C56.4958 771.133 57.7282 766.929 59.9201 763.213C61.8219 760.009 64.4189 757.273 67.5193 755.207C74.7465 750.353 96.4875 741.937 104.928 738.688C154.203 719.757 204.679 704.115 256.024 691.864Z"/><path fill="#5B3005" d="M521.567 387.121C522.688 387.093 523.327 386.987 524.35 387.373C524.111 387.474 523.873 387.575 523.634 387.676L523.621 387.723L523.671 387.713C523.909 387.897 525.758 388.332 526.241 388.49C524.601 388.493 522.066 388.574 520.533 388.254C520.845 388.133 521.689 387.918 521.893 387.693C521.912 387.436 521.776 387.386 521.567 387.121Z"/><path fill="#0C0B08" d="M286.147 244.163C307.263 243.253 312.704 257.01 322.293 272.301L340.002 300.09L362.057 334.662C366.753 342.034 374.362 352.094 375.967 360.48C377.376 367.953 375.704 375.679 371.331 381.901C365.86 389.815 358.914 392.844 349.814 394.453C328.437 395.495 323.611 382.389 313.616 366.984C305.377 354.426 297.252 341.793 289.242 329.088L271.965 302.26C269.114 297.85 264.804 291.584 262.407 287.162C260.908 284.397 259.866 281.407 259.322 278.308C258.01 270.374 259.999 262.249 264.828 255.819C270.334 248.609 277.411 245.29 286.147 244.163Z"/><path fill="#FEE808" d="M283.396 245.611C305.396 243.599 310.109 254.882 320.175 271.064C324.337 277.683 328.551 284.27 332.815 290.823L357.088 328.767C361.664 335.94 366.302 343.092 370.739 350.346C381.54 368.007 372.413 388.548 352.416 392.853C330.978 395.888 325.352 383.416 315.455 368.063L296.711 338.69C286.227 322.157 275.539 305.864 265.034 289.256C258.946 279.631 258.277 269.732 263.779 259.448C268.058 251.45 275.063 248.081 283.396 245.611Z"/><path fill="#3B3005" d="M733.252 244.143C750.631 243.986 764.218 254.689 764.959 272.885C765.375 283.108 759.057 291.105 753.908 299.39C750.501 304.875 746.946 310.359 743.499 315.863L702.937 380.236C696.883 389.679 692.138 392.12 681.412 394.483C660.403 395.419 643.244 379.1 650.015 356.714C651.971 350.245 659.749 339.335 663.635 333.103L684.678 299.388L703.156 269.928C711.872 256.078 715.562 246.496 733.252 244.143Z"/><path fill="#FEE808" d="M731.195 245.595C750.048 244.098 765.236 256.928 763.506 276.773C763.019 282.368 758.867 289.311 755.92 294L717.671 354.444C715.181 358.417 712.785 362.59 710.147 366.456C701.649 378.914 699.548 389.067 683.407 392.786C668.494 395.156 654.333 387.506 650.547 372.003C647.743 360.524 652.688 352.953 658.543 343.504L695.974 283.605C701.844 274.2 707.96 263.826 714.458 254.849C718.034 249.91 725.313 246.981 731.195 245.595Z"/><path fill="#170504" d="M80.2469 616.241C106.665 616.031 133.084 616.014 159.502 616.188C171.058 616.234 183.944 615.567 195.288 616.833C198.743 617.219 204.099 620.236 206.931 622.492C213.028 627.284 216.915 634.348 217.699 642.063C219.652 660.625 206.751 672.546 189.042 673.79C157.469 675.118 124.621 673.122 92.8977 673.964C82.3624 674.244 69.9245 674.619 61.7093 666.906C42.5058 648.876 52.8071 617.647 80.2469 616.241Z"/><path fill="#FEE808" d="M77.4755 617.672C84.3468 617.302 94.0585 617.544 101.075 617.546L144.295 617.585L173.022 617.572C179.053 617.532 185.154 617.326 191.136 617.671C206.136 618.535 217.146 631.142 216.535 646.119C215.927 661.004 206.83 669.514 192.993 672.397C186.178 673.156 177.183 672.879 170.112 672.859L133.602 672.774L98.6645 672.821C87.921 672.841 72.9076 674.256 64.0546 667.299C44.643 652.045 51.9995 621.048 77.4755 617.672Z"/><path fill="#541206" d="M508.396 180.631C515.466 180.012 521.331 181.281 527.486 184.884C543.981 194.541 541.108 212.818 541.132 229.519L541.197 267.116L541.25 300.117C541.257 306.702 541.412 313.333 540.922 319.898C539.924 333.249 530.03 342.881 517.124 345.472C500.961 346.629 488.501 339.878 483.866 323.275C482.853 319.647 483.268 310.621 483.248 306.628L483.111 280.411L483.143 232.98C483.166 224.473 482.996 215.97 483.435 207.476C484.18 193.066 494.836 183.477 508.396 180.631Z"/><path fill="#FB4808" d="M511.872 181.756C525.255 181.519 538.524 192.137 539.499 205.7C540.051 213.369 539.946 220.797 539.954 228.473L539.978 266.591L539.978 300.763C539.977 306.654 540.039 312.427 539.777 318.314C539.12 333.09 528.637 342.846 514.2 344.506C506.694 344.457 501.611 343.457 495.337 338.828C482.015 329 484.415 313.674 484.405 298.786L484.389 259.694L484.397 224.52C484.405 213.07 482.788 201.072 490.841 191.887C496.874 185.006 502.967 182.452 511.872 181.756Z"/><path fill="#170504" d="M834.704 616.224C839.501 616.034 844.676 616.094 849.533 616.145C882.577 616.498 915.895 615.444 948.864 616.892C952.544 617.053 958.747 620.374 961.715 622.751C967.644 627.543 971.374 634.537 972.052 642.13C973.805 659.95 961.472 672.596 944.213 673.814C914.711 674.529 884.86 673.534 855.317 673.947C842.663 674.124 827.227 675.772 817.012 667.283C810.999 662.277 807.277 655.044 806.697 647.242C805.457 630.416 818.293 617.52 834.704 616.224Z"/><path fill="#FEE808" d="M832.446 617.667C852.737 616.765 879.164 617.554 899.756 617.573L928.874 617.564C938.005 617.557 949.411 616.524 957.433 621.249C963.894 624.978 968.521 631.216 970.216 638.48C974.242 655.465 963.817 669.13 947.083 672.534C927.481 673.565 901.379 672.717 881.289 672.784L851.812 672.924C841.016 672.976 828.508 674.162 819.34 667.519C813.301 663.229 809.29 656.647 808.245 649.313C807.162 641.893 809.096 634.349 813.614 628.364C818.535 621.91 824.637 618.858 832.446 617.667Z"/><path fill="#170504" d="M127.489 413.131C138.501 411.879 143.801 415.366 153.485 419.66L180.195 431.639C200.561 440.809 221.342 449.688 241.391 459.547C248.627 463.083 254.572 468.614 256.548 476.801C261.032 495.378 251.305 509.24 233.622 513.434C219.01 514.082 215.281 510.773 202.331 504.837L172.14 491.068L136.4 474.793C122.34 468.37 107.65 464.685 104.121 447.817C102.396 439.873 104.026 431.57 108.628 424.869C113.481 417.728 119.348 414.715 127.489 413.131Z"/><path fill="#FB4808" d="M128.12 414.136C139.467 413.309 145.34 417.274 155.323 421.728L184.935 434.996C204.494 443.76 224.862 452.092 243.795 462.197C249.861 465.58 254.731 471.872 255.936 478.775C258.974 496.185 249.848 508.983 232.889 512.321C220.404 513.372 213.416 508.695 202.477 503.676L174.465 490.875L137.348 473.971C123.613 467.687 108.619 464.002 105.159 447.514C103.528 439.984 105.054 432.114 109.382 425.74C114.121 418.838 120.098 415.559 128.12 414.136Z"/><path fill="#170504" d="M888.288 413.074C920.374 410.303 933.136 450.985 905.83 466.367C900.12 469.584 893.02 472.333 886.937 475.11C874.509 480.85 862.04 486.503 849.533 492.067L821.668 504.587C815.215 507.492 806.007 512.096 799.46 513.471C791.406 513.724 785.515 513.481 778.787 509.028C760.658 496.91 761.932 469.878 781.478 460.17C788.124 456.869 794.769 453.955 801.517 450.884C815.759 444.363 830.051 437.952 844.392 431.652C854.357 427.237 879.844 414.826 888.288 413.074Z"/><path fill="#FB4808" d="M889.042 414.177C895.839 413.75 902.142 414.901 907.854 418.917C913.706 423.034 917.698 429.294 918.96 436.337C920.414 443.942 918.724 451.812 914.276 458.15C909.696 464.628 895.244 470.017 887.873 473.387C875.575 479.031 863.243 484.596 850.875 490.084L823.11 502.671C815.818 505.978 805.62 511.158 797.971 512.433C790.956 512.718 785.031 511.791 779 507.768C772.836 503.607 768.653 497.093 767.435 489.756C765.407 477.972 771.196 466.452 781.777 461.263C788.309 458.061 794.781 455.226 801.372 452.212C815.611 445.59 829.934 439.154 844.34 432.905C853.693 428.774 880.816 415.558 889.042 414.177Z"/></svg>