<?xml version="1.0" encoding="utf-8" ?><svg xmlns="http://www.w3.org/2000/svg" xmlns:xlink="http://www.w3.org/1999/xlink" width="1024" height="1024" viewBox="0 0 1024 1024"><path fill="white" d="M0 0L1024 0L1024 1024L0 1024L0 0Z"/><path fill="#F33F25" d="M330.039 129.35C336.301 111.722 368.57 109.315 383.83 113.595C405.488 118.852 402.096 134.844 411.082 150.299C452.812 222.074 564.895 224.396 610.462 155.703C613.646 150.943 616.306 145.853 618.397 140.521C622.245 130.733 622.285 122.897 632.675 117.251C650.176 107.742 684.419 109.147 694.846 128.466C695.755 130.926 695.954 131.313 696.219 133.867C733.82 139.815 768.304 149.702 802.55 166.742L802.979 167.017C810.294 171.623 820.01 175.679 827.555 180.24C837.758 186.407 848.432 193.148 858.338 199.772C895.903 224.718 929.611 255.031 958.39 289.746C964.65 297.442 970.617 304.413 975.436 313.193C978.629 319.148 981.03 325.496 982.577 332.074C987.367 352.797 982.221 370.734 971.09 388.48C968.801 392.171 966.232 395.68 963.404 398.977C955.869 407.854 947.008 417.171 939.089 425.803L909.715 458.278C906.798 461.504 892.569 478.316 889.971 480.101C875.972 494.998 871.849 505.554 849.19 508.563C815.802 512.998 794.095 484.075 769.554 466.458C767.915 465.281 766.131 463.278 764.208 463.504L796.594 626.363C806.613 677.195 817.569 732.036 823.416 783.584C824.03 793.613 826.271 803.862 825.034 813.904C823.098 829.628 813.147 842.367 800.949 851.856C783.627 865.33 763.82 873.636 743.299 880.894C642.338 916.603 494.373 918.234 388.241 905.07C338.858 898.945 240.816 879.454 209.062 838.215C195.436 820.519 198.606 802.54 201.201 781.915C209.056 717.297 222.434 652.695 235.236 588.84L249.662 517.393C253.247 499.303 256.573 480.889 260.695 462.941L230.637 486.456C212.762 500.18 200.994 511.252 175.831 508.397C153.855 505.905 149.878 495.65 136.983 482.125C129.372 474.526 121.47 465.454 114.244 457.503L79.0899 418.78C74.6099 413.789 63.5357 402.953 60.8482 398.153C39.2085 369.921 30.1948 339.773 52.0657 308.292C54.2173 303.133 65.5692 289.899 69.6692 285.08C112.6 234.628 164.315 197.346 222.511 166.733C254.777 150.515 292.596 139.249 328.246 133.801L328.571 133.734C329.324 131.993 329.484 131.128 330.039 129.35Z"/><path fill="#F3A2C6" d="M52.0657 308.292C54.2173 303.133 65.5692 289.899 69.6692 285.08C112.6 234.628 164.315 197.346 222.511 166.733C249.128 180.92 261.929 214.667 270.415 241.727C286.494 293 285.675 341.845 274.744 394.057C272.651 404.051 271.023 414.49 268.588 424.559C266.75 434.853 263.268 452.957 260.695 462.941L230.637 486.456C212.762 500.18 200.994 511.252 175.831 508.397C153.855 505.905 149.878 495.65 136.983 482.125C129.372 474.526 121.47 465.454 114.244 457.503L79.0899 418.78C74.6099 413.789 63.5357 402.953 60.8482 398.153C39.2085 369.921 30.1948 339.773 52.0657 308.292Z"/><path fill="#F4567E" d="M268.588 424.559C266.75 434.853 263.268 452.957 260.695 462.941L230.637 486.456C212.762 500.18 200.994 511.252 175.831 508.397C153.855 505.905 149.878 495.65 136.983 482.125C145.188 481.265 150.615 482.49 160.522 480.737C201.488 473.486 236.317 449.273 268.588 424.559Z"/><path fill="#F4567E" d="M75.6249 292.281C77.4428 293.473 78.6573 293.939 79.4927 295.808C79.6253 300.055 74.8178 307.788 73.1199 311.951C61.631 340.046 62.9987 369.181 76.4266 396.312C78.5571 400.616 82.1122 404.526 83.7448 409.058C84.7508 411.851 81.5609 413.387 79.5841 414.722C73.3324 410.767 65.1199 400.324 60.8482 398.153C39.2085 369.921 30.1948 339.773 52.0657 308.292C54.6561 306.759 57.3007 304.17 59.83 302.227C65.1562 298.136 69.7465 295.433 75.6249 292.281Z"/><path fill="#F3A2C6" d="M802.55 166.742L802.979 167.017C810.294 171.623 820.01 175.679 827.555 180.24C837.758 186.407 848.432 193.148 858.338 199.772C895.903 224.718 929.611 255.031 958.39 289.746C964.65 297.442 970.617 304.413 975.436 313.193C978.629 319.148 981.03 325.496 982.577 332.074C987.367 352.797 982.221 370.734 971.09 388.48C968.801 392.171 966.232 395.68 963.404 398.977C955.869 407.854 947.008 417.171 939.089 425.803L909.715 458.278C906.798 461.504 892.569 478.316 889.971 480.101C875.972 494.998 871.849 505.554 849.19 508.563C815.802 512.998 794.095 484.075 769.554 466.458C767.915 465.281 766.131 463.278 764.208 463.504C761.544 449.411 758.294 435.232 755.383 421.163C752.156 408.114 748.938 388.81 746.932 375.707C745.037 360.358 742.191 342.967 742.041 327.541C741.591 281.19 758.621 190.278 802.55 166.742Z"/><path fill="#F4567E" d="M755.383 421.163C761.076 423.579 773.423 436.162 781.705 441.745C807.228 458.953 835.069 474.644 866.123 479.308C869.794 479.859 888.931 479.675 889.971 480.101C875.972 494.998 871.849 505.554 849.19 508.563C815.802 512.998 794.095 484.075 769.554 466.458C767.915 465.281 766.131 463.278 764.208 463.504C761.544 449.411 758.294 435.232 755.383 421.163Z"/><path fill="#F4567E" d="M882.954 272.807C891.542 273.294 911.319 283.439 918.76 288.689C936.814 301.426 954.196 321.15 958.289 343.509C962.242 365.096 955.509 383.379 943.412 400.917C941.279 403.807 935.785 412.02 931.655 409.308C928.565 404.417 933.176 391.273 933.468 383.017C933.64 376.398 933.219 369.777 932.21 363.232C928.14 333.637 913.266 306.592 890.453 287.305C884.765 282.432 875.738 280.935 882.954 272.807Z"/><path fill="#E0212F" d="M201.201 781.915C207.485 784.768 217.125 794.058 223.491 798.301C240.88 809.894 259.214 819.345 278.328 827.777C410.971 883.501 566.425 888.312 703.382 845.661C735.628 835.619 766.569 821.917 795.246 804.044C800.382 800.843 821.014 783.648 823.416 783.584C824.03 793.613 826.271 803.862 825.034 813.904C823.098 829.628 813.147 842.367 800.949 851.856C783.627 865.33 763.82 873.636 743.299 880.894C642.338 916.603 494.373 918.234 388.241 905.07C338.858 898.945 240.816 879.454 209.062 838.215C195.436 820.519 198.606 802.54 201.201 781.915Z"/><path fill="#FEB720" d="M330.039 129.35C336.301 111.722 368.57 109.315 383.83 113.595C405.488 118.852 402.096 134.844 411.082 150.299C452.812 222.074 564.895 224.396 610.462 155.703C613.646 150.943 616.306 145.853 618.397 140.521C622.245 130.733 622.285 122.897 632.675 117.251C650.176 107.742 684.419 109.147 694.846 128.466C692.658 130.358 691.897 137.252 691.053 140.224C685.169 160.961 673.588 177.822 659.102 193.428C624.33 230.468 576.801 252.937 526.109 256.301C471.889 260.106 418.397 242.091 377.526 206.261C359.604 190.518 345.709 172.73 336.722 150.544C334.841 145.9 331.968 138.161 331.156 133.256C330.296 133.424 329.434 133.583 328.571 133.734C329.324 131.993 329.484 131.128 330.039 129.35Z"/><path fill="#FBAB20" d="M328.571 133.734C329.324 131.993 329.484 131.128 330.039 129.35C331.027 131.222 330.845 131.078 331.156 133.256C330.296 133.424 329.434 133.583 328.571 133.734Z"/><path fill="#FE9011" d="M331.156 133.256C331.968 138.161 334.841 145.9 336.722 150.544C345.709 172.73 359.604 190.518 377.526 206.261C418.397 242.091 471.889 260.106 526.109 256.301C576.801 252.937 624.33 230.468 659.102 193.428C673.588 177.822 685.169 160.961 691.053 140.224C691.897 137.252 692.658 130.358 694.846 128.466C695.755 130.926 695.954 131.313 696.219 133.867C700.213 182.707 657.604 231.471 617.198 253.949C567.353 281.677 511.566 289.556 456.371 274.273C397.43 257.953 340.634 214.468 329.151 151.555C328.448 147.596 329.657 136.332 328.246 133.801L328.571 133.734C329.434 133.583 330.296 133.424 331.156 133.256Z"/><path fill="#E0212F" d="M755.722 700.458C757.308 700.403 759.127 700.579 760.364 701.771C785.543 726.024 792.99 770.79 764.016 795.537C749.987 807.519 734.404 813.83 715.618 816.229C711.389 817.349 700.172 818.14 698.566 812.833C699.676 807.213 709.652 805.32 714.772 802.861C728.064 796.367 739.674 786.89 748.697 775.168C761.32 758.571 765.013 737.226 757.938 717.536C755.233 710.006 749.268 707.413 755.722 700.458Z"/></svg>