<?xml version="1.0" encoding="utf-8" ?><svg xmlns="http://www.w3.org/2000/svg" xmlns:xlink="http://www.w3.org/1999/xlink" width="1024" height="1024" viewBox="0 0 1024 1024"><path fill="#F8AA49" d="M0 0L506.64 0L533.857 0L1024 0L1024 1016.05L1024 1024L815.79 1024L716.905 1024L307.603 1024L208.052 1024L0 1024L0 1020.46L0 0Z"/><path fill="#FEFFFE" d="M0 0L506.64 0C499.399 1.38383 492.25 1.57484 484.957 3.01813C449.575 10.0202 425.771 22.9263 400.585 48.1725C352.414 50.3283 314.078 69.45 281.634 105.013C244.716 145.727 225.483 199.438 228.163 254.332C230.22 297.333 244.141 336.923 271.625 370.318L269.144 370.792L269.935 371.514C271.24 403.525 268.706 438.87 270.216 471.355C270.915 486.391 273.561 495.074 275.316 508.94C273.08 508.959 270.617 508.919 268.408 509.07C271.281 509.364 272.683 509.434 275.57 509.421C289.767 572.57 328.701 627.385 383.651 661.588C385.144 662.535 386.873 663.689 388.431 664.453C391.432 665.906 394.361 667.459 397.273 669.085C407.273 674.67 417.876 679.45 428.572 683.526C480.533 703.142 537.721 703.948 590.214 685.805C609.082 679.24 619.377 673.925 636.329 663.992L636.323 667.67C644.42 673.397 651.453 677.639 659.052 684.26C686.003 707.74 699.889 734.039 705.928 769.006C706.093 769.966 706.244 770.929 706.381 771.894C715.49 772.8 724.594 773.761 733.692 774.775C739.223 775.842 744.771 776.497 750.367 777.314C776.972 781.2 802.986 789.718 828.176 798.909C830.289 799.68 832.561 800.545 834.57 801.507L821.581 955.25C819.646 977.963 817.361 1001.31 815.79 1024L716.905 1024L307.603 1024L208.052 1024L0 1024L0 1020.46L0 0Z"/><path fill="#FEF505" d="M388.431 664.453C391.432 665.906 394.361 667.459 397.273 669.085C407.273 674.67 417.876 679.45 428.572 683.526C480.533 703.142 537.721 703.948 590.214 685.805C609.082 679.24 619.377 673.925 636.329 663.992L636.323 667.67C644.42 673.397 651.453 677.639 659.052 684.26C686.003 707.74 699.889 734.039 705.928 769.006C706.093 769.966 706.244 770.929 706.381 771.894C715.49 772.8 724.594 773.761 733.692 774.775C739.223 775.842 744.771 776.497 750.367 777.314C776.972 781.2 802.986 789.718 828.176 798.909C830.289 799.68 832.561 800.545 834.57 801.507L821.581 955.25C819.646 977.963 817.361 1001.31 815.79 1024L716.905 1024L307.603 1024L208.052 1024L197.3 895.41C194.907 865.614 192.845 831.032 189.344 801.551C204.249 796.114 219.62 790.475 234.832 786.056C253.567 780.613 271.756 777.602 290.947 774.661C297.534 773.694 311.185 772.629 317.84 772.451C318.838 766.421 319.824 760.78 321.278 754.838C328.913 724.228 346.896 697.199 372.181 678.333C376.861 674.834 383.234 671.136 388.303 668.055L388.431 664.453Z"/><path fill="#F36114" d="M388.431 664.453C391.432 665.906 394.361 667.459 397.273 669.085C407.273 674.67 417.876 679.45 428.572 683.526C480.533 703.142 537.721 703.948 590.214 685.805C609.082 679.24 619.377 673.925 636.329 663.992L636.323 667.67C635.817 675.218 636.163 683.357 636.03 691.013L636.032 735.57C636.037 743.823 635.765 754.929 636.423 763.077C612.356 780.756 591.39 801.388 572.929 824.915C570.347 828.205 564.219 837.211 561.382 839.596C557.628 839.514 550.387 842.005 546.475 842.916C524.289 848.084 500.861 847.688 478.656 842.836C473.561 841.723 468.154 839.205 463.115 838.206L462.135 838.02C460.937 836.802 456.415 830.64 455.121 828.964C450.993 823.57 446.672 818.325 442.169 813.24C422.684 791.311 410.883 781.343 388.519 762.899C388.301 739.042 388.269 715.183 388.423 691.326C388.165 683.67 388.283 675.737 388.303 668.055L388.431 664.453Z"/><path fill="#602E93" d="M388.431 664.453C391.432 665.906 394.361 667.459 397.273 669.085C407.273 674.67 417.876 679.45 428.572 683.526C480.533 703.142 537.721 703.948 590.214 685.805C609.082 679.24 619.377 673.925 636.329 663.992L636.323 667.67C635.817 675.218 636.163 683.357 636.03 691.013C569.099 749.777 481.879 756.507 408.77 706.679C402.315 702.28 394.477 694.955 388.423 691.326C388.165 683.67 388.283 675.737 388.303 668.055L388.431 664.453Z"/><path fill="#D8C115" d="M388.303 668.055C388.283 675.737 388.165 683.67 388.423 691.326C388.269 715.183 388.301 739.042 388.519 762.899C410.883 781.343 422.684 791.311 442.169 813.24C446.672 818.325 450.993 823.57 455.121 828.964C456.415 830.64 460.937 836.802 462.135 838.02L463.115 838.206C468.154 839.205 473.561 841.723 478.656 842.836C500.861 847.688 524.289 848.084 546.475 842.916C550.387 842.005 557.628 839.514 561.382 839.596C544.245 862.854 518.117 905.766 513.359 934.625L512.499 936.155C511.721 935.691 512.034 936.016 511.603 935.141C509.515 932.49 507.136 928.283 504.856 925.196C498.066 916.121 489.864 908.194 480.562 901.718C427.776 864.456 359.868 876.195 322.968 929.604C323.131 917 321.8 901.875 321.054 889.018C319.766 867.271 318.597 845.517 317.548 823.757C316.665 805.46 315.515 790.673 317.84 772.451C318.838 766.421 319.824 760.78 321.278 754.838C328.913 724.228 346.896 697.199 372.181 678.333C376.861 674.834 383.234 671.136 388.303 668.055Z"/><path fill="#602E93" d="M462.135 838.02L463.115 838.206C468.154 839.205 473.561 841.723 478.656 842.836C500.861 847.688 524.289 848.084 546.475 842.916C550.387 842.005 557.628 839.514 561.382 839.596C544.245 862.854 518.117 905.766 513.359 934.625L512.499 936.155C511.721 935.691 512.034 936.016 511.603 935.141C510.923 930.15 508.473 923.418 506.811 918.565C498.97 895.679 487.67 875.769 474.429 855.595C470.722 849.948 465.862 844.205 462.453 838.557L462.135 838.02Z"/><path fill="#602E93" d="M189.344 801.551C204.249 796.114 219.62 790.475 234.832 786.056C253.567 780.613 271.756 777.602 290.947 774.661C293.292 801.891 294.775 830.249 296.584 857.527C300.559 912.998 304.232 968.489 307.603 1024L208.052 1024L197.3 895.41C194.907 865.614 192.845 831.032 189.344 801.551Z"/><path fill="#602E93" d="M733.692 774.775C739.223 775.842 744.771 776.497 750.367 777.314C776.972 781.2 802.986 789.718 828.176 798.909C830.289 799.68 832.561 800.545 834.57 801.507L821.581 955.25C819.646 977.963 817.361 1001.31 815.79 1024L716.905 1024C718.43 988.768 721.965 949.873 724.493 914.377L733.692 774.775Z"/><path fill="#D8C115" d="M636.323 667.67C644.42 673.397 651.453 677.639 659.052 684.26C686.003 707.74 699.889 734.039 705.928 769.006C706.093 769.966 706.244 770.929 706.381 771.894C707.046 779.397 708.104 789.354 707.956 796.818C707.628 813.346 706.315 830.415 705.293 846.935L702.821 892.789C702.022 905.762 700.769 916.394 700.959 929.618C683.33 905.048 659.208 886.826 628.844 881.754C599.192 876.663 568.732 883.562 544.168 900.933C534.586 907.843 526.154 916.221 519.181 925.758C517.121 928.581 515.086 932.357 513.359 934.625C518.117 905.766 544.245 862.854 561.382 839.596C564.219 837.211 570.347 828.205 572.929 824.915C591.39 801.388 612.356 780.756 636.423 763.077C635.765 754.929 636.037 743.823 636.032 735.57L636.03 691.013C636.163 683.357 635.817 675.218 636.323 667.67Z"/><path fill="#FEF505" d="M0 1020.46C1.48381 1017.97 1.56902 1013.52 2.02558 1010.53C17.4155 909.716 100.398 839.619 189.344 801.551C192.845 831.032 194.907 865.614 197.3 895.41L208.052 1024L0 1024L0 1020.46Z"/><path fill="#F36114" d="M268.408 509.07C253.591 508.493 239.444 502.348 228.107 492.915C214.215 481.158 205.556 464.369 204.031 446.233C202.301 428.01 208.023 409.864 219.892 395.929C232.997 380.605 249.089 372.402 269.144 370.792L269.935 371.514C271.24 403.525 268.706 438.87 270.216 471.355C270.915 486.391 273.561 495.074 275.316 508.94C273.08 508.959 270.617 508.919 268.408 509.07Z"/><path fill="#FEFFFE" d="M533.857 0L1024 0L1024 1016.05L1024 1024L815.79 1024C817.361 1001.31 819.646 977.963 821.581 955.25L834.57 801.507C832.561 800.545 830.289 799.68 828.176 798.909C802.986 789.718 776.972 781.2 750.367 777.314C744.771 776.497 739.223 775.842 733.692 774.775C724.594 773.761 715.49 772.8 706.381 771.894C706.244 770.929 706.093 769.966 705.928 769.006C699.889 734.039 686.003 707.74 659.052 684.26C651.453 677.639 644.42 673.397 636.323 667.67L636.329 663.992C646.034 658.773 655.229 652.031 663.814 645.162C697.493 618.214 720.71 586.355 737.224 546.717C740.122 539.902 742.551 532.897 744.495 525.751C745.389 522.532 747.863 511.959 749.115 509.587L750.393 509.223C749.428 508.863 749.854 509.163 749.17 508.249C749.242 506.061 751.385 494.538 751.886 491.491C753.011 484.343 753.678 477.131 753.883 469.899C754.202 461.3 753.589 373.171 754.493 371.023L756.852 370.744L753.617 370.286C757.706 364.777 763.229 357.573 766.728 351.788C780.132 329.632 790.696 302.132 794.214 276.504C802.459 219.584 787.46 161.741 752.593 116C726.748 81.346 688.021 58.5765 645.172 52.8419C625.2 28.3757 594.341 11.6734 563.747 4.64247C553.195 2.21739 543.883 1.95297 533.857 0Z"/><path fill="#FEF505" d="M834.57 801.507C851.294 809.312 865.616 815.44 881.526 824.617C946.423 862.054 1001.46 919.535 1019.5 993.952C1020.59 998.416 1022.55 1013.35 1024 1016.05L1024 1024L815.79 1024C817.361 1001.31 819.646 977.963 821.581 955.25L834.57 801.507Z"/><path fill="#F36114" d="M756.852 370.744C777.02 373.161 793.412 381.656 806.07 397.757C817.352 412.31 822.373 430.758 820.02 449.021C816.413 479.165 790.832 505.399 760.469 508.674C757.121 509.035 753.757 509.131 750.393 509.223C749.428 508.863 749.854 509.163 749.17 508.249C749.242 506.061 751.385 494.538 751.886 491.491C753.011 484.343 753.678 477.131 753.883 469.899C754.202 461.3 753.589 373.171 754.493 371.023L756.852 370.744Z"/><path fill="#F36114" d="M506.64 0L533.857 0C543.883 1.95297 553.195 2.21739 563.747 4.64247C594.341 11.6734 625.2 28.3757 645.172 52.8419C688.021 58.5765 726.748 81.346 752.593 116C787.46 161.741 802.459 219.584 794.214 276.504C790.696 302.132 780.132 329.632 766.728 351.788C763.229 357.573 757.706 364.777 753.617 370.286C752.483 371.075 745.204 378.858 743.683 380.412C738.055 386.167 733.97 389.512 727.583 394.161L727.488 338.984C727.505 319.088 728.795 298.366 723.708 279.105C718.488 259.34 699.673 233.286 680.336 225.533C644.101 211.006 622.84 197.284 612.006 157.294C555.641 214.684 470.899 212.509 413.161 158C406.041 184.165 392.153 204.047 366.851 215.437C349.7 223.158 338.421 225.821 324.106 240.117C312.359 251.75 304.088 266.427 300.221 282.501C296.684 296.812 297.501 319.44 297.494 334.915L297.494 394.185C291.828 390.025 287.288 386.42 282.237 381.387C278.648 377.811 275.245 373.747 271.625 370.318C244.141 336.923 230.22 297.333 228.163 254.332C225.483 199.438 244.716 145.727 281.634 105.013C314.078 69.45 352.414 50.3283 400.585 48.1725C425.771 22.9263 449.575 10.0202 484.957 3.01813C492.25 1.57484 499.399 1.38383 506.64 0Z"/><path fill="#F36114" d="M398.289 520.003L627.135 519.907C624.306 548.578 613.784 573.435 593.527 594.222C577.15 611.363 553.928 622.76 530.6 626.408C501.048 631.065 470.852 623.868 446.577 606.382C417.395 585.077 403.79 554.61 398.289 520.003Z"/><path fill="#FEFFFE" d="M428.041 548.014C461.934 548.422 495.83 548.559 529.726 548.425C551.48 548.448 577.18 549.085 598.689 548.163C592.428 557.414 585.039 564.622 576.452 571.592L575.324 572.438C553.223 588.888 525.464 595.823 498.223 591.699C466.76 586.972 446.45 572.94 428.041 548.014Z"/><path fill="#FEFFFE" d="M362.281 410.492C361.809 409.437 358.95 404.523 358.222 403.192C353.601 394.739 351.599 385.923 351.38 376.267C350.891 359.282 357.317 342.827 369.186 330.667C382.009 317.436 396.99 310.747 415.416 310.585C432.198 310.382 448.342 317.012 460.137 328.951C471.761 340.674 478.293 356.509 478.314 373.018C478.298 380.631 476.192 395.736 470.65 401.312C465.118 424.703 445.361 442.013 421.445 444.42C397.53 446.828 374.719 433.805 364.635 411.986C364.495 412.07 364.356 412.154 364.217 412.238C364.171 412.276 364.062 412.357 363.987 412.327C363.36 412.074 362.687 411.012 362.281 410.492Z"/><path fill="#F36114" d="M362.281 410.492C361.809 409.437 358.95 404.523 358.222 403.192C353.601 394.739 351.599 385.923 351.38 376.267C350.891 359.282 357.317 342.827 369.186 330.667C382.009 317.436 396.99 310.747 415.416 310.585C432.198 310.382 448.342 317.012 460.137 328.951C471.761 340.674 478.293 356.509 478.314 373.018C478.298 380.631 476.192 395.736 470.65 401.312C476.264 377.574 465.971 352.917 445.144 340.217C424.317 327.517 397.684 329.655 379.151 345.516C360.617 361.377 354.39 387.36 363.72 409.898L362.281 410.492Z"/><path fill="#F79138" d="M363.72 409.898C364.011 410.6 364.316 411.297 364.635 411.986C364.495 412.07 364.356 412.154 364.217 412.238C364.171 412.276 364.062 412.357 363.987 412.327C363.36 412.074 362.687 411.012 362.281 410.492L363.72 409.898Z"/><path fill="#0C264F" d="M412.012 359.297C427.873 357.255 442.404 368.409 444.532 384.258C446.66 400.108 435.584 414.699 419.746 416.912C403.787 419.142 389.059 407.963 386.916 391.992C384.772 376.021 396.03 361.354 412.012 359.297Z"/><path fill="#FEFFFE" d="M553.799 399.507L552.934 399.668C552.771 397.634 550.943 396.013 549.997 393.638C546.704 385.371 546.262 375.567 547.191 366.829C549.03 350.05 557.449 334.684 570.601 324.102C583.751 313.491 599.713 309.178 616.45 310.986C633.357 312.767 648.845 321.248 659.452 334.533C670.119 348.094 674.959 365.339 672.907 382.471C672.09 389.057 667.032 407.773 660.776 410.723C650.997 433.333 627.668 446.973 603.168 444.405C578.668 441.836 558.675 423.654 553.799 399.507Z"/><path fill="#F36114" d="M553.799 399.507L552.934 399.668C552.771 397.634 550.943 396.013 549.997 393.638C546.704 385.371 546.262 375.567 547.191 366.829C549.03 350.05 557.449 334.684 570.601 324.102C583.751 313.491 599.713 309.178 616.45 310.986C633.357 312.767 648.845 321.248 659.452 334.533C670.119 348.094 674.959 365.339 672.907 382.471C672.09 389.057 667.032 407.773 660.776 410.723C670.411 388.445 664.7 362.5 646.601 346.326C628.503 330.152 602.082 327.382 581.022 339.45C559.962 351.519 548.995 375.715 553.799 399.507Z"/><path fill="#0C264F" d="M603.299 359.713C613.549 357.635 624.126 361.224 630.994 369.112C637.863 377.001 639.963 387.971 636.493 397.838C633.024 407.705 624.521 414.947 614.228 416.801C598.552 419.625 583.524 409.306 580.529 393.662C577.534 378.019 587.689 362.879 603.299 359.713Z"/><path fill="#F36114" d="M508.376 365.071C516.26 364.507 518.899 366.431 521.356 373.695C519.659 381.741 516.019 390.689 513.49 398.649C510.244 409.427 506.412 420.001 503.076 430.746C499.416 442.533 490.7 459.749 498.815 471.073C508.675 484.83 526.529 480.368 539.7 475.283C543.482 473.823 545.061 474.039 548.877 474.729C556.254 481.217 555.501 487.991 546.685 492.399C520.615 503.392 489.971 502.902 478.568 470.716C476.891 465.984 476.358 457.146 477.525 452.34C480.725 439.166 485.636 426.164 489.758 413.182L499.372 383.024C500.877 378.394 502.58 373.001 504.527 368.526C505.11 367.187 507.151 365.884 508.376 365.071Z"/></svg>