<?xml version="1.0" encoding="utf-8" ?><svg xmlns="http://www.w3.org/2000/svg" xmlns:xlink="http://www.w3.org/1999/xlink" width="1024" height="1024" viewBox="0 0 1024 1024"><path fill="white" d="M0 0L1024 0L1024 1024L0 1024L0 0Z"/><path fill="#D8B278" d="M185.926 408.122C177.137 396.311 166.204 383.278 156.886 371.727L116.674 321.348C111.217 314.489 105.635 307.751 100.115 300.909C95.6168 295.333 92.1522 291.342 91.1585 283.822C89.3377 270.045 96.9615 257.35 109.923 252.519C120.433 248.602 130.856 245.107 141.213 241.268L242.63 204.272L327.855 173.379C341.023 168.586 361.565 160.345 374.425 156.52C379.528 155.044 384.842 154.435 390.147 154.72C400.294 155.271 407.534 159.393 414.15 166.845C415.033 167.766 415.174 167.983 415.973 168.989L418.302 171.866C418.842 172.541 419.459 173.231 420.022 173.894L419.385 174.686L419.882 175.538L421.036 175.31C422.189 176.609 423.376 178.15 424.435 179.526C426.757 182.517 429.124 185.473 431.533 188.394C431.902 188.94 432.243 189.384 432.643 189.906C434.276 191.654 435.978 194.023 437.508 195.901L436.893 196.675L437.338 197.51L438.822 197.524C439.06 197.811 439.294 198.1 439.524 198.393C439.898 198.936 440.238 199.369 440.644 199.887C441.467 200.754 442.036 201.582 442.744 202.556C443.549 203.608 443.906 204.028 444.829 204.969C445.055 205.282 445.277 205.598 445.496 205.916L444.887 206.68L445.333 207.507L446.818 207.526C447.054 207.813 447.287 208.102 447.516 208.393C447.937 209.031 448.313 209.444 448.808 210.03C449.036 210.329 449.26 210.631 449.482 210.934L448.838 211.604L449.353 212.525L450.653 212.422C453.86 215.683 456.931 220.387 460.082 223.946L460.849 225.178C464.837 228.915 470.804 237.99 474.819 242.656L474.545 244.154L474.861 244.473L476.318 244.516C476.555 244.807 476.789 245.101 477.019 245.397C477.395 245.928 477.673 246.259 478.089 246.753C478.623 247.333 479.008 247.779 479.508 248.385L478.894 249.186L479.242 250.085L480.582 249.997C483.977 253.846 494.09 266.005 496.283 270.191L496.47 270.339C497.939 271.566 498.876 273.034 500.148 274.48L499.339 274.736L499.482 275.535L499.151 275.811C499.435 276.236 499.683 276.648 499.95 277.083L500.961 277.121C501.374 286.446 501.107 297.254 501.098 306.676L501.047 358.53C532.16 367.445 556.081 384.152 572.51 412.81C573.68 414.852 577.305 422.002 577.932 424.011L577.29 424.1C577.982 426.614 578.551 427.794 579.529 430.23C582.813 438.416 585.089 447.219 585.889 455.999C586.167 459.056 586.454 461.975 587.521 464.84C588.026 468.324 587.973 471.991 587.583 475.488C587.775 486.021 584.515 500.742 580.34 510.443C584.012 508.794 591.039 503.826 593.92 503.809L594.907 503.356C595.862 502.933 595.974 502.908 596.752 502.278L597.56 501.71C600.043 500.736 600.655 500.369 602.986 498.902C605.154 498.328 610.11 495.121 612.063 493.764C613.277 493.373 614.602 492.732 615.556 491.89C618.496 490.901 634.535 481.768 637.547 479.825C638.058 479.679 637.862 479.751 638.172 479.617C640.575 478.43 641.809 477.844 644.041 476.255C644.852 475.99 645.546 475.662 646.279 475.222L646.974 474.823C647.809 474.622 648.75 473.872 649.528 473.361C649.792 473.266 650.056 473.172 650.321 473.077L651.12 472.505C651.491 472.32 651.85 472.195 652.13 471.912C653.054 471.49 654.149 470.869 655.065 470.385C655.264 470.297 655.464 470.208 655.663 470.12C657.645 469.146 659.937 468.167 661.631 466.81C663.896 465.701 667.663 463.82 669.599 462.34C671.289 462.02 672.212 461.199 673.642 460.229C674.911 459.777 674.978 459.641 676.035 458.771C676.572 458.664 676.198 458.764 677.081 458.262L677.558 458.064C679.408 457.308 680.211 456.842 681.966 455.82C682.983 455.572 682.688 455.588 683.595 454.797L684.305 454.481C687.059 453.276 692.431 450.354 695.012 448.816C695.809 448.621 696.774 447.856 697.52 447.363C697.817 447.251 698.114 447.139 698.411 447.027L698.78 446.535C700.027 446.084 700.352 446.102 701.319 445.279L702.077 444.746C705.328 443.642 707.223 442.279 710.188 440.786C717.272 437.177 724.314 433.484 731.312 429.71C733.013 428.78 734.487 428.045 736.028 426.868L737.088 426.277C739.365 425.33 740.575 424.835 742.591 423.354C744.312 423.072 746.199 421.676 747.619 420.711C748.773 420.347 752.409 418.713 753.088 417.814C755.757 416.906 756.797 416.392 759.039 414.739C760.029 414.413 760.797 414.1 761.562 413.385C763.448 412.759 770.631 409.054 772.097 407.798C773.454 407.217 776.717 405.935 777.587 404.787C780.062 404.103 782.365 402.907 784.349 401.277C786.214 400.886 790.5 398.483 792.078 397.349C793.723 397.002 796.886 395.453 798.052 394.258L798.781 393.948C800.728 393.137 801.845 392.573 803.566 391.36C805.502 390.887 805.888 390.456 807.568 389.272C809.175 388.755 809.721 388.36 811.058 387.329C812.627 387.038 812.684 386.745 814.066 385.765C815.216 385.4 817.856 384.225 818.583 383.313C821.418 382.378 841.31 372.09 843.614 370.337C845.517 369.607 847.41 368.614 849.216 367.659C851.376 369.205 852.002 369.829 854.427 370.663C856.612 371.721 860.85 375.063 862.598 376.795C863.763 377.035 865.262 378.344 866.147 379.138C867.456 380.041 868.75 380.966 870.027 381.913C872.143 383.471 877.057 386.79 878.664 388.454C880.07 389.15 881.06 389.918 882.325 390.836C884.1 392.091 886.227 393.364 887.629 395C889.744 395.77 903.837 406.039 905.581 407.787C906.561 408.271 906.284 407.955 906.64 408.469C907.49 408.953 908.113 409.162 908.586 410.037C910.347 411.036 923.565 420.122 924.011 421.131C926.253 422.115 926.554 422.4 928.457 423.882C930.77 425.444 933.052 427.052 935.302 428.704C935.977 429.203 936.469 429.693 937.076 430.267C938.246 430.658 942.074 433.096 942.571 434.123C948.122 437.398 955.853 443.386 960.278 448.017L960.516 448.425C961.081 449.303 961.428 449.948 961.916 450.862C963.746 452.446 965.287 458.189 965.622 460.747C966.931 470.75 963.01 480.009 955.132 486.371C952.574 488.465 949.685 490.118 946.583 491.263L946.298 491.462C944.728 492.873 940.837 494.979 938.746 495.645C937.9 496.997 929.388 501.561 927.593 502.295C926.674 503.066 926.968 503.103 926.05 503.249C924.498 504.697 908.029 514.532 906.474 514.713C904.754 516.316 899.546 519.428 897.293 520.17L897.201 520.405C895.646 521.524 895.831 521.492 893.995 521.997C893.085 523.105 893.074 522.996 891.572 523.559L891.306 523.865C887.032 526.791 880.789 530.034 876.25 532.761C872.129 535.237 866.32 538.908 862.113 540.848C860.899 541.817 860.533 542.206 859.057 542.794L858.209 543.342C856.894 544.21 855.566 545.013 854.146 545.698C853.388 546.293 853.23 546.464 852.505 547.17L852.498 637.27C852.434 660.319 856.797 686.05 838.388 703.29C831.909 709.358 822.085 714.161 814.284 718.575C806.068 723.205 797.898 727.912 789.772 732.698L646.666 815.603C624.351 828.752 601.948 841.751 579.457 854.598C575.243 857.048 555.91 868.913 552.463 870.175L545.58 873.679C543.805 874.716 542.37 875.497 540.493 876.316C537.895 877.356 518.526 877.235 515.339 876.172C506.621 873.267 496.797 869.579 488.083 866.38L430.212 845.162L204.44 762.367C203.185 761.803 202.48 761.633 201.377 760.81C187.489 753.051 180.947 735.111 181.368 719.937C181.461 716.57 181.334 713.04 181.34 709.65L181.511 678.946L181.706 643.157C181.69 635.741 181.332 625.995 181.799 618.768C182.817 609.984 181.736 596.255 182.459 586.245C179.477 584.729 168.885 581.602 165.081 580.412L121.07 566.612C109.87 563.134 95.5355 560.377 87.2752 552.121C86.4776 551.196 85.747 550.216 85.0889 549.188C80.3702 541.786 79.8903 530.3 83.7961 522.505C84.4355 520.664 85.4433 518.64 86.9851 517.407C87.8916 515.922 90.7819 512.373 92.1 511.314C94.9253 508.121 98.055 504.91 100.835 501.712C101.136 501.423 101.437 501.134 101.738 500.845C103.312 498.931 109.98 491.667 111.877 490.059L112.418 489.417C113.362 487.457 114.72 486.373 116.364 484.934C117.43 483.23 119.306 481.083 120.982 479.921C122.511 477.539 124.441 475.441 126.686 473.719L126.907 473.325C128.393 471.196 129.279 470.224 131.301 468.602L131.777 468.144L132.26 467.371C133.991 465.127 139.794 458.832 141.857 456.832L142.253 456.358C146.12 451.42 152.3 445.584 156.487 440.445C158.1 438.469 159.931 436.784 161.581 434.859C163.15 433.064 169.42 425.949 170.748 424.789C172.332 422.834 173.979 421.327 175.512 419.43C175.746 419.243 175.98 419.055 176.214 418.867C177.42 417.395 180.649 413.736 182.182 412.735C183.209 411.153 184.679 409.578 185.926 408.122Z"/><path fill="#A77F50" d="M849.216 367.659C851.376 369.205 852.002 369.829 854.427 370.663C856.612 371.721 860.85 375.063 862.598 376.795C863.763 377.035 865.262 378.344 866.147 379.138C867.456 380.041 868.75 380.966 870.027 381.913C872.143 383.471 877.057 386.79 878.664 388.454C880.07 389.15 881.06 389.918 882.325 390.836C884.1 392.091 886.227 393.364 887.629 395C889.744 395.77 903.837 406.039 905.581 407.787C906.561 408.271 906.284 407.955 906.64 408.469C907.49 408.953 908.113 409.162 908.586 410.037C910.347 411.036 923.565 420.122 924.011 421.131C926.253 422.115 926.554 422.4 928.457 423.882C930.77 425.444 933.052 427.052 935.302 428.704C935.977 429.203 936.469 429.693 937.076 430.267C938.246 430.658 942.074 433.096 942.571 434.123C948.122 437.398 955.853 443.386 960.278 448.017L960.516 448.425C961.081 449.303 961.428 449.948 961.916 450.862C963.746 452.446 965.287 458.189 965.622 460.747C966.931 470.75 963.01 480.009 955.132 486.371C952.574 488.465 949.685 490.118 946.583 491.263L946.298 491.462C944.728 492.873 940.837 494.979 938.746 495.645C937.9 496.997 929.388 501.561 927.593 502.295C926.674 503.066 926.968 503.103 926.05 503.249C924.498 504.697 908.029 514.532 906.474 514.713C904.754 516.316 899.546 519.428 897.293 520.17L897.201 520.405C895.646 521.524 895.831 521.492 893.995 521.997C893.085 523.105 893.074 522.996 891.572 523.559L891.306 523.865C887.032 526.791 880.789 530.034 876.25 532.761C872.129 535.237 866.32 538.908 862.113 540.848C860.899 541.817 860.533 542.206 859.057 542.794L858.209 543.342C856.894 544.21 855.566 545.013 854.146 545.698C853.388 546.293 853.23 546.464 852.505 547.17L852.498 637.27C852.434 660.319 856.797 686.05 838.388 703.29C831.909 709.358 822.085 714.161 814.284 718.575C806.068 723.205 797.898 727.912 789.772 732.698L646.666 815.603C624.351 828.752 601.948 841.751 579.457 854.598C575.243 857.048 555.91 868.913 552.463 870.175C551.281 870.178 551.329 870.233 550.256 869.771C555.978 862.398 562.475 851.024 562.941 841.679C564.332 813.785 563.139 783.946 563.496 756.12C564.488 679.088 564.967 602.05 564.934 525.012C566.134 525.818 567.056 526.673 568.139 527.619C569.365 528.472 569.787 528.678 570.773 529.771L571.957 530.771C572.83 531.29 573.49 531.748 574.056 532.628L577.081 535.332C577.75 535.677 577.698 535.6 578.121 536.173L578.822 536.632C579.546 537.093 580.116 537.565 580.636 538.248C581.763 539.915 581.925 539.837 583.685 540.712L583.156 539.081C580.927 536.159 567.405 525.668 563.774 522.52C569.739 516.448 586.056 509.047 593.92 503.809L594.907 503.356C595.862 502.933 595.974 502.908 596.752 502.278L597.56 501.71C600.043 500.736 600.655 500.369 602.986 498.902C605.154 498.328 610.11 495.121 612.063 493.764C613.277 493.373 614.602 492.732 615.556 491.89C618.496 490.901 634.535 481.768 637.547 479.825C638.058 479.679 637.862 479.751 638.172 479.617C640.575 478.43 641.809 477.844 644.041 476.255C644.852 475.99 645.546 475.662 646.279 475.222L646.974 474.823C647.809 474.622 648.75 473.872 649.528 473.361C649.792 473.266 650.056 473.172 650.321 473.077L651.12 472.505C651.491 472.32 651.85 472.195 652.13 471.912C653.054 471.49 654.149 470.869 655.065 470.385C655.264 470.297 655.464 470.208 655.663 470.12C657.645 469.146 659.937 468.167 661.631 466.81C663.896 465.701 667.663 463.82 669.599 462.34C671.289 462.02 672.212 461.199 673.642 460.229C674.911 459.777 674.978 459.641 676.035 458.771C676.572 458.664 676.198 458.764 677.081 458.262L677.558 458.064C679.408 457.308 680.211 456.842 681.966 455.82C682.983 455.572 682.688 455.588 683.595 454.797L684.305 454.481C687.059 453.276 692.431 450.354 695.012 448.816C695.809 448.621 696.774 447.856 697.52 447.363C697.817 447.251 698.114 447.139 698.411 447.027L698.78 446.535C700.027 446.084 700.352 446.102 701.319 445.279L702.077 444.746C705.328 443.642 707.223 442.279 710.188 440.786C717.272 437.177 724.314 433.484 731.312 429.71C733.013 428.78 734.487 428.045 736.028 426.868L737.088 426.277C739.365 425.33 740.575 424.835 742.591 423.354C744.312 423.072 746.199 421.676 747.619 420.711C748.773 420.347 752.409 418.713 753.088 417.814C755.757 416.906 756.797 416.392 759.039 414.739C760.029 414.413 760.797 414.1 761.562 413.385C763.448 412.759 770.631 409.054 772.097 407.798C773.454 407.217 776.717 405.935 777.587 404.787C780.062 404.103 782.365 402.907 784.349 401.277C786.214 400.886 790.5 398.483 792.078 397.349C793.723 397.002 796.886 395.453 798.052 394.258L798.781 393.948C800.728 393.137 801.845 392.573 803.566 391.36C805.502 390.887 805.888 390.456 807.568 389.272C809.175 388.755 809.721 388.36 811.058 387.329C812.627 387.038 812.684 386.745 814.066 385.765C815.216 385.4 817.856 384.225 818.583 383.313C821.418 382.378 841.31 372.09 843.614 370.337C845.517 369.607 847.41 368.614 849.216 367.659Z"/><path fill="#D8B278" d="M849.216 367.659C851.376 369.205 852.002 369.829 854.427 370.663C856.612 371.721 860.85 375.063 862.598 376.795C863.763 377.035 865.262 378.344 866.147 379.138C867.456 380.041 868.75 380.966 870.027 381.913C872.143 383.471 877.057 386.79 878.664 388.454C880.07 389.15 881.06 389.918 882.325 390.836C884.1 392.091 886.227 393.364 887.629 395C889.744 395.77 903.837 406.039 905.581 407.787C906.561 408.271 906.284 407.955 906.64 408.469C907.49 408.953 908.113 409.162 908.586 410.037C910.347 411.036 923.565 420.122 924.011 421.131C926.253 422.115 926.554 422.4 928.457 423.882C930.77 425.444 933.052 427.052 935.302 428.704C935.977 429.203 936.469 429.693 937.076 430.267C938.246 430.658 942.074 433.096 942.571 434.123C948.122 437.398 955.853 443.386 960.278 448.017L960.516 448.425C961.081 449.303 961.428 449.948 961.916 450.862C963.746 452.446 965.287 458.189 965.622 460.747C966.931 470.75 963.01 480.009 955.132 486.371C952.574 488.465 949.685 490.118 946.583 491.263L946.298 491.462C944.728 492.873 940.837 494.979 938.746 495.645C937.9 496.997 929.388 501.561 927.593 502.295C926.674 503.066 926.968 503.103 926.05 503.249C924.498 504.697 908.029 514.532 906.474 514.713C904.754 516.316 899.546 519.428 897.293 520.17L897.201 520.405C895.646 521.524 895.831 521.492 893.995 521.997C893.085 523.105 893.074 522.996 891.572 523.559L891.306 523.865C887.032 526.791 880.789 530.034 876.25 532.761C872.129 535.237 866.32 538.908 862.113 540.848C860.899 541.817 860.533 542.206 859.057 542.794L858.209 543.342C856.894 544.21 855.566 545.013 854.146 545.698C853.388 546.293 853.23 546.464 852.505 547.17C850.978 547.885 850.114 548.351 848.518 548.884C847.14 548.887 839.62 553.19 839.042 554.164C837.329 554.838 828.721 559.506 828.04 560.665C825.637 561.6 825.476 561.638 823.533 563.262C822.226 563.523 797.731 577.862 796.044 579.264C794.565 579.542 752.186 604.421 750.017 606.249C749.133 606.43 748.958 606.419 748.552 607.204C746.02 608.146 741.038 611.012 738.992 612.806L738.204 613.094C737.163 613.46 737.009 613.37 736.559 614.19C735.463 614.595 734.576 614.673 734.055 615.711C731.722 616.571 731.562 616.681 729.503 618.135C729.272 618.261 728.616 618.573 728.493 618.747C716.07 623.763 695.328 626.088 682.843 619.876C672.913 614.935 659.953 602.212 650.913 595.084C627.989 577.01 606.035 557.194 583.156 539.081C580.927 536.159 567.405 525.668 563.774 522.52C569.739 516.448 586.056 509.047 593.92 503.809L594.907 503.356C595.862 502.933 595.974 502.908 596.752 502.278L597.56 501.71C600.043 500.736 600.655 500.369 602.986 498.902C605.154 498.328 610.11 495.121 612.063 493.764C613.277 493.373 614.602 492.732 615.556 491.89C618.496 490.901 634.535 481.768 637.547 479.825C638.058 479.679 637.862 479.751 638.172 479.617C640.575 478.43 641.809 477.844 644.041 476.255C644.852 475.99 645.546 475.662 646.279 475.222L646.974 474.823C647.809 474.622 648.75 473.872 649.528 473.361C649.792 473.266 650.056 473.172 650.321 473.077L651.12 472.505C651.491 472.32 651.85 472.195 652.13 471.912C653.054 471.49 654.149 470.869 655.065 470.385C655.264 470.297 655.464 470.208 655.663 470.12C657.645 469.146 659.937 468.167 661.631 466.81C663.896 465.701 667.663 463.82 669.599 462.34C671.289 462.02 672.212 461.199 673.642 460.229C674.911 459.777 674.978 459.641 676.035 458.771C676.572 458.664 676.198 458.764 677.081 458.262L677.558 458.064C679.408 457.308 680.211 456.842 681.966 455.82C682.983 455.572 682.688 455.588 683.595 454.797L684.305 454.481C687.059 453.276 692.431 450.354 695.012 448.816C695.809 448.621 696.774 447.856 697.52 447.363C697.817 447.251 698.114 447.139 698.411 447.027L698.78 446.535C700.027 446.084 700.352 446.102 701.319 445.279L702.077 444.746C705.328 443.642 707.223 442.279 710.188 440.786C717.272 437.177 724.314 433.484 731.312 429.71C733.013 428.78 734.487 428.045 736.028 426.868L737.088 426.277C739.365 425.33 740.575 424.835 742.591 423.354C744.312 423.072 746.199 421.676 747.619 420.711C748.773 420.347 752.409 418.713 753.088 417.814C755.757 416.906 756.797 416.392 759.039 414.739C760.029 414.413 760.797 414.1 761.562 413.385C763.448 412.759 770.631 409.054 772.097 407.798C773.454 407.217 776.717 405.935 777.587 404.787C780.062 404.103 782.365 402.907 784.349 401.277C786.214 400.886 790.5 398.483 792.078 397.349C793.723 397.002 796.886 395.453 798.052 394.258L798.781 393.948C800.728 393.137 801.845 392.573 803.566 391.36C805.502 390.887 805.888 390.456 807.568 389.272C809.175 388.755 809.721 388.36 811.058 387.329C812.627 387.038 812.684 386.745 814.066 385.765C815.216 385.4 817.856 384.225 818.583 383.313C821.418 382.378 841.31 372.09 843.614 370.337C845.517 369.607 847.41 368.614 849.216 367.659Z"/><path fill="#6B543C" d="M959.738 449.051L960.516 448.425C961.081 449.303 961.428 449.948 961.916 450.862C963.746 452.446 965.287 458.189 965.622 460.747C966.931 470.75 963.01 480.009 955.132 486.371L955.483 484.848C956.759 484.007 956.895 483.745 957.927 482.568C958.47 482.207 958.394 482.258 958.692 481.639C961.244 478.607 964.16 473.489 964.429 469.503L964.548 467.609C964.535 466.83 964.537 466.051 964.556 465.272C964.606 463.58 964.573 462.146 964.582 460.47C963.919 455.753 963.274 454.998 961.041 451.269L959.738 449.051Z"/><path fill="#A77F50" d="M964.582 460.47C965.168 463.451 965.121 464.614 964.548 467.609C964.535 466.83 964.537 466.051 964.556 465.272C964.606 463.58 964.573 462.146 964.582 460.47Z"/><path fill="#5A432B" d="M959.738 449.051L960.516 448.425C961.081 449.303 961.428 449.948 961.916 450.862C961.14 450.247 960.462 449.734 959.738 449.051Z"/><path fill="#A77F50" d="M862.113 540.848C862.434 540.376 863.289 538.982 863.792 538.82C868.599 537.276 887.779 523.476 891.306 523.865C887.032 526.791 880.789 530.034 876.25 532.761C872.129 535.237 866.32 538.908 862.113 540.848Z"/><path fill="#A77F50" d="M887.629 395C889.744 395.77 903.837 406.039 905.581 407.787C898.465 405.505 894.067 399.278 887.896 396.274L887.629 395Z"/><path fill="#A77F50" d="M906.474 514.713C906.745 513.325 923.559 503.692 925.11 503.434L926.05 503.249C924.498 504.697 908.029 514.532 906.474 514.713Z"/><path fill="#5A432B" d="M942.571 434.123C948.122 437.398 955.853 443.386 960.278 448.017L958.869 448.087C957.799 446.247 956.806 445.522 955.148 444.168C954.824 443.868 954.914 443.928 954.552 443.729C951.108 440.483 945.039 437.155 942.571 434.123Z"/><path fill="#6B543C" d="M908.586 410.037C910.347 411.036 923.565 420.122 924.011 421.131C922.158 420.967 912.513 413.344 909.707 411.762C909.287 411.047 909.079 410.689 908.586 410.037Z"/><path fill="#6B543C" d="M866.147 379.138C867.456 380.041 868.75 380.966 870.027 381.913C872.143 383.471 877.057 386.79 878.664 388.454L877.72 388.752C876.218 387.347 868.267 381.419 866.503 380.585C866.391 380.101 866.272 379.619 866.147 379.138Z"/><path fill="#A77F50" d="M927.593 502.295C929.032 500.275 936.314 495.921 938.746 495.645C937.9 496.997 929.388 501.561 927.593 502.295Z"/><path fill="#A77F50" d="M955.483 484.848L955.132 486.371C952.574 488.465 949.685 490.118 946.583 491.263C947.558 489.947 953.6 486.185 955.483 484.848Z"/><path fill="#A77F50" d="M897.293 520.17C898.603 518.097 904.091 515.441 906.474 514.713C904.754 516.316 899.546 519.428 897.293 520.17Z"/><path fill="#6B543C" d="M928.457 423.882C930.77 425.444 933.052 427.052 935.302 428.704C935.977 429.203 936.469 429.693 937.076 430.267C934.226 429.164 930.304 426.135 927.79 424.235L928.457 423.882Z"/><path fill="#A77F50" d="M938.746 495.645C940.518 493.471 943.57 491.965 946.298 491.462C944.728 492.873 940.837 494.979 938.746 495.645Z"/><path fill="#8C6F4C" d="M882.325 390.836C884.1 392.091 886.227 393.364 887.629 395L886.495 395.2C884.135 392.85 882.728 392.705 881.525 391.573L882.325 390.836Z"/><path fill="#C2A16B" d="M853.375 545.319C854.735 543.579 856.896 542.715 859.057 542.794L858.209 543.342C856.894 544.21 855.566 545.013 854.146 545.698L853.375 545.319Z"/><path fill="#A77F50" d="M862.598 376.795C863.763 377.035 865.262 378.344 866.147 379.138C866.272 379.619 866.391 380.101 866.503 380.585C865.488 380.007 862.624 377.938 862.598 376.795Z"/><path fill="#5A432B" d="M853.375 545.319L854.146 545.698C853.388 546.293 853.23 546.464 852.505 547.17C850.978 547.885 850.114 548.351 848.518 548.884C850.544 546.863 851.268 546.932 853.375 545.319Z"/><path fill="#A77F50" d="M924.011 421.131C926.253 422.115 926.554 422.4 928.457 423.882L927.79 424.235C925.286 423.463 925.634 423.293 924.011 421.131Z"/><path fill="#6B543C" d="M878.664 388.454C880.07 389.15 881.06 389.918 882.325 390.836L881.525 391.573C880.452 390.363 880.415 390.359 878.946 389.618L878.664 388.454Z"/><path fill="#A77F50" d="M893.995 521.997C894.878 520.386 895.347 520.103 897.201 520.405C895.646 521.524 895.831 521.492 893.995 521.997Z"/><path fill="#C2A16B" d="M906.64 408.469C907.49 408.953 908.113 409.162 908.586 410.037C909.079 410.689 909.287 411.047 909.707 411.762C907.972 411.02 907.663 410.191 906.64 408.469Z"/><path fill="#A77F50" d="M891.572 523.559C891.713 523.255 891.854 522.95 891.995 522.646C892.167 522.362 892.457 522.17 892.786 522.123C893.189 522.081 893.592 522.039 893.995 521.997C893.085 523.105 893.074 522.996 891.572 523.559Z"/><path fill="#A77F50" d="M960.278 448.017L960.516 448.425L959.738 449.051C959.283 448.619 959.241 448.584 958.869 448.087L960.278 448.017Z"/><path fill="#5A432B" d="M583.685 540.712L583.156 539.081C606.035 557.194 627.989 577.01 650.913 595.084C659.953 602.212 672.913 614.935 682.843 619.876C695.328 626.088 716.07 623.763 728.493 618.747C726.655 620.909 720.108 622.893 717.216 623.351C701.9 625.777 688.096 624.779 675.136 616.133C674.825 615.881 674.804 615.852 674.437 615.688L673.373 614.681C673.118 614.529 672.863 614.377 672.608 614.225L670.662 612.649C670.276 612.359 670.398 612.435 670.029 612.249L667.537 610.084C666.915 609.325 666.866 609.245 665.971 608.879C664.762 607.651 663.854 606.792 662.469 605.748L661.741 605.279C660.753 604.805 660.61 604.749 659.949 603.904C658.605 602.459 658.45 602.301 656.816 601.198L656.309 600.804C655.394 599.673 655.24 599.623 653.971 598.819L653.717 598.631C652.503 597.343 652.353 597.22 650.864 596.252L650.453 595.929C649.618 594.923 649.556 594.736 648.417 594.224L647.307 593.194C646.779 592.643 646.812 592.607 646.137 592.304L644.063 590.565C643.685 590.029 643.751 590.071 643.148 589.798C640.637 587.581 638.848 586.135 636.149 584.152C635.768 583.696 635.887 583.772 635.389 583.516L633.047 581.586C632.664 581.051 632.728 581.088 632.13 580.807C630.859 579.673 629.405 578.567 628.066 577.5C627.296 576.629 626.747 576.334 625.783 575.692L625.261 575.25C624.518 574.428 624.43 574.302 623.465 573.775L622.244 572.764C621.357 571.731 620.946 571.487 619.832 570.682L619.237 570.257C618.407 569.322 618.113 569.113 617.117 568.351L616.242 567.769C615.319 566.674 614.915 566.456 613.754 565.601C609.555 562.025 605.306 558.508 601.009 555.051C600.463 554.31 600.305 554.224 599.5 553.775L598.247 552.683C597.113 551.389 596.542 551.072 595.074 550.168C594.5 549.35 594.36 549.263 593.473 548.773L592.235 547.766C591.268 546.622 590.922 546.486 589.622 545.663C589.107 545.017 589.186 545.087 588.419 544.697L587.395 543.883C585.471 542.612 585.425 542.424 583.685 540.712Z"/><path fill="#8C6F4C" d="M583.685 540.712C585.609 541.929 585.856 542.207 587.395 543.883C585.471 542.612 585.425 542.424 583.685 540.712Z"/><path fill="#8C6F4C" d="M659.949 603.904C660.972 604.273 661.002 604.4 661.741 605.279C660.753 604.805 660.61 604.749 659.949 603.904Z"/><path fill="#5A432B" d="M750.017 606.249C752.186 604.421 794.565 579.542 796.044 579.264C795.551 580.852 776.546 591.232 773.419 593.262C773.052 593.42 773.179 593.346 772.804 593.619C767.621 596.488 754.811 604.976 750.017 606.249Z"/><path fill="#5A432B" d="M796.044 579.264C797.731 577.862 822.226 563.523 823.533 563.262C823.219 564.403 822.483 564.637 821.556 565.435C821.145 565.474 821.213 565.473 820.836 565.698C813.994 569.157 802.654 577.29 796.044 579.264Z"/><path fill="#5A432B" d="M828.04 560.665C828.721 559.506 837.329 554.838 839.042 554.164C837.605 555.759 829.878 560.864 828.04 560.665Z"/><path fill="#5A432B" d="M839.042 554.164C839.62 553.19 847.14 548.887 848.518 548.884C848.169 549.815 840.503 554.318 839.042 554.164Z"/><path fill="#5A432B" d="M738.992 612.806C741.038 611.012 746.02 608.146 748.552 607.204C746.37 609.407 741.999 611.945 738.992 612.806Z"/><path fill="#5A432B" d="M823.533 563.262C825.476 561.638 825.637 561.6 828.04 560.665C826.236 562.654 826.272 562.549 823.533 563.262Z"/><path fill="#5A432B" d="M729.503 618.135C731.562 616.681 731.722 616.571 734.055 615.711C732.188 617.653 732.247 617.536 729.503 618.135Z"/><path fill="#5A432B" d="M748.552 607.204C748.958 606.419 749.133 606.43 750.017 606.249C749.752 607.243 749.554 607.267 748.552 607.204Z"/><path fill="#5A432B" d="M734.055 615.711C734.576 614.673 735.463 614.595 736.559 614.19C735.613 615.171 735.422 615.693 734.055 615.711Z"/><path fill="#5A432B" d="M736.559 614.19C737.009 613.37 737.163 613.46 738.204 613.094C737.741 614.047 737.671 614.197 736.559 614.19Z"/><path fill="#8C6F4C" d="M595.074 550.168C596.542 551.072 597.113 551.389 598.247 552.683C596.711 552.127 596.254 551.314 595.074 550.168Z"/><path fill="#8C6F4C" d="M662.469 605.748C663.854 606.792 664.762 607.651 665.971 608.879C663.842 607.766 664.1 607.801 662.469 605.748Z"/><path fill="#8C6F4C" d="M571.957 530.771C572.83 531.29 573.49 531.748 574.056 532.628C573.028 532.219 572.534 531.737 571.957 530.771Z"/><path fill="#8C6F4C" d="M648.417 594.224C649.556 594.736 649.618 594.923 650.453 595.929C649.261 595.314 648.984 595.313 648.417 594.224Z"/><path fill="#8C6F4C" d="M623.465 573.775C624.43 574.302 624.518 574.428 625.261 575.25C624.11 574.963 624.005 574.891 623.465 573.775Z"/><path fill="#8C6F4C" d="M617.117 568.351C618.113 569.113 618.407 569.322 619.237 570.257C617.843 569.908 617.922 569.606 617.117 568.351Z"/><path fill="#8C6F4C" d="M656.816 601.198C658.45 602.301 658.605 602.459 659.949 603.904C658.134 602.914 658.131 602.818 656.816 601.198Z"/><path fill="#8C6F4C" d="M593.473 548.773C594.36 549.263 594.5 549.35 595.074 550.168C594.047 549.933 593.921 549.726 593.473 548.773Z"/><path fill="#8C6F4C" d="M653.971 598.819C655.24 599.623 655.394 599.673 656.309 600.804C654.904 600.148 654.931 600.044 653.971 598.819Z"/><path fill="#8C6F4C" d="M650.864 596.252C652.353 597.22 652.503 597.343 653.717 598.631C652.149 597.822 651.987 597.63 650.864 596.252Z"/><path fill="#8C6F4C" d="M578.121 536.173L578.822 536.632C579.546 537.093 580.116 537.565 580.636 538.248C579.318 537.85 579.064 537.231 578.121 536.173Z"/><path fill="#8C6F4C" d="M599.5 553.775C600.305 554.224 600.463 554.31 601.009 555.051C600.036 554.809 599.964 554.665 599.5 553.775Z"/><path fill="#8C6F4C" d="M589.622 545.663C590.922 546.486 591.268 546.622 592.235 547.766C590.825 547.179 590.662 546.82 589.622 545.663Z"/><path fill="#8C6F4C" d="M665.971 608.879C666.866 609.245 666.915 609.325 667.537 610.084C666.656 609.974 666.473 609.589 665.971 608.879Z"/><path fill="#8C6F4C" d="M625.783 575.692C626.747 576.334 627.296 576.629 628.066 577.5C626.938 577.51 626.483 576.541 625.783 575.692Z"/><path fill="#8C6F4C" d="M613.754 565.601C614.915 566.456 615.319 566.674 616.242 567.769C614.958 567.368 614.643 566.652 613.754 565.601Z"/><path fill="#8C6F4C" d="M619.832 570.682C620.946 571.487 621.357 571.731 622.244 572.764C620.918 572.167 620.81 571.829 619.832 570.682Z"/><path fill="#8C6F4C" d="M568.139 527.619C569.365 528.472 569.787 528.678 570.773 529.771C569.89 529.371 569.489 529.043 568.822 528.321L568.139 527.619Z"/><path fill="#8C6F4C" d="M646.137 592.304C646.812 592.607 646.779 592.643 647.307 593.194C646.478 593.03 646.356 593.148 646.137 592.304Z"/><path fill="#D8B278" d="M185.926 408.122C177.137 396.311 166.204 383.278 156.886 371.727L116.674 321.348C111.217 314.489 105.635 307.751 100.115 300.909C95.6168 295.333 92.1522 291.342 91.1585 283.822C89.3377 270.045 96.9615 257.35 109.923 252.519C120.433 248.602 130.856 245.107 141.213 241.268L242.63 204.272L327.855 173.379C341.023 168.586 361.565 160.345 374.425 156.52C379.528 155.044 384.842 154.435 390.147 154.72C400.294 155.271 407.534 159.393 414.15 166.845C415.033 167.766 415.174 167.983 415.973 168.989L418.302 171.866C418.842 172.541 419.459 173.231 420.022 173.894L419.385 174.686L419.882 175.538L421.036 175.31C422.189 176.609 423.376 178.15 424.435 179.526C426.757 182.517 429.124 185.473 431.533 188.394C431.902 188.94 432.243 189.384 432.643 189.906C434.276 191.654 435.978 194.023 437.508 195.901L436.893 196.675L437.338 197.51L438.822 197.524C439.06 197.811 439.294 198.1 439.524 198.393C439.898 198.936 440.238 199.369 440.644 199.887C441.467 200.754 442.036 201.582 442.744 202.556C443.549 203.608 443.906 204.028 444.829 204.969C445.055 205.282 445.277 205.598 445.496 205.916L444.887 206.68L445.333 207.507L446.818 207.526C447.054 207.813 447.287 208.102 447.516 208.393C447.937 209.031 448.313 209.444 448.808 210.03C449.036 210.329 449.26 210.631 449.482 210.934L448.838 211.604L449.353 212.525L450.653 212.422C453.86 215.683 456.931 220.387 460.082 223.946L460.849 225.178C464.837 228.915 470.804 237.99 474.819 242.656L474.545 244.154L474.861 244.473L476.318 244.516C476.555 244.807 476.789 245.101 477.019 245.397C477.395 245.928 477.673 246.259 478.089 246.753C478.623 247.333 479.008 247.779 479.508 248.385L478.894 249.186L479.242 250.085L480.582 249.997C483.977 253.846 494.09 266.005 496.283 270.191L496.47 270.339C497.939 271.566 498.876 273.034 500.148 274.48L499.339 274.736L499.482 275.535L499.151 275.811C499.435 276.236 499.683 276.648 499.95 277.083L500.961 277.121C501.374 286.446 501.107 297.254 501.098 306.676L501.047 358.53C532.16 367.445 556.081 384.152 572.51 412.81C573.68 414.852 577.305 422.002 577.932 424.011L577.29 424.1C577.982 426.614 578.551 427.794 579.529 430.23C582.813 438.416 585.089 447.219 585.889 455.999C586.167 459.056 586.454 461.975 587.521 464.84C588.026 468.324 587.973 471.991 587.583 475.488C586.542 479.796 586.576 483.291 585.868 487.663C584.537 495.886 582.428 503.018 579.413 510.739C576.692 512.655 570.615 516.507 567.588 518.048L567.055 518.42C565.751 519.577 563.574 521.479 561.904 521.898C558.822 521.158 556.87 520.727 553.914 519.572C550.213 518.96 533.929 513.58 529.21 512.17L464.875 492.678L246.866 426.027C237.348 423.115 193.205 408.544 186.852 408.907C185.977 408.957 185.457 409.969 184.909 410.613C183.98 411.38 183.156 412.025 182.182 412.735C183.209 411.153 184.679 409.578 185.926 408.122Z"/><path fill="#BF061E" d="M357.893 459.319C358.652 447.996 361.141 436.856 365.274 426.288C376.137 399.236 398.971 376.471 425.756 365.049C454.245 352.887 486.395 352.523 515.151 364.038C534.765 372.029 562.19 392.046 570.4 411.62C573.512 416.358 574.831 419.016 577.29 424.1C577.982 426.614 578.551 427.794 579.529 430.23C582.813 438.416 585.089 447.219 585.889 455.999C586.167 459.056 586.454 461.975 587.521 464.84C588.026 468.324 587.973 471.991 587.583 475.488C586.542 479.796 586.576 483.291 585.868 487.663C584.537 495.886 582.428 503.018 579.413 510.739C576.692 512.655 570.615 516.507 567.588 518.048L567.055 518.42C565.751 519.577 563.574 521.479 561.904 521.898C558.822 521.158 556.87 520.727 553.914 519.572C550.827 517.38 525.877 510.413 520.964 508.979C505.041 503.092 481.055 496.642 464.302 491.621L357.893 459.319Z"/><path fill="#890312" d="M570.4 411.62C573.512 416.358 574.831 419.016 577.29 424.1C577.982 426.614 578.551 427.794 579.529 430.23C582.813 438.416 585.089 447.219 585.889 455.999C586.167 459.056 586.454 461.975 587.521 464.84C588.026 468.324 587.973 471.991 587.583 475.488C586.542 479.796 586.576 483.291 585.868 487.663C584.537 495.886 582.428 503.018 579.413 510.739C576.692 512.655 570.615 516.507 567.588 518.048L567.055 518.42C565.751 519.577 563.574 521.479 561.904 521.898C558.822 521.158 556.87 520.727 553.914 519.572C550.827 517.38 525.877 510.413 520.964 508.979C523.222 508 532.645 500.607 534.71 498.865C553.571 482.954 565.955 459.797 569.191 435.369C570.243 427.419 569.68 419.579 570.4 411.62Z"/><path fill="#A77F50" d="M237.929 388.633C240.235 387.079 255.627 380.724 259.155 379.205L306.58 358.706C370.546 331.137 435.524 304.082 499.151 275.811C499.435 276.236 499.683 276.648 499.95 277.083L499.942 358.247C467.79 351.223 437.087 354.862 408.925 372.86C383.683 388.974 365.801 414.38 359.149 443.579C358.035 448.666 357.342 453.836 357.076 459.037C342.613 454.246 327.341 449.834 312.726 445.338L240.202 423.026L209.709 413.829C204.512 412.277 197.441 410.388 192.469 408.547C195.062 407.69 207.026 403.423 207.922 401.644C209.701 400.292 214.284 398.615 216.501 397.799C218.363 396.854 224.577 393.828 226.443 393.669C228.153 392.326 235.751 388.905 237.929 388.633Z"/><path fill="#5A432B" d="M237.929 388.633C240.235 387.079 255.627 380.724 259.155 379.205L306.58 358.706C370.546 331.137 435.524 304.082 499.151 275.811C499.435 276.236 499.683 276.648 499.95 277.083C495.992 277.233 419.379 311.351 410.411 315.223L283.1 369.849C276.554 372.677 242.659 388.177 237.929 388.633Z"/><path fill="#6B543C" d="M216.501 397.799C218.363 396.854 224.577 393.828 226.443 393.669C226.182 394.8 217.86 398.862 216.501 397.799Z"/><path fill="#5A432B" d="M185.926 408.122C177.137 396.311 166.204 383.278 156.886 371.727L116.674 321.348C111.217 314.489 105.635 307.751 100.115 300.909C95.6168 295.333 92.1522 291.342 91.1585 283.822C89.3377 270.045 96.9615 257.35 109.923 252.519C120.433 248.602 130.856 245.107 141.213 241.268L242.63 204.272L327.855 173.379C341.023 168.586 361.565 160.345 374.425 156.52C379.528 155.044 384.842 154.435 390.147 154.72C400.294 155.271 407.534 159.393 414.15 166.845L413.314 167.153L412.492 166.322C411.137 164.296 410.962 164.136 409.029 162.64L407.699 161.591C407.324 161.311 407.438 161.385 407.065 161.198C388.961 148.357 368.448 159.498 350.539 165.933L284.522 189.828L163.89 233.646L128.713 246.47C122.182 248.842 115.724 251.064 109.254 253.708C102.916 256.297 101.12 258.117 97.0885 263.5C90.659 272.085 89.422 285.453 96.1003 294.267C102.822 303.139 110.228 311.901 117.258 320.711C131.826 339.109 146.499 357.423 161.275 375.654L180.376 399.523C182.061 401.616 185.416 406.323 187.08 407.888C196.105 408.95 202.556 402.311 207.922 401.644C207.026 403.423 195.062 407.69 192.469 408.547C197.441 410.388 204.512 412.277 209.709 413.829L240.202 423.026L312.726 445.338C327.341 449.834 342.613 454.246 357.076 459.037C357.342 453.836 358.035 448.666 359.149 443.579C365.801 414.38 383.683 388.974 408.925 372.86C437.087 354.862 467.79 351.223 499.942 358.247L499.95 277.083L500.961 277.121C501.374 286.446 501.107 297.254 501.098 306.676L501.047 358.53C532.16 367.445 556.081 384.152 572.51 412.81C573.68 414.852 577.305 422.002 577.932 424.011L577.29 424.1C574.831 419.016 573.512 416.358 570.4 411.62C562.19 392.046 534.765 372.029 515.151 364.038C486.395 352.523 454.245 352.887 425.756 365.049C398.971 376.471 376.137 399.236 365.274 426.288C361.141 436.856 358.652 447.996 357.893 459.319L464.302 491.621C481.055 496.642 505.041 503.092 520.964 508.979C525.877 510.413 550.827 517.38 553.914 519.572C550.213 518.96 533.929 513.58 529.21 512.17L464.875 492.678L246.866 426.027C237.348 423.115 193.205 408.544 186.852 408.907C185.977 408.957 185.457 409.969 184.909 410.613C183.98 411.38 183.156 412.025 182.182 412.735C183.209 411.153 184.679 409.578 185.926 408.122Z"/><path fill="#A77F50" d="M480.582 249.997C483.977 253.846 494.09 266.005 496.283 270.191C492.648 267.873 488.566 261.271 485.36 257.777C483.96 256.251 480.291 251.701 479.242 250.085L480.582 249.997Z"/><path fill="#A77F50" d="M460.849 225.178C464.837 228.915 470.804 237.99 474.819 242.656L474.545 244.154C471.102 241.195 463.362 229.978 459.853 225.691L460.849 225.178Z"/><path fill="#A77F50" d="M421.036 175.31C422.189 176.609 423.376 178.15 424.435 179.526C426.757 182.517 429.124 185.473 431.533 188.394C431.902 188.94 432.243 189.384 432.643 189.906L431.367 190.009L430.884 189.188C430.242 188.871 420.792 176.817 419.882 175.538L421.036 175.31Z"/><path fill="#5A432B" d="M430.884 189.188L431.533 188.394C431.902 188.94 432.243 189.384 432.643 189.906L431.367 190.009L430.884 189.188Z"/><path fill="#A77F50" d="M450.653 212.422C453.86 215.683 456.931 220.387 460.082 223.946L459.159 224.277C458.382 223.847 449.886 213.534 449.353 212.525L450.653 212.422Z"/><path fill="#A77F50" d="M414.15 166.845C415.033 167.766 415.174 167.983 415.973 168.989L418.302 171.866C418.842 172.541 419.459 173.231 420.022 173.894L419.385 174.686C418.384 174.006 413.708 168.194 413.314 167.153L414.15 166.845Z"/><path fill="#A77F50" d="M432.643 189.906C434.276 191.654 435.978 194.023 437.508 195.901L436.893 196.675C436.035 196.104 431.868 191 431.367 190.009L432.643 189.906Z"/><path fill="#A77F50" d="M440.644 199.887C441.467 200.754 442.036 201.582 442.744 202.556C443.549 203.608 443.906 204.028 444.829 204.969L443.336 204.998L442.867 204.194C442.08 203.799 440.382 201.493 439.864 200.723L439.365 200.024L440.644 199.887Z"/><path fill="#5A432B" d="M442.867 204.194C442.732 203.564 442.761 203.252 442.744 202.556C443.549 203.608 443.906 204.028 444.829 204.969L443.336 204.998L442.867 204.194Z"/><path fill="#C2A16B" d="M496.47 270.339C497.939 271.566 498.876 273.034 500.148 274.48L499.339 274.736C497.031 272.501 496.829 273.367 496.47 270.339Z"/><path fill="#A77F50" d="M446.818 207.526C447.054 207.813 447.287 208.102 447.516 208.393C447.937 209.031 448.313 209.444 448.808 210.03L447.327 210.026L446.887 209.187C446.278 208.893 445.923 208.669 445.618 208.046L445.333 207.507L446.818 207.526Z"/><path fill="#5A432B" d="M447.516 208.393C447.937 209.031 448.313 209.444 448.808 210.03L447.327 210.026L446.887 209.187L447.516 208.393Z"/><path fill="#A77F50" d="M438.822 197.524C439.06 197.811 439.294 198.1 439.524 198.393C439.898 198.936 440.238 199.369 440.644 199.887L439.365 200.024L438.878 199.181C438.272 198.89 437.923 198.667 437.621 198.048L437.338 197.51L438.822 197.524Z"/><path fill="#5A432B" d="M438.878 199.181L439.524 198.393C439.898 198.936 440.238 199.369 440.644 199.887L439.365 200.024L438.878 199.181Z"/><path fill="#A77F50" d="M476.318 244.516C476.555 244.807 476.789 245.101 477.019 245.397C477.395 245.928 477.673 246.259 478.089 246.753L477.114 246.981L476.367 246.197C475.763 245.892 475.421 245.66 475.134 245.027L474.861 244.473L476.318 244.516Z"/><path fill="#5A432B" d="M476.367 246.197L477.019 245.397C477.395 245.928 477.673 246.259 478.089 246.753L477.114 246.981L476.367 246.197Z"/><path fill="#A77F50" d="M478.089 246.753C478.623 247.333 479.008 247.779 479.508 248.385L478.894 249.186C478.068 248.792 477.862 248.554 477.472 247.715L477.114 246.981L478.089 246.753Z"/><path fill="#A77F50" d="M444.829 204.969C445.055 205.282 445.277 205.598 445.496 205.916L444.887 206.68C444.274 206.389 443.923 206.168 443.62 205.541L443.336 204.998L444.829 204.969Z"/><path fill="#A77F50" d="M448.808 210.03C449.036 210.329 449.26 210.631 449.482 210.934L448.838 211.604C447.981 211.092 447.955 210.871 447.327 210.026L448.808 210.03Z"/><path fill="#C2A16B" d="M409.029 162.64C410.962 164.136 411.137 164.296 412.492 166.322C410.589 164.989 410.143 164.521 409.029 162.64Z"/><path fill="#5A432B" d="M460.082 223.946L460.849 225.178L459.853 225.691L459.159 224.277L460.082 223.946Z"/><path fill="#D8B278" d="M184.909 410.613C185.457 409.969 185.977 408.957 186.852 408.907C193.205 408.544 237.348 423.115 246.866 426.027L464.875 492.678L529.21 512.17C533.929 513.58 550.213 518.96 553.914 519.572C556.87 520.727 558.822 521.158 561.904 521.898C559.669 523.945 557.778 526.283 555.817 528.585C547.681 538.134 539.933 548.002 532.003 557.721L486.581 612.953C476.859 624.859 467.076 637.073 456.828 648.545C453.676 652.073 451.052 653.324 448.553 655.77C447.387 656.004 447.341 656.081 446.312 656.772C444.732 657.518 443.16 658.282 441.596 659.064L441.704 659.717C435.797 663.569 420.024 666.396 413.007 665.468C406.766 664.642 396.452 660.745 390.257 658.537L362.457 648.663L239.773 605.871L202.258 592.88C197.152 591.106 187.329 587.341 182.459 586.245C179.477 584.729 168.885 581.602 165.081 580.412L121.07 566.612C109.87 563.134 95.5355 560.377 87.2752 552.121C86.4776 551.196 85.747 550.216 85.0889 549.188C80.3702 541.786 79.8903 530.3 83.7961 522.505C84.4355 520.664 85.4433 518.64 86.9851 517.407C87.8916 515.922 90.7819 512.373 92.1 511.314C94.9253 508.121 98.055 504.91 100.835 501.712C101.136 501.423 101.437 501.134 101.738 500.845C103.312 498.931 109.98 491.667 111.877 490.059L112.418 489.417C113.362 487.457 114.72 486.373 116.364 484.934C117.43 483.23 119.306 481.083 120.982 479.921C122.511 477.539 124.441 475.441 126.686 473.719L126.907 473.325C128.393 471.196 129.279 470.224 131.301 468.602L131.777 468.144L132.26 467.371C133.991 465.127 139.794 458.832 141.857 456.832L142.253 456.358C146.12 451.42 152.3 445.584 156.487 440.445C158.1 438.469 159.931 436.784 161.581 434.859C163.15 433.064 169.42 425.949 170.748 424.789C172.332 422.834 173.979 421.327 175.512 419.43C175.746 419.243 175.98 419.055 176.214 418.867C177.42 417.395 180.649 413.736 182.182 412.735C183.156 412.025 183.98 411.38 184.909 410.613Z"/><path fill="#5A432B" d="M87.6953 551.266C90.7466 554.576 93.6458 556.873 97.9086 558.356C107.297 561.623 116.946 564.491 126.435 567.467C147.041 573.85 167.601 580.384 188.111 587.07C239.093 604.424 289.963 622.108 340.716 640.122L379.664 653.683C404.265 662.391 415.517 670.217 441.596 659.064L441.704 659.717C435.797 663.569 420.024 666.396 413.007 665.468C406.766 664.642 396.452 660.745 390.257 658.537L362.457 648.663L239.773 605.871L202.258 592.88C197.152 591.106 187.329 587.341 182.459 586.245C179.477 584.729 168.885 581.602 165.081 580.412L121.07 566.612C109.87 563.134 95.5355 560.377 87.2752 552.121L87.6953 551.266Z"/><path fill="#A77F50" d="M83.7961 522.505C84.6224 523.825 82.7511 528.032 82.5722 530.496C82.2926 534.347 82.3041 535.91 82.6299 539.749C82.8297 542.362 83.6751 544.885 85.0903 547.091C85.8677 548.505 87.2889 550.067 87.6953 551.266L87.2752 552.121C86.4776 551.196 85.747 550.216 85.0889 549.188C80.3702 541.786 79.8903 530.3 83.7961 522.505Z"/><path fill="#6B543C" d="M156.487 440.445L157.278 441.062C155.96 442.324 155.251 443.079 154.066 444.473C153.622 444.796 153.726 444.695 153.424 445.168C152.227 446.379 151.095 447.653 150.032 448.984C149.769 449.186 149.797 449.179 149.63 449.469C148.526 450.595 145.505 453.572 144.846 454.797L144.089 455.365C143.453 455.868 143.011 456.117 142.253 456.358C146.12 451.42 152.3 445.584 156.487 440.445Z"/><path fill="#8C6F4C" d="M170.748 424.789L172.618 424.136C171.278 426.578 166.176 430.272 164.314 433.378L163.609 433.944C162.866 434.564 162.518 434.678 161.581 434.859C163.15 433.064 169.42 425.949 170.748 424.789Z"/><path fill="#6B543C" d="M132.26 467.371C133.991 465.127 139.794 458.832 141.857 456.832L142.231 457.583C141.274 458.373 135.462 464.642 134.879 465.764L134.102 466.35C133.465 466.86 133.022 467.121 132.26 467.371Z"/><path fill="#6B543C" d="M101.738 500.845C103.312 498.931 109.98 491.667 111.877 490.059C110.979 491.833 110.856 491.882 109.589 493.496C109.171 493.754 109.199 493.744 108.946 494.183C107.634 495.541 105.641 497.497 104.6 499.002C103.368 499.894 103.196 500.436 101.738 500.845Z"/><path fill="#C2A16B" d="M164.314 433.378C163.996 433.874 157.746 440.821 157.278 441.062L156.487 440.445C158.1 438.469 159.931 436.784 161.581 434.859C162.518 434.678 162.866 434.564 163.609 433.944L164.314 433.378Z"/><path fill="#6B543C" d="M92.1 511.314C94.9253 508.121 98.055 504.91 100.835 501.712L101.168 502.599C100.351 503.437 99.8156 504.066 99.0699 504.955C98.8013 505.168 98.8231 505.162 98.6437 505.456C97.2936 506.82 94.5826 509.488 93.697 511.024L92.1 511.314Z"/><path fill="#C2A16B" d="M92.1 511.314L93.697 511.024C92.7708 512.468 92.8375 512.357 91.5446 513.537C90.8682 514.148 90.2086 514.777 89.5668 515.424C88.5462 516.437 88.1583 516.648 86.9851 517.407C87.8916 515.922 90.7819 512.373 92.1 511.314Z"/><path fill="#C2A16B" d="M120.982 479.921C122.511 477.539 124.441 475.441 126.686 473.719C125.838 476.579 123.748 478.859 120.982 479.921Z"/><path fill="#6B543C" d="M176.214 418.867C177.42 417.395 180.649 413.736 182.182 412.735L182.471 413.395C181.432 414.274 180.153 415.455 179.386 416.58C178.07 417.766 177.891 418.477 176.214 418.867Z"/><path fill="#C2A16B" d="M112.418 489.417C113.362 487.457 114.72 486.373 116.364 484.934C115.577 487.267 114.928 489.011 112.418 489.417Z"/><path fill="#C2A16B" d="M126.907 473.325C128.393 471.196 129.279 470.224 131.301 468.602C130.21 471.729 129.747 472.271 126.907 473.325Z"/><path fill="#6B543C" d="M175.512 419.43L176.254 420.092C174.766 421.444 173.636 422.414 172.618 424.136L170.748 424.789C172.332 422.834 173.979 421.327 175.512 419.43Z"/><path fill="#C2A16B" d="M104.6 499.002C103.814 500.499 102.637 501.756 101.168 502.599L100.835 501.712C101.136 501.423 101.437 501.134 101.738 500.845C103.196 500.436 103.368 499.894 104.6 499.002Z"/><path fill="#C2A16B" d="M179.386 416.58C178.543 417.876 177.637 419.452 176.254 420.092L175.512 419.43C175.746 419.243 175.98 419.055 176.214 418.867C177.891 418.477 178.07 417.766 179.386 416.58Z"/><path fill="#C2A16B" d="M144.846 454.797C143.865 456.145 143.582 456.68 142.231 457.583L141.857 456.832L142.253 456.358C143.011 456.117 143.453 455.868 144.089 455.365L144.846 454.797Z"/><path fill="#C2A16B" d="M134.879 465.764C133.599 467.684 133.934 467.634 131.777 468.144L132.26 467.371C133.022 467.121 133.465 466.86 134.102 466.35L134.879 465.764Z"/><path fill="#C2A16B" d="M184.909 410.613C183.977 412.062 183.916 412.426 182.471 413.395L182.182 412.735C183.156 412.025 183.98 411.38 184.909 410.613Z"/><path fill="#A77F50" d="M507.638 588.951C518.04 575.718 529.162 562.947 539.638 549.76C546.056 541.68 552.987 534.013 559.196 525.797L559.49 526.527L559.48 526.466L559.199 527.133C555.1 536.669 543.297 553.639 538.089 563.332C528.424 581.319 517.54 598.244 507.226 615.849C500.992 626.592 494.58 637.231 487.994 647.761C481.265 658.633 475.627 669.099 464.569 676.363C464.215 676.754 463.852 676.94 463.384 677.259L462.764 678.859C459.561 681.126 455.673 683.558 451.982 684.905C450.633 684.577 437.125 689.513 434.041 690.251C406.461 696.847 383.818 687.938 358.067 679.073L312.87 663.59L181.799 618.768C182.817 609.984 181.736 596.255 182.459 586.245C187.329 587.341 197.152 591.106 202.258 592.88L239.773 605.871L362.457 648.663L390.257 658.537C396.452 660.745 406.766 664.642 413.007 665.468C420.024 666.396 435.797 663.569 441.704 659.717L441.596 659.064C443.16 658.282 444.732 657.518 446.312 656.772C447.341 656.081 447.387 656.004 448.553 655.77C457 653.819 488.876 610.954 497.693 600.979C497.887 600.667 497.863 600.632 498.149 600.47C499.228 598.626 500.75 597.117 502.192 595.52C502.395 595.19 502.373 595.14 502.662 594.966C503.722 593.103 505.318 591.548 506.778 589.949C507.124 589.336 507.073 589.327 507.638 588.951Z"/><path fill="#5A432B" d="M446.312 656.772C447.341 656.081 447.387 656.004 448.553 655.77C448.18 656.716 447.252 657.632 446.312 656.772Z"/><path fill="#5A432B" d="M587.583 475.488C587.775 486.021 584.515 500.742 580.34 510.443C584.012 508.794 591.039 503.826 593.92 503.809C586.056 509.047 569.739 516.448 563.774 522.52C567.405 525.668 580.927 536.159 583.156 539.081L583.685 540.712C581.925 539.837 581.763 539.915 580.636 538.248C580.116 537.565 579.546 537.093 578.822 536.632L578.121 536.173C577.698 535.6 577.75 535.677 577.081 535.332L574.056 532.628C573.49 531.748 572.83 531.29 571.957 530.771L570.773 529.771C569.787 528.678 569.365 528.472 568.139 527.619C567.056 526.673 566.134 525.818 564.934 525.012C564.967 602.05 564.488 679.088 563.496 756.12C563.139 783.946 564.332 813.785 562.941 841.679C562.475 851.024 555.978 862.398 550.256 869.771C551.329 870.233 551.281 870.178 552.463 870.175L545.58 873.679L544.605 873.18C557.212 865.093 562.715 845.873 562.472 831.698C562.273 820.132 562.411 808.438 562.472 796.865L563.041 705.605L563.655 581.903C563.717 563.536 564.653 540.149 563.668 522.215C557.854 530.523 548.036 548.808 542.546 558.189C527.479 584.171 512.131 609.99 496.506 635.64C485.607 653.293 480.167 666.446 462.764 678.859L463.384 677.259C463.852 676.94 464.215 676.754 464.569 676.363C475.627 669.099 481.265 658.633 487.994 647.761C494.58 637.231 500.992 626.592 507.226 615.849C517.54 598.244 528.424 581.319 538.089 563.332C543.297 553.639 555.1 536.669 559.199 527.133L559.48 526.466L559.49 526.527L559.196 525.797C552.987 534.013 546.056 541.68 539.638 549.76C529.162 562.947 518.04 575.718 507.638 588.951C507.073 589.327 507.124 589.336 506.778 589.949C505.318 591.548 503.722 593.103 502.662 594.966C502.373 595.14 502.395 595.19 502.192 595.52C500.75 597.117 499.228 598.626 498.149 600.47C497.863 600.632 497.887 600.667 497.693 600.979C488.876 610.954 457 653.819 448.553 655.77C451.052 653.324 453.676 652.073 456.828 648.545C467.076 637.073 476.859 624.859 486.581 612.953L532.003 557.721C539.933 548.002 547.681 538.134 555.817 528.585C557.778 526.283 559.669 523.945 561.904 521.898C563.574 521.479 565.751 519.577 567.055 518.42L567.588 518.048C570.615 516.507 576.692 512.655 579.413 510.739C582.428 503.018 584.537 495.886 585.868 487.663C586.576 483.291 586.542 479.796 587.583 475.488Z"/><path fill="#5A432B" d="M181.799 618.768L312.87 663.59L358.067 679.073C383.818 687.938 406.461 696.847 434.041 690.251C437.125 689.513 450.633 684.577 451.982 684.905C440.844 691.161 421.664 694.028 409.013 693.272C389.658 692.115 370.877 684.568 352.644 678.26L309.076 663.36L182.391 619.891L182.454 687.098C182.297 710.607 177.373 744.044 199.965 758.948C200.379 758.974 200.317 758.98 200.706 759.181C200.926 759.709 201.176 760.279 201.377 760.81C187.489 753.051 180.947 735.111 181.368 719.937C181.461 716.57 181.334 713.04 181.34 709.65L181.511 678.946L181.706 643.157C181.69 635.741 181.332 625.995 181.799 618.768Z"/><path fill="#A77F50" d="M540.493 876.316C540.998 874.574 542.9 873.825 544.605 873.18L545.58 873.679C543.805 874.716 542.37 875.497 540.493 876.316Z"/><path fill="#A77F50" d="M200.706 759.181C202.488 760.169 203.448 760.493 204.44 762.367C203.185 761.803 202.48 761.633 201.377 760.81C201.176 760.279 200.926 759.709 200.706 759.181Z"/><path fill="#D8B278" d="M602.987 183.087C605.32 179.345 616.236 176.417 620.27 175.488C627.274 173.803 634.554 173.606 641.639 174.909C645.059 175.54 648.355 176.41 651.733 177.198C673.985 182.387 695.906 188.798 718.058 194.358C768.82 206.772 819.511 219.477 870.127 232.473C881.369 235.294 931.652 246.459 938.19 250.746C938.63 251.034 939.051 251.351 939.475 251.664C940.732 252.889 941.921 254.104 943.16 255.338C952.416 267.663 950.418 281.389 938.537 290.98C936.946 292.25 936.027 293.218 934.285 294.293C933.017 296.139 929.042 299.227 927.059 300.487L926.783 300.826C925.532 302.381 921.921 305.54 920.292 306.672L919.549 307.314C918.04 308.638 917.799 308.895 916.113 309.993C915.257 311.435 913.44 312.551 912.058 313.47C911.184 314.756 910.923 314.752 909.567 315.487C908.912 316.683 904.111 320.857 902.196 321.547C901.441 323.413 892.76 330.738 890.749 331.698L890.659 331.947C889.223 333.808 888.766 334.297 886.654 335.1C885.952 336.866 884.91 337.396 883.253 338.188L883.144 338.432C882.038 339.885 881.718 340.246 880.168 341.157C878.297 342.961 872.658 347.882 870.417 349.224L870.201 349.448C868.958 350.941 866.34 353.15 864.682 354.18C859.965 358.602 854.758 362.988 849.826 367.182C851.492 368.36 852.899 369.313 854.427 370.663C852.002 369.829 851.376 369.205 849.216 367.659C847.41 368.614 845.517 369.607 843.614 370.337C841.31 372.09 821.418 382.378 818.583 383.313C817.856 384.225 815.216 385.4 814.066 385.765C812.684 386.745 812.627 387.038 811.058 387.329C809.721 388.36 809.175 388.755 807.568 389.272C805.888 390.456 805.502 390.887 803.566 391.36C801.845 392.573 800.728 393.137 798.781 393.948L798.052 394.258C796.886 395.453 793.723 397.002 792.078 397.349C790.5 398.483 786.214 400.886 784.349 401.277C782.365 402.907 780.062 404.103 777.587 404.787C776.717 405.935 773.454 407.217 772.097 407.798C770.631 409.054 763.448 412.759 761.562 413.385C760.797 414.1 760.029 414.413 759.039 414.739C756.797 416.392 755.757 416.906 753.088 417.814C752.409 418.713 748.773 420.347 747.619 420.711C746.199 421.676 744.312 423.072 742.591 423.354C740.575 424.835 739.365 425.33 737.088 426.277L736.028 426.868C734.487 428.045 733.013 428.78 731.312 429.71C724.314 433.484 717.272 437.177 710.188 440.786C707.223 442.279 705.328 443.642 702.077 444.746L701.319 445.279C700.352 446.102 700.027 446.084 698.78 446.535L698.411 447.027C698.114 447.139 697.817 447.251 697.52 447.363C696.774 447.856 695.809 448.621 695.012 448.816C692.431 450.354 687.059 453.276 684.305 454.481L683.595 454.797C682.688 455.588 682.983 455.572 681.966 455.82C680.211 456.842 679.408 457.308 677.558 458.064L677.081 458.262C676.198 458.764 676.572 458.664 676.035 458.771C674.978 459.641 674.911 459.777 673.642 460.229C672.212 461.199 671.289 462.02 669.599 462.34C667.663 463.82 663.896 465.701 661.631 466.81C659.937 468.167 657.645 469.146 655.663 470.12C655.464 470.208 655.264 470.297 655.065 470.385C654.149 470.869 653.054 471.49 652.13 471.912C651.85 472.195 651.491 472.32 651.12 472.505L650.321 473.077C650.056 473.172 649.792 473.266 649.528 473.361C648.75 473.872 647.809 474.622 646.974 474.823L646.279 475.222C645.546 475.662 644.852 475.99 644.041 476.255C641.809 477.844 640.575 478.43 638.172 479.617C637.862 479.751 638.058 479.679 637.547 479.825C634.535 481.768 618.496 490.901 615.556 491.89C614.602 492.732 613.277 493.373 612.063 493.764C610.11 495.121 605.154 498.328 602.986 498.902C600.655 500.369 600.043 500.736 597.56 501.71L596.752 502.278C595.974 502.908 595.862 502.933 594.907 503.356L593.92 503.809C591.039 503.826 584.012 508.794 580.34 510.443C584.515 500.742 587.775 486.021 587.583 475.488C587.973 471.991 588.026 468.324 587.521 464.84C586.454 461.975 586.167 459.056 585.889 455.999C585.089 447.219 582.813 438.416 579.529 430.23C578.551 427.794 577.982 426.614 577.29 424.1L577.932 424.011C577.305 422.002 573.68 414.852 572.51 412.81C556.081 384.152 532.16 367.445 501.047 358.53L501.098 306.676C501.107 297.254 501.374 286.446 500.961 277.121L499.95 277.083C499.683 276.648 499.435 276.236 499.151 275.811L499.482 275.535L499.339 274.736L500.148 274.48C501.924 273.64 507.163 268.066 509.287 266.196C510.113 265.016 511.258 264.377 512.438 263.506C513.51 261.827 522.467 254.18 524.426 252.854C526.337 250.703 537.76 240.302 539.893 238.971C540.462 237.931 541.772 236.779 542.929 236.337C544.438 234.654 550.982 228.584 552.927 226.98C554.873 225.424 556.342 223.837 558.361 222.282L558.839 222.025L559.198 221.708C561.628 218.823 565.208 216.152 568.022 213.555C576.039 206.155 584.257 198.958 592.429 191.73C594.784 189.648 597.803 186.709 600.374 184.994C600.879 184.104 601.326 183.851 602.239 183.44L602.987 183.087Z"/><path fill="#A77F50" d="M499.482 275.535L500.583 275.413C502.032 276.027 502.187 275.991 503.769 276.251C510.497 277.288 526.281 281.954 533.474 283.874L597.579 301.356C657.633 318.157 717.836 334.426 778.179 350.159C799.467 355.658 824.782 362.936 845.855 367.517L846.724 367.609C845.371 368.636 844.739 369.136 843.614 370.337C841.31 372.09 821.418 382.378 818.583 383.313C817.856 384.225 815.216 385.4 814.066 385.765C812.684 386.745 812.627 387.038 811.058 387.329C809.721 388.36 809.175 388.755 807.568 389.272C805.888 390.456 805.502 390.887 803.566 391.36C801.845 392.573 800.728 393.137 798.781 393.948L798.052 394.258C796.886 395.453 793.723 397.002 792.078 397.349C790.5 398.483 786.214 400.886 784.349 401.277C782.365 402.907 780.062 404.103 777.587 404.787C776.717 405.935 773.454 407.217 772.097 407.798C770.631 409.054 763.448 412.759 761.562 413.385C760.797 414.1 760.029 414.413 759.039 414.739C756.797 416.392 755.757 416.906 753.088 417.814C752.409 418.713 748.773 420.347 747.619 420.711C746.199 421.676 744.312 423.072 742.591 423.354C740.575 424.835 739.365 425.33 737.088 426.277L736.028 426.868C734.487 428.045 733.013 428.78 731.312 429.71C724.314 433.484 717.272 437.177 710.188 440.786C707.223 442.279 705.328 443.642 702.077 444.746L701.319 445.279C700.352 446.102 700.027 446.084 698.78 446.535L698.411 447.027C698.114 447.139 697.817 447.251 697.52 447.363C696.774 447.856 695.809 448.621 695.012 448.816C692.431 450.354 687.059 453.276 684.305 454.481L683.595 454.797C682.688 455.588 682.983 455.572 681.966 455.82C680.211 456.842 679.408 457.308 677.558 458.064L677.081 458.262C676.198 458.764 676.572 458.664 676.035 458.771C674.978 459.641 674.911 459.777 673.642 460.229C672.212 461.199 671.289 462.02 669.599 462.34C667.663 463.82 663.896 465.701 661.631 466.81C659.937 468.167 657.645 469.146 655.663 470.12C655.464 470.208 655.264 470.297 655.065 470.385C654.149 470.869 653.054 471.49 652.13 471.912C651.85 472.195 651.491 472.32 651.12 472.505L650.321 473.077C650.056 473.172 649.792 473.266 649.528 473.361C648.75 473.872 647.809 474.622 646.974 474.823L646.279 475.222C645.546 475.662 644.852 475.99 644.041 476.255C641.809 477.844 640.575 478.43 638.172 479.617C637.862 479.751 638.058 479.679 637.547 479.825C634.535 481.768 618.496 490.901 615.556 491.89C614.602 492.732 613.277 493.373 612.063 493.764C610.11 495.121 605.154 498.328 602.986 498.902C600.655 500.369 600.043 500.736 597.56 501.71L596.752 502.278C595.974 502.908 595.862 502.933 594.907 503.356L593.92 503.809C591.039 503.826 584.012 508.794 580.34 510.443C584.515 500.742 587.775 486.021 587.583 475.488C587.973 471.991 588.026 468.324 587.521 464.84C586.454 461.975 586.167 459.056 585.889 455.999C585.089 447.219 582.813 438.416 579.529 430.23C578.551 427.794 577.982 426.614 577.29 424.1L577.932 424.011C577.305 422.002 573.68 414.852 572.51 412.81C556.081 384.152 532.16 367.445 501.047 358.53L501.098 306.676C501.107 297.254 501.374 286.446 500.961 277.121L499.95 277.083C499.683 276.648 499.435 276.236 499.151 275.811L499.482 275.535Z"/><path fill="#5A432B" d="M503.769 276.251C510.497 277.288 526.281 281.954 533.474 283.874L597.579 301.356C657.633 318.157 717.836 334.426 778.179 350.159C799.467 355.658 824.782 362.936 845.855 367.517C840.29 369.598 586.103 299.042 557.076 291.084L521.764 281.773C516.504 280.389 508.509 278.503 503.54 276.772C503.758 276.331 503.699 276.489 503.769 276.251Z"/><path fill="#66060B" d="M577.932 424.011C580.882 430.439 583.205 437.136 584.87 444.01C586.381 450.925 587.63 457.739 587.521 464.84C586.454 461.975 586.167 459.056 585.889 455.999C585.089 447.219 582.813 438.416 579.529 430.23C578.551 427.794 577.982 426.614 577.29 424.1L577.932 424.011Z"/><path fill="#5A432B" d="M702.077 444.746C704.008 442.477 732.475 427.455 736.028 426.868C734.487 428.045 733.013 428.78 731.312 429.71C724.314 433.484 717.272 437.177 710.188 440.786C707.223 442.279 705.328 443.642 702.077 444.746Z"/><path fill="#5A432B" d="M683.595 454.797C685.158 452.617 692.538 448.68 695.012 448.816C692.431 450.354 687.059 453.276 684.305 454.481L683.595 454.797Z"/><path fill="#5A432B" d="M661.631 466.81C663.367 464.289 666.655 462.894 669.599 462.34C667.663 463.82 663.896 465.701 661.631 466.81Z"/><path fill="#5A432B" d="M784.349 401.277C785.141 399.487 790.154 397.769 792.078 397.349C790.5 398.483 786.214 400.886 784.349 401.277Z"/><path fill="#5A432B" d="M772.097 407.798C773.414 406.122 775.352 404.609 777.587 404.787C776.717 405.935 773.454 407.217 772.097 407.798Z"/><path fill="#5A432B" d="M747.619 420.711C747.784 419.295 751.828 417.759 753.088 417.814C752.409 418.713 748.773 420.347 747.619 420.711Z"/><path fill="#0D0906" d="M499.482 275.535L500.583 275.413C502.032 276.027 502.187 275.991 503.769 276.251C503.699 276.489 503.758 276.331 503.54 276.772L502.799 276.752C502.021 276.71 501.665 276.785 500.961 277.121L499.95 277.083C499.683 276.648 499.435 276.236 499.151 275.811L499.482 275.535Z"/><path fill="#5A432B" d="M814.066 385.765C814.389 384.392 817.3 383.249 818.583 383.313C817.856 384.225 815.216 385.4 814.066 385.765Z"/><path fill="#5A432B" d="M737.088 426.277C738.829 424.129 739.833 423.942 742.591 423.354C740.575 424.835 739.365 425.33 737.088 426.277Z"/><path fill="#5A432B" d="M798.052 394.258C799.862 392.204 800.862 391.936 803.566 391.36C801.845 392.573 800.728 393.137 798.781 393.948L798.052 394.258Z"/><path fill="#5A432B" d="M612.063 493.764C612.419 492.425 614.252 491.721 615.556 491.89C614.602 492.732 613.277 493.373 612.063 493.764Z"/><path fill="#5A432B" d="M597.56 501.71C599.316 499.896 600.555 499.332 602.986 498.902C600.655 500.369 600.043 500.736 597.56 501.71Z"/><path fill="#5A432B" d="M677.081 458.262C678.429 456.662 679.775 455.689 681.966 455.82C680.211 456.842 679.408 457.308 677.558 458.064L677.081 458.262Z"/><path fill="#5A432B" d="M807.568 389.272C808.014 387.704 809.554 387.676 811.058 387.329C809.721 388.36 809.175 388.755 807.568 389.272Z"/><path fill="#5A432B" d="M759.039 414.739C759.401 413.438 760.377 413.243 761.562 413.385C760.797 414.1 760.029 414.413 759.039 414.739Z"/><path fill="#5A432B" d="M644.041 476.255C644.467 474.802 645.62 474.74 646.974 474.823L646.279 475.222C645.546 475.662 644.852 475.99 644.041 476.255Z"/><path fill="#5A432B" d="M673.642 460.229C673.874 458.895 674.732 459.121 676.035 458.771C674.978 459.641 674.911 459.777 673.642 460.229Z"/><path fill="#5A432B" d="M698.78 446.535C699.771 445.444 699.83 445.232 701.319 445.279C700.352 446.102 700.027 446.084 698.78 446.535Z"/><path fill="#5A432B" d="M594.907 503.356C595.26 502.15 595.473 502.253 596.752 502.278C595.974 502.908 595.862 502.933 594.907 503.356Z"/><path fill="#5A432B" d="M655.065 470.385C655.104 470.086 655.087 469.614 655.374 469.405C655.62 469.473 655.584 469.838 655.663 470.12C655.464 470.208 655.264 470.297 655.065 470.385Z"/><path fill="#5A432B" d="M637.547 479.825C637.602 479.463 637.584 479.14 637.868 478.931C638.129 478.993 638.083 479.319 638.172 479.617C637.862 479.751 638.058 479.679 637.547 479.825Z"/><path fill="#5A432B" d="M649.528 473.361C649.605 473.186 649.683 473.011 649.761 472.836C650.003 472.899 649.837 472.841 650.321 473.077C650.056 473.172 649.792 473.266 649.528 473.361Z"/><path fill="#5A432B" d="M697.52 447.363C697.581 447.113 697.565 447.02 697.712 446.868C697.79 446.869 697.867 446.87 697.945 446.871C698.1 446.923 698.255 446.975 698.411 447.027C698.114 447.139 697.817 447.251 697.52 447.363Z"/><path fill="#5A432B" d="M651.12 472.505C651.512 472.099 651.603 471.904 652.13 471.912C651.85 472.195 651.491 472.32 651.12 472.505Z"/><path fill="#A77F50" d="M602.987 183.087C605.32 179.345 616.236 176.417 620.27 175.488C627.274 173.803 634.554 173.606 641.639 174.909C645.059 175.54 648.355 176.41 651.733 177.198C673.985 182.387 695.906 188.798 718.058 194.358C768.82 206.772 819.511 219.477 870.127 232.473C881.369 235.294 931.652 246.459 938.19 250.746C938.63 251.034 939.051 251.351 939.475 251.664L938.828 252.552C934.024 248.336 921.519 246.226 914.872 244.576L874.839 234.621L719.694 195.729C696.741 190.019 674.052 183.557 651.061 177.956C636.975 174.525 624.644 173.64 610.822 179.231C608.385 180.217 605.376 182.614 602.987 183.087Z"/><path fill="#6B543C" d="M559.198 221.708C561.628 218.823 565.208 216.152 568.022 213.555C576.039 206.155 584.257 198.958 592.429 191.73C594.784 189.648 597.803 186.709 600.374 184.994C599.572 186.142 599.045 186.83 598.136 187.902C597.057 188.524 596.03 189.612 595.111 190.491C594.633 190.766 594.748 190.675 594.404 191.124C587.811 196.68 577.968 205.409 571.901 211.304C571.588 211.434 571.614 211.449 571.354 211.702C566.929 215.259 564.123 219.44 559.198 221.708Z"/><path fill="#8C6F4C" d="M943.16 255.338C952.416 267.663 950.418 281.389 938.537 290.98L937.915 290.315C939.164 288.155 940.566 288.71 941.93 286.466C943.894 283.627 945.326 283.063 946.458 279.508C948.728 272.374 948.216 264.786 943.889 258.513C943.298 257.656 942.538 256.435 941.903 255.5L943.16 255.338Z"/><path fill="#5A432B" d="M864.012 353.728L864.682 354.18C859.965 358.602 854.758 362.988 849.826 367.182C851.492 368.36 852.899 369.313 854.427 370.663C852.002 369.829 851.376 369.205 849.216 367.659C847.41 368.614 845.517 369.607 843.614 370.337C844.739 369.136 845.371 368.636 846.724 367.609C848.411 367 848.57 366.871 850.03 365.866C850.485 365.472 850.316 365.655 850.572 365.351C853.811 363.036 857.689 359.491 860.656 356.721C861.268 356.454 861.21 356.515 861.561 355.946C862.619 355.09 863.042 354.73 864.012 353.728Z"/><path fill="#C2A16B" d="M524.426 252.854C526.337 250.703 537.76 240.302 539.893 238.971C537.879 242.245 528.047 251.621 524.426 252.854Z"/><path fill="#C2A16B" d="M890.749 331.698C891.551 329.443 900.365 321.979 902.196 321.547C901.441 323.413 892.76 330.738 890.749 331.698Z"/><path fill="#C2A16B" d="M552.927 226.98L553.215 227.711C551.479 229.571 549.684 231.375 547.833 233.12C546.186 234.826 545.175 235.573 542.929 236.337C544.438 234.654 550.982 228.584 552.927 226.98Z"/><path fill="#C2A16B" d="M919.435 306.349L920.292 306.672L919.549 307.314C918.04 308.638 917.799 308.895 916.113 309.993C915.257 311.435 913.44 312.551 912.058 313.47C913.114 310.929 915.985 308.553 918.308 307.13C918.701 306.877 919.086 306.655 919.435 306.349Z"/><path fill="#6B543C" d="M919.435 306.349L920.292 306.672L919.549 307.314C918.04 308.638 917.799 308.895 916.113 309.993C916.855 308.982 917.522 308.106 918.308 307.13C918.701 306.877 919.086 306.655 919.435 306.349Z"/><path fill="#C2A16B" d="M902.196 321.547C902.931 319.891 908.019 315.067 909.567 315.487C908.912 316.683 904.111 320.857 902.196 321.547Z"/><path fill="#C2A16B" d="M919.435 306.349C920.54 304.454 924.539 301.444 926.783 300.826C925.532 302.381 921.921 305.54 920.292 306.672L919.435 306.349Z"/><path fill="#5A432B" d="M509.287 266.196C508.914 267.496 508.468 267.847 507.66 268.924C506.326 269.617 502.48 273.92 500.583 275.413L499.482 275.535L499.339 274.736L500.148 274.48C501.924 273.64 507.163 268.066 509.287 266.196Z"/><path fill="#8C6F4C" d="M879.578 340.75L880.168 341.157C878.297 342.961 872.658 347.882 870.417 349.224L870.542 348.243C871.141 347.869 871.117 347.95 871.505 347.451C873.217 346.115 874.779 344.878 876.385 343.413C877.245 342.835 877.547 342.743 878.035 341.893L879.578 340.75Z"/><path fill="#C2A16B" d="M864.012 353.728C864.705 352.764 868.063 349.693 869.41 349.556L870.201 349.448C868.958 350.941 866.34 353.15 864.682 354.18L864.012 353.728Z"/><path fill="#5A432B" d="M933.619 294.03L934.285 294.293C933.017 296.139 929.042 299.227 927.059 300.487C928.54 298.473 928.655 298.49 930.63 296.704C931.247 296.439 931.199 296.5 931.574 295.949C932.407 295.231 932.866 294.848 933.619 294.03Z"/><path fill="#C2A16B" d="M509.287 266.196C510.113 265.016 511.258 264.377 512.438 263.506C511.38 266.139 510.711 266.722 508.344 268.422L507.66 268.924C508.468 267.847 508.914 267.496 509.287 266.196Z"/><path fill="#C2A16B" d="M886.654 335.1C887.712 332.718 888.133 332.502 890.659 331.947C889.223 333.808 888.766 334.297 886.654 335.1Z"/><path fill="#C2A16B" d="M883.253 338.188C883.972 336.206 884.5 335.477 886.654 335.1C885.952 336.866 884.91 337.396 883.253 338.188Z"/><path fill="#6B543C" d="M558.361 222.282C558.105 223.035 557.891 223.33 557.415 223.997C555.976 225.284 554.741 226.508 553.215 227.711L552.927 226.98C554.873 225.424 556.342 223.837 558.361 222.282Z"/><path fill="#C2A16B" d="M879.578 340.75C880.323 339.56 880.929 338.711 882.374 338.543L883.144 338.432C882.038 339.885 881.718 340.246 880.168 341.157L879.578 340.75Z"/><path fill="#C2A16B" d="M600.374 184.994C600.879 184.104 601.326 183.851 602.239 183.44L602.987 183.087C601.274 185.44 600.559 186.506 598.136 187.902C599.045 186.83 599.572 186.142 600.374 184.994Z"/><path fill="#6B543C" d="M937.915 290.315L938.537 290.98C936.946 292.25 936.027 293.218 934.285 294.293C935.042 293.177 935.453 292.629 936.322 291.599C937.156 291.086 937.204 291.016 937.915 290.315Z"/><path fill="#5A432B" d="M939.475 251.664C940.732 252.889 941.921 254.104 943.16 255.338L941.903 255.5C940.913 253.938 940.423 253.479 938.828 252.552L939.475 251.664Z"/><path fill="#C2A16B" d="M558.361 222.282L558.839 222.025C558.712 223.23 558.707 223.754 557.415 223.997C557.891 223.33 558.105 223.035 558.361 222.282Z"/><path fill="#C2A16B" d="M933.619 294.03C934.73 292.678 934.871 292.618 936.322 291.599C935.453 292.629 935.042 293.177 934.285 294.293L933.619 294.03Z"/><path fill="#C2A16B" d="M878.035 341.893C877.547 342.743 877.245 342.835 876.385 343.413C876.888 342.564 877.068 342.091 878.035 341.893Z"/><path fill="#C2A16B" d="M595.111 190.491C595.021 191.052 594.948 191.016 594.404 191.124C594.748 190.675 594.633 190.766 595.111 190.491Z"/><path fill="#5A432B" d="M479.508 248.385C479.862 248.925 480.22 249.462 480.582 249.997L479.242 250.085L478.894 249.186L479.508 248.385Z"/><path fill="#5A432B" d="M437.508 195.901C437.936 196.533 438.32 196.944 438.822 197.524L437.338 197.51L436.893 196.675L437.508 195.901Z"/><path fill="#5A432B" d="M445.496 205.916C445.926 206.536 446.324 206.961 446.818 207.526L445.333 207.507L444.887 206.68L445.496 205.916Z"/><path fill="#5A432B" d="M449.482 210.934C449.877 211.483 450.223 211.902 450.653 212.422L449.353 212.525L448.838 211.604L449.482 210.934Z"/><path fill="#5A432B" d="M420.022 173.894C420.367 174.411 420.653 174.798 421.036 175.31L419.882 175.538L419.385 174.686L420.022 173.894Z"/><path fill="#5A432B" d="M474.819 242.656C475.316 243.373 475.746 243.849 476.318 244.516L474.861 244.473L474.545 244.154L474.819 242.656Z"/></svg>