<?xml version="1.0" encoding="utf-8" ?><svg xmlns="http://www.w3.org/2000/svg" xmlns:xlink="http://www.w3.org/1999/xlink" width="1024" height="1024" viewBox="0 0 1024 1024"><path fill="white" d="M0 0L1024 0L1024 1024L1003.81 1024L830.806 1024L799.073 1024L798.22 1024L224.935 1024L224.358 1024L193.341 1024L20.7758 1024L0 1024L0 0Z"/><path fill="#FE3C04" d="M587.933 613.186L588.981 612.978C591.767 636.18 595.909 663.205 615.43 678.918C620.678 683.143 631.206 688.252 637.927 688.667C639.628 686.783 640.521 685.155 642.694 684.069C646.29 683.965 647.247 686.565 648.334 689.586L696.403 689.621C703.484 689.666 713.139 689.485 720.089 689.967C727.854 689.593 736.557 689.91 744.468 689.869C757.291 689.801 771.605 689.572 784.394 691.483C824.45 697.468 862.829 714.572 892.979 741.769C910.991 758.017 926.595 777.999 937.619 799.495C949.435 822.536 954.71 846.224 961.373 871.005L976.561 925.854C982.719 947.698 988.763 969.572 994.694 991.478C997.539 1001.69 1001.49 1014.01 1003.81 1024L830.806 1024L799.073 1024L798.22 1024L224.935 1024L224.358 1024L193.341 1024L20.7758 1024C25.5685 1009.41 29.5269 992.489 33.6511 977.592L62.2019 873.382C67.9259 852.602 74.009 826.853 82.621 807.77C93.5358 783.583 111.329 759.404 131.266 742.03C136.003 737.902 142.09 732.298 147.443 729.091C148.774 726.656 164.056 718.201 167.664 716.009C218.069 685.394 268.688 690.095 325.166 689.767C328.809 689.762 347.239 689.344 349.163 690.447C362.212 737.347 389.812 771.079 436.78 787.209C441.51 788.833 458.745 793.279 461.328 795.188L461.813 794.524C474.145 803.807 477.506 806.252 490.726 814.266C494.451 816.322 503.492 820.941 507.528 821.329C508.28 819.934 508.006 817.871 508.007 816.104C504.821 814.601 501.874 813.058 498.759 811.415L499.623 810.885C501.645 812.075 505.403 813.751 507.65 814.824C512.048 812.58 512.338 812.083 516.519 815.641C526.64 810.927 541.069 801.714 549.967 795.039L551.064 794.081C555.219 791.678 564.328 783.648 568.132 780.275C597.483 754.248 620.968 725.579 638.034 690.249C626.452 686.859 621.723 685.29 612.461 677.662C611.807 676.546 610.183 675.177 609.146 674.396L606.784 671.586C606.511 671.33 606.523 671.348 606.346 671.022C597.094 659.002 592.574 642.647 590.034 627.907C589.228 623.23 588.861 617.983 588.017 613.604L587.933 613.186Z"/><path fill="#45231F" d="M587.933 613.186L588.981 612.978C591.767 636.18 595.909 663.205 615.43 678.918C620.678 683.143 631.206 688.252 637.927 688.667C639.628 686.783 640.521 685.155 642.694 684.069C646.29 683.965 647.247 686.565 648.334 689.586L696.403 689.621C703.484 689.666 713.139 689.485 720.089 689.967C715.685 690.555 706.589 690.344 701.943 690.334C692.704 690.271 683.466 690.323 674.229 690.487C672.641 700.346 667.202 714.776 662.521 723.492C642.059 761.592 607.647 784.065 566.303 793.779C562.472 794.679 532.944 819.596 525.059 819.993C522.887 820.102 516.099 823.552 515.607 826.542C517.068 829.717 523.017 831.416 526.037 833.494C548.597 849.009 527.975 883.251 503.662 872.588C497.76 870.029 493.145 865.189 490.869 859.172C488.743 853.528 489.043 847.257 491.697 841.842C495.409 834.153 500.386 831.946 507.423 829.094C508.221 828.771 508.052 824.244 508.032 822.828C501.137 820.749 496.761 818.514 490.423 815.161L490.726 814.266C494.451 816.322 503.492 820.941 507.528 821.329C508.28 819.934 508.006 817.871 508.007 816.104C504.821 814.601 501.874 813.058 498.759 811.415L499.623 810.885C501.645 812.075 505.403 813.751 507.65 814.824C512.048 812.58 512.338 812.083 516.519 815.641C526.64 810.927 541.069 801.714 549.967 795.039L551.064 794.081C555.219 791.678 564.328 783.648 568.132 780.275C597.483 754.248 620.968 725.579 638.034 690.249C626.452 686.859 621.723 685.29 612.461 677.662C611.807 676.546 610.183 675.177 609.146 674.396L606.784 671.586C606.511 671.33 606.523 671.348 606.346 671.022C597.094 659.002 592.574 642.647 590.034 627.907C589.228 623.23 588.861 617.983 588.017 613.604L587.933 613.186Z"/><path fill="#F3A896" d="M647.265 690.748C655.796 690.505 664.779 690.579 673.345 690.516C671.409 699.274 668.633 707.825 665.056 716.051C650.26 749.684 622.563 772.668 588.893 785.876C581.591 788.433 575.424 790.516 567.765 792.028C575.316 786.257 583.363 778.264 590.095 771.535C615.117 746.524 632.066 722.419 647.265 690.748Z"/><path fill="#FFD10F" d="M508.231 830.182C520.145 827.775 531.748 835.506 534.115 847.428C536.483 859.35 528.715 870.927 516.785 873.256C504.91 875.573 493.398 867.849 491.041 855.982C488.685 844.114 496.372 832.577 508.231 830.182Z"/><path fill="#FFD10F" d="M516.273 816.97C528.413 809.855 541.639 803.171 552.784 794.48C589.446 765.89 621.254 729.29 640.711 686.857C641.253 685.677 642.799 685.271 644.117 685.181C645.647 686.038 645.565 685.943 646.356 687.505C646.749 691.636 643.011 697.615 641.02 701.367C632.066 718.468 621.323 734.571 608.971 749.404C588.575 774.125 560.614 799.863 532.443 815.449C528.194 817.8 520.993 821.326 516.234 822.262C516.205 820.311 516.182 818.941 516.273 816.97Z"/><path fill="#FFD10F" d="M509.089 829.288C509.074 827.039 508.273 815.188 509.994 814.565C512.738 813.572 514.336 814.344 515.617 816.918L516.273 816.97C516.182 818.941 516.205 820.311 516.234 822.262L515.391 822.394C515.263 824.629 515.136 826.716 515.043 828.962C512.945 829.022 511.195 829.07 509.089 829.288Z"/><path fill="#5D510F" d="M516.273 816.97C516.182 818.941 516.205 820.311 516.234 822.262L515.391 822.394C515.253 819.807 515.219 819.478 515.617 816.918L516.273 816.97Z"/><path fill="white" d="M799.203 912.474C800.46 915.338 801.394 919.061 802.368 922.099C811.427 956.028 821.775 990.038 830.806 1024L799.073 1024L799.203 912.474Z"/><path fill="white" d="M223.724 915.503C225.402 918.927 224.349 1010.28 224.358 1024L193.341 1024C204.212 988.25 212.806 950.884 223.724 915.503Z"/><path fill="#711508" d="M325.166 689.767C328.809 689.762 347.239 689.344 349.163 690.447C299.845 691.878 251.35 684.951 203.858 700.965C187.517 706.407 171.899 713.816 157.348 723.031C155.741 724.06 148.602 729.326 147.443 729.091C148.774 726.656 164.056 718.201 167.664 716.009C218.069 685.394 268.688 690.095 325.166 689.767Z"/><path fill="#CD2A05" d="M798.496 911.405L799.203 912.474L799.073 1024L798.22 1024C797.664 1017.38 798.029 1004.92 798.017 997.955C797.917 981.641 797.936 965.327 798.076 949.014C798.146 941.512 798.144 934.009 798.07 926.507C798.022 922.924 797.5 914.159 798.496 911.405Z"/><path fill="#D4D2E1" d="M223.724 915.503L224.247 913.574L224.698 913.361C225.177 915.454 224.888 938.293 224.888 942.175L224.935 1024L224.358 1024C224.349 1010.28 225.402 918.927 223.724 915.503Z"/><path fill="#711508" d="M461.813 794.524C474.145 803.807 477.506 806.252 490.726 814.266L490.423 815.161C482.106 810.673 468.473 801.606 461.328 795.188L461.813 794.524Z"/><path d="M798.496 911.405C798.477 910.893 798.085 907.959 798.77 907.848C799.527 908.372 802.37 920.354 802.368 922.099C801.394 919.061 800.46 915.338 799.203 912.474L798.496 911.405Z"/><path fill="#F3A896" d="M511.813 233.713C520.012 245.337 524.4 256.283 534.562 269.273C560.711 307.37 608.164 345.291 651.402 361.536C664.083 366.3 679.242 370.066 692.599 372.516C695.397 373.029 699.414 373.622 702.012 374.388C712.935 375.483 724.204 382.305 731.815 390.031L731.325 390.707L731.799 391.462C732.133 392.025 732.481 392.49 732.942 392.953L733.535 393.478C742.605 406.634 746.747 416.674 743.769 433.478C741.415 446.452 733.924 457.928 722.993 465.303C715.616 470.333 708.84 472.251 700.174 474.03L700.152 474.664C699.755 474.936 699.358 475.208 698.961 475.481C697.512 479.731 696.281 487.646 695.123 491.536C691.028 505.295 685.437 519.277 678.511 531.769C664.945 556.086 646.083 577.041 623.321 593.08C617.857 596.903 612.016 600.243 606.486 603.85C603.252 605.96 590.178 610.835 588.981 612.978L587.933 613.186L588.017 613.604C588.861 617.983 589.228 623.23 590.034 627.907C592.574 642.647 597.094 659.002 606.346 671.022C606.523 671.348 606.511 671.33 606.784 671.586L609.146 674.396C610.183 675.177 611.807 676.546 612.461 677.662C621.723 685.29 626.452 686.859 638.034 690.249C620.968 725.579 597.483 754.248 568.132 780.275C564.328 783.648 555.219 791.678 551.064 794.081L549.967 795.039C541.069 801.714 526.64 810.927 516.519 815.641C512.338 812.083 512.048 812.58 507.65 814.824C505.403 813.751 501.645 812.075 499.623 810.885L498.759 811.415C501.874 813.058 504.821 814.601 508.007 816.104C508.006 817.871 508.28 819.934 507.528 821.329C503.492 820.941 494.451 816.322 490.726 814.266C477.506 806.252 474.145 803.807 461.813 794.524L461.328 795.188C458.745 793.279 441.51 788.833 436.78 787.209C389.812 771.079 362.212 737.347 349.163 690.447C347.239 689.344 328.809 689.762 325.166 689.767C340.627 689.194 361.264 689.639 376.71 689.921C376.732 687.335 377.258 686.646 378.701 684.649C383.366 682.489 385.037 688.931 387.005 688.655C423.056 683.59 433.198 641.176 435.082 612.362C426.47 607.558 419.125 604.828 409.802 599.078C375.992 578.285 349.911 547.004 335.539 510.005C330.699 497.532 328.353 488.197 325.296 475.24C308.02 473.795 291.297 461.707 283.873 446.239C279.511 437.15 278.542 428.938 279.163 419.071L280.128 418.907C280.32 418.12 280.407 417.56 280.514 416.749C283.297 395.643 300.516 379.306 321.114 375.329C321.418 375.241 321.722 375.152 322.026 375.064L321.939 374.21C324.918 374.124 327.778 373.422 330.69 372.926C403.562 360.534 466.031 311.184 503.529 248.639C506.424 243.812 508.905 238.614 511.813 233.713Z"/><path fill="#F3A896" d="M587.933 613.186L588.017 613.604C588.861 617.983 589.228 623.23 590.034 627.907C592.574 642.647 597.094 659.002 606.346 671.022C606.523 671.348 606.511 671.33 606.784 671.586L609.146 674.396C610.183 675.177 611.807 676.546 612.461 677.662C621.723 685.29 626.452 686.859 638.034 690.249C620.968 725.579 597.483 754.248 568.132 780.275C564.328 783.648 555.219 791.678 551.064 794.081L549.967 795.039C541.069 801.714 526.64 810.927 516.519 815.641C512.338 812.083 512.048 812.58 507.65 814.824C505.403 813.751 501.645 812.075 499.623 810.885L498.759 811.415C501.874 813.058 504.821 814.601 508.007 816.104C508.006 817.871 508.28 819.934 507.528 821.329C503.492 820.941 494.451 816.322 490.726 814.266C477.506 806.252 474.145 803.807 461.813 794.524C450.847 785.774 440.449 776.333 430.685 766.258C412.029 746.857 395.486 725.52 383.423 701.497C381.722 698.11 377.765 692.191 377.932 688.058C377.986 686.732 378.807 686.263 379.661 685.604C381.476 685.196 381.348 685.24 383.101 685.916C384.593 687.58 384.136 686.877 384.609 689.243L385.944 690.025C387.99 689.88 393.751 688.172 395.714 687.38C412.542 680.592 420.025 670.3 427.282 654.651C431.552 655.484 435.851 656.165 440.171 656.692C495.995 663.301 544.321 647.556 587.933 613.186Z"/><path fill="#FFD10F" d="M461.813 794.524C450.847 785.774 440.449 776.333 430.685 766.258C412.029 746.857 395.486 725.52 383.423 701.497C381.722 698.11 377.765 692.191 377.932 688.058C377.986 686.732 378.807 686.263 379.661 685.604C381.476 685.196 381.348 685.24 383.101 685.916C384.593 687.58 384.136 686.877 384.609 689.243C386.914 694.794 391.677 702.949 394.764 708.306C415.975 745.115 448.363 779.211 483.824 802.539C486.983 804.617 495.481 809.923 498.759 811.415C501.874 813.058 504.821 814.601 508.007 816.104C508.006 817.871 508.28 819.934 507.528 821.329C503.492 820.941 494.451 816.322 490.726 814.266C477.506 806.252 474.145 803.807 461.813 794.524Z"/><path fill="#FE3C04" d="M474.55 794.85C499.678 795.846 524.835 795.909 549.967 795.039C541.069 801.714 526.64 810.927 516.519 815.641C512.338 812.083 512.048 812.58 507.65 814.824C505.403 813.751 501.645 812.075 499.623 810.885C492.052 806.673 481.271 800.106 474.55 794.85Z"/><path fill="#711508" d="M384.609 689.243L385.944 690.025C387.879 694.582 392.078 701.633 394.569 706.074C412.685 738.37 443.754 773.076 474.049 794.501C481.85 794.003 490.813 794.187 498.644 794.407C516.138 794.899 533.61 794.077 551.064 794.081L549.967 795.039C524.835 795.909 499.678 795.846 474.55 794.85C481.271 800.106 492.052 806.673 499.623 810.885L498.759 811.415C495.481 809.923 486.983 804.617 483.824 802.539C448.363 779.211 415.975 745.115 394.764 708.306C391.677 702.949 386.914 694.794 384.609 689.243Z"/><path fill="#A06C5E" d="M609.146 674.396C610.183 675.177 611.807 676.546 612.461 677.662C611.256 677.049 609.943 675.481 609.146 674.396Z"/><path fill="#45231F" d="M511.813 233.713C520.012 245.337 524.4 256.283 534.562 269.273L532.74 268.633C524.838 258.469 518.262 246.676 511.859 235.511C481.15 295.771 425.738 345.49 361.086 366.476C348.853 370.454 336.271 373.265 323.508 374.869C323.557 390.245 323.513 405.621 323.374 420.996C323.299 432.469 323.005 444.821 323.94 456.221C327.383 500.277 346.477 541.646 377.77 572.848C413.151 607.883 463.85 627.727 513.542 627.247C564.872 626.989 613.941 606.093 649.699 569.266C677.881 539.792 695.53 501.83 699.899 461.285C701.273 448.696 700.964 434.345 700.974 421.613L700.971 374.531L702.012 374.388C712.935 375.483 724.204 382.305 731.815 390.031L731.325 390.707L731.799 391.462C732.133 392.025 732.481 392.49 732.942 392.953L733.535 393.478C742.605 406.634 746.747 416.674 743.769 433.478C741.415 446.452 733.924 457.928 722.993 465.303C715.616 470.333 708.84 472.251 700.174 474.03L700.152 474.664C699.755 474.936 699.358 475.208 698.961 475.481C697.512 479.731 696.281 487.646 695.123 491.536C691.028 505.295 685.437 519.277 678.511 531.769C664.945 556.086 646.083 577.041 623.321 593.08C617.857 596.903 612.016 600.243 606.486 603.85C603.252 605.96 590.178 610.835 588.981 612.978L587.933 613.186C544.321 647.556 495.995 663.301 440.171 656.692C435.851 656.165 431.552 655.484 427.282 654.651C420.025 670.3 412.542 680.592 395.714 687.38C393.751 688.172 387.99 689.88 385.944 690.025L384.609 689.243C384.136 686.877 384.593 687.58 383.101 685.916C381.348 685.24 381.476 685.196 379.661 685.604C378.807 686.263 377.986 686.732 377.932 688.058C377.765 692.191 381.722 698.11 383.423 701.497C395.486 725.52 412.029 746.857 430.685 766.258C440.449 776.333 450.847 785.774 461.813 794.524L461.328 795.188C458.745 793.279 441.51 788.833 436.78 787.209C389.812 771.079 362.212 737.347 349.163 690.447C347.239 689.344 328.809 689.762 325.166 689.767C340.627 689.194 361.264 689.639 376.71 689.921C376.732 687.335 377.258 686.646 378.701 684.649C383.366 682.489 385.037 688.931 387.005 688.655C423.056 683.59 433.198 641.176 435.082 612.362C426.47 607.558 419.125 604.828 409.802 599.078C375.992 578.285 349.911 547.004 335.539 510.005C330.699 497.532 328.353 488.197 325.296 475.24C308.02 473.795 291.297 461.707 283.873 446.239C279.511 437.15 278.542 428.938 279.163 419.071L280.128 418.907C280.32 418.12 280.407 417.56 280.514 416.749C283.297 395.643 300.516 379.306 321.114 375.329C321.418 375.241 321.722 375.152 322.026 375.064L321.939 374.21C324.918 374.124 327.778 373.422 330.69 372.926C403.562 360.534 466.031 311.184 503.529 248.639C506.424 243.812 508.905 238.614 511.813 233.713Z"/><path fill="#ED5E58" d="M702.01 375.123C710.533 376.166 720.439 381.376 727.067 386.753C727.399 386.943 727.386 386.949 727.645 387.232C728.857 388.372 730.144 389.544 731.325 390.707L731.799 391.462C732.133 392.025 732.481 392.49 732.942 392.953L733.535 393.478C742.605 406.634 746.747 416.674 743.769 433.478C741.415 446.452 733.924 457.928 722.993 465.303C715.616 470.333 708.84 472.251 700.174 474.03L699.521 473.704C699.126 472.248 700.899 461.903 701.105 459.021L701.143 458.42C701.46 457.87 701.413 457.879 701.385 457.215C702.24 446.346 702.029 433.822 702.025 422.884L702.01 375.123Z"/><path fill="#ED5E58" d="M322.026 375.064C322.787 379.746 322.477 400.206 322.357 405.737C321.81 430.925 321.542 449.281 325.088 474.35C296.327 470.638 278.287 447.636 280.128 418.907C280.32 418.12 280.407 417.56 280.514 416.749C283.297 395.643 300.516 379.306 321.114 375.329C321.418 375.241 321.722 375.152 322.026 375.064Z"/><path fill="#ED5E58" d="M436.254 612.769C444.579 615.774 451.652 619.005 460.438 621.37C492.07 629.886 526.373 630.459 558.223 622.728C567.765 620.411 575.255 617.583 584.426 614.416C577.593 620.031 570.36 625.142 562.786 629.707C523.023 655.169 473.511 660.987 427.595 653.742C432.583 638.84 434.322 628.178 436.254 612.769Z"/><path fill="#F3A896" d="M350.103 690.755C358.684 690.738 368.536 690.497 377.007 690.973C391.042 720.807 410.272 747.907 433.797 771.008C441.285 778.44 449.098 784.896 456.724 792.014C443.991 789.62 426.326 782.823 414.96 776.616C390.923 763.318 371.647 742.835 359.83 718.036C355.328 708.347 353.093 700.836 350.103 690.755Z"/><path fill="#0F0F28" d="M532.74 268.633L534.562 269.273C560.711 307.37 608.164 345.291 651.402 361.536C664.083 366.3 679.242 370.066 692.599 372.516C695.397 373.029 699.414 373.622 702.012 374.388L700.971 374.531C698.378 374.534 692.425 373.49 689.644 373.038C628.335 363.06 567.984 319.141 532.74 268.633Z"/><path fill="#45231F" d="M448.373 509.237C461.127 508.904 476.016 509.403 489.027 509.416C523.674 509.586 558.322 509.457 592.967 509.029C587.653 531.199 576.739 554.285 559.066 569.146C550.682 576.028 541.789 581.024 531.261 583.925C512.635 588.922 492.791 586.394 476.012 576.887C450.927 562.587 438.078 536.36 430.847 509.486C436.689 509.46 442.532 509.377 448.373 509.237Z"/><path fill="#ED5E58" d="M449.382 510.218C453.929 509.754 462.004 510.234 466.84 510.33C475.325 510.445 483.81 510.485 492.295 510.448C525.382 510.581 558.471 510.43 591.555 509.994C586.596 531.249 576.029 553.35 559.203 567.696C551.79 574.162 543.147 579.065 533.793 582.11C516.96 587.536 494.538 585.964 479.048 577.342C451.433 561.97 440.97 538.809 432.048 510.537C437.828 510.528 443.606 510.422 449.382 510.218Z"/><path fill="white" d="M446.014 521.988C489.333 522.2 533.989 522.486 577.283 521.975C558.011 567.464 502.01 580.488 464.631 547.809C462.79 546.199 460.742 543.932 458.915 542.477C458.5 542.025 458.215 541.603 457.852 541.108C456.987 539.75 456.066 538.695 455.008 537.483C454.194 536.455 453.658 535.628 452.935 534.548C452.56 533.963 452.365 533.621 451.917 533.102C449.578 529.449 447.777 525.93 446.014 521.988Z"/><path fill="#45231F" d="M446.014 521.988C489.333 522.2 533.989 522.486 577.283 521.975C558.011 567.464 502.01 580.488 464.631 547.809C462.79 546.199 460.742 543.932 458.915 542.477C458.5 542.025 458.215 541.603 457.852 541.108L458.844 540.727C459.046 540.881 459.248 541.035 459.451 541.189C464.48 547.904 474.58 554.81 482.123 558.299C499.027 566.293 518.431 567.174 535.99 560.746C554.933 553.753 567.716 540.878 576.035 522.757C560.914 523.121 544.987 522.887 529.822 522.884L447.483 522.847C448.995 525.98 450.689 528.847 452.423 531.858L451.917 533.102C449.578 529.449 447.777 525.93 446.014 521.988Z"/><path fill="#6C2B29" d="M458.844 540.727C459.046 540.881 459.248 541.035 459.451 541.189L458.915 542.477C458.5 542.025 458.215 541.603 457.852 541.108L458.844 540.727Z"/><path fill="#271413" d="M455.008 537.483L455.359 536.294C456.51 537.805 457.617 539.276 458.844 540.727L457.852 541.108C456.987 539.75 456.066 538.695 455.008 537.483Z"/><path fill="#6C2B29" d="M453.869 534.221C454.539 534.939 454.82 535.468 455.359 536.294L455.008 537.483C454.194 536.455 453.658 535.628 452.935 534.548L453.869 534.221Z"/><path fill="#271413" d="M452.423 531.858C452.898 532.65 453.38 533.438 453.869 534.221L452.935 534.548C452.56 533.963 452.365 533.621 451.917 533.102L452.423 531.858Z"/><path fill="#45231F" d="M612.372 425.738C632.143 426.191 650.957 438.332 651.926 459.471C652.345 468.42 649.161 477.165 643.086 483.749C635.113 492.368 624.933 496.261 613.39 496.659C564.047 496.446 558.5 429.393 612.372 425.738Z"/><path fill="#ED5E58" d="M609.746 426.831C611.313 426.488 612.999 425.906 614.378 426.785C660.863 430.049 662.717 486.445 620.968 494.855C610.447 497.031 599.493 494.884 590.573 488.897C582.805 483.614 577.079 475.757 575.346 466.439C573.843 458.139 575.789 449.585 580.735 442.752C588.283 432.104 597.563 428.961 609.746 426.831Z"/><path fill="#6C2B29" d="M609.746 426.831C611.313 426.488 612.999 425.906 614.378 426.785C612.477 427.112 611.73 426.959 609.746 426.831Z"/><path fill="#45231F" d="M410.261 425.71C418.281 424.91 429.186 428.176 435.863 432.816C443.838 438.347 449.232 446.873 450.813 456.449C454.508 478.112 436.191 493.112 416.552 496.55C413.622 496.609 410.719 496.664 407.799 496.368C391.091 494.673 375.246 481.826 373.515 464.556C372.678 455.563 375.473 446.609 381.279 439.69C388.722 430.733 398.915 426.764 410.261 425.71Z"/><path fill="#ED5E58" d="M409.964 426.685C418.188 425.903 428.904 429.013 435.648 433.898C443.165 439.287 448.233 447.443 449.735 456.57C453.07 478.008 435.93 492.6 416.119 495.494C413.219 495.543 410.261 495.648 407.379 495.293C391.792 493.372 377.041 481.775 374.71 465.751C373.475 457.105 375.819 448.329 381.201 441.451C388.688 431.741 398.24 428.19 409.964 426.685Z"/><path d="M521.941 360.476C532.453 360.379 529.487 366.802 525.55 372.756C510.076 396.155 501.561 425.63 500.405 453.561C500.298 456.164 500.46 459.946 501.577 462.344C508.052 471.705 525.693 465.372 533.777 471.594C536.434 473.638 534.688 477.256 532.373 479.143C524.847 480.108 500.951 477.788 495.371 471.815C488.966 464.26 490.195 450.888 491.174 441.766C493.617 418.994 500.824 396.165 511.456 375.916C514.233 370.627 517.59 364.498 521.941 360.476Z"/><path d="M432.148 366.687C449.909 365.866 464.542 379.197 466.911 396.471C468.437 407.603 457.694 409.127 456.477 397.102C455.432 386.78 448.296 379.28 437.784 377.194L437.119 377.067C408.264 375.309 415.379 402.03 407.294 404.953C394.77 404.676 404.263 384.001 408.766 378.844C415.728 370.873 421.842 367.853 432.148 366.687Z"/><path d="M586.207 367.106C600.231 366.161 611.31 371.026 618.918 383.353C621.321 387.112 625.196 397.125 623.184 401.338C619.294 409.483 614.257 404.088 613.431 397.616C612.088 387.105 605.647 380.778 595.915 377.433C584.446 375.103 573.544 380.944 569.616 392.077C568.028 396.576 568.402 401.59 564.804 405.06C552.391 409.274 555.66 372.974 586.207 367.106Z"/><path fill="#2C3191" d="M488.957 48.2683C502.028 44.5629 530.461 44.5531 542.471 50.2354C552.633 52.3349 567.263 60.4906 575.307 66.9014C578.667 69.5476 581.869 72.39 584.895 75.4138C608.195 97.0167 617.584 134.634 608.594 164.789C607.967 166.894 605.938 173.002 604.796 174.564C603.855 177.912 602.308 178.619 605.711 179.905C607.694 180.654 610.172 181.935 612.095 182.886C650.308 201.587 679.891 237.999 693.584 277.996C704.514 309.922 702.063 341.053 702.012 374.388C699.414 373.622 695.397 373.029 692.599 372.516C679.242 370.066 664.083 366.3 651.402 361.536C608.164 345.291 560.711 307.37 534.562 269.273C524.4 256.283 520.012 245.337 511.813 233.713C508.905 238.614 506.424 243.812 503.529 248.639C466.031 311.184 403.562 360.534 330.69 372.926C327.778 373.422 324.918 374.124 321.939 374.21C322.509 368.701 321.695 362.37 322.07 356.989C323.033 343.172 320.159 316.734 324.332 304.15C324.387 302.046 324.904 299.977 325.32 297.903C331.909 262.331 353.223 227.871 380.425 204.391C381.828 203.18 383.231 201.986 384.694 200.849C385.964 199.796 387.255 198.769 388.567 197.769C392.47 194.792 400.094 189.344 404.448 187.152C407.474 184.984 417.228 180.445 420.895 178.672C406.398 144.429 410.201 110.291 434.048 81.3931C448.105 64.4907 467.449 52.8207 488.957 48.2683Z"/><path fill="#1F2262" d="M488.957 48.2683L488.975 49.079C470.496 54.1283 455.465 61.4395 441.519 74.8044C439.822 76.4302 436.195 81.2103 434.048 81.3931C448.105 64.4907 467.449 52.8207 488.957 48.2683Z"/><path fill="#1F2262" d="M542.471 50.2354C552.633 52.3349 567.263 60.4906 575.307 66.9014C578.667 69.5476 581.869 72.39 584.895 75.4138C582.833 75.2693 581.67 73.7835 580.236 72.3173C574.932 66.8934 568.093 63.2783 562.123 59.5097C557.408 56.5335 545.064 52.7026 542.471 50.2354Z"/><path fill="#1F2262" d="M404.448 187.152C404.14 188.364 398.527 192.426 396.829 193.405C393.08 195.565 389.641 198.754 386.118 201.339C382.996 203.629 384.104 204.119 380.425 204.391C381.828 203.18 383.231 201.986 384.694 200.849C385.964 199.796 387.255 198.769 388.567 197.769C392.47 194.792 400.094 189.344 404.448 187.152Z"/><path fill="#1F2262" d="M612.095 182.886C608.148 183.14 606.991 180.969 604.259 180.291C600.637 179.392 603.524 175.852 604.796 174.564C603.855 177.912 602.308 178.619 605.711 179.905C607.694 180.654 610.172 181.935 612.095 182.886Z"/><path fill="#6C2B29" d="M734.476 393.126C743.033 404.224 747.037 416.248 745.22 430.378C743.573 443.835 736.575 456.061 725.805 464.295C719.375 469.214 708.36 474.632 700.152 474.664L700.174 474.03C708.84 472.251 715.616 470.333 722.993 465.303C733.924 457.928 741.415 446.452 743.769 433.478C746.747 416.674 742.605 406.634 733.535 393.478L734.476 393.126Z"/><path fill="#6C2B29" d="M321.939 374.21L322.026 375.064C321.722 375.152 321.418 375.241 321.114 375.329C300.516 379.306 283.297 395.643 280.514 416.749C280.407 417.56 280.32 418.12 280.128 418.907L279.163 419.071C279.468 417.409 279.479 415.919 279.856 414.236C284.803 392.177 300.675 378.923 321.939 374.21Z"/><path fill="#6C2B29" d="M731.815 390.031C732.523 390.734 732.923 391.177 733.577 391.93L732.942 392.953C732.481 392.49 732.133 392.025 731.799 391.462L731.325 390.707L731.815 390.031Z"/><path fill="#45231F" d="M732.942 392.953L733.577 391.93C733.899 392.398 734.103 392.658 734.476 393.126L733.535 393.478L732.942 392.953Z"/></svg>