<?xml version="1.0" encoding="utf-8" ?><svg xmlns="http://www.w3.org/2000/svg" xmlns:xlink="http://www.w3.org/1999/xlink" width="1024" height="1024" viewBox="0 0 1024 1024"><path fill="#FEFEFE" d="M0 0L1024 0L1024 1024L0 1024L0 0Z"/><path fill="#050303" d="M638.192 263.115C640.934 263.511 653.796 265.943 655.873 266.662C662.854 269.08 713.744 276.251 716.706 279.142C716.115 282.277 677.204 313.405 672.126 318.083C683.325 321.808 697.086 325.464 708.547 328.697L757.487 342.703C767.781 345.645 778.193 348.43 788.378 351.673C794.94 353.446 797.187 363.62 791.863 367.671C778.535 377.815 775.645 398.874 778.134 414.505C779.364 422.233 782.677 428.175 787.169 434.942C795.282 436.7 798.13 444.278 795.422 451.564C792.443 459.581 783.075 460.268 776.841 462.994L776.019 463.362C782.176 464.968 795.489 467.19 795.137 476.051C795.228 482.362 789.621 483.062 787.488 485.693C774.281 501.985 772.647 531.581 786.836 547.241C790.21 548.038 794.045 548.971 795.079 552.912C799.451 569.583 780.537 572.47 769.481 575.574C775.086 576.969 790.097 579.919 793.333 584.452C794.328 585.846 794.615 587.773 794.692 589.445C795.026 596.658 788.26 597.465 785.981 600.945C782.523 606.228 778.802 615.354 777.767 621.629C775.13 637.617 777.869 649.281 786.859 662.378C792.092 664.307 795.818 667.005 796.328 673.1C796.575 676.44 795.461 679.738 793.239 682.244C790.71 685.135 787.83 686.452 784.26 687.566C775.577 690.276 766.76 692.749 758.043 695.35L712.384 709.162L580.619 748.481L537.817 761.341C518.424 767.077 511.203 769.29 491.041 762.384C480.791 758.873 468.596 755.343 458.089 752.166C445.314 747.998 432.002 744.198 419.126 740.217L299.883 703.816L263.361 692.875C249.813 688.747 240.538 687.743 233.575 673.756C217.394 641.25 225.287 587.251 263.816 574.557C248.269 570.49 239.9 569.16 232.519 553.342C218.201 522.659 225.91 473.519 259.32 458.327C252.001 456.104 246.247 454.603 241.147 448.23C221.732 423.97 221.808 386.664 236.813 360.258C240.172 354.348 246.458 346.565 252.708 343.478C261.899 339.382 272.682 336.745 282.363 333.909L336.124 318.207L457.636 282.847C477.313 277.147 497.495 270.898 517.222 265.613C532.113 270.738 550.068 275.191 565.386 279.504C567.721 280.161 582.638 276.26 586.1 275.443L618.364 267.79C624.708 266.255 631.892 264.258 638.192 263.115Z"/><path fill="#F3832C" d="M515.412 267.6C519.454 267 556.681 278.69 563.338 280.649C532.434 287.157 500.867 295.567 469.822 302.463C451.561 306.375 433.336 310.453 415.149 314.699C406.862 316.583 398.33 318.432 390.086 320.417C385.428 321.538 381.715 326.863 377.921 329.209C375.862 330.483 371.17 331.746 368.619 332.496L334.342 342.214C331.827 342.945 322.071 345.669 320.195 346.536C319.011 347.07 318.015 347.947 317.337 349.054C316.044 351.205 316.283 353.128 316.794 355.436C320.037 359.853 333.996 362.536 339.649 364.091L375.486 373.865C381.036 382.116 390.568 391.819 400.973 391.083C410.61 390.402 424.486 386.799 434.107 384.69L505.596 368.794L600.587 348.447L630.446 342.035C635.589 340.926 640.79 339.838 645.91 338.605C649.707 337.691 652.066 334.893 655.044 332.171C664.474 334.631 708.709 345.636 713.756 349.201C714.98 350.066 715.321 350.681 715.412 352.195C715.51 353.819 714.917 356.033 713.617 357.08C711.558 358.737 611.685 386.404 601.6 389.318C580.443 395.431 559.335 402.459 537.999 407.858C533.994 408.871 529.936 409.564 525.798 409.606C517.425 409.692 509.795 407.185 501.866 404.843L477.002 397.685C471.642 396.154 465.395 394.079 459.922 393.416C470.893 398.854 485.902 401.528 497.668 405.247C511.708 409.685 524.498 413.34 538.996 409.095C554.858 404.451 570.934 399.839 586.835 395.252L672.867 370.57C686.417 366.643 700.273 363.111 713.599 358.687C716.746 358.08 717.911 350.949 716.137 349.401C711.194 345.089 696.603 342.03 690.461 340.311C678.888 337.07 667.408 333.468 656.05 331.069C660.756 327.962 666.3 323.246 670.784 319.641C698.505 327.279 726.176 335.097 753.796 343.093L775.891 349.491C780.177 350.739 784.93 351.955 789.021 353.67C794.427 356.046 795.224 365.623 789.083 367.511C781.338 369.892 773.288 371.872 765.455 373.947C748.329 378.409 731.232 382.98 714.165 387.662C696.455 391.768 677.178 397.52 659.526 402.335L583.462 422.886C571.722 426.163 559.961 429.365 548.181 432.492C543.094 433.853 531.609 436.499 527.001 438.623C504.44 449.021 495.867 491.398 514.734 508.553C524.116 517.084 538.829 510.72 549.465 507.425C559.051 504.416 568.655 501.459 578.274 498.555L738.363 450.465L768.588 441.461C774.716 439.648 787.492 434.057 792.518 438.98C798.522 444.859 792.134 457.115 785.178 459.104C780.737 460.373 776.193 461.379 771.618 462.719L734.44 473.759L603.814 512.768L563.004 524.926C551.02 528.536 526.823 536.884 515.954 536.832C512.093 536.813 508.252 536.287 504.528 535.268C490.581 531.481 474.606 525.887 460.755 521.339L393.58 499.457L288.855 466.044C282.829 464.115 249.143 454.337 245.788 451.089C219.001 425.164 221.636 364.491 254.253 344.093C257.683 341.948 281.767 335.436 286.995 333.908L343.767 317.409C400.234 300.868 458.821 283.089 515.412 267.6Z"/><path fill="#050303" d="M284.363 382.16C287.807 382.355 290.155 382.97 293.472 383.899C312.016 389.092 330.229 395.3 348.634 400.919L421.522 423.335C432.743 426.802 448.704 431.183 459.335 435.163C461.326 435.888 463.206 436.888 464.92 438.135C482.711 450.933 479.138 485.455 454.569 489.145C445.764 489.055 416.221 479.076 406.392 475.986L357.515 460.778L305.022 444.764C298.959 442.898 275.43 436.395 271.484 432.741C255.621 418.052 259.249 385.378 284.363 382.16Z"/><path fill="#0E6B52" d="M282.427 383.575C291.474 383.198 324.298 394.612 335.385 398.039L408.081 420.476L440.125 430.391C445.409 432.024 459.988 435.984 463.841 438.908C480.334 451.426 477.942 481.982 456.311 487.491C445.682 487.933 429.561 481.74 418.949 478.494L357.959 459.551L307.491 444.108C301.145 442.171 277.312 435.547 273.532 432.524C257.983 420.087 259.917 389.05 282.427 383.575Z"/><path fill="#0E6B52" d="M227.319 629.661C229.607 611.086 236.399 594.059 251.237 582.06C262.857 572.663 268.821 576.301 281.2 580.12L310.861 589.406L442.715 630.942C455.071 634.764 467.399 638.675 479.698 642.676C514.377 653.918 511.857 654.07 546.714 643.296L583.248 632.145L713.278 592.311L745.817 582.457C750.228 581.124 762.848 576.935 766.765 576.9C772.17 576.852 789.76 581.558 792.611 586.199C798.713 596.132 780.276 598.773 775.316 600.154C764.062 603.297 752.789 606.373 741.498 609.38L588.657 651.404C575.138 655.164 532.815 665.129 523.426 671.073C515.313 676.209 510.012 686.39 507.418 695.359C504.36 705.934 503.985 719.911 509.603 729.746C512.391 734.626 518.63 739.641 524.319 740.772C527.234 741.352 531.708 740.238 534.581 739.498C544.586 736.922 554.495 733.531 564.374 730.496L619.464 713.508L736.953 678.215L771.515 667.838C775.288 666.739 779.373 665.698 783.173 664.47C789.306 662.489 795.625 669.005 794.917 674.72C794.055 681.667 788.47 685.277 782.262 686.817C770.98 690.225 759.832 693.353 748.662 696.772C691.05 714.372 633.334 731.624 575.514 748.527C558.178 753.653 540.948 759.305 523.493 763.975C507.414 768.277 490.449 760.762 475.183 755.998L423.375 740.075L297.51 701.766C280.721 696.818 263.963 691.765 247.238 686.607C245.723 686.046 245.472 686.058 244.403 684.89C243.186 683.888 242.036 682.807 240.961 681.654C229.02 668.778 226.678 648.626 227.119 631.855C227 630.711 226.856 630.536 227.319 629.661Z"/><path fill="#0C4434" d="M227.319 629.661C227.517 630.746 227.66 630.938 227.119 631.855C227 630.711 226.856 630.536 227.319 629.661Z"/><path fill="#0C4434" d="M244.403 684.89C245.747 685.452 246.172 685.67 247.238 686.607C245.723 686.046 245.472 686.058 244.403 684.89Z"/><path fill="#050303" d="M282.8 615.058C285.745 614.774 289.207 614.803 292.089 615.568C316.043 621.918 339.559 629.974 363.309 636.903C386.819 643.654 410.269 650.613 433.655 657.781C441.192 660.115 459.767 664.73 465.235 668.478C483.316 680.869 480.011 714.011 457.81 719.85C454.582 720.52 451.469 720.489 448.302 719.565C438.614 716.739 428.827 713.709 419.176 710.778C400.108 705.128 381.071 699.37 362.068 693.504L307.585 676.853C298.527 674.091 289.617 671.507 280.575 668.561C261.712 662.416 258.772 634.102 272.204 621.398C275.728 618.065 278.48 616.746 282.8 615.058Z"/><path fill="#EB8C98" d="M285.428 616.179C292.185 616.571 301.898 619.703 308.574 621.74C358.003 636.815 407.657 651.15 457.031 666.392C465.495 669.005 471.312 673.563 473.825 682.533C478.369 698.758 472.779 715.308 454.684 718.999C448.659 719.136 423.364 710.727 415.308 708.298L369.349 694.446L312.492 677.041C304.886 674.719 278.8 667.971 274.18 663.892C258.971 650.463 263.546 619.739 285.428 616.179Z"/><path fill="#EB8C98" d="M261.685 459.102C265.79 459.815 278.084 464.067 282.45 465.493C293.793 469.205 305.161 472.842 316.553 476.402L453.317 520.464C469.022 525.651 502.247 537.893 517.408 538.419C524.764 538.674 558.014 527.89 567.321 525.14L712.685 481.791L751.784 470.151C757.448 468.449 763.878 465.882 769.608 464.896C776.576 463.728 790.133 466.819 793.264 473.85C797.091 482.444 781.258 484.716 775.798 486.193L749.889 493.111L590.544 536.891L548.651 548.403C542.921 549.989 529.173 553.224 524.721 555.849C508.29 565.534 501.751 591.223 506.784 608.757C508.747 615.592 512.237 621.152 518.117 624.369C526.582 629 534.399 625.719 542.716 623.131C547.642 621.606 552.659 620.009 557.622 618.439L692.915 577.082C713.226 570.71 733.585 564.491 753.99 558.424C764.165 555.33 774.344 551.969 784.594 549.157C786.097 548.753 787.865 548.332 789.402 548.854C794.307 550.519 794.783 557.781 793.152 561.853C791.839 565.13 789.884 567.473 786.602 568.684C775.989 572.599 764.859 575.477 753.983 578.67L697.104 595.872L580.046 631.776C562.478 637.129 544.943 642.656 527.346 647.811C515.225 651.362 506.529 650.189 494.828 646.157C488.598 644.011 481.85 642.022 475.536 640.011L433.911 626.729L349.015 600.012L280.201 578.463C269.15 574.994 257.878 571.584 246.926 567.874C240.076 565.554 234.124 554.108 231.801 547.82C224.618 527.813 225.513 505.794 234.296 486.435C240.255 473.527 248.179 464.044 261.685 459.102Z"/><path fill="#050303" d="M282.947 497.559C292.889 497.009 304.311 501.757 313.94 504.738L354.62 517.199C381.602 525.242 408.534 533.451 435.415 541.825C441.229 543.635 463.478 549.625 467.186 552.525C483.653 565.402 481.736 597.756 458.687 603.953C449.87 605.303 422.805 595.652 412.32 592.46C386.225 584.55 360.177 576.484 334.177 568.264L299.678 557.741C286.057 553.625 269.494 551.493 265.415 535.512C261.428 519.892 265.403 502.242 282.947 497.559Z"/><path fill="#F3832C" d="M282.264 499.097C284.82 498.863 288.641 498.682 291.043 499.333C300.188 501.813 309.403 504.869 318.456 507.667L371.301 523.812C391.773 529.81 412.192 535.988 432.556 542.345C442.361 545.348 452.419 548.133 462.088 551.517C467.457 553.25 472.065 558.493 474.056 563.782C479.874 579.239 475.454 595.999 459.387 602.213C455.782 602.892 452.698 602.991 449.143 601.994C436.841 598.546 424.477 594.599 412.261 590.86L338.687 568.103C326.104 564.182 313.493 560.35 300.855 556.608C288.247 552.824 272.05 550.871 267.549 536.733C262.929 522.221 266.009 504.416 282.264 499.097Z"/><path fill="#FEFEFE" d="M785.386 370.131L785.78 370.794C772.011 391.429 772.027 414.448 785.46 435.045C778.227 436.699 767.707 440.182 760.406 442.362L713.888 456.386L589.957 493.592C577.296 497.35 564.659 501.189 552.048 505.111C541.528 508.351 529.466 513.998 518.902 509.851C496.439 495.705 505.175 449.338 528.295 439.755C534.679 437.109 544.042 435.084 550.937 433.242L590.938 422.326L693.9 394.446C724.449 386.545 754.945 378.44 785.386 370.131Z"/><path fill="#FEFEFE" d="M785.935 598.672C785.342 600.866 781.311 605.944 780.194 608.642C771.906 628.653 774.451 644.611 784.968 662.576C768.281 666.6 744.824 674.493 727.773 679.537L596.278 719.22L553.112 732.477C545.343 734.861 536.976 737.666 529.022 739.276C525.879 739.913 522.075 738.434 519.125 737.286C497.775 725.27 506.182 680.211 527.063 670.703C534.256 667.428 546.244 664.66 554.045 662.45L612.462 646.342L729.297 614.226C748.142 608.917 767.021 603.732 785.935 598.672Z"/><path fill="#FEFEFE" d="M784.942 485.061L785.617 485.079L785.696 485.751C772.965 503.537 771.273 529.793 784.87 547.561C766.1 552.696 744.295 559.807 725.443 565.546L601.31 603.566L556.938 617.229C548.244 619.93 539.098 622.963 530.233 624.99C526.264 625.898 522.986 624.797 519.287 623.505C497.821 610.773 505.796 566.557 526.887 556.529C532.574 553.826 542.191 551.69 548.51 549.923L594.93 537.228L726.541 500.97C745.773 495.665 765.979 490.837 784.942 485.061Z"/><path fill="#DBC8B5" d="M630.763 290.585C631.053 290.533 632.571 290.419 632.673 290.544C637.466 296.43 639.659 296.862 647.087 298.215C645.987 299.211 644.905 300.226 643.841 301.26C638.481 306.516 636.774 311.298 636.689 318.551C617.732 323.151 597.274 327.168 578.092 331.322L468.031 355.25C464.658 355.921 461.415 356.738 458.078 357.561C454.836 348.799 453.563 339.762 453.501 330.46L630.763 290.585Z"/><path fill="#DBC8B5" d="M635.76 265.065C639.289 264.651 643.104 265.581 646.569 266.308C636.273 271.206 632.804 277.635 632.009 288.73C576.329 300.595 518.974 314.06 463.379 326.843L453.478 328.891C454.241 320.701 455.015 314.785 457.401 306.964C473.83 302.453 494.792 298.251 511.803 294.266L635.76 265.065Z"/><path fill="#DBC8B5" d="M637.094 320.165C637.667 320.623 638.729 322.418 639.533 323.237C645.083 328.888 649.378 328.483 656.618 328.637C654.498 330.637 649.516 335.67 646.923 336.537C640.985 338.522 633.789 339.861 627.64 341.197L591.283 348.981L477.39 373.567L468.139 375.626C464.025 369.622 461.494 365.64 458.852 358.905C482.022 353.178 506.427 348.454 529.846 343.387L637.094 320.165Z"/><path fill="#EB8C98" d="M423.476 314.153C423.938 316.026 422.763 319.448 422.399 321.547C419.141 340.325 422.33 368.204 435.71 382.956C425.438 385.153 414.621 387.844 404.228 389.388C399.52 390.087 394.796 388.54 390.507 386.651C368.171 375.437 365.826 336.039 387.347 323.478C393.861 319.676 414.876 316.56 423.476 314.153Z"/><path fill="#F4BB71" d="M649.297 266.99C660.009 268.445 676.407 272.164 687.53 274.286C687.613 283.713 688.809 290.269 692.981 298.82C683.126 306.89 673.884 314.855 664.181 322.992L658.946 326.85C650.42 327.711 637.316 326.587 638.468 314.72C639.219 306.984 645.135 301.96 650.626 297.199C640.45 295.711 629.258 292.495 635.306 278.629C637.928 272.618 643.157 269.048 649.297 266.99Z"/><path fill="#F3832C" d="M375.31 332.023L376.043 332.035L376.3 332.65C375.353 334.393 374.483 336.177 373.693 337.996C368.921 349.084 370.681 361.617 375.089 372.49C363.168 368.502 347.655 364.622 335.38 361.2C330.755 360.03 320.87 358.24 318.17 354.766C317.541 352.163 318.445 348.805 321.132 347.762C326.814 345.556 332.978 344.058 338.866 342.4C351.044 339.046 363.192 335.586 375.31 332.023Z"/><path fill="#0E6B52" d="M434.832 311.599L435.605 311.746C435.859 313.777 435.189 314.935 434.864 316.925C431.085 340.057 434.729 361.193 447.538 380.516C444.279 381.039 440.983 381.762 437.742 382.429C435.81 380.792 432.948 376.643 431.741 374.353C422.195 356.247 420.014 333.32 425.533 313.793C427.427 313.172 432.655 312.11 434.832 311.599Z"/><path fill="#0E6B52" d="M454.973 307.208C455.483 308.428 454.737 310.325 454.411 311.858C448.926 337.72 452.476 354.619 466.413 376.18L458.27 377.641C443.423 361.7 437.849 328.956 446.494 309.072C449.314 308.421 452.14 307.8 454.973 307.208Z"/><path fill="#0E6B52" d="M443.497 309.66L444.018 310.062C437.827 333.763 440.986 358.97 456.774 378.267L450.125 379.682C449.613 379.83 449.36 379.73 448.776 379.68C447.991 378.813 447.284 378.012 446.727 376.975C435.379 355.852 431.55 334.001 437.58 311.089L443.497 309.66Z"/><path fill="#0E6B52" d="M688.976 274.46C697.813 276.478 706.893 277.589 715.59 279.551C712.508 282.175 708.527 285.646 705.356 288.092C702.941 290.697 697.133 295.189 694.157 297.469C690.083 288.552 689.175 284.284 688.976 274.46Z"/></svg>