<?xml version="1.0" encoding="utf-8" ?><svg xmlns="http://www.w3.org/2000/svg" xmlns:xlink="http://www.w3.org/1999/xlink" width="1024" height="1024" viewBox="0 0 1024 1024"><path fill="white" d="M0 0L1024 0L1024 1024L0 1024L0 0Z"/><path fill="#CDBC98" d="M559.076 111.021C580.828 84.8225 615.911 64.8125 649.967 62.1567C701.124 58.1674 753.017 87.5872 784.738 126.375C806.189 152.604 824.62 179.52 842.789 207.975C848.494 216.799 859.337 232.925 863.533 242.054C865.651 246.622 866.941 251.53 867.345 256.549C870.515 293.621 832.939 298.511 807.812 312.017C795.947 318.395 783.188 328.638 773.049 337.513C778.039 340.678 782.452 344.434 787.093 348.087C791.931 352.113 798.348 357.424 802.392 362.038C833.049 397.012 849.145 440.869 853.3 486.455C854.277 496.695 854.631 506.984 854.362 517.266C854.12 525.525 853.352 533.766 853.397 542.013L852.629 540.183C852.138 541.099 851.339 545.599 851.258 546.722C850.823 552.733 842.525 587.686 844.144 590.516C842.655 593.326 836.437 625.937 835.252 631.628C830.661 652.921 826.514 674.308 822.814 695.774C815.222 737.885 808.758 776.227 822.008 818.058C826.628 832.645 829.644 837.078 837.42 849.743C847.779 866.617 850.374 889.293 850.477 908.947C842.745 921.283 825.839 933.185 811.166 934.912C764.09 944.883 727.61 942.885 683.434 923.958C680.186 922.414 676.926 920.894 673.656 919.398C673.169 908.104 674.977 899.717 678.002 889.085L668.585 890.852C663.504 891.896 658.384 892.823 653.252 893.586L645.154 894.745C652.569 917.03 657.764 926.851 656.867 952.01C647.39 965.501 633.668 973.939 617.643 977.016C569.853 986.803 526.23 985.054 480.726 966.205C478.244 965.668 472.699 962.25 470.268 960.812C468.72 938.39 477.119 913.113 492.644 896.717C494.536 894.719 498.137 890.926 500.651 889.897L501.278 888.098C501.883 885.131 504.617 878.932 503.975 876.673C498.115 880.165 493.687 880.977 486.958 882.196L484.752 882.538C482.314 882.935 479.426 883.598 477.007 884.143L472.756 885.093C471.734 885.318 470.639 885.645 469.594 885.897C473.027 899.052 473.569 907.493 472.947 921.013C466.15 931.22 450.379 941.706 438.26 944.09C436.874 944.349 435.482 944.569 434.084 944.751C421.124 947.251 409.669 949.39 396.42 950.335C364.167 952.356 331.891 946.765 302.197 934.015L292.042 929.458C291.64 920.537 292.569 911.606 294.797 902.959C298.526 888.01 308.748 867.487 322.328 859.332L323.606 857.502C333.777 830.095 338.978 801.095 338.966 771.862C338.974 752.397 335.903 731.942 332.887 712.741C324.505 659.377 309.551 610.405 305.615 556.013C302.092 507.336 308.352 467.648 318.875 420.397L319.347 417.903C316.564 420.575 313.749 423.212 310.901 425.815C283.519 450.82 249.465 464.79 214.805 446.605C199.925 439.178 183.609 424.862 175.111 410.343C152.744 372.131 129.049 334.218 88.7414 312.469C74.2602 304.655 48.503 297.45 37.3879 284.897C31.0082 277.568 27.8407 267.984 28.5972 258.297C29.6114 244.219 35.5492 235.516 42.6907 223.979C48.2042 215.06 53.8293 206.211 59.5646 197.433C67.9655 184.625 76.488 171.896 85.1312 159.25C91.7552 149.546 98.3542 139.665 105.708 130.515C113.595 120.606 122.348 111.419 131.863 103.061C160.881 77.8126 200.891 58.3985 239.749 62.1197C277.795 65.7632 307.888 82.2253 332.498 110.717C333.983 112.551 335.772 115.474 337.629 116.056C340.267 111.768 344.824 107.183 348.48 103.582C367.291 85.0557 390.651 71.7314 416.281 65.312C467.296 52.5342 522.5 77.1298 554.496 117.422C556.007 115.277 557.534 113.143 559.076 111.021Z"/><path fill="#CDBC98" d="M559.076 111.021C580.828 84.8225 615.911 64.8125 649.967 62.1567C701.124 58.1674 753.017 87.5872 784.738 126.375C806.189 152.604 824.62 179.52 842.789 207.975C848.494 216.799 859.337 232.925 863.533 242.054C865.651 246.622 866.941 251.53 867.345 256.549C870.515 293.621 832.939 298.511 807.812 312.017C795.947 318.395 783.188 328.638 773.049 337.513C771.38 337.582 767.228 342.122 765.914 343.49C755.761 354.007 746.707 365.532 738.892 377.886C732.091 388.658 726.666 399.036 718.789 409.294C668.167 475.213 614.41 464.907 566.487 402.124C602.504 361.478 620.118 309.76 618.543 255.489C618.2 243.702 616.125 232.587 615.553 220.913C613.737 183.899 644.265 151.733 681.218 150.972C734.717 150.746 780.868 195.606 811.139 235.509C813.253 238.295 815.33 241.844 817.875 244.147L818.197 243.925C817.033 240.715 811.776 232.838 809.789 229.404C789.803 195.22 763.492 164.65 731.685 141.027C685.19 106.496 624.945 100.188 588.091 152.218C580.071 137.35 570.68 123.33 559.076 111.021Z"/><path fill="#CDBC98" d="M319.347 417.903C316.564 420.575 313.749 423.212 310.901 425.815C283.519 450.82 249.465 464.79 214.805 446.605C199.925 439.178 183.609 424.862 175.111 410.343C152.744 372.131 129.049 334.218 88.7414 312.469C74.2602 304.655 48.503 297.45 37.3879 284.897C31.0082 277.568 27.8407 267.984 28.5972 258.297C29.6114 244.219 35.5492 235.516 42.6907 223.979C48.2042 215.06 53.8293 206.211 59.5646 197.433C67.9655 184.625 76.488 171.896 85.1312 159.25C91.7552 149.546 98.3542 139.665 105.708 130.515C113.595 120.606 122.348 111.419 131.863 103.061C160.881 77.8126 200.891 58.3985 239.749 62.1197C277.795 65.7632 307.888 82.2253 332.498 110.717C324.763 119.332 319.23 126.109 312.789 135.811C309.348 140.995 305.225 148.083 301.79 152.847C268.575 101.241 212.579 106.821 166.514 137.144C135.259 157.718 110.848 184.504 90.2106 215.501C86.6767 220.907 83.2777 226.399 80.0168 231.973C78.7789 234.076 76.6509 238.176 75.4365 239.921L76.6493 240.101C104.777 201.515 147.834 160.034 196.649 151.526C234.383 144.949 269.559 171.129 274.152 209.135C276.462 228.253 271.971 244.756 272.342 263.817C272.573 306.068 284.602 348.74 308.833 383.573C314.091 391.131 321.638 400.736 328.621 406.625C326.026 409.625 320.834 414.558 319.146 417.261L319.347 417.903Z"/><path fill="#AB9B7A" d="M75.4365 239.921L76.6493 240.101C76.7648 239.92 72.5659 246.478 73.8469 242.775L73.7702 242.979C74.2358 242.016 74.9141 240.906 75.4365 239.921Z"/><path fill="#CDBC98" d="M318.875 420.397C341.917 432.581 352.36 448.033 360.136 472.914C365.043 488.616 366.68 505.358 370.341 521.639C381.912 573.087 397.738 626.401 439.119 662.113C445.886 667.953 454.089 672.896 461.703 677.513C459.24 685.894 456.743 694.532 454.562 702.994C449.542 722.469 442.966 743.853 440.658 763.787C437.195 793.69 445.676 825.56 456.739 853.114C456.86 853.319 456.98 853.524 457.101 853.73C459.903 859.528 462.637 866.473 464.926 872.519C466.404 876.424 467.667 882.401 469.594 885.897C473.027 899.052 473.569 907.493 472.947 921.013C466.15 931.22 450.379 941.706 438.26 944.09C436.874 944.349 435.482 944.569 434.084 944.751C421.124 947.251 409.669 949.39 396.42 950.335C364.167 952.356 331.891 946.765 302.197 934.015L292.042 929.458C291.64 920.537 292.569 911.606 294.797 902.959C298.526 888.01 308.748 867.487 322.328 859.332L323.606 857.502C333.777 830.095 338.978 801.095 338.966 771.862C338.974 752.397 335.903 731.942 332.887 712.741C324.505 659.377 309.551 610.405 305.615 556.013C302.092 507.336 308.352 467.648 318.875 420.397Z"/><path fill="#BA670D" d="M302.197 934.015C304.028 924.385 308.797 916.039 316.921 910.603C332.384 900.256 352.988 905.257 362.567 921.05C365.409 925.738 366.258 928.993 367.854 934.082C369.382 930.618 370.716 927.444 372.86 924.316C382.063 910.884 398.813 906.471 413.507 913.151C422.04 916.977 428.627 924.139 431.728 932.961C432.946 936.352 433.977 941.14 434.084 944.751C421.124 947.251 409.669 949.39 396.42 950.335C364.167 952.356 331.891 946.765 302.197 934.015Z"/><path fill="#9A8968" d="M323.606 857.502C327.234 855.126 330.874 850.677 334.734 847.785C361.809 827.499 404.738 839.583 425.039 864.415C391.114 847.817 357.794 840.771 323.383 859.052C322.816 859.353 322.973 859.277 322.328 859.332L323.606 857.502Z"/><path fill="#9A8968" d="M301.79 152.847C305.225 148.083 309.348 140.995 312.789 135.811C319.23 126.109 324.763 119.332 332.498 110.717C333.983 112.551 335.772 115.474 337.629 116.056C336.287 119.182 328.8 127.265 326.374 130.856C289.949 184.778 276.564 255.063 294.595 318.014C303.192 348.117 319.384 378.829 342.171 400.965C335.806 381.114 337.931 362.04 347.857 343.785C348.288 342.992 348.564 342.664 349.107 341.954L349.434 342.115C348.291 347.047 346.117 352.213 345.173 357.011C340.583 380.339 348.569 404.484 363.793 422.509C364.422 403.211 365.073 391.572 367.199 372.575C368.558 374.78 367.684 379.547 368.432 383.673C368.887 448.489 379.506 547.744 408.408 605.853C416.161 621.477 426.368 635.757 438.641 648.149C461.003 670.284 490.726 683.836 521.571 688.885C531.687 690.541 542.332 690.407 551.596 694.603C561.305 699.001 565.93 704.732 571.398 713.433C587.25 720.882 601.301 710.955 607.985 696.752C609.14 694.32 610.14 691.817 610.978 689.259L611.642 689.447C608.774 699.914 603.617 712.368 593.738 717.959C579.568 725.978 568.84 713.41 557.483 706.947C546.241 700.38 535.001 700.039 522.325 699.539C516.989 699.24 510.374 698.433 504.989 697.802C505.406 701.025 510.026 731.622 509.498 732.332C510.562 740.58 512.863 748.708 514.161 756.999C517.498 777.928 517.994 799.212 515.637 820.274C515.289 823.573 514.593 832.457 513.33 834.948C514.963 839.183 507.478 874.554 504.093 876.425L503.975 876.673C498.115 880.165 493.687 880.977 486.958 882.196L484.752 882.538C482.314 882.935 479.426 883.598 477.007 884.143L472.756 885.093C471.734 885.318 470.639 885.645 469.594 885.897C467.667 882.401 466.404 876.424 464.926 872.519C462.637 866.473 459.903 859.528 457.101 853.73C456.98 853.524 456.86 853.319 456.739 853.114C445.676 825.56 437.195 793.69 440.658 763.787C442.966 743.853 449.542 722.469 454.562 702.994C456.743 694.532 459.24 685.894 461.703 677.513C454.089 672.896 445.886 667.953 439.119 662.113C397.738 626.401 381.912 573.087 370.341 521.639C366.68 505.358 365.043 488.616 360.136 472.914C352.36 448.033 341.917 432.581 318.875 420.397L319.347 417.903L319.146 417.261C320.834 414.558 326.026 409.625 328.621 406.625C321.638 400.736 314.091 391.131 308.833 383.573C284.602 348.74 272.573 306.068 272.342 263.817C271.971 244.756 276.462 228.253 274.152 209.135C269.559 171.129 234.383 144.949 196.649 151.526C147.834 160.034 104.777 201.515 76.6493 240.101L75.4365 239.921C76.6509 238.176 78.7789 234.076 80.0168 231.973C83.2777 226.399 86.6767 220.907 90.2106 215.501C110.848 184.504 135.259 157.718 166.514 137.144C212.579 106.821 268.575 101.241 301.79 152.847Z"/><path fill="white" d="M497.865 730.107C500.817 730.822 507.589 731.756 509.498 732.332C510.562 740.58 512.863 748.708 514.161 756.999C517.498 777.928 517.994 799.212 515.637 820.274C515.289 823.573 514.593 832.457 513.33 834.948C511.415 829.127 508.423 822.708 504.702 817.81C484.936 791.787 491.152 759.429 497.865 730.107Z"/><path fill="#BA670D" d="M457.101 853.73C474.3 853.241 485.348 865.933 486.958 882.196L484.752 882.538C482.314 882.935 479.426 883.598 477.007 884.143L472.756 885.093C471.734 885.318 470.639 885.645 469.594 885.897C467.667 882.401 466.404 876.424 464.926 872.519C462.637 866.473 459.903 859.528 457.101 853.73Z"/><path fill="#9A8968" d="M554.496 117.422C556.007 115.277 557.534 113.143 559.076 111.021C570.68 123.33 580.071 137.35 588.091 152.218C624.945 100.188 685.19 106.496 731.685 141.027C763.492 164.65 789.803 195.22 809.789 229.404C811.776 232.838 817.033 240.715 818.197 243.925L817.875 244.147C815.33 241.844 813.253 238.295 811.139 235.509C780.868 195.606 734.717 150.746 681.218 150.972C644.265 151.733 613.737 183.899 615.553 220.913C616.125 232.587 618.2 243.702 618.543 255.489C620.118 309.76 602.504 361.478 566.487 402.124C614.41 464.907 668.167 475.213 718.789 409.294C726.666 399.036 732.091 388.658 738.892 377.886C746.707 365.532 755.761 354.007 765.914 343.49C767.228 342.122 771.38 337.582 773.049 337.513C778.039 340.678 782.452 344.434 787.093 348.087C779.219 349.787 744.637 396.718 739.183 405.921C731.416 419.026 724.823 430.563 714.356 441.684C684.657 473.237 635.153 485.24 597.535 460.563C582.275 450.553 569.742 434.081 557.975 420.153C552.598 425.8 547.755 430.743 541.632 435.731C536.509 439.904 529.251 443.972 524.823 448.674C524.327 449.2 519.992 456.894 519.167 458.313C505.632 481.594 498.569 512.778 498.992 539.553C499.312 559.84 505.494 583.729 520.779 598.215C531.546 608.92 546.824 615.88 562.146 615.572C575.489 615.304 581.572 600.497 596.41 605.45C607.657 609.205 612.818 616.108 615.925 627.075C615.682 628.077 615.615 628.051 614.943 628.951C611.219 621.674 605.042 617.516 597.582 614.942C582.571 609.763 577.35 618.161 564.327 621.497C558.456 623.001 549.978 621.995 543.991 621.248C537.391 627.841 536.144 633.134 535.675 642.099C533.567 630.969 535.713 626.578 540.501 616.979C533.807 613.244 527.315 606.092 521.584 607.883C511.267 611.108 502.511 625.173 497.266 633.661L496.875 633.305C503.646 617.816 506.847 612.905 517.674 599.711C513.1 595.679 511.177 592.911 507.495 588.062C493.219 587.446 476.577 594.543 468.313 606.42L467.473 606.385C467.836 604.897 470.129 601.713 471.058 600.358C478.736 589.167 490.029 582.8 502.39 577.868L496.524 561.411C495.731 560.954 494.922 560.523 494.099 560.119C481.353 553.763 469.151 552.833 456.2 558.931C454.004 559.965 448.047 563.676 447.296 563.928L447.44 563.209C453.402 557.391 458.676 552.012 466.494 548.71C475.212 545.005 485.046 544.921 493.826 548.477C492.164 537.847 493.805 526.749 487.566 519.104C477.122 506.306 462.672 499.33 445.977 501.311C442.738 501.696 434.313 504.376 431.841 504.058C435.244 502.631 437.726 500.596 440.859 499.326C459.547 491.755 473.448 493.022 491.565 500.187C491.99 495.675 494.394 484.255 493.766 480.647C490.026 459.148 472.543 447.193 452.71 448.147L449.764 447.458C471.568 440.933 484.664 446.797 495.721 466.462C499.026 449.425 502.497 432.42 506.135 415.451C508.939 402.508 512.37 388.291 514.67 375.373C515.857 387.497 515.165 414.665 514.097 426.961C539.135 408.455 547.761 373.635 537.739 344.715L538.47 343.584C539.164 344.943 539.804 346.329 540.388 347.739C548.519 367.224 549.727 385.291 541.642 405.148C558.469 391.485 573.433 370.648 583.213 351.291C618.783 280.89 607.339 193.66 562.972 129.89C561.487 127.755 554.721 119.202 554.496 117.422Z"/><path fill="#9A8968" d="M630.72 861.786C615.044 817.203 617.688 781.386 626.604 735.852C629.105 723.078 631.521 707.641 635.268 695.353C638.735 683.983 644.158 671.973 647.747 660.36C653.288 642.425 657.887 622.363 660.542 603.843C662.875 587.212 663.591 570.394 662.68 553.624C662.508 549.831 660.237 532.958 660.621 531.764L661.159 532.476C661.142 535.08 664.222 545.022 664.89 548.769C675.209 606.695 663.263 660.865 640.699 714.108C675.485 702.164 694.485 639.846 704.163 607.867C702.969 632.516 701.544 657.784 705.183 682.303C706.016 687.911 708.278 695.832 708.362 701.26C708.369 701.408 708.377 701.557 708.384 701.705C715.485 745.755 721.724 791.633 708.545 835.232C706.992 840.371 705.888 846.01 704.111 851.239L703.885 852.114C702.001 853.407 701.356 853.685 700.043 855.478C699.944 855.723 691.685 864.704 690.269 866.682C688.251 869.513 686.406 872.461 684.741 875.512C683.336 878.097 679.081 888.175 678.002 889.085L668.585 890.852C663.504 891.896 658.384 892.823 653.252 893.586L645.154 894.745C643.573 894.603 632.36 865.37 630.72 861.786Z"/><path fill="white" d="M708.362 701.26C708.369 701.408 708.377 701.557 708.384 701.705C715.485 745.755 721.724 791.633 708.545 835.232C706.992 840.371 705.888 846.01 704.111 851.239L703.885 852.114C702.001 853.407 701.356 853.685 700.043 855.478C699.428 855.44 699.79 855.528 699.059 854.949C695.737 840.357 693.111 834.721 684.418 822.396C674.678 808.586 671.361 783.291 671.688 766.788C671.862 758.002 673.917 747.668 675.34 739.05C676.693 730.484 678.158 721.935 679.735 713.407C692.222 710.674 697.477 707.682 708.362 701.26Z"/><path fill="#BA670D" d="M630.72 861.786C636.169 859.75 644.092 860.998 649.369 863.186C660.342 867.734 668.035 879.038 668.585 890.852C663.504 891.896 658.384 892.823 653.252 893.586L645.154 894.745C643.573 894.603 632.36 865.37 630.72 861.786Z"/><path fill="#BA670D" d="M480.726 966.205C483.441 959.627 485.324 953.81 490.078 948.362C502.638 933.966 527.393 932.91 539.822 948.057C544.836 954.168 546.939 959.514 548.562 967.225C553.57 956.648 559.289 947.857 570.901 943.674C579.197 940.714 588.33 941.18 596.281 944.971C604.681 948.963 611.092 955.945 614.57 964.659C616.352 969.121 616.52 973.726 617.643 977.016C569.853 986.803 526.23 985.054 480.726 966.205Z"/><path fill="#BA670D" d="M683.434 923.958C685.97 914.167 690.131 906.483 699.144 901.183C706.49 896.838 715.264 895.599 723.526 897.742C736.738 901.252 743.774 912.008 746.552 924.722C751.509 914.646 756.393 906.819 767.704 903.044C775.959 900.347 784.952 901.075 792.665 905.067C803.876 910.839 810.584 922.477 811.166 934.912C764.09 944.883 727.61 942.885 683.434 923.958Z"/><path fill="#9A8968" d="M501.278 888.098C504.503 886.787 511.192 879.168 514.855 876.644C531.933 864.879 553.432 862.419 572.882 869.482C589.714 875.589 597.168 882.9 608.989 894.555C577.946 881.052 551.075 870.78 516.001 883.039C513.32 883.976 501.96 889.805 500.651 889.897L501.278 888.098Z"/><path fill="#9A8968" d="M705.508 850.757C731.222 821.185 770.029 826.807 797.39 850.983C799.793 853.127 802.094 855.383 804.287 857.742C776.936 844.697 747.789 836.269 717.577 846.312C714.187 847.439 708.65 849.84 705.783 851.885C705.692 851.509 705.6 851.133 705.508 850.757Z"/><path fill="#9A8968" d="M615.062 644.436C618.836 654.155 619.601 674.176 613.731 682.923C609.451 689.302 604.941 682.385 604.034 677.248C603.295 673.033 602.82 668.775 602.613 664.5C602.304 657.808 601.318 628.867 614.339 643.164C614.671 643.81 614.693 643.876 615.062 644.436Z"/><path fill="#AB9B7A" d="M615.925 627.075C616.706 632.104 615.654 639.246 615.062 644.436C614.693 643.876 614.671 643.81 614.339 643.164C614.839 637.6 614.934 634.428 614.943 628.951C615.615 628.051 615.682 628.077 615.925 627.075Z"/><path fill="#AB9B7A" d="M367.199 372.575C367.463 371.169 367.434 367.481 368.136 366.566L368.233 366.532C368.658 366.915 368.482 382.167 368.432 383.673C367.684 379.547 368.558 374.78 367.199 372.575Z"/><path fill="#AB9B7A" d="M537.739 344.715C537.354 343.537 535.623 340.208 536.189 339.479C536.978 339.623 538.258 342.771 538.47 343.584L537.739 344.715Z"/><path fill="#AB9B7A" d="M452.71 448.147C451.987 448.269 447.173 449.277 447.308 448.25C447.894 447.914 448.369 447.743 449.033 447.617L449.764 447.458L452.71 448.147Z"/><path fill="#AB9B7A" d="M704.111 851.239C704.579 851.02 705.011 850.913 705.508 850.757C705.6 851.133 705.692 851.509 705.783 851.885C705.076 852.384 704.73 852.202 703.885 852.114L704.111 851.239Z"/><path fill="#AB9B7A" d="M468.313 606.42C466.863 609.256 465.2 608.384 467.473 606.385L468.313 606.42Z"/><path fill="#AB9B7A" d="M610.978 689.259C611.141 688.626 611.11 688.401 611.588 688.041C611.764 688.014 611.688 688.002 611.818 688.062C612.129 688.504 611.793 689.002 611.642 689.447L610.978 689.259Z"/><path fill="#AB9B7A" d="M496.875 633.305L497.266 633.661C497.16 633.893 497.035 634.47 496.668 634.525C496.137 634.322 496.757 633.5 496.875 633.305Z"/><path d="M537.412 225.834C543.399 224.708 549.529 226.888 553.459 231.543C557.39 236.198 558.513 242.606 556.399 248.32C554.286 254.034 549.262 258.169 543.249 259.145C534.112 260.629 525.48 254.49 523.882 245.372C522.284 236.253 528.315 227.545 537.412 225.834Z"/><path d="M339.119 225.855C348.169 223.815 357.168 229.465 359.264 238.503C361.361 247.54 355.767 256.574 346.743 258.727C337.639 260.899 328.506 255.245 326.391 246.127C324.276 237.01 329.988 227.913 339.119 225.855Z"/><path fill="#9A8968" d="M587.815 638.393C603.014 638.987 601.797 675.339 593.156 684.996L592.624 685.604C585.61 688.591 583.41 681.54 582.572 675.744C581.041 665.152 578.997 645.838 587.815 638.393Z"/><path fill="#BA670D" d="M970.453 519.193C989.075 542.97 988.778 567.552 971.798 592.31C972.338 592.035 972.87 591.8 973.421 591.547C987.2 573.104 994.302 555.268 987.763 532.534C1003.56 559.35 995.594 600.503 968.397 617.714C964.649 620.086 958.516 622.095 954.123 622.632C950.329 622.409 945.987 622.5 941.987 622.311C936.816 602.345 937.719 587.726 953.357 572.736C967.221 559.447 969.64 543.182 959.876 526.636L960.607 525.855C976.578 542.778 969.349 570.144 959.308 588.219C974.295 576.172 981.133 549.816 975.42 531.752C974.038 527.383 972.214 524.084 969.937 520.122L970.453 519.193Z"/><path fill="#CDBC98" d="M971.798 592.31C972.338 592.035 972.87 591.8 973.421 591.547C972.752 592.59 969.134 597.802 968.294 598.101C968.181 598.079 968.247 598.11 968.103 597.948L968.202 597.858C968.216 596.51 970.865 593.245 971.798 592.31Z"/><path fill="#9A8968" d="M844.144 590.516C842.525 587.686 850.823 552.733 851.258 546.722C851.339 545.599 852.138 541.099 852.629 540.183L853.397 542.013C857.554 571.433 865.792 622.208 890.542 641.219C892.284 642.556 894.144 643.732 896.099 644.731C896.569 645.829 896.806 645.918 897.158 647.097C897.726 648.976 909.062 656.696 911.858 659.42C912.941 659.533 913.676 659.698 914.754 659.915C910.911 660.567 908.927 660.878 904.914 660.019C901.647 659.97 895.523 658.131 892.559 656.74C865.7 644.137 854.14 615.891 844.144 590.516Z"/><path fill="#AB9B7A" d="M911.858 659.42C912.941 659.533 913.676 659.698 914.754 659.915C910.911 660.567 908.927 660.878 904.914 660.019C906.766 659.835 909.553 660.035 911.082 659.615L911.858 659.42Z"/><path fill="#CDBC98" d="M941.987 622.311C945.987 622.5 950.329 622.409 954.123 622.632C950.964 623.159 948.994 623.055 945.799 623.004C942.725 639.527 932.727 656.911 914.754 659.915C913.676 659.698 912.941 659.533 911.858 659.42C909.062 656.696 897.726 648.976 897.158 647.097C896.806 645.918 896.569 645.829 896.099 644.731C904.265 647.359 905.254 646.756 913.312 646.452C913.8 646.207 914.146 646.159 914.691 645.995C926.721 642.387 936.044 633.121 941.987 622.311Z"/><path fill="#AB9B7A" d="M896.099 644.731C904.265 647.359 905.254 646.756 913.312 646.452C910.641 648.39 900.548 647.063 897.158 647.097C896.806 645.918 896.569 645.829 896.099 644.731Z"/><path fill="#CDBC98" d="M969.937 520.122C969.305 519.38 965.458 515.086 965.377 514.762C965.416 514.637 965.374 514.699 965.542 514.596C966.742 515.272 969.53 518.152 970.453 519.193L969.937 520.122Z"/><path fill="#CDBC98" d="M958.524 525.187C958.048 524.616 955.839 522.269 955.868 521.728L955.975 521.642L956.607 521.995L956.013 521.768L956.784 522.095L956.587 521.916C957.239 522.378 957.964 523.12 958.53 523.678L958.524 525.187Z"/><path fill="#9A8968" d="M958.53 523.678C959.209 524.416 959.901 525.142 960.607 525.855L959.876 526.636C959.413 526.124 959.008 525.684 958.524 525.187L958.53 523.678Z"/></svg>