<svg xmlns="http://www.w3.org/2000/svg" height="1024" preserveAspectRatio="none" style="display: block;" version="1.1" viewBox="0 0 2048 2048" width="1024">
<path d="M 0 0 L 2048 0 L 2048 2048 L 0 2048 L 0 0 z" fill="rgb(255,255,255)" transform="translate(0,0)"></path>
<path d="M 663.833 437.393 C 688.762 397.505 712.719 373.034 752.926 348.866 C 876.455 274.614 1057.97 271.127 1194.5 305.174 C 1340.34 341.545 1484.08 419.439 1562.17 552.091 C 1625.99 660.497 1640.93 770.441 1610.46 891.684 C 1606.23 905.245 1602.28 917.401 1597.24 930.665 C 1595.12 936.228 1589.02 950.755 1587.77 955.757 C 1589.9 957.414 1590.19 957.588 1591.95 959.526 C 1600.24 964.591 1611.33 976.939 1617.69 984.391 C 1619.19 985.87 1620.36 987.732 1621.7 989.451 C 1622.93 991.316 1624.18 993.069 1625.38 994.951 C 1673.03 1063.15 1654.62 1156.68 1587.5 1204.47 C 1585.17 1206.14 1583.47 1207.21 1580.79 1208.24 C 1570.31 1218.48 1542.39 1226.56 1528.49 1230.4 C 1506.11 1356.31 1406.93 1478.85 1303.82 1549.49 C 1300.35 1551.86 1287.54 1560.42 1284.25 1561.47 C 1280.21 1565.02 1256.04 1580.11 1251.29 1581.49 C 1249.22 1582.63 1247.13 1583.74 1245.01 1584.79 C 1243.74 1585.43 1240.47 1587.19 1239.3 1587.55 C 1213.6 1600.09 1194.8 1607.51 1168.37 1617.93 C 1166.62 1629.24 1165.12 1639.31 1161.48 1650.29 C 1159.11 1657.69 1152.68 1674.75 1147.55 1680.23 C 1146.9 1682.81 1142.02 1691.07 1139.68 1691.95 C 1134.51 1702.17 1124.05 1710.52 1116.19 1718.3 C 1114.12 1720.16 1111.37 1722.28 1109.16 1724.01 C 1106.95 1725.42 1104.76 1726.88 1102.6 1728.38 C 1100.63 1729.74 1100.32 1730.02 1098.18 1731.03 C 1060.35 1752.4 1018.12 1758.14 976.995 1742.29 C 967.171 1738.95 944.13 1726.91 937.818 1719 C 930.36 1714.2 919.5 1702.14 914.136 1695 C 907.882 1686.68 902.615 1677.67 898.441 1668.14 L 897.582 1666.27 C 893.729 1657.82 887.979 1641.6 887.431 1632.47 L 885.749 1621.6 L 872.888 1617.93 C 854.163 1613.08 839.54 1607.88 821.68 1600.64 C 818.533 1599.75 814.913 1597.99 811.851 1596.67 C 806.034 1594.27 801.508 1592.46 795.902 1589.52 L 793.969 1588.74 C 785.665 1584.89 770.795 1577.78 763.368 1572.76 L 762.888 1572.3 C 755.13 1569.17 729.989 1552.47 722.668 1547.32 C 653.627 1498.57 597.612 1433.61 559.544 1358.15 C 558.398 1356.49 557.416 1354.13 556.526 1352.26 C 533.494 1307 524.404 1277.24 512.127 1229.11 C 495.658 1224.43 486.203 1220.45 471.31 1212.45 C 466.951 1209.98 464.574 1208.77 460.597 1205.6 C 459.42 1204.83 458.269 1204.02 457.146 1203.17 C 423.897 1178.32 402.042 1141.14 396.502 1100 C 390.888 1061.16 399.947 1023.21 423.448 991.745 C 431.632 980.108 447.818 963.553 460.153 956.413 C 460.872 955.549 460.981 955.056 461.474 954.009 C 459.875 947.214 457.209 942.07 454.832 935.492 C 417.762 832.91 410.903 719.342 456.817 618.391 C 489.626 546.254 542.503 486.429 615.444 454.016 C 635.297 445.194 644.704 444.576 662.044 438.075 L 663.833 437.393 z" fill="rgb(231,185,147)" transform="translate(0,0)"></path>
<path d="M 663.833 437.393 C 688.762 397.505 712.719 373.034 752.926 348.866 C 876.455 274.614 1057.97 271.127 1194.5 305.174 C 1340.34 341.545 1484.08 419.439 1562.17 552.091 C 1625.99 660.497 1640.93 770.441 1610.46 891.684 C 1562.35 885.141 1551.39 845.962 1529.39 809.963 C 1515.71 787.581 1480.79 740.81 1457.09 731.681 C 1449.61 730.313 1449.81 730.977 1441.8 732.727 C 1436.87 730.01 1395.45 732.102 1386.3 732.099 C 1333.36 731.775 1280.49 728.061 1228.02 720.978 C 1110.8 705.283 972.591 678.331 871.519 613.612 C 856.23 603.823 830.769 583.844 819.801 569.485 C 799.664 574.7 751.23 594.206 732.955 604.043 C 730.52 605.595 727.138 606.218 725.922 608.583 C 723.143 611.431 689.492 630.401 683.188 633.837 C 681.766 635.276 679.196 636.815 677.462 637.957 L 676.549 638.569 C 671.449 642.491 666.883 646.028 661.511 649.587 C 660.502 650.418 660.347 650.55 659.29 651.224 C 654.974 655.186 640.559 668.234 636.175 671.116 C 635.623 671.954 635.639 671.869 634.647 672.249 C 632.782 674.73 627.629 680.543 625.068 682.142 C 623.885 683.571 620.152 688.282 618.962 689.172 L 611.283 697.9 C 556.057 768.521 527.189 843.668 516.73 932.889 C 496.929 938.289 478.253 945.637 461.075 957.105 L 460.153 956.413 C 460.872 955.549 460.981 955.056 461.474 954.009 C 459.875 947.214 457.209 942.07 454.832 935.492 C 417.762 832.91 410.903 719.342 456.817 618.391 C 489.626 546.254 542.503 486.429 615.444 454.016 C 635.297 445.194 644.704 444.576 662.044 438.075 L 663.833 437.393 z" fill="rgb(101,68,42)" transform="translate(0,0)"></path>
<path d="M 611.283 697.9 C 611.529 692.477 613.594 689.536 618.962 689.172 L 611.283 697.9 z" fill="rgb(43,28,21)" transform="translate(0,0)"></path>
<path d="M 625.068 682.142 C 624.993 678.706 631.779 673.816 634.647 672.249 C 632.782 674.73 627.629 680.543 625.068 682.142 z" fill="rgb(43,28,21)" transform="translate(0,0)"></path>
<path d="M 676.549 638.569 C 676.12 638.448 675.555 638.349 675.247 638.092 L 675.233 637.921 C 676.46 635.959 680.5 633.425 683.188 633.837 C 681.766 635.276 679.196 636.815 677.462 637.957 L 676.549 638.569 z" fill="rgb(43,28,21)" transform="translate(0,0)"></path>
<path d="M 659.29 651.224 C 658.991 649.204 659.671 647.581 661.511 649.587 C 660.502 650.418 660.347 650.55 659.29 651.224 z" fill="rgb(43,28,21)" transform="translate(0,0)"></path>
<path d="M 634.647 672.249 C 634.871 671.423 634.753 671.723 634.977 671.268 C 635.419 670.976 635.467 671.084 636.175 671.116 C 635.623 671.954 635.639 671.869 634.647 672.249 z" fill="rgb(43,28,21)" transform="translate(0,0)"></path>
<path d="M 1006.67 1374.99 C 1014.61 1373.06 1036.01 1372.92 1044.04 1375.14 C 1045.9 1375.04 1047.3 1375.05 1049.16 1375.06 L 1050.82 1375.05 C 1055.79 1375.69 1059.31 1375.88 1064.3 1376.23 L 1070.11 1377.04 C 1073.56 1377.61 1076.14 1377.95 1079.61 1378.31 C 1083.86 1378.11 1095.59 1380.15 1099.87 1381.33 C 1104.98 1382.4 1108.9 1383.5 1114.13 1384.19 L 1114.1 1385.99 C 1132.13 1389.85 1151.43 1395.88 1168.8 1402.13 L 1168.5 1534.86 C 1168.45 1564.14 1169.56 1592.52 1166.02 1621.58 C 1165.35 1627.07 1161.05 1647.51 1161.48 1650.29 C 1159.11 1657.69 1152.68 1674.75 1147.55 1680.23 C 1146.9 1682.81 1142.02 1691.07 1139.68 1691.95 C 1134.51 1702.17 1124.05 1710.52 1116.19 1718.3 C 1114.12 1720.16 1111.37 1722.28 1109.16 1724.01 C 1106.95 1725.42 1104.76 1726.88 1102.6 1728.38 C 1100.63 1729.74 1100.32 1730.02 1098.18 1731.03 C 1060.35 1752.4 1018.12 1758.14 976.995 1742.29 C 967.171 1738.95 944.13 1726.91 937.818 1719 C 930.36 1714.2 919.5 1702.14 914.136 1695 C 907.882 1686.68 902.615 1677.67 898.441 1668.14 L 897.582 1666.27 C 893.729 1657.82 887.979 1641.6 887.431 1632.47 C 887.907 1630.13 888.189 1628.77 888.363 1626.39 C 882.717 1606.82 885.121 1507.7 885.437 1483.81 C 885.586 1456.53 885.441 1429.24 885.002 1401.96 C 895.416 1398.58 905.783 1395.05 916.102 1391.38 C 926.587 1389.08 929.729 1386.61 940.925 1388.33 C 941.203 1386.45 941.195 1387.29 941.022 1385.78 C 945.965 1382.21 952.191 1385.16 955.657 1380.54 C 957.648 1379.64 960.944 1379.43 963.274 1379.12 C 969.72 1378.53 975.246 1377.07 981.899 1376.78 L 983.849 1376.42 C 990.032 1375.82 1000.88 1374.79 1006.67 1374.99 z" fill="rgb(222,138,123)" transform="translate(0,0)"></path>
<path d="M 916.102 1391.38 L 915.898 1508.21 C 915.931 1541.41 913.423 1587.23 922.55 1617.59 C 940.376 1676.89 996.684 1722.96 1057.76 1730.96 C 1064.63 1731.86 1082 1732.53 1087.17 1734.61 C 1090.62 1733.31 1094.39 1731.18 1097.72 1729.47 L 1098.18 1731.03 C 1060.35 1752.4 1018.12 1758.14 976.995 1742.29 C 967.171 1738.95 944.13 1726.91 937.818 1719 C 930.36 1714.2 919.5 1702.14 914.136 1695 C 907.882 1686.68 902.615 1677.67 898.441 1668.14 L 897.582 1666.27 C 893.729 1657.82 887.979 1641.6 887.431 1632.47 C 887.907 1630.13 888.189 1628.77 888.363 1626.39 C 882.717 1606.82 885.121 1507.7 885.437 1483.81 C 885.586 1456.53 885.441 1429.24 885.002 1401.96 C 895.416 1398.58 905.783 1395.05 916.102 1391.38 z" fill="rgb(203,107,94)" transform="translate(0,0)"></path>
<path d="M 1097.72 1729.47 L 1098.18 1731.03 C 1060.35 1752.4 1018.12 1758.14 976.995 1742.29 C 979.318 1741.29 982.407 1742.9 985.566 1743.83 C 1017.33 1753.17 1057.94 1750.86 1087.17 1734.61 C 1090.62 1733.31 1094.39 1731.18 1097.72 1729.47 z" fill="rgb(101,68,42)" transform="translate(0,0)"></path>
<path d="M 898.441 1668.14 C 900.047 1669.06 907.044 1679.66 907.964 1681.97 C 913.751 1696.45 930.706 1707.88 937.818 1719 C 930.36 1714.2 919.5 1702.14 914.136 1695 C 907.882 1686.68 902.615 1677.67 898.441 1668.14 z" fill="rgb(168,81,73)" transform="translate(0,0)"></path>
<path d="M 888.363 1626.39 C 889.027 1631.63 890.691 1637.05 891.298 1641.99 C 892.352 1650.56 897.429 1658.15 897.582 1666.27 C 893.729 1657.82 887.979 1641.6 887.431 1632.47 C 887.907 1630.13 888.189 1628.77 888.363 1626.39 z" fill="rgb(168,81,73)" transform="translate(0,0)"></path>
<path d="M 1006.67 1374.99 C 1014.61 1373.06 1036.01 1372.92 1044.04 1375.14 C 1045.9 1375.04 1047.3 1375.05 1049.16 1375.06 L 1050.82 1375.05 C 1055.79 1375.69 1059.31 1375.88 1064.3 1376.23 L 1070.11 1377.04 C 1073.56 1377.61 1076.14 1377.95 1079.61 1378.31 C 1083.86 1378.11 1095.59 1380.15 1099.87 1381.33 L 1101.27 1382.26 C 1111.61 1388.17 1093.33 1384.36 1088.18 1392.49 C 1082.46 1395.88 1076.66 1399.22 1071.1 1402.86 C 1069.86 1404.71 1065.39 1408.14 1063.5 1409.48 L 1063.27 1409.9 C 1061.38 1413.33 1061.31 1413.24 1058.24 1415.6 C 1058.03 1416.94 1058.04 1416.92 1057.34 1418.09 C 1056.51 1419.46 1054.46 1423.08 1053.56 1424.12 L 1053.16 1424.96 C 1048.74 1434.03 1046.85 1440.72 1043.07 1449.36 C 1043.19 1455.27 1042.28 1462.28 1042.2 1468.91 L 1042.09 1526.17 L 1042.08 1575.52 C 1042.08 1587.03 1042.76 1600.78 1040.51 1611.86 C 1037.61 1615.6 1034.6 1619.38 1030.03 1621.2 C 1024.97 1620.84 1020.72 1621.5 1015.67 1621.52 C 1011.93 1619.87 1006.16 1614.6 1005.71 1610.32 C 1004.41 1594.05 1004.79 1577.16 1004.96 1560.79 C 1005.26 1532.76 1004.36 1504.25 1005.11 1476.27 L 1004.89 1460.73 C 1003.44 1458.93 1000.42 1441.48 999.129 1437.92 C 995.918 1429.09 990.669 1421.88 985.447 1414.23 C 984.899 1413.52 984.351 1412.8 983.803 1412.09 C 966.933 1395.83 962.219 1395.84 940.925 1388.33 C 941.203 1386.45 941.195 1387.29 941.022 1385.78 C 945.965 1382.21 952.191 1385.16 955.657 1380.54 C 957.648 1379.64 960.944 1379.43 963.274 1379.12 C 969.72 1378.53 975.246 1377.07 981.899 1376.78 L 983.849 1376.42 C 990.032 1375.82 1000.88 1374.79 1006.67 1374.99 z" fill="rgb(168,81,73)" transform="translate(0,0)"></path>
<path d="M 1043.07 1449.36 C 1042.43 1443.7 1049.35 1422.99 1053.56 1424.12 L 1053.16 1424.96 C 1048.74 1434.03 1046.85 1440.72 1043.07 1449.36 z" fill="rgb(101,48,42)" transform="translate(0,0)"></path>
<path d="M 983.849 1376.42 C 990.032 1375.82 1000.88 1374.79 1006.67 1374.99 C 1004.7 1377.52 988.014 1379.06 983.849 1376.42 z" fill="rgb(101,48,42)" transform="translate(0,0)"></path>
<path d="M 981.899 1376.78 C 980.121 1378.75 966.365 1380.94 963.67 1380.9 C 963.317 1380.5 963.34 1379.7 963.274 1379.12 C 969.72 1378.53 975.246 1377.07 981.899 1376.78 z" fill="rgb(101,48,42)" transform="translate(0,0)"></path>
<path d="M 1050.82 1375.05 C 1055.79 1375.69 1059.31 1375.88 1064.3 1376.23 C 1060.24 1378.89 1047.47 1378.69 1050.82 1375.05 z" fill="rgb(101,48,42)" transform="translate(0,0)"></path>
<path d="M 1004.89 1460.73 C 1008.8 1466.87 1006.8 1469.43 1005.11 1476.27 L 1004.89 1460.73 z" fill="rgb(101,48,42)" transform="translate(0,0)"></path>
<path d="M 1063.5 1409.48 C 1064.93 1406.57 1067.39 1402.38 1071.1 1402.86 C 1069.86 1404.71 1065.39 1408.14 1063.5 1409.48 z" fill="rgb(101,48,42)" transform="translate(0,0)"></path>
<path d="M 1070.11 1377.04 C 1073.56 1377.61 1076.14 1377.95 1079.61 1378.31 C 1076.77 1379 1070.9 1380.88 1070.11 1377.04 z" fill="rgb(101,48,42)" transform="translate(0,0)"></path>
<path d="M 1058.24 1415.6 L 1058.73 1414.66 C 1059.71 1412.75 1060.26 1411.69 1062.14 1410.59 L 1063.27 1409.9 C 1061.38 1413.33 1061.31 1413.24 1058.24 1415.6 z" fill="rgb(60,26,25)" transform="translate(0,0)"></path>
<path d="M 1044.04 1375.14 C 1045.9 1375.04 1047.3 1375.05 1049.16 1375.06 C 1046.53 1376.46 1046.21 1377.16 1044.04 1375.14 z" fill="rgb(101,48,42)" transform="translate(0,0)"></path>
<path d="M 1057.34 1418.09 C 1056.19 1416.66 1056.62 1416.46 1058.24 1415.6 C 1058.03 1416.94 1058.04 1416.92 1057.34 1418.09 z" fill="rgb(101,48,42)" transform="translate(0,0)"></path>
<path d="M 983.803 1412.09 C 985.828 1411.86 987.263 1412.2 985.447 1414.23 C 984.899 1413.52 984.351 1412.8 983.803 1412.09 z" fill="rgb(60,26,25)" transform="translate(0,0)"></path>
<path d="M 1099.87 1381.33 C 1104.98 1382.4 1108.9 1383.5 1114.13 1384.19 L 1114.1 1385.99 C 1105.14 1386.73 1096.44 1388.94 1088.18 1392.49 C 1093.33 1384.36 1111.61 1388.17 1101.27 1382.26 L 1099.87 1381.33 z" fill="rgb(60,26,25)" transform="translate(0,0)"></path>
<path d="M 1114.4 1717.4 C 1126.44 1707.88 1130.64 1699.99 1139.68 1691.95 C 1134.51 1702.17 1124.05 1710.52 1116.19 1718.3 L 1114.4 1717.4 z" fill="rgb(101,68,42)" transform="translate(0,0)"></path>
<path d="M 1139.68 1691.95 C 1139.49 1690.36 1145.05 1680.56 1147.55 1680.23 C 1146.9 1682.81 1142.02 1691.07 1139.68 1691.95 z" fill="rgb(168,81,73)" transform="translate(0,0)"></path>
<path d="M 1108.01 1722.53 C 1108.8 1721.25 1113.16 1718.02 1114.4 1717.4 L 1116.19 1718.3 C 1114.12 1720.16 1111.37 1722.28 1109.16 1724.01 L 1108.01 1722.53 z" fill="rgb(203,107,94)" transform="translate(0,0)"></path>
<path d="M 1015.67 1621.52 C 1020.72 1621.5 1024.97 1620.84 1030.03 1621.2 C 1023.45 1623.48 1022.33 1623.94 1015.67 1621.52 z" fill="rgb(101,48,42)" transform="translate(0,0)"></path>
<path d="M 1102.22 1726.64 L 1102.6 1728.38 C 1100.63 1729.74 1100.32 1730.02 1098.18 1731.03 L 1097.72 1729.47 C 1099.16 1727.87 1100.17 1727.52 1102.22 1726.64 z" fill="rgb(203,107,94)" transform="translate(0,0)"></path>
<path d="M 1108.01 1722.53 L 1109.16 1724.01 C 1106.95 1725.42 1104.76 1726.88 1102.6 1728.38 L 1102.22 1726.64 C 1104.65 1725.12 1105.77 1724.37 1108.01 1722.53 z" fill="rgb(97,81,70)" transform="translate(0,0)"></path>
<path d="M 819.801 569.485 C 830.769 583.844 856.23 603.823 871.519 613.612 C 972.591 678.331 1110.8 705.283 1228.02 720.978 C 1280.49 728.061 1333.36 731.775 1386.3 732.099 C 1395.45 732.102 1436.87 730.01 1441.8 732.727 C 1449.81 730.977 1449.61 730.313 1457.09 731.681 C 1480.79 740.81 1515.71 787.581 1529.39 809.963 C 1551.39 845.962 1562.35 885.141 1610.46 891.684 C 1606.23 905.245 1602.28 917.401 1597.24 930.665 C 1595.12 936.228 1589.02 950.755 1587.77 955.757 L 1587.01 957.188 C 1564.3 943.918 1552.91 937.664 1527.03 932.417 C 1515.59 860.646 1495.54 812.711 1447.81 757.432 L 1427.91 737.823 C 1283.66 761.922 1119.84 748.353 979.017 712.907 C 903.346 693.861 828.922 668.42 761.502 628.455 C 755.705 625.018 738.088 614.052 734.958 608.816 C 734.38 606.615 734.047 606.174 732.955 604.043 C 751.23 594.206 799.664 574.7 819.801 569.485 z" fill="rgb(77,51,32)" transform="translate(0,0)"></path>
<path d="M 1441.8 732.727 C 1449.81 730.977 1449.61 730.313 1457.09 731.681 C 1454.42 732.973 1431.01 736.74 1429.82 736.2 C 1429.65 735.865 1429.68 736.021 1429.69 735.731 C 1430.39 735.117 1439.87 733.32 1441.8 732.727 z" fill="rgb(43,28,21)" transform="translate(0,0)"></path>
<path d="M 798.745 1390.58 C 844.094 1338.68 933.807 1296.27 1002.82 1292.59 C 1055.81 1289.21 1113.95 1299.07 1161.68 1322.8 C 1174.8 1329.32 1207.26 1349.55 1217.65 1358.49 L 1219.2 1357.65 L 1219.48 1359.86 L 1221.69 1361.44 C 1222.44 1361.83 1222.47 1361.87 1223.11 1362.43 C 1232.9 1370.01 1242.77 1378.42 1250.68 1388.03 C 1251.04 1388.68 1251.06 1388.69 1251.58 1389.23 C 1261.45 1401.64 1263.97 1409.04 1264.28 1424.75 C 1254.07 1425.01 1243.98 1424.94 1233.83 1425.15 L 1232.48 1424.72 L 1231 1424.54 C 1210.32 1414.1 1137.08 1387.58 1114.13 1384.19 C 1108.9 1383.5 1104.98 1382.4 1099.87 1381.33 C 1095.59 1380.15 1083.86 1378.11 1079.61 1378.31 C 1076.14 1377.95 1073.56 1377.61 1070.11 1377.04 L 1064.3 1376.23 C 1059.31 1375.88 1055.79 1375.69 1050.82 1375.05 L 1049.16 1375.06 C 1047.3 1375.05 1045.9 1375.04 1044.04 1375.14 C 1036.01 1372.92 1014.61 1373.06 1006.67 1374.99 C 1000.88 1374.79 990.032 1375.82 983.849 1376.42 L 981.899 1376.78 C 975.246 1377.07 969.72 1378.53 963.274 1379.12 C 960.944 1379.43 957.648 1379.64 955.657 1380.54 C 930.627 1384.27 859.357 1406.1 839.018 1420.44 C 837.959 1420.72 836.962 1421 835.912 1421.3 C 832.675 1422.15 830.323 1423.98 826.978 1424.66 C 814.048 1427.3 799.826 1425.54 786.848 1423.88 C 787.11 1407.4 791.863 1404.32 798.072 1391.94 L 798.745 1390.58 z" fill="rgb(203,107,94)" transform="translate(0,0)"></path>
<path d="M 732.955 604.043 C 734.047 606.174 734.38 606.615 734.958 608.816 C 738.088 614.052 755.705 625.018 761.502 628.455 C 828.922 668.42 903.346 693.861 979.017 712.907 C 1119.84 748.353 1283.66 761.922 1427.91 737.823 L 1447.81 757.432 C 1257.7 792.636 1013.97 767.628 832.153 698.687 C 805.979 688.762 777.021 672.91 752.659 658.821 C 741.496 652.366 727.707 640.446 716.169 636.029 C 698.567 646.677 681.096 661.223 666.116 675.334 C 605.348 733.499 562.526 807.866 542.726 889.622 C 539.783 901.778 537.014 913.976 534.421 926.212 C 527.297 929.555 524.291 930.645 516.73 932.889 C 527.189 843.668 556.057 768.521 611.283 697.9 L 618.962 689.172 C 620.152 688.282 623.885 683.571 625.068 682.142 C 627.629 680.543 632.782 674.73 634.647 672.249 C 635.639 671.869 635.623 671.954 636.175 671.116 C 640.559 668.234 654.974 655.186 659.29 651.224 C 660.347 650.55 660.502 650.418 661.511 649.587 C 666.883 646.028 671.449 642.491 676.549 638.569 L 677.462 637.957 C 679.196 636.815 681.766 635.276 683.188 633.837 C 689.492 630.401 723.143 611.431 725.922 608.583 C 727.138 606.218 730.52 605.595 732.955 604.043 z" fill="rgb(191,146,115)" transform="translate(0,0)"></path>
<path d="M 732.955 604.043 C 734.047 606.174 734.38 606.615 734.958 608.816 C 731.786 607.942 731.011 607.776 727.772 608.309 L 725.922 608.583 C 727.138 606.218 730.52 605.595 732.955 604.043 z" fill="rgb(43,28,21)" transform="translate(0,0)"></path>
<path d="M 471.31 1212.45 L 473.422 1211.33 C 484.61 1217.99 500.582 1225.06 513.565 1226.95 C 547.519 1226.8 553.722 1262.39 565.211 1287.08 C 570.917 1299.16 576.954 1311.09 583.315 1322.84 C 637.718 1423.44 707.488 1498.14 811.72 1548.55 C 831.645 1558.19 861.649 1570.87 883.143 1575.68 C 883.385 1590.34 884.034 1604.99 885.089 1619.62 L 873.397 1616.43 L 872.888 1617.93 C 854.163 1613.08 839.54 1607.88 821.68 1600.64 C 818.533 1599.75 814.913 1597.99 811.851 1596.67 C 806.034 1594.27 801.508 1592.46 795.902 1589.52 L 793.969 1588.74 C 785.665 1584.89 770.795 1577.78 763.368 1572.76 L 762.888 1572.3 C 755.13 1569.17 729.989 1552.47 722.668 1547.32 C 653.627 1498.57 597.612 1433.61 559.544 1358.15 C 558.398 1356.49 557.416 1354.13 556.526 1352.26 C 533.494 1307 524.404 1277.24 512.127 1229.11 C 495.658 1224.43 486.203 1220.45 471.31 1212.45 z" fill="rgb(191,146,115)" transform="translate(0,0)"></path>
<path d="M 559.544 1358.15 C 562.317 1359.68 593.449 1414.42 601.487 1423.93 C 601.8 1424.69 601.826 1424.63 602.472 1425.2 C 608.2 1433.99 614.537 1442.35 621.435 1450.25 C 621.856 1450.92 621.666 1450.68 622.334 1451.34 C 641.288 1473.88 656.894 1490.58 678.925 1509.94 C 679.612 1510.8 679.432 1510.6 680.41 1511.21 L 687.933 1517.93 C 688.595 1518.76 688.396 1518.57 689.323 1519.13 C 704.671 1533.22 725.147 1546.63 742.464 1558.37 C 746.986 1561.44 761.082 1569.13 762.888 1572.3 C 755.13 1569.17 729.989 1552.47 722.668 1547.32 C 653.627 1498.57 597.612 1433.61 559.544 1358.15 z" fill="rgb(77,51,32)" transform="translate(0,0)"></path>
<path d="M 471.31 1212.45 L 473.422 1211.33 C 484.61 1217.99 500.582 1225.06 513.565 1226.95 C 522.753 1262.34 530.584 1294.85 547.012 1327.9 C 549.016 1331.93 556.993 1348.43 556.526 1352.26 C 533.494 1307 524.404 1277.24 512.127 1229.11 C 495.658 1224.43 486.203 1220.45 471.31 1212.45 z" fill="rgb(118,96,79)" transform="translate(0,0)"></path>
<path d="M 821.68 1600.64 C 828.2 1600.35 831.572 1601.9 837.28 1605.02 C 846.155 1609.86 865.723 1612.35 873.397 1616.43 L 872.888 1617.93 C 854.163 1613.08 839.54 1607.88 821.68 1600.64 z" fill="rgb(118,96,79)" transform="translate(0,0)"></path>
<path d="M 763.368 1572.76 C 767.445 1572.43 782.485 1580.14 786.215 1583.07 C 790.975 1586.8 792.87 1582.8 793.969 1588.74 C 785.665 1584.89 770.795 1577.78 763.368 1572.76 z" fill="rgb(118,96,79)" transform="translate(0,0)"></path>
<path d="M 795.902 1589.52 C 801.046 1589.26 809.294 1591.83 811.851 1596.67 C 806.034 1594.27 801.508 1592.46 795.902 1589.52 z" fill="rgb(118,96,79)" transform="translate(0,0)"></path>
<path d="M 1219.2 1357.65 C 1246.71 1374.59 1281.6 1411.78 1259.98 1445.33 C 1239.84 1476.6 1201.49 1471.1 1170.51 1471.11 C 1170.32 1506.77 1170.67 1546.24 1169.74 1581.62 C 1169.87 1593.75 1169.07 1603.58 1168.89 1615.3 C 1191.64 1608.1 1213.5 1597.52 1235.14 1587.59 C 1236.21 1587.1 1238.15 1587.47 1239.3 1587.55 C 1213.6 1600.09 1194.8 1607.51 1168.37 1617.93 C 1166.62 1629.24 1165.12 1639.31 1161.48 1650.29 C 1161.05 1647.51 1165.35 1627.07 1166.02 1621.58 C 1169.56 1592.52 1168.45 1564.14 1168.5 1534.86 L 1168.8 1402.13 C 1151.43 1395.88 1132.13 1389.85 1114.1 1385.99 L 1114.13 1384.19 C 1137.08 1387.58 1210.32 1414.1 1231 1424.54 L 1232.48 1424.72 L 1233.83 1425.15 C 1243.98 1424.94 1254.07 1425.01 1264.28 1424.75 C 1263.97 1409.04 1261.45 1401.64 1251.58 1389.23 C 1251.06 1388.69 1251.04 1388.68 1250.68 1388.03 C 1242.77 1378.42 1232.9 1370.01 1223.11 1362.43 C 1222.47 1361.87 1222.44 1361.83 1221.69 1361.44 L 1219.48 1359.86 L 1219.2 1357.65 z" fill="rgb(168,81,73)" transform="translate(0,0)"></path>
<path d="M 1219.2 1357.65 C 1246.71 1374.59 1281.6 1411.78 1259.98 1445.33 C 1239.84 1476.6 1201.49 1471.1 1170.51 1471.11 C 1170.32 1506.77 1170.67 1546.24 1169.74 1581.62 C 1169.87 1593.75 1169.07 1603.58 1168.89 1615.3 C 1191.64 1608.1 1213.5 1597.52 1235.14 1587.59 C 1236.21 1587.1 1238.15 1587.47 1239.3 1587.55 C 1213.6 1600.09 1194.8 1607.51 1168.37 1617.93 C 1166.62 1629.24 1165.12 1639.31 1161.48 1650.29 C 1161.05 1647.51 1165.35 1627.07 1166.02 1621.58 C 1169.56 1592.52 1168.45 1564.14 1168.5 1534.86 L 1168.8 1402.13 C 1151.43 1395.88 1132.13 1389.85 1114.1 1385.99 L 1114.13 1384.19 C 1137.08 1387.58 1210.32 1414.1 1231 1424.54 C 1224.97 1425.18 1192.64 1411.24 1184.83 1408.2 C 1180.32 1406.49 1175.78 1404.85 1171.22 1403.28 C 1170.91 1424.94 1171.44 1447.54 1170.91 1468.86 C 1186.47 1468.91 1202.32 1469.27 1217.73 1469.59 C 1216.58 1469.56 1232.19 1464.68 1232.03 1464.77 C 1252.15 1453.53 1261.15 1447.33 1264.28 1424.75 C 1263.97 1409.04 1261.45 1401.64 1251.58 1389.23 C 1251.06 1388.69 1251.04 1388.68 1250.68 1388.03 C 1242.77 1378.42 1232.9 1370.01 1223.11 1362.43 C 1222.47 1361.87 1222.44 1361.83 1221.69 1361.44 L 1219.48 1359.86 L 1219.2 1357.65 z" fill="rgb(125,65,58)" transform="translate(0,0)"></path>
<path d="M 1232.48 1424.72 L 1233.83 1425.15 C 1233.63 1426.32 1233.65 1426.78 1232.43 1426.87 C 1231.42 1426.2 1231.91 1425.73 1232.48 1424.72 z" fill="rgb(125,65,58)" transform="translate(0,0)"></path>
<path d="M 839.018 1420.44 C 850.175 1418.35 870.996 1407.66 882.81 1403.13 L 883.259 1470.11 C 854.721 1469.76 807.447 1475.89 791.442 1440.27 C 791.512 1440.43 787.376 1435.73 787.996 1433.93 C 787.161 1430.01 786.116 1429 786.848 1423.88 C 799.826 1425.54 814.048 1427.3 826.978 1424.66 C 830.323 1423.98 832.675 1422.15 835.912 1421.3 C 836.962 1421 837.959 1420.72 839.018 1420.44 z" fill="rgb(168,81,73)" transform="translate(0,0)"></path>
<path d="M 839.018 1420.44 C 838.435 1422.33 836.914 1424.14 835.912 1421.3 C 836.962 1421 837.959 1420.72 839.018 1420.44 z" fill="rgb(101,48,42)" transform="translate(0,0)"></path>
<path d="M 1169.74 1581.62 C 1216.21 1574.38 1275.27 1545.17 1316.46 1523.43 C 1327.11 1517.8 1367.88 1490.2 1374.03 1489.5 C 1369.49 1494.77 1364.28 1499.14 1359.09 1503.77 C 1358.74 1504.34 1358.65 1504.29 1357.98 1504.68 C 1345.2 1516.67 1325.72 1531.85 1311.15 1541.78 C 1310.64 1542.38 1310.71 1542.24 1310.01 1542.64 C 1305.77 1545.88 1285.33 1559.16 1284.25 1561.47 C 1280.21 1565.02 1256.04 1580.11 1251.29 1581.49 C 1249.22 1582.63 1247.13 1583.74 1245.01 1584.79 C 1243.74 1585.43 1240.47 1587.19 1239.3 1587.55 C 1238.15 1587.47 1236.21 1587.1 1235.14 1587.59 C 1213.5 1597.52 1191.64 1608.1 1168.89 1615.3 C 1169.07 1603.58 1169.87 1593.75 1169.74 1581.62 z" fill="rgb(191,146,115)" transform="translate(0,0)"></path>
<path d="M 1245.01 1584.79 C 1245.87 1581.65 1246.29 1581.01 1249.66 1581.35 L 1251.29 1581.49 C 1249.22 1582.63 1247.13 1583.74 1245.01 1584.79 z" fill="rgb(118,96,79)" transform="translate(0,0)"></path>
<path d="M 955.657 1380.54 C 952.191 1385.16 945.965 1382.21 941.022 1385.78 C 941.195 1387.29 941.203 1386.45 940.925 1388.33 C 929.729 1386.61 926.587 1389.08 916.102 1391.38 C 905.783 1395.05 895.416 1398.58 885.002 1401.96 C 885.441 1429.24 885.586 1456.53 885.437 1483.81 C 885.121 1507.7 882.717 1606.82 888.363 1626.39 C 888.189 1628.77 887.907 1630.13 887.431 1632.47 L 885.749 1621.6 L 872.888 1617.93 L 873.397 1616.43 L 885.089 1619.62 C 884.034 1604.99 883.385 1590.34 883.143 1575.68 C 883.899 1541.62 883.841 1506.12 884.027 1472.01 C 860.916 1472.11 831.481 1475.16 811.107 1463.3 C 780.657 1445.58 779.136 1418.49 796.639 1390.77 L 798.745 1390.58 L 798.072 1391.94 C 791.863 1404.32 787.11 1407.4 786.848 1423.88 C 786.116 1429 787.161 1430.01 787.996 1433.93 C 787.376 1435.73 791.512 1440.43 791.442 1440.27 C 807.447 1475.89 854.721 1469.76 883.259 1470.11 L 882.81 1403.13 C 870.996 1407.66 850.175 1418.35 839.018 1420.44 C 859.357 1406.1 930.627 1384.27 955.657 1380.54 z" fill="rgb(101,48,42)" transform="translate(0,0)"></path>
<path d="M 1526.52 1229 C 1539.28 1225.89 1548.42 1223.37 1560.34 1217.69 C 1565.77 1215.11 1576.01 1208.47 1580.79 1208.24 C 1570.31 1218.48 1542.39 1226.56 1528.49 1230.4 C 1506.11 1356.31 1406.93 1478.85 1303.82 1549.49 C 1300.35 1551.86 1287.54 1560.42 1284.25 1561.47 C 1285.33 1559.16 1305.77 1545.88 1310.01 1542.64 C 1310.71 1542.24 1310.64 1542.38 1311.15 1541.78 C 1325.72 1531.85 1345.2 1516.67 1357.98 1504.68 C 1358.65 1504.29 1358.74 1504.34 1359.09 1503.77 C 1364.28 1499.14 1369.49 1494.77 1374.03 1489.5 C 1430.15 1438.46 1474.51 1375.84 1504.04 1305.96 C 1513.54 1283.56 1523.71 1253.02 1526.52 1229 z" fill="rgb(97,81,70)" transform="translate(0,0)"></path>
<path d="M 796.639 1390.77 C 798.829 1387.83 801.178 1385.01 803.674 1382.33 C 835.404 1347.78 899.559 1314.22 944.011 1301.43 C 967.282 1294.72 991.296 1290.92 1015.5 1290.12 C 1060.18 1288.53 1115.16 1299.08 1155.46 1318.13 C 1170.34 1325.16 1207.59 1346.85 1219.2 1357.65 L 1217.65 1358.49 C 1207.26 1349.55 1174.8 1329.32 1161.68 1322.8 C 1113.95 1299.07 1055.81 1289.21 1002.82 1292.59 C 933.807 1296.27 844.094 1338.68 798.745 1390.58 L 796.639 1390.77 z" fill="rgb(125,65,58)" transform="translate(0,0)"></path>
<path d="M 423.448 991.745 C 424.502 991.244 425.544 990.799 426.612 990.332 C 400.536 1027.62 392.246 1059.62 399.305 1105.45 C 404.648 1140.16 430.108 1186.18 461.23 1203.8 L 460.597 1205.6 C 459.42 1204.83 458.269 1204.02 457.146 1203.17 C 423.897 1178.32 402.042 1141.14 396.502 1100 C 390.888 1061.16 399.947 1023.21 423.448 991.745 z" fill="rgb(118,96,79)" transform="translate(0,0)"></path>
<path d="M 1625.38 994.951 C 1673.03 1063.15 1654.62 1156.68 1587.5 1204.47 C 1585.17 1206.14 1583.47 1207.21 1580.79 1208.24 C 1582.53 1204.74 1587.62 1201.9 1590.95 1199.63 C 1591.6 1199.21 1591.63 1199.28 1592.13 1198.69 C 1622.65 1175.16 1642.86 1140.71 1648.51 1102.59 C 1653.78 1065.98 1646.54 1026.22 1623.98 996.35 L 1625.38 994.951 z" fill="rgb(118,96,79)" transform="translate(0,0)"></path>
<path d="M 460.153 956.413 L 461.075 957.105 L 459.634 958.291 C 449.727 966.318 433.272 979.216 426.612 990.332 C 425.544 990.799 424.502 991.244 423.448 991.745 C 431.632 980.108 447.818 963.553 460.153 956.413 z" fill="rgb(118,96,79)" transform="translate(0,0)"></path>
<path d="M 1591.95 959.526 C 1600.24 964.591 1611.33 976.939 1617.69 984.391 L 1615.64 985.322 C 1614.27 982.919 1614.32 982.905 1612.44 981.005 C 1611.75 979.742 1611.87 979.803 1610.72 978.95 C 1607.33 974.89 1598.33 966.094 1593.91 963.233 L 1591.95 959.526 z" fill="rgb(97,81,70)" transform="translate(0,0)"></path>
<path d="M 461.23 1203.8 L 462.513 1204.72 C 464.477 1206.13 472.974 1210.68 473.422 1211.33 L 471.31 1212.45 C 466.951 1209.98 464.574 1208.77 460.597 1205.6 L 461.23 1203.8 z" fill="rgb(191,146,115)" transform="translate(0,0)"></path>
<path d="M 1617.69 984.391 C 1619.19 985.87 1620.36 987.732 1621.7 989.451 L 1620.99 992.065 C 1619.22 990.233 1617.58 987.513 1615.64 985.322 L 1617.69 984.391 z" fill="rgb(166,125,98)" transform="translate(0,0)"></path>
<path d="M 1620.99 992.065 L 1621.7 989.451 C 1622.93 991.316 1624.18 993.069 1625.38 994.951 L 1623.98 996.35 C 1622.84 993.961 1622.92 993.782 1620.99 992.065 z" fill="rgb(97,81,70)" transform="translate(0,0)"></path>
<path d="M 1587.77 955.757 C 1589.9 957.414 1590.19 957.588 1591.95 959.526 L 1590 960.066 C 1588.67 958.672 1588.41 958.356 1587.01 957.188 L 1587.77 955.757 z" fill="rgb(97,81,70)" transform="translate(0,0)"></path>
<path d="M 1590 960.066 L 1591.95 959.526 L 1593.91 963.233 C 1592.04 961.907 1591.65 961.647 1590 960.066 z" fill="rgb(191,146,115)" transform="translate(0,0)"></path>
<path d="M 1147.53 815.174 C 1154.52 814.727 1162.65 815.711 1168.56 819.81 C 1193.18 836.902 1160.34 872.653 1164.81 893.036 C 1165.35 895.498 1166.67 897.719 1168.98 898.902 C 1183.51 906.33 1267.92 865.774 1284.43 859.243 C 1324.18 843.524 1368.44 831.146 1409.6 849.309 C 1418.55 853.26 1427.03 859.086 1430.47 868.666 C 1432.8 875.288 1432.38 882.566 1429.31 888.876 C 1425.04 897.678 1419.24 901.152 1410.45 904.186 C 1392.71 904.622 1384.44 893.157 1364.37 892.995 C 1301.14 892.484 1205.16 975.375 1146.19 947.585 C 1131.77 940.869 1120.66 928.607 1115.41 913.585 C 1106.14 886.806 1116.26 858.207 1127.24 833.32 C 1131.72 823.161 1137.38 818.473 1147.53 815.174 z" fill="rgb(77,51,32)" transform="translate(0,0)"></path>
<path d="M 894.112 815.129 C 912.585 813.042 918.306 820.006 926.09 835.119 C 945.111 868.701 951.994 926.675 909.105 947.239 C 850.34 971.749 781.925 915.263 725.921 900.288 C 693.562 891.636 685.613 888.234 656.165 903.575 C 650.998 904.775 648.693 905.377 643.555 903.927 C 636.108 901.782 629.884 896.644 626.366 889.739 C 617.509 872.298 629.786 855.505 645.905 848.692 C 713.634 820.064 781.947 870.956 844.621 891.422 C 854.007 894.487 874.645 903.492 884.766 898.826 C 901.049 887.549 868.075 849.96 876.622 831.912 C 881.376 821.875 883.336 820.26 892.817 815.736 L 894.112 815.129 z" fill="rgb(77,51,32)" transform="translate(0,0)"></path>
<path d="M 971.831 1024.26 L 977.981 1026.15 C 980.734 1027.01 981.54 1027.73 983.697 1029.46 C 987.687 1030.66 990.555 1034.46 992.229 1038.12 C 994.972 1040.88 996.237 1046.05 997.431 1049.93 C 989.745 1089.68 976.288 1129.03 969.071 1168.89 C 968.501 1172.04 971.262 1175.79 973.108 1178.1 C 991.446 1183.12 1071.45 1176.66 1080.25 1181.39 C 1092.11 1180.11 1087.53 1175.62 1098.02 1170.7 L 1098.26 1170.37 L 1099.65 1169.58 C 1107.49 1164.88 1117.89 1166.87 1124.63 1172.59 C 1136.76 1176.02 1139.17 1199.69 1132.56 1210.02 C 1132.4 1211.53 1132.09 1211.67 1131.14 1213.17 L 1130.6 1214.27 L 1129.23 1216.31 C 1126.37 1220.79 1125.54 1221.35 1121.32 1224.67 C 1120.89 1224.95 1120.46 1225.23 1120.03 1225.51 C 1109.9 1233.9 1103.49 1235.74 1090.66 1235.89 C 1071.26 1236.15 1051.22 1236.06 1031.89 1236.02 C 1014.73 1235.98 973.128 1238.01 959.827 1225.58 C 938.975 1217.38 918.086 1199.35 918.076 1175.59 C 918.068 1157.52 925.442 1133.89 929.907 1116.25 C 935.64 1093.48 941.522 1070.75 947.552 1048.06 C 950.315 1037.99 950.377 1034.64 959.65 1029.34 L 960.919 1028.38 L 962.454 1027.62 C 965.42 1026.07 968.624 1025.18 971.831 1024.26 z" fill="rgb(166,125,98)" transform="translate(0,0)"></path>
<path d="M 959.827 1225.58 C 938.975 1217.38 918.086 1199.35 918.076 1175.59 C 918.068 1157.52 925.442 1133.89 929.907 1116.25 C 935.64 1093.48 941.522 1070.75 947.552 1048.06 C 950.315 1037.99 950.377 1034.64 959.65 1029.34 C 948.228 1043.28 948.837 1048.88 944.497 1066.81 C 937.191 1096.98 926.288 1129.75 921.36 1160.2 C 920.257 1166.66 920.022 1173.23 920.663 1179.75 C 922.077 1193.89 927.548 1201.29 938.056 1210.58 C 942.708 1214.69 957.803 1223.12 959.827 1225.58 z" fill="rgb(77,51,32)" transform="translate(0,0)"></path>
<path d="M 992.229 1038.12 C 994.972 1040.88 996.237 1046.05 997.431 1049.93 C 989.745 1089.68 976.288 1129.03 969.071 1168.89 C 968.501 1172.04 971.262 1175.79 973.108 1178.1 L 971.897 1178.22 C 962.453 1169.98 971.978 1148.84 974.123 1137.89 C 979.421 1110.85 991.194 1081 994.459 1053.79 C 994.309 1051.13 994.472 1049.6 994.68 1046.94 C 993.229 1043.22 993.008 1042.07 992.229 1038.12 z" fill="rgb(77,51,32)" transform="translate(0,0)"></path>
<path d="M 994.68 1046.94 C 994.955 1049.58 995.361 1051.33 994.459 1053.79 C 994.309 1051.13 994.472 1049.6 994.68 1046.94 z" fill="rgb(118,96,79)" transform="translate(0,0)"></path>
<path d="M 1124.63 1172.59 C 1136.76 1176.02 1139.17 1199.69 1132.56 1210.02 C 1134.96 1198.47 1137.24 1190.21 1130.1 1179.06 C 1128.45 1176.47 1125.79 1175.56 1124.63 1172.59 z" fill="rgb(77,51,32)" transform="translate(0,0)"></path>
<path d="M 1080.25 1181.39 C 1092.11 1180.11 1087.53 1175.62 1098.02 1170.7 C 1096.22 1174.27 1082.07 1189.31 1080.25 1181.39 z" fill="rgb(101,68,42)" transform="translate(0,0)"></path>
<path d="M 1098.26 1170.37 L 1099.65 1169.58 C 1107.49 1164.88 1117.89 1166.87 1124.63 1172.59 C 1117.17 1170.62 1112.01 1167.25 1103.76 1169.52 C 1101.04 1170.26 1101.02 1170.47 1098.26 1170.37 z" fill="rgb(77,51,32)" transform="translate(0,0)"></path>
<path d="M 971.831 1024.26 L 977.981 1026.15 C 980.734 1027.01 981.54 1027.73 983.697 1029.46 C 977.575 1028.14 972.861 1025.81 966.384 1027.6 C 963.636 1028.36 963.694 1028.43 960.919 1028.38 L 962.454 1027.62 C 965.42 1026.07 968.624 1025.18 971.831 1024.26 z" fill="rgb(77,51,32)" transform="translate(0,0)"></path>
<path d="M 983.697 1029.46 C 987.687 1030.66 990.555 1034.46 992.229 1038.12 C 989.884 1036.69 984.553 1031.86 983.697 1029.46 z" fill="rgb(43,28,21)" transform="translate(0,0)"></path>
<path d="M 1131.14 1213.17 C 1130.79 1211.2 1130.7 1210.93 1132.56 1210.02 C 1132.4 1211.53 1132.09 1211.67 1131.14 1213.17 z" fill="rgb(101,68,42)" transform="translate(0,0)"></path>
<path d="M 1129.23 1216.31 C 1128.65 1216.21 1128.3 1216.27 1127.9 1215.95 C 1127.79 1215.68 1127.8 1215.83 1127.9 1215.51 C 1128.73 1214.71 1129.51 1214.59 1130.6 1214.27 L 1129.23 1216.31 z" fill="rgb(77,51,32)" transform="translate(0,0)"></path>
<path d="M 1120.03 1225.51 C 1120.04 1225.23 1120.19 1224 1120.21 1223.84 C 1120.68 1223.9 1120.95 1224.33 1121.32 1224.67 C 1120.89 1224.95 1120.46 1225.23 1120.03 1225.51 z" fill="rgb(77,51,32)" transform="translate(0,0)"></path>
<path d="M 1165.06 1076.86 C 1151.54 1081.47 1139.2 1078.34 1130.55 1066.38 C 1115.92 1046.15 1134.9 1027.75 1150.85 1016.68 C 1194.9 986.095 1248.95 971.519 1302.02 982.801 C 1329.93 988.475 1415.93 1018.44 1406.07 1057.06 C 1404.14 1064.65 1399.27 1071.16 1392.54 1075.15 C 1372.1 1087.09 1354.69 1065.05 1338.23 1055.6 C 1302.71 1035.21 1239.73 1028.85 1203.59 1051.31 C 1201.68 1052.87 1196.29 1055.12 1194.01 1056.02 C 1187.65 1059.07 1174.59 1069.27 1169.24 1074.27 C 1167.48 1075.52 1166.98 1075.8 1165.06 1076.86 z" fill="rgb(255,255,255)" transform="translate(0,0)"></path>
<path d="M 1165.06 1076.86 C 1151.54 1081.47 1139.2 1078.34 1130.55 1066.38 C 1115.92 1046.15 1134.9 1027.75 1150.85 1016.68 C 1194.9 986.095 1248.95 971.519 1302.02 982.801 C 1329.93 988.475 1415.93 1018.44 1406.07 1057.06 C 1404.14 1064.65 1399.27 1071.16 1392.54 1075.15 C 1372.1 1087.09 1354.69 1065.05 1338.23 1055.6 C 1302.71 1035.21 1239.73 1028.85 1203.59 1051.31 L 1200.06 1050.83 C 1247.06 1027.69 1298.19 1030.75 1343.8 1056.95 C 1358.46 1065.37 1371.41 1084.17 1390.84 1074.21 C 1397.06 1071.01 1401.7 1065.4 1403.67 1058.69 C 1412.45 1028.91 1368.41 1009.21 1347.51 999.334 C 1285.47 969.995 1213.71 976.705 1156.87 1014.64 C 1145.33 1022.32 1131.45 1030.95 1128.23 1045.72 C 1124.77 1067.18 1144.13 1082.09 1164.08 1075.21 L 1165.06 1076.86 z" fill="rgb(118,96,79)" transform="translate(0,0)"></path>
<path d="M 1194.96 1053.37 L 1194.01 1056.02 C 1187.65 1059.07 1174.59 1069.27 1169.24 1074.27 L 1167.29 1073.31 C 1178.28 1065.54 1182.56 1061.05 1194.96 1053.37 z" fill="rgb(97,81,70)" transform="translate(0,0)"></path>
<path d="M 1194.96 1053.37 C 1197.09 1052.15 1197.75 1051.7 1200.06 1050.83 L 1203.59 1051.31 C 1201.68 1052.87 1196.29 1055.12 1194.01 1056.02 L 1194.96 1053.37 z" fill="rgb(191,146,115)" transform="translate(0,0)"></path>
<path d="M 1167.29 1073.31 L 1169.24 1074.27 C 1167.48 1075.52 1166.98 1075.8 1165.06 1076.86 L 1164.08 1075.21 C 1165.33 1074.39 1165.88 1074.1 1167.29 1073.31 z" fill="rgb(166,125,98)" transform="translate(0,0)"></path>
<path d="M 866.675 1062.51 C 840.083 1042.15 797.926 1033.62 765.147 1038.11 C 743.572 1041.34 721.353 1048.75 703.522 1061.55 C 695.783 1066.8 687.75 1075.45 678.799 1078.26 C 663.265 1083.14 647.306 1070.34 644.937 1055 C 641.853 1035.04 658.519 1023.79 673.01 1014.06 C 701.34 995.043 733.234 983.253 767.262 980.095 C 817.775 974.843 868.723 992.468 908.973 1022.73 C 917.297 1029.14 923.673 1037.77 924.636 1048.44 C 925.311 1055.92 923.286 1063.37 918.114 1068.86 C 904.599 1083.24 891.133 1081.53 876.967 1070.32 C 876.257 1069.93 876.43 1070.06 875.889 1069.39 L 872.081 1066.3 C 871.178 1065.89 871.055 1065.95 870.462 1065.2 L 869.133 1064.46 C 868.304 1063.87 867.309 1063.27 866.675 1062.51 z" fill="rgb(118,96,79)" transform="translate(0,0)"></path>
<path d="M 694.733 1003.36 C 764.307 967.696 840.954 976.009 903.978 1021 C 917.787 1030.86 927.12 1043.41 920.883 1061.09 C 915.967 1074.48 900.492 1080.8 887.414 1075.16 C 880.859 1072.33 874.641 1065 868.223 1061.63 C 845.971 1042.77 801.616 1032.86 773.013 1035.34 C 750.11 1037.32 723.753 1045.51 704.886 1058.87 C 689.892 1069.49 674.506 1086.7 655.664 1070.99 C 650.158 1066.47 646.693 1059.93 646.044 1052.84 C 644.09 1030.3 677.734 1012.08 694.733 1003.36 z" fill="rgb(255,255,255)" transform="translate(0,0)"></path>
<path d="M 1482.39 1563.61 C 1482.59 1561.76 1482.91 1559.93 1483.34 1558.12 C 1490 1529.4 1504.53 1520.24 1525.46 1502.49 C 1543.22 1487.18 1561.07 1471.97 1579.01 1456.88 L 1626.31 1416.1 C 1633.2 1410.15 1641.6 1402.46 1649.1 1397.32 C 1652.62 1394.91 1656.26 1396.04 1659.98 1397.21 C 1662.84 1400.32 1664.63 1402.34 1664.83 1406.93 C 1665.15 1414.32 1648.7 1430.79 1643.16 1435.01 C 1642.7 1435.49 1642.23 1435.97 1641.77 1436.45 C 1639.17 1440.63 1610.37 1472.51 1606.12 1475.89 L 1605.51 1476.57 C 1603.47 1479.97 1588.67 1496.65 1585.98 1498.14 C 1577.19 1508.93 1566.39 1519.44 1556.37 1529.18 C 1554.67 1536.91 1555.83 1536.11 1555.39 1542.98 C 1559.51 1546.73 1560.61 1548 1565.64 1550.23 C 1580.86 1548.65 1582.42 1542.18 1593.47 1531.98 C 1602.37 1523.82 1611.47 1515.89 1620.77 1508.2 C 1627.88 1501.8 1635.1 1495.52 1642.43 1489.36 C 1644.99 1486.73 1651.95 1480.72 1654.71 1478.44 L 1658.86 1475.06 C 1660.2 1472.81 1670.33 1464.27 1672.7 1462.29 C 1681.12 1454.21 1690.99 1442.09 1702.19 1441.95 C 1706.33 1444.14 1707.2 1444.58 1709.3 1449.04 C 1710.39 1452.75 1711.15 1455.72 1708.64 1459.13 C 1705.01 1464.23 1689.07 1481.15 1684.11 1484.96 L 1683.62 1485.7 C 1680.82 1489.91 1663.78 1508.4 1659.45 1511.44 L 1659.23 1511.88 C 1657.86 1514.56 1655.7 1517.71 1652.99 1519.13 C 1650.54 1522.36 1645.41 1529.43 1642.07 1531.2 C 1640.35 1533.87 1637.76 1538.12 1634.64 1538.89 C 1632.67 1542.21 1627.24 1549.74 1623.82 1551.03 C 1621.86 1553.91 1615.1 1562.49 1612.01 1564.14 C 1608.4 1568.4 1605.27 1572.07 1601.38 1576.09 C 1600.59 1581.48 1600.37 1583.95 1601.96 1589.18 C 1608.85 1595.15 1613.23 1597.73 1622.15 1593.68 C 1624 1591.38 1624.84 1590.96 1627.28 1589.17 C 1629.58 1586.8 1632.01 1584.56 1634.55 1582.46 C 1637.85 1578.33 1650.07 1568.17 1654.67 1564.18 C 1656.66 1561.8 1679.3 1541.15 1682.69 1538.19 C 1686.09 1534.21 1706.85 1515.46 1711.74 1511.06 C 1712.98 1509.6 1713.96 1508.88 1715.44 1507.67 C 1721.46 1502.17 1731.46 1493.11 1735.47 1488.8 C 1743.93 1479.67 1758.14 1492.17 1754.61 1498.75 C 1744.57 1517.48 1720.36 1539.48 1706.85 1556.89 C 1701.11 1564.29 1694.31 1572.76 1689.17 1576.96 C 1688.88 1579.7 1686.84 1580.78 1684.62 1582.67 L 1684 1583.35 C 1682.62 1586.47 1670.51 1600.92 1667.13 1602.42 C 1665.41 1606.74 1664.87 1606.85 1661.28 1610.06 C 1659.73 1612.52 1657.67 1615.74 1655.01 1617.19 C 1647.31 1629.64 1625.69 1652.36 1612.19 1658.64 C 1608.87 1661.58 1602.53 1664.14 1598.32 1665.5 C 1587.49 1669.67 1575.1 1671.31 1563.66 1669.56 C 1560.6 1668.92 1554.36 1666.27 1551.2 1665.02 C 1517.77 1661.08 1513.58 1674.14 1493.85 1694.6 C 1485.38 1703.39 1439.84 1756.96 1434.66 1758.89 C 1430.01 1766.58 1421.14 1774.45 1415.16 1781.57 C 1405.68 1792.86 1394.57 1804.03 1385 1815.09 C 1374.4 1827.44 1308.86 1901.96 1300.95 1905.56 C 1285.14 1915.89 1266.93 1915.43 1251.03 1905.55 C 1242.65 1901.56 1235.07 1888.78 1232.42 1880.35 C 1229.89 1871.98 1230.16 1862.09 1232.35 1853.66 C 1237.11 1835.24 1251.83 1825.33 1265.47 1813.47 L 1299.76 1783.48 L 1420.62 1678.18 C 1438.1 1663.02 1468.92 1639.01 1480.44 1620.87 C 1480.59 1617.86 1482.37 1613.38 1482.95 1610 C 1484.7 1599.85 1482.6 1590.52 1481.15 1580.5 C 1480.43 1575.55 1481.77 1568.71 1482.39 1563.61 z" fill="rgb(222,138,123)" transform="translate(0,0)"></path>
<path d="M 1482.39 1563.61 C 1482.59 1561.76 1482.91 1559.93 1483.34 1558.12 C 1490 1529.4 1504.53 1520.24 1525.46 1502.49 C 1543.22 1487.18 1561.07 1471.97 1579.01 1456.88 L 1626.31 1416.1 C 1633.2 1410.15 1641.6 1402.46 1649.1 1397.32 C 1652.62 1394.91 1656.26 1396.04 1659.98 1397.21 C 1662.84 1400.32 1664.63 1402.34 1664.83 1406.93 C 1665.15 1414.32 1648.7 1430.79 1643.16 1435.01 C 1647.37 1422.05 1673.07 1412.41 1658.02 1398.88 C 1653.8 1400.04 1590.78 1465.24 1581.5 1474.4 C 1562.77 1492.89 1536.52 1514.68 1521.03 1536.12 C 1497.98 1568.01 1518.93 1613.74 1495.07 1642.83 C 1485.24 1654.83 1464.06 1671.07 1451.95 1682.02 L 1317.15 1802.09 C 1306.78 1811.25 1296.21 1820.45 1285.68 1829.41 C 1269.94 1842.8 1258.85 1858.45 1264.84 1880.47 C 1267.86 1891.22 1275.16 1900.27 1285.03 1905.5 C 1286.98 1906.55 1289.54 1907.66 1291.3 1908.82 C 1293.75 1907.7 1294.91 1907.13 1297.2 1905.67 C 1298.47 1905.65 1299.68 1905.62 1300.95 1905.56 C 1285.14 1915.89 1266.93 1915.43 1251.03 1905.55 C 1242.65 1901.56 1235.07 1888.78 1232.42 1880.35 C 1229.89 1871.98 1230.16 1862.09 1232.35 1853.66 C 1237.11 1835.24 1251.83 1825.33 1265.47 1813.47 L 1299.76 1783.48 L 1420.62 1678.18 C 1438.1 1663.02 1468.92 1639.01 1480.44 1620.87 C 1480.59 1617.86 1482.37 1613.38 1482.95 1610 C 1484.7 1599.85 1482.6 1590.52 1481.15 1580.5 C 1480.43 1575.55 1481.77 1568.71 1482.39 1563.61 z" fill="rgb(203,107,94)" transform="translate(0,0)"></path>
<path d="M 1482.39 1563.61 C 1483.61 1570.3 1482.55 1576.2 1482.95 1582.51 C 1483.14 1585.57 1484.4 1591.84 1484.83 1595.56 C 1485.61 1601.98 1485.17 1608.49 1483.53 1614.74 C 1483.02 1617.04 1482.89 1620.24 1480.44 1620.87 C 1480.59 1617.86 1482.37 1613.38 1482.95 1610 C 1484.7 1599.85 1482.6 1590.52 1481.15 1580.5 C 1480.43 1575.55 1481.77 1568.71 1482.39 1563.61 z" fill="rgb(101,68,42)" transform="translate(0,0)"></path>
<path d="M 1297.2 1905.67 C 1298.47 1905.65 1299.68 1905.62 1300.95 1905.56 C 1285.14 1915.89 1266.93 1915.43 1251.03 1905.55 C 1254.57 1905.47 1255.92 1906.74 1259.22 1908.28 C 1269.24 1912.97 1281.12 1911.47 1291.3 1908.82 C 1293.75 1907.7 1294.91 1907.13 1297.2 1905.67 z" fill="rgb(101,68,42)" transform="translate(0,0)"></path>
<path d="M 1232.35 1853.66 C 1233.4 1857.6 1233.38 1876.1 1232.42 1880.35 C 1229.89 1871.98 1230.16 1862.09 1232.35 1853.66 z" fill="rgb(168,81,73)" transform="translate(0,0)"></path>
<path d="M 1715.44 1507.67 C 1721.46 1502.17 1731.46 1493.11 1735.47 1488.8 C 1743.93 1479.67 1758.14 1492.17 1754.61 1498.75 C 1744.57 1517.48 1720.36 1539.48 1706.85 1556.89 C 1701.11 1564.29 1694.31 1572.76 1689.17 1576.96 C 1694.13 1565.32 1712.78 1548.83 1720.77 1537.98 C 1725 1532.25 1730.18 1528.08 1734.48 1522.29 C 1739.25 1515.88 1753.17 1504.29 1752.76 1495.92 C 1745.75 1474.99 1725.71 1501.08 1722.89 1503.7 C 1722.25 1503.99 1722.26 1504.03 1721.76 1504.52 C 1720.15 1505.86 1718.8 1507.07 1717.26 1508.47 L 1715.44 1507.67 z" fill="rgb(168,81,73)" transform="translate(0,0)"></path>
<path d="M 1457.33 1732.14 C 1471.47 1718.07 1503.65 1677.46 1517.61 1668.97 C 1527.61 1662.92 1539.56 1660.95 1550.98 1663.48 L 1551.2 1665.02 C 1517.77 1661.08 1513.58 1674.14 1493.85 1694.6 C 1485.38 1703.39 1439.84 1756.96 1434.66 1758.89 C 1434.78 1755.4 1452.35 1737.82 1456.49 1733.3 C 1457.06 1732.65 1456.91 1732.83 1457.33 1732.14 z" fill="rgb(168,81,73)" transform="translate(0,0)"></path>
<path d="M 1383.49 1813.91 L 1385 1815.09 C 1374.4 1827.44 1308.86 1901.96 1300.95 1905.56 C 1299.68 1905.62 1298.47 1905.65 1297.2 1905.67 C 1300.55 1903.03 1300.92 1904.46 1304.58 1900.42 C 1309.88 1894.57 1316.35 1889.35 1321.49 1883.27 C 1322.07 1882.61 1321.92 1882.79 1322.35 1882.08 C 1336.34 1867.98 1349.51 1850.89 1363.32 1836.44 C 1367 1832.59 1380.43 1815.93 1383.49 1813.91 z" fill="rgb(168,81,73)" transform="translate(0,0)"></path>
<path d="M 1620.77 1508.2 C 1619.48 1514.28 1587.16 1538.17 1582.21 1545.65 C 1579.85 1549.22 1566.35 1554.65 1564.81 1551.32 C 1564.9 1550.85 1565.3 1550.6 1565.64 1550.23 C 1580.86 1548.65 1582.42 1542.18 1593.47 1531.98 C 1602.37 1523.82 1611.47 1515.89 1620.77 1508.2 z" fill="rgb(168,81,73)" transform="translate(0,0)"></path>
<path d="M 1383.49 1813.91 C 1391.85 1805.55 1428.42 1762.18 1434.66 1758.89 C 1430.01 1766.58 1421.14 1774.45 1415.16 1781.57 C 1405.68 1792.86 1394.57 1804.03 1385 1815.09 L 1383.49 1813.91 z" fill="rgb(168,81,73)" transform="translate(0,0)"></path>
<path d="M 1612.19 1658.64 C 1618.41 1650.76 1635.2 1642.66 1640.84 1631.04 C 1641.61 1629.45 1651.99 1619.14 1653.52 1618.17 L 1655.01 1617.19 C 1647.31 1629.64 1625.69 1652.36 1612.19 1658.64 z" fill="rgb(168,81,73)" transform="translate(0,0)"></path>
<path d="M 1606.12 1475.89 C 1608.52 1470.44 1635.77 1440 1640.37 1437.32 L 1641.77 1436.45 C 1639.17 1440.63 1610.37 1472.51 1606.12 1475.89 z" fill="rgb(203,107,94)" transform="translate(0,0)"></path>
<path d="M 1711.74 1511.06 C 1711.13 1514.04 1711.19 1513.42 1709.39 1516.06 C 1700.08 1522.82 1689.09 1536.58 1679.85 1543.58 C 1681.36 1541.33 1682 1540.73 1682.69 1538.19 C 1686.09 1534.21 1706.85 1515.46 1711.74 1511.06 z" fill="rgb(168,81,73)" transform="translate(0,0)"></path>
<path d="M 1682.69 1538.19 C 1682 1540.73 1681.36 1541.33 1679.85 1543.58 C 1672.16 1548.4 1660.03 1564.08 1653.95 1567.45 C 1654.17 1566.08 1654.31 1565.54 1654.67 1564.18 C 1656.66 1561.8 1679.3 1541.15 1682.69 1538.19 z" fill="rgb(168,81,73)" transform="translate(0,0)"></path>
<path d="M 1659.45 1511.44 C 1661.4 1506.36 1678.34 1487.75 1683.62 1485.7 C 1680.82 1489.91 1663.78 1508.4 1659.45 1511.44 z" fill="rgb(203,107,94)" transform="translate(0,0)"></path>
<path d="M 1684.11 1484.96 C 1686.12 1480.19 1704.01 1460.25 1708.64 1459.13 C 1705.01 1464.23 1689.07 1481.15 1684.11 1484.96 z" fill="rgb(203,107,94)" transform="translate(0,0)"></path>
<path d="M 1563.66 1669.56 C 1569.91 1668.19 1574.85 1669.34 1581.49 1667.65 C 1585.05 1666.73 1595.06 1664.79 1598.32 1665.5 C 1587.49 1669.67 1575.1 1671.31 1563.66 1669.56 z" fill="rgb(203,107,94)" transform="translate(0,0)"></path>
<path d="M 1667.13 1602.42 C 1667.79 1599 1680.03 1583.81 1684 1583.35 C 1682.62 1586.47 1670.51 1600.92 1667.13 1602.42 z" fill="rgb(203,107,94)" transform="translate(0,0)"></path>
<path d="M 1585.98 1498.14 C 1585.33 1495.11 1601.56 1478.97 1604.23 1477.39 L 1605.51 1476.57 C 1603.47 1479.97 1588.67 1496.65 1585.98 1498.14 z" fill="rgb(203,107,94)" transform="translate(0,0)"></path>
<path d="M 1654.67 1564.18 C 1654.31 1565.54 1654.17 1566.08 1653.95 1567.45 C 1647.48 1572.39 1639.42 1581.62 1633.47 1585.61 C 1633.81 1584.56 1634.17 1583.5 1634.55 1582.46 C 1637.85 1578.33 1650.07 1568.17 1654.67 1564.18 z" fill="rgb(168,81,73)" transform="translate(0,0)"></path>
<path d="M 1601.96 1589.18 C 1608.85 1595.15 1613.23 1597.73 1622.15 1593.68 L 1622.26 1595.47 C 1615.24 1598.08 1604.49 1598.45 1601.09 1590.38 L 1601.96 1589.18 z" fill="rgb(168,81,73)" transform="translate(0,0)"></path>
<path d="M 1612.01 1564.14 C 1611.06 1560.53 1620.35 1552.63 1623.82 1551.03 C 1621.86 1553.91 1615.1 1562.49 1612.01 1564.14 z" fill="rgb(203,107,94)" transform="translate(0,0)"></path>
<path d="M 1623.82 1551.03 C 1623.41 1548 1631.06 1540.47 1634.64 1538.89 C 1632.67 1542.21 1627.24 1549.74 1623.82 1551.03 z" fill="rgb(203,107,94)" transform="translate(0,0)"></path>
<path d="M 1555.39 1542.98 C 1551.62 1540.94 1552.08 1530.04 1556.37 1529.18 C 1554.67 1536.91 1555.83 1536.11 1555.39 1542.98 z" fill="rgb(168,81,73)" transform="translate(0,0)"></path>
<path d="M 1672.7 1462.29 C 1671.84 1465.79 1661.87 1475.17 1658.86 1475.06 C 1660.2 1472.81 1670.33 1464.27 1672.7 1462.29 z" fill="rgb(168,81,73)" transform="translate(0,0)"></path>
<path d="M 1601.09 1590.38 C 1599.75 1587.19 1596.55 1577.64 1601.38 1576.09 C 1600.59 1581.48 1600.37 1583.95 1601.96 1589.18 L 1601.09 1590.38 z" fill="rgb(97,81,70)" transform="translate(0,0)"></path>
<path d="M 1654.71 1478.44 C 1653.83 1481.57 1644.93 1490.85 1642.43 1489.36 C 1644.99 1486.73 1651.95 1480.72 1654.71 1478.44 z" fill="rgb(168,81,73)" transform="translate(0,0)"></path>
<path d="M 1634.64 1538.89 C 1634.41 1534.84 1638.88 1532.43 1642.07 1531.2 C 1640.35 1533.87 1637.76 1538.12 1634.64 1538.89 z" fill="rgb(203,107,94)" transform="translate(0,0)"></path>
<path d="M 1652.99 1519.13 C 1652.17 1515.86 1656.16 1512.7 1659.23 1511.88 C 1657.86 1514.56 1655.7 1517.71 1652.99 1519.13 z" fill="rgb(203,107,94)" transform="translate(0,0)"></path>
<path d="M 1711.74 1511.06 C 1712.98 1509.6 1713.96 1508.88 1715.44 1507.67 L 1717.26 1508.47 C 1714.58 1511.87 1713.12 1513.43 1709.39 1516.06 C 1711.19 1513.42 1711.13 1514.04 1711.74 1511.06 z" fill="rgb(203,107,94)" transform="translate(0,0)"></path>
<path d="M 1622.15 1593.68 C 1624 1591.38 1624.84 1590.96 1627.28 1589.17 L 1628.76 1589.99 C 1626.22 1592.96 1625.6 1593.96 1622.26 1595.47 L 1622.15 1593.68 z" fill="rgb(203,107,94)" transform="translate(0,0)"></path>
<path d="M 1661.28 1610.06 C 1662.55 1605.09 1662.3 1604.43 1667.13 1602.42 C 1665.41 1606.74 1664.87 1606.85 1661.28 1610.06 z" fill="rgb(203,107,94)" transform="translate(0,0)"></path>
<path d="M 1684.62 1582.67 C 1685.58 1579.22 1685.39 1576.1 1689.17 1576.96 C 1688.88 1579.7 1686.84 1580.78 1684.62 1582.67 z" fill="rgb(203,107,94)" transform="translate(0,0)"></path>
<path d="M 1702.19 1441.95 C 1706.33 1444.14 1707.2 1444.58 1709.3 1449.04 C 1705.77 1447.99 1703.75 1445.09 1702.19 1441.95 z" fill="rgb(203,107,94)" transform="translate(0,0)"></path>
<path d="M 1634.55 1582.46 C 1634.17 1583.5 1633.81 1584.56 1633.47 1585.61 C 1631.2 1587.08 1630.56 1587.98 1628.76 1589.99 L 1627.28 1589.17 C 1629.58 1586.8 1632.01 1584.56 1634.55 1582.46 z" fill="rgb(101,48,42)" transform="translate(0,0)"></path>
<metadata><recraft-signature>{"signed_by": "recraft", "signature_b64": "MuTjqWo2aQPd7PB2gajb9opSu2/RCP0ZMEBb2zMeAYHlCcnShaLAzB/Nim8zWdmeq0exxmNKiBGmeBBZl1htAg==", "signing_algo": "Ed25519", "generation_timestamp": 1779103114, "identifier": "7aa7864e-0461-4446-9a76-85d04ce36cb7"}</recraft-signature></metadata></svg>