<svg xmlns="http://www.w3.org/2000/svg" height="1024" preserveAspectRatio="none" style="display: block;" version="1.1" viewBox="0 0 2048 2048" width="1024">
<path d="M 0 0 L 2048 0 L 2048 2048 L 0 2048 L 0 0 z" fill="rgb(255,255,255)" transform="translate(0,0)"></path>
<path d="M 1012.93 61.4006 C 1078.7 55.2843 1147.64 89.0284 1193.77 134.206 C 1227.43 167.172 1244.57 200.012 1266.37 240.791 L 1303.67 311.041 L 1376.24 445.85 L 1676.92 1007.47 L 1867.38 1363.41 L 1936.26 1492.96 C 1946.4 1511.84 1956.79 1530.62 1967.05 1549.44 C 2030.82 1666.5 2011.5 1821.03 1917.2 1916.85 C 1882.23 1952.83 1837.4 1977.66 1788.35 1988.22 C 1757.02 1994.73 1714.78 1992.81 1681.57 1992.71 L 1545.39 1992.17 L 1037.25 1992.66 L 474.611 1992.31 C 436.777 1992.06 398.942 1992.06 361.109 1992.33 C 334.696 1992.64 294.301 1994.39 269.566 1990.29 C 226.51 1982.91 186.104 1964.49 152.3 1936.83 C 39.7704 1843.58 10.658 1673.98 80.1701 1546.56 C 86.152 1535.59 92.1147 1524.64 98.1848 1513.72 C 112.809 1487.52 127.105 1461.13 141.071 1434.57 L 344.682 1056.77 L 667.865 455.788 L 757.257 290.701 C 794.821 220.672 822 155.136 889.38 108.267 C 930.194 79.8769 963.716 66.017 1012.93 61.4006 z" fill="rgb(228,67,64)" transform="translate(0,0)"></path>
<path d="M 1012.24 170.395 C 1078.4 160.651 1151.49 215.684 1178.55 272.583 C 1187.32 291.026 1198.51 310.126 1208.24 328.28 L 1257.82 421.322 C 1279.1 462.046 1301.81 503.22 1323.5 543.93 L 1561.39 988.23 L 1802.42 1438.18 L 1858.66 1544.16 C 1868.88 1563.17 1882.43 1586.01 1891.26 1605.01 C 1904.03 1632.9 1910.84 1663.15 1911.25 1693.82 C 1911.51 1747.1 1892.77 1798.77 1854.81 1836.74 C 1831.13 1860.81 1800.68 1877.07 1767.52 1883.35 C 1745.82 1887.34 1707.07 1886.04 1683.24 1886.01 L 1551.77 1885.89 L 1036.5 1885.89 L 519.972 1885.89 L 369.219 1885.99 C 344.734 1886.03 307.897 1888.2 284.952 1884.33 C 157.339 1862.82 103.236 1712.34 156.521 1602.36 C 170.58 1573.35 186.539 1545.62 201.784 1517.15 C 233.522 1457.17 265.672 1397.4 298.234 1337.86 L 590.59 795.331 L 782.871 439.014 L 848.849 316.269 C 861.841 292.034 877.999 257.227 894.777 236.97 C 925.703 199.631 963.68 175.296 1012.24 170.395 z" fill="rgb(253,246,27)" transform="translate(0,0)"></path>
<path d="M 1008.52 520.394 C 1013.94 519.525 1023.41 519.799 1028.95 520.136 C 1087.82 523.722 1135.84 565.504 1155.97 619.596 C 1165.04 644.119 1168.95 670.249 1167.44 696.351 C 1166.14 721.796 1158.02 771.402 1154 797.507 L 1133.06 938.946 L 1093.77 1214.36 L 1084 1282.94 C 1077.8 1326.44 1079.67 1356.4 1032.78 1373.22 C 1013.49 1377.31 996.291 1374.23 980.46 1361.84 C 960.819 1346.46 959.703 1320.44 956.536 1297.68 L 948.607 1239.43 L 927.088 1086.69 L 886.31 796.992 C 882.21 765.684 877.306 734.156 874.038 702.77 C 864.96 615.59 916.445 529.505 1008.52 520.394 z" fill="rgb(10,9,8)" transform="translate(0,0)"></path>
<path d="M 1010.47 1433.41 C 1036.43 1430.55 1066.96 1440.53 1087.61 1455.86 C 1159.25 1509.04 1169.63 1621.35 1116.77 1691.19 C 1093.26 1722.26 1065.81 1737.22 1027.79 1742.93 C 849.746 1747.8 836.675 1452.78 1010.47 1433.41 z" fill="rgb(10,9,8)" transform="translate(0,0)"></path>
<metadata><recraft-signature>{"signed_by": "recraft", "signature_b64": "5m+yyr/gta0NYrscDCo0U7plSajC32cAzMqbtIPeFUqP8zaGo/j1CJFVM8IIwsmjwaNSIzTO0rZozM9nIA3NAw==", "signing_algo": "Ed25519", "generation_timestamp": 1779104438, "identifier": "d9406d46-b640-46fb-a579-41e02172c3ee"}</recraft-signature></metadata></svg>