<svg xmlns="http://www.w3.org/2000/svg" height="1216" preserveAspectRatio="none" style="display: block;" version="1.1" viewBox="0 0 1509 2048" width="896">
<path d="M 0 0 L 1509 0 L 1509 1754.27 L 1509 1780.92 L 1509 2048 L 1480.93 2048 C 1458.99 2012.7 1439.99 1994.89 1404.95 1971.55 C 1398.45 1969.47 1395.76 1967.37 1390.6 1963.19 C 1370.14 1950.69 1340.92 1938.33 1318.48 1929.41 C 1314.6 1934.97 1300.42 1954.27 1298.07 1958.81 C 1283.54 1969.57 1270.37 1960.83 1267.96 1944.11 C 1271.37 1936.06 1279.63 1924.55 1284.81 1916.88 C 1263.42 1908.45 1234.23 1899.64 1211.72 1895.08 C 1199.81 1914.85 1186.7 1931.34 1174.94 1950.39 C 1166.53 1961.53 1156.69 1977.55 1141.1 1965.51 C 1140.5 1965.05 1139.91 1964.57 1139.33 1964.09 C 1091.13 1975.83 1067.94 2000.53 1054.91 2048 L 375.483 2048 L 348.536 2048 L 74.1697 2048 L 0 2048 L 0 2046.77 L 0 0 z" fill="rgb(255,255,255)" transform="translate(0,0)"></path>
<path d="M 499.271 734.956 C 578.754 804.43 682.614 839.422 787.934 832.21 C 868.137 826.269 958.334 789.601 1017.9 735.55 C 1107.35 787.413 1171.18 888.034 1197.35 986.364 C 1203.57 1009.72 1207.9 1033.54 1210.3 1057.59 C 1211.8 1072.99 1211.42 1088.83 1213.9 1104.08 C 1218.3 1131.15 1249.82 1159.02 1269.8 1125.22 C 1284.27 1100.74 1299.51 1077.71 1309.43 1050.64 C 1380.56 1054.19 1428.86 1100.01 1426.04 1174 C 1424.1 1225.14 1394.49 1270.75 1357.35 1303.86 C 1354.15 1306.7 1352.31 1308.31 1348.4 1310.17 C 1351.73 1303.29 1358.19 1292.18 1354.68 1285.23 C 1336.97 1250.27 1315.11 1296.85 1307.6 1308.81 C 1300.74 1319.55 1293.5 1330.04 1285.9 1340.26 C 1280.99 1339.7 1269.49 1342.64 1263.86 1343.42 C 1238.3 1346.93 1220.46 1345.14 1195.98 1337.86 C 1192.81 1342.77 1181.31 1359.31 1179.48 1362.96 C 1174.46 1383.19 1168.4 1401.04 1160.24 1420.09 C 1148.82 1446.74 1136.89 1471.36 1120.94 1495.53 C 1120.35 1496.42 1120.66 1500.18 1120.64 1501.53 C 1120.63 1502.04 1120.63 1502.55 1120.63 1503.06 C 1127.11 1578.55 1186.05 1617.67 1223.28 1676.55 C 1255.2 1727.04 1257.48 1793.3 1236.03 1848.03 C 1229.21 1865.43 1220.41 1878.8 1211.72 1895.08 C 1199.81 1914.85 1186.7 1931.34 1174.94 1950.39 C 1166.53 1961.53 1156.69 1977.55 1141.1 1965.51 C 1140.5 1965.05 1139.91 1964.57 1139.33 1964.09 C 1091.13 1975.83 1067.94 2000.53 1054.91 2048 L 375.483 2048 L 348.536 2048 L 74.1697 2048 C 77.3279 2040.62 85.5181 2027.18 89.7645 2019.92 L 120.397 1968.21 C 124.075 1961.95 132.079 1948.91 134.375 1942.86 L 133.273 1941.35 C 139.389 1938.16 160.652 1900.16 166.252 1890.96 L 242.969 1763.14 C 253.489 1745.61 270.729 1714.85 282.02 1699.58 C 285.309 1635.71 292.261 1574.39 324.956 1519.14 C 329.536 1511.4 328.111 1492.93 328.222 1483.29 C 328.432 1465.02 329.626 1445.79 328.371 1427.54 C 327.995 1422.42 316.607 1401.63 313.852 1394.61 C 306.397 1375.62 299.766 1357.16 293.52 1337.7 C 266.327 1345.15 249.482 1345.46 221.97 1340.76 C 114.344 1322.36 27.7363 1173.59 113.996 1084.55 C 138.848 1058.9 171.245 1051.01 205.718 1051.05 C 212.86 1070.76 235.615 1124.38 253.493 1136.77 C 265.511 1145.1 295.698 1131.62 298.981 1116.9 C 304.555 1101.51 303.276 1083.25 304.645 1067.27 C 305.865 1053.71 307.614 1040.2 309.886 1026.78 C 327.685 926.229 380.636 826.099 460.666 760.995 C 472.64 751.254 486.073 742.919 499.271 734.956 z" fill="rgb(228,170,147)" transform="translate(0,0)"></path>
<path d="M 967.52 1719.97 C 985.92 1775.07 1015.81 1822.06 1068.47 1852.06 C 1068.72 1852.18 1068.96 1852.3 1069.21 1852.41 C 1060.6 1870.75 1049.82 1885.18 1039.64 1901.66 C 1032.32 1913.52 1009.89 1941.48 1007.25 1951.91 C 1008.27 1957.77 1011.46 1965.12 1016.31 1968.85 C 1018.83 1970.79 1022.26 1970.93 1025.25 1970.33 C 1044.53 1966.43 1077.72 1904.62 1090.29 1886.9 C 1093.05 1881.35 1097.56 1872.87 1100.59 1867.34 C 1102.3 1867.77 1104 1868.22 1105.7 1868.7 C 1130.67 1874.55 1151.88 1878.25 1176.57 1886.12 C 1170.04 1896.4 1163.26 1906.15 1156.29 1916.12 C 1149.74 1925.49 1142.53 1934.65 1137.34 1944.82 C 1133.24 1952.83 1135.06 1956.97 1139.33 1964.09 C 1091.13 1975.83 1067.94 2000.53 1054.91 2048 L 375.483 2048 C 381.82 2035.6 388.929 2014.88 394.269 2001.42 C 407.134 1969 418.832 1935.62 431.867 1903.28 C 434.246 1896.83 438.373 1885.53 441.473 1879.8 C 456.078 1878.49 532.139 1799.29 535.552 1784.46 C 546.848 1777.54 555.263 1774.13 567.136 1766.01 C 610.781 1801.84 677.482 1824.94 733.832 1824.93 C 823.686 1824.92 904.795 1781.53 967.52 1719.97 z" fill="rgb(228,170,147)" transform="translate(0,0)"></path>
<path d="M 1100.59 1867.34 C 1102.3 1867.77 1104 1868.22 1105.7 1868.7 C 1130.67 1874.55 1151.88 1878.25 1176.57 1886.12 C 1170.04 1896.4 1163.26 1906.15 1156.29 1916.12 C 1149.74 1925.49 1142.53 1934.65 1137.34 1944.82 C 1133.24 1952.83 1135.06 1956.97 1139.33 1964.09 C 1091.13 1975.83 1067.94 2000.53 1054.91 2048 L 375.483 2048 C 381.82 2035.6 388.929 2014.88 394.269 2001.42 C 407.134 1969 418.832 1935.62 431.867 1903.28 C 463.343 1925.6 490.238 1946.83 525.726 1963.77 C 626.471 2011.84 738.982 2025.84 848.752 2007.24 C 888.722 2000.65 927.684 1988.96 964.688 1972.48 C 974.157 1968.31 1000.33 1954.23 1007.25 1951.91 C 1008.27 1957.77 1011.46 1965.12 1016.31 1968.85 C 1018.83 1970.79 1022.26 1970.93 1025.25 1970.33 C 1044.53 1966.43 1077.72 1904.62 1090.29 1886.9 C 1093.05 1881.35 1097.56 1872.87 1100.59 1867.34 z" fill="rgb(240,142,20)" transform="translate(0,0)"></path>
<path d="M 1100.59 1867.34 C 1102.3 1867.77 1104 1868.22 1105.7 1868.7 C 1101.53 1875.74 1096.71 1881.76 1090.29 1886.9 C 1093.05 1881.35 1097.56 1872.87 1100.59 1867.34 z" fill="rgb(228,170,147)" transform="translate(0,0)"></path>
<path d="M 768.368 1277.18 C 767.831 1259.8 766.718 1258.08 756.906 1244.06 C 773.412 1256.52 773.126 1259.94 778.249 1278.61 C 778.773 1280.52 792.256 1285.73 794.805 1289.37 C 825.355 1333.1 766.073 1366.83 739.667 1392.84 C 793.767 1405.59 844.173 1365.34 825.725 1307.89 C 834.059 1316.33 838.887 1323.59 842.127 1335.35 C 846.88 1352.8 844.437 1371.42 835.345 1387.05 C 812.556 1426.89 755.746 1431.07 718.973 1409.76 C 712.767 1417.52 678.453 1464.94 678.193 1470.73 C 672.886 1475.43 668.222 1480.8 664.321 1486.72 C 681.795 1490.91 693.411 1494.42 703.125 1510.88 C 709.4 1521.33 709.147 1536.99 709.019 1549.03 C 776.785 1595.51 705.491 1710.64 636.881 1671.72 C 631.96 1688.17 627.751 1699.25 620.813 1714.96 C 704.987 1752.07 764.802 1761.38 853.437 1727.07 C 875.69 1718.46 894.749 1709 915.748 1697.27 C 928.082 1690.38 942.566 1679.6 954.509 1673.16 C 957.878 1686.67 962.57 1707.49 967.52 1719.97 C 904.795 1781.53 823.686 1824.92 733.832 1824.93 C 677.482 1824.94 610.781 1801.84 567.136 1766.01 C 555.263 1774.13 546.848 1777.54 535.552 1784.46 C 532.139 1799.29 456.078 1878.49 441.473 1879.8 C 438.373 1885.53 434.246 1896.83 431.867 1903.28 C 418.832 1935.62 407.134 1969 394.269 2001.42 C 388.929 2014.88 381.82 2035.6 375.483 2048 L 348.536 2048 L 415.772 1879.35 C 428.238 1847.87 441.462 1811.77 455.36 1781.3 C 467.549 1779.81 476.59 1777.89 488.17 1773.97 C 535.691 1757.79 576.074 1725.53 602.352 1682.76 C 614.461 1662.95 626.513 1636.21 637.075 1614.8 C 661.279 1622.53 683.65 1608.97 696.843 1611.27 C 705.625 1619.86 692.217 1630.55 685.167 1634.59 C 675.747 1639.98 676.119 1639.37 669.54 1648.11 C 662.66 1651.64 659.814 1645.68 654.161 1652.42 C 654.578 1657.84 663.537 1658.91 666.858 1657.7 C 684.395 1651.29 706.237 1634.93 715.385 1618.54 C 733.299 1586.43 714.592 1562.19 686.663 1546.04 C 676.383 1545.77 639.696 1549.19 634.413 1545.12 C 632.623 1541.77 632.692 1542.97 632.831 1539.55 C 637.747 1532.5 651.305 1533.75 659.11 1533.13 C 670.743 1532.22 682.676 1532.18 694.165 1529.79 L 695.494 1529.5 C 703.61 1483.74 652.122 1492.96 622.662 1491.31 C 615.058 1490.89 608.476 1492.91 603.489 1486.2 C 603.07 1481.94 602.685 1483.46 604.349 1479.74 C 609.407 1475.44 617.876 1476.55 624.72 1476.62 C 641.834 1459.48 660.685 1436.29 676.357 1417.29 C 695.764 1393.77 704.862 1387.2 729.529 1369.37 C 750.853 1354.01 772.286 1338.8 793.828 1323.74 C 794.578 1301.48 793.798 1288.54 769.06 1284.04 C 742.894 1293.34 686.388 1325.37 661.799 1340.98 C 658.781 1342.9 639.283 1363.22 635.831 1366.79 L 595.873 1407.85 C 583.087 1420.95 570.493 1434.84 556.744 1446.82 C 549.064 1453.51 542.421 1440.15 545.563 1436.77 C 578.942 1400.83 614.23 1364.8 650.297 1331.6 C 656.827 1325.59 687.257 1316.26 696.184 1310.28 C 717.43 1301.38 748.74 1282.81 768.368 1277.18 z" fill="rgb(192,120,101)" transform="translate(0,0)"></path>
<path d="M 535.552 1784.46 C 532.139 1799.29 456.078 1878.49 441.473 1879.8 C 447.849 1864.37 465.425 1821.97 469.569 1807.1 C 499.471 1799.84 507.32 1797.58 535.552 1784.46 z" fill="rgb(255,255,255)" transform="translate(0,0)"></path>
<path d="M 1091.71 1538.54 C 1070.57 1447.89 1113.54 1390 1165.55 1320.86 C 1173.14 1310.76 1188.88 1276.65 1199.54 1276.55 C 1243.09 1276.13 1202.91 1326.76 1195.98 1337.86 C 1192.81 1342.77 1181.31 1359.31 1179.48 1362.96 C 1174.46 1383.19 1168.4 1401.04 1160.24 1420.09 C 1148.82 1446.74 1136.89 1471.36 1120.94 1495.53 C 1120.35 1496.42 1120.66 1500.18 1120.64 1501.53 C 1120.63 1502.04 1120.63 1502.55 1120.63 1503.06 C 1127.11 1578.55 1186.05 1617.67 1223.28 1676.55 C 1255.2 1727.04 1257.48 1793.3 1236.03 1848.03 C 1229.21 1865.43 1220.41 1878.8 1211.72 1895.08 C 1199.81 1914.85 1186.7 1931.34 1174.94 1950.39 C 1166.53 1961.53 1156.69 1977.55 1141.1 1965.51 C 1140.5 1965.05 1139.91 1964.57 1139.33 1964.09 C 1135.06 1956.97 1133.24 1952.83 1137.34 1944.82 C 1142.53 1934.65 1149.74 1925.49 1156.29 1916.12 C 1163.26 1906.15 1170.04 1896.4 1176.57 1886.12 C 1151.88 1878.25 1130.67 1874.55 1105.7 1868.7 C 1104 1868.22 1102.3 1867.77 1100.59 1867.34 C 1112.16 1841.36 1121.25 1818.84 1123.23 1790.22 C 1128.98 1707.13 1084.26 1663.4 1036.14 1606.21 C 1038.21 1602.83 1062.27 1576.35 1066.47 1571.47 C 1075.11 1561.43 1083.91 1547.71 1091.71 1538.54 z" fill="rgb(59,156,88)" transform="translate(0,0)"></path>
<path d="M 1036.14 1606.21 C 1038.21 1602.83 1062.27 1576.35 1066.47 1571.47 C 1075.11 1561.43 1083.91 1547.71 1091.71 1538.54 C 1101.93 1574.77 1115.55 1598.57 1140.02 1627.8 C 1154.03 1644.54 1170.34 1660.48 1182.87 1678.25 C 1226.03 1739.44 1225.05 1800.88 1189.41 1864.59 C 1185.28 1871.85 1180.99 1879.03 1176.57 1886.12 C 1151.88 1878.25 1130.67 1874.55 1105.7 1868.7 C 1104 1868.22 1102.3 1867.77 1100.59 1867.34 C 1112.16 1841.36 1121.25 1818.84 1123.23 1790.22 C 1128.98 1707.13 1084.26 1663.4 1036.14 1606.21 z" fill="rgb(255,255,255)" transform="translate(0,0)"></path>
<path d="M 1120.63 1503.06 C 1118.88 1496.64 1120.78 1480.56 1121.7 1473.56 C 1127.36 1430.55 1152.65 1395.71 1179.48 1362.96 C 1174.46 1383.19 1168.4 1401.04 1160.24 1420.09 C 1148.82 1446.74 1136.89 1471.36 1120.94 1495.53 C 1120.35 1496.42 1120.66 1500.18 1120.64 1501.53 C 1120.63 1502.04 1120.63 1502.55 1120.63 1503.06 z" fill="rgb(228,170,147)" transform="translate(0,0)"></path>
<path d="M 1009.39 1629.1 C 979.732 1589.78 961.272 1557.6 958.96 1507.09 C 955.577 1433.2 995.479 1382.56 1036.01 1325.82 C 1046.68 1311.05 1054.89 1294.12 1066.42 1280.06 C 1071.45 1273.93 1086.71 1274.98 1090.82 1281.32 C 1100.25 1295.89 1083.37 1316.26 1076.02 1328.4 C 1057.51 1358.98 1033.95 1386.16 1016.14 1417.14 C 977.494 1485.46 988.652 1547.01 1036.14 1606.21 C 1084.26 1663.4 1128.98 1707.13 1123.23 1790.22 C 1121.25 1818.84 1112.16 1841.36 1100.59 1867.34 C 1097.56 1872.87 1093.05 1881.35 1090.29 1886.9 C 1077.72 1904.62 1044.53 1966.43 1025.25 1970.33 C 1022.26 1970.93 1018.83 1970.79 1016.31 1968.85 C 1011.46 1965.12 1008.27 1957.77 1007.25 1951.91 C 1009.89 1941.48 1032.32 1913.52 1039.64 1901.66 C 1049.82 1885.18 1060.6 1870.75 1069.21 1852.41 C 1068.96 1852.3 1068.72 1852.18 1068.47 1852.06 C 1015.81 1822.06 985.92 1775.07 967.52 1719.97 C 962.57 1707.49 957.878 1686.67 954.509 1673.16 C 965.311 1666.86 1000 1637.93 1009.39 1629.1 z" fill="rgb(59,156,88)" transform="translate(0,0)"></path>
<path d="M 954.509 1673.16 C 965.311 1666.86 1000 1637.93 1009.39 1629.1 C 1049.7 1677.82 1093.59 1716.27 1088.3 1787.9 C 1086.57 1811.38 1078.39 1831.03 1069.21 1852.41 C 1068.96 1852.3 1068.72 1852.18 1068.47 1852.06 C 1015.81 1822.06 985.92 1775.07 967.52 1719.97 C 962.57 1707.49 957.878 1686.67 954.509 1673.16 z" fill="rgb(255,255,255)" transform="translate(0,0)"></path>
<path d="M 678.193 1470.73 C 740.914 1441.84 825.909 1468.26 867.668 1521.66 C 873.396 1528.98 882.87 1539.45 879.039 1549.25 C 877.411 1553.44 874.111 1556.77 869.929 1558.44 C 854.665 1564.38 844.476 1542.9 835.361 1533.46 C 801.341 1498.2 747.023 1491.61 703.125 1510.88 C 693.411 1494.42 681.795 1490.91 664.321 1486.72 C 668.222 1480.8 672.886 1475.43 678.193 1470.73 z" fill="rgb(69,35,19)" transform="translate(0,0)"></path>
<path d="M 672.196 946.099 C 696.766 943.937 707.091 966.868 692.359 982.907 C 637.597 1042.53 569.465 1067.51 491.47 1077.87 C 474.531 1079.57 460.866 1069.25 464.4 1051.02 C 467.631 1034.34 489.513 1034.38 503.361 1031.91 C 551.325 1023.36 599.145 1006.39 637.602 975.668 C 648.038 967.484 663.77 951.029 672.196 946.099 z" fill="rgb(69,35,19)" transform="translate(0,0)"></path>
<path d="M 832.455 946.02 C 846.521 945.321 858.541 959.944 868.588 968.966 C 904.075 1000.83 947.68 1018.14 993.639 1028.98 C 1013.2 1033.6 1056.85 1030.16 1047.26 1063.32 C 1044.94 1071.32 1039.89 1074.57 1032.9 1077.87 C 1007.86 1079.59 953.981 1066.15 928.182 1055.49 C 888.625 1038.07 841.597 1011.92 817.326 975.184 C 809.35 963.112 820.667 950.5 832.455 946.02 z" fill="rgb(69,35,19)" transform="translate(0,0)"></path>
<path d="M 514.445 1152.24 L 514.062 1151.21 C 504.117 1150.99 495.639 1151.14 485.453 1151.71 C 475.419 1151.75 450.147 1159.07 450.052 1142.29 C 450.642 1132.33 458.333 1130.56 466.528 1129.53 C 531.387 1121.34 599.408 1143 646.986 1187.98 C 654.258 1194.85 663.221 1203.69 651.291 1213.02 C 645.158 1217.82 638.888 1213.57 634.425 1209.01 C 628.395 1203.67 622.262 1197.96 615.967 1193.08 C 610 1188.47 603.831 1184.13 597.479 1180.07 C 600.603 1198.05 583.127 1217.78 566.87 1223.71 C 555.31 1227.92 542.544 1227.3 531.444 1222 C 518.886 1215.94 511.509 1207.1 506.575 1194.53 C 502.856 1185.06 503.354 1155.02 514.445 1152.24 z" fill="rgb(69,35,19)" transform="translate(0,0)"></path>
<path d="M 597.479 1180.07 C 600.603 1198.05 583.127 1217.78 566.87 1223.71 C 555.31 1227.92 542.544 1227.3 531.444 1222 C 518.886 1215.94 511.509 1207.1 506.575 1194.53 C 502.856 1185.06 503.354 1155.02 514.445 1152.24 C 507.707 1167.59 503.36 1179.08 510.211 1196.19 C 514.77 1207.49 523.619 1216.53 534.824 1221.32 C 545.653 1225.8 557.834 1225.71 568.593 1221.06 C 587.204 1213.06 592.263 1199.32 595.61 1180.63 L 597.479 1180.07 z" fill="rgb(236,209,177)" transform="translate(0,0)"></path>
<path d="M 906.304 1182.83 C 899.699 1187.07 893.026 1191.32 886.621 1196.23 C 877.019 1203.58 863.905 1226.77 852.259 1207.82 C 850.819 1205.48 850.562 1199.61 852.427 1197.5 C 896.869 1147.05 970.49 1121.7 1036.98 1128.98 C 1043.93 1129.74 1053.83 1132.12 1055.16 1140.62 C 1057.75 1165.33 998.165 1143.52 990.285 1152.97 L 991.636 1155.05 L 993.165 1155.05 C 1006.47 1176.57 997.807 1207.53 976.304 1220.46 C 965.574 1226.78 952.763 1228.56 940.718 1225.39 C 921.16 1220.36 907.332 1202.88 906.304 1182.83 z" fill="rgb(69,35,19)" transform="translate(0,0)"></path>
<path d="M 991.636 1155.05 L 993.165 1155.05 C 1006.47 1176.57 997.807 1207.53 976.304 1220.46 C 965.574 1226.78 952.763 1228.56 940.718 1225.39 C 921.16 1220.36 907.332 1202.88 906.304 1182.83 L 907.714 1182.6 C 912.556 1200.32 917.719 1212.99 935.302 1221.27 C 945.251 1225.86 956.614 1226.3 966.89 1222.5 C 996.312 1211.91 1001.27 1181.69 991.636 1155.05 z" fill="rgb(236,209,177)" transform="translate(0,0)"></path>
<path d="M 1331.85 1105.4 C 1361.19 1106.98 1386.28 1122.24 1392.81 1153.68 C 1393.5 1157.01 1393.01 1158.48 1391.15 1161.06 C 1379.51 1164.13 1354.52 1123.71 1302.39 1155.12 C 1311.53 1158.19 1316.92 1160.3 1324.59 1166.45 C 1336.75 1176.18 1344.44 1190.43 1345.91 1205.93 C 1346.69 1214.06 1345.16 1231.08 1339.68 1237.61 C 1336.85 1238.78 1338.22 1238.77 1335.43 1237.73 C 1333.34 1235.04 1333.1 1228.03 1332.69 1224.19 C 1330.53 1214.8 1324.74 1207.8 1315.8 1204.33 C 1292.99 1195.51 1273.02 1205.24 1259.1 1224.02 C 1255.95 1228.26 1246.08 1243.68 1242.05 1245.45 L 1241.24 1243.59 C 1241.64 1234.25 1260.55 1161.2 1264.42 1151.56 C 1267.48 1143.86 1271.88 1136.77 1277.42 1130.61 C 1291.95 1114.43 1310.46 1106.68 1331.85 1105.4 z" fill="rgb(192,120,101)" transform="translate(0,0)"></path>
<path d="M 167.191 1106.19 C 221.834 1100.97 249.057 1143.01 255.828 1191.29 C 257.402 1202.52 268.98 1235.72 266.586 1244.27 C 262.674 1243.52 250.205 1225.04 247.194 1220.29 C 234.145 1199.72 196.768 1192.25 180.561 1214.06 L 179.832 1215.05 C 175.862 1223.49 176.668 1232.46 172.231 1236.56 L 170.082 1236.37 C 168.912 1235.32 167.409 1233.88 166.622 1232.53 C 161.459 1223.64 162.355 1206.85 164.629 1197.37 C 168.377 1181.75 179.699 1168.26 193.272 1160.1 C 197.058 1157.82 200.719 1156.92 204.565 1154.6 L 203.845 1152.8 C 199.083 1149.16 192.725 1147.23 186.995 1145.71 C 150.733 1136.11 127.652 1162.89 118.773 1161.13 C 117.914 1160.26 116.301 1159.09 116.329 1157.86 C 116.967 1129.61 142.216 1111.66 167.191 1106.19 z" fill="rgb(192,120,101)" transform="translate(0,0)"></path>
<path d="M 640.074 1232.06 C 658.234 1232.14 669.177 1242.49 673.529 1259.48 C 695.405 1248.83 711.522 1240.41 736.302 1240.97 C 694.562 1257.75 650.975 1280.66 610.846 1301.25 C 596.673 1308.52 578.818 1317.12 565.929 1325.86 C 561.711 1328.72 550.288 1340.78 546.286 1344.84 C 536.157 1355.33 525.776 1365.57 515.151 1375.55 C 509.748 1380.8 468.478 1429.25 467.223 1401.91 C 470.895 1391.04 545.719 1326.68 558.632 1315.03 C 560.903 1312.99 582.866 1303.01 587.497 1300.68 C 613.361 1287.68 640.217 1276.19 665.861 1262.69 C 665.002 1259.18 663.969 1255.72 662.767 1252.32 C 658.44 1240.39 650.666 1236.98 640.074 1232.06 z" fill="rgb(192,120,101)" transform="translate(0,0)"></path>
<path d="M 363.1 1360.2 C 393.628 1358.91 400.277 1382.65 408.144 1406.4 C 417.197 1397.64 432.083 1380.46 439.686 1370.64 L 441.047 1370.76 L 440.216 1370.06 L 441.322 1370.07 C 439.352 1376.29 376.254 1450.56 366.97 1462.34 C 359.142 1471.76 351.46 1481.3 343.926 1490.96 C 339.304 1497 334.876 1503.95 329.804 1509.43 L 328.914 1508.52 C 329.898 1487.05 368.556 1456.62 373.463 1432.32 C 376.979 1414.91 372.681 1394.38 364.248 1378.46 C 360.258 1370.93 350.472 1368.92 342.856 1367.29 C 350.713 1363.35 354.52 1361.89 363.1 1360.2 z" fill="rgb(192,120,101)" transform="translate(0,0)"></path>
<path d="M 205.718 1051.05 C 161.237 918.204 181.653 782.647 243.429 658.937 C 311.444 522.734 430.972 415.555 575.483 366.381 C 714.646 319.026 879.885 329.057 1011.64 394.956 C 1151.7 465.724 1258.07 589.048 1307.5 737.987 C 1335.84 823.398 1345.48 909.401 1325.29 997.785 C 1322.55 1009.8 1314.47 1039.34 1309.43 1050.64 C 1299.51 1077.71 1284.27 1100.74 1269.8 1125.22 C 1249.82 1159.02 1218.3 1131.15 1213.9 1104.08 C 1211.42 1088.83 1211.8 1072.99 1210.3 1057.59 C 1207.9 1033.54 1203.57 1009.72 1197.35 986.364 C 1171.18 888.034 1107.35 787.413 1017.9 735.55 C 958.334 789.601 868.137 826.269 787.934 832.21 C 682.614 839.422 578.754 804.43 499.271 734.956 C 486.073 742.919 472.64 751.254 460.666 760.995 C 380.636 826.099 327.685 926.229 309.886 1026.78 C 307.614 1040.2 305.865 1053.71 304.645 1067.27 C 303.276 1083.25 304.555 1101.51 298.981 1116.9 C 295.698 1131.62 265.511 1145.1 253.493 1136.77 C 235.615 1124.38 212.86 1070.76 205.718 1051.05 z" fill="rgb(155,93,35)" transform="translate(0,0)"></path>
<path d="M 1195.98 1337.86 C 1220.46 1345.14 1238.3 1346.93 1263.86 1343.42 C 1269.49 1342.64 1280.99 1339.7 1285.9 1340.26 C 1265.89 1368.62 1237.99 1406.54 1229.35 1440.01 C 1167.92 1678.05 1469.43 1654.42 1287.24 1913.44 L 1284.81 1916.88 C 1263.42 1908.45 1234.23 1899.64 1211.72 1895.08 C 1220.41 1878.8 1229.21 1865.43 1236.03 1848.03 C 1257.48 1793.3 1255.2 1727.04 1223.28 1676.55 C 1186.05 1617.67 1127.11 1578.55 1120.63 1503.06 C 1120.63 1502.55 1120.63 1502.04 1120.64 1501.53 C 1120.66 1500.18 1120.35 1496.42 1120.94 1495.53 C 1136.89 1471.36 1148.82 1446.74 1160.24 1420.09 C 1168.4 1401.04 1174.46 1383.19 1179.48 1362.96 C 1181.31 1359.31 1192.81 1342.77 1195.98 1337.86 z" fill="rgb(255,255,255)" transform="translate(0,0)"></path>
<path d="M 1390.6 1963.19 C 1390.28 1962.43 1389.97 1961.67 1389.67 1960.9 C 1382.93 1943.64 1409.42 1917.65 1419.15 1903.37 C 1433.43 1882.4 1445.78 1863.05 1456.71 1840.4 C 1489.66 1772.1 1473.83 1706.75 1423.58 1652.44 C 1396.39 1621.82 1371.76 1595.26 1356.78 1555.56 C 1339.47 1509.63 1341.36 1458.67 1362.03 1414.16 C 1366.53 1404.37 1371.63 1394.86 1377.29 1385.69 C 1390.86 1364 1406.82 1343.63 1421.26 1322.49 C 1430.86 1308.44 1439.19 1292.96 1449.75 1279.65 C 1451.92 1276.91 1454.06 1274.62 1457.49 1273.53 C 1461.77 1272.17 1466.49 1273.16 1470.27 1275.45 C 1474.64 1278.09 1478.09 1282.59 1479 1287.66 C 1481.76 1303.14 1427.68 1373.95 1416.93 1388.99 C 1370.74 1453.61 1365.77 1524.35 1415.3 1588.95 C 1436.81 1616.99 1463.46 1641.76 1481.51 1672.25 C 1497.15 1698.67 1504.03 1724.28 1509 1754.27 L 1509 1780.92 L 1509 2048 L 1480.93 2048 C 1458.99 2012.7 1439.99 1994.89 1404.95 1971.55 C 1398.45 1969.47 1395.76 1967.37 1390.6 1963.19 z" fill="rgb(59,156,88)" transform="translate(0,0)"></path>
<path d="M 1509 1780.92 L 1509 2048 L 1480.93 2048 C 1458.99 2012.7 1439.99 1994.89 1404.95 1971.55 C 1408.13 1970.6 1413.59 1969.12 1415.59 1966.49 C 1444.99 1928.05 1474.87 1886.93 1494.08 1842.4 C 1502.53 1822.83 1506.02 1801.2 1509 1780.92 z" fill="rgb(255,255,255)" transform="translate(0,0)"></path>
<path d="M 1285.9 1340.26 C 1293.5 1330.04 1300.74 1319.55 1307.6 1308.81 C 1315.11 1296.85 1336.97 1250.27 1354.68 1285.23 C 1358.19 1292.18 1351.73 1303.29 1348.4 1310.17 C 1336.87 1325.44 1327.22 1344.44 1315.57 1359.36 C 1278.34 1407.03 1247.54 1456.13 1256.36 1519.26 C 1263.69 1571.73 1296.68 1606.36 1330.32 1644.35 C 1382.83 1705.88 1396.36 1781.39 1362.58 1855.71 C 1350.46 1882.37 1335.02 1905.08 1318.48 1929.41 C 1314.6 1934.97 1300.42 1954.27 1298.07 1958.81 C 1283.54 1969.57 1270.37 1960.83 1267.96 1944.11 C 1271.37 1936.06 1279.63 1924.55 1284.81 1916.88 L 1287.24 1913.44 C 1469.43 1654.42 1167.92 1678.05 1229.35 1440.01 C 1237.99 1406.54 1265.89 1368.62 1285.9 1340.26 z" fill="rgb(59,156,88)" transform="translate(0,0)"></path>
<path d="M 133.273 1941.35 L 134.375 1942.86 C 132.079 1948.91 124.075 1961.95 120.397 1968.21 L 89.7645 2019.92 C 85.5181 2027.18 77.3279 2040.62 74.1697 2048 L 0 2048 L 0 2046.77 C 37.3227 1999.43 80.5046 1969.57 133.273 1941.35 z" fill="rgb(240,142,20)" transform="translate(0,0)"></path>
<path d="M 1211.72 1895.08 C 1234.23 1899.64 1263.42 1908.45 1284.81 1916.88 C 1279.63 1924.55 1271.37 1936.06 1267.96 1944.11 C 1270.37 1960.83 1283.54 1969.57 1298.07 1958.81 C 1300.42 1954.27 1314.6 1934.97 1318.48 1929.41 C 1340.92 1938.33 1370.14 1950.69 1390.6 1963.19 C 1395.76 1967.37 1398.45 1969.47 1404.95 1971.55 C 1439.99 1994.89 1458.99 2012.7 1480.93 2048 L 1391.5 2048 L 1054.91 2048 C 1067.94 2000.53 1091.13 1975.83 1139.33 1964.09 C 1139.91 1964.57 1140.5 1965.05 1141.1 1965.51 C 1156.69 1977.55 1166.53 1961.53 1174.94 1950.39 C 1186.7 1931.34 1199.81 1914.85 1211.72 1895.08 z" fill="rgb(236,209,177)" transform="translate(0,0)"></path>
<path d="M 1318.48 1929.41 C 1340.92 1938.33 1370.14 1950.69 1390.6 1963.19 C 1395.76 1967.37 1398.45 1969.47 1404.95 1971.55 C 1439.99 1994.89 1458.99 2012.7 1480.93 2048 L 1391.5 2048 C 1382.12 1996.97 1352.5 1960.81 1298.07 1958.81 C 1300.42 1954.27 1314.6 1934.97 1318.48 1929.41 z" fill="rgb(240,142,20)" transform="translate(0,0)"></path>
<path d="M 1211.72 1895.08 C 1234.23 1899.64 1263.42 1908.45 1284.81 1916.88 C 1279.63 1924.55 1271.37 1936.06 1267.96 1944.11 C 1232.77 1928.58 1208.28 1931.35 1174.94 1950.39 C 1186.7 1931.34 1199.81 1914.85 1211.72 1895.08 z" fill="rgb(240,142,20)" transform="translate(0,0)"></path>
<metadata><recraft-signature>{"signed_by": "recraft", "signature_b64": "UGppXXEn0Z8g+DNgoH8qytsh7BMQQi4AvKXYtG84l75T2vocd0aysq6cooJjHhKVg9vbkvEqubidMGP/LDpmBQ==", "signing_algo": "Ed25519", "generation_timestamp": 1779103131, "identifier": "385625f0-6e64-477c-bfa3-ba32b3f54155"}</recraft-signature></metadata></svg>