<svg xmlns="http://www.w3.org/2000/svg" height="1024" preserveAspectRatio="none" style="display: block;" version="1.1" viewBox="0 0 2048 2048" width="1024">
<path d="M 0 0 L 2048 0 L 2048 2048 L 0 2048 L 0 0 z" fill="rgb(255,255,255)" transform="translate(0,0)"></path>
<path d="M 1163.77 69.389 C 1251.15 63.9146 1320.01 162.047 1346.94 235.797 C 1409.85 408.102 1348.29 577.416 1275.91 735.734 C 1333.87 734.477 1391.84 735.737 1449.65 734.778 C 1450.94 733.438 1452.25 732.109 1453.57 730.792 C 1479.02 705.396 1513.26 698.86 1545.16 718.016 C 1553.1 722.786 1558.74 729.004 1565.16 735.639 C 1608.66 733.798 1657.57 735.496 1701.51 735.022 C 1722.84 734.791 1769.84 733.577 1788.61 735.703 C 1810.21 738.225 1831.4 743.485 1851.67 751.356 C 1893.82 767.465 1932.71 798.114 1951.34 839.995 C 1966.82 875.203 1967.78 915.092 1954.03 951.007 C 1936.5 996.553 1898.49 1028.09 1854.82 1047.4 C 1868.68 1051.97 1882.02 1057.98 1894.61 1065.35 C 1931.08 1086.57 1961.58 1121.15 1972.42 1162.49 C 1982.03 1199.76 1976.54 1239.32 1957.15 1272.58 C 1928.09 1321.83 1873.57 1350.14 1819.81 1363.94 C 1825.51 1366.73 1831.32 1369.38 1837.16 1371.88 C 1886.51 1392.98 1931.41 1431.88 1945.09 1485.75 C 1954.57 1522.82 1949.01 1562.13 1929.61 1595.11 C 1902.12 1640.8 1851.37 1671.59 1800.45 1684.14 C 1850.6 1711.38 1883.65 1751.64 1884.13 1810.8 C 1884.55 1849.18 1869.38 1886.08 1842.09 1913.07 C 1778.34 1977.27 1680.57 1974.86 1596.96 1974.82 L 1471.41 1974.63 L 1039.75 1974.95 C 948.292 1976.23 828.779 1942.03 748.236 1899.74 C 727.042 1888.62 706.294 1873.97 686.07 1861.54 C 673.636 1853.9 654.503 1855.13 640.731 1844.19 C 621.795 1829.14 606.275 1809.45 588.411 1793.11 L 445.398 1793.12 C 441.679 1816.11 436.564 1833.87 420.109 1851.13 C 401.935 1870.19 378.623 1880.01 352.376 1879.94 C 324.438 1879.86 295.981 1880.61 267.971 1880.14 C 241.446 1879.7 207.163 1882.11 181.767 1877.15 C 166.876 1874.24 145.435 1861.1 134.641 1850.44 C 111.419 1827.52 101.797 1802.06 101.398 1769.8 C 101.045 1741.32 101.408 1713.3 101.53 1684.87 L 101.562 1561.77 L 101.493 1195.08 L 101.913 1029.56 C 101.788 977.335 91.8742 935.195 132.299 892.736 C 178.162 844.567 238.468 860.788 298.203 858.13 C 317.36 857.277 358.065 856.622 375.524 861.063 C 392.43 865.527 407.891 874.292 420.403 886.506 C 440.13 905.68 448.584 928.069 449.048 955.246 L 568.496 954.974 C 544.918 930.357 516.998 911.616 516.9 875.32 C 516.815 843.594 534.341 827.404 554.555 806.48 L 586.734 773.377 C 603.363 756.4 632.02 723.586 651.987 713.598 C 661.141 709.019 671.643 706.905 681.836 706.876 C 693.176 706.844 704.726 709.019 714.764 714.419 C 733.075 724.269 777.948 772.516 795.47 789.778 C 839.277 757.394 898.301 696.118 932.601 653.903 C 985.096 589.293 1026.87 510.603 1042.67 428.39 C 1049.16 394.577 1048.25 366.488 1048.19 332.397 L 1048.03 250.925 C 1048 238.755 1048.05 226.585 1048.1 214.417 C 1048.37 144.945 1089.58 76.5778 1163.77 69.389 z" fill="rgb(12,6,5)" transform="translate(0,0)"></path>
<path d="M 1567.7 738.079 L 1711.4 737.724 C 1731.77 737.691 1770.42 736.507 1789.35 738.571 C 1809.32 740.877 1828.93 745.649 1847.72 752.78 C 1891.12 769.16 1929.76 798.008 1948.96 841.309 C 1964.2 875.906 1965.1 915.137 1951.45 950.393 C 1932.88 998.5 1893.3 1027.48 1847.94 1047.79 C 2012.73 1103.05 2018.67 1285.23 1856.31 1349.32 C 1851.35 1351.28 1817.8 1362.16 1816.52 1363.25 C 1817.38 1368.17 1839.36 1375.23 1845.59 1378.31 C 1884.27 1397.42 1918.76 1426.62 1935.93 1466.63 C 1950.45 1500.95 1950.83 1539.63 1936.98 1574.23 C 1916.58 1624.65 1866.98 1661 1816.16 1676.41 C 1808.76 1678.65 1801.27 1680.85 1794.19 1683.99 C 1836.05 1705.61 1868.58 1735.21 1878.83 1783.2 C 1886.58 1819.78 1879.17 1857.94 1858.3 1888.97 C 1797.74 1980.86 1667.54 1972.08 1571.54 1972.04 L 1382.55 1971.91 L 1139.21 1971.94 C 1102.62 1971.94 1053.71 1973.59 1018.43 1971.8 C 989.132 1970.05 959.992 1966.3 931.205 1960.6 C 836.462 1942 764.596 1910.41 685.105 1857.67 C 690.357 1857.25 694.694 1856.32 699.842 1855.34 C 729.245 1847.63 747.508 1823.38 768.397 1802.33 L 835.795 1734.55 L 964.888 1604.49 C 1006.56 1561.92 1051.36 1514.86 1094.3 1473.85 L 1364.59 1744.21 L 1429.05 1808.94 C 1452.91 1832.99 1471.69 1858.32 1508.12 1857.44 C 1519.72 1857.16 1534.05 1854.9 1543.77 1848.65 C 1563.61 1835.88 1582.53 1813.98 1599.17 1797.13 L 1646.11 1750.34 C 1662.05 1734.29 1671.32 1717.61 1671 1694.38 C 1670.77 1679.2 1665.89 1664.46 1657.01 1652.15 C 1646.66 1638.09 1624.77 1617.38 1611.78 1604.36 L 1535.04 1527.6 L 1290.17 1281.72 C 1319.96 1250.88 1350.99 1220.51 1381.15 1189.96 L 1644.21 924.076 C 1659.42 908.667 1668.68 890.823 1668.45 868.812 C 1668.31 855.916 1664.83 843.276 1658.37 832.117 C 1650.21 818.184 1632.97 802.998 1621.07 791.084 C 1603.39 773.305 1585.6 755.636 1567.7 738.079 z" fill="rgb(239,164,139)" transform="translate(0,0)"></path>
<path d="M 900.44 1284.92 C 890.049 1272.35 873.214 1255.91 861.473 1244.12 L 802.218 1184.73 L 612.883 994.713 L 562.886 945.37 C 539.527 922.384 516.145 903.921 519.792 867.568 C 520.986 856.556 524.833 845.998 531.002 836.799 C 541.522 820.896 558.807 806.378 571.858 792.307 C 586.957 776.028 603.415 760.368 618.941 744.532 C 641.417 721.604 656.871 706.488 690.919 710.072 C 702.672 711.214 713.842 715.737 723.078 723.094 C 733.758 731.516 751.858 750.4 761.729 760.239 L 833.185 831.951 C 920.352 919.293 1007.2 1009.06 1095.03 1095.61 L 1356.25 833.104 L 1426.74 761.629 C 1439.57 748.581 1451.33 735.06 1466.36 722.989 C 1487.45 706.453 1518.57 706.26 1541.6 718.856 C 1548.22 722.48 1558.73 732.287 1564.17 737.999 C 1592.37 767.638 1629.15 799.182 1654.53 830.46 C 1670.02 849.555 1668.16 890.802 1653.15 909.143 C 1644.43 920.943 1631.19 933.152 1620.8 943.626 L 1566.49 998.456 L 1377.94 1189.32 L 1320.21 1247.54 C 1310.32 1257.44 1295.26 1271.54 1286.42 1281.83 L 1541.42 1538.02 L 1612.27 1608.87 C 1626.74 1623.31 1642.79 1638.33 1655.16 1654.09 C 1670.38 1673.47 1672.65 1707.69 1659.67 1728.75 C 1645.57 1751.06 1623.59 1767.51 1605.69 1786.86 C 1591.01 1802.74 1574.6 1816.76 1559.95 1833.01 C 1538.05 1857.32 1494.43 1862.42 1468.11 1842.72 C 1452.56 1831.07 1433.52 1809.97 1419.17 1795.49 L 1338.88 1714.89 L 1094.02 1469.68 L 846.266 1720.15 L 768.106 1799.05 C 754.235 1813 739.232 1829.04 724.223 1841.39 C 714.894 1849.07 695.934 1855.43 683.451 1855.08 C 645.589 1854.05 629.116 1830.12 604.683 1805.82 C 592.531 1793.74 581.102 1783.03 569.22 1770.78 C 565.538 1766.98 553.481 1754.4 549.847 1751.68 C 545.936 1749.76 544.464 1748.59 542.019 1744.63 L 541.555 1744.31 C 539.346 1742.74 538.085 1742.58 537.832 1739.89 C 517.771 1712.69 513.784 1678.95 536.367 1651.37 C 550.655 1633.92 567.747 1618.21 583.714 1602.21 L 663.132 1522.59 C 741.785 1442.92 820.889 1363.69 900.44 1284.92 z" fill="rgb(241,3,14)" transform="translate(0,0)"></path>
<path d="M 542.019 1744.63 C 545.614 1747.01 546.971 1748.47 549.847 1751.68 C 545.936 1749.76 544.464 1748.59 542.019 1744.63 z" fill="rgb(54,4,3)" transform="translate(0,0)"></path>
<path d="M 537.832 1739.89 C 539.786 1741.11 540.212 1742.29 541.555 1744.31 C 539.346 1742.74 538.085 1742.58 537.832 1739.89 z" fill="rgb(54,4,3)" transform="translate(0,0)"></path>
<path d="M 201.575 861.326 C 202.628 861.169 202.617 861.136 203.719 861.118 C 250.816 860.328 297.97 861.106 345.082 860.687 C 354.764 860.601 363.971 860.965 373.418 863.223 C 389.62 867.226 404.522 875.329 416.69 886.752 C 439.398 907.735 445.34 928.189 446.455 957.819 C 484.479 958.774 533.497 958.638 571.371 957.305 C 591.168 975.752 612.946 998.518 632.248 1017.88 L 747.04 1133.18 L 839.719 1226.09 C 857.694 1244.12 880.25 1265.65 896.8 1284.66 L 661.017 1521.43 L 584.515 1598.03 C 565.839 1616.68 534.811 1644.01 523.809 1667.15 C 514.488 1693.56 517.305 1720.44 536.412 1741.87 C 542.085 1748.23 548.534 1754.06 554.584 1760.08 L 584.579 1790.08 C 537.893 1791.63 489.358 1789.91 442.555 1790.55 C 439.382 1831.18 412.697 1869.38 369.437 1876.01 C 343.26 1877.42 313.516 1879.22 287.384 1877.7 C 241.011 1875.01 187.65 1887.69 148.15 1858.22 C 104.318 1825.5 104.078 1791.56 104.38 1742.88 L 104.721 1676.9 L 104.724 1431.32 L 104.867 1102.15 L 104.687 1010.53 C 104.239 967.355 99.0895 933.248 130.512 898.372 C 150.438 876.256 172.377 865.462 201.575 861.326 z" fill="rgb(239,164,139)" transform="translate(0,0)"></path>
<path d="M 1161.54 72.3639 C 1179.22 70.742 1199.39 74.3442 1215.65 81.5664 C 1275.31 108.067 1316.57 167.67 1340.51 226.442 C 1359.61 273.364 1366.25 311.968 1369.37 361.72 C 1376.38 473.665 1340.86 576.77 1298.33 678.607 C 1289.93 698.72 1280.4 718.563 1271.83 738.757 C 1327.67 736.5 1390.66 737.847 1447.09 737.624 C 1432.17 751.975 1416.55 768.517 1401.81 783.347 L 1306.43 879.546 L 1139.36 1047.71 C 1124.81 1062.56 1110.05 1077.19 1095.09 1091.62 L 797.506 792.055 C 914.521 694.767 1021.43 573.216 1047.3 417.512 C 1052.32 387.274 1051.38 359.201 1051.23 328.782 L 1051.01 250.275 C 1050.96 227.157 1049.82 203.321 1054.32 180.664 C 1058.88 156.56 1069.28 133.941 1084.6 114.781 C 1104.4 90.4276 1130.24 75.6314 1161.54 72.3639 z" fill="rgb(239,164,139)" transform="translate(0,0)"></path>
<metadata><recraft-signature>{"signed_by": "recraft", "signature_b64": "UdcBDLYkXSmToKc0VUirbOdfGHCGmTv/ubz+Ll2sMbRqEIRr5jBWa1xw5cNNsaesARUR6HXTX3l3+/6Eg2T5BA==", "signing_algo": "Ed25519", "generation_timestamp": 1779104424, "identifier": "0bbc6445-0bfa-425f-ae43-becb6ad3143f"}</recraft-signature></metadata></svg>