<svg xmlns="http://www.w3.org/2000/svg" height="1216" preserveAspectRatio="none" style="display: block;" version="1.1" viewBox="0 0 1509 2048" width="896">
<path d="M 0 0 L 1509 0 L 1509 2048 L 0 2048 L 0 0 z" fill="rgb(255,255,255)" transform="translate(0,0)"></path>
<path d="M 302.819 892.682 C 302.808 858.45 301.272 806.648 304.556 774.365 C 311.464 706.453 345.126 638.281 393.315 590.103 C 446.823 537.618 516.753 505.132 591.373 498.093 C 622.068 495.356 670.955 496.858 703.646 496.854 L 870.032 496.905 C 887.757 496.939 903.918 496.742 921.604 498.699 C 999.481 507.464 1072.02 542.593 1127.19 598.256 C 1147.83 618.755 1165.47 642.067 1179.6 667.501 C 1202.19 708.136 1206.91 744.987 1250.83 768.178 C 1265.9 776.099 1282.68 780.193 1299.7 780.1 C 1322.03 780.126 1341.68 774.671 1361.51 764.85 C 1330.14 825.769 1285.14 858.789 1220.28 879.52 C 1215.85 880.93 1211.41 882.302 1206.95 883.636 L 1206.93 977.97 C 1232.33 996.104 1250.72 1022.78 1255.82 1053.85 C 1260.81 1083.63 1253.77 1114.18 1236.24 1138.77 C 1227.91 1150.35 1217.97 1158.91 1206.87 1167.64 L 1206.68 1191.26 C 1206.85 1214.42 1207.7 1238.93 1205.5 1261.73 C 1195.33 1366.94 1109.87 1463.91 1004.03 1479.5 C 967.279 1484.91 917.151 1481.64 878.753 1482.26 C 878.688 1478.84 879.985 1475.66 881.029 1472.33 C 861.564 1477.93 821.699 1489.49 803.044 1490.1 C 750.161 1500 685.069 1488.81 634.73 1472.29 L 634.893 1482.15 C 560.14 1482.04 490.962 1490.14 424.527 1448.28 C 345.904 1398.75 305.174 1322.1 304.831 1229.12 C 303.37 1217.47 304.101 1182.41 304.081 1168.8 C 264.641 1140.22 251.324 1104.88 255.295 1057.32 C 260.421 1025.25 276.432 999.461 302.494 980.372 C 302.312 953.929 301.163 918.332 302.819 892.682 z" fill="rgb(250,170,129)" transform="translate(0,0)"></path>
<path d="M 302.819 892.682 C 302.808 858.45 301.272 806.648 304.556 774.365 C 311.464 706.453 345.126 638.281 393.315 590.103 C 446.823 537.618 516.753 505.132 591.373 498.093 C 622.068 495.356 670.955 496.858 703.646 496.854 L 870.032 496.905 C 887.757 496.939 903.918 496.742 921.604 498.699 C 999.481 507.464 1072.02 542.593 1127.19 598.256 C 1147.83 618.755 1165.47 642.067 1179.6 667.501 C 1202.19 708.136 1206.91 744.987 1250.83 768.178 C 1265.9 776.099 1282.68 780.193 1299.7 780.1 C 1322.03 780.126 1341.68 774.671 1361.51 764.85 C 1330.14 825.769 1285.14 858.789 1220.28 879.52 C 1215.85 880.93 1211.41 882.302 1206.95 883.636 L 1206.93 977.97 C 1205.18 977.49 1196.98 973.249 1194.85 972.234 C 1177.05 963.785 1163.58 961.097 1144.13 960.833 L 1143.98 920.372 C 1065.72 925.436 1028.02 916.6 958.888 884.827 C 952.758 887.433 946.581 889.931 940.363 892.319 C 872.047 918.488 801.019 915.295 734.542 885.515 C 668.032 855.152 614.372 802.287 583.02 736.237 C 577.609 724.429 572.832 712.341 568.709 700.024 C 567.363 695.881 563.753 679.777 560.437 678.376 C 542.928 749.005 508.53 822.573 443.978 861.753 C 418.113 877.452 398.098 882.016 368.882 886.395 C 368.803 910.717 369.136 936.252 368.605 960.465 C 340.135 961.733 327.719 964.781 303.107 979.86 C 303.102 954.891 304.347 916.551 302.819 892.682 z" fill="rgb(136,79,10)" transform="translate(0,0)"></path>
<path d="M 560.437 678.376 L 565.768 650.95 C 586.005 714.847 609.683 756.949 658.487 803.382 C 679.81 824.025 703.965 841.526 730.224 855.357 C 798.864 891.068 867.721 898.572 942.203 875.7 C 952.747 872.463 969.799 865.928 978.983 860.115 C 991.552 864.335 1004.39 870.842 1016.95 874.941 C 1060.45 889.126 1097.68 893.678 1143.06 892.983 C 1143.49 902.157 1143.96 911.183 1143.98 920.372 C 1065.72 925.436 1028.02 916.6 958.888 884.827 C 952.758 887.433 946.581 889.931 940.363 892.319 C 872.047 918.488 801.019 915.295 734.542 885.515 C 668.032 855.152 614.372 802.287 583.02 736.237 C 577.609 724.429 572.832 712.341 568.709 700.024 C 567.363 695.881 563.753 679.777 560.437 678.376 z" fill="rgb(221,140,108)" transform="translate(0,0)"></path>
<path d="M 796.909 691.35 C 799.836 692.815 811.789 713.307 814.427 717.448 C 848.79 771.377 897.488 817.301 953.941 847.478 C 961.943 851.756 971.259 855.654 978.983 860.115 C 973.222 860.777 967.935 861.03 962.127 861.071 C 877.876 861.67 812.815 766.593 796.909 691.35 z" fill="rgb(221,140,108)" transform="translate(0,0)"></path>
<path d="M 1205.66 1207.12 C 1205.61 1203.32 1204.97 1193.97 1206.68 1191.26 C 1206.85 1214.42 1207.7 1238.93 1205.5 1261.73 C 1195.33 1366.94 1109.87 1463.91 1004.03 1479.5 C 967.279 1484.91 917.151 1481.64 878.753 1482.26 C 878.688 1478.84 879.985 1475.66 881.029 1472.33 C 898.028 1468.2 930.484 1453.43 945.921 1445.2 C 1031.49 1399.59 1101.08 1316.11 1129.14 1223.1 C 1148.82 1223.93 1187.09 1213.28 1205.66 1207.12 z" fill="rgb(136,79,10)" transform="translate(0,0)"></path>
<path d="M 305.107 1208.19 C 319.622 1213.51 365.814 1225.48 379.96 1222.66 L 381.673 1221.23 C 412.396 1317.99 477.952 1400.06 568.662 1446.56 C 579.926 1452.34 622.988 1471.34 634.73 1472.29 L 634.893 1482.15 C 560.14 1482.04 490.962 1490.14 424.527 1448.28 C 345.904 1398.75 305.174 1322.1 304.831 1229.12 C 305.346 1223.51 305.088 1214.08 305.107 1208.19 z" fill="rgb(136,79,10)" transform="translate(0,0)"></path>
<path d="M 372.949 1186.36 C 379.872 1194.89 388.966 1214.96 394.834 1225.33 C 405.975 1244.63 418.091 1263.34 431.137 1281.4 C 443.348 1298.46 456.461 1313.25 470.396 1328.78 C 548.021 1415.26 645.894 1470.84 761.687 1486.58 C 772.169 1488 792.566 1490 803.044 1490.1 C 750.161 1500 685.069 1488.81 634.73 1472.29 C 622.988 1471.34 579.926 1452.34 568.662 1446.56 C 477.952 1400.06 412.396 1317.99 381.673 1221.23 C 378.296 1209.51 375.259 1198.33 372.949 1186.36 z" fill="rgb(221,140,108)" transform="translate(0,0)"></path>
<path d="M 255.295 1057.32 L 257.549 1056.79 C 261.23 1060.73 262.937 1073.74 265.59 1080.18 C 277.242 1108.47 297.557 1136.24 321.688 1155.2 C 334.08 1164.94 357.59 1171.68 371.621 1179.37 C 372.083 1180.56 372.475 1181.57 372.797 1182.4 L 372.949 1186.36 C 375.259 1198.33 378.296 1209.51 381.673 1221.23 L 379.96 1222.66 C 365.814 1225.48 319.622 1213.51 305.107 1208.19 C 305.088 1214.08 305.346 1223.51 304.831 1229.12 C 303.37 1217.47 304.101 1182.41 304.081 1168.8 C 264.641 1140.22 251.324 1104.88 255.295 1057.32 z" fill="rgb(221,140,108)" transform="translate(0,0)"></path>
<path d="M 304.969 1168.91 C 328.48 1181.01 346.571 1184.72 372.797 1182.4 L 372.949 1186.36 C 375.259 1198.33 378.296 1209.51 381.673 1221.23 L 379.96 1222.66 C 365.814 1225.48 319.622 1213.51 305.107 1208.19 L 304.969 1168.91 z" fill="rgb(117,68,12)" transform="translate(0,0)"></path>
<path d="M 1138.55 1182.06 C 1156.99 1183.24 1173.31 1182.07 1190.73 1175.21 C 1196.25 1173.04 1201.31 1169.32 1206.87 1167.64 L 1206.68 1191.26 C 1204.97 1193.97 1205.61 1203.32 1205.66 1207.12 C 1187.09 1213.28 1148.82 1223.93 1129.14 1223.1 C 1133.25 1209.65 1135.9 1195.85 1138.55 1182.06 z" fill="rgb(117,68,12)" transform="translate(0,0)"></path>
<path d="M 749.185 987.002 C 749.832 987.058 750.478 987.128 751.123 987.212 C 755.257 987.768 759.298 989.584 761.668 993.18 C 769.913 1005.69 746.886 1108.82 741.866 1127.98 C 737.054 1146.35 730.005 1164.45 725.822 1182.87 L 725.545 1184.11 C 748.937 1197.59 778.963 1189.28 803.254 1182.75 C 818.551 1191.54 820.669 1205.07 803.473 1213.07 C 782.776 1221.06 758.334 1222.1 736.16 1219.16 C 719.753 1218.77 692.99 1195.95 697.932 1178.05 C 704.369 1154.73 712.454 1130.94 717.956 1106.26 C 722.713 1085.2 726.741 1063.98 730.032 1042.65 C 732.257 1027.55 733.624 1010.89 736.488 996.119 C 740.828 990.675 743.079 989.471 749.185 987.002 z" fill="rgb(221,140,108)" transform="translate(0,0)"></path>
<path d="M 494.22 928.202 C 499.472 928.256 503.814 929.361 508.829 930.725 C 564.301 945.872 619.605 961.725 674.962 977.284 C 696.962 983.468 696.63 1009.02 675.155 1018.5 C 666.694 1018.32 495.803 970.38 488.299 966.356 C 483.469 963.766 479.673 959.126 478.161 953.865 C 476.705 948.802 477.241 942.433 479.986 937.882 C 483.273 932.435 488.299 929.754 494.22 928.202 z" fill="rgb(117,68,12)" transform="translate(0,0)"></path>
<path d="M 1015.13 927.123 C 1039.21 929.868 1042.12 959.555 1020.88 966.342 C 994.783 974.681 967.739 982.923 941.184 989.798 C 907.971 998.397 873.591 1011.05 840.26 1018.13 C 816.538 1018.38 813.446 987.232 830.591 980.626 C 849.251 973.437 873.471 967.363 892.668 961.921 L 1015.13 927.123 z" fill="rgb(117,68,12)" transform="translate(0,0)"></path>
<path d="M 531.941 1003.15 C 557.829 1010.42 583.746 1017.62 609.479 1025.43 C 618.606 1028.2 627.722 1030.97 637.01 1033.15 C 637.244 1056.96 637.435 1068.56 621.775 1087.69 C 612.052 1097.95 599.236 1104.27 584.971 1104.31 C 570.901 1104.41 557.409 1098.72 547.661 1088.57 C 526.27 1066.46 531.543 1032.93 531.941 1003.15 z" fill="rgb(136,79,10)" transform="translate(0,0)"></path>
<path d="M 976.037 1004.13 C 976.955 1004.23 976.977 1004.45 977.88 1005.04 C 978.026 1005.96 978.143 1006.89 978.23 1007.82 C 978.595 1011.72 978.11 1022.91 978.159 1027.68 C 978.381 1049.53 980.283 1067.5 965.38 1085.49 C 956.53 1096.18 943.753 1102.87 929.923 1104.04 C 913.934 1105.36 902.541 1100.11 890.777 1089.97 C 873.987 1072.93 873.106 1056.53 873.628 1034.1 C 902.937 1023.79 945.534 1012.78 976.037 1004.13 z" fill="rgb(136,79,10)" transform="translate(0,0)"></path>
<path d="M 734.617 1288.39 C 739.425 1287.55 755.231 1287.53 760.41 1287.66 C 794.997 1288.19 828.858 1297.66 858.699 1315.16 C 868.751 1321.03 888.77 1332.05 874.71 1345.23 C 865.965 1353.43 847.878 1339.49 839.032 1334.92 C 817.702 1323.88 798.195 1317.9 774.246 1315.15 C 733.864 1312.48 706.133 1316.83 669.252 1335.68 C 660.867 1339.96 652.385 1346.95 643.876 1349.5 C 641.401 1350.08 637.836 1348.76 635.972 1347.24 C 618.26 1332.72 640.594 1320.55 651.737 1314.5 C 677.833 1300.33 705.188 1291.21 734.617 1288.39 z" fill="rgb(136,79,10)" transform="translate(0,0)"></path>
<path d="M 361.606 1005.36 C 364.316 1004.86 366.449 1004.65 368.542 1006.25 C 369.794 1017.75 369.135 1039.77 369.158 1052.3 L 369.36 1137.61 C 351.358 1136.77 342.627 1135.02 328.396 1123.73 C 288.743 1088.16 302.794 1011.84 361.606 1005.36 z" fill="rgb(206,126,101)" transform="translate(0,0)"></path>
<path d="M 1144 1005.01 C 1159.38 1005.07 1172.1 1008.15 1184.08 1018.37 C 1197.45 1029.87 1205.7 1046.21 1207.02 1063.8 C 1208.47 1084.9 1202.16 1104.06 1188.28 1119.92 C 1172.6 1134.25 1164.25 1135.87 1144.08 1136.66 L 1144 1005.01 z" fill="rgb(206,126,101)" transform="translate(0,0)"></path>
<path d="M 803.044 1490.1 C 821.699 1489.49 861.564 1477.93 881.029 1472.33 C 879.985 1475.66 878.688 1478.84 878.753 1482.26 C 875.87 1487.32 873.725 1493.67 871.658 1499.19 C 890.208 1499.16 910.829 1498.59 929.156 1500.54 C 989.724 1506.98 1042.36 1542.21 1084.56 1584.41 C 1116.28 1616.13 1162.26 1679.65 1177.69 1721.88 C 1184.61 1740.46 1188.19 1760.12 1188.27 1779.95 C 1188.33 1816.49 1173.67 1851.52 1147.6 1877.11 C 1120.82 1903.46 1080.06 1917.6 1042.67 1917.27 C 1020.54 1917.07 1000.21 1911.35 978.748 1906.38 C 959.107 1901.78 939.44 1897.3 919.748 1892.92 L 840.557 1874.85 C 826.022 1871.58 802.972 1867.03 789.132 1862.83 C 766.506 1856.99 738.523 1850.89 715.716 1846.22 C 710.32 1847.53 704.58 1849.32 699.27 1851.06 C 655.791 1864.68 612.234 1878.53 568.762 1892.14 C 537.191 1902.02 495.607 1918.66 463.073 1919.19 C 425.007 1919.48 388.41 1904.52 361.46 1877.63 C 336.003 1852.52 321.665 1818.27 321.652 1782.51 C 321.158 1710.09 378.867 1635.41 425.939 1585.09 C 465.406 1542.91 521.608 1507.42 579.565 1500.95 C 598.937 1498.79 619.533 1499.05 639.319 1498.96 C 637.741 1494.56 636.077 1486.9 634.893 1482.15 L 634.73 1472.29 C 685.069 1488.81 750.161 1500 803.044 1490.1 z" fill="rgb(250,170,129)" transform="translate(0,0)"></path>
<path d="M 803.044 1490.1 C 821.699 1489.49 861.564 1477.93 881.029 1472.33 C 879.985 1475.66 878.688 1478.84 878.753 1482.26 C 875.87 1487.32 873.725 1493.67 871.658 1499.19 C 871.232 1500.22 870.782 1501.23 870.31 1502.24 C 855.299 1534.43 830.637 1558.94 796.802 1570.87 C 763.988 1582.73 727.756 1580.71 696.47 1565.26 C 665.62 1550.15 650.142 1530.14 639.319 1498.96 C 637.741 1494.56 636.077 1486.9 634.893 1482.15 L 634.73 1472.29 C 685.069 1488.81 750.161 1500 803.044 1490.1 z" fill="rgb(206,126,101)" transform="translate(0,0)"></path>
<path d="M 1018.23 1716.92 C 1029.31 1719.55 1045.55 1723.91 1056.42 1725.57 C 1046.35 1740.17 1031.68 1752.3 1017.71 1763.15 C 990.309 1784.42 957.432 1794.73 925.216 1806.68 L 850.783 1834.41 C 826.063 1843.75 811.162 1848.21 789.132 1862.83 C 766.506 1856.99 738.523 1850.89 715.716 1846.22 C 723.711 1841.35 759.039 1831.54 769.709 1828.27 L 912.632 1783.14 C 931.65 1777.01 950.956 1771.46 969.867 1764.93 C 995.224 1756.18 1007.7 1741.08 1018.23 1716.92 z" fill="rgb(206,126,101)" transform="translate(0,0)"></path>
<path d="M 585.487 1638.4 C 617.326 1636.37 652.55 1648.47 683.959 1654.8 C 692.872 1656.59 715.154 1661.38 722.789 1663.97 L 577.742 1696.33 C 539.734 1703.19 500.266 1714.5 461.467 1721.5 C 487.079 1672.99 530.742 1643.35 585.487 1638.4 z" fill="rgb(206,126,101)" transform="translate(0,0)"></path>
<path d="M 849.843 137.459 C 920.033 139.129 960.618 176.634 985.435 239.081 C 989.439 237.235 993.507 235.532 997.632 233.976 C 1028.11 222.663 1061.89 224.255 1091.17 238.385 C 1129.25 256.421 1144.5 284.75 1157.65 321.967 C 1158.11 321.763 1158.58 321.567 1159.05 321.378 C 1179.28 313.295 1204.46 314.489 1224.39 322.954 C 1245.47 332.085 1262.07 349.217 1270.52 370.582 C 1279.94 394.626 1277.82 415.88 1267.88 438.989 L 912.5 439.033 L 485.359 438.732 C 484.564 437.383 483.799 436.017 483.063 434.635 C 477.128 423.414 477.361 410.825 481.195 398.944 C 486.719 382.27 498.632 368.468 514.32 360.566 C 533.977 350.622 549.456 351.225 569.56 357.795 C 576.048 286.271 644.592 244.544 711.718 270.791 C 716.868 192.692 771.913 140.968 849.843 137.459 z" fill="rgb(136,79,10)" transform="translate(0,0)"></path>
<metadata><recraft-signature>{"signed_by": "recraft", "signature_b64": "sEkP6r4Yr/WivLozATDaLnbqfwb+ceT2kVCAEuDKCCrgzgOyCFduMDp/PeqVpsZ4dKYfkzmQsn476ZDNhX1KAQ==", "signing_algo": "Ed25519", "generation_timestamp": 1779103212, "identifier": "2962ef18-e73c-4d5e-a7fe-229a88479829"}</recraft-signature></metadata></svg>