<svg xmlns="http://www.w3.org/2000/svg" height="1280" preserveAspectRatio="none" style="display: block;" version="1.1" viewBox="0 0 1331 2048" width="832">
<path d="M 0 0 L 574.235 0 L 613.638 0 L 1331 0 L 1331 731.522 L 1331 746.612 L 1331 1973.25 L 1331 1984.72 L 1331 2048 L 217.501 2048 L 177.458 2048 L 0 2048 L 0 1923.85 L 0 1898.37 L 0 0 z" fill="rgb(43,33,29)" transform="translate(0,0)"></path>
<path d="M 0 0 L 574.235 0 C 558.49 2.23676 544.073 4.13068 528.568 8.36916 C 468.673 24.7419 419.373 63.0408 382.053 112.08 C 355.914 146.426 330.014 201.61 335.602 246.114 C 336.399 254.247 340.161 265.967 338.888 274.015 C 335.561 295.055 319.143 318.688 341.302 335.608 C 354.487 345.677 372.363 342.527 386.739 337.725 C 395.211 357.161 405.29 375.853 418.944 392.678 C 427.389 403.084 439.257 410.574 445.873 423.717 C 455.131 442.108 428.04 460.443 453.922 474.057 C 460.183 477.351 473.523 475.706 480.087 474.615 C 505.547 502.157 529.68 519.457 566.165 529.96 C 614.359 543.834 645.402 532.962 677.971 495.985 C 683.349 503.185 688.449 509.209 695.11 515.326 C 669.616 567.469 675.763 648.299 690.482 702.661 C 697.945 730.226 708.737 758.61 716.845 786.279 C 680.392 809.682 644.851 835.027 608.554 858.73 C 603.303 862.159 607.41 872.898 604.446 874.814 C 583.348 888.451 561.523 886.823 537.665 889.019 C 501.01 892.741 473.513 904.251 443.344 924.828 C 436.399 929.713 424.436 935.826 419.731 942.899 C 408.396 959.939 402.136 982.355 394.656 1001.35 C 392.309 1010.05 394.849 1016.9 403.287 1020.58 C 406.434 1021.95 408.47 1026.86 411.949 1027.37 C 429.009 1029.9 450.73 1000.06 459.986 989.003 C 460.002 1034.1 488.461 1026.83 522.815 1025.58 C 517.918 1048.22 512.573 1073.59 508.48 1096.38 C 432.837 1115.67 345.613 1125.58 302.562 1198.13 C 294.885 1211 289.252 1224.98 285.862 1239.58 C 282.264 1254.51 281.704 1266.39 279.978 1281.48 C 279.105 1289.11 276.4 1300.96 274.854 1308.67 L 229.804 1524.88 L 195.094 1691.16 L 185.7 1735.79 C 184.326 1742.19 181.222 1754.64 180.748 1760.48 C 181.776 1762.11 183.27 1763.89 183.203 1765.66 C 172.276 1774.21 113.149 1801.29 98.4025 1806.65 C 64.472 1818.96 32.2019 1824.16 11.6093 1860.1 C 2.67525 1875.7 4.12595 1883.32 0 1898.37 L 0 0 z" fill="rgb(254,254,254)" transform="translate(0,0)"></path>
<path d="M 556.461 1424.87 C 576.009 1437.04 610.412 1461.64 631.81 1466.85 C 636.761 1468.06 662.601 1466.55 669.068 1466.29 L 596.385 1806.52 L 564.555 1950.83 C 560.023 1971.51 555.366 1992.16 550.629 2012.79 C 546.982 2024.89 562.093 2030.45 571.524 2032.19 C 586.659 2034.98 606.722 2035.25 620.392 2026.87 C 625.021 2024.04 626.482 2019.87 627.669 2014.86 C 633.534 1990.16 638.353 1965.1 643.478 1940.21 C 653.553 1892.11 663.305 1843.94 672.732 1795.7 L 739.598 1463.57 C 782.547 1461.74 827.188 1461.07 870.267 1459.94 L 1008.27 1455.95 L 1062.1 1717.63 C 1066.48 1738.49 1070.27 1759.55 1074.5 1780.44 C 1077.24 1794.03 1079.62 1809.13 1084.14 1822.18 C 1099.68 1834.8 1141.84 1839.85 1157.04 1821.19 C 1161.87 1815.25 1153.85 1786.28 1151.79 1776.46 L 1136.43 1704.78 L 1083.28 1454.16 C 1105.3 1453.58 1127.31 1453.11 1149.33 1452.76 C 1154.32 1483.45 1161.98 1515.66 1167.96 1546.3 L 1217.05 1792.59 C 1228.7 1850.77 1240.76 1908.83 1251.79 1967.14 C 1253.16 1974.35 1254.71 1981.81 1256.92 1988.79 C 1275.96 2002.57 1315.32 2003.56 1331 1984.72 L 1331 2048 L 217.501 2048 C 230.557 2045.49 246.179 2044.3 259.737 2042.39 C 307.598 2035.66 354.608 2023.77 402.109 2015.12 C 423.714 2011.18 467.166 1999.6 482.759 1984.17 C 484.638 1944.6 484.325 1920.97 480.546 1881.52 C 485.749 1879.05 490.78 1876.18 495.821 1873.39 C 505.212 1798.05 515.311 1722.8 526.119 1647.65 C 536.03 1574.27 545.251 1497.84 556.461 1424.87 z" fill="rgb(254,254,254)" transform="translate(0,0)"></path>
<path d="M 613.638 0 L 1331 0 L 1331 731.522 C 1328.49 723.6 1326.66 715.956 1319.11 711.225 C 1310.41 705.779 1301.24 700.918 1292.25 695.952 L 1241.44 667.983 L 1181.85 635.39 C 1173.14 630.696 1158.46 622.49 1149.91 619.232 C 1140.22 615.537 1112.03 616.033 1102.83 620.956 C 1089.52 628.082 1083.13 657.443 1079.02 671.704 C 1068.32 649.903 1058.9 629.317 1046.76 607.99 C 1007.23 538.596 952.677 470.201 880.772 432.869 C 865.337 424.8 849.173 418.212 832.495 413.195 C 827.445 411.694 813.983 409.749 810.805 407.958 C 806.525 405.547 795.962 396.177 791.793 392.611 C 797.887 383.369 799.974 376.351 801.665 365.622 C 837.522 372.815 853.384 349.284 853.182 316.194 C 877.294 315.544 896.14 296.153 890.177 271.598 C 886.808 257.727 878.61 250.611 867.056 243.319 C 876.214 232.937 882.232 222.313 878.047 208.163 C 876.931 195.908 865.508 183.46 854.688 178.721 C 825.851 166.092 827.075 167.696 832.875 138.837 C 833.974 132.704 832.405 125.555 828.781 120.471 C 816.771 103.624 794.114 106.605 778.887 96.5232 C 767.768 89.1613 758.788 73.8365 748.728 64.1588 C 706.624 23.656 669.154 9.55082 613.638 0 z" fill="rgb(254,254,254)" transform="translate(0,0)"></path>
<path d="M 1264.35 1114.02 C 1266.38 1105.56 1270.58 1078.31 1273.09 1072.64 C 1276.83 1071.81 1278.91 1071.5 1279.67 1067.29 C 1281.01 1059.9 1282.14 1052.45 1283.33 1045.03 L 1290.74 999.1 L 1318.72 822.001 C 1322.3 799.747 1326.33 767.655 1331 746.612 L 1331 1973.25 C 1328.05 1964.91 1322.25 1933.68 1320.03 1923.15 L 1297.6 1816.71 L 1219.46 1450.95 C 1232.89 1450.21 1262.77 1453.68 1270.72 1442.4 C 1279.62 1429.47 1275.17 1403.35 1275.65 1388.14 C 1276.11 1373.52 1235.42 1350.65 1223.9 1341.66 C 1231.43 1286.09 1245.44 1227.88 1252.49 1171.9 C 1267.38 1171.6 1283.63 1173.44 1294.56 1162.38 C 1299.8 1157.05 1302.65 1149.81 1302.45 1142.34 C 1302.3 1134.39 1298.96 1126.85 1293.19 1121.39 C 1284.16 1112.89 1275.47 1113.72 1264.35 1114.02 z" fill="rgb(254,254,254)" transform="translate(0,0)"></path>
<path d="M 0 1923.85 C 23.9521 1945.88 63.8787 1954.41 95.5471 1955.87 C 87.1831 1978.44 87.0157 1991.01 86.5475 2014.8 C 102.17 2031.83 131.09 2039.84 153.298 2044.09 C 160.44 2045.46 171.01 2046.42 177.458 2048 L 0 2048 L 0 1923.85 z" fill="rgb(254,254,254)" transform="translate(0,0)"></path>
<path d="M 274.456 1848.24 C 299.558 1684.05 329.432 1520.16 354.671 1355.94 C 357.241 1339.22 356.168 1323.69 359.859 1306.3 C 362.73 1293.17 367.5 1280.52 374.02 1268.76 C 407.869 1207.23 469.028 1192.91 530.995 1173.8 C 563.022 1163.92 595.234 1152.24 627.47 1142.95 C 624.565 1149.2 613.776 1169.02 622.289 1174 C 633.917 1180.8 617.355 1198.26 634.633 1202.74 C 645.734 1205.61 642.579 1211.33 652.012 1215.41 C 666.096 1219.32 672.901 1201.76 681.444 1196.17 C 696.878 1222.27 712.548 1202.49 724.889 1185.94 L 726.715 1184.07 L 727.702 1184.45 L 727.824 1188.08 C 714.065 1247.08 703.243 1307.11 689.483 1366.22 C 666.119 1368.09 632.935 1366.42 610.53 1369.83 C 595.383 1372.13 566.635 1384.78 550.282 1390.17 C 546.713 1382.83 533.429 1357.68 527.766 1353.49 L 525.685 1354.21 C 525.099 1355.82 524.815 1358.12 525.816 1359.69 C 537.041 1377.37 553.748 1399.53 551.259 1421.49 C 549.707 1435.17 547.35 1448.6 545.472 1462.03 L 533.539 1549.9 C 519.189 1655.6 503.172 1764.53 490.792 1869.86 C 463.886 1884.63 436.107 1888.39 405.496 1888.75 C 368.889 1889.18 300.718 1875.15 274.456 1848.24 z" fill="rgb(176,85,70)" transform="translate(0,0)"></path>
<path d="M 817.322 414.941 C 1028.52 466.435 1130.4 767.847 1145.49 959.855 C 1149.66 1013 1150.36 1063.21 1150.22 1116.44 C 1121.93 1118.12 1088.6 1117.98 1059.67 1118.71 L 914.04 1122.78 C 903.213 1112.81 889.339 1101.6 877.936 1092.05 L 882.81 1085.27 C 923.582 1115.78 918.092 1104.59 951.006 1067.47 C 979.678 1085.52 1004.55 1099.76 1037.51 1109.05 C 1042.99 1110.59 1051.25 1113.63 1056.77 1112.52 L 1057.8 1110.96 C 1056.36 1106.71 1045.24 1104.7 1040.38 1103.49 C 1007.02 1095.15 983.501 1081.44 954.855 1063.57 C 987.024 1029.85 1018.88 995.832 1050.42 961.522 C 1062 948.98 1085.32 925.784 1094.48 912.559 C 1100.71 903.493 1105.19 893.338 1107.68 882.622 C 1118.23 837.571 1088 780.699 1065.25 743.472 C 1036.21 699.527 1007.5 655.37 979.107 611.004 C 964.353 587.92 949.557 564.117 934.368 541.356 C 920.502 520.578 899.902 504.681 874.757 500.326 C 853.443 496.529 831.5 501.541 813.948 514.216 C 769.639 546.007 769.565 609.094 799.547 650.399 C 804.989 657.897 810.277 665.798 815.606 673.405 L 852.939 726.363 C 883 768.604 912.983 812.456 943.627 854.027 C 899.726 907.799 849.29 958.521 805.139 1012.3 C 801.948 1016.19 803.515 1020.89 803.603 1025.21 C 799.682 1028.52 742.332 1042.45 732.963 1045.1 C 740.347 1024.09 748.472 1002.92 750.783 980.477 C 758.36 906.884 737.994 832.063 715.396 762.65 C 708.244 740.68 698.382 713.712 693.304 692.212 C 681.012 640.163 677.113 569.114 699.131 519.191 C 699.336 519.334 699.541 519.478 699.746 519.621 L 700.787 520.31 C 712.052 527.917 727.471 520.571 738.034 514.399 C 775.34 492.598 805.581 456.859 817.322 414.941 z" fill="rgb(249,197,121)" transform="translate(0,0)"></path>
<path d="M 456 241.144 C 445.203 280.926 419.552 316.31 380.949 333.693 C 372.663 337.424 358.392 338.665 349.979 334.31 C 322.354 320.012 341.748 294.646 344.601 272.812 C 346.167 261.256 340.435 251.169 339.633 239.818 C 337.685 212.252 349.389 181.406 360.736 156.636 C 396.416 90.3494 450.05 39.7068 521.493 16.3521 C 594.595 -8.31085 675.287 7.48239 733.697 57.885 C 749.044 71.083 760.786 90.2185 774.75 100.784 C 795.857 116.753 817.942 101.704 828.537 135.812 C 825.566 147.177 821.53 156.425 826.714 167.016 C 829.206 170.977 832.152 172.983 836.066 175.547 C 847.059 180.824 858.17 183.656 865.673 194.202 C 880.673 215.283 875.294 230.263 856.383 244.591 C 871.756 251.008 884.98 261.192 885.827 279.259 C 886.211 286.805 883.499 294.182 878.32 299.684 C 869.168 309.479 858.844 310.089 846.593 310.613 C 849.092 330.379 847.48 349.528 826.003 359.53 C 815.801 364.281 806.575 362.163 796.459 357.988 C 796.136 360.745 795.772 363.496 795.368 366.241 C 792.122 387.499 779.183 406.713 754.601 402.74 C 729.768 398.727 721.661 371.614 712.822 352.066 C 710.307 346.503 705.982 340.462 702.317 335.27 C 720.267 316.221 725.847 292.646 721.148 267.608 C 707.52 195.005 614.059 194.338 634.044 278.857 C 615.006 288.71 590.743 283.822 582.693 262.695 C 578.533 264.875 574.104 266.496 569.521 267.516 C 535.59 274.811 485.039 259.608 456 241.144 z" fill="rgb(87,54,19)" transform="translate(0,0)"></path>
<path d="M 858.827 504.434 C 907.401 503.356 926.337 538.765 948.75 573.745 L 986.87 633.274 C 1001.48 656.1 1016.24 678.834 1031.14 701.475 C 1066.22 754.496 1130.88 842.36 1092.13 906.431 C 1083.93 919.987 1052.37 951.152 1040.23 964.389 C 1011.32 995.972 982.129 1027.3 952.663 1058.37 C 939.949 1071.93 926.687 1087.22 913.865 1100.24 C 906.654 1096.88 889.851 1083.78 883.055 1078.56 C 869.842 1068.24 856.472 1058.12 842.951 1048.2 C 834.681 1042.36 810.507 1027.53 808.885 1018.55 C 812.198 1010.22 838.603 982.434 846.12 973.841 L 918.67 891.139 L 946.407 859.705 C 959.626 844.628 969.368 831.962 989.479 825.055 C 996.318 822.706 1009.62 822.453 1015.04 818.919 L 1015.53 816.294 L 1014.31 815.06 C 1013.52 814.97 1011.58 814.801 1010.87 814.908 C 981.407 819.335 965.871 827.66 947.613 849.726 C 938.003 837.955 927.022 821.768 918.054 809.194 L 861.363 728.671 L 821.282 671.836 C 812.492 659.358 801.07 644.741 794.376 631.185 C 767.599 576.963 793.204 508.909 858.827 504.434 z" fill="rgb(249,197,121)" transform="translate(0,0)"></path>
<path d="M 662.716 220.101 C 699.293 218.423 718.614 254.249 717.265 287.35 C 716.458 307.148 708.51 321.728 694.104 335.018 C 711.847 353.114 712.922 373.627 727.703 392.321 C 745.394 414.697 767.967 413.702 788.755 396.851 C 796.603 403.497 803.546 409.386 810.888 416.562 C 803.717 444.099 785.714 468.742 764.769 488.151 C 753.05 499.01 726.974 518.082 709.862 518.082 C 703.835 518.082 693.292 505.682 689.269 500.885 C 696.463 489.669 719.453 437.856 714.079 427.519 C 709.592 428.614 705.659 440.843 703.581 445.266 C 699.89 453.047 695.744 460.604 691.164 467.897 C 657.411 522.159 622.848 542.511 559.499 522.064 C 549.506 518.576 539.852 514.186 530.656 508.947 C 555.465 499.576 567.041 491.748 571.99 464.293 L 570.851 462.955 C 560.525 466.321 568.506 495.893 523.046 504.807 C 506.878 494.397 493.597 483.14 482.178 467.659 C 476.341 470.155 462.439 472.183 456.958 469.245 C 435.299 457.632 462.069 442.389 451.213 422.443 C 442.17 405.826 432.346 400.112 421.193 386.433 C 408.512 370.88 399.218 352.987 391.365 335.094 C 428.072 312.631 445.973 290.022 459.09 249.753 L 460.941 250.666 C 493.846 266.858 543.223 283.229 579.487 270.888 C 597.299 289.421 620.059 298.288 641.162 279.276 C 631.236 254.794 634.844 228.776 662.716 220.101 z" fill="rgb(227,159,120)" transform="translate(0,0)"></path>
<path d="M 490.62 362.597 C 498.911 360.528 507.321 365.524 509.471 373.794 C 511.621 382.065 506.708 390.524 498.459 392.755 C 490.095 395.017 481.491 390.021 479.311 381.634 C 477.131 373.248 482.212 364.694 490.62 362.597 z" fill="rgb(43,33,29)" transform="translate(0,0)"></path>
<path d="M 701.871 1059.37 L 702.277 1059.47 C 701.288 1061.62 662.188 1089.34 656.195 1095.26 C 641.171 1110.11 638.697 1118.79 629.958 1137.1 C 604.091 1141.87 570.32 1155.95 544.704 1163.54 C 515.947 1172.07 484.75 1181.62 457.1 1192.23 C 413.624 1208.92 375.182 1242.61 359.377 1287.09 C 351.134 1309.46 352.076 1327.88 349.561 1350.98 C 347.59 1369.09 343.906 1388.92 340.91 1406.97 L 278.474 1787.79 C 251.975 1784.81 231.397 1783.02 206.427 1772.52 C 197.672 1768.52 193.707 1765.14 186.757 1758.91 C 193.487 1722.14 202.845 1681.69 210.531 1644.67 L 263.949 1390.16 C 273.167 1346.46 283.396 1302.88 288.088 1258.52 C 288.736 1252.73 290.262 1246.77 291.493 1241.15 C 301.234 1196.62 332.267 1162.08 372.717 1141.99 C 404.084 1126.4 444.321 1118.12 478.983 1109.58 C 521.727 1098.84 564.64 1088.79 607.705 1079.42 C 639.39 1072.56 670.11 1066.84 701.871 1059.37 z" fill="rgb(176,85,70)" transform="translate(0,0)"></path>
<path d="M 756.401 1184.45 L 791.433 1183.6 C 787.795 1198.52 784.715 1218.61 781.544 1234.21 L 757.478 1352.36 L 688.587 1687.66 C 670.751 1778.81 652.36 1869.85 633.414 1960.78 C 630.161 1976.02 626.194 2005.08 620.17 2019.44 C 617.806 2025.08 599.215 2027.82 592.466 2028.24 C 583.884 2028.36 560.162 2028.04 555.951 2017.76 C 555.645 2017.01 558.149 2004.39 558.616 2002.3 C 573.898 1933.87 589.559 1865.46 604.446 1796.94 L 733.541 1185.06 L 756.401 1184.45 z" fill="rgb(186,112,54)" transform="translate(0,0)"></path>
<path d="M 1114.57 622.164 C 1122.02 623.22 1136.79 631.845 1143.45 636.019 C 1180.33 658.978 1217.8 680.953 1254.95 703.463 C 1279.51 718.347 1269.7 748.652 1265.88 772.441 L 1256.99 828.696 L 1222.81 1046.94 C 1222.64 1050.56 1221.31 1058.67 1220.78 1062.59 C 1198.99 1048.88 1177.05 1035.4 1154.97 1022.16 C 1149.49 897.855 1130.35 795.286 1082.04 679.869 C 1089.86 659.417 1090.25 628.711 1114.57 622.164 z" fill="rgb(186,112,54)" transform="translate(0,0)"></path>
<path d="M 948.284 1179.55 L 969.596 1178.85 C 1007.29 1207.78 1063.01 1227.98 1110.74 1230.17 C 1105.63 1249.72 1097.5 1263.94 1085.11 1279.8 C 1044.51 1331.75 974.052 1345.26 911.761 1352.19 C 864.029 1358.18 809.053 1361.29 760.655 1363.26 C 765.131 1343.7 768.959 1321.93 773.055 1302.1 C 781.445 1262.59 789.424 1223 796.99 1183.32 C 847.414 1181.79 897.846 1180.53 948.284 1179.55 z" fill="rgb(176,85,70)" transform="translate(0,0)"></path>
<path d="M 276.738 1858.8 C 329.952 1893.44 415.729 1904.65 475.628 1883.14 C 477.849 1909.42 478.352 1927.48 478.387 1953.92 C 439.118 1975.65 343.138 1991.78 294.891 2000.76 C 222.218 2014.25 160.327 2026.49 93.464 1988.29 C 101.251 1922.38 151.426 1918.67 201.293 1898.03 C 226.54 1887.58 253.186 1872.62 276.738 1858.8 z" fill="rgb(227,159,120)" transform="translate(0,0)"></path>
<path d="M 1196.51 1451.53 L 1213.97 1450.96 C 1241.85 1578.66 1269.01 1706.52 1295.46 1834.53 L 1316.26 1931.78 C 1318.84 1943.8 1325.26 1970.5 1325.93 1981.25 C 1320.23 1993.28 1294.89 1993.31 1283.12 1993.1 C 1271.8 1991.33 1261.93 1990.49 1259.31 1977.83 C 1255.07 1957.28 1251.48 1936.63 1247.64 1916 C 1242 1886.9 1236.16 1857.85 1230.11 1828.84 L 1154.6 1452.19 L 1196.51 1451.53 z" fill="rgb(186,112,54)" transform="translate(0,0)"></path>
<path d="M 1243.08 1380.57 L 1243.85 1380.52 C 1248.89 1380.18 1264.53 1378.51 1266.73 1381.44 C 1272.62 1389.26 1270.12 1423.79 1269.87 1434.04 C 1266.22 1439.13 1265.29 1440.15 1260.15 1443.93 C 1231.03 1445.33 1201.2 1445.59 1172.01 1446.33 L 1022.58 1450.03 L 764.75 1457.14 C 756.672 1457.56 748.587 1457.82 740.499 1457.93 C 744.878 1441.1 748.881 1419.32 752.584 1401.97 L 1243.08 1380.57 z" fill="rgb(186,112,54)" transform="translate(0,0)"></path>
<path d="M 188.31 1768.99 C 221.829 1788.03 239.8 1789.34 277.558 1792.8 C 275.582 1803.3 266.602 1846.04 271.564 1853.46 C 271.698 1853.66 271.844 1853.85 271.984 1854.04 C 269.822 1859.39 198.535 1894.84 190.332 1896.41 C 174.84 1899.38 137.685 1919 125.827 1920.92 L 125.078 1921.03 C 117.201 1922.3 106.531 1922.01 98.3832 1922.01 C 66.4899 1919.64 34.4847 1913.26 6.57011 1896.88 C 7.38381 1877.64 16.0996 1858.83 29.7098 1845.34 C 51.6416 1823.6 81.6896 1819.92 108.985 1808.38 C 136.289 1796.83 163.176 1784.87 188.31 1768.99 z" fill="rgb(186,112,54)" transform="translate(0,0)"></path>
<path d="M 1017.5 1455.54 C 1036.97 1454.64 1057.63 1455.04 1077.43 1454.44 C 1083.67 1475.26 1153.97 1813.01 1153.74 1815.04 C 1153.3 1818.93 1148.88 1821.46 1145.95 1823.5 C 1130.74 1829.32 1102.64 1830.56 1089.47 1819.12 C 1085.42 1808.77 1082.03 1789.09 1079.72 1777.61 L 1066.88 1714.42 L 1040.35 1584.38 C 1037.39 1570.24 1013.85 1463.21 1015.48 1456.31 L 1017.5 1455.54 z" fill="rgb(186,112,54)" transform="translate(0,0)"></path>
<path d="M 1257.36 1119.55 C 1269.01 1118.81 1280.31 1117.19 1289.78 1125.66 C 1294.28 1129.69 1296.98 1135.36 1297.28 1141.39 C 1297.62 1147.76 1295.35 1153.99 1291.01 1158.66 C 1287.11 1162.83 1281.92 1165.34 1276.28 1165.66 C 1259.27 1166.64 1241.73 1166.81 1224.71 1167.15 L 1117.46 1169.18 L 773.159 1178.32 C 764.214 1178.62 744.272 1180.32 735.59 1177.56 C 734.117 1177.1 734.152 1176.02 733.54 1174.32 C 735.458 1170.3 743.918 1165.63 747.998 1163.35 C 755.797 1159.43 768.886 1150.82 777.313 1149.2 C 798.341 1145.15 820.968 1137.25 840.136 1130.4 C 844.3 1128.91 874.786 1129.37 881.107 1129.23 L 967.987 1127.19 L 1257.36 1119.55 z" fill="rgb(186,112,54)" transform="translate(0,0)"></path>
<path d="M 808.333 1030.12 C 810.588 1030.32 871.623 1076.67 878.191 1081.63 C 859.955 1113.68 838 1128.03 802.848 1137.26 C 794.011 1139.57 777.904 1142.6 770.011 1145.62 C 759.117 1149.79 744.216 1159.94 733.196 1165.92 C 728.979 1173.33 697.418 1218.01 688.735 1198.97 C 687.833 1188.84 705.05 1162.71 712.347 1155.14 C 720.321 1146.87 737.192 1139.7 744.585 1130.18 C 745.24 1129.34 744.053 1127.5 743.652 1126.57 L 742.465 1126.2 C 730.372 1135.6 716.935 1142.58 704.128 1155.02 C 690.648 1168.13 674.827 1205.99 654.171 1210.47 C 651.065 1211.15 644.955 1203.53 646.337 1200.21 C 654.359 1180.92 667.008 1161.59 678.35 1143.95 C 679.897 1141.55 691.478 1133.12 694.346 1130.96 C 698.869 1127.43 714.231 1116.38 714.627 1111.02 C 706.75 1112.88 692.806 1125.55 685.619 1130.68 C 668.103 1143.18 659.4 1165.65 648.43 1183.51 C 645.7 1187.95 643.581 1194.7 639.814 1198.03 C 635.942 1198.62 634.17 1197.3 631.979 1194.46 C 629.021 1180.75 655.986 1132 665.087 1119.08 C 669.29 1113.12 698.562 1098.47 696.227 1089.66 C 689.895 1088.47 652.273 1121.96 650.172 1132.15 C 648.785 1138.89 631.189 1171.75 628.289 1173.13 C 625.183 1171.87 626.22 1172.75 624.283 1170.02 C 622.605 1158.13 642.097 1128.74 646.248 1116.14 C 649.463 1106.38 665.616 1094.6 674.264 1088.03 C 685.733 1079.32 707.579 1062.16 720.458 1056.47 C 747.16 1044.66 780.06 1039.85 808.333 1030.12 z" fill="rgb(227,159,120)" transform="translate(0,0)"></path>
<path d="M 1095.27 1275.8 C 1131.72 1276.51 1137.2 1285.03 1165.67 1306.47 C 1162.21 1330.44 1156.85 1354.45 1153.46 1378.69 C 1042.69 1381.59 931.404 1389.65 820.913 1393.14 C 801.088 1394.86 773.494 1395.69 753.553 1396.19 C 755.747 1388.12 757.728 1377.3 759.498 1368.95 C 805.166 1366.84 850.776 1363.63 896.289 1359.32 C 951.495 1353.82 1016.97 1344.93 1062.25 1309.81 C 1075.56 1299.49 1084.67 1288.75 1095.27 1275.8 z" fill="rgb(186,112,54)" transform="translate(0,0)"></path>
<path d="M 610.697 878.386 C 627.668 899.884 643.747 921.893 660.17 943.805 C 641.638 967.884 632.615 973.509 601.113 977.969 C 580.137 980.939 557.426 979.698 536.963 984.164 C 522.811 987.252 500.74 1008.33 485.463 1003.33 C 478.182 997.475 481.922 988.087 487.326 982.49 C 501.819 967.482 525.11 965.375 543.405 957.47 C 543.638 956.792 543.872 956.114 544.105 955.436 L 542.816 953.462 C 535.691 952.489 472.931 969.441 464.141 976.855 C 452.445 986.721 430.345 1022.58 413.04 1021.92 C 409.695 1020.15 410.736 1021.22 409.054 1017.92 C 408.622 1005.73 439.96 971.832 447.723 961.241 C 454.576 951.893 484.78 940.227 487.305 934.087 L 485.701 931.283 C 481.223 931.121 460.134 946.087 455.071 947.69 C 438.795 952.845 409.762 1009.18 400.878 1011.92 C 390.557 1005.57 438.741 941.078 452.485 937.226 C 458.473 935.548 475.661 922.961 481.863 919.452 C 482.473 919.016 480.764 914.716 480.473 914.082 L 478.931 910.584 C 513.175 894.327 543.647 893.2 580.464 891.035 C 585.116 890.762 604.936 881.072 610.697 878.386 z" fill="rgb(227,159,120)" transform="translate(0,0)"></path>
<path d="M 1271.19 713.016 C 1281.48 712.787 1314.55 709.916 1320.26 718.196 C 1330.65 733.274 1322.7 763.312 1319.78 780.947 L 1308.69 847.901 C 1297.64 920.65 1286.15 993.334 1274.24 1065.95 C 1258.09 1066.86 1241.92 1067.01 1225.76 1066.42 C 1228.37 1045.6 1232.69 1023.46 1235.85 1002.5 L 1262.45 829.694 L 1271.62 771.056 C 1274.76 750.859 1280.66 731.945 1271.19 713.016 z" fill="rgb(186,112,54)" transform="translate(0,0)"></path>
<path d="M 717.855 791.863 C 727.842 803.084 745.114 904.762 746.24 923.059 C 730.793 933.707 697.735 955.87 681.131 963.237 C 676.849 958.316 668.884 946.343 664.669 940.479 C 656.969 930.575 611.912 873.311 611.6 865.722 C 617.494 857.57 704.769 800.721 717.855 791.863 z" fill="rgb(249,197,121)" transform="translate(0,0)"></path>
<path d="M 1225.04 1172.55 C 1232.19 1172.14 1240.31 1172.11 1247.54 1171.93 C 1243.42 1190.38 1240.03 1214.74 1236.79 1233.72 C 1229.07 1281.28 1220.74 1328.73 1211.78 1376.07 L 1180.75 1377.3 C 1174.22 1377.98 1165.59 1377.94 1158.88 1378.1 C 1169.81 1310.03 1182.3 1241.37 1193.91 1173.34 L 1225.04 1172.55 z" fill="rgb(186,112,54)" transform="translate(0,0)"></path>
<path d="M 724.499 967.475 C 731.838 967.316 739.603 967.431 746.975 967.433 C 744.732 986.825 743.213 995.948 738.226 1014.71 L 584.471 1018.03 L 522.608 1019.96 C 508.555 1020.33 491.658 1021.48 478.074 1019.15 C 467.686 1011.26 465.42 1006.35 466.054 993.473 C 467.903 987.156 469.006 985.513 472.522 979.857 C 480.012 975.611 484.719 973.783 492.702 970.628 C 483.27 979.528 479.255 982.852 475.512 995.144 C 477.339 1000.47 479.662 1008.56 486.325 1009.6 C 504.356 1013.35 522.137 993.434 537.479 989.942 C 575.989 981.178 609.933 990.119 645.688 968.785 C 671.773 969.545 698.382 968.341 724.499 967.475 z" fill="rgb(186,112,54)" transform="translate(0,0)"></path>
<path d="M 476.823 1961.1 C 478.913 1963.35 478.045 1977.92 477.995 1981.78 C 464.857 1991.43 432.969 2003.32 416.681 2006.53 C 371.343 2015.47 326.148 2026.06 280.618 2033.81 C 216.96 2044.65 152.532 2052.12 95.3769 2015.86 L 92.9593 2013.47 C 91.09 2008.93 92.7222 2000.07 93.3538 1994.86 C 131.619 2015 167.974 2022.96 211.429 2018.73 C 265.066 2013.51 317.698 2001.69 370.595 1991.8 C 385.448 1989.02 400.83 1986.08 415.398 1982.18 C 436.299 1976.46 456.816 1969.43 476.823 1961.1 z" fill="rgb(130,86,57)" transform="translate(0,0)"></path>
<path d="M 710.517 1020.45 C 718.413 1020.02 728.03 1020.16 736.061 1020.08 C 732.195 1029.8 728.619 1037.18 727.897 1047.74 C 712.376 1052.76 692.535 1056.32 676.312 1059.66 C 650.596 1064.88 624.912 1070.24 599.26 1075.77 C 592.573 1077 584.132 1079.26 577.359 1080.9 C 580.825 1062.18 584.247 1041.72 588.485 1023.31 L 710.517 1020.45 z" fill="rgb(254,254,254)" transform="translate(0,0)"></path>
<path d="M 586.899 1382.99 C 632.54 1410.89 628.115 1407.04 681.791 1404.22 L 670.383 1460.78 L 650.751 1461.34 C 624.819 1462.87 617.627 1457.02 596.086 1443.27 C 583.173 1435.03 569.918 1426.93 557.127 1418.34 C 557.21 1408.7 555.976 1404.39 552.807 1395.26 C 564.392 1391.31 575.526 1387.57 586.899 1382.99 z" fill="rgb(186,112,54)" transform="translate(0,0)"></path>
<path d="M 1146.14 1174.45 L 1147 1174.83 C 1149.22 1178.62 1147.38 1213.47 1147.16 1220.09 C 1146.25 1220.42 1145.34 1220.73 1144.43 1221.03 C 1104.81 1234.01 1045.87 1214.79 1010.22 1196.95 C 998.672 1191.18 988.802 1185.66 978.09 1178.51 L 1146.14 1174.45 z" fill="rgb(249,197,121)" transform="translate(0,0)"></path>
<path d="M 1183.56 1173.45 L 1187 1173.87 C 1187.26 1174.38 1187.52 1174.9 1187.78 1175.41 C 1181.22 1211.45 1172.54 1266.7 1166.42 1300.79 C 1152.74 1292.12 1145 1283 1129.55 1275.51 C 1119.4 1272.22 1109.17 1271.42 1098.62 1270.36 C 1107.47 1255.55 1111.69 1247.49 1115.69 1230.51 C 1132.43 1229.34 1136.13 1229.59 1152.32 1224.27 C 1153.56 1211.35 1153.37 1188.01 1153.79 1174.13 L 1183.56 1173.45 z" fill="rgb(254,254,254)" transform="translate(0,0)"></path>
<path d="M 559.989 1024.57 C 567.337 1024.12 575.299 1023.97 582.704 1023.7 C 579.935 1042.37 574.664 1062.86 571.56 1082.48 C 559.165 1085.32 546.719 1087.93 534.229 1090.32 L 514.25 1094.91 C 518.749 1071.25 523.209 1048.49 529.281 1025.19 C 539.52 1025.14 549.757 1024.93 559.989 1024.57 z" fill="rgb(186,112,54)" transform="translate(0,0)"></path>
<path d="M 1155.73 1029.03 C 1168.34 1035.27 1193.98 1052.56 1206.76 1060.85 C 1204.13 1076.74 1202.11 1090.54 1198.76 1106.42 C 1198.28 1109.75 1198.32 1112.8 1196.15 1115.13 C 1190.5 1116.46 1163.4 1116.21 1155.86 1116.26 C 1156.07 1087.18 1156.03 1058.11 1155.73 1029.03 z" fill="rgb(254,254,254)" transform="translate(0,0)"></path>
<path d="M 1212.4 1064.41 C 1217.12 1067.07 1218.83 1068.48 1223.08 1071.77 C 1238.03 1072.27 1252.74 1072.04 1267.66 1072.08 C 1265.24 1082.84 1263.06 1093.66 1261.13 1104.52 C 1260.54 1107.79 1260.18 1111.88 1257.93 1114.17 C 1240.3 1114.97 1220.7 1115.44 1202.95 1115.79 C 1206.06 1099.97 1208.58 1079.24 1212.4 1064.41 z" fill="rgb(186,112,54)" transform="translate(0,0)"></path>
<path d="M 6.50172 1903.99 C 46.2396 1922.82 76.7702 1927.88 119.719 1927.08 C 115.834 1930.92 112.001 1934.82 108.222 1938.76 C 105.039 1942.35 101.655 1946.69 98.5834 1950.44 C 68.9036 1949.72 27.8939 1941.93 5.8341 1920.8 C 5.88228 1915.27 6.23923 1909.53 6.50172 1903.99 z" fill="rgb(130,86,57)" transform="translate(0,0)"></path>
<path d="M 669.953 1372.56 C 675.802 1372.17 682.773 1372.17 688.719 1372.02 C 686.519 1380.84 684.69 1390 682.808 1398.91 C 660.171 1399.27 637.859 1404.02 617.385 1395.08 C 609.011 1390.78 601.262 1385.61 593.343 1380.54 C 617.357 1371.57 643.762 1373.5 669.953 1372.56 z" fill="rgb(186,112,54)" transform="translate(0,0)"></path>
<path d="M 1131.96 623.129 C 1150.08 621.864 1158.44 629.225 1174.2 637.531 C 1195.17 648.835 1216.07 660.257 1236.91 671.795 C 1245.63 676.561 1293.29 701.922 1299.26 706.822 C 1289.76 707.757 1278.81 707.722 1269.28 707.385 C 1254.74 696.026 1232.84 683.66 1216.6 673.867 L 1131.96 623.129 z" fill="rgb(186,112,54)" transform="translate(0,0)"></path>
<path d="M 745.219 930.898 C 748.025 931.86 747.172 958.053 747.198 961.994 C 730.717 962.061 714.236 962.294 697.759 962.691 C 697.11 962.686 696.013 962.899 695.766 962.1 C 696.294 961.029 739.642 934.355 745.219 930.898 z" fill="rgb(254,254,254)" transform="translate(0,0)"></path>
<path d="M 874.482 1096.44 C 885.281 1103.63 895.54 1114.46 906.871 1122.97 L 878.117 1123.81 C 866.911 1124.04 857.04 1124.45 845.9 1124.96 C 860.344 1115.65 865.156 1110.53 874.482 1096.44 z" fill="rgb(176,85,70)" transform="translate(0,0)"></path>
<path d="M 1222.64 1348.31 C 1226.21 1350.43 1256.73 1371.89 1257.04 1373.33 C 1256.2 1374.28 1252.98 1374.08 1251.92 1374.12 C 1241.34 1375.14 1228.48 1375.4 1217.5 1375.97 L 1220.47 1360.3 C 1221.22 1356.43 1221.96 1352.21 1222.64 1348.31 z" fill="rgb(186,112,54)" transform="translate(0,0)"></path>
<path d="M 478.931 910.584 L 480.473 914.082 C 477.748 916.028 461.947 925.387 458.347 927.381 C 433.189 941.315 426.871 951.877 410.774 974.239 C 418.423 952.34 423.117 943.442 443.75 931.02 C 455.503 923.944 466.593 917.02 478.931 910.584 z" fill="rgb(227,159,120)" transform="translate(0,0)"></path>
<path d="M 662.569 948.468 C 666.218 950.855 671 958.899 673.711 962.905 C 670.368 963.193 667.1 963.232 663.751 963.385 C 659.4 963.607 655.046 963.781 650.691 963.905 C 654.996 958.476 658.434 953.989 662.569 948.468 z" fill="rgb(254,254,254)" transform="translate(0,0)"></path>
<metadata><recraft-signature>{"signed_by": "recraft", "signature_b64": "eoecxhlhJUxPDOTBneO8NahRt1ki2bgbpDM1LWoLzdEBFj9jPlNJvP1qt2KINcwG5tab5gQmpofFD5EHm4hpCA==", "signing_algo": "Ed25519", "generation_timestamp": 1779098768, "identifier": "a4ae8a89-76ab-48ac-b042-d798ef21b6f5"}</recraft-signature></metadata></svg>