<svg xmlns="http://www.w3.org/2000/svg" height="1024" preserveAspectRatio="none" style="display: block;" version="1.1" viewBox="0 0 2048 2048" width="1024">
<path d="M 0 0 L 2048 0 L 2048 2048 L 0 2048 L 0 0 z" fill="rgb(255,255,255)" transform="translate(0,0)"></path>
<path d="M 1063.37 749.993 C 1075.73 752.577 1091.81 751.438 1104.98 755.118 C 1112.98 757.354 1153.13 768.296 1156 774.456 C 1160.25 775.95 1173.55 783.485 1175.05 787.282 C 1179.76 789.833 1179.69 790.563 1183.78 793.682 C 1188.31 797.536 1194.04 803.149 1197.92 807.668 C 1199.47 809.643 1201 811.466 1202.62 813.381 C 1234.48 852.749 1238.4 905.752 1216.48 951.017 C 1209.23 968.687 1188.67 997.213 1173.16 1008.04 C 1171.3 1011.4 1162.75 1017.03 1158.94 1018.67 C 1158.08 1021.35 1152.71 1023.51 1150.21 1024.71 C 1147.87 1026.53 1143.03 1029.83 1140.25 1030.66 C 1136.69 1033.58 1134.34 1034.75 1130.15 1036.61 L 1128.74 1037.41 C 1127.35 1039.08 1127.21 1039.16 1124.99 1039.49 C 1121.35 1042.72 1117.58 1044.61 1113.17 1046.69 C 1112.3 1047.32 1110.3 1048.91 1109.29 1049.3 C 1103.26 1052.88 1093.87 1058.85 1087.54 1061.27 L 1087.31 1061.68 C 1082.86 1064.37 1080.72 1065.63 1075.96 1067.65 C 1072.67 1070.11 1062.88 1075.1 1058.98 1076.63 C 1051.36 1081 1027.1 1092.84 1018.92 1095.73 C 1016.47 1096.92 1015.66 1097.25 1013.5 1098.8 C 1043.67 1100.79 1076.8 1097.56 1107.46 1098.17 C 1128.75 1097.39 1160.81 1098.29 1179.83 1090.7 C 1182.75 1086.95 1184.12 1084.24 1186.6 1080.35 C 1195.37 1064.95 1213.31 1056.82 1230.27 1063.09 L 1231.53 1063.54 C 1237.17 1066.49 1242.58 1070.01 1245.24 1076.09 C 1249.95 1080.56 1250.09 1088.53 1250.15 1094.68 C 1250.46 1128.21 1250.2 1161.76 1250.29 1195.3 C 1250.31 1205.8 1250.76 1220.41 1246.39 1229.99 C 1244.58 1234.38 1241.63 1241.07 1237.96 1244.17 C 1233.58 1251.53 1225.82 1258.1 1218.17 1261.87 C 1216.63 1263.24 1217.38 1262.97 1216.22 1263.24 C 1211.86 1265.74 1211.68 1265.93 1206.94 1267.7 C 1199.94 1272.1 1190.38 1273.58 1182.26 1273.75 C 1149.46 1274.01 1115.82 1273.64 1083.13 1274.24 L 1083.1 1295.97 C 1091.49 1295.9 1126.52 1292.56 1123.1 1305.76 C 1118.73 1322.66 1093.47 1343.76 1083.9 1358.73 C 1074.22 1369.67 1064.66 1380.72 1055.22 1391.88 C 1048.72 1399.59 1036.84 1414.51 1029.81 1420.21 C 1014.65 1432.51 989.95 1391.38 981.057 1381.51 C 976.94 1383.35 973.341 1384.99 969.076 1386.51 L 968.058 1385.79 C 971.991 1383.82 975.912 1381.83 979.822 1379.81 C 971.204 1369.77 923.067 1314.6 922.567 1307 C 922.376 1304.1 923.012 1302.23 924.995 1300.09 C 931.41 1293.19 954.619 1295.91 964.008 1295.96 L 963.928 1274.31 C 940.706 1273.44 916.995 1274.34 893.717 1274.16 C 872.299 1273.99 857.519 1275.86 837.299 1267.78 C 820.859 1261.29 806.315 1245.47 800.504 1228.88 C 792.909 1207.2 792.622 1173.79 810.699 1157.08 C 811.242 1153.8 826.99 1139.1 830.428 1136.45 C 850.96 1118.32 871.459 1100.47 892.435 1082.85 C 895.031 1080.67 895.078 1080.38 898.046 1078.69 L 898.411 1078.44 C 900.753 1075.44 901.214 1074.96 904.397 1072.68 C 912.438 1065.95 920.569 1058.89 928.697 1052.3 L 929.426 1051.37 C 934.013 1048.39 940.184 1042.15 944.608 1038.28 C 946.795 1035.72 951.153 1032.06 953.863 1029.95 C 954.913 1028 964.023 1018.95 966.173 1016.74 C 976.246 1006.29 985.792 995.35 994.773 983.949 C 1016.91 955.943 1028.81 935.739 1024.23 898.578 C 1022 880.5 1018.76 865.028 1003.78 853.338 C 982.867 842.063 960.953 844.242 940.057 854.008 C 943.982 856.624 947.403 858.946 951.146 861.827 C 955.819 865.891 957.149 867.096 961.263 871.811 C 970.127 884.931 969.96 896.264 967.557 911.333 C 964.516 924.613 956.695 940.431 943.971 946.741 C 943.136 949.109 940.394 949.715 938.211 950.772 C 933.991 954.422 921.85 958.662 916.33 959.583 C 891.553 964.376 860.489 963.067 838.844 948.686 C 811.417 933.428 800.172 906.18 804.491 875.786 C 809.887 852.817 821.032 833.368 836.761 815.733 C 841.436 810.828 845.263 806.976 850.289 802.442 C 851.674 800.986 851.801 800.987 853.588 799.948 C 860.003 793.38 871.578 786.455 879.556 781.647 C 897.458 771.509 915.009 764.127 935.026 759.175 L 939.025 758.175 L 943.519 757.101 C 951.319 755.31 962.65 753.023 970.529 752.856 L 970.916 754.254 C 976.479 753.154 983.363 752.318 989.062 751.498 C 1031.26 794.395 1016.19 804.765 1061.92 751.888 C 1062.4 751.257 1062.89 750.625 1063.37 749.993 z" fill="rgb(97,90,229)" transform="translate(0,0)"></path>
<path d="M 973.005 1144.03 C 999.644 1141.79 1044.16 1143.25 1072.39 1142.88 C 1076.14 1145.33 1082.26 1148.94 1082.61 1153.71 C 1084.86 1183.82 1083.21 1215.81 1083.56 1246.13 C 1083.63 1252.46 1082.57 1268.23 1084.28 1272.54 C 1087.31 1273.67 1088.34 1273.31 1091.53 1272.97 C 1109.93 1273.63 1147.66 1273.97 1165.6 1273.02 C 1171.16 1273.17 1176.71 1273.41 1182.26 1273.75 C 1149.46 1274.01 1115.82 1273.64 1083.13 1274.24 L 1083.1 1295.97 C 1091.49 1295.9 1126.52 1292.56 1123.1 1305.76 C 1118.73 1322.66 1093.47 1343.76 1083.9 1358.73 C 1074.22 1369.67 1064.66 1380.72 1055.22 1391.88 C 1048.72 1399.59 1036.84 1414.51 1029.81 1420.21 C 1014.65 1432.51 989.95 1391.38 981.057 1381.51 C 976.94 1383.35 973.341 1384.99 969.076 1386.51 L 968.058 1385.79 C 971.991 1383.82 975.912 1381.83 979.822 1379.81 C 971.204 1369.77 923.067 1314.6 922.567 1307 C 922.376 1304.1 923.012 1302.23 924.995 1300.09 C 931.41 1293.19 954.619 1295.91 964.008 1295.96 L 963.928 1274.31 C 940.706 1273.44 916.995 1274.34 893.717 1274.16 C 872.299 1273.99 857.519 1275.86 837.299 1267.78 L 839.358 1266.63 C 845.434 1269.44 854.079 1272.09 860.817 1272.03 C 868.734 1271.61 888.213 1272.25 897 1272.28 C 910.092 1272.31 937.661 1271.15 949.41 1273.02 C 954.27 1273.16 958.873 1273.32 963.743 1273.17 L 963.224 1197.37 C 963.147 1183.83 962.509 1169.44 963.995 1155.97 C 964.637 1150.16 968.727 1147.48 973.005 1144.03 z" fill="rgb(36,29,93)" transform="translate(0,0)"></path>
<path d="M 860.817 1272.03 C 868.734 1271.61 888.213 1272.25 897 1272.28 C 910.092 1272.31 937.661 1271.15 949.41 1273.02 C 939.385 1273.58 867.637 1273.76 860.817 1272.03 z" fill="rgb(77,76,187)" transform="translate(0,0)"></path>
<path d="M 1003.79 851.373 C 1032.89 869.13 1032.85 936.707 1013 961.699 C 1005.53 971.095 976.304 1014.95 966.173 1016.74 C 976.246 1006.29 985.792 995.35 994.773 983.949 C 1016.91 955.943 1028.81 935.739 1024.23 898.578 C 1022 880.5 1018.76 865.028 1003.78 853.338 L 1003.79 851.373 z" fill="rgb(36,29,93)" transform="translate(0,0)"></path>
<path d="M 1245.24 1076.09 C 1249.95 1080.56 1250.09 1088.53 1250.15 1094.68 C 1250.46 1128.21 1250.2 1161.76 1250.29 1195.3 C 1250.31 1205.8 1250.76 1220.41 1246.39 1229.99 L 1245.64 1228.58 C 1249.21 1211.45 1250.61 1097.46 1246.52 1081.25 L 1245.24 1076.09 z" fill="rgb(77,76,187)" transform="translate(0,0)"></path>
<path d="M 1202.62 813.381 C 1234.48 852.749 1238.4 905.752 1216.48 951.017 C 1215.25 948.948 1219.09 940.442 1220.03 937.532 C 1223.26 927.756 1225.69 917.732 1227.29 907.559 C 1232.9 871.075 1221.88 842.658 1200.81 814.086 L 1202.62 813.381 z" fill="rgb(36,29,93)" transform="translate(0,0)"></path>
<path d="M 837.299 1267.78 C 820.859 1261.29 806.315 1245.47 800.504 1228.88 C 792.909 1207.2 792.622 1173.79 810.699 1157.08 C 808.727 1163.84 799.653 1175.49 798.78 1182.1 C 797.23 1193.83 797.608 1209.18 799.978 1220.82 C 804.928 1245.13 819.659 1255.51 839.358 1266.63 L 837.299 1267.78 z" fill="rgb(77,76,187)" transform="translate(0,0)"></path>
<path d="M 1013.5 1098.8 C 1043.67 1100.79 1076.8 1097.56 1107.46 1098.17 C 1114.08 1099.32 1118.39 1098.89 1125.01 1099.21 C 1110.33 1100.17 1018.12 1102.62 1012.32 1100.1 L 1013.5 1098.8 z" fill="rgb(77,76,187)" transform="translate(0,0)"></path>
<path d="M 879.556 781.647 C 897.458 771.509 915.009 764.127 935.026 759.175 L 939.025 758.175 L 943.519 757.101 C 951.319 755.31 962.65 753.023 970.529 752.856 L 970.916 754.254 C 966.943 755.491 963.234 755.318 958.976 756.072 C 952.467 757.225 945.861 758.329 939.444 760.026 L 928.435 763.022 C 908.626 768.567 897.718 774.684 880.054 783.618 L 878.97 784.178 L 879.556 781.647 z" fill="rgb(77,76,187)" transform="translate(0,0)"></path>
<path d="M 1063.37 749.993 C 1075.73 752.577 1091.81 751.438 1104.98 755.118 C 1112.98 757.354 1153.13 768.296 1156 774.456 C 1152.58 774.545 1114.52 756.799 1106.47 757.409 C 1106.22 757.428 1093.5 755.239 1092.02 754.943 C 1087.39 754.045 1082.71 753.488 1078 753.275 C 1075.53 753.142 1073.3 753.017 1070.82 752.82 C 1069.71 752.225 1069.71 752.308 1068.39 752.289 L 1061.92 751.888 C 1062.4 751.257 1062.89 750.625 1063.37 749.993 z" fill="rgb(36,29,93)" transform="translate(0,0)"></path>
<path d="M 949.848 862.67 C 948.458 861.803 936.114 855.049 935.916 854.552 C 936.387 853.494 937.659 853.468 938.549 852.983 C 951.024 846.209 965.195 842.667 979.493 844.047 C 989.125 844.977 995.09 847.161 1003.79 851.373 L 1003.78 853.338 C 982.867 842.063 960.953 844.242 940.057 854.008 C 943.982 856.624 947.403 858.946 951.146 861.827 L 949.848 862.67 z" fill="rgb(36,29,93)" transform="translate(0,0)"></path>
<path d="M 804.491 875.786 C 804.84 877.791 805.096 879.594 805.349 881.622 C 803.703 901.239 808.312 912.135 818.385 928.13 C 820.833 932.084 824.071 935.49 827.897 938.134 C 831.824 940.813 831.828 943.122 838.131 945.838 C 838.357 946.761 838.582 947.782 838.844 948.686 C 811.417 933.428 800.172 906.18 804.491 875.786 z" fill="rgb(36,29,93)" transform="translate(0,0)"></path>
<path d="M 1186.6 1080.35 L 1188.44 1080.78 C 1186.62 1084.12 1184.22 1087.5 1182.18 1090.73 L 1181.34 1092.03 C 1169.81 1097.38 1161.17 1097.7 1148.65 1098.39 C 1147.34 1098.38 1147.32 1098.3 1146.17 1098.81 C 1138.97 1099.3 1132.21 1099.2 1125.01 1099.21 C 1118.39 1098.89 1114.08 1099.32 1107.46 1098.17 C 1128.75 1097.39 1160.81 1098.29 1179.83 1090.7 C 1182.75 1086.95 1184.12 1084.24 1186.6 1080.35 z" fill="rgb(36,29,93)" transform="translate(0,0)"></path>
<path d="M 838.131 945.838 C 850.739 955.034 858.535 954.897 871.997 958.693 C 886.57 962.802 906.535 956.914 916.33 959.583 C 891.553 964.376 860.489 963.067 838.844 948.686 C 838.582 947.782 838.357 946.761 838.131 945.838 z" fill="rgb(77,76,187)" transform="translate(0,0)"></path>
<path d="M 830.428 1136.45 C 850.96 1118.32 871.459 1100.47 892.435 1082.85 C 895.031 1080.67 895.078 1080.38 898.046 1078.69 C 895.511 1083.77 856.293 1115.75 849.238 1122.07 C 848.301 1122.59 848.526 1122.43 847.811 1123.28 C 844.418 1126.18 834.616 1134.54 832.407 1137.38 L 830.428 1136.45 z" fill="rgb(36,29,93)" transform="translate(0,0)"></path>
<path d="M 836.761 815.733 L 837.511 817.418 C 833.995 822.893 828.906 828.024 825.294 833.614 C 817.33 845.941 809.928 858.939 807.015 873.483 C 806.486 876.123 806.094 879.112 805.349 881.622 C 805.096 879.594 804.84 877.791 804.491 875.786 C 809.887 852.817 821.032 833.368 836.761 815.733 z" fill="rgb(36,29,93)" transform="translate(0,0)"></path>
<path d="M 1186.6 1080.35 C 1195.37 1064.95 1213.31 1056.82 1230.27 1063.09 L 1231.53 1063.54 L 1229.21 1064.44 C 1214.19 1058.85 1196.06 1066.85 1188.44 1080.78 L 1186.6 1080.35 z" fill="rgb(36,29,93)" transform="translate(0,0)"></path>
<path d="M 1091.53 1272.97 C 1098.78 1271.61 1159.19 1271.25 1165.6 1273.02 C 1147.66 1273.97 1109.93 1273.63 1091.53 1272.97 z" fill="rgb(77,76,187)" transform="translate(0,0)"></path>
<path d="M 1018.31 1094.77 C 1024.1 1091.43 1054.02 1076.35 1058.98 1076.63 C 1051.36 1081 1027.1 1092.84 1018.92 1095.73 L 1018.31 1094.77 z" fill="rgb(77,76,187)" transform="translate(0,0)"></path>
<path d="M 966.819 904.913 L 967.557 911.333 C 964.516 924.613 956.695 940.431 943.971 946.741 C 947.694 941.979 952.118 938.469 955.919 933.601 C 963.741 923.584 964.192 916.306 966.819 904.913 z" fill="rgb(77,76,187)" transform="translate(0,0)"></path>
<path d="M 961.263 871.811 C 970.127 884.931 969.96 896.264 967.557 911.333 L 966.819 904.913 C 967.435 892.382 966.957 884.046 960.076 873.273 L 961.263 871.811 z" fill="rgb(36,29,93)" transform="translate(0,0)"></path>
<path d="M 830.428 1136.45 L 832.407 1137.38 C 830.12 1139.94 812.016 1156.73 810.699 1157.08 C 811.242 1153.8 826.99 1139.1 830.428 1136.45 z" fill="rgb(77,76,187)" transform="translate(0,0)"></path>
<path d="M 928.697 1052.3 L 928.261 1055.21 C 924.959 1057.39 909.469 1070.29 906.951 1073.04 L 904.397 1072.68 C 912.438 1065.95 920.569 1058.89 928.697 1052.3 z" fill="rgb(36,29,93)" transform="translate(0,0)"></path>
<path d="M 853.588 799.948 C 860.003 793.38 871.578 786.455 879.556 781.647 L 878.97 784.178 C 873.236 786.791 863.773 793.68 858.835 797.617 C 858.206 797.916 858.282 797.93 857.809 798.526 L 855.424 800.436 L 853.588 799.948 z" fill="rgb(36,29,93)" transform="translate(0,0)"></path>
<path d="M 1218.17 1261.87 L 1218.83 1260.9 C 1220.37 1258.61 1235.77 1245.63 1237.96 1244.17 C 1233.58 1251.53 1225.82 1258.1 1218.17 1261.87 z" fill="rgb(77,76,187)" transform="translate(0,0)"></path>
<path d="M 1087.54 1061.27 C 1090.28 1057.45 1103.96 1048.91 1109.29 1049.3 C 1103.26 1052.88 1093.87 1058.85 1087.54 1061.27 z" fill="rgb(77,76,187)" transform="translate(0,0)"></path>
<path d="M 1183.78 793.682 C 1188.31 797.536 1194.04 803.149 1197.92 807.668 L 1196.98 810.002 C 1196.06 809.307 1194.92 808.517 1194.45 807.436 C 1192.21 802.29 1184.78 798.25 1182.1 795.269 L 1183.78 793.682 z" fill="rgb(77,76,187)" transform="translate(0,0)"></path>
<path d="M 1156 774.456 C 1160.25 775.95 1173.55 783.485 1175.05 787.282 C 1171.77 787.128 1158.27 777.029 1156 774.456 z" fill="rgb(77,76,187)" transform="translate(0,0)"></path>
<path d="M 1231.53 1063.54 C 1237.17 1066.49 1242.58 1070.01 1245.24 1076.09 C 1239.94 1073.21 1239.05 1069.65 1234.53 1067.2 C 1232.66 1066.18 1231.9 1066.7 1229.21 1064.44 L 1231.53 1063.54 z" fill="rgb(77,76,187)" transform="translate(0,0)"></path>
<path d="M 1158.94 1018.67 C 1161.14 1015.95 1169.8 1006.95 1173.16 1008.04 C 1171.3 1011.4 1162.75 1017.03 1158.94 1018.67 z" fill="rgb(77,76,187)" transform="translate(0,0)"></path>
<path d="M 944.608 1038.28 L 943.976 1041.53 C 942.084 1042.63 933.394 1050.4 931.895 1052.04 L 929.426 1051.37 C 934.013 1048.39 940.184 1042.15 944.608 1038.28 z" fill="rgb(36,29,93)" transform="translate(0,0)"></path>
<path d="M 850.289 802.442 L 851.09 804.18 C 847.786 806.306 840.136 814.289 837.511 817.418 L 836.761 815.733 C 841.436 810.828 845.263 806.976 850.289 802.442 z" fill="rgb(23,23,40)" transform="translate(0,0)"></path>
<path d="M 944.608 1038.28 C 946.795 1035.72 951.153 1032.06 953.863 1029.95 C 951.928 1034.74 948.258 1038.69 943.976 1041.53 L 944.608 1038.28 z" fill="rgb(77,76,187)" transform="translate(0,0)"></path>
<path d="M 951.146 861.827 C 955.819 865.891 957.149 867.096 961.263 871.811 L 960.076 873.273 C 957.232 869.36 953.544 865.792 949.848 862.67 L 951.146 861.827 z" fill="rgb(32,26,78)" transform="translate(0,0)"></path>
<path d="M 1075.96 1067.65 C 1078.93 1063.99 1082.45 1060.56 1087.31 1061.68 C 1082.86 1064.37 1080.72 1065.63 1075.96 1067.65 z" fill="rgb(77,76,187)" transform="translate(0,0)"></path>
<path d="M 1113.17 1046.69 C 1117.3 1040.98 1117.44 1041.69 1124.12 1039.75 L 1124.99 1039.49 C 1121.35 1042.72 1117.58 1044.61 1113.17 1046.69 z" fill="rgb(77,76,187)" transform="translate(0,0)"></path>
<path d="M 1150.21 1024.71 C 1152.41 1021.62 1154.67 1018.05 1158.94 1018.67 C 1158.08 1021.35 1152.71 1023.51 1150.21 1024.71 z" fill="rgb(77,76,187)" transform="translate(0,0)"></path>
<path d="M 1012.32 1100.1 C 1001.66 1100.78 1016.78 1095.32 1018.31 1094.77 L 1018.92 1095.73 C 1016.47 1096.92 1015.66 1097.25 1013.5 1098.8 L 1012.32 1100.1 z" fill="rgb(23,23,40)" transform="translate(0,0)"></path>
<path d="M 1130.15 1036.61 C 1134.18 1031.23 1133.55 1032.17 1140.25 1030.66 C 1136.69 1033.58 1134.34 1034.75 1130.15 1036.61 z" fill="rgb(77,76,187)" transform="translate(0,0)"></path>
<path d="M 898.411 1078.44 C 900.753 1075.44 901.214 1074.96 904.397 1072.68 L 906.951 1073.04 C 904.067 1075.97 902.377 1077.21 898.411 1078.44 z" fill="rgb(77,76,187)" transform="translate(0,0)"></path>
<path d="M 1206.94 1267.7 C 1210.23 1263.48 1210.92 1262.98 1216.22 1263.24 C 1211.86 1265.74 1211.68 1265.93 1206.94 1267.7 z" fill="rgb(77,76,187)" transform="translate(0,0)"></path>
<path d="M 1175.05 787.282 C 1179.76 789.833 1179.69 790.563 1183.78 793.682 L 1182.1 795.269 C 1179.77 791.977 1177.64 790.563 1175.05 787.282 z" fill="rgb(32,26,78)" transform="translate(0,0)"></path>
<path d="M 938.211 950.772 C 940.366 947.673 940.253 946.084 943.971 946.741 C 943.136 949.109 940.394 949.715 938.211 950.772 z" fill="rgb(77,76,187)" transform="translate(0,0)"></path>
<path d="M 850.289 802.442 C 851.674 800.986 851.801 800.987 853.588 799.948 L 855.424 800.436 C 853.469 802.581 853.489 802.6 851.09 804.18 L 850.289 802.442 z" fill="rgb(77,76,187)" transform="translate(0,0)"></path>
<path d="M 1196.98 810.002 L 1197.92 807.668 C 1199.47 809.643 1201 811.466 1202.62 813.381 L 1200.81 814.086 C 1199.2 811.722 1199.27 811.792 1196.98 810.002 z" fill="rgb(32,26,78)" transform="translate(0,0)"></path>
<path d="M 1124.99 1039.49 C 1125.44 1036.73 1125.92 1037.29 1128.74 1037.41 C 1127.35 1039.08 1127.21 1039.16 1124.99 1039.49 z" fill="rgb(77,76,187)" transform="translate(0,0)"></path>
<path d="M 928.697 1052.3 L 929.426 1051.37 L 931.895 1052.04 C 930.339 1053.67 930.06 1053.85 928.261 1055.21 L 928.697 1052.3 z" fill="rgb(77,76,187)" transform="translate(0,0)"></path>
<path d="M 1083.9 1358.73 C 1115.13 1367.65 1136.97 1381.86 1139.24 1418.08 C 1140.99 1446.09 1140.07 1475 1140.09 1503.13 L 1140.14 1666.93 C 1140.14 1686.94 1139.41 1708.25 1141.05 1728.15 C 1143.54 1746.71 1164.01 1742.03 1177.53 1743.33 C 1279.84 1753.12 1279.12 1909.17 1176.66 1918.65 C 1161.4 1920.06 1144.07 1919.15 1128.64 1919.17 L 1045.41 1919.37 L 953.815 1919.49 C 931.082 1919.54 900.195 1921.71 879.068 1915.02 C 847.806 1905.11 827.138 1879.38 821.365 1847.29 C 820.478 1838.23 819.514 1829.11 820.747 1820.04 L 822.686 1817.13 C 822.508 1809.79 824.702 1804.72 826.136 1797.79 L 826.35 1796.72 C 836.36 1764.83 875.056 1740.97 907.518 1743.11 C 918.699 1743.85 927.755 1743.91 936.486 1736.44 C 942.864 1732.1 942.647 1612.97 939.293 1604.38 C 938.097 1590.03 938.763 1567.24 938.779 1552.28 C 917.688 1562.42 899.27 1567.82 876.025 1559.77 C 858.799 1553.91 844.715 1541.26 837.039 1524.77 C 829.065 1507.95 828.057 1488.35 834.338 1470.95 C 842.57 1448.03 860.641 1437.98 881.387 1428.19 C 910.405 1414.49 938.968 1399.27 968.058 1385.79 L 969.076 1386.51 C 973.341 1384.99 976.94 1383.35 981.057 1381.51 C 989.95 1391.38 1014.65 1432.51 1029.81 1420.21 C 1036.84 1414.51 1048.72 1399.59 1055.22 1391.88 C 1064.66 1380.72 1074.22 1369.67 1083.9 1358.73 z" fill="rgb(14,141,126)" transform="translate(0,0)"></path>
<path d="M 822.686 1817.13 C 823.994 1822.54 824.841 1842.43 821.365 1847.29 C 820.478 1838.23 819.514 1829.11 820.747 1820.04 L 822.686 1817.13 z" fill="rgb(12,135,129)" transform="translate(0,0)"></path>
<path d="M 856.327 182.498 C 906.357 139.293 982.948 124.353 1047.9 129.226 C 1098.8 133.046 1158.52 149.09 1194.22 187.855 C 1227.45 223.927 1224.61 302.653 1181.16 329.944 C 1173.9 338.853 1141.76 353.698 1130.01 357.272 C 1114.36 363.412 1096.27 369.201 1080.05 373.544 L 1081.9 376.063 C 1098.6 375.93 1116.94 379.344 1133.34 382.485 L 1151.36 387.297 C 1170.77 381.046 1182.96 380.489 1203.11 382.432 C 1214.33 384.521 1244.31 396.722 1250.22 404.075 C 1251.28 405.747 1282.22 427.424 1285.36 427.577 L 1288.43 431.222 C 1294.98 436.956 1304.44 445.38 1308.88 452.778 C 1314.42 456.808 1321.91 472.302 1324.31 478.997 C 1326.73 483.86 1331.4 501.257 1331.82 506.509 C 1332.34 513.066 1334.43 545.136 1332.26 549.76 C 1331.45 574.397 1321.29 617.909 1310.34 641.001 C 1308.27 646.709 1298.75 670.079 1295.6 674.256 C 1292.26 680.412 1288.47 684.326 1282.27 687.598 C 1274.51 693.927 1257.88 693.132 1249.72 687.563 C 1245.02 684.982 1243.39 683.331 1239.81 679.196 C 1232.49 668.609 1231.26 658.818 1235.63 646.799 C 1236.81 641.619 1249.34 623.154 1252.64 617.151 C 1265.95 592.936 1278.52 555.888 1280.94 528.196 C 1275.72 534.076 1270.5 541.424 1265.25 547.7 C 1261.23 553.537 1234.83 588.137 1230.58 592.309 C 1227.27 596.624 1224 600.975 1220.5 605.137 C 1210.17 619.171 1199.65 632.291 1189.01 646.033 C 1186.41 645.335 1171.69 636.481 1167.69 634.408 C 1161.29 631.088 1157.27 629.295 1150.21 626.511 C 1126.91 634.844 1112.31 638.421 1087.87 641.628 L 1087.89 641.128 C 1086.17 640.74 1085 640.913 1084.71 639.804 C 1083.19 634.021 1083.73 624.046 1083.78 618.078 L 1084.22 559.593 C 1084.51 506.347 1086.35 511.252 1035.85 511.188 L 1033.67 510.212 C 1038.83 484.34 1037.24 452.289 1017.97 431.897 C 998.486 411.292 960.37 412.929 934.059 413.006 C 934.025 403.844 933.144 363.191 934.598 356.406 C 966.886 352.661 1000.5 345.971 1017.15 313.997 C 1030.24 288.85 1028.83 239.175 1000.48 224.491 C 981.961 214.896 958.746 222.469 940.077 229.026 C 952.198 235.527 960.342 237.075 967.427 250.583 C 976.559 268.342 970.299 297.451 956.815 311.818 C 926.832 343.766 867.682 341.687 836.08 313.136 C 823.221 301.641 815.433 285.525 814.415 268.307 C 813.344 246.52 821.79 219.969 836.56 203.9 C 837.495 201.522 837.985 201.567 840.056 199.597 C 844.069 193.57 850.853 187.268 856.327 182.498 z" fill="rgb(254,109,92)" transform="translate(0,0)"></path>
<path d="M 1151.36 387.297 C 1170.77 381.046 1182.96 380.489 1203.11 382.432 C 1214.33 384.521 1244.31 396.722 1250.22 404.075 C 1251.28 405.747 1282.22 427.424 1285.36 427.577 L 1288.43 431.222 C 1294.98 436.956 1304.44 445.38 1308.88 452.778 C 1314.42 456.808 1321.91 472.302 1324.31 478.997 C 1326.73 483.86 1331.4 501.257 1331.82 506.509 C 1332.34 513.066 1334.43 545.136 1332.26 549.76 C 1331.45 574.397 1321.29 617.909 1310.34 641.001 C 1308.27 646.709 1298.75 670.079 1295.6 674.256 C 1292.26 680.412 1288.47 684.326 1282.27 687.598 C 1274.51 693.927 1257.88 693.132 1249.72 687.563 C 1245.02 684.982 1243.39 683.331 1239.81 679.196 C 1232.49 668.609 1231.26 658.818 1235.63 646.799 C 1236.81 641.619 1249.34 623.154 1252.64 617.151 C 1265.95 592.936 1278.52 555.888 1280.94 528.196 C 1275.72 534.076 1270.5 541.424 1265.25 547.7 C 1261.23 553.537 1234.83 588.137 1230.58 592.309 C 1227.27 596.624 1224 600.975 1220.5 605.137 C 1210.17 619.171 1199.65 632.291 1189.01 646.033 C 1186.41 645.335 1171.69 636.481 1167.69 634.408 C 1161.29 631.088 1157.27 629.295 1150.21 626.511 C 1126.91 634.844 1112.31 638.421 1087.87 641.628 L 1087.89 641.128 C 1095.88 638.491 1106.76 637.667 1115.08 635.694 C 1170.12 622.496 1226.04 590.056 1241.2 531.882 C 1254.39 481.267 1235.23 430.212 1189.33 404.13 C 1170.27 393.298 1152.83 389.329 1131.84 383.862 L 1133.34 382.485 L 1151.36 387.297 z" fill="rgb(162,112,103)" transform="translate(0,0)"></path>
<path d="M 1151.36 387.297 C 1170.77 381.046 1182.96 380.489 1203.11 382.432 C 1197.63 383.757 1189.42 383.021 1183.36 383.212 C 1171.72 383.578 1165.15 384.919 1154.11 387.991 C 1224.08 408.777 1262.5 463.679 1241.15 537.799 C 1229.11 579.588 1192.09 609.347 1152.57 625.203 C 1160.47 628.945 1184.45 639.461 1189.01 646.033 C 1186.41 645.335 1171.69 636.481 1167.69 634.408 C 1161.29 631.088 1157.27 629.295 1150.21 626.511 C 1126.91 634.844 1112.31 638.421 1087.87 641.628 L 1087.89 641.128 C 1095.88 638.491 1106.76 637.667 1115.08 635.694 C 1170.12 622.496 1226.04 590.056 1241.2 531.882 C 1254.39 481.267 1235.23 430.212 1189.33 404.13 C 1170.27 393.298 1152.83 389.329 1131.84 383.862 L 1133.34 382.485 L 1151.36 387.297 z" fill="rgb(82,40,34)" transform="translate(0,0)"></path>
<path d="M 1330.78 544.659 C 1331.09 541.414 1330.44 526.352 1331.63 524.901 L 1331.69 524.893 C 1333.18 527.27 1331.66 545.134 1332.26 549.76 C 1331.45 574.397 1321.29 617.909 1310.34 641.001 L 1309.82 640.145 C 1309.82 638.588 1309.79 638.204 1310.39 636.716 C 1322.19 607.358 1329.08 576.256 1330.78 544.659 z" fill="rgb(96,68,64)" transform="translate(0,0)"></path>
<path d="M 1330.78 544.659 C 1328.33 534.927 1332.25 512.326 1328.81 500.493 C 1327.84 497.163 1323.23 480.855 1324.31 478.997 C 1326.73 483.86 1331.4 501.257 1331.82 506.509 C 1332.34 513.066 1334.43 545.136 1332.26 549.76 C 1331.66 545.134 1333.18 527.27 1331.69 524.893 L 1331.63 524.901 C 1330.44 526.352 1331.09 541.414 1330.78 544.659 z" fill="rgb(131,90,85)" transform="translate(0,0)"></path>
<path d="M 1265.25 547.7 C 1265.56 544.221 1266.51 543.732 1269.02 540.528 C 1278.97 527.825 1288.92 515.1 1298.97 502.487 C 1299.6 501.696 1300.57 501.492 1301.12 502.539 C 1301.02 504 1288.61 518.313 1286.67 521.242 C 1284.71 524.205 1283.29 528.625 1280.94 528.196 C 1275.72 534.076 1270.5 541.424 1265.25 547.7 z" fill="rgb(62,43,41)" transform="translate(0,0)"></path>
<path d="M 1235.63 646.799 C 1236.69 654.553 1232.22 662.869 1238.33 673.239 C 1238.54 673.603 1240.38 677.436 1240.7 678.082 L 1239.81 679.196 C 1232.49 668.609 1231.26 658.818 1235.63 646.799 z" fill="rgb(96,68,64)" transform="translate(0,0)"></path>
<path d="M 1308.88 452.778 C 1305.52 450.557 1289.34 434.745 1288.43 431.222 C 1294.98 436.956 1304.44 445.38 1308.88 452.778 z" fill="rgb(62,43,41)" transform="translate(0,0)"></path>
<path d="M 1282.27 687.598 C 1282.94 685.953 1293.76 674.801 1295.6 674.256 C 1292.26 680.412 1288.47 684.326 1282.27 687.598 z" fill="rgb(96,68,64)" transform="translate(0,0)"></path>
<path d="M 1220.5 605.137 C 1218.79 602.832 1227.31 592.783 1230.58 592.309 C 1227.27 596.624 1224 600.975 1220.5 605.137 z" fill="rgb(62,43,41)" transform="translate(0,0)"></path>
<path d="M 1240.7 678.082 C 1243.24 680.804 1248.79 684.764 1249.72 687.563 C 1245.02 684.982 1243.39 683.331 1239.81 679.196 L 1240.7 678.082 z" fill="rgb(33,24,24)" transform="translate(0,0)"></path>
<path d="M 856.327 182.498 C 906.357 139.293 982.948 124.353 1047.9 129.226 C 1098.8 133.046 1158.52 149.09 1194.22 187.855 C 1227.45 223.927 1224.61 302.653 1181.16 329.944 C 1183.8 326.14 1189.65 320.63 1192.94 316.865 C 1205.63 302.323 1212.11 287.758 1213.89 268.525 C 1216.57 239.546 1213.38 214.497 1194.68 191.467 C 1163.65 153.263 1101.45 136.033 1054.41 131.663 C 986.274 125.334 910.767 139.438 857.021 184.059 L 856.327 182.498 z" fill="rgb(146,61,51)" transform="translate(0,0)"></path>
<path d="M 967.427 250.583 C 976.559 268.342 970.299 297.451 956.815 311.818 C 926.832 343.766 867.682 341.687 836.08 313.136 C 823.221 301.641 815.433 285.525 814.415 268.307 C 813.344 246.52 821.79 219.969 836.56 203.9 L 835.78 205.724 C 832.686 212.805 827.933 219.748 824.296 227.165 C 815.418 245.274 813.551 267.407 820.218 286.685 C 839.67 342.929 939.979 350.925 964.982 295.907 C 971.84 280.817 970.405 266.865 966.217 250.967 L 967.427 250.583 z" fill="rgb(146,61,51)" transform="translate(0,0)"></path>
<path d="M 938.331 228.909 C 965.502 215.372 1004.41 209.11 1019.61 242.852 C 1036.86 281.172 1024.89 329.335 984.391 346.415 C 970.274 352.369 950.843 357.95 935.526 357.895 L 934.598 356.406 C 966.886 352.661 1000.5 345.971 1017.15 313.997 C 1030.24 288.85 1028.83 239.175 1000.48 224.491 C 981.961 214.896 958.746 222.469 940.077 229.026 L 938.331 228.909 z" fill="rgb(146,61,51)" transform="translate(0,0)"></path>
<path d="M 934.059 413.006 C 934.025 403.844 933.144 363.191 934.598 356.406 L 935.526 357.895 C 934.985 362.06 934.875 363.558 935.058 367.745 C 934.795 372.508 934.447 406.944 935.095 410.948 C 989.164 410.763 1033.79 414.569 1038.1 480.643 C 1037.91 485.859 1037.94 491.082 1038.19 496.296 C 1037.54 500.383 1036.21 507.253 1035.85 511.188 L 1033.67 510.212 C 1038.83 484.34 1037.24 452.289 1017.97 431.897 C 998.486 411.292 960.37 412.929 934.059 413.006 z" fill="rgb(82,40,34)" transform="translate(0,0)"></path>
<path d="M 1074.95 375.236 C 1077.14 374.359 1077.81 373.989 1080.05 373.544 L 1081.9 376.063 C 1098.6 375.93 1116.94 379.344 1133.34 382.485 L 1131.84 383.862 L 1129.93 383.571 C 1123.64 382.665 1112.56 381.051 1106.51 379.861 C 1097.98 378.186 1079.94 379.236 1073.84 376.132 L 1074.95 375.236 z" fill="rgb(146,61,51)" transform="translate(0,0)"></path>
<path d="M 1074.95 375.236 C 1077.14 374.359 1077.81 373.989 1080.05 373.544 L 1081.9 376.063 C 1078.79 375.919 1077.9 375.807 1074.95 375.236 z" fill="rgb(236,240,245)" transform="translate(0,0)"></path>
<path d="M 1073.84 376.132 C 1072.67 376.211 1070.3 376.769 1069.34 375.735 C 1069.3 374.682 1070.96 374.172 1071.61 374.188 C 1078.82 374.366 1127.3 355.774 1130.01 357.272 C 1114.36 363.412 1096.27 369.201 1080.05 373.544 C 1077.81 373.989 1077.14 374.359 1074.95 375.236 L 1073.84 376.132 z" fill="rgb(62,43,41)" transform="translate(0,0)"></path>
<path d="M 938.331 228.909 L 940.077 229.026 C 952.198 235.527 960.342 237.075 967.427 250.583 L 966.217 250.967 C 959.992 240.713 950.868 234.489 939.441 231.025 C 937.262 230.364 936.871 231.33 938.331 228.909 z" fill="rgb(62,43,41)" transform="translate(0,0)"></path>
<path d="M 935.058 367.745 C 936.57 375.227 936.522 403.393 935.095 410.948 C 934.447 406.944 934.795 372.508 935.058 367.745 z" fill="rgb(146,61,51)" transform="translate(0,0)"></path>
<path d="M 856.327 182.498 L 857.021 184.059 C 850.77 188.989 846.463 195.065 840.056 199.597 C 844.069 193.57 850.853 187.268 856.327 182.498 z" fill="rgb(82,40,34)" transform="translate(0,0)"></path>
<path d="M 1038.1 480.643 C 1039.38 486.803 1039.39 490.108 1038.19 496.296 C 1037.94 491.082 1037.91 485.859 1038.1 480.643 z" fill="rgb(146,61,51)" transform="translate(0,0)"></path>
<path d="M 674.809 1471.07 C 681.734 1460.56 724.062 1448.9 736.705 1452.85 C 768.802 1453.66 802.648 1473.04 817.559 1501.81 C 819.189 1504.51 819.636 1504.92 820.688 1507.92 C 830.521 1529.51 833.731 1550.01 827.905 1573.33 L 827.454 1575.21 C 823.878 1588.34 816.461 1600.34 807.836 1610.77 C 838.985 1592.8 865.606 1578.15 903.519 1587.35 C 908.808 1588.64 921.828 1593.24 925.118 1597.26 C 928.226 1599.07 936.775 1605.57 938.817 1605.32 L 939.293 1604.38 C 942.647 1612.97 942.864 1732.1 936.486 1736.44 C 927.755 1743.91 918.699 1743.85 907.518 1743.11 C 875.056 1740.97 836.36 1764.83 826.35 1796.72 L 826.136 1797.79 C 824.702 1804.72 822.508 1809.79 822.686 1817.13 L 820.747 1820.04 C 821.211 1812.7 821.352 1812.84 822.391 1805.88 C 814.869 1794.78 807.307 1785.07 799.425 1774.27 L 796.834 1770.83 L 780.153 1748.14 C 778.221 1777.9 780.3 1794.21 787.417 1823.52 C 791.052 1832.69 799.722 1855.79 802.307 1865 C 810.741 1882.55 804.948 1897.19 789.164 1907.59 C 786.081 1909.63 783.722 1910.6 780.037 1911.4 C 772.396 1913.01 764.429 1911.63 757.776 1907.54 C 752.044 1904.49 750.291 1902.23 745.822 1897.14 C 738.957 1887.05 734.244 1867.37 731.226 1854.98 L 730.26 1850.98 L 729.808 1849.02 C 726.77 1836.03 724.332 1820.7 723.744 1807.36 C 722.731 1804.16 722.334 1794.96 722.225 1791.19 C 721.31 1759.4 723.829 1718.95 736.446 1689.83 C 738.292 1685.04 738.927 1683.35 741.377 1678.83 C 746.177 1664.97 762.42 1649.19 772.026 1638.92 L 771.163 1638.05 C 726.481 1656.24 673.76 1644.23 647.412 1602.21 C 644.935 1599.22 643.048 1594.54 641.627 1590.99 C 638.42 1584.79 635.248 1574.42 634.086 1567.49 C 632.328 1556.73 632.229 1545.77 633.792 1534.99 C 634.379 1531.13 635.216 1527.39 636.453 1523.68 C 637.809 1517.24 645.989 1498.58 651.104 1494.8 C 655.465 1487.33 667.284 1475.55 674.809 1471.07 z" fill="rgb(162,112,103)" transform="translate(0,0)"></path>
<path d="M 925.118 1597.26 C 928.226 1599.07 936.775 1605.57 938.817 1605.32 L 939.293 1604.38 C 942.647 1612.97 942.864 1732.1 936.486 1736.44 C 941.878 1720.69 938.999 1631.64 938.95 1609.07 C 934.168 1605.28 929.275 1601.7 925.118 1597.26 z" fill="rgb(18,49,49)" transform="translate(0,0)"></path>
<path d="M 779.027 1747.38 C 771.934 1738.21 764.922 1728.97 757.992 1719.68 L 758.313 1718.42 C 762.085 1719.99 796.435 1765.98 796.834 1770.83 L 780.153 1748.14 C 778.221 1777.9 780.3 1794.21 787.417 1823.52 L 786.033 1822.35 C 779.146 1805.35 775.393 1765.4 779.027 1747.38 z" fill="rgb(62,43,41)" transform="translate(0,0)"></path>
<path d="M 647.412 1602.21 C 650.178 1603.08 663.281 1619.54 667.638 1622.91 C 691.688 1641.51 724.887 1650.74 754.668 1641.96 C 758.447 1640.82 768.614 1637.5 771.163 1638.05 C 726.481 1656.24 673.76 1644.23 647.412 1602.21 z" fill="rgb(62,43,41)" transform="translate(0,0)"></path>
<path d="M 723.744 1807.36 C 726.498 1809.54 727.371 1827.32 728.45 1832.47 C 732.897 1853.69 737.115 1876.32 746.725 1896.01 L 745.822 1897.14 C 738.957 1887.05 734.244 1867.37 731.226 1854.98 L 730.26 1850.98 L 729.808 1849.02 C 726.77 1836.03 724.332 1820.7 723.744 1807.36 z" fill="rgb(96,68,64)" transform="translate(0,0)"></path>
<path d="M 736.705 1452.85 C 768.802 1453.66 802.648 1473.04 817.559 1501.81 C 814.921 1500.92 807.608 1490.11 804.356 1486.74 C 803.459 1484.84 801.189 1482.51 799.231 1481.64 C 788.034 1469.12 767.464 1458.9 751.048 1455.49 C 745.856 1454.41 742.142 1454.53 736.705 1452.85 z" fill="rgb(62,43,41)" transform="translate(0,0)"></path>
<path d="M 636.453 1523.68 C 637.145 1528.81 635.789 1531.29 635.384 1535.73 C 633.64 1554.81 635.122 1572.23 642.304 1590.08 C 642.079 1590.38 641.853 1590.69 641.627 1590.99 C 638.42 1584.79 635.248 1574.42 634.086 1567.49 C 632.328 1556.73 632.229 1545.77 633.792 1534.99 C 634.379 1531.13 635.216 1527.39 636.453 1523.68 z" fill="rgb(96,68,64)" transform="translate(0,0)"></path>
<path d="M 827.454 1575.21 C 825.977 1566.43 829.88 1558.24 828.766 1548.51 C 827.741 1539.55 827.811 1533.43 825.169 1524.48 C 823.774 1519.76 820.419 1512.4 820.688 1507.92 C 830.521 1529.51 833.731 1550.01 827.905 1573.33 L 827.454 1575.21 z" fill="rgb(96,68,64)" transform="translate(0,0)"></path>
<path d="M 799.425 1774.27 C 805.067 1775.83 817.356 1797.73 822.627 1802.47 C 823.566 1803.32 825.963 1797.42 826.35 1796.72 L 826.136 1797.79 C 824.702 1804.72 822.508 1809.79 822.686 1817.13 L 820.747 1820.04 C 821.211 1812.7 821.352 1812.84 822.391 1805.88 C 814.869 1794.78 807.307 1785.07 799.425 1774.27 z" fill="rgb(62,43,41)" transform="translate(0,0)"></path>
<path d="M 789.164 1907.59 C 789.581 1905.01 794.655 1899.71 796.021 1899.02 C 809.164 1892.4 801.255 1866.81 802.307 1865 C 810.741 1882.55 804.948 1897.19 789.164 1907.59 z" fill="rgb(96,68,64)" transform="translate(0,0)"></path>
<path d="M 651.104 1494.8 C 655.465 1487.33 667.284 1475.55 674.809 1471.07 C 673.074 1473.74 653.826 1493.01 651.104 1494.8 z" fill="rgb(96,68,64)" transform="translate(0,0)"></path>
<path d="M 746.725 1896.01 C 748.671 1898.21 749.319 1898.74 751.584 1900.62 C 753.297 1903.12 754.521 1903.73 757.001 1905.48 C 757.382 1906.38 757.498 1906.63 757.776 1907.54 C 752.044 1904.49 750.291 1902.23 745.822 1897.14 L 746.725 1896.01 z" fill="rgb(33,24,24)" transform="translate(0,0)"></path>
<path d="M 741.377 1678.83 C 741.522 1683.32 740.548 1687.47 736.446 1689.83 C 738.292 1685.04 738.927 1683.35 741.377 1678.83 z" fill="rgb(96,68,64)" transform="translate(0,0)"></path>
<path d="M 799.231 1481.64 C 801.189 1482.51 803.459 1484.84 804.356 1486.74 C 802.484 1486.42 799.734 1483.27 799.231 1481.64 z" fill="rgb(131,90,85)" transform="translate(0,0)"></path>
<path d="M 751.584 1900.62 C 754.85 1902.06 754.861 1902.71 757.001 1905.48 C 754.521 1903.73 753.297 1903.12 751.584 1900.62 z" fill="rgb(131,90,85)" transform="translate(0,0)"></path>
<path d="M 767.573 1557.69 C 772.158 1558.82 775.388 1560 776.86 1565 C 778.813 1571.44 777.969 1578.39 774.535 1584.18 C 764 1602.12 745.838 1603.07 729.22 1593.02 C 727.338 1591.1 719.557 1583.33 726.507 1579.35 C 732.331 1577.66 738.186 1586.91 742.633 1588.68 C 755.776 1593.93 763.285 1583.12 768.028 1573.16 C 765.663 1564.99 762.109 1563.89 767.573 1557.69 z" fill="rgb(82,40,34)" transform="translate(0,0)"></path>
<path d="M 693.183 1548.13 C 698.729 1547.89 708.409 1547.95 711.222 1552.81 C 721.835 1571.14 698.616 1558.81 697.993 1558.73 C 688.749 1557.69 685.588 1564.22 684.738 1571.82 C 688.153 1583.52 685.489 1591.54 675.648 1579.19 C 673.262 1576.2 674.999 1566.51 676.602 1562.73 C 679.945 1554.86 685.322 1551.38 693.183 1548.13 z" fill="rgb(82,40,34)" transform="translate(0,0)"></path>
<path d="M 759.485 1499.13 C 787.739 1497.97 785.642 1525.35 769.589 1510.69 C 762.405 1504.14 754.285 1513.77 751.242 1519.03 C 750.727 1523.63 753.804 1531.94 750.069 1533.27 C 739.859 1536.88 738.519 1521.82 741.499 1515.11 C 745.752 1505.53 750.422 1503.35 759.485 1499.13 z" fill="rgb(82,40,34)" transform="translate(0,0)"></path>
<path d="M 807.3 1608.7 C 808.642 1611.5 809.561 1610.26 810.106 1611.68 C 809.857 1612.06 779.277 1635.03 775.464 1638.74 C 774.473 1636.52 774.576 1636.94 771.854 1636.54 C 772.196 1636.18 779.706 1631.97 781.32 1630.8 C 789.321 1625 800.269 1618.28 806.144 1610.23 L 807.3 1608.7 z" fill="rgb(62,43,41)" transform="translate(0,0)"></path>
<path d="M 1033.67 510.212 L 1035.85 511.188 C 1086.35 511.252 1084.51 506.347 1084.22 559.593 L 1083.78 618.078 C 1083.73 624.046 1083.19 634.021 1084.71 639.804 C 1085 640.913 1086.17 640.74 1087.89 641.128 L 1087.87 641.628 C 1082.52 643.481 1083.74 644.839 1083.71 650.651 C 1084.03 654.492 1084.15 657.054 1084.1 660.905 C 1093.62 660.948 1115.36 658.297 1122.16 665.775 C 1123.42 667.152 1124.61 669.264 1124.52 671.156 C 1124.04 681.003 1073.23 737.15 1063.37 749.993 C 1062.89 750.625 1062.4 751.257 1061.92 751.888 C 1016.19 804.765 1031.26 794.395 989.062 751.498 C 983.363 752.318 976.479 753.154 970.916 754.254 L 970.529 752.856 C 975.174 751.911 983.401 751.097 988.354 750.448 C 977.248 735.847 930.099 685.083 926.997 672.774 C 926.374 670.304 926.306 668.653 927.916 666.549 C 934.001 658.599 957.909 661.033 967.066 661.054 C 967.135 654.925 967.125 650.261 966.72 644.112 L 966.614 642.41 C 967.554 635.385 967.07 617.727 967.034 609.853 L 966.727 549.977 C 966.675 541.637 965.965 529.037 967.868 521.043 C 968.663 517.705 974.352 514.378 977.314 512.808 L 979.403 512.065 C 989.362 511.773 1008.85 511.188 1018.46 512.074 C 1022.66 511.937 1030.61 512.218 1033.67 510.212 z" fill="rgb(36,29,93)" transform="translate(0,0)"></path>
<path d="M 1033.67 510.212 L 1035.85 511.188 C 1086.35 511.252 1084.51 506.347 1084.22 559.593 L 1083.78 618.078 C 1083.73 624.046 1083.19 634.021 1084.71 639.804 C 1085 640.913 1086.17 640.74 1087.89 641.128 L 1087.87 641.628 C 1082.52 643.481 1083.74 644.839 1083.71 650.651 C 1080.88 640.909 1081.87 616.245 1081.77 604.705 C 1081.53 577.383 1082.57 549.901 1081.56 522.519 C 1078.81 518.776 1076.82 516.87 1073.57 513.588 C 1059.39 513.064 1030.64 514.744 1018.46 512.074 C 1022.66 511.937 1030.61 512.218 1033.67 510.212 z" fill="rgb(32,26,78)" transform="translate(0,0)"></path>
<path d="M 1311.86 246.736 C 1329.68 241.292 1367.08 252.517 1380.31 265.342 C 1387.47 270.946 1394.17 276.932 1398.91 284.784 C 1401.17 286.502 1404.69 291.488 1405.55 293.976 C 1420.39 317.765 1422.17 352.59 1410.43 378.007 C 1408 384.526 1403.47 393.311 1398.65 398.332 C 1393.25 405.258 1388.34 410.294 1381.25 415.542 C 1360.71 432.529 1321.72 442.751 1296.71 431.327 C 1293.21 430.418 1288.76 428.868 1285.36 427.577 C 1282.22 427.424 1251.28 405.747 1250.22 404.075 L 1253.33 403.606 C 1240.2 390.674 1233.73 374.005 1230.43 356.219 C 1228.36 339.657 1228.54 314.363 1237.93 299.833 C 1241.72 284.737 1260.16 266.211 1273.96 259.453 C 1285.25 252.583 1298.58 247.421 1311.86 246.736 z" fill="rgb(162,112,103)" transform="translate(0,0)"></path>
<path d="M 1410.43 378.007 C 1408.89 375.698 1411.67 370.239 1412.72 367.468 C 1418.08 353.446 1415.53 340.173 1415.03 326.492 C 1414.59 314.412 1405.63 300.582 1405.55 293.976 C 1420.39 317.765 1422.17 352.59 1410.43 378.007 z" fill="rgb(96,68,64)" transform="translate(0,0)"></path>
<path d="M 1253.33 403.606 C 1254.84 402.746 1255.96 404.11 1256.97 405.523 C 1259.86 409.546 1269.21 414.398 1271.95 417.421 C 1276.6 422.537 1294.54 428.42 1296.71 431.327 C 1293.21 430.418 1288.76 428.868 1285.36 427.577 C 1282.22 427.424 1251.28 405.747 1250.22 404.075 L 1253.33 403.606 z" fill="rgb(33,24,24)" transform="translate(0,0)"></path>
<path d="M 1237.93 299.833 C 1238.5 301.003 1234.61 313.935 1233.49 316.741 C 1229.02 328.024 1232.77 346.333 1230.43 356.219 C 1228.36 339.657 1228.54 314.363 1237.93 299.833 z" fill="rgb(96,68,64)" transform="translate(0,0)"></path>
<path d="M 1273.96 259.453 C 1285.25 252.583 1298.58 247.421 1311.86 246.736 C 1310.23 248.537 1302.97 250.102 1300.52 250.357 C 1294.08 251.025 1279.15 259.393 1273.96 259.453 z" fill="rgb(96,68,64)" transform="translate(0,0)"></path>
<path d="M 1380.31 265.342 C 1387.47 270.946 1394.17 276.932 1398.91 284.784 C 1395.92 282.71 1381.07 268.509 1380.31 265.342 z" fill="rgb(62,43,41)" transform="translate(0,0)"></path>
<path d="M 1381.25 415.542 C 1381.63 412.702 1395.74 398.822 1398.65 398.332 C 1393.25 405.258 1388.34 410.294 1381.25 415.542 z" fill="rgb(96,68,64)" transform="translate(0,0)"></path>
<path d="M 1287.32 348.308 C 1297.04 351.036 1293.02 353.205 1291.98 361.507 C 1290.88 370.382 1296.99 379.521 1306.5 379.523 C 1316.56 380.104 1319.58 371.375 1325.14 367.068 C 1330.46 362.947 1332.66 369.793 1331.66 374.697 C 1310.3 405.003 1267.39 379.771 1287.32 348.308 z" fill="rgb(82,40,34)" transform="translate(0,0)"></path>
<path d="M 1290.88 293.257 C 1301.88 293.859 1301.1 295.547 1308.52 300.971 C 1318.1 307.97 1316.44 336.415 1303.83 326.551 C 1301.88 325.032 1304.22 318.744 1304.82 316.33 C 1305.21 307.578 1295.37 301.313 1287.46 304.478 C 1284.75 305.422 1281.76 312.524 1278.6 310.905 C 1276.78 310.029 1272.93 306.348 1274 304.008 C 1277.41 296.616 1283.74 294.622 1290.88 293.257 z" fill="rgb(82,40,34)" transform="translate(0,0)"></path>
<path d="M 1351.22 339.16 C 1367.09 338.105 1372.81 340.717 1379.48 355.556 C 1386.19 370.466 1368.68 382.315 1368.11 369.941 C 1371.4 359.648 1373.18 352.676 1359.49 348.231 C 1352.1 345.831 1346.16 356.167 1343.1 353.772 C 1334.88 347.343 1346.24 341.513 1351.22 339.16 z" fill="rgb(82,40,34)" transform="translate(0,0)"></path>
<path d="M 966.72 644.112 C 958.19 642.49 944.852 641.512 935.111 639.896 C 899.094 634.307 868.961 621.948 841.825 597.243 C 804.063 562.864 785.15 501.686 824.127 460.786 C 857.276 426.004 926.976 423.69 961.316 458.408 C 977.389 474.657 979.466 490.112 979.403 512.065 L 977.314 512.808 C 974.352 514.378 968.663 517.705 967.868 521.043 C 965.965 529.037 966.675 541.637 966.727 549.977 L 967.034 609.853 C 967.07 617.727 967.554 635.385 966.614 642.41 L 966.72 644.112 z" fill="rgb(254,109,92)" transform="translate(0,0)"></path>
<path d="M 966.72 644.112 C 958.19 642.49 944.852 641.512 935.111 639.896 C 899.094 634.307 868.961 621.948 841.825 597.243 C 804.063 562.864 785.15 501.686 824.127 460.786 C 857.276 426.004 926.976 423.69 961.316 458.408 C 977.389 474.657 979.466 490.112 979.403 512.065 L 977.314 512.808 C 986.492 434.312 878.934 414.897 830.275 457.359 C 815.104 470.489 805.949 489.242 804.928 509.28 C 800.643 583.384 878.721 634.57 944.363 639.574 C 951.112 640.088 959.96 641.247 966.614 642.41 L 966.72 644.112 z" fill="rgb(146,61,51)" transform="translate(0,0)"></path>
<metadata><recraft-signature>{"signed_by": "recraft", "signature_b64": "HEls65FEIyjNZXdnoKlvRC3xs02oBuUo5rHwCDqyIqET4VMnrhw53KNfrEVzzVlctKLBftW3FCQX3YfHYftOCg==", "signing_algo": "Ed25519", "generation_timestamp": 1779093028, "identifier": "ed83f521-5b70-4625-80ae-af9ca6fdb8a9"}</recraft-signature></metadata></svg>