<svg xmlns="http://www.w3.org/2000/svg" height="1280" preserveAspectRatio="none" style="display: block;" version="1.1" viewBox="0 0 1331 2048" width="832">
<path d="M 0 0 L 1331 0 L 1331 2048 L 0 2048 L 0 0 z" fill="rgb(255,255,255)" transform="translate(0,0)"></path>
<path d="M 393.286 1207.41 C 383.107 1204.87 370.396 1195.12 363.437 1186.83 C 354.304 1177.21 343.951 1149.92 347.038 1136.34 C 354.145 1105.07 375.587 1063.93 388.54 1034.97 L 457.711 880.222 L 503.799 777.26 C 521.8 736.858 531.52 704.506 567.574 676.075 C 594.732 654.895 629.135 645.254 663.345 649.238 C 713.783 661.796 726.431 670.79 756.127 713.997 L 767.695 702.718 C 782.737 721.38 805.113 755.192 809.794 779.3 C 834.022 838.797 855.242 902.999 879.778 962.932 C 894.499 965.108 906.224 964.74 919.5 966.459 C 944.847 969.642 967.756 983.146 982.817 1003.78 C 997.767 1024.15 1003.97 1049.65 1000.04 1074.61 C 999.328 1079.1 998.055 1085.48 996.542 1089.81 L 995.099 1094.2 L 993.248 1101.58 C 982.98 1099.91 973.659 1097.41 963.091 1097.58 C 948.113 1097.81 933.522 1100.22 918.447 1100.69 C 916.579 1105.7 913.292 1115.49 910.283 1119.47 C 914.288 1121.78 913.942 1120.72 915.074 1124.07 C 913.39 1135.34 901.546 1149.47 893.488 1157.53 C 889.11 1160.3 881.972 1167.21 877.031 1170.72 C 845.841 1187.91 818.701 1191.24 783.783 1187.47 C 782.237 1186.7 761.607 1183.83 757.004 1182.73 C 736.615 1215.94 723.131 1253.43 680.267 1264.01 C 677.872 1264.58 675.463 1265.1 673.042 1265.55 L 667.263 1266.17 C 643.688 1268.52 591.499 1254.28 566.406 1248.11 L 459.626 1222.77 C 440.789 1218.24 411.339 1210.06 393.286 1207.41 z" fill="rgb(251,179,11)" transform="translate(0,0)"></path>
<path d="M 809.794 779.3 C 834.022 838.797 855.242 902.999 879.778 962.932 C 894.499 965.108 906.224 964.74 919.5 966.459 C 944.847 969.642 967.756 983.146 982.817 1003.78 C 997.767 1024.15 1003.97 1049.65 1000.04 1074.61 C 999.328 1079.1 998.055 1085.48 996.542 1089.81 L 995.099 1094.2 L 993.248 1101.58 C 982.98 1099.91 973.659 1097.41 963.091 1097.58 C 948.113 1097.81 933.522 1100.22 918.447 1100.69 L 918.418 1096.91 C 924.317 1088.61 921.134 1076.79 919.752 1067.46 C 914.247 1030.33 884.864 997.448 849.08 986.644 C 829.105 980.614 813.269 980.393 795.024 968.111 C 797.025 960.497 798.714 952.803 800.088 945.051 C 804.173 922.283 812.275 825.146 801.904 810.234 C 808.965 808.342 805.655 786.698 809.794 779.3 z" fill="rgb(251,179,11)" transform="translate(0,0)"></path>
<path d="M 918.418 1096.91 C 916.837 1095.69 915.256 1094.47 913.676 1093.24 C 912.523 1083.6 912.613 1073.98 910.686 1064.42 C 907.838 1050.29 901.273 1038 892.396 1026.8 C 865.954 992.867 840.652 996.127 805.294 983.393 C 801.257 981.94 792.092 977.663 789.184 974.636 C 777.231 962.196 770.871 938.599 765.265 922.553 L 733.894 834.489 C 726.564 813.387 713.388 771.808 702.965 754.128 C 696.339 742.872 687.247 733.265 676.372 726.029 C 639.478 701.925 598.009 717.092 575.978 753.056 C 571.999 759.551 568.683 766.26 564.601 772.739 C 561.961 772.83 563.289 773.012 560.592 771.572 C 559.546 769.342 559.434 767.835 560.28 765.402 C 567.836 743.662 584.191 724.331 604.541 714.051 C 622.88 704.744 644.223 703.328 663.631 710.13 C 707.599 725.255 719.031 766.792 732.829 805.653 L 767.792 903.284 C 774.621 922.606 779.214 941.07 788.356 959.483 C 795.765 931.584 797.986 887.428 798.652 857.953 C 798.877 847.987 793.942 817.793 795.679 811.686 C 798.202 809.916 798.638 810.143 801.904 810.234 C 812.275 825.146 804.173 922.283 800.088 945.051 C 798.714 952.803 797.025 960.497 795.024 968.111 C 813.269 980.393 829.105 980.614 849.08 986.644 C 884.864 997.448 914.247 1030.33 919.752 1067.46 C 921.134 1076.79 924.317 1088.61 918.418 1096.91 z" fill="rgb(93,46,1)" transform="translate(0,0)"></path>
<path d="M 757.004 1182.73 C 722.517 1173.64 691.073 1155.53 665.903 1130.26 C 650.277 1114.71 637.451 1095.65 628.155 1075.69 C 619.072 1056.2 543.475 825.771 543.768 816.366 C 543.84 814.079 543.992 813.822 545.618 812.267 C 553.811 815.22 563.378 854.79 566.53 864.281 C 580.572 906.312 594.349 948.431 607.86 990.635 C 624.269 1041.88 633.461 1086.66 673.433 1125.39 C 709.638 1162.07 759.64 1180.75 810.789 1180.13 C 846.57 1179.7 883.333 1164.72 901.629 1132.65 C 903.915 1128.65 907.019 1122.52 910.283 1119.47 C 914.288 1121.78 913.942 1120.72 915.074 1124.07 C 913.39 1135.34 901.546 1149.47 893.488 1157.53 C 889.11 1160.3 881.972 1167.21 877.031 1170.72 C 845.841 1187.91 818.701 1191.24 783.783 1187.47 C 782.237 1186.7 761.607 1183.83 757.004 1182.73 z" fill="rgb(93,46,1)" transform="translate(0,0)"></path>
<path d="M 995.099 1094.2 C 1032.12 1103.49 1063.01 1114 1088.68 1144.12 C 1090.51 1140.46 1090.16 1135.24 1090.24 1130.95 C 1107.68 1147.82 1117.31 1161.53 1123.88 1185.73 C 1124.79 1189.11 1126.12 1202.26 1126.63 1203.65 C 1129.58 1262.08 1108.89 1303.41 1107.63 1361.01 C 1107.11 1384.74 1109.32 1395.41 1113.34 1418.61 C 1121.09 1463.34 1147.74 1519.06 1113.47 1558.79 C 1098.31 1576.36 1070.52 1581.67 1048.59 1582.32 C 1043.48 1582.47 1036.56 1582.33 1031.87 1583.84 C 1030.33 1586.4 1030.88 1589.77 1030.98 1592.95 L 1030.1 1593.06 C 1007.69 1600.91 950.233 1601.54 927.743 1589.05 C 926.363 1588.28 926.839 1584.51 926.859 1582.94 L 926.137 1582.7 C 925.839 1595.52 925.395 1612.59 923.493 1625.24 L 922.582 1625.67 C 919.811 1626.96 916.769 1627.58 913.957 1629.01 C 906.672 1632.74 901.229 1644.34 898.584 1651.68 C 892.173 1669.48 888.072 1694.2 887.605 1713.01 L 791.14 1712.85 C 781.193 1712.87 733.11 1713.71 727.31 1711.83 C 766.943 1678.94 786.726 1623.98 770.053 1574.41 C 766.422 1563.61 763.19 1552.39 759.74 1541.5 C 752.401 1518.31 744.831 1495.2 737.03 1472.17 C 725.26 1436.94 712.865 1397.86 701.907 1362.3 C 698.167 1362.73 699.346 1363.09 696.198 1361.71 C 692.259 1355.63 674.361 1297.63 671.819 1287.9 C 670.256 1283.27 665.681 1271.79 665.625 1267.71 L 667.263 1266.17 L 673.042 1265.55 C 675.463 1265.1 677.872 1264.58 680.267 1264.01 C 723.131 1253.43 736.615 1215.94 757.004 1182.73 C 761.607 1183.83 782.237 1186.7 783.783 1187.47 C 818.701 1191.24 845.841 1187.91 877.031 1170.72 C 881.972 1167.21 889.11 1160.3 893.488 1157.53 C 901.546 1149.47 913.39 1135.34 915.074 1124.07 C 913.942 1120.72 914.288 1121.78 910.283 1119.47 C 913.292 1115.49 916.579 1105.7 918.447 1100.69 C 933.522 1100.22 948.113 1097.81 963.091 1097.58 C 973.659 1097.41 982.98 1099.91 993.248 1101.58 L 995.099 1094.2 z" fill="rgb(187,95,81)" transform="translate(0,0)"></path>
<path d="M 732.876 1351.6 C 768.191 1342.49 803.427 1333.08 838.581 1323.37 C 866.947 1315.82 899.17 1307.94 927.01 1299.4 C 904.121 1351.41 881.419 1400.47 862.191 1454.16 C 831.836 1538.92 823.842 1573.46 926.137 1582.7 C 925.839 1595.52 925.395 1612.59 923.493 1625.24 L 922.582 1625.67 C 919.811 1626.96 916.769 1627.58 913.957 1629.01 C 906.672 1632.74 901.229 1644.34 898.584 1651.68 C 892.173 1669.48 888.072 1694.2 887.605 1713.01 L 791.14 1712.85 C 781.193 1712.87 733.11 1713.71 727.31 1711.83 C 766.943 1678.94 786.726 1623.98 770.053 1574.41 C 766.422 1563.61 763.19 1552.39 759.74 1541.5 C 752.401 1518.31 744.831 1495.2 737.03 1472.17 C 725.26 1436.94 712.865 1397.86 701.907 1362.3 L 702.754 1360.56 C 710.403 1357.47 724.155 1354.24 732.876 1351.6 z" fill="rgb(255,255,255)" transform="translate(0,0)"></path>
<path d="M 995.099 1094.2 C 1032.12 1103.49 1063.01 1114 1088.68 1144.12 C 1094.59 1151.45 1110.42 1168.75 1109.88 1177.48 C 1108.08 1179.96 1107.95 1180.04 1105.39 1181.8 L 1100.77 1184.96 C 1099.7 1187.85 1097.68 1189.14 1095.3 1191.22 C 1093.21 1194.91 1089.59 1197.18 1085.7 1198.7 L 1080.61 1203.33 C 1086.22 1225.69 1056.41 1216 1051.02 1209.38 L 1049.75 1209.18 C 1050.64 1213.84 1050.94 1216.71 1047.83 1220.52 C 1046.17 1221.64 1043.63 1222.74 1041.63 1222.48 C 1013.55 1218.82 1004.36 1198.58 974.313 1195.68 C 950.072 1193.35 920.809 1185.48 902.938 1168.72 C 899.464 1164.88 896.635 1161.66 893.488 1157.53 C 901.546 1149.47 913.39 1135.34 915.074 1124.07 C 913.942 1120.72 914.288 1121.78 910.283 1119.47 C 913.292 1115.49 916.579 1105.7 918.447 1100.69 C 933.522 1100.22 948.113 1097.81 963.091 1097.58 C 973.659 1097.41 982.98 1099.91 993.248 1101.58 L 995.099 1094.2 z" fill="rgb(241,160,140)" transform="translate(0,0)"></path>
<path d="M 995.099 1094.2 C 1032.12 1103.49 1063.01 1114 1088.68 1144.12 C 1094.59 1151.45 1110.42 1168.75 1109.88 1177.48 C 1108.08 1179.96 1107.95 1180.04 1105.39 1181.8 C 1104.11 1178.71 1101.29 1173.31 1099.38 1170.39 C 1070.05 1125.34 1041.83 1113.88 993.248 1101.58 L 995.099 1094.2 z" fill="rgb(90,38,32)" transform="translate(0,0)"></path>
<path d="M 1095.3 1191.22 C 1069.58 1153.5 1059.02 1151.87 1020.69 1133.53 L 1019.86 1130.6 L 1020.7 1129.43 C 1023.08 1128.78 1024.86 1128.9 1027.26 1129.56 C 1056.76 1137.69 1084.44 1159.93 1100.77 1184.96 C 1099.7 1187.85 1097.68 1189.14 1095.3 1191.22 z" fill="rgb(90,38,32)" transform="translate(0,0)"></path>
<path d="M 1080.61 1203.33 C 1064.71 1188.17 1050.41 1175.18 1029.99 1166.2 C 1023.4 1163.29 1009.55 1161.67 1007 1155.02 L 1008.09 1153.32 C 1011.29 1152.33 1016.4 1154.48 1019.7 1155.4 C 1045.85 1162.7 1067.77 1178.64 1085.7 1198.7 L 1080.61 1203.33 z" fill="rgb(90,38,32)" transform="translate(0,0)"></path>
<path d="M 1049.75 1209.18 C 1045.46 1206.44 1042.04 1202.61 1037.8 1199.8 C 1025.22 1191.46 1010.66 1185.39 996.031 1181.75 C 991.112 1180.53 993.894 1174.55 994.886 1174.63 C 1006.97 1175.68 1020.14 1181.68 1030.91 1187.14 C 1038.11 1191.11 1048.29 1197.15 1052.64 1203.61 C 1053.13 1204.34 1051.4 1208.34 1051.02 1209.38 L 1049.75 1209.18 z" fill="rgb(90,38,32)" transform="translate(0,0)"></path>
<path d="M 757.004 1182.73 C 761.607 1183.83 782.237 1186.7 783.783 1187.47 C 779.247 1188.61 775.334 1195.88 772.74 1199.72 C 743.424 1243.11 733.1 1300.43 732.876 1351.6 C 724.155 1354.24 710.403 1357.47 702.754 1360.56 L 701.907 1362.3 C 698.167 1362.73 699.346 1363.09 696.198 1361.71 C 692.259 1355.63 674.361 1297.63 671.819 1287.9 C 670.256 1283.27 665.681 1271.79 665.625 1267.71 L 667.263 1266.17 L 673.042 1265.55 C 675.463 1265.1 677.872 1264.58 680.267 1264.01 C 723.131 1253.43 736.615 1215.94 757.004 1182.73 z" fill="rgb(134,56,38)" transform="translate(0,0)"></path>
<path d="M 667.263 1266.17 L 673.042 1265.55 C 677.835 1280.11 702.122 1348.96 702.754 1360.56 L 701.907 1362.3 C 698.167 1362.73 699.346 1363.09 696.198 1361.71 C 692.259 1355.63 674.361 1297.63 671.819 1287.9 C 670.256 1283.27 665.681 1271.79 665.625 1267.71 L 667.263 1266.17 z" fill="rgb(90,38,32)" transform="translate(0,0)"></path>
<path d="M 926.859 1582.94 C 948.403 1582.8 969.948 1582.81 991.493 1582.96 C 1002.36 1583 1018.92 1582.53 1029.3 1583.5 C 1030.29 1587.04 1030.11 1589.44 1030.1 1593.06 C 1007.69 1600.91 950.233 1601.54 927.743 1589.05 C 926.363 1588.28 926.839 1584.51 926.859 1582.94 z" fill="rgb(90,38,32)" transform="translate(0,0)"></path>
<path d="M 877.031 1170.72 C 881.972 1167.21 889.11 1160.3 893.488 1157.53 C 896.635 1161.66 899.464 1164.88 902.938 1168.72 C 897.841 1170.62 882.795 1170.97 877.031 1170.72 z" fill="rgb(134,56,38)" transform="translate(0,0)"></path>
<path d="M 985.018 1220.48 C 989.063 1221.19 989.989 1222.63 990.737 1226.23 C 987.457 1234.45 942.341 1289.74 932.937 1302.01 C 929.333 1301.11 927.52 1300.63 926 1297.27 C 927.282 1291.22 977.372 1229.22 985.018 1220.48 z" fill="rgb(90,38,32)" transform="translate(0,0)"></path>
<path d="M 393.286 1207.41 C 411.339 1210.06 440.789 1218.24 459.626 1222.77 L 566.406 1248.11 C 591.499 1254.28 643.688 1268.52 667.263 1266.17 L 665.625 1267.71 C 665.681 1271.79 670.256 1283.27 671.819 1287.9 C 674.361 1297.63 692.259 1355.63 696.198 1361.71 C 699.346 1363.09 698.167 1362.73 701.907 1362.3 C 712.865 1397.86 725.26 1436.94 737.03 1472.17 C 744.831 1495.2 752.401 1518.31 759.74 1541.5 C 763.19 1552.39 766.422 1563.61 770.053 1574.41 C 786.726 1623.98 766.943 1678.94 727.31 1711.83 C 692.622 1738 658.327 1747.68 615.155 1741.46 C 571.485 1735.17 538.68 1717.41 494.318 1712.31 C 473.293 1710.29 466.218 1710.18 445.041 1712.33 C 427.854 1714.49 412.003 1720.77 395.785 1727.3 C 369.192 1738 341.728 1758.63 314.017 1738.11 C 307.498 1733.29 300.366 1723.04 295.66 1716.31 C 278.073 1682.59 273.714 1638.69 278.082 1601.34 C 281.569 1569.72 287.262 1541.16 297.665 1511 C 325.158 1432.34 366.142 1429.01 421.532 1483.26 C 452.506 1513.59 500.246 1528.53 541.965 1537.78 L 433.613 1382.25 C 398.584 1332.68 379.831 1280.24 390.308 1219.18 L 393.286 1207.41 z" fill="rgb(187,95,81)" transform="translate(0,0)"></path>
<path d="M 393.286 1207.41 C 411.339 1210.06 440.789 1218.24 459.626 1222.77 L 566.406 1248.11 C 591.499 1254.28 643.688 1268.52 667.263 1266.17 L 665.625 1267.71 C 665.681 1271.79 670.256 1283.27 671.819 1287.9 C 658.097 1283.35 622.913 1276.54 607.223 1272.92 L 482.436 1243.03 C 469.336 1239.94 394.791 1223.18 390.308 1219.18 L 393.286 1207.41 z" fill="rgb(134,56,38)" transform="translate(0,0)"></path>
<path d="M 546.792 1538.73 C 552.946 1543.45 593.452 1599.41 597.597 1607.38 C 597.317 1610.87 596.692 1610.54 594.003 1613.58 C 587.962 1610.73 548.217 1554.34 542.607 1544.92 C 542.936 1541.91 544.344 1541.36 546.792 1538.73 z" fill="rgb(90,38,32)" transform="translate(0,0)"></path>
<path d="M 735.256 407.818 C 693.686 408.366 662.392 372.423 670.063 331.501 C 673.405 313.245 684.001 297.122 699.431 286.81 C 713.306 277.375 730.396 273.929 746.843 277.248 C 763.328 280.602 777.78 290.427 786.961 304.524 C 799.22 323.597 798.898 342.281 794.457 363.454 C 810.722 357.903 822.89 354.247 840.228 352.874 C 881.444 349.618 922.239 363.058 953.449 390.173 C 987.093 419.138 1003.82 457.194 1007.1 500.942 C 1011.13 516.744 1002.27 541.057 998.015 556.531 C 989.806 586.354 964.698 603.457 954.574 630.103 C 950.588 640.592 963.394 660.585 942.499 665.215 C 937.988 666.298 936.624 665.884 932.295 664.685 L 927.004 662.299 C 892.066 704.764 836.709 713.297 793.898 678.981 C 792.639 677.972 791.52 676.62 790.621 675.301 C 787.469 679.476 784.907 683.08 781.558 687.209 C 777.012 692.456 772.536 697.739 767.695 702.718 L 756.127 713.997 C 726.431 670.79 713.783 661.796 663.345 649.238 C 683.247 629.735 701.597 608.542 721.913 588.912 C 699.386 552.071 694.422 512.034 704.094 469.935 C 709.732 445.397 720.221 427.787 735.256 407.818 z" fill="rgb(93,46,1)" transform="translate(0,0)"></path>
<path d="M 766.01 551.417 C 766.03 535.749 765.675 520.962 775.413 507.43 C 785.378 493.583 806.156 483.655 821.409 495.597 C 833.671 505.198 835.528 519.856 837.262 534.364 C 845.789 536.45 854.42 538.083 863.121 539.254 C 906.483 544.847 952.724 536.608 992.72 519.301 C 998.013 517.011 1001.45 515.248 1006.04 511.709 C 1007.78 508.58 1007.19 504.715 1007.1 500.942 C 1011.13 516.744 1002.27 541.057 998.015 556.531 C 989.806 586.354 964.698 603.457 954.574 630.103 C 950.588 640.592 963.394 660.585 942.499 665.215 C 937.988 666.298 936.624 665.884 932.295 664.685 L 927.004 662.299 C 892.066 704.764 836.709 713.297 793.898 678.981 C 792.639 677.972 791.52 676.62 790.621 675.301 C 787.469 679.476 784.907 683.08 781.558 687.209 C 777.012 692.456 772.536 697.739 767.695 702.718 L 756.127 713.997 C 726.431 670.79 713.783 661.796 663.345 649.238 C 683.247 629.735 701.597 608.542 721.913 588.912 L 723.94 589.679 C 728.678 588.851 760.641 556.796 766.01 551.417 z" fill="rgb(241,160,140)" transform="translate(0,0)"></path>
<path d="M 781.558 687.209 C 775.014 674.71 761.827 647.095 760.583 632.005 C 760.653 631.313 761.277 630.476 761.889 630.236 C 765.547 628.804 766.239 635.457 767.191 638.003 C 770.841 647.687 775.922 656.769 782.266 664.945 C 783.937 667.079 790.431 673.963 790.621 675.301 C 787.469 679.476 784.907 683.08 781.558 687.209 z" fill="rgb(90,38,32)" transform="translate(0,0)"></path>
<path d="M 927.004 662.299 C 919.514 659.02 912.69 644.496 916.776 640.948 C 925.396 633.462 920.726 651.032 925.955 654.144 C 934.27 659.094 936.701 654.197 940.197 659.893 C 941.124 664.403 934.93 664.358 932.295 664.685 L 927.004 662.299 z" fill="rgb(90,38,32)" transform="translate(0,0)"></path>
<path d="M 842.626 596.144 C 888.441 593.712 918.698 636.409 870.233 649.032 C 850.855 649.88 826.274 645.801 817.848 624.419 C 811.752 608.952 830.244 599.779 842.626 596.144 z" fill="rgb(187,95,81)" transform="translate(0,0)"></path>
<path d="M 911.286 580.071 C 937.545 578.275 933.593 601.933 916.167 611.222 C 893.175 613.562 890.84 590.956 911.286 580.071 z" fill="rgb(90,38,32)" transform="translate(0,0)"></path>
<path d="M 926.137 1582.7 L 926.859 1582.94 C 926.839 1584.51 926.363 1588.28 927.743 1589.05 C 950.233 1601.54 1007.69 1600.91 1030.1 1593.06 L 1030.98 1592.95 C 1030.94 1601.03 1031.18 1610.99 1030.8 1618.91 C 1039.29 1620.8 1040.96 1626.33 1044.51 1626.66 C 1049.27 1631.92 1046.59 1631.88 1048.6 1637.61 C 1054.15 1653.42 1065.12 1658.75 1079.85 1662.06 C 1086.89 1662.18 1096.47 1663.71 1103.72 1664.63 C 1125.43 1667.39 1151.48 1670.28 1167.58 1686.68 C 1172.9 1692.1 1175.12 1697.36 1175.16 1704.84 C 1175.2 1711.89 1168.58 1722.71 1169.5 1726.85 L 1173.5 1727.87 C 1186.14 1728.38 1242.03 1732.7 1247.14 1744.62 C 1240.24 1768.68 902.401 1775.99 860.05 1776.93 C 713.945 1780.23 567.781 1779.94 421.691 1776.05 C 353.374 1774.67 285.11 1771.35 216.982 1766.09 C 178.092 1763.21 138.21 1760.21 99.8402 1752.27 C 96.4097 1751.56 89.1564 1749.28 87.4468 1745.93 C 86.6595 1744.38 87.1295 1744.26 87.7365 1742.26 C 96.9982 1733.54 138.727 1729.87 153.223 1727.96 C 157.151 1728.43 158.166 1728.04 161.924 1727.07 C 179.774 1724.52 292.236 1718.49 295.66 1716.31 C 300.366 1723.04 307.498 1733.29 314.017 1738.11 C 341.728 1758.63 369.192 1738 395.785 1727.3 C 412.003 1720.77 427.854 1714.49 445.041 1712.33 C 466.218 1710.18 473.293 1710.29 494.318 1712.31 C 538.68 1717.41 571.485 1735.17 615.155 1741.46 C 658.327 1747.68 692.622 1738 727.31 1711.83 C 733.11 1713.71 781.193 1712.87 791.14 1712.85 L 887.605 1713.01 C 888.072 1694.2 892.173 1669.48 898.584 1651.68 C 901.229 1644.34 906.672 1632.74 913.957 1629.01 C 916.769 1627.58 919.811 1626.96 922.582 1625.67 L 923.493 1625.24 C 925.395 1612.59 925.839 1595.52 926.137 1582.7 z" fill="rgb(241,160,140)" transform="translate(0,0)"></path>
<path d="M 926.137 1582.7 L 926.859 1582.94 C 926.839 1584.51 926.363 1588.28 927.743 1589.05 C 950.233 1601.54 1007.69 1600.91 1030.1 1593.06 L 1030.98 1592.95 C 1030.94 1601.03 1031.18 1610.99 1030.8 1618.91 C 1039.29 1620.8 1040.96 1626.33 1044.51 1626.66 C 1049.27 1631.92 1046.59 1631.88 1048.6 1637.61 C 1054.15 1653.42 1065.12 1658.75 1079.85 1662.06 C 1086.89 1662.18 1096.47 1663.71 1103.72 1664.63 C 1125.43 1667.39 1151.48 1670.28 1167.58 1686.68 C 1172.9 1692.1 1175.12 1697.36 1175.16 1704.84 C 1175.2 1711.89 1168.58 1722.71 1169.5 1726.85 L 1173.5 1727.87 C 1165.11 1727.72 1159.37 1733.29 1152.41 1737.82 C 1132.69 1750.72 1109.45 1756.17 1085.81 1757.05 C 1030.26 1759.09 972.707 1758.22 917.38 1752.86 C 894.19 1750.61 888.567 1733.61 887.605 1713.01 C 888.072 1694.2 892.173 1669.48 898.584 1651.68 C 901.229 1644.34 906.672 1632.74 913.957 1629.01 C 916.769 1627.58 919.811 1626.96 922.582 1625.67 L 923.493 1625.24 C 925.395 1612.59 925.839 1595.52 926.137 1582.7 z" fill="rgb(225,197,186)" transform="translate(0,0)"></path>
<path d="M 926.137 1582.7 L 926.859 1582.94 C 926.839 1584.51 926.363 1588.28 927.743 1589.05 C 950.233 1601.54 1007.69 1600.91 1030.1 1593.06 L 1030.98 1592.95 C 1030.94 1601.03 1031.18 1610.99 1030.8 1618.91 C 1020.65 1628.28 1018.41 1626.66 1012.09 1639.91 C 1008.52 1647.4 980.308 1649.23 972.33 1648.33 C 943.039 1647.66 942.868 1639.52 924.277 1627.77 L 923.493 1625.24 C 925.395 1612.59 925.839 1595.52 926.137 1582.7 z" fill="rgb(241,160,140)" transform="translate(0,0)"></path>
<path d="M 1044.51 1626.66 C 1049.27 1631.92 1046.59 1631.88 1048.6 1637.61 C 1054.15 1653.42 1065.12 1658.75 1079.85 1662.06 C 1080.25 1684.45 1025.78 1641.8 1044.51 1626.66 z" fill="rgb(90,38,32)" transform="translate(0,0)"></path>
<path d="M 894.933 1704.59 C 905.269 1705.05 930.479 1713.51 942.681 1715.6 C 1012.88 1727.61 1088.22 1736.06 1157.01 1712.95 C 1159.42 1712.14 1161 1712.6 1163.1 1713.55 C 1163.56 1716.29 1163.64 1715.2 1161.87 1718.08 C 1149.86 1723.87 1128.23 1728.87 1114.89 1730.75 C 1052.65 1739.53 984.425 1732.34 923.271 1718.72 C 915.626 1717.02 902.872 1714.36 896.139 1710.37 C 894.439 1709.37 894.954 1706.8 894.933 1704.59 z" fill="rgb(90,38,32)" transform="translate(0,0)"></path>
<path d="M 445.041 1712.33 C 466.218 1710.18 473.293 1710.29 494.318 1712.31 C 488.261 1713.96 450.193 1714.71 445.041 1712.33 z" fill="rgb(225,197,186)" transform="translate(0,0)"></path>
<path d="M 153.223 1727.96 C 139.788 1724.64 125.439 1718.88 116.54 1707.78 C 104.481 1692.73 100.352 1654.44 102.639 1635.36 C 107.765 1592.6 125.119 1550 138.881 1509.46 C 144.63 1492.52 149.089 1473.64 157.665 1457.88 C 161.127 1451.51 166.729 1445.58 172.447 1441.18 C 177.742 1437.1 183.421 1434.89 190.224 1435.84 C 203.459 1437.69 260.661 1474.5 268.65 1485.13 C 272.612 1490.4 272.877 1494.74 271.929 1500.98 C 279.172 1504.36 289.948 1508.78 297.665 1511 C 287.262 1541.16 281.569 1569.72 278.082 1601.34 C 273.714 1638.69 278.073 1682.59 295.66 1716.31 C 292.236 1718.49 179.774 1724.52 161.924 1727.07 C 158.166 1728.04 157.151 1728.43 153.223 1727.96 z" fill="rgb(225,197,186)" transform="translate(0,0)"></path>
<path d="M 246.406 1594.75 C 258.239 1598.42 265.631 1600.2 278.082 1601.34 C 273.714 1638.69 278.073 1682.59 295.66 1716.31 C 292.236 1718.49 179.774 1724.52 161.924 1727.07 C 170.045 1721.72 172.45 1722.91 182.267 1714.15 C 194.781 1702.99 210.533 1655.89 210.012 1641.13 C 227.26 1615.2 237.927 1627.59 247.25 1620.96 C 247.386 1620.01 249.833 1615.62 250.384 1613.62 C 252.627 1605.49 250.388 1601.67 246.406 1594.75 z" fill="rgb(255,255,255)" transform="translate(0,0)"></path>
<path d="M 271.929 1500.98 C 279.172 1504.36 289.948 1508.78 297.665 1511 C 287.262 1541.16 281.569 1569.72 278.082 1601.34 C 265.631 1600.2 258.239 1598.42 246.406 1594.75 C 243.538 1592.46 241.08 1589.01 238.75 1586.09 C 238.819 1582 238.485 1579.38 238.334 1575.39 C 237.26 1546.95 245.59 1528.83 264.035 1508.27 C 263.596 1506.9 263.541 1506.7 262.884 1505.42 C 264.854 1504.05 266.404 1503.62 268.594 1502.67 L 271.929 1500.98 z" fill="rgb(241,160,140)" transform="translate(0,0)"></path>
<path d="M 268.594 1502.67 C 267.612 1505.2 266.197 1506.55 264.035 1508.27 C 263.596 1506.9 263.541 1506.7 262.884 1505.42 C 264.854 1504.05 266.404 1503.62 268.594 1502.67 z" fill="rgb(134,56,38)" transform="translate(0,0)"></path>
<path d="M 238.75 1586.09 C 220.122 1555.7 230.166 1520.26 262.884 1505.42 C 263.541 1506.7 263.596 1506.9 264.035 1508.27 C 245.59 1528.83 237.26 1546.95 238.334 1575.39 C 238.485 1579.38 238.819 1582 238.75 1586.09 z" fill="rgb(90,38,32)" transform="translate(0,0)"></path>
<path d="M 210.012 1641.13 C 209.472 1641.87 207.224 1645.48 206.675 1645.6 C 203.016 1646.4 201.699 1642.57 202.701 1640 C 209.385 1622.79 226.232 1614.74 244.011 1616.27 C 245.658 1616.41 246.763 1619.78 247.25 1620.96 C 237.927 1627.59 227.26 1615.2 210.012 1641.13 z" fill="rgb(90,38,32)" transform="translate(0,0)"></path>
<path d="M 201.647 1449.36 L 204.608 1450.51 C 205.694 1451.96 206.95 1453.5 205.541 1455.52 C 161.598 1518.34 132.435 1593.06 140.127 1670.86 C 141.075 1680.45 146.524 1705.52 145.971 1712.52 C 143.531 1712.45 142.642 1712.64 140.575 1711.31 C 136.363 1705.49 136.44 1696.23 135.273 1689.34 C 121.403 1607.5 151.162 1515.28 201.647 1449.36 z" fill="rgb(90,38,32)" transform="translate(0,0)"></path>
<path d="M 996.542 1089.81 C 1069.58 1072.74 1115.79 1096.44 1152.33 1161.33 C 1156.94 1169.52 1166.19 1184.58 1162.27 1194.15 C 1157.42 1198.12 1153.46 1194.2 1147.64 1193.24 C 1146.39 1200.6 1151.37 1205.16 1146 1209.33 C 1138.19 1209.8 1131.2 1200.76 1127.24 1201.05 L 1126.63 1203.65 C 1126.12 1202.26 1124.79 1189.11 1123.88 1185.73 C 1117.31 1161.53 1107.68 1147.82 1090.24 1130.95 C 1090.16 1135.24 1090.51 1140.46 1088.68 1144.12 C 1063.01 1114 1032.12 1103.49 995.099 1094.2 L 996.542 1089.81 z" fill="rgb(241,160,140)" transform="translate(0,0)"></path>
<path d="M 1070.53 1101.64 C 1105.98 1104.38 1136.96 1151.55 1145.72 1183.18 C 1147.13 1188.28 1147.31 1189.86 1144.63 1194.16 C 1143.99 1194.01 1142.05 1193.21 1141.84 1192.64 C 1131.31 1164.33 1115.26 1131.82 1089.12 1115.18 C 1084.88 1112.48 1075.38 1110.6 1070 1107.95 C 1068.9 1104.97 1069.45 1105.45 1070.53 1101.64 z" fill="rgb(90,38,32)" transform="translate(0,0)"></path>
<metadata><recraft-signature>{"signed_by": "recraft", "signature_b64": "E4qRkYzCeFCCUfvlB86ljDtnkwwinpm+De/mKx7MHMjThlFqLulKxoN4UzcXiNVQVWxmT6dgMWkN92U7ORjKDA==", "signing_algo": "Ed25519", "generation_timestamp": 1779092888, "identifier": "d5e2db90-0269-49c0-90d0-0ccda9c5484e"}</recraft-signature></metadata></svg>