<svg xmlns="http://www.w3.org/2000/svg" height="1280" preserveAspectRatio="none" style="display: block;" version="1.1" viewBox="0 0 1331 2048" width="832">
<path d="M 0 0 L 1331 0 L 1331 2048 L 0 2048 L 0 0 z" fill="rgb(255,255,255)" transform="translate(0,0)"></path>
<path d="M 775.712 369.35 C 801.436 344.318 790.541 314.948 791.054 284.059 C 791.642 248.657 804.216 212.003 818.783 180.07 C 820.594 176.101 822.382 170.931 823.745 166.764 C 836.358 128.209 864.577 96.043 898.895 74.9407 C 947.598 45.1631 1006.17 36.0425 1061.62 49.6009 C 1123.21 63.8067 1176.6 101.976 1209.97 155.659 C 1240.85 206.29 1244.24 255.461 1234.63 312.254 C 1231.79 329.006 1230.53 346.737 1226.44 363.509 C 1239.31 379.102 1317.5 480.346 1264.78 487.431 C 1229.05 492.231 1176.78 462.227 1149.27 440.722 C 1141.17 446.057 1129.92 453.272 1123.94 460.235 C 1103.31 479.401 1130.34 495.648 1129.32 509.798 C 1127.45 535.871 1100.99 537.437 1081.99 532.04 C 1071.65 529.1 1067.85 557.726 1062.09 562.271 C 1055.13 567.765 1051.05 566.372 1042.81 565.906 C 1036.36 570.14 1030.97 579.827 1023.79 579.552 C 1020.2 578.41 1018.06 575.112 1015.62 572.154 C 990.424 589.205 967.726 597.557 937.592 587.64 C 948.764 602.965 962.162 619.362 973.821 634.601 C 991.637 657.929 1008.89 681.685 1025.55 705.846 C 1108.93 825.99 1178.47 955.166 1232.85 1090.92 C 1239.8 1108.21 1258.91 1154.33 1255.72 1171.57 C 1251.86 1192.51 1222.5 1214.39 1205.34 1225.61 C 1217.37 1254.33 1225.87 1290.24 1238.87 1318.85 C 1241.74 1325.16 1253.36 1340.11 1257.75 1347.53 C 1286.8 1396.59 1306.99 1462.66 1294.1 1519.66 C 1290.77 1534.36 1284.69 1547.06 1269.43 1550.53 C 1268.86 1550.64 1261.66 1552.73 1261.64 1552.76 C 1254.04 1570.08 1239.19 1594.83 1223.26 1567.29 C 1216.07 1578.37 1195.96 1594.58 1186.68 1578.57 C 1180.79 1568.4 1193.31 1549.96 1197.24 1540.03 C 1211.94 1502.9 1207.58 1475.17 1192.31 1439.44 C 1189.61 1456.54 1182.87 1536.74 1145.53 1521.89 C 1132.67 1516.78 1148.54 1484.88 1148.1 1473.53 C 1147.62 1461.5 1145.8 1447.85 1142.26 1435.68 C 1134.09 1402.79 1140.05 1376.43 1157.84 1348.12 C 1147.13 1319.69 1136.99 1288.11 1125.27 1260.52 C 1112.33 1263.14 1100.7 1265.49 1087.58 1267.31 C 1089.38 1275.82 1091.36 1285.72 1088.64 1294.15 C 1081.38 1316.65 1051.91 1333.59 1032.58 1344 C 1040.56 1373.83 1046.68 1405.38 1054.33 1435.6 C 1055.46 1436.71 1056.57 1437.84 1057.66 1438.99 C 1086.87 1469.55 1093.97 1512.25 1101.8 1552.39 C 1110.27 1595.86 1114.84 1647.66 1081.77 1682.76 C 1076.15 1688.73 1068.98 1689.22 1061.4 1688.81 C 1052.61 1707.63 1039.89 1720.03 1023.33 1698.62 C 1022.53 1700.06 1021.68 1701.47 1020.77 1702.85 C 1015.02 1711.78 1001.13 1724.4 989.931 1715.34 C 975.908 1704 992.024 1676.74 996.168 1664.12 C 999.648 1654.37 1002.61 1644.35 1004.13 1634.09 C 1006.93 1615.11 1001.38 1598.92 998.925 1580.81 L 995.821 1584.79 C 996.059 1596.81 991.477 1613.28 987.195 1625.2 C 981.668 1640.59 965.991 1664.64 945.993 1656.91 C 943.999 1656.14 940.83 1653.24 940.455 1650.95 C 937.61 1633.48 953.485 1617.37 956.144 1600.22 C 960.241 1577.04 957.301 1564.17 955.051 1541.8 C 952.427 1515.72 960.675 1486.48 971.335 1462.96 C 963.525 1431.07 956.176 1399.06 949.291 1366.95 C 941.333 1367.15 933.213 1367.17 925.238 1367.27 C 910.776 1428.7 890.881 1490.9 876.296 1552.52 C 868.667 1584.76 822.063 1587.25 794.483 1589.95 C 787.609 1604.18 780.884 1618.48 774.311 1632.85 C 831.11 1632.59 795.293 1671.88 828.321 1691.56 C 873.318 1718.37 932.891 1700.9 968.286 1749.04 C 978.723 1763.24 987.756 1785.9 991.855 1803.01 C 993.097 1808.2 990.97 1822.92 990.29 1828.65 C 942.99 1871.82 848.015 1879.52 788.908 1859.12 C 770.554 1852.78 742.894 1836.8 725.706 1833.43 C 692.991 1827.02 655.585 1829.47 622.565 1821.43 C 603.407 1817.57 571.671 1807.12 571.356 1782.91 C 571.202 1771.07 576.665 1749.32 578.618 1736.71 C 583.446 1710.48 586.966 1683.86 592.112 1657.7 C 595.777 1639.07 607.911 1636.09 624.18 1639.82 C 632.354 1618.74 639.676 1596.1 647.875 1574.52 C 642.568 1572.53 637.324 1570.38 632.151 1568.07 C 614.306 1559.91 605.322 1553.28 598.533 1534.95 C 582.205 1556.78 568.182 1581.41 554.241 1604.83 C 544.928 1620.46 501.787 1700.07 494.451 1705.37 C 472.346 1721.35 414.026 1712.53 388.602 1708.14 C 382.161 1718.73 377.016 1729.14 371.444 1740.17 C 422.017 1748.71 387.034 1775.51 415.226 1796.62 C 460.756 1830.71 526.766 1811.8 564.889 1861.42 C 581.168 1883 588.26 1910.14 584.619 1936.93 C 536.956 1979.81 432.523 1989.45 374.06 1966.36 C 353.277 1958.15 334.224 1946.95 313.396 1939.67 C 303.027 1936.05 287.204 1936.93 276.2 1934.83 C 240.706 1929.09 184.929 1929.69 161.353 1898.78 C 155.039 1887.12 160.492 1866.72 162.871 1855.08 C 169.487 1824.32 174.027 1793.15 180.128 1762.34 C 183.643 1744.59 196.801 1739.19 213.161 1743.91 C 224.106 1718.46 236.826 1691.68 248.34 1666.33 C 185.506 1640.48 213.942 1610.41 240.904 1568.59 C 312.803 1457.11 397.482 1354.4 493.217 1262.57 C 479.495 1261.22 444.815 1253.05 430.701 1249.96 C 377.666 1238.33 325.045 1224.89 272.929 1209.66 C 246.752 1201.97 215.037 1192.8 190.655 1181.34 C 163.427 1168.63 138.573 1151.37 117.166 1130.28 C 32.8854 1047.07 37.1488 921.9 119.3 839.001 C 112.884 833.037 107.873 824.44 109.724 815.481 C 112.878 800.215 123.687 781.666 131.847 768.413 C 191.231 671.974 274.569 590.064 363.266 520.473 C 444.827 456.663 564.663 390.584 667.588 372.319 C 703.273 365.877 739.727 364.876 775.712 369.35 z" fill="rgb(7,7,7)" transform="translate(0,0)"></path>
<path d="M 995.821 1584.79 C 995.882 1583.74 995.732 1578.9 996.603 1578.64 C 997.577 1578.95 998.206 1579.98 998.925 1580.81 L 995.821 1584.79 z" fill="rgb(219,205,187)" transform="translate(0,0)"></path>
<path d="M 121.886 840.554 C 124.661 841.758 128.736 844.254 131.463 845.792 C 181.683 874.109 235.934 892.415 289.682 912.919 C 415.913 961.073 545.781 1004.03 664.844 1068.69 C 689.837 1082.26 722.187 1100.9 742.08 1120.53 C 770.013 1147.61 785.946 1184.75 786.324 1223.65 C 786.424 1279.94 747.544 1322.44 716.276 1365.84 L 641.601 1469.29 C 623.556 1494.16 605.216 1518.42 588.459 1544.19 C 568.248 1575.87 548.762 1607.99 530.014 1640.55 C 519.109 1659.42 508.158 1679.5 497.177 1698.21 C 489.488 1711.31 456.152 1711.89 441.751 1711.54 C 421.8 1710.85 402.06 1707.83 382.508 1703.94 C 347.909 1697.05 243.627 1670.36 221.002 1646.41 C 215.581 1640.67 213.405 1633.59 213.78 1625.74 C 214.51 1610.43 238.43 1577.52 247.693 1563.59 C 320.343 1454.34 402.816 1350.25 499.564 1261.27 C 427.569 1247.39 356.213 1230.39 285.699 1210.3 C 256.54 1201.96 217.385 1190.93 190.495 1178.07 C 163.399 1165.19 138.702 1147.78 117.471 1126.59 C 36.6553 1044.9 40.6598 920.12 121.886 840.554 z" fill="rgb(173,119,70)" transform="translate(0,0)"></path>
<path d="M 706.013 370.428 C 728.475 369.184 749.481 369.152 771.751 372.364 C 758.761 380.837 748.589 387.109 743.288 402.624 C 735.667 426.022 740.926 454.126 751.383 475.918 C 775.314 525.786 829.22 555.755 882.699 530.297 C 893.074 544.359 903.406 558.753 915.331 571.562 C 920.654 577.28 928.441 581.23 933.136 587.169 C 952.984 612.275 973.054 638.268 992.019 663.995 C 1085.37 791.184 1162.97 929.212 1223.12 1075.06 C 1233.46 1100.25 1246.07 1131.01 1252.6 1157.52 C 1255.08 1167.6 1251.36 1179.17 1244.92 1187.25 C 1208.62 1232.83 1141.9 1256.51 1087.01 1264.74 C 1072.17 1188.64 1047.98 1104.08 1025.03 1030.35 C 971.486 858.278 904.857 700.932 796.639 555.593 C 788.786 545.001 780.564 534.61 772.686 524.11 C 740.803 481.614 686.855 463.685 638.008 489.675 C 612.933 502.894 594.138 525.537 585.763 552.619 C 575.558 586.055 581.379 615.95 596.812 646.751 C 622.932 698.88 653.19 748.538 680.449 799.968 C 628.005 837.868 569.183 903.14 528.789 953.588 C 521.052 963.251 508.328 980.044 502.591 990.374 C 452.975 970.928 403.179 951.943 353.211 933.422 C 304.022 915.344 156.322 864.646 120.072 834.976 C 115.603 831.318 112.921 827.051 112.48 821.199 C 110.377 793.347 175.382 709.357 195.39 685.473 C 314.643 543.114 515.639 387.2 706.013 370.428 z" fill="rgb(219,205,187)" transform="translate(0,0)"></path>
<path d="M 673.633 481.325 C 699.479 477.092 738.762 490.125 755.789 509.707 C 873.551 645.13 954.726 823.84 1009.36 991.241 C 1033.57 1063.94 1054.52 1137.68 1072.15 1212.25 C 1076.69 1231.24 1085.21 1263.53 1086.77 1282.6 C 1089.78 1319.38 1018.61 1347.97 992.189 1356.28 C 960.996 1364.06 879.982 1376.47 863.485 1332.1 C 858.48 1318.63 855.067 1288.16 852.038 1272.79 C 845.223 1239.03 837.537 1205.45 828.988 1172.08 C 805.383 1076.13 772.622 982.655 731.158 892.957 C 714.387 856.945 696.315 821.554 676.976 786.854 C 655.071 747.12 591.461 644.508 585.48 605.523 C 580.956 576.035 586.688 546.081 604.824 521.928 C 621.368 499.692 646.17 485.056 673.633 481.325 z" fill="rgb(219,205,187)" transform="translate(0,0)"></path>
<path d="M 578.154 899.887 C 592.041 903.588 605.523 906.419 619.479 910.384 C 649.672 919.102 679.535 928.925 709.008 939.832 C 722.774 944.78 742.97 951.664 755.978 957.851 C 806.304 1076.45 836.223 1202.32 859.471 1328.53 C 864.844 1357.69 898.076 1363.04 922.42 1367.49 C 909.431 1412.06 898.675 1457.55 886.493 1502.36 C 881.644 1520.2 877.975 1539.62 871.692 1556.91 C 869.481 1562.99 866.299 1566.95 860.846 1570.49 C 820.657 1596.58 718.372 1585.63 673.714 1577.8 C 646.974 1572.81 607.746 1561.25 600.877 1531.43 C 612.985 1511.8 634.39 1484.32 648.734 1464.64 L 725.802 1357.73 C 769.236 1297.47 810.619 1247.86 778.669 1169.86 C 770.286 1149.23 757.507 1130.67 741.222 1115.47 C 724.883 1100.25 702.548 1087.15 683.196 1075.77 C 626.625 1042.53 565.764 1016.71 505.275 991.381 C 516.873 969.903 561.097 918.552 578.154 899.887 z" fill="rgb(173,119,70)" transform="translate(0,0)"></path>
<path d="M 854.886 327.115 C 852.682 344.396 852.579 371.355 873.963 378.296 C 878.154 379.657 886.338 381.317 890.308 379.27 C 888.856 374.637 872.412 377.384 866.274 371.019 C 859.587 364.378 856.595 353.083 856.654 343.772 C 856.854 321.58 863.586 286.135 880.786 270.659 C 916.934 238.133 949.88 263.78 949.526 306.567 C 957.606 302.98 965.938 299.459 974.7 298.146 C 993.097 295.39 1031.21 298.074 1048.09 303.612 C 1068.24 351.304 1106.62 405.854 1146.9 438.509 C 1137.77 444.574 1125.87 452.14 1119.56 460.489 C 1103.3 481.985 1122.38 489.44 1126.06 508.279 C 1127.03 513.256 1123.19 520.425 1119.97 523.997 C 1107.71 537.607 1095.11 528.99 1080.94 528.552 C 1070.62 528.233 1067.32 546.854 1063.47 553.968 C 1061.12 558.312 1060.28 559.572 1056.78 563.852 C 1038.98 561.905 1037.21 566.147 1024.65 578.094 L 1015.18 568.081 C 987.915 587.746 950.412 601.186 923.018 574.526 C 895.679 547.92 867.668 505.625 849.23 471.685 C 847.623 468.728 844.9 460.935 842.276 460.109 C 839.786 468.962 874.229 517.994 881.181 527.797 C 809.559 560.38 740.719 493.119 742.819 423.884 C 744.654 363.405 796.515 394.848 796.055 317.227 C 811.883 320.748 838.867 326.106 854.886 327.115 z" fill="rgb(248,158,115)" transform="translate(0,0)"></path>
<path d="M 903.554 276.089 C 928.272 277.136 935.028 303.311 926.352 322.413 C 924.855 325.709 922.409 323.919 923.22 321.911 C 928.299 309.335 929.375 298.809 920.413 286.493 C 919.744 285.878 919.071 285.269 918.393 284.665 C 900.884 269.328 883.48 290.335 883.372 307.619 C 883.368 308.263 880.558 308.424 880.642 307.261 C 881.758 291.816 888.057 280.416 903.554 276.089 z" fill="rgb(7,7,7)" transform="translate(0,0)"></path>
<path d="M 897.114 316.107 C 898.639 316.01 914.277 314.84 913.578 319.022 C 913.288 320.757 907.932 318.946 905.774 318.925 C 902.51 318.792 899.087 318.862 896.001 320.093 C 885.215 324.398 882.627 332.753 887.06 343.205 C 889.058 344.576 896.446 347.434 895.29 349.453 C 891.196 351.053 884.641 345.152 883.16 341.461 C 881.415 337.136 881.446 332.297 883.245 327.994 C 886.09 321.228 890.836 318.653 897.114 316.107 z" fill="rgb(7,7,7)" transform="translate(0,0)"></path>
<path d="M 1003.71 46.4443 C 1015.32 45.3954 1034.1 47.1123 1045.66 49.0661 C 1153.27 67.2532 1245.91 162.208 1236.16 275.483 C 1233.66 304.474 1228.83 333.966 1224.01 362.911 C 1183.09 348.764 1143.88 336.978 1102.73 321.667 C 1031.81 295.057 959.198 256.568 893.977 218.107 C 872.935 205.699 843.891 187.666 825.106 172.292 C 830.101 151.688 845.259 127.237 859.402 111.664 C 897.636 69.5662 947.877 49.5506 1003.71 46.4443 z" fill="rgb(252,179,30)" transform="translate(0,0)"></path>
<path d="M 343.365 1806.22 C 329.349 1791.73 325.803 1769.24 340.761 1754.16 C 355.749 1739.04 389.457 1737.66 399.34 1759.32 C 400.483 1764.49 400.115 1772.43 399.526 1777.78 C 399.769 1778.6 400.026 1779.41 400.297 1780.21 C 409.942 1808.77 457.708 1819.84 484.142 1824.44 C 524.795 1831.52 561.035 1844.83 575.727 1888.1 C 572.467 1890.6 568.069 1893.85 564.556 1896.09 C 515.885 1927.13 429.89 1936.56 375.477 1917.65 C 356.346 1911 335.016 1895.91 316.488 1889.11 C 309.719 1886.63 287.204 1885.52 279.36 1884.87 C 264.945 1883.72 250.619 1881.64 236.47 1878.64 C 207.697 1872.32 186.065 1863.63 169.662 1837.91 C 171.61 1822.03 175.023 1806.08 177.813 1790.3 C 180.209 1779.12 180.61 1771.21 184.17 1760.01 C 188.016 1747.93 198.905 1740 211.086 1747.05 C 210.817 1753.15 209.257 1767.93 212.038 1773.26 C 226.662 1801.33 262.33 1813.85 292.322 1815.44 C 311.459 1816.45 326.101 1812.93 343.365 1806.22 z" fill="rgb(17,68,114)" transform="translate(0,0)"></path>
<path d="M 399.34 1759.32 C 400.483 1764.49 400.115 1772.43 399.526 1777.78 C 398.464 1774.16 399.14 1763.69 399.34 1759.32 z" fill="rgb(17,68,114)" transform="translate(0,0)"></path>
<path d="M 772.394 1636.29 C 781.792 1635.71 791.204 1635.39 799.574 1640.72 C 811.137 1648.09 807.547 1662.05 810.252 1671.82 C 820.488 1708.8 880.195 1709.17 908.972 1715.94 C 920.33 1718.6 931.211 1723 941.234 1728.97 C 960.647 1740.61 974.031 1756.09 979.461 1778.25 C 955.852 1804.86 911.672 1811.2 878.369 1815.4 C 820.253 1822.72 783.991 1810.18 732.742 1785.76 C 713.911 1778.25 695.934 1779.15 676.157 1777.53 C 637.54 1774.37 602.601 1770.56 582.521 1732.85 C 584.457 1711.79 590.33 1689.28 593.055 1668.25 C 594.852 1654.04 602.602 1634.52 620.762 1642.39 C 623.697 1643.67 617.949 1666.35 621.854 1673.91 C 629.965 1689.61 645.932 1698.9 661.007 1704.47 C 692.087 1716.02 726.468 1714.86 756.698 1701.24 C 749.842 1694.39 745.224 1689.24 742.676 1679.62 C 740.392 1671.08 741.597 1661.99 746.025 1654.34 C 751.869 1644.3 761.457 1639.1 772.394 1636.29 z" fill="rgb(17,68,114)" transform="translate(0,0)"></path>
<path d="M 1028.17 1345.93 L 1030.47 1346.47 C 1037.55 1376.57 1044.05 1407.14 1051.62 1437.1 C 1062.76 1447.96 1070.36 1457.82 1076.78 1472.16 C 1092.23 1506.69 1106.38 1577.32 1104.9 1614.27 C 1104.48 1627.05 1102 1639.68 1097.55 1651.66 C 1093.62 1662.03 1078.13 1692.13 1063.57 1685.51 C 1064.07 1681.61 1068.21 1670.33 1069.52 1665.66 C 1076.6 1641.02 1078.01 1615.11 1073.64 1589.85 C 1072.86 1585.41 1072.01 1579.37 1069.86 1575.53 L 1068.54 1575.3 C 1068.1 1577.31 1069.33 1582.4 1069.79 1584.61 C 1076.92 1618.49 1073.08 1653.47 1059.5 1685.27 C 1051.69 1703.57 1040.21 1717.18 1025.19 1694.76 C 1039.46 1666.54 1045.97 1629.68 1042.09 1597.98 C 1041.55 1593.53 1038.48 1580.87 1035.32 1578.01 C 1034.86 1582.96 1035.58 1583.25 1037.06 1588.25 C 1040.44 1602.9 1041.19 1625.07 1038.7 1640.24 C 1034.71 1661.58 1027.61 1696.91 1009.5 1710.73 C 986.919 1725.58 982.601 1701.67 990.823 1685.54 C 993.848 1679.61 997.719 1669.8 1000.02 1663.41 C 1012.5 1628.73 1009.04 1595.03 993.29 1562.49 C 992.321 1582.47 993.393 1597.17 986.924 1617.19 C 982.751 1630.66 975.441 1645.89 962.655 1653.13 C 957.672 1655.95 946.931 1657.7 944.249 1650.76 C 942.608 1646.52 943.47 1640.03 945.247 1635.76 C 950.948 1622.07 957.446 1608.79 960.516 1594.14 C 962.463 1582.51 961.126 1564.88 959.324 1553.19 C 954.439 1521.52 961.602 1492.19 974.345 1463.24 C 967.447 1431.5 958.143 1398.71 952.206 1366.92 C 979.883 1363.5 1002.92 1357.87 1028.17 1345.93 z" fill="rgb(248,158,115)" transform="translate(0,0)"></path>
<path d="M 1201.6 1227.9 L 1203.22 1228.35 C 1205.75 1232.58 1209.49 1245.07 1211.38 1250.33 C 1218.55 1270.27 1225.07 1291.84 1232.37 1311.61 C 1236.47 1322.73 1249.88 1340.44 1256.63 1352.05 C 1282.32 1396.16 1298.79 1449.03 1294.02 1500.43 C 1292.58 1515.92 1286.95 1550.37 1265.9 1547.15 C 1263.68 1541.68 1269.98 1528.7 1271 1522.05 C 1271.99 1515.61 1272.95 1509.51 1273.56 1502.97 C 1274.72 1490.57 1274.16 1478.07 1271.89 1465.82 C 1270.67 1459.57 1266.63 1442.45 1261.7 1439.14 C 1260.41 1441.14 1268.09 1459.44 1268.93 1465.24 C 1270.13 1473.6 1271.1 1477.09 1271.12 1486.42 C 1270.77 1514.51 1265.1 1548.44 1247.52 1571.05 C 1242.9 1577 1234.24 1577.67 1229.45 1571.33 C 1221.51 1560.83 1231.23 1549.94 1234.12 1539.24 C 1236.43 1530.68 1238.79 1523.3 1239.8 1514.5 C 1242.69 1496.55 1240.81 1459.23 1229.92 1444.68 L 1228.59 1444.54 C 1228.04 1447.76 1229.69 1450.11 1231.17 1453.21 C 1243.68 1491.2 1238.67 1526.67 1221.9 1562.56 C 1208.17 1591.15 1174.18 1588.87 1195.62 1551.08 C 1217.65 1512.25 1210.43 1466.44 1190.97 1429.7 C 1186.42 1454.13 1184.24 1481.27 1174.3 1504.25 C 1171.87 1509.85 1165.19 1518.49 1158.8 1519.8 C 1130.53 1525.6 1150.27 1491.38 1150.73 1478.44 C 1152.56 1458.49 1145.27 1441.39 1142.66 1422.22 C 1139.25 1397.11 1145.83 1369.26 1161.21 1349.01 C 1149.67 1319.68 1140.35 1288.37 1127.83 1259.6 C 1159.09 1249.71 1173.8 1244.83 1201.6 1227.9 z" fill="rgb(248,158,115)" transform="translate(0,0)"></path>
<path d="M 168.271 1842.41 C 172.888 1846.16 178.691 1855.84 187.309 1861.69 C 209.088 1876.78 251.339 1887.17 277.731 1887.29 C 320.575 1887.48 327.828 1898.1 364.146 1915.6 C 412.007 1938.66 490.657 1931.29 539.237 1911.99 C 547.376 1908.78 555.226 1904.88 562.699 1900.33 C 565.908 1898.34 572.648 1893.16 575.443 1892.11 C 584.711 1900.02 588.068 1929.7 578.293 1938.7 C 576.959 1939.64 575.619 1940.58 574.274 1941.51 C 536.695 1967.45 474.472 1979.8 429.571 1975.93 C 411.404 1974.18 393.52 1970.21 376.321 1964.11 C 354.67 1956.5 335.134 1943.91 313.892 1937.06 C 304.968 1934.19 282.754 1932.85 272.298 1931.79 C 255.647 1930 239.06 1927.66 222.566 1924.76 C 203.68 1921.26 161.572 1912.19 161.024 1887.21 C 160.759 1875.1 165.762 1854.86 168.271 1842.41 z" fill="rgb(17,68,114)" transform="translate(0,0)"></path>
<path d="M 581.516 1737.53 C 583.034 1738.44 591.429 1751.72 596.45 1755.96 C 631.09 1785.26 679.013 1776.42 719.672 1783.96 C 731.776 1787.89 746.059 1793.83 757.195 1799.85 C 812.154 1829.6 935.014 1826.83 980.679 1781.4 C 987.276 1790.79 990.487 1802.14 989.788 1813.59 C 989.395 1820.94 988.89 1825.48 983.7 1830.14 C 983.308 1830.58 982.915 1831.03 982.522 1831.48 L 981.956 1832.08 C 981.057 1833.05 979.984 1834.16 978.861 1834.89 C 926.47 1868.81 848.902 1876.45 790.102 1856.54 C 767.36 1848.85 748.533 1837.42 726.348 1830.84 C 714.162 1827.67 702.39 1828.51 689.932 1826.91 C 654.805 1822.43 603.001 1825.13 578.384 1795.57 C 568.892 1784.18 579.155 1751.53 581.516 1737.53 z" fill="rgb(17,68,114)" transform="translate(0,0)"></path>
<path d="M 1051.88 304.447 C 1065.31 309.269 1082.07 317.189 1096.65 322.674 C 1138.58 338.36 1181.01 352.678 1223.88 365.606 C 1239.69 383.223 1273.23 434.262 1279.3 458.138 C 1281.43 466.523 1281 472.563 1276.29 479.908 C 1259.97 492.228 1221.58 478.759 1204.47 471.119 C 1154.04 448.602 1114.1 408.429 1083.89 362.889 C 1071.76 344.618 1059.77 325.014 1051.88 304.447 z" fill="rgb(252,179,30)" transform="translate(0,0)"></path>
<path d="M 251.557 1667.57 C 286.587 1683.09 348.56 1700.1 385.726 1707.72 C 379.773 1717.35 373.835 1729.09 368.435 1739.2 C 335.323 1745.15 318.929 1764.88 333.637 1798.06 L 338.056 1805.7 C 308.169 1815.62 280.48 1816 251.218 1803.33 C 234.257 1795.98 205.906 1776.14 213.427 1753.86 C 223.171 1724.98 238.436 1695.38 251.557 1667.57 z" fill="rgb(255,255,255)" transform="translate(0,0)"></path>
<path d="M 650.867 1575.16 C 688.942 1587.2 751.008 1589.72 791.871 1589.86 C 784.221 1604.21 777.556 1618.67 770.654 1633.38 C 742.468 1643.88 729.392 1664.43 745.324 1692.56 L 751.875 1700.59 C 724.333 1712.15 691.605 1712.57 663.587 1702.49 C 645.542 1697.02 618.07 1679.7 623.072 1656.73 C 628.711 1630.83 641.612 1600.36 650.867 1575.16 z" fill="rgb(255,255,255)" transform="translate(0,0)"></path>
<path d="M 824.357 175.352 C 841.08 189.273 864.201 203.238 882.799 214.846 C 929.892 244.237 978.949 269.2 1028.79 293.537 C 1029.92 293.981 1032.87 294.919 1033.2 296.292 C 1032.24 297.068 1020.69 295.45 1018.77 295.099 C 992.904 293.921 977.008 290.776 952.68 301.866 C 951.189 286.211 948.234 271.74 935.392 261.279 C 916.401 245.81 889.3 254.255 875.403 272.319 C 863.045 288.383 857.531 307.421 854.886 327.115 C 838.867 326.106 811.883 320.748 796.055 317.227 C 790.464 259.533 799.738 228.135 824.357 175.352 z" fill="rgb(252,179,30)" transform="translate(0,0)"></path>
<path d="M 1028.79 293.537 C 1029.92 293.981 1032.87 294.919 1033.2 296.292 C 1032.24 297.068 1020.69 295.45 1018.77 295.099 C 1022.54 294.62 1025.46 294.851 1028.79 293.537 z" fill="rgb(247,167,49)" transform="translate(0,0)"></path>
<path d="M 681.559 803.177 C 691.967 811.91 746.658 935.254 754.454 953.747 C 729.779 944.43 705.014 935.355 680.161 926.524 C 645.098 914.724 616.624 906.179 580.684 897.538 C 603.856 870.673 652.437 823.684 681.559 803.177 z" fill="rgb(255,255,255)" transform="translate(0,0)"></path>
<metadata><recraft-signature>{"signed_by": "recraft", "signature_b64": "eQysGYgA3Krh8DsXPmFcKQl11+c0ixOTlRMPSwyllSvGG1wEN40bos5HpPw5Qdf16V6DT2AlJX/02vjdbnYvBA==", "signing_algo": "Ed25519", "generation_timestamp": 1779092797, "identifier": "d5daa677-603c-4832-ad7d-5c7d3e7dc0b6"}</recraft-signature></metadata></svg>