<svg xmlns="http://www.w3.org/2000/svg" height="1152" preserveAspectRatio="none" style="display: block;" version="1.1" viewBox="0 0 1593 2048" width="896">
<path d="M 0 0 L 1593 0 L 1593 2048 L 0 2048 L 0 0 z" fill="rgb(255,255,255)" transform="translate(0,0)"></path>
<path d="M 751.987 86.3965 C 795.176 82.7935 839.799 92.7756 876.226 116.751 C 967.555 176.863 1144.73 406.126 1166.05 512.156 C 1174.44 553.856 1167.07 596.837 1143.88 632.674 C 1114.56 678.009 1064 708.987 1021.05 740.079 C 995.615 758.607 970.334 777.338 945.205 796.271 C 898.38 831.263 852.532 867.542 807.711 905.067 C 784.728 924.244 757.189 946.881 738.62 970.039 C 726.638 984.983 742.196 1032.64 746.468 1051.97 L 1020.69 1052.09 L 1103.13 1052.03 C 1137.76 1052.01 1168.62 1050.7 1201.88 1062.25 C 1239.13 1075.19 1270.71 1092.71 1295.43 1124.17 C 1295.23 1155.63 1278.9 1175.19 1248.08 1181 L 1248.06 1386.14 C 1280.24 1396.66 1324.47 1426.77 1341.18 1456.61 C 1339.21 1488.17 1324.29 1505.06 1293.84 1512.26 L 1293.96 1743.82 C 1257.27 1742.8 1217.34 1743.56 1180.44 1743.59 L 987.5 1743.49 L 302.775 1743.44 L 302.576 1512.4 C 268.299 1507.56 256.641 1487.38 252.955 1455.41 C 271.465 1422.9 312.004 1399.95 345.937 1386.46 C 347.189 1320.44 345.917 1247.63 345.375 1181.47 C 312.464 1173.38 301.876 1158.49 297.828 1125.49 C 305.976 1111.08 321.85 1097.81 335.488 1088.76 C 379.12 1059.81 419.402 1051.82 470.795 1052.06 C 445.364 1027.46 423.768 1010.15 410.165 976.262 C 378.359 897.038 435.271 832.196 509.907 813.022 C 528.4 808.464 547.431 806.259 565.285 799.345 C 589.933 789.839 611.378 773.959 630.094 755.545 C 642.8 743.044 647.23 724.865 654.775 709.123 C 671.536 674.154 691.018 638.559 715.091 608.022 C 728.914 590.487 752.121 574.903 770.96 563.182 C 783.624 555.315 798.834 549.278 812.755 544.023 C 784.2 515.514 759.994 481.801 734.386 450.787 C 730.512 446.096 715.032 436.232 709.128 431.956 C 678.077 409.562 645.946 387.484 623.164 356.189 C 577.672 293.697 579.363 212.271 628.68 152.233 C 659.438 114.819 703.786 91.1403 751.987 86.3965 z" fill="rgb(13,9,7)" transform="translate(0,0)"></path>
<path d="M 765.745 88.4423 C 855.588 83.6557 929.399 157.965 982.515 221.234 C 1041.89 291.956 1129.62 405.033 1157.86 492.178 C 1164.68 512.748 1167.59 534.413 1166.44 556.055 C 1161.24 638.641 1096.86 682.068 1035.89 725.809 C 1013.44 741.914 991.127 758.207 968.95 774.683 C 902.805 823.767 837.812 874.866 775.37 928.678 C 760.989 942.701 737.258 959.663 731.079 979.317 C 728.092 988.818 733.6 1007.17 735.738 1016.68 C 748.756 1074.54 759.509 1132.65 761.71 1192.07 C 762.492 1213.2 761.12 1232.65 759.776 1253.64 C 767.382 1262.06 793.573 1291.01 801.217 1296.21 C 841.929 1296.61 891.109 1308.67 863.651 1362.41 C 854.741 1379.85 834.778 1397.05 815.457 1401.81 C 777.694 1411.12 738.205 1386.91 706.066 1370 C 694.6 1363.91 683.604 1358.67 672.438 1352.24 C 639.592 1332.86 611.115 1306.89 594.018 1272.36 C 583.476 1251.07 580.006 1228.84 572.32 1206.62 C 562.343 1177.11 549.079 1148.82 532.777 1122.27 C 516.413 1095.6 496.872 1074.28 474.964 1052.13 C 455.864 1032.58 433.782 1015.67 420.467 991.361 C 394.689 944.306 399.32 889.85 440.396 853.292 C 461.025 834.932 486.716 821.203 513.716 814.984 C 540.813 808.743 566.242 805.877 590.219 790.463 C 641.511 760.35 676.207 703.615 712.912 659.236 C 761.898 600.009 819.904 545.091 896.482 526.824 C 901.029 525.739 908.627 523.623 912.646 521.458 L 911.525 520.709 C 905.139 520.444 882.989 527.519 875.205 529.72 C 803.415 494.49 718.029 439.993 657.433 388.349 C 531.128 280.7 602.889 99.1648 765.745 88.4423 z" fill="rgb(226,163,124)" transform="translate(0,0)"></path>
<path d="M 618.901 816.709 L 620.388 818.285 C 618.799 821.898 615.886 823.42 612.866 826.445 C 595.052 844.28 569.361 869.572 577.228 897.287 C 578.037 900.138 582.539 905.44 584.057 909.822 C 575.832 908.365 572.244 892.399 572.757 885.142 C 574.694 857.738 599.992 834.23 618.901 816.709 z" fill="rgb(13,9,7)" transform="translate(0,0)"></path>
<path d="M 305.209 1512.18 L 1291.04 1512.05 C 1291.55 1523.53 1291.65 1535.02 1291.35 1546.51 C 1292.61 1556.85 1292.1 1578.24 1292.11 1589.2 L 1292.14 1664.89 L 1292.13 1714.89 C 1292.12 1720.44 1292.39 1736.36 1291.53 1740.96 L 683.546 1740.9 C 558.272 1740.88 430.529 1739.48 305.526 1740.99 C 304.383 1736.27 305.003 1684.84 305.014 1677.45 L 305.209 1512.18 z" fill="rgb(168,114,69)" transform="translate(0,0)"></path>
<path d="M 305.209 1512.18 L 1291.04 1512.05 C 1291.55 1523.53 1291.65 1535.02 1291.35 1546.51 L 1290.86 1550.23 L 305.702 1549.94 L 305.718 1686.77 C 305.709 1695.87 306.671 1734.4 305.526 1740.99 C 304.383 1736.27 305.003 1684.84 305.014 1677.45 L 305.209 1512.18 z" fill="rgb(139,93,54)" transform="translate(0,0)"></path>
<path d="M 1291.35 1546.51 C 1292.61 1556.85 1292.1 1578.24 1292.11 1589.2 L 1292.14 1664.89 L 1292.13 1714.89 C 1292.12 1720.44 1292.39 1736.36 1291.53 1740.96 C 1290.16 1731.21 1291.12 1687.37 1291.18 1675.79 C 1291.44 1633.94 1291.33 1592.08 1290.86 1550.23 L 1291.35 1546.51 z" fill="rgb(103,66,45)" transform="translate(0,0)"></path>
<path d="M 764.137 1181.02 L 1083.5 1180.94 C 1134.37 1180.95 1194.94 1182.46 1245.24 1180.58 C 1245.29 1188.98 1245.57 1198.67 1245.24 1206.95 L 1245.21 1226.69 C 1246.67 1233.77 1246.47 1285.59 1245.84 1294.49 C 1245.86 1323.99 1246.47 1355.84 1245.54 1385.15 C 1206.21 1370.18 1181.88 1370.16 1140.89 1370.36 L 1073.1 1370.58 C 1003.05 1370.57 931.877 1369.67 862.001 1370.56 C 881.677 1341.1 880.467 1311.51 843.461 1298.42 C 829.236 1293.39 816.122 1293.15 801.287 1293.21 C 790.647 1283.13 772.418 1263.35 762.792 1252.2 C 763.67 1236.54 765.141 1222.7 765.019 1206.89 C 764.915 1197.93 764.791 1189.98 764.137 1181.02 z" fill="rgb(168,114,69)" transform="translate(0,0)"></path>
<path d="M 764.137 1181.02 L 1083.5 1180.94 C 1134.37 1180.95 1194.94 1182.46 1245.24 1180.58 C 1245.29 1188.98 1245.57 1198.67 1245.24 1206.95 L 765.019 1206.89 C 764.915 1197.93 764.791 1189.98 764.137 1181.02 z" fill="rgb(139,93,54)" transform="translate(0,0)"></path>
<path d="M 1245.21 1226.69 C 1246.67 1233.77 1246.47 1285.59 1245.84 1294.49 C 1244.7 1282.77 1244.44 1238.79 1245.21 1226.69 z" fill="rgb(103,66,45)" transform="translate(0,0)"></path>
<path d="M 860.511 1373.13 L 1155.34 1373.12 C 1169.2 1373.12 1180.94 1372.97 1194.79 1374.79 C 1244.15 1381.62 1290.01 1404.15 1325.57 1439.06 C 1326.19 1439.36 1326.18 1439.56 1326.59 1440.15 C 1330.92 1445.37 1333.82 1449.54 1337.65 1455.16 C 1210.86 1453.7 1081.58 1455.11 954.544 1455.09 L 256.227 1455.18 C 282.48 1411.84 353.874 1379.41 403.235 1374.39 C 426.508 1372.03 458.225 1373.17 482.277 1373.17 L 584.159 1373.16 L 663.449 1373.08 C 676.638 1373.05 692.603 1372.43 705.575 1374 C 711.516 1376.22 717.19 1379.86 722.972 1382.69 C 776.765 1409.04 816.456 1424.65 860.511 1373.13 z" fill="rgb(220,197,185)" transform="translate(0,0)"></path>
<path d="M 256.664 1458 C 386.405 1456.68 518.415 1457.9 648.35 1457.96 L 1338.17 1458.06 C 1336.37 1474.4 1334.01 1482.59 1322.97 1494.9 C 1313.5 1503.47 1304.56 1508.67 1291.66 1509.04 C 1269.55 1509.68 1247.16 1509.64 1225.04 1509.64 L 1106.52 1509.49 L 754.736 1509.77 L 456.234 1509.68 L 353.168 1509.68 C 336.098 1509.65 318.542 1509.77 301.557 1509.33 C 292.488 1509.1 279.834 1503.62 273.307 1497.31 C 261.442 1485.83 257.238 1474 256.664 1458 z" fill="rgb(226,163,124)" transform="translate(0,0)"></path>
<path d="M 348.06 1180.94 C 418.208 1180.91 489.713 1181.58 559.749 1180.76 C 561.885 1186.36 568.294 1202.31 569.327 1207.65 C 575.029 1223.49 577.624 1239.58 583.194 1254.95 C 604.211 1312.95 647.671 1344.58 700.582 1370.14 L 505.911 1370.53 C 449.075 1370.58 402.728 1364.99 348.685 1385.37 C 349.062 1325.96 348.276 1266.16 347.989 1206.71 C 347.865 1198.12 347.889 1189.53 348.06 1180.94 z" fill="rgb(168,114,69)" transform="translate(0,0)"></path>
<path d="M 348.06 1180.94 C 418.208 1180.91 489.713 1181.58 559.749 1180.76 C 561.885 1186.36 568.294 1202.31 569.327 1207.65 C 564.978 1206.54 520.344 1207.07 512.009 1207.06 L 347.989 1206.71 C 347.865 1198.12 347.889 1189.53 348.06 1180.94 z" fill="rgb(139,93,54)" transform="translate(0,0)"></path>
<path d="M 746.917 1054.68 C 840.936 1055.86 936.892 1055.04 1030.99 1055.01 L 1105.89 1054.9 C 1128.05 1054.85 1149.48 1054.07 1171.37 1057.55 C 1213.07 1064.18 1266.84 1089.68 1291.71 1124.26 C 1233.62 1123.47 1173.58 1124.36 1115.32 1124.37 L 759.053 1124.49 C 754.881 1101.06 751.395 1078.4 746.917 1054.68 z" fill="rgb(220,197,185)" transform="translate(0,0)"></path>
<path d="M 759.528 1126.97 L 1292.13 1126.94 C 1292.08 1143.29 1288.63 1150.92 1278.15 1163.45 C 1257.72 1183.23 1231.31 1178.22 1204.49 1178.24 L 1113.88 1178.28 L 891.545 1178.25 C 849.616 1178.24 805.894 1177.67 764.088 1178.59 C 763.49 1161.57 761.376 1143.96 759.528 1126.97 z" fill="rgb(226,163,124)" transform="translate(0,0)"></path>
<path d="M 301.143 1127.25 C 376.502 1125.78 456.514 1127.12 532.252 1127.09 C 543.177 1145.99 549.395 1158.06 558.307 1177.98 L 413.15 1178.2 C 390.465 1178.21 366.483 1179.14 343.987 1177.51 C 316.182 1175.49 303.467 1152.02 301.143 1127.25 z" fill="rgb(226,163,124)" transform="translate(0,0)"></path>
<path d="M 434.572 1055.36 C 441.949 1054.13 464.859 1054.78 473.402 1054.91 C 495.18 1075.63 514.395 1098.88 530.633 1124.18 L 400.5 1124.46 L 301.766 1124.4 C 327.068 1085.23 389.843 1061.27 434.572 1055.36 z" fill="rgb(220,197,185)" transform="translate(0,0)"></path>
<path d="M 743.028 455.867 C 746.667 457.681 751.873 461.296 755.345 463.618 C 792.743 488.626 831.523 509.9 871.245 530.982 C 779.589 566.587 730.527 631.209 672.255 706.003 C 664.151 716.526 654.519 728.9 645.603 738.472 C 649.318 729 653.324 719.646 657.617 710.422 C 668.147 687.558 680.178 665.414 693.629 644.137 C 710.962 616.954 721.525 601.825 747.794 582.469 C 771.611 564.921 790.632 555.441 818.29 545.371 C 796.034 525.413 760.9 480.467 743.028 455.867 z" fill="rgb(226,163,124)" transform="translate(0,0)"></path>
<metadata><recraft-signature>{"signed_by": "recraft", "signature_b64": "JvF1Jvi+WCkt8u9NcxgEZ3YDHkYXqhO7U7E7bFfbo1RhWqOfnvkf56v5PjBi7muhBTPuc0hfZqx4FkUsQD1NAw==", "signing_algo": "Ed25519", "generation_timestamp": 1779098784, "identifier": "cdedeb99-c358-4938-945b-feb2a9993509"}</recraft-signature></metadata></svg>