<svg xmlns="http://www.w3.org/2000/svg" height="1152" preserveAspectRatio="none" style="display: block;" version="1.1" viewBox="0 0 1593 2048" width="896">
<path d="M 0 0 L 1593 0 L 1593 2048 L 0 2048 L 0 0 z" fill="rgb(255,255,255)" transform="translate(0,0)"></path>
<path d="M 589.406 866.683 C 591.058 873.633 580.747 913.382 579.15 924.573 C 580.68 927.892 584.528 935.771 585.425 938.864 L 585.859 939.432 C 590.399 959.487 625.039 980.676 643.285 986.216 C 649.257 988.03 656.177 988.405 661.731 991.516 L 653.114 993.181 L 650.688 994.472 L 651.039 995.336 C 692.575 989.293 728.257 986.407 769.798 993.6 C 775.426 994.574 789.315 996.933 794.411 998.703 L 796.64 997.153 C 812.759 1002.19 828.387 1005.75 844.348 1011.95 C 858.798 1017.56 872.528 1024.22 886.464 1030.97 C 888.699 1026.23 896.004 1008.64 899.574 1007.18 C 896.045 1014.8 891.909 1024.34 888.11 1031.66 C 929.434 1054.51 959.821 1075.72 991.773 1111.44 C 992.28 1112 992.786 1112.55 993.292 1113.11 C 994.891 1115.24 995.802 1116.15 997.676 1118.04 L 999.136 1119.89 L 997.548 1121.09 C 998.373 1122.05 999.113 1122.98 999.902 1123.96 L 1002.67 1124.05 C 1003.16 1124.66 1003.64 1125.28 1004.11 1125.9 C 1005.29 1127.51 1006.21 1128.59 1007.54 1130.06 L 1008.03 1130.9 L 1010.85 1134.39 C 1011.13 1134.71 1011.41 1135.04 1011.7 1135.36 C 1014.06 1138.73 1016.53 1141.97 1018.76 1145.43 C 1035.03 1167.65 1054.54 1204.31 1063.51 1230.35 C 1075.79 1265.97 1084.2 1304.08 1109.04 1334.54 L 1110.65 1337.49 C 1111.89 1338.72 1112.61 1339.85 1113.8 1341.19 L 1115.69 1344.45 C 1117.32 1346.03 1122.47 1353.72 1124.33 1356.13 L 1125.84 1358.32 L 1127.11 1359.62 L 1128.73 1362.44 C 1130.85 1364.52 1132.84 1367.85 1134.62 1370.32 C 1138.54 1375.52 1142.39 1380.1 1145.58 1385.79 L 1149.8 1391.3 C 1171.49 1421.16 1192.23 1451.8 1214.45 1481.31 C 1219.66 1488.23 1227.79 1499.93 1223.38 1508.95 C 1223.2 1511.32 1223.16 1512.56 1223.27 1514.96 C 1215.89 1586.22 1143.3 1593.84 1093.36 1555.43 C 1038.26 1513.05 1016.67 1451.23 970.476 1402.58 C 964.552 1402.44 964.054 1402.46 958.111 1403.52 C 953.935 1405.85 949.714 1408.01 945.966 1410.97 C 944.057 1416.49 943.463 1418.26 942.617 1424.03 C 938.446 1466.99 948.289 1524.58 953.585 1568.88 L 980.657 1787.89 C 984.174 1816.68 989.102 1848.37 990.149 1877.28 C 990.453 1885.68 986.235 1899.98 981.636 1907.11 C 977.665 1914.88 972.636 1920.53 966.108 1926.15 C 938.181 1946.67 919.474 1947.99 887.984 1934.03 C 876.532 1928.87 865.307 1918.94 860.255 1907.25 C 858.256 1904.52 858.394 1904.6 857.618 1901.25 C 854.151 1893.56 848.929 1853.35 849.363 1844.62 C 842.552 1778.93 835.074 1713.31 826.929 1647.78 C 824.892 1630.2 817.328 1552.5 812.671 1541.81 C 808.884 1540.19 810.4 1540.23 806.661 1540.99 C 800.801 1546.62 801.202 1569.84 800.649 1578.54 C 799.248 1597.85 797.992 1617.17 796.883 1636.5 C 794.947 1660.44 794.121 1685.53 792.732 1709.61 L 785.066 1840.67 L 782.285 1892.4 C 780.661 1921.7 778.117 1953.92 747.874 1969.42 C 726.549 1982.27 699.656 1984.23 677.708 1971.63 C 666.807 1967.92 654.614 1955.26 649.113 1945.07 C 648.408 1943.85 647.188 1940.47 646.608 1938.99 C 639.94 1925.45 643.574 1868.45 646.676 1852.27 C 647.417 1827.07 650.964 1795.21 653.066 1769.6 C 657.131 1721.27 660.896 1672.92 664.36 1624.54 C 665.446 1609.3 666.616 1594.05 667.872 1578.82 C 668.561 1570.46 672.237 1549.48 665.98 1544.07 L 663.656 1544.93 C 655.664 1553.85 646.614 1609.85 643.506 1625.27 C 636.206 1665.76 623.639 1708.6 616.113 1749.69 C 609.558 1781.67 602.424 1813.49 594.752 1845.22 C 591.332 1859.36 589.054 1876.49 583.539 1889.79 C 572.695 1915.93 530.739 1934.63 504.812 1920.6 C 497.271 1918.04 490.439 1913.47 483.821 1909.13 C 481.894 1907.58 479.803 1906.09 478.534 1903.91 L 477.814 1902.76 C 474.477 1901.13 469.427 1893.48 467.63 1890.14 C 453.85 1864.54 466.013 1834.36 473.371 1808.6 C 480.68 1784.77 485.543 1759.86 491.943 1735.69 C 511.027 1663.64 524.973 1590.68 540.559 1517.84 C 541.692 1512.55 545.368 1500.87 540.898 1497.75 C 537.336 1498.18 537.18 1498.51 534.248 1500.83 C 525.629 1520.99 517.402 1545.73 509.612 1566.75 L 466.47 1682.65 C 459.672 1701.03 452.878 1719.42 446.001 1737.75 C 442.168 1747.96 438.247 1757.05 430.327 1764.72 C 428.056 1766.93 423.034 1771.48 420.015 1772.03 C 398.458 1788.44 371.867 1780.41 351.312 1767.38 C 310.68 1743.08 325 1701.56 339.319 1666.72 C 345.475 1647.53 356.47 1621.47 363.94 1601.88 L 419.542 1454.59 C 429.38 1428.54 440.76 1399.39 449.882 1373.37 C 453.834 1362.1 457.846 1318.61 459.707 1303.94 C 462.832 1279.67 466.345 1255.46 470.242 1231.31 C 481.73 1158.28 497.297 1092.34 553.309 1040.51 C 558.741 1017.73 563.358 990.813 568.017 967.521 C 574.836 933.843 581.965 900.229 589.406 866.683 z" fill="rgb(222,124,83)" transform="translate(0,0)"></path>
<path d="M 944.163 1409.6 L 945.966 1410.97 C 944.057 1416.49 943.463 1418.26 942.617 1424.03 C 938.446 1466.99 948.289 1524.58 953.585 1568.88 L 980.657 1787.89 C 984.174 1816.68 989.102 1848.37 990.149 1877.28 C 990.453 1885.68 986.235 1899.98 981.636 1907.11 C 977.665 1914.88 972.636 1920.53 966.108 1926.15 C 938.181 1946.67 919.474 1947.99 887.984 1934.03 C 876.532 1928.87 865.307 1918.94 860.255 1907.25 C 858.256 1904.52 858.394 1904.6 857.618 1901.25 C 854.151 1893.56 848.929 1853.35 849.363 1844.62 C 850.725 1839.32 850.162 1839.17 850.216 1833.44 C 849.58 1822.74 854.267 1817 860.21 1808.14 L 858.322 1807.45 C 861.684 1803.29 863.936 1800.75 868.214 1797.44 C 879.726 1788.73 894.26 1785.01 908.543 1787.12 C 926.071 1789.63 937.251 1798.56 947.401 1812.35 C 946.455 1789.99 940.495 1753.16 937.528 1729.47 L 915.844 1557.74 C 912.305 1529.07 904.428 1491.13 908.766 1462.81 C 910.904 1448.84 921.235 1430.46 931.672 1421.02 C 934.95 1418.06 939.945 1413.97 942.291 1410.26 L 944.163 1409.6 z" fill="rgb(150,77,38)" transform="translate(0,0)"></path>
<path d="M 860.21 1808.14 C 876.625 1784.6 910.682 1783.81 933.011 1799.57 C 933.725 1800.01 933.577 1799.89 934.204 1800.49 C 936.971 1802.98 939.481 1805.05 941.825 1807.95 C 942.389 1808.45 942.271 1808.35 942.725 1809.03 C 951.783 1820.25 949.958 1833.35 952.143 1847.13 C 953.987 1858.77 955.95 1871.29 955.053 1882.99 C 951.643 1913.71 920.367 1945.89 888.369 1932.48 L 887.984 1934.03 C 876.532 1928.87 865.307 1918.94 860.255 1907.25 C 858.256 1904.52 858.394 1904.6 857.618 1901.25 C 854.151 1893.56 848.929 1853.35 849.363 1844.62 C 850.725 1839.32 850.162 1839.17 850.216 1833.44 C 849.58 1822.74 854.267 1817 860.21 1808.14 z" fill="rgb(222,124,83)" transform="translate(0,0)"></path>
<path d="M 850.216 1833.44 C 850.998 1837.19 857.762 1900.16 857.618 1901.25 C 854.151 1893.56 848.929 1853.35 849.363 1844.62 C 850.725 1839.32 850.162 1839.17 850.216 1833.44 z" fill="rgb(150,77,38)" transform="translate(0,0)"></path>
<path d="M 860.255 1907.25 L 860.894 1907.69 C 865.936 1910.85 866.233 1913.65 869.373 1918.37 C 873.299 1924.27 884.453 1927.72 888.369 1932.48 L 887.984 1934.03 C 876.532 1928.87 865.307 1918.94 860.255 1907.25 z" fill="rgb(150,77,38)" transform="translate(0,0)"></path>
<path d="M 944.163 1409.6 L 945.966 1410.97 C 944.057 1416.49 943.463 1418.26 942.617 1424.03 L 941.125 1423 C 941.451 1420.65 941.75 1418.29 942.022 1415.93 L 941.044 1415.12 C 924.888 1422.7 908.153 1457.95 908.817 1475.94 C 909.565 1496.19 912.658 1515.96 915.281 1536.06 L 924.269 1607.41 L 948.918 1804.14 C 951.575 1825.06 959.156 1870.06 956.683 1888.76 C 954.956 1901.81 937.007 1928.51 922.327 1932.61 C 920.683 1933.07 903.567 1939.31 902.607 1939.73 C 909.767 1940.21 917.902 1940.94 924.998 1941.03 C 928.117 1940.46 928.637 1940.13 931.644 1940.48 C 944.013 1939.05 956.097 1932.29 965.362 1924.21 L 966.108 1926.15 C 938.181 1946.67 919.474 1947.99 887.984 1934.03 L 888.369 1932.48 C 920.367 1945.89 951.643 1913.71 955.053 1882.99 C 955.95 1871.29 953.987 1858.77 952.143 1847.13 C 949.958 1833.35 951.783 1820.25 942.725 1809.03 C 942.271 1808.35 942.389 1808.45 941.825 1807.95 C 939.481 1805.05 936.971 1802.98 934.204 1800.49 C 933.577 1799.89 933.725 1800.01 933.011 1799.57 C 910.682 1783.81 876.625 1784.6 860.21 1808.14 L 858.322 1807.45 C 861.684 1803.29 863.936 1800.75 868.214 1797.44 C 879.726 1788.73 894.26 1785.01 908.543 1787.12 C 926.071 1789.63 937.251 1798.56 947.401 1812.35 C 946.455 1789.99 940.495 1753.16 937.528 1729.47 L 915.844 1557.74 C 912.305 1529.07 904.428 1491.13 908.766 1462.81 C 910.904 1448.84 921.235 1430.46 931.672 1421.02 C 934.95 1418.06 939.945 1413.97 942.291 1410.26 L 944.163 1409.6 z" fill="rgb(71,37,24)" transform="translate(0,0)"></path>
<path d="M 924.998 1941.03 C 928.117 1940.46 928.637 1940.13 931.644 1940.48 C 929.562 1941.42 927.231 1941.03 924.998 1941.03 z" fill="rgb(129,75,53)" transform="translate(0,0)"></path>
<path d="M 965.362 1924.21 C 966.429 1922.5 980.2 1907.37 981.636 1907.11 C 977.665 1914.88 972.636 1920.53 966.108 1926.15 L 965.362 1924.21 z" fill="rgb(129,75,53)" transform="translate(0,0)"></path>
<path d="M 942.291 1410.26 C 940.394 1401.32 936.7 1332.6 950.88 1337.4 C 953.284 1339.76 955.42 1341.19 957.935 1343.5 C 960.014 1345.68 963.079 1348.7 964.882 1350.97 C 965.422 1351.39 965.388 1351.41 965.747 1351.99 L 966.705 1353.07 C 990.101 1379.66 983.446 1388.58 1023.29 1410.39 C 1023.64 1412.05 1023.63 1412.25 1024.48 1413.67 L 1024.9 1418.21 L 1027.35 1419.8 C 1028.11 1421.51 1028.43 1423.19 1028.86 1425.03 C 1031.2 1435.04 1035.92 1442.52 1041.86 1450.68 C 1063.48 1475.82 1069.76 1453.18 1078.96 1436.54 C 1092.17 1412.65 1117.08 1392.71 1143.92 1385.9 L 1145.58 1385.79 L 1149.8 1391.3 C 1171.49 1421.16 1192.23 1451.8 1214.45 1481.31 C 1219.66 1488.23 1227.79 1499.93 1223.38 1508.95 C 1223.2 1511.32 1223.16 1512.56 1223.27 1514.96 C 1215.89 1586.22 1143.3 1593.84 1093.36 1555.43 C 1038.26 1513.05 1016.67 1451.23 970.476 1402.58 C 964.552 1402.44 964.054 1402.46 958.111 1403.52 C 953.935 1405.85 949.714 1408.01 945.966 1410.97 L 944.163 1409.6 L 942.291 1410.26 z" fill="rgb(150,77,38)" transform="translate(0,0)"></path>
<path d="M 1218.15 1514.09 C 1155.26 1555.01 1079.57 1479.85 1114.31 1416.09 C 1119.14 1407.24 1133.29 1391.62 1143.08 1388.88 C 1146.57 1389.44 1145.26 1388.82 1147.9 1391.87 L 1149.8 1391.3 C 1171.49 1421.16 1192.23 1451.8 1214.45 1481.31 C 1219.66 1488.23 1227.79 1499.93 1223.38 1508.95 C 1223.2 1511.32 1223.16 1512.56 1223.27 1514.96 C 1221.21 1514.49 1221.39 1514.46 1219.33 1514.75 L 1218.15 1514.09 z" fill="rgb(222,124,83)" transform="translate(0,0)"></path>
<path d="M 1149.8 1391.3 C 1171.49 1421.16 1192.23 1451.8 1214.45 1481.31 C 1219.66 1488.23 1227.79 1499.93 1223.38 1508.95 L 1222.37 1508.13 C 1223.27 1497.47 1219.39 1491.91 1213.41 1483.45 C 1191.86 1452.95 1168.32 1423.13 1147.9 1391.87 L 1149.8 1391.3 z" fill="rgb(129,75,53)" transform="translate(0,0)"></path>
<path d="M 1222.37 1508.13 L 1223.38 1508.95 C 1223.2 1511.32 1223.16 1512.56 1223.27 1514.96 C 1221.21 1514.49 1221.39 1514.46 1219.33 1514.75 L 1218.15 1514.09 C 1220.56 1511.42 1220.59 1511.31 1222.37 1508.13 z" fill="rgb(16,8,6)" transform="translate(0,0)"></path>
<path d="M 1145.58 1385.79 L 1149.8 1391.3 L 1147.9 1391.87 C 1145.26 1388.82 1146.57 1389.44 1143.08 1388.88 C 1133.29 1391.62 1119.14 1407.24 1114.31 1416.09 C 1079.57 1479.85 1155.26 1555.01 1218.15 1514.09 L 1219.33 1514.75 C 1191.13 1540.79 1146.33 1524.72 1122.72 1500.01 C 1122.33 1499.39 1122.4 1499.4 1121.85 1499 C 1093.26 1458.76 1097.45 1422.58 1134.57 1390.31 C 1105.59 1402.94 1085.3 1424.59 1072.37 1453.27 C 1071.14 1454.88 1071.03 1455.26 1070.67 1457.25 C 1066.6 1461.06 1065.18 1462.09 1059.79 1463.72 C 1058.12 1463.44 1058.27 1463.34 1056.81 1463.69 C 1051.34 1461.61 1049.88 1460.5 1045.06 1457.26 C 1044.31 1455.78 1044.18 1455.73 1042.67 1455.09 L 1040.59 1451.43 L 1041.86 1450.68 C 1063.48 1475.82 1069.76 1453.18 1078.96 1436.54 C 1092.17 1412.65 1117.08 1392.71 1143.92 1385.9 L 1145.58 1385.79 z" fill="rgb(71,37,24)" transform="translate(0,0)"></path>
<path d="M 942.291 1410.26 C 940.394 1401.32 936.7 1332.6 950.88 1337.4 C 953.284 1339.76 955.42 1341.19 957.935 1343.5 L 956.878 1342.95 C 948.211 1338.36 945.967 1338.46 944.29 1350.49 C 942.849 1360.82 941.409 1401.09 944.163 1409.6 L 942.291 1410.26 z" fill="rgb(95,52,35)" transform="translate(0,0)"></path>
<path d="M 1024.9 1418.21 L 1027.35 1419.8 C 1028.11 1421.51 1028.43 1423.19 1028.86 1425.03 C 1031.2 1435.04 1035.92 1442.52 1041.86 1450.68 L 1040.59 1451.43 C 1033.43 1444.87 1026.61 1427.67 1024.9 1418.21 z" fill="rgb(95,52,35)" transform="translate(0,0)"></path>
<path d="M 958.111 1403.52 C 959.453 1397.94 970.558 1399.35 970.476 1402.58 C 964.552 1402.44 964.054 1402.46 958.111 1403.52 z" fill="rgb(95,52,35)" transform="translate(0,0)"></path>
<path d="M 1042.67 1455.09 C 1044.18 1455.73 1044.31 1455.78 1045.06 1457.26 C 1043.41 1456.61 1043.58 1456.69 1042.67 1455.09 z" fill="rgb(129,75,53)" transform="translate(0,0)"></path>
<path d="M 1056.81 1463.69 C 1058.27 1463.34 1058.12 1463.44 1059.79 1463.72 C 1058.32 1464.16 1058.38 1464.09 1056.81 1463.69 z" fill="rgb(129,75,53)" transform="translate(0,0)"></path>
<path d="M 1072.37 1453.27 C 1072.32 1454.9 1071.76 1455.98 1070.67 1457.25 C 1071.03 1455.26 1071.14 1454.88 1072.37 1453.27 z" fill="rgb(129,75,53)" transform="translate(0,0)"></path>
<path d="M 776.345 1483.78 C 786.122 1473.17 797.915 1474.73 806.008 1486.18 C 807.342 1497.18 811.647 1528.25 811.095 1537.87 C 807.523 1540.01 800.855 1540.67 801.086 1544.56 C 801.934 1558.88 792.851 1627.93 795.365 1636.98 L 796.883 1636.5 C 794.947 1660.44 794.121 1685.53 792.732 1709.61 L 785.066 1840.67 L 782.285 1892.4 C 780.661 1921.7 778.117 1953.92 747.874 1969.42 C 726.549 1982.27 699.656 1984.23 677.708 1971.63 C 679.217 1971.47 680.199 1971.27 681.687 1971.43 C 695.9 1978.34 704.393 1969.87 716.017 1967.53 L 718.888 1965.67 C 719.826 1965.08 720.038 1964.84 721.072 1964.55 C 750.692 1956.59 751.082 1903.94 752.371 1880.02 C 752.631 1879.21 752.634 1879.13 752.704 1878.28 L 767.745 1602.61 L 771.313 1528.54 C 771.867 1516.95 772.372 1498.28 773.899 1487.13 C 773.709 1486.54 773.254 1485.83 772.942 1485.27 L 773.191 1484.74 C 774.875 1484.51 775.155 1484.71 776.345 1483.78 z" fill="rgb(150,77,38)" transform="translate(0,0)"></path>
<path d="M 681.687 1971.43 C 695.9 1978.34 704.393 1969.87 716.017 1967.53 C 714.085 1973.12 695.978 1974.29 695.405 1976.66 C 695.808 1976.51 696.211 1976.37 696.614 1976.22 L 697.49 1977.65 C 699.384 1977.62 709.891 1977.95 711 1978.24 C 722.149 1981.13 740.325 1969.62 747.874 1969.42 C 726.549 1982.27 699.656 1984.23 677.708 1971.63 C 679.217 1971.47 680.199 1971.27 681.687 1971.43 z" fill="rgb(71,37,24)" transform="translate(0,0)"></path>
<path d="M 776.345 1483.78 C 775.591 1485.55 775.492 1486.24 773.899 1487.13 C 773.709 1486.54 773.254 1485.83 772.942 1485.27 L 773.191 1484.74 C 774.875 1484.51 775.155 1484.71 776.345 1483.78 z" fill="rgb(129,75,53)" transform="translate(0,0)"></path>
<path d="M 718.888 1965.67 C 719.826 1965.08 720.038 1964.84 721.072 1964.55 C 720.66 1965.41 719.763 1965.44 718.888 1965.67 z" fill="rgb(71,37,24)" transform="translate(0,0)"></path>
<path d="M 647.768 1860.66 C 647.839 1852.13 649.131 1848.15 653.964 1840.78 C 662.031 1828.71 674.623 1820.39 688.896 1817.71 C 704.283 1814.81 717.311 1817.78 730.104 1826.51 C 730.755 1826.86 730.766 1826.89 731.299 1827.4 C 741.683 1836.19 745.695 1842.04 751.676 1854.31 C 751.064 1867.51 750.331 1880.7 749.474 1893.88 C 747.831 1920.36 747.767 1940.11 726.676 1959.64 C 724.847 1961.32 722.979 1962.95 721.072 1964.55 C 720.038 1964.84 719.826 1965.08 718.888 1965.67 L 716.017 1967.53 C 704.393 1969.87 695.9 1978.34 681.687 1971.43 C 680.199 1971.27 679.217 1971.47 677.708 1971.63 C 666.807 1967.92 654.614 1955.26 649.113 1945.07 C 648.408 1943.85 647.188 1940.47 646.608 1938.99 C 639.94 1925.45 643.574 1868.45 646.676 1852.27 C 646.803 1855.19 646.701 1857.94 647.768 1860.66 z" fill="rgb(222,124,83)" transform="translate(0,0)"></path>
<path d="M 646.608 1938.99 C 639.94 1925.45 643.574 1868.45 646.676 1852.27 C 646.803 1855.19 646.701 1857.94 647.768 1860.66 C 649.379 1869.98 643.247 1908.2 644.327 1920.46 C 644.713 1924.84 648.084 1936.6 646.608 1938.99 z" fill="rgb(150,77,38)" transform="translate(0,0)"></path>
<path d="M 649.113 1945.07 C 654.769 1946.41 653.687 1951.33 659.185 1955.17 C 662.52 1957.5 666.155 1965.03 671.995 1966.01 C 673.488 1966.58 680.453 1970.45 681.687 1971.43 C 680.199 1971.27 679.217 1971.47 677.708 1971.63 C 666.807 1967.92 654.614 1955.26 649.113 1945.07 z" fill="rgb(150,77,38)" transform="translate(0,0)"></path>
<path d="M 639.581 1498.37 C 641.475 1487.8 643.402 1458.44 658.298 1458.54 C 671.485 1458.64 674.955 1467.68 674.864 1478.99 C 674.297 1483.46 673.736 1485.9 674.104 1490.45 C 673.413 1496.71 672.901 1502.08 672.61 1508.37 C 672.753 1509.77 672.821 1509.74 672.317 1511 C 671.855 1516.35 670.633 1527.02 670.845 1531.98 C 670.844 1535.95 670.878 1537.83 670.013 1541.83 C 666.597 1541.77 663.246 1541.27 660.554 1543.8 C 656.518 1547.6 642.85 1613.61 642.835 1621.53 C 642.832 1622.95 643.107 1623.91 643.506 1625.27 C 636.206 1665.76 623.639 1708.6 616.113 1749.69 C 609.558 1781.67 602.424 1813.49 594.752 1845.22 C 591.332 1859.36 589.054 1876.49 583.539 1889.79 C 572.695 1915.93 530.739 1934.63 504.812 1920.6 C 504.125 1919.51 503.242 1918.57 502.398 1917.58 C 514.357 1916.52 525.877 1915.37 536.222 1908.69 C 562.632 1891.62 563.813 1866.9 570.315 1839.04 C 580.912 1792.23 590.427 1745.18 598.852 1697.94 C 600.813 1687.02 603.958 1676.01 606.279 1665.13 C 617.958 1610.35 627.164 1554.61 639.267 1500.01 C 639.569 1499.14 639.55 1499.28 639.581 1498.37 z" fill="rgb(150,77,38)" transform="translate(0,0)"></path>
<path d="M 670.845 1531.98 C 670.844 1535.95 670.878 1537.83 670.013 1541.83 C 669.859 1537.49 670.138 1536.27 670.845 1531.98 z" fill="rgb(95,52,35)" transform="translate(0,0)"></path>
<path d="M 672.61 1508.37 C 672.753 1509.77 672.821 1509.74 672.317 1511 C 672.243 1509.58 672.087 1509.48 672.61 1508.37 z" fill="rgb(129,75,53)" transform="translate(0,0)"></path>
<path d="M 474.516 1810.75 C 476.333 1803.86 479.252 1790.1 483.333 1784.82 C 501.209 1761.7 531.802 1761.05 554.168 1776.68 C 555.823 1777.94 556.983 1778.64 558.069 1780.42 C 560.202 1782.22 561.01 1782.66 562.435 1784.96 C 579.663 1806.85 573.332 1815.15 567.819 1840.23 C 562.657 1863.7 560.475 1888.11 539.351 1903.69 C 524.017 1914.92 500.294 1920.24 484.463 1907.16 L 483.821 1909.13 C 481.894 1907.58 479.803 1906.09 478.534 1903.91 L 477.814 1902.76 C 474.477 1901.13 469.427 1893.48 467.63 1890.14 C 453.85 1864.54 466.013 1834.36 473.371 1808.6 L 474.516 1810.75 z" fill="rgb(222,124,83)" transform="translate(0,0)"></path>
<path d="M 473.371 1808.6 L 474.516 1810.75 L 474.316 1811.97 C 469.524 1839.96 451.755 1864.96 473.875 1895.43 C 475.838 1898.14 477.123 1899.53 477.814 1902.76 C 474.477 1901.13 469.427 1893.48 467.63 1890.14 C 453.85 1864.54 466.013 1834.36 473.371 1808.6 z" fill="rgb(150,77,38)" transform="translate(0,0)"></path>
<path d="M 477.814 1902.76 C 480.642 1903.73 483.699 1904.29 484.463 1907.16 L 483.821 1909.13 C 481.894 1907.58 479.803 1906.09 478.534 1903.91 L 477.814 1902.76 z" fill="rgb(150,77,38)" transform="translate(0,0)"></path>
<path d="M 554.168 1776.68 C 555.823 1777.94 556.983 1778.64 558.069 1780.42 C 555.865 1779.25 555.675 1778.7 554.168 1776.68 z" fill="rgb(150,77,38)" transform="translate(0,0)"></path>
<path d="M 558.069 1780.42 C 560.202 1782.22 561.01 1782.66 562.435 1784.96 C 560.483 1784.02 559.367 1782.07 558.069 1780.42 z" fill="rgb(150,77,38)" transform="translate(0,0)"></path>
<path d="M 541.359 1425.02 C 542.609 1425.2 542.606 1425.19 543.786 1425.62 C 548.414 1427.97 553.757 1432.08 554.385 1437.05 C 555.703 1447.47 546.843 1486.88 543.469 1495.88 C 537.866 1496.75 537.93 1495.91 533.951 1499.03 C 533.92 1500.48 533.721 1499.9 534.248 1500.83 C 525.629 1520.99 517.402 1545.73 509.612 1566.75 L 466.47 1682.65 C 459.672 1701.03 452.878 1719.42 446.001 1737.75 C 442.168 1747.96 438.247 1757.05 430.327 1764.72 C 428.056 1766.93 423.034 1771.48 420.015 1772.03 C 404.329 1774.81 397.352 1782.23 379.036 1777.82 C 378.207 1777.67 378.14 1777.7 377.362 1777.37 C 370.726 1775.9 367.771 1774.57 361.818 1771.52 C 372.684 1771.25 379.604 1770.91 389.903 1766.7 C 405.509 1760.49 417.331 1748.11 423.004 1732.23 C 433.182 1703.74 443.771 1675.11 452.885 1646.24 C 454.52 1641.06 456.257 1635.72 458.4 1630.73 L 458.833 1629.73 L 457.347 1627.25 C 472.514 1584.34 486.149 1540.36 501.655 1497.59 C 507.727 1480.84 519.366 1435.75 529.931 1425.26 L 532.882 1425.98 C 535.581 1425.25 538.518 1425.23 541.359 1425.02 z" fill="rgb(150,77,38)" transform="translate(0,0)"></path>
<path d="M 457.347 1627.25 C 472.514 1584.34 486.149 1540.36 501.655 1497.59 C 507.727 1480.84 519.366 1435.75 529.931 1425.26 L 532.882 1425.98 C 530.004 1428.96 526.156 1432.78 524.711 1436.59 C 515.991 1459.56 509.066 1483.61 500.928 1506.81 C 489.226 1540.17 477.178 1573.31 466.326 1606.95 C 465.015 1611.02 459.014 1627 458.833 1629.73 L 457.347 1627.25 z" fill="rgb(95,52,35)" transform="translate(0,0)"></path>
<path d="M 360.049 1648.07 C 374.141 1642.87 388.05 1641.24 402.158 1647.76 C 403.435 1648.35 404.701 1648.97 405.954 1649.61 C 406.676 1649.85 406.61 1649.86 407.25 1650.34 L 412.091 1653.52 C 412.799 1653.91 412.546 1653.73 413.264 1654.36 L 417.129 1657.68 C 418.651 1658.49 418.536 1658.42 419.46 1659.92 L 422.728 1663.99 C 423.324 1664.51 423.207 1664.44 423.626 1665.13 C 437.569 1685.86 434.217 1696.63 425.87 1719.1 C 419.563 1736.09 415.408 1748.36 399.513 1759.27 C 389.104 1766.41 366.034 1773.51 354.339 1767.02 L 351.312 1767.38 C 310.68 1743.08 325 1701.56 339.319 1666.72 L 340.786 1667.1 C 344.86 1657.79 347.76 1655.31 356.034 1650.34 C 358.331 1649.61 358.266 1649.66 360.049 1648.07 z" fill="rgb(222,124,83)" transform="translate(0,0)"></path>
<path d="M 351.312 1767.38 C 310.68 1743.08 325 1701.56 339.319 1666.72 L 340.786 1667.1 C 334.61 1694.8 315.594 1717.47 334.174 1747.6 C 340.259 1757.47 345.061 1760.69 354.339 1767.02 L 351.312 1767.38 z" fill="rgb(150,77,38)" transform="translate(0,0)"></path>
<path d="M 417.129 1657.68 C 418.651 1658.49 418.536 1658.42 419.46 1659.92 C 418.071 1659.33 417.839 1658.97 417.129 1657.68 z" fill="rgb(150,77,38)" transform="translate(0,0)"></path>
<path d="M 529.931 1425.26 C 542.558 1419.43 551.705 1424.89 556.893 1437.19 C 557.172 1437.86 557.44 1438.53 557.699 1439.2 C 556.603 1452.08 552.184 1467.43 549.54 1480.32 C 528.893 1580.99 509.394 1683.56 481.872 1782.61 C 517.05 1750.16 558.667 1760.88 575.853 1805.01 L 619.913 1587.5 L 635.819 1506.24 C 638.188 1494.35 639.699 1481.65 643.121 1470.06 C 644.392 1465.75 645.997 1462.31 649.993 1459.93 C 654.695 1457.14 662.032 1456.74 667.144 1458.52 C 670.887 1459.82 673.874 1463.05 675.497 1466.59 C 679.825 1476.03 670.708 1562.12 669.722 1578.32 C 668.804 1579.81 669.026 1579.82 669.211 1581.67 C 667.648 1611.8 664.164 1642.54 662.757 1672.57 C 662.892 1674.84 663.251 1675.74 662.177 1677.62 C 660.194 1727.66 651.972 1782.38 649.741 1832.94 C 649.623 1833.98 649.721 1834.01 649.252 1834.76 C 648.977 1837.61 648.385 1839.92 649.56 1842.44 C 652.928 1841.31 656.858 1833.24 660.71 1829.95 C 664.946 1826.32 667.276 1824.22 672.314 1821.4 C 685.088 1814.19 700.234 1812.45 714.311 1816.57 C 732.355 1821.93 743.057 1833.8 751.659 1849.78 C 753.047 1838.59 753.354 1823.67 753.99 1812.09 L 757.758 1741.06 L 766.991 1573.19 C 767.636 1560.41 769.745 1492.66 772.942 1485.27 C 773.254 1485.83 773.709 1486.54 773.899 1487.13 C 772.372 1498.28 771.867 1516.95 771.313 1528.54 L 767.745 1602.61 L 752.704 1878.28 C 752.634 1879.13 752.631 1879.21 752.371 1880.02 C 751.082 1903.94 750.692 1956.59 721.072 1964.55 C 722.979 1962.95 724.847 1961.32 726.676 1959.64 C 747.767 1940.11 747.831 1920.36 749.474 1893.88 C 750.331 1880.7 751.064 1867.51 751.676 1854.31 C 745.695 1842.04 741.683 1836.19 731.299 1827.4 C 730.766 1826.89 730.755 1826.86 730.104 1826.51 C 717.311 1817.78 704.283 1814.81 688.896 1817.71 C 674.623 1820.39 662.031 1828.71 653.964 1840.78 C 649.131 1848.15 647.839 1852.13 647.768 1860.66 C 646.701 1857.94 646.803 1855.19 646.676 1852.27 C 647.417 1827.07 650.964 1795.21 653.066 1769.6 C 657.131 1721.27 660.896 1672.92 664.36 1624.54 C 665.446 1609.3 666.616 1594.05 667.872 1578.82 C 668.561 1570.46 672.237 1549.48 665.98 1544.07 L 663.656 1544.93 C 655.664 1553.85 646.614 1609.85 643.506 1625.27 C 643.107 1623.91 642.832 1622.95 642.835 1621.53 C 642.85 1613.61 656.518 1547.6 660.554 1543.8 C 663.246 1541.27 666.597 1541.77 670.013 1541.83 C 670.878 1537.83 670.844 1535.95 670.845 1531.98 C 670.633 1527.02 671.855 1516.35 672.317 1511 C 672.821 1509.74 672.753 1509.77 672.61 1508.37 C 672.901 1502.08 673.413 1496.71 674.104 1490.45 C 673.736 1485.9 674.297 1483.46 674.864 1478.99 C 674.955 1467.68 671.485 1458.64 658.298 1458.54 C 643.402 1458.44 641.475 1487.8 639.581 1498.37 C 639.55 1499.28 639.569 1499.14 639.267 1500.01 C 627.164 1554.61 617.958 1610.35 606.279 1665.13 C 603.958 1676.01 600.813 1687.02 598.852 1697.94 C 590.427 1745.18 580.912 1792.23 570.315 1839.04 C 563.813 1866.9 562.632 1891.62 536.222 1908.69 C 525.877 1915.37 514.357 1916.52 502.398 1917.58 C 503.242 1918.57 504.125 1919.51 504.812 1920.6 C 497.271 1918.04 490.439 1913.47 483.821 1909.13 L 484.463 1907.16 C 500.294 1920.24 524.017 1914.92 539.351 1903.69 C 560.475 1888.11 562.657 1863.7 567.819 1840.23 C 573.332 1815.15 579.663 1806.85 562.435 1784.96 C 561.01 1782.66 560.202 1782.22 558.069 1780.42 C 556.983 1778.64 555.823 1777.94 554.168 1776.68 C 531.802 1761.05 501.209 1761.7 483.333 1784.82 C 479.252 1790.1 476.333 1803.86 474.516 1810.75 L 473.371 1808.6 C 480.68 1784.77 485.543 1759.86 491.943 1735.69 C 511.027 1663.64 524.973 1590.68 540.559 1517.84 C 541.692 1512.55 545.368 1500.87 540.898 1497.75 C 537.336 1498.18 537.18 1498.51 534.248 1500.83 C 533.721 1499.9 533.92 1500.48 533.951 1499.03 C 537.93 1495.91 537.866 1496.75 543.469 1495.88 C 546.843 1486.88 555.703 1447.47 554.385 1437.05 C 553.757 1432.08 548.414 1427.97 543.786 1425.62 C 542.606 1425.19 542.609 1425.2 541.359 1425.02 C 538.518 1425.23 535.581 1425.25 532.882 1425.98 L 529.931 1425.26 z" fill="rgb(71,37,24)" transform="translate(0,0)"></path>
<path d="M 674.864 1478.99 C 674.965 1483.49 675.045 1485.89 674.104 1490.45 C 673.736 1485.9 674.297 1483.46 674.864 1478.99 z" fill="rgb(95,52,35)" transform="translate(0,0)"></path>
<path d="M 662.177 1677.62 C 661.77 1674.97 661.746 1674.96 662.757 1672.57 C 662.892 1674.84 663.251 1675.74 662.177 1677.62 z" fill="rgb(150,77,38)" transform="translate(0,0)"></path>
<path d="M 649.741 1832.94 C 649.623 1833.98 649.721 1834.01 649.252 1834.76 C 649.266 1833.73 649.238 1833.86 649.741 1832.94 z" fill="rgb(150,77,38)" transform="translate(0,0)"></path>
<path d="M 578.204 927.555 C 580.442 932.025 581.787 935.424 585.425 938.864 L 585.859 939.432 C 590.399 959.487 625.039 980.676 643.285 986.216 C 649.257 988.03 656.177 988.405 661.731 991.516 L 653.114 993.181 L 650.688 994.472 L 651.039 995.336 C 642.864 997.817 634.389 999.578 626.345 1002.17 C 602.437 1010.11 580.005 1021.95 559.954 1037.2 L 558.472 1036.17 L 557.037 1036.56 C 555.368 1032.78 575.742 938.624 578.204 927.555 z" fill="rgb(150,77,38)" transform="translate(0,0)"></path>
<path d="M 558.472 1036.17 C 581.903 1018.21 623.464 995.943 653.114 993.181 L 650.688 994.472 L 651.039 995.336 C 642.864 997.817 634.389 999.578 626.345 1002.17 C 602.437 1010.11 580.005 1021.95 559.954 1037.2 L 558.472 1036.17 z" fill="rgb(95,52,35)" transform="translate(0,0)"></path>
<path d="M 589.406 866.683 C 591.058 873.633 580.747 913.382 579.15 924.573 C 580.68 927.892 584.528 935.771 585.425 938.864 C 581.787 935.424 580.442 932.025 578.204 927.555 C 575.742 938.624 555.368 1032.78 557.037 1036.56 L 558.472 1036.17 L 559.954 1037.2 C 498.884 1089.08 482.925 1159.61 471.319 1235.68 C 467.674 1259.27 464.261 1282.9 461.08 1306.56 C 459.157 1321.1 455.718 1361.01 452.097 1371.68 C 444.273 1394.72 433.382 1422.19 424.669 1445.17 L 374.441 1578.45 C 365.357 1602.41 353.636 1630.73 345.721 1654.52 C 360.779 1644.84 373.907 1638.69 392.633 1642.59 C 406.91 1645.62 419.357 1654.29 427.149 1666.63 C 432.215 1674.52 433.935 1680.28 435.947 1689.28 C 442.936 1671.21 450.812 1641.91 457.347 1627.25 L 458.833 1629.73 L 458.4 1630.73 C 456.257 1635.72 454.52 1641.06 452.885 1646.24 C 443.771 1675.11 433.182 1703.74 423.004 1732.23 C 417.331 1748.11 405.509 1760.49 389.903 1766.7 C 379.604 1770.91 372.684 1771.25 361.818 1771.52 C 367.771 1774.57 370.726 1775.9 377.362 1777.37 C 378.14 1777.7 378.207 1777.67 379.036 1777.82 C 397.352 1782.23 404.329 1774.81 420.015 1772.03 C 398.458 1788.44 371.867 1780.41 351.312 1767.38 L 354.339 1767.02 C 366.034 1773.51 389.104 1766.41 399.513 1759.27 C 415.408 1748.36 419.563 1736.09 425.87 1719.1 C 434.217 1696.63 437.569 1685.86 423.626 1665.13 C 423.207 1664.44 423.324 1664.51 422.728 1663.99 L 419.46 1659.92 C 418.536 1658.42 418.651 1658.49 417.129 1657.68 L 413.264 1654.36 C 412.546 1653.73 412.799 1653.91 412.091 1653.52 L 407.25 1650.34 C 406.61 1649.86 406.676 1649.85 405.954 1649.61 C 404.701 1648.97 403.435 1648.35 402.158 1647.76 C 388.05 1641.24 374.141 1642.87 360.049 1648.07 C 358.266 1649.66 358.331 1649.61 356.034 1650.34 C 347.76 1655.31 344.86 1657.79 340.786 1667.1 L 339.319 1666.72 C 345.475 1647.53 356.47 1621.47 363.94 1601.88 L 419.542 1454.59 C 429.38 1428.54 440.76 1399.39 449.882 1373.37 C 453.834 1362.1 457.846 1318.61 459.707 1303.94 C 462.832 1279.67 466.345 1255.46 470.242 1231.31 C 481.73 1158.28 497.297 1092.34 553.309 1040.51 C 558.741 1017.73 563.358 990.813 568.017 967.521 C 574.836 933.843 581.965 900.229 589.406 866.683 z" fill="rgb(71,37,24)" transform="translate(0,0)"></path>
<path d="M 356.034 1650.34 C 357.136 1648.8 358.156 1648.75 360.049 1648.07 C 358.266 1649.66 358.331 1649.61 356.034 1650.34 z" fill="rgb(150,77,38)" transform="translate(0,0)"></path>
<path d="M 773.191 1484.74 C 782.914 1467.33 808.562 1473.44 809.393 1494.33 C 809.825 1505.21 812.449 1518.11 812.896 1529.22 C 819.316 1555.98 821.093 1581.79 824.234 1609.01 L 839.426 1739.14 C 842.338 1763.21 845.514 1799.69 849.467 1822.72 C 852.097 1817.57 854.71 1811.91 858.322 1807.45 L 860.21 1808.14 C 854.267 1817 849.58 1822.74 850.216 1833.44 C 850.162 1839.17 850.725 1839.32 849.363 1844.62 C 842.552 1778.93 835.074 1713.31 826.929 1647.78 C 824.892 1630.2 817.328 1552.5 812.671 1541.81 C 808.884 1540.19 810.4 1540.23 806.661 1540.99 C 800.801 1546.62 801.202 1569.84 800.649 1578.54 C 799.248 1597.85 797.992 1617.17 796.883 1636.5 L 795.365 1636.98 C 792.851 1627.93 801.934 1558.88 801.086 1544.56 C 800.855 1540.67 807.523 1540.01 811.095 1537.87 C 811.647 1528.25 807.342 1497.18 806.008 1486.18 C 797.915 1474.73 786.122 1473.17 776.345 1483.78 C 775.155 1484.71 774.875 1484.51 773.191 1484.74 z" fill="rgb(95,52,35)" transform="translate(0,0)"></path>
<path d="M 794.411 998.703 L 796.64 997.153 C 812.759 1002.19 828.387 1005.75 844.348 1011.95 C 858.798 1017.56 872.528 1024.22 886.464 1030.97 C 888.699 1026.23 896.004 1008.64 899.574 1007.18 C 896.045 1014.8 891.909 1024.34 888.11 1031.66 C 929.434 1054.51 959.821 1075.72 991.773 1111.44 L 989.675 1112.35 C 985.933 1106.37 969.78 1091.53 964.243 1086.45 C 963.743 1085.94 963.74 1085.88 963.102 1085.54 C 959.124 1081.89 954.382 1078 950.238 1074.44 C 949.63 1073.81 949.813 1073.94 949.116 1073.52 L 940.21 1066.44 C 939.625 1065.89 939.699 1065.89 939.003 1065.58 L 933.212 1061.42 C 932.645 1060.88 932.705 1060.86 932.032 1060.56 C 896.578 1034.55 837.535 1007.82 794.411 998.703 z" fill="rgb(71,37,24)" transform="translate(0,0)"></path>
<path d="M 1018.76 1145.43 C 1035.03 1167.65 1054.54 1204.31 1063.51 1230.35 C 1075.79 1265.97 1084.2 1304.08 1109.04 1334.54 L 1110.65 1337.49 L 1108.76 1338.17 L 1108.1 1336.83 C 1081.39 1305.64 1072.94 1260.72 1058.67 1223.65 C 1047.92 1195.72 1033.32 1171 1016.84 1146.13 L 1018.76 1145.43 z" fill="rgb(129,75,53)" transform="translate(0,0)"></path>
<path d="M 1109.04 1334.54 L 1110.65 1337.49 L 1108.76 1338.17 L 1108.1 1336.83 L 1109.04 1334.54 z" fill="rgb(71,37,24)" transform="translate(0,0)"></path>
<path d="M 950.88 1337.4 C 971.028 1344.99 982.387 1378.5 1000.52 1393.1 C 1009.77 1400.54 1020.24 1404.19 1026.84 1412.26 C 1027.3 1412.83 1027.35 1418.39 1027.35 1419.8 L 1024.9 1418.21 L 1024.48 1413.67 C 1023.63 1412.25 1023.64 1412.05 1023.29 1410.39 C 983.446 1388.58 990.101 1379.66 966.705 1353.07 L 965.747 1351.99 C 965.388 1351.41 965.422 1351.39 964.882 1350.97 C 963.079 1348.7 960.014 1345.68 957.935 1343.5 C 955.42 1341.19 953.284 1339.76 950.88 1337.4 z" fill="rgb(71,37,24)" transform="translate(0,0)"></path>
<path d="M 1023.29 1410.39 C 1024.8 1411.59 1024.59 1411.76 1024.48 1413.67 C 1023.63 1412.25 1023.64 1412.05 1023.29 1410.39 z" fill="rgb(129,75,53)" transform="translate(0,0)"></path>
<path d="M 1115.69 1344.45 C 1117.32 1346.03 1122.47 1353.72 1124.33 1356.13 L 1125.84 1358.32 L 1123.94 1359.08 L 1123.13 1357.74 C 1119.42 1353.18 1117.17 1349.72 1113.75 1345.15 L 1115.69 1344.45 z" fill="rgb(129,75,53)" transform="translate(0,0)"></path>
<path d="M 1123.13 1357.74 L 1124.33 1356.13 L 1125.84 1358.32 L 1123.94 1359.08 L 1123.13 1357.74 z" fill="rgb(71,37,24)" transform="translate(0,0)"></path>
<path d="M 1134.05 1372.92 L 1134.62 1370.32 C 1138.54 1375.52 1142.39 1380.1 1145.58 1385.79 L 1143.92 1385.9 C 1140.61 1381.66 1137.41 1377.12 1134.05 1372.92 z" fill="rgb(95,52,35)" transform="translate(0,0)"></path>
<path d="M 1128.73 1362.44 C 1130.85 1364.52 1132.84 1367.85 1134.62 1370.32 L 1134.05 1372.92 C 1131.41 1369.64 1129.25 1366.5 1126.74 1363.14 L 1128.73 1362.44 z" fill="rgb(129,75,53)" transform="translate(0,0)"></path>
<path d="M 1011.02 1137.99 L 1011.7 1135.36 C 1014.06 1138.73 1016.53 1141.97 1018.76 1145.43 L 1016.84 1146.13 C 1015.18 1143.23 1013.23 1140.5 1011.02 1137.99 z" fill="rgb(71,37,24)" transform="translate(0,0)"></path>
<path d="M 1110.65 1337.49 C 1111.89 1338.72 1112.61 1339.85 1113.8 1341.19 L 1115.69 1344.45 L 1113.75 1345.15 L 1113.07 1343.87 C 1111.45 1341.9 1110.27 1340.2 1108.76 1338.17 L 1110.65 1337.49 z" fill="rgb(129,75,53)" transform="translate(0,0)"></path>
<path d="M 1113.07 1343.87 L 1113.8 1341.19 L 1115.69 1344.45 L 1113.75 1345.15 L 1113.07 1343.87 z" fill="rgb(71,37,24)" transform="translate(0,0)"></path>
<path d="M 1125.84 1358.32 L 1127.11 1359.62 L 1128.73 1362.44 L 1126.74 1363.14 L 1126.06 1361.87 C 1125.2 1360.85 1124.67 1360.22 1123.94 1359.08 L 1125.84 1358.32 z" fill="rgb(129,75,53)" transform="translate(0,0)"></path>
<path d="M 1127.11 1359.62 L 1128.73 1362.44 L 1126.74 1363.14 L 1126.06 1361.87 L 1127.11 1359.62 z" fill="rgb(71,37,24)" transform="translate(0,0)"></path>
<path d="M 993.292 1113.11 C 994.891 1115.24 995.802 1116.15 997.676 1118.04 L 994.941 1117.94 C 993.779 1116.55 993.339 1116.04 992.022 1114.78 L 993.292 1113.11 z" fill="rgb(71,37,24)" transform="translate(0,0)"></path>
<path d="M 1002.67 1124.05 C 1003.16 1124.66 1003.64 1125.28 1004.11 1125.9 L 1002.53 1127.08 C 1001.59 1126.56 1001.13 1125.98 1000.58 1125.06 L 999.902 1123.96 L 1002.67 1124.05 z" fill="rgb(129,75,53)" transform="translate(0,0)"></path>
<path d="M 997.676 1118.04 L 999.136 1119.89 L 997.548 1121.09 C 996.59 1120.57 996.147 1119.98 995.601 1119.05 L 994.941 1117.94 L 997.676 1118.04 z" fill="rgb(129,75,53)" transform="translate(0,0)"></path>
<path d="M 1004.11 1125.9 C 1005.29 1127.51 1006.21 1128.59 1007.54 1130.06 L 1004.84 1129.99 C 1004.06 1128.99 1003.35 1128.05 1002.53 1127.08 L 1004.11 1125.9 z" fill="rgb(71,37,24)" transform="translate(0,0)"></path>
<path d="M 1006.58 1131.96 L 1008.03 1130.9 L 1010.85 1134.39 L 1008.75 1135.25 C 1008.08 1134.2 1007.33 1132.92 1006.58 1131.96 z" fill="rgb(71,37,24)" transform="translate(0,0)"></path>
<path d="M 991.773 1111.44 C 992.28 1112 992.786 1112.55 993.292 1113.11 L 992.022 1114.78 C 991.021 1113.82 990.546 1113.38 989.675 1112.35 L 991.773 1111.44 z" fill="rgb(150,77,38)" transform="translate(0,0)"></path>
<path d="M 1010.85 1134.39 C 1011.13 1134.71 1011.41 1135.04 1011.7 1135.36 L 1011.02 1137.99 C 1010.21 1137.05 1009.52 1136.23 1008.75 1135.25 L 1010.85 1134.39 z" fill="rgb(150,77,38)" transform="translate(0,0)"></path>
<path d="M 669.722 1578.32 C 669.953 1580.2 670.155 1580.2 669.211 1581.67 C 669.026 1579.82 668.804 1579.81 669.722 1578.32 z" fill="rgb(150,77,38)" transform="translate(0,0)"></path>
<path d="M 1007.54 1130.06 L 1008.03 1130.9 L 1006.58 1131.96 C 1005.58 1131.1 1005.57 1131.11 1004.84 1129.99 L 1007.54 1130.06 z" fill="rgb(129,75,53)" transform="translate(0,0)"></path>
<path d="M 747.28 183.913 C 789.804 104.09 896.397 50.2962 985.804 68.4012 C 1021.41 73.8552 1048.4 84.2188 1079.01 102.857 C 1084.58 106.146 1087.96 108.376 1093.14 112.226 C 1113.01 126.516 1132.63 146.778 1146.71 166.804 C 1187.34 221.145 1205 289.269 1195.89 356.505 C 1189.52 401.416 1177.84 421.603 1159 461.499 L 1119.07 546.207 L 1004.67 786.769 L 933.561 936.566 L 911.925 982.485 C 909.571 987.465 902.436 1002.91 899.574 1007.18 C 896.004 1008.64 888.699 1026.23 886.464 1030.97 C 872.528 1024.22 858.798 1017.56 844.348 1011.95 C 828.387 1005.75 812.759 1002.19 796.64 997.153 L 794.411 998.703 C 789.315 996.933 775.426 994.574 769.798 993.6 C 728.257 986.407 692.575 989.293 651.039 995.336 L 650.688 994.472 L 653.114 993.181 L 661.731 991.516 C 656.177 988.405 649.257 988.03 643.285 986.216 C 625.039 980.676 590.399 959.487 585.859 939.432 L 585.425 938.864 C 584.528 935.771 580.68 927.892 579.15 924.573 C 580.747 913.382 591.058 873.633 589.406 866.683 C 590.007 861.073 593.395 847.086 594.705 840.869 L 606.413 785.353 C 619.243 723.502 632.418 661.722 645.94 600.018 L 698.933 349.128 C 703.316 328.84 707.541 308.519 711.609 288.166 C 714.479 273.792 717.345 257.306 721.264 243.289 C 727.287 222.439 736.034 202.475 747.28 183.913 z" fill="rgb(222,124,83)" transform="translate(0,0)"></path>
<path d="M 853.063 972.75 C 861.078 969.856 867.011 961.609 870.212 954.029 C 878.025 935.527 884.455 916.349 891.15 897.406 C 902.195 865.669 913.594 834.057 925.345 802.575 C 968.071 688.066 1011.92 573.98 1056.89 460.334 C 1072.31 421.919 1087.51 383.417 1102.49 344.831 C 1109.69 326.5 1118.12 306.967 1124.29 288.496 C 1142.7 233.417 1130.89 166.871 1092.09 123.254 C 1082.87 112.893 1071.72 104.205 1061.4 94.9208 C 1066.15 97.4343 1074.24 102.603 1079.01 102.857 C 1084.58 106.146 1087.96 108.376 1093.14 112.226 C 1113.01 126.516 1132.63 146.778 1146.71 166.804 C 1187.34 221.145 1205 289.269 1195.89 356.505 C 1189.52 401.416 1177.84 421.603 1159 461.499 L 1119.07 546.207 L 1004.67 786.769 L 933.561 936.566 L 911.925 982.485 C 909.571 987.465 902.436 1002.91 899.574 1007.18 C 896.004 1008.64 888.699 1026.23 886.464 1030.97 C 872.528 1024.22 858.798 1017.56 844.348 1011.95 C 828.387 1005.75 812.759 1002.19 796.64 997.153 C 807.774 992.89 835.416 989.107 844.14 978.486 C 845.233 976.316 846.928 976.315 849.16 975.436 C 850.272 974.834 850.279 974.903 851.035 973.907 C 852.032 973.097 852.025 972.906 853.063 972.75 z" fill="rgb(150,77,38)" transform="translate(0,0)"></path>
<path d="M 1093.14 112.226 C 1113.01 126.516 1132.63 146.778 1146.71 166.804 C 1144.8 166.536 1144.49 166.466 1143.25 164.924 C 1130.86 149.551 1116.5 135.36 1102.34 121.537 C 1098.86 118.133 1094.25 117.278 1093.14 112.226 z" fill="rgb(129,75,53)" transform="translate(0,0)"></path>
<path d="M 844.14 978.486 C 845.233 976.316 846.928 976.315 849.16 975.436 C 847.249 977.324 846.878 978.368 844.14 978.486 z" fill="rgb(71,37,24)" transform="translate(0,0)"></path>
<path d="M 851.035 973.907 C 852.032 973.097 852.025 972.906 853.063 972.75 C 852.645 973.54 852.103 973.518 851.035 973.907 z" fill="rgb(71,37,24)" transform="translate(0,0)"></path>
<path d="M 982.774 69.8883 L 985.804 68.4012 C 1021.41 73.8552 1048.4 84.2188 1079.01 102.857 C 1074.24 102.603 1066.15 97.4343 1061.4 94.9208 C 1071.72 104.205 1082.87 112.893 1092.09 123.254 C 1130.89 166.871 1142.7 233.417 1124.29 288.496 C 1118.12 306.967 1109.69 326.5 1102.49 344.831 C 1087.51 383.417 1072.31 421.919 1056.89 460.334 C 1011.92 573.98 968.071 688.066 925.345 802.575 C 913.594 834.057 902.195 865.669 891.15 897.406 C 884.455 916.349 878.025 935.527 870.212 954.029 C 867.011 961.609 861.078 969.856 853.063 972.75 C 858.795 965.89 865.308 962.025 869.074 952.153 C 881.611 919.285 893.099 885.568 904.909 852.442 C 923.406 801.593 942.262 750.875 961.476 700.292 L 1054.1 461.952 L 1095.88 356.04 C 1109.16 322.191 1126.85 285.977 1129.95 249.678 C 1133.68 206.045 1120.91 159.76 1092.07 126.246 C 1064.53 93.732 1025.23 73.4647 982.774 69.8883 z" fill="rgb(71,37,24)" transform="translate(0,0)"></path>
<path d="M 747.28 183.913 C 789.804 104.09 896.397 50.2962 985.804 68.4012 L 982.774 69.8883 C 895.354 63.0796 826.296 85.8686 769.183 155.865 C 765.868 159.929 749.98 183.399 747.28 183.913 z" fill="rgb(150,77,38)" transform="translate(0,0)"></path>
<path d="M 585.859 939.432 C 590.98 945.975 595.861 953.684 601.839 959.535 C 617.477 974.841 642.911 986.26 664.526 989.05 C 677.639 990.742 695.375 987.985 709.018 987.436 C 721.359 986.939 729.931 987.46 742.282 988.342 C 743.288 988.403 743.1 988.35 744.007 988.776 C 754.125 989.282 769.836 991.743 780.223 993.553 C 803.191 997.555 823.17 987.032 844.14 978.486 C 835.416 989.107 807.774 992.89 796.64 997.153 L 794.411 998.703 C 789.315 996.933 775.426 994.574 769.798 993.6 C 728.257 986.407 692.575 989.293 651.039 995.336 L 650.688 994.472 L 653.114 993.181 L 661.731 991.516 C 656.177 988.405 649.257 988.03 643.285 986.216 C 625.039 980.676 590.399 959.487 585.859 939.432 z" fill="rgb(71,37,24)" transform="translate(0,0)"></path>
<path d="M 849.16 975.436 C 849.97 974.32 849.806 974.419 851.035 973.907 C 850.279 974.903 850.272 974.834 849.16 975.436 z" fill="rgb(71,37,24)" transform="translate(0,0)"></path>
<path d="M 999.136 1119.89 C 1000.39 1121.58 1001.24 1122.52 1002.67 1124.05 L 999.902 1123.96 C 999.113 1122.98 998.373 1122.05 997.548 1121.09 L 999.136 1119.89 z" fill="rgb(71,37,24)" transform="translate(0,0)"></path>
<metadata><recraft-signature>{"signed_by": "recraft", "signature_b64": "Zlfos5VYxCr5Kcmxh61Qm8rsiFcIvqBM3cYO86tcIKPFC8DObNFYmKtlUVsMXqhqIjl58406X72FNeb2MXy2Bw==", "signing_algo": "Ed25519", "generation_timestamp": 1779093124, "identifier": "6ccbcf77-122a-4c63-8ac9-53420827df97"}</recraft-signature></metadata></svg>