<svg xmlns="http://www.w3.org/2000/svg" height="1024" preserveAspectRatio="none" style="display: block;" version="1.1" viewBox="0 0 2048 2048" width="1024">
<path d="M 0 0 L 2048 0 L 2048 2048 L 0 2048 L 0 0 z" fill="rgb(255,255,255)" transform="translate(0,0)"></path>
<path d="M 583.729 920.46 C 552.424 924.839 521.168 929.562 489.967 934.628 C 440.61 942.587 396.126 957.192 352.602 923.147 C 285.684 870.802 316.234 802.086 329.319 733.277 C 334.384 705.89 338.049 678.263 340.3 650.503 C 345.158 586.231 334.995 529.141 323.652 466.268 C 319.149 441.31 310.794 407.306 312.178 383.296 C 315.112 332.381 359.147 287.3 409.687 282.07 C 435.343 279.415 468.343 286.974 493.974 290.774 C 527.232 295.477 560.447 300.481 593.615 305.784 C 637.323 312.558 678.803 319.493 723.192 318.783 C 784.173 318.108 842.675 301.63 898.534 278.072 C 917.936 269.89 935.159 259.168 955.372 252.417 C 1083.57 209.602 1227.84 230.093 1333.42 316.608 C 1354.93 334.234 1367.69 348.879 1386.87 368.384 L 1464.04 446.481 L 1561.14 545.349 C 1575.51 560.112 1591.05 574.581 1604.79 589.629 C 1648.96 637.998 1680.63 695.69 1703.88 756.66 C 1718.44 794.832 1730.86 836.275 1736.05 876.976 C 1740.48 911.752 1738.33 951.904 1738.47 987.34 C 1738.55 1007.57 1739.51 1041.2 1735.81 1059.47 C 1732.59 1075.54 1725.74 1090.66 1715.79 1103.69 C 1679.1 1151 1618.63 1157.35 1571.82 1120.64 C 1571.85 1166.62 1577.17 1205.93 1541.98 1241.08 C 1523.32 1260.07 1497.81 1270.78 1471.18 1270.79 C 1446.75 1270.71 1421.87 1259.73 1404.71 1242.46 C 1401.18 1238.89 1397.97 1235.02 1395.12 1230.9 C 1393.62 1262.74 1385.73 1285.69 1361.62 1308.07 C 1341.33 1326.9 1315.48 1336.48 1287.8 1334.98 C 1262.79 1333.81 1239.3 1322.59 1222.67 1303.86 C 1214 1294.06 1208.58 1284.09 1203.17 1272.27 L 1203.09 1588.76 L 1203.08 1673.11 C 1203.07 1718.39 1208.05 1753.5 1173 1788.43 C 1153.49 1807.68 1127.08 1818.31 1099.68 1817.96 C 1054.24 1817.77 1012.15 1787.14 1000.17 1743.49 C 994.017 1721.04 997.029 1684.01 996.61 1660.13 C 995.808 1614.47 998.254 1567.89 996.839 1522.28 C 995.096 1499.09 997.701 1319.7 994.762 1314.19 C 985.729 1335.96 969.632 1354.75 947.613 1363.54 C 918.989 1374.96 886.138 1371.04 864.168 1348.48 C 847.436 1331.31 831.335 1314.38 814.998 1297.17 L 737.44 1215.89 C 723.558 1201.25 709.601 1186.69 695.569 1172.19 C 682.566 1158.73 672.797 1149.65 661.554 1134.48 C 639.359 1104.94 621.838 1072.16 609.605 1037.29 C 595.533 996.552 589.393 962.971 583.729 920.46 z" fill="rgb(1,0,1)" transform="translate(0,0)"></path>
<path d="M 994.762 1314.19 L 995.659 1311.32 L 996.578 1312.01 C 997.572 1319.41 997.11 1334.69 997.091 1342.69 L 996.941 1399.2 L 997.033 1477.64 C 997.068 1491.43 997.572 1508.81 996.839 1522.28 C 995.096 1499.09 997.701 1319.7 994.762 1314.19 z" fill="rgb(179,169,167)" transform="translate(0,0)"></path>
<path d="M 1080.86 234.457 C 1177.72 230.241 1271.25 266.434 1343.98 329.528 C 1361.57 344.78 1380.53 366.114 1397.24 383.206 L 1483.67 471.077 L 1565.14 553.98 C 1585.07 574.242 1602.06 590.245 1620.13 612.742 C 1657.07 658.741 1683.07 709.709 1703.6 764.85 C 1718.48 804.834 1731.67 852.271 1734.57 894.958 C 1735.38 921.9 1736.1 949.968 1735.35 976.877 C 1734.62 1002.96 1737.84 1038.62 1731.69 1063.5 C 1727.65 1079.66 1719.79 1094.62 1708.77 1107.11 C 1671.84 1148.79 1613.85 1153.62 1571.83 1116.55 L 1571.7 950.26 C 1571.73 930.597 1573.01 882.158 1570.79 864.225 C 1567.27 871.942 1568.31 908.519 1568.3 918.88 L 1568.52 1074.07 C 1568.71 1096.39 1568.74 1118.72 1568.61 1141.04 C 1568.51 1157.28 1569.21 1179.19 1565.31 1194.36 C 1558.93 1219.14 1541.66 1241.52 1519.79 1254.5 C 1498.96 1267.09 1473.96 1270.85 1450.35 1264.95 C 1426.69 1258.9 1407.57 1245.52 1395.02 1224.56 L 1395.15 1008.41 L 1394.97 953.816 C 1394.93 944.284 1395.27 928.02 1393.68 919.127 C 1390 926.124 1391.76 1002.76 1391.79 1015.11 L 1391.68 1169.97 C 1391.66 1196.19 1394.6 1243.07 1386.06 1266.17 C 1376.67 1291.83 1357.3 1312.61 1332.36 1323.77 C 1309.22 1334.21 1280.54 1335.18 1257.51 1325.08 C 1195.78 1297.99 1200.9 1242.28 1202.28 1185.49 C 1202.6 1171.98 1202.32 1158.22 1202.33 1145.1 L 1202.11 993.747 C 1202.08 983.028 1203.36 947.303 1200.26 940.164 L 1199.44 940.831 C 1197.43 975.172 1198.94 1025.16 1198.95 1060.23 C 1198.37 1129.69 1198.68 1199.16 1199.87 1268.61 C 1201.71 1371.58 1200.08 1480.02 1200.01 1583.28 L 1199.98 1676.88 C 1199.97 1691.65 1200.69 1719.44 1198.44 1732.7 C 1195.17 1752.58 1185.84 1770.97 1171.72 1785.35 C 1152.79 1804.7 1127.02 1814.69 1100.08 1814.71 C 1073.1 1814.8 1047.22 1804.06 1028.25 1784.88 C 1008.41 1765 1000.21 1743.17 999.897 1715.5 C 999.623 1691.3 999.834 1667.06 999.886 1642.88 L 999.841 1491.5 C 999.564 1435.1 999.63 1378.7 1000.04 1322.3 C 1000.2 1305.5 1001.12 1288.94 1001.23 1272.06 C 1001.83 1161.64 1001.8 1051.22 1001.16 940.801 C 1000.9 915.032 993.904 893.856 974.928 875.533 C 958.21 859.369 935.743 850.529 912.493 850.967 C 889.465 851.42 867.562 861.012 851.612 877.628 C 827.482 902.949 826.742 928.014 827.052 960.57 C 827.281 976.069 827.623 991.567 828.077 1007.06 C 839.728 1020.13 853.687 1033.91 865.947 1046.64 C 888.859 1070.75 911.997 1094.65 935.358 1118.33 C 958.294 1141.88 999.384 1176.4 997.955 1210.18 C 995.888 1259.03 1008.93 1301.76 974.233 1340.73 C 981.8 1316.47 979.292 1294.28 961.257 1275.09 C 935.829 1248.02 900.821 1222.66 862.437 1220.94 C 828.398 1219.42 804.756 1233.83 780.408 1256.09 C 749.239 1224.42 719.434 1191.21 688.123 1159.68 C 631.331 1102.48 603.649 1027.97 591.3 949.753 C 572.58 834.944 590.662 717.155 642.957 613.247 C 653.813 591.947 665.417 573.101 678.814 553.462 C 682.613 547.894 702.338 523.209 703.43 520.754 L 702.602 519.574 C 693.392 521.904 657.177 581.201 651.019 592.126 C 609.236 667.045 585.357 750.615 581.249 836.299 C 580.062 864.185 581.417 889.598 583.31 917.292 C 529.184 924.58 474.673 935.375 420.446 941.773 C 396.404 944.609 365.031 930.825 347.277 914.663 C 293.113 865.357 318.897 804.721 330.64 744.052 C 338.002 705.256 343.762 664.286 344.928 625.062 C 347.244 547.18 324.232 471.018 315.481 394.294 C 312.536 368.324 327.307 336.349 345.456 317.429 C 390.963 269.987 441.088 286.427 498.116 294.582 C 532.984 299.509 567.807 304.744 602.582 310.287 C 673.137 320.915 738.014 328.916 808.399 311.434 C 840.847 302.283 881.466 291.3 911.229 275.668 C 967.788 245.961 1016.97 236.605 1080.86 234.457 z" fill="rgb(221,175,118)" transform="translate(0,0)"></path>
<path d="M 1094.1 1593.37 C 1114.41 1591.93 1133.74 1596.84 1150.31 1608.91 C 1169.04 1622.76 1181.42 1643.55 1184.69 1666.61 C 1193.33 1724.79 1174.78 1780.38 1110.2 1790.08 C 1087.67 1792.1 1066.89 1787.88 1048.83 1773.64 C 1030.68 1759.25 1019.02 1738.23 1016.41 1715.21 C 1009.53 1655.9 1027.12 1601.14 1094.1 1593.37 z" fill="rgb(1,0,1)" transform="translate(0,0)"></path>
<path d="M 1095.15 1596.39 C 1139.61 1593.59 1174.73 1623.74 1181.52 1667.34 C 1190.14 1722.69 1172.27 1778.27 1110.24 1786.95 C 1061.39 1790.41 1025.72 1762.46 1019.45 1712.83 C 1012.45 1657.33 1031.59 1601.82 1095.15 1596.39 z" fill="rgb(221,175,118)" transform="translate(0,0)"></path>
<path d="M 908.661 921.379 C 947.599 915.274 992.129 950.382 997.195 988.521 C 998.774 1000.41 998.365 1014.25 998.309 1026.29 L 998.013 1085.07 L 998.002 1150.5 C 998.002 1161.41 998.467 1177.4 997.378 1187.82 C 987.333 1166.83 982.205 1162.07 966.218 1145.33 C 951.153 1128.77 931.839 1110.12 915.991 1093.99 C 887.34 1064.94 859.147 1035.44 831.42 1005.5 C 833.87 958.528 861.613 927.373 908.661 921.379 z" fill="rgb(252,64,1)" transform="translate(0,0)"></path>
<path d="M 851.667 1224.39 C 892.655 1220.96 927.53 1246.41 955.27 1273.43 C 985.477 1302.84 983.53 1352.37 937.15 1363.66 C 926.028 1366.36 919.078 1366.38 907.597 1366.01 C 871.511 1360.52 859.41 1339.5 835.591 1314.23 L 782.49 1258.57 C 803.253 1238.35 822.814 1227.08 851.667 1224.39 z" fill="rgb(221,175,118)" transform="translate(0,0)"></path>
<path d="M 830.686 972.071 C 830.334 935.57 826.549 907.176 854.377 878.82 C 869.835 863.158 890.867 854.257 912.872 854.066 C 935.135 853.92 958.077 862.312 973.584 878.383 C 1000.47 906.248 998.328 931.488 997.929 966.882 L 997.804 977.023 C 986.693 951.457 974.162 935.196 947.164 924.354 C 925.409 915.486 900.972 915.907 879.536 925.522 C 858.43 934.758 842.396 952.955 833.677 974.054 C 832.635 973.384 831.698 972.791 830.686 972.071 z" fill="rgb(248,146,101)" transform="translate(0,0)"></path>
<path d="M 830.686 972.071 C 831.698 972.791 832.635 973.384 833.677 974.054 C 833.105 975.439 832.473 978.25 831.443 979.189 L 831.316 979.167 C 830.528 978.086 830.713 973.507 830.686 972.071 z" fill="rgb(227,141,94)" transform="translate(0,0)"></path>
<metadata><recraft-signature>{"signed_by": "recraft", "signature_b64": "u7zCDCSUjIzJPQaXqrw2kFFB+Y3DyNpNujDINOBulPfjhbtYLT3OpUb0ziqLb/Lrq6CCKlnsECFLnemxL866AQ==", "signing_algo": "Ed25519", "generation_timestamp": 1779100805, "identifier": "77cc211a-434a-45b9-88ff-636bd97c68aa"}</recraft-signature></metadata></svg>