<svg xmlns="http://www.w3.org/2000/svg" height="1280" preserveAspectRatio="none" style="display: block;" version="1.1" viewBox="0 0 1331 2048" width="832">
<path d="M 0 0 L 1331 0 L 1331 2048 L 0 2048 L 0 0 z" fill="rgb(255,255,255)" transform="translate(0,0)"></path>
<path d="M 630.598 211.033 C 650.139 197.931 667.74 195.506 690.888 199.958 C 756.34 212.554 790.545 281.462 792.48 342.936 C 793.134 357.401 793.478 371.707 795.045 386.125 C 797.736 410.887 809.333 453.74 841.174 450.851 C 847.366 450.289 855.21 443.432 859.528 439.246 C 860.391 446.741 861.397 453.692 860.65 461.225 C 855.816 509.936 813.545 539.311 769.098 514.702 C 767.76 519.182 766.264 524.735 764.511 528.96 C 816.519 541.271 861.459 572.169 889.461 618.073 C 898.189 632.534 905.689 647.739 913.78 662.561 C 950.603 730.015 978.657 801.598 1012.09 870.687 C 1016.3 879.395 1022.62 891.026 1022.18 901.244 C 1021.43 918.491 1004.27 927.458 993.649 938.19 C 993.072 938.773 993.836 941.895 993.967 942.709 L 992.975 942.633 L 991.017 940.266 C 987.157 940.777 966.553 951.784 961.101 954.126 C 950.438 958.705 944.794 961.103 932.943 963.851 C 936.898 977.734 944.793 1005.36 950.167 1017.79 C 945.655 1022.37 939.234 1029.18 934.269 1033 C 936.568 1027.48 943.049 1021.47 947.373 1017.16 C 941.477 999.854 936.078 981.663 930.777 964.157 C 903.425 964.252 898.569 949.74 891.315 926.544 C 887.842 915.438 883.589 899.605 879.223 888.947 C 859.844 841.641 842.182 788.665 815.846 744.722 C 817.627 794.487 821.279 826.269 833.414 874.764 C 838.56 894.827 844.784 914.598 852.058 933.992 C 866.644 973.169 883.766 998.636 839.902 1026.76 C 866.161 1103.96 851.259 1165.49 848.711 1243.9 C 847.406 1285.16 849.673 1326.46 855.487 1367.34 C 860.645 1405.45 868.255 1440.4 876.672 1478.07 C 882.986 1506.33 898.359 1546.55 885.436 1574.07 C 880.27 1585.07 866.384 1598.27 855.157 1602.71 C 852.758 1605.19 846.308 1607.87 842.983 1608.75 C 839.007 1608.19 823.696 1614.28 818.54 1615.38 C 779.48 1623.68 737.807 1621.29 703.217 1601.46 L 701.899 1603 C 692.801 1597.09 690.985 1596.18 683.426 1587.69 L 682.237 1586.39 C 682.601 1585.72 683.846 1614.96 682.654 1621.33 C 679.32 1643.3 661.167 1657.73 643.023 1667.99 L 642.589 1666.54 C 598.249 1687.48 506.682 1693.87 463.831 1667.29 L 462.944 1669 C 453.908 1664.08 445.29 1658.29 440.013 1649.2 C 438.485 1648.42 438.062 1646.82 437.294 1645.17 C 436.158 1643.62 435.156 1641.99 434.298 1640.27 C 423.84 1619.59 435.876 1591.14 442.17 1570.43 C 448.435 1550.18 454.157 1529.76 459.332 1509.2 C 476.225 1440 491.666 1360.49 495.403 1289.1 C 500.087 1199.6 481.898 1139.16 512.198 1049.41 C 499.853 1042.84 487.685 1032.49 483.132 1018.85 C 482.476 1016.89 480.581 1010.16 480.957 1008.32 C 496.511 932.202 519.977 854.125 517.365 775.687 C 510.608 787.612 504.653 804.457 500.134 817.442 C 480.487 873.896 471.663 933.857 462.804 992.768 C 460.074 1010.93 449.04 1017.95 431.621 1021.06 C 428.284 1035.41 425.494 1058.82 423.267 1074.07 C 426.062 1075.45 429.058 1077.18 431.821 1078.68 C 433.227 1079.59 435.995 1081.25 437.216 1082.22 C 444.932 1088.06 450.318 1092.9 454.767 1101.83 C 456.169 1103.53 455.961 1102.91 456.644 1104.88 C 463.22 1117.08 467.08 1135.38 463.785 1149.43 C 461.904 1157.45 453.621 1163.58 445.294 1160.52 C 438.681 1158.09 435.652 1149.32 432.912 1143.56 C 430.933 1139.52 428.451 1129.88 422.366 1132.37 C 415.188 1135.3 413.69 1148.07 416.489 1154.22 C 424.082 1170.9 457.36 1167.49 451.31 1191.51 C 450.075 1196.38 445.168 1201.09 440.654 1203.09 C 424.191 1210.36 403.409 1210.14 386.664 1204.16 C 371.058 1198.58 360.055 1189.88 351.291 1176.17 C 350.993 1175.81 349.706 1173.51 349.382 1172.95 C 340.219 1156.96 337.982 1131.93 345.664 1114.99 C 347.18 1108.98 350.305 1103.18 353.354 1097.85 C 356.227 1091.37 362.544 1084.21 367.181 1078.73 C 364.832 1057.69 362.841 1029.1 365.821 1008.13 C 331.976 993.858 324.436 983.054 334.831 948.535 C 362.818 855.597 383.287 753.049 427.287 666.069 C 459.7 598.405 493.127 569.372 561.407 542.74 C 559.288 539.458 557.184 536.521 555.831 532.852 C 554.561 530.727 554.074 528.555 551.425 528.442 C 534.553 549.769 488.94 534.81 476.004 514.383 C 464.406 496.072 461.13 487.941 463.588 466.168 C 465.438 468.557 468.376 472.427 469.996 474.955 C 493.457 483.215 503.554 464.227 510.28 444.953 C 521.653 412.369 513.28 380.381 511.014 347.282 C 508.725 298.685 533.352 238.993 579.527 217.614 C 598.17 208.982 609.92 205.588 630.598 211.033 z" fill="rgb(252,205,10)" transform="translate(0,0)"></path>
<path d="M 365.821 1008.13 C 331.976 993.858 324.436 983.054 334.831 948.535 C 362.818 855.597 383.287 753.049 427.287 666.069 L 428.155 667.154 C 383.981 760.282 360.769 863.761 332.889 962.568 C 327.22 982.658 342.434 996.519 360.353 1003.87 C 382.562 1012.97 444.458 1033.76 457.949 1002.97 C 463.991 989.18 464.81 962.602 468.273 947.398 C 477.31 894.361 492.083 817.229 518.344 770.103 C 521.789 827.973 509.077 883.875 497.814 940.394 C 493.773 964.761 482.332 990.069 483.457 1014.76 C 483.735 1020.87 493.196 1033.77 497.953 1037.35 C 579.114 1098.42 760.431 1078.73 839.398 1025.63 L 839.902 1026.76 C 866.161 1103.96 851.259 1165.49 848.711 1243.9 C 847.406 1285.16 849.673 1326.46 855.487 1367.34 C 860.645 1405.45 868.255 1440.4 876.672 1478.07 C 882.986 1506.33 898.359 1546.55 885.436 1574.07 C 880.27 1585.07 866.384 1598.27 855.157 1602.71 C 852.758 1605.19 846.308 1607.87 842.983 1608.75 C 839.007 1608.19 823.696 1614.28 818.54 1615.38 C 779.48 1623.68 737.807 1621.29 703.217 1601.46 L 701.899 1603 C 692.801 1597.09 690.985 1596.18 683.426 1587.69 L 682.237 1586.39 C 682.601 1585.72 683.846 1614.96 682.654 1621.33 C 679.32 1643.3 661.167 1657.73 643.023 1667.99 L 642.589 1666.54 C 598.249 1687.48 506.682 1693.87 463.831 1667.29 L 462.944 1669 C 453.908 1664.08 445.29 1658.29 440.013 1649.2 C 438.485 1648.42 438.062 1646.82 437.294 1645.17 C 436.158 1643.62 435.156 1641.99 434.298 1640.27 C 423.84 1619.59 435.876 1591.14 442.17 1570.43 C 448.435 1550.18 454.157 1529.76 459.332 1509.2 C 476.225 1440 491.666 1360.49 495.403 1289.1 C 500.087 1199.6 481.898 1139.16 512.198 1049.41 C 499.853 1042.84 487.685 1032.49 483.132 1018.85 C 482.476 1016.89 480.581 1010.16 480.957 1008.32 C 496.511 932.202 519.977 854.125 517.365 775.687 C 510.608 787.612 504.653 804.457 500.134 817.442 C 480.487 873.896 471.663 933.857 462.804 992.768 C 460.074 1010.93 449.04 1017.95 431.621 1021.06 C 428.284 1035.41 425.494 1058.82 423.267 1074.07 C 426.062 1075.45 429.058 1077.18 431.821 1078.68 C 433.227 1079.59 435.995 1081.25 437.216 1082.22 C 444.932 1088.06 450.318 1092.9 454.767 1101.83 C 456.169 1103.53 455.961 1102.91 456.644 1104.88 C 463.22 1117.08 467.08 1135.38 463.785 1149.43 C 461.904 1157.45 453.621 1163.58 445.294 1160.52 C 438.681 1158.09 435.652 1149.32 432.912 1143.56 C 430.933 1139.52 428.451 1129.88 422.366 1132.37 C 415.188 1135.3 413.69 1148.07 416.489 1154.22 C 424.082 1170.9 457.36 1167.49 451.31 1191.51 C 450.075 1196.38 445.168 1201.09 440.654 1203.09 C 424.191 1210.36 403.409 1210.14 386.664 1204.16 C 371.058 1198.58 360.055 1189.88 351.291 1176.17 C 350.993 1175.81 349.706 1173.51 349.382 1172.95 C 340.219 1156.96 337.982 1131.93 345.664 1114.99 C 347.18 1108.98 350.305 1103.18 353.354 1097.85 C 356.227 1091.37 362.544 1084.21 367.181 1078.73 C 364.832 1057.69 362.841 1029.1 365.821 1008.13 z" fill="rgb(84,149,216)" transform="translate(0,0)"></path>
<path d="M 366.794 1008.47 C 382.19 1013 397.936 1018.42 414.166 1019.36 C 419.803 1019.69 423.024 1019.99 428.505 1021.34 C 434.424 1032.98 410.087 1078.48 431.821 1078.68 C 433.227 1079.59 435.995 1081.25 437.216 1082.22 C 444.932 1088.06 450.318 1092.9 454.767 1101.83 C 456.169 1103.53 455.961 1102.91 456.644 1104.88 C 463.22 1117.08 467.08 1135.38 463.785 1149.43 C 461.904 1157.45 453.621 1163.58 445.294 1160.52 C 438.681 1158.09 435.652 1149.32 432.912 1143.56 C 430.933 1139.52 428.451 1129.88 422.366 1132.37 C 415.188 1135.3 413.69 1148.07 416.489 1154.22 C 424.082 1170.9 457.36 1167.49 451.31 1191.51 C 450.075 1196.38 445.168 1201.09 440.654 1203.09 C 424.191 1210.36 403.409 1210.14 386.664 1204.16 C 371.058 1198.58 360.055 1189.88 351.291 1176.17 C 350.993 1175.81 349.706 1173.51 349.382 1172.95 C 340.219 1156.96 337.982 1131.93 345.664 1114.99 C 347.18 1108.98 350.305 1103.18 353.354 1097.85 C 356.795 1096.5 362.571 1087.47 365.122 1084.49 C 369.283 1079.64 368.964 1077.21 368.624 1071.19 C 368.652 1070.27 368.785 1070.07 368.271 1069.43 C 363.303 1051 366.952 1027 366.794 1008.47 z" fill="rgb(165,111,88)" transform="translate(0,0)"></path>
<path d="M 413.869 1152.98 C 413.59 1144.74 412.663 1132.16 422.974 1129.87 C 438.461 1131.6 432.284 1158.87 450.075 1158.66 C 476.032 1158.36 456.113 1114.45 456.644 1104.88 C 463.22 1117.08 467.08 1135.38 463.785 1149.43 C 461.904 1157.45 453.621 1163.58 445.294 1160.52 C 438.681 1158.09 435.652 1149.32 432.912 1143.56 C 430.933 1139.52 428.451 1129.88 422.366 1132.37 C 415.188 1135.3 413.69 1148.07 416.489 1154.22 C 424.082 1170.9 457.36 1167.49 451.31 1191.51 C 450.075 1196.38 445.168 1201.09 440.654 1203.09 C 424.191 1210.36 403.409 1210.14 386.664 1204.16 C 371.058 1198.58 360.055 1189.88 351.291 1176.17 C 359.819 1178.02 365.61 1202.53 405.983 1206.29 C 408.587 1206.01 413.055 1205.9 415.633 1206.15 C 431.891 1205.63 466.734 1193.74 443.995 1175.43 C 431.087 1165.03 424.833 1171.29 413.869 1152.98 z" fill="rgb(107,62,31)" transform="translate(0,0)"></path>
<path d="M 405.983 1206.29 C 408.587 1206.01 413.055 1205.9 415.633 1206.15 C 413.406 1207.28 408.331 1207.01 405.983 1206.29 z" fill="rgb(151,104,79)" transform="translate(0,0)"></path>
<path d="M 345.664 1114.99 C 346.422 1116.28 346.542 1116.41 346.089 1117.93 C 341.76 1132.49 341.62 1149.46 347.071 1163.74 C 348.254 1166.83 349.54 1169.7 349.382 1172.95 C 340.219 1156.96 337.982 1131.93 345.664 1114.99 z" fill="rgb(76,51,52)" transform="translate(0,0)"></path>
<path d="M 437.216 1082.22 C 444.932 1088.06 450.318 1092.9 454.767 1101.83 C 451.641 1099.68 437.81 1085.5 437.216 1082.22 z" fill="rgb(107,62,31)" transform="translate(0,0)"></path>
<path d="M 677.381 1185.26 L 678.062 1188.93 C 687.297 1251.03 692.952 1308.74 688.347 1371.54 C 684.466 1424.49 680.119 1477.14 674.165 1529.91 C 671.515 1512.91 669.182 1495.86 667.167 1478.78 C 656.325 1391.45 649.934 1313.63 668.153 1226.45 C 670.116 1217.06 673.992 1193.34 677.381 1185.26 z" fill="rgb(255,255,255)" transform="translate(0,0)"></path>
<path d="M 365.821 1008.13 C 331.976 993.858 324.436 983.054 334.831 948.535 C 362.818 855.597 383.287 753.049 427.287 666.069 L 428.155 667.154 C 383.981 760.282 360.769 863.761 332.889 962.568 C 327.22 982.658 342.434 996.519 360.353 1003.87 C 382.562 1012.97 444.458 1033.76 457.949 1002.97 C 463.991 989.18 464.81 962.602 468.273 947.398 C 477.31 894.361 492.083 817.229 518.344 770.103 C 521.789 827.973 509.077 883.875 497.814 940.394 C 493.773 964.761 482.332 990.069 483.457 1014.76 C 483.735 1020.87 493.196 1033.77 497.953 1037.35 C 579.114 1098.42 760.431 1078.73 839.398 1025.63 L 839.902 1026.76 C 866.161 1103.96 851.259 1165.49 848.711 1243.9 C 847.406 1285.16 849.673 1326.46 855.487 1367.34 C 860.645 1405.45 868.255 1440.4 876.672 1478.07 C 882.986 1506.33 898.359 1546.55 885.436 1574.07 C 880.27 1585.07 866.384 1598.27 855.157 1602.71 C 856.827 1600.32 871.942 1588.91 875.684 1584.59 C 887.014 1571.51 889.006 1564.41 888.8 1547.29 C 888.636 1533.58 884.545 1520.38 881.399 1507.09 L 870.121 1458.62 C 858.931 1408.66 847.643 1343 846.715 1291.46 C 846.802 1284.96 846.819 1278.46 846.768 1271.95 L 846.748 1261.29 C 846.84 1255.37 846.829 1249.44 846.714 1243.52 C 846.769 1236.47 847.395 1228.62 847.975 1221.57 C 851.278 1181.34 853.114 1142.22 852.632 1101.83 C 852.529 1100.4 852.655 1100.53 852.113 1099.37 C 851.926 1090.4 850.812 1080.95 849.544 1072.06 C 849.345 1070.95 849.422 1071.51 849.315 1070.36 C 846.263 1053.96 843.674 1044.12 838.335 1028.32 C 772.585 1071.43 645.302 1086.89 569.11 1069.74 C 547.586 1064.89 533.819 1059.89 513.839 1050.75 C 488.38 1125.46 497.994 1175.99 498.281 1250.07 C 498.368 1283.63 496.143 1317.15 491.62 1350.4 C 484.29 1407.52 473.27 1464.1 458.627 1519.79 C 454.078 1536.84 449.225 1553.82 444.073 1570.7 C 439.795 1584.63 434.597 1599.33 432.377 1613.73 C 430.585 1625.35 435.002 1634.68 437.294 1645.17 C 436.158 1643.62 435.156 1641.99 434.298 1640.27 C 423.84 1619.59 435.876 1591.14 442.17 1570.43 C 448.435 1550.18 454.157 1529.76 459.332 1509.2 C 476.225 1440 491.666 1360.49 495.403 1289.1 C 500.087 1199.6 481.898 1139.16 512.198 1049.41 C 499.853 1042.84 487.685 1032.49 483.132 1018.85 C 482.476 1016.89 480.581 1010.16 480.957 1008.32 C 496.511 932.202 519.977 854.125 517.365 775.687 C 510.608 787.612 504.653 804.457 500.134 817.442 C 480.487 873.896 471.663 933.857 462.804 992.768 C 460.074 1010.93 449.04 1017.95 431.621 1021.06 C 428.284 1035.41 425.494 1058.82 423.267 1074.07 C 426.062 1075.45 429.058 1077.18 431.821 1078.68 C 410.087 1078.48 434.424 1032.98 428.505 1021.34 C 423.024 1019.99 419.803 1019.69 414.166 1019.36 C 397.936 1018.42 382.19 1013 366.794 1008.47 C 366.952 1027 363.303 1051 368.271 1069.43 C 368.785 1070.07 368.652 1070.27 368.624 1071.19 C 368.964 1077.21 369.283 1079.64 365.122 1084.49 C 362.571 1087.47 356.795 1096.5 353.354 1097.85 C 356.227 1091.37 362.544 1084.21 367.181 1078.73 C 364.832 1057.69 362.841 1029.1 365.821 1008.13 z" fill="rgb(63,99,140)" transform="translate(0,0)"></path>
<path d="M 368.271 1069.43 C 368.785 1070.07 368.652 1070.27 368.624 1071.19 C 368.061 1070.27 368.057 1070.43 368.271 1069.43 z" fill="rgb(151,104,79)" transform="translate(0,0)"></path>
<path d="M 679.677 1187.34 C 697.421 1289.61 692.44 1356.54 683.431 1458.53 C 681.87 1476.27 680.027 1493.99 677.901 1511.68 C 675.227 1534.59 668.612 1568.72 685.889 1587.34 L 683.426 1587.69 L 682.237 1586.39 C 682.601 1585.72 683.846 1614.96 682.654 1621.33 C 681.888 1619.04 681.505 1618.56 681.49 1616.25 C 683.429 1592.38 676.923 1581.78 672.519 1559.66 C 671.462 1554.35 672.911 1539.96 672.206 1533.38 C 670.27 1515.31 667.553 1497.27 665.376 1479.22 L 667.167 1478.78 C 669.182 1495.86 671.515 1512.91 674.165 1529.91 C 680.119 1477.14 684.466 1424.49 688.347 1371.54 C 692.952 1308.74 687.297 1251.03 678.062 1188.93 L 679.677 1187.34 z" fill="rgb(63,99,140)" transform="translate(0,0)"></path>
<path d="M 665.376 1479.22 C 663.9 1474.79 660.093 1435.82 659.43 1429.5 C 653.144 1369.63 651.948 1309.52 661.816 1249.96 C 665.592 1227.18 671.456 1204.39 675.09 1181.83 C 676.176 1183.19 676.501 1183.76 677.381 1185.26 C 673.992 1193.34 670.116 1217.06 668.153 1226.45 C 649.934 1313.63 656.325 1391.45 667.167 1478.78 L 665.376 1479.22 z" fill="rgb(63,99,140)" transform="translate(0,0)"></path>
<path d="M 681.49 1616.25 C 681.505 1618.56 681.888 1619.04 682.654 1621.33 C 679.32 1643.3 661.167 1657.73 643.023 1667.99 L 642.589 1666.54 C 646.272 1662.49 654.13 1659.23 658.311 1655.5 C 666.7 1648.03 673.677 1640.84 678.328 1630.42 C 680.73 1625.04 679.876 1620.29 681.49 1616.25 z" fill="rgb(71,127,180)" transform="translate(0,0)"></path>
<path d="M 440.013 1649.2 C 445.012 1652.48 448.102 1656.26 452.437 1660.31 C 455.604 1663.26 461.056 1664.73 463.831 1667.29 L 462.944 1669 C 453.908 1664.08 445.29 1658.29 440.013 1649.2 z" fill="rgb(71,127,180)" transform="translate(0,0)"></path>
<path d="M 685.889 1587.34 C 690.982 1591.96 695.12 1597.77 702.052 1600.37 C 702.638 1600.59 702.864 1600.98 703.217 1601.46 L 701.899 1603 C 692.801 1597.09 690.985 1596.18 683.426 1587.69 L 685.889 1587.34 z" fill="rgb(63,99,140)" transform="translate(0,0)"></path>
<path d="M 675.09 1181.83 C 678.899 1176.45 678.581 1182.96 679.677 1187.34 L 678.062 1188.93 L 677.381 1185.26 C 676.501 1183.76 676.176 1183.19 675.09 1181.83 z" fill="rgb(28,17,14)" transform="translate(0,0)"></path>
<path d="M 846.768 1271.95 C 846.819 1278.46 846.802 1284.96 846.715 1291.46 C 845.296 1284.16 845.572 1279.26 846.768 1271.95 z" fill="rgb(71,127,180)" transform="translate(0,0)"></path>
<path d="M 846.748 1261.29 C 845.549 1254.52 845.378 1250.32 846.714 1243.52 C 846.829 1249.44 846.84 1255.37 846.748 1261.29 z" fill="rgb(71,127,180)" transform="translate(0,0)"></path>
<path d="M 852.113 1099.37 C 852.655 1100.53 852.529 1100.4 852.632 1101.83 C 852.073 1100.7 852.152 1100.68 852.113 1099.37 z" fill="rgb(71,127,180)" transform="translate(0,0)"></path>
<path d="M 630.598 211.033 C 650.139 197.931 667.74 195.506 690.888 199.958 C 756.34 212.554 790.545 281.462 792.48 342.936 C 793.134 357.401 793.478 371.707 795.045 386.125 C 797.736 410.887 809.333 453.74 841.174 450.851 C 847.366 450.289 855.21 443.432 859.528 439.246 C 860.391 446.741 861.397 453.692 860.65 461.225 C 855.816 509.936 813.545 539.311 769.098 514.702 C 767.76 519.182 766.264 524.735 764.511 528.96 C 816.519 541.271 861.459 572.169 889.461 618.073 C 898.189 632.534 905.689 647.739 913.78 662.561 C 950.603 730.015 978.657 801.598 1012.09 870.687 C 1016.3 879.395 1022.62 891.026 1022.18 901.244 C 1021.43 918.491 1004.27 927.458 993.649 938.19 C 993.072 938.773 993.836 941.895 993.967 942.709 L 992.975 942.633 L 991.017 940.266 C 987.157 940.777 966.553 951.784 961.101 954.126 C 950.438 958.705 944.794 961.103 932.943 963.851 L 931.837 962.095 C 957.674 956.175 1010.28 933.807 1019.84 905.42 C 1023.15 895.588 1010.52 871.665 1005.94 861.821 L 984.979 816.399 C 955.195 750.713 927.28 686.793 890.974 624.066 C 861.955 573.928 819.334 544.962 763.933 530.461 C 753.721 545.206 740.234 554.804 722.606 559.119 C 717.652 560.332 705.957 561.14 701.253 559.36 C 683.342 557.701 672.825 549.353 662.679 535.332 C 659.747 540.417 659.256 542.038 655.439 546.716 C 638.163 568.969 592.169 568.517 570.855 551.791 C 567.893 549.436 565.138 546.831 562.622 544.005 C 486.435 574.25 467.332 596.424 428.155 667.154 L 427.287 666.069 C 459.7 598.405 493.127 569.372 561.407 542.74 C 559.288 539.458 557.184 536.521 555.831 532.852 C 554.561 530.727 554.074 528.555 551.425 528.442 C 534.553 549.769 488.94 534.81 476.004 514.383 C 464.406 496.072 461.13 487.941 463.588 466.168 C 465.438 468.557 468.376 472.427 469.996 474.955 C 493.457 483.215 503.554 464.227 510.28 444.953 C 521.653 412.369 513.28 380.381 511.014 347.282 C 508.725 298.685 533.352 238.993 579.527 217.614 C 598.17 208.982 609.92 205.588 630.598 211.033 z" fill="rgb(107,62,31)" transform="translate(0,0)"></path>
<path d="M 655.439 546.716 C 655.411 548.043 663.055 525.246 661.57 527.282 C 662.925 526.744 663.046 529.244 663.208 529.961 C 664.966 537.736 672.436 544.968 678.675 549.568 C 685.027 554.251 695.34 557.047 703.058 558.544 C 702.42 558.925 701.932 559.084 701.253 559.36 C 683.342 557.701 672.825 549.353 662.679 535.332 C 659.747 540.417 659.256 542.038 655.439 546.716 z" fill="rgb(28,17,14)" transform="translate(0,0)"></path>
<path d="M 551.425 528.442 C 550.835 527.482 552.354 522.705 552.603 522.574 C 554.012 523.494 555.748 530.798 555.831 532.852 C 554.561 530.727 554.074 528.555 551.425 528.442 z" fill="rgb(28,17,14)" transform="translate(0,0)"></path>
<path d="M 463.588 466.168 C 465.438 468.557 468.376 472.427 469.996 474.955 C 466.108 476.824 463.85 469.129 463.588 466.168 z" fill="rgb(28,17,14)" transform="translate(0,0)"></path>
<path d="M 817.81 743.449 C 840.317 789.867 861.231 833.843 878.456 882.654 C 886.269 904.793 892.535 927.565 901.773 949.014 C 907.089 960.376 920.789 962.285 931.837 962.095 L 932.943 963.851 C 936.898 977.734 944.793 1005.36 950.167 1017.79 C 945.655 1022.37 939.234 1029.18 934.269 1033 C 936.568 1027.48 943.049 1021.47 947.373 1017.16 C 941.477 999.854 936.078 981.663 930.777 964.157 C 903.425 964.252 898.569 949.74 891.315 926.544 C 887.842 915.438 883.589 899.605 879.223 888.947 C 859.844 841.641 842.182 788.665 815.846 744.722 C 817.627 794.487 821.279 826.269 833.414 874.764 C 838.56 894.827 844.784 914.598 852.058 933.992 C 866.644 973.169 883.766 998.636 839.902 1026.76 L 839.398 1025.63 C 888.181 989.446 857.683 962.319 843.76 915.253 C 829.698 867.717 814.761 813.97 814.925 764.107 C 813.913 758.761 813.898 756.381 813.97 750.945 C 814.024 749.081 813.547 746.008 813.303 744.036 C 814.729 743.873 816.413 743.725 817.81 743.449 z" fill="rgb(107,62,31)" transform="translate(0,0)"></path>
<path d="M 813.97 750.945 C 815.375 756.716 815.294 758.148 814.925 764.107 C 813.913 758.761 813.898 756.381 813.97 750.945 z" fill="rgb(178,138,12)" transform="translate(0,0)"></path>
<path d="M 813.303 744.036 C 814.235 738.784 814.363 737.151 817.334 742.664 L 817.81 743.449 C 816.413 743.725 814.729 743.873 813.303 744.036 z" fill="rgb(28,17,14)" transform="translate(0,0)"></path>
<path d="M 463.831 1667.29 C 506.682 1693.87 598.249 1687.48 642.589 1666.54 L 643.023 1667.99 C 641.104 1668.95 638.14 1670.28 636.553 1671.54 C 632.629 1696.16 630.15 1721.26 626.002 1745.84 C 640.011 1765.66 630.082 1773.67 636.193 1792.29 C 644.448 1817.45 674.637 1883.92 638.167 1901.48 C 618.102 1913.12 580.387 1913.98 558.356 1907.42 C 549.428 1904.78 541.06 1900.53 533.667 1894.87 C 518.786 1883.55 509.073 1867.02 494.874 1854.87 C 486.74 1847.67 468.737 1839.89 464.276 1829.69 C 450.013 1797.09 469.884 1757.74 506.192 1753.11 C 517.601 1751.66 524.704 1753.45 534.897 1756.78 L 538.026 1752.54 C 540.926 1749.61 543.892 1748.51 547.608 1746.76 C 544.105 1727.75 541.604 1705.5 538.881 1686.07 C 511.534 1686.12 487.672 1680.14 462.944 1669 L 463.831 1667.29 z" fill="rgb(216,128,151)" transform="translate(0,0)"></path>
<path d="M 638.167 1901.48 C 618.102 1913.12 580.387 1913.98 558.356 1907.42 C 549.428 1904.78 541.06 1900.53 533.667 1894.87 C 518.786 1883.55 509.073 1867.02 494.874 1854.87 C 486.74 1847.67 468.737 1839.89 464.276 1829.69 C 450.013 1797.09 469.884 1757.74 506.192 1753.11 C 517.601 1751.66 524.704 1753.45 534.897 1756.78 L 536.545 1757.08 C 534.179 1767.69 535.379 1773.31 536.974 1783.83 C 529.668 1796.54 528.752 1799.69 529.192 1814.4 C 518.415 1824.8 518.931 1829.63 516.932 1844.42 L 513.325 1846.74 L 514.14 1847.57 C 520.026 1853.59 524.702 1860.42 530.351 1866.51 C 544.323 1881.58 566.449 1886.09 586.246 1886.3 C 608.628 1886.53 636.421 1883.84 652.114 1866.18 L 652.85 1865.36 C 653.101 1878.57 652.751 1891.19 639.864 1898.58 L 638.167 1901.48 z" fill="rgb(216,128,151)" transform="translate(0,0)"></path>
<path d="M 518.338 1754.64 C 524.471 1755.69 528.035 1756.57 534.008 1758.35 C 532.694 1766.91 533.634 1774.65 535.063 1783.15 C 528.636 1795.02 527.09 1799.73 526.948 1813.59 C 516.747 1824.73 516.279 1830.95 515.32 1846.11 C 502.736 1834.8 489.838 1827.54 477.25 1817.41 L 475.049 1817.96 C 473.059 1815.84 471.172 1813.86 468.988 1811.93 L 469.904 1810.12 C 467.274 1806.75 464.742 1803.14 462.237 1799.66 C 467.654 1773.83 480.016 1759.8 506.739 1754.84 C 511.041 1754.97 514.054 1754.95 518.338 1754.64 z" fill="rgb(216,128,151)" transform="translate(0,0)"></path>
<path d="M 469.904 1810.12 C 472.176 1812.72 474.631 1815.16 477.25 1817.41 L 475.049 1817.96 C 473.059 1815.84 471.172 1813.86 468.988 1811.93 L 469.904 1810.12 z" fill="rgb(28,17,14)" transform="translate(0,0)"></path>
<path d="M 638.167 1901.48 C 618.102 1913.12 580.387 1913.98 558.356 1907.42 C 549.428 1904.78 541.06 1900.53 533.667 1894.87 C 518.786 1883.55 509.073 1867.02 494.874 1854.87 C 486.74 1847.67 468.737 1839.89 464.276 1829.69 C 450.013 1797.09 469.884 1757.74 506.192 1753.11 C 517.601 1751.66 524.704 1753.45 534.897 1756.78 L 536.545 1757.08 C 534.179 1767.69 535.379 1773.31 536.974 1783.83 C 529.668 1796.54 528.752 1799.69 529.192 1814.4 C 518.415 1824.8 518.931 1829.63 516.932 1844.42 L 513.325 1846.74 C 504.244 1839.43 480.566 1823.84 475.049 1817.96 L 477.25 1817.41 C 489.838 1827.54 502.736 1834.8 515.32 1846.11 C 516.279 1830.95 516.747 1824.73 526.948 1813.59 C 527.09 1799.73 528.636 1795.02 535.063 1783.15 C 533.634 1774.65 532.694 1766.91 534.008 1758.35 C 528.035 1756.57 524.471 1755.69 518.338 1754.64 C 514.054 1754.95 511.041 1754.97 506.739 1754.84 C 480.016 1759.8 467.654 1773.83 462.237 1799.66 C 464.742 1803.14 467.274 1806.75 469.904 1810.12 L 468.988 1811.93 C 465.753 1808.52 464.65 1806.83 462.048 1802.96 C 461.922 1812.95 462.004 1828.78 470.632 1834.67 C 492.981 1849.92 506.17 1862.08 523.217 1883.2 C 547.803 1913.67 606.316 1916.7 639.864 1898.58 L 638.167 1901.48 z" fill="rgb(76,51,52)" transform="translate(0,0)"></path>
<path d="M 506.739 1754.84 C 511.751 1753.83 513.264 1753.54 518.338 1754.64 C 514.054 1754.95 511.041 1754.97 506.739 1754.84 z" fill="rgb(169,100,117)" transform="translate(0,0)"></path>
<path d="M 463.831 1667.29 C 506.682 1693.87 598.249 1687.48 642.589 1666.54 L 643.023 1667.99 C 641.104 1668.95 638.14 1670.28 636.553 1671.54 C 632.629 1696.16 630.15 1721.26 626.002 1745.84 C 640.011 1765.66 630.082 1773.67 636.193 1792.29 C 644.448 1817.45 674.637 1883.92 638.167 1901.48 L 639.864 1898.58 C 652.751 1891.19 653.101 1878.57 652.85 1865.36 L 652.114 1866.18 C 636.421 1883.84 608.628 1886.53 586.246 1886.3 C 566.449 1886.09 544.323 1881.58 530.351 1866.51 C 524.702 1860.42 520.026 1853.59 514.14 1847.57 L 513.325 1846.74 L 516.932 1844.42 C 518.594 1851.61 527.609 1860.75 533.095 1866.54 C 555.611 1890.32 624.616 1890.17 647.433 1868.15 C 664.651 1851.54 634.459 1806.23 632.93 1783.33 L 632.865 1782.25 C 631.92 1776.84 631.866 1769.01 632.119 1763.45 C 631.518 1759.27 630.143 1753.05 627.045 1750.08 L 625.728 1750.54 C 625.378 1752.66 625.049 1753.91 624.473 1755.98 C 618.548 1763.77 562.636 1764.3 551.6 1761.32 C 548.783 1760.57 549.319 1751.59 545.683 1749.37 L 543.026 1750.89 L 538.026 1752.54 C 540.926 1749.61 543.892 1748.51 547.608 1746.76 C 544.105 1727.75 541.604 1705.5 538.881 1686.07 C 511.534 1686.12 487.672 1680.14 462.944 1669 L 463.831 1667.29 z" fill="rgb(76,51,52)" transform="translate(0,0)"></path>
<path d="M 632.119 1763.45 C 633.667 1770.55 633.378 1775.01 632.865 1782.25 C 631.92 1776.84 631.866 1769.01 632.119 1763.45 z" fill="rgb(169,100,117)" transform="translate(0,0)"></path>
<path d="M 631.536 1673.03 C 631.961 1672.91 633.146 1672.97 633.652 1672.97 C 635.243 1679.96 624.289 1745.02 622.397 1757.47 C 607.223 1760.15 577.534 1760.14 561.179 1760.94 C 555.711 1761.2 553.741 1760.04 550.321 1756.31 C 548.852 1734.24 541.875 1708.27 541.424 1686 C 574.994 1686.31 599.944 1684.35 631.536 1673.03 z" fill="rgb(165,111,88)" transform="translate(0,0)"></path>
<path d="M 703.217 1601.46 C 737.807 1621.29 779.48 1623.68 818.54 1615.38 C 823.696 1614.28 839.007 1608.19 842.983 1608.75 C 831.518 1613.44 822.305 1615.97 810.196 1618.55 C 809.501 1627.85 806.177 1643.9 810.956 1651.04 C 815.486 1652.51 828.326 1644.71 838.298 1645.16 C 880.111 1647.04 898.084 1687.9 878.344 1722.44 C 872.463 1732.73 854.852 1740.99 845.87 1750.58 C 832.995 1764.31 822.967 1780.75 809.643 1793.97 C 788.819 1815.52 734.068 1817.64 712.34 1796.54 C 701.275 1785.46 701.733 1754.07 706.758 1741.09 C 715.521 1718.46 715.224 1704.37 714.735 1680.83 C 714.439 1666.6 717.427 1663.61 727.55 1654.61 C 727.587 1643.34 725.273 1624.21 723.592 1612.81 C 716.256 1610.17 708.947 1606.41 701.899 1603 L 703.217 1601.46 z" fill="rgb(76,51,52)" transform="translate(0,0)"></path>
<path d="M 806.678 1660.04 C 807.038 1656.26 806.962 1654.18 808.634 1650.75 L 810.956 1651.04 C 815.03 1660.63 815.294 1663.62 815.18 1674.08 C 824.111 1686.46 823.097 1695.58 823.564 1710.63 C 831.881 1720.58 832.277 1725.29 836.26 1737.74 C 825.549 1746.51 818.399 1755.81 809.363 1766.08 C 793.872 1783.68 767.365 1787.5 745.087 1785.67 C 729.173 1784.37 713.481 1778.64 706.111 1763.62 C 705.562 1738.5 712.617 1734.48 716.538 1713.25 C 718.669 1701.71 713.788 1679.61 719.462 1665.21 C 719.762 1664.46 719.664 1664.51 720.17 1663.89 C 722.216 1660.94 722.302 1660.54 725.342 1658.86 C 729.035 1660.11 730.671 1668.03 733.97 1670.91 C 756.211 1690.28 788.891 1674.81 806.678 1660.04 z" fill="rgb(216,128,151)" transform="translate(0,0)"></path>
<path d="M 726.273 1613.64 C 755.081 1622.51 778.589 1623.32 808.034 1618.69 L 805.461 1657.65 C 802.913 1660.51 800.332 1662.54 797.423 1664.99 C 781.702 1675.95 753.84 1683.14 737.431 1671.64 C 727.391 1664.6 727.269 1626.25 726.273 1613.64 z" fill="rgb(165,111,88)" transform="translate(0,0)"></path>
<path d="M 814.591 1653.62 C 836.357 1641.89 858.484 1646.34 875.553 1665.07 C 880.802 1670.83 882.53 1677.32 883.365 1684.93 C 884.243 1689.58 884.422 1691.64 883.495 1696.35 C 873.408 1710.91 851.965 1726.08 837.672 1736.24 C 833.964 1724.28 833.4 1719.68 825.44 1709.87 C 824.749 1693.59 826.381 1686.99 817.169 1672.63 C 817.426 1664.12 817.315 1661.72 814.591 1653.62 z" fill="rgb(216,128,151)" transform="translate(0,0)"></path>
<path d="M 883.365 1684.93 C 884.243 1689.58 884.422 1691.64 883.495 1696.35 C 883.072 1691.65 883.049 1689.68 883.365 1684.93 z" fill="rgb(169,100,117)" transform="translate(0,0)"></path>
<path d="M 705.198 1766.43 C 724.269 1795.13 774.125 1792.74 800.532 1776.37 C 812.053 1769.23 820.269 1754.69 830.075 1745.5 C 851.007 1728.05 865.04 1720.09 883.907 1699.56 C 878.966 1730.22 868.279 1729.07 846.209 1747.41 C 839.71 1752.81 832.61 1764.04 827.134 1770.55 C 804.116 1803.62 786.808 1811.44 746.609 1808.77 C 745.606 1808.75 745.8 1808.78 744.865 1808.39 C 736.086 1807.52 729.615 1805.67 721.76 1801.81 C 720.57 1801.39 720.718 1801.57 719.954 1800.77 C 706.572 1791.44 706.535 1781.46 705.198 1766.43 z" fill="rgb(216,128,151)" transform="translate(0,0)"></path>
<path d="M 744.865 1808.39 C 745.753 1808.45 745.935 1808.35 746.609 1808.77 C 745.606 1808.75 745.8 1808.78 744.865 1808.39 z" fill="rgb(169,100,117)" transform="translate(0,0)"></path>
<path d="M 719.954 1800.77 C 720.978 1801.12 720.979 1801.08 721.76 1801.81 C 720.57 1801.39 720.718 1801.57 719.954 1800.77 z" fill="rgb(169,100,117)" transform="translate(0,0)"></path>
<path d="M 932.943 963.851 C 944.794 961.103 950.438 958.705 961.101 954.126 C 966.553 951.784 987.157 940.777 991.017 940.266 L 992.975 942.633 L 993.967 942.709 C 998.679 951.367 1011.71 998.975 1014.98 1010.7 C 1018.24 1013.64 1021.43 1016.64 1024.62 1019.65 C 1045.3 1039.15 1055.06 1076.9 1041.43 1103 C 1038.98 1109.71 1036.51 1114.03 1031.59 1119.31 C 1027.69 1124.17 1022.99 1128.33 1017.7 1131.63 C 1000.16 1142.72 978.27 1145.89 958.027 1141.74 C 944.606 1138.98 936.996 1130.84 940.993 1116.75 C 944.127 1105.69 957.436 1104.26 965.966 1098.94 C 970.816 1096.13 973.714 1092.11 975.028 1086.64 C 978.338 1072.87 969.186 1065.28 957.042 1073.77 L 953 1084.87 C 950.811 1095.02 944.76 1101.66 933.684 1098.81 C 913.98 1090.51 921.557 1040.99 934.269 1033 C 939.234 1029.18 945.655 1022.37 950.167 1017.79 C 944.793 1005.36 936.898 977.734 932.943 963.851 z" fill="rgb(165,111,88)" transform="translate(0,0)"></path>
<path d="M 957.042 1073.77 L 956.717 1072.42 C 965.911 1061.64 978.071 1071.43 978.643 1082.38 C 979.305 1095.08 961.189 1103.69 951.68 1108.09 C 941.493 1111.97 938.477 1127.29 945.244 1133.4 C 960.295 1146.97 994.952 1141.44 1011.72 1133.51 C 1017.16 1130.93 1028.17 1119.71 1031.59 1119.31 C 1027.69 1124.17 1022.99 1128.33 1017.7 1131.63 C 1000.16 1142.72 978.27 1145.89 958.027 1141.74 C 944.606 1138.98 936.996 1130.84 940.993 1116.75 C 944.127 1105.69 957.436 1104.26 965.966 1098.94 C 970.816 1096.13 973.714 1092.11 975.028 1086.64 C 978.338 1072.87 969.186 1065.28 957.042 1073.77 z" fill="rgb(76,51,52)" transform="translate(0,0)"></path>
<path d="M 993.967 942.709 C 998.679 951.367 1011.71 998.975 1014.98 1010.7 C 1018.24 1013.64 1021.43 1016.64 1024.62 1019.65 C 1045.3 1039.15 1055.06 1076.9 1041.43 1103 C 1039.22 1098.81 1057.13 1059.64 1029.69 1028.37 C 1027.16 1024.83 1026.38 1024.09 1023.28 1021.3 L 1020.91 1019.05 C 1018.6 1016.25 1017.36 1015.32 1014.59 1013.16 C 1010.8 1006.96 995.116 951.557 992.975 942.633 L 993.967 942.709 z" fill="rgb(107,62,31)" transform="translate(0,0)"></path>
<path d="M 933.684 1098.81 C 913.98 1090.51 921.557 1040.99 934.269 1033 C 933.514 1037.1 930.221 1041.17 928.716 1045.31 C 922.726 1061.75 917.918 1085.47 933.943 1097.62 L 933.684 1098.81 z" fill="rgb(76,51,52)" transform="translate(0,0)"></path>
<path d="M 933.943 1097.62 C 939.402 1097.3 940.364 1097.77 945.011 1095.13 C 951.049 1091.7 949.105 1083.77 953 1084.87 C 950.811 1095.02 944.76 1101.66 933.684 1098.81 L 933.943 1097.62 z" fill="rgb(107,62,31)" transform="translate(0,0)"></path>
<path d="M 1023.28 1021.3 C 1026.38 1024.09 1027.16 1024.83 1029.69 1028.37 C 1026.24 1025.45 1025.88 1025.08 1023.28 1021.3 z" fill="rgb(151,104,79)" transform="translate(0,0)"></path>
<path d="M 1014.59 1013.16 C 1017.36 1015.32 1018.6 1016.25 1020.91 1019.05 C 1017.79 1017.05 1016.96 1016.05 1014.59 1013.16 z" fill="rgb(151,104,79)" transform="translate(0,0)"></path>
<metadata><recraft-signature>{"signed_by": "recraft", "signature_b64": "Fs5U8qoqG5rMaC3YSM+EJuoDtKSGTISokA0ToU23SBj0nRz+xW+lKHxhHJX2JPmWCfzK9Gk4ce6qOxu92T9LBQ==", "signing_algo": "Ed25519", "generation_timestamp": 1779005423, "identifier": "30f225b6-99bf-4228-9bfe-a4c0660fd406"}</recraft-signature></metadata></svg>