<svg xmlns="http://www.w3.org/2000/svg" height="832" preserveAspectRatio="none" style="display: block;" version="1.1" viewBox="0 0 2048 1331" width="1280">
<path d="M 0 0 L 575.141 0 L 623.521 0 L 2048 0 L 2048 1163.01 L 2048 1177.13 L 2048 1331 L 1368.9 1331 L 1327.22 1331 L 514.59 1331 L 453.082 1331 L 0 1331 L 0 1252.58 L 0 1244.24 L 0 0 z" fill="rgb(255,255,255)" transform="translate(0,0)"></path>
<path d="M 0 0 L 575.141 0 L 623.521 0 C 633.667 1.74329 644.699 2.47079 654.831 3.99428 C 888.725 39.1632 981.089 317.918 786.257 467.357 C 781.44 471.052 770.861 476.639 767.17 480.273 L 769.25 481.294 L 765.283 482.39 C 763.789 485.089 763.706 494.093 763.239 497.821 C 755.264 561.619 704.742 622.717 643.16 641.441 C 621.45 648.042 592.297 648.599 572.045 637.418 C 564.955 632.414 558.98 626.694 552.584 620.848 C 554.377 707.647 582.201 786.01 642.476 850.264 C 645.654 853.652 661.183 868.59 662.349 871.118 C 664.694 872.297 685.963 891.007 690.052 894.327 C 706.459 907.508 723.47 919.916 741.033 931.512 C 734.448 1028.89 706.07 1123.3 630.136 1190.03 L 635.73 1197.88 C 668.24 1239.75 698.058 1261.69 747.92 1279.2 L 747.392 1279.72 C 740.804 1286.37 735.56 1294.01 728.56 1300.52 C 683.855 1342.08 627.426 1318.36 574.384 1320.33 C 557.502 1320.95 532.943 1328.6 514.59 1331 L 453.082 1331 L 0 1331 L 0 1252.58 L 0 1244.24 L 0 0 z" fill="rgb(255,255,255)" transform="translate(0,0)"></path>
<path d="M 575.141 0 L 623.521 0 C 633.667 1.74329 644.699 2.47079 654.831 3.99428 C 888.725 39.1632 981.089 317.918 786.257 467.357 C 781.44 471.052 770.861 476.639 767.17 480.273 L 769.25 481.294 L 765.283 482.39 C 763.789 485.089 763.706 494.093 763.239 497.821 C 755.264 561.619 704.742 622.717 643.16 641.441 C 621.45 648.042 592.297 648.599 572.045 637.418 C 564.955 632.414 558.98 626.694 552.584 620.848 L 551.769 619.18 C 546.279 610.352 541.963 601.882 539.467 591.716 C 492.261 608.669 450.689 615.519 400.562 603.427 C 364.166 594.647 326.608 570.933 307.266 538.095 C 307.12 537.935 306.974 537.774 306.829 537.614 C 287.46 505.177 288.375 470.33 296.029 436.452 C 289.3 435.235 282.748 433.187 276.523 430.356 C 268.088 426.465 258.192 420.229 255.043 410.937 C 250.062 396.232 262.168 386.727 273.526 380.515 C 282.983 375.344 295.819 370.562 299.896 359.581 C 304.882 346.15 288.039 300.231 285.396 281.862 C 282.298 260.945 283.01 239.64 287.499 218.977 C 291.293 202.222 296.294 192.08 303.834 176.673 C 301.206 172.502 299.335 167.9 298.307 163.078 C 295.065 147.604 301.157 134.955 309.24 122.35 C 310.213 120.841 311.244 119.368 312.328 117.936 C 353.113 64.0295 444.798 24.5574 509.388 9.95019 C 531.406 4.97086 553.04 3.15249 575.141 0 z" fill="rgb(237,168,143)" transform="translate(0,0)"></path>
<path d="M 575.141 0 L 623.521 0 C 633.667 1.74329 644.699 2.47079 654.831 3.99428 C 888.725 39.1632 981.089 317.918 786.257 467.357 C 781.44 471.052 770.861 476.639 767.17 480.273 C 756.393 483.486 664.028 446.515 648.994 438.754 C 680.954 414.885 715.443 372.377 699.523 328.262 C 690.59 303.505 662.221 294.827 639.134 306.311 C 614.216 318.707 601.963 337.833 592.261 363.209 C 584.188 319.49 542.938 297.975 527.973 256.394 C 524.952 247.93 523.211 239.064 522.806 230.086 C 522.281 215.508 527.912 186.404 520.563 175.616 C 501.444 147.55 464.689 163.664 444.305 175.421 C 407.232 198.164 335.017 218.11 303.834 176.673 C 301.206 172.502 299.335 167.9 298.307 163.078 C 295.065 147.604 301.157 134.955 309.24 122.35 C 310.213 120.841 311.244 119.368 312.328 117.936 C 353.113 64.0295 444.798 24.5574 509.388 9.95019 C 531.406 4.97086 553.04 3.15249 575.141 0 z" fill="rgb(96,55,7)" transform="translate(0,0)"></path>
<path d="M 309.24 122.35 C 313.481 125.131 319.405 137.413 321.425 142.129 C 336.373 177.035 372.607 183.402 406.605 178.617 C 414.877 177.63 438.212 172.132 444.305 175.421 C 407.232 198.164 335.017 218.11 303.834 176.673 C 301.206 172.502 299.335 167.9 298.307 163.078 C 295.065 147.604 301.157 134.955 309.24 122.35 z" fill="rgb(84,46,7)" transform="translate(0,0)"></path>
<path d="M 671.237 516.707 C 659.869 546.925 625.02 591.13 600.794 612.813 C 593.281 619.538 577.529 630.874 572.045 637.418 C 564.955 632.414 558.98 626.694 552.584 620.848 L 551.769 619.18 C 546.279 610.352 541.963 601.882 539.467 591.716 C 492.261 608.669 450.689 615.519 400.562 603.427 C 364.166 594.647 326.608 570.933 307.266 538.095 C 311.091 537.435 320.839 545.264 324.625 547.79 C 335.751 555.303 347.466 561.905 359.656 567.53 C 464.063 614.974 585.778 590.533 671.237 516.707 z" fill="rgb(224,144,121)" transform="translate(0,0)"></path>
<path d="M 662.349 871.118 C 664.694 872.297 685.963 891.007 690.052 894.327 C 706.459 907.508 723.47 919.916 741.033 931.512 C 734.448 1028.89 706.07 1123.3 630.136 1190.03 L 635.73 1197.88 C 668.24 1239.75 698.058 1261.69 747.92 1279.2 L 747.392 1279.72 C 740.804 1286.37 735.56 1294.01 728.56 1300.52 C 683.855 1342.08 627.426 1318.36 574.384 1320.33 C 557.502 1320.95 532.943 1328.6 514.59 1331 L 453.082 1331 L 0 1331 L 0 1252.58 L 0 1244.24 C 20.6131 1212.42 48.5878 1209.4 76.1981 1187.01 C 97.7363 1170.59 117.885 1164.26 144.378 1164.28 C 177.493 1164.3 215.846 1154.85 248.731 1150.37 C 266.463 1176.19 286.413 1197.02 309.999 1217.44 C 312.267 1219.4 315.819 1222.25 317.792 1224.4 C 326.933 1230.76 335.071 1236.27 344.551 1242.09 C 373.219 1224.17 407.486 1197.43 433.904 1175.91 C 542.416 1087.53 608.481 998.492 662.349 871.118 z" fill="rgb(255,255,255)" transform="translate(0,0)"></path>
<path d="M 635.73 1197.88 C 668.24 1239.75 698.058 1261.69 747.92 1279.2 L 747.392 1279.72 C 740.804 1286.37 735.56 1294.01 728.56 1300.52 C 683.855 1342.08 627.426 1318.36 574.384 1320.33 C 557.502 1320.95 532.943 1328.6 514.59 1331 L 453.082 1331 L 453.253 1330.24 C 446.586 1329.54 446.119 1329.86 443.341 1323.74 L 442.573 1322.05 C 439.677 1320.32 436.439 1320.71 432.926 1320.66 C 425.926 1319.62 425.162 1319.45 421.411 1313.4 L 419.413 1304.11 C 399.071 1299.11 413.524 1285.56 422.149 1277.74 C 430.691 1270 438.88 1262.46 448.927 1256.6 C 452.958 1254.25 456.511 1253.88 460.343 1251.91 C 466.885 1242.1 474.554 1236.48 483.877 1229.62 C 520.236 1202.28 565.47 1206.76 608.058 1200.47 C 616.266 1199.25 628.241 1200.12 635.73 1197.88 z" fill="rgb(237,168,143)" transform="translate(0,0)"></path>
<path d="M 460.343 1251.91 C 474.918 1246.69 553.471 1208.19 560.008 1223.23 C 558.968 1231.32 538.399 1232.39 530.902 1235.41 C 499.015 1248.26 428.529 1266.51 419.413 1304.11 C 399.071 1299.11 413.524 1285.56 422.149 1277.74 C 430.691 1270 438.88 1262.46 448.927 1256.6 C 452.958 1254.25 456.511 1253.88 460.343 1251.91 z" fill="rgb(224,144,121)" transform="translate(0,0)"></path>
<path d="M 421.411 1313.4 C 431.172 1272.99 477.34 1272.84 507.463 1256.98 C 517.965 1251.44 555.977 1234.51 565.331 1244.29 C 565.83 1247.55 565.627 1246.62 564.136 1250.15 C 560.716 1252.84 551.947 1253.48 547.273 1254.16 C 527.405 1257.06 510.603 1267.82 492.503 1275.27 C 469.296 1284.81 432.387 1287.98 432.926 1320.66 C 425.926 1319.62 425.162 1319.45 421.411 1313.4 z" fill="rgb(224,144,121)" transform="translate(0,0)"></path>
<path d="M 443.341 1323.74 C 447.315 1295.19 477.325 1295.84 499.857 1286.06 C 521.523 1276.65 543.843 1263.55 566.966 1259.81 C 568.648 1259.62 569.86 1261.56 570.809 1262.75 C 571.813 1271.9 549.267 1274.53 542.225 1278.16 C 518.131 1290.56 492.379 1299.42 466.895 1308.45 C 456.705 1312.06 455.631 1319.08 454.662 1328.69 L 453.253 1330.24 C 446.586 1329.54 446.119 1329.86 443.341 1323.74 z" fill="rgb(224,144,121)" transform="translate(0,0)"></path>
<path d="M 573.323 1278.07 L 575.985 1279.21 C 578.326 1282.58 577.816 1281.05 578.109 1284.98 C 577.215 1286.86 576.078 1288.01 574.068 1288.78 C 547.155 1299.16 523.142 1307.37 501.731 1327.42 C 496.619 1325.78 493.9 1320.79 496.932 1317.11 C 510.636 1300.52 554.334 1283.41 573.323 1278.07 z" fill="rgb(224,144,121)" transform="translate(0,0)"></path>
<path d="M 248.731 1150.37 C 266.463 1176.19 286.413 1197.02 309.999 1217.44 C 312.267 1219.4 315.819 1222.25 317.792 1224.4 C 285.674 1274.48 250.238 1274.55 197.021 1284.31 C 177.068 1287.97 149 1306.89 127.994 1297.24 C 117.714 1292.36 118.354 1273.38 124.868 1265.22 C 133.672 1254.19 151.626 1253.03 164.388 1247.78 C 173.075 1244.16 181.199 1239.32 188.515 1233.4 C 160.429 1225.84 124.189 1232.4 95.5497 1240.65 C 71.8776 1247.47 37.5904 1266.53 13.3616 1264.62 C 8.03965 1264.21 2.76955 1256.94 0 1252.58 L 0 1244.24 C 20.6131 1212.42 48.5878 1209.4 76.1981 1187.01 C 97.7363 1170.59 117.885 1164.26 144.378 1164.28 C 177.493 1164.3 215.846 1154.85 248.731 1150.37 z" fill="rgb(224,144,121)" transform="translate(0,0)"></path>
<path d="M 551.769 619.18 L 552.584 620.848 C 554.377 707.647 582.201 786.01 642.476 850.264 C 645.654 853.652 661.183 868.59 662.349 871.118 C 608.481 998.492 542.416 1087.53 433.904 1175.91 C 407.486 1197.43 373.219 1224.17 344.551 1242.09 C 335.071 1236.27 326.933 1230.76 317.792 1224.4 C 315.819 1222.25 312.267 1219.4 309.999 1217.44 C 286.413 1197.02 266.463 1176.19 248.731 1150.37 C 240.601 1137.88 233.091 1125 226.228 1111.78 C 339.627 1031.99 402.006 938.472 453.409 810.624 C 460.283 793.527 466.785 773.941 472.378 756.379 C 476.495 743.452 478.994 729.931 483.408 716.695 C 495.921 678.08 519.735 644.11 551.769 619.18 z" fill="rgb(224,91,1)" transform="translate(0,0)"></path>
<path d="M 769.25 481.294 C 787.338 478.206 803.495 475.769 821.364 474.38 C 882.985 469.591 929.692 484.17 984.386 510.238 C 1024.71 529.458 1077.46 543.489 1121.6 549.682 C 1150.58 553.105 1182.72 552.844 1211.82 550.557 C 1250.86 547.489 1287.12 534.193 1306.89 579.568 C 1344.74 675.005 1312.13 833.225 1270.83 925.756 C 1260.85 948.117 1248.74 970.991 1235.97 991.899 C 1231.61 999.028 1219.99 1014.35 1217.5 1019.62 C 1218.03 1029.94 1209.03 1049.06 1205.88 1059.49 C 1185.17 1128.12 1160.92 1184.77 1189.17 1254.22 C 1192.26 1258.01 1194.94 1262.73 1197.51 1266.82 C 1221.98 1305.73 1268.78 1323.28 1312.48 1328.85 C 1317 1329.42 1322.79 1330.01 1327.22 1331 L 514.59 1331 C 532.943 1328.6 557.502 1320.95 574.384 1320.33 C 627.426 1318.36 683.855 1342.08 728.56 1300.52 C 735.56 1294.01 740.804 1286.37 747.392 1279.72 L 747.92 1279.2 C 698.058 1261.69 668.24 1239.75 635.73 1197.88 L 630.136 1190.03 C 706.07 1123.3 734.448 1028.89 741.033 931.512 C 723.47 919.916 706.459 907.508 690.052 894.327 C 685.963 891.007 664.694 872.297 662.349 871.118 C 661.183 868.59 645.654 853.652 642.476 850.264 C 582.201 786.01 554.377 707.647 552.584 620.848 C 558.98 626.694 564.955 632.414 572.045 637.418 C 592.297 648.599 621.45 648.042 643.16 641.441 C 704.742 622.717 755.264 561.619 763.239 497.821 C 763.706 494.093 763.789 485.089 765.283 482.39 L 769.25 481.294 z" fill="rgb(252,108,0)" transform="translate(0,0)"></path>
<path d="M 930.645 1018.71 L 943.781 1023.18 C 986.1 1037.51 1027.14 1048.89 1071.31 1055.79 C 1074.66 1056.31 1080.58 1057.22 1083.6 1058.4 C 1101.92 1061.14 1137.38 1065.59 1154.91 1063.94 C 1185.47 1061.06 1200.39 1041.18 1217.5 1019.62 C 1218.03 1029.94 1209.03 1049.06 1205.88 1059.49 C 1185.17 1128.12 1160.92 1184.77 1189.17 1254.22 C 1192.26 1258.01 1194.94 1262.73 1197.51 1266.82 C 1221.98 1305.73 1268.78 1323.28 1312.48 1328.85 C 1317 1329.42 1322.79 1330.01 1327.22 1331 L 514.59 1331 C 532.943 1328.6 557.502 1320.95 574.384 1320.33 C 627.426 1318.36 683.855 1342.08 728.56 1300.52 C 735.56 1294.01 740.804 1286.37 747.392 1279.72 L 747.92 1279.2 C 756.652 1282.19 763.12 1283.58 772.155 1285.56 C 845.371 1216.97 909.059 1117.25 930.645 1018.71 z" fill="rgb(255,255,255)" transform="translate(0,0)"></path>
<path d="M 1083.6 1058.4 C 1101.92 1061.14 1137.38 1065.59 1154.91 1063.94 C 1185.47 1061.06 1200.39 1041.18 1217.5 1019.62 C 1218.03 1029.94 1209.03 1049.06 1205.88 1059.49 C 1185.17 1128.12 1160.92 1184.77 1189.17 1254.22 C 1127.91 1250.31 1071.49 1220.48 1064.37 1151.89 C 1061 1119.49 1070.92 1087.91 1083.6 1058.4 z" fill="rgb(1,41,72)" transform="translate(0,0)"></path>
<path d="M 930.645 1018.71 C 948.529 948.138 961.848 880.434 953.032 807.326 C 948.933 773.341 942.953 741.661 931.901 709.119 C 929.087 700.833 917.872 683.425 923.622 676.093 C 926.986 674.681 925.609 674.766 929.088 675.245 C 933.788 679.086 935.173 684.624 937.303 689.932 C 972.915 778.682 985.187 874.118 962.405 967.723 C 957.464 988.024 953.049 1004.09 943.781 1023.18 L 930.645 1018.71 z" fill="rgb(224,91,1)" transform="translate(0,0)"></path>
<path d="M 710.733 697.684 C 714.186 697.688 715.029 697.548 718.098 699.036 C 720.549 702.819 719.165 711.406 718.967 716.224 C 718.51 725.5 718.947 734.799 720.272 743.991 C 723.429 765.755 732.217 787.068 738.808 808.03 C 742.922 821.445 745.971 835.164 747.927 849.059 C 749.171 857.725 752.789 885.201 748.015 891.584 C 744.642 891.498 743.986 891.532 740.845 890.365 C 740.316 889.674 739.786 888.983 739.256 888.293 C 738.525 872.907 738.066 857.482 735.473 842.264 C 734.236 835.006 733.268 827.585 731.286 820.502 C 725.517 799.892 716.056 779.592 711.31 758.762 C 708.179 745.021 703.607 709.07 710.733 697.684 z" fill="rgb(224,91,1)" transform="translate(0,0)"></path>
<path d="M 1306.89 579.568 C 1340.96 572.128 1370.03 569.898 1404.47 574.664 C 1505.79 588.688 1595.16 661.896 1618.82 762.951 C 1637.85 844.214 1603.67 922.811 1560.16 989.694 C 1558.55 992.162 1556.92 994.62 1555.29 997.068 C 1561.62 997.239 1568.46 997.559 1574.75 997.431 C 1597.67 996.613 1634.85 994.138 1656.31 986.249 C 1699.56 970.351 1716.17 952.278 1746.53 1002.23 C 1758.89 1025.48 1763.28 1041.72 1768.54 1067.28 C 1786.72 1056.01 1802.9 1045.77 1825.24 1051.01 C 1853.06 1057.55 1868.98 1081.46 1873.78 1108.14 C 1878.95 1136.81 1889.33 1162.77 1913.86 1180.11 C 1918.85 1183.63 1929.3 1194.82 1935.04 1192.74 L 1925.65 1180.47 C 1946.69 1189.79 1968.43 1195.85 1991.04 1187.41 C 2014.63 1204.37 2034.01 1205.11 2048 1177.13 L 2048 1331 L 1368.9 1331 L 1327.22 1331 C 1322.79 1330.01 1317 1329.42 1312.48 1328.85 C 1268.78 1323.28 1221.98 1305.73 1197.51 1266.82 C 1194.94 1262.73 1192.26 1258.01 1189.17 1254.22 C 1160.92 1184.77 1185.17 1128.12 1205.88 1059.49 C 1209.03 1049.06 1218.03 1029.94 1217.5 1019.62 C 1219.99 1014.35 1231.61 999.028 1235.97 991.899 C 1248.74 970.991 1260.85 948.117 1270.83 925.756 C 1312.13 833.225 1344.74 675.005 1306.89 579.568 z" fill="rgb(4,68,116)" transform="translate(0,0)"></path>
<path d="M 1768.54 1067.28 C 1786.72 1056.01 1802.9 1045.77 1825.24 1051.01 C 1853.06 1057.55 1868.98 1081.46 1873.78 1108.14 C 1878.95 1136.81 1889.33 1162.77 1913.86 1180.11 C 1918.85 1183.63 1929.3 1194.82 1935.04 1192.74 L 1925.65 1180.47 C 1946.69 1189.79 1968.43 1195.85 1991.04 1187.41 C 2014.63 1204.37 2034.01 1205.11 2048 1177.13 L 2048 1331 L 1368.9 1331 C 1375.56 1329.64 1385.09 1329.6 1392.16 1328.61 C 1489.39 1314.95 1584.18 1286.01 1683.48 1289.67 C 1702.43 1290.37 1725.39 1294.57 1740.36 1280.77 C 1758.06 1264.45 1761.43 1242.07 1763.04 1219.28 C 1763.89 1169.6 1757.64 1135.45 1737.19 1090.54 C 1747.83 1083.25 1758.31 1075.14 1768.54 1067.28 z" fill="rgb(237,168,143)" transform="translate(0,0)"></path>
<path d="M 1991.04 1187.41 C 2014.63 1204.37 2034.01 1205.11 2048 1177.13 L 2048 1331 L 1368.9 1331 C 1375.56 1329.64 1385.09 1329.6 1392.16 1328.61 C 1489.39 1314.95 1584.18 1286.01 1683.48 1289.67 C 1702.43 1290.37 1725.39 1294.57 1740.36 1280.77 C 1758.06 1264.45 1761.43 1242.07 1763.04 1219.28 C 1788.97 1224.64 1818.2 1237.86 1840.33 1252.26 C 1853.41 1260.77 1864.72 1270.99 1879.62 1276.92 C 1903.93 1286.59 1948.31 1293.14 1972.31 1283.32 C 1979.84 1289.84 1986.73 1294.24 1997.16 1294.11 C 2004.68 1293.94 2011.82 1290.79 2017.02 1285.36 C 2027.36 1274.68 2028.47 1258.67 2019.91 1246.56 C 2004.52 1224.81 1976.42 1218.31 1953.92 1206.58 C 1946.21 1202.56 1941.29 1198.68 1935.04 1192.74 L 1925.65 1180.47 C 1946.69 1189.79 1968.43 1195.85 1991.04 1187.41 z" fill="rgb(255,255,255)" transform="translate(0,0)"></path>
<path d="M 1574.75 997.431 C 1597.67 996.613 1634.85 994.138 1656.31 986.249 C 1699.56 970.351 1716.17 952.278 1746.53 1002.23 C 1758.89 1025.48 1763.28 1041.72 1768.54 1067.28 C 1758.31 1075.14 1747.83 1083.25 1737.19 1090.54 C 1705.29 1038.82 1684.8 1060.89 1637.42 1070 C 1603.5 1076.51 1568.87 1078.51 1534.43 1075.94 C 1527.21 1074.95 1509.4 1072.81 1503.16 1070.79 C 1505.57 1067.39 1508.45 1063.65 1511.05 1060.33 C 1526.66 1040.48 1539.47 1018.51 1554.2 998.13 C 1558.13 998.232 1571.81 999.066 1574.75 997.431 z" fill="rgb(1,41,72)" transform="translate(0,0)"></path>
<path d="M 1534.43 1075.94 C 1526.08 1085.26 1516.88 1097.38 1508.88 1107.3 C 1497.53 1121.39 1417.63 1192.35 1402.55 1178.64 C 1402.86 1176.48 1403.41 1174.4 1405.25 1173.11 C 1433.29 1153.36 1457.46 1128.49 1479.6 1102.34 C 1487.7 1092.77 1494.8 1080.63 1503.16 1070.79 C 1509.4 1072.81 1527.21 1074.95 1534.43 1075.94 z" fill="rgb(1,41,72)" transform="translate(0,0)"></path>
<path d="M 1746.53 1002.23 C 1773.72 981.745 1800.57 953.122 1837.97 958.091 C 1871.31 962.521 1887.79 994.448 1891.91 1025.07 C 1897.94 1069.85 1937.27 1096.83 1975.85 1113.08 C 2008.88 1126.07 2033.8 1122.38 2048 1163.01 L 2048 1177.13 C 2034.01 1205.11 2014.63 1204.37 1991.04 1187.41 C 1968.43 1195.85 1946.69 1189.79 1925.65 1180.47 L 1935.04 1192.74 C 1929.3 1194.82 1918.85 1183.63 1913.86 1180.11 C 1889.33 1162.77 1878.95 1136.81 1873.78 1108.14 C 1868.98 1081.46 1853.06 1057.55 1825.24 1051.01 C 1802.9 1045.77 1786.72 1056.01 1768.54 1067.28 C 1763.28 1041.72 1758.89 1025.48 1746.53 1002.23 z" fill="rgb(224,144,121)" transform="translate(0,0)"></path>
<metadata><recraft-signature>{"signed_by": "recraft", "signature_b64": "fFlc22KcSHEdSr0M9gA4RojoZHlCYq+evhhCDZbgv0AAH8VquqlHlrmS4TLB0Y+bi7s5xAOTAxxdTT6bE7F+Ag==", "signing_algo": "Ed25519", "generation_timestamp": 1779005150, "identifier": "3e3f644e-402e-4f34-a13e-bd023488f9c5"}</recraft-signature></metadata></svg>