<svg xmlns="http://www.w3.org/2000/svg" height="1024" preserveAspectRatio="none" style="display: block;" version="1.1" viewBox="0 0 2048 2048" width="1024">
<path d="M 0 0 L 2048 0 L 2048 2048 L 0 2048 L 0 0 z" fill="rgb(255,255,255)" transform="translate(0,0)"></path>
<path d="M 973.899 644.087 L 973.681 491.01 C 973.688 459.616 971.685 405.767 978.47 377.688 C 984.815 351.877 997.99 328.249 1016.61 309.284 C 1043.19 282.741 1079.22 267.835 1116.78 267.84 C 1156.93 268.1 1191.6 285.202 1219.37 313.545 L 1593.58 702.901 L 1752.59 867.097 C 1768.58 883.845 1805.67 920.011 1816.77 936.097 C 1835.35 962.999 1845.01 995.06 1844.38 1027.75 C 1844.08 1059.18 1834.2 1089.78 1816.05 1115.45 C 1802.67 1134.14 1762.82 1172.85 1744.61 1191.72 L 1595.83 1345.47 L 1352.81 1597.57 C 1318.83 1633.35 1284.56 1668.84 1250 1704.05 C 1207.67 1747.37 1178.71 1785.56 1111.45 1783.91 C 1074.95 1783.01 1040.58 1767.23 1015.43 1741.07 C 997.382 1721.96 984.745 1698.38 978.818 1672.77 C 973.503 1650.7 973.8 1630.8 973.903 1608.34 C 974.15 1554.57 973.589 1500.76 973.689 1446.99 C 973.694 1443.56 973.925 1440.02 974.327 1436.61 C 965.027 1436.01 948.019 1436.64 938.112 1436.65 L 860.03 1436.71 L 600.131 1437.6 L 532.181 1437.46 C 515.861 1437.42 498.233 1437.7 482.126 1435.99 C 421.637 1429.56 360.524 1392.79 322.932 1345.23 C 301.55 1318 286.315 1286.47 278.274 1252.79 C 270.495 1218.91 272.011 1187.1 272.031 1152.69 L 272.022 1067.01 L 272.176 1001.99 C 272.244 992.153 271.863 977.377 272.941 967.958 C 270.989 936.314 270.605 892.589 273.824 861.212 C 278.476 815.849 304.857 762.667 335.453 728.215 C 379.399 677.984 441.837 647.723 508.493 644.351 C 555.397 641.883 614.216 643.656 661.971 643.54 L 973.899 644.087 z" fill="rgb(7,142,52)" transform="translate(0,0)"></path>
<path d="M 272.941 967.958 C 276.627 987.168 279.262 1004.49 285.454 1023.46 C 302.21 1074.8 339.887 1121.31 383.603 1152.54 C 408.25 1170.15 446.134 1185.47 475.544 1190.92 C 495.137 1194.55 521.557 1194.39 541.784 1194.31 C 566.897 1194.2 592.009 1193.9 617.118 1193.41 C 670.323 1192.66 724.279 1193.34 777.547 1193.07 C 802.959 1192.93 846.219 1190.95 869.185 1196.92 C 921.899 1210.36 962.085 1253.07 972.284 1306.51 C 973.509 1312.79 974.332 1319.16 974.747 1325.55 C 976.054 1347.78 974.77 1373.36 975.28 1395.81 C 975.423 1402.15 975.416 1432.11 974.327 1436.61 C 965.027 1436.01 948.019 1436.64 938.112 1436.65 L 860.03 1436.71 L 600.131 1437.6 L 532.181 1437.46 C 515.861 1437.42 498.233 1437.7 482.126 1435.99 C 421.637 1429.56 360.524 1392.79 322.932 1345.23 C 301.55 1318 286.315 1286.47 278.274 1252.79 C 270.495 1218.91 272.011 1187.1 272.031 1152.69 L 272.022 1067.01 L 272.176 1001.99 C 272.244 992.153 271.863 977.377 272.941 967.958 z" fill="rgb(255,121,63)" transform="translate(0,0)"></path>
<path d="M 1283.77 646.353 C 1316.5 642.068 1346.82 654.318 1375.02 669.501 C 1470.35 720.926 1541.32 808.144 1572.3 911.936 C 1601.16 1009.68 1586.95 1106.42 1538.86 1195.65 C 1496.15 1274.89 1413.27 1354.27 1325.72 1380.15 C 1322.3 1381.15 1318.82 1381.96 1315.3 1382.56 C 1238.48 1395.99 1173.49 1334.58 1194.79 1256.65 C 1207.93 1208.59 1253.46 1189.9 1288.66 1160.96 C 1300.99 1150.63 1311.99 1138.81 1321.42 1125.77 C 1349.91 1086.11 1362.99 1033.53 1355.14 984.903 C 1347.51 937.673 1316.42 892.355 1278.15 864.309 C 1265.1 854.745 1249.29 848.534 1235.91 839.076 C 1212.43 822.481 1196.18 798.255 1191.74 769.676 C 1187.24 740.725 1192.61 713.209 1210.23 689.488 C 1228.01 665.553 1254.47 650.667 1283.77 646.353 z" fill="rgb(255,121,63)" transform="translate(0,0)"></path>
<metadata><recraft-signature>{"signed_by": "recraft", "signature_b64": "lO9PwRg3OJH1gloq4BiVkM+2Eo26aLrg/e8wTk74eeyTpFYcib1NQ65oIWR6kgAYEnkcJ/LPjkgVL50cGFAkBg==", "signing_algo": "Ed25519", "generation_timestamp": 1779005278, "identifier": "23736472-65ab-4832-8155-2d12f680e550"}</recraft-signature></metadata></svg>