<svg xmlns="http://www.w3.org/2000/svg" height="1280" preserveAspectRatio="none" style="display: block;" version="1.1" viewBox="0 0 1331 2048" width="832">
<path d="M 0 0 L 624.428 0 L 633.241 0 L 1331 0 L 1331 420.15 L 1331 434.548 L 1331 2048 L 707.544 2048 L 687.21 2048 L 0 2048 L 0 1244.77 L 0 1242.22 L 0 0 z" fill="rgb(255,255,255)" transform="translate(0,0)"></path>
<path d="M 1255.7 563.352 C 1288.49 525.237 1318.36 483.758 1331 434.548 L 1331 2048 L 707.544 2048 C 720.581 2044.99 730.777 2041.8 740.583 2032.29 C 754.331 2018.96 755.439 2001.85 741.277 1988.43 C 739.975 1987.2 735.809 1984.1 734.167 1983.77 C 689.766 1974.69 675.643 1931.22 675.78 1891.02 C 678.235 1875.44 680.731 1869.09 686.283 1854.21 C 681.942 1852.38 676.131 1850.91 671.544 1849.46 C 639.53 1839.32 607.753 1828.2 575.706 1818.2 C 565.26 1814.62 554.398 1810.7 543.751 1807.95 C 550.923 1791.07 557.644 1769.19 563.45 1751.57 C 572.478 1723.7 581.866 1695.94 591.612 1668.31 C 602.212 1631.27 616.999 1592.61 628.84 1555.81 C 631.133 1548.69 643.045 1515.97 643.647 1510.69 L 641.031 1507.43 C 641.617 1505.88 650.47 1492.44 652.135 1489.82 C 661.352 1475.35 671.625 1460.63 679.395 1445.33 C 708.558 1387.93 736.196 1329.48 765.345 1272.14 C 777.338 1248.55 793.167 1211.13 806.918 1189.7 L 810.676 1180.8 C 814.055 1172.99 817.521 1165.22 821.073 1157.48 C 841.09 1157.81 858.531 1157.55 878.225 1154.23 C 883.936 1130.75 890.427 1106.86 895.417 1083.3 C 915.296 992.812 924.272 900.272 922.151 807.652 C 919.472 739.568 904.804 680.768 883.291 616.653 C 878.819 605.625 873.921 594.447 869.262 583.471 C 874.063 585.086 882.48 587.646 886.731 589.799 L 977.226 622.466 C 982.026 624.201 1010.18 634.048 1013.3 635.925 C 1016.63 635.749 1019.68 634.56 1022.89 633.547 C 1084.57 604.408 1109.4 552.382 1146.7 497.646 C 1149.39 498.601 1153 500.476 1155.66 501.756 C 1162.82 506.494 1171.72 511.507 1179.31 515.627 C 1206.04 530.145 1230.42 546.637 1255.7 563.352 z" fill="rgb(255,255,255)" transform="translate(0,0)"></path>
<path d="M 641.031 1507.43 C 641.617 1505.88 650.47 1492.44 652.135 1489.82 C 661.352 1475.35 671.625 1460.63 679.395 1445.33 C 708.558 1387.93 736.196 1329.48 765.345 1272.14 C 777.338 1248.55 793.167 1211.13 806.918 1189.7 C 811.023 1221.09 815.842 1252.38 821.37 1283.54 L 840.169 1409.68 C 844.514 1440.49 849.879 1473.67 848.974 1504.58 C 848.39 1523.95 845.118 1543.14 839.251 1561.6 C 835.711 1572.74 829.08 1587.1 824.286 1598.07 L 800.45 1652.4 L 745.347 1778.25 C 733.082 1806.13 720.406 1833.72 708.911 1861.94 C 701.345 1859.43 693.802 1856.86 686.283 1854.21 C 681.942 1852.38 676.131 1850.91 671.544 1849.46 C 639.53 1839.32 607.753 1828.2 575.706 1818.2 C 565.26 1814.62 554.398 1810.7 543.751 1807.95 C 550.923 1791.07 557.644 1769.19 563.45 1751.57 C 572.478 1723.7 581.866 1695.94 591.612 1668.31 C 602.212 1631.27 616.999 1592.61 628.84 1555.81 C 631.133 1548.69 643.045 1515.97 643.647 1510.69 L 641.031 1507.43 z" fill="rgb(250,211,10)" transform="translate(0,0)"></path>
<path d="M 641.031 1507.43 C 641.617 1505.88 650.47 1492.44 652.135 1489.82 C 661.352 1475.35 671.625 1460.63 679.395 1445.33 C 708.558 1387.93 736.196 1329.48 765.345 1272.14 C 777.338 1248.55 793.167 1211.13 806.918 1189.7 C 811.023 1221.09 815.842 1252.38 821.37 1283.54 C 812.606 1289.94 802.697 1297.13 796.17 1305.87 C 776.817 1331.76 763.896 1365.66 750.912 1395.37 C 736.301 1429.07 721.447 1462.65 706.351 1496.13 C 681.983 1549.75 657.703 1603.83 616.509 1646.83 C 610.068 1653.55 599.783 1663.87 591.612 1668.31 C 602.212 1631.27 616.999 1592.61 628.84 1555.81 C 631.133 1548.69 643.045 1515.97 643.647 1510.69 L 641.031 1507.43 z" fill="rgb(207,163,13)" transform="translate(0,0)"></path>
<path d="M 1146.7 497.646 C 1149.39 498.601 1153 500.476 1155.66 501.756 C 1162.82 506.494 1171.72 511.507 1179.31 515.627 C 1206.04 530.145 1230.42 546.637 1255.7 563.352 C 1263.87 569.06 1269.96 574.283 1277.57 580.787 C 1257.54 611.689 1237.15 642.356 1216.4 672.782 C 1168.12 743.907 1114.79 826.406 1019.22 828.02 C 982.348 827.352 956.219 819.791 922.151 807.652 C 919.472 739.568 904.804 680.768 883.291 616.653 C 878.819 605.625 873.921 594.447 869.262 583.471 C 874.063 585.086 882.48 587.646 886.731 589.799 L 977.226 622.466 C 982.026 624.201 1010.18 634.048 1013.3 635.925 C 1016.63 635.749 1019.68 634.56 1022.89 633.547 C 1084.57 604.408 1109.4 552.382 1146.7 497.646 z" fill="rgb(239,74,40)" transform="translate(0,0)"></path>
<path d="M 869.262 583.471 C 874.063 585.086 882.48 587.646 886.731 589.799 C 894.758 602.752 900.046 619.431 906.531 633.595 C 932.718 690.796 948.117 757.463 991.441 804.74 C 997.135 810.954 1018.4 823.009 1020.4 826.774 L 1019.22 828.02 C 982.348 827.352 956.219 819.791 922.151 807.652 C 919.472 739.568 904.804 680.768 883.291 616.653 C 878.819 605.625 873.921 594.447 869.262 583.471 z" fill="rgb(179,47,23)" transform="translate(0,0)"></path>
<path d="M 1013.3 635.925 C 1016.63 635.749 1019.68 634.56 1022.89 633.547 C 1041.03 648.716 1058.6 664.908 1075.16 681.779 C 1080.97 687.689 1087.07 694.577 1081.51 702.406 C 1079.28 703.709 1078.29 704.315 1075.59 703.629 C 1064.66 700.862 1032.73 658.256 1022.65 647.757 L 1021.7 649.598 C 1030.87 664.749 1039.39 696.074 1043.44 713.752 C 1044.76 719.545 1040.56 722.266 1035.16 722.495 C 1026.54 719.049 1024.59 703.37 1022.99 695.137 C 1019.33 676.235 1014.41 657.34 1011.69 638.331 C 1011.53 637.193 1012.43 636.831 1013.3 635.925 z" fill="rgb(179,47,23)" transform="translate(0,0)"></path>
<path d="M 1021.7 649.598 C 1011.36 637.998 1016.66 637.868 1022.65 647.757 L 1021.7 649.598 z" fill="rgb(195,51,26)" transform="translate(0,0)"></path>
<path d="M 1075.71 1095.23 C 1079.55 1095.51 1080.46 1095.77 1082.63 1098.53 C 1084.62 1110.12 1067.95 1157.74 1061.66 1170.7 C 1035.45 1224.73 988.918 1266.18 932.232 1286 C 928.926 1286.25 927.706 1285.12 926.446 1282.44 C 928.702 1276.28 936.95 1274.72 942.928 1272.1 C 950.194 1268.96 957.287 1265.43 964.177 1261.52 C 1009.82 1235.83 1044.04 1195.33 1062.17 1146.05 C 1068.04 1130.12 1071.09 1111.77 1075.71 1095.23 z" fill="rgb(239,74,40)" transform="translate(0,0)"></path>
<path d="M 1037.5 1039.44 C 1038.84 1039.82 1043.13 1041.33 1043.15 1043.01 C 1043.81 1104.47 1013.15 1167.71 966.492 1207.83 C 948.648 1223.17 932.042 1232.42 910.616 1241.84 C 907.294 1241.45 906.503 1238.96 906.14 1236.3 C 908.619 1230.82 912.983 1229.88 918.257 1227.8 C 928.783 1223.63 939.613 1216.53 948.77 1209.83 C 988.912 1180.11 1017.29 1137.19 1028.9 1088.62 C 1031.55 1077.94 1034.55 1045.45 1037.5 1039.44 z" fill="rgb(239,74,40)" transform="translate(0,0)"></path>
<path d="M 276.456 971.964 L 304.975 884.371 C 311.467 863.972 317.984 841.89 325.292 821.873 C 346.335 764.401 382.197 713.636 431.678 677.276 C 462.301 654.772 494.745 642.774 529.644 629.215 L 620.695 594.033 L 689.97 566.962 C 694.774 565.104 716.389 555.972 720.346 556.62 C 762.775 589.229 823.673 624.116 878.984 617.481 C 880.436 617.301 881.875 617.025 883.291 616.653 C 904.804 680.768 919.472 739.568 922.151 807.652 C 924.272 900.272 915.296 992.812 895.417 1083.3 C 890.427 1106.86 883.936 1130.75 878.225 1154.23 C 858.531 1157.55 841.09 1157.81 821.073 1157.48 C 795.75 1155.89 774.756 1154.78 749.521 1150.91 C 655.568 1136.47 572.867 1101.29 494.088 1048.72 C 487.409 1043.84 473.826 1036.09 471.649 1027.75 C 471.239 1026.19 537.778 894.018 545.166 880.864 C 557.243 855.792 571.952 825.45 584.857 801.177 C 580.047 801.504 571.699 804.485 566.979 806.162 C 540.472 815.583 517.849 826.857 497.779 846.67 L 488.187 856.849 C 455.498 902.005 433.711 970.665 421.053 1025.07 C 416.987 1024.54 412.795 1024.06 408.75 1023.47 C 408.986 1023.56 399.51 1021.47 398.529 1021.22 C 389.439 1018.9 380.404 1016.38 371.431 1013.64 C 342.349 1004.73 322.911 996.373 295.681 983.432 C 289.394 980.073 282.599 975.713 276.456 971.964 z" fill="rgb(239,74,40)" transform="translate(0,0)"></path>
<path d="M 584.857 801.177 C 586.859 799.759 591.598 797.546 593.922 797.074 C 614.217 792.947 732.026 747.824 742.179 750.817 L 742.846 752.85 C 740.455 757.184 719.587 771.629 714.257 775.631 C 670.584 808.421 626.805 840.592 578.215 865.866 C 572.087 869.053 551.043 882.686 545.166 880.864 C 557.243 855.792 571.952 825.45 584.857 801.177 z" fill="rgb(179,47,23)" transform="translate(0,0)"></path>
<path d="M 488.187 856.849 C 482.134 852.034 470.601 784.408 479.909 777.884 C 483.093 777.672 483.468 777.873 486.283 779.418 C 491.281 785.201 496.319 835.538 497.779 846.67 L 488.187 856.849 z" fill="rgb(179,47,23)" transform="translate(0,0)"></path>
<path d="M 612.56 194.61 C 614.721 182.195 616.651 173.789 623.212 162.526 C 645.182 124.81 686.241 104.581 726.854 93.3515 C 781.441 78.2584 842.146 84.221 891.726 111.961 C 919.863 127.704 947.703 156.302 956.278 188.014 C 958.163 194.982 959.391 205.9 955.545 212.429 C 952.268 211.688 938.671 202.808 934.532 200.434 C 935.729 203.939 937.889 206.707 940.097 209.661 C 957.13 232.451 968.644 256.527 980.422 282.229 C 985.861 280.718 1005.43 275.749 1008.78 273.025 C 1014.35 286.679 1016 284.811 1014.55 300.237 C 1013.4 312.475 996.238 324.531 995.883 326.178 C 996.043 326.404 995.905 326.266 996.458 326.57 C 1033.45 390.97 1021.61 449.751 955.416 486.779 C 939.746 495.546 906.649 509.264 888.728 509.946 C 884.692 520.788 878.166 540.84 874.006 550.19 C 870.498 559.07 859.922 576.825 869.262 583.471 C 873.921 594.447 878.819 605.625 883.291 616.653 C 881.875 617.025 880.436 617.301 878.984 617.481 C 823.673 624.116 762.775 589.229 720.346 556.62 C 727.579 557.718 738.686 553.979 745.873 551.9 C 749.837 542.563 753.736 533.654 756.933 524.005 C 671.343 524.08 581.877 496.606 543.985 412.561 C 510.227 337.685 532.506 230.086 612.56 194.61 z" fill="rgb(99,64,31)" transform="translate(0,0)"></path>
<path d="M 904.461 182.758 C 914.329 187.959 925.555 193.764 934.532 200.434 C 935.729 203.939 937.889 206.707 940.097 209.661 C 957.13 232.451 968.644 256.527 980.422 282.229 C 985.861 280.718 1005.43 275.749 1008.78 273.025 C 1014.35 286.679 1016 284.811 1014.55 300.237 C 1013.4 312.475 996.238 324.531 995.883 326.178 C 996.043 326.404 995.905 326.266 996.458 326.57 C 1033.45 390.97 1021.61 449.751 955.416 486.779 C 939.746 495.546 906.649 509.264 888.728 509.946 C 884.692 520.788 878.166 540.84 874.006 550.19 C 870.498 559.07 859.922 576.825 869.262 583.471 C 873.921 594.447 878.819 605.625 883.291 616.653 C 881.875 617.025 880.436 617.301 878.984 617.481 C 823.673 624.116 762.775 589.229 720.346 556.62 C 727.579 557.718 738.686 553.979 745.873 551.9 C 749.837 542.563 753.736 533.654 756.933 524.005 C 763.607 513.19 784.67 455.079 788.003 441.842 C 774.665 444.008 763.577 445.101 750.947 438.809 C 735.179 430.45 721.326 418.31 715.618 401.009 C 699.35 351.704 751.188 318.535 788.541 355.179 C 793.669 360.21 796.291 366.762 802.913 370.105 C 806.5 370.177 805.177 370.67 807.737 368.44 C 809.727 359.053 801.513 320.461 800.485 306.733 C 855.709 283.585 901.165 246.875 904.461 182.758 z" fill="rgb(227,163,136)" transform="translate(0,0)"></path>
<path d="M 798.452 507.244 C 833.769 514.333 853.657 514.367 888.728 509.946 C 884.692 520.788 878.166 540.84 874.006 550.19 C 869.706 550.153 865.417 549.748 861.187 548.977 C 834.613 543.956 813.531 529.389 798.452 507.244 z" fill="rgb(194,120,91)" transform="translate(0,0)"></path>
<path d="M 947.248 374.417 C 951.508 375.796 952.074 377.889 954.386 381.401 C 964.369 396.562 978.85 406.045 997.116 399.11 C 1000.67 397.76 1004.15 395.743 1007.92 395 C 1013.05 397.66 1012.05 401.119 1009.08 404.876 C 991.677 412.261 975.328 413.465 959.286 401.837 C 952.154 396.667 944.939 389.604 943.642 380.429 C 943.236 377.554 945.412 376.264 947.248 374.417 z" fill="rgb(179,47,23)" transform="translate(0,0)"></path>
<path d="M 494.088 1048.72 C 572.867 1101.29 655.568 1136.47 749.521 1150.91 C 774.756 1154.78 795.75 1155.89 821.073 1157.48 C 817.521 1165.22 814.055 1172.99 810.676 1180.8 L 806.918 1189.7 C 793.167 1211.13 777.338 1248.55 765.345 1272.14 C 736.196 1329.48 708.558 1387.93 679.395 1445.33 C 671.625 1460.63 661.352 1475.35 652.135 1489.82 C 650.47 1492.44 641.617 1505.88 641.031 1507.43 C 637.188 1510.78 630.769 1519.24 626.573 1523.7 C 588.297 1564.38 531.656 1576.44 478.622 1561.65 C 451.987 1554.22 425.009 1537.53 400.539 1523.9 L 337.588 1489.21 C 293.4 1464.72 246.973 1440.54 203.216 1415.72 C 206.815 1408.66 210.982 1399.29 213.265 1391.8 L 213.53 1391.32 C 216.742 1386.52 226.771 1361.09 229.424 1354.48 C 239.689 1328.91 250.706 1303.14 260.516 1277.45 C 263.065 1270.21 266.423 1259.75 269.377 1252.93 C 285.764 1259.07 303.851 1267.39 320.285 1274.16 L 462.362 1332.85 L 466.028 1334.24 C 473.527 1306.22 481.399 1278.29 489.64 1250.48 C 485.604 1241.84 481.938 1233.03 478.653 1224.07 C 458.231 1167.37 460.86 1119.19 486.355 1064.97 C 489.044 1059.82 491.612 1054.02 494.088 1048.72 z" fill="rgb(250,211,10)" transform="translate(0,0)"></path>
<path d="M 494.088 1048.72 C 572.867 1101.29 655.568 1136.47 749.521 1150.91 C 774.756 1154.78 795.75 1155.89 821.073 1157.48 C 817.521 1165.22 814.055 1172.99 810.676 1180.8 C 793.359 1178.82 773.416 1178.6 755.319 1176.86 C 664.502 1168.16 582.901 1133.36 509.597 1080.07 C 503.98 1075.99 492.419 1067.55 486.355 1064.97 C 489.044 1059.82 491.612 1054.02 494.088 1048.72 z" fill="rgb(207,163,13)" transform="translate(0,0)"></path>
<path d="M 462.362 1332.85 L 466.028 1334.24 C 479.483 1346.24 553.234 1368.02 540.73 1391.88 C 538.809 1393.25 538.039 1393.99 535.599 1394.09 C 522.908 1394.65 480.355 1352.04 469.305 1342.23 C 477.247 1363.86 489.447 1386.36 496.694 1408.47 C 498.659 1414.47 496.487 1419.22 490.015 1421.04 C 474.408 1420.55 457.885 1369.83 455.372 1355.65 C 453.382 1344.41 455.982 1341.49 462.362 1332.85 z" fill="rgb(207,163,13)" transform="translate(0,0)"></path>
<path d="M 575.706 1818.2 C 607.753 1828.2 639.53 1839.32 671.544 1849.46 C 676.131 1850.91 681.942 1852.38 686.283 1854.21 C 680.731 1869.09 678.235 1875.44 675.78 1891.02 C 675.643 1931.22 689.766 1974.69 734.167 1983.77 C 735.809 1984.1 739.975 1987.2 741.277 1988.43 C 755.439 2001.85 754.331 2018.96 740.583 2032.29 C 730.777 2041.8 720.581 2044.99 707.544 2048 L 687.21 2048 C 676.019 2044.83 663.276 2041.23 654.083 2033.76 C 631.793 2015.66 622.53 1995.82 598.92 1976.63 C 578.364 1957.35 543.372 1958.52 528.418 1933.11 C 503.346 1890.5 530.994 1866.42 563.537 1845.87 L 572.678 1826.73 C 573.698 1824.23 574.784 1820.81 575.706 1818.2 z" fill="rgb(94,160,204)" transform="translate(0,0)"></path>
<path d="M 575.706 1818.2 C 607.753 1828.2 639.53 1839.32 671.544 1849.46 C 676.131 1850.91 681.942 1852.38 686.283 1854.21 C 680.731 1869.09 678.235 1875.44 675.78 1891.02 C 672.279 1890.03 648.821 1874.13 644.014 1871.13 C 620.474 1856.42 597.102 1839.91 572.678 1826.73 C 573.698 1824.23 574.784 1820.81 575.706 1818.2 z" fill="rgb(58,130,186)" transform="translate(0,0)"></path>
<path d="M 213.265 1391.8 C 208.365 1391.66 199.41 1394.75 194.49 1396.46 C 168.002 1405.66 141.532 1419.08 124.489 1442.13 C 117.396 1451.75 116.43 1463.78 106.971 1471.73 C 93.1071 1483.56 75.1164 1477.84 65.1746 1464.13 C 46.5034 1438.37 49.89 1402.24 66.0065 1376.11 C 71.8975 1366.55 77.5198 1360.05 85.2888 1352.14 C 96.0107 1341.22 106.259 1329.14 114.771 1316.47 C 121.188 1306.85 126.882 1296.78 131.804 1286.32 C 139.144 1270.64 146.909 1243.44 161.6 1234.32 C 199.687 1210.65 230.095 1235.89 251.25 1264.01 C 254.007 1268.16 257.455 1273.68 260.516 1277.45 C 250.706 1303.14 239.689 1328.91 229.424 1354.48 C 226.771 1361.09 216.742 1386.52 213.53 1391.32 L 213.265 1391.8 z" fill="rgb(94,160,204)" transform="translate(0,0)"></path>
<path d="M 213.53 1391.32 C 212.949 1391.06 212.06 1390.31 211.503 1389.89 C 208.595 1360.6 234.723 1288.47 251.25 1264.01 C 254.007 1268.16 257.455 1273.68 260.516 1277.45 C 250.706 1303.14 239.689 1328.91 229.424 1354.48 C 226.771 1361.09 216.742 1386.52 213.53 1391.32 z" fill="rgb(58,130,186)" transform="translate(0,0)"></path>
<path d="M 1209.14 430.573 C 1209.48 429.904 1209.84 429.244 1210.21 428.592 C 1221.81 408.593 1244.24 378.45 1267.77 373.237 C 1303.03 365.426 1322.91 388.828 1331 420.15 L 1331 434.548 C 1318.36 483.758 1288.49 525.237 1255.7 563.352 C 1230.42 546.637 1206.04 530.145 1179.31 515.627 C 1171.72 511.507 1162.82 506.494 1155.66 501.756 C 1158.09 473.732 1167.12 439.188 1172.3 411.169 C 1174.6 398.776 1190.14 384.027 1200.14 399.296 C 1202.44 402.81 1204.81 409.171 1204.66 413.496 C 1205.62 418.137 1207.17 426.747 1209.14 430.573 z" fill="rgb(227,163,136)" transform="translate(0,0)"></path>
<path d="M 1202.23 423.634 C 1201.67 420.22 1202.78 416.364 1204.66 413.496 C 1205.62 418.137 1207.17 426.747 1209.14 430.573 L 1209.42 432.015 C 1210.39 435.945 1211.48 460.176 1209.04 462.004 C 1194.35 472.969 1202.02 432.194 1202.23 423.634 z" fill="rgb(194,120,91)" transform="translate(0,0)"></path>
<path d="M 1202.23 423.634 C 1201.67 420.22 1202.78 416.364 1204.66 413.496 C 1205.62 418.137 1207.17 426.747 1209.14 430.573 L 1209.42 432.015 C 1204 446.685 1205.31 428.813 1202.23 423.634 z" fill="rgb(218,155,119)" transform="translate(0,0)"></path>
<path d="M 295.681 983.432 C 322.911 996.373 342.349 1004.73 371.431 1013.64 C 380.404 1016.38 389.439 1018.9 398.529 1021.22 C 399.51 1021.47 408.986 1023.56 408.75 1023.47 C 400.21 1035.45 419.153 1123.68 391.9 1130.7 C 383.876 1132.76 375.453 1124.07 373.18 1116.24 C 372.739 1114.63 372.534 1113.54 372.232 1111.89 C 370.931 1106.09 370.203 1100.55 369.711 1094.62 C 367.363 1098.17 363.483 1111.86 361.671 1116.73 C 354.609 1135.69 344.749 1154 325.503 1162.91 C 315.958 1167.43 302.225 1168.96 292.229 1164.34 C 216.916 1129.58 278.11 1029.7 295.681 983.432 z" fill="rgb(227,163,136)" transform="translate(0,0)"></path>
<path d="M 369.711 1094.62 C 370.313 1090.91 357.696 1052.61 375.447 1065.48 C 377.358 1066.87 374.999 1096.19 374.939 1100.82 C 373.646 1105.66 374.201 1107.35 372.232 1111.89 C 370.931 1106.09 370.203 1100.55 369.711 1094.62 z" fill="rgb(194,120,91)" transform="translate(0,0)"></path>
<path d="M 374.939 1100.82 C 375.136 1107.86 375.001 1109.61 373.18 1116.24 C 372.739 1114.63 372.534 1113.54 372.232 1111.89 C 374.201 1107.35 373.646 1105.66 374.939 1100.82 z" fill="rgb(218,155,119)" transform="translate(0,0)"></path>
<path d="M 624.428 0 L 633.241 0 C 633.339 1.87316 633.648 7.68046 631.031 8.16228 C 561.1 21.0364 498.251 66.0864 467.655 130.915 C 464.648 137.286 461.469 146.139 457.272 151.691 C 454.495 152.845 455.587 152.598 452.106 151.624 L 451.012 149.537 C 451.075 140.539 463.699 118.418 468.461 110.189 C 493.838 67.1786 532.489 33.5661 578.604 14.4021 C 594.129 8.00698 608.312 4.31131 624.428 0 z" fill="rgb(239,74,40)" transform="translate(0,0)"></path>
<path d="M 0 1242.22 C 2.18049 1231.12 4.11488 1221.63 7.7295 1210.89 C 26.4816 1155.16 79.5905 1119.01 137.785 1118.2 C 140.332 1118.17 143.39 1120.53 144.824 1122.6 C 144.904 1123.97 145.169 1124.02 144.227 1125.2 C 141.377 1128.76 112.271 1129.93 105.43 1131.69 C 87.2405 1136.53 70.3286 1145.29 55.8772 1157.36 C 41.7006 1168.79 30.1929 1183.18 22.1584 1199.53 C 20.2134 1203.46 18.77 1207.28 17.0037 1211.26 C 14.9617 1215.86 14.043 1220.84 12.3702 1225.31 C 10.1157 1231.32 10.185 1243.74 5.95689 1247.28 C 2.37653 1247.13 3.43803 1247.13 0 1244.77 L 0 1242.22 z" fill="rgb(239,74,40)" transform="translate(0,0)"></path>
<path d="M 1008.78 273.025 C 1011.17 272.97 1013.83 272.475 1015.53 274.707 C 1020.68 281.47 1024.64 289.819 1024.01 298.504 C 1023.05 311.667 1008.99 324.349 996.458 326.57 C 995.905 326.266 996.043 326.404 995.883 326.178 C 996.238 324.531 1013.4 312.475 1014.55 300.237 C 1016 284.811 1014.35 286.679 1008.78 273.025 z" fill="rgb(194,120,91)" transform="translate(0,0)"></path>
<path d="M 672.82 40.4129 C 676.448 39.9819 677.637 39.5634 681.093 40.8218 C 683.075 43.6845 682.669 42.3107 682.367 46.1167 C 681.886 46.7268 681.305 47.4637 680.624 48.3274 C 671.142 49.5346 661.799 50.7526 652.408 52.5605 C 570.26 68.3748 510.471 130.719 487.208 209.792 C 484.37 211.672 483.732 211.537 481.056 211.014 L 479.602 208.414 C 478.645 192.87 501.431 151.29 509.811 138.445 C 546.247 82.5864 606.781 47.0575 672.82 40.4129 z" fill="rgb(239,74,40)" transform="translate(0,0)"></path>
<path d="M 139.69 1159.44 C 140.432 1159.39 142.17 1159.69 142.999 1159.8 C 145.036 1162.99 144.643 1161.52 144.449 1165.34 C 143.974 1165.91 143.395 1166.6 142.711 1167.43 C 130.216 1169.92 117.056 1171.13 105.293 1176.3 C 73.4959 1190.3 51.6236 1217.98 44.9955 1252.06 C 43.4396 1260.06 44.4228 1269.65 41.7814 1276.99 C 41.6864 1277.18 41.5914 1277.38 41.4964 1277.58 L 37.4478 1276.98 C 35.467 1275 34.2917 1272.97 34.3579 1270.01 C 35.75 1207.77 79.6077 1164.55 139.69 1159.44 z" fill="rgb(239,74,40)" transform="translate(0,0)"></path>
<metadata><recraft-signature>{"signed_by": "recraft", "signature_b64": "MdzpZXcRNS7yTLNOwtLstStx8RT5l1UuX5E0K8kYP7krgjrN4O5ToOFyzI/sYmjKWryswjTkefySTLO9oUe0AQ==", "signing_algo": "Ed25519", "generation_timestamp": 1779005222, "identifier": "5bd0c114-840a-4851-81c1-7c6034d80bdd"}</recraft-signature></metadata></svg>