<svg xmlns="http://www.w3.org/2000/svg" height="1024" preserveAspectRatio="none" style="display: block;" version="1.1" viewBox="0 0 2048 2048" width="1024">
<path d="M 0 0 L 2048 0 L 2048 2048 L 0 2048 L 0 0 z" fill="rgb(252,252,250)" transform="translate(0,0)"></path>
<path d="M 671.09 843.664 C 638.215 861.733 597.642 880.73 559.409 870.133 C 510.643 856.615 520.361 792.732 551.228 766.78 C 563.526 756.441 585.599 747.524 600.31 739.906 C 624.314 727.631 647.952 714.654 671.192 700.989 C 752.997 651.962 830.265 570.53 886.902 493.869 L 919.422 449.308 C 948.496 409.05 987.998 349.785 1046.16 371.843 C 1083.99 386.188 1109.78 430.384 1132.05 461.927 C 1143.66 478.317 1155.61 494.46 1167.91 510.346 C 1189.02 537.484 1219.25 572.771 1243.91 597.439 C 1243.96 584.421 1244.28 571.405 1244.86 558.4 C 1229.15 556.245 1228.77 548.079 1228.69 533.535 C 1228.63 523.84 1229.21 513.999 1228.98 504.297 C 1231.31 500.883 1234.87 495.542 1239.6 495.225 C 1279.59 492.544 1320.15 495.107 1360.29 494.946 C 1372.96 494.896 1381.22 499.936 1380.29 514.144 C 1379.6 524.603 1382.83 543.507 1376.79 552.487 C 1372.57 557.02 1363.65 556.885 1358.01 557.33 C 1356.63 575.087 1357.04 597.745 1357.12 615.966 C 1357.23 639.991 1356.84 665.094 1357.38 689.061 C 1378.76 703.173 1400.81 716.23 1423.46 728.187 C 1447.29 740.536 1478.04 751.961 1499.27 767.729 C 1520.39 783.423 1532.72 828.712 1516.72 851.345 C 1482.3 897.472 1415.06 862.525 1377.08 843.545 C 1377.03 849.343 1376.91 855.765 1377.42 861.537 C 1386.9 969.842 1438.86 1070.95 1462.6 1175.85 C 1466.73 1194.52 1469.85 1213.41 1471.93 1232.43 C 1473.14 1244.02 1474.13 1256.42 1475.63 1268.01 C 1475.91 1270.22 1478.04 1271.92 1479.31 1273.43 C 1483.3 1278.13 1481.51 1289.17 1483.32 1295.43 C 1484.44 1299.27 1485.25 1301.62 1486.74 1305.32 C 1503.61 1294.99 1511.54 1286.52 1525.33 1272.74 C 1526.89 1271.18 1528.66 1270.36 1530.91 1270.33 C 1542.99 1277.17 1534.9 1306.4 1559.99 1301.66 C 1576.33 1298.57 1589.25 1260.64 1598.19 1264.04 C 1604.74 1272.2 1609.48 1315.34 1628.52 1314.56 C 1648.41 1313.74 1682.95 1289.11 1703.55 1301.42 C 1712.06 1306.51 1674.09 1339.69 1690.6 1348.03 C 1706.09 1342.3 1725.48 1328.25 1743.93 1331.38 C 1747.19 1331.93 1749.12 1338.91 1746.91 1341.48 C 1738.31 1351.46 1732.08 1354.48 1726.45 1367.13 C 1737.61 1366.36 1762.93 1358.93 1767.67 1361.73 C 1771.37 1368.74 1759.68 1388.6 1757.15 1396.87 C 1759.48 1402.98 1768.23 1412.11 1772.26 1418.62 C 1838.18 1525.34 1711.64 1606.66 1626.99 1643.02 C 1517.59 1690.92 1406.26 1715.93 1289.59 1733.1 C 1232.89 1741.95 1175.76 1747.7 1118.43 1750.33 C 1113.42 1755.9 1107.71 1763.82 1100.84 1765.57 C 1093.33 1763.38 1094.75 1757.39 1098.73 1752.42 C 971.533 1759.18 869.744 1757.01 744.11 1738.37 C 735.453 1742.12 722.535 1755.75 713.638 1751.55 C 712.048 1748.35 712.231 1748.55 712.689 1744.95 C 716.251 1739.29 724.034 1735.86 730.098 1732.45 C 727.788 1731.41 650.599 1717.26 640.935 1715.02 C 531.736 1689.64 407.909 1655.29 319.3 1583.7 C 290.622 1560.53 261.549 1524.41 259.132 1486.74 C 256.322 1442.95 274.285 1419.34 300.75 1388.4 C 294.644 1381.04 268.314 1355.8 274.913 1348.56 C 299.277 1338.52 350.289 1386.85 368.7 1346.03 C 374.032 1334.2 368.426 1321.13 375.185 1314.22 C 391.337 1310.32 410.698 1355.59 429.257 1328.44 C 436.514 1317.82 432.025 1301.32 439.283 1295.47 C 456.392 1292.47 474.219 1314.65 481.871 1314.86 C 489.415 1307.91 483.405 1285.18 493.764 1287.44 C 504.693 1289.83 524.077 1310.37 537.551 1304.65 C 543.541 1296.16 533.294 1274.49 543.544 1270.09 C 551.836 1271.26 563.921 1283.45 570.175 1289.44 C 575.616 1220.04 582.607 1180.55 603.132 1113.66 C 627.976 1032.7 671.492 928.606 671.09 843.664 z" fill="rgb(47,28,25)" transform="translate(0,0)"></path>
<path d="M 1592.4 1287.8 C 1597.01 1299.46 1601.67 1311.6 1611.62 1320.06 C 1629.51 1335.28 1646.58 1321.17 1664.71 1315.43 C 1673.73 1312.58 1676.71 1312.23 1686.08 1311.52 C 1678.75 1323.18 1673.86 1337.11 1676.76 1350.83 C 1681.3 1372.36 1702.53 1354.67 1713.17 1349.91 C 1717.25 1348.08 1721.4 1347.09 1725.67 1346.04 C 1703.03 1376.11 1720.95 1382.25 1750.55 1377.08 C 1747.34 1385.31 1739.55 1401.96 1749.84 1407.47 C 1756.36 1406.21 1756.93 1402.88 1757.15 1396.87 C 1759.48 1402.98 1768.23 1412.11 1772.26 1418.62 C 1838.18 1525.34 1711.64 1606.66 1626.99 1643.02 C 1517.59 1690.92 1406.26 1715.93 1289.59 1733.1 C 1232.89 1741.95 1175.76 1747.7 1118.43 1750.33 C 1140.65 1720.15 1155.59 1705.55 1171.17 1668.82 C 1190.75 1622.7 1197.53 1579.33 1179.21 1531.81 C 1175.02 1523.29 1170.21 1515.09 1164.83 1507.27 C 1218.54 1508.79 1368.11 1508.3 1411.54 1484.1 C 1441.44 1467.44 1452.53 1435.95 1461.14 1404.97 C 1471.19 1369.52 1476.1 1345.69 1476.27 1308.75 C 1478.93 1312.61 1482.13 1317.69 1487.49 1317.14 C 1501.04 1315.74 1516.7 1298.46 1526.01 1289.56 C 1531.43 1303.14 1540.14 1316.79 1557.04 1314.75 C 1572.64 1312.87 1583 1299.06 1592.4 1287.8 z" fill="rgb(123,172,76)" transform="translate(0,0)"></path>
<path d="M 1164.83 1507.27 C 1218.54 1508.79 1368.11 1508.3 1411.54 1484.1 C 1441.44 1467.44 1452.53 1435.95 1461.14 1404.97 C 1483.15 1410.68 1513.15 1417.71 1526.1 1439.03 C 1531.05 1447.13 1532.34 1456.95 1529.65 1466.05 C 1511.23 1529.56 1278.27 1530.91 1223.42 1530.93 C 1215.66 1530.94 1183.1 1530.12 1179.21 1531.81 C 1175.02 1523.29 1170.21 1515.09 1164.83 1507.27 z" fill="rgb(59,135,68)" transform="translate(0,0)"></path>
<path d="M 553.464 1291.07 C 559.299 1296.81 563.639 1301.23 568.946 1307.42 C 570.674 1339.8 573.114 1375.17 583.811 1406.21 C 595.516 1441.47 609.123 1468.77 643.844 1485.98 C 692.189 1509.95 815.309 1507.06 872.287 1507.24 C 874.393 1515.65 876.004 1522.63 877.538 1531.14 C 885.601 1615.18 814.497 1673.91 752.218 1717.12 C 746.866 1720.84 735.157 1730.45 730.098 1732.45 C 727.788 1731.41 650.599 1717.26 640.935 1715.02 C 531.736 1689.64 407.909 1655.29 319.3 1583.7 C 290.622 1560.53 261.549 1524.41 259.132 1486.74 C 256.322 1442.95 274.285 1419.34 300.75 1388.4 C 304.46 1395.27 306.695 1404.48 312.596 1407.14 C 316.47 1406.41 314.842 1407.28 317.61 1404.37 C 320.612 1393.07 303.024 1371.46 296.355 1362.27 C 336.414 1377.07 375.076 1389.36 385.367 1331.88 C 394.118 1338.49 407.464 1351.89 418.942 1350.07 C 437.567 1347.12 444.214 1325.13 448.772 1309.59 C 454.245 1312.19 458.011 1313.75 462.906 1317.28 C 469.287 1321.89 473.044 1335.57 481.138 1332.31 C 488.752 1329.25 495.046 1317.34 497.507 1310.13 C 498.121 1308.35 498.698 1306.55 499.238 1304.75 C 524.263 1318.34 549.452 1334.7 553.464 1291.07 z" fill="rgb(123,172,76)" transform="translate(0,0)"></path>
<path d="M 583.811 1406.21 C 595.516 1441.47 609.123 1468.77 643.844 1485.98 C 692.189 1509.95 815.309 1507.06 872.287 1507.24 C 874.393 1515.65 876.004 1522.63 877.538 1531.14 C 811.847 1530.74 544.509 1536.27 520.066 1467.27 C 516.972 1458.56 517.645 1448.95 521.926 1440.75 C 529.74 1426.13 549.936 1415.41 565.381 1410.79 C 571.525 1408.96 577.617 1408.29 583.811 1406.21 z" fill="rgb(59,135,68)" transform="translate(0,0)"></path>
<path d="M 1131.64 1506.91 L 1148.23 1506.99 C 1153.21 1513.71 1159.85 1521.82 1164.31 1530.78 C 1202.26 1606.82 1152.23 1696.58 1099.44 1751.98 C 1099.2 1752.13 1098.97 1752.27 1098.73 1752.42 C 971.533 1759.18 869.744 1757.01 744.11 1738.37 C 821.76 1682.95 913.863 1617.02 884.646 1507.4 C 907.369 1507.02 930.095 1506.9 952.821 1507.07 C 949.65 1521.15 946.368 1537.31 942.284 1550.95 C 933.181 1553.48 925.176 1555.97 917.972 1562.31 C 912.789 1566.87 904.506 1583.4 913.067 1587.24 C 928.909 1594.35 969.816 1603.91 985.426 1599.51 C 991.215 1594.64 995.813 1565.58 999.405 1554.78 C 1010.2 1554.7 1078.46 1557.23 1083.01 1555.65 C 1078.77 1595.03 1113.7 1607.46 1121.69 1561.07 C 1123.34 1551.51 1134.4 1529.13 1137.01 1515.27 C 1135.86 1511.68 1136.16 1512.78 1132.57 1510.03 L 1131.64 1506.91 z" fill="rgb(168,128,97)" transform="translate(0,0)"></path>
<path d="M 1010.38 1521 L 1011.89 1521.69 C 1034.87 1532.12 1058.11 1542.17 1080.97 1552.85 C 1082.2 1553.42 1082.55 1554.5 1083.01 1555.65 C 1078.46 1557.23 1010.2 1554.7 999.405 1554.78 C 1003.34 1543.54 1006.59 1532.2 1010.38 1521 z" fill="rgb(173,136,111)" transform="translate(0,0)"></path>
<path d="M 1132.57 1510.03 C 1131.78 1509.7 1128.19 1508.37 1127.78 1507.47 L 1127.88 1507.27 C 1128.99 1506.7 1130.37 1506.9 1131.64 1506.91 L 1132.57 1510.03 z" fill="rgb(173,136,111)" transform="translate(0,0)"></path>
<path d="M 683.18 837.955 C 779.379 787.766 849.116 736.601 919.765 652.682 C 930.055 640.564 939.931 628.101 949.375 615.313 C 1001.67 544.601 1021.11 496.973 1087.48 598.965 C 1091.56 605.232 1097.51 612.878 1102.09 618.987 C 1128.03 654.034 1157.16 686.616 1189.08 716.32 C 1225.51 750.834 1265.56 781.307 1308.54 807.207 C 1327.19 818.206 1345.43 827.159 1364.58 837.134 C 1364.76 888.029 1370.18 907.386 1381.91 955.856 C 1394.03 996.569 1406.96 1037.04 1420.69 1077.23 C 1433.79 1116.74 1449.01 1163.52 1455.52 1204.76 C 1464.35 1253.57 1467.32 1309.57 1459.59 1358.74 C 1455.54 1384.53 1444.04 1428.02 1430.12 1450.16 C 1417.64 1470.01 1391.6 1482.16 1369.22 1485.28 C 1309.68 1494.29 1252.66 1495.06 1192.79 1495.29 C 1192.8 1481.83 1192.56 1468.38 1192.09 1454.93 C 1190.5 1390.74 1186.73 1326.62 1180.79 1262.68 C 1179.32 1246.74 1177.84 1231.2 1176.21 1214.79 C 1173.57 1188.37 1168.24 1154.21 1150.16 1133.66 C 1143.33 1125.89 1113.9 1124.04 1103.61 1122.71 C 1082.32 1119.95 1060.46 1116.86 1039.03 1116 C 1026.52 1115.5 1014 1115.69 1001.52 1116.57 C 977.243 1118.25 930.062 1123.52 907.515 1129.62 C 878.969 1137.34 874.703 1201.33 871.799 1227.83 C 868.542 1257.19 865.824 1286.61 863.648 1316.08 C 860.357 1360.29 855.654 1413.84 854.93 1457.77 C 854.637 1470.26 854.443 1482.75 854.347 1495.24 C 814.428 1495.22 774.754 1494.74 735.131 1491.48 C 700.119 1488.93 661.739 1487.66 632.745 1465.22 C 602.087 1441.5 589.7 1389.83 585.131 1352.69 C 571.228 1197.78 629.072 1090.82 669.128 946.413 C 678.517 904.036 683.239 882.079 683.18 837.955 z" fill="rgb(252,252,250)" transform="translate(0,0)"></path>
<path d="M 683.18 837.955 C 779.379 787.766 849.116 736.601 919.765 652.682 C 930.055 640.564 939.931 628.101 949.375 615.313 C 1001.67 544.601 1021.11 496.973 1087.48 598.965 C 1091.56 605.232 1097.51 612.878 1102.09 618.987 C 1128.03 654.034 1157.16 686.616 1189.08 716.32 C 1225.51 750.834 1265.56 781.307 1308.54 807.207 C 1327.19 818.206 1345.43 827.159 1364.58 837.134 C 1364.76 888.029 1370.18 907.386 1381.91 955.856 C 1375.84 951.385 1362.02 933.812 1356.35 928.353 C 1346.43 918.797 1297.18 870.11 1288.58 867.822 C 1286.28 865.684 1283.3 863.534 1280.76 861.593 C 1278.23 852.773 1247.92 826.263 1240.28 818.797 C 1221.83 800.693 1203.93 782.042 1186.6 762.87 C 1167.92 742.309 1149.96 720.587 1131.56 699.775 C 1106.57 671.508 1083.56 641.312 1056.41 615.025 C 1047.77 606.666 1035.78 597.073 1023.44 595.843 C 1016.28 595.13 1014.27 598.294 1009.52 602.823 C 993.223 619.738 978.282 638.931 963.332 657.083 C 945.354 678.719 926.934 699.984 908.083 720.864 C 863.56 770.384 815.525 813.119 766.586 858.156 L 766.994 860.663 C 764.797 862.355 764.157 863.139 761.615 864.193 C 753.016 865.587 701.021 913.262 692.198 922.295 C 687.756 926.844 672.943 944.04 669.128 946.413 C 678.517 904.036 683.239 882.079 683.18 837.955 z" fill="rgb(206,195,169)" transform="translate(0,0)"></path>
<path d="M 766.994 860.663 C 777.308 856.665 787.957 854.931 798.93 853.844 C 825.067 851.257 925.323 849.385 944.698 858.044 C 949.44 860.163 953.809 862.43 955.548 867.691 C 959.371 879.254 953.598 1012.58 951.712 1030.76 C 951.165 1036.04 950.531 1042.14 948.11 1046.9 C 945.277 1052.47 937.684 1054.89 932.089 1056.41 C 907.694 1063.05 790.38 1064.31 769.34 1051.98 C 765.792 1049.9 764.486 1047.6 763.582 1043.65 C 760.195 1028.83 761.033 1011.06 760.434 995.817 C 759.42 969.893 758.888 943.952 758.838 918.009 C 758.727 906.193 757.075 873.466 761.615 864.193 C 764.157 863.139 764.797 862.355 766.994 860.663 z" fill="rgb(47,28,25)" transform="translate(0,0)"></path>
<path d="M 821.624 865.442 C 849.045 864.529 920.185 862.399 943.97 869.975 C 945.112 890.063 942.693 1033.38 935.908 1041.21 C 929.684 1048.39 903.777 1046.99 894.373 1047.23 C 869.772 1047.93 797.222 1050.02 775.222 1042.39 C 773.271 1023.14 772.853 1000.63 772.307 981.126 C 771.227 944.537 770.823 907.932 771.097 871.329 C 787.104 866.542 804.957 866.241 821.624 865.442 z" fill="rgb(64,157,204)" transform="translate(0,0)"></path>
<path d="M 1288.58 867.822 C 1292.2 886.68 1289.32 1028.81 1285.24 1045.21 C 1284.45 1048.39 1283.25 1050.34 1280.38 1052.03 C 1258.46 1064.98 1142.87 1063.13 1116.06 1055.74 C 1110.67 1054.25 1101.96 1051.66 1099.39 1046.2 C 1093.22 1033.08 1089.38 881.605 1094.64 863.796 C 1096.55 861.607 1098.27 860.33 1100.95 859.143 C 1125.27 848.372 1225.6 851.495 1254.56 855.175 C 1263.77 856.346 1272.14 858.112 1280.76 861.593 C 1283.3 863.534 1286.28 865.684 1288.58 867.822 z" fill="rgb(47,28,25)" transform="translate(0,0)"></path>
<path d="M 1134.57 865.421 C 1140.18 864.779 1164.85 864.777 1171.12 864.935 C 1198.98 865.636 1251.65 863.195 1276.87 872.134 C 1277.45 887.007 1276.02 1034.77 1272.17 1041.12 C 1265.62 1046.02 1258.52 1045.89 1250.25 1046.88 C 1227.91 1048.13 1128.04 1051.38 1112.06 1041.07 C 1105.41 1026.31 1104.72 892.935 1105.52 870.363 C 1116.6 866.64 1122.79 866.3 1134.57 865.421 z" fill="rgb(64,157,204)" transform="translate(0,0)"></path>
<path d="M 1455.52 1204.76 C 1464.35 1253.57 1467.32 1309.57 1459.59 1358.74 C 1455.54 1384.53 1444.04 1428.02 1430.12 1450.16 C 1417.64 1470.01 1391.6 1482.16 1369.22 1485.28 C 1309.68 1494.29 1252.66 1495.06 1192.79 1495.29 C 1192.8 1481.83 1192.56 1468.38 1192.09 1454.93 C 1195.11 1454.98 1205.64 1452.78 1209.38 1452.04 C 1242.91 1445.67 1275.24 1434.11 1305.21 1417.78 C 1391.52 1370.57 1428.92 1294.65 1455.52 1204.76 z" fill="rgb(206,195,169)" transform="translate(0,0)"></path>
<path d="M 585.131 1352.69 L 586.479 1354.15 C 589.388 1357.38 591.664 1361.21 594.615 1364.71 C 601.289 1372.6 608.54 1379.99 616.31 1386.81 C 671.272 1435.39 745.908 1451.1 817.005 1455.7 C 829.64 1456.5 842.282 1457.2 854.93 1457.77 C 854.637 1470.26 854.443 1482.75 854.347 1495.24 C 814.428 1495.22 774.754 1494.74 735.131 1491.48 C 700.119 1488.93 661.739 1487.66 632.745 1465.22 C 602.087 1441.5 589.7 1389.83 585.131 1352.69 z" fill="rgb(206,195,169)" transform="translate(0,0)"></path>
<path d="M 537.474 819.846 C 545.362 772.838 572.488 767.129 611.636 748.358 C 622.413 743.191 635.781 734.554 646.935 728.748 C 753.176 673.452 834.539 584.339 905.579 489.27 C 914.019 478.078 922.312 466.776 930.458 455.368 C 950.373 427.379 976.713 387.15 1013.21 379.773 C 1049.58 372.555 1084.12 413.122 1102.12 439.899 C 1175.71 549.402 1258.01 644.151 1372.39 713.061 C 1395.69 726.973 1419.57 739.881 1443.98 751.751 C 1480.7 769.787 1503.64 772.733 1511.4 817.617 C 1511.87 829.69 1510.62 844.952 1499.4 852.268 C 1459.09 878.549 1402.94 842.734 1366.17 824.798 C 1269.83 777.795 1186.9 707.96 1120.65 624.062 C 1103.07 601.919 1088.48 577.82 1071.11 556.262 C 1044.46 528.647 1018.84 514.179 986.083 547.019 C 965.065 568.09 949.037 596.168 930.587 620.005 C 862.744 708.261 777.28 778.319 677.272 827.372 C 650.359 840.573 624.663 856.621 594.13 860.089 C 563.199 863.603 537.715 855.575 537.474 819.846 z" fill="rgb(229,71,77)" transform="translate(0,0)"></path>
<path d="M 1071.11 556.262 C 1113.8 573.331 1138.6 602.426 1171.62 631.623 C 1229.05 682.404 1287.43 732.112 1352.82 772.533 C 1367.3 781.487 1387.3 794.927 1402.93 801.278 C 1427.96 811.455 1461.11 818.922 1488.09 820.774 C 1496.32 821.339 1504.45 818.018 1511.4 817.617 C 1511.87 829.69 1510.62 844.952 1499.4 852.268 C 1459.09 878.549 1402.94 842.734 1366.17 824.798 C 1269.83 777.795 1186.9 707.96 1120.65 624.062 C 1103.07 601.919 1088.48 577.82 1071.11 556.262 z" fill="rgb(190,59,57)" transform="translate(0,0)"></path>
<path d="M 537.474 819.846 C 572.394 820.328 601.908 815.717 635.443 806.35 C 658.907 799.796 678.359 789.122 699.709 777.829 C 761.887 744.636 821.012 706.016 876.396 662.421 C 883.89 656.558 924.8 621.542 930.587 620.005 C 862.744 708.261 777.28 778.319 677.272 827.372 C 650.359 840.573 624.663 856.621 594.13 860.089 C 563.199 863.603 537.715 855.575 537.474 819.846 z" fill="rgb(190,59,57)" transform="translate(0,0)"></path>
<path d="M 1004.13 1128.57 C 1042.27 1126.19 1080.43 1132.1 1118.17 1136.81 C 1125.74 1137.75 1133.25 1138.86 1140.7 1140.5 C 1164.68 1167.2 1168.31 1253.05 1171.1 1291.31 C 1176.17 1359.19 1179.28 1427.19 1180.41 1495.25 C 1163.73 1495 1144.85 1494.87 1128.27 1495.31 C 1101.69 1496.02 1090.41 1495.23 1065.78 1484.92 C 1063.05 1473.8 1061.77 1462.15 1060.73 1450.76 C 1065.53 1449 1068.64 1447.59 1073.21 1445.42 C 1073.08 1433.59 1072.75 1422.54 1071.05 1410.82 C 1090.24 1430.64 1125.65 1457.17 1135.42 1413.28 C 1131.21 1397.42 1118.16 1389.2 1106.4 1378.07 C 1089.63 1362.11 1073 1346.01 1056.5 1329.77 C 1049.72 1323.07 1043.17 1312.74 1036.65 1307.9 C 1073.31 1286.26 1081.09 1251.42 1047.97 1221.56 C 1036.48 1214 1024.28 1210.25 1010.4 1212.44 C 997.558 1214.57 986.099 1221.76 978.579 1232.39 C 970.398 1243.59 967.297 1257.72 970.032 1271.33 C 973.601 1289.07 983.594 1298.22 997.807 1307.37 C 981.168 1315.26 975.491 1324.47 963.693 1338.01 L 925.931 1381.45 C 914.243 1394.76 894.006 1408.22 901.849 1426.51 C 904.794 1433.37 907.55 1437.73 914.797 1440.7 C 936.415 1449.56 942.177 1428.36 958.846 1422.08 L 960.199 1421.58 C 958.67 1435.29 952.518 1443.44 967.879 1448.82 C 963.75 1463.97 960.054 1479.8 956.288 1495.08 L 866.159 1494.97 C 865.985 1481.3 867.08 1464.04 867.651 1450.1 C 869.336 1411.4 871.714 1372.72 874.785 1334.1 C 876.954 1301.1 879.645 1268.13 882.859 1235.22 C 885.278 1211.69 890.031 1147.8 911.883 1140.53 C 926.183 1135.78 987.606 1129.69 1004.13 1128.57 z" fill="rgb(178,89,41)" transform="translate(0,0)"></path>
<path d="M 1016.17 1314.3 C 1049.52 1310.06 1059.63 1414.86 1061.23 1438.58 C 1059.38 1439.25 1057.51 1439.87 1055.62 1440.43 C 1032.55 1447.38 991.628 1447.56 970.418 1436.14 C 971.314 1426.45 974.146 1415.21 975.334 1404.79 L 986.981 1394.68 C 993.31 1389.52 1004.35 1382.11 1005.74 1374.44 C 1004.57 1370.63 1005.57 1372.27 1002.42 1369.5 C 993.595 1368.75 961.859 1401.77 950.583 1410.35 C 944.682 1404.78 938.319 1397.61 932.148 1391.59 C 948.013 1375.51 962.775 1356.47 977.784 1339.48 C 990.411 1325.19 996.071 1317.55 1016.17 1314.3 z" fill="rgb(236,180,120)" transform="translate(0,0)"></path>
<path d="M 1257.69 558.906 C 1285.44 558.47 1316.41 557.892 1343.95 558.448 C 1344.06 569.713 1344.95 593.326 1344.16 603.773 C 1345.79 625.332 1344.69 658.714 1344.56 681.02 C 1314.4 661.444 1283.08 634.652 1256.95 610.041 C 1257.21 598.702 1256.14 568.19 1257.69 558.906 z" fill="rgb(206,195,169)" transform="translate(0,0)"></path>
<path d="M 1257.69 558.906 C 1258.47 564.286 1258.16 570.749 1258.18 576.312 C 1261.71 578.623 1264.03 581.757 1267.18 584.439 C 1276.39 592.307 1285.44 600.431 1294.37 608.634 C 1309.67 622.647 1329.23 637.562 1343.65 652.031 C 1343.69 639.633 1342.97 614.722 1344.16 603.773 C 1345.79 625.332 1344.69 658.714 1344.56 681.02 C 1314.4 661.444 1283.08 634.652 1256.95 610.041 C 1257.21 598.702 1256.14 568.19 1257.69 558.906 z" fill="rgb(193,169,150)" transform="translate(0,0)"></path>
<path d="M 1241.95 506.948 C 1283.63 506.851 1325.31 506.966 1366.98 507.293 C 1367.6 518.512 1367.12 533.665 1367.04 545.158 C 1325.94 546.414 1282.77 545.793 1241.51 545.856 L 1241.95 506.948 z" fill="rgb(252,252,250)" transform="translate(0,0)"></path>
<path d="M 1012.14 1224.53 C 1032.65 1221.01 1052.12 1234.83 1055.56 1255.36 C 1059 1275.88 1045.11 1295.3 1024.57 1298.67 C 1004.14 1302.02 984.843 1288.22 981.417 1267.79 C 977.991 1247.37 991.726 1228.03 1012.14 1224.53 z" fill="rgb(236,180,120)" transform="translate(0,0)"></path>
<path d="M 978.442 1454.54 C 991.706 1459.01 1001.16 1461.11 1014.97 1462.53 C 1006.88 1494.82 995.549 1525.77 986.108 1557.66 C 985.302 1560.81 986.151 1559.66 983.829 1561.45 C 976.347 1560.97 962.198 1557.02 954.251 1555.06 C 958.019 1537.81 962.457 1520.6 966.577 1503.41 C 970.441 1487.28 973.819 1470.4 978.442 1454.54 z" fill="rgb(96,63,102)" transform="translate(0,0)"></path>
<path d="M 1042.87 1457.41 C 1052.41 1455.55 1049.44 1462.05 1051.86 1471.52 C 1053.75 1478.88 1054.78 1487.45 1056.44 1495.08 C 1071.64 1500.01 1085.42 1504.63 1100.95 1508.57 C 1096.18 1518.57 1090.71 1530.83 1086.58 1541.03 C 1086.04 1540.78 1085.49 1540.55 1084.94 1540.31 C 1082.33 1539.23 1079.83 1538.09 1077.24 1536.99 C 1056.99 1527.76 1033.58 1518.91 1014.06 1508.76 C 1019.07 1492.25 1024.23 1475.81 1029.02 1459.23 C 1033.65 1458.75 1038.28 1458.19 1042.87 1457.41 z" fill="rgb(96,63,102)" transform="translate(0,0)"></path>
<path d="M 1059.15 1350.43 C 1064.16 1353.62 1067.65 1357.92 1072 1362 L 1105.76 1394.12 C 1103.29 1397.69 1101.04 1401.11 1098.44 1404.64 C 1096.56 1407.83 1095.18 1409.85 1092.98 1412.79 C 1084.78 1406.12 1077.36 1400.28 1070.36 1392.19 C 1070.7 1392.58 1067.47 1390.07 1067.69 1390.23 C 1065.5 1375.22 1063.14 1364.86 1059.15 1350.43 z" fill="rgb(236,180,120)" transform="translate(0,0)"></path>
<path d="M 938.456 1563.87 C 949.094 1564.42 970.965 1570.85 981.471 1573.98 L 981.224 1575.99 C 980.72 1580.44 980.086 1583.81 979.23 1588.22 C 975.666 1588.11 971.017 1588.18 967.589 1587.6 C 956.94 1586.39 947.537 1585.02 937.012 1582.71 L 933.014 1581.8 C 928.833 1580.83 924.677 1579.76 920.547 1578.59 C 926.608 1570.3 928.718 1568.22 938.456 1563.87 z" fill="rgb(206,195,169)" transform="translate(0,0)"></path>
<path d="M 1112 1512.79 C 1115.88 1514.58 1119.78 1515.97 1123.72 1517.66 L 1123.27 1519.06 C 1116.22 1540.24 1110.83 1554.54 1102.71 1575.39 C 1099.25 1579.37 1098.4 1576.58 1097.05 1572.5 C 1090.97 1554.12 1103.54 1531.05 1111.24 1514.47 L 1112 1512.79 z" fill="rgb(252,252,250)" transform="translate(0,0)"></path>
<path d="M 924.978 1402.03 C 931.718 1406.18 935.766 1410.87 940.32 1417.22 C 935.114 1424.81 935.334 1425.73 927.529 1430.9 C 921.853 1431.1 918.324 1430.61 915.012 1425.49 C 907.945 1414.57 917.433 1407.25 924.978 1402.03 z" fill="rgb(236,180,120)" transform="translate(0,0)"></path>
<path d="M 1114.4 1402.46 C 1126 1407.38 1126.29 1422.48 1113.56 1425.27 L 1111.62 1425.75 C 1110.46 1425.5 1101.33 1423.28 1102.29 1421.3 C 1104.86 1415.95 1110.76 1407.27 1114.4 1402.46 z" fill="rgb(236,180,120)" transform="translate(0,0)"></path>
<path d="M 1495.56 359.345 C 1530.18 360.229 1525.1 378.302 1554.15 381.365 C 1571.45 383.19 1575.4 374.559 1589.67 369.895 C 1591.94 369.153 1593.32 370.863 1594.58 372.213 C 1595.83 377.039 1594.91 380.433 1592.52 385.026 C 1580.71 407.646 1562.14 421.793 1535.67 418.256 C 1525.25 416.784 1512.25 407.938 1501.97 413.906 C 1493.24 418.969 1489.14 428.33 1483.35 436.392 C 1475.54 447.261 1466.21 456.96 1453 461.074 C 1428.28 468.771 1405.58 458.635 1383.98 447.326 C 1358.34 438.049 1330.04 451.038 1315.83 473.191 C 1312.6 478.231 1311.23 483.338 1307.53 488.102 C 1304.04 489.557 1305.83 489.407 1301.95 488.207 C 1300.63 486.993 1299.17 485.584 1299.1 483.713 C 1298.3 462.417 1304.14 442.786 1315.6 426.104 C 1348.85 377.719 1389.42 410.467 1431.39 403.993 C 1458.99 399.735 1458.9 366.235 1495.56 359.345 z" fill="rgb(47,28,25)" transform="translate(0,0)"></path>
<path d="M 1496.55 372.323 C 1532.65 372.607 1520.08 400.615 1575.58 391.363 C 1535.6 423.911 1532.87 392.27 1498.44 402.532 C 1481.58 407.56 1471.47 441.763 1449.67 448.436 C 1428.84 454.814 1410.05 446.434 1391.83 437.952 C 1365.07 425.931 1337.6 433.052 1316.65 452.518 C 1337.7 381.576 1397.82 430.324 1444.14 413.343 C 1466.19 405.262 1469 377.095 1496.55 372.323 z" fill="rgb(119,109,105)" transform="translate(0,0)"></path>
<path d="M 1455.35 282.184 C 1480.2 280.675 1485.04 290.242 1507.34 294.95 C 1517.69 297.137 1529.03 277.497 1538.21 288.434 C 1539.25 291.533 1537.76 294.451 1536.64 297.351 C 1515.94 351.117 1480.05 315.732 1462 327.665 C 1445.68 338.452 1445.12 360.27 1418.14 371.561 C 1399.3 379.445 1383.96 374.853 1366.2 367.359 C 1345.5 364.617 1328.45 370.986 1317.13 389.624 C 1313.88 394.988 1312.24 400.253 1308.14 405.148 C 1304.7 406.546 1306.48 406.31 1302.59 405.541 C 1300.92 404.061 1299.05 402.569 1299 400.025 C 1298.32 365.1 1317.18 320.944 1358.06 321.219 C 1369.62 321.296 1386.14 325.212 1396.9 320.747 C 1423.32 309.785 1423.93 288.007 1455.35 282.184 z" fill="rgb(47,28,25)" transform="translate(0,0)"></path>
<path d="M 1457.4 294.217 C 1476.94 292.637 1486.95 304.865 1505.54 306.593 C 1508.83 306.899 1515.86 306.017 1519.4 305.602 C 1493.17 329.853 1482.81 304.48 1455.67 316.703 C 1439.39 324.038 1433.62 353.531 1412.13 360.599 C 1396.59 365.711 1387.21 362.7 1373.24 356.665 C 1350.99 348.918 1332.74 357.39 1315.51 370.748 C 1338.43 310.377 1366.21 346.897 1408.14 329.355 C 1427.28 321.344 1430.11 298.854 1457.4 294.217 z" fill="rgb(119,109,105)" transform="translate(0,0)"></path>
<metadata><recraft-signature>{"signed_by": "recraft", "signature_b64": "UzaOPvw1n2L7BEqWeztwd0lOKyMJwlEN94RpxhJ6Tybl9KKFyBk2ltBB9V9THPNq0/KNQL8BynzeZAHnLy9fCA==", "signing_algo": "Ed25519", "generation_timestamp": 1779010525, "identifier": "965f4867-e79d-4c93-a203-6e0902798f32"}</recraft-signature></metadata></svg>