<svg xmlns="http://www.w3.org/2000/svg" height="1280" preserveAspectRatio="none" style="display: block;" version="1.1" viewBox="0 0 1331 2048" width="832">
<defs>
	<linearGradient gradientUnits="userSpaceOnUse" id="Gradient1" x1="558.641" x2="512.378" y1="878.787" y2="866.962">
		<stop class="stop0" offset="0" stop-color="rgb(39,8,2)" stop-opacity="1"></stop>
		<stop class="stop1" offset="1" stop-color="rgb(19,20,23)" stop-opacity="1"></stop>
	</linearGradient>
</defs>
<path d="M 0 0 L 1331 0 L 1331 2048 L 0 2048 L 0 0 z" fill="rgb(255,255,255)" transform="translate(0,0)"></path>
<path d="M 1142.89 303.187 C 1164.93 304.536 1191.2 298.643 1207.65 316.008 C 1214.87 323.626 1219.76 334.567 1220.19 345.065 C 1221.18 368.967 1220.53 393.06 1220.52 416.999 L 1220.53 564.93 L 1220.3 1018.82 C 1243.62 1048.75 1244.1 1084.07 1220.64 1114.06 L 1220.52 1683.84 C 1220.4 1702.47 1220.67 1714.44 1206.48 1729.33 C 1191.55 1745.01 1162.52 1741.27 1141.2 1741.06 C 1115.91 1721.02 1085.05 1696.9 1059.02 1677.99 L 246.5 1678.18 L 168.264 1678.27 C 154.405 1678.3 137.717 1679.14 124.596 1677.27 C 102.312 1673.52 94.1262 1644.59 110.269 1628.92 C 120.643 1618.85 135.13 1620.93 148.535 1621.12 L 148.652 847.074 L 148.681 608.566 L 148.68 529.089 C 148.713 498.756 146.21 468.65 159.813 440.548 C 173.347 413.227 197.097 392.337 225.922 382.402 C 235.709 379.15 245.917 377.342 256.226 377.036 C 271.961 376.417 291.079 376.952 306.995 376.988 L 390.608 376.888 L 691.611 376.968 L 900.245 376.885 L 968.29 376.767 C 998.396 376.726 1017.1 373.873 1045.17 387.858 C 1055.94 378.063 1137.36 304.489 1142.89 303.187 z" fill="rgb(23,18,14)" transform="translate(0,0)"></path>
<path d="M 1142.06 305.701 C 1162.57 313.212 1170.65 329.722 1170.78 350.798 C 1170.96 380.012 1170.84 409.223 1170.81 438.437 L 1170.77 598.349 L 1170.54 1133.37 L 1170.73 1547.17 L 1170.79 1641.5 C 1170.8 1648.69 1170.91 1655.96 1170.81 1663.15 C 1170.37 1695.88 1176.59 1721.15 1142.69 1739.27 C 1116.22 1718.27 1086.56 1695.08 1059.34 1675.09 C 1044.72 1663.35 1014.12 1642.05 1002.4 1630.49 C 994.909 1623.12 990.055 1613.48 988.586 1603.08 C 986.777 1589.6 987.879 1557.39 987.848 1541.88 L 987.516 1423.22 L 987.664 1025.84 C 1017.62 1003.43 1014.02 966.507 987.898 942.52 C 986.996 916.11 987.711 886.987 987.615 860.358 L 987.714 657.294 L 987.522 530.764 C 987.49 507.722 987.259 484.12 988.131 461.126 C 989.254 431.486 1023.2 410.263 1044 391.891 C 1076.52 362.972 1109.2 334.241 1142.06 305.701 z" fill="rgb(236,222,202)" transform="translate(0,0)"></path>
<path d="M 1130 1007.56 C 1147.95 1015.48 1147.39 1069.17 1146.41 1086.5 C 1145.79 1097.47 1143.51 1128.5 1131.11 1133.43 C 1123.43 1136.48 1118.95 1116.02 1119.25 1111.22 C 1118.89 1104.19 1114.68 1101.91 1108.16 1097.27 C 1099.74 1109.44 1096.51 1148.04 1068.33 1132.12 C 1043.1 1109.84 1043.05 1059.34 1055.25 1029.91 C 1058.49 1022.1 1064.92 1012.86 1073.28 1009.95 C 1077.54 1008.44 1082.24 1008.77 1086.24 1010.87 C 1097.91 1016.9 1103.38 1034.52 1107.1 1046.15 C 1110.28 1043.61 1114.11 1041.92 1117.79 1039.49 C 1123.4 1027.25 1115.79 1017.36 1130 1007.56 z" fill="rgb(23,18,14)" transform="translate(0,0)"></path>
<path d="M 1049.9 1064.86 C 1051.14 1048.01 1054.89 1027.92 1067.41 1015.75 C 1075.37 1008.01 1087.79 1011.42 1093.91 1020.85 C 1112.2 1049.01 1113.54 1105.16 1088.32 1129.56 C 1080.32 1137.29 1065.63 1130.16 1061.84 1121.26 C 1054.03 1107.86 1050.94 1094.51 1049.89 1079.3 C 1048.28 1073.26 1048.22 1070.95 1049.9 1064.86 z" fill="rgb(251,160,21)" transform="translate(0,0)"></path>
<path d="M 1049.9 1064.86 C 1050.04 1069.67 1050.04 1074.49 1049.89 1079.3 C 1048.28 1073.26 1048.22 1070.95 1049.9 1064.86 z" fill="rgb(76,45,7)" transform="translate(0,0)"></path>
<path d="M 1121.72 1031.33 C 1122.81 1024.63 1123.13 1018.21 1127.58 1013.06 C 1130.64 1011.71 1129.25 1011.73 1132.5 1012.97 C 1148.13 1029.3 1149.37 1124.95 1129.82 1130.94 C 1121.91 1128.21 1121.07 1109.29 1120.6 1102.26 C 1140.29 1091.6 1137.81 1063.79 1128.81 1046.68 C 1121.27 1038.99 1119.95 1042.61 1121.72 1031.33 z" fill="rgb(251,160,21)" transform="translate(0,0)"></path>
<path d="M 1121.72 1031.33 C 1126.96 1035.83 1127.46 1039.56 1128.81 1046.68 C 1121.27 1038.99 1119.95 1042.61 1121.72 1031.33 z" fill="rgb(225,128,45)" transform="translate(0,0)"></path>
<path d="M 1115.42 1042.88 C 1133.42 1043.88 1134.25 1073.27 1130.74 1086.3 C 1129.1 1092.37 1126.46 1095.21 1121.92 1099.25 C 1101.07 1104.36 1111.43 1078.13 1109.92 1066.02 C 1108.2 1052.12 1104.6 1050.79 1115.42 1042.88 z" fill="rgb(251,160,21)" transform="translate(0,0)"></path>
<path d="M 283.259 989.162 L 325.263 921.382 C 334.091 907.053 346.824 885.017 356.743 871.979 C 395.827 820.6 455.517 772.819 516.226 750.025 C 554.198 735.767 606.618 726.014 644.639 744.008 C 671.198 756.578 684.634 775.989 694.551 802.377 L 695.979 799.607 C 699.165 805.09 703.892 809.604 708.282 814.214 L 709.052 817.02 C 710.161 816.764 710.163 816.946 710.914 816.311 L 712.875 819.552 L 710.25 820.091 C 723.044 832.863 732.932 846.415 747.288 859.873 C 793.293 902.999 840.711 898.475 896.761 914.645 C 889.35 948.241 881.149 981.659 872.164 1014.87 C 872.7 1016.48 873.203 1017.66 873.855 1019.23 C 877.505 1022.08 881.384 1023.72 885.511 1026.97 L 883.751 1029.16 C 895.123 1036.76 903.248 1045.16 916.735 1049.16 C 939.161 1055.81 955.369 1052.18 969.437 1033.28 C 974.788 1031.66 980.018 1030.24 985.074 1027.83 L 985.203 1144.32 C 985.182 1162.54 985.701 1183.94 984.991 1201.92 L 981.902 1202.89 C 979.575 1194.27 971.758 1184.3 962.771 1183.58 C 943.709 1182.05 922.38 1182.84 903.295 1182.82 L 773.132 1182.78 C 753.968 1151.94 732.01 1122.93 707.536 1096.11 C 705.449 1093.56 705.103 1093.32 704.045 1090.28 C 700.786 1090.14 701.603 1090.02 698.434 1087.94 C 691.726 1087.07 670.695 1087.72 663.031 1087.82 L 439.992 1087.99 C 448 1068.11 455.24 1044.21 462.327 1023.6 C 476.753 981.574 491.524 939.669 506.638 897.886 L 503.295 898.507 C 503.921 896.066 505.311 894.224 503.789 892.251 L 502.198 890.1 C 471.263 917.234 468.22 938.008 453.535 974.411 C 443.738 998.697 433.525 1027.45 423.184 1051.07 C 403.176 1042.51 383.286 1033.68 363.521 1024.58 L 361.756 1026.37 C 348.947 1021.1 336.287 1015.14 323.695 1009.35 L 319.308 1016.63 L 316.844 1016.62 C 312.852 1012.8 307.323 1008.77 302.266 1006.52 L 301.579 1007.23 L 300.064 1004.73 C 298.179 1003 284.484 993.752 281.53 991.645 C 282.357 990.828 282.63 990.18 283.259 989.162 z" fill="rgb(228,69,15)" transform="translate(0,0)"></path>
<path d="M 730.85 1020.66 L 755.779 1031.26 L 756.466 1029.42 C 781.691 1039.61 830.395 1061.1 858.059 1071.41 C 858.902 1071.16 859.745 1070.9 860.588 1070.65 L 862.68 1071.49 C 864.894 1065.22 879.92 1036.4 883.751 1029.16 C 895.123 1036.76 903.248 1045.16 916.735 1049.16 C 939.161 1055.81 955.369 1052.18 969.437 1033.28 C 974.788 1031.66 980.018 1030.24 985.074 1027.83 L 985.203 1144.32 C 985.182 1162.54 985.701 1183.94 984.991 1201.92 L 981.902 1202.89 C 979.575 1194.27 971.758 1184.3 962.771 1183.58 C 943.709 1182.05 922.38 1182.84 903.295 1182.82 L 773.132 1182.78 C 753.968 1151.94 732.01 1122.93 707.536 1096.11 C 705.449 1093.56 705.103 1093.32 704.045 1090.28 C 715.67 1090.53 728.1 1090.32 739.791 1090.32 C 738.374 1077.45 729.676 1029.1 730.85 1020.66 z" fill="rgb(233,201,155)" transform="translate(0,0)"></path>
<path d="M 756.466 1029.42 C 781.691 1039.61 830.395 1061.1 858.059 1071.41 C 858.902 1071.16 859.745 1070.9 860.588 1070.65 L 862.68 1071.49 C 861.593 1073.44 861.619 1073.33 859.916 1074.81 C 850.645 1072.12 833.449 1064.3 823.783 1060.22 L 755.779 1031.26 L 756.466 1029.42 z" fill="rgb(23,18,14)" transform="translate(0,0)"></path>
<path d="M 737.372 1021.26 C 736.363 1004.2 731.822 977.183 729.267 959.896 L 715.969 867.914 C 714.748 859.38 709.543 826.446 710.25 820.091 C 723.044 832.863 732.932 846.415 747.288 859.873 C 793.293 902.999 840.711 898.475 896.761 914.645 C 889.35 948.241 881.149 981.659 872.164 1014.87 C 872.7 1016.48 873.203 1017.66 873.855 1019.23 C 877.505 1022.08 881.384 1023.72 885.511 1026.97 L 883.751 1029.16 C 879.92 1036.4 864.894 1065.22 862.68 1071.49 L 860.588 1070.65 C 859.745 1070.9 858.902 1071.16 858.059 1071.41 C 830.395 1061.1 781.691 1039.61 756.466 1029.42 C 752.424 1027.09 742.104 1023.2 737.372 1021.26 z" fill="rgb(228,69,15)" transform="translate(0,0)"></path>
<path d="M 860.588 1070.65 C 860.981 1057.65 869.687 1029.16 872.164 1014.87 C 872.7 1016.48 873.203 1017.66 873.855 1019.23 C 877.505 1022.08 881.384 1023.72 885.511 1026.97 L 883.751 1029.16 C 879.92 1036.4 864.894 1065.22 862.68 1071.49 L 860.588 1070.65 z" fill="rgb(24,20,20)" transform="translate(0,0)"></path>
<path d="M 695.979 799.607 C 699.165 805.09 703.892 809.604 708.282 814.214 L 709.052 817.02 C 710.161 816.764 710.163 816.946 710.914 816.311 L 712.875 819.552 L 710.25 820.091 C 709.543 826.446 714.748 859.38 715.969 867.914 L 729.267 959.896 C 731.822 977.183 736.363 1004.2 737.372 1021.26 C 742.104 1023.2 752.424 1027.09 756.466 1029.42 L 755.779 1031.26 L 730.85 1020.66 L 728.962 1019.5 L 727.533 1020.75 C 725.363 1014.5 722.761 986.306 721.589 978.467 C 716.01 942.867 710.809 907.208 705.988 871.496 C 703.244 852.142 699.577 820.26 694.551 802.377 L 695.979 799.607 z" fill="rgb(24,20,20)" transform="translate(0,0)"></path>
<path d="M 566.794 848.6 L 568.058 849.978 C 559.327 856.258 511.628 896.563 506.638 897.886 L 503.295 898.507 C 503.921 896.066 505.311 894.224 503.789 892.251 L 502.198 890.1 C 512.302 880.131 552.658 858.778 566.794 848.6 z" fill="url(#Gradient1)" transform="translate(0,0)"></path>
<path d="M 281.53 991.645 C 282.357 990.828 282.63 990.18 283.259 989.162 C 308.521 998.74 338.113 1013.44 363.521 1024.58 L 361.756 1026.37 C 348.947 1021.1 336.287 1015.14 323.695 1009.35 L 319.308 1016.63 L 316.844 1016.62 C 312.852 1012.8 307.323 1008.77 302.266 1006.52 L 301.579 1007.23 L 300.064 1004.73 C 298.179 1003 284.484 993.752 281.53 991.645 z" fill="rgb(24,20,20)" transform="translate(0,0)"></path>
<path d="M 727.533 1020.75 L 728.962 1019.5 L 730.85 1020.66 C 729.676 1029.1 738.374 1077.45 739.791 1090.32 C 728.1 1090.32 715.67 1090.53 704.045 1090.28 C 700.786 1090.14 701.603 1090.02 698.434 1087.94 C 710.948 1087.61 724.681 1087.93 737.288 1087.96 C 733.95 1066.44 729.557 1042.12 727.533 1020.75 z" fill="rgb(23,18,14)" transform="translate(0,0)"></path>
<path d="M 566.794 848.6 C 567.762 847.918 570.31 845.625 571.438 846.566 C 571.422 847.847 568.864 849.337 568.058 849.978 L 566.794 848.6 z" fill="rgb(92,26,9)" transform="translate(0,0)"></path>
<path d="M 209.045 679.598 L 209.033 508.912 C 208.937 485.137 208.548 470.328 226.522 451.21 C 232.457 444.896 245.728 436.835 254.411 436.174 C 278.876 434.31 305.941 435.188 330.647 435.204 L 476.677 435.103 L 993.932 435.036 C 983.104 457.149 984.913 472.516 984.958 496.217 L 985.032 548.137 C 973.085 531.742 958.732 519.375 937.435 517.982 C 913.308 516.405 888.672 517.668 864.433 517.584 L 807.825 517.172 C 795.313 517.077 776.294 516.526 764.523 518.723 C 752.917 520.938 742.072 526.091 733.024 533.69 C 716.791 547.2 710.298 563.855 708.522 584.374 C 681.289 536.3 637.149 518.995 584.474 538.343 C 582.078 533.273 581.46 531.436 577.367 527.686 C 570.095 492.486 545.613 466.031 507.494 465.191 C 487.241 464.745 459.363 479.41 452.814 499.304 C 435.812 550.948 420.94 514.618 387.6 513.921 C 372.563 513.496 357.985 519.124 347.136 529.544 C 335.722 540.811 329.315 556.192 329.353 572.23 C 329.456 589.132 336.165 605.324 348.047 617.345 C 382.932 652.078 452.301 643.14 478.427 601.751 C 485.635 589.696 490.583 576.956 500.762 566.866 C 514.9 552.851 531.568 551.433 550.38 551.383 L 555.197 559.143 C 550.488 564.317 546.284 569.93 542.643 575.903 C 514.528 623.033 528.844 684.999 576.926 712.504 C 598.802 724.807 624.679 727.885 648.83 721.056 C 678.095 712.849 693.902 696.04 708.013 670.606 L 708.282 814.214 C 703.892 809.604 699.165 805.09 695.979 799.607 C 666.742 718.885 582.795 722.583 516.07 747.671 C 451.906 771.796 392.67 819.105 352.35 874.201 C 339.098 892.309 324.074 918.361 312.686 937.893 L 269.108 937.878 C 285.574 930.256 296.887 922.044 303.426 903.934 C 308.638 889.135 307.757 872.872 300.975 858.724 C 293.979 843.854 278.361 830.276 261.471 829.277 C 261.173 825.591 261.835 817.617 262.561 813.978 C 276.247 814.922 324.346 816.012 335.864 811.011 C 360.273 800.414 341.616 771.253 333.672 754.603 L 310.89 706.741 C 307.691 700.099 297.746 678.187 290.595 677.261 C 272.89 674.969 223.886 672.169 209.045 679.598 z" fill="rgb(233,201,155)" transform="translate(0,0)"></path>
<path d="M 948.071 379.5 C 983.053 379.216 1011.63 375.023 1043.38 389.393 C 1030.45 400.989 1004.96 420.176 995.583 432.908 L 484.153 433.024 L 329.401 432.998 C 306.178 432.993 282.587 432.764 259.36 433.315 C 247.825 433.589 232.907 441.456 224.777 449.604 C 214.848 459.425 208.613 472.371 207.124 486.257 C 205.966 497.81 206.493 517.037 206.483 528.973 L 206.534 603.723 L 206.725 826.155 L 206.583 1580.5 L 206.627 1621.18 L 150.914 1621.14 L 151.038 821.519 L 151.038 589.009 L 151.01 522.355 C 150.996 505.954 150.53 490.289 152.453 473.856 C 157.805 424.93 203.418 381.626 252.799 379.814 C 272.398 379.094 293.318 379.705 313.105 379.749 L 443.496 379.556 L 948.071 379.5 z" fill="rgb(236,222,202)" transform="translate(0,0)"></path>
<path d="M 661.973 1089.93 C 661.623 1099.47 643.469 1152.9 639.875 1164.59 L 624.059 1215.95 C 621.934 1222.84 618.412 1235.65 615.955 1241.92 C 596.649 1296.39 576.06 1321.36 538.872 1363.25 C 524.914 1379.03 511.107 1394.94 497.453 1410.98 C 492.197 1417.11 463.422 1451.78 460.038 1454.23 L 458.019 1453.66 C 445.455 1439.5 429.363 1423.82 416.002 1410.23 L 414.423 1412.04 C 410.67 1417.34 407.372 1418.64 404.799 1422.04 C 346.575 1461.2 292.035 1385.82 335.188 1342.53 C 338.175 1340.03 339.669 1338.52 343.165 1336.71 C 343.854 1335.59 343.964 1335.69 343.922 1334.6 C 339.001 1329.7 327.265 1315.53 322.836 1312.27 C 326.967 1306.9 362.524 1282.47 369.997 1277.22 L 420.32 1242.33 C 463.116 1212.65 458.381 1211.65 472.487 1161.6 L 492.671 1090.35 C 546.908 1090.5 608.466 1091.81 661.973 1089.93 z" fill="rgb(38,104,184)" transform="translate(0,0)"></path>
<path d="M 335.188 1342.53 C 338.175 1340.03 339.669 1338.52 343.165 1336.71 C 345.684 1340.64 367.783 1362.83 372.313 1367.3 C 386.384 1381.19 400.701 1398.61 414.423 1412.04 C 410.67 1417.34 407.372 1418.64 404.799 1422.04 C 346.575 1461.2 292.035 1385.82 335.188 1342.53 z" fill="rgb(255,255,255)" transform="translate(0,0)"></path>
<path d="M 343.922 1334.6 C 368.015 1358.39 392.893 1385.33 416.002 1410.23 L 414.423 1412.04 C 400.701 1398.61 386.384 1381.19 372.313 1367.3 C 367.783 1362.83 345.684 1340.64 343.165 1336.71 C 343.854 1335.59 343.964 1335.69 343.922 1334.6 z" fill="rgb(23,18,14)" transform="translate(0,0)"></path>
<path d="M 1161.78 306.117 C 1178.61 305.804 1191.97 304.539 1205.29 317.163 C 1215.32 326.676 1218.23 338.705 1218.28 352.07 C 1218.6 447.577 1218.44 543.191 1218.47 638.699 L 1218.38 1214.9 L 1218.43 1534.8 L 1218.49 1639.33 C 1218.49 1658.36 1218.63 1677.44 1218.01 1696.47 C 1217.64 1707.82 1213.71 1718.2 1205.88 1726.54 C 1191.3 1742.06 1168.8 1739.1 1149.29 1738.54 C 1180.51 1714.73 1173.21 1687.81 1173.2 1652.38 L 1173.23 1551.39 L 1173.23 1209.09 L 1173.25 632.626 L 1173.28 446.181 C 1173.28 413.913 1173.47 381.632 1173.08 349.37 C 1172.9 333.857 1167.92 320.687 1156.23 310.293 C 1153.68 308.965 1153.38 308.742 1151.22 306.851 C 1153.06 305.541 1159.12 306.079 1161.78 306.117 z" fill="rgb(233,201,155)" transform="translate(0,0)"></path>
<path d="M 663.031 1087.82 C 670.695 1087.72 691.726 1087.07 698.434 1087.94 C 701.603 1090.02 700.786 1090.14 704.045 1090.28 C 705.103 1093.32 705.449 1093.56 707.536 1096.11 L 706.559 1097.57 C 714.114 1108.12 724.188 1119.07 732.498 1129.3 C 746.511 1146.49 759.389 1164.58 771.05 1183.45 C 801.262 1233.17 802.257 1265.54 813.299 1320.48 C 821.57 1361.63 827.811 1408.56 836.667 1448.84 L 638.85 1448.83 C 640.651 1415.98 643.953 1381.82 646.283 1348.91 C 649.239 1307.15 651.717 1293.66 633.442 1254.62 L 631.152 1257.23 C 628.232 1252.89 623.196 1244.23 618.511 1243.09 L 615.955 1241.92 C 618.412 1235.65 621.934 1222.84 624.059 1215.95 L 639.875 1164.59 C 643.469 1152.9 661.623 1099.47 661.973 1089.93 L 663.031 1087.82 z" fill="rgb(38,104,184)" transform="translate(0,0)"></path>
<path d="M 663.031 1087.82 C 670.695 1087.72 691.726 1087.07 698.434 1087.94 C 701.603 1090.02 700.786 1090.14 704.045 1090.28 C 705.103 1093.32 705.449 1093.56 707.536 1096.11 L 706.559 1097.57 C 701.671 1095.9 681.829 1100.53 675.019 1101.3 C 671.269 1116.67 637.599 1248.46 633.442 1254.62 L 631.152 1257.23 C 628.232 1252.89 623.196 1244.23 618.511 1243.09 L 615.955 1241.92 C 618.412 1235.65 621.934 1222.84 624.059 1215.95 L 639.875 1164.59 C 643.469 1152.9 661.623 1099.47 661.973 1089.93 L 663.031 1087.82 z" fill="rgb(24,20,20)" transform="translate(0,0)"></path>
<path d="M 123.255 1624.16 C 133.805 1623.12 150.069 1623.57 160.969 1623.6 L 222.884 1623.72 L 424.699 1623.63 L 993.272 1623.89 C 1002.41 1636.51 1041.1 1663.47 1055.93 1675.67 L 1037.25 1675.84 L 464.184 1675.88 L 245.958 1675.91 C 226.652 1675.91 129.86 1678.05 118.427 1672.73 C 112.339 1669.92 107.699 1664.7 105.627 1658.33 C 103.306 1651.26 103.94 1643.56 107.385 1636.97 C 111.076 1629.95 115.881 1626.51 123.255 1624.16 z" fill="rgb(233,201,155)" transform="translate(0,0)"></path>
<path d="M 710.914 816.311 L 710.964 722.933 C 710.941 705.541 710.747 687.561 711.077 670.202 C 711.36 655.34 717.33 645.136 717.583 629.013 C 717.908 608.351 708.655 595.022 711.998 575.363 C 714.39 561.3 720.058 549.508 730.189 539.395 C 738.452 531.115 748.745 525.149 760.037 522.094 C 774.048 518.426 832.579 519.978 850.199 520.005 L 849.924 869.968 L 763.624 869.979 C 738.907 851.847 732.262 838.833 712.875 819.552 L 710.914 816.311 z" fill="rgb(236,222,202)" transform="translate(0,0)"></path>
<path d="M 852.596 520.012 C 898.154 520.468 959.849 507.545 985.023 552.832 L 985.219 820.973 C 985.202 838.652 984.183 842.121 971.134 855.134 C 950.306 872.191 931.001 870.175 905.83 870.097 C 888.016 870.042 870.061 870.044 852.237 870.031 C 852.97 753.36 853.09 636.685 852.596 520.012 z" fill="rgb(236,222,202)" transform="translate(0,0)"></path>
<path d="M 545.374 1359.39 C 577.954 1359.17 610.535 1359.14 643.116 1359.29 C 641.113 1386.76 639.355 1424.22 636.028 1450.96 C 649.746 1451.01 672.136 1450.39 685.172 1451.33 C 666.937 1468.6 656.92 1481.18 656.502 1507.83 C 656.109 1532.91 657.142 1558.18 656.637 1583.21 C 649.489 1591.39 648.491 1594.3 646.537 1605.06 C 605.071 1599.36 536.725 1601.12 493.344 1600.74 C 501.224 1591.53 505.467 1584.08 509.504 1572.51 C 522.941 1534 502.684 1486.33 458.474 1483.71 C 453.477 1483.41 448.271 1483.8 443.22 1484.13 C 439.106 1477.42 435.166 1470.62 431.404 1463.71 L 430.139 1465.63 C 422.167 1452.57 414.735 1437.04 406.858 1424.36 C 406.165 1423.59 405.478 1422.82 404.799 1422.04 C 407.372 1418.64 410.67 1417.34 414.423 1412.04 L 416.002 1410.23 C 429.363 1423.82 445.455 1439.5 458.019 1453.66 L 454.134 1454.81 C 457.183 1456.1 458.026 1457.03 461.023 1456.69 C 469.6 1448.46 479.072 1435.93 487.133 1426.76 C 506.603 1404.62 525.542 1381.15 545.374 1359.39 z" fill="rgb(236,222,202)" transform="translate(0,0)"></path>
<path d="M 416.002 1410.23 C 429.363 1423.82 445.455 1439.5 458.019 1453.66 L 454.134 1454.81 C 442.246 1448.55 429.12 1442.73 416.991 1436.68 C 421.542 1445.83 426.348 1454.84 431.404 1463.71 L 430.139 1465.63 C 422.167 1452.57 414.735 1437.04 406.858 1424.36 C 406.165 1423.59 405.478 1422.82 404.799 1422.04 C 407.372 1418.64 410.67 1417.34 414.423 1412.04 L 416.002 1410.23 z" fill="rgb(24,20,20)" transform="translate(0,0)"></path>
<path d="M 209.048 979.839 L 286.326 979.849 C 283.777 983.849 280.809 987.332 281.53 991.645 C 284.484 993.752 298.179 1003 300.064 1004.73 C 300.237 1016.91 300.485 1029.1 300.807 1041.28 C 282.575 1066.99 273.553 1088.05 300.038 1112.97 L 300.067 1349.7 C 297.671 1351.03 290.024 1355.32 287.885 1355.55 C 263.605 1358.18 233.69 1356.87 209.019 1356.99 C 210.319 1232.13 209.135 1104.89 209.048 979.839 z" fill="rgb(233,201,155)" transform="translate(0,0)"></path>
<path d="M 415.021 635.717 C 396.842 636.898 382.915 636.235 366.249 627.71 C 336.062 612.271 321.951 574.585 339.133 544.146 C 350.936 522.816 375.639 512.131 399.265 518.135 C 409.154 520.543 428.307 532.11 436.506 529.35 C 446.854 525.867 451.743 506.532 456.527 497.193 C 463.395 483.784 476.246 474.558 490.626 470.277 C 507.048 465.509 524.701 467.583 539.571 476.029 C 559.817 487.445 569.257 504.79 575.39 526.153 C 557.74 526.072 552.106 531.436 550.548 549.097 C 545.04 548.929 537.469 548.739 532.192 549.538 C 513.159 552.302 496.485 563.741 487.056 580.504 C 482.706 588.116 478.12 597.978 473.006 604.813 C 459.379 623.029 438.913 632.411 416.747 635.417 C 416.009 635.721 415.883 635.661 415.021 635.717 z" fill="rgb(115,89,70)" transform="translate(0,0)"></path>
<path d="M 415.021 635.717 C 415.938 635.405 415.782 635.427 416.747 635.417 C 416.009 635.721 415.883 635.661 415.021 635.717 z" fill="rgb(92,70,54)" transform="translate(0,0)"></path>
<path d="M 503.789 892.251 C 505.311 894.224 503.921 896.066 503.295 898.507 C 480.34 960.746 458.809 1027.26 436.877 1090.22 C 454.554 1090.05 472.523 1090.27 490.224 1090.32 C 482.506 1115.32 476.244 1140.98 468.714 1166.05 C 464.235 1180.95 459.44 1205.61 449.049 1216.97 C 439.172 1227.77 421.521 1238.41 409.155 1247 C 389.019 1260.77 369.097 1274.84 349.397 1289.23 C 350.359 1242 349.655 1192.73 349.647 1145.35 C 355.373 1144.13 358.042 1142.08 362.896 1140.69 C 373.104 1137.77 383.419 1137.02 392.329 1130.66 C 413.544 1115.51 414.261 1091.38 399.992 1071.21 C 403.985 1063.87 408.628 1056.18 412.847 1048.91 L 424.304 1053.84 C 445.342 1013.14 467.433 916.292 503.789 892.251 z" fill="rgb(233,201,155)" transform="translate(0,0)"></path>
<path d="M 652.785 548.897 C 654.062 550.364 657.512 560.529 659.416 563.701 C 672.97 586.293 687.542 592.72 711.019 599.614 C 729.666 673.793 671.457 738.674 595.572 718.176 C 556.026 705.585 530.667 667.901 530.767 626.618 C 530.778 622.178 531.06 617.65 531.285 613.211 C 549.705 616.082 572.139 613.287 589.545 606.818 C 617.509 596.722 640.277 575.868 652.785 548.897 z" fill="rgb(228,172,141)" transform="translate(0,0)"></path>
<path d="M 629.089 653.951 C 638.06 652.865 635.939 654.374 643.425 658.179 C 655.958 666.091 663.697 655.646 672.515 654.086 C 687.587 651.418 682.437 666.208 677.65 672.732 C 660.842 685.768 634.249 687.59 625.04 662.987 C 623.942 660.054 627.314 656.111 629.089 653.951 z" fill="rgb(23,18,14)" transform="translate(0,0)"></path>
<path d="M 631.741 655.698 C 643.019 658.911 647.666 666.429 661.983 661.705 C 665.44 660.564 671.454 656.957 674.022 656.329 C 675.485 655.975 677.03 656.284 678.244 657.174 C 683.485 660.967 677.782 668.285 675.115 671.566 C 663.392 680.388 647.396 683.653 634.48 673.118 C 627.587 667.495 624.978 662.245 631.741 655.698 z" fill="rgb(228,69,15)" transform="translate(0,0)"></path>
<path d="M 626.072 612.944 C 632.222 611.985 638.026 616.072 639.194 622.186 C 640.362 628.299 636.474 634.239 630.404 635.614 C 626.29 636.547 621.994 635.161 619.2 631.999 C 616.407 628.838 615.559 624.404 616.991 620.436 C 618.422 616.467 621.904 613.595 626.072 612.944 z" fill="rgb(24,20,20)" transform="translate(0,0)"></path>
<path d="M 678.191 611.849 C 693.355 613.287 695.669 627.671 683.685 636.669 C 667.652 635.015 664.214 620.606 678.191 611.849 z" fill="rgb(24,20,20)" transform="translate(0,0)"></path>
<path d="M 953.389 1359.13 L 985.166 1359.11 L 985.268 1527.67 L 982.176 1529 C 979.993 1522.62 977.982 1517.25 974.357 1511.51 C 963.866 1495.22 947.327 1483.79 928.39 1479.72 C 905.653 1474.74 887.689 1480.96 868.904 1493.07 C 852.836 1483.88 836.614 1474.95 820.244 1466.31 C 819.29 1465.71 819.14 1465.62 818.098 1465.16 L 792.589 1450.99 L 839.883 1451.08 C 832.582 1421.52 829.351 1388.92 822.417 1359.76 L 903.991 1359.35 C 905.608 1376.94 917.113 1380.26 933.288 1378.98 C 947.191 1377.87 951.395 1372.36 953.389 1359.13 z" fill="rgb(236,222,202)" transform="translate(0,0)"></path>
<path d="M 682.053 1457.93 C 684.376 1468.55 685.835 1474.57 692.286 1483.65 C 718.603 1520.68 776.4 1511.67 789.668 1468.11 C 791.173 1463.17 791.744 1458.18 792.443 1453.08 C 800.14 1457.57 807.867 1462.01 815.625 1466.4 L 818.098 1465.16 C 819.14 1465.62 819.29 1465.71 820.244 1466.31 L 820.577 1469.06 C 834.495 1475.67 853.374 1487.04 866.672 1495.02 C 865.567 1496.02 864.499 1497.06 863.47 1498.13 C 839.547 1523.14 843.735 1547.55 844.204 1579.95 L 723.518 1579.64 C 709.246 1579.65 669.978 1578.71 659.059 1581.58 C 658.915 1557.34 658.518 1532.98 658.9 1508.74 C 659.251 1486.42 665.602 1472.54 682.053 1457.93 z" fill="rgb(228,69,15)" transform="translate(0,0)"></path>
<path d="M 818.098 1465.16 C 819.14 1465.62 819.29 1465.71 820.244 1466.31 L 820.577 1469.06 C 818.711 1468.15 817.407 1467.46 815.625 1466.4 L 818.098 1465.16 z" fill="rgb(92,26,9)" transform="translate(0,0)"></path>
<path d="M 225.937 1420.32 C 244.105 1403.4 260.973 1385 278.691 1367.6 C 293.171 1353.38 306.358 1348.8 326.157 1349.13 C 323.013 1354.7 321.251 1358.24 319.633 1364.48 C 315.643 1379.64 317.951 1395.77 326.032 1409.2 C 344.07 1438.78 378.912 1441.57 406.858 1424.36 C 414.735 1437.04 422.167 1452.57 430.139 1465.63 C 433.146 1471.9 437.579 1478.98 441.16 1485.06 C 402.624 1496.48 383.22 1521.1 368.972 1556.77 C 358.103 1547.98 340.96 1529.89 330.667 1519.51 C 311.038 1499.88 291.539 1480.11 272.17 1460.22 C 260.875 1448.53 248.946 1435.35 236.622 1424.87 C 234.043 1422.68 229.236 1421.3 225.937 1420.32 z" fill="rgb(228,69,15)" transform="translate(0,0)"></path>
<path d="M 209.093 811.755 L 209.08 732.568 C 209.081 722.398 207.676 684.615 212.242 680.654 C 217.958 675.695 278.653 677.803 287.585 678.074 C 290.737 679.912 295.361 682.657 297.058 685.824 C 307.086 704.527 341.329 771.482 345.757 788.313 L 346.052 789.47 C 346.18 789.961 346.308 790.453 346.436 790.945 C 344.447 798.637 342.51 804.116 335.27 808.278 C 323.014 815.322 277.949 811.408 261.433 811.881 L 262.561 813.978 C 261.835 817.617 261.173 825.591 261.471 829.277 L 256.011 830.298 C 251.893 830.069 248.425 830.538 245.068 830.364 C 244.106 829.615 243.13 828.885 242.14 828.174 C 241.708 823.43 242.285 818.942 241.756 813.913 L 243.186 812.003 C 231.824 811.739 220.458 811.656 209.093 811.755 z" fill="rgb(233,201,155)" transform="translate(0,0)"></path>
<path d="M 243.186 812.003 C 248.373 811.638 256.078 811.799 261.433 811.881 L 262.561 813.978 C 261.835 817.617 261.173 825.591 261.471 829.277 L 256.011 830.298 C 251.893 830.069 248.425 830.538 245.068 830.364 C 244.106 829.615 243.13 828.885 242.14 828.174 C 241.708 823.43 242.285 818.942 241.756 813.913 L 243.186 812.003 z" fill="rgb(24,20,20)" transform="translate(0,0)"></path>
<path d="M 209.146 1450.91 C 221.549 1465.22 246.439 1488.81 260.518 1503.26 L 302.183 1546.08 C 328.067 1572.77 350.841 1597.67 385.639 1612.92 C 380.734 1613.47 375.523 1613.35 372.436 1616.84 C 376.29 1618.53 384.841 1619.71 389.54 1620.73 C 380.27 1621.06 371.251 1621.44 361.975 1620.93 C 312.924 1622.38 258.508 1621.21 209.02 1621.21 L 209.146 1450.91 z" fill="rgb(236,222,202)" transform="translate(0,0)"></path>
<path d="M 372.436 1616.84 C 376.29 1618.53 384.841 1619.71 389.54 1620.73 C 380.27 1621.06 371.251 1621.44 361.975 1620.93 C 367.53 1620.2 370.61 1622.24 372.436 1616.84 z" fill="rgb(233,201,155)" transform="translate(0,0)"></path>
<path d="M 980.789 1565.01 L 981.522 1566.45 C 980.401 1576.13 977.47 1581.01 972.66 1589.02 C 949.473 1627.65 912.131 1621.07 874.134 1621.16 L 767.04 1621.31 L 696.858 1621.19 C 686.278 1621.16 675.082 1621.25 664.49 1620.83 C 662.435 1620.74 658.418 1617.85 656.572 1616.6 C 655.508 1615.45 654.543 1614.29 653.516 1613.16 C 646.355 1605.23 650.708 1585.96 661.75 1583.82 C 676.862 1580.9 696.648 1582.28 712.193 1582.25 C 765.108 1582.04 818.025 1582.12 870.94 1582.46 C 896.116 1582.57 928.145 1583.94 953.107 1580.94 C 961.743 1579.91 973.78 1570.45 980.789 1565.01 z" fill="rgb(251,160,21)" transform="translate(0,0)"></path>
<path d="M 897.011 924.738 C 906.067 929.147 913.244 932.286 923.368 933.704 C 951.09 937.587 963.346 928.5 988.006 945.719 C 988.723 946.084 988.589 945.986 989.103 946.616 C 1016.36 975.629 1011.51 1018.31 971.165 1030.55 C 984.506 996.336 968.783 966.423 932.487 959.226 L 931.124 960.02 C 933.522 962.899 940.068 963.235 944.778 965.131 C 963.901 972.755 975.689 992.095 973.703 1012.59 C 971.15 1039.47 952.275 1049.59 927.474 1049.98 C 950.864 1036.17 954.002 1015.33 932.287 997.365 L 932.632 998.941 L 931.2 997.059 C 936.373 1005.37 941.663 1008.62 943.283 1018.79 C 946.138 1036.72 932.172 1052.28 913.822 1046.07 C 904.12 1042.79 893.937 1033.33 885.511 1026.97 C 881.384 1023.72 877.505 1022.08 873.855 1019.23 C 881.975 991.777 890.953 952.4 897.011 924.738 z" fill="rgb(228,172,141)" transform="translate(0,0)"></path>
<path d="M 223.378 1423.04 C 228.098 1423.01 232.306 1424.01 235.868 1427.18 C 248.342 1438.28 259.807 1451.05 271.541 1462.96 L 351.756 1544.03 C 401.431 1593.43 434.529 1586.15 500.653 1585.95 C 493.42 1597.3 487.479 1602.71 476.512 1610.08 C 457.264 1621.43 441.068 1622.48 419.519 1619.77 C 369.681 1613.5 336.88 1578.21 303.755 1544.13 L 255.077 1494.13 C 241.273 1480.11 226.508 1466.1 213.511 1451.42 C 203.854 1440.52 214.319 1429.04 223.378 1423.04 z" fill="rgb(251,160,21)" transform="translate(0,0)"></path>
<path d="M 319.308 1016.63 L 323.695 1009.35 C 336.287 1015.14 348.947 1021.1 361.756 1026.37 C 377.526 1034.05 394.408 1041.24 410.521 1048.34 C 405.722 1056.18 401.08 1064.1 396.597 1072.12 C 401.633 1076.91 405.429 1084.61 406.61 1091.41 C 408.29 1101.45 405.812 1111.75 399.745 1119.93 C 391.171 1131.67 381.502 1134.42 368.212 1136.65 C 378.358 1123.51 382.648 1110.94 373.595 1095.55 L 372.337 1095.57 C 371.435 1098.98 373.871 1104.32 374.882 1108.25 C 376.595 1114.75 375.6 1121.66 372.123 1127.41 C 362.862 1142.65 343.307 1147.74 329.192 1136.93 C 314.132 1125.4 291.166 1105.08 286.81 1086.01 C 282.851 1068.69 294.817 1054.05 303.769 1040.56 L 319.308 1016.63 z" fill="rgb(228,172,141)" transform="translate(0,0)"></path>
<path d="M 774.738 1185.07 L 893.086 1185.26 C 914.43 1185.2 935.935 1184.77 957.093 1185.46 C 974.496 1186.02 981.055 1199.48 980.708 1215.14 C 980.472 1225.82 980.223 1230.92 973.749 1239.29 C 970.544 1242.15 966.763 1244.31 962.479 1244.73 C 944.616 1246.49 924.578 1245.84 906.545 1245.84 L 800.86 1245.73 C 793.603 1222 786.9 1206.56 774.738 1185.07 z" fill="rgb(233,201,155)" transform="translate(0,0)"></path>
<path d="M 903.457 1481.26 C 943.928 1475.66 982.122 1505.91 983.187 1547.42 C 983.627 1564.56 966.43 1574.47 951.95 1578.32 C 943.921 1580.45 935.779 1580.03 927.5 1579.95 L 846.547 1579.91 C 846.005 1555.86 843.339 1528.13 858.038 1508.15 C 869.71 1492.29 884.478 1484.56 903.457 1481.26 z" fill="rgb(251,160,21)" transform="translate(0,0)"></path>
<path d="M 450.642 1486.37 C 493.997 1482.4 518.087 1525.21 509.318 1563.87 C 507.629 1571.32 505.477 1576.14 502.345 1583.01 C 480.152 1583.31 457.955 1583.24 435.764 1582.79 C 410.414 1580.34 391.474 1575 371.317 1558.45 C 384.52 1522.91 410.613 1490.85 450.642 1486.37 z" fill="rgb(251,160,21)" transform="translate(0,0)"></path>
<path d="M 788.601 872.273 L 886.848 872.231 C 901.844 872.24 934.073 873.164 947.018 870.214 C 957.397 867.777 966.885 862.481 974.409 854.928 C 978.563 850.741 981.802 845.971 985.008 841.053 L 985.282 940.583 C 961.053 927.674 952.784 933.769 926.503 931.585 C 916.603 930.761 906.556 926.672 897.563 922.587 L 899.814 912.824 C 860.601 903.165 803.616 896.607 771.954 875.667 C 771.23 875.296 768.658 874.141 768.516 873.001 C 768.509 872.943 768.569 872.641 768.681 872.625 C 774.54 871.748 782.605 872.118 788.601 872.273 z" fill="rgb(233,201,155)" transform="translate(0,0)"></path>
<path d="M 771.954 875.667 C 771.23 875.296 768.658 874.141 768.516 873.001 C 768.509 872.943 768.569 872.641 768.681 872.625 C 774.54 871.748 782.605 872.118 788.601 872.273 C 781.182 874.304 778.163 871.637 771.954 875.667 z" fill="rgb(235,195,134)" transform="translate(0,0)"></path>
<path d="M 302.27 1115.23 C 316.721 1129.79 326.136 1143.45 347.033 1145.22 L 346.845 1291.14 L 339.699 1295.95 C 333.633 1300.05 321.886 1306.39 320.671 1312.67 L 322.836 1312.27 C 327.265 1315.53 339.001 1329.7 343.922 1334.6 C 343.964 1335.69 343.854 1335.59 343.165 1336.71 C 339.669 1338.52 338.175 1340.03 335.188 1342.53 L 333.903 1340.97 C 332.239 1342.07 329.184 1345.36 327.643 1346.91 C 317.154 1346.19 313.127 1346.57 302.86 1348.91 C 302.887 1272.64 304.229 1191.2 302.27 1115.23 z" fill="rgb(233,201,155)" transform="translate(0,0)"></path>
<path d="M 322.836 1312.27 C 327.265 1315.53 339.001 1329.7 343.922 1334.6 C 343.964 1335.69 343.854 1335.59 343.165 1336.71 C 339.669 1338.52 338.175 1340.03 335.188 1342.53 L 333.903 1340.97 C 335.413 1337.27 323.503 1316.84 320.671 1312.67 L 322.836 1312.27 z" fill="rgb(24,20,20)" transform="translate(0,0)"></path>
<path d="M 245.068 830.364 C 248.425 830.538 251.893 830.069 256.011 830.298 C 271.101 832.342 283.111 837.572 292.678 849.905 C 301.855 861.885 305.848 877.042 303.763 891.988 C 297.284 939.253 236.863 954.634 209.817 917.008 L 209.045 915.926 L 209.004 853.098 C 219.285 840.221 228.716 833.826 245.068 830.364 z" fill="rgb(233,201,155)" transform="translate(0,0)"></path>
<path d="M 801.524 1248.1 C 851.201 1248.42 900.879 1248.4 950.556 1248.04 C 951.132 1277.86 950.445 1307.89 950.959 1337.74 C 951.131 1347.77 952.422 1363.17 947.393 1371.62 C 942.518 1375.62 942.212 1375.12 936.588 1375.67 C 911.911 1378.09 904.521 1372.22 906.525 1346.71 C 907.176 1338.43 906.51 1325.4 907.058 1316.22 C 909.799 1270.37 888.87 1273.73 853.282 1273.97 L 806.825 1274.02 C 805.344 1265.61 803.273 1256.51 801.524 1248.1 z" fill="rgb(233,201,155)" transform="translate(0,0)"></path>
<path d="M 863.255 1276.5 C 878.096 1276.2 900.704 1273.59 903.395 1295.01 C 905.828 1314.38 904.502 1337.08 904.379 1356.89 L 847.282 1357.04 L 822.242 1357.18 L 807.549 1276.59 L 863.255 1276.5 z" fill="rgb(233,201,155)" transform="translate(0,0)"></path>
<path d="M 618.511 1243.09 C 623.196 1244.23 628.232 1252.89 631.152 1257.23 C 651.561 1293.8 646.109 1317.02 643.19 1357.07 L 547.219 1357 C 584.085 1316.93 598.305 1293.79 618.511 1243.09 z" fill="rgb(233,201,155)" transform="translate(0,0)"></path>
<path d="M 532.023 610.731 L 532.576 608.489 C 547.728 548.403 595.079 522.579 653.878 537.918 L 652.929 540.828 L 652.522 541.875 C 641.881 569.625 623.38 588.748 596.301 601.086 C 582.92 607.193 568.492 610.678 553.798 611.352 C 552.183 612.027 552.124 611.875 550.224 611.702 C 543.959 611.997 538.24 611.312 532.023 610.731 z" fill="rgb(115,89,70)" transform="translate(0,0)"></path>
<path d="M 550.224 611.702 C 551.882 610.97 551.966 611.156 553.798 611.352 C 552.183 612.027 552.124 611.875 550.224 611.702 z" fill="rgb(92,70,54)" transform="translate(0,0)"></path>
<path d="M 684.135 1451.24 L 790.022 1450.99 C 787.971 1467.91 785.789 1476.62 774.056 1489.62 C 738.604 1521.8 686.545 1499.62 684.135 1451.24 z" fill="rgb(255,255,255)" transform="translate(0,0)"></path>
<path d="M 982.167 1227.97 L 985.085 1228.9 L 985.109 1356.72 C 974.439 1356.68 963.769 1356.71 953.099 1356.8 L 952.977 1248.43 C 969.343 1247.1 977.093 1244.66 982.167 1227.97 z" fill="rgb(233,201,155)" transform="translate(0,0)"></path>
<path d="M 209.117 940.237 L 310.757 940.173 L 295.822 964.453 L 288.095 977.256 C 262.692 976.599 234.636 977.073 209.038 977.029 L 209.117 940.237 z" fill="rgb(233,201,155)" transform="translate(0,0)"></path>
<path d="M 209.082 1359.12 L 284.3 1359.03 C 271.615 1371.15 258.975 1384.19 246.589 1396.69 C 239.866 1403.61 232.97 1410.36 225.907 1416.93 C 219.647 1422.7 214.246 1426.04 209.098 1432.94 L 209.082 1359.12 z" fill="rgb(236,222,202)" transform="translate(0,0)"></path>
<path d="M 653.878 537.918 L 656.225 538.65 C 659.034 539.966 662.177 541.262 665.043 542.512 C 665.801 542.781 665.683 542.753 666.317 543.306 C 669.428 545.002 671.363 546.277 674.157 548.473 C 674.931 548.882 674.848 548.85 675.56 549.438 L 678.039 551.455 C 678.778 551.823 678.68 551.788 679.291 552.379 C 684.631 556.554 689.445 561.361 693.627 566.695 C 694.226 567.368 694.158 567.212 694.507 567.949 C 702.198 576.187 706.591 586.963 710.713 597.388 C 701.347 594.003 688.158 589.717 680.305 583.638 C 667.598 573.803 656.74 557.267 654.647 541.181 L 652.929 540.828 L 653.878 537.918 z" fill="rgb(115,89,70)" transform="translate(0,0)"></path>
<path d="M 653.878 537.918 L 656.225 538.65 L 654.647 541.181 L 652.929 540.828 L 653.878 537.918 z" fill="rgb(92,70,54)" transform="translate(0,0)"></path>
<path d="M 982.33 1573.87 L 985.173 1576.02 C 984.905 1594.31 984.689 1604.27 992.056 1621.3 C 975.226 1621.07 951.934 1622.01 935.986 1620.73 C 959.887 1611.46 973.842 1598.42 982.33 1573.87 z" fill="rgb(233,201,155)" transform="translate(0,0)"></path>
<path d="M 1220.24 1022.83 C 1224.08 1025.69 1229.62 1036.51 1231.27 1041.35 C 1237.69 1060.88 1236.22 1082.14 1227.17 1100.6 C 1224.74 1104.89 1223.6 1106.41 1220.49 1110.27 L 1220.24 1022.83 z" fill="rgb(251,160,21)" transform="translate(0,0)"></path>
<path d="M 209.043 814.063 C 219.591 814.093 231.337 814.384 241.756 813.913 C 242.285 818.942 241.708 823.43 242.14 828.174 C 225.054 835.033 222.517 834.316 208.971 848.901 L 209.043 814.063 z" fill="rgb(233,201,155)" transform="translate(0,0)"></path>
<path d="M 302.266 1006.52 C 307.323 1008.77 312.852 1012.8 316.844 1016.62 C 311.983 1022.06 307.56 1030.97 302.89 1037.04 C 302.526 1027.83 302.953 1014.86 302.266 1006.52 z" fill="rgb(233,201,155)" transform="translate(0,0)"></path>
<path d="M 209.063 920.453 C 211.953 922.566 213.067 924.81 215.713 927.289 C 221.538 932.747 227.692 934.553 234.604 937.661 C 226.391 938.122 217.29 937.85 208.96 937.883 C 208.949 932.073 208.983 926.263 209.063 920.453 z" fill="rgb(236,222,202)" transform="translate(0,0)"></path>
<path d="M 981.902 1202.89 L 984.991 1201.92 C 985.234 1210.7 985.116 1220.07 985.085 1228.9 L 982.167 1227.97 C 982.783 1218.65 982.887 1212.18 981.902 1202.89 z" fill="rgb(235,195,134)" transform="translate(0,0)"></path>
<path d="M 851 665.5 C 852.73 668.048 852 704.862 852 710.5 C 850.27 707.952 851 671.138 851 665.5 z" fill="rgb(24,20,20)" transform="translate(0,0)"></path>
<path d="M 982.33 1573.87 C 983.017 1571.53 983.096 1568.95 984.395 1566.84 L 984.547 1566.76 L 984.732 1567.02 L 984.37 1567.49 L 984.998 1568.32 C 985.136 1570.85 985.136 1573.47 985.173 1576.02 L 982.33 1573.87 z" fill="rgb(236,222,202)" transform="translate(0,0)"></path>
<path d="M 985.268 1527.67 C 985.231 1529.15 985.287 1534.7 984.487 1535.6 C 983.599 1535.54 982.484 1530.02 982.176 1529 L 985.268 1527.67 z" fill="rgb(236,222,202)" transform="translate(0,0)"></path>
<metadata><recraft-signature>{"signed_by": "recraft", "signature_b64": "/DqfGfSmdhcIfEnAH6WvbY/9R8MBUkvdI6Yl1AhRDZ74ycpoph7kTLQ0Vzi56hdJ0FtfV6bG50MguV9dA3wdDg==", "signing_algo": "Ed25519", "generation_timestamp": 1779005314, "identifier": "f30531de-e92c-4a27-8175-115dc03bb123"}</recraft-signature></metadata></svg>