<svg xmlns="http://www.w3.org/2000/svg" height="1280" preserveAspectRatio="none" style="display: block;" version="1.1" viewBox="0 0 1331 2048" width="832">
<path d="M 0 0 L 1331 0 L 1331 2048 L 0 2048 L 0 0 z" fill="rgb(255,255,255)" transform="translate(0,0)"></path>
<path d="M 531.475 1123.06 C 590.198 1167.17 685.216 1189.24 758.035 1189.16 C 772.495 1189.14 788.5 1186.68 802.952 1185.47 C 807.048 1185.13 819.34 1183.59 822.942 1184.1 C 828.638 1190.73 834.928 1198.36 840.879 1204.62 C 887.764 1261.51 937.938 1315.71 982.654 1374.52 C 1004.66 1403.47 1008.18 1450.47 987.847 1481.33 C 974.752 1501.21 955.689 1521.08 939.876 1539.12 L 874.443 1614.87 L 838.676 1656.72 C 830.954 1665.81 821.444 1677.78 812.448 1685.33 C 798.305 1697.19 765.949 1683.94 752.007 1675.31 C 720.027 1655.94 696.271 1635.41 673.49 1605.87 C 664.636 1593.01 657.326 1581.49 670.229 1568.26 C 680.599 1557.62 690.011 1544.63 701.105 1534.67 C 713.416 1520.56 727.192 1507.26 739.243 1492.87 C 754.425 1474.75 770.777 1459.46 788.6 1444.01 C 783.313 1437.58 774.934 1429.65 769.139 1423.3 C 754.637 1407.43 738.914 1391.57 725.059 1375.2 C 703.934 1421.81 692.299 1475.75 668.73 1520.94 C 654.965 1547.34 608.953 1569.29 583.181 1584.25 L 475.501 1647.08 C 464.352 1653.51 447.489 1664.8 436.545 1670.37 C 426.018 1675.73 406.449 1658.32 398.562 1650.15 C 372.849 1621.18 357.701 1592.62 343.203 1557.35 C 339.31 1544 334.02 1516 344.683 1504.79 C 352.127 1496.96 366.939 1489.99 376.895 1484.74 C 417.476 1463.18 459.563 1440.49 500.723 1420.33 C 503.415 1387 524.254 1313.3 534.915 1279.16 C 505.139 1235.3 507.382 1188.49 524.448 1140.64 C 526.635 1135.88 528.858 1128.9 531.475 1123.06 z" fill="rgb(77,142,190)" transform="translate(0,0)"></path>
<path d="M 531.475 1123.06 C 590.198 1167.17 685.216 1189.24 758.035 1189.16 C 772.495 1189.14 788.5 1186.68 802.952 1185.47 C 807.048 1185.13 819.34 1183.59 822.942 1184.1 C 828.638 1190.73 834.928 1198.36 840.879 1204.62 C 818.535 1217.88 719.687 1211.09 692.999 1207.81 C 647.093 1202.16 594.77 1178.47 553.369 1158.16 C 543.942 1153.53 532.457 1147.61 524.448 1140.64 C 526.635 1135.88 528.858 1128.9 531.475 1123.06 z" fill="rgb(43,93,130)" transform="translate(0,0)"></path>
<path d="M 725.059 1375.2 C 733.045 1347.57 748.87 1311.45 759.23 1284.2 C 764.322 1270.81 776.375 1239.32 782.637 1227.03 C 781.035 1249.83 777.244 1271.56 773.682 1294.09 L 758.097 1389.87 C 767.82 1406.76 782.446 1423.7 793.208 1440.76 C 800.069 1437.54 814.676 1429.61 822.172 1433.2 C 822.06 1438.56 811.625 1442.99 807.331 1445.13 C 815.36 1451.94 831.025 1463.42 834.322 1472.4 L 833.749 1474.08 C 821.373 1475.27 811.633 1455.9 798.902 1458.4 C 771.826 1463.71 715.334 1533.86 701.105 1534.67 C 713.416 1520.56 727.192 1507.26 739.243 1492.87 C 754.425 1474.75 770.777 1459.46 788.6 1444.01 C 783.313 1437.58 774.934 1429.65 769.139 1423.3 C 754.637 1407.43 738.914 1391.57 725.059 1375.2 z" fill="rgb(43,93,130)" transform="translate(0,0)"></path>
<path d="M 534.915 1279.16 C 536.48 1270.82 552.6 1217.04 557.649 1214.44 C 558.401 1214.88 559.9 1215.58 559.819 1216.78 C 557.957 1244.14 546.485 1270.41 540.77 1296.72 C 531.845 1337.82 521.346 1379.51 513.169 1420.64 C 522.633 1418.7 552.055 1415.61 558.087 1424.96 C 557.649 1428.33 558.135 1427.06 555.871 1429.75 C 546.495 1430.21 525.245 1428.34 517.261 1430.72 C 472.97 1443.91 431.076 1465.19 389.382 1484.84 C 384.35 1487.21 380.593 1490.89 376.895 1484.74 C 417.476 1463.18 459.563 1440.49 500.723 1420.33 C 503.415 1387 524.254 1313.3 534.915 1279.16 z" fill="rgb(43,93,130)" transform="translate(0,0)"></path>
<path d="M 843.15 500.543 L 848.768 499.534 C 854.413 502.15 881.984 505.64 890.286 506.75 C 903.737 508.547 916.516 515.272 928.005 517.62 L 929.541 518.002 C 938.564 523.252 943.316 526.374 950.504 533.894 C 948.352 551.26 937.994 586.787 932.427 604.327 C 916.893 653.279 900.419 704.075 877.483 750.111 C 871.448 762.224 841.849 801.555 840.363 806.798 C 844.477 812.699 848.499 818.434 852.378 824.501 C 898.121 898.582 898.419 1028.06 878.218 1110.93 C 873.137 1131.77 865.967 1154.39 859.04 1174.84 C 848.959 1178.28 833.584 1182.74 822.942 1184.1 C 819.34 1183.59 807.048 1185.13 802.952 1185.47 C 788.5 1186.68 772.495 1189.14 758.035 1189.16 C 685.216 1189.24 590.198 1167.17 531.475 1123.06 C 522.647 1116.11 510.752 1110.74 500.798 1102.56 C 507.681 1078.52 526.767 1053.96 538.56 1031.92 C 555.838 999.62 576.721 968.936 595.832 937.906 C 598.333 933.846 601.287 902.187 602.932 894.212 C 607.692 871.137 613.412 852.078 621.416 829.997 L 622.203 829.959 C 624.499 829.426 628.389 829.267 630.815 829.09 C 646.86 827.921 661.715 824.294 677.262 820.337 C 684.171 807.124 690.881 793.808 697.391 780.394 C 708.558 760.022 719.534 735.19 729.413 714.027 L 771.8 623.731 C 781.38 602.867 791.096 579.893 801.149 559.465 L 800.824 557.838 C 807.931 540.789 812.706 522.051 820.603 505.653 C 822.517 501.68 838.601 500.943 843.15 500.543 z" fill="rgb(200,171,132)" transform="translate(0,0)"></path>
<path d="M 801.149 559.465 C 801.83 568.209 780.066 624.406 775.482 634.749 C 745.463 702.478 719.282 772.572 679.058 835.162 C 673.992 843.044 660.129 872.131 654.003 875.964 C 650.893 872.551 658.141 853.175 659.408 847.7 C 650.402 842.702 628.739 834.568 622.203 829.959 C 624.499 829.426 628.389 829.267 630.815 829.09 C 646.86 827.921 661.715 824.294 677.262 820.337 C 684.171 807.124 690.881 793.808 697.391 780.394 C 708.558 760.022 719.534 735.19 729.413 714.027 L 771.8 623.731 C 781.38 602.867 791.096 579.893 801.149 559.465 z" fill="rgb(159,125,94)" transform="translate(0,0)"></path>
<path d="M 852.378 824.501 C 849.654 829.041 841.537 838.714 837.968 843.214 C 828.685 854.796 819.566 866.508 810.614 878.347 C 801.479 890.63 792.614 904.023 783.683 916.495 C 782.425 918.251 781.619 918.002 779.973 917.998 L 778.371 916.11 C 784.11 900.717 829.864 818.072 840.363 806.798 C 844.477 812.699 848.499 818.434 852.378 824.501 z" fill="rgb(159,125,94)" transform="translate(0,0)"></path>
<path d="M 728.177 407.775 C 730.07 408.244 731.61 408.573 733.459 409.232 C 738.139 409.812 753.254 411.033 754.986 414.428 C 761.053 426.317 763.122 456.692 764.579 470.386 C 777.272 479.578 785.476 486.341 796.734 497.255 C 789.416 501.993 785.658 504.35 777.091 505.797 C 768.906 508.478 770.899 507.615 773.629 516.723 C 776.912 522.25 783.415 530.548 787.304 536.475 C 789.746 540.196 798.883 555.63 800.824 557.838 L 801.149 559.465 C 791.096 579.893 781.38 602.867 771.8 623.731 L 729.413 714.027 C 719.534 735.19 708.558 760.022 697.391 780.394 C 690.881 793.808 684.171 807.124 677.262 820.337 C 661.715 824.294 646.86 827.921 630.815 829.09 C 628.389 829.267 624.499 829.426 622.203 829.959 L 621.416 829.997 C 538.496 827.898 460.306 773.117 451.51 685.66 C 448.67 657.416 455.929 637.422 470.03 613.183 C 440.227 622.085 428.873 635.662 426.386 666.771 C 411.766 655.909 404.238 635.864 409.398 618.2 C 412.117 608.679 418.637 600.696 427.424 596.13 C 438.433 590.413 450.127 590.849 461.68 594.561 L 463.036 591.739 C 461.521 590.203 460.025 588.65 458.546 587.08 C 440.874 568.26 433.735 532.336 455.278 513.492 C 467.593 502.719 480.746 501.228 496.287 502.147 C 478.163 527.317 480.624 546.319 484.591 575.943 C 507.795 496.544 553.127 458.294 633.88 445.941 C 634.178 438.143 634.398 434.639 635.833 426.831 C 643.315 422.013 655.101 419.851 658.125 415.174 L 658.843 415.166 C 662.622 416.71 687.475 410.612 695.035 410.043 C 705.991 409.217 716.977 408.243 728.177 407.775 z" fill="rgb(51,45,36)" transform="translate(0,0)"></path>
<path d="M 652.73 567.085 C 680.91 565.107 725.012 562.011 734.804 527.148 C 737.519 517.483 734.463 508.854 729.336 500.498 C 739.95 504.265 749.208 505.414 760.278 507.139 C 767.157 506.781 770.457 506.402 777.091 505.797 C 768.906 508.478 770.899 507.615 773.629 516.723 C 776.912 522.25 783.415 530.548 787.304 536.475 C 789.746 540.196 798.883 555.63 800.824 557.838 L 801.149 559.465 C 791.096 579.893 781.38 602.867 771.8 623.731 L 729.413 714.027 C 719.534 735.19 708.558 760.022 697.391 780.394 C 690.878 759.534 685.703 752.645 670.561 738.232 C 669.377 738.467 668.19 738.684 666.999 738.883 C 651.683 741.425 638.23 740.809 625.007 731.547 C 607.929 720.488 599.682 687.26 613.299 670.883 C 631.836 648.589 662.954 663.881 680.493 677.525 C 669.106 632.173 678.363 608.868 652.73 567.085 z" fill="rgb(226,158,126)" transform="translate(0,0)"></path>
<path d="M 760.278 507.139 C 767.157 506.781 770.457 506.402 777.091 505.797 C 768.906 508.478 770.899 507.615 773.629 516.723 C 770.513 518.586 762.887 509.618 760.278 507.139 z" fill="rgb(159,125,94)" transform="translate(0,0)"></path>
<path d="M 728.177 407.775 C 730.07 408.244 731.61 408.573 733.459 409.232 C 738.139 409.812 753.254 411.033 754.986 414.428 C 761.053 426.317 763.122 456.692 764.579 470.386 C 725.67 444.681 679.398 438.018 633.88 445.941 C 634.178 438.143 634.398 434.639 635.833 426.831 C 643.315 422.013 655.101 419.851 658.125 415.174 L 658.843 415.166 C 662.622 416.71 687.475 410.612 695.035 410.043 C 705.991 409.217 716.977 408.243 728.177 407.775 z" fill="rgb(200,171,132)" transform="translate(0,0)"></path>
<path d="M 463.036 591.739 C 467.668 595.243 468.033 596.933 461.68 594.561 L 463.036 591.739 z" fill="rgb(240,238,232)" transform="translate(0,0)"></path>
<path d="M 673.49 1605.87 C 696.271 1635.41 720.027 1655.94 752.007 1675.31 C 750.198 1677.91 743.63 1686.48 743.488 1688.74 C 743.528 1689.79 743.727 1693.38 743.625 1694.21 L 740.844 1698.28 C 731.307 1715.59 728.541 1721.61 732.11 1742.01 C 733.854 1754.56 737.22 1765.09 742.774 1776.54 C 755.543 1802.68 793.242 1832.3 763.927 1861.02 C 737.724 1886.68 675.611 1871.14 660.303 1839.15 C 651.274 1820.28 641.451 1798.49 629.001 1781.89 C 616.424 1765.13 593.874 1759.67 580.042 1744.39 C 542.684 1697.34 572.494 1670.48 616.4 1650.31 C 623.04 1647.26 637.239 1634.7 642.48 1629.89 L 646.837 1625.71 L 650.93 1621.1 L 653.892 1621.53 C 657.516 1619.67 669.28 1609.32 673.49 1605.87 z" fill="rgb(247,173,11)" transform="translate(0,0)"></path>
<path d="M 673.49 1605.87 C 696.271 1635.41 720.027 1655.94 752.007 1675.31 C 750.198 1677.91 743.63 1686.48 743.488 1688.74 C 741.321 1689.28 737.476 1689.12 735.107 1689.12 C 729.498 1685.83 717.682 1681.34 710.941 1677.87 C 691.057 1667.64 676.756 1656.83 660.642 1641.7 C 656.301 1635.65 653.535 1628.04 650.93 1621.1 L 653.892 1621.53 C 657.516 1619.67 669.28 1609.32 673.49 1605.87 z" fill="rgb(226,158,126)" transform="translate(0,0)"></path>
<path d="M 650.93 1621.1 C 653.535 1628.04 656.301 1635.65 660.642 1641.7 C 676.756 1656.83 691.057 1667.64 710.941 1677.87 C 717.682 1681.34 729.498 1685.83 735.107 1689.12 C 737.476 1689.12 741.321 1689.28 743.488 1688.74 C 743.528 1689.79 743.727 1693.38 743.625 1694.21 L 740.844 1698.28 C 693.683 1695.81 657.851 1677.57 642.48 1629.89 L 646.837 1625.71 L 650.93 1621.1 z" fill="rgb(247,173,11)" transform="translate(0,0)"></path>
<path d="M 660.642 1641.7 C 676.756 1656.83 691.057 1667.64 710.941 1677.87 C 717.682 1681.34 729.498 1685.83 735.107 1689.12 C 726.39 1688.54 717.802 1686.71 709.599 1683.71 C 690.394 1676.78 669.367 1660.46 660.642 1641.7 z" fill="rgb(159,125,94)" transform="translate(0,0)"></path>
<path d="M 642.48 1629.89 L 646.837 1625.71 C 648.879 1667.57 700.32 1696.85 739.343 1694.5 C 740.771 1694.41 742.198 1694.32 743.625 1694.21 L 740.844 1698.28 C 693.683 1695.81 657.851 1677.57 642.48 1629.89 z" fill="rgb(252,192,21)" transform="translate(0,0)"></path>
<path d="M 329.711 1561.81 L 330.222 1561.76 C 334.984 1561.4 338.802 1559.3 343.203 1557.35 C 357.701 1592.62 372.849 1621.18 398.562 1650.15 L 390.23 1655.78 L 389.927 1657.98 L 387.326 1661.82 C 382.078 1668.3 372.527 1679.43 369.577 1686.88 C 361.055 1708.41 356.253 1740.63 360.603 1763.43 C 363.711 1776.53 371.135 1796.59 365.716 1810.07 C 340.834 1871.96 251.354 1810.02 255.882 1759.96 C 257.358 1743.65 256.297 1726.23 253.661 1710.99 C 248.921 1683.57 225.025 1664.23 224.662 1635.59 C 222.842 1612.05 241.465 1584.49 265.825 1581.37 C 288.835 1578.43 299.327 1576.74 320.943 1565.34 L 323.17 1563.72 C 327.009 1561.73 326.042 1561.51 329.711 1561.81 z" fill="rgb(247,173,11)" transform="translate(0,0)"></path>
<path d="M 329.711 1561.81 L 330.222 1561.76 C 334.984 1561.4 338.802 1559.3 343.203 1557.35 C 357.701 1592.62 372.849 1621.18 398.562 1650.15 L 390.23 1655.78 L 389.927 1657.98 C 388.221 1654.6 387.506 1654.36 384.13 1652.51 C 378.752 1647.05 369.11 1641.53 362.407 1634.34 C 351.562 1623.21 343.205 1609.22 337.838 1594.65 C 335.132 1587.3 333.63 1578.82 330.121 1571.78 L 329.711 1561.81 z" fill="rgb(226,158,126)" transform="translate(0,0)"></path>
<path d="M 330.121 1571.78 C 333.63 1578.82 335.132 1587.3 337.838 1594.65 C 343.205 1609.22 351.562 1623.21 362.407 1634.34 C 369.11 1641.53 378.752 1647.05 384.13 1652.51 C 371.305 1649.77 360.793 1642.69 352.109 1633.01 C 337.132 1616.22 329.251 1594.27 330.121 1571.78 z" fill="rgb(159,125,94)" transform="translate(0,0)"></path>
<path d="M 320.943 1565.34 L 323.17 1563.72 C 324.334 1567.68 324.237 1580.06 324.113 1584.49 C 323.325 1612.68 335.626 1636.28 359.831 1651.13 C 369.932 1657.93 382.889 1658.91 385.635 1661.13 L 385.803 1662 C 378.382 1664.35 360.607 1655.43 354.483 1651.29 C 332.203 1636.37 321.827 1612.57 321.041 1586.37 C 320.867 1580.57 322.164 1570.49 320.943 1565.34 z" fill="rgb(252,192,21)" transform="translate(0,0)"></path>
<path d="M 850.254 476.296 C 828.043 446.538 830.946 417.466 806.336 391.586 C 798.986 383.857 778.418 373.267 795.44 362.823 C 809.181 354.829 823.481 365.577 832.704 375.331 C 838.562 381.525 846.959 395.215 855.764 392.355 C 864.838 382.813 858.735 299.007 866.232 280.283 C 868.399 274.869 872.453 270.535 878.614 270.339 C 881.799 270.238 884.432 271.351 886.693 273.587 C 896.856 283.637 893.557 331.858 893.72 347.672 C 893.758 351.32 892.901 356.627 893.881 360.008 C 894.377 361.717 895.049 361.874 896.49 362.68 C 905.819 359.462 910.878 287.342 917.792 276.294 C 919.816 273.06 928.513 269.64 930.802 272.15 C 945.396 288.144 928.224 324.362 928.152 344.398 C 928.122 352.543 920.683 361.154 928.317 367.235 C 940.811 367.545 946.895 274.185 972.366 294.924 C 985.807 305.868 955.981 368.512 959.498 382.323 L 961.064 383.122 C 970.261 378.025 999.306 316.376 1013.62 339.63 C 1021.39 352.244 974.662 402.304 970.39 415.339 C 959.05 449.938 966.043 468.924 935.646 495.172 C 934.078 500.924 930.536 512.564 929.541 518.002 L 928.005 517.62 C 916.516 515.272 903.737 508.547 890.286 506.75 C 881.984 505.64 854.413 502.15 848.768 499.534 L 843.15 500.543 C 845.532 493.092 848.81 483.79 850.254 476.296 z" fill="rgb(226,158,126)" transform="translate(0,0)"></path>
<path d="M 848.768 499.534 C 875.059 491.386 909.718 495.118 928.005 517.62 C 916.516 515.272 903.737 508.547 890.286 506.75 C 881.984 505.64 854.413 502.15 848.768 499.534 z" fill="rgb(159,125,94)" transform="translate(0,0)"></path>
<path d="M 657.399 404.298 C 644.514 392.723 634.539 384.549 625.941 368.572 C 622.119 361.468 618.917 350.939 613.836 345.124 C 599.587 328.815 578.998 316.129 566.231 298.69 C 563.896 295.504 562.368 290.197 563.63 286.406 C 573.214 257.613 607.673 310.126 619.606 313.303 C 620.929 313.656 621.453 312.83 622.591 312.056 C 623.811 305.012 579.228 245.166 586.687 232.05 C 606.371 197.441 630.554 285.372 643.729 290.775 C 652.073 279.771 611.706 214.991 626.971 202.78 C 652.945 182.003 663.024 266.112 673.108 277.139 C 676.056 277.637 674.656 277.851 677.398 276.217 C 677.944 272.165 673.964 250.93 673.241 245.481 C 671.86 234.811 671.085 224.072 670.921 213.314 C 670.848 204.566 671.217 189.764 684.276 190.878 C 688.596 190.997 695.72 196.674 696.678 201.195 C 701.088 221.577 704.255 242.109 708.423 262.666 C 711.282 276.77 711.246 294.793 720.335 306.579 C 722.246 309.057 724.254 309.234 726.999 309.29 C 733.523 306.514 736.377 298.354 738.135 291.259 C 741.045 278.074 753.275 257.286 769.751 265.132 C 786.636 273.173 769.397 295.43 766.655 306.823 C 758.216 341.88 751.134 367.135 733.234 398.57 L 733.459 409.232 C 731.61 408.573 730.07 408.244 728.177 407.775 C 716.977 408.243 705.991 409.217 695.035 410.043 C 687.475 410.612 662.622 416.71 658.843 415.166 L 658.125 415.174 L 657.399 404.298 z" fill="rgb(226,158,126)" transform="translate(0,0)"></path>
<path d="M 658.843 415.166 C 660.631 413.803 662.523 412.581 664.5 411.51 C 683.998 401.169 707.494 401.133 728.177 407.775 C 716.977 408.243 705.991 409.217 695.035 410.043 C 687.475 410.612 662.622 416.71 658.843 415.166 z" fill="rgb(159,125,94)" transform="translate(0,0)"></path>
<path d="M 157.311 1910.07 C 200.821 1908.9 249.521 1909.98 293.4 1909.99 L 562.434 1910.07 L 967.254 1910.01 C 1024.21 1910.01 1081.19 1910.33 1138.13 1909.8 C 1144.19 1909.74 1151.52 1910.13 1153.04 1916.81 C 1152.12 1920.59 1151.55 1921.05 1148.88 1923.95 L 487.527 1923.74 L 268.26 1923.84 C 234.761 1923.88 201.104 1923.75 167.607 1924.21 C 164.839 1924.25 158.501 1923.43 156.073 1922.03 C 153.454 1920.53 153.541 1919.55 153.003 1917.18 C 153.861 1913.38 154.546 1912.89 157.311 1910.07 z" fill="rgb(200,171,132)" transform="translate(0,0)"></path>
<path d="M 1007.2 119.59 C 1012.44 120.89 1019.58 128.4 1023.38 132.417 C 1178.5 296.544 1177.6 571.896 1060.34 756.591 C 1055.5 764.214 1045.05 780.68 1037.85 785.388 C 1032.75 783.669 1026.7 780.498 1030.63 774.638 C 1042.65 756.688 1054.84 740.002 1065.31 720.87 C 1097.55 660.747 1118.25 595.117 1126.33 527.375 C 1142.65 386.167 1109.6 234.256 1003.93 132.79 C 1001.75 130.7 1001.61 128.952 1001.34 126.241 C 1002.74 122.637 1004.19 121.879 1007.2 119.59 z" fill="rgb(200,171,132)" transform="translate(0,0)"></path>
<path d="M 1205.74 366.726 L 1211.04 366.95 C 1215.98 369.845 1216.44 375.492 1217.01 380.727 C 1224.25 448.277 1223.48 515.235 1210.61 582.362 C 1189.46 694.021 1140.71 798.615 1068.8 886.617 C 1062.15 894.707 1040.9 921.33 1033.18 926.565 C 1018.32 924.86 1027.04 913.146 1032.89 906.723 C 1069.52 866.53 1104 819.634 1129.66 771.546 C 1180.95 675.168 1207.86 567.695 1208.04 458.519 C 1208.03 428.93 1205.04 401.747 1201.43 372.531 C 1201.17 370.36 1204.19 368.182 1205.74 366.726 z" fill="rgb(200,171,132)" transform="translate(0,0)"></path>
<path d="M 946.754 167.56 C 953.592 167.831 958.745 173.434 963.563 178.223 C 1036.49 250.716 1071.92 350.616 1072.19 452.47 C 1072.25 472.907 1069.45 558.424 1055.97 571.982 C 1053.6 571.96 1052.23 571.586 1049.95 571.11 C 1044.43 565.977 1050.13 547.908 1051.64 539.492 C 1061.61 486.279 1061.69 431.684 1051.88 378.442 C 1041.2 320.414 1021.12 274.249 987.397 226.463 C 980.365 216.383 972.448 206.95 963.742 198.275 C 958.569 193.206 943.422 181.04 942.734 174.967 C 943.199 171.165 944.272 170.342 946.754 167.56 z" fill="rgb(200,171,132)" transform="translate(0,0)"></path>
<metadata><recraft-signature>{"signed_by": "recraft", "signature_b64": "PYcHrhXetBRvI04/WAlfkXvZfmPKJtw2ENwExpaD+zfgtEt7MR9lA1cVtg0AA5ghDLulPgN+Af7Aay5yNo0nCw==", "signing_algo": "Ed25519", "generation_timestamp": 1779010540, "identifier": "d40e3042-1de1-4aac-9768-69558d2ba74d"}</recraft-signature></metadata></svg>