<svg xmlns="http://www.w3.org/2000/svg" height="1280" preserveAspectRatio="none" style="display: block;" version="1.1" viewBox="0 0 1331 2048" width="832">
<path d="M 0 0 L 1331 0 L 1331 2048 L 0 2048 L 0 0 z" fill="rgb(255,255,255)" transform="translate(0,0)"></path>
<path d="M 539.739 299.366 C 541.235 272.18 556.498 245.769 576.666 227.973 C 632.931 178.322 730.571 181.477 780.858 238.525 C 814.173 276.32 808.97 312.403 808.859 358.708 C 872.264 344.694 859.036 457.794 809.047 435.593 C 800.823 484.244 774.134 520.492 728.721 540.743 C 728.744 553.326 728.406 568.087 729.028 580.497 C 825.023 597.98 875.39 658.745 923.789 738.848 C 915.749 746.477 909.143 752.127 900.532 759.136 L 899.061 760.322 L 896.197 759.462 C 866.972 777.982 849.152 787.581 814.484 796.185 L 814.389 797.528 C 812.825 798.597 811.425 799.029 811.568 801.212 C 815.907 867.244 826.766 953.844 848.539 1015.7 C 840.933 1020.74 824.531 1032.06 816.871 1035.39 C 816.935 1042.65 818.408 1050.56 819.513 1057.8 L 816.238 1055.14 C 814.059 1055.38 797.952 1060.36 794.717 1061.17 C 705.857 1083.6 608.171 1092.08 526.024 1045.47 L 523.512 1044.7 C 523.99 1041.99 524.989 1038.7 525.727 1036 C 514.808 1029.68 505.127 1022.79 494.806 1015.6 C 500.434 1002.48 505.408 982.461 508.914 968.384 C 522.803 912.596 531.574 855.658 535.117 798.277 C 530.88 797.464 526.552 796.497 522.32 795.602 C 518.926 799.353 516.009 807.156 514.194 812.053 L 512.094 811.389 C 511.507 810.937 511.774 811.088 511.063 810.775 C 493.086 802.988 476.322 792.658 461.284 780.101 C 457.339 776.851 448.568 767.55 444.416 767.23 L 441.362 768 C 442.592 764.384 443.529 760.421 445.977 757.65 C 437.936 751.787 430.555 744.795 422.916 738.327 C 428.816 727.059 438.171 712.449 445.536 702.045 C 491.643 636.904 538.17 594.76 617.698 580.518 C 618.122 570.321 617.84 559.718 617.707 549.48 C 617.835 546.126 618.467 542.451 616.829 539.785 C 612.997 538.695 607.674 535.399 604.071 533.391 C 571.422 515.187 542.083 474.438 539.706 436.403 C 485.529 448.504 482.967 360.879 527.988 356.49 C 530.57 356.238 536.582 357.974 539.278 358.717 C 539.379 349.124 537.838 306.012 539.739 299.366 z" fill="rgb(245,170,84)" transform="translate(0,0)"></path>
<path d="M 539.739 299.366 C 541.235 272.18 556.498 245.769 576.666 227.973 C 632.931 178.322 730.571 181.477 780.858 238.525 C 814.173 276.32 808.97 312.403 808.859 358.708 C 872.264 344.694 859.036 457.794 809.047 435.593 C 800.823 484.244 774.134 520.492 728.721 540.743 C 728.744 553.326 728.406 568.087 729.028 580.497 C 825.023 597.98 875.39 658.745 923.789 738.848 C 915.749 746.477 909.143 752.127 900.532 759.136 L 899.061 760.322 L 896.197 759.462 C 904.955 752.573 912.686 745.926 921.084 738.584 C 917.232 732.24 913.34 725.921 909.407 719.627 C 878.712 670.726 833.565 619.611 779.257 596.971 C 764.556 590.842 751.858 587.791 736.383 584.256 C 708.334 641.555 632.005 642.955 608.795 584.574 C 604.723 585.454 600.658 586.372 596.603 587.327 C 517.198 606.186 466.251 671.486 425.845 737.268 C 432.674 743.967 439.962 749.738 447.361 755.792 L 445.977 757.65 C 437.936 751.787 430.555 744.795 422.916 738.327 C 428.816 727.059 438.171 712.449 445.536 702.045 C 491.643 636.904 538.17 594.76 617.698 580.518 C 618.122 570.321 617.84 559.718 617.707 549.48 C 617.835 546.126 618.467 542.451 616.829 539.785 C 612.997 538.695 607.674 535.399 604.071 533.391 C 571.422 515.187 542.083 474.438 539.706 436.403 C 485.529 448.504 482.967 360.879 527.988 356.49 C 530.57 356.238 536.582 357.974 539.278 358.717 C 539.379 349.124 537.838 306.012 539.739 299.366 z" fill="rgb(168,111,80)" transform="translate(0,0)"></path>
<path d="M 726.534 568.219 C 725.959 571.569 725.189 579.964 726.562 582.965 C 728.991 583.079 730.605 582.849 732.505 584.288 C 732.097 590.142 724.88 599.751 720.757 603.848 C 692.972 631.459 651.873 632.605 623.774 604.802 C 619.253 600.329 612.941 591.405 613.023 584.808 C 622.03 581.485 620.094 579.511 620.152 570.943 C 620.192 565.167 619.157 554.538 620.889 549.283 C 646.62 562.191 673.231 567.451 702.038 569.007 C 708.407 569.351 721.571 567.226 726.534 568.219 z" fill="rgb(168,111,80)" transform="translate(0,0)"></path>
<path d="M 539.739 299.366 C 541.235 272.18 556.498 245.769 576.666 227.973 C 632.931 178.322 730.571 181.477 780.858 238.525 C 814.173 276.32 808.97 312.403 808.859 358.708 C 872.264 344.694 859.036 457.794 809.047 435.593 C 800.823 484.244 774.134 520.492 728.721 540.743 C 728.744 553.326 728.406 568.087 729.028 580.497 C 825.023 597.98 875.39 658.745 923.789 738.848 C 915.749 746.477 909.143 752.127 900.532 759.136 L 899.061 760.322 L 896.197 759.462 C 904.955 752.573 912.686 745.926 921.084 738.584 C 917.232 732.24 913.34 725.921 909.407 719.627 C 878.712 670.726 833.565 619.611 779.257 596.971 C 764.556 590.842 751.858 587.791 736.383 584.256 C 708.334 641.555 632.005 642.955 608.795 584.574 C 604.723 585.454 600.658 586.372 596.603 587.327 C 517.198 606.186 466.251 671.486 425.845 737.268 C 432.674 743.967 439.962 749.738 447.361 755.792 L 445.977 757.65 C 437.936 751.787 430.555 744.795 422.916 738.327 C 428.816 727.059 438.171 712.449 445.536 702.045 C 491.643 636.904 538.17 594.76 617.698 580.518 C 618.122 570.321 617.84 559.718 617.707 549.48 L 620.889 549.283 C 619.157 554.538 620.192 565.167 620.152 570.943 C 620.094 579.511 622.03 581.485 613.023 584.808 C 612.941 591.405 619.253 600.329 623.774 604.802 C 651.873 632.605 692.972 631.459 720.757 603.848 C 724.88 599.751 732.097 590.142 732.505 584.288 C 730.605 582.849 728.991 583.079 726.562 582.965 C 725.189 579.964 725.959 571.569 726.534 568.219 L 727.535 569.024 C 728.508 565.935 728.035 543.952 728.008 539.202 C 732.705 536.814 737.48 534.368 741.993 531.652 C 772.722 513.561 795.058 484.062 804.136 449.578 C 805.807 443.475 804.982 438.261 806.666 431.545 L 808.2 430.962 C 815.413 438.382 823.703 438.594 832.12 433.018 C 856.59 416.845 855.762 366.151 823.662 359.239 C 817.506 357.914 811.343 360.859 806.49 364.28 C 806.647 315.755 812.845 283.464 781.549 243.172 C 780.964 242.666 780.977 242.688 780.571 242.036 C 715.096 168.268 577.53 182.503 544.81 281.967 C 543.284 286.609 542.299 293.355 541.443 298.312 L 540.34 300.602 L 539.739 299.366 z" fill="rgb(27,18,14)" transform="translate(0,0)"></path>
<path d="M 616.829 539.785 L 617.821 538.218 C 655.499 553.809 689.71 554.624 728.008 539.202 C 728.035 543.952 728.508 565.935 727.535 569.024 L 726.534 568.219 C 721.571 567.226 708.407 569.351 702.038 569.007 C 673.231 567.451 646.62 562.191 620.889 549.283 L 617.707 549.48 C 617.835 546.126 618.467 542.451 616.829 539.785 z" fill="rgb(22,22,24)" transform="translate(0,0)"></path>
<path d="M 539.739 299.366 L 540.34 300.602 L 541.443 298.312 C 541.518 305.772 542.936 357.956 540.992 361.606 C 534.253 360.79 531.895 357.662 524.088 359.199 C 481.635 367.56 498 456.307 541.605 431.459 C 546.645 482.357 573.858 514.752 617.821 538.218 L 616.829 539.785 C 612.997 538.695 607.674 535.399 604.071 533.391 C 571.422 515.187 542.083 474.438 539.706 436.403 C 485.529 448.504 482.967 360.879 527.988 356.49 C 530.57 356.238 536.582 357.974 539.278 358.717 C 539.379 349.124 537.838 306.012 539.739 299.366 z" fill="rgb(27,18,14)" transform="translate(0,0)"></path>
<path d="M 527.389 1034.36 C 626.575 1085.89 715.931 1083.92 815.54 1033.74 L 816.871 1035.39 C 816.935 1042.65 818.408 1050.56 819.513 1057.8 L 816.238 1055.14 C 814.059 1055.38 797.952 1060.36 794.717 1061.17 C 705.857 1083.6 608.171 1092.08 526.024 1045.47 L 523.512 1044.7 C 523.99 1041.99 524.989 1038.7 525.727 1036 L 526.898 1036.15 L 527.389 1034.36 z" fill="rgb(22,22,24)" transform="translate(0,0)"></path>
<path d="M 447.361 755.792 C 471.758 774.054 493.833 786.026 523.694 793.355 C 523.157 794.119 522.531 794.797 522.32 795.602 C 518.926 799.353 516.009 807.156 514.194 812.053 L 512.094 811.389 C 511.507 810.937 511.774 811.088 511.063 810.775 C 493.086 802.988 476.322 792.658 461.284 780.101 C 457.339 776.851 448.568 767.55 444.416 767.23 L 441.362 768 C 442.592 764.384 443.529 760.421 445.977 757.65 L 447.361 755.792 z" fill="rgb(22,22,24)" transform="translate(0,0)"></path>
<path d="M 523.694 793.355 C 527.34 794.114 530.972 795.373 534.311 794.221 C 535.211 786.165 534.844 775.467 535.427 768.063 C 536.314 756.822 543.761 710.383 551.687 703.194 L 552.735 703.615 C 551.658 709.654 549.063 712.406 547.639 717.599 C 544.131 730.389 541.169 742.995 539.14 756.058 C 535.886 777.008 537.998 796.525 536.272 817.39 C 532.285 866.507 524.349 915.223 512.541 963.066 C 508.879 978.235 503.441 1000.12 498.02 1014.86 C 505.36 1020.27 521.764 1029.39 527.389 1034.36 L 526.898 1036.15 L 525.727 1036 C 514.808 1029.68 505.127 1022.79 494.806 1015.6 C 500.434 1002.48 505.408 982.461 508.914 968.384 C 522.803 912.596 531.574 855.658 535.117 798.277 C 530.88 797.464 526.552 796.497 522.32 795.602 C 522.531 794.797 523.157 794.119 523.694 793.355 z" fill="rgb(27,18,14)" transform="translate(0,0)"></path>
<path d="M 845.764 1014.53 C 828.034 958.551 818.058 895.848 811.498 837.649 C 806.548 793.735 813.434 754.242 795.639 711.654 C 794.795 709.635 793.77 706.202 794.763 704.177 C 806.824 713.005 810.862 780.016 812.369 795.352 L 814.484 796.185 L 814.389 797.528 C 812.825 798.597 811.425 799.029 811.568 801.212 C 815.907 867.244 826.766 953.844 848.539 1015.7 C 840.933 1020.74 824.531 1032.06 816.871 1035.39 L 815.54 1033.74 C 825.765 1028.11 835.994 1021.02 845.764 1014.53 z" fill="rgb(27,18,14)" transform="translate(0,0)"></path>
<path d="M 523.512 1044.7 L 526.024 1045.47 C 608.171 1092.08 705.857 1083.6 794.717 1061.17 C 797.952 1060.36 814.059 1055.38 816.238 1055.14 L 819.513 1057.8 C 831.443 1140.82 837.734 1224.86 840.856 1308.51 C 841.507 1325.95 850.428 1350.95 852.349 1369.07 C 858.906 1404.67 874.322 1494.78 899.583 1519.5 C 874.25 1539.75 846.453 1551.98 814.837 1558.99 L 814.126 1556.77 C 790.45 1559.63 782.896 1560.67 758.306 1557.8 C 757.927 1558.68 757.565 1559.57 757.218 1560.47 C 726.021 1556.03 703.583 1544.17 677.042 1528.52 C 712.848 1398.03 699.495 1258.43 668.757 1128.26 C 660.251 1158.98 654.471 1189.05 648.76 1220.26 C 629.149 1327.43 628.171 1420.72 656.108 1526.49 C 635.225 1538.8 604.302 1555.33 579.704 1557.44 C 571.833 1561.88 575.1 1566.22 573.197 1573.92 L 571.239 1574.02 C 553.541 1573.74 533.514 1574.04 516.984 1566.34 L 514.88 1565.32 C 514.97 1561.74 515.331 1560.31 513.608 1557.19 C 493.433 1558.29 449.753 1531.13 433.126 1519.75 C 461.069 1490.98 476.884 1393.87 486.206 1354.03 C 489.551 1339.74 495.134 1321.12 497.744 1306.87 C 498.763 1301.31 499.34 1279.17 499.686 1272.1 C 500.698 1250.57 501.924 1229.05 503.364 1207.55 C 507.236 1152.95 513.961 1098.59 523.512 1044.7 z" fill="rgb(83,150,195)" transform="translate(0,0)"></path>
<path d="M 667.134 1125.4 C 675.2 1122.98 675.799 1120.52 682.98 1117.83 L 683.341 1118.57 C 679.156 1123.59 676.867 1124.55 671.082 1127.8 C 680.659 1167.65 692.068 1229.12 695.373 1270.28 C 695.773 1271.02 695.672 1271.11 695.705 1272 C 696.52 1279.59 698.198 1292.13 698.254 1299.37 C 699.16 1301.19 698.909 1301.55 698.707 1303.73 C 704.383 1384.46 699.715 1448.7 680.195 1527.35 C 706.545 1544.29 727.387 1552.73 758.306 1557.8 C 757.927 1558.68 757.565 1559.57 757.218 1560.47 C 726.021 1556.03 703.583 1544.17 677.042 1528.52 C 712.848 1398.03 699.495 1258.43 668.757 1128.26 C 660.251 1158.98 654.471 1189.05 648.76 1220.26 C 629.149 1327.43 628.171 1420.72 656.108 1526.49 C 635.225 1538.8 604.302 1555.33 579.704 1557.44 L 575.048 1556.55 C 606.884 1550.07 625.838 1541.95 653.61 1525.29 C 616.716 1404.74 633.043 1269.54 660.887 1148.92 C 662.716 1141 664.856 1133.2 667.134 1125.4 z" fill="rgb(22,22,24)" transform="translate(0,0)"></path>
<path d="M 698.254 1299.37 C 699.16 1301.19 698.909 1301.55 698.707 1303.73 C 697.509 1301.92 697.808 1301.4 698.254 1299.37 z" fill="rgb(53,87,109)" transform="translate(0,0)"></path>
<path d="M 695.373 1270.28 C 695.773 1271.02 695.672 1271.11 695.705 1272 C 695.328 1271.12 695.333 1271.21 695.373 1270.28 z" fill="rgb(53,87,109)" transform="translate(0,0)"></path>
<path d="M 523.512 1044.7 L 526.024 1045.47 C 513.712 1110.51 508.643 1168.23 504.066 1233.71 C 502.97 1248.48 502.201 1263.26 501.758 1278.06 C 501.558 1283.75 501.244 1302.71 500.35 1307.12 C 497.473 1321.31 492.579 1337.33 489.179 1351.65 C 478.499 1396.67 465.262 1482.81 437.11 1519.1 C 458.808 1536.06 487.071 1549.71 514.029 1555.48 L 513.608 1557.19 C 493.433 1558.29 449.753 1531.13 433.126 1519.75 C 461.069 1490.98 476.884 1393.87 486.206 1354.03 C 489.551 1339.74 495.134 1321.12 497.744 1306.87 C 498.763 1301.31 499.34 1279.17 499.686 1272.1 C 500.698 1250.57 501.924 1229.05 503.364 1207.55 C 507.236 1152.95 513.961 1098.59 523.512 1044.7 z" fill="rgb(22,22,24)" transform="translate(0,0)"></path>
<path d="M 816.238 1055.14 L 819.513 1057.8 C 831.443 1140.82 837.734 1224.86 840.856 1308.51 C 841.507 1325.95 850.428 1350.95 852.349 1369.07 C 858.906 1404.67 874.322 1494.78 899.583 1519.5 C 874.25 1539.75 846.453 1551.98 814.837 1558.99 L 814.126 1556.77 C 845.67 1549.66 870.045 1538.73 895.799 1519.5 C 869.039 1484.84 857.305 1405.21 848.68 1362.1 C 846.565 1351.52 839.254 1318.34 838.597 1308.53 C 837.113 1286.35 836.916 1261.22 835.51 1238.4 C 832.827 1197.86 829.112 1157.39 824.369 1117.04 C 822.542 1100.2 820.135 1071.05 816.238 1055.14 z" fill="rgb(22,22,24)" transform="translate(0,0)"></path>
<path d="M 514.029 1555.48 C 537.138 1559.91 552.021 1560 575.048 1556.55 L 579.704 1557.44 C 571.833 1561.88 575.1 1566.22 573.197 1573.92 L 571.239 1574.02 C 553.541 1573.74 533.514 1574.04 516.984 1566.34 L 514.88 1565.32 C 514.97 1561.74 515.331 1560.31 513.608 1557.19 L 514.029 1555.48 z" fill="rgb(22,22,24)" transform="translate(0,0)"></path>
<path d="M 896.197 759.462 L 899.061 760.322 L 900.532 759.136 C 903.288 765.292 905.153 772.242 907.096 778.737 C 928.834 843.398 942.338 920.28 948.193 988.239 C 972.42 1016.32 984.643 1052.79 982.228 1089.8 C 980.939 1107.97 971.324 1096.6 968.988 1105.37 C 967.172 1112.19 970.104 1113.69 961.979 1119.65 C 958.6 1120.38 958.065 1120.05 954.571 1119.26 C 948.919 1123.69 949.049 1132.2 940.422 1131.8 C 937.702 1131.68 934.463 1133.85 931.841 1134.49 C 915.53 1138.51 911.825 1121.76 911.844 1109.74 C 911.865 1096.73 913.295 1075.34 904.705 1065.02 C 892.012 1059.75 888.915 1098.56 873.193 1092.85 C 862.34 1088.9 868.384 1067.54 870.226 1060.17 C 875.852 1037.67 879.798 1011.72 895.985 994.153 C 876.831 928.217 856.043 872.623 829.612 809.404 C 827.843 805.017 826.165 799.94 824.565 795.433 C 820.718 796.655 818.311 796.948 814.389 797.528 L 814.484 796.185 C 849.152 787.581 866.972 777.982 896.197 759.462 z" fill="rgb(168,111,80)" transform="translate(0,0)"></path>
<path d="M 905.368 779.829 L 907.096 778.737 C 928.834 843.398 942.338 920.28 948.193 988.239 C 972.42 1016.32 984.643 1052.79 982.228 1089.8 C 980.939 1107.97 971.324 1096.6 968.988 1105.37 C 967.172 1112.19 970.104 1113.69 961.979 1119.65 C 958.6 1120.38 958.065 1120.05 954.571 1119.26 C 948.919 1123.69 949.049 1132.2 940.422 1131.8 C 937.702 1131.68 934.463 1133.85 931.841 1134.49 C 915.53 1138.51 911.825 1121.76 911.844 1109.74 C 911.865 1096.73 913.295 1075.34 904.705 1065.02 C 892.012 1059.75 888.915 1098.56 873.193 1092.85 C 862.34 1088.9 868.384 1067.54 870.226 1060.17 C 875.852 1037.67 879.798 1011.72 895.985 994.153 C 876.831 928.217 856.043 872.623 829.612 809.404 L 831.695 809.069 C 858.817 867.399 879.708 933.951 899.145 995.109 C 882.718 1011.93 879.161 1032.51 873.926 1054.54 C 871.746 1063.71 865.448 1082.44 872.902 1089.74 C 887.494 1094.55 889.055 1061.78 903.395 1061.49 C 922.679 1071.92 907.591 1118.31 919.914 1130.15 C 931.821 1133.17 938.955 1091.55 936.468 1082.97 C 935.438 1079.41 932.733 1065.9 933.334 1063.71 C 939.894 1070.25 938.028 1083.89 938.81 1091.55 C 939.716 1100.41 933.127 1119.64 934.161 1124.73 L 931.896 1124.09 C 928.652 1126.37 926.891 1127.22 925.303 1130.95 L 925.412 1133.84 L 927.893 1135.36 C 931.94 1133.69 932.6 1133 935.745 1130.23 C 935.989 1128.31 936.196 1128.17 935.538 1126.4 C 957.56 1139.6 956.884 1082.87 951.908 1072.65 C 950.905 1070.59 948.863 1062.77 949.164 1060.83 L 950.696 1061.63 C 958.926 1072.23 956.647 1103.28 957.044 1115.82 L 959.216 1116.29 C 973.982 1109.73 964.789 1071.89 962.365 1059.66 L 963.495 1058.34 C 969.509 1064.67 965.905 1094.54 974.404 1100.08 L 976.366 1099.07 C 981.236 1092.31 980.051 1089.05 979.745 1080.66 C 978.961 1079.14 979.159 1079.07 979.34 1077.23 C 977.677 1045.53 972.179 1022.64 952.605 997.143 C 952.22 996.516 952.238 996.422 951.699 996.015 L 945.8 989.049 C 938.587 908.901 928.038 856.213 905.368 779.829 z" fill="rgb(27,18,14)" transform="translate(0,0)"></path>
<path d="M 979.34 1077.23 C 980.24 1078.8 980.026 1078.77 979.745 1080.66 C 978.961 1079.14 979.159 1079.07 979.34 1077.23 z" fill="rgb(102,68,51)" transform="translate(0,0)"></path>
<path d="M 896.197 759.462 L 899.061 760.322 L 900.532 759.136 C 903.288 765.292 905.153 772.242 907.096 778.737 L 905.368 779.829 L 900.429 764.955 C 878.658 787.731 862.141 799.362 831.695 809.069 L 829.612 809.404 C 827.843 805.017 826.165 799.94 824.565 795.433 C 820.718 796.655 818.311 796.948 814.389 797.528 L 814.484 796.185 C 849.152 787.581 866.972 777.982 896.197 759.462 z" fill="rgb(22,22,24)" transform="translate(0,0)"></path>
<path d="M 444.416 767.23 C 448.568 767.55 457.339 776.851 461.284 780.101 C 476.322 792.658 493.086 802.988 511.063 810.775 C 511.774 811.088 511.507 810.937 512.094 811.389 L 514.194 812.053 C 486.314 875.336 467.809 928.862 445.925 994.198 C 446.981 995.481 448.003 996.792 448.989 998.13 C 461.84 1015.65 464.259 1039.43 470.089 1059.72 C 472.434 1067.88 478.251 1087.93 467.87 1092.59 C 453.249 1099.14 448.977 1067.02 438.474 1064.14 C 421.539 1071.03 434.34 1115.31 425.258 1127.44 C 410.856 1146.66 395.641 1128.39 383.571 1119.84 C 380.48 1119.96 379.648 1119.96 376.617 1119.41 C 369.623 1114.12 372.597 1106.55 368.94 1100.57 C 361.241 1102.08 356.884 1100.1 356.558 1091.29 C 355.356 1053.28 368.652 1016.23 393.75 987.659 C 401.014 912.835 416.993 839.116 441.362 768 L 444.416 767.23 z" fill="rgb(168,111,80)" transform="translate(0,0)"></path>
<path d="M 441.362 768 L 444.416 767.23 C 425.666 814.34 411.675 880.998 403.421 931.323 C 400.259 950.601 398.782 970.521 395.857 989.587 C 368.546 1017.7 361.585 1048.77 359.659 1087.78 C 359.416 1092.69 360.045 1096.58 363.375 1100.24 L 365.281 1100.09 C 374.661 1091.31 369.49 1067.96 376.904 1061.37 L 376.386 1060.77 L 376.719 1060.09 L 377.109 1060.58 L 376.435 1061.08 C 378.622 1064.44 362.904 1117.04 382.174 1117.58 C 383.767 1115.59 383.001 1110.34 382.824 1107.34 C 381.715 1088.62 382.677 1082.22 388.663 1064.92 L 390.482 1064.34 L 390.57 1063.47 L 389.44 1063.19 L 390.497 1064.47 L 390.576 1063.77 L 389.672 1062.79 L 390.337 1062.03 L 390.686 1063.69 L 389.57 1063.18 L 389.347 1063.63 C 389.743 1064.05 390.138 1064.48 390.534 1064.9 C 385.936 1084.17 379.609 1098.23 388.182 1118.12 C 390.18 1122.75 394.1 1127.36 399.177 1129.08 C 411.679 1126.87 400.894 1102.84 401.508 1094.48 C 402.058 1086.98 401.987 1069.21 407.226 1063.57 L 408.242 1064.27 C 407.683 1066.26 407.094 1068.43 406.451 1070.37 C 402.215 1083.12 403.208 1125.65 418.885 1130.03 C 433.035 1124.44 420.159 1077.18 432.419 1065.41 C 450.143 1048.4 448.683 1095.5 467.212 1089.84 C 475.825 1082.86 468.362 1063.1 466.143 1054.01 C 461.601 1035.4 458.286 1014.2 446.276 998.683 C 445.352 997.661 445.147 997.437 444.106 996.559 L 443.556 995.949 C 443.344 992.176 450.62 972.89 452.137 968.155 C 469.322 914.52 489.212 862.863 512.094 811.389 L 514.194 812.053 C 486.314 875.336 467.809 928.862 445.925 994.198 C 446.981 995.481 448.003 996.792 448.989 998.13 C 461.84 1015.65 464.259 1039.43 470.089 1059.72 C 472.434 1067.88 478.251 1087.93 467.87 1092.59 C 453.249 1099.14 448.977 1067.02 438.474 1064.14 C 421.539 1071.03 434.34 1115.31 425.258 1127.44 C 410.856 1146.66 395.641 1128.39 383.571 1119.84 C 380.48 1119.96 379.648 1119.96 376.617 1119.41 C 369.623 1114.12 372.597 1106.55 368.94 1100.57 C 361.241 1102.08 356.884 1100.1 356.558 1091.29 C 355.356 1053.28 368.652 1016.23 393.75 987.659 C 401.014 912.835 416.993 839.116 441.362 768 z" fill="rgb(27,18,14)" transform="translate(0,0)"></path>
<path d="M 407.962 1123.8 C 412.526 1128.71 417.532 1129.99 414.924 1133.98 C 402.625 1133.84 402.856 1132.18 407.962 1123.8 z" fill="rgb(168,111,80)" transform="translate(0,0)"></path>
<path d="M 758.306 1557.8 C 782.896 1560.67 790.45 1559.63 814.126 1556.77 L 814.837 1558.99 C 815.163 1563.2 815.751 1564.8 816.543 1568.74 C 816.992 1571.94 817.704 1574.86 817.382 1578 C 820.411 1580.28 822.17 1581.5 825.442 1583.48 C 843.082 1595.3 865.258 1623.43 848.587 1643.46 C 825.572 1671.11 804.173 1698.06 785.181 1728.77 C 777.738 1740.8 768.906 1753.29 758.721 1763.11 C 718.388 1800.28 695.052 1754.59 711.271 1716.9 C 721.259 1694.78 731.661 1671.74 733.746 1647.29 C 734.574 1635.83 727.025 1623.28 725.879 1611.18 C 724.902 1589.18 742.139 1586.77 759.904 1588.8 C 758.72 1583.39 758.232 1576.22 757.953 1570.67 C 757.902 1566.93 757.885 1564.17 757.218 1560.47 C 757.565 1559.57 757.927 1558.68 758.306 1557.8 z" fill="rgb(5,94,73)" transform="translate(0,0)"></path>
<path d="M 758.306 1557.8 C 782.896 1560.67 790.45 1559.63 814.126 1556.77 L 814.837 1558.99 C 815.163 1563.2 815.751 1564.8 816.543 1568.74 C 816.992 1571.94 817.704 1574.86 817.382 1578 L 816.083 1578.3 C 814.989 1584.17 811.421 1588.81 808.9 1594.06 C 794.328 1624.39 764.723 1626.34 761.879 1588.14 L 759.904 1588.8 C 758.72 1583.39 758.232 1576.22 757.953 1570.67 C 757.902 1566.93 757.885 1564.17 757.218 1560.47 C 757.565 1559.57 757.927 1558.68 758.306 1557.8 z" fill="rgb(168,111,80)" transform="translate(0,0)"></path>
<path d="M 758.306 1557.8 C 782.896 1560.67 790.45 1559.63 814.126 1556.77 L 814.837 1558.99 C 815.163 1563.2 815.751 1564.8 816.543 1568.74 L 814.358 1569.85 C 796.691 1572.78 779.483 1575.09 761.893 1570.21 C 760.228 1570.24 759.569 1570.38 757.953 1570.67 C 757.902 1566.93 757.885 1564.17 757.218 1560.47 C 757.565 1559.57 757.927 1558.68 758.306 1557.8 z" fill="rgb(22,22,24)" transform="translate(0,0)"></path>
<path d="M 757.953 1570.67 C 759.569 1570.38 760.228 1570.24 761.893 1570.21 C 760.067 1574.77 761.496 1582.95 761.879 1588.14 L 759.904 1588.8 C 758.72 1583.39 758.232 1576.22 757.953 1570.67 z" fill="rgb(27,18,14)" transform="translate(0,0)"></path>
<path d="M 816.543 1568.74 C 816.992 1571.94 817.704 1574.86 817.382 1578 L 816.083 1578.3 C 814.738 1574.72 814.888 1573.63 814.358 1569.85 L 816.543 1568.74 z" fill="rgb(27,18,14)" transform="translate(0,0)"></path>
<path d="M 825.442 1583.48 C 843.082 1595.3 865.258 1623.43 848.587 1643.46 C 825.572 1671.11 804.173 1698.06 785.181 1728.77 C 777.738 1740.8 768.906 1753.29 758.721 1763.11 C 718.388 1800.28 695.052 1754.59 711.271 1716.9 C 721.259 1694.78 731.661 1671.74 733.746 1647.29 C 734.574 1635.83 727.025 1623.28 725.879 1611.18 L 727.059 1610.56 C 730.073 1619.74 732.574 1627.57 734.67 1637.02 C 736.073 1643.34 734.123 1657.58 737.026 1660.42 C 743.134 1661.42 750.12 1659.67 753.051 1663.43 C 752.2 1663.78 737.256 1663.18 733.986 1663.32 C 732.337 1669.17 730.395 1675.53 728.935 1681.38 C 735.052 1681.69 739.188 1681.43 743.957 1685.57 C 735.747 1686.71 733.358 1681.79 727.228 1686.63 C 726.616 1687.77 726.64 1687.54 726.572 1688.78 C 718.264 1710.19 704.347 1728.82 709.663 1752.83 C 716.852 1785.3 744.91 1775.93 760.912 1757.05 C 783.539 1730.34 799.995 1698.74 822.266 1671.67 C 830.095 1660.98 840.696 1650.8 847.617 1639.6 C 861.788 1616.65 835.944 1596.88 822.23 1584.14 L 825.442 1583.48 z" fill="rgb(6,39,33)" transform="translate(0,0)"></path>
<path d="M 816.083 1578.3 L 817.382 1578 C 820.411 1580.28 822.17 1581.5 825.442 1583.48 L 822.23 1584.14 L 817.988 1582.41 C 810.199 1589.14 801.593 1621.72 781.406 1620.7 C 773.703 1620.3 766.64 1612.59 763.144 1606.27 C 756.771 1607.38 729.876 1608.23 727.059 1610.56 L 725.879 1611.18 C 724.902 1589.18 742.139 1586.77 759.904 1588.8 L 761.879 1588.14 C 764.723 1626.34 794.328 1624.39 808.9 1594.06 C 811.421 1588.81 814.989 1584.17 816.083 1578.3 z" fill="rgb(22,22,24)" transform="translate(0,0)"></path>
<path d="M 727.228 1686.63 C 727.196 1687.97 727.373 1688.01 726.572 1688.78 C 726.64 1687.54 726.616 1687.77 727.228 1686.63 z" fill="rgb(7,73,60)" transform="translate(0,0)"></path>
<path d="M 514.88 1565.32 L 516.984 1566.34 C 533.514 1574.04 553.541 1573.74 571.239 1574.02 L 573.197 1573.92 C 572.849 1578.06 572.094 1581.94 571.396 1586.04 C 572.849 1590.55 602.224 1585.17 605.698 1600.61 C 608.171 1611.6 604.767 1615.69 600.719 1625.03 C 592.389 1643.83 593.703 1650.13 598.338 1670.24 C 599.973 1677.34 601.683 1684.76 604.164 1691.57 C 610.46 1708.13 624.788 1739.16 617.588 1756.58 C 594.611 1812.17 549.793 1741.76 535.721 1718.62 C 524.49 1700.15 516.257 1690.72 505.021 1674.36 C 495.599 1660.64 486.64 1652.31 478.488 1638.28 C 464.464 1613.33 492.514 1589.6 512.588 1578.89 C 513.069 1574.76 513.477 1569.06 514.88 1565.32 z" fill="rgb(5,94,73)" transform="translate(0,0)"></path>
<path d="M 514.415 1581.7 C 514.857 1577.36 515.166 1570.12 516.984 1566.34 C 533.514 1574.04 553.541 1573.74 571.239 1574.02 L 573.197 1573.92 C 572.849 1578.06 572.094 1581.94 571.396 1586.04 L 568.979 1584.81 C 565.149 1599.74 567.619 1601.14 557.282 1613.87 C 533.218 1628.04 525.507 1593.11 514.415 1581.7 z" fill="rgb(168,111,80)" transform="translate(0,0)"></path>
<path d="M 571.239 1574.02 L 573.197 1573.92 C 572.849 1578.06 572.094 1581.94 571.396 1586.04 L 568.979 1584.81 C 569.361 1581.36 570.364 1577.41 571.239 1574.02 z" fill="rgb(27,18,14)" transform="translate(0,0)"></path>
<path d="M 514.88 1565.32 L 516.984 1566.34 C 515.166 1570.12 514.857 1577.36 514.415 1581.7 C 525.507 1593.11 533.218 1628.04 557.282 1613.87 L 558.392 1616.49 C 536.479 1630.21 525.665 1603.72 517.268 1588.56 C 511.503 1578.14 500.801 1589.66 494.82 1594.63 C 493.661 1595.33 493.749 1595.21 492.935 1596.21 C 481.653 1606.49 470.783 1621.32 480.52 1637.04 C 492.435 1656.28 508.186 1673.39 520.752 1692.29 C 535.315 1712.49 551.337 1740.2 567.647 1758.19 C 568.264 1759.49 568.104 1759.4 569.212 1760.15 C 578.858 1770.89 586.416 1775.46 600.746 1774.42 C 608.708 1768.89 612.154 1766.06 614.954 1755.69 C 620.762 1734.2 608.845 1708.14 599.781 1688.79 C 595.203 1679.02 585.643 1687.45 579.944 1686.02 C 580.305 1680.07 593.3 1680.99 598.229 1680.79 C 591.316 1655.63 589.108 1643.71 599.986 1620.16 L 600.719 1625.03 C 592.389 1643.83 593.703 1650.13 598.338 1670.24 C 599.973 1677.34 601.683 1684.76 604.164 1691.57 C 610.46 1708.13 624.788 1739.16 617.588 1756.58 C 594.611 1812.17 549.793 1741.76 535.721 1718.62 C 524.49 1700.15 516.257 1690.72 505.021 1674.36 C 495.599 1660.64 486.64 1652.31 478.488 1638.28 C 464.464 1613.33 492.514 1589.6 512.588 1578.89 C 513.069 1574.76 513.477 1569.06 514.88 1565.32 z" fill="rgb(6,39,33)" transform="translate(0,0)"></path>
<path d="M 568.979 1584.81 L 571.396 1586.04 C 572.849 1590.55 602.224 1585.17 605.698 1600.61 C 608.171 1611.6 604.767 1615.69 600.719 1625.03 L 599.986 1620.16 C 601.607 1617.18 602.564 1613.97 603.864 1610.77 C 590.083 1610.85 583.039 1610.62 569.497 1608.04 L 566.574 1607.5 C 563.726 1610.82 561.537 1613.39 558.392 1616.49 L 557.282 1613.87 C 567.619 1601.14 565.149 1599.74 568.979 1584.81 z" fill="rgb(22,22,24)" transform="translate(0,0)"></path>
<path d="M 567.647 1758.19 C 568.705 1758.68 568.839 1759.03 569.212 1760.15 C 568.104 1759.4 568.264 1759.49 567.647 1758.19 z" fill="rgb(7,73,60)" transform="translate(0,0)"></path>
<path d="M 492.935 1596.21 C 493.749 1595.21 493.661 1595.33 494.82 1594.63 C 494.352 1595.66 494.02 1595.82 492.935 1596.21 z" fill="rgb(7,73,60)" transform="translate(0,0)"></path>
<path d="M 577.999 1660.29 C 580.917 1660.23 591.635 1659.52 593.197 1661.7 C 592.983 1663.3 590.274 1663 589.25 1662.92 C 587.536 1662.93 565.762 1664.82 577.999 1660.29 z" fill="rgb(22,22,24)" transform="translate(0,0)"></path>
<path d="M 362.675 1808.83 C 503.492 1803.88 644.408 1802.31 785.301 1804.11 C 827.059 1804.56 868.812 1805.38 910.555 1806.58 C 917.783 1806.81 966.412 1809.24 970.874 1808.35 C 969.546 1809.23 968.172 1810.3 966.883 1811.26 C 963.122 1810.76 947.283 1811.86 942.667 1812.08 C 927.379 1812.87 912.083 1813.48 896.782 1813.93 C 846.99 1815.14 797.184 1815.77 747.377 1815.8 C 660.659 1816.19 573.94 1815.9 487.227 1814.93 C 461.392 1814.56 435.563 1813.91 409.742 1812.99 C 398.015 1812.52 378.449 1810.84 367.475 1811.13 C 365.885 1810.34 364.285 1809.58 362.675 1808.83 z" fill="rgb(168,111,80)" transform="translate(0,0)"></path>
<path d="M 367.118 1317.49 C 369.28 1320.73 364.995 1336.66 363.936 1341.95 C 356.748 1376.73 352.506 1412.06 351.255 1447.56 C 347.926 1550.87 374.646 1663.59 431.743 1750.35 C 435.038 1755.36 436.931 1756.32 436.179 1761.07 C 419.116 1739.72 399.664 1700.27 389.306 1674.89 C 350.426 1579.62 339.394 1474.4 355.854 1372.94 C 357.924 1360.18 362.742 1328.12 367.118 1317.49 z" fill="rgb(22,22,24)" transform="translate(0,0)"></path>
<path d="M 983.184 1438.41 C 982.542 1418.66 980.882 1398.96 978.211 1379.39 C 976.919 1369.42 974.334 1354.73 973.993 1345.18 C 980.122 1356.21 984.86 1416.16 985.142 1430.91 C 986.484 1438.82 986.358 1467.23 985.154 1475.38 C 985.292 1491.57 982.925 1512.64 980.737 1528.99 C 971.117 1600.85 946.983 1673.93 909.655 1736.29 C 906.705 1741.22 896.148 1757.86 892.224 1760.86 L 891.281 1759.98 C 892.038 1756.79 900.951 1745.02 903.387 1741.45 C 910.612 1730.86 916.709 1719.13 922.481 1707.67 C 959.923 1634.08 980.645 1553.13 983.167 1470.6 C 982.892 1460.71 982.849 1448.25 983.184 1438.41 z" fill="rgb(22,22,24)" transform="translate(0,0)"></path>
<path d="M 985.142 1430.91 C 986.484 1438.82 986.358 1467.23 985.154 1475.38 C 984.433 1467.12 984.466 1439.32 985.142 1430.91 z" fill="rgb(91,90,93)" transform="translate(0,0)"></path>
<path d="M 983.184 1438.41 C 984.892 1444.83 984.944 1464.1 983.167 1470.6 C 982.892 1460.71 982.849 1448.25 983.184 1438.41 z" fill="rgb(91,90,93)" transform="translate(0,0)"></path>
<path d="M 481.252 1138.53 L 482.479 1139.59 C 482.6 1141.44 472.131 1168.43 470.825 1172.3 C 463.127 1195.05 456.864 1218.27 452.073 1241.81 C 443.248 1284.24 434.723 1336.58 430.759 1379.84 C 429.465 1394.55 428.512 1409.29 427.902 1424.05 C 427.619 1430.7 427.391 1447.62 425.979 1453.36 C 425.32 1452.68 424.688 1452.19 424.623 1451.49 C 423.744 1441.9 425.035 1423.94 425.748 1414.61 C 431.832 1335.05 447.432 1210.12 481.252 1138.53 z" fill="rgb(22,22,24)" transform="translate(0,0)"></path>
<path d="M 850.654 1139.43 L 853.136 1140.84 C 858.151 1150.27 864.731 1172.62 867.876 1183.64 C 892.603 1270.25 906.307 1367.45 909.597 1457.26 L 907.905 1456.54 C 906.232 1452.52 905.068 1417.45 904.461 1410.22 C 902.671 1389.62 900.577 1369.04 898.179 1348.5 C 889.702 1280.25 874.89 1203.69 850.654 1139.43 z" fill="rgb(22,22,24)" transform="translate(0,0)"></path>
<path d="M 942.893 1520.54 L 944.323 1521.88 C 944.419 1522.84 944.472 1523.8 944.481 1524.76 C 944.549 1530.49 939.215 1559.54 937.959 1565.91 C 922.758 1643.06 886.187 1731.64 830.999 1789.03 L 830.194 1788.14 L 830.371 1786.37 C 837.925 1779.27 847.92 1765.76 854.044 1757.29 C 889.426 1707.8 914.944 1651.96 929.205 1592.81 C 931.81 1582.35 934.618 1570.85 936.595 1560.28 C 939.028 1547.28 940.266 1533.52 942.893 1520.54 z" fill="rgb(22,22,24)" transform="translate(0,0)"></path>
<path d="M 390.12 1519.62 C 393.383 1522.05 394.658 1540.09 395.323 1544.88 C 397.247 1558.89 399.678 1572.84 402.612 1586.67 C 416.769 1650.75 444.019 1715.74 483.619 1768.15 C 488.718 1774.9 494.123 1781.37 498.85 1788.4 C 495.879 1787.44 494.667 1786.12 492.623 1783.66 C 440.523 1721.2 408.996 1641.47 395.369 1561.8 C 393.521 1551 389.557 1529.5 390.12 1519.62 z" fill="rgb(22,22,24)" transform="translate(0,0)"></path>
<path d="M 905.023 1203.58 L 907.308 1205.23 C 911.79 1217.69 915.791 1235.51 918.935 1248.61 C 935.339 1316.98 947.874 1403.3 944.41 1473.45 C 943.099 1473.33 943.521 1473.33 942.27 1472.51 C 941.911 1455.48 942.353 1438.18 941.551 1421.22 C 938.965 1373.46 932.926 1325.95 923.481 1279.06 C 918.764 1255.34 908.88 1226.03 905.171 1204.46 L 905.023 1203.58 z" fill="rgb(22,22,24)" transform="translate(0,0)"></path>
<path d="M 426.509 1206.64 C 428.867 1209.42 426.949 1213.09 426 1216.55 C 423.271 1226.52 420.294 1236.41 417.872 1246.46 C 401.105 1316.95 392.015 1389.05 390.762 1461.49 L 389.046 1459.84 C 387.639 1449.64 389.284 1424.74 390.1 1413.38 C 393.534 1360.24 401.254 1307.46 413.185 1255.55 C 416.594 1240.83 421.433 1220.52 426.509 1206.64 z" fill="rgb(22,22,24)" transform="translate(0,0)"></path>
<path d="M 892.85 1576.44 C 893.774 1577.21 894.544 1577.41 894.369 1578.66 C 888.601 1619.76 864.93 1684.11 840.575 1716.34 C 838.388 1714.27 848.464 1698.67 850.474 1695.25 C 872.431 1657.82 883.816 1618.49 892.85 1576.44 z" fill="rgb(22,22,24)" transform="translate(0,0)"></path>
<path d="M 437.685 1576.41 C 441.625 1579.21 443.566 1600.99 445.231 1607.95 C 451.195 1632.89 458.74 1655.03 469.586 1678.25 C 474.32 1688.38 483.055 1703.72 486.467 1713.4 C 486.1 1713.2 484.549 1712.37 484.403 1712.13 C 461.383 1675.27 441.25 1618.78 437.685 1576.41 z" fill="rgb(22,22,24)" transform="translate(0,0)"></path>
<path d="M 367.475 1811.13 C 365.424 1811.06 357.759 1810.93 356.686 1809.53 C 356.713 1809.28 356.659 1809.4 356.874 1809.18 C 359.298 1808.71 360.182 1808.79 362.675 1808.83 C 364.285 1809.58 365.885 1810.34 367.475 1811.13 z" fill="rgb(226,199,190)" transform="translate(0,0)"></path>
<path d="M 970.874 1808.35 C 979.079 1810.93 969.467 1811.07 966.883 1811.26 C 968.172 1810.3 969.546 1809.23 970.874 1808.35 z" fill="rgb(226,199,190)" transform="translate(0,0)"></path>
<metadata><recraft-signature>{"signed_by": "recraft", "signature_b64": "9YFUxdmg44dtAhm676gQXrgRgnZRZWHFVNZfzVsL1fbpB47qkg24i+KsrTBUod6vZQfRIR2qAjzolZ80Ly81AQ==", "signing_algo": "Ed25519", "generation_timestamp": 1779023120, "identifier": "6cb4e5dd-77fa-47b4-b6a4-318621e0de70"}</recraft-signature></metadata></svg>