<svg xmlns="http://www.w3.org/2000/svg" height="1024" preserveAspectRatio="none" style="display: block;" version="1.1" viewBox="0 0 2048 2048" width="1024">
<defs>
	<linearGradient gradientUnits="userSpaceOnUse" id="Gradient1" x1="854.14" x2="727.725" y1="1557.15" y2="1943.92">
		<stop class="stop0" offset="0" stop-color="rgb(193,184,103)" stop-opacity="1"></stop>
		<stop class="stop1" offset="1" stop-color="rgb(223,167,127)" stop-opacity="1"></stop>
	</linearGradient>
</defs>
<path d="M 0 0 L 2048 0 L 2048 2048 L 0 2048 L 0 0 z" fill="rgb(255,255,255)" transform="translate(0,0)"></path>
<path d="M 1329.74 300.452 C 1329.54 268.307 1320.18 209.45 1374 220.176 C 1391.72 223.708 1428.49 282.444 1440.86 299.18 C 1445.98 299.108 1451.1 298.999 1456.21 299.059 C 1566.47 300.34 1645.13 383.926 1645.93 492.625 L 1645.92 1396.1 C 1645.96 1487.27 1644.43 1581.17 1645.62 1671.96 C 1691.11 1672 1737.71 1672.53 1783.13 1671.8 L 1783.16 1795.38 L 1544.77 1795.26 L 1461.15 1795.21 C 1446.83 1795.2 1429.31 1794.75 1415.15 1795.43 C 1405.51 1805.23 1392.56 1820.21 1380.54 1826 C 1356.94 1837.36 1337.41 1826.24 1329.66 1803.01 C 1329.28 1800.36 1329.11 1798.92 1328.41 1796.3 C 1325.39 1794.65 1207.51 1795.21 1194.44 1795.2 L 923.562 1795.41 L 264.014 1795.2 L 264.18 1671.98 C 317.205 1672.28 370.232 1672.03 423.252 1671.23 L 422.989 816.541 L 423.115 580.579 L 423.14 512.463 C 423.162 494.382 422.587 475.78 425.365 457.932 C 431.394 418.868 449.899 382.802 478.118 355.124 C 504.83 328.439 539.079 310.582 576.252 303.959 C 601.559 299.353 644.603 300.391 671.621 300.353 L 812.31 300.268 L 1329.74 300.452 z" fill="rgb(20,16,14)" transform="translate(0,0)"></path>
<path d="M 1040.94 405.535 L 1329.91 405.633 L 1329.98 1035.62 C 1303.69 1034.06 1271.22 1034.8 1244.63 1034.97 C 1247.85 1056.37 1254.07 1070.05 1263.24 1089.45 C 1260.73 1090.85 1258.92 1090.46 1256.02 1090.35 C 1243.2 1088.93 1208.38 1090.04 1194.71 1090.66 C 1192.25 1090.76 1190.05 1090.64 1187.6 1090.55 L 1187.57 1088.79 C 1198.1 1070.09 1201.43 1056.79 1204.03 1035.83 C 1186.46 1038.08 1168.86 1040.12 1151.25 1041.97 C 1152.76 1021.85 1158.87 1007.98 1167.77 990.467 C 1153.76 1001.4 1150.99 1007.12 1140.53 1021.37 C 1140.32 1003.99 1142.1 982.32 1143.09 964.64 C 1134 983.298 1129.84 1000.03 1128.68 1020.97 C 1121.55 1008.3 1119.09 1005.35 1106.93 997.58 C 1116.8 1016.29 1117.36 1026.46 1117.97 1047.73 C 1092.72 1051.1 1066.34 1055.17 1041.82 1062.26 L 1041.79 954.606 C 1041.84 940.77 1042.83 912.666 1041.51 900.524 C 1050.55 872.492 1041.05 875.466 1040.94 849.201 L 1040.94 405.535 z" fill="rgb(126,187,226)" transform="translate(0,0)"></path>
<path d="M 1189.14 788.288 C 1187.25 779.886 1186.32 773.289 1188.09 764.692 C 1190.24 754.12 1196.54 744.85 1205.57 738.948 C 1215.26 732.628 1227.15 730.617 1238.39 733.396 C 1249.71 736.31 1259.36 743.702 1265.12 753.874 C 1271.2 764.599 1271.64 775.557 1268.27 787.168 C 1298.46 797.038 1313.33 829.845 1290.89 854.822 C 1294.02 856.521 1296.33 857.92 1299.16 860.163 C 1310.13 868.879 1317.18 881.611 1318.74 895.54 C 1322.25 929.334 1294.88 960.336 1263.48 968.522 C 1256.03 970.464 1249.63 971.206 1241.95 972.028 C 1242.18 991.097 1242.92 1016.27 1244.63 1034.97 C 1247.85 1056.37 1254.07 1070.05 1263.24 1089.45 C 1260.73 1090.85 1258.92 1090.46 1256.02 1090.35 C 1243.2 1088.93 1208.38 1090.04 1194.71 1090.66 C 1192.25 1090.76 1190.05 1090.64 1187.6 1090.55 L 1187.57 1088.79 C 1198.1 1070.09 1201.43 1056.79 1204.03 1035.83 C 1205.43 1014.24 1206.45 992.626 1207.11 970.998 C 1177.43 967.812 1150.54 954.429 1138.15 925.95 C 1125.47 896.803 1133.81 867.529 1163.96 854.553 C 1145.47 827.09 1155.86 795.532 1189.14 788.288 z" fill="rgb(20,16,14)" transform="translate(0,0)"></path>
<path d="M 1198.9 792.536 C 1193.95 782.358 1191.07 773.722 1194.98 762.424 C 1210.8 716.739 1280 743.405 1261.83 786.158 C 1260.99 788.138 1260.1 790.102 1259.19 792.052 C 1264.31 793.284 1271.37 794.503 1275.79 797.19 C 1305.02 814.953 1297.31 837.001 1279.65 857.635 C 1282.87 861.092 1289.41 861.419 1293.05 863.808 C 1322.99 883.5 1317.1 924.456 1292.74 945.762 C 1277.01 959.51 1262.47 965.03 1241.99 965.394 C 1241.67 959.082 1241.19 952.073 1241.13 945.809 C 1248.23 939.061 1272.4 913.747 1276.87 910.388 C 1271.95 904.992 1267.03 899.226 1261.3 894.761 C 1253.79 902.34 1246.54 910.165 1239.55 918.223 C 1239.54 906.962 1240.21 870.149 1238.9 861.274 C 1236.5 859.563 1237.7 860.292 1233.58 860.593 C 1227.8 860.968 1221.96 860.844 1216.15 860.807 L 1211.96 861.301 C 1209.7 865.688 1210.64 905.288 1210.01 914.901 C 1203.99 908.571 1197.21 901.738 1191.44 895.289 C 1185.87 900.747 1181.15 905.315 1175.2 910.326 C 1185.44 921.276 1198.74 933.481 1207.71 944.673 C 1207.68 950.918 1207.82 958.194 1207.5 964.341 C 1187.4 963.671 1170.4 956.962 1156.41 942.149 C 1144.8 929.883 1138.7 913.411 1139.52 896.541 C 1140.87 870.753 1156.41 863.312 1178.35 858.193 C 1169.23 850.64 1162.78 844.055 1161.42 831.256 C 1160.48 822.319 1163.13 813.374 1168.78 806.385 C 1177.14 796.085 1186.82 794.256 1198.9 792.536 z" fill="rgb(64,157,110)" transform="translate(0,0)"></path>
<path d="M 1216.15 860.807 C 1221.96 860.844 1227.8 860.968 1233.58 860.593 C 1233.52 882.231 1232.66 910.408 1233.69 931.569 C 1243.95 921.863 1252.76 911.642 1262.67 901.808 L 1269.73 909.429 C 1259.78 922.074 1246.98 932.883 1236.03 944.705 C 1235.9 974.904 1236.08 1007.36 1239.24 1037.45 C 1241.1 1055.05 1248.82 1074.28 1256.02 1090.35 C 1243.2 1088.93 1208.38 1090.04 1194.71 1090.66 C 1207.13 1060.67 1209.99 1043.35 1211.4 1010.93 C 1212.39 988.129 1213.87 966.637 1213.36 943.586 C 1207.77 934.65 1190.64 918.131 1182.76 910.138 L 1190.61 902.01 C 1195.77 909.001 1204.16 918.688 1209.86 925.819 C 1212.83 926.806 1211.28 926.539 1214.76 925.667 C 1217.24 920.972 1216.17 870.464 1216.15 860.807 z" fill="rgb(113,69,42)" transform="translate(0,0)"></path>
<path d="M 1115.3 468.413 C 1121.47 468.224 1128.33 468.616 1134.4 469.828 C 1155.51 473.944 1174.07 486.39 1185.9 504.356 C 1198.84 524.073 1201.46 543.162 1196.81 565.832 C 1211.53 565.98 1253.33 564.334 1266.15 567.715 C 1272.46 569.371 1278.26 572.586 1283 577.063 C 1290.75 584.254 1295.12 594.366 1295.07 604.936 C 1295 620.979 1285.14 636.822 1269.95 641.841 C 1256.56 646.27 1237.72 644.916 1223.75 644.834 L 1041.91 645.042 L 1041.84 564.874 C 1041.84 554.327 1040.51 531.571 1043.21 522.216 C 1052.54 489.745 1084.79 470.756 1115.3 468.413 z" fill="rgb(255,255,255)" transform="translate(0,0)"></path>
<path d="M 1041.51 900.524 C 1042.83 912.666 1041.84 940.77 1041.79 954.606 L 1041.82 1062.26 C 1066.34 1055.17 1092.72 1051.1 1117.97 1047.73 C 1117.36 1026.46 1116.8 1016.29 1106.93 997.58 C 1119.09 1005.35 1121.55 1008.3 1128.68 1020.97 C 1129.84 1000.03 1134 983.298 1143.09 964.64 C 1142.1 982.32 1140.32 1003.99 1140.53 1021.37 C 1150.99 1007.12 1153.76 1001.4 1167.77 990.467 C 1158.87 1007.98 1152.76 1021.85 1151.25 1041.97 C 1168.86 1040.12 1186.46 1038.08 1204.03 1035.83 C 1201.43 1056.79 1198.1 1070.09 1187.57 1088.79 L 1187.6 1090.55 C 1190.05 1090.64 1192.25 1090.76 1194.71 1090.66 C 1208.38 1090.04 1243.2 1088.93 1256.02 1090.35 C 1258.92 1090.46 1260.73 1090.85 1263.24 1089.45 C 1254.07 1070.05 1247.85 1056.37 1244.63 1034.97 C 1271.22 1034.8 1303.69 1034.06 1329.98 1035.62 L 1329.97 1711.54 C 1314.41 1707.39 1294.59 1699.38 1278.57 1694.54 C 1231.93 1680.45 1186.25 1670.65 1137.38 1669.8 C 1128.33 1669.64 1108.96 1667.98 1100.99 1670.42 C 1081.01 1662.23 1063.38 1656.89 1042.98 1650.15 C 1056.45 1600.25 1064.83 1547.89 1079.59 1497.94 C 1090.87 1459.77 1059.76 1424.6 1040.72 1393.78 C 1042.39 1345.36 1040.9 1288.17 1040.86 1239.08 C 1065.9 1244.25 1092.62 1251.86 1117.64 1255.82 C 1120.61 1249.06 1123.64 1240.76 1126.4 1233.8 C 1147.05 1251.06 1144.1 1253.58 1174.1 1255.99 C 1191.96 1285.94 1214.46 1254.31 1224.33 1237.57 C 1233.19 1222.53 1232.83 1213.62 1229.3 1197.84 C 1220.02 1190.17 1187.43 1170.94 1176.06 1167.55 C 1167.38 1170.31 1151.78 1174.71 1142.78 1174.4 C 1141.79 1172.19 1142.15 1172.23 1142.39 1169.52 L 1142.48 1168.58 C 1142.03 1167.99 1141.59 1167.39 1141.14 1166.79 C 1112.42 1159.05 1070.93 1150.58 1043.52 1142.45 C 1039.38 1130.15 1041.02 1095.65 1041.01 1081.22 L 1040.95 992.635 L 1040.94 933.478 C 1040.94 925.069 1040.56 908.16 1041.51 900.524 z" fill="rgb(64,157,110)" transform="translate(0,0)"></path>
<path d="M 1168.78 1535.08 C 1169.97 1537.81 1165.63 1543.21 1163.64 1546.64 C 1154.98 1561.62 1154.72 1575.31 1153.99 1591.98 C 1165.82 1569.36 1174.79 1559.46 1199.27 1551.72 C 1182.22 1572.49 1180.36 1578.62 1173.69 1604.3 C 1150.54 1603.93 1127.39 1603.86 1104.24 1604.07 C 1103.41 1602.78 1103.66 1603.36 1103.2 1601.76 C 1097.51 1581.93 1093.52 1576.81 1079.79 1562.4 C 1097.36 1567.56 1104.55 1569.76 1114.88 1585.58 C 1113.7 1566.4 1112.8 1559.24 1106.78 1540.64 C 1119.84 1550.47 1127.58 1560.59 1133.35 1576.03 C 1141.24 1555.43 1148.06 1544.36 1168.78 1535.08 z" fill="rgb(177,195,96)" transform="translate(0,0)"></path>
<path d="M 1254.24 1315.59 L 1255.79 1315.75 L 1256.65 1316.87 C 1243.89 1333.83 1242.92 1345.66 1243.02 1365.96 C 1255.02 1344.27 1258.81 1336.57 1283.5 1329.35 C 1268.79 1347.53 1266.98 1353.71 1262.21 1376.28 C 1240.34 1375.74 1218.46 1375.64 1196.58 1375.99 C 1190.79 1358.7 1188.12 1353.66 1176.54 1339.7 L 1177.7 1339.99 L 1179.61 1340.51 C 1193.98 1344.33 1200.57 1349.49 1208.35 1361.59 C 1206.31 1343.12 1204.66 1336.18 1198.43 1318.29 C 1212.11 1326.8 1220.16 1338.53 1223.99 1354.13 C 1232.09 1333.73 1234.48 1327.01 1254.24 1315.59 z" fill="rgb(177,195,96)" transform="translate(0,0)"></path>
<path d="M 1100.99 1670.42 C 1108.96 1667.98 1128.33 1669.64 1137.38 1669.8 C 1186.25 1670.65 1231.93 1680.45 1278.57 1694.54 C 1294.59 1699.38 1314.41 1707.39 1329.97 1711.54 C 1329.89 1740.47 1328.85 1774.42 1329.66 1803.01 C 1329.28 1800.36 1329.11 1798.92 1328.41 1796.3 C 1325.39 1794.65 1207.51 1795.21 1194.44 1795.2 L 923.562 1795.41 L 264.014 1795.2 L 264.18 1671.98 C 317.205 1672.28 370.232 1672.03 423.252 1671.23 L 423.383 1682.07 C 490.994 1682.13 565.359 1683.69 632.614 1681.86 C 647.592 1697.34 662.48 1712.92 677.274 1728.57 C 686.495 1738.28 709.778 1768.79 726.376 1750.39 C 740.783 1734.43 732.217 1701.04 726.17 1682.17 L 948.597 1681.91 C 945.482 1693.41 940.206 1707.88 946.605 1718.85 C 948.125 1722.23 955.639 1728.08 959.193 1728.23 C 1010.31 1730.38 1062.54 1728.9 1113.73 1729.06 C 1133.69 1729.13 1139.51 1703.93 1127.64 1690.26 C 1118.73 1680 1112.81 1676.47 1100.99 1670.42 z" fill="url(#Gradient1)" transform="translate(0,0)"></path>
<path d="M 1645.62 1671.96 C 1691.11 1672 1737.71 1672.53 1783.13 1671.8 L 1783.16 1795.38 L 1544.77 1795.26 L 1461.15 1795.21 C 1446.83 1795.2 1429.31 1794.75 1415.15 1795.43 C 1455.53 1760.83 1496.7 1715.48 1536.97 1681.97 L 1645.3 1682.23 L 1645.62 1671.96 z" fill="rgb(212,176,130)" transform="translate(0,0)"></path>
<path d="M 536.787 1676.29 L 536.306 515.033 C 536.263 480.681 539.16 457.21 564.389 431.82 C 594.332 401.687 625.923 404.432 664.346 404.438 L 746.245 404.545 L 1035.05 405.198 L 1035.15 460.622 C 1037.09 483.105 1036.06 520.901 1036.07 544.646 L 1036.06 696.498 L 1035.99 765.831 C 1035.99 772.156 1036.55 792.226 1035.37 797.165 C 1034.04 794.548 1034.12 794.686 1033.73 791.762 C 1018.34 740.051 979.696 705.873 926.512 696.434 C 888.637 689.869 849.704 698.599 818.258 720.708 C 796.731 735.735 795.476 743.166 781.181 762.394 C 764.204 785.23 755.32 794.228 750.005 824.49 C 744.124 856.339 751.438 889.209 770.269 915.559 C 781.038 930.748 806.776 951.445 825.393 954.228 C 837.646 956.059 843.748 965.61 853.427 972.937 L 852.782 985.724 C 816.458 992.254 788.351 1000.72 759.09 1024.59 C 723.692 1053.47 688.309 1082.41 652.717 1111.05 C 650.321 1112.98 646.262 1116.99 644.915 1119.98 C 641.519 1136.09 640.497 1153.09 638.675 1169.52 C 635.363 1199.92 631.708 1230.28 627.709 1260.59 C 632.978 1261.42 640.797 1263.49 646.191 1264.74 C 621.039 1311.45 613.571 1361.92 683.399 1374.5 C 690.155 1375.72 709.519 1374.78 714.888 1370.43 C 716.814 1363.71 705.656 1348.65 704.183 1341.3 C 703.543 1338.11 703.841 1331.16 703.938 1327.74 C 723.685 1351.52 739.303 1340.67 726.845 1311.84 C 718.691 1292.98 721.489 1290.43 707.053 1272.12 C 711.437 1271.92 715.574 1271.35 719.924 1270.83 C 724.944 1245.1 728.02 1194.31 730.173 1166.82 C 737.948 1160.59 748.488 1153.37 756.686 1147.4 C 751.754 1173.5 746.516 1199.53 740.973 1225.5 C 737.529 1241.42 731.311 1266.37 729.734 1281.72 C 734.911 1284.71 740.605 1286.97 746.113 1289.35 C 745.706 1306.51 743.326 1327.96 742.139 1345.3 C 738.857 1393.24 733.322 1441.39 730.151 1489.32 C 722.01 1498.3 708.082 1509.85 698.641 1517.9 C 677.732 1535.58 656.477 1552.84 634.888 1569.68 L 640.811 1577.48 C 599.356 1608.54 560.427 1615.3 615.062 1663.72 C 618.744 1666.98 623.523 1672.17 627.113 1675.74 C 598.188 1676.7 565.972 1676.15 536.787 1676.29 z" fill="rgb(113,69,42)" transform="translate(0,0)"></path>
<path d="M 1035.15 460.622 C 1037.09 483.105 1036.06 520.901 1036.07 544.646 L 1036.06 696.498 L 1035.99 765.831 C 1035.99 772.156 1036.55 792.226 1035.37 797.165 C 1034.04 794.548 1034.12 794.686 1033.73 791.762 C 1037.77 782.875 1033.22 496.538 1035.15 460.622 z" fill="rgb(77,49,36)" transform="translate(0,0)"></path>
<path d="M 597.769 1016.62 C 622.628 1011.81 646.648 1028.16 651.29 1053.05 C 655.931 1077.95 639.419 1101.86 614.498 1106.33 C 589.81 1110.76 566.173 1094.44 561.575 1069.78 C 556.977 1045.13 573.142 1021.38 597.769 1016.62 z" fill="rgb(20,16,14)" transform="translate(0,0)"></path>
<path d="M 599.745 1022.31 C 621.575 1018.57 642.27 1033.34 645.811 1055.21 C 649.352 1077.07 634.379 1097.63 612.482 1100.96 C 590.876 1104.25 570.652 1089.52 567.158 1067.95 C 563.664 1046.37 578.204 1026.01 599.745 1022.31 z" fill="rgb(212,176,130)" transform="translate(0,0)"></path>
<path d="M 1396.81 248.565 C 1410.56 265.334 1422.2 283.786 1434.91 301.331 C 1458.35 333.699 1518.11 409.918 1527.6 445.513 C 1534.55 471.581 1533.22 498.619 1533.22 525.325 L 1533.18 589.569 L 1533.19 787.009 L 1533.16 1677.3 C 1512.01 1695 1488.12 1719.09 1468.08 1738.37 C 1448.61 1755.92 1415.16 1785.72 1397.94 1803.88 C 1396.3 1744.9 1397.08 1682.61 1397.02 1623.34 L 1397.16 1289.21 L 1396.81 248.565 z" fill="rgb(113,69,42)" transform="translate(0,0)"></path>
<path d="M 1441.77 1015.88 C 1466.99 1012.79 1489.9 1030.79 1492.87 1056.01 C 1495.84 1081.24 1477.73 1104.07 1452.49 1106.92 C 1427.42 1109.76 1404.77 1091.79 1401.82 1066.73 C 1398.87 1041.67 1416.73 1018.94 1441.77 1015.88 z" fill="rgb(20,16,14)" transform="translate(0,0)"></path>
<path d="M 1442.93 1021.65 C 1464.86 1019.33 1484.54 1035.2 1486.9 1057.13 C 1489.27 1079.06 1473.43 1098.77 1451.51 1101.18 C 1429.52 1103.6 1409.74 1087.71 1407.37 1065.72 C 1404.99 1043.72 1420.93 1023.98 1442.93 1021.65 z" fill="rgb(212,176,130)" transform="translate(0,0)"></path>
<path d="M 607.278 306.543 C 631.764 304.737 669.427 305.729 694.751 305.709 L 851.627 305.705 L 1330.03 305.965 L 1330.1 357.193 C 1268.34 358.792 1202.02 357.928 1140.13 357.933 L 795.291 357.943 L 674.976 357.985 C 653.104 357.976 617.547 356.767 597.044 360.441 C 569.38 365.568 543.956 379.06 524.204 399.096 C 482.164 441.252 486.37 480.522 486.259 535.054 C 486.161 574.72 486.331 614.386 486.769 654.049 L 487.003 1015.5 L 486.227 1676.58 C 467.774 1676.18 448.196 1676.75 429.432 1676.5 L 429.717 810.334 L 429.819 573.126 L 429.525 509.397 C 429.394 493.316 428.606 476.102 430.924 460.236 C 436.712 422.969 453.903 388.411 480.134 361.314 C 512.841 327.408 560.269 307.512 607.278 306.543 z" fill="rgb(113,69,42)" transform="translate(0,0)"></path>
<path d="M 1357.13 225.195 C 1398.21 221.446 1390.81 254.658 1391.25 282.236 C 1391.48 296.599 1391.21 311.229 1391.19 325.589 L 1391.1 535.887 L 1391.07 1467.81 L 1391.15 1694.84 L 1391.25 1767.68 C 1391.25 1779.57 1393.32 1802.5 1387.72 1813.02 C 1384.51 1819.06 1374.78 1822.55 1368.17 1823.76 C 1363.07 1823.97 1357.79 1823.73 1352.88 1822.18 C 1339.63 1817.97 1335.47 1803.79 1335.55 1791.11 C 1335.77 1756.71 1335.79 1722.27 1335.8 1687.85 L 1335.98 1429.36 L 1335.76 711.749 L 1335.67 408.714 L 1335.7 305.938 C 1335.68 287.653 1333.62 259.616 1337.86 241.385 C 1339.71 233.433 1349.72 228.242 1357.13 225.195 z" fill="rgb(157,105,82)" transform="translate(0,0)"></path>
<path d="M 623.652 363.433 C 652.581 362.602 683.825 363.098 712.951 363.069 L 871.544 362.982 L 1329.94 363.2 L 1329.98 399.113 L 826.563 399.302 L 687.367 399.208 C 638.46 399.157 596.788 391.367 559.81 428.628 C 526.161 462.536 530.732 495.82 530.627 539.119 L 530.449 635.611 L 530.566 1006.7 L 530.841 1676.17 L 491.796 1676.22 L 491.831 841.505 L 491.883 598.459 L 491.886 525.591 C 491.893 510.285 491.376 490.293 493.225 475.436 C 496.269 449.555 507.482 425.317 525.237 406.242 C 552.065 377.03 584.905 365.124 623.652 363.433 z" fill="rgb(157,105,82)" transform="translate(0,0)"></path>
<path d="M 787.691 1011.75 C 810.924 999.051 826.33 996.368 851.888 991.917 C 862.606 1036.57 930.488 1042.32 946.017 996.085 C 991.351 1020.11 992.647 1037.28 1012.76 1082.95 C 1022.24 1104.47 1031.88 1126.46 1040.87 1148.35 C 1066.43 1152.25 1110.19 1164.96 1136.68 1171.19 C 1130.67 1202.86 1126.81 1220.74 1113.83 1250.77 C 1091.17 1244.86 1068.4 1239.39 1045.54 1234.36 C 1034.14 1231.79 1009.85 1227.09 1000.54 1222.67 C 996.564 1220.8 993.242 1217.79 990.999 1214.01 C 989.505 1211.52 989.509 1210.51 989.298 1207.64 C 983.588 1213.51 984.512 1247.37 982.827 1250.46 C 982.414 1247.62 982.13 1245.46 981.897 1242.57 C 979.413 1259.7 978.155 1283.25 976.689 1300.97 C 932.596 1318.21 874.797 1321.63 828.69 1310.91 C 790.853 1303.88 769.732 1293.79 735.477 1278.36 C 745.529 1233.33 754.621 1188.08 762.747 1142.66 C 781.856 1127.42 818.029 1104.23 832.69 1087.19 C 839.503 1073.36 843.033 1059.84 838.134 1044.39 C 834.252 1032.24 825.496 1022.24 813.96 1016.8 C 804.771 1012.43 797.509 1011.9 787.691 1011.75 z" fill="rgb(252,185,16)" transform="translate(0,0)"></path>
<path d="M 832.69 1087.19 C 834.766 1098.39 824.779 1130.05 821.779 1141.94 C 809.166 1191.93 802.468 1265.12 828.69 1310.91 C 790.853 1303.88 769.732 1293.79 735.477 1278.36 C 745.529 1233.33 754.621 1188.08 762.747 1142.66 C 781.856 1127.42 818.029 1104.23 832.69 1087.19 z" fill="rgb(238,151,24)" transform="translate(0,0)"></path>
<path d="M 981.897 1242.57 C 981.996 1232.02 991.939 1114.07 993.8 1109.63 L 995.791 1109.09 L 998.279 1110.58 C 999.032 1118.94 991.497 1197.48 989.298 1207.64 C 983.588 1213.51 984.512 1247.37 982.827 1250.46 C 982.414 1247.62 982.13 1245.46 981.897 1242.57 z" fill="rgb(0,0,0)" transform="translate(0,0)"></path>
<path d="M 1034.98 1157.66 C 1042.44 1162.03 1031.08 1171.3 1026.77 1176.19 C 1019.67 1174.18 1032.21 1161.43 1034.98 1157.66 z" fill="rgb(0,0,0)" transform="translate(0,0)"></path>
<path d="M 1445.24 304.407 C 1498.09 300.57 1551.49 323.036 1587.98 360.562 C 1616.36 389.755 1632.67 422.818 1638.28 463.183 C 1640.99 482.676 1640.27 502.344 1640.32 521.908 L 1640.44 605.475 L 1640.57 872.5 L 1640.15 1672.25 L 1639.66 1675.12 C 1635.53 1677.28 1597.35 1676.24 1589.9 1676.18 L 1590.24 900.572 L 1590.54 613.386 L 1590.14 528.61 C 1590.05 512.326 1590.62 493.906 1588.98 477.822 C 1583.41 423.379 1541.6 375.352 1487.5 364.708 C 1483.45 359.865 1446.37 308.087 1445.24 304.407 z" fill="rgb(113,69,42)" transform="translate(0,0)"></path>
<path d="M 775.777 1302.19 C 842.812 1325.99 910.477 1330.53 978.337 1306.25 L 1036.88 1398.02 C 1049.6 1418.18 1066.11 1440.17 1073.45 1462.81 C 1077.22 1474.47 1075.59 1489.52 1072.82 1501.28 C 1059.82 1549.99 1049.83 1600.24 1036.8 1648.83 C 1016.9 1654.36 994.518 1655.5 974.619 1649.44 L 973.129 1647.94 C 975.562 1638.75 978.39 1612.23 979.741 1601.84 C 984.229 1567.21 988.454 1532.55 992.415 1497.85 C 996.236 1497.49 1001.42 1497.45 1004.6 1495.65 L 1004.72 1494.09 C 1002.03 1492.26 998.615 1493.53 993.743 1493 L 992.824 1491.54 C 992.87 1477.74 996.56 1484.06 1001.27 1475.42 C 997.629 1475.32 994.6 1476.85 991.164 1478.18 C 962.652 1452.2 929.632 1420.28 899.729 1396.64 C 903.616 1390.53 919.105 1368.44 920.384 1363.27 L 919.428 1362.28 C 913.669 1364.26 906.115 1378.72 901.386 1384.78 C 903.479 1378.11 909.991 1360.92 908.529 1355 L 907.343 1354.82 C 903.287 1357.88 868.188 1465.71 863.594 1479.34 C 860.104 1489.7 847.142 1537.01 841.187 1543.28 C 825.801 1559.48 790.491 1580.88 771.312 1593.57 C 750.653 1607.15 730.189 1621.02 709.926 1635.18 C 691.118 1624.29 671.459 1607.27 659 1589.36 C 661.442 1587.74 681.849 1570.88 684.563 1568.49 C 703.192 1552.12 737.689 1527.14 752.558 1508.68 C 755.621 1511.63 756.485 1512.98 760.395 1514.19 L 760.987 1513.62 C 758.314 1508.93 754.25 1504.25 756.714 1499.14 C 760.773 1497.72 768.814 1500.56 774.092 1501.72 C 767.754 1496.36 766.312 1495.82 758.543 1493.01 C 765.595 1430.67 769.66 1364.8 775.777 1302.19 z" fill="rgb(230,92,51)" transform="translate(0,0)"></path>
<path d="M 1492.3 371.461 C 1496.88 372.031 1504.95 375.19 1509.32 377.105 C 1547.2 393.688 1575.87 430.51 1582.03 471.442 C 1584.65 488.853 1584.03 508.309 1584.07 525.858 L 1584.16 598.154 L 1584.08 846.916 L 1584.03 1676.22 L 1539.12 1676.18 L 1539.1 831.025 L 1539.08 588.469 L 1539.06 518.403 C 1538.97 440.753 1534.69 435.012 1492.3 371.461 z" fill="rgb(157,105,82)" transform="translate(0,0)"></path>
<path d="M 887.099 1427.43 C 912.098 1449.28 937.853 1470.25 964.316 1490.31 C 957.455 1532.56 953.478 1575.56 948.245 1618.04 C 947.296 1625.74 945.313 1636.7 945.642 1644.24 C 947.648 1647.21 950.734 1647.56 954.356 1648.69 C 952.252 1657.68 950.629 1666.83 948.925 1675.92 L 795.5 1676.09 L 723.609 1676.13 C 717.595 1663.98 715.088 1653.56 707.697 1640.9 C 715.304 1638.47 718.901 1636.32 725.447 1631.57 C 758.128 1608.4 791.929 1586.5 825.179 1564.16 C 854.911 1544.18 855.397 1523.35 865.441 1491.22 C 872.174 1469.8 879.395 1448.53 887.099 1427.43 z" fill="rgb(113,69,42)" transform="translate(0,0)"></path>
<path d="M 956.784 778.835 C 959.033 781.465 964.088 793.661 966.41 797.68 C 978.929 819.355 989.804 830.875 1010.7 843.574 C 1011.29 849.142 1012.39 855.569 1013.22 861.188 C 1018.15 860.906 1022.97 861.062 1027.91 861.14 C 1040.03 868.487 1042.69 878.992 1038.46 892.692 C 1034.66 905.005 1022.79 905.82 1012.63 909.387 C 1011.56 909.765 1006.48 920.903 1005.48 922.892 C 989.038 960.407 952.25 986.644 910.68 985.301 C 895.056 984.797 885.18 982.142 870.66 976.356 C 847.328 965.513 828.89 946.344 818.964 922.608 C 815.902 915.118 815.053 907.98 811.493 900.231 C 808.936 900.039 808.956 900.625 806.864 900.88 C 787.075 904.013 775.886 873.505 788.149 860.31 C 798.884 848.759 811.6 851.152 822.151 860.344 C 829.127 850.475 834.111 843.265 843.102 835.265 C 894.333 828.187 923.588 823.027 956.784 778.835 z" fill="rgb(242,171,140)" transform="translate(0,0)"></path>
<path d="M 927.639 864.367 C 932.332 866.289 943.878 899.781 946.44 906.715 C 942.293 906.721 938.025 906.532 933.865 906.426 C 908.92 906.316 912.602 909.71 920.474 884.563 C 922.595 877.789 924.768 870.839 927.639 864.367 z" fill="rgb(0,0,0)" transform="translate(0,0)"></path>
<path d="M 928.296 873.697 C 932.298 880.314 935.143 890.092 938.626 897.21 C 941.903 903.907 938.709 902.939 933.25 902.898 L 918.671 902.927 C 921.535 892.956 924.932 883.524 928.296 873.697 z" fill="rgb(242,171,140)" transform="translate(0,0)"></path>
<path d="M 894.213 873.635 C 897.293 890.085 885.018 896.326 872.363 885.667 C 868.409 882.337 871.345 869.957 877.14 866.253 C 879.77 864.562 882.96 863.974 886.021 864.615 C 889.01 865.27 890.216 866.269 891.891 868.813 C 892.684 870.411 893.459 872.018 894.213 873.635 z" fill="rgb(0,0,0)" transform="translate(0,0)"></path>
<path d="M 891.674 876.44 C 879.009 876.644 888.94 869.439 891.891 868.813 C 892.684 870.411 893.459 872.018 894.213 873.635 L 891.674 876.44 z" fill="rgb(255,255,255)" transform="translate(0,0)"></path>
<path d="M 891.891 868.813 C 892.684 870.411 893.459 872.018 894.213 873.635 L 891.674 876.44 C 891.859 873.632 891.937 871.634 891.891 868.813 z" fill="rgb(20,16,14)" transform="translate(0,0)"></path>
<path d="M 977.403 876.013 C 976.636 889.038 970.024 896.145 958.616 887.728 C 945.803 878.276 960.036 856.267 974.528 869.73 C 976.119 871.846 976.013 872.197 976.974 874.85 L 977.403 876.013 z" fill="rgb(0,0,0)" transform="translate(0,0)"></path>
<path d="M 974.528 869.73 C 976.119 871.846 976.013 872.197 976.974 874.85 L 977.403 876.013 L 974.556 875.755 C 973.691 877.479 971.592 878.175 969.868 877.309 C 968.144 876.444 967.449 874.345 968.314 872.621 C 969.18 870.898 971.279 870.202 973.003 871.068 L 974.528 869.73 z" fill="rgb(255,255,255)" transform="translate(0,0)"></path>
<path d="M 974.528 869.73 C 976.119 871.846 976.013 872.197 976.974 874.85 L 977.403 876.013 L 974.556 875.755 C 975.42 874.032 974.725 871.934 973.003 871.068 L 974.528 869.73 z" fill="rgb(26,15,8)" transform="translate(0,0)"></path>
<path d="M 907.967 931.613 C 914.766 933.916 913.546 945.234 927.035 943.077 C 933.948 941.972 942.427 923.73 940.943 939.114 C 922.144 960.721 901.316 939.967 907.967 931.613 z" fill="rgb(0,0,0)" transform="translate(0,0)"></path>
<path d="M 887.938 838.292 C 900.549 838.15 896.796 847.176 886.984 844.628 C 881.03 843.082 872.759 850.567 868.595 854.936 C 862.591 863.017 857.766 843.73 887.938 838.292 z" fill="rgb(0,0,0)" transform="translate(0,0)"></path>
<path d="M 956.195 842.982 C 964.965 843.045 989.195 845.786 983.885 859.067 C 979.624 857.351 980.418 857.355 976.652 854.377 C 971.271 849.953 964.586 849.377 957.923 849.136 C 955.687 849.055 955.107 847.481 955.658 845.52 C 955.837 844.674 956.016 843.828 956.195 842.982 z" fill="rgb(0,0,0)" transform="translate(0,0)"></path>
<path d="M 785.695 1017.27 C 787.174 1017.16 788.655 1017.1 790.137 1017.07 C 828.638 1016.51 848.399 1057.01 824.677 1086.91 C 817.415 1096.06 805.76 1103.45 796.251 1110.42 C 781.645 1121.17 767.1 1132.01 752.618 1142.94 C 743.979 1149.37 733.313 1156.27 725.701 1163.75 C 721.715 1196.22 718.996 1231.99 715.702 1264.76 C 704.333 1266.51 694.421 1266.22 683.038 1265.88 C 665.208 1264.23 650.807 1260.8 633.781 1255.12 C 635.384 1247.1 636.556 1233.47 637.559 1224.92 L 644.468 1164.76 C 645.97 1151.11 647.277 1135.18 649.899 1121.87 C 657.593 1113.15 668.843 1104.9 678.078 1097.47 L 717.691 1065.59 C 733.897 1052.54 767.273 1021.28 785.695 1017.27 z" fill="rgb(252,185,16)" transform="translate(0,0)"></path>
<path d="M 688.622 1149.67 C 693.505 1150.54 712.138 1157.96 713.312 1163 C 706.758 1162.67 689.027 1157.56 688.622 1149.67 z" fill="rgb(0,0,0)" transform="translate(0,0)"></path>
<path d="M 724.88 1743.41 C 723.409 1745.88 721.807 1747.94 719.353 1749.54 C 716.746 1751.23 713.087 1751.82 710.111 1750.82 C 705.874 1749.39 701.123 1745.02 697.818 1741.98 C 685.438 1730.58 599.44 1641.23 595.398 1633.34 C 593.335 1629.31 592.406 1624.85 594.078 1620.51 C 595.692 1616.32 598.88 1612.95 602.281 1610.12 C 606.883 1606.3 639.616 1585.33 645.023 1583.07 L 646.414 1584.14 C 666.288 1608.98 677.221 1619.31 702.707 1637.99 C 704.771 1643.51 707.349 1651.02 709.805 1656.2 C 705.425 1655.77 695.761 1654.3 692.225 1655.66 L 690.765 1657.35 C 692.118 1664.81 707.154 1656.68 713.312 1664.63 L 713.219 1667.01 C 708.526 1671.26 699.139 1668.44 695.677 1671.54 C 698.963 1675.01 711.219 1674.4 717.129 1674.65 L 720.776 1684.89 C 715.266 1684.02 701.727 1679.9 700.195 1686.74 L 701.37 1688.33 C 708.503 1688.73 714.984 1688.55 722.054 1689.49 C 728.175 1707.07 731.443 1725.47 724.88 1743.41 z" fill="rgb(252,185,16)" transform="translate(0,0)"></path>
<path d="M 724.88 1743.41 C 723.409 1745.88 721.807 1747.94 719.353 1749.54 C 716.746 1751.23 713.087 1751.82 710.111 1750.82 C 705.874 1749.39 701.123 1745.02 697.818 1741.98 C 685.438 1730.58 599.44 1641.23 595.398 1633.34 C 593.335 1629.31 592.406 1624.85 594.078 1620.51 C 595.692 1616.32 598.88 1612.95 602.281 1610.12 C 606.883 1606.3 639.616 1585.33 645.023 1583.07 L 646.414 1584.14 C 635.061 1601.83 619.334 1609.06 623.979 1634.24 C 625.069 1640.16 630.082 1646.45 633.778 1651.28 C 644.091 1662.3 657.488 1675.9 668.245 1686.23 C 681.86 1699.29 711.197 1733.92 724.88 1743.41 z" fill="rgb(238,151,24)" transform="translate(0,0)"></path>
<path d="M 958.973 1650.91 C 981.072 1659.03 1005.52 1660.61 1028.61 1656.54 C 1038.82 1654.74 1041.2 1655.4 1050.77 1658.35 C 1052.15 1660.46 1052.78 1660.75 1054.88 1662.25 C 1059.2 1661.39 1059.36 1661.34 1063.6 1662.26 L 1064.33 1663.58 C 1061.38 1667.72 1056.3 1671 1055.08 1673.99 L 1056.11 1675.5 C 1064.84 1676.88 1067.21 1662.39 1077.64 1667.02 C 1074.98 1675.83 1068.91 1674.8 1071.89 1683.16 L 1073.49 1683.68 C 1078.53 1677.1 1076.89 1676.46 1084.65 1669.92 C 1100.67 1675.57 1118.97 1683.55 1126.97 1699.48 C 1127.71 1700.99 1128.39 1702.53 1128.99 1704.09 C 1128.42 1717.08 1124.11 1724.43 1110.12 1724.13 C 1059.59 1723.04 1008.51 1725.61 958.145 1722.66 C 955.14 1722.49 950.514 1714.89 949.085 1712.57 C 948.539 1701.35 949.969 1696.99 952.585 1686.16 C 953.979 1674.53 956.664 1662.44 958.973 1650.91 z" fill="rgb(252,185,16)" transform="translate(0,0)"></path>
<path d="M 952.585 1686.16 C 969.88 1702.88 982.793 1710.92 1007.6 1709.98 C 1034.34 1708.96 1061.03 1707.36 1087.76 1705.94 C 1100.26 1705.27 1116.63 1703.82 1128.99 1704.09 C 1128.42 1717.08 1124.11 1724.43 1110.12 1724.13 C 1059.59 1723.04 1008.51 1725.61 958.145 1722.66 C 955.14 1722.49 950.514 1714.89 949.085 1712.57 C 948.539 1701.35 949.969 1696.99 952.585 1686.16 z" fill="rgb(238,151,24)" transform="translate(0,0)"></path>
<path d="M 1050.77 1658.35 C 1052.15 1660.46 1052.78 1660.75 1054.88 1662.25 C 1053.15 1663.81 1044.92 1671.78 1042.41 1669.78 C 1037.01 1665.46 1049.79 1662.8 1050.77 1658.35 z" fill="rgb(26,15,8)" transform="translate(0,0)"></path>
<path d="M 1034.47 908.127 L 1035.51 908.296 C 1036.25 912.319 1036.05 960.37 1035.92 968.205 C 1035.06 1017.06 1037.21 1069.49 1034.89 1118 C 1025.04 1100.75 1016.3 1078.98 1008.81 1060.68 C 991.928 1018.63 985.469 1012.04 946.99 991.166 L 946.904 988.55 C 949.521 982.484 953.676 983.035 959.095 980.111 C 986.727 965.203 1004.04 943.704 1014.39 914.869 C 1023.58 913.009 1026.42 912.106 1034.47 908.127 z" fill="rgb(113,69,42)" transform="translate(0,0)"></path>
<path d="M 750.603 1291.44 C 757.838 1294.47 766.781 1297.91 773.485 1301.7 C 771.272 1313.1 770.35 1336.27 769.235 1349.08 L 760.263 1442.96 C 758.986 1456.4 757.724 1479.85 755.649 1492.29 C 752.675 1491.09 749.875 1489.51 746.9 1489.7 C 750.246 1493.27 752.799 1495.37 754.521 1499.92 L 754.1 1502.48 L 752.574 1503.36 C 747.409 1499.84 743.587 1497.23 738.092 1494.21 C 743.034 1500.52 744.257 1501.72 750.501 1506.91 C 736.472 1523.17 710.513 1543.02 693.564 1557.36 C 684.263 1565.23 666.275 1580.76 657.282 1586.98 C 653.995 1582.55 647.437 1575.75 643.429 1570.88 C 660.705 1557.45 679.134 1540.9 696.232 1526.89 C 706.848 1518.19 727.16 1501.85 735.685 1492.57 C 737.92 1471.25 739.198 1448.79 740.963 1427.31 C 745.078 1382.09 748.292 1336.79 750.603 1291.44 z" fill="rgb(230,92,51)" transform="translate(0,0)"></path>
<path d="M 651.159 1266.26 C 670.279 1270.69 682.576 1271.42 701.809 1272.15 C 704.935 1278.07 714.796 1288.92 715.492 1294.37 C 716.757 1304.31 729.913 1327.88 724.262 1335.25 L 721.969 1335.46 C 706.01 1329.45 710.888 1320.42 703.843 1309.77 L 702.329 1309.86 C 699.315 1314.09 698.608 1340.39 700.822 1346.87 C 703.124 1353.61 713.383 1361.46 708.664 1369.05 C 704.171 1371.07 702.553 1369.12 698.508 1368.02 C 684.814 1364.3 688.164 1342.27 679.65 1334.55 C 674.517 1346.49 692.093 1366.47 685.277 1371.71 C 674.313 1370.51 671.674 1360.98 668.657 1352.29 L 664.781 1356.24 C 666.024 1359.7 667.203 1360.91 666.413 1363.76 C 646.077 1359.29 653.185 1333.5 644.53 1330.2 C 641.292 1336.43 646.538 1345.68 648.054 1353.23 L 646.601 1353.49 C 636 1347.4 634.955 1334.45 634.229 1323.46 C 632.894 1303.25 643.117 1284.24 651.159 1266.26 z" fill="rgb(242,171,140)" transform="translate(0,0)"></path>
<path d="M 664.781 1356.24 C 663.547 1352.04 659.081 1337.13 660.458 1334.6 C 664.635 1326.95 668.484 1351.68 668.657 1352.29 L 664.781 1356.24 z" fill="rgb(0,0,0)" transform="translate(0,0)"></path>
<path d="M 897.233 1398.93 C 902.928 1401.67 915.779 1413.71 921.364 1418.43 C 944.406 1437.9 966.137 1459.66 988.968 1479.24 C 990.649 1481.62 991.346 1481.66 990.214 1484.03 C 990.171 1489.05 991.025 1489.19 988.69 1492.53 C 984.973 1493.87 984.32 1493.69 980.262 1493.71 L 979.428 1495.01 L 980.236 1496.92 C 983.713 1497.85 984.364 1497.84 987.842 1498.11 L 988.945 1499.12 C 987.567 1524.63 982.131 1558.63 979.095 1584.6 C 977.291 1600.03 973.716 1634.12 970.585 1648.33 C 964.35 1647.24 956.94 1644.18 950.855 1641.94 C 957.353 1593.02 961.47 1538.23 969.939 1490.14 C 960.92 1481.25 947.886 1471.04 938.009 1462.93 C 921.532 1449.54 905.232 1435.94 889.112 1422.13 C 891.207 1414.26 894.331 1406.55 897.233 1398.93 z" fill="rgb(230,92,51)" transform="translate(0,0)"></path>
<path d="M 990.214 1484.03 C 986.992 1484.81 984.595 1486.85 981.479 1486.99 C 980.261 1487.04 978.752 1485.3 979.346 1484.2 C 980.762 1481.58 986.491 1480.2 988.968 1479.24 C 990.649 1481.62 991.346 1481.66 990.214 1484.03 z" fill="rgb(26,15,8)" transform="translate(0,0)"></path>
<path d="M 989.077 1220.82 C 1001.43 1232.18 1019.48 1234.35 1035.77 1237.61 C 1035.8 1251.69 1036.34 1377.4 1034.39 1381.96 L 1032.42 1380.58 L 981.753 1301.96 C 985.817 1279.97 985.947 1244.78 989.077 1220.82 z" fill="rgb(113,69,42)" transform="translate(0,0)"></path>
<path d="M 1140.62 1180.11 C 1157.06 1179.3 1161.79 1176.99 1177.2 1173.08 C 1185.61 1176.97 1215.81 1193.73 1223.18 1200.99 C 1224.31 1207.48 1214.58 1208.33 1214.01 1208.83 C 1206.42 1215.4 1156.66 1170.03 1176.36 1195.41 C 1178.91 1198.69 1199.92 1209.61 1204.76 1211.65 C 1205.94 1212 1206.64 1211.91 1206.79 1213.02 C 1205.4 1214.89 1200.73 1213.92 1198.92 1213.49 C 1186.43 1211.33 1170.86 1217.39 1157.47 1214.94 C 1151.67 1213.88 1155.64 1218.67 1156.15 1218.81 C 1164.68 1221.16 1175.96 1219.36 1184.8 1218.63 C 1178.13 1225.09 1166.94 1235.56 1175.04 1245.45 C 1182.03 1254 1161.9 1249.27 1158.98 1249.12 C 1145.3 1248.42 1138.39 1236.66 1128.16 1227.88 C 1134.02 1210.58 1136.96 1197.91 1140.62 1180.11 z" fill="rgb(242,171,140)" transform="translate(0,0)"></path>
<path d="M 858.177 976.508 C 868.952 980.725 876.452 985.602 888.507 987.953 C 903.533 990.882 917.896 991.697 932.989 988.686 C 935.905 988.115 938.81 987.488 941.702 986.804 C 939.058 998.205 939.113 1000.64 932.22 1010.12 C 914.306 1027.96 883.01 1026.23 865.637 1008.35 C 856.963 999.427 857.689 988.137 858.177 976.508 z" fill="rgb(242,171,140)" transform="translate(0,0)"></path>
<path d="M 1225.93 1209.17 C 1229.72 1214.91 1222.28 1228.16 1215.52 1230.14 C 1204.67 1233.31 1198.08 1232.49 1187.92 1228.45 C 1183.5 1224.5 1184.63 1222.44 1189.55 1217.56 C 1191.67 1215.46 1201.13 1218.44 1204.08 1219.17 L 1207 1217.17 C 1213.24 1212.84 1218.62 1212.98 1225.93 1209.17 z" fill="rgb(242,171,140)" transform="translate(0,0)"></path>
<path d="M 1179.94 1228.57 C 1194.99 1240.01 1205.94 1238.82 1222.46 1231.54 C 1220.42 1234.69 1218.88 1237.27 1216.59 1240.29 C 1206.2 1248.87 1168.04 1254.55 1179.94 1228.57 z" fill="rgb(242,171,140)" transform="translate(0,0)"></path>
<path d="M 1180.18 1250.63 C 1188.69 1251.22 1195.86 1252.31 1204.51 1250.93 C 1205.61 1250.75 1206.64 1250.46 1207.19 1251.57 C 1206.93 1252.93 1203.8 1256.25 1202.78 1257.43 C 1195.02 1262.76 1180.24 1264.44 1180.22 1252.56 L 1180.18 1250.63 z" fill="rgb(242,171,140)" transform="translate(0,0)"></path>
<path d="M 1034.44 849.692 C 1035.09 852.457 1036.55 856.482 1033.5 857.674 C 1030.14 856.342 1033.25 852.589 1034.44 849.692 z" fill="rgb(113,69,42)" transform="translate(0,0)"></path>
<metadata><recraft-signature>{"signed_by": "recraft", "signature_b64": "HVX0FM6r332/ArPBPTRL0eOcP+M+7tKIdlT9jXtyi5OZ9f6Tt/v7lxF6GvfxZzF/fMl1NbYHJPzFsl00FEqNCg==", "signing_algo": "Ed25519", "generation_timestamp": 1779005292, "identifier": "25120137-da33-4767-95ad-e2da9f0bc958"}</recraft-signature></metadata></svg>