<svg xmlns="http://www.w3.org/2000/svg" height="1280" preserveAspectRatio="none" style="display: block;" version="1.1" viewBox="0 0 1331 2048" width="832">
<path d="M 0 0 L 1331 0 L 1331 620.264 L 1331 629.319 L 1331 2048 L 0 2048 L 0 1429.08 L 0 1416.18 L 0 0 z" fill="rgb(255,255,255)" transform="translate(0,0)"></path>
<path d="M 1329.97 630.982 L 1331 629.319 L 1331 2048 L 0 2048 L 0 1429.08 L 0 1416.18 C 5.15486 1392.87 12.182 1374.08 22.396 1352.53 C 36.5601 1322.29 134.683 1142.2 168.414 1226.26 C 190.119 1236.61 210.845 1259.63 225.871 1277.92 C 235.082 1267.4 246.656 1254.44 258.631 1247.2 C 268.19 1241.43 282.207 1240.59 291.944 1246.15 C 300.256 1250.89 307.195 1267.37 314.415 1275.18 C 351.575 1315.39 391.072 1336.1 442.25 1350.48 C 460.949 1279.57 484.03 1209.88 511.358 1141.83 C 513.729 1135.11 517.699 1127.16 520.757 1120.59 L 525.273 1120.45 C 538.972 1128.11 553.153 1136.4 567.485 1142.73 C 676.642 1190.94 789.526 1196.21 904.679 1167.1 C 906.341 1167.2 910.289 1167.54 911.735 1167.36 C 923.952 1163.57 936.658 1158.49 946.727 1150.43 C 953.112 1145.67 953.291 1136.53 953.67 1129.14 C 956.349 1076.96 955.669 1023.28 958.84 971.266 C 958.979 959.228 959.207 947.19 959.522 935.155 C 992.617 968.392 1060.14 972.383 1094.68 940.28 C 1099.74 935.574 1105.02 931.053 1110.15 926.4 L 1150.27 889.823 L 1217.9 827.535 C 1227.46 818.799 1261.91 789.924 1266.27 779.603 C 1272.17 765.61 1255.26 741.292 1247.2 728.255 C 1286.01 709.153 1320.19 674.028 1329.97 630.982 z" fill="rgb(255,255,255)" transform="translate(0,0)"></path>
<path d="M 525.273 1120.45 C 538.972 1128.11 553.153 1136.4 567.485 1142.73 C 676.642 1190.94 789.526 1196.21 904.679 1167.1 C 906.341 1167.2 910.289 1167.54 911.735 1167.36 C 915.474 1172.97 919.504 1178.74 922.721 1184.64 L 922.074 1187.44 C 897.916 1193.31 878.722 1197.08 853.632 1199.82 C 846.918 1216.91 840.573 1236.82 834.591 1254.32 C 822.814 1288.84 811.217 1323.42 799.8 1358.06 C 796.998 1366.56 784.187 1409 780.834 1414.12 L 778.465 1415.34 C 762.399 1395.79 746.96 1375.74 732.169 1355.21 L 623.433 1494.81 C 585.383 1543.81 557.2 1594.93 490.321 1603.94 C 436.385 1611.22 399.269 1580.54 353.594 1558.27 C 321.886 1542.68 295.083 1529.82 260.369 1520.36 C 242.558 1515.56 224.281 1512.69 205.856 1511.8 C 188.891 1511.04 168.489 1516.59 156.352 1511.66 C 154.014 1510.72 151.816 1509.46 149.819 1507.92 C 132.626 1494.55 145.53 1449.11 150.158 1430.75 C 143.202 1429.72 139.954 1429.24 133.625 1426.07 C 113.079 1446.8 83.4553 1476.6 52.6446 1476.6 C 26.367 1476.6 5.38684 1455.02 0.419608 1430.34 L 0 1429.08 L 0 1416.18 C 5.15486 1392.87 12.182 1374.08 22.396 1352.53 C 36.5601 1322.29 134.683 1142.2 168.414 1226.26 C 190.119 1236.61 210.845 1259.63 225.871 1277.92 C 235.082 1267.4 246.656 1254.44 258.631 1247.2 C 268.19 1241.43 282.207 1240.59 291.944 1246.15 C 300.256 1250.89 307.195 1267.37 314.415 1275.18 C 351.575 1315.39 391.072 1336.1 442.25 1350.48 C 460.949 1279.57 484.03 1209.88 511.358 1141.83 C 513.729 1135.11 517.699 1127.16 520.757 1120.59 L 525.273 1120.45 z" fill="rgb(80,105,176)" transform="translate(0,0)"></path>
<path d="M 511.358 1141.83 L 511.986 1147.53 C 494.248 1191.65 478.048 1235.69 464.376 1281.22 C 455.079 1312.17 444.717 1342.93 440.085 1374.97 C 438.354 1386.95 441.208 1402.61 445.291 1414.03 C 446.527 1417.33 449.353 1420.93 448.535 1423.8 C 445.76 1422.64 444.603 1419.79 443.425 1416.86 C 435.015 1395.99 435.789 1378.96 439.686 1357.78 C 430.966 1370.33 424.356 1382.73 420.663 1397.76 C 419.706 1401.66 419.849 1405.24 417.695 1408.67 C 416.365 1406.72 417.16 1402.38 417.674 1399.98 C 421.331 1382.89 429.629 1365.52 441.276 1352.64 C 385.886 1338.29 326.702 1304.23 296.941 1253.91 L 296.417 1253.02 C 296.002 1252.32 296.072 1252.43 295.503 1251.8 C 272.2 1231.28 244.911 1258.81 230.269 1276.43 C 189.12 1325.94 161.282 1388.73 147.916 1451.45 C 142.811 1475.4 134.172 1513.55 171.61 1511.28 C 184.631 1510.49 196.806 1508.57 210.025 1509.5 C 258.685 1512.93 305.26 1531.24 348.338 1553.22 C 390.728 1573.6 422.062 1599.99 471.204 1602.48 C 474.126 1601.93 474.762 1601.93 477.782 1602.34 C 510.339 1601.54 536.739 1589.46 561.21 1568.4 C 571.805 1559.27 581.497 1545.38 590.132 1534.24 L 624.609 1489.78 C 660.55 1444.19 696.182 1398.36 731.501 1352.29 L 732.169 1355.21 L 623.433 1494.81 C 585.383 1543.81 557.2 1594.93 490.321 1603.94 C 436.385 1611.22 399.269 1580.54 353.594 1558.27 C 321.886 1542.68 295.083 1529.82 260.369 1520.36 C 242.558 1515.56 224.281 1512.69 205.856 1511.8 C 188.891 1511.04 168.489 1516.59 156.352 1511.66 C 154.014 1510.72 151.816 1509.46 149.819 1507.92 C 132.626 1494.55 145.53 1449.11 150.158 1430.75 C 143.202 1429.72 139.954 1429.24 133.625 1426.07 C 113.079 1446.8 83.4553 1476.6 52.6446 1476.6 C 26.367 1476.6 5.38684 1455.02 0.419608 1430.34 L 0 1429.08 L 0 1416.18 C 5.15486 1392.87 12.182 1374.08 22.396 1352.53 C 36.5601 1322.29 134.683 1142.2 168.414 1226.26 C 190.119 1236.61 210.845 1259.63 225.871 1277.92 C 235.082 1267.4 246.656 1254.44 258.631 1247.2 C 268.19 1241.43 282.207 1240.59 291.944 1246.15 C 300.256 1250.89 307.195 1267.37 314.415 1275.18 C 351.575 1315.39 391.072 1336.1 442.25 1350.48 C 460.949 1279.57 484.03 1209.88 511.358 1141.83 z" fill="rgb(24,23,28)" transform="translate(0,0)"></path>
<path d="M 24.2541 1354.01 C 47.612 1307.29 76.2103 1262.18 111.986 1223.96 C 122.943 1212.25 135.697 1199.58 152.731 1208.56 C 158.504 1211.61 166.98 1218.38 164.383 1225.6 C 116.184 1229.25 59.1831 1338.67 40.4292 1380.02 C 28.6264 1406.05 18.7907 1440.94 30.7328 1468.43 C 18.2529 1460.79 7.8472 1451.63 4.23013 1436.69 C 3.85831 1435.13 3.53042 1433.55 3.24685 1431.97 L 0.419608 1430.34 L 0 1429.08 L 0 1416.18 C 5.15486 1392.87 12.182 1374.08 22.396 1352.53 L 24.2541 1354.01 z" fill="rgb(248,189,175)" transform="translate(0,0)"></path>
<path d="M 22.396 1352.53 L 24.2541 1354.01 C 13.7576 1377.11 0.385546 1406.14 3.24685 1431.97 L 0.419608 1430.34 L 0 1429.08 L 0 1416.18 C 5.15486 1392.87 12.182 1374.08 22.396 1352.53 z" fill="rgb(24,23,28)" transform="translate(0,0)"></path>
<path d="M 471.204 1602.48 C 474.126 1601.93 474.762 1601.93 477.782 1602.34 C 475.652 1603.44 473.417 1603.37 471.204 1602.48 z" fill="rgb(51,66,112)" transform="translate(0,0)"></path>
<path d="M 132.299 1424.06 C 113.908 1442.6 70.0718 1488.03 36.8238 1470.67 C 32.2832 1468.29 28.1447 1457.47 27.9645 1452.01 C 25.8725 1388.64 70.8835 1324.29 105.321 1274.25 C 115.745 1259.76 141.498 1230.1 159.085 1228.1 C 170.532 1226.8 179.656 1235.2 187.938 1241.78 C 188.971 1242.23 188.986 1242.14 189.47 1243.09 L 196.566 1249.09 C 198.436 1249.93 199.375 1251.27 200.4 1252.98 L 207.393 1259.92 C 208.107 1260.45 207.971 1260.27 208.394 1261 C 213.272 1266.16 219.569 1274.23 224.225 1279.89 C 190.36 1323.31 165.701 1373.18 151.753 1426.45 C 150.491 1427.71 150.637 1428.24 148.879 1428.23 C 126.171 1428.07 123.009 1398.28 122.568 1381.28 C 122.44 1376.33 123.465 1371.88 123.264 1366.88 L 122.158 1366.23 C 119.145 1369.21 119.245 1372.33 119.466 1376.43 C 120.361 1393.08 122.246 1410.31 132.299 1424.06 z" fill="rgb(248,189,175)" transform="translate(0,0)"></path>
<path d="M 196.566 1249.09 C 198.436 1249.93 199.375 1251.27 200.4 1252.98 C 198.645 1252.06 197.624 1250.71 196.566 1249.09 z" fill="rgb(118,84,78)" transform="translate(0,0)"></path>
<path d="M 187.938 1241.78 C 188.971 1242.23 188.986 1242.14 189.47 1243.09 C 188.56 1242.5 188.625 1242.6 187.938 1241.78 z" fill="rgb(118,84,78)" transform="translate(0,0)"></path>
<path d="M 525.273 1120.45 C 538.972 1128.11 553.153 1136.4 567.485 1142.73 C 676.642 1190.94 789.526 1196.21 904.679 1167.1 C 906.341 1167.2 910.289 1167.54 911.735 1167.36 C 915.474 1172.97 919.504 1178.74 922.721 1184.64 L 922.074 1187.44 C 897.916 1193.31 878.722 1197.08 853.632 1199.82 C 846.918 1216.91 840.573 1236.82 834.591 1254.32 C 822.814 1288.84 811.217 1323.42 799.8 1358.06 C 796.998 1366.56 784.187 1409 780.834 1414.12 L 778.465 1415.34 C 762.399 1395.79 746.96 1375.74 732.169 1355.21 L 731.501 1352.29 C 735.205 1346.11 749.823 1328.23 755.211 1321.16 L 816.524 1241.36 C 825.585 1229.61 839.212 1213.76 846.821 1201.63 C 748.176 1215.33 664.196 1207.78 570.38 1172.7 C 549.123 1164.75 532.051 1155.5 511.986 1147.53 L 511.358 1141.83 C 513.729 1135.11 517.699 1127.16 520.757 1120.59 L 525.273 1120.45 z" fill="rgb(4,8,77)" transform="translate(0,0)"></path>
<path d="M 922.074 1187.44 L 1039.13 1360.97 C 1045.42 1370.39 1069.75 1401.9 1072.76 1408.02 C 1083.39 1425.67 1090.27 1443.58 1093.19 1464.09 C 1105.98 1553.84 1128.22 1657.4 1186.65 1728.88 C 1187.26 1729.37 1187.19 1729.39 1187.63 1730.04 C 1204.22 1747.85 1233.49 1760.51 1205.23 1787.72 C 1191.26 1801.17 1165.43 1810.45 1148.2 1818.86 C 1095.99 1838.85 1059.19 1848.76 1002.92 1854.58 C 982.858 1856.15 942.452 1860.04 927.713 1842.59 C 920.725 1834.32 929.527 1812.16 930.25 1801.48 C 935.752 1720.18 926.474 1633.06 901.324 1555.47 C 898.108 1545.76 889.072 1532.18 883.387 1524.31 C 865.638 1499.75 845.025 1482.42 823.438 1461.91 C 807.857 1447.1 794.256 1430.89 780.834 1414.12 C 784.187 1409 796.998 1366.56 799.8 1358.06 C 811.217 1323.42 822.814 1288.84 834.591 1254.32 C 840.573 1236.82 846.918 1216.91 853.632 1199.82 C 878.722 1197.08 897.916 1193.31 922.074 1187.44 z" fill="rgb(80,105,176)" transform="translate(0,0)"></path>
<path d="M 1002.92 1854.58 C 1059.19 1848.76 1095.99 1838.85 1148.2 1818.86 L 1149.42 1820.11 C 1160.56 1832.7 1177.06 1837.16 1193.43 1838.83 C 1179.94 1848.03 1165.75 1867.35 1168.07 1884.4 L 1169.4 1884.92 C 1173.45 1866.82 1175.61 1852.72 1192.91 1842.37 C 1220.85 1825.66 1252.44 1826.9 1276.97 1847.47 C 1278.1 1849.01 1278.7 1850.07 1280.4 1851 C 1286.15 1857.55 1288.84 1861.21 1293.7 1868.46 C 1257.42 1906.36 1215.26 1925.99 1166.06 1942.72 C 1127.25 1955.91 1058.29 1980.84 1019.4 1965.24 C 1006.5 1927.57 1010.5 1917.56 1013.47 1880.88 L 1007.07 1867.5 L 1005.92 1868.01 L 1002.23 1856.79 L 1002.92 1854.58 z" fill="rgb(248,189,175)" transform="translate(0,0)"></path>
<path d="M 1002.92 1854.58 C 1059.19 1848.76 1095.99 1838.85 1148.2 1818.86 L 1149.42 1820.11 C 1122.15 1835.63 1075.61 1857.07 1044.8 1863.62 C 1030.94 1866.57 1017.41 1865.7 1007.07 1867.5 L 1005.92 1868.01 L 1002.23 1856.79 L 1002.92 1854.58 z" fill="rgb(4,8,77)" transform="translate(0,0)"></path>
<path d="M 1075.19 1407.7 C 1097.19 1445.65 1094.27 1465.87 1102.08 1507.09 C 1114.52 1572.81 1131.94 1641.02 1167.27 1698.56 C 1175.67 1711.97 1185.33 1724.85 1196.41 1736.15 C 1201.28 1741.12 1210.92 1745.71 1214.32 1751.4 C 1227.94 1774.2 1207.12 1791.3 1188.99 1801.48 C 1175.71 1808.93 1164.81 1813.91 1151.43 1819.77 C 1164.93 1832.65 1178.52 1834.02 1196.43 1837.37 C 1217.39 1829.54 1239.74 1824.43 1261.11 1834.24 C 1277.2 1841.63 1295.31 1860.84 1301.3 1877.8 C 1303.66 1884.51 1303.92 1892.11 1300.81 1898.63 C 1284.82 1932.09 1194.84 1965.56 1158.64 1977.88 C 1129.01 1987.97 1055.09 2012.57 1028.19 1999.16 C 1022.72 1996.43 1018.7 1991.8 1016.92 1985.93 C 1014.84 1979.07 1017.32 1971.43 1016.33 1964.4 C 1014.91 1954.31 1009.93 1944.83 1008.89 1934.61 C 1007.96 1925.46 1007.56 1915.96 1008.34 1906.79 C 1009.01 1898.89 1010.92 1889.88 1010.18 1882.03 C 1009.73 1877.17 1006.5 1872.86 1005.92 1868.01 L 1007.07 1867.5 L 1013.47 1880.88 C 1010.5 1917.56 1006.5 1927.57 1019.4 1965.24 C 1058.29 1980.84 1127.25 1955.91 1166.06 1942.72 C 1215.26 1925.99 1257.42 1906.36 1293.7 1868.46 C 1288.84 1861.21 1286.15 1857.55 1280.4 1851 C 1278.7 1850.07 1278.1 1849.01 1276.97 1847.47 C 1252.44 1826.9 1220.85 1825.66 1192.91 1842.37 C 1175.61 1852.72 1173.45 1866.82 1169.4 1884.92 L 1168.07 1884.4 C 1165.75 1867.35 1179.94 1848.03 1193.43 1838.83 C 1177.06 1837.16 1160.56 1832.7 1149.42 1820.11 L 1148.2 1818.86 C 1165.43 1810.45 1191.26 1801.17 1205.23 1787.72 C 1233.49 1760.51 1204.22 1747.85 1187.63 1730.04 C 1187.19 1729.39 1187.26 1729.37 1186.65 1728.88 C 1128.22 1657.4 1105.98 1553.84 1093.19 1464.09 C 1090.27 1443.58 1083.39 1425.67 1072.76 1408.02 L 1075.19 1407.7 z" fill="rgb(24,23,28)" transform="translate(0,0)"></path>
<path d="M 1276.97 1847.47 C 1278.89 1848.75 1279.23 1848.97 1280.4 1851 C 1278.7 1850.07 1278.1 1849.01 1276.97 1847.47 z" fill="rgb(118,84,78)" transform="translate(0,0)"></path>
<path d="M 1294.74 1870.67 C 1297.55 1872.8 1299.6 1877.57 1300.61 1880.9 C 1302.55 1887.31 1300.82 1893.23 1297.71 1898.94 C 1277.79 1935.39 1174.76 1970.98 1133.78 1983.2 C 1106.78 1991.26 1051.76 2009.19 1027.28 1995.95 C 1021.97 1991.07 1018.51 1984.53 1017.47 1977.4 C 1016.94 1973.86 1017.13 1972.28 1019.17 1969.42 C 1020.23 1968.96 1044.48 1973.79 1051.92 1972.8 C 1130.98 1962.31 1240 1929.99 1294.74 1870.67 z" fill="rgb(248,189,175)" transform="translate(0,0)"></path>
<path d="M 778.465 1415.34 L 780.834 1414.12 C 794.256 1430.89 807.857 1447.1 823.438 1461.91 C 845.025 1482.42 865.638 1499.75 883.387 1524.31 C 889.072 1532.18 898.108 1545.76 901.324 1555.47 C 926.474 1633.06 935.752 1720.18 930.25 1801.48 C 929.527 1812.16 920.725 1834.32 927.713 1842.59 C 942.452 1860.04 982.858 1856.15 1002.92 1854.58 L 1002.23 1856.79 C 983.387 1860.33 939.935 1860.74 926.569 1844.67 C 917.458 1832.65 927.269 1813.42 928.094 1799.71 C 932.908 1719.73 924.156 1631.1 898.567 1555.22 C 887.347 1521.94 849.138 1490.29 824.954 1466.69 C 808.383 1450.58 792.856 1433.42 778.465 1415.34 z" fill="rgb(24,23,28)" transform="translate(0,0)"></path>
<path d="M 922.721 1184.64 L 1036.66 1353.47 C 1046.48 1368.09 1068.07 1395.02 1075.19 1407.7 L 1072.76 1408.02 C 1069.75 1401.9 1045.42 1370.39 1039.13 1360.97 L 922.074 1187.44 L 922.721 1184.64 z" fill="rgb(24,23,28)" transform="translate(0,0)"></path>
<path d="M 214.869 1606.16 C 232.629 1617.86 247.16 1627.33 266.13 1637.27 C 336.846 1674.33 431.159 1691.01 510.163 1674.75 C 519.494 1672.79 528.754 1670.51 537.924 1667.9 C 543.946 1666.17 567.947 1657.44 572.169 1657.71 L 571.696 1658.79 C 564.297 1661.35 556.884 1664.5 549.482 1666.82 C 432.562 1703.58 312.034 1676.52 213.39 1607.62 L 214.869 1606.16 z" fill="rgb(24,23,28)" transform="translate(0,0)"></path>
<path d="M 858.929 1756.36 C 859.256 1764.35 859.382 1798.93 855.957 1805.62 C 854.696 1802.74 856.97 1776.28 856.979 1770.75 C 857.026 1741.96 853.582 1713.81 847.044 1685.79 C 839.17 1651.6 826.934 1618.55 810.636 1587.48 C 807.246 1581.15 786.99 1549.4 786.35 1546.99 L 787.622 1546.41 C 825.115 1594.02 857.207 1686.75 858.223 1747.3 C 859.415 1749.81 858.962 1753.45 858.929 1756.36 z" fill="rgb(24,23,28)" transform="translate(0,0)"></path>
<path d="M 858.223 1747.3 C 859.415 1749.81 858.962 1753.45 858.929 1756.36 C 857.931 1752.51 857.131 1751.06 858.223 1747.3 z" fill="rgb(99,95,99)" transform="translate(0,0)"></path>
<path d="M 213.39 1607.62 C 210.745 1605.37 212.532 1605.24 214.869 1606.16 L 213.39 1607.62 z" fill="rgb(24,23,28)" transform="translate(0,0)"></path>
<path d="M 769.247 457.025 C 764.91 472.098 757.214 497.267 755.541 512.224 C 795.11 504.426 836.181 510.322 871.059 532.028 C 874.836 534.379 877.484 537.091 881.683 538.457 C 884.008 535.969 884.437 532.765 885.346 529.357 L 887.693 529.639 L 885.037 540.971 C 929.758 577.209 955.151 617.612 961.32 675.881 C 961.945 681.975 962.383 688.087 962.633 694.208 C 975.889 708.402 989.558 722.204 1003.62 735.597 C 1012.87 744.574 1026.53 757.221 1034.49 766.875 L 1098.92 682.145 C 1107.69 670.678 1116.4 658.892 1125.64 647.835 C 1128.78 644.086 1140.61 643.572 1145.23 642.102 C 1145.75 636.301 1143.97 626.56 1144.95 621.967 C 1150.07 598.169 1157.43 574.891 1162.57 551.072 C 1163.62 546.177 1167.54 540.918 1172.28 539.501 C 1189.01 534.5 1199.85 558.139 1204.09 569.028 C 1216.9 553.935 1225.86 532.15 1248.2 530.542 C 1263.25 529.458 1276.62 535.819 1277.32 552.485 C 1289.35 556.835 1297.46 561.11 1298.35 575.394 C 1322.28 587.463 1312.01 596.225 1318.61 603.023 C 1326.83 606.295 1328.84 612.252 1331 620.264 L 1331 629.319 L 1329.97 630.982 C 1320.19 674.028 1286.01 709.153 1247.2 728.255 C 1255.26 741.292 1272.17 765.61 1266.27 779.603 C 1261.91 789.924 1227.46 818.799 1217.9 827.535 L 1150.27 889.823 L 1110.15 926.4 C 1105.02 931.053 1099.74 935.574 1094.68 940.28 C 1060.14 972.383 992.617 968.392 959.522 935.155 C 959.207 947.19 958.979 959.228 958.84 971.266 C 955.669 1023.28 956.349 1076.96 953.67 1129.14 C 953.291 1136.53 953.112 1145.67 946.727 1150.43 C 936.658 1158.49 923.952 1163.57 911.735 1167.36 C 910.289 1167.54 906.341 1167.2 904.679 1167.1 C 789.526 1196.21 676.642 1190.94 567.485 1142.73 C 553.153 1136.4 538.972 1128.11 525.273 1120.45 L 520.757 1120.59 C 507.146 1112 465.182 1083.86 466.798 1062.8 C 467.563 1052.82 485.468 1031.04 492.256 1021.26 C 507.503 999.287 522.379 976.196 534.841 952.38 C 551.491 919.755 560.295 884.6 570.601 849.784 C 581.975 811.497 592.995 773.105 603.66 734.614 C 584.566 738.863 562.421 747.622 544.039 751.632 C 543.248 748.814 543 749.48 539.692 747.358 C 534.624 752.851 531.162 753.617 523.931 755.704 C 521.694 750.612 510.368 723.814 506.504 721.946 C 509.658 732.731 516.625 744.125 520.458 755.432 C 516.629 761.343 489.746 757.396 481.676 758.562 L 481.311 759.517 C 487.593 762.241 506.861 761.241 515.047 761.224 C 505.805 784.75 487.473 818.167 475.851 842.19 C 467.29 860.272 458.548 878.268 449.626 896.175 C 439.575 916.795 436.152 937.794 410.161 937.142 C 370.871 929.505 330.642 901.937 302.104 874.842 L 300.876 876.547 C 286.306 863.091 269.687 843.066 282.687 823.658 C 291.177 810.984 299.952 799.257 308.993 786.996 L 356.435 722.355 L 397.179 666.523 C 410.235 648.403 422.888 627.984 439.73 613.646 C 450.985 603.985 463.747 596.237 477.51 590.707 C 487.769 586.483 502.908 582.447 513.873 579.098 L 578.845 559.034 C 634.226 541.745 698.954 519.819 754.25 505.135 C 756.068 496.122 763.557 464.683 767.159 457.864 L 769.247 457.025 z" fill="rgb(252,85,85)" transform="translate(0,0)"></path>
<path d="M 302.104 874.842 C 266.572 839.811 279.546 830.851 304.514 796.848 L 344.083 742.891 L 398.14 669.159 C 408.151 655.343 417.573 640.918 428.554 627.852 C 455.522 595.765 493.403 587.582 531.551 575.959 L 621.807 548.163 C 655.273 537.493 688.824 527.092 722.457 516.964 C 728.729 515.081 747.547 508.668 752.453 508.484 L 753.589 509.548 C 751.013 514.339 728.388 519.839 721.666 522.856 C 682.568 540.405 661.867 569.693 638.243 603.985 C 640.496 604.731 641.669 604.978 643.653 606.358 C 631.719 634.242 624.974 669.234 616.395 698.564 C 614.631 704.594 608.717 728.209 606.428 732.685 L 603.66 734.614 C 584.566 738.863 562.421 747.622 544.039 751.632 C 543.248 748.814 543 749.48 539.692 747.358 C 534.624 752.851 531.162 753.617 523.931 755.704 C 521.694 750.612 510.368 723.814 506.504 721.946 C 509.658 732.731 516.625 744.125 520.458 755.432 C 516.629 761.343 489.746 757.396 481.676 758.562 L 481.311 759.517 C 487.593 762.241 506.861 761.241 515.047 761.224 C 505.805 784.75 487.473 818.167 475.851 842.19 C 467.29 860.272 458.548 878.268 449.626 896.175 C 439.575 916.795 436.152 937.794 410.161 937.142 C 370.871 929.505 330.642 901.937 302.104 874.842 z" fill="rgb(252,85,85)" transform="translate(0,0)"></path>
<path d="M 638.243 603.985 C 640.496 604.731 641.669 604.978 643.653 606.358 C 631.719 634.242 624.974 669.234 616.395 698.564 C 614.631 704.594 608.717 728.209 606.428 732.685 L 603.66 734.614 C 584.566 738.863 562.421 747.622 544.039 751.632 C 543.248 748.814 543 749.48 539.692 747.358 C 547.71 734.814 556.863 722.752 565.237 710.375 C 589.308 674.731 613.644 639.267 638.243 603.985 z" fill="rgb(4,8,77)" transform="translate(0,0)"></path>
<path d="M 1202.56 571.352 C 1198.21 577.396 1180.88 600.339 1179.45 605.906 L 1181.59 604.074 L 1180.77 605.059 L 1180.34 604.575 C 1184.48 603.816 1215.02 557.162 1221.25 549.866 C 1234.54 534.318 1248 527.224 1267.5 537 C 1270.12 538.912 1270.39 539.304 1272.37 541.874 L 1272.79 543.041 C 1279.09 560.818 1263.79 571.12 1263.5 578.679 C 1270.88 572.303 1274.12 563.876 1277.05 554.815 C 1315.64 568.953 1283.86 606.5 1284.59 609.203 C 1293.58 606.907 1295.63 584.041 1301.31 579.636 C 1306.05 580.247 1309.48 584.751 1311.76 588.796 C 1312.29 589.345 1312.29 589.455 1312.67 590.118 L 1313.01 591.066 C 1321.13 613.464 1306.52 621.084 1299.74 638.634 L 1300.19 639.482 C 1310.99 628.882 1313.57 620.916 1317.51 606.562 C 1317.91 605.102 1317.52 606.033 1318.38 604.458 L 1318.61 603.023 C 1326.83 606.295 1328.84 612.252 1331 620.264 L 1331 629.319 L 1329.97 630.982 L 1327.67 630.971 C 1319.67 672.352 1281.87 707.94 1245.86 726.717 C 1215.4 689.421 1193.19 665.359 1149.06 644.159 C 1143.91 619.413 1152.83 600.319 1159.04 576.819 C 1161.52 567.417 1164.02 533.922 1180.39 541.757 C 1192.18 547.4 1197.86 559.899 1202.56 571.352 z" fill="rgb(178,104,104)" transform="translate(0,0)"></path>
<path d="M 1318.61 603.023 C 1326.83 606.295 1328.84 612.252 1331 620.264 L 1331 629.319 L 1329.97 630.982 L 1327.67 630.971 C 1328.92 618.304 1328.58 612.774 1318.38 604.458 L 1318.61 603.023 z" fill="rgb(25,12,13)" transform="translate(0,0)"></path>
<path d="M 1267.5 537 C 1270.12 538.912 1270.39 539.304 1272.37 541.874 C 1269.95 540.118 1269.19 539.437 1267.5 537 z" fill="rgb(97,53,51)" transform="translate(0,0)"></path>
<path d="M 778.728 776.654 C 792.455 790.222 809.085 802.509 823.556 815.456 C 868.115 855.322 915.593 893.037 960.048 932.869 L 959.522 935.155 C 959.207 947.19 958.979 959.228 958.84 971.266 L 956.329 973.096 C 955.483 972.796 954.646 972.473 953.818 972.128 C 942.002 967.204 928.012 957.099 917.587 949.71 C 861.683 910.087 804.985 840.065 778.728 776.654 z" fill="rgb(4,8,77)" transform="translate(0,0)"></path>
<path d="M 769.247 457.025 C 764.91 472.098 757.214 497.267 755.541 512.224 C 795.11 504.426 836.181 510.322 871.059 532.028 C 874.836 534.379 877.484 537.091 881.683 538.457 C 884.008 535.969 884.437 532.765 885.346 529.357 L 887.693 529.639 L 885.037 540.971 C 929.758 577.209 955.151 617.612 961.32 675.881 C 961.945 681.975 962.383 688.087 962.633 694.208 C 975.889 708.402 989.558 722.204 1003.62 735.597 C 1012.87 744.574 1026.53 757.221 1034.49 766.875 L 1098.92 682.145 C 1107.69 670.678 1116.4 658.892 1125.64 647.835 C 1128.78 644.086 1140.61 643.572 1145.23 642.102 C 1145.75 636.301 1143.97 626.56 1144.95 621.967 C 1150.07 598.169 1157.43 574.891 1162.57 551.072 C 1163.62 546.177 1167.54 540.918 1172.28 539.501 C 1189.01 534.5 1199.85 558.139 1204.09 569.028 C 1216.9 553.935 1225.86 532.15 1248.2 530.542 C 1263.25 529.458 1276.62 535.819 1277.32 552.485 C 1289.35 556.835 1297.46 561.11 1298.35 575.394 C 1322.28 587.463 1312.01 596.225 1318.61 603.023 L 1318.38 604.458 C 1317.52 606.033 1317.91 605.102 1317.51 606.562 C 1313.57 620.916 1310.99 628.882 1300.19 639.482 L 1299.74 638.634 C 1306.52 621.084 1321.13 613.464 1313.01 591.066 L 1312.67 590.118 C 1312.29 589.455 1312.29 589.345 1311.76 588.796 C 1309.48 584.751 1306.05 580.247 1301.31 579.636 C 1295.63 584.041 1293.58 606.907 1284.59 609.203 C 1283.86 606.5 1315.64 568.953 1277.05 554.815 C 1274.12 563.876 1270.88 572.303 1263.5 578.679 C 1263.79 571.12 1279.09 560.818 1272.79 543.041 L 1272.37 541.874 C 1270.39 539.304 1270.12 538.912 1267.5 537 C 1248 527.224 1234.54 534.318 1221.25 549.866 C 1215.02 557.162 1184.48 603.816 1180.34 604.575 L 1180.77 605.059 L 1181.59 604.074 L 1179.45 605.906 C 1180.88 600.339 1198.21 577.396 1202.56 571.352 C 1197.86 559.899 1192.18 547.4 1180.39 541.757 C 1164.02 533.922 1161.52 567.417 1159.04 576.819 C 1152.83 600.319 1143.91 619.413 1149.06 644.159 C 1193.19 665.359 1215.4 689.421 1245.86 726.717 C 1281.87 707.94 1319.67 672.352 1327.67 630.971 L 1329.97 630.982 C 1320.19 674.028 1286.01 709.153 1247.2 728.255 C 1255.26 741.292 1272.17 765.61 1266.27 779.603 C 1261.91 789.924 1227.46 818.799 1217.9 827.535 L 1150.27 889.823 L 1110.15 926.4 C 1105.02 931.053 1099.74 935.574 1094.68 940.28 C 1060.14 972.383 992.617 968.392 959.522 935.155 L 960.048 932.869 C 982.107 951.243 999.76 957.932 1028.02 960.516 C 1031.89 959.762 1034.66 960.041 1038.61 960.15 C 1039.26 960.106 1039.91 960.047 1040.56 959.972 C 1078 956.033 1090.49 941.281 1116.19 917.869 L 1175.56 863.333 L 1230.45 813.048 C 1239.42 804.823 1253.62 792.319 1260.93 783.631 C 1274.32 764.432 1246.98 733.816 1236.22 718.929 C 1222.61 700.113 1148.27 622.681 1125.08 652.575 C 1098.33 687.058 1066.4 726.408 1040.84 762.302 C 1041.59 778.864 1045.9 786.846 1051.22 801.555 L 1050.59 802.702 C 1043.89 797.68 1039.32 773.989 1038.49 765.486 C 1034.12 771.59 1017.95 794.906 1013.68 798.138 C 1013.3 792.937 1029.03 773.692 1033.02 768.375 C 1028.66 763.113 1023.51 758.256 1018.62 753.489 C 966.783 702.95 916.374 650.832 865.9 598.935 C 864.044 597.026 861.734 593.31 860.951 590.777 C 864.45 592.418 951.051 681.714 959.998 691.044 C 959.284 670.189 957.067 654.353 950.368 634.593 C 901.601 490.743 713.68 461.116 643.653 606.358 C 641.669 604.978 640.496 604.731 638.243 603.985 C 661.867 569.693 682.568 540.405 721.666 522.856 C 728.388 519.839 751.013 514.339 753.589 509.548 L 752.453 508.484 C 747.547 508.668 728.729 515.081 722.457 516.964 C 688.824 527.092 655.273 537.493 621.807 548.163 L 531.551 575.959 C 493.403 587.582 455.522 595.765 428.554 627.852 C 417.573 640.918 408.151 655.343 398.14 669.159 L 344.083 742.891 L 304.514 796.848 C 279.546 830.851 266.572 839.811 302.104 874.842 L 300.876 876.547 C 286.306 863.091 269.687 843.066 282.687 823.658 C 291.177 810.984 299.952 799.257 308.993 786.996 L 356.435 722.355 L 397.179 666.523 C 410.235 648.403 422.888 627.984 439.73 613.646 C 450.985 603.985 463.747 596.237 477.51 590.707 C 487.769 586.483 502.908 582.447 513.873 579.098 L 578.845 559.034 C 634.226 541.745 698.954 519.819 754.25 505.135 C 756.068 496.122 763.557 464.683 767.159 457.864 L 769.247 457.025 z" fill="rgb(25,12,13)" transform="translate(0,0)"></path>
<path d="M 1028.02 960.516 C 1031.89 959.762 1034.66 960.041 1038.61 960.15 C 1035.12 961.137 1031.34 962.468 1028.02 960.516 z" fill="rgb(97,53,51)" transform="translate(0,0)"></path>
<path d="M 603.66 734.614 L 606.428 732.685 C 600.311 759.774 590.307 790.359 582.454 817.267 C 569.521 861.585 558.525 907.57 538.771 949.303 C 526.321 975.397 509.543 1000.06 493.243 1023.78 C 487.165 1032.62 469.609 1054.28 469.22 1063.04 C 468.23 1085.36 511.08 1110.81 525.273 1120.45 L 520.757 1120.59 C 507.146 1112 465.182 1083.86 466.798 1062.8 C 467.563 1052.82 485.468 1031.04 492.256 1021.26 C 507.503 999.287 522.379 976.196 534.841 952.38 C 551.491 919.755 560.295 884.6 570.601 849.784 C 581.975 811.497 592.995 773.105 603.66 734.614 z" fill="rgb(25,12,13)" transform="translate(0,0)"></path>
<path d="M 956.329 973.096 L 958.84 971.266 C 955.669 1023.28 956.349 1076.96 953.67 1129.14 C 953.291 1136.53 953.112 1145.67 946.727 1150.43 C 936.658 1158.49 923.952 1163.57 911.735 1167.36 C 910.289 1167.54 906.341 1167.2 904.679 1167.1 C 922.67 1161.29 936.669 1157.17 950.536 1143.58 C 951.687 1126.38 951.82 1108.05 952.468 1090.68 C 953.997 1051.49 955.284 1012.3 956.329 973.096 z" fill="rgb(25,12,13)" transform="translate(0,0)"></path>
<path d="M 701.429 148.874 C 760.737 57.9369 870.194 28.0222 967.059 77.0835 C 993.59 90.5211 1028.64 116.374 1042.31 143.859 C 1045.63 150.544 1037.73 163.525 1034.41 169.465 C 1054.35 195.502 1065.75 221.278 1068.9 254.284 C 1069.94 261.275 1068.14 276.552 1071.34 282.48 C 1081.02 300.396 1102.04 295.34 1098.08 322.713 C 1095.08 343.474 1077.07 337.424 1068.82 348.001 C 1062.11 356.605 1061.2 381.406 1055.49 391.745 C 1033.21 441.684 991.309 480.767 936.962 492.249 C 923.402 495.113 910.993 496.086 897.054 496.618 C 893.853 504.403 889.841 520.962 887.693 529.639 L 885.346 529.357 C 884.437 532.765 884.008 535.969 881.683 538.457 C 877.484 537.091 874.836 534.379 871.059 532.028 C 836.181 510.322 795.11 504.426 755.541 512.224 C 757.214 497.267 764.91 472.098 769.247 457.025 L 767.159 457.864 C 749.626 444.95 741.326 442.227 724.196 425.425 C 685.605 387.574 666.865 339.575 666.012 285.921 C 647.084 294.161 630.707 298.201 609.911 294.398 C 585.486 289.874 563.879 275.78 549.897 255.248 C 534.769 233.051 529.804 207.29 535.132 181.003 C 539.982 156.515 554.571 135.047 575.553 121.522 C 595.635 108.034 620.329 103.273 643.986 108.327 C 669.566 113.743 687.289 127.384 701.429 148.874 z" fill="rgb(4,8,77)" transform="translate(0,0)"></path>
<path d="M 1034.41 169.465 C 1054.35 195.502 1065.75 221.278 1068.9 254.284 C 1069.94 261.275 1068.14 276.552 1071.34 282.48 C 1081.02 300.396 1102.04 295.34 1098.08 322.713 C 1095.08 343.474 1077.07 337.424 1068.82 348.001 C 1062.11 356.605 1061.2 381.406 1055.49 391.745 C 1033.21 441.684 991.309 480.767 936.962 492.249 C 923.402 495.113 910.993 496.086 897.054 496.618 C 893.853 504.403 889.841 520.962 887.693 529.639 L 885.346 529.357 C 884.437 532.765 884.008 535.969 881.683 538.457 C 877.484 537.091 874.836 534.379 871.059 532.028 C 836.181 510.322 795.11 504.426 755.541 512.224 C 757.214 497.267 764.91 472.098 769.247 457.025 C 778.569 421.123 796.139 392.067 820.053 364.421 C 811.615 363.969 807.735 363.783 799.983 360.208 C 788.746 354.994 780.108 345.441 776.048 333.737 C 771.666 321.502 772.505 308.004 778.37 296.407 C 797.903 257.603 849.463 265.363 862.304 305.534 C 867.063 293.07 875.873 265.975 884.616 256.431 C 890.506 250.001 908.34 250.256 917.155 248.065 C 967.847 235.466 1001.72 212.136 1033.08 171.572 L 1034.41 169.465 z" fill="rgb(178,104,104)" transform="translate(0,0)"></path>
<path d="M 1034.41 169.465 C 1054.35 195.502 1065.75 221.278 1068.9 254.284 C 1069.94 261.275 1068.14 276.552 1071.34 282.48 C 1081.02 300.396 1102.04 295.34 1098.08 322.713 C 1095.08 343.474 1077.07 337.424 1068.82 348.001 C 1062.11 356.605 1061.2 381.406 1055.49 391.745 C 1033.21 441.684 991.309 480.767 936.962 492.249 C 923.402 495.113 910.993 496.086 897.054 496.618 L 895.822 493.939 C 957.892 495.306 1007.4 466.154 1040.52 414.561 C 1015.14 423.28 981.684 406.73 983.651 376.348 C 984.144 368.741 994.736 364.679 1001.1 368.04 C 1011.43 373.489 1009.37 382.777 1022.23 386.155 L 1023.33 386.441 C 1028.12 387.311 1030.55 386.996 1035.39 386.691 C 1044.53 389.096 1044.76 393.571 1048.48 400.663 C 1057.85 389.384 1059.56 359.228 1065.95 347.272 C 1073.33 340.954 1084.2 338.422 1091.13 331.261 C 1101.38 320.659 1097.44 307.378 1086.32 298.281 C 1085.42 297.618 1085.84 297.87 1085.08 297.472 C 1079.85 294.561 1076.95 293.136 1072.54 289.182 C 1071.98 288.702 1071.99 288.72 1071.61 288.101 C 1064.28 275.648 1068.08 262.067 1065.95 247.589 C 1061.27 215.785 1051.46 196.871 1033.08 171.572 L 1034.41 169.465 z" fill="rgb(25,12,13)" transform="translate(0,0)"></path>
<path d="M 992.98 368.876 C 1009.97 370.228 1003.88 379.481 1016.15 386.7 C 1024.93 391.834 1039.02 384.684 1044.03 396.106 C 1047.64 404.314 1044.36 409.747 1037.17 413.445 C 1031.56 414.71 1026.94 415.633 1021.09 414.715 C 1008.78 412.661 997.805 405.786 990.584 395.613 C 983.281 385.14 981.496 376.518 992.98 368.876 z" fill="rgb(248,189,175)" transform="translate(0,0)"></path>
<path d="M 812.112 467.835 C 840.288 485.481 862.876 492.389 895.822 493.939 L 897.054 496.618 C 893.853 504.403 889.841 520.962 887.693 529.639 L 885.346 529.357 C 884.753 529.233 884.161 529.108 883.569 528.984 C 852.985 517.004 828.096 495.582 812.112 467.835 z" fill="rgb(4,8,77)" transform="translate(0,0)"></path>
<path d="M 1023.33 386.441 C 1028.77 385.867 1029.97 385.835 1035.39 386.691 C 1030.55 386.996 1028.12 387.311 1023.33 386.441 z" fill="rgb(97,53,51)" transform="translate(0,0)"></path>
<path d="M 997.214 305.952 C 985.39 296.043 983.332 278.639 992.517 266.245 C 1001.7 253.851 1018.95 250.757 1031.87 259.186 C 1044.79 267.615 1048.91 284.649 1041.27 298.05 C 1033.63 311.45 1016.87 316.578 1003.03 309.749 C 1001.54 309.102 1001.29 308.904 999.949 307.984 C 998.902 307.32 998.049 306.877 997.214 305.952 z" fill="rgb(25,12,13)" transform="translate(0,0)"></path>
<path d="M 1009.06 257.739 C 1018.44 255.278 1028.42 258.089 1035.13 265.085 C 1041.85 272.08 1044.25 282.164 1041.41 291.438 C 1038.57 300.711 1030.93 307.72 1021.45 309.754 C 1007.24 312.803 993.197 303.944 989.828 289.805 C 986.459 275.667 994.999 261.426 1009.06 257.739 z" fill="rgb(248,189,175)" transform="translate(0,0)"></path>
<path d="M 515.047 761.224 C 506.861 761.241 487.593 762.241 481.311 759.517 L 481.676 758.562 C 489.746 757.396 516.629 761.343 520.458 755.432 C 516.625 744.125 509.658 732.731 506.504 721.946 C 510.368 723.814 521.694 750.612 523.931 755.704 C 531.162 753.617 534.624 752.851 539.692 747.358 C 543 749.48 543.248 748.814 544.039 751.632 C 536.078 754.033 525.428 756.917 518.145 760.373 C 510.444 780.97 487.608 823.555 476.906 845.44 C 468.568 862.843 460.128 880.197 451.589 897.503 C 446.533 907.941 441.732 918.505 435.936 928.558 C 432.009 935.369 426.089 937.133 419.177 939.826 C 417.392 951.161 416.353 959.946 418.12 971.017 C 420.138 983.662 440.801 1017.16 426.409 1026.52 C 411.376 1036.29 391.31 1020.83 381.905 1010.71 C 375.842 1029.5 369.521 1054.37 351.379 1063.45 C 336.057 1071.12 320.174 1063.86 313.257 1049.77 C 312.63 1048.49 303.402 1045.78 301.856 1044.69 C 295.079 1041.11 293.734 1035.34 286.336 1033.71 C 278.535 1031.99 274.328 1031.09 269.932 1023.9 C 269.032 1022.4 268.167 1020.89 267.338 1019.36 C 262.728 1018.32 256.291 1016.96 252.48 1014.34 C 215.808 989.173 264.482 910.227 287.638 890.916 C 289.441 887.224 297.562 882.39 300.876 876.547 L 302.104 874.842 C 330.642 901.937 370.871 929.505 410.161 937.142 C 436.152 937.794 439.575 916.795 449.626 896.175 C 458.548 878.268 467.29 860.272 475.851 842.19 C 487.473 818.167 505.805 784.75 515.047 761.224 z" fill="rgb(178,104,104)" transform="translate(0,0)"></path>
<path d="M 515.047 761.224 C 506.861 761.241 487.593 762.241 481.311 759.517 L 481.676 758.562 C 489.746 757.396 516.629 761.343 520.458 755.432 C 516.625 744.125 509.658 732.731 506.504 721.946 C 510.368 723.814 521.694 750.612 523.931 755.704 C 531.162 753.617 534.624 752.851 539.692 747.358 C 543 749.48 543.248 748.814 544.039 751.632 C 536.078 754.033 525.428 756.917 518.145 760.373 C 510.444 780.97 487.608 823.555 476.906 845.44 C 468.568 862.843 460.128 880.197 451.589 897.503 C 446.533 907.941 441.732 918.505 435.936 928.558 C 432.009 935.369 426.089 937.133 419.177 939.826 C 417.392 951.161 416.353 959.946 418.12 971.017 C 420.138 983.662 440.801 1017.16 426.409 1026.52 C 411.376 1036.29 391.31 1020.83 381.905 1010.71 C 375.842 1029.5 369.521 1054.37 351.379 1063.45 C 336.057 1071.12 320.174 1063.86 313.257 1049.77 C 312.63 1048.49 303.402 1045.78 301.856 1044.69 C 295.079 1041.11 293.734 1035.34 286.336 1033.71 C 278.535 1031.99 274.328 1031.09 269.932 1023.9 C 269.032 1022.4 268.167 1020.89 267.338 1019.36 C 262.728 1018.32 256.291 1016.96 252.48 1014.34 C 215.808 989.173 264.482 910.227 287.638 890.916 L 287.911 893.334 C 274.757 909.033 259.376 927.497 251.729 946.679 C 241.062 973.436 229.439 1006.85 265.869 1017 C 262.717 995.812 264.779 986.073 277.407 967.563 C 274.593 976.691 269.655 985.231 268.019 994.578 C 264.265 1016.03 270.081 1028.88 291.497 1033.34 C 288.034 1015.68 289.497 1004.88 299.548 989.102 C 300.567 987.502 300.989 987.178 302.587 986.17 L 303.551 986.478 C 295.547 1001.54 288.748 1013.44 293.89 1031.14 C 296.008 1038.43 301.887 1045.78 310.129 1045.03 C 320.699 1040.72 323.755 1006.82 331.973 1001.3 C 337.669 1009.92 293.292 1056.12 334.269 1063.51 C 342.477 1064.98 348.054 1063.02 354.71 1058.67 C 373.407 1048.96 383.184 988.241 390.373 981.823 L 390.187 981.692 C 391.042 985.268 384.359 1003.81 382.75 1008.53 C 390.844 1017.74 400.473 1026.06 413.301 1026.94 C 421.661 1027.51 429.425 1023.91 428.907 1014.28 C 428.068 998.714 418.247 984.433 415.435 969.226 C 413.842 961.022 417.279 945.128 415.585 940.286 C 413.407 939.582 413.353 939.517 410.941 939.369 L 410.161 937.142 C 436.152 937.794 439.575 916.795 449.626 896.175 C 458.548 878.268 467.29 860.272 475.851 842.19 C 487.473 818.167 505.805 784.75 515.047 761.224 z" fill="rgb(25,12,13)" transform="translate(0,0)"></path>
<path d="M 302.104 874.842 C 330.642 901.937 370.871 929.505 410.161 937.142 L 410.941 939.369 C 370.782 936.66 321.414 914.501 287.911 893.334 L 287.638 890.916 C 289.441 887.224 297.562 882.39 300.876 876.547 L 302.104 874.842 z" fill="rgb(4,8,77)" transform="translate(0,0)"></path>
<path d="M 598.745 484.462 C 600.898 484.296 604.355 484.236 605.838 485.787 C 603.038 486.888 570.542 488.541 564.624 489.278 C 544.729 491.863 525.062 495.972 505.796 501.568 C 422.349 525.888 351.989 582.377 310.21 658.597 C 309.344 660.541 308.856 661.033 307.572 662.65 L 306.899 662.092 C 310.646 646.281 342.3 605.975 353.677 593.575 C 418.193 523.263 504.261 488.44 598.745 484.462 z" fill="rgb(24,23,28)" transform="translate(0,0)"></path>
<metadata><recraft-signature>{"signed_by": "recraft", "signature_b64": "VNOQdIgDgENgjFkd/hYBR2SxRnNCQ5KxcCf34gLY7PGkOBH72Me2Yo642P0Oyb4tyTroacRe7VRFtQocEu5YBA==", "signing_algo": "Ed25519", "generation_timestamp": 1779005092, "identifier": "37c868c5-b0f6-4a36-b8ec-2f76340c6c18"}</recraft-signature></metadata></svg>