<svg xmlns="http://www.w3.org/2000/svg" height="1280" preserveAspectRatio="none" style="display: block;" version="1.1" viewBox="0 0 1331 2048" width="832">
<path d="M 0 0 L 1331 0 L 1331 2048 L 0 2048 L 0 0 z" fill="rgb(254,254,254)" transform="translate(0,0)"></path>
<path d="M 225.259 814.262 C 225.296 778.321 225.765 743.396 229.409 707.613 C 246.667 538.129 299.883 365.986 422.99 243.161 C 511.299 154.641 630.938 104.495 755.972 103.592 C 870.571 103.92 980.381 149.597 1061.41 230.64 C 1140.58 310.511 1184.15 406.783 1203.66 516.598 C 1229.26 660.77 1189.69 805.202 1136.62 938.589 C 1134.55 943.812 1132.06 950.23 1129.45 955.156 C 1140.64 963.1 1146.23 971.789 1140.16 985.576 C 1133.22 1001.34 1124.78 1016.89 1116.94 1032.27 L 1116.73 1033.91 C 1132.13 1046.97 1152.97 1061.11 1123.69 1076.65 C 1123.99 1081.01 1125.02 1088.8 1121.88 1092.2 C 1118.14 1096.24 1108.88 1100.64 1109.69 1107.27 C 1111.02 1118.13 1103.36 1121.75 1094.12 1125.06 C 1093.67 1145.88 1078.24 1146.02 1063.67 1137.21 C 1060.28 1144.28 1055.76 1154.85 1051.62 1161.26 C 1047.49 1170.5 1043.48 1181.1 1033.3 1185.03 C 1020 1190.17 1001.87 1177.65 997.075 1165.36 C 994.025 1157.54 997.589 1151.29 1000.89 1144.32 C 1007.47 1131.01 1014.92 1118.81 1020.39 1104.92 C 994.352 1091.69 996.259 1080.03 973.181 1069.84 C 966.045 1085.55 956.587 1098.61 937.234 1087.22 C 912.852 1072.88 889.644 1055.71 865.699 1040.5 C 868.769 1054.69 872.453 1068.74 876.74 1082.61 C 866.336 1089.2 856.655 1094.01 845.64 1099.5 C 855.767 1217.16 829.998 1258.45 749.592 1338.59 L 675.112 1412.13 C 673.009 1414.12 671.285 1415.75 669.028 1417.57 C 716.744 1467.15 769.333 1515.19 815.888 1565.96 C 818.948 1569.3 820.682 1578.43 820.387 1582.89 C 819.096 1600.46 811.416 1608.73 800.306 1619.8 C 793.251 1626.83 760.389 1652.53 757.697 1656.97 L 758.126 1658.38 L 756.48 1659.89 C 738.642 1678.27 722.379 1689.32 698.321 1698.98 C 691.883 1701.57 678.612 1705.75 673.531 1709.55 L 671.008 1710.69 L 670.026 1711.11 C 650.557 1720.19 631.831 1730.11 610.04 1731.33 C 622.002 1742.47 637.499 1752.92 637.829 1770.3 C 638.033 1781.03 635.934 1785 628.194 1792.63 C 615.864 1804.78 601.277 1816.3 587.655 1827.01 C 568.977 1841.45 550.394 1856.01 531.905 1870.69 C 519.11 1880.77 506.389 1890.96 493.745 1901.23 C 471.686 1919.38 413.512 1968.28 381.203 1938.41 C 373.708 1931.48 359.703 1908.33 359.603 1897.38 C 362.843 1879.02 398.463 1832.38 410.081 1817.95 C 411.033 1816.55 411.036 1816.53 412.203 1815.33 C 424.657 1795.91 441.605 1777.13 449.089 1755 C 454.05 1740.32 445.509 1728.73 461.519 1719.76 C 457.203 1711.74 452.955 1703.04 448.796 1694.88 C 428.014 1700.04 405.537 1703.89 384.104 1701.89 C 366.755 1700.27 356.649 1693.95 354.326 1676.04 C 350.341 1645.31 347.282 1614.51 343.195 1583.82 C 338.595 1550.05 334.28 1516.25 330.253 1482.41 C 327.72 1461.71 324.985 1440.84 323.452 1420.53 C 318.731 1358 341.479 1318.68 383.536 1275.24 C 413.679 1244.1 442.505 1212.3 476.792 1184.49 C 495.96 1168.95 513.16 1155.7 533.512 1141.56 L 534.844 1139.13 C 524.679 1136.94 509.132 1131.61 498.848 1128.34 C 498.511 1114.59 497.225 1100.02 497.204 1086.34 C 497.181 1071.53 497.98 1055.68 498.526 1040.83 C 474.639 1043.83 440.223 1044.68 414.577 1046.29 C 385.195 1046.08 349.95 1053.67 321.163 1049.48 C 297.198 1045.99 305.636 1011.12 308.628 998.361 C 305.598 998.074 294.389 996.993 292.016 997.409 C 278.268 999.821 270.701 1002.73 256.417 1003.34 L 255.945 1016.88 C 255.99 1020.17 256.129 1027.69 255.41 1030.8 C 255.303 1039.27 256.196 1056.9 250.764 1060.08 C 215.402 1080.78 195.651 1059.6 201.865 1021.97 C 202.723 1016.77 202.24 999.636 202.286 997.12 C 195.538 997.627 188.495 998.025 182.957 994.558 C 175.326 989.781 176.906 978.915 176.824 971.752 C 176.822 971.535 169.965 961.797 170.202 957.447 C 170.39 953.996 174.795 946.285 174.184 945.305 C 171.802 941.486 168.086 938.371 167.514 932.915 C 166.811 926.212 172.74 922.383 173.265 916.652 C 173.462 914.492 169.625 907.19 169.169 904.48 C 168.623 901.238 170.023 898.697 171.739 896.039 C 177.504 887.11 194.651 886.649 205.056 885.332 C 205.068 880.948 204.617 875.415 204.931 871.238 C 206.686 847.893 196.038 822.534 225.259 814.262 z" fill="rgb(254,254,254)" transform="translate(0,0)"></path>
<path d="M 613.278 1147.94 C 686.404 1148.42 777.128 1133.56 843.217 1100.62 C 858.896 1266.67 774.972 1304.45 672.415 1411.54 L 675.112 1412.13 C 673.009 1414.12 671.285 1415.75 669.028 1417.57 C 716.744 1467.15 769.333 1515.19 815.888 1565.96 C 818.948 1569.3 820.682 1578.43 820.387 1582.89 C 819.096 1600.46 811.416 1608.73 800.306 1619.8 C 793.251 1626.83 760.389 1652.53 757.697 1656.97 L 758.126 1658.38 L 756.48 1659.89 C 738.642 1678.27 722.379 1689.32 698.321 1698.98 C 691.883 1701.57 678.612 1705.75 673.531 1709.55 L 671.008 1710.69 L 670.026 1711.11 C 650.557 1720.19 631.831 1730.11 610.04 1731.33 C 622.002 1742.47 637.499 1752.92 637.829 1770.3 C 638.033 1781.03 635.934 1785 628.194 1792.63 C 615.864 1804.78 601.277 1816.3 587.655 1827.01 C 568.977 1841.45 550.394 1856.01 531.905 1870.69 C 519.11 1880.77 506.389 1890.96 493.745 1901.23 C 471.686 1919.38 413.512 1968.28 381.203 1938.41 C 373.708 1931.48 359.703 1908.33 359.603 1897.38 C 362.843 1879.02 398.463 1832.38 410.081 1817.95 C 411.033 1816.55 411.036 1816.53 412.203 1815.33 C 424.657 1795.91 441.605 1777.13 449.089 1755 C 454.05 1740.32 445.509 1728.73 461.519 1719.76 C 457.203 1711.74 452.955 1703.04 448.796 1694.88 C 428.014 1700.04 405.537 1703.89 384.104 1701.89 C 366.755 1700.27 356.649 1693.95 354.326 1676.04 C 350.341 1645.31 347.282 1614.51 343.195 1583.82 C 338.595 1550.05 334.28 1516.25 330.253 1482.41 C 327.72 1461.71 324.985 1440.84 323.452 1420.53 C 318.731 1358 341.479 1318.68 383.536 1275.24 C 413.679 1244.1 442.505 1212.3 476.792 1184.49 C 495.96 1168.95 513.16 1155.7 533.512 1141.56 L 534.844 1139.13 L 534.093 1136.54 C 556.564 1141.87 578.39 1144.13 601.443 1145.04 C 605.139 1145.19 609.588 1145.3 613.225 1145.73 L 613.278 1147.94 z" fill="rgb(236,167,125)" transform="translate(0,0)"></path>
<path d="M 534.093 1136.54 C 556.564 1141.87 578.39 1144.13 601.443 1145.04 C 605.139 1145.19 609.588 1145.3 613.225 1145.73 L 613.278 1147.94 C 572.967 1196.36 530.799 1243.63 491.719 1292.91 C 476.331 1312.32 450.095 1344.42 440.043 1366.35 C 432.032 1384.12 428.749 1403.66 430.514 1423.07 C 433.72 1457.49 455.137 1489.06 471.901 1518.67 L 519.358 1602.1 C 530.411 1621.3 543.74 1643.39 553.674 1662.95 C 592.137 1730.58 586.362 1748.72 670.002 1708.29 L 670.026 1711.11 C 650.557 1720.19 631.831 1730.11 610.04 1731.33 C 622.002 1742.47 637.499 1752.92 637.829 1770.3 C 638.033 1781.03 635.934 1785 628.194 1792.63 C 615.864 1804.78 601.277 1816.3 587.655 1827.01 C 568.977 1841.45 550.394 1856.01 531.905 1870.69 C 519.11 1880.77 506.389 1890.96 493.745 1901.23 C 471.686 1919.38 413.512 1968.28 381.203 1938.41 C 373.708 1931.48 359.703 1908.33 359.603 1897.38 C 362.843 1879.02 398.463 1832.38 410.081 1817.95 C 411.033 1816.55 411.036 1816.53 412.203 1815.33 C 424.657 1795.91 441.605 1777.13 449.089 1755 C 454.05 1740.32 445.509 1728.73 461.519 1719.76 C 457.203 1711.74 452.955 1703.04 448.796 1694.88 C 428.014 1700.04 405.537 1703.89 384.104 1701.89 C 366.755 1700.27 356.649 1693.95 354.326 1676.04 C 350.341 1645.31 347.282 1614.51 343.195 1583.82 C 338.595 1550.05 334.28 1516.25 330.253 1482.41 C 327.72 1461.71 324.985 1440.84 323.452 1420.53 C 318.731 1358 341.479 1318.68 383.536 1275.24 C 413.679 1244.1 442.505 1212.3 476.792 1184.49 C 495.96 1168.95 513.16 1155.7 533.512 1141.56 L 534.844 1139.13 L 534.093 1136.54 z" fill="rgb(236,167,125)" transform="translate(0,0)"></path>
<path d="M 533.512 1141.56 L 534.249 1143.29 L 533.526 1143.94 C 519.515 1156.59 502.663 1166.58 487.965 1178.56 C 449.746 1209.73 365.059 1289.27 342.841 1331.33 C 332.471 1350.96 327.206 1372.99 325.91 1395.05 C 325.165 1407.74 325.793 1420.24 326.951 1432.89 C 331.529 1482.92 339.168 1532.96 345.532 1582.81 C 349.463 1613.6 351.609 1645.34 356.898 1675.87 C 357.545 1679.6 359.134 1688.34 361.927 1690.99 C 372.922 1701.43 393.914 1700.75 407.985 1699.41 C 423.082 1697.98 438.99 1694.97 453.607 1690.85 L 453.433 1693.53 C 467.093 1689.65 474.766 1689.75 488.568 1687.84 C 509.203 1684.98 529.81 1674.25 546.001 1661.29 L 548.497 1659.88 C 549.738 1661.43 549.518 1660.59 549.731 1662.3 L 551.778 1664.37 L 553.674 1662.95 C 592.137 1730.58 586.362 1748.72 670.002 1708.29 L 670.026 1711.11 C 650.557 1720.19 631.831 1730.11 610.04 1731.33 C 622.002 1742.47 637.499 1752.92 637.829 1770.3 C 638.033 1781.03 635.934 1785 628.194 1792.63 C 615.864 1804.78 601.277 1816.3 587.655 1827.01 C 568.977 1841.45 550.394 1856.01 531.905 1870.69 C 519.11 1880.77 506.389 1890.96 493.745 1901.23 C 471.686 1919.38 413.512 1968.28 381.203 1938.41 C 373.708 1931.48 359.703 1908.33 359.603 1897.38 C 362.843 1879.02 398.463 1832.38 410.081 1817.95 C 411.033 1816.55 411.036 1816.53 412.203 1815.33 C 424.657 1795.91 441.605 1777.13 449.089 1755 C 454.05 1740.32 445.509 1728.73 461.519 1719.76 C 457.203 1711.74 452.955 1703.04 448.796 1694.88 C 428.014 1700.04 405.537 1703.89 384.104 1701.89 C 366.755 1700.27 356.649 1693.95 354.326 1676.04 C 350.341 1645.31 347.282 1614.51 343.195 1583.82 C 338.595 1550.05 334.28 1516.25 330.253 1482.41 C 327.72 1461.71 324.985 1440.84 323.452 1420.53 C 318.731 1358 341.479 1318.68 383.536 1275.24 C 413.679 1244.1 442.505 1212.3 476.792 1184.49 C 495.96 1168.95 513.16 1155.7 533.512 1141.56 z" fill="rgb(11,8,7)" transform="translate(0,0)"></path>
<path d="M 410.081 1817.95 C 411.033 1816.55 411.036 1816.53 412.203 1815.33 L 414.267 1816.03 C 422.621 1817.8 473.608 1844.06 485.731 1849.48 C 461.588 1873.9 420.141 1907.3 383.614 1909.76 C 378.308 1910.12 368.928 1907.89 364.929 1904.05 C 363.289 1902.5 362.342 1900.36 362.302 1898.11 C 362.025 1883.68 401.131 1835.88 411.27 1820.24 L 410.081 1817.95 z" fill="rgb(254,254,254)" transform="translate(0,0)"></path>
<path d="M 410.081 1817.95 C 411.033 1816.55 411.036 1816.53 412.203 1815.33 L 414.267 1816.03 C 413.261 1817.43 412.262 1818.83 411.27 1820.24 L 410.081 1817.95 z" fill="rgb(46,43,44)" transform="translate(0,0)"></path>
<path d="M 546.001 1661.29 C 549.212 1668.43 551.64 1676.49 554.104 1683.97 C 536.948 1688.16 537.067 1694.4 534.193 1710.03 C 520.961 1724.92 501.315 1727.22 482.345 1729.11 C 476.098 1720.09 474.814 1720 463.876 1719.69 C 461.587 1715.09 452.063 1697.67 452.904 1693.95 L 453.433 1693.53 C 467.093 1689.65 474.766 1689.75 488.568 1687.84 C 509.203 1684.98 529.81 1674.25 546.001 1661.29 z" fill="rgb(164,113,98)" transform="translate(0,0)"></path>
<path d="M 549.731 1662.3 L 551.778 1664.37 C 552.641 1665.96 569.035 1692.43 558.485 1685.16 C 555.559 1683.14 550.8 1667.03 549.731 1662.3 z" fill="rgb(254,254,254)" transform="translate(0,0)"></path>
<path d="M 565.406 1692.64 C 572.212 1697.15 577.663 1715.47 584.916 1722.83 C 591.45 1729.45 610.309 1730 610.86 1737.3 C 598.006 1759.38 513.948 1824 489.588 1845.86 L 488.447 1846.66 C 483.652 1846.34 454.316 1831.46 447.663 1828.22 C 469.56 1799.09 482.26 1785.53 485.541 1747.69 C 526.468 1760.98 564.556 1736.42 565.406 1692.64 z" fill="rgb(254,254,254)" transform="translate(0,0)"></path>
<path d="M 534.093 1136.54 C 556.564 1141.87 578.39 1144.13 601.443 1145.04 C 605.139 1145.19 609.588 1145.3 613.225 1145.73 L 613.278 1147.94 C 572.967 1196.36 530.799 1243.63 491.719 1292.91 C 476.331 1312.32 450.095 1344.42 440.043 1366.35 C 432.032 1384.12 428.749 1403.66 430.514 1423.07 C 433.72 1457.49 455.137 1489.06 471.901 1518.67 L 519.358 1602.1 C 530.411 1621.3 543.74 1643.39 553.674 1662.95 L 551.778 1664.37 L 549.731 1662.3 C 549.518 1660.59 549.738 1661.43 548.497 1659.88 L 546.001 1661.29 C 529.81 1674.25 509.203 1684.98 488.568 1687.84 C 474.766 1689.75 467.093 1689.65 453.433 1693.53 L 453.607 1690.85 C 482.234 1683.96 504.084 1676.12 529.987 1662.85 C 512.169 1623.56 494.132 1584.38 475.876 1545.3 C 463.391 1518.5 451.376 1491.6 439.426 1464.65 C 408.336 1394.53 442.909 1349.62 484.195 1293.93 C 503.584 1267.38 523.298 1241.06 543.332 1214.98 C 555.992 1198.47 573.088 1177.67 584.207 1160.92 C 569.061 1155.15 554.759 1148.42 539.93 1141.98 C 537.353 1140.86 536.556 1142.01 534.249 1143.29 L 533.512 1141.56 L 534.844 1139.13 L 534.093 1136.54 z" fill="rgb(11,8,7)" transform="translate(0,0)"></path>
<path d="M 667.6 1420.07 C 668.099 1418.71 668.097 1418.85 669.028 1417.57 C 716.744 1467.15 769.333 1515.19 815.888 1565.96 C 818.948 1569.3 820.682 1578.43 820.387 1582.89 C 819.096 1600.46 811.416 1608.73 800.306 1619.8 C 793.251 1626.83 760.389 1652.53 757.697 1656.97 L 755.716 1653.89 C 775.29 1638.19 835.958 1597.12 813.506 1566.69 C 805.425 1555.74 783.681 1536.04 773.166 1525.46 L 667.6 1420.07 z" fill="rgb(11,8,7)" transform="translate(0,0)"></path>
<path d="M 755.716 1653.89 L 757.697 1656.97 L 758.126 1658.38 L 756.48 1659.89 C 738.642 1678.27 722.379 1689.32 698.321 1698.98 C 691.883 1701.57 678.612 1705.75 673.531 1709.55 L 671.008 1710.69 L 670.026 1711.11 L 670.002 1708.29 C 699.994 1692.5 728.659 1674.3 755.716 1653.89 z" fill="rgb(11,8,7)" transform="translate(0,0)"></path>
<path d="M 667.6 1420.07 C 661.963 1414.05 612.918 1366.63 612.052 1363.65 L 612.077 1363.63 L 612.649 1363.55 L 612.565 1363.49 C 614.849 1363.47 667.695 1411.46 672.415 1411.54 L 675.112 1412.13 C 673.009 1414.12 671.285 1415.75 669.028 1417.57 C 668.097 1418.85 668.099 1418.71 667.6 1420.07 z" fill="rgb(11,8,7)" transform="translate(0,0)"></path>
<path d="M 716.806 628.853 L 718.931 628.876 C 721.051 638.939 726.077 662.842 726.538 672.414 C 731.752 674.622 735.39 676.138 740.265 678.959 C 767.242 676.437 787.88 682.53 808.914 700.07 C 816.628 706.459 823.389 713.918 828.993 722.22 C 833.624 729.006 838.064 737.33 841.935 744.662 C 862.817 784.21 885.941 822.646 906.838 862.146 C 915.609 878.727 918.938 879.07 933.802 889.815 L 967.729 914.362 L 1009.1 944.319 C 1026.29 956.838 1044.91 966.434 1025.34 989.151 C 1024.39 990.251 1023.43 991.34 1022.45 992.418 C 1038.39 990.454 1066.82 983.688 1079.8 991.345 C 1088.95 973.017 1093.7 946.31 1117.87 949.849 L 1119.84 950.772 C 1121.91 951.649 1125.95 953.513 1127.92 954.098 L 1129.45 955.156 C 1140.64 963.1 1146.23 971.789 1140.16 985.576 C 1133.22 1001.34 1124.78 1016.89 1116.94 1032.27 L 1116.73 1033.91 C 1132.13 1046.97 1152.97 1061.11 1123.69 1076.65 C 1123.99 1081.01 1125.02 1088.8 1121.88 1092.2 C 1118.14 1096.24 1108.88 1100.64 1109.69 1107.27 C 1111.02 1118.13 1103.36 1121.75 1094.12 1125.06 C 1093.67 1145.88 1078.24 1146.02 1063.67 1137.21 C 1060.28 1144.28 1055.76 1154.85 1051.62 1161.26 C 1047.49 1170.5 1043.48 1181.1 1033.3 1185.03 C 1020 1190.17 1001.87 1177.65 997.075 1165.36 C 994.025 1157.54 997.589 1151.29 1000.89 1144.32 C 1007.47 1131.01 1014.92 1118.81 1020.39 1104.92 C 994.352 1091.69 996.259 1080.03 973.181 1069.84 C 966.045 1085.55 956.587 1098.61 937.234 1087.22 C 912.852 1072.88 889.644 1055.71 865.699 1040.5 C 868.769 1054.69 872.453 1068.74 876.74 1082.61 C 866.336 1089.2 856.655 1094.01 845.64 1099.5 C 855.767 1217.16 829.998 1258.45 749.592 1338.59 L 675.112 1412.13 L 672.415 1411.54 C 774.972 1304.45 858.896 1266.67 843.217 1100.62 C 777.128 1133.56 686.404 1148.42 613.278 1147.94 L 613.225 1145.73 C 609.588 1145.3 605.139 1145.19 601.443 1145.04 C 578.39 1144.13 556.564 1141.87 534.093 1136.54 L 534.844 1139.13 C 524.679 1136.94 509.132 1131.61 498.848 1128.34 C 498.511 1114.59 497.225 1100.02 497.204 1086.34 C 497.181 1071.53 497.98 1055.68 498.526 1040.83 C 474.639 1043.83 440.223 1044.68 414.577 1046.29 C 385.195 1046.08 349.95 1053.67 321.163 1049.48 C 297.198 1045.99 305.636 1011.12 308.628 998.361 C 305.598 998.074 294.389 996.993 292.016 997.409 C 278.268 999.821 270.701 1002.73 256.417 1003.34 L 255.945 1016.88 C 255.99 1020.17 256.129 1027.69 255.41 1030.8 C 255.303 1039.27 256.196 1056.9 250.764 1060.08 C 215.402 1080.78 195.651 1059.6 201.865 1021.97 C 202.723 1016.77 202.24 999.636 202.286 997.12 C 195.538 997.627 188.495 998.025 182.957 994.558 C 175.326 989.781 176.906 978.915 176.824 971.752 C 176.822 971.535 169.965 961.797 170.202 957.447 C 170.39 953.996 174.795 946.285 174.184 945.305 C 171.802 941.486 168.086 938.371 167.514 932.915 C 166.811 926.212 172.74 922.383 173.265 916.652 C 173.462 914.492 169.625 907.19 169.169 904.48 C 168.623 901.238 170.023 898.697 171.739 896.039 C 177.504 887.11 194.651 886.649 205.056 885.332 C 205.068 880.948 204.617 875.415 204.931 871.238 C 206.686 847.893 196.038 822.534 225.259 814.262 L 227.829 815.047 C 230.54 815.146 233.71 815.353 236.379 815.273 L 238.556 816.239 C 256.762 819.235 257.118 830.709 256.87 845.975 C 256.268 850.432 256.257 852.864 256.178 857.409 C 256.069 860.905 255.981 864.403 255.913 867.9 L 256.953 868.352 C 273.294 869.683 298.808 896.44 311.347 908.342 C 315.327 900.948 318.601 894.818 327.673 893.845 C 373.082 888.974 419.917 889.312 465.305 884.763 C 469.356 876.22 480.89 859.2 486.484 850.919 L 526.321 792.354 C 530.087 786.773 544.202 767.21 546.003 762.395 C 558.513 728.938 566.386 712.483 603.233 698.65 C 601.014 686.692 599.566 675.494 598.016 663.462 L 600.785 663.752 C 601.866 675.041 603.786 686.398 605.648 697.582 C 614.884 694.086 631.912 691.353 639.064 687.602 C 662.256 675.441 682.037 663.581 709.697 668.121 C 713.859 668.804 718.084 670.297 722.388 671.003 L 723.625 669.974 C 723.759 664.586 718.197 636.734 716.806 628.853 z" fill="rgb(236,167,125)" transform="translate(0,0)"></path>
<path d="M 716.806 628.853 L 718.931 628.876 C 721.051 638.939 726.077 662.842 726.538 672.414 C 731.752 674.622 735.39 676.138 740.265 678.959 C 767.242 676.437 787.88 682.53 808.914 700.07 C 816.628 706.459 823.389 713.918 828.993 722.22 C 833.624 729.006 838.064 737.33 841.935 744.662 C 862.817 784.21 885.941 822.646 906.838 862.146 C 915.609 878.727 918.938 879.07 933.802 889.815 L 967.729 914.362 L 1009.1 944.319 C 1026.29 956.838 1044.91 966.434 1025.34 989.151 C 1024.39 990.251 1023.43 991.34 1022.45 992.418 C 1038.39 990.454 1066.82 983.688 1079.8 991.345 C 1088.95 973.017 1093.7 946.31 1117.87 949.849 L 1119.84 950.772 C 1121.91 951.649 1125.95 953.513 1127.92 954.098 L 1129.45 955.156 C 1140.64 963.1 1146.23 971.789 1140.16 985.576 C 1133.22 1001.34 1124.78 1016.89 1116.94 1032.27 L 1116.73 1033.91 C 1132.13 1046.97 1152.97 1061.11 1123.69 1076.65 C 1123.99 1081.01 1125.02 1088.8 1121.88 1092.2 C 1118.14 1096.24 1108.88 1100.64 1109.69 1107.27 C 1111.02 1118.13 1103.36 1121.75 1094.12 1125.06 C 1093.67 1145.88 1078.24 1146.02 1063.67 1137.21 C 1060.28 1144.28 1055.76 1154.85 1051.62 1161.26 C 1047.49 1170.5 1043.48 1181.1 1033.3 1185.03 C 1020 1190.17 1001.87 1177.65 997.075 1165.36 C 994.025 1157.54 997.589 1151.29 1000.89 1144.32 C 1007.47 1131.01 1014.92 1118.81 1020.39 1104.92 C 994.352 1091.69 996.259 1080.03 973.181 1069.84 C 966.045 1085.55 956.587 1098.61 937.234 1087.22 C 912.852 1072.88 889.644 1055.71 865.699 1040.5 C 868.769 1054.69 872.453 1068.74 876.74 1082.61 C 866.336 1089.2 856.655 1094.01 845.64 1099.5 C 855.767 1217.16 829.998 1258.45 749.592 1338.59 L 675.112 1412.13 L 672.415 1411.54 C 774.972 1304.45 858.896 1266.67 843.217 1100.62 C 777.128 1133.56 686.404 1148.42 613.278 1147.94 L 613.225 1145.73 C 703.68 1146.19 794.486 1126.15 873.67 1081.73 C 871.184 1072.73 864.405 1049.39 863.809 1041.54 C 864.32 1041.23 867.927 1039.88 868.71 1039.58 L 915.869 1070.43 C 930.629 1080.15 953.939 1101.39 966.945 1077.11 C 978.375 1055.69 987.687 1028.72 1000.69 1008.61 C 1007.26 998.459 1035.82 986.5 1030.55 968.248 C 1027.75 958.579 1003.33 943.024 994.523 936.649 L 938.602 896.382 C 905.421 872.362 912.383 877.283 892.784 841.398 L 853.685 771.238 C 836.199 739.33 823.592 708.127 789.895 690.027 C 770.972 679.867 748.742 677.8 728.27 684.298 C 706.852 690.942 688.798 704.899 678.507 725.016 C 671.14 739.635 668.203 756.087 670.055 772.352 C 670.65 777.698 672.807 787.186 674.748 792.959 C 674.367 793.247 673.986 793.535 673.604 793.823 C 669.912 790.632 667.587 772.827 667.228 767.714 C 665.682 745.531 673.034 723.645 687.658 706.894 C 701.195 691.386 717.22 684.86 736.245 679.225 C 712.5 668.667 693.751 666.194 668.384 675.722 C 657.37 679.957 647.401 687.257 636.347 691.327 C 628.253 694.307 619.414 696.084 611.09 698.614 C 588.655 705.432 566.467 718.852 556.997 741.262 C 552.348 752.263 550.571 764.436 546.774 775.726 C 512.879 882.753 494.735 1014.66 501.386 1126.87 C 511.249 1129.89 524.299 1134.28 534.093 1136.54 L 534.844 1139.13 C 524.679 1136.94 509.132 1131.61 498.848 1128.34 C 498.511 1114.59 497.225 1100.02 497.204 1086.34 C 497.181 1071.53 497.98 1055.68 498.526 1040.83 C 474.639 1043.83 440.223 1044.68 414.577 1046.29 C 385.195 1046.08 349.95 1053.67 321.163 1049.48 C 297.198 1045.99 305.636 1011.12 308.628 998.361 C 305.598 998.074 294.389 996.993 292.016 997.409 C 278.268 999.821 270.701 1002.73 256.417 1003.34 L 255.945 1016.88 C 255.99 1020.17 256.129 1027.69 255.41 1030.8 C 255.303 1039.27 256.196 1056.9 250.764 1060.08 C 215.402 1080.78 195.651 1059.6 201.865 1021.97 C 202.723 1016.77 202.24 999.636 202.286 997.12 C 195.538 997.627 188.495 998.025 182.957 994.558 C 175.326 989.781 176.906 978.915 176.824 971.752 C 176.822 971.535 169.965 961.797 170.202 957.447 C 170.39 953.996 174.795 946.285 174.184 945.305 C 171.802 941.486 168.086 938.371 167.514 932.915 C 166.811 926.212 172.74 922.383 173.265 916.652 C 173.462 914.492 169.625 907.19 169.169 904.48 C 168.623 901.238 170.023 898.697 171.739 896.039 C 177.504 887.11 194.651 886.649 205.056 885.332 C 205.068 880.948 204.617 875.415 204.931 871.238 C 206.686 847.893 196.038 822.534 225.259 814.262 L 227.829 815.047 C 230.54 815.146 233.71 815.353 236.379 815.273 L 238.556 816.239 C 256.762 819.235 257.118 830.709 256.87 845.975 C 256.268 850.432 256.257 852.864 256.178 857.409 C 256.069 860.905 255.981 864.403 255.913 867.9 L 256.953 868.352 C 273.294 869.683 298.808 896.44 311.347 908.342 C 315.327 900.948 318.601 894.818 327.673 893.845 C 373.082 888.974 419.917 889.312 465.305 884.763 C 469.356 876.22 480.89 859.2 486.484 850.919 L 526.321 792.354 C 530.087 786.773 544.202 767.21 546.003 762.395 C 558.513 728.938 566.386 712.483 603.233 698.65 C 601.014 686.692 599.566 675.494 598.016 663.462 L 600.785 663.752 C 601.866 675.041 603.786 686.398 605.648 697.582 C 614.884 694.086 631.912 691.353 639.064 687.602 C 662.256 675.441 682.037 663.581 709.697 668.121 C 713.859 668.804 718.084 670.297 722.388 671.003 L 723.625 669.974 C 723.759 664.586 718.197 636.734 716.806 628.853 z" fill="rgb(11,8,7)" transform="translate(0,0)"></path>
<path d="M 1020.33 995.176 C 1062.26 991.643 1063.53 978.761 1098.71 1009.21 C 1101.36 1012.62 1104.42 1015.69 1107.82 1018.35 C 1110.93 1022.45 1112.87 1027.45 1114.06 1029 L 1115.73 1028.51 L 1116.94 1032.27 L 1116.73 1033.91 C 1132.13 1046.97 1152.97 1061.11 1123.69 1076.65 C 1123.99 1081.01 1125.02 1088.8 1121.88 1092.2 C 1118.14 1096.24 1108.88 1100.64 1109.69 1107.27 C 1111.02 1118.13 1103.36 1121.75 1094.12 1125.06 L 1091.96 1125.31 C 1085.56 1110.9 1053.38 1097.93 1038.41 1094.24 C 1035.88 1096.07 1033.88 1097.55 1031.53 1099.63 L 1030.87 1097.35 C 1032.01 1095.78 1032.8 1094.55 1030.24 1094.21 L 1028.98 1094.01 L 1027.19 1093.07 L 1021.81 1102.94 C 997.538 1090.2 997.837 1078.49 974.926 1067.34 C 982.763 1050.36 990.629 1032.31 999.513 1015.87 C 1003.83 1007.88 1013.25 1000.86 1020.33 995.176 z" fill="rgb(164,113,98)" transform="translate(0,0)"></path>
<path d="M 1058.09 1027.83 C 1055.44 1025.23 1053.71 1023.82 1051.97 1020.47 L 1052.92 1019.76 C 1055.45 1020.45 1061.97 1025.43 1063.19 1027.35 C 1071.79 1040.82 1111.42 1053.5 1114.06 1029 L 1115.73 1028.51 L 1116.94 1032.27 L 1116.73 1033.91 C 1132.13 1046.97 1152.97 1061.11 1123.69 1076.65 C 1123.99 1081.01 1125.02 1088.8 1121.88 1092.2 C 1118.14 1096.24 1108.88 1100.64 1109.69 1107.27 C 1111.02 1118.13 1103.36 1121.75 1094.12 1125.06 L 1091.96 1125.31 C 1085.56 1110.9 1053.38 1097.93 1038.41 1094.24 C 1035.88 1096.07 1033.88 1097.55 1031.53 1099.63 L 1030.87 1097.35 C 1032.01 1095.78 1032.8 1094.55 1030.24 1094.21 L 1028.98 1094.01 L 1027.19 1093.07 C 1028.09 1089.96 1033.08 1080.75 1033.23 1079.17 C 1035.92 1050.99 1035.41 1046.68 1058.09 1027.83 z" fill="rgb(11,8,7)" transform="translate(0,0)"></path>
<path d="M 1051.05 1048.67 C 1072.59 1048.05 1104.23 1058.55 1119.17 1074.78 C 1127 1083.28 1120.34 1091.96 1112.61 1097.13 C 1106.98 1098.29 1103.71 1094.64 1098.41 1090.88 C 1087.45 1083.09 1075.74 1075.96 1063.07 1071.29 C 1058.01 1069.43 1051.22 1070.37 1045.51 1067.53 C 1038.78 1060.43 1045.92 1053.62 1051.05 1048.67 z" fill="rgb(164,113,98)" transform="translate(0,0)"></path>
<path d="M 1043.93 1072.07 C 1045.08 1072.04 1046.23 1072.05 1047.38 1072.09 C 1062.57 1072.66 1106.2 1088.66 1107.75 1108.91 C 1108.11 1113.65 1102.3 1118.31 1098.79 1121.14 C 1091.51 1122.99 1092.88 1118.69 1086.7 1114.37 C 1076.01 1106.91 1064.28 1099.93 1052.09 1095.19 C 1047.07 1093.24 1042.44 1092.83 1038.01 1090.52 C 1032.38 1083.17 1038.14 1076.78 1043.93 1072.07 z" fill="rgb(164,113,98)" transform="translate(0,0)"></path>
<path d="M 1061.73 1030.53 C 1064.95 1032.31 1068.96 1035.91 1072.27 1037.98 C 1087.71 1047.66 1101.99 1050.1 1114.98 1036.16 C 1126.89 1043.78 1142.02 1053.69 1131.21 1069.17 C 1129.74 1070.17 1125.11 1073.98 1123.8 1073.02 C 1098.21 1054.24 1084.61 1049.25 1053.16 1045.68 L 1052.05 1044.1 C 1052.59 1038.96 1058.12 1034.22 1061.73 1030.53 z" fill="rgb(164,113,98)" transform="translate(0,0)"></path>
<path d="M 208.679 888.434 C 212.107 881.941 212.805 878.459 220.856 876.445 C 231.23 873.849 258.906 868.553 268.092 873.388 C 268.775 873.739 268.788 873.782 269.347 874.304 L 273.137 877.508 C 273.837 877.878 273.738 877.841 274.301 878.44 C 279.613 883.088 284.885 887.783 290.114 892.524 C 290.793 892.88 290.761 892.887 291.294 893.441 C 297.703 899.045 304.982 905.159 310.991 911.068 C 310.751 928.103 313.563 936.906 315.754 952.646 C 316.991 961.542 310.621 986.196 308.615 996.449 C 302.508 995.526 295.466 994.015 289.534 995.134 C 276.032 997.681 270.237 1000.72 256.09 1000.94 L 255.951 981.543 L 253.902 983.43 L 250.542 986.608 L 248.087 985.756 C 248.99 980.321 247.508 976.609 246.056 971.303 C 226.961 965.244 197.889 964.237 179.77 972.992 L 178.718 970.817 L 179.842 969.6 C 172.76 966.27 170.441 956.406 175.854 950.359 C 182.01 943.483 184.258 943.712 192.949 942.535 L 189.175 940.358 C 202.108 938.49 214.287 937.95 227.316 938.402 C 235.767 938.695 246.444 946.2 252.711 943.12 C 256.595 937.7 255.19 932.31 251.875 927.157 L 254.353 925.239 L 255.887 912.954 C 234.346 913.244 212.052 913.861 206.354 888.909 L 208.679 888.434 z" fill="rgb(164,113,98)" transform="translate(0,0)"></path>
<path d="M 192.949 942.535 C 209.652 940.916 264.834 935.126 246.466 967.644 C 221.627 962.012 204.526 962.016 179.842 969.6 C 172.76 966.27 170.441 956.406 175.854 950.359 C 182.01 943.483 184.258 943.712 192.949 942.535 z" fill="rgb(164,113,98)" transform="translate(0,0)"></path>
<path d="M 206.354 888.909 L 208.679 888.434 C 210.769 896.981 212.079 900.266 219.494 905.515 C 232.183 914.498 259.185 907.234 266.616 909.186 C 263.15 913.872 258.257 911.336 259.508 916.764 C 262.743 930.795 268.388 945.147 259.165 958.558 C 258.171 959.983 257.119 961.367 256.011 962.706 C 256.043 967.727 256.371 976.844 255.951 981.543 L 253.902 983.43 L 250.542 986.608 L 248.087 985.756 C 248.99 980.321 247.508 976.609 246.056 971.303 C 226.961 965.244 197.889 964.237 179.77 972.992 L 178.718 970.817 L 179.842 969.6 C 204.526 962.016 221.627 962.012 246.466 967.644 C 264.834 935.126 209.652 940.916 192.949 942.535 L 189.175 940.358 C 202.108 938.49 214.287 937.95 227.316 938.402 C 235.767 938.695 246.444 946.2 252.711 943.12 C 256.595 937.7 255.19 932.31 251.875 927.157 L 254.353 925.239 L 255.887 912.954 C 234.346 913.244 212.052 913.861 206.354 888.909 z" fill="rgb(11,8,7)" transform="translate(0,0)"></path>
<path d="M 1031.53 1099.63 C 1033.88 1097.55 1035.88 1096.07 1038.41 1094.24 C 1053.38 1097.93 1085.56 1110.9 1091.96 1125.31 L 1094.12 1125.06 C 1093.67 1145.88 1078.24 1146.02 1063.67 1137.21 C 1060.28 1144.28 1055.76 1154.85 1051.62 1161.26 L 1049.86 1159.56 C 1053.84 1153.22 1058.59 1142.49 1061.73 1135.47 C 1047.93 1124.74 1023.29 1117.1 1030.87 1097.35 L 1031.53 1099.63 z" fill="rgb(164,113,98)" transform="translate(0,0)"></path>
<path d="M 1030.87 1097.35 L 1031.53 1099.63 C 1028.09 1115.57 1044.89 1119.73 1054.82 1127.72 C 1066.83 1137.38 1089.41 1152.49 1091.96 1125.31 L 1094.12 1125.06 C 1093.67 1145.88 1078.24 1146.02 1063.67 1137.21 C 1060.28 1144.28 1055.76 1154.85 1051.62 1161.26 L 1049.86 1159.56 C 1053.84 1153.22 1058.59 1142.49 1061.73 1135.47 C 1047.93 1124.74 1023.29 1117.1 1030.87 1097.35 z" fill="rgb(11,8,7)" transform="translate(0,0)"></path>
<path d="M 189.175 940.358 C 184.005 941.271 178.875 943.92 174.349 941.553 C 165.947 932.773 171.449 918.512 185.5 917.098 C 206.99 914.936 233.45 914.386 251.875 927.157 C 255.19 932.31 256.595 937.7 252.711 943.12 C 246.444 946.2 235.767 938.695 227.316 938.402 C 214.287 937.95 202.108 938.49 189.175 940.358 z" fill="rgb(164,113,98)" transform="translate(0,0)"></path>
<path d="M 253.902 983.43 C 253.894 988.759 253.763 994.321 253.811 999.603 C 253.123 1006.24 253.82 1026.68 252.201 1030.56 C 237.19 1024.52 219.37 1025.98 204.07 1030.17 C 204.204 1018.81 204.719 1007.8 205.068 996.478 C 220.26 995.233 238.329 995.219 250.542 986.608 L 253.902 983.43 z" fill="rgb(254,254,254)" transform="translate(0,0)"></path>
<path d="M 179.77 972.992 C 197.889 964.237 226.961 965.244 246.056 971.303 C 247.508 976.609 248.99 980.321 248.087 985.756 C 232.003 992.476 211.803 994.518 194.447 995.074 C 179.477 995.553 178.389 983.829 179.77 972.992 z" fill="rgb(164,113,98)" transform="translate(0,0)"></path>
<path d="M 1028.98 1094.01 L 1030.24 1094.21 C 1032.8 1094.55 1032.01 1095.78 1030.87 1097.35 C 1023.29 1117.1 1047.93 1124.74 1061.73 1135.47 C 1058.59 1142.49 1053.84 1153.22 1049.86 1159.56 C 1035.2 1145.81 1027.6 1142.08 1007.46 1137.39 C 1014.15 1123.43 1022.64 1108.03 1028.98 1094.01 z" fill="rgb(254,254,254)" transform="translate(0,0)"></path>
<path d="M 254.353 925.239 C 234.756 912.276 209.462 911.158 186.841 914.925 C 178.865 916.139 172.811 914.976 172.213 905.667 C 171.123 888.725 194.45 888.765 206.354 888.909 C 212.052 913.861 234.346 913.244 255.887 912.954 L 254.353 925.239 z" fill="rgb(164,113,98)" transform="translate(0,0)"></path>
<path d="M 1081.74 992.432 C 1083.45 988.312 1085.35 979.766 1090.33 980.88 C 1105.22 985.768 1116.48 992.141 1127.91 1002.79 C 1124.76 1010.4 1120.51 1022.03 1115.73 1028.51 C 1112.5 1014.85 1092.87 1000.59 1081.74 992.432 z" fill="rgb(254,254,254)" transform="translate(0,0)"></path>
<path d="M 207.23 856.096 C 221.345 853.564 240.891 851.717 254.184 857.835 L 256.178 857.409 C 256.069 860.905 255.981 864.403 255.913 867.9 L 254.608 868.401 C 248.758 869.838 243.448 869.57 237.579 870.551 C 228.36 872.091 213.626 871.938 208.92 881.54 C 208.523 882.351 208.792 882.793 207.605 882.786 C 207.149 882.311 207.222 858.198 207.23 856.096 z" fill="rgb(254,254,254)" transform="translate(0,0)"></path>
<path d="M 254.184 857.835 L 256.178 857.409 C 256.069 860.905 255.981 864.403 255.913 867.9 L 254.608 868.401 C 254.546 864.757 254.396 861.472 254.184 857.835 z" fill="rgb(84,81,82)" transform="translate(0,0)"></path>
<path d="M 252.201 1030.56 C 253.82 1026.68 253.123 1006.24 253.811 999.603 C 254.461 1007.64 253.835 1015.15 254.504 1022.91 L 254.588 1022.25 C 254.866 1020.18 255.344 1018.84 255.945 1016.88 C 255.99 1020.17 256.129 1027.69 255.41 1030.8 C 253.711 1031.04 253.631 1031.2 252.201 1030.56 z" fill="rgb(84,81,82)" transform="translate(0,0)"></path>
<path d="M 1098.71 1009.21 C 1101.98 1011.55 1105.3 1015.21 1107.82 1018.35 C 1104.42 1015.69 1101.36 1012.62 1098.71 1009.21 z" fill="rgb(105,73,63)" transform="translate(0,0)"></path>
<path d="M 544.799 769.837 C 545.225 775.262 535.841 801.133 533.745 809.002 C 529.928 823.819 526.343 838.694 522.989 853.623 C 509.568 914.506 501.475 976.442 498.799 1038.73 C 456.86 1039.96 414.324 1044.91 372.036 1046.44 C 344.319 1047.44 298.353 1060.32 307.601 1013.69 C 308.896 1007.16 310.477 1000.87 311.736 994.303 C 315.112 977.77 320.641 960.466 317.148 943.738 C 314.405 929.897 307.306 897.395 329.114 895.92 C 375.115 892.809 422.275 889.554 468.305 887.822 C 471.09 893.364 474.659 905.378 478.207 909.433 C 477.234 902.759 474.691 896.382 472.438 890.007 C 474.938 892.869 477.491 895.684 480.097 898.45 L 479.895 898.037 C 482.415 899.228 482.195 898.63 483.166 900.603 C 483.244 896.626 471.793 886.187 468.665 883.191 C 476.44 869.395 491.14 848.536 500.224 835.059 C 514.698 813.586 529.689 790.631 544.799 769.837 z" fill="rgb(236,167,125)" transform="translate(0,0)"></path>
<path d="M 684.815 818.054 C 695.801 829.145 714.877 860.92 724.173 875.543 L 776.244 957.059 C 799.249 993.449 795.302 992.808 831.592 1015.39 C 844.136 1023.18 856.511 1031.25 868.71 1039.58 C 867.927 1039.88 864.32 1041.23 863.809 1041.54 C 858.1 1031.95 808.504 1006.52 799.608 997.248 C 790.494 987.745 774.791 963.811 767.129 952.285 C 745.308 919.457 720.975 885.264 701.249 851.35 C 694.936 840.684 689.442 829.553 684.815 818.054 z" fill="rgb(11,8,7)" transform="translate(0,0)"></path>
<path d="M 489.94 404.204 C 500.545 377.907 511.433 356.076 532.026 335.68 C 575.684 292.439 646.296 275.995 704.004 298.065 C 726.356 306.614 746.196 324.843 762.428 342.078 C 839.273 356.256 863.632 447.84 842.826 513.731 C 831.188 550.588 808.851 579.534 777.137 601.334 C 762.92 611.015 747.331 618.507 730.89 623.559 C 726.575 624.877 720.603 625.643 718.931 628.876 L 716.806 628.853 C 718.197 636.734 723.759 664.586 723.625 669.974 L 722.388 671.003 C 718.084 670.297 713.859 668.804 709.697 668.121 C 682.037 663.581 662.256 675.441 639.064 687.602 C 631.912 691.353 614.884 694.086 605.648 697.582 C 603.786 686.398 601.866 675.041 600.785 663.752 L 598.016 663.462 L 595.652 641.305 C 592.93 641.791 587.729 642.092 584.771 642.343 L 583.952 639.936 C 516.486 643.019 472.466 584.985 486.754 520.355 C 477.237 519.309 462.684 517.845 463.116 505.432 C 466.891 496.669 489.744 491.871 493.317 483.916 C 499.5 470.152 498.315 451.238 500.739 436.277 C 502.373 426.19 504.9 418.142 507.822 408.347 L 505.578 407.619 C 500.856 405.771 495.02 405.043 489.94 404.204 z" fill="rgb(11,8,7)" transform="translate(0,0)"></path>
<path d="M 507.822 408.347 C 512.962 407.322 528.926 409.86 536.007 410.099 C 570.055 411.248 594.767 409.169 626.978 398.666 C 622.172 436.803 634.872 464.183 656.09 494.684 C 667.988 481.196 683.153 466.913 702.281 465.882 C 711.205 465.405 719.949 468.525 726.555 474.543 C 747.911 494.186 733.915 524.076 716.384 540.707 C 698.017 558.131 691.116 562.183 667.512 553.991 C 676.542 575.195 685.41 595.182 702.576 611.063 C 707.07 615.222 712.902 617.945 716.253 622.984 C 716.621 623.584 716.831 627.801 716.806 628.853 C 718.197 636.734 723.759 664.586 723.625 669.974 L 722.388 671.003 C 718.084 670.297 713.859 668.804 709.697 668.121 C 682.037 663.581 662.256 675.441 639.064 687.602 C 631.912 691.353 614.884 694.086 605.648 697.582 C 603.786 686.398 601.866 675.041 600.785 663.752 L 598.016 663.462 L 595.652 641.305 C 592.93 641.791 587.729 642.092 584.771 642.343 L 583.952 639.936 C 516.486 643.019 472.466 584.985 486.754 520.355 C 477.237 519.309 462.684 517.845 463.116 505.432 C 466.891 496.669 489.744 491.871 493.317 483.916 C 499.5 470.152 498.315 451.238 500.739 436.277 C 502.373 426.19 504.9 418.142 507.822 408.347 z" fill="rgb(164,113,98)" transform="translate(0,0)"></path>
<path d="M 583.952 639.936 C 613.128 636.009 629.635 627.382 652.27 608.876 C 642.536 631.035 628.498 652.886 604.872 662.285 C 603.525 662.817 602.162 663.306 600.785 663.752 L 598.016 663.462 L 595.652 641.305 C 592.93 641.791 587.729 642.092 584.771 642.343 L 583.952 639.936 z" fill="rgb(11,8,7)" transform="translate(0,0)"></path>
<path d="M 533.087 456.481 C 553.026 457.369 549.588 489.91 538.637 501.162 C 520.315 499.981 522.835 468.145 533.087 456.481 z" fill="rgb(11,8,7)" transform="translate(0,0)"></path>
<path d="M 539.688 428.154 C 563.078 425.947 569.116 436.909 577.12 456.417 C 570.477 451.217 567.871 448.05 560.453 443.382 C 543.557 433.828 537.779 441.652 523.561 450.413 C 527.66 438.812 528.469 434.523 539.688 428.154 z" fill="rgb(11,8,7)" transform="translate(0,0)"></path>
<path d="M 701.735 490.084 C 707.254 490.153 711.997 491.062 714.993 496.468 C 723.597 511.99 704.686 535.045 687.581 529.64 C 686.706 529.363 685.489 528.704 685.105 527.824 C 685.591 526.866 687.615 526.924 688.486 527.095 C 696.264 528.623 699.824 526.676 706.044 522.412 C 720.905 505.928 717.516 484.775 692.439 496.919 C 689.667 498.261 682.492 505.673 681 504.99 C 679.557 499.329 696.906 491.482 701.735 490.084 z" fill="rgb(11,8,7)" transform="translate(0,0)"></path>
<path d="M 551.245 545.61 C 556.874 551.031 539.695 566.049 535.016 568.616 C 522.776 575.329 515.01 576.36 501.737 573.274 C 500.442 570.485 503.085 571.079 505.034 571.458 C 527.039 575.727 542.041 563.58 551.245 545.61 z" fill="rgb(11,8,7)" transform="translate(0,0)"></path>
<path d="M 225.259 814.262 C 225.296 778.321 225.765 743.396 229.409 707.613 C 246.667 538.129 299.883 365.986 422.99 243.161 C 511.299 154.641 630.938 104.495 755.972 103.592 C 870.571 103.92 980.381 149.597 1061.41 230.64 C 1140.58 310.511 1184.15 406.783 1203.66 516.598 C 1229.26 660.77 1189.69 805.202 1136.62 938.589 C 1134.55 943.812 1132.06 950.23 1129.45 955.156 L 1127.92 954.098 C 1125.95 953.513 1121.91 951.649 1119.84 950.772 L 1117.87 949.849 C 1123.4 935.353 1129.74 921.109 1135.21 906.482 C 1170.59 811.887 1199.99 707.793 1198.9 606.045 C 1197.44 470.433 1147.07 332.424 1049.41 236.637 C 969.669 158.818 862.281 115.865 750.87 117.229 C 626.043 118.74 509.218 171.693 422.835 261.886 C 313.455 376.092 264.079 532.886 244.219 686.714 C 238.637 729.942 237.98 772.687 238.556 816.239 L 236.379 815.273 C 233.71 815.353 230.54 815.146 227.829 815.047 L 225.259 814.262 z" fill="rgb(247,226,161)" transform="translate(0,0)"></path>
<path d="M 225.259 814.262 C 225.296 778.321 225.765 743.396 229.409 707.613 C 246.667 538.129 299.883 365.986 422.99 243.161 C 511.299 154.641 630.938 104.495 755.972 103.592 C 870.571 103.92 980.381 149.597 1061.41 230.64 C 1140.58 310.511 1184.15 406.783 1203.66 516.598 C 1229.26 660.77 1189.69 805.202 1136.62 938.589 C 1134.55 943.812 1132.06 950.23 1129.45 955.156 L 1127.92 954.098 C 1130.41 947.521 1133.25 940.873 1135.83 934.343 C 1190.77 795.517 1229.38 648.211 1197.88 498.648 C 1176.65 397.872 1135.95 309.793 1062.29 234.913 C 982.467 153.521 873.595 107.149 759.598 105.985 C 635.15 105.834 515.67 154.797 427.116 242.235 C 301.523 366.304 248.439 539.711 231.461 711.887 C 228.006 746.925 228.045 779.963 227.829 815.047 L 225.259 814.262 z" fill="rgb(11,8,7)" transform="translate(0,0)"></path>
<path d="M 741.593 115.131 C 1014.63 109.054 1194.02 337.338 1201.01 595.626 C 1204.24 715.165 1166.31 841.81 1119.84 950.772 L 1117.87 949.849 C 1123.4 935.353 1129.74 921.109 1135.21 906.482 C 1170.59 811.887 1199.99 707.793 1198.9 606.045 C 1197.44 470.433 1147.07 332.424 1049.41 236.637 C 969.669 158.818 862.281 115.865 750.87 117.229 C 626.043 118.74 509.218 171.693 422.835 261.886 C 313.455 376.092 264.079 532.886 244.219 686.714 C 238.637 729.942 237.98 772.687 238.556 816.239 L 236.379 815.273 C 230.924 527.644 352.212 186.403 669.655 123.238 C 688.237 119.541 709.548 116.36 728.506 115.866 C 734.11 114.902 735.933 115.001 741.593 115.131 z" fill="rgb(11,8,7)" transform="translate(0,0)"></path>
<path d="M 728.506 115.866 C 734.11 114.902 735.933 115.001 741.593 115.131 C 735.37 116.852 734.862 116.53 728.506 115.866 z" fill="rgb(97,88,64)" transform="translate(0,0)"></path>
<path d="M 505.578 407.619 L 507.822 408.347 C 504.9 418.142 502.373 426.19 500.739 436.277 C 498.315 451.238 499.5 470.152 493.317 483.916 C 489.744 491.871 466.891 496.669 463.116 505.432 C 462.684 517.845 477.237 519.309 486.754 520.355 C 472.466 584.985 516.486 643.019 583.952 639.936 L 584.771 642.343 C 577.689 642.932 570.563 642.715 563.53 641.694 C 519.378 635.283 488.339 601.562 481.738 557.948 C 479.918 545.92 481.453 535.077 483.209 523.185 C 480.86 522.628 478.523 522.018 476.202 521.354 C 466.686 518.629 452.711 510.473 464.207 499.24 C 469.296 494.267 487.275 490.243 490.555 483.185 C 497.427 468.402 495.553 450.328 498.512 434.542 C 500.255 424.833 502.472 417.1 505.578 407.619 z" fill="rgb(11,8,7)" transform="translate(0,0)"></path>
<path d="M 256.87 845.975 C 257.355 853.378 257.018 860.905 256.953 868.352 L 255.913 867.9 C 255.981 864.403 256.069 860.905 256.178 857.409 C 256.257 852.864 256.268 850.432 256.87 845.975 z" fill="rgb(141,140,142)" transform="translate(0,0)"></path>
<path d="M 758.126 1658.38 C 763.877 1665.83 769.447 1674.71 774.656 1682.65 C 786.255 1685.52 815.443 1716.97 826.988 1725.66 C 835.219 1731.85 847.851 1744.45 853.973 1752.78 C 861.07 1763.64 858.461 1778.68 849.178 1787.38 C 822.044 1813.46 792.197 1836.84 763.257 1860.89 L 717.573 1899.23 C 689.082 1923.16 652.524 1953.01 612.062 1947.01 C 595.319 1943.72 573.264 1907.96 580.481 1892.96 C 601.551 1849.17 638.847 1813.84 662.413 1771.1 C 673.419 1751.13 660.616 1736.34 680.344 1723.02 C 677.646 1718.91 674.675 1713.81 671.008 1710.69 L 673.531 1709.55 C 678.612 1705.75 691.883 1701.57 698.321 1698.98 C 722.379 1689.32 738.642 1678.27 756.48 1659.89 L 758.126 1658.38 z" fill="rgb(11,8,7)" transform="translate(0,0)"></path>
<path d="M 756.48 1659.89 L 758.656 1662.96 C 759.029 1663.65 759.016 1663.63 759.584 1664.18 C 763.716 1670.28 767.453 1675.78 771.19 1682.15 C 757.444 1685.88 757.673 1691.21 754.313 1703.68 C 749.229 1722.54 717.517 1728.88 700.606 1730.99 C 693.332 1723.53 693.223 1724.28 683.479 1722.84 L 673.531 1709.55 C 678.612 1705.75 691.883 1701.57 698.321 1698.98 C 722.379 1689.32 738.642 1678.27 756.48 1659.89 z" fill="rgb(164,113,98)" transform="translate(0,0)"></path>
<path d="M 704.279 1747.7 C 738.273 1758.38 771.644 1743.61 783.619 1708.67 C 785.198 1704.06 784.426 1699.18 786.011 1694.24 L 787.679 1694.1 L 791.935 1697.71 C 792.63 1698.01 792.551 1697.97 792.993 1698.64 C 798.464 1703.73 804.04 1708.7 809.719 1713.56 C 810.457 1713.92 810.487 1713.82 810.749 1714.43 C 816.69 1720.42 824.707 1726.98 831.233 1732.59 C 798.913 1776.12 745.561 1811.02 706.403 1849.98 C 693.269 1844.88 678.273 1836.91 665.622 1830.41 C 688.551 1805.03 702.717 1782.65 704.279 1747.7 z" fill="rgb(254,254,254)" transform="translate(0,0)"></path>
<path d="M 634.304 1817.78 C 657.983 1829.34 680.2 1841.27 704.427 1851.94 C 680.633 1876.19 670.197 1883.81 640.032 1900.4 C 631.032 1904.73 621.168 1908.71 611.328 1910.52 C 604.503 1911.77 591.688 1912.78 585.811 1908.36 C 583.626 1906.71 582.307 1904.5 581.936 1901.79 C 579.713 1885.59 622.652 1833.47 634.304 1817.78 z" fill="rgb(254,254,254)" transform="translate(0,0)"></path>
<metadata><recraft-signature>{"signed_by": "recraft", "signature_b64": "N+ue+n5+Vvc5f3qohf/h+lxA4vrcWqIDgZzRfLEdiGbjWypSSTXtykJagvJa4SI/NIDHPrpS8jQ231QPfXtABA==", "signing_algo": "Ed25519", "generation_timestamp": 1779010557, "identifier": "c8df1af6-7d14-49b4-a91a-a7abc602d74e"}</recraft-signature></metadata></svg>