<svg xmlns="http://www.w3.org/2000/svg" height="1024" preserveAspectRatio="none" style="display: block;" version="1.1" viewBox="0 0 2048 2048" width="1024">
<path d="M 0 0 L 2048 0 L 2048 2048 L 0 2048 L 0 0 z" fill="rgb(255,255,255)" transform="translate(0,0)"></path>
<path d="M 1024.13 518.019 L 1199.23 614.746 C 1213.18 622.373 1249.1 644.221 1261.95 647.632 C 1267.32 649.057 1313.51 648.199 1321.86 648.218 L 1462.36 648.283 C 1487.79 648.29 1512.99 647.953 1538.41 648.996 C 1583.85 650.859 1612.46 711.866 1562.05 732.239 C 1560.31 774.967 1562.8 821.856 1561.77 864.948 C 1561.4 880.246 1562.74 901.357 1561.34 915.878 C 1566.13 915.777 1572.35 915.489 1576.98 915.851 C 1601.89 914.22 1638.98 915.557 1664.67 915.643 L 1824.38 915.967 L 1933.4 915.773 C 1951.43 915.693 1969.64 914.718 1987.9 916.065 C 2025.56 918.844 2052.57 959.473 2028.05 992.558 C 2024.83 996.897 2016.35 1000.73 2014.31 1004.82 C 2015.8 1026.96 2014.07 1065.32 2014.13 1089.47 C 2014.65 1151.65 2014.79 1213.84 2014.55 1276.03 L 2014.19 1403.39 C 2014.22 1423.47 2015.33 1465.48 2012.87 1482.96 C 2010.84 1496.94 2004.77 1510.03 1995.39 1520.6 C 1993.07 1523.25 1990.67 1525.88 1988.03 1528.2 C 1986.42 1529.4 1985.79 1529.94 1984.27 1531.3 C 1952.98 1555.52 1927.72 1550.12 1890.06 1550.08 L 1793.27 1550.02 L 1621.66 1550 C 1594.37 1550 1559.53 1551.05 1532.79 1549.8 C 1524.18 1552.41 1510.96 1562.61 1499.37 1563.57 C 1481.28 1565.06 1461.42 1564.11 1443.12 1564.1 L 1321.31 1564.16 L 877.779 1564.04 C 869.234 1573.97 866.349 1572.08 855.079 1568.12 C 857.969 1583.57 871.317 1631.01 877.077 1645.58 C 882.972 1645.93 893.396 1646 896.353 1651.99 C 894.744 1660.14 879.422 1664.11 872.163 1666.7 C 865.306 1669.15 851.896 1674.73 845.002 1673.84 C 841.689 1668.48 839.655 1663.34 837.292 1657.51 C 827.071 1632.26 814.13 1609.26 800.143 1585.92 C 786.54 1602.75 760.606 1639.3 748.927 1657.35 C 751.983 1663.43 758.677 1672.12 752.328 1677.57 C 743.468 1678.42 712.729 1652.61 709.21 1644.83 C 709.5 1638.2 745.335 1576.84 751.065 1564.19 C 685.075 1563.31 618.813 1565 552.802 1563.98 C 541.284 1563.8 530.232 1554.87 519.799 1551.07 C 516.925 1550.02 508.212 1549.98 505.026 1549.96 L 227.151 1549.94 L 148.02 1550.04 C 135.625 1550.06 113.941 1550.7 102.339 1549.21 C 84.9681 1547.05 68.7969 1539.21 56.3352 1526.92 C 43.8351 1514.62 35.5909 1498.65 32.8046 1481.33 C 30.4774 1467.55 31.3278 1441.46 31.3727 1426.25 L 31.51 1339.18 L 30.9262 1001.48 C 20.9324 992.531 15.1432 984.118 14.3861 969.996 C 13.7321 956.317 18.7559 942.974 28.2696 933.124 C 48.5869 911.959 75.7268 915.841 102.414 915.936 L 175.974 916.143 C 270.391 916.383 364.808 916.075 459.22 915.221 C 464.474 915.164 483.987 915.885 487.493 914.18 C 486.169 899.769 487.072 870.547 487.048 855.131 C 487.164 814.498 486.924 773.865 486.329 733.237 C 442.633 713.105 458.551 660.947 495.591 651.143 C 516.903 645.502 564.689 648.258 588.921 648.242 L 729.965 648.131 C 746.312 648.115 765.781 648.451 781.805 647.521 C 787.092 647.214 814.64 631.352 820.725 628.069 L 902.851 583.728 L 904.02 583.54 C 914.868 576.539 928.645 569.276 940.284 563.265 C 968.105 548.898 996.077 531.582 1024.13 518.019 z" fill="rgb(240,201,152)" transform="translate(0,0)"></path>
<path d="M 1230.42 725.267 L 1239.95 731.157 L 1450.09 731.239 L 1517.01 731.314 C 1529.22 731.321 1547.21 731.717 1559.18 730.745 L 1562.05 732.239 C 1560.31 774.967 1562.8 821.856 1561.77 864.948 C 1561.4 880.246 1562.74 901.357 1561.34 915.878 C 1566.13 915.777 1572.35 915.489 1576.98 915.851 C 1601.89 914.22 1638.98 915.557 1664.67 915.643 L 1824.38 915.967 L 1933.4 915.773 C 1951.43 915.693 1969.64 914.718 1987.9 916.065 C 2025.56 918.844 2052.57 959.473 2028.05 992.558 C 2024.83 996.897 2016.35 1000.73 2014.31 1004.82 C 2015.8 1026.96 2014.07 1065.32 2014.13 1089.47 C 2014.65 1151.65 2014.79 1213.84 2014.55 1276.03 L 2014.19 1403.39 C 2014.22 1423.47 2015.33 1465.48 2012.87 1482.96 C 2010.84 1496.94 2004.77 1510.03 1995.39 1520.6 C 1993.07 1523.25 1990.67 1525.88 1988.03 1528.2 C 1986.42 1529.4 1985.79 1529.94 1984.27 1531.3 C 1952.98 1555.52 1927.72 1550.12 1890.06 1550.08 L 1793.27 1550.02 L 1621.66 1550 C 1594.37 1550 1559.53 1551.05 1532.79 1549.8 C 1524.18 1552.41 1510.96 1562.61 1499.37 1563.57 C 1481.28 1565.06 1461.42 1564.11 1443.12 1564.1 L 1321.31 1564.16 L 877.779 1564.04 C 869.234 1573.97 866.349 1572.08 855.079 1568.12 C 857.969 1583.57 871.317 1631.01 877.077 1645.58 C 882.972 1645.93 893.396 1646 896.353 1651.99 C 894.744 1660.14 879.422 1664.11 872.163 1666.7 C 865.306 1669.15 851.896 1674.73 845.002 1673.84 C 841.689 1668.48 839.655 1663.34 837.292 1657.51 C 827.071 1632.26 814.13 1609.26 800.143 1585.92 C 786.54 1602.75 760.606 1639.3 748.927 1657.35 C 751.983 1663.43 758.677 1672.12 752.328 1677.57 C 743.468 1678.42 712.729 1652.61 709.21 1644.83 C 709.5 1638.2 745.335 1576.84 751.065 1564.19 C 685.075 1563.31 618.813 1565 552.802 1563.98 C 541.284 1563.8 530.232 1554.87 519.799 1551.07 C 516.925 1550.02 508.212 1549.98 505.026 1549.96 L 227.151 1549.94 L 148.02 1550.04 C 135.625 1550.06 113.941 1550.7 102.339 1549.21 C 84.9681 1547.05 68.7969 1539.21 56.3352 1526.92 C 43.8351 1514.62 35.5909 1498.65 32.8046 1481.33 C 30.4774 1467.55 31.3278 1441.46 31.3727 1426.25 L 31.51 1339.18 L 30.9262 1001.48 C 20.9324 992.531 15.1432 984.118 14.3861 969.996 C 13.7321 956.317 18.7559 942.974 28.2696 933.124 C 48.5869 911.959 75.7268 915.841 102.414 915.936 L 175.974 916.143 C 270.391 916.383 364.808 916.075 459.22 915.221 C 464.474 915.164 483.987 915.885 487.493 914.18 C 487.774 915.076 487.829 915.866 488.453 916.47 C 488.944 915.79 489.228 912.811 489.409 911.833 C 491.617 933.174 490.021 975.137 490.434 998.328 C 490.968 1087.16 491.054 1176 490.691 1264.84 L 490.731 1374.07 C 490.739 1391.37 491.325 1412.67 490.692 1429.69 L 490.734 1431.25 C 491.691 1469.64 482.272 1511 512.176 1540.92 C 540.952 1569.71 579.925 1562.3 618.191 1562.26 L 751.925 1562.07 C 753.55 1558.02 754.379 1555.19 755.595 1550.97 C 704.411 1519.95 698.545 1537.39 721.857 1474.86 C 711.86 1474.61 695.519 1477.51 687.913 1470.65 C 684.754 1468.06 684.501 1461.71 684.369 1457.74 C 683.785 1440.08 684.02 1422.15 684.008 1404.49 L 683.985 1306.76 L 683.995 1237.21 C 683.981 1207.83 679.361 1173.43 704.72 1153.14 C 736.34 1127.16 784.206 1145.34 791.547 1185.05 C 794.505 1201.05 793.315 1221.64 793.312 1238.14 C 793.142 1270.89 793.184 1303.65 793.438 1336.4 C 806.644 1330.34 812.877 1329.14 826.925 1331.11 C 826.886 1306.29 824.781 1274.97 833.876 1252.06 C 843.829 1226.24 863.827 1205.56 889.3 1194.74 C 922.523 1180.66 963.904 1185.81 992.055 1208.41 C 1009.81 1222.66 1017.26 1236.49 1025.77 1257.02 C 1031.32 1241.22 1037.91 1229.74 1049.85 1217.58 C 1069.27 1197.81 1095.9 1186.79 1123.61 1187.06 C 1150.52 1187.11 1176.67 1198.1 1195.81 1216.96 C 1232.48 1253.1 1224.39 1311.21 1224.5 1359.01 L 1223.85 1562.27 L 1413.88 1562.18 L 1464.86 1562.33 C 1494.59 1562.43 1514.66 1563.79 1537.51 1541.23 C 1548.91 1530.17 1556.32 1515.65 1558.58 1499.93 C 1560.92 1483.05 1559.91 1438.36 1559.91 1419.53 L 1559.89 1265.08 L 1559.87 733.009 C 1454.01 734.053 1344.99 731.206 1239.54 733.535 L 1229.99 727.891 L 1230.42 725.267 z" fill="rgb(52,36,29)" transform="translate(0,0)"></path>
<path d="M 1576.98 915.851 C 1601.89 914.22 1638.98 915.557 1664.67 915.643 L 1824.38 915.967 L 1933.4 915.773 C 1951.43 915.693 1969.64 914.718 1987.9 916.065 C 2025.56 918.844 2052.57 959.473 2028.05 992.558 C 2024.83 996.897 2016.35 1000.73 2014.31 1004.82 C 2015.8 1026.96 2014.07 1065.32 2014.13 1089.47 C 2014.65 1151.65 2014.79 1213.84 2014.55 1276.03 L 2014.19 1403.39 C 2014.22 1423.47 2015.33 1465.48 2012.87 1482.96 C 2010.84 1496.94 2004.77 1510.03 1995.39 1520.6 C 1993.07 1523.25 1990.67 1525.88 1988.03 1528.2 C 1986.42 1529.4 1985.79 1529.94 1984.27 1531.3 C 1952.98 1555.52 1927.72 1550.12 1890.06 1550.08 L 1793.27 1550.02 L 1621.66 1550 C 1594.37 1550 1559.53 1551.05 1532.79 1549.8 L 1533.12 1547.88 C 1566.54 1518.6 1562.07 1491.01 1562.03 1450.37 L 1562.01 1384.92 L 1562.07 1101.89 L 1561.85 1043 C 1561.82 1035.09 1561.37 1016.63 1562.86 1009.6 C 1561.96 1004.52 1562.31 991.499 1562.29 985.633 L 1562.12 939.076 C 1562.14 930.689 1561.84 924.07 1561.34 915.878 C 1566.13 915.777 1572.35 915.489 1576.98 915.851 z" fill="rgb(240,201,152)" transform="translate(0,0)"></path>
<path d="M 1576.98 915.851 C 1601.89 914.22 1638.98 915.557 1664.67 915.643 L 1824.38 915.967 L 1933.4 915.773 C 1951.43 915.693 1969.64 914.718 1987.9 916.065 C 2025.56 918.844 2052.57 959.473 2028.05 992.558 C 2024.83 996.897 2016.35 1000.73 2014.31 1004.82 L 2011.95 1005.13 C 1995.49 1012.34 1962.69 1009.9 1944 1009.9 L 1851.36 1009.85 L 1585.06 1009.81 C 1579.51 1009.93 1568.03 1010.3 1562.86 1009.6 C 1561.96 1004.52 1562.31 991.499 1562.29 985.633 L 1562.12 939.076 C 1562.14 930.689 1561.84 924.07 1561.34 915.878 C 1566.13 915.777 1572.35 915.489 1576.98 915.851 z" fill="rgb(228,163,128)" transform="translate(0,0)"></path>
<path d="M 1561.34 915.878 C 1566.13 915.777 1572.35 915.489 1576.98 915.851 C 1583.38 916.691 1593.43 915.877 1597.49 916.884 C 1594.51 936.405 1591.07 956.638 1587.28 976.01 L 1583.8 995.492 C 1583.06 999.759 1582.33 1004.02 1581.82 1008.32 C 1581.38 1008.36 1580.68 1008.27 1580.33 1008.62 C 1580.79 1009.09 1584.17 1009.61 1585.06 1009.81 C 1579.51 1009.93 1568.03 1010.3 1562.86 1009.6 C 1561.96 1004.52 1562.31 991.499 1562.29 985.633 L 1562.12 939.076 C 1562.14 930.689 1561.84 924.07 1561.34 915.878 z" fill="rgb(101,57,35)" transform="translate(0,0)"></path>
<path d="M 1576.98 915.851 C 1601.89 914.22 1638.98 915.557 1664.67 915.643 L 1824.38 915.967 L 1933.4 915.773 C 1951.43 915.693 1969.64 914.718 1987.9 916.065 C 2025.56 918.844 2052.57 959.473 2028.05 992.558 C 2024.83 996.897 2016.35 1000.73 2014.31 1004.82 L 2011.95 1005.13 C 1995.49 1012.34 1962.69 1009.9 1944 1009.9 L 1851.36 1009.85 L 1585.06 1009.81 C 1584.17 1009.61 1580.79 1009.09 1580.33 1008.62 C 1580.68 1008.27 1581.38 1008.36 1581.82 1008.32 C 1595.88 1007.39 1614.18 1007.86 1628.51 1007.87 L 1708.54 1007.92 L 1965.97 1007.78 C 1973.09 1007.09 1991.86 1007.07 1999.77 1007.24 C 2042.29 997.382 2047.18 946.231 2010.25 925.317 C 1994.16 916.206 1978.1 918.083 1960.16 917.935 C 1942.34 917.787 1924.35 917.924 1906.46 917.923 L 1693.45 917.861 L 1634.28 917.608 C 1623.12 917.593 1608.36 918.291 1597.49 916.884 C 1593.43 915.877 1583.38 916.691 1576.98 915.851 z" fill="rgb(102,73,56)" transform="translate(0,0)"></path>
<path d="M 1965.97 1007.78 C 1973.09 1007.09 1991.86 1007.07 1999.77 1007.24 C 1993.83 1008.39 1972.71 1008.08 1965.97 1007.78 z" fill="rgb(169,126,97)" transform="translate(0,0)"></path>
<path d="M 2014.31 1004.82 C 2015.8 1026.96 2014.07 1065.32 2014.13 1089.47 C 2014.65 1151.65 2014.79 1213.84 2014.55 1276.03 L 2014.19 1403.39 C 2014.22 1423.47 2015.33 1465.48 2012.87 1482.96 C 2010.84 1496.94 2004.77 1510.03 1995.39 1520.6 C 1993.07 1523.25 1990.67 1525.88 1988.03 1528.2 L 1987.54 1525.92 L 1988.98 1524.43 C 2017.77 1494.39 2012.07 1465.09 2012.16 1426.18 L 2012.27 1327.93 L 2012.25 1112.17 C 2012.21 1076.8 2012.68 1040.42 2011.95 1005.13 L 2014.31 1004.82 z" fill="rgb(119,94,69)" transform="translate(0,0)"></path>
<path d="M 1983.65 1529.45 L 1984.27 1531.3 C 1952.98 1555.52 1927.72 1550.12 1890.06 1550.08 L 1793.27 1550.02 L 1621.66 1550 C 1594.37 1550 1559.53 1551.05 1532.79 1549.8 L 1533.12 1547.88 C 1551.52 1549.22 1588.72 1548.06 1608.29 1548.05 L 1762.79 1548.01 L 1879.78 1548.1 C 1899.77 1548.13 1920.01 1548.58 1939.99 1547.44 C 1957.61 1546.43 1969.7 1539.71 1983.65 1529.45 z" fill="rgb(102,73,56)" transform="translate(0,0)"></path>
<path d="M 1987.54 1525.92 L 1988.03 1528.2 C 1986.42 1529.4 1985.79 1529.94 1984.27 1531.3 L 1983.65 1529.45 C 1985.13 1528.21 1986.15 1527.3 1987.54 1525.92 z" fill="rgb(52,36,29)" transform="translate(0,0)"></path>
<path d="M 1770.02 1059.27 C 1804.64 1056.14 1830.23 1083.23 1830.38 1116.95 C 1830.63 1171.13 1830.65 1225.31 1830.72 1279.49 L 1830.94 1353.79 C 1831.16 1410.31 1840.89 1409.92 1784.5 1409.43 C 1712.35 1409.96 1721.05 1418.34 1721.11 1346.62 L 1721.21 1254.23 L 1721.07 1161.59 C 1721.04 1145.1 1720.48 1127.59 1721.58 1111.17 C 1723.42 1083.47 1742.96 1064.25 1770.02 1059.27 z" fill="rgb(24,22,33)" transform="translate(0,0)"></path>
<path d="M 1723.12 1119.93 C 1757.39 1119.26 1793.99 1119.94 1828.45 1119.96 L 1829.05 1312.44 C 1829.06 1340.45 1829.28 1369.21 1828.76 1397.26 C 1828.7 1400.35 1827.47 1401.93 1825.68 1404.33 C 1818.63 1408.63 1798.07 1407.13 1789 1407.11 L 1731.57 1406.96 C 1726.92 1404.08 1723.66 1401.8 1723.28 1395.89 C 1722.57 1384.98 1722.85 1373.94 1722.88 1363 L 1722.91 1307.7 L 1723.12 1119.93 z" fill="rgb(42,58,128)" transform="translate(0,0)"></path>
<path d="M 1771.54 1061.27 C 1807.73 1059.95 1825.65 1084.89 1829.04 1117.65 C 1813.71 1117.94 1797.88 1117.79 1782.5 1117.85 C 1762.56 1117.97 1742.61 1117.87 1722.67 1117.55 C 1725.68 1087.16 1739.24 1066.15 1771.54 1061.27 z" fill="rgb(228,163,128)" transform="translate(0,0)"></path>
<path d="M 1908.54 1061.17 C 1912.46 1060.85 1917.57 1060.65 1921.5 1061.07 C 1936.22 1062.74 1949.66 1070.19 1958.88 1081.79 C 1974.49 1101.61 1970.9 1126.39 1970.89 1150.12 L 1970.84 1233.64 L 1970.92 1342.22 C 1970.93 1357.39 1971.72 1386.61 1970.29 1400.87 C 1960.2 1414.01 1942.8 1409.83 1927.25 1409.58 C 1914.64 1409.64 1871.86 1412.3 1863.46 1404.73 C 1859.83 1401.46 1860.85 1360.21 1860.87 1352.4 L 1860.9 1272.53 L 1860.85 1169.04 C 1860.83 1124.45 1851.73 1072.61 1908.54 1061.17 z" fill="rgb(24,22,33)" transform="translate(0,0)"></path>
<path d="M 1863.16 1121.18 L 1968.96 1121.13 L 1969.1 1306.09 L 1969.13 1363.62 C 1969.13 1374.03 1971.11 1395.91 1965.23 1403.79 C 1956.86 1410.37 1924.93 1406.09 1912.63 1406.93 C 1901.71 1407.68 1887.11 1407.25 1876.22 1407.02 C 1866.84 1406.82 1862.81 1402.83 1863.32 1393.76 C 1862.8 1364.73 1862.96 1332.28 1862.95 1303.71 L 1863.16 1121.18 z" fill="rgb(42,58,128)" transform="translate(0,0)"></path>
<path d="M 1908.93 1063.27 C 1945.26 1059.61 1966.97 1084.76 1969.11 1118.88 L 1924.5 1118.95 L 1862.75 1118.82 C 1864.46 1089.36 1878.58 1068.65 1908.93 1063.27 z" fill="rgb(228,163,128)" transform="translate(0,0)"></path>
<path d="M 1583.06 1148.67 C 1582.6 1123.21 1578.85 1095.18 1598.31 1075.24 C 1620.2 1052.8 1655.28 1052.64 1676.87 1076.14 C 1683.23 1083.1 1687.7 1091.57 1689.84 1100.75 C 1693.28 1115.05 1691.93 1177.7 1691.65 1196 C 1691.67 1212.61 1693.9 1399.74 1689.5 1404.22 C 1686.41 1407.36 1679.66 1408.31 1675.49 1408.82 C 1660.72 1410.62 1612.16 1410.32 1596.58 1409.06 C 1591.66 1408.66 1588.91 1408.36 1585.67 1404.27 C 1581.21 1398.64 1582.62 1390.62 1582.93 1383.96 C 1582.29 1373.8 1582.38 1360.98 1582.7 1350.71 C 1584.78 1284.08 1580.38 1215.08 1583.06 1148.67 z" fill="rgb(42,58,128)" transform="translate(0,0)"></path>
<path d="M 1583.06 1148.67 C 1582.6 1123.21 1578.85 1095.18 1598.31 1075.24 C 1620.2 1052.8 1655.28 1052.64 1676.87 1076.14 C 1683.23 1083.1 1687.7 1091.57 1689.84 1100.75 C 1693.28 1115.05 1691.93 1177.7 1691.65 1196 C 1689.19 1191.11 1691.04 1132.26 1690.11 1120.73 L 1689.07 1119.04 C 1683.53 1117.28 1598.02 1119.02 1584.94 1119.08 C 1582.85 1128.88 1586.41 1140.63 1583.06 1148.67 z" fill="rgb(52,36,29)" transform="translate(0,0)"></path>
<path d="M 1584.82 1116.68 C 1585.31 1101.07 1588.91 1088.32 1599.98 1076.71 C 1609.55 1066.6 1622.8 1060.76 1636.73 1060.52 C 1653.07 1060.37 1664.52 1067.35 1675.65 1078.16 C 1676.23 1078.49 1676.17 1078.58 1676.55 1079.26 C 1686.64 1092.33 1688.53 1100.32 1689.72 1116.19 L 1584.82 1116.68 z" fill="rgb(228,163,128)" transform="translate(0,0)"></path>
<path d="M 1690.11 1120.73 C 1691.04 1132.26 1689.19 1191.11 1691.65 1196 C 1691.67 1212.61 1693.9 1399.74 1689.5 1404.22 C 1686.41 1407.36 1679.66 1408.31 1675.49 1408.82 C 1660.72 1410.62 1612.16 1410.32 1596.58 1409.06 C 1591.66 1408.66 1588.91 1408.36 1585.67 1404.27 C 1581.21 1398.64 1582.62 1390.62 1582.93 1383.96 C 1583.41 1388.27 1583.42 1396.03 1584.67 1399.26 C 1587.69 1403.78 1590.68 1406.81 1596.43 1406.95 C 1619.65 1407.53 1643.16 1406.45 1666.45 1407.2 C 1673.78 1407.44 1681.37 1407.3 1687.24 1402.8 C 1692.84 1388.71 1689.07 1156.5 1690.11 1120.73 z" fill="rgb(24,22,33)" transform="translate(0,0)"></path>
<path d="M 1583.06 1148.67 C 1586.41 1140.63 1582.85 1128.88 1584.94 1119.08 C 1586.4 1149.97 1585.07 1191.03 1585 1222.55 L 1584.67 1399.26 C 1583.42 1396.03 1583.41 1388.27 1582.93 1383.96 C 1582.29 1373.8 1582.38 1360.98 1582.7 1350.71 C 1584.78 1284.08 1580.38 1215.08 1583.06 1148.67 z" fill="rgb(15,22,57)" transform="translate(0,0)"></path>
<path d="M 36.8902 1003.17 C 43.6401 1006.41 46.4676 1008.01 54.1508 1008.06 C 76.0616 1008.2 97.981 1008.07 119.896 1008.05 L 246.972 1007.99 L 392.361 1008.01 C 417.721 1008.01 445.283 1008.55 470.516 1007.89 L 471.946 1010.2 L 488.326 1010.34 C 487.747 1039.92 488.345 1071.2 488.376 1100.94 L 488.492 1276 L 488.247 1412.9 C 488.202 1437.17 487.995 1461.45 488.387 1485.71 C 488.837 1513.54 496.733 1529.35 516.584 1548.07 L 241.278 1548.14 L 155.003 1548.3 C 138.153 1548.33 120.801 1548.79 104.069 1547.5 C 72.437 1545.07 43.3896 1518.82 36.2845 1488.13 C 32.3025 1470.94 33.4758 1449.11 33.4711 1431.07 L 33.4766 1365.17 L 33.5228 1115.79 C 33.523 1106.81 32.8313 1006.5 34.224 1004.22 L 36.8902 1003.17 z" fill="rgb(240,201,152)" transform="translate(0,0)"></path>
<path d="M 36.8902 1003.17 C 43.6401 1006.41 46.4676 1008.01 54.1508 1008.06 C 76.0616 1008.2 97.981 1008.07 119.896 1008.05 L 246.972 1007.99 L 392.361 1008.01 C 417.721 1008.01 445.283 1008.55 470.516 1007.89 L 471.946 1010.2 C 437.835 1009.25 399.1 1010.1 364.528 1010.08 L 167.475 1009.94 L 90.0755 1010.13 C 76.5392 1010.17 62.0485 1010.52 48.5646 1009.66 C 44.5547 1009.4 38.0728 1006.05 34.224 1004.22 L 36.8902 1003.17 z" fill="rgb(101,57,35)" transform="translate(0,0)"></path>
<path d="M 271.088 1060.44 C 283.435 1060.88 293.518 1063.7 303.817 1070.81 C 330.687 1089.35 327.05 1119.82 327.091 1148.51 L 327.141 1213.01 L 327.118 1328.06 C 327.104 1341.94 329.169 1391.81 323.569 1404.95 C 320.578 1411.97 284.313 1409.68 273.315 1409.62 C 260.957 1409.59 230.152 1412.29 221.392 1405.58 C 215.136 1400.79 217.136 1356.37 217.127 1347.02 L 217.059 1254.23 L 217.069 1158.88 C 217.106 1139.85 215.381 1116.55 220.731 1098.3 C 227.43 1075.45 247.971 1062.36 271.088 1060.44 z" fill="rgb(24,22,33)" transform="translate(0,0)"></path>
<path d="M 306.255 1120.5 C 311.738 1120.11 318.877 1120.18 324.515 1120.1 C 325.514 1135.73 324.9 1160.15 324.944 1176.38 L 324.924 1289.95 L 324.978 1359.56 C 324.995 1371.52 327.536 1396.62 320.18 1405.05 C 312.379 1408.52 247.014 1407.15 234.75 1407.15 C 225.038 1407.21 219.963 1405.02 219.389 1394.49 C 218.792 1383.53 218.947 1372.79 218.933 1361.82 L 218.901 1304.63 L 219.068 1121.15 C 247.741 1120.43 277.54 1120.63 306.255 1120.5 z" fill="rgb(42,58,128)" transform="translate(0,0)"></path>
<path d="M 264.339 1063.18 C 301.354 1060.21 322.476 1083.09 325.145 1118.19 C 310.908 1118.6 296.065 1118.56 281.775 1118.73 L 218.8 1118.78 C 223.026 1088.8 232.605 1070.45 264.339 1063.18 z" fill="rgb(228,163,128)" transform="translate(0,0)"></path>
<path d="M 400.977 1061.12 C 415.736 1060.07 427.188 1060.7 440.002 1069.11 C 469.461 1088.47 465.107 1121.22 464.978 1151.23 L 464.923 1216.35 L 464.98 1327.76 C 465.027 1341.07 467.188 1393.35 462.083 1405.18 C 459.395 1411.41 431.045 1409.83 421.5 1409.75 C 408.835 1409.87 364.614 1413.3 357.763 1403.73 C 354.734 1391.01 355.791 1362.11 355.803 1347.99 L 355.844 1260.03 L 355.509 1166.74 C 355.435 1123.35 348.07 1075.61 400.977 1061.12 z" fill="rgb(24,22,33)" transform="translate(0,0)"></path>
<path d="M 358.086 1120.26 C 392.921 1120.03 427.839 1120.84 462.728 1120.93 L 462.875 1306.72 L 462.892 1366.63 C 462.892 1375.29 464.035 1397.53 460.877 1404.17 C 458.989 1405.35 456.868 1406.62 454.577 1406.64 C 425.196 1406.95 394.605 1408.11 365.293 1407.19 C 359.852 1403.2 358.419 1402.63 358.124 1395.73 C 357.6 1383.47 357.751 1371.2 357.76 1358.93 L 357.85 1291.52 C 357.839 1235 356.565 1176.71 358.086 1120.26 z" fill="rgb(42,58,128)" transform="translate(0,0)"></path>
<path d="M 402.031 1063.16 C 439.267 1060.11 460.483 1082.48 463.309 1118.12 C 450.96 1118.89 434.201 1118.42 421.5 1118.39 L 357.778 1118.18 C 359.998 1090.6 374.217 1069.93 402.031 1063.16 z" fill="rgb(228,163,128)" transform="translate(0,0)"></path>
<path d="M 129.7 1060.41 C 140.294 1060.04 148.816 1061.92 158.025 1066.88 C 190.699 1084.48 187.671 1116.24 187.396 1147.8 C 187.329 1155.54 187.373 1163.64 187.353 1171.46 L 187.075 1281.56 L 187.163 1353.81 C 187.187 1364.64 188.724 1397.1 184.283 1404.93 C 176.148 1411.8 148.87 1409.54 136.677 1409.43 C 68.2576 1408.96 78.1485 1417.91 78.1039 1346.69 L 78.0252 1254.73 L 77.9743 1161.65 C 77.9694 1144.43 77.3677 1127 78.9422 1109.86 C 81.5034 1081.98 102.565 1063.35 129.7 1060.41 z" fill="rgb(24,22,33)" transform="translate(0,0)"></path>
<path d="M 80.3387 1121.01 C 114.315 1121 151.079 1121.74 184.807 1120.53 L 185.023 1299.07 C 185.014 1331.33 185.166 1364.05 184.766 1396.33 C 184.725 1399.56 183.823 1401.88 182.346 1404.71 C 168.698 1410.61 111.226 1405.75 93.4443 1406.7 C 90.4578 1406.86 85.1865 1404.77 82.611 1402.78 C 79.1569 1393.62 79.9956 1306.56 79.9898 1289.56 L 80.3387 1121.01 z" fill="rgb(42,58,128)" transform="translate(0,0)"></path>
<path d="M 80.009 1118.79 C 81.3042 1103.1 83.9089 1090.68 95.2628 1078.62 C 104.796 1068.62 117.886 1062.78 131.695 1062.37 C 147.804 1061.95 159.539 1068.41 170.672 1079.13 C 171.236 1079.47 171.211 1079.57 171.604 1080.19 C 182.329 1094.08 184.496 1100.93 185.067 1118.3 C 152.192 1119.81 113.169 1118.96 80.009 1118.79 z" fill="rgb(228,163,128)" transform="translate(0,0)"></path>
<path d="M 489.409 911.833 C 491.617 933.174 490.021 975.137 490.434 998.328 C 490.135 999.938 490.386 999.573 489.456 1000.68 C 487.73 1002.73 488.616 1007.51 488.326 1010.34 L 471.946 1010.2 L 470.516 1007.89 C 445.283 1008.55 417.721 1008.01 392.361 1008.01 L 246.972 1007.99 L 119.896 1008.05 C 97.981 1008.07 76.0616 1008.2 54.1508 1008.06 C 46.4676 1008.01 43.6401 1006.41 36.8902 1003.17 C -5.40498 978.16 21.8156 915.983 71.7216 918.247 C 95.4656 919.325 128.07 917.766 152.79 917.738 L 381.33 917.824 C 393.595 917.826 447.393 918.535 455.309 916.761 C 456.89 915.74 457.292 915.758 459.22 915.221 C 464.474 915.164 483.987 915.885 487.493 914.18 C 487.774 915.076 487.829 915.866 488.453 916.47 C 488.944 915.79 489.228 912.811 489.409 911.833 z" fill="rgb(228,163,128)" transform="translate(0,0)"></path>
<path d="M 489.409 911.833 C 491.617 933.174 490.021 975.137 490.434 998.328 C 490.135 999.938 490.386 999.573 489.456 1000.68 C 487.73 1002.73 488.616 1007.51 488.326 1010.34 L 471.946 1010.2 L 470.516 1007.89 C 465.661 994.176 465.458 964.219 461.128 948.492 C 458.682 939.611 457.556 926.607 455.309 916.761 C 456.89 915.74 457.292 915.758 459.22 915.221 C 464.474 915.164 483.987 915.885 487.493 914.18 C 487.774 915.076 487.829 915.866 488.453 916.47 C 488.944 915.79 489.228 912.811 489.409 911.833 z" fill="rgb(101,57,35)" transform="translate(0,0)"></path>
<path d="M 490.734 1431.25 C 490.48 1431.63 490.044 1432.65 489.476 1432.43 C 488.493 1430.93 489.053 1403.66 488.999 1399.71 C 488.95 1396.1 488.631 1351.64 489.501 1351.17 L 489.734 1351.3 C 492.132 1355.9 487.326 1419.15 490.692 1429.69 L 490.734 1431.25 z" fill="rgb(62,52,39)" transform="translate(0,0)"></path>
<path d="M 1024.79 1562.59 L 1024.58 1370.03 C 1024.4 1340 1021.55 1295.1 1026.21 1266.51 C 1038.4 1191.74 1140.25 1164.14 1192.94 1217.32 C 1229.27 1253.98 1221.63 1295.45 1222.14 1342.98 C 1223.12 1357.88 1224.98 1477.73 1222.13 1486.65 C 1221.82 1511.8 1222 1537.3 1221.55 1562.34 C 1217.32 1563.21 1200.89 1562.99 1195.28 1563.02 L 1137.45 1563.21 L 1062.69 1563.35 C 1054.9 1563.35 1031.48 1563.77 1024.79 1562.59 z" fill="rgb(250,82,13)" transform="translate(0,0)"></path>
<path d="M 1024.79 1562.59 C 1032.99 1561.5 1051.37 1562.02 1060.36 1562.04 L 1123.65 1561.98 L 1188.61 1561.88 C 1195.71 1561.87 1215.24 1561.48 1221.55 1562.34 C 1217.32 1563.21 1200.89 1562.99 1195.28 1563.02 L 1137.45 1563.21 L 1062.69 1563.35 C 1054.9 1563.35 1031.48 1563.77 1024.79 1562.59 z" fill="rgb(163,53,11)" transform="translate(0,0)"></path>
<path d="M 1222.14 1342.98 C 1223.12 1357.88 1224.98 1477.73 1222.13 1486.65 C 1221.61 1482.48 1221.88 1476.47 1221.94 1472.09 C 1222.53 1429.14 1221.2 1385.9 1222.14 1342.98 z" fill="rgb(109,39,15)" transform="translate(0,0)"></path>
<path d="M 1044.27 1543.97 C 1042.84 1462.76 1044.89 1381.09 1043.93 1299.84 C 1043.61 1273.1 1044.49 1252.14 1063.39 1231.42 C 1077.73 1215.53 1097.91 1206.14 1119.31 1205.4 C 1140.84 1204.71 1161.75 1212.62 1177.43 1227.39 C 1190.25 1239.52 1200.56 1257.75 1200.99 1275.66 C 1202.38 1281.47 1202.09 1283.38 1201.86 1289.57 C 1202.58 1316.86 1201.93 1347.21 1201.94 1374.7 L 1202.06 1544.06 C 1151.83 1545.18 1094.67 1544.29 1044.27 1543.97 z" fill="rgb(52,36,29)" transform="translate(0,0)"></path>
<path d="M 1200.99 1275.66 C 1202.38 1281.47 1202.09 1283.38 1201.86 1289.57 C 1200.36 1283.35 1200.35 1281.98 1200.99 1275.66 z" fill="rgb(109,39,15)" transform="translate(0,0)"></path>
<path d="M 1111.54 1208.3 C 1156.6 1202.04 1199.19 1236.45 1199.57 1282.28 C 1199.78 1307.78 1199.82 1333.23 1199.83 1358.74 L 1199.87 1542.16 L 1136.5 1542.08 L 1046.34 1541.94 C 1047.29 1480.77 1045.35 1418.18 1046.11 1356.86 C 1046.93 1328.32 1044.32 1298.53 1047.55 1270.22 C 1051.37 1236.74 1079.75 1213.24 1111.54 1208.3 z" fill="rgb(228,163,128)" transform="translate(0,0)"></path>
<path d="M 1082.48 1346.56 C 1095.27 1343.82 1107.92 1351.76 1110.99 1364.48 C 1114.07 1377.2 1106.45 1390.04 1093.82 1393.44 C 1085.35 1395.72 1076.31 1393.23 1070.22 1386.93 C 1064.12 1380.63 1061.92 1371.52 1064.46 1363.13 C 1067.01 1354.74 1073.91 1348.4 1082.48 1346.56 z" fill="rgb(52,36,29)" transform="translate(0,0)"></path>
<path d="M 1082.76 1348.65 C 1094.56 1346.05 1106.23 1353.48 1108.88 1365.27 C 1111.54 1377.06 1104.17 1388.77 1092.4 1391.48 C 1080.54 1394.22 1068.72 1386.78 1066.05 1374.91 C 1063.37 1363.04 1070.87 1351.26 1082.76 1348.65 z" fill="rgb(250,82,13)" transform="translate(0,0)"></path>
<path d="M 861.984 1381.29 C 856.009 1377.53 858.254 1379.35 856.006 1370.77 C 855.038 1367.08 852.644 1355.41 852.701 1351.75 C 853.027 1330.77 850.803 1286.17 854.386 1267.45 C 856.081 1258.64 859.419 1250.22 864.224 1242.64 C 875.07 1225.79 892.125 1213.91 911.684 1209.56 C 932.633 1204.99 954.54 1209.06 972.45 1220.85 C 989.432 1232.23 1001.22 1249.88 1005.22 1269.92 C 1007.4 1281.2 1006.89 1298.76 1006.86 1310.72 L 1006.67 1366.06 L 1006.95 1542.01 C 964.637 1541.97 916.449 1543.11 874.565 1541.81 C 871.639 1540.01 866.667 1537.55 865.078 1534.99 C 867.621 1533.65 866.869 1534.15 870.172 1534.16 C 871.987 1528.65 852.732 1462.28 851.815 1448.91 C 849.918 1421.24 850.037 1417.84 857.76 1391.51 C 860.288 1389.21 863.168 1387.27 864.015 1384.15 L 863.449 1381.9 L 861.984 1381.29 z" fill="rgb(228,163,128)" transform="translate(0,0)"></path>
<path d="M 959.511 1346.51 C 972.571 1343.98 985.2 1352.54 987.696 1365.6 C 990.192 1378.67 981.606 1391.28 968.535 1393.74 C 955.508 1396.2 942.95 1387.65 940.462 1374.62 C 937.974 1361.6 946.496 1349.02 959.511 1346.51 z" fill="rgb(250,82,13)" transform="translate(0,0)"></path>
<path d="M 686.178 1202.08 L 790.865 1202.11 L 791.272 1280.84 C 791.219 1298.5 790.522 1320.61 791.715 1337.83 C 785.112 1343.53 782.171 1346.54 777.609 1353.74 C 742.079 1350.05 720.193 1392.43 762.782 1414.19 L 758.022 1430.99 C 731.36 1435.83 730.186 1449.74 721.887 1470.92 L 721.175 1472.71 C 715.367 1473.99 711.702 1473.63 705.796 1472.96 C 695.093 1472.89 692.744 1473.38 686.663 1464.48 C 685.453 1430.05 685.892 1394.05 685.862 1359.46 L 686.178 1202.08 z" fill="rgb(42,58,128)" transform="translate(0,0)"></path>
<path d="M 705.796 1472.96 C 712.137 1471.76 714.786 1471.72 721.175 1472.71 C 715.367 1473.99 711.702 1473.63 705.796 1472.96 z" fill="rgb(15,22,57)" transform="translate(0,0)"></path>
<path d="M 918.746 1190.42 C 950.274 1187.87 976.694 1195.57 999.498 1217.97 C 1005.76 1224.13 1022.38 1247.13 1022.56 1255.33 C 1023.13 1282.05 1022.23 1309.42 1022.25 1336.33 L 1022.38 1562.44 C 975.338 1562.53 928.3 1562.36 881.264 1561.92 C 881.387 1553.2 880.791 1551.85 876.698 1544.27 C 920.302 1544.02 965.737 1545.2 1009.11 1543.95 L 1009.05 1480.5 L 1009 1347.74 C 1009 1327.13 1010.34 1284.58 1006.5 1266.7 C 1003.45 1252.9 996.701 1240.2 986.976 1229.95 C 971.953 1214.4 951.358 1205.47 929.738 1205.13 C 908.533 1204.86 888.111 1213.14 873.074 1228.09 C 849.777 1251.08 849.92 1274.84 849.97 1305.28 C 850.048 1319.04 849.985 1332.8 849.781 1346.56 C 842.54 1338 839.199 1335.88 829.109 1332.07 C 828.967 1292.99 825.004 1258.57 851.343 1226 C 869.028 1204.14 891.232 1193.59 918.746 1190.42 z" fill="rgb(250,82,13)" transform="translate(0,0)"></path>
<path d="M 810.082 1333.22 C 824.148 1332.13 840.761 1334.16 847.049 1348.88 C 851.742 1359.86 841.207 1375.9 829.518 1375.78 C 827.048 1375.22 819.853 1371.26 817.56 1373.2 C 796.545 1390.94 850.581 1408.79 795.762 1416.96 C 774.893 1416.89 749.646 1411.39 741.073 1389.17 C 736.392 1377.67 750.983 1360.98 760.891 1357.94 C 771.334 1354.74 777.325 1360.54 784.379 1348.68 C 789.596 1339.92 800.071 1335.88 810.082 1333.22 z" fill="rgb(250,82,13)" transform="translate(0,0)"></path>
<path d="M 812.908 1537.57 L 827.992 1536.89 C 834.741 1542.66 845.386 1551.34 850.914 1557.8 C 854.775 1583.38 865.676 1618.32 873.879 1643.62 C 864.806 1646.83 854.094 1652.01 845.174 1656.04 C 842.777 1656.2 842.761 1656.14 840.386 1655.64 C 834.097 1646.54 828.414 1629.23 822.929 1619.92 C 810.546 1598.9 798.581 1577.42 786.557 1556.21 C 787.297 1548.4 787.38 1546.34 786.114 1538.81 C 793.72 1537.93 805.008 1537.86 812.908 1537.57 z" fill="rgb(42,58,128)" transform="translate(0,0)"></path>
<path d="M 734.742 1143.36 C 769.171 1140.65 789.776 1167.84 790.625 1199.92 L 744.5 1200 L 685.834 1199.91 C 689.395 1168.78 700.909 1148.06 734.742 1143.36 z" fill="rgb(228,163,128)" transform="translate(0,0)"></path>
<path d="M 759.922 1548.06 C 766.891 1554.12 773.776 1554.66 782.435 1555.27 C 786.543 1563.5 793.761 1574.79 798.627 1582.92 C 783.29 1604.65 767.697 1626.2 751.85 1647.56 C 750.207 1650.27 749.514 1652.1 746.718 1653.54 C 737.401 1645.76 727.851 1638.26 718.08 1631.05 C 730.408 1608.37 753.18 1571.6 759.922 1548.06 z" fill="rgb(42,58,128)" transform="translate(0,0)"></path>
<path d="M 742.679 1488.89 C 742.492 1491.74 740.746 1497.74 742.741 1499.58 C 748.608 1497.19 738.528 1486.65 757.004 1493.97 C 763.458 1496.53 768.989 1472.97 772.317 1467.61 C 775.67 1462.21 779.549 1457.14 785.796 1451.34 L 789.338 1453.74 C 776.311 1481.28 766.856 1513.36 758.111 1542.51 C 757.045 1546.07 753.511 1546.56 750.504 1544.87 C 706.979 1520.36 702.762 1532.82 720.406 1486.34 C 721.247 1487.41 721.488 1487.51 721.823 1488.62 C 724.465 1490.31 728.94 1494.03 728.509 1487.5 C 728.471 1486.93 728.744 1483.11 729.407 1483.13 C 732.262 1483.22 735.976 1486.07 739.014 1487.36 L 742.679 1488.89 z" fill="rgb(250,82,13)" transform="translate(0,0)"></path>
<path d="M 795.262 1420.22 C 802.758 1419 810.091 1416.93 817.119 1414.05 C 819.15 1413.21 818.015 1413.5 820.626 1413.94 L 822.009 1414.81 C 852.825 1427.78 847.174 1452.13 855.853 1480.45 C 857.68 1486.41 867.817 1527.08 867.082 1530.68 C 864.287 1532.17 861.757 1533.36 858.884 1534.7 C 854.449 1534.02 830.549 1505.25 824.631 1498.93 C 833.403 1489.15 839.621 1481.16 842.165 1467.34 C 845.162 1451.93 837.464 1429.52 819.497 1427.98 C 809.383 1427.12 802.188 1432.68 795.17 1438.91 L 795.262 1420.22 z" fill="rgb(228,163,128)" transform="translate(0,0)"></path>
<path d="M 752.13 1434.31 C 771.608 1433.1 773.699 1435.01 790.875 1443.76 C 781.717 1451.94 771.147 1459.93 766.658 1471.99 C 763.984 1479.18 763.751 1482.76 760.016 1489.7 C 753.838 1493.6 729.766 1479.33 723.748 1475.32 C 728.708 1456.57 732.107 1441.82 752.13 1434.31 z" fill="rgb(250,82,13)" transform="translate(0,0)"></path>
<path d="M 852.409 1554.85 C 833.758 1536.56 811.91 1520.25 794.238 1500.82 C 792.54 1499.91 791.527 1494 793.571 1493.48 C 796.81 1492.66 800.706 1494.21 804.011 1494.05 C 821.58 1493.19 829.711 1509.49 841.519 1521.16 C 842.146 1521.38 842.142 1521.6 842.538 1522.23 C 846.03 1526.24 857.192 1539.84 857.942 1539.16 C 865.132 1532.63 882.19 1550.31 878.55 1559.38 C 877.609 1561.29 870.705 1568.47 868.971 1568.6 C 857.086 1569.49 856.046 1566.87 853.549 1558.63 L 852.409 1554.85 z" fill="rgb(228,163,128)" transform="translate(0,0)"></path>
<path d="M 831.725 1379.31 C 844.152 1373.36 845.699 1371.68 850.867 1358.79 C 851.454 1361.47 852.093 1364.34 852.639 1367.01 L 853.758 1372.53 C 855.36 1380.83 853.38 1380.04 860.798 1382.5 C 860.917 1383.25 861.043 1384 861.176 1384.76 C 858.491 1386.81 857.305 1387.86 854.973 1390.27 C 853.313 1396.8 851.984 1401.32 849.708 1407.61 C 843.581 1413.32 841.233 1413.75 833.669 1416.53 C 828.973 1415.01 826.705 1414.41 822.331 1412.23 C 822.008 1411.58 821.746 1410.98 821.33 1410.39 C 832.421 1385.21 802.453 1391.95 818.387 1375.58 C 820.29 1373.63 829.004 1378.27 831.725 1379.31 z" fill="rgb(228,163,128)" transform="translate(0,0)"></path>
<path d="M 794.981 1445.74 C 797.951 1448.28 799.119 1449.53 801.724 1452.41 C 799.919 1459.81 788.711 1493.13 790.356 1500.86 C 792.308 1510.04 790.549 1511.52 786.68 1520.01 C 784.369 1525 780.164 1528.86 774.997 1530.73 C 773.672 1531.2 772.485 1531.65 771.188 1532.2 C 763.19 1533.86 762.526 1535.63 765.974 1525.15 C 774.645 1498.8 783.829 1471.16 794.981 1445.74 z" fill="rgb(250,82,13)" transform="translate(0,0)"></path>
<path d="M 811.922 1442.83 C 817.373 1443.07 820.088 1443.05 823.393 1448.38 C 830.676 1460.3 825.441 1474.96 822.656 1487.43 C 822.557 1487.87 821.392 1493.73 820.345 1493.55 C 817.52 1493.04 816.155 1492.05 812.758 1491.6 C 806.401 1490.87 799.917 1490.96 793.446 1490.57 C 798.061 1477.09 802.677 1451.61 811.922 1442.83 z" fill="rgb(240,201,152)" transform="translate(0,0)"></path>
<path d="M 870.874 1647.01 C 872.626 1646.86 885.752 1647.86 887.432 1648.32 C 904.094 1652.91 889.62 1657.82 881.952 1660.68 C 874.871 1663.34 867.703 1665.77 860.458 1667.95 C 851.085 1672.37 844.069 1675.87 841.778 1662.54 C 841.225 1659.32 840.538 1659.35 843.972 1658.27 C 853.15 1655.38 861.861 1650.65 870.874 1647.01 z" fill="rgb(42,58,128)" transform="translate(0,0)"></path>
<path d="M 722.847 1655.7 C 720.203 1653.67 717.604 1651.59 715.052 1649.46 C 707.091 1642.78 711.749 1639.8 716.875 1633.13 C 723.479 1638.09 740.128 1649.69 744.545 1655.72 C 755.54 1670.73 758.279 1686.72 736.504 1666.97 C 731.897 1662.79 728.893 1660.28 723.983 1656.61 C 723.332 1656.18 723.341 1656.26 722.847 1655.7 z" fill="rgb(42,58,128)" transform="translate(0,0)"></path>
<path d="M 813.012 1431.04 C 821.816 1431.41 822.08 1430.51 829.962 1435.63 L 830.865 1436.56 L 832.167 1437.85 C 840.692 1446.46 841.078 1458.76 838.868 1470.01 C 836.719 1480.95 829.743 1489.02 822.697 1497.21 C 826.633 1478.35 837.15 1457.31 821.043 1441.65 L 820.699 1441.3 C 818.139 1440.25 817.135 1439.89 814.466 1439.18 C 815.122 1435.48 814.695 1434.38 813.012 1431.04 z" fill="rgb(250,82,13)" transform="translate(0,0)"></path>
<path d="M 813.012 1431.04 C 821.816 1431.41 822.08 1430.51 829.962 1435.63 L 828.934 1436.44 C 826.15 1438.8 823.805 1438.43 820.699 1441.3 C 818.139 1440.25 817.135 1439.89 814.466 1439.18 C 815.122 1435.48 814.695 1434.38 813.012 1431.04 z" fill="rgb(255,107,36)" transform="translate(0,0)"></path>
<path d="M 806.812 1516.81 C 812.437 1522.42 818.812 1528.2 824.171 1533.87 C 816.91 1534.36 810.325 1534.79 803.038 1535.03 C 796.953 1535.84 790.928 1536.21 784.573 1537.01 C 792.146 1528.97 798.906 1524.29 806.812 1516.81 z" fill="rgb(228,163,128)" transform="translate(0,0)"></path>
<path d="M 781.055 1531.38 C 781.926 1532.42 782.125 1532.97 782.759 1534.19 C 782.945 1536.73 786.884 1550.83 783.968 1551.39 C 776.113 1552.89 756.333 1551.54 763.208 1538.42 C 764.505 1535.95 777.36 1533.15 781.055 1531.38 z" fill="rgb(250,82,13)" transform="translate(0,0)"></path>
<path d="M 773.846 1417.97 C 779.374 1418.25 784.591 1419.37 790.171 1419.14 C 794.868 1418.95 792.358 1429.87 792 1432.21 C 783.505 1431.13 780.062 1431.08 771.619 1430.98 C 772.293 1425.93 773.06 1422.84 773.846 1417.97 z" fill="rgb(42,58,128)" transform="translate(0,0)"></path>
<path d="M 814.466 1439.18 C 810.842 1440.81 807.232 1442.08 805.061 1445.59 C 804.469 1446.55 803.764 1448.28 802.486 1448.52 C 802.001 1448.32 797.204 1443.81 797.159 1443.41 C 796.476 1437.39 809.058 1432.61 813.012 1431.04 C 814.695 1434.38 815.122 1435.48 814.466 1439.18 z" fill="rgb(249,134,71)" transform="translate(0,0)"></path>
<path d="M 794.735 1506.33 C 798.602 1510.19 800.212 1511.56 804.49 1514.98 C 799.805 1519.78 795.764 1523.62 790.03 1527.22 L 787.31 1526.02 C 790.285 1519.41 792.156 1512.89 794.735 1506.33 z" fill="rgb(250,82,13)" transform="translate(0,0)"></path>
<path d="M 847.624 1412.97 C 850.06 1415.31 848.28 1431.37 847.986 1435.15 C 846.395 1433.08 845.71 1432.03 844.414 1429.64 C 841.29 1425.19 839.294 1422.89 835.714 1418.99 C 839.839 1417.23 843.82 1415.35 847.624 1412.97 z" fill="rgb(250,82,13)" transform="translate(0,0)"></path>
<path d="M 764.349 1416.78 L 766.257 1416.99 C 774.063 1417.81 770.751 1424.16 769.523 1431.21 C 759.705 1430.65 759.641 1431.55 763.061 1420.99 L 764.349 1416.78 z" fill="rgb(233,65,9)" transform="translate(0,0)"></path>
<path d="M 776.958 1434.23 C 785.893 1433.35 792.303 1432.08 793.255 1441.82 C 788.576 1439.96 781.308 1436.7 776.958 1434.23 z" fill="rgb(249,134,71)" transform="translate(0,0)"></path>
<path d="M 720.406 1486.34 C 720.964 1484.65 722.326 1477.32 725.026 1479.06 C 730.064 1482.31 724.848 1485.36 721.823 1488.62 C 721.488 1487.51 721.247 1487.41 720.406 1486.34 z" fill="rgb(233,65,9)" transform="translate(0,0)"></path>
<path d="M 787.31 1526.02 L 790.03 1527.22 C 787.537 1529.63 785.402 1531.95 782.759 1534.19 C 782.125 1532.97 781.926 1532.42 781.055 1531.38 C 782.705 1529.45 785.371 1527.86 787.31 1526.02 z" fill="rgb(233,65,9)" transform="translate(0,0)"></path>
<path d="M 785.796 1451.34 C 786.464 1450.75 789.362 1447.79 790.379 1447.84 C 791.216 1448.65 789.599 1452.74 789.338 1453.74 L 785.796 1451.34 z" fill="rgb(233,65,9)" transform="translate(0,0)"></path>
<path d="M 821.33 1410.39 C 821.746 1410.98 822.008 1411.58 822.331 1412.23 L 822.009 1414.81 L 820.626 1413.94 L 821.33 1410.39 z" fill="rgb(101,57,35)" transform="translate(0,0)"></path>
<path d="M 1024.13 518.019 L 1199.23 614.746 C 1213.18 622.373 1249.1 644.221 1261.95 647.632 C 1267.32 649.057 1313.51 648.199 1321.86 648.218 L 1462.36 648.283 C 1487.79 648.29 1512.99 647.953 1538.41 648.996 C 1583.85 650.859 1612.46 711.866 1562.05 732.239 L 1559.18 730.745 C 1547.21 731.717 1529.22 731.321 1517.01 731.314 L 1450.09 731.239 L 1239.95 731.157 L 1230.42 725.267 L 1229.99 727.891 L 1228.97 727.456 L 1100.04 646.479 C 1078.67 632.814 1045.54 610.188 1023.99 598.866 L 804.858 736.036 L 594.651 735.987 L 538.092 736.077 C 522.143 736.101 503.938 737.2 488.697 733.697 L 489.163 851.111 C 489.206 870.31 488.674 892.855 489.409 911.833 C 489.228 912.811 488.944 915.79 488.453 916.47 C 487.829 915.866 487.774 915.076 487.493 914.18 C 486.169 899.769 487.072 870.547 487.048 855.131 C 487.164 814.498 486.924 773.865 486.329 733.237 C 442.633 713.105 458.551 660.947 495.591 651.143 C 516.903 645.502 564.689 648.258 588.921 648.242 L 729.965 648.131 C 746.312 648.115 765.781 648.451 781.805 647.521 C 787.092 647.214 814.64 631.352 820.725 628.069 L 902.851 583.728 L 904.02 583.54 C 914.868 576.539 928.645 569.276 940.284 563.265 C 968.105 548.898 996.077 531.582 1024.13 518.019 z" fill="rgb(228,163,128)" transform="translate(0,0)"></path>
<path d="M 902.851 583.728 L 904.887 584.798 C 867.128 605.17 821.239 628.389 784.902 649.916 L 596.801 649.771 C 572.321 649.78 532.342 648.475 509.687 650.192 C 508.667 650.083 508.759 650.085 507.822 650.515 C 493.842 651.991 480.954 658.751 471.793 669.412 C 458.187 685.264 458.64 711.938 475.826 725.091 C 491.879 737.377 519.83 734.152 539.648 734.144 L 610.603 734.093 C 673.66 734.043 742.088 735.485 804.661 733.886 C 856.954 700.593 909.454 667.625 962.157 634.984 C 980.764 623.52 1005.95 606.116 1023.94 596.145 C 1072.04 624.077 1119.45 657.278 1167.33 685.951 C 1186.36 697.344 1210.11 714.47 1229.34 724.566 C 1230.04 724.929 1229.67 724.705 1230.42 725.267 L 1229.99 727.891 L 1228.97 727.456 L 1100.04 646.479 C 1078.67 632.814 1045.54 610.188 1023.99 598.866 L 804.858 736.036 L 594.651 735.987 L 538.092 736.077 C 522.143 736.101 503.938 737.2 488.697 733.697 L 489.163 851.111 C 489.206 870.31 488.674 892.855 489.409 911.833 C 489.228 912.811 488.944 915.79 488.453 916.47 C 487.829 915.866 487.774 915.076 487.493 914.18 C 486.169 899.769 487.072 870.547 487.048 855.131 C 487.164 814.498 486.924 773.865 486.329 733.237 C 442.633 713.105 458.551 660.947 495.591 651.143 C 516.903 645.502 564.689 648.258 588.921 648.242 L 729.965 648.131 C 746.312 648.115 765.781 648.451 781.805 647.521 C 787.092 647.214 814.64 631.352 820.725 628.069 L 902.851 583.728 z" fill="rgb(52,36,29)" transform="translate(0,0)"></path>
<path d="M 1024.13 518.019 L 1199.23 614.746 C 1213.18 622.373 1249.1 644.221 1261.95 647.632 C 1267.32 649.057 1313.51 648.199 1321.86 648.218 L 1462.36 648.283 C 1487.79 648.29 1512.99 647.953 1538.41 648.996 C 1583.85 650.859 1612.46 711.866 1562.05 732.239 L 1559.18 730.745 C 1588.32 721.206 1594.56 692.39 1575.84 669.275 C 1574.1 666.853 1573.61 666.526 1571.18 664.682 L 1567.94 662.162 C 1566.97 661.541 1566.46 661.246 1565.42 660.742 C 1564.81 660.089 1564.79 659.908 1564 659.568 C 1554.44 654.181 1546.62 651.051 1535.54 650.88 C 1528.43 651.311 1513.84 651.087 1506.84 650.005 C 1454.25 649.7 1401.66 649.714 1349.07 650.046 C 1336.02 649.153 1317.69 649.829 1304.16 649.774 C 1291.74 649.723 1272.18 649.224 1260.56 650.493 C 1250.87 646.826 1212.66 624.625 1201.18 618.436 C 1200.56 617.888 1200.65 617.876 1199.91 617.645 C 1163.19 598.613 1125.97 576.097 1089.2 556.42 C 1088.56 555.885 1088.65 555.876 1087.9 555.657 C 1069.34 545.228 1042.39 529.226 1023.76 520.239 L 942.047 564.592 C 940.967 564.875 940.987 564.844 940.128 565.55 C 930.401 571.024 920.645 576.447 910.86 581.818 C 908.68 583.392 907.534 584.326 904.887 584.798 L 902.851 583.728 L 904.02 583.54 C 914.868 576.539 928.645 569.276 940.284 563.265 C 968.105 548.898 996.077 531.582 1024.13 518.019 z" fill="rgb(52,36,29)" transform="translate(0,0)"></path>
<path d="M 1506.84 650.005 C 1514.55 649.481 1527.9 649.389 1535.54 650.88 C 1528.43 651.311 1513.84 651.087 1506.84 650.005 z" fill="rgb(169,126,97)" transform="translate(0,0)"></path>
<path d="M 904.02 583.54 C 905.915 583.446 907.147 583.201 908.935 582.514 L 910.86 581.818 C 908.68 583.392 907.534 584.326 904.887 584.798 L 902.851 583.728 L 904.02 583.54 z" fill="rgb(119,94,69)" transform="translate(0,0)"></path>
<path d="M 1260.56 650.493 C 1272.18 649.224 1291.74 649.723 1304.16 649.774 C 1317.69 649.829 1336.02 649.153 1349.07 650.046 C 1337.14 651.596 1270.96 652.128 1260.56 650.493 z" fill="rgb(169,126,97)" transform="translate(0,0)"></path>
<path d="M 1571.18 664.682 C 1573.61 666.526 1574.1 666.853 1575.84 669.275 C 1573.57 667.984 1572.69 666.767 1571.18 664.682 z" fill="rgb(119,94,69)" transform="translate(0,0)"></path>
<path d="M 507.822 650.515 C 508.759 650.085 508.667 650.083 509.687 650.192 C 508.957 650.699 508.791 650.546 507.822 650.515 z" fill="rgb(169,126,97)" transform="translate(0,0)"></path>
<path d="M 1013.74 978.448 C 1065.91 976.345 1118.88 993.239 1157.93 1028.38 C 1200.17 1066.4 1217.03 1108.53 1220.15 1164.4 L 1038.75 1164.21 L 832.766 1164.49 C 834.603 1062.57 913.848 986.321 1013.74 978.448 z" fill="rgb(52,36,29)" transform="translate(0,0)"></path>
<path d="M 866.179 1064.35 C 876.78 1068.51 892.703 1077.44 903.29 1082.99 C 921.477 1092.54 940.527 1102.27 958.246 1112.5 C 945.799 1131.91 945.624 1139.63 943.776 1162.25 L 927.505 1162.13 L 834.753 1162.33 C 836.65 1125.4 846.535 1095.46 866.179 1064.35 z" fill="rgb(250,82,13)" transform="translate(0,0)"></path>
<path d="M 1189.09 1069.87 C 1192.06 1071.59 1194.94 1076.78 1196.6 1079.92 C 1209.78 1104.94 1216.43 1134.16 1218.14 1162.25 L 1122.19 1162.08 L 1108.07 1162.14 C 1107.63 1140.38 1104.63 1130.2 1093.13 1112 C 1123.82 1096 1157.39 1084.44 1189.09 1069.87 z" fill="rgb(250,82,13)" transform="translate(0,0)"></path>
<path d="M 1005.68 981.396 C 1008.3 980.858 1008.31 980.999 1011 981.372 C 1012.72 984.32 1014.21 1067.85 1014.45 1078.5 C 1000.81 1080.41 991.761 1084.72 979.956 1091.34 C 972.763 1083.6 962.66 1070.4 955.71 1061.87 C 942.414 1046.09 929.61 1029.9 917.318 1013.33 C 948.905 993.676 969.027 986.597 1005.68 981.396 z" fill="rgb(250,82,13)" transform="translate(0,0)"></path>
<path d="M 1039.79 981.072 C 1081.11 987.287 1094.07 990.335 1131.05 1010.54 C 1119.25 1026.69 1106.64 1042.83 1094.68 1059.12 L 1070.58 1091.75 C 1059.15 1085.11 1049.27 1080.5 1036.11 1078.57 C 1036.59 1047.22 1038.65 1012.75 1039.79 981.072 z" fill="rgb(250,82,13)" transform="translate(0,0)"></path>
<path d="M 1016.63 1102.24 C 1019.09 1102 1021.55 1101.85 1024.01 1101.76 C 1061.38 1100.44 1082.8 1125.91 1084.08 1162.12 L 1039.25 1162.08 L 968.069 1162.09 C 967.443 1128.16 983.867 1108.76 1016.63 1102.24 z" fill="rgb(250,82,13)" transform="translate(0,0)"></path>
<path d="M 1133.03 1012.06 C 1137.62 1015.14 1142.37 1018.62 1146.91 1021.84 C 1147.94 1022.17 1147.88 1022.08 1148.39 1023.05 C 1163.59 1034.58 1178.36 1051.68 1189 1067.48 C 1158.72 1079.26 1120.94 1096.41 1091.41 1110.11 C 1085.26 1103.18 1080.11 1098.07 1072.65 1092.66 C 1092.15 1066.34 1112.72 1037.42 1133.03 1012.06 z" fill="rgb(228,163,128)" transform="translate(0,0)"></path>
<path d="M 915.247 1014.99 C 922.482 1023.3 931.529 1035.51 938.568 1044.34 C 951.656 1060.65 964.844 1076.88 978.131 1093.03 C 970.033 1099.25 966.487 1102.66 959.758 1110.25 C 953.855 1107.41 946.654 1103.22 940.789 1100.01 C 916.306 1087.72 892.175 1074.39 867.487 1062.07 C 881.566 1042.28 895.712 1029.11 915.247 1014.99 z" fill="rgb(228,163,128)" transform="translate(0,0)"></path>
<path d="M 1011.15 1081.27 C 1020.25 1080.5 1032.86 1079.98 1041.72 1082.25 C 1083.42 1092.97 1104.76 1120.35 1105.4 1162.1 L 1086.4 1162.22 C 1085.92 1129.59 1072.04 1110.46 1040.76 1101.31 C 1020.12 1096.28 997.019 1101.42 982.009 1116.89 C 968.92 1130.38 965.81 1143.91 965.924 1162.19 L 946.466 1162.21 C 947.198 1118.94 968.811 1091.76 1011.15 1081.27 z" fill="rgb(240,201,152)" transform="translate(0,0)"></path>
<path d="M 1014.51 980.126 C 1022.02 980.09 1029.53 980.099 1037.04 980.154 C 1037.25 1011.86 1034.49 1045.14 1033.91 1076.95 C 1032.07 1079.53 1021.19 1078.25 1017.06 1078.42 C 1016.95 1045.79 1014.5 1013.1 1014.51 980.126 z" fill="rgb(228,163,128)" transform="translate(0,0)"></path>
<path d="M 1345.41 1151.19 C 1352.86 1155.94 1358.36 1162.39 1362.48 1170.18 C 1366.08 1176.81 1368.24 1184.12 1368.84 1191.64 C 1370.46 1211.05 1369.59 1244.29 1369.64 1264.91 L 1369.65 1397.06 C 1369.57 1411.87 1372.56 1452.46 1368.65 1464.1 C 1367.33 1468.04 1364.94 1471.3 1361.14 1473.14 C 1355.33 1475.94 1286.61 1475.01 1276.06 1474.31 C 1272.5 1474.07 1268.76 1473.6 1265.46 1472.18 C 1263.17 1471.2 1262.1 1470.3 1261.3 1467.87 C 1260.08 1464.19 1259.65 1460.13 1259.52 1456.27 C 1258.96 1440.8 1259.64 1425.09 1259.68 1409.61 L 1259.85 1314.4 L 1259.88 1237.44 C 1259.9 1217.05 1257.38 1186.99 1267.13 1168.99 C 1274.07 1156.44 1285.71 1147.16 1299.5 1143.2 C 1316.54 1138.28 1329.26 1141.69 1344.07 1149.9 L 1345.41 1151.19 z" fill="rgb(24,22,33)" transform="translate(0,0)"></path>
<path d="M 1261.83 1200.08 C 1262.38 1187.06 1264.69 1175.54 1272.48 1164.7 C 1280.65 1153.32 1293.02 1145.67 1306.84 1143.43 C 1319.08 1141.47 1331.59 1144.36 1341.72 1151.5 C 1342.51 1151.91 1343.3 1152.32 1344.09 1152.73 C 1360.59 1164.27 1366.87 1180.66 1367 1200.1 L 1261.83 1200.08 z" fill="rgb(228,163,128)" transform="translate(0,0)"></path>
<path d="M 1344.07 1149.9 L 1345.41 1151.19 L 1344.09 1152.73 C 1343.3 1152.32 1342.51 1151.91 1341.72 1151.5 L 1344.07 1149.9 z" fill="rgb(102,73,56)" transform="translate(0,0)"></path>
<path d="M 1262.21 1202.18 L 1366.79 1202.28 C 1367.52 1261.4 1367.89 1320.53 1367.9 1379.66 C 1367.93 1406.23 1368.43 1434.15 1367.19 1460.71 C 1367.02 1464.27 1366.15 1466.27 1364.33 1469.23 C 1360.03 1472.57 1354.51 1472.89 1349.18 1472.72 C 1324.42 1471.93 1299.17 1472.94 1274.49 1472.33 C 1262.55 1472.04 1262.04 1465.08 1261.92 1455.13 C 1261.59 1427.2 1261.74 1398.33 1261.78 1370.5 L 1262.21 1202.18 z" fill="rgb(42,58,128)" transform="translate(0,0)"></path>
<path d="M 593.834 766.303 L 594.903 766.215 C 629.204 763.702 653.327 789.278 654.918 822.122 C 655.641 837.032 655.185 852.393 655.192 867.343 L 655.292 951.543 L 655.303 1039.15 C 655.289 1048.73 657.003 1087.78 652.021 1093.7 C 645.396 1101.59 619.037 1099.03 607.5 1098.9 C 537.901 1099.36 545.129 1108.03 545.179 1038.72 L 545.281 948.457 L 545.155 865.986 C 545.072 821.171 538.94 778.939 593.834 766.303 z" fill="rgb(24,22,33)" transform="translate(0,0)"></path>
<path d="M 547.372 826.411 C 582.524 827.136 617.684 827.394 652.843 827.186 L 653.529 989.585 C 653.787 1022.27 654.095 1054.54 652.61 1087.23 C 652.502 1089.61 650.979 1092 649.709 1093.92 C 638.419 1100.31 577.606 1096.05 561.534 1096.48 C 549.516 1096.81 547.262 1089 547.285 1078.61 C 547.473 994.616 546.268 910.389 547.372 826.411 z" fill="rgb(42,58,128)" transform="translate(0,0)"></path>
<path d="M 594.846 768.276 C 630.166 764.398 650.825 792.889 653.346 824.787 C 637.73 825.032 621.586 824.817 605.926 824.813 L 547.275 824.335 C 549.885 793.88 563.27 774.461 594.846 768.276 z" fill="rgb(228,163,128)" transform="translate(0,0)"></path>
<path d="M 545.968 1247.84 C 545.219 1239.24 545.627 1229.26 545.539 1220.55 C 545.311 1197.83 544.339 1177.27 560.68 1159.15 C 570.617 1148.06 584.712 1141.59 599.601 1141.29 C 635.369 1140.56 655.256 1169.98 655.274 1202.96 L 655.171 1371.31 C 655.141 1397.64 655.11 1423.97 655.03 1450.29 C 655.01 1456.94 654.55 1465.73 651.161 1471.49 C 641.648 1476.58 567.58 1475.81 553.885 1473.88 C 550.008 1471.08 545.933 1468.59 545.548 1463.43 C 544.736 1452.52 545.053 1440.63 545.088 1429.67 L 545.337 1366.47 L 545.633 1287.73 C 545.672 1277.94 545.186 1256.92 545.968 1247.84 z" fill="rgb(42,58,128)" transform="translate(0,0)"></path>
<path d="M 545.968 1247.84 C 545.219 1239.24 545.627 1229.26 545.539 1220.55 C 545.311 1197.83 544.339 1177.27 560.68 1159.15 C 570.617 1148.06 584.712 1141.59 599.601 1141.29 C 635.369 1140.56 655.256 1169.98 655.274 1202.96 L 653.062 1202.06 L 547.089 1202.06 C 545.411 1213.5 547.846 1239.78 545.968 1247.84 z" fill="rgb(52,36,29)" transform="translate(0,0)"></path>
<path d="M 591.151 1144.24 C 592.642 1144.08 594.135 1143.95 595.631 1143.84 C 631.403 1141.35 651.435 1166.75 653.503 1199.96 L 611.5 1200.02 L 547.614 1200.09 C 549.52 1170.86 561.736 1151.81 591.151 1144.24 z" fill="rgb(228,163,128)" transform="translate(0,0)"></path>
<path d="M 545.968 1247.84 C 547.846 1239.78 545.411 1213.5 547.089 1202.06 L 547.181 1203.39 C 548.574 1225.32 547.295 1255.25 547.157 1277.89 L 547.123 1400.4 C 547.147 1419.82 546.853 1439.45 547.171 1458.8 C 547.286 1465.75 551.826 1472.35 559.157 1472.51 C 578.165 1472.94 597.607 1472.72 616.63 1472.83 C 625.522 1472.88 643.076 1474.07 649.9 1468.59 C 654.63 1457.2 652.885 1391.19 652.904 1375.3 L 653.483 1266.1 C 653.456 1245.23 652.47 1222.68 653.062 1202.06 L 655.274 1202.96 L 655.171 1371.31 C 655.141 1397.64 655.11 1423.97 655.03 1450.29 C 655.01 1456.94 654.55 1465.73 651.161 1471.49 C 641.648 1476.58 567.58 1475.81 553.885 1473.88 C 550.008 1471.08 545.933 1468.59 545.548 1463.43 C 544.736 1452.52 545.053 1440.63 545.088 1429.67 L 545.337 1366.47 L 545.633 1287.73 C 545.672 1277.94 545.186 1256.92 545.968 1247.84 z" fill="rgb(15,22,57)" transform="translate(0,0)"></path>
<path d="M 1307.9 766.319 L 1308.74 766.247 C 1340.35 763.846 1367.37 787.466 1368.88 818.89 C 1369.66 835.152 1369.47 851.85 1369.58 868.168 L 1369.76 967.992 L 1369.91 1041.26 C 1369.94 1051.76 1372.11 1087.58 1365.44 1094.99 C 1360.01 1101.02 1333.04 1099.12 1323.5 1099.02 C 1253.49 1098.83 1259.69 1111.09 1259.78 1040.41 L 1259.9 945.669 L 1259.89 862.695 C 1259.89 820.752 1254.37 776.875 1307.9 766.319 z" fill="rgb(24,22,33)" transform="translate(0,0)"></path>
<path d="M 1291.25 826.505 C 1316.41 826.146 1341.57 826.026 1366.73 826.145 C 1367.79 883.115 1368.2 940.095 1367.97 997.075 C 1367.97 1024.16 1368.11 1051.21 1367.7 1078.29 C 1367.35 1101.52 1353.96 1097.3 1335.75 1096.91 C 1321.54 1096.89 1273.94 1099.57 1265.6 1093.79 C 1259.7 1089.69 1261.78 1009.42 1261.77 997.227 L 1262.13 826.622 L 1291.25 826.505 z" fill="rgb(42,58,128)" transform="translate(0,0)"></path>
<path d="M 1309.77 768.3 C 1343.62 765.313 1365.73 792.328 1366.99 824.183 C 1351.75 824.5 1335.79 824.302 1320.5 824.345 C 1300.85 824.435 1281.19 824.405 1261.54 824.256 C 1263.2 794.454 1278.89 773.12 1309.77 768.3 z" fill="rgb(228,163,128)" transform="translate(0,0)"></path>
<path d="M 1446.65 766.338 C 1451.97 765.984 1457.32 766.407 1462.53 767.594 C 1486.89 773.213 1503.95 793.527 1505.55 818.522 C 1506.46 832.835 1505.99 847.754 1505.99 862.137 L 1506 943.292 L 1505.98 1033.64 C 1505.97 1047.49 1507.05 1082.47 1503.95 1093.66 C 1494.98 1102.02 1471.78 1099.16 1458.5 1098.99 C 1444.55 1099.08 1410.11 1101.49 1400.3 1094.61 C 1395.45 1086.11 1396.73 1056.5 1396.7 1045.81 L 1396.58 973.857 L 1396.55 873.691 C 1396.59 829.652 1387.81 774.333 1446.65 766.338 z" fill="rgb(24,22,33)" transform="translate(0,0)"></path>
<path d="M 1399.07 826.716 C 1433.99 826.449 1469.23 827.427 1503.98 826.811 L 1504.35 1001.29 L 1504.22 1057.25 C 1504.18 1066.4 1505.57 1086.34 1501.14 1093.51 C 1490.82 1100.07 1459.53 1096.05 1446.29 1097.12 C 1434.44 1097.14 1422.13 1097.2 1410.34 1096.87 C 1395.24 1096.45 1399.16 1065.96 1399.16 1055.85 L 1399.13 1004.74 L 1399.07 826.716 z" fill="rgb(42,58,128)" transform="translate(0,0)"></path>
<path d="M 1446.77 768.299 C 1466.56 766.413 1485.81 777.059 1495.72 794.021 C 1501.98 804.725 1502.82 812.568 1504.14 824.565 C 1488.14 825.058 1470.85 824.715 1454.75 824.675 C 1436.01 824.652 1417.28 824.534 1398.54 824.323 C 1400.45 793.425 1414.76 773.158 1446.77 768.299 z" fill="rgb(228,163,128)" transform="translate(0,0)"></path>
<path d="M 1443.6 1142.16 C 1460.08 1140.76 1471.61 1143.54 1484.82 1153.69 C 1509.75 1172.83 1506 1200.84 1505.96 1227.95 L 1505.87 1298.26 L 1505.97 1401.59 C 1505.97 1412.17 1507.5 1461.42 1503.35 1469.36 C 1499.4 1476.92 1469.89 1474.64 1458.75 1474.53 C 1391.62 1473.93 1396.79 1486.59 1396.69 1417.64 L 1396.69 1333.77 L 1396.77 1241.19 C 1396.79 1224.52 1396.3 1207.59 1397.48 1191 C 1399.35 1164.58 1418.35 1147.35 1443.6 1142.16 z" fill="rgb(24,22,33)" transform="translate(0,0)"></path>
<path d="M 1399.24 1202.02 C 1432.74 1201.18 1470.07 1202.06 1503.88 1202.1 C 1505.5 1256.3 1504.27 1316.29 1504.41 1371.21 L 1504.46 1434.57 C 1504.4 1444.05 1504.42 1454.12 1503.8 1463.58 C 1503.65 1465.89 1501.56 1467.65 1499.81 1469.85 C 1488.71 1475.63 1441.93 1470.56 1427.53 1472.52 C 1420.76 1473.44 1405.75 1472.21 1400.59 1467.29 C 1397.96 1456.61 1399.08 1399.31 1399.11 1384.08 L 1399.24 1202.02 z" fill="rgb(42,58,128)" transform="translate(0,0)"></path>
<path d="M 1444.09 1144.27 C 1480.38 1140.81 1502.24 1166.09 1504.09 1200.05 L 1460.5 1200.11 L 1398.82 1200.07 C 1398.88 1170.84 1414.41 1149.64 1444.09 1144.27 z" fill="rgb(228,163,128)" transform="translate(0,0)"></path>
<path d="M 684.82 819.365 C 684.833 819.001 684.845 818.637 684.858 818.273 C 685.677 803.175 692.567 789.05 703.962 779.111 C 714.737 769.79 728.79 765.164 742.995 766.262 C 757.528 767.602 770.884 774.816 779.971 786.237 C 786.565 794.503 790.855 804.367 792.405 814.827 C 793.442 821.614 792.958 843.431 792.965 851.157 L 793.025 926.198 L 793.067 1031.14 C 793.067 1049.68 793.544 1068.27 792.314 1086.8 C 793.184 1094.64 783.835 1098.96 776.456 1098.97 C 768.518 1099.27 747.285 1099.12 741.058 1098.75 C 731.461 1098.17 690.286 1102.29 687.079 1094.08 C 681.905 1080.85 683.97 1005.24 683.985 992.863 L 684.106 830.517 C 683.997 827.388 683.231 821.768 684.82 819.365 z" fill="rgb(52,36,29)" transform="translate(0,0)"></path>
<path d="M 684.82 819.365 C 685.714 823.088 684.665 826.554 684.106 830.517 C 683.997 827.388 683.231 821.768 684.82 819.365 z" fill="rgb(102,73,56)" transform="translate(0,0)"></path>
<path d="M 686.046 827.195 L 790.852 827.074 L 790.919 1001.45 L 790.92 1056.52 C 790.921 1064.93 792.471 1086.56 788.162 1092.7 C 780.601 1099.41 761.09 1097.14 750.745 1097.1 L 695.894 1097.01 C 690.301 1094.47 689.296 1092.67 686.051 1087.5 L 686.046 827.195 z" fill="rgb(42,58,128)" transform="translate(0,0)"></path>
<path d="M 732.763 768.258 C 767.679 765.38 789.204 791.641 791.124 824.446 C 777.353 825.41 759.596 824.966 745.5 824.969 L 685.472 824.875 C 689.053 795.375 700.911 774.096 732.763 768.258 z" fill="rgb(228,163,128)" transform="translate(0,0)"></path>
<path d="M 1020.68 365.017 C 1039.24 364.239 1036.63 374.712 1036.56 389.502 C 1076.21 408.538 1059.85 435.902 1073.34 468.41 C 1077.89 479.373 1088.04 480.957 1091.55 490.554 C 1092.55 493.277 1092.36 497.619 1090.79 500.309 C 1085.92 501.789 1047.34 501.064 1039.61 501.017 C 1035.35 503.992 1034.55 504.363 1029.64 506.072 C 1020.22 506.199 1019.28 506.049 1011.66 500.611 C 993.635 500.349 975.603 500.412 957.576 500.801 C 957.677 494.845 957.84 491.865 958.611 485.908 C 960.371 485.164 962.111 484.371 963.827 483.531 C 997.111 467.028 963.832 411.876 1013.2 388.698 C 1012.98 378.3 1010.81 370.747 1020.68 365.017 z" fill="rgb(60,17,5)" transform="translate(0,0)"></path>
<path d="M 1019.22 390.346 C 1028.46 389.756 1042.3 392.624 1048.69 399.089 C 1074.13 424.864 1056.68 452.442 1080 482.604 C 1066.05 481.712 1047.79 482.243 1033.5 482.287 L 970.03 482.209 C 993.177 454.222 976.531 433.149 994.827 405.39 C 1000.1 397.395 1009.65 391.897 1019.22 390.346 z" fill="rgb(250,82,13)" transform="translate(0,0)"></path>
<path d="M 959.836 489.733 C 960.558 487.715 960.555 487.153 962.634 486.213 C 970.429 482.685 1077.66 482.317 1085.98 485.496 C 1088.15 486.327 1089.49 487.805 1090.71 489.747 C 1091.32 494.173 1091.39 493.827 1090.32 498.124 C 1083.15 500.214 1048.17 498.852 1038.89 498.882 C 1028.21 506.501 1022.02 505.78 1011.84 498.333 C 996.694 498.931 974.531 499.327 959.231 498.814 C 958.651 494.26 958.77 494.269 959.836 489.733 z" fill="rgb(250,82,13)" transform="translate(0,0)"></path>
<path d="M 959.836 489.733 C 959.978 494.228 959.996 494.436 959.231 498.814 C 958.651 494.26 958.77 494.269 959.836 489.733 z" fill="rgb(163,53,11)" transform="translate(0,0)"></path>
<path d="M 1090.71 489.747 C 1091.32 494.173 1091.39 493.827 1090.32 498.124 C 1090.22 494.217 1090.16 493.44 1090.71 489.747 z" fill="rgb(163,53,11)" transform="translate(0,0)"></path>
<path d="M 1020.63 367.135 C 1026.06 366.957 1034.18 366.548 1034.25 373.455 C 1034.31 379.744 1038.19 389.63 1030.78 388.874 C 1024.18 387.828 1021.81 387.953 1015.13 388.042 C 1014.98 377.197 1012.36 373.674 1020.63 367.135 z" fill="rgb(250,82,13)" transform="translate(0,0)"></path>
<metadata><recraft-signature>{"signed_by": "recraft", "signature_b64": "YcSXfE6W+A5HNkfl3Hnd+ZPLgZX+CzCOpb87YXObzZRbuUdQKdZzSsrQIxZj5chS3nzICymmPG1p0uDpHFvJDQ==", "signing_algo": "Ed25519", "generation_timestamp": 1779005344, "identifier": "5210060d-8883-4785-9615-6a26139d7719"}</recraft-signature></metadata></svg>