<svg xmlns="http://www.w3.org/2000/svg" height="832" preserveAspectRatio="none" style="display: block;" version="1.1" viewBox="0 0 2048 1331" width="1280">
<path d="M 0 0 L 2048 0 L 2048 1331 L 0 1331 L 0 0 z" fill="rgb(255,255,255)" transform="translate(0,0)"></path>
<path d="M 796.009 52.6408 C 810.649 65.0479 823.273 73.2036 842.843 75.9851 C 904.579 84.7592 966.599 64.3411 1026.68 53.795 C 1102.44 40.4952 1185.07 52.6214 1245.04 103.454 C 1261.8 117.599 1273.2 132.312 1274.95 155.011 C 1275.13 157.595 1275.22 160.185 1275.22 162.775 C 1302.53 161.353 1329.85 162.565 1350.76 182.636 C 1400.44 230.319 1395.09 308.714 1377.89 368.328 L 1378.42 367.755 C 1391.33 353.748 1397.04 344.576 1412.69 330.031 C 1461.4 285.432 1524.26 259.4 1590.24 256.496 C 1596.72 256.212 1603.02 256.191 1609.5 256.42 C 1759.89 261.742 1894.13 369.352 1908.62 523.573 C 1981.75 539.774 2010.38 607.669 1995.9 676.509 C 1986.77 719.926 1937.56 805.088 2007.36 822.585 C 2015.83 824.703 2026.05 823.669 2034.76 822.784 C 2015.47 856.989 1972.99 879.372 1933.82 874.415 C 1924.29 873.755 1914.88 872.012 1905.75 869.221 C 1875.05 859.544 1846.5 836.599 1831.43 808.027 C 1802.56 813.746 1784.05 815.35 1755.88 802.497 C 1744.75 813.086 1734.31 822.66 1721.43 831.158 C 1682.04 857.131 1617.09 876.676 1570.21 878.18 C 1511.93 878.769 1489.23 872.462 1438.03 848.121 C 1436.81 849.722 1436.53 853.087 1436.13 855.323 C 1435.63 859.08 1435.23 862.332 1434.38 866.037 C 1432.99 874.968 1430.41 886.987 1427.66 895.62 C 1376.23 869.906 1327.31 844.638 1273.38 824.446 C 1255.77 817.85 1238.71 810.225 1220.39 805.298 C 1218.01 800.166 1216.78 799.071 1211.24 797.833 C 1206.84 798.062 1176.5 789.83 1170.43 788.377 C 1159.26 785.818 1148.04 783.455 1136.79 781.287 C 1127.82 779.765 1122.98 764.05 1120.29 756.822 C 1118.13 751.024 1118.08 742.994 1116.58 739.231 C 1115.57 731.202 1115.92 722.052 1116.1 713.931 C 1112.83 714.429 1108.05 715.916 1104.74 716.787 C 1061.13 728.244 1015.57 726.665 972.319 713.197 L 971.95 728.321 C 970.903 750.479 967.123 763.369 952.811 780.354 C 942.65 782.928 882.54 798.578 877.411 797.831 C 873.955 797.018 873.687 796.784 870.587 798.11 C 869.851 798.959 868.587 800.273 868.106 801.197 C 865.507 806.619 862.058 806.519 856.571 808.545 C 791.167 832.685 711.713 863.548 653.787 902.733 C 651.394 897.723 649.2 892.879 646.236 888.164 C 640.8 875.945 638.753 869.022 635.663 856.085 C 626.046 859.792 616.663 866.175 606.973 870.188 C 573.696 883.97 540.8 889.52 504.911 890.195 C 436.431 890.984 326.99 855.724 284.135 799.348 C 260.394 816.098 236.438 818.563 209.757 806.225 C 192.53 798.255 179.267 783.646 172.993 765.732 C 168.482 752.903 167.535 738.956 173.6 726.46 C 179.104 715.384 188.755 706.926 200.457 702.924 C 162.106 630.863 155.967 565.795 176.024 486.536 C 146.679 491.974 136.37 505.607 116.728 528.76 C 103.923 543.854 72.1336 562.61 68.1007 527 C 66.4013 511.994 96.2711 486.186 108.447 475.463 C 90.7509 481.76 70.502 490.839 51.22 489.404 C 26.4633 487.561 23.5798 459.341 42.4266 447.978 C 64.9601 434.393 100.004 434.264 125.577 438.944 C 112.811 429.444 77.2895 414.022 76.4962 400.808 C 74.4652 366.974 110.954 381.443 124.08 391.32 C 152.707 412.86 174.19 438.341 181.126 473.06 C 182.74 468.714 184.395 464.382 186.089 460.066 C 214.145 388.982 276.786 329.139 346.476 299.053 C 405.203 274.188 470.466 269.278 532.251 285.078 C 549.199 289.47 562.224 294.683 578.378 301.097 C 568.487 267.043 571.996 199.95 606.277 177.479 C 613.216 172.93 628.8 177.128 631.128 186.013 C 635.025 200.889 623.848 221.236 617.683 235.055 L 621.513 234.524 C 636.291 218.36 652.27 204.872 675.089 203.032 C 687.059 202.067 701.101 210.057 700.647 223.065 C 699.842 246.185 669.615 256.148 652.19 262.715 C 656.787 265.217 661.335 262.818 668.542 264.691 C 679.832 266.368 704.6 269.58 709.359 279.576 C 727.93 318.58 687.986 315.681 665.985 309.385 C 639.017 301.668 619.27 299.974 595.008 309.764 C 652.573 345.058 687.438 379.87 719.248 440.31 C 736.007 407.176 747.273 405.909 782.914 405.933 C 764.673 357.392 756.315 313.481 776.329 264.27 C 754.653 273.102 747.774 280.071 734.435 299.491 C 724.266 208.853 769.821 155.66 855.453 134.085 C 820.755 113.471 799.104 96.5842 796.009 52.6408 z" fill="rgb(231,202,189)" transform="translate(0,0)"></path>
<path d="M 796.009 52.6408 C 810.649 65.0479 823.273 73.2036 842.843 75.9851 C 904.579 84.7592 966.599 64.3411 1026.68 53.795 C 1102.44 40.4952 1185.07 52.6214 1245.04 103.454 C 1261.8 117.599 1273.2 132.312 1274.95 155.011 C 1275.13 157.595 1275.22 160.185 1275.22 162.775 C 1302.53 161.353 1329.85 162.565 1350.76 182.636 C 1400.44 230.319 1395.09 308.714 1377.89 368.328 L 1378.42 367.755 C 1391.33 353.748 1397.04 344.576 1412.69 330.031 C 1461.4 285.432 1524.26 259.4 1590.24 256.496 C 1596.72 256.212 1603.02 256.191 1609.5 256.42 C 1759.89 261.742 1894.13 369.352 1908.62 523.573 C 1981.75 539.774 2010.38 607.669 1995.9 676.509 C 1986.77 719.926 1937.56 805.088 2007.36 822.585 C 2015.83 824.703 2026.05 823.669 2034.76 822.784 C 2015.47 856.989 1972.99 879.372 1933.82 874.415 C 1924.29 873.755 1914.88 872.012 1905.75 869.221 C 1875.05 859.544 1846.5 836.599 1831.43 808.027 C 1802.56 813.746 1784.05 815.35 1755.88 802.497 C 1744.75 813.086 1734.31 822.66 1721.43 831.158 C 1682.04 857.131 1617.09 876.676 1570.21 878.18 C 1511.93 878.769 1489.23 872.462 1438.03 848.121 C 1436.81 849.722 1436.53 853.087 1436.13 855.323 C 1435.63 859.08 1435.23 862.332 1434.38 866.037 C 1432.99 874.968 1430.41 886.987 1427.66 895.62 C 1376.23 869.906 1327.31 844.638 1273.38 824.446 C 1255.77 817.85 1238.71 810.225 1220.39 805.298 C 1218.01 800.166 1216.78 799.071 1211.24 797.833 C 1206.84 798.062 1176.5 789.83 1170.43 788.377 C 1159.26 785.818 1148.04 783.455 1136.79 781.287 C 1127.82 779.765 1122.98 764.05 1120.29 756.822 C 1118.13 751.024 1118.08 742.994 1116.58 739.231 C 1115.57 731.202 1115.92 722.052 1116.1 713.931 C 1126.08 710.158 1138.2 706.725 1147.76 702.588 C 1184.34 686.758 1219 663.018 1245.77 633.366 C 1253.11 625.243 1258.93 616.85 1265.74 608.453 C 1217.85 574.393 1241.83 499.448 1299.66 497.293 C 1306.61 497.034 1313.96 498.367 1320.93 499.082 C 1323.39 429.088 1287.05 390.791 1253.16 333.845 C 1229.87 294.724 1230.66 257.592 1242.2 214.985 C 1216.15 244.823 1188.53 262.497 1150.67 274.181 C 1118.96 283.968 1092.38 291.25 1059.98 280.156 C 1086.74 270.421 1101.63 256.73 1111.28 229.61 C 1100.32 239.927 1088.35 249.125 1075.56 257.068 C 1029.02 285.717 976.609 290.185 924.263 277.76 C 961.195 272.566 993.198 259.816 1011.11 224.294 C 963.406 263.836 898.72 270.785 839.29 261.64 C 811.629 318.854 798.069 369.246 797.773 433.696 C 791.049 424.175 787.522 416.49 782.914 405.933 C 764.673 357.392 756.315 313.481 776.329 264.27 C 754.653 273.102 747.774 280.071 734.435 299.491 C 724.266 208.853 769.821 155.66 855.453 134.085 C 820.755 113.471 799.104 96.5842 796.009 52.6408 z" fill="rgb(48,30,12)" transform="translate(0,0)"></path>
<path d="M 1319.86 512.261 C 1327.16 499.141 1337.26 477.977 1341.99 463.671 C 1352.29 432.458 1359.29 423.212 1382.13 400.531 C 1439.39 343.671 1510.65 301.811 1593.46 303.362 C 1600.9 413.044 1668.83 484.461 1734.57 565.349 C 1746.92 580.534 1770.24 606.049 1778.56 621.892 C 1794.23 651.734 1798.52 689.227 1801.02 722.38 C 1816.5 706.768 1835.57 699.448 1857.5 705.919 C 1867.17 709.48 1876.65 715.903 1880.19 725.729 C 1895.6 768.481 1864.28 793.527 1831.43 808.027 C 1802.56 813.746 1784.05 815.35 1755.88 802.497 C 1744.75 813.086 1734.31 822.66 1721.43 831.158 C 1682.04 857.131 1617.09 876.676 1570.21 878.18 C 1511.93 878.769 1489.23 872.462 1438.03 848.121 C 1436.81 849.722 1436.53 853.087 1436.13 855.323 C 1435.63 859.08 1435.23 862.332 1434.38 866.037 C 1432.99 874.968 1430.41 886.987 1427.66 895.62 C 1376.23 869.906 1327.31 844.638 1273.38 824.446 C 1255.77 817.85 1238.71 810.225 1220.39 805.298 C 1218.01 800.166 1216.78 799.071 1211.24 797.833 C 1206.84 798.062 1176.5 789.83 1170.43 788.377 C 1159.26 785.818 1148.04 783.455 1136.79 781.287 C 1127.82 779.765 1122.98 764.05 1120.29 756.822 C 1118.13 751.024 1118.08 742.994 1116.58 739.231 C 1115.57 731.202 1115.92 722.052 1116.1 713.931 C 1126.08 710.158 1138.2 706.725 1147.76 702.588 C 1184.34 686.758 1219 663.018 1245.77 633.366 C 1253.11 625.243 1258.93 616.85 1265.74 608.453 C 1217.85 574.393 1241.83 499.448 1299.66 497.293 C 1306.61 497.034 1313.96 498.367 1320.93 499.082 L 1319.86 512.261 z" fill="rgb(184,128,105)" transform="translate(0,0)"></path>
<path d="M 1265.74 608.453 C 1276.4 613.934 1282.5 615.236 1293.96 617.547 C 1294.2 690.883 1315.63 743.557 1368.77 794.807 C 1390.56 815.816 1410.83 830.009 1435.65 847.03 C 1435.85 847.171 1436.15 851.412 1436.15 851.851 C 1436.16 853.008 1436.15 854.166 1436.13 855.323 C 1435.63 859.08 1435.23 862.332 1434.38 866.037 C 1432.99 874.968 1430.41 886.987 1427.66 895.62 C 1376.23 869.906 1327.31 844.638 1273.38 824.446 C 1255.77 817.85 1238.71 810.225 1220.39 805.298 C 1218.01 800.166 1216.78 799.071 1211.24 797.833 C 1206.84 798.062 1176.5 789.83 1170.43 788.377 C 1159.26 785.818 1148.04 783.455 1136.79 781.287 C 1127.82 779.765 1122.98 764.05 1120.29 756.822 C 1118.13 751.024 1118.08 742.994 1116.58 739.231 C 1115.57 731.202 1115.92 722.052 1116.1 713.931 C 1126.08 710.158 1138.2 706.725 1147.76 702.588 C 1184.34 686.758 1219 663.018 1245.77 633.366 C 1253.11 625.243 1258.93 616.85 1265.74 608.453 z" fill="rgb(255,255,255)" transform="translate(0,0)"></path>
<path d="M 1402.13 646.528 C 1406.91 648.589 1413.11 650.141 1417.3 653.091 C 1424.14 654.353 1439.86 660.611 1447.2 663.241 C 1463.2 669.031 1479.37 674.334 1495.69 679.143 C 1517.01 685.191 1538.47 690.763 1560.05 695.855 C 1565.83 697.188 1593.23 702.901 1596.91 704.419 C 1601.26 704.792 1605.49 705.977 1609.74 707.012 C 1602.57 744.649 1583.11 770.326 1548.96 787.359 C 1509.26 807.334 1451.47 795.148 1423.73 760.433 C 1395.08 723.41 1387.41 691.716 1402.13 646.528 z" fill="rgb(18,12,11)" transform="translate(0,0)"></path>
<path d="M 1417.3 653.091 C 1424.14 654.353 1439.86 660.611 1447.2 663.241 C 1463.2 669.031 1479.37 674.334 1495.69 679.143 C 1517.01 685.191 1538.47 690.763 1560.05 695.855 C 1565.83 697.188 1593.23 702.901 1596.91 704.419 C 1589.86 711.822 1577.71 718.184 1567.93 720.763 C 1517.18 734.137 1432.98 707.352 1417.3 653.091 z" fill="rgb(255,255,255)" transform="translate(0,0)"></path>
<path d="M 1423.73 760.433 C 1465.12 727.644 1526.62 738.696 1548.96 787.359 C 1509.26 807.334 1451.47 795.148 1423.73 760.433 z" fill="rgb(216,76,42)" transform="translate(0,0)"></path>
<path d="M 1355.93 551.26 C 1403.85 547.106 1434.54 611.237 1373.23 620.935 C 1351.57 621.283 1327.5 610.269 1322.95 587.184 C 1321.45 579.927 1323.01 572.372 1327.27 566.304 C 1334 556.75 1344.99 553.165 1355.93 551.26 z" fill="rgb(216,76,42)" transform="translate(0,0)"></path>
<path d="M 1654.12 677.189 C 1704.23 674.562 1732.25 730.937 1677.73 746.209 C 1626.23 752.384 1595.62 690.518 1654.12 677.189 z" fill="rgb(216,76,42)" transform="translate(0,0)"></path>
<path d="M 1642.74 583.236 C 1673 580.178 1692.08 595.53 1700.56 624.194 C 1702.28 630.019 1703.96 648.767 1694.43 647.978 C 1686.15 642.192 1689.23 628.781 1685.03 619.739 C 1682.89 615.132 1682 613.173 1678.97 608.879 C 1659.9 586.517 1635.45 595.07 1619.17 614.668 C 1616.36 618.044 1612.56 620.931 1607.99 620.044 C 1599.29 612.391 1612.37 601.17 1618.03 596.049 C 1625.39 589.389 1633.35 586.035 1642.74 583.236 z" fill="rgb(18,12,11)" transform="translate(0,0)"></path>
<path d="M 1411.59 494.236 C 1469.88 488.699 1478.48 555.012 1462.94 555.37 C 1461.8 554.641 1459.46 553.437 1459.12 552.436 C 1454.08 537.575 1455.72 529.728 1444.82 516.872 C 1428.45 501.939 1409.85 503.566 1394.23 518.204 C 1389.47 522.668 1384.32 530.342 1378.29 532.352 C 1374.78 531.864 1376 532.525 1373.71 529.913 C 1369.04 513.283 1398.63 498.252 1411.59 494.236 z" fill="rgb(18,12,11)" transform="translate(0,0)"></path>
<path d="M 1529.78 567.6 C 1533.43 568.243 1534.79 569.7 1536.32 572.672 C 1535.45 588.825 1499.08 595.881 1494.09 606.24 C 1485.24 624.589 1516.41 627.815 1520.71 637.902 C 1519.76 641.525 1519.48 640.956 1516.62 643.781 C 1508.06 642.023 1500.94 639.143 1494.2 633.65 C 1483.96 625.881 1476.68 609.334 1486.35 598.16 C 1499.89 582.51 1514.87 583.834 1529.78 567.6 z" fill="rgb(120,74,55)" transform="translate(0,0)"></path>
<path d="M 1834.41 735.159 C 1862.56 733.371 1868.6 757.676 1858.68 758.806 C 1855.02 756.891 1852.2 752.929 1849.54 749.691 C 1838.51 736.279 1824.93 751.173 1816.21 760.757 C 1809.36 768.252 1804.12 780.958 1796.8 783.461 C 1787.75 780.007 1804.67 757.497 1808.35 753.443 C 1816.87 744.067 1822.73 739.513 1834.41 735.159 z" fill="rgb(120,74,55)" transform="translate(0,0)"></path>
<path d="M 1267.26 527.164 C 1299.98 525.315 1302.87 562.725 1300.47 587.398 C 1300.08 591.487 1293.1 589.169 1290.78 587.483 C 1290.35 577.347 1291.51 530.633 1268.01 538.139 C 1266.6 538.575 1262.47 541.842 1261.05 541.032 C 1250.54 535.081 1262.63 529.338 1267.26 527.164 z" fill="rgb(120,74,55)" transform="translate(0,0)"></path>
<path d="M 1912.61 571.803 C 1939.12 614.958 1946.58 643.522 1935.86 694.87 C 1926.53 739.536 1879 792.838 1906.04 837.845 C 1909.8 843.983 1914.33 849.609 1919.53 854.586 C 1922.28 857.263 1940.69 872.129 1940.95 873.464 L 1933.82 874.415 C 1924.29 873.755 1914.88 872.012 1905.75 869.221 C 1875.05 859.544 1846.5 836.599 1831.43 808.027 C 1864.28 793.527 1895.6 768.481 1880.19 725.729 C 1876.65 715.903 1867.17 709.48 1857.5 705.919 C 1886.27 668.088 1907.65 619.238 1912.61 571.803 z" fill="rgb(18,12,11)" transform="translate(0,0)"></path>
<path d="M 578.378 301.097 C 568.487 267.043 571.996 199.95 606.277 177.479 C 613.216 172.93 628.8 177.128 631.128 186.013 C 635.025 200.889 623.848 221.236 617.683 235.055 L 621.513 234.524 C 636.291 218.36 652.27 204.872 675.089 203.032 C 687.059 202.067 701.101 210.057 700.647 223.065 C 699.842 246.185 669.615 256.148 652.19 262.715 C 656.787 265.217 661.335 262.818 668.542 264.691 C 679.832 266.368 704.6 269.58 709.359 279.576 C 727.93 318.58 687.986 315.681 665.985 309.385 C 639.017 301.668 619.27 299.974 595.008 309.764 C 652.573 345.058 687.438 379.87 719.248 440.31 C 729.756 465.511 737.808 485.611 741.6 512.967 C 742.372 518.172 743.317 523.628 744.138 528.85 C 744.447 533.303 744.877 538.129 745.044 542.553 C 730.912 512.925 713.656 484.008 689.306 461.519 C 675.508 448.777 655.54 448.543 638.697 441.422 C 583.431 420.008 526.995 392.197 489.625 344.615 C 479.348 331.541 474.164 321.061 465.841 307.301 C 461.744 329.128 456.14 355.25 448.241 375.778 C 414.08 464.557 347.329 543.841 269.238 597.191 C 256.323 605.99 242.889 614.005 229.011 621.19 C 229.203 649.61 231.089 677.788 239.043 705.274 C 224.43 700.744 215.955 699.507 200.457 702.924 C 162.106 630.863 155.967 565.795 176.024 486.536 C 146.679 491.974 136.37 505.607 116.728 528.76 C 103.923 543.854 72.1336 562.61 68.1007 527 C 66.4013 511.994 96.2711 486.186 108.447 475.463 C 90.7509 481.76 70.502 490.839 51.22 489.404 C 26.4633 487.561 23.5798 459.341 42.4266 447.978 C 64.9601 434.393 100.004 434.264 125.577 438.944 C 112.811 429.444 77.2895 414.022 76.4962 400.808 C 74.4652 366.974 110.954 381.443 124.08 391.32 C 152.707 412.86 174.19 438.341 181.126 473.06 C 182.74 468.714 184.395 464.382 186.089 460.066 C 214.145 388.982 276.786 329.139 346.476 299.053 C 405.203 274.188 470.466 269.278 532.251 285.078 C 549.199 289.47 562.224 294.683 578.378 301.097 z" fill="rgb(48,30,12)" transform="translate(0,0)"></path>
<path d="M 652.19 262.715 C 656.787 265.217 661.335 262.818 668.542 264.691 C 666.15 264.886 649.129 265.634 648.541 264.532 C 649.314 263.526 650.987 263.111 652.19 262.715 z" fill="rgb(240,234,233)" transform="translate(0,0)"></path>
<path d="M 617.683 235.055 L 621.513 234.524 C 618.999 237.734 616.692 240.794 614.067 243.931 C 615.39 240.833 616.183 238.178 617.683 235.055 z" fill="rgb(240,234,233)" transform="translate(0,0)"></path>
<path d="M 818.437 582.282 C 843.013 630.359 884.513 672.012 932.509 696.963 C 945.466 703.7 960.458 707.194 972.319 713.197 L 971.95 728.321 C 970.903 750.479 967.123 763.369 952.811 780.354 C 942.65 782.928 882.54 798.578 877.411 797.831 C 873.955 797.018 873.687 796.784 870.587 798.11 C 869.851 798.959 868.587 800.273 868.106 801.197 C 865.507 806.619 862.058 806.519 856.571 808.545 C 791.167 832.685 711.713 863.548 653.787 902.733 C 651.394 897.723 649.2 892.879 646.236 888.164 C 640.8 875.945 638.753 869.022 635.663 856.085 C 637.323 853.794 656.684 841.691 660.719 838.648 C 720.037 793.897 753.514 722.449 762.041 650.429 C 801.334 649.004 819.01 618.97 818.437 582.282 z" fill="rgb(255,255,255)" transform="translate(0,0)"></path>
<path d="M 741.6 512.967 C 750.192 517.311 758.843 521.536 767.552 525.64 C 758.845 526.605 752.744 526.84 744.138 528.85 C 743.317 523.628 742.372 518.172 741.6 512.967 z" fill="rgb(255,255,255)" transform="translate(0,0)"></path>
<path d="M 914.966 513.416 C 919.047 513.937 923.961 515.195 928.05 516.128 C 936.935 516.38 955.312 521.807 965.277 523.634 C 995.467 529.171 1024.16 533.407 1054.44 536.059 C 1064.46 536.937 1124.25 538.235 1127.1 539.338 C 1130.8 537.491 1137.78 537.881 1142.17 537.862 C 1141.68 568.856 1131.38 595.974 1108.92 617.762 C 1101.84 624.526 1094.12 630.578 1085.86 635.829 C 1072.58 642.843 1058.77 647.71 1043.81 649.497 C 1012.97 653.277 981.884 644.708 957.335 625.66 C 922.983 593.999 907.184 560.728 914.966 513.416 z" fill="rgb(18,12,11)" transform="translate(0,0)"></path>
<path d="M 928.05 516.128 C 936.935 516.38 955.312 521.807 965.277 523.634 C 995.467 529.171 1024.16 533.407 1054.44 536.059 C 1064.46 536.937 1124.25 538.235 1127.1 539.338 C 1091.91 582.055 1020.34 580.467 974.15 559.23 C 951.598 548.86 940.2 536.961 928.05 516.128 z" fill="rgb(255,255,255)" transform="translate(0,0)"></path>
<path d="M 957.335 625.66 C 993.012 586.495 1044.54 587.102 1079.49 626.972 C 1081.84 629.643 1083.69 633.324 1085.86 635.829 C 1072.58 642.843 1058.77 647.71 1043.81 649.497 C 1012.97 653.277 981.884 644.708 957.335 625.66 z" fill="rgb(182,79,65)" transform="translate(0,0)"></path>
<path d="M 628.822 673.913 C 630.96 670.296 637.565 668.584 641.837 666.998 C 650.712 710.545 647.057 745.864 618.206 781.372 C 583.372 817.402 536.327 827.58 490.294 806.736 C 485.799 804.646 481.443 802.269 477.253 799.621 C 449.788 782.433 433.851 756.926 426.762 725.924 C 430.863 725.212 434.755 724.4 438.914 724.242 C 442.917 722.213 451.088 720.128 455.56 719.194 C 504.021 709.075 551.923 696.309 599.145 681.468 C 604.835 679.679 624.146 671.989 628.822 673.913 z" fill="rgb(18,12,11)" transform="translate(0,0)"></path>
<path d="M 438.914 724.242 C 442.917 722.213 451.088 720.128 455.56 719.194 C 504.021 709.075 551.923 696.309 599.145 681.468 C 604.835 679.679 624.146 671.989 628.822 673.913 C 612.614 708.11 582.644 724.688 548.415 736.908 C 511.116 750.223 468.84 755.831 438.914 724.242 z" fill="rgb(255,255,255)" transform="translate(0,0)"></path>
<path d="M 490.294 806.736 C 491.876 805.491 494.528 802.062 495.906 800.287 C 512.017 779.541 536.386 767.694 562.552 765.405 C 584.187 763.512 600.02 770.223 618.206 781.372 C 583.372 817.402 536.327 827.58 490.294 806.736 z" fill="rgb(182,79,65)" transform="translate(0,0)"></path>
<path d="M 853.023 449.137 C 873.808 447.156 899.241 454.022 905.819 476.423 C 907.823 483.037 907.046 490.181 903.667 496.21 C 897.895 506.517 886.777 511.77 875.885 514.802 C 855.011 518.699 826.933 511.144 820.818 488.307 C 818.913 481.227 819.926 473.679 823.631 467.352 C 829.975 456.452 841.614 452.258 853.023 449.137 z" fill="rgb(229,122,57)" transform="translate(0,0)"></path>
<path d="M 1190.27 485.142 C 1211.1 483.954 1236.96 490.046 1242.12 513.705 C 1243.62 520.665 1242.28 527.938 1238.38 533.897 C 1231.61 544.445 1219.97 549.342 1208.22 551.902 C 1187.33 554.034 1163.18 546.658 1157.43 523.991 C 1155.56 516.801 1156.77 509.157 1160.75 502.889 C 1167.26 492.559 1178.79 487.617 1190.27 485.142 z" fill="rgb(229,122,57)" transform="translate(0,0)"></path>
<path d="M 359.156 687.201 C 417.367 683.54 418.251 747.266 364.127 755.689 C 310.401 760.173 301.498 698.938 359.156 687.201 z" fill="rgb(229,122,57)" transform="translate(0,0)"></path>
<path d="M 682.233 586.254 C 734.729 582.3 744.393 645.906 684.749 654.583 C 631.762 658.755 623.839 595.641 682.233 586.254 z" fill="rgb(229,122,57)" transform="translate(0,0)"></path>
<path d="M 621.578 517.383 C 641.714 518.274 657.885 529.34 670.261 544.766 C 673.744 549.108 673.432 555.536 668.212 558.359 C 656.693 557.361 638.669 518.834 609.275 533.934 L 608.334 534.423 C 590.701 547.084 591.322 556.87 588.255 575.909 C 587.653 579.648 583.465 583.967 578.642 581.49 C 576.864 579.07 574.951 574.239 575.084 571.206 C 576.367 541.826 592.467 520.522 621.578 517.383 z" fill="rgb(48,30,12)" transform="translate(0,0)"></path>
<path d="M 376.073 597.341 C 393.181 596.885 411.784 606.213 422.441 619.388 C 425.227 622.832 427.712 630.888 422.826 633.79 C 408.232 632.2 393.641 596.956 361.909 614.875 L 360.845 615.481 C 346.804 627.545 345.812 637.697 343.798 655.433 C 343.363 659.27 341.695 659.895 339.024 661.802 C 323.234 662.632 327.577 602.777 376.073 597.341 z" fill="rgb(48,30,12)" transform="translate(0,0)"></path>
<path d="M 904.972 368.317 C 906.381 368.274 907.79 368.291 909.198 368.369 C 921.872 369.114 933.534 375.336 941.744 384.945 C 948.678 393.06 962.241 415.989 951.62 425.172 C 948.73 425.283 945.263 424.687 944.174 421.647 C 938.029 404.495 936.704 394.984 920.466 384.412 C 884.116 368.118 878.117 413.738 864.089 414.553 C 862.562 413.59 861.291 412.329 861.236 410.366 C 860.601 387.592 885.66 371.239 904.972 368.317 z" fill="rgb(48,30,12)" transform="translate(0,0)"></path>
<path d="M 1155.88 396.244 C 1159.56 396.032 1163.76 395.981 1167.38 396.597 C 1180.15 398.768 1191.5 405.979 1198.89 416.607 C 1204.4 424.435 1213.91 445.589 1203.41 452.837 C 1192.8 452.129 1195.35 435.817 1189.31 426.532 C 1184.51 419.169 1184.64 419.298 1177.36 413.42 C 1137.76 393.99 1132.5 441.107 1117.67 439.696 C 1107.92 431.527 1124.94 412.877 1131.45 407.661 C 1139.42 401.281 1146.18 398.463 1155.88 396.244 z" fill="rgb(48,30,12)" transform="translate(0,0)"></path>
<path d="M 513.878 588.295 C 523.634 589.247 523.566 599.072 530.017 603.342 C 546.532 614.273 553.703 612.773 559.271 633.098 C 554.647 654.209 542.113 660.888 522.424 666.491 C 519.149 666.151 517.249 665.131 514.71 663.199 C 513.324 653.412 544.218 652.237 547.509 639.572 C 553.265 617.414 502.657 611.13 513.878 588.295 z" fill="rgb(184,128,105)" transform="translate(0,0)"></path>
<path d="M 1019.42 416.481 C 1022.96 416.505 1024.31 417.494 1026.16 420.075 C 1026.84 434.259 1001.54 446.67 993.107 457.557 C 988.641 480.056 1015.86 478.117 1021.08 486.982 C 1021.09 491.06 1021.24 489.579 1018.66 493.805 C 1003.15 492.336 985.585 483.247 982.448 466.301 C 978.827 446.745 998.043 440.757 1009.25 429.283 C 1013.17 425.268 1016.04 421.173 1019.42 416.481 z" fill="rgb(184,128,105)" transform="translate(0,0)"></path>
<path d="M 207.263 737.059 C 218.118 736.541 224.821 739.585 233.843 745.781 C 241.012 750.705 269.222 776.28 262.723 785.215 C 255.024 787.97 251.349 779.128 247.701 773.499 C 241.229 764.738 228.227 750.791 217.329 748.399 C 205.554 745.815 202.093 755.612 194.443 760.385 C 191.348 760.691 191.256 760.626 188.431 759.124 C 184.392 751.019 200.409 739.917 207.263 737.059 z" fill="rgb(184,128,105)" transform="translate(0,0)"></path>
<path d="M 746.52 439.154 C 765.716 438.863 774.033 452.512 782.07 468.06 C 783.573 470.975 793.352 492.96 790.67 495.806 C 782.114 504.887 780.233 490.565 779.801 488.947 C 775.397 475.51 759.044 434.985 739.371 453.581 C 733.849 458.801 722.664 446.87 746.52 439.154 z" fill="rgb(184,128,105)" transform="translate(0,0)"></path>
<path d="M 777.372 550.144 C 781.229 550.405 800.858 553.753 795.123 563.1 C 792.255 567.775 785.583 560.511 780.007 561.326 C 764.098 563.65 766.798 590.049 768.876 601.769 C 770.451 617.84 760.822 612.841 760.005 609.014 C 755.745 589.086 752.466 557.454 777.372 550.144 z" fill="rgb(184,128,105)" transform="translate(0,0)"></path>
<path d="M 781.562 528.468 C 794.264 528.171 793.965 525.553 798.006 535.548 C 794.41 534.114 793.728 533.087 790.479 531.553 C 787.621 530.204 784.602 529.868 781.562 528.468 z" fill="rgb(240,234,233)" transform="translate(0,0)"></path>
<path d="M 972.319 713.197 C 1015.57 726.665 1061.13 728.244 1104.74 716.787 C 1108.05 715.916 1112.83 714.429 1116.1 713.931 C 1115.92 722.052 1115.57 731.202 1116.58 739.231 C 1118.08 742.994 1118.13 751.024 1120.29 756.822 C 1122.98 764.05 1127.82 779.765 1136.79 781.287 C 1148.04 783.455 1159.26 785.818 1170.43 788.377 C 1176.5 789.83 1206.84 798.062 1211.24 797.833 C 1216.78 799.071 1218.01 800.166 1220.39 805.298 C 1238.71 810.225 1255.77 817.85 1273.38 824.446 C 1327.31 844.638 1376.23 869.906 1427.66 895.62 C 1430.41 886.987 1432.99 874.968 1434.38 866.037 C 1435.23 862.332 1435.63 859.08 1436.13 855.323 C 1436.53 853.087 1436.81 849.722 1438.03 848.121 C 1489.23 872.462 1511.93 878.769 1570.21 878.18 C 1569.2 889.812 1567.66 906.812 1570.37 918.147 C 1572.54 924.623 1576.06 933.183 1583.61 934.513 C 1590.84 936.245 1597.92 940.35 1604.66 943.706 C 1613.23 932.053 1624.75 921.213 1640.07 919.973 C 1690.82 915.861 1743.73 960.845 1751.15 1010.62 C 1753.42 1025.86 1747.19 1050.3 1738.15 1062.96 C 1743.91 1073.08 1748.9 1085.97 1753.5 1096.82 C 1772.83 1142.37 1793.32 1188.97 1808.69 1235.98 C 1784.45 1245.68 1752.72 1256.51 1726.98 1262.61 C 1681.48 1274.37 1598.12 1289.96 1550.62 1290.04 L 1548.03 1290.41 C 1543.59 1289.97 1522.72 1291.03 1516.97 1291.15 C 1500.3 1291.47 1483.62 1291.19 1466.97 1290.33 C 1393.12 1286.84 1319.95 1274.53 1249.02 1253.67 C 1206.22 1263.32 1171.43 1269.46 1127.37 1273.23 C 1104.32 1276.46 1074.65 1277.08 1051.3 1277.1 C 992.393 1277.59 933.567 1272.67 875.564 1262.39 C 867.784 1261.09 839.615 1256.24 833.865 1253.19 L 835.364 1251.56 C 838.808 1241.58 818.788 1109.06 814.6 1091.32 C 809.028 1072.85 806.365 1065.23 798.873 1047.41 C 775.11 998.898 747.954 974.153 702.934 946.939 C 701.482 946.518 691.344 942.015 688.836 941.027 C 678.304 936.526 655.804 914.064 653.787 902.733 C 711.713 863.548 791.167 832.685 856.571 808.545 C 862.058 806.519 865.507 806.619 868.106 801.197 C 868.587 800.273 869.851 798.959 870.587 798.11 C 873.687 796.784 873.955 797.018 877.411 797.831 C 882.54 798.578 942.65 782.928 952.811 780.354 C 967.123 763.369 970.903 750.479 971.95 728.321 L 972.319 713.197 z" fill="rgb(235,103,100)" transform="translate(0,0)"></path>
<path d="M 1436.13 855.323 C 1436.53 853.087 1436.81 849.722 1438.03 848.121 C 1489.23 872.462 1511.93 878.769 1570.21 878.18 C 1569.2 889.812 1567.66 906.812 1570.37 918.147 C 1572.54 924.623 1576.06 933.183 1583.61 934.513 C 1590.84 936.245 1597.92 940.35 1604.66 943.706 C 1613.23 932.053 1624.75 921.213 1640.07 919.973 C 1690.82 915.861 1743.73 960.845 1751.15 1010.62 C 1753.42 1025.86 1747.19 1050.3 1738.15 1062.96 C 1743.91 1073.08 1748.9 1085.97 1753.5 1096.82 C 1772.83 1142.37 1793.32 1188.97 1808.69 1235.98 C 1784.45 1245.68 1752.72 1256.51 1726.98 1262.61 C 1681.48 1274.37 1598.12 1289.96 1550.62 1290.04 L 1548.03 1290.41 C 1543.59 1289.97 1522.72 1291.03 1516.97 1291.15 C 1500.3 1291.47 1483.62 1291.19 1466.97 1290.33 C 1393.12 1286.84 1319.95 1274.53 1249.02 1253.67 C 1246.2 1252.77 1244.62 1252.57 1242.58 1250.56 C 1243.22 1235.23 1248.12 1212.54 1250.72 1196.89 C 1256.28 1163.38 1264.57 1128.96 1270.13 1095.58 L 1271.84 1086.25 C 1276.02 1071.9 1279.67 1061.56 1285.06 1047.77 C 1299.34 1018.59 1305.61 1008.93 1326.69 984.492 C 1346.58 964.919 1363.44 953.775 1387.53 940.452 C 1388.17 940.223 1388.8 939.979 1389.42 939.721 C 1410.4 931.221 1419.49 915.015 1427.66 895.62 C 1430.41 886.987 1432.99 874.968 1434.38 866.037 C 1435.23 862.332 1435.63 859.08 1436.13 855.323 z" fill="rgb(2,145,132)" transform="translate(0,0)"></path>
<path d="M 1604.66 943.706 C 1613.23 932.053 1624.75 921.213 1640.07 919.973 C 1690.82 915.861 1743.73 960.845 1751.15 1010.62 C 1753.42 1025.86 1747.19 1050.3 1738.15 1062.96 C 1725.64 1082.11 1709.61 1123.57 1682.86 1097.3 C 1680.54 1096.13 1678.26 1095.15 1675.9 1093.94 C 1663.09 1111.4 1641.88 1125.8 1631.29 1096.71 C 1629.65 1094.75 1626.94 1094.48 1624.35 1093.83 C 1609.66 1095.3 1599.53 1085.74 1602.66 1070.81 C 1600.81 1069.65 1597.89 1068.96 1595.72 1068.32 C 1570.98 1058.45 1597.38 1027.1 1606.17 1013.3 C 1603.33 1010.07 1603.58 1009.96 1599.86 1007.32 C 1594.17 1003.43 1593.14 1001.04 1590.67 995.007 C 1591.27 979.557 1597.81 957.505 1604.66 943.706 z" fill="rgb(184,128,105)" transform="translate(0,0)"></path>
<path d="M 1595.72 1068.32 C 1601.17 1060.11 1653.3 1003.27 1661.09 997.515 C 1664.27 997.387 1663.01 996.963 1665.65 999.308 C 1666.12 1006.29 1656.98 1013.96 1651.94 1018.26 C 1643.87 1025.14 1608.93 1068.98 1602.66 1070.81 C 1600.81 1069.65 1597.89 1068.96 1595.72 1068.32 z" fill="rgb(120,74,55)" transform="translate(0,0)"></path>
<path d="M 1624.35 1093.83 C 1632.14 1083.96 1685.07 1023.94 1692.21 1021.59 L 1694.26 1022.17 C 1695.42 1025.41 1695.38 1024.08 1694.84 1027.42 C 1682.33 1042.44 1667.53 1057.5 1654.58 1072.39 C 1650.37 1077.23 1635.72 1093.38 1631.29 1096.71 C 1629.65 1094.75 1626.94 1094.48 1624.35 1093.83 z" fill="rgb(120,74,55)" transform="translate(0,0)"></path>
<path d="M 1675.9 1093.94 C 1676.26 1093.3 1676.6 1092.66 1676.96 1092.02 C 1680.19 1086.22 1714.12 1046.09 1718.49 1045.11 C 1719.73 1044.83 1721.09 1045.19 1722.08 1045.96 C 1722.92 1046.61 1723.57 1047.42 1723.72 1048.5 C 1724.07 1051.01 1721.02 1054.2 1719.49 1055.95 C 1707.36 1069.83 1694.76 1083.2 1682.86 1097.3 C 1680.54 1096.13 1678.26 1095.15 1675.9 1093.94 z" fill="rgb(120,74,55)" transform="translate(0,0)"></path>
<path d="M 1599.86 1007.32 C 1604.4 1000.27 1630.79 956.696 1635.31 955.433 C 1636.17 955.192 1636.74 955.507 1637.45 955.987 C 1638.64 956.793 1639.77 958.018 1639.99 959.488 C 1640.58 963.376 1611.94 1005.07 1607.4 1011.73 C 1607.02 1012.29 1606.6 1012.78 1606.17 1013.3 C 1603.33 1010.07 1603.58 1009.96 1599.86 1007.32 z" fill="rgb(120,74,55)" transform="translate(0,0)"></path>
<path d="M 1436.13 855.323 C 1436.53 853.087 1436.81 849.722 1438.03 848.121 C 1489.23 872.462 1511.93 878.769 1570.21 878.18 C 1569.2 889.812 1567.66 906.812 1570.37 918.147 C 1572.54 924.623 1576.06 933.183 1583.61 934.513 C 1574.62 961.164 1544.27 982.352 1518.86 992.284 C 1472 1010.59 1398.91 996.976 1387.53 940.452 C 1388.17 940.223 1388.8 939.979 1389.42 939.721 C 1410.4 931.221 1419.49 915.015 1427.66 895.62 C 1430.41 886.987 1432.99 874.968 1434.38 866.037 C 1435.23 862.332 1435.63 859.08 1436.13 855.323 z" fill="rgb(184,128,105)" transform="translate(0,0)"></path>
<path d="M 1436.13 855.323 C 1436.53 853.087 1436.81 849.722 1438.03 848.121 C 1489.23 872.462 1511.93 878.769 1570.21 878.18 C 1569.2 889.812 1567.66 906.812 1570.37 918.147 C 1511.37 918.341 1478.15 904.722 1434.38 866.037 C 1435.23 862.332 1435.63 859.08 1436.13 855.323 z" fill="rgb(18,12,11)" transform="translate(0,0)"></path>
<path d="M 1556.1 1285.85 C 1604.05 1267.91 1637.45 1244.97 1635.22 1187.6 C 1634.94 1180.36 1630.98 1161.91 1637.61 1158.14 C 1644.42 1161.17 1648.11 1182.69 1650.18 1189.82 C 1657.65 1215.54 1672.49 1246.7 1699.65 1255.84 C 1707.4 1258.45 1720.34 1258.91 1726.98 1262.61 C 1681.48 1274.37 1598.12 1289.96 1550.62 1290.04 L 1548.03 1290.41 C 1551.29 1287.4 1552.03 1287.21 1556.1 1285.85 z" fill="rgb(2,116,104)" transform="translate(0,0)"></path>
<path d="M 972.319 713.197 C 1015.57 726.665 1061.13 728.244 1104.74 716.787 C 1108.05 715.916 1112.83 714.429 1116.1 713.931 C 1115.92 722.052 1115.57 731.202 1116.58 739.231 C 1118.08 742.994 1118.13 751.024 1120.29 756.822 C 1122.98 764.05 1127.82 779.765 1136.79 781.287 C 1148.04 783.455 1159.26 785.818 1170.43 788.377 C 1176.5 789.83 1206.84 798.062 1211.24 797.833 C 1205.17 802.256 1203.47 812.52 1201.53 819.708 C 1191.6 856.884 1166.13 889.255 1127.7 899.848 C 1083.15 912.127 1054.12 882.83 1042.12 843.085 C 1025.12 888.889 987.247 918.787 938.846 891.955 C 913.084 877.539 893.705 853.939 884.575 825.866 C 881.378 816.094 880.159 807.501 877.411 797.831 C 882.54 798.578 942.65 782.928 952.811 780.354 C 967.123 763.369 970.903 750.479 971.95 728.321 L 972.319 713.197 z" fill="rgb(235,103,100)" transform="translate(0,0)"></path>
<path d="M 972.319 713.197 C 1015.57 726.665 1061.13 728.244 1104.74 716.787 C 1108.05 715.916 1112.83 714.429 1116.1 713.931 C 1115.92 722.052 1115.57 731.202 1116.58 739.231 C 1118.08 742.994 1118.13 751.024 1120.29 756.822 C 1122.98 764.05 1127.82 779.765 1136.79 781.287 C 1133.3 781.68 1130.02 790.219 1128.2 793.537 C 1105.22 835 1053.95 855.261 1009.41 836.797 C 978.11 823.82 966.103 810.511 952.811 780.354 C 967.123 763.369 970.903 750.479 971.95 728.321 L 972.319 713.197 z" fill="rgb(231,202,189)" transform="translate(0,0)"></path>
<path d="M 972.319 713.197 C 1015.57 726.665 1061.13 728.244 1104.74 716.787 C 1108.05 715.916 1112.83 714.429 1116.1 713.931 C 1115.92 722.052 1115.57 731.202 1116.58 739.231 L 1116.11 741.45 C 1109.26 748.665 1088.74 755.474 1079.07 756.92 C 1035.86 763.381 1006.2 751.821 971.95 728.321 L 972.319 713.197 z" fill="rgb(18,12,11)" transform="translate(0,0)"></path>
<path d="M 868.106 801.197 C 868.587 800.273 869.851 798.959 870.587 798.11 C 873.687 796.784 873.955 797.018 877.411 797.831 C 880.159 807.501 881.378 816.094 884.575 825.866 C 893.705 853.939 913.084 877.539 938.846 891.955 C 987.247 918.787 1025.12 888.889 1042.12 843.085 C 1054.12 882.83 1083.15 912.127 1127.7 899.848 C 1166.13 889.255 1191.6 856.884 1201.53 819.708 C 1203.47 812.52 1205.17 802.256 1211.24 797.833 C 1216.78 799.071 1218.01 800.166 1220.39 805.298 C 1219.2 811.599 1217.72 817.841 1215.95 824.006 C 1194.07 898.473 1093.82 980.314 1041.42 881.923 C 1036.69 892.559 1026.06 908.028 1016.83 914.317 C 957.606 954.684 891.7 882.501 873.548 830.182 C 870.444 821.236 866.748 810.251 868.106 801.197 z" fill="rgb(182,79,65)" transform="translate(0,0)"></path>
<path d="M 702.934 946.939 C 716.521 947.361 798.816 981.175 818.565 987.309 C 817.061 996.175 808.858 1037.13 810.395 1042.42 C 807.619 1043.43 801.708 1046.15 798.873 1047.41 C 775.11 998.898 747.954 974.153 702.934 946.939 z" fill="rgb(216,76,42)" transform="translate(0,0)"></path>
<path d="M 1266.58 970.685 C 1274.94 981.483 1278.31 984.789 1291.92 987.666 C 1302.46 989.893 1320.5 984.161 1326.69 984.492 C 1305.61 1008.93 1299.34 1018.59 1285.06 1047.77 C 1281.62 1046.21 1277.71 1044.5 1274.46 1042.65 C 1275.34 1036.92 1266.75 984.955 1266.58 970.685 z" fill="rgb(216,76,42)" transform="translate(0,0)"></path>
<path d="M 1267.74 1039.38 C 1262.88 1037.42 1263.13 1031.73 1262.35 1026.72 C 1258.88 1004.26 1255.78 981.734 1252.76 959.201 C 1252.83 954.461 1249.74 948.206 1255.75 946.292 C 1264.94 943.366 1265.57 963.982 1266.58 970.685 C 1266.75 984.955 1275.34 1036.92 1274.46 1042.65 C 1272.25 1041.51 1270.01 1040.42 1267.74 1039.38 z" fill="rgb(182,79,65)" transform="translate(0,0)"></path>
<path d="M 818.565 987.309 C 819.706 979.862 823.393 947.335 827.223 943.821 C 830.584 942.956 829.164 942.888 832.607 944.31 C 833.79 946.292 834.625 947.081 834.32 949.723 C 831.054 978.033 826.792 1006.84 821.083 1034.76 C 820.596 1037.14 819.704 1038.03 817.965 1039.07 C 815.402 1040.29 812.962 1041.27 810.395 1042.42 C 808.858 1037.13 817.061 996.175 818.565 987.309 z" fill="rgb(182,79,65)" transform="translate(0,0)"></path>
<path d="M 1127.37 1273.23 C 1124.39 1273.03 1123.63 1272.97 1120.77 1272.24 C 1134.06 1271.28 1234.17 1259.23 1240.48 1252.56 C 1242.49 1236.13 1263.28 1116.03 1263.55 1116.56 C 1261.75 1119.82 1261.11 1122.83 1260.08 1126.4 C 1246.05 1175.19 1223.27 1223.16 1177.19 1248.98 C 1165.57 1255.5 1138.57 1269.63 1125.6 1269.58 C 1208.18 1241.67 1233.55 1206.33 1260.04 1122.92 C 1262.07 1116.52 1265.5 1099.64 1270.13 1095.58 C 1264.57 1128.96 1256.28 1163.38 1250.72 1196.89 C 1248.12 1212.54 1243.22 1235.23 1242.58 1250.56 C 1244.62 1252.57 1246.2 1252.77 1249.02 1253.67 C 1206.22 1263.32 1171.43 1269.46 1127.37 1273.23 z" fill="rgb(216,76,42)" transform="translate(0,0)"></path>
<path d="M 817.965 1039.07 C 818.54 1041.03 815.404 1087.56 814.6 1091.32 C 809.028 1072.85 806.365 1065.23 798.873 1047.41 C 801.708 1046.15 807.619 1043.43 810.395 1042.42 C 812.962 1041.27 815.402 1040.29 817.965 1039.07 z" fill="rgb(255,255,255)" transform="translate(0,0)"></path>
<path d="M 1267.74 1039.38 C 1270.01 1040.42 1272.25 1041.51 1274.46 1042.65 C 1277.71 1044.5 1281.62 1046.21 1285.06 1047.77 C 1279.67 1061.56 1276.02 1071.9 1271.84 1086.25 C 1270.03 1076.2 1268.27 1050.09 1267.74 1039.38 z" fill="rgb(255,255,255)" transform="translate(0,0)"></path>
<path d="M 504.911 890.195 C 540.8 889.52 573.696 883.97 606.973 870.188 C 616.663 866.175 626.046 859.792 635.663 856.085 C 638.753 869.022 640.8 875.945 646.236 888.164 C 649.2 892.879 651.394 897.723 653.787 902.733 C 655.804 914.064 678.304 936.526 688.836 941.027 C 691.344 942.015 701.482 946.518 702.934 946.939 C 747.954 974.153 775.11 998.898 798.873 1047.41 C 806.365 1065.23 809.028 1072.85 814.6 1091.32 C 818.788 1109.06 838.808 1241.58 835.364 1251.56 L 833.865 1253.19 C 826.586 1253.66 808.411 1259.4 800.364 1261.62 C 788.422 1264.85 776.386 1267.73 764.271 1270.24 C 698.397 1283.65 631.383 1290.67 564.16 1291.21 C 559.052 1291.24 538.873 1291.31 535.309 1290.21 C 520.651 1290.35 497.599 1287.79 482.807 1286.09 C 432.606 1280.56 382.912 1271.13 334.174 1257.88 C 310.737 1250.85 290.161 1244.71 267.272 1235.93 C 276.973 1214.94 286.396 1189.42 295.389 1167.64 C 309.642 1133.9 324.275 1100.32 339.285 1066.91 C 329.082 1046.87 324.274 1030.36 329.752 1006.45 C 340.404 959.961 396.846 918.227 445.012 927.28 C 458.819 929.875 470.454 945.017 477.283 956.935 C 482.282 953.701 486.273 950.831 491.035 947.249 C 492.461 946.256 493.872 945.242 495.268 944.207 C 506.556 935.8 507.36 927.812 509.303 914.86 C 508.055 906.231 506.657 898.743 504.911 890.195 z" fill="rgb(250,186,3)" transform="translate(0,0)"></path>
<path d="M 339.285 1066.91 C 329.082 1046.87 324.274 1030.36 329.752 1006.45 C 340.404 959.961 396.846 918.227 445.012 927.28 C 458.819 929.875 470.454 945.017 477.283 956.935 C 481.692 968.346 491.56 993.96 487.357 1005.87 C 486.432 1008.5 482.653 1011.99 480.388 1013.82 C 477.967 1015.3 475.313 1016.58 472.781 1017.87 C 481.623 1029.44 509.805 1064.61 486.447 1073.77 C 485.542 1073.38 484.962 1073.27 484.309 1072.66 C 480.475 1073.17 480.082 1073.4 477.148 1075.94 C 481.51 1093.12 462.739 1105.52 453.551 1096.61 C 451.274 1098.78 449.151 1100.78 447.001 1103.08 C 443.875 1112.95 438.378 1122.25 425.765 1119.69 C 414.708 1117.45 409.145 1107.56 403.672 1098.62 C 401.977 1101.06 400.31 1103.16 398.572 1105.54 C 397.576 1108.43 391.001 1116.09 388.401 1117.11 C 368.071 1125.16 347.413 1080.66 339.285 1066.91 z" fill="rgb(231,202,189)" transform="translate(0,0)"></path>
<path d="M 447.001 1103.08 C 436.448 1089.04 418.275 1071.66 406.322 1058.1 C 399.299 1050.14 390.28 1043.29 384.453 1033.88 C 384.816 1030.12 384.246 1031.49 386.487 1028.61 C 395.362 1028.03 417.294 1057.2 424.787 1064.41 C 430.275 1069.7 451.585 1091.32 453.551 1096.61 C 451.274 1098.78 449.151 1100.78 447.001 1103.08 z" fill="rgb(184,128,105)" transform="translate(0,0)"></path>
<path d="M 477.148 1075.94 C 458.247 1055.91 439.713 1035.43 420.548 1015.63 C 417.414 1012.39 414.44 1008.86 415.03 1004.28 C 416.828 1003.08 417.15 1002.76 419.291 1003.07 C 425.928 1004.03 477.824 1064.11 484.309 1072.66 C 480.475 1073.17 480.082 1073.4 477.148 1075.94 z" fill="rgb(184,128,105)" transform="translate(0,0)"></path>
<path d="M 472.781 1017.87 C 468.735 1012.62 438.705 967.93 438.799 965.001 C 438.843 963.614 439.444 962.421 440.555 961.576 C 441.696 960.708 444.015 960.1 445.396 960.429 C 449.212 961.338 476.309 1007.59 480.388 1013.82 C 477.967 1015.3 475.313 1016.58 472.781 1017.87 z" fill="rgb(184,128,105)" transform="translate(0,0)"></path>
<path d="M 398.572 1105.54 C 384.19 1090.97 371.485 1074.58 357.463 1059.7 C 350.607 1056.8 358.467 1048.99 361.055 1051.25 C 368.356 1057.63 399.211 1092.68 403.672 1098.62 C 401.977 1101.06 400.31 1103.16 398.572 1105.54 z" fill="rgb(184,128,105)" transform="translate(0,0)"></path>
<path d="M 504.911 890.195 C 540.8 889.52 573.696 883.97 606.973 870.188 C 616.663 866.175 626.046 859.792 635.663 856.085 C 638.753 869.022 640.8 875.945 646.236 888.164 C 649.2 892.879 651.394 897.723 653.787 902.733 C 655.804 914.064 678.304 936.526 688.836 941.027 C 680.586 967.441 668.694 978.95 644.763 991.812 C 588.598 1022 518.224 1009.88 491.035 947.249 C 492.461 946.256 493.872 945.242 495.268 944.207 C 506.556 935.8 507.36 927.812 509.303 914.86 C 508.055 906.231 506.657 898.743 504.911 890.195 z" fill="rgb(231,202,189)" transform="translate(0,0)"></path>
<path d="M 504.911 890.195 C 540.8 889.52 573.696 883.97 606.973 870.188 C 616.663 866.175 626.046 859.792 635.663 856.085 C 638.753 869.022 640.8 875.945 646.236 888.164 C 634.775 893.008 622.718 899.212 611.108 903.27 C 585.216 912.321 536.053 922.094 509.303 914.86 C 508.055 906.231 506.657 898.743 504.911 890.195 z" fill="rgb(18,12,11)" transform="translate(0,0)"></path>
<path d="M 334.174 1257.88 C 338.321 1255.13 343.253 1254.99 348.041 1254.64 C 373.349 1252.74 391.997 1250.55 407.336 1228.24 C 421.25 1208.01 425.316 1187.13 433.049 1164.47 C 433.957 1161.81 435.101 1161.02 437.664 1160.78 L 440.069 1162.11 C 441.554 1167.74 438.759 1181.16 438.396 1187.51 C 436.274 1224.56 449.835 1248.14 481.935 1266.08 C 490.606 1270.92 497.256 1274.36 506.402 1278.54 C 513.411 1281.74 530.797 1286.38 535.309 1290.21 C 520.651 1290.35 497.599 1287.79 482.807 1286.09 C 432.606 1280.56 382.912 1271.13 334.174 1257.88 z" fill="rgb(228,157,17)" transform="translate(0,0)"></path>
<path d="M 614.482 1051.16 C 627.392 1047.73 640.622 1055.47 643.966 1068.4 C 647.309 1081.34 639.49 1094.52 626.539 1097.78 C 613.698 1101.02 600.653 1093.28 597.338 1080.46 C 594.023 1067.64 601.681 1054.55 614.482 1051.16 z" fill="rgb(229,122,57)" transform="translate(0,0)"></path>
<path d="M 627.322 1135.52 C 640.311 1132.69 653.136 1140.93 655.96 1153.92 C 658.785 1166.91 650.538 1179.73 637.546 1182.54 C 624.566 1185.35 611.763 1177.12 608.941 1164.14 C 606.119 1151.16 614.347 1138.35 627.322 1135.52 z" fill="rgb(229,122,57)" transform="translate(0,0)"></path>
<metadata><recraft-signature>{"signed_by": "recraft", "signature_b64": "nSlMTh220Nq0iDM9OOQOm9aUcJAj7+JObg590SRb3LREHoUqPlEu5lB7qv+d/H5SA2Ko9M2RUa8W6G6MEZWeDg==", "signing_algo": "Ed25519", "generation_timestamp": 1779103003, "identifier": "ad237e5e-3c9a-4fbb-840e-e8bacc5ad641"}</recraft-signature></metadata></svg>