<svg xmlns="http://www.w3.org/2000/svg" height="768" preserveAspectRatio="none" style="display: block;" version="1.1" viewBox="0 0 2048 1170" width="1344">
<path d="M 0 0 L 2048 0 L 2048 1170 L 0 1170 L 0 0 z" fill="rgb(255,255,255)" transform="translate(0,0)"></path>
<path d="M 1072.43 498.147 C 1079.2 465.327 1087.4 435.322 1109.05 408.694 C 1123.13 391.388 1145.75 381.038 1160.59 404.618 C 1177.31 434.826 1169.97 482.661 1162.15 514.984 C 1160.64 521.408 1158.97 527.796 1157.15 534.14 C 1176.81 537.88 1190.74 539.533 1210.83 536.132 C 1198.95 561.021 1183.86 585.446 1162.91 603.835 C 1174.79 626.215 1180.06 646.212 1182.33 671.682 C 1207.34 674.813 1224.27 688.207 1220.41 715.585 C 1219.05 725.826 1213.54 735.058 1205.18 741.129 C 1197.82 746.465 1191.23 747.95 1182.43 749.572 C 1195.96 755.645 1205.06 762.025 1216.58 771.576 C 1231.99 746.504 1239.33 729.92 1244.14 700.753 C 1241.51 695.979 1238.65 691.058 1236.49 686.074 C 1215.35 684.231 1204.54 670.866 1208.77 649.344 C 1219.44 595.051 1260.75 546.608 1301.48 510.637 C 1326.87 488.216 1377.21 473.97 1371.27 526.901 C 1367.99 556.112 1343.03 594.418 1324.69 618.041 C 1339.82 627.369 1335 632.212 1334.88 646.776 C 1341.86 647.481 1349.75 641.665 1358.12 651.669 C 1361.17 655.314 1361.68 662.286 1360.5 666.586 C 1354.93 686.985 1345.98 717.376 1327.39 729.489 C 1317.64 735.846 1312.69 737.058 1302.34 739.557 C 1295.27 765.496 1284.89 793.701 1272.46 817.408 C 1313.29 872.407 1331.87 925.818 1332.27 994.151 L 1532.39 994.214 C 1544.59 994.214 1611.5 993.289 1619.99 995.78 C 1620.64 1000.27 1621.14 1002.29 1617.48 1004.9 C 1590.58 1006.34 1550 1004.93 1521.84 1004.95 L 1316.02 1004.86 L 654.342 1004.82 L 507.948 1004.93 C 498.359 1004.95 432.799 1006.41 428.548 1003 C 427.318 999.339 427.845 1000.04 429.11 995.673 C 435.744 992.626 690.28 994.115 717.176 994.257 C 717.718 913.01 746.33 841.636 804.436 784.201 C 817.411 771.119 831.65 759.353 846.945 749.078 C 833.837 749.061 823.852 747.59 813.937 737.604 C 806.613 730.168 802.583 720.102 802.751 709.666 C 802.934 700.576 805.712 693.99 810.391 686.347 C 778.671 682.652 753.049 652.522 731.61 627.308 C 714.252 606.894 653.074 519.745 687.289 494.469 C 719.285 470.833 783.814 542.476 798.535 565.362 C 819.033 593.716 838.619 626.641 837.091 661.376 C 836.722 665.189 835.233 667.692 836.313 671.9 L 838.019 672.358 L 839.569 671.105 C 840.028 664.475 840.66 657.63 840.95 651.018 C 842.884 606.882 862.027 567.133 893.539 536.586 C 884.088 503.752 859.706 404.356 907.978 391.097 C 908.796 390.873 909.617 390.656 910.439 390.446 C 949.279 399.946 971.436 458.062 975.386 493.581 C 1009.47 486.506 1039.02 487.126 1072.43 498.147 z" fill="rgb(22,12,7)" transform="translate(0,0)"></path>
<path d="M 430.155 995.92 C 442.094 994.905 463.202 995.592 475.698 995.631 L 562.232 995.859 L 694.898 995.697 C 702.093 995.716 737.628 995.352 742.565 996.775 L 1405.74 996.634 L 1556.52 996.564 C 1565.95 996.57 1613.53 997.193 1619.99 995.78 C 1620.64 1000.27 1621.14 1002.29 1617.48 1004.9 C 1590.58 1006.34 1550 1004.93 1521.84 1004.95 L 1316.02 1004.86 L 654.342 1004.82 L 507.948 1004.93 C 498.359 1004.95 432.799 1006.41 428.548 1003 C 427.318 999.339 427.845 1000.04 429.11 995.673 L 430.155 995.92 z" fill="rgb(230,102,56)" transform="translate(0,0)"></path>
<path d="M 430.155 995.92 C 442.094 994.905 463.202 995.592 475.698 995.631 L 562.232 995.859 L 694.898 995.697 C 702.093 995.716 737.628 995.352 742.565 996.775 C 731.533 997.529 714.378 996.918 702.956 996.862 L 634.87 996.882 C 612.12 996.951 436.376 998.474 430.155 995.92 z" fill="rgb(109,54,24)" transform="translate(0,0)"></path>
<path d="M 842.213 662.718 C 889.221 650.099 914.661 622.395 922.56 574.523 C 927.287 581.185 931.804 585.902 937.352 591.896 C 971.431 624.844 1010.89 645.465 1059.42 644.699 C 1096.94 644.021 1132.97 629.919 1160.98 604.952 L 1164.53 611.806 C 1174.73 632.772 1177.22 651.455 1180.18 674.566 C 1203.16 676.158 1215.19 683.389 1218.5 707.287 C 1219.91 709.425 1219.46 711.178 1218.66 713.524 C 1212.51 741.521 1195.89 747.304 1169.73 745.689 C 1167.06 752.469 1164.43 759.455 1161.18 765.968 C 1091.07 906.532 904.46 893 852.954 745.503 C 842.436 746.397 828.015 747.005 819.776 739.508 C 792.384 714.582 804.562 677.982 841.164 674.773 C 842.496 672.155 842.177 665.997 842.213 662.718 z" fill="rgb(232,176,162)" transform="translate(0,0)"></path>
<path d="M 937.352 591.896 C 971.431 624.844 1010.89 645.465 1059.42 644.699 C 1096.94 644.021 1132.97 629.919 1160.98 604.952 L 1164.53 611.806 C 1162.68 613.187 1159.35 616.478 1157.84 618.186 C 1103.12 679.793 1013.46 669.204 955.621 618.234 C 947.978 611.498 938.075 602.488 937.352 591.896 z" fill="rgb(224,148,133)" transform="translate(0,0)"></path>
<path d="M 1218.5 707.287 C 1219.91 709.425 1219.46 711.178 1218.66 713.524 C 1217.99 710.44 1217.84 710.215 1218.5 707.287 z" fill="rgb(108,77,76)" transform="translate(0,0)"></path>
<path d="M 955.629 761.933 C 994.013 762.446 1032.89 761.751 1071.4 762.1 C 1071.25 780.794 1066.61 791.408 1054.54 805.074 C 1044.3 814.837 1031.18 821.359 1016.98 822.352 C 1001.57 823.478 986.383 818.241 974.947 807.862 C 961.106 795.432 956.461 779.818 955.629 761.933 z" fill="rgb(22,12,7)" transform="translate(0,0)"></path>
<path d="M 958.356 764.882 C 992.518 763.568 1034.24 764.704 1069 764.694 C 1067.06 782.433 1064.22 790.322 1052.08 803.678 C 1042.72 812.323 1031.64 818.157 1018.84 819.473 C 1004.38 820.926 989.939 816.564 978.702 807.35 C 964.558 795.76 960.039 782.246 958.356 764.882 z" fill="rgb(255,255,255)" transform="translate(0,0)"></path>
<path d="M 1109.41 723.741 C 1122.7 721.194 1135.57 729.79 1138.3 743.04 C 1141.04 756.289 1132.63 769.279 1119.42 772.201 C 1110.7 774.128 1101.63 771.214 1095.67 764.576 C 1089.7 757.938 1087.78 748.603 1090.62 740.147 C 1093.47 731.69 1100.65 725.421 1109.41 723.741 z" fill="rgb(22,12,7)" transform="translate(0,0)"></path>
<path d="M 1108.58 726.755 C 1116.34 724.761 1124.57 727.134 1130.07 732.954 C 1135.58 738.774 1137.5 747.124 1135.08 754.762 C 1132.66 762.401 1126.29 768.126 1118.43 769.715 C 1106.72 772.085 1095.25 764.688 1092.57 753.038 C 1089.9 741.388 1097 729.73 1108.58 726.755 z" fill="rgb(224,148,133)" transform="translate(0,0)"></path>
<path d="M 907.599 723.598 C 921.042 721.49 933.659 730.65 935.819 744.086 C 937.978 757.521 928.867 770.173 915.44 772.385 C 901.939 774.608 889.203 765.436 887.032 751.927 C 884.86 738.418 894.081 725.717 907.599 723.598 z" fill="rgb(22,12,7)" transform="translate(0,0)"></path>
<path d="M 905.574 726.804 C 917.201 723.591 929.239 730.377 932.51 741.988 C 935.781 753.598 929.057 765.67 917.463 769.001 C 905.786 772.355 893.608 765.572 890.313 753.877 C 887.018 742.183 893.863 730.04 905.574 726.804 z" fill="rgb(224,148,133)" transform="translate(0,0)"></path>
<path d="M 839.696 688.994 C 841.198 690.28 843.116 712.794 843.915 717.009 C 844.97 722.352 846.211 727.656 847.637 732.913 C 841.153 731.238 838.662 730.498 832.557 728.092 C 819.353 719.703 815.282 705.912 829.007 694.843 C 832.019 692.414 836.254 690.862 839.696 688.994 z" fill="rgb(224,148,133)" transform="translate(0,0)"></path>
<path d="M 1182.18 690.693 C 1205.65 694.957 1209.03 712.551 1191.48 727.928 C 1183.67 731.761 1183.79 731.642 1174.97 733.604 C 1180.08 713.049 1181.55 712.755 1182.18 690.693 z" fill="rgb(224,148,133)" transform="translate(0,0)"></path>
<path d="M 941.816 675.314 C 949.63 673.082 957.792 677.52 960.166 685.292 C 962.54 693.064 958.251 701.305 950.523 703.82 C 945.398 705.488 939.772 704.259 935.808 700.606 C 931.845 696.953 930.163 691.445 931.408 686.201 C 932.654 680.957 936.634 676.794 941.816 675.314 z" fill="rgb(22,12,7)" transform="translate(0,0)"></path>
<path d="M 1075.49 675.654 C 1080.64 674.407 1086.07 676.023 1089.7 679.885 C 1093.33 683.747 1094.6 689.261 1093.04 694.325 C 1091.48 699.389 1087.31 703.223 1082.14 704.366 C 1074.25 706.109 1066.42 701.171 1064.6 693.299 C 1062.78 685.426 1067.64 677.554 1075.49 675.654 z" fill="rgb(22,12,7)" transform="translate(0,0)"></path>
<path d="M 1013.49 677.398 C 1014.18 677.491 1017.49 677.752 1017.79 678.25 C 1026.48 692.344 1027.65 716.731 1009.98 724.712 C 1004.57 727.154 1001.12 727.099 995.903 727.604 C 988.839 724.827 992.228 719.778 996.478 719.856 C 1019.45 720.278 1020.6 698.244 1012.18 682.438 C 1011.33 680.853 1012.79 678.683 1013.49 677.398 z" fill="rgb(230,102,56)" transform="translate(0,0)"></path>
<path d="M 1059.58 869.229 C 1102.42 868.417 1131.4 851.142 1164.81 825.8 C 1180.92 838.488 1200.44 858.627 1209.85 877.007 C 1215.56 887.791 1219.24 897.596 1223.24 909.13 C 1202.93 920.793 1174.15 937.38 1153.23 947.496 C 1153.59 963.228 1153.82 978.963 1153.91 994.7 L 1078.43 994.661 C 1069.02 994.667 1046.48 995.198 1037.71 994.168 C 1025.65 995.139 1001.08 994.318 987.872 994.299 C 955.125 994.118 922.377 994.279 889.634 994.782 C 889.467 981.531 889.662 968.432 891.326 955.243 C 891.994 949.954 896.742 937.592 896.007 935.109 L 894.273 936.214 C 887.369 952.416 887.345 977.411 887.311 994.85 C 867.87 994.883 841.323 995.61 822.135 994.283 C 822.708 990.332 825.094 983.123 826.384 979.226 C 845.367 921.912 897.555 873.246 959.138 868.055 C 962.702 867.845 962.864 867.186 965.109 869.012 C 967.902 885.933 969.213 898.428 984.959 909.938 C 994.757 917.055 1006.98 919.981 1018.94 918.071 C 1031.43 915.971 1042.57 908.99 1049.91 898.667 C 1056.91 888.952 1058.61 880.664 1059.58 869.229 z" fill="rgb(251,175,26)" transform="translate(0,0)"></path>
<path d="M 1209.85 877.007 C 1215.56 887.791 1219.24 897.596 1223.24 909.13 C 1202.93 920.793 1174.15 937.38 1153.23 947.496 C 1153.59 963.228 1153.82 978.963 1153.91 994.7 L 1078.43 994.661 C 1069.02 994.667 1046.48 995.198 1037.71 994.168 C 1048.34 993.039 1069.03 993.635 1080.55 993.671 C 1103.19 974.802 1115.63 949.436 1121.55 921.038 C 1139.26 913.909 1197.05 888.65 1209.85 877.007 z" fill="rgb(241,136,66)" transform="translate(0,0)"></path>
<path d="M 822.135 994.283 C 822.708 990.332 825.094 983.123 826.384 979.226 C 845.367 921.912 897.555 873.246 959.138 868.055 C 956.471 872.522 941.857 876.426 936.132 879 C 883.654 902.601 855.362 940.05 840.404 994.37 C 834.559 994.335 827.913 994.148 822.135 994.283 z" fill="rgb(254,211,156)" transform="translate(0,0)"></path>
<path d="M 842.741 659.825 C 846.773 604.252 865.043 558.306 911.546 524.607 C 961.017 489.395 1025 481.77 1081.36 504.371 C 1118.02 518.928 1132.94 532.858 1176.4 539.741 C 1186.97 541.035 1195.99 540.575 1206.6 539.882 C 1195.98 560.241 1186.69 575.097 1171.22 591.573 C 1122.47 643.483 1047.37 657.742 984.21 623.564 C 973.164 617.587 958.648 608.727 950.001 599.477 C 939.089 591.53 927.262 577.095 920.125 565.708 C 919.384 585.097 916.011 599.335 905.417 616.055 C 891.238 638.457 868.656 654.227 842.741 659.825 z" fill="rgb(135,97,94)" transform="translate(0,0)"></path>
<path d="M 1176.4 539.741 C 1186.97 541.035 1195.99 540.575 1206.6 539.882 C 1195.98 560.241 1186.69 575.097 1171.22 591.573 C 1122.47 643.483 1047.37 657.742 984.21 623.564 C 973.164 617.587 958.648 608.727 950.001 599.477 C 997.398 614.41 1029.42 619.988 1079.3 606.656 C 1113.61 597.485 1158.74 571.489 1176.4 539.741 z" fill="rgb(108,77,76)" transform="translate(0,0)"></path>
<path d="M 850.124 749.911 C 852.488 751.402 858.234 766.653 860.095 770.46 C 867.747 786.109 878.011 800.648 889.902 813.296 C 900.453 824.41 912.442 834.065 925.551 842.003 C 934.708 847.587 962.165 858.983 965.232 862.876 L 964.784 864.426 C 958.413 867.14 946.755 866.237 939.526 868.207 C 882.889 883.645 843.525 924.155 823.926 978.384 L 819.111 994.319 C 785.983 994.208 752.854 994.264 719.727 994.487 C 720.546 892.02 765.455 808.25 850.124 749.911 z" fill="rgb(230,102,56)" transform="translate(0,0)"></path>
<path d="M 1263.26 664.005 C 1267.86 650.511 1273.2 632.313 1278.26 618.98 C 1279.83 616.259 1285.03 612.382 1287.9 612.468 C 1317.62 613.352 1294.47 651.042 1294.95 661.291 L 1296.17 661.686 C 1302.17 655.4 1301.48 631.731 1309.9 624.246 C 1313.09 621.43 1317.31 620.085 1321.54 620.539 C 1345.08 623.244 1326.82 659.04 1324.04 672.394 L 1324.95 673.572 C 1332.09 667.818 1328.94 637.204 1353.71 650.771 C 1362.97 663.346 1355.57 674.862 1351.36 688.229 C 1343.76 712.366 1327.67 735.335 1300.08 736.516 C 1297.61 750.313 1293.17 762.206 1288.3 775.225 C 1272.06 818.657 1252.88 853.352 1215.14 881.169 C 1209.52 870.774 1205.36 863.854 1197.78 854.644 C 1187.29 842.047 1179.58 834.291 1166.7 824.289 C 1169.46 822.39 1172.18 820.448 1174.88 818.465 C 1214.25 789.374 1239.46 748.586 1246.82 700.073 C 1239.87 688.307 1239.59 684.279 1235.89 669.474 C 1233.09 658.24 1233.81 631.175 1254.31 641.106 C 1260.73 644.217 1262.43 656.641 1263.26 664.005 z" fill="rgb(232,176,162)" transform="translate(0,0)"></path>
<path d="M 1353.71 650.771 C 1362.97 663.346 1355.57 674.862 1351.36 688.229 C 1343.76 712.366 1327.67 735.335 1300.08 736.516 C 1297.61 750.313 1293.17 762.206 1288.3 775.225 C 1272.06 818.657 1252.88 853.352 1215.14 881.169 C 1209.52 870.774 1205.36 863.854 1197.78 854.644 C 1224.68 838.773 1253.53 796.999 1267.03 769.309 C 1273.68 755.672 1280.33 738.353 1285.92 724.055 C 1295.07 723.948 1302.41 723.247 1310.73 719.483 C 1332.29 709.732 1337.63 691.639 1345.3 671.448 C 1347.94 664.478 1351.06 657.788 1353.71 650.771 z" fill="rgb(224,148,133)" transform="translate(0,0)"></path>
<path d="M 1270.68 820.542 C 1275.51 823.278 1286.36 841.574 1289.7 846.935 C 1318.48 893.127 1329.53 940.428 1330.27 994.247 L 1205.08 994.312 L 1155.98 994.554 L 1156.04 949.164 C 1176.92 937.76 1207.85 922.098 1226.82 910.019 C 1223.47 901.207 1220.02 892.431 1216.48 883.694 C 1242.89 862.396 1253.76 850.444 1270.68 820.542 z" fill="rgb(230,102,56)" transform="translate(0,0)"></path>
<path d="M 699.434 492.321 C 739.427 493.082 781.569 544.984 802.321 574.69 C 820.242 600.345 842.403 640.804 832.248 672.922 C 823.58 675.698 820.738 677.279 813.628 682.975 L 812.423 683.749 C 757.666 686.552 631.901 505.535 699.434 492.321 z" fill="rgb(251,175,26)" transform="translate(0,0)"></path>
<path d="M 1339.76 493.197 C 1350.59 491.954 1362.35 492.559 1366.57 504.432 C 1376.35 531.899 1355.33 566.777 1341.74 589.585 C 1336.29 598.718 1329.96 608.095 1322.8 615.332 C 1321.31 616.838 1309.08 622.031 1306.59 623.125 C 1302.48 616.465 1298.19 609.066 1289.31 609.56 C 1272.39 610.502 1269.02 639.81 1264.7 652.256 C 1257.21 633.057 1240.41 630.088 1231.3 650.071 C 1231.55 659.51 1234.99 674.214 1236.54 684.485 C 1232.18 683.731 1226.62 682.813 1222.82 680.638 C 1217.22 677.422 1213.19 672.049 1211.67 665.776 C 1206.32 644.187 1223.38 610.001 1234.47 592.33 C 1255.92 558.141 1298.77 503.248 1339.76 493.197 z" fill="rgb(241,136,66)" transform="translate(0,0)"></path>
<path d="M 1074.22 499.032 C 1079.62 472.006 1101.74 395.258 1136.7 393.417 C 1142.89 393.153 1148.92 395.369 1153.47 399.573 C 1164.45 409.564 1167.36 428.589 1168.1 442.813 C 1169.88 449.99 1169.94 456.928 1168.1 464.113 C 1167.6 483.586 1160.29 513.808 1155.02 533.1 C 1124.46 522.457 1101.78 508.901 1074.22 499.032 z" fill="rgb(251,175,26)" transform="translate(0,0)"></path>
<path d="M 1168.1 442.813 C 1169.88 449.99 1169.94 456.928 1168.1 464.113 C 1167.94 457.014 1167.94 449.912 1168.1 442.813 z" fill="rgb(109,54,24)" transform="translate(0,0)"></path>
<path d="M 910.308 393.281 C 948.758 397.72 966.652 462.858 973.363 493.99 C 956.083 498.294 940.751 504.67 925.037 512.867 C 912.127 520.561 906.348 524.656 895.232 534.729 C 886.747 504.554 862.132 402.251 910.308 393.281 z" fill="rgb(241,136,66)" transform="translate(0,0)"></path>
<path d="M 1171.72 748.297 C 1187.73 752.59 1202.33 763.635 1215.12 773.528 C 1189.09 809.256 1138.22 846.957 1096.68 861.275 C 1091.84 862.581 1086.94 863.661 1081.99 864.509 C 1076.97 865.424 1063.06 868.244 1059.16 865.532 C 1059.15 864.167 1059.14 859.988 1060.32 859.459 C 1068.22 856.13 1076.33 852.642 1084.05 848.99 C 1118.11 832.882 1144.09 803.918 1161.79 771.14 C 1165.61 764.068 1167.77 755.517 1171.72 748.297 z" fill="rgb(230,102,56)" transform="translate(0,0)"></path>
<path d="M 1031.45 865.815 C 1040.93 863.951 1047.7 862.396 1056.96 859.705 C 1057.38 876.25 1055.52 890.265 1043.4 902.786 C 1035.31 911.261 1024.14 916.109 1012.43 916.231 C 1000.91 916.38 989.83 911.819 981.752 903.605 C 969.133 890.95 968.191 877.651 968.127 861.106 L 979.683 864.059 C 1002.38 868.042 1009.72 867.197 1031.45 865.815 z" fill="rgb(232,176,162)" transform="translate(0,0)"></path>
<path d="M 979.683 864.059 C 1002.38 868.042 1009.72 867.197 1031.45 865.815 C 1021.7 874.774 986.929 874.151 979.683 864.059 z" fill="rgb(224,148,133)" transform="translate(0,0)"></path>
<path d="M 543.569 861.431 C 583.037 858.709 653.663 868.768 686.123 894.175 C 697.513 903.09 704.009 918.191 692.253 930.002 C 672.888 949.456 640.142 952.567 614.25 954.084 C 570.825 954.877 505.124 950.417 468.897 922.432 C 462.853 917.778 456.694 909.405 456.671 901.4 C 456.573 867.292 520.977 862.762 543.569 861.431 z" fill="rgb(22,12,7)" transform="translate(0,0)"></path>
<path d="M 533.135 864.414 C 574.28 861.607 649.097 868.127 683.803 895.199 C 688.573 899.003 695.797 907.816 695.57 914.396 C 694.542 944.179 641.107 949.843 620.753 951.243 C 579.144 955.017 504.443 947.201 470.042 920.527 C 465.068 916.761 459.499 910.032 459.144 903.449 C 457.449 871.958 511.955 866.312 533.135 864.414 z" fill="rgb(251,175,26)" transform="translate(0,0)"></path>
<path d="M 1483.55 861.426 C 1514.41 859.542 1581.7 863.145 1592.21 899.824 C 1583.85 943.704 1497.42 951.69 1462.25 954.036 C 1428.54 954.598 1388.17 954.619 1359.6 933.808 C 1347.18 924.767 1346.81 909.109 1357.46 898.724 C 1387.71 869.252 1443.95 863.97 1483.55 861.426 z" fill="rgb(22,12,7)" transform="translate(0,0)"></path>
<path d="M 1474.77 864.42 C 1506.25 861.957 1552.24 864.248 1579.41 883.158 C 1589.94 890.488 1592.27 905.376 1582.99 914.697 C 1554.84 942.961 1503.65 948.65 1466.24 951.715 C 1435.63 953.182 1387.02 952.077 1362.31 933.003 C 1332.61 910.082 1375.31 885.289 1395.77 878.887 C 1423.68 870.153 1446.3 866.65 1474.77 864.42 z" fill="rgb(241,136,66)" transform="translate(0,0)"></path>
<path d="M 1473.38 663.379 C 1516 660.307 1524.4 688.649 1500.87 718.769 C 1468.06 760.752 1396.37 799.436 1344.25 806.922 C 1333.35 807.375 1318.7 807.873 1309.98 800.863 C 1293.62 787.717 1306.54 762.324 1316.94 750.349 C 1351.89 710.127 1420.48 668.8 1473.38 663.379 z" fill="rgb(22,12,7)" transform="translate(0,0)"></path>
<path d="M 1478.21 665.399 C 1518.99 664.84 1518.01 695.333 1496.94 719.922 C 1461.43 761.346 1393.12 798.889 1339.4 805.004 C 1297.03 805.688 1296.18 776.943 1320.11 750.25 C 1356.73 709.408 1422.88 670.232 1478.21 665.399 z" fill="rgb(251,175,26)" transform="translate(0,0)"></path>
<path d="M 558.366 663.323 C 590.368 660.163 632.977 678.33 660.445 694.232 C 691.769 713.727 733.425 738.382 745.979 775.354 C 751.729 792.288 739.997 802.183 724.766 806.154 C 689.256 810.493 651.639 792.606 620.595 775.897 C 588.34 757.45 548.861 732.497 535.997 695.535 C 529.746 677.572 542.379 667.369 558.366 663.323 z" fill="rgb(22,12,7)" transform="translate(0,0)"></path>
<path d="M 744.48 783.107 C 738.703 839.505 614.5 772.686 595.34 757.765 C 572.895 740.285 545.228 722.404 537.735 692.227 C 533.777 676.287 546.903 667.365 560.912 665.891 C 608.594 663.618 660.916 694.96 697.92 721.714 C 716.68 735.277 741.424 758.195 744.448 781.248 C 745.032 782.12 744.952 782.195 744.48 783.107 z" fill="rgb(241,136,66)" transform="translate(0,0)"></path>
<path d="M 744.448 781.248 C 745.032 782.12 744.952 782.195 744.48 783.107 C 744.442 782.373 744.409 781.988 744.448 781.248 z" fill="rgb(109,54,24)" transform="translate(0,0)"></path>
<metadata><recraft-signature>{"signed_by": "recraft", "signature_b64": "MmQBHxPBBwVhiH6tW+btmdkqquxAEkg/CRw7ld1zrxwfrqfb29ZocxWjah+JIBMdRJ+6wV/X28KmTsAVYwqMBw==", "signing_algo": "Ed25519", "generation_timestamp": 1779102843, "identifier": "5aa72721-ea65-4e16-bd86-888656c2112b"}</recraft-signature></metadata></svg>