<svg xmlns="http://www.w3.org/2000/svg" height="832" preserveAspectRatio="none" style="display: block;" version="1.1" viewBox="0 0 2048 1331" width="1280">
<path d="M 0 0 L 2048 0 L 2048 1331 L 0 1331 L 0 0 z" fill="rgb(255,255,255)" transform="translate(0,0)"></path>
<path d="M 1026.43 475.905 C 1028.51 474.481 1030.82 467.325 1031.75 464.723 C 1101.16 269.119 1373.6 243.886 1486.8 413.592 C 1523.69 468.902 1536.45 520.664 1535 586.89 C 1538.67 588.893 1542.77 590.953 1545.86 593.743 C 1576.33 621.217 1573.87 653.548 1551.73 683.655 C 1551.8 687.847 1552.04 693.25 1551.85 697.329 C 1552.97 737.043 1537.91 775.51 1510.12 803.907 C 1477.09 838.237 1418.23 854.711 1372.27 855.421 C 1364.09 855.467 1355.91 855.193 1347.76 854.598 L 1344.44 852.952 C 1345.56 850.044 1348.6 843.868 1347.76 841.6 L 1347.05 841.926 C 1296.96 864.269 1243.98 859.482 1194.02 840.453 C 1130.57 817.994 1090.33 763.163 1067.95 702.209 C 1033.24 709.776 1016.6 701.605 994.037 675.63 C 984.971 655.225 981.326 643.026 986.251 620.202 L 986.021 616.161 L 988.475 616.291 C 990.641 604.527 1004.05 593.331 1014.08 588.023 C 1011.77 561.7 1015.07 537.206 1018.64 511.206 C 1019.7 503.563 1027.11 480.504 1026.43 475.905 z" fill="rgb(217,147,117)" transform="translate(0,0)"></path>
<path d="M 1026.43 475.905 C 1028.51 474.481 1030.82 467.325 1031.75 464.723 C 1101.16 269.119 1373.6 243.886 1486.8 413.592 C 1523.69 468.902 1536.45 520.664 1535 586.89 C 1515.92 579.11 1512.48 584.842 1497.44 582.435 C 1460.67 576.551 1427.59 551.042 1413.39 516.393 C 1408.89 505.431 1407 496.383 1404.58 485.026 C 1402.32 507.749 1402.29 529.451 1417.27 548.409 C 1421.55 553.815 1437.06 565.113 1426.38 571.929 C 1422.07 574.685 1413.97 572.192 1409.53 570.699 C 1371.49 557.294 1337.93 529.681 1320.5 493.048 C 1316.58 484.858 1313.54 476.276 1311.43 467.446 C 1310.45 463.315 1305.97 436.113 1305.48 435.289 L 1303.98 435.26 C 1299.67 440.653 1300.41 474.336 1301.41 483.351 C 1304.25 507.66 1314.25 530.577 1330.15 549.19 C 1334.72 554.561 1347.43 565.672 1345.04 571.054 C 1336.19 591.031 1289.54 552.775 1282.44 545.82 C 1260.05 523.893 1245.29 495.358 1240.33 464.414 C 1238.43 452.57 1238.02 440.882 1236.3 429.457 C 1228.77 473.712 1221.94 521.843 1181.48 549.812 C 1173.14 555.575 1136.13 576.967 1124.99 565.001 C 1117.91 557.406 1135.3 547.179 1139.65 544.054 C 1165.08 520.773 1177.72 486.328 1180.86 452.62 C 1181.25 448.425 1181.88 439.227 1181.19 435.383 L 1180.53 435.007 C 1175.39 445.971 1172.42 464.794 1166.06 478.384 C 1143.47 526.61 1110.56 558.445 1060.45 577 C 1042.2 583.758 1028.77 581.656 1014.08 588.023 C 1011.77 561.7 1015.07 537.206 1018.64 511.206 C 1019.7 503.563 1027.11 480.504 1026.43 475.905 z" fill="rgb(133,91,56)" transform="translate(0,0)"></path>
<path d="M 1550.7 684.355 C 1550.91 689.198 1551.19 692.527 1551.85 697.329 C 1552.97 737.043 1537.91 775.51 1510.12 803.907 C 1477.09 838.237 1418.23 854.711 1372.27 855.421 C 1364.09 855.467 1355.91 855.193 1347.76 854.598 L 1344.44 852.952 C 1345.56 850.044 1348.6 843.868 1347.76 841.6 C 1349.85 840.286 1360.78 835.303 1363.62 833.938 C 1420.08 806.85 1456.38 756.991 1476.45 698.636 C 1503.74 711.489 1529.52 705.133 1550.7 684.355 z" fill="rgb(133,91,56)" transform="translate(0,0)"></path>
<path d="M 986.021 616.161 L 988.475 616.291 L 986.251 620.202 L 986.021 616.161 z" fill="rgb(99,58,35)" transform="translate(0,0)"></path>
<path d="M 1396.47 682.39 C 1406.34 680.978 1432.77 684.448 1439.71 691.505 C 1465.36 717.563 1422.34 725.116 1407.83 727.048 C 1343.25 728.632 1331.32 687.512 1396.47 682.39 z" fill="rgb(206,128,102)" transform="translate(0,0)"></path>
<path d="M 1137.57 682.425 C 1185.34 677.712 1216.61 718.918 1147.03 727.081 C 1082.1 728.789 1072.93 686.236 1137.57 682.425 z" fill="rgb(206,128,102)" transform="translate(0,0)"></path>
<path d="M 1204.16 730.971 C 1212.48 730.725 1215.01 734.813 1219.75 741.252 C 1242.19 771.762 1287.14 775.506 1314.55 749.718 C 1320.75 743.88 1327.08 728.049 1337.43 730.641 C 1345.91 736.206 1343.57 744.073 1339.72 751.307 C 1336.77 755.294 1332.3 760.358 1328.7 763.701 C 1311.95 779.404 1289.51 787.59 1266.58 786.365 C 1243.96 785.317 1201.49 768.102 1198.19 739.016 C 1197.83 735.77 1201.67 732.879 1204.16 730.971 z" fill="rgb(99,58,35)" transform="translate(0,0)"></path>
<path d="M 1372.42 602.164 C 1386.5 602.23 1394.97 607.481 1399.63 621.153 C 1402.48 629.323 1401.86 638.305 1397.92 646.007 C 1393.53 654.52 1387.97 656.665 1379.77 659.37 C 1343.12 658.891 1338.96 611.483 1372.42 602.164 z" fill="rgb(99,58,35)" transform="translate(0,0)"></path>
<path d="M 1515.98 604.232 C 1530.09 603.658 1562.42 617.506 1556.86 633.068 C 1542.13 647.181 1537.29 617.944 1516.21 621.735 C 1510.17 628.35 1540.42 639.227 1525.28 655.109 C 1521.16 656.803 1517.27 658.508 1513.26 660.454 C 1505.24 664.346 1493.16 680.19 1484.16 672.506 C 1482.63 669.2 1482.8 668.439 1482.99 664.756 C 1486.41 656.943 1500.66 646.836 1507.91 641.969 C 1488.03 628.018 1491.62 609.142 1515.98 604.232 z" fill="rgb(133,91,56)" transform="translate(0,0)"></path>
<path d="M 1164.46 602.261 C 1198.29 604.254 1202.92 651.792 1168.26 659.939 C 1133.72 659.042 1131.64 608.913 1161.48 602.84 L 1164.46 602.261 z" fill="rgb(99,58,35)" transform="translate(0,0)"></path>
<path d="M 1021.1 604.204 C 1051.26 600.814 1064.51 617.844 1043.61 642.839 C 1049.28 647.45 1068.15 665.459 1061.14 673.248 C 1052.14 683.245 1043.11 665.89 1036.89 660.417 L 1035.94 659.591 C 1002.92 639.916 1035.63 633.702 1036.74 623.26 C 1035.48 621.753 1034.08 619.479 1031.79 619.523 C 1023.45 620.344 1016.49 628.464 1009.35 632.938 C 1001.24 638.031 993.389 629.973 996.648 622.687 C 1000.63 613.78 1012.4 607.975 1021.1 604.204 z" fill="rgb(133,91,56)" transform="translate(0,0)"></path>
<path d="M 1250.02 667.948 C 1257.42 667.865 1259.01 667.681 1262.79 674.995 C 1272.67 694.574 1278.07 670.11 1281.44 669.484 C 1297.24 666.557 1296.86 679.594 1291.74 688.797 C 1285.69 696.226 1279.41 700.394 1269.5 700.746 C 1263.28 700.929 1257.25 698.587 1252.78 694.253 C 1244.72 686.518 1240.6 676.194 1250.02 667.948 z" fill="rgb(133,91,56)" transform="translate(0,0)"></path>
<path d="M 516.834 560.456 C 517.911 521.264 527.535 482.782 545.035 447.698 C 576.19 385.222 629.08 336.013 695.749 313.852 C 762.409 292.153 834.941 297.656 897.564 329.166 C 954.167 357.657 1006.51 415.675 1026.43 475.905 C 1027.11 480.504 1019.7 503.563 1018.64 511.206 C 1015.07 537.206 1011.77 561.7 1014.08 588.023 C 1004.05 593.331 990.641 604.527 988.475 616.291 L 986.021 616.161 L 986.251 620.202 C 981.326 643.026 984.971 655.225 994.037 675.63 C 992.743 683.501 992.183 692.78 991.956 700.807 L 990.756 697.795 C 989.709 698.941 984.269 716.674 982.903 720.118 C 976.743 735.389 969.088 750.014 960.049 763.778 C 942.371 790.187 914.433 817.048 886.697 833.009 C 880.768 836.421 860.962 844.547 857.171 847.951 C 855.35 847.299 847.186 850.19 844.74 850.965 C 797.179 866.036 755.23 863.949 708.394 846.867 C 639.575 821.983 596.93 768.82 572.031 702.027 C 558.221 705.981 547.463 708.511 532.852 705.421 C 515.993 701.793 501.275 691.595 491.957 677.084 C 482.545 662.365 479.363 644.51 483.112 627.445 C 487.865 606.142 499.199 597.406 516.166 586.686 C 515.808 579.198 515.365 567.673 516.834 560.456 z" fill="rgb(235,175,152)" transform="translate(0,0)"></path>
<path d="M 516.834 560.456 C 517.911 521.264 527.535 482.782 545.035 447.698 C 576.19 385.222 629.08 336.013 695.749 313.852 C 762.409 292.153 834.941 297.656 897.564 329.166 C 954.167 357.657 1006.51 415.675 1026.43 475.905 C 1027.11 480.504 1019.7 503.563 1018.64 511.206 C 1015.07 537.206 1011.77 561.7 1014.08 588.023 C 1004.05 593.331 990.641 604.527 988.475 616.291 L 986.021 616.161 C 979.391 581.478 968.798 537.06 941.961 512.835 C 903.125 477.779 886.127 450.683 862.778 403.34 C 825.789 524.016 715.236 586.16 593.574 588.485 C 582.246 588.722 570.913 588.379 559.62 587.455 C 547.508 586.496 529.491 583.499 518.215 585.765 L 516.98 586.02 C 516.648 577.964 516.844 568.614 516.834 560.456 z" fill="rgb(62,39,26)" transform="translate(0,0)"></path>
<path d="M 797.947 380.997 L 798.594 380.963 C 818.681 380.102 810.663 401.83 806.325 412.91 C 778.934 482.864 709.372 535.62 634.838 544.11 C 621.15 545.669 608.115 545.326 594.47 544.537 C 584.994 543.851 573.371 539.811 582.219 527.18 C 586.026 521.745 602.763 524.783 609.97 524.912 C 680.231 526.176 744.993 485.472 778.602 424.519 C 784.546 413.851 792.059 386.723 797.947 380.997 z" fill="rgb(133,91,56)" transform="translate(0,0)"></path>
<path d="M 911.568 682.416 C 964.421 676.565 990.966 720.762 925.251 727.136 C 861.232 729.441 844.966 687.914 911.568 682.416 z" fill="rgb(217,147,117)" transform="translate(0,0)"></path>
<path d="M 644.48 682.415 C 658.033 680.738 692.431 685.511 695.469 702.548 C 698.791 721.172 670.149 725.562 657.157 727.059 C 591.5 728.505 579.243 687.012 644.48 682.415 z" fill="rgb(217,147,117)" transform="translate(0,0)"></path>
<path d="M 719.887 731.02 C 727.647 732.261 730.811 737.309 735.738 743.497 C 758.713 772.349 801.274 774.079 828.082 749.972 C 834.178 744.49 841.49 728.801 851.559 731.067 C 859.712 736.626 855.929 746.178 851.629 752.606 C 843.768 763.888 833.052 772.88 820.576 778.662 C 784.295 795.634 734.202 783.468 713.537 746.828 C 709.231 739.192 712.332 734.161 719.887 731.02 z" fill="rgb(99,58,35)" transform="translate(0,0)"></path>
<path d="M 884.288 603.094 C 921.43 599.305 926.047 648.177 895.839 658.933 C 858.168 661.731 852.199 615.438 884.288 603.094 z" fill="rgb(99,58,35)" transform="translate(0,0)"></path>
<path d="M 674.55 603.083 C 698.484 602.09 711.092 623.227 702.125 643.531 C 699.221 650.197 693.795 655.44 687.033 658.114 L 684.21 659.168 C 650.593 663.641 640.286 613.438 674.55 603.083 z" fill="rgb(99,58,35)" transform="translate(0,0)"></path>
<path d="M 525.482 605.172 C 553.411 602.907 558.402 622.102 549.063 644.496 C 553.017 648.038 565.074 659.898 565.711 666.513 C 566.52 674.918 554.754 679.393 549.148 672.258 C 546.645 669.072 541.983 664.161 538.736 660.571 C 537.823 659.718 536.957 658.814 536.143 657.865 C 524.45 644.413 533.982 636.117 534.843 625.229 C 533.137 622.936 532.967 622.959 530.117 622.091 C 520.635 622.709 509.773 641.087 503.134 636.958 C 483.748 624.901 514.97 608.608 525.482 605.172 z" fill="rgb(133,91,56)" transform="translate(0,0)"></path>
<path d="M 765.739 668.893 C 777.669 669.206 775.652 670.395 780.882 680.013 C 786.785 690.867 793.72 670.001 797.544 669.31 C 811.51 666.785 811.644 678.182 807.187 688.156 C 802.011 695.516 795.895 701.13 786.498 701.31 C 771.958 701.588 751.691 682.695 765.739 668.893 z" fill="rgb(133,91,56)" transform="translate(0,0)"></path>
<path d="M 994.037 675.63 C 1016.6 701.605 1033.24 709.776 1067.95 702.209 C 1090.33 763.163 1130.57 817.994 1194.02 840.453 L 1194.08 855.343 C 1193.69 861.691 1193.16 868.508 1192.9 874.824 C 1192.3 878.536 1192.46 881.609 1190.37 884.126 C 1183.08 886.225 1175.98 887.778 1168.56 889.399 C 1143.4 894.899 1118.13 904.967 1095.63 917.36 C 1087.73 922.769 1079.58 927.798 1071.77 933.308 C 1020.17 969.745 982.487 1025.63 971.021 1088.01 C 970.42 1091.28 969.892 1094.86 969.713 1098.19 L 678.296 1098.13 C 622.585 1098.08 566.873 1098.28 511.167 1098.34 C 503.508 1098.03 498.206 1098.43 492.368 1092.97 C 479.128 1080.6 483.88 1064.64 489.228 1049.51 C 495.004 1033.17 502.431 1016.92 510.874 1001.68 C 515.253 993.781 521.71 985.581 525.47 977.474 L 525.836 976.668 C 520.17 966.352 509.4 956.806 506.996 944.738 C 502.708 923.212 517.314 916.94 534.766 913.16 C 537.076 888.112 552.233 879.077 575.758 887.059 C 577.716 863.362 588.987 859.655 610.774 855.942 C 633.694 852.037 651.139 876.747 668.185 889.785 C 680.813 884.821 691.788 880.775 704.957 877.505 C 705.015 875.635 705.59 872.593 705.888 870.658 C 706.224 863.912 707.637 853.828 708.394 846.867 C 755.23 863.949 797.179 866.036 844.74 850.965 C 847.186 850.19 855.35 847.299 857.171 847.951 C 860.962 844.547 880.768 836.421 886.697 833.009 C 914.433 817.048 942.371 790.187 960.049 763.778 C 969.088 750.014 976.743 735.389 982.903 720.118 C 984.269 716.674 989.709 698.941 990.756 697.795 L 991.956 700.807 C 992.183 692.78 992.743 683.501 994.037 675.63 z" fill="rgb(226,218,211)" transform="translate(0,0)"></path>
<path d="M 994.037 675.63 C 1016.6 701.605 1033.24 709.776 1067.95 702.209 C 1090.33 763.163 1130.57 817.994 1194.02 840.453 L 1194.08 855.343 C 1193.69 861.691 1193.16 868.508 1192.9 874.824 C 1192.3 878.536 1192.46 881.609 1190.37 884.126 C 1183.08 886.225 1175.98 887.778 1168.56 889.399 C 1143.4 894.899 1118.13 904.967 1095.63 917.36 C 1083.43 911.071 1075.16 904.766 1061.64 898.492 C 1011.35 875.162 959.532 868.546 904.656 874.196 C 889.824 875.724 874.763 879.087 859.996 881.444 C 860.191 871.256 858.296 859.428 856.766 849.257 L 857.171 847.951 C 860.962 844.547 880.768 836.421 886.697 833.009 C 914.433 817.048 942.371 790.187 960.049 763.778 C 969.088 750.014 976.743 735.389 982.903 720.118 C 984.269 716.674 989.709 698.941 990.756 697.795 L 991.956 700.807 C 992.183 692.78 992.743 683.501 994.037 675.63 z" fill="rgb(255,255,255)" transform="translate(0,0)"></path>
<path d="M 994.037 675.63 C 1016.6 701.605 1033.24 709.776 1067.95 702.209 C 1090.33 763.163 1130.57 817.994 1194.02 840.453 L 1194.08 855.343 C 1189.68 855.894 1184.48 855.969 1180.01 855.834 C 1082.94 852.904 989.955 812.278 991.956 700.807 C 992.183 692.78 992.743 683.501 994.037 675.63 z" fill="rgb(133,91,56)" transform="translate(0,0)"></path>
<path d="M 575.758 887.059 C 577.716 863.362 588.987 859.655 610.774 855.942 C 633.694 852.037 651.139 876.747 668.185 889.785 C 674.205 895.571 682.731 902.551 682.32 911.875 C 681.765 924.466 677.205 930.69 663.833 930.736 C 656.447 930.762 646.713 924.515 643.081 926.25 C 647.13 932.914 657.631 948.098 658.428 955.059 C 660.846 961.685 663.046 966.2 662.361 973.48 C 660.654 991.635 644.806 998.853 628.639 992.141 C 626.8 1022.03 604.818 1027.83 585.492 1005.78 C 580.988 1014.26 572.445 1021.9 562.37 1019.2 C 546.837 1015.05 534.363 989.712 525.836 976.668 C 520.17 966.352 509.4 956.806 506.996 944.738 C 502.708 923.212 517.314 916.94 534.766 913.16 C 537.076 888.112 552.233 879.077 575.758 887.059 z" fill="rgb(235,175,152)" transform="translate(0,0)"></path>
<path d="M 658.428 955.059 C 656.617 957.17 655.298 958.349 652.605 959.111 C 651.252 959.495 648.257 959.353 647.503 958.408 C 640.797 950.007 606.645 896.399 605.146 890.214 C 606.456 884.105 608.647 882.728 614.781 883.482 C 620.526 887.14 636.722 917.095 643.081 926.25 C 647.13 932.914 657.631 948.098 658.428 955.059 z" fill="rgb(133,91,56)" transform="translate(0,0)"></path>
<path d="M 577.209 903.655 C 583.39 904.407 590.667 915.781 593.338 920.877 C 598.782 931.264 634.268 974.326 632.605 982.792 C 631.08 985.834 628.536 986.586 625.365 988.211 C 622.002 986.364 619.763 983.363 617.534 980.299 C 601.327 958.014 586.313 934.809 570.681 912.113 C 570.681 912.112 570.55 909.611 570.537 909.368 C 572.307 905.988 573.857 905.545 577.209 903.655 z" fill="rgb(133,91,56)" transform="translate(0,0)"></path>
<path d="M 536.68 926.025 C 539.623 925.857 544.745 925.622 546.708 927.694 C 554.073 935.47 590.284 983.687 590.91 990.931 C 590.112 994.348 589.08 995.014 586.528 997.512 C 583.486 997.46 583.184 997.552 580.421 996.447 C 567.952 978.574 552.333 954.993 536.56 939.838 C 532.71 936.139 532.755 937.322 531.754 931.918 C 532.518 928.848 534.15 928.047 536.68 926.025 z" fill="rgb(133,91,56)" transform="translate(0,0)"></path>
<path d="M 708.394 846.867 C 755.23 863.949 797.179 866.036 844.74 850.965 C 847.186 850.19 855.35 847.299 857.171 847.951 L 856.766 849.257 C 858.296 859.428 860.191 871.256 859.996 881.444 C 860.003 903.737 853.975 923.054 838.81 939.852 C 825.168 955.234 805.867 964.421 785.326 965.306 C 765.131 966.255 745.416 958.967 730.695 945.109 C 709.957 925.787 705.795 904.063 704.957 877.505 C 705.015 875.635 705.59 872.593 705.888 870.658 C 706.224 863.912 707.637 853.828 708.394 846.867 z" fill="rgb(235,175,152)" transform="translate(0,0)"></path>
<path d="M 708.394 846.867 C 755.23 863.949 797.179 866.036 844.74 850.965 C 847.186 850.19 855.35 847.299 857.171 847.951 L 856.766 849.257 C 837.924 874.346 824.413 886.867 791.283 893.164 C 771.628 896.9 722.482 888.894 706.628 879.914 C 705.37 877.14 705.811 873.826 705.888 870.658 C 706.224 863.912 707.637 853.828 708.394 846.867 z" fill="rgb(99,58,35)" transform="translate(0,0)"></path>
<path d="M 1194.02 840.453 C 1243.98 859.482 1296.96 864.269 1347.05 841.926 L 1347.76 841.6 C 1348.6 843.868 1345.56 850.044 1344.44 852.952 L 1347.76 854.598 C 1345.05 857.531 1348.23 874.104 1348.04 879.821 C 1358.89 880.937 1377.11 882.91 1387.67 884.869 C 1397.17 876.217 1417.02 854.831 1430.84 856.115 C 1433.31 856.344 1435.91 857.541 1437.99 858.85 C 1453.61 868.686 1466.85 847.358 1481.17 887.938 C 1489.15 885.895 1498.69 886.6 1505.88 890.724 C 1513.32 894.986 1519.41 906.715 1518.51 915.166 C 1563.94 926.291 1545.7 954.061 1527.15 980.74 C 1542.35 1006.54 1556.33 1031.67 1564.06 1060.89 C 1569.6 1081.84 1562.08 1098.44 1538.6 1098.51 C 1517.16 1098.57 1495.61 1098.44 1474.14 1098.37 L 1357.95 1098.37 L 969.713 1098.19 C 969.892 1094.86 970.42 1091.28 971.021 1088.01 C 982.487 1025.63 1020.17 969.745 1071.77 933.308 C 1079.58 927.798 1087.73 922.769 1095.63 917.36 C 1118.13 904.967 1143.4 894.899 1168.56 889.399 C 1175.98 887.778 1183.08 886.225 1190.37 884.126 C 1192.46 881.609 1192.3 878.536 1192.9 874.824 C 1193.16 868.508 1193.69 861.691 1194.08 855.343 L 1194.02 840.453 z" fill="rgb(202,184,164)" transform="translate(0,0)"></path>
<path d="M 1387.67 884.869 C 1397.17 876.217 1417.02 854.831 1430.84 856.115 C 1433.31 856.344 1435.91 857.541 1437.99 858.85 C 1453.61 868.686 1466.85 847.358 1481.17 887.938 C 1489.15 885.895 1498.69 886.6 1505.88 890.724 C 1513.32 894.986 1519.41 906.715 1518.51 915.166 C 1563.94 926.291 1545.7 954.061 1527.15 980.74 C 1516.99 992.989 1508.02 1013.18 1492.55 1018.58 C 1477.57 1023.82 1469.49 1013.16 1465.27 1000.41 C 1456.49 1012.98 1442.52 1026.27 1425.48 1013.59 C 1419.15 1008.88 1418.36 999.216 1418 991.775 C 1400.13 998.049 1389.68 996.9 1380.05 979.508 C 1379.41 967.772 1379.73 965.105 1386.4 955.229 C 1386.7 948.205 1397.03 936.571 1401.8 930.208 C 1399.52 930.084 1388.24 933.755 1385.28 934.593 C 1374.83 931.579 1365.3 926.157 1366.62 913.296 C 1367.93 900.559 1378.55 892.511 1387.67 884.869 z" fill="rgb(217,147,117)" transform="translate(0,0)"></path>
<path d="M 1401.8 930.208 C 1410.24 921.616 1416.72 909.599 1423.8 899.851 C 1428.84 892.918 1437.3 876.122 1447.3 885.662 C 1447.86 887.18 1449.06 889.579 1447.57 891.586 C 1430.95 913.889 1413.82 936.637 1396.66 958.503 C 1395.37 958.887 1394.33 959.195 1393.55 959.428 C 1389.99 958.686 1389.11 957.61 1386.4 955.229 C 1386.7 948.205 1397.03 936.571 1401.8 930.208 z" fill="rgb(133,91,56)" transform="translate(0,0)"></path>
<path d="M 1476.6 900.1 C 1482.07 900.68 1483.9 900.194 1486.68 905.126 C 1486.69 906.061 1486.95 907.923 1486.7 908.75 C 1486.08 910.749 1430.71 985.383 1426.34 989.923 C 1420.14 989.359 1417.65 988.187 1416.31 982.177 C 1418.19 974.569 1467.22 912.634 1476.6 900.1 z" fill="rgb(133,91,56)" transform="translate(0,0)"></path>
<path d="M 1504.7 932.774 C 1510.21 932.842 1512.14 934.841 1513.37 939.738 C 1512.38 944.903 1473.98 994.78 1468.11 1000.59 C 1462.5 999.836 1460.13 998.568 1459.15 993.119 C 1461.28 985.22 1497 940.245 1504.7 932.774 z" fill="rgb(133,91,56)" transform="translate(0,0)"></path>
<path d="M 1194.02 840.453 C 1243.98 859.482 1296.96 864.269 1347.05 841.926 L 1347.76 841.6 C 1348.6 843.868 1345.56 850.044 1344.44 852.952 L 1347.76 854.598 C 1345.05 857.531 1348.23 874.104 1348.04 879.821 C 1347.98 903.897 1340.71 925.752 1323.35 943.043 C 1309.16 957.393 1289.76 965.396 1269.58 965.231 C 1248.88 965.06 1229.13 956.529 1214.81 941.576 C 1200.77 926.735 1192.92 907.102 1192.86 886.675 L 1192.9 874.824 C 1193.16 868.508 1193.69 861.691 1194.08 855.343 L 1194.02 840.453 z" fill="rgb(217,147,117)" transform="translate(0,0)"></path>
<path d="M 1194.02 840.453 C 1243.98 859.482 1296.96 864.269 1347.05 841.926 L 1347.76 841.6 C 1348.6 843.868 1345.56 850.044 1344.44 852.952 C 1319.04 880.14 1298.88 892.334 1260.34 893.59 C 1239.02 894.284 1213.77 890.786 1192.86 886.675 L 1192.9 874.824 C 1193.16 868.508 1193.69 861.691 1194.08 855.343 L 1194.02 840.453 z" fill="rgb(99,58,35)" transform="translate(0,0)"></path>
<path d="M 1021.15 199.453 C 1023.46 199.49 1024.12 199.777 1026.28 200.403 C 1031.5 205.15 1043.93 237.852 1048.62 247.358 C 1058.11 248.251 1102.56 247.559 1103.02 256.816 C 1100.29 263.237 1071.52 286.095 1064.28 292.544 C 1066.79 305.868 1069.35 319.288 1071.79 332.632 C 1072.74 337.808 1074.11 344.312 1069.68 347.928 C 1062.53 348.248 1033.27 326.04 1023.88 320.347 C 1010.41 328.505 997.201 339.661 983.085 346.612 C 979.604 348.326 977.84 347.372 975.718 344.649 C 973.767 336.114 981.818 302.938 984.039 292.117 C 973.251 283.767 962.11 275.312 951.542 266.663 C 947.572 263.413 942.918 259.445 945.507 254.17 C 952.475 248.923 988.02 248.64 998.607 248.043 C 1005.57 234.376 1013.6 211.004 1021.15 199.453 z" fill="rgb(186,147,76)" transform="translate(0,0)"></path>
<metadata><recraft-signature>{"signed_by": "recraft", "signature_b64": "wjLkf8CCwWCTTbMQKwINfalmrZ1lKDW+GC4NjCKtptYt6pKLVqBwBJqsMv7wqKpq96AckXsqUCOat6A2YanSAw==", "signing_algo": "Ed25519", "generation_timestamp": 1779103099, "identifier": "bf9d4b0e-1635-44f1-a809-b1b5e00e8832"}</recraft-signature></metadata></svg>