<svg xmlns="http://www.w3.org/2000/svg" height="1216" preserveAspectRatio="none" style="display: block;" version="1.1" viewBox="0 0 1509 2048" width="896">
<defs>
	<linearGradient gradientUnits="userSpaceOnUse" id="Gradient1" x1="726.87" x2="677.783" y1="910.417" y2="987.766">
		<stop class="stop0" offset="0" stop-color="rgb(0,0,0)" stop-opacity="1"></stop>
		<stop class="stop1" offset="1" stop-color="rgb(38,29,27)" stop-opacity="1"></stop>
	</linearGradient>
	<linearGradient gradientUnits="userSpaceOnUse" id="Gradient2" x1="947.702" x2="1056.07" y1="905.437" y2="834.346">
		<stop class="stop0" offset="0" stop-color="rgb(0,0,0)" stop-opacity="1"></stop>
		<stop class="stop1" offset="1" stop-color="rgb(39,30,28)" stop-opacity="1"></stop>
	</linearGradient>
	<linearGradient gradientUnits="userSpaceOnUse" id="Gradient3" x1="569.677" x2="616.79" y1="1742.84" y2="1766.46">
		<stop class="stop0" offset="0" stop-color="rgb(4,1,1)" stop-opacity="1"></stop>
		<stop class="stop1" offset="1" stop-color="rgb(42,34,32)" stop-opacity="1"></stop>
	</linearGradient>
</defs>
<path d="M 0 0 L 1509 0 L 1509 2048 L 0 2048 L 0 0 z" fill="rgb(255,255,255)" transform="translate(0,0)"></path>
<path d="M 1023.93 1076.46 C 1049.53 1041.73 1097.95 1053.57 1110.68 1093.28 C 1113.65 1102.53 1115.77 1112.6 1118.12 1122.07 C 1131.92 1121.87 1141.52 1124.05 1152.3 1133.36 C 1157.3 1137.68 1160.17 1144.97 1162.62 1151.24 C 1168.44 1166.12 1171.71 1182.69 1176.3 1198.14 C 1180.91 1213.64 1192.91 1234.36 1193.82 1249.53 C 1195.64 1279.84 1164.18 1312.22 1144.64 1333.42 C 1245.45 1460.12 1246.55 1711.95 1220.08 1866.29 C 1215.96 1890.29 1176.18 1923.64 1155.14 1936.31 C 1105.46 1966.23 1034.29 1983.43 981.596 1951.22 C 969.135 1943.58 963.281 1933.13 956.101 1921.01 C 822.179 1919.37 686.585 1922.71 552.687 1920.88 C 550.301 1925.01 546.277 1932.19 543.363 1935.79 C 482.188 2013.18 300.669 1940.66 286.68 1856.13 C 266.84 1736.22 268.078 1563.95 305.69 1447.93 C 319.11 1406.85 338.688 1368.05 363.755 1332.85 C 343.912 1312 316.685 1282.69 315.243 1252.82 C 314.464 1236.66 327.18 1216.09 331.992 1200.17 C 337.061 1184.21 340.866 1167.93 345.733 1151.91 C 352.552 1129.46 368.522 1122.15 390.638 1121.92 C 397.87 1099.18 396.885 1080.85 418.562 1065.49 C 429.376 1057.75 442.846 1054.69 455.941 1057 C 469.243 1059.32 476.988 1065.77 484.41 1076.45 C 490.336 1071.97 497.125 1068.75 504.352 1067.01 C 531.953 1060.12 556.038 1071.73 562.669 1100.17 L 563.298 1102.83 C 578.583 1096.03 593.919 1092.23 610.312 1098.56 C 620.53 1102.47 628.746 1110.33 633.111 1120.36 C 640.718 1137.67 643.487 1205.66 648.625 1213.79 L 649.916 1213.1 C 651.214 1206.31 642.352 1145.48 640.587 1134.64 C 653.965 1134.8 656.533 1135.23 669.454 1139.79 L 671.525 1137.24 C 670.863 1136.73 670.977 1136.93 670.879 1136.64 C 672.066 1135.83 679.69 1138.91 681.26 1139.43 C 695.638 1145.08 712.675 1149.28 728.046 1150.52 C 764.706 1153.19 801.028 1141.96 829.79 1119.07 C 838.668 1111.87 845.724 1102.43 854.157 1095.5 L 855.387 1096 C 855.547 1099.49 855.89 1120.4 856.801 1121.77 C 856.748 1125.47 856.423 1126.82 857.883 1130.08 C 860.653 1132.08 865.29 1131.32 869.056 1131.21 C 869.999 1127.51 871.312 1122.29 872.79 1118.86 C 877.326 1108.41 885.853 1100.2 896.472 1096.06 C 913.931 1089.1 929.909 1092.58 946.426 1099.68 C 952.304 1061.92 996.143 1057.04 1023.93 1076.46 z" fill="rgb(14,9,8)" transform="translate(0,0)"></path>
<path d="M 1026.54 1079.09 C 1027.72 1077.38 1028.95 1075.69 1030.22 1074.04 C 1036.34 1066.23 1045.13 1061.02 1055.04 1059.89 C 1068.13 1058.36 1081.3 1062.17 1091.56 1070.44 C 1096.33 1074.35 1101.19 1079.53 1103.79 1085.17 C 1108.68 1095.75 1135.27 1196.26 1136.32 1208.41 C 1139.19 1241.97 1118.98 1266.34 1098.67 1290.07 C 1122.69 1282.28 1136.02 1263.32 1137.39 1238.55 C 1137.83 1230.77 1140.22 1220.35 1139.69 1212.77 C 1138.25 1192.17 1130.41 1171.44 1125.62 1151.43 C 1124.25 1145.78 1119.76 1131.07 1119.74 1125.94 C 1126.55 1121.95 1146.8 1131.82 1151.68 1137.96 C 1151.87 1138.8 1152.06 1139.65 1152.26 1140.5 C 1145.76 1146.35 1139.3 1156.66 1145.78 1164.91 C 1151.23 1171.84 1158.67 1174.39 1166.89 1175.93 C 1168.86 1185.45 1171.49 1195.16 1174.84 1204.29 C 1180.66 1220.17 1191.54 1237.84 1190.49 1255.12 C 1188.05 1295.5 1100.6 1375.37 1069.05 1403.48 L 1072.51 1404.95 C 1066.18 1410.11 1059.2 1416.07 1052.67 1420.86 C 1064.58 1454.31 1077.67 1488.35 1089.1 1521.64 L 1090.43 1524.96 L 1114.69 1591.6 C 1121.06 1609.46 1127.54 1629.1 1134.84 1646.49 C 1150.19 1649.55 1158.01 1653.17 1168.49 1665.08 L 1167.04 1668.11 C 1166.82 1701.75 1156.54 1728.4 1131.5 1751.81 C 1076.87 1802.89 989.395 1833.08 917.349 1803.29 C 907.531 1799.23 903.516 1791.9 898.241 1783.44 L 894.808 1783.02 C 894.87 1782.12 894.97 1781.23 895.107 1780.34 C 897.444 1765.45 905.172 1756.71 916.742 1747.96 C 899.177 1677.96 883.206 1602.68 866.914 1531.82 L 854.509 1477.03 C 852.529 1468.22 849.771 1454.12 847.121 1445.9 L 850.375 1444.71 C 810.277 1403.77 791.186 1322.79 787.965 1266.49 C 786.612 1242.85 805.981 1190.33 814.18 1166.58 C 822.014 1143.88 845.72 1133.86 868.631 1134.35 C 866.642 1147.91 857.98 1203.23 859.324 1213.3 L 860.311 1213.18 C 867.359 1194.23 867.967 1137.84 876.595 1119.33 C 881.364 1109.12 890.084 1101.29 900.748 1097.64 C 916.704 1092.2 932.302 1096.78 946.766 1103.82 C 946.618 1114.5 945.821 1195.38 948.085 1199.55 C 950.408 1198.79 950.234 1196.01 950.263 1193.67 C 950.641 1162.98 948.796 1131.22 950.191 1100.65 C 950.887 1085.4 964.411 1072.31 979.171 1069.73 C 997.316 1066.55 1008.45 1069.68 1023.74 1079.66 C 1026.14 1093.57 1038.68 1183.43 1042.71 1189.01 C 1044.57 1181.44 1029.67 1093.26 1026.54 1079.09 z" fill="rgb(195,144,127)" transform="translate(0,0)"></path>
<path d="M 850.375 1444.71 C 865.859 1456.84 877.266 1464.83 896.759 1468.45 C 899.594 1468.98 904.427 1469.94 904.811 1472.96 C 889.69 1474.62 863.914 1459.45 852.035 1450.78 C 868.623 1518.79 883.293 1588.82 899.233 1657.11 C 910.594 1705.78 921.917 1756.07 931.678 1805.02 C 991.713 1819.41 1038.8 1808.51 1092.49 1777.27 C 1116.64 1763.22 1143.61 1738.44 1155.32 1712.94 L 1107.27 1580.68 C 1100.86 1563.08 1092.58 1542.61 1086.85 1525.12 L 1090.43 1524.96 L 1114.69 1591.6 C 1121.06 1609.46 1127.54 1629.1 1134.84 1646.49 C 1150.19 1649.55 1158.01 1653.17 1168.49 1665.08 L 1167.04 1668.11 C 1166.82 1701.75 1156.54 1728.4 1131.5 1751.81 C 1076.87 1802.89 989.395 1833.08 917.349 1803.29 C 907.531 1799.23 903.516 1791.9 898.241 1783.44 L 894.808 1783.02 C 894.87 1782.12 894.97 1781.23 895.107 1780.34 C 897.444 1765.45 905.172 1756.71 916.742 1747.96 C 899.177 1677.96 883.206 1602.68 866.914 1531.82 L 854.509 1477.03 C 852.529 1468.22 849.771 1454.12 847.121 1445.9 L 850.375 1444.71 z" fill="rgb(14,9,8)" transform="translate(0,0)"></path>
<path d="M 1069.05 1403.48 L 1072.51 1404.95 C 1066.18 1410.11 1059.2 1416.07 1052.67 1420.86 C 1064.58 1454.31 1077.67 1488.35 1089.1 1521.64 L 1090.43 1524.96 L 1086.85 1525.12 C 1086.33 1523.65 1085.8 1522.2 1085.27 1520.74 C 1076.01 1494.84 1065.83 1469.18 1057 1443.16 C 1038.92 1447.19 1027.6 1449.3 1009.42 1450.39 C 1029.56 1434.37 1048.62 1420.02 1069.05 1403.48 z" fill="rgb(14,9,8)" transform="translate(0,0)"></path>
<path d="M 1085.27 1520.74 L 1089.1 1521.64 L 1090.43 1524.96 L 1086.85 1525.12 C 1086.33 1523.65 1085.8 1522.2 1085.27 1520.74 z" fill="rgb(14,9,8)" transform="translate(0,0)"></path>
<path d="M 408.497 1289.86 C 403.076 1282.81 397.413 1275.93 392.007 1268.88 C 379.736 1252.87 369.188 1224.17 373.774 1203.84 C 381.256 1170.67 390.913 1137.27 399.054 1104.19 C 400.687 1097.56 402.973 1090.76 405.998 1084.64 C 422.672 1055.93 461.376 1048.51 481.526 1078.37 C 480.197 1094.84 463.941 1180.4 466.929 1189 C 470.195 1184.21 483.542 1091.79 485.36 1079.69 C 499.95 1069.02 521.067 1065.19 538.068 1072.54 C 563.13 1083.38 559.178 1108.31 559.036 1131.02 L 558.753 1175.73 C 558.72 1181.97 558.143 1192.93 560.341 1198.39 C 565.579 1191.28 558.775 1111.45 563.298 1102.83 C 578.583 1096.03 593.919 1092.23 610.312 1098.56 C 620.53 1102.47 628.746 1110.33 633.111 1120.36 C 640.718 1137.67 643.487 1205.66 648.625 1213.79 L 649.916 1213.1 C 651.214 1206.31 642.352 1145.48 640.587 1134.64 C 653.965 1134.8 656.533 1135.23 669.454 1139.79 C 682.375 1145.18 691.538 1156.48 695.924 1169.24 C 704.123 1193.08 719.743 1236.55 720.676 1261.13 C 722.3 1303.92 706.554 1357.98 690.111 1396.93 C 676.492 1429.18 658.249 1451.99 625.063 1464.71 C 620.481 1466.47 607.296 1469.96 605.35 1471.57 L 606.487 1472.91 C 622.179 1472.61 645.113 1459.5 657.466 1450.03 C 640.22 1523.84 623.739 1600.96 605.472 1674 L 608.927 1674 L 592.345 1747.38 C 603.538 1757.44 611.586 1765.13 612.874 1780.89 C 609.881 1784.42 611.886 1786.52 610.763 1791.84 L 610.55 1789.81 L 607.29 1788.99 C 593.511 1810.26 561.517 1813.29 538.215 1814.89 L 534.086 1811.87 C 480.821 1811.48 442.754 1795.5 399.212 1766.1 L 398.238 1769.13 C 394.691 1766.48 391.201 1763.76 387.77 1760.97 C 354.919 1733.71 344.273 1711.54 340.364 1670.53 L 338.207 1666.84 C 345.515 1653.53 360.41 1648.88 374.011 1645.52 C 399.389 1571.28 429.655 1495.33 456.143 1420.97 L 448.487 1414.97 L 452.075 1413.34 C 420.661 1386.68 393.976 1362.36 366.664 1331.32 C 352.104 1314.77 339.847 1302.38 328.208 1283.02 C 310.269 1253.16 320.983 1238.01 332.554 1208.47 C 336.355 1198.77 339.565 1186.39 342.264 1176.19 C 345.586 1175.23 349.431 1174.26 352.531 1172.7 C 364.872 1166.47 374.518 1151.31 357.71 1143.34 C 356.337 1142.69 355.79 1142.16 354.916 1140.86 C 356.579 1130.25 380.869 1125.22 390.48 1124.9 C 384.218 1148.89 377.607 1172.89 371.679 1196.96 C 370.96 1201.39 369.637 1206.45 369.731 1210.96 C 370.476 1247.08 371.977 1275.19 408.497 1289.86 z" fill="rgb(195,144,127)" transform="translate(0,0)"></path>
<path d="M 452.075 1413.34 C 467.623 1426.03 483.444 1438.37 499.528 1450.37 C 481.646 1449.55 469.675 1446.87 451.861 1443.37 C 432.085 1495.09 413.675 1548.54 394.316 1600.59 C 383.764 1628.18 373.542 1655.9 363.651 1683.74 C 360.5 1692.61 355.656 1704.62 353.118 1713.21 C 363.11 1731.75 372.641 1744.33 389.148 1757.68 C 390.607 1758.86 398.518 1765.27 399.212 1766.1 L 398.238 1769.13 C 394.691 1766.48 391.201 1763.76 387.77 1760.97 C 354.919 1733.71 344.273 1711.54 340.364 1670.53 L 338.207 1666.84 C 345.515 1653.53 360.41 1648.88 374.011 1645.52 C 399.389 1571.28 429.655 1495.33 456.143 1420.97 L 448.487 1414.97 L 452.075 1413.34 z" fill="rgb(14,9,8)" transform="translate(0,0)"></path>
<path d="M 605.472 1674 L 608.927 1674 L 592.345 1747.38 C 603.538 1757.44 611.586 1765.13 612.874 1780.89 C 609.881 1784.42 611.886 1786.52 610.763 1791.84 L 610.55 1789.81 L 607.29 1788.99 C 593.511 1810.26 561.517 1813.29 538.215 1814.89 L 534.086 1811.87 C 550.221 1810.59 561.367 1809.24 577.117 1805.66 C 584.867 1761.31 595.899 1717.99 605.472 1674 z" fill="url(#Gradient3)" transform="translate(0,0)"></path>
<path d="M 607.29 1788.99 C 607.773 1787.92 608.726 1785.33 609.593 1784.65 C 610.729 1784.56 610.525 1789.2 610.55 1789.81 L 607.29 1788.99 z" fill="rgb(176,110,91)" transform="translate(0,0)"></path>
<path d="M 703.025 1372.44 C 740.809 1385.87 768.295 1384.73 805.754 1372.28 C 814.33 1396 827.128 1429.63 847.121 1445.9 C 849.771 1454.12 852.529 1468.22 854.509 1477.03 L 866.914 1531.82 C 883.206 1602.68 899.177 1677.96 916.742 1747.96 C 905.172 1756.71 897.444 1765.45 895.107 1780.34 C 894.97 1781.23 894.87 1782.12 894.808 1783.02 C 894.603 1810.64 907.083 1829.79 919.656 1853.36 C 931.094 1874.7 942.696 1895.96 954.461 1917.13 C 850.768 1919.73 745.975 1916.46 642.19 1917.36 C 613.014 1917.61 583.326 1917.79 554.173 1917.39 C 566.65 1895.38 578.755 1873.17 590.482 1850.76 C 600.776 1830.98 616.859 1803.51 612.874 1780.89 C 611.586 1765.13 603.538 1757.44 592.345 1747.38 L 608.927 1674 C 620.43 1625.53 631.657 1577 642.61 1528.41 C 648.451 1502.77 654.219 1475.51 661.379 1450.2 C 663.568 1442.47 675 1432.45 679.66 1424.74 C 689.844 1407.9 696.672 1390.94 703.025 1372.44 z" fill="rgb(233,109,87)" transform="translate(0,0)"></path>
<path d="M 340.364 1670.53 C 344.273 1711.54 354.919 1733.71 387.77 1760.97 C 391.201 1763.76 394.691 1766.48 398.238 1769.13 L 399.212 1766.1 C 442.754 1795.5 480.821 1811.48 534.086 1811.87 L 538.215 1814.89 C 561.517 1813.29 593.511 1810.26 607.29 1788.99 L 610.55 1789.81 L 610.763 1791.84 C 603.792 1824.92 584.797 1853.04 569.391 1882.78 C 560.529 1898.55 552.413 1915.54 542.68 1930.74 C 522.08 1961.6 477.445 1968.42 441.9 1964.2 C 386.896 1957.68 319.873 1922.21 294.234 1870.95 C 288.483 1859.46 283.151 1812.81 284.769 1799.43 C 287.777 1774.53 297.32 1752.48 317.622 1736.48 C 315.703 1746.65 307.313 1797.76 309.866 1804.43 C 315.665 1797.17 320.077 1698.11 340.364 1670.53 z" fill="rgb(233,109,87)" transform="translate(0,0)"></path>
<path d="M 399.212 1766.1 C 442.754 1795.5 480.821 1811.48 534.086 1811.87 L 538.215 1814.89 C 483.986 1816.75 442.076 1798.97 398.238 1769.13 L 399.212 1766.1 z" fill="rgb(14,9,8)" transform="translate(0,0)"></path>
<path d="M 1167.04 1668.11 C 1185.79 1694.14 1190.84 1767.58 1197.54 1800.65 C 1198.12 1803.53 1198.29 1803.89 1200.04 1804.32 C 1201.82 1799.7 1192.16 1743.61 1190.87 1735.03 C 1211.47 1751.97 1222.25 1774.16 1224.72 1800.84 C 1226.04 1815.18 1220.55 1857.59 1215.07 1870.9 C 1211.79 1878.87 1206.28 1886.21 1200.77 1892.76 C 1166.44 1933.54 1112.82 1960.42 1059.78 1964.81 C 1031.36 1967.16 998.947 1962.46 976.688 1943.27 C 963.285 1931.72 912.289 1834.69 903.853 1814.09 C 900.888 1806.85 898.514 1799.1 898.036 1791.25 C 897.877 1788.64 898.031 1786.04 898.241 1783.44 C 903.516 1791.9 907.531 1799.23 917.349 1803.29 C 989.395 1833.08 1076.87 1802.89 1131.5 1751.81 C 1156.54 1728.4 1166.82 1701.75 1167.04 1668.11 z" fill="rgb(233,109,87)" transform="translate(0,0)"></path>
<path d="M 1142.42 1336.02 C 1232.88 1457.06 1236.78 1640.1 1227.93 1785.89 L 1224.92 1785.23 C 1221.12 1763.7 1206.5 1737.46 1188.84 1724.08 C 1184.73 1705.42 1180.83 1679.08 1168.49 1665.08 C 1158.01 1653.17 1150.19 1649.55 1134.84 1646.49 C 1127.54 1629.1 1121.06 1609.46 1114.69 1591.6 L 1090.43 1524.96 L 1089.1 1521.64 C 1077.67 1488.35 1064.58 1454.31 1052.67 1420.86 C 1059.2 1416.07 1066.18 1410.11 1072.51 1404.95 C 1093.72 1385.84 1114.45 1366.3 1133.71 1345.23 C 1136.56 1342.11 1139.41 1338.98 1142.42 1336.02 z" fill="rgb(233,109,87)" transform="translate(0,0)"></path>
<path d="M 366.394 1335.9 C 394.918 1366.57 416.232 1387.77 448.487 1414.97 L 456.143 1420.97 C 429.655 1495.33 399.389 1571.28 374.011 1645.52 C 360.41 1648.88 345.515 1653.53 338.207 1666.84 C 328.796 1679 323.384 1707.83 319.971 1723.57 C 291.073 1751.8 292.752 1760.5 281.516 1794.11 C 274.085 1697.39 276.183 1604.12 294.116 1508.5 C 305.892 1445.7 328.46 1387.56 366.394 1335.9 z" fill="rgb(233,109,87)" transform="translate(0,0)"></path>
<path d="M 681.26 1139.43 C 695.638 1145.08 712.675 1149.28 728.046 1150.52 C 764.706 1153.19 801.028 1141.96 829.79 1119.07 C 838.668 1111.87 845.724 1102.43 854.157 1095.5 C 853.763 1107.09 853.602 1119.92 854.242 1131.51 C 839.087 1135.02 823.411 1141.4 815.638 1156.56 C 800.782 1185.54 786.947 1234.94 784.45 1267.47 C 783.598 1278.58 788.847 1305.04 791.087 1315.43 C 763.408 1321.06 746.957 1322.43 718.783 1315.41 C 727.932 1267.62 724.655 1239.86 708.13 1193.92 C 701.582 1175.72 698.111 1156.79 682.434 1143.5 L 681.26 1139.43 z" fill="rgb(195,144,127)" transform="translate(0,0)"></path>
<path d="M 671.525 1137.24 C 670.863 1136.73 670.977 1136.93 670.879 1136.64 C 672.066 1135.83 679.69 1138.91 681.26 1139.43 L 682.434 1143.5 C 680.007 1142.16 673.694 1138.61 671.525 1137.24 z" fill="rgb(176,110,91)" transform="translate(0,0)"></path>
<path d="M 1224.92 1785.23 L 1227.93 1785.89 C 1227.95 1787 1227.24 1795.64 1225.86 1789.62 C 1225.53 1788.16 1225.22 1786.7 1224.92 1785.23 z" fill="rgb(176,110,91)" transform="translate(0,0)"></path>
<path d="M 718.556 1318.69 C 746.028 1325.68 764.41 1323.84 791.468 1318.95 C 793.933 1335.58 799.225 1353.53 804.799 1369.35 L 790.818 1373.6 C 758.984 1382.79 734.572 1379.36 704.177 1369.52 C 710.522 1352.19 714.615 1336.64 718.556 1318.69 z" fill="rgb(233,109,87)" transform="translate(0,0)"></path>
<path d="M 1152.11 1142.55 C 1159.52 1144.08 1166.58 1171.91 1165.34 1173.5 C 1164.48 1173.84 1162.07 1173.51 1161.03 1173.52 C 1147.3 1167.94 1137.48 1153.41 1152.11 1142.55 z" fill="rgb(195,144,127)" transform="translate(0,0)"></path>
<path d="M 352.54 1143.26 C 371.058 1145.35 366.086 1161.67 353.656 1170.45 C 351.286 1171.37 347.578 1172.88 344.965 1172.98 C 344.433 1173 343.55 1172.55 343.562 1172.36 C 343.959 1166.01 350.485 1148.45 352.54 1143.26 z" fill="rgb(195,144,127)" transform="translate(0,0)"></path>
<path d="M 762.709 368.457 C 773.085 359.935 795.259 352.627 808.35 349.605 C 864.799 336.575 924.39 359.591 960.278 404.313 C 973.698 421.037 984.068 439.043 1000.74 452.984 C 1028.59 477.31 1065.45 491.498 1085.67 524.053 C 1111.94 557.622 1119.58 604.638 1114.48 646.178 C 1112.71 661.421 1109.37 676.44 1104.52 690.997 C 1093.25 723.134 1079.11 753.559 1054.03 777.574 C 1059.54 780.787 1065.15 783.818 1069.28 788.783 C 1105.68 827.095 1080.24 886.1 1046.73 916.819 C 1025.23 936.527 1002.47 946.921 973.448 949.313 C 958.843 983.28 942.742 1008.11 914.646 1033 C 898.8 1047.1 875.548 1064.49 857.518 1076.42 C 857.075 1086.82 857.76 1113.87 856.801 1121.77 C 855.89 1120.4 855.547 1099.49 855.387 1096 L 854.157 1095.5 C 845.724 1102.43 838.668 1111.87 829.79 1119.07 C 801.028 1141.96 764.706 1153.19 728.046 1150.52 C 712.675 1149.28 695.638 1145.08 681.26 1139.43 C 679.69 1138.91 672.066 1135.83 670.879 1136.64 C 670.977 1136.93 670.863 1136.73 671.525 1137.24 L 669.454 1139.79 C 656.533 1135.23 653.965 1134.8 640.587 1134.64 C 642.352 1145.48 651.214 1206.31 649.916 1213.1 L 648.625 1213.79 C 643.487 1205.66 640.718 1137.67 633.111 1120.36 C 628.746 1110.33 620.53 1102.47 610.312 1098.56 C 593.919 1092.23 578.583 1096.03 563.298 1102.83 L 562.669 1100.17 C 585.306 1084.03 624.635 1092.17 636.432 1118.06 C 638.342 1122.25 639.541 1126.6 640.765 1131.03 L 653.095 1131.27 C 654.03 1113.53 653.886 1095.99 653.923 1078.23 C 616.92 1053.03 578.517 1024.04 554.295 985.631 C 547.908 975.503 540.552 960.46 534.916 949.567 C 527.109 948.923 519.383 947.522 511.847 945.384 C 479.874 936.229 452.03 912.549 436.138 883.531 C 416.307 847.322 414.112 799.723 455.127 777.906 C 427.713 750.996 397.734 689.864 396.022 652.04 C 388.515 615.79 395.826 568.936 414.504 536.928 C 415.498 534.134 421.237 525.918 423.015 523.242 C 445.1 490.008 478.262 478.742 507.069 454.119 C 523.916 439.719 533.633 423.14 546.945 406.111 C 572.321 373.62 609.512 352.477 650.411 347.292 C 678.52 343.873 721.625 350.14 744.15 367.713 C 747.927 369.574 750.322 371.337 753.798 373.607 C 756.803 371.789 759.559 370.048 762.709 368.457 z" fill="rgb(195,144,127)" transform="translate(0,0)"></path>
<path d="M 762.709 368.457 C 773.085 359.935 795.259 352.627 808.35 349.605 C 864.799 336.575 924.39 359.591 960.278 404.313 C 973.698 421.037 984.068 439.043 1000.74 452.984 C 1028.59 477.31 1065.45 491.498 1085.67 524.053 C 1111.94 557.622 1119.58 604.638 1114.48 646.178 C 1112.71 661.421 1109.37 676.44 1104.52 690.997 L 1101.43 687.759 C 1087.22 714.036 1061.6 728.709 1031.68 721.759 C 971.915 707.878 923.245 651.283 905.755 594.145 C 896.72 564.629 900.252 533.294 880.021 507.141 C 858.398 478.142 824.516 466.35 790.261 479.41 C 776.173 484.781 766.07 493.023 754.181 501.728 C 753.648 460.51 754.116 418.654 753.878 377.317 C 756.596 374.166 763.866 371.538 762.709 368.457 z" fill="rgb(86,57,27)" transform="translate(0,0)"></path>
<path d="M 1085.67 524.053 C 1111.94 557.622 1119.58 604.638 1114.48 646.178 C 1112.71 661.421 1109.37 676.44 1104.52 690.997 L 1101.43 687.759 C 1111.35 666.45 1114.74 623.417 1113.58 600.03 C 1112.35 575.056 1097.93 546.516 1084.97 525.484 L 1085.67 524.053 z" fill="rgb(14,9,8)" transform="translate(0,0)"></path>
<path d="M 414.504 536.928 C 415.498 534.134 421.237 525.918 423.015 523.242 C 445.1 490.008 478.262 478.742 507.069 454.119 C 523.916 439.719 533.633 423.14 546.945 406.111 C 572.321 373.62 609.512 352.477 650.411 347.292 C 678.52 343.873 721.625 350.14 744.15 367.713 C 747.927 369.574 750.322 371.337 753.798 373.607 C 756.803 371.789 759.559 370.048 762.709 368.457 C 763.866 371.538 756.596 374.166 753.878 377.317 L 751.583 378.109 C 750.199 385.124 750.894 406.871 750.802 415.27 C 750.488 443.743 751.416 472.881 750.947 501.305 C 715.507 468.23 670.445 461.849 633.891 499.481 C 609.11 524.993 612.543 549.153 607.131 580.341 C 598.068 620.646 581.481 645.748 554.817 675.705 C 531.772 697.885 503.46 717.94 471.076 722.5 C 455.587 724.681 440.537 722.025 428.043 712.298 C 403.081 692.863 400.592 662.595 396.655 633.702 C 395.425 641.465 396.734 648.601 396.022 652.04 C 388.515 615.79 395.826 568.936 414.504 536.928 z" fill="rgb(86,57,27)" transform="translate(0,0)"></path>
<path d="M 414.504 536.928 C 414.683 540.621 403.469 567.698 401.711 575.769 C 397.092 596.974 396.02 612.124 396.655 633.702 C 395.425 641.465 396.734 648.601 396.022 652.04 C 388.515 615.79 395.826 568.936 414.504 536.928 z" fill="rgb(14,9,8)" transform="translate(0,0)"></path>
<path d="M 744.15 367.713 C 747.927 369.574 750.322 371.337 753.798 373.607 C 756.803 371.789 759.559 370.048 762.709 368.457 C 763.866 371.538 756.596 374.166 753.878 377.317 L 751.583 378.109 C 750.383 375.703 750.002 372.914 747.58 371.778 C 744.82 370.483 743.487 370.506 744.15 367.713 z" fill="rgb(14,9,8)" transform="translate(0,0)"></path>
<path d="M 396.022 652.04 C 396.734 648.601 395.425 641.465 396.655 633.702 C 400.592 662.595 403.081 692.863 428.043 712.298 C 440.537 722.025 455.587 724.681 471.076 722.5 C 503.46 717.94 531.772 697.885 554.817 675.705 L 558.326 676.45 C 543.219 691.539 530.964 701.359 512.093 711.878 C 501.194 802.342 511.788 929.226 571.075 1002.95 C 604.691 1044.76 684.786 1104.28 739.741 1112.1 C 796.694 1120.19 870.567 1068.82 911.251 1031.55 L 914.646 1033 C 898.8 1047.1 875.548 1064.49 857.518 1076.42 C 857.075 1086.82 857.76 1113.87 856.801 1121.77 C 855.89 1120.4 855.547 1099.49 855.387 1096 L 854.157 1095.5 C 845.724 1102.43 838.668 1111.87 829.79 1119.07 C 801.028 1141.96 764.706 1153.19 728.046 1150.52 C 712.675 1149.28 695.638 1145.08 681.26 1139.43 C 679.69 1138.91 672.066 1135.83 670.879 1136.64 C 670.977 1136.93 670.863 1136.73 671.525 1137.24 L 669.454 1139.79 C 656.533 1135.23 653.965 1134.8 640.587 1134.64 C 642.352 1145.48 651.214 1206.31 649.916 1213.1 L 648.625 1213.79 C 643.487 1205.66 640.718 1137.67 633.111 1120.36 C 628.746 1110.33 620.53 1102.47 610.312 1098.56 C 593.919 1092.23 578.583 1096.03 563.298 1102.83 L 562.669 1100.17 C 585.306 1084.03 624.635 1092.17 636.432 1118.06 C 638.342 1122.25 639.541 1126.6 640.765 1131.03 L 653.095 1131.27 C 654.03 1113.53 653.886 1095.99 653.923 1078.23 C 616.92 1053.03 578.517 1024.04 554.295 985.631 C 547.908 975.503 540.552 960.46 534.916 949.567 C 527.109 948.923 519.383 947.522 511.847 945.384 C 479.874 936.229 452.03 912.549 436.138 883.531 C 416.307 847.322 414.112 799.723 455.127 777.906 C 427.713 750.996 397.734 689.864 396.022 652.04 z" fill="rgb(34,25,23)" transform="translate(0,0)"></path>
<path d="M 534.076 946.252 C 522.638 944.611 513.155 942.766 502.297 938.361 C 471.414 925.477 446.837 900.965 433.871 870.116 C 419.063 834.494 423.828 781.67 472.772 778.345 C 484.031 777.58 493.618 779.71 503.912 784.295 C 503.854 794.579 504.6 803.447 505.41 813.706 C 500.321 809.907 496.093 807.428 489.658 806.557 C 481.354 805.432 472.948 807.702 466.34 812.853 C 442.814 830.972 460.497 857.172 474.002 874.212 L 476.719 874.018 C 440.057 830.565 502.605 805.104 506.864 831.621 C 513.427 872.493 520.495 906.692 534.076 946.252 z" fill="rgb(195,144,127)" transform="translate(0,0)"></path>
<path d="M 476.719 874.018 C 477.234 874.759 478.022 875.557 477.847 876.523 C 476.7 877.244 474.73 874.914 474.002 874.212 L 476.719 874.018 z" fill="rgb(96,66,57)" transform="translate(0,0)"></path>
<path d="M 751.583 378.109 L 753.878 377.317 C 754.116 418.654 753.648 460.51 754.181 501.728 C 766.07 493.023 776.173 484.781 790.261 479.41 C 824.516 466.35 858.398 478.142 880.021 507.141 C 900.252 533.294 896.72 564.629 905.755 594.145 C 923.245 651.283 971.915 707.878 1031.68 721.759 C 1061.6 728.709 1087.22 714.036 1101.43 687.759 L 1104.52 690.997 C 1093.25 723.134 1079.11 753.559 1054.03 777.574 C 1059.54 780.787 1065.15 783.818 1069.28 788.783 L 1067.83 792.054 C 1056.4 781.56 1046.29 777.38 1030.38 777.988 C 1021.57 778.404 1012.91 780.381 1004.79 783.826 C 1004.52 791.188 1004.37 805.577 1002.69 812.242 L 999.591 815.213 C 1001.72 776.572 1002.06 751.377 997.111 712.68 C 943.869 680.408 904.986 631.226 896.324 568.258 C 891.796 563.115 886.956 558.256 881.832 553.706 C 804.705 485.933 680.947 490.352 612.515 568.371 L 610.671 578.796 C 610.553 576.986 610.86 577.812 609.695 576.337 L 607.131 580.341 C 612.543 549.153 609.11 524.993 633.891 499.481 C 670.445 461.849 715.507 468.23 750.947 501.305 C 751.416 472.881 750.488 443.743 750.802 415.27 C 750.894 406.871 750.199 385.124 751.583 378.109 z" fill="rgb(34,25,23)" transform="translate(0,0)"></path>
<path d="M 1004.79 783.826 C 1012.91 780.381 1021.57 778.404 1030.38 777.988 C 1046.29 777.38 1056.4 781.56 1067.83 792.054 L 1069.28 788.783 C 1105.68 827.095 1080.24 886.1 1046.73 916.819 C 1025.23 936.527 1002.47 946.921 973.448 949.313 C 958.843 983.28 942.742 1008.11 914.646 1033 L 911.251 1031.55 C 940.718 1005.96 958.326 977.894 972.693 942.351 C 990.843 892.07 993.305 865.893 999.591 815.213 L 1002.69 812.242 C 1004.37 805.577 1004.52 791.188 1004.79 783.826 z" fill="rgb(195,144,127)" transform="translate(0,0)"></path>
<path d="M 1002.69 812.242 L 1003.65 813.797 C 1011.06 810.017 1014.94 805.987 1023.68 805.88 C 1045.7 805.608 1059.03 828.319 1051.52 848.141 C 1048.49 856.122 1039.78 870.359 1032.72 875.126 C 1033.94 871.801 1036.72 868.566 1038.78 865.557 C 1048.56 851.255 1042.85 826.8 1025.04 821.25 C 1019.76 819.634 1014.06 820.216 1009.22 822.863 C 1006.44 824.418 1003.79 826.959 1001.45 829.137 C 998.431 862.421 988.592 915.145 974.298 945.718 L 972.693 942.351 C 990.843 892.07 993.305 865.893 999.591 815.213 L 1002.69 812.242 z" fill="url(#Gradient2)" transform="translate(0,0)"></path>
<path d="M 1069.28 788.783 C 1105.68 827.095 1080.24 886.1 1046.73 916.819 C 1025.23 936.527 1002.47 946.921 973.448 949.313 C 958.843 983.28 942.742 1008.11 914.646 1033 L 911.251 1031.55 C 940.718 1005.96 958.326 977.894 972.693 942.351 L 974.298 945.718 C 997.317 943.525 1018.13 936.067 1036.22 921.364 C 1073.57 890.995 1102.43 834.997 1067.83 792.054 L 1069.28 788.783 z" fill="rgb(14,9,8)" transform="translate(0,0)"></path>
<path d="M 607.131 580.341 L 609.695 576.337 C 610.86 577.812 610.553 576.986 610.671 578.796 C 603.063 616.446 584.837 648.897 558.326 676.45 L 554.817 675.705 C 581.481 645.748 598.068 620.646 607.131 580.341 z" fill="rgb(14,9,8)" transform="translate(0,0)"></path>
<path d="M 740.728 926.891 C 767.058 922.999 821.993 929.01 841.896 947.576 C 854.16 958.066 848.546 971.137 839.738 981.435 C 839.246 982.006 838.75 982.574 838.251 983.139 C 796.895 1021.95 719.03 1025.1 676.264 987.21 C 663.608 979.121 653.201 959.422 667.04 947.531 C 683.997 932.961 718.604 926.794 740.728 926.891 z" fill="rgb(255,255,255)" transform="translate(0,0)"></path>
<path d="M 679.927 967.674 C 714.28 967.988 748.636 968.028 782.99 967.794 C 792.762 967.769 821.169 966.97 829.602 967.998 L 829.911 969.881 C 831.912 972.978 834.504 977.341 836.02 980.67 C 836.768 981.516 837.468 982.324 838.251 983.139 C 796.895 1021.95 719.03 1025.1 676.264 987.21 L 679.425 985.836 C 677.715 984.395 676.211 982.944 674.596 981.409 C 674.095 977.284 676.684 974.34 678.972 970.206 L 679.927 967.674 z" fill="rgb(255,255,255)" transform="translate(0,0)"></path>
<path d="M 836.02 980.67 C 836.768 981.516 837.468 982.324 838.251 983.139 C 796.895 1021.95 719.03 1025.1 676.264 987.21 L 679.425 985.836 C 722.753 1020.17 795.48 1018.85 836.02 980.67 z" fill="rgb(14,9,8)" transform="translate(0,0)"></path>
<path d="M 679.927 967.674 C 714.28 967.988 748.636 968.028 782.99 967.794 C 792.762 967.769 821.169 966.97 829.602 967.998 L 829.911 969.881 C 779.6 970.474 729.285 970.582 678.972 970.206 L 679.927 967.674 z" fill="rgb(14,9,8)" transform="translate(0,0)"></path>
<path d="M 676.264 987.21 C 663.608 979.121 653.201 959.422 667.04 947.531 C 683.997 932.961 718.604 926.794 740.728 926.891 C 744.955 927.326 748.006 927.762 752.29 927.486 C 749.694 928.002 747.911 928.119 745.714 929.603 C 719.344 930.757 691.035 933.963 668.71 949.291 C 674.584 955.784 677.775 966.126 679.927 967.674 L 678.972 970.206 C 676.684 974.34 674.095 977.284 674.596 981.409 C 676.211 982.944 677.715 984.395 679.425 985.836 L 676.264 987.21 z" fill="url(#Gradient1)" transform="translate(0,0)"></path>
<path d="M 841.896 947.576 C 854.16 958.066 848.546 971.137 839.738 981.435 C 839.246 982.006 838.75 982.574 838.251 983.139 C 837.468 982.324 836.768 981.516 836.02 980.67 C 834.504 977.341 831.912 972.978 829.911 969.881 L 829.602 967.998 C 831.084 965.183 830.508 964.52 831.507 961.82 C 833.318 956.926 836.169 953.098 839.251 948.961 C 840.127 948.488 841.008 948.026 841.896 947.576 z" fill="rgb(34,25,23)" transform="translate(0,0)"></path>
<path d="M 740.728 926.891 C 767.058 922.999 821.993 929.01 841.896 947.576 C 841.008 948.026 840.127 948.488 839.251 948.961 C 813.032 931.048 776.593 929.023 745.714 929.603 C 747.911 928.119 749.694 928.002 752.29 927.486 C 748.006 927.762 744.955 927.326 740.728 926.891 z" fill="rgb(14,9,8)" transform="translate(0,0)"></path>
<path d="M 862.908 737.15 C 905.212 734.834 928.295 793.678 912.099 804.836 C 900.056 807.711 897.219 786.011 892.038 778.426 C 886.842 770.819 884.322 767.863 876.219 763.202 L 875.02 762.52 C 843.399 755.87 842.028 800.787 830.162 804.01 C 809.797 809.541 822.277 773.221 829.538 763.368 C 840.046 749.107 843.995 742.014 862.908 737.15 z" fill="rgb(34,25,23)" transform="translate(0,0)"></path>
<path d="M 635.784 737.168 C 676.848 734.339 701.217 795.009 685.101 804.068 C 671.789 806.209 670.359 789.416 665.257 780.432 C 659.632 770.528 657.008 767.469 647.118 762.165 C 616.525 755.894 615.275 799.9 604.101 803.713 C 584.062 810.549 593.913 776.468 601.014 765.966 C 611.649 750.235 616.009 742.752 635.784 737.168 z" fill="rgb(34,25,23)" transform="translate(0,0)"></path>
<path d="M 859.873 675.372 C 887.276 671.405 920.565 688.599 936.054 710.66 C 938.202 713.72 940.013 716.391 939.913 720.233 L 938.64 721.384 C 930.186 721.584 921.452 710.975 910.593 704.919 C 884.139 691.726 862.353 693.318 837.527 705.162 C 830.416 707.532 824.373 706.934 822.651 698.999 C 818.895 681.689 846.651 676.922 859.873 675.372 z" fill="rgb(34,25,23)" transform="translate(0,0)"></path>
<path d="M 632.332 675.261 C 645.803 673.821 682.162 678.358 686.436 693.388 C 687.176 696.071 686.822 698.937 685.452 701.359 C 678.105 714.375 658.297 697.699 645.122 696.46 C 631.922 695.218 626.922 694.864 613.406 698.547 C 607.39 700.67 602.653 702.673 597.12 705.777 C 589.954 709.796 579.904 719.86 572.224 721.058 C 567.742 719.052 570.381 713.11 572.696 710.256 C 588.464 690.821 607.611 679.363 632.332 675.261 z" fill="rgb(34,25,23)" transform="translate(0,0)"></path>
<path d="M 768.796 888.63 C 749.159 895.677 706.308 891.777 707.485 862.128 C 708.214 843.783 727.874 839.263 739.497 830.578 C 752.805 820.633 741.697 790.688 742.631 777.476 L 743.728 777.211 C 749.003 784.527 752.721 825.043 743.67 831.217 C 740.273 833.534 729.732 840.386 725.971 842.453 C 705.238 853.85 705.219 871.326 724.68 883.987 C 737.092 891.776 753.884 890.807 768.246 887.188 L 768.796 888.63 z" fill="rgb(14,9,8)" transform="translate(0,0)"></path>
<path d="M 768.246 887.188 C 769.81 886.526 777.046 883.314 778.412 883.591 C 778.477 883.676 778.543 883.762 778.608 883.847 C 778.283 885.784 770.734 888.25 768.796 888.63 L 768.246 887.188 z" fill="rgb(96,66,57)" transform="translate(0,0)"></path>
<path d="M 751.148 93.0915 C 772.256 92.3259 768.048 112.327 771.8 127.163 C 774.103 136.233 778.15 144.768 783.717 152.289 C 807.439 184.328 844.35 175.967 852.116 187.71 C 854.059 190.708 854.612 194.399 853.634 197.835 C 850.32 209.4 831.35 208.145 821.049 210.675 C 813.943 212.468 807.141 215.303 800.865 219.088 C 776.432 233.875 770.013 260.167 767.6 285.841 C 767.165 290.46 762.691 293.56 758.964 295.807 C 738.135 297.112 741.816 275.231 738.059 260.733 C 735.631 251.279 731.36 242.397 725.49 234.599 C 701.927 203.706 664.928 212.249 657.02 200.293 C 655.185 197.479 654.642 194.015 655.527 190.775 C 658.804 178.876 677.895 179.99 688.462 177.144 C 695.429 175.205 702.096 172.316 708.275 168.558 C 732.747 153.671 739.427 128.834 742.2 102.96 C 742.731 98.0018 747.079 95.3425 751.148 93.0915 z" fill="rgb(14,9,8)" transform="translate(0,0)"></path>
<path d="M 752.986 95.8863 C 769.111 98.6969 765.129 113.759 768.415 127.587 C 770.217 135.004 773.133 142.105 777.064 148.647 C 793.141 175.278 815.489 181.503 843.397 184.926 C 848.316 185.529 852.111 192.11 849.73 196.849 C 845.262 205.743 829.788 205.176 820.861 207.179 C 815.413 208.45 810.138 210.371 805.148 212.9 C 774.002 228.446 767.652 255.546 764.087 285.794 C 763.657 289.439 759.188 291.811 755.969 293.163 C 752.589 292.467 749.277 291.554 747.348 288.435 C 744.546 283.905 744.393 276.814 743.663 271.647 C 741.554 256.73 736.718 243.298 727.145 231.468 C 703.099 201.754 667.07 207.572 659.927 198.507 C 658.478 196.668 658.13 194.607 658.767 192.364 C 661.478 182.827 682.475 182.711 690.517 180.374 C 697.344 178.35 703.886 175.468 709.988 171.797 C 725.926 162.07 737.825 143.585 742.288 125.515 C 745.276 113.415 741.345 102.861 752.986 95.8863 z" fill="rgb(233,161,71)" transform="translate(0,0)"></path>
<metadata><recraft-signature>{"signed_by": "recraft", "signature_b64": "uF17y0M/JJr9YRQg9f0RtDaz+/1/wYgDi4Ojc8N1yAq7qQ7ll4xxzEf1olJoFm8+Kitf+ETdhYaTrDNVhf5xCQ==", "signing_algo": "Ed25519", "generation_timestamp": 1779102955, "identifier": "41997ec5-12e2-48f3-b141-b254bacade1c"}</recraft-signature></metadata></svg>