<svg xmlns="http://www.w3.org/2000/svg" height="1280" preserveAspectRatio="none" style="display: block;" version="1.1" viewBox="0 0 1331 2048" width="832">
<path d="M 0 0 L 1331 0 L 1331 2048 L 0 2048 L 0 0 z" fill="rgb(255,255,255)" transform="translate(0,0)"></path>
<path d="M 656.473 488.793 C 674.163 470.203 694.761 481.864 700.153 504.639 C 722.29 513.337 731.5 531.248 712.831 549.664 C 713.642 572.857 706.264 590.947 679.16 582.842 C 673.081 586.021 671.099 587.012 664.575 588.884 L 669.919 604.562 C 670.55 604.705 671.18 604.853 671.808 605.008 C 695.148 610.752 702.998 636.211 690.428 655.994 C 686.083 662.834 681.417 665.648 674.527 669.758 C 669.816 699.105 661.036 713.702 640.535 734.264 C 685.246 725.241 704.657 728.623 749.242 733.139 L 804.113 738.5 C 808.004 725.008 812.312 723.397 826.332 726.575 C 836.797 728.948 854.369 731.145 860.919 740.294 C 864.189 744.861 858.397 761.939 856.883 767.445 C 898.939 776.662 916.988 779.618 953.355 806.442 C 981.255 827.02 966.542 838.539 980.381 854.995 C 994.704 855.87 1007.94 856.842 1022.05 859.506 C 1082.68 870.95 1113.84 908.89 1101.13 971.018 C 1114.17 985.134 1121.94 996.418 1131.02 1013.46 C 1137.06 958.918 1138.39 896.367 1112.71 846.732 C 1010.6 859.499 993.926 770.462 997.485 691.089 C 1075.99 712.319 1152.84 748.997 1116.08 845.015 C 1120.97 855.913 1124.51 864.658 1128.54 875.893 C 1130.81 872.194 1129.89 868.881 1130.87 863.612 C 1133.74 811.157 1139.78 793.129 1156.15 743.716 C 1110.42 713.914 1097.42 655.856 1134.26 613.619 C 1152.98 592.161 1173.14 573.913 1197.04 558.267 C 1215.43 593.704 1233.9 648.379 1222.58 688.697 C 1214.77 716.5 1185.97 736.864 1159.29 745.651 C 1134.57 815.42 1130.21 852.493 1137.13 927.606 C 1145.51 905.614 1148.91 898.7 1162.38 879.541 C 1139.33 808.416 1181.53 767.041 1244.9 749.353 C 1259.61 745.248 1275.92 740.655 1291.17 739.608 C 1290.14 780.445 1283.37 832.837 1252.59 863.115 C 1231.9 883.466 1193.55 889.447 1166.14 881.437 C 1134.22 921.458 1138.06 940.183 1136.59 989.07 C 1136.16 1003.23 1132.24 1024.06 1131.48 1038.7 C 1139.4 1025.63 1143.66 1018.86 1154.58 1008.15 C 1150.13 988.827 1154.51 963.491 1165.17 946.747 C 1192.17 904.355 1246.53 902.043 1291.66 903.183 C 1279.85 963.134 1253.98 1032.85 1177.37 1017.3 C 1169.81 1015.77 1163.35 1013.54 1156.51 1010.01 C 1148.45 1018.96 1137.83 1032.01 1133.16 1043.06 C 1126.83 1058.07 1122.19 1105.82 1122.88 1121.94 C 1123.47 1127.87 1122.28 1135.94 1124.37 1139.81 C 1129.34 1127.71 1133.42 1119.13 1141.14 1108.66 C 1143.21 1105.86 1154.06 1092.08 1154.63 1090.51 C 1171.18 1044.59 1210.72 1023.41 1257.61 1043.4 C 1277.68 1051.95 1303.02 1068.21 1318.85 1086.08 C 1293.5 1109.19 1255.92 1136.53 1220.05 1134.42 C 1191.09 1132.71 1173.28 1117.15 1154.87 1097.22 C 1134.27 1121.11 1120.29 1144.25 1121.56 1176.83 L 1196.32 1176.72 C 1246.84 1176.68 1244.85 1168.58 1245.43 1218.48 C 1245.48 1222.53 1244.13 1227.31 1240.98 1230.16 C 1237.16 1233.66 1231.35 1233.22 1226.23 1233.37 C 1226.26 1274.39 1226.93 1307.31 1205.55 1344.69 C 1199.83 1354.69 1192.36 1362.39 1187.2 1370.68 C 1186.69 1378.05 1189.13 1395.88 1182.73 1400.88 C 1179.67 1403.28 1063.88 1403.66 1052.94 1401.56 C 1050.28 1401.05 1049.05 1400.01 1047.74 1397.6 C 1043.67 1390.14 1046.03 1377.37 1045.93 1369.09 C 1038.68 1371.59 1035.63 1372.45 1028.07 1373.98 L 1027.86 1383.68 C 1028.17 1398.66 1028.31 1413.64 1028.28 1428.63 C 1028.3 1433.27 1028.16 1447.78 1028.93 1451.87 C 1028.73 1453.21 1028.33 1455.94 1027.59 1455.99 C 1015.5 1456.76 975.642 1456.59 965.716 1456.83 L 965.843 1385.49 C 965.727 1381.86 965.911 1378.83 964.63 1375.46 C 958.462 1374.36 940.435 1374.73 933.282 1374.72 C 904.372 1375.4 872.994 1374.82 843.905 1374.8 L 843.911 1392.1 C 890.323 1387.61 927.122 1402.77 925.038 1450.46 C 924.899 1453.65 925.315 1457.5 927.468 1460.33 C 934.656 1469.77 932.092 1488.81 921.596 1494.82 C 894.344 1507.98 851.187 1507.32 822.932 1501.39 L 822.734 1502.86 C 819.888 1523.34 808.661 1524.87 790.473 1528.98 C 744.226 1539.44 695.995 1529.79 649.873 1523.1 C 635.778 1520.69 621.548 1517.89 607.584 1514.92 C 599.79 1513.27 595.193 1512.32 590.704 1505.42 C 587.244 1500.1 588.578 1493.02 588.676 1486.94 C 588.816 1478.23 592.649 1470.17 593.543 1461.61 C 594.936 1448.75 594.321 1435.43 596.462 1422.7 C 596.751 1421.02 599.629 1420.3 601.362 1419.57 C 603.563 1408.93 605.202 1386.63 606.359 1374.88 L 542.937 1374.78 C 549.453 1397.25 556.272 1419.62 563.39 1441.9 C 568.81 1459.02 582.231 1491.05 574.394 1507.33 C 570.758 1514.8 564.322 1520.52 556.485 1523.27 C 518.831 1536.47 511.661 1484.35 504.517 1460.16 C 495.992 1431.39 487.187 1402.7 478.103 1374.11 C 448.965 1375.41 417.379 1374.84 388.043 1374.85 L 388.301 1489 C 388.338 1505.85 388.972 1525.4 387.578 1542.2 C 387.141 1547.46 382.724 1555.12 378.907 1559.03 C 373.362 1564.79 365.742 1568.08 357.75 1568.18 C 349.541 1568.19 341.666 1564.93 335.866 1559.12 C 324.211 1547.54 326.61 1533.48 326.441 1518.44 C 326.325 1508.09 326.435 1497.71 326.426 1487.36 L 326.09 1374.84 L 254.013 1374.86 C 253.599 1376.62 253.153 1378.37 252.674 1380.11 C 251.421 1384.64 249.794 1389.73 248.254 1394.22 C 235.191 1432.31 225.527 1471.96 211.179 1509.5 C 209.685 1513.4 203.252 1518.91 199.589 1520.94 C 192.288 1524.95 183.673 1525.83 175.709 1523.39 C 143.379 1513.48 156.885 1477.97 163.844 1456.14 C 150.813 1456.22 137.403 1455.9 124.343 1455.75 L 124.156 1370.1 C 115.32 1366.81 108.803 1363.19 101.363 1357.32 C 65.622 1329.14 69.0342 1295.07 69.0211 1254.63 L 69.0392 1179.41 L 69.0024 1111.47 C 69.0036 1099.9 68.4348 1080.09 70.2796 1069.2 C 72.7683 1053.6 79.2868 1038.91 89.1904 1026.6 C 106.03 1005.69 127.159 996.634 153.126 993.796 L 153.07 980.121 C 152.986 924.774 163.742 882.797 204.533 842.091 C 232.262 814.188 268.873 796.857 308.031 793.099 C 321.533 791.931 341.535 792.631 355.512 792.555 L 437.716 792.273 C 460.829 774.771 479.858 764.787 504.935 750.55 C 509.118 742.84 512.182 739.177 518.609 733.271 C 506.755 723.867 502.212 717.177 493.849 704.877 C 476.673 705.32 462.45 699.357 455.36 682.579 C 451.477 673.205 451.447 662.678 455.276 653.282 C 459.908 641.939 466.8 637.114 477.547 632.697 C 479.16 616.389 480.452 609.796 485.583 594.338 C 482.244 592.546 479.664 590.25 475.677 592.007 C 450.11 603.276 433.215 582.503 439.123 558.742 C 424.959 541.312 428.716 521.48 451.095 514.912 C 454.338 503.547 459.578 492.536 472.944 490.242 C 486.63 487.892 492.548 495.497 501.82 502.395 C 503.535 503.671 522.282 500.492 525.558 506.099 C 538.921 517.116 532.88 525.537 534.595 538.796 C 537.673 542.341 540.031 541.221 545.717 539.237 C 567.222 531.729 585.012 531.286 607.232 537.886 C 608.559 535.314 614.699 526.466 614.658 526.942 C 615.465 517.417 609.738 515.838 614.245 503.75 C 616.877 496.689 621.387 491.131 628.373 488.148 C 639.219 483.519 646.167 484.998 656.473 488.793 z" fill="rgb(2,2,2)" transform="translate(0,0)"></path>
<path d="M 1122.88 1121.94 C 1123.47 1127.87 1122.28 1135.94 1124.37 1139.81 C 1124.08 1141.11 1123.91 1142.71 1122.64 1143.45 C 1121.16 1142.18 1122.48 1124.89 1122.88 1121.94 z" fill="rgb(208,203,203)" transform="translate(0,0)"></path>
<path d="M 1128.54 875.893 C 1130.81 872.194 1129.89 868.881 1130.87 863.612 C 1130.95 865.861 1131.59 879.876 1130.28 880.529 C 1128.9 880.015 1128.8 877.104 1128.54 875.893 z" fill="rgb(208,203,203)" transform="translate(0,0)"></path>
<path d="M 533.302 1039.93 C 540.477 1043.16 575.786 1052.05 583.09 1051.57 C 593.574 1050.89 607.24 1046.34 619.847 1049.67 C 636.806 1054.14 642.336 1067.59 656.291 1074.89 C 663.916 1078.88 668.184 1072.43 673.957 1069.87 C 675.569 1069.15 678.119 1069.34 679.79 1070.35 C 687.82 1074.86 692.384 1060.38 699.015 1059.82 C 706.026 1059.23 707.052 1053.24 708.402 1047.77 C 735.659 1060.7 755.34 1076.34 767.175 1105.08 C 772.6 1118.26 775.817 1132.7 777.476 1146.82 C 781.005 1176.88 782.491 1299.75 771.628 1325.32 C 766.832 1336.61 756.608 1343.64 745.459 1347.93 C 707.882 1362.37 651.922 1356.9 615.637 1340.8 C 604.407 1335.78 595.895 1331.81 585.76 1324.87 C 601.085 1321.23 613.31 1317.61 622.929 1304.71 C 623.731 1295.46 623.534 1276.75 623.417 1267.21 C 614.61 1256.99 607.863 1254.66 595.617 1250.06 C 598.363 1238.88 617.415 1150.18 616.149 1142.77 C 612.208 1145.48 608.042 1170.27 606.711 1176.56 C 584.306 1177.08 561.9 1175.58 539.765 1172.08 C 476.999 1162.29 418.454 1136.02 430.457 1060.24 C 440.405 1057.24 450.408 1054.42 460.461 1051.79 C 461.574 1052.48 462.707 1053.13 463.859 1053.75 C 471.46 1057.82 508.077 1071.32 516.326 1067.5 C 524.299 1063.81 529.165 1048.59 533.302 1039.93 z" fill="rgb(164,149,192)" transform="translate(0,0)"></path>
<path d="M 306.844 796.393 C 314.488 795.229 340.382 795.773 349.619 795.789 L 435.027 795.955 C 418.53 816.901 399.72 866.65 386.959 892.129 C 378.774 908.471 366.935 934.796 360.708 952.09 C 356.23 964.527 358.965 985.905 366.248 997.752 C 379.955 1020.05 399.003 1024.13 422.161 1030.28 C 420.382 1041.99 420.271 1048.39 427.225 1057.99 C 425.384 1069.64 424.909 1077.12 425.139 1088.75 C 414.19 1090.57 396.883 1091.67 385.262 1092.9 C 365.604 1095 346.026 1097.78 326.565 1101.26 C 300.143 1105.87 266.678 1112.96 245.956 1130.7 C 246.011 1092.43 250.393 1053.43 222.916 1023.14 C 204.009 1002.29 183.189 995.771 156.265 993.966 C 156.942 939.815 156.631 907.855 192.199 861.037 C 220.253 824.107 260.984 802.13 306.844 796.393 z" fill="rgb(220,191,177)" transform="translate(0,0)"></path>
<path d="M 924.886 1371.69 L 924.815 1164.99 C 924.808 1145.34 924.925 1125.47 924.79 1105.72 C 924.605 1078.8 923.601 1062.33 937.688 1038.3 C 965.043 991.642 1031.78 983.843 1069.67 1022.59 C 1080.82 1033.93 1088.57 1048.18 1092.02 1063.7 C 1095.12 1077.68 1094.55 1098.17 1094.6 1112.87 C 1094.63 1139.45 1094.45 1166.03 1094.06 1192.61 C 1093.81 1223.52 1094.51 1254.59 1094.32 1285.49 C 1094.16 1310.74 1087.53 1332 1068.77 1349.8 C 1053.57 1364.22 1037.73 1370.77 1016.99 1371.71 C 1001.13 1371.06 981.569 1371.5 965.408 1371.41 L 924.886 1371.69 z" fill="rgb(220,191,177)" transform="translate(0,0)"></path>
<path d="M 706.747 829.878 C 730.739 831.196 758.422 832.295 781.835 834.374 C 784.007 837.955 785.755 840.793 790.117 842.269 C 800.958 845.939 819.29 852.983 830.319 848.446 C 835.486 846.32 836.99 841.767 838.891 837.223 C 848.755 841.587 858.338 846.559 867.586 852.111 C 875.163 856.722 894.909 871.693 902.419 872.082 C 929.637 873.49 917.341 850.079 909.449 839.719 C 929.339 845.711 942.877 862.84 962.537 864.305 C 970.332 864.886 970.739 857.716 974.082 853.724 L 974.991 854.635 C 998.355 878.214 1013.23 919.112 1015.57 951.866 C 1016.55 965.575 1016.18 980.513 1016.11 994.326 C 995.007 993.556 980.43 997.612 962.517 1008.08 C 916.072 1037.21 920.838 1083.48 921.308 1130.16 C 908.757 1119.26 892.337 1114.58 876.72 1110 C 856.364 1042.96 832.362 1021.01 763.018 1006.71 C 751.575 1004.35 734.29 998.411 722.572 994.892 C 718.002 940.197 711.979 884.616 706.747 829.878 z" fill="rgb(220,191,177)" transform="translate(0,0)"></path>
<path d="M 153.102 997.403 C 153.715 997.373 154.327 997.355 154.94 997.348 C 177.817 996.96 199.916 1005.64 216.408 1021.5 C 227.969 1032.9 236.115 1047.3 239.927 1063.07 C 244.051 1080.58 242.409 1115.78 242.389 1135.31 L 242.678 1233.85 C 214.836 1234.43 146.073 1244.33 122.233 1258.7 C 118.191 1261.14 113.356 1266.83 113.526 1271.09 C 113.942 1281.53 110.848 1300.25 117.179 1308.42 C 129.596 1324.44 171.153 1329.91 190.232 1333.01 L 202.33 1334.73 C 197.917 1345.62 193.913 1359.72 190.36 1371.14 C 158.453 1372.9 128.049 1375.54 101.766 1353.19 C 67.972 1324.45 72.4104 1291.87 72.4565 1252.07 L 72.5061 1177.32 L 72.4424 1111.14 C 72.4379 1100.41 72.187 1089.54 72.7865 1078.83 C 75.3092 1033.78 108.762 1000.91 153.102 997.403 z" fill="rgb(220,191,177)" transform="translate(0,0)"></path>
<path d="M 503.849 754.99 C 503.419 760.029 502.765 764.318 503.714 769.341 C 508.872 796.662 552.479 826.643 575.243 842.045 C 581.989 832.671 590.725 816.58 597.635 805.969 C 598.035 804.947 598.298 803.702 599.466 803.574 C 600.064 804.126 600.013 805.046 600.158 805.802 C 600.906 824.556 602.884 843.963 604.295 862.768 C 606.894 898.956 609.819 935.12 613.069 971.255 L 612.304 971.197 C 589.05 969.648 587.762 976.938 563.98 969.494 C 564.514 959.23 565.09 958.992 558.622 951.745 C 544.278 946.914 526.312 939.764 511.66 936.928 C 504.85 935.61 501.002 938.631 496.135 942.677 L 475.772 936.986 C 479.728 927.756 507.612 868.635 506.917 864.924 C 499.838 872.001 476.807 925.059 472.964 936.156 C 456.529 931.455 439.902 929.98 423.654 936.586 C 420.896 937.708 420.238 937.753 419.333 939.982 C 423.753 942.003 439.222 935.041 447.681 935.53 C 464.551 936.506 478.745 941.134 494.694 945.843 C 483.499 974.382 468.817 1009.91 458.995 1038.11 C 418.671 1023.9 359.311 1022.58 361.862 963.191 C 362.233 954.539 366.852 944.572 370.421 936.676 C 388.696 896.238 407.309 855.901 426.562 815.927 C 441.685 784.528 475.15 771.808 503.849 754.99 z" fill="rgb(8,127,196)" transform="translate(0,0)"></path>
<path d="M 597.635 805.969 C 598.035 804.947 598.298 803.702 599.466 803.574 C 600.064 804.126 600.013 805.046 600.158 805.802 L 597.635 805.969 z" fill="rgb(8,127,196)" transform="translate(0,0)"></path>
<path d="M 720.24 997.899 C 731.66 1000.78 745.338 1005.89 756.044 1008.28 C 814.705 1021.39 851.147 1036.75 869.572 1098.57 C 881.977 1140.2 884.927 1180.33 889.078 1223.71 C 890.579 1239.39 893.989 1256.24 893.889 1272.2 C 893.359 1302.09 880.732 1310.51 854.971 1318.48 C 831.19 1323.2 801.337 1325.77 777.37 1321.42 C 785.491 1287.82 784.82 1172.35 779.015 1135.18 C 774.746 1107.85 759.725 1074.36 735.88 1059.15 C 727.117 1053.55 717.271 1048.96 708.754 1043.1 C 708.693 1040.78 708.594 1038.46 708.459 1036.14 C 707.776 1025 698.887 1016.59 690.898 1009.55 C 700.617 1005.52 710.399 1001.63 720.24 997.899 z" fill="rgb(164,149,192)" transform="translate(0,0)"></path>
<path d="M 678.697 732.411 C 693.506 730.322 725.692 734.239 741.655 735.818 C 762.334 737.956 783.046 739.758 803.784 741.22 C 796.315 768.233 786.288 803.312 781.328 830.624 C 757.962 828.522 730.598 828.11 706.332 826.432 C 705.763 820.75 703.795 793.137 701.045 790.523 L 699.965 791.685 C 699.356 796.411 704.093 836.321 704.94 844.756 L 717.675 975.986 C 718.164 982.034 719.025 988.653 719.685 994.737 C 709.052 998.548 698.508 1002.6 688.06 1006.89 C 664.852 988.055 644.996 978.12 616.142 971.839 C 611.888 915.435 608.151 855.875 602.906 799.701 C 612.881 808.844 624.769 818.416 633.952 828.14 C 640.355 815.105 650.264 786.186 650.25 771.971 C 650.234 757.02 645.492 748.94 635.578 738.747 C 648.585 735.387 665.318 733.729 678.697 732.411 z" fill="rgb(8,127,196)" transform="translate(0,0)"></path>
<path d="M 466.133 1234.78 C 503.447 1237.82 581.518 1241.69 611.509 1260.77 C 615.033 1263.01 619.171 1265.78 620.034 1270.13 C 620.444 1272.18 619.793 1274.22 618.5 1275.88 C 608.124 1289.26 564.417 1296.06 548.194 1298.5 C 439.258 1314.94 294.188 1315.67 185.368 1298.13 C 167.87 1295.31 137.355 1290.87 123.035 1279.95 C 120.507 1278.02 118.053 1275.33 117.809 1272.01 C 117.569 1268.75 119.265 1266.01 121.519 1263.81 C 149.2 1236.84 323.956 1230.51 364.663 1231.97 C 366.483 1231.93 376.474 1231.46 377.238 1232.56 C 376.655 1233.38 375.248 1233.77 374.315 1234.11 C 360.463 1238.48 336.367 1254.58 357.374 1268.33 C 381.249 1283.95 419.448 1285.12 446.749 1279.98 C 458.232 1277.82 477.009 1272.67 484.132 1262.41 C 492.028 1250.09 473.948 1239.38 466.133 1234.78 z" fill="rgb(220,191,177)" transform="translate(0,0)"></path>
<path d="M 364.663 1231.97 C 366.483 1231.93 376.474 1231.46 377.238 1232.56 C 376.655 1233.38 375.248 1233.77 374.315 1234.11 C 370.608 1233.01 368.323 1232.97 364.663 1231.97 z" fill="rgb(210,188,184)" transform="translate(0,0)"></path>
<path d="M 598.351 557.532 C 600.415 559.258 606.168 574.497 612.547 581.953 C 628.451 600.541 643.365 607.394 667.255 610.287 C 670.665 630.409 673.607 657.554 669.449 677.616 C 658.182 731.981 610.007 760.096 557.392 749.324 C 541.083 744.805 526.18 736.238 514.067 724.419 C 487.927 699.306 481.297 670.689 480.683 636.192 C 489.666 635.914 504.634 632.739 513.137 629.605 C 553.316 614.795 579.279 595.396 598.351 557.532 z" fill="rgb(220,191,177)" transform="translate(0,0)"></path>
<path d="M 629.544 626.915 C 636.684 625.424 643.735 629.81 645.553 636.874 C 647.371 643.939 643.313 651.184 636.34 653.324 C 631.535 654.799 626.308 653.514 622.735 649.979 C 619.162 646.444 617.821 641.232 619.244 636.411 C 620.667 631.591 624.624 627.943 629.544 626.915 z" fill="rgb(2,2,2)" transform="translate(0,0)"></path>
<path d="M 543.17 632.871 C 561.205 631.709 566.767 651.644 551.325 660.157 C 532.417 660.155 528.015 643.49 540.382 634.797 L 543.17 632.871 z" fill="rgb(2,2,2)" transform="translate(0,0)"></path>
<path d="M 624.721 684.666 C 626.561 686.21 627.386 687.259 625.46 689.367 C 606.195 710.452 584.925 711.505 563.91 693.022 C 560.731 688.351 563.476 687.748 565.969 689.965 C 588.059 709.609 605.354 705.16 624.721 684.666 z" fill="rgb(2,2,2)" transform="translate(0,0)"></path>
<path d="M 589.999 628.798 C 595.281 632.878 597.082 651.988 605.848 660.107 C 615.261 668.825 605.75 679.65 591.586 676.054 C 590.06 667.02 594.341 673.58 596.229 673.423 C 615.299 671.838 598.999 657.652 599.158 658.016 C 596.164 651.156 588.194 635.323 589.999 628.798 z" fill="rgb(2,2,2)" transform="translate(0,0)"></path>
<path d="M 1097.96 1241.16 C 1105.97 1241.18 1114.07 1241.11 1122.06 1241.25 C 1150.01 1241.88 1180.3 1240.44 1207.03 1249.76 C 1223.32 1255.45 1223.42 1261.29 1221.96 1276.34 C 1219.39 1302.76 1213.26 1329.54 1197.62 1351.5 C 1193.29 1357.59 1187.76 1362.51 1184.7 1369.34 C 1181.15 1377.1 1185.39 1389.56 1182 1396.54 C 1179.49 1399.01 1178.94 1398.83 1175.24 1399.32 C 1158.27 1399.16 1059.79 1400.7 1050.72 1396.98 C 1047.44 1391.4 1048.79 1374.89 1048.97 1367.51 C 1104.5 1337.33 1098.16 1294.64 1097.96 1241.16 z" fill="rgb(195,113,90)" transform="translate(0,0)"></path>
<path d="M 418.176 1093.42 C 420.187 1093.12 425.259 1092.1 425.854 1094.84 C 441.365 1166.37 526.067 1176.36 586.324 1179.95 C 592.601 1180.32 598.282 1179.56 604.793 1180.62 C 606.785 1183.39 606.554 1182.2 606.129 1185.07 C 604.145 1186.78 601.438 1187.88 598.874 1187.9 C 582.391 1187.99 565.274 1187.91 548.857 1187.91 L 435.5 1187.94 L 245.746 1187.99 L 245.728 1136.91 C 271.517 1105.69 376.275 1096.87 418.176 1093.42 z" fill="rgb(220,191,177)" transform="translate(0,0)"></path>
<path d="M 245.634 1190.97 L 604.454 1190.75 C 600.503 1208.98 597.076 1228.35 593.532 1246.74 L 592.972 1248.18 C 590.436 1248.75 567.547 1243.25 562.278 1242.27 C 540.835 1238.33 519.208 1235.48 497.479 1233.71 C 472.406 1231.67 447.247 1229.69 422.171 1227.43 C 413.474 1226.65 393.927 1228.44 383.606 1228.3 C 337.379 1227.67 291.859 1229.89 245.75 1233.25 L 245.634 1190.97 z" fill="rgb(220,191,177)" transform="translate(0,0)"></path>
<path d="M 619.473 1279.89 C 621.117 1284.55 621.001 1304.42 616.257 1307.47 C 581.722 1329.65 510.061 1335.19 470.087 1337.61 C 439.402 1339.47 408.676 1340.59 377.937 1340.96 C 326.481 1341.24 154.568 1338.18 118.961 1306.62 C 115.726 1300.11 116.845 1287.89 116.983 1280.28 C 157.984 1307.08 291.828 1313.43 342.133 1313.85 C 400.315 1314.35 575.857 1312.61 619.473 1279.89 z" fill="rgb(220,191,177)" transform="translate(0,0)"></path>
<path d="M 732.315 1417.28 C 738.94 1416.58 745.611 1416.44 752.26 1416.84 C 769.833 1417.78 789.074 1422.9 800.999 1436.59 C 814.095 1451.62 812.975 1468.76 811.72 1487.16 C 782.133 1508.22 696.47 1496.15 661.42 1489.76 C 642.159 1486.43 614.955 1480.18 596.662 1474.68 C 596.887 1458.58 598.617 1440.74 599.121 1424.11 C 618.678 1429.73 636.85 1438.31 657.574 1440.65 C 663.435 1441.31 677.284 1439.75 680.08 1443.4 C 679.269 1445.98 679.003 1446.34 679.352 1448.94 L 680.724 1449.49 L 683.467 1445.53 C 697.046 1426.12 708.284 1421.55 732.315 1417.28 z" fill="rgb(65,69,102)" transform="translate(0,0)"></path>
<path d="M 1194.49 563.868 L 1195.93 564.311 C 1198.9 567.729 1202.61 576.507 1204.27 580.988 C 1229.4 648.974 1241.65 709.916 1160.48 741.613 C 1164.01 721.152 1166.71 699.704 1170 679.102 C 1171.24 671.322 1175.24 646.353 1174.96 639.49 L 1173.57 638.556 C 1171.56 640.776 1171.63 643.823 1171.23 646.984 L 1157.15 740.984 C 1129.93 719.371 1110.32 691.069 1117.36 654.694 C 1124.45 618.051 1165.4 583.678 1194.49 563.868 z" fill="rgb(174,178,95)" transform="translate(0,0)"></path>
<path d="M 1000.42 694.841 C 1013.36 698.38 1026.11 702.599 1038.61 707.481 C 1101.23 732.412 1142.33 770.871 1113.26 842.66 C 1098.73 820.275 1072.55 788.334 1055.85 765.688 L 1054.34 764.137 L 1052.36 764.151 C 1052.39 769.452 1104.12 835.045 1110.76 843.65 C 1015.12 853.088 996.436 771.619 1000.42 694.841 z" fill="rgb(174,178,95)" transform="translate(0,0)"></path>
<path d="M 1284.57 743.363 C 1285.39 743.198 1286.41 743.466 1287.34 743.599 C 1289.96 750.2 1284.89 779.241 1283.63 787.024 C 1273.07 852.079 1238.85 892.117 1167.56 878.968 C 1189.23 854.703 1210.93 831.241 1232.18 806.553 C 1231.75 806.456 1231.31 806.335 1230.86 806.356 C 1226.19 806.573 1171.92 868.725 1165.1 876.629 C 1162.8 870.669 1161.13 864.484 1160.13 858.175 C 1147.67 781.941 1224.37 753.334 1284.57 743.363 z" fill="rgb(8,116,118)" transform="translate(0,0)"></path>
<path d="M 352.439 1354.31 C 371.455 1353.53 374.359 1357.94 385.077 1372.21 C 384.812 1398.47 388.063 1536.01 382.088 1549.09 C 378.318 1557.34 371.427 1561.25 363.231 1564.22 C 361.527 1564.35 359.82 1564.43 358.111 1564.46 C 326.908 1564.93 329.657 1533.19 329.919 1511.9 C 330.516 1463.55 329.037 1415.07 329.814 1366.74 C 337.141 1358.9 342.006 1356.47 352.439 1354.31 z" fill="rgb(220,191,177)" transform="translate(0,0)"></path>
<path d="M 548.992 968.414 C 565.303 973.513 574.883 978.12 592.127 975.252 C 631.126 968.766 693.725 1002.71 707.338 1039.41 C 702.486 1035.45 696.668 1026.12 692.52 1021.94 C 685.324 1014.68 665.348 999.291 655.559 997.147 C 656.186 1001.22 674.019 1010.56 679.391 1015.21 C 688.565 1023.07 702.132 1034.11 704.551 1046.47 C 705.592 1051.79 701.375 1056.91 695.769 1057.4 C 692.826 1055.23 690.516 1046.97 688.216 1043.18 C 676.585 1024.04 659.414 1013.39 638.737 1007.35 L 638.467 1007.95 C 643.865 1012.34 650.856 1015.18 657.221 1018.14 C 669.842 1025.46 686.365 1039.71 689.243 1054.56 C 692.482 1071.26 677.644 1073.24 671.357 1059.13 C 669.266 1054.98 666.793 1050.55 664.547 1046.53 C 659.196 1036.96 633.987 1020.91 623.606 1022.02 L 623.106 1023.45 C 627.817 1027.22 646.055 1030.4 655.19 1040.89 C 658.009 1042.02 672.093 1063.93 670.715 1066.41 C 659.61 1086.43 636.476 1048.51 624.421 1047.63 C 612.272 1046.75 612.929 1043.67 606.447 1045.39 C 575.886 1053.49 551.813 1040.52 522.778 1034.09 L 548.992 968.414 z" fill="rgb(220,191,177)" transform="translate(0,0)"></path>
<path d="M 1259.39 906.412 C 1268.74 905.781 1278.84 906.188 1288.27 906.39 C 1277.34 955.072 1256.02 1019.91 1193.18 1015.84 C 1180.56 1015.02 1170.1 1013.55 1159.07 1006.8 C 1178.24 992.304 1197.67 975.923 1216.34 960.633 C 1223.99 954.433 1227.65 951.927 1233.46 943.856 L 1232.83 943.303 C 1224.59 948.625 1211.78 959.668 1203.9 966.165 C 1187.96 979.219 1172.13 992.404 1156.42 1005.72 C 1151.15 934.513 1197.65 911.275 1259.39 906.412 z" fill="rgb(174,178,95)" transform="translate(0,0)"></path>
<path d="M 1218.95 1039.37 C 1253.26 1036.94 1290.24 1063.41 1313.94 1085.87 C 1294.8 1104.6 1260.29 1127.37 1233.3 1130.67 C 1208.72 1133.68 1192.53 1126.08 1173.84 1111.48 C 1167.99 1106.38 1163.6 1101.71 1158.27 1096.11 C 1169.59 1094.37 1243.15 1086.68 1247.49 1083.62 C 1239.26 1081.66 1168.08 1091.13 1156.85 1093.18 C 1169.33 1062.86 1184.15 1043.35 1218.95 1039.37 z" fill="rgb(8,116,118)" transform="translate(0,0)"></path>
<path d="M 212.537 1350.16 C 238.108 1347.54 254.63 1362.38 246.345 1388.31 C 235.163 1423.9 224.226 1459.57 213.175 1495.21 C 209.098 1508.35 206.315 1513.1 194.312 1519.82 C 188.982 1521.45 182.099 1521.86 176.968 1520 C 149.274 1509.96 158.54 1483.58 164.763 1464.51 C 176.647 1428.11 186.709 1392.45 198.686 1356.97 C 204.074 1353.16 206.326 1352.28 212.537 1350.16 z" fill="rgb(220,191,177)" transform="translate(0,0)"></path>
<path d="M 510.201 1354.29 C 524.106 1355.37 527.452 1360.12 537.665 1369.5 L 560.457 1443.73 C 569.077 1471.36 591.226 1515.98 545.978 1521.81 C 536.985 1520.57 526.942 1516.55 523.023 1507.5 C 516.691 1492.86 512.682 1476.29 508.112 1460.94 L 482.344 1376.07 C 488.833 1362.22 495.105 1357 510.201 1354.29 z" fill="rgb(220,191,177)" transform="translate(0,0)"></path>
<path d="M 982.766 857.747 C 998.619 859.032 1012.64 860.431 1028.16 863.966 C 1080.07 875.79 1111.79 914.059 1098.17 968.429 C 1089.92 961.666 1028.83 905.979 1024.14 905.341 L 1022.71 907.009 C 1028.23 912.762 1038.19 920.136 1044.38 925.749 C 1060.8 940.623 1080.45 955.889 1096.19 971.185 C 1065.89 980.174 1048.77 978.474 1019.99 966.668 C 1019.06 924.144 1008.19 892.044 982.766 857.747 z" fill="rgb(8,116,118)" transform="translate(0,0)"></path>
<path d="M 857.065 1394.45 C 897.546 1393.57 928.649 1414.56 921.621 1457.02 C 917.619 1481.21 831.259 1469.05 816.22 1466.4 C 814.363 1452.55 813.763 1447.47 805.647 1435.96 C 804.66 1434.84 803.631 1433.76 802.562 1432.72 C 783.696 1414.42 759.725 1412.48 735.107 1412.91 L 735.137 1398.6 C 754.196 1405.91 783.232 1411.35 803.713 1412.07 C 800.755 1416.52 797.224 1420.09 798.576 1425.46 C 801.679 1423.63 807.64 1413.02 810.583 1409.99 C 821.477 1398.79 842.448 1395.63 857.065 1394.45 z" fill="rgb(65,69,102)" transform="translate(0,0)"></path>
<path d="M 889.764 1191.07 L 921.276 1191.11 L 921.345 1371.82 L 870.75 1371.52 L 844 1371.32 L 843.98 1324.37 C 894.747 1314.04 901.561 1294.22 895.218 1244.8 C 893.051 1227.91 890.929 1208.11 889.764 1191.07 z" fill="rgb(220,191,177)" transform="translate(0,0)"></path>
<path d="M 855.826 771.538 C 856.819 771.609 857.809 771.719 858.794 771.867 C 868.12 773.179 894.648 778.584 902.99 781.955 C 924.47 790.636 954.562 807.613 968.506 826.144 C 953.287 817.762 940.06 805.483 922.583 800.786 C 935.263 811.612 955.414 818.923 967.67 830.987 C 971.228 834.488 971.151 836.828 971.003 841.499 L 970.154 842.098 C 968.365 840.374 966.506 838.726 964.58 837.156 C 958.235 832.037 925.645 810.697 918.236 812.287 L 919.225 811.75 L 917.989 812.042 C 920.89 815.54 936.297 822.824 941.824 825.916 C 948.255 829.863 977.536 845.71 968.881 856.978 C 959.739 868.879 940.739 851.454 932.514 846.368 C 926.688 842.767 896.983 830.215 890.947 831.514 C 890.882 836.236 909.742 841.405 913.045 850.475 C 919.099 862.62 912.179 876.528 898.032 867.309 C 879.226 855.054 859.241 844.324 839.954 833.158 C 844.033 813.431 850.531 791.218 855.826 771.538 z" fill="rgb(220,191,177)" transform="translate(0,0)"></path>
<path d="M 668.111 484.139 C 687.884 482.333 693.695 488.777 696.82 508.032 C 708.246 511.347 711.473 512.379 717.837 522.351 C 718.227 527.324 717.926 532.729 717.767 537.751 C 714.305 543.12 713.061 544.16 708.211 548.438 C 711.559 570.582 703.232 588.721 678.127 578.366 C 677.261 578.945 676.383 579.505 675.492 580.044 C 671.122 582.75 667.132 585.601 662.035 584.408 C 649.288 561.081 635.532 549.258 611.44 538.913 C 614.336 532.968 615.611 531.294 620.024 526.475 C 616.283 518.287 614.439 511.435 618.283 502.721 C 620.874 496.97 625.661 492.498 631.574 490.304 C 641.623 486.467 648.328 488.983 657.491 492.982 C 661.231 488.249 662.969 487.094 668.111 484.139 z" fill="rgb(123,86,76)" transform="translate(0,0)"></path>
<path d="M 1097.91 1179.81 C 1141.26 1180.07 1184.81 1179.63 1228.17 1180.04 C 1232.39 1180.08 1237.39 1180.09 1240.1 1183.01 C 1242.71 1191.11 1242.08 1219.04 1240.35 1227.59 C 1233.13 1231.31 1197.63 1230.02 1187.26 1230.03 L 1097.92 1230 L 1097.91 1179.81 z" fill="rgb(195,113,90)" transform="translate(0,0)"></path>
<path d="M 471.183 494.192 C 486.458 492.873 490.99 496.22 498.868 508.87 C 510.958 503.881 519.333 503.555 528.844 514.563 C 533.839 520.344 530.394 532.149 529.375 539.41 L 532.624 542.868 C 531.815 545.075 523.613 550.077 521.065 551.732 C 506.062 561.476 496.801 573.152 488.341 588.676 C 487.765 590.073 487.665 589.854 486.488 591.024 C 481.357 590.021 483.27 587.083 477.678 586.184 C 470.86 591.412 463.303 593.325 456.875 590.775 C 438.853 583.629 439.405 573.867 442.252 558.439 C 442.866 555.112 427.806 543.101 435.483 530.805 C 437.416 522.383 447.261 522.305 450.735 519.389 C 464.308 507.997 450.315 504.169 471.183 494.192 z" fill="rgb(123,86,76)" transform="translate(0,0)"></path>
<path d="M 504.041 940.1 C 515.055 938.782 546.431 951.142 558.173 955.175 C 554.015 957.267 548.747 960.362 547.311 964.732 C 542.403 979.669 510.523 1047.89 510.221 1058.49 L 511.529 1058.94 C 515.801 1054.79 516.207 1043.17 521.631 1038.63 C 524.092 1036.57 526.766 1037.94 530.065 1038.68 C 527.356 1044.56 519.782 1067.91 510.68 1065.73 C 496.135 1062.24 475.036 1056.79 463.05 1047.5 C 461.491 1046.29 462.17 1042.21 462.448 1040.49 C 472.222 1008.73 486.798 976.571 498.76 945.382 C 499.48 943.506 502.58 941.188 504.041 940.1 z" fill="rgb(243,221,180)" transform="translate(0,0)"></path>
<path d="M 591.952 1476.48 C 615.188 1485.7 649.626 1491.84 674.627 1495.85 C 707.931 1501.2 785.671 1510.88 813.559 1490.41 C 814.783 1489.51 815.464 1489.03 817.017 1488.78 C 820.442 1493.04 819.075 1507.15 817.549 1512.33 C 816.642 1513.6 815.719 1514.86 814.675 1516.02 C 805.646 1526.09 769.919 1529.58 756.315 1530.08 C 742.528 1530.59 728.709 1529.76 714.98 1528.51 C 696.248 1526.82 604.137 1515.55 595.124 1506.08 C 589.285 1499.95 591.695 1484.24 591.952 1476.48 z" fill="rgb(65,69,102)" transform="translate(0,0)"></path>
<path d="M 569.244 537.354 C 578.851 535.844 590.668 537.344 600.121 539.226 C 588.228 586.462 550.519 613.765 506.203 628.191 C 497.14 630.949 489.789 631.869 480.51 632.769 C 483.071 616.369 485.119 601.876 493.403 587.029 C 509.759 557.718 536.609 541.67 569.244 537.354 z" fill="rgb(123,86,76)" transform="translate(0,0)"></path>
<path d="M 815.689 728.036 C 823.729 728.865 850.768 734.7 856.615 739.625 C 859.539 745.534 855.41 762.58 853.179 768.26 C 846.76 784.603 839.436 837.787 828.152 846.976 L 827.253 847.029 C 821.462 847.432 785.373 840.729 785.809 834.358 C 788.078 801.172 801.335 766.555 808.883 733.879 C 809.636 730.621 812.965 729.385 815.689 728.036 z" fill="rgb(243,221,180)" transform="translate(0,0)"></path>
<path d="M 610.665 1369.11 C 652.03 1385.89 666.502 1387.18 709.959 1375.95 C 708.688 1390.28 708.131 1406.02 707.191 1420.53 L 698.834 1425 C 692.615 1428.96 689.23 1432.37 684.334 1437.78 C 650.848 1438.8 635.843 1433.69 604.786 1421.73 C 606.546 1404.24 608.68 1386.59 610.665 1369.11 z" fill="rgb(255,255,255)" transform="translate(0,0)"></path>
<path d="M 1019.66 970.104 C 1049 982.415 1068.43 983.297 1098.56 973.454 C 1111.45 985.959 1122.22 1003.25 1130.03 1019.31 C 1128.21 1041.42 1124.44 1062.65 1122.26 1084.76 L 1120.51 1102.43 C 1115.36 1082.32 1109.89 1079.05 1101.52 1062.33 C 1096.44 1052.2 1095.84 1041.85 1087.79 1030.12 C 1069.31 1003.2 1048.29 1000.59 1019.43 994.396 L 1019.66 970.104 z" fill="rgb(255,255,255)" transform="translate(0,0)"></path>
<path d="M 413.106 1230.44 C 495.471 1231.97 509.784 1275.63 422.749 1279.34 C 404.827 1280.59 375.617 1276.49 361.365 1266.47 C 341.435 1252.46 365.06 1239.65 378.004 1235.97 C 391.938 1232 399.318 1231.26 413.106 1230.44 z" fill="rgb(220,191,177)" transform="translate(0,0)"></path>
<path d="M 746.773 1351.08 C 748.59 1351.26 753.386 1352.53 755.124 1353.09 C 784.915 1362.59 810.785 1358.22 840.762 1350.15 L 840.935 1392.49 C 837.644 1393.11 832.5 1394.68 829.101 1395.62 C 818.7 1399.43 814.512 1401.99 805.798 1408.29 C 777.913 1408.54 765.397 1403.99 739.153 1395.16 C 739.103 1384.89 738.191 1363.8 739.395 1354.78 C 741.043 1352.37 743.785 1352.02 746.773 1351.08 z" fill="rgb(255,255,255)" transform="translate(0,0)"></path>
<path d="M 521.06 735.787 C 523.595 737.18 528.117 740.365 530.699 742.066 C 542.29 772.9 569.539 784.18 598.65 797.452 C 591.303 808.025 585.391 818.688 579.104 829.868 C 577.577 832.719 576.604 835.376 573.987 837.076 C 570.5 835.022 565.445 831.323 562.082 828.53 C 541.531 811.456 506.777 791.478 506.869 761.485 C 506.903 750.414 513.407 742.594 521.06 735.787 z" fill="rgb(8,127,196)" transform="translate(0,0)"></path>
<path d="M 969.202 1380.12 C 975.335 1381.61 981.281 1381.24 987.026 1382.39 C 998.969 1384.78 1012.46 1390.77 1019.1 1401.45 C 1029.03 1416.69 1023 1436.41 1025.56 1451.95 C 1020.73 1454.15 977.418 1453.15 968.911 1453.12 C 968.896 1429.84 968.253 1403.13 969.202 1380.12 z" fill="rgb(220,191,177)" transform="translate(0,0)"></path>
<path d="M 127.599 1376.77 C 134.035 1376.38 140.49 1377.13 146.669 1378.97 C 162.932 1383.9 170.827 1394.53 178.357 1408.62 L 168.463 1441.26 L 165.094 1452.69 C 153.198 1452.96 139.921 1452.3 127.928 1451.95 L 127.599 1376.77 z" fill="rgb(220,191,177)" transform="translate(0,0)"></path>
<path d="M 579.81 1326.26 C 580.674 1326.17 581.537 1326.08 582.4 1325.99 C 591.017 1332.07 599.926 1337.62 609.253 1341.7 C 608.642 1352.16 607.986 1361.25 606.739 1371.64 L 563.455 1371.55 C 556.163 1371.61 549.408 1371.33 542.141 1371.02 C 537.441 1359.18 534.043 1346.95 530.992 1334.61 C 547.369 1332.47 563.654 1329.68 579.81 1326.26 z" fill="rgb(220,191,177)" transform="translate(0,0)"></path>
<path d="M 925.092 1461.8 L 926.351 1462.55 C 927.799 1466.91 927.557 1480.91 925.88 1485.64 C 924.344 1489.98 921.099 1491.59 917.217 1493.4 C 897.515 1502.59 841.316 1505.05 822.734 1497.23 L 821.789 1494.73 C 820.971 1482.91 814.82 1489.38 815.706 1470.21 C 840.894 1475.19 905.987 1482.7 925.092 1461.8 z" fill="rgb(65,69,102)" transform="translate(0,0)"></path>
<path d="M 463.553 1341.45 C 464.758 1341.27 466.612 1341.42 467.892 1341.46 C 472.612 1346.13 475.449 1363.65 476.797 1370.96 C 452.077 1371.42 427.354 1371.69 402.629 1371.76 C 397.848 1371.73 392.856 1371.53 388.056 1371.42 L 387.887 1344.03 C 413.123 1343.67 438.35 1342.81 463.553 1341.45 z" fill="rgb(220,191,177)" transform="translate(0,0)"></path>
<path d="M 877.735 1113.73 C 895.443 1119.08 907.466 1122.46 921.405 1135.21 L 921.168 1188.03 L 889.275 1187.92 C 885.331 1159.49 884.509 1142.2 877.735 1113.73 z" fill="rgb(220,191,177)" transform="translate(0,0)"></path>
<path d="M 536.244 745.319 C 540.16 746.525 545.902 749.261 550.638 750.692 C 578.068 758.984 594.329 756.646 619.881 746.993 C 620.65 761.197 620.73 765.056 613.305 777.51 C 609.323 782.98 604.478 788.97 600.301 794.385 C 598.622 793.621 596.956 792.83 595.303 792.01 C 573.052 781.223 544.713 769.745 536.244 745.319 z" fill="rgb(220,191,177)" transform="translate(0,0)"></path>
<path d="M 612.542 1343.24 C 648.168 1358.17 672.53 1359.87 710.706 1358.81 C 710.886 1362.88 711.18 1366 710.488 1370.03 C 708.164 1373.19 709.328 1372.14 704.751 1373.61 C 664.173 1384.62 648.572 1380.6 610.971 1365.48 C 611.84 1359.12 612.144 1349.88 612.542 1343.24 z" fill="rgb(220,191,177)" transform="translate(0,0)"></path>
<path d="M 603.733 540.297 C 627.266 546.192 647.771 564.181 659.097 585.459 C 660.808 588.673 666.141 602.536 665.527 605.692 C 640.475 602.567 622.319 593.918 609.457 571.226 C 601.98 558.036 601.018 554.98 603.733 540.297 z" fill="rgb(123,86,76)" transform="translate(0,0)"></path>
<path d="M 776.109 1324.4 C 794.314 1329.12 822.481 1327.11 840.988 1324.65 L 841.072 1346.38 C 833.693 1348.62 826.296 1350.22 818.784 1351.94 C 791.934 1356.89 778.207 1356.1 752.216 1348.9 C 763.998 1342.88 770.536 1336.32 776.109 1324.4 z" fill="rgb(220,191,177)" transform="translate(0,0)"></path>
<path d="M 1097.09 1065.77 C 1098.35 1066.41 1099.29 1066.95 1100.23 1068.03 C 1127.12 1098.83 1117.3 1139.88 1118.08 1175.78 C 1115.87 1177.85 1101.85 1176.95 1097.97 1176.89 C 1097.98 1144.85 1099.38 1096.66 1097.09 1065.77 z" fill="rgb(255,255,255)" transform="translate(0,0)"></path>
<path d="M 264.542 1340.91 C 285.148 1342.39 305.79 1343.33 326.445 1343.73 C 326.567 1349.33 327.927 1365.75 325.107 1370.72 C 324.481 1371.83 322.011 1371.58 320.25 1371.7 L 255.329 1371.76 C 258.499 1361.51 261.57 1351.22 264.542 1340.91 z" fill="rgb(220,191,177)" transform="translate(0,0)"></path>
<path d="M 630.606 740.921 L 631.6 740.854 C 636.387 743.219 641.297 750.611 643.381 755.425 C 652.103 775.572 640.538 801.728 633.035 820.869 L 627.062 816.272 C 619.048 809.595 611.78 802.945 603.506 796.352 C 617.49 780.613 626.992 767.941 623.016 746.301 C 624.198 743.827 627.73 742.558 630.606 740.921 z" fill="rgb(8,127,196)" transform="translate(0,0)"></path>
<path d="M 476.021 636.966 C 477.259 638.312 479.076 663.767 479.543 667.976 C 476.902 667.331 467.306 664.242 466.032 667.556 C 467.354 670.068 477.156 670.514 480.359 671.01 C 483.023 681.526 486.426 690.178 490.994 699.894 C 491.11 700.14 489.532 701.643 489.885 701.273 C 457.749 699.991 445.114 665.798 466.684 642.678 C 468.639 640.583 473.398 638.362 476.021 636.966 z" fill="rgb(220,191,177)" transform="translate(0,0)"></path>
<path d="M 713.343 1375.17 C 720.822 1375 728.303 1374.97 735.783 1375.08 C 735.806 1384.42 737.973 1392.42 732.005 1394.56 C 730.55 1395.08 731.999 1409.95 732.067 1413.33 C 725.084 1414.6 718.207 1416.39 711.499 1418.71 C 711.964 1404.25 712.729 1389.65 713.343 1375.17 z" fill="rgb(255,255,255)" transform="translate(0,0)"></path>
<path d="M 670.374 608.274 C 696.39 614.229 699.317 645.359 679.634 662.553 C 677.99 663.468 677.275 663.886 675.457 664.452 C 674.48 662.655 675.007 646.594 674.966 642.791 C 676.944 641.818 685.05 639.257 682.104 635.745 C 680.713 635.413 679.592 636.08 678.419 636.816 C 677.907 637.138 677.419 637.497 676.903 637.811 C 676.416 638.107 675.562 638.553 674.98 638.25 C 674.248 637.869 670.837 611.261 670.374 608.274 z" fill="rgb(220,191,177)" transform="translate(0,0)"></path>
<path d="M 425.447 1031.48 C 429.182 1032.41 456.945 1039.43 458.16 1042.51 C 460.334 1048.01 459.261 1048.47 454.309 1049.76 L 451.105 1050.61 C 444.669 1052.34 437.365 1055.03 430.904 1057.06 C 422.762 1047.46 423.677 1043.08 425.447 1031.48 z" fill="rgb(8,127,196)" transform="translate(0,0)"></path>
<path d="M 733.88 1355.33 C 737.459 1355.89 735.75 1367.59 735.647 1371.09 C 729.153 1371.44 722.653 1371.67 716.15 1371.77 C 712.473 1370.48 713.975 1362.1 713.953 1358.34 C 721.466 1357.6 726.559 1356.6 733.88 1355.33 z" fill="rgb(220,191,177)" transform="translate(0,0)"></path>
<path d="M 558.416 958.666 C 560.234 960.576 561.462 965 559.791 967.748 C 559.582 968.091 556.364 968.086 555.745 968.139 L 554.969 968.212 C 550.464 963.212 552.555 963.057 558.416 958.666 z" fill="rgb(208,203,203)" transform="translate(0,0)"></path>
<metadata><recraft-signature>{"signed_by": "recraft", "signature_b64": "kS+9Y/BTDWu2rf+XX1hghXIEeNX5K+PiK16+juckgtLZLCNiB+hHuvtFv5wK2JHvnUVAhlqT+U/jLNvHeYnADA==", "signing_algo": "Ed25519", "generation_timestamp": 1779091660, "identifier": "547bb64d-6e3a-43b0-8eb2-b0aec89051a6"}</recraft-signature></metadata></svg>