<svg xmlns="http://www.w3.org/2000/svg" height="1216" preserveAspectRatio="none" style="display: block;" version="1.1" viewBox="0 0 1509 2048" width="896">
<path d="M 0 0 L 1509 0 L 1509 2048 L 0 2048 L 0 0 z" fill="rgb(255,255,255)" transform="translate(0,0)"></path>
<path d="M 683.036 1131.74 C 732.365 1140.08 786.583 1148.9 836.175 1155.63 C 836.13 1160.85 835.553 1182.03 836.954 1185.85 C 857.407 1186.73 873.112 1188.67 893.271 1191.41 C 898.844 1192.64 902.748 1193.73 908.199 1195.44 C 1004.28 1223.91 1057.09 1287.33 1095.14 1376.69 C 1131.71 1396.86 1151.74 1339.83 1195.75 1337.68 C 1249 1335.08 1258.84 1388.27 1300.92 1381.1 C 1330.99 1375.99 1342.64 1337.32 1386.43 1334.45 C 1387.7 1346.29 1386.64 1371.46 1386.57 1384.82 L 1386.29 1480.75 C 1387.47 1496.2 1386.33 1516.98 1386.25 1532.99 L 1386.11 1633.8 C 1386.14 1640.33 1385.91 1649.39 1386.4 1655.71 C 1388.24 1696.96 1382.45 1733.27 1353.58 1765.12 C 1332.11 1788.8 1301.41 1803.53 1269.43 1804.02 C 1242.38 1804.44 1214.84 1804.27 1187.68 1804.25 L 1038.28 1804.14 L 597.801 1804.21 L 344.165 1804.23 L 266.88 1804.16 C 259.574 1804.14 250.57 1803.69 243.527 1804.05 C 183.28 1807.12 133.326 1763.32 121.537 1705.3 C 118.432 1690.02 118.913 1675.13 119.06 1659.65 L 119.18 1653.51 C 118.491 1643.83 119.279 1629 119.402 1619.06 C 119.473 1602.56 119.455 1586.05 119.347 1569.54 C 118.988 1499.39 119.147 1429.22 119.825 1359.07 L 119.718 1334.93 C 163.856 1336.38 173.599 1372.92 205.444 1380.79 C 244.067 1390.32 260.646 1337.24 305.441 1337.33 C 352.271 1337.43 358.437 1374.66 396.017 1380.94 C 412.899 1383.76 430.893 1367.15 443.287 1356.75 C 445.93 1348.11 469.936 1318.21 476.494 1310.61 C 509.356 1272.51 546.911 1236.53 593.449 1215.84 C 606.169 1210.19 619.257 1205.79 632.418 1201.19 C 642.48 1197.12 673.804 1192.43 684.509 1190.87 C 682.72 1173.36 683.27 1149.8 683.036 1131.74 z" fill="rgb(84,158,212)" transform="translate(0,0)"></path>
<path d="M 1386.4 1655.71 C 1388.24 1696.96 1382.45 1733.27 1353.58 1765.12 C 1332.11 1788.8 1301.41 1803.53 1269.43 1804.02 C 1242.38 1804.44 1214.84 1804.27 1187.68 1804.25 L 1038.28 1804.14 L 597.801 1804.21 L 344.165 1804.23 L 266.88 1804.16 C 259.574 1804.14 250.57 1803.69 243.527 1804.05 C 183.28 1807.12 133.326 1763.32 121.537 1705.3 C 118.432 1690.02 118.913 1675.13 119.06 1659.65 C 152.565 1660.91 171.529 1702.98 205.747 1710.36 C 254.879 1720.94 271.073 1686.33 304.956 1664.7 C 349.001 1636.59 379.379 1701.47 419.465 1710.4 C 466.17 1720.81 485.592 1687.01 519.177 1663.8 C 561.283 1637.24 592.573 1701.48 631.314 1710.21 C 678.891 1720.94 696.473 1687.87 730.779 1664.49 C 776.18 1637 803.652 1700.96 845.196 1709.97 C 896.74 1721.14 909.837 1685.1 944.84 1664.08 C 990.047 1636.92 1017.17 1700.71 1057.61 1709.88 C 1109.08 1721.56 1123.36 1684.55 1157.23 1664.4 C 1202.66 1637.38 1230.64 1701.39 1269.91 1709.94 C 1303.62 1717.27 1322.88 1703.95 1346.99 1682.23 C 1352 1677.72 1358.28 1672.4 1363.53 1668.2 C 1368.66 1664.1 1381.02 1661.94 1385.51 1659.3 L 1386.4 1655.71 z" fill="rgb(84,158,212)" transform="translate(0,0)"></path>
<path d="M 683.036 1131.74 C 732.365 1140.08 786.583 1148.9 836.175 1155.63 C 836.13 1160.85 835.553 1182.03 836.954 1185.85 C 857.407 1186.73 873.112 1188.67 893.271 1191.41 C 898.844 1192.64 902.748 1193.73 908.199 1195.44 C 1004.28 1223.91 1057.09 1287.33 1095.14 1376.69 C 1131.71 1396.86 1151.74 1339.83 1195.75 1337.68 C 1249 1335.08 1258.84 1388.27 1300.92 1381.1 C 1330.99 1375.99 1342.64 1337.32 1386.43 1334.45 C 1385.65 1342.49 1385.89 1350.74 1385.94 1358.83 L 1384.73 1358.88 C 1358.18 1360.23 1339.92 1403.94 1297.97 1405.78 C 1247.43 1408.01 1236.34 1361.5 1199.37 1362.45 C 1163.87 1363.35 1151.85 1412.77 1099.34 1403.87 C 1062.1 1397.55 1049.88 1360.48 1019.11 1360.6 C 983.816 1360.73 975.263 1403.33 930.425 1404.05 C 886.867 1404.75 875.116 1365.97 842.632 1364.59 C 810.033 1363.21 797.86 1404.65 756.079 1405.18 C 709.506 1405.77 700.646 1366.77 666.123 1364.62 C 633.153 1362.56 622.555 1403.8 579.583 1404.17 C 534.705 1404.54 525.09 1366.82 492.423 1363.13 C 456.841 1359.12 445.423 1404 402.573 1405.35 C 355.867 1406.83 346.8 1369.82 313.975 1362.36 C 277.83 1354.14 262.436 1405.38 218.621 1406.05 C 168.265 1406.82 158.649 1363.46 119.825 1359.07 L 119.718 1334.93 C 163.856 1336.38 173.599 1372.92 205.444 1380.79 C 244.067 1390.32 260.646 1337.24 305.441 1337.33 C 352.271 1337.43 358.437 1374.66 396.017 1380.94 C 412.899 1383.76 430.893 1367.15 443.287 1356.75 C 445.93 1348.11 469.936 1318.21 476.494 1310.61 C 509.356 1272.51 546.911 1236.53 593.449 1215.84 C 606.169 1210.19 619.257 1205.79 632.418 1201.19 C 642.48 1197.12 673.804 1192.43 684.509 1190.87 C 682.72 1173.36 683.27 1149.8 683.036 1131.74 z" fill="rgb(3,77,133)" transform="translate(0,0)"></path>
<path d="M 683.036 1131.74 C 732.365 1140.08 786.583 1148.9 836.175 1155.63 C 836.13 1160.85 835.553 1182.03 836.954 1185.85 C 857.407 1186.73 873.112 1188.67 893.271 1191.41 C 874.503 1253.9 878.126 1309.28 903.106 1369.74 L 902.18 1369.2 C 894.175 1364.44 887.359 1357.68 879.745 1352.44 C 864.703 1342.1 843.761 1337.6 825.846 1341.84 C 789.683 1350.61 772.283 1399.33 729.913 1373.34 C 709.451 1360.79 696.779 1341.92 670.752 1340.49 C 647.464 1339.22 634.981 1344.15 617.942 1359.79 C 615.163 1362.34 605.623 1370.73 602.219 1371.01 C 625.086 1322.68 649.159 1254.61 632.418 1201.19 C 642.48 1197.12 673.804 1192.43 684.509 1190.87 C 682.72 1173.36 683.27 1149.8 683.036 1131.74 z" fill="rgb(11,32,54)" transform="translate(0,0)"></path>
<path d="M 683.036 1131.74 C 732.365 1140.08 786.583 1148.9 836.175 1155.63 C 836.13 1160.85 835.553 1182.03 836.954 1185.85 C 833.433 1201.66 835.048 1218.46 828.424 1234.82 C 821.796 1251.19 814.441 1266.05 799.019 1276.16 C 770.379 1294.85 723.252 1290.41 704.472 1259.58 C 691.909 1238.96 686.773 1214.44 684.509 1190.87 C 682.72 1173.36 683.27 1149.8 683.036 1131.74 z" fill="rgb(238,172,144)" transform="translate(0,0)"></path>
<path d="M 893.271 1191.41 C 898.844 1192.64 902.748 1193.73 908.199 1195.44 C 1004.28 1223.91 1057.09 1287.33 1095.14 1376.69 C 1065.4 1361.81 1057.5 1337.59 1017.95 1335.83 C 1007.53 1336.35 1001.29 1337.3 991.242 1342.51 C 965.538 1355.83 944.321 1392.59 911.112 1375.82 C 907.743 1374.12 905.5 1372.7 903.106 1369.74 C 878.126 1309.28 874.503 1253.9 893.271 1191.41 z" fill="rgb(238,172,144)" transform="translate(0,0)"></path>
<path d="M 908.199 1195.44 C 1004.28 1223.91 1057.09 1287.33 1095.14 1376.69 C 1065.4 1361.81 1057.5 1337.59 1017.95 1335.83 C 1011.92 1322.78 1003.15 1310.21 995.038 1298.35 C 977.23 1271.9 957.486 1246.82 935.969 1223.29 C 926.705 1213.31 917.661 1205.02 908.199 1195.44 z" fill="rgb(200,92,68)" transform="translate(0,0)"></path>
<path d="M 443.287 1356.75 C 445.93 1348.11 469.936 1318.21 476.494 1310.61 C 509.356 1272.51 546.911 1236.53 593.449 1215.84 C 606.169 1210.19 619.257 1205.79 632.418 1201.19 C 649.159 1254.61 625.086 1322.68 602.219 1371.01 C 599.005 1376.48 590.934 1378.45 584.982 1379.27 C 548.156 1384.34 532.312 1341.33 496.11 1338.34 C 472.854 1336.43 460.935 1342.99 443.287 1356.75 z" fill="rgb(238,172,144)" transform="translate(0,0)"></path>
<path d="M 119.824 1633.73 C 153.021 1635.25 166.632 1655.17 191.005 1674.57 C 246.096 1718.41 267.349 1636.27 321.562 1633.13 C 361.473 1630.81 374.558 1652.01 403.241 1674.58 C 458.863 1718.36 480.614 1636.62 533.793 1632.96 C 571.979 1630.33 587.332 1651.06 614.568 1673.08 C 671.457 1719.06 692.743 1637.44 746.884 1632.94 C 785.501 1629.74 800.261 1651.73 827.659 1673.36 C 886.083 1719.5 904.519 1636.64 960.274 1633.11 C 997.701 1630.74 1011.97 1648.81 1038.27 1670.52 C 1099.53 1721.1 1113.21 1638.45 1173.69 1633.12 C 1231.46 1628.03 1248.45 1692.69 1292.33 1686.18 C 1324.82 1681.35 1339.45 1637.83 1386.11 1633.8 C 1386.14 1640.33 1385.91 1649.39 1386.4 1655.71 L 1385.51 1659.3 C 1381.02 1661.94 1368.66 1664.1 1363.53 1668.2 C 1358.28 1672.4 1352 1677.72 1346.99 1682.23 C 1322.88 1703.95 1303.62 1717.27 1269.91 1709.94 C 1230.64 1701.39 1202.66 1637.38 1157.23 1664.4 C 1123.36 1684.55 1109.08 1721.56 1057.61 1709.88 C 1017.17 1700.71 990.047 1636.92 944.84 1664.08 C 909.837 1685.1 896.74 1721.14 845.196 1709.97 C 803.652 1700.96 776.18 1637 730.779 1664.49 C 696.473 1687.87 678.891 1720.94 631.314 1710.21 C 592.573 1701.48 561.283 1637.24 519.177 1663.8 C 485.592 1687.01 466.17 1720.81 419.465 1710.4 C 379.379 1701.47 349.001 1636.59 304.956 1664.7 C 271.073 1686.33 254.879 1720.94 205.747 1710.36 C 171.529 1702.98 152.565 1660.91 119.06 1659.65 L 119.18 1653.51 C 119.866 1648.86 119.744 1638.8 119.824 1633.73 z" fill="rgb(3,77,133)" transform="translate(0,0)"></path>
<path d="M 119.925 1480.14 C 153.045 1483.69 163.665 1500.9 189.43 1521.22 C 246.002 1565.82 267.019 1483.38 321.606 1480.24 C 359.281 1478.07 375.075 1498.68 401.429 1520.15 C 458.441 1566.6 480.289 1484.27 534.118 1480.12 C 570.591 1477.3 587.823 1497.62 613.765 1519.02 C 672.173 1567.2 691.974 1484.32 748.133 1480.08 C 787.75 1477.08 801.502 1499.59 829.059 1521.5 C 884.401 1565.51 907.935 1483.13 960.95 1479.83 C 1000.39 1477.38 1015.38 1499.28 1043.21 1521.46 C 1098.22 1565.29 1120.6 1482.57 1173.84 1479.92 C 1212.95 1477.98 1226.45 1498.01 1253.33 1519.69 C 1311.54 1566.65 1328.43 1486.04 1386.29 1480.75 C 1385.48 1486.78 1385.85 1500.76 1385.89 1507.45 C 1353.17 1509.5 1332.9 1559.94 1288.97 1559.23 C 1246.88 1562.84 1224.47 1514.37 1189.74 1506.36 C 1144.03 1495.82 1126.75 1559.59 1076.26 1559.13 C 1025.5 1558.66 1017.63 1517.92 977.163 1506.22 C 925.306 1497.58 917.82 1560.62 860.357 1559.06 C 813.126 1557.78 799.158 1514.51 764.108 1505.98 C 719.418 1495.12 701.77 1560.17 647.881 1559.17 C 589.942 1558.1 576.138 1487.12 520.637 1509.91 C 488.49 1529.56 477.398 1557.09 436.013 1559.14 C 391.048 1561.37 371.053 1512.95 336.759 1505.94 C 291.17 1496.63 274.957 1560.04 222.403 1558.95 C 170.348 1557.88 163.088 1514.72 119.772 1505.63 L 119.925 1480.14 z" fill="rgb(3,77,133)" transform="translate(0,0)"></path>
<path d="M 688.25 319.304 C 721.312 272.324 782.855 272.479 811.283 323.936 C 834.256 297.851 873.824 297.642 898.783 320.658 C 911.423 332.313 916.295 344.229 919.927 360.651 C 938.726 353.525 954.149 351.824 973.195 360.391 C 988.826 367.393 1000.95 380.432 1006.8 396.529 C 1012.11 411.107 1011.38 422.325 1009.25 437.308 C 1063.43 444.86 1085.53 486.568 1063.47 536.166 C 1082.9 545.827 1096.7 555.988 1103.88 577.785 C 1109.66 595.163 1108.26 614.131 1099.97 630.466 C 1096.86 636.595 1092.81 642.175 1088.55 647.55 C 1103.99 665.054 1112.79 681.282 1111.14 705.388 C 1109.88 722.879 1101.74 739.158 1088.49 750.645 C 1082.74 755.566 1077.62 758.518 1073.16 764.782 C 1099.84 777.704 1114.67 792.827 1125.48 821.44 C 1129.15 831.141 1132.47 851.928 1130.35 862.225 C 1121.54 922.105 1069.67 959.811 1012.17 931.687 C 1009.24 929.743 1007.21 928.408 1004.48 926.141 C 997.065 942.458 990.427 957.691 981.098 973.198 C 948.359 1027.62 900.732 1064.64 841.802 1086.87 C 839.781 1087.64 838.284 1088.08 836.171 1088.55 L 836.175 1155.63 C 786.583 1148.9 732.365 1140.08 683.036 1131.74 L 683.131 1099.24 C 654.074 1092.27 637.129 1086.5 610.349 1073.42 C 555.079 1046.44 500.089 989.119 481.012 930.001 C 461.09 938.044 444.781 942.341 423.252 936.142 C 400.553 929.526 381.475 914.047 370.323 893.2 C 358.79 871.581 356.247 846.288 363.244 822.806 C 370.959 797.149 389.598 774.231 414.96 765.924 C 418.99 764.604 423.494 762.86 427.137 760.763 C 384.018 733.69 377.123 683.684 413.789 647.668 C 410.561 643.973 406.497 639.118 403.918 635.014 C 394.065 619.337 391.045 600.315 395.558 582.357 C 400.994 560.348 415.378 548.549 433.749 537.596 C 429.678 529.622 426.593 520.194 425.645 511.28 C 423.844 492.81 429.471 474.384 441.284 460.072 C 455.486 442.819 472.162 437.975 493.262 435.832 C 490.013 421.243 490.601 406.901 496.268 392.921 C 502.451 377.569 514.563 365.359 529.863 359.051 C 549.682 350.806 563.845 354.13 582.54 361.739 C 585.233 347.409 587.261 338.597 597.032 326.779 C 607.84 313.617 623.481 305.347 640.443 303.825 C 658.956 302.099 674.204 307.552 688.25 319.304 z" fill="rgb(238,172,144)" transform="translate(0,0)"></path>
<path d="M 688.25 319.304 C 721.312 272.324 782.855 272.479 811.283 323.936 C 834.256 297.851 873.824 297.642 898.783 320.658 C 911.423 332.313 916.295 344.229 919.927 360.651 C 938.726 353.525 954.149 351.824 973.195 360.391 C 988.826 367.393 1000.95 380.432 1006.8 396.529 C 1012.11 411.107 1011.38 422.325 1009.25 437.308 C 1063.43 444.86 1085.53 486.568 1063.47 536.166 C 1082.9 545.827 1096.7 555.988 1103.88 577.785 C 1109.66 595.163 1108.26 614.131 1099.97 630.466 C 1096.86 636.595 1092.81 642.175 1088.55 647.55 C 1103.99 665.054 1112.79 681.282 1111.14 705.388 C 1109.88 722.879 1101.74 739.158 1088.49 750.645 C 1082.74 755.566 1077.62 758.518 1073.16 764.782 C 1050.57 760.871 1041.21 761.5 1019.59 768.388 C 1010.55 771.271 1003.25 767.858 995.662 763.318 C 972.748 747.347 981.031 712.467 993.487 692.456 C 960.123 668.096 949.665 636.571 967.13 597.92 C 922.819 606.249 887.438 582.87 879.434 538.193 C 852.945 567.889 805.958 563.861 782.106 532.916 C 776.779 526.005 774.627 520.545 771.356 512.574 C 747.984 551.762 692.058 556.311 664.64 519.965 C 661.148 526.019 657.927 531.217 653.082 536.291 C 628.753 561.767 589.048 563.079 563.953 538.677 C 557.526 580.633 533.586 601.187 494.493 613.929 C 506.002 652.478 494.081 680.718 462.117 703.824 L 463.04 761.156 C 450.419 759.684 439.82 759.951 427.137 760.763 C 384.018 733.69 377.123 683.684 413.789 647.668 C 410.561 643.973 406.497 639.118 403.918 635.014 C 394.065 619.337 391.045 600.315 395.558 582.357 C 400.994 560.348 415.378 548.549 433.749 537.596 C 429.678 529.622 426.593 520.194 425.645 511.28 C 423.844 492.81 429.471 474.384 441.284 460.072 C 455.486 442.819 472.162 437.975 493.262 435.832 C 490.013 421.243 490.601 406.901 496.268 392.921 C 502.451 377.569 514.563 365.359 529.863 359.051 C 549.682 350.806 563.845 354.13 582.54 361.739 C 585.233 347.409 587.261 338.597 597.032 326.779 C 607.84 313.617 623.481 305.347 640.443 303.825 C 658.956 302.099 674.204 307.552 688.25 319.304 z" fill="rgb(181,132,83)" transform="translate(0,0)"></path>
<path d="M 811.283 323.936 C 834.256 297.851 873.824 297.642 898.783 320.658 C 911.423 332.313 916.295 344.229 919.927 360.651 C 938.726 353.525 954.149 351.824 973.195 360.391 C 988.826 367.393 1000.95 380.432 1006.8 396.529 C 1012.11 411.107 1011.38 422.325 1009.25 437.308 C 1063.43 444.86 1085.53 486.568 1063.47 536.166 C 1082.9 545.827 1096.7 555.988 1103.88 577.785 C 1109.66 595.163 1108.26 614.131 1099.97 630.466 C 1096.86 636.595 1092.81 642.175 1088.55 647.55 C 1103.99 665.054 1112.79 681.282 1111.14 705.388 C 1109.88 722.879 1101.74 739.158 1088.49 750.645 C 1082.74 755.566 1077.62 758.518 1073.16 764.782 C 1050.57 760.871 1041.21 761.5 1019.59 768.388 C 1010.55 771.271 1003.25 767.858 995.662 763.318 C 1002.32 758.047 1006.36 754.68 1011.19 747.598 C 1019.9 734.665 1023.08 718.783 1020.01 703.494 C 1016.48 685.588 1006.8 675.394 992.215 665.692 C 1013.43 644.231 1017.55 614.92 1004.42 587.587 C 994.515 566.979 977.932 556.378 956.779 549.171 C 956.844 508.141 964.92 458.209 925.655 433.474 C 909.915 423.559 899.065 424.126 881.463 421.352 C 879.982 412.91 879.261 404.102 877.315 395.435 C 871.457 369.35 854.059 334.763 826.905 325.675 C 822.23 324.11 816.401 325.474 811.283 323.936 z" fill="rgb(76,44,22)" transform="translate(0,0)"></path>
<path d="M 683.131 1099.24 C 738.365 1107.93 782.994 1106.19 836.171 1088.55 L 836.175 1155.63 C 786.583 1148.9 732.365 1140.08 683.036 1131.74 L 683.131 1099.24 z" fill="rgb(200,92,68)" transform="translate(0,0)"></path>
<path d="M 1012.17 931.687 C 1017.23 928.781 1030.92 926.927 1036.84 924.449 C 1060.52 914.541 1085.84 901.176 1105.3 884.363 C 1110.41 879.945 1126 863.331 1130.35 862.225 C 1121.54 922.105 1069.67 959.811 1012.17 931.687 z" fill="rgb(200,92,68)" transform="translate(0,0)"></path>
<path d="M 703.186 711.928 C 718.224 712.659 717.045 722.754 717.836 735.225 C 719.487 761.257 710.298 788.562 690.768 806.306 C 673.862 821.666 688.694 833.095 705.841 832.097 C 715.277 831.669 735.041 828.503 732.689 844.097 C 732.001 848.377 729.234 850.14 725.843 852.373 C 715.613 854.191 703.644 854.423 693.992 852.841 C 659.772 847.235 651.841 812.201 677.014 789.792 C 683.98 783.591 690.724 773.673 693.56 764.82 C 698.266 750.134 694.723 734.735 696.429 719.799 C 696.915 715.724 700.064 713.957 703.186 711.928 z" fill="rgb(0,0,0)" transform="translate(0,0)"></path>
<path d="M 440.039 788.177 C 451.273 787.434 462.946 787.988 472.059 795.619 C 474.063 797.297 475.792 799.447 475.917 802.127 C 476.056 805.096 474.453 807.025 472.383 808.971 C 464.218 816.647 455.334 809.894 445.846 809.699 C 438.824 809.554 433.062 812.302 428.068 817.085 C 421.147 823.714 417.736 833.277 417.773 842.761 C 417.929 882.611 457.375 877.586 469.329 890.011 C 469.534 890.225 469.731 890.446 469.933 890.664 C 476.053 917.005 440.931 903.2 430.092 897.08 C 382.886 870.424 384.077 802.543 440.039 788.177 z" fill="rgb(0,0,0)" transform="translate(0,0)"></path>
<path d="M 1038.54 792.301 C 1049.43 791.842 1060.19 794.836 1069.28 800.854 C 1081.25 808.644 1089.52 820.988 1092.16 835.023 C 1095.36 851.137 1091.87 867.859 1082.49 881.346 C 1071.92 896.786 1036.77 920.96 1019.23 908.654 C 1012.15 893.992 1025.44 891.65 1037.18 888.139 C 1071.05 877.964 1088.03 839.928 1055.08 817.02 C 1043.98 809.302 1020.78 821.946 1017.42 809.281 C 1013.88 795.946 1029.07 793.716 1038.54 792.301 z" fill="rgb(0,0,0)" transform="translate(0,0)"></path>
<path d="M 597.737 717.855 C 614.316 715.8 629.427 727.56 631.506 744.136 C 633.585 760.711 621.847 775.839 605.274 777.942 C 588.668 780.05 573.502 768.282 571.419 751.673 C 569.335 735.063 581.125 719.915 597.737 717.855 z" fill="rgb(0,0,0)" transform="translate(0,0)"></path>
<path d="M 823.078 717.861 C 839.775 716.798 854.143 729.537 855.087 746.241 C 856.032 762.945 843.191 777.222 826.481 778.049 C 809.937 778.866 795.833 766.182 794.898 749.644 C 793.963 733.107 806.547 718.913 823.078 717.861 z" fill="rgb(0,0,0)" transform="translate(0,0)"></path>
<path d="M 675.138 941.877 C 682.899 941.332 693.884 947.563 702.066 949.583 C 715.687 953.143 729.438 951.671 743.175 948.745 C 750.44 947.198 768.641 938.073 772.281 949.632 C 774.086 955.365 772.148 959.404 767.939 963.423 C 756.256 968.85 743.667 972.065 730.812 972.904 C 716.3 973.901 648.994 969.557 675.138 941.877 z" fill="rgb(0,0,0)" transform="translate(0,0)"></path>
<metadata><recraft-signature>{"signed_by": "recraft", "signature_b64": "ef0XeYMQg3YXc3681pzCGUGUkTHOs+4mJQxux77yv7kJlTD6vD7rIJg/jxNfb7PBPnQyL9tTVD9x2mk8MFtFCg==", "signing_algo": "Ed25519", "generation_timestamp": 1779091676, "identifier": "6dc712ca-e859-4f0f-9058-d28f596d2cdd"}</recraft-signature></metadata></svg>