<svg xmlns="http://www.w3.org/2000/svg" height="1216" preserveAspectRatio="none" style="display: block;" version="1.1" viewBox="0 0 1509 2048" width="896">
<path d="M 0 0 L 1509 0 L 1509 2048 L 0 2048 L 0 0 z" fill="rgb(255,255,255)" transform="translate(0,0)"></path>
<path d="M 616.988 642.887 C 617.82 640.33 621.745 635.158 623.406 632.228 C 638.206 606.115 654.118 586.085 675.283 564.91 C 681.593 560.347 695.66 543.074 701.931 540.536 C 718.431 533.859 739.917 516.832 755.159 510.84 C 780.309 500.953 809.613 495.076 836.248 491.963 C 843.525 491.113 852.974 493.079 860.439 492.398 C 875.942 490.232 884.671 493.301 898.664 495.557 C 912.181 497.736 929.425 495.994 943.613 498.706 C 957.841 501.425 972.663 502.782 986.973 505.129 C 997.907 506.702 993.972 509.386 1009.57 509.467 C 1015.68 508.636 1032.86 513.194 1039.99 514.503 C 1057.04 517.635 1072.63 520.19 1089.52 524.578 C 1101.19 527.613 1109.31 533.063 1118.92 535.984 C 1141.58 542.881 1165.56 552.482 1184.73 567.178 C 1215.18 590.508 1238.5 614.845 1256.97 649.03 C 1259.59 653.977 1259.89 659.953 1262.37 664.941 C 1267.39 675.005 1274.82 686.827 1277.38 697.84 C 1283.71 725.132 1288.26 752.426 1295.82 779.481 C 1297.88 786.832 1293.5 793.716 1298.69 805.318 C 1303.57 811.57 1301.05 811.155 1301.67 817.94 C 1304.58 849.868 1310.55 881.635 1310.09 913.814 C 1309.99 920.844 1311.04 926.905 1311.29 933.722 C 1307.94 939.203 1309.5 961.439 1309.41 968.977 L 1309.09 1063.27 C 1308.94 1079.44 1308.07 1099.52 1305.88 1115.44 C 1302.59 1139.41 1294.99 1161.78 1297.66 1186.48 C 1297.97 1189.37 1291.9 1203.26 1291.77 1207.21 C 1288.05 1246.01 1282.17 1283.84 1270.71 1321.16 C 1268.18 1329.39 1267.99 1340.46 1265.75 1348.97 C 1258.46 1375.82 1252.41 1400.83 1235.43 1423.33 C 1227.28 1434.13 1222.4 1446.99 1211.26 1457.33 C 1199.61 1468.13 1183.74 1481.15 1170.72 1490.13 C 1153.71 1501.85 1129.82 1511.71 1109.93 1516.74 C 1095.91 1526.22 1079.28 1523.54 1063.38 1533.64 C 1045.58 1536.74 1025.26 1540.84 1008.03 1545.73 C 991.016 1550.56 977.377 1552.17 959.829 1553.1 C 951.582 1553.54 941.644 1557.03 933.24 1557.83 C 916.471 1558.71 899.83 1558.92 883.041 1560.57 C 881.767 1559.72 880.493 1558.87 879.219 1558.02 C 871.931 1559.19 871.024 1558.16 864.116 1558.31 L 829.719 1558.76 C 803.676 1559.05 777.272 1559.64 751.29 1560.51 C 745.938 1560.25 738.876 1556.15 733.769 1556.06 C 694.747 1555.34 655.513 1545.67 616.611 1543.96 L 615.281 1544.5 C 608.279 1547.4 576.005 1532.85 556.888 1539.19 C 551.761 1536.38 547.333 1534.93 541.832 1532.94 C 532.355 1535.55 513.084 1531.21 503.573 1528.38 C 478.083 1527.06 457.375 1517.7 431.914 1516.76 C 428.72 1516.64 428.323 1515.56 426.697 1513.41 C 424.652 1511.96 411.126 1510.31 407.674 1509.18 C 403.883 1507.93 401.857 1508.76 398.265 1510.16 L 397.583 1509.81 C 383.89 1502.99 378.545 1504.18 365.631 1499.74 C 350.184 1494.42 342.972 1489.91 326.295 1486.39 L 325.505 1485.6 C 318.244 1478.22 311.064 1476.88 302.569 1470.91 C 296.522 1466.66 290.689 1457.92 285.37 1453.64 C 274.043 1444.55 266.952 1442.36 258.442 1429.83 C 248.445 1415.11 239.314 1394.9 243.305 1376.64 C 247.488 1357.49 257.299 1342.51 271.688 1329.44 C 283.311 1318.88 289.018 1319.2 300.252 1312.5 C 312.304 1305.32 324.9 1296.21 337.821 1289.85 C 351.522 1283.11 366.431 1277.71 379.918 1270.33 C 388.587 1265.59 397.39 1257.35 406.055 1252.45 C 412.79 1248.64 422 1245.82 428.63 1242.02 C 450.642 1229.41 472.829 1218.55 494.546 1205.3 C 499.518 1202.8 504.826 1199.34 509.971 1197.31 C 516.329 1194.8 520.64 1194.25 526.452 1190.18 C 525.883 1189.37 525.263 1188.12 525.545 1187.11 C 528.983 1174.83 530.274 1164.51 530.432 1151.79 C 532.025 1150.79 534.641 1148.36 535.119 1146.57 C 536.747 1140.48 537.847 1134.28 539.47 1128.16 C 546.289 1102.44 554.088 1076.8 558.361 1050.5 C 559.715 1042.43 558.305 1035.17 558.916 1032.38 C 561.237 1021.8 565.509 1010.37 567.021 999.004 C 568.281 989.534 567.33 979.307 569.286 970.196 C 570.329 966.814 569.648 965.565 568.197 962.498 C 570.309 953.673 568.505 954.179 568.867 946.543 C 569.456 934.149 569.761 919.934 572.307 907.907 C 573.29 904.765 573.076 886.248 574.294 881.076 C 575.119 877.573 574.609 875.818 572.863 872.795 C 570.063 872.193 564.568 863.705 562.521 860.91 C 556.42 861.111 553.516 861.727 547.814 862.184 C 548.129 854.297 548.077 844.297 547.155 836.514 C 546.844 833.894 549.369 832.834 548.191 824.767 C 540.372 827.37 515.72 824.629 506.826 823.553 C 501.85 819.386 493.093 814.271 489.984 809.868 C 490.995 804.183 508.937 809.062 512.678 807.152 C 522.41 802.18 551.179 783.905 551.726 772.789 C 556.843 765.986 570.364 727.369 574.538 717.092 C 578.035 708.482 581.246 702.451 585.732 694.071 C 591.1 687.792 609.203 648.222 616.988 642.887 z" fill="rgb(5,60,100)" transform="translate(0,0)"></path>
<path d="M 616.988 642.887 C 617.82 640.33 621.745 635.158 623.406 632.228 C 638.206 606.115 654.118 586.085 675.283 564.91 C 681.593 560.347 695.66 543.074 701.931 540.536 C 718.431 533.859 739.917 516.832 755.159 510.84 C 780.309 500.953 809.613 495.076 836.248 491.963 C 843.525 491.113 852.974 493.079 860.439 492.398 C 875.942 490.232 884.671 493.301 898.664 495.557 C 912.181 497.736 929.425 495.994 943.613 498.706 C 957.841 501.425 972.663 502.782 986.973 505.129 C 997.907 506.702 993.972 509.386 1009.57 509.467 C 1015.68 508.636 1032.86 513.194 1039.99 514.503 C 1057.04 517.635 1072.63 520.19 1089.52 524.578 C 1101.19 527.613 1109.31 533.063 1118.92 535.984 C 1141.58 542.881 1165.56 552.482 1184.73 567.178 C 1215.18 590.508 1238.5 614.845 1256.97 649.03 C 1259.59 653.977 1259.89 659.953 1262.37 664.941 C 1267.39 675.005 1274.82 686.827 1277.38 697.84 C 1283.71 725.132 1288.26 752.426 1295.82 779.481 C 1297.88 786.832 1293.5 793.716 1298.69 805.318 C 1276.37 820.524 1253.7 834.624 1232.77 851.818 C 1228.14 855.622 1218.67 860.411 1215.28 864.309 C 1205.74 873.8 1187.97 885.181 1181.72 894.859 C 1164.75 901.795 1149.15 920.162 1134.39 931.512 C 1127.25 936.999 1120.08 942.221 1112.91 947.645 C 1108.9 950.678 1108.37 953.172 1103.35 956.343 C 1102.26 959.49 1101.29 967.418 1099.95 971.648 C 1085.16 1018.26 1059.19 1032.61 1013.06 1031.05 C 1012.54 1031.03 1012.03 1031 1011.52 1030.97 L 1008.16 1033.29 C 997.008 1044.17 976.269 1066.98 961.354 1069.43 C 951.768 1074.89 931.157 1088.05 919.821 1083.97 C 916.755 1084.44 883.681 1100.02 882.565 1101.74 C 880.476 1114.31 879.064 1130.6 876.623 1141.8 C 872.002 1143.48 861.581 1151.96 857.111 1155.34 C 851.368 1162.91 848.548 1165.24 839.927 1169.4 C 837.409 1174.67 837.812 1174.97 833.382 1177.67 C 826.092 1182.12 814.995 1187.87 808.972 1193.61 C 797.762 1204.27 796.976 1212.91 780.692 1218.3 C 769.607 1215.55 758.87 1215.7 746.684 1211.52 C 726.546 1204.6 713.102 1191.11 703.67 1172.2 C 697.549 1159.92 692.892 1146.24 697.171 1133.02 L 696.724 1131.54 C 698.28 1130.75 699.146 1129.79 700.478 1128.63 C 696.117 1121.9 698.156 1117.53 702.428 1111.64 C 696.49 1107.37 685.384 1105.48 678.858 1102.79 C 635.375 1084.86 597.799 1051.94 581.212 1007.17 C 578.548 1000.69 575.997 994.354 573.911 987.659 C 572.195 982.153 571.887 975.188 569.286 970.196 C 570.329 966.814 569.648 965.565 568.197 962.498 C 570.309 953.673 568.505 954.179 568.867 946.543 C 569.456 934.149 569.761 919.934 572.307 907.907 C 573.29 904.765 573.076 886.248 574.294 881.076 C 575.119 877.573 574.609 875.818 572.863 872.795 C 570.063 872.193 564.568 863.705 562.521 860.91 C 556.42 861.111 553.516 861.727 547.814 862.184 C 548.129 854.297 548.077 844.297 547.155 836.514 C 546.844 833.894 549.369 832.834 548.191 824.767 C 540.372 827.37 515.72 824.629 506.826 823.553 C 501.85 819.386 493.093 814.271 489.984 809.868 C 490.995 804.183 508.937 809.062 512.678 807.152 C 522.41 802.18 551.179 783.905 551.726 772.789 C 556.843 765.986 570.364 727.369 574.538 717.092 C 578.035 708.482 581.246 702.451 585.732 694.071 C 591.1 687.792 609.203 648.222 616.988 642.887 z" fill="rgb(82,54,27)" transform="translate(0,0)"></path>
<path d="M 766.594 678.204 C 759.147 728.953 793.055 786.261 839.812 804.774 C 844.779 806.741 847.957 808.824 853.558 808.912 L 855.707 807.81 C 857.328 801.927 849.374 796.782 845.791 791.958 C 832.554 774.135 831.056 745.54 837.751 724.744 C 841.839 739.043 841.67 751.223 844.716 762.718 C 852.919 793.678 883.626 826.171 911.752 840.854 C 922.353 846.388 959.901 862.11 972.025 863.452 C 972.496 892.685 965.491 920.346 976.134 949.504 C 977.605 953.534 976.035 956.858 978.754 961.186 C 981.658 962.596 980.178 962.442 983.346 961.595 C 985.706 958.694 988.813 949.248 989.613 945.06 C 994.608 918.894 1017.15 907.033 1044.08 904.329 C 1057.88 903.023 1071.64 907.268 1082.31 916.125 L 1088.32 921.195 C 1094.56 930.295 1097.24 934.535 1100.2 945.453 C 1100.87 947.918 1102.29 954.367 1103.35 956.343 C 1102.26 959.49 1101.29 967.418 1099.95 971.648 C 1085.16 1018.26 1059.19 1032.61 1013.06 1031.05 C 1012.54 1031.03 1012.03 1031 1011.52 1030.97 L 1008.16 1033.29 C 997.008 1044.17 976.269 1066.98 961.354 1069.43 C 951.768 1074.89 931.157 1088.05 919.821 1083.97 C 916.755 1084.44 883.681 1100.02 882.565 1101.74 C 880.476 1114.31 879.064 1130.6 876.623 1141.8 C 872.002 1143.48 861.581 1151.96 857.111 1155.34 C 851.368 1162.91 848.548 1165.24 839.927 1169.4 C 837.409 1174.67 837.812 1174.97 833.382 1177.67 C 826.092 1182.12 814.995 1187.87 808.972 1193.61 C 797.762 1204.27 796.976 1212.91 780.692 1218.3 C 769.607 1215.55 758.87 1215.7 746.684 1211.52 C 726.546 1204.6 713.102 1191.11 703.67 1172.2 C 697.549 1159.92 692.892 1146.24 697.171 1133.02 L 696.724 1131.54 C 698.28 1130.75 699.146 1129.79 700.478 1128.63 C 696.117 1121.9 698.156 1117.53 702.428 1111.64 C 696.49 1107.37 685.384 1105.48 678.858 1102.79 C 635.375 1084.86 597.799 1051.94 581.212 1007.17 C 578.548 1000.69 575.997 994.354 573.911 987.659 C 572.195 982.153 571.887 975.188 569.286 970.196 C 570.329 966.814 569.648 965.565 568.197 962.498 C 570.309 953.673 568.505 954.179 568.867 946.543 C 569.456 934.149 569.761 919.934 572.307 907.907 C 573.29 904.765 573.076 886.248 574.294 881.076 C 575.119 877.573 574.609 875.818 572.863 872.795 C 583.072 848.535 584.554 775.399 599.445 764.258 C 625.026 745.118 638.677 733.824 662.116 704.563 L 664.058 703.864 C 664.975 704.807 665.17 704.401 665.107 705.547 C 663.777 729.709 651.87 749.065 637.039 767.389 C 633.894 771.275 629.691 769.891 627.457 778.971 C 631.691 788.146 679.379 767.928 687.041 763.051 C 709.716 748.62 758.089 702.383 766.594 678.204 z" fill="rgb(191,159,131)" transform="translate(0,0)"></path>
<path d="M 700.478 1128.63 C 710.254 1130.68 720.795 1136.89 730.204 1140.74 C 771.695 1157.71 812.562 1166.34 857.111 1155.34 C 851.368 1162.91 848.548 1165.24 839.927 1169.4 C 837.409 1174.67 837.812 1174.97 833.382 1177.67 C 826.092 1182.12 814.995 1187.87 808.972 1193.61 C 797.762 1204.27 796.976 1212.91 780.692 1218.3 C 769.607 1215.55 758.87 1215.7 746.684 1211.52 C 726.546 1204.6 713.102 1191.11 703.67 1172.2 C 697.549 1159.92 692.892 1146.24 697.171 1133.02 L 696.724 1131.54 C 698.28 1130.75 699.146 1129.79 700.478 1128.63 z" fill="rgb(191,159,131)" transform="translate(0,0)"></path>
<path d="M 702.428 1111.64 C 715.277 1113.97 729.993 1120.45 741.608 1121.95 C 779.222 1126.83 820.855 1120.02 856.9 1108.72 C 865.465 1106.03 871.461 1100.04 879.655 1099.06 C 880.976 1098.9 881.838 1100.75 882.565 1101.74 C 880.476 1114.31 879.064 1130.6 876.623 1141.8 C 872.002 1143.48 861.581 1151.96 857.111 1155.34 C 812.562 1166.34 771.695 1157.71 730.204 1140.74 C 720.795 1136.89 710.254 1130.68 700.478 1128.63 C 696.117 1121.9 698.156 1117.53 702.428 1111.64 z" fill="rgb(82,54,27)" transform="translate(0,0)"></path>
<path d="M 970.16 1027.97 C 975.215 1025.21 977.775 1024.18 981.368 1019.67 C 988.633 1022.43 1002.81 1027.82 1008.16 1033.29 C 997.008 1044.17 976.269 1066.98 961.354 1069.43 C 951.768 1074.89 931.157 1088.05 919.821 1083.97 C 924.318 1075.69 940.624 1059.95 947.746 1053.32 C 958.148 1043.64 964.813 1042.5 970.16 1027.97 z" fill="rgb(82,54,27)" transform="translate(0,0)"></path>
<path d="M 782.372 897.707 C 783.273 892.139 786.944 893.357 788.759 888.468 C 788.702 888.621 789.174 887.332 789.297 887.186 C 795.361 880.018 811.317 875.371 820.622 874.479 C 821.241 874.42 827.93 871.64 829.061 871.255 C 837.244 873.991 840.398 873.884 847.373 878.903 C 871.971 893.351 881.445 907.583 883.312 935.977 C 878.867 941.817 877.562 944.241 871.669 948.085 C 832.587 973.576 799.005 956.448 780.285 916.825 C 776.483 908.778 771.957 904.62 782.372 897.707 z" fill="rgb(255,255,255)" transform="translate(0,0)"></path>
<path d="M 782.372 897.707 C 783.273 892.139 786.944 893.357 788.759 888.468 C 788.702 888.621 789.174 887.332 789.297 887.186 C 795.361 880.018 811.317 875.371 820.622 874.479 C 821.241 874.42 827.93 871.64 829.061 871.255 C 837.244 873.991 840.398 873.884 847.373 878.903 C 839.71 880.021 837.874 878.861 829.993 878.151 C 828.193 877.989 826.296 879.706 824.523 879.885 C 804.321 880.775 797.304 886.483 782.372 897.707 z" fill="rgb(82,54,27)" transform="translate(0,0)"></path>
<path d="M 831.697 887.053 C 836.19 886.953 846.204 887.636 849.697 890.582 C 874.173 911.231 868.546 946.663 836.234 953.96 C 797.045 954.913 789.522 899.13 831.697 887.053 z" fill="rgb(36,31,31)" transform="translate(0,0)"></path>
<path d="M 643.407 845.215 C 650.859 845.068 667.355 842.356 668.929 852.124 L 669.152 853.35 C 676.117 852.865 681.15 855.222 686.233 859.993 C 700.738 873.604 707.125 886.91 708.451 906.381 L 708.491 907.063 C 698.36 921.107 694.527 923.532 678.165 929.605 C 646.323 941.422 613.204 918.564 609.207 885.82 C 608.839 882.804 608.5 877.396 607.893 874.502 C 603.378 863.71 635.781 850.087 643.407 845.215 z" fill="rgb(255,255,255)" transform="translate(0,0)"></path>
<path d="M 643.407 845.215 C 650.859 845.068 667.355 842.356 668.929 852.124 L 669.152 853.35 C 661.658 853.694 650.106 851.57 642.995 853.89 C 631.302 857.705 618.338 868.883 607.893 874.502 C 603.378 863.71 635.781 850.087 643.407 845.215 z" fill="rgb(82,54,27)" transform="translate(0,0)"></path>
<path d="M 654.679 858.16 C 661.918 857.697 665.936 857.181 672.675 860.399 C 694.804 870.966 696.238 905.337 675.953 918.492 C 671.676 921.265 670.231 922.312 665.021 923.97 C 647.642 924.926 636.771 920.469 630.918 902.503 C 624.296 882.176 633.619 863.899 654.679 858.16 z" fill="rgb(36,31,31)" transform="translate(0,0)"></path>
<path d="M 723.563 913.889 C 739.791 917.137 724.789 926.931 718.924 931.913 C 716.62 933.87 712.932 940.391 710.56 940.951 C 703.678 942.575 691.727 954.921 697.352 962.376 C 703.96 971.031 713.953 972.356 724.018 974.954 C 726.464 975.585 734.325 973.415 732.885 981.008 C 732.635 982.325 731.009 983.267 729.869 983.858 C 719.053 984.16 710.358 984.103 700.122 978.663 C 657.82 956.183 707.029 930.46 723.563 913.889 z" fill="rgb(82,54,27)" transform="translate(0,0)"></path>
<path d="M 1036.83 937.138 C 1040.82 936.945 1045.1 936.618 1049 936.538 C 1059.25 936.327 1059.43 946.744 1050 947.95 C 1045.72 947.573 1036.73 950.385 1033.18 952.263 C 1024.82 956.693 1059.96 971.823 1041 979.271 C 1036.74 980.943 1034.52 972.3 1030.22 969.113 C 1028.43 968.554 1023.05 966.52 1021.55 967.011 C 1016.86 968.542 1016.64 986.636 1013 987.183 C 990.146 990.609 1017.56 950.587 1023.49 946.521 C 1027.39 943.848 1032.6 940.368 1036.83 937.138 z" fill="rgb(82,54,27)" transform="translate(0,0)"></path>
<path d="M 692.378 1020.82 C 703.908 1021.5 720.284 1032.5 733.06 1035.65 C 744.127 1038.39 766.987 1032.48 771.833 1041.08 C 771.55 1045.23 772.135 1043.66 769.567 1047.01 C 748.161 1049.79 719.64 1050.23 700.794 1037.95 C 693.923 1033.48 685.717 1029.36 692.378 1020.82 z" fill="rgb(82,54,27)" transform="translate(0,0)"></path>
<path d="M 658.81 805.474 C 668.499 802.971 676.035 812.389 683.438 816.569 C 694.007 822.537 686.486 831.565 678.42 825.556 C 675.4 823.306 669.67 820.384 666.014 819.235 C 661.46 818.597 658.194 816.827 653.785 817.119 C 647.338 818.532 646.057 818.587 639.761 819.377 C 635.977 823.65 631.513 831.409 624.908 826.529 C 622.505 824.754 621.036 820.476 623.653 818.663 C 627.049 816.708 632.855 811.799 636.501 811.038 C 638.613 810.597 639.217 810.384 641.496 809.58 C 647.757 807.371 652.473 806.658 658.81 805.474 z" fill="rgb(82,54,27)" transform="translate(0,0)"></path>
<path d="M 829.453 837.411 C 837.692 835.734 852.79 837.163 860.543 840.887 C 860.626 840.927 873.55 848.478 873.54 848.464 C 875.808 851.859 886.335 859.556 881.87 864.103 C 878.924 867.103 877.161 866.269 874.931 863.369 C 864.953 852.252 864.348 857.127 853.917 851.196 C 846.023 846.707 852.548 848.845 841.993 847.753 C 836.182 847.152 835.4 846.439 828.996 848.113 C 828.66 848.164 819.787 847.108 818.655 846.546 C 810.059 836.743 823.961 837.833 829.453 837.411 z" fill="rgb(82,54,27)" transform="translate(0,0)"></path>
<path d="M 616.988 642.887 C 617.82 640.33 621.745 635.158 623.406 632.228 C 638.206 606.115 654.118 586.085 675.283 564.91 C 681.593 560.347 695.66 543.074 701.931 540.536 C 718.431 533.859 739.917 516.832 755.159 510.84 C 780.309 500.953 809.613 495.076 836.248 491.963 C 843.525 491.113 852.974 493.079 860.439 492.398 C 875.942 490.232 884.671 493.301 898.664 495.557 C 912.181 497.736 929.425 495.994 943.613 498.706 C 957.841 501.425 972.663 502.782 986.973 505.129 C 997.907 506.702 993.972 509.386 1009.57 509.467 C 1015.68 508.636 1032.86 513.194 1039.99 514.503 C 1057.04 517.635 1072.63 520.19 1089.52 524.578 C 1101.19 527.613 1109.31 533.063 1118.92 535.984 C 1141.58 542.881 1165.56 552.482 1184.73 567.178 C 1215.18 590.508 1238.5 614.845 1256.97 649.03 C 1259.59 653.977 1259.89 659.953 1262.37 664.941 C 1267.39 675.005 1274.82 686.827 1277.38 697.84 C 1283.71 725.132 1288.26 752.426 1295.82 779.481 C 1297.88 786.832 1293.5 793.716 1298.69 805.318 C 1276.37 820.524 1253.7 834.624 1232.77 851.818 C 1228.14 855.622 1218.67 860.411 1215.28 864.309 C 1205.74 873.8 1187.97 885.181 1181.72 894.859 C 1164.75 901.795 1149.15 920.162 1134.39 931.512 C 1127.25 936.999 1120.08 942.221 1112.91 947.645 C 1108.9 950.678 1108.37 953.172 1103.35 956.343 C 1102.29 954.367 1100.87 947.918 1100.2 945.453 C 1097.24 934.535 1094.56 930.295 1088.32 921.195 C 1104.8 893.325 1102.11 833.749 1102.91 800.896 C 1103.01 796.785 1098.45 783.968 1097.63 778.814 C 1095.09 762.813 1092.73 749.638 1085.04 735.111 C 1078.96 722.984 1073.81 707.029 1064.31 696.675 C 1059.54 691.487 1045.03 679.12 1046.69 672.32 C 1049.9 672.705 1074.28 682.958 1078.61 685.046 C 1083.18 687.247 1092.19 698.382 1099.67 699.014 C 1102.25 697.305 1101.29 698.475 1102.18 695.055 C 1094.16 675.872 1057.68 648.639 1037.18 642.215 C 1027.73 639.253 1017.53 640.104 1008.41 634.923 C 1003.88 635.731 993.553 637.298 991.073 632.612 C 993.502 626.425 1007.85 620.299 1013.92 622.58 L 1015.04 623.012 C 1019.15 621.437 1023.67 619.381 1028.06 618.837 C 1037.28 617.694 1067.41 619.648 1072.78 616.97 C 1074.54 612.898 1067.83 609.919 1064.54 608.416 C 1032.65 593.849 999.649 595.776 970.595 615.685 C 969.255 616.603 967.774 616.186 966.522 615.602 C 965.992 612.857 962.701 596.77 961.962 595.097 C 958.702 587.715 942.456 568.141 936.064 563.267 C 927.213 556.517 910.001 547.672 899.981 541.836 C 898.026 540.698 895.384 541.811 893.541 542.704 C 892.319 545.364 892.428 543.992 893.498 546.966 C 909.411 558.432 935.796 593.405 932.488 614.395 C 932.305 615.551 932.106 615.262 931.072 615.987 C 930.88 615.497 930.112 613.533 929.829 613.093 C 918.622 595.724 898.683 581.175 879.276 575.179 C 867 571.387 836.311 563.836 824.552 564.103 C 790.851 564.869 748.265 568.708 716.099 579.161 C 704.395 582.964 676.535 600.094 664.951 606.832 C 651.661 615.355 640.205 626.189 627.001 634.946 C 622.801 637.732 622.444 640.403 616.988 642.887 z" fill="rgb(222,204,186)" transform="translate(0,0)"></path>
<path d="M 1009.57 509.467 C 1015.68 508.636 1032.86 513.194 1039.99 514.503 C 1057.04 517.635 1072.63 520.19 1089.52 524.578 C 1101.19 527.613 1109.31 533.063 1118.92 535.984 C 1141.58 542.881 1165.56 552.482 1184.73 567.178 C 1215.18 590.508 1238.5 614.845 1256.97 649.03 C 1259.59 653.977 1259.89 659.953 1262.37 664.941 C 1267.39 675.005 1274.82 686.827 1277.38 697.84 C 1283.71 725.132 1288.26 752.426 1295.82 779.481 C 1297.88 786.832 1293.5 793.716 1298.69 805.318 C 1276.37 820.524 1253.7 834.624 1232.77 851.818 C 1228.14 855.622 1218.67 860.411 1215.28 864.309 C 1212.05 854.14 1214.1 851.965 1212.76 844.643 C 1210.04 829.795 1207.95 793.345 1202.54 781.223 C 1203.97 776.949 1204.63 773.507 1204.34 768.995 C 1203.77 760.246 1201.72 751.764 1200.37 743.128 C 1198.08 728.481 1196.65 713.704 1192.51 699.405 C 1190.42 692.213 1186.64 685.433 1183.93 678.446 C 1180.01 668.316 1176.53 657.877 1171.95 648.019 C 1157.89 617.701 1135.58 585.654 1108.6 565.496 C 1096.7 556.611 1083.06 548.392 1070.11 541.16 C 1062.82 537.094 1053.81 534.259 1047.65 528.64 C 1038.22 520.044 1016.65 518.687 1009.57 509.467 z" fill="rgb(191,159,131)" transform="translate(0,0)"></path>
<path d="M 548.191 824.767 C 548.802 823.848 552.759 819.072 553.397 821.718 C 556.404 834.182 558.335 848.744 562.521 860.91 C 556.42 861.111 553.516 861.727 547.814 862.184 C 548.129 854.297 548.077 844.297 547.155 836.514 C 546.844 833.894 549.369 832.834 548.191 824.767 z" fill="rgb(5,60,100)" transform="translate(0,0)"></path>
<path d="M 1311.29 933.722 C 1307.94 939.203 1309.5 961.439 1309.41 968.977 L 1309.09 1063.27 C 1308.94 1079.44 1308.07 1099.52 1305.88 1115.44 C 1302.59 1139.41 1294.99 1161.78 1297.66 1186.48 C 1297.97 1189.37 1291.9 1203.26 1291.77 1207.21 C 1288.05 1246.01 1282.17 1283.84 1270.71 1321.16 C 1268.18 1329.39 1267.99 1340.46 1265.75 1348.97 C 1258.46 1375.82 1252.41 1400.83 1235.43 1423.33 C 1227.28 1434.13 1222.4 1446.99 1211.26 1457.33 C 1199.61 1468.13 1183.74 1481.15 1170.72 1490.13 C 1153.71 1501.85 1129.82 1511.71 1109.93 1516.74 C 1095.91 1526.22 1079.28 1523.54 1063.38 1533.64 C 1067.56 1524.11 1064.32 1507.27 1066.3 1498.23 C 1070.28 1480.02 1072.23 1473.81 1070.97 1455.51 C 1070.27 1445.41 1075.74 1425.6 1075.89 1413.79 C 1076.17 1391.97 1072.48 1362.52 1075.48 1341.51 C 1065.52 1321.6 1071.1 1307.95 1064.78 1291.6 C 1058.62 1275.62 1046.71 1256.86 1039.55 1239.36 C 1028.53 1233.98 1029.43 1228.16 1016.56 1223.32 C 1012.09 1207.41 994.352 1194.34 979.344 1188.93 C 994.024 1179.32 1009.82 1161.66 1023.88 1150.38 C 1027.02 1147.85 1029.42 1148.87 1031.55 1146.99 C 1037.21 1141.98 1042.53 1135.63 1048.27 1130.75 C 1051.96 1127.61 1059.83 1124.5 1063.64 1121.62 C 1065.99 1119.84 1070.36 1113.53 1072.78 1111.46 C 1077.3 1107.61 1082.4 1104.56 1086.99 1100.51 C 1093.45 1094.8 1099.26 1088.33 1105.89 1082.86 C 1111.49 1078.24 1118.48 1073.96 1124.04 1069.38 C 1132.54 1062.39 1140.28 1055.59 1149.15 1049.02 C 1158.18 1042.32 1170 1035.69 1178.57 1029.18 C 1191.05 1019.72 1195.1 1010.1 1210.93 1003.27 C 1213.92 1000.36 1220.51 998.684 1222.35 996.811 C 1235.81 983.099 1250.3 973.609 1265.66 962.476 C 1282.14 950.521 1292.54 941.999 1311.29 933.722 z" fill="rgb(191,159,131)" transform="translate(0,0)"></path>
<path d="M 1210.93 1003.27 C 1214.65 1038.89 1202.35 1080.86 1200.99 1117.32 C 1200.83 1121.52 1196.15 1132.64 1195.13 1138.56 L 1176.73 1247.96 C 1175.29 1256.45 1176.2 1265.48 1174.91 1274.31 C 1172.26 1292.47 1164.95 1308.81 1160.72 1326.33 C 1149.89 1371.51 1142.49 1417.4 1127.97 1461.61 C 1124.9 1470.95 1124.17 1482.18 1120.88 1491.73 C 1118.7 1498.04 1109.49 1511.2 1109.93 1516.74 C 1095.91 1526.22 1079.28 1523.54 1063.38 1533.64 C 1067.56 1524.11 1064.32 1507.27 1066.3 1498.23 C 1070.28 1480.02 1072.23 1473.81 1070.97 1455.51 C 1070.27 1445.41 1075.74 1425.6 1075.89 1413.79 C 1076.17 1391.97 1072.48 1362.52 1075.48 1341.51 C 1065.52 1321.6 1071.1 1307.95 1064.78 1291.6 C 1058.62 1275.62 1046.71 1256.86 1039.55 1239.36 C 1028.53 1233.98 1029.43 1228.16 1016.56 1223.32 C 1012.09 1207.41 994.352 1194.34 979.344 1188.93 C 994.024 1179.32 1009.82 1161.66 1023.88 1150.38 C 1027.02 1147.85 1029.42 1148.87 1031.55 1146.99 C 1037.21 1141.98 1042.53 1135.63 1048.27 1130.75 C 1051.96 1127.61 1059.83 1124.5 1063.64 1121.62 C 1065.99 1119.84 1070.36 1113.53 1072.78 1111.46 C 1077.3 1107.61 1082.4 1104.56 1086.99 1100.51 C 1093.45 1094.8 1099.26 1088.33 1105.89 1082.86 C 1111.49 1078.24 1118.48 1073.96 1124.04 1069.38 C 1132.54 1062.39 1140.28 1055.59 1149.15 1049.02 C 1158.18 1042.32 1170 1035.69 1178.57 1029.18 C 1191.05 1019.72 1195.1 1010.1 1210.93 1003.27 z" fill="rgb(222,204,186)" transform="translate(0,0)"></path>
<path d="M 979.344 1188.93 C 994.352 1194.34 1012.09 1207.41 1016.56 1223.32 C 1029.43 1228.16 1028.53 1233.98 1039.55 1239.36 C 1046.71 1256.86 1058.62 1275.62 1064.78 1291.6 C 1071.1 1307.95 1065.52 1321.6 1075.48 1341.51 C 1072.48 1362.52 1076.17 1391.97 1075.89 1413.79 C 1075.74 1425.6 1070.27 1445.41 1070.97 1455.51 C 1072.23 1473.81 1070.28 1480.02 1066.3 1498.23 C 1064.32 1507.27 1067.56 1524.11 1063.38 1533.64 C 1045.58 1536.74 1025.26 1540.84 1008.03 1545.73 C 991.016 1550.56 977.377 1552.17 959.829 1553.1 C 951.582 1553.54 941.644 1557.03 933.24 1557.83 C 916.471 1558.71 899.83 1558.92 883.041 1560.57 C 881.767 1559.72 880.493 1558.87 879.219 1558.02 C 871.931 1559.19 871.024 1558.16 864.116 1558.31 L 829.719 1558.76 C 803.676 1559.05 777.272 1559.64 751.29 1560.51 C 745.938 1560.25 738.876 1556.15 733.769 1556.06 C 694.747 1555.34 655.513 1545.67 616.611 1543.96 C 621.449 1535.61 640.153 1519.07 646.284 1509.82 C 649.384 1505.44 659.254 1498.15 661.759 1494.07 C 671.911 1477.51 684.803 1466.54 698.554 1453.14 C 702.525 1449.27 706.557 1439.34 710.804 1435.55 C 735.386 1413.58 757.042 1388.7 780.184 1365.23 C 785.178 1360.16 790.501 1356.47 795.771 1351.86 C 803.049 1345.48 807.913 1337.81 816.663 1333.15 C 821.317 1322.24 831.213 1317.89 839.523 1309.77 C 845.29 1304.13 851.394 1296.69 857.437 1291.74 C 871.788 1279.98 886.344 1268.43 900.455 1256.37 C 907.61 1252.22 919.358 1237.17 925.723 1233.96 C 938.863 1227.33 943.318 1221.71 953.622 1210.89 C 958.266 1206.01 966.35 1201.03 971.469 1196.35 C 974.536 1193.54 975.633 1191.52 979.344 1188.93 z" fill="rgb(251,218,153)" transform="translate(0,0)"></path>
<path d="M 1016.56 1223.32 C 1029.43 1228.16 1028.53 1233.98 1039.55 1239.36 C 1046.71 1256.86 1058.62 1275.62 1064.78 1291.6 C 1071.1 1307.95 1065.52 1321.6 1075.48 1341.51 C 1072.48 1362.52 1076.17 1391.97 1075.89 1413.79 C 1075.74 1425.6 1070.27 1445.41 1070.97 1455.51 C 1072.23 1473.81 1070.28 1480.02 1066.3 1498.23 C 1064.32 1507.27 1067.56 1524.11 1063.38 1533.64 C 1045.58 1536.74 1025.26 1540.84 1008.03 1545.73 C 991.016 1550.56 977.377 1552.17 959.829 1553.1 C 951.582 1553.54 941.644 1557.03 933.24 1557.83 C 916.471 1558.71 899.83 1558.92 883.041 1560.57 C 881.767 1559.72 880.493 1558.87 879.219 1558.02 C 880.544 1548.66 881.766 1544.25 879.975 1534.99 C 880.839 1533.21 881.682 1531.42 882.503 1529.62 C 886.232 1521.41 890.404 1499.51 887.051 1491.52 C 889.467 1482.51 891.7 1472.96 893.857 1463.9 C 894.798 1459.95 899.17 1445.45 899.328 1442.19 C 899.849 1431.49 898.8 1425.75 900.948 1414.49 C 903.023 1403.62 906.194 1393.73 908.333 1382.99 C 909.548 1376.88 907.747 1369.84 909.232 1363.23 C 910.91 1356.89 911.888 1348.03 914.235 1342.12 C 919.093 1329.89 921.847 1322.04 921.191 1308.75 C 921.107 1307.05 928.912 1298.89 930.172 1296.59 C 932.172 1292.95 931.159 1288.93 932.734 1285.16 C 936.616 1277.59 942.619 1271.29 945.689 1263.27 C 946.376 1262.85 947.064 1262.43 947.751 1262.01 C 954.117 1259.06 957.165 1252.87 962.17 1248.33 C 964.393 1246.31 968.014 1245.8 970.245 1243.75 C 980.678 1234.83 990.025 1227.25 1004.05 1224.83 C 1008.06 1224.14 1010.5 1224.51 1015.53 1223.53 L 1016.56 1223.32 z" fill="rgb(132,175,139)" transform="translate(0,0)"></path>
<path d="M 526.452 1190.18 L 528.704 1191.03 C 529.42 1195.17 521.062 1231.54 519.865 1238.95 C 517.766 1251.94 501.363 1297.93 507.326 1308.91 C 504.805 1313.23 504.768 1316.9 502.77 1320.78 C 496.2 1333.51 491.01 1345.99 485.902 1359.34 C 481.444 1370.99 474.459 1382.2 469.185 1393.5 C 465.859 1400.93 463.09 1413.55 459.791 1421.81 C 456.661 1429.65 453.236 1437.81 450.286 1445.65 C 447.282 1453.63 445.25 1462.41 441.911 1470.53 C 438.375 1479.13 434.39 1487.29 430.682 1495.8 C 428.734 1500.27 428.417 1509.41 426.697 1513.41 C 424.652 1511.96 411.126 1510.31 407.674 1509.18 C 403.883 1507.93 401.857 1508.76 398.265 1510.16 L 397.583 1509.81 C 383.89 1502.99 378.545 1504.18 365.631 1499.74 C 350.184 1494.42 342.972 1489.91 326.295 1486.39 L 325.505 1485.6 C 318.244 1478.22 311.064 1476.88 302.569 1470.91 C 296.522 1466.66 290.689 1457.92 285.37 1453.64 C 274.043 1444.55 266.952 1442.36 258.442 1429.83 C 248.445 1415.11 239.314 1394.9 243.305 1376.64 C 247.488 1357.49 257.299 1342.51 271.688 1329.44 C 283.311 1318.88 289.018 1319.2 300.252 1312.5 C 312.304 1305.32 324.9 1296.21 337.821 1289.85 C 351.522 1283.11 366.431 1277.71 379.918 1270.33 C 388.587 1265.59 397.39 1257.35 406.055 1252.45 C 412.79 1248.64 422 1245.82 428.63 1242.02 C 450.642 1229.41 472.829 1218.55 494.546 1205.3 C 499.518 1202.8 504.826 1199.34 509.971 1197.31 C 516.329 1194.8 520.64 1194.25 526.452 1190.18 z" fill="rgb(191,159,131)" transform="translate(0,0)"></path>
<path d="M 569.286 970.196 C 571.887 975.188 572.195 982.153 573.911 987.659 C 575.997 994.354 578.548 1000.69 581.212 1007.17 C 597.799 1051.94 635.375 1084.86 678.858 1102.79 C 685.384 1105.48 696.49 1107.37 702.428 1111.64 C 698.156 1117.53 696.117 1121.9 700.478 1128.63 C 699.146 1129.79 698.28 1130.75 696.724 1131.54 L 697.171 1133.02 C 685.267 1138.55 651.449 1160.67 643.927 1169.99 C 624.402 1194.17 600.954 1228.82 589.532 1257.63 C 578.666 1285.04 570.661 1316.52 565.636 1345.55 C 564.029 1354.83 547.163 1403.5 547.349 1407.63 C 537.9 1411.2 536.79 1431.73 533.36 1440.87 C 530.962 1447.26 525.444 1459.06 527.153 1464.91 C 522.375 1476.71 504.076 1518.67 503.573 1528.38 C 478.083 1527.06 457.375 1517.7 431.914 1516.76 C 428.72 1516.64 428.323 1515.56 426.697 1513.41 C 428.417 1509.41 428.734 1500.27 430.682 1495.8 C 434.39 1487.29 438.375 1479.13 441.911 1470.53 C 445.25 1462.41 447.282 1453.63 450.286 1445.65 C 453.236 1437.81 456.661 1429.65 459.791 1421.81 C 463.09 1413.55 465.859 1400.93 469.185 1393.5 C 474.459 1382.2 481.444 1370.99 485.902 1359.34 C 491.01 1345.99 496.2 1333.51 502.77 1320.78 C 504.768 1316.9 504.805 1313.23 507.326 1308.91 C 501.363 1297.93 517.766 1251.94 519.865 1238.95 C 521.062 1231.54 529.42 1195.17 528.704 1191.03 L 526.452 1190.18 C 525.883 1189.37 525.263 1188.12 525.545 1187.11 C 528.983 1174.83 530.274 1164.51 530.432 1151.79 C 532.025 1150.79 534.641 1148.36 535.119 1146.57 C 536.747 1140.48 537.847 1134.28 539.47 1128.16 C 546.289 1102.44 554.088 1076.8 558.361 1050.5 C 559.715 1042.43 558.305 1035.17 558.916 1032.38 C 561.237 1021.8 565.509 1010.37 567.021 999.004 C 568.281 989.534 567.33 979.307 569.286 970.196 z" fill="rgb(132,175,139)" transform="translate(0,0)"></path>
<path d="M 569.286 970.196 C 571.887 975.188 572.195 982.153 573.911 987.659 C 575.997 994.354 578.548 1000.69 581.212 1007.17 C 597.799 1051.94 635.375 1084.86 678.858 1102.79 C 685.384 1105.48 696.49 1107.37 702.428 1111.64 C 698.156 1117.53 696.117 1121.9 700.478 1128.63 C 699.146 1129.79 698.28 1130.75 696.724 1131.54 C 673.039 1128.1 642.428 1143.38 622.097 1154.91 C 614.392 1159.28 609.348 1160.44 604.966 1168.6 C 602.909 1169.53 595.063 1173.07 593.7 1174.49 C 581.606 1187.08 565.675 1204.96 556.316 1219.3 C 547.88 1232.21 545.305 1241.61 533.976 1252.7 L 533.031 1253.64 C 532.314 1260.21 511.427 1304.52 507.326 1308.91 C 501.363 1297.93 517.766 1251.94 519.865 1238.95 C 521.062 1231.54 529.42 1195.17 528.704 1191.03 L 526.452 1190.18 C 525.883 1189.37 525.263 1188.12 525.545 1187.11 C 528.983 1174.83 530.274 1164.51 530.432 1151.79 C 532.025 1150.79 534.641 1148.36 535.119 1146.57 C 536.747 1140.48 537.847 1134.28 539.47 1128.16 C 546.289 1102.44 554.088 1076.8 558.361 1050.5 C 559.715 1042.43 558.305 1035.17 558.916 1032.38 C 561.237 1021.8 565.509 1010.37 567.021 999.004 C 568.281 989.534 567.33 979.307 569.286 970.196 z" fill="rgb(222,204,186)" transform="translate(0,0)"></path>
<path d="M 697.171 1133.02 C 692.892 1146.24 697.549 1159.92 703.67 1172.2 C 713.102 1191.11 726.546 1204.6 746.684 1211.52 C 758.87 1215.7 769.607 1215.55 780.692 1218.3 C 770.785 1232.66 744.116 1252.05 730.664 1264.03 C 720.378 1274.28 710.26 1284.72 699.579 1294.6 C 696.659 1297.3 686.859 1309.71 684.563 1311.09 C 665.359 1322.56 653.197 1341.54 636.838 1356.53 C 635.422 1357.82 634.664 1361.54 632.766 1363.19 C 609.97 1382.96 592.99 1407.55 574.48 1431.2 C 568.141 1439.3 557.942 1447.48 553.686 1456.79 C 549.47 1470.36 544.513 1466.16 538.659 1475.47 C 537.45 1477.39 537.493 1480.11 534.624 1482.16 L 532.704 1482.13 C 530.025 1463.14 552.156 1424.19 547.349 1407.63 C 547.163 1403.5 564.029 1354.83 565.636 1345.55 C 570.661 1316.52 578.666 1285.04 589.532 1257.63 C 600.954 1228.82 624.402 1194.17 643.927 1169.99 C 651.449 1160.67 685.267 1138.55 697.171 1133.02 z" fill="rgb(251,218,153)" transform="translate(0,0)"></path>
<path d="M 961.354 1069.43 C 956.616 1081.19 925.803 1101.38 915.452 1110.2 C 911.117 1113.89 902.249 1118 897.343 1122.24 C 890.669 1128.02 885.001 1138.7 876.623 1141.8 C 879.064 1130.6 880.476 1114.31 882.565 1101.74 C 883.681 1100.02 916.755 1084.44 919.821 1083.97 C 931.157 1088.05 951.768 1074.89 961.354 1069.43 z" fill="rgb(222,204,186)" transform="translate(0,0)"></path>
<path d="M 242.896 1288.89 C 237.911 1287.43 231.894 1286.84 227.346 1284.58 C 199.57 1270.76 205.069 1241.74 203.095 1216.06 C 201.988 1201.66 198.811 1186.09 198.474 1171.45 C 198.353 1166.2 201.789 1163.39 201.689 1158.5 C 201.017 1146.05 199.218 1133.56 198.55 1121.13 C 198.37 1117.78 200.682 1112.45 200.687 1109.89 C 200.712 1097.76 199.719 1082.9 200.407 1070.97 C 205.052 986.691 216.486 902.927 234.597 820.489 C 236.189 813.314 237.464 801.453 239.309 795.248 C 249.088 762.343 259.361 726.51 273.945 695.585 C 295.918 648.991 336.164 628.303 382.039 611.05 C 387.927 608.836 395.226 604.137 400.96 602.231 C 404.602 601.02 408.897 602.239 414.526 600.387 C 448.747 589.127 493.602 576.524 528.091 592.438 C 533.216 600.116 532.825 596.855 536.912 599.766 C 542.031 603.413 557.316 617.833 559.532 623.816 C 560.032 625.164 559.335 625.547 561.405 628.058 C 571.51 640.349 576.837 656.234 579.791 671.674 C 581.389 680.02 582.265 686.286 585.732 694.071 C 581.246 702.451 578.035 708.482 574.538 717.092 C 570.364 727.369 556.843 765.986 551.726 772.789 C 551.179 783.905 522.41 802.18 512.678 807.152 C 508.937 809.062 490.995 804.183 489.984 809.868 C 493.093 814.271 501.85 819.386 506.826 823.553 C 515.72 824.629 540.372 827.37 548.191 824.767 C 549.369 832.834 546.844 833.894 547.155 836.514 C 548.077 844.297 548.129 854.297 547.814 862.184 C 553.516 861.727 556.42 861.111 562.521 860.91 C 564.568 863.705 570.063 872.193 572.863 872.795 C 574.609 875.818 575.119 877.573 574.294 881.076 C 573.076 886.248 573.29 904.765 572.307 907.907 C 569.761 919.934 569.456 934.149 568.867 946.543 C 568.505 954.179 570.309 953.673 568.197 962.498 C 569.648 965.565 570.329 966.814 569.286 970.196 C 567.33 979.307 568.281 989.534 567.021 999.004 C 565.509 1010.37 561.237 1021.8 558.916 1032.38 C 558.305 1035.17 559.715 1042.43 558.361 1050.5 C 554.088 1076.8 546.289 1102.44 539.47 1128.16 C 537.847 1134.28 536.747 1140.48 535.119 1146.57 C 534.641 1148.36 532.025 1150.79 530.432 1151.79 C 520.751 1151.57 488.101 1174.02 478.682 1178.35 L 304.933 1260.04 C 289.168 1267.62 273.195 1275 257.047 1281.7 C 252.048 1283.78 247.548 1286.11 242.896 1288.89 z" fill="rgb(128,168,204)" transform="translate(0,0)"></path>
<path d="M 242.896 1288.89 C 237.911 1287.43 231.894 1286.84 227.346 1284.58 C 199.57 1270.76 205.069 1241.74 203.095 1216.06 C 201.988 1201.66 198.811 1186.09 198.474 1171.45 C 198.353 1166.2 201.789 1163.39 201.689 1158.5 C 201.017 1146.05 199.218 1133.56 198.55 1121.13 C 198.37 1117.78 200.682 1112.45 200.687 1109.89 C 200.712 1097.76 199.719 1082.9 200.407 1070.97 C 205.052 986.691 216.486 902.927 234.597 820.489 C 236.189 813.314 237.464 801.453 239.309 795.248 C 249.088 762.343 259.361 726.51 273.945 695.585 C 295.918 648.991 336.164 628.303 382.039 611.05 C 387.927 608.836 395.226 604.137 400.96 602.231 C 404.602 601.02 408.897 602.239 414.526 600.387 C 448.747 589.127 493.602 576.524 528.091 592.438 C 533.216 600.116 532.825 596.855 536.912 599.766 C 542.031 603.413 557.316 617.833 559.532 623.816 C 560.032 625.164 559.335 625.547 561.405 628.058 C 571.51 640.349 576.837 656.234 579.791 671.674 C 581.389 680.02 582.265 686.286 585.732 694.071 C 581.246 702.451 578.035 708.482 574.538 717.092 C 570.364 727.369 556.843 765.986 551.726 772.789 L 551.588 771.709 C 546.13 726.69 560.764 666.202 520.023 631.177 C 491.977 607.067 448.738 630.603 419.837 637.626 C 385.29 646.02 358.543 657.902 328.801 678.271 C 324.658 681.108 320.639 686.654 317.571 690.607 C 283.659 745.253 268.987 817.841 258.114 881.013 C 246.741 947.089 233.999 1016.4 234.458 1084.06 C 234.524 1093.86 232.134 1104.53 232.265 1114.46 C 233.159 1133.43 232.779 1242.96 240.982 1250.89 C 246.678 1252.14 256.861 1242.06 262.358 1239.47 C 284.885 1228.83 308.655 1217.07 331.474 1207.35 C 357.514 1197.2 380.227 1179.82 406.915 1171.35 C 409.231 1170.61 414.201 1164.99 417.708 1163.45 C 447.178 1150.5 487.438 1135.6 513.321 1116.87 C 515.463 1107.93 516.604 1105.69 515.013 1096.7 C 530.708 1064.57 528.538 1015.42 533.848 980.127 C 534.958 972.749 533.216 958.046 535.221 951.771 C 547.407 958.342 554.179 960.8 568.197 962.498 C 569.648 965.565 570.329 966.814 569.286 970.196 C 567.33 979.307 568.281 989.534 567.021 999.004 C 565.509 1010.37 561.237 1021.8 558.916 1032.38 C 558.305 1035.17 559.715 1042.43 558.361 1050.5 C 554.088 1076.8 546.289 1102.44 539.47 1128.16 C 537.847 1134.28 536.747 1140.48 535.119 1146.57 C 534.641 1148.36 532.025 1150.79 530.432 1151.79 C 520.751 1151.57 488.101 1174.02 478.682 1178.35 L 304.933 1260.04 C 289.168 1267.62 273.195 1275 257.047 1281.7 C 252.048 1283.78 247.548 1286.11 242.896 1288.89 z" fill="rgb(5,60,100)" transform="translate(0,0)"></path>
<path d="M 562.521 860.91 C 564.568 863.705 570.063 872.193 572.863 872.795 C 574.609 875.818 575.119 877.573 574.294 881.076 C 573.076 886.248 573.29 904.765 572.307 907.907 C 569.761 919.934 569.456 934.149 568.867 946.543 C 568.505 954.179 570.309 953.673 568.197 962.498 C 554.179 960.8 547.407 958.342 535.221 951.771 C 502.904 925.228 504.75 876.36 547.814 862.184 C 553.516 861.727 556.42 861.111 562.521 860.91 z" fill="rgb(149,118,91)" transform="translate(0,0)"></path>
<path d="M 555.244 911.179 C 558.786 905.567 561.465 900.862 568.536 899.17 C 573.618 897.954 571.986 904.093 572.307 907.907 C 569.125 910.298 549.657 927.885 555.244 911.179 z" fill="rgb(82,54,27)" transform="translate(0,0)"></path>
<metadata><recraft-signature>{"signed_by": "recraft", "signature_b64": "vDPTWFQTDTMCDjhbJ52jC2KJMXb5zogZ49KbE/siB07MRXIyO3WTJbe4lO9pg28vgwxHpT0dKa926Qyiq7qiBA==", "signing_algo": "Ed25519", "generation_timestamp": 1779091567, "identifier": "e42c0a43-8ecb-4a14-a6b0-aa5fb13df3af"}</recraft-signature></metadata></svg>