<svg xmlns="http://www.w3.org/2000/svg" height="1216" preserveAspectRatio="none" style="display: block;" version="1.1" viewBox="0 0 1509 2048" width="896">
<path d="M 0 0 L 1509 0 L 1509 2048 L 0 2048 L 0 0 z" fill="rgb(254,254,254)" transform="translate(0,0)"></path>
<path d="M 542.866 141.346 C 559.718 139.753 576.704 142.294 592.351 148.75 C 621.413 161.066 634.673 181.259 645.984 208.94 C 659.336 204.337 668.826 200.746 682.908 197.843 C 736.586 186.872 793.295 197.917 839.309 227.758 C 939.129 292.493 978.018 436.352 910.346 537.704 C 885.848 574.394 851.142 597.629 808.023 606.502 L 808.968 635.926 C 866.142 660.234 914.17 714.014 937.639 770.785 C 943.304 784.49 948.051 798.613 953.129 812.556 L 983.043 895.426 C 988.357 910.249 994.761 929.85 1000.9 944.043 L 1062.69 969.324 C 1100.8 984.84 1137.78 991.017 1143.2 1037.89 C 1151.27 1041.72 1160.48 1045.12 1168.85 1048.57 C 1222.51 1070.7 1274.36 1118.72 1276.23 1180.28 C 1276.66 1194.4 1272.65 1206.66 1262.56 1216.9 L 1259.98 1229.39 C 1263.9 1234.73 1267.19 1240.51 1269.77 1246.6 C 1288.78 1290.51 1278.36 1319.04 1265.47 1361.05 L 1241.92 1436.23 C 1230.05 1474.2 1217.9 1512.09 1205.46 1549.88 C 1198.86 1570.28 1191.56 1595.28 1183.98 1614.69 C 1213.43 1637.01 1215.62 1674.83 1188.41 1700.52 C 1172.33 1715.69 1151.34 1720.61 1129.62 1719.8 C 1125.57 1732.36 1122.61 1744.71 1119.39 1757.48 C 1124 1760.2 1129 1762.13 1133.94 1764.08 C 1171.28 1778.86 1208.76 1796.5 1238.11 1824.49 C 1251.13 1836.91 1262.04 1856.33 1245.67 1871.24 C 1225.32 1889.78 1193.22 1885.88 1167.81 1886.19 C 1132.55 1886.2 1097.15 1883.67 1061.87 1882.7 C 1054.19 1895.21 1046.98 1899.38 1033.71 1904.38 C 1015.68 1909.44 990.892 1908.31 971.826 1907.94 C 938.089 1907.08 904.373 1905.51 870.7 1903.25 C 824.695 1900.56 782.266 1901.66 738.538 1886.1 C 734.257 1884.58 698.492 1887.1 688.944 1886.54 C 620.444 1882.49 538.593 1884.01 478.325 1847.65 C 469.74 1842.16 460.256 1827 461.802 1817.47 C 463.983 1804.03 475.529 1787.72 481.141 1773.24 C 495.339 1736.62 506.329 1692.01 506.869 1652.71 C 507.233 1626.22 481.614 1605.13 477.39 1571.16 C 468.429 1561.17 460.67 1552.27 453.013 1541.2 C 416.953 1489.38 394.372 1429.39 387.31 1366.65 C 384.47 1342.6 383.47 1320.4 387.822 1296.56 C 359.684 1288.58 308.723 1280.43 289.399 1259.96 C 282.467 1252.5 276.977 1243.82 273.206 1234.37 C 269.096 1223.98 264.34 1201.4 261.932 1189.66 C 256.593 1163.61 247.365 1132.7 245.88 1106.54 C 243.686 1067.87 244.015 1025.46 244.383 986.578 C 244.871 935.075 243.245 881.116 244.779 829.957 C 236.09 824.444 230.587 818.887 227.608 808.635 C 225.112 800.223 226.099 791.162 230.347 783.484 C 239.203 767.771 258.652 765.575 274.896 761.181 L 325.605 747.41 L 497.792 699.879 C 541.155 654.763 579.719 629.224 642.329 616.533 L 642.983 600.462 L 642.086 600.146 C 592.529 582.385 552.05 545.677 529.542 498.087 C 504.5 445.179 502.59 389.705 522.133 334.925 C 509.869 332.091 500.16 327.516 489.984 319.922 C 469.972 304.973 456.784 282.63 453.367 257.886 C 445.092 199.201 484.827 149.608 542.866 141.346 z" fill="rgb(8,5,4)" transform="translate(0,0)"></path>
<path d="M 640.411 620.181 C 643.553 620.327 642.816 623.538 643.112 626.188 C 644.34 637.329 647.655 648.139 652.884 658.052 C 678.831 708.068 750.256 722.551 787.86 677.72 C 798.931 664.521 802.862 655.106 807.877 639.122 C 810.92 640.344 813.916 641.678 816.859 643.122 C 872.898 670.551 918.387 725.631 939.607 784.048 C 945.839 801.204 951.868 818.446 958.137 835.606 C 971.223 871.187 984 906.881 996.465 942.684 C 962.602 935.175 943.688 944.865 919.492 967.051 C 913.703 930.411 906.647 889.467 898.546 853.422 C 892.501 827.497 886.808 801.491 881.468 775.412 C 880.018 768.034 877.684 760.216 876.728 752.822 L 876.648 752.162 L 874.886 751.548 L 873.572 752.708 C 873.3 763.626 877.277 778.121 878.434 789.346 C 888.515 887.187 900.326 988.673 901.047 1087 C 884.478 1080.54 872.897 1077.05 855.621 1072.71 C 855.073 1070.06 854.462 1067.41 853.791 1064.78 C 851.858 1057.46 844.737 1047.12 838.174 1043.66 C 790.893 1018.74 742.675 1012.07 695.53 984.473 C 679.198 939.241 665.943 889.988 651.124 844.458 C 646.902 831.487 624.623 747.197 620.02 740.528 L 619.191 741.226 C 619.053 747.679 622.6 754.915 624.067 761.272 C 630.028 787.088 640.429 814.986 646.304 840.503 C 656.424 884.456 664.871 928.906 674.874 972.993 C 667.385 970.714 662.952 969.524 655.229 968.111 C 634.513 966.908 620.616 968.17 607.057 985.551 L 607.872 987.046 C 613.27 987.57 622.353 971.05 645.781 977.696 C 673.811 985.647 700.401 995.533 727.916 1005.03 L 781.005 1023.6 C 806.991 1032.49 847.303 1039.98 851.68 1071.68 C 817.762 1061.05 793.459 1075.72 778.188 1106.95 C 768.498 1126.77 764.111 1155.89 771.109 1177.29 C 775.329 1190.2 784.64 1196.56 796.351 1202.12 C 772.039 1223.3 744.524 1204.53 719.388 1195.32 C 673.012 1178.32 629.009 1156.69 584.935 1134.52 C 562.761 1123.36 545.386 1112.33 531.846 1090.4 C 520.945 1072.55 515.447 1050.75 509.003 1030.87 C 501.469 1007.89 494.119 984.845 486.953 961.747 C 481.851 945.272 476.833 928.772 471.899 912.246 C 469.437 904.034 464.68 886.394 460.8 879.541 L 460.182 880.268 C 463.103 906.124 479.483 941.583 485.067 968.128 C 488.572 984.791 493.683 1003.16 497.892 1019.78 C 507.214 1056.29 516.919 1092.7 527.005 1129.01 C 508.325 1128.82 492.909 1124.79 476.999 1115.14 C 424.625 1083.19 432.159 1031.72 433.965 979.766 C 436.838 897.081 435.99 803.382 480.33 730.232 C 516.557 670.467 573.128 635.876 640.411 620.181 z" fill="rgb(206,198,118)" transform="translate(0,0)"></path>
<path d="M 461.423 1115.52 C 500.865 1141.64 534.02 1147.9 578.233 1158.29 L 639.311 1172.88 C 650.161 1175.39 665.816 1178.49 676.137 1181.77 C 705.699 1191.16 738.026 1209.9 768.375 1215.01 C 780.127 1216.99 790.847 1210.8 799.621 1203.54 C 823.921 1214.32 856.077 1227.21 877.975 1241.03 C 896.695 1252.85 920.394 1304.68 943.942 1264.71 C 960.964 1282.1 970.077 1277.29 981.589 1259.7 C 992.054 1255.45 1013.35 1271.55 1008.93 1233.04 C 1009.54 1231.97 1010.12 1230.88 1010.67 1229.78 C 1020.88 1209.53 1020.05 1199.68 1013.11 1178.74 C 1065.85 1205.77 1110.2 1271.16 1095.39 1332.5 C 1089.85 1355.44 1078.02 1380.97 1070.25 1403.96 L 1016.54 1564.41 C 1008.16 1589.61 998.195 1616.38 990.758 1641.67 L 976.996 1642.84 C 894.005 1645.31 828.512 1615.78 751.079 1596.85 C 764.876 1553.6 780.58 1510.81 795.241 1467.83 C 804.857 1439.64 829.503 1356.12 843.54 1336.88 C 850.799 1326.93 861.066 1317.96 871.839 1312.02 C 877.381 1308.96 883.319 1306.35 888.234 1302.32 L 887.987 1301.35 C 883.682 1301.98 879.304 1303.83 875.479 1305.87 C 833.496 1328.19 828.52 1359.58 814.9 1400.09 L 651.513 1364.74 C 629.555 1360.01 580.439 1350.66 561.25 1343.68 C 519.482 1328.69 485.325 1297.81 466.209 1257.76 C 445.317 1213.07 444.699 1161.62 461.423 1115.52 z" fill="rgb(164,104,94)" transform="translate(0,0)"></path>
<path d="M 389.067 1320.67 C 393.658 1330.89 399.124 1342.37 407.252 1350.24 C 432.007 1374.18 472.125 1388.53 504.024 1398.76 C 601.926 1430.15 697.044 1443.1 799.471 1444.12 C 782.539 1491.86 766.463 1541.61 749.882 1589.74 C 746.436 1590.59 741.343 1592.08 738.07 1593.39 C 724.962 1598.79 714.554 1609.2 709.163 1622.31 C 703.968 1635.31 704.246 1649.87 709.933 1662.67 C 718.164 1681.41 733.841 1691.84 752.313 1698.85 C 748.678 1705.57 738.556 1736.65 735.455 1745.55 C 726.098 1773.02 715.611 1800.15 707.064 1827.88 C 699.13 1853.63 716.698 1869.53 735.964 1882.49 C 692.187 1884.46 648.324 1883.09 604.753 1878.41 C 573.515 1874.73 468.857 1865.98 465.243 1819 C 464.502 1809.36 479.152 1787.47 483.558 1775.94 C 499.061 1735.38 510.147 1691.89 509.976 1648.2 C 509.874 1632.3 496.931 1616.56 490.635 1601.74 C 486.723 1592.54 485.422 1589.05 482.63 1579.48 C 505.098 1607.18 526.741 1629.93 559.786 1644.86 C 569.987 1649.47 629.453 1671.66 634.276 1660.28 C 633.482 1658.35 633.364 1657.38 631.048 1656.72 C 571.494 1639.87 507.363 1605.06 468.298 1556.09 C 425.279 1502.17 397.415 1433.28 390.502 1364.82 C 389.125 1351.18 387.596 1334.31 389.067 1320.67 z" fill="rgb(210,197,183)" transform="translate(0,0)"></path>
<path d="M 791.784 249.693 C 830.927 286.166 870.412 308.658 919.801 327.865 C 955.431 399.173 946.801 496.654 891.9 555.993 C 866.204 583.766 830.515 603.564 792.2 604.76 C 753.931 605.702 716.853 591.412 689.116 565.03 C 692.765 574.483 699.9 585.364 706.693 592.813 C 735.141 624.01 764.995 633.811 805.053 636.349 C 802.828 644.705 800.538 650.486 797.016 658.28 C 791.597 667.681 788.549 673.069 780.388 680.833 C 765.999 694.665 746.6 702.047 726.655 701.28 C 704.84 700.629 682.768 689.787 668.005 673.88 C 658.028 663.039 651.084 649.76 647.87 635.381 C 642.922 612.344 650.18 554.992 651.352 528.003 C 611.318 536.974 573.448 515.449 565.608 473.347 C 559.903 442.714 581.518 413.699 612.339 410.335 C 628.729 408.547 640.151 415.157 652.822 425.144 C 660.864 420.687 668.782 416.011 676.568 411.12 C 739.546 371.395 775.515 321.684 791.784 249.693 z" fill="rgb(199,149,118)" transform="translate(0,0)"></path>
<path d="M 754.964 407.866 C 764.552 404.923 774.703 410.345 777.588 419.95 C 780.473 429.556 774.99 439.674 765.367 442.501 C 755.827 445.304 745.813 439.877 742.952 430.354 C 740.092 420.83 745.458 410.784 754.964 407.866 z" fill="rgb(8,5,4)" transform="translate(0,0)"></path>
<path d="M 878.721 373.417 C 885.038 371.677 891.802 373.495 896.396 378.168 C 900.989 382.84 902.692 389.634 900.844 395.921 C 898.997 402.207 893.89 407 887.498 408.445 C 877.929 410.608 868.383 404.736 865.998 395.219 C 863.613 385.702 869.262 376.022 878.721 373.417 z" fill="rgb(8,5,4)" transform="translate(0,0)"></path>
<path d="M 880.054 478.485 L 881.053 479.415 C 881.343 480.391 881.873 481.245 881.49 482.141 C 861.67 528.465 795.369 532.332 771.177 487.391 C 771.13 486.973 771.409 484.935 771.467 484.434 C 774.254 485.153 774.823 487.944 776.623 490.338 C 807.477 531.385 858.524 520.673 880.054 478.485 z" fill="rgb(8,5,4)" transform="translate(0,0)"></path>
<path d="M 826.238 422.387 C 865.326 418.996 859.616 465.733 820.218 460.347 C 816.544 454.845 826.566 458.585 831.501 457.284 C 857.851 450.338 854.839 424.292 827.141 424.631 C 826.463 424.639 826.268 422.596 826.238 422.387 z" fill="rgb(8,5,4)" transform="translate(0,0)"></path>
<path d="M 613.595 448.268 C 616.094 448.358 618.854 448.448 621.498 449.087 C 633.178 451.933 642.068 463.291 640.838 475.407 C 640.719 475.91 639.508 477.143 639.013 476.525 C 637.374 474.48 637.325 469.029 636.978 466.512 L 636.59 465.637 C 630.624 451.913 615.938 448.135 603.302 454.591 C 603.181 454.653 602.105 453.749 602.16 453.426 C 602.736 450.054 610.64 448.885 613.595 448.268 z" fill="rgb(8,5,4)" transform="translate(0,0)"></path>
<path d="M 247.988 841.45 C 275.827 849.435 366.099 875.65 389.479 874.54 C 405.804 873.766 421.285 867.634 437.128 864.138 C 431.851 899.322 431.88 936.97 430.946 972.612 C 429.686 1020.72 420.587 1071.66 461.182 1107.66 C 444.178 1148 442.52 1187.73 452.73 1230.03 C 444.273 1231.73 439.868 1232.81 431.569 1235.52 C 404.76 1246.59 390.011 1263.44 387.649 1292.87 C 364.744 1287.67 334.047 1279.97 312.532 1272.13 C 278.703 1259.8 270.933 1219.35 264.865 1188.36 C 259.456 1160.73 250.391 1130.99 248.766 1102.46 C 247.086 1071.62 247.971 1040.14 247.961 1009.26 L 247.988 841.45 z" fill="rgb(210,197,183)" transform="translate(0,0)"></path>
<path d="M 957.357 1114.84 C 962.883 1115.48 971.285 1119.67 976.864 1121.67 C 1013.22 1134.74 1033.04 1155.06 1073.05 1148.87 C 1095.53 1164.77 1120.81 1182.47 1141.75 1200.38 C 1148.87 1206.78 1150.88 1218.57 1158.51 1224.28 C 1172.08 1234.44 1181.77 1230.23 1190.72 1217.71 C 1190.82 1219.53 1190.97 1221.36 1191.18 1223.17 C 1192.73 1235.73 1205.2 1245.82 1218.18 1241.29 C 1219.88 1240.78 1225.62 1236.69 1227.37 1237.9 C 1241.74 1247.83 1248.01 1249.33 1259.26 1232.01 C 1274.36 1262.31 1282.83 1289.16 1273.48 1323.34 C 1265.49 1352.58 1255.99 1381.35 1246.81 1410.24 L 1190.38 1586.33 C 1187.53 1595.66 1184.43 1604.91 1181.08 1614.08 C 1137.2 1625.5 1087.54 1622.7 1043.35 1614.66 L 1101.76 1421.03 C 1109.01 1396.55 1121.03 1362.72 1125.33 1338.74 C 1135.87 1279.92 1091.3 1222.02 1043.15 1193.36 C 1039.08 1190.94 1011.87 1174.04 1010.94 1172.4 C 996.346 1146.58 980.925 1132.21 957.357 1114.84 z" fill="rgb(164,104,94)" transform="translate(0,0)"></path>
<path d="M 705.761 197.35 C 751.135 193.304 793.996 204.306 832.857 227.4 C 874.889 252.378 895.974 283 919.18 324.65 C 871.937 304.98 824.814 279.877 789.657 241.897 C 787.878 251.293 786.061 261.626 783.447 270.862 C 768.955 322.052 735.571 364.871 693.197 396.314 C 680.832 405.49 666.655 413.408 653.358 421.021 C 651.639 419.753 649.891 418.526 648.115 417.341 C 619.03 398.07 587.459 406.844 568.953 435.464 C 542.484 487.958 591.699 543.595 648.185 531.415 C 646.718 553.197 644.543 576.195 643.824 597.862 C 622.912 589.13 601.103 578.324 583.663 563.635 C 543.928 530.167 517.839 478.68 512.896 427.273 C 507.677 371.638 524.987 316.234 560.95 273.466 C 596.226 230.918 650.771 202.443 705.761 197.35 z" fill="rgb(96,70,38)" transform="translate(0,0)"></path>
<path d="M 751.825 1708.58 L 754.7 1710.4 C 805.481 1742.26 872.048 1761.21 931.582 1747.62 C 929.029 1755.96 926.203 1764.21 923.109 1772.37 C 915.251 1776.6 907.291 1779.6 898.763 1782.15 C 901.143 1782.59 903.527 1783.01 905.915 1783.4 C 947.541 1778.52 1031.59 1826.77 1055.32 1861.98 C 1073.38 1888.78 1034.1 1903.77 1012.57 1904.37 C 962.164 1905.77 912.873 1902.78 862.641 1899.54 C 812.221 1895.32 739.027 1903.3 710.802 1851.99 C 703.198 1838.22 717.468 1806.94 722.551 1792.32 L 751.825 1708.58 z" fill="rgb(254,254,254)" transform="translate(0,0)"></path>
<path d="M 905.915 1783.4 C 904.778 1783.54 896.921 1784.78 896.514 1783.3 C 896.98 1782.49 897.925 1782.37 898.763 1782.15 C 901.143 1782.59 903.527 1783.01 905.915 1783.4 z" fill="rgb(110,95,86)" transform="translate(0,0)"></path>
<path d="M 825.055 1071.21 C 852.774 1068.98 917.922 1095.93 942.958 1109.75 C 979.112 1129.7 1034.32 1182.87 1008.17 1227.52 C 998.227 1191.77 975.112 1153.03 937.453 1139.17 C 936.815 1138.94 936.704 1139.14 936.469 1139.45 C 938.886 1143.54 949.894 1147.91 954.731 1151.44 C 977.813 1168.3 993.616 1191.93 1002.23 1218.98 C 1004.99 1228.7 1009.66 1241.03 1004.62 1250.72 C 1000.76 1258.16 987.471 1260.66 982.182 1253.49 C 980.671 1251.44 979.36 1246.32 978.504 1243.54 C 969.578 1214.51 950.031 1187.33 924.462 1170.86 C 921.841 1169.17 913.483 1164.55 910.464 1165.26 C 912.002 1168.17 915.674 1169.42 918.835 1171.02 C 947.607 1188.17 967.612 1216.89 977.071 1248.85 C 986.218 1272.96 953.016 1276.91 946.585 1262.85 C 936.131 1240 927.242 1221.31 906.133 1205.18 C 902.034 1202.04 887.607 1190.69 882.541 1191.24 C 882.33 1194.26 892.22 1199.04 895.273 1201.07 C 917.779 1216.03 932.191 1236.23 942.044 1260.82 C 940.906 1263.09 939.713 1265.32 938.466 1267.53 C 927.441 1286.61 908.644 1270.31 899.7 1258.82 C 885.403 1240.47 874.429 1233.21 853.498 1224.25 C 833.291 1214.46 808.392 1205.43 789.08 1194.75 C 759.339 1178.31 771.177 1121.09 786.338 1098.66 C 797.08 1082.76 807.212 1075.19 825.055 1071.21 z" fill="rgb(199,149,118)" transform="translate(0,0)"></path>
<path d="M 1002.21 1716.59 C 1040.26 1734.48 1083.14 1737.72 1123.85 1728.24 C 1121.52 1736.54 1119.39 1745.45 1117.25 1753.85 C 1108.15 1757.31 1099 1760.64 1089.8 1763.84 C 1129.33 1763.2 1133.34 1765.04 1171.48 1783.89 C 1197.78 1798.13 1237.49 1817.62 1249.43 1846.72 C 1258.05 1867.7 1229.8 1878.23 1214.81 1881.7 C 1199.18 1883.54 1181.51 1883.23 1165.64 1883.11 C 1131.64 1882.63 1097.65 1881.4 1063.7 1879.43 C 1056.99 1836.55 998.78 1811 964.076 1793.13 C 951.741 1786.78 937 1784.32 926.621 1774.67 L 936.371 1742.05 C 938.207 1742.08 940.043 1742.08 941.878 1742.03 C 968.508 1741.31 984.149 1735.75 1002.21 1716.59 z" fill="rgb(254,254,254)" transform="translate(0,0)"></path>
<path d="M 1115.74 1034.25 C 1129.18 1033.38 1133.3 1037.82 1144.96 1042.4 C 1166.71 1050.92 1188.49 1059.55 1207.77 1073.17 C 1238.26 1094.71 1264.63 1127.79 1271.82 1165.04 C 1275.3 1184.61 1273.02 1197.77 1261.95 1213.81 C 1262.79 1177.6 1256.24 1146.67 1231.85 1118.31 C 1227.91 1113.72 1221.07 1106.06 1215.87 1103.3 L 1215.22 1103.94 C 1219.03 1109.93 1225.44 1114.65 1229.88 1120.13 C 1251 1146.66 1260.03 1176.63 1258.8 1210.66 C 1259.18 1226.42 1252.89 1249.67 1232.2 1238.25 C 1228.08 1235.02 1229.09 1230.27 1230.05 1225.68 C 1231.83 1217.2 1232.19 1210.48 1231.66 1201.77 C 1229.83 1171.98 1216.28 1144.13 1193.99 1124.29 C 1191.47 1122.08 1189.45 1120 1186.31 1120.21 C 1187.13 1123.41 1188.36 1123.51 1191.37 1125.96 C 1219.48 1151.43 1235.34 1192 1225.95 1230.31 C 1223.82 1239.04 1211.44 1240.93 1204.19 1237.34 C 1185.17 1227.91 1198.4 1199.98 1191.24 1183.65 C 1185.3 1171.11 1146.06 1134.53 1134.52 1129.21 L 1133.07 1129.75 C 1134.21 1132.63 1138.49 1135.56 1141.08 1137.75 C 1163.73 1156.07 1181.97 1169.29 1187.82 1199.76 C 1193.55 1229.6 1166.68 1236.61 1152.56 1212.16 C 1149.1 1206.18 1148.59 1201.85 1143.18 1197.11 C 1127.33 1183.25 1109.73 1171.46 1092.62 1159.22 C 1078.36 1149.01 1060.45 1139.93 1057.09 1120.85 C 1053.86 1101.58 1065.81 1077.71 1076.2 1061.87 C 1085.48 1047.72 1098.98 1037.17 1115.74 1034.25 z" fill="rgb(199,149,118)" transform="translate(0,0)"></path>
<path d="M 987.72 946.241 C 1005.76 944.702 1099.85 988.681 1120.08 998.861 C 1131.43 1004.57 1138.34 1024.24 1140.31 1036.52 C 1097.81 1015.04 1065.67 1062.1 1055.78 1097.8 C 1051.84 1112.02 1051.89 1122.56 1059.27 1135.39 C 1062.7 1140.35 1065.08 1142.43 1069.48 1146.61 C 1043.53 1149.76 1024.02 1139.01 1000.94 1128.54 C 981.377 1119.67 946.978 1108.17 930.32 1097.74 C 897.658 1077.29 920.319 1002.48 938.625 977.579 C 951.691 959.389 967.198 949.838 987.72 946.241 z" fill="rgb(206,198,118)" transform="translate(0,0)"></path>
<path d="M 745.401 1593.83 L 747.139 1594 C 747.257 1596.29 747.273 1596.14 748.301 1598.2 C 751.576 1600.87 777.436 1607.11 783.95 1608.99 C 856.612 1629.86 916.503 1651.56 993.07 1643.84 C 1026.38 1674.16 1011.75 1716.03 973.378 1733.45 C 939.689 1744.66 915.326 1734.5 882.065 1727.39 C 859.171 1722.52 836.306 1717.52 813.471 1712.39 C 796.033 1708.48 777.632 1705.04 760.805 1699 C 757.278 1697.74 753.606 1695.72 750.207 1694.51 C 700.468 1676.73 691.112 1614.17 745.401 1593.83 z" fill="rgb(164,104,94)" transform="translate(0,0)"></path>
<path d="M 452.763 1233.36 C 454.037 1234.97 460.147 1252.09 461.788 1255.76 C 465.917 1264.8 470.778 1273.48 476.322 1281.73 C 492.976 1306.15 515.644 1325.86 542.138 1338.97 C 566.936 1351.14 587.942 1354.29 614.753 1360.07 L 678.545 1373.83 C 722.812 1383.38 769.614 1394.5 813.769 1402.86 C 810.684 1411.98 807.512 1421.08 804.252 1430.14 C 791.27 1431.23 768.055 1429.32 753.908 1428.89 C 657.829 1424.23 563.098 1410.58 472.507 1376.43 C 440.078 1364.2 397.351 1340.85 391.862 1303.09 C 385.967 1262.54 415.89 1239.52 452.763 1233.36 z" fill="rgb(210,197,183)" transform="translate(0,0)"></path>
<path d="M 490.574 705.099 C 492.464 704.923 491.531 704.86 493.333 705.659 C 491.449 709.527 487.183 714.211 484.451 718.101 C 479.803 724.738 475.512 731.618 471.596 738.713 C 451.359 775.236 447.017 804.752 439.525 845.415 C 422.122 848.345 405.509 855.653 387.846 857.389 C 363.585 859.774 289.355 837.707 261.877 831.017 C 257 829.763 248.269 827.894 244.091 825.508 C 224.157 813.691 224.325 781.257 247.433 772.676 C 258.327 768.631 268.536 766.084 279.7 763.044 L 330.89 749.119 L 490.574 705.099 z" fill="rgb(210,197,183)" transform="translate(0,0)"></path>
<path d="M 546.333 144.407 C 583.405 139.659 621.904 162.979 637.471 196.522 C 599.088 228.485 560.842 262.341 522.556 294.72 C 512.985 302.496 503.583 310.478 494.358 318.66 C 492.406 317.563 490.601 316.298 488.825 314.9 C 449.282 283.741 444.595 222.101 475.307 183.196 C 494.114 159.374 516.716 147.902 546.333 144.407 z" fill="rgb(96,70,38)" transform="translate(0,0)"></path>
<path d="M 1042.21 1617.7 C 1090.83 1626.16 1133.61 1628.93 1182.26 1617.2 C 1186.22 1620.41 1190.69 1624.65 1193.76 1628.7 C 1201.95 1639.62 1205.39 1653.4 1203.27 1666.89 C 1200.83 1683.32 1191.74 1694.58 1178.81 1704.21 L 1177.77 1704.87 C 1149.03 1722.92 1114.75 1715.68 1082.85 1714.11 C 1069.56 1713.46 1053.1 1712.94 1041.2 1706.8 C 1014.06 1692.83 1023.44 1675.77 1031.15 1652.86 C 1034.88 1641.79 1039.01 1629.05 1042.21 1617.7 z" fill="rgb(164,104,94)" transform="translate(0,0)"></path>
<path d="M 1182.9 1175.74 C 1187.05 1179.62 1188.5 1185.86 1189.43 1191.38 C 1186 1187.27 1184.33 1180.91 1182.9 1175.74 z" fill="rgb(110,95,86)" transform="translate(0,0)"></path>
<metadata><recraft-signature>{"signed_by": "recraft", "signature_b64": "YDdIXWLZjyWXSV/c+YAqOzJAh+lMcUHG5zAcT/hkSRGQPY+93JE5F8LY6ZORr4U5q9eDH/MPhGv8S+S8xUSVAg==", "signing_algo": "Ed25519", "generation_timestamp": 1779091827, "identifier": "4def1207-b61f-4b48-98f8-3b00864af32d"}</recraft-signature></metadata></svg>