<svg xmlns="http://www.w3.org/2000/svg" height="1216" preserveAspectRatio="none" style="display: block;" version="1.1" viewBox="0 0 1509 2048" width="896">
<path d="M 0 0 L 1509 0 L 1509 2048 L 0 2048 L 0 0 z" fill="rgb(255,255,255)" transform="translate(0,0)"></path>
<path d="M 187.283 202.92 L 739.519 202.914 C 738.496 269.342 739.96 337.176 739.037 404.126 C 758.672 407.077 785.582 404.78 807.505 406.031 C 838.499 407.799 851.545 414.256 878.749 419.878 C 891.759 424.239 901.485 428.192 914.065 433.728 C 921.969 436.614 933.144 442.869 940.652 447.068 C 995.824 477.374 1037.48 521.854 1071.71 574.179 C 1075.69 580.483 1083.91 598.977 1088.11 600.312 L 1090.12 601.996 L 1088.46 603.112 C 1089.12 608.635 1102.36 631.775 1104.4 640.936 C 1109.2 652.493 1114.6 665.788 1118.07 677.856 C 1134.04 725.634 1141.15 796.736 1129.13 846.167 C 1125.53 860.96 1119.69 874.319 1113.14 887.959 C 1136.46 882.599 1155.07 882.937 1176 896.458 C 1251.52 945.252 1208.71 1064.73 1129.3 1081.6 C 1107.95 1086.15 1096 1082.7 1076.63 1074.64 C 1043.47 1159.7 979.523 1230.78 895.654 1268.53 C 891.274 1270.5 872.187 1278.15 869.402 1279.98 C 869.876 1287.16 869.845 1292.45 869.691 1299.57 L 868.079 1290.46 L 866.911 1288.68 C 863.68 1288.41 851.385 1293.09 847.137 1294.76 C 790.533 1317.08 702.401 1316.91 646.783 1290.41 L 645.528 1289.89 L 644.039 1285.85 L 643.36 1279.1 C 640.408 1279 634.498 1276.46 631.49 1275.22 C 535.314 1235.46 474.961 1168.93 435.078 1074.53 C 415.76 1085.81 400.335 1087.49 378.578 1082.49 C 321.057 1069.27 280.861 1001.97 296.492 944.757 C 302.192 923.578 316.09 905.54 335.115 894.627 C 356.522 882.604 375.436 882.231 398.35 888.562 C 390.773 873.844 384.726 859.742 380.888 843.652 C 379.905 839.529 378.73 832.428 376.136 829.377 C 369.907 830.987 322.121 829.892 312.052 829.878 L 157.407 830.295 L 157.383 788.53 C 167.25 788.418 177.118 788.42 186.986 788.535 L 187.283 202.92 z" fill="rgb(198,151,125)" transform="translate(0,0)"></path>
<path d="M 187.283 202.92 L 739.519 202.914 C 738.496 269.342 739.96 337.176 739.037 404.126 C 758.672 407.077 785.582 404.78 807.505 406.031 C 838.499 407.799 851.545 414.256 878.749 419.878 C 891.759 424.239 901.485 428.192 914.065 433.728 C 921.969 436.614 933.144 442.869 940.652 447.068 C 995.824 477.374 1037.48 521.854 1071.71 574.179 C 1075.69 580.483 1083.91 598.977 1088.11 600.312 L 1090.12 601.996 L 1088.46 603.112 C 1089.12 608.635 1102.36 631.775 1104.4 640.936 C 1109.2 652.493 1114.6 665.788 1118.07 677.856 C 1134.04 725.634 1141.15 796.736 1129.13 846.167 C 1125.53 860.96 1119.69 874.319 1113.14 887.959 L 1114.12 890.162 C 1100.72 896.315 1094.63 899.806 1085.5 911.243 C 1083.76 874.648 1077.91 844.212 1064.27 809.898 C 1038.65 744.651 991.155 690.336 929.905 656.253 C 861.67 618.951 788.449 611.319 755.913 529.105 C 729.087 587.352 676.775 615.194 619.738 637.497 C 611.317 640.79 602.345 644.998 594.272 649.107 C 566.182 663.589 540.352 682.087 517.596 704.017 C 461.463 759.263 429.186 834.286 427.67 913.03 C 417.41 901.719 408.889 895.089 394.649 889.82 L 398.35 888.562 C 390.773 873.844 384.726 859.742 380.888 843.652 C 379.905 839.529 378.73 832.428 376.136 829.377 C 369.907 830.987 322.121 829.892 312.052 829.878 L 157.407 830.295 L 157.383 788.53 C 167.25 788.418 177.118 788.42 186.986 788.535 L 187.283 202.92 z" fill="rgb(77,41,22)" transform="translate(0,0)"></path>
<path d="M 187.283 202.92 L 739.519 202.914 C 738.496 269.342 739.96 337.176 739.037 404.126 L 737.057 404.419 C 723.583 403.798 709.589 404.721 696.085 405.454 L 693.951 405.623 C 641.275 414.949 622.751 418.398 574.027 443.233 L 564.775 439.751 C 563.206 429.274 560.477 419.004 556.639 409.13 C 541.447 370.867 516.549 357.385 482.042 342.332 L 480.329 342.652 C 471.832 339.503 456.882 338.347 447.888 337.928 L 446.187 338.502 C 383.206 339.498 332.305 395.462 334.878 457.742 C 335.413 470.685 337.107 480.173 340.355 492.567 L 341.374 495.005 C 344.504 506.244 350.83 517.537 357.672 526.963 C 358.243 527.89 358.879 529.127 359.645 529.855 C 386.412 557.654 400.716 567.333 440.298 571.646 C 419.426 607.387 401.621 642.362 391.223 682.691 C 389.656 688.769 386.75 701.758 384.303 706.609 C 381.95 706.886 377.631 707.578 375.475 707.35 C 378.264 707.56 382.041 707.691 384.675 708.276 C 378.149 737.663 374.834 759.215 374.606 789.191 C 364.727 789.192 353.459 788.923 343.696 789.257 C 338.703 791.284 272.617 789.378 262.572 789.877 C 258.41 790.084 245.856 789.284 241.837 790.861 C 285.794 791.399 330.397 790.986 374.403 790.929 C 374.618 796.891 377.223 825.486 376.383 827.899 L 376.136 829.377 C 369.907 830.987 322.121 829.892 312.052 829.878 L 157.407 830.295 L 157.383 788.53 C 167.25 788.418 177.118 788.42 186.986 788.535 L 187.283 202.92 z" fill="rgb(255,255,255)" transform="translate(0,0)"></path>
<path d="M 232.011 245.155 L 445.651 245.113 L 445.552 305.023 C 445.543 314.135 445.081 330.164 446.187 338.502 C 383.206 339.498 332.305 395.462 334.878 457.742 C 335.413 470.685 337.107 480.173 340.355 492.567 C 305.195 493.384 267.458 492.782 232.154 492.776 L 232.011 245.155 z" fill="rgb(109,188,230)" transform="translate(0,0)"></path>
<path d="M 482.063 245.082 L 694.041 245.099 C 693.922 298.104 693.216 352.736 693.951 405.623 C 641.275 414.949 622.751 418.398 574.027 443.233 L 564.775 439.751 C 563.206 429.274 560.477 419.004 556.639 409.13 C 541.447 370.867 516.549 357.385 482.042 342.332 C 482.846 310.639 482.173 276.919 482.063 245.082 z" fill="rgb(109,188,230)" transform="translate(0,0)"></path>
<path d="M 232.098 529.988 C 274.576 529.746 317.163 530.417 359.645 529.855 C 386.412 557.654 400.716 567.333 440.298 571.646 C 419.426 607.387 401.621 642.362 391.223 682.691 C 389.656 688.769 386.75 701.758 384.303 706.609 C 371.896 705.349 335.705 706.11 321.914 706.264 C 293.831 706.579 259.651 705.145 232.107 706.576 L 232.098 529.988 z" fill="rgb(109,188,230)" transform="translate(0,0)"></path>
<path d="M 232.107 706.576 C 259.651 705.145 293.831 706.579 321.914 706.264 C 335.705 706.11 371.896 705.349 384.303 706.609 C 381.95 706.886 377.631 707.578 375.475 707.35 C 378.264 707.56 382.041 707.691 384.675 708.276 C 378.149 737.663 374.834 759.215 374.606 789.191 C 364.727 789.192 353.459 788.923 343.696 789.257 C 333.563 788.599 316.013 789.141 305.381 789.141 L 231.986 789.033 C 231.66 762.304 231.954 734.991 231.959 708.216 C 233.892 707.674 236.845 707.493 238.945 707.28 L 232.107 706.576 z" fill="rgb(12,98,166)" transform="translate(0,0)"></path>
<path d="M 232.107 706.576 C 259.651 705.145 293.831 706.579 321.914 706.264 C 335.705 706.11 371.896 705.349 384.303 706.609 C 381.95 706.886 377.631 707.578 375.475 707.35 C 378.264 707.56 382.041 707.691 384.675 708.276 C 376.857 709.689 327.175 709.072 315.413 709.069 L 263.507 709.035 C 254.537 709.026 240.237 709.448 231.959 708.216 C 233.892 707.674 236.845 707.493 238.945 707.28 L 232.107 706.576 z" fill="rgb(13,69,113)" transform="translate(0,0)"></path>
<path d="M 241.837 790.861 C 285.794 791.399 330.397 790.986 374.403 790.929 C 374.618 796.891 377.223 825.486 376.383 827.899 C 355.517 826.889 328.459 827.342 307.03 827.256 C 257.999 827.105 208.969 827.298 159.941 827.837 L 159.872 791.004 C 187.031 790.69 214.752 791.592 241.837 790.861 z" fill="rgb(255,255,255)" transform="translate(0,0)"></path>
<path d="M 187.283 202.92 L 739.519 202.914 C 738.496 269.342 739.96 337.176 739.037 404.126 L 737.057 404.419 L 737.028 205.115 L 189.758 205.214 L 189.51 788.673 C 203.017 788.456 216.527 788.464 230.034 788.699 L 229.958 527.343 C 258.643 527.053 287.33 527.01 316.015 527.217 C 326.418 527.24 347.91 527.914 357.672 526.963 C 358.243 527.89 358.879 529.127 359.645 529.855 C 317.163 530.417 274.576 529.746 232.098 529.988 L 232.107 706.576 L 238.945 707.28 C 236.845 707.493 233.892 707.674 231.959 708.216 C 231.954 734.991 231.66 762.304 231.986 789.033 L 305.381 789.141 C 316.013 789.141 333.563 788.599 343.696 789.257 C 338.703 791.284 272.617 789.378 262.572 789.877 C 258.41 790.084 245.856 789.284 241.837 790.861 C 214.752 791.592 187.031 790.69 159.872 791.004 L 159.941 827.837 C 208.969 827.298 257.999 827.105 307.03 827.256 C 328.459 827.342 355.517 826.889 376.383 827.899 L 376.136 829.377 C 369.907 830.987 322.121 829.892 312.052 829.878 L 157.407 830.295 L 157.383 788.53 C 167.25 788.418 177.118 788.42 186.986 788.535 L 187.283 202.92 z" fill="rgb(104,60,38)" transform="translate(0,0)"></path>
<path d="M 229.989 243.01 L 447.829 242.906 C 448.308 274.12 447.88 306.618 447.888 337.928 L 446.187 338.502 C 445.081 330.164 445.543 314.135 445.552 305.023 L 445.651 245.113 L 232.011 245.155 L 232.154 492.776 C 267.458 492.782 305.195 493.384 340.355 492.567 L 341.374 495.005 L 229.947 495.133 L 229.989 243.01 z" fill="rgb(77,41,22)" transform="translate(0,0)"></path>
<path d="M 480.399 242.981 L 696.208 242.877 L 696.085 405.454 L 693.951 405.623 C 693.216 352.736 693.922 298.104 694.041 245.099 L 482.063 245.082 C 482.173 276.919 482.846 310.639 482.042 342.332 L 480.329 342.652 C 479.982 311.472 479.297 273.868 480.399 242.981 z" fill="rgb(77,41,22)" transform="translate(0,0)"></path>
<path d="M 574.027 443.233 C 526.551 472.656 497.032 495 462.213 540.554 C 454.694 550.39 448.396 560.741 440.987 570.5 L 439.482 570.387 C 434.165 563.587 437.515 548.087 440.618 541.019 C 457.314 502.994 521.879 434.36 564.775 439.751 L 574.027 443.233 z" fill="rgb(244,172,70)" transform="translate(0,0)"></path>
<path d="M 645.315 1277.51 C 717.093 1302.44 795.195 1302.36 866.921 1277.28 L 869.402 1279.98 C 869.876 1287.16 869.845 1292.45 869.691 1299.57 L 868.079 1290.46 L 866.911 1288.68 C 863.68 1288.41 851.385 1293.09 847.137 1294.76 C 790.533 1317.08 702.401 1316.91 646.783 1290.41 L 645.528 1289.89 L 644.039 1285.85 L 643.36 1279.1 L 645.315 1277.51 z" fill="rgb(77,41,22)" transform="translate(0,0)"></path>
<path d="M 435.078 1074.53 C 415.76 1085.81 400.335 1087.49 378.578 1082.49 C 321.057 1069.27 280.861 1001.97 296.492 944.757 C 302.192 923.578 316.09 905.54 335.115 894.627 C 356.522 882.604 375.436 882.231 398.35 888.562 L 394.649 889.82 C 388.692 887.868 385.472 887.461 379.2 886.555 C 374.062 886.945 371.566 886.928 366.432 886.64 C 317.385 891.878 290.926 935.63 296.027 982.511 C 299.662 1013.15 315.107 1041.15 339.076 1060.57 C 368.905 1084.34 403.062 1090.96 436.478 1071.13 C 462.792 1146.79 529.051 1224.1 601.503 1259 L 602.97 1259.7 C 604.073 1259.88 604.025 1259.84 604.823 1260.62 C 615.192 1265.84 634.183 1274.48 645.315 1277.51 L 643.36 1279.1 C 640.408 1279 634.498 1276.46 631.49 1275.22 C 535.314 1235.46 474.961 1168.93 435.078 1074.53 z" fill="rgb(77,41,22)" transform="translate(0,0)"></path>
<path d="M 366.432 886.64 C 372.085 885.437 373.608 885.422 379.2 886.555 C 374.062 886.945 371.566 886.928 366.432 886.64 z" fill="rgb(171,126,103)" transform="translate(0,0)"></path>
<path d="M 602.97 1259.7 C 604.073 1259.88 604.025 1259.84 604.823 1260.62 C 603.65 1260.37 603.645 1260.5 602.97 1259.7 z" fill="rgb(171,126,103)" transform="translate(0,0)"></path>
<path d="M 1113.14 887.959 C 1136.46 882.599 1155.07 882.937 1176 896.458 C 1251.52 945.252 1208.71 1064.73 1129.3 1081.6 C 1107.95 1086.15 1096 1082.7 1076.63 1074.64 C 1043.47 1159.7 979.523 1230.78 895.654 1268.53 C 891.274 1270.5 872.187 1278.15 869.402 1279.98 L 866.921 1277.28 C 875.456 1274.51 883.862 1271.35 892.113 1267.83 C 978.978 1231.09 1040.9 1157.7 1075.8 1071.54 C 1086.86 1077.17 1096.76 1081.38 1109.4 1081.52 C 1198.6 1082.52 1256.27 949.001 1173.3 897.314 C 1172.73 896.852 1172.72 896.792 1172.04 896.517 L 1171.06 895.972 C 1152.3 885.599 1134.51 884.324 1114.12 890.162 L 1113.14 887.959 z" fill="rgb(77,41,22)" transform="translate(0,0)"></path>
<path d="M 528.966 956.089 C 509.076 925.003 510.637 884.823 532.878 855.374 C 555.12 825.925 593.341 813.432 628.681 824.06 C 664.022 834.687 689.013 866.189 691.322 903.021 C 692.739 908.43 692.657 908.538 691.328 913.963 C 689.4 945.276 670.988 973.21 642.97 987.326 C 614.953 1001.44 581.547 999.617 555.234 982.532 C 553.737 981.754 553.796 981.801 552.522 980.699 C 545.082 975.466 538.496 969.114 532.998 961.868 C 531.886 960.575 531.761 960.408 530.878 958.952 C 530.13 957.945 529.535 957.201 528.966 956.089 z" fill="rgb(104,60,38)" transform="translate(0,0)"></path>
<path d="M 691.322 903.021 C 692.739 908.43 692.657 908.538 691.328 913.963 C 691.553 910.319 691.551 906.664 691.322 903.021 z" fill="rgb(171,126,103)" transform="translate(0,0)"></path>
<path d="M 591.112 823.24 C 638.44 816.525 682.196 849.599 688.646 896.964 C 695.096 944.329 661.777 987.899 614.376 994.083 C 567.351 1000.22 524.2 967.219 517.801 920.229 C 511.402 873.238 544.158 829.903 591.112 823.24 z" fill="rgb(255,255,255)" transform="translate(0,0)"></path>
<path d="M 598.58 847.792 C 632.86 845.114 662.894 870.564 665.878 904.819 C 668.863 939.074 643.682 969.334 609.455 972.624 C 574.793 975.957 544.063 950.386 541.041 915.695 C 538.018 881.004 563.863 850.504 598.58 847.792 z" fill="rgb(77,41,22)" transform="translate(0,0)"></path>
<path d="M 625.771 864.601 C 635.001 862.94 643.858 868.988 645.67 878.19 C 647.483 887.391 641.581 896.346 632.411 898.31 C 626.343 899.609 620.046 897.536 615.937 892.885 C 611.829 888.234 610.548 881.729 612.586 875.868 C 614.623 870.007 619.664 865.7 625.771 864.601 z" fill="rgb(255,255,255)" transform="translate(0,0)"></path>
<path d="M 853.493 977.765 C 815.975 948.194 808.814 894.13 837.341 855.812 C 865.868 817.494 919.714 808.849 958.803 836.31 C 959.753 836.978 960.691 837.665 961.614 838.37 C 981.122 853.26 993.545 875.603 995.897 900.031 C 998.25 924.459 990.32 948.763 974.012 967.102 C 971.218 970.244 968.203 973.182 964.99 975.894 C 933.919 1002.12 888.946 1003.71 856.101 979.743 C 855.22 979.1 854.35 978.44 853.493 977.765 z" fill="rgb(104,60,38)" transform="translate(0,0)"></path>
<path d="M 974.012 967.102 C 971.218 970.244 968.203 973.182 964.99 975.894 C 966.35 974.112 972.042 968.368 974.012 967.102 z" fill="rgb(171,126,103)" transform="translate(0,0)"></path>
<path d="M 903.429 822.421 C 950.821 819.91 991.336 856.164 994.085 903.543 C 996.834 950.922 960.785 991.618 913.42 994.606 C 865.717 997.614 824.667 961.251 821.898 913.534 C 819.129 865.816 855.698 824.949 903.429 822.421 z" fill="rgb(255,255,255)" transform="translate(0,0)"></path>
<path d="M 900.443 848.147 C 934.851 843.92 966.154 868.433 970.3 902.85 C 974.447 937.268 949.861 968.513 915.434 972.579 C 881.12 976.632 850 952.145 845.868 917.841 C 841.735 883.537 866.149 852.36 900.443 848.147 z" fill="rgb(77,41,22)" transform="translate(0,0)"></path>
<path d="M 932.308 864.132 C 954.596 865.023 959.251 890.114 936.641 900.03 C 914.807 898.547 909.565 871.289 932.308 864.132 z" fill="rgb(255,255,255)" transform="translate(0,0)"></path>
<path d="M 664.986 1091.81 C 666.519 1092.21 671.332 1093.51 671.951 1094.55 C 677.026 1103.15 678.914 1112.73 684.624 1121.19 C 721.229 1175.83 813.244 1167.56 834.706 1103.74 C 839.47 1089.57 848.94 1085.57 853.625 1103.23 C 854.279 1105.7 851.182 1112.99 850.052 1115.81 C 812.981 1195.87 699.172 1197.73 661.884 1116.56 C 656.823 1105.54 652.895 1099.12 664.986 1091.81 z" fill="rgb(77,41,22)" transform="translate(0,0)"></path>
<path d="M 757.842 899.79 C 758.705 899.741 759.569 899.708 760.433 899.692 C 773.851 899.387 773.644 911.067 772.03 921.274 C 769.955 934.396 766.243 941.795 761.3 954.497 C 755.225 970.106 740.989 986.512 737.848 1002.78 C 740.668 1030.98 772 1012.6 785.65 1023.9 C 792.119 1029.25 787.397 1037.44 781.918 1041.82 C 775.347 1041.96 768.878 1041.9 762.359 1041.86 C 738.867 1041.71 715.353 1028.26 717.22 1001.96 C 718.863 978.808 736.394 962.459 744.541 941.576 C 749.216 929.592 749.529 917.357 752.891 905.192 C 753.295 903.754 756.578 900.88 757.842 899.79 z" fill="rgb(77,41,22)" transform="translate(0,0)"></path>
<path d="M 904.687 748.427 C 931.497 745.869 966.057 757.171 986.995 775.823 C 990.666 779.094 990.661 789.16 985.69 792.441 C 976.245 798.676 969.637 791.072 961.884 786.237 C 948.752 776.752 935.712 773.283 919.958 771.38 C 903.563 768.698 878.837 774.423 864.932 783.348 C 858.579 786.709 852.47 791.837 845.404 793.529 C 834.298 795.634 829.331 782.253 836.447 774.508 C 841.553 768.951 846.884 766.26 853.636 762.769 C 870.076 754.268 886.242 749.759 904.687 748.427 z" fill="rgb(77,41,22)" transform="translate(0,0)"></path>
<path d="M 593.347 748.41 C 617.995 745.7 646.443 754.433 667.336 767.243 C 674.113 771.398 684.906 783.752 675.437 790.496 C 674.474 791.182 670.659 792.754 669.301 793.125 C 657.756 789.258 647.731 781.807 636.306 777.58 C 625.165 773.425 619.393 772.44 608.76 771.001 C 587.566 770.387 568.212 773.49 550.677 785.91 C 545.384 789.241 540.532 793.767 534.367 795.298 C 524.165 797.833 518.855 782.628 525.517 776.395 C 543.83 759.262 568.651 750.614 593.347 748.41 z" fill="rgb(77,41,22)" transform="translate(0,0)"></path>
<path d="M 1131.44 924.277 C 1170.22 920.667 1175.4 957.719 1178.25 986.577 C 1173.82 977.597 1169.56 968.761 1164.59 960.068 C 1149.24 933.211 1125.75 934.032 1104.25 953.331 C 1109.33 956.67 1110.77 957.877 1115.16 962.098 C 1124.77 973.123 1128.79 988.41 1123 1002.28 C 1119.77 1010.02 1118.55 1016.61 1108.79 1016.81 C 1098.46 1010.93 1113.41 991.264 1109.49 980.355 C 1103.34 963.215 1072.73 971.229 1090.38 947.845 C 1100.59 934.305 1114.9 926.722 1131.44 924.277 z" fill="rgb(77,41,22)" transform="translate(0,0)"></path>
<path d="M 374.072 924.404 C 375.891 924.515 377.706 924.696 379.511 924.948 C 395.417 927.054 426.066 943.448 423.381 962.105 C 419.761 966.841 411.062 966.994 405.655 971.427 C 389.582 984.605 404.19 997.301 404.334 1012.34 C 404.353 1014.36 402.259 1015.32 400.807 1016.11 C 396.127 1016.52 391.633 1014.32 389.481 1009.95 C 381.014 992.771 381.602 980.747 391.711 964.778 C 396.012 959.5 398.864 957.397 404.398 953.61 C 394.445 944.044 381.423 937.109 367.341 940.557 C 346.19 945.736 339.849 970.018 329.638 986.603 C 331.883 954.278 337.281 927.44 374.072 924.404 z" fill="rgb(77,41,22)" transform="translate(0,0)"></path>
<path d="M 644.039 1285.85 L 645.528 1289.89 L 646.783 1290.41 C 702.401 1316.91 790.533 1317.08 847.137 1294.76 C 851.385 1293.09 863.68 1288.41 866.911 1288.68 L 868.079 1290.46 L 869.691 1299.57 C 870.782 1324.74 866.879 1352.32 871.633 1377.08 C 876.167 1400.69 911.408 1402.86 931.108 1407.45 L 993.733 1422.32 C 1007.3 1425.5 1020.9 1428.65 1034.44 1432.04 C 1107.15 1449.64 1174.7 1515.72 1197.86 1586.48 C 1216.9 1644.66 1232.9 1706.8 1251.63 1765.38 C 1257.74 1784.49 1263.95 1805.28 1269.14 1824.75 C 1266.91 1835.27 1262.52 1842.79 1250.86 1843.03 C 1236.36 1843.32 1221.87 1843.2 1207.37 1843.18 L 1126.98 1843.08 L 878.093 1843.1 L 475.931 1843.11 C 402.952 1843.14 328.489 1843.92 255.612 1843.01 C 237.673 1832.36 242.671 1820.11 247.816 1803.24 C 250.346 1794.95 253.465 1786.44 255.904 1778.14 L 287.19 1673.6 L 302.902 1621.7 C 307.541 1606.06 311.251 1591.98 317.307 1576.81 C 342.635 1513.34 394.406 1461.13 458.697 1437.36 C 474.114 1431.66 492.88 1428.1 509.187 1424.23 L 585.472 1406.16 C 637.822 1394.04 646.166 1396.84 643.999 1336.5 C 643.458 1321.45 644.027 1301.37 644.039 1285.85 z" fill="rgb(77,41,22)" transform="translate(0,0)"></path>
<path d="M 646.783 1290.41 C 702.401 1316.91 790.533 1317.08 847.137 1294.76 C 851.385 1293.09 863.68 1288.41 866.911 1288.68 L 868.079 1290.46 L 867.88 1304.85 C 868.651 1316.03 868.404 1357.35 867.758 1369.52 C 868.384 1372.99 868.839 1375.44 869.856 1378.85 C 880.154 1404.25 909.339 1404.95 933.461 1410.13 C 927.911 1479.73 856.08 1520.74 793.433 1529.1 C 735.886 1536.79 672.506 1528.66 624.672 1493.3 C 595.255 1471.55 583.016 1444.73 578.107 1409.71 C 656.378 1398.29 646.127 1383.06 646.039 1312.15 C 645.994 1306.81 645.405 1294.96 646.783 1290.41 z" fill="rgb(198,151,125)" transform="translate(0,0)"></path>
<path d="M 646.783 1290.41 C 702.401 1316.91 790.533 1317.08 847.137 1294.76 C 851.385 1293.09 863.68 1288.41 866.911 1288.68 L 868.079 1290.46 L 867.88 1304.85 C 868.651 1316.03 868.404 1357.35 867.758 1369.52 C 868.384 1372.99 868.839 1375.44 869.856 1378.85 C 810.516 1402.45 733.599 1381.34 684.817 1343.2 C 676.462 1336.6 668.506 1329.51 660.99 1321.97 C 657.463 1318.37 652.111 1310.19 647.345 1309.52 L 646.039 1312.15 C 645.994 1306.81 645.405 1294.96 646.783 1290.41 z" fill="rgb(211,126,88)" transform="translate(0,0)"></path>
<path d="M 867.88 1304.85 C 868.651 1316.03 868.404 1357.35 867.758 1369.52 C 866.31 1360.77 866.704 1313.76 867.88 1304.85 z" fill="rgb(146,88,63)" transform="translate(0,0)"></path>
<path d="M 935.526 1410.52 C 997.277 1427.52 1049.33 1429.39 1102.96 1465.6 C 1103.65 1465.96 1103.65 1465.98 1104.22 1466.51 L 1111.02 1471.58 C 1111.75 1472.05 1111.57 1471.9 1112.24 1472.52 L 1116.05 1475.56 C 1116.67 1475.95 1116.72 1476.01 1117.24 1476.53 C 1122.15 1480.8 1128.08 1485.69 1132.67 1490.18 C 1136.18 1493.01 1137.73 1494.48 1140.5 1498 C 1183.93 1545.69 1192.19 1572.92 1209.71 1632.95 L 1233.77 1713.82 C 1241.48 1738.83 1249.04 1763.88 1256.47 1788.97 C 1259.14 1797.98 1265.23 1816.03 1266.46 1824.21 C 1266.93 1825.21 1266.89 1825.08 1266.61 1826.17 C 1265.59 1831.12 1263.84 1835.67 1259.36 1838.47 C 1251.09 1843.64 1150.49 1840.95 1132.61 1841.08 L 1090.16 1841.11 C 1090.09 1816.52 1089.25 1789.91 1088.09 1765.3 C 1087.74 1757.9 1083.97 1751.22 1083.44 1745.07 C 1082.3 1731.93 1081.06 1718.21 1080.24 1705.06 C 1079.27 1689.77 1077.19 1672.58 1077.08 1657.47 C 1076.43 1653.44 1076.26 1649.58 1076.01 1645.52 L 1073.84 1643.36 C 1074.02 1660.15 1076.26 1678.72 1077.34 1695.62 C 1078.35 1711.63 1079.93 1728.06 1081.13 1744.1 C 1081.63 1750.64 1085.19 1758.27 1085.58 1765.87 C 1086.84 1790.35 1087.86 1816.61 1087.93 1841.1 L 424.093 1841.07 C 424.846 1805.79 424.662 1775.29 431.277 1741.31 C 433.216 1731.34 438.917 1642.53 438.033 1640.54 C 434.378 1652.35 436.109 1661.4 433.979 1673.03 C 433.341 1697.94 430.499 1723.3 428.827 1748.18 C 428.53 1752.61 424.346 1758.69 424.283 1762.55 C 423.859 1788.39 421.902 1815.15 421.95 1840.91 L 387.583 1840.98 L 307.215 1841.16 C 292.934 1841.19 278.674 1841.4 264.379 1840.95 C 246.577 1840.38 242.113 1831.41 246.649 1814.9 C 250.011 1802.67 254.004 1790.58 257.711 1778.45 L 279.415 1707.17 L 303.336 1628.14 C 312.021 1599.45 318.686 1573.39 333.886 1547.02 C 347.827 1522.74 365.762 1500.98 386.937 1482.65 C 447.868 1429.86 500.315 1430.68 576.156 1410.32 C 591.578 1544.95 791.917 1562.99 882.436 1497.28 C 914.77 1473.81 929.047 1449.28 935.526 1410.52 z" fill="rgb(229,215,106)" transform="translate(0,0)"></path>
<path d="M 1077.08 1657.47 C 1082.03 1662.33 1087.67 1674.4 1090.62 1680.93 C 1112.82 1730.07 1124.48 1787.72 1132.61 1841.08 L 1090.16 1841.11 C 1090.09 1816.52 1089.25 1789.91 1088.09 1765.3 C 1087.74 1757.9 1083.97 1751.22 1083.44 1745.07 C 1082.3 1731.93 1081.06 1718.21 1080.24 1705.06 C 1079.27 1689.77 1077.19 1672.58 1077.08 1657.47 z" fill="rgb(210,184,136)" transform="translate(0,0)"></path>
<path d="M 433.979 1673.03 C 433.341 1697.94 430.499 1723.3 428.827 1748.18 C 428.53 1752.61 424.346 1758.69 424.283 1762.55 C 423.859 1788.39 421.902 1815.15 421.95 1840.91 L 387.583 1840.98 C 389.763 1803.33 413.287 1702.34 433.979 1673.03 z" fill="rgb(210,184,136)" transform="translate(0,0)"></path>
<path d="M 1073.84 1643.36 C 1072.42 1638.76 1075.55 1636.03 1076.01 1645.52 L 1073.84 1643.36 z" fill="rgb(117,94,47)" transform="translate(0,0)"></path>
<path d="M 1132.67 1490.18 C 1136.18 1493.01 1137.73 1494.48 1140.5 1498 C 1137.36 1495.66 1135.07 1493.26 1132.67 1490.18 z" fill="rgb(160,141,69)" transform="translate(0,0)"></path>
<path d="M 1266.46 1824.21 C 1266.93 1825.21 1266.89 1825.08 1266.61 1826.17 C 1266.51 1825.49 1266.36 1824.87 1266.46 1824.21 z" fill="rgb(117,94,47)" transform="translate(0,0)"></path>
<path d="M 878.643 290.415 L 1171.76 290.778 L 1272.11 290.657 C 1291.29 290.562 1310.55 290.386 1329.73 290.38 C 1333.88 290.379 1335.13 290.011 1338.05 292.161 L 1337.22 295.457 L 1337.41 549.503 L 1337.08 630.677 C 1337.04 641.319 1336.46 664.258 1337.49 674.359 C 1337.04 676.107 1337.04 675.957 1336.02 677.55 C 1315.86 676.517 1122.06 676.345 1118.07 677.856 C 1114.6 665.788 1109.2 652.493 1104.4 640.936 C 1102.36 631.775 1089.12 608.635 1088.46 603.112 L 1090.12 601.996 L 1088.11 600.312 C 1083.91 598.977 1075.69 580.483 1071.71 574.179 C 1037.48 521.854 995.824 477.374 940.652 447.068 C 933.144 442.869 921.969 436.614 914.065 433.728 C 901.485 428.192 891.759 424.239 878.749 419.878 C 880.153 379.964 878.697 330.881 878.643 290.415 z" fill="rgb(232,216,196)" transform="translate(0,0)"></path>
<path d="M 878.643 290.415 L 1171.76 290.778 L 1272.11 290.657 C 1291.29 290.562 1310.55 290.386 1329.73 290.38 C 1333.88 290.379 1335.13 290.011 1338.05 292.161 L 1337.22 295.457 L 1337.41 549.503 L 1337.08 630.677 C 1337.04 641.319 1336.46 664.258 1337.49 674.359 C 1337.04 676.107 1337.04 675.957 1336.02 677.55 C 1315.86 676.517 1122.06 676.345 1118.07 677.856 C 1114.6 665.788 1109.2 652.493 1104.4 640.936 C 1124.32 640.774 1296.03 641.777 1300.67 639.782 L 1301.15 637.507 C 1300.35 626.809 1300.76 611.814 1300.76 600.762 L 1300.79 536.067 L 1300.75 338.277 L 1131.17 337.867 C 1120.91 338.603 1082.24 336.618 1076.88 339.946 C 1072.9 339.987 1070.81 339.653 1066.98 338.978 C 1062.57 339.348 1059.29 339.094 1054.92 338.854 C 1051.72 339.291 1048.65 339.867 1045.43 339.873 C 1013.21 346.709 988.338 361.31 969.879 389.449 C 960.004 404.603 954.057 421.977 952.576 440.004 C 946.624 441.813 944.821 442.148 940.652 447.068 C 933.144 442.869 921.969 436.614 914.065 433.728 C 901.485 428.192 891.759 424.239 878.749 419.878 C 880.153 379.964 878.697 330.881 878.643 290.415 z" fill="rgb(104,60,38)" transform="translate(0,0)"></path>
<path d="M 913.812 337.803 L 997.545 337.991 C 1007.56 338.007 1031.75 338.557 1041.27 337.578 C 1042.75 338.201 1044.05 339.052 1045.43 339.873 C 1013.21 346.709 988.338 361.31 969.879 389.449 C 960.004 404.603 954.057 421.977 952.576 440.004 C 946.624 441.813 944.821 442.148 940.652 447.068 C 933.144 442.869 921.969 436.614 914.065 433.728 L 913.812 337.803 z" fill="rgb(232,216,196)" transform="translate(0,0)"></path>
<path d="M 913.891 326.65 C 970.625 326.192 1027.66 327.149 1084.48 327.095 C 1156.81 326.53 1229.15 326.549 1301.49 327.151 L 1301.72 540.983 L 1301.76 602.346 C 1301.78 611.148 1302.19 629.145 1301.15 637.507 C 1300.35 626.809 1300.76 611.814 1300.76 600.762 L 1300.79 536.067 L 1300.75 338.277 L 1131.17 337.867 C 1120.91 338.603 1082.24 336.618 1076.88 339.946 C 1072.9 339.987 1070.81 339.653 1066.98 338.978 C 1062.57 339.348 1059.29 339.094 1054.92 338.854 C 1051.72 339.291 1048.65 339.867 1045.43 339.873 C 1044.05 339.052 1042.75 338.201 1041.27 337.578 C 1031.75 338.557 1007.56 338.007 997.545 337.991 L 913.812 337.803 L 913.891 326.65 z" fill="rgb(198,151,125)" transform="translate(0,0)"></path>
<path d="M 1066.98 338.978 C 1071.2 336.024 1123.44 336.96 1131.17 337.867 C 1120.91 338.603 1082.24 336.618 1076.88 339.946 C 1072.9 339.987 1070.81 339.653 1066.98 338.978 z" fill="rgb(210,184,136)" transform="translate(0,0)"></path>
<path d="M 1041.27 337.578 C 1044.68 337.016 1051.81 336.824 1054.92 338.854 C 1051.72 339.291 1048.65 339.867 1045.43 339.873 C 1044.05 339.052 1042.75 338.201 1041.27 337.578 z" fill="rgb(210,184,136)" transform="translate(0,0)"></path>
<path d="M 1337.22 295.457 C 1328.87 298.92 1307.97 326.577 1302.67 326.91 C 1300.79 325.298 1315.44 312.276 1317.05 310.885 C 1324.2 304.689 1329.52 296.191 1338.05 292.161 L 1337.22 295.457 z" fill="rgb(77,41,22)" transform="translate(0,0)"></path>
<path d="M 1336.02 677.55 C 1331.13 671.169 1307.91 649.445 1302.3 641.358 C 1302.21 641.238 1302.39 641.157 1302.57 641.04 C 1304.96 640.897 1331.87 670.011 1337.49 674.359 C 1337.04 676.107 1337.04 675.957 1336.02 677.55 z" fill="rgb(77,41,22)" transform="translate(0,0)"></path>
<path d="M 882.529 295.56 C 888.274 297.289 905.249 317.817 910.629 322.367 C 911.931 323.468 912.735 326.3 913.137 328.016 C 905.913 325.612 887.103 302.435 882.529 295.56 z" fill="rgb(77,41,22)" transform="translate(0,0)"></path>
<path d="M 1054.92 338.854 C 1059.29 339.094 1062.57 339.348 1066.98 338.978 C 1070.81 339.653 1072.9 339.987 1076.88 339.946 C 1108.5 347.205 1134.82 363.229 1151.26 391.344 C 1153.21 394.682 1157.84 403.696 1160.85 404.81 L 1162.98 404.216 L 1163.75 405.054 L 1160.34 407.411 C 1161.63 412.991 1164.54 418.485 1166.39 424.35 C 1171.87 441.684 1172.68 464.742 1168.84 482.648 C 1162.11 513.614 1145.3 539.409 1118.66 557.151 C 1107.72 564.432 1086.25 574.095 1072.83 573.264 L 1071.71 574.179 C 1037.48 521.854 995.824 477.374 940.652 447.068 C 944.821 442.148 946.624 441.813 952.576 440.004 C 954.057 421.977 960.004 404.603 969.879 389.449 C 988.338 361.31 1013.21 346.709 1045.43 339.873 C 1048.65 339.867 1051.72 339.291 1054.92 338.854 z" fill="rgb(77,41,22)" transform="translate(0,0)"></path>
<path d="M 952.576 440.004 C 956.615 440.219 967.167 440.807 970.966 442.312 C 999.597 453.656 1026.41 478.439 1046.78 500.92 C 1059.14 514.561 1077.53 539.812 1078.26 558.27 C 1078.44 562.753 1074.83 569.252 1072.83 573.264 L 1071.71 574.179 C 1037.48 521.854 995.824 477.374 940.652 447.068 C 944.821 442.148 946.624 441.813 952.576 440.004 z" fill="rgb(244,172,70)" transform="translate(0,0)"></path>
<path d="M 1168.84 482.648 C 1188.54 481.629 1200.54 481.329 1220.29 484.928 C 1227.19 486.185 1249.69 491.394 1254.99 491.326 C 1256.61 492.306 1259.52 493.575 1259.58 495.173 C 1260.66 526.698 1260.02 570.416 1259.98 600.846 L 1146.41 600.446 C 1127.99 600.381 1106.21 599.702 1088.11 600.312 C 1083.91 598.977 1075.69 580.483 1071.71 574.179 L 1072.83 573.264 C 1086.25 574.095 1107.72 564.432 1118.66 557.151 C 1145.3 539.409 1162.11 513.614 1168.84 482.648 z" fill="rgb(227,138,80)" transform="translate(0,0)"></path>
<path d="M 1173.6 401.666 C 1203.35 412.478 1217.09 435.895 1217.11 467.128 C 1226.65 473.168 1246.65 485.075 1254.99 491.326 C 1249.69 491.394 1227.19 486.185 1220.29 484.928 C 1200.54 481.329 1188.54 481.629 1168.84 482.648 C 1172.68 464.742 1171.87 441.684 1166.39 424.35 C 1164.54 418.485 1161.63 412.991 1160.34 407.411 L 1163.75 405.054 L 1173.6 401.666 z" fill="rgb(211,126,88)" transform="translate(0,0)"></path>
<path d="M 1162.98 404.216 C 1167.26 401.922 1169.14 401.055 1173.73 399.386 C 1205.15 410.949 1218.1 432.879 1219.57 465.791 C 1231.67 473.99 1251.37 485.477 1262.01 493.506 L 1262.14 603.123 L 1146.62 602.797 C 1134.21 602.757 1100.91 603.39 1090.12 601.996 L 1088.11 600.312 C 1106.21 599.702 1127.99 600.381 1146.41 600.446 L 1259.98 600.846 C 1260.02 570.416 1260.66 526.698 1259.58 495.173 C 1259.52 493.575 1256.61 492.306 1254.99 491.326 C 1246.65 485.075 1226.65 473.168 1217.11 467.128 C 1217.09 435.895 1203.35 412.478 1173.6 401.666 L 1163.75 405.054 L 1162.98 404.216 z" fill="rgb(77,41,22)" transform="translate(0,0)"></path>
<metadata><recraft-signature>{"signed_by": "recraft", "signature_b64": "PZG4BA2F/rrwPwd9u0w9rPSOhIQx9m6re7KhOc/k7EobIvaAPk02/dkz6pO2jFvaXpoeGr2rrtqROqPsyGwIBg==", "signing_algo": "Ed25519", "generation_timestamp": 1779091583, "identifier": "d7150361-9526-4722-9645-0559f86daa81"}</recraft-signature></metadata></svg>