<svg xmlns="http://www.w3.org/2000/svg" height="1216" preserveAspectRatio="none" style="display: block;" version="1.1" viewBox="0 0 1509 2048" width="896">
<path d="M 0 0 L 1509 0 L 1509 1761.1 L 1509 1880.17 L 1509 1946.23 L 1509 1984.62 L 1509 2048 L 1171.85 2048 L 1030.02 2048 L 1012.76 2048 L 493.995 2048 L 477.092 2048 L 389.01 2048 L 337.979 2048 L 0 2048 L 0 1987.75 L 0 1946.1 L 0 1880 L 0 1759.31 L 0 0 z" fill="rgb(255,255,255)" transform="translate(0,0)"></path>
<path d="M 853.33 1441.17 C 853.181 1446.85 852.845 1453.42 853.069 1459.02 L 853.754 1458.64 C 853.796 1489.01 853.517 1519.99 854.005 1550.31 L 879.177 1549.88 C 942.059 1549.58 974.704 1560.26 1028.55 1593.98 C 1034.88 1593.96 1044.05 1593.66 1050.15 1594.17 C 1043.33 1594.58 1036.49 1594.81 1029.65 1594.86 C 1042.99 1604.3 1055.2 1612.78 1067.26 1624.06 C 1118.19 1671.64 1154.49 1737.03 1166.59 1805.77 C 1171.07 1831.23 1171.92 1854.43 1171.84 1880.01 C 1171.71 1900.87 1170.9 1925.48 1171.54 1946.03 C 1171.4 1955.88 1170.57 2002.34 1172 2009.86 C 1172.08 2022.58 1172.03 2035.29 1171.85 2048 L 1030.02 2048 L 1012.76 2048 L 493.995 2048 L 477.092 2048 L 389.01 2048 L 389.678 1937.29 C 389.81 1897.1 388.634 1856.38 395.478 1817.65 C 414.061 1712.49 478.239 1617.71 572.23 1565.93 C 579.408 1561.98 589.268 1556.39 595.811 1551.68 L 591.938 1550.38 C 597.839 1549.55 618.808 1550.04 625.808 1550.1 L 662.956 1550.09 L 662.911 1526.19 L 662.929 1442.56 C 667.66 1443.89 672.399 1445.19 677.145 1446.46 C 726.492 1459.68 779.926 1458.5 829.929 1448.8 C 838.133 1447.21 846.033 1445.39 853.33 1441.17 z" fill="rgb(108,160,205)" transform="translate(0,0)"></path>
<path d="M 853.33 1441.17 C 853.181 1446.85 852.845 1453.42 853.069 1459.02 L 853.754 1458.64 C 853.796 1489.01 853.517 1519.99 854.005 1550.31 L 879.177 1549.88 C 879.199 1571.46 877.719 1587.19 869.056 1607.51 C 848.802 1655 805.65 1686.9 753.504 1687.16 C 720.035 1687.55 687.868 1674.21 664.487 1650.26 C 636.114 1621.75 625.572 1589.54 625.808 1550.1 L 662.956 1550.09 L 662.911 1526.19 L 662.929 1442.56 C 667.66 1443.89 672.399 1445.19 677.145 1446.46 C 726.492 1459.68 779.926 1458.5 829.929 1448.8 C 838.133 1447.21 846.033 1445.39 853.33 1441.17 z" fill="rgb(254,157,84)" transform="translate(0,0)"></path>
<path d="M 853.33 1441.17 C 853.181 1446.85 852.845 1453.42 853.069 1459.02 C 812.427 1500.18 737.504 1525.94 679.995 1526.35 C 674.3 1526.36 668.605 1526.31 662.911 1526.19 L 662.929 1442.56 C 667.66 1443.89 672.399 1445.19 677.145 1446.46 C 726.492 1459.68 779.926 1458.5 829.929 1448.8 C 838.133 1447.21 846.033 1445.39 853.33 1441.17 z" fill="rgb(222,96,33)" transform="translate(0,0)"></path>
<path d="M 1012.76 2048 L 1012.71 1949.95 C 1012.68 1933.05 1012.37 1916.01 1013.22 1899.15 C 1013.48 1893.98 1016.96 1890.72 1022.08 1890.87 C 1024.53 1890.94 1026.81 1892.14 1028.26 1894.11 C 1032.15 1899.46 1030.24 1934.41 1030.22 1943.99 L 1030.02 2048 L 1012.76 2048 z" fill="rgb(73,124,168)" transform="translate(0,0)"></path>
<path d="M 477.092 2048 L 476.943 1948.9 C 476.922 1933.9 475.687 1917.8 476.903 1902.92 C 477.171 1899.64 477.748 1895.57 480.038 1893.07 C 481.407 1891.58 482.952 1890.8 485 1890.78 C 487.875 1890.74 491.174 1892.53 492.883 1894.81 C 495.9 1898.84 494.035 2030.55 493.995 2048 L 477.092 2048 z" fill="rgb(73,124,168)" transform="translate(0,0)"></path>
<path d="M 908.346 696.403 C 920.519 741.123 930.254 776.657 960.752 813.101 C 993.715 852.49 1024.58 864.014 1072.41 875.665 L 1072.77 956.36 C 1072.83 967.867 1072.37 985.397 1073.06 996.479 L 1072.97 1085.95 C 1072.96 1101.11 1072.47 1119.57 1073.04 1134.48 C 1073.18 1173.96 1070.51 1208.68 1057.58 1246.44 C 1024.68 1342.45 950.453 1412.39 853.966 1441.97 L 853.754 1458.64 L 853.069 1459.02 C 852.845 1453.42 853.181 1446.85 853.33 1441.17 C 846.033 1445.39 838.133 1447.21 829.929 1448.8 C 779.926 1458.5 726.492 1459.68 677.145 1446.46 C 672.399 1445.19 667.66 1443.89 662.929 1442.56 C 618.527 1434.78 558.592 1394.49 526.487 1363.04 C 468.325 1305.5 435.368 1227.24 434.848 1145.43 C 435.407 1129.23 434.616 1109.07 434.525 1092.37 C 434.604 1060.31 434.474 1028.24 434.137 996.178 C 435.021 964.935 433.483 933.449 434.775 902.2 C 435.342 878.761 449.406 853.338 471.521 843.736 C 492.485 834.634 530.153 836.142 553.045 837.831 C 593.368 835.849 636.514 838.697 676.357 836.501 C 752.703 832.908 824.376 798.689 875.171 741.58 C 888.953 726.349 897.46 713.657 908.346 696.403 z" fill="rgb(198,123,85)" transform="translate(0,0)"></path>
<path d="M 434.137 996.178 C 435.021 964.935 433.483 933.449 434.775 902.2 C 435.342 878.761 449.406 853.338 471.521 843.736 C 492.485 834.634 530.153 836.142 553.045 837.831 C 520.867 850.485 500.185 870.931 497.932 906.745 C 495.964 938.025 496.895 972.039 497.076 1003.41 C 497.36 1052.55 495.426 1102.22 500.86 1151.04 C 514.987 1261.77 594.106 1366.93 696.647 1410.02 C 732.614 1425.06 770.641 1434.59 809.449 1438.3 C 817.56 1439.11 848.184 1439.44 853.33 1441.17 C 846.033 1445.39 838.133 1447.21 829.929 1448.8 C 779.926 1458.5 726.492 1459.68 677.145 1446.46 C 672.399 1445.19 667.66 1443.89 662.929 1442.56 C 618.527 1434.78 558.592 1394.49 526.487 1363.04 C 468.325 1305.5 435.368 1227.24 434.848 1145.43 C 435.407 1129.23 434.616 1109.07 434.525 1092.37 C 434.604 1060.31 434.474 1028.24 434.137 996.178 z" fill="rgb(175,101,64)" transform="translate(0,0)"></path>
<path d="M 661.172 1192.99 C 673.392 1193.38 676.327 1202.71 681.982 1212.02 C 713.46 1263.86 785.827 1265.65 822.925 1218.98 C 830.04 1210.04 832.529 1198.01 842.924 1193.62 C 850.886 1190.22 856.098 1194.41 858.312 1202.18 C 860.934 1211.56 857.527 1217.45 853.153 1225.35 C 805.304 1302.32 699.542 1300.41 654.017 1221.75 C 647.07 1209.75 648.047 1199.31 661.172 1192.99 z" fill="rgb(222,96,33)" transform="translate(0,0)"></path>
<path d="M 579.899 975.226 C 601.1 972.909 620.172 988.197 622.525 1009.39 C 624.879 1030.59 609.623 1049.69 588.431 1052.08 C 567.187 1054.47 548.033 1039.17 545.674 1017.93 C 543.315 996.678 558.648 977.549 579.899 975.226 z" fill="rgb(89,39,15)" transform="translate(0,0)"></path>
<path d="M 925.538 975.795 C 946.513 971.577 966.92 985.218 971.041 1006.21 C 975.163 1027.21 961.428 1047.55 940.415 1051.57 C 919.538 1055.57 899.356 1041.95 895.261 1021.09 C 891.166 1000.23 904.699 979.986 925.538 975.795 z" fill="rgb(89,39,15)" transform="translate(0,0)"></path>
<path d="M 719.495 1095.3 C 721.787 1100.12 722.95 1106.13 725.335 1110.91 C 734.176 1127.63 756.93 1127.64 772.071 1120.54 C 783.959 1115.77 784.023 1104.44 791.645 1095.07 C 802.343 1081.92 810.929 1093.69 814.254 1104.9 C 812.681 1112.91 811.575 1117.01 808.037 1124.32 C 792.431 1148.67 763.124 1156.74 734.941 1150.05 C 715.571 1145.45 690.658 1123.93 695.083 1101.11 C 696.058 1096.08 700.959 1093.27 705.251 1090.9 C 711.722 1090.76 713.936 1092.31 719.495 1095.3 z" fill="rgb(222,96,33)" transform="translate(0,0)"></path>
<path d="M 714.72 431.93 C 728.588 432.059 738.638 432.025 752.464 433.071 C 755.056 433.256 759.356 433.704 761.806 433.67 C 771.203 434.38 779.842 436.024 789.085 437.65 L 798.041 438.857 L 802.96 439.405 C 808.018 440.641 813.067 441.912 818.107 443.216 C 875.856 459.56 927.67 484.977 958.2 539.718 C 961.143 545.036 963.932 550.438 966.561 555.917 C 1020.73 556.965 1065.8 574.42 1104.31 613.42 C 1140.46 650.035 1163.27 702.524 1161.81 754.204 C 1160.87 787.227 1148.61 836.473 1141.03 870.164 C 1132.01 910.255 1123.16 952.92 1113.43 992.771 C 1096.75 992.981 1090.47 991.009 1073.06 996.479 C 1072.37 985.397 1072.83 967.867 1072.77 956.36 L 1072.41 875.665 C 1024.58 864.014 993.715 852.49 960.752 813.101 C 930.254 776.657 920.519 741.123 908.346 696.403 C 897.46 713.657 888.953 726.349 875.171 741.58 C 824.376 798.689 752.703 832.908 676.357 836.501 C 636.514 838.697 593.368 835.849 553.045 837.831 C 530.153 836.142 492.485 834.634 471.521 843.736 C 449.406 853.338 435.342 878.761 434.775 902.2 C 433.483 933.449 435.021 964.935 434.137 996.178 C 424.029 993.607 406.951 993.193 402.851 991.944 C 381.006 943.67 357.079 876.131 352.196 824.354 C 343.477 728.723 373.416 633.582 435.328 560.177 C 487.592 497.638 559.747 454.944 639.722 439.237 C 657.751 435.624 673.964 434.229 692.206 432.526 C 694.484 432.397 698.209 432.051 700.361 432.331 L 703.349 431.95 L 714.72 431.93 z" fill="rgb(89,39,15)" transform="translate(0,0)"></path>
<path d="M 479.395 1593.95 C 485.008 1591.93 501.16 1581.33 507.683 1577.93 C 536.23 1563.08 560.293 1554.82 591.938 1550.38 L 595.811 1551.68 C 589.268 1556.39 579.408 1561.98 572.23 1565.93 C 478.239 1617.71 414.061 1712.49 395.478 1817.65 C 388.634 1856.38 389.81 1897.1 389.678 1937.29 L 389.01 2048 L 337.979 2048 L 0 2048 L 0 1987.75 L 0 1946.1 L 0 1880 L 0 1759.31 C 2.03392 1750.46 3.10135 1739.97 5.4208 1730.25 C 13.7565 1695.3 28.2716 1670.43 53.3778 1645.07 C 76.4238 1621.94 105.559 1605.83 137.399 1598.6 C 161.117 1592.98 181.354 1594.04 205.516 1594.08 L 266.969 1594.17 L 479.395 1593.95 z" fill="rgb(5,112,79)" transform="translate(0,0)"></path>
<path d="M 479.395 1593.95 C 485.008 1591.93 501.16 1581.33 507.683 1577.93 C 536.23 1563.08 560.293 1554.82 591.938 1550.38 L 595.811 1551.68 C 589.268 1556.39 579.408 1561.98 572.23 1565.93 C 478.239 1617.71 414.061 1712.49 395.478 1817.65 C 388.634 1856.38 389.81 1897.1 389.678 1937.29 L 389.01 2048 L 337.979 2048 L 337.828 2009.91 C 319.97 2010.01 301.544 2010.36 283.734 2009.84 C 297.19 2008.44 323.296 2009.05 337.526 2008.96 L 337.84 1946.56 C 312.869 1946.81 287.897 1946.87 262.926 1946.73 C 249.906 1946.71 231.371 1947.28 218.937 1946.16 C 230.99 1945.46 247.576 1945.95 259.983 1945.94 L 337.979 1945.94 C 338.063 1925.22 338.675 1900.42 337.795 1879.97 C 337.404 1875.66 337.627 1867.44 337.671 1862.96 C 338.458 1778.64 371.353 1697.79 429.659 1636.86 C 438.73 1627.61 448.35 1618.92 458.469 1610.83 C 465.054 1605.6 473.622 1599.86 479.395 1593.95 z" fill="rgb(73,124,168)" transform="translate(0,0)"></path>
<path d="M 0 1987.75 C 4.03944 1996.86 7.90404 2004.82 17.8551 2008.51 C 28.3402 2012.4 159.061 2010.11 180.021 2010.1 C 214.408 2010.07 249.435 2011.39 283.734 2009.84 C 301.544 2010.36 319.97 2010.01 337.828 2009.91 L 337.979 2048 L 0 2048 L 0 1987.75 z" fill="rgb(255,255,255)" transform="translate(0,0)"></path>
<path d="M 218.937 1946.16 C 190.437 1945.32 187.834 1911.64 197.778 1891.57 C 205.629 1875.73 236.715 1879.89 252.923 1879.9 L 337.795 1879.97 C 338.675 1900.42 338.063 1925.22 337.979 1945.94 L 259.983 1945.94 C 247.576 1945.95 230.99 1945.46 218.937 1946.16 z" fill="rgb(255,255,255)" transform="translate(0,0)"></path>
<path d="M 0 1880 L 71.6643 1879.91 C 105.804 1879.9 135.335 1872.92 132.608 1917.58 C 130.41 1953.57 99.4498 1946.22 73.4094 1946.2 L 0 1946.1 L 0 1880 z" fill="rgb(255,255,255)" transform="translate(0,0)"></path>
<path d="M 1050.15 1594.17 L 1247.27 1594.11 C 1281.09 1594.13 1344.1 1591.52 1374.3 1598.99 C 1405.46 1606.75 1433.92 1622.81 1456.67 1645.48 C 1484.61 1673.29 1502.22 1710.37 1507.11 1749 C 1507.55 1752.52 1508.13 1757.79 1509 1761.1 L 1509 1880.17 L 1509 1946.23 L 1509 1984.62 L 1509 2048 L 1171.85 2048 C 1172.03 2035.29 1172.08 2022.58 1172 2009.86 C 1170.57 2002.34 1171.4 1955.88 1171.54 1946.03 C 1170.9 1925.48 1171.71 1900.87 1171.84 1880.01 C 1171.92 1854.43 1171.07 1831.23 1166.59 1805.77 C 1154.49 1737.03 1118.19 1671.64 1067.26 1624.06 C 1055.2 1612.78 1042.99 1604.3 1029.65 1594.86 C 1036.49 1594.81 1043.33 1594.58 1050.15 1594.17 z" fill="rgb(5,112,79)" transform="translate(0,0)"></path>
<path d="M 1172 2009.86 L 1378.03 2010.05 L 1445.37 2010.11 C 1458.07 2010.11 1470.87 2010.43 1483.54 2009.71 C 1499.53 2008.8 1505.2 1998.08 1509 1984.62 L 1509 2048 L 1171.85 2048 C 1172.03 2035.29 1172.08 2022.58 1172 2009.86 z" fill="rgb(255,255,255)" transform="translate(0,0)"></path>
<path d="M 1171.84 1880.01 L 1252.99 1880.02 C 1285.59 1880.05 1322.23 1872.18 1318.55 1916.19 C 1317.53 1928.39 1315.96 1941.51 1300.43 1945.13 C 1286.63 1947.14 1269.31 1946.29 1255.17 1946.26 L 1171.54 1946.03 C 1170.9 1925.48 1171.71 1900.87 1171.84 1880.01 z" fill="rgb(255,255,255)" transform="translate(0,0)"></path>
<path d="M 1509 1946.23 L 1438.21 1946.34 C 1425.54 1946.35 1412.22 1946.62 1399.73 1945.39 C 1374.95 1943.21 1373.73 1901.03 1386.88 1887.03 C 1396.37 1876.93 1424.54 1879.96 1438.42 1879.98 L 1509 1880.17 L 1509 1946.23 z" fill="rgb(255,255,255)" transform="translate(0,0)"></path>
<path d="M 541.822 224.263 C 542.736 223.693 543.363 222.619 543.398 221.535 C 544.67 181.388 543.496 141.127 544.115 100.96 C 544.219 94.1929 545.091 86.9015 546.619 80.3381 C 549.88 65.9883 556.977 52.7936 567.152 42.1629 C 584.356 24.0665 604.9 15.8807 629.538 15.8992 C 686.853 15.9422 744.203 16.062 801.513 16.0099 L 856.179 15.9832 C 865.816 15.9846 875.294 16.105 884.921 16.2909 C 920.442 16.9769 954.016 44.0927 961.44 79.1168 C 965.766 99.526 964.435 123.127 964.437 144.47 L 964.67 223.216 C 964.868 232.939 965.355 235.652 966.908 244.491 C 968.421 253.105 966.381 266.438 967.48 276.176 C 956.504 315.629 930.892 310.636 897.24 310.145 C 880.631 310.004 864.02 310.01 847.411 310.165 C 841.88 325.863 835.892 341.947 832.385 358.195 C 827.001 379.692 816.251 421.549 818.107 443.216 C 813.067 441.912 808.018 440.641 802.96 439.405 L 798.041 438.857 L 789.085 437.65 C 779.842 436.024 771.203 434.38 761.806 433.67 C 759.356 433.704 755.056 433.256 752.464 433.071 C 738.638 432.025 728.588 432.059 714.72 431.93 L 703.349 431.95 L 700.361 432.331 C 698.209 432.051 694.484 432.397 692.206 432.526 C 690.142 412.413 684.901 380.1 677.466 360.185 C 676.849 358.532 675.083 358.712 673.318 358.466 L 676.131 357.906 C 678.246 353.063 665.402 316.274 662.522 310.155 L 608.009 310.353 C 597.59 310.381 586.716 310.612 576.349 309.979 C 535.333 307.477 538.127 254.121 541.822 224.263 z" fill="rgb(255,255,255)" transform="translate(0,0)"></path>
<path d="M 654.275 256.249 L 665.109 256.387 L 843.174 256.29 L 853.96 256.352 C 864.583 256.19 887.741 252.781 886.818 269.372 C 886.599 273.105 884.76 276.556 881.784 278.82 C 876.67 282.724 865.523 281.083 858.691 280.795 C 855.01 290.615 851.25 300.405 847.411 310.165 C 841.88 325.863 835.892 341.947 832.385 358.195 C 827.001 379.692 816.251 421.549 818.107 443.216 C 813.067 441.912 808.018 440.641 802.96 439.405 L 798.041 438.857 L 789.085 437.65 C 779.842 436.024 771.203 434.38 761.806 433.67 C 759.356 433.704 755.056 433.256 752.464 433.071 C 738.638 432.025 728.588 432.059 714.72 431.93 L 703.349 431.95 L 700.361 432.331 C 698.209 432.051 694.484 432.397 692.206 432.526 C 690.142 412.413 684.901 380.1 677.466 360.185 C 676.849 358.532 675.083 358.712 673.318 358.466 L 676.131 357.906 C 678.246 353.063 665.402 316.274 662.522 310.155 C 658.31 301.457 654.022 289.787 650.546 280.705 C 643.483 281.816 635.63 281.566 629.968 276.754 C 624.931 272.474 624.117 266.363 629.022 261.628 C 636.118 254.779 645.294 256.065 654.275 256.249 z" fill="rgb(198,123,85)" transform="translate(0,0)"></path>
<path d="M 654.275 256.249 L 665.109 256.387 L 843.174 256.29 L 853.96 256.352 C 864.583 256.19 887.741 252.781 886.818 269.372 C 886.599 273.105 884.76 276.556 881.784 278.82 C 876.67 282.724 865.523 281.083 858.691 280.795 C 853.299 280.348 847.647 280.71 842.217 280.922 C 833.235 281.071 806.117 281.452 798.007 280.747 C 792.36 280.193 790.685 279.865 785.061 280.898 C 766.887 281.443 740.314 281.517 722.192 280.827 C 713.084 279.331 659.123 279.453 650.546 280.705 C 643.483 281.816 635.63 281.566 629.968 276.754 C 624.931 272.474 624.117 266.363 629.022 261.628 C 636.118 254.779 645.294 256.065 654.275 256.249 z" fill="rgb(222,96,33)" transform="translate(0,0)"></path>
<path d="M 722.192 280.827 C 740.314 281.517 766.887 281.443 785.061 280.898 C 775.59 292.264 765.419 303.029 754.607 313.129 C 743.696 302.574 733.196 290.92 722.192 280.827 z" fill="rgb(255,255,255)" transform="translate(0,0)"></path>
<path d="M 798.007 280.747 C 806.117 281.452 833.235 281.071 842.217 280.922 C 830.361 292.338 818.449 302.25 806.241 313.214 C 799.621 306.458 793.236 299.495 786.568 292.71 C 790.581 288.225 793.726 284.978 798.007 280.747 z" fill="rgb(255,255,255)" transform="translate(0,0)"></path>
<path d="M 761.806 433.67 C 762.291 428.955 774.484 415.014 778.704 409.129 C 784.265 416.098 789.217 421.936 795.104 428.63 C 793.163 431.703 791.282 434.751 789.085 437.65 C 779.842 436.024 771.203 434.38 761.806 433.67 z" fill="rgb(255,255,255)" transform="translate(0,0)"></path>
<path d="M 714.72 431.93 C 718.671 425.167 727.396 415.468 732.808 409.197 C 738.257 415.203 749.156 426.623 752.464 433.071 C 738.638 432.025 728.588 432.059 714.72 431.93 z" fill="rgb(255,255,255)" transform="translate(0,0)"></path>
<path d="M 700.361 432.331 C 700.087 429.721 700.012 426.998 699.574 424.434 C 698.543 418.389 705.412 426.804 705.438 427.981 C 705.462 429.079 703.969 430.971 703.349 431.95 L 700.361 432.331 z" fill="rgb(255,255,255)" transform="translate(0,0)"></path>
<path d="M 798.041 438.857 C 799.314 433.829 801.978 434.746 802.96 439.405 L 798.041 438.857 z" fill="rgb(255,255,255)" transform="translate(0,0)"></path>
<path d="M 666.166 281.119 C 680.924 280.913 695.683 280.851 710.442 280.932 C 714.193 284.747 717.921 288.585 721.627 292.443 C 717.934 297.17 715.803 299.677 711.696 304.076 C 708.657 307.393 706.663 309.449 703.324 312.496 C 690.934 301.846 678.96 291.266 666.166 281.119 z" fill="rgb(255,255,255)" transform="translate(0,0)"></path>
<path d="M 780.271 299.659 C 783.925 301.02 796.653 315.912 799.961 319.644 C 793.464 326.604 786.391 333.623 779.722 340.503 C 777.492 340.652 762.769 323.206 759.974 320.159 C 766.624 313.213 773.391 306.378 780.271 299.659 z" fill="rgb(255,255,255)" transform="translate(0,0)"></path>
<path d="M 727.092 299.474 C 730.812 300.651 745.592 316.143 749.542 320.033 C 744.148 326.612 737.711 333.38 731.744 339.467 C 729.344 339.62 712.48 321.83 709.173 318.524 C 715.514 311.905 720.899 306.304 727.092 299.474 z" fill="rgb(255,255,255)" transform="translate(0,0)"></path>
<path d="M 703.878 325.668 C 706.466 327.403 722.564 344.031 726.294 347.733 C 720.486 354.444 715.618 360.727 709.565 367.347 C 706.376 368.112 690.515 347.682 687.342 344.218 C 693.562 337.898 698.285 332.475 703.878 325.668 z" fill="rgb(255,255,255)" transform="translate(0,0)"></path>
<path d="M 804.893 326.599 C 806.794 327.655 818.17 340.484 821.725 343.746 C 815.832 351.482 807.993 360.818 801.56 368.175 C 795.837 362.522 789.408 354.476 784.172 348.271 C 790.802 340.813 797.947 333.795 804.893 326.599 z" fill="rgb(255,255,255)" transform="translate(0,0)"></path>
<path d="M 753.958 326.732 C 757.906 329.393 769.212 342.633 773.304 347.177 C 767.51 354.032 761.446 360.633 755.723 367.472 C 753.204 367.838 739.009 350.348 736.397 347.47 C 742.168 340.576 748.352 333.643 753.958 326.732 z" fill="rgb(255,255,255)" transform="translate(0,0)"></path>
<path d="M 754.332 381.646 C 757.435 383.3 770.355 398.395 773.568 401.908 C 768.937 408.241 761.888 417.19 756.628 422.946 C 753.664 420.724 741.187 406.421 737.679 402.567 C 743.332 395.626 748.728 388.497 754.332 381.646 z" fill="rgb(255,255,255)" transform="translate(0,0)"></path>
<path d="M 731.602 354.638 C 733.722 356.305 747.023 371.41 749.991 374.751 C 744.341 381.715 738.561 388.572 732.652 395.318 C 728.778 393.261 717.692 379.389 713.767 375.047 C 719.77 368.302 725.53 361.254 731.602 354.638 z" fill="rgb(255,255,255)" transform="translate(0,0)"></path>
<path d="M 777.812 354.629 C 781.177 356.934 793.077 371.068 796.225 374.984 C 790.422 381.552 784.518 388.154 778.814 394.791 C 776.461 394.485 763.369 377.945 760.682 374.851 C 766.484 368.131 772.2 361.506 777.812 354.629 z" fill="rgb(255,255,255)" transform="translate(0,0)"></path>
<path d="M 708.302 382.649 C 711.541 384.192 723.208 398.432 726.739 402.203 C 722.079 408.889 717.666 414.444 712.832 420.911 C 707.282 420.834 698.074 402.052 696.042 396.838 C 700.606 391.951 703.998 387.7 708.302 382.649 z" fill="rgb(255,255,255)" transform="translate(0,0)"></path>
<path d="M 800.823 382.5 C 803.557 383.929 811.058 393.528 814.207 396.899 C 809.842 406.356 804.668 414.3 798.727 422.833 C 794.215 415.755 788.813 409.194 783.956 402.252 C 789.509 395.591 795.228 389.125 800.823 382.5 z" fill="rgb(255,255,255)" transform="translate(0,0)"></path>
<path d="M 843.035 292.851 C 845.596 295.38 829.459 334.166 827.317 339.03 C 825.276 336.764 823.271 334.465 821.303 332.134 C 817.849 328.282 814.927 324.755 811.595 320.832 C 821.743 311.004 832.364 302.078 843.035 292.851 z" fill="rgb(255,255,255)" transform="translate(0,0)"></path>
<path d="M 664.776 292.014 C 672.174 296.116 689.796 312.842 697.722 319.264 C 695.584 322.231 693.123 325.79 690.757 328.512 C 687.9 332.17 685.621 334.982 682.625 338.551 C 679.572 331.561 667.046 299.39 664.776 292.014 z" fill="rgb(255,255,255)" transform="translate(0,0)"></path>
<path d="M 686.186 355.894 C 689.662 358.452 700.115 370.736 703.675 374.769 C 701.596 377.503 700.037 379.47 697.812 382.102 C 696.997 383.178 695.151 386.247 693.532 385.983 C 692.816 385.081 686.799 358.775 686.186 355.894 z" fill="rgb(255,255,255)" transform="translate(0,0)"></path>
<path d="M 823.738 354.814 C 823.954 357.839 816.916 384.557 815.421 385.813 C 814.545 385.639 814.192 385.036 813.709 384.313 L 813.049 383.346 C 810.948 380.624 808.774 378.008 806.709 375.268 C 812.367 368.093 817.622 361.692 823.738 354.814 z" fill="rgb(255,255,255)" transform="translate(0,0)"></path>
<path d="M 809.759 423.038 C 811.071 424.333 810.085 432.427 808.608 434.138 C 803.962 427.621 804.532 429.619 809.759 423.038 z" fill="rgb(255,255,255)" transform="translate(0,0)"></path>
<path d="M 665.211 138.46 L 843.181 138.149 L 843.174 256.29 L 665.109 256.387 L 665.211 138.46 z" fill="rgb(255,255,255)" transform="translate(0,0)"></path>
<path d="M 654.115 127.022 L 853.955 127.068 L 853.96 256.352 L 843.174 256.29 L 843.181 138.149 L 665.211 138.46 L 665.109 256.387 L 654.275 256.249 L 654.115 127.022 z" fill="rgb(31,157,123)" transform="translate(0,0)"></path>
<path d="M 1113.43 992.771 C 1132.8 996.425 1149.96 1007.53 1161.23 1023.69 C 1172.73 1040.28 1177.15 1060.76 1173.51 1080.62 C 1164.82 1127.9 1117.46 1153.53 1073.04 1134.48 C 1072.47 1119.57 1072.96 1101.11 1072.97 1085.95 L 1073.06 996.479 C 1090.47 991.009 1096.75 992.981 1113.43 992.771 z" fill="rgb(254,157,84)" transform="translate(0,0)"></path>
<path d="M 1094.84 1027.16 C 1110.61 1025.66 1121.67 1027.44 1131.46 1041.11 C 1136.44 1048 1138.41 1056.62 1136.91 1065 C 1134.6 1077.6 1122.84 1095.9 1107.61 1091.53 C 1091.75 1073.31 1124.36 1074.44 1118.69 1056.6 C 1115.2 1046.46 1105.4 1045.3 1096.31 1048.77 C 1079.75 1055.11 1070.16 1032.79 1094.84 1027.16 z" fill="rgb(198,123,85)" transform="translate(0,0)"></path>
<path d="M 402.851 991.944 C 406.951 993.193 424.029 993.607 434.137 996.178 C 434.474 1028.24 434.604 1060.31 434.525 1092.37 C 434.616 1109.07 435.407 1129.23 434.848 1145.43 C 434.796 1144.56 434.563 1141.35 434.424 1140.76 C 432.41 1135.99 418.546 1142.03 414.97 1142.41 C 356.234 1148.66 318.192 1086.09 342.362 1034.66 C 349.483 1019.51 365.138 1004.36 380.73 998.268 C 387.622 995.576 395.235 994.624 402.219 992.172 L 402.851 991.944 z" fill="rgb(254,157,84)" transform="translate(0,0)"></path>
<path d="M 406.782 1027.38 C 417.931 1027.8 442.182 1031.55 425.97 1049.16 C 423.13 1052.24 409.586 1047.67 405.341 1046.57 C 397.882 1049.14 388.541 1053.53 390.994 1062.52 C 393.395 1071.33 402.007 1070.85 406.611 1082.28 C 395.37 1109.36 374.175 1077.26 372.968 1064 C 370.801 1040.2 386.241 1029.23 406.782 1027.38 z" fill="rgb(198,123,85)" transform="translate(0,0)"></path>
<path d="M 964.67 223.216 C 970.314 222.156 972.482 224.05 974.473 219.192 C 974.62 219.898 975.064 222.574 975.684 222.656 C 983.972 223.754 996.256 222.497 1004.43 223.794 C 1007.92 225.067 1011.23 226.851 1012.44 230.522 C 1016.03 241.469 1014.31 279.059 1012.52 289.638 C 1011.26 296.853 1009.1 303.879 1006.08 310.552 C 996.76 330.513 979.913 345.967 959.225 353.532 C 935.039 362.299 861.53 357.864 832.385 358.195 C 835.892 341.947 841.88 325.863 847.411 310.165 C 864.02 310.01 880.631 310.004 897.24 310.145 C 930.892 310.636 956.504 315.629 967.48 276.176 C 966.381 266.438 968.421 253.105 966.908 244.491 C 965.355 235.652 964.868 232.939 964.67 223.216 z" fill="rgb(5,112,79)" transform="translate(0,0)"></path>
<path d="M 964.67 223.216 C 970.314 222.156 972.482 224.05 974.473 219.192 C 974.62 219.898 975.064 222.574 975.684 222.656 C 983.972 223.754 996.256 222.497 1004.43 223.794 C 993.74 224.694 979.166 224.08 968.216 223.969 C 968.118 231.709 968.411 272.297 967.48 276.176 C 966.381 266.438 968.421 253.105 966.908 244.491 C 965.355 235.652 964.868 232.939 964.67 223.216 z" fill="rgb(51,144,130)" transform="translate(0,0)"></path>
<path d="M 504.685 223.735 C 514.496 224.457 535.374 223.195 541.822 224.263 C 538.127 254.121 535.333 307.477 576.349 309.979 C 586.716 310.612 597.59 310.381 608.009 310.353 L 662.522 310.155 C 665.402 316.274 678.246 353.063 676.131 357.906 L 673.318 358.466 C 646.423 357.863 577.215 361.655 555.036 355.122 C 533.786 349.048 515.939 334.56 505.628 315.012 C 501.753 307.728 498.964 299.917 497.349 291.827 C 495.016 280.04 495.276 266.674 495.228 254.605 C 495.181 242.973 492.508 229.628 504.685 223.735 z" fill="rgb(5,112,79)" transform="translate(0,0)"></path>
<path d="M 533.446 223.273 C 533.909 181.384 532.177 138.215 533.534 96.4254 C 535.223 69.3506 547.02 45.1129 567.173 27.4679 C 597.277 1.11103 629.531 5.2901 666.542 5.46447 L 744.288 5.55716 L 836.311 5.54067 C 854.194 5.53355 872.516 4.73471 890.349 6.17055 C 914.478 8.11328 935.901 18.8767 951.523 37.5791 C 960.483 48.3063 968.29 61.6991 971.736 75.3277 C 977.093 96.5169 976.74 194.831 974.473 219.192 C 972.482 224.05 970.314 222.156 964.67 223.216 L 964.437 144.47 C 964.435 123.127 965.766 99.526 961.44 79.1168 C 954.016 44.0927 920.442 16.9769 884.921 16.2909 C 875.294 16.105 865.816 15.9846 856.179 15.9832 L 801.513 16.0099 C 744.203 16.062 686.853 15.9422 629.538 15.8992 C 604.9 15.8807 584.356 24.0665 567.152 42.1629 C 556.977 52.7936 549.88 65.9883 546.619 80.3381 C 545.091 86.9015 544.219 94.1929 544.115 100.96 C 543.496 141.127 544.67 181.388 543.398 221.535 C 543.363 222.619 542.736 223.693 541.822 224.263 C 535.374 223.195 514.496 224.457 504.685 223.735 C 511.538 222.644 525.85 223.174 533.446 223.273 z" fill="rgb(31,157,123)" transform="translate(0,0)"></path>
<metadata><recraft-signature>{"signed_by": "recraft", "signature_b64": "uIWSe511pP1L747W8v/0pY0YVlgujhkzb2tLkCQBWN+4l1sObRn7YDmn1Rv4JxOHGxcx2V/0n7xZ3OpRW4HZBA==", "signing_algo": "Ed25519", "generation_timestamp": 1779091739, "identifier": "1be294e1-e419-4772-a07c-b759ee758f63"}</recraft-signature></metadata></svg>