<svg xmlns="http://www.w3.org/2000/svg" height="1280" preserveAspectRatio="none" style="display: block;" version="1.1" viewBox="0 0 1331 2048" width="832">
<path d="M 0 0 L 1331 0 L 1331 2048 L 0 2048 L 0 0 z" fill="rgb(255,255,255)" transform="translate(0,0)"></path>
<path d="M 1173.86 72.1683 C 1173.66 61.8938 1171.67 44.5022 1179.61 36.9486 C 1191.26 25.8687 1213.51 26.6763 1224.85 37.8242 C 1233.08 45.9185 1230.99 61.2057 1230.89 72.1761 L 1276.05 72.1118 L 1276.13 125.036 L 1230.98 124.86 L 1230.8 617.848 L 1230.75 772.098 C 1230.72 798.421 1230.7 824.636 1230.43 850.955 C 1230.17 875.905 1194.31 879.436 1180.49 865.971 C 1176.6 862.168 1174.22 857.077 1173.81 851.65 C 1173.44 846.335 1173.99 836.582 1174 830.722 L 1174.03 782.396 L 1173.96 630.891 L 1173.86 125.082 L 1043 124.99 C 1042.42 136.645 1042.44 139.703 1032.05 146.172 C 1031.24 250.617 1031.13 355.066 1031.7 459.513 C 1033.9 461.515 1035.88 463.898 1037.86 466.134 C 1039.02 474.681 1038.39 499.958 1038.63 510.129 C 1044.74 520.035 1078.47 570.5 1085.03 573.745 C 1086.23 574.339 1087.35 574.952 1088.35 575.864 C 1090.33 577.676 1091.12 580.722 1091.28 583.313 C 1091.49 586.793 1090.48 590.52 1088.06 593.1 C 1086.09 595.188 1083.53 595.814 1080.8 596.175 C 1069.56 597.659 1056.93 596.507 1045.55 596.387 C 1024.74 596.142 1003.93 596.016 983.122 596.009 L 983.254 1589.67 C 985.293 1593.07 987.446 1596.49 989.534 1599.87 L 989.848 1600.74 C 1029.58 1671.39 1020.85 1723.76 1021.14 1802.04 C 1021.24 1826.89 1022.61 1855.96 1021.02 1880.34 C 1021.32 1890.73 1022.41 1893.06 1015.23 1901.96 C 1003.34 1916.7 954.901 1914.24 950.849 1894.03 C 949.923 1885.57 950.204 1843.62 950.914 1834.57 C 950.091 1818.04 950.679 1797.03 950.704 1780.17 C 911.882 1741.77 852.465 1743.21 810.31 1775.9 C 809.739 1795.92 803.593 1802.3 787.706 1812.92 C 787.717 1817.48 787.416 1821.93 787.156 1826.48 C 787.202 1828.82 787.397 1832.65 787.179 1834.85 C 787.528 1844.64 786.23 1869.7 788.205 1877.4 C 791.491 1881.58 798.749 1879.83 802.01 1883.73 C 807.79 1890.63 813.808 1898.52 819.54 1905.32 C 833.793 1922.23 846.833 1927.62 865.671 1937.16 C 874.074 1941.42 883.333 1953.22 884.773 1962.88 C 886.125 1971.95 887.995 1997.77 882.681 2006 C 877.49 2014.05 864.374 2016.48 855.49 2018.15 C 848.164 2019.53 824.441 2020.41 817.462 2017.85 C 780.504 2004 739.4 1987.9 704.863 1969.2 C 692.96 1962.75 701.391 1892.97 712.027 1880.17 L 711.9 1829.23 L 712.101 1822.14 C 706.826 1817.89 694.369 1818.21 686.943 1810.76 C 677.277 1801.05 677.518 1778.25 677.381 1765.13 L 654.078 1765.29 C 654.155 1776.5 653.563 1794.18 648.653 1804.28 C 643.671 1814.53 633.51 1816.95 623.66 1820.17 C 624.863 1837.69 624.142 1862.24 624.112 1880.33 C 635.792 1896.9 641.369 1953.28 630.564 1970.31 C 614.668 1979.05 532.957 2015.28 517.455 2018.23 C 501.033 2021.34 484.02 2019.78 468.033 2015.14 C 462.312 2013.47 456.584 2011.11 453.759 2005.45 C 449.188 1996.28 451.141 1964.98 454.767 1955.67 C 463.153 1934.16 489.12 1931.12 504.936 1916.75 C 514.369 1908.18 529.986 1884.9 539.923 1880.88 C 541.87 1880.09 543.937 1880.1 545.992 1879.91 C 546.767 1879.84 547.55 1879.7 548.32 1879.58 L 548.147 1817.36 C 527.88 1806.47 524.428 1799.36 520.629 1777.59 C 476.883 1743.35 423.683 1741.01 380.234 1777.63 L 380.235 1882.88 L 379.941 1896.2 C 364.021 1918.17 312.979 1915.35 309.855 1893.41 C 308.911 1886.78 309.388 1871.35 309.425 1864.04 C 309.549 1846.49 309.579 1828.95 309.514 1811.41 L 309.287 1737.46 C 309.278 1673.1 314.062 1643.39 349.747 1588 C 348.878 1556.48 349.861 1520.14 349.873 1488.08 L 349.921 1280.46 L 349.802 596.154 L 285.395 596.38 C 278.081 596.403 250.469 597.758 245.369 594.118 C 242.688 592.171 240.881 589.248 240.34 585.98 C 239.798 582.826 240.494 578.406 242.39 575.884 C 244.423 573.182 249.156 573.5 251.619 570.041 C 266.086 549.723 280.569 529.399 294.434 508.68 C 293.984 496.617 292.38 477.743 295.37 466.305 C 295.806 464.636 298.965 460.974 300.242 459.494 L 300.734 145.982 C 289.875 140.062 290.054 136.263 289.684 124.909 L 156.293 124.955 L 156.357 620.634 L 156.378 773.963 C 156.373 800.445 157.156 832.689 155.899 858.621 C 141.683 880.699 100.772 878.388 100.223 850.577 C 99.7228 825.24 100.157 799.218 100.157 773.788 L 100.121 615.596 L 100.088 124.896 L 54.901 125.005 L 54.9114 72.1987 L 100.172 72.1553 C 100.015 60.7958 97.8537 45.2729 106.162 37.5275 C 111.86 32.0176 120.512 28.5996 128.63 29.0489 C 159.569 30.7615 156.961 49.8062 156.583 72.0849 L 288.931 71.8722 C 293.848 48.3262 318.797 48.4952 323.381 72.1822 C 382.623 71.4447 443.327 72.0832 502.683 72.0612 C 506.746 48.7389 533.041 48.1435 536.409 72.1316 L 791.252 72.0657 C 793.14 63.5536 796.525 56.6123 806.117 54.9784 C 810.139 54.3018 814.262 55.2936 817.536 57.7251 C 823.116 61.8186 823.906 65.977 825.087 72.1509 L 1009.54 72.108 C 1012.67 48.9925 1038.49 48.534 1043.2 72.096 L 1173.86 72.1683 z" fill="rgb(29,23,21)" transform="translate(0,0)"></path>
<path d="M 558.423 1482.04 L 770.851 1481.83 C 774.31 1497.13 782.287 1517.88 783.872 1533.25 C 787.434 1567.79 783.985 1605.8 788.326 1640.31 C 794.079 1686.04 810.02 1740.88 806.527 1787.04 C 805.73 1797.58 794.009 1805.73 785.935 1811.25 C 787.233 1817.01 786.388 1821.15 787.156 1826.48 C 787.202 1828.82 787.397 1832.65 787.179 1834.85 C 787.528 1844.64 786.23 1869.7 788.205 1877.4 C 791.491 1881.58 798.749 1879.83 802.01 1883.73 C 807.79 1890.63 813.808 1898.52 819.54 1905.32 C 833.793 1922.23 846.833 1927.62 865.671 1937.16 C 874.074 1941.42 883.333 1953.22 884.773 1962.88 C 886.125 1971.95 887.995 1997.77 882.681 2006 C 877.49 2014.05 864.374 2016.48 855.49 2018.15 C 848.164 2019.53 824.441 2020.41 817.462 2017.85 C 780.504 2004 739.4 1987.9 704.863 1969.2 C 692.96 1962.75 701.391 1892.97 712.027 1880.17 L 711.9 1829.23 L 712.101 1822.14 C 706.826 1817.89 694.369 1818.21 686.943 1810.76 C 677.277 1801.05 677.518 1778.25 677.381 1765.13 L 654.078 1765.29 C 654.155 1776.5 653.563 1794.18 648.653 1804.28 C 643.671 1814.53 633.51 1816.95 623.66 1820.17 C 622.896 1824.15 623.479 1827.9 621.847 1829.86 C 599.241 1840.43 576.767 1845.75 551.878 1839.14 C 550.327 1838.79 550.913 1839 549.606 1837.94 C 548.982 1832.65 548.834 1820.54 549.922 1815.41 C 524.961 1801.35 522.457 1791.7 523.945 1763.6 C 526.776 1710.14 538.718 1657.71 541.673 1604.17 C 543.959 1562.75 550.412 1522.64 558.423 1482.04 z" fill="rgb(226,213,206)" transform="translate(0,0)"></path>
<path d="M 660.89 1571.69 C 671.145 1567.15 678.125 1559.44 687.897 1554.7 L 688.233 1555.39 C 683.142 1560.68 676.706 1565.03 670.703 1569.28 C 676.92 1611.95 678.147 1661.03 681.113 1704.42 C 683.398 1737.87 675.514 1777.39 685.994 1808.35 C 696.105 1813.66 702.064 1815.94 713.44 1818.76 C 741.912 1824.68 759.366 1822.74 785.935 1811.25 C 787.233 1817.01 786.388 1821.15 787.156 1826.48 C 787.202 1828.82 787.397 1832.65 787.179 1834.85 C 787.528 1844.64 786.23 1869.7 788.205 1877.4 C 791.491 1881.58 798.749 1879.83 802.01 1883.73 C 807.79 1890.63 813.808 1898.52 819.54 1905.32 C 833.793 1922.23 846.833 1927.62 865.671 1937.16 C 874.074 1941.42 883.333 1953.22 884.773 1962.88 C 886.125 1971.95 887.995 1997.77 882.681 2006 C 877.49 2014.05 864.374 2016.48 855.49 2018.15 C 848.164 2019.53 824.441 2020.41 817.462 2017.85 C 780.504 2004 739.4 1987.9 704.863 1969.2 C 692.96 1962.75 701.391 1892.97 712.027 1880.17 L 711.9 1829.23 L 712.101 1822.14 C 706.826 1817.89 694.369 1818.21 686.943 1810.76 C 677.277 1801.05 677.518 1778.25 677.381 1765.13 L 654.078 1765.29 C 654.155 1776.5 653.563 1794.18 648.653 1804.28 C 643.671 1814.53 633.51 1816.95 623.66 1820.17 C 622.896 1824.15 623.479 1827.9 621.847 1829.86 C 599.241 1840.43 576.767 1845.75 551.878 1839.14 C 550.327 1838.79 550.913 1839 549.606 1837.94 C 548.982 1832.65 548.834 1820.54 549.922 1815.41 C 575.283 1824.19 597.229 1824.52 623.102 1817.78 C 632.388 1815.01 637.209 1813.48 645.05 1807.61 C 659.314 1768.4 642.973 1719.74 653.771 1677.38 C 661.917 1645.42 659.14 1605.02 660.89 1571.69 z" fill="rgb(5,4,3)" transform="translate(0,0)"></path>
<path d="M 760.559 1915.09 C 759.716 1904.19 762.526 1893.96 771.704 1887.63 C 788.676 1875.91 798.514 1882 808.635 1896.08 C 809.231 1896.47 809.173 1896.59 809.511 1897.27 C 818.72 1909.41 832.328 1922.5 845.668 1929.69 C 859.742 1937.28 873.239 1940.75 879.951 1956.97 C 883.719 1966.07 883.293 1972.6 883.277 1982.21 C 865.49 1993.18 841.306 1998.14 820.628 1993.89 C 805.719 1990.83 786.565 1980.89 772.317 1974.43 L 701.9 1942.24 C 703.04 1921.1 703.043 1901.9 712.633 1882.69 C 728.982 1901.08 738.561 1905.71 760.559 1915.09 z" fill="rgb(194,142,114)" transform="translate(0,0)"></path>
<path d="M 702.061 1945.07 C 706.364 1946.57 719.536 1953.2 724.353 1955.44 L 777.51 1979.7 C 815.718 1997.05 842.061 2008.4 883.056 1985.62 C 883.103 1991.65 883.451 1997.44 881.946 2003.28 C 881.491 2003.89 881.052 2004.45 880.53 2005.01 C 871.439 2014.8 853.112 2016.56 840.348 2016.94 C 832.367 2017.17 823.615 2016.92 815.92 2014.78 C 801.926 2010.89 713.541 1974.26 705.885 1966.37 C 700.893 1961.22 702.04 1951.72 702.061 1945.07 z" fill="rgb(194,142,114)" transform="translate(0,0)"></path>
<path d="M 667.485 1570.74 C 672.761 1576.67 678.467 1705.72 678.996 1724.72 L 663.703 1724.24 L 652.154 1724.76 C 651.842 1695.14 658.252 1673.47 661.361 1645.43 C 663.538 1625.79 661.24 1598.36 663.136 1577.83 C 663.566 1573.18 663.954 1573.88 667.485 1570.74 z" fill="rgb(239,165,33)" transform="translate(0,0)"></path>
<path d="M 783.358 1867.17 L 783.922 1867.48 C 785.328 1870.53 784.728 1875.99 784.614 1879.64 C 766.907 1885.17 759.018 1891.73 757.382 1910.54 C 745.24 1906.55 737.868 1901.76 727.949 1894.32 C 722.747 1889.78 718.945 1885.62 714.276 1880.59 C 714.309 1876.21 714.533 1871.56 714.668 1867.16 C 737.911 1876.27 760.194 1876.44 783.358 1867.17 z" fill="rgb(226,213,206)" transform="translate(0,0)"></path>
<path d="M 714.116 1830.18 C 745.144 1838.23 748.243 1842.65 784.42 1836.27 C 784.953 1839.08 784.799 1847.91 784.815 1851.2 C 783.043 1852.16 781.235 1853.06 779.395 1853.88 C 756.462 1863.98 736.789 1861.44 714.417 1852.65 L 714.116 1830.18 z" fill="rgb(226,213,206)" transform="translate(0,0)"></path>
<path d="M 652.129 1727.2 C 661.063 1727.09 669.998 1727.05 678.933 1727.09 C 679.109 1739.9 678.117 1750.42 677.783 1763.01 L 654.009 1763.08 C 653.184 1751.08 652.044 1739.23 652.129 1727.2 z" fill="rgb(239,165,33)" transform="translate(0,0)"></path>
<path d="M 783.118 1855.01 L 784.165 1855.71 C 785.342 1860.27 784.553 1864.03 779.648 1865.95 C 758.536 1874.22 736.853 1871.21 715.648 1865.14 C 714.261 1862.89 714.521 1859.36 715.197 1856.87 C 717.818 1856.33 725.794 1859.15 728.921 1860.02 C 747.522 1865.19 765.736 1863.08 783.118 1855.01 z" fill="rgb(226,213,206)" transform="translate(0,0)"></path>
<path d="M 952.88 1782.35 C 953.388 1768.77 952.642 1754.07 953.132 1740.6 C 954.819 1694.24 950.214 1655.16 926.797 1614.05 C 919.402 1601.07 907.165 1590.75 898.333 1579 C 895.064 1574.64 894.728 1568.74 895.848 1563.43 C 897.296 1556.65 901.418 1550.74 907.28 1547.04 C 938.4 1527.1 973.155 1578.07 986.944 1600.39 L 989.534 1599.87 L 989.848 1600.74 C 1029.58 1671.39 1020.85 1723.76 1021.14 1802.04 C 1021.24 1826.89 1022.61 1855.96 1021.02 1880.34 C 1021.32 1890.73 1022.41 1893.06 1015.23 1901.96 C 1003.34 1916.7 954.901 1914.24 950.849 1894.03 C 949.923 1885.57 950.204 1843.62 950.914 1834.57 C 953.465 1825.19 950.969 1794.48 952.88 1782.35 z" fill="rgb(231,107,66)" transform="translate(0,0)"></path>
<path d="M 1019.02 1884.85 L 1021.02 1880.34 C 1021.32 1890.73 1022.41 1893.06 1015.23 1901.96 C 1003.34 1916.7 954.901 1914.24 950.849 1894.03 L 951.45 1884.99 L 952.481 1884.3 C 972.22 1902.48 999.215 1903.77 1019.02 1884.85 z" fill="rgb(5,4,3)" transform="translate(0,0)"></path>
<path d="M 989.848 1600.74 C 1029.58 1671.39 1020.85 1723.76 1021.14 1802.04 C 1021.24 1826.89 1022.61 1855.96 1021.02 1880.34 L 1019.02 1884.85 C 1018.42 1870.69 1018.92 1853.19 1018.93 1838.62 L 1018.86 1749.86 C 1018.71 1688.16 1019.3 1657.97 988.482 1602.82 L 989.848 1600.74 z" fill="rgb(29,23,21)" transform="translate(0,0)"></path>
<path d="M 952.88 1782.35 C 953.755 1804.58 952.709 1828.44 953.032 1850.89 C 953.096 1855.32 953.168 1880.77 952.481 1884.3 L 951.45 1884.99 L 950.849 1894.03 C 949.923 1885.57 950.204 1843.62 950.914 1834.57 C 953.465 1825.19 950.969 1794.48 952.88 1782.35 z" fill="rgb(83,56,50)" transform="translate(0,0)"></path>
<path d="M 989.534 1599.87 L 989.848 1600.74 L 988.482 1602.82 C 987.573 1601.77 987.568 1601.66 986.944 1600.39 L 989.534 1599.87 z" fill="rgb(83,56,50)" transform="translate(0,0)"></path>
<path d="M 311.961 1699.98 C 317.352 1642.46 340.25 1593.89 382.794 1553.29 C 400.627 1536.26 437.008 1538.18 436.772 1571.27 C 436.715 1579.24 414.461 1598.85 410.341 1606.85 C 404.602 1615.93 396.944 1627.31 393.356 1637.42 C 387.848 1652.95 380.342 1675.26 379.282 1691.85 C 375.649 1748.7 378.915 1806.22 377.895 1863.21 C 377.813 1867.8 377.523 1878.91 378.722 1882.63 L 380.235 1882.88 L 379.941 1896.2 C 364.021 1918.17 312.979 1915.35 309.855 1893.41 L 310.914 1884.76 C 309.537 1858.17 311.142 1819.43 310.761 1791.56 C 310.446 1768.47 309.46 1720.58 311.961 1699.98 z" fill="rgb(231,107,66)" transform="translate(0,0)"></path>
<path d="M 378.722 1882.63 L 380.235 1882.88 L 379.941 1896.2 C 364.021 1918.17 312.979 1915.35 309.855 1893.41 L 310.914 1884.76 L 311.875 1885.12 C 328.489 1901.8 367.2 1903.77 378.722 1882.63 z" fill="rgb(5,4,3)" transform="translate(0,0)"></path>
<path d="M 311.961 1699.98 L 312.012 1819.59 C 312.006 1840.4 312.561 1864.49 311.875 1885.12 L 310.914 1884.76 C 309.537 1858.17 311.142 1819.43 310.761 1791.56 C 310.446 1768.47 309.46 1720.58 311.961 1699.98 z" fill="rgb(83,56,50)" transform="translate(0,0)"></path>
<path d="M 621.847 1829.86 C 620.987 1837.06 621.35 1844.83 621.463 1852.12 C 599.98 1861.81 579.816 1862.64 557.412 1854.31 C 555.171 1853.46 552.962 1852.52 550.788 1851.51 C 550.754 1847.51 550.28 1842.56 551.878 1839.14 C 576.767 1845.75 599.241 1840.43 621.847 1829.86 z" fill="rgb(226,213,206)" transform="translate(0,0)"></path>
<path d="M 536.417 125.022 L 791.155 124.785 C 791.236 137.211 792.888 140.409 803.095 146.754 L 803.173 459.716 C 801.085 461.809 799.057 464.524 797.193 466.861 C 796.689 480.018 797.013 495.724 796.986 509.08 C 786.023 527.077 772.042 544.439 759.889 562.2 C 752.95 572.343 728.004 591.988 757.788 595.966 C 766.741 597.162 778.254 596.439 787.435 596.413 L 843.639 596.174 L 843.856 688.628 C 843.913 704.017 844.782 723.28 842.628 738.309 C 841.705 744.75 835.779 752.476 831.456 757.268 C 829.255 719.593 824.446 681.14 822.434 643.434 C 821.05 617.481 795.288 609.639 779.203 626.615 C 770.548 635.749 776.201 675.972 778.096 688.287 L 767.393 694.368 C 693.946 732.074 625.895 730.966 555.01 688.504 C 556.621 674.448 558.019 660.01 558.63 645.927 C 559.701 621.256 538.844 609.615 518.837 623.641 C 515.908 625.975 512.669 630.926 512.169 634.72 C 506.9 674.692 504.994 718.059 501.091 757.997 C 497.057 753.657 489.551 744.102 488.845 738.327 C 487.207 724.919 488.023 707.27 488.044 693.628 L 488.158 596.174 C 503.879 596.225 570.639 599.253 580.068 592.755 C 581.824 591.546 583.218 589.828 583.577 587.684 C 584.121 584.438 582.65 580.995 580.994 578.268 C 577.347 572.266 571.838 567.163 567.7 561.438 C 555.247 544.21 543.106 526.74 530.882 509.35 C 531.704 495.37 535.604 471.668 525.987 460.645 L 525.911 146.056 C 535.744 139.892 536.356 135.844 536.417 125.022 z" fill="rgb(255,255,255)" transform="translate(0,0)"></path>
<path d="M 831.77 760.658 C 836.065 755.675 843.555 746.71 844.394 740.455 C 847.227 719.346 845.993 692.482 845.943 670.96 L 845.909 532.67 C 845.893 513.778 844.665 479.369 846.199 461.879 C 848.007 443.268 857.177 426.151 871.669 414.335 C 885.341 403.274 902.884 398.171 920.356 400.172 C 940.448 402.273 954.512 411.679 966.944 427.136 L 969.84 426.952 C 970.612 428.152 971.242 429.213 971.949 430.449 L 969.678 430.962 C 984.552 455.098 981.028 473.805 981.037 501.058 L 981.002 572.145 L 980.875 794.508 L 980.898 1305.4 C 980.883 1398.61 979.929 1493.36 981.106 1586.41 C 977.119 1581.42 954.544 1555.48 953.06 1552.93 C 945.578 1540.08 929.347 1490.54 927.947 1477.03 C 926.413 1469.36 926.847 1447.99 926.833 1439.35 L 926.761 1371.62 L 926.743 1317.7 C 926.743 1310.43 926.351 1293.57 927.592 1287.06 C 939.251 1275.1 939.558 1265 927.457 1252.71 C 926.019 1248.06 926.54 1053.53 927.657 1050.49 C 938.831 1039.85 937.794 1027.56 927.445 1016.98 C 926.306 1013.25 925.148 616.031 927.701 600.73 C 935.707 586.063 941.387 581.632 927.86 565.895 C 927.88 534.638 929.211 501.346 926.173 470.562 C 924.848 457.142 897.283 454.485 895.289 471.112 C 893.177 488.716 894.612 508.134 894.59 525.875 C 894.255 571.791 894.151 617.708 894.278 663.625 C 894.287 671.992 894.201 680.655 894.303 689.001 C 894.99 745.153 899.616 792.093 836.202 816.101 C 834.999 797.852 833.212 778.942 831.77 760.658 z" fill="rgb(231,107,66)" transform="translate(0,0)"></path>
<path d="M 927.701 600.73 C 929.092 627.072 927.675 665.977 927.624 693.407 L 927.829 866.387 L 927.846 973.18 C 927.841 980.295 928.435 1011.42 927.445 1016.98 C 926.306 1013.25 925.148 616.031 927.701 600.73 z" fill="rgb(123,55,36)" transform="translate(0,0)"></path>
<path d="M 927.657 1050.49 C 928.956 1095.16 927.306 1142.34 928.023 1187.27 C 928.155 1195.55 928.463 1246.98 927.457 1252.71 C 926.019 1248.06 926.54 1053.53 927.657 1050.49 z" fill="rgb(123,55,36)" transform="translate(0,0)"></path>
<path d="M 927.947 1477.03 C 926.413 1469.36 926.847 1447.99 926.833 1439.35 L 926.761 1371.62 L 926.743 1317.7 C 926.743 1310.43 926.351 1293.57 927.592 1287.06 C 931.128 1340.22 925.773 1398.57 928.02 1452.24 C 928.327 1459.57 928.325 1469.74 927.947 1477.03 z" fill="rgb(123,55,36)" transform="translate(0,0)"></path>
<path d="M 969.84 426.952 C 970.612 428.152 971.242 429.213 971.949 430.449 L 969.678 430.962 L 969.007 430.093 L 969.84 426.952 z" fill="rgb(29,23,21)" transform="translate(0,0)"></path>
<path d="M 969.84 426.952 L 969.007 430.093 C 968.278 429.079 967.635 428.179 966.944 427.136 L 969.84 426.952 z" fill="rgb(83,56,50)" transform="translate(0,0)"></path>
<path d="M 351.865 1585.58 L 352.322 796.239 L 352.408 579.982 C 352.07 553.633 351.917 527.281 351.951 500.929 C 351.943 487.901 350.987 472.429 352.554 459.702 C 361.839 384.281 466.666 379.334 484.216 451.534 C 488.563 469.418 485.929 512.447 485.878 533.013 L 486.101 677.345 C 486.157 694.967 485.646 712.586 485.649 730.202 C 485.651 743.718 491.647 751.612 501.184 760.632 C 498.86 775.034 497.53 801.074 496.361 816.322 C 424.378 792.146 436.998 722.975 437.153 662.351 L 437.157 531.404 C 437.07 512.801 437.438 494.269 436.942 475.651 C 436.393 455.079 407.383 453.646 404.885 473.004 C 403.732 481.941 404.564 494.894 404.601 504.205 C 404.758 525.323 404.706 546.443 404.443 567.561 C 396.175 578.481 396.253 586.801 403.978 597.834 L 404.126 1017.3 L 403.697 1017.89 C 394.999 1030.04 393.18 1037.7 404.057 1049.77 L 404.106 1253.82 C 401.806 1256.74 400.681 1257.99 398.713 1261.2 C 391.444 1273.05 402.212 1279.91 404.371 1288.46 C 405.554 1296.81 405.182 1312.65 405.197 1321.5 L 405.228 1377.37 L 405.197 1440.51 C 405.183 1450.63 405.535 1468.69 404.345 1478.23 C 399.622 1495.08 387.68 1537.63 379.349 1551.42 C 377.218 1554.95 357.826 1576.96 351.865 1585.58 z" fill="rgb(231,107,66)" transform="translate(0,0)"></path>
<path d="M 404.371 1288.46 C 405.554 1296.81 405.182 1312.65 405.197 1321.5 L 405.228 1377.37 L 405.197 1440.51 C 405.183 1450.63 405.535 1468.69 404.345 1478.23 C 403.538 1472.28 403.984 1457.64 404.053 1450.99 L 404.519 1400.98 C 404.659 1366.32 402.606 1322.15 404.371 1288.46 z" fill="rgb(123,55,36)" transform="translate(0,0)"></path>
<path d="M 721.141 1189.33 C 737.972 1195.53 755.38 1200.98 772.166 1207.35 C 781.309 1210.82 787.426 1218.56 793.884 1225.08 C 821.189 1252.66 827.964 1285.33 842.408 1320.74 C 820.938 1326.3 799.906 1332.67 778.547 1338.59 C 774.523 1321.03 769.658 1280.32 763.899 1265.88 L 763.349 1266.06 C 766.682 1294.75 774.266 1332.21 779.576 1361.38 C 786.097 1397.22 792.009 1444.74 801.056 1478.99 L 580.75 1479.35 L 531.769 1479.14 C 546 1415.86 552.76 1347.66 566.221 1283.97 C 567.234 1279.18 568.088 1273.67 566.832 1268.87 C 565.181 1270.33 554.079 1337.14 552.948 1344.02 C 531.215 1337.32 508.157 1331.4 486.868 1324.25 C 495.212 1304.78 501.849 1284.38 510.518 1264.98 C 517.685 1249.43 529.32 1236.35 540.721 1223.79 C 556.961 1205.9 588.649 1198.22 611.506 1190.03 C 627.886 1204.59 641.471 1215.63 665.027 1215.94 C 688.373 1216.26 705.191 1204.99 721.141 1189.33 z" fill="rgb(233,130,119)" transform="translate(0,0)"></path>
<path d="M 601.046 1441.2 C 606.545 1441.83 614.129 1443.62 620.079 1444.47 C 633.597 1446.46 647.248 1447.4 660.911 1447.3 C 668.507 1447.32 676.099 1446.99 683.664 1446.31 C 688.098 1445.9 701.362 1443.69 704.033 1444.11 L 704.393 1445.73 C 687.763 1449.83 608.412 1453.61 601.046 1441.2 z" fill="rgb(29,23,21)" transform="translate(0,0)"></path>
<path d="M 824.975 125.045 L 1009.75 124.964 C 1009.88 137.351 1010.41 139.3 1020.7 146.328 L 1020.54 459.412 C 1015.16 463.769 1013.46 465.704 1012.92 473.166 C 1012.12 484.511 1013.05 496.873 1013.13 508.324 C 1003.66 523.417 993.218 537.799 983.076 552.447 L 983.247 494.396 C 983.29 471.507 985.511 450.496 971.949 430.449 C 971.242 429.213 970.612 428.152 969.84 426.952 C 956.398 410.51 942.27 399.963 920.236 397.712 C 902.293 395.883 884.355 401.21 870.319 412.535 C 855.111 424.868 845.577 442.859 843.912 462.368 C 842.06 482.318 843.323 519.829 843.515 540.999 C 836.568 531.211 828.224 519.807 821.983 509.725 C 822.094 501.508 822.332 493.258 822.349 485.044 C 822.369 474.702 823.472 465.697 813.89 459.441 L 813.51 146.139 C 823.432 139.549 824.318 136.771 824.975 125.045 z" fill="rgb(255,255,255)" transform="translate(0,0)"></path>
<path d="M 323.118 124.944 L 503.217 125.002 C 503.391 136.561 504.576 140.377 515.25 145.815 L 514.861 459.393 C 511.72 461.137 508.112 463.502 507.389 467.178 C 504.924 479.7 506.259 495.482 506.573 508.281 C 501.398 517.118 494.573 528.984 488.194 536.713 L 488.371 490.217 C 488.461 458.46 490.144 440.836 465.86 416.05 C 438.767 391.293 396.704 390.636 370.639 417.106 C 361.666 426.348 355.264 437.774 352.065 450.252 C 348.269 465.453 349.707 532.989 349.744 553.18 C 339.873 539.208 328.182 523.223 319.405 508.739 C 319.568 496.529 320.413 482.642 319.08 470.61 C 318.363 464.139 315.955 462.33 311.122 458.814 C 311.875 354.648 311.919 250.478 311.254 146.311 C 321.999 141.112 323.109 135.995 323.118 124.944 z" fill="rgb(255,255,255)" transform="translate(0,0)"></path>
<path d="M 777.83 690.877 C 779.269 699.7 780.051 714.7 780.826 724.151 L 786.07 786.632 L 804.26 984.771 C 791.503 967.526 782.871 962.002 760.996 961.914 C 763.163 951.067 763.589 946.53 762.39 935.564 C 751.057 895.32 707.776 881.033 677.471 911.79 C 674.606 907.494 671.307 903.007 667.521 899.491 C 656.592 889.188 641.92 883.811 626.921 884.613 C 612.802 885.237 599.526 891.508 590.076 902.017 C 576.576 917.074 575.159 931.966 576.096 950.934 C 573.319 950.701 570.538 950.53 567.754 950.42 C 550.684 949.912 541.639 955.83 529.917 966.745 L 555.245 691.441 C 626.888 734.275 706.281 735.396 777.83 690.877 z" fill="rgb(239,165,33)" transform="translate(0,0)"></path>
<path d="M 1200.05 31.2578 C 1213.74 31.9621 1220.02 34.1321 1227.88 45.5709 C 1229.86 82.3697 1228.3 131.148 1228.3 168.787 L 1228.39 400.322 L 1228.35 698.283 C 1228.34 749.619 1229.6 807.147 1227.92 858.083 C 1221.69 867.302 1217.24 868.585 1206.54 871.01 C 1203.41 871.033 1199.79 871.214 1196.75 870.62 C 1180.8 867.502 1176.17 861.763 1176.25 845.771 C 1176.32 831.836 1176.23 817.949 1176.24 804.17 L 1176.3 700.143 L 1176.31 217.79 C 1176.31 198.176 1173.93 49.0083 1177.82 43.2998 C 1183.3 35.2478 1190.83 32.8329 1200.05 31.2578 z" fill="rgb(226,213,206)" transform="translate(0,0)"></path>
<path d="M 127.2 31.4085 C 140.544 31.9743 153.612 36.0762 153.882 51.7367 C 154.129 66.1083 154.108 80.3992 154.1 94.7678 L 154.154 170.397 L 154.286 406.841 L 154.25 701.571 C 154.238 751.516 155.552 808.34 153.909 857.748 C 146.964 867.452 143.407 868.573 131.669 871.038 C 123.391 871.147 113.301 869.777 107.168 863.571 C 104.325 860.694 102.628 856.036 102.609 852.009 C 102.54 837.062 102.664 822.011 102.707 807.069 L 102.702 724.771 L 102.764 437.689 L 102.611 187.856 C 102.535 143.991 100.841 87.5529 103.096 45.112 C 103.556 44.417 104.039 43.7378 104.545 43.0757 C 110.949 34.7272 117.112 32.627 127.2 31.4085 z" fill="rgb(226,213,206)" transform="translate(0,0)"></path>
<path d="M 776.251 636.943 C 779.571 629.286 782.086 624.9 790.438 621.666 C 796.136 619.406 802.51 619.569 808.086 622.116 C 812.279 624.058 817.819 629.831 818.48 633.957 C 822.051 656.239 823.546 687.01 825.229 709.404 C 828.73 755.415 832.487 801.406 836.5 847.375 C 845.91 955.808 857.141 1064.08 870.188 1172.13 C 883.323 1276.49 897.656 1381.5 925.915 1483.1 C 932.073 1505.24 940.137 1527.72 947.793 1549.44 C 930.317 1537.18 910.77 1535.19 896.63 1553.56 C 886.692 1527.5 878.366 1491.19 872.489 1464.02 C 864.478 1427.06 857.342 1389.92 851.088 1352.63 C 834.855 1251.9 821.886 1150.67 812.202 1049.1 C 810.576 1032.31 809.847 1015.8 808.321 999.394 C 800.618 924.228 793.627 848.991 787.349 773.692 C 783.78 732.529 780.972 690.31 776.93 649.282 C 775.582 644.63 774.886 641.744 776.251 636.943 z" fill="rgb(239,165,33)" transform="translate(0,0)"></path>
<path d="M 776.251 636.943 C 777.134 641.777 776.984 644.393 776.93 649.282 C 775.582 644.63 774.886 641.744 776.251 636.943 z" fill="rgb(80,51,12)" transform="translate(0,0)"></path>
<path d="M 530.335 620.124 C 539.343 619.566 550.1 622.604 554.421 631.435 C 556.228 635.128 556.342 643.949 556.076 648.095 C 553.28 691.595 548.515 734.922 544.756 778.349 C 541.415 817 537.866 855.633 534.108 894.246 C 531.992 917.054 530.026 939.744 527.584 962.536 C 525.868 978.544 519.648 980.843 517.791 993.598 C 515.618 1008.52 522.664 1021.69 520.876 1038.55 C 506.725 1171.93 491.625 1305.85 464.972 1437.41 C 457.362 1474.97 449.588 1519.18 436.189 1554.55 C 431.205 1548.01 428.676 1545.95 421.44 1542.14 C 407.412 1537.05 396.649 1540.95 384.512 1548.26 C 428.621 1423.39 445.577 1299.82 461.815 1169.03 C 475.305 1059.41 486.886 949.556 496.553 839.529 C 500.188 800.347 503.487 761.135 506.451 721.897 C 508.437 696.282 510.664 658.026 515.282 632.056 C 516.253 626.597 525.027 622.166 530.335 620.124 z" fill="rgb(239,165,33)" transform="translate(0,0)"></path>
<path d="M 641.943 980.958 C 660.743 999.302 681.024 1000.29 702.357 985.679 C 712.752 1006.27 717.378 1001.93 734.173 1009.49 C 736.44 1014.43 732.112 1023.38 735.439 1031.96 C 739.689 1042.92 746.386 1047.48 756.529 1052.39 C 757.449 1094.21 745.25 1125.56 709.272 1149.35 L 709.418 1152.15 C 707.17 1156.09 707.976 1162.03 707.91 1167.25 L 704.693 1167.43 C 705.515 1179.85 706.021 1183.2 717.941 1188.69 C 683.49 1218.99 648.77 1223.66 614.488 1189.14 C 624.226 1184.6 628.51 1182.31 627.985 1170.43 L 626.362 1169.96 C 625.979 1167.1 625.957 1165.17 625.903 1162.27 L 625.447 1155.15 L 626.909 1152.19 C 625.152 1151.19 623.412 1150.17 621.69 1149.12 C 590.983 1130.5 568.65 1089.8 576.543 1054.43 C 581.772 1031 598.77 1031.09 590.436 997.483 C 613.499 1005.42 627.969 1000.88 641.943 980.958 z" fill="rgb(194,142,114)" transform="translate(0,0)"></path>
<path d="M 704.693 1167.43 C 705.515 1179.85 706.021 1183.2 717.941 1188.69 C 683.49 1218.99 648.77 1223.66 614.488 1189.14 C 624.226 1184.6 628.51 1182.31 627.985 1170.43 C 655.76 1185.42 678.21 1184.8 704.693 1167.43 z" fill="rgb(194,142,114)" transform="translate(0,0)"></path>
<path d="M 709.272 1149.35 L 709.418 1152.15 C 707.17 1156.09 707.976 1162.03 707.91 1167.25 L 704.693 1167.43 C 678.21 1184.8 655.76 1185.42 627.985 1170.43 L 626.362 1169.96 C 625.979 1167.1 625.957 1165.17 625.903 1162.27 L 625.447 1155.15 L 626.909 1152.19 C 655.633 1165.65 681.491 1163.78 709.272 1149.35 z" fill="rgb(5,4,3)" transform="translate(0,0)"></path>
<path d="M 625.149 1056.19 C 630.856 1054.66 636.713 1058.08 638.187 1063.8 C 639.662 1069.52 636.186 1075.35 630.451 1076.77 C 624.792 1078.17 619.06 1074.75 617.606 1069.11 C 616.151 1063.46 619.517 1057.7 625.149 1056.19 z" fill="rgb(5,4,3)" transform="translate(0,0)"></path>
<path d="M 703.484 1055.73 C 709.178 1055.42 714.105 1059.65 714.641 1065.33 C 715.177 1071.01 711.13 1076.1 705.477 1076.85 C 701.622 1077.36 697.795 1075.73 695.502 1072.59 C 693.21 1069.45 692.819 1065.3 694.483 1061.79 C 696.147 1058.27 699.601 1055.95 703.484 1055.73 z" fill="rgb(5,4,3)" transform="translate(0,0)"></path>
<path d="M 642.889 1104.95 C 648.395 1108.23 649.149 1114.44 659.506 1116.97 C 668.634 1119.5 678.172 1116.48 684.258 1109.23 C 687.202 1105.72 685.984 1104.21 689.741 1106.57 L 688.601 1108.42 C 684.823 1114.34 678.857 1118.53 672.003 1120.07 C 661.307 1122.42 644.166 1117.36 642.889 1104.95 z" fill="rgb(5,4,3)" transform="translate(0,0)"></path>
<path d="M 666.159 1071.95 C 669 1072.23 677.133 1073.8 677.721 1076.32 C 680.132 1086.64 672.598 1066.72 659.354 1080.13 C 659.259 1085.03 662.72 1091.6 660.949 1092.95 C 657.72 1093.33 650.288 1078.8 666.159 1071.95 z" fill="rgb(5,4,3)" transform="translate(0,0)"></path>
<path d="M 621.253 1030.04 C 625.757 1029.68 634.302 1029.23 636.235 1034.63 L 635.612 1035.55 C 635.4 1035.6 626.629 1033.51 623.622 1033.22 C 619.601 1035.48 613.865 1042.25 612.371 1039.41 C 613.679 1034.72 617.421 1032.68 621.253 1030.04 z" fill="rgb(5,4,3)" transform="translate(0,0)"></path>
<path d="M 702.534 1030.05 C 707.101 1030.18 720.043 1033.93 717.185 1039.89 C 716.728 1040.21 716.963 1040.1 716.494 1040.24 C 714.912 1039.81 713.488 1037.47 712.357 1036.24 C 701.978 1029.94 697.976 1036.82 695.022 1034.81 C 694.958 1032.58 698.27 1031.53 699.971 1030.93 L 702.534 1030.05 z" fill="rgb(5,4,3)" transform="translate(0,0)"></path>
<path d="M 627.745 887.495 C 651.867 886.694 664.912 897.234 676.952 916.592 C 683.472 909.707 687.914 904.895 697.023 901.131 C 720.458 891.446 748.021 905.268 757.303 928.164 C 762.491 940.959 761.271 952.919 755.971 965.477 C 765.755 964.903 772.783 964.339 782.022 968.212 C 791.807 972.346 799.527 980.229 803.455 990.098 C 822.951 1039.53 759.695 1076.42 737.659 1028.29 C 735.844 1024.32 736.621 1013.65 738.86 1010.02 C 739.452 1009.06 743.519 1007.96 745.074 1004.78 C 730.291 1004.16 714.382 1005.22 706.99 988.46 C 705.683 985.496 705.728 983.089 703.808 980.34 L 702.47 981.175 C 682.71 999.412 658.898 995.341 641.728 976.136 C 625.946 999.954 603.203 1007.83 581.01 986.444 C 594.586 1007.7 592.146 1029.78 573.605 1047.41 C 570.025 1047.66 565.495 1047.88 561.963 1047.77 C 550.542 1047.43 539.742 1042.49 532.009 1034.08 C 514.315 1014.67 516.809 981.665 536.746 964.388 C 551.581 951.534 561.736 953.476 579.959 954.613 C 579.512 952.176 579.154 949.722 578.886 947.259 C 575.492 914.773 595.325 890.59 627.745 887.495 z" fill="rgb(83,56,50)" transform="translate(0,0)"></path>
<path d="M 824.322 1328.17 C 830.818 1326.51 836.963 1324.98 843.364 1322.93 C 847.878 1345.54 851.346 1368.93 855.482 1391.7 C 860.707 1420.33 866.551 1448.84 873.01 1477.22 C 878.263 1500.88 886.026 1533.89 895.275 1556.34 C 888.454 1583.49 898.264 1581.04 913.003 1599.06 C 931.402 1621.56 943.849 1654.5 948.523 1683.01 C 905.945 1697.42 848.486 1711.59 803.424 1716.44 C 800.186 1689.94 793.545 1663.42 790.711 1637.03 C 787.044 1602.87 790.117 1567.02 786.57 1532.87 C 784.822 1516.05 776.913 1498.35 773.247 1481.82 C 782.858 1481.69 794.43 1481.8 803.861 1481.1 L 800.626 1466.72 L 802.214 1462.81 C 810.407 1489 810.229 1488.46 805.89 1515.07 C 804.521 1523.46 813.376 1554.8 820.953 1559.57 C 824.155 1562.19 830.855 1559.32 833.439 1556.01 C 836.233 1548.01 832.87 1534.67 831.349 1525.75 C 838.141 1537.14 837.984 1538.53 839.65 1550.67 C 841.108 1561.31 829.352 1581.82 838.666 1583.37 C 839.36 1583.49 842.746 1583.63 843.549 1583.65 C 846.669 1586.35 846.615 1588.64 850.409 1590.01 C 853.674 1589.74 858.367 1587.91 859.967 1588.52 C 863.14 1589.74 863.322 1590.39 866.985 1590.03 C 871.552 1588.14 875.512 1580.97 877.272 1576.61 C 885.383 1556.51 883.371 1537.93 874.831 1518.51 C 869.039 1505.34 862.074 1493.35 856.32 1480.27 C 851.411 1465.13 847.108 1440.89 843.893 1424.89 L 824.322 1328.17 z" fill="rgb(239,165,33)" transform="translate(0,0)"></path>
<path d="M 487.519 1327.19 C 493.857 1329.34 500.378 1331.11 506.823 1332.94 C 498.354 1376.63 488.549 1420.19 479.732 1463.82 C 478.76 1468.63 477.284 1476.53 475.648 1481.09 C 466.308 1507.09 448.253 1532.13 453.093 1561.33 C 454.766 1571.18 458.321 1585.03 466.359 1591.3 C 470.843 1594.8 472.937 1591 476.34 1589.61 C 482.97 1591.36 497.525 1587.47 501.359 1580.69 C 501.681 1575.62 497.809 1568.43 496.392 1563.03 C 492.435 1547.93 496.465 1539.99 503.507 1527.59 C 502.928 1532.45 494.73 1568.39 512.254 1561.62 C 520.967 1558.5 530.616 1523.76 528.917 1516.62 C 522.554 1489.9 522.126 1486.17 532.492 1459.48 C 531.477 1467.51 530.355 1473.97 528.782 1481.91 C 537.721 1482.08 547.009 1481.97 555.98 1481.99 C 549.244 1513.24 545.59 1537.01 542.071 1568.77 C 537.273 1620.6 533.719 1664.22 525.672 1716.36 C 480.252 1709.08 426.062 1699.15 382.989 1683.2 C 389.088 1653.95 397.471 1627.06 415.878 1602.48 C 422.026 1594.27 434.143 1586.34 437.878 1576.07 C 440.086 1571.1 436.624 1562.24 438.235 1557.6 C 454.422 1510.9 461.811 1461.91 472.233 1413.73 C 478.426 1385.1 482.322 1356.02 487.519 1327.19 z" fill="rgb(239,165,33)" transform="translate(0,0)"></path>
<path d="M 924.322 601.491 L 924.54 601.635 C 926.316 604.411 925.163 982.641 925.127 1016.02 C 917.182 1014.27 865.963 1014.98 854.787 1014.99 L 853.328 1000.24 C 847.024 939.714 841.404 879.114 836.469 818.456 C 850.046 813.932 862.021 807.266 872.183 797.058 C 882.405 786.838 889.678 774.047 893.234 760.036 C 897.95 741.47 896.704 708.507 896.716 688.362 L 896.8 602.925 C 906.711 603.066 914.526 603.253 924.322 601.491 z" fill="rgb(255,255,255)" transform="translate(0,0)"></path>
<path d="M 406.538 600.843 C 415.67 604.096 425.171 602.824 434.921 602.398 L 434.874 692.473 C 434.83 708.609 433.935 735.925 436.459 751.026 C 438.225 762.199 442.177 772.913 448.089 782.556 C 458.901 800.108 476.015 813.223 496.194 817.877 C 490.812 863.275 488.309 909.586 483.02 955.079 C 481.263 970.184 479.781 986.098 478.756 1001.25 C 478.304 1005.83 477.946 1010.5 477.552 1015.09 C 464.604 1015.01 416.334 1014.07 406.794 1015.84 L 406.538 600.843 z" fill="rgb(255,255,255)" transform="translate(0,0)"></path>
<path d="M 524.17 1029.12 C 533.426 1041.77 540.729 1046.73 556.067 1050.13 C 530.16 1073.2 545.09 1112.86 581.02 1107.42 C 592.768 1130.96 603.229 1141.52 625.447 1155.15 L 625.903 1162.27 C 623.599 1170.83 627.929 1179.02 618.193 1183.9 C 599.795 1193.11 579.049 1198.07 559.986 1205.89 C 528.015 1221.37 501.042 1271.28 492.624 1303.72 L 490.562 1302.68 C 505.111 1211.71 514.606 1120.72 524.17 1029.12 z" fill="rgb(239,165,33)" transform="translate(0,0)"></path>
<path d="M 777.973 1052.59 C 793.756 1046.71 799.329 1041.44 806.502 1025.58 C 806.812 1024.9 807.115 1024.22 807.41 1023.53 C 812.9 1081.73 819.274 1139.84 826.532 1197.85 C 830.389 1229.8 834.605 1270.11 840.285 1301.13 L 838.191 1302.91 C 826.029 1271.4 819.697 1246.96 795.094 1222.26 C 790.161 1217.47 783.308 1209.38 777.117 1206.59 C 755.831 1197 730.506 1192.89 710.493 1180.94 C 707.301 1179.04 707.907 1170.77 707.91 1167.25 C 707.976 1162.03 707.17 1156.09 709.418 1152.15 C 727.897 1142.3 738.703 1127.62 748.482 1109.8 C 783.627 1114.27 802.561 1074.69 777.973 1052.59 z" fill="rgb(239,165,33)" transform="translate(0,0)"></path>
<path d="M 558.255 74.5001 C 583.301 73.5233 613.481 74.291 638.889 74.3299 L 791.826 74.3075 L 791.706 122.49 L 771.5 122.49 L 536.153 122.66 L 536.101 74.51 L 558.255 74.5001 z" fill="rgb(226,213,206)" transform="translate(0,0)"></path>
<path d="M 542.435 1882.36 C 564.418 1882.5 576.232 1892.36 576.689 1914.35 C 598.068 1906.72 609.1 1900.64 623.124 1882.57 C 632.267 1900.29 632.944 1922.21 633.066 1941.79 C 625.748 1946.62 611.988 1952.45 603.755 1956.16 L 558.75 1976.41 C 519.914 1994.13 496.226 2005 454.302 1983.57 C 451.912 1937.57 473.089 1943.29 503.107 1921.41 C 514.558 1913.07 531.879 1886.76 542.435 1882.36 z" fill="rgb(194,142,114)" transform="translate(0,0)"></path>
<path d="M 820.419 1329.21 L 820.887 1329.33 C 825.523 1333.65 845.824 1456.57 852.035 1475.24 C 861.674 1504.22 887.25 1533.01 877.901 1564.87 C 875.583 1572.76 872.881 1584.14 865.004 1587.91 C 862.242 1587.57 863.366 1588.17 861.534 1586.04 C 865.45 1574.77 875.173 1552.65 868.822 1542.06 C 866.817 1545.61 868.265 1555.4 866.888 1560.04 C 864.792 1567.12 860.352 1592.35 848.447 1585.41 C 847.212 1580.58 856.261 1568.06 857.221 1561.64 C 858.022 1556.29 858.365 1553.48 858.335 1547.89 C 858.261 1544.25 858.422 1543.33 857.11 1539.91 L 855.884 1539.55 C 852.565 1547.18 858.269 1582.34 839.137 1580.77 C 833.058 1573.82 855.565 1549.24 828.427 1518.92 C 828.64 1527.81 833.646 1550.76 830.754 1554.55 C 817.961 1571.33 809.558 1525.75 809.281 1521.16 L 809.238 1520.36 C 808.529 1508.64 813.06 1497.28 811.632 1486.32 C 809.486 1469.86 798.668 1450.75 795.323 1434.68 C 788.898 1403.8 784.724 1372.05 778.703 1341.06 C 790.62 1338.65 808.171 1332.77 820.419 1329.21 z" fill="rgb(194,142,114)" transform="translate(0,0)"></path>
<path d="M 509.633 1333.89 C 523.463 1338.27 538.946 1341.95 552.432 1346.82 C 546.454 1375.69 543.087 1405.53 537.082 1434.42 C 533.515 1451.57 523.971 1469.17 521.811 1486.59 C 520.003 1501.17 529.721 1517.25 523.948 1532.29 C 521.097 1539.67 518.466 1552.08 513.334 1558.12 C 510.025 1559.53 511.478 1559.31 507.776 1558.81 C 498.56 1552.31 508.913 1530.81 504.379 1524.31 C 500.383 1526.55 498.762 1531.09 496.375 1534.67 C 486.188 1549.94 497.009 1565.16 497.668 1580.85 C 497.706 1581.74 496.447 1582.34 495.676 1582.96 C 480.881 1585.63 480.314 1551.26 478.848 1542.7 L 477.267 1542.79 L 476.677 1545.26 C 474.002 1571.3 487.442 1578.98 487.255 1586.08 C 484.965 1588.52 486.084 1587.79 482.65 1588.59 C 472.405 1586.33 465.996 1560.49 466.929 1551.28 C 467.251 1548.1 468.111 1545.04 466.719 1542.25 L 464.987 1542.55 C 456.752 1552.87 475.125 1581.87 471.785 1589.8 L 469.342 1589.76 C 466.837 1588.46 465.802 1587.45 464.307 1585.08 C 445.266 1554.33 459.497 1522.69 473.748 1493.9 C 480.938 1479.37 484.712 1452.54 488.164 1436.26 L 509.633 1333.89 z" fill="rgb(194,142,114)" transform="translate(0,0)"></path>
<path d="M 406.743 1051.68 C 415.598 1054.13 461.319 1053.16 473.087 1053.14 C 468.675 1110.02 458.197 1176.21 451.664 1233.77 C 450.751 1238.14 449.889 1246.16 449.221 1250.86 C 437.418 1250.76 417.908 1250.14 406.829 1251.97 C 406.428 1185.21 406.399 1118.44 406.743 1051.68 z" fill="rgb(255,255,255)" transform="translate(0,0)"></path>
<path d="M 859.142 1053.23 C 875.112 1053 910.539 1054.25 925.27 1052.39 L 925.272 1251.73 C 916.951 1249.98 892.567 1250.75 882.954 1250.88 C 872.491 1189.44 865.572 1115.15 859.142 1053.23 z" fill="rgb(255,255,255)" transform="translate(0,0)"></path>
<path d="M 824.611 74.2439 L 1010.05 74.2942 C 1010.14 90.4353 1010.08 106.577 1009.86 122.717 C 950.928 121.081 883.926 122.688 824.376 122.772 C 824.209 106.596 824.287 90.4178 824.611 74.2439 z" fill="rgb(226,213,206)" transform="translate(0,0)"></path>
<path d="M 323.094 74.4093 C 380.687 72.838 445.234 74.1844 503.361 74.1317 C 503.651 90.3351 503.691 106.542 503.481 122.747 C 485.03 121.85 460.021 122.593 441.133 122.624 L 322.881 122.762 C 322.754 106.644 322.825 90.5254 323.094 74.4093 z" fill="rgb(226,213,206)" transform="translate(0,0)"></path>
<path d="M 947.187 1686.09 L 947.968 1686.3 C 951.751 1691.84 950.661 1763.28 950.646 1776.81 C 916.168 1744.19 868.545 1741.18 826.907 1761.88 C 819.85 1765.82 816.628 1768.24 810.296 1773.07 C 808.613 1754.13 806.794 1737.4 803.697 1718.65 C 849.287 1713.86 903.977 1700.75 947.187 1686.09 z" fill="rgb(239,165,33)" transform="translate(0,0)"></path>
<path d="M 382.6 1686.17 C 424.536 1701.01 481.256 1712.41 525.43 1718.33 C 523.018 1737.95 520.91 1754.93 520.774 1774.81 C 515.314 1770.2 512.003 1768.04 506.083 1764.27 C 463.25 1739.91 418.472 1744.02 380.266 1774.68 C 380.14 1746.42 378.963 1713.65 382.6 1686.17 z" fill="rgb(239,165,33)" transform="translate(0,0)"></path>
<path d="M 156.39 74.126 L 289.315 74.0965 L 289.671 122.715 C 246.667 121.71 199.559 122.733 156.221 122.776 L 156.39 74.126 z" fill="rgb(226,213,206)" transform="translate(0,0)"></path>
<path d="M 1042.76 74.2957 L 1173.88 74.51 L 1173.88 122.779 L 1042.81 122.737 L 1042.76 74.2957 z" fill="rgb(226,213,206)" transform="translate(0,0)"></path>
<path d="M 888.862 1289.45 C 901 1289.53 913.138 1289.34 925.267 1288.89 L 925.414 1405.15 C 925.397 1423.63 926.185 1450.76 924.815 1468.12 C 922.428 1463.26 917.692 1442.61 916.127 1436.04 C 907.723 1400.69 900.587 1365.05 894.732 1329.19 C 892.893 1317.86 889.602 1300.21 888.862 1289.45 z" fill="rgb(255,255,255)" transform="translate(0,0)"></path>
<path d="M 406.896 1288.79 C 418.96 1289.4 431.038 1289.7 443.118 1289.69 C 434.014 1347.88 423.709 1405.84 408.7 1462.84 C 408.364 1465.77 408.184 1466.44 407.192 1469.02 C 407.028 1469.06 406.865 1469.1 406.701 1469.14 C 405.309 1467.98 406.423 1458.13 406.683 1455.93 C 408.52 1402.79 406.821 1342.48 406.896 1288.79 z" fill="rgb(255,255,255)" transform="translate(0,0)"></path>
<path d="M 406.683 1455.93 C 406.982 1458.39 406.337 1462.25 408.7 1462.84 C 408.364 1465.77 408.184 1466.44 407.192 1469.02 C 407.028 1469.06 406.865 1469.1 406.701 1469.14 C 405.309 1467.98 406.423 1458.13 406.683 1455.93 z" fill="rgb(166,168,167)" transform="translate(0,0)"></path>
<path d="M 632.121 1945.15 L 632.718 1945.76 C 633.909 1952.91 633.079 1961.37 628.56 1967.32 C 625.346 1971.55 540.58 2008.09 528.74 2012.25 C 522.707 2014.41 516.442 2015.86 510.073 2016.57 C 493.803 2018.44 469.532 2016.66 456.204 2006.04 C 453.542 2000.3 454.03 1992.89 454.07 1986.58 C 510.836 2015.22 546.063 1982.38 597.946 1961.87 C 608.59 1957.66 622.576 1951.11 632.121 1945.15 z" fill="rgb(194,142,114)" transform="translate(0,0)"></path>
<path d="M 906.024 461.969 C 913.5 461.321 924.214 463.598 924.597 471.893 C 925.104 482.836 927.088 559.152 924.265 563.231 L 918.203 562.495 C 911.206 562.741 903.801 562.664 896.767 562.71 C 896.669 534.564 895.913 499.686 897.429 471.335 C 897.636 467.463 902.885 464.038 906.024 461.969 z" fill="rgb(255,255,255)" transform="translate(0,0)"></path>
<path d="M 416.035 462.036 C 418.061 461.94 420.174 461.807 422.191 462.076 C 426.318 462.625 430.11 464.414 432.548 467.873 C 436.379 473.308 436.057 551.672 434.421 561.81 C 431.476 563.288 426.819 562.723 423.291 562.646 C 416.293 562.664 413.58 563.282 406.996 565.539 C 407.22 540.304 406.544 515.001 406.75 489.766 C 406.859 476.334 404.05 470.066 416.035 462.036 z" fill="rgb(255,255,255)" transform="translate(0,0)"></path>
<path d="M 301.875 516.032 C 305.522 515.871 307.414 515.593 310.978 516.689 C 315.651 521.686 346.772 566.973 349.659 572.525 L 310.999 572.392 L 263.111 572.322 C 275.317 554.504 290.673 534.021 301.875 516.032 z" fill="rgb(255,255,255)" transform="translate(0,0)"></path>
<path d="M 1021.37 516.549 C 1023.36 516.467 1025.68 516.185 1027.65 516.438 C 1033.34 517.171 1063.46 564.324 1069.01 572.647 L 1028.75 572.588 L 982.992 572.513 C 994.286 553.084 1008.17 534.799 1021.37 516.549 z" fill="rgb(255,255,255)" transform="translate(0,0)"></path>
<path d="M 804.711 516.443 C 807.258 516.581 810.937 516.452 813.586 516.447 C 822.432 529.355 834.029 547.198 843.543 559.007 L 843.503 572.621 L 808.5 572.386 L 765.917 572.319 C 777.132 554.598 792.616 534.721 804.711 516.443 z" fill="rgb(255,255,255)" transform="translate(0,0)"></path>
<path d="M 514.954 516.107 C 516.292 516.057 522.719 515.746 523.433 516.798 C 536.195 535.606 549.754 553.842 562.349 572.764 C 553.771 572.432 544.482 572.512 535.841 572.432 L 488.214 572.569 L 488.19 555.159 L 514.954 516.107 z" fill="rgb(255,255,255)" transform="translate(0,0)"></path>
<path d="M 854.984 1017.07 C 874.157 1017.22 956.205 1007.39 928.411 1046.73 C 921.186 1052.59 911.679 1051.33 902.789 1051.32 C 888.017 1051.31 873.427 1050.99 858.646 1051.48 C 857.745 1040.28 856.213 1028.3 854.984 1017.07 z" fill="rgb(231,107,66)" transform="translate(0,0)"></path>
<path d="M 419.994 1017.46 L 477.377 1017.31 C 475.667 1028.5 474.373 1039.76 473.497 1051.06 L 455.75 1051.04 C 442.562 1051.13 414.935 1053.81 403.878 1046.41 C 396.614 1041.55 398.118 1027.63 404.544 1022 C 410.221 1017.03 412.526 1017.72 419.994 1017.46 z" fill="rgb(231,107,66)" transform="translate(0,0)"></path>
<path d="M 303.13 57.115 C 329.452 56.0536 318.288 92.5289 320.522 110.916 C 322.098 123.881 322.962 138.001 310.075 143.968 C 304.357 144.019 293.514 142.043 292.972 134.728 C 291.292 112.023 291.172 87.6669 292.989 64.9899 C 293.257 61.6439 300.434 58.3545 303.13 57.115 z" fill="rgb(226,213,206)" transform="translate(0,0)"></path>
<path d="M 806.189 57.0475 C 814.694 57.0927 816.938 59.9317 821.935 66.0555 C 822.113 87.8594 823.043 111.878 821.507 133.65 C 821.127 139.042 815.424 142.156 810.968 144.333 C 800.899 143.963 799.569 142.655 794.097 134.715 C 793.824 120.03 793.591 104.981 793.791 90.3006 C 793.994 75.3923 790.07 63.1138 806.189 57.0475 z" fill="rgb(226,213,206)" transform="translate(0,0)"></path>
<path d="M 1040.59 133.06 C 1035.39 142.922 1028.52 147.742 1016.98 140.776 C 1013.9 138.917 1012.52 133.947 1012.46 130.408 C 1012.1 109.718 1011.58 88.5855 1012.79 67.9345 C 1012.85 65.0158 1014.38 64.1493 1015.45 62.2407 C 1020.47 53.2476 1038.35 57.8113 1039.29 66.6107 C 1041.04 82.9254 1040.15 101.366 1040.21 118.223 C 1041.73 120.761 1041.19 130.028 1040.59 133.06 z" fill="rgb(226,213,206)" transform="translate(0,0)"></path>
<path d="M 1040.21 118.223 C 1041.73 120.761 1041.19 130.028 1040.59 133.06 C 1039.98 128.268 1039.68 123.033 1040.21 118.223 z" fill="rgb(85,77,74)" transform="translate(0,0)"></path>
<path d="M 512.9 58.2745 C 518.978 57.5588 532.261 57.5784 532.941 66.3202 C 534.691 88.8136 534.359 112.637 533.087 135.176 C 532.888 138.695 528.246 141.704 525.52 143.341 C 515.09 144.375 512.984 143.215 506.137 135.581 C 506.103 122.911 506.003 110.242 505.836 97.573 C 505.662 88.2885 505.095 78.0816 505.98 68.8557 C 506.505 63.3791 508.889 61.313 512.9 58.2745 z" fill="rgb(226,213,206)" transform="translate(0,0)"></path>
<path d="M 57.0266 74.5941 C 71.4148 74.4668 85.8037 74.4388 100.192 74.51 C 100.191 88.4334 100.763 109.049 99.9891 122.516 C 85.6883 122.413 71.3867 122.458 57.0867 122.652 L 57.0266 74.5941 z" fill="rgb(226,213,206)" transform="translate(0,0)"></path>
<path d="M 1231.04 74.1908 L 1273.84 74.3051 C 1273.75 90.2076 1274.11 106.86 1273.76 122.637 C 1260.54 122.033 1244.39 122.406 1230.97 122.44 C 1230.96 106.763 1230.63 89.7645 1231.04 74.1908 z" fill="rgb(226,213,206)" transform="translate(0,0)"></path>
<path d="M 517.678 145.185 C 521.553 146.154 521.394 145.424 523.331 147.89 C 523.983 168.485 523.442 191.835 523.419 212.697 L 523.447 328.602 L 523.56 414.787 C 523.575 421.43 524.789 455.441 522.35 459.003 L 519.926 460.249 L 518.159 459.481 C 515.801 452.535 517.221 293.247 517.193 273.111 C 516.201 261.385 515.874 151.521 517.678 145.185 z" fill="rgb(226,213,206)" transform="translate(0,0)"></path>
<path d="M 517.678 145.185 C 519.022 171.355 517.179 201.898 517.727 228.493 C 517.86 234.914 517.841 268.989 517.193 273.111 C 516.201 261.385 515.874 151.521 517.678 145.185 z" fill="rgb(114,109,103)" transform="translate(0,0)"></path>
<path d="M 246.569 575.01 L 349.779 575.107 C 349.811 579.988 350.441 589.091 349.155 593.135 L 347.145 593.955 C 333.042 593.781 252.441 596.388 245.721 591.387 C 243.659 589.852 242.604 587.558 242.457 585.025 C 242.209 580.756 243.76 578.053 246.569 575.01 z" fill="rgb(226,213,206)" transform="translate(0,0)"></path>
<path d="M 983.087 575.069 C 1016.5 575.088 1051.22 573.912 1084.31 576.33 C 1090.71 576.798 1089.22 587.549 1086.44 592.017 C 1086.27 592.095 1086.1 592.179 1085.92 592.251 C 1085.63 592.37 1085.34 592.473 1085.05 592.59 C 1076.22 596.129 999.048 593.821 983.082 593.898 L 983.087 575.069 z" fill="rgb(226,213,206)" transform="translate(0,0)"></path>
<path d="M 1023.88 459.358 C 1021.96 450.695 1023.09 400.927 1023.11 388.576 L 1023.15 215.168 C 1023.13 205.81 1021.83 149.328 1024.38 146.377 L 1027.62 146.332 C 1029.36 148.46 1030.01 149.776 1029.87 152.903 C 1029.13 169.497 1029.41 186.31 1029.38 202.933 L 1029.1 338.699 L 1029.18 414.405 C 1029.22 424.945 1030.43 450.788 1028.43 459.767 C 1028.51 460.381 1028.59 460.996 1028.67 461.61 C 1027.05 461.483 1025.88 461.379 1024.28 461.087 L 1023.88 459.358 z" fill="rgb(226,213,206)" transform="translate(0,0)"></path>
<path d="M 1023.88 459.358 C 1026.09 459.117 1026.19 459.236 1028.43 459.767 C 1028.51 460.381 1028.59 460.996 1028.67 461.61 C 1027.05 461.483 1025.88 461.379 1024.28 461.087 L 1023.88 459.358 z" fill="rgb(85,77,74)" transform="translate(0,0)"></path>
<path d="M 303.192 145.279 C 305.451 145.775 306.023 146.024 308.114 146.845 C 310.094 151.336 309.092 429.836 308.769 459.737 C 304.902 459.405 305.201 460.089 303.066 457.999 C 302.501 355.242 301.719 247.749 303.192 145.279 z" fill="rgb(226,213,206)" transform="translate(0,0)"></path>
<path d="M 751.133 575.08 C 778.963 573.929 815.156 574.986 843.634 574.984 C 843.713 579.901 844.19 588.538 843.122 593.025 L 841.131 593.951 C 822.165 593.902 803.199 593.952 784.233 594.101 C 775.144 594.138 764.064 594.786 755.229 593.639 C 743.97 592.177 744.204 582.039 751.133 575.08 z" fill="rgb(226,213,206)" transform="translate(0,0)"></path>
<path d="M 805.662 145.868 C 808.257 146.275 808.474 146.226 810.633 147.616 C 811.445 151.693 811.123 175.669 811.129 181.945 L 811.152 263.671 L 811.219 388.063 C 811.31 408.747 812.517 440.888 810.948 460.4 L 807.447 459.162 C 806.922 458.456 806.396 457.75 805.871 457.043 C 805.044 372.87 805.482 225.451 805.662 145.868 z" fill="rgb(226,213,206)" transform="translate(0,0)"></path>
<path d="M 488.193 574.953 C 501.549 574.936 571.835 573.578 578.664 576.958 C 583.409 581.71 581.568 587.117 578.244 592.116 C 578.034 592.222 577.823 592.324 577.616 592.433 C 571.136 595.844 499.592 593.958 488.21 593.976 L 488.193 574.953 z" fill="rgb(226,213,206)" transform="translate(0,0)"></path>
<path d="M 551.109 1866.2 L 552.294 1866.76 C 576.002 1877.64 597.965 1875.76 621.552 1866.64 L 621.66 1878.69 C 618.419 1884.95 616.463 1887.06 611.619 1892.15 C 600.831 1901.56 592.476 1905.36 579.536 1910.35 C 575.691 1889.59 570.093 1886.52 551.132 1879.88 L 551.109 1866.2 z" fill="rgb(226,213,206)" transform="translate(0,0)"></path>
<path d="M 883.566 1253.06 C 894.418 1252.96 906.184 1253.33 916.882 1253.11 C 938.027 1252.68 938.342 1283.45 920.56 1287.32 C 914.445 1288.48 894.23 1288.84 888.388 1287.54 C 887.053 1276.03 884.834 1264.75 883.566 1253.06 z" fill="rgb(231,107,66)" transform="translate(0,0)"></path>
<path d="M 888.388 1287.54 C 894.902 1286.68 913.533 1286.85 920.56 1287.32 C 914.445 1288.48 894.23 1288.84 888.388 1287.54 z" fill="rgb(123,55,36)" transform="translate(0,0)"></path>
<path d="M 398.651 1270.21 C 401.684 1258.78 403.156 1253.45 416.995 1253.14 C 427.466 1252.9 438.017 1253.1 448.49 1253.08 C 446.753 1264.6 444.833 1276.12 443.416 1287.68 C 437.516 1288.94 420.955 1288.5 414.93 1287.09 C 403.124 1286.25 401.147 1280.23 398.651 1270.21 z" fill="rgb(231,107,66)" transform="translate(0,0)"></path>
<path d="M 414.93 1287.09 C 421.64 1286.89 437.329 1286.73 443.416 1287.68 C 437.516 1288.94 420.955 1288.5 414.93 1287.09 z" fill="rgb(123,55,36)" transform="translate(0,0)"></path>
<path d="M 759.134 1052.91 C 764.55 1053.73 767.463 1054.08 773.009 1054.17 C 776.829 1054.75 779.931 1057.42 782.09 1060.43 C 786.356 1066.39 786.157 1073.32 785.583 1080.43 C 784.252 1096.88 767.871 1109.98 751.561 1107.71 C 751.236 1107.67 750.24 1106.89 750.329 1106.62 C 752.043 1101.46 753.864 1096.51 755.48 1091.24 C 756.794 1087.3 757.886 1082.12 758.89 1077.99 C 760.847 1081.04 764.5 1090.38 767.074 1087.98 C 768.59 1080.27 752.426 1075.34 766.57 1071.29 C 773.117 1069.41 777.724 1076.07 779.573 1075.72 C 781.795 1073.48 774.369 1068.39 771.981 1068.01 C 766.461 1067.11 763.672 1069.5 759.165 1072.51 L 759.134 1052.91 z" fill="rgb(194,142,114)" transform="translate(0,0)"></path>
<path d="M 569.755 1050.47 C 570.997 1050.18 572.658 1049.73 573.818 1050.41 C 574.06 1050.92 572.515 1069.02 572.381 1071.14 C 568.495 1068.76 566.938 1067.14 562.007 1066.52 C 558.572 1066.09 552.53 1069.07 552.531 1072.66 L 553.044 1073.1 C 557.954 1072.33 557.414 1067.21 567.344 1070.62 C 577.761 1074.21 558.457 1086.61 564.558 1088.74 C 565.974 1088.37 570.487 1078.07 572.816 1078.86 C 573.842 1079.99 573.73 1081.65 573.854 1083.23 C 575.418 1089.96 576.655 1096.47 579.353 1102.91 C 580.209 1105.08 576.606 1104.97 575.503 1105.08 C 548.905 1107.54 537.091 1075.97 552.953 1057 C 558.678 1050.15 562.024 1051.2 569.755 1050.47 z" fill="rgb(194,142,114)" transform="translate(0,0)"></path>
<path d="M 896.869 565.017 C 902.871 565.091 921.35 563.809 925.559 567.438 C 934.547 575.187 935.66 586.387 928.307 595.814 C 918.983 602.436 908.315 600.713 896.817 600.468 L 896.869 565.017 z" fill="rgb(231,107,66)" transform="translate(0,0)"></path>
<path d="M 412.005 600.615 C 407.012 597.643 402.214 594.631 401.418 588.395 C 398.022 561.776 419.249 565.084 435.032 565.286 C 434.942 577.036 434.93 588.786 434.997 600.536 C 430.297 601.472 416.492 601.617 412.005 600.615 z" fill="rgb(231,107,66)" transform="translate(0,0)"></path>
<path d="M 412.005 600.615 C 417.446 600.036 429.703 599.905 434.997 600.536 C 430.297 601.472 416.492 601.617 412.005 600.615 z" fill="rgb(123,55,36)" transform="translate(0,0)"></path>
<path d="M 807.451 514.904 C 792.429 507.034 801.694 492.355 799.166 479.426 C 794.402 455.072 823.03 456.464 819.942 476.778 C 817.42 493.376 827.624 507.988 810.211 514.999 C 808.836 515.171 808.825 515.149 807.451 514.904 z" fill="rgb(226,213,206)" transform="translate(0,0)"></path>
<path d="M 807.451 514.904 C 808.359 514.738 809.275 514.909 810.211 514.999 C 808.836 515.171 808.825 515.149 807.451 514.904 z" fill="rgb(85,77,74)" transform="translate(0,0)"></path>
<path d="M 1024.28 461.087 C 1025.88 461.379 1027.05 461.483 1028.67 461.61 C 1029.79 462.185 1035 465.047 1035.29 466.932 C 1035.7 471.787 1037.46 505.637 1035.85 507.965 C 1026.49 521.502 1011.07 512.537 1015.36 491.601 C 1017.34 481.924 1009.02 466.461 1024.28 461.087 z" fill="rgb(226,213,206)" transform="translate(0,0)"></path>
<path d="M 304.034 460.805 C 317.24 461.758 318.601 469.479 317.1 480.936 C 315.45 493.531 322.375 507.01 310.708 513.238 C 296.834 514.037 295.484 509.076 296.696 496.052 C 298.034 481.684 291.391 469.631 304.034 460.805 z" fill="rgb(226,213,206)" transform="translate(0,0)"></path>
<path d="M 515.058 461.801 C 535.647 461.477 527.382 477.516 529.003 493.193 C 529.861 501.494 530.071 508.328 523.572 513.937 C 497.701 513.839 512.976 487.297 508.989 468.961 C 508.436 466.42 513.266 463.215 515.058 461.801 z" fill="rgb(226,213,206)" transform="translate(0,0)"></path>
<path d="M 550.868 1854.6 C 581.016 1867.71 591.717 1862.97 620.339 1856.45 C 621.819 1858.22 621.451 1860.67 621.628 1863.43 C 605.456 1872.63 569.31 1874.9 553.018 1863.23 C 550.322 1861.3 550.95 1857.67 550.868 1854.6 z" fill="rgb(226,213,206)" transform="translate(0,0)"></path>
<path d="M 528.006 511.483 C 532.715 514.325 564.629 561.816 570.386 569.704 C 571.378 571.064 570.821 572.009 570.4 573.608 C 568.777 573.276 567.153 572.943 565.529 572.611 C 552.77 553.791 538.35 535.845 526.363 516.475 C 525.723 515.44 527.568 512.348 528.006 511.483 z" fill="rgb(226,213,206)" transform="translate(0,0)"></path>
<path d="M 798.735 511.642 C 799.849 512.523 802.605 514.818 802.129 515.582 C 796.808 524.134 766.003 569.119 761.466 573.766 C 760.745 573.407 757.688 572.097 757.387 571.421 C 758.033 567.607 794.066 518.615 798.735 511.642 z" fill="rgb(226,213,206)" transform="translate(0,0)"></path>
<path d="M 1036.19 510.974 C 1049.38 530.293 1063.34 549.08 1076.28 568.581 C 1078.96 572.606 1078.98 572.198 1074.92 574.124 C 1066.81 568.896 1046.57 532.944 1038.39 523.973 C 1037.44 522.933 1033.28 517.003 1032.47 515.536 C 1032.55 514.144 1035.14 512.066 1036.19 510.974 z" fill="rgb(226,213,206)" transform="translate(0,0)"></path>
<path d="M 295.734 511.45 C 296.507 511.735 300.017 513.406 299.25 514.527 C 289.054 529.436 270.514 561.251 258.623 573.765 C 257.402 573.172 254.653 572.426 254.14 571.373 C 254.736 569.011 291.077 518.166 295.734 511.45 z" fill="rgb(226,213,206)" transform="translate(0,0)"></path>
<path d="M 1014.99 510.858 C 1015.47 511.336 1019 514.468 1018.65 515.073 C 1009.48 530.935 996.134 545.66 986.853 561.483 C 986.272 562.496 985.677 563.5 985.068 564.497 C 984.456 564.854 984.228 565.109 983.612 565.098 C 982.807 564.477 982.843 557.515 983.423 556.593 C 993.265 540.936 1004.43 526.063 1014.99 510.858 z" fill="rgb(226,213,206)" transform="translate(0,0)"></path>
<path d="M 315.938 511.309 C 318.326 512.249 355.539 559.031 348.873 566.052 C 337.419 548.865 324.517 532.423 313.448 515.029 C 313.08 514.451 315.569 511.775 315.938 511.309 z" fill="rgb(226,213,206)" transform="translate(0,0)"></path>
<path d="M 843.523 555.792 C 834.45 542.386 825.501 528.795 816.15 515.698 C 815.456 514.726 819.312 512.062 819.859 512.662 C 826.435 519.878 832.669 529.857 838.571 537.985 C 839.19 538.33 839.166 538.546 839.535 539.201 C 845.224 546.643 843.834 546.084 843.523 555.792 z" fill="rgb(226,213,206)" transform="translate(0,0)"></path>
<path d="M 507.951 510.576 C 514.505 516.388 513.542 514.293 508.251 522.146 C 502.302 530.976 496.146 539.733 490.078 548.47 C 486.701 551.957 488.086 542.607 488.111 540.45 C 497.146 529.198 500.199 523.145 507.461 511.358 L 507.951 510.576 z" fill="rgb(226,213,206)" transform="translate(0,0)"></path>
<path d="M 800.626 1466.72 C 800.232 1464.89 797.507 1454.4 798.608 1453.74 C 799.809 1454.4 801.721 1461.15 802.214 1462.81 L 800.626 1466.72 z" fill="rgb(175,112,34)" transform="translate(0,0)"></path>
<path d="M 840.285 1301.13 C 840.568 1302.46 841.832 1308.96 841.403 1310.06 L 841.237 1309.99 L 841.312 1309.87 L 840.156 1308.31 L 840.336 1308.69 C 839.339 1306.45 838.935 1305.29 838.191 1302.91 L 840.285 1301.13 z" fill="rgb(175,112,34)" transform="translate(0,0)"></path>
<path d="M 490.562 1302.68 L 492.624 1303.72 C 492.352 1304.31 491.139 1307.4 490.403 1307.48 C 489.422 1306.55 490.246 1303.82 490.562 1302.68 z" fill="rgb(175,112,34)" transform="translate(0,0)"></path>
<metadata><recraft-signature>{"signed_by": "recraft", "signature_b64": "wTmGD75mOvLy2TlhHur+86JbLKaQ7A7Wb5+JCKQEFNjd6HpEu3TD1zH/xSwU/Tt4FnnbijYhL9FYw3Cp6f2mAA==", "signing_algo": "Ed25519", "generation_timestamp": 1779098852, "identifier": "e46d2047-4ec5-4e94-9081-7ab45c0249f3"}</recraft-signature></metadata></svg>