<svg xmlns="http://www.w3.org/2000/svg" height="768" preserveAspectRatio="none" style="display: block;" version="1.1" viewBox="0 0 2048 1170" width="1344">
<path d="M 0 0 L 2048 0 L 2048 1170 L 0 1170 L 0 0 z" fill="rgb(255,255,255)" transform="translate(0,0)"></path>
<path d="M 867.439 484.302 C 889.29 468.971 902.256 459.603 921.53 440.574 L 921.685 443.839 C 908.166 458.105 886.833 474.681 870.15 485.196 C 912.402 539.379 953.315 571.775 1024.27 581.075 C 1054.9 585.09 1088.61 587.705 1118.88 594.152 C 1121.08 594.6 1122.75 594.719 1124.99 594.915 C 1132.66 589.811 1155.59 530.545 1159.04 518.916 C 1161.71 509.927 1165.11 492.699 1167.63 482.616 L 1169.32 484.88 C 1161.3 529.799 1149.85 555.535 1128.4 595.813 C 1218.5 612.032 1292.45 652.045 1342.99 729.296 C 1385.4 794.113 1421.01 872.647 1455.49 941.883 C 1438.64 949.537 1419.38 957.845 1403.17 966.325 C 1407.45 971.238 1409.36 973.783 1410.44 980.309 L 1408.48 982.981 C 1407.72 979.065 1408.23 978.307 1405.88 975.637 C 1401.38 976.296 1331.49 1005.36 1329.02 1007.51 L 1327.36 1009.45 C 1326.08 1007.27 1325.17 1006.05 1323.62 1004.04 C 1319.79 1003.12 1284.64 1020.79 1278.41 1023.76 C 1256.33 965.74 1237.04 903.298 1206.91 849.105 C 1178.78 798.506 1137.26 776.424 1082.71 761.987 C 1064.52 812.186 1016.2 910.647 970.977 940.068 C 909.334 980.176 843.897 964.339 778.636 950.768 L 681.705 930.58 C 689.762 902.229 697.985 873.925 706.375 845.671 C 701.697 844.784 696.844 842.965 692.306 841.416 C 682.076 852.368 673.851 850.017 661.226 845.197 C 654.526 863.18 641.274 885.908 629.913 901.335 C 612.649 924.776 590.315 930.171 567.245 912.18 C 562.195 914.161 557.468 915.772 551.967 915.348 C 545.266 914.83 538.789 911.96 534.457 906.732 C 530.182 901.573 528.912 894.865 529.713 888.328 C 530.707 880.222 614.023 726.216 623.88 709.541 C 626.824 704.562 629.88 698.843 634.505 695.265 C 639.38 691.494 645.329 689.197 651.537 690.092 C 657.947 691.015 663.643 695.1 667.408 700.258 C 673.202 708.192 673.141 715.191 671.777 724.434 C 691.966 733.958 710.012 739.459 720.328 758.857 L 730.629 762.72 C 733.003 754.769 734.972 746.916 737.014 738.876 L 812.254 762.238 C 825.197 766.239 838.715 771.153 851.893 773.938 C 870.311 777.831 875.733 764.745 881.927 751.25 C 892.309 728.635 902.867 706.201 915.551 684.914 C 879.634 632.466 875.465 583.573 902.854 526.354 C 890.597 516.867 875.919 497.026 867.439 484.302 z" fill="rgb(71,106,177)" transform="translate(0,0)"></path>
<path d="M 867.439 484.302 C 889.29 468.971 902.256 459.603 921.53 440.574 L 921.685 443.839 C 908.166 458.105 886.833 474.681 870.15 485.196 C 912.402 539.379 953.315 571.775 1024.27 581.075 C 1054.9 585.09 1088.61 587.705 1118.88 594.152 L 1117.61 596.584 C 1097.7 592.935 1077.69 589.837 1057.62 587.295 C 990.175 579.253 958.243 575.822 904.516 527.855 C 896.555 545.667 891.229 559.302 888.959 578.489 C 880.798 647.467 922.731 707.569 984.959 734.201 C 1014.2 746.717 1043.25 750.93 1074.19 757.335 C 1169.42 778.442 1204.97 822.852 1239.03 910.264 C 1252.96 946.839 1266.55 983.546 1279.78 1020.38 L 1360.49 982.668 C 1371.91 977.389 1391.69 969.02 1402.11 963.407 L 1403.17 966.325 C 1407.45 971.238 1409.36 973.783 1410.44 980.309 L 1408.48 982.981 C 1407.72 979.065 1408.23 978.307 1405.88 975.637 C 1401.38 976.296 1331.49 1005.36 1329.02 1007.51 L 1327.36 1009.45 C 1326.08 1007.27 1325.17 1006.05 1323.62 1004.04 C 1319.79 1003.12 1284.64 1020.79 1278.41 1023.76 C 1256.33 965.74 1237.04 903.298 1206.91 849.105 C 1178.78 798.506 1137.26 776.424 1082.71 761.987 C 1064.52 812.186 1016.2 910.647 970.977 940.068 C 909.334 980.176 843.897 964.339 778.636 950.768 L 681.705 930.58 C 689.762 902.229 697.985 873.925 706.375 845.671 C 701.697 844.784 696.844 842.965 692.306 841.416 C 682.076 852.368 673.851 850.017 661.226 845.197 C 654.526 863.18 641.274 885.908 629.913 901.335 C 612.649 924.776 590.315 930.171 567.245 912.18 C 562.195 914.161 557.468 915.772 551.967 915.348 C 545.266 914.83 538.789 911.96 534.457 906.732 C 530.182 901.573 528.912 894.865 529.713 888.328 C 530.707 880.222 614.023 726.216 623.88 709.541 C 626.824 704.562 629.88 698.843 634.505 695.265 C 639.38 691.494 645.329 689.197 651.537 690.092 C 657.947 691.015 663.643 695.1 667.408 700.258 C 673.202 708.192 673.141 715.191 671.777 724.434 C 691.966 733.958 710.012 739.459 720.328 758.857 L 730.629 762.72 C 733.003 754.769 734.972 746.916 737.014 738.876 L 812.254 762.238 C 825.197 766.239 838.715 771.153 851.893 773.938 C 870.311 777.831 875.733 764.745 881.927 751.25 C 892.309 728.635 902.867 706.201 915.551 684.914 C 879.634 632.466 875.465 583.573 902.854 526.354 C 890.597 516.867 875.919 497.026 867.439 484.302 z" fill="rgb(41,21,18)" transform="translate(0,0)"></path>
<path d="M 916.953 686.646 C 968.265 742.509 1010.6 747.704 1080.59 760.41 C 1072.76 782.518 1063.85 806.532 1051.33 826.532 C 1043.91 846.341 1008.23 898.941 993.644 917.741 C 989.776 922.728 976.092 933.79 970.371 937.357 C 905.409 977.857 846.484 962.43 779.086 948.265 C 747.629 941.556 716.117 935.111 684.552 928.931 C 703.225 866.817 721.338 804.534 738.888 742.093 C 764.026 750.062 789.208 757.892 814.433 765.581 C 842.293 774.106 871.182 790.924 883.199 753.977 C 892.701 732.418 904.882 706.633 916.953 686.646 z" fill="rgb(71,106,177)" transform="translate(0,0)"></path>
<path d="M 916.953 686.646 C 968.265 742.509 1010.6 747.704 1080.59 760.41 C 1072.76 782.518 1063.85 806.532 1051.33 826.532 C 1050.28 799.051 1031.61 781.947 1009.8 768.408 C 969.12 743.152 928.724 742.657 883.199 753.977 C 892.701 732.418 904.882 706.633 916.953 686.646 z" fill="rgb(24,42,90)" transform="translate(0,0)"></path>
<path d="M 659.342 724.292 C 667.66 723.734 680.321 730.936 687.913 734.74 C 701.042 741.317 710.807 745.191 717.498 758.946 C 706.583 774.463 693.834 794.232 692.156 813.364 C 689.726 841.06 694.227 853.443 660.063 842.043 C 651.189 862.328 633.29 896.34 617.836 911.527 C 605.782 920.212 588.399 924.396 575.621 915.636 C 550.127 898.157 566.968 875.467 576.714 856.395 L 598.408 813.562 L 623.951 762.867 C 634.274 742.406 635.532 728.901 659.342 724.292 z" fill="rgb(250,176,35)" transform="translate(0,0)"></path>
<path d="M 646.097 692.516 C 647.415 691.738 647.442 691.696 648.775 692.426 C 656.772 694.023 661.4 696 666.7 702.591 C 667.416 703.226 667.48 702.752 667.448 703.8 C 669.293 707.843 670.849 713.541 670.375 718.009 C 664.23 728.28 646.305 714.913 634.268 737.209 C 621.25 761.321 609.268 786.531 596.89 811.111 C 587.119 830.515 576.719 850.03 566.955 869.493 C 562.21 878.96 557.779 888.201 560.343 898.849 C 560.154 900.923 565.001 908.317 564.386 909.333 C 556.576 922.233 535.505 907.737 532.306 897.824 C 529.852 890.218 534.399 881.537 537.547 875.532 C 553.654 844.804 570.525 814.671 586.86 784.083 C 601.545 756.774 616.381 725.489 633.298 699.358 C 635.614 695.78 642.151 693.802 646.097 692.516 z" fill="rgb(250,176,35)" transform="translate(0,0)"></path>
<path d="M 646.097 692.516 C 647.415 691.738 647.442 691.696 648.775 692.426 C 647.461 692.652 647.387 692.75 646.097 692.516 z" fill="rgb(79,39,29)" transform="translate(0,0)"></path>
<path d="M 666.7 702.591 C 667.416 703.226 667.48 702.752 667.448 703.8 C 666.92 703.348 666.988 703.308 666.7 702.591 z" fill="rgb(79,39,29)" transform="translate(0,0)"></path>
<path d="M 719.342 760.723 L 729.931 765.074 C 726.989 775.014 709.137 840.223 706.041 843.987 C 700.47 842.048 698.059 841.199 692.958 838.355 C 693.602 803.55 699.553 789.282 719.342 760.723 z" fill="rgb(231,121,144)" transform="translate(0,0)"></path>
<path d="M 1118.88 594.152 C 1121.08 594.6 1122.75 594.719 1124.99 594.915 C 1132.66 589.811 1155.59 530.545 1159.04 518.916 C 1161.71 509.927 1165.11 492.699 1167.63 482.616 L 1169.32 484.88 C 1161.3 529.799 1149.85 555.535 1128.4 595.813 C 1218.5 612.032 1292.45 652.045 1342.99 729.296 C 1385.4 794.113 1421.01 872.647 1455.49 941.883 C 1438.64 949.537 1419.38 957.845 1403.17 966.325 L 1402.11 963.407 C 1417.13 955.559 1436.41 947.315 1452.15 940.815 C 1431.66 901.869 1413.48 861.733 1392.88 822.807 C 1375.81 790.539 1360.62 759.318 1339.75 729.247 C 1300.6 671.616 1242.82 629.205 1176.11 609.133 C 1157.05 603.444 1137.19 600.113 1117.61 596.584 L 1118.88 594.152 z" fill="rgb(41,21,18)" transform="translate(0,0)"></path>
<path d="M 1125.98 214.883 L 1129.63 213.863 C 1125.41 220.895 1113.98 238.984 1111.39 245.618 C 1124.09 268.615 1149.95 280.579 1174.94 284.161 C 1178.86 284.723 1187.81 285.998 1189.29 280.982 C 1189.99 278.66 1188.82 273.38 1187.52 271.358 L 1190.91 269.873 L 1190.97 285.096 L 1204.42 284.11 C 1204.18 292.035 1202.21 321.843 1203.09 327.992 C 1208.43 365.416 1263.6 432.49 1306.36 411.669 C 1317.92 405.476 1348.07 377.017 1359.88 366.921 C 1371.63 356.872 1391.71 340.618 1402.93 329.728 C 1403.57 329.114 1404.19 328.491 1404.81 327.857 C 1412.86 336.759 1422.63 348.1 1430.91 356.477 L 1446.68 340.843 C 1446.79 334.802 1446.81 329.816 1448.37 323.89 C 1457.47 289.167 1500.72 280.119 1525.01 306.141 C 1533.32 314.898 1537.73 326.65 1537.23 338.714 C 1536.11 367.274 1517.91 375.257 1496.73 383.582 C 1492.72 385.16 1479.6 399.713 1474.85 403.733 L 1501.28 432.607 C 1460.52 468.387 1397.82 519.081 1345.18 532.697 C 1335.78 536.139 1322.45 537.183 1312.66 538.155 C 1271.11 542.73 1233.4 530.301 1199.1 507.294 C 1192.79 503.062 1174.25 486.495 1169.32 484.88 L 1167.63 482.616 C 1165.11 492.699 1161.71 509.927 1159.04 518.916 C 1155.59 530.545 1132.66 589.811 1124.99 594.915 C 1122.75 594.719 1121.08 594.6 1118.88 594.152 C 1088.61 587.705 1054.9 585.09 1024.27 581.075 C 953.315 571.775 912.402 539.379 870.15 485.196 C 886.833 474.681 908.166 458.105 921.685 443.839 L 921.53 440.574 C 953.415 408.791 968.008 379.239 992.276 342.055 C 993.717 339.847 993.479 340.557 992.929 338.33 C 885.263 321.351 863.866 375.667 816.531 458.341 C 809.001 453.532 798.076 446.09 790.45 442.061 C 787.88 444.81 787.31 445.73 785.366 448.869 L 783.619 446.845 C 779.819 441.46 740.737 414.525 732.465 408.722 L 730.362 409.364 L 728.299 408.487 C 728.725 407.404 730.314 404.578 730.918 403.43 C 725.185 399.02 707.228 388.205 700.367 383.847 C 744.042 321.931 793.801 259.44 866.854 231.791 C 938.193 204.792 1013.82 212.446 1082.41 243.102 C 1092.85 240.121 1104.92 239.576 1114.5 234.147 C 1118.38 227.923 1122.66 221.384 1125.98 214.883 z" fill="rgb(232,84,70)" transform="translate(0,0)"></path>
<path d="M 1085.86 244.498 C 1094.07 243.114 1102.24 241.507 1110.36 239.679 L 1111.31 240.376 C 1110.06 246.137 1109.65 247.635 1113.22 252.774 C 1133.41 281.829 1169.4 288.213 1201.98 286.845 C 1201.93 304.699 1200.61 322.121 1199.75 339.929 L 1199.62 340.598 C 1197.78 350.677 1197.59 363.97 1196.12 374.491 C 1191.56 407.008 1182.8 453.917 1167.63 482.616 C 1165.11 492.699 1161.71 509.927 1159.04 518.916 C 1155.59 530.545 1132.66 589.811 1124.99 594.915 C 1122.75 594.719 1121.08 594.6 1118.88 594.152 C 1088.61 587.705 1054.9 585.09 1024.27 581.075 C 953.315 571.775 912.402 539.379 870.15 485.196 C 886.833 474.681 908.166 458.105 921.685 443.839 L 921.53 440.574 C 953.415 408.791 968.008 379.239 992.276 342.055 C 993.717 339.847 993.479 340.557 992.929 338.33 L 993.525 336.133 C 1015.15 339.69 1029.3 347.277 1047.32 358.791 C 1062.21 368.302 1088.34 368.107 1103.34 358.706 C 1124.9 345.184 1137.42 317.642 1128.87 292.802 C 1120.98 268.706 1106.84 258.776 1086.08 247.647 L 1085.86 244.498 z" fill="rgb(232,84,70)" transform="translate(0,0)"></path>
<path d="M 1086.08 247.647 L 1085.86 244.498 C 1106.42 255.751 1124.25 267.288 1131.41 291.492 C 1136.18 307.091 1134.38 323.96 1126.42 338.2 C 1116.66 355.626 1100.54 365.162 1082.07 370.397 C 1057.06 377.489 1037.16 366.378 1013.74 360.098 C 1004.39 357.591 995.349 357.732 985.613 357.748 C 967.95 384.654 946.139 423.154 921.685 443.839 L 921.53 440.574 C 953.415 408.791 968.008 379.239 992.276 342.055 C 993.717 339.847 993.479 340.557 992.929 338.33 L 993.525 336.133 C 1015.15 339.69 1029.3 347.277 1047.32 358.791 C 1062.21 368.302 1088.34 368.107 1103.34 358.706 C 1124.9 345.184 1137.42 317.642 1128.87 292.802 C 1120.98 268.706 1106.84 258.776 1086.08 247.647 z" fill="rgb(41,21,18)" transform="translate(0,0)"></path>
<path d="M 1125.98 214.883 L 1129.63 213.863 C 1125.41 220.895 1113.98 238.984 1111.39 245.618 C 1124.09 268.615 1149.95 280.579 1174.94 284.161 C 1178.86 284.723 1187.81 285.998 1189.29 280.982 C 1189.99 278.66 1188.82 273.38 1187.52 271.358 L 1190.91 269.873 L 1190.97 285.096 L 1204.42 284.11 C 1204.18 292.035 1202.21 321.843 1203.09 327.992 C 1208.43 365.416 1263.6 432.49 1306.36 411.669 C 1317.92 405.476 1348.07 377.017 1359.88 366.921 C 1371.63 356.872 1391.71 340.618 1402.93 329.728 C 1403.57 329.114 1404.19 328.491 1404.81 327.857 C 1412.86 336.759 1422.63 348.1 1430.91 356.477 L 1446.68 340.843 C 1446.79 334.802 1446.81 329.816 1448.37 323.89 C 1457.47 289.167 1500.72 280.119 1525.01 306.141 C 1533.32 314.898 1537.73 326.65 1537.23 338.714 C 1536.11 367.274 1517.91 375.257 1496.73 383.582 C 1492.72 385.16 1479.6 399.713 1474.85 403.733 L 1501.28 432.607 C 1460.52 468.387 1397.82 519.081 1345.18 532.697 C 1335.78 536.139 1322.45 537.183 1312.66 538.155 C 1271.11 542.73 1233.4 530.301 1199.1 507.294 C 1192.79 503.062 1174.25 486.495 1169.32 484.88 L 1167.63 482.616 C 1182.8 453.917 1191.56 407.008 1196.12 374.491 C 1197.59 363.97 1197.78 350.677 1199.62 340.598 L 1199.75 339.929 C 1200.61 322.121 1201.93 304.699 1201.98 286.845 C 1169.4 288.213 1133.41 281.829 1113.22 252.774 C 1109.65 247.635 1110.06 246.137 1111.31 240.376 L 1110.36 239.679 C 1102.24 241.507 1094.07 243.114 1085.86 244.498 L 1086.08 247.647 C 1024.67 216.181 947.5 209.04 881.157 229.375 C 807.679 251.896 745.296 320.188 703.715 383.489 C 713.559 389.318 724.114 395.328 733.58 401.65 L 731.546 403.477 L 730.918 403.43 C 725.185 399.02 707.228 388.205 700.367 383.847 C 744.042 321.931 793.801 259.44 866.854 231.791 C 938.193 204.792 1013.82 212.446 1082.41 243.102 C 1092.85 240.121 1104.92 239.576 1114.5 234.147 C 1118.38 227.923 1122.66 221.384 1125.98 214.883 z" fill="rgb(232,84,70)" transform="translate(0,0)"></path>
<path d="M 1125.98 214.883 L 1129.63 213.863 C 1125.41 220.895 1113.98 238.984 1111.39 245.618 C 1124.09 268.615 1149.95 280.579 1174.94 284.161 C 1178.86 284.723 1187.81 285.998 1189.29 280.982 C 1189.99 278.66 1188.82 273.38 1187.52 271.358 L 1190.91 269.873 L 1190.97 285.096 L 1204.42 284.11 C 1204.18 292.035 1202.21 321.843 1203.09 327.992 C 1208.43 365.416 1263.6 432.49 1306.36 411.669 C 1317.92 405.476 1348.07 377.017 1359.88 366.921 C 1371.63 356.872 1391.71 340.618 1402.93 329.728 C 1403.57 329.114 1404.19 328.491 1404.81 327.857 C 1412.86 336.759 1422.63 348.1 1430.91 356.477 L 1446.68 340.843 C 1446.79 334.802 1446.81 329.816 1448.37 323.89 C 1457.47 289.167 1500.72 280.119 1525.01 306.141 C 1533.32 314.898 1537.73 326.65 1537.23 338.714 C 1536.11 367.274 1517.91 375.257 1496.73 383.582 C 1492.72 385.16 1479.6 399.713 1474.85 403.733 L 1501.28 432.607 C 1460.52 468.387 1397.82 519.081 1345.18 532.697 L 1344.95 530.083 C 1401.2 513.72 1454.35 469.555 1498.45 432.038 C 1488.47 423.29 1478.87 411.628 1469.53 401.893 C 1447.82 379.275 1426.7 354.21 1404.68 332.133 C 1381.72 349.959 1360.52 370.946 1338 389.398 C 1328.07 397.536 1317.72 408.06 1306.46 414.153 C 1281.89 427.451 1255.16 407.973 1237.52 391.726 C 1223.9 379.113 1214.66 364.494 1206.47 348.204 C 1205.63 345.716 1204.59 343.731 1203.49 341.366 C 1204.21 340.047 1203.98 340.601 1203.97 338.946 C 1202.37 339.763 1201.63 340.249 1199.75 339.929 C 1200.61 322.121 1201.93 304.699 1201.98 286.845 C 1169.4 288.213 1133.41 281.829 1113.22 252.774 C 1109.65 247.635 1110.06 246.137 1111.31 240.376 L 1110.36 239.679 C 1102.24 241.507 1094.07 243.114 1085.86 244.498 L 1086.08 247.647 C 1024.67 216.181 947.5 209.04 881.157 229.375 C 807.679 251.896 745.296 320.188 703.715 383.489 C 713.559 389.318 724.114 395.328 733.58 401.65 L 731.546 403.477 L 730.918 403.43 C 725.185 399.02 707.228 388.205 700.367 383.847 C 744.042 321.931 793.801 259.44 866.854 231.791 C 938.193 204.792 1013.82 212.446 1082.41 243.102 C 1092.85 240.121 1104.92 239.576 1114.5 234.147 C 1118.38 227.923 1122.66 221.384 1125.98 214.883 z" fill="rgb(41,21,18)" transform="translate(0,0)"></path>
<path d="M 1489.49 293.28 C 1514.46 292.777 1535.56 313.623 1534.7 336.766 C 1533.67 364.374 1518.99 372.712 1496.69 380.285 C 1493.92 381.225 1479.15 396.407 1475.63 399.922 L 1473.92 401.276 C 1469.95 400.163 1438.51 364.276 1432.49 357.917 L 1449.6 341.554 C 1445.65 314.672 1464.22 297.089 1489.49 293.28 z" fill="rgb(231,121,144)" transform="translate(0,0)"></path>
<path d="M 1199.75 339.929 C 1201.63 340.249 1202.37 339.763 1203.97 338.946 C 1203.98 340.601 1204.21 340.047 1203.49 341.366 C 1204.59 343.731 1205.63 345.716 1206.47 348.204 C 1205.14 351.588 1205.37 354.624 1204.92 358.444 C 1205.5 381.635 1209.8 456.381 1216.5 475.271 C 1220.78 487.31 1228.3 497.917 1237.5 506.696 C 1256.8 525.122 1284.98 536.027 1311.67 535.341 C 1322.96 535.05 1334 532.649 1344.95 530.083 L 1345.18 532.697 C 1335.78 536.139 1322.45 537.183 1312.66 538.155 C 1271.11 542.73 1233.4 530.301 1199.1 507.294 C 1192.79 503.062 1174.25 486.495 1169.32 484.88 L 1167.63 482.616 C 1182.8 453.917 1191.56 407.008 1196.12 374.491 C 1197.59 363.97 1197.78 350.677 1199.62 340.598 L 1199.75 339.929 z" fill="rgb(41,21,18)" transform="translate(0,0)"></path>
<path d="M 1203.49 341.366 C 1204.59 343.731 1205.63 345.716 1206.47 348.204 C 1205.14 351.588 1205.37 354.624 1204.92 358.444 C 1204.01 353.6 1203.2 346.269 1203.49 341.366 z" fill="rgb(212,75,65)" transform="translate(0,0)"></path>
<path d="M 815.08 454.91 C 836.791 422.155 856.002 375.139 889.298 351.637 C 919.611 330.242 958.413 330.008 993.525 336.133 L 992.929 338.33 C 885.263 321.351 863.866 375.667 816.531 458.341 C 809.001 453.532 798.076 446.09 790.45 442.061 L 792.796 440.691 L 815.08 454.91 z" fill="rgb(41,21,18)" transform="translate(0,0)"></path>
<path d="M 733.58 401.65 C 753.028 414.249 773.815 427.527 792.796 440.691 L 790.45 442.061 C 787.88 444.81 787.31 445.73 785.366 448.869 L 783.619 446.845 C 779.819 441.46 740.737 414.525 732.465 408.722 L 730.362 409.364 L 728.299 408.487 C 728.725 407.404 730.314 404.578 730.918 403.43 L 731.546 403.477 L 733.58 401.65 z" fill="rgb(41,21,18)" transform="translate(0,0)"></path>
<path d="M 1034.1 33.9927 C 1039.56 8.8299 1060.76 5.05414 1078.69 22.4862 C 1080.2 21.9044 1081.72 21.3676 1083.26 20.8766 C 1100.5 15.4841 1111.84 26.8568 1116.48 42.4155 C 1167.73 1.61929 1236.24 4.08428 1282.16 51.579 C 1305.67 80.8474 1306.37 97.9866 1306.06 135.291 C 1305.96 146.824 1306.59 161.002 1305.35 172.348 C 1303.06 195.536 1291.46 216.802 1273.2 231.28 C 1253.75 246.555 1229.05 253.541 1204.48 250.72 C 1200.08 250.207 1196.5 249.503 1192.24 248.419 C 1191.05 253.249 1191.16 264.235 1190.91 269.873 L 1187.52 271.358 C 1188.82 273.38 1189.99 278.66 1189.29 280.982 C 1187.81 285.998 1178.86 284.723 1174.94 284.161 C 1149.95 280.579 1124.09 268.615 1111.39 245.618 C 1113.98 238.984 1125.41 220.895 1129.63 213.863 L 1125.98 214.883 C 1124.62 214.145 1123.3 213.352 1122.01 212.506 C 1098.18 196.962 1085.17 171.271 1079.4 144.159 L 1078.9 142.564 C 1057.98 153.941 1044.65 148.613 1037.02 126.241 C 1036.04 126.279 1035.07 126.306 1034.09 126.319 C 1024.88 126.429 1018.55 123.129 1011 116.946 C 1002.83 110.255 1009.14 95.2207 1006.67 90.4654 C 1001.04 80.611 992.958 77.4674 994.2 63.8239 C 996.337 40.3381 1014.18 33.3333 1034.1 33.9927 z" fill="rgb(79,39,29)" transform="translate(0,0)"></path>
<path d="M 1282.16 51.579 C 1305.67 80.8474 1306.37 97.9866 1306.06 135.291 C 1305.96 146.824 1306.59 161.002 1305.35 172.348 C 1303.06 195.536 1291.46 216.802 1273.2 231.28 C 1253.75 246.555 1229.05 253.541 1204.48 250.72 C 1200.08 250.207 1196.5 249.503 1192.24 248.419 C 1191.05 253.249 1191.16 264.235 1190.91 269.873 L 1187.52 271.358 C 1188.82 273.38 1189.99 278.66 1189.29 280.982 C 1187.81 285.998 1178.86 284.723 1174.94 284.161 C 1149.95 280.579 1124.09 268.615 1111.39 245.618 C 1113.98 238.984 1125.41 220.895 1129.63 213.863 C 1133.11 209.951 1149.47 179.374 1152.66 173.522 C 1155.5 172.536 1160.14 171.357 1161.66 169.034 C 1158.91 167.975 1155.05 169.684 1151.93 170.609 C 1148.18 169.697 1143.42 168.394 1140.15 166.35 C 1135.31 163.335 1131.85 158.534 1130.52 152.986 C 1129.14 146.909 1130.24 140.534 1133.56 135.265 C 1141.04 123.361 1154.03 123.376 1164.99 130.381 C 1167.77 130.448 1171.14 129.983 1173.15 131.212 C 1191.37 130.676 1239.79 94.8453 1252.62 81.0629 C 1257.21 76.1328 1277.34 54.1583 1280.68 53.0829 L 1282.16 51.579 z" fill="rgb(231,121,144)" transform="translate(0,0)"></path>
<path d="M 1282.16 51.579 C 1305.67 80.8474 1306.37 97.9866 1306.06 135.291 C 1305.96 146.824 1306.59 161.002 1305.35 172.348 C 1303.06 195.536 1291.46 216.802 1273.2 231.28 C 1253.75 246.555 1229.05 253.541 1204.48 250.72 C 1200.08 250.207 1196.5 249.503 1192.24 248.419 L 1195.45 246.725 C 1244.02 255.329 1291.26 230.099 1301.71 180.386 C 1306.3 158.595 1303.48 123.447 1302.6 100.791 C 1301.92 83.5484 1290.37 66.93 1280.68 53.0829 L 1282.16 51.579 z" fill="rgb(41,21,18)" transform="translate(0,0)"></path>
<path d="M 1165.92 232.352 C 1176.45 238.926 1182.66 243.822 1195.45 246.725 L 1192.24 248.419 C 1191.05 253.249 1191.16 264.235 1190.91 269.873 L 1187.52 271.358 C 1180.8 261.192 1171.27 243.253 1165.92 232.352 z" fill="rgb(41,21,18)" transform="translate(0,0)"></path>
<path d="M 1164.99 130.381 C 1167.77 130.448 1171.14 129.983 1173.15 131.212 C 1168.65 136.208 1174.29 136.23 1174.5 140.225 C 1174.86 146.868 1167.01 132.492 1164.99 130.381 z" fill="rgb(41,21,18)" transform="translate(0,0)"></path>
<path d="M 1078.9 142.564 C 1076.45 106.151 1082.87 79.7427 1107.63 51.7637 C 1110.33 48.7113 1114 43.81 1117.79 43.0522 C 1117.03 47.9887 1106.55 55.3108 1103.12 60.0793 C 1089.06 79.6484 1080.65 101.218 1080.72 125.517 C 1080.73 130.479 1082.73 141.062 1079.4 144.159 L 1078.9 142.564 z" fill="rgb(41,21,18)" transform="translate(0,0)"></path>
<path d="M 1329.02 1007.51 C 1331.49 1005.36 1401.38 976.296 1405.88 975.637 C 1408.23 978.307 1407.72 979.065 1408.48 982.981 L 1410.44 980.309 C 1429.24 983.584 1430.26 998.762 1435.75 1015.11 C 1459.46 1005.92 1504.48 987.764 1529.22 998.726 C 1538.42 1002.87 1545.6 1010.5 1549.16 1019.94 C 1550.22 1022.83 1551.33 1026.65 1552.07 1029.67 C 1566.12 1030.63 1575.05 1036.68 1575.19 1052.29 C 1575.23 1057.09 1571.53 1063.65 1567.7 1066.81 C 1549.66 1076.94 1523.39 1085.87 1504.48 1093.83 C 1477.82 1105.05 1449.88 1117.92 1423.07 1127.62 C 1422.85 1132.66 1422.62 1137.18 1418.36 1140.67 C 1407.88 1149.26 1383.99 1163.8 1372.54 1150.33 C 1367.75 1144.7 1361.45 1132.37 1358.45 1125.31 C 1359.04 1119.89 1359.56 1115.11 1360.54 1109.71 C 1350.73 1098.58 1337.56 1067.29 1330.56 1053.09 C 1327.73 1047.35 1330.18 1037.05 1335.45 1032.5 C 1336.64 1031.5 1337.85 1030.54 1339.09 1029.61 C 1334.18 1022.29 1331.31 1017.41 1327.36 1009.45 L 1329.02 1007.51 z" fill="rgb(41,21,18)" transform="translate(0,0)"></path>
<path d="M 1329.02 1007.51 C 1331.49 1005.36 1401.38 976.296 1405.88 975.637 C 1408.23 978.307 1407.72 979.065 1408.48 982.981 C 1395.14 1004.17 1378.82 1020.86 1353.42 1026.72 C 1349.59 1027.58 1345.74 1028.37 1341.88 1029.1 C 1336.8 1021.59 1333.39 1015.5 1329.02 1007.51 z" fill="rgb(231,121,144)" transform="translate(0,0)"></path>
<path d="M 1411.85 982.477 C 1426.48 984.345 1430.22 1006.76 1434.19 1019.22 C 1437.71 1017.53 1441.26 1015.88 1444.83 1014.29 C 1472.52 1002.04 1531.5 981.826 1546.38 1020.24 C 1557.99 1050.22 1527.47 1056.97 1506.45 1065.68 C 1491.24 1071.98 1476.53 1077.83 1461.63 1084.03 C 1446.84 1089.97 1432.14 1096.15 1417.55 1102.55 C 1402.85 1108.85 1371.79 1124.86 1359.62 1104.1 C 1350.39 1088.38 1339.03 1068.01 1332.94 1051.24 C 1327.36 1035.86 1343.25 1029.84 1355.11 1028.52 C 1383.04 1022.52 1397.14 1005.32 1411.85 982.477 z" fill="rgb(250,176,35)" transform="translate(0,0)"></path>
<path d="M 1551.49 1032 C 1565.72 1031.81 1576.09 1043.24 1571.67 1056.77 C 1570.47 1060.39 1568.09 1063.49 1564.91 1065.58 C 1560.9 1068.22 1556.13 1070.3 1551.67 1072.09 C 1522.68 1083.71 1493.81 1095.41 1465.17 1107.89 C 1450.95 1114.09 1436.32 1119.27 1422.26 1125.96 C 1416.8 1144.4 1398.05 1153.89 1379.73 1152.96 C 1370.99 1148.38 1355.9 1122.16 1363.31 1112.32 C 1367.62 1112.01 1376.52 1121.05 1389.15 1116.54 C 1407.19 1110.11 1424.3 1102.27 1441.97 1094.96 L 1502.17 1070.13 C 1514.92 1064.86 1530.63 1058.97 1542.24 1051.67 C 1548.86 1047.52 1550.16 1039.15 1551.49 1032 z" fill="rgb(250,176,35)" transform="translate(0,0)"></path>
<path d="M 730.362 409.364 L 732.465 408.722 C 740.737 414.525 779.819 441.46 783.619 446.845 L 785.366 448.869 C 781.407 455.515 776.506 461.814 771.888 468.042 C 772.678 478.505 772.588 488.1 768.195 497.877 C 763.206 508.843 754.026 517.348 742.711 521.486 C 730.814 525.802 717.684 525.17 706.255 519.734 C 695.045 514.509 686.455 504.934 682.472 493.225 C 673.333 465.938 687.825 442.878 714.455 434.539 C 719.254 425.954 723.87 417.268 728.299 408.487 L 730.362 409.364 z" fill="rgb(231,121,144)" transform="translate(0,0)"></path>
<path d="M 728.299 408.487 L 730.362 409.364 C 726.545 418.765 720.942 427.455 716.514 436.592 C 693.631 440.046 679.691 462.534 683.069 484.872 C 684.743 496.513 691.143 506.95 700.76 513.72 C 710.378 520.55 722.302 523.312 733.943 521.406 C 745.324 519.516 755.456 513.102 762.033 503.623 C 770.329 491.695 770.457 480.661 769.547 466.987 C 774.092 460.537 779.366 453.397 783.619 446.845 L 785.366 448.869 C 781.407 455.515 776.506 461.814 771.888 468.042 C 772.678 478.505 772.588 488.1 768.195 497.877 C 763.206 508.843 754.026 517.348 742.711 521.486 C 730.814 525.802 717.684 525.17 706.255 519.734 C 695.045 514.509 686.455 504.934 682.472 493.225 C 673.333 465.938 687.825 442.878 714.455 434.539 C 719.254 425.954 723.87 417.268 728.299 408.487 z" fill="rgb(41,21,18)" transform="translate(0,0)"></path>
<path d="M 663.003 644.429 C 664.495 644.215 665.582 644.379 667.09 644.466 L 667.575 645.718 C 666.681 646.35 645.142 649.518 641.406 650.404 C 582.261 664.424 541.019 712.141 534.741 773.064 C 534.654 774.303 534.601 773.974 533.865 775.183 C 530.403 772.444 532.769 763.043 533.544 758.916 C 538.015 735.697 548.307 713.992 563.455 695.835 C 589.563 664.15 622.541 648.239 663.003 644.429 z" fill="rgb(79,39,29)" transform="translate(0,0)"></path>
<path d="M 608.587 615.044 L 611.095 615.05 L 611.964 616.041 C 610.274 617.808 592.398 623.026 588.252 624.635 C 578.564 628.413 569.298 633.195 560.607 638.903 C 524.233 662.748 498.904 700.147 490.261 742.773 L 489.448 743.96 L 488.173 744.113 C 486.317 734.219 500.773 702.471 506.232 693.057 C 530.395 651.385 562.899 627.758 608.587 615.044 z" fill="rgb(79,39,29)" transform="translate(0,0)"></path>
<path d="M 1160.48 1028.37 C 1161.12 1028.74 1161.9 1029.19 1162.81 1029.71 C 1168.92 1042.61 1174.44 1056.04 1182.11 1068.03 C 1191.1 1082.08 1196.19 1089.48 1207.85 1100.6 C 1221.46 1113.81 1237.14 1124.68 1254.27 1132.81 C 1267.3 1138.98 1282.04 1142.49 1295.84 1146.54 C 1295.84 1146.55 1297.79 1148.56 1297.97 1148.74 C 1268.24 1148.29 1222.14 1120.36 1202.45 1098.98 C 1187.45 1082.69 1164.48 1050.24 1160.48 1028.37 z" fill="rgb(79,39,29)" transform="translate(0,0)"></path>
<path d="M 1202.73 995.347 C 1206.31 996.846 1206.53 1000.21 1207.55 1003.89 C 1219.6 1047.19 1255.12 1083.65 1298.06 1096.93 C 1301.76 1098.08 1313.01 1099.99 1315.23 1102.8 C 1315 1102.88 1313.29 1103.44 1313.03 1103.4 C 1262.23 1097.47 1209.87 1044.71 1202.73 995.347 z" fill="rgb(79,39,29)" transform="translate(0,0)"></path>
<metadata><recraft-signature>{"signed_by": "recraft", "signature_b64": "u3aZ6zUvma2XUN0S2M+kRcX5D4c8RjReMoHlRkDrOwHWip+ZfISVnGwi+KGU2HvX6fIu4OeRHlNUkmO1D4IpBQ==", "signing_algo": "Ed25519", "generation_timestamp": 1779006817, "identifier": "b4a332d9-646e-406f-ae2d-d6fae4ebe101"}</recraft-signature></metadata></svg>