<?xml version="1.0" encoding="utf-8" ?><svg xmlns="http://www.w3.org/2000/svg" xmlns:xlink="http://www.w3.org/1999/xlink" width="1024" height="1024" viewBox="0 0 1024 1024"><path fill="white" d="M0 0L1024 0L1024 1024L0 1024L0 0Z"/><path fill="#1C1A1A" d="M480.648 153.077C483.575 152.825 488.315 152.227 490.617 154.396C507.893 170.68 518.768 192.899 523.345 215.723C526.17 207.35 530.331 200.264 535.757 193.307C551.975 172.839 575.655 159.647 601.594 156.63C607.175 155.95 627.772 154.554 632.001 157.841C633.595 161.046 631.365 169.656 630.729 173.347C623.472 215.459 587.265 249.478 544.804 254.222C538.043 254.978 530.658 254.58 523.843 254.406L519.982 266.457C526.517 263.353 533.84 259.665 540.657 257.472C561.355 250.992 583.77 252.901 603.073 262.789C627.713 275.446 641.784 295.35 650.062 321.198C657.517 322.221 667.962 325.077 675.25 327.127C708.095 336.36 739.724 349.472 769.467 366.186C824.553 397.607 877.606 447.339 894.48 510.317C925.514 626.147 823.482 719.186 727.507 760.658C702.952 771.039 677.691 779.664 651.915 786.468C650.184 786.948 648.451 787.419 646.715 787.879C619.599 795.056 588.401 799.188 560.521 801.461C456.741 809.589 344.941 791.962 254.057 739.157C192.428 703.349 133.928 644.651 125.039 570.95C120.57 533.907 130.537 495.247 149.696 463.457C184.728 405.327 245.417 365.872 307.187 340.904C329.336 331.943 351.116 326.222 374.039 320.301C376.467 313.087 378.713 307.177 382.339 300.432C393.575 279.493 412.665 263.87 435.414 256.998C463.313 248.672 483.514 255.087 507.894 268.318C508.739 263.02 508.764 254.933 508.658 249.511C508.16 224.139 501.885 200.543 480.915 184.539C477.27 181.09 466.617 177.886 465.233 172.954C462.594 163.549 473.381 155.432 480.648 153.077Z"/><path fill="#FDCE72" d="M232.606 388.668C264.169 367.32 298.558 350.482 334.777 338.644C347.548 334.528 360.288 331.87 372.061 328.143C368.054 344.714 366.62 365.871 370.479 382.498C349.687 388.505 329.82 395.743 310.612 405.787C303.504 409.504 297.727 413.355 290.902 417.268C283.851 415.165 276.939 413.029 269.716 411.819C234.497 405.916 190.382 418.951 180.43 457.301C175.426 476.582 176.174 487.693 180.844 506.664C175.738 513.286 171.701 518.537 168.46 526.39C149.772 571.661 178.139 615.43 218.491 636.223C231.98 643.174 238.551 650.451 249.606 660.252C260.571 670.171 272.353 679.149 284.827 687.089C306.669 700.731 329.969 711.888 354.29 720.353C369.811 725.764 384.948 729.783 400.145 736.116C415.004 742.308 433.187 741.482 448.849 742.073C465.092 743.282 481.046 745.136 497.527 745.829C528.006 746.899 558.52 745.321 588.726 741.113C650.934 732.782 717.655 709.353 767.114 669.94C778.318 660.902 788.798 651.001 798.457 640.328C805.602 638.752 812.791 637.382 820.014 636.219C825.324 635.351 830.918 635.068 836.317 633.04C851.699 627.261 841.502 610.844 844.125 602.268C847.802 590.244 857.115 583.617 853.312 568.621C851 559.502 844.157 554.237 842.657 545.12C840.124 528.978 856.326 515.921 855.912 503.493C852.898 492.485 838.803 485.52 832.806 476.259C828.366 469.401 827.653 462.295 822.8 456.744C813.514 446.124 800.573 443.865 790.862 433.481C780.982 422.917 779.796 410.491 770.463 400.39C768.797 398.669 765.771 397.833 763.515 397.278C752.998 400.184 744.635 410.284 735.691 416.503C713.891 402.055 677.958 389.516 652.912 382.26C656.159 363.725 655.701 346.927 652.109 328.535C660.98 330.751 670.112 332.859 678.936 335.576C752.011 358.078 826.715 400.217 867.855 466.744C890.278 503.002 899.057 548.386 888.27 589.51C873.186 649.36 822.149 699.379 770.663 730.098C654.328 799.505 501.176 811.586 371.434 778.699C367.788 777.775 344.863 771.541 342.156 770.128C331.61 767.045 321.42 762.937 311.106 758.886C217.502 722.128 113.065 636.09 133.901 523.529C144.189 467.949 186.568 419.658 232.606 388.668Z"/><path fill="#F79A21" d="M232.606 388.668C232.506 388.96 232.417 389.257 232.306 389.545C231.099 392.673 210.518 409.059 206.188 413.624C174.291 447.248 152.692 483.552 148.956 530.511C146.848 556.993 150.867 581.415 160.21 606.169C187.564 678.638 256.475 730.587 324.98 761.451C328.466 763.021 340.515 767.191 342.156 770.128C331.61 767.045 321.42 762.937 311.106 758.886C217.502 722.128 113.065 636.09 133.901 523.529C144.189 467.949 186.568 419.658 232.606 388.668Z"/><path fill="#E64539" d="M483.068 492.298C448.479 499.783 423.816 474.765 405.214 449.236C365.141 394.243 358.23 293.9 433.346 265.166C443.763 261.181 457.61 258.904 468.673 260.934C476.986 261.698 482.265 263.696 489.924 266.907C497.433 269.903 504.362 276.091 512.64 276.557C518.287 276.875 522.711 273.039 527.438 270.455C560.986 252.121 602.18 260.138 626.131 290.087C661.777 334.66 649.41 399.37 621.001 444.261C605.769 468.3 579.344 495.824 548.115 492.777C534.862 491.483 521.321 483.931 507.659 485.81C500.488 487.043 490.996 490.597 483.068 492.298Z"/><path fill="#CF3230" d="M483.068 492.298C448.479 499.783 423.816 474.765 405.214 449.236C365.141 394.243 358.23 293.9 433.346 265.166C443.763 261.181 457.61 258.904 468.673 260.934C464.809 261.027 463.609 262.416 460.288 263.751C419.773 280.035 395.93 321.351 397.064 364.809C398.046 402.64 413.888 438.562 441.162 464.798C448.444 471.685 453.253 475.385 461.504 480.998C467.613 485.153 479.791 488.516 483.068 492.298Z"/><path fill="#C88553" d="M248.916 417.719C286.486 415.866 330.1 443.099 361.843 461.3C382.287 472.822 402.661 484.468 422.964 496.238C433.476 502.39 444.052 508.434 454.69 514.369C465.51 520.424 476.306 526.276 486.398 533.508C502.814 544.914 523.886 568.15 520.295 589.976C515.737 617.679 484.213 630.612 460.115 633.943C443.75 635.354 427.273 633.209 411.814 627.655C398.689 622.953 383.593 614.392 371.473 607.588L320.861 578.659C307.668 571.173 294.622 563.697 281.452 556.161C260.8 544.87 242.885 535.45 224.242 520.75C201.627 502.918 174.608 467.812 197.519 439.686C209.224 425.317 230.693 419.079 248.916 417.719Z"/><path fill="#F79A21" d="M848.009 506.715L848.528 506.843C848.531 508.303 840.391 521.456 838.826 526.477C835.549 536.984 832.893 544.851 839.004 555.561C841.065 559.173 843.68 562.68 845.287 566.238C852.956 583.228 838.542 588.03 836.539 602.551C835.767 608.147 839.201 618.491 837.398 623.634C835.88 627.964 822.576 628.86 818.037 629.717C804.642 632.245 790.892 634.604 777.483 637.177C769.227 638.761 758.849 640.313 750.877 642.598C742.367 645.037 734.575 653.515 724.724 654.874C711.634 656.681 703.364 650.703 689.287 652.075C681.174 652.912 673.286 655.249 666.025 658.967C659.076 662.591 651.171 667.797 643.541 669.445C626.573 673.111 616.864 661.809 598.899 668.013C589.66 671.204 585.163 675.622 576.975 679.323C575.041 677.412 574.422 676.536 572.843 674.296C569.628 668.65 568.113 665.474 566.548 659.233C574.067 641.56 570.836 641.947 563.377 626.623C560.172 620.039 566.666 614.239 569.427 608.566C577.779 591.403 561.975 580.428 557.306 564.949C564.476 562.595 584.573 559.122 592.825 557.482L661.838 543.539L777.447 520.376C798.65 516.094 827.041 509.253 848.009 506.715Z"/><path fill="#1C1A1A" d="M617.643 600.686C651.463 598.868 656.285 640.661 621.922 644.129C614.208 644.181 608.594 643.432 601.961 638.909C592.056 632.154 589.253 620.384 596.857 610.671C602.165 603.89 609.497 601.649 617.643 600.686Z"/><path fill="#DD7315" d="M615.015 607.587C641.589 605.667 648.464 629.973 623.646 637.225C597.908 639.99 589.036 613.734 615.015 607.587Z"/><path fill="#1C1A1A" d="M703.882 562.631C726.359 561.644 730.538 588.759 708.524 592.868C685.211 593.172 682.076 567.521 703.882 562.631Z"/><path fill="#DD7315" d="M704.848 569.576C717.162 569.407 721.129 582.015 707.502 586.321C694.331 585.957 691.03 573.243 704.848 569.576Z"/><path fill="#1C1A1A" d="M790.375 574.129C798.079 574.457 805.05 577.943 807.74 585.604C808.901 588.989 808.56 592.709 806.801 595.827C803.866 601.122 799.224 602.979 793.634 604.143C791.103 604.202 786.977 604.333 784.698 603.162C768.012 594.591 772.672 576.883 790.375 574.129Z"/><path fill="#DD7315" d="M790.337 581.093C801.581 581.182 806.861 592.453 793.458 597.631C788.171 597.8 783.087 597.085 781.477 591.256C779.821 585.263 785.764 582.207 790.337 581.093Z"/><path fill="#FDCE72" d="M651.659 389.906C679.714 396.189 704.499 407.942 729.679 421.323C717.294 430.776 707.191 433.405 694.713 442.51C685.259 449.409 679.215 458.894 670.612 465.453C663.663 469.35 657.467 471.222 650.674 475.595C643.689 480.092 635.349 494.014 629.516 497.118C605.071 510.125 583.523 525.515 563.012 544.224C558.175 548.636 552 553.875 551.241 560.619C548.156 576.033 561.826 582.873 565.036 596.244C567.278 605.582 555.868 612.133 555.465 620.287C554.648 636.785 570.685 639.091 560.213 657.391C557.289 662.501 568.837 685.63 576.097 685.957C584.282 686.269 596.507 674.338 605.476 673.385C619.541 671.187 628.55 679.559 643.406 676.582C659.205 673.416 667.279 663.755 683.805 659.86C701.234 655.752 708.359 663.767 725.217 661.88C736.626 660.603 745.267 651.359 752.718 649.27C760.453 647.101 777.518 644.566 786.176 642.968C718.11 711.261 614.466 738.797 520.324 739.021C505.96 738.995 491.601 738.468 477.273 737.44C476.148 737.403 466.052 737.434 472.113 735.675C513.029 717.832 536.442 686.925 528.873 641.427C527.391 632.519 527.456 628.076 524.422 618.989C544.294 556.58 498.337 529.795 450.785 503.674C414.62 483.807 378.843 461.871 342.701 441.832C348.461 434.171 368.775 412.939 376.857 409.364C386.941 440.243 413.283 478.711 442.796 493.415C459.074 501.926 477.127 502.658 494.395 496.753C499.129 495.134 508.587 492.143 513.289 492.598C534.782 494.678 548.318 504.885 570.774 497.299C602.105 486.713 622.56 458.117 637.288 429.874C643.789 417.217 647.821 403.56 651.659 389.906Z"/><path fill="#F79A21" d="M477.273 737.44C476.148 737.403 466.052 737.434 472.113 735.675C473.316 736.292 475.72 736.872 477.273 737.44Z"/><path fill="#F79A21" d="M763.421 404.411C764.462 404.662 765.954 405.23 766.566 406.102C772.824 415.021 775.297 425.229 782.056 434.324C791.99 447.689 804.946 449.607 816.219 460.041C821.26 464.707 822.142 471.943 825.608 477.662C830.693 486.053 838.337 492.6 845.503 499.224C821.379 504.642 797.026 509.074 772.767 513.94L630.418 542.862C607.161 547.444 583.574 552.674 560.249 556.48C575.978 541.376 593.058 527.746 611.275 515.76C618.611 510.984 627.364 507.194 634.032 502.468C640.193 498.101 646.405 488.789 652.516 483.265C659.843 476.642 668.237 476.338 675.026 470.954C683.548 464.194 689.476 454.982 698.717 448.147C709.969 439.826 721.162 436.643 732.642 428.338C742.15 421.459 753.444 409.546 763.421 404.411Z"/><path fill="#1C1A1A" d="M744.961 449.654C757.994 448.685 772.105 453.487 775.132 467.838C776.211 472.916 775.079 478.213 772.02 482.406C767.3 488.999 760.448 491.435 752.917 492.807C717.915 495.489 710.432 455.464 744.961 449.654Z"/><path fill="#DD7315" d="M748.41 456.198C774.931 457.084 773.652 482.677 754.251 486.013C753.058 486.23 751.859 486.412 750.655 486.559C742.107 486.364 730.685 482.69 729.579 472.753C729.222 469.322 730.284 465.894 732.52 463.267C736.867 458.175 742.08 456.767 748.41 456.198Z"/><path fill="#F6E5C5" d="M185.616 518.82C187.36 520.384 191.704 528.04 193.645 530.525C213.145 555.489 243.138 570.727 270.234 585.824L315.88 611.577C331.791 620.701 347.749 629.743 363.753 638.703C377.351 646.365 391.223 654.839 405.965 659.928C423.735 666.062 442.45 669.185 461.165 665.812C479.032 662.592 496.58 654.366 509.317 641.209C513.211 637.187 516.572 632.229 519.799 627.644C522.587 638.492 522.25 646.759 517.548 656.829C514.611 662.013 510.945 666.345 506.359 669.843C492.553 680.371 482.813 672.412 468.73 675.69C463.889 676.817 458.009 681.176 453.911 684.089C443.554 691.451 432.316 697.808 419.211 695.573C403.537 692.901 399.342 682.789 391.426 671.086C384.933 661.486 373.178 655.097 361.657 654.594C355.931 654.344 350.276 654.846 344.513 654.022C325.605 651.317 325.035 640.539 315.979 627.326C309.926 618.663 297.535 612.623 287.186 611.747C276.472 610.84 269.119 612.356 259.401 606.632C248.926 600.463 246.584 590.372 239.882 581.051C234.834 574.041 226.557 568.896 217.747 569.14C207.391 569.427 198.556 570.746 192.094 560.665C184.105 548.202 182.972 533.079 185.616 518.82Z"/><path fill="#C88553" d="M170.146 560.296C172.352 562.143 177.562 571.942 179.817 574.952C185.962 583.153 194.399 591.744 202.712 597.708C229.8 617.144 260.395 632.906 289.355 649.525L345.707 681.723C364.398 692.329 381.759 702.891 402.218 709.913C444.669 724.481 492.452 715.168 520.028 677.928C518.272 683.452 516.648 687.046 514.109 692.255C512.025 695.938 509.631 699.437 506.952 702.714C481.388 733.736 435.688 741.792 399.227 727.879C370.765 717.019 347.207 700.972 320.79 686.299C296.801 672.961 272.901 659.463 249.092 645.808C213.867 625.561 174.045 606.144 170.146 560.296Z"/><path fill="#C88553" d="M184.323 485.066L185.723 483.963C194.285 502.878 207.367 516.633 223.262 529.655C234.858 539.155 247.864 545.675 260.889 553.021L303.665 577.305L360.301 609.633C376.017 618.523 391.763 627.871 408.729 634.189C434.896 643.934 465.628 644.62 491.243 632.729C501.278 628.071 512.077 620.917 518.501 611.765C515.138 626.485 503.506 638.913 491.183 646.73C461.193 665.754 423.45 662.104 392.764 646.762C384.212 642.487 376.087 637.658 367.784 632.856C355.754 625.789 343.633 618.879 331.423 612.127L281.847 584.127C253.878 568.575 212.419 547.79 195.37 520.303C188.761 509.683 184.96 497.558 184.323 485.066Z"/><path fill="#F6E5C5" d="M176.278 527.329C176.481 528.052 176.471 527.852 176.506 528.508C177.228 542.063 179.078 556.207 187.964 566.998C198.016 579.204 206.257 575.703 219.247 576.455C233.551 577.282 237.895 594.274 245.525 603.722C252.023 611.768 261.274 617.609 271.864 618.599C276.854 619.065 282.058 618.725 287.125 619.369C298.139 620.768 307.682 626.062 313.186 635.924C315.737 640.496 317.817 645.783 321.1 649.673C332.67 663.38 346.209 660.977 361.884 661.945C372.032 662.572 381.634 668.754 386.896 677.335C389.436 681.303 391.534 685.648 394.518 689.311C399.591 695.539 406.158 699.369 413.868 701.559C425.241 704.788 436.585 702.78 446.868 697.205C454.894 692.853 461.416 686.263 469.988 683.12C474.689 681.397 479.169 682.178 483.968 682.774C496.681 684.514 504.982 679.861 514.646 672.089L511.612 677.068C504.199 687.016 492.469 695.177 481.239 700.214C453.863 712.493 427.185 711.973 399.4 701.285C383.306 695.095 368.939 686.357 354.081 677.809L317.097 656.914L259.878 624.516C240.739 613.696 221.772 603.218 204.372 589.631C187.374 576.36 167.394 550.072 176.278 527.329Z"/><path fill="#206757" d="M614.728 162.737C617.936 162.689 621.932 162.948 625.201 163.076C617.984 214.753 582.038 247.759 529.393 247.566C544.027 228.924 562.814 212.939 582.741 200.184C585.679 198.388 588.976 195.906 586.836 192.046C586.348 191.848 586.015 191.673 585.452 191.653C577.535 191.363 547.02 217.882 540.42 224.402C534.999 229.757 530.15 235.61 525.27 241.451C526.554 222.538 534.386 204.662 547.42 190.895C565.18 171.869 589.141 163.551 614.728 162.737Z"/><path fill="#F79A21" d="M299.666 420.616C316.225 408.494 351.726 395.54 371.376 389.832C373.032 396.39 374.86 402.902 376.857 409.364C368.775 412.939 348.461 434.171 342.701 441.832C327.849 433.655 314.9 427.797 299.666 420.616Z"/><path fill="#206757" d="M490.754 165.038C491.365 165.487 492.453 166.675 492.943 167.301C514.172 194.407 520.101 218.563 516.508 252.046C515.941 248.606 515.688 246.394 515.462 242.915C512.936 214.381 505.502 190.947 479.514 175.271C483.968 171.593 486.687 169.071 490.754 165.038Z"/><defs><linearGradient id="gradient_0" gradientUnits="userSpaceOnUse" x1="306.13852" y1="685.29504" x2="303.89957" y2="688.96143"><stop offset="0" stop-color="#E8A335"/><stop offset="1" stop-color="#FFC664"/></linearGradient></defs><path fill="url(#gradient_0)" d="M268.983 665.487C286.684 675.413 304.334 685.431 321.932 695.538C327.319 698.644 341.166 706.226 345.639 709.641C320.504 699.731 289.207 683.036 267.96 666.471L268.983 665.487Z"/><path fill="#206757" d="M481.762 158.92C490.309 158.37 478.04 167.542 476.234 168.733L475.816 169.013C475.125 169.173 472.412 170.04 473.078 168.044C474.405 164.062 478.323 161.103 481.762 158.92Z"/><path fill="#C88553" d="M267.96 666.471C267.566 666.162 265.469 664.785 265.72 664.169C266.511 663.757 268.288 665.073 268.983 665.487L267.96 666.471Z"/><path fill="#A06542" d="M184.323 485.066C184.336 484.662 184.267 482.18 184.731 481.921C185.222 482.281 185.54 483.4 185.723 483.963L184.323 485.066Z"/></svg>