<svg xmlns="http://www.w3.org/2000/svg" height="1024" preserveAspectRatio="none" style="display: block;" version="1.1" viewBox="0 0 2048 2048" width="1024">
<path d="M 0 0 L 2048 0 L 2048 2048 L 0 2048 L 0 0 z" fill="rgb(255,255,255)" transform="translate(0,0)"></path>
<path d="M 998.188 470.875 L 998.103 376.64 C 998.078 360.158 997.55 339.667 998.842 323.55 C 999.687 372.36 999.04 423.019 999.023 471.967 C 1006.86 471.975 1045.38 472.412 1050.69 471.367 C 1067.14 470.068 1088.29 470.363 1105.13 470.316 C 1137.58 470.25 1170.04 470.371 1202.49 470.679 C 1234.15 470.813 1274.31 466.978 1303.5 476.753 C 1337.45 488.119 1361.41 522.882 1363.43 557.933 C 1364.46 575.158 1363.98 594.045 1364.01 611.73 L 1364.14 706.952 L 1562.57 706.67 C 1580.3 706.794 1628.22 705.879 1643.31 708.878 C 1660.16 712.163 1675.7 720.288 1688.02 732.259 C 1715.4 759.241 1715.03 785.407 1715.11 820.634 L 1715.18 872.118 L 1715.35 1358.04 C 1715.35 1430.51 1715.32 1503.09 1714.99 1575.57 C 1714.98 1578.29 1714.87 1581.58 1716.46 1583.45 C 1719.94 1584.22 1721.81 1584.49 1725.37 1584.87 C 1750.47 1586.61 1771.34 1613.2 1769.92 1638.02 C 1769.05 1651.66 1762.54 1664.32 1751.96 1672.97 C 1732.04 1689.39 1695.27 1685 1670.27 1685 L 1570.31 1685.02 L 1430.49 1685.03 C 1411.56 1685.03 1380.05 1686.03 1362.51 1684.9 C 1356.9 1685.14 1351.28 1685.16 1345.66 1684.96 C 1340.46 1685.59 1325.81 1685.26 1319.98 1685.24 L 1271.18 1685.1 L 1110.11 1685.06 L 838.137 1685.11 L 752.688 1685.21 C 736.761 1685.24 717.993 1685.74 702.245 1685.01 C 674.328 1685.54 644.755 1685.02 616.723 1685.02 L 452.611 1685.1 L 370.048 1685.13 C 355.055 1685.14 337.927 1686.03 323.188 1684.23 C 282.203 1679.22 264.063 1628.93 294.186 1599.59 C 303.721 1590.3 312.833 1585.15 326.53 1584.92 C 335.233 1584.08 335.236 1584.83 335.256 1576.09 C 335.382 1521.16 335.432 1466.2 335.531 1411.27 L 335.568 1005.02 L 335.291 859.844 C 335.188 834.392 334.063 805.12 336.489 780.049 C 338.216 762.193 349.768 744.29 361.843 731.812 C 371.806 721.516 393.399 710.061 407.63 708.447 C 433.903 705.467 467.37 706.786 494.378 706.724 L 686.329 706.409 C 687.112 658.174 685.885 609.801 686.525 561.485 C 685.612 521.591 717.613 479.592 757.996 473.513 C 787.058 469.139 831.111 470.132 861.356 471.183 C 904.348 470.266 955.036 470.107 998.188 470.875 z" fill="rgb(250,218,190)" transform="translate(0,0)"></path>
<path d="M 686.329 706.409 C 687.112 658.174 685.885 609.801 686.525 561.485 C 685.612 521.591 717.613 479.592 757.996 473.513 C 787.058 469.139 831.111 470.132 861.356 471.183 C 877.179 477.021 879.954 497.348 864.575 502.739 C 844.551 508.845 820.945 504.475 800.147 505.74 C 790.285 506.34 778.281 504.819 768.733 507.195 C 742.941 513.614 719.848 538.181 717.706 565.042 C 716.422 581.141 716.537 596.554 716.231 612.202 C 715.75 642.419 715.055 672.632 714.149 702.839 C 709.078 829.91 704.762 957.009 701.202 1084.13 C 699.516 1177.05 701.133 1274.31 701.204 1367.59 L 701.104 1510.69 C 701.08 1534.21 700.385 1561.45 701.187 1584.72 L 699.734 1585.27 L 703.582 1586.48 C 701.142 1589.38 693.604 1590.31 690.083 1592.73 C 662.237 1611.86 657.046 1650.37 683.447 1673.32 C 689.452 1678.54 696.443 1680.71 702.245 1685.01 C 674.328 1685.54 644.755 1685.02 616.723 1685.02 L 452.611 1685.1 L 370.048 1685.13 C 355.055 1685.14 337.927 1686.03 323.188 1684.23 C 282.203 1679.22 264.063 1628.93 294.186 1599.59 C 303.721 1590.3 312.833 1585.15 326.53 1584.92 C 335.233 1584.08 335.236 1584.83 335.256 1576.09 C 335.382 1521.16 335.432 1466.2 335.531 1411.27 L 335.568 1005.02 L 335.291 859.844 C 335.188 834.392 334.063 805.12 336.489 780.049 C 338.216 762.193 349.768 744.29 361.843 731.812 C 371.806 721.516 393.399 710.061 407.63 708.447 C 433.903 705.467 467.37 706.786 494.378 706.724 L 686.329 706.409 z" fill="rgb(242,176,113)" transform="translate(0,0)"></path>
<path d="M 326.53 1584.92 C 349.143 1585.43 375.963 1584.62 399.103 1584.64 L 588.709 1584.91 C 625.137 1584.94 663.582 1584.32 699.734 1585.27 L 703.582 1586.48 C 701.142 1589.38 693.604 1590.31 690.083 1592.73 C 662.237 1611.86 657.046 1650.37 683.447 1673.32 C 689.452 1678.54 696.443 1680.71 702.245 1685.01 C 674.328 1685.54 644.755 1685.02 616.723 1685.02 L 452.611 1685.1 L 370.048 1685.13 C 355.055 1685.14 337.927 1686.03 323.188 1684.23 C 282.203 1679.22 264.063 1628.93 294.186 1599.59 C 303.721 1590.3 312.833 1585.15 326.53 1584.92 z" fill="rgb(194,111,53)" transform="translate(0,0)"></path>
<path d="M 509.625 801.009 C 517.681 800.958 525.736 800.953 533.792 800.994 C 542.211 801.153 550.568 801.046 558.968 801.164 C 583.62 800.66 601.612 803.298 620.443 821.234 C 634.585 834.568 642.755 853.038 643.109 872.471 C 643.291 881.27 643.201 890.352 643.178 899.169 C 643.251 907.062 643.475 915.457 643.185 923.298 C 643.063 948.689 639.939 967.795 621.161 986.655 C 596.108 1011.82 566.782 1007.12 533.931 1007.12 L 509.86 1007.09 C 494.337 1006.91 461.154 1009.47 448.959 1000.78 C 425.958 991.559 409.951 970.816 406.044 946.499 C 404.737 938.365 405.145 931.228 405.008 923.06 C 404.917 915.221 404.93 907.381 405.046 899.542 C 404.955 893.018 404.912 886.492 404.919 879.967 C 405.086 856.67 410.382 838.413 427.466 821.521 C 451.299 797.957 478.923 800.897 509.625 801.009 z" fill="rgb(159,211,234)" transform="translate(0,0)"></path>
<path d="M 533.792 800.994 C 542.211 801.153 550.568 801.046 558.968 801.164 C 583.62 800.66 601.612 803.298 620.443 821.234 C 634.585 834.568 642.755 853.038 643.109 872.471 C 643.291 881.27 643.201 890.352 643.178 899.169 C 607.188 899.743 570.048 899.323 533.965 899.375 L 533.954 811.864 C 533.989 810.619 534.008 809.596 533.99 808.343 C 533.909 805.894 533.842 803.444 533.792 800.994 z" fill="rgb(58,145,189)" transform="translate(0,0)"></path>
<path d="M 533.792 800.994 C 542.211 801.153 550.568 801.046 558.968 801.164 C 557.856 806.833 539.113 807.874 533.99 808.343 C 533.909 805.894 533.842 803.444 533.792 800.994 z" fill="rgb(47,124,169)" transform="translate(0,0)"></path>
<path d="M 533.864 923.339 C 568.886 923.61 608.584 924.565 643.185 923.298 C 643.063 948.689 639.939 967.795 621.161 986.655 C 596.108 1011.82 566.782 1007.12 533.931 1007.12 L 533.864 923.339 z" fill="rgb(58,145,189)" transform="translate(0,0)"></path>
<path d="M 431.291 922.981 C 457.285 923.308 483.852 923.097 509.884 923.056 C 509.685 951.066 509.677 979.078 509.86 1007.09 C 494.337 1006.91 461.154 1009.47 448.959 1000.78 C 425.958 991.559 409.951 970.816 406.044 946.499 C 404.737 938.365 405.145 931.228 405.008 923.06 C 406.201 923.074 407.394 923.11 408.585 923.168 C 416.152 922.966 423.722 922.903 431.291 922.981 z" fill="rgb(58,145,189)" transform="translate(0,0)"></path>
<path d="M 405.008 923.06 C 406.201 923.074 407.394 923.11 408.585 923.168 C 416.602 924.242 423.072 923.85 431.116 923.502 C 431.525 936.08 432.867 948.611 435.132 960.991 C 439.057 979.348 443.055 984.699 448.959 1000.78 C 425.958 991.559 409.951 970.816 406.044 946.499 C 404.737 938.365 405.145 931.228 405.008 923.06 z" fill="rgb(47,124,169)" transform="translate(0,0)"></path>
<path d="M 405.046 899.542 C 404.955 893.018 404.912 886.492 404.919 879.967 C 405.086 856.67 410.382 838.413 427.466 821.521 C 451.299 797.957 478.923 800.897 509.625 801.009 C 509.63 806.488 509.471 811.966 509.149 817.436 C 469.818 827.181 441.543 854.241 433.883 894.487 C 433.612 895.906 433.135 897.361 432.757 898.765 L 435.831 899.199 L 434.821 899.67 C 430.503 901.585 431.476 917.838 431.291 922.981 C 423.722 922.903 416.152 922.966 408.585 923.168 C 407.394 923.11 406.201 923.074 405.008 923.06 C 404.917 915.221 404.93 907.381 405.046 899.542 z" fill="rgb(47,124,169)" transform="translate(0,0)"></path>
<path d="M 432.757 898.765 L 435.831 899.199 L 434.821 899.67 C 430.503 901.585 431.476 917.838 431.291 922.981 C 423.722 922.903 416.152 922.966 408.585 923.168 C 407.394 923.11 406.201 923.074 405.008 923.06 C 404.917 915.221 404.93 907.381 405.046 899.542 C 412.495 899.354 426.204 899.921 432.757 898.765 z" fill="rgb(79,171,211)" transform="translate(0,0)"></path>
<path d="M 509.149 817.436 C 508.427 830.531 509.204 848.045 509.063 861.656 C 508.969 870.703 508.554 891.115 509.545 899.238 C 485.296 899.612 460.192 899.094 435.831 899.199 L 432.757 898.765 C 433.135 897.361 433.612 895.906 433.883 894.487 C 441.543 854.241 469.818 827.181 509.149 817.436 z" fill="rgb(58,145,189)" transform="translate(0,0)"></path>
<path d="M 509.625 801.009 C 517.681 800.958 525.736 800.953 533.792 800.994 C 533.842 803.444 533.909 805.894 533.99 808.343 C 534.008 809.596 533.989 810.619 533.954 811.864 C 527.075 812.229 516.755 814.178 509.926 815.687 L 510.012 872 C 510.012 878.219 510.423 894.188 509.545 899.238 C 508.554 891.115 508.969 870.703 509.063 861.656 C 509.204 848.045 508.427 830.531 509.149 817.436 C 509.471 811.966 509.63 806.488 509.625 801.009 z" fill="rgb(79,171,211)" transform="translate(0,0)"></path>
<path d="M 533.647 1292.29 C 565.66 1291.76 595.173 1288.66 620.209 1312.62 C 636.347 1328.07 642.562 1347.32 642.958 1369.23 C 643.032 1375.34 643.072 1381.46 643.08 1387.58 L 643.266 1410.96 C 643.333 1437.04 641.521 1455.82 621.967 1475.9 C 596.924 1501.61 566.396 1498.14 533.124 1498.03 L 509.906 1497.97 C 488.589 1497.82 467.305 1499.71 447.964 1490.95 C 414.428 1474.84 404.232 1447.3 405.043 1411.98 L 404.899 1411.06 C 404.558 1403.97 404.861 1394.83 404.898 1387.58 C 404.792 1359.53 404.331 1335.84 425.994 1314.18 C 450.781 1289.4 478.115 1292.51 509.95 1292.69 C 517.85 1292.68 525.751 1292.55 533.647 1292.29 z" fill="rgb(159,211,234)" transform="translate(0,0)"></path>
<path d="M 533.647 1292.29 C 565.66 1291.76 595.173 1288.66 620.209 1312.62 C 636.347 1328.07 642.562 1347.32 642.958 1369.23 C 643.032 1375.34 643.072 1381.46 643.08 1387.58 L 533.356 1387.92 C 534.29 1381.48 533.88 1365.23 533.902 1358 C 533.975 1336.1 533.89 1314.19 533.647 1292.29 z" fill="rgb(58,145,189)" transform="translate(0,0)"></path>
<path d="M 404.898 1387.58 C 404.792 1359.53 404.331 1335.84 425.994 1314.18 C 450.781 1289.4 478.115 1292.51 509.95 1292.69 C 509.909 1296.31 509.867 1299.65 509.978 1303.27 L 509.713 1303.89 C 509.615 1331.81 509.707 1359.74 509.989 1387.66 C 501.589 1386.75 486.089 1387.03 477.281 1387.09 C 462.342 1387.19 446.497 1386.72 431.671 1387.13 L 404.898 1387.58 z" fill="rgb(58,145,189)" transform="translate(0,0)"></path>
<path d="M 404.898 1387.58 C 404.792 1359.53 404.331 1335.84 425.994 1314.18 C 450.781 1289.4 478.115 1292.51 509.95 1292.69 C 509.909 1296.31 509.867 1299.65 509.978 1303.27 L 509.713 1303.89 C 504.628 1306.25 498.921 1307.96 493.66 1310.02 C 464.143 1321.57 437.539 1350.04 432.846 1381.99 C 432.591 1383.73 432.107 1385.42 431.671 1387.13 L 404.898 1387.58 z" fill="rgb(47,124,169)" transform="translate(0,0)"></path>
<path d="M 533.023 1411.16 L 643.266 1410.96 C 643.333 1437.04 641.521 1455.82 621.967 1475.9 C 596.924 1501.61 566.396 1498.14 533.124 1498.03 C 534.001 1470.9 533.085 1438.69 533.023 1411.16 z" fill="rgb(58,145,189)" transform="translate(0,0)"></path>
<path d="M 431.468 1411.1 C 457.624 1411.29 483.78 1411.27 509.936 1411.05 C 509.758 1440.02 509.748 1469 509.906 1497.97 C 488.589 1497.82 467.305 1499.71 447.964 1490.95 C 414.428 1474.84 404.232 1447.3 405.043 1411.98 L 404.899 1411.06 L 431.468 1411.1 z" fill="rgb(58,145,189)" transform="translate(0,0)"></path>
<path d="M 405.043 1411.98 C 413.851 1411.96 422.303 1412.11 431.154 1411.93 C 431.486 1434.37 435.936 1453.66 443.108 1474.82 C 444.807 1479.83 447.662 1485.86 447.964 1490.95 C 414.428 1474.84 404.232 1447.3 405.043 1411.98 z" fill="rgb(47,124,169)" transform="translate(0,0)"></path>
<path d="M 431.671 1387.13 C 446.497 1386.72 462.342 1387.19 477.281 1387.09 C 486.089 1387.03 501.589 1386.75 509.989 1387.66 C 492.959 1389.38 450.873 1388.12 432.039 1388.06 C 431.754 1395.43 431.236 1403.82 431.468 1411.1 L 404.899 1411.06 C 404.558 1403.97 404.861 1394.83 404.898 1387.58 L 431.671 1387.13 z" fill="rgb(79,171,211)" transform="translate(0,0)"></path>
<path d="M 509.95 1292.69 C 517.85 1292.68 525.751 1292.55 533.647 1292.29 C 533.89 1314.19 533.975 1336.1 533.902 1358 C 533.88 1365.23 534.29 1381.48 533.356 1387.92 C 532.553 1383.57 532.945 1365.05 532.951 1359.51 L 532.866 1299.44 C 525.336 1300.62 517.443 1301.82 509.978 1303.27 C 509.867 1299.65 509.909 1296.31 509.95 1292.69 z" fill="rgb(79,171,211)" transform="translate(0,0)"></path>
<path d="M 509.938 1044.83 C 517.646 1044.59 525.36 1044.58 533.069 1044.8 L 533.83 1045.01 C 540.315 1044.61 548.434 1044.73 555 1044.94 C 580.32 1044.09 599.027 1044.86 618.862 1063.24 C 634.009 1077.52 642.806 1097.28 643.288 1118.09 C 643.479 1125.38 643.259 1133.31 643.14 1140.64 L 643.107 1163.96 C 643.262 1189.98 640.449 1207.64 621.516 1227.36 C 596.956 1252.94 566.486 1248.04 533.284 1248.08 L 509.636 1248.04 C 484.419 1247.49 472.561 1250.02 448.249 1242.46 C 413.055 1224.76 405.394 1201.5 404.949 1164.14 C 404.859 1156.4 404.871 1148.65 404.984 1140.9 C 404.782 1111.89 404.292 1088.12 426.422 1065.52 C 449.611 1041.85 479.54 1044.8 509.938 1044.83 z" fill="rgb(159,211,234)" transform="translate(0,0)"></path>
<path d="M 555 1044.94 C 580.32 1044.09 599.027 1044.86 618.862 1063.24 C 634.009 1077.52 642.806 1097.28 643.288 1118.09 C 643.479 1125.38 643.259 1133.31 643.14 1140.64 C 607.702 1141.47 569.223 1140.69 533.542 1140.67 C 534.575 1132.09 533.955 1116.29 534.045 1107.08 C 534.25 1086.02 534.17 1065.8 533.069 1044.8 L 533.83 1045.01 C 540.315 1044.61 548.434 1044.73 555 1044.94 z" fill="rgb(58,145,189)" transform="translate(0,0)"></path>
<path d="M 533.83 1045.01 C 540.315 1044.61 548.434 1044.73 555 1044.94 L 553.434 1045.87 C 551.285 1047.13 535.417 1049.41 534.718 1049.24 C 534.002 1048.39 533.939 1045.98 533.83 1045.01 z" fill="rgb(47,124,169)" transform="translate(0,0)"></path>
<path d="M 533.137 1164.06 C 569.793 1164.28 606.451 1164.25 643.107 1163.96 C 643.262 1189.98 640.449 1207.64 621.516 1227.36 C 596.956 1252.94 566.486 1248.04 533.284 1248.08 L 533.137 1164.06 z" fill="rgb(58,145,189)" transform="translate(0,0)"></path>
<path d="M 430.688 1164.21 C 454.989 1165.07 484.569 1164.42 509.238 1164.16 C 509.199 1192.12 509.332 1220.08 509.636 1248.04 C 484.419 1247.49 472.561 1250.02 448.249 1242.46 C 413.055 1224.76 405.394 1201.5 404.949 1164.14 C 407.113 1164.15 409.278 1164.19 411.441 1164.27 C 417.855 1164.09 424.273 1164.07 430.688 1164.21 z" fill="rgb(58,145,189)" transform="translate(0,0)"></path>
<path d="M 404.949 1164.14 C 407.113 1164.15 409.278 1164.19 411.441 1164.27 C 417.941 1165.66 423.957 1165.12 430.661 1165.15 C 431.242 1185.6 434.993 1206.41 442.031 1225.62 C 444.097 1231.26 446.697 1236.64 448.249 1242.46 C 413.055 1224.76 405.394 1201.5 404.949 1164.14 z" fill="rgb(47,124,169)" transform="translate(0,0)"></path>
<path d="M 404.984 1140.9 C 404.782 1111.89 404.292 1088.12 426.422 1065.52 C 449.611 1041.85 479.54 1044.8 509.938 1044.83 C 509.902 1048.65 509.842 1052.08 510.042 1055.91 L 509.818 1057.08 C 467.18 1070.14 437.522 1094.11 431.091 1140.52 L 431.658 1140.86 C 430.518 1145.39 430.7 1159.15 430.688 1164.21 C 424.273 1164.07 417.855 1164.09 411.441 1164.27 C 409.278 1164.19 407.113 1164.15 404.949 1164.14 C 404.859 1156.4 404.871 1148.65 404.984 1140.9 z" fill="rgb(47,124,169)" transform="translate(0,0)"></path>
<path d="M 431.091 1140.52 L 431.658 1140.86 C 430.518 1145.39 430.7 1159.15 430.688 1164.21 C 424.273 1164.07 417.855 1164.09 411.441 1164.27 C 409.278 1164.19 407.113 1164.15 404.949 1164.14 C 404.859 1156.4 404.871 1148.65 404.984 1140.9 C 413.177 1140.74 423.213 1141.12 431.091 1140.52 z" fill="rgb(79,171,211)" transform="translate(0,0)"></path>
<path d="M 431.091 1140.52 C 437.522 1094.11 467.18 1070.14 509.818 1057.08 L 509.868 1140.89 C 485.458 1140.83 455.624 1139.87 431.658 1140.86 L 431.091 1140.52 z" fill="rgb(58,145,189)" transform="translate(0,0)"></path>
<path d="M 509.938 1044.83 C 517.646 1044.59 525.36 1044.58 533.069 1044.8 C 534.17 1065.8 534.25 1086.02 534.045 1107.08 C 533.955 1116.29 534.575 1132.09 533.542 1140.67 C 532.597 1134.52 533.073 1118.2 533.075 1111.41 L 532.89 1052.86 C 526.248 1053.42 516.213 1054.04 510.042 1055.91 C 509.842 1052.08 509.902 1048.65 509.938 1044.83 z" fill="rgb(79,171,211)" transform="translate(0,0)"></path>
<path d="M 1364.14 706.952 L 1562.57 706.67 C 1580.3 706.794 1628.22 705.879 1643.31 708.878 C 1660.16 712.163 1675.7 720.288 1688.02 732.259 C 1715.4 759.241 1715.03 785.407 1715.11 820.634 L 1715.18 872.118 L 1715.35 1358.04 C 1715.35 1430.51 1715.32 1503.09 1714.99 1575.57 C 1714.98 1578.29 1714.87 1581.58 1716.46 1583.45 C 1719.94 1584.22 1721.81 1584.49 1725.37 1584.87 C 1750.47 1586.61 1771.34 1613.2 1769.92 1638.02 C 1769.05 1651.66 1762.54 1664.32 1751.96 1672.97 C 1732.04 1689.39 1695.27 1685 1670.27 1685 L 1570.31 1685.02 L 1430.49 1685.03 C 1411.56 1685.03 1380.05 1686.03 1362.51 1684.9 C 1356.9 1685.14 1351.28 1685.16 1345.66 1684.96 C 1348.29 1683.29 1348.72 1682.83 1351.82 1682.42 C 1361.85 1677.02 1368.74 1672.32 1374.96 1662.41 C 1382.29 1650.87 1384.44 1636.78 1380.9 1623.57 C 1376.23 1605.89 1366.23 1597.18 1351.21 1588.74 C 1348.05 1588.39 1346.75 1587.88 1344.05 1586.33 C 1309.25 1584.2 1265.81 1588.1 1229.92 1585.85 C 1236.64 1584.84 1260.1 1585.31 1268.3 1585.32 C 1294.62 1585.48 1320.95 1585.38 1347.28 1585.02 L 1347.15 706.949 L 1364.14 706.952 z" fill="rgb(242,176,113)" transform="translate(0,0)"></path>
<path d="M 1385.51 1585.11 C 1464.33 1584.19 1544.46 1584.87 1623.37 1584.85 L 1693.01 1584.84 C 1700.47 1584.84 1718.54 1585.4 1725.37 1584.87 C 1750.47 1586.61 1771.34 1613.2 1769.92 1638.02 C 1769.05 1651.66 1762.54 1664.32 1751.96 1672.97 C 1732.04 1689.39 1695.27 1685 1670.27 1685 L 1570.31 1685.02 L 1430.49 1685.03 C 1411.56 1685.03 1380.05 1686.03 1362.51 1684.9 C 1356.9 1685.14 1351.28 1685.16 1345.66 1684.96 C 1348.29 1683.29 1348.72 1682.83 1351.82 1682.42 C 1361.85 1677.02 1368.74 1672.32 1374.96 1662.41 C 1382.29 1650.87 1384.44 1636.78 1380.9 1623.57 C 1376.23 1605.89 1366.23 1597.18 1351.21 1588.74 C 1352.89 1585.66 1363.78 1588.47 1367.98 1587.32 C 1373.72 1585.75 1379.25 1586.53 1385.51 1585.11 z" fill="rgb(194,111,53)" transform="translate(0,0)"></path>
<path d="M 1345.66 1684.96 C 1348.29 1683.29 1348.72 1682.83 1351.82 1682.42 C 1355.86 1684.58 1357.98 1684.03 1362.51 1684.9 C 1356.9 1685.14 1351.28 1685.16 1345.66 1684.96 z" fill="rgb(199,120,73)" transform="translate(0,0)"></path>
<path d="M 1344.05 1586.33 C 1354.6 1584.52 1374.37 1584.72 1385.51 1585.11 C 1379.25 1586.53 1373.72 1585.75 1367.98 1587.32 C 1363.78 1588.47 1352.89 1585.66 1351.21 1588.74 C 1348.05 1588.39 1346.75 1587.88 1344.05 1586.33 z" fill="rgb(199,120,73)" transform="translate(0,0)"></path>
<path d="M 1509.36 800.759 C 1517.1 800.548 1525.25 800.405 1532.98 800.739 C 1540.92 801.025 1549.33 800.961 1557.3 800.945 C 1583.15 800.789 1603.19 803.47 1622.63 822.907 C 1643.19 843.461 1644.3 863.655 1644.11 890.662 L 1644.03 899.267 L 1643.96 923.484 C 1643.83 939.209 1643.38 950.592 1636.6 965.066 C 1623.53 992.976 1599.7 1006.57 1569.38 1007.36 C 1558.77 1008.14 1520.36 1008.28 1509.32 1007.46 C 1485.58 1005.97 1473.9 1009.58 1450.23 1001.88 C 1442.34 998.008 1439.3 996.215 1432.54 990.535 C 1416.96 977.219 1407.3 958.269 1405.66 937.837 C 1404.61 927.125 1405.05 910.753 1405.11 899.774 C 1404.97 870.952 1403.68 844.698 1425.71 822.242 C 1449.58 797.911 1478.34 800.811 1509.36 800.759 z" fill="rgb(159,211,234)" transform="translate(0,0)"></path>
<path d="M 1532.98 800.739 C 1540.92 801.025 1549.33 800.961 1557.3 800.945 C 1583.15 800.789 1603.19 803.47 1622.63 822.907 C 1643.19 843.461 1644.3 863.655 1644.11 890.662 L 1644.03 899.267 L 1533.01 899.372 L 1532.89 809.817 L 1533.14 809.198 C 1533.02 806.311 1532.99 803.627 1532.98 800.739 z" fill="rgb(58,145,189)" transform="translate(0,0)"></path>
<path d="M 1532.98 800.739 C 1540.92 801.025 1549.33 800.961 1557.3 800.945 C 1551.53 807.63 1541.77 808.214 1533.14 809.198 C 1533.02 806.311 1532.99 803.627 1532.98 800.739 z" fill="rgb(47,124,169)" transform="translate(0,0)"></path>
<path d="M 1533.05 923.595 L 1643.96 923.484 C 1643.83 939.209 1643.38 950.592 1636.6 965.066 C 1623.53 992.976 1599.7 1006.57 1569.38 1007.36 C 1557.39 1007.21 1545.1 1007.35 1533.08 1007.35 L 1533.05 923.595 z" fill="rgb(58,145,189)" transform="translate(0,0)"></path>
<path d="M 1432.81 922.88 C 1458.03 923.257 1484.06 922.973 1509.34 922.962 C 1509.19 951.127 1509.18 979.294 1509.32 1007.46 C 1485.58 1005.97 1473.9 1009.58 1450.23 1001.88 C 1442.34 998.008 1439.3 996.215 1432.54 990.535 C 1416.96 977.219 1407.3 958.269 1405.66 937.837 C 1405.81 932.721 1405.72 927.968 1405.66 922.856 C 1414.35 922.866 1423.47 922.76 1432.12 922.989 L 1432.81 922.88 z" fill="rgb(58,145,189)" transform="translate(0,0)"></path>
<path d="M 1405.66 922.856 C 1414.35 922.866 1423.47 922.76 1432.12 922.989 C 1432.35 947.785 1437.32 971.978 1448.1 994.432 C 1449.37 997.074 1449.82 999.051 1450.23 1001.88 C 1442.34 998.008 1439.3 996.215 1432.54 990.535 C 1416.96 977.219 1407.3 958.269 1405.66 937.837 C 1405.81 932.721 1405.72 927.968 1405.66 922.856 z" fill="rgb(47,124,169)" transform="translate(0,0)"></path>
<path d="M 1405.11 899.774 C 1404.97 870.952 1403.68 844.698 1425.71 822.242 C 1449.58 797.911 1478.34 800.811 1509.36 800.759 C 1509.35 806.004 1509.24 811.248 1509.03 816.489 C 1466.89 826.717 1440.35 857.278 1433.33 899.515 C 1428.74 900.337 1410.61 899.848 1405.11 899.774 z" fill="rgb(47,124,169)" transform="translate(0,0)"></path>
<path d="M 1509.03 816.489 C 1508.4 829.952 1509.03 846.565 1508.95 860.375 C 1508.89 870.602 1508.41 890.402 1509.54 899.808 C 1500.78 898.805 1481.94 899.165 1472.56 899.169 C 1461.38 899.173 1443.81 898.538 1433.33 899.515 C 1440.35 857.278 1466.89 826.717 1509.03 816.489 z" fill="rgb(58,145,189)" transform="translate(0,0)"></path>
<path d="M 1405.11 899.774 C 1410.61 899.848 1428.74 900.337 1433.33 899.515 C 1443.81 898.538 1461.38 899.173 1472.56 899.169 C 1481.94 899.165 1500.78 898.805 1509.54 899.808 C 1491.42 901.574 1452.99 900.053 1433.15 900.212 C 1432.72 905.887 1431.31 918.047 1432.81 922.88 L 1432.12 922.989 C 1423.47 922.76 1414.35 922.866 1405.66 922.856 C 1405.72 927.968 1405.81 932.721 1405.66 937.837 C 1404.61 927.125 1405.05 910.753 1405.11 899.774 z" fill="rgb(79,171,211)" transform="translate(0,0)"></path>
<path d="M 1509.36 800.759 C 1517.1 800.548 1525.25 800.405 1532.98 800.739 C 1532.99 803.627 1533.02 806.311 1533.14 809.198 L 1532.89 809.817 C 1526.8 810.189 1517.33 813.738 1511.21 815.615 L 1509.87 816.038 C 1509.3 835.059 1510.34 855.113 1509.93 874.242 C 1509.77 881.789 1510.49 892.642 1509.54 899.808 C 1508.41 890.402 1508.89 870.602 1508.95 860.375 C 1509.03 846.565 1508.4 829.952 1509.03 816.489 C 1509.24 811.248 1509.35 806.004 1509.36 800.759 z" fill="rgb(79,171,211)" transform="translate(0,0)"></path>
<path d="M 1509.81 1292.09 C 1517.57 1291.94 1525.34 1291.96 1533.1 1292.17 C 1565.55 1292.09 1598.31 1288.98 1623.49 1313.96 C 1642.13 1332.44 1644.09 1352.74 1644.03 1377.24 L 1643.97 1387.72 L 1644.17 1411.19 C 1644.32 1429.15 1644.55 1442.7 1635.91 1459.15 C 1613.57 1501.66 1574.2 1498.01 1533.02 1498.01 L 1509.47 1497.97 C 1487.27 1497.64 1469.61 1500.28 1449.04 1491.18 L 1447.89 1490.68 C 1426.62 1480.17 1409.75 1458.13 1406.07 1434.5 C 1404.83 1426.55 1405.19 1418.96 1405.01 1410.97 C 1404.83 1403.43 1404.77 1394.62 1405.07 1387.1 C 1405.08 1358.08 1405.19 1336.25 1426.87 1314.07 C 1451.02 1289.36 1478.04 1292.33 1509.81 1292.09 z" fill="rgb(159,211,234)" transform="translate(0,0)"></path>
<path d="M 1533.1 1292.17 C 1565.55 1292.09 1598.31 1288.98 1623.49 1313.96 C 1642.13 1332.44 1644.09 1352.74 1644.03 1377.24 L 1643.97 1387.72 C 1607.39 1388.29 1569.74 1387.91 1533.07 1387.99 C 1533.22 1358.68 1533.19 1329.37 1532.98 1300.06 C 1532.9 1297.16 1532.87 1295.1 1533.1 1292.17 z" fill="rgb(58,145,189)" transform="translate(0,0)"></path>
<path d="M 1405.07 1387.1 C 1405.08 1358.08 1405.19 1336.25 1426.87 1314.07 C 1451.02 1289.36 1478.04 1292.33 1509.81 1292.09 C 1509.92 1296.46 1509.68 1301.04 1509.52 1305.42 L 1509.67 1387.87 L 1431.29 1387.67 C 1430.96 1395.16 1430.77 1403.39 1431.18 1410.86 L 1430.53 1411.06 L 1405.01 1410.97 C 1404.83 1403.43 1404.77 1394.62 1405.07 1387.1 z" fill="rgb(58,145,189)" transform="translate(0,0)"></path>
<path d="M 1405.07 1387.1 C 1405.08 1358.08 1405.19 1336.25 1426.87 1314.07 C 1451.02 1289.36 1478.04 1292.33 1509.81 1292.09 C 1509.92 1296.46 1509.68 1301.04 1509.52 1305.42 C 1466.3 1320.03 1440.59 1339.9 1431.37 1386.7 C 1424.97 1386.7 1412.07 1386.34 1406.19 1387.06 L 1405.07 1387.1 z" fill="rgb(47,124,169)" transform="translate(0,0)"></path>
<path d="M 1405.07 1387.1 L 1406.19 1387.06 C 1410.08 1388.07 1426.16 1387.65 1431.29 1387.67 C 1430.96 1395.16 1430.77 1403.39 1431.18 1410.86 L 1430.53 1411.06 L 1405.01 1410.97 C 1404.83 1403.43 1404.77 1394.62 1405.07 1387.1 z" fill="rgb(79,171,211)" transform="translate(0,0)"></path>
<path d="M 1532.98 1411.05 L 1644.17 1411.19 C 1644.32 1429.15 1644.55 1442.7 1635.91 1459.15 C 1613.57 1501.66 1574.2 1498.01 1533.02 1498.01 C 1533.51 1469.56 1533 1439.62 1532.98 1411.05 z" fill="rgb(58,145,189)" transform="translate(0,0)"></path>
<path d="M 1431.18 1410.86 C 1455.07 1411.84 1485.3 1411.06 1509.63 1411.02 C 1508.54 1437.4 1509.21 1471.33 1509.47 1497.97 C 1487.27 1497.64 1469.61 1500.28 1449.04 1491.18 L 1447.89 1490.68 C 1426.62 1480.17 1409.75 1458.13 1406.07 1434.5 C 1404.83 1426.55 1405.19 1418.96 1405.01 1410.97 L 1430.53 1411.06 L 1431.18 1410.86 z" fill="rgb(58,145,189)" transform="translate(0,0)"></path>
<path d="M 1405.01 1410.97 L 1430.53 1411.06 C 1430.63 1411.52 1430.73 1411.99 1430.83 1412.45 C 1431.7 1434.83 1435.78 1456.48 1443.62 1477.51 C 1445.17 1481.67 1446.86 1486.31 1447.89 1490.68 C 1426.62 1480.17 1409.75 1458.13 1406.07 1434.5 C 1404.83 1426.55 1405.19 1418.96 1405.01 1410.97 z" fill="rgb(47,124,169)" transform="translate(0,0)"></path>
<path d="M 1509.81 1292.09 C 1517.57 1291.94 1525.34 1291.96 1533.1 1292.17 C 1532.87 1295.1 1532.9 1297.16 1532.98 1300.06 C 1525.49 1302.14 1517.14 1303.58 1509.52 1305.42 C 1509.68 1301.04 1509.92 1296.46 1509.81 1292.09 z" fill="rgb(79,171,211)" transform="translate(0,0)"></path>
<path d="M 1508.27 1044.56 C 1513.66 1044.13 1536.19 1043.93 1541.78 1044.6 C 1572.71 1044.67 1598.77 1041.88 1622.21 1065.98 C 1644.78 1089.18 1644.35 1111.26 1644.11 1141.04 L 1644.19 1164 C 1644.27 1181.07 1643.87 1194.74 1635.2 1210.07 C 1620.16 1236.67 1597.42 1248.06 1567.75 1248.1 C 1556.18 1248.02 1544.62 1248.03 1533.05 1248.13 L 1509.24 1248.09 C 1490.64 1247.74 1465.86 1250.17 1449.14 1241.93 L 1447.58 1241.2 C 1441.32 1238.4 1435.56 1234.59 1430.54 1229.92 C 1409.35 1210.07 1405.91 1190.85 1405.05 1163.94 C 1404.86 1156.37 1404.82 1148.8 1404.92 1141.24 C 1404.82 1112.11 1404.54 1088.5 1426.66 1065.75 C 1449.7 1042.04 1478.08 1044.76 1508.27 1044.56 z" fill="rgb(159,211,234)" transform="translate(0,0)"></path>
<path d="M 1541.78 1044.6 C 1572.71 1044.67 1598.77 1041.88 1622.21 1065.98 C 1644.78 1089.18 1644.35 1111.26 1644.11 1141.04 L 1532.99 1140.91 L 1532.89 1052 C 1532.49 1042.4 1532.62 1045.03 1541.78 1044.6 z" fill="rgb(58,145,189)" transform="translate(0,0)"></path>
<path d="M 1404.92 1141.24 C 1404.82 1112.11 1404.54 1088.5 1426.66 1065.75 C 1449.7 1042.04 1478.08 1044.76 1508.27 1044.56 C 1509.43 1045.26 1509.35 1045.16 1509.72 1046.52 C 1509.92 1050.74 1509.95 1052.84 1509.68 1057.06 C 1508.31 1082.19 1509.32 1115.19 1509.39 1140.97 C 1483.99 1140.95 1457.22 1140.49 1431.93 1141.01 C 1424.96 1141.11 1413.78 1141.34 1407.1 1140.75 L 1404.92 1141.24 z" fill="rgb(58,145,189)" transform="translate(0,0)"></path>
<path d="M 1404.92 1141.24 C 1404.82 1112.11 1404.54 1088.5 1426.66 1065.75 C 1449.7 1042.04 1478.08 1044.76 1508.27 1044.56 C 1509.43 1045.26 1509.35 1045.16 1509.72 1046.52 C 1509.24 1050.54 1508.86 1053.71 1508.73 1057.75 C 1469.17 1070.17 1434.57 1095.85 1431.41 1140.38 C 1425.43 1140.32 1412.45 1139.8 1407.1 1140.75 L 1404.92 1141.24 z" fill="rgb(47,124,169)" transform="translate(0,0)"></path>
<path d="M 1533.02 1164.03 L 1644.19 1164 C 1644.27 1181.07 1643.87 1194.74 1635.2 1210.07 C 1620.16 1236.67 1597.42 1248.06 1567.75 1248.1 C 1556.18 1248.02 1544.62 1248.03 1533.05 1248.13 C 1533.52 1220.61 1533.04 1191.67 1533.02 1164.03 z" fill="rgb(58,145,189)" transform="translate(0,0)"></path>
<path d="M 1437.82 1163.98 C 1460.8 1163.34 1486.09 1163.75 1509.3 1163.67 L 1509.24 1248.09 C 1490.64 1247.74 1465.86 1250.17 1449.14 1241.93 L 1447.58 1241.2 C 1441.32 1238.4 1435.56 1234.59 1430.54 1229.92 C 1409.35 1210.07 1405.91 1190.85 1405.05 1163.94 C 1413.45 1163.82 1422.75 1163.68 1431.1 1163.95 C 1433.34 1164.03 1435.58 1164.04 1437.82 1163.98 z" fill="rgb(58,145,189)" transform="translate(0,0)"></path>
<path d="M 1405.05 1163.94 C 1413.45 1163.82 1422.75 1163.68 1431.1 1163.95 C 1432.17 1188.56 1436.34 1211.55 1446.91 1234 C 1448.45 1237.28 1448.91 1238.49 1449.14 1241.93 L 1447.58 1241.2 C 1441.32 1238.4 1435.56 1234.59 1430.54 1229.92 C 1409.35 1210.07 1405.91 1190.85 1405.05 1163.94 z" fill="rgb(47,124,169)" transform="translate(0,0)"></path>
<path d="M 1404.92 1141.24 L 1407.1 1140.75 C 1413.78 1141.34 1424.96 1141.11 1431.93 1141.01 C 1431.37 1146.14 1431.13 1150.67 1431.19 1155.81 C 1431.29 1163.77 1430.42 1162.42 1437.82 1163.98 C 1435.58 1164.04 1433.34 1164.03 1431.1 1163.95 C 1422.75 1163.68 1413.45 1163.82 1405.05 1163.94 C 1404.86 1156.37 1404.82 1148.8 1404.92 1141.24 z" fill="rgb(79,171,211)" transform="translate(0,0)"></path>
<path d="M 1508.27 1044.56 C 1513.66 1044.13 1536.19 1043.93 1541.78 1044.6 C 1532.62 1045.03 1532.49 1042.4 1532.89 1052 C 1525.99 1052.21 1516.22 1054.78 1509.68 1057.06 C 1509.95 1052.84 1509.92 1050.74 1509.72 1046.52 C 1509.35 1045.16 1509.43 1045.26 1508.27 1044.56 z" fill="rgb(79,171,211)" transform="translate(0,0)"></path>
<path d="M 1220.66 1297.14 C 1222.32 1325.01 1220.87 1365.38 1220.85 1394.24 L 1220.79 1585.84 L 1229.92 1585.85 C 1265.81 1588.1 1309.25 1584.2 1344.05 1586.33 C 1346.75 1587.88 1348.05 1588.39 1351.21 1588.74 C 1366.23 1597.18 1376.23 1605.89 1380.9 1623.57 C 1384.44 1636.78 1382.29 1650.87 1374.96 1662.41 C 1368.74 1672.32 1361.85 1677.02 1351.82 1682.42 C 1348.72 1682.83 1348.29 1683.29 1345.66 1684.96 C 1340.46 1685.59 1325.81 1685.26 1319.98 1685.24 L 1271.18 1685.1 L 1110.11 1685.06 L 838.137 1685.11 L 752.688 1685.21 C 736.761 1685.24 717.993 1685.74 702.245 1685.01 C 696.443 1680.71 689.452 1678.54 683.447 1673.32 C 657.046 1650.37 662.237 1611.86 690.083 1592.73 C 693.604 1590.31 701.142 1589.38 703.582 1586.48 L 699.734 1585.27 L 701.187 1584.72 C 742.036 1587.71 788.496 1583.96 830.04 1585.9 C 829.993 1490.77 831.072 1393.29 829.769 1298.36 C 918.276 1297.21 1009.31 1298.03 1097.9 1298.25 L 1176.22 1298.44 C 1182.42 1298.45 1217.16 1299.45 1220.66 1297.14 z" fill="rgb(194,111,53)" transform="translate(0,0)"></path>
<path d="M 1205.37 1585.85 C 1209.73 1586.05 1216.28 1585.85 1220.79 1585.84 L 1229.92 1585.85 C 1265.81 1588.1 1309.25 1584.2 1344.05 1586.33 C 1346.75 1587.88 1348.05 1588.39 1351.21 1588.74 C 1366.23 1597.18 1376.23 1605.89 1380.9 1623.57 C 1384.44 1636.78 1382.29 1650.87 1374.96 1662.41 C 1368.74 1672.32 1361.85 1677.02 1351.82 1682.42 C 1348.72 1682.83 1348.29 1683.29 1345.66 1684.96 C 1340.46 1685.59 1325.81 1685.26 1319.98 1685.24 L 1271.18 1685.1 L 1110.11 1685.06 L 838.137 1685.11 L 752.688 1685.21 C 736.761 1685.24 717.993 1685.74 702.245 1685.01 C 696.443 1680.71 689.452 1678.54 683.447 1673.32 C 657.046 1650.37 662.237 1611.86 690.083 1592.73 C 693.604 1590.31 701.142 1589.38 703.582 1586.48 L 699.734 1585.27 L 701.187 1584.72 C 742.036 1587.71 788.496 1583.96 830.04 1585.9 L 1014.79 1586.09 L 1139.42 1586.04 C 1159.45 1586.05 1185.74 1586.83 1205.37 1585.85 z" fill="rgb(242,176,113)" transform="translate(0,0)"></path>
<path d="M 1015.42 1299.29 L 1032.95 1299.19 L 1033.76 1585.55 C 1069.51 1583.92 1108.69 1585.39 1144.77 1584.89 C 1155.34 1584.75 1195.95 1584.53 1205.37 1585.85 C 1185.74 1586.83 1159.45 1586.05 1139.42 1586.04 L 1014.79 1586.09 L 1014.99 1403.61 C 1015 1369.77 1014.52 1332.98 1015.42 1299.29 z" fill="rgb(199,120,73)" transform="translate(0,0)"></path>
<path d="M 964.789 1427.39 C 979.946 1426.45 993.078 1437.79 994.361 1452.92 C 995.643 1468.05 984.608 1481.44 969.509 1483.07 C 959.431 1484.16 949.556 1479.7 943.701 1471.43 C 937.847 1463.15 936.932 1452.36 941.31 1443.21 C 945.688 1434.07 954.673 1428.02 964.789 1427.39 z" fill="rgb(242,176,113)" transform="translate(0,0)"></path>
<path d="M 1083.18 1428.23 C 1097.95 1424.96 1112.6 1434.22 1115.99 1448.97 C 1119.38 1463.72 1110.25 1478.44 1095.53 1481.95 C 1080.64 1485.51 1065.7 1476.24 1062.27 1461.32 C 1058.84 1446.4 1068.23 1431.54 1083.18 1428.23 z" fill="rgb(242,176,113)" transform="translate(0,0)"></path>
<path d="M 829.769 1298.36 C 832.319 1277.29 842.447 1255.28 854.411 1237.96 C 883.514 1196.7 927.789 1168.66 977.531 1159.99 C 995.081 1156.82 1006.95 1158.13 1023.79 1157.02 C 1109.38 1151.33 1204.76 1206.7 1220.66 1297.14 C 1217.16 1299.45 1182.42 1298.45 1176.22 1298.44 L 1097.9 1298.25 C 1009.31 1298.03 918.276 1297.21 829.769 1298.36 z" fill="rgb(123,54,4)" transform="translate(0,0)"></path>
<path d="M 1153.94 574.608 C 1161.69 574.514 1168.87 574.422 1176.61 574.764 C 1209.75 575.173 1237.12 570.628 1262.37 596.886 C 1284.89 620.31 1283.15 644.843 1282.99 674.777 L 1283.06 698.48 C 1283.27 724.188 1281.51 744.346 1262.27 764.2 C 1240.39 786.782 1212.99 785.945 1184.04 785.992 L 1178.89 785.996 C 1171.55 785.248 1161.24 785.701 1153.65 785.814 C 1123.56 786.145 1096.16 788.299 1073.35 765.266 C 1053.51 745.226 1051.02 725.058 1050.79 698.624 C 1049.73 689.047 1049.71 650.103 1050.81 640.632 C 1051.64 625.059 1059 607.586 1070.07 596.591 C 1094.9 571.926 1122.34 574.755 1153.94 574.608 z" fill="rgb(159,211,234)" transform="translate(0,0)"></path>
<path d="M 1176.61 574.764 C 1209.75 575.173 1237.12 570.628 1262.37 596.886 C 1284.89 620.31 1283.15 644.843 1282.99 674.777 C 1250.72 676.067 1209.79 674.844 1176.82 674.826 C 1176.96 641.472 1176.89 608.117 1176.61 574.764 z" fill="rgb(79,171,211)" transform="translate(0,0)"></path>
<path d="M 1050.81 640.632 C 1051.64 625.059 1059 607.586 1070.07 596.591 C 1094.9 571.926 1122.34 574.755 1153.94 574.608 L 1153.86 674.94 L 1050.92 674.865 C 1050.92 664.449 1051.3 650.783 1050.81 640.632 z" fill="rgb(79,171,211)" transform="translate(0,0)"></path>
<path d="M 1176.41 698.326 C 1211.96 698.576 1247.51 698.627 1283.06 698.48 C 1283.27 724.188 1281.51 744.346 1262.27 764.2 C 1240.39 786.782 1212.99 785.945 1184.04 785.992 L 1178.89 785.996 L 1178.1 785.565 C 1175.58 782.387 1176.45 709.269 1176.41 698.326 z" fill="rgb(79,171,211)" transform="translate(0,0)"></path>
<path d="M 1050.79 698.624 L 1153.7 698.401 C 1153.57 724.545 1154.96 761.156 1153.65 785.814 C 1123.56 786.145 1096.16 788.299 1073.35 765.266 C 1053.51 745.226 1051.02 725.058 1050.79 698.624 z" fill="rgb(79,171,211)" transform="translate(0,0)"></path>
<path d="M 1152.29 856.164 C 1164.17 856.213 1202.89 855.311 1212.51 856.792 C 1232.74 858.014 1250 866.436 1263.54 881.573 C 1284.72 905.254 1281.96 926.697 1282.37 956.027 C 1282.54 963.537 1282.93 971.596 1282.24 979.023 C 1282.19 1005.05 1281.46 1026.74 1261.43 1046.72 C 1241.99 1066.11 1219.99 1067.7 1194.26 1067.38 L 1176.27 1067.05 L 1153.76 1067.09 C 1124.53 1067.52 1099.81 1071.1 1076.66 1050.1 C 1060.41 1035.36 1052.05 1018.25 1050.79 996.514 C 1049.41 987.618 1049.97 965.449 1050.08 955.832 C 1049.99 926.332 1048.09 900.781 1070.87 878.185 C 1095.12 854.14 1121.07 855.973 1152.29 856.164 z" fill="rgb(159,211,234)" transform="translate(0,0)"></path>
<path d="M 1176.26 856.73 C 1188.34 856.945 1200.43 856.966 1212.51 856.792 C 1232.74 858.014 1250 866.436 1263.54 881.573 C 1284.72 905.254 1281.96 926.697 1282.37 956.027 L 1176.36 956 C 1177.09 924.588 1176.85 888.069 1176.26 856.73 z" fill="rgb(79,171,211)" transform="translate(0,0)"></path>
<path d="M 1050.08 955.832 C 1049.99 926.332 1048.09 900.781 1070.87 878.185 C 1095.12 854.14 1121.07 855.973 1152.29 856.164 C 1155.66 861.282 1153.55 943.901 1153.56 956.005 C 1120.83 955.963 1082.28 956.958 1050.08 955.832 z" fill="rgb(79,171,211)" transform="translate(0,0)"></path>
<path d="M 1176.43 979.035 L 1282.24 979.023 C 1282.19 1005.05 1281.46 1026.74 1261.43 1046.72 C 1241.99 1066.11 1219.99 1067.7 1194.26 1067.38 L 1176.27 1067.05 C 1176.59 1037.71 1176.65 1008.37 1176.43 979.035 z" fill="rgb(79,171,211)" transform="translate(0,0)"></path>
<path d="M 1050.73 978.987 L 1153.55 978.995 L 1153.76 1067.09 C 1124.53 1067.52 1099.81 1071.1 1076.66 1050.1 C 1060.41 1035.36 1052.05 1018.25 1050.79 996.514 C 1050.8 990.753 1050.89 984.716 1050.73 978.987 z" fill="rgb(79,171,211)" transform="translate(0,0)"></path>
<path d="M 872.095 574.907 C 879.657 574.975 887.22 574.993 894.783 574.96 C 927.347 574.737 953.259 571.853 979.168 596.743 C 992.076 609.143 999.922 630.161 1000.18 647.937 C 1001.23 657.94 1001.27 688.167 1000.25 698.361 C 999.966 725.107 997.711 745.37 977.301 765.851 C 954.923 788.309 924.135 786.115 894.719 786.068 C 887.331 786.257 879.372 786.08 871.934 786.043 C 853.735 785.694 829.499 788.172 813.101 779.867 C 787.987 767.928 770.005 743.505 768.816 715.394 C 767.493 707.085 767.941 662.536 768.195 652.783 L 768.187 651.152 C 768.328 621.713 781.39 597.694 807.65 583.608 C 827.943 572.723 849.848 574.793 872.095 574.907 z" fill="rgb(159,211,234)" transform="translate(0,0)"></path>
<path d="M 894.783 574.96 C 927.347 574.737 953.259 571.853 979.168 596.743 C 992.076 609.143 999.922 630.161 1000.18 647.937 C 999.856 656.371 1000.17 666.482 1000.2 675.045 L 895.071 675.005 L 894.957 583.185 L 894.783 574.96 z" fill="rgb(79,171,211)" transform="translate(0,0)"></path>
<path d="M 768.195 652.783 L 768.187 651.152 C 768.328 621.713 781.39 597.694 807.65 583.608 C 827.943 572.723 849.848 574.793 872.095 574.907 L 872.072 588.654 L 871.968 674.739 L 794.917 675.047 L 768.666 675.179 C 768.769 667.092 768.802 660.814 768.195 652.783 z" fill="rgb(79,171,211)" transform="translate(0,0)"></path>
<path d="M 768.195 652.783 L 768.187 651.152 C 768.328 621.713 781.39 597.694 807.65 583.608 C 827.943 572.723 849.848 574.793 872.095 574.907 L 872.072 588.654 C 864.055 592.497 855.536 595.001 847.334 599.006 C 820.325 612.197 801.647 638.653 796.262 668.018 C 796.105 669.006 795.948 669.995 795.791 670.984 C 795.583 671.951 795.375 672.918 795.166 673.884 L 794.917 675.047 L 768.666 675.179 C 768.769 667.092 768.802 660.814 768.195 652.783 z" fill="rgb(58,145,189)" transform="translate(0,0)"></path>
<path d="M 894.753 698.304 L 1000.25 698.361 C 999.966 725.107 997.711 745.37 977.301 765.851 C 954.923 788.309 924.135 786.115 894.719 786.068 L 894.753 698.304 z" fill="rgb(79,171,211)" transform="translate(0,0)"></path>
<path d="M 768.963 698.271 C 776.663 698.428 786.851 698.012 794.121 698.609 C 806.669 699.443 823.932 698.517 836.956 698.77 C 844.413 698.915 865.548 699.156 872.043 698.248 L 871.934 786.043 C 853.735 785.694 829.499 788.172 813.101 779.867 C 787.987 767.928 770.005 743.505 768.816 715.394 C 769.121 709.475 769.018 704.18 768.963 698.271 z" fill="rgb(79,171,211)" transform="translate(0,0)"></path>
<path d="M 768.963 698.271 C 776.663 698.428 786.851 698.012 794.121 698.609 C 793.986 712.372 795.263 722.527 798.222 735.987 C 799.839 743.181 801.984 750.246 804.639 757.125 C 807.906 765.59 812.913 772.047 813.101 779.867 C 787.987 767.928 770.005 743.505 768.816 715.394 C 769.121 709.475 769.018 704.18 768.963 698.271 z" fill="rgb(58,145,189)" transform="translate(0,0)"></path>
<path d="M 768.195 652.783 C 768.802 660.814 768.769 667.092 768.666 675.179 L 794.917 675.047 C 794.149 683.424 793.974 689.368 793.964 697.807 L 845.793 697.702 C 851.306 697.687 867.236 697.393 872.043 698.248 C 865.548 699.156 844.413 698.915 836.956 698.77 C 823.932 698.517 806.669 699.443 794.121 698.609 C 786.851 698.012 776.663 698.428 768.963 698.271 C 769.018 704.18 769.121 709.475 768.816 715.394 C 767.493 707.085 767.941 662.536 768.195 652.783 z" fill="rgb(159,211,234)" transform="translate(0,0)"></path>
<path d="M 872.095 574.907 C 879.657 574.975 887.22 574.993 894.783 574.96 L 894.957 583.185 C 884.099 584.009 881.993 585.768 872.072 588.654 L 872.095 574.907 z" fill="rgb(79,171,211)" transform="translate(0,0)"></path>
<path d="M 872.832 856.069 L 894.86 856.028 C 928.132 855.971 954.749 853.39 980.264 878.482 C 1004.6 902.411 1000.35 925.826 1001.35 956.086 C 1001.63 964.349 1001.59 970.621 1001.2 978.88 C 1001.25 1005.61 999.836 1025.37 979.599 1046.15 C 959.225 1067.07 935.957 1068.07 908.51 1067.84 L 906.029 1067.81 C 890.407 1068.06 857.318 1068.77 842.702 1067.21 C 838.078 1066.99 835.115 1066.91 830.489 1066.2 C 800.977 1061.68 777.616 1038.74 772.052 1009.49 C 770.237 999.955 771.269 988.691 770.823 978.838 C 769.815 970.24 769.907 933.991 770.819 925.923 C 771.644 907.802 778.674 891.556 791.355 878.625 C 816.659 852.82 840.859 856.792 872.832 856.069 z" fill="rgb(159,211,234)" transform="translate(0,0)"></path>
<path d="M 894.86 856.028 C 928.132 855.971 954.749 853.39 980.264 878.482 C 1004.6 902.411 1000.35 925.826 1001.35 956.086 L 894.974 955.967 L 894.86 856.028 z" fill="rgb(79,171,211)" transform="translate(0,0)"></path>
<path d="M 770.819 925.923 C 771.644 907.802 778.674 891.556 791.355 878.625 C 816.659 852.82 840.859 856.792 872.832 856.069 C 873.805 887.39 872.948 924.362 872.917 956.08 L 770.979 956.037 C 770.982 946.365 771.163 935.512 770.819 925.923 z" fill="rgb(79,171,211)" transform="translate(0,0)"></path>
<path d="M 894.928 979.012 L 1001.2 978.88 C 1001.25 1005.61 999.836 1025.37 979.599 1046.15 C 959.225 1067.07 935.957 1068.07 908.51 1067.84 L 906.029 1067.81 L 894.934 1067.1 L 894.928 979.012 z" fill="rgb(79,171,211)" transform="translate(0,0)"></path>
<path d="M 770.823 978.838 L 872.316 978.982 C 873.143 1008.19 872.307 1037.93 872.71 1067.16 C 863.028 1067.12 852.258 1066.9 842.702 1067.21 C 838.078 1066.99 835.115 1066.91 830.489 1066.2 C 800.977 1061.68 777.616 1038.74 772.052 1009.49 C 770.237 999.955 771.269 988.691 770.823 978.838 z" fill="rgb(79,171,211)" transform="translate(0,0)"></path>
<path d="M 998.842 323.55 C 1000.21 295.908 997.994 263.279 998.805 235.186 C 999.101 224.945 998.04 210.356 999.354 200.695 C 999.935 196.225 1001.65 191.979 1004.34 188.363 C 1008.52 182.715 1014.9 179.107 1021.9 178.435 C 1041.94 176.505 1050.81 191.591 1051.44 209.44 C 1061.86 211.866 1078.22 219.35 1089.07 223.198 C 1139.41 239.817 1190.89 260.872 1240.69 279.131 C 1254.26 284.108 1250.82 306.063 1236.19 308.099 C 1188.33 327.198 1138.45 343.363 1090.74 362.792 C 1077.35 367.59 1064.09 372.742 1050.97 378.244 L 1050.69 471.367 C 1045.38 472.412 1006.86 471.975 999.023 471.967 C 999.04 423.019 999.687 372.36 998.842 323.55 z" fill="rgb(123,54,4)" transform="translate(0,0)"></path>
<path d="M 1089.07 223.198 C 1139.41 239.817 1190.89 260.872 1240.69 279.131 C 1254.26 284.108 1250.82 306.063 1236.19 308.099 C 1188.33 327.198 1138.45 343.363 1090.74 362.792 C 1090.44 343.138 1093.13 233.73 1089.07 223.198 z" fill="rgb(226,23,38)" transform="translate(0,0)"></path>
<path d="M 1051.44 209.44 C 1061.86 211.866 1078.22 219.35 1089.07 223.198 C 1093.13 233.73 1090.44 343.138 1090.74 362.792 C 1077.35 367.59 1064.09 372.742 1050.97 378.244 C 1051.19 323.951 1049.56 262.835 1051.44 209.44 z" fill="rgb(183,14,24)" transform="translate(0,0)"></path>
<metadata><recraft-signature>{"signed_by": "recraft", "signature_b64": "9Pxubxyzh+8fFWHdsA3hbxbZ8w8+xQPqhK/fpt5qxqYNW+5PkM8+NozvFa6FhExxiOrqFOKsqOoW939F2MsuAw==", "signing_algo": "Ed25519", "generation_timestamp": 1779007015, "identifier": "cb494f8b-0387-44e0-8966-b514bd8bbec1"}</recraft-signature></metadata></svg>