<svg xmlns="http://www.w3.org/2000/svg" height="768" preserveAspectRatio="none" style="display: block;" version="1.1" viewBox="0 0 2048 1170" width="1344">
<defs>
	<linearGradient gradientUnits="userSpaceOnUse" id="Gradient1" x1="761.555" x2="826.02" y1="640.555" y2="327.278">
		<stop class="stop0" offset="0" stop-color="rgb(54,21,23)" stop-opacity="1"></stop>
		<stop class="stop1" offset="1" stop-color="rgb(105,50,52)" stop-opacity="1"></stop>
	</linearGradient>
</defs>
<path d="M 0 0 L 2048 0 L 2048 1170 L 0 1170 L 0 0 z" fill="rgb(255,255,255)" transform="translate(0,0)"></path>
<path d="M 595.412 302.147 L 1423.3 302.111 L 1423.12 811.993 L 1044.11 811.99 L 1044.11 835.804 L 1140.5 835.91 L 1198.9 835.987 C 1216.78 849.424 1236.85 863.125 1255.23 876.722 C 1237.13 875.537 1210.64 876.101 1192.19 876.085 L 1082.03 876.114 L 757.75 876.392 C 775.762 863.443 796.481 847.781 814.911 835.926 L 983.43 835.713 L 983.327 811.956 L 595.739 811.89 L 595.412 302.147 z" fill="rgb(8,7,6)" transform="translate(0,0)"></path>
<path d="M 654.425 333.266 C 659.582 332.512 680.715 331.533 684.685 333.943 C 696.447 333.566 760 332.294 767.908 334.505 L 769.325 333.838 C 779.641 333.964 790.951 334.029 801.253 333.871 L 1022.18 333.613 C 1065.21 333.617 1109.33 333.005 1152.22 334.214 C 1158.41 334.173 1166.56 334.459 1172.55 336.105 C 1184.29 333.106 1233.72 333.973 1248.67 333.974 L 1391.67 334.006 C 1391.78 358.758 1391.93 654.382 1390.8 655.908 L 1390.42 656.696 C 1392.8 660.062 1391.82 765.652 1391.71 779.04 C 1327.27 779.86 1262.83 780.116 1198.38 779.808 L 1134.15 779.731 C 1123.73 779.709 1108.16 780.064 1097.94 779.24 C 1095.09 779.155 1095.89 779.597 1094.07 778.042 L 1094.8 774.191 L 1094.02 773.007 C 1092.57 776.221 1092.44 777.938 1089.91 779.791 C 1069.24 780.536 1046.06 780.036 1025.22 780.002 L 916.753 779.938 L 828.305 779.94 C 815.576 779.939 796.477 780.553 784.154 779.844 C 735.226 781.412 677.377 779.926 627.592 779.901 C 631.508 752.104 642.992 729.864 657.251 706.223 L 656.131 704.796 C 640.887 729.729 635.308 741.41 627.463 769.591 C 626.247 749.023 627.119 718.547 627.116 697.222 L 627.088 574.897 L 627.063 491.854 C 645.119 480.08 654.318 479.821 674.73 485.419 C 674.841 484.703 674.521 484.083 674.28 483.266 C 671.821 482.395 669.329 481.62 666.809 480.943 C 651.193 476.799 639.995 481.945 626.998 489.598 L 627.058 377.457 L 627.002 333.868 C 632.946 333.799 649.532 334.226 654.425 333.266 z" fill="rgb(130,64,141)" transform="translate(0,0)"></path>
<path d="M 654.425 333.266 C 659.582 332.512 680.715 331.533 684.685 333.943 C 696.447 333.566 760 332.294 767.908 334.505 L 769.325 333.838 C 779.641 333.964 790.951 334.029 801.253 333.871 C 803.824 339.987 807.459 353.436 813.818 356.504 C 824.672 355.763 840.913 355.091 851.553 357.311 C 860.437 357.18 871.515 362.723 882.418 361.37 C 898.589 359.274 915.103 337.001 931.76 349.384 C 936.01 352.543 937.268 363.809 937.127 368.68 C 936.783 380.613 927.047 394.904 917.946 402.127 C 926.798 411.095 967.849 461.072 972.958 462.157 L 973.812 465.278 C 983.121 481.321 988.604 490.28 992.061 509.317 C 996.514 540.589 991.329 564.932 976.028 592.193 C 1036.63 609.809 1086.67 644.494 1117.39 700.553 C 1119.35 704.125 1125.64 718.165 1127.94 719.372 L 1128.67 719.184 L 1129.48 720.407 C 1118.6 734.463 1108.61 748.047 1100.5 763.963 C 1099.11 766.689 1096.63 771.995 1094.8 774.191 L 1094.02 773.007 C 1092.57 776.221 1092.44 777.938 1089.91 779.791 C 1069.24 780.536 1046.06 780.036 1025.22 780.002 L 916.753 779.938 L 828.305 779.94 C 815.576 779.939 796.477 780.553 784.154 779.844 C 735.226 781.412 677.377 779.926 627.592 779.901 C 631.508 752.104 642.992 729.864 657.251 706.223 L 656.131 704.796 C 640.887 729.729 635.308 741.41 627.463 769.591 C 626.247 749.023 627.119 718.547 627.116 697.222 L 627.088 574.897 L 627.063 491.854 C 645.119 480.08 654.318 479.821 674.73 485.419 C 674.841 484.703 674.521 484.083 674.28 483.266 C 671.821 482.395 669.329 481.62 666.809 480.943 C 651.193 476.799 639.995 481.945 626.998 489.598 L 627.058 377.457 L 627.002 333.868 C 632.946 333.799 649.532 334.226 654.425 333.266 z" fill="url(#Gradient1)" transform="translate(0,0)"></path>
<path d="M 971.353 465.175 L 973.812 465.278 C 983.121 481.321 988.604 490.28 992.061 509.317 C 996.514 540.589 991.329 564.932 976.028 592.193 C 1036.63 609.809 1086.67 644.494 1117.39 700.553 C 1119.35 704.125 1125.64 718.165 1127.94 719.372 L 1128.67 719.184 L 1129.48 720.407 C 1118.6 734.463 1108.61 748.047 1100.5 763.963 C 1099.11 766.689 1096.63 771.995 1094.8 774.191 L 1094.02 773.007 C 1092.57 776.221 1092.44 777.938 1089.91 779.791 C 1069.24 780.536 1046.06 780.036 1025.22 780.002 L 916.753 779.938 L 828.305 779.94 C 815.576 779.939 796.477 780.553 784.154 779.844 C 735.226 781.412 677.377 779.926 627.592 779.901 C 631.508 752.104 642.992 729.864 657.251 706.223 C 678.186 674.756 700.168 651.822 733.219 632.72 C 752.953 643.032 763.374 643.459 785.223 644.003 C 792.306 643.428 793.558 643.487 799.936 646.921 L 800.595 645.235 C 838.326 660.305 867.273 661.298 906.131 648.024 C 979.806 618.395 1018.7 534.229 971.353 465.175 z" fill="rgb(243,97,20)" transform="translate(0,0)"></path>
<path d="M 733.219 632.72 C 752.953 643.032 763.374 643.459 785.223 644.003 C 778.225 648.234 759.482 659.955 755.838 667.107 C 752.264 674.117 745.557 680.112 741.05 686.728 C 729.198 704.129 724.703 722.751 720.414 742.972 C 719.514 755.05 719.087 767.158 719.133 779.269 C 731.942 779.125 772.796 778.292 784.154 779.844 C 735.226 781.412 677.377 779.926 627.592 779.901 C 631.508 752.104 642.992 729.864 657.251 706.223 C 678.186 674.756 700.168 651.822 733.219 632.72 z" fill="rgb(202,96,55)" transform="translate(0,0)"></path>
<path d="M 720.414 742.972 C 712.824 731.783 741.773 674.003 755.838 667.107 C 752.264 674.117 745.557 680.112 741.05 686.728 C 729.198 704.129 724.703 722.751 720.414 742.972 z" fill="rgb(61,26,27)" transform="translate(0,0)"></path>
<path d="M 971.353 465.175 L 973.812 465.278 C 983.121 481.321 988.604 490.28 992.061 509.317 C 996.514 540.589 991.329 564.932 976.028 592.193 C 1036.63 609.809 1086.67 644.494 1117.39 700.553 C 1119.35 704.125 1125.64 718.165 1127.94 719.372 L 1128.67 719.184 L 1129.48 720.407 C 1118.6 734.463 1108.61 748.047 1100.5 763.963 C 1099.11 766.689 1096.63 771.995 1094.8 774.191 L 1094.02 773.007 C 1104.4 750.264 1111.02 741.709 1126.06 722.008 C 1121.71 713.337 1117.07 703.813 1112.17 695.525 C 1082.3 645.091 1031.25 608.867 974.861 594.183 C 959.948 618.251 937.872 637.045 911.731 647.925 C 873.272 664.045 837.902 662.494 799.936 646.921 L 800.595 645.235 C 838.326 660.305 867.273 661.298 906.131 648.024 C 979.806 618.395 1018.7 534.229 971.353 465.175 z" fill="rgb(48,25,34)" transform="translate(0,0)"></path>
<path d="M 904.187 669.325 C 922.638 665.035 941.047 676.612 945.171 695.101 C 949.296 713.589 937.553 731.893 919.029 735.852 C 900.738 739.76 882.715 728.198 878.642 709.943 C 874.57 691.688 885.97 673.561 904.187 669.325 z" fill="rgb(61,26,27)" transform="translate(0,0)"></path>
<path d="M 905.068 671.279 C 922.38 667.432 939.518 678.407 943.264 695.742 C 947.01 713.076 935.935 730.149 918.579 733.794 C 901.365 737.409 884.464 726.444 880.748 709.253 C 877.033 692.061 887.898 675.095 905.068 671.279 z" fill="rgb(248,193,106)" transform="translate(0,0)"></path>
<path d="M 915.898 403.579 C 916.069 403.414 916.994 401.384 917.173 401.009 L 917.946 402.127 C 926.798 411.095 967.849 461.072 972.958 462.157 L 973.812 465.278 L 971.353 465.175 C 1018.7 534.229 979.806 618.395 906.131 648.024 C 867.273 661.298 838.326 660.305 800.595 645.235 C 774.092 632.017 760.543 613.493 751.244 585.884 C 736.54 586.583 723.489 584.771 714.2 571.857 C 709.105 564.735 707.142 555.84 708.766 547.235 C 712.567 526.172 729.451 520.186 748.535 524.28 L 748.456 523.768 L 747.944 520.352 C 743.464 488.863 749.024 455.552 768.438 429.78 C 801.62 438.294 837.669 439.643 870.632 429.286 C 883.343 425.292 907.253 413.591 915.898 403.579 z" fill="rgb(225,140,125)" transform="translate(0,0)"></path>
<path d="M 751.244 585.884 C 736.54 586.583 723.489 584.771 714.2 571.857 C 709.105 564.735 707.142 555.84 708.766 547.235 C 712.567 526.172 729.451 520.186 748.535 524.28 C 758.549 565.415 784.528 600.872 820.732 622.818 C 852.936 642.708 872.129 641.869 906.131 648.024 C 867.273 661.298 838.326 660.305 800.595 645.235 C 774.092 632.017 760.543 613.493 751.244 585.884 z" fill="rgb(202,96,55)" transform="translate(0,0)"></path>
<path d="M 915.898 403.579 C 916.069 403.414 916.994 401.384 917.173 401.009 L 917.946 402.127 C 926.798 411.095 967.849 461.072 972.958 462.157 L 973.812 465.278 L 971.353 465.175 C 964.028 456.488 955.793 448.441 947.669 440.499 C 939.295 490.606 894.117 470.244 892.918 452.343 L 893.983 451.864 C 900.742 462.431 907.384 470.953 921.534 469.597 C 928.132 468.941 934.182 465.641 938.307 460.451 C 942.646 455.009 944.603 448.045 943.735 441.139 C 942.083 427.893 926.06 411.289 915.898 403.579 z" fill="rgb(61,26,27)" transform="translate(0,0)"></path>
<path d="M 848.587 467.672 C 853.702 471.085 852.353 482.704 850.647 487.869 C 848.303 494.795 843.235 500.465 836.615 503.569 C 820 511.484 805.457 503.036 798.444 487.271 C 800.058 482.518 801.506 488.623 802.405 490.527 C 806.65 499.513 815.54 504.155 825.285 503.926 C 832.028 503.79 838.428 500.925 843.022 495.986 C 853.008 485.049 848.916 477.743 848.587 467.672 z" fill="rgb(8,7,6)" transform="translate(0,0)"></path>
<path d="M 940.542 534.833 L 940.762 536.381 C 937.602 544.304 927.523 550.766 919.926 553.742 C 900.24 561.453 882.327 558.186 868.803 541.932 L 869.173 541.355 C 874.096 539.2 895.662 579.734 940.542 534.833 z" fill="rgb(8,7,6)" transform="translate(0,0)"></path>
<path d="M 627.063 491.854 C 645.119 480.08 654.318 479.821 674.73 485.419 C 668.617 503.49 670.683 534.777 674.577 553.311 C 681.906 588.19 699.917 613.42 730.213 631.692 C 696.055 654.152 678.72 670.251 656.131 704.796 C 640.887 729.729 635.308 741.41 627.463 769.591 C 626.247 749.023 627.119 718.547 627.116 697.222 L 627.088 574.897 L 627.063 491.854 z" fill="rgb(26,66,136)" transform="translate(0,0)"></path>
<path d="M 627.088 574.897 L 628.539 574.693 C 644.05 600.917 656.256 619.441 683.173 635.802 C 664.995 652.165 647.486 668.227 633.381 688.373 C 631.366 691.251 629.228 694.447 627.116 697.222 L 627.088 574.897 z" fill="rgb(54,103,180)" transform="translate(0,0)"></path>
<path d="M 654.425 333.266 C 659.582 332.512 680.715 331.533 684.685 333.943 C 670.636 359.558 673.679 390.702 701.116 405.592 C 704.862 407.612 708.891 409.056 713.068 409.875 L 714.599 410.8 L 713.167 411.799 C 696.966 429.36 685.484 451.06 677.992 473.592 C 677.132 476.178 675.848 481.456 674.28 483.266 C 671.821 482.395 669.329 481.62 666.809 480.943 C 651.193 476.799 639.995 481.945 626.998 489.598 L 627.058 377.457 L 627.002 333.868 C 632.946 333.799 649.532 334.226 654.425 333.266 z" fill="rgb(202,157,79)" transform="translate(0,0)"></path>
<path d="M 654.425 333.266 L 657.882 334.054 C 651.457 342.934 644.983 351.752 638.655 360.708 C 634.693 366.314 631.488 372.308 627.058 377.457 L 627.002 333.868 C 632.946 333.799 649.532 334.226 654.425 333.266 z" fill="rgb(248,193,106)" transform="translate(0,0)"></path>
<path d="M 654.425 333.266 C 659.582 332.512 680.715 331.533 684.685 333.943 C 670.636 359.558 673.679 390.702 701.116 405.592 C 704.862 407.612 708.891 409.056 713.068 409.875 L 714.599 410.8 L 713.167 411.799 C 684.595 408.704 667.864 374.007 675.89 348.253 C 677.661 342.573 679.81 338.706 682.695 333.58 C 674.301 333.524 666.254 333.351 657.882 334.054 L 654.425 333.266 z" fill="rgb(41,29,16)" transform="translate(0,0)"></path>
<path d="M 684.685 333.943 C 696.447 333.566 760 332.294 767.908 334.505 C 774.445 347.117 784.032 363.279 766.15 370.699 C 752.58 376.521 744.339 381.888 733.202 391.648 C 729.699 394.718 716.101 408.512 713.068 409.875 C 708.891 409.056 704.862 407.612 701.116 405.592 C 673.679 390.702 670.636 359.558 684.685 333.943 z" fill="rgb(248,193,106)" transform="translate(0,0)"></path>
<path d="M 769.325 333.838 C 779.641 333.964 790.951 334.029 801.253 333.871 C 803.824 339.987 807.459 353.436 813.818 356.504 C 811.951 357.089 802.044 358.115 798.01 359.142 C 790.411 361.078 784.61 363.292 777.322 365.528 C 778.755 350.565 777.868 347.054 769.325 333.838 z" fill="rgb(202,157,79)" transform="translate(0,0)"></path>
<path d="M 767.908 334.505 L 769.325 333.838 C 777.868 347.054 778.755 350.565 777.322 365.528 C 784.61 363.292 790.411 361.078 798.01 359.142 C 802.044 358.115 811.951 357.089 813.818 356.504 C 824.672 355.763 840.913 355.091 851.553 357.311 C 840.603 359.159 820.173 356.314 805.112 358.952 C 795.813 360.581 769.477 371.003 766.15 370.699 C 784.032 363.279 774.445 347.117 767.908 334.505 z" fill="rgb(41,29,16)" transform="translate(0,0)"></path>
<path d="M 1281.87 378.638 C 1292.21 342.772 1336.55 332.949 1364.28 355.277 C 1373.1 393.021 1365.15 427.962 1324.86 441.372 C 1330.14 443.973 1333.11 445.477 1336.71 450.321 L 1337.65 449.773 C 1339.87 456.217 1341.22 463.489 1342.64 470.19 L 1340 474.36 C 1337.37 486.921 1334.48 499.645 1329.24 511.104 C 1310.57 551.891 1271.72 578.257 1227.11 581.463 C 1221.52 581.865 1214.45 581.662 1209.15 582.242 C 1204.9 576.95 1202.6 569.77 1201.36 563.204 C 1203.25 560.282 1203.51 550.358 1203.27 546.832 C 1214.96 536.707 1225.68 523.959 1227.58 507.998 C 1229.07 495.466 1221.37 481.226 1207.53 480.903 C 1195.4 480.619 1186.4 487.652 1177.91 495.396 C 1144.79 481.8 1103.72 448.531 1117.53 407.333 C 1119.55 401.278 1122.84 395.605 1124.47 389.44 C 1125.47 387.862 1127.08 386.863 1128.62 385.667 L 1128.66 383.692 C 1137.05 373.957 1158.33 364.283 1170.77 361.549 C 1211.33 352.631 1246.64 357.823 1281.87 378.638 z" fill="rgb(94,44,46)" transform="translate(0,0)"></path>
<path d="M 1337.65 449.773 C 1339.87 456.217 1341.22 463.489 1342.64 470.19 L 1340 474.36 C 1339.96 459.37 1337.51 460.25 1336.71 450.321 L 1337.65 449.773 z" fill="rgb(48,25,34)" transform="translate(0,0)"></path>
<path d="M 1221.42 657.177 C 1228.9 652.704 1240.07 649.804 1248.29 647.592 C 1290.03 636.347 1336.25 637.216 1376.92 652.342 C 1381.26 653.959 1385.91 655.41 1390.42 656.696 C 1392.8 660.062 1391.82 765.652 1391.71 779.04 C 1327.27 779.86 1262.83 780.116 1198.38 779.808 L 1134.15 779.731 C 1123.73 779.709 1108.16 780.064 1097.94 779.24 C 1095.09 779.155 1095.89 779.597 1094.07 778.042 L 1094.8 774.191 C 1096.63 771.995 1099.11 766.689 1100.5 763.963 C 1108.61 748.047 1118.6 734.463 1129.48 720.407 C 1153.39 694.223 1187.43 668.149 1221.42 657.177 z" fill="rgb(90,170,113)" transform="translate(0,0)"></path>
<path d="M 1221.42 657.177 C 1228.9 652.704 1240.07 649.804 1248.29 647.592 C 1290.03 636.347 1336.25 637.216 1376.92 652.342 C 1381.26 653.959 1385.91 655.41 1390.42 656.696 C 1392.8 660.062 1391.82 765.652 1391.71 779.04 C 1327.27 779.86 1262.83 780.116 1198.38 779.808 L 1134.15 779.731 C 1123.73 779.709 1108.16 780.064 1097.94 779.24 C 1120.9 777.716 1161.78 779.088 1186.77 779.138 L 1354.58 778.976 C 1354.55 778.289 1354.51 777.601 1354.46 776.915 C 1351.71 738.855 1330.57 702.908 1301.55 679.062 C 1274.9 657.163 1254.31 654.83 1221.42 657.177 z" fill="rgb(6,135,76)" transform="translate(0,0)"></path>
<path d="M 1071.93 546.136 C 1059.24 538.078 1031.8 525.396 1047.59 508.651 C 1055.96 499.781 1065.54 490.176 1072.36 480.184 C 1081.98 466.104 1085.76 448.817 1091.93 433.194 C 1098.11 417.87 1114.97 393.11 1128.66 383.692 L 1128.62 385.667 C 1127.08 386.863 1125.47 387.862 1124.47 389.44 C 1122.84 395.605 1119.55 401.278 1117.53 407.333 C 1103.72 448.531 1144.79 481.8 1177.91 495.396 C 1186.4 487.652 1195.4 480.619 1207.53 480.903 C 1221.37 481.226 1229.07 495.466 1227.58 507.998 C 1225.68 523.959 1214.96 536.707 1203.27 546.832 C 1203.51 550.358 1203.25 560.282 1201.36 563.204 C 1202.6 569.77 1204.9 576.95 1209.15 582.242 C 1219.9 595.847 1232.03 602.793 1249.26 604.871 C 1250.74 605.062 1252.23 605.166 1253.73 605.184 C 1250.29 622.382 1239.8 638.373 1228.77 651.628 C 1213.63 657.738 1203.14 663.307 1188.91 669.567 C 1186.42 667.713 1186.87 666.667 1185.89 663.024 L 1184.85 664.185 C 1181.24 653.44 1178.22 641.323 1175.23 630.301 C 1098.28 667.379 1075.17 613.668 1071.93 546.136 z" fill="rgb(225,140,125)" transform="translate(0,0)"></path>
<path d="M 1071.93 546.136 C 1059.24 538.078 1031.8 525.396 1047.59 508.651 C 1055.96 499.781 1065.54 490.176 1072.36 480.184 C 1081.98 466.104 1085.76 448.817 1091.93 433.194 C 1098.11 417.87 1114.97 393.11 1128.66 383.692 L 1128.62 385.667 C 1127.08 386.863 1125.47 387.862 1124.47 389.44 C 1113.12 401.272 1098.56 418.051 1093.38 433.581 C 1087.27 451.912 1082.79 465.856 1072.93 482.288 C 1062.88 499.039 1028.72 516.495 1053.72 532.125 C 1060.68 536.476 1067.08 540.952 1073.9 545.22 C 1074.38 554.067 1073.5 570.514 1080.24 576.332 C 1091.34 585.901 1109.99 579.492 1118.28 569.119 C 1126.93 559.248 1125.21 554.396 1128.93 543.986 C 1130.42 546.766 1129.7 553.332 1128.57 556.202 C 1118.84 580.978 1100.49 588.311 1077.44 577.687 C 1087.27 640.309 1122.07 653.628 1176.29 627.841 C 1179.37 639.501 1182.39 651.506 1185.89 663.024 L 1184.85 664.185 C 1181.24 653.44 1178.22 641.323 1175.23 630.301 C 1098.28 667.379 1075.17 613.668 1071.93 546.136 z" fill="rgb(48,25,34)" transform="translate(0,0)"></path>
<path d="M 1203.27 546.832 C 1203.51 550.358 1203.25 560.282 1201.36 563.204 C 1200.57 556.062 1198.46 551.915 1203.27 546.832 z" fill="rgb(48,25,34)" transform="translate(0,0)"></path>
<path d="M 1094.92 489.709 C 1092.69 487.172 1085.63 476.157 1090.24 473.649 C 1090.35 473.682 1090.63 473.724 1090.66 473.926 C 1091.39 479.298 1091.53 483.207 1095.45 487.291 C 1104.08 496.3 1121.77 492.025 1122.89 479.02 C 1123.01 477.697 1123.17 476.648 1124.38 475.931 C 1126.49 476.829 1123.28 484.85 1122.26 486.156 C 1114.71 495.811 1105.99 495.754 1096.1 490.626 C 1095.43 490.217 1095.41 490.305 1094.92 489.709 z" fill="rgb(61,26,27)" transform="translate(0,0)"></path>
<path d="M 801.253 333.871 L 1022.18 333.613 C 1065.21 333.617 1109.33 333.005 1152.22 334.214 C 1148.79 336.109 1142.81 336.767 1138.75 337.447 L 1138.03 339.148 C 1089.74 351.797 1061.56 362.02 1023.56 397.407 C 1017.53 403.019 999.84 423.535 996.061 425.842 C 990.671 430.275 975.341 455.136 972.958 462.157 C 967.849 461.072 926.798 411.095 917.946 402.127 C 927.047 394.904 936.783 380.613 937.127 368.68 C 937.268 363.809 936.01 352.543 931.76 349.384 C 915.103 337.001 898.589 359.274 882.418 361.37 C 871.515 362.723 860.437 357.18 851.553 357.311 C 840.913 355.091 824.672 355.763 813.818 356.504 C 807.459 353.436 803.824 339.987 801.253 333.871 z" fill="rgb(248,193,106)" transform="translate(0,0)"></path>
<path d="M 996.061 425.842 C 996.398 425.2 996.741 424.509 997.18 423.931 C 1032.97 376.731 1081.39 348.474 1138.75 337.447 L 1138.03 339.148 C 1089.74 351.797 1061.56 362.02 1023.56 397.407 C 1017.53 403.019 999.84 423.535 996.061 425.842 z" fill="rgb(71,36,79)" transform="translate(0,0)"></path>
<path d="M 1152.22 334.214 C 1158.41 334.173 1166.56 334.459 1172.55 336.105 C 1091.92 352.299 1043.65 393.487 1022.08 474.207 C 1018.09 489.141 1012.16 512.191 992.061 509.317 C 988.604 490.28 983.121 481.321 973.812 465.278 L 972.958 462.157 C 975.341 455.136 990.671 430.275 996.061 425.842 C 999.84 423.535 1017.53 403.019 1023.56 397.407 C 1061.56 362.02 1089.74 351.797 1138.03 339.148 L 1138.75 337.447 C 1142.81 336.767 1148.79 336.109 1152.22 334.214 z" fill="rgb(90,43,110)" transform="translate(0,0)"></path>
<path d="M 1342.64 470.19 C 1348.7 512.192 1341.67 551.722 1310.55 581.753 C 1305.33 586.789 1284.32 598.863 1282.19 602.502 L 1282.86 606.573 L 1281.57 608.376 L 1280.6 603.596 C 1276.72 601.5 1261.41 604.903 1253.73 605.184 C 1252.23 605.166 1250.74 605.062 1249.26 604.871 C 1232.03 602.793 1219.9 595.847 1209.15 582.242 C 1214.45 581.662 1221.52 581.865 1227.11 581.463 C 1271.72 578.257 1310.57 551.891 1329.24 511.104 C 1334.48 499.645 1337.37 486.921 1340 474.36 L 1342.64 470.19 z" fill="rgb(61,26,27)" transform="translate(0,0)"></path>
<path d="M 1364.28 355.277 C 1376.82 366.09 1386 380.233 1387.17 397.126 C 1388.07 409.29 1383.97 421.295 1375.82 430.368 C 1364.92 442.639 1354.51 446.209 1338.56 447.413 L 1337.55 448.48 L 1337.65 449.773 L 1336.71 450.321 C 1333.11 445.477 1330.14 443.973 1324.86 441.372 C 1365.15 427.962 1373.1 393.021 1364.28 355.277 z" fill="rgb(61,26,27)" transform="translate(0,0)"></path>
<path d="M 1253.73 605.184 C 1261.41 604.903 1276.72 601.5 1280.6 603.596 L 1281.57 608.376 C 1283.94 618.626 1286.21 628.528 1289.09 638.666 C 1266.57 641.192 1250.39 645.105 1228.77 651.628 C 1239.8 638.373 1250.29 622.382 1253.73 605.184 z" fill="rgb(202,96,55)" transform="translate(0,0)"></path>
<path d="M 1282.86 606.573 C 1285.57 617.205 1287.68 628.406 1290.47 638.839 C 1322.43 638.222 1361.76 641.013 1390.8 655.908 L 1390.42 656.696 C 1385.91 655.41 1381.26 653.959 1376.92 652.342 C 1336.25 637.216 1290.03 636.347 1248.29 647.592 C 1240.07 649.804 1228.9 652.704 1221.42 657.177 C 1187.43 668.149 1153.39 694.223 1129.48 720.407 L 1128.67 719.184 C 1143.03 701.114 1166.47 684.867 1185.23 671.819 C 1186.5 668.982 1185.57 667.799 1184.85 664.185 L 1185.89 663.024 C 1186.87 666.667 1186.42 667.713 1188.91 669.567 C 1203.14 663.307 1213.63 657.738 1228.77 651.628 C 1250.39 645.105 1266.57 641.192 1289.09 638.666 C 1286.21 628.528 1283.94 618.626 1281.57 608.376 L 1282.86 606.573 z" fill="rgb(8,7,6)" transform="translate(0,0)"></path>
<metadata><recraft-signature>{"signed_by": "recraft", "signature_b64": "Vo0F4/38A0WHWvNm4+ekMBde+ZmpiKKkne42YuNrMHFjHm2ap4kkStAXVrlPZLy4Thqs93W3KKAJS/npHOsuCA==", "signing_algo": "Ed25519", "generation_timestamp": 1779023307, "identifier": "478b0133-0e99-4a49-86e0-a59ecbd56e0f"}</recraft-signature></metadata></svg>