<svg xmlns="http://www.w3.org/2000/svg" height="1152" preserveAspectRatio="none" style="display: block;" version="1.1" viewBox="0 0 1593 2048" width="896">
<path d="M 0 0 L 1593 0 L 1593 2048 L 0 2048 L 0 0 z" fill="rgb(252,252,251)" transform="translate(0,0)"></path>
<path d="M 365.733 357.376 C 411.964 355.413 471.929 357.765 519.21 357.847 L 836.395 357.919 L 1099.01 357.855 L 1183.03 357.62 C 1209.66 357.521 1242.4 352.894 1264.4 370.334 C 1296.22 395.562 1289.37 434.998 1289.36 471.649 L 1289.59 572.236 L 1289.62 925.061 L 1289.26 1387.63 L 1289.59 1539.7 C 1289.66 1566.23 1290.03 1593.37 1289.37 1619.87 C 1289.03 1633.81 1283.7 1647.98 1274.78 1658.86 C 1264.5 1671.55 1249.51 1679.54 1233.25 1681.01 C 1220.95 1682.34 1201.69 1681.82 1189.06 1681.8 L 1117.32 1681.74 L 873.093 1681.42 L 527.504 1681.71 L 423.246 1681.84 C 405.481 1681.87 382.373 1682.59 365.225 1681.44 C 353.404 1680.72 342.063 1676.5 332.639 1669.33 C 302.515 1645.98 306.827 1615.32 306.875 1581.82 L 306.801 1503.9 L 306.566 1205.19 L 306.659 690.332 L 306.792 509.24 C 306.85 478.861 306.738 448.055 307.201 417.701 C 307.369 406.64 312.892 391.113 320.069 382.654 C 333.271 367.093 345.63 359.487 365.733 357.376 z" fill="rgb(144,142,142)" transform="translate(0,0)"></path>
<path d="M 448.124 364.5 L 996.635 364.48 L 1151.53 364.574 C 1178.61 364.515 1207.25 363.876 1234.21 365.341 C 1243.75 365.86 1256.94 373.076 1263.57 379.838 C 1281.18 397.804 1282.66 413.849 1282.54 437.416 C 1282.12 513 1282.12 588.522 1282.16 664.062 L 1282.18 1224.83 L 1282.4 1484.72 L 1282.38 1576.54 C 1282.26 1604.12 1286.98 1636.35 1266 1657.4 C 1258.85 1664.49 1249.89 1669.48 1240.09 1671.82 C 1227.2 1674.97 1167.78 1673.41 1150.5 1673.29 L 597.494 1673.15 L 443.958 1673.27 C 416.387 1673.42 386.897 1674.63 359.516 1672.69 C 350.879 1672.08 336.327 1663.02 330.325 1656.9 C 316.671 1642.99 314.071 1627.32 313.954 1608.73 L 313.878 797.761 L 313.9 540.263 L 313.874 461.195 C 313.839 432.685 309.202 402.891 331.207 381.005 C 338.187 374.065 346.896 369.116 356.431 366.672 C 369.175 363.411 430.62 364.509 448.124 364.5 z" fill="rgb(252,252,251)" transform="translate(0,0)"></path>
<path d="M 570.604 445.501 L 1022.5 445.438 L 1236.02 445.937 L 1235.73 1561.86 C 1168.68 1563.17 1097.07 1561.87 1029.69 1561.86 L 360.963 1561.9 C 360.139 1544.31 360.758 1521.47 360.749 1503.54 L 360.704 1394.48 L 360.426 1063.2 L 360.695 661.179 L 360.682 525.501 C 360.65 499.779 360.033 471.672 360.899 446.123 C 384.839 445.108 412.057 445.72 436.393 445.688 L 570.604 445.501 z" fill="rgb(102,103,106)" transform="translate(0,0)"></path>
<path d="M 366.321 452.146 C 476.974 450.832 590.166 452.011 700.959 452.076 L 1230.16 452.087 L 1229.94 1555.66 C 1115.82 1557.34 997.317 1555.8 882.921 1555.67 L 366.906 1555.77 L 366.931 851.1 L 366.916 592.556 C 366.863 546.388 367.546 498.089 366.321 452.146 z" fill="rgb(97,141,194)" transform="translate(0,0)"></path>
<path d="M 511.353 1193.25 C 511.667 1193.24 511.98 1193.22 512.294 1193.21 C 539.161 1194.36 559.546 1188.9 581.26 1209.61 C 590.765 1218.68 597.822 1232.55 598.434 1245.64 C 598.77 1252.82 596.978 1260.33 600.018 1267.16 C 605.366 1279.16 615.728 1286.18 617.054 1300.12 C 618.205 1312.21 608.683 1323.31 611.215 1334.97 C 613.452 1345.27 622.58 1352.53 623.192 1364.07 C 623.854 1376.57 615.839 1386.59 618.353 1398.94 C 619.98 1406.93 623.76 1413.62 628.494 1420.17 C 641.619 1438.33 641.497 1449.33 641.728 1470.63 C 611.654 1470.23 581.577 1470.09 551.5 1470.22 L 417.967 1470.25 C 416.646 1417.46 433.797 1430.63 442.214 1393.45 C 439.666 1383.98 436.533 1378.58 435.413 1368.02 C 433.65 1351.4 448.236 1347.25 447.345 1328.53 C 446.965 1321.15 443.565 1314.18 442.412 1306.9 C 438.185 1280.23 462.034 1281.11 460.07 1252.64 C 458.082 1223.81 482.727 1197.96 511.353 1193.25 z" fill="rgb(4,4,4)" transform="translate(0,0)"></path>
<path d="M 508.843 1196.24 C 514.763 1195.59 518.098 1196.2 523.967 1196.25 C 540.086 1196.4 552.148 1194.82 567.041 1202.68 C 582.335 1210.75 593.724 1226.75 595.617 1244.05 C 596.459 1251.76 594.487 1260.51 597.555 1268.32 C 601.968 1279.55 613.085 1286.42 614.213 1299.1 C 615.363 1312.04 606.219 1320.76 608.086 1334.09 C 609.433 1343.71 619.814 1353.89 619.87 1362.62 C 620.018 1385.55 610.368 1384.51 617.739 1409.11 C 605.897 1400.88 592.958 1396.73 579.773 1391.22 C 561.001 1383.37 561.083 1372.88 561.94 1355.55 C 592.084 1331.58 592.074 1310.49 589.81 1274.62 C 571.075 1266.94 555.926 1251.76 552.569 1231.07 C 551.63 1225.28 553.353 1221.23 550.522 1217.69 C 550.019 1218.86 549.807 1219.51 549.608 1220.77 C 544.984 1250.11 517.008 1270.13 489.441 1275.81 C 482.274 1277.29 476.246 1277.73 468.954 1278.01 C 468.754 1315.16 466.792 1331.42 498.679 1356.19 C 499.514 1391.54 487.884 1386.04 460.662 1397.39 C 453.997 1400.17 447.254 1404.47 441.168 1408.45 C 446.557 1392.65 444.565 1391.21 439.547 1375.26 C 433.011 1354.5 448.728 1349.43 450.218 1332.04 C 451.223 1320.32 442.78 1308.11 445.459 1295.22 C 447.498 1285.41 459.234 1276.07 461.309 1268.3 C 465.599 1252.25 459.612 1242.16 469.473 1225.54 C 479.483 1208.67 490.361 1201.42 508.843 1196.24 z" fill="rgb(253,187,43)" transform="translate(0,0)"></path>
<path d="M 549.38 1233.66 C 550.182 1235.33 551.414 1239.39 552.246 1241.46 C 558.591 1257.32 571.018 1269.98 586.754 1276.61 C 589.667 1306.7 587.27 1335.05 559.057 1353.3 C 545.378 1362.14 529.205 1362.99 513.582 1359.47 C 474.254 1344.12 471.803 1318.17 471.976 1280.98 C 505.672 1278.14 534.319 1265.46 549.38 1233.66 z" fill="rgb(240,196,158)" transform="translate(0,0)"></path>
<path d="M 462.185 1399.9 C 464.73 1401.1 466.14 1403.8 467.921 1406.34 C 482.581 1427.21 489.362 1433.69 514.135 1438.92 C 523.669 1456.25 535.044 1453.25 545.071 1438.62 L 546.439 1438.36 C 570.019 1433.86 582.747 1419.98 595.787 1400.87 C 621.197 1411.21 637.655 1426.82 638.925 1455.75 C 638.994 1459.55 639.548 1463.94 637.944 1467.16 C 632.576 1468.02 619.858 1467.56 613.657 1467.51 L 573.619 1467.35 L 420.537 1467.14 C 420.257 1430.07 429.663 1416.8 462.185 1399.9 z" fill="rgb(230,102,54)" transform="translate(0,0)"></path>
<path d="M 501.203 1357.3 C 522.4 1367.87 537.359 1367.03 558.806 1357.28 C 558.839 1368.64 558.592 1368.17 560.37 1378.91 C 567.182 1391.11 580.228 1394.84 592.696 1399.94 C 591.555 1401.77 590.379 1403.58 589.168 1405.36 C 576.685 1423.66 563.559 1432.24 542.292 1436.17 C 536.263 1449.94 527.356 1452.56 519.025 1440.39 C 516.646 1436.91 509.222 1434.67 504.928 1433.47 C 485.671 1428.08 476.572 1413.86 465.819 1398.35 C 481.903 1392.98 495.397 1391.84 501.786 1374.18 C 501.101 1368.77 501.288 1362.84 501.203 1357.3 z" fill="rgb(240,196,158)" transform="translate(0,0)"></path>
<path d="M 501.203 1357.3 C 522.4 1367.87 537.359 1367.03 558.806 1357.28 C 558.839 1368.64 558.592 1368.17 560.37 1378.91 C 530.781 1379.57 524.011 1383.05 502.448 1360.27 C 502.286 1364.64 502.569 1370.11 501.786 1374.18 C 501.101 1368.77 501.288 1362.84 501.203 1357.3 z" fill="rgb(229,178,166)" transform="translate(0,0)"></path>
<path d="M 1055.25 509.256 C 1057.27 509.178 1059.28 509.148 1061.3 509.166 C 1073.73 509.336 1080.58 515.736 1088.66 524.1 C 1108.2 519.947 1121.77 535.782 1128.64 552.01 C 1134.41 565.628 1134.97 579.259 1135.09 593.739 C 1152.03 608.158 1146.65 626.203 1126.33 633.324 C 1121.22 651.838 1115.2 658.969 1101.86 671.917 C 1101.73 680.448 1101.9 689.472 1101.95 698.046 C 1129.6 702.046 1155.64 717.164 1166.76 743.539 C 1173.16 758.688 1173.13 769.493 1172.97 785.421 C 1141.08 786.838 1102.09 785.789 1069.75 785.744 C 1031.47 785.766 990.598 786.418 952.529 785.395 C 951.912 727.387 972.165 713.142 1024.14 696.867 L 1023.85 672.099 C 1010.1 660.345 1004.94 650.583 998.503 634.29 C 977.748 626.598 972.89 612.016 986.835 594.416 C 986.741 548.197 1008.58 517.591 1055.25 509.256 z" fill="rgb(4,4,4)" transform="translate(0,0)"></path>
<path d="M 1083.6 553.041 C 1083.88 553.368 1089.09 562.878 1089.82 564.131 C 1100.48 582.391 1107.12 586.911 1125.62 596.358 C 1125.92 608.907 1125.91 621.424 1122.78 633.703 C 1118.41 650.589 1107.6 665.09 1092.66 674.093 C 1077.95 682.796 1062.83 684.33 1046.45 680.209 C 1006.04 666.933 998.694 634.664 999.045 596.642 C 1036.88 595.626 1060.89 583.045 1083.6 553.041 z" fill="rgb(240,196,158)" transform="translate(0,0)"></path>
<path d="M 1053.5 512.181 C 1071.12 510.835 1076.12 514.098 1087.38 527.177 C 1112.44 522.521 1123.68 543.756 1130.08 564.778 C 1131.92 570.834 1133.94 584.74 1132.08 590.806 C 1127.64 595.373 1124.67 593.848 1119.57 590.582 C 1103.28 580.147 1089.33 563.368 1084.81 544.315 C 1082.97 548.091 1081.11 550.859 1078.86 554.373 C 1055.49 585.316 1026.93 594.059 989.756 593.855 C 990.345 550.087 1009.24 521.664 1053.5 512.181 z" fill="rgb(77,42,24)" transform="translate(0,0)"></path>
<path d="M 1127.48 708.962 C 1160.32 723.748 1170.55 748.185 1169.92 782.526 L 1091.5 782.663 L 1064.32 782.61 C 1064.13 767.726 1064.01 752.841 1063.96 737.956 C 1071.17 743.74 1078.29 749.625 1085.33 755.611 C 1092.32 746.025 1118.56 717.699 1127.48 708.962 z" fill="rgb(10,115,100)" transform="translate(0,0)"></path>
<path d="M 996.73 708.877 C 1001.95 711.475 1033.11 748.711 1038.28 755.647 C 1046.04 749.892 1053.65 743.933 1061.1 737.776 L 1061.17 782.648 C 1053.29 782.242 1044.41 782.347 1036.45 782.263 C 1009.53 782.523 982.611 782.628 955.691 782.576 C 954.572 745.971 963.762 725.904 996.73 708.877 z" fill="rgb(10,115,100)" transform="translate(0,0)"></path>
<path d="M 1029.16 676.313 C 1056.35 688.718 1072.42 689.483 1098.66 674.123 C 1098.78 683.082 1098.86 691.548 1099.14 700.515 C 1096.63 702.907 1094.15 705.427 1091.21 707.278 C 1081.9 716.059 1072.11 724.509 1063.01 733.539 C 1051.27 722.397 1038.16 713.032 1027.22 700.943 C 1027.18 698.141 1025.71 675.743 1028.54 675.632 C 1028.89 675.876 1028.68 675.688 1029.16 676.313 z" fill="rgb(240,196,158)" transform="translate(0,0)"></path>
<path d="M 1029.16 676.313 C 1056.35 688.718 1072.42 689.483 1098.66 674.123 C 1098.78 683.082 1098.86 691.548 1099.14 700.515 C 1096.63 702.907 1094.15 705.427 1091.21 707.278 C 1087.56 705.333 1084.17 705.484 1080 705.668 C 1065.74 706.297 1035.71 688.322 1029.16 676.313 z" fill="rgb(229,178,166)" transform="translate(0,0)"></path>
<path d="M 1020.32 700.929 C 1026.07 700.531 1025.47 704.045 1029.76 707.693 C 1040.16 716.53 1049.64 726.028 1059.97 734.964 C 1053.39 740.113 1046.73 745.161 1039.99 750.105 C 1038.86 750.81 1038.49 750.859 1037.6 749.704 C 1026.26 735.051 1013.33 721.518 1001.07 707.618 C 1007.7 705.323 1013.66 703.367 1020.32 700.929 z" fill="rgb(10,115,100)" transform="translate(0,0)"></path>
<path d="M 1101.83 701.869 C 1108.84 702.036 1117.35 705.108 1124.12 707.494 C 1113 718.771 1096.88 737.65 1085.75 750.097 C 1085.33 750.364 1084.2 751.134 1083.95 750.896 C 1079.65 746.817 1068.73 738.104 1065.11 734.892 L 1095.37 707.62 C 1097.54 705.633 1099.6 703.808 1101.83 701.869 z" fill="rgb(10,115,100)" transform="translate(0,0)"></path>
<path d="M 989.738 595.961 C 991.122 596.027 995.808 595.911 996.123 596.62 C 996.873 601.932 996.706 610.216 996.611 616.028 C 996.492 623.349 1001.44 631.818 993.285 629.243 C 979.75 619.198 977.293 608.842 989.738 595.961 z" fill="rgb(229,178,166)" transform="translate(0,0)"></path>
<path d="M 1128.06 595.773 C 1144.57 599.209 1145.64 613.152 1136.72 625.443 C 1121.83 634.883 1128.21 624.435 1127.9 613.828 C 1127.73 607.968 1127.95 601.648 1128.06 595.773 z" fill="rgb(229,178,166)" transform="translate(0,0)"></path>
<path d="M 952.602 1211.95 C 958.721 1211.84 964.172 1211.91 969.976 1212.07 C 991.262 1212.59 1014.48 1230.26 1018.24 1252.03 C 1022.19 1278.55 1019.41 1307.33 1019.99 1334.19 C 1020.44 1355.38 1017.08 1379.23 1046.99 1379.73 C 1066.06 1380.05 1090.04 1384.23 1095.1 1359.2 C 1097.45 1349.25 1095.27 1338.53 1096.09 1328.59 C 1098.81 1295.46 1085.97 1251.25 1113.23 1225.85 C 1128.23 1211.88 1144.09 1211.49 1162.9 1211.93 L 1163.01 1301.5 L 1163.22 1372.49 C 1163.25 1386.81 1164.15 1412.83 1161.18 1425.5 C 1158.76 1435.87 1153.51 1445.36 1146.02 1452.92 C 1138.8 1460.12 1129.73 1465.19 1119.81 1467.55 C 1107.57 1470.58 1081.65 1469.51 1067.99 1469.48 C 1053.17 1469.54 1038.35 1469.68 1023.54 1469.9 C 1003.38 1470.03 984.459 1468.49 969.629 1453.49 C 958.371 1442.03 952.89 1427.81 952.728 1411.88 C 952.543 1393.64 952.659 1375.49 952.647 1357.27 L 952.602 1211.95 z" fill="rgb(4,4,4)" transform="translate(0,0)"></path>
<path d="M 1157.25 1214.51 C 1157.68 1214.51 1158.76 1215.27 1159.24 1215.55 C 1160.39 1221.04 1159.59 1234.9 1159.6 1241.23 L 1159.72 1296.66 C 1159.78 1323.04 1160 1349.45 1159.56 1375.82 C 1159.08 1411.51 1133.97 1430.01 1099.72 1428.89 C 1073.24 1429.05 1044.32 1427.77 1018.03 1428.47 C 980.177 1429.48 955.387 1410.81 955.612 1371.31 C 955.668 1361.48 955.689 1350.18 955.692 1340.07 L 955.671 1263.75 L 955.717 1215.01 L 959.535 1214.95 C 975.765 1214.72 990.047 1217.11 1002.03 1229.02 C 1008.44 1235.4 1012.83 1243.71 1015.01 1252.45 C 1019.99 1272.43 1016.65 1325.63 1017.05 1349.14 C 1017.21 1358.75 1018.66 1368.71 1026.15 1375.56 C 1036.65 1385.16 1055.4 1383.31 1068.65 1382.87 C 1076.71 1382.6 1084.28 1381.63 1090.29 1375.57 C 1114.48 1351.19 1080.97 1263.96 1113.4 1229.95 C 1125.83 1216.92 1140.18 1215.05 1157.25 1214.51 z" fill="rgb(10,115,100)" transform="translate(0,0)"></path>
<path d="M 956.199 1395.71 C 956.534 1396.67 956.918 1397.58 957.377 1398.49 C 964.169 1411.91 974.133 1423.16 988.865 1427.85 C 1004.43 1432.81 1094.5 1432.72 1113.43 1430.66 C 1120.83 1429.86 1128.26 1428.4 1134.87 1424.85 C 1144.21 1419.83 1153.2 1411.49 1156.29 1401.2 C 1156.94 1399.02 1157.29 1399.37 1159.18 1398.33 C 1161.94 1403.32 1158.7 1422.84 1157.44 1428.74 C 1153.96 1437.65 1149.54 1445 1142.49 1451.61 C 1135.95 1457.78 1127.93 1462.16 1119.2 1464.3 C 1103.7 1468.03 1081.19 1466.15 1064.65 1466.27 C 1005.46 1466.69 953.527 1475.25 956.199 1395.71 z" fill="rgb(7,59,49)" transform="translate(0,0)"></path>
<path d="M 1063.6 846.148 C 1084.73 845.84 1091.11 866.734 1076.35 882.329 C 1090.7 885.136 1104.07 890.109 1115.71 899.145 C 1161.59 934.744 1134.45 992.616 1150.7 1039.6 C 1156.37 1055.97 1177.25 1067.56 1178.28 1080.09 C 1178.65 1084.62 1176.59 1089.47 1173.44 1092.68 C 1164.59 1101.71 1114.74 1098.07 1101.38 1097.96 C 1098.55 1118.01 1089.6 1127.93 1069.37 1131.56 C 1046.11 1132.55 1034.12 1120.76 1031.09 1098.13 C 1010.95 1098.24 981.091 1100.64 962.482 1094.91 C 951.265 1089.53 951.818 1073.8 960.31 1067.58 C 1010.32 1030.98 969.754 963.895 999.593 917.934 C 1012.76 897.656 1030.18 887.517 1053.66 882.162 C 1039.83 868.475 1045.21 851.481 1063.6 846.148 z" fill="rgb(4,4,4)" transform="translate(0,0)"></path>
<path d="M 990.854 951.356 C 991.868 926.836 1011.02 902.438 1032.56 892.121 C 1045.72 885.816 1055.03 884.703 1069.32 884.791 C 1090.02 886.103 1108.91 894.008 1122.89 909.676 C 1155.01 945.659 1133.69 993.107 1146.17 1034.96 C 1148.29 1042.08 1151.22 1049.32 1155.7 1055.31 C 1161.67 1063.28 1175.46 1069.75 1175.18 1080.86 C 1175.08 1085.02 1172.77 1089.26 1169.54 1091.85 C 1162.11 1097.79 1054.89 1094.95 1035.66 1095.04 C 1015.98 1095.11 992.771 1095.76 973.054 1094.5 C 968.263 1093.75 961.825 1091.32 958.619 1087.83 C 948.912 1077.24 966.468 1066.35 973.346 1059.29 C 994.686 1037.38 989.908 993.521 990.152 965.367 C 989.807 961.421 989.92 955.178 990.854 951.356 z" fill="rgb(253,187,43)" transform="translate(0,0)"></path>
<path d="M 1069.32 884.791 C 1090.02 886.103 1108.91 894.008 1122.89 909.676 C 1155.01 945.659 1133.69 993.107 1146.17 1034.96 C 1148.29 1042.08 1151.22 1049.32 1155.7 1055.31 C 1161.67 1063.28 1175.46 1069.75 1175.18 1080.86 C 1175.08 1085.02 1172.77 1089.26 1169.54 1091.85 C 1162.11 1097.79 1054.89 1094.95 1035.66 1095.04 C 1047.16 1091.41 1075.93 1084.96 1081.77 1073.98 L 1081.13 1072.09 C 1086.71 1072.01 1111.39 1072.66 1114.71 1070.34 C 1104.25 1069.38 1094.52 1069.32 1084.02 1069.16 C 1115.96 1041.58 1106.37 1000.48 1107.79 962.841 C 1108.53 943.039 1102.11 913.729 1087.82 899.402 C 1082.43 894.002 1075.13 890.64 1069.32 884.791 z" fill="rgb(210,155,32)" transform="translate(0,0)"></path>
<path d="M 1084.02 1069.16 C 1094.52 1069.32 1104.25 1069.38 1114.71 1070.34 C 1111.39 1072.66 1086.71 1072.01 1081.13 1072.09 L 1026 1071.9 C 1013.85 1071.94 996.18 1073.13 984.931 1070.41 L 985.474 1069.77 C 997.314 1068.61 1012.1 1068.99 1024.22 1069.01 L 1084.02 1069.16 z" fill="rgb(4,4,4)" transform="translate(0,0)"></path>
<path d="M 1016.22 912.751 C 1014.12 918.895 1011.64 921.786 1009.42 927.266 C 1005.84 936.097 1004.66 947.191 1002.9 956.505 C 1001.63 963.247 1001.7 963.136 995.537 966.286 C 992.182 960.345 995.564 950.085 997.007 943.506 L 997.285 942.806 C 1003.21 927.602 1004.74 925.046 1016.22 912.751 z" fill="rgb(254,216,83)" transform="translate(0,0)"></path>
<path d="M 990.854 951.356 C 994.533 950.235 993.588 947.563 997.007 943.506 C 995.564 950.085 992.182 960.345 995.537 966.286 C 991.698 967.193 992.682 965.234 992.468 962.181 C 991.496 963.323 992.386 970.268 991.707 972.532 L 991.685 972.532 C 990.952 969.773 991.389 969.431 990.152 965.367 C 989.807 961.421 989.92 955.178 990.854 951.356 z" fill="rgb(253,187,43)" transform="translate(0,0)"></path>
<path d="M 1033.57 1098.64 C 1048.63 1095.36 1080.69 1099.5 1097.31 1098.43 C 1097.77 1098.4 1098.23 1100.37 1098.19 1100.88 C 1097.42 1110.75 1090.87 1118.04 1083.13 1123.48 C 1059.04 1135.44 1038.09 1125.68 1033.57 1098.64 z" fill="rgb(253,187,43)" transform="translate(0,0)"></path>
<path d="M 1033.57 1098.64 C 1048.63 1095.36 1080.69 1099.5 1097.31 1098.43 C 1097.77 1098.4 1098.23 1100.37 1098.19 1100.88 C 1097.42 1110.75 1090.87 1118.04 1083.13 1123.48 C 1080.31 1116.32 1068.24 1104.83 1062.45 1098.95 C 1055.2 1098.88 1039.93 1099.34 1033.57 1098.64 z" fill="rgb(210,155,32)" transform="translate(0,0)"></path>
<path d="M 1050.94 873.901 C 1047.5 867.368 1048.82 859.344 1054.18 854.258 C 1059.53 849.172 1067.61 848.263 1073.96 852.032 C 1079.06 855.062 1082.15 860.6 1082.03 866.535 C 1081.92 872.469 1078.63 877.885 1073.41 880.716 C 1068.19 883.547 1061.86 883.358 1056.82 880.22 C 1054.33 878.672 1052.31 876.491 1050.94 873.901 z" fill="rgb(253,187,43)" transform="translate(0,0)"></path>
<path d="M 1073.96 852.032 C 1079.06 855.062 1082.15 860.6 1082.03 866.535 C 1081.92 872.469 1078.63 877.885 1073.41 880.716 C 1068.19 883.547 1061.86 883.358 1056.82 880.22 C 1058.88 877.698 1060.01 876.548 1061.58 873.653 C 1071.48 870.039 1073.66 861.264 1073.96 852.032 z" fill="rgb(210,155,32)" transform="translate(0,0)"></path>
<path d="M 1050.94 873.901 C 1054.79 873.927 1057.73 873.87 1061.58 873.653 C 1060.01 876.548 1058.88 877.698 1056.82 880.22 C 1054.33 878.672 1052.31 876.491 1050.94 873.901 z" fill="rgb(210,155,32)" transform="translate(0,0)"></path>
<path d="M 568.332 507.971 C 577.469 507.461 607.165 511.188 611.749 520.951 C 616.908 531.937 610.99 551.6 608.561 563.547 C 604.736 582.823 600.623 602.04 596.222 621.193 C 610.377 620.873 629.335 617.956 630.969 638.805 C 631.887 650.509 623.822 649.951 617.913 656.469 C 619.964 658.614 622.057 660.806 623.88 663.151 C 635.761 678.436 615.563 681.723 613.919 689.295 C 613.681 690.393 622.265 700.066 621.33 706.853 C 620.299 714.346 614.604 716.004 609.185 720.121 C 605.503 728.148 637.05 756.105 576.119 753.358 C 570.814 762.663 534.597 812.263 528.507 815.85 L 526.808 814.778 C 524.072 803.52 513.175 762.742 507.099 755.104 C 499.677 752.099 432.659 753.321 419.984 753.345 C 420.041 736.836 418.523 668.007 421.946 655.646 C 424.239 647.369 491.304 601.158 502.863 593.584 C 507.236 590.719 535.907 580.027 543.786 577.529 C 548.158 559.307 550.59 539.323 555.515 521.346 C 557.607 513.712 561.801 511.014 568.332 507.971 z" fill="rgb(4,4,4)" transform="translate(0,0)"></path>
<path d="M 541.281 581.019 L 542.052 581.228 C 543.039 584.385 536.664 610.284 535.458 615.703 C 525.451 624.406 497.63 643.989 486.275 651.006 C 507.993 649.429 567.507 622.394 563.454 655.657 C 561.379 672.678 517.182 674.956 511.759 682.809 C 516.111 683.48 519.208 682.01 523.345 680.598 L 511.21 735.38 C 510.169 740.403 509.339 745.682 508.47 750.755 C 480.364 750.17 451.043 750.552 422.844 750.518 C 422.885 737.085 421.601 665.458 424.755 656.494 C 427.359 649.091 492.938 603.249 504.991 595.737 C 508.363 593.636 534.932 583.475 541.281 581.019 z" fill="rgb(253,187,43)" transform="translate(0,0)"></path>
<path d="M 568.697 559.366 L 587.892 563.39 C 577.916 608.237 570.417 653.466 560.415 698.322 C 556.354 716.535 553.939 735.397 549.302 753.455 C 548.523 756.488 541.693 758.412 539.013 759.346 L 530.502 751.773 C 536.124 725.26 540.289 698.454 547.867 672.312 C 569.763 666.633 574.349 644.291 553.112 635.137 C 558.96 611.647 564.993 583.038 568.697 559.366 z" fill="rgb(10,115,100)" transform="translate(0,0)"></path>
<path d="M 590.567 563.623 C 595.139 564.776 600.175 565.792 604.814 566.824 C 601.524 585.056 597.615 603.171 593.095 621.137 C 564.219 635.931 588.444 649.326 585.4 654.908 C 580.776 663.384 565.839 665.344 580.774 684.591 C 581.375 691.756 557.69 695.16 575.593 718.489 C 563.154 725.058 559.196 730.56 562.57 744.603 C 565.629 749.188 568.186 750.488 572.741 753.11 L 566.682 762.933 L 553.053 754.05 C 556.001 732.624 561.557 707.803 565.921 686.313 C 574.198 645.559 582.405 604.394 590.567 563.623 z" fill="rgb(10,115,100)" transform="translate(0,0)"></path>
<path d="M 567.953 510.972 C 576.802 510.744 584.613 512.708 592.514 513.872 C 613.165 516.804 613.208 526.991 609.179 544.511 C 607.418 552.17 606.996 550.683 598.157 548.919 C 586.341 546.927 566.6 542.621 554.826 539.545 C 557.452 526.405 555.296 517.979 567.953 510.972 z" fill="rgb(230,102,54)" transform="translate(0,0)"></path>
<path d="M 526.666 753.198 C 530.622 753.138 535.755 760.173 538.508 763.07 C 543.834 760.963 546.912 759.635 552.064 757.166 C 556.365 759.997 560.699 762.778 565.063 765.51 C 559.558 772.884 553.901 779.775 548.292 787.017 C 545.844 789.911 543.532 793.006 541.061 795.978 C 534.673 794.175 529.149 791.819 522.64 790.184 C 518.863 778.341 516.008 768.523 512.503 756.628 C 517.148 755.606 521.973 754.279 526.666 753.198 z" fill="rgb(254,231,180)" transform="translate(0,0)"></path>
<path d="M 551.123 556.277 C 556.017 557.109 560.92 557.891 565.83 558.622 C 562.039 578.74 555.184 613.296 550.37 634.582 C 549.869 634.929 549.369 635.276 548.868 635.623 C 544.492 636.014 538.63 637.072 534.181 637.752 C 536.605 629.416 538.953 614.888 540.722 605.964 C 544.091 589.382 547.558 572.819 551.123 556.277 z" fill="rgb(10,115,100)" transform="translate(0,0)"></path>
<path d="M 542.1 674.063 C 542.339 674.149 543.368 674.449 543.309 674.684 C 539.278 690.746 530.383 736.439 527.787 749.571 C 522.826 750.961 518.19 752.037 513.177 753.226 C 513.201 753.238 511.474 752.425 511.523 752.139 C 515.575 728.767 520.683 702.145 526.591 679.235 C 531.337 677.467 537.223 675.597 542.1 674.063 z" fill="rgb(10,115,100)" transform="translate(0,0)"></path>
<path d="M 591.777 624.111 C 595.556 624.014 614.155 623.408 616.483 624.278 C 631.813 630.008 631.187 646.29 617.406 652.998 C 613.738 653.289 595.177 654.166 592.98 653.11 C 577.778 645.806 580.087 631.722 591.777 624.111 z" fill="rgb(253,187,43)" transform="translate(0,0)"></path>
<path d="M 585.155 689.229 C 588.348 689.072 604.757 688.606 606.628 689.566 C 623.295 698.117 620.249 712.16 606.002 718.726 C 601.556 719.123 584.756 719.97 581.994 718.078 C 566.898 707.738 570.299 694.515 585.155 689.229 z" fill="rgb(253,187,43)" transform="translate(0,0)"></path>
<path d="M 573.917 722.183 C 576.789 721.853 600.933 722.355 602.926 723.271 C 615.979 729.273 613.12 744.696 600.643 749.89 C 593.842 750.567 588.227 750.725 581.435 750.504 C 562.298 749.879 558.48 733.442 573.917 722.183 z" fill="rgb(253,187,43)" transform="translate(0,0)"></path>
<path d="M 588.806 657.118 C 598.471 656.518 615.584 654.024 620.814 664.007 C 625.901 673.718 621.905 681.116 612.72 685.877 C 603.791 687.119 596.912 686.266 587.941 685.709 C 575.155 676.79 575.065 665.131 588.806 657.118 z" fill="rgb(253,187,43)" transform="translate(0,0)"></path>
<path d="M 554.084 542.438 C 559.646 543.8 606.273 553.989 606.98 554.484 C 607.664 556.67 605.928 561.505 605.271 563.734 C 587.766 559.873 569.325 555.795 551.634 553.221 L 554.084 542.438 z" fill="rgb(229,178,166)" transform="translate(0,0)"></path>
<path d="M 532.931 621.926 C 535.578 624.342 532.065 634.286 531.17 637.884 C 522.743 640.425 512.339 643.27 503.732 644.645 C 503.689 644.61 502.965 644.099 503.174 643.918 C 512.239 636.066 523.104 628.892 532.931 621.926 z" fill="rgb(97,124,158)" transform="translate(0,0)"></path>
<path d="M 772.114 551.163 C 785.835 551.898 793.704 559.299 793.388 573.238 C 793.087 586.47 774.632 599.716 765.483 607.932 C 796.719 608.257 827.957 608.353 859.194 608.22 C 875.849 608.16 893.095 607.596 909.675 608.833 C 919.339 609.554 925.983 618.054 925.912 627.618 C 925.875 633.208 923.521 638.532 919.412 642.323 C 910.591 650.527 879.985 647.524 867.098 647.382 C 881.915 663.164 875.584 679.616 854.69 683.587 C 861.139 690.918 865.757 699.632 860.596 709.819 C 855.76 719.367 848.876 717.31 841.456 719.798 C 845.022 723.991 846.825 725.9 848.989 731.015 C 849.441 741.313 845.27 754.299 833.03 754.753 C 779.4 756.745 725.131 753.715 671.488 755.617 C 671.531 738.617 669.1 642.144 674.074 633.143 C 676.143 629.399 679.911 625.755 683.01 622.863 C 697.578 609.265 713.901 597.174 729.102 584.246 C 740.225 574.786 750.613 564.025 762.469 555.51 C 765.556 553.293 768.49 552.152 772.114 551.163 z" fill="rgb(4,4,4)" transform="translate(0,0)"></path>
<path d="M 772.354 554.108 C 799.25 556.146 792.198 584.239 775.463 594.949 C 771.439 597.525 762.36 606.984 758.692 610.745 C 783.929 611.696 903.37 608.018 914.081 612.965 C 918.179 614.858 921.227 618.795 922.534 623.06 C 923.862 627.393 923.381 632.008 921.046 635.904 C 918.552 640.064 914.409 642.688 909.77 643.857 C 901.528 645.935 892.475 644.888 884.051 644.643 C 867.999 644.175 831.55 642.183 817.33 645.721 L 817.966 646.494 C 825.137 648.509 850.866 647.324 861.327 647.811 C 868.111 651.732 875.502 660.875 871.46 669.016 C 861.193 689.698 833.778 676.064 818.377 682.43 C 832.385 685.015 845.342 679.141 856.958 689.314 C 873.647 727.283 823.371 710.935 817.564 718.268 C 821.252 720.743 836.051 717.378 842.006 724.285 C 850.811 734.497 844.56 751.75 830.939 752.424 C 813.446 753.288 795.732 752.78 778.201 752.737 L 674.154 752.808 C 674.066 717.781 672.405 668.685 675.979 635 C 676.497 630.113 763.731 556.833 772.354 554.108 z" fill="rgb(229,178,166)" transform="translate(0,0)"></path>
<path d="M 447.118 962.571 C 442.72 949.184 447.697 924.3 454.999 912.571 C 511.841 821.266 635.585 900.391 587.381 991.979 C 576.711 1012.25 551.604 1027.38 546.674 1052.38 C 540.266 1079.34 534.282 1103.53 503.983 1111.73 C 478.776 1118.55 452.922 1104.67 446.852 1078.83 C 445.246 1072.26 444.664 1059.78 447.307 1053.84 C 446.655 1044.36 447.109 1029.01 447.045 1019.15 C 446.923 1000.61 446.574 981.045 447.118 962.571 z" fill="rgb(238,153,107)" transform="translate(0,0)"></path>
<path d="M 447.118 962.571 C 442.72 949.184 447.697 924.3 454.999 912.571 C 511.841 821.266 635.585 900.391 587.381 991.979 C 576.711 1012.25 551.604 1027.38 546.674 1052.38 C 540.266 1079.34 534.282 1103.53 503.983 1111.73 C 478.776 1118.55 452.922 1104.67 446.852 1078.83 C 445.246 1072.26 444.664 1059.78 447.307 1053.84 C 448.873 1062.09 447.684 1070.61 449.742 1078.97 C 456.865 1107.9 489.673 1118.3 514.802 1104.26 C 521.839 1100.39 527.769 1094.78 532.027 1087.97 C 541.987 1071.86 540.939 1051.51 550.609 1034.91 C 564.739 1010.65 584.223 1001.37 592.264 972.99 C 610.304 909.324 545.624 851.456 486.118 884.81 C 467.855 895.473 453.117 915.109 449.498 936.098 C 448.035 944.582 449.628 954.157 447.118 962.571 z" fill="rgb(4,4,4)" transform="translate(0,0)"></path>
<path d="M 512.768 902.218 C 527.57 901.02 538.389 902.381 550.373 912.25 C 561.268 921.222 567.728 936.537 568.654 950.263 C 570.835 982.603 553.749 993.164 535.492 1015.47 C 528.448 1024.36 523.465 1035.46 515.91 1043.89 C 504.721 1056.38 491.666 1061.61 477.955 1048.95 C 459.105 1011.37 521.913 1022.92 523.397 991.008 C 524.721 962.535 495.424 953.828 475.351 972.327 C 467.93 939.02 478.546 912.166 512.768 902.218 z" fill="rgb(4,4,4)" transform="translate(0,0)"></path>
<path d="M 514.76 905.22 C 544.458 902.875 562.676 921.683 565.785 950.978 C 566.347 956.267 564.793 972.374 561.974 976.69 C 546.717 999.781 527.518 1019.88 511.98 1043.18 C 504.338 1054.64 490.145 1056.2 480.186 1046.15 C 470.324 1025.72 493.368 1021.45 507.104 1015.24 C 521.786 1009.46 532.674 990.403 524.092 975.418 C 512.946 955.954 492.955 956.773 476.492 966.157 C 474.532 935.753 482.064 912.378 514.76 905.22 z" fill="rgb(238,153,107)" transform="translate(0,0)"></path>
<path d="M 748.744 1284.82 C 754.576 1285.33 756.645 1286.03 762.053 1287.23 C 776.6 1295.54 780.004 1304.87 782.664 1320.89 C 794.65 1322.09 807.034 1323.49 819.007 1324.52 C 842.282 1326.52 874.053 1325.97 860.713 1360.35 L 860.835 1361.69 C 869.568 1383.13 901.396 1431.28 906.078 1449.02 C 902.415 1468.77 883.168 1478.2 870.408 1462.22 C 857.521 1446.08 847.787 1423.84 836.164 1405.85 C 819.952 1421.17 782.296 1465.25 763.348 1470.09 C 751.817 1473.03 739.341 1470.2 729.277 1464.15 C 718.892 1457.9 712.039 1448.22 709.236 1436.47 C 707.768 1430.31 707.615 1424.02 707.905 1417.73 C 708.779 1398.69 712.424 1379.53 714.586 1360.58 C 716.392 1344.76 716.618 1327.99 719.9 1312.46 C 720.917 1307.64 722.488 1302.31 725.237 1298.2 C 730.793 1289.88 739.25 1286.42 748.744 1284.82 z" fill="rgb(77,42,24)" transform="translate(0,0)"></path>
<path d="M 778.398 1362.6 C 785.063 1363.06 791 1363.77 797.617 1364.36 C 798.061 1365.64 798.459 1366.6 798.976 1367.85 C 796.144 1371.15 779.797 1385.62 775.664 1389.31 C 777.167 1379.27 777.657 1372.65 778.398 1362.6 z" fill="rgb(97,141,194)" transform="translate(0,0)"></path>
<path d="M 851.458 1366.84 C 854.652 1364.7 857.803 1362.84 860.713 1360.35 L 860.835 1361.69 C 851.268 1370.27 853.779 1369.28 840.503 1369.71 C 831.51 1370.01 805.107 1366.01 798.976 1367.85 C 798.459 1366.6 798.061 1365.64 797.617 1364.36 C 816.086 1365.31 832.865 1367.79 851.458 1366.84 z" fill="rgb(97,124,158)" transform="translate(0,0)"></path>
<path d="M 833.228 858.179 C 850.958 856.194 857.035 863.144 863.72 878.402 C 876.092 906.639 891.501 934.355 901.455 963.463 C 902.148 969.781 902.838 977.793 902.36 984.053 C 899.724 1018.59 912.401 1046.93 885.298 1072.62 C 891.793 1091.71 898.043 1110.89 904.049 1130.14 L 865.637 1130.6 C 849.993 1130.55 834.35 1130.4 818.708 1130.15 L 818.112 1079.08 C 813.668 1075.67 806.064 1068.39 805.591 1062.84 C 802.121 1034.93 806.954 1003.52 804.683 975.847 C 802.651 951.085 812.503 926.211 841.702 943.616 C 832.646 917.543 801.931 874.843 833.228 858.179 z" fill="rgb(4,4,4)" transform="translate(0,0)"></path>
<path d="M 833.12 861.245 C 847.265 859.11 854.645 863.94 860.173 877.177 C 871.996 905.483 887.655 933.286 898.131 962.093 C 899.882 966.909 899.496 979.797 899.539 985.103 C 899.668 1001.24 899.763 1017.45 899.559 1033.58 C 899.535 1052.45 894.751 1059.25 881.927 1071.47 C 885.211 1085.51 895.169 1111.61 899.883 1127.37 L 821.704 1127.31 C 821.381 1112.62 821.468 1097.48 821.366 1082.75 C 821.756 1071.38 807.797 1072.41 807.576 1055.64 C 807.159 1024.1 806.955 992.394 807.745 960.847 C 808.058 948.352 814.454 941.44 827.441 941.251 C 859.102 940.788 837.823 1017.65 846.202 1026.6 C 846.657 1026.22 847.27 1025.96 847.567 1025.44 C 849.228 1022.54 848.136 956.496 846.715 950.672 C 842.536 933.557 818.09 887.619 821.697 874.235 C 823.379 867.991 827.836 864.394 833.12 861.245 z" fill="rgb(240,196,158)" transform="translate(0,0)"></path>
<path d="M 752.639 857.19 C 767.463 857.704 778.97 869.07 775.487 883.361 C 770.802 902.578 761.027 924.956 753.626 943.264 C 779.546 925.599 791.756 949.001 790.63 972.412 C 790.074 995.899 790.241 1019.4 790.553 1042.88 C 790.778 1059.81 790.401 1068.56 775.442 1078.63 L 775.748 1130.17 L 742.55 1130.26 L 690.394 1130 C 697.144 1111.52 702.622 1092.03 709.294 1073.24 C 704.071 1068.14 695.492 1056.9 694.593 1049.19 C 691.946 1026.48 691.801 981.864 694.791 959.916 C 695.549 954.349 714.058 915.933 717.369 908.444 C 722.762 896.248 730.344 878.401 736.764 866.543 C 740.043 860.486 746.412 858.506 752.639 857.19 z" fill="rgb(4,4,4)" transform="translate(0,0)"></path>
<path d="M 750.115 860.131 C 752.482 860.021 755.056 860.072 757.386 860.483 C 761.899 861.279 766.844 863.793 769.535 867.592 C 782.308 885.623 750.328 933.411 747.128 953.839 C 746.027 960.867 745.574 1024.6 747.493 1027.15 C 757.023 1017.16 735.424 940.354 767.718 940.908 C 786.778 941.235 787.478 957.146 787.546 971.612 C 787.65 993.778 787.652 1015.36 787.686 1037.49 C 787.549 1052.26 789.655 1061.79 778.547 1072.91 L 774.611 1075.03 C 771.306 1080.85 772.888 1117.97 773.002 1127.51 L 694.683 1127.14 C 701.098 1109.01 706.015 1090.18 712.734 1071.89 C 691.198 1054.2 696.204 1032.25 695.905 1006.87 C 696.768 987.79 692.953 968.882 701.169 950.955 C 714.042 922.867 725.901 893.941 740.232 866.617 C 741.867 863.5 746.951 861.484 750.115 860.131 z" fill="rgb(238,153,107)" transform="translate(0,0)"></path>
<path d="M 753.09 1281.64 C 735.156 1273.19 726.262 1252.76 732.3 1233.87 C 738.339 1214.99 757.439 1203.51 776.947 1207.04 C 796.455 1210.56 810.326 1228.01 809.371 1247.81 C 808.415 1267.61 792.93 1283.63 773.173 1285.27 C 766.999 1287.07 766.748 1284.33 762.053 1287.23 C 756.645 1286.03 754.576 1285.33 748.744 1284.82 C 750.493 1283.84 751.51 1282.86 753.09 1281.64 z" fill="rgb(77,42,24)" transform="translate(0,0)"></path>
<path d="M 753.09 1281.64 C 759.351 1284.58 766.276 1285.84 773.173 1285.27 C 766.999 1287.07 766.748 1284.33 762.053 1287.23 C 756.645 1286.03 754.576 1285.33 748.744 1284.82 C 750.493 1283.84 751.51 1282.86 753.09 1281.64 z" fill="rgb(97,124,158)" transform="translate(0,0)"></path>
<path d="M 791.435 1577.24 C 812.741 1574.62 832.217 1589.55 835.208 1610.81 C 838.198 1632.07 823.6 1651.8 802.397 1655.16 C 788.35 1657.39 774.196 1651.86 765.374 1640.7 C 756.552 1629.55 754.435 1614.5 759.837 1601.35 C 765.239 1588.19 777.319 1578.97 791.435 1577.24 z" fill="rgb(144,142,142)" transform="translate(0,0)"></path>
<path d="M 791.695 1585.94 C 808.587 1583.4 824.317 1595.09 826.75 1612 C 829.183 1628.91 817.389 1644.57 800.467 1646.89 C 783.694 1649.2 768.205 1637.53 765.794 1620.77 C 763.382 1604.02 774.952 1588.45 791.695 1585.94 z" fill="rgb(189,185,181)" transform="translate(0,0)"></path>
<metadata><recraft-signature>{"signed_by": "recraft", "signature_b64": "xKU91014jFuhAshnFTVak023ikIfIaioWn2u+WD7QkM6dNgctPJx3y9z0qQA8SL7bPfVbpk7ZPuNhChupGqDDQ==", "signing_algo": "Ed25519", "generation_timestamp": 1779023224, "identifier": "c7218aa6-70c4-438d-b65e-9b2e9975f798"}</recraft-signature></metadata></svg>