<svg xmlns="http://www.w3.org/2000/svg" height="1024" preserveAspectRatio="none" style="display: block;" version="1.1" viewBox="0 0 2048 2048" width="1024">
<path d="M 0 0 L 2048 0 L 2048 2048 L 0 2048 L 0 0 z" fill="rgb(255,255,255)" transform="translate(0,0)"></path>
<path d="M 1119.92 725.876 C 1128.68 721.968 1133.22 717.612 1144.17 714.029 C 1150.81 711.857 1180.17 707.244 1182.28 705.87 C 1186.75 709.108 1204.31 709.297 1211.31 711.488 C 1239.85 720.413 1263.52 738.723 1280.84 762.948 C 1283.2 766.257 1290.01 779.397 1291.93 780.311 L 1292.76 779.121 C 1292.8 781.416 1302.03 824.26 1303.01 826.445 C 1367.49 859.562 1422.73 935.445 1435.35 1006.64 L 1436.6 1006.06 C 1457 961.872 1474.8 912.487 1493.77 867.415 C 1504.23 842.555 1516.78 803.633 1531.98 782.525 C 1546.11 762.748 1565.85 747.659 1588.64 739.206 C 1649.1 717.226 1709.9 748.304 1732.68 808.054 C 1744.77 839.745 1740.6 877.445 1725.83 907.397 C 1711.78 935.197 1695.84 963.004 1680.73 990.341 L 1612.65 1115.25 C 1596.78 1144.23 1578.66 1175.63 1564.16 1205.06 C 1586.88 1212.09 1623.75 1224.37 1644.4 1236.3 C 1657.84 1215.46 1677.71 1200.61 1702.09 1195.18 C 1725.68 1189.93 1750.39 1194.24 1770.82 1207.16 C 1790.87 1220.11 1805.74 1242.03 1810.72 1265.29 C 1815.64 1288.31 1811.12 1312.33 1798.19 1332 C 1790.5 1343.78 1785.83 1347.67 1775.76 1356.53 C 1819.02 1429.76 1813.19 1534.99 1759.64 1601.6 C 1764.92 1603.69 1766.58 1603.91 1768.83 1609.11 C 1769.14 1609.84 1769.44 1610.58 1769.72 1611.33 C 1771.15 1615.83 1781.76 1623.43 1786.8 1628.73 C 1808.59 1651.75 1813.41 1686.05 1798.81 1714.19 C 1789.47 1732.34 1774.48 1743.96 1755.21 1750.08 C 1748.62 1752.19 1741.8 1753.51 1734.9 1754 C 1710.25 1755.81 1674.92 1754.23 1649.51 1754.22 C 1630.7 1754.22 1595.59 1755.43 1577.86 1753.99 C 1530.82 1754.44 1483.26 1753.98 1436.2 1753.86 C 1418.8 1755.08 1399.21 1752.63 1381.99 1754.38 C 1303.14 1762.36 1212.49 1739.12 1148.39 1691.71 C 1145.49 1688.55 1132.4 1680.38 1128.05 1677.07 C 1112.72 1665.54 1099.29 1653 1087.02 1638.16 C 1047.76 1590.67 1037.48 1518.53 1058.46 1461.03 C 1072.03 1423.84 1091.73 1387.97 1106.33 1351.27 C 1123.99 1306.89 1148.57 1274.85 1185.79 1245.1 C 1181.3 1232.62 1177.57 1218.77 1174 1205.95 C 1161.08 1163.32 1149.47 1119.98 1136.56 1077.32 C 1133.95 1068.69 1131.79 1059.02 1128.3 1050.77 C 1126.41 1045.81 1125.02 1040.68 1123.5 1035.6 L 1089.8 920.096 C 1084.09 900.651 1070.83 860.829 1069.88 842.2 C 1067.77 801.098 1080.17 768.681 1106.29 738.099 C 1111 734.112 1115.69 730.365 1119.92 725.876 z" fill="rgb(250,184,161)" transform="translate(0,0)"></path>
<path d="M 1644.4 1236.3 C 1657.84 1215.46 1677.71 1200.61 1702.09 1195.18 C 1725.68 1189.93 1750.39 1194.24 1770.82 1207.16 C 1790.87 1220.11 1805.74 1242.03 1810.72 1265.29 C 1815.64 1288.31 1811.12 1312.33 1798.19 1332 C 1790.5 1343.78 1785.83 1347.67 1775.76 1356.53 C 1819.02 1429.76 1813.19 1534.99 1759.64 1601.6 C 1755.64 1598.83 1750.86 1596.9 1746.24 1595.43 C 1706.67 1582.83 1675.55 1593.32 1640.25 1610.7 C 1641.55 1608.17 1642.81 1605.62 1644.03 1603.05 C 1646.15 1598.56 1647.3 1596.72 1645.55 1591.84 C 1643.18 1589.02 1641.41 1589.02 1637.79 1588.13 C 1664.5 1508.68 1643.25 1472.06 1616.71 1398.29 C 1597.05 1343.65 1579.9 1298.08 1534.7 1258.14 C 1542.45 1244.1 1555.35 1217.54 1564.16 1205.06 C 1586.88 1212.09 1623.75 1224.37 1644.4 1236.3 z" fill="rgb(238,150,121)" transform="translate(0,0)"></path>
<path d="M 1644.4 1236.3 C 1657.84 1215.46 1677.71 1200.61 1702.09 1195.18 C 1725.68 1189.93 1750.39 1194.24 1770.82 1207.16 C 1790.87 1220.11 1805.74 1242.03 1810.72 1265.29 C 1815.64 1288.31 1811.12 1312.33 1798.19 1332 C 1790.5 1343.78 1785.83 1347.67 1775.76 1356.53 C 1769.09 1349.36 1757.37 1328.94 1748.41 1318.66 C 1717.24 1282.88 1684.69 1259.72 1644.4 1236.3 z" fill="rgb(228,126,96)" transform="translate(0,0)"></path>
<path d="M 1769.72 1611.33 C 1771.15 1615.83 1781.76 1623.43 1786.8 1628.73 C 1808.59 1651.75 1813.41 1686.05 1798.81 1714.19 C 1789.47 1732.34 1774.48 1743.96 1755.21 1750.08 C 1748.62 1752.19 1741.8 1753.51 1734.9 1754 C 1710.25 1755.81 1674.92 1754.23 1649.51 1754.22 C 1630.7 1754.22 1595.59 1755.43 1577.86 1753.99 C 1583.86 1742.06 1582.47 1734.03 1584.89 1721.23 C 1597.93 1652.23 1677.72 1593.85 1746.99 1616.98 C 1751.63 1618.53 1758.02 1623.3 1762.93 1622.09 C 1767.35 1619.35 1768.47 1616.19 1769.72 1611.33 z" fill="rgb(250,184,161)" transform="translate(0,0)"></path>
<path d="M 1303.01 826.445 C 1367.49 859.562 1422.73 935.445 1435.35 1006.64 C 1436.33 1014.64 1424.02 1041.57 1420.5 1050.48 L 1393.76 1118.7 C 1387.43 1134.52 1374.94 1170.36 1368.12 1183.84 C 1365.15 1185.5 1361.21 1185.01 1357.65 1184.97 C 1352.94 1163.28 1349.06 1133.04 1345.36 1110.3 C 1334.93 1045.33 1325.19 980.254 1316.14 915.077 C 1313.56 897.799 1310.8 880.549 1307.84 863.33 C 1306.36 854.488 1302.64 834.679 1303.01 826.445 z" fill="rgb(243,124,26)" transform="translate(0,0)"></path>
<path d="M 1637.79 1588.13 C 1641.41 1589.02 1643.18 1589.02 1645.55 1591.84 C 1647.3 1596.72 1646.15 1598.56 1644.03 1603.05 C 1642.81 1605.62 1641.55 1608.17 1640.25 1610.7 C 1675.55 1593.32 1706.67 1582.83 1746.24 1595.43 C 1750.86 1596.9 1755.64 1598.83 1759.64 1601.6 C 1764.92 1603.69 1766.58 1603.91 1768.83 1609.11 C 1769.14 1609.84 1769.44 1610.58 1769.72 1611.33 C 1768.47 1616.19 1767.35 1619.35 1762.93 1622.09 C 1758.02 1623.3 1751.63 1618.53 1746.99 1616.98 C 1677.72 1593.85 1597.93 1652.23 1584.89 1721.23 C 1582.47 1734.03 1583.86 1742.06 1577.86 1753.99 C 1530.82 1754.44 1483.26 1753.98 1436.2 1753.86 C 1427.47 1752.83 1419.19 1753.12 1410.43 1753.22 L 1411.53 1750.06 C 1436.2 1746.27 1488.57 1733.57 1510.98 1723.8 C 1572.88 1696.79 1613.23 1649.87 1637.79 1588.13 z" fill="rgb(228,126,96)" transform="translate(0,0)"></path>
<path d="M 1410.43 1753.22 C 1408.53 1753.25 1406.81 1753.25 1404.9 1753.16 L 1403.16 1753.07 L 1403.87 1753.18 C 1402.53 1752.94 1402.03 1753.03 1401.67 1752.6 L 1401.71 1752.48 C 1402.79 1751.66 1404.22 1751.38 1405.56 1751.12 C 1407.55 1750.74 1409.54 1750.39 1411.53 1750.06 L 1410.43 1753.22 z" fill="rgb(238,150,121)" transform="translate(0,0)"></path>
<path d="M 1606.29 825.224 C 1652.04 821.402 1679.66 866.238 1662.72 906.612 C 1654.96 925.111 1646.65 939.998 1637.3 957.668 L 1593.34 1040.75 L 1537.57 1146.75 C 1525.14 1170.64 1505.97 1208.57 1491.67 1230.73 L 1482.59 1224.51 C 1461.57 1211.9 1434.63 1199.81 1411.6 1191.67 C 1420.9 1173.82 1428.85 1153.95 1436.96 1135.42 L 1475.06 1048.16 C 1489.39 1014.61 1506.12 980.335 1520.98 946.51 L 1545.94 889.857 C 1560.74 856.586 1567.58 834.554 1606.29 825.224 z" fill="rgb(238,150,121)" transform="translate(0,0)"></path>
<path d="M 1181.62 808.276 C 1207.09 805.903 1233.07 824.269 1240.46 848.13 C 1249.03 875.78 1253.08 906.555 1259.15 935.006 L 1296.62 1106.03 C 1302.45 1132.89 1307.51 1163.09 1314.28 1189.43 C 1291.81 1195.41 1277.8 1199.24 1255.68 1207.23 C 1245.13 1211.46 1234.19 1215.63 1223.98 1220.56 L 1162.83 992.187 C 1152.85 954.631 1142.51 917.437 1134.14 879.473 C 1126.45 844.63 1145.99 813.808 1181.62 808.276 z" fill="rgb(238,150,121)" transform="translate(0,0)"></path>
<path d="M 1338.66 1482.37 C 1360.34 1479.77 1386.92 1483.54 1405.85 1495.29 C 1421.9 1505.25 1431.91 1524.45 1419.4 1541.56 C 1407.23 1558.2 1384.59 1563.72 1365.22 1566.86 C 1341.33 1568.63 1317.98 1566.8 1297.06 1553.72 C 1281.16 1543.79 1269.42 1524.46 1283.01 1507.34 C 1295.96 1491.01 1318.8 1484.98 1338.66 1482.37 z" fill="rgb(0,0,0)" transform="translate(0,0)"></path>
<path d="M 1209.28 1362.48 C 1233.06 1357.34 1256.51 1372.37 1261.78 1396.11 C 1267.05 1419.86 1252.15 1443.4 1228.43 1448.79 C 1204.53 1454.23 1180.78 1439.19 1175.47 1415.26 C 1170.16 1391.33 1185.33 1367.66 1209.28 1362.48 z" fill="rgb(0,0,0)" transform="translate(0,0)"></path>
<path d="M 1475.16 1361.73 C 1499.32 1360.19 1520.21 1378.41 1521.95 1402.56 C 1523.69 1426.7 1505.64 1447.74 1481.51 1449.68 C 1457.1 1451.64 1435.77 1433.33 1434 1408.91 C 1432.24 1384.48 1450.72 1363.3 1475.16 1361.73 z" fill="rgb(0,0,0)" transform="translate(0,0)"></path>
<path d="M 809.02 1026.08 C 816.703 1011.06 823.449 1000.98 840.571 995.381 C 867.82 986.467 887.823 1003.62 908.277 1018.51 C 916.619 1024.58 925.216 1030.65 933.405 1036.99 C 939.377 1040.88 940.551 1044.02 948.602 1048.3 C 979.518 1069.59 1009.71 1094.37 1041.14 1115.72 C 1043.07 1117.49 1054.76 1126.39 1056.44 1126.65 C 1065.5 1095.25 1074.48 1079.57 1104.71 1062.04 C 1112.27 1057.65 1120.94 1055.05 1128.3 1050.77 C 1131.79 1059.02 1133.95 1068.69 1136.56 1077.32 C 1149.47 1119.98 1161.08 1163.32 1174 1205.95 C 1177.57 1218.77 1181.3 1232.62 1185.79 1245.1 C 1148.57 1274.85 1123.99 1306.89 1106.33 1351.27 C 1091.73 1387.97 1072.03 1423.84 1058.46 1461.03 C 1037.48 1518.53 1047.76 1590.67 1087.02 1638.16 C 1099.29 1653 1112.72 1665.54 1128.05 1677.07 C 1132.4 1680.38 1145.49 1688.55 1148.39 1691.71 C 1128.06 1694 1102.6 1700.69 1080.94 1703.63 C 1064.25 1705.89 1045.35 1706.83 1029.78 1709.19 C 1013.61 1749.62 984.002 1755.37 944.562 1754.12 C 941.183 1754.03 938.172 1754.05 934.782 1754.12 L 874.18 1754.14 C 871.482 1754.08 868.784 1754.07 866.086 1754.1 C 859.595 1753.98 852.19 1754.44 845.901 1754.03 C 823.632 1752.61 793.934 1756.6 772.48 1753.12 C 765.81 1752.05 759.386 1749.79 753.513 1746.46 C 737.797 1737.4 729.62 1724.42 725.262 1707.12 C 699.328 1707.36 673.4 1706.24 647.584 1703.76 C 628.521 1754.54 597.154 1754.6 549.702 1754.29 C 546.934 1754.14 545.478 1754.21 542.712 1754.42 C 525.312 1755.44 496.792 1754.41 478.648 1754.33 C 478.09 1754.37 477.533 1754.41 476.976 1754.46 C 455.424 1754.38 390.491 1757.56 377.57 1750.32 C 294.301 1703.69 372.147 1599.39 442.781 1592.47 C 449.23 1591.84 470.659 1589.27 472.916 1588.48 C 475.894 1585.56 474.936 1586.06 475.536 1580.71 C 476.005 1577.22 476.691 1573.51 477.268 1570.02 C 480.64 1552.99 484.577 1536.09 489.071 1519.33 C 485.595 1516.42 482.196 1513.42 478.878 1510.33 C 430.522 1465.58 405.239 1417.12 402.666 1350.52 C 401.218 1351.5 399.764 1352.47 398.302 1353.42 C 361.619 1377.38 326.144 1362.88 304.282 1328.32 C 297.602 1319.24 264.721 1247.57 260.421 1235.76 C 253.995 1218.18 254.893 1198.75 262.915 1181.83 C 267.636 1172.01 274.18 1163.18 282.199 1155.81 C 300.678 1138.89 341.676 1109.62 362.954 1093.14 L 439.472 1034.41 C 451.682 1025.07 468.539 1011.4 480.776 1003.09 C 484.908 1000.33 489.403 998.163 494.132 996.644 C 506.456 992.612 519.877 993.632 531.449 999.482 C 546.216 1007.13 552.867 1018.56 557.442 1033.69 C 578.507 1022.25 605.113 1012.17 628.269 1005.74 C 647.093 999.812 673.586 996.955 693.294 996.24 C 697.797 996.48 706.073 996.41 710.562 995.991 C 715.569 998.035 735.706 999.878 743.169 1001.72 C 767.184 1007.64 786.764 1015.73 809.02 1026.08 z" fill="rgb(113,59,54)" transform="translate(0,0)"></path>
<path d="M 1056.44 1126.65 C 1065.5 1095.25 1074.48 1079.57 1104.71 1062.04 C 1112.27 1057.65 1120.94 1055.05 1128.3 1050.77 C 1131.79 1059.02 1133.95 1068.69 1136.56 1077.32 C 1149.47 1119.98 1161.08 1163.32 1174 1205.95 C 1152 1204.63 1132.37 1205.26 1110.35 1205.93 C 1110.25 1203.23 1110.08 1200.54 1109.86 1197.85 C 1106.3 1157.99 1082.67 1148.73 1057.95 1127.93 L 1056.44 1126.65 z" fill="rgb(243,124,26)" transform="translate(0,0)"></path>
<path d="M 304.282 1328.32 C 309.747 1328.26 321.725 1338.81 327.516 1341.72 C 370.367 1363.32 408.363 1329.36 425.221 1291.41 C 433.803 1272.09 443.118 1250.58 452.046 1230.41 C 481.092 1164.79 506.632 1096.81 537.873 1032.26 C 541.247 1025.32 555.255 1031.12 553.264 1039.18 C 542.432 1068.52 528.768 1097.06 516.439 1125.88 L 466.109 1243.43 C 448.359 1285.6 439.534 1320.86 402.666 1350.52 C 401.218 1351.5 399.764 1352.47 398.302 1353.42 C 361.619 1377.38 326.144 1362.88 304.282 1328.32 z" fill="rgb(43,13,11)" transform="translate(0,0)"></path>
<path d="M 477.268 1570.02 C 490.639 1564.81 546.119 1567.83 560.634 1570.46 C 571.176 1572.38 581.452 1575.55 591.246 1579.89 C 628.345 1596.16 664.543 1640.65 656.224 1687.26 C 655.223 1692.87 646.05 1692.81 642.853 1689.17 C 637.387 1684.47 638.457 1670.65 636.533 1663.92 C 629.773 1621.01 595.149 1593.77 553.448 1587.79 C 531.997 1584.71 505.442 1585.92 483.312 1586.25 L 475.536 1580.71 C 476.005 1577.22 476.691 1573.51 477.268 1570.02 z" fill="rgb(43,13,11)" transform="translate(0,0)"></path>
<path d="M 542.712 1754.42 C 532.624 1738.55 531.212 1717.45 534.106 1698.51 C 535.493 1689.43 541.165 1666.36 549.129 1659.55 C 559.244 1654.95 566.751 1662.75 561.939 1674.49 L 560.22 1678.58 C 553.325 1695.01 550.948 1714.49 554.079 1731.98 C 556.567 1745.87 561.066 1744.12 549.702 1754.29 C 546.934 1754.14 545.478 1754.21 542.712 1754.42 z" fill="rgb(43,13,11)" transform="translate(0,0)"></path>
<path d="M 866.086 1754.1 C 856.011 1741.88 854.403 1716.96 856.205 1702 C 856.69 1697.64 857.358 1693.31 858.207 1689.01 C 860.027 1679.95 864.824 1664.4 872.239 1658.33 C 877.852 1653.73 889.64 1662.52 886.872 1667.97 C 876.562 1688.26 871.143 1711.51 877.163 1733.97 C 880.072 1744.77 881.717 1746.06 874.18 1754.14 C 871.482 1754.08 868.784 1754.07 866.086 1754.1 z" fill="rgb(43,13,11)" transform="translate(0,0)"></path>
<path d="M 934.782 1754.12 C 931.691 1745.71 928.837 1742.95 927.329 1731.49 C 924.189 1708.89 927.086 1676.08 943.583 1659.05 C 947.179 1655.34 961.261 1659.93 956.437 1670.32 C 946.771 1691.13 942.441 1716.02 948.266 1738.49 C 950.355 1746.55 949.733 1748.05 944.562 1754.12 C 941.183 1754.03 938.172 1754.05 934.782 1754.12 z" fill="rgb(43,13,11)" transform="translate(0,0)"></path>
<path d="M 476.976 1754.46 C 455.065 1733.1 462.22 1683.15 476.582 1659.31 C 482.46 1649.55 500.378 1656.98 490.256 1673.59 C 483.331 1684.96 481.004 1713.68 483.258 1726.49 C 486.114 1744.3 493.57 1741.7 478.648 1754.33 C 478.09 1754.37 477.533 1754.41 476.976 1754.46 z" fill="rgb(43,13,11)" transform="translate(0,0)"></path>
<path d="M 658.581 1310.41 C 660.392 1310.19 659.203 1310.3 661.504 1310.19 C 702.624 1308.29 734.216 1308.29 766.541 1337.86 C 787.394 1356.94 798.081 1383.89 798.306 1411.96 C 798.631 1452.43 803.87 1494.02 773.165 1525.81 C 753.233 1546.45 728.694 1554.36 700.912 1555.08 C 662.599 1555.38 623.556 1560.34 592.713 1533.75 C 573.574 1517.3 559.613 1491.53 558.749 1465.85 C 557.34 1423.94 553.249 1380.34 583.259 1346.55 C 604.406 1322.73 627.681 1312.81 658.581 1310.41 z" fill="rgb(250,184,161)" transform="translate(0,0)"></path>
<path d="M 673.667 1343.42 C 743.555 1336.46 776.903 1403.96 688.457 1417.73 C 688.137 1433.69 685.415 1455.59 689.049 1470.86 C 691.472 1481.04 698.752 1490.89 707.619 1496.38 C 737.419 1514.83 746.993 1486.72 759.304 1484.56 C 762.332 1484.03 764.179 1484.51 766.698 1486.17 C 775.567 1503.73 742.774 1521.04 727.589 1519.8 C 708.91 1518.28 699.413 1514.08 686.417 1501.72 L 678.598 1492.55 C 668.773 1505.76 659.264 1514.6 641.61 1518.69 C 624.423 1522.68 596.867 1515.59 591.707 1495.66 C 591.038 1493.08 592.287 1491.62 593.779 1489.73 C 607.557 1483.8 611.176 1501.95 629.283 1501.46 C 676.448 1500.18 670.101 1451.08 669.937 1417.25 C 595.059 1402.6 604.635 1350.01 673.667 1343.42 z" fill="rgb(0,0,0)" transform="translate(0,0)"></path>
<path d="M 819.294 1029.91 C 823.79 1029.8 828.068 1029.4 830.525 1033.87 C 840.419 1051.88 848.359 1071.9 856.774 1090.63 L 916.469 1222.69 C 928.987 1250.87 941.127 1281.07 955.257 1308.3 C 986.44 1367.54 1038.51 1362.36 1070.89 1307.53 C 1075.2 1300.23 1089.19 1256.52 1101.06 1259.85 C 1108.94 1262.06 1107.37 1273.4 1104 1280.59 C 1096.88 1294.62 1091.18 1312.06 1082.4 1324.87 C 1058.53 1359.34 1013.77 1385.57 974.598 1357.84 C 940.551 1333.73 926.122 1290.12 910.07 1253.16 L 873.803 1171.83 C 856.592 1133.64 830.451 1080.38 814.574 1039.81 C 813.305 1036.57 817.036 1032.52 819.294 1029.91 z" fill="rgb(43,13,11)" transform="translate(0,0)"></path>
<path d="M 961.066 1393.92 C 982.002 1393.6 970.577 1415.1 965.867 1425.85 C 950.651 1460.05 929.246 1491.15 902.731 1517.58 C 850.949 1569.09 780.675 1595.51 708.833 1602.29 C 689.623 1604.11 671.031 1604.03 651.75 1603.98 C 637.934 1603.13 635.889 1588.48 645.651 1586.41 C 652.164 1585.03 668.274 1585.7 675.615 1585.71 C 762.249 1586 852.271 1552.53 908.117 1484.33 C 925.455 1463.16 940.421 1436.94 951.297 1411.92 C 953.841 1406.07 956.887 1398.68 961.066 1393.92 z" fill="rgb(43,13,11)" transform="translate(0,0)"></path>
<path d="M 857.201 1575.4 C 867.161 1573.83 881.469 1574.69 891.776 1574.59 C 920.979 1574.31 950.056 1576.54 978.344 1584.13 C 988.348 1586.81 1004.13 1588.32 1004.78 1601.96 C 998.557 1613.99 967.564 1599.83 954.977 1597.95 C 909.685 1591.17 841.846 1588.14 800.518 1608.07 C 777.696 1619.56 756.719 1642.22 746.459 1665.63 C 743.637 1672.07 742.156 1681.59 739.411 1687.18 C 738.151 1689.73 736.18 1691.86 733.737 1693.32 C 730.562 1695.18 728.66 1695.17 725.261 1694.22 C 711.114 1683.4 740.441 1636.12 749.115 1625.8 C 779.862 1589.24 811.252 1579.74 857.201 1575.4 z" fill="rgb(43,13,11)" transform="translate(0,0)"></path>
<path d="M 561.593 1202.39 C 577.195 1199.24 593.281 1204.76 603.665 1216.82 C 614.049 1228.89 617.114 1245.61 611.681 1260.57 C 606.247 1275.53 593.162 1286.4 577.458 1288.98 C 553.77 1292.89 531.323 1277.09 526.996 1253.48 C 522.67 1229.86 538.06 1207.14 561.593 1202.39 z" fill="rgb(0,0,0)" transform="translate(0,0)"></path>
<path d="M 794.377 1201.59 C 818.368 1199.06 839.922 1216.32 842.696 1240.29 C 845.47 1264.25 828.428 1285.98 804.493 1289 C 788.792 1290.98 773.237 1284.37 763.758 1271.7 C 754.279 1259.02 752.336 1242.24 758.67 1227.73 C 765.004 1213.23 778.638 1203.25 794.377 1201.59 z" fill="rgb(0,0,0)" transform="translate(0,0)"></path>
<path d="M 417.686 1653.87 C 423.468 1653.98 432.217 1654.69 430.78 1664.48 C 430.076 1669.27 425.07 1677.01 423.387 1682.62 C 418.817 1697.88 416.677 1714.86 421.285 1730.4 C 424.912 1741.81 427.478 1740.91 418.136 1750.64 C 404.066 1751.57 403.069 1734.7 401.071 1724 C 397.149 1702.98 402.455 1669.33 417.686 1653.87 z" fill="rgb(43,13,11)" transform="translate(0,0)"></path>
<path d="M 805.867 1656.94 C 819.119 1657.94 820.142 1664.24 814.358 1675.23 C 806.598 1689.98 804.576 1713.77 807.301 1729.99 C 809.274 1741.73 814.537 1744.27 805.669 1753.08 C 804.375 1753.03 797.334 1753.05 796.712 1752.45 C 792.159 1747.66 790.413 1738.76 789.129 1732.49 C 785.113 1712.89 788.24 1669.05 805.867 1656.94 z" fill="rgb(43,13,11)" transform="translate(0,0)"></path>
<path d="M 917.271 301.105 C 940.305 276.901 968.535 258.245 999.831 246.545 C 1119.82 202.538 1138.28 300.731 1109.77 393.554 C 1105.44 407.685 1099.07 420.675 1092.7 433.905 C 1125.7 480.85 1137.92 519.623 1138.5 576.415 C 1142.73 575.703 1181.5 565.714 1169.17 586.78 C 1166.02 592.17 1143.82 593.388 1135.91 594.445 C 1130.55 615.851 1126.24 629.951 1116.44 650.038 C 1124.29 650.563 1179.93 650.045 1161.42 669.788 C 1154.72 672.679 1118.77 667.523 1109.73 666.537 C 1103.44 671.56 1083.38 701.113 1076.64 709.885 C 1089.95 714.317 1106.75 720.622 1119.92 725.876 C 1115.69 730.365 1111 734.112 1106.29 738.099 C 1080.17 768.681 1067.77 801.098 1069.88 842.2 C 1070.83 860.829 1084.09 900.651 1089.8 920.096 L 1123.5 1035.6 C 1125.02 1040.68 1126.41 1045.81 1128.3 1050.77 C 1120.94 1055.05 1112.27 1057.65 1104.71 1062.04 C 1074.48 1079.57 1065.5 1095.25 1056.44 1126.65 C 1054.76 1126.39 1043.07 1117.49 1041.14 1115.72 C 1009.71 1094.37 979.518 1069.59 948.602 1048.3 C 940.551 1044.02 939.377 1040.88 933.405 1036.99 C 925.216 1030.65 916.619 1024.58 908.277 1018.51 C 887.823 1003.62 867.82 986.467 840.571 995.381 C 823.449 1000.98 816.703 1011.06 809.02 1026.08 C 786.764 1015.73 767.184 1007.64 743.169 1001.72 C 735.706 999.878 715.569 998.035 710.562 995.991 C 706.073 996.41 697.797 996.48 693.294 996.24 C 673.586 996.955 647.093 999.812 628.269 1005.74 C 608.024 942.153 598.042 886.356 596.84 819.006 C 595.958 809.048 595.949 796.481 595.671 786.312 C 590.574 784.359 582.627 779.763 577.494 777.112 C 547.867 761.813 528.837 746.461 505.835 723.139 C 493.365 727.481 442.325 747.253 433.281 747.604 C 429.807 746.416 430.072 746.455 427.773 743.539 C 426.498 738.987 426.326 734.395 431.252 732.067 C 439.829 728.013 448.983 725.039 457.92 721.849 C 470.049 717.482 482.121 712.96 494.135 708.286 C 483.188 693.978 475.171 681.239 465.084 666.452 C 456.386 667.283 416.126 673.011 413.746 671.394 C 384.75 651.699 450.842 649.92 458.711 649.113 C 450.229 631.19 446.903 614.011 442.586 594.946 C 433.993 593.692 407.15 592.357 403.852 587.16 C 390.097 565.49 434.959 576.838 439.318 577.554 C 440.966 576.212 442.411 548.011 443.119 543.054 C 449.052 501.493 466.885 469.209 486.141 433.27 C 471.664 401.209 463.246 366.746 461.311 331.622 C 459.13 286.354 472.208 237.651 526.942 235.775 C 577.708 234.035 628.48 266.881 664.587 300.534 C 732.208 273.823 793.6 267.255 865.436 284.52 C 883.06 288.755 900.157 295.113 917.271 301.105 z" fill="rgb(243,124,26)" transform="translate(0,0)"></path>
<path d="M 595.671 786.312 C 603.538 788.273 614.559 793.933 622.494 797.026 C 632.825 801.053 642.231 804.087 652.828 807.297 C 722.522 828.598 796.447 832.061 867.827 817.369 C 893.978 812.209 919.596 804.642 944.354 794.764 C 958.23 789.186 971.477 781.293 985.448 777.876 C 991.139 776.484 994.777 786.215 992.465 788.678 C 968.963 813.718 928.908 828.538 897.05 840.637 C 799.806 874.012 688.057 867.731 596.84 819.006 C 595.958 809.048 595.949 796.481 595.671 786.312 z" fill="rgb(232,81,4)" transform="translate(0,0)"></path>
<path d="M 442.586 594.946 C 433.993 593.692 407.15 592.357 403.852 587.16 C 390.097 565.49 434.959 576.838 439.318 577.554 C 496.848 586.594 557.147 591.86 614.854 601.181 C 623.349 602.553 633.612 601.27 639.652 608.577 C 640.627 611.346 640.765 613.337 639.534 616.025 C 638.4 618.5 637.104 619.742 634.448 620.55 C 630.971 621.607 464.31 598.012 442.586 594.946 z" fill="rgb(0,0,0)" transform="translate(0,0)"></path>
<path d="M 1109.73 666.537 L 967.588 652.466 C 958.673 651.502 938.696 651.67 932.087 648.369 C 928.288 643.811 928.007 639.309 931.782 634.622 C 938.445 630.187 996.765 638.189 1007.47 639.304 L 1116.44 650.038 C 1124.29 650.563 1179.93 650.045 1161.42 669.788 C 1154.72 672.679 1118.77 667.523 1109.73 666.537 z" fill="rgb(0,0,0)" transform="translate(0,0)"></path>
<path d="M 1138.5 576.415 C 1142.73 575.703 1181.5 565.714 1169.17 586.78 C 1166.02 592.17 1143.82 593.388 1135.91 594.445 C 1121.4 595.689 1098.56 599.675 1083.49 601.68 L 981.204 614.754 C 969.519 616.261 957.836 618.491 946.151 619.772 C 940.359 620.407 936.512 619.745 933.79 614.31 C 933.642 608.809 936.89 603.302 942.734 602.69 C 967.508 600.096 992.225 596.577 1016.93 593.301 L 1138.5 576.415 z" fill="rgb(0,0,0)" transform="translate(0,0)"></path>
<path d="M 458.711 649.113 C 516.498 644.887 574.195 637.2 631.961 633.252 C 639.525 632.735 645.168 647.825 628.153 650.093 C 615.301 651.806 601.619 652.86 588.709 654.176 L 492.778 663.351 C 488.647 663.757 468.039 665.577 465.084 666.452 C 456.386 667.283 416.126 673.011 413.746 671.394 C 384.75 651.699 450.842 649.92 458.711 649.113 z" fill="rgb(0,0,0)" transform="translate(0,0)"></path>
<path d="M 494.135 708.286 C 514.507 702.187 623.634 660.12 634.268 663.693 C 648.219 678.18 610.063 686.124 601.245 689.163 L 537.306 711.786 C 530.247 714.29 511.676 720.308 505.835 723.139 C 493.365 727.481 442.325 747.253 433.281 747.604 C 429.807 746.416 430.072 746.455 427.773 743.539 C 426.498 738.987 426.326 734.395 431.252 732.067 C 439.829 728.013 448.983 725.039 457.92 721.849 C 470.049 717.482 482.121 712.96 494.135 708.286 z" fill="rgb(0,0,0)" transform="translate(0,0)"></path>
<path d="M 1106.29 738.099 C 1095.18 735.461 1078.9 729.353 1067.92 725.426 L 1009.59 704.319 C 987.457 696.228 965.216 688.418 943.137 680.198 C 926.961 674.176 932.797 658.685 946.994 663.873 C 959.312 668.375 971.624 672.923 984.024 677.277 L 1076.64 709.885 C 1089.95 714.317 1106.75 720.622 1119.92 725.876 C 1115.69 730.365 1111 734.112 1106.29 738.099 z" fill="rgb(0,0,0)" transform="translate(0,0)"></path>
<path d="M 1123.5 1035.6 C 1125.02 1040.68 1126.41 1045.81 1128.3 1050.77 C 1120.94 1055.05 1112.27 1057.65 1104.71 1062.04 C 1074.48 1079.57 1065.5 1095.25 1056.44 1126.65 C 1054.76 1126.39 1043.07 1117.49 1041.14 1115.72 C 1043.44 1106.97 1046.77 1098.51 1051.05 1090.54 C 1066.39 1062.59 1093.25 1044.17 1123.5 1035.6 z" fill="rgb(0,0,0)" transform="translate(0,0)"></path>
<path d="M 933.405 1036.99 C 936.246 1023.76 938.395 1010.35 941.271 997.015 L 942.244 992.512 L 943.206 988.012 C 944.678 981.146 946.135 970.507 956.007 973.741 C 958.151 974.43 959.917 975.969 960.894 977.998 C 963.547 983.427 957.117 1005.74 955.75 1012.99 L 954.824 1017.99 C 954.533 1019.57 954.155 1021.38 953.846 1022.99 L 952.834 1027.99 C 951.477 1034.72 950.019 1041.57 948.602 1048.3 C 940.551 1044.02 939.377 1040.88 933.405 1036.99 z" fill="rgb(0,0,0)" transform="translate(0,0)"></path>
<path d="M 693.294 996.24 C 692.121 990.997 682.388 950.117 684.634 946.725 C 687.694 942.103 698.63 939.093 700.938 950.497 C 703.8 964.635 707.253 981.202 710.562 995.991 C 706.073 996.41 697.797 996.48 693.294 996.24 z" fill="rgb(0,0,0)" transform="translate(0,0)"></path>
<path d="M 781.36 548.411 C 860.242 544.745 887.374 611.93 795.961 625.944 C 796.103 644.117 797.081 658.724 812.131 671.583 C 825.963 683.402 844.534 684.435 860.084 675.144 C 865.891 671.774 872.752 656.706 879.791 657.112 C 890.683 657.732 888.079 669.555 883.785 675.545 C 857.858 711.714 810.335 702.794 788.034 669.628 C 771.159 699.649 733.019 707.095 703.66 692.05 C 693.416 686.8 668.014 661.25 690.045 657.364 C 693.421 656.769 702.602 669.88 705.212 672.001 C 720.33 688.053 753.692 684.476 768.291 669.415 C 779.826 657.515 780.068 641.531 779.662 625.99 C 700.56 614.822 703.924 554.996 781.36 548.411 z" fill="rgb(0,0,0)" transform="translate(0,0)"></path>
<path d="M 1014.58 292.355 C 1048.53 287.122 1068.4 305.885 1070.86 338.845 C 1072.34 358.762 1067.44 374.947 1062.09 393.761 C 1053.78 385.662 1046.21 378.418 1037.44 370.77 C 1011.56 347.644 984.471 332.364 953.98 316.64 C 975.787 301.771 988.374 295.964 1014.58 292.355 z" fill="rgb(232,81,4)" transform="translate(0,0)"></path>
<path d="M 920.991 460.462 C 944.901 456.602 967.43 472.803 971.38 496.697 C 975.329 520.592 959.213 543.181 935.333 547.221 C 911.327 551.281 888.591 535.06 884.621 511.039 C 880.65 487.018 896.956 464.343 920.991 460.462 z" fill="rgb(0,0,0)" transform="translate(0,0)"></path>
<path d="M 638.249 460.599 C 662.227 456.221 685.186 472.196 689.417 496.2 C 693.647 520.204 677.533 543.065 653.503 547.148 C 629.681 551.196 607.06 535.251 602.866 511.454 C 598.672 487.657 614.479 464.939 638.249 460.599 z" fill="rgb(0,0,0)" transform="translate(0,0)"></path>
<path d="M 549.059 291.305 C 575.952 289.101 603.24 300.809 624.338 316.696 C 595.488 329.041 575.638 342.289 551.343 361.364 C 538.869 372.029 527.306 382.004 516.146 394.098 C 504.802 356.765 494.974 299.028 549.059 291.305 z" fill="rgb(232,81,4)" transform="translate(0,0)"></path>
<path d="M 1182.28 705.87 C 1191.07 679.837 1201.08 651.95 1213.37 627.299 C 1245.31 563.244 1297.96 509.385 1361.95 477.194 C 1422 447.045 1496.39 443.903 1559.73 465.42 C 1587.24 474.766 1618.77 491.452 1632.12 518.627 C 1648.04 551.054 1629.8 586.402 1598.49 600.426 C 1561.57 616.966 1527.19 591.234 1490.45 587.842 C 1402.09 578.904 1338.4 643.882 1308.42 720.655 C 1303.48 733.315 1293.22 766.823 1292.76 779.121 L 1291.93 780.311 C 1290.01 779.397 1283.2 766.257 1280.84 762.948 C 1263.52 738.723 1239.85 720.413 1211.31 711.488 C 1204.31 709.297 1186.75 709.108 1182.28 705.87 z" fill="rgb(243,124,26)" transform="translate(0,0)"></path>
<metadata><recraft-signature>{"signed_by": "recraft", "signature_b64": "9EULVHYshTgCLPeoWSaRY0EYNT9NuSRg1bqDY/XkNSZVHI4iIzJOoduNmK/GkFNlnaoadwrUv3Nv0NDBKB5JBA==", "signing_algo": "Ed25519", "generation_timestamp": 1779006972, "identifier": "b9de4b3e-bf5a-436a-8107-8e72de772efe"}</recraft-signature></metadata></svg>