<svg xmlns="http://www.w3.org/2000/svg" height="1024" preserveAspectRatio="none" style="display: block;" version="1.1" viewBox="0 0 2048 2048" width="1024">
<path d="M 0 0 L 2048 0 L 2048 2048 L 0 2048 L 0 0 z" fill="rgb(255,255,255)" transform="translate(0,0)"></path>
<path d="M 613.762 513.457 C 623.956 509.688 663.829 510.792 677.281 510.724 L 810.905 510.686 L 1320 510.746 L 1414.71 510.773 C 1425.78 510.746 1463.11 509.415 1470.11 512.796 C 1475.08 513.149 1484.96 518.117 1488.24 521.916 C 1494.96 527.428 1498.3 530.979 1501.67 538.792 C 1512.28 551.778 1509.88 584.291 1497.9 596.184 C 1494.9 601.069 1492.52 603.333 1488.05 607.022 C 1476.73 614.368 1472.65 616.18 1458.84 618.133 C 1459.64 633.197 1460.04 648.28 1460.04 663.366 C 1464.28 658.931 1470.63 652.044 1475.86 649.07 C 1477.63 646.013 1501.42 629.543 1505.8 627.556 C 1508.13 625.107 1519.15 618.221 1522.38 616.224 C 1550.13 599.088 1573.54 586.886 1606.28 582.906 C 1615.7 582.942 1642.63 583.344 1650.97 587.856 C 1663.11 590.858 1698.55 606.849 1704.19 615.988 C 1709.99 619.748 1718.18 628.036 1722.15 633.719 C 1729.16 640.309 1735.22 649.717 1739.78 658.173 C 1767.77 710.01 1751.29 756.049 1729.34 805.202 C 1709.76 850.106 1685.93 893.029 1658.16 933.384 C 1654.25 939.177 1645 953.988 1640.39 958.142 C 1639.26 960.513 1639.58 960.13 1637.99 962.163 C 1622.62 982.957 1574.78 1040.37 1554.17 1055.07 C 1552.57 1058.16 1545.24 1064.05 1542.24 1066.1 C 1539.99 1068.57 1540.12 1068.95 1537.22 1070.4 C 1533.48 1074.39 1531.99 1075.48 1527.78 1078.76 C 1525.64 1080.61 1523.59 1082.6 1521.14 1083.98 C 1519.91 1086.17 1510.34 1093.87 1508.18 1094.38 C 1506.1 1096.32 1504.54 1098.07 1502.12 1099.5 C 1499.22 1101.96 1494.57 1105.59 1491.1 1107.1 C 1482.21 1115.59 1412.91 1158.2 1402.93 1160.52 C 1364.23 1183.55 1264.04 1214.27 1218.96 1219.37 C 1216.62 1221.16 1213.53 1223.78 1211 1224.95 C 1208.34 1229.06 1202.45 1233.5 1198.08 1235.87 C 1196.84 1238.61 1191.86 1241.96 1189 1243 C 1186.61 1246.41 1180.76 1250.48 1177.12 1252.11 C 1171.36 1257.74 1150.7 1270.45 1142.89 1274.24 C 1139.87 1275.96 1137.49 1277.59 1134.61 1279.48 C 1133.26 1281.15 1132.35 1281.02 1130.09 1281.64 L 1128.88 1282.18 L 1129.12 1279.88 C 1124.28 1278.32 1086.58 1278.99 1078.11 1279.02 L 952.433 1279.75 C 947.746 1276.67 947.071 1275.98 941.819 1274.49 C 939.021 1274.04 934.187 1270.26 931.894 1268.57 C 926.119 1266.59 894.274 1243.78 888.853 1238.3 C 882.427 1236.16 874.573 1227.13 868.991 1222.9 C 867.965 1222.12 866.929 1221.35 865.914 1220.56 C 859.665 1219.84 853.889 1218.67 847.737 1217.46 C 829.206 1216.89 718.591 1181.36 704.813 1170.64 C 690.799 1165.94 670.825 1154.24 657.828 1146.92 C 582.498 1104.22 516.226 1047.23 462.727 979.142 C 457.169 972.161 437.88 948.651 434.562 941.078 C 429.56 935.762 416.393 915.163 412.015 907.711 C 381.927 855.213 343.368 790.471 335.024 730.177 C 324.735 655.827 390.812 588.218 462.838 583.035 C 519.449 578.962 584.266 625.159 624.959 661.287 C 624.776 649.315 626.777 630.28 627.564 617.576 C 567.709 611.158 557.723 533.251 613.762 513.457 z" fill="rgb(189,149,38)" transform="translate(0,0)"></path>
<path d="M 626.845 646.135 C 643.363 647.192 664.205 646.59 681.269 646.655 L 784.452 646.95 L 1113.13 646.979 L 1203.06 646.81 C 1248.31 646.611 1283.55 641.916 1316.58 679.879 C 1359.69 729.426 1343.84 796.921 1328.35 854.191 C 1293.28 983.908 1227.14 1113.91 1125.58 1204.13 C 1090.02 1235.34 1039.83 1260.74 993.06 1265.34 C 975.407 1267.07 956.671 1266.38 939.28 1269.59 C 935.931 1270.21 935.18 1269.76 931.894 1268.57 C 926.119 1266.59 894.274 1243.78 888.853 1238.3 C 882.427 1236.16 874.573 1227.13 868.991 1222.9 C 867.965 1222.12 866.929 1221.35 865.914 1220.56 C 859.665 1219.84 853.889 1218.67 847.737 1217.46 C 855.97 1216.86 855.925 1217.64 863.858 1218.99 C 848.834 1205.01 837.011 1194.14 822.635 1179.18 C 810.996 1166.74 800.569 1152.76 788.565 1140.9 C 786.531 1138.89 765.17 1130.58 764.194 1128.34 C 764.246 1127.89 764.166 1128.19 764.606 1127.35 C 771.086 1130 780.789 1135.64 788.026 1138.9 C 783.713 1132.7 760.207 1102.94 758.6 1098.14 C 745.652 1084.66 693.217 987.093 689.369 969.27 C 688.742 964.521 680.334 944.157 678.202 938.45 C 673.831 926.541 669.745 914.528 665.948 902.424 C 646.741 841.079 627.294 754.282 626.823 689.549 C 627.11 682.972 627.189 678.265 626.105 671.736 C 625.919 663.858 626.525 654.14 626.845 646.135 z" fill="rgb(253,195,25)" transform="translate(0,0)"></path>
<path d="M 758.6 1098.14 C 760.858 1098.68 783.99 1130.73 787.631 1135.36 C 799.606 1150.59 812.278 1164.68 825.044 1179.18 L 822.635 1179.18 C 810.996 1166.74 800.569 1152.76 788.565 1140.9 C 786.531 1138.89 765.17 1130.58 764.194 1128.34 C 764.246 1127.89 764.166 1128.19 764.606 1127.35 C 771.086 1130 780.789 1135.64 788.026 1138.9 C 783.713 1132.7 760.207 1102.94 758.6 1098.14 z" fill="rgb(38,35,12)" transform="translate(0,0)"></path>
<path d="M 825.044 1179.18 C 840.458 1195.57 856.888 1210.98 874.235 1225.3 C 876.951 1227.52 888.266 1235.99 888.853 1238.3 C 882.427 1236.16 874.573 1227.13 868.991 1222.9 C 867.965 1222.12 866.929 1221.35 865.914 1220.56 C 859.665 1219.84 853.889 1218.67 847.737 1217.46 C 855.97 1216.86 855.925 1217.64 863.858 1218.99 C 848.834 1205.01 837.011 1194.14 822.635 1179.18 L 825.044 1179.18 z" fill="rgb(38,35,12)" transform="translate(0,0)"></path>
<path d="M 1606.28 582.906 C 1615.7 582.942 1642.63 583.344 1650.97 587.856 C 1663.11 590.858 1698.55 606.849 1704.19 615.988 C 1709.99 619.748 1718.18 628.036 1722.15 633.719 C 1729.16 640.309 1735.22 649.717 1739.78 658.173 C 1767.77 710.01 1751.29 756.049 1729.34 805.202 C 1709.76 850.106 1685.93 893.029 1658.16 933.384 C 1654.25 939.177 1645 953.988 1640.39 958.142 C 1639.26 960.513 1639.58 960.13 1637.99 962.163 C 1622.62 982.957 1574.78 1040.37 1554.17 1055.07 C 1552.57 1058.16 1545.24 1064.05 1542.24 1066.1 C 1539.99 1068.57 1540.12 1068.95 1537.22 1070.4 C 1533.48 1074.39 1531.99 1075.48 1527.78 1078.76 C 1525.64 1080.61 1523.59 1082.6 1521.14 1083.98 C 1519.91 1086.17 1510.34 1093.87 1508.18 1094.38 C 1506.1 1096.32 1504.54 1098.07 1502.12 1099.5 C 1499.22 1101.96 1494.57 1105.59 1491.1 1107.1 C 1482.21 1115.59 1412.91 1158.2 1402.93 1160.52 C 1364.23 1183.55 1264.04 1214.27 1218.96 1219.37 C 1216.62 1221.16 1213.53 1223.78 1211 1224.95 C 1213 1221.76 1217.96 1217.37 1220.86 1214.54 L 1222.12 1215.5 C 1244.87 1196.7 1264.82 1172.78 1284.17 1150.69 C 1288.02 1146.3 1291.14 1142.17 1295.93 1138.71 L 1295.57 1137.62 C 1306.51 1119.66 1330.74 1092.98 1339.45 1074.14 C 1345.76 1067.01 1363.93 1033.09 1368.37 1023.92 C 1409.42 947.279 1438.72 849.601 1451.49 763.738 C 1456.83 758.974 1469.23 748.167 1473.15 743.013 C 1470.35 743.303 1456.05 757.29 1452.27 760.632 C 1456.62 729.982 1460.21 696.418 1460.27 665.443 C 1465.37 659.393 1470.88 655.21 1475.86 649.07 C 1477.63 646.013 1501.42 629.543 1505.8 627.556 C 1508.13 625.107 1519.15 618.221 1522.38 616.224 C 1550.13 599.088 1573.54 586.886 1606.28 582.906 z" fill="rgb(253,195,25)" transform="translate(0,0)"></path>
<path d="M 1473.15 743.013 L 1473.91 742.467 C 1504.55 720.074 1546.18 670.59 1587.15 679.132 C 1671.7 696.763 1620.96 796.851 1598.2 841.49 C 1547.13 941.649 1474.6 1027.74 1381.52 1089.88 C 1366.13 1100.34 1350.21 1110 1333.83 1118.82 C 1323.45 1124.37 1311.76 1129.62 1301.81 1135.11 L 1295.57 1137.62 C 1306.51 1119.66 1330.74 1092.98 1339.45 1074.14 C 1345.76 1067.01 1363.93 1033.09 1368.37 1023.92 C 1409.42 947.279 1438.72 849.601 1451.49 763.738 C 1456.83 758.974 1469.23 748.167 1473.15 743.013 z" fill="rgb(255,255,255)" transform="translate(0,0)"></path>
<path d="M 1606.28 582.906 C 1615.7 582.942 1642.63 583.344 1650.97 587.856 C 1663.11 590.858 1698.55 606.849 1704.19 615.988 C 1709.99 619.748 1718.18 628.036 1722.15 633.719 C 1729.16 640.309 1735.22 649.717 1739.78 658.173 C 1767.77 710.01 1751.29 756.049 1729.34 805.202 C 1709.76 850.106 1685.93 893.029 1658.16 933.384 C 1654.25 939.177 1645 953.988 1640.39 958.142 C 1639.26 960.513 1639.58 960.13 1637.99 962.163 C 1622.62 982.957 1574.78 1040.37 1554.17 1055.07 C 1552.57 1058.16 1545.24 1064.05 1542.24 1066.1 C 1539.99 1068.57 1540.12 1068.95 1537.22 1070.4 C 1533.48 1074.39 1531.99 1075.48 1527.78 1078.76 C 1525.64 1080.61 1523.59 1082.6 1521.14 1083.98 C 1519.91 1086.17 1510.34 1093.87 1508.18 1094.38 C 1506.1 1096.32 1504.54 1098.07 1502.12 1099.5 C 1499.22 1101.96 1494.57 1105.59 1491.1 1107.1 C 1482.21 1115.59 1412.91 1158.2 1402.93 1160.52 C 1364.23 1183.55 1264.04 1214.27 1218.96 1219.37 C 1216.62 1221.16 1213.53 1223.78 1211 1224.95 C 1213 1221.76 1217.96 1217.37 1220.86 1214.54 L 1222.12 1215.5 C 1244.87 1196.7 1264.82 1172.78 1284.17 1150.69 C 1288.02 1146.3 1291.14 1142.17 1295.93 1138.71 L 1295.57 1137.62 L 1301.81 1135.11 C 1301.39 1147.43 1276.59 1177.74 1268.11 1189.39 C 1438.92 1131.99 1565.13 1020.85 1651.03 863.029 C 1676.8 812.54 1706.92 750.787 1688.94 693.66 C 1667.59 625.807 1600.8 595.502 1535.01 617.207 C 1531.23 618.454 1525.24 618.575 1522.03 619.748 C 1515.98 621.962 1512.56 625.807 1505.8 627.556 C 1508.13 625.107 1519.15 618.221 1522.38 616.224 C 1550.13 599.088 1573.54 586.886 1606.28 582.906 z" fill="rgb(189,149,38)" transform="translate(0,0)"></path>
<path d="M 1222.12 1215.5 L 1221.71 1216.32 C 1231.87 1223.19 1370.94 1177.93 1388.31 1166.02 C 1391.17 1164.05 1399.38 1160.85 1402.93 1160.52 C 1364.23 1183.55 1264.04 1214.27 1218.96 1219.37 C 1216.62 1221.16 1213.53 1223.78 1211 1224.95 C 1213 1221.76 1217.96 1217.37 1220.86 1214.54 L 1222.12 1215.5 z" fill="rgb(38,35,12)" transform="translate(0,0)"></path>
<path d="M 1606.28 582.906 C 1615.7 582.942 1642.63 583.344 1650.97 587.856 C 1650.55 588.284 1650.12 588.712 1649.69 589.14 C 1650.76 589.04 1638.38 586.591 1639.5 587.062 C 1634.56 584.99 1604.76 585.995 1602.82 584.829 L 1602.85 584.533 C 1603.43 583.848 1604.17 583.576 1605.01 583.325 L 1606.28 582.906 z" fill="rgb(135,110,25)" transform="translate(0,0)"></path>
<path d="M 1704.19 615.988 C 1709.99 619.748 1718.18 628.036 1722.15 633.719 C 1712.79 628.026 1710.38 625.562 1704.19 615.988 z" fill="rgb(167,132,36)" transform="translate(0,0)"></path>
<path d="M 1508.18 1094.38 C 1507.32 1090.39 1519.44 1083.5 1521.14 1083.98 C 1519.91 1086.17 1510.34 1093.87 1508.18 1094.38 z" fill="rgb(167,132,36)" transform="translate(0,0)"></path>
<path d="M 1542.24 1066.1 C 1544.14 1063.08 1549.48 1053.48 1554.17 1055.07 C 1552.57 1058.16 1545.24 1064.05 1542.24 1066.1 z" fill="rgb(167,132,36)" transform="translate(0,0)"></path>
<path d="M 1527.78 1078.76 C 1524.97 1075.3 1534.46 1071.2 1537.22 1070.4 C 1533.48 1074.39 1531.99 1075.48 1527.78 1078.76 z" fill="rgb(167,132,36)" transform="translate(0,0)"></path>
<path d="M 1491.1 1107.1 C 1491.98 1102.67 1498.3 1099.5 1502.12 1099.5 C 1499.22 1101.96 1494.57 1105.59 1491.1 1107.1 z" fill="rgb(167,132,36)" transform="translate(0,0)"></path>
<path d="M 434.562 941.078 C 432.104 934.169 414.485 909.956 409.28 900.647 C 381.491 850.948 341.566 782.514 336.329 725.461 C 333.092 690.191 347.11 655.485 370.695 630.117 C 395.556 603.378 427.828 586.944 464.627 584.753 C 512.187 581.922 551.644 608.183 588.454 634.792 C 600.03 643.16 613.768 653.305 624.308 663.017 C 624.06 675.207 624.969 695.525 626.284 707.548 C 625.785 718.402 628.694 746.123 630.327 757.295 C 622.311 747.903 614.38 740.592 605.454 732.102 C 604.433 731.454 604.512 731.62 603.881 730.741 C 594.677 722.994 580.165 710.273 570.519 703.936 L 568.889 704.465 C 592.916 723.232 610.806 738.49 631.401 761.095 C 641.476 820.408 653.892 875.594 674.267 932.513 C 677.22 940.76 685.191 962.754 689.369 969.27 C 693.217 987.093 745.652 1084.66 758.6 1098.14 C 760.207 1102.94 783.713 1132.7 788.026 1138.9 C 780.789 1135.64 771.086 1130 764.606 1127.35 C 764.166 1128.19 764.246 1127.89 764.194 1128.34 C 765.17 1130.58 786.531 1138.89 788.565 1140.9 C 800.569 1152.76 810.996 1166.74 822.635 1179.18 C 837.011 1194.14 848.834 1205.01 863.858 1218.99 C 855.925 1217.64 855.97 1216.86 847.737 1217.46 C 829.206 1216.89 718.591 1181.36 704.813 1170.64 C 690.799 1165.94 670.825 1154.24 657.828 1146.92 C 582.498 1104.22 516.226 1047.23 462.727 979.142 C 457.169 972.161 437.88 948.651 434.562 941.078 z" fill="rgb(253,195,25)" transform="translate(0,0)"></path>
<path d="M 484.195 683.589 C 517.894 670.495 541.365 685.356 568.889 704.465 C 592.916 723.232 610.806 738.49 631.401 761.095 C 641.476 820.408 653.892 875.594 674.267 932.513 C 677.22 940.76 685.191 962.754 689.369 969.27 C 693.217 987.093 745.652 1084.66 758.6 1098.14 C 760.207 1102.94 783.713 1132.7 788.026 1138.9 C 780.789 1135.64 771.086 1130 764.606 1127.35 C 753.579 1120.04 739.96 1113.02 728.325 1105.34 C 721.097 1100.56 700.161 1085.37 694.197 1082.55 C 692.281 1080.68 688.723 1077.27 686.142 1076.64 C 682.99 1073.12 675.158 1067.53 671.199 1064.98 C 670.333 1063.53 636.175 1034.35 632.197 1031.01 C 631.802 1030.48 628.929 1028.46 628.201 1027.92 C 627.78 1027.18 590.141 988.564 588.106 986.968 C 587.695 984.088 581.657 978.938 579.36 976.811 C 578.81 974.718 572.901 968.548 571.148 966.658 C 569.569 964.298 565.353 958.269 562.983 956.828 C 558.681 948.836 541.084 928.025 534.098 917.055 C 502.196 866.961 470.959 814.017 456.221 755.939 C 449.937 731.173 453.118 719.028 465.98 698.166 C 466.912 697.622 467.302 697.399 468.038 696.55 C 472.952 690.877 478.01 687.68 484.195 683.589 z" fill="rgb(255,255,255)" transform="translate(0,0)"></path>
<path d="M 704.813 1170.64 C 708.182 1170.16 726.296 1178.19 730.849 1180.03 C 753.22 1189.04 775.984 1197.05 799.072 1204.03 C 808.937 1206.95 826.137 1208.69 834.117 1213.27 L 835.347 1212.43 L 835.355 1212.11 C 830.5 1205.79 798.822 1193.36 789.272 1188.62 C 661.413 1125.26 564.044 1045.79 481.968 928.522 C 451.668 885.227 423.963 835.999 407.401 785.637 C 397.166 754.515 394.217 719.252 409.808 689.337 C 420.138 669.516 438.646 656.228 459.741 649.725 C 501.781 636.764 547.774 648.437 582.193 674.493 C 596.379 685.231 609.614 698.919 625.452 707.13 C 625.728 707.273 626.007 707.408 626.284 707.548 C 625.785 718.402 628.694 746.123 630.327 757.295 C 622.311 747.903 614.38 740.592 605.454 732.102 C 604.433 731.454 604.512 731.62 603.881 730.741 C 594.677 722.994 580.165 710.273 570.519 703.936 L 568.889 704.465 C 541.365 685.356 517.894 670.495 484.195 683.589 C 478.01 687.68 472.952 690.877 468.038 696.55 C 467.302 697.399 466.912 697.622 465.98 698.166 C 453.118 719.028 449.937 731.173 456.221 755.939 C 470.959 814.017 502.196 866.961 534.098 917.055 C 541.084 928.025 558.681 948.836 562.983 956.828 C 565.353 958.269 569.569 964.298 571.148 966.658 C 572.901 968.548 578.81 974.718 579.36 976.811 C 581.657 978.938 587.695 984.088 588.106 986.968 C 590.141 988.564 627.78 1027.18 628.201 1027.92 C 628.929 1028.46 631.802 1030.48 632.197 1031.01 C 636.175 1034.35 670.333 1063.53 671.199 1064.98 C 675.158 1067.53 682.99 1073.12 686.142 1076.64 C 688.723 1077.27 692.281 1080.68 694.197 1082.55 C 700.161 1085.37 721.097 1100.56 728.325 1105.34 C 739.96 1113.02 753.579 1120.04 764.606 1127.35 C 764.166 1128.19 764.246 1127.89 764.194 1128.34 C 765.17 1130.58 786.531 1138.89 788.565 1140.9 C 800.569 1152.76 810.996 1166.74 822.635 1179.18 C 837.011 1194.14 848.834 1205.01 863.858 1218.99 C 855.925 1217.64 855.97 1216.86 847.737 1217.46 C 829.206 1216.89 718.591 1181.36 704.813 1170.64 z" fill="rgb(189,149,38)" transform="translate(0,0)"></path>
<path d="M 588.106 986.968 C 590.141 988.564 627.78 1027.18 628.201 1027.92 C 622.676 1029.68 602.812 1004.99 598.918 1000.44 C 592.398 992.829 592.625 997.269 588.106 986.968 z" fill="rgb(135,110,25)" transform="translate(0,0)"></path>
<path d="M 671.199 1064.98 C 667.463 1066.12 633.119 1036.07 632.197 1031.01 C 636.175 1034.35 670.333 1063.53 671.199 1064.98 z" fill="rgb(167,132,36)" transform="translate(0,0)"></path>
<path d="M 465.98 698.166 C 464.923 693.936 477.448 683.328 484.195 683.589 C 478.01 687.68 472.952 690.877 468.038 696.55 C 467.302 697.399 466.912 697.622 465.98 698.166 z" fill="rgb(167,132,36)" transform="translate(0,0)"></path>
<path d="M 579.36 976.811 C 581.657 978.938 587.695 984.088 588.106 986.968 C 582.001 984.91 581.204 982.676 579.36 976.811 z" fill="rgb(167,132,36)" transform="translate(0,0)"></path>
<path d="M 562.983 956.828 C 565.353 958.269 569.569 964.298 571.148 966.658 C 567.174 965.33 561.766 961.05 562.983 956.828 z" fill="rgb(167,132,36)" transform="translate(0,0)"></path>
<path d="M 686.142 1076.64 C 688.723 1077.27 692.281 1080.68 694.197 1082.55 C 690.732 1081.57 685.236 1080.64 686.142 1076.64 z" fill="rgb(167,132,36)" transform="translate(0,0)"></path>
<path d="M 428.701 617.952 C 447.041 615.385 451.174 630.353 446.35 645.266 C 441.495 650.14 435.766 652.523 430.676 656.676 C 395.001 685.777 384.681 718.546 393.602 762.33 C 392.875 763.902 392.129 765.465 391.367 767.02 C 387.818 774.091 384.199 777.591 376.701 779.99 C 354.464 779.002 354.726 761.008 353.616 742.914 C 350.253 688.088 381.722 642.371 428.701 617.952 z" fill="rgb(254,222,135)" transform="translate(0,0)"></path>
<path d="M 613.762 513.457 C 623.956 509.688 663.829 510.792 677.281 510.724 L 810.905 510.686 L 1320 510.746 L 1414.71 510.773 C 1425.78 510.746 1463.11 509.415 1470.11 512.796 C 1475.08 513.149 1484.96 518.117 1488.24 521.916 C 1494.96 527.428 1498.3 530.979 1501.67 538.792 C 1512.28 551.778 1509.88 584.291 1497.9 596.184 C 1494.9 601.069 1492.52 603.333 1488.05 607.022 L 1487.79 605.499 C 1471.05 616.257 1459.43 616.313 1439.89 616.107 C 1413.48 615.829 1386.87 616.487 1360.46 615.801 C 1310.97 616.643 1259.61 615.984 1209.98 615.991 L 927.123 616.009 L 731.147 615.983 C 697.874 615.965 664.321 616.055 631.042 615.713 C 624.747 615.253 615.84 614.836 610.121 612.204 C 583.827 600.098 570.449 568.699 583.438 541.928 C 590.808 526.739 599.234 520.509 614.157 514.924 L 613.762 513.457 z" fill="rgb(253,195,25)" transform="translate(0,0)"></path>
<path d="M 1470.11 512.796 C 1475.08 513.149 1484.96 518.117 1488.24 521.916 C 1494.96 527.428 1498.3 530.979 1501.67 538.792 C 1512.28 551.778 1509.88 584.291 1497.9 596.184 C 1494.9 601.069 1492.52 603.333 1488.05 607.022 L 1487.79 605.499 C 1471.05 616.257 1459.43 616.313 1439.89 616.107 C 1413.48 615.829 1386.87 616.487 1360.46 615.801 C 1365.28 614.74 1370.02 615.347 1374.5 614.728 C 1380.3 613.924 1389.39 610.138 1394.55 607.334 C 1408.52 599.839 1418.82 586.955 1423.05 571.675 C 1426.88 557.863 1425.78 541.317 1418.39 528.903 C 1415.61 524.235 1411.2 518.771 1408.86 514.358 L 1408.19 513.063 C 1423.4 513.013 1438.61 512.876 1453.81 512.65 C 1458.55 512.603 1466.28 513.241 1470.11 512.796 z" fill="rgb(189,149,38)" transform="translate(0,0)"></path>
<path d="M 1501.67 538.792 C 1498.58 536.322 1488.84 525.642 1488.24 521.916 C 1494.96 527.428 1498.3 530.979 1501.67 538.792 z" fill="rgb(167,132,36)" transform="translate(0,0)"></path>
<path d="M 613.762 513.457 C 623.956 509.688 663.829 510.792 677.281 510.724 L 810.905 510.686 L 1320 510.746 L 1414.71 510.773 C 1425.78 510.746 1463.11 509.415 1470.11 512.796 C 1466.28 513.241 1458.55 512.603 1453.81 512.65 C 1438.61 512.876 1423.4 513.013 1408.19 513.063 C 1385.13 511.662 1359.35 512.134 1336.05 512.123 L 1227.9 512.089 L 892.342 512.086 L 714.326 512.11 C 692.807 511.997 671.287 512.157 649.772 512.588 C 638.959 512.834 624.446 512.681 614.157 514.924 L 613.762 513.457 z" fill="rgb(167,132,36)" transform="translate(0,0)"></path>
<path d="M 613.762 513.457 L 614.157 514.924 C 599.234 520.509 590.808 526.739 583.438 541.928 C 570.449 568.699 583.827 600.098 610.121 612.204 C 615.84 614.836 624.747 615.253 631.042 615.713 C 664.321 616.055 697.874 615.965 731.147 615.983 L 927.123 616.009 L 1209.98 615.991 C 1259.61 615.984 1310.97 616.643 1360.46 615.801 C 1386.87 616.487 1413.48 615.829 1439.89 616.107 C 1459.43 616.313 1471.05 616.257 1487.79 605.499 L 1488.05 607.022 C 1476.73 614.368 1472.65 616.18 1458.84 618.133 C 1459.64 633.197 1460.04 648.28 1460.04 663.366 C 1464.28 658.931 1470.63 652.044 1475.86 649.07 C 1470.88 655.21 1465.37 659.393 1460.27 665.443 C 1460.21 696.418 1456.62 729.982 1452.27 760.632 C 1456.05 757.29 1470.35 743.303 1473.15 743.013 C 1469.23 748.167 1456.83 758.974 1451.49 763.738 C 1438.72 849.601 1409.42 947.279 1368.37 1023.92 C 1367.47 1020.86 1376.28 1004.42 1378.6 999.495 C 1396.26 962.859 1410.91 924.845 1422.39 885.83 C 1445.96 806.143 1464.91 700.548 1456.77 617.559 C 1424.3 618.663 1388.45 617.701 1355.68 617.719 L 1169.33 617.905 L 629.382 617.85 C 629.251 626.563 627.697 637.207 626.845 646.135 C 626.525 654.14 625.919 663.858 626.105 671.736 C 627.189 678.265 627.11 682.972 626.823 689.549 C 627.294 754.282 646.741 841.079 665.948 902.424 C 669.745 914.528 673.831 926.541 678.202 938.45 C 680.334 944.157 688.742 964.521 689.369 969.27 C 685.191 962.754 677.22 940.76 674.267 932.513 C 653.892 875.594 641.476 820.408 631.401 761.095 C 610.806 738.49 592.916 723.232 568.889 704.465 L 570.519 703.936 C 580.165 710.273 594.677 722.994 603.881 730.741 C 604.512 731.62 604.433 731.454 605.454 732.102 C 614.38 740.592 622.311 747.903 630.327 757.295 C 628.694 746.123 625.785 718.402 626.284 707.548 C 624.969 695.525 624.06 675.207 624.308 663.017 C 613.768 653.305 600.03 643.16 588.454 634.792 C 551.644 608.183 512.187 581.922 464.627 584.753 C 427.828 586.944 395.556 603.378 370.695 630.117 C 347.11 655.485 333.092 690.191 336.329 725.461 C 341.566 782.514 381.491 850.948 409.28 900.647 C 414.485 909.956 432.104 934.169 434.562 941.078 C 429.56 935.762 416.393 915.163 412.015 907.711 C 381.927 855.213 343.368 790.471 335.024 730.177 C 324.735 655.827 390.812 588.218 462.838 583.035 C 519.449 578.962 584.266 625.159 624.959 661.287 C 624.776 649.315 626.777 630.28 627.564 617.576 C 567.709 611.158 557.723 533.251 613.762 513.457 z" fill="rgb(80,62,13)" transform="translate(0,0)"></path>
<path d="M 626.105 671.736 C 627.189 678.265 627.11 682.972 626.823 689.549 C 625.488 682.974 625.592 678.442 626.105 671.736 z" fill="rgb(135,110,25)" transform="translate(0,0)"></path>
<path d="M 1220.86 1214.54 C 1246.02 1192.23 1269.47 1166.53 1290.59 1140.41 C 1296.23 1133.42 1338.4 1074.68 1339.45 1074.14 C 1330.74 1092.98 1306.51 1119.66 1295.57 1137.62 L 1295.93 1138.71 C 1291.14 1142.17 1288.02 1146.3 1284.17 1150.69 C 1264.82 1172.78 1244.87 1196.7 1222.12 1215.5 L 1220.86 1214.54 z" fill="rgb(38,35,12)" transform="translate(0,0)"></path>
<path d="M 1198.08 1235.87 C 1199.88 1231.89 1206.74 1225.24 1211 1224.95 C 1208.34 1229.06 1202.45 1233.5 1198.08 1235.87 z" fill="rgb(167,132,36)" transform="translate(0,0)"></path>
<path d="M 1177.12 1252.11 C 1177.92 1247.98 1185.66 1243.67 1189 1243 C 1186.61 1246.41 1180.76 1250.48 1177.12 1252.11 z" fill="rgb(167,132,36)" transform="translate(0,0)"></path>
<path d="M 1189 1243 C 1189.76 1239.48 1195.91 1235.37 1198.08 1235.87 C 1196.84 1238.61 1191.86 1241.96 1189 1243 z" fill="rgb(167,132,36)" transform="translate(0,0)"></path>
<path d="M 1129.12 1279.88 C 1133.65 1277.83 1138.5 1274.58 1142.89 1274.24 C 1139.87 1275.96 1137.49 1277.59 1134.61 1279.48 C 1133.26 1281.15 1132.35 1281.02 1130.09 1281.64 L 1128.88 1282.18 L 1129.12 1279.88 z" fill="rgb(21,21,19)" transform="translate(0,0)"></path>
<path d="M 941.819 1274.49 C 947.071 1275.98 947.746 1276.67 952.433 1279.75 L 1078.11 1279.02 C 1086.58 1278.99 1124.28 1278.32 1129.12 1279.88 L 1128.88 1282.18 L 1130.09 1281.64 C 1132.35 1281.02 1133.26 1281.15 1134.61 1279.48 C 1148.98 1281.45 1157.32 1276.98 1170.98 1285.45 C 1172.66 1286.35 1173.02 1286.54 1174.33 1287.94 C 1178.23 1291.42 1179.25 1292.36 1182 1296.67 C 1193.36 1308.15 1189.43 1337.37 1175.75 1346.27 C 1159.74 1359.25 1147.54 1355.52 1127.86 1355.67 C 1087.69 1420.27 1118.8 1510.21 1175.31 1552.91 C 1179.11 1555.79 1184.63 1559.4 1188.02 1562.52 L 1189.3 1563.42 C 1192.75 1564.84 1193.29 1564.92 1196.16 1567.26 C 1221.68 1586.78 1220.92 1612.15 1216.26 1640.6 C 1267.05 1647.62 1308.05 1670.64 1339.19 1711.99 C 1360.37 1739.77 1373.83 1772.65 1378.2 1807.31 C 1380.55 1821.04 1380.32 1851.24 1377.9 1865.18 C 1403.64 1864.82 1429.46 1861.65 1441.94 1890.17 C 1446.32 1899.7 1446.71 1910.58 1443.04 1920.4 C 1442.03 1923.12 1441.27 1924.63 1439.84 1927.09 C 1435.37 1935.29 1429.79 1940.94 1421.23 1944.71 C 1417.68 1947.51 1412.14 1948.87 1407.72 1948.88 C 1368.42 1948.95 1328.78 1948.51 1289.5 1948.37 L 1061.4 1948.22 L 825.523 1948.23 C 790.054 1948.23 742.26 1949.67 707.57 1948.03 L 707.782 1946.95 C 692.565 1946.95 683.348 1939.56 674.869 1927.88 C 699.24 1913.2 719.083 1898.67 738.262 1877.35 C 740.691 1873.85 744.435 1869.71 747.257 1866.38 L 749.248 1863.81 C 752.969 1858.44 756.142 1853.91 760.242 1848.8 L 763.35 1843.65 C 798.543 1784.8 808.668 1729.19 795.437 1661.7 L 794.965 1659.01 L 796.608 1656.82 L 796.455 1655.98 C 813.479 1647.48 842.135 1641.92 861.46 1641.83 C 857.965 1623.63 856.264 1603.98 865.256 1587.03 C 872.842 1572.74 885.178 1566.11 897.882 1557.2 C 905.591 1551.8 912.554 1545.79 919.868 1539.91 C 920.531 1538.56 927.939 1530.22 929.319 1528.65 C 936.518 1520.46 942.021 1511.55 948.498 1502.9 C 951.829 1494.96 956.59 1487.33 959.807 1479.47 C 975.285 1441.62 982.449 1393.08 961.848 1355.77 C 939.39 1355.9 927.171 1358.38 910.747 1340.16 C 890.635 1312.23 913.154 1277.38 945.432 1278.85 L 945.755 1277.93 L 941.819 1274.49 z" fill="rgb(253,195,25)" transform="translate(0,0)"></path>
<path d="M 941.819 1274.49 C 947.071 1275.98 947.746 1276.67 952.433 1279.75 L 1078.11 1279.02 C 1086.58 1278.99 1124.28 1278.32 1129.12 1279.88 L 1128.88 1282.18 L 1130.09 1281.64 C 1132.35 1281.02 1133.26 1281.15 1134.61 1279.48 C 1148.98 1281.45 1157.32 1276.98 1170.98 1285.45 C 1172.66 1286.35 1173.02 1286.54 1174.33 1287.94 C 1178.23 1291.42 1179.25 1292.36 1182 1296.67 C 1193.36 1308.15 1189.43 1337.37 1175.75 1346.27 C 1159.74 1359.25 1147.54 1355.52 1127.86 1355.67 C 1087.69 1420.27 1118.8 1510.21 1175.31 1552.91 C 1179.11 1555.79 1184.63 1559.4 1188.02 1562.52 L 1189.3 1563.42 C 1192.75 1564.84 1193.29 1564.92 1196.16 1567.26 C 1196.78 1570.04 1197.27 1570 1199 1572.37 C 1215.47 1584.67 1218.33 1607.67 1216.69 1626.57 C 1216.15 1632.84 1215.81 1638.34 1212.44 1643.81 C 1210.04 1644.91 1134.32 1644.6 1125.93 1643.9 C 1101.34 1646.35 1054.58 1644.78 1028.29 1644.61 L 863.395 1644.21 L 863.125 1642.49 C 859.706 1620.45 857.441 1590.69 876.246 1574.65 C 889.222 1563.58 910.282 1554.54 919.868 1539.91 C 920.531 1538.56 927.939 1530.22 929.319 1528.65 C 936.518 1520.46 942.021 1511.55 948.498 1502.9 C 951.829 1494.96 956.59 1487.33 959.807 1479.47 C 975.285 1441.62 982.449 1393.08 961.848 1355.77 C 939.39 1355.9 927.171 1358.38 910.747 1340.16 C 890.635 1312.23 913.154 1277.38 945.432 1278.85 L 945.755 1277.93 L 941.819 1274.49 z" fill="rgb(253,195,25)" transform="translate(0,0)"></path>
<path d="M 941.819 1274.49 C 947.071 1275.98 947.746 1276.67 952.433 1279.75 L 1078.11 1279.02 C 1086.58 1278.99 1124.28 1278.32 1129.12 1279.88 L 1128.88 1282.18 L 1130.09 1281.64 C 1132.35 1281.02 1133.26 1281.15 1134.61 1279.48 C 1148.98 1281.45 1157.32 1276.98 1170.98 1285.45 C 1172.66 1286.35 1173.02 1286.54 1174.33 1287.94 C 1178.23 1291.42 1179.25 1292.36 1182 1296.67 C 1193.36 1308.15 1189.43 1337.37 1175.75 1346.27 C 1170.86 1346.7 1164.96 1352.87 1157.98 1353.7 C 1146.32 1355.09 1135.14 1353.72 1123.5 1353.93 C 1117.89 1354.03 1112.28 1354.03 1106.67 1353.91 C 1051.25 1354.56 995.485 1353.44 940.023 1354.15 C 928.501 1354.29 918.775 1346.84 911.515 1338.56 L 910.747 1340.16 C 890.635 1312.23 913.154 1277.38 945.432 1278.85 L 945.755 1277.93 L 941.819 1274.49 z" fill="rgb(253,195,25)" transform="translate(0,0)"></path>
<path d="M 1130.09 1281.64 C 1132.35 1281.02 1133.26 1281.15 1134.61 1279.48 C 1148.98 1281.45 1157.32 1276.98 1170.98 1285.45 C 1172.66 1286.35 1173.02 1286.54 1174.33 1287.94 C 1178.23 1291.42 1179.25 1292.36 1182 1296.67 C 1193.36 1308.15 1189.43 1337.37 1175.75 1346.27 C 1170.86 1346.7 1164.96 1352.87 1157.98 1353.7 C 1146.32 1355.09 1135.14 1353.72 1123.5 1353.93 C 1117.89 1354.03 1112.28 1354.03 1106.67 1353.91 C 1132.38 1349.15 1149.5 1325.83 1140.63 1299.61 C 1138.52 1293.36 1133.21 1288.57 1129.01 1283.6 L 1127.79 1282.13 L 1128.88 1282.18 L 1130.09 1281.64 z" fill="rgb(189,149,38)" transform="translate(0,0)"></path>
<path d="M 1130.09 1281.64 C 1132.35 1281.02 1133.26 1281.15 1134.61 1279.48 C 1148.98 1281.45 1157.32 1276.98 1170.98 1285.45 C 1166.67 1285.54 1164.47 1283.46 1160.49 1282.92 C 1150.79 1281.62 1140.01 1281.88 1130.09 1281.64 z" fill="rgb(135,110,25)" transform="translate(0,0)"></path>
<path d="M 1182 1296.67 C 1177.12 1294.9 1174.67 1293.4 1174.33 1287.94 C 1178.23 1291.42 1179.25 1292.36 1182 1296.67 z" fill="rgb(167,132,36)" transform="translate(0,0)"></path>
<path d="M 941.819 1274.49 C 947.071 1275.98 947.746 1276.67 952.433 1279.75 L 1078.11 1279.02 C 1086.58 1278.99 1124.28 1278.32 1129.12 1279.88 L 1128.88 1282.18 L 1127.79 1282.13 C 1069.79 1280.7 1011.23 1283.36 953.169 1281.6 C 938.297 1281.15 928.198 1280.22 916.536 1291.17 C 909.29 1297.91 905.11 1307.31 904.964 1317.21 C 904.865 1325.11 907.048 1332.05 911.515 1338.56 L 910.747 1340.16 C 890.635 1312.23 913.154 1277.38 945.432 1278.85 L 945.755 1277.93 L 941.819 1274.49 z" fill="rgb(135,110,25)" transform="translate(0,0)"></path>
<path d="M 911.515 1338.56 C 918.775 1346.84 928.501 1354.29 940.023 1354.15 C 995.485 1353.44 1051.25 1354.56 1106.67 1353.91 C 1112.28 1354.03 1117.89 1354.03 1123.5 1353.93 C 1135.14 1353.72 1146.32 1355.09 1157.98 1353.7 C 1164.96 1352.87 1170.86 1346.7 1175.75 1346.27 C 1159.74 1359.25 1147.54 1355.52 1127.86 1355.67 C 1087.69 1420.27 1118.8 1510.21 1175.31 1552.91 C 1179.11 1555.79 1184.63 1559.4 1188.02 1562.52 L 1189.3 1563.42 C 1192.75 1564.84 1193.29 1564.92 1196.16 1567.26 C 1196.78 1570.04 1197.27 1570 1199 1572.37 C 1215.47 1584.67 1218.33 1607.67 1216.69 1626.57 C 1216.15 1632.84 1215.81 1638.34 1212.44 1643.81 C 1210.04 1644.91 1134.32 1644.6 1125.93 1643.9 C 1150.46 1629.77 1155.98 1596.5 1139.9 1573.25 C 1133.19 1563.55 1120.78 1553.6 1112.68 1543.71 C 1101.71 1530.33 1092.44 1515.64 1085.09 1499.97 C 1078.15 1485.07 1071.94 1465.42 1069.31 1448.99 C 1067.74 1438.71 1067.47 1427.27 1065.06 1417.27 C 1056.98 1383.85 1030.7 1384.6 1003.2 1385.88 C 994.019 1386.31 980.236 1384.94 975.221 1386.4 L 974.548 1388.63 C 979.331 1429.75 970.91 1464.22 951.005 1500.57 C 950.537 1501.42 949.506 1502.61 948.498 1502.9 C 951.829 1494.96 956.59 1487.33 959.807 1479.47 C 975.285 1441.62 982.449 1393.08 961.848 1355.77 C 939.39 1355.9 927.171 1358.38 910.747 1340.16 L 911.515 1338.56 z" fill="rgb(189,149,38)" transform="translate(0,0)"></path>
<path d="M 911.515 1338.56 C 918.775 1346.84 928.501 1354.29 940.023 1354.15 C 995.485 1353.44 1051.25 1354.56 1106.67 1353.91 C 1112.28 1354.03 1117.89 1354.03 1123.5 1353.93 C 1135.14 1353.72 1146.32 1355.09 1157.98 1353.7 C 1164.96 1352.87 1170.86 1346.7 1175.75 1346.27 C 1159.74 1359.25 1147.54 1355.52 1127.86 1355.67 C 1087.69 1420.27 1118.8 1510.21 1175.31 1552.91 C 1179.11 1555.79 1184.63 1559.4 1188.02 1562.52 C 1179.74 1560.41 1166.01 1547.67 1159.19 1541.83 C 1156.82 1538.54 1155.24 1536.97 1152.25 1534.13 L 1149.05 1530.32 C 1148.45 1529.32 1148.66 1529.48 1147.77 1528.9 C 1107.94 1477.29 1093.26 1414.84 1125.59 1355.66 C 1071.84 1356.18 1018.04 1355.31 964.21 1356.05 C 970.074 1368.55 970.94 1375.97 974.548 1388.63 C 979.331 1429.75 970.91 1464.22 951.005 1500.57 C 950.537 1501.42 949.506 1502.61 948.498 1502.9 C 951.829 1494.96 956.59 1487.33 959.807 1479.47 C 975.285 1441.62 982.449 1393.08 961.848 1355.77 C 939.39 1355.9 927.171 1358.38 910.747 1340.16 L 911.515 1338.56 z" fill="rgb(80,62,13)" transform="translate(0,0)"></path>
<path d="M 1189.3 1563.42 C 1192.75 1564.84 1193.29 1564.92 1196.16 1567.26 C 1196.78 1570.04 1197.27 1570 1199 1572.37 C 1196.58 1570.62 1191.02 1565.85 1189.3 1563.42 z" fill="rgb(167,132,36)" transform="translate(0,0)"></path>
<path d="M 1152.25 1534.13 C 1155.24 1536.97 1156.82 1538.54 1159.19 1541.83 C 1155.04 1539.04 1154.43 1538.42 1152.25 1534.13 z" fill="rgb(135,110,25)" transform="translate(0,0)"></path>
<path d="M 1005.2 1418.22 C 1010.31 1418.55 1017.71 1421.1 1018.45 1426.89 C 1025.25 1480.47 974.053 1576.42 923.569 1594.2 C 917.718 1593.73 912.115 1591.56 910.072 1585.52 C 904.256 1568.32 929.366 1556.57 939.475 1546.41 C 962.74 1523.04 979.26 1494.77 986.466 1462.47 C 989.325 1449.88 990.518 1435.84 995.205 1423.85 C 996.231 1421.23 1002.64 1418.93 1005.2 1418.22 z" fill="rgb(254,222,135)" transform="translate(0,0)"></path>
<path d="M 1378.2 1807.31 C 1380.55 1821.04 1380.32 1851.24 1377.9 1865.18 C 1403.64 1864.82 1429.46 1861.65 1441.94 1890.17 C 1446.32 1899.7 1446.71 1910.58 1443.04 1920.4 C 1442.03 1923.12 1441.27 1924.63 1439.84 1927.09 C 1435.37 1935.29 1429.79 1940.94 1421.23 1944.71 C 1417.68 1947.51 1412.14 1948.87 1407.72 1948.88 C 1368.42 1948.95 1328.78 1948.51 1289.5 1948.37 L 1061.4 1948.22 L 825.523 1948.23 C 790.054 1948.23 742.26 1949.67 707.57 1948.03 L 707.782 1946.95 C 692.565 1946.95 683.348 1939.56 674.869 1927.88 C 699.24 1913.2 719.083 1898.67 738.262 1877.35 C 740.691 1873.85 744.435 1869.71 747.257 1866.38 L 749.248 1863.81 C 754.204 1865.8 847.312 1864.78 861.497 1864.79 L 1241.96 1864.06 L 1376.25 1864.76 C 1378.06 1842.22 1378.17 1830.35 1376.5 1807.55 L 1378.2 1807.31 z" fill="rgb(253,195,25)" transform="translate(0,0)"></path>
<path d="M 1378.2 1807.31 C 1380.55 1821.04 1380.32 1851.24 1377.9 1865.18 C 1403.64 1864.82 1429.46 1861.65 1441.94 1890.17 C 1446.32 1899.7 1446.71 1910.58 1443.04 1920.4 C 1442.03 1923.12 1441.27 1924.63 1439.84 1927.09 C 1435.37 1935.29 1429.79 1940.94 1421.23 1944.71 C 1417.68 1947.51 1412.14 1948.87 1407.72 1948.88 C 1368.42 1948.95 1328.78 1948.51 1289.5 1948.37 L 1061.4 1948.22 L 825.523 1948.23 C 790.054 1948.23 742.26 1949.67 707.57 1948.03 L 707.782 1946.95 C 714.787 1945.89 749.722 1946.47 758.968 1946.48 L 870.341 1946.51 L 1175.73 1946.48 C 1223.18 1946.47 1279.39 1948.04 1326.17 1946.53 C 1340.91 1946.04 1354.84 1939.68 1364.85 1928.85 C 1378.89 1913.37 1379.82 1891.22 1363.38 1877.12 C 1316.37 1875.73 1263.69 1876.89 1216.3 1876.94 L 871.784 1877.35 C 843.658 1877.18 815.532 1877.2 787.407 1877.39 C 772.483 1877.5 752.877 1878.26 738.262 1877.35 C 740.691 1873.85 744.435 1869.71 747.257 1866.38 L 749.248 1863.81 C 754.204 1865.8 847.312 1864.78 861.497 1864.79 L 1241.96 1864.06 L 1376.25 1864.76 C 1378.06 1842.22 1378.17 1830.35 1376.5 1807.55 L 1378.2 1807.31 z" fill="rgb(189,149,38)" transform="translate(0,0)"></path>
<path d="M 1378.2 1807.31 C 1380.55 1821.04 1380.32 1851.24 1377.9 1865.18 C 1403.64 1864.82 1429.46 1861.65 1441.94 1890.17 L 1441.09 1890.38 C 1439.72 1888.91 1439.96 1889.3 1439.04 1887.88 C 1424.19 1864.63 1406.74 1867 1382.26 1867.02 C 1367.66 1867.05 1353.07 1866.99 1338.48 1866.85 C 1279.77 1866.05 1221.06 1865.93 1162.35 1866.48 C 1023.98 1867.17 885.619 1867.13 747.257 1866.38 L 749.248 1863.81 C 754.204 1865.8 847.312 1864.78 861.497 1864.79 L 1241.96 1864.06 L 1376.25 1864.76 C 1378.06 1842.22 1378.17 1830.35 1376.5 1807.55 L 1378.2 1807.31 z" fill="rgb(135,110,25)" transform="translate(0,0)"></path>
<path d="M 1421.23 1944.71 C 1422.45 1942.96 1438.44 1927.34 1439.84 1927.09 C 1435.37 1935.29 1429.79 1940.94 1421.23 1944.71 z" fill="rgb(167,132,36)" transform="translate(0,0)"></path>
<path d="M 861.46 1641.83 C 857.965 1623.63 856.264 1603.98 865.256 1587.03 C 872.842 1572.74 885.178 1566.11 897.882 1557.2 C 905.591 1551.8 912.554 1545.79 919.868 1539.91 C 910.282 1554.54 889.222 1563.58 876.246 1574.65 C 857.441 1590.69 859.706 1620.45 863.125 1642.49 L 863.395 1644.21 L 1028.29 1644.61 C 1054.58 1644.78 1101.34 1646.35 1125.93 1643.9 C 1134.32 1644.6 1210.04 1644.91 1212.44 1643.81 C 1215.81 1638.34 1216.15 1632.84 1216.69 1626.57 C 1218.33 1607.67 1215.47 1584.67 1199 1572.37 C 1197.27 1570 1196.78 1570.04 1196.16 1567.26 C 1221.68 1586.78 1220.92 1612.15 1216.26 1640.6 C 1267.05 1647.62 1308.05 1670.64 1339.19 1711.99 C 1360.37 1739.77 1373.83 1772.65 1378.2 1807.31 L 1376.5 1807.55 C 1378.17 1830.35 1378.06 1842.22 1376.25 1864.76 L 1241.96 1864.06 L 861.497 1864.79 C 847.312 1864.78 754.204 1865.8 749.248 1863.81 C 752.969 1858.44 756.142 1853.91 760.242 1848.8 C 763.635 1850.8 768.912 1850.81 772.847 1850.84 C 823.899 1851.24 875.029 1850.49 926.077 1851.29 C 994.226 1852.52 1062.39 1852.83 1130.55 1852.21 C 1158.76 1852.1 1187.15 1852.47 1215.18 1852.15 C 1238.92 1851.88 1261.8 1838.96 1272.13 1817.36 C 1281.59 1797.58 1277.72 1766.81 1270.01 1747.23 C 1252.17 1701.92 1210.3 1660.4 1159.79 1657.33 C 1143.45 1656.43 1125.43 1656.96 1108.79 1656.94 L 1014.92 1656.9 L 897.247 1656.91 C 877.595 1656.92 810.415 1655.25 795.437 1661.7 L 794.965 1659.01 L 796.608 1656.82 L 796.455 1655.98 C 813.479 1647.48 842.135 1641.92 861.46 1641.83 z" fill="rgb(189,149,38)" transform="translate(0,0)"></path>
<path d="M 861.46 1641.83 C 857.965 1623.63 856.264 1603.98 865.256 1587.03 C 872.842 1572.74 885.178 1566.11 897.882 1557.2 C 905.591 1551.8 912.554 1545.79 919.868 1539.91 C 910.282 1554.54 889.222 1563.58 876.246 1574.65 C 857.441 1590.69 859.706 1620.45 863.125 1642.49 L 863.395 1644.21 L 1028.29 1644.61 C 1054.58 1644.78 1101.34 1646.35 1125.93 1643.9 C 1134.32 1644.6 1210.04 1644.91 1212.44 1643.81 C 1215.81 1638.34 1216.15 1632.84 1216.69 1626.57 C 1218.33 1607.67 1215.47 1584.67 1199 1572.37 C 1197.27 1570 1196.78 1570.04 1196.16 1567.26 C 1221.68 1586.78 1220.92 1612.15 1216.26 1640.6 C 1267.05 1647.62 1308.05 1670.64 1339.19 1711.99 C 1360.37 1739.77 1373.83 1772.65 1378.2 1807.31 L 1376.5 1807.55 C 1368.73 1760.73 1351.76 1722.14 1316.21 1689.4 C 1315.5 1688.57 1315.64 1688.64 1314.72 1688.08 L 1307.25 1681.46 C 1306.7 1680.92 1306.69 1680.9 1306.01 1680.54 C 1296.03 1671.38 1274.79 1659.05 1262.32 1654.19 C 1248.63 1649.42 1230.63 1640.34 1216.25 1644.69 C 1206.1 1647.76 1187.5 1646.31 1177.12 1646.28 L 1117.89 1646.64 L 882.195 1645.92 C 873.029 1645.86 865.97 1644.99 856.939 1644.09 C 837.8 1642.19 814.901 1652.34 796.608 1656.82 L 796.455 1655.98 C 813.479 1647.48 842.135 1641.92 861.46 1641.83 z" fill="rgb(80,62,13)" transform="translate(0,0)"></path>
<path d="M 921.094 1750.17 C 944.98 1749.42 1155.62 1748.53 1161.89 1751.85 C 1166.22 1760.06 1163.36 1784.92 1164.01 1795.29 C 1164.22 1798.78 1162.01 1800.61 1159.77 1802.5 C 1096.25 1801.8 988.996 1802.67 921.495 1801.65 C 920.832 1801.1 920.168 1800.56 919.504 1800.02 C 915.829 1791.54 914.819 1756.89 921.094 1750.17 z" fill="rgb(80,62,13)" transform="translate(0,0)"></path>
<path d="M 921.31 1752.12 C 965.607 1750.47 1019.17 1751.95 1064.19 1751.97 L 1122.84 1751.92 C 1133.82 1751.91 1147.94 1751.49 1158.48 1752.52 C 1164.16 1756.65 1162.9 1794.73 1159.93 1800.76 C 1103.04 1799.38 1045.44 1800.6 988.524 1800.06 C 976.431 1799.94 930.146 1801.17 921.064 1799.25 C 918.018 1793.23 918.059 1758.44 921.31 1752.12 z" fill="rgb(189,149,38)" transform="translate(0,0)"></path>
<path d="M 673.894 1929.12 C 653.187 1940.84 619.113 1951.57 596.222 1955.34 C 531.895 1965.93 465.996 1950.54 413.009 1912.56 C 360.814 1874.28 325.891 1816.89 315.869 1752.95 C 305.429 1687.73 321.571 1621.05 360.682 1567.83 C 398.849 1515.29 456.632 1480.41 520.903 1471.11 C 585.742 1461.37 651.766 1478.21 704.02 1517.82 C 739.642 1544.36 767.326 1580.36 783.13 1621.71 C 786.397 1630.25 791.751 1644.57 793.048 1653.5 C 794.889 1655.94 793.679 1655.28 796.455 1655.98 L 796.608 1656.82 L 794.965 1659.01 L 795.437 1661.7 C 808.668 1729.19 798.543 1784.8 763.35 1843.65 L 760.242 1848.8 C 756.142 1853.91 752.969 1858.44 749.248 1863.81 L 747.257 1866.38 C 744.435 1869.71 740.691 1873.85 738.262 1877.35 C 719.083 1898.67 699.24 1913.2 674.869 1927.88 C 683.348 1939.56 692.565 1946.95 707.782 1946.95 L 707.57 1948.03 C 692.664 1948.53 682.041 1940.94 673.894 1929.12 z" fill="rgb(255,255,255)" transform="translate(0,0)"></path>
<path d="M 757.793 1720.87 C 761.37 1730.82 779.197 1788 784.472 1791.77 L 783.999 1792.55 C 779.428 1794.65 771.01 1815.68 767.672 1821.85 C 760.741 1835.11 738.663 1873.6 725.444 1880.84 C 711.153 1888.67 657.617 1892.38 640.662 1894.71 C 637.771 1882.21 620.624 1825.85 615.195 1815.08 C 630.843 1792.75 657.715 1753.15 670.42 1729.27 C 687.979 1725.51 729.009 1724.43 749.785 1721.75 C 751.859 1721.72 755.597 1721.14 757.793 1720.87 z" fill="rgb(48,36,146)" transform="translate(0,0)"></path>
<path d="M 673.894 1929.12 C 653.187 1940.84 619.113 1951.57 596.222 1955.34 C 531.895 1965.93 465.996 1950.54 413.009 1912.56 C 360.814 1874.28 325.891 1816.89 315.869 1752.95 C 305.429 1687.73 321.571 1621.05 360.682 1567.83 C 398.849 1515.29 456.632 1480.41 520.903 1471.11 C 585.742 1461.37 651.766 1478.21 704.02 1517.82 C 739.642 1544.36 767.326 1580.36 783.13 1621.71 C 786.397 1630.25 791.751 1644.57 793.048 1653.5 L 792.515 1658.38 C 791.449 1657.29 790.782 1656.1 789.907 1654.8 C 788.702 1650.43 784.941 1635.02 783.534 1632.27 C 765.794 1597.64 745.97 1575.14 715.924 1551.5 C 712.624 1542.36 710.836 1535.61 708.469 1526.29 C 668.954 1496.78 619.393 1471.97 568.824 1473 C 562.294 1480.52 557.541 1488.21 550.869 1495.84 C 500.928 1502.82 484.406 1514.05 442.824 1536.07 C 431.862 1531.82 420.982 1527.37 410.188 1522.72 C 371.504 1551.16 344.369 1594.72 328.453 1639.51 C 334.761 1650.02 343.084 1663.32 350.678 1672.95 C 344.502 1715.8 344.367 1733.15 349.849 1775.81 C 343.252 1786.29 339.572 1793.31 335.332 1804.96 C 352.793 1849.65 384.687 1892.05 426.856 1915.94 C 437.195 1915.06 449.379 1913.24 459.205 1912.6 C 483.675 1929.9 517.864 1938.29 547.239 1943.12 C 551.918 1943.89 569.17 1944.97 572.25 1946.51 C 572.243 1948.58 572.182 1950.21 572.046 1952.27 C 575.829 1956.36 601.177 1950.69 606.599 1949.54 C 674.057 1935.18 722.317 1897.99 761.097 1841.81 L 763.35 1843.65 L 760.242 1848.8 C 756.142 1853.91 752.969 1858.44 749.248 1863.81 L 747.257 1866.38 C 744.435 1869.71 740.691 1873.85 738.262 1877.35 C 719.083 1898.67 699.24 1913.2 674.869 1927.88 C 683.348 1939.56 692.565 1946.95 707.782 1946.95 L 707.57 1948.03 C 692.664 1948.53 682.041 1940.94 673.894 1929.12 z" fill="rgb(48,36,146)" transform="translate(0,0)"></path>
<path d="M 793.048 1653.5 C 794.889 1655.94 793.679 1655.28 796.455 1655.98 L 796.608 1656.82 L 794.965 1659.01 L 795.437 1661.7 C 808.668 1729.19 798.543 1784.8 763.35 1843.65 L 761.097 1841.81 C 769.508 1828.38 780.072 1807.8 783.999 1792.55 L 784.472 1791.77 C 801.416 1744.82 799.446 1702.48 789.907 1654.8 C 790.782 1656.1 791.449 1657.29 792.515 1658.38 L 793.048 1653.5 z" fill="rgb(43,45,120)" transform="translate(0,0)"></path>
<path d="M 550.713 1499.4 C 556.234 1498.53 617.064 1546.25 628.456 1552.62 C 624.295 1580.07 616.72 1612.05 614.423 1639.25 C 579.846 1649.54 545.493 1660.57 511.389 1672.33 C 509.435 1672.93 503.989 1674.67 502.232 1673.78 C 494.927 1670.06 487.824 1665.15 480.892 1660.7 C 464.738 1650.53 448.778 1640.05 433.022 1629.28 C 438.43 1603.08 442.501 1565.95 446.149 1538.8 C 479.606 1518.27 511.487 1504.11 550.713 1499.4 z" fill="rgb(48,36,146)" transform="translate(0,0)"></path>
<path d="M 430.33 1632.86 C 432.636 1633.64 448.916 1644.43 451.931 1646.4 C 468.648 1657.42 485.426 1668.35 502.263 1679.18 C 505.615 1710.7 506.739 1752.85 508.21 1785.06 C 490.448 1797.31 472.564 1809.38 454.561 1821.28 C 450.817 1823.78 437.626 1833.23 434.857 1834.44 L 432.463 1832.51 C 408.596 1813.67 378.966 1795.64 353.428 1775.48 C 346.939 1743.56 347.998 1709.74 353.447 1677.75 C 377.236 1665.38 404.8 1646.4 430.33 1632.86 z" fill="rgb(48,36,146)" transform="translate(0,0)"></path>
<path d="M 511.125 1786.79 C 516.438 1787.18 546.618 1798.26 553.984 1800.55 C 573.48 1806.5 593.137 1811.91 612.933 1816.77 C 617.739 1835.26 630.591 1878.11 638.221 1894.37 C 621.421 1904.78 604.116 1920.95 587.705 1932.41 C 578.021 1939.17 576.267 1942.79 565.236 1941.16 C 534.996 1939.92 484.302 1927.06 460.147 1908.31 C 452 1889.54 444.793 1858.63 437.294 1837.27 C 460.328 1821.35 489.626 1803.4 511.125 1786.79 z" fill="rgb(48,36,146)" transform="translate(0,0)"></path>
<path d="M 632.237 1552.02 C 656.01 1554.31 688.251 1553.09 714.503 1555.07 C 745.236 1577.89 761.518 1599.42 778.767 1632.59 C 771.388 1655.99 767.588 1694.46 757.36 1717.9 C 752.74 1718.44 743.807 1719.12 739.73 1719.91 C 722.145 1719.75 690.373 1724.27 670.683 1725.28 C 664.682 1716.59 658.378 1705.11 652.653 1695.8 C 641.184 1677.12 629.248 1658.73 616.857 1640.65 L 632.237 1552.02 z" fill="rgb(48,36,146)" transform="translate(0,0)"></path>
<path d="M 978.982 189.766 C 988.743 169.118 998.62 148.524 1008.61 127.987 C 1012.81 119.383 1022.12 99.2889 1027.32 92.4398 C 1029.76 89.1802 1032.97 86.5717 1036.66 84.8448 C 1043.06 81.8751 1050.38 81.6019 1056.98 84.0866 C 1071.26 89.331 1076.29 105.613 1082.3 118.951 C 1093.39 142.889 1104.98 165.797 1116.39 189.507 C 1133.08 191.697 1220.17 203.275 1229.57 209.547 C 1231.88 211.367 1233.37 212.739 1235.49 214.769 C 1252.43 241.178 1228.19 255.465 1209.73 271.537 C 1191.42 287.384 1172.86 302.932 1154.04 318.174 L 1167.09 383.7 C 1169.68 396.695 1173.01 410.282 1173.83 423.643 C 1174.97 442.288 1156.3 455.84 1138.88 448.114 C 1126.68 442.704 1115.87 435.827 1104.39 429.028 C 1085.21 417.497 1065.9 406.183 1046.47 395.09 C 1014.93 411.316 984.637 431.695 952.692 447.163 C 941.977 451.989 928.943 451.079 921.879 440.848 C 914.478 430.129 916.525 419.314 918.761 407.501 C 924.391 377.749 932.008 348.378 937.459 318.6 C 916.907 300.124 895.277 282.846 874.309 264.85 C 868.328 259.716 861.894 254.821 856.887 248.686 C 853.724 244.743 851.741 239.987 851.165 234.966 C 850.396 227.762 852.581 220.555 857.221 214.991 C 867.078 203.227 895.559 201.879 910.811 199.562 C 933.092 196.179 956.637 192.06 978.982 189.766 z" fill="rgb(222,112,153)" transform="translate(0,0)"></path>
<path d="M 978.982 189.766 C 988.743 169.118 998.62 148.524 1008.61 127.987 C 1012.81 119.383 1022.12 99.2889 1027.32 92.4398 C 1029.76 89.1802 1032.97 86.5717 1036.66 84.8448 C 1043.06 81.8751 1050.38 81.6019 1056.98 84.0866 C 1071.26 89.331 1076.29 105.613 1082.3 118.951 L 1080.08 119.093 C 1076.37 110.59 1072.17 100.085 1066.48 92.8864 C 1065.27 91.0414 1065.04 91.0608 1063.15 89.5543 C 1058.79 86.6699 1057.63 86.3185 1052.64 84.6301 C 1050.91 83.8547 1050.02 84.0176 1048.06 83.8945 C 1025.36 87.0859 1020.22 108.217 1011.05 126.99 L 979.938 191.398 C 947.492 195.174 914.977 201.228 882.615 205.771 C 873.198 207.093 864.579 208.315 858.306 216.258 C 854.077 221.698 852.259 228.632 853.276 235.447 C 854.019 240.408 856.155 245.056 859.435 248.851 C 864.693 254.96 883.87 270.671 890.67 276.197 C 906.928 289.408 923.323 304.203 939.575 317.197 C 935.635 342.212 928.325 367.307 923.748 392.233 C 921.066 406.835 913.56 426.338 923.142 439.464 C 938.501 460.5 971.978 435.245 988.565 425.75 L 1045.85 393.021 C 1071.92 407.09 1097.19 423.278 1123.01 437.673 C 1123.78 437.911 1123.63 437.865 1124.25 438.44 C 1133.87 444.202 1137.87 446.7 1148.73 449.17 C 1183.44 442.168 1170.24 408.951 1165.22 383.607 L 1151.78 317.554 C 1178.9 296.642 1208.59 270.997 1233.55 247.174 C 1241.94 239.173 1240.61 225.477 1233.85 216.179 L 1235.49 214.769 C 1252.43 241.178 1228.19 255.465 1209.73 271.537 C 1191.42 287.384 1172.86 302.932 1154.04 318.174 L 1167.09 383.7 C 1169.68 396.695 1173.01 410.282 1173.83 423.643 C 1174.97 442.288 1156.3 455.84 1138.88 448.114 C 1126.68 442.704 1115.87 435.827 1104.39 429.028 C 1085.21 417.497 1065.9 406.183 1046.47 395.09 C 1014.93 411.316 984.637 431.695 952.692 447.163 C 941.977 451.989 928.943 451.079 921.879 440.848 C 914.478 430.129 916.525 419.314 918.761 407.501 C 924.391 377.749 932.008 348.378 937.459 318.6 C 916.907 300.124 895.277 282.846 874.309 264.85 C 868.328 259.716 861.894 254.821 856.887 248.686 C 853.724 244.743 851.741 239.987 851.165 234.966 C 850.396 227.762 852.581 220.555 857.221 214.991 C 867.078 203.227 895.559 201.879 910.811 199.562 C 933.092 196.179 956.637 192.06 978.982 189.766 z" fill="rgb(80,48,58)" transform="translate(0,0)"></path>
<path d="M 1080.08 119.093 L 1082.3 118.951 C 1093.39 142.889 1104.98 165.797 1116.39 189.507 C 1133.08 191.697 1220.17 203.275 1229.57 209.547 L 1229 211.018 C 1217.34 205.464 1163.83 198.645 1147.02 195.738 C 1146.15 195.454 1146.29 195.47 1145.38 195.471 C 1138.61 195.007 1121.32 192.174 1114.62 190.804 C 1103.28 167.405 1090.55 142.639 1080.08 119.093 z" fill="rgb(80,48,58)" transform="translate(0,0)"></path>
<path d="M 1229.57 209.547 C 1231.88 211.367 1233.37 212.739 1235.49 214.769 L 1233.85 216.179 C 1232.02 213.44 1231.6 213.165 1229 211.018 L 1229.57 209.547 z" fill="rgb(21,21,19)" transform="translate(0,0)"></path>
<path d="M 1048.06 83.8945 C 1050.02 84.0176 1050.91 83.8547 1052.64 84.6301 C 1050.23 84.9808 1050.43 84.925 1048.06 83.8945 z" fill="rgb(156,80,103)" transform="translate(0,0)"></path>
<metadata><recraft-signature>{"signed_by": "recraft", "signature_b64": "MJP8frOz2jfmEp7HivYv/gQ7zYvsaT87Cuya7/pM+FZCflB0AzAtNha25KVx1bJs1FrTUeE4nefBWiCco+yACg==", "signing_algo": "Ed25519", "generation_timestamp": 1779007176, "identifier": "017be242-e0a9-45a6-ac1e-5f78a88468c8"}</recraft-signature></metadata></svg>