<svg xmlns="http://www.w3.org/2000/svg" height="1024" preserveAspectRatio="none" style="display: block;" version="1.1" viewBox="0 0 2048 2048" width="1024">
<path d="M 0 0 L 2048 0 L 2048 2048 L 0 2048 L 0 0 z" fill="rgb(254,254,254)" transform="translate(0,0)"></path>
<path d="M 590.733 119.898 C 600.846 117.499 652.983 118.366 667.847 118.386 L 835.3 118.521 L 1210.49 118.581 L 1352.59 118.265 C 1380.92 118.173 1409.46 117.9 1437.79 118.334 C 1449.89 118.519 1460.67 119.317 1471.01 125.811 C 1483.84 133.721 1492.93 146.484 1496.21 161.199 C 1502.9 191.962 1481.68 216.559 1452.85 223.931 C 1452.7 230.686 1452.67 237.857 1452.18 244.556 C 1452.41 247.688 1452.29 252.363 1451.88 255.45 C 1451.89 274.249 1451.72 293.048 1451.38 311.844 C 1465.88 307.254 1478.21 302.885 1491.09 294.494 C 1518.12 275.158 1528.7 256.837 1528.29 223.36 C 1528.05 203.715 1527.73 182.897 1528 163.271 L 1658.96 163.418 C 1681.09 163.425 1707.78 162.278 1729.38 165.219 C 1737.44 166.318 1744.84 171.792 1750.77 177.357 C 1767.55 193.107 1765.5 210.448 1765.75 231.197 C 1766.72 312.221 1755.83 393.214 1729.89 470.136 C 1727.32 477.752 1718.48 504.321 1714.57 510.248 C 1713.18 517.694 1700.64 543.253 1697.01 550.895 C 1656.97 635.649 1599.34 710.901 1527.94 771.639 C 1520.18 778.196 1499.68 797.115 1491.11 800.472 C 1485.71 802.494 1476.31 809.357 1471.31 812.767 C 1409.58 854.884 1343.6 880.735 1270.66 895.599 C 1293.66 878.742 1342.87 828.705 1356.39 804.319 C 1369.33 796.703 1405.17 782.446 1414.88 772.273 C 1398.21 780.908 1329.98 817.729 1314.83 817.048 C 1314.9 814.772 1314.64 815.844 1315.58 813.826 C 1313.6 814.854 1293.02 840.454 1288.82 845.041 C 1271.38 863.849 1252.55 881.314 1232.48 897.286 L 1230.89 898.522 C 1177.6 938.928 1115 962.875 1047.94 965.128 L 1046.45 967.326 C 1019.71 971.206 988.772 968.064 962.028 964.456 C 952.076 963.113 930.688 956.168 922.074 959.114 L 921.365 958.27 C 922.765 957.245 922.127 957.903 923.161 956.191 C 917.661 952.392 903.954 949.077 896.975 946.435 C 878.933 939.604 863.019 931.579 846.768 921.277 C 841.105 917.687 827.353 908.219 821.151 906.522 C 812.052 904.033 798.722 902.801 788.901 901.216 C 773.132 898.666 757.519 895.231 742.135 890.929 C 656.95 867.411 578.395 824.418 512.671 765.342 C 501.469 755.392 480.992 736.87 471.885 725.158 C 469.557 723.918 462.53 716.142 460.486 713.895 C 337.357 576.456 273.555 395.912 282.991 211.626 C 281.183 186.753 303.576 164.279 328.028 163.661 C 349.097 163.129 370.267 163.372 391.355 163.398 C 434.428 163.601 477.502 163.581 520.575 163.338 C 520.516 188.407 519.595 214.54 520.377 239.596 C 520.575 245.976 526.314 258.627 526.662 261.92 C 527.842 263.735 528.999 265.038 529.443 267.038 C 544.991 286.663 553.685 292.686 576.551 303.322 L 577.085 303.672 C 583.604 305.82 590.658 307.669 597.308 309.519 C 599.226 293.327 597.446 243.193 597.259 224.17 C 592.281 222.899 587.962 221.816 583.251 219.714 C 569.715 213.687 559.208 202.421 554.136 188.499 C 549.362 175.738 550.073 161.571 556.103 149.353 C 563.49 134.23 575.121 125.272 590.733 119.898 z" fill="rgb(242,180,23)" transform="translate(0,0)"></path>
<path d="M 599.034 266.134 C 755.765 268.4 915.873 266.836 1072.89 266.884 L 1183.6 266.653 C 1226.38 266.142 1266.35 259.319 1299.58 293.385 C 1321.68 316.042 1328.41 347.501 1327.77 378.219 C 1327.5 387.259 1327.15 396.296 1326.72 405.33 C 1311.3 583.633 1257.46 762.865 1116.11 883.155 C 1072.5 920.265 1014.45 948.063 957.894 957.275 C 957.267 957.394 957.639 957.303 956.742 957.582 C 955.824 957.698 954.905 957.808 953.985 957.91 C 939.578 959.466 927.951 955.154 914.315 950.846 C 870.044 936.86 837.224 915.613 801.444 887.174 C 801.213 886.922 800.983 886.671 800.752 886.42 C 796.644 883.241 793.388 879.369 789.325 877.021 C 787.841 875.078 772.419 859.301 770.936 858.244 C 762.677 852.357 733.618 814.696 728.592 812.206 C 722.816 806.865 702.764 777.519 699.421 769.097 C 698.616 765.301 694.739 758.683 692.659 754.996 C 627.326 639.228 601.364 501.97 599.709 370.144 C 599.454 349.853 599.298 329.551 599.154 309.26 C 598.75 303.878 598.428 270.775 599.034 266.134 z" fill="rgb(242,180,23)" transform="translate(0,0)"></path>
<path d="M 599.154 309.26 C 598.75 303.878 598.428 270.775 599.034 266.134 C 600.223 275.769 600.341 300.185 599.154 309.26 z" fill="rgb(183,130,16)" transform="translate(0,0)"></path>
<path d="M 282.991 211.626 C 281.183 186.753 303.576 164.279 328.028 163.661 C 349.097 163.129 370.267 163.372 391.355 163.398 C 434.428 163.601 477.502 163.581 520.575 163.338 C 520.516 188.407 519.595 214.54 520.377 239.596 C 520.575 245.976 526.314 258.627 526.662 261.92 C 527.842 263.735 528.999 265.038 529.443 267.038 C 534.183 281.456 552.962 293.113 565.573 300.229 C 569.235 323.593 573.474 351.287 583.743 372.913 C 542.307 365.548 502.735 340.526 478.651 305.885 C 469.845 293.219 467.19 285.616 461.057 272.383 L 460.472 274.51 C 485.072 335.824 534.373 367.203 598.062 377.367 C 600.705 489.752 620.378 606.149 667.316 708.792 C 674.273 724.005 689.612 756.113 699.421 769.097 C 702.764 777.519 722.816 806.865 728.592 812.206 C 733.618 814.696 762.677 852.357 770.936 858.244 C 772.419 859.301 787.841 875.078 789.325 877.021 C 793.388 879.369 796.644 883.241 800.752 886.42 C 800.983 886.671 801.213 886.922 801.444 887.174 C 837.224 915.613 870.044 936.86 914.315 950.846 C 927.951 955.154 939.578 959.466 953.985 957.91 C 954.905 957.808 955.824 957.698 956.742 957.582 L 954.292 960.698 L 953.555 961.518 C 964.377 963.46 986.412 965.73 997.43 966.264 C 1006.06 965.827 1025.95 965.636 1034.19 966.428 C 1038.77 966.042 1043.36 965.609 1047.94 965.128 L 1046.45 967.326 C 1019.71 971.206 988.772 968.064 962.028 964.456 C 952.076 963.113 930.688 956.168 922.074 959.114 L 921.365 958.27 C 922.765 957.245 922.127 957.903 923.161 956.191 C 917.661 952.392 903.954 949.077 896.975 946.435 C 878.933 939.604 863.019 931.579 846.768 921.277 C 841.105 917.687 827.353 908.219 821.151 906.522 C 812.052 904.033 798.722 902.801 788.901 901.216 C 773.132 898.666 757.519 895.231 742.135 890.929 C 656.95 867.411 578.395 824.418 512.671 765.342 C 501.469 755.392 480.992 736.87 471.885 725.158 C 469.557 723.918 462.53 716.142 460.486 713.895 C 337.357 576.456 273.555 395.912 282.991 211.626 z" fill="rgb(254,254,254)" transform="translate(0,0)"></path>
<path d="M 282.991 211.626 C 281.183 186.753 303.576 164.279 328.028 163.661 C 349.097 163.129 370.267 163.372 391.355 163.398 C 434.428 163.601 477.502 163.581 520.575 163.338 C 520.516 188.407 519.595 214.54 520.377 239.596 C 520.575 245.976 526.314 258.627 526.662 261.92 C 527.842 263.735 528.999 265.038 529.443 267.038 C 534.183 281.456 552.962 293.113 565.573 300.229 C 569.235 323.593 573.474 351.287 583.743 372.913 C 542.307 365.548 502.735 340.526 478.651 305.885 C 469.845 293.219 467.19 285.616 461.057 272.383 L 460.472 274.51 C 455.24 257.607 453.838 247.129 453.913 229.254 C 420.121 229.279 383.461 228.564 349.916 229.444 C 349.816 308.077 357.291 380.664 384.545 455.224 C 386.524 460.637 392.015 474.747 392.734 479.875 C 402.085 498.854 409.452 517.944 419.602 537.818 C 448.187 593.032 484.711 643.758 528.008 688.38 C 544.248 704.85 561.985 720.074 579.827 734.754 C 582.709 737.125 586.707 739.988 589.18 742.653 C 595.504 745.739 620.286 764.078 628.533 769.332 C 653.696 785.363 677.35 796.806 704.998 808.214 C 709.3 809.988 727.226 817.642 730.93 817.784 C 730.652 815.079 730.028 814.705 728.592 812.206 C 733.618 814.696 762.677 852.357 770.936 858.244 C 772.419 859.301 787.841 875.078 789.325 877.021 C 793.388 879.369 796.644 883.241 800.752 886.42 C 800.983 886.671 801.213 886.922 801.444 887.174 C 837.224 915.613 870.044 936.86 914.315 950.846 C 927.951 955.154 939.578 959.466 953.985 957.91 C 954.905 957.808 955.824 957.698 956.742 957.582 L 954.292 960.698 L 953.555 961.518 C 964.377 963.46 986.412 965.73 997.43 966.264 C 1006.06 965.827 1025.95 965.636 1034.19 966.428 C 1038.77 966.042 1043.36 965.609 1047.94 965.128 L 1046.45 967.326 C 1019.71 971.206 988.772 968.064 962.028 964.456 C 952.076 963.113 930.688 956.168 922.074 959.114 L 921.365 958.27 C 922.765 957.245 922.127 957.903 923.161 956.191 C 917.661 952.392 903.954 949.077 896.975 946.435 C 878.933 939.604 863.019 931.579 846.768 921.277 C 841.105 917.687 827.353 908.219 821.151 906.522 C 812.052 904.033 798.722 902.801 788.901 901.216 C 773.132 898.666 757.519 895.231 742.135 890.929 C 656.95 867.411 578.395 824.418 512.671 765.342 C 501.469 755.392 480.992 736.87 471.885 725.158 C 469.557 723.918 462.53 716.142 460.486 713.895 C 337.357 576.456 273.555 395.912 282.991 211.626 z" fill="rgb(242,180,23)" transform="translate(0,0)"></path>
<path d="M 471.885 725.158 C 477.223 728.599 481.971 733.989 486.521 738.466 C 502.532 754.22 519.239 769.945 536.743 784.053 C 606.187 840.024 695.477 882.674 783.231 898.909 C 770.09 883.585 756.214 871.736 743.403 855.108 C 737.393 847.308 719.631 818.364 714.148 814.904 C 706.326 809.97 681.939 799.881 672.095 795.136 C 648.044 783.48 625.01 769.832 603.234 754.335 C 600.082 752.108 590.328 745.653 589.18 742.653 C 595.504 745.739 620.286 764.078 628.533 769.332 C 653.696 785.363 677.35 796.806 704.998 808.214 C 709.3 809.988 727.226 817.642 730.93 817.784 C 730.652 815.079 730.028 814.705 728.592 812.206 C 733.618 814.696 762.677 852.357 770.936 858.244 C 772.419 859.301 787.841 875.078 789.325 877.021 C 793.388 879.369 796.644 883.241 800.752 886.42 C 800.983 886.671 801.213 886.922 801.444 887.174 C 837.224 915.613 870.044 936.86 914.315 950.846 C 927.951 955.154 939.578 959.466 953.985 957.91 C 954.905 957.808 955.824 957.698 956.742 957.582 L 954.292 960.698 L 953.555 961.518 C 964.377 963.46 986.412 965.73 997.43 966.264 C 1006.06 965.827 1025.95 965.636 1034.19 966.428 C 1038.77 966.042 1043.36 965.609 1047.94 965.128 L 1046.45 967.326 C 1019.71 971.206 988.772 968.064 962.028 964.456 C 952.076 963.113 930.688 956.168 922.074 959.114 L 921.365 958.27 C 922.765 957.245 922.127 957.903 923.161 956.191 C 917.661 952.392 903.954 949.077 896.975 946.435 C 878.933 939.604 863.019 931.579 846.768 921.277 C 841.105 917.687 827.353 908.219 821.151 906.522 C 812.052 904.033 798.722 902.801 788.901 901.216 C 773.132 898.666 757.519 895.231 742.135 890.929 C 656.95 867.411 578.395 824.418 512.671 765.342 C 501.469 755.392 480.992 736.87 471.885 725.158 z" fill="rgb(44,31,7)" transform="translate(0,0)"></path>
<path d="M 718.976 815.64 C 726.895 818.411 732.275 818.742 737.75 824.963 C 738.337 825.492 738.22 825.416 738.63 826.104 L 752.754 841.988 C 754.962 843.661 756.491 845.402 758.103 847.615 C 760.396 850.024 762.644 852.475 764.847 854.966 C 765.69 855.586 782.206 872.046 783.045 873.129 C 784.494 874.418 785.743 875.595 787.132 876.96 L 789.325 877.021 C 793.388 879.369 796.644 883.241 800.752 886.42 C 800.983 886.671 801.213 886.922 801.444 887.174 L 800.765 889.185 C 802.336 890.267 803.483 891.172 804.965 892.351 C 805.558 892.755 805.621 892.737 806.04 893.236 C 810.284 896.345 814.858 899.918 819.078 903.137 C 808.545 902.509 796.432 901.14 786.193 898.67 C 757.217 868.826 741.32 851.856 718.976 815.64 z" fill="rgb(242,180,23)" transform="translate(0,0)"></path>
<path d="M 789.325 877.021 C 793.388 879.369 796.644 883.241 800.752 886.42 L 797.964 887.214 C 797.063 886.228 796.053 885.065 795.088 884.183 C 792.227 880.742 791.084 881.157 789.325 877.021 z" fill="rgb(44,31,7)" transform="translate(0,0)"></path>
<path d="M 764.847 854.966 C 765.69 855.586 782.206 872.046 783.045 873.129 C 780.954 872.671 765.864 857.471 764.847 854.966 z" fill="rgb(149,103,17)" transform="translate(0,0)"></path>
<path d="M 787.132 876.96 L 789.325 877.021 C 791.084 881.157 792.227 880.742 795.088 884.183 C 792.3 883.049 789.237 879.291 787.132 876.96 z" fill="rgb(149,103,17)" transform="translate(0,0)"></path>
<path d="M 752.754 841.988 C 754.962 843.661 756.491 845.402 758.103 847.615 C 755.815 846.041 753.972 844.499 752.754 841.988 z" fill="rgb(149,103,17)" transform="translate(0,0)"></path>
<path d="M 800.752 886.42 C 800.983 886.671 801.213 886.922 801.444 887.174 L 800.765 889.185 C 799.73 888.497 798.948 887.986 797.964 887.214 L 800.752 886.42 z" fill="rgb(82,57,9)" transform="translate(0,0)"></path>
<path d="M 997.43 966.264 C 1006.06 965.827 1025.95 965.636 1034.19 966.428 C 1028.31 967.509 1003.24 967.614 997.43 966.264 z" fill="rgb(149,103,17)" transform="translate(0,0)"></path>
<path d="M 347.767 227.755 L 455.889 227.465 C 455.954 238.622 456.496 247.751 458.442 258.791 C 459.243 263.335 460.904 268.211 461.057 272.383 L 460.472 274.51 C 455.24 257.607 453.838 247.129 453.913 229.254 C 420.121 229.279 383.461 228.564 349.916 229.444 C 349.816 308.077 357.291 380.664 384.545 455.224 C 386.524 460.637 392.015 474.747 392.734 479.875 L 391.222 478.986 C 357.282 399.398 348.266 313.262 347.767 227.755 z" fill="rgb(183,130,16)" transform="translate(0,0)"></path>
<path d="M 282.991 211.626 C 281.183 186.753 303.576 164.279 328.028 163.661 C 349.097 163.129 370.267 163.372 391.355 163.398 C 434.428 163.601 477.502 163.581 520.575 163.338 C 520.516 188.407 519.595 214.54 520.377 239.596 C 520.575 245.976 526.314 258.627 526.662 261.92 L 525.175 261.451 C 514.167 239.102 518.463 192.489 518.705 165.203 L 387.561 165.208 C 353.857 165.198 295.463 155.283 285.891 200.263 C 285.138 203.8 285.055 209.197 282.991 211.626 z" fill="rgb(183,130,16)" transform="translate(0,0)"></path>
<path d="M 1528 163.271 L 1658.96 163.418 C 1681.09 163.425 1707.78 162.278 1729.38 165.219 C 1737.44 166.318 1744.84 171.792 1750.77 177.357 C 1767.55 193.107 1765.5 210.448 1765.75 231.197 C 1766.72 312.221 1755.83 393.214 1729.89 470.136 C 1727.32 477.752 1718.48 504.321 1714.57 510.248 C 1713.18 517.694 1700.64 543.253 1697.01 550.895 C 1656.97 635.649 1599.34 710.901 1527.94 771.639 C 1520.18 778.196 1499.68 797.115 1491.11 800.472 C 1485.71 802.494 1476.31 809.357 1471.31 812.767 C 1409.58 854.884 1343.6 880.735 1270.66 895.599 C 1293.66 878.742 1342.87 828.705 1356.39 804.319 C 1369.33 796.703 1405.17 782.446 1414.88 772.273 C 1398.21 780.908 1329.98 817.729 1314.83 817.048 C 1314.9 814.772 1314.64 815.844 1315.58 813.826 C 1326.4 805.871 1371.27 729.179 1374.66 715.096 C 1381.43 704.708 1393.63 672.475 1397.84 660.248 C 1428.26 569.014 1445.86 473.999 1450.14 377.924 C 1466.93 375.164 1507.64 364.683 1520.14 353.649 C 1517.89 353.584 1498.92 362.693 1494.09 364.572 C 1482.71 369.004 1475.06 371.03 1463.38 373.833 C 1475.31 349.014 1481.62 328.527 1483.48 301.271 L 1492.37 295.441 L 1491.09 294.494 C 1518.12 275.158 1528.7 256.837 1528.29 223.36 C 1528.05 203.715 1527.73 182.897 1528 163.271 z" fill="rgb(254,254,254)" transform="translate(0,0)"></path>
<path d="M 1528 163.271 L 1658.96 163.418 C 1681.09 163.425 1707.78 162.278 1729.38 165.219 C 1737.44 166.318 1744.84 171.792 1750.77 177.357 C 1767.55 193.107 1765.5 210.448 1765.75 231.197 C 1766.72 312.221 1755.83 393.214 1729.89 470.136 C 1727.32 477.752 1718.48 504.321 1714.57 510.248 C 1713.18 517.694 1700.64 543.253 1697.01 550.895 C 1656.97 635.649 1599.34 710.901 1527.94 771.639 C 1520.18 778.196 1499.68 797.115 1491.11 800.472 C 1485.71 802.494 1476.31 809.357 1471.31 812.767 C 1409.58 854.884 1343.6 880.735 1270.66 895.599 C 1293.66 878.742 1342.87 828.705 1356.39 804.319 C 1369.33 796.703 1405.17 782.446 1414.88 772.273 C 1415.2 771.675 1441.58 754.4 1444.93 752.023 C 1471.74 733.183 1496.82 711.989 1519.87 688.694 C 1605.85 600.749 1663.93 489.361 1686.81 368.52 C 1696 318.71 1697.97 279.574 1697.88 229.799 C 1663.25 229.575 1628.61 229.547 1593.98 229.716 C 1593.66 248.979 1593.13 259.444 1586.83 277.951 C 1577.11 306.455 1547.37 340.956 1520.14 353.649 C 1517.89 353.584 1498.92 362.693 1494.09 364.572 C 1482.71 369.004 1475.06 371.03 1463.38 373.833 C 1475.31 349.014 1481.62 328.527 1483.48 301.271 L 1492.37 295.441 L 1491.09 294.494 C 1518.12 275.158 1528.7 256.837 1528.29 223.36 C 1528.05 203.715 1527.73 182.897 1528 163.271 z" fill="rgb(242,180,23)" transform="translate(0,0)"></path>
<path d="M 1528 163.271 L 1658.96 163.418 C 1681.09 163.425 1707.78 162.278 1729.38 165.219 C 1737.44 166.318 1744.84 171.792 1750.77 177.357 C 1767.55 193.107 1765.5 210.448 1765.75 231.197 C 1766.72 312.221 1755.83 393.214 1729.89 470.136 C 1727.32 477.752 1718.48 504.321 1714.57 510.248 C 1715.36 504.732 1722.9 485.152 1725.22 478.524 C 1729.86 465.186 1734.12 451.716 1737.99 438.131 C 1753.93 383.253 1762.6 318.867 1763.62 262.031 C 1762.38 243.249 1766.69 215.781 1761.7 198.056 C 1754.86 173.776 1730.38 163.652 1707.35 165.118 C 1693.44 166.003 1677.82 165.123 1664.26 165.122 L 1529.86 165.127 C 1530.13 186.4 1530.31 207.738 1530.18 229.021 C 1530.01 257.036 1516.56 280.826 1492.37 295.441 L 1491.09 294.494 C 1518.12 275.158 1528.7 256.837 1528.29 223.36 C 1528.05 203.715 1527.73 182.897 1528 163.271 z" fill="rgb(149,103,17)" transform="translate(0,0)"></path>
<path d="M 590.733 119.898 C 600.846 117.499 652.983 118.366 667.847 118.386 L 835.3 118.521 L 1210.49 118.581 L 1352.59 118.265 C 1380.92 118.173 1409.46 117.9 1437.79 118.334 C 1449.89 118.519 1460.67 119.317 1471.01 125.811 C 1483.84 133.721 1492.93 146.484 1496.21 161.199 C 1502.9 191.962 1481.68 216.559 1452.85 223.931 C 1452.7 230.686 1452.67 237.857 1452.18 244.556 L 1450.88 238.974 C 1451.22 235.11 1451.01 228.072 1451.02 223.961 C 1418.32 226.035 1385.6 223.049 1353.93 224.51 L 1352.88 222.275 C 1344.37 222.957 1328.94 222.492 1319.97 222.46 L 1257.82 222.292 L 1057.22 222.362 L 752.551 222.288 C 704.584 222.27 656.423 222.914 608.466 222.371 C 596.529 222.236 591.529 222.169 581.021 216.803 C 568.598 210.548 559.255 199.508 555.141 186.222 C 546.34 157.117 563.769 129.491 592.201 121.366 L 590.733 119.898 z" fill="rgb(242,180,23)" transform="translate(0,0)"></path>
<path d="M 590.733 119.898 C 600.846 117.499 652.983 118.366 667.847 118.386 L 835.3 118.521 L 1210.49 118.581 L 1352.59 118.265 C 1380.92 118.173 1409.46 117.9 1437.79 118.334 C 1449.89 118.519 1460.67 119.317 1471.01 125.811 C 1483.84 133.721 1492.93 146.484 1496.21 161.199 C 1502.9 191.962 1481.68 216.559 1452.85 223.931 C 1452.7 230.686 1452.67 237.857 1452.18 244.556 L 1450.88 238.974 C 1451.22 235.11 1451.01 228.072 1451.02 223.961 C 1418.32 226.035 1385.6 223.049 1353.93 224.51 L 1352.88 222.275 C 1370.43 218.303 1386.94 211.557 1397.78 196.403 C 1413.55 174.343 1404.01 143.932 1382 130.115 C 1373.54 124.809 1361.24 120.83 1351.15 120.089 C 1329.88 119.824 1308.55 119.936 1287.27 119.949 L 1158.38 120.268 L 828.854 120.002 L 668.461 119.983 C 653.537 119.961 604.366 118.785 592.201 121.366 L 590.733 119.898 z" fill="rgb(82,57,9)" transform="translate(0,0)"></path>
<path d="M 1363.02 120.229 C 1380.69 119.96 1443.21 118.32 1456.83 121.972 C 1465.06 124.101 1472.62 128.279 1478.8 134.115 C 1489.08 143.556 1495.09 156.756 1495.48 170.705 C 1495.75 184.585 1490.3 197.965 1480.4 207.703 C 1473.82 214.105 1465.64 218.618 1456.72 220.765 C 1443.8 223.866 1385.47 222.735 1370.03 222.252 C 1368.22 222.185 1366.42 222.093 1364.62 221.975 C 1385.48 213.019 1402.78 202.481 1407.2 178.082 C 1407.01 173.353 1407.04 170.399 1407.4 165.72 C 1401.74 138.132 1388.18 128.303 1363.02 120.229 z" fill="rgb(242,180,23)" transform="translate(0,0)"></path>
<path d="M 1407.4 165.72 C 1408.4 171.301 1408.48 172.577 1407.2 178.082 C 1407.01 173.353 1407.04 170.399 1407.4 165.72 z" fill="rgb(149,103,17)" transform="translate(0,0)"></path>
<path d="M 597.259 224.17 C 592.281 222.899 587.962 221.816 583.251 219.714 C 569.715 213.687 559.208 202.421 554.136 188.499 C 549.362 175.738 550.073 161.571 556.103 149.353 C 563.49 134.23 575.121 125.272 590.733 119.898 L 592.201 121.366 C 563.769 129.491 546.34 157.117 555.141 186.222 C 559.255 199.508 568.598 210.548 581.021 216.803 C 591.529 222.169 596.529 222.236 608.466 222.371 C 656.423 222.914 704.584 222.27 752.551 222.288 L 1057.22 222.362 L 1257.82 222.292 L 1319.97 222.46 C 1328.94 222.492 1344.37 222.957 1352.88 222.275 L 1353.93 224.51 C 1344.48 225.642 1326.24 224.954 1316.54 224.759 C 1300.39 224.392 1284.24 224.283 1268.09 224.432 L 1048.96 224.501 L 752.944 224.664 L 659.295 224.79 C 640.341 224.814 617.849 225.341 599.179 223.877 C 599.091 237.235 599.08 250.592 599.146 263.95 C 624.498 263.886 649.849 263.997 675.199 264.284 C 696.794 262.989 727.107 264.058 749.614 264.054 L 893.828 264.018 L 1058.95 264.068 C 1085.25 264.078 1118.6 263.046 1144.16 264.282 C 1163.01 264.351 1181.85 264.195 1200.69 263.815 C 1240.92 263.157 1267.07 260.453 1300.28 291.118 C 1316.72 306.296 1329.41 337.96 1329.4 360.222 C 1330.13 361.814 1329.96 361.795 1329.82 363.63 C 1330.16 372.908 1330.15 379.937 1329.74 389.21 C 1329.95 391.47 1330.15 391.794 1329.34 393.734 L 1329.13 403.533 L 1326.72 405.33 C 1327.15 396.296 1327.5 387.259 1327.77 378.219 C 1328.41 347.501 1321.68 316.042 1299.58 293.385 C 1266.35 259.319 1226.38 266.142 1183.6 266.653 L 1072.89 266.884 C 915.873 266.836 755.765 268.4 599.034 266.134 C 598.428 270.775 598.75 303.878 599.154 309.26 C 599.298 329.551 599.454 349.853 599.709 370.144 C 601.364 501.97 627.326 639.228 692.659 754.996 C 694.739 758.683 698.616 765.301 699.421 769.097 C 689.612 756.113 674.273 724.005 667.316 708.792 C 620.378 606.149 600.705 489.752 598.062 377.367 C 534.373 367.203 485.072 335.824 460.472 274.51 L 461.057 272.383 C 467.19 285.616 469.845 293.219 478.651 305.885 C 502.735 340.526 542.307 365.548 583.743 372.913 C 573.474 351.287 569.235 323.593 565.573 300.229 C 552.962 293.113 534.183 281.456 529.443 267.038 C 544.991 286.663 553.685 292.686 576.551 303.322 L 577.085 303.672 C 583.604 305.82 590.658 307.669 597.308 309.519 C 599.226 293.327 597.446 243.193 597.259 224.17 z" fill="rgb(82,57,9)" transform="translate(0,0)"></path>
<path d="M 586.054 373.539 C 582.565 365.076 577.553 349.549 575.377 340.443 L 574.333 335.987 C 573.516 332.38 567.805 303.439 568.458 302.247 C 569.405 302.002 573.496 303.553 576.551 303.322 L 577.085 303.672 C 580.224 307.769 591.788 309.675 597.012 311.105 C 596.62 330.521 596.904 351.69 597.284 371.127 C 597.308 372.276 597.32 373.431 597.373 374.578 C 593.857 374.691 589.522 374.196 586.054 373.539 z" fill="rgb(242,180,23)" transform="translate(0,0)"></path>
<path d="M 675.199 264.284 C 696.794 262.989 727.107 264.058 749.614 264.054 L 893.828 264.018 L 1058.95 264.068 C 1085.25 264.078 1118.6 263.046 1144.16 264.282 C 1139.92 265.231 1121.04 264.909 1115.28 264.91 L 1052.7 264.91 L 804.718 264.891 L 713.032 264.892 C 707.029 264.89 679.556 265.255 675.199 264.284 z" fill="rgb(149,103,17)" transform="translate(0,0)"></path>
<path d="M 1329.34 393.734 C 1329.06 391.439 1328.81 391.131 1329.74 389.21 C 1329.95 391.47 1330.15 391.794 1329.34 393.734 z" fill="rgb(149,103,17)" transform="translate(0,0)"></path>
<path d="M 1329.4 360.222 C 1330.13 361.814 1329.96 361.795 1329.82 363.63 C 1329.09 362.162 1329.27 362.04 1329.4 360.222 z" fill="rgb(149,103,17)" transform="translate(0,0)"></path>
<path d="M 1450.08 268.019 L 1450.78 262.497 C 1451.13 259.684 1451.32 258.203 1451.88 255.45 C 1451.89 274.249 1451.72 293.048 1451.38 311.844 C 1465.88 307.254 1478.21 302.885 1491.09 294.494 L 1492.37 295.441 L 1483.48 301.271 C 1481.62 328.527 1475.31 349.014 1463.38 373.833 C 1475.06 371.03 1482.71 369.004 1494.09 364.572 C 1498.92 362.693 1517.89 353.584 1520.14 353.649 C 1507.64 364.683 1466.93 375.164 1450.14 377.924 C 1445.86 473.999 1428.26 569.014 1397.84 660.248 C 1393.63 672.475 1381.43 704.708 1374.66 715.096 C 1375.74 708.93 1386.85 685.417 1389.89 676.974 C 1396.28 659.267 1403.39 640.697 1408.56 622.545 C 1434.06 533.094 1451.65 420.209 1449.87 327.311 C 1450.23 317.63 1450.5 306.518 1450.02 296.91 C 1450.37 287.45 1450.15 277.52 1450.08 268.019 z" fill="rgb(44,31,7)" transform="translate(0,0)"></path>
<path d="M 1479.27 303.059 C 1479.6 303.201 1479.93 303.343 1480.25 303.484 C 1481.46 307.698 1479.86 316.859 1479.09 321.021 C 1475.85 338.382 1469.78 355.849 1462.24 371.789 C 1461.03 374.362 1455.68 375.323 1453.26 375.9 C 1453.13 375.86 1451.5 375.459 1451.5 375.209 C 1451.66 362.209 1451.76 324.322 1451.67 313.365 L 1452.44 313.089 C 1462.88 309.255 1468.37 307.886 1479.27 303.059 z" fill="rgb(242,180,23)" transform="translate(0,0)"></path>
<path d="M 1326.72 405.33 L 1329.13 403.533 C 1325.96 426.65 1324.74 449.995 1321.33 473.493 C 1310.6 552.914 1288.03 630.279 1254.36 703.006 C 1254.18 704.16 1254.22 704.028 1253.38 704.853 C 1221.84 768.967 1188.36 819.457 1135.68 868.548 C 1081.61 918.948 1029.75 944.048 957.907 959.74 L 957.894 957.275 C 1014.45 948.063 1072.5 920.265 1116.11 883.155 C 1257.46 762.865 1311.3 583.633 1326.72 405.33 z" fill="rgb(44,31,7)" transform="translate(0,0)"></path>
<path d="M 1450.88 238.974 L 1452.18 244.556 C 1452.41 247.688 1452.29 252.363 1451.88 255.45 C 1451.32 258.203 1451.13 259.684 1450.78 262.497 L 1450.08 268.019 C 1449.55 261.523 1449.56 254.995 1450.09 248.5 C 1450.36 245.345 1450.54 242.078 1450.88 238.974 z" fill="rgb(183,130,16)" transform="translate(0,0)"></path>
<path d="M 1450.02 296.91 C 1450.5 306.518 1450.23 317.63 1449.87 327.311 C 1448.59 320.418 1448.57 303.557 1450.02 296.91 z" fill="rgb(183,130,16)" transform="translate(0,0)"></path>
<path d="M 956.742 957.582 C 957.639 957.303 957.267 957.394 957.894 957.275 L 957.907 959.74 C 956.856 959.939 955.298 960.416 954.292 960.698 L 956.742 957.582 z" fill="rgb(82,57,9)" transform="translate(0,0)"></path>
<path d="M 886.318 1435.44 C 898.411 1431.91 922.734 1428.68 936.349 1427.16 C 1005.59 1419.44 1085.07 1414.47 1147.78 1449.46 C 1186.86 1471.27 1205.35 1495.77 1223.75 1534.84 L 1225.67 1535.19 L 1225.97 1534.94 C 1233.39 1533.54 1276.77 1534.29 1286.7 1534.34 C 1276.67 1500.46 1257.89 1480.13 1228.5 1461.43 L 1228.86 1459.97 L 1230.09 1460.64 C 1259.62 1477.12 1279.26 1502.37 1288.51 1534.74 C 1310.05 1535.45 1328.52 1540.4 1344.29 1556.04 C 1354.25 1565.88 1361.03 1578.48 1363.74 1592.22 C 1366.64 1606.89 1365.18 1654.31 1365.22 1672.39 C 1365.66 1732.7 1365.69 1793.01 1365.33 1853.32 C 1370.52 1853.31 1375.65 1853.26 1380.85 1853.59 C 1413.57 1855.65 1431.16 1893.8 1409.47 1919.22 C 1400.67 1929.53 1392.54 1933.3 1379.03 1933.94 C 1364.88 1934.62 1350.65 1934.28 1336.46 1934.24 L 1262.17 1934.17 L 1021.43 1934.16 L 784.893 1934.19 L 704.255 1934.24 C 681.988 1934.2 648.95 1938.3 631.898 1922.87 C 623.924 1915.61 619.325 1905.36 619.198 1894.58 C 618.985 1883.82 623.131 1873.43 630.694 1865.77 C 642.596 1853.82 655.176 1853.04 670.617 1852.99 C 671.984 1790.78 669.193 1727.65 670.487 1665.46 C 671.258 1628.44 662.457 1583.86 691.413 1555.9 C 711.901 1536.11 732.484 1534.61 759.161 1535.01 C 772.257 1474.05 829.471 1447.05 884.78 1433.95 L 886.318 1435.44 z" fill="rgb(91,70,60)" transform="translate(0,0)"></path>
<path d="M 886.318 1435.44 C 898.411 1431.91 922.734 1428.68 936.349 1427.16 C 1005.59 1419.44 1085.07 1414.47 1147.78 1449.46 C 1186.86 1471.27 1205.35 1495.77 1223.75 1534.84 C 1218.23 1534.12 1187.62 1534.77 1180.49 1534.81 L 1089.83 1535.14 L 760.84 1535.15 C 773.806 1475.88 831.779 1446.94 886.318 1435.44 z" fill="rgb(242,180,23)" transform="translate(0,0)"></path>
<path d="M 781.24 1602.66 C 793.464 1601.15 825.234 1601.98 838.357 1602 L 945 1602.03 L 1163.31 1602 C 1191.59 1602.03 1219.72 1602.09 1248.24 1601.69 C 1271.68 1600.02 1296.56 1622.16 1296.99 1646.16 C 1297.48 1673.89 1297.88 1703.78 1297.26 1731.87 C 1296.37 1772.55 1298.61 1815.39 1296.14 1856.03 C 1282.83 1855.81 1269.52 1855.69 1256.21 1855.69 L 892.872 1855.74 L 790.996 1855.7 C 780.934 1855.69 749.741 1856.22 741.01 1854.81 C 741.678 1785.63 740.044 1715.84 741.345 1646.65 C 741.787 1623.17 758.934 1607.48 781.24 1602.66 z" fill="rgb(35,28,25)" transform="translate(0,0)"></path>
<path d="M 782.812 1604.27 C 794.663 1603.17 819.609 1603.97 832.695 1603.98 L 929.709 1604 L 1240.44 1603.86 C 1259 1603.88 1267.74 1604.02 1281.98 1617.99 C 1298.01 1633.73 1294.56 1655.83 1294.95 1676.24 C 1295.16 1687.69 1294.89 1699.04 1294.85 1710.38 L 1294.19 1854.06 L 1256.5 1854 L 742.965 1854.15 L 743.015 1716.22 C 743.025 1693.04 742.66 1669.72 743.5 1646.57 C 744.351 1623.14 761.086 1608.76 782.812 1604.27 z" fill="rgb(91,70,60)" transform="translate(0,0)"></path>
<path d="M 1603.79 1546.65 C 1641.73 1539.49 1672.25 1541.82 1709.1 1552.63 C 1751.44 1568.15 1783.75 1590.69 1809.45 1628.6 C 1813.61 1633.84 1818.6 1642.74 1821.52 1648.78 L 1821.84 1649.36 C 1836.41 1675.41 1847.44 1722.87 1843.25 1752.37 C 1841.66 1784.07 1829.34 1822.03 1811.18 1848.16 L 1809.82 1847.35 C 1806.56 1843.94 1782.16 1847.24 1777.1 1848.65 C 1776.41 1847.71 1775.95 1847.08 1775.35 1846.13 L 1774.53 1847.15 C 1765.81 1858.26 1747.81 1869.98 1736.3 1878.28 C 1732.3 1881.16 1726.08 1883.71 1722.57 1886.83 C 1705.19 1891.39 1662.2 1874.63 1648.24 1864.91 C 1647.54 1864.66 1647.46 1864.55 1646.78 1864.55 C 1632.73 1870.72 1590.24 1882.5 1573.93 1886.72 C 1557.44 1880.42 1532.53 1859.08 1519.5 1846.97 L 1517.77 1848.02 C 1508.3 1848.49 1494.45 1848.96 1485.28 1850.17 L 1483.54 1850.27 C 1460.52 1816.8 1453.61 1789.59 1449.55 1749.8 C 1443.75 1706.34 1466.14 1646.33 1494.75 1613.61 C 1521.01 1580.26 1562.83 1556.55 1603.79 1546.65 z" fill="rgb(254,254,254)" transform="translate(0,0)"></path>
<path d="M 1603.79 1546.65 L 1607.03 1547.66 C 1610.62 1551.28 1614.24 1554.87 1617.9 1558.42 L 1618.88 1560.1 C 1610.41 1566.16 1574.19 1597.67 1571.88 1606.42 L 1570.7 1607.44 C 1575.36 1614.14 1605.72 1654.02 1610.08 1658.38 C 1609.92 1661.84 1579.66 1743.64 1577.47 1746.63 C 1566.31 1750.09 1525.66 1765.69 1515.6 1770.71 C 1515.89 1771.04 1516.19 1771.37 1516.48 1771.7 C 1514.65 1794.66 1514.94 1809.34 1516.99 1832.44 C 1517.68 1836.8 1518.45 1842.82 1519.5 1846.97 L 1517.77 1848.02 C 1508.3 1848.49 1494.45 1848.96 1485.28 1850.17 L 1483.54 1850.27 C 1460.52 1816.8 1453.61 1789.59 1449.55 1749.8 C 1443.75 1706.34 1466.14 1646.33 1494.75 1613.61 C 1521.01 1580.26 1562.83 1556.55 1603.79 1546.65 z" fill="rgb(254,254,254)" transform="translate(0,0)"></path>
<path d="M 1470.89 1714.43 C 1470.8 1725.86 1506.01 1762.66 1515.6 1770.71 C 1515.89 1771.04 1516.19 1771.37 1516.48 1771.7 C 1514.65 1794.66 1514.94 1809.34 1516.99 1832.44 C 1517.68 1836.8 1518.45 1842.82 1519.5 1846.97 L 1517.77 1848.02 C 1508.3 1848.49 1494.45 1848.96 1485.28 1850.17 L 1483.54 1850.27 C 1460.52 1816.8 1453.61 1789.59 1449.55 1749.8 C 1450.13 1749.77 1451.9 1749.25 1452.54 1749.08 C 1457.25 1738.91 1467.52 1725.56 1469.05 1715.59 L 1470.89 1714.43 z" fill="rgb(0,0,0)" transform="translate(0,0)"></path>
<path d="M 1603.79 1546.65 L 1607.03 1547.66 C 1610.62 1551.28 1614.24 1554.87 1617.9 1558.42 L 1618.88 1560.1 C 1610.41 1566.16 1574.19 1597.67 1571.88 1606.42 L 1570.7 1607.44 C 1564.49 1608.61 1506.62 1635.44 1499.22 1639.25 C 1499.05 1634.61 1499.08 1633.92 1498.17 1629.46 C 1498.2 1624.9 1498.55 1618.28 1497.59 1614.01 L 1496.29 1614.85 L 1494.75 1613.61 C 1521.01 1580.26 1562.83 1556.55 1603.79 1546.65 z" fill="rgb(0,0,0)" transform="translate(0,0)"></path>
<path d="M 1496.29 1614.85 L 1497.59 1614.01 C 1498.55 1618.28 1498.2 1624.9 1498.17 1629.46 C 1499.08 1633.92 1499.05 1634.61 1499.22 1639.25 C 1497.36 1645.03 1491.35 1656.23 1488.65 1662.31 C 1481.65 1678.05 1474.99 1693.93 1471.91 1710.99 C 1471.68 1712.23 1471.3 1713.22 1470.89 1714.43 L 1469.05 1715.59 C 1467.52 1725.56 1457.25 1738.91 1452.54 1749.08 C 1451.9 1749.25 1450.13 1749.77 1449.55 1749.8 C 1443.75 1706.34 1466.14 1646.33 1494.75 1613.61 L 1496.29 1614.85 z" fill="rgb(254,254,254)" transform="translate(0,0)"></path>
<path d="M 1449.55 1749.8 C 1443.75 1706.34 1466.14 1646.33 1494.75 1613.61 L 1496.29 1614.85 C 1472.9 1642.2 1458.84 1674.81 1453.34 1710.3 C 1451.62 1721.43 1449.35 1738.11 1452.54 1749.08 C 1451.9 1749.25 1450.13 1749.77 1449.55 1749.8 z" fill="rgb(59,56,55)" transform="translate(0,0)"></path>
<path d="M 1498.17 1629.46 C 1499.08 1633.92 1499.05 1634.61 1499.22 1639.25 C 1497.36 1645.03 1491.35 1656.23 1488.65 1662.31 C 1481.65 1678.05 1474.99 1693.93 1471.91 1710.99 C 1471.68 1712.23 1471.3 1713.22 1470.89 1714.43 L 1469.05 1715.59 C 1472.43 1688.46 1487.11 1662.1 1497.89 1637.52 C 1498.12 1636.99 1498.13 1630.45 1498.17 1629.46 z" fill="rgb(59,56,55)" transform="translate(0,0)"></path>
<path d="M 1603.79 1546.65 C 1641.73 1539.49 1672.25 1541.82 1709.1 1552.63 L 1708.34 1554.12 C 1708.68 1557.6 1701.68 1560.06 1698.54 1561.99 L 1699.03 1563.9 C 1713.12 1576.48 1732.01 1600.04 1736.72 1618.01 L 1738.14 1619.75 C 1732.85 1626.37 1726.08 1633.46 1720.18 1639.6 C 1713.87 1646.16 1704.07 1658.96 1697.72 1664.4 L 1696.74 1663.18 C 1694.02 1663.77 1660.29 1659.51 1654 1659.13 C 1645.5 1658.61 1615.67 1659.64 1611.02 1657.91 L 1610.08 1658.38 C 1605.72 1654.02 1575.36 1614.14 1570.7 1607.44 L 1571.88 1606.42 C 1574.19 1597.67 1610.41 1566.16 1618.88 1560.1 L 1617.9 1558.42 C 1614.24 1554.87 1610.62 1551.28 1607.03 1547.66 L 1603.79 1546.65 z" fill="rgb(254,254,254)" transform="translate(0,0)"></path>
<path d="M 1603.79 1546.65 C 1641.73 1539.49 1672.25 1541.82 1709.1 1552.63 L 1708.34 1554.12 C 1708.68 1557.6 1701.68 1560.06 1698.54 1561.99 L 1699.03 1563.9 C 1696.85 1563.44 1692.09 1562.42 1689.99 1562.14 C 1674.69 1559.91 1659.24 1558.83 1643.78 1558.88 C 1634.99 1559.01 1627.71 1560.02 1618.88 1560.1 L 1617.9 1558.42 C 1614.24 1554.87 1610.62 1551.28 1607.03 1547.66 L 1603.79 1546.65 z" fill="rgb(254,254,254)" transform="translate(0,0)"></path>
<path d="M 1603.79 1546.65 C 1641.73 1539.49 1672.25 1541.82 1709.1 1552.63 L 1708.34 1554.12 C 1694.95 1550 1679.81 1546.82 1665.82 1545.69 C 1664.69 1545.14 1664.7 1545.22 1663.38 1545.28 C 1641.23 1544.38 1628.34 1545.65 1607.03 1547.66 L 1603.79 1546.65 z" fill="rgb(59,56,55)" transform="translate(0,0)"></path>
<path d="M 1617.9 1558.42 C 1634.81 1557.22 1683.33 1555.63 1698.54 1561.99 L 1699.03 1563.9 C 1696.85 1563.44 1692.09 1562.42 1689.99 1562.14 C 1674.69 1559.91 1659.24 1558.83 1643.78 1558.88 C 1634.99 1559.01 1627.71 1560.02 1618.88 1560.1 L 1617.9 1558.42 z" fill="rgb(59,56,55)" transform="translate(0,0)"></path>
<path d="M 1571.88 1606.42 C 1576.69 1611.29 1608.88 1652.98 1611.02 1657.91 L 1610.08 1658.38 C 1605.72 1654.02 1575.36 1614.14 1570.7 1607.44 L 1571.88 1606.42 z" fill="rgb(35,28,25)" transform="translate(0,0)"></path>
<path d="M 1696.74 1663.18 C 1708.32 1648.14 1724.04 1632.73 1736.72 1618.01 L 1738.14 1619.75 C 1732.85 1626.37 1726.08 1633.46 1720.18 1639.6 C 1713.87 1646.16 1704.07 1658.96 1697.72 1664.4 L 1696.74 1663.18 z" fill="rgb(35,28,25)" transform="translate(0,0)"></path>
<path d="M 1515.6 1770.71 C 1525.66 1765.69 1566.31 1750.09 1577.47 1746.63 L 1579.72 1748.37 C 1588.16 1753.66 1603.33 1766.73 1613.41 1773.3 C 1620.34 1777.81 1646.33 1793.81 1649.41 1796.71 C 1648.42 1807.93 1647.14 1832.73 1646.91 1843.92 C 1646.68 1850.82 1645.14 1858.19 1646.78 1864.55 C 1632.73 1870.72 1590.24 1882.5 1573.93 1886.72 C 1557.44 1880.42 1532.53 1859.08 1519.5 1846.97 C 1518.45 1842.82 1517.68 1836.8 1516.99 1832.44 C 1514.94 1809.34 1514.65 1794.66 1516.48 1771.7 C 1516.19 1771.37 1515.89 1771.04 1515.6 1770.71 z" fill="rgb(254,254,254)" transform="translate(0,0)"></path>
<path d="M 1516.99 1832.44 C 1559.29 1843.84 1603.27 1847.72 1646.91 1843.92 C 1646.68 1850.82 1645.14 1858.19 1646.78 1864.55 C 1632.73 1870.72 1590.24 1882.5 1573.93 1886.72 C 1557.44 1880.42 1532.53 1859.08 1519.5 1846.97 C 1518.45 1842.82 1517.68 1836.8 1516.99 1832.44 z" fill="rgb(189,177,170)" transform="translate(0,0)"></path>
<path d="M 1515.6 1770.71 C 1525.66 1765.69 1566.31 1750.09 1577.47 1746.63 L 1579.72 1748.37 C 1561.86 1752.67 1532.16 1767.81 1516.48 1771.7 C 1516.19 1771.37 1515.89 1771.04 1515.6 1770.71 z" fill="rgb(59,56,55)" transform="translate(0,0)"></path>
<path d="M 1610.08 1658.38 L 1611.02 1657.91 C 1615.67 1659.64 1645.5 1658.61 1654 1659.13 C 1660.29 1659.51 1694.02 1663.77 1696.74 1663.18 L 1697.72 1664.4 C 1697.71 1667.32 1705.13 1689.44 1706.82 1693.44 C 1713.52 1709.26 1717.37 1733.2 1722.9 1747.63 L 1722.47 1749.6 C 1718.19 1752.08 1713.79 1755.58 1709.88 1758.66 C 1691.19 1773.4 1671.93 1785.65 1651.01 1797.03 L 1649.41 1796.71 C 1646.33 1793.81 1620.34 1777.81 1613.41 1773.3 C 1603.33 1766.73 1588.16 1753.66 1579.72 1748.37 L 1577.47 1746.63 C 1579.66 1743.64 1609.92 1661.84 1610.08 1658.38 z" fill="rgb(0,0,0)" transform="translate(0,0)"></path>
<path d="M 1722.47 1749.6 C 1728.45 1753.09 1771.02 1771.74 1778.24 1773.96 C 1780.51 1775.55 1781.37 1775.39 1781.51 1778.08 C 1782.08 1789.21 1781.2 1805.16 1779.55 1816.1 C 1778.38 1825.23 1777.19 1837.34 1775.35 1846.13 L 1774.53 1847.15 C 1765.81 1858.26 1747.81 1869.98 1736.3 1878.28 C 1732.3 1881.16 1726.08 1883.71 1722.57 1886.83 C 1705.19 1891.39 1662.2 1874.63 1648.24 1864.91 C 1647.54 1864.66 1647.46 1864.55 1646.78 1864.55 C 1645.14 1858.19 1646.68 1850.82 1646.91 1843.92 C 1647.14 1832.73 1648.42 1807.93 1649.41 1796.71 L 1651.01 1797.03 C 1671.93 1785.65 1691.19 1773.4 1709.88 1758.66 C 1713.79 1755.58 1718.19 1752.08 1722.47 1749.6 z" fill="rgb(254,254,254)" transform="translate(0,0)"></path>
<path d="M 1779.55 1816.1 C 1778.38 1825.23 1777.19 1837.34 1775.35 1846.13 L 1774.53 1847.15 C 1765.81 1858.26 1747.81 1869.98 1736.3 1878.28 C 1732.3 1881.16 1726.08 1883.71 1722.57 1886.83 C 1705.19 1891.39 1662.2 1874.63 1648.24 1864.91 C 1648.78 1859.59 1648.93 1850.25 1648.99 1844.73 C 1689.59 1842.21 1742.13 1832.38 1779.55 1816.1 z" fill="rgb(189,177,170)" transform="translate(0,0)"></path>
<path d="M 1649.41 1796.71 L 1651.01 1797.03 C 1651.43 1812.33 1649.48 1829.24 1648.99 1844.73 C 1648.93 1850.25 1648.78 1859.59 1648.24 1864.91 C 1647.54 1864.66 1647.46 1864.55 1646.78 1864.55 C 1645.14 1858.19 1646.68 1850.82 1646.91 1843.92 C 1647.14 1832.73 1648.42 1807.93 1649.41 1796.71 z" fill="rgb(59,56,55)" transform="translate(0,0)"></path>
<path d="M 1823.3 1728.09 C 1828.7 1733.03 1837.03 1743.77 1841.66 1749.89 C 1842.19 1750.75 1842.64 1751.56 1843.25 1752.37 C 1841.66 1784.07 1829.34 1822.03 1811.18 1848.16 L 1809.82 1847.35 C 1806.56 1843.94 1782.16 1847.24 1777.1 1848.65 C 1776.41 1847.71 1775.95 1847.08 1775.35 1846.13 C 1777.19 1837.34 1778.38 1825.23 1779.55 1816.1 C 1781.2 1805.16 1782.08 1789.21 1781.51 1778.08 C 1781.37 1775.39 1780.51 1775.55 1778.24 1773.96 L 1779.09 1773.02 L 1782.45 1773.85 C 1788.57 1771.03 1816.34 1735.63 1821.12 1728.11 L 1823.3 1728.09 z" fill="rgb(0,0,0)" transform="translate(0,0)"></path>
<path d="M 1709.1 1552.63 C 1751.44 1568.15 1783.75 1590.69 1809.45 1628.6 L 1807.69 1629.76 C 1805.46 1631.87 1801.81 1643.5 1799.33 1648.21 C 1798.5 1649.77 1798.62 1649.79 1798.46 1651.66 C 1780.07 1637.5 1759.38 1628.43 1738.14 1619.75 L 1736.72 1618.01 C 1732.01 1600.04 1713.12 1576.48 1699.03 1563.9 L 1698.54 1561.99 C 1701.68 1560.06 1708.68 1557.6 1708.34 1554.12 L 1709.1 1552.63 z" fill="rgb(0,0,0)" transform="translate(0,0)"></path>
<path d="M 1809.45 1628.6 C 1813.61 1633.84 1818.6 1642.74 1821.52 1648.78 L 1821.84 1649.36 C 1836.41 1675.41 1847.44 1722.87 1843.25 1752.37 C 1842.64 1751.56 1842.19 1750.75 1841.66 1749.89 C 1837.03 1743.77 1828.7 1733.03 1823.3 1728.09 L 1821.12 1728.11 C 1820.22 1702.26 1812.6 1673.44 1798.46 1651.66 C 1798.62 1649.79 1798.5 1649.77 1799.33 1648.21 C 1801.81 1643.5 1805.46 1631.87 1807.69 1629.76 L 1809.45 1628.6 z" fill="rgb(254,254,254)" transform="translate(0,0)"></path>
<path d="M 1821.11 1652.28 C 1821.07 1651.07 1821.36 1650.7 1821.84 1649.36 C 1836.41 1675.41 1847.44 1722.87 1843.25 1752.37 C 1842.64 1751.56 1842.19 1750.75 1841.66 1749.89 C 1842.55 1739.95 1841.83 1732.19 1841.07 1722.5 C 1840.79 1718.55 1840.3 1714.61 1839.61 1710.71 C 1839.41 1709.64 1839.21 1708.56 1839.02 1707.49 C 1838.5 1704.28 1837.89 1701.08 1837.2 1697.9 C 1833.88 1682.05 1828.47 1666.71 1821.11 1652.28 z" fill="rgb(59,56,55)" transform="translate(0,0)"></path>
<path d="M 1798.46 1651.66 C 1798.62 1649.79 1798.5 1649.77 1799.33 1648.21 C 1814.14 1674.83 1821.99 1697.2 1823.3 1728.09 L 1821.12 1728.11 C 1820.22 1702.26 1812.6 1673.44 1798.46 1651.66 z" fill="rgb(35,28,25)" transform="translate(0,0)"></path>
<path d="M 1809.45 1628.6 C 1813.61 1633.84 1818.6 1642.74 1821.52 1648.78 L 1818.8 1647.72 C 1816.65 1642.64 1811.05 1634.06 1807.69 1629.76 L 1809.45 1628.6 z" fill="rgb(59,56,55)" transform="translate(0,0)"></path>
<path d="M 1818.8 1647.72 L 1821.52 1648.78 L 1821.84 1649.36 C 1821.36 1650.7 1821.07 1651.07 1821.11 1652.28 C 1819.9 1650.69 1819.58 1649.58 1818.8 1647.72 z" fill="rgb(140,133,124)" transform="translate(0,0)"></path>
<path d="M 1722.9 1747.63 C 1737.9 1755.54 1767.18 1765.56 1779.09 1773.02 L 1778.24 1773.96 C 1771.02 1771.74 1728.45 1753.09 1722.47 1749.6 L 1722.9 1747.63 z" fill="rgb(35,28,25)" transform="translate(0,0)"></path>
<path d="M 1315.58 813.826 C 1314.64 815.844 1314.9 814.772 1314.83 817.048 C 1329.98 817.729 1398.21 780.908 1414.88 772.273 C 1405.17 782.446 1369.33 796.703 1356.39 804.319 C 1342.87 828.705 1293.66 878.742 1270.66 895.599 C 1343.6 880.735 1409.58 854.884 1471.31 812.767 C 1476.31 809.357 1485.71 802.494 1491.11 800.472 C 1482.09 808.362 1465.55 818.661 1455.18 825.007 C 1404.36 856.64 1348.67 879.665 1290.34 893.152 C 1278.58 895.908 1266.71 898.214 1254.77 900.066 C 1218.7 905.755 1224.39 906.418 1193.45 925.684 C 1174.31 937.603 1143.1 948.741 1121.4 955.432 C 1173.94 979.664 1170.62 1035.93 1116.48 1053.47 C 1111.79 1055 1107.04 1056.39 1102.25 1057.61 C 1095.65 1080.9 1093.14 1100.4 1089.27 1123.53 C 1075.98 1202.9 1085.22 1276.82 1107.44 1353.76 C 1112.65 1371.82 1124.33 1410.71 1132.97 1427.56 C 1168.42 1434.91 1196.51 1441.39 1228.86 1459.97 L 1228.5 1461.43 C 1257.89 1480.13 1276.67 1500.46 1286.7 1534.34 C 1276.77 1534.29 1233.39 1533.54 1225.97 1534.94 L 1225.67 1535.19 L 1223.75 1534.84 C 1205.35 1495.77 1186.86 1471.27 1147.78 1449.46 C 1085.07 1414.47 1005.59 1419.44 936.349 1427.16 C 922.734 1428.68 898.411 1431.91 886.318 1435.44 L 884.78 1433.95 C 894.234 1431.58 902.796 1430.17 912.368 1428.54 C 963.913 1300.35 976.883 1194.67 946.873 1058.22 C 926.479 1050.97 905.307 1045.02 894.326 1024.46 C 888.705 1014.18 887.538 1002.04 891.096 990.881 C 896.275 974.391 906.697 965.68 921.365 958.27 L 922.074 959.114 C 930.688 956.168 952.076 963.113 962.028 964.456 C 988.772 968.064 1019.71 971.206 1046.45 967.326 L 1047.94 965.128 C 1115 962.875 1177.6 938.928 1230.89 898.522 L 1232.48 897.286 C 1252.55 881.314 1271.38 863.849 1288.82 845.041 C 1293.02 840.454 1313.6 814.854 1315.58 813.826 z" fill="rgb(44,31,7)" transform="translate(0,0)"></path>
<path d="M 922.074 959.114 C 930.688 956.168 952.076 963.113 962.028 964.456 C 988.772 968.064 1019.71 971.206 1046.45 967.326 C 1066.43 966.283 1084.9 969.688 1100.61 983.132 C 1114.07 994.66 1116.55 1014.45 1103.08 1026.96 C 1069.79 1057.9 1010.41 1056.89 968.276 1054.84 C 969.865 1056.22 969.745 1056.04 971.822 1057.09 C 969.513 1056.91 968.541 1056.91 966.347 1056.36 L 957.62 1055.71 C 956.111 1054.92 955.941 1055.11 954.098 1055.2 L 950.499 1054.64 C 950.043 1054.03 949.582 1053.43 949.116 1052.84 C 944.641 1052.36 939.927 1051.93 935.443 1051.15 C 909.543 1046.67 885.119 1022.2 891.725 994.423 C 895.915 976.808 907.466 967.769 922.074 959.114 z" fill="rgb(242,180,23)" transform="translate(0,0)"></path>
<path d="M 949.116 1052.84 C 954.141 1053.29 955.951 1054.05 961.208 1053.83 C 962.954 1054.65 964.624 1055.5 966.347 1056.36 L 957.62 1055.71 C 956.111 1054.92 955.941 1055.11 954.098 1055.2 L 950.499 1054.64 C 950.043 1054.03 949.582 1053.43 949.116 1052.84 z" fill="rgb(35,28,25)" transform="translate(0,0)"></path>
<path d="M 961.208 1053.83 C 964.164 1054.01 965.54 1053.84 968.276 1054.84 C 969.865 1056.22 969.745 1056.04 971.822 1057.09 C 969.513 1056.91 968.541 1056.91 966.347 1056.36 C 964.624 1055.5 962.954 1054.65 961.208 1053.83 z" fill="rgb(82,57,9)" transform="translate(0,0)"></path>
<path d="M 1079.85 1424.28 C 1123.23 1422.99 1191.3 1440.44 1228.5 1461.43 C 1257.89 1480.13 1276.67 1500.46 1286.7 1534.34 C 1276.77 1534.29 1233.39 1533.54 1225.97 1534.94 C 1208.98 1496.79 1190.73 1473.71 1155.23 1451.41 C 1154.59 1450.82 1154.73 1450.88 1153.94 1450.59 L 1148.16 1447.41 C 1147.53 1446.87 1147.63 1446.87 1146.89 1446.64 C 1123.73 1434.96 1105.5 1429.13 1079.85 1424.28 z" fill="rgb(242,180,23)" transform="translate(0,0)"></path>
<path d="M 1117.64 957.054 C 1142.64 963.447 1162.52 987.031 1155.63 1013.87 C 1146.72 1048.6 1112.96 1053.95 1083 1058.99 C 1039.61 1066.29 1000.4 1063.36 957.147 1058.68 C 952.878 1058.1 948.464 1057.26 944.635 1055.31 C 946.95 1054.09 947.501 1054.59 950.499 1054.64 L 954.098 1055.2 C 955.941 1055.11 956.111 1054.92 957.62 1055.71 L 966.347 1056.36 C 968.541 1056.91 969.513 1056.91 971.822 1057.09 C 984.957 1057.62 1001.22 1058.8 1014.25 1057.67 C 1015.3 1057.71 1015.15 1057.72 1016.15 1057.27 L 1025.9 1056.76 C 1026.78 1056.71 1026.93 1056.82 1027.66 1056.41 C 1048.81 1053.82 1067.41 1050.85 1086.71 1041.43 C 1087.35 1040.88 1087.22 1040.91 1087.99 1040.72 C 1098.35 1034.08 1111.82 1024.6 1113.69 1011.84 C 1117.77 983.932 1090.36 972.492 1070.31 965.82 C 1086.42 963.843 1101.81 960.535 1117.64 957.054 z" fill="rgb(242,180,23)" transform="translate(0,0)"></path>
<path d="M 954.098 1055.2 C 955.941 1055.11 956.111 1054.92 957.62 1055.71 C 955.695 1055.93 955.767 1056.1 954.098 1055.2 z" fill="rgb(82,57,9)" transform="translate(0,0)"></path>
<path d="M 1311.91 820.718 C 1327.63 815.587 1339.55 811.65 1354.54 804.28 C 1339.64 825.896 1284.41 892.72 1258.64 897.899 C 1249.73 899.689 1240.4 900.581 1231.38 901.887 L 1230.76 901.212 L 1231.84 900.32 C 1232.66 899.665 1233.4 899.053 1234.26 898.445 C 1266.01 871.394 1286.09 854.152 1311.91 820.718 z" fill="rgb(242,180,23)" transform="translate(0,0)"></path>
<path d="M 1230.89 898.522 L 1232.48 897.286 L 1234.26 898.445 C 1233.4 899.053 1232.66 899.665 1231.84 900.32 L 1230.89 898.522 z" fill="rgb(149,103,17)" transform="translate(0,0)"></path>
<path d="M 1014.25 1057.67 C 1015 1057.17 1015.05 1057.3 1016.15 1057.27 C 1015.15 1057.72 1015.3 1057.71 1014.25 1057.67 z" fill="rgb(149,103,17)" transform="translate(0,0)"></path>
<path d="M 954.072 1085.13 C 965.874 1086.98 972.812 1087.78 984.466 1091.62 C 1042.8 1110.81 1065.85 1165.66 1071.06 1223.05 C 1077.54 1293.21 1055.72 1363.05 1010.46 1417.05 C 1009.03 1418.36 1007.95 1419.48 1005.86 1419.62 C 975.271 1421.62 944.34 1422.76 914.167 1428.72 C 925.793 1395.76 937.979 1364.08 947.048 1330.25 C 967.808 1252.81 968.522 1163.69 954.072 1085.13 z" fill="rgb(242,180,23)" transform="translate(0,0)"></path>
<path d="M 949.149 1058.99 C 998.209 1067.19 1051.2 1068.75 1100.06 1058.08 C 1067.42 1205.67 1079.17 1286.41 1130.43 1427.43 C 1091.24 1420.35 1050.12 1419.85 1010.37 1420.03 C 1048.62 1374.23 1067.15 1331.36 1072.33 1271.67 C 1072.28 1270.66 1072.26 1270.8 1072.75 1269.89 C 1073.39 1257.14 1074.06 1245.55 1073.73 1232.77 C 1072.51 1230.67 1072.72 1229.75 1073.22 1227.38 C 1072.08 1190.63 1056.78 1140.43 1028.9 1115.46 C 1002.98 1092.24 984.716 1088.84 953.209 1082.78 C 952.044 1074.84 950.104 1066.74 949.149 1058.99 z" fill="rgb(242,180,23)" transform="translate(0,0)"></path>
<path d="M 1073.22 1227.38 C 1074.4 1229.35 1074.07 1230.42 1073.73 1232.77 C 1072.51 1230.67 1072.72 1229.75 1073.22 1227.38 z" fill="rgb(149,103,17)" transform="translate(0,0)"></path>
<path d="M 1646.78 1864.55 C 1647.46 1864.55 1647.54 1864.66 1648.24 1864.91 C 1662.2 1874.63 1705.19 1891.39 1722.57 1886.83 L 1722.8 1888.09 C 1722.93 1887.98 1700.05 1922.83 1695.02 1928.79 C 1693.62 1930.86 1694.01 1929.81 1693.61 1931.84 C 1662.97 1940.44 1623.84 1938.03 1593.38 1929.8 L 1593.57 1926.87 L 1572 1889.12 C 1572.2 1888.02 1572.16 1887.49 1573.19 1887.06 L 1573.93 1886.72 C 1590.24 1882.5 1632.73 1870.72 1646.78 1864.55 z" fill="rgb(0,0,0)" transform="translate(0,0)"></path>
<path d="M 1775.35 1846.13 C 1775.95 1847.08 1776.41 1847.71 1777.1 1848.65 C 1782.16 1847.24 1806.56 1843.94 1809.82 1847.35 L 1811.18 1848.16 C 1786.2 1888.03 1739.05 1920.26 1693.61 1931.84 C 1694.01 1929.81 1693.62 1930.86 1695.02 1928.79 C 1700.05 1922.83 1722.93 1887.98 1722.8 1888.09 L 1722.57 1886.83 C 1726.08 1883.71 1732.3 1881.16 1736.3 1878.28 C 1747.81 1869.98 1765.81 1858.26 1774.53 1847.15 L 1775.35 1846.13 z" fill="rgb(189,177,170)" transform="translate(0,0)"></path>
<path d="M 1809.82 1847.35 L 1811.18 1848.16 C 1786.2 1888.03 1739.05 1920.26 1693.61 1931.84 C 1694.01 1929.81 1693.62 1930.86 1695.02 1928.79 C 1696.01 1928.75 1697.97 1928.59 1698.88 1928.35 C 1743.43 1916.47 1784.24 1884.03 1809.82 1847.35 z" fill="rgb(59,56,55)" transform="translate(0,0)"></path>
<path d="M 1775.35 1846.13 C 1775.95 1847.08 1776.41 1847.71 1777.1 1848.65 C 1768.58 1858.52 1734.91 1883.71 1722.8 1888.09 L 1722.57 1886.83 C 1726.08 1883.71 1732.3 1881.16 1736.3 1878.28 C 1747.81 1869.98 1765.81 1858.26 1774.53 1847.15 L 1775.35 1846.13 z" fill="rgb(35,28,25)" transform="translate(0,0)"></path>
<path d="M 1519.5 1846.97 C 1532.53 1859.08 1557.44 1880.42 1573.93 1886.72 L 1573.19 1887.06 C 1572.16 1887.49 1572.2 1888.02 1572 1889.12 L 1593.57 1926.87 L 1593.38 1929.8 C 1548.43 1913.92 1510.4 1891.12 1483.54 1850.27 L 1485.28 1850.17 C 1494.45 1848.96 1508.3 1848.49 1517.77 1848.02 L 1519.5 1846.97 z" fill="rgb(189,177,170)" transform="translate(0,0)"></path>
<path d="M 1483.54 1850.27 L 1485.28 1850.17 C 1509.77 1880.91 1532 1902.39 1568.93 1918.48 C 1574.51 1920.91 1587.54 1925.95 1593.57 1926.87 L 1593.38 1929.8 C 1548.43 1913.92 1510.4 1891.12 1483.54 1850.27 z" fill="rgb(59,56,55)" transform="translate(0,0)"></path>
<path d="M 1519.5 1846.97 C 1532.53 1859.08 1557.44 1880.42 1573.93 1886.72 L 1573.19 1887.06 C 1572.16 1887.49 1572.2 1888.02 1572 1889.12 C 1555.6 1880.06 1530.3 1861.96 1517.77 1848.02 L 1519.5 1846.97 z" fill="rgb(35,28,25)" transform="translate(0,0)"></path>
<metadata><recraft-signature>{"signed_by": "recraft", "signature_b64": "I92jZijo5i46bGOqlmc1lR72Qt8bgfZvGzm4qcwobd6VF4a5fUUK6t/NadmmjWnCmOeDjKNe7DYPGtkXc9jhAw==", "signing_algo": "Ed25519", "generation_timestamp": 1779023278, "identifier": "46bb9ed7-6463-4b73-9f8d-f7dc655240a7"}</recraft-signature></metadata></svg>