<svg xmlns="http://www.w3.org/2000/svg" height="1280" preserveAspectRatio="none" style="display: block;" version="1.1" viewBox="0 0 1331 2048" width="832">
<path d="M 0 0 L 660.191 0 L 695.747 0 L 1331 0 L 1331 2048 L 0 2048 L 0 0 z" fill="rgb(252,252,251)" transform="translate(0,0)"></path>
<path d="M 660.191 0 L 695.747 0 C 701.304 0.806061 706.875 1.50778 712.459 2.10479 C 791.25 11.5594 863.067 51.9058 912.129 114.279 C 916.212 119.474 920.107 125.057 923.892 130.484 C 981.539 140.309 1062.94 162.087 1097.96 211.848 C 1156.67 295.289 1022.09 354.043 965.954 371.851 C 961.335 370.744 964.517 381.819 963.093 385.646 C 955.877 483.509 913.134 573.41 827.842 626.848 C 847.577 659.619 868.509 691.289 888.689 723.67 L 1034.43 957.742 C 1050.82 984.485 1067.41 1011.1 1084.2 1037.58 C 1094.41 1053.68 1105.14 1069.65 1114.61 1086.17 C 1125.84 1105.76 1105.58 1113.43 1092.84 1121.65 C 1095.29 1126.04 1097.27 1129.38 1099.02 1134.09 C 1142.03 1147.43 1185.17 1156.42 1226.67 1174.58 C 1236.6 1178.93 1262.41 1184.87 1267.34 1194.22 C 1269.13 1197.59 1269.41 1201.56 1268.12 1205.16 C 1262.11 1222.04 1230.66 1207.44 1217.88 1203.94 L 1217.09 1205.88 C 1228.5 1210.28 1270.05 1222.97 1274.88 1232.87 C 1276.63 1236.47 1276.31 1241.97 1274.81 1245.66 C 1273.52 1248.85 1271.22 1251 1267.98 1252.13 C 1255.26 1256.58 1230.75 1243.62 1217.89 1239.81 L 1217.06 1241.85 C 1230.46 1247.45 1300.57 1264.29 1271.29 1286.48 C 1263.34 1288.11 1264.56 1285.27 1259.08 1289.21 C 1271.4 1315 1271.35 1321.95 1277.29 1350.12 C 1296.38 1351.49 1320.48 1344.91 1322.71 1369.63 C 1324.05 1384.45 1323.56 1399.07 1323.72 1413.94 C 1323.24 1446.86 1327.85 1461.48 1289.09 1458.83 C 1290.53 1470.79 1286.2 1484.06 1277.92 1492.83 C 1269.77 1501.33 1258.55 1506.22 1246.77 1506.41 C 1219.5 1506.87 1204.08 1484.7 1203.9 1459.16 C 1190.47 1459.37 1177.03 1459.31 1163.6 1458.99 C 1146.62 1459.98 1127.76 1459.26 1110.47 1459.72 C 1109.74 1471.92 1108.02 1481.65 1099.86 1491.42 C 1092.67 1500.02 1082.31 1505.34 1071.13 1506.16 C 1041.96 1508.16 1025.75 1486.73 1024.54 1459.51 C 1011.83 1459.37 985.339 1462.31 975.646 1453.51 C 969.935 1448.32 969.274 1437.21 969.195 1429.81 C 968.95 1406.69 968.134 1382.68 986.44 1365.35 C 1003.38 1348.39 1022.24 1349.89 1044.12 1350.09 C 1040.88 1305.83 1031.79 1259.93 1026.98 1215.69 C 1025.09 1198.32 1017.33 1187.94 1010.2 1172.38 C 997.471 1179.5 978.684 1198.2 966.059 1178.55 C 955.587 1162.26 946.152 1144.92 936.469 1128.09 L 878.452 1027.46 C 864.78 1062.18 850.774 1096.78 836.438 1131.23 C 834.844 1135.09 819.514 1172.14 819.643 1172.53 C 824.6 1187.48 819.786 1193.03 815.088 1211.5 L 797.698 1282.21 C 843.585 1290.66 927.435 1296.82 916.484 1364.34 C 913.926 1379.51 915.982 1408.77 902.451 1418.34 C 878.569 1435.22 789.715 1423.81 760.075 1418.22 C 729.457 1412.45 702.642 1402.19 674.159 1390 C 673.497 1394.52 673.363 1401.29 669.327 1404.11 C 662.278 1409.05 609.465 1398.6 597.731 1397.3 C 598.387 1408.42 598.533 1417.78 586.267 1422.48 L 584.932 1420.63 C 594.03 1417.71 596.092 1410.33 595.915 1401.82 C 595.101 1400.78 595.203 1400.84 595.248 1399.45 C 592.732 1388.73 590.537 1373.67 588.565 1362.54 C 564.136 1368.74 533.392 1373.08 510.917 1379.53 L 510.45 1377.34 L 509.609 1377.66 C 485.357 1381.55 455.757 1388.4 431.342 1393.51 C 426.89 1375.39 424.799 1355.86 420.504 1338.48 C 415.88 1339.49 399.397 1342.26 397.165 1344.25 L 395.241 1345.86 C 391.759 1327.21 387.844 1302.71 383.411 1284.8 C 358.266 1318.08 332.837 1351.15 307.126 1384.01 C 309.108 1387.94 310.209 1390 311.543 1394.22 C 308.527 1405.35 301.07 1421.93 296.584 1433 C 287.609 1455.58 278.439 1478.08 269.075 1500.5 C 313.185 1522.68 377.124 1543.08 373.613 1603 C 371.799 1614.9 355.566 1657.68 348.533 1667.23 C 345.216 1671.73 341.586 1673.82 336.02 1674.58 C 300.912 1679.39 198.831 1639.47 166.073 1621.82 C 147.657 1611.89 131.808 1600.31 115.232 1587.65 C 109.335 1601.48 106.129 1600.14 93.2453 1595.9 C 8.95912 1568.17 19.2222 1570.15 48.3853 1498.59 C 61.6865 1462 79.8917 1420.67 94.5048 1383.59 L 111.658 1339.1 C 114.002 1332.98 117.873 1322.27 120.461 1316.78 C 123.421 1310.49 126.942 1316.22 133.358 1304.97 C 159.891 1258.43 188.016 1212.22 214.329 1165.59 C 73.9376 1142.13 0.830928 1015.66 62.5919 884.227 C 69.6516 869.203 78.2317 857.417 87.831 844.034 C 82.9784 807.775 109.826 783.012 132.143 758.337 C 209.271 673.063 316.08 593.109 424.663 554.225 C 407.087 527.117 392.876 494.209 386.602 462.569 C 370.21 459.449 357.506 454.493 344.498 443.593 C 327.899 429.713 317.568 409.75 315.823 388.183 C 313.21 355.281 329.184 325.15 358.326 309.539 C 361.717 307.723 372.016 303.93 373.45 301.872 L 374.417 301.068 L 375.444 308.348 C 403.578 289.053 421.076 279.186 451.345 263.912 C 448.459 255.185 451.492 231.026 452.528 221.453 C 458.845 163.11 490.331 104.295 530.364 61.9411 C 541.651 49.9999 558.991 38.7683 570.88 27.4525 C 571.347 25.7998 571.739 24.4076 572.059 23.2758 C 598.988 13.3773 616.081 8.3124 644.476 4.47262 L 642.206 2.19013 C 648.214 1.57382 654.21 0.843645 660.191 -5.68434e-14 z" fill="rgb(4,4,5)" transform="translate(0,0)"></path>
<path d="M 644.476 4.47262 C 667.854 2.37259 687.591 2.16075 710.959 4.39892 C 793.586 15.4998 863.089 53.6068 914.008 120.402 C 916.456 123.601 918.748 126.917 920.876 130.337 C 809.531 116.803 683.342 141.402 593.421 211.086 C 588.844 214.633 584.507 218.216 580.422 222.335 C 535.886 230.975 492.551 244.934 451.345 263.912 C 448.459 255.185 451.492 231.026 452.528 221.453 C 458.845 163.11 490.331 104.295 530.364 61.9411 C 541.651 49.9999 558.991 38.7683 570.88 27.4525 C 571.347 25.7998 571.739 24.4076 572.059 23.2758 C 598.988 13.3773 616.081 8.3124 644.476 4.47262 z" fill="rgb(251,204,25)" transform="translate(0,0)"></path>
<path d="M 1048.04 1352.46 C 1048.98 1350.29 1051.58 1341.29 1051.98 1339.36 C 1064.21 1279.63 1083.26 1253.29 1148.56 1258.08 C 1165.42 1259.31 1189.03 1256.57 1208.83 1259.95 C 1217.97 1261.58 1226.75 1264.8 1234.78 1269.46 C 1256.02 1281.78 1263.65 1301.17 1269.37 1323.44 C 1269.42 1324.27 1269.4 1324.28 1269.67 1325.08 L 1271.36 1332.44 C 1271.42 1333.36 1271.38 1333.22 1271.71 1334.07 L 1273.38 1341.45 C 1273.42 1342.4 1273.37 1342.21 1273.79 1343.06 C 1274.74 1347.15 1274.61 1349.78 1277.14 1352.47 C 1292.67 1358.18 1316.67 1343.4 1320.99 1368.98 C 1321.11 1394 1321.09 1419.03 1320.92 1444.06 C 1313.95 1459.79 1303.95 1457.21 1288.97 1457.21 C 1285.01 1438.2 1273.34 1423.33 1253.52 1419.48 C 1242.87 1417.48 1231.87 1419.86 1223 1426.09 C 1211.54 1434.03 1206.82 1444.57 1204.37 1457.79 C 1194.01 1459.29 1176.23 1457.32 1163.6 1458.99 C 1146.62 1459.98 1127.76 1459.26 1110.47 1459.72 L 1110.23 1457.82 C 1106.65 1446.91 1106.38 1440.14 1097.66 1431.36 C 1089.69 1423.42 1078.87 1419 1067.61 1419.09 C 1047.95 1419.33 1024.82 1436.99 1025.16 1457.54 C 1008.57 1454.94 974.776 1465.04 972.598 1441.05 C 968.886 1400.16 971.092 1362.6 1018.55 1352.64 C 1024.41 1353.18 1042.38 1353.26 1048.04 1352.46 z" fill="rgb(5,69,161)" transform="translate(0,0)"></path>
<path d="M 1110.23 1457.82 C 1119.51 1456.74 1197.15 1456.23 1204.37 1457.79 C 1194.01 1459.29 1176.23 1457.32 1163.6 1458.99 C 1146.62 1459.98 1127.76 1459.26 1110.47 1459.72 L 1110.23 1457.82 z" fill="rgb(4,33,78)" transform="translate(0,0)"></path>
<path d="M 1177.72 1311.86 C 1179.99 1294.59 1195.37 1282.11 1212.74 1283.43 C 1230.11 1284.76 1243.41 1299.43 1243.04 1316.85 C 1242.66 1334.26 1228.74 1348.35 1211.32 1348.92 C 1193.91 1349.5 1179.09 1336.36 1177.57 1319.01 C 1176.82 1316.04 1177.19 1314.92 1177.72 1311.86 z" fill="rgb(3,15,36)" transform="translate(0,0)"></path>
<path d="M 1177.57 1319.01 C 1176.82 1316.04 1177.19 1314.92 1177.72 1311.86 C 1177.41 1314.23 1177.36 1316.63 1177.57 1319.01 z" fill="rgb(4,33,78)" transform="translate(0,0)"></path>
<path d="M 1206.96 1285.94 C 1223.62 1284.19 1238.56 1296.26 1240.34 1312.92 C 1242.13 1329.58 1230.1 1344.55 1213.44 1346.37 C 1196.73 1348.2 1181.71 1336.12 1179.92 1319.41 C 1178.12 1302.69 1190.24 1287.7 1206.96 1285.94 z" fill="rgb(252,252,251)" transform="translate(0,0)"></path>
<path d="M 1087.81 1309.67 C 1092.21 1291.22 1107.3 1279.19 1126.54 1284.02 C 1135.25 1286.27 1142.72 1291.88 1147.3 1299.62 C 1156.56 1315.45 1150.35 1336.55 1134.24 1345.54 C 1114.08 1356.78 1091.79 1343.95 1087.7 1322.02 C 1086.64 1316.46 1086.69 1315.18 1087.81 1309.67 z" fill="rgb(4,4,5)" transform="translate(0,0)"></path>
<path d="M 1087.7 1322.02 C 1086.64 1316.46 1086.69 1315.18 1087.81 1309.67 C 1088.09 1314.57 1088.13 1317.1 1087.7 1322.02 z" fill="rgb(4,33,78)" transform="translate(0,0)"></path>
<path d="M 1111.97 1286.98 C 1128.2 1282.96 1144.6 1292.88 1148.58 1309.12 C 1152.57 1325.35 1142.62 1341.74 1126.38 1345.7 C 1110.17 1349.64 1093.84 1339.72 1089.86 1323.53 C 1085.89 1307.33 1095.78 1290.98 1111.97 1286.98 z" fill="rgb(252,252,251)" transform="translate(0,0)"></path>
<path d="M 1219.86 1375.29 L 1282.49 1375.19 C 1282.37 1384.52 1282.41 1393.85 1282.61 1403.18 C 1261.71 1403.13 1240.8 1403.19 1219.9 1403.36 C 1219.89 1394.14 1219.68 1384.46 1219.86 1375.29 z" fill="rgb(4,4,5)" transform="translate(0,0)"></path>
<path d="M 999.433 1379.77 C 1011.26 1379.16 1021.47 1388 1022.54 1399.8 C 1023.62 1411.6 1015.19 1422.14 1003.45 1423.69 C 995.422 1424.75 987.461 1421.33 982.705 1414.78 C 977.949 1408.23 977.161 1399.6 980.651 1392.29 C 984.141 1384.99 991.349 1380.18 999.433 1379.77 z" fill="rgb(4,4,5)" transform="translate(0,0)"></path>
<path d="M 995.586 1382.62 C 1002.51 1380.81 1009.87 1382.91 1014.8 1388.09 C 1019.74 1393.28 1021.46 1400.73 1019.32 1407.56 C 1017.17 1414.39 1011.48 1419.51 1004.47 1420.93 C 994.025 1423.05 983.794 1416.47 981.389 1406.09 C 978.983 1395.72 985.277 1385.31 995.586 1382.62 z" fill="rgb(252,252,251)" transform="translate(0,0)"></path>
<path d="M 420.504 1338.48 C 469.5 1329.43 529.24 1318.19 577.529 1306.57 C 580.421 1321.54 583.159 1336.53 585.742 1351.55 L 587.925 1360.69 C 562.525 1367.03 536.153 1372.12 510.45 1377.34 L 509.609 1377.66 C 485.357 1381.55 455.757 1388.4 431.342 1393.51 C 426.89 1375.39 424.799 1355.86 420.504 1338.48 z" fill="rgb(252,252,251)" transform="translate(0,0)"></path>
<path d="M 1320.99 1368.98 C 1322.88 1378.84 1323.72 1435.96 1320.92 1444.06 C 1321.09 1419.03 1321.11 1394 1320.99 1368.98 z" fill="rgb(4,33,78)" transform="translate(0,0)"></path>
<path d="M 963.093 385.646 C 962.85 383.437 962.113 349.337 961.789 349.829 L 961.899 349.941 L 962.115 349.917 L 961.966 350.345 L 962.16 349.964 L 961.969 350.953 L 962.782 351.489 C 964.282 356.944 964.519 367.766 965.729 371.222 L 965.954 371.851 C 961.335 370.744 964.517 381.819 963.093 385.646 z" fill="rgb(252,252,251)" transform="translate(0,0)"></path>
<path d="M 1193.31 1232.49 C 1201.66 1234.56 1209.74 1237.14 1217.89 1239.81 L 1217.06 1241.85 C 1212.13 1240.36 1200.56 1236.17 1196.32 1234 L 1193.31 1232.49 z" fill="rgb(204,199,196)" transform="translate(0,0)"></path>
<path d="M 1018.55 1352.64 C 1023.8 1351.38 1042.36 1351.79 1048.04 1352.46 C 1042.38 1353.26 1024.41 1353.18 1018.55 1352.64 z" fill="rgb(4,33,78)" transform="translate(0,0)"></path>
<path d="M 1206.88 1200.42 C 1210.64 1201.72 1214.1 1202.73 1217.88 1203.94 L 1217.09 1205.88 C 1213.24 1204.63 1209.81 1203.29 1205.88 1202.09 L 1206.88 1200.42 z" fill="rgb(204,199,196)" transform="translate(0,0)"></path>
<path d="M 1205.88 1202.09 C 1196.08 1198.8 1200.76 1197.96 1206.88 1200.42 L 1205.88 1202.09 z" fill="rgb(114,107,102)" transform="translate(0,0)"></path>
<path d="M 595.248 1399.45 C 596.089 1400.39 595.918 1400.36 595.915 1401.82 C 595.101 1400.78 595.203 1400.84 595.248 1399.45 z" fill="rgb(3,15,36)" transform="translate(0,0)"></path>
<path d="M 1271.36 1332.44 C 1271.89 1333.07 1271.75 1333.16 1271.71 1334.07 C 1271.38 1333.22 1271.42 1333.36 1271.36 1332.44 z" fill="rgb(4,33,78)" transform="translate(0,0)"></path>
<path d="M 1273.38 1341.45 C 1273.92 1342.07 1273.79 1342.15 1273.79 1343.06 C 1273.37 1342.21 1273.42 1342.4 1273.38 1341.45 z" fill="rgb(4,33,78)" transform="translate(0,0)"></path>
<path d="M 1269.37 1323.44 C 1269.87 1324.06 1269.74 1324.18 1269.67 1325.08 C 1269.4 1324.28 1269.42 1324.27 1269.37 1323.44 z" fill="rgb(4,33,78)" transform="translate(0,0)"></path>
<path d="M 576.357 226.031 C 684.939 203.154 801.144 212.608 896.828 272.334 C 918.633 285.944 952.985 316.043 957.971 342.243 C 959.066 354.031 960.544 367.483 960.5 379.188 C 960.13 447.262 936.065 513.082 892.438 565.34 C 852.756 613.2 791.348 654.436 730.312 668.056 C 589.747 709.319 426.62 615.601 391.221 474.533 C 390.005 469.689 389.905 465.591 388.384 460.546 L 386.227 459.605 C 385.624 459.53 385.021 459.449 384.419 459.363 C 364.293 456.47 345.24 444.331 333.184 428.095 C 320.864 411.36 315.709 390.413 318.855 369.872 C 322.787 343.421 337.131 324.883 359.252 311.351 C 363.325 308.859 366.869 306.095 371.699 306.839 L 373.762 311.485 C 376.186 312.11 385.6 304.506 388.325 302.639 C 398.702 295.56 409.379 288.93 420.325 282.766 C 458.56 261.153 531.12 232.185 576.357 226.031 z" fill="rgb(244,157,116)" transform="translate(0,0)"></path>
<path d="M 386.227 459.605 C 390.9 453.856 396.35 451.822 403.148 449.463 C 452.406 543.885 537.161 614.867 638.763 646.788 C 657.215 652.573 675.941 657.448 694.871 661.397 C 704.578 663.336 721.664 665.728 730.312 668.056 C 589.747 709.319 426.62 615.601 391.221 474.533 C 390.005 469.689 389.905 465.591 388.384 460.546 L 386.227 459.605 z" fill="rgb(237,126,83)" transform="translate(0,0)"></path>
<path d="M 576.357 226.031 C 684.939 203.154 801.144 212.608 896.828 272.334 C 918.633 285.944 952.985 316.043 957.971 342.243 C 951.011 337.208 928.43 327.457 919.139 323.06 C 843.359 287.2 764.514 261.211 682.581 243.748 C 671.948 241.482 578.496 227.197 576.357 226.031 z" fill="rgb(237,126,83)" transform="translate(0,0)"></path>
<path d="M 570.986 463.086 L 596.122 463.056 C 596.18 475.196 597.734 485.934 599.547 497.816 C 607.972 553.038 658.684 579.089 710.731 569.08 C 740.963 563.266 761.673 546.649 778.635 521.528 C 784.56 526.173 791.358 532.731 797.024 537.935 L 792.5 544.684 C 787.533 551.976 782.733 557.431 776.375 563.471 C 752.345 586.591 719.983 599.005 686.655 597.886 C 631.317 596.421 586.381 560.898 574.089 506.458 C 570.648 491.22 570.505 478.617 570.986 463.086 z" fill="rgb(4,4,5)" transform="translate(0,0)"></path>
<path d="M 619.675 348.22 C 645.85 351.015 652.617 382.796 639.267 402.212 C 634.002 409.869 628.1 411.463 619.358 412.864 C 615.542 412.289 609.761 411.627 606.697 409.362 C 582.463 391.437 589.768 354.524 619.675 348.22 z" fill="rgb(4,4,5)" transform="translate(0,0)"></path>
<path d="M 839.588 413.214 C 874.925 413.893 875.074 467.04 843.144 476.492 C 814.071 475.255 808.678 448.77 820.848 425.804 C 824.707 418.521 831.691 415.028 839.588 413.214 z" fill="rgb(4,4,5)" transform="translate(0,0)"></path>
<path d="M 47.6217 932.428 C 56.7688 897.382 67.21 876.822 88.1586 847.909 C 98.3309 876.283 106.648 888.346 126.258 911.169 C 178.99 966.276 256.13 993.727 331.137 998.108 C 333.681 1016.61 338.256 1037.42 341.764 1055.99 L 357.321 1140.16 C 366.084 1186.09 373.932 1235 383.321 1280.29 C 360.701 1314.68 327.662 1349.98 304.753 1382.92 L 210.936 1344.35 C 197.858 1338.97 181.9 1331.63 169.063 1326.81 C 156.948 1321.6 144.758 1316.56 132.499 1311.7 C 134.847 1306.96 138.141 1301.43 140.883 1296.88 C 167.353 1252.88 191.777 1206.67 219.005 1163.18 C 170.712 1158.61 125.703 1136.72 92.279 1101.56 C 54.3082 1061.23 41.5941 1016.78 43.2448 962.642 C 42.8387 960.698 42.4862 960.009 43.7424 958.421 L 44.2924 951.61 C 44.1808 949.47 44.1545 949.578 44.8797 947.575 L 45.1884 945.513 C 45.087 943.258 44.8607 943.324 45.8643 941.541 L 46.2026 939.647 C 46.3085 938.175 46.1736 937.798 46.8339 936.572 L 47.1528 934.516 C 47.2166 933.395 47.0718 933.14 47.6217 932.428 z" fill="rgb(71,181,136)" transform="translate(0,0)"></path>
<path d="M 47.6217 932.428 C 56.7688 897.382 67.21 876.822 88.1586 847.909 C 98.3309 876.283 106.648 888.346 126.258 911.169 C 103.049 941.999 93.3038 980.91 99.2422 1019.04 C 111.032 1099.32 188.818 1147.79 261.849 1165.6 C 249.919 1182.67 241.73 1199.58 231.399 1217.48 L 169.063 1326.81 C 156.948 1321.6 144.758 1316.56 132.499 1311.7 C 134.847 1306.96 138.141 1301.43 140.883 1296.88 C 167.353 1252.88 191.777 1206.67 219.005 1163.18 C 170.712 1158.61 125.703 1136.72 92.279 1101.56 C 54.3082 1061.23 41.5941 1016.78 43.2448 962.642 C 42.8387 960.698 42.4862 960.009 43.7424 958.421 L 44.2924 951.61 C 44.1808 949.47 44.1545 949.578 44.8797 947.575 L 45.1884 945.513 C 45.087 943.258 44.8607 943.324 45.8643 941.541 L 46.2026 939.647 C 46.3085 938.175 46.1736 937.798 46.8339 936.572 L 47.1528 934.516 C 47.2166 933.395 47.0718 933.14 47.6217 932.428 z" fill="rgb(8,157,106)" transform="translate(0,0)"></path>
<path d="M 43.7424 958.421 C 43.9611 960.505 44.1681 960.86 43.2448 962.642 C 42.8387 960.698 42.4862 960.009 43.7424 958.421 z" fill="rgb(18,67,53)" transform="translate(0,0)"></path>
<path d="M 44.8797 947.575 C 44.939 949.186 45.1343 950.19 44.2924 951.61 C 44.1808 949.47 44.1545 949.578 44.8797 947.575 z" fill="rgb(18,67,53)" transform="translate(0,0)"></path>
<path d="M 45.8643 941.541 C 45.7931 943.535 45.8173 943.578 45.1884 945.513 C 45.087 943.258 44.8607 943.324 45.8643 941.541 z" fill="rgb(18,67,53)" transform="translate(0,0)"></path>
<path d="M 47.6217 932.428 C 47.5649 933.518 47.5271 933.44 47.1528 934.516 C 47.2166 933.395 47.0718 933.14 47.6217 932.428 z" fill="rgb(18,67,53)" transform="translate(0,0)"></path>
<path d="M 46.8339 936.572 C 46.7629 938.068 46.658 938.21 46.2026 939.647 C 46.3085 938.175 46.1736 937.798 46.8339 936.572 z" fill="rgb(18,67,53)" transform="translate(0,0)"></path>
<path d="M 526.658 963.892 C 566.452 947.787 590.144 937.514 627.075 914.837 C 639.745 907.213 651.969 898.871 663.686 889.85 C 687.812 871.084 689.336 866.94 718.742 857.632 C 791.833 834.497 882.734 855.447 892.843 944.381 C 897.64 986.586 879.587 1019.31 864.132 1057.26 L 830.641 1139 C 827.488 1146.61 819.208 1165.14 817.184 1172.2 C 807.835 1169.48 798.546 1167.66 789.05 1165.6 C 755.244 1158.26 721.287 1151.82 687.496 1144.41 C 675.673 1141.76 663.793 1139.37 651.864 1137.25 C 664.344 1107.08 675.014 1075.23 687.761 1045.53 C 640.602 1057.14 587.576 1066.41 541.789 1078.68 C 536.903 1040.74 531.224 1001.69 526.658 963.892 z" fill="rgb(71,181,136)" transform="translate(0,0)"></path>
<path d="M 687.761 1045.53 C 698.901 1043.42 710.021 1041.21 721.121 1038.9 C 710.299 1073.02 697 1110.52 687.496 1144.41 C 675.673 1141.76 663.793 1139.37 651.864 1137.25 C 664.344 1107.08 675.014 1075.23 687.761 1045.53 z" fill="rgb(8,157,106)" transform="translate(0,0)"></path>
<path d="M 589.151 217.558 C 860.458 1.16454 1353.28 233.495 968.154 368.617 C 963.181 331.217 943.203 302.898 913.225 280.732 C 827.041 217.009 699.141 199.377 595.59 219.601 C 591.563 220.505 590.345 220.795 586.053 220.826 L 586.089 219.754 L 589.151 217.558 z" fill="rgb(242,156,19)" transform="translate(0,0)"></path>
<path d="M 106.286 1360.01 C 117.097 1363.91 133.945 1371.75 145.344 1376.36 C 192.905 1395.7 244.795 1420.03 291.901 1437.86 C 283.591 1458.54 274.867 1481.7 265.975 1501.93 C 309.908 1523.8 377.115 1544.58 370.792 1605.01 C 369.918 1608.94 368.827 1614.39 366.966 1617.92 C 357.465 1635.96 327.879 1632.05 311.676 1629.86 C 257.84 1622.57 211.104 1600.81 163.281 1576.71 L 41.7821 1521.65 L 50.3542 1500.14 C 55.1159 1486.52 62.1383 1470.39 67.5963 1456.77 C 80.6693 1424.59 93.5661 1392.33 106.286 1360.01 z" fill="rgb(251,204,25)" transform="translate(0,0)"></path>
<path d="M 106.286 1360.01 C 117.097 1363.91 133.945 1371.75 145.344 1376.36 C 123.681 1418.74 98.562 1463.08 115.227 1510.59 C 122.008 1529.93 131.7 1545.96 146.772 1560.1 C 150.016 1563.15 161.062 1573.46 163.281 1576.71 L 41.7821 1521.65 L 50.3542 1500.14 C 55.1159 1486.52 62.1383 1470.39 67.5963 1456.77 C 80.6693 1424.59 93.5661 1392.33 106.286 1360.01 z" fill="rgb(242,156,19)" transform="translate(0,0)"></path>
<path d="M 631.78 1188.36 C 644.098 1190.72 656.322 1194.07 669.061 1196.45 C 698.658 1201.95 728.16 1207.95 757.555 1214.45 C 773.022 1217.75 793.785 1222.71 809.218 1224.89 C 804.738 1243.77 798.67 1265.7 794.81 1284.28 C 839.441 1292.41 926.007 1298.38 914.133 1364.7 C 902.546 1402.49 790.691 1385.88 762.027 1380.14 C 738.563 1375.44 714.117 1368.28 690.299 1363.52 C 673.017 1361.49 648.932 1355.81 631.654 1352.54 C 621.45 1350.61 600.819 1346.61 591.962 1343.95 C 593.969 1337.61 595.788 1329.88 597.371 1323.38 C 608.324 1278.39 621.419 1233.46 631.78 1188.36 z" fill="rgb(251,204,25)" transform="translate(0,0)"></path>
<path d="M 631.78 1188.36 C 644.098 1190.72 656.322 1194.07 669.061 1196.45 C 660.547 1230.2 642.558 1261.18 648.983 1297.49 C 653.064 1320.56 663.371 1341.38 682.081 1356.01 C 683.94 1357.47 688.999 1361.78 690.299 1363.52 C 673.017 1361.49 648.932 1355.81 631.654 1352.54 C 621.45 1350.61 600.819 1346.61 591.962 1343.95 C 593.969 1337.61 595.788 1329.88 597.371 1323.38 C 608.324 1278.39 621.419 1233.46 631.78 1188.36 z" fill="rgb(242,156,19)" transform="translate(0,0)"></path>
<path d="M 392.044 569.932 C 392.61 570.072 393.176 570.212 393.742 570.351 C 401.467 582.506 410.8 597.039 419.59 608.047 C 426.409 616.588 431.471 621.864 438.264 628.484 C 468.012 657.85 503.505 680.754 542.52 695.76 C 607.637 720.937 678.991 721.607 745.942 702.488 C 771.009 695.329 792.434 685.511 816.121 674.988 C 810.359 696.398 798.219 720.912 788.207 740.72 C 787.011 743.025 785.174 745.936 783.821 748.237 C 734.156 765.129 672.602 771.443 620.497 768.159 C 511.721 761.304 395.729 692.051 349.402 590.814 C 362.108 583.596 378.742 576.059 392.044 569.932 z" fill="rgb(252,252,251)" transform="translate(0,0)"></path>
<path d="M 1012.02 1171.23 C 1027.67 1159.29 1073.44 1133.23 1091.56 1122.98 C 1093.6 1127.05 1095.57 1131.92 1097.4 1136.16 C 1123.69 1144.94 1150.92 1150.88 1177.43 1158.95 C 1193.56 1163.86 1209.23 1170.8 1225.06 1176.64 C 1235.21 1180.4 1248.06 1183.24 1257.3 1188.74 C 1261.7 1191.37 1265.59 1195.62 1266.58 1200.77 C 1266.98 1202.87 1266.88 1205.28 1265.61 1207.08 C 1255.61 1221.19 1197.09 1189.71 1180.81 1192.47 L 1180.72 1194.11 C 1192.06 1202.22 1267.73 1223.94 1271.29 1232.58 C 1285.22 1266.35 1232.19 1241.45 1220.77 1237.94 C 1210.94 1234.91 1188.1 1226.91 1179.1 1225.51 L 1177.46 1227 C 1185.87 1237.84 1254.99 1254.97 1271.97 1266.28 C 1273.12 1266.81 1273.04 1266.71 1273.57 1267.9 L 1275.48 1273.35 C 1276.05 1274.14 1275.99 1274.28 1275.73 1275.2 C 1272.75 1282.44 1271.44 1284.02 1264.06 1286.82 C 1262.89 1287.35 1263 1287.31 1261.74 1287.02 C 1248.8 1282.51 1241.06 1265.55 1217.16 1258.96 C 1200.41 1254.34 1129.62 1254.43 1112.49 1257.02 C 1104.05 1258.24 1095.9 1261.03 1088.48 1265.24 C 1059.81 1281.71 1055.11 1318.26 1046.59 1349.26 C 1042.65 1317.03 1038.54 1284.81 1034.27 1252.63 C 1032.26 1237.18 1030.14 1216.85 1026.76 1201.9 C 1025.87 1197.97 1014.36 1175.9 1012.02 1171.23 z" fill="rgb(244,157,116)" transform="translate(0,0)"></path>
<path d="M 1261.74 1287.02 C 1262.53 1286.81 1263.23 1286.85 1264.06 1286.82 C 1262.89 1287.35 1263 1287.31 1261.74 1287.02 z" fill="rgb(102,66,50)" transform="translate(0,0)"></path>
<path d="M 1275.48 1273.35 C 1276.05 1274.14 1275.99 1274.28 1275.73 1275.2 C 1275.6 1274.56 1275.43 1273.99 1275.48 1273.35 z" fill="rgb(102,66,50)" transform="translate(0,0)"></path>
<path d="M 1271.97 1266.28 C 1273.12 1266.81 1273.04 1266.71 1273.57 1267.9 C 1272.42 1267.31 1272.48 1267.4 1271.97 1266.28 z" fill="rgb(102,66,50)" transform="translate(0,0)"></path>
<path d="M 346.976 591.669 C 394.242 693.4 510.705 763.998 621.299 770.291 C 622.818 770.014 622.716 769.915 623.957 770.7 L 637.47 771.126 C 645.004 770.786 652.55 770.778 660.086 771.104 C 672.203 770.96 684.145 769.753 696.208 768.689 C 697.279 767.902 697.222 768.025 698.651 768.231 L 705.216 767.788 C 706.141 767.037 706.49 767.116 707.668 767.358 C 729.115 764.923 761.512 757.837 782.597 750.788 C 773.73 766.44 753.064 798.788 741.341 811.516 C 682.168 821.186 651.513 823.574 590.663 818.726 C 589.232 818.916 589.287 819.031 588.169 818.287 L 582.109 817.767 C 581.202 817.811 581.061 817.94 580.439 817.426 C 557.984 815.105 526.896 805.276 505.345 798.087 C 505.154 797.337 504.959 796.589 504.758 795.841 C 488.672 736.113 439.676 687.379 373.676 705.462 C 353.951 685.585 317.506 644.459 309.958 614.541 C 309.71 613.557 312.814 612.083 313.793 611.48 C 314.534 610.961 314.354 611.083 315.15 610.71 L 346.976 591.669 z" fill="rgb(5,69,161)" transform="translate(0,0)"></path>
<path d="M 637.47 771.126 C 645.004 770.786 652.55 770.778 660.086 771.104 C 652.605 772.416 644.953 772.424 637.47 771.126 z" fill="rgb(4,33,78)" transform="translate(0,0)"></path>
<path d="M 621.299 770.291 C 622.818 770.014 622.716 769.915 623.957 770.7 C 622.411 770.83 622.412 771.013 621.299 770.291 z" fill="rgb(4,33,78)" transform="translate(0,0)"></path>
<path d="M 696.208 768.689 C 697.279 767.902 697.222 768.025 698.651 768.231 C 697.612 768.934 697.645 768.776 696.208 768.689 z" fill="rgb(4,33,78)" transform="translate(0,0)"></path>
<path d="M 705.216 767.788 C 706.141 767.037 706.49 767.116 707.668 767.358 C 706.598 767.952 706.604 767.816 705.216 767.788 z" fill="rgb(4,33,78)" transform="translate(0,0)"></path>
<path d="M 588.169 818.287 C 589.585 818.253 589.591 818.106 590.663 818.726 C 589.232 818.916 589.287 819.031 588.169 818.287 z" fill="rgb(4,33,78)" transform="translate(0,0)"></path>
<path d="M 580.439 817.426 C 581.364 817.37 581.26 817.345 582.109 817.767 C 581.202 817.811 581.061 817.94 580.439 817.426 z" fill="rgb(4,33,78)" transform="translate(0,0)"></path>
<path d="M 542.666 1080.76 L 683.494 1049.14 C 672.502 1078.11 661.309 1106.99 649.918 1135.8 C 645.973 1137.67 641.542 1139.9 640.374 1144.47 C 628.859 1189.55 618.283 1234.88 606.186 1279.84 C 600.55 1300.79 594.989 1321.98 590.083 1343.11 L 588.359 1348.26 C 586.486 1344.67 583.353 1325.24 582.397 1319.85 C 568.368 1240.7 552.507 1160.55 542.666 1080.76 z" fill="rgb(252,252,251)" transform="translate(0,0)"></path>
<path d="M 425.489 556.072 C 434.354 565.628 441.314 576.989 452.846 589.157 C 493.572 632.841 547.052 662.55 605.658 674.046 C 682.495 688.535 761.943 671.991 826.61 628.036 C 824.855 642.647 821.814 657.074 817.523 671.15 L 809.867 674.955 C 731.157 711.242 656.526 725.904 570.793 702.683 C 496.855 682.656 433.808 635.218 395.865 568.357 C 405.309 563.797 415.684 559.925 425.489 556.072 z" fill="rgb(5,69,161)" transform="translate(0,0)"></path>
<path d="M 151.424 740.855 C 152.385 742.339 158.218 757.105 159.219 759.501 C 163.639 770.31 168.744 780.826 174.503 790.985 C 210.123 853.453 260.066 897.753 321.118 933.917 C 324.418 954.766 327.163 975.61 330.595 996.726 L 306.649 986.348 C 217.456 940.572 154.064 872.912 116.862 779.708 C 128.127 766.533 139.65 753.579 151.424 740.855 z" fill="rgb(252,252,251)" transform="translate(0,0)"></path>
<path d="M 90.5919 822.419 C 96.0799 804.543 103.275 795.492 115.12 781.552 C 152.506 875.838 224.912 952.009 317.183 994.123 C 263.767 988.035 213.062 973.804 168.121 943.138 C 131.68 918.272 85.3437 872.088 90.2271 824.05 C 90.2356 823.182 90.1138 823.065 90.5919 822.419 z" fill="rgb(5,69,161)" transform="translate(0,0)"></path>
<path d="M 90.5919 822.419 C 90.5602 823.365 90.6047 823.186 90.2271 824.05 C 90.2356 823.182 90.1138 823.065 90.5919 822.419 z" fill="rgb(4,33,78)" transform="translate(0,0)"></path>
<path d="M 185.741 707.789 C 187.194 709.03 194.149 725.44 195.375 728.184 C 221.424 786.462 262.609 827.139 310.588 867.736 C 314.556 887.833 317.596 910.511 320.752 930.916 L 300.779 919.446 C 231.285 874.584 183.479 815.284 153.05 738.961 C 163.677 728.292 174.578 717.897 185.741 707.789 z" fill="rgb(5,69,161)" transform="translate(0,0)"></path>
<path d="M 348.557 890.697 C 401.387 880.739 459.152 869.806 511.568 858.244 C 513.005 876.811 515.25 895.308 518.297 913.68 L 413.774 934.576 C 397.257 937.923 374.12 943.225 357.807 945.611 C 348.665 948.173 335.683 949.85 326.046 951.764 C 323.41 934.638 321.25 913.116 318.016 896.645 C 328.362 894.895 338.305 892.917 348.557 890.697 z" fill="rgb(252,252,251)" transform="translate(0,0)"></path>
<path d="M 318.016 896.645 C 328.362 894.895 338.305 892.917 348.557 890.697 C 349.393 898.012 355.227 943.318 357.807 945.611 C 348.665 948.173 335.683 949.85 326.046 951.764 C 323.41 934.638 321.25 913.116 318.016 896.645 z" fill="rgb(204,199,196)" transform="translate(0,0)"></path>
<path d="M 505.622 800.201 C 567.454 822.667 624.196 826.996 689.706 821.038 C 706.316 819.527 722.322 816.44 738.833 814.46 C 731.555 824.399 722.226 834.059 713.553 842.774 C 703.255 853.174 692.569 863.182 681.517 872.777 C 618.63 879.395 574.222 876.076 513.49 860.397 C 512.057 842.119 508.468 818.459 505.622 800.201 z" fill="rgb(252,252,251)" transform="translate(0,0)"></path>
<path d="M 509.611 917.385 C 513.499 916.82 514.847 915.96 518.068 917.265 C 520.563 923.266 524.026 961.213 525.189 970.215 L 429.053 990.017 C 414.45 992.924 390.229 996.746 376.555 1000.37 C 376.018 1000.83 375.655 1000.74 374.958 1000.68 L 364.331 1002.68 C 354.708 1004.47 345.006 1006.75 335.347 1008.55 C 332.303 992.975 328.121 969.154 326.353 953.817 C 336.312 951.981 346.453 949.82 356.409 948.198 L 507.957 917.755 C 508.83 917.384 508.658 917.427 509.611 917.385 z" fill="rgb(5,69,161)" transform="translate(0,0)"></path>
<path d="M 326.353 953.817 C 336.312 951.981 346.453 949.82 356.409 948.198 C 358.003 963.21 364.084 989.714 364.331 1002.68 C 354.708 1004.47 345.006 1006.75 335.347 1008.55 C 332.303 992.975 328.121 969.154 326.353 953.817 z" fill="rgb(3,62,150)" transform="translate(0,0)"></path>
<path d="M 507.957 917.755 C 508.83 917.384 508.658 917.427 509.611 917.385 C 508.922 917.797 508.802 917.697 507.957 917.755 z" fill="rgb(4,33,78)" transform="translate(0,0)"></path>
<path d="M 374.958 1000.68 C 375.804 1000.38 375.665 1000.4 376.555 1000.37 C 376.018 1000.83 375.655 1000.74 374.958 1000.68 z" fill="rgb(4,33,78)" transform="translate(0,0)"></path>
<path d="M 365.436 1004.52 C 418.927 994.48 472.284 983.739 525.495 972.303 C 527.702 989.83 531.016 1011.31 532.439 1028.6 C 514.627 1031.52 496.116 1035.18 478.458 1039.05 C 444.251 1046.53 409.168 1051.93 375.086 1059.7 C 365.358 1061.37 355.685 1063.91 345.79 1065.6 C 342.921 1047.37 339.187 1028.79 335.831 1010.53 C 346.25 1008.59 355.12 1006.74 365.436 1004.52 z" fill="rgb(252,252,251)" transform="translate(0,0)"></path>
<path d="M 335.831 1010.53 C 346.25 1008.59 355.12 1006.74 365.436 1004.52 C 368.284 1021.37 371.807 1043.25 375.086 1059.7 C 365.358 1061.37 355.685 1063.91 345.79 1065.6 C 342.921 1047.37 339.187 1028.79 335.831 1010.53 z" fill="rgb(204,199,196)" transform="translate(0,0)"></path>
<path d="M 351.377 775.617 C 392.375 767.641 440.696 759.318 480.869 749.839 C 492.061 767.176 498.886 782.237 503.86 802.476 C 451.856 811.458 396.932 823.407 344.906 833.701 C 333.403 836.281 321.625 838.352 310.025 840.611 C 308.189 816.527 307.935 805.791 314.863 782.538 C 326.723 780.338 339.7 778.176 351.377 775.617 z" fill="rgb(252,252,251)" transform="translate(0,0)"></path>
<path d="M 314.863 782.538 C 326.723 780.338 339.7 778.176 351.377 775.617 C 350.128 785.649 341.622 825.343 344.906 833.701 C 333.403 836.281 321.625 838.352 310.025 840.611 C 308.189 816.527 307.935 805.791 314.863 782.538 z" fill="rgb(204,199,196)" transform="translate(0,0)"></path>
<path d="M 343.639 836.302 C 393.417 825.823 453.798 812.792 503.737 804.57 C 506.26 820.67 509.395 840.104 510.782 856.301 L 404.807 877.524 C 389.303 880.638 362.827 886.741 347.801 888.615 C 338.924 891.051 326.787 893.046 317.631 894.76 C 315.267 877.25 312.564 860.295 310.25 842.557 C 321.6 840.808 332.374 838.453 343.639 836.302 z" fill="rgb(5,69,161)" transform="translate(0,0)"></path>
<path d="M 310.25 842.557 C 321.6 840.808 332.374 838.453 343.639 836.302 C 342.876 840.237 346.485 886.175 347.801 888.615 C 338.924 891.051 326.787 893.046 317.631 894.76 C 315.267 877.25 312.564 860.295 310.25 842.557 z" fill="rgb(3,62,150)" transform="translate(0,0)"></path>
<path d="M 383.071 1116.65 C 435.541 1106.39 488.009 1094.99 540.593 1085.57 C 543.107 1100.81 547.217 1124.71 548.503 1139.6 L 395.768 1170.67 C 386.544 1173.04 375.992 1174.82 366.528 1176.8 C 363.858 1159.35 359.875 1139.12 356.539 1121.58 C 366.331 1120.13 373.521 1118.53 383.071 1116.65 z" fill="rgb(252,252,251)" transform="translate(0,0)"></path>
<path d="M 356.539 1121.58 C 366.331 1120.13 373.521 1118.53 383.071 1116.65 C 386.765 1133.76 389.851 1151.27 392.946 1168.5 C 393.284 1170.38 393.999 1170.2 395.768 1170.67 C 386.544 1173.04 375.992 1174.82 366.528 1176.8 C 363.858 1159.35 359.875 1139.12 356.539 1121.58 z" fill="rgb(204,199,196)" transform="translate(0,0)"></path>
<path d="M 403.528 1227.17 C 450.499 1217.85 512.005 1207.32 557.451 1195.71 C 561.089 1214.26 563.842 1232.91 567.637 1251.47 C 517.37 1258.77 462.321 1273.49 411.934 1282.71 C 403.388 1284.64 395.163 1286.43 386.491 1287.69 C 384.217 1269.73 380.403 1251.08 377.127 1233.19 C 386.058 1230.84 394.816 1229.3 403.528 1227.17 z" fill="rgb(252,252,251)" transform="translate(0,0)"></path>
<path d="M 377.127 1233.19 C 386.058 1230.84 394.816 1229.3 403.528 1227.17 C 404.167 1233.49 410.28 1278.12 411.934 1282.71 C 403.388 1284.64 395.163 1286.43 386.491 1287.69 C 384.217 1269.73 380.403 1251.08 377.127 1233.19 z" fill="rgb(204,199,196)" transform="translate(0,0)"></path>
<path d="M 892.069 735.934 C 896.177 738.38 917.509 774.774 921.281 780.989 C 903.086 791.964 880.247 803.519 861.281 813.458 L 797.363 847.223 C 766.92 845.908 753.27 846.19 723.775 853.695 C 715.013 856.041 705.823 859.408 697.197 862.395 C 711.834 848.387 729.954 827.466 743.282 814.32 C 751.709 806.008 787.659 791.083 800.14 784.348 C 830.28 768.084 861.59 752.03 892.069 735.934 z" fill="rgb(252,252,251)" transform="translate(0,0)"></path>
<path d="M 375.034 1061.61 C 426.779 1051.87 481.336 1039.18 532.754 1030.47 C 535.615 1048.16 537.622 1065.78 540.298 1083.42 C 487.858 1093.29 435.509 1103.64 383.259 1114.47 C 374.416 1116.07 365.402 1118.16 356.539 1119.88 L 354.67 1111.2 C 351.696 1097.55 349.006 1081.99 346.382 1068.1 C 354.383 1066.36 367.551 1063.93 375.034 1061.61 z" fill="rgb(5,69,161)" transform="translate(0,0)"></path>
<path d="M 346.382 1068.1 C 354.383 1066.36 367.551 1063.93 375.034 1061.61 C 376.302 1068.71 377.09 1076.91 378.325 1084.21 C 379.959 1093.88 382.636 1104.8 383.259 1114.47 C 374.416 1116.07 365.402 1118.16 356.539 1119.88 L 354.67 1111.2 C 351.696 1097.55 349.006 1081.99 346.382 1068.1 z" fill="rgb(3,62,150)" transform="translate(0,0)"></path>
<path d="M 394.565 1173.11 C 445.873 1162.14 497.647 1152.46 549.076 1141.72 L 551.287 1153.46 C 552.294 1154.5 551.933 1155.12 551.829 1156.51 L 552.132 1158.57 C 553.27 1160.7 553.088 1161.04 552.844 1163.51 L 553.148 1165.57 C 554.026 1167.06 553.967 1166.91 553.71 1168.71 C 554.644 1177.6 555.839 1184.53 557.489 1193.33 C 534.1 1199.34 508.735 1204.02 484.933 1208.79 C 458.243 1214.26 431.516 1219.54 404.753 1224.64 C 395.794 1226.94 385.891 1228.59 376.652 1230.8 C 374.424 1216.48 371.541 1202.68 369.081 1188.5 C 368.488 1185.22 367.787 1181.97 366.98 1178.74 C 375.497 1176.99 386.333 1175.38 394.565 1173.11 z" fill="rgb(5,69,161)" transform="translate(0,0)"></path>
<path d="M 366.98 1178.74 C 375.497 1176.99 386.333 1175.38 394.565 1173.11 C 393.496 1184.45 400.866 1208.49 402.154 1220.57 C 402.389 1222.77 402.896 1223.5 404.753 1224.64 C 395.794 1226.94 385.891 1228.59 376.652 1230.8 C 374.424 1216.48 371.541 1202.68 369.081 1188.5 C 368.488 1185.22 367.787 1181.97 366.98 1178.74 z" fill="rgb(3,62,150)" transform="translate(0,0)"></path>
<path d="M 552.132 1158.57 C 553.27 1160.7 553.088 1161.04 552.844 1163.51 C 551.98 1161.15 552.101 1161.09 552.132 1158.57 z" fill="rgb(4,33,78)" transform="translate(0,0)"></path>
<path d="M 553.148 1165.57 C 554.026 1167.06 553.967 1166.91 553.71 1168.71 C 553.053 1167.34 553.18 1167.2 553.148 1165.57 z" fill="rgb(4,33,78)" transform="translate(0,0)"></path>
<path d="M 551.287 1153.46 C 552.294 1154.5 551.933 1155.12 551.829 1156.51 C 551.264 1154.93 551.24 1155.08 551.287 1153.46 z" fill="rgb(4,33,78)" transform="translate(0,0)"></path>
<path d="M 423.61 1282.42 C 471.605 1272.08 519.727 1262.35 567.967 1253.22 L 571.199 1270.45 C 571.876 1271.16 571.924 1271.53 571.86 1272.52 L 571.812 1273.51 L 572.159 1275.57 C 572.859 1276.78 572.722 1277.12 572.85 1278.6 L 573.134 1280.55 C 574.155 1282.32 573.929 1282.26 573.852 1284.51 L 574.148 1286.57 C 575.214 1288.32 574.976 1288.24 574.865 1290.51 L 575.173 1292.57 C 575.824 1293.66 575.68 1293.62 575.762 1295.1 L 576.312 1299.3 C 576.999 1300.12 576.846 1300.66 576.93 1301.84 L 575.963 1304.21 C 566.473 1307.9 534.229 1313.77 522.611 1316.08 L 419.155 1336.65 C 412.488 1337.44 403.102 1339.75 396.423 1341.38 C 394.581 1326.34 390.08 1305.04 387.167 1289.9 C 395.916 1288.41 404.292 1286.56 412.954 1284.67 C 415.874 1284.16 419.035 1283.41 421.957 1282.78 C 422.833 1282.4 422.652 1282.44 423.61 1282.42 z" fill="rgb(5,69,161)" transform="translate(0,0)"></path>
<path d="M 387.167 1289.9 C 395.916 1288.41 404.292 1286.56 412.954 1284.67 C 413.802 1300.8 418.719 1320.59 419.155 1336.65 C 412.488 1337.44 403.102 1339.75 396.423 1341.38 C 394.581 1326.34 390.08 1305.04 387.167 1289.9 z" fill="rgb(3,62,150)" transform="translate(0,0)"></path>
<path d="M 573.134 1280.55 C 574.155 1282.32 573.929 1282.26 573.852 1284.51 C 573.156 1282.55 573.192 1282.63 573.134 1280.55 z" fill="rgb(4,33,78)" transform="translate(0,0)"></path>
<path d="M 574.148 1286.57 C 575.214 1288.32 574.976 1288.24 574.865 1290.51 C 574.179 1288.56 574.213 1288.63 574.148 1286.57 z" fill="rgb(4,33,78)" transform="translate(0,0)"></path>
<path d="M 571.199 1270.45 C 571.876 1271.16 571.924 1271.53 571.86 1272.52 L 571.812 1273.51 C 571.259 1271.99 571.235 1272.03 571.199 1270.45 z" fill="rgb(4,33,78)" transform="translate(0,0)"></path>
<path d="M 576.312 1299.3 C 576.999 1300.12 576.846 1300.66 576.93 1301.84 C 576.526 1300.65 576.409 1300.5 576.312 1299.3 z" fill="rgb(4,33,78)" transform="translate(0,0)"></path>
<path d="M 575.173 1292.57 C 575.824 1293.66 575.68 1293.62 575.762 1295.1 C 575.284 1293.88 575.271 1293.9 575.173 1292.57 z" fill="rgb(4,33,78)" transform="translate(0,0)"></path>
<path d="M 572.159 1275.57 C 572.859 1276.78 572.722 1277.12 572.85 1278.6 C 572.382 1277.2 572.279 1277.04 572.159 1275.57 z" fill="rgb(4,33,78)" transform="translate(0,0)"></path>
<path d="M 421.957 1282.78 C 422.833 1282.4 422.652 1282.44 423.61 1282.42 C 422.923 1282.83 422.804 1282.73 421.957 1282.78 z" fill="rgb(4,33,78)" transform="translate(0,0)"></path>
<path d="M 939.538 1083.85 L 1002.57 1048.02 C 1023.36 1036.05 1044.21 1023.46 1065.37 1012.25 L 1093.86 1057.48 C 1050.44 1081.9 1007.25 1106.73 964.302 1131.97 C 963.003 1133.07 950.064 1141.18 947.731 1142.68 C 938.429 1126.11 929.114 1111.71 920.234 1094.52 L 939.538 1083.85 z" fill="rgb(252,252,251)" transform="translate(0,0)"></path>
<path d="M 920.234 1094.52 L 939.538 1083.85 L 939.857 1084.51 C 944.105 1093.37 949.249 1102.3 953.957 1111 C 957.266 1117.11 960.904 1126.61 964.302 1131.97 C 963.003 1133.07 950.064 1141.18 947.731 1142.68 C 938.429 1126.11 929.114 1111.71 920.234 1094.52 z" fill="rgb(204,199,196)" transform="translate(0,0)"></path>
<path d="M 224.915 673.855 C 227.59 676.122 236.505 697.27 238.907 701.881 C 256.033 734.769 281.815 767.847 309.161 792.555 C 303.837 819.502 307.27 837.632 310.475 864.709 C 305.062 859.734 298.981 854.884 293.291 850.179 C 248.994 813.519 207.61 759.849 188.201 705.435 C 198.341 695.352 213.728 683.066 224.915 673.855 z" fill="rgb(252,252,251)" transform="translate(0,0)"></path>
<path d="M 1094.93 1059.26 C 1108.68 1082.07 1130.08 1097.48 1098.15 1115.67 C 1097.73 1116.21 1097.56 1116.17 1096.85 1116.49 L 989.334 1182.93 C 985.997 1185.79 982.646 1185.07 978.6 1184.96 C 977.477 1184.83 977.605 1184.8 976.497 1184.21 L 974.557 1183.79 C 973.821 1183.51 973.367 1183.38 972.688 1182.97 C 967.064 1178.52 953.08 1152.72 948.625 1144.67 C 953.47 1141.78 960.946 1136.55 965.379 1134.24 C 973.252 1128.54 997.643 1115.19 1006.82 1109.85 C 1036.04 1092.73 1065.41 1075.86 1094.93 1059.26 z" fill="rgb(5,69,161)" transform="translate(0,0)"></path>
<path d="M 965.379 1134.24 C 969.594 1147.04 981.774 1162.04 986.65 1175.18 C 987.637 1177.83 988.235 1180.44 989.334 1182.93 C 985.997 1185.79 982.646 1185.07 978.6 1184.96 C 977.477 1184.83 977.605 1184.8 976.497 1184.21 L 974.557 1183.79 C 973.821 1183.51 973.367 1183.38 972.688 1182.97 C 967.064 1178.52 953.08 1152.72 948.625 1144.67 C 953.47 1141.78 960.946 1136.55 965.379 1134.24 z" fill="rgb(3,62,150)" transform="translate(0,0)"></path>
<path d="M 976.497 1184.21 C 977.584 1184.45 977.875 1184.38 978.6 1184.96 C 977.477 1184.83 977.605 1184.8 976.497 1184.21 z" fill="rgb(4,33,78)" transform="translate(0,0)"></path>
<path d="M 1096.85 1116.49 C 1097.45 1115.9 1097.39 1115.9 1098.15 1115.67 C 1097.73 1116.21 1097.56 1116.17 1096.85 1116.49 z" fill="rgb(4,33,78)" transform="translate(0,0)"></path>
<path d="M 1007.43 919.234 C 1016.97 934.447 1027.06 950.097 1036.24 965.468 C 997.027 988.343 952.572 1013.88 912.988 1035.75 C 909.135 1038.79 897.339 1045.05 892.735 1047.45 C 888.568 1040.25 884.169 1032.31 880.113 1025 C 884.941 1012.17 891.017 1001.34 892.351 987.007 C 897.629 980.893 994.027 927.237 1007.43 919.234 z" fill="rgb(252,252,251)" transform="translate(0,0)"></path>
<path d="M 892.351 987.007 C 892.732 990.202 911.647 1034.49 912.988 1035.75 C 909.135 1038.79 897.339 1045.05 892.735 1047.45 C 888.568 1040.25 884.169 1032.31 880.113 1025 C 884.941 1012.17 891.017 1001.34 892.351 987.007 z" fill="rgb(204,199,196)" transform="translate(0,0)"></path>
<path d="M 1037.48 967.044 C 1046.16 981.592 1055.07 996.003 1064.21 1010.27 C 1024.62 1031.63 986.225 1055.79 946.653 1077.27 C 943.339 1079.07 939.805 1081.04 936.587 1082.97 C 930.776 1086.27 924.904 1089.49 918.926 1092.47 C 910.406 1078.81 902.191 1063.9 893.888 1049.91 C 900.859 1046.13 908.889 1041.99 915.346 1037.39 C 938.538 1023.78 961.812 1010.31 985.167 996.983 C 1001.94 987.543 1021.37 977.388 1037.48 967.044 z" fill="rgb(5,69,161)" transform="translate(0,0)"></path>
<path d="M 915.346 1037.39 C 916.956 1042.39 919.094 1044.68 921.417 1049.16 C 926.063 1058.1 934.235 1073.46 936.587 1082.97 C 930.776 1086.27 924.904 1089.49 918.926 1092.47 C 910.406 1078.81 902.191 1063.9 893.888 1049.91 C 900.859 1046.13 908.889 1041.99 915.346 1037.39 z" fill="rgb(3,62,150)" transform="translate(0,0)"></path>
<path d="M 394.827 703.843 C 432.147 703.316 457.658 719.381 480.235 747.933 C 439.14 756.333 396.47 763.933 355.758 772.697 C 342.305 774.962 328.9 777.502 315.551 780.318 C 330.042 741.392 349.606 709.144 394.827 703.843 z" fill="rgb(5,69,161)" transform="translate(0,0)"></path>
<path d="M 315.551 780.318 C 330.042 741.392 349.606 709.144 394.827 703.843 C 376.265 721.106 365.415 734.859 356.504 758.948 C 354.968 763.1 353.23 766.713 353.17 771.235 C 354.594 772.299 354.138 772.177 355.758 772.697 C 342.305 774.962 328.9 777.502 315.551 780.318 z" fill="rgb(3,62,150)" transform="translate(0,0)"></path>
<path d="M 261.446 645.776 C 265.071 646.75 267.12 653.405 268.74 656.818 C 283.802 688.563 305.398 717.573 329.7 742.977 C 319.444 758.153 315.207 772.841 310.022 790.288 L 301.944 783.114 C 267.417 747.704 246.661 716.591 227.359 671.605 C 238.675 662.934 250.037 654.324 261.446 645.776 z" fill="rgb(5,69,161)" transform="translate(0,0)"></path>
<path d="M 920.952 783.708 C 927.087 786.404 944.26 817.141 949.273 824.925 C 923.689 842.183 888.018 859.366 861.038 875.171 C 855.277 869.737 849.144 866.401 842.367 862.51 C 826.827 854.614 816.641 851.541 799.851 847.928 C 820.878 838.359 846.921 823.173 868.041 812.495 C 880.589 806.151 910.182 790.949 920.952 783.708 z" fill="rgb(5,69,161)" transform="translate(0,0)"></path>
<path d="M 863.194 690.664 C 868.601 692.579 887.688 727.115 891.196 733.852 C 850.174 755.919 808.875 777.469 767.31 798.496 C 760.586 801.871 753.816 805.155 747.003 808.347 C 767.534 783.875 783.891 754.432 798.478 726.229 C 817.036 713.973 843.412 702.722 863.194 690.664 z" fill="rgb(5,69,161)" transform="translate(0,0)"></path>
<path d="M 306.203 616.105 C 306.99 616.756 319.919 641.254 321.628 644.214 C 335.261 667.835 352.852 687.071 371.867 706.42 C 354.75 714.121 342.611 725.824 331.35 740.465 C 307.925 723.341 277.31 670.615 265.22 643.471 C 278.375 633.613 292.056 624.477 306.203 616.105 z" fill="rgb(252,252,251)" transform="translate(0,0)"></path>
<path d="M 979.348 875.233 C 988.2 887.24 998.422 904.382 1006.54 917.193 L 992.052 925.558 C 991.7 926.155 991.487 926.094 990.761 926.359 C 958.354 943.859 927.088 964.299 893.724 982.061 C 897.707 960.367 896.705 946.57 891.997 925.262 C 920.74 908.367 950.373 891.777 979.348 875.233 z" fill="rgb(5,69,161)" transform="translate(0,0)"></path>
<path d="M 514.188 862.758 C 537.668 869.724 574.285 876.519 598.64 877.069 C 604.524 876.583 604.373 876.415 610.202 877.936 C 634.321 878.596 654.283 877.616 678.183 875.697 C 660.595 889.465 642.948 902.618 623.769 914.248 C 610.921 922.039 600.809 920.047 586.505 919.331 C 564.107 918.209 542.048 915.445 520.334 909.455 C 517.902 899.118 515.297 873.636 514.188 862.758 z" fill="rgb(5,69,161)" transform="translate(0,0)"></path>
<path d="M 598.64 877.069 C 604.524 876.583 604.373 876.415 610.202 877.936 C 604.828 878.075 603.882 878.109 598.64 877.069 z" fill="rgb(4,33,78)" transform="translate(0,0)"></path>
<path d="M 948.975 827.842 C 953.229 829.796 974.347 866.091 978.66 873.139 C 949.942 889.332 921.312 905.682 892.774 922.188 C 890.1 921.796 889.251 917.084 888.19 914.198 C 882.488 898.703 873.958 888.439 862.967 876.663 C 890.562 860.517 922.166 845.201 948.975 827.842 z" fill="rgb(252,252,251)" transform="translate(0,0)"></path>
<path d="M 167.107 1328.56 C 213.07 1348.11 259.497 1366.55 305.279 1386.34 C 312.443 1389.43 304.394 1407.53 302.457 1411.94 C 254.636 1390.05 205.521 1370.99 157.008 1350.53 C 158.569 1347.52 165.395 1333.48 166.223 1331.09 L 167.107 1328.56 z" fill="rgb(241,165,195)" transform="translate(0,0)"></path>
<path d="M 145.866 1373.89 C 147.321 1369.61 153.885 1356.77 156.793 1353.2 C 204.841 1373.34 254.226 1392.81 301.592 1414.09 C 299.228 1419.99 295.209 1430.85 292.5 1436.12 C 248.158 1416.13 202.519 1397.99 157.857 1378.62 C 154.139 1377.01 149.662 1375.13 145.866 1373.89 z" fill="rgb(230,95,100)" transform="translate(0,0)"></path>
<path d="M 672.279 1194.39 C 673.317 1190.16 678.409 1172.66 681.741 1171.36 C 726.594 1180.21 771.382 1189.38 816.1 1198.89 C 814.201 1206.05 811.918 1215.81 809.706 1222.66 L 672.279 1194.39 z" fill="rgb(230,95,100)" transform="translate(0,0)"></path>
<path d="M 679.171 1168.35 C 681.208 1163.56 685.055 1148.61 688.791 1147.35 C 706.899 1151.11 810.445 1170.93 818.189 1176.2 C 821.47 1182.15 818.209 1190.09 816.382 1196.76 C 775.704 1187.12 734.221 1179.84 693.312 1171.2 C 688.704 1170.22 683.788 1169.12 679.171 1168.35 z" fill="rgb(241,165,195)" transform="translate(0,0)"></path>
<path d="M 520.551 912.343 C 554.669 919.038 574.76 922.06 609.949 921.986 C 601.597 926.813 593.151 931.479 584.619 935.98 C 565.474 945.254 546.011 953.853 526.265 961.764 C 524.48 945.276 522.576 928.802 520.551 912.343 z" fill="rgb(252,252,251)" transform="translate(0,0)"></path>
<path d="M 833.038 641.957 C 836.422 643.26 859.555 682.555 863.284 688.704 C 849.923 695.209 835.089 703.472 821.818 710.5 C 814.701 714.182 807.352 718.368 800.306 722.252 C 811.719 697.292 820.203 674.785 826.041 648.07 C 826.854 644.351 829.812 643.674 833.038 641.957 z" fill="rgb(252,252,251)" transform="translate(0,0)"></path>
<path d="M 116.361 1332.94 C 124.284 1313.95 122.649 1308.69 142.842 1318.64 C 149.818 1322.07 159.71 1325.34 167.107 1328.56 L 166.223 1331.09 C 165.395 1333.48 158.569 1347.52 157.008 1350.53 C 143.588 1345.23 129.823 1338.42 116.361 1332.94 z" fill="rgb(218,140,170)" transform="translate(0,0)"></path>
<path d="M 638.349 1162.26 C 652.642 1165.63 667.859 1167.83 681.741 1171.36 C 678.409 1172.66 673.317 1190.16 672.279 1194.39 C 658.764 1192.42 645.525 1188.9 632.123 1186.32 C 632.727 1184.2 633.364 1182.02 633.89 1179.88 L 638.349 1162.26 z" fill="rgb(228,59,55)" transform="translate(0,0)"></path>
<path d="M 115.818 1335.29 C 127.89 1340.38 145.349 1349.17 156.793 1353.2 C 153.885 1356.77 147.321 1369.61 145.866 1373.89 C 135.885 1369.09 117.508 1362.15 107.05 1357.98 C 110.059 1350.26 112.955 1343.1 115.818 1335.29 z" fill="rgb(228,59,55)" transform="translate(0,0)"></path>
<path d="M 638.772 1159.97 C 644.1 1139.58 641.535 1135.92 664.786 1142.14 C 672.194 1144.12 681.514 1145.11 688.791 1147.35 C 685.055 1148.61 681.208 1163.56 679.171 1168.35 L 638.772 1159.97 z" fill="rgb(218,140,170)" transform="translate(0,0)"></path>
<path d="M 397.165 1344.25 C 399.397 1342.26 415.88 1339.49 420.504 1338.48 C 424.799 1355.86 426.89 1375.39 431.342 1393.51 C 455.757 1388.4 485.357 1381.55 509.609 1377.66 L 510.45 1377.34 L 510.917 1379.53 C 533.392 1373.08 564.136 1368.74 588.565 1362.54 C 590.537 1373.67 592.732 1388.73 595.248 1399.45 C 595.203 1400.84 595.101 1400.78 595.915 1401.82 C 596.092 1410.33 594.03 1417.71 584.932 1420.63 L 586.267 1422.48 C 580.147 1424.03 572.931 1425.39 566.68 1426.73 C 593.873 1453.89 623.538 1480.29 651.188 1507.15 C 660.826 1516.51 675.442 1528 683.09 1538.22 C 686.214 1542.61 688.049 1552.48 685.956 1557.37 C 670.105 1594.37 632.459 1530 616.513 1539.1 C 614.192 1546.09 630.256 1645.01 632.747 1661.85 C 647.725 1657.99 667.054 1651.22 681.915 1658.51 C 692.78 1663.84 765.937 1747.38 777.609 1762.97 C 780.335 1766.61 783.374 1771.04 784.577 1775.49 C 787.419 1785.99 779.26 1870.84 778.125 1888.09 C 776.902 1906.65 777.017 1925.73 774.613 1944.16 C 773.69 1951.23 771.826 1958.24 768.348 1964.51 C 762.734 1974.62 753.544 1980.47 742.547 1983.43 C 719.653 1989.6 695.338 1992.73 672.082 1997.65 C 650.638 2002.25 629.166 2006.73 607.667 2011.06 C 595.529 2013.54 583.773 2015.92 571.514 2017.88 C 556.747 2020.25 550.039 2012.91 541.012 2001.91 C 514.843 1970.02 487.045 1939.4 461.069 1907.36 C 457.783 1903.31 453.229 1895.46 451.924 1890.11 C 450.267 1874.26 452.277 1857.11 453.417 1841.3 L 458.178 1775.48 C 459.385 1758.55 459.742 1741.16 461.816 1724.38 C 464.173 1705.32 477.629 1695.78 495.253 1692.47 C 494.271 1681.31 490.268 1606.24 484.635 1603.49 C 480.323 1610.36 480.864 1651.35 478.907 1662.44 C 478.192 1667.14 478.124 1676.05 473.087 1678.6 C 459.868 1685.28 454.731 1681.13 448.234 1671.1 C 447.232 1645.2 451.167 1606.06 451.406 1578.58 C 451.612 1554.87 452.844 1520.13 455.409 1496.9 C 456.738 1484.86 469.156 1464.77 472.764 1446.4 C 459.449 1449.13 431.759 1458.67 420.629 1451.37 C 411.045 1445.09 409.58 1424.29 407.467 1413.07 C 403.195 1390.7 399.12 1368.3 395.241 1345.86 L 397.165 1344.25 z" fill="rgb(4,4,5)" transform="translate(0,0)"></path>
<path d="M 588.565 1362.54 C 590.537 1373.67 592.732 1388.73 595.248 1399.45 C 595.203 1400.84 595.101 1400.78 595.915 1401.82 C 596.092 1410.33 594.03 1417.71 584.932 1420.63 C 549.401 1427.51 513.96 1434.84 478.618 1442.62 C 467.815 1445.01 446.971 1448.79 437.232 1451.82 C 437.027 1435.75 431.508 1412.61 429.813 1395.89 C 455.712 1390.32 481.673 1385.04 507.69 1380.05 L 509.609 1377.66 L 510.45 1377.34 L 510.917 1379.53 C 533.392 1373.08 564.136 1368.74 588.565 1362.54 z" fill="rgb(5,69,161)" transform="translate(0,0)"></path>
<path d="M 509.609 1377.66 L 510.45 1377.34 L 510.917 1379.53 C 509.712 1379.78 508.893 1379.89 507.69 1380.05 L 509.609 1377.66 z" fill="rgb(4,33,78)" transform="translate(0,0)"></path>
<path d="M 397.165 1344.25 C 399.397 1342.26 415.88 1339.49 420.504 1338.48 C 424.799 1355.86 426.89 1375.39 431.342 1393.51 C 423.422 1394.93 415.413 1396.9 407.58 1398.72 C 403.887 1380.89 401.252 1361.73 397.165 1344.25 z" fill="rgb(204,199,196)" transform="translate(0,0)"></path>
<path d="M 407.763 1400.79 C 414.107 1399.47 421.045 1398.11 427.302 1396.52 L 429.813 1395.89 C 431.508 1412.61 437.027 1435.75 437.232 1451.82 L 433.896 1452.22 C 431.657 1452.14 431.109 1452.19 428.838 1452.54 C 418.489 1447.94 416.142 1446.2 414.106 1434.5 C 412.201 1423.22 410.086 1411.99 407.763 1400.79 z" fill="rgb(3,62,150)" transform="translate(0,0)"></path>
<path d="M 428.838 1452.54 C 431.109 1452.19 431.657 1452.14 433.896 1452.22 C 431.828 1453.68 431.229 1453.39 428.838 1452.54 z" fill="rgb(4,33,78)" transform="translate(0,0)"></path>
<path d="M 755.077 1761.3 C 765.964 1759.74 782.072 1762.45 781.954 1776.47 C 781.469 1832.68 775.559 1889.97 771.787 1946.24 C 769.233 1984.34 722.965 1984.82 693.391 1990.93 C 652.733 1999.52 612.011 2007.8 571.227 2015.78 C 525.683 2020.5 549.364 1943.61 547.343 1919.12 C 547.261 1918.13 548.086 1903.32 548.609 1900.79 C 552.764 1879.81 545.054 1813.65 571.831 1806.88 C 625.747 1793.23 700.443 1771.86 755.077 1761.3 z" fill="rgb(71,181,136)" transform="translate(0,0)"></path>
<path d="M 562.553 1427.38 C 566.97 1430.59 572.731 1435.99 576.955 1439.72 C 579.806 1441.12 580.865 1442.94 582.829 1445.39 L 605.034 1466.74 C 606.026 1467.23 606.032 1467.14 606.442 1468.11 C 631.035 1491.61 657.514 1515.53 681.543 1539.11 C 682.177 1539.37 682.159 1539.58 682.563 1540.19 C 683.747 1543.11 685.765 1548.21 684.976 1551.47 C 673.646 1598.35 625.748 1516.59 613.748 1539.4 C 613.008 1547.67 616.623 1568.37 617.919 1577.2 L 628.19 1646.28 C 629.925 1657.94 633.059 1675.78 633.478 1687.1 C 623.891 1707.77 606.311 1704.56 601.113 1684.63 C 593.538 1655.6 589.362 1625.3 581.597 1596.25 C 580.671 1592.65 576.611 1591.3 573.327 1591.2 C 571.624 1592.16 569.577 1593.5 569.554 1595.69 C 569.209 1627.46 579.058 1677.09 580.39 1707.36 C 574.241 1721.27 555.63 1726.02 550.603 1710.09 C 547.974 1701.75 546.509 1687.63 545.047 1678.51 L 536.809 1627.53 C 535.59 1619.9 534.649 1601.96 528.606 1597.85 C 527.168 1598.26 526.571 1598.07 525.73 1599.42 C 519.677 1609.13 534.909 1693.41 528.916 1712.88 C 527.496 1717.49 524.723 1720.59 520.093 1722.12 C 515.823 1723.54 511.035 1723.41 507.011 1721.31 C 503.407 1719.42 500.755 1716.11 499.69 1712.18 C 494.546 1692.42 495.204 1609.83 487.282 1599.89 L 485.206 1599 C 468.06 1606.21 493.442 1689.48 457.547 1678.02 C 455.01 1677.21 452.162 1673.97 451.567 1671.31 C 449.335 1647.1 453.214 1614.47 453.161 1590.33 C 452.509 1583.29 451.933 1581.06 453.854 1574.4 C 455.03 1550.37 454.307 1516.49 458.74 1493.83 C 461.807 1478.16 471.494 1466.71 475.151 1445.96 C 503.526 1438.91 533.768 1433.41 562.553 1427.38 z" fill="rgb(244,157,116)" transform="translate(0,0)"></path>
<path d="M 453.161 1590.33 C 452.509 1583.29 451.933 1581.06 453.854 1574.4 C 454.005 1580.47 454.043 1584.36 453.161 1590.33 z" fill="rgb(102,66,50)" transform="translate(0,0)"></path>
<path d="M 576.955 1439.72 C 579.806 1441.12 580.865 1442.94 582.829 1445.39 C 580.621 1443.62 578.693 1441.98 576.955 1439.72 z" fill="rgb(102,66,50)" transform="translate(0,0)"></path>
<path d="M 658.777 1658.35 C 686.46 1655.09 695.386 1673.47 712.078 1692.07 C 731.695 1713.86 751.132 1735.82 770.389 1757.93 C 744.824 1757.18 687.484 1775.48 659.452 1781.45 C 634.381 1786.79 602.504 1795.46 577.392 1802.25 C 570.981 1803.99 566.08 1807.36 560.832 1811.35 C 550.359 1796.85 539.746 1782.46 528.996 1768.16 C 514.223 1747.52 494.738 1720.29 478.67 1700.7 C 484.708 1697.58 488.602 1696.36 494.968 1694.24 C 495.31 1698.66 495.974 1703.77 496.226 1708.21 C 497.154 1724.53 517.439 1731.51 528.287 1719.85 C 534.889 1712.75 532.253 1696.26 531.826 1686.43 L 543.501 1684.41 C 546.75 1700.39 544.768 1727.42 570.575 1721.33 C 576.814 1719.85 580.221 1712.8 582.858 1707.58 C 582.697 1698.86 580.408 1684.89 579.181 1675.85 L 595.72 1672.21 C 597.983 1682.58 599.528 1693.15 608.33 1700.24 C 616.623 1706.91 625.615 1704.97 631.212 1696.18 C 638.016 1685.5 635.132 1675.69 632.81 1664.27 C 641.86 1661.89 649.534 1659.79 658.777 1658.35 z" fill="rgb(71,181,136)" transform="translate(0,0)"></path>
<path d="M 476.915 1702.37 C 504.13 1738.46 533.19 1776.05 559.136 1813.02 C 555.448 1818.49 552.66 1823.37 551.865 1830 C 549.351 1850.96 546.896 1879.91 546.121 1900.44 C 545.189 1925.1 538.376 1977.7 542.193 1999.82 C 516.418 1967.13 487.756 1937.25 461.953 1904.65 C 455.431 1896.41 453.475 1886.68 453.775 1876.42 C 454.326 1857.56 456.864 1838.56 457.298 1819.73 C 456.996 1818.12 456.694 1817.74 457.744 1816.42 C 459.712 1788.82 462.161 1759.25 463.257 1731.72 C 462.957 1730.14 462.611 1729.75 463.695 1728.43 C 464.818 1715.32 467.323 1711.73 476.915 1702.37 z" fill="rgb(71,181,136)" transform="translate(0,0)"></path>
<path d="M 463.695 1728.43 C 463.974 1730.28 464.149 1730.22 463.257 1731.72 C 462.957 1730.14 462.611 1729.75 463.695 1728.43 z" fill="rgb(18,67,53)" transform="translate(0,0)"></path>
<path d="M 457.744 1816.42 C 457.939 1818.23 458.1 1818.21 457.298 1819.73 C 456.996 1818.12 456.694 1817.74 457.744 1816.42 z" fill="rgb(18,67,53)" transform="translate(0,0)"></path>
<path d="M 572.201 1593.58 C 576.684 1593.91 579.591 1595.26 580.153 1599.83 C 582.267 1617 595.116 1654.02 594.823 1669.43 L 592.755 1670.57 C 588.357 1671.67 583.418 1672.63 578.943 1673.6 C 577.766 1663.36 569.781 1598.92 572.201 1593.58 z" fill="rgb(252,252,251)" transform="translate(0,0)"></path>
<path d="M 527.78 1599.57 C 533.093 1604.11 539.124 1662.04 541.7 1671.77 C 542.265 1673.9 543.014 1680.05 542.564 1682.33 C 538.297 1683.45 535.535 1684.59 531.766 1682.82 C 530.103 1673.42 526.07 1606.84 527.78 1599.57 z" fill="rgb(252,252,251)" transform="translate(0,0)"></path>
<path d="M 375.444 308.348 C 376.37 264.863 383.639 228.481 401.294 188.345 C 433.251 115.692 497.304 51.6545 572.059 23.2758 C 571.739 24.4076 571.347 25.7998 570.88 27.4525 C 558.991 38.7683 541.651 49.9999 530.364 61.9411 C 490.331 104.295 458.845 163.11 452.528 221.453 C 451.492 231.026 448.459 255.185 451.345 263.912 C 421.076 279.186 403.578 289.053 375.444 308.348 z" fill="rgb(242,156,19)" transform="translate(0,0)"></path>
<path d="M 373.45 301.872 C 372.82 293.24 374.593 278.183 375.727 269.57 C 391.116 152.718 479.064 47.8175 592.149 13.7769 C 610.108 8.37109 623.304 4.18781 642.206 2.19013 L 644.476 4.47262 C 616.081 8.3124 598.988 13.3773 572.059 23.2758 C 497.304 51.6545 433.251 115.692 401.294 188.345 C 383.639 228.481 376.37 264.863 375.444 308.348 L 374.417 301.068 L 373.45 301.872 z" fill="rgb(28,13,5)" transform="translate(0,0)"></path>
<path d="M 193.474 1672.4 C 197.649 1671.93 202.065 1671.96 206.289 1672 C 285.003 1672.78 355.402 1729.11 373.73 1805.65 C 377.904 1823.09 378.381 1836.96 378.291 1854.56 C 397.692 1870.26 389.611 1892.38 368.187 1900.94 C 361.656 1917.45 352.707 1932.91 341.632 1946.8 C 312.38 1983.06 273.143 2005.6 226.622 2010.63 C 209.745 2013.72 181.437 2010.63 164.984 2006.25 C 121.58 1994.34 84.6293 1965.79 62.1617 1926.79 C 38.6432 1885.78 34.9524 1837.94 47.1329 1792.77 C 46.6756 1792.27 46.2183 1791.77 45.761 1791.27 C 28.4915 1768.43 48.0243 1749.75 69.7142 1744.46 C 93.5128 1702.65 146.868 1676.61 193.474 1672.4 z" fill="rgb(4,4,5)" transform="translate(0,0)"></path>
<path d="M 49.4694 1793.92 C 74.1882 1793.97 98.8821 1795.49 123.42 1798.48 C 202.294 1810.21 287.422 1846.52 350.008 1896.05 C 355.208 1900.17 359.433 1897.51 364.292 1902.7 C 363.84 1907.57 360.045 1913.32 357.765 1917.74 C 328.234 1975.02 269.777 2009.67 205.667 2009.06 C 164.967 2009.73 124.344 1992 95.1338 1964.27 C 60.3794 1931.28 44.3943 1892.05 42.7085 1844.74 C 41.1437 1842.69 41.2506 1837.32 42.7043 1835.25 C 43.3819 1818.4 45.1471 1810.3 49.4694 1793.92 z" fill="rgb(137,98,174)" transform="translate(0,0)"></path>
<path d="M 49.4694 1793.92 C 74.1882 1793.97 98.8821 1795.49 123.42 1798.48 C 122.737 1804.33 118.745 1820.64 119.63 1824.21 C 154.187 1837.36 146.368 1889.78 130.518 1914.93 C 142.001 1945.53 156.092 1965.73 180.64 1987.54 C 187.687 1993.8 199.475 2002.95 205.667 2009.06 C 164.967 2009.73 124.344 1992 95.1338 1964.27 C 60.3794 1931.28 44.3943 1892.05 42.7085 1844.74 C 41.1437 1842.69 41.2506 1837.32 42.7043 1835.25 C 43.3819 1818.4 45.1471 1810.3 49.4694 1793.92 z" fill="rgb(106,78,161)" transform="translate(0,0)"></path>
<path d="M 130.518 1914.93 C 107.412 1946.02 85.5503 1916.79 84.5294 1889.95 C 83.8119 1871.09 86.3878 1849.05 99.103 1834.22 C 104.654 1827.75 111.237 1824.63 119.63 1824.21 C 154.187 1837.36 146.368 1889.78 130.518 1914.93 z" fill="rgb(4,4,5)" transform="translate(0,0)"></path>
<path d="M 130.468 1910.05 C 124.176 1921.4 111.591 1932.98 98.2647 1920.31 C 77.9061 1900.95 85.4332 1825.35 120.165 1827.05 C 149.267 1840.31 144.641 1887.82 130.468 1910.05 z" fill="rgb(204,199,196)" transform="translate(0,0)"></path>
<path d="M 120.165 1827.05 C 149.267 1840.31 144.641 1887.82 130.468 1910.05 C 122.727 1902.56 115.849 1837.44 120.165 1827.05 z" fill="rgb(252,252,251)" transform="translate(0,0)"></path>
<path d="M 42.7085 1844.74 C 41.1437 1842.69 41.2506 1837.32 42.7043 1835.25 C 43.0954 1838.4 43.0969 1841.59 42.7085 1844.74 z" fill="rgb(58,43,78)" transform="translate(0,0)"></path>
<path d="M 210.589 1962.09 C 203.344 1947.37 206.752 1937.67 210.313 1922.99 C 216.192 1898.75 260.185 1852.36 279.929 1888.47 C 295.371 1916.71 253.322 1987.62 217.88 1969.48 C 217.231 1969.19 217.33 1969.2 216.703 1968.65 C 215.025 1967.21 212.992 1964.96 211.403 1963.33 C 210.863 1962.72 210.889 1962.82 210.589 1962.09 z" fill="rgb(4,4,5)" transform="translate(0,0)"></path>
<path d="M 255.731 1878.06 C 300.42 1875.59 279.218 1955.74 233.217 1969.92 C 186.606 1972.05 212.993 1890.64 255.731 1878.06 z" fill="rgb(252,252,251)" transform="translate(0,0)"></path>
<path d="M 71.8714 1744.78 C 110.604 1693.18 158.51 1670.42 223.036 1675.6 C 271.267 1681.89 311.53 1704.32 341.071 1743.17 C 367.441 1777.84 375.866 1810.33 375.875 1853.02 C 310.803 1800.67 223.726 1764.94 141.845 1750.29 C 116.593 1746.65 97.3105 1745.31 71.8714 1744.78 z" fill="rgb(137,98,174)" transform="translate(0,0)"></path>
<path d="M 71.8714 1744.78 C 110.604 1693.18 158.51 1670.42 223.036 1675.6 C 199.283 1676.95 151.468 1728.86 141.845 1750.29 C 116.593 1746.65 97.3105 1745.31 71.8714 1744.78 z" fill="rgb(106,78,161)" transform="translate(0,0)"></path>
<path d="M 139.838 1752.52 C 214.557 1765.33 285.711 1793.84 348.605 1836.16 C 361.494 1844.77 389.684 1860.37 386.455 1878.06 C 385.162 1884.86 381.166 1890.83 375.383 1894.62 C 372.015 1896.85 362.257 1899.93 359.402 1897.88 C 288.671 1847.28 213.002 1808.66 124.743 1795.95 C 126.418 1782.56 134.05 1764.72 139.838 1752.52 z" fill="rgb(251,204,25)" transform="translate(0,0)"></path>
<path d="M 48.9366 1791.47 C 47.985 1790.47 47.0802 1789.43 46.2253 1788.34 C 42.6502 1783.88 41.0183 1779.13 41.9222 1773.44 C 46.4717 1744.79 74.327 1746.75 96.4587 1748.09 C 111.934 1749.03 125.032 1750.51 139.838 1752.52 C 134.05 1764.72 126.418 1782.56 124.743 1795.95 C 97.5084 1792.57 76.1578 1791.85 48.9366 1791.47 z" fill="rgb(242,156,19)" transform="translate(0,0)"></path>
<path d="M 888.058 1814.9 C 898.584 1814.18 918.87 1814.93 930.159 1815.05 L 1017.39 1816.23 C 1021.15 1816.16 1033.87 1815.91 1036.81 1816.78 C 1053.68 1816.8 1070.54 1817.01 1087.41 1817.39 C 1102.1 1817.65 1135.64 1815.67 1135.82 1838.57 C 1136.14 1880.79 1137.54 1924.61 1134.74 1966.57 C 1134.17 1975.13 1089.46 2006.44 1080.28 2012.36 C 1071.42 2013.13 1052.36 2012.28 1042.97 2012.09 C 1016.83 2011.54 990.699 2010.75 964.572 2009.74 C 927.966 2008.45 891.205 2007.92 854.565 2006.91 C 843.16 2006.84 832.482 1999.94 832.735 1987.37 C 833.532 1947.73 830.086 1902.55 832.925 1863.38 C 842.668 1853.56 877.014 1822.57 888.058 1814.9 z" fill="rgb(28,13,5)" transform="translate(0,0)"></path>
<path d="M 1017.39 1816.23 C 1021.15 1816.16 1033.87 1815.91 1036.81 1816.78 C 1036.36 1816.94 1035.82 1817.08 1035.48 1817.39 C 1038.19 1818.25 1051.75 1818.22 1053.65 1818.88 C 1068.24 1819.52 1082.86 1819.62 1097.46 1819.85 C 1113.61 1820.1 1121.87 1819.8 1132.5 1832.8 C 1119.33 1842.98 1102.57 1854.47 1088.64 1864.99 C 1023.82 1864.8 958.667 1861.71 893.833 1861.04 C 875.599 1860.85 857.491 1860.86 839.264 1859.95 C 850.57 1850.33 878.663 1823.79 889.808 1816.72 C 934.147 1817.61 978.493 1818.08 1022.84 1818.15 C 1022.98 1817.96 1023.11 1817.78 1023.25 1817.59 C 1023.08 1817.47 1018.32 1816.48 1017.39 1816.23 z" fill="rgb(228,59,55)" transform="translate(0,0)"></path>
<path d="M 1017.39 1816.23 C 1021.15 1816.16 1033.87 1815.91 1036.81 1816.78 C 1036.36 1816.94 1035.82 1817.08 1035.48 1817.39 C 1038.19 1818.25 1051.75 1818.22 1053.65 1818.88 C 1049.67 1819.3 1026.15 1819.05 1022.84 1818.15 C 1022.98 1817.96 1023.11 1817.78 1023.25 1817.59 C 1023.08 1817.47 1018.32 1816.48 1017.39 1816.23 z" fill="rgb(80,20,18)" transform="translate(0,0)"></path>
<path d="M 835.516 1863.04 C 864.107 1861.76 904.14 1863.89 933.196 1864.58 C 984.014 1865.41 1034.83 1866.51 1085.63 1867.88 L 1085.79 1955.23 C 1085.8 1965.08 1087.24 2000.65 1083.7 2007.73 C 1076.31 2011.88 1036.88 2009.47 1025.59 2009.18 L 930.56 2006.35 C 914.156 2005.78 897.747 2005.34 881.336 2005.02 C 870.78 2004.82 859.559 2004.93 849.06 2003.91 C 842.209 2003.25 838.966 1998.53 835.166 1993.41 C 833.685 1979.08 833.078 1873.96 835.516 1863.04 z" fill="rgb(228,59,55)" transform="translate(0,0)"></path>
<path d="M 1132.2 1836.06 C 1132.34 1836.19 1132.51 1836.3 1132.61 1836.46 C 1135.73 1841.21 1133.94 1950.82 1133.93 1965.91 C 1125.27 1978.2 1102.43 1993.31 1089.62 2002.87 L 1088.85 2002.86 C 1087.45 2000.65 1088.27 1881.14 1088.31 1868.72 C 1102.57 1857.34 1117.21 1846.45 1132.2 1836.06 z" fill="rgb(228,59,55)" transform="translate(0,0)"></path>
<path d="M 767.437 1657.76 C 746.912 1629.35 738.607 1592.27 743.833 1557.7 C 749.228 1522.26 768.475 1490.41 797.344 1469.15 C 825.871 1448.49 861.396 1439.91 896.212 1445.26 C 930.58 1451.02 961.246 1470.21 981.455 1498.6 C 981.82 1499.06 982.176 1499.52 982.524 1500 C 1003.07 1527.72 1010.7 1564.54 1005.75 1598.43 C 1000.68 1634.08 981.511 1666.22 952.537 1687.61 C 924.165 1708.57 888.599 1717.34 853.736 1711.96 C 818.108 1706.55 788.584 1686.49 767.437 1657.76 z" fill="rgb(28,13,5)" transform="translate(0,0)"></path>
<path d="M 981.228 1501.7 C 1023.19 1559.86 1010.75 1640.92 953.273 1683.81 C 895.8 1726.7 814.549 1715.56 770.74 1658.79 C 726.931 1602.01 736.764 1520.59 792.829 1475.87 C 848.894 1431.16 930.461 1439.68 976.072 1495.02 C 976.795 1495.9 977.508 1496.79 978.208 1497.68 C 978.532 1498.1 978.854 1498.51 979.173 1498.93 C 979.87 1499.85 980.556 1500.77 981.228 1501.7 z" fill="rgb(228,59,55)" transform="translate(0,0)"></path>
<path d="M 805.902 1570.04 C 810.226 1534.04 841.517 1507.43 877.744 1508.94 C 913.97 1510.45 942.937 1539.58 944.249 1575.81 C 945.561 1612.04 918.775 1643.19 882.753 1647.32 C 877.226 1648.61 873.639 1648.69 868.087 1647.44 C 835.466 1644.24 809.519 1618.68 805.845 1586.11 C 804.693 1580.51 804.651 1575.63 805.902 1570.04 z" fill="rgb(28,13,5)" transform="translate(0,0)"></path>
<path d="M 805.902 1570.04 C 805.261 1575.38 805.242 1580.77 805.845 1586.11 C 804.693 1580.51 804.651 1575.63 805.902 1570.04 z" fill="rgb(80,20,18)" transform="translate(0,0)"></path>
<path d="M 868.087 1647.44 C 872.966 1647.91 877.882 1647.87 882.753 1647.32 C 877.226 1648.61 873.639 1648.69 868.087 1647.44 z" fill="rgb(80,20,18)" transform="translate(0,0)"></path>
<path d="M 873.288 1511.31 C 910.134 1510.47 940.767 1539.49 941.916 1576.33 C 943.065 1613.16 914.299 1644.04 877.472 1645.5 C 840.206 1646.97 808.883 1617.79 807.72 1580.51 C 806.558 1543.23 836.003 1512.16 873.288 1511.31 z" fill="rgb(252,252,251)" transform="translate(0,0)"></path>
<path d="M 981.455 1498.6 L 981.228 1501.7 C 980.556 1500.77 979.87 1499.85 979.173 1498.93 L 981.455 1498.6 z" fill="rgb(80,20,18)" transform="translate(0,0)"></path>
<path d="M 1194.42 1534.41 C 1196.42 1534.03 1201.74 1534 1204.03 1533.93 L 1212.64 1538.7 C 1218.62 1548.38 1236.89 1590.3 1242.84 1602.95 L 1277.2 1676.67 C 1281.4 1685.65 1301.25 1724.28 1300.18 1733.93 C 1299.26 1742.21 1277.52 1761.29 1269.8 1768.06 C 1255.8 1768.34 1234.52 1766.55 1220.04 1765.69 L 1127.84 1759.82 C 1106.24 1757.6 1083.69 1757.8 1062.02 1756.05 C 1044.46 1754.63 1013 1758.59 1011.4 1733.71 C 1011.08 1729.3 1012.14 1724.89 1014.43 1721.1 C 1016.99 1716.87 1028.75 1703.27 1032.71 1698.4 C 1047.46 1680.27 1062.34 1662.26 1077.38 1644.37 C 1106.59 1609.61 1136.42 1571.15 1165.99 1537.34 C 1174.9 1536.08 1185.37 1535.3 1194.42 1534.41 z" fill="rgb(28,13,5)" transform="translate(0,0)"></path>
<path d="M 1167.97 1539.47 L 1169.65 1539.65 C 1175.93 1543.41 1253.35 1715.32 1262.56 1735.16 C 1256.2 1735.03 1249.47 1734.63 1243.12 1734.15 C 1203.24 1731.15 1162.93 1729.7 1123.11 1726.1 C 1092.23 1724.65 1049.13 1722.43 1019.12 1718.74 C 1054.34 1676.92 1088.91 1632.89 1124.37 1591.14 C 1138.71 1574.26 1153.17 1555.63 1167.97 1539.47 z" fill="rgb(251,204,25)" transform="translate(0,0)"></path>
<path d="M 1199.53 1536.48 C 1203.25 1536.24 1209.38 1538.26 1211.16 1541.66 C 1220.68 1559.83 1229.06 1579.14 1237.78 1597.72 L 1278.31 1684.54 C 1284.39 1697.71 1290.45 1710.87 1296.48 1724.06 C 1302.06 1736.26 1287.91 1749.81 1278.48 1755.92 L 1277.99 1754.6 C 1275.27 1739.96 1270.52 1744.08 1266.04 1735.67 C 1259.9 1724.18 1253.55 1709.69 1248 1697.61 L 1204.95 1604.05 C 1195.22 1583 1184.75 1559.4 1173.52 1539.32 C 1182.72 1537.95 1190.25 1537.2 1199.53 1536.48 z" fill="rgb(242,156,19)" transform="translate(0,0)"></path>
<path d="M 1016.6 1721.92 C 1026.54 1721.76 1045.97 1723.63 1056.74 1724.31 L 1140.4 1729.79 L 1218.78 1734.96 C 1232.56 1735.87 1246.92 1736.54 1260.62 1738.2 C 1264.02 1738.62 1267.56 1740.02 1269.97 1742.63 C 1277.27 1750.54 1276.54 1757.73 1270.1 1764.93 C 1266.21 1765.89 1034.34 1753.2 1025.93 1749.98 C 1021.14 1748.14 1017.22 1743.95 1015.39 1739.22 C 1012.99 1733.03 1013.96 1727.79 1016.6 1721.92 z" fill="rgb(242,156,19)" transform="translate(0,0)"></path>
<path d="M 1221.75 1808.41 C 1241.21 1805.8 1280.51 1808.11 1294.98 1822.59 C 1299.32 1826.93 1298.25 1852.95 1298.27 1859.83 C 1298.39 1894.27 1298.32 1928.77 1298.54 1963.21 C 1298.61 1973.87 1299.01 1985.31 1298.01 1995.81 C 1285.88 2008.4 1268.45 2010.99 1251.76 2012.32 C 1247.36 2012.7 1242.96 2012.95 1238.55 2013.04 C 1222.63 2013.25 1188.48 2009.86 1178.85 1998.03 C 1173.85 1991.88 1175.65 1939.76 1175.64 1929.97 L 1175.22 1826.49 C 1175.61 1825.97 1176.01 1825.45 1176.42 1824.94 C 1186.69 1812.07 1206.25 1810.08 1221.75 1808.41 z" fill="rgb(28,13,5)" transform="translate(0,0)"></path>
<path d="M 1253.58 1849.63 C 1268.57 1847.7 1283.55 1845.64 1295.58 1835.56 L 1295.92 1941.61 C 1295.93 1955.39 1296.77 1982.5 1295.58 1995.2 C 1285.08 2003.91 1274.86 2007.03 1261.41 2008.83 C 1240.82 2012.52 1196.97 2012.21 1180.96 1996.33 C 1176.21 1991.62 1177.96 1947.91 1177.95 1938.58 L 1177.82 1836.21 C 1197.21 1850.07 1230.42 1852.1 1253.58 1849.63 z" fill="rgb(251,204,25)" transform="translate(0,0)"></path>
<path d="M 1253.58 1849.63 C 1268.57 1847.7 1283.55 1845.64 1295.58 1835.56 L 1295.92 1941.61 C 1295.93 1955.39 1296.77 1982.5 1295.58 1995.2 C 1285.08 2003.91 1274.86 2007.03 1261.41 2008.83 C 1260.36 1990.91 1263.05 1855.1 1260.03 1850.21 L 1253.58 1849.63 z" fill="rgb(242,156,19)" transform="translate(0,0)"></path>
<path d="M 1227.68 1810.31 C 1243.46 1809.93 1289.21 1810.3 1294.79 1828.53 C 1294.36 1843.35 1257.65 1846.66 1246.24 1847.71 C 1187.68 1852.28 1137.17 1818.54 1227.68 1810.31 z" fill="rgb(242,156,19)" transform="translate(0,0)"></path>
<metadata><recraft-signature>{"signed_by": "recraft", "signature_b64": "AU1gsDTTtLy07n0Pz4orn/n8Qo4et0krIcWrzm7YZJ2E7oxtMRZAou584wtrA7G7U5USzsmKb1RKxnSWMJJXDw==", "signing_algo": "Ed25519", "generation_timestamp": 1779006924, "identifier": "2b8be488-2c27-4c71-8da6-ac9ea9ba6ae6"}</recraft-signature></metadata></svg>