<svg xmlns="http://www.w3.org/2000/svg" height="1024" preserveAspectRatio="none" style="display: block;" version="1.1" viewBox="0 0 2048 2048" width="1024">
<defs>
	<linearGradient gradientUnits="userSpaceOnUse" id="Gradient1" x1="811.242" x2="740.495" y1="1716.34" y2="1395.94">
		<stop class="stop0" offset="0" stop-color="rgb(6,35,63)" stop-opacity="1"></stop>
		<stop class="stop1" offset="1" stop-color="rgb(9,58,105)" stop-opacity="1"></stop>
	</linearGradient>
</defs>
<path d="M 0 0 L 2048 0 L 2048 2048 L 0 2048 L 0 0 z" fill="rgb(255,255,255)" transform="translate(0,0)"></path>
<path d="M 1150.76 262.641 C 1159.62 240.241 1166.68 227.209 1185.92 211.447 C 1207.6 193.684 1237.64 182.925 1265.81 185.79 C 1318.54 188.711 1346.4 208.829 1373.04 252.901 C 1378.84 252.962 1382.39 252.621 1388.06 252.026 C 1424.57 250.113 1451.86 252.455 1480.8 277.9 C 1512.43 305.718 1514.64 354.493 1485.04 384.577 C 1470.69 399.223 1457.62 403.715 1438.44 408.32 C 1437.73 433.471 1438.34 458.342 1437.96 483.442 C 1466.19 526.373 1477.87 563.954 1480.92 615.664 C 1484.04 668.624 1460.99 713.965 1503.43 757.845 C 1521.53 772.741 1538.81 778.66 1562.67 776.399 C 1568.8 775.757 1574.87 774.658 1580.83 773.11 C 1518.38 824.283 1431.8 834.506 1353.9 827.091 C 1352.62 826.213 1348.64 822.342 1347.28 821.07 C 1324.86 792.882 1285.5 787.373 1251.87 790.116 C 1244.99 792.694 1236.53 793.509 1228.88 796.227 L 1228.03 796.519 C 1225.78 788.935 1222.26 777.727 1220.65 770.238 C 1198.71 767.293 1171.92 760.412 1152.2 750.282 C 1123.48 736.982 1094.91 707.557 1080.71 679.253 C 1077.02 671.898 1071.02 651.279 1063.95 649.708 C 1024.74 642.94 1018.79 603.533 1057.25 584.585 L 1057.67 583.903 C 1054.77 544.613 1062.42 510.78 1075.71 474.328 L 1075.79 472.337 C 1072.39 453.259 1077.88 429.298 1075.1 410.131 C 1075.01 409.542 1049.31 395.608 1044.63 391.014 C 1030.26 376.896 1019.88 360.073 1018.51 339.707 C 1015.31 292.241 1051.6 257.534 1097.27 253.404 C 1116.52 251.674 1132.9 255.937 1150.76 262.641 z" fill="rgb(232,177,142)" transform="translate(0,0)"></path>
<path d="M 1150.76 262.641 C 1159.62 240.241 1166.68 227.209 1185.92 211.447 C 1207.6 193.684 1237.64 182.925 1265.81 185.79 C 1318.54 188.711 1346.4 208.829 1373.04 252.901 C 1378.84 252.962 1382.39 252.621 1388.06 252.026 C 1424.57 250.113 1451.86 252.455 1480.8 277.9 C 1512.43 305.718 1514.64 354.493 1485.04 384.577 C 1470.69 399.223 1457.62 403.715 1438.44 408.32 C 1437.73 433.471 1438.34 458.342 1437.96 483.442 C 1347.05 513.84 1255.43 513.917 1161.16 500.604 L 1151.23 498.798 C 1123.66 493.567 1100.97 486.506 1075.71 474.328 L 1075.79 472.337 C 1072.39 453.259 1077.88 429.298 1075.1 410.131 C 1075.01 409.542 1049.31 395.608 1044.63 391.014 C 1030.26 376.896 1019.88 360.073 1018.51 339.707 C 1015.31 292.241 1051.6 257.534 1097.27 253.404 C 1116.52 251.674 1132.9 255.937 1150.76 262.641 z" fill="rgb(239,238,235)" transform="translate(0,0)"></path>
<path d="M 1388.06 252.026 C 1424.57 250.113 1451.86 252.455 1480.8 277.9 C 1512.43 305.718 1514.64 354.493 1485.04 384.577 C 1470.69 399.223 1457.62 403.715 1438.44 408.32 C 1437.73 433.471 1438.34 458.342 1437.96 483.442 C 1347.05 513.84 1255.43 513.917 1161.16 500.604 L 1151.23 498.798 C 1123.66 493.567 1100.97 486.506 1075.71 474.328 L 1075.79 472.337 C 1076.49 464.443 1076.1 448.46 1076.11 439.936 C 1083.6 443.286 1091.24 446.278 1099.01 448.902 C 1122.28 456.844 1145.88 462.223 1170.12 466.159 C 1210.74 472.755 1331.62 483.866 1368 465.002 C 1394.63 451.194 1375.86 421.28 1382.79 405.888 C 1385.77 399.284 1417.89 393.374 1427.11 388.987 C 1443.33 381.268 1457.35 364.929 1463.25 348.024 C 1469.1 331.234 1467.83 312.782 1459.73 296.955 C 1450.19 277.994 1430.72 264.371 1410.82 258.168 C 1403.35 255.838 1396.14 254.734 1388.97 252.339 L 1388.06 252.026 z" fill="rgb(217,216,214)" transform="translate(0,0)"></path>
<path d="M 1265.81 185.79 C 1318.54 188.711 1346.4 208.829 1373.04 252.901 C 1372.35 253.14 1368.33 254.567 1368.31 254.591 C 1364.88 262.258 1368.96 273.017 1363.93 281.088 C 1358.62 289.609 1354.02 290.447 1345.84 292.877 C 1343.86 267.685 1345.32 256.01 1329.99 231.749 C 1317.15 211.422 1293.52 196.193 1270.51 189.372 C 1267.4 188.452 1268.25 189.214 1264.44 187.511 L 1265.81 185.79 z" fill="rgb(217,216,214)" transform="translate(0,0)"></path>
<path d="M 1161.16 500.604 C 1255.43 513.917 1347.05 513.84 1437.96 483.442 C 1466.19 526.373 1477.87 563.954 1480.92 615.664 C 1484.04 668.624 1460.99 713.965 1503.43 757.845 C 1521.53 772.741 1538.81 778.66 1562.67 776.399 C 1568.8 775.757 1574.87 774.658 1580.83 773.11 C 1518.38 824.283 1431.8 834.506 1353.9 827.091 C 1352.62 826.213 1348.64 822.342 1347.28 821.07 C 1324.86 792.882 1285.5 787.373 1251.87 790.116 C 1249.35 784.058 1247.74 777.643 1245.24 772.012 C 1247.6 770.745 1263.29 770.218 1268.28 769.348 C 1292.66 765.099 1310.94 758.859 1332.11 746.317 C 1334.79 743.825 1346.31 736.304 1351.21 731.968 C 1372.26 713.362 1389.72 691.799 1398.61 664.981 C 1409.66 665.153 1421.1 657.989 1427.93 649.654 C 1434.05 642.265 1436.8 632.645 1435.5 623.136 C 1430.9 588.694 1388.06 576.35 1364.74 608.015 C 1352.39 603.162 1329.42 597.611 1315.8 593.914 C 1255.77 577.626 1196.86 555.186 1161.16 500.604 z" fill="rgb(83,56,21)" transform="translate(0,0)"></path>
<path d="M 1463.39 700.978 C 1465.12 706.623 1465.57 712.239 1466.4 718.071 C 1468.7 734.25 1477.53 747.938 1491.21 756.984 C 1495.04 757.126 1499.73 757.126 1503.43 757.845 C 1521.53 772.741 1538.81 778.66 1562.67 776.399 C 1568.8 775.757 1574.87 774.658 1580.83 773.11 C 1518.38 824.283 1431.8 834.506 1353.9 827.091 C 1352.62 826.213 1348.64 822.342 1347.28 821.07 C 1324.86 792.882 1285.5 787.373 1251.87 790.116 C 1249.35 784.058 1247.74 777.643 1245.24 772.012 C 1247.6 770.745 1263.29 770.218 1268.28 769.348 C 1292.66 765.099 1310.94 758.859 1332.11 746.317 C 1336.43 751.172 1341.11 760.215 1346.59 764.332 C 1383.13 791.787 1450.83 795.681 1493.37 783.439 C 1461.28 757.874 1461.79 739.755 1463.39 700.978 z" fill="rgb(60,39,18)" transform="translate(0,0)"></path>
<path d="M 1152.2 750.282 C 1157.42 747.684 1178.87 754.929 1186.25 755.751 C 1253.42 763.232 1322.43 731.313 1349.8 667.397 C 1353.63 658.475 1357.13 648.463 1360.58 639.004 C 1372.41 658.85 1376.21 660.692 1398.61 664.981 C 1389.72 691.799 1372.26 713.362 1351.21 731.968 C 1346.31 736.304 1334.79 743.825 1332.11 746.317 C 1310.94 758.859 1292.66 765.099 1268.28 769.348 C 1263.29 770.218 1247.6 770.745 1245.24 772.012 C 1247.74 777.643 1249.35 784.058 1251.87 790.116 C 1244.99 792.694 1236.53 793.509 1228.88 796.227 L 1228.03 796.519 C 1225.78 788.935 1222.26 777.727 1220.65 770.238 C 1198.71 767.293 1171.92 760.412 1152.2 750.282 z" fill="rgb(191,142,95)" transform="translate(0,0)"></path>
<path d="M 1220.65 770.238 C 1223.72 770.061 1242.23 770.859 1244.46 771.716 L 1245.24 772.012 C 1247.74 777.643 1249.35 784.058 1251.87 790.116 C 1244.99 792.694 1236.53 793.509 1228.88 796.227 L 1228.03 796.519 C 1225.78 788.935 1222.26 777.727 1220.65 770.238 z" fill="rgb(213,169,123)" transform="translate(0,0)"></path>
<path d="M 1075.71 474.328 C 1100.97 486.506 1123.66 493.567 1151.23 498.798 C 1135.76 527.587 1087.97 571.718 1057.67 583.903 C 1054.77 544.613 1062.42 510.78 1075.71 474.328 z" fill="rgb(83,56,21)" transform="translate(0,0)"></path>
<path d="M 1063.95 649.708 C 1024.74 642.94 1018.79 603.533 1057.25 584.585 C 1058.85 592.46 1059.14 603.226 1059.89 611.503 C 1060.33 616.391 1062.06 622.991 1062.26 626.984 C 1062.74 636.296 1073.63 646.854 1063.95 649.708 z" fill="rgb(213,169,123)" transform="translate(0,0)"></path>
<path d="M 552.779 1153.43 C 549.378 1149.17 547.021 1143.19 547.032 1137.7 C 547.075 1131.46 549.61 1125.49 554.073 1121.13 C 557.046 1118.25 562.158 1115.3 566.237 1115.07 C 586.51 1113.95 608.457 1114.09 628.759 1114.09 C 671.123 1114.1 713.696 1113.4 755.98 1114.88 C 769.029 1116.38 793.435 1115.85 806.532 1114.25 C 853.075 1113.24 900.77 1114.46 947.42 1113.99 C 955.751 1113.91 1002.12 1113.6 1007.38 1114.85 C 1020.7 1118.13 1026.09 1131.69 1022.53 1144.22 C 1020.35 1151.71 1015.23 1157.99 1008.32 1161.61 C 999.773 1166.12 992.554 1165.17 983.199 1164.92 C 988.136 1171.98 998.688 1187.92 1001.62 1196.01 C 1009.11 1193.86 1017.94 1191.49 1025.45 1189.69 L 1029.49 1188.75 C 1038.64 1186.68 1050.23 1184 1059.51 1183.61 C 1080.07 1182.74 1086.66 1198.01 1084.01 1215.34 C 1076.7 1231.09 1065.45 1229.03 1049.9 1229.15 C 1038.37 1229.23 1026.62 1228.5 1015.12 1228.8 C 1033.23 1303.77 1010.05 1377.54 942.901 1420.78 C 935.172 1425.75 926.216 1429.83 918.715 1434.82 C 883.684 1435.59 846.56 1434.92 811.408 1434.88 L 630.742 1434.69 L 644.052 1433.95 C 630.463 1427.92 623.778 1424.26 611.835 1415.45 C 599.163 1407.71 579.583 1384.79 571.637 1372.2 C 541.059 1323.75 537.178 1282.57 548.701 1228.1 C 535.248 1227.78 521.468 1228.15 507.998 1228.07 C 493.443 1227.99 490.107 1227.65 483.642 1214.65 L 483.231 1213.83 C 476.557 1166.83 539.125 1189 562.14 1195.99 C 567.538 1186.92 574.69 1174.39 581.767 1166.93 L 582.259 1165.44 C 579.415 1161.7 566.367 1167.69 552.779 1153.43 z" fill="rgb(237,117,101)" transform="translate(0,0)"></path>
<path d="M 552.779 1153.43 C 549.378 1149.17 547.021 1143.19 547.032 1137.7 C 547.075 1131.46 549.61 1125.49 554.073 1121.13 C 557.046 1118.25 562.158 1115.3 566.237 1115.07 C 586.51 1113.95 608.457 1114.09 628.759 1114.09 C 671.123 1114.1 713.696 1113.4 755.98 1114.88 C 769.029 1116.38 793.435 1115.85 806.532 1114.25 C 853.075 1113.24 900.77 1114.46 947.42 1113.99 C 955.751 1113.91 1002.12 1113.6 1007.38 1114.85 C 1020.7 1118.13 1026.09 1131.69 1022.53 1144.22 C 1020.35 1151.71 1015.23 1157.99 1008.32 1161.61 C 999.773 1166.12 992.554 1165.17 983.199 1164.92 C 988.136 1171.98 998.688 1187.92 1001.62 1196.01 C 1009.11 1193.86 1017.94 1191.49 1025.45 1189.69 L 1029.49 1188.75 C 1038.64 1186.68 1050.23 1184 1059.51 1183.61 C 1080.07 1182.74 1086.66 1198.01 1084.01 1215.34 C 1076.7 1231.09 1065.45 1229.03 1049.9 1229.15 C 1038.37 1229.23 1026.62 1228.5 1015.12 1228.8 C 1033.23 1303.77 1010.05 1377.54 942.901 1420.78 C 935.172 1425.75 926.216 1429.83 918.715 1434.82 C 883.684 1435.59 846.56 1434.92 811.408 1434.88 L 630.742 1434.69 L 644.052 1433.95 C 630.463 1427.92 623.778 1424.26 611.835 1415.45 C 616.911 1412.68 638.523 1413.96 646.156 1413.98 L 767.136 1413.99 C 790.913 1413.99 830.044 1415.29 851.541 1410.86 C 873.527 1406.32 894.164 1396.76 911.839 1382.91 C 942.949 1358.62 963.057 1322.9 967.686 1283.71 C 972.395 1242.65 960.276 1203.18 934.773 1170.91 C 906.814 1170.37 876.639 1171 848.466 1170.99 L 667.11 1170.99 C 643.729 1171 608.068 1171.62 584.196 1170.23 C 583.019 1170.16 582.503 1168.34 581.767 1166.93 L 582.259 1165.44 C 579.415 1161.7 566.367 1167.69 552.779 1153.43 z" fill="rgb(225,73,30)" transform="translate(0,0)"></path>
<path d="M 552.779 1153.43 C 549.378 1149.17 547.021 1143.19 547.032 1137.7 C 547.075 1131.46 549.61 1125.49 554.073 1121.13 C 557.046 1118.25 562.158 1115.3 566.237 1115.07 C 586.51 1113.95 608.457 1114.09 628.759 1114.09 C 671.123 1114.1 713.696 1113.4 755.98 1114.88 C 769.029 1116.38 793.435 1115.85 806.532 1114.25 C 853.075 1113.24 900.77 1114.46 947.42 1113.99 C 955.751 1113.91 1002.12 1113.6 1007.38 1114.85 C 998.743 1115.16 990.099 1115.25 981.456 1115.14 C 987.175 1122.78 990.172 1128.34 988.903 1138.28 C 987.6 1148.47 978.703 1152.8 969.298 1153.07 C 955.529 1153.45 941.633 1153.11 927.854 1153.01 C 906.122 1152.89 884.389 1152.92 862.657 1153.1 L 625.013 1153.09 L 578.211 1153.07 C 571.449 1153.06 559.041 1152.7 552.779 1153.43 z" fill="rgb(237,117,101)" transform="translate(0,0)"></path>
<path d="M 1001.62 1196.01 C 1009.11 1193.86 1017.94 1191.49 1025.45 1189.69 L 1029.49 1188.75 C 1038.64 1186.68 1050.23 1184 1059.51 1183.61 C 1080.07 1182.74 1086.66 1198.01 1084.01 1215.34 C 1071.96 1212.79 1025.21 1214.05 1009.37 1213.72 C 1006.78 1207.83 1004.38 1201.87 1001.62 1196.01 z" fill="rgb(237,117,101)" transform="translate(0,0)"></path>
<path d="M 483.231 1213.83 C 496.417 1212.14 539.231 1212.99 554.467 1213.05 C 552.838 1217.3 550.921 1224.8 548.701 1228.1 C 535.248 1227.78 521.468 1228.15 507.998 1228.07 C 493.443 1227.99 490.107 1227.65 483.642 1214.65 L 483.231 1213.83 z" fill="rgb(225,73,30)" transform="translate(0,0)"></path>
<path d="M 1251.87 790.116 C 1285.5 787.373 1324.86 792.882 1347.28 821.07 C 1348.64 822.342 1352.62 826.213 1353.9 827.091 C 1426.88 907.774 1452.94 1084.42 1440.49 1189.02 C 1423.75 1188.88 1406.63 1188.54 1389.94 1188.97 L 1152.22 1189.03 L 1121.31 1189.23 C 1121.2 1157.14 1120.66 1123.68 1121.93 1091.74 C 1122.57 1077.09 1123.29 1062.44 1124.08 1047.8 C 1092.61 1048.79 1062.11 1036.95 1031.52 1029.96 C 993.293 1021.22 954.231 1009.43 916.168 1000.88 C 919.093 990.947 922.862 980.987 926.384 971.224 C 934.568 947.185 943.469 923.572 951.573 899.332 C 952.659 896.303 953.746 892.277 954.703 889.119 C 1008.25 901.047 1062 914.239 1115.43 926.802 C 1125.41 921.267 1134.4 916.307 1144.02 910.122 C 1157.23 857.553 1174.94 818.72 1228.03 796.519 L 1228.88 796.227 C 1236.53 793.509 1244.99 792.694 1251.87 790.116 z" fill="rgb(225,73,30)" transform="translate(0,0)"></path>
<path d="M 1124.08 1047.8 C 1145.43 1040.25 1160.23 1030.22 1179.51 1018.86 C 1202.19 1005.45 1224.77 991.873 1247.25 978.131 C 1266.38 966.506 1287.83 954.21 1306.05 941.251 C 1312.07 936.964 1316.92 930.211 1320.02 923.472 C 1326.21 909.894 1326.71 894.404 1321.42 880.451 C 1311.24 854.382 1273.63 837.924 1249.06 850.049 C 1220.85 863.966 1192.83 883.946 1164.32 898.059 C 1159.71 900.345 1153.2 906.77 1148.61 906.485 C 1150.95 903.577 1160.83 897.342 1164.91 894.356 C 1193.79 873.26 1232.77 836.899 1268.66 831.622 C 1305.12 826.262 1343.41 859.965 1346 895.554 C 1350.32 939.337 1314.29 965.235 1283.16 989.329 C 1235.73 1026.04 1179.61 1073.37 1121.93 1091.74 C 1122.57 1077.09 1123.29 1062.44 1124.08 1047.8 z" fill="rgb(192,46,16)" transform="translate(0,0)"></path>
<path d="M 1347.28 821.07 C 1348.64 822.342 1352.62 826.213 1353.9 827.091 C 1426.88 907.774 1452.94 1084.42 1440.49 1189.02 C 1423.75 1188.88 1406.63 1188.54 1389.94 1188.97 C 1389.19 1184.84 1391.32 1176.07 1392.29 1171.6 C 1399.05 1140.44 1402.65 1110.76 1403.38 1078.85 C 1405.43 1010.12 1394.53 941.614 1371.24 876.918 C 1365.14 859.859 1351.26 836.407 1347.28 821.07 z" fill="rgb(192,46,16)" transform="translate(0,0)"></path>
<path d="M 630.742 1434.69 L 811.408 1434.88 C 846.56 1434.92 883.684 1435.59 918.715 1434.82 C 933.655 1434.94 948.597 1434.91 963.536 1434.72 C 990.387 1434.58 1010.22 1432.96 1032.21 1452.75 C 1064.14 1481.47 1051.41 1529.16 1053.99 1567.69 C 1054.86 1580.81 1054.66 1615.18 1051.96 1627.04 C 1049.43 1638.27 1043.94 1648.61 1036.06 1656.99 C 1022.79 1671.03 1006.33 1678.08 987.175 1678.03 C 956.023 1677.94 924.765 1677.82 893.623 1677.79 L 705.351 1677.91 L 608.768 1678.11 C 592.467 1678.16 569.238 1679.91 553.808 1676.98 C 516.29 1669.87 499.835 1642.46 499.443 1607.51 L 499.269 1549.18 C 499.153 1531.61 497.747 1499.28 501.719 1483.71 C 504.583 1472.48 510.44 1462.24 518.665 1454.08 C 539.304 1433.39 561.508 1434.77 588.341 1434.72 L 630.742 1434.69 z" fill="url(#Gradient1)" transform="translate(0,0)"></path>
<path d="M 564.498 1484.97 L 825.604 1484.96 C 873.789 1484.98 922.159 1485.11 970.355 1484.86 C 972.844 1484.84 978.553 1485.42 980.779 1486.64 C 983.823 1488.32 983.412 1488.64 984.188 1491.35 C 983.218 1495 982.363 1495.33 979.494 1497.75 C 964.505 1498.58 943.187 1497.9 927.791 1497.86 L 833.681 1497.7 L 572.248 1497.23 C 567.148 1497.18 561.995 1497.67 560.131 1492.25 C 560.848 1488.48 561.926 1487.79 564.498 1484.97 z" fill="rgb(237,117,101)" transform="translate(0,0)"></path>
<path d="M 1389.94 1188.97 C 1406.63 1188.54 1423.75 1188.88 1440.49 1189.02 C 1436.46 1208.93 1430.21 1225.9 1413.79 1239.13 C 1408.87 1243.1 1402.13 1246.97 1397.62 1250.78 C 1395.43 1264.25 1395.93 1268.06 1397.58 1281.82 C 1408.87 1353.92 1416.54 1426.87 1428.11 1498.97 C 1429.28 1506.22 1430.09 1514.03 1430.64 1521.35 C 1426.08 1522.76 1421.53 1524.22 1417 1525.73 L 1363.83 1543.74 C 1355.69 1546.52 1338.29 1552.06 1331.65 1556.03 C 1331.33 1555.93 1331 1555.88 1330.7 1555.73 C 1325.98 1553.29 1297.96 1482.15 1293.2 1471.67 C 1279.53 1494.94 1267.49 1518.66 1254.16 1542.05 C 1251.09 1547.41 1243.28 1563.09 1240.27 1567.32 L 1229.81 1566.76 L 1210.47 1566.8 C 1198.33 1566.82 1151.08 1565.8 1142.1 1567.61 L 1137.99 1566.72 C 1135.88 1563.47 1137.03 1550.56 1137.24 1546.07 C 1138.81 1513.01 1140.31 1479.95 1141.91 1446.9 L 1147.61 1309.67 C 1149.31 1269.93 1151.6 1228.68 1152.22 1189.03 L 1389.94 1188.97 z" fill="rgb(223,203,103)" transform="translate(0,0)"></path>
<path d="M 1397.58 1281.82 C 1408.87 1353.92 1416.54 1426.87 1428.11 1498.97 C 1429.28 1506.22 1430.09 1514.03 1430.64 1521.35 C 1426.08 1522.76 1421.53 1524.22 1417 1525.73 L 1363.83 1543.74 C 1355.69 1546.52 1338.29 1552.06 1331.65 1556.03 C 1331.33 1555.93 1331 1555.88 1330.7 1555.73 C 1325.98 1553.29 1297.96 1482.15 1293.2 1471.67 C 1295.56 1464.07 1312.3 1436.53 1316.8 1428.18 L 1367.23 1336.49 C 1377.29 1318.23 1386.76 1299.64 1397.58 1281.82 z" fill="rgb(223,203,103)" transform="translate(0,0)"></path>
<path d="M 1389.94 1188.97 C 1406.63 1188.54 1423.75 1188.88 1440.49 1189.02 C 1436.46 1208.93 1430.21 1225.9 1413.79 1239.13 C 1408.87 1243.1 1402.13 1246.97 1397.62 1250.78 C 1395.43 1264.25 1395.93 1268.06 1397.58 1281.82 C 1386.76 1299.64 1377.29 1318.23 1367.23 1336.49 L 1316.8 1428.18 C 1312.3 1436.53 1295.56 1464.07 1293.2 1471.67 C 1279.53 1494.94 1267.49 1518.66 1254.16 1542.05 C 1251.09 1547.41 1243.28 1563.09 1240.27 1567.32 L 1229.81 1566.76 L 1210.47 1566.8 C 1220.07 1544.66 1232.26 1520.69 1242.58 1498.43 L 1349.85 1271.66 C 1361.08 1247.84 1374.15 1224.79 1385.11 1200.81 C 1386.96 1196.75 1388.8 1193.33 1389.94 1188.97 z" fill="rgb(197,175,79)" transform="translate(0,0)"></path>
<path d="M 1417 1525.73 C 1421.53 1524.22 1426.08 1522.76 1430.64 1521.35 C 1431.84 1529.01 1432.62 1534 1435.75 1541.32 C 1451.84 1552.1 1464.61 1562.07 1468.97 1582.37 C 1473.86 1602.6 1462.36 1627.21 1443.17 1635.8 C 1427.4 1642.85 1408.94 1649.71 1392.35 1655.41 C 1362.7 1665.6 1327.06 1683.54 1296.89 1690.96 C 1290.07 1687.93 1285.31 1686.22 1282.49 1678.61 C 1282.03 1677.35 1281.62 1676.08 1281.25 1674.79 C 1274.11 1646.07 1281.54 1615.98 1304.99 1596.94 C 1318.96 1585.6 1347.54 1578.87 1331.65 1556.03 C 1338.29 1552.06 1355.69 1546.52 1363.83 1543.74 L 1417 1525.73 z" fill="rgb(83,149,169)" transform="translate(0,0)"></path>
<path d="M 1417 1525.73 C 1421.53 1524.22 1426.08 1522.76 1430.64 1521.35 C 1431.84 1529.01 1432.62 1534 1435.75 1541.32 C 1451.84 1552.1 1464.61 1562.07 1468.97 1582.37 C 1473.86 1602.6 1462.36 1627.21 1443.17 1635.8 C 1427.4 1642.85 1408.94 1649.71 1392.35 1655.41 C 1362.7 1665.6 1327.06 1683.54 1296.89 1690.96 C 1290.07 1687.93 1285.31 1686.22 1282.49 1678.61 C 1282.03 1677.35 1281.62 1676.08 1281.25 1674.79 C 1285.22 1668.55 1399.41 1633.22 1413.52 1621.19 C 1450.49 1589.65 1423.47 1558.43 1417 1525.73 z" fill="rgb(59,123,144)" transform="translate(0,0)"></path>
<path d="M 1210.47 1566.8 L 1229.81 1566.76 L 1240.27 1567.32 C 1238.6 1573.09 1238.57 1576.24 1238.42 1582.15 C 1250.46 1601.48 1262.4 1614.29 1256.13 1639.8 C 1252.76 1653.42 1243.96 1665.07 1231.78 1672.02 C 1216.6 1680.6 1197.05 1679.35 1180.04 1679.01 C 1141.63 1678.23 1102.8 1679.64 1064.44 1678.83 C 1054.61 1672.18 1052.76 1668.93 1052.7 1657.18 C 1053.11 1646.24 1056.57 1635.8 1062.13 1626.41 C 1086.05 1585.97 1131.07 1592.96 1140.07 1578.99 C 1142.31 1575.52 1142.85 1571.62 1142.1 1567.61 C 1151.08 1565.8 1198.33 1566.82 1210.47 1566.8 z" fill="rgb(83,149,169)" transform="translate(0,0)"></path>
<path d="M 1229.81 1566.76 L 1240.27 1567.32 C 1238.6 1573.09 1238.57 1576.24 1238.42 1582.15 C 1250.46 1601.48 1262.4 1614.29 1256.13 1639.8 C 1252.76 1653.42 1243.96 1665.07 1231.78 1672.02 C 1216.6 1680.6 1197.05 1679.35 1180.04 1679.01 C 1141.63 1678.23 1102.8 1679.64 1064.44 1678.83 C 1054.61 1672.18 1052.76 1668.93 1052.7 1657.18 C 1091.41 1653.68 1136.37 1656.25 1175.47 1655.21 C 1194.13 1654.71 1203.66 1651.81 1217.9 1637.73 C 1236.61 1619.23 1230.35 1591.96 1229.81 1566.76 z" fill="rgb(59,123,144)" transform="translate(0,0)"></path>
<path d="M 844.081 930.343 C 849.794 931.573 853.341 934.049 857.916 937.652 C 862.288 939.849 869.451 941.422 872.323 944.743 C 869.12 953.297 865.705 957.183 861.669 964.743 C 880.167 1083.85 796.874 1111.75 796.649 1113.75 C 800.685 1114.26 802.436 1114.29 806.532 1114.25 C 793.435 1115.85 769.029 1116.38 755.98 1114.88 C 731.997 1099.83 726.425 1081.32 728.161 1054.61 C 730.763 1010.25 766.665 978.064 804.558 960.396 C 824.552 951.074 833.206 951.091 844.081 930.343 z" fill="rgb(213,169,123)" transform="translate(0,0)"></path>
<path d="M 857.916 937.652 C 862.288 939.849 869.451 941.422 872.323 944.743 C 869.12 953.297 865.705 957.183 861.669 964.743 C 846.738 968.444 852.89 945.295 857.916 937.652 z" fill="rgb(191,142,95)" transform="translate(0,0)"></path>
<path d="M 818.289 978.165 C 822.665 977.888 831.023 977.478 834.29 980.221 C 854.821 997.464 832.892 1046.84 821.535 1063.43 C 809.979 1080.3 792.908 1090.93 773.99 1094.36 C 715.208 1091.55 764.749 988.517 818.289 978.165 z" fill="rgb(191,142,95)" transform="translate(0,0)"></path>
<path d="M 826.433 911.667 C 827.969 904.912 828.677 903.623 832.544 898.024 C 827.442 883.15 829.788 884.54 840.737 876.394 C 840.793 875.005 840.858 873.448 840.459 872.167 C 837.205 861.737 847.394 858.6 854.883 855.97 C 857.797 854.947 856.53 844.939 863.734 841.389 C 870.189 841.36 879.164 845.216 885.341 847.632 C 887.452 851.909 897.836 855.224 902.697 857.186 C 908.6 860.27 913.535 863.317 919.194 866.808 C 930.854 870.728 934.925 873.217 942.16 883.839 C 944.777 887.682 948.364 898.552 951.573 899.332 C 943.469 923.572 934.568 947.185 926.384 971.224 C 920.029 966.73 909.046 956.485 903.43 954.057 C 894.718 950.292 881.579 951.083 872.323 944.743 C 869.451 941.422 862.288 939.849 857.916 937.652 C 853.341 934.049 849.794 931.573 844.081 930.343 C 835.577 925.55 830.649 920.367 826.433 911.667 z" fill="rgb(232,177,142)" transform="translate(0,0)"></path>
<path d="M 885.341 847.632 C 905.294 807.484 927.992 767.737 947.464 727.294 C 957.445 706.564 977.681 662.264 1006.63 690.99 C 1014.55 703.005 1013.64 711.948 1006.58 724.3 C 1000.09 735.649 992.683 746.747 985.696 757.795 C 969.649 783.153 953.902 808.7 938.457 834.429 C 932.91 843.609 923.387 857.516 919.194 866.808 C 913.535 863.317 908.6 860.27 902.697 857.186 C 897.836 855.224 887.452 851.909 885.341 847.632 z" fill="rgb(213,169,123)" transform="translate(0,0)"></path>
<path d="M 1006.63 690.99 C 1014.55 703.005 1013.64 711.948 1006.58 724.3 C 1000.09 735.649 992.683 746.747 985.696 757.795 C 969.649 783.153 953.902 808.7 938.457 834.429 C 932.91 843.609 923.387 857.516 919.194 866.808 C 913.535 863.317 908.6 860.27 902.697 857.186 C 911.364 846.505 922.029 826.301 930.009 813.993 C 956.093 773.761 980.466 731.057 1006.63 690.99 z" fill="rgb(191,142,95)" transform="translate(0,0)"></path>
<metadata><recraft-signature>{"signed_by": "recraft", "signature_b64": "3cZlvVW+5S/8uhYzWEjR46OUhQ/quQXFgQXTR5avaZKPjHBLptMWDpWlMGScLXwqX6ULEDRQMupplrQNn0TLBg==", "signing_algo": "Ed25519", "generation_timestamp": 1779006908, "identifier": "ac4aa11c-8081-4d21-a2d9-67e17e936984"}</recraft-signature></metadata></svg>