<svg xmlns="http://www.w3.org/2000/svg" height="768" preserveAspectRatio="none" style="display: block;" version="1.1" viewBox="0 0 2048 1170" width="1344">
<path d="M 0 0 L 2048 0 L 2048 1170 L 0 1170 L 0 0 z" fill="rgb(255,255,255)" transform="translate(0,0)"></path>
<path d="M 641.255 966.444 C 593.382 950.362 554.678 919.302 531.866 873.745 C 516.777 843.61 512.758 799.213 508.494 765.247 C 503.896 728.611 496.54 687.054 493.172 650.901 C 491.168 629.387 492.528 585.428 492.438 562.856 C 492.351 540.751 491.26 495.329 493.404 474.713 C 496.898 441.11 503.481 402.513 507.911 368.66 C 510.894 345.871 516.664 295.862 523.383 276.054 C 539.163 230.725 572.07 193.379 615.053 172.021 C 637.39 161.099 655.769 157.552 680.197 154.584 C 739.47 147.384 798.623 139.612 857.934 132.656 C 889.324 128.975 919.288 128.446 950.814 127.276 C 1024.3 123.935 1097.92 124.919 1171.28 130.223 C 1212.71 133.605 1260.66 140.207 1301.93 145.503 C 1334.77 149.717 1385.13 154.302 1415.34 164.13 C 1457.92 177.982 1497.63 215.541 1516.96 255.786 C 1532.69 288.532 1534.2 322.329 1539.21 358.317 C 1544.49 396.229 1551.69 437.958 1555.42 475.708 C 1556.8 489.705 1556.23 531.031 1555.86 546.047 C 1555.09 577.454 1557.36 619.057 1555.28 649.566 C 1552.92 684.048 1544.81 726.795 1540.51 761.776 C 1537.71 784.46 1531.89 833.824 1524.92 853.673 C 1508.48 899.369 1474.6 936.69 1430.71 957.466 C 1424.71 960.327 1414.95 964.509 1408.51 965.82 C 1407.71 969.26 1406.29 980.211 1405.38 982.684 C 1400.96 1033.76 1377.25 1035.45 1332.23 1039.41 C 1309.15 1041.43 1283.52 1045.98 1260.4 1045.25 C 1233.93 1044.42 1226.35 1023.31 1217.27 1002.53 L 1211.72 990.012 C 1151.79 993.388 1093.51 997.899 1033.42 996.263 C 1003.11 995.438 972.254 997.15 941.903 996.245 C 909.085 996.221 868.465 990.14 836.319 990.229 C 835.463 992.488 833.724 997.612 832.425 999.267 C 826.633 1018.09 813.591 1044.89 790.614 1044.93 C 754.822 1044.99 717.214 1039.42 681.531 1035.03 C 657.309 1032.05 647.122 1011.92 644.775 990.081 C 643.689 983.018 642.941 972.909 641.255 966.444 z" fill="rgb(8,6,6)" transform="translate(0,0)"></path>
<path d="M 643.346 963.834 C 597.942 950.317 559.789 919.276 537.318 877.571 C 518.684 842.47 516.323 801.915 511.024 762.556 C 506.195 726.686 499.666 686.255 496.197 650.844 C 493.88 627.206 495.529 586.602 495.371 562.031 C 495.217 537.976 494.134 497.205 496.418 474.192 C 499.695 441.173 506.199 403.951 510.687 370.561 C 514.642 341.139 517.787 306.667 525.788 278.626 C 538.33 234.669 573.662 197.542 613.397 176.11 C 647.672 157.623 695.781 156.078 735.201 150.806 L 827.068 139.294 C 842.903 137.349 864.175 133.529 879.763 133.004 C 947.89 130.711 1015.93 125.243 1084.06 129.305 C 1113 131.03 1142.27 130.811 1171.2 133.137 C 1211.32 136.978 1253.78 142.148 1293.86 147.275 L 1352.61 154.913 C 1370.51 157.23 1390.3 159.158 1407.37 164.524 C 1452.7 179.11 1490.47 210.92 1512.56 253.098 C 1529.24 285.374 1531.82 323.764 1536.68 359.991 C 1541.51 396.005 1549.27 439.056 1552.2 474.569 C 1554.32 500.285 1552.45 541.773 1552.69 568.751 C 1552.9 591.978 1553.86 633.151 1551.9 654.66 C 1547.33 687.914 1544.02 722.253 1538.41 755.323 C 1533.69 783.152 1532.21 822.834 1523.43 849.142 C 1503.67 908.336 1461.05 944.19 1404.19 964.543 C 1383.65 969.146 1363.29 970.359 1342.35 972.261 L 1258.22 979.585 C 1247.95 980.466 1212.72 981.853 1207.17 987.2 C 1201.99 986.646 1186.52 988.124 1180.73 988.674 C 1127.13 993.768 1074.4 993.922 1020.59 993.406 C 973.493 992.955 926.297 994.096 879.229 989.923 C 870.114 989.115 848.188 989.142 840.484 986.69 C 839.866 985.612 838.707 983.819 837.361 983.643 C 823.188 981.792 808.498 980.897 794.279 979.753 C 765.001 977.464 735.737 974.992 706.49 972.337 C 685.931 970.435 663.136 968.933 643.346 963.834 z" fill="rgb(252,69,33)" transform="translate(0,0)"></path>
<path d="M 956.679 247.432 C 976.335 246.222 996.641 247.711 1016.9 247.154 C 1122.8 244.24 1230.67 261.349 1333.94 282.455 C 1369.96 292.259 1403.76 327.313 1410.17 364.412 C 1413.83 385.654 1416.34 407.192 1420.55 428.75 C 1439.15 524.078 1438.27 621.425 1418.88 716.568 C 1412.98 749.198 1412.07 779.465 1389.68 806.016 C 1367.83 831.909 1342.08 846.69 1308.02 849.203 C 1297.78 850.906 1286.87 851.696 1276.75 853.683 C 1215.39 865.735 1154.6 871.652 1092.59 878.899 C 1069.45 879.866 1045.95 878.409 1022.97 879.125 C 940.475 881.693 858.607 870.119 777.521 855.853 C 736.742 848.678 705.591 850.593 672.406 821.486 C 658.726 809.374 648.042 794.253 641.194 777.313 C 633.685 758.441 631.327 732.831 628.084 712.382 C 622.775 678.903 618.076 644.81 615.843 610.982 C 612.899 564.823 614.506 518.486 620.64 472.642 C 623.733 449.427 628.557 426.214 632.144 403.051 C 634.256 390.713 634.584 377.475 636.942 365.243 C 643.738 330.725 673.064 297.584 705.843 285.348 C 725.097 278.161 751.77 275.145 772.647 271.513 C 833.348 260.955 895.146 251.45 956.679 247.432 z" fill="rgb(8,6,6)" transform="translate(0,0)"></path>
<path d="M 956.901 250.435 C 1059.77 247.172 1159.35 252.16 1260.57 271.519 C 1284.62 276.119 1309.48 278.908 1333.17 285.292 C 1358.69 292.168 1378.76 309.598 1393.22 331.006 C 1410.09 355.986 1408.33 380.834 1414.08 409.026 C 1418.38 432.613 1422.85 457.04 1425.74 480.86 C 1432.89 540.213 1432.77 600.216 1425.39 659.54 C 1423.09 677.129 1419.09 697.253 1415.98 714.807 C 1409.98 748.534 1410.23 776.191 1387.77 803.779 C 1376.11 818.105 1356.34 833.95 1339.03 839.98 C 1319.13 846.74 1296.73 846.862 1276.27 850.833 C 1215.33 862.661 1154.92 868.728 1093.36 875.879 C 1066.67 876.832 1039.93 875.549 1013.35 876.204 C 934.818 878.139 856.173 866.349 778.92 853.103 C 738.84 846.231 706.811 847.137 674.691 819.069 C 661.374 807.471 650.892 792.975 644.049 776.695 C 636.643 758.577 635.292 737.186 632.051 717.857 C 625.886 681.081 621.157 646.087 618.752 608.828 C 615.972 563.508 617.556 518.025 623.484 473.008 C 626.725 448.801 631.818 423.887 635.735 399.727 C 638.125 385.146 637.775 369.742 642.557 355.64 C 652.974 325.652 677 299.753 706.655 288.142 C 718.58 283.364 731.271 281.488 743.878 279.31 C 814.32 267.145 885.484 254.831 956.901 250.435 z" fill="rgb(254,162,49)" transform="translate(0,0)"></path>
<path d="M 957.549 279.426 C 963.278 279.052 970.439 278.869 976.219 279.016 C 1014.18 279.977 1053.73 277.427 1091.53 279.5 C 1145.43 282.457 1200.06 291.165 1253.43 299.156 C 1273.43 302.15 1295.43 305.804 1314.93 311.277 C 1339.71 319.869 1365.83 342.471 1376.37 366.572 C 1385.51 386.928 1386.88 410.097 1391.03 431.661 C 1407.59 517.825 1408.83 604.884 1392.35 691.188 C 1386.72 725.448 1386.09 753.524 1362.65 780.861 C 1330.46 818.396 1295.72 819.784 1249.89 826.865 C 1198.66 834.78 1145.24 842.798 1093.25 846.951 C 1061.94 848.603 1030.49 847.497 999.154 847.878 C 930.436 848.715 861.279 837.642 793.565 826.939 C 759.631 821.576 724.912 817.81 697.994 794.459 C 685.094 783.264 674.974 769.222 668.435 753.443 C 661.461 736.642 660.562 721.024 657.389 703.497 C 646.619 644.007 641.274 584.16 645.457 523.748 C 647.668 491.825 652.424 461.864 657.863 430.399 C 663.879 395.598 663.742 370.249 688.3 342.235 C 699.491 329.385 713.628 319.439 729.502 313.247 C 746.518 306.515 772.534 302.929 791.313 299.758 C 846.325 290.035 901.815 283.248 957.549 279.426 z" fill="rgb(8,6,6)" transform="translate(0,0)"></path>
<path d="M 953.27 282.421 C 968.323 280.36 990.652 282.369 1006.28 281.83 C 1060.09 279.971 1110.42 282.71 1163.91 289.138 C 1197.84 293.24 1231.67 298.186 1265.36 303.972 C 1306.35 311.088 1334.89 314.642 1362.74 349.594 C 1383.44 375.571 1381.82 399.649 1387.99 430.438 C 1403.32 507.024 1404.73 579.098 1395.27 656.475 L 1390.9 647.738 C 1363.83 593.363 1316.07 552.123 1258.33 533.257 C 1212.63 518.391 1159.01 520.279 1114.1 536.479 C 1103.02 539.742 1092.64 545.758 1081.92 549.728 C 1050.91 561.222 1022.53 576.624 993.087 591.611 C 984.242 541.303 958.744 516.647 911.149 500.13 C 924.414 475.833 940.105 456.089 965.786 444.129 C 974.296 441.115 988.956 436.295 990.232 426.36 C 995.106 388.407 966.44 391.99 943.963 405.581 C 909.144 426.635 888.003 457.482 878.176 495.61 L 851.911 495.898 C 849.43 487.519 846.334 479.335 842.646 471.413 C 828.974 441.852 805.709 414.423 774.542 401.698 C 767.823 398.954 757.847 397.64 751.005 401.042 C 746.635 403.217 743.356 407.097 741.941 411.769 C 732.455 443.602 763.733 442.224 779.28 453.212 C 795.719 464.831 810.032 483.177 819.818 500.664 C 762.473 517.527 727.641 564.091 743.316 624.318 C 715.036 629.618 677.35 641.442 653.362 657.427 C 642.236 585.575 645.694 510.987 659.443 439.751 C 666.18 404.843 664.065 374.648 688.946 345.901 C 718.112 312.202 748.73 309.818 790.023 302.865 C 844.054 293.271 898.541 286.448 953.27 282.421 z" fill="rgb(10,107,75)" transform="translate(0,0)"></path>
<path d="M 1176.75 526.43 C 1204.38 523.387 1243.09 530.155 1268.84 540.307 C 1328.05 563.65 1368.46 605.229 1394.15 662.459 C 1387.92 696.525 1385.98 741.931 1366.71 770.686 C 1335.34 817.507 1288.98 816.937 1239.48 825.431 C 1120.36 845.875 999.566 852.974 879.5 836.234 C 852.605 834.242 818.182 827.49 791.054 823.358 C 778.174 821.396 751.183 816.941 739.842 813.489 C 729.01 810.217 718.732 805.335 709.353 799.006 C 663.04 767.919 665.515 726.873 655.969 678.263 C 764.727 600.299 837.463 665.618 952.816 631.344 C 977.934 623.881 998.371 610.662 1019.47 595.541 C 1074.24 556.283 1107.34 532.321 1176.75 526.43 z" fill="rgb(252,136,159)" transform="translate(0,0)"></path>
<path d="M 1118.94 658.131 C 1141.99 656.366 1170.43 657.813 1193.92 657.551 C 1212.35 657.346 1256.82 655.095 1271.17 662.801 C 1282.09 668.648 1290.21 678.64 1293.7 690.531 C 1301.64 717.428 1284.83 740.394 1258.9 747.527 C 1254.09 748.149 1248.23 748.217 1243.35 748.161 C 1202.9 747.692 1162.31 748.915 1121.9 747.649 C 1116.27 747.473 1110.15 745.478 1105.24 742.769 C 1094.36 736.713 1086.4 726.51 1083.17 714.486 C 1075.93 687.419 1092.76 664.723 1118.94 658.131 z" fill="rgb(8,6,6)" transform="translate(0,0)"></path>
<path d="M 1124.51 660.462 C 1152.46 660.671 1180.41 660.72 1208.35 660.608 C 1219.46 660.549 1245.73 659.802 1255.51 661.242 C 1262.3 662.245 1268.78 664.75 1274.48 668.575 C 1305.96 689.908 1295.32 737.762 1254.08 745.089 L 1168.11 745.114 C 1148.37 745.158 1116.44 748.567 1100.86 736.397 C 1092.01 729.441 1086.31 719.237 1085.03 708.055 C 1083.76 696.487 1087.15 684.891 1094.45 675.826 C 1102.45 665.846 1112.2 661.925 1124.51 660.462 z" fill="rgb(255,255,255)" transform="translate(0,0)"></path>
<path d="M 968.983 398.154 C 986.939 398.716 994.475 418.778 982.962 431.89 C 978.491 436.983 968.209 439.203 961.959 442.348 C 936.137 455.342 919.725 477.131 906.765 502.271 C 963.117 521.231 990.844 550.364 989.879 611.536 C 951.413 635.206 893.832 642.054 849.515 638.532 C 812.869 635.619 786.298 633.65 749.102 636.356 C 741.052 612.808 740.102 595.408 745.746 571.498 C 759.939 531.367 783.919 514.328 823.812 502.729 C 812.973 479.978 793.958 457.602 771.59 445.456 C 763.42 441.075 746.636 439.543 744.481 428.197 C 739.081 399.758 762.454 396.932 781.378 407.888 C 818.078 429.135 838.022 460.133 849.619 499.004 C 859.517 498.437 870.315 498.344 880.291 498.062 C 884.302 482.245 890.721 467.138 899.324 453.271 C 914.64 428.816 940.192 404.832 968.983 398.154 z" fill="rgb(254,162,49)" transform="translate(0,0)"></path>
<path d="M 1402.3 982.738 C 1400.57 1005.54 1393.73 1028.46 1366.98 1031.82 C 1332.94 1036.1 1285.69 1044.74 1251.78 1040.6 C 1233.79 1038.4 1227.19 1015.94 1220.38 1002.46 C 1226.67 1002.59 1260.8 998.126 1269.59 997.304 C 1298.16 994.773 1326.7 991.915 1355.2 988.73 C 1368.73 987.259 1389.32 985.488 1402.3 982.738 z" fill="rgb(252,69,33)" transform="translate(0,0)"></path>
<path d="M 647.713 983.536 L 827.725 1002.04 C 818.728 1023.97 811.671 1043.73 782.498 1042.45 C 759.058 1040.98 734.806 1038.51 711.508 1035.97 C 689.789 1033.61 664.602 1033.9 653.29 1011.69 C 650.317 1005.85 645.716 989.5 647.713 983.536 z" fill="rgb(252,69,33)" transform="translate(0,0)"></path>
<metadata><recraft-signature>{"signed_by": "recraft", "signature_b64": "PKHZr4kGW7Gw+LO30zwDzT5/hFEhnsAv+K030cu9LR4TAa8eRIKCc1im+I7MIRAZqIPbz5Qgj6yRS6j10KBkAA==", "signing_algo": "Ed25519", "generation_timestamp": 1779007116, "identifier": "3622de0b-e8a6-4513-a408-c1e579a987d4"}</recraft-signature></metadata></svg>