<svg xmlns="http://www.w3.org/2000/svg" height="1024" preserveAspectRatio="none" style="display: block;" version="1.1" viewBox="0 0 2048 2048" width="1024">
<path d="M 0 0 L 2048 0 L 2048 1088.16 L 2048 1088.8 L 2048 1117.64 L 2048 1120.16 L 2048 1191.21 L 2048 1191.84 L 2048 1199.04 L 2048 2048 L 0 2048 L 0 0 z" fill="rgb(255,255,255)" transform="translate(0,0)"></path>
<path d="M 1742.38 1264.23 C 1775.23 1263.06 1813.1 1263.98 1846.32 1264 L 1847.12 1264.21 C 1853.99 1265.47 1915.47 1265.07 1923.51 1264.16 C 1938.14 1263.96 2008.59 1262.18 2017.03 1266.48 C 2021.48 1272.59 2030.15 1272.7 2034.16 1286.36 C 2037.89 1297.94 2037.79 1311.52 2032.2 1322.46 C 2029.57 1328.27 2020.58 1336.24 2014 1337.44 C 1998.32 1340.28 1975.86 1339.3 1960.08 1339.4 C 1913.03 1339.72 1865.98 1339.68 1818.93 1339.28 C 1799.18 1339.22 1762.13 1340.54 1744.27 1339.11 C 1739.29 1338.74 1734.47 1337.2 1730.21 1334.61 C 1708.32 1321.34 1709.75 1280.2 1733.09 1269 C 1737.52 1266.88 1741.87 1266.19 1746.63 1265.31 L 1742.38 1264.23 z" fill="rgb(213,94,59)" transform="translate(0,0)"></path>
<path d="M 1750.65 1350.22 C 1764.7 1351.48 1785.47 1350.67 1800 1350.73 C 1833.06 1350.87 1866.97 1349.49 1900.03 1350.27 C 1914.11 1384.62 1924.57 1411.8 1909.54 1448.23 C 1899 1473.78 1879.53 1491.8 1855.6 1505.24 C 1850.63 1508.02 1835.09 1515.29 1831.66 1518.04 C 1815.72 1520.34 1801.66 1515.58 1788.84 1506.08 C 1766.4 1489.47 1765.05 1462.47 1761.71 1437.05 C 1761.36 1436.19 1761.4 1436.34 1761.34 1435.41 L 1760.76 1429.83 C 1760.21 1428.7 1760.31 1428.7 1760.38 1427.38 C 1759.64 1422.65 1759.21 1418.58 1758.74 1413.83 C 1758.8 1412.47 1758.94 1412.44 1758.4 1411.37 L 1755.74 1390.05 C 1755.4 1389.18 1755.44 1389.34 1755.4 1388.4 L 1750.65 1350.22 z" fill="rgb(213,94,59)" transform="translate(0,0)"></path>
<path d="M 1750.65 1350.22 C 1750.5 1345.37 1749.63 1345.44 1751.95 1342.68 C 1755.04 1341.51 1755.69 1341.32 1759.06 1341.3 L 1920.29 1341.94 L 1971.46 1341.8 C 1978.72 1341.77 1992.28 1341.14 1998.66 1342.21 C 2001.36 1347.51 1980.32 1460.72 1978.2 1476.87 C 1977.84 1479.68 1971.42 1490.88 1970.5 1495.07 C 1967.24 1501.86 1957.66 1509.06 1950.81 1512.06 C 1947.92 1511.56 1931.95 1519.26 1925.19 1518.96 C 1895.58 1517.65 1860.79 1521.3 1831.66 1518.04 C 1835.09 1515.29 1850.63 1508.02 1855.6 1505.24 C 1879.53 1491.8 1899 1473.78 1909.54 1448.23 C 1924.57 1411.8 1914.11 1384.62 1900.03 1350.27 C 1866.97 1349.49 1833.06 1350.87 1800 1350.73 C 1785.47 1350.67 1764.7 1351.48 1750.65 1350.22 z" fill="rgb(174,68,40)" transform="translate(0,0)"></path>
<path d="M 1960.01 1112.51 L 1964.62 1112.5 C 1960.1 1123.95 1955.15 1130.83 1948.01 1140.93 C 1969.85 1139.63 1979.53 1123.08 1986.93 1122.07 L 1987.28 1123.45 L 1990.45 1125.12 C 2010.05 1135.23 2024.22 1132.3 2043.13 1124.08 C 2044.72 1122.73 2046.34 1121.42 2048 1120.16 L 2048 1191.21 L 2048 1191.84 L 2048 1199.04 C 2044.66 1201.12 2041.78 1202.53 2038.37 1204.37 L 2037.68 1202.7 C 2025.21 1205.78 2017.36 1210.09 2003.48 1207.21 C 2002.37 1206.98 2001.54 1206.53 2000.42 1206.45 C 1996.58 1206.22 1992.83 1205.22 1989.38 1203.51 C 1984.63 1201.1 1982.82 1200.63 1978.14 1197.91 C 1970.27 1193.94 1957.82 1181.9 1952.09 1175.02 C 1951.04 1174.23 1951.14 1174.37 1950.61 1173.13 C 1947.96 1170.22 1946.69 1167.39 1943.57 1166.27 C 1941.25 1165.03 1941.66 1164.68 1938.84 1165.89 C 1891.59 1186.17 1885.87 1215.43 1888.12 1263.99 C 1898.96 1263.99 1912.93 1263.63 1923.51 1264.16 C 1915.47 1265.07 1853.99 1265.47 1847.12 1264.21 L 1851.3 1263.59 C 1859.73 1264.5 1874.27 1264.02 1883.18 1263.99 C 1881.21 1211.84 1889.35 1180.65 1932.1 1147.77 C 1935.07 1144.83 1936.49 1143.64 1938.74 1140.19 C 1939.61 1138.61 1939.55 1138.44 1940.74 1137.37 C 1947.18 1136.13 1956.69 1118.22 1960.01 1112.51 z" fill="rgb(106,153,115)" transform="translate(0,0)"></path>
<path d="M 2043.13 1124.08 C 2044.72 1122.73 2046.34 1121.42 2048 1120.16 L 2048 1191.21 C 2044.05 1186.47 2042.39 1181.55 2037.24 1175.74 C 2024.38 1161.29 2011.18 1153.38 1992 1150.02 C 1978.59 1147.67 1953.8 1150.01 1943.77 1160 C 1931.85 1162.15 1918.86 1171.21 1908.59 1177.77 C 1919.27 1164.44 1925.82 1161.54 1934.44 1151.76 C 1936.53 1151.05 1939.55 1149.54 1941.65 1148.58 C 1943.11 1145.33 1944.49 1142.45 1948.01 1140.93 C 1969.85 1139.63 1979.53 1123.08 1986.93 1122.07 L 1987.28 1123.45 L 1990.45 1125.12 C 2010.05 1135.23 2024.22 1132.3 2043.13 1124.08 z" fill="rgb(255,255,255)" transform="translate(0,0)"></path>
<path d="M 1986.93 1122.07 L 1987.28 1123.45 C 1978.32 1136.04 1969.34 1141.81 1954.52 1145.25 L 1950.52 1146.18 C 1947.53 1146.86 1944.59 1147.72 1941.65 1148.58 C 1943.11 1145.33 1944.49 1142.45 1948.01 1140.93 C 1969.85 1139.63 1979.53 1123.08 1986.93 1122.07 z" fill="rgb(126,165,126)" transform="translate(0,0)"></path>
<path d="M 1943.77 1160 C 1953.8 1150.01 1978.59 1147.67 1992 1150.02 C 2011.18 1153.38 2024.38 1161.29 2037.24 1175.74 L 2036.96 1177.01 L 2035.58 1176.79 C 2032.71 1173.24 2030.86 1171.4 2027.34 1168.41 C 2026.71 1167.73 2026.95 1167.93 2026.33 1167.5 C 1987.98 1135.4 1943.57 1160.93 1943.79 1161.05 C 1943.62 1160.69 1943.69 1160.97 1943.77 1160 z" fill="rgb(48,61,48)" transform="translate(0,0)"></path>
<path d="M 2037.24 1175.74 C 2042.39 1181.55 2044.05 1186.47 2048 1191.21 L 2048 1191.84 L 2046.66 1193.02 C 2043.25 1187.66 2041.16 1183.57 2037.22 1178.31 L 2036.96 1177.01 L 2037.24 1175.74 z" fill="rgb(48,61,48)" transform="translate(0,0)"></path>
<path d="M 2046.66 1193.02 L 2048 1191.84 L 2048 1199.04 C 2044.66 1201.12 2041.78 1202.53 2038.37 1204.37 L 2037.68 1202.7 C 2043.02 1200.03 2047.66 1199.27 2046.66 1193.02 z" fill="rgb(48,61,48)" transform="translate(0,0)"></path>
<path d="M 1944.9 886.326 C 1966.59 867.142 1994.08 857.896 2022.96 858.75 C 2023.49 901.018 2010.94 933.697 1975.61 957.925 C 1970.79 961.229 1955.18 966.059 1953.19 969.448 C 1948.44 971.47 1947.29 971.738 1942.18 972.636 C 1940.23 971.791 1911.23 972.978 1907.48 973.153 L 1906.07 973.93 C 1906.24 970.183 1906.12 961.443 1906.82 958.535 C 1908.46 957.055 1908.52 955.71 1909.2 953.544 C 1908.86 944.084 1912.06 936.936 1915.25 928.251 C 1917.6 922.052 1924.44 909.608 1929.12 904.822 C 1931.28 901.99 1933.1 899.357 1935.12 896.415 C 1938.3 892.245 1940.87 889.668 1944.9 886.326 z" fill="rgb(106,153,115)" transform="translate(0,0)"></path>
<path d="M 1909.2 953.544 C 1908.91 960.316 1908.33 966.45 1907.48 973.153 L 1906.07 973.93 C 1906.24 970.183 1906.12 961.443 1906.82 958.535 C 1908.46 957.055 1908.52 955.71 1909.2 953.544 z" fill="rgb(94,131,100)" transform="translate(0,0)"></path>
<path d="M 1944.9 886.326 C 1941.27 891.293 1939.89 892.832 1935.12 896.415 C 1938.3 892.245 1940.87 889.668 1944.9 886.326 z" fill="rgb(94,131,100)" transform="translate(0,0)"></path>
<path d="M 1747.54 961.16 C 1773.14 924.075 1821.48 913.144 1858.76 940.379 C 1870.14 948.689 1875.55 956.566 1883.32 968.211 L 1881.68 969.71 C 1881.4 969.418 1881.12 969.126 1880.83 968.834 C 1880.24 968.338 1879.65 967.842 1879.06 967.347 C 1874.49 970.719 1866.52 976.041 1861.96 978.429 C 1847.48 985.939 1831.47 990.007 1815.16 990.317 C 1787.93 990.845 1766.63 979.729 1747.54 961.16 z" fill="rgb(48,61,48)" transform="translate(0,0)"></path>
<path d="M 1878.98 964.652 C 1844.33 991.618 1800.14 998.419 1762.96 971.677 C 1758.99 968.823 1751.57 964.522 1750.62 959.745 C 1751.25 958.508 1751.62 957.656 1752.57 956.607 C 1781.76 924.339 1825.73 915.13 1861.06 944.619 C 1864.07 946.789 1870.02 952.045 1871.91 955.287 C 1874.22 957.926 1876.86 961.762 1878.98 964.652 z" fill="rgb(106,153,115)" transform="translate(0,0)"></path>
<path d="M 1861.06 944.619 C 1864.07 946.789 1870.02 952.045 1871.91 955.287 C 1869.8 954.515 1862.55 946.855 1861.06 944.619 z" fill="rgb(94,131,100)" transform="translate(0,0)"></path>
<path d="M 1675.24 1185.31 C 1676.69 1182.7 1678.24 1180.37 1679.95 1177.93 C 1690.97 1162.38 1707.71 1151.86 1726.49 1148.66 C 1740.28 1146.36 1759.09 1148.38 1771.75 1154.79 C 1777.47 1157.68 1783.63 1163.78 1788.79 1167.43 L 1789.9 1168.22 L 1790.71 1173.69 C 1756.36 1208.85 1715.63 1215.26 1675.24 1185.31 z" fill="rgb(48,61,48)" transform="translate(0,0)"></path>
<path d="M 1694.59 1165.08 C 1717.93 1144.35 1760.21 1144.76 1783.69 1164.98 C 1790.99 1171.27 1785.08 1176.79 1780.01 1180.85 C 1779.52 1181.42 1779.7 1181.25 1779.01 1181.69 C 1748.03 1208.74 1709.7 1208.74 1677.12 1184.3 C 1680.49 1179.69 1682.79 1176.15 1687.05 1172.29 C 1689.93 1168.44 1690.62 1167.85 1694.59 1165.08 z" fill="rgb(106,153,115)" transform="translate(0,0)"></path>
<path d="M 1687.05 1172.29 C 1689.93 1168.44 1690.62 1167.85 1694.59 1165.08 C 1691.73 1168.39 1690.58 1169.68 1687.05 1172.29 z" fill="rgb(94,131,100)" transform="translate(0,0)"></path>
<path d="M 1750.96 1043.65 C 1762.67 1048.66 1770.35 1054.69 1779.05 1063.89 C 1782.79 1067.86 1785.47 1071.58 1789.8 1074.85 C 1791.93 1076.62 1793.79 1080.3 1794.64 1082.88 C 1794.51 1088.35 1798.1 1093.42 1798.74 1099.16 C 1799 1101.49 1799.69 1104.49 1800.08 1106.99 C 1801.64 1116.77 1801.26 1127.2 1799.97 1137 C 1799.57 1140.24 1797.8 1146.19 1798.03 1149.03 L 1797.78 1150.32 C 1797.45 1152.17 1795.75 1152.56 1794.1 1153.43 C 1790.75 1150.61 1783.95 1147.82 1779.89 1145.46 C 1741.38 1122.99 1736.93 1081.47 1750.96 1043.65 z" fill="rgb(106,153,115)" transform="translate(0,0)"></path>
<path d="M 1979.91 1005.29 C 2008.58 1038.76 1999.96 1087.7 1964.62 1112.5 L 1960.01 1112.51 C 1932.14 1079.66 1944.46 1027.75 1979.91 1005.29 z" fill="rgb(48,61,48)" transform="translate(0,0)"></path>
<path d="M 1974.19 1012.01 L 1977.7 1009.15 C 1993.48 1011.36 1997.11 1052.1 1993.78 1065.35 C 1988.5 1086.42 1979.26 1099.14 1962.13 1111.72 C 1941.34 1088.64 1942.26 1047.04 1962.59 1023.74 C 1963.13 1022.6 1963.03 1022.73 1964 1021.89 C 1966.89 1018.38 1969.41 1016.27 1972.76 1013.27 C 1973.48 1012.4 1973.26 1012.56 1974.19 1012.01 z" fill="rgb(106,153,115)" transform="translate(0,0)"></path>
<path d="M 1879.39 930.017 C 1871.28 920.108 1864.06 916.596 1857.93 903.525 C 1847.48 882.016 1848.28 858.397 1861.28 838.2 C 1868.52 826.95 1869.75 828.862 1880.57 838.428 C 1904.64 859.702 1906.38 906.285 1884.93 929.714 C 1883.08 929.827 1881.24 929.928 1879.39 930.017 z" fill="rgb(41,49,41)" transform="translate(0,0)"></path>
<path d="M 1867.61 914.205 C 1850.45 895.399 1845.39 853.213 1868.71 832.457 C 1869.39 831.85 1873.09 834.747 1873.59 835.124 C 1875.51 836.501 1876.76 837.169 1878.09 839.099 C 1879.39 840.358 1880.67 841.635 1881.93 842.929 C 1883.99 844.426 1884.8 845.913 1886.32 848.01 C 1887.4 849.767 1888.51 851.509 1889.63 853.236 C 1890.14 853.956 1889.91 853.582 1890.35 854.359 C 1902.66 877.277 1900.76 906.72 1884.16 927.225 C 1881.02 931.1 1870.09 917.347 1868.4 915.314 C 1867.86 914.711 1867.96 914.873 1867.61 914.205 z" fill="rgb(106,153,115)" transform="translate(0,0)"></path>
<path d="M 1881.93 842.929 C 1883.99 844.426 1884.8 845.913 1886.32 848.01 C 1884.25 846.193 1882.82 845.542 1881.93 842.929 z" fill="rgb(94,131,100)" transform="translate(0,0)"></path>
<path d="M 1873.59 835.124 C 1875.51 836.501 1876.76 837.169 1878.09 839.099 C 1876.44 838.651 1875.81 837.949 1874.79 836.613 L 1873.59 835.124 z" fill="rgb(94,131,100)" transform="translate(0,0)"></path>
<path d="M 1879.39 930.017 C 1881.24 929.928 1883.08 929.827 1884.93 929.714 C 1894.79 949.457 1896.94 959.187 1900.95 980.414 C 1903.72 979.236 1902.45 979.89 1904.54 976.786 L 1905.92 977.522 C 1900.56 993.606 1896.97 1005.95 1892.85 1022.44 C 1887.59 1043.5 1871.85 1064.11 1860.4 1082.11 C 1838.13 1117.5 1827.76 1161.64 1833.7 1203.16 C 1835.77 1217.8 1840.6 1232.52 1845.37 1246.5 C 1846.56 1250.01 1850.7 1260.81 1851.3 1263.59 L 1847.12 1264.21 L 1846.32 1264 C 1838.05 1243.74 1833.64 1225.94 1827.59 1205.35 C 1823.89 1192.8 1802.9 1178.51 1790.71 1173.69 L 1789.9 1168.22 C 1802.77 1173.83 1807.94 1177.59 1819.4 1185.83 C 1819.56 1188.6 1828.69 1192.84 1826.95 1184.02 C 1821.83 1155.78 1838.8 1108.84 1853.03 1085.09 C 1863.62 1067.4 1874.99 1051.22 1883.46 1032 C 1895.37 1004.97 1891.7 995.369 1881.68 969.71 L 1883.32 968.211 C 1888.06 973.7 1891.63 981.548 1894.88 988.072 C 1893.11 961.551 1892.38 954.142 1879.39 930.017 z" fill="rgb(106,153,115)" transform="translate(0,0)"></path>
<path d="M 1936.74 1124.26 C 1935.97 1124.45 1935.19 1124.63 1934.43 1124.84 C 1923.68 1127.79 1914.92 1127.24 1904.57 1122.84 C 1894.11 1118.4 1886.19 1110.01 1882.08 1099.49 C 1880.79 1096.18 1877.31 1087.09 1879.23 1083.61 C 1879.8 1082.56 1883.69 1082.22 1884.52 1082.1 C 1885.51 1081.97 1886.52 1081.91 1887.51 1081.72 C 1888.7 1081.49 1889.79 1081.2 1891 1081.08 C 1902.85 1079.94 1915.06 1082.8 1924.24 1090.72 C 1938.93 1103.39 1939.7 1119.4 1940.74 1137.37 C 1939.55 1138.44 1939.61 1138.61 1938.74 1140.19 C 1938.23 1134.71 1937.31 1129.71 1936.74 1124.26 z" fill="rgb(48,61,48)" transform="translate(0,0)"></path>
<path d="M 1888.5 1107.1 C 1884.78 1101.43 1884.2 1099.18 1882.4 1093.67 C 1879.11 1083.62 1881.01 1084.44 1889.6 1083.31 C 1900.65 1081.86 1911.79 1084.18 1920.05 1090.47 C 1920.79 1090.87 1920.78 1090.9 1921.46 1091.46 L 1923.99 1093.55 C 1924.91 1094.06 1924.9 1094.02 1925.46 1094.91 C 1927.13 1096.61 1928.43 1098.11 1929.98 1099.92 C 1930.74 1100.64 1930.63 1100.52 1931.15 1101.44 C 1936.52 1110.47 1936.57 1111.74 1937.94 1121.66 L 1934.25 1122.65 C 1917.07 1127.36 1900.65 1121.88 1889.33 1108.28 C 1888.72 1107.55 1888.89 1107.8 1888.5 1107.1 z" fill="rgb(106,153,115)" transform="translate(0,0)"></path>
<path d="M 2004.51 1099.74 C 2016.15 1088.13 2032.92 1088.46 2048 1088.8 L 2048 1117.64 L 2048 1120.16 C 2046.34 1121.42 2044.72 1122.73 2043.13 1124.08 C 2024.22 1132.3 2010.05 1135.23 1990.45 1125.12 L 1987.28 1123.45 L 1986.93 1122.07 C 1987.94 1116.76 1990.05 1113.24 1993.43 1108.94 L 1995.94 1108.99 C 1997.71 1106.79 1999.1 1105.27 2001.05 1103.24 C 2002.01 1101.42 2002.8 1101.08 2004.51 1099.74 z" fill="rgb(106,153,115)" transform="translate(0,0)"></path>
<path d="M 1993.43 1108.94 L 1995.94 1108.99 C 1993.61 1113 1990.79 1116.36 1988.3 1120.63 L 1987.62 1121.76 C 2008.75 1130.57 2021.45 1133.02 2042.45 1122.32 L 2043.13 1124.08 C 2024.22 1132.3 2010.05 1135.23 1990.45 1125.12 L 1987.28 1123.45 L 1986.93 1122.07 C 1987.94 1116.76 1990.05 1113.24 1993.43 1108.94 z" fill="rgb(48,61,48)" transform="translate(0,0)"></path>
<path d="M 2048 1117.64 L 2048 1120.16 C 2046.34 1121.42 2044.72 1122.73 2043.13 1124.08 L 2042.45 1122.32 C 2044.3 1120.76 2046.17 1119.24 2048 1117.64 z" fill="rgb(48,61,48)" transform="translate(0,0)"></path>
<path d="M 2004.51 1099.74 C 2003.46 1101.57 2003.2 1102.78 2001.05 1103.24 C 2002.01 1101.42 2002.8 1101.08 2004.51 1099.74 z" fill="rgb(94,131,100)" transform="translate(0,0)"></path>
<path d="M 1742.38 1264.23 L 1746.63 1265.31 C 1741.87 1266.19 1737.52 1266.88 1733.09 1269 C 1709.75 1280.2 1708.32 1321.34 1730.21 1334.61 C 1734.47 1337.2 1739.29 1338.74 1744.27 1339.11 C 1762.13 1340.54 1799.18 1339.22 1818.93 1339.28 C 1865.98 1339.68 1913.03 1339.72 1960.08 1339.4 C 1975.86 1339.3 1998.32 1340.28 2014 1337.44 C 2020.58 1336.24 2029.57 1328.27 2032.2 1322.46 C 2037.79 1311.52 2037.89 1297.94 2034.16 1286.36 C 2030.15 1272.7 2021.48 1272.59 2017.03 1266.48 C 2038.65 1275.33 2043.34 1301.01 2034.6 1321.21 C 2028.49 1335.33 2016.09 1339.98 2001.61 1341.21 C 1996.58 1381.27 1988.51 1421.5 1982.9 1461.54 C 1981.29 1473.04 1978.31 1486.16 1970.5 1495.07 C 1971.42 1490.88 1977.84 1479.68 1978.2 1476.87 C 1980.32 1460.72 2001.36 1347.51 1998.66 1342.21 C 1992.28 1341.14 1978.72 1341.77 1971.46 1341.8 L 1920.29 1341.94 L 1759.06 1341.3 C 1755.69 1341.32 1755.04 1341.51 1751.95 1342.68 C 1749.63 1345.44 1750.5 1345.37 1750.65 1350.22 L 1755.4 1388.4 C 1755.44 1389.34 1755.4 1389.18 1755.74 1390.05 L 1758.4 1411.37 C 1758.94 1412.44 1758.8 1412.47 1758.74 1413.83 C 1759.21 1418.58 1759.64 1422.65 1760.38 1427.38 C 1760.31 1428.7 1760.21 1428.7 1760.76 1429.83 L 1761.34 1435.41 C 1761.4 1436.34 1761.36 1436.19 1761.71 1437.05 C 1765.05 1462.47 1766.4 1489.47 1788.84 1506.08 C 1801.66 1515.58 1815.72 1520.34 1831.66 1518.04 C 1860.79 1521.3 1895.58 1517.65 1925.19 1518.96 C 1931.95 1519.26 1947.92 1511.56 1950.81 1512.06 C 1937.1 1523.05 1901.26 1520.91 1883.38 1520.26 C 1852.16 1519.13 1812.77 1527.83 1787.01 1507.15 C 1778.44 1500.28 1771.9 1491.21 1768.1 1480.91 C 1762.54 1466.24 1759.24 1432.55 1757.15 1415.93 C 1753.86 1391.17 1750.75 1366.38 1747.81 1341.58 C 1715.83 1337.16 1704.95 1310.36 1718.24 1280.82 C 1722.3 1271.81 1733.01 1266.61 1742.38 1264.23 z" fill="rgb(100,46,6)" transform="translate(0,0)"></path>
<path d="M 1928.67 901.39 C 1954.81 868.584 1983.44 856.778 2024.83 858.175 C 2026.09 906.381 2003.07 956.246 1953.19 969.448 C 1955.18 966.059 1970.79 961.229 1975.61 957.925 C 2010.94 933.697 2023.49 901.018 2022.96 858.75 C 1994.08 857.896 1966.59 867.142 1944.9 886.326 C 1940.87 889.668 1938.3 892.245 1935.12 896.415 C 1933.1 899.357 1931.28 901.99 1929.12 904.822 L 1928.67 901.39 z" fill="rgb(48,61,48)" transform="translate(0,0)"></path>
<path d="M 1750.23 1041.46 C 1766.61 1047.97 1780.93 1059.52 1789.8 1074.85 C 1785.47 1071.58 1782.79 1067.86 1779.05 1063.89 C 1770.35 1054.69 1762.67 1048.66 1750.96 1043.65 C 1736.93 1081.47 1741.38 1122.99 1779.89 1145.46 C 1783.95 1147.82 1790.75 1150.61 1794.1 1153.43 C 1761.58 1146.38 1743.18 1113.27 1741.02 1082.15 C 1741.07 1079.8 1741.14 1077.46 1741.22 1075.12 C 1741.13 1063.35 1745.76 1052.07 1750.23 1041.46 z" fill="rgb(48,61,48)" transform="translate(0,0)"></path>
<path d="M 1741.22 1075.12 C 1742.09 1074.71 1741.8 1074.78 1742.21 1074.73 C 1743.11 1075.48 1742.76 1081.59 1742.37 1083.07 C 1742.32 1083.04 1741.09 1082.2 1741.02 1082.15 C 1741.07 1079.8 1741.14 1077.46 1741.22 1075.12 z" fill="rgb(41,49,41)" transform="translate(0,0)"></path>
<path d="M 1798.03 1149.03 L 1798.61 1148.96 C 1799.78 1152.42 1810 1162.21 1813.44 1166.18 C 1818.38 1171.86 1822.56 1179.13 1826.95 1184.02 C 1828.69 1192.84 1819.56 1188.6 1819.4 1185.83 C 1816.47 1179.02 1800.91 1155.59 1794.1 1153.43 C 1795.75 1152.56 1797.45 1152.17 1797.78 1150.32 L 1798.03 1149.03 z" fill="rgb(126,165,126)" transform="translate(0,0)"></path>
<path d="M 1978.14 1197.91 C 1982.82 1200.63 1984.63 1201.1 1989.38 1203.51 C 1992.83 1205.22 1996.58 1206.22 2000.42 1206.45 C 2001.54 1206.53 2002.37 1206.98 2003.48 1207.21 C 2017.36 1210.09 2025.21 1205.78 2037.68 1202.7 L 2038.37 1204.37 C 2034.19 1206.33 2029.07 1208.23 2024.49 1208.99 L 2020.47 1209.66 C 2008.07 1211.68 1988.83 1207.94 1978.79 1200.54 L 1978.14 1197.91 z" fill="rgb(65,92,71)" transform="translate(0,0)"></path>
<path d="M 1798.03 1149.03 C 1797.8 1146.19 1799.57 1140.24 1799.97 1137 C 1801.26 1127.2 1801.64 1116.77 1800.08 1106.99 C 1799.69 1104.49 1799 1101.49 1798.74 1099.16 C 1798.1 1093.42 1794.51 1088.35 1794.64 1082.88 C 1804.37 1102.01 1805.77 1128.79 1798.61 1148.96 L 1798.03 1149.03 z" fill="rgb(41,49,41)" transform="translate(0,0)"></path>
<path d="M 1993.43 1108.94 C 2007.32 1090.9 2025.36 1083.69 2048 1088.16 L 2048 1088.8 C 2032.92 1088.46 2016.15 1088.13 2004.51 1099.74 C 2002.8 1101.08 2002.01 1101.42 2001.05 1103.24 C 1999.1 1105.27 1997.71 1106.79 1995.94 1108.99 L 1993.43 1108.94 z" fill="rgb(41,49,41)" transform="translate(0,0)"></path>
<path d="M 1943.57 1166.27 C 1946.69 1167.39 1947.96 1170.22 1950.61 1173.13 C 1951.14 1174.37 1951.04 1174.23 1952.09 1175.02 C 1957.82 1181.9 1970.27 1193.94 1978.14 1197.91 L 1978.79 1200.54 C 1967.45 1194.53 1949.09 1177.83 1943.57 1166.27 z" fill="rgb(41,49,41)" transform="translate(0,0)"></path>
<path d="M 1907.48 973.153 C 1911.23 972.978 1940.23 971.791 1942.18 972.636 L 1940.35 973.012 C 1931.98 974.892 1924.38 975.104 1915.89 975.032 C 1910.55 974.987 1908.99 973.728 1905.92 977.522 L 1904.54 976.786 L 1906.07 973.93 L 1907.48 973.153 z" fill="rgb(48,61,48)" transform="translate(0,0)"></path>
<path d="M 1906.82 958.535 C 1906.93 948.993 1908.57 936.006 1913.39 927.624 L 1915.25 928.251 C 1912.06 936.936 1908.86 944.084 1909.2 953.544 C 1908.52 955.71 1908.46 957.055 1906.82 958.535 z" fill="rgb(65,92,71)" transform="translate(0,0)"></path>
<path d="M 1913.39 927.624 C 1917.44 918.183 1922.72 909.755 1928.67 901.39 L 1929.12 904.822 C 1924.44 909.608 1917.6 922.052 1915.25 928.251 L 1913.39 927.624 z" fill="rgb(41,49,41)" transform="translate(0,0)"></path>
<path d="M 678.953 654.202 C 751.766 609.822 849.107 609.072 924 647.857 C 927.845 649.849 937.683 654.414 940.153 657.255 C 949.038 661.31 959.291 669.475 966.835 675.632 L 968.579 677.01 C 980.615 685.708 996.558 702.292 1005.96 713.735 C 1031.54 742.657 1046.65 775.597 1056.87 812.421 C 1060.53 801.051 1063.88 788.675 1068.69 777.864 C 1072.52 761.845 1098.44 722.987 1109.9 710.732 C 1126.52 690.861 1153.95 667.321 1176.97 655.256 C 1182.82 651.631 1190.5 647.266 1196.86 644.779 C 1234.18 627.152 1272.86 619.896 1313.89 621.118 C 1323.51 620.761 1334.53 622.268 1344.14 623.635 C 1455.12 639.422 1549.27 739.32 1553.33 851.987 C 1553.62 863.118 1553.59 874.255 1553.25 885.385 C 1556.27 885.231 1559.29 885.037 1562.31 884.804 C 1571.8 881.442 1598.4 882.823 1608.42 884.475 C 1657.2 892.514 1698.8 929.777 1714.97 976.132 C 1726.33 1009.57 1723.92 1046.15 1708.29 1077.81 C 1702.54 1089.34 1695.11 1099.95 1686.24 1109.29 C 1680.9 1114.89 1654.24 1134.18 1653.95 1137.63 C 1647 1221.25 1674.23 1314.58 1604.08 1379.52 C 1589.68 1392.88 1553.38 1418.75 1533.18 1417.96 C 1533.17 1427.61 1533.23 1437.26 1533.35 1446.91 C 1533.7 1469.3 1536.42 1490.62 1519.07 1508.06 C 1499.95 1527.27 1468.96 1527.18 1449.62 1508.38 C 1433.8 1493.02 1434.34 1474.8 1434.49 1454.48 C 1434.51 1451.68 1434.28 1449.07 1434.64 1446.23 C 1434.53 1439.1 1434.69 1432.05 1434.55 1424.91 C 1432.63 1423.3 1257.08 1423.89 1234.53 1423.88 L 837.226 1423.81 L 742.392 1423.94 C 729.926 1423.96 702.628 1424.7 691.577 1423.28 C 691.027 1430.81 691.266 1440.13 691.34 1447.83 C 691.442 1473.31 694.498 1493.91 672.46 1511.93 C 651.448 1529.12 617.38 1525.28 602.341 1502.38 C 598.374 1496.34 595.622 1489.58 594.24 1482.49 C 592.987 1476.21 592.475 1432.89 593.62 1426.83 L 591.917 1422.22 C 591.491 1422.22 591.065 1422.22 590.639 1422.22 C 526.541 1412.47 476.058 1357.85 466.132 1294.59 C 464.04 1281.25 463.95 1271.15 463.98 1259.23 C 464.122 1255.07 464.405 1244.16 463.864 1240.66 C 460.231 1217.13 467.95 1161.34 460.536 1141.36 C 452.606 1131.81 433.591 1116.25 430.746 1112.14 C 426.748 1108.77 421.627 1103.49 419.13 1098.91 C 405.774 1083.33 396.334 1051.32 395.6 1031.18 C 394.169 991.894 404.473 960.05 429.972 930.804 C 434.325 925.762 439.176 920.641 444.675 916.858 C 448.135 912.669 461.023 904.555 466.053 901.795 C 484.337 891.268 504.747 884.971 525.784 883.366 C 532.626 882.796 555.145 884.01 558.559 882.258 C 554.278 851.532 561.656 805.789 572.651 776.998 C 579.322 755.71 599.038 725.142 613.913 708.746 C 629.753 689.534 656.814 666.185 678.953 654.202 z" fill="rgb(176,97,26)" transform="translate(0,0)"></path>
<path d="M 1562.31 884.804 C 1571.8 881.442 1598.4 882.823 1608.42 884.475 C 1657.2 892.514 1698.8 929.777 1714.97 976.132 C 1726.33 1009.57 1723.92 1046.15 1708.29 1077.81 C 1702.54 1089.34 1695.11 1099.95 1686.24 1109.29 C 1680.9 1114.89 1654.24 1134.18 1653.95 1137.63 C 1647 1221.25 1674.23 1314.58 1604.08 1379.52 C 1589.68 1392.88 1553.38 1418.75 1533.18 1417.96 C 1533.17 1427.61 1533.23 1437.26 1533.35 1446.91 C 1533.7 1469.3 1536.42 1490.62 1519.07 1508.06 C 1499.95 1527.27 1468.96 1527.18 1449.62 1508.38 C 1433.8 1493.02 1434.34 1474.8 1434.49 1454.48 C 1434.51 1451.68 1434.28 1449.07 1434.64 1446.23 C 1434.53 1439.1 1434.69 1432.05 1434.55 1424.91 C 1432.63 1423.3 1257.08 1423.89 1234.53 1423.88 L 837.226 1423.81 L 742.392 1423.94 C 729.926 1423.96 702.628 1424.7 691.577 1423.28 C 691.027 1430.81 691.266 1440.13 691.34 1447.83 C 691.442 1473.31 694.498 1493.91 672.46 1511.93 C 651.448 1529.12 617.38 1525.28 602.341 1502.38 C 598.374 1496.34 595.622 1489.58 594.24 1482.49 C 592.987 1476.21 592.475 1432.89 593.62 1426.83 L 591.917 1422.22 C 591.491 1422.22 591.065 1422.22 590.639 1422.22 C 526.541 1412.47 476.058 1357.85 466.132 1294.59 C 464.04 1281.25 463.95 1271.15 463.98 1259.23 C 465.044 1259.18 467.198 1258.68 467.569 1259.64 C 477.032 1284.09 492.573 1313.46 517.113 1327.46 L 518.592 1327.51 L 518.953 1327.71 C 563.937 1353.63 574.696 1351.66 625.759 1351.21 L 688.608 1351.07 L 912.445 1351.09 L 1311.52 1351.03 C 1340.96 1350.95 1370.4 1351.03 1399.84 1351.26 C 1426.15 1351.45 1464.26 1353.87 1488.62 1347.24 C 1499.83 1344.11 1510.67 1339.77 1520.94 1334.3 C 1552.04 1315.03 1553.21 1307.95 1573.46 1280.79 C 1573.84 1279.04 1576.84 1272.21 1577.73 1270.39 C 1595.25 1234.8 1587.63 1193.78 1590.03 1155.57 C 1590.31 1151.13 1591.49 1145.98 1595.04 1142.87 C 1600.48 1132.82 1623.01 1114.71 1631.67 1105.19 C 1642.49 1093.29 1648.02 1081.24 1654.54 1066.83 C 1665.44 1033.35 1665.94 1002.45 1652.31 969.379 C 1640.56 940.852 1617.59 915.942 1590.37 901.426 C 1580.66 896.252 1570.84 893.235 1560.75 889.092 C 1557.47 889.483 1554.96 888.578 1551.73 887.796 C 1556.25 887.49 1558.79 887.561 1562.31 884.804 z" fill="rgb(100,46,6)" transform="translate(0,0)"></path>
<path d="M 591.917 1422.22 C 600.163 1421.28 689.646 1420.93 691.577 1423.28 C 691.027 1430.81 691.266 1440.13 691.34 1447.83 C 691.442 1473.31 694.498 1493.91 672.46 1511.93 C 651.448 1529.12 617.38 1525.28 602.341 1502.38 C 598.374 1496.34 595.622 1489.58 594.24 1482.49 C 592.987 1476.21 592.475 1432.89 593.62 1426.83 L 591.917 1422.22 z" fill="rgb(83,37,6)" transform="translate(0,0)"></path>
<path d="M 591.917 1422.22 C 600.163 1421.28 689.646 1420.93 691.577 1423.28 C 691.027 1430.81 691.266 1440.13 691.34 1447.83 C 666.147 1448.55 618.743 1450.19 594.218 1447.91 C 594.229 1443.72 594.673 1429.96 593.62 1426.83 L 591.917 1422.22 z" fill="rgb(52,23,8)" transform="translate(0,0)"></path>
<path d="M 1533.35 1446.91 C 1533.7 1469.3 1536.42 1490.62 1519.07 1508.06 C 1499.95 1527.27 1468.96 1527.18 1449.62 1508.38 C 1433.8 1493.02 1434.34 1474.8 1434.49 1454.48 C 1434.51 1451.68 1434.28 1449.07 1434.64 1446.23 C 1434.85 1446.66 1435.3 1448.01 1436.02 1448.01 C 1468.41 1448.23 1501.01 1448.18 1533.35 1446.91 z" fill="rgb(83,37,6)" transform="translate(0,0)"></path>
<path d="M 518.953 1327.71 C 563.937 1353.63 574.696 1351.66 625.759 1351.21 L 688.608 1351.07 L 912.445 1351.09 L 1311.52 1351.03 C 1340.96 1350.95 1370.4 1351.03 1399.84 1351.26 C 1426.15 1351.45 1464.26 1353.87 1488.62 1347.24 C 1499.83 1344.11 1510.67 1339.77 1520.94 1334.3 C 1516.94 1343.2 1475.69 1353.39 1465.03 1353.57 C 1416.29 1354.39 1367.56 1353.66 1318.81 1353.56 L 1051.56 1353.97 L 767.891 1353.86 L 655.182 1353.91 C 636.552 1353.96 610.652 1354.9 592.596 1354 C 579.462 1353.39 566.461 1351.09 553.914 1347.15 C 545.822 1344.67 522.906 1335.14 518.953 1327.71 z" fill="rgb(83,37,6)" transform="translate(0,0)"></path>
<path d="M 1434.55 1424.91 C 1436.78 1419.78 1489.94 1422.06 1499.41 1421.72 C 1508.92 1421.38 1525.85 1417.71 1533.18 1417.96 C 1533.17 1427.61 1533.23 1437.26 1533.35 1446.91 C 1501.01 1448.18 1468.41 1448.23 1436.02 1448.01 C 1435.3 1448.01 1434.85 1446.66 1434.64 1446.23 C 1434.53 1439.1 1434.69 1432.05 1434.55 1424.91 z" fill="rgb(52,23,8)" transform="translate(0,0)"></path>
<path d="M 1560.75 889.092 C 1567.84 887.435 1589.58 898.74 1596.64 902.905 C 1650.74 934.808 1679.08 1002.33 1657.63 1062.64 C 1656.71 1065.2 1656.53 1065.55 1654.54 1066.83 C 1665.44 1033.35 1665.94 1002.45 1652.31 969.379 C 1640.56 940.852 1617.59 915.942 1590.37 901.426 C 1580.66 896.252 1570.84 893.235 1560.75 889.092 z" fill="rgb(52,23,8)" transform="translate(0,0)"></path>
<path d="M 1573.46 1280.79 C 1573.84 1279.04 1576.84 1272.21 1577.73 1270.39 C 1595.25 1234.8 1587.63 1193.78 1590.03 1155.57 C 1590.31 1151.13 1591.49 1145.98 1595.04 1142.87 C 1594.93 1145.35 1594.91 1145.62 1593.72 1148.03 C 1589.88 1155.83 1592.24 1167.06 1592 1176.56 C 1591.27 1205.65 1594.81 1236.37 1582.37 1263.68 C 1580.25 1268.34 1577.97 1277.03 1574.39 1280.63 L 1573.46 1280.79 z" fill="rgb(83,37,6)" transform="translate(0,0)"></path>
<path d="M 564.78 883.617 C 579.632 881.587 603.125 878.094 617.725 881.508 C 662.506 886.097 703.623 908.309 732.01 943.246 C 737.106 949.507 746.285 962.507 749.609 969.835 C 750.947 972.17 751.57 973.009 752.381 975.592 C 766.337 999.371 766.239 1046.47 765.072 1073.93 C 783.742 1074.66 804.564 1074.26 823.37 1074.31 C 863.251 1074.59 903.135 1074.54 943.016 1074.15 L 1232.63 1073.98 L 1333.15 1073.9 C 1341.86 1073.89 1372.77 1073.37 1379.23 1074.71 C 1379.28 1099.51 1379.85 1126.46 1379.25 1151.07 L 895.414 1151.34 L 761.748 1151.42 C 745.229 1151.48 709.459 1152.68 694.2 1151.36 C 694.197 1143.51 693.854 1113.12 694.922 1107.23 C 694.98 1087.3 696.158 1049.28 694.701 1030.52 C 693.56 1018.34 691.902 1009.19 689.472 997.298 C 691.521 989.199 681.954 972.486 678.203 965.314 C 659.297 929.167 627.113 902.776 588.258 890.687 C 582.421 888.87 576.152 889.597 571.118 884.738 C 569.619 883.292 566.946 883.719 564.78 883.617 z" fill="rgb(100,46,6)" transform="translate(0,0)"></path>
<path d="M 765.072 1073.93 C 783.742 1074.66 804.564 1074.26 823.37 1074.31 C 863.251 1074.59 903.135 1074.54 943.016 1074.15 L 1232.63 1073.98 L 1333.15 1073.9 C 1341.86 1073.89 1372.77 1073.37 1379.23 1074.71 C 1368.39 1076.58 1353.52 1075.44 1342.27 1075.46 C 1326.82 1075.49 1311.1 1074.51 1295.61 1074.96 C 1285.52 1075.25 1275.47 1076.26 1265.38 1076.44 C 1171.64 1076.54 1077.78 1076.47 984.046 1076.46 L 825.8 1077.13 C 815.016 1077.07 772.862 1077.41 763.971 1076.09 L 765.072 1073.93 z" fill="rgb(83,37,6)" transform="translate(0,0)"></path>
<path d="M 749.609 969.835 C 747.108 969.033 735.842 951.452 732.934 947.815 C 711.898 921.502 686.049 901.285 653.528 891.481 C 650.748 890.643 615.165 881.624 615.568 882.044 L 617.725 881.508 C 662.506 886.097 703.623 908.309 732.01 943.246 C 737.106 949.507 746.285 962.507 749.609 969.835 z" fill="rgb(52,23,8)" transform="translate(0,0)"></path>
<path d="M 763.971 1076.09 C 762.214 1072.58 762.952 1066.74 762.796 1061.5 C 762.046 1036.32 764.575 1010.01 754.717 986.124 C 753.732 983.739 751.544 977.667 752.381 975.592 C 766.337 999.371 766.239 1046.47 765.072 1073.93 L 763.971 1076.09 z" fill="rgb(52,23,8)" transform="translate(0,0)"></path>
<path d="M 694.701 1030.52 C 694.854 1028.75 694.929 1027.91 694.906 1026.13 L 695.323 1026.07 C 695.286 1025.31 695.249 1024.55 695.213 1023.8 C 695.441 1023.74 695.594 1023.72 695.774 1023.8 C 696.881 1027.32 697.068 1033.66 696.637 1037.24 C 694.375 1056.02 699.844 1090.35 694.922 1107.23 C 694.98 1087.3 696.158 1049.28 694.701 1030.52 z" fill="rgb(52,23,8)" transform="translate(0,0)"></path>
<path d="M 1313.89 621.118 C 1323.51 620.761 1334.53 622.268 1344.14 623.635 C 1455.12 639.422 1549.27 739.32 1553.33 851.987 C 1553.62 863.118 1553.59 874.255 1553.25 885.385 C 1523.85 882.358 1492.66 884.246 1466.28 899.21 C 1465.54 869.997 1467.2 835.629 1464.23 806.77 C 1458.12 747.315 1415.51 682.976 1365.75 651.021 C 1355.62 644.515 1337.35 637.184 1326.33 631.582 C 1322.64 629.705 1309.77 628.553 1305.6 624.166 L 1306.73 622.913 C 1310.1 622.705 1310.78 622.778 1313.89 621.118 z" fill="rgb(100,46,6)" transform="translate(0,0)"></path>
<path d="M 1196.86 644.779 C 1234.18 627.152 1272.86 619.896 1313.89 621.118 C 1310.78 622.778 1310.1 622.705 1306.73 622.913 L 1305.6 624.166 C 1309.77 628.553 1322.64 629.705 1326.33 631.582 C 1337.35 637.184 1355.62 644.515 1365.75 651.021 C 1415.51 682.976 1458.12 747.315 1464.23 806.77 C 1467.2 835.629 1465.54 869.997 1466.28 899.21 C 1492.66 884.246 1523.85 882.358 1553.25 885.385 C 1556.27 885.231 1559.29 885.037 1562.31 884.804 C 1558.79 887.561 1556.25 887.49 1551.73 887.796 C 1526.06 883.847 1484.04 887.548 1462.88 904.141 L 1462.27 902.703 C 1462.73 901.889 1463.63 900.41 1463.64 899.457 C 1463.84 837.287 1468.01 780.084 1433.34 725.073 C 1396.45 666.539 1354.75 639.118 1290.2 623.594 C 1285.42 623.906 1282.44 624.115 1277.63 623.913 C 1261.39 625.317 1254.11 627.499 1239.31 631.166 C 1231.2 633.176 1200.79 644.9 1196.86 644.779 z" fill="rgb(52,23,8)" transform="translate(0,0)"></path>
<path d="M 1277.63 623.913 C 1283.23 622.424 1284.49 622.522 1290.2 623.594 C 1285.42 623.906 1282.44 624.115 1277.63 623.913 z" fill="rgb(131,77,28)" transform="translate(0,0)"></path>
<path d="M 558.559 882.258 L 559.96 883.793 L 564.78 883.617 C 566.946 883.719 569.619 883.292 571.118 884.738 C 576.152 889.597 582.421 888.87 588.258 890.687 C 627.113 902.776 659.297 929.167 678.203 965.314 C 681.954 972.486 691.521 989.199 689.472 997.298 C 668.197 932.079 622.488 895.218 554.833 885.638 C 553.705 885.102 553.705 885.189 552.399 885.255 C 528.138 884.387 515.432 885.125 491.347 892.087 C 485.216 893.859 469.582 901.88 466.053 901.795 C 484.337 891.268 504.747 884.971 525.784 883.366 C 532.626 882.796 555.145 884.01 558.559 882.258 z" fill="rgb(83,37,6)" transform="translate(0,0)"></path>
<path d="M 460.536 1141.36 L 461.808 1141.5 C 466.271 1149.95 464.811 1160.01 464.873 1169.69 C 465.209 1222.13 458.309 1264.62 496.517 1306.94 C 503.473 1314.64 510.99 1320.61 518.592 1327.51 L 517.113 1327.46 C 492.573 1313.46 477.032 1284.09 467.569 1259.64 C 467.198 1258.68 465.044 1259.18 463.98 1259.23 C 464.122 1255.07 464.405 1244.16 463.864 1240.66 C 460.231 1217.13 467.95 1161.34 460.536 1141.36 z" fill="rgb(83,37,6)" transform="translate(0,0)"></path>
<path d="M 572.651 776.998 C 574.078 780.644 566.105 803.077 564.633 809.825 C 558.982 835.729 560.206 857.806 559.96 883.793 L 558.559 882.258 C 554.278 851.532 561.656 805.789 572.651 776.998 z" fill="rgb(131,77,28)" transform="translate(0,0)"></path>
<path d="M 678.953 654.202 C 678.206 656.99 674.087 659.967 671.138 661.891 C 666.349 665.016 663.448 666.375 658.721 670.301 C 655.044 673.354 645.875 678.64 642.887 682.897 C 641.464 684.923 641.206 684.921 639.039 685.438 C 632.981 690.715 626.376 697.154 621.216 703.379 C 618.231 706.979 618.31 708.063 613.913 708.746 C 629.753 689.534 656.814 666.185 678.953 654.202 z" fill="rgb(131,77,28)" transform="translate(0,0)"></path>
<path d="M 1176.97 655.256 C 1175.69 659.815 1157.31 668.994 1151.51 674.443 C 1147.75 677.966 1134.88 687.683 1130.63 691.654 C 1125.98 695.999 1114.11 710.111 1109.9 710.732 C 1126.52 690.861 1153.95 667.321 1176.97 655.256 z" fill="rgb(131,77,28)" transform="translate(0,0)"></path>
<path d="M 1005.96 713.735 C 1003.08 713.464 993.869 704.459 992.289 701.958 C 988.1 695.328 982.033 692.704 977.702 687.507 C 974.076 683.158 972.266 685.424 969.492 679.528 C 969.291 679.084 966.768 680.422 968.579 677.01 C 980.615 685.708 996.558 702.292 1005.96 713.735 z" fill="rgb(131,77,28)" transform="translate(0,0)"></path>
<path d="M 1068.69 777.864 C 1069.16 785.773 1057.82 807.842 1057.72 817.902 C 1057.72 818.19 1057.19 818.13 1057.04 818.135 C 1055.42 817.297 1055.48 813.928 1056.87 812.421 C 1060.53 801.051 1063.88 788.675 1068.69 777.864 z" fill="rgb(24,14,8)" transform="translate(0,0)"></path>
<path d="M 940.153 657.255 C 949.038 661.31 959.291 669.475 966.835 675.632 C 960.646 675.309 956.565 669.47 952.374 666.669 L 949.425 664.708 L 946.419 662.703 C 943.056 660.5 942.387 660.397 940.153 657.255 z" fill="rgb(131,77,28)" transform="translate(0,0)"></path>
<path d="M 429.972 930.804 C 434.325 925.762 439.176 920.641 444.675 916.858 C 441.538 922.257 436.879 930.461 429.972 930.804 z" fill="rgb(131,77,28)" transform="translate(0,0)"></path>
<path d="M 419.13 1098.91 C 422.471 1097.79 429.655 1108.91 430.746 1112.14 C 426.748 1108.77 421.627 1103.49 419.13 1098.91 z" fill="rgb(131,77,28)" transform="translate(0,0)"></path>
<path d="M 1457.42 904.733 L 1459.05 906.858 C 1449.52 913.794 1453.47 909.353 1457.42 904.733 z" fill="rgb(24,14,8)" transform="translate(0,0)"></path>
<path d="M 1462.27 902.703 L 1462.88 904.141 C 1461.58 905.009 1460.3 905.915 1459.05 906.858 L 1457.42 904.733 C 1459.73 903.335 1459.66 903.365 1462.27 902.703 z" fill="rgb(83,37,6)" transform="translate(0,0)"></path>
<path d="M 197.942 955.281 C 221.422 941.515 252.7 957.166 257.229 983.479 C 258.777 992.474 258.175 1004.65 252.593 1012.2 C 249.263 1017.56 247.131 1019.93 242.821 1024.49 C 251.548 1026.33 260.139 1027.47 268.646 1030.29 C 316.921 1043.5 361.763 1079.36 386.042 1122.86 C 407.58 1161.45 413.563 1194.77 413.059 1237.93 L 318.685 1237.83 C 305.971 1237.84 282.025 1238.57 270.017 1237.58 C 258.689 1236.4 231.27 1236.91 219.119 1237.06 C 203.417 1237.24 178.018 1236.24 162.945 1237.52 C 151.685 1238.59 126.315 1237.86 114.286 1237.86 L 18.0381 1237.77 C 16.4248 1126.32 80.6422 1045.01 190.647 1024.36 C 188.069 1021.84 184.857 1018.06 182.973 1015.01 C 176.574 1004.66 174.705 992.139 177.805 980.371 C 180.928 968.863 187.677 960.967 197.942 955.281 z" fill="rgb(236,140,35)" transform="translate(0,0)"></path>
<path d="M 19.51 1236.29 C 19.51 1127.77 82.8884 1043.7 192.138 1026.41 L 192.974 1026.84 C 208.46 1034.83 217.728 1034.83 233.919 1029.74 C 258.862 1043.78 294.419 1085.45 302.625 1114.2 C 308.533 1135.33 305.901 1157.94 295.298 1177.15 C 280.145 1204.42 254.728 1216 226.126 1224.57 C 213.037 1228.49 176.905 1230.9 170.132 1235.93 C 120.617 1236.88 69.1549 1236.24 19.51 1236.29 z" fill="rgb(245,164,74)" transform="translate(0,0)"></path>
<path d="M 197.942 955.281 C 221.422 941.515 252.7 957.166 257.229 983.479 C 258.777 992.474 258.175 1004.65 252.593 1012.2 C 248.501 1013.93 246.461 1020.13 238.308 1025.21 C 234.461 1027.03 230.931 1028.76 226.987 1029.73 C 180.321 1041.17 160.222 981.49 197.525 956.557 C 197.664 956.131 197.803 955.706 197.942 955.281 z" fill="rgb(236,140,35)" transform="translate(0,0)"></path>
<path d="M 197.942 955.281 C 197.803 955.706 197.664 956.131 197.525 956.557 C 160.222 981.49 180.321 1041.17 226.987 1029.73 C 230.931 1028.76 234.461 1027.03 238.308 1025.21 L 240.257 1026.04 L 233.919 1029.74 C 217.728 1034.83 208.46 1034.83 192.974 1026.84 L 192.138 1026.41 C 82.8884 1043.7 19.51 1127.77 19.51 1236.29 C 69.1549 1236.24 120.617 1236.88 170.132 1235.93 L 410.833 1236.12 C 411.42 1135.51 363.678 1065.53 268.468 1031.38 L 268.646 1030.29 C 316.921 1043.5 361.763 1079.36 386.042 1122.86 C 407.58 1161.45 413.563 1194.77 413.059 1237.93 L 318.685 1237.83 C 305.971 1237.84 282.025 1238.57 270.017 1237.58 C 258.689 1236.4 231.27 1236.91 219.119 1237.06 C 203.417 1237.24 178.018 1236.24 162.945 1237.52 C 151.685 1238.59 126.315 1237.86 114.286 1237.86 L 18.0381 1237.77 C 16.4248 1126.32 80.6422 1045.01 190.647 1024.36 C 188.069 1021.84 184.857 1018.06 182.973 1015.01 C 176.574 1004.66 174.705 992.139 177.805 980.371 C 180.928 968.863 187.677 960.967 197.942 955.281 z" fill="rgb(131,77,28)" transform="translate(0,0)"></path>
<path d="M 238.308 1025.21 C 246.461 1020.13 248.501 1013.93 252.593 1012.2 C 249.263 1017.56 247.131 1019.93 242.821 1024.49 C 251.548 1026.33 260.139 1027.47 268.646 1030.29 L 268.468 1031.38 C 257.816 1028.75 251.025 1027.63 240.257 1026.04 L 238.308 1025.21 z" fill="rgb(24,14,8)" transform="translate(0,0)"></path>
<path d="M 162.945 1237.52 C 178.018 1236.24 203.417 1237.24 219.119 1237.06 C 231.27 1236.91 258.689 1236.4 270.017 1237.58 C 269.548 1293.07 266.071 1296 313.687 1324.41 C 342.809 1341.78 361.086 1390.78 358.873 1422.78 C 358.829 1454.81 359.24 1487.01 358.86 1519 L 76.8754 1518.92 L 76.6611 1484.07 C 76.6811 1470.57 75.5011 1404.79 78.7721 1395.37 C 79.7469 1383.7 84.944 1368.95 90.5379 1358.69 C 95.0568 1343.95 115.98 1325.81 129.308 1318.94 C 145.488 1310.6 152.233 1305.18 160.607 1288.84 C 164.554 1272.46 163.146 1254.42 162.945 1237.52 z" fill="rgb(58,71,151)" transform="translate(0,0)"></path>
<path d="M 162.945 1237.52 C 178.018 1236.24 203.417 1237.24 219.119 1237.06 C 231.27 1236.91 258.689 1236.4 270.017 1237.58 C 269.548 1293.07 266.071 1296 313.687 1324.41 C 342.809 1341.78 361.086 1390.78 358.873 1422.78 C 358.829 1454.81 359.24 1487.01 358.86 1519 L 76.8754 1518.92 L 76.6611 1484.07 L 141.213 1484.03 C 185.195 1484.02 223.172 1484.52 256.641 1451.64 C 291.794 1417.11 287.994 1363.03 254.983 1328.69 C 250.024 1323.53 243.53 1318.15 239.665 1312.27 C 233.098 1302.32 230.133 1286.7 221.181 1278.64 C 208.708 1267.4 181.445 1271.26 165.483 1271.84 C 164.788 1278.09 164.952 1284.7 160.607 1288.84 C 164.554 1272.46 163.146 1254.42 162.945 1237.52 z" fill="rgb(30,45,118)" transform="translate(0,0)"></path>
<path d="M 90.5379 1358.69 C 90.633 1361.23 80.8515 1391.93 78.7721 1395.37 C 79.7469 1383.7 84.944 1368.95 90.5379 1358.69 z" fill="rgb(30,45,118)" transform="translate(0,0)"></path>
<metadata><recraft-signature>{"signed_by": "recraft", "signature_b64": "eCNNEoaJHDngvXWf8HLIr+9AID0tZAsN+gQCNMTa7Gc6P1Gy2/dgM3vnocWifooK7CF042Ap5rTFF9WLarIeDQ==", "signing_algo": "Ed25519", "generation_timestamp": 1779007001, "identifier": "69606933-663c-4122-a04c-f4e5da1ec24e"}</recraft-signature></metadata></svg>