<svg xmlns="http://www.w3.org/2000/svg" height="1216" preserveAspectRatio="none" style="display: block;" version="1.1" viewBox="0 0 1509 2048" width="896">
<path d="M 0 0 L 711.557 0 L 734.46 0 L 1509 0 L 1509 1639.34 L 1509 1676.93 L 1509 2048 L 771.795 2048 L 739.141 2048 L 0 2048 L 0 1668.64 L 0 1646.2 L 0 0 z" fill="rgb(11,6,4)" transform="translate(0,0)"></path>
<path d="M 711.557 0 L 734.46 0 C 779.545 8.61242 799.553 19.2891 827.314 56.0582 C 835.28 49.6902 842.185 44.5706 851.227 39.5828 C 908.062 8.23273 983.869 23.4695 1024.35 74.1259 C 1035.66 88.1766 1043.85 104.473 1048.38 121.933 C 1084.76 108.837 1118.49 109.587 1153.92 126.262 C 1187.82 141.983 1214.01 170.627 1226.65 205.796 C 1240.17 244.146 1234.79 277.574 1217.82 313.217 C 1251.91 325.52 1276.37 344.293 1292.23 377.709 C 1305.68 406.181 1307.16 438.855 1296.33 468.423 C 1289.33 487.553 1278.59 502.983 1263.82 516.864 C 1284.04 537.951 1294.96 558.399 1294.92 588.454 C 1294.86 631.388 1261.99 673.564 1222.22 688.423 C 1216.28 686.776 1211.78 691.686 1206.1 690.593 C 1204.67 687.343 1205.11 637.603 1205.11 631.005 C 1177.99 629.622 1152.4 615.476 1134.32 595.611 C 1112.15 570.9 1100.69 538.403 1102.45 505.251 L 1102.49 504.532 C 1054.16 515.218 1024.88 499.831 994.469 462.16 C 961.893 508.535 906.79 523.265 859.147 489.145 C 848.546 481.484 839.334 472.066 831.91 461.297 C 806.545 504.983 748.206 521.655 705.118 494.869 C 688.798 484.723 681.406 476.377 669.98 461.702 C 655.923 483.8 635.501 499.692 609.601 505.305 C 585.216 510.726 559.675 506.009 538.835 492.235 C 525.281 483.448 517.323 474.36 508.076 461.644 C 484.806 500.374 448.029 512.974 404.889 505.257 C 405.286 525.121 405.164 537.507 397.87 556.687 C 382.044 598.305 348.625 627.461 303.243 630.356 C 302.991 650.386 303.699 672.005 302.898 691.72 C 298.417 690.389 294.705 688.954 290.02 689.223 C 281.268 689.285 254.028 668.66 247.455 661.939 C 203.921 617.425 202.36 561.651 245.643 517.225 C 190.972 465.454 191.205 380.922 252.333 333.622 C 261.842 326.264 270.491 322.083 281.21 317.006 C 273.095 293.987 272.715 270.28 279.28 246.764 C 288.672 212.941 311.202 184.279 341.851 167.166 C 356.155 159.116 389.353 148.081 405.136 152.507 C 405.787 150.169 406.45 147.835 407.125 145.504 C 407.261 131.04 418.646 106.411 426.703 94.2332 C 446.671 64.6403 477.474 44.0848 512.464 37.0022 C 549.007 29.6352 584.753 35.9864 615.952 56.4808 C 642.92 19.0328 668.198 7.87055 711.557 0 z" fill="rgb(54,32,23)" transform="translate(0,0)"></path>
<path d="M 407.125 145.504 C 407.553 147.331 408.944 151.925 408.045 153.409 C 407.314 154.616 405.649 154.511 405.136 152.507 C 405.787 150.169 406.45 147.835 407.125 145.504 z" fill="rgb(11,6,4)" transform="translate(0,0)"></path>
<path d="M 0 0 L 711.557 0 C 668.198 7.87055 642.92 19.0328 615.952 56.4808 C 584.753 35.9864 549.007 29.6352 512.464 37.0022 C 477.474 44.0848 446.671 64.6403 426.703 94.2332 C 418.646 106.411 407.261 131.04 407.125 145.504 C 406.45 147.835 405.787 150.169 405.136 152.507 C 389.353 148.081 356.155 159.116 341.851 167.166 C 311.202 184.279 288.672 212.941 279.28 246.764 C 272.715 270.28 273.095 293.987 281.21 317.006 C 270.491 322.083 261.842 326.264 252.333 333.622 C 191.205 380.922 190.972 465.454 245.643 517.225 C 202.36 561.651 203.921 617.425 247.455 661.939 C 254.028 668.66 281.268 689.285 290.02 689.223 L 294.78 691.746 L 294.905 692.516 C 262.445 701.18 237.397 716.126 220.115 746.169 C 205.484 771.956 201.895 802.561 210.164 831.034 C 218.328 859.338 237.485 883.194 263.357 897.278 C 290.274 912.046 315.965 914.028 345.015 906.077 C 349.62 921.038 360.225 940.866 367.962 954.528 C 407.287 1023.94 463.812 1082.06 532.1 1123.31 C 465.881 1124.89 421.889 1138.88 362.537 1170.13 C 323.942 1160.7 275.292 1149.9 237.53 1138.41 C 235.788 1148.62 233.921 1158.8 231.931 1168.96 C 215.448 1165.28 199.211 1161.77 182.922 1157.27 C 182.077 1171.29 180.804 1186.93 180.976 1200.84 L 146.086 1191.81 C 140.651 1197.29 134.828 1203.47 128.921 1208.35 C 131.213 1243.06 133.854 1277.75 136.845 1312.42 C 138.593 1334.56 139.738 1359.35 142.252 1381.25 C 100.168 1444.09 61.9332 1512.18 21.4367 1576.26 C 8.85228 1596.18 3.75513 1623.3 0 1646.2 L 0 0 z" fill="rgb(254,254,254)" transform="translate(0,0)"></path>
<path d="M 734.46 0 L 1509 0 L 1509 1639.34 C 1505.34 1618.23 1499.78 1592.83 1488.05 1574.6 C 1447.03 1510.83 1409.52 1443.33 1367.66 1380.3 C 1369.2 1327.71 1376.08 1261.86 1380.33 1208.49 C 1374.65 1202.8 1369.21 1197.81 1363.28 1192.42 C 1355.68 1195.17 1343.41 1198 1335.26 1200.09 C 1334.21 1185.6 1333.09 1171.11 1331.88 1156.63 L 1277.12 1169.69 C 1275.06 1159.36 1272.84 1149.07 1270.45 1138.81 C 1257.12 1141.69 1241.94 1146.1 1228.47 1149.51 L 1151.48 1168.64 C 1121.31 1149.86 1062.54 1130.03 1026.98 1125.36 C 1013.67 1123.62 992.664 1123.25 979.031 1123.09 C 1000.32 1108.79 1015.48 1099.17 1035.4 1082.39 C 1090.49 1035.98 1138.76 973.409 1164.21 905.807 C 1165.61 906.214 1167.02 906.61 1168.43 906.996 C 1195.2 914.284 1223.77 910.534 1247.76 896.584 C 1273.54 881.716 1292.23 857.075 1299.6 828.24 C 1307.17 799.926 1302.99 769.757 1288.01 744.565 C 1269.61 713.739 1246.16 700.724 1212.63 692.454 L 1222.22 688.423 C 1261.99 673.564 1294.86 631.388 1294.92 588.454 C 1294.96 558.399 1284.04 537.951 1263.82 516.864 C 1278.59 502.983 1289.33 487.553 1296.33 468.423 C 1307.16 438.855 1305.68 406.181 1292.23 377.709 C 1276.37 344.293 1251.91 325.52 1217.82 313.217 C 1234.79 277.574 1240.17 244.146 1226.65 205.796 C 1214.01 170.627 1187.82 141.983 1153.92 126.262 C 1118.49 109.587 1084.76 108.837 1048.38 121.933 C 1043.85 104.473 1035.66 88.1766 1024.35 74.1259 C 983.869 23.4695 908.062 8.23273 851.227 39.5828 C 842.185 44.5706 835.28 49.6902 827.314 56.0582 C 799.553 19.2891 779.545 8.61242 734.46 0 z" fill="rgb(254,254,254)" transform="translate(0,0)"></path>
<path d="M 0 1668.64 C 2.1093 1681.45 3.20531 1695.39 7.2777 1707.69 C 31.8879 1782.02 94.8432 1823.51 170.809 1826.62 C 173.308 1861.15 168.19 1899.76 207.972 1909.78 C 225.515 1914.2 243.083 1918.75 260.644 1923.06 C 294.213 1931.42 327.83 1939.58 361.492 1947.55 L 612.06 2009.04 C 637.163 2015.31 663.832 2021.23 688.645 2027.7 C 706.205 2047.26 716.135 2043.27 739.141 2048 L 0 2048 L 0 1668.64 z" fill="rgb(254,254,254)" transform="translate(0,0)"></path>
<path d="M 1509 1676.93 L 1509 2048 L 771.795 2048 C 794.291 2043.58 803.562 2047.28 820.899 2027.51 C 860.11 2016.65 902.201 2007.51 941.968 1997.73 L 1179.88 1939.27 C 1219.94 1929.5 1260.38 1920.18 1300.31 1909.81 C 1304.82 1908.63 1315.8 1904.64 1319.33 1901.72 C 1340.07 1884.59 1337.23 1853.22 1339.1 1826.67 C 1431.55 1821.37 1492.83 1768.79 1509 1676.93 z" fill="rgb(254,254,254)" transform="translate(0,0)"></path>
<path d="M 670.304 466.551 C 705.263 512.391 762.715 526.551 809.97 489.537 C 818.337 482.967 825.67 475.177 831.723 466.429 C 868.919 512.502 927.421 527.226 975.512 487.527 C 982.817 481.455 989.23 474.385 994.562 466.524 C 1021.75 500.726 1055.88 518.368 1099.88 507.964 C 1099.24 570.59 1137.9 625.144 1202.2 633.69 L 1202.5 693.914 C 1230.06 695.951 1255.72 708.754 1273.93 729.556 C 1293.03 751.22 1302.55 779.686 1300.34 808.482 C 1298.39 837.302 1284.86 864.104 1262.82 882.78 C 1236 905.53 1196.23 915.352 1162.86 902.322 C 1144.47 960.477 1089.36 1031.8 1044.15 1071.67 C 1042.91 1073.24 1042.72 1073.4 1041.05 1074.42 C 999.087 1110.96 950.709 1139.39 898.37 1158.26 C 748.671 1213.23 589.507 1177.93 469.575 1074.71 C 418.906 1031.1 369.094 965.319 345.992 902.071 C 311.613 915.029 280.494 906.602 251.062 886.405 C 249.828 885.711 249.726 885.752 248.811 884.734 C 224.275 865.525 211.777 839.094 208.725 808.574 C 207.058 806.528 207.731 793.032 208.756 790.342 C 210.928 771.706 214.649 761.719 223.479 745.181 C 223.808 744.519 223.785 744.302 224.362 743.899 C 241.9 718.893 264.754 700.919 295.562 695.318 C 299.02 694.691 302.51 694.253 306.016 694.007 L 305.991 633.285 C 369.68 625.619 410.186 571.347 407.735 508.586 C 451.911 514.54 481.299 503.541 508.162 466.718 C 553.367 524.418 625.732 525.704 670.304 466.551 z" fill="rgb(140,80,25)" transform="translate(0,0)"></path>
<path d="M 208.756 790.342 C 208.802 790.969 208.778 808.139 208.725 808.574 C 207.058 806.528 207.731 793.032 208.756 790.342 z" fill="rgb(82,45,14)" transform="translate(0,0)"></path>
<path d="M 1041.05 1074.42 C 1041.89 1072.68 1042.45 1072.5 1044.15 1071.67 C 1042.91 1073.24 1042.72 1073.4 1041.05 1074.42 z" fill="rgb(82,45,14)" transform="translate(0,0)"></path>
<path d="M 248.811 884.734 C 250.36 885.415 250.304 885.198 251.062 886.405 C 249.828 885.711 249.726 885.752 248.811 884.734 z" fill="rgb(82,45,14)" transform="translate(0,0)"></path>
<path d="M 750.744 877.448 C 772.461 876.869 792.157 880.829 810.393 893.306 C 828.688 905.823 835.908 928.716 821.463 947.222 C 807.314 965.348 784.824 971.118 763.035 974.128 C 739.533 974.982 714.277 970.248 695.677 954.865 C 679.052 941.115 675.039 918.268 690.406 901.805 C 706.315 884.761 728.117 878.797 750.744 877.448 z" fill="rgb(11,6,4)" transform="translate(0,0)"></path>
<path d="M 743.666 880.363 C 763.286 877.308 789.011 883.123 805.72 893.359 C 826.217 905.915 834.317 929.329 816.885 948.372 C 804.142 962.293 786.564 967.435 768.682 970.729 C 673.918 979.649 648.141 893.083 743.666 880.363 z" fill="rgb(237,173,133)" transform="translate(0,0)"></path>
<path d="M 937.047 762.837 C 961.786 757.544 986.102 773.418 991.21 798.197 C 996.318 822.975 980.262 847.172 955.446 852.094 C 930.891 856.965 907.004 841.115 901.95 816.597 C 896.896 792.078 912.567 768.074 937.047 762.837 z" fill="rgb(11,6,4)" transform="translate(0,0)"></path>
<path d="M 554.751 762.851 C 579.421 757.814 603.48 773.81 608.382 798.507 C 613.284 823.204 597.158 847.175 572.434 851.942 C 547.901 856.672 524.154 840.697 519.29 816.19 C 514.426 791.683 530.271 767.85 554.751 762.851 z" fill="rgb(11,6,4)" transform="translate(0,0)"></path>
<path d="M 678.082 1032.54 C 695.436 1042 703.376 1048.05 723.5 1052.35 C 763.807 1060.95 796.634 1053.54 830.64 1032.32 C 835.78 1037.66 840.831 1043.79 845.677 1049.45 C 842.335 1052.06 838.418 1054.52 834.864 1056.88 C 821.846 1065.26 799.549 1073.6 784.455 1076.74 C 740.346 1085.93 700.99 1074.37 664.092 1050.5 L 678.082 1032.54 z" fill="rgb(11,6,4)" transform="translate(0,0)"></path>
<path d="M 678.725 1035.81 C 728.392 1066.32 780.677 1066.39 830.196 1035.61 C 834.046 1039.62 838.067 1044.78 841.643 1049.14 L 832.857 1055.07 C 775.189 1086.97 723.198 1083.99 667.722 1049.72 L 678.725 1035.81 z" fill="rgb(248,104,83)" transform="translate(0,0)"></path>
<path d="M 131.78 1210.56 C 148.237 1213.31 184.127 1223.62 201.732 1228.01 C 247.463 1238.92 293.119 1250.15 338.698 1261.69 C 446.696 1288.66 559.856 1314.15 666.98 1343.24 C 671.526 1349.57 675.032 1353.69 680.107 1359.49 L 680.035 1776.19 L 680.063 1925.36 C 680.073 1951.31 679.817 1977.71 680.517 2003.66 C 680.728 2011.48 683.211 2017.54 686.401 2024.58 C 658.209 2016.13 626.681 2010.35 597.936 2002.9 C 561.152 1993.37 523.924 1985.09 487.079 1975.6 L 286.939 1926.83 C 258.927 1919.78 230.005 1913.77 202.515 1905.74 C 175.285 1897.79 175.753 1864.82 174.633 1842.24 C 173.991 1829.29 173.007 1816.54 170.777 1803.79 C 194.377 1806.51 214.978 1806.51 240.404 1806.48 C 270.316 1806.45 315.013 1815.89 313.313 1769.98 C 312.936 1759.79 305.488 1751.85 297.722 1745.79 C 306.425 1745.72 316.565 1746.23 325.075 1744.03 C 344.056 1739.11 354.194 1719.11 348.494 1700.61 C 344.734 1688.4 338.348 1683.01 327.453 1677.01 C 331.859 1674.9 335.907 1672.84 339.439 1669.43 C 346.531 1662.51 350.478 1653 350.359 1643.09 C 350.323 1633.68 346.948 1624.28 340.011 1617.81 C 327.082 1605.75 314.13 1607.87 297.955 1608.33 C 306.551 1602.49 316.114 1590.58 315.179 1579.76 C 311.689 1539.37 269.716 1547.75 242.25 1548.44 C 217.069 1549.09 191.883 1549.6 166.695 1549.96 C 167.676 1548.59 168.62 1547.2 169.525 1545.78 C 177.798 1532.59 180.444 1516.63 176.874 1501.48 C 173.389 1486.35 165.272 1475.29 152.299 1467.06 C 150.852 1458.7 150.135 1443.01 149.413 1434.1 L 144.447 1376.14 L 136.712 1278.65 C 134.975 1256.9 132.421 1232.19 131.78 1210.56 z" fill="rgb(248,104,83)" transform="translate(0,0)"></path>
<path d="M 1375.51 1211.11 L 1377.16 1211.97 C 1377.74 1216.56 1372.75 1273.01 1372.07 1281.78 C 1367.03 1343.14 1362.62 1404.56 1358.85 1466.02 C 1329.2 1483.91 1321.87 1522.09 1343.23 1549.37 C 1305.75 1549.09 1268.04 1547.75 1230.57 1547.49 C 1220.92 1547.91 1210.89 1549.12 1204.32 1557.15 C 1189.45 1575.34 1193.25 1593.29 1209.8 1607.86 C 1201.4 1607.67 1190.48 1607.12 1182.52 1609.74 C 1173.74 1612.58 1166.49 1618.85 1162.42 1627.13 C 1152.44 1647.54 1161.92 1667.79 1181.91 1676.92 C 1177.97 1678.82 1173.62 1681.24 1170.43 1684.23 C 1163.22 1690.94 1159.03 1700.28 1158.79 1710.12 C 1158.56 1719.35 1161.68 1728.57 1168.32 1735.05 C 1181.46 1747.84 1196.31 1746.01 1213.04 1745.84 C 1203.47 1753.29 1195.87 1763.06 1197.06 1776.03 C 1197.85 1784.62 1201.54 1794.11 1208.42 1799.65 C 1211.81 1802.4 1215.84 1804.27 1220.13 1805.09 C 1229.93 1807.02 1250.72 1806.2 1261.35 1806.23 C 1287.78 1806.31 1311.95 1806.65 1338.23 1803.74 C 1337.77 1823.56 1336.28 1874 1327.09 1888.98 C 1323.44 1894.94 1316.95 1901.27 1310.47 1903.97 C 1300.41 1908.17 1288.72 1910.26 1278.14 1912.88 C 1256.67 1918.18 1235.16 1923.37 1213.63 1928.43 L 1023.82 1974.72 C 958.008 1991.58 888.068 2006.43 823.253 2024.11 C 825.777 2018.97 828.684 2011.83 828.889 2006.18 C 829.753 1982.35 829.423 1957.9 829.414 1934.05 L 829.296 1798.95 L 829.217 1359.9 C 833.211 1354.78 837.247 1348.93 841.072 1343.63 C 855.101 1339.49 873.42 1335.55 887.846 1332.01 L 977.281 1310.04 L 1260.19 1240.06 C 1297.85 1230.61 1338.3 1221.3 1375.51 1211.11 z" fill="rgb(248,104,83)" transform="translate(0,0)"></path>
<path d="M 682.982 1362.47 C 726.335 1395.17 782.417 1393.61 826.213 1362.86 L 826.464 1788.36 L 826.645 1913.45 C 826.672 1934.12 828.54 2002.28 823.381 2017.39 C 809.39 2044.55 785.32 2044.98 757.641 2045.42 C 734.364 2045.79 701.446 2045.36 688.641 2022.29 C 686.234 2017.95 683.937 2012.42 683.467 2007.37 C 682.534 1984.56 682.904 1961.57 682.902 1938.72 L 682.872 1802.82 L 682.982 1362.47 z" fill="rgb(248,104,83)" transform="translate(0,0)"></path>
<path d="M 123.069 1463.04 C 125.204 1462.91 127.344 1462.87 129.483 1462.92 C 141.053 1463.23 153.547 1469.68 161.412 1478.08 C 171.251 1488.79 176.426 1502.97 175.792 1517.49 C 175.189 1532.54 170.243 1543.01 159.348 1553.03 C 199.861 1551.65 240.512 1551.12 281.133 1550.55 C 315.311 1550.07 324.192 1596.16 291.904 1607.15 C 282.636 1610.31 272.157 1608.96 262.475 1609.33 C 237.255 1610.3 211.417 1609 186.387 1610.81 C 184.975 1610.91 184.996 1611.82 184.557 1612.97 C 187.375 1614.18 205.704 1612.79 210.78 1612.69 C 231.068 1612.3 252.049 1611.96 272.287 1611.69 C 284.682 1611.53 312.033 1609.78 323.299 1612.01 C 331.176 1613.63 338.061 1618.37 342.384 1625.15 C 352.382 1640.9 348.368 1662.92 331.573 1672.19 C 315.729 1680.94 192.579 1672.35 184.811 1677.19 L 184.877 1678.47 C 192.01 1680.41 202.836 1679.08 210.463 1679.07 C 229.118 1679.04 316.103 1676.43 325.876 1680.1 C 335.627 1683.76 341.027 1689.74 345.458 1698.96 C 351.268 1723.17 341.406 1740.53 314.877 1742.73 C 299.297 1744.03 188.903 1741.57 184.104 1745.47 C 190.128 1749.76 282.054 1741.42 295.173 1748.37 C 307.545 1754.93 313.087 1768.63 310.444 1781.29 C 308.858 1788.79 304.258 1795.31 297.721 1799.33 C 293.995 1801.64 288.168 1803.66 283.834 1803.94 C 272.965 1804.66 261.029 1804.08 250.031 1803.87 C 221.082 1803.33 188.369 1805.61 160.138 1799.1 C 120.027 1789.87 89.5791 1768.49 67.2436 1734.01 C 35.9483 1685.72 36.84 1619.12 71.5699 1572.96 C 81.1636 1560.21 100.066 1544.44 106.456 1530.25 C 112.486 1516.86 106.654 1493.74 110.103 1479.3 C 112.188 1470.57 115.915 1467.51 123.069 1463.04 z" fill="rgb(237,173,133)" transform="translate(0,0)"></path>
<path d="M 1375.99 1463.16 C 1414.31 1461.04 1393.39 1507.62 1402 1528.12 C 1408.63 1543.92 1424.31 1556.26 1435.01 1569.64 C 1457.38 1597.59 1467.82 1635.81 1463.87 1671.31 C 1459.44 1710.64 1439.54 1746.6 1408.56 1771.24 C 1366.18 1804.74 1322.23 1804.18 1271.37 1803.49 C 1255.56 1803.45 1240.74 1804.57 1224.88 1803.27 C 1197.18 1801.34 1190.76 1760.59 1215 1748.59 C 1230.03 1741.14 1309.86 1750.38 1316.35 1745.66 C 1312.98 1742.47 1235.89 1743.8 1226.85 1743.18 C 1199.39 1741.28 1173.53 1751.26 1162 1718.28 C 1156.3 1684.85 1184.43 1675.33 1211.12 1678.16 C 1217.05 1678.79 1226.21 1678.46 1232.34 1678.51 L 1289.05 1678.6 C 1294.83 1678.6 1310.36 1679.05 1315.27 1677.69 L 1315.9 1676.57 C 1307.59 1672.7 1205.22 1678.84 1185.77 1674.84 C 1177.93 1673.22 1171.07 1668.52 1166.73 1661.78 C 1161.82 1654.17 1160.19 1644.9 1162.22 1636.07 C 1169.5 1603.43 1205.89 1610.76 1231.44 1611.46 C 1253.61 1612.05 1275.78 1612.5 1297.95 1612.83 C 1302.28 1612.88 1315.34 1613.67 1317.9 1612.01 C 1315.21 1607.81 1231.04 1611.17 1220.45 1607.98 C 1206.82 1603.86 1197.71 1595.41 1197.92 1581.53 C 1198.52 1541.84 1239.72 1550.19 1267.35 1550.81 L 1348.82 1552.39 C 1346.48 1549.35 1343.67 1546.14 1341.66 1542.9 C 1328.6 1521.89 1332.43 1490.63 1351.63 1474.54 C 1359.16 1468.22 1366.6 1465.39 1375.99 1463.16 z" fill="rgb(237,173,133)" transform="translate(0,0)"></path>
<path d="M 898.849 1160.85 C 912.508 1155.76 930.288 1148.87 942.934 1142.31 C 966.28 1129.19 972.694 1125.06 999.202 1125.94 C 1049.05 1127.6 1104.98 1145.1 1148.51 1169.69 L 985.343 1210.86 C 944.36 1220.68 909.153 1231.23 871.099 1249.91 C 826.388 1271.86 772.258 1308.18 755.517 1357.71 C 752.25 1348.61 747.977 1339.9 742.778 1331.75 C 713.439 1285.77 639.567 1243.43 588.49 1228.78 C 516.663 1208.17 438.89 1187.58 366.042 1171.25 C 409.528 1146.73 461.877 1130.03 511.768 1126.41 C 543.49 1124.83 546.046 1131.87 573.788 1145.39 C 585.575 1151.09 597.626 1156.22 609.898 1160.78 C 655.861 1269.36 789.124 1284.94 869.854 1204.85 C 882.086 1192.71 890.962 1176.03 898.849 1160.85 z" fill="rgb(254,197,12)" transform="translate(0,0)"></path>
<path d="M 1328.26 1160.29 C 1328.3 1160.32 1328.36 1160.32 1328.39 1160.36 C 1330.93 1163.18 1332.62 1194.8 1333.27 1200.48 C 1298.48 1209.76 1260.61 1217.97 1225.36 1226.53 C 1133.51 1248.26 1041.83 1270.71 950.33 1293.88 C 911.797 1303.69 861.211 1314.88 823.957 1326.84 C 823.704 1327.41 823.438 1327.96 823.16 1328.51 C 814.49 1345.59 797.982 1355.68 780.239 1361.23 L 777.464 1361.59 L 776.556 1360.45 C 776.437 1354.6 781.918 1342.63 785.257 1337.92 C 826.298 1280.01 898.898 1261.54 963.088 1246.21 L 1033.18 1229.25 L 1328.26 1160.29 z" fill="rgb(254,254,254)" transform="translate(0,0)"></path>
<path d="M 185.185 1160.94 L 489.205 1232.72 C 570.429 1252.52 644.567 1259.82 709.038 1317.71 C 710.709 1318.58 710.458 1318.36 711.379 1320.03 C 725.414 1335.23 729.839 1343.7 735.244 1363.04 L 732.929 1362.48 C 710.596 1357.04 695.208 1345.06 683.432 1325.68 C 668.553 1320.81 644.689 1315.5 629.104 1311.58 L 526.119 1285.72 L 183.681 1201.23 C 184.088 1187.8 184.589 1174.37 185.185 1160.94 z" fill="rgb(254,254,254)" transform="translate(0,0)"></path>
<path d="M 709.038 1317.71 C 710.709 1318.58 710.458 1318.36 711.379 1320.03 C 710.055 1319.26 709.853 1318.95 709.038 1317.71 z" fill="rgb(92,90,92)" transform="translate(0,0)"></path>
<path d="M 146.785 1194.8 C 154.905 1195.86 186.842 1204.57 196.981 1207.04 C 237.689 1216.81 278.325 1226.88 318.886 1237.25 C 439.963 1266.27 560.772 1296.4 681.299 1327.63 C 701.69 1358.61 731.001 1371.13 767.676 1366.33 C 794.142 1362.87 812.653 1351.76 825.925 1328.73 C 866.462 1316.83 912.393 1306.09 953.664 1295.65 C 1042.2 1273.26 1130.9 1251.57 1219.78 1230.59 C 1266.26 1219.5 1316.87 1208.26 1362.71 1195.45 C 1368.55 1200.39 1370.95 1202.91 1375.98 1208.7 L 1364.5 1211.39 C 1189.17 1253.34 1014.16 1296.64 839.489 1341.28 C 833.985 1349.27 828.827 1357 820.895 1363.12 C 783.456 1392 718.068 1390.1 682.852 1358.47 C 678.823 1354.86 671.849 1345.17 668.306 1340.62 L 276.802 1243.47 C 229.502 1231.76 180.834 1220.77 133.811 1208.12 L 146.785 1194.8 z" fill="rgb(248,104,83)" transform="translate(0,0)"></path>
<path d="M 1367.27 1385.65 C 1376.85 1394.34 1420.22 1470.08 1430.06 1486.06 L 1463.58 1540.21 C 1472.19 1553.82 1482.33 1568.71 1489.47 1582.97 C 1496.82 1597.48 1501.86 1613.04 1504.42 1629.09 C 1519.48 1722.3 1458.54 1806.94 1365.25 1821.58 C 1356.74 1822.87 1347.74 1823.38 1339.12 1824.03 C 1339.75 1817.14 1340.47 1810.26 1341.31 1803.4 C 1347.92 1802.1 1354.49 1800.83 1360.93 1798.84 C 1399.22 1787.19 1431.29 1760.78 1450.08 1725.45 C 1475.71 1676.47 1472.83 1616.97 1440 1571.73 C 1429.96 1557.91 1412.29 1543.92 1405.38 1529.07 C 1398.43 1513 1406.56 1491.68 1401.06 1475.53 C 1394.25 1455.59 1376.66 1459.63 1361.74 1464.82 C 1361.88 1447.05 1365.14 1402.76 1367.27 1385.65 z" fill="rgb(254,197,12)" transform="translate(0,0)"></path>
<path d="M 141.599 1386.78 C 144.201 1389.61 148.646 1458.19 149.233 1465.97 C 140.267 1461.6 126.325 1457.08 117.44 1463.42 C 98.9158 1476.46 110.385 1503.47 106.548 1521.32 C 102.52 1540.06 79.9803 1557.03 68.6403 1572.35 C 56.0596 1589.33 47.6695 1609.04 44.1538 1629.89 C 37.082 1671.42 45.9959 1709.53 70.6221 1743.75 C 94.1342 1775.86 129.391 1797.37 168.703 1803.59 L 170.441 1824.08 C 163.125 1823.99 155.091 1822.89 147.762 1822.08 C 78.8841 1810.71 23.4464 1765.61 6.82668 1695.58 C -11.7897 1617.15 31.1329 1564.91 70.0827 1501.74 C 93.6547 1463.25 117.494 1424.93 141.599 1386.78 z" fill="rgb(254,197,12)" transform="translate(0,0)"></path>
<path d="M 613.528 1161.97 C 708.534 1194.49 800.01 1195.85 895.248 1162.03 C 887.723 1178.66 880.118 1188.95 868.569 1202.71 C 816.328 1258.89 720.733 1270.12 659.426 1222.44 C 637.977 1205.76 622.856 1187.92 613.528 1161.97 z" fill="rgb(140,80,25)" transform="translate(0,0)"></path>
<path d="M 239.619 1141.81 C 316.442 1161.62 393.377 1180.99 470.419 1199.93 C 566.514 1224.04 703.185 1251.4 751.302 1353.82 C 752.538 1356.45 754.308 1361.55 753.164 1364.24 L 750.743 1364.79 L 736.789 1363.67 C 721.363 1272.56 561.338 1247.24 488.708 1229.86 L 234.431 1169.64 L 239.619 1141.81 z" fill="rgb(254,254,254)" transform="translate(0,0)"></path>
<path d="M 1267.1 1142.22 C 1270.05 1144.45 1273.64 1165.13 1274.74 1170.34 C 1233.39 1181.04 1188.59 1190.28 1146.73 1199.72 C 1098.43 1210.76 1050.22 1222.21 1002.12 1234.09 C 925.407 1252.79 798.788 1274.14 772.764 1362.71 L 765.964 1363.7 C 762.802 1364.27 761.945 1364.59 758.815 1364.22 L 757.237 1362.14 C 756.388 1356.05 763.684 1343.12 767.148 1337.85 C 830.037 1242.21 961.771 1220.02 1062.36 1193.96 L 1267.1 1142.22 z" fill="rgb(254,254,254)" transform="translate(0,0)"></path>
<metadata><recraft-signature>{"signed_by": "recraft", "signature_b64": "U4NtD9nJE8QH7XkD6A6jcy1dhqz0m+JnZUpEIKFploIknOtyVCsyCKRKgLzwW/KgImZ2GQIlULkEddlWpCz4DQ==", "signing_algo": "Ed25519", "generation_timestamp": 1779006875, "identifier": "3c42a426-345e-43b3-97af-5997ec6141eb"}</recraft-signature></metadata></svg>