<svg xmlns="http://www.w3.org/2000/svg" height="1024" preserveAspectRatio="none" style="display: block;" version="1.1" viewBox="0 0 2048 2048" width="1024">
<path d="M 0 0 L 2048 0 L 2048 2048 L 0 2048 L 0 0 z" fill="rgb(255,255,255)" transform="translate(0,0)"></path>
<path d="M 1044.64 99.4054 C 1089.14 95.5425 1117.58 126.582 1122.41 168.629 C 1126 199.906 1117.14 227.534 1113.4 258.129 C 1104.82 328.239 1112.8 397.768 1131 465.738 C 1154.32 553.752 1190.96 633.345 1238.62 710.739 C 1252.25 732.861 1268.62 756.977 1284.08 777.899 C 1317.95 823.725 1356.04 863.042 1365.98 921.836 C 1372.68 961.401 1367.03 996.061 1343.33 1029.08 C 1297.57 1092.85 1208.62 1111.9 1136.52 1127.99 C 1091.98 1137.93 1046.9 1145.42 1002.16 1153.2 C 979.792 1156.72 957.312 1161.09 934.942 1164.77 C 826.695 1182.59 711.189 1135.12 683.784 1020.26 C 656.641 906.507 738.126 803.342 847.069 776.041 C 846.803 732.578 850.176 688.764 852.246 645.347 C 858.556 512.995 872.537 248.098 958.73 146.456 C 981.243 119.907 1009.63 102.396 1044.64 99.4054 z" fill="rgb(223,154,114)" transform="translate(0,0)"></path>
<path d="M 1056.56 261.839 C 1065.16 261.711 1067.65 263.643 1070.12 272.077 C 1078.37 300.251 1075.63 331.708 1077.36 360.844 C 1078.28 374.91 1079.86 388.926 1082.09 402.845 C 1090.24 454.233 1102.84 504.815 1119.75 554.019 C 1132.44 591.003 1147.63 627.077 1165.23 661.989 C 1179.74 690.138 1210.27 732.111 1206.89 765 C 1205.57 777.777 1193.82 777.36 1183.73 774.535 C 1165.02 767.137 1150.54 751.64 1138.65 735.851 C 1122.62 714.557 1109.08 690.84 1097.9 666.668 C 1057.8 579.931 1015.77 417.766 1029.89 323.014 C 1032.89 302.919 1039.26 274.629 1056.56 261.839 z" fill="rgb(242,189,157)" transform="translate(0,0)"></path>
<path d="M 1011.02 1011.41 C 1026.88 1009.21 1056.71 1011.37 1071.84 1016.28 C 1108.63 1028.23 1128.59 1046.05 1146.66 1079.12 C 1091.57 1066.46 1052.17 1064.96 996.226 1076.45 C 978.848 1081.02 962.763 1087.8 946.406 1095.83 C 934.2 1101.82 909.079 1121.8 895.465 1111.65 C 881.806 1101.46 895.593 1072.17 904.721 1061.51 C 932.462 1029.11 969.687 1015.81 1011.02 1011.41 z" fill="rgb(189,114,84)" transform="translate(0,0)"></path>
<path d="M 1264.75 855.26 C 1312.17 852.871 1334.72 902.616 1338.64 942.756 C 1340.55 962.26 1335.69 977.748 1313.83 978.305 C 1276.31 975.899 1248.22 952.461 1239.81 915.629 C 1236.35 900.443 1235.97 881.526 1244.61 867.827 C 1249.75 859.666 1255.71 857.203 1264.75 855.26 z" fill="rgb(242,189,157)" transform="translate(0,0)"></path>
<path d="M 960.875 1521.69 C 962.957 1498.59 974.099 1477.25 991.866 1462.33 C 1016.58 1441.85 1048.76 1445.11 1068.58 1470.83 C 1085.95 1493.37 1087.21 1516.69 1087.24 1543.98 C 1102.65 1509.44 1118.72 1478.89 1155.54 1463.7 C 1183.84 1452.03 1209.86 1464.21 1219.04 1493.01 C 1231.04 1530.64 1214.93 1575.11 1198.92 1609.14 C 1176.84 1654.57 1134.53 1705.87 1085.3 1722.7 C 1074.11 1726.52 1064.25 1727.57 1054.02 1730.47 C 1031.22 1733.96 1015.03 1733.29 992.153 1730.56 C 978.346 1727.43 963.63 1723.22 950.699 1717.43 C 899.205 1694.36 861.646 1642.86 841.921 1591.27 C 829.602 1558.74 821.164 1519.86 835.282 1486.51 C 847.621 1457.36 878.694 1452.6 904.73 1466.26 C 933.659 1481.44 948.355 1504.45 958.699 1534.81 C 960.622 1531.25 959.928 1526.3 960.875 1521.69 z" fill="rgb(239,120,143)" transform="translate(0,0)"></path>
<path d="M 958.699 1534.81 C 960.622 1531.25 959.928 1526.3 960.875 1521.69 C 960.953 1524.05 961.397 1537.48 960.506 1539.02 L 960.391 1539.06 L 960.347 1538.84 L 959.961 1538.72 C 959.111 1537.18 958.998 1536.51 958.699 1534.81 z" fill="rgb(250,222,225)" transform="translate(0,0)"></path>
<path d="M 992.153 1730.56 C 1015.03 1733.29 1031.22 1733.96 1054.02 1730.47 C 1054.03 1736.65 1053.97 1742.83 1053.86 1749 L 1055.04 1843.54 C 1062.54 1834.58 1068.35 1823.67 1076.24 1814.39 C 1105.74 1779.7 1145.63 1749.94 1191.89 1744.13 C 1201.91 1742.87 1217.92 1745.22 1224.78 1752.35 C 1257.29 1786.15 1212.4 1846.38 1190.05 1870.25 C 1150.2 1912.83 1098.22 1945.15 1039.56 1948.72 C 1030.13 1949.12 1006.94 1948.79 998.022 1947.8 C 950.491 1942.06 903.728 1914.8 869.78 1881.78 C 844.663 1857.35 815.391 1820.35 812.926 1783.86 C 811.426 1761.65 827.197 1743.28 850.09 1743.71 C 890.28 1744.48 929.165 1770.97 957.393 1797.7 C 970.988 1810.87 983.159 1829.57 992.999 1845.58 C 992.9 1815.18 993.445 1782.12 992.5 1751.94 C 991.729 1746.27 992.106 1736.55 992.153 1730.56 z" fill="rgb(118,163,132)" transform="translate(0,0)"></path>
<path d="M 992.153 1730.56 C 1015.03 1733.29 1031.22 1733.96 1054.02 1730.47 C 1054.03 1736.65 1053.97 1742.83 1053.86 1749 L 1053.31 1750.08 C 1050.58 1755.69 1038.28 1759.31 1032.51 1760.32 C 1020.42 1762.42 1005.66 1760.34 995.382 1753.28 C 994.51 1752.68 993.427 1752.32 992.5 1751.94 C 991.729 1746.27 992.106 1736.55 992.153 1730.56 z" fill="rgb(86,113,89)" transform="translate(0,0)"></path>
<path d="M 1125.53 1208 C 1130.14 1207.35 1132.8 1208.11 1136.85 1210.06 C 1145.34 1221.07 1126.21 1233.2 1121.73 1242.85 C 1116.18 1253.41 1112.25 1275.89 1118.69 1286.56 C 1145.92 1331.62 1148.19 1393.87 1105.85 1433.65 C 1101.78 1434.53 1097.49 1433.57 1094.98 1430.26 C 1088.13 1420.9 1098.39 1412.23 1102.84 1405.2 C 1118.89 1379.87 1124.8 1348.1 1111.72 1320.23 C 1101.71 1298.91 1092.72 1279.69 1096.48 1255.63 C 1099.38 1237 1110.15 1219.26 1125.53 1208 z" fill="rgb(223,154,114)" transform="translate(0,0)"></path>
<path d="M 941.196 1206.86 C 967.172 1207.84 943.415 1233.93 938.729 1244.23 C 928.397 1266.95 933.543 1277.46 945.82 1296.99 C 960.808 1320.85 968.425 1352.2 961.587 1380.03 C 957.604 1396.24 951.087 1423.5 936.213 1433.27 C 929.147 1433.08 919.313 1429.14 923.105 1421.45 C 934.428 1398.5 944.35 1383.07 944.873 1356.16 C 945.68 1314.65 903.991 1293.35 915.499 1250.07 C 919.83 1233.78 926.347 1216.36 941.196 1206.86 z" fill="rgb(223,154,114)" transform="translate(0,0)"></path>
<path d="M 1035.23 1206.77 C 1038.4 1206.6 1044.01 1207.19 1046.54 1209.19 C 1056.01 1216.7 1038.8 1231.1 1034.96 1237.97 C 1030.73 1245.54 1028.05 1252.63 1027.12 1261.47 C 1025.29 1278.83 1036.23 1291.67 1041.93 1307.25 C 1047.07 1321.32 1049.68 1334.55 1049.95 1349.49 C 1050.44 1375.56 1040.59 1408.25 1021.94 1427.17 C 1014.29 1427.12 1005.33 1421.39 1008.91 1413.86 C 1018.05 1394.69 1028.58 1379.99 1029.64 1357.74 C 1030.26 1347.03 1029.11 1327.9 1024.1 1318.14 C 1003.51 1278.05 996.272 1240.87 1035.23 1206.77 z" fill="rgb(223,154,114)" transform="translate(0,0)"></path>
<metadata><recraft-signature>{"signed_by": "recraft", "signature_b64": "9B6aRLwZz4c7nFlzkj9vo9BgFBsUbHoC3URhk0PR1RoFPKvYY2XYv0GsMktC0Vkq4pHqKh7I2jvdpsFboyuiBg==", "signing_algo": "Ed25519", "generation_timestamp": 1779010648, "identifier": "c8cceb02-364f-4407-b156-c8650e5d3bbb"}</recraft-signature></metadata></svg>