<svg xmlns="http://www.w3.org/2000/svg" height="1024" preserveAspectRatio="none" style="display: block;" version="1.1" viewBox="0 0 2048 2048" width="1024">
<path d="M 0 0 L 2048 0 L 2048 2048 L 0 2048 L 0 0 z" fill="rgb(255,255,255)" transform="translate(0,0)"></path>
<path d="M 798.215 645.458 L 797.501 644.256 C 791.489 633.959 787.392 619.273 791.878 607.669 C 833.455 500.117 914.4 400.54 1014.84 343.239 C 1229.23 220.94 1537.19 286.15 1663.7 504.337 C 1733.75 625.142 1737.38 786.372 1700.92 918.569 C 1672.83 1024.1 1620.84 1121.75 1548.98 1203.97 C 1531.83 1223.38 1513.09 1242.02 1495.9 1261.4 C 1468.29 1292.39 1444.63 1326.68 1425.44 1363.49 C 1406.65 1400.31 1393.38 1439.09 1385.2 1479.7 C 1378.77 1510.32 1375.99 1541.3 1368.22 1571.67 C 1360.85 1600.47 1349.66 1626.47 1334.48 1651.9 C 1263.37 1770.99 1132.75 1829.56 997.549 1791.23 C 923.883 1769.82 861.83 1719.86 825.199 1652.46 C 796.391 1600.01 791.245 1551.06 790.507 1492.56 C 790.301 1476.22 788.496 1455.55 789.795 1439.53 C 786.666 1424.6 787.933 1382.4 788.068 1365.38 C 770.867 1385.07 752.813 1403.89 733.676 1421.61 C 721.267 1433.1 709.558 1447.03 692.218 1450 C 682.62 1451.64 667.317 1447.83 659.589 1441.81 C 649.884 1434.26 643.846 1422.93 642.979 1410.66 C 640.695 1382.21 670.453 1364.53 689.741 1346.63 C 699.506 1337.4 708.711 1327.6 717.306 1317.28 C 799.18 1222.09 839.363 1097.99 828.822 972.874 C 818.965 856.376 754.752 741.84 661.782 669.091 C 640.394 652.355 636.32 621.993 654.721 602.527 C 662.798 593.867 674.149 589.009 685.991 589.145 C 702.603 589.2 713.526 597.708 725.284 607.956 C 747.473 627.295 766.979 649.032 787.563 669.985 C 790.343 662.503 793.828 651.836 798.215 645.458 z" fill="rgb(246,202,169)" transform="translate(0,0)"></path>
<path d="M 798.215 645.458 L 797.501 644.256 C 791.489 633.959 787.392 619.273 791.878 607.669 C 833.455 500.117 914.4 400.54 1014.84 343.239 C 1229.23 220.94 1537.19 286.15 1663.7 504.337 C 1733.75 625.142 1737.38 786.372 1700.92 918.569 C 1672.83 1024.1 1620.84 1121.75 1548.98 1203.97 C 1531.83 1223.38 1513.09 1242.02 1495.9 1261.4 C 1468.29 1292.39 1444.63 1326.68 1425.44 1363.49 C 1406.65 1400.31 1393.38 1439.09 1385.2 1479.7 C 1378.77 1510.32 1375.99 1541.3 1368.22 1571.67 C 1360.85 1600.47 1349.66 1626.47 1334.48 1651.9 C 1263.37 1770.99 1132.75 1829.56 997.549 1791.23 C 923.883 1769.82 861.83 1719.86 825.199 1652.46 C 796.391 1600.01 791.245 1551.06 790.507 1492.56 C 790.301 1476.22 788.496 1455.55 789.795 1439.53 C 790.418 1438 791.051 1436.46 791.693 1434.93 C 794.837 1427.24 797.263 1422.38 803.56 1416.53 C 812.286 1408.52 823.85 1404.33 835.68 1404.89 C 852.152 1405.73 868.867 1417.79 874.455 1433.11 C 878.877 1449.04 877.689 1469.77 877.261 1486.55 C 875.675 1548.7 881.645 1601.56 925.9 1650.31 C 962.757 1690.87 1014.38 1714.89 1069.15 1716.96 C 1124.86 1719.35 1179.19 1699.21 1219.88 1661.08 C 1294.75 1591.69 1286.62 1525.14 1308.07 1437.99 C 1318.64 1396.28 1334.29 1356.02 1354.66 1318.12 C 1377.65 1275.2 1405.85 1235.28 1438.61 1199.25 C 1456.96 1178.7 1479.92 1155.62 1497.2 1134.79 C 1526.85 1099.02 1559.74 1050.53 1579.05 1008.19 C 1613.58 932.446 1633.08 850.718 1636.47 767.541 C 1639.99 663.302 1615.54 564.742 1543.29 485.998 C 1534.63 476.551 1523.4 467.498 1513.6 459.151 C 1446.94 402.393 1361.5 373.217 1274.27 370.679 C 1114.52 366.032 992.245 427.24 908.962 564.75 C 901.882 576.481 895.275 588.49 889.155 600.748 C 882.025 614.969 872.588 641.729 861.821 651.945 C 844.194 668.67 815.241 665.127 799.163 646.569 L 798.215 645.458 z" fill="rgb(251,82,53)" transform="translate(0,0)"></path>
<path d="M 788.068 1365.38 C 770.867 1385.07 752.813 1403.89 733.676 1421.61 C 721.267 1433.1 709.558 1447.03 692.218 1450 C 682.62 1451.64 667.317 1447.83 659.589 1441.81 C 649.884 1434.26 643.846 1422.93 642.979 1410.66 C 640.695 1382.21 670.453 1364.53 689.741 1346.63 C 699.506 1337.4 708.711 1327.6 717.306 1317.28 C 799.18 1222.09 839.363 1097.99 828.822 972.874 C 818.965 856.376 754.752 741.84 661.782 669.091 C 640.394 652.355 636.32 621.993 654.721 602.527 C 662.798 593.867 674.149 589.009 685.991 589.145 C 702.603 589.2 713.526 597.708 725.284 607.956 C 747.473 627.295 766.979 649.032 787.563 669.985 C 963.495 890.477 962.092 1144.09 788.068 1365.38 z" fill="rgb(97,139,224)" transform="translate(0,0)"></path>
<path d="M 1086.33 726.474 C 1099.12 715.774 1111.8 710.24 1128.7 712.411 C 1171.2 717.872 1224.87 741.836 1258.84 766.658 C 1277.58 780.285 1294.46 796.296 1309.05 814.286 C 1342.58 854.974 1357.95 908.432 1363.35 960.115 C 1366.56 990.792 1370.63 1010.38 1341.07 1030.17 C 1329.32 1074.21 1315.99 1107.61 1282.93 1140.85 C 1251.17 1172.79 1217.95 1203.21 1186.35 1235.29 C 1181.91 1239.81 1179.43 1251.55 1177.11 1257.46 C 1169.62 1281.8 1153.42 1301.57 1131.22 1314.31 C 1104.97 1329.5 1073.75 1333.62 1044.45 1325.78 C 1010.5 1316.49 978.051 1285.14 971.312 1250.02 C 935.442 1213.08 961.86 1187.34 991.278 1161.85 C 1004.13 1150.71 1018.17 1138.22 1030 1126.19 C 1059.44 1096.28 1074.24 1045.87 1053.57 1006.63 C 1044.42 989.177 1028.97 975.851 1010.36 969.356 C 992.73 963.285 970.027 961.966 961.154 941.205 C 949.499 913.934 961.074 889.282 988.06 877.481 C 986.969 856.483 989.691 835.758 994.209 815.234 C 995.534 809.215 998.687 802.638 999.936 796.943 L 1000.27 795.347 L 1002.74 793.65 C 1023.89 779.199 1022.15 768.129 1032.55 749.284 L 1033.45 747.673 L 1034.45 748.354 C 1050 738.838 1068.41 729.735 1086.33 726.474 z" fill="rgb(251,82,53)" transform="translate(0,0)"></path>
<path d="M 988.06 877.481 C 1015.39 871.117 1050.96 885.766 1073.8 900.074 C 1114.13 925.14 1142.84 965.221 1153.6 1011.48 C 1164.06 1057.09 1153.67 1108.41 1128.53 1147.73 C 1109.35 1177.72 1079.71 1203.04 1053.75 1227.13 C 1030.06 1249.11 1008.29 1273.72 973.231 1251.3 C 972.585 1250.88 971.946 1250.46 971.312 1250.02 C 935.442 1213.08 961.86 1187.34 991.278 1161.85 C 1004.13 1150.71 1018.17 1138.22 1030 1126.19 C 1059.44 1096.28 1074.24 1045.87 1053.57 1006.63 C 1044.42 989.177 1028.97 975.851 1010.36 969.356 C 992.73 963.285 970.027 961.966 961.154 941.205 C 949.499 913.934 961.074 889.282 988.06 877.481 z" fill="rgb(167,59,51)" transform="translate(0,0)"></path>
<path d="M 1086.33 726.474 C 1099.12 715.774 1111.8 710.24 1128.7 712.411 C 1171.2 717.872 1224.87 741.836 1258.84 766.658 C 1277.58 780.285 1294.46 796.296 1309.05 814.286 C 1342.58 854.974 1357.95 908.432 1363.35 960.115 C 1366.56 990.792 1370.63 1010.38 1341.07 1030.17 C 1313.1 1039.01 1286.38 1031.47 1277.73 999.98 C 1275.22 990.842 1276.92 978.143 1275.88 968.469 C 1274.63 956.831 1273.18 946.135 1270.31 934.707 C 1255.42 874.186 1209.39 826.195 1149.54 808.784 C 1139.39 805.885 1128.37 803.975 1117.94 802.154 C 1076.89 794.988 1062.85 760.554 1086.33 726.474 z" fill="rgb(167,59,51)" transform="translate(0,0)"></path>
<path d="M 1000.27 795.347 C 989.296 799.814 978.144 800.055 966.941 796.027 C 956.186 792.098 947.51 783.934 942.934 773.438 C 937.676 761.215 939.413 746.996 945.05 735.282 C 995.798 629.835 1039.98 530.286 1155.38 483.645 C 1307.48 420.085 1470.59 504.492 1529.08 652.596 C 1568.78 753.147 1552.55 841.693 1526.64 942.846 C 1521.17 964.21 1518.58 982.317 1494.77 991.724 C 1469.06 1001.88 1437.65 983.378 1436.14 955.457 C 1435.86 937.652 1445.53 914.317 1449.96 896.761 C 1467.1 828.752 1478.01 758.997 1452.86 691.233 C 1431.59 633.899 1393.53 588.953 1337.43 563.128 C 1291.85 541.993 1239.64 540.288 1192.77 558.403 C 1108.97 590.069 1067.75 670.979 1033.45 747.673 L 1032.55 749.284 C 1022.15 768.129 1023.89 779.199 1002.74 793.65 L 1000.27 795.347 z" fill="rgb(251,82,53)" transform="translate(0,0)"></path>
<path d="M 264.933 588.273 C 292.198 585.253 314.589 612.013 332.731 629.742 C 410.654 705.895 474.055 811.836 497.411 918.605 C 525.766 1048.23 491.518 1188.56 419.447 1298.21 C 389.512 1344.09 357.728 1382.6 317.565 1419.93 C 303.535 1432.97 294.824 1445.57 275.237 1449.87 C 250.092 1451.66 232.087 1440.55 225.853 1414.8 C 220.364 1388.16 239.445 1374.41 256.472 1359.03 C 407.616 1222.58 465.441 1014.34 373.79 828.798 C 357.257 794.64 336.437 762.73 311.832 733.84 C 297.285 716.903 281.673 700.911 265.09 685.961 C 256.867 678.536 241.389 667.935 235.546 659.505 C 214.364 628.947 229.767 594.725 264.933 588.273 z" fill="rgb(55,29,146)" transform="translate(0,0)"></path>
<path d="M 469.072 589.138 C 498.684 587.146 512.263 603.995 532.445 622.722 C 597.337 683.72 647.964 758.289 680.714 841.108 C 731.435 972.552 724.851 1097.38 668.021 1225.48 C 634.669 1298.82 587.006 1364.76 527.829 1419.44 C 516.989 1429.57 502.44 1444.23 488.839 1449.46 C 477.333 1452.21 467.248 1451.42 456.687 1445.61 C 446.255 1439.91 438.577 1430.23 435.406 1418.78 C 432.295 1407.46 434.023 1395.36 440.177 1385.37 C 448.18 1372.29 472.392 1354.78 484.137 1342.83 C 514.183 1312.27 540.202 1280.29 561.999 1243.5 C 637.315 1118.63 648.872 965.543 584.295 833.735 C 558.764 779.374 521.842 729.083 477.689 688.395 C 467.707 679.198 454.966 670.759 446.105 660.544 C 423.459 634.437 434.642 597.298 469.072 589.138 z" fill="rgb(86,94,202)" transform="translate(0,0)"></path>
<metadata><recraft-signature>{"signed_by": "recraft", "signature_b64": "PzdCUc8+tg1c13lAKxN/yn1vuDfm6EflugXeoWmcJ04ubMVbz7y8g7W0xWCjpl9itAeR9Sg11pcTcmKopcKpBg==", "signing_algo": "Ed25519", "generation_timestamp": 1779005577, "identifier": "30e09ccd-27db-4267-934c-b8203926a9fe"}</recraft-signature></metadata></svg>