<svg xmlns="http://www.w3.org/2000/svg" height="1024" preserveAspectRatio="none" style="display: block;" version="1.1" viewBox="0 0 2048 2048" width="1024">
<path d="M 0 0 L 2048 0 L 2048 2048 L 0 2048 L 0 0 z" fill="rgb(255,255,255)" transform="translate(0,0)"></path>
<path d="M 1315.05 273.888 C 1318.39 267.957 1325.21 259.858 1330.3 255.292 C 1370.79 218.945 1415.21 225.015 1450.28 262.807 C 1478 298.879 1478.84 336.787 1474.12 381.002 C 1472.01 400.804 1465.51 419.252 1462.85 438.426 C 1456.63 483.296 1454.4 532.037 1455.89 577.291 C 1460.38 668.769 1479.41 770.051 1522.19 851.978 C 1538.14 882.53 1562.45 916.508 1583.59 943.478 C 1584.6 944.752 1585.56 945.77 1586.66 946.95 C 1587.16 947.589 1587.65 948.238 1588.12 948.895 L 1586.53 950.121 C 1587.4 951.06 1588.19 951.988 1589.02 952.954 L 1591.65 953.016 C 1592.16 953.614 1592.66 954.217 1593.16 954.825 C 1594.33 956.43 1595.12 957.398 1596.41 958.871 C 1597.49 959.978 1598.16 960.741 1599.15 961.926 C 1600.45 963.723 1600.91 964.237 1602.42 965.845 C 1603.48 966.944 1604.18 967.747 1605.17 968.915 C 1606.81 971.029 1607.7 972.028 1609.55 973.913 C 1610.56 974.99 1611.17 975.676 1612.16 976.835 L 1610.52 978.085 C 1611.41 979.03 1612.29 979.987 1613.15 980.956 L 1615.42 980.877 C 1616.46 981.942 1617.21 982.777 1618.19 983.902 C 1618.93 985.022 1619.62 985.908 1620.43 986.973 C 1622.2 988.753 1623.52 990.806 1625.08 992.831 L 1627.14 995.939 C 1697.39 1087.59 1735.86 1211.83 1719.61 1326.69 C 1718.95 1331.36 1716.73 1345.85 1715.31 1349.77 C 1713.67 1361.66 1710.91 1373.51 1709.02 1385.41 C 1706.52 1401.13 1705.05 1416.68 1703.72 1432.54 C 1704.17 1440.78 1703.46 1450.8 1703.39 1459.36 C 1703.31 1472.03 1703.76 1484.7 1704.73 1497.33 C 1708.98 1546.05 1724.71 1596.43 1756.93 1633.97 C 1775.46 1653.93 1788.59 1662.85 1812.2 1675.88 C 1761.78 1761.55 1700.78 1833.59 1613.19 1883.45 C 1608.93 1886.76 1592.11 1895.67 1586.95 1898.28 C 1543.91 1920.29 1498.26 1936.78 1451.09 1947.34 C 1310.83 1977.7 1146.39 1965.05 1023.6 1885.8 C 1022.7 1874.15 1021.7 1865.22 1019.96 1853.67 C 1019.05 1846.65 1017.1 1838.26 1015.65 1831.19 C 1014.06 1827.67 1010.81 1816.96 1009.03 1812.25 C 1004.76 1800.93 1000.42 1791.07 995.414 1780 C 967.479 1730.24 933.273 1694.8 883.816 1666.02 C 873.97 1660.29 859.101 1652.28 848.458 1649 C 808.94 1639.7 748.473 1616.07 713.344 1595.83 L 712.786 1595.52 C 699.685 1589.38 679.436 1576.15 667.631 1568.08 C 603.121 1523.91 547.262 1468.28 502.827 1403.96 C 475.534 1364.28 455.285 1320.73 424.822 1283.28 C 421.965 1279.6 419.184 1276.09 416.505 1272.25 C 360.952 1192.69 297.317 1107.91 208.658 1063.31 C 194.39 1056.13 175.528 1052.94 162.966 1044.34 C 135.211 1025.33 146.946 987.762 163.452 965.452 C 178.071 943.291 208.5 921.554 232.617 911.306 C 291.128 886.442 354.566 891.382 412.546 914.711 C 426.166 919.943 452.737 934.003 466.622 941.678 C 466.728 941.736 467.808 940.605 467.844 940.569 C 450.695 905.704 432.517 855.215 420.356 817.921 C 374.362 676.871 361.581 529.875 395.993 384.756 C 401.103 363.204 407.74 328.863 417.55 309.592 C 427.14 289.12 436.93 275.815 453.888 260.909 C 457.11 258.309 461.347 254.93 465.121 253.219 C 486.086 241.17 507.35 237.348 530.822 243.771 C 545.064 247.762 558.306 254.706 569.689 264.151 C 574.754 269.056 578.689 272.937 583.587 278.034 L 584.06 278.788 C 585.189 280.249 586.353 281.683 587.551 283.087 L 588.08 283.819 L 590.181 287 C 618.013 328.619 621.869 373.386 619.334 422.134 C 618.551 440.689 614.588 460.689 615.597 479.17 C 620.503 569.066 638.496 659.895 672.482 743.431 C 679.152 759.828 690.322 776.421 696.699 792.349 C 700.704 798.765 714.306 822.65 718.106 826.683 L 716.936 823.547 L 717.842 821.797 L 719.082 822.506 C 719.661 815.849 718.946 805.765 718.993 798.802 C 719.172 771.834 720.358 750.608 734.602 727.1 C 741.389 714.409 756.553 698.345 769.834 692.441 C 796.172 675.47 928.966 655.837 935.692 649.08 L 934.963 644.745 L 935.712 644.295 C 936.472 646.873 936.283 647.358 938.19 649.106 C 942.136 649.149 978.698 640.405 984.216 638.82 L 986.38 638.163 C 990.361 638.14 1014.69 632.638 1020.25 631.438 L 1102.85 612.978 C 1143.31 604.004 1172.11 595.608 1211.02 615.345 C 1216.77 618.262 1222.4 621.79 1228.4 623.994 L 1229.66 622.74 L 1230.71 620.605 C 1233.34 629.79 1241.64 630.956 1250.16 634.47 C 1250.18 602.647 1248.92 568.698 1251.01 536.304 C 1254.96 475.271 1273.33 320.854 1313.51 276.066 C 1313.76 274.53 1313.43 275.355 1315.05 273.888 z" fill="rgb(213,148,99)" transform="translate(0,0)"></path>
<path d="M 465.121 253.219 C 486.086 241.17 507.35 237.348 530.822 243.771 C 545.064 247.762 558.306 254.706 569.689 264.151 C 574.754 269.056 578.689 272.937 583.587 278.034 L 584.06 278.788 C 585.189 280.249 586.353 281.683 587.551 283.087 L 588.08 283.819 L 590.181 287 C 618.013 328.619 621.869 373.386 619.334 422.134 C 618.551 440.689 614.588 460.689 615.597 479.17 C 620.503 569.066 638.496 659.895 672.482 743.431 C 679.152 759.828 690.322 776.421 696.699 792.349 C 700.704 798.765 714.306 822.65 718.106 826.683 L 716.936 823.547 L 717.842 821.797 L 719.082 822.506 C 719.661 815.849 718.946 805.765 718.993 798.802 C 719.172 771.834 720.358 750.608 734.602 727.1 C 741.389 714.409 756.553 698.345 769.834 692.441 C 796.172 675.47 928.966 655.837 935.692 649.08 L 934.963 644.745 L 935.712 644.295 C 936.472 646.873 936.283 647.358 938.19 649.106 C 942.136 649.149 978.698 640.405 984.216 638.82 L 986.38 638.163 C 990.361 638.14 1014.69 632.638 1020.25 631.438 L 1102.85 612.978 C 1143.31 604.004 1172.11 595.608 1211.02 615.345 C 1216.77 618.262 1222.4 621.79 1228.4 623.994 L 1229.66 622.74 L 1230.71 620.605 C 1233.34 629.79 1241.64 630.956 1250.16 634.47 C 1250.18 602.647 1248.92 568.698 1251.01 536.304 C 1254.96 475.271 1273.33 320.854 1313.51 276.066 L 1313.03 277.158 C 1304.8 295.539 1294.77 307.349 1288.2 329.083 C 1263.33 411.385 1251.02 503.784 1250.48 589.659 C 1250.44 595.77 1250.16 616.859 1250.84 621.817 C 1250.51 626.45 1249.99 630.401 1251.36 634.815 C 1284.24 654.944 1326.89 668.498 1359.29 688.321 C 1386.3 699.868 1408.4 720.636 1419.3 748.16 C 1423.17 758.147 1425.62 768.629 1426.57 779.298 C 1427.78 792.282 1426.89 820.354 1426.81 834.159 C 1426.77 872.534 1426.12 910.907 1424.85 949.262 C 1449.05 971.255 1449.51 999.575 1426.97 1022.96 C 1418.49 1031.62 1408.37 1038.5 1397.2 1043.2 C 1380.03 1050.52 1333.78 1062.26 1314.36 1067.91 L 1177.79 1107.45 C 1149.94 1115.33 1118.25 1123.22 1090.95 1131.83 C 1210.94 1172.09 1295.09 1233.36 1355.32 1348.19 C 1357.16 1351.71 1358.3 1354.55 1358.7 1358.53 L 1357.56 1359.73 C 1350.24 1357.1 1338.5 1336.15 1332.8 1328.84 C 1240.11 1210.24 1096.17 1124.29 942.02 1120.91 C 936.631 1121.16 927.925 1121.31 922.426 1121.15 C 917.857 1121.59 904.629 1122.26 900.215 1121.82 C 842.816 1124.23 755.462 1142.68 704.128 1168.52 C 703.023 1169.14 701.342 1170.3 700.26 1170.46 C 693.663 1169.81 684.751 1176.62 678.602 1180.33 C 682.498 1176.25 685.43 1174.21 687.662 1169.33 C 688.458 1167.85 687.832 1168.58 689.986 1167.63 C 697.441 1159.75 712.554 1151.13 721.967 1145.32 C 717.443 1143.36 712.894 1140.83 708.469 1138.66 L 707.957 1138.23 C 705.249 1137.2 691.558 1130.74 690.077 1128.4 C 682.855 1125.77 668.187 1116.47 661.416 1112.12 C 634.9 1094.98 610.42 1074.88 588.449 1052.2 C 561.538 1024.97 549.591 1008.94 519.018 982.423 L 516.899 980.55 C 516.463 980.1 516.026 979.649 515.59 979.198 C 513.216 977.883 513.346 978.019 511.736 975.841 C 509.224 969.873 503.541 966.926 497.924 962.391 C 502.686 964.204 505.378 966.603 510.299 966.493 C 503.453 962.225 471.309 945.214 469.482 940.858 L 468.742 939.212 L 467.844 940.569 C 450.695 905.704 432.517 855.215 420.356 817.921 C 374.362 676.871 361.581 529.875 395.993 384.756 C 401.103 363.204 407.74 328.863 417.55 309.592 C 427.14 289.12 436.93 275.815 453.888 260.909 C 457.11 258.309 461.347 254.93 465.121 253.219 z" fill="rgb(41,22,13)" transform="translate(0,0)"></path>
<path d="M 465.121 253.219 C 486.086 241.17 507.35 237.348 530.822 243.771 C 545.064 247.762 558.306 254.706 569.689 264.151 C 574.754 269.056 578.689 272.937 583.587 278.034 L 584.06 278.788 C 585.189 280.249 586.353 281.683 587.551 283.087 L 588.08 283.819 L 590.181 287 L 587.594 286.992 C 607.155 314.074 616.008 344.09 617.404 377.263 C 617.188 378.814 616.953 379.297 617.987 380.579 C 618.763 394.85 618.746 409.154 617.936 423.424 C 617.13 424.425 617.321 424.44 617.384 425.965 C 616.884 442.679 613.704 459.703 613.481 475.922 C 611.732 602.975 621.779 718.999 694.455 826.668 C 662.481 846.845 631.421 868.083 605.364 895.74 C 601.888 899.43 594.003 907.105 593.668 912.157 L 594.764 912.597 C 601.338 908.196 609.333 901.82 615.519 898.106 C 644.212 880.882 686.503 860.352 718.899 853.257 C 718.55 884.469 716.36 916.287 716.129 946.434 C 704.698 956.686 693.936 968.202 693.828 984.565 C 693.558 1025.22 744.631 1045.31 772.995 1064.22 C 795.029 1078.91 816.287 1091.49 837.404 1105.78 C 804.927 1114.1 775.318 1123.13 743.48 1133.1 C 714.643 1127.29 696.69 1112.63 672.016 1099.68 C 670.668 1097.72 671.405 1098.6 668.859 1097.42 C 645.472 1080.9 623.536 1062.42 603.289 1042.17 C 591.925 1031 581.296 1018.94 569.332 1008.43 C 552.422 993.568 534.205 981.32 515.252 969.297 C 513.002 967.397 513.092 967.716 510.299 966.493 C 503.453 962.225 471.309 945.214 469.482 940.858 L 468.742 939.212 L 467.844 940.569 C 450.695 905.704 432.517 855.215 420.356 817.921 C 374.362 676.871 361.581 529.875 395.993 384.756 C 401.103 363.204 407.74 328.863 417.55 309.592 C 427.14 289.12 436.93 275.815 453.888 260.909 C 457.11 258.309 461.347 254.93 465.121 253.219 z" fill="rgb(213,148,99)" transform="translate(0,0)"></path>
<path d="M 417.55 309.592 L 418.975 310.115 C 402.898 351.925 384.214 440.629 381.738 486.366 C 381.642 487.312 381.683 487.168 381.305 488.035 C 381.003 495.489 380.505 502.934 379.81 510.361 C 379.076 512.211 379.235 512.494 379.325 514.628 C 378.602 544.714 378.771 566.421 379.33 596.376 C 379.277 598.06 379.139 598.199 379.796 599.633 C 388.727 711.105 414.802 813.333 458.968 915.995 C 461.955 922.938 466.499 932.216 468.742 939.212 L 467.844 940.569 C 450.695 905.704 432.517 855.215 420.356 817.921 C 374.362 676.871 361.581 529.875 395.993 384.756 C 401.103 363.204 407.74 328.863 417.55 309.592 z" fill="rgb(124,83,56)" transform="translate(0,0)"></path>
<path d="M 465.121 253.219 C 486.086 241.17 507.35 237.348 530.822 243.771 C 545.064 247.762 558.306 254.706 569.689 264.151 L 569.073 266.442 C 568.774 266.357 568.474 266.273 568.174 266.189 C 550.462 251.731 535.451 244.326 511.626 242.821 C 509.472 242.771 507.352 242.521 505.196 242.664 L 503.365 242.748 C 490.695 244.087 478.421 247.943 467.262 254.091 L 465.121 253.219 z" fill="rgb(151,89,50)" transform="translate(0,0)"></path>
<path d="M 503.365 242.748 C 505.649 241.776 509.37 241.77 511.626 242.821 C 509.472 242.771 507.352 242.521 505.196 242.664 L 503.365 242.748 z" fill="rgb(192,126,71)" transform="translate(0,0)"></path>
<path d="M 453.888 260.909 L 455.484 261.499 C 448.717 267.283 441.424 274.785 436.172 281.944 C 435.617 282.447 435.751 282.319 435.312 282.998 C 428.266 291.848 423.711 299.963 418.975 310.115 L 417.55 309.592 C 427.14 289.12 436.93 275.815 453.888 260.909 z" fill="rgb(41,22,13)" transform="translate(0,0)"></path>
<path d="M 453.888 260.909 C 457.11 258.309 461.347 254.93 465.121 253.219 L 467.262 254.091 C 466.274 255.113 457.467 260.45 455.484 261.499 L 453.888 260.909 z" fill="rgb(172,118,78)" transform="translate(0,0)"></path>
<path d="M 569.689 264.151 C 574.754 269.056 578.689 272.937 583.587 278.034 L 580.651 278.098 C 578.264 274.116 572.849 269.204 569.073 266.442 L 569.689 264.151 z" fill="rgb(41,22,13)" transform="translate(0,0)"></path>
<path d="M 582.493 279.93 L 584.06 278.788 C 585.189 280.249 586.353 281.683 587.551 283.087 L 584.909 283.54 C 584.171 282.388 583.34 280.98 582.493 279.93 z" fill="rgb(41,22,13)" transform="translate(0,0)"></path>
<path d="M 586.672 285.165 L 588.08 283.819 L 590.181 287 L 587.594 286.992 L 586.672 285.165 z" fill="rgb(41,22,13)" transform="translate(0,0)"></path>
<path d="M 583.587 278.034 L 584.06 278.788 L 582.493 279.93 C 581.388 279.079 581.488 279.2 580.651 278.098 L 583.587 278.034 z" fill="rgb(151,89,50)" transform="translate(0,0)"></path>
<path d="M 587.551 283.087 L 588.08 283.819 L 586.672 285.165 C 585.679 284.45 585.655 284.47 584.909 283.54 L 587.551 283.087 z" fill="rgb(151,89,50)" transform="translate(0,0)"></path>
<path d="M 379.81 510.361 C 379.993 512.501 380.194 512.834 379.325 514.628 C 379.235 512.494 379.076 512.211 379.81 510.361 z" fill="rgb(172,118,78)" transform="translate(0,0)"></path>
<path d="M 1250.16 634.47 C 1250.18 602.647 1248.92 568.698 1251.01 536.304 C 1254.96 475.271 1273.33 320.854 1313.51 276.066 L 1313.03 277.158 C 1304.8 295.539 1294.77 307.349 1288.2 329.083 C 1263.33 411.385 1251.02 503.784 1250.48 589.659 C 1250.44 595.77 1250.16 616.859 1250.84 621.817 C 1250.51 626.45 1249.99 630.401 1251.36 634.815 C 1284.24 654.944 1326.89 668.498 1359.29 688.321 L 1354.14 688.351 L 1352.48 688.782 C 1348.9 704.543 1346.15 713.266 1331.32 722.889 C 1327.6 725.34 1323.56 727.261 1319.32 728.594 C 1307.38 732.345 1294.07 734.612 1281.79 737.251 C 1199.54 754.927 1116.84 770.499 1034.7 788.667 C 1022.39 791.39 1014.3 795.914 1003.07 799.616 C 1006.07 794.794 1007.55 797.233 1010.16 793.209 C 1000.68 792.253 963.934 798.612 958.215 791.691 C 956.698 791.181 957.309 791.284 955.7 791.16 C 936.462 789.675 918.812 785.932 900.303 780.481 L 889.416 776.182 C 884.367 774.157 879.624 771.433 874.72 769.085 C 870.182 766.187 865.58 763.391 860.916 760.699 L 860.392 760.319 L 856.813 757.664 C 856.531 757.792 856.275 758.012 855.968 758.048 C 851.106 758.621 805.435 714.072 799.419 708.118 C 793.918 702.674 788.232 695.242 782.023 690.759 C 780.095 689.367 774.226 691.763 771.574 692.18 L 769.834 692.441 C 796.172 675.47 928.966 655.837 935.692 649.08 L 934.963 644.745 L 935.712 644.295 C 936.472 646.873 936.283 647.358 938.19 649.106 C 942.136 649.149 978.698 640.405 984.216 638.82 L 986.38 638.163 C 990.361 638.14 1014.69 632.638 1020.25 631.438 L 1102.85 612.978 C 1143.31 604.004 1172.11 595.608 1211.02 615.345 C 1216.77 618.262 1222.4 621.79 1228.4 623.994 L 1229.66 622.74 L 1230.71 620.605 C 1233.34 629.79 1241.64 630.956 1250.16 634.47 z" fill="rgb(153,52,20)" transform="translate(0,0)"></path>
<path d="M 1250.16 634.47 C 1250.18 602.647 1248.92 568.698 1251.01 536.304 C 1254.96 475.271 1273.33 320.854 1313.51 276.066 L 1313.03 277.158 C 1304.8 295.539 1294.77 307.349 1288.2 329.083 C 1263.33 411.385 1251.02 503.784 1250.48 589.659 C 1250.44 595.77 1250.16 616.859 1250.84 621.817 C 1250.51 626.45 1249.99 630.401 1251.36 634.815 C 1284.24 654.944 1326.89 668.498 1359.29 688.321 L 1354.14 688.351 L 1352.48 688.782 C 1348.9 704.543 1346.15 713.266 1331.32 722.889 C 1327.6 725.34 1323.56 727.261 1319.32 728.594 C 1307.38 732.345 1294.07 734.612 1281.79 737.251 C 1199.54 754.927 1116.84 770.499 1034.7 788.667 C 1022.39 791.39 1014.3 795.914 1003.07 799.616 C 1006.07 794.794 1007.55 797.233 1010.16 793.209 C 1000.68 792.253 963.934 798.612 958.215 791.691 C 974.487 792.228 1000.26 792.349 1016.06 789.727 C 1031.41 787.179 1050.1 782.573 1065.64 779.315 L 1159.97 760.008 L 1261.93 739 C 1277.29 735.787 1292.73 732.658 1307.95 729.156 C 1320.88 726.183 1330.37 723.714 1339.42 713.31 C 1347.48 704.056 1349.02 697.757 1349.69 686.323 C 1343.88 682.709 1337.13 679.473 1330.93 676.542 C 1287.11 655.815 1244.08 633.231 1199.98 613.128 C 1191.68 609.342 1180.88 607.245 1171.99 605.683 C 1171.09 605.345 1171.23 605.368 1170.28 605.315 C 1139.2 603.922 1088.95 618.364 1057.49 625.366 L 908.899 658.387 L 828.597 676.232 C 817.528 678.777 794.795 683.442 785.426 688.015 C 789.939 697.131 846.172 749.266 856.813 757.664 C 856.531 757.792 856.275 758.012 855.968 758.048 C 851.106 758.621 805.435 714.072 799.419 708.118 C 793.918 702.674 788.232 695.242 782.023 690.759 C 780.095 689.367 774.226 691.763 771.574 692.18 L 769.834 692.441 C 796.172 675.47 928.966 655.837 935.692 649.08 L 934.963 644.745 L 935.712 644.295 C 936.472 646.873 936.283 647.358 938.19 649.106 C 942.136 649.149 978.698 640.405 984.216 638.82 L 986.38 638.163 C 990.361 638.14 1014.69 632.638 1020.25 631.438 L 1102.85 612.978 C 1143.31 604.004 1172.11 595.608 1211.02 615.345 C 1216.77 618.262 1222.4 621.79 1228.4 623.994 L 1229.66 622.74 L 1230.71 620.605 C 1233.34 629.79 1241.64 630.956 1250.16 634.47 z" fill="rgb(41,22,13)" transform="translate(0,0)"></path>
<path d="M 721.42 785.024 L 775.786 817.851 C 787.389 825.635 820.306 846.609 831.938 852.712 C 878.85 882.279 903.218 905.24 960.37 904.487 C 920.37 946.912 920.122 1014.81 947.621 1063.91 C 948.201 1064.96 948.774 1065.55 949.535 1066.49 C 950.103 1067.32 950.087 1067.21 950.415 1068.02 C 967.197 1091.5 985.139 1106.16 1013.18 1113.51 C 994.27 1116.65 975.119 1118.1 955.954 1117.84 C 929.552 1117.34 900.009 1115.45 877.605 1100.38 C 858.104 1087.27 837.354 1073.96 818.489 1060.1 C 780.415 1032.14 728.018 1011.17 720.251 958.759 C 717.917 943.325 718.751 930.041 719.194 914.629 C 720.039 913.167 719.832 913.084 719.648 911.25 C 722.256 867.759 720.157 827.502 721.42 785.024 z" fill="rgb(192,126,71)" transform="translate(0,0)"></path>
<path d="M 1003.07 799.616 C 1014.3 795.914 1022.39 791.39 1034.7 788.667 C 1116.84 770.499 1199.54 754.927 1281.79 737.251 C 1294.07 734.612 1307.38 732.345 1319.32 728.594 C 1323.56 727.261 1327.6 725.34 1331.32 722.889 C 1346.15 713.266 1348.9 704.543 1352.48 688.782 L 1354.14 688.351 C 1401.18 710.452 1426.61 743.688 1424.58 796.821 C 1394.54 803.821 1364.55 810.991 1334.6 818.329 C 1333.51 818.414 1334.06 818.342 1332.95 818.553 L 1325.6 820.319 C 1324.76 820.375 1324.78 820.37 1323.98 820.672 L 1316.6 822.333 C 1315.69 822.39 1315.84 822.365 1314.98 822.704 C 1258.2 835.167 1201.88 849.405 1145.09 861.832 C 1138.62 863.248 1131.98 864.592 1125.6 866.328 C 1124.82 866.375 1124.71 866.393 1123.96 866.598 C 1105.69 870.753 1074.14 876.888 1057.04 882.192 C 1056.1 882.257 1056.06 882.173 1055.36 882.479 C 1015.77 890.717 985.73 902.257 944.701 901.818 C 944.707 900.806 944.72 899.794 944.74 898.782 C 945.665 854.687 966.79 822.819 1002.48 800.327 C 1002.67 800.09 1002.87 799.853 1003.07 799.616 z" fill="rgb(153,52,20)" transform="translate(0,0)"></path>
<path d="M 769.834 692.441 L 771.574 692.18 C 774.226 691.763 780.095 689.367 782.023 690.759 C 788.232 695.242 793.918 702.674 799.419 708.118 C 805.435 714.072 851.106 758.621 855.968 758.048 C 856.275 758.012 856.531 757.792 856.813 757.664 L 860.392 760.319 L 860.916 760.699 C 865.58 763.391 870.182 766.187 874.72 769.085 C 879.624 771.433 884.367 774.157 889.416 776.182 L 900.303 780.481 C 918.812 785.932 936.462 789.675 955.7 791.16 C 957.309 791.284 956.698 791.181 958.215 791.691 C 963.934 798.612 1000.68 792.253 1010.16 793.209 C 1007.55 797.233 1006.07 794.794 1003.07 799.616 L 1001.38 798.696 C 996.552 800.894 994.426 803.156 990.334 806.018 C 956.022 830.011 944.834 862.475 941.623 902.075 C 924.114 899.624 914.31 897.333 898.23 890.519 C 886.514 885.555 839.856 852.658 833.064 851.801 L 831.938 852.712 C 820.306 846.609 787.389 825.635 775.786 817.851 C 774.565 811.124 725.103 787.57 723.141 780.214 C 719.356 766.022 729.774 740.81 735.269 728.876 L 734.602 727.1 C 741.389 714.409 756.553 698.345 769.834 692.441 z" fill="rgb(85,34,15)" transform="translate(0,0)"></path>
<path d="M 874.72 769.085 C 879.624 771.433 884.367 774.157 889.416 776.182 L 900.303 780.481 C 892.151 782.286 893.378 779.739 885.087 777.016 C 883.149 776.38 873.598 771.856 874.72 769.085 z" fill="rgb(41,22,13)" transform="translate(0,0)"></path>
<path d="M 860.916 760.699 C 860.49 760.884 859.424 761.544 858.839 761.176 L 858.827 761.057 C 859.239 760.57 859.717 760.554 860.392 760.319 L 860.916 760.699 z" fill="rgb(41,22,13)" transform="translate(0,0)"></path>
<path d="M 841.772 1106.07 C 818.947 1091.16 796.033 1076.39 773.03 1061.75 C 733.754 1037.31 659.297 1002.6 716.273 949.428 C 723.62 1012.36 772.996 1030.49 819.362 1063.34 C 843.892 1080.72 883.042 1111.26 912.183 1116.5 C 912.066 1116.9 911.949 1117.29 911.833 1117.69 C 911.613 1118.43 911.065 1119.03 910.345 1119.32 C 909.065 1119.84 907.504 1119.24 906.435 1120.3 C 906.44 1120.44 906.446 1120.57 906.451 1120.71 C 906.937 1121.1 919.989 1120.96 922.426 1121.15 C 917.857 1121.59 904.629 1122.26 900.215 1121.82 C 842.816 1124.23 755.462 1142.68 704.128 1168.52 C 703.023 1169.14 701.342 1170.3 700.26 1170.46 C 693.663 1169.81 684.751 1176.62 678.602 1180.33 C 682.498 1176.25 685.43 1174.21 687.662 1169.33 C 688.458 1167.85 687.832 1168.58 689.986 1167.63 C 697.441 1159.75 712.554 1151.13 721.967 1145.32 C 717.443 1143.36 712.894 1140.83 708.469 1138.66 L 707.957 1138.23 C 705.249 1137.2 691.558 1130.74 690.077 1128.4 C 682.855 1125.77 668.187 1116.47 661.416 1112.12 C 634.9 1094.98 610.42 1074.88 588.449 1052.2 C 561.538 1024.97 549.591 1008.94 519.018 982.423 L 516.899 980.55 C 516.463 980.1 516.026 979.649 515.59 979.198 C 513.216 977.883 513.346 978.019 511.736 975.841 C 509.224 969.873 503.541 966.926 497.924 962.391 C 502.686 964.204 505.378 966.603 510.299 966.493 C 513.092 967.716 513.002 967.397 515.252 969.297 C 534.205 981.32 552.422 993.568 569.332 1008.43 C 581.296 1018.94 591.925 1031 603.289 1042.17 C 623.536 1062.42 645.472 1080.9 668.859 1097.42 C 671.405 1098.6 670.668 1097.72 672.016 1099.68 L 671.869 1101.23 C 683.752 1110.28 728.978 1135.44 744.08 1134.29 C 747.726 1134.01 779.688 1124.17 785.589 1122.21 C 802.738 1116.52 825.561 1111.91 841.772 1106.07 z" fill="rgb(151,89,50)" transform="translate(0,0)"></path>
<path d="M 519.018 982.423 L 521.19 982.004 C 542.723 997.913 566.483 1025.86 584.825 1045.28 C 597.852 1058.86 611.556 1071.76 625.886 1083.94 C 636.051 1092.65 644.566 1098.22 655.058 1105.46 C 661.45 1109.86 686.792 1124.31 690.077 1128.4 C 682.855 1125.77 668.187 1116.47 661.416 1112.12 C 634.9 1094.98 610.42 1074.88 588.449 1052.2 C 561.538 1024.97 549.591 1008.94 519.018 982.423 z" fill="rgb(41,22,13)" transform="translate(0,0)"></path>
<path d="M 704.128 1168.52 L 704.55 1166.88 C 726.657 1150.77 882.383 1109.91 900.215 1121.82 C 842.816 1124.23 755.462 1142.68 704.128 1168.52 z" fill="rgb(85,34,15)" transform="translate(0,0)"></path>
<path d="M 515.252 969.297 C 534.205 981.32 552.422 993.568 569.332 1008.43 C 581.296 1018.94 591.925 1031 603.289 1042.17 C 623.536 1062.42 645.472 1080.9 668.859 1097.42 C 665.496 1096.98 664.089 1095.99 661.113 1094.44 C 660.46 1093.8 660.516 1093.78 659.7 1093.48 C 658.119 1092.6 656.873 1092.11 655.783 1090.63 C 653.039 1089.01 652.862 1089 650.561 1086.79 C 649.466 1085.31 649.55 1085.19 648.007 1084.48 L 645.491 1082.5 C 644.401 1081.25 644.496 1081.23 643.047 1080.46 L 640.499 1078.46 C 639.34 1077.14 639.577 1077.19 638.119 1076.65 L 634.119 1073.04 C 632.546 1071.13 630.49 1069.67 628.522 1068.18 L 626.032 1066.09 C 624.686 1064.37 623.284 1063.49 621.538 1062.17 L 618.067 1059.11 C 616.634 1057.06 608.64 1049.77 606.568 1048.14 L 589.944 1031.46 C 587.093 1027.94 575.743 1015.77 572.193 1013.64 L 566.054 1008.02 C 564.695 1006.38 563.377 1005.62 561.635 1004.38 L 560.455 1003.53 C 559.323 1002.3 559.434 1002.38 557.969 1001.51 L 555.461 999.487 C 553.917 997.876 553.09 997.481 551.19 996.269 C 550.21 995.077 550.419 995.208 548.958 994.759 C 546.142 993.006 545.677 992.701 543.232 990.449 C 542.436 989.987 542.527 989.963 541.671 989.823 C 539.018 988.031 538.554 987.689 536.26 985.433 C 535.627 984.899 535.674 984.867 534.95 984.571 C 533.425 983.762 532.011 983.119 530.655 982.071 C 529.996 981.555 529.384 981.236 529.052 980.536 C 525.256 977.972 516.491 972.954 515.252 969.297 z" fill="rgb(41,22,13)" transform="translate(0,0)"></path>
<path d="M 708.469 1138.66 C 713.299 1138.14 720.656 1142.97 725.433 1145.56 C 714.71 1151.33 698.901 1163.86 689.986 1167.63 C 697.441 1159.75 712.554 1151.13 721.967 1145.32 C 717.443 1143.36 712.894 1140.83 708.469 1138.66 z" fill="rgb(41,22,13)" transform="translate(0,0)"></path>
<path d="M 690.077 1128.4 C 692.86 1128.35 706.911 1135.34 707.957 1138.23 C 705.249 1137.2 691.558 1130.74 690.077 1128.4 z" fill="rgb(41,22,13)" transform="translate(0,0)"></path>
<path d="M 572.193 1013.64 C 575.743 1015.77 587.093 1027.94 589.944 1031.46 C 587.183 1029.63 572.882 1015.38 572.193 1013.64 z" fill="rgb(124,83,56)" transform="translate(0,0)"></path>
<path d="M 606.568 1048.14 C 608.64 1049.77 616.634 1057.06 618.067 1059.11 C 615.393 1058.34 608.465 1050.44 606.568 1048.14 z" fill="rgb(124,83,56)" transform="translate(0,0)"></path>
<path d="M 628.522 1068.18 C 630.49 1069.67 632.546 1071.13 634.119 1073.04 C 631.539 1072.54 630.387 1070.37 628.522 1068.18 z" fill="rgb(124,83,56)" transform="translate(0,0)"></path>
<path d="M 515.59 979.198 C 516.642 979.01 516.299 979.016 516.783 979.058 C 517.15 979.563 516.989 979.552 516.899 980.55 C 516.463 980.1 516.026 979.649 515.59 979.198 z" fill="rgb(41,22,13)" transform="translate(0,0)"></path>
<path d="M 621.538 1062.17 C 623.284 1063.49 624.686 1064.37 626.032 1066.09 C 623.925 1065.57 623.715 1065.06 622.428 1063.27 L 621.538 1062.17 z" fill="rgb(124,83,56)" transform="translate(0,0)"></path>
<path d="M 638.119 1076.65 C 639.577 1077.19 639.34 1077.14 640.499 1078.46 C 638.943 1078.08 638.712 1078.2 638.119 1076.65 z" fill="rgb(124,83,56)" transform="translate(0,0)"></path>
<path d="M 643.047 1080.46 C 644.496 1081.23 644.401 1081.25 645.491 1082.5 L 644.629 1082.08 C 643.525 1081.55 643.517 1081.58 643.047 1080.46 z" fill="rgb(124,83,56)" transform="translate(0,0)"></path>
<path d="M 561.635 1004.38 C 563.377 1005.62 564.695 1006.38 566.054 1008.02 C 563.799 1007.52 563.141 1006.14 561.635 1004.38 z" fill="rgb(124,83,56)" transform="translate(0,0)"></path>
<path d="M 617.009 573.677 C 616.835 567.127 614.769 527.938 616.909 525.07 C 616.457 524.38 629.524 606.755 631.769 616.096 C 646.339 676.719 662.594 738.913 695.402 792.74 L 696.699 792.349 C 700.704 798.765 714.306 822.65 718.106 826.683 C 716.887 827.192 717.379 826.774 716.686 828.003 C 719.329 834.475 719.071 843.883 719 850.881 C 678.311 860.542 632.665 883.718 598.172 907.229 C 609.837 893.015 617.411 886.276 631.005 874.395 C 631.689 874.021 631.532 874.111 632.09 873.45 L 635.685 870.415 C 636.23 869.915 636.21 869.901 636.881 869.59 C 639.444 867.187 643.037 864.512 645.853 862.276 C 646.542 861.411 647.343 860.883 648.273 860.295 L 649.608 859.422 C 650.217 858.854 650.131 858.856 650.859 858.551 C 660.478 850.314 685.99 834.455 697.38 827.008 C 690.464 817.341 685.381 810.094 679.318 799.834 C 677.347 797.334 676.609 796.14 675.511 793.041 C 638.168 724.706 624.702 655.218 617.667 578.659 C 617.895 576.112 617.869 576.103 617.009 573.677 z" fill="rgb(151,89,50)" transform="translate(0,0)"></path>
<path d="M 675.511 793.041 C 677.955 794.157 678.527 797.573 679.318 799.834 C 677.347 797.334 676.609 796.14 675.511 793.041 z" fill="rgb(124,83,56)" transform="translate(0,0)"></path>
<path d="M 912.183 1116.5 C 920.709 1116.63 932.894 1119.83 942.02 1120.91 C 936.631 1121.16 927.925 1121.31 922.426 1121.15 C 919.989 1120.96 906.937 1121.1 906.451 1120.71 C 906.446 1120.57 906.44 1120.44 906.435 1120.3 C 907.504 1119.24 909.065 1119.84 910.345 1119.32 C 911.065 1119.03 911.613 1118.43 911.833 1117.69 C 911.949 1117.29 912.066 1116.9 912.183 1116.5 z" fill="rgb(124,83,56)" transform="translate(0,0)"></path>
<path d="M 617.404 377.263 C 618.453 378.643 618.266 378.909 617.987 380.579 C 616.953 379.297 617.188 378.814 617.404 377.263 z" fill="rgb(172,118,78)" transform="translate(0,0)"></path>
<path d="M 719.194 914.629 C 718.864 912.963 718.647 912.668 719.648 911.25 C 719.832 913.084 720.039 913.167 719.194 914.629 z" fill="rgb(124,83,56)" transform="translate(0,0)"></path>
<path d="M 617.009 573.677 C 617.869 576.103 617.895 576.112 617.667 578.659 C 616.437 576.823 616.832 576.055 617.009 573.677 z" fill="rgb(124,83,56)" transform="translate(0,0)"></path>
<path d="M 617.936 423.424 C 618.119 424.893 618.202 424.782 617.384 425.965 C 617.321 424.44 617.13 424.425 617.936 423.424 z" fill="rgb(172,118,78)" transform="translate(0,0)"></path>
<path d="M 1423.91 799.333 C 1424.18 800.517 1424.23 800.389 1424.24 801.518 C 1424.5 833.245 1424.5 865.211 1423.16 896.909 C 1422.01 915.794 1425.28 937.987 1420.6 956.368 C 1412.79 986.999 1390.34 1016.27 1359.6 1026.34 C 1341.66 1032.23 1323 1036.36 1304.82 1041.06 L 1191.74 1069.8 L 1077.16 1099.34 C 1064.47 1102.58 1030.23 1112.27 1019.33 1112.36 C 1000.61 1112.51 977.364 1095.05 964.638 1082.36 L 963.611 1081.31 C 920.617 1036.83 917.853 948.59 963.484 904.796 C 983.957 901.648 1007 896.063 1027.36 891.395 L 1123.82 869.016 C 1224 846.404 1324.03 823.176 1423.91 799.333 z" fill="rgb(213,148,99)" transform="translate(0,0)"></path>
<path d="M 1359.95 1362.01 C 1353.48 1356.37 1344.48 1342.04 1338.99 1334.44 C 1332.32 1325.16 1325.25 1316.18 1317.8 1307.52 C 1233.38 1208.43 1118.54 1140.92 988.494 1122.23 C 984.47 1121.65 978.975 1121.95 974.573 1121.59 L 973.853 1120.56 C 993.051 1117.67 1012.27 1117.7 1031.7 1113.1 C 1052.32 1108.21 1072.76 1102.84 1093.26 1097.53 L 1204.8 1068.7 L 1302.33 1044.02 C 1349.84 1031.99 1393.43 1026.81 1415.66 976.815 C 1417.91 971.763 1422.32 956.255 1425.67 953.58 L 1428.3 955.33 C 1429.98 956.864 1430.38 957.058 1431.5 958.883 C 1445.81 978.708 1443.73 998.644 1428.72 1017.55 C 1410.67 1040.28 1386.11 1044.97 1359.59 1052.72 C 1337.52 1059.17 1315.17 1065.55 1292.97 1071.96 C 1223.48 1092.32 1153.83 1112.14 1084.03 1131.42 C 1145.53 1152.87 1193.63 1172.49 1245.11 1214.52 C 1245.92 1215.01 1245.5 1214.72 1246.35 1215.39 L 1249.99 1218.55 C 1250.75 1218.89 1250.63 1218.85 1251.27 1219.43 C 1257.72 1224.88 1262.6 1228.99 1268.44 1235.03 C 1273.86 1239.36 1281.58 1247.04 1285.94 1252.48 C 1288.41 1255.1 1291.46 1258.16 1293.68 1260.89 C 1294.26 1261.29 1294.24 1261.44 1294.63 1262.13 C 1296.35 1264.01 1299.05 1266.8 1300.58 1268.69 C 1301.2 1269.32 1301.13 1269.17 1301.49 1269.87 C 1325.61 1298.82 1343 1328.68 1359.95 1362.01 z" fill="rgb(151,89,50)" transform="translate(0,0)"></path>
<path d="M 1268.44 1235.03 C 1273.86 1239.36 1281.58 1247.04 1285.94 1252.48 C 1282.55 1250.2 1272.22 1239.94 1269.67 1236.57 L 1268.44 1235.03 z" fill="rgb(124,83,56)" transform="translate(0,0)"></path>
<path d="M 850.427 1647.59 C 858.439 1650.63 866.633 1652.42 874.913 1654.52 C 951.088 1673.8 1032.87 1686.07 1111.59 1681.49 C 1141.23 1679.53 1170.72 1675.74 1199.9 1670.13 C 1209.97 1668.27 1253.88 1657.69 1260.27 1662.56 L 1260.33 1664.12 C 1251.62 1669.23 1239.32 1672.74 1229.87 1676.68 C 1219.81 1680.87 1209.41 1684.52 1199.45 1689 C 1137 1717.11 1069.8 1753.65 1036.51 1816.32 C 1029.87 1828.83 1023.59 1840.26 1022.14 1854.68 L 1019.96 1853.67 C 1019.05 1846.65 1017.1 1838.26 1015.65 1831.19 C 1014.06 1827.67 1010.81 1816.96 1009.03 1812.25 C 1004.76 1800.93 1000.42 1791.07 995.414 1780 C 967.479 1730.24 933.273 1694.8 883.816 1666.02 C 873.97 1660.29 859.101 1652.28 848.458 1649 L 850.427 1647.59 z" fill="rgb(151,89,50)" transform="translate(0,0)"></path>
<path d="M 850.427 1647.59 C 858.439 1650.63 866.633 1652.42 874.913 1654.52 C 951.088 1673.8 1032.87 1686.07 1111.59 1681.49 C 1141.23 1679.53 1170.72 1675.74 1199.9 1670.13 C 1209.97 1668.27 1253.88 1657.69 1260.27 1662.56 L 1260.33 1664.12 C 1251.62 1669.23 1239.32 1672.74 1229.87 1676.68 C 1219.81 1680.87 1209.41 1684.52 1199.45 1689 C 1137 1717.11 1069.8 1753.65 1036.51 1816.32 C 1029.87 1828.83 1023.59 1840.26 1022.14 1854.68 L 1019.96 1853.67 C 1019.05 1846.65 1017.1 1838.26 1015.65 1831.19 L 1016.31 1830.9 C 1018.33 1833.6 1019.83 1841.87 1020.76 1845.69 C 1027.39 1829.88 1033.44 1814.79 1043.2 1800.47 C 1087.69 1735.22 1163.84 1700.49 1234.9 1672.27 C 1244.1 1668.61 1253.19 1665.34 1262.12 1661.14 C 1250.88 1662.17 1234.95 1665.66 1223.59 1667.83 C 1205.32 1671.4 1187 1674.62 1168.61 1677.49 C 1167.68 1677.43 1167.86 1677.42 1166.96 1677.71 C 1151.15 1679.87 1129.23 1682.71 1113.59 1683.29 C 1112.58 1683.25 1112.77 1683.24 1111.78 1683.57 C 1050.21 1685.85 988.586 1680.97 928.142 1669.02 C 909.112 1665.41 883.606 1657.39 866.727 1654.92 C 920.758 1681.71 968.342 1722.77 995.314 1777.5 C 995.632 1778.15 995.474 1779.28 995.414 1780 C 967.479 1730.24 933.273 1694.8 883.816 1666.02 C 873.97 1660.29 859.101 1652.28 848.458 1649 L 850.427 1647.59 z" fill="rgb(85,34,15)" transform="translate(0,0)"></path>
<path d="M 1704.95 1384.76 L 1707.27 1385.05 C 1704.82 1396.11 1702.07 1421.8 1703.72 1432.54 C 1704.17 1440.78 1703.46 1450.8 1703.39 1459.36 C 1703.31 1472.03 1703.76 1484.7 1704.73 1497.33 L 1703.48 1498 C 1703.74 1503.73 1704.8 1508.74 1705.81 1514.37 C 1653.35 1522.2 1610.03 1537.09 1560.55 1555.26 C 1577.84 1543.76 1588.65 1538.87 1605.97 1525.24 C 1606.76 1524.18 1606.66 1524.32 1607.9 1523.69 L 1618 1515.26 C 1618.76 1514.19 1618.64 1514.32 1619.87 1513.77 L 1624.88 1508.56 C 1625.36 1507.98 1625.25 1508.03 1625.89 1507.69 C 1663.51 1470.73 1686.73 1434.06 1704.95 1384.76 z" fill="rgb(151,89,50)" transform="translate(0,0)"></path>
<path d="M 163.452 965.452 L 165.025 966.059 C 153.999 981.518 146.451 998.876 148.827 1018.35 C 152.268 1046.56 183.55 1049.92 204.668 1059.71 C 297.466 1102.7 362.612 1192.21 419.927 1273.69 C 427.513 1284.48 436.349 1294.02 443.74 1304.92 C 451.134 1317.33 461.85 1331.91 468.692 1343.99 C 477.271 1359.14 483.327 1370.57 492.95 1385.4 C 535.39 1450.85 593.389 1514.4 658.016 1558.37 C 658.394 1558.71 658.772 1559.05 659.15 1559.39 C 659.723 1559.85 659.758 1559.9 660.205 1560.48 C 668.83 1566.66 679.872 1574.39 688.985 1579.71 C 689.539 1580.33 689.182 1579.97 690.121 1580.73 L 693.99 1582.7 C 694.711 1583.09 694.556 1582.97 695.209 1583.5 C 698.619 1585.49 702.524 1587.92 705.953 1589.75 C 706.805 1590.18 706.387 1589.93 707.203 1590.5 C 709.794 1591.9 710.577 1592.57 713.42 1593.34 L 712.786 1595.52 C 699.685 1589.38 679.436 1576.15 667.631 1568.08 C 603.121 1523.91 547.262 1468.28 502.827 1403.96 C 475.534 1364.28 455.285 1320.73 424.822 1283.28 C 421.965 1279.6 419.184 1276.09 416.505 1272.25 C 360.952 1192.69 297.317 1107.91 208.658 1063.31 C 194.39 1056.13 175.528 1052.94 162.966 1044.34 C 135.211 1025.33 146.946 987.762 163.452 965.452 z" fill="rgb(86,60,41)" transform="translate(0,0)"></path>
<path d="M 1022.14 1854.68 C 1023.95 1859.91 1025.17 1878.73 1025.38 1884.71 L 1035.03 1890.68 C 1035.67 1891.03 1035.69 1891.04 1036.21 1891.55 C 1095.05 1925.32 1160.06 1946.94 1227.41 1955.13 C 1240.05 1956.78 1258.74 1958.99 1271.37 1959.17 C 1272.9 1959.89 1272.73 1959.71 1274.6 1959.73 C 1303.51 1961.11 1322.28 1961.21 1351.18 1959.73 C 1352.53 1959.69 1352.57 1959.81 1353.62 1959.25 L 1365.97 1958.7 C 1366.83 1958.32 1366.68 1958.36 1367.63 1958.27 C 1383.92 1957.77 1406.87 1953.79 1423 1950.98 C 1493.36 1938.74 1552.72 1916.39 1614.38 1880.59 L 1613.19 1883.45 C 1608.93 1886.76 1592.11 1895.67 1586.95 1898.28 C 1543.91 1920.29 1498.26 1936.78 1451.09 1947.34 C 1310.83 1977.7 1146.39 1965.05 1023.6 1885.8 C 1022.7 1874.15 1021.7 1865.22 1019.96 1853.67 L 1022.14 1854.68 z" fill="rgb(124,83,56)" transform="translate(0,0)"></path>
<path d="M 1713.55 1349.85 L 1715.31 1349.77 C 1713.67 1361.66 1710.91 1373.51 1709.02 1385.41 C 1706.52 1401.13 1705.05 1416.68 1703.72 1432.54 C 1702.07 1421.8 1704.82 1396.11 1707.27 1385.05 L 1704.95 1384.76 C 1686.73 1434.06 1663.51 1470.73 1625.89 1507.69 C 1625.25 1508.03 1625.36 1507.98 1624.88 1508.56 L 1619.87 1513.77 C 1618.64 1514.32 1618.76 1514.19 1618 1515.26 L 1607.9 1523.69 C 1606.66 1524.32 1606.76 1524.18 1605.97 1525.24 C 1588.65 1538.87 1577.84 1543.76 1560.55 1555.26 C 1610.03 1537.09 1653.35 1522.2 1705.81 1514.37 C 1704.8 1508.74 1703.74 1503.73 1703.48 1498 L 1704.73 1497.33 C 1708.98 1546.05 1724.71 1596.43 1756.93 1633.97 L 1755.51 1634.58 C 1754.08 1633.56 1753.77 1633.38 1752.59 1632.01 C 1726.76 1601.87 1711.01 1555.64 1705.64 1516.52 C 1662.96 1522.21 1621.69 1536.27 1581.06 1549.94 C 1576.17 1551.58 1565.33 1557.74 1561.1 1554.53 C 1562.48 1551.17 1580.62 1540.32 1585.39 1537.35 C 1644.83 1500.38 1699.77 1419.33 1713.55 1349.85 z" fill="rgb(85,34,15)" transform="translate(0,0)"></path>
<path d="M 1704.95 1384.76 C 1705.1 1384.28 1706.2 1379.23 1707.46 1379.67 C 1708.14 1380.54 1707.37 1384.08 1707.27 1385.05 L 1704.95 1384.76 z" fill="rgb(124,83,56)" transform="translate(0,0)"></path>
<path d="M 1454.84 590.817 C 1455.22 585.924 1453.85 580.496 1455.89 577.291 C 1460.38 668.769 1479.41 770.051 1522.19 851.978 C 1538.14 882.53 1562.45 916.508 1583.59 943.478 L 1582.6 945.31 C 1574.77 939.056 1545.56 895.275 1539.17 885.298 C 1492.66 812.668 1470.12 725.554 1459.14 640.806 C 1457.69 629.583 1456.13 617.94 1455.66 606.62 C 1455.59 604.948 1455.68 604.866 1455.11 603.355 L 1454.84 590.817 z" fill="rgb(124,83,56)" transform="translate(0,0)"></path>
<path d="M 1627.14 995.939 C 1697.39 1087.59 1735.86 1211.83 1719.61 1326.69 C 1718.95 1331.36 1716.73 1345.85 1715.31 1349.77 L 1713.55 1349.85 C 1721.37 1306.08 1721.41 1291.49 1720.7 1247.04 C 1720.33 1246.18 1720.37 1246.32 1720.28 1245.38 C 1711.77 1148.9 1681.96 1074.47 1624.67 996.002 L 1627.14 995.939 z" fill="rgb(124,83,56)" transform="translate(0,0)"></path>
<path d="M 1450.28 262.807 C 1478 298.879 1478.84 336.787 1474.12 381.002 C 1472.01 400.804 1465.51 419.252 1462.85 438.426 C 1456.63 483.296 1454.4 532.037 1455.89 577.291 C 1453.85 580.496 1455.22 585.924 1454.84 590.817 C 1452.3 566.275 1453.89 519.023 1455.12 493.84 C 1455.62 492.71 1455.56 492.682 1455.6 491.393 C 1457.51 459.61 1460.76 431.843 1468.77 400.985 C 1473.44 378.717 1475.31 356.307 1473.85 333.716 C 1472.02 305.477 1465.07 287.158 1449.04 264.564 L 1450.28 262.807 z" fill="rgb(151,89,50)" transform="translate(0,0)"></path>
<path d="M 1755.51 1634.58 L 1756.93 1633.97 C 1775.46 1653.93 1788.59 1662.85 1812.2 1675.88 C 1761.78 1761.55 1700.78 1833.59 1613.19 1883.45 L 1614.38 1880.59 C 1618.98 1878.73 1627.58 1872.54 1631.9 1869.59 C 1632.62 1869.19 1632.63 1869.27 1633.14 1868.69 C 1638.11 1865.75 1643.13 1861.99 1647.88 1858.62 C 1648.58 1858.23 1648.51 1858.34 1649.05 1857.78 L 1654.95 1853.59 C 1655.69 1853.13 1655.68 1853.22 1656.26 1852.57 L 1658.86 1850.84 C 1659.43 1850.4 1659.66 1850.27 1660.15 1849.71 C 1719 1810.43 1775.25 1736.87 1809.88 1676.44 C 1802.88 1672.58 1795.7 1668.25 1788.75 1664.22 C 1787.63 1663.37 1787.72 1663.4 1786.45 1662.83 C 1785.85 1662.13 1785.83 1661.93 1785.03 1661.56 L 1779.01 1657.17 C 1778.2 1656.09 1778.31 1656.22 1777.07 1655.58 L 1772.04 1651.16 C 1771.04 1649.6 1770.77 1649.34 1769.13 1648.68 C 1764.44 1644.12 1759.9 1639.42 1755.51 1634.58 z" fill="rgb(85,34,15)" transform="translate(0,0)"></path>
<path d="M 163.452 965.452 C 178.071 943.291 208.5 921.554 232.617 911.306 C 291.128 886.442 354.566 891.382 412.546 914.711 L 412.067 916.07 C 350.175 894.04 289.534 886.306 227.797 915.539 C 203.21 927.238 181.71 944.542 165.025 966.059 L 163.452 965.452 z" fill="rgb(86,60,41)" transform="translate(0,0)"></path>
<path d="M 412.546 914.711 C 426.166 919.943 452.737 934.003 466.622 941.678 C 466.728 941.736 467.808 940.605 467.844 940.569 L 468.742 939.212 L 469.482 940.858 C 471.309 945.214 503.453 962.225 510.299 966.493 C 505.378 966.603 502.686 964.204 497.924 962.391 C 503.541 966.926 509.224 969.873 511.736 975.841 C 498.125 965.998 483.767 954.557 469.394 945.663 C 451.903 934.641 433.55 925.048 414.514 916.98 C 413.132 916.395 413.868 916.66 412.067 916.07 L 412.546 914.711 z" fill="rgb(41,22,13)" transform="translate(0,0)"></path>
<path d="M 1315.05 273.888 C 1318.39 267.957 1325.21 259.858 1330.3 255.292 C 1370.79 218.945 1415.21 225.015 1450.28 262.807 L 1449.04 264.564 C 1445.99 259.863 1440.47 255.106 1436.27 251.315 C 1435.52 250.443 1435.75 250.593 1434.78 250.084 L 1431.26 247.334 C 1430.52 246.717 1430.78 246.888 1430.07 246.518 C 1396.45 223.783 1356.08 230.512 1328.51 259.891 C 1325.27 263.347 1318.6 271.53 1315.05 273.888 z" fill="rgb(85,34,15)" transform="translate(0,0)"></path>
<path d="M 713.344 1595.83 C 716.359 1595.53 716.775 1596.09 719.772 1597.22 C 755.13 1615.83 811.069 1639.09 850.427 1647.59 L 848.458 1649 C 808.94 1639.7 748.473 1616.07 713.344 1595.83 z" fill="rgb(86,60,41)" transform="translate(0,0)"></path>
<path d="M 678.602 1180.33 C 684.751 1176.62 693.663 1169.81 700.26 1170.46 C 694.813 1173.18 690.462 1175.6 685.427 1178.92 L 684.378 1179.6 C 684.53 1179.5 675.941 1185.66 676.412 1181.04 C 676.706 1178.15 685.085 1171.42 687.662 1169.33 C 685.43 1174.21 682.498 1176.25 678.602 1180.33 z" fill="rgb(41,22,13)" transform="translate(0,0)"></path>
<path d="M 1620.43 986.973 C 1622.2 988.753 1623.52 990.806 1625.08 992.831 L 1627.14 995.939 L 1624.67 996.002 L 1623.8 994.411 C 1622.37 993.693 1618.83 988.757 1617.57 987.229 L 1620.43 986.973 z" fill="rgb(151,89,50)" transform="translate(0,0)"></path>
<path d="M 1623.8 994.411 L 1625.08 992.831 L 1627.14 995.939 L 1624.67 996.002 L 1623.8 994.411 z" fill="rgb(41,22,13)" transform="translate(0,0)"></path>
<path d="M 1250.84 621.817 C 1252.26 626.958 1252.56 629.672 1251.36 634.815 C 1249.99 630.401 1250.51 626.45 1250.84 621.817 z" fill="rgb(172,118,78)" transform="translate(0,0)"></path>
<path d="M 1609.55 973.913 C 1610.56 974.99 1611.17 975.676 1612.16 976.835 L 1610.52 978.085 C 1608.32 977.258 1608.23 976.112 1607.12 973.955 L 1609.55 973.913 z" fill="rgb(151,89,50)" transform="translate(0,0)"></path>
<path d="M 1596.41 958.871 C 1597.49 959.978 1598.16 960.741 1599.15 961.926 L 1597.19 962.719 C 1595.28 961.37 1595.16 960.988 1594.08 958.95 L 1596.41 958.871 z" fill="rgb(124,83,56)" transform="translate(0,0)"></path>
<path d="M 1615.42 980.877 C 1616.46 981.942 1617.21 982.777 1618.19 983.902 L 1616.3 984.55 C 1613.86 983.843 1614.34 983.218 1613.15 980.956 L 1615.42 980.877 z" fill="rgb(124,83,56)" transform="translate(0,0)"></path>
<path d="M 1602.42 965.845 C 1603.48 966.944 1604.18 967.747 1605.17 968.915 L 1603.34 969.727 C 1601.29 968.385 1601.19 968.073 1600.03 965.959 L 1602.42 965.845 z" fill="rgb(124,83,56)" transform="translate(0,0)"></path>
<path d="M 1605.17 968.915 C 1606.81 971.029 1607.7 972.028 1609.55 973.913 L 1607.12 973.955 C 1605.74 972.262 1604.84 971.265 1603.34 969.727 L 1605.17 968.915 z" fill="rgb(41,22,13)" transform="translate(0,0)"></path>
<path d="M 1586.66 946.95 C 1587.16 947.589 1587.65 948.238 1588.12 948.895 L 1586.53 950.121 C 1584.59 949.356 1584.71 948.864 1584.01 946.954 L 1586.66 946.95 z" fill="rgb(124,83,56)" transform="translate(0,0)"></path>
<path d="M 1591.65 953.016 C 1592.16 953.614 1592.66 954.217 1593.16 954.825 L 1591.55 956.069 C 1590.14 955.328 1589.77 954.302 1589.02 952.954 L 1591.65 953.016 z" fill="rgb(124,83,56)" transform="translate(0,0)"></path>
<path d="M 1599.15 961.926 C 1600.45 963.723 1600.91 964.237 1602.42 965.845 L 1600.03 965.959 C 1599.04 964.778 1598.25 963.846 1597.19 962.719 L 1599.15 961.926 z" fill="rgb(41,22,13)" transform="translate(0,0)"></path>
<path d="M 1593.16 954.825 C 1594.33 956.43 1595.12 957.398 1596.41 958.871 L 1594.08 958.95 C 1593.23 957.974 1592.42 957.022 1591.55 956.069 L 1593.16 954.825 z" fill="rgb(41,22,13)" transform="translate(0,0)"></path>
<path d="M 1618.19 983.902 C 1618.93 985.022 1619.62 985.908 1620.43 986.973 L 1617.57 987.229 L 1616.3 984.55 L 1618.19 983.902 z" fill="rgb(41,22,13)" transform="translate(0,0)"></path>
<path d="M 713.42 1593.34 C 715.919 1594.46 717.582 1595.55 719.772 1597.22 C 716.775 1596.09 716.359 1595.53 713.344 1595.83 L 712.786 1595.52 L 713.42 1593.34 z" fill="rgb(172,118,78)" transform="translate(0,0)"></path>
<path d="M 1769.13 1648.68 C 1770.77 1649.34 1771.04 1649.6 1772.04 1651.16 C 1770.2 1650.38 1769.67 1650.69 1769.13 1648.68 z" fill="rgb(172,118,78)" transform="translate(0,0)"></path>
<path d="M 1583.59 943.478 C 1584.6 944.752 1585.56 945.77 1586.66 946.95 L 1584.01 946.954 L 1582.6 945.31 L 1583.59 943.478 z" fill="rgb(41,22,13)" transform="translate(0,0)"></path>
<path d="M 716.936 823.547 C 713.912 816.619 707.808 796.432 705.611 788.863 C 691.301 739.574 679.03 687.404 669.34 637.017 C 643.24 499.524 646.437 353.503 682.729 218.205 C 698.282 160.222 722.401 90.8959 789.503 79.1821 C 810.338 75.545 834.748 79.3271 852.253 91.6106 L 853.864 92.5446 C 862.392 97.1614 870.804 106.196 877.58 113.043 L 878.14 113.658 L 881.269 117.597 C 914.872 160.465 918.088 214.13 911.557 266.086 C 908.871 287.454 903.755 307.9 901.196 329.031 C 892.703 399.826 895.738 471.529 910.182 541.353 C 914.588 563.388 919.669 585.283 925.416 607.006 C 927.902 616.268 934.335 636.014 935.712 644.295 L 934.963 644.745 L 935.692 649.08 C 928.966 655.837 796.172 675.47 769.834 692.441 C 756.553 698.345 741.389 714.409 734.602 727.1 C 720.358 750.608 719.172 771.834 718.993 798.802 C 718.946 805.765 719.661 815.849 719.082 822.506 L 717.842 821.797 L 716.936 823.547 z" fill="rgb(213,148,99)" transform="translate(0,0)"></path>
<path d="M 716.936 823.547 C 713.912 816.619 707.808 796.432 705.611 788.863 C 691.301 739.574 679.03 687.404 669.34 637.017 C 643.24 499.524 646.437 353.503 682.729 218.205 C 698.282 160.222 722.401 90.8959 789.503 79.1821 C 810.338 75.545 834.748 79.3271 852.253 91.6106 L 851.953 93.073 C 825.393 79.5486 805.516 75.3319 776.127 84.5791 C 751.973 92.1787 732.505 109.666 719.288 130.999 C 718.98 131.687 718.993 131.638 718.469 132.187 C 702.164 158.675 693.318 188.022 684.902 217.634 C 656.402 317.909 653.688 407.756 655.293 510.389 C 655.314 512.147 655.174 512.184 655.825 513.634 C 656.447 522.04 657.283 531.013 657.383 539.393 C 657.426 540.36 657.375 540.17 657.793 541.038 C 668.284 636.411 688.403 730.477 717.842 821.797 L 716.936 823.547 z" fill="rgb(124,83,56)" transform="translate(0,0)"></path>
<path d="M 881.269 117.597 C 914.872 160.465 918.088 214.13 911.557 266.086 C 908.871 287.454 903.755 307.9 901.196 329.031 C 892.703 399.826 895.738 471.529 910.182 541.353 C 914.588 563.388 919.669 585.283 925.416 607.006 C 927.902 616.268 934.335 636.014 935.712 644.295 L 934.963 644.745 C 930.454 635.701 918.575 588.005 915.82 576.707 C 896.986 499.479 889.42 417.507 898.356 338.357 C 901.16 313.518 906.07 292.721 909.56 268.274 C 916.425 218.45 913.428 164.053 881.984 122.515 C 880.665 120.772 880.035 120.053 878.958 117.995 L 881.269 117.597 z" fill="rgb(151,89,50)" transform="translate(0,0)"></path>
<path d="M 852.253 91.6106 L 853.864 92.5446 C 862.392 97.1614 870.804 106.196 877.58 113.043 L 874.752 113.399 C 872.497 109.417 868.795 106.283 865.286 103.359 C 864.744 102.854 864.745 102.803 864.071 102.49 C 859.792 98.2849 857.246 96.1376 851.953 93.073 L 852.253 91.6106 z" fill="rgb(41,22,13)" transform="translate(0,0)"></path>
<path d="M 876.486 114.979 L 878.14 113.658 L 881.269 117.597 L 878.958 117.995 C 878.178 117.015 877.336 115.903 876.486 114.979 z" fill="rgb(41,22,13)" transform="translate(0,0)"></path>
<path d="M 877.58 113.043 L 878.14 113.658 L 876.486 114.979 C 875.443 114.254 875.551 114.372 874.752 113.399 L 877.58 113.043 z" fill="rgb(151,89,50)" transform="translate(0,0)"></path>
<path d="M 1044.93 125.832 C 1061.75 99.947 1098.83 81.1726 1129.69 83.5992 C 1159.29 85.9271 1180.24 99.904 1199.33 121.686 C 1252.74 192.068 1222.35 260.515 1210.99 335.842 C 1196.69 430.721 1207.82 527.803 1230.71 620.605 L 1229.66 622.74 L 1228.4 623.994 C 1222.4 621.79 1216.77 618.262 1211.02 615.345 C 1172.11 595.608 1143.31 604.004 1102.85 612.978 L 1020.25 631.438 C 1014.69 632.638 990.361 638.14 986.38 638.163 L 984.216 638.82 C 983.939 631.834 982.657 623.799 981.827 616.795 C 971.963 540.045 966.507 457.441 972.297 380.292 C 976.621 322.693 998.907 171.47 1041.59 129.895 C 1042.83 126.779 1041.94 128.211 1044.93 125.832 z" fill="rgb(213,148,99)" transform="translate(0,0)"></path>
<path d="M 1199.33 121.686 C 1252.74 192.068 1222.35 260.515 1210.99 335.842 C 1196.69 430.721 1207.82 527.803 1230.71 620.605 L 1229.66 622.74 C 1220.57 589.663 1207.47 532.388 1206.65 498.044 C 1206.33 497.241 1206.34 497.23 1206.25 496.379 C 1205.36 486.663 1204.92 478.591 1204.66 468.834 C 1204.13 467.701 1204.21 467.677 1204.18 466.372 C 1202.47 431.016 1203.23 407.135 1205.13 371.839 C 1205.21 370.424 1205.09 370.532 1205.58 369.368 C 1207.17 347.713 1209.58 327.547 1214.19 306.34 C 1219.21 283.229 1226.47 259.473 1227.09 235.648 C 1226.9 232.259 1227.29 230.646 1227.86 227.263 C 1228.23 186.978 1221.7 154.866 1197.09 122.575 L 1199.33 121.686 z" fill="rgb(151,89,50)" transform="translate(0,0)"></path>
<path d="M 1227.86 227.263 C 1227.83 229.803 1227.96 233.272 1227.09 235.648 C 1226.9 232.259 1227.29 230.646 1227.86 227.263 z" fill="rgb(172,118,78)" transform="translate(0,0)"></path>
<path d="M 984.216 638.82 C 983.939 631.834 982.657 623.799 981.827 616.795 C 971.963 540.045 966.507 457.441 972.297 380.292 C 976.621 322.693 998.907 171.47 1041.59 129.895 C 1036.4 143.733 1023.78 158.235 1017.76 174.03 C 994.394 235.4 978.079 311.073 974.784 376.384 C 974.41 377.056 974.456 377.219 974.321 378.046 L 973.751 389.352 C 973.22 390.443 973.332 390.514 973.309 391.832 C 972.83 415.405 971.587 438.958 971.609 462.499 C 971.624 479.091 973.177 495.786 973.286 512.408 C 973.238 513.749 973.145 513.732 973.779 514.849 C 974.559 525.17 975.198 536.163 976.438 546.387 C 976.829 547.083 976.742 547.222 976.82 548.055 C 978.097 573.599 983.026 612.398 986.38 638.163 L 984.216 638.82 z" fill="rgb(124,83,56)" transform="translate(0,0)"></path>
<path d="M 1044.93 125.832 C 1061.75 99.947 1098.83 81.1726 1129.69 83.5992 C 1159.29 85.9271 1180.24 99.904 1199.33 121.686 L 1197.09 122.575 C 1194.34 117.859 1185.35 110.031 1181.22 106.363 C 1180.52 105.585 1180.61 105.614 1179.73 105.07 L 1176.04 102.434 C 1174.95 101.672 1174.98 101.656 1173.78 101.153 C 1173.15 100.43 1172.87 99.9288 1172.05 99.515 C 1138.04 78.1401 1093.45 80.7888 1063.86 108.625 C 1062.63 109.17 1062.76 109.087 1061.96 110.152 C 1057.88 113.848 1048.31 123.94 1044.93 125.832 z" fill="rgb(86,60,41)" transform="translate(0,0)"></path>
<path d="M 1061.96 110.152 C 1062.76 109.087 1062.63 109.17 1063.86 108.625 C 1063.37 109.979 1063.38 109.991 1061.96 110.152 z" fill="rgb(172,118,78)" transform="translate(0,0)"></path>
<path d="M 1588.12 948.895 C 1589.55 950.81 1590.01 951.297 1591.65 953.016 L 1589.02 952.954 C 1588.19 951.988 1587.4 951.06 1586.53 950.121 L 1588.12 948.895 z" fill="rgb(41,22,13)" transform="translate(0,0)"></path>
<path d="M 1610.52 978.085 L 1612.16 976.835 C 1613.35 978.482 1614.1 979.381 1615.42 980.877 L 1613.15 980.956 C 1612.29 979.987 1611.41 979.03 1610.52 978.085 z" fill="rgb(41,22,13)" transform="translate(0,0)"></path>
<metadata><recraft-signature>{"signed_by": "recraft", "signature_b64": "x8EDSUT8aitW6gDDU6yok1lN/TxdsmnTbFuCw8WIwupi4NWn7cdmFS8+ZBzMgzqIVL/RU3T17XJfMP9rGZtXCQ==", "signing_algo": "Ed25519", "generation_timestamp": 1779010635, "identifier": "5e8bce77-6a74-4478-ba46-10c110d7860a"}</recraft-signature></metadata></svg>