<svg xmlns="http://www.w3.org/2000/svg" height="1024" preserveAspectRatio="none" style="display: block;" version="1.1" viewBox="0 0 2048 2048" width="1024">
<path d="M 0 0 L 2048 0 L 2048 2048 L 0 2048 L 0 0 z" fill="rgb(255,255,255)" transform="translate(0,0)"></path>
<path d="M 636.261 1173.63 C 527.308 1110.9 452.47 1011.92 388.289 906.215 C 361.639 862.324 341.309 813.758 304.185 777.785 C 291.527 765.519 270.638 758.429 265.864 740.326 C 263.777 732.093 265.04 723.368 269.374 716.064 C 273.135 709.822 279.289 704.18 286.536 703.512 C 326.573 699.825 355.965 696.598 392.472 676.289 C 484.066 625.334 552.804 543.336 624.857 469.062 C 653.475 439.61 683.581 405.797 717.424 382.899 C 781.903 339.273 865.835 332.122 932.811 374.539 C 944.273 381.798 953.088 390.667 963.713 398.345 C 988.233 415.913 1019 422.378 1048.52 416.166 C 1066.3 412.413 1085.56 403.136 1098.93 390.876 C 1162.6 332.493 1259.69 333.508 1329.74 380.164 C 1364.14 403.073 1394.93 436.763 1424.15 466.063 C 1484.52 527.268 1541.3 594.001 1610.57 645.56 C 1649.22 674.321 1695.03 697.695 1743.91 698.94 C 1762.77 699.42 1781.96 702.756 1786.48 724.663 C 1792.43 753.973 1769.61 758.898 1751.31 774.683 C 1711.28 809.196 1692.27 862.703 1664.12 906.252 C 1609.24 995.343 1547.82 1081.2 1462.78 1143.98 C 1449.3 1153.97 1427.9 1168.61 1412.84 1175.7 C 1402.28 1182.33 1387.82 1188.61 1376.26 1193.74 C 1374.12 1195.97 1375.33 1312.66 1374.29 1327.61 C 1370.83 1378.67 1357.26 1428.54 1334.37 1474.31 C 1289.46 1562.67 1217.88 1630.25 1122.68 1661.06 C 1042.7 1686.58 955.901 1679.76 880.886 1642.06 C 753.037 1576.63 676.329 1444.67 676.11 1301.97 C 676.09 1289.12 677.307 1198.37 674.807 1193.71 C 662.956 1188.11 647.077 1180.54 636.261 1173.63 z" fill="rgb(235,93,99)" transform="translate(0,0)"></path>
<path d="M 1025.67 1032.8 C 1031.32 985.691 1055.43 942.745 1092.72 913.402 C 1128.63 884.941 1174.3 871.774 1219.85 876.756 C 1265.49 881.918 1307.2 905.004 1335.8 940.932 C 1373.23 988.411 1376.1 1028.48 1376.03 1085.44 L 1375.92 1149.16 C 1375.91 1157.31 1375.3 1186.92 1376.26 1193.74 C 1374.12 1195.97 1375.33 1312.66 1374.29 1327.61 C 1370.83 1378.67 1357.26 1428.54 1334.37 1474.31 C 1289.46 1562.67 1217.88 1630.25 1122.68 1661.06 C 1042.7 1686.58 955.901 1679.76 880.886 1642.06 C 753.037 1576.63 676.329 1444.67 676.11 1301.97 C 676.09 1289.12 677.307 1198.37 674.807 1193.71 C 676.067 1163.94 675.044 1120.5 674.876 1089.27 C 672.898 1030.84 678.386 984.068 717.498 937.374 C 780.732 861.883 891.188 855.689 964.634 919.92 C 995.199 946.651 1020.64 991.324 1023.29 1032.11 C 1024.34 1032.83 1024.28 1032.71 1025.67 1032.8 z" fill="rgb(234,141,144)" transform="translate(0,0)"></path>
<path d="M 1023.29 1032.11 C 1024.34 1032.83 1024.28 1032.71 1025.67 1032.8 C 1026.17 1038.1 1025.27 1041.24 1024.6 1046.44 C 1024.2 1042.69 1023.04 1035.45 1023.29 1032.11 z" fill="rgb(235,93,99)" transform="translate(0,0)"></path>
<path d="M 1020.2 644.555 C 1021.92 637.145 1019.26 633.165 1022.96 628.393 L 1027.3 628.06 C 1027.3 644.31 1027 661.805 1027.67 677.941 C 1062.73 679.275 1105.24 680.896 1139.77 685.794 C 1201.38 694.536 1278.3 715.536 1331.7 747.97 C 1341.59 729.372 1345.65 720.305 1350.39 699.838 C 1355.03 699.867 1389.41 711.662 1396.53 713.826 C 1416.69 719.833 1436.97 725.399 1457.37 730.523 C 1535.14 749.31 1595.3 756.51 1673.92 757.58 C 1612.17 849.827 1518.33 932.866 1417.61 980.04 C 1407.05 984.986 1395.57 988.842 1385.25 994.216 C 1423.92 1042.25 1440.18 1118.55 1412.84 1175.7 C 1402.28 1182.33 1387.82 1188.61 1376.26 1193.74 C 1375.3 1186.92 1375.91 1157.31 1375.92 1149.16 L 1376.03 1085.44 C 1376.1 1028.48 1373.23 988.411 1335.8 940.932 C 1307.2 905.004 1265.49 881.918 1219.85 876.756 C 1174.3 871.774 1128.63 884.941 1092.72 913.402 C 1055.43 942.745 1031.32 985.691 1025.67 1032.8 C 1024.28 1032.71 1024.34 1032.83 1023.29 1032.11 C 1020.64 991.324 995.199 946.651 964.634 919.92 C 891.188 855.689 780.732 861.883 717.498 937.374 C 678.386 984.068 672.898 1030.84 674.876 1089.27 C 675.044 1120.5 676.067 1163.94 674.807 1193.71 C 662.956 1188.11 647.077 1180.54 636.261 1173.63 C 615.053 1107.01 625.143 1049.89 665.267 992.73 C 647.87 984.557 632.989 979.309 615.025 969.795 C 519.905 918.717 438.218 845.859 376.641 757.174 C 454.714 759.125 541.093 744.227 616.267 724.257 C 635.35 719.027 654.351 713.502 673.264 707.683 C 679.037 705.94 694.345 700.787 699.282 699.997 C 704.103 719.523 708.788 730.377 718.371 748.034 C 729.669 743.228 744.026 734.205 757.482 728.357 C 811.852 704.843 869.544 689.912 928.496 684.1 C 945.81 682.335 963.186 681.244 980.585 680.831 C 992.664 680.463 1008.46 680.748 1020.14 679.012 C 1019.92 667.754 1020.14 655.865 1020.2 644.555 z" fill="rgb(209,47,64)" transform="translate(0,0)"></path>
<path d="M 1027.67 677.941 C 1062.73 679.275 1105.24 680.896 1139.77 685.794 C 1201.38 694.536 1278.3 715.536 1331.7 747.97 C 1304.15 792.893 1256.47 823.149 1203.56 826.826 C 1159.27 829.932 1115.57 815.172 1082.24 785.84 C 1050.96 758.577 1030.34 719.562 1027.67 677.941 z" fill="rgb(255,255,255)" transform="translate(0,0)"></path>
<path d="M 718.371 748.034 C 729.669 743.228 744.026 734.205 757.482 728.357 C 811.852 704.843 869.544 689.912 928.496 684.1 C 945.81 682.335 963.186 681.244 980.585 680.831 C 992.664 680.463 1008.46 680.748 1020.14 679.012 C 1017.91 719.446 998.125 756.449 968.696 783.695 C 893.169 853.619 771.06 836.843 718.371 748.034 z" fill="rgb(255,255,255)" transform="translate(0,0)"></path>
<path d="M 1027.3 628.06 C 1115.33 625.347 1197.7 642.735 1279.13 674.009 C 1301.71 682.682 1328.6 689.852 1350.39 699.838 C 1345.65 720.305 1341.59 729.372 1331.7 747.97 C 1278.3 715.536 1201.38 694.536 1139.77 685.794 C 1105.24 680.896 1062.73 679.275 1027.67 677.941 C 1027 661.805 1027.3 644.31 1027.3 628.06 z" fill="rgb(230,229,230)" transform="translate(0,0)"></path>
<path d="M 699.282 699.997 C 703.736 697.274 715.589 693.839 721.11 692.072 C 761.288 679.192 800.316 663.247 840.815 651.32 C 899.674 633.987 959.158 628.039 1020.26 628.014 C 1020.17 633.527 1020.15 639.041 1020.2 644.555 C 1020.14 655.865 1019.92 667.754 1020.14 679.012 C 1008.46 680.748 992.664 680.463 980.585 680.831 C 963.186 681.244 945.81 682.335 928.496 684.1 C 869.544 689.912 811.852 704.843 757.482 728.357 C 744.026 734.205 729.669 743.228 718.371 748.034 C 708.788 730.377 704.103 719.523 699.282 699.997 z" fill="rgb(230,229,230)" transform="translate(0,0)"></path>
<path d="M 577.344 1463.18 C 590.275 1462.45 604.21 1469.97 607.281 1482.36 C 615.914 1517.21 574.125 1518.9 555.079 1526.04 C 505.354 1544.96 459.956 1573.71 421.603 1610.59 C 389.113 1642.31 361.751 1677.33 341.205 1717.77 C 334.9 1730.18 331.999 1733.87 318.892 1738.19 C 311.981 1738.45 305.401 1737.85 299.327 1734.19 C 293.909 1730.85 290.02 1725.51 288.502 1719.33 C 284.093 1701.31 303.192 1673.87 312.811 1658.67 C 357.409 1586.63 421.658 1528.83 497.996 1492.07 C 523.698 1479.61 549.381 1469.48 577.344 1463.18 z" fill="rgb(254,208,5)" transform="translate(0,0)"></path>
<path d="M 1462.65 1463.17 C 1482.19 1461.67 1524.07 1479.05 1544 1488.15 C 1637.1 1530.7 1718.03 1608.64 1762.24 1701.14 C 1770.13 1717.67 1760.25 1732.62 1743.34 1738.03 C 1718.67 1742.25 1709.84 1715.05 1697.39 1694.88 C 1656.19 1628.1 1593.21 1567.95 1520.8 1536 C 1509.05 1530.91 1497.05 1526.44 1484.84 1522.59 C 1470.36 1518.05 1447.81 1514.2 1442.45 1498.17 C 1440.08 1490.9 1440.86 1482.97 1444.61 1476.31 C 1449.13 1468.41 1454.21 1465.41 1462.65 1463.17 z" fill="rgb(254,208,5)" transform="translate(0,0)"></path>
<path d="M 1740.55 1078.11 C 1765.9 1076.77 1780.16 1103.65 1763.91 1123.04 C 1755.02 1133.65 1745.03 1142.92 1734.97 1152.4 C 1675.24 1208.91 1599.63 1245.76 1518.32 1258 C 1495.05 1259.12 1480.61 1240.87 1491.1 1218.89 C 1497.39 1205.72 1520.67 1204.18 1534.03 1201.29 C 1542.21 1199.5 1550.32 1197.41 1558.35 1195.02 C 1609.8 1179.94 1660.11 1147.64 1699.44 1111.78 C 1711.07 1101.18 1725.75 1082.25 1740.55 1078.11 z" fill="rgb(254,208,5)" transform="translate(0,0)"></path>
<path d="M 301.484 1079.11 C 304.672 1078.82 313.301 1078.5 316.079 1080.1 C 328.865 1088.06 336.31 1097.74 347.754 1108.32 C 398.175 1154.55 460.578 1192.58 528.956 1203.47 C 548.62 1206.6 564.135 1211.75 561.685 1235.69 C 560.463 1247.64 552.648 1253.8 542.283 1257.49 C 520.684 1259.26 473.26 1245.04 453.074 1237.39 C 398.222 1216.85 348.44 1184.73 307.118 1143.22 C 294.33 1130.48 272.438 1111.22 284.652 1090.79 C 288.268 1084.74 295.089 1081.45 301.484 1079.11 z" fill="rgb(254,208,5)" transform="translate(0,0)"></path>
<path d="M 472.72 1331.42 C 493.845 1328.87 523.969 1331.79 544.664 1335.07 C 561.748 1337.79 572.977 1353.97 567.609 1371.09 C 557.981 1401.81 528.977 1387.46 506.321 1386.84 C 448.848 1382.94 402.935 1397.27 353.858 1424.95 C 341.985 1432.36 322.629 1450.28 311.848 1452.37 C 304.662 1453.71 297.243 1451.97 291.413 1447.56 C 285.062 1442.75 281.03 1435.49 280.305 1427.56 C 278.189 1405.97 308.286 1386.98 324.161 1377.39 C 370.02 1349.69 419.424 1335.23 472.72 1331.42 z" fill="rgb(95,173,207)" transform="translate(0,0)"></path>
<path d="M 1545.11 1331.42 C 1613.38 1326.04 1685.21 1348.13 1740.49 1386.68 C 1756.56 1396.31 1782.62 1418.89 1768.47 1439.83 C 1755.28 1459.34 1734.96 1451.85 1720.5 1440.92 C 1687.71 1414.54 1639.6 1394.33 1598.04 1388.88 C 1584.09 1387.06 1570.02 1386.23 1555.95 1386.42 C 1537.57 1386.71 1510.16 1394.75 1496.51 1384.59 C 1490.27 1379.85 1486.26 1372.74 1485.43 1364.95 C 1484.71 1358.11 1486.77 1351.26 1491.16 1345.96 C 1502.36 1332.47 1528.33 1332.61 1545.11 1331.42 z" fill="rgb(95,173,207)" transform="translate(0,0)"></path>
<path d="M 664.408 1563.19 C 668.497 1563.04 672.776 1562.69 676.746 1563.84 C 697.44 1569.83 705.302 1595.18 689.141 1610.4 C 681.641 1617.47 672.886 1622.24 665.604 1629.71 C 635.791 1660.29 613.815 1698.5 601.322 1739.29 C 597.362 1752.15 596.403 1765.57 591.38 1777.97 C 588.357 1785.4 580.259 1789.53 573.244 1792.17 C 567.962 1793.3 557.717 1792.1 553.637 1789.41 C 519.914 1767.15 564.318 1681.16 576.44 1657.13 C 590.416 1629.42 635.804 1571.55 664.408 1563.19 z" fill="rgb(233,98,59)" transform="translate(0,0)"></path>
<path d="M 1375.5 1563.1 C 1395.8 1562.4 1407.76 1575.43 1421.15 1589.45 C 1457.08 1627.35 1485.89 1674.56 1501.27 1724.59 C 1508.26 1747.34 1518.94 1784.75 1487.05 1792.5 C 1454.89 1795.6 1455.63 1762.76 1448.71 1741.06 C 1434.89 1697.72 1410.08 1654.16 1376.24 1623.19 C 1368.99 1616.55 1358.09 1607.61 1354.73 1598.33 C 1352.44 1591.95 1352.86 1584.92 1355.89 1578.85 C 1360.35 1569.81 1366.51 1566.19 1375.5 1563.1 z" fill="rgb(233,98,59)" transform="translate(0,0)"></path>
<metadata><recraft-signature>{"signed_by": "recraft", "signature_b64": "RV/4J3/3l3wzFQbgwIHBJZN62MCJmEugoKwicpkvRzIiNHkT7t/KLSLcwAkUCn7u9ktLqMd0weVq6csV7o7CBA==", "signing_algo": "Ed25519", "generation_timestamp": 1779005617, "identifier": "9468e3f5-69b3-4de2-b947-070c1a865542"}</recraft-signature></metadata></svg>