<svg xmlns="http://www.w3.org/2000/svg" height="1024" preserveAspectRatio="none" style="display: block;" version="1.1" viewBox="0 0 2048 2048" width="1024">
<path d="M 0 0 L 2048 0 L 2048 2048 L 0 2048 L 0 0 z" fill="rgb(255,255,255)" transform="translate(0,0)"></path>
<path d="M 1308.37 384.634 C 1328.97 367.978 1359.59 335.932 1380.09 316.246 L 1523.04 180.292 C 1582.02 245.069 1640.66 310.148 1698.96 375.528 C 1718.74 397.763 1740.04 420.011 1759.32 442.489 C 1770.97 455.508 1783.51 469.073 1794.46 482.582 C 1782.64 493.374 1769.35 503.713 1756.99 514.105 C 1729.57 537.386 1701.99 560.464 1674.23 583.339 C 1642.29 610.063 1605.36 643.622 1572.88 668.461 C 1575.65 676.571 1578.34 690.993 1579.86 699.714 C 1590.64 761.111 1582.03 824.34 1555.23 880.622 C 1534.64 922.859 1514.21 944.589 1483.45 978.917 C 1468.12 996.023 1453.86 1013.72 1437.44 1030.07 C 1412.49 1054.96 1386.41 1079.09 1365.77 1107.86 C 1359.39 1116.75 1349.59 1130.99 1345.33 1141.03 C 1332.6 1171.07 1322.98 1198.55 1285.03 1201.6 C 1263.22 1202.87 1248.08 1193.35 1235.32 1176.68 C 1207.42 1188.54 1186.42 1210.01 1163.84 1229.67 C 1135.91 1254 1109.71 1279.79 1084.95 1307.34 C 1074.18 1319.36 1063.02 1330.59 1053.08 1343.54 C 1063.46 1343.82 1073.83 1343.86 1084.21 1343.67 C 1085.12 1343.91 1086.36 1344.09 1087.11 1344.74 C 1086.85 1346.68 1058.67 1381.87 1055.07 1387.63 L 1053.2 1389.39 C 1027.68 1425.27 982.402 1474.21 952.275 1505.92 C 933.596 1521.69 919.396 1538.87 896.81 1549.68 C 893.947 1551.05 886.995 1554.33 884.766 1556.03 C 878.53 1557.02 858.478 1556.77 852.338 1555.98 C 850.823 1554.99 851.051 1554.99 849.624 1554.48 C 818.268 1543.29 786.952 1524.54 758.778 1506.7 C 707.481 1473.8 658.525 1442.68 611.197 1404.09 C 587.627 1384.87 567.636 1365.98 545.776 1345.01 L 612.529 1345.14 C 541.578 1279.66 476.252 1208.34 417.237 1131.92 C 404.893 1115.85 391.971 1099.61 380.435 1082.97 C 367.846 1064.82 373.91 1043.83 392.424 1032.33 C 472.919 995.042 546.792 944.875 611.133 883.802 C 649.04 847.967 688.064 804.306 723.424 765.425 C 776.492 707.073 827.985 643.572 894.801 600.042 C 917.552 585.22 936.243 577.697 961.171 568.387 C 969.246 564.161 993.973 538.241 1002.19 530.312 C 1025.24 508.119 1048.5 486.149 1071.98 464.406 C 1148.49 394.592 1207.84 380.071 1308.37 384.634 z" fill="rgb(228,171,136)" transform="translate(0,0)"></path>
<path d="M 961.171 568.387 L 961.496 570.634 C 956.356 577.026 938.313 593.78 931.219 600.538 C 895.164 634.881 856.392 667.252 819.09 700.296 C 806.303 711.623 787.47 726.805 776.658 739.23 C 767.707 760.695 768.99 782.806 784.734 800.689 C 796.231 812.286 806.72 815.955 822.668 816.789 C 831.294 817.24 846.113 813.074 848.989 813.416 C 834.555 826.017 819.364 840.545 804.817 852.412 C 789.831 864.72 770.335 879.704 758.46 894.768 C 709.022 938.082 740.354 1006.31 802.093 1016.44 C 792.872 1024.6 788.661 1028.7 781.709 1038.81 C 776.046 1057.49 774.679 1072.45 784.158 1090.4 C 788.409 1098.35 794.574 1105.12 802.097 1110.1 C 811.832 1118 823.252 1121.3 835.458 1122.41 C 863.324 1124.95 879.053 1106.78 899.241 1091.25 C 913.093 1080.59 927.489 1070.35 940.933 1058.73 L 944.724 1060.38 C 930.078 1073.27 912.195 1087.48 899.574 1102.01 C 880.91 1123.5 888.034 1163.8 911.657 1179.28 C 941.843 1178.57 965.664 1173.71 987.814 1152.76 C 1001.48 1139.84 1016.65 1126.89 1030.74 1114.41 L 1190.96 970.507 C 1202.14 960.325 1213.52 949.558 1224.51 939.16 C 1239.89 924.602 1245.51 919.751 1267.03 919.051 C 1295.3 919.106 1311.74 932.143 1318.97 959.338 C 1308.53 970.48 1297.19 980.72 1286.7 991.805 C 1243.27 1037.68 1205.29 1099.58 1230.36 1164.28 C 1231.32 1166.77 1234.92 1174.55 1235.32 1176.68 C 1207.42 1188.54 1186.42 1210.01 1163.84 1229.67 C 1135.91 1254 1109.71 1279.79 1084.95 1307.34 C 1074.18 1319.36 1063.02 1330.59 1053.08 1343.54 C 1063.46 1343.82 1073.83 1343.86 1084.21 1343.67 C 1085.12 1343.91 1086.36 1344.09 1087.11 1344.74 C 1086.85 1346.68 1058.67 1381.87 1055.07 1387.63 L 1053.2 1389.39 C 1027.68 1425.27 982.402 1474.21 952.275 1505.92 C 933.596 1521.69 919.396 1538.87 896.81 1549.68 C 893.947 1551.05 886.995 1554.33 884.766 1556.03 C 878.53 1557.02 858.478 1556.77 852.338 1555.98 C 850.823 1554.99 851.051 1554.99 849.624 1554.48 C 818.268 1543.29 786.952 1524.54 758.778 1506.7 C 707.481 1473.8 658.525 1442.68 611.197 1404.09 C 587.627 1384.87 567.636 1365.98 545.776 1345.01 L 612.529 1345.14 C 541.578 1279.66 476.252 1208.34 417.237 1131.92 C 404.893 1115.85 391.971 1099.61 380.435 1082.97 C 367.846 1064.82 373.91 1043.83 392.424 1032.33 C 472.919 995.042 546.792 944.875 611.133 883.802 C 649.04 847.967 688.064 804.306 723.424 765.425 C 776.492 707.073 827.985 643.572 894.801 600.042 C 917.552 585.22 936.243 577.697 961.171 568.387 z" fill="rgb(254,210,37)" transform="translate(0,0)"></path>
<path d="M 911.657 1179.28 C 941.843 1178.57 965.664 1173.71 987.814 1152.76 C 1001.48 1139.84 1016.65 1126.89 1030.74 1114.41 L 1190.96 970.507 C 1202.14 960.325 1213.52 949.558 1224.51 939.16 C 1239.89 924.602 1245.51 919.751 1267.03 919.051 C 1295.3 919.106 1311.74 932.143 1318.97 959.338 C 1308.53 970.48 1297.19 980.72 1286.7 991.805 C 1243.27 1037.68 1205.29 1099.58 1230.36 1164.28 C 1231.32 1166.77 1234.92 1174.55 1235.32 1176.68 C 1207.42 1188.54 1186.42 1210.01 1163.84 1229.67 C 1135.91 1254 1109.71 1279.79 1084.95 1307.34 C 1074.18 1319.36 1063.02 1330.59 1053.08 1343.54 C 1063.46 1343.82 1073.83 1343.86 1084.21 1343.67 C 1085.12 1343.91 1086.36 1344.09 1087.11 1344.74 C 1086.85 1346.68 1058.67 1381.87 1055.07 1387.63 L 1053.2 1389.39 C 1027.68 1425.27 982.402 1474.21 952.275 1505.92 C 933.596 1521.69 919.396 1538.87 896.81 1549.68 C 893.947 1551.05 886.995 1554.33 884.766 1556.03 C 878.53 1557.02 858.478 1556.77 852.338 1555.98 C 850.823 1554.99 851.051 1554.99 849.624 1554.48 C 818.268 1543.29 786.952 1524.54 758.778 1506.7 C 707.481 1473.8 658.525 1442.68 611.197 1404.09 C 587.627 1384.87 567.636 1365.98 545.776 1345.01 L 612.529 1345.14 C 541.578 1279.66 476.252 1208.34 417.237 1131.92 C 404.893 1115.85 391.971 1099.61 380.435 1082.97 C 367.846 1064.82 373.91 1043.83 392.424 1032.33 C 406.381 1052.63 420.919 1075.92 435.735 1095.33 C 528.967 1217.46 639.999 1331.57 766.401 1419.54 C 801.083 1443.68 869.936 1489.92 910.297 1457.73 C 951.042 1425.23 983.92 1379.41 1015.28 1338.15 C 1066.12 1270.77 1123.15 1218.4 1188.37 1165.55 C 1178.76 1130.31 1190.82 1087.9 1208.48 1057.15 C 1230.91 1018.08 1265.34 987.742 1296.67 956.432 C 1262.49 969.266 1252.22 979.622 1226.66 1003.75 C 1214.44 1015.35 1202.02 1026.75 1189.43 1037.93 C 1151.61 1072.07 1005.09 1207.22 966.083 1221.25 C 949.329 1227.12 930.935 1226.14 914.897 1218.53 C 880.733 1202.71 870.288 1172.78 875.892 1137.43 C 859.319 1148.74 841.193 1153.78 821.176 1150.1 C 802.074 1146.45 785.258 1135.23 774.548 1119 C 758.014 1094.23 758.093 1058.89 781.709 1038.81 C 776.046 1057.49 774.679 1072.45 784.158 1090.4 C 788.409 1098.35 794.574 1105.12 802.097 1110.1 C 811.832 1118 823.252 1121.3 835.458 1122.41 C 863.324 1124.95 879.053 1106.78 899.241 1091.25 C 913.093 1080.59 927.489 1070.35 940.933 1058.73 L 944.724 1060.38 C 930.078 1073.27 912.195 1087.48 899.574 1102.01 C 880.91 1123.5 888.034 1163.8 911.657 1179.28 z" fill="rgb(211,169,17)" transform="translate(0,0)"></path>
<path d="M 1053.08 1343.54 C 1063.46 1343.82 1073.83 1343.86 1084.21 1343.67 C 1085.12 1343.91 1086.36 1344.09 1087.11 1344.74 C 1086.85 1346.68 1058.67 1381.87 1055.07 1387.63 L 1053.2 1389.39 C 1027.68 1425.27 982.402 1474.21 952.275 1505.92 C 933.596 1521.69 919.396 1538.87 896.81 1549.68 C 893.947 1551.05 886.995 1554.33 884.766 1556.03 C 878.53 1557.02 858.478 1556.77 852.338 1555.98 C 850.823 1554.99 851.051 1554.99 849.624 1554.48 C 818.268 1543.29 786.952 1524.54 758.778 1506.7 C 707.481 1473.8 658.525 1442.68 611.197 1404.09 C 587.627 1384.87 567.636 1365.98 545.776 1345.01 L 612.529 1345.14 C 635.258 1361.8 656.044 1381.92 678.069 1399.63 C 705.808 1421.93 837.854 1523.18 864.097 1527.16 C 869.504 1527.98 873.959 1527.51 878.686 1524.67 C 890.218 1517.75 900.372 1506.07 910.047 1496.68 C 947.312 1460 983.254 1421.99 1017.8 1382.74 C 1025.77 1373.68 1044.82 1349.15 1053.08 1343.54 z" fill="rgb(85,148,195)" transform="translate(0,0)"></path>
<path d="M 911.657 1179.28 C 941.843 1178.57 965.664 1173.71 987.814 1152.76 C 1001.48 1139.84 1016.65 1126.89 1030.74 1114.41 L 1190.96 970.507 C 1202.14 960.325 1213.52 949.558 1224.51 939.16 C 1239.89 924.602 1245.51 919.751 1267.03 919.051 C 1247.04 930.278 1219.52 961.753 1201.82 978.893 C 1149.62 1029.19 1096.8 1078.84 1043.38 1127.83 C 1021.54 1147.69 994.706 1174.52 969.325 1189.51 C 953.804 1198.68 925.635 1191.47 911.657 1179.28 z" fill="rgb(209,143,107)" transform="translate(0,0)"></path>
<path d="M 804.817 852.412 C 799.638 850.108 794.825 848.483 789.946 845.501 C 750.152 821.179 741.929 772.051 776.658 739.23 C 767.707 760.695 768.99 782.806 784.734 800.689 C 796.231 812.286 806.72 815.955 822.668 816.789 C 831.294 817.24 846.113 813.074 848.989 813.416 C 834.555 826.017 819.364 840.545 804.817 852.412 z" fill="rgb(211,169,17)" transform="translate(0,0)"></path>
<path d="M 545.044 1036.85 C 563.094 1043.24 562.629 1058.64 568.412 1075.72 C 595.228 1154.9 647.002 1228.21 711.178 1281.66 C 722.448 1291.04 750.529 1308.81 724.049 1321.28 C 709.654 1320.14 696.5 1305.59 686.16 1296.66 C 618.487 1238.2 566.009 1161.8 539.259 1076.24 C 536.507 1067.43 532.952 1057.06 534.096 1047.87 C 534.742 1042.87 541.138 1039.38 545.044 1036.85 z" fill="rgb(211,169,17)" transform="translate(0,0)"></path>
<path d="M 795.085 1352.84 C 802.368 1352.86 809.43 1357.14 815.333 1360.94 C 842.51 1378.45 871.241 1390.22 903.255 1395.43 C 918.816 1397.97 920.786 1415.38 907.352 1421.96 C 905.802 1422.04 904.25 1422.06 902.699 1422.03 C 867.916 1421.63 817.454 1399.25 790.366 1376.84 C 781.508 1369.51 786.346 1358.47 795.085 1352.84 z" fill="rgb(211,169,17)" transform="translate(0,0)"></path>
<path d="M 1759.32 442.489 C 1770.97 455.508 1783.51 469.073 1794.46 482.582 C 1782.64 493.374 1769.35 503.713 1756.99 514.105 C 1729.57 537.386 1701.99 560.464 1674.23 583.339 C 1642.29 610.063 1605.36 643.622 1572.88 668.461 C 1575.65 676.571 1578.34 690.993 1579.86 699.714 C 1590.64 761.111 1582.03 824.34 1555.23 880.622 C 1534.64 922.859 1514.21 944.589 1483.45 978.917 C 1468.12 996.023 1453.86 1013.72 1437.44 1030.07 C 1412.49 1054.96 1386.41 1079.09 1365.77 1107.86 C 1359.39 1116.75 1349.59 1130.99 1345.33 1141.03 C 1332.6 1171.07 1322.98 1198.55 1285.03 1201.6 C 1282.56 1200.8 1283.68 1201.4 1281.67 1199.83 C 1280.8 1189.37 1287.22 1169.75 1290.54 1159.23 C 1307.39 1105.91 1340.25 1059.09 1378.35 1018.77 C 1404.57 991.014 1435.25 962.735 1459.54 933.416 C 1482.96 905.398 1501.96 873.958 1515.86 840.189 C 1539.47 781.636 1535.29 701.095 1514.62 641.496 C 1510.91 630.807 1504.65 620.661 1508.5 609.031 C 1513.05 595.313 1530.45 593.508 1540.66 601.785 C 1546.58 606.535 1547.66 610.899 1550.28 617.636 C 1572.62 600.47 1595.63 580.142 1617.43 561.872 L 1759.32 442.489 z" fill="rgb(209,143,107)" transform="translate(0,0)"></path>
<path d="M 802.097 1110.1 C 816.062 1105.73 843.202 1103.59 856.828 1093.91 C 869.483 1084.91 885.695 1068.73 898.145 1057.91 C 960.577 1003.67 1021.33 947.753 1082.95 892.592 C 1099.51 878.554 1114.96 861.198 1133.38 849.763 C 1147.4 841.054 1164.98 862.99 1153.92 874.296 C 1142.76 885.719 1130.04 896.404 1118.06 907.047 C 1094.05 928.542 1069.81 949.781 1045.35 970.761 C 1030.87 983.206 1016.51 995.792 1002.27 1008.52 C 994.18 1015.82 982.945 1026.73 974.725 1033.27 C 968.731 1038.64 950.531 1056.15 944.724 1060.38 L 940.933 1058.73 C 927.489 1070.35 913.093 1080.59 899.241 1091.25 C 879.053 1106.78 863.324 1124.95 835.458 1122.41 C 823.252 1121.3 811.832 1118 802.097 1110.1 z" fill="rgb(209,143,107)" transform="translate(0,0)"></path>
<path d="M 940.933 1058.73 C 950.607 1050.2 962.225 1040.75 972.224 1032.49 C 972.579 1032.2 974.636 1033.23 974.725 1033.27 C 968.731 1038.64 950.531 1056.15 944.724 1060.38 L 940.933 1058.73 z" fill="rgb(211,169,17)" transform="translate(0,0)"></path>
<path d="M 766.769 958.587 C 794.447 955.819 823.14 957.687 844.653 937.039 C 854.054 928.016 864.031 919.061 873.775 910.396 L 994.438 803.142 C 1012.71 786.92 1030.64 770.212 1049.33 754.495 C 1056.18 748.73 1064.71 748.683 1070.97 755.293 C 1074.99 759.568 1076.99 765.355 1076.48 771.199 C 1076.23 773.812 1074.88 776.284 1072.98 778.012 C 1053.96 795.439 1033.98 811.779 1014.58 828.773 C 1000.52 841.085 986.845 853.834 972.685 866.031 C 962.11 875.14 951.868 884.701 940.996 893.456 C 937.332 897.089 915.756 917.765 912.747 919.027 C 912.242 915.811 909.295 919.485 906.038 920.833 C 895.472 929.676 884.951 938.575 874.476 947.527 C 855.269 963.862 836.275 982.387 808.908 979.485 C 793.034 977.802 776.869 971.364 766.769 958.587 z" fill="rgb(209,143,107)" transform="translate(0,0)"></path>
<path d="M 906.038 920.833 C 912.571 912.714 928.734 902.582 935.6 893.63 C 935.548 893.698 938.082 891.908 938.357 891.712 C 939.161 891.801 939.476 892.222 940.049 892.782 L 940.996 893.456 C 937.332 897.089 915.756 917.765 912.747 919.027 C 912.242 915.811 909.295 919.485 906.038 920.833 z" fill="rgb(213,151,71)" transform="translate(0,0)"></path>
<path d="M 784.734 800.689 C 801.267 799.738 831.408 797.368 844.195 786.085 C 858.339 773.604 872.491 760.238 886.684 747.672 L 966.911 677.778 C 976.5 669.354 987.433 656.902 998.62 651.758 C 1012.68 645.293 1022.06 661.621 1012.87 671.659 C 1000.9 684.719 985.384 696.711 971.8 708.402 C 940.65 735.593 909.26 762.506 877.633 789.14 C 870.812 794.882 854.887 809.456 848.989 813.416 C 846.113 813.074 831.294 817.24 822.668 816.789 C 806.72 815.955 796.231 812.286 784.734 800.689 z" fill="rgb(209,143,107)" transform="translate(0,0)"></path>
<path d="M 758.46 894.768 C 750.31 918.056 750.728 938.575 766.769 958.587 C 776.869 971.364 793.034 977.802 808.908 979.485 C 836.275 982.387 855.269 963.862 874.476 947.527 C 884.951 938.575 895.472 929.676 906.038 920.833 C 909.295 919.485 912.242 915.811 912.747 919.027 C 885.973 943.209 858.898 967.055 831.529 990.56 C 826.419 995.015 805.723 1014.13 802.093 1016.44 C 740.354 1006.31 709.022 938.082 758.46 894.768 z" fill="rgb(211,169,17)" transform="translate(0,0)"></path>
<path d="M 1347.42 1220.5 C 1350.18 1254.58 1362.43 1288.05 1389.12 1310.18 C 1412.02 1329.17 1434.05 1333.51 1462.42 1339.18 L 1447.1 1342.73 C 1502.68 1344.55 1558.55 1343.12 1614.06 1343.6 C 1636.99 1343.79 1684.53 1341.74 1704.74 1346.74 C 1724.45 1351.83 1742.25 1362.54 1755.97 1377.58 C 1775.85 1398.99 1790.53 1434.88 1784.1 1464.23 C 1781.84 1490.51 1769.24 1514.82 1749.07 1531.82 C 1742.96 1536.98 1739.2 1539.28 1732.42 1542.84 C 1728.1 1545.1 1706.79 1552.79 1705.22 1554.16 C 1702.05 1578.23 1699.31 1590.69 1687.37 1612.35 C 1677.42 1627.54 1667.38 1638.83 1652.11 1649.11 C 1634.18 1661.24 1613.37 1668.41 1591.78 1669.9 C 1569.17 1671.4 1533.56 1670.28 1510.11 1670.32 L 1337.55 1670.09 L 844.952 1670.06 L 527.198 1670.12 L 443.885 1670.41 C 413.317 1670.53 386.583 1673.16 357.851 1660.8 C 330.995 1649.26 317.596 1635.87 301.576 1612.05 C 290.06 1594.58 285.652 1575.76 283.618 1555.22 C 236.043 1544.2 207.873 1505.78 201.562 1458.98 C 192.949 1415.26 237.774 1356.87 280.409 1349.07 C 313.643 1343 354.853 1345.17 389.197 1345.16 L 545.776 1345.01 C 567.636 1365.98 587.627 1384.87 611.197 1404.09 C 658.525 1442.68 707.481 1473.8 758.778 1506.7 C 786.952 1524.54 818.268 1543.29 849.624 1554.48 C 851.051 1554.99 850.823 1554.99 852.338 1555.98 C 858.478 1556.77 878.53 1557.02 884.766 1556.03 C 886.995 1554.33 893.947 1551.05 896.81 1549.68 C 919.396 1538.87 933.596 1521.69 952.275 1505.92 C 982.402 1474.21 1027.68 1425.27 1053.2 1389.39 L 1055.07 1387.63 C 1058.67 1381.87 1086.85 1346.68 1087.11 1344.74 C 1086.36 1344.09 1085.12 1343.91 1084.21 1343.67 C 1087.72 1342.74 1128.5 1343.63 1135.08 1343.52 C 1151.95 1320.42 1155.47 1301.47 1161.03 1274.43 C 1166.67 1303.01 1170.78 1317.61 1186.05 1342.8 C 1205.27 1343.03 1224.48 1343 1243.69 1342.71 L 1237.25 1340.79 L 1236.82 1339.73 C 1246.23 1335.63 1258.84 1333.98 1268.9 1330.69 C 1324.2 1312.59 1336.36 1271.71 1347.42 1220.5 z" fill="rgb(55,122,176)" transform="translate(0,0)"></path>
<path d="M 1347.42 1220.5 C 1350.18 1254.58 1362.43 1288.05 1389.12 1310.18 C 1412.02 1329.17 1434.05 1333.51 1462.42 1339.18 L 1447.1 1342.73 C 1502.68 1344.55 1558.55 1343.12 1614.06 1343.6 C 1636.99 1343.79 1684.53 1341.74 1704.74 1346.74 C 1724.45 1351.83 1742.25 1362.54 1755.97 1377.58 C 1775.85 1398.99 1790.53 1434.88 1784.1 1464.23 C 1781.84 1490.51 1769.24 1514.82 1749.07 1531.82 C 1742.96 1536.98 1739.2 1539.28 1732.42 1542.84 C 1728.1 1545.1 1706.79 1552.79 1705.22 1554.16 C 1696.68 1555.92 1668.37 1555.81 1659.05 1555.84 L 1577.16 1555.78 L 1271.9 1554.96 C 1270.79 1559.72 1269.4 1564.5 1269.37 1569.34 L 1266.89 1568.07 C 1267.08 1563.29 1265.9 1559.84 1264.75 1555.19 C 1256.61 1531.69 1246.63 1514.31 1221.47 1506.23 C 1213.41 1510.08 1117.57 1506.54 1101.69 1506.37 C 1052.55 1505.84 1001.46 1506.58 952.275 1505.92 C 982.402 1474.21 1027.68 1425.27 1053.2 1389.39 L 1055.07 1387.63 C 1058.67 1381.87 1086.85 1346.68 1087.11 1344.74 C 1086.36 1344.09 1085.12 1343.91 1084.21 1343.67 C 1087.72 1342.74 1128.5 1343.63 1135.08 1343.52 C 1151.95 1320.42 1155.47 1301.47 1161.03 1274.43 C 1166.67 1303.01 1170.78 1317.61 1186.05 1342.8 C 1205.27 1343.03 1224.48 1343 1243.69 1342.71 L 1237.25 1340.79 L 1236.82 1339.73 C 1246.23 1335.63 1258.84 1333.98 1268.9 1330.69 C 1324.2 1312.59 1336.36 1271.71 1347.42 1220.5 z" fill="rgb(160,181,206)" transform="translate(0,0)"></path>
<path d="M 1324.94 1503.95 C 1336.84 1503.6 1350.29 1505.76 1362.74 1505.81 C 1434.22 1506.13 1505.71 1506.02 1577.2 1505.93 L 1655.88 1505.45 C 1669.8 1505.34 1689.88 1505.69 1703.42 1504.45 C 1711.94 1503.71 1720.32 1501.8 1728.31 1498.77 C 1745.56 1492.46 1760.94 1481.92 1773.05 1468.12 C 1776.5 1464.24 1780.38 1458.02 1783.57 1455.5 C 1784.32 1457.15 1784.09 1462.07 1784.1 1464.23 C 1781.84 1490.51 1769.24 1514.82 1749.07 1531.82 C 1742.96 1536.98 1739.2 1539.28 1732.42 1542.84 C 1728.1 1545.1 1706.79 1552.79 1705.22 1554.16 C 1696.68 1555.92 1668.37 1555.81 1659.05 1555.84 L 1577.16 1555.78 L 1271.9 1554.96 C 1280.2 1528.46 1296.63 1509.22 1324.94 1503.95 z" fill="rgb(120,157,196)" transform="translate(0,0)"></path>
<path d="M 1135.08 1343.52 C 1151.95 1320.42 1155.47 1301.47 1161.03 1274.43 C 1166.67 1303.01 1170.78 1317.61 1186.05 1342.8 C 1209.87 1373.55 1235.95 1381.68 1273.29 1389.09 C 1242.18 1392.93 1207.72 1406.88 1188.3 1432.37 C 1169.91 1456.51 1166.07 1479.28 1161.23 1508.22 C 1149.57 1436.63 1127.59 1403.48 1053.2 1389.39 L 1055.07 1387.63 C 1058.67 1381.87 1086.85 1346.68 1087.11 1344.74 C 1086.36 1344.09 1085.12 1343.91 1084.21 1343.67 C 1087.72 1342.74 1128.5 1343.63 1135.08 1343.52 z" fill="rgb(254,210,37)" transform="translate(0,0)"></path>
<path d="M 1084.21 1343.67 C 1087.72 1342.74 1128.5 1343.63 1135.08 1343.52 C 1118.26 1368.68 1084.3 1383.53 1055.07 1387.63 C 1058.67 1381.87 1086.85 1346.68 1087.11 1344.74 C 1086.36 1344.09 1085.12 1343.91 1084.21 1343.67 z" fill="rgb(160,181,206)" transform="translate(0,0)"></path>
<path d="M 1347.42 1220.5 C 1350.18 1254.58 1362.43 1288.05 1389.12 1310.18 C 1412.02 1329.17 1434.05 1333.51 1462.42 1339.18 L 1447.1 1342.73 C 1427.43 1344.76 1408.67 1352.12 1392.87 1364.02 C 1364.2 1385.83 1352.85 1420.45 1348.19 1454.91 C 1339.74 1424.85 1336.9 1400.16 1314.32 1375.16 C 1296.83 1355.81 1269.55 1344.02 1243.69 1342.71 L 1237.25 1340.79 L 1236.82 1339.73 C 1246.23 1335.63 1258.84 1333.98 1268.9 1330.69 C 1324.2 1312.59 1336.36 1271.71 1347.42 1220.5 z" fill="rgb(254,210,37)" transform="translate(0,0)"></path>
<path d="M 1196.5 1501.32 C 1243.27 1493.63 1261.1 1472.29 1267.91 1426.67 C 1277.92 1475.3 1287.49 1486.47 1335.74 1500.44 C 1333.25 1501.63 1331.3 1501.99 1328.69 1503.02 L 1324.94 1503.95 C 1296.63 1509.22 1280.2 1528.46 1271.9 1554.96 C 1270.79 1559.72 1269.4 1564.5 1269.37 1569.34 L 1266.89 1568.07 C 1267.08 1563.29 1265.9 1559.84 1264.75 1555.19 C 1256.61 1531.69 1246.63 1514.31 1221.47 1506.23 C 1213.51 1502.87 1205.03 1502.29 1196.5 1501.32 z" fill="rgb(254,210,37)" transform="translate(0,0)"></path>
<path d="M 1335.74 1500.44 C 1337.11 1500.71 1338.49 1500.81 1339.48 1501.87 C 1339.62 1503.25 1336.8 1503.16 1336.01 1503.16 C 1333.57 1503.13 1331.13 1503.08 1328.69 1503.02 C 1331.3 1501.99 1333.25 1501.63 1335.74 1500.44 z" fill="rgb(228,171,136)" transform="translate(0,0)"></path>
<path d="M 201.562 1458.98 C 192.949 1415.26 237.774 1356.87 280.409 1349.07 C 313.643 1343 354.853 1345.17 389.197 1345.16 L 545.776 1345.01 C 567.636 1365.98 587.627 1384.87 611.197 1404.09 C 658.525 1442.68 707.481 1473.8 758.778 1506.7 C 786.952 1524.54 818.268 1543.29 849.624 1554.48 C 851.051 1554.99 850.823 1554.99 852.338 1555.98 C 735.605 1557.28 616.025 1556.03 499.112 1556.04 L 364.987 1556.04 C 339.366 1556.02 308.857 1556.71 283.618 1555.22 C 236.043 1544.2 207.873 1505.78 201.562 1458.98 z" fill="rgb(160,181,206)" transform="translate(0,0)"></path>
<path d="M 201.562 1458.98 L 203.077 1460.01 C 208.256 1463.57 216.799 1471.7 221.61 1476.09 C 256.657 1508.07 285.509 1508.15 330.236 1508.16 L 392.924 1508.13 L 642.076 1507.99 L 723.299 1507.78 C 729.03 1507.76 755.545 1508.22 758.778 1506.7 C 786.952 1524.54 818.268 1543.29 849.624 1554.48 C 851.051 1554.99 850.823 1554.99 852.338 1555.98 C 735.605 1557.28 616.025 1556.03 499.112 1556.04 L 364.987 1556.04 C 339.366 1556.02 308.857 1556.71 283.618 1555.22 C 236.043 1544.2 207.873 1505.78 201.562 1458.98 z" fill="rgb(120,157,196)" transform="translate(0,0)"></path>
<path d="M 301.576 1612.05 C 333.366 1613.35 369.55 1612.75 401.593 1612.83 L 594.724 1612.8 L 1149.76 1612.85 L 1521.2 1612.32 L 1629.69 1612.39 C 1645.34 1612.47 1673.14 1613.62 1687.37 1612.35 C 1677.42 1627.54 1667.38 1638.83 1652.11 1649.11 C 1634.18 1661.24 1613.37 1668.41 1591.78 1669.9 C 1569.17 1671.4 1533.56 1670.28 1510.11 1670.32 L 1337.55 1670.09 L 844.952 1670.06 L 527.198 1670.12 L 443.885 1670.41 C 413.317 1670.53 386.583 1673.16 357.851 1660.8 C 330.995 1649.26 317.596 1635.87 301.576 1612.05 z" fill="rgb(85,148,195)" transform="translate(0,0)"></path>
<path d="M 952.275 1505.92 C 1001.46 1506.58 1052.55 1505.84 1101.69 1506.37 C 1117.57 1506.54 1213.41 1510.08 1221.47 1506.23 C 1246.63 1514.31 1256.61 1531.69 1264.75 1555.19 L 884.766 1556.03 C 886.995 1554.33 893.947 1551.05 896.81 1549.68 C 919.396 1538.87 933.596 1521.69 952.275 1505.92 z" fill="rgb(120,157,196)" transform="translate(0,0)"></path>
<path d="M 1266.89 1568.07 L 1269.37 1569.34 C 1268.72 1574.38 1267.36 1575.27 1267.04 1570.03 L 1266.89 1568.07 z" fill="rgb(160,181,206)" transform="translate(0,0)"></path>
<metadata><recraft-signature>{"signed_by": "recraft", "signature_b64": "a7csWjHqBjVD5WBOGr1Dm87zUEvBj55WcUhwjI3Vr84vzMnSF7hHBE4x6ghgRyyN4NvQFJZ1mMbSQg5UINpcAg==", "signing_algo": "Ed25519", "generation_timestamp": 1779006513, "identifier": "145c053e-1aa2-4781-a319-3aecae44b797"}</recraft-signature></metadata></svg>