<svg xmlns="http://www.w3.org/2000/svg" height="1024" preserveAspectRatio="none" style="display: block;" version="1.1" viewBox="0 0 2048 2048" width="1024">
<path d="M 0 0 L 2048 0 L 2048 2048 L 0 2048 L 0 0 z" fill="rgb(255,255,255)" transform="translate(0,0)"></path>
<path d="M 348.978 829.233 C 337.213 827.459 326.364 821.745 324.113 809.459 C 321.438 794.857 322.999 775.237 323.042 760.189 L 322.932 682.016 L 322.864 524.15 C 322.855 494.732 321.366 459.91 324.673 431.107 C 332.359 364.162 384.491 302.859 449.458 284.812 C 484.693 275.024 523.751 277.794 560.468 277.844 L 663.941 278 L 974.077 277.985 L 1173.62 277.896 C 1208.09 277.826 1248.61 275.96 1282.3 278.491 C 1352.63 283.773 1417.45 341.371 1433.74 409.594 C 1438.88 431.129 1445.14 466.98 1435.45 487.886 C 1432.38 494.501 1424.95 498.049 1418.3 499.602 L 1417.06 499.882 C 1415.38 545.549 1418.02 592.264 1416.19 638.058 C 1416.13 639.452 1416.69 640.611 1417.3 641.808 C 1456.43 597.244 1502.88 570.15 1563 566.35 C 1617.34 562.619 1670.89 580.945 1711.55 617.186 C 1752.88 653.187 1778.04 704.269 1781.38 758.98 C 1784.7 816.523 1766.89 868.959 1728.28 911.901 C 1691.72 952.665 1640.45 977.213 1585.77 980.134 C 1559.7 981.285 1531.66 976.859 1506.88 968.683 C 1467.84 982.346 1429.43 997.417 1390.59 1011.59 C 1379.12 1015.77 1371.7 1017.91 1361.86 1025.4 L 1361.02 1027.59 C 1411.28 1043.74 1459.27 1061.47 1510.03 1077.01 C 1573.89 1061.51 1626.88 1062.56 1685.04 1098.16 C 1731.79 1127.31 1765.22 1173.65 1778.13 1227.21 C 1791.28 1282.58 1781.5 1340.91 1751 1388.96 C 1722.76 1433.99 1677.86 1466.03 1626.1 1478.1 C 1545.68 1496.06 1470.35 1469.92 1418.3 1406.2 C 1414.34 1411.21 1417.11 1476.43 1416.59 1489.49 C 1416.41 1494 1416.09 1536.63 1416.89 1539.43 C 1450.94 1547.36 1438.93 1600.05 1431.92 1624.14 C 1417.48 1674.18 1383.53 1716.32 1337.7 1741.08 C 1313.05 1754.4 1288.22 1762.29 1275.13 1730.07 L 1274.2 1723.42 C 1266.38 1722.65 1216.15 1721.78 1212.46 1724.67 C 1212.89 1726.71 1213.21 1728.76 1213.44 1730.83 C 1215.27 1748.62 1204.19 1761.57 1186.17 1761.73 C 1169.16 1761.88 1152.14 1761.3 1135.12 1761.15 L 1047.35 1761.1 L 744.83 1761.14 L 569.029 1761.07 C 538.157 1761.06 497.674 1763.19 467.925 1758.47 C 388.189 1745.83 323.402 1672.24 323.139 1590.99 C 322.98 1541.99 322.723 1492.33 322.771 1443.01 L 322.876 1188.36 L 322.962 1012.46 C 322.944 981.296 322.569 950.065 323.324 918.924 C 323.763 900.793 331.517 890.903 350.279 890.97 C 351.901 883.769 349.989 838.002 348.978 829.233 z" fill="rgb(234,228,217)" transform="translate(0,0)"></path>
<path d="M 1417.3 641.808 C 1456.43 597.244 1502.88 570.15 1563 566.35 C 1617.34 562.619 1670.89 580.945 1711.55 617.186 C 1752.88 653.187 1778.04 704.269 1781.38 758.98 C 1784.7 816.523 1766.89 868.959 1728.28 911.901 C 1691.72 952.665 1640.45 977.213 1585.77 980.134 C 1559.7 981.285 1531.66 976.859 1506.88 968.683 C 1467.84 982.346 1429.43 997.417 1390.59 1011.59 C 1379.12 1015.77 1371.7 1017.91 1361.86 1025.4 C 1359.46 1023.87 1348.77 1018.81 1345.13 1016.85 L 1298.36 991.765 L 1166.7 920.148 C 1193.19 912.465 1221.55 900.25 1247.91 891.195 C 1293.64 875.487 1339.6 859.337 1384.75 842.046 C 1378.96 827.922 1374.97 813.126 1372.88 798.007 C 1364.1 737.265 1381.6 689.852 1417.3 641.808 z" fill="rgb(203,100,52)" transform="translate(0,0)"></path>
<path d="M 1569.48 670.691 C 1624.29 667.679 1671.18 709.655 1674.22 764.465 C 1677.26 819.275 1635.31 866.179 1580.5 869.249 C 1525.65 872.321 1478.7 830.332 1475.66 775.481 C 1472.62 720.631 1514.63 673.706 1569.48 670.691 z" fill="rgb(255,255,255)" transform="translate(0,0)"></path>
<path d="M 1361.02 1027.59 C 1411.28 1043.74 1459.27 1061.47 1510.03 1077.01 C 1573.89 1061.51 1626.88 1062.56 1685.04 1098.16 C 1731.79 1127.31 1765.22 1173.65 1778.13 1227.21 C 1791.28 1282.58 1781.5 1340.91 1751 1388.96 C 1722.76 1433.99 1677.86 1466.03 1626.1 1478.1 C 1545.68 1496.06 1470.35 1469.92 1418.3 1406.2 C 1367.63 1342.49 1362.49 1274.62 1392.77 1200.56 C 1342.56 1183.96 1291.27 1164.72 1241.79 1145.94 C 1228.33 1140.84 1184.41 1125.61 1175.5 1119.23 C 1176.2 1117.12 1179.44 1115.9 1181.96 1114.38 C 1185.81 1113.26 1216.59 1097.55 1221.81 1095.01 C 1251.37 1080.74 1280.85 1066.31 1310.25 1051.72 C 1324.41 1044.77 1346.8 1033.01 1361.02 1027.59 z" fill="rgb(203,100,52)" transform="translate(0,0)"></path>
<path d="M 1562.48 1177.73 C 1616.47 1169.97 1666.58 1207.32 1674.56 1261.27 C 1682.55 1315.23 1645.41 1365.5 1591.48 1373.7 C 1537.24 1381.96 1486.63 1344.55 1478.59 1290.28 C 1470.56 1236.01 1508.17 1185.54 1562.48 1177.73 z" fill="rgb(255,255,255)" transform="translate(0,0)"></path>
<path d="M 1165.67 920.27 L 1166.7 920.148 L 1298.36 991.765 L 1345.13 1016.85 C 1348.77 1018.81 1359.46 1023.87 1361.86 1025.4 L 1361.02 1027.59 C 1346.8 1033.01 1324.41 1044.77 1310.25 1051.72 C 1280.85 1066.31 1251.37 1080.74 1221.81 1095.01 C 1216.59 1097.55 1185.81 1113.26 1181.96 1114.38 C 1172.23 1113.7 1116.02 1135.05 1103.36 1139.3 L 798.817 1243.25 L 708.851 1274.43 C 694.64 1279.23 678.849 1285.15 664.331 1288.48 C 602.973 1302.59 537.349 1264.29 504.405 1214.47 C 594.672 1177.5 689.192 1132.36 778.942 1092.66 L 887.307 1044.59 C 902.139 1038.04 932.863 1025.44 946.049 1017.81 C 948.972 1017.91 1084.6 957.086 1098.21 951.039 L 1141.42 931.816 C 1147.51 929.103 1160.68 923.638 1165.67 920.27 z" fill="rgb(199,197,187)" transform="translate(0,0)"></path>
<path d="M 348.978 829.233 C 337.213 827.459 326.364 821.745 324.113 809.459 C 321.438 794.857 322.999 775.237 323.042 760.189 L 322.932 682.016 L 322.864 524.15 C 322.855 494.732 321.366 459.91 324.673 431.107 C 332.359 364.162 384.491 302.859 449.458 284.812 C 484.693 275.024 523.751 277.794 560.468 277.844 L 663.941 278 L 974.077 277.985 L 1173.62 277.896 C 1208.09 277.826 1248.61 275.96 1282.3 278.491 C 1352.63 283.773 1417.45 341.371 1433.74 409.594 C 1438.88 431.129 1445.14 466.98 1435.45 487.886 C 1432.38 494.501 1424.95 498.049 1418.3 499.602 L 1417.06 499.882 C 1393.36 496.978 1387.82 485.461 1388.99 462.982 C 1392.45 396.887 1344.95 341.644 1280 332.067 C 1266.8 330.121 1249.6 330.85 1235.44 330.885 L 1162.67 331.131 L 915.638 331.628 L 624.271 331.041 L 537.747 330.895 C 494.147 330.807 461.267 328.065 424.02 355.952 C 398.402 375.246 381.428 403.865 376.781 435.597 C 373.559 458.918 375.149 514.846 375.224 540.005 L 375.245 730.996 L 375.175 777.809 C 375.158 803.546 380.1 823.582 348.978 829.233 z" fill="rgb(61,80,96)" transform="translate(0,0)"></path>
<path d="M 350.279 890.97 C 366.395 894.355 373.726 900.623 374.436 918.445 C 375.234 938.502 374.904 958.796 374.939 978.884 L 375.079 1091.61 L 375.18 1443.64 L 375.005 1543.45 C 374.979 1559.31 374.19 1586 375.897 1601.08 C 377.047 1610.66 379.285 1620.07 382.566 1629.14 C 396.933 1668.18 430.135 1697.26 470.731 1706.36 C 487.808 1710.34 515.306 1709.07 533.661 1709.08 L 613.891 1709.19 L 1026.94 1709.32 L 1142.06 1709.05 C 1159.77 1709.01 1177.93 1708.45 1195.55 1709.67 C 1204.33 1710.29 1209.25 1717.4 1212.46 1724.67 C 1212.89 1726.71 1213.21 1728.76 1213.44 1730.83 C 1215.27 1748.62 1204.19 1761.57 1186.17 1761.73 C 1169.16 1761.88 1152.14 1761.3 1135.12 1761.15 L 1047.35 1761.1 L 744.83 1761.14 L 569.029 1761.07 C 538.157 1761.06 497.674 1763.19 467.925 1758.47 C 388.189 1745.83 323.402 1672.24 323.139 1590.99 C 322.98 1541.99 322.723 1492.33 322.771 1443.01 L 322.876 1188.36 L 322.962 1012.46 C 322.944 981.296 322.569 950.065 323.324 918.924 C 323.763 900.793 331.517 890.903 350.279 890.97 z" fill="rgb(61,80,96)" transform="translate(0,0)"></path>
<path d="M 506.122 815.323 C 536.306 766.766 604.775 733.941 661.549 739.18 C 683.81 741.234 713.98 754.674 735.567 762.559 L 831.359 797.546 L 1165.67 920.27 C 1160.68 923.638 1147.51 929.103 1141.42 931.816 L 1098.21 951.039 C 1084.6 957.086 948.972 1017.91 946.049 1017.81 C 907.888 999.446 867.781 982.446 829.179 964.72 L 506.122 815.323 z" fill="rgb(177,177,168)" transform="translate(0,0)"></path>
<path d="M 1416.89 1539.43 C 1450.94 1547.36 1438.93 1600.05 1431.92 1624.14 C 1417.48 1674.18 1383.53 1716.32 1337.7 1741.08 C 1313.05 1754.4 1288.22 1762.29 1275.13 1730.07 C 1277.88 1702.68 1286.71 1703.9 1309.95 1694.97 C 1322.02 1690.23 1333.26 1683.61 1343.26 1675.36 C 1368.57 1654.89 1385.66 1624.39 1388.91 1592.07 C 1391.3 1568.31 1384.14 1543.8 1416.89 1539.43 z" fill="rgb(61,80,96)" transform="translate(0,0)"></path>
<path d="M 562.734 899.248 C 577.533 897.429 591.016 907.922 592.886 922.716 C 594.755 937.509 584.306 951.027 569.519 952.946 C 554.662 954.873 541.066 944.364 539.188 929.501 C 537.31 914.638 547.864 901.077 562.734 899.248 z" fill="rgb(61,80,96)" transform="translate(0,0)"></path>
<path d="M 1062.64 1287.2 C 1088.41 1286.28 1098.82 1312.38 1087 1331.5 C 1083.66 1336.93 1078.24 1340.76 1072.01 1342.11 L 1068.27 1342.84 C 1032.46 1341.46 1029.1 1295.93 1062.64 1287.2 z" fill="rgb(61,80,96)" transform="translate(0,0)"></path>
<path d="M 751.407 1003.12 C 765.862 999.934 780.187 1008.99 783.51 1023.41 C 786.833 1037.84 777.914 1052.24 763.521 1055.7 C 748.937 1059.21 734.296 1050.14 730.928 1035.53 C 727.561 1020.91 736.76 1006.35 751.407 1003.12 z" fill="rgb(61,80,96)" transform="translate(0,0)"></path>
<path d="M 1123.49 1379.12 C 1160.12 1377.81 1166.53 1420.31 1136.15 1434.31 C 1099.59 1438.69 1091.39 1388.56 1123.49 1379.12 z" fill="rgb(61,80,96)" transform="translate(0,0)"></path>
<path d="M 1210.7 1594.28 C 1225.38 1591.83 1239.26 1601.77 1241.67 1616.46 C 1244.07 1631.15 1234.09 1645 1219.4 1647.36 C 1204.77 1649.71 1190.99 1639.78 1188.59 1625.16 C 1186.19 1610.53 1196.08 1596.72 1210.7 1594.28 z" fill="rgb(61,80,96)" transform="translate(0,0)"></path>
<path d="M 452.93 866.227 C 467.379 862.604 482.014 871.446 485.528 885.922 C 489.043 900.399 480.09 914.966 465.588 918.371 C 451.239 921.739 436.86 912.903 433.383 898.581 C 429.906 884.258 438.634 869.812 452.93 866.227 z" fill="rgb(61,80,96)" transform="translate(0,0)"></path>
<path d="M 982.26 1205.11 C 1007.36 1203.65 1023.12 1219.26 1013.39 1245.32 C 1010.73 1252.44 1003.71 1254.1 997.038 1256.11 C 983.534 1256.95 969.46 1254.05 963.8 1240.02 C 961.125 1233.37 961.364 1225.9 964.458 1219.43 C 968.124 1211.84 974.733 1207.94 982.26 1205.11 z" fill="rgb(61,80,96)" transform="translate(0,0)"></path>
<path d="M 1175.29 1484.18 C 1198.87 1483 1213.31 1502.64 1204.46 1523.75 C 1201.92 1529.78 1197.07 1534.54 1191 1536.98 C 1189.92 1537.43 1188.84 1537.88 1187.76 1538.33 C 1154.68 1543 1140.82 1496.36 1175.29 1484.18 z" fill="rgb(61,80,96)" transform="translate(0,0)"></path>
<path d="M 660.41 945.332 C 674.007 941.188 688.42 948.69 692.824 962.205 C 697.228 975.72 690.002 990.274 676.574 994.936 C 667.656 998.032 657.761 996.069 650.7 989.803 C 643.639 983.537 640.514 973.946 642.528 964.723 C 644.542 955.5 651.38 948.084 660.41 945.332 z" fill="rgb(61,80,96)" transform="translate(0,0)"></path>
<path d="M 1232.02 1652.59 C 1232.69 1652.65 1236.95 1652.79 1237.45 1653.31 C 1243.66 1659.77 1244.79 1672.21 1246.92 1680.52 C 1247.84 1684.13 1246.3 1685.26 1244.45 1687.67 C 1238.14 1686.51 1236.34 1682.81 1234.45 1676.07 C 1231.37 1665.1 1225.32 1661.94 1232.02 1652.59 z" fill="rgb(199,197,187)" transform="translate(0,0)"></path>
<path d="M 1088.77 1341.36 C 1091.63 1342.63 1092.94 1345.18 1095.1 1347.98 L 1104.24 1359.84 C 1109.53 1366.66 1114.11 1368.93 1109.32 1375.29 C 1101.32 1375.34 1101.44 1374.31 1096.77 1367.09 C 1087.65 1353 1080.34 1355.48 1088.77 1341.36 z" fill="rgb(199,197,187)" transform="translate(0,0)"></path>
<path d="M 496.226 901.372 C 501.397 901.949 512.699 904.165 517.49 906.043 C 525.12 909.033 535.609 906.723 529.592 915.194 L 528.468 916.829 C 527.596 917.392 523.925 920.043 522.93 919.79 C 514.025 917.44 503.748 914.443 496.639 908.376 C 495.349 907.275 496.131 902.882 496.226 901.372 z" fill="rgb(199,197,187)" transform="translate(0,0)"></path>
<path d="M 1147.06 1438.61 C 1154.55 1438.99 1155.86 1442.1 1158.16 1449.94 C 1160.75 1458.81 1169.2 1465.64 1163.54 1472.15 C 1162.9 1472.14 1158.04 1472.34 1157.56 1471.54 C 1152.68 1463.48 1147.24 1453.94 1144.01 1445.05 C 1143.2 1442.82 1145.97 1440.1 1147.06 1438.61 z" fill="rgb(199,197,187)" transform="translate(0,0)"></path>
<path d="M 1202.33 1546.82 C 1207.7 1549.28 1207.92 1561.24 1209.85 1567.49 C 1213.21 1578.43 1213.45 1577.6 1204.53 1582.2 C 1200.16 1576 1198.38 1563.48 1195.52 1556.3 C 1192.36 1548.39 1194.75 1549.22 1202.33 1546.82 z" fill="rgb(199,197,187)" transform="translate(0,0)"></path>
<path d="M 604.274 940.545 C 613.16 940.954 625.043 947.79 633.946 951.288 C 632.244 954.864 631.08 958.143 629.386 961.623 C 626.341 960.454 617.545 956.871 615.004 955.211 C 607.142 950.074 594.302 950.98 602.97 941.936 L 604.274 940.545 z" fill="rgb(199,197,187)" transform="translate(0,0)"></path>
<path d="M 1019.15 1258.68 C 1023.43 1260.45 1028.94 1267.53 1031.78 1271.2 C 1038.65 1280.05 1040.31 1280.13 1032.83 1287.44 C 1027.74 1285.42 1021.12 1275.05 1016.85 1270.58 C 1009.72 1263.1 1013.01 1262.64 1019.15 1258.68 z" fill="rgb(199,197,187)" transform="translate(0,0)"></path>
<path d="M 423.625 889.472 C 431.742 886.911 425.233 896.799 423.837 899.912 C 416.245 900.107 408.373 900.005 400.75 900.026 C 394.542 899.933 395.392 897.382 397.372 892.294 C 398.072 890.494 420.603 889.733 423.625 889.472 z" fill="rgb(199,197,187)" transform="translate(0,0)"></path>
<metadata><recraft-signature>{"signed_by": "recraft", "signature_b64": "WhE/dE7fCUdb1BkVFT6HpRY/NtTsREaW7mhJY/CzBtCWVzVPZWZvrLfmhfxbqsDldVeAtxLMJ5ARkqN4kmMsBw==", "signing_algo": "Ed25519", "generation_timestamp": 1779006408, "identifier": "11b71151-d362-41e8-aab8-ad526bbcbdb5"}</recraft-signature></metadata></svg>