<svg xmlns="http://www.w3.org/2000/svg" height="1024" preserveAspectRatio="none" style="display: block;" version="1.1" viewBox="0 0 2048 2048" width="1024">
<path d="M 0 0 L 2048 0 L 2048 2048 L 0 2048 L 0 0 z" fill="rgb(255,255,255)" transform="translate(0,0)"></path>
<path d="M 896.956 634.879 C 919.575 598.114 941.557 558.694 963.017 521.139 L 1042.47 383.362 C 1055.89 360.156 1069.22 335.383 1083.27 312.76 C 1090.06 319.81 1103.47 326.715 1112.33 331.869 L 1160 359.999 C 1165.99 363.548 1174.33 367.874 1179.69 371.675 L 1180.5 371.656 C 1191.41 377.391 1208.77 389.768 1220.2 393.984 C 1191.12 447.001 1161.48 499.704 1131.27 552.085 C 1114.29 581.948 1095.89 616.703 1077.77 645.407 C 1091.64 646.367 1105.49 647.672 1119.29 649.32 C 1142.26 653.516 1165.74 656.173 1188.71 660.98 C 1247.19 673.219 1309.68 694.552 1358.62 729.676 C 1378.33 743.825 1396.97 762.903 1414.76 779.112 L 1527.04 778.282 C 1583.23 777.516 1630.33 767.537 1673.93 811.149 C 1685.24 822.461 1694.42 835.721 1701.02 850.292 C 1708.25 866.217 1712.74 884.525 1716.31 901.771 C 1732.45 979.536 1732.33 1062.97 1702.54 1137.57 C 1699.61 1144.91 1695.97 1156.91 1691.78 1163.24 C 1678.84 1188.61 1656.47 1207.88 1629.47 1216.91 C 1599.79 1226.87 1514.34 1220.87 1478.11 1221.87 L 1478.95 1223.54 C 1500.45 1229.47 1524.03 1240.28 1535.54 1260.58 L 1659.56 1482.88 C 1668.31 1498.48 1677.69 1515.09 1686.19 1530.79 C 1696.71 1550.24 1718.21 1582.37 1723.88 1602.8 C 1726.32 1649.42 1704.42 1686.76 1653.85 1691.68 C 1636.17 1693.4 1615.27 1692.09 1597.3 1692.03 L 1494.77 1691.91 L 1153.3 1692.05 L 592.415 1691.96 L 410.637 1692.06 C 378.234 1692.1 343.062 1692.82 310.887 1691.98 C 290.256 1691.55 270.688 1682.75 256.676 1667.6 C 238.33 1647.9 236.07 1627.29 237.057 1601.68 C 238.841 1593.49 260.695 1557.49 266.143 1547.82 C 294.658 1496.66 323.66 1445.78 353.143 1395.17 L 406.224 1301.95 C 415.24 1286.09 428.275 1259.19 440.216 1246.36 C 470.464 1213.85 522.621 1223.28 563.337 1222.91 C 567.593 1214.97 597.419 1166.46 596.853 1162.53 C 625.319 1155.84 649.367 1130.59 659.632 1104.11 C 666.53 1086.31 667.05 1070.14 669.472 1051.5 C 670.281 1043.05 671.245 1039.63 675.155 1032.14 C 652.104 995.414 656.854 959.877 691.177 931.822 C 704.885 920.618 717.254 914.757 733.121 907.354 C 737.595 902.804 746.389 898.704 750.072 893.152 C 758.816 879.97 766.705 864.013 774.248 850.032 C 780.955 837.602 790.028 823.584 795.888 811.285 C 830.474 753.376 862.757 692.981 896.956 634.879 z" fill="rgb(246,171,79)" transform="translate(0,0)"></path>
<path d="M 1461.63 1221.52 C 1467.2 1221.41 1472.61 1221.08 1478.11 1221.87 L 1478.95 1223.54 C 1500.45 1229.47 1524.03 1240.28 1535.54 1260.58 L 1659.56 1482.88 C 1668.31 1498.48 1677.69 1515.09 1686.19 1530.79 C 1696.71 1550.24 1718.21 1582.37 1723.88 1602.8 C 1726.32 1649.42 1704.42 1686.76 1653.85 1691.68 C 1636.17 1693.4 1615.27 1692.09 1597.3 1692.03 L 1494.77 1691.91 L 1153.3 1692.05 L 592.415 1691.96 L 410.637 1692.06 C 378.234 1692.1 343.062 1692.82 310.887 1691.98 C 290.256 1691.55 270.688 1682.75 256.676 1667.6 C 238.33 1647.9 236.07 1627.29 237.057 1601.68 C 238.841 1593.49 260.695 1557.49 266.143 1547.82 C 294.658 1496.66 323.66 1445.78 353.143 1395.17 L 406.224 1301.95 C 415.24 1286.09 428.275 1259.19 440.216 1246.36 C 470.464 1213.85 522.621 1223.28 563.337 1222.91 C 559.851 1230.91 558.757 1233.64 556.508 1241.92 L 557.206 1243.68 C 559.286 1248.99 561.009 1257.93 564.671 1262.14 C 582.52 1282.67 620.433 1299.25 643.716 1314.43 L 650.555 1318.7 C 670.579 1331.58 681.93 1326.55 702.689 1323.35 C 711.461 1315.01 717.947 1303 724.349 1292.59 C 742.524 1312.88 767.181 1320.14 793.934 1316.13 C 816.5 1316.69 838.41 1305.57 855.593 1291.78 C 875.919 1313.73 893.396 1317.34 922.293 1315.96 C 946.239 1314.97 966.229 1308.2 984.379 1292.54 C 997.673 1311.79 1022.79 1317.73 1044.99 1315.29 C 1079.95 1315.88 1099.48 1306.91 1124.65 1284.21 C 1150.64 1292.76 1177.52 1298.31 1204.76 1300.76 C 1301.85 1308.84 1386.85 1284.65 1461.63 1221.52 z" fill="rgb(236,232,209)" transform="translate(0,0)"></path>
<path d="M 237.057 1601.68 C 266.05 1642.14 298.803 1638.01 343.956 1638.48 C 374.858 1638.77 405.761 1638.76 436.663 1638.46 L 696.493 1638.18 L 1306.69 1638.1 L 1543.35 1638.91 C 1573.17 1638.87 1603.06 1638.78 1632.88 1638.51 C 1668.37 1638.2 1697.07 1638.88 1720.24 1607.68 C 1721.46 1606.06 1722.68 1604.43 1723.88 1602.8 C 1726.32 1649.42 1704.42 1686.76 1653.85 1691.68 C 1636.17 1693.4 1615.27 1692.09 1597.3 1692.03 L 1494.77 1691.91 L 1153.3 1692.05 L 592.415 1691.96 L 410.637 1692.06 C 378.234 1692.1 343.062 1692.82 310.887 1691.98 C 290.256 1691.55 270.688 1682.75 256.676 1667.6 C 238.33 1647.9 236.07 1627.29 237.057 1601.68 z" fill="rgb(235,221,148)" transform="translate(0,0)"></path>
<path d="M 604.125 1408.9 L 605.216 1408.87 C 632.956 1408.14 662.029 1403.16 689.787 1402.12 C 705.492 1401.52 728.647 1396.88 740.556 1408.61 C 756.323 1424.14 745.259 1449.01 723.768 1450.94 C 709.52 1452.23 695.436 1452.62 681.448 1453.88 C 640.952 1457.57 600.527 1462 560.191 1467.15 C 535.621 1470.41 513.356 1473.25 489.595 1479.91 C 471.582 1484.96 430.351 1505.99 454.218 1527.84 C 484.932 1555.96 546.824 1553.92 586.515 1556.1 C 603.285 1556.75 621.128 1555.71 637.643 1555.78 C 649.372 1555.83 669.359 1553.07 679.738 1555.2 C 684.426 1556.17 688.711 1558.54 692.032 1561.98 C 696.793 1566.9 699.282 1573.59 698.896 1580.42 C 698.504 1587.08 695.387 1593.29 690.279 1597.58 C 678.817 1607.16 652.417 1605.62 637.708 1605.81 C 572.135 1606.66 502.602 1607.6 444.899 1571.83 C 396.585 1541.87 381.99 1492.73 432.197 1455.37 C 460.029 1434.65 494.009 1426.71 527.611 1420.24 C 526.011 1429.32 521.35 1448.46 525.479 1455.88 C 533.455 1470.22 559.625 1444.97 565.636 1440.1 L 604.125 1408.9 z" fill="rgb(174,187,64)" transform="translate(0,0)"></path>
<path d="M 556.508 1241.92 L 557.206 1243.68 C 559.286 1248.99 561.009 1257.93 564.671 1262.14 C 582.52 1282.67 620.433 1299.25 643.716 1314.43 L 650.555 1318.7 C 670.579 1331.58 681.93 1326.55 702.689 1323.35 C 692.587 1335.47 678.962 1345.97 667.538 1356.82 C 647.7 1375.65 624.74 1391.19 604.125 1408.9 L 565.636 1440.1 C 559.625 1444.97 533.455 1470.22 525.479 1455.88 C 521.35 1448.46 526.011 1429.32 527.611 1420.24 C 530.329 1404.74 532.938 1389.22 535.438 1373.68 C 535.739 1365.72 540.651 1337.77 542.108 1328.57 C 546.575 1300.39 550.197 1269.56 556.508 1241.92 z" fill="rgb(61,54,108)" transform="translate(0,0)"></path>
<path d="M 556.508 1241.92 L 557.206 1243.68 C 559.286 1248.99 561.009 1257.93 564.671 1262.14 C 582.52 1282.67 620.433 1299.25 643.716 1314.43 L 619.354 1344.12 C 597.735 1370.4 572.036 1400.68 535.438 1373.68 C 535.739 1365.72 540.651 1337.77 542.108 1328.57 C 546.575 1300.39 550.197 1269.56 556.508 1241.92 z" fill="rgb(90,88,152)" transform="translate(0,0)"></path>
<path d="M 1477.52 1362.39 C 1484.73 1361.71 1486.77 1362.31 1493.35 1366.32 C 1508.03 1375.25 1508.44 1396.76 1494.65 1406.46 C 1488.8 1410.58 1472.27 1412.4 1464.26 1414.33 C 1431.12 1422.33 1380.39 1440.91 1388.87 1484.5 C 1391.65 1497.49 1402.54 1508.12 1413.58 1514.71 C 1450.5 1536.74 1496.11 1539.47 1538.13 1539.79 C 1548.93 1539.87 1565.02 1538.81 1574.17 1544.74 C 1580.04 1548.58 1584.06 1554.68 1585.27 1561.59 C 1588.49 1580.29 1576.25 1588.33 1559.84 1590.69 C 1500.64 1593.34 1421.62 1587.54 1374.55 1549.58 C 1354.23 1533.67 1336.69 1510.52 1334.08 1484.01 C 1326.59 1408.07 1415.41 1369.41 1477.52 1362.39 z" fill="rgb(174,187,64)" transform="translate(0,0)"></path>
<path d="M 1302.51 1360.42 C 1322.95 1357.8 1339.32 1378.71 1328.98 1396.45 C 1318.52 1414.41 1285.23 1409.88 1265.37 1417.86 C 1242.22 1427.16 1219.44 1434.68 1207.33 1459.23 C 1191.82 1491.34 1207.92 1522.1 1237.75 1537.27 C 1257.91 1547.52 1287.03 1553.07 1273.25 1583.79 C 1270.31 1590.35 1263.15 1593.35 1256.72 1595.32 C 1231.98 1595.64 1207.84 1578.51 1188.93 1563.85 C 1166.09 1545.2 1150.24 1518.55 1147.9 1489.13 C 1140.99 1402.44 1229.75 1366.16 1302.51 1360.42 z" fill="rgb(174,187,64)" transform="translate(0,0)"></path>
<path d="M 1100.52 1365.39 C 1113.48 1363.27 1134.23 1366.1 1137.56 1379.69 C 1146.18 1414.93 1115.11 1412.99 1097.14 1415.99 C 1052.59 1423.44 995.85 1452.78 1011.32 1506.43 C 1017.47 1527.8 1039.44 1539.23 1058.54 1547.09 C 1081.88 1556.33 1086.3 1581.21 1063.51 1594.42 C 1044.14 1600.06 1031.36 1590.08 1015.02 1581.41 C 948.864 1546.34 933.244 1458.31 991.16 1407.74 C 1019.04 1383.39 1063.61 1369.02 1100.52 1365.39 z" fill="rgb(174,187,64)" transform="translate(0,0)"></path>
<path d="M 913.456 1365.4 C 925.667 1364.09 940.477 1368.01 944.479 1379.65 C 957.145 1416.47 917.599 1414.71 899.289 1418.34 C 867.588 1424.62 834.097 1440.15 822.67 1471.01 C 818.827 1481.31 818.07 1492.5 820.494 1503.21 C 830.659 1546.89 878.045 1538.92 887.991 1561.96 C 890.724 1568.29 890.287 1577.16 887.374 1583.36 C 884.213 1590.08 878.263 1593.49 871.614 1596.08 C 849.413 1599.61 821.805 1579.89 805.203 1567.15 C 760.415 1532.77 751.938 1464.99 789.141 1421.86 C 819.556 1386.6 868.197 1369.47 913.456 1365.4 z" fill="rgb(174,187,64)" transform="translate(0,0)"></path>
<path d="M 675.155 1032.14 C 686.676 1045.57 695.281 1051.17 711.247 1059.08 C 730.495 1064.51 741.007 1066.65 761.406 1067.02 C 789.662 1078.28 885.338 1075.18 919.665 1075.36 L 1065.79 1076.09 C 1124.84 1114.91 1194.18 1140.73 1265.61 1125.45 C 1290.44 1120.14 1306.46 1109.34 1323.1 1134.6 C 1323.35 1139.54 1323.91 1146.87 1323.8 1151.59 C 1317.95 1162.92 1311.16 1168.88 1298.31 1172.33 C 1250.86 1185.07 1195.1 1181.72 1149 1166.83 C 1164.93 1193.32 1171.89 1217.21 1161.42 1247.54 C 1248.26 1259.24 1329.78 1244.51 1407.05 1204.24 C 1460.01 1176.64 1434.44 1176.69 1498.82 1177.42 C 1529.72 1177.77 1560.63 1177.96 1591.54 1178 C 1631.72 1178.01 1653.21 1181.26 1689.85 1162.61 L 1691.78 1163.24 C 1678.84 1188.61 1656.47 1207.88 1629.47 1216.91 C 1599.79 1226.87 1514.34 1220.87 1478.11 1221.87 C 1472.61 1221.08 1467.2 1221.41 1461.63 1221.52 C 1386.85 1284.65 1301.85 1308.84 1204.76 1300.76 C 1177.52 1298.31 1150.64 1292.76 1124.65 1284.21 C 1099.48 1306.91 1079.95 1315.88 1044.99 1315.29 C 1022.79 1317.73 997.673 1311.79 984.379 1292.54 C 966.229 1308.2 946.239 1314.97 922.293 1315.96 C 893.396 1317.34 875.919 1313.73 855.593 1291.78 C 838.41 1305.57 816.5 1316.69 793.934 1316.13 C 767.181 1320.14 742.524 1312.88 724.349 1292.59 C 717.947 1303 711.461 1315.01 702.689 1323.35 C 681.93 1326.55 670.579 1331.58 650.555 1318.7 L 643.716 1314.43 C 620.433 1299.25 582.52 1282.67 564.671 1262.14 C 561.009 1257.93 559.286 1248.99 557.206 1243.68 L 556.508 1241.92 C 558.757 1233.64 559.851 1230.91 563.337 1222.91 C 567.593 1214.97 597.419 1166.46 596.853 1162.53 C 625.319 1155.84 649.367 1130.59 659.632 1104.11 C 666.53 1086.31 667.05 1070.14 669.472 1051.5 C 670.281 1043.05 671.245 1039.63 675.155 1032.14 z" fill="rgb(238,133,13)" transform="translate(0,0)"></path>
<path d="M 675.155 1032.14 C 686.676 1045.57 695.281 1051.17 711.247 1059.08 C 735.045 1104.29 780.193 1108.31 826.488 1110.32 C 821.86 1119.35 817.022 1128.27 811.977 1137.07 L 784.668 1187.2 C 763.964 1217.85 744.328 1259.92 724.349 1292.59 C 717.947 1303 711.461 1315.01 702.689 1323.35 C 681.93 1326.55 670.579 1331.58 650.555 1318.7 L 643.716 1314.43 C 620.433 1299.25 582.52 1282.67 564.671 1262.14 C 561.009 1257.93 559.286 1248.99 557.206 1243.68 L 556.508 1241.92 C 558.757 1233.64 559.851 1230.91 563.337 1222.91 C 567.593 1214.97 597.419 1166.46 596.853 1162.53 C 625.319 1155.84 649.367 1130.59 659.632 1104.11 C 666.53 1086.31 667.05 1070.14 669.472 1051.5 C 670.281 1043.05 671.245 1039.63 675.155 1032.14 z" fill="rgb(174,187,64)" transform="translate(0,0)"></path>
<path d="M 675.155 1032.14 C 686.676 1045.57 695.281 1051.17 711.247 1059.08 C 735.045 1104.29 780.193 1108.31 826.488 1110.32 C 821.86 1119.35 817.022 1128.27 811.977 1137.07 L 784.668 1187.2 C 763.964 1217.85 744.328 1259.92 724.349 1292.59 C 717.947 1303 711.461 1315.01 702.689 1323.35 C 681.93 1326.55 670.579 1331.58 650.555 1318.7 L 760.544 1125.46 C 707.957 1118.96 688.759 1098.42 669.472 1051.5 C 670.281 1043.05 671.245 1039.63 675.155 1032.14 z" fill="rgb(109,159,26)" transform="translate(0,0)"></path>
<path d="M 784.668 1187.2 C 818.939 1195.41 840.278 1219.33 841.238 1255.29 C 836.963 1277.84 833.567 1290.35 813.468 1304.91 C 806.768 1309.77 799.444 1312.45 793.934 1316.13 C 767.181 1320.14 742.524 1312.88 724.349 1292.59 C 744.328 1259.92 763.964 1217.85 784.668 1187.2 z" fill="rgb(207,89,39)" transform="translate(0,0)"></path>
<path d="M 855.593 1291.78 C 878.874 1266.93 893.125 1250.93 897.383 1214.94 C 898.217 1207.89 898.496 1190.15 899.552 1185.22 L 901.7 1184.44 C 941.592 1187.44 967.75 1210.64 971.302 1250.9 C 967.732 1273.11 963.471 1288.18 944.727 1303.01 C 937.581 1308.67 927.236 1312.09 922.293 1315.96 C 893.396 1317.34 875.919 1313.73 855.593 1291.78 z" fill="rgb(207,89,39)" transform="translate(0,0)"></path>
<path d="M 1026.58 1184.64 C 1047.65 1187.99 1065.41 1194.2 1078.44 1212.33 C 1088.18 1225.9 1093.52 1244.65 1089.5 1261.14 C 1080.24 1293.76 1070.55 1298.18 1044.99 1315.29 C 1022.79 1317.73 997.673 1311.79 984.379 1292.54 C 1017.5 1258.82 1030.78 1233.34 1026.58 1184.64 z" fill="rgb(207,89,39)" transform="translate(0,0)"></path>
<path d="M 1006.32 1134.12 C 1024.28 1134.1 1045.85 1133.49 1063.52 1134.28 C 1082.74 1150.64 1114 1185.75 1115.63 1211.89 C 1116.63 1227.99 1108.78 1241.66 1098.26 1253.06 C 1095.57 1255.99 1092.64 1258.69 1089.5 1261.14 C 1093.52 1244.65 1088.18 1225.9 1078.44 1212.33 C 1065.41 1194.2 1047.65 1187.99 1026.58 1184.64 C 1020.98 1161.46 1017.74 1154.48 1006.32 1134.12 z" fill="rgb(246,171,79)" transform="translate(0,0)"></path>
<path d="M 880.441 1134.88 C 905.679 1134.71 930.918 1134.78 956.154 1135.08 C 982.753 1164.57 991.056 1215.76 971.302 1250.9 C 967.75 1210.64 941.592 1187.44 901.7 1184.44 L 898.608 1183.83 L 898.379 1182.59 C 894.619 1162.88 890.592 1151.67 880.441 1134.88 z" fill="rgb(246,171,79)" transform="translate(0,0)"></path>
<path d="M 811.977 1137.07 L 833.574 1137.01 C 851.552 1159.63 857.276 1184.91 854.423 1213.64 C 853.321 1224.74 847.748 1246.32 841.238 1255.29 C 840.278 1219.33 818.939 1195.41 784.668 1187.2 L 811.977 1137.07 z" fill="rgb(246,171,79)" transform="translate(0,0)"></path>
<path d="M 896.956 634.879 C 919.575 598.114 941.557 558.694 963.017 521.139 L 1042.47 383.362 C 1055.89 360.156 1069.22 335.383 1083.27 312.76 C 1090.06 319.81 1103.47 326.715 1112.33 331.869 L 1160 359.999 C 1165.99 363.548 1174.33 367.874 1179.69 371.675 L 1180.5 371.656 C 1191.41 377.391 1208.77 389.768 1220.2 393.984 C 1191.12 447.001 1161.48 499.704 1131.27 552.085 C 1114.29 581.948 1095.89 616.703 1077.77 645.407 C 1062.51 668.48 1045.35 702.376 1031.25 726.947 C 1000.11 780.561 969.398 834.427 939.13 888.539 C 924.565 888.615 904.191 888.075 890.119 888.927 C 851.649 888.789 806.874 887.281 769.498 897.638 C 755.527 899.8 746.312 902.839 733.121 907.354 C 737.595 902.804 746.389 898.704 750.072 893.152 C 758.816 879.97 766.705 864.013 774.248 850.032 C 780.955 837.602 790.028 823.584 795.888 811.285 C 830.474 753.376 862.757 692.981 896.956 634.879 z" fill="rgb(174,187,64)" transform="translate(0,0)"></path>
<path d="M 1179.69 371.675 L 1180.5 371.656 C 1191.41 377.391 1208.77 389.768 1220.2 393.984 C 1191.12 447.001 1161.48 499.704 1131.27 552.085 C 1114.29 581.948 1095.89 616.703 1077.77 645.407 C 1062.51 668.48 1045.35 702.376 1031.25 726.947 C 1000.11 780.561 969.398 834.427 939.13 888.539 C 924.565 888.615 904.191 888.075 890.119 888.927 C 886.973 888.685 886.316 888.865 883.456 887.478 C 885.47 877.104 935.047 796.448 943.991 780.996 L 1087.13 532.687 C 1105.11 501.37 1122.68 469.355 1141.22 438.356 C 1152.73 419.113 1166.85 388.7 1179.69 371.675 z" fill="rgb(109,159,26)" transform="translate(0,0)"></path>
<path d="M 769.498 897.638 C 790.949 906.411 806.206 917.724 815.189 939.739 C 826.045 966.343 825.674 1001.42 815.176 1028.06 C 804.586 1054.92 788.428 1063.15 761.406 1067.02 C 741.007 1066.65 730.495 1064.51 711.247 1059.08 C 695.281 1051.17 686.676 1045.57 675.155 1032.14 C 652.104 995.414 656.854 959.877 691.177 931.822 C 704.885 920.618 717.254 914.757 733.121 907.354 C 746.312 902.839 755.527 899.8 769.498 897.638 z" fill="rgb(207,89,39)" transform="translate(0,0)"></path>
<path d="M 1077.77 645.407 C 1091.64 646.367 1105.49 647.672 1119.29 649.32 C 1116.96 657.596 1089.65 701.52 1083.54 711.902 L 1011.12 836.952 C 1029.75 836.478 1059.5 832.472 1073.96 844.077 C 1085.26 853.148 1084.03 877.28 1072.98 883.607 C 1055.36 893.698 1012.06 887.999 990.509 888.964 C 976.032 889.612 951.402 889.849 939.13 888.539 C 969.398 834.427 1000.11 780.561 1031.25 726.947 C 1045.35 702.376 1062.51 668.48 1077.77 645.407 z" fill="rgb(238,133,13)" transform="translate(0,0)"></path>
<path d="M 503.927 1000.28 C 511.758 911.708 542.717 840.275 602.375 773.759 C 678.502 690.551 784.327 640.66 896.956 634.879 C 862.757 692.981 830.474 753.376 795.888 811.285 C 790.028 823.584 780.955 837.602 774.248 850.032 C 766.705 864.013 758.816 879.97 750.072 893.152 C 746.389 898.704 737.595 902.804 733.121 907.354 C 717.254 914.757 704.885 920.618 691.177 931.822 C 656.854 959.877 652.104 995.414 675.155 1032.14 C 671.245 1039.63 670.281 1043.05 669.472 1051.5 C 667.05 1070.14 666.53 1086.31 659.632 1104.11 C 649.367 1130.59 625.319 1155.84 596.853 1162.53 C 579.574 1166.11 565.715 1162.98 550.779 1154.21 C 545.267 1148.35 536.491 1134 532.44 1126.8 C 508.855 1084.93 503.432 1047.24 503.927 1000.28 z" fill="rgb(246,171,79)" transform="translate(0,0)"></path>
<path d="M 609.06 1074.61 C 611.835 1068.22 615.609 1042.78 616.9 1034.33 C 632.247 933.986 691.843 839.147 795.888 811.285 C 790.028 823.584 780.955 837.602 774.248 850.032 C 766.705 864.013 758.816 879.97 750.072 893.152 C 746.389 898.704 737.595 902.804 733.121 907.354 C 717.254 914.757 704.885 920.618 691.177 931.822 C 656.854 959.877 652.104 995.414 675.155 1032.14 C 671.245 1039.63 670.281 1043.05 669.472 1051.5 C 667.05 1070.14 666.53 1086.31 659.632 1104.11 C 649.367 1130.59 625.319 1155.84 596.853 1162.53 C 579.574 1166.11 565.715 1162.98 550.779 1154.21 C 592.869 1140.97 605.96 1116.78 609.06 1074.61 z" fill="rgb(238,133,13)" transform="translate(0,0)"></path>
<path d="M 503.927 1000.28 C 520.52 998.939 532.701 997.432 548.903 1002.35 C 585.191 1013.37 603.942 1037.76 609.06 1074.61 C 605.96 1116.78 592.869 1140.97 550.779 1154.21 C 545.267 1148.35 536.491 1134 532.44 1126.8 C 508.855 1084.93 503.432 1047.24 503.927 1000.28 z" fill="rgb(207,89,39)" transform="translate(0,0)"></path>
<path d="M 1204.55 170.914 C 1246.71 162.793 1281.17 186.366 1290.44 228.196 C 1298.8 265.9 1273.79 296.926 1254.84 327.324 C 1260.01 330.431 1264.54 333.382 1269.9 336.313 C 1258.85 354.815 1246.96 376.855 1235.82 394.438 C 1231.31 391.969 1228.43 390.668 1224.28 387.358 C 1222.81 390.226 1222.2 391.443 1220.2 393.984 C 1208.77 389.768 1191.41 377.391 1180.5 371.656 L 1179.69 371.675 C 1174.33 367.874 1165.99 363.548 1160 359.999 L 1112.33 331.869 C 1103.47 326.715 1090.06 319.81 1083.27 312.76 C 1084.5 310.221 1085.42 307.848 1086.61 305.304 L 1076.02 299.126 C 1086.29 280.333 1095.26 264.294 1106.41 245.994 L 1105.92 244.627 C 1107.59 242.873 1107.89 242.461 1109.87 241.108 C 1117.17 242.124 1120.73 246.818 1127.39 250.826 C 1149.57 217.928 1159.79 179.803 1204.55 170.914 z" fill="rgb(237,104,130)" transform="translate(0,0)"></path>
<path d="M 1127.39 250.826 C 1149.57 217.928 1159.79 179.803 1204.55 170.914 C 1209.94 176.457 1217.06 179.556 1222.79 184.565 C 1263.55 220.17 1241.21 268.716 1218.31 305.062 L 1152.48 266.325 C 1149.71 264.666 1129.05 252.249 1127.39 250.826 z" fill="rgb(245,149,166)" transform="translate(0,0)"></path>
<path d="M 1218.52 305.084 L 1219.98 306.049 C 1227.13 310.834 1247.05 323.061 1254.84 327.324 C 1260.01 330.431 1264.54 333.382 1269.9 336.313 C 1258.85 354.815 1246.96 376.855 1235.82 394.438 C 1231.31 391.969 1228.43 390.668 1224.28 387.358 C 1222.81 390.226 1222.2 391.443 1220.2 393.984 C 1208.77 389.768 1191.41 377.391 1180.5 371.656 C 1181.81 368.328 1182.83 366.975 1184.23 363.978 L 1184.68 363.947 C 1194.02 344.026 1206.92 325.769 1217.56 306.752 L 1218.52 305.084 z" fill="rgb(212,55,102)" transform="translate(0,0)"></path>
<path d="M 1184.23 363.978 L 1184.68 363.947 C 1194.82 370.884 1216.59 381.406 1224.28 387.358 C 1222.81 390.226 1222.2 391.443 1220.2 393.984 C 1208.77 389.768 1191.41 377.391 1180.5 371.656 C 1181.81 368.328 1182.83 366.975 1184.23 363.978 z" fill="rgb(85,105,69)" transform="translate(0,0)"></path>
<path d="M 1086.61 305.304 C 1117.69 322.197 1152.63 346.632 1184.23 363.978 C 1182.83 366.975 1181.81 368.328 1180.5 371.656 L 1179.69 371.675 C 1174.33 367.874 1165.99 363.548 1160 359.999 L 1112.33 331.869 C 1103.47 326.715 1090.06 319.81 1083.27 312.76 C 1084.5 310.221 1085.42 307.848 1086.61 305.304 z" fill="rgb(109,159,26)" transform="translate(0,0)"></path>
<path d="M 818.793 557.621 L 888.796 428.221 C 935.66 342.55 987.035 218.822 1105.92 244.627 L 1106.41 245.994 C 1095.26 264.294 1086.29 280.333 1076.02 299.126 C 1068.29 295.966 1058.85 296.188 1050.88 298.349 C 1017.02 307.525 997.55 340.102 982.075 368.898 C 972.535 386.652 963.313 403.649 953.876 420.98 C 924.465 475.483 894.598 529.738 864.278 583.739 C 853.392 578.544 829.282 564.143 818.793 557.621 z" fill="rgb(109,159,26)" transform="translate(0,0)"></path>
<metadata><recraft-signature>{"signed_by": "recraft", "signature_b64": "Sy38BnCMEACMsBjWHhYogXjbfGkB1Odfxw7rJ82K2hn4XrZPhCzZOJeYFjWRFo1TxYz6A18NSYcABDnSoWwvCg==", "signing_algo": "Ed25519", "generation_timestamp": 1779006389, "identifier": "bd2924b4-af96-423b-92ad-e53984423e60"}</recraft-signature></metadata></svg>