<svg xmlns="http://www.w3.org/2000/svg" height="1280" preserveAspectRatio="none" style="display: block;" version="1.1" viewBox="0 0 1331 2048" width="832">
<path d="M 0 0 L 344.31 0 L 363.891 0 L 1331 0 L 1331 1487.33 L 1331 1718.76 L 1331 2048 L 266.584 2048 L 260.75 2048 L 249.199 2048 L 0 2048 L 0 261.91 L 0 240.1 L 0 0 z" fill="rgb(11,10,11)" transform="translate(0,0)"></path>
<path d="M 363.891 0 L 1331 0 L 1331 1487.33 L 1330.17 1484.71 L 1327.7 1484.07 C 1327.07 1482.32 1326.71 1480.58 1326.21 1478.77 L 1328.13 1475.68 C 1324.72 1463.67 1318.96 1452.77 1310.14 1443.83 C 1300.92 1434.63 1289.3 1428.21 1276.61 1425.3 C 1263 1422.08 1239.26 1423.07 1224.42 1423.14 C 1204.29 1423.29 1184.15 1423.3 1164.01 1423.18 C 1164.45 1409.34 1166.37 1397.66 1152.31 1390.34 C 1147.06 1385.62 1123 1387.06 1115.71 1387.91 L 1074.69 1387.67 C 1074.55 1391.7 1073.91 1395.74 1075.62 1399.2 C 1079.29 1402.02 1078.53 1400.72 1083.94 1401.59 C 1086.27 1405.37 1085.84 1419.47 1083.36 1423.68 L 1081.48 1424.08 C 1071.11 1415.68 1086.79 1396.06 1041.01 1398.8 C 1036.55 1390.17 1035.19 1388.9 1027.22 1383.24 C 1085.26 1376.18 1143.71 1362.85 1185.44 1318.38 C 1217.42 1284.3 1222.62 1250.7 1221.03 1206.04 C 1244.2 1202.52 1264.57 1200.22 1284.63 1186.36 C 1299.26 1176.24 1307.78 1158.57 1295.14 1143.13 C 1277.06 1121.07 1243.85 1116.26 1217.2 1112.92 C 1217.11 1105.15 1216.84 1089.83 1212.83 1083.13 C 1187.49 1040.78 1091.05 1032.08 1046.7 1028.04 C 1026.27 1026.18 1006.07 1027.44 986.068 1025.23 C 983.961 1025 967.294 1018.55 963.804 1017.34 C 959.539 1004.02 954.585 990.938 948.961 978.137 C 962.914 968.324 974.338 954.456 962.404 937.523 C 961.912 936.825 966.839 926.146 965.459 922.372 C 964.566 919.928 960.96 915.011 960.054 912.429 C 964.886 899.354 967.45 894.257 955.389 883.858 C 952.748 881.047 958.543 873.907 958 870.679 C 953.628 844.657 932.2 852.292 919.785 863.247 C 916.121 861.909 912.31 861.008 908.532 860.017 C 898.146 834.205 889.347 808.587 879.626 782.652 C 873.484 767.925 864.546 747.996 849.21 741.388 C 838.6 736.929 822.96 741.327 819.609 753.388 C 813.207 776.431 832.848 808.256 842.925 828.37 C 848.795 840.19 854.584 852.05 860.291 863.95 C 824.357 883.825 830.966 902.956 809.051 920.223 C 808.169 919.744 807.278 919.281 806.378 918.836 C 775.717 903.706 751.79 915.809 722.109 925.546 L 660.662 945.9 C 620.845 931.463 581.108 916.805 541.454 901.926 C 533.513 874.555 512.753 840.592 488.393 825.251 L 498.944 787.708 C 505.577 788.098 512.154 788.435 518.828 788.595 C 602.582 790.605 681.113 735.476 701.536 653.153 C 704.673 640.506 704.083 625.005 708.982 613.369 C 714.455 600.368 735.183 597.235 737.727 581.642 C 742.845 554.357 714.053 556.23 705.297 540.543 C 696.737 525.207 697.527 494.678 694.807 476.576 C 690.444 447.537 683.88 424.385 667.778 399.738 C 664.025 392.85 656.84 364.859 654.068 355.013 C 646.678 328.771 637.706 301.444 631.085 275.142 C 666.652 261.591 697.534 223.423 705.797 186.555 C 713.013 155.311 707.375 122.479 690.15 95.4316 C 671.157 65.6177 641.018 44.6489 606.46 37.2053 C 560.784 27.093 522.973 38.6599 484.65 63.058 C 483.552 61.4739 482.419 59.9141 481.253 58.3795 C 451.369 19.199 410.386 6.02432 363.891 0 z" fill="rgb(253,253,252)" transform="translate(0,0)"></path>
<path d="M 1326.21 1478.77 L 1328.13 1475.68 C 1328.96 1478.67 1329.47 1481.66 1330.17 1484.71 L 1327.7 1484.07 C 1327.07 1482.32 1326.71 1480.58 1326.21 1478.77 z" fill="rgb(40,42,46)" transform="translate(0,0)"></path>
<path d="M 0 0 L 344.31 0 L 363.891 0 C 410.386 6.02432 451.369 19.199 481.253 58.3795 C 482.419 59.9141 483.552 61.4739 484.65 63.058 C 522.973 38.6599 560.784 27.093 606.46 37.2053 C 641.018 44.6489 671.157 65.6177 690.15 95.4316 C 707.375 122.479 713.013 155.311 705.797 186.555 C 697.534 223.423 666.652 261.591 631.085 275.142 L 628.03 273.878 L 627.438 274.602 L 628.201 276.262 C 631.729 284.339 634.695 295.952 637.14 304.633 C 645.441 334.102 654.928 363.684 662.312 393.372 C 570.125 477.149 444.972 517.164 321.364 513.612 C 293.342 512.807 211.925 500.484 193.015 479.173 L 191.182 483.674 C 191.049 477.17 187.239 459.815 186.061 452.72 C 181.91 427.711 176.038 401.974 172.552 376.925 C 132.409 385.477 88.7506 377.775 54.9371 354.237 C 20.5071 330.27 7.33598 301.983 0 261.91 L 0 240.1 L 0 0 z" fill="rgb(253,253,252)" transform="translate(0,0)"></path>
<path d="M 0 0 L 344.31 0 C 268.636 11.1044 214.314 41.9051 190.266 117.983 C 146.66 107.452 105.134 113.546 66.6814 137.13 C 34.7656 156.465 11.9323 187.787 3.29042 224.088 C 2.06268 229.397 0.965537 234.736 0 240.1 L 0 0 z" fill="rgb(253,253,252)" transform="translate(0,0)"></path>
<path d="M 592.23 285.572 C 605.566 283.74 615.771 281.419 628.201 276.262 C 631.729 284.339 634.695 295.952 637.14 304.633 C 645.441 334.102 654.928 363.684 662.312 393.372 C 570.125 477.149 444.972 517.164 321.364 513.612 C 293.342 512.807 211.925 500.484 193.015 479.173 C 193.049 473.826 188.761 452.499 187.637 446.31 L 174.939 376.655 C 184.22 374.477 191.966 371.732 200.843 368.382 C 203.722 396.665 220.225 426.388 241.834 444.903 C 278.227 476.085 330.063 483.03 376.443 479.472 C 444.615 474.242 520.091 447.131 566.057 394.549 C 585.817 371.945 602.634 337.041 599.117 306.956 C 598.367 300.535 597.374 289.898 592.23 285.572 z" fill="rgb(224,222,217)" transform="translate(0,0)"></path>
<path d="M 251.602 331.155 C 202.529 383.504 115.239 393.453 56.201 352.104 C 28.8131 333.258 10.1301 304.212 4.33736 271.475 C -8.40658 198.64 49.7424 130.676 119.946 118.594 C 113.86 124.243 96.304 133.3 88.4083 138.269 C 34.9046 171.939 14.2427 249.091 60.1294 298.385 C 105.794 347.771 182.649 362.688 243.635 334.492 C 245.857 333.452 249.323 331.758 251.602 331.155 z" fill="rgb(224,222,217)" transform="translate(0,0)"></path>
<path d="M 589.78 37.1314 C 652.881 45.0607 702.385 89.0938 706.182 154.416 C 706.008 159.411 706.011 162.593 706.299 167.587 C 701.244 205.541 687.181 234.241 656.149 257.856 C 647.519 264.406 638.065 269.793 628.03 273.878 L 627.438 274.602 L 628.201 276.262 C 615.771 281.419 605.566 283.74 592.23 285.572 C 565.029 287.109 525.052 282.266 506.132 260.694 L 507.471 260.829 L 506.777 261.6 L 506.952 260.624 C 510.161 260.921 515.791 265.543 518.562 267.597 C 526.898 265.922 540.946 264.837 550.119 263.412 C 679.138 243.366 737.544 92.3808 590.419 37.5288 C 590.206 37.3963 589.993 37.2639 589.78 37.1314 z" fill="rgb(224,222,217)" transform="translate(0,0)"></path>
<path d="M 592.23 285.572 C 565.029 287.109 525.052 282.266 506.132 260.694 L 507.471 260.829 L 506.777 261.6 L 506.952 260.624 C 510.161 260.921 515.791 265.543 518.562 267.597 C 552.366 288.661 591.006 286.783 627.438 274.602 L 628.201 276.262 C 615.771 281.419 605.566 283.74 592.23 285.572 z" fill="rgb(11,10,11)" transform="translate(0,0)"></path>
<path d="M 344.31 0 L 363.891 0 C 410.386 6.02432 451.369 19.199 481.253 58.3795 C 482.419 59.9141 483.552 61.4739 484.65 63.058 C 522.973 38.6599 560.784 27.093 606.46 37.2053 C 641.018 44.6489 671.157 65.6177 690.15 95.4316 C 707.375 122.479 713.013 155.311 705.797 186.555 C 697.534 223.423 666.652 261.591 631.085 275.142 L 628.03 273.878 C 638.065 269.793 647.519 264.406 656.149 257.856 C 687.181 234.241 701.244 205.541 706.299 167.587 C 706.011 162.593 706.008 159.411 706.182 154.416 C 702.385 89.0938 652.881 45.0607 589.78 37.1314 C 548.019 33.4637 521.066 42.6315 486.206 64.8272 C 490.076 71.1019 498.119 82.8865 498.563 89.9698 C 493.028 83.7629 485.601 67.1869 477.318 57.1278 C 476.791 56.7246 476.823 56.6248 476.384 55.934 C 444.386 21.9342 407.89 4.38592 360.61 2.84212 C 313.595 1.28242 267.872 18.385 233.421 50.4167 C 208.448 73.9844 193.201 104.367 188.714 138.721 C 188.003 144.167 189.313 160.652 186.222 162.31 C 183.378 155.552 187.824 127.814 189.687 119.923 C 167.027 115.378 142.719 112.956 119.946 118.594 C 49.7424 130.676 -8.40658 198.64 4.33736 271.475 C 10.1301 304.212 28.8131 333.258 56.201 352.104 C 115.239 393.453 202.529 383.504 251.602 331.155 C 255.331 327.583 263.276 317.817 265.681 316.027 C 257.235 337.546 221.57 359.249 200.843 368.382 C 191.966 371.732 184.22 374.477 174.939 376.655 L 187.637 446.31 C 188.761 452.499 193.049 473.826 193.015 479.173 L 191.182 483.674 C 191.049 477.17 187.239 459.815 186.061 452.72 C 181.91 427.711 176.038 401.974 172.552 376.925 C 132.409 385.477 88.7506 377.775 54.9371 354.237 C 20.5071 330.27 7.33598 301.983 0 261.91 L 0 240.1 C 0.965537 234.736 2.06268 229.397 3.29042 224.088 C 11.9323 187.787 34.7656 156.465 66.6814 137.13 C 105.134 113.546 146.66 107.452 190.266 117.983 C 214.314 41.9051 268.636 11.1044 344.31 0 z" fill="rgb(11,10,11)" transform="translate(0,0)"></path>
<path d="M 706.182 154.416 C 707.686 160.302 707.682 161.668 706.299 167.587 C 706.011 162.593 706.008 159.411 706.182 154.416 z" fill="rgb(81,88,98)" transform="translate(0,0)"></path>
<path d="M 557.744 1426.19 L 1025.87 1426.19 L 1183.63 1426.05 C 1211.61 1426 1240.33 1425.64 1268.28 1426.44 C 1275.64 1426.65 1285.36 1430.52 1291.99 1433.48 C 1292.73 1433.72 1292.74 1433.76 1293.38 1434.19 L 1297.05 1436.53 C 1297.36 1437.19 1297.6 1437.2 1298.23 1437.63 C 1299.66 1438.31 1299.9 1438.49 1301.16 1439.4 L 1303.08 1440.71 C 1305.87 1443.95 1309.13 1447.46 1312.49 1450.09 L 1313.37 1451.35 C 1314.8 1452.48 1314.76 1452.38 1315.44 1454.03 C 1317.18 1456.07 1317.74 1456.5 1318.51 1459 C 1320.12 1462.76 1320.77 1464.53 1323.22 1467.88 C 1324.31 1471.53 1325.41 1475.04 1326.21 1478.77 C 1326.71 1480.58 1327.07 1482.32 1327.7 1484.07 C 1329.43 1494.31 1328.94 1511.29 1328.94 1522.21 L 1328.92 1579.97 L 1328.9 1664.36 C 1328.88 1689.32 1331.1 1715.84 1322.84 1739.53 C 1269.67 1740.36 1212.2 1739.22 1158.71 1739.22 L 802.066 1739.27 C 725.384 1738.99 648.701 1739.12 572.021 1739.64 C 572.472 1698.43 569.142 1650.31 566.882 1608.96 C 563.495 1548.05 560.449 1487.13 557.744 1426.19 z" fill="rgb(100,106,116)" transform="translate(0,0)"></path>
<path d="M 1315.44 1454.03 C 1317.18 1456.07 1317.74 1456.5 1318.51 1459 C 1316.75 1458.15 1316.25 1455.81 1315.44 1454.03 z" fill="rgb(81,88,98)" transform="translate(0,0)"></path>
<path d="M 1313.37 1451.35 C 1314.8 1452.48 1314.76 1452.38 1315.44 1454.03 C 1314.6 1453.56 1314.28 1453.15 1313.85 1452.28 L 1313.37 1451.35 z" fill="rgb(81,88,98)" transform="translate(0,0)"></path>
<path d="M 806.857 1529.56 C 844.086 1523.8 878.979 1549.19 884.945 1586.38 C 890.911 1623.58 865.709 1658.61 828.544 1664.78 C 791.095 1670.99 755.739 1645.55 749.727 1608.07 C 743.715 1570.59 769.343 1535.37 806.857 1529.56 z" fill="rgb(11,10,11)" transform="translate(0,0)"></path>
<path d="M 816.502 1663.08 C 800.517 1661.94 787.103 1657.8 774.606 1647.31 C 761.065 1636.01 752.663 1619.72 751.309 1602.13 C 750.129 1584.61 756.052 1567.35 767.743 1554.25 C 781.163 1539.03 797.157 1532.79 816.946 1531.56 C 816.883 1540.34 816.648 1549.1 817.38 1557.85 L 819.25 1557.48 L 819.177 1531.61 C 901.273 1537.79 907.842 1653.24 819.232 1663.17 L 819.014 1638.27 L 816.704 1639.82 L 816.502 1663.08 z" fill="rgb(11,10,11)" transform="translate(0,0)"></path>
<path d="M 816.502 1663.08 C 800.517 1661.94 787.103 1657.8 774.606 1647.31 C 761.065 1636.01 752.663 1619.72 751.309 1602.13 C 750.129 1584.61 756.052 1567.35 767.743 1554.25 C 781.163 1539.03 797.157 1532.79 816.946 1531.56 C 816.883 1540.34 816.648 1549.1 817.38 1557.85 C 805.407 1558.47 795.719 1562.25 787.605 1571.43 C 780.295 1579.72 776.624 1590.59 777.417 1601.62 C 778.997 1624.02 794.562 1635.58 815.672 1638.63 L 816.704 1639.82 L 816.502 1663.08 z" fill="rgb(81,88,98)" transform="translate(0,0)"></path>
<path d="M 819.177 1531.61 C 901.273 1537.79 907.842 1653.24 819.232 1663.17 L 819.014 1638.27 C 826.622 1638 833.483 1635.75 839.887 1631.59 C 848.561 1625.98 854.611 1617.12 856.673 1607 C 858.855 1596.51 856.756 1585.58 850.842 1576.65 C 842.686 1564.32 832.908 1560.38 819.25 1557.48 L 819.177 1531.61 z" fill="rgb(81,88,98)" transform="translate(0,0)"></path>
<path d="M 918.26 1595.17 C 918.885 1576.52 927.123 1558.95 941.054 1546.55 C 954.985 1534.15 973.391 1528 991.98 1529.53 C 1029.06 1532.59 1056.83 1564.83 1054.37 1601.95 C 1051.91 1639.07 1020.14 1667.37 982.978 1665.51 C 945.819 1663.66 917.013 1632.35 918.26 1595.17 z" fill="rgb(11,10,11)" transform="translate(0,0)"></path>
<path d="M 991.98 1529.53 C 1029.06 1532.59 1056.83 1564.83 1054.37 1601.95 C 1051.91 1639.07 1020.14 1667.37 982.978 1665.51 C 945.819 1663.66 917.013 1632.35 918.26 1595.17 L 919.725 1595.56 C 919.833 1596.88 919.829 1600.02 920.519 1600.77 C 922.507 1619.95 929.118 1634.92 944.403 1647.37 C 956.731 1657.38 972.087 1662.92 987.966 1663.08 C 988.069 1657.36 987.966 1648.21 988.664 1642.8 C 989.204 1640.77 989.024 1640.68 990.545 1639.3 C 1037.65 1634.07 1044.07 1568.25 990.926 1557.45 C 990.807 1548.64 990.692 1540.22 990.19 1531.43 L 990.2 1530.86 L 991.98 1529.53 z" fill="rgb(81,88,98)" transform="translate(0,0)"></path>
<path d="M 991.98 1529.53 C 1029.06 1532.59 1056.83 1564.83 1054.37 1601.95 C 1051.91 1639.07 1020.14 1667.37 982.978 1665.51 C 945.819 1663.66 917.013 1632.35 918.26 1595.17 L 919.725 1595.56 C 919.833 1596.88 919.829 1600.02 920.519 1600.77 C 922.507 1619.95 929.118 1634.92 944.403 1647.37 C 956.731 1657.38 972.087 1662.92 987.966 1663.08 C 988.069 1657.36 987.966 1648.21 988.664 1642.8 C 989.204 1640.77 989.024 1640.68 990.545 1639.3 C 991.366 1646.1 990.867 1655.86 990.727 1662.93 C 1002.56 1661.23 1011.79 1658.67 1022.04 1652.09 C 1036.87 1642.63 1047.25 1627.59 1050.85 1610.37 C 1057.74 1576.3 1035.08 1541.37 1001.29 1533.71 C 997.597 1532.87 993.907 1532.13 990.19 1531.43 L 990.2 1530.86 L 991.98 1529.53 z" fill="rgb(11,10,11)" transform="translate(0,0)"></path>
<path d="M 920.519 1600.77 C 922.795 1559.63 946.052 1534.77 987.683 1531.85 L 987.822 1557.46 C 973.328 1559.16 962.667 1565.41 956.665 1573.84 C 936.634 1601.97 954.814 1635.18 987.391 1639.86 C 988.1 1639.96 988.474 1642.36 988.664 1642.8 C 987.966 1648.21 988.069 1657.36 987.966 1663.08 C 972.087 1662.92 956.731 1657.38 944.403 1647.37 C 929.118 1634.92 922.507 1619.95 920.519 1600.77 z" fill="rgb(81,88,98)" transform="translate(0,0)"></path>
<path d="M 1145.09 1529.81 C 1182.27 1525.75 1215.74 1552.51 1219.98 1589.67 C 1224.21 1626.83 1197.62 1660.43 1160.48 1664.85 C 1123.08 1669.29 1089.2 1642.48 1084.94 1605.06 C 1080.67 1567.64 1107.65 1533.89 1145.09 1529.81 z" fill="rgb(11,10,11)" transform="translate(0,0)"></path>
<path d="M 1152.43 1531.58 C 1153.03 1536.96 1152.76 1550.97 1152.8 1556.98 L 1155 1556.97 C 1155.11 1548.52 1155.16 1540.06 1155.14 1531.6 C 1175.45 1534.59 1191.76 1541.1 1204.5 1558.27 C 1215.25 1572.75 1219.68 1590.95 1216.78 1608.75 C 1214.06 1625.64 1204.61 1640.71 1190.58 1650.51 C 1179.47 1658.27 1168.37 1661.59 1155.06 1662.83 C 1155.04 1656.29 1155.28 1645.37 1154.47 1639.28 C 1152.21 1644.99 1154.01 1656.4 1152.64 1662.87 C 1137.35 1662.57 1121.35 1656.72 1109.66 1646.83 C 1096.68 1635.62 1088.68 1619.71 1087.4 1602.61 C 1086.06 1584.95 1091.86 1567.5 1103.52 1554.17 C 1116.96 1538.78 1132.7 1533.01 1152.43 1531.58 z" fill="rgb(11,10,11)" transform="translate(0,0)"></path>
<path d="M 1152.43 1531.58 C 1153.03 1536.96 1152.76 1550.97 1152.8 1556.98 C 1127.79 1562.23 1109.07 1579.29 1114.84 1606.65 C 1117.06 1617.31 1123.5 1626.62 1132.69 1632.45 C 1139 1636.47 1145.07 1638.06 1152.45 1638.57 C 1152.41 1644.86 1152.05 1657.07 1152.64 1662.87 C 1137.35 1662.57 1121.35 1656.72 1109.66 1646.83 C 1096.68 1635.62 1088.68 1619.71 1087.4 1602.61 C 1086.06 1584.95 1091.86 1567.5 1103.52 1554.17 C 1116.96 1538.78 1132.7 1533.01 1152.43 1531.58 z" fill="rgb(81,88,98)" transform="translate(0,0)"></path>
<path d="M 1155.14 1531.6 C 1175.45 1534.59 1191.76 1541.1 1204.5 1558.27 C 1215.25 1572.75 1219.68 1590.95 1216.78 1608.75 C 1214.06 1625.64 1204.61 1640.71 1190.58 1650.51 C 1179.47 1658.27 1168.37 1661.59 1155.06 1662.83 C 1155.04 1656.29 1155.28 1645.37 1154.47 1639.28 C 1158.73 1637.54 1168.32 1637.43 1174.75 1632.88 C 1184.19 1626.19 1191.16 1617.35 1193.4 1605.95 C 1195.45 1595.23 1193.08 1584.15 1186.82 1575.21 C 1178.48 1563.27 1168.64 1559.27 1155 1556.97 C 1155.11 1548.52 1155.16 1540.06 1155.14 1531.6 z" fill="rgb(81,88,98)" transform="translate(0,0)"></path>
<path d="M 644.084 1529.64 C 681.326 1527.59 713.242 1555.98 715.557 1593.2 C 717.872 1630.43 689.718 1662.55 652.509 1665.14 C 614.917 1667.75 582.392 1639.24 580.053 1601.63 C 577.714 1564.02 606.457 1531.7 644.084 1529.64 z" fill="rgb(11,10,11)" transform="translate(0,0)"></path>
<path d="M 647.657 1532.01 C 666.233 1532.34 680.77 1537.94 693.892 1551.56 C 706.462 1564.52 713.268 1582 712.769 1600.04 C 712.307 1617.14 704.993 1633.34 692.472 1644.99 C 674.268 1662.13 666.402 1658.35 647.938 1663.47 C 645.834 1664.18 644.776 1663.39 642.171 1662.73 C 630.082 1660.7 620.896 1658.18 610.561 1650.97 C 596.246 1640.89 586.578 1625.49 583.729 1608.22 C 580.73 1590.81 584.865 1572.93 595.202 1558.61 C 608.634 1540.11 624.014 1535.16 645.165 1531.82 C 645.016 1540.2 644.989 1548.57 645.087 1556.95 L 647.08 1556.97 C 647.229 1548.65 647.422 1540.33 647.657 1532.01 z" fill="rgb(11,10,11)" transform="translate(0,0)"></path>
<path d="M 647.657 1532.01 C 666.233 1532.34 680.77 1537.94 693.892 1551.56 C 706.462 1564.52 713.268 1582 712.769 1600.04 C 712.307 1617.14 704.993 1633.34 692.472 1644.99 C 674.268 1662.13 666.402 1658.35 647.938 1663.47 L 647.937 1639.48 C 666.254 1637.65 682.126 1625.83 686.218 1607.39 C 688.621 1596.81 686.589 1585.7 680.595 1576.65 C 672.201 1563.94 661.138 1559.77 647.08 1556.97 C 647.229 1548.65 647.422 1540.33 647.657 1532.01 z" fill="rgb(81,88,98)" transform="translate(0,0)"></path>
<path d="M 642.171 1662.73 C 630.082 1660.7 620.896 1658.18 610.561 1650.97 C 596.246 1640.89 586.578 1625.49 583.729 1608.22 C 580.73 1590.81 584.865 1572.93 595.202 1558.61 C 608.634 1540.11 624.014 1535.16 645.165 1531.82 C 645.016 1540.2 644.989 1548.57 645.087 1556.95 C 631.156 1560.51 620.443 1565.37 612.572 1578.45 C 607.116 1587.47 605.54 1598.31 608.205 1608.51 C 612.885 1626.66 627.589 1635.87 644.921 1639.68 C 645.023 1644.7 646.778 1660.56 642.171 1662.73 z" fill="rgb(81,88,98)" transform="translate(0,0)"></path>
<path d="M 0 261.91 C 7.33598 301.983 20.5071 330.27 54.9371 354.237 C 88.7506 377.775 132.409 385.477 172.552 376.925 C 176.038 401.974 181.91 427.711 186.061 452.72 C 187.239 459.815 191.049 477.17 191.182 483.674 C 184.428 518.992 194.274 577.589 206.718 611.907 C 175.939 569.759 115.293 583.972 108.547 634.053 C 106.448 648.819 110.396 663.807 119.498 675.623 C 127.955 686.415 140.362 693.394 153.976 695.02 C 157.594 695.419 162.882 695.528 166.562 695.35 C 166.537 717.738 168.545 734.777 185.602 751.711 C 197.672 763.767 214.137 770.38 231.193 770.022 C 248.358 769.677 265.053 761.65 276.766 749.24 C 279.5 746.331 282.129 743.324 284.648 740.226 C 305.842 773.88 341.269 779.805 376.588 765.188 C 374.996 773.251 370.633 782.406 368.392 790.952 C 336.383 805.279 311.438 830.111 295.201 860.985 C 251.495 880.43 189.093 933.313 154.46 966.058 C 58.9142 1056.4 55.2559 1107.53 157.435 1191.53 C 151.025 1207.17 130.356 1253.61 128.521 1268.09 C 127.369 1276.74 128.54 1285.53 131.912 1293.58 C 135.981 1303.16 141.584 1308.75 149.056 1315.67 C 128.636 1421.55 107.567 1527.3 85.8516 1632.92 L 69.5616 1714.02 C 57.9712 1771.78 49.745 1807.98 99.6384 1853.08 C 96.4711 1882.78 93.2952 1862.71 76.7483 1874.69 C 65.6407 1882.73 68.5616 1902.36 63.8903 1913.59 C 51.6029 1934.33 25.483 1979.8 59.0211 1995.48 C 75.9208 2003.38 99.8117 2010.6 118.437 2018.02 C 120.699 2014.27 122.682 2010.07 126.254 2007.84 C 132.435 2007.8 132.973 2017.62 133.965 2022.66 C 160.356 2031.4 181.507 2037.57 209.305 2042.58 C 221.344 2044.75 239.137 2045.89 249.199 2048 L 0 2048 L 0 261.91 z" fill="rgb(253,253,252)" transform="translate(0,0)"></path>
<path d="M 1331 1718.76 L 1331 2048 L 266.584 2048 L 260.75 2048 C 263.84 2045.71 264.596 2045.97 268.272 2044.72 C 276.848 2041.82 295.64 2043.86 305.687 2037.66 C 311.943 2033.8 317.538 2031.25 321.03 2024.29 L 323.227 2026.83 C 346.78 1985.8 316.892 1950.77 275.76 1940.94 C 286.097 1890.27 292.95 1831.88 304.497 1783.03 L 345.641 1782.94 C 351.653 1838.35 368.798 1877.9 427.652 1893.85 L 428.306 1910.38 C 395.755 1913.02 406.26 1936.98 406.066 1958.1 C 405.972 1968.37 399.023 1984.55 398.059 1995.3 C 393.613 2019.22 402.469 2042.71 429.262 2045.75 C 430.801 2044.49 430.836 2044.36 432.654 2043.69 C 435.611 2043.85 438.235 2043.96 441.205 2043.98 C 445.938 2043.92 451.283 2043.68 455.94 2043.81 C 457.28 2043.99 461.593 2044.18 462.465 2044.63 C 462.345 2045.03 462.224 2045.44 462.103 2045.85 C 471.163 2046.3 497.715 2044.05 508.076 2043.45 C 508.834 2038.07 508.83 2032.88 512.935 2029.38 C 520.299 2028.11 521.361 2037.06 522.77 2042.65 C 571.314 2036.21 603.704 2031.76 652.17 2013.46 C 699.527 1995.58 703.851 1945.08 658.854 1921.54 C 632.296 1907.64 588.682 1927.39 561.032 1938.85 C 564.179 1910.02 549.708 1891.48 520.572 1904.94 C 519.77 1896.5 519.204 1888.04 518.874 1879.57 C 520.633 1878.35 522.361 1877.08 524.058 1875.77 C 555.343 1851.51 565.274 1820.23 570.017 1782.97 L 591.078 1782.86 C 618.98 1784.02 652.53 1783.15 680.914 1783.16 L 845.02 1783.33 L 1032.87 1783.36 C 1066.15 1783.33 1104.04 1784.09 1136.89 1782.9 C 1145.54 1780.7 1150.7 1780.85 1159.51 1780.34 L 1160.35 1783 C 1161.23 1795.21 1168.5 1831.5 1170.99 1844.7 L 1192.65 1957.49 C 1144.2 1990.39 1176.97 2056.48 1226.53 2044.95 C 1239.02 2041.94 1249.78 2034.04 1256.39 2023.02 C 1273.3 1995.35 1259.8 1969.88 1234.27 1954.78 C 1235.68 1948.18 1236.91 1940.13 1237.84 1933.38 C 1244.68 1883.56 1255.02 1833.11 1261.42 1783.33 C 1302.12 1777.41 1321.99 1758.7 1331 1718.76 z" fill="rgb(253,253,252)" transform="translate(0,0)"></path>
<path d="M 321.03 2024.29 L 323.227 2026.83 C 306.561 2047.16 289.367 2043.82 266.584 2048 L 260.75 2048 C 263.84 2045.71 264.596 2045.97 268.272 2044.72 C 276.848 2041.82 295.64 2043.86 305.687 2037.66 C 311.943 2033.8 317.538 2031.25 321.03 2024.29 z" fill="rgb(11,10,11)" transform="translate(0,0)"></path>
<path d="M 441.205 2043.98 C 445.938 2043.92 451.283 2043.68 455.94 2043.81 C 457.28 2043.99 461.593 2044.18 462.465 2044.63 C 462.345 2045.03 462.224 2045.44 462.103 2045.85 C 449.878 2046.54 441.477 2046.88 429.262 2045.75 C 430.801 2044.49 430.836 2044.36 432.654 2043.69 C 435.611 2043.85 438.235 2043.96 441.205 2043.98 z" fill="rgb(11,10,11)" transform="translate(0,0)"></path>
<path d="M 1136.89 1782.9 C 1145.54 1780.7 1150.7 1780.85 1159.51 1780.34 L 1160.35 1783 C 1152.53 1783.1 1144.71 1783.06 1136.89 1782.9 z" fill="rgb(11,10,11)" transform="translate(0,0)"></path>
<path d="M 627.438 274.602 L 628.03 273.878 L 631.085 275.142 C 637.706 301.444 646.678 328.771 654.068 355.013 C 656.84 364.859 664.025 392.85 667.778 399.738 L 666.523 401.752 C 649.91 472.361 589.595 536.19 521.561 562.398 C 514.258 565.211 505.353 566.793 498.36 569.871 C 497.707 570.668 497.345 570.972 496.598 571.665 C 476.845 549.062 446.345 543.145 423.16 564.386 C 412.083 574.636 405.581 588.901 405.109 603.985 C 404.023 635.216 430.683 667.158 464.424 662.585 C 470.66 661.74 475.677 659.118 482.283 659.39 C 480.499 662.014 469.441 664.848 466.035 665.682 C 450.718 701.861 429.338 734.187 394.882 754.991 C 390.294 757.761 381.994 761.788 379.613 766.296 L 376.588 765.188 C 341.269 779.805 305.842 773.88 284.648 740.226 C 282.129 743.324 279.5 746.331 276.766 749.24 C 265.053 761.65 248.358 769.677 231.193 770.022 C 214.137 770.38 197.672 763.767 185.602 751.711 C 168.545 734.777 166.537 717.738 166.562 695.35 C 162.882 695.528 157.594 695.419 153.976 695.02 C 140.362 693.394 127.955 686.415 119.498 675.623 C 110.396 663.807 106.448 648.819 108.547 634.053 C 115.293 583.972 175.939 569.759 206.718 611.907 C 194.274 577.589 184.428 518.992 191.182 483.674 L 193.015 479.173 C 211.925 500.484 293.342 512.807 321.364 513.612 C 444.972 517.164 570.125 477.149 662.312 393.372 C 654.928 363.684 645.441 334.102 637.14 304.633 C 634.695 295.952 631.729 284.339 628.201 276.262 L 627.438 274.602 z" fill="rgb(11,10,11)" transform="translate(0,0)"></path>
<path d="M 666.523 401.752 C 688.034 435.583 693.206 472.12 695.71 511.258 C 696.33 520.957 697.767 531.824 702.306 540.462 C 711.419 557.893 740.163 556.666 735.061 581.623 C 732.123 595.994 715.418 597.106 708.149 609.762 C 697.196 628.833 705.964 693.644 667.939 684.479 C 660.324 682.644 652.959 677.049 649.385 670.435 C 644.78 663.206 646.818 654.8 645.51 652.708 C 638.357 659.793 647.095 673.982 653.019 679.431 C 659.311 685.128 667.607 688.096 676.085 687.683 C 679.056 687.521 683.923 686.594 686.843 685.811 C 676.61 704.975 667.226 718.929 651.67 734.318 C 602.928 782.541 520.551 801.864 457.473 772.182 C 454.826 770.934 449.597 767.084 447.141 767.248 C 448.712 770.648 451.852 772.215 455.118 774.297 C 460.217 782.565 468.442 787.312 475.181 793.819 C 482.341 800.734 481.441 804.437 490.865 808.126 L 485.039 827.509 C 481.889 829.676 478.593 831.624 475.176 833.339 C 443.481 848.96 391.03 837.875 373.898 805.067 C 367.308 792.446 374.974 778.542 379.613 766.296 C 381.994 761.788 390.294 757.761 394.882 754.991 C 429.338 734.187 450.718 701.861 466.035 665.682 C 469.441 664.848 480.499 662.014 482.283 659.39 C 475.677 659.118 470.66 661.74 464.424 662.585 C 430.683 667.158 404.023 635.216 405.109 603.985 C 405.581 588.901 412.083 574.636 423.16 564.386 C 446.345 543.145 476.845 549.062 496.598 571.665 C 497.345 570.972 497.707 570.668 498.36 569.871 C 505.353 566.793 514.258 565.211 521.561 562.398 C 589.595 536.19 649.91 472.361 666.523 401.752 z" fill="rgb(233,162,133)" transform="translate(0,0)"></path>
<path d="M 496.598 571.665 C 497.345 570.972 497.707 570.668 498.36 569.871 C 500.466 573.575 505.632 582.605 504.239 586.851 L 503.787 586.689 C 502.133 587.083 500.814 580.524 500.386 579.395 C 499.321 576.588 497.966 574.304 496.598 571.665 z" fill="rgb(11,10,11)" transform="translate(0,0)"></path>
<path d="M 601.904 576.735 C 620.58 572.626 639.035 584.492 643.047 603.189 C 647.058 621.886 635.096 640.279 616.379 644.193 C 597.798 648.079 579.57 636.224 575.587 617.664 C 571.605 599.104 583.365 580.814 601.904 576.735 z" fill="rgb(223,127,104)" transform="translate(0,0)"></path>
<path d="M 445.448 578.24 C 468.042 576.22 476.029 588.271 480.6 608.086 C 471.254 606.955 460.654 605.876 459.511 620.576 C 458.941 627.906 469.523 634.782 476.06 632.191 C 476.726 631.928 477.431 632.855 477.18 633.5 C 476.188 637.323 467.977 634.526 465.554 633.849 C 461.18 630.71 458.52 628.677 457.11 622.996 C 455.595 617.978 458.063 614.994 459.213 611.723 C 461.793 602.968 478.227 606.86 476.338 599.957 C 472.593 586.267 454.845 575.019 441.423 582.805 C 440.055 583.599 436.797 586.383 435.225 585.389 C 434.221 582.373 443.34 579.083 445.448 578.24 z" fill="rgb(11,10,11)" transform="translate(0,0)"></path>
<path d="M 572.037 1742.12 L 1321.44 1742.15 C 1318.32 1747.81 1313.9 1754.28 1309.49 1758.96 C 1301.11 1767.99 1290.37 1774.49 1278.48 1777.74 C 1264.22 1781.53 1244.71 1780.03 1229.62 1780.17 C 1206.38 1780.39 1182.76 1779.46 1159.51 1780.34 C 1150.7 1780.85 1145.54 1780.7 1136.89 1782.9 C 1104.04 1784.09 1066.15 1783.33 1032.87 1783.36 L 845.02 1783.33 L 680.914 1783.16 C 652.53 1783.15 618.98 1784.02 591.078 1782.86 C 584.556 1780.71 576.928 1780.99 570.023 1780.85 C 571.12 1767.85 571.547 1755.15 572.037 1742.12 z" fill="rgb(81,88,98)" transform="translate(0,0)"></path>
<path d="M 1115.71 1387.91 C 1123 1387.06 1147.06 1385.62 1152.31 1390.34 C 1163.28 1406.11 1162.51 1401.06 1161.79 1423.01 C 1137.12 1423.06 1112.46 1423.27 1087.79 1423.64 C 1087.8 1416.51 1089.13 1403.31 1084.69 1398.47 C 1079.83 1399.16 1076.11 1397.94 1078.64 1392.37 C 1086.71 1387.15 1104.48 1392.51 1115.71 1387.91 z" fill="rgb(81,88,98)" transform="translate(0,0)"></path>
<path d="M 129.688 2003.31 C 178.325 2020.83 219.873 2033.07 272.883 2030.45 C 289.92 2029.6 306.338 2025.27 321.03 2024.29 C 317.538 2031.25 311.943 2033.8 305.687 2037.66 C 295.64 2043.86 276.848 2041.82 268.272 2044.72 C 223.405 2045.66 179.028 2034.76 136.766 2020.66 C 134.895 2012.82 134.363 2009.68 129.101 2003.67 L 129.688 2003.31 z" fill="rgb(213,160,80)" transform="translate(0,0)"></path>
<path d="M 438.641 2019.53 C 462.487 2022.8 486.508 2024.63 510.573 2025.01 C 507.786 2031.35 507.318 2033.93 505.902 2040.8 C 492.502 2041.64 468.019 2042.19 455.94 2043.81 C 451.283 2043.68 445.938 2043.92 441.205 2043.98 C 439.901 2035.94 438.278 2028.4 436.5 2020.49 C 437.185 2020.1 437.909 2019.83 438.641 2019.53 z" fill="rgb(213,160,80)" transform="translate(0,0)"></path>
<path d="M 75.5034 1977.67 C 92.9205 1986.5 114.094 1995.14 129.688 2003.31 L 129.101 2003.67 C 121.445 2005.4 121.519 2007.79 117.308 2014.34 C 106.668 2010.12 80.927 1999.77 70.4024 1997.31 C 72.3025 1991.13 74.0093 1983.97 75.5034 1977.67 z" fill="rgb(213,160,80)" transform="translate(0,0)"></path>
<path d="M 399.045 2011.26 C 410.718 2015.27 422.278 2017 434.521 2018.89 C 436.497 2019.2 436.412 2018.57 438.641 2019.53 C 437.909 2019.83 437.185 2020.1 436.5 2020.49 C 438.278 2028.4 439.901 2035.94 441.205 2043.98 C 438.235 2043.96 435.611 2043.85 432.654 2043.69 C 426.484 2041.87 422.136 2043.33 414.99 2038.18 C 404.3 2030.47 401.578 2023.41 399.045 2011.26 z" fill="rgb(142,83,36)" transform="translate(0,0)"></path>
<path d="M 45.2051 1961.47 C 49.859 1963.81 71.9905 1975.29 75.5034 1977.67 C 74.0093 1983.97 72.3025 1991.13 70.4024 1997.31 C 50.0609 1988.89 45.0054 1985.38 45.2051 1961.47 z" fill="rgb(142,83,36)" transform="translate(0,0)"></path>
<path d="M 455.118 774.297 C 470.667 780.435 480.055 783.784 496.718 786.617 C 494.854 793.26 492.099 801.472 490.865 808.126 C 481.441 804.437 482.341 800.734 475.181 793.819 C 468.442 787.312 460.217 782.565 455.118 774.297 z" fill="rgb(223,127,104)" transform="translate(0,0)"></path>
<path d="M 1303.08 1440.71 C 1307.5 1443.95 1309.26 1445.59 1312.49 1450.09 C 1309.13 1447.46 1305.87 1443.95 1303.08 1440.71 z" fill="rgb(81,88,98)" transform="translate(0,0)"></path>
<path d="M 1318.51 1459 C 1321.25 1462.38 1321.86 1463.72 1323.22 1467.88 C 1320.77 1464.53 1320.12 1462.76 1318.51 1459 z" fill="rgb(81,88,98)" transform="translate(0,0)"></path>
<path d="M 363.87 795.612 L 367.076 794.466 C 369.208 796.749 370.467 805.791 373.253 809.691 C 398.056 844.399 455.193 855.437 488.651 827.536 C 513.306 848.95 528.317 870.068 538.942 901.12 C 533.397 898.912 527.452 896.301 521.796 894.47 C 487.094 883.236 460.401 864.218 423.408 880.166 C 399.225 890.794 380.152 910.451 370.259 934.944 C 369.501 936.878 369.167 938.126 369.001 940.206 L 369.721 941.686 C 371.998 940.348 373.874 933.494 375.061 930.714 C 388.77 898.6 432.322 867.373 468.305 878.427 C 499.646 888.055 531.027 900.919 562.047 912.323 L 623.716 934.858 C 634.42 938.769 650.591 944.297 660.756 949.066 C 676.208 941.868 754.58 916.078 769.997 914.366 C 779.12 913.365 788.35 914.481 796.97 917.628 C 814.217 923.752 827.169 938.25 834.855 954.485 C 844.582 975.108 845.703 998.755 837.97 1020.21 C 829.651 1043.31 818.717 1052.6 797.939 1062.18 C 672.3 1120.13 584.314 1096.38 462.197 1050.06 C 454.831 1047.27 409.577 1028.92 403.321 1028.79 C 413.278 1036.46 493.801 1063.24 509.659 1069.87 C 517.002 1072.18 581.909 1091.07 582.37 1093.34 C 594.273 1151.69 590.592 1213.83 590.785 1273.29 C 590.868 1298.79 594.945 1336.87 578.479 1357.17 C 578.153 1357.88 578.176 1357.77 577.536 1358.31 C 536.69 1401.7 398.696 1397.06 343.154 1385.33 C 331.805 1382.93 314.246 1380.79 303.699 1376.88 C 302.243 1376.63 300.795 1376.35 299.356 1376.01 C 255.005 1365.94 165.426 1336.03 136.777 1298.33 C 117.965 1273.57 151.13 1213.25 162.463 1186.15 L 221.467 1044.13 L 273.292 918.668 C 296.061 864.039 305.367 830.461 358.942 798.41 C 359.942 796.761 361.918 796.447 363.87 795.612 z" fill="rgb(3,71,131)" transform="translate(0,0)"></path>
<path d="M 509.659 1069.87 C 517.002 1072.18 581.909 1091.07 582.37 1093.34 C 594.273 1151.69 590.592 1213.83 590.785 1273.29 C 590.868 1298.79 594.945 1336.87 578.479 1357.17 C 578.153 1357.88 578.176 1357.77 577.536 1358.31 C 536.69 1401.7 398.696 1397.06 343.154 1385.33 C 331.805 1382.93 314.246 1380.79 303.699 1376.88 C 307.631 1374.46 320.716 1373.24 325.562 1372.83 C 430.415 1363.94 521.117 1287.7 529.35 1179.53 C 532.093 1143.48 528.277 1102.28 509.659 1069.87 z" fill="rgb(3,56,101)" transform="translate(0,0)"></path>
<path d="M 577.536 1358.31 C 577.887 1357.6 577.822 1357.49 578.479 1357.17 C 578.153 1357.88 578.176 1357.77 577.536 1358.31 z" fill="rgb(2,42,77)" transform="translate(0,0)"></path>
<path d="M 358.942 798.41 C 359.942 796.761 361.918 796.447 363.87 795.612 C 361.708 797.304 361.491 797.674 358.942 798.41 z" fill="rgb(2,42,77)" transform="translate(0,0)"></path>
<path d="M 151.567 1317.69 C 171.689 1331.76 193.122 1341.66 215.645 1351.2 C 289.408 1382.45 372.208 1397.61 452.216 1395.68 C 483.364 1394.92 523.063 1388.82 552.385 1378.19 L 566.078 1637.64 C 568.13 1682.18 570.396 1723.77 568.772 1768.76 C 566.321 1836.67 532.725 1890.54 459.999 1894.22 C 438.293 1895.04 418.006 1891.41 399.437 1879.38 C 381.235 1869.52 364.076 1849.16 357.322 1829.81 C 351.55 1813.28 349.785 1794.66 347.029 1777.37 C 342.596 1750.33 338.446 1723.23 334.577 1696.1 L 320.724 1600.95 C 317.275 1577.84 313.141 1552.93 310.773 1529.83 C 308.743 1529.44 306.724 1528.99 304.717 1528.49 C 261.272 1517.63 222.992 1490.58 204.291 1449.43 C 202.638 1445.79 201.653 1440.78 199.754 1437.65 C 196.203 1456.73 230.893 1492.36 244.717 1503.84 C 267.491 1518.67 281.811 1524.86 307.985 1532.22 C 314.16 1571.33 319.839 1610.51 325.02 1649.76 C 312.406 1681.99 300.665 1715.42 288.112 1747.1 C 269.664 1793.65 257.629 1844.54 206.547 1865.92 C 153.177 1888.25 92.4538 1861.46 70.2648 1809.43 C 69.8152 1808.37 69.3793 1807.31 68.9572 1806.24 C 57.2312 1773.93 65.5023 1747.31 71.9306 1715.17 L 88.1847 1634.12 L 143.726 1357.07 C 145.912 1343.86 148.527 1330.73 151.567 1317.69 z" fill="rgb(249,120,28)" transform="translate(0,0)"></path>
<path d="M 151.567 1317.69 C 171.689 1331.76 193.122 1341.66 215.645 1351.2 C 289.408 1382.45 372.208 1397.61 452.216 1395.68 C 483.364 1394.92 523.063 1388.82 552.385 1378.19 L 566.078 1637.64 C 568.13 1682.18 570.396 1723.77 568.772 1768.76 C 566.321 1836.67 532.725 1890.54 459.999 1894.22 C 438.293 1895.04 418.006 1891.41 399.437 1879.38 C 416.933 1878.06 431.312 1875.49 447.513 1868.68 C 496.343 1848.14 509.441 1790.66 515.3 1743.23 C 521.445 1693.49 521.324 1641.63 521.383 1591.45 C 520.953 1560.39 521.787 1529.23 517.591 1498.37 C 515.788 1485.11 512.64 1473.61 507.417 1461.35 C 484.049 1406.51 413.429 1413.43 364.56 1410.51 C 334.541 1408.95 304.659 1405.4 275.107 1399.91 C 221.748 1389.6 192.73 1375.32 143.726 1357.07 C 145.912 1343.86 148.527 1330.73 151.567 1317.69 z" fill="rgb(221,95,19)" transform="translate(0,0)"></path>
<path d="M 244.717 1503.84 C 267.491 1518.67 281.811 1524.86 307.985 1532.22 C 314.16 1571.33 319.839 1610.51 325.02 1649.76 C 312.406 1681.99 300.665 1715.42 288.112 1747.1 C 269.664 1793.65 257.629 1844.54 206.547 1865.92 C 153.177 1888.25 92.4538 1861.46 70.2648 1809.43 C 69.8152 1808.37 69.3793 1807.31 68.9572 1806.24 C 75.633 1808.89 83.0847 1813.55 89.5943 1816.87 C 106.498 1825.57 125.926 1828.03 144.462 1823.82 C 173.013 1817.24 191.861 1799.06 206.73 1775.18 C 260.638 1688.57 267.164 1601.14 244.717 1503.84 z" fill="rgb(221,95,19)" transform="translate(0,0)"></path>
<path d="M 990.296 1028.91 C 1001.32 1028.28 1014.35 1028.89 1025.53 1029.14 C 1028.49 1028.9 1032.39 1027.73 1034.67 1029.7 C 1073.1 1031.94 1212.03 1045.12 1213.7 1093.94 C 1214.94 1129.8 1220.8 1199.17 1218.69 1235.19 C 1211.38 1359.73 1058.83 1387.07 964.094 1380.65 C 938.523 1379.14 913.216 1374.64 888.694 1367.23 C 829.872 1350.87 773.331 1308.64 766.868 1243.95 C 764.806 1223.3 767.704 1200.16 768.518 1179.26 C 769.4 1156.63 770.744 1134.08 770.997 1111.4 C 771.118 1100.61 772.301 1088.84 779.566 1080.21 C 817.949 1043.39 879.425 1039.4 929.557 1031.87 C 931.957 1031.51 933.529 1031.86 935.24 1033.38 C 934.452 1036.49 933.385 1039.75 929.644 1040.02 C 890.719 1042.93 849.239 1050.15 813.268 1065.61 C 799.492 1071.52 789.118 1080.39 784.255 1094.62 C 791.079 1117.79 819.581 1128.85 841.121 1134.85 C 941.95 1162.91 1091.93 1167.78 1185.87 1119.23 C 1189.89 1116.54 1194.63 1113.12 1198.21 1109.86 C 1202.66 1105.82 1204.32 1099.94 1204.48 1094.22 C 1204.62 1088.96 1200.87 1081.59 1196.93 1078.33 C 1155.7 1044.3 1051.93 1037.1 1000.66 1037.25 L 990.296 1028.91 z" fill="rgb(224,222,217)" transform="translate(0,0)"></path>
<path d="M 990.296 1028.91 C 1001.32 1028.28 1014.35 1028.89 1025.53 1029.14 C 1028.49 1028.9 1032.39 1027.73 1034.67 1029.7 C 1073.1 1031.94 1212.03 1045.12 1213.7 1093.94 C 1214.94 1129.8 1220.8 1199.17 1218.69 1235.19 C 1211.38 1359.73 1058.83 1387.07 964.094 1380.65 C 938.523 1379.14 913.216 1374.64 888.694 1367.23 C 897.496 1364.56 928.76 1361.04 939.362 1359.58 C 993.93 1352.05 1046.94 1338.48 1092.4 1306.17 C 1144.78 1268.94 1176.62 1213.82 1185.72 1150.6 C 1186.86 1142.63 1190.42 1125.64 1185.87 1119.23 C 1189.89 1116.54 1194.63 1113.12 1198.21 1109.86 C 1202.66 1105.82 1204.32 1099.94 1204.48 1094.22 C 1204.62 1088.96 1200.87 1081.59 1196.93 1078.33 C 1155.7 1044.3 1051.93 1037.1 1000.66 1037.25 L 990.296 1028.91 z" fill="rgb(197,189,174)" transform="translate(0,0)"></path>
<path d="M 1025.53 1029.14 C 1028.49 1028.9 1032.39 1027.73 1034.67 1029.7 C 1030.9 1029.98 1029.22 1029.69 1025.53 1029.14 z" fill="rgb(81,88,98)" transform="translate(0,0)"></path>
<path d="M 585.501 1091.72 C 660.221 1108.17 714.459 1096.46 784.635 1071.37 C 770.436 1086.44 768.782 1091.29 768.931 1112.65 C 745.408 1116.01 678.133 1125.94 683.17 1163.19 C 687.198 1192.97 739.096 1202.2 764.836 1206.02 C 762.745 1229.85 763.02 1252.24 771.783 1274.87 C 799.872 1347.4 883.532 1376.17 954.617 1382.29 C 959.791 1382.73 964.969 1383.11 970.15 1383.44 C 962.343 1388.44 961.388 1390.27 957.013 1398.63 C 908.579 1396.55 927.174 1415.08 916.241 1424.28 L 914.458 1424.26 C 911.485 1420.38 910.429 1406.37 914.748 1402.77 C 915.774 1401.92 918.454 1401.08 919.839 1400.62 C 923.165 1396.55 922.144 1393.86 921.9 1387.96 C 918.318 1387.92 908.464 1387.58 905.376 1387.96 C 891.132 1386.72 867.698 1387.25 852.696 1387.21 C 832.398 1391.79 833.365 1406.02 833.765 1423.13 L 557.216 1423.59 C 556.52 1409.51 555.088 1390.96 555.096 1377.22 C 576.178 1367.28 592.58 1350.83 592.646 1325.86 C 592.805 1266.18 594.718 1205.16 591.182 1145.62 C 590.03 1127.58 588.135 1109.6 585.501 1091.72 z" fill="rgb(253,253,252)" transform="translate(0,0)"></path>
<path d="M 258.794 886.042 C 263.103 882.321 286.206 868.142 292.067 865.171 L 292.85 866.01 C 289.564 874.699 285.37 882.269 281.855 890.804 L 240.644 989.879 C 226.464 1024.03 209.271 1070.99 193.477 1103.49 C 186.693 1099.01 179.838 1094.37 173.011 1089.98 C 165.831 1085.2 159.302 1080.56 151.485 1076.89 C 152.414 1080.16 168.817 1090.25 172.28 1092.43 C 178.965 1096.79 186.137 1101.29 192.551 1105.98 C 184.017 1127.29 167.906 1170.35 158.234 1189.29 C 143.177 1177.39 129.108 1164.3 116.168 1150.13 C 114.331 1148.95 113.37 1147.39 112.302 1145.54 L 110.978 1144.13 C 109.532 1142.65 109.425 1142.56 108.397 1140.77 L 106.847 1139 C 59.9593 1079.3 93.6123 1033.88 136.926 987.36 C 137.596 986.378 137.41 986.494 138.303 985.875 C 163.577 957.91 204.672 924.427 234.684 902.446 C 235.224 901.878 235.112 901.901 235.801 901.651 C 243.154 896.418 251.276 891.134 258.794 886.042 z" fill="rgb(3,71,131)" transform="translate(0,0)"></path>
<path d="M 258.794 886.042 C 263.103 882.321 286.206 868.142 292.067 865.171 L 292.85 866.01 C 289.564 874.699 285.37 882.269 281.855 890.804 L 240.644 989.879 C 226.464 1024.03 209.271 1070.99 193.477 1103.49 C 186.693 1099.01 179.838 1094.37 173.011 1089.98 C 177.153 1077.19 189.267 1051.46 194.85 1037.92 C 207.921 1006.2 222.148 973.941 235.179 942.155 C 238.532 933.975 258.575 891.365 258.794 886.042 z" fill="rgb(3,56,101)" transform="translate(0,0)"></path>
<path d="M 172.28 1092.43 C 178.965 1096.79 186.137 1101.29 192.551 1105.98 C 184.017 1127.29 167.906 1170.35 158.234 1189.29 C 143.177 1177.39 129.108 1164.3 116.168 1150.13 C 114.331 1148.95 113.37 1147.39 112.302 1145.54 L 110.978 1144.13 C 109.532 1142.65 109.425 1142.56 108.397 1140.77 L 106.847 1139 C 148.123 1139.46 158.041 1129.2 172.28 1092.43 z" fill="rgb(3,56,101)" transform="translate(0,0)"></path>
<path d="M 112.302 1145.54 C 114.4 1146.91 115.383 1147.68 116.168 1150.13 C 114.331 1148.95 113.37 1147.39 112.302 1145.54 z" fill="rgb(2,42,77)" transform="translate(0,0)"></path>
<path d="M 108.397 1140.77 C 110.096 1141.95 109.978 1142.21 110.978 1144.13 C 109.532 1142.65 109.425 1142.56 108.397 1140.77 z" fill="rgb(2,42,77)" transform="translate(0,0)"></path>
<path d="M 138.303 985.875 C 137.875 986.922 137.971 986.864 136.926 987.36 C 137.596 986.378 137.41 986.494 138.303 985.875 z" fill="rgb(3,56,101)" transform="translate(0,0)"></path>
<path d="M 234.684 902.446 C 235.224 901.878 235.112 901.901 235.801 901.651 C 235.367 902.334 235.508 902.171 234.684 902.446 z" fill="rgb(3,56,101)" transform="translate(0,0)"></path>
<path d="M 537.897 1901.98 C 560.028 1907.79 560.666 1923.63 557.339 1943.04 L 595.728 1927.67 C 616.941 1920.44 639.69 1914.89 661.091 1925.49 C 672.259 1930.95 680.746 1940.69 684.625 1952.5 C 687.579 1961.42 687.399 1968.46 686.832 1977.68 C 665.137 1989.95 638.793 1999.4 614.939 2006.53 C 549.304 2026.39 465.458 2026.61 399.292 2008.85 C 400.138 1989.85 407.978 1971.75 409.136 1953.6 C 409.652 1945.52 403.269 1930.6 410.276 1921.09 C 421.308 1906.11 442.627 1919.14 456.13 1923.73 C 462.521 1925.92 469.18 1927.23 475.925 1927.63 C 504.084 1929.02 514.346 1906.43 537.897 1901.98 z" fill="rgb(239,199,132)" transform="translate(0,0)"></path>
<path d="M 595.728 1927.67 C 616.941 1920.44 639.69 1914.89 661.091 1925.49 C 672.259 1930.95 680.746 1940.69 684.625 1952.5 C 687.579 1961.42 687.399 1968.46 686.832 1977.68 C 665.137 1989.95 638.793 1999.4 614.939 2006.53 C 619.921 2000.54 624.553 1994.95 627.676 1987.76 C 632.098 1977.42 632.208 1965.75 627.98 1955.33 C 621.85 1939.97 609.806 1933.84 595.728 1927.67 z" fill="rgb(213,160,80)" transform="translate(0,0)"></path>
<path d="M 45.6466 1958.08 C 51.4861 1939.82 60.2512 1927.93 67.7785 1910.98 C 70.3473 1901.26 69.2157 1879.26 81.399 1874.51 C 101.28 1866.76 119.094 1896.53 140.507 1902.92 C 167.114 1910.86 181.816 1891.16 199.083 1896.55 C 201.252 1898.28 201.283 1898.16 202.937 1900.37 C 211.382 1915.17 199.508 1930.25 190.265 1941.77 C 206.293 1941.07 243.468 1938.72 257.818 1941.75 C 293.385 1943.5 331.531 1962.36 328.472 2003.37 C 328.029 2009.27 326.509 2015.05 323.988 2020.4 C 303.464 2024.94 259.605 2030.79 238.962 2027.08 C 182.332 2026.04 93.972 1987.79 45.6466 1958.08 z" fill="rgb(239,199,132)" transform="translate(0,0)"></path>
<path d="M 257.818 1941.75 C 293.385 1943.5 331.531 1962.36 328.472 2003.37 C 328.029 2009.27 326.509 2015.05 323.988 2020.4 C 303.464 2024.94 259.605 2030.79 238.962 2027.08 C 281.521 2025.29 294.541 1967.59 257.818 1941.75 z" fill="rgb(213,160,80)" transform="translate(0,0)"></path>
<path d="M 199.083 1896.55 C 201.252 1898.28 201.283 1898.16 202.937 1900.37 C 200.765 1899.05 200.64 1898.66 199.083 1896.55 z" fill="rgb(142,83,36)" transform="translate(0,0)"></path>
<path d="M 935.187 856.03 C 935.793 855.992 936.4 855.967 937.007 855.953 C 942.707 855.839 946.907 856.563 951.117 860.667 C 965.713 874.897 945.351 884.683 936.034 893.009 C 934.341 894.522 934.128 895.27 934.173 897.334 C 939.663 895.715 944.586 887.752 949.869 886.899 C 962.899 884.795 963.789 904.51 956.38 911.541 C 952.044 915.655 946.36 918.971 943.209 923.048 L 943.572 924.241 C 950.264 922.93 953.253 914.177 959.11 916.404 C 972.3 931.076 950.099 941.794 944.584 952.027 C 950.094 950.901 954.379 940.367 961.881 942.365 C 965.411 946.474 964.99 955.941 962.459 960.086 C 951.109 978.673 915.27 997.733 896.193 1005.29 C 878.743 1012.11 861.522 1012.08 843.229 1011.76 C 845.262 1002.57 845.862 993.127 845.009 983.757 C 842.604 957.411 831.206 938.31 811.113 921.707 C 833.294 904.55 824.599 887.995 861.514 865.834 L 869.789 882.098 C 866.52 882.831 864.404 882.939 861.978 885.185 C 866.216 887.67 894.62 880.285 900.289 878.434 C 912.946 874.301 923.364 860.825 935.187 856.03 z" fill="rgb(233,162,133)" transform="translate(0,0)"></path>
<path d="M 1003.42 1039.86 C 1053.77 1039.87 1111.22 1045.34 1158.93 1060.91 C 1177.13 1066.84 1193.97 1074.11 1202.78 1091.84 C 1203.22 1094.12 1203.61 1094.75 1202.71 1096.81 C 1198.33 1110.24 1188.41 1114.76 1176.72 1120.8 C 1175.07 1118.03 1173.09 1115.47 1170.82 1113.18 C 1153.64 1096.17 1141.36 1110.45 1126.83 1107.18 C 1114.26 1104.35 1108.3 1088.47 1086.29 1088.47 C 1069.21 1088.46 1062.36 1094.91 1046.76 1096.35 C 1045.49 1097 1038.12 1094.79 1037.72 1093.88 C 1027.25 1070.21 1021.64 1058.33 1003.42 1039.86 z" fill="rgb(197,189,174)" transform="translate(0,0)"></path>
<path d="M 1202.78 1091.84 C 1203.22 1094.12 1203.61 1094.75 1202.71 1096.81 C 1202.21 1094.32 1202.27 1094.3 1202.78 1091.84 z" fill="rgb(100,106,116)" transform="translate(0,0)"></path>
<path d="M 1172.99 1838.88 C 1194.52 1821.93 1227.36 1812.28 1254.51 1810.29 C 1253.1 1821.02 1251.48 1831.72 1249.66 1842.38 C 1249.75 1843.36 1249.76 1843.27 1249.31 1844.14 C 1248.49 1852.28 1247.28 1860.38 1245.7 1868.4 C 1245.79 1869.38 1245.79 1869.29 1245.35 1870.19 C 1244.92 1873.84 1244.58 1877.87 1243.7 1881.4 C 1243.82 1882.38 1243.81 1882.3 1243.42 1883.21 L 1242.65 1888.38 C 1242.69 1889.37 1242.69 1889.29 1242.32 1890.23 L 1241.69 1894.26 C 1241.77 1895.29 1241.77 1895.2 1241.35 1896.13 C 1240.01 1906.1 1237.82 1921.12 1235.71 1931.02 C 1235.67 1931.91 1235.76 1932.01 1235.4 1932.74 C 1234.91 1938.34 1233.18 1947.69 1232.26 1953.53 C 1216.34 1949.63 1209.61 1950.29 1194.75 1956.43 C 1187.57 1918.53 1178.67 1876.63 1172.99 1838.88 z" fill="rgb(100,106,116)" transform="translate(0,0)"></path>
<path d="M 1243.7 1881.4 C 1243.82 1882.38 1243.81 1882.3 1243.42 1883.21 C 1243.42 1882.34 1243.3 1882.12 1243.7 1881.4 z" fill="rgb(81,88,98)" transform="translate(0,0)"></path>
<path d="M 1245.7 1868.4 C 1245.79 1869.38 1245.79 1869.29 1245.35 1870.19 C 1245.39 1869.31 1245.28 1869.13 1245.7 1868.4 z" fill="rgb(81,88,98)" transform="translate(0,0)"></path>
<path d="M 1241.69 1894.26 C 1241.77 1895.29 1241.77 1895.2 1241.35 1896.13 C 1241.4 1895.21 1241.3 1895.05 1241.69 1894.26 z" fill="rgb(81,88,98)" transform="translate(0,0)"></path>
<path d="M 1249.66 1842.38 C 1249.75 1843.36 1249.76 1843.27 1249.31 1844.14 C 1249.38 1843.23 1249.29 1843.1 1249.66 1842.38 z" fill="rgb(81,88,98)" transform="translate(0,0)"></path>
<path d="M 1235.71 1931.02 C 1235.67 1931.91 1235.76 1932.01 1235.4 1932.74 C 1235.42 1931.76 1235.39 1932 1235.71 1931.02 z" fill="rgb(81,88,98)" transform="translate(0,0)"></path>
<path d="M 1242.65 1888.38 C 1242.69 1889.37 1242.69 1889.29 1242.32 1890.23 C 1242.36 1889.38 1242.26 1889.1 1242.65 1888.38 z" fill="rgb(81,88,98)" transform="translate(0,0)"></path>
<path d="M 920.614 1043.41 C 922.724 1043.1 929.282 1042.96 931.733 1042.83 C 923.16 1066.87 924.025 1079.94 928.343 1104.2 C 927.2 1105.27 923.879 1105.27 922.419 1105.09 C 913.782 1104.01 908.514 1110.73 900.147 1110.67 C 889.464 1110.6 885.036 1098.24 875.654 1096.97 C 863.726 1095.37 851.697 1104.46 842.859 1110.92 C 830.27 1109.22 826.092 1108.95 815.276 1115.26 C 813.755 1116.79 811.839 1118.34 810.169 1119.76 C 801.057 1114.77 789.406 1108.08 787.784 1096.63 C 787.22 1092.66 789.449 1086.24 792.326 1083.52 C 821.446 1056.03 883.377 1046.9 920.614 1043.41 z" fill="rgb(197,189,174)" transform="translate(0,0)"></path>
<path d="M 265.2 1813.25 C 295.693 1826.47 296.058 1822.72 288.725 1855.4 C 288.823 1856.39 288.818 1856.3 288.389 1857.2 C 286.6 1877.24 277.495 1919.62 273.494 1940.87 C 257.049 1937.96 241.917 1937.31 225.28 1937.87 C 224.74 1923.99 217.982 1878.32 214.728 1865.01 C 237.926 1851.19 251.795 1836.59 265.2 1813.25 z" fill="rgb(100,106,116)" transform="translate(0,0)"></path>
<path d="M 288.725 1855.4 C 288.823 1856.39 288.818 1856.3 288.389 1857.2 C 288.424 1856.34 288.324 1856.11 288.725 1855.4 z" fill="rgb(81,88,98)" transform="translate(0,0)"></path>
<path d="M 1210.65 2043.45 C 1203.59 2042.47 1196.83 2039.95 1190.86 2036.05 C 1170 2022.41 1165.83 1993.42 1179.62 1973.08 C 1192.24 1954.46 1220.19 1947.09 1239.1 1960.5 C 1239.85 1960.83 1239.75 1960.82 1240.37 1961.42 L 1242.62 1962.87 C 1243.39 1963.37 1243.61 1963.6 1244.16 1964.29 C 1253.17 1971.98 1259.18 1981.23 1260.46 1993.21 C 1260.75 1994.08 1260.69 1994.08 1260.77 1995 C 1261.23 2009.74 1256.45 2022.98 1245.15 2032.83 C 1244.76 2033.39 1244.64 2033.37 1243.98 2033.73 C 1236.85 2039.69 1230.16 2042.57 1220.79 2043.46 C 1217 2044.26 1214.44 2044.09 1210.65 2043.45 z" fill="rgb(100,106,116)" transform="translate(0,0)"></path>
<path d="M 1210.65 2043.45 C 1214.58 2043.13 1216.88 2043.03 1220.79 2043.46 C 1217 2044.26 1214.44 2044.09 1210.65 2043.45 z" fill="rgb(81,88,98)" transform="translate(0,0)"></path>
<path d="M 1240.37 1961.42 L 1242.62 1962.87 C 1243.39 1963.37 1243.61 1963.6 1244.16 1964.29 C 1242.09 1963.45 1241.99 1963.03 1240.37 1961.42 z" fill="rgb(81,88,98)" transform="translate(0,0)"></path>
<path d="M 1243.98 2033.73 C 1244.46 2033.05 1244.38 2033.05 1245.15 2032.83 C 1244.76 2033.39 1244.64 2033.37 1243.98 2033.73 z" fill="rgb(81,88,98)" transform="translate(0,0)"></path>
<path d="M 1260.46 1993.21 C 1260.75 1994.08 1260.69 1994.08 1260.77 1995 C 1260.43 1994.05 1260.47 1994.22 1260.46 1993.21 z" fill="rgb(81,88,98)" transform="translate(0,0)"></path>
<path d="M 837.423 742.125 C 849.705 742.02 858.548 748.601 864.755 758.998 C 885.286 793.389 892.762 834.391 910.635 870.118 C 903.7 873.824 899.249 875.892 891.739 878.393 C 885.317 880.292 878.597 881.341 871.997 882.528 C 858.623 847.979 835.268 814.291 823.479 778.748 C 818.012 762.265 818.463 747.796 837.423 742.125 z" fill="rgb(142,83,36)" transform="translate(0,0)"></path>
<path d="M 842.982 762.783 C 846.658 761.133 850.941 761.614 854.158 764.04 C 857.376 766.465 859.018 770.45 858.444 774.438 C 857.869 778.426 855.17 781.786 851.399 783.205 C 845.812 785.307 839.566 782.593 837.291 777.074 C 835.016 771.555 837.536 765.227 842.982 762.783 z" fill="rgb(11,10,11)" transform="translate(0,0)"></path>
<path d="M 843.516 765.622 C 847.529 763.384 852.596 764.835 854.817 768.857 C 857.037 772.879 855.566 777.939 851.535 780.144 C 847.528 782.335 842.503 780.874 840.295 776.875 C 838.087 772.877 839.527 767.846 843.516 765.622 z" fill="rgb(253,253,252)" transform="translate(0,0)"></path>
<path d="M 973.366 1152.44 C 947.993 1133.35 930.368 1063.65 972.188 1058.23 C 1010.85 1053.21 1037.34 1117.99 1017.59 1152.4 C 1003.39 1153.14 989.326 1152.86 975.121 1152.71 C 974.27 1152.71 974.074 1152.83 973.366 1152.44 z" fill="rgb(120,68,27)" transform="translate(0,0)"></path>
<path d="M 973.366 1152.44 C 974.344 1152.43 974.186 1152.41 975.121 1152.71 C 974.27 1152.71 974.074 1152.83 973.366 1152.44 z" fill="rgb(70,41,15)" transform="translate(0,0)"></path>
<path d="M 921.515 995.687 C 931.114 990.607 938.001 986.254 946.865 980.098 C 952.972 993.364 957.098 1005.73 961.745 1019.48 C 1008.69 1034.87 1036.13 1074.69 1038.28 1123.21 C 1039.02 1124.81 1039.02 1125.19 1038.29 1126.79 C 1038.15 1136.04 1036.73 1143.04 1034.33 1151.78 C 1030.02 1151.99 1025.36 1152.45 1021.03 1152.79 C 1032.11 1126.5 1028.94 1101.6 1013.25 1078.04 C 987.996 1040.11 940.793 1049.79 944.169 1098.41 C 945.604 1119.08 953.013 1138 968.544 1152.17 L 955.106 1151.55 C 934.722 1123.32 921.144 1088.07 930.821 1053.81 C 937.314 1030.81 943.663 1033.9 928.336 1009.22 C 926.442 1006.17 923.295 999.305 921.515 995.687 z" fill="rgb(142,83,36)" transform="translate(0,0)"></path>
<path d="M 1038.28 1123.21 C 1039.02 1124.81 1039.02 1125.19 1038.29 1126.79 C 1038.09 1125.02 1038.06 1124.94 1038.28 1123.21 z" fill="rgb(70,41,15)" transform="translate(0,0)"></path>
<path d="M 1081.32 1091.44 C 1102.48 1091.37 1104.12 1095.34 1119.57 1107.24 C 1126.21 1111.84 1136.29 1110.4 1143.49 1107.92 C 1153.07 1104.62 1170.99 1111.56 1173.28 1121.95 C 1168.02 1128.81 1129.52 1138.27 1119.43 1140.8 C 1092.39 1146.5 1064.94 1150.03 1037.34 1151.36 C 1043.16 1128.51 1041.84 1120.35 1037.77 1098.44 C 1039.65 1098.58 1049.64 1099.27 1050.73 1099.02 C 1063.06 1096.19 1067.97 1092.58 1081.32 1091.44 z" fill="rgb(213,160,80)" transform="translate(0,0)"></path>
<path d="M 1053.85 1124.12 C 1059.54 1124.05 1076.42 1123.5 1072.5 1136.01 C 1071.54 1139.09 1066.1 1140.95 1063.06 1141.73 C 1045.86 1141.76 1034.2 1131.93 1053.85 1124.12 z" fill="rgb(239,199,132)" transform="translate(0,0)"></path>
<path d="M 1087.12 1126.68 C 1090.31 1126.28 1093.22 1128.55 1093.61 1131.74 C 1093.99 1134.93 1091.7 1137.83 1088.51 1138.19 C 1085.34 1138.55 1082.48 1136.29 1082.1 1133.13 C 1081.72 1129.96 1083.96 1127.08 1087.12 1126.68 z" fill="rgb(239,199,132)" transform="translate(0,0)"></path>
<path d="M 866.646 1100.12 C 886.551 1099.16 881.891 1107.99 898.509 1112.93 C 903.412 1114.39 925.962 1102.64 929.244 1110.35 C 935.912 1126.02 941.068 1137.38 951.419 1151.16 C 936.419 1149.89 921.444 1148.35 906.5 1146.54 C 871.382 1141.55 844.943 1135.14 812.806 1120.93 C 823.101 1110.82 830.638 1112.16 843.889 1113.36 C 851.942 1107.48 857 1103.14 866.646 1100.12 z" fill="rgb(249,120,28)" transform="translate(0,0)"></path>
<path d="M 761.555 1116.35 C 762.255 1116.22 765.702 1116.05 766.613 1116 L 768.267 1117.67 C 769.436 1122.95 768.218 1132.3 767.909 1138.37 C 757.971 1138.99 734.48 1142.51 726.82 1147.55 C 692.692 1170.02 754.748 1180.01 766.025 1181.74 C 765.586 1189 765.21 1196.26 764.896 1203.52 L 746.5 1200.65 C 725.505 1196.05 667.644 1180.35 690.92 1144.92 C 702.997 1126.53 740.124 1119.39 761.555 1116.35 z" fill="rgb(224,222,217)" transform="translate(0,0)"></path>
<path d="M 1217.78 1115.75 C 1242.94 1118.3 1267.73 1122.4 1287.97 1138.79 C 1288.99 1139.24 1289 1139.15 1289.48 1140.1 C 1324.85 1182.26 1250.51 1200.41 1221.03 1203.43 C 1220.77 1195.88 1220.42 1188.33 1219.98 1180.79 C 1229.13 1179.64 1279.1 1173.4 1265.3 1153.26 C 1258.11 1142.79 1231.5 1139.65 1218.29 1137.63 L 1217.78 1115.75 z" fill="rgb(224,222,217)" transform="translate(0,0)"></path>
<path d="M 1287.97 1138.79 C 1288.99 1139.24 1289 1139.15 1289.48 1140.1 C 1288.47 1139.47 1288.65 1139.67 1287.97 1138.79 z" fill="rgb(100,106,116)" transform="translate(0,0)"></path>
<path d="M 940.269 1401.09 C 948.838 1401.94 964.468 1401.54 973.382 1401.53 L 1032.45 1401.37 C 1041.6 1401.35 1053.01 1400.79 1061.96 1402.06 C 1065.05 1402.5 1070.3 1406.79 1072.95 1408.8 C 1074.64 1413.51 1075.85 1418.38 1077.12 1423.22 L 1060.09 1423.13 C 1015.01 1423.08 967.821 1424.01 923.109 1423.46 L 921.812 1422.06 C 920.899 1411.41 929.726 1402.21 940.269 1401.09 z" fill="rgb(81,88,98)" transform="translate(0,0)"></path>
<path d="M 852.696 1387.21 C 867.698 1387.25 891.132 1386.72 905.376 1387.96 C 908.253 1391.7 914.1 1388.09 918.856 1391.1 C 920.614 1394.3 920.626 1393.18 919.983 1396.04 C 917.749 1398.49 914.095 1399.28 910.8 1400.42 C 909.804 1403.04 910.447 1419.6 910.51 1423.63 C 890.08 1422.13 857.596 1423.18 836.291 1423.3 C 835.862 1415.29 835.241 1409.62 836.68 1401.68 C 844.866 1390.27 845.498 1394.24 852.696 1387.21 z" fill="rgb(81,88,98)" transform="translate(0,0)"></path>
<path d="M 917.693 997.928 C 921.34 999.487 931.816 1023.32 934.446 1028.78 C 902.893 1032.2 869.25 1037.55 838.775 1046.13 L 822.803 1050.91 C 834.018 1036.45 837.758 1031.63 842.758 1014.08 C 874.754 1015.1 889.04 1013.02 917.693 997.928 z" fill="rgb(253,253,252)" transform="translate(0,0)"></path>
<path d="M 430.14 1894.48 C 461.804 1900.53 487.824 1896.19 516.048 1881 C 516.61 1885.56 516.994 1890.54 517.442 1895.16 C 517.712 1899.08 518.15 1903.76 518.177 1907.61 C 486.811 1931.68 466.439 1928.36 432.704 1911.61 C 430.203 1910.55 430.346 1897.63 430.14 1894.48 z" fill="rgb(223,127,104)" transform="translate(0,0)"></path>
<path d="M 517.442 1895.16 C 517.712 1899.08 518.15 1903.76 518.177 1907.61 C 486.811 1931.68 466.439 1928.36 432.704 1911.61 C 438.655 1910.23 448.535 1911.63 455.05 1911.89 C 482.13 1912.93 494.387 1906.81 517.442 1895.16 z" fill="rgb(233,162,133)" transform="translate(0,0)"></path>
<path d="M 293.032 1741.9 C 308.545 1741.75 323.568 1742.11 339.146 1741.51 C 340.735 1754.6 343.392 1767.68 345.28 1780.83 C 340.698 1780.8 336.116 1780.84 331.535 1780.96 C 313.629 1781.16 295.991 1780.69 278.083 1780.85 C 282.739 1768.5 288.788 1754.02 293.032 1741.9 z" fill="rgb(81,88,98)" transform="translate(0,0)"></path>
<path d="M 682.615 1982.97 C 685.215 1998.38 649.07 2011.89 638.04 2015.86 C 604.695 2027.86 570.623 2034 535.541 2038.23 C 531.771 2038.69 528.816 2039.36 524.972 2039.18 L 523.875 2037.6 C 521.95 2031.84 521.424 2029.94 518.125 2024.93 C 571.962 2020.96 635.04 2009.9 682.615 1982.97 z" fill="rgb(213,160,80)" transform="translate(0,0)"></path>
<path d="M 102.588 1855.16 C 130.573 1873.32 148.694 1877.29 181.798 1875.96 C 180.846 1880.39 179.416 1886.25 178.846 1890.61 C 172.49 1920.05 101.488 1888.81 99.6998 1865.89 C 101.264 1862.5 101.841 1858.82 102.588 1855.16 z" fill="rgb(223,127,104)" transform="translate(0,0)"></path>
<path d="M 99.6998 1865.89 C 105.165 1867.8 111.86 1873.42 117.07 1876.65 C 138.114 1889.69 155.03 1890.27 178.846 1890.61 C 172.49 1920.05 101.488 1888.81 99.6998 1865.89 z" fill="rgb(233,162,133)" transform="translate(0,0)"></path>
<path d="M 325.267 1656.65 C 328.032 1661.52 336.743 1727.81 338.492 1738.88 L 306.75 1738.96 L 293.967 1739.02 C 304.034 1714.53 316.522 1681.55 325.267 1656.65 z" fill="rgb(100,106,116)" transform="translate(0,0)"></path>
<path d="M 211.876 1866.22 C 215.241 1871.15 222.035 1929 223.173 1937.97 C 213.468 1937.98 205.498 1938.03 195.851 1938.84 C 198.515 1935.05 201.053 1930.76 203.501 1926.79 C 214.261 1906.51 205.902 1885.98 179.965 1895.51 L 184.506 1875.49 C 195.435 1873.13 201.853 1870.56 211.876 1866.22 z" fill="rgb(253,253,252)" transform="translate(0,0)"></path>
<path d="M 761.953 1141.38 C 762.85 1141.28 767.411 1140.51 767.397 1142.21 C 767.299 1154.25 766.471 1167.49 765.878 1179.41 C 755.523 1177.57 742.653 1175.04 732.854 1171.38 C 692.112 1155.34 747.356 1143.27 761.953 1141.38 z" fill="rgb(253,253,252)" transform="translate(0,0)"></path>
<path d="M 1218.5 1140.51 C 1224.91 1141.18 1231.3 1142.12 1237.63 1143.32 C 1250.59 1145.9 1280.32 1154.64 1256.85 1169.33 C 1243.1 1175.26 1234.39 1175.89 1219.98 1178.51 C 1219.35 1165.75 1219.06 1153.23 1218.5 1140.51 z" fill="rgb(253,253,252)" transform="translate(0,0)"></path>
<path d="M 973.53 1384.21 C 992.767 1384.9 1028.91 1377.15 1037.78 1397.81 C 1035.66 1399.1 1028.97 1398.67 1026.16 1398.66 C 1004.27 1398.43 980.519 1399.39 958.866 1398.5 C 963.895 1391.52 966.14 1388.49 973.53 1384.21 z" fill="rgb(81,88,98)" transform="translate(0,0)"></path>
<path d="M 912.104 865.015 C 913.526 864.516 913.454 864.595 914.139 865.938 C 913.461 866.243 913.001 866.658 912.291 866.506 C 912.043 866.047 912.128 865.566 912.104 865.015 z" fill="rgb(224,222,217)" transform="translate(0,0)"></path>
<metadata><recraft-signature>{"signed_by": "recraft", "signature_b64": "neyXGRLZGgvzq1tW+oRigZgcxV5MGmWQg4mlDAkF0lMVm0L6/LvxUFHUUGMi0hfACcODVCNjNBXN5sFuBacBAA==", "signing_algo": "Ed25519", "generation_timestamp": 1779006457, "identifier": "7719ef16-ff4f-4887-9566-dfadffb69563"}</recraft-signature></metadata></svg>