<svg xmlns="http://www.w3.org/2000/svg" height="1280" preserveAspectRatio="none" style="display: block;" version="1.1" viewBox="0 0 1331 2048" width="832">
<defs>
	<linearGradient gradientUnits="userSpaceOnUse" id="Gradient1" x1="618.722" x2="505.656" y1="492.351" y2="590.857">
		<stop class="stop0" offset="0" stop-color="rgb(9,7,5)" stop-opacity="1"></stop>
		<stop class="stop1" offset="1" stop-color="rgb(35,21,20)" stop-opacity="1"></stop>
	</linearGradient>
</defs>
<path d="M 0 0 L 1331 0 L 1331 355.415 L 1331 364.769 L 1331 2048 L 0 2048 L 0 0 z" fill="rgb(255,255,255)" transform="translate(0,0)"></path>
<path d="M 1331 364.769 C 1328.53 377.116 1327.15 385.394 1320.63 396.573 C 1311.2 413.013 1295.49 424.914 1277.11 429.545 C 1257.78 434.606 1237.22 431.714 1220.03 421.514 C 1203.45 411.625 1191.02 395.753 1186.48 376.889 C 1182.11 359.156 1185.06 340.412 1194.66 324.876 C 1216.35 290.313 1264.17 279.565 1298.23 302.605 C 1319.36 316.894 1325.89 331.507 1331 355.415 L 1331 364.769 z" fill="rgb(12,8,7)" transform="translate(0,0)"></path>
<path d="M 1209.63 311.687 C 1221.71 299.802 1241.34 293.11 1258.08 293.331 C 1294.68 293.814 1328.52 322.61 1327.94 360.551 C 1327.91 362.148 1327.87 364.233 1327.5 365.763 C 1326.49 381.202 1320.12 395.803 1309.48 407.036 C 1296.4 421.044 1278.77 428.357 1259.73 428.996 C 1240.37 429.692 1221.57 422.404 1207.74 408.839 C 1194.34 395.945 1187.67 379.275 1187.7 360.807 C 1187.74 339.367 1195.18 326.325 1209.63 311.687 z" fill="rgb(212,163,119)" transform="translate(0,0)"></path>
<path d="M 1209.63 311.687 C 1208.27 336.978 1207.68 358.434 1226.52 379.12 C 1237.37 390.894 1252.45 397.876 1268.45 398.53 C 1288.7 399.3 1309.34 389.392 1321.19 373.421 C 1323.02 370.949 1325.36 367.844 1327.5 365.763 C 1326.49 381.202 1320.12 395.803 1309.48 407.036 C 1296.4 421.044 1278.77 428.357 1259.73 428.996 C 1240.37 429.692 1221.57 422.404 1207.74 408.839 C 1194.34 395.945 1187.67 379.275 1187.7 360.807 C 1187.74 339.367 1195.18 326.325 1209.63 311.687 z" fill="rgb(191,133,104)" transform="translate(0,0)"></path>
<path d="M 283.723 608.446 C 268.34 606.565 256.267 595.254 255.921 579.397 C 255.445 557.593 273.886 549.036 285.597 534.445 C 299.935 516.582 303.217 489.048 300.273 466.961 C 299.005 457.451 296.613 447.557 295.668 437.883 C 294.542 425.307 294.99 412.64 297.003 400.176 C 304.264 355.066 329.183 314.702 366.256 287.998 C 398.667 264.566 441.176 252.949 480.89 259.338 C 503.075 261.901 548.638 279.25 562.297 297.061 C 591.881 322.413 607.759 357.32 616.606 394.595 C 631.368 395.95 656.948 398.155 655.089 420.506 C 654.119 432.163 642.618 441.279 632.689 446.312 C 634.219 462.828 635.879 485.183 630.587 501.381 C 621.843 539.723 589.159 572.406 552.072 584.278 C 547.85 585.629 539.373 587.083 537.638 590.896 C 538.31 595.397 538.17 602.39 538.223 607.13 C 595.07 600.216 651.283 581.363 702.68 556.543 L 707.161 564.7 C 719.778 556.859 734.165 549.714 747.182 542.322 C 779.334 524.065 811.915 506.894 843.956 488.418 C 845.399 475.698 845.91 469.418 850.734 457.047 C 856.775 441.556 865.827 437.081 874.65 425.295 C 882.542 412.817 881.9 393.911 891.458 382.882 C 896.847 378.454 908.607 379.393 911.925 385.422 C 920.119 400.309 912.277 422.561 909.773 438.675 C 920.22 424.611 962.166 366.111 975.957 362.742 C 979.785 361.807 983.884 362.623 987.222 364.677 C 989.957 366.33 991.847 369.082 992.409 372.228 C 994.951 385.971 963.787 424.365 954.698 436.68 C 975.207 422.315 995.617 407.029 1016.93 394.012 C 1025.02 388.651 1040.41 397.133 1037.35 406.503 C 1031.38 424.73 997.36 447.082 982.453 458.845 L 984.431 460.364 C 997.413 452.046 1053.76 406.857 1048.9 446.483 C 1048.02 453.68 1004.17 485.664 996.015 492.115 L 998.383 493.328 C 1008.48 488.274 1043.42 468.023 1040.24 499.357 C 1039.03 511.229 989.646 533.323 977.762 541.06 C 951.579 558.106 932.9 567.625 900.357 565.841 C 851.364 602.798 801.515 642.659 752.273 678.532 C 754.428 690.938 755.433 699.843 756.826 712.177 C 739.551 724.492 707.59 741.764 688.353 753.444 C 675.292 761.374 641.733 781.938 628.795 788.019 L 646.209 974.077 C 648.103 994.967 651.127 1019.36 652.388 1039.82 C 638.274 1047.03 623.226 1055.37 609.165 1062.19 L 719.82 1192.41 C 732.329 1207.13 770.652 1250.94 778.549 1265.4 C 805.334 1314.45 813.811 1397.45 822.68 1454.51 L 842.476 1581.63 C 823.608 1590.98 808.991 1596.6 789.412 1603.86 C 791.822 1620.03 794.627 1636.97 796.198 1653.18 C 802.371 1655.68 810.081 1658.56 815.975 1661.4 C 810.973 1661.89 799.012 1657.48 793.921 1655.75 L 792.936 1656.31 C 768.745 1670.17 754.482 1689.97 720.026 1680.95 C 713.781 1679.31 700.709 1674.04 695.325 1670.6 L 697.169 1669.38 C 694.786 1668.27 688.82 1667.21 685.931 1666.61 C 683.17 1667.29 680.082 1667.98 677.395 1668.83 L 678.161 1669.55 L 675.621 1670.14 C 672.769 1658.61 670.767 1628.86 669.735 1616.17 C 649.774 1613.15 629.49 1610.05 609.961 1604.91 L 611.269 1390.44 L 493.572 1277.4 C 485.549 1313.27 477.216 1360.01 465.955 1393.98 C 459.539 1413.33 435.588 1452.94 425.823 1472.08 C 397.637 1527.31 365.867 1582.53 338.259 1637.93 C 315.322 1634.12 292.606 1629.02 269.841 1624.24 C 264.019 1638.8 255.579 1658.33 248.494 1672.39 C 259.479 1683.09 270.395 1693.79 282.207 1703.58 C 283.921 1705 287.225 1707.04 288.54 1708.37 C 297.166 1713.08 325.404 1726.16 330.275 1731.14 C 360.402 1753.82 340.877 1788.51 305.087 1792.47 C 253.788 1798.14 227.579 1770.82 183.336 1757.16 C 172.814 1755.02 162.446 1752 152.001 1749.6 C 123.099 1742.96 95.1265 1721.93 93.7962 1690.08 C 92.7498 1665.02 109.038 1643.32 135.173 1642.5 C 142.219 1625.4 153.805 1597.44 162.356 1581.9 C 151.394 1574.4 140.478 1566.83 129.609 1559.2 C 132.844 1552.83 140.391 1542.19 144.663 1535.83 L 172.432 1494.72 C 206.397 1445.53 239.996 1396.08 273.227 1346.39 C 266.138 1274.76 260.515 1187.32 277.767 1116.92 C 281.929 1099.94 289.903 1083.32 298.278 1068.04 C 286.351 1063.77 271.225 1055.71 259.667 1049.89 C 278.146 981.192 296.084 912.35 313.479 843.37 L 264.357 887.953 C 251.277 882.892 242.706 872.49 233.608 862.215 C 224.049 869.326 215.03 876.015 205.856 883.658 C 196.074 939.151 164.869 978.83 127.993 1020.12 C 147.986 1044.97 143.523 1055.3 150.283 1083.66 C 150.998 1086.66 161.957 1099.94 164.937 1104.07 C 175.354 1118.49 163.93 1130.03 148.401 1126.91 C 133.982 1123.23 126.058 1112.15 118.705 1099.78 C 115.197 1116.43 111.889 1132.89 108.819 1149.74 C 106.37 1163.18 105.556 1179.06 101.528 1192.01 C 100.629 1194.9 95.3085 1200.05 92.1889 1201.25 C 85.2844 1203.91 76.9411 1194.55 72.7483 1193.07 C 71.852 1192.75 59.9382 1194.72 56.0859 1192.83 C 52.0373 1190.84 48.8428 1184.27 46.5948 1183.89 C 43.4234 1183.34 35.8929 1183.39 32.5837 1181.56 C 23.6376 1176.62 23.7933 1169.26 20.8965 1160.63 C 19.0807 1155.22 16.8067 1156.45 11.6827 1154.04 C 5.29817 1151.03 4.78137 1147.69 2.35973 1141.4 C 1.20103 1134.17 -0.204043 1130.1 1.32842 1122.2 C 4.8957 1086.97 21.7622 1052.02 42.3553 1023.87 C 45.0157 1018.42 57.3971 1007.55 58.7545 1002.42 C 76.3112 936.081 89.8694 859.507 136.791 806.65 C 148.026 793.994 168.989 777.886 182.361 766.497 C 181.853 760.05 179.48 748.393 178.293 741.646 C 241.952 688.084 316.254 648.644 396.289 625.932 C 409.628 622.231 428.781 616.729 442.099 615.501 C 442.143 614.501 442.143 612.935 442.372 612.005 C 427.725 612.007 420.293 608.574 409.992 598.334 C 401.887 606.584 397.128 609.595 385.776 611.633 C 381.311 612.531 377.071 611.676 372.888 610.204 C 365.344 608.214 361.72 604.841 355.909 599.68 C 355.224 600.43 354.522 601.166 353.805 601.886 C 338.23 617.46 318.419 614.501 303.673 599.638 C 295.624 605.683 293.603 606.791 283.723 608.446 z" fill="rgb(12,8,7)" transform="translate(0,0)"></path>
<path d="M 701.717 560.485 C 709.256 575.165 718.494 589.461 725.695 604.552 C 737.147 628.553 743.417 653.419 749.758 679.06 C 727.054 700.696 678.851 725.609 646.865 724.132 C 636.305 723.645 631.586 722.599 621.86 719.61 C 621.49 715.637 621.603 712.64 619.561 709.282 C 617.218 713.008 625.807 787.824 627.024 799.951 L 637.83 913.12 L 644.98 988.223 C 646.331 1002.92 647.698 1023.37 650.179 1037.68 C 635.197 1045.62 603.603 1063.15 589.232 1067.65 C 579.677 1066.39 553.261 1071.17 542.478 1072.54 C 493.513 1078.75 443.528 1075.38 400.312 1049.73 C 334.785 1010.84 325.342 961.503 328.499 890.692 C 329.715 864.542 331.971 838.45 335.262 812.48 C 337.298 797.361 343.265 767.032 339.703 753.352 C 341.797 746.025 346.742 730.759 347.184 723.949 L 346.118 722.979 L 344.142 724.965 C 342.994 731.136 340.929 737.619 339.159 743.683 C 335.197 746.33 312.538 777.772 307.013 784.574 C 291.423 803.556 272.802 819.83 251.903 832.737 C 236.195 796.706 214.564 765.164 182.195 742.238 C 264.356 677.742 328.257 643.362 430.903 620.136 C 438.366 632.735 449.637 642.641 463.092 648.424 C 480.506 656.129 500.273 656.575 518.016 649.663 C 540.132 640.897 548.405 627.961 557.173 607.488 C 610.049 597.737 653.158 582.835 701.717 560.485 z" fill="rgb(254,182,15)" transform="translate(0,0)"></path>
<path d="M 283.723 608.446 C 268.34 606.565 256.267 595.254 255.921 579.397 C 255.445 557.593 273.886 549.036 285.597 534.445 C 299.935 516.582 303.217 489.048 300.273 466.961 C 299.005 457.451 296.613 447.557 295.668 437.883 C 294.542 425.307 294.99 412.64 297.003 400.176 C 304.264 355.066 329.183 314.702 366.256 287.998 C 398.667 264.566 441.176 252.949 480.89 259.338 C 503.075 261.901 548.638 279.25 562.297 297.061 C 591.881 322.413 607.759 357.32 616.606 394.595 C 631.368 395.95 656.948 398.155 655.089 420.506 C 654.119 432.163 642.618 441.279 632.689 446.312 C 634.219 462.828 635.879 485.183 630.587 501.381 C 621.843 539.723 589.159 572.406 552.072 584.278 C 547.85 585.629 539.373 587.083 537.638 590.896 L 536.551 590.932 C 536.296 595.612 536.309 606.863 535.708 610.427 C 541.291 609.798 548.178 608.5 553.832 607.599 C 548.829 621.285 543.669 630.23 531.487 639.091 C 517.059 649.512 499.088 653.788 481.513 650.98 C 460.571 647.681 444.732 636.488 432.353 619.607 C 436.887 618.754 442.231 617.953 446.442 616.263 C 449.966 607.559 457.053 605.614 464.125 595.068 C 476.675 576.355 477.101 533.072 472.483 512.109 L 471.08 511.38 L 466.061 513.356 L 469.871 515.898 C 479.509 539.609 469.708 625.832 426.214 607.75 C 419.008 604.754 413.765 599.188 408.886 593.286 C 401.167 603.753 396.953 607.893 384.165 609.865 L 383.683 610.682 L 385.776 611.633 C 381.311 612.531 377.071 611.676 372.888 610.204 C 365.344 608.214 361.72 604.841 355.909 599.68 C 355.224 600.43 354.522 601.166 353.805 601.886 C 338.23 617.46 318.419 614.501 303.673 599.638 C 295.624 605.683 293.603 606.791 283.723 608.446 z" fill="rgb(95,46,23)" transform="translate(0,0)"></path>
<path d="M 562.297 297.061 C 591.881 322.413 607.759 357.32 616.606 394.595 C 631.368 395.95 656.948 398.155 655.089 420.506 C 654.119 432.163 642.618 441.279 632.689 446.312 C 634.219 462.828 635.879 485.183 630.587 501.381 C 621.843 539.723 589.159 572.406 552.072 584.278 C 547.85 585.629 539.373 587.083 537.638 590.896 L 536.551 590.932 C 536.296 595.612 536.309 606.863 535.708 610.427 C 541.291 609.798 548.178 608.5 553.832 607.599 C 548.829 621.285 543.669 630.23 531.487 639.091 C 517.059 649.512 499.088 653.788 481.513 650.98 C 460.571 647.681 444.732 636.488 432.353 619.607 C 436.887 618.754 442.231 617.953 446.442 616.263 C 449.966 607.559 457.053 605.614 464.125 595.068 C 476.675 576.355 477.101 533.072 472.483 512.109 L 471.08 511.38 L 466.061 513.356 C 450.681 519.401 436.87 518.484 423.377 508.372 C 412.086 499.855 404.7 487.15 402.884 473.123 C 401.431 461.47 404.21 448.518 411.615 439.231 C 418.044 431.272 427.342 426.158 437.506 424.991 C 450.317 423.624 459.248 429.04 468.797 436.586 C 496.443 427.95 507.4 421.481 527.522 400.997 L 523.957 399.301 C 546.688 382.107 565.872 335.877 571.811 308.195 C 567.864 304.515 563.731 301.75 562.297 297.061 z" fill="rgb(191,133,104)" transform="translate(0,0)"></path>
<path d="M 627.971 501.964 L 630.587 501.381 C 621.843 539.723 589.159 572.406 552.072 584.278 C 547.85 585.629 539.373 587.083 537.638 590.896 L 536.551 590.932 C 536.296 595.612 536.309 606.863 535.708 610.427 C 534.874 606.305 535.187 593.777 535.19 588.957 C 514.061 587.996 501.22 582.329 484.534 568.192 C 482.513 566.48 482.104 565.681 482.053 563.591 C 484.93 562.826 487.006 564.273 489.96 565.29 C 512.284 572.979 552.821 581.813 574.538 570.531 C 599.06 557.792 617.796 532.637 626.393 506.804 C 624.933 506.087 623.479 505.357 622.031 504.614 L 627.971 501.964 z" fill="url(#Gradient1)" transform="translate(0,0)"></path>
<path d="M 562.297 297.061 C 591.881 322.413 607.759 357.32 616.606 394.595 C 631.368 395.95 656.948 398.155 655.089 420.506 C 654.119 432.163 642.618 441.279 632.689 446.312 C 634.219 462.828 635.879 485.183 630.587 501.381 L 627.971 501.964 C 632.08 481.466 632.559 465.397 629.534 444.665 C 639.198 439.914 651.475 431.569 652.358 420.019 C 653.888 399.993 627.294 397.732 614.136 396.895 C 606.447 361.548 595.715 339.851 573.795 311.69 C 566.023 345.961 550.448 374.635 527.522 400.997 L 523.957 399.301 C 546.688 382.107 565.872 335.877 571.811 308.195 C 567.864 304.515 563.731 301.75 562.297 297.061 z" fill="rgb(12,8,7)" transform="translate(0,0)"></path>
<path d="M 626.393 506.804 C 614.662 507.64 610.556 509.284 598.617 504.655 C 592.782 502.393 581.828 486.93 587.182 486.002 C 588.941 487.506 590.144 494.945 594.476 498.578 C 604.201 506.733 611.913 504.678 622.031 504.614 C 623.479 505.357 624.933 506.087 626.393 506.804 z" fill="rgb(12,8,7)" transform="translate(0,0)"></path>
<path d="M 424.391 447.185 C 432.788 446.626 440.505 446.456 447.793 451.722 C 454.913 456.866 459.551 464.284 461.045 473.003 C 461.227 474.248 462.361 483.21 461.383 483.638 C 457.159 485.485 461.153 469.824 455.07 471.201 C 452.367 471.812 449.046 475.249 447.559 477.251 C 443.058 483.311 442.278 489.274 442.615 496.526 C 438.05 493.667 439.894 487.813 441.367 483.217 C 444.193 474.4 448.461 471.457 456.44 467.642 L 457.147 467.297 C 437.652 435.647 417.99 456.015 413.4 453.993 C 413.684 451.179 421.895 448.119 424.391 447.185 z" fill="rgb(12,8,7)" transform="translate(0,0)"></path>
<path d="M 283.723 608.446 C 268.34 606.565 256.267 595.254 255.921 579.397 C 255.445 557.593 273.886 549.036 285.597 534.445 C 299.935 516.582 303.217 489.048 300.273 466.961 C 299.005 457.451 296.613 447.557 295.668 437.883 C 294.542 425.307 294.99 412.64 297.003 400.176 C 304.264 355.066 329.183 314.702 366.256 287.998 C 398.667 264.566 441.176 252.949 480.89 259.338 C 480.539 259.56 480.187 259.783 479.836 260.006 C 467.845 261.743 463.753 259.54 451.175 263.815 C 395.782 282.641 358.998 315.256 340.009 371.245 C 332.609 393.064 329.821 419.889 333.118 442.75 C 336.797 468.27 352.65 487.592 343.631 514.85 C 332.169 549.492 289.287 554 282.847 592.036 C 282.171 596.026 281.81 601.427 282.842 605.349 L 283.723 608.446 z" fill="rgb(39,23,22)" transform="translate(0,0)"></path>
<path d="M 469.871 515.898 C 459.734 518.551 449.038 521.085 438.706 518.243 C 422.977 513.917 404.823 505.592 396.196 491.149 C 390.521 481.649 385.007 466.803 388.571 455.99 C 403.76 409.906 441.301 424.708 477.384 417.859 C 495.689 414.384 508.949 408.053 523.957 399.301 L 527.522 400.997 C 507.4 421.481 496.443 427.95 468.797 436.586 C 459.248 429.04 450.317 423.624 437.506 424.991 C 427.342 426.158 418.044 431.272 411.615 439.231 C 404.21 448.518 401.431 461.47 402.884 473.123 C 404.7 487.15 412.086 499.855 423.377 508.372 C 436.87 518.484 450.681 519.401 466.061 513.356 L 469.871 515.898 z" fill="rgb(39,23,22)" transform="translate(0,0)"></path>
<path d="M 296.759 602.695 L 303.33 593.926 C 309.491 602.035 314.959 607.839 325.678 609.421 C 333.204 610.5 340.851 608.557 346.95 604.017 C 350.146 601.645 352.922 597.656 355.223 594.409 C 361.451 600.471 366.032 605.336 373.995 609.16 L 372.888 610.204 C 365.344 608.214 361.72 604.841 355.909 599.68 C 355.224 600.43 354.522 601.166 353.805 601.886 C 338.23 617.46 318.419 614.501 303.673 599.638 C 295.624 605.683 293.603 606.791 283.723 608.446 L 282.842 605.349 C 287.443 604.594 292.281 603.91 296.759 602.695 z" fill="rgb(39,23,22)" transform="translate(0,0)"></path>
<path d="M 167.706 783.237 C 209.781 798.21 221.855 815.059 233.654 858.007 C 223.716 866.605 212.526 873.836 203.349 881.758 C 192.961 939.15 162.747 977.365 123.67 1020.14 C 152.291 1049.03 135.985 1070.25 154.519 1095.09 C 154.923 1095.73 154.945 1095.74 155.508 1096.25 C 160.56 1101.96 166.236 1107.3 165.719 1115.58 C 165.222 1123.54 156.774 1125.79 150.165 1124.34 C 131.849 1120.33 123.217 1104.43 118.352 1088.13 C 113.662 1108.69 109.551 1129.37 106.024 1150.16 C 103.917 1163.17 102.675 1176.5 99.418 1189.23 C 98.0533 1194.56 91.9701 1199.58 86.3413 1198.39 C 82.3433 1197.57 78.8507 1195.16 76.6642 1191.71 C 68.2989 1178.56 75.2275 1139.4 79.2316 1124.53 C 80.5388 1119.67 84.4197 1108.13 84.2342 1103.84 C 77.485 1106.82 70.4064 1156.07 69.8424 1165.05 C 69.4605 1171.13 73.6671 1186.18 70.3407 1189.77 C 65.4851 1191.66 62.0815 1192.2 57.1391 1189.92 C 52.8954 1187.96 50.1859 1183.81 48.7552 1179.5 C 40.1849 1153.65 60.1679 1105.43 58.4514 1100.53 C 52.0905 1105.45 44.7477 1147.56 43.7552 1156.99 C 43.1972 1162.29 46.3717 1177.98 45.2818 1180.16 C 32.9778 1183.8 28.2654 1176.88 25.2584 1165.76 C 19.2291 1143.46 27.4807 1119.58 34.6223 1098.57 C 35.2042 1096.87 34.5956 1095.55 33.4577 1094.35 C 28.5756 1101.96 24.5365 1125.23 21.8589 1134.47 C 20.0434 1140.73 23.4835 1147.31 17.8379 1152.63 C 9.93917 1153.99 6.67393 1146.79 4.71562 1140.58 L 2.35973 1141.4 C 1.20103 1134.17 -0.204043 1130.1 1.32842 1122.2 L 3.65909 1125.64 C 7.56577 1085.54 27.3878 1045.04 53.4468 1014.64 C 56.1133 1011.53 60.302 1007.24 61.5894 1003.32 C 66.547 988.204 68.4623 972.075 72.6737 956.715 C 86.8286 906.689 101.166 853.039 135.263 812.544 C 144.695 801.343 156.427 792.194 167.706 783.237 z" fill="rgb(191,133,104)" transform="translate(0,0)"></path>
<path d="M 1.32842 1122.2 L 3.65909 1125.64 C 3.59457 1131.25 3.79573 1135.03 4.71562 1140.58 L 2.35973 1141.4 C 1.20103 1134.17 -0.204043 1130.1 1.32842 1122.2 z" fill="rgb(12,8,7)" transform="translate(0,0)"></path>
<path d="M 183.336 1757.16 C 172.814 1755.02 162.446 1752 152.001 1749.6 C 123.099 1742.96 95.1265 1721.93 93.7962 1690.08 C 92.7498 1665.02 109.038 1643.32 135.173 1642.5 L 137.909 1642.73 L 145.007 1644.55 C 146.705 1645.29 149.635 1646.42 151.032 1647.45 L 150.752 1649.83 C 160.338 1655.42 170.412 1668.7 179.523 1672.56 C 184.64 1674.72 206.867 1680.34 211.537 1680.04 C 241.74 1678.09 238.466 1665.05 262.574 1689.14 C 264.929 1690.89 269.716 1694.63 271.099 1697.09 C 275.737 1700.87 281.979 1706.33 287.066 1709.09 L 288.54 1708.37 C 297.166 1713.08 325.404 1726.16 330.275 1731.14 C 360.402 1753.82 340.877 1788.51 305.087 1792.47 C 253.788 1798.14 227.579 1770.82 183.336 1757.16 z" fill="rgb(95,46,23)" transform="translate(0,0)"></path>
<path d="M 183.336 1757.16 C 172.814 1755.02 162.446 1752 152.001 1749.6 C 123.099 1742.96 95.1265 1721.93 93.7962 1690.08 C 92.7498 1665.02 109.038 1643.32 135.173 1642.5 L 137.909 1642.73 L 145.007 1644.55 C 146.705 1645.29 149.635 1646.42 151.032 1647.45 L 150.752 1649.83 C 140.464 1655.53 130.63 1664.89 127.624 1676.52 C 117.715 1714.87 153.223 1743.2 184.366 1755.5 L 183.336 1757.16 z" fill="rgb(39,23,22)" transform="translate(0,0)"></path>
<path d="M 330.275 1731.14 C 360.402 1753.82 340.877 1788.51 305.087 1792.47 C 253.788 1798.14 227.579 1770.82 183.336 1757.16 L 184.366 1755.5 C 205.708 1760.63 216.63 1768.34 235.435 1777.63 C 258.911 1788.28 285.527 1794.02 311.115 1788.7 C 335.13 1783.71 352.133 1762.54 336.155 1739.92 C 334.104 1737.01 330.846 1734.67 330.275 1731.14 z" fill="rgb(39,23,22)" transform="translate(0,0)"></path>
<path d="M 262.574 1689.14 C 264.929 1690.89 269.716 1694.63 271.099 1697.09 C 268.41 1696.38 264.411 1691.37 262.574 1689.14 z" fill="rgb(54,26,14)" transform="translate(0,0)"></path>
<path d="M 339.703 753.352 C 343.265 767.032 337.298 797.361 335.262 812.48 C 331.971 838.45 329.715 864.542 328.499 890.692 C 325.342 961.503 334.785 1010.84 400.312 1049.73 C 443.528 1075.38 493.513 1078.75 542.478 1072.54 C 553.261 1071.17 579.677 1066.39 589.232 1067.65 C 582.854 1071.01 574.924 1073.94 568.146 1076.4 C 484.441 1106.81 401.591 1104.6 318.581 1073.47 C 297.227 1065.47 282.993 1058.17 262.544 1048.63 C 271.646 1020.03 279.057 987.186 286.764 957.837 L 339.703 753.352 z" fill="rgb(237,157,20)" transform="translate(0,0)"></path>
<path d="M 749.758 679.06 C 751.644 690.277 753.021 699.75 754.19 711.05 C 712.44 736.058 670.501 760.749 628.378 785.122 C 625.425 763.482 624.452 741.212 621.86 719.61 C 631.586 722.599 636.305 723.645 646.865 724.132 C 678.851 725.609 727.054 700.696 749.758 679.06 z" fill="rgb(237,157,20)" transform="translate(0,0)"></path>
<path d="M 685.931 1666.61 C 685.812 1645.2 682.843 1636.43 707.657 1632.46 C 724.527 1629.77 741.804 1630.62 758.519 1627.92 C 767.604 1626.45 780.106 1621.84 789.387 1619.21 C 790.87 1629.5 792.408 1642.8 794.421 1652.76 C 766.671 1666.43 753.901 1689.98 715.539 1676.74 C 709.433 1674.64 702.856 1671.49 697.169 1669.38 C 694.786 1668.27 688.82 1667.21 685.931 1666.61 z" fill="rgb(234,177,186)" transform="translate(0,0)"></path>
<path d="M 145.007 1644.55 C 158.907 1610.24 174.026 1610.8 205.011 1624.02 C 223.309 1631.83 240.131 1637.37 259.714 1640.76 C 255.771 1649.69 249.391 1662.98 246.195 1671.79 C 220.509 1676.04 198.334 1682.32 174.788 1665.66 C 166.961 1660.12 159.433 1651.37 151.032 1647.45 C 149.635 1646.42 146.705 1645.29 145.007 1644.55 z" fill="rgb(234,177,186)" transform="translate(0,0)"></path>
<path d="M 251.903 832.737 C 272.802 819.83 291.423 803.556 307.013 784.574 C 312.538 777.772 335.197 746.33 339.159 743.683 C 335.609 758.647 318.768 830.001 313.232 838.544 C 306.86 848.376 295.043 857.114 286.299 864.953 C 281.563 869.199 273.77 878.059 268.372 880.668 C 267.499 881.09 267.342 881.044 266.506 881.118 C 265.075 878.912 265.028 876.867 264.631 874.24 C 264.184 866.343 257.425 847.399 254.407 839.466 L 251.903 832.737 z" fill="rgb(237,157,20)" transform="translate(0,0)"></path>
<path d="M 164.885 1582.49 C 187.772 1596.66 209.393 1605.66 235.055 1613.95 C 244.662 1617.05 257.759 1620.2 266.703 1623.58 L 267.513 1623.89 L 259.714 1640.76 C 240.131 1637.37 223.309 1631.83 205.011 1624.02 C 174.026 1610.8 158.907 1610.24 145.007 1644.55 L 137.909 1642.73 C 146.454 1622.46 155.448 1602.37 164.885 1582.49 z" fill="rgb(207,141,152)" transform="translate(0,0)"></path>
<path d="M 167.706 783.237 C 177.445 774.554 187.236 765.932 197.081 757.369 C 223.012 784.068 239.37 806.647 252.865 841.646 C 252.64 842.924 252.5 843.745 251.183 844.437 C 244.198 848.102 240.587 851.986 234.98 857.26 L 233.654 858.007 C 221.855 815.059 209.781 798.21 167.706 783.237 z" fill="rgb(168,109,80)" transform="translate(0,0)"></path>
<path d="M 671.894 1616.11 C 712.475 1619.69 747.626 1617.07 786.774 1604.3 L 789.387 1619.21 C 780.106 1621.84 767.604 1626.45 758.519 1627.92 C 741.804 1630.62 724.527 1629.77 707.657 1632.46 C 682.843 1636.43 685.812 1645.2 685.931 1666.61 C 683.17 1667.29 680.082 1667.98 677.395 1668.83 C 674.98 1652.48 673.491 1632.67 671.894 1616.11 z" fill="rgb(207,141,152)" transform="translate(0,0)"></path>
<path d="M 254.407 839.466 C 257.425 847.399 264.184 866.343 264.631 874.24 C 264.197 875.183 263.794 876.443 263.439 877.455 C 254.06 871.424 249.04 864.144 241.112 856.791 C 240.415 856.145 236.225 858.611 235.546 858.962 L 234.98 857.26 C 240.587 851.986 244.198 848.102 251.183 844.437 C 252.5 843.745 252.64 842.924 252.865 841.646 L 254.407 839.466 z" fill="rgb(39,23,22)" transform="translate(0,0)"></path>
<path d="M 235.546 858.962 C 236.225 858.611 240.415 856.145 241.112 856.791 C 249.04 864.144 254.06 871.424 263.439 877.455 C 263.327 879.088 263.845 884.213 260.632 882.826 C 252.043 879.119 239.896 867.037 235.546 858.962 z" fill="rgb(237,157,20)" transform="translate(0,0)"></path>
<path d="M 977.097 462.673 C 978.963 461.426 980.648 460.166 982.453 458.845 L 984.431 460.364 C 983.02 461.354 981.575 462.296 980.099 463.189 L 977.097 462.673 z" fill="rgb(193,192,192)" transform="translate(0,0)"></path>
<path d="M 980.099 463.189 C 975.344 467.171 971.677 467.015 977.097 462.673 L 980.099 463.189 z" fill="rgb(112,107,103)" transform="translate(0,0)"></path>
<path d="M 998.383 493.328 C 997.68 493.71 992.891 496.79 992.463 495.3 C 992.773 494.082 995.028 492.763 996.015 492.115 L 998.383 493.328 z" fill="rgb(193,192,192)" transform="translate(0,0)"></path>
<path d="M 442.372 612.005 C 447.178 610.243 445.713 613.505 442.099 615.501 C 442.143 614.501 442.143 612.935 442.372 612.005 z" fill="rgb(244,243,246)" transform="translate(0,0)"></path>
<path d="M 301.527 1069.4 L 305.45 1070.94 C 412.491 1112.8 501.114 1109.72 606.343 1063.63 C 616.739 1075.2 647.782 1109.71 654.721 1120.85 C 668.486 1134.35 696.608 1168.78 709.367 1184.39 C 729.724 1209.31 768.469 1249.82 781.369 1276.61 C 802.853 1321.24 809.939 1391.42 817.904 1441.56 C 825.452 1487.66 832.657 1533.82 839.519 1580.02 C 829.749 1584.46 818.241 1590.02 808.394 1593.87 C 741.635 1622.58 680.857 1617.98 612.217 1603.29 L 614.059 1389.28 C 578.654 1356.85 543.543 1321.36 508.414 1288.2 C 507.373 1287.53 507.496 1287.73 506.877 1286.79 C 502.936 1283.52 497.797 1278.23 494.004 1274.55 C 501.227 1240.73 512.942 1208.31 541.091 1186.27 C 543.925 1184.52 549.036 1181.82 549.995 1178.73 C 546.734 1179 545.059 1180.23 542.18 1181.79 C 541.816 1174.18 541.774 1166.55 542.056 1158.93 L 540.912 1157.57 C 534.895 1160.3 522.887 1181.73 519.512 1188.43 C 488.484 1249.98 486.341 1320.85 465.784 1385.49 C 454.174 1422 427.242 1460.34 410.394 1495.33 C 388.153 1536.77 365.195 1583.65 342.284 1624.05 L 336.88 1635.89 C 315.225 1630.35 289.657 1626.08 267.375 1620.53 C 211.986 1606.71 178.019 1590.27 132.653 1557.71 C 149.288 1536.38 171.195 1501.15 187.383 1477.49 L 227.839 1417.75 C 244.272 1393.94 260.535 1371.31 275.916 1346.62 C 267.598 1268.92 257.465 1135.49 301.527 1069.4 z" fill="rgb(4,104,172)" transform="translate(0,0)"></path>
<path d="M 301.527 1069.4 L 305.45 1070.94 C 412.491 1112.8 501.114 1109.72 606.343 1063.63 C 616.739 1075.2 647.782 1109.71 654.721 1120.85 C 647.047 1118.36 627.643 1101.01 616.622 1094.92 C 576.367 1106.61 546.041 1114.02 502.923 1117.92 C 432.49 1124.29 356.126 1098.87 312.677 1173.83 C 306.753 1184.05 301.463 1200.58 299.766 1212 C 294.443 1247.84 295.683 1312.25 302.459 1347.62 C 253.136 1408.91 165.464 1520.04 252.612 1589.8 C 275.59 1608.19 314.086 1614.38 342.284 1624.05 L 336.88 1635.89 C 315.225 1630.35 289.657 1626.08 267.375 1620.53 C 211.986 1606.71 178.019 1590.27 132.653 1557.71 C 149.288 1536.38 171.195 1501.15 187.383 1477.49 L 227.839 1417.75 C 244.272 1393.94 260.535 1371.31 275.916 1346.62 C 267.598 1268.92 257.465 1135.49 301.527 1069.4 z" fill="rgb(2,81,139)" transform="translate(0,0)"></path>
<path d="M 494.004 1274.55 C 501.227 1240.73 512.942 1208.31 541.091 1186.27 C 541.912 1228 543.388 1267.08 565.726 1303.86 C 586.594 1338.22 616.085 1361.69 644.12 1389.5 C 632.74 1427.94 633.756 1489.68 652.914 1524.48 C 683.391 1579.84 744.77 1592.75 803.037 1591.18 C 805.655 1591.11 806.646 1592.27 808.394 1593.87 C 741.635 1622.58 680.857 1617.98 612.217 1603.29 L 614.059 1389.28 C 578.654 1356.85 543.543 1321.36 508.414 1288.2 C 507.373 1287.53 507.496 1287.73 506.877 1286.79 C 502.936 1283.52 497.797 1278.23 494.004 1274.55 z" fill="rgb(2,81,139)" transform="translate(0,0)"></path>
<path d="M 506.877 1286.79 C 507.763 1287.16 508.054 1287.31 508.414 1288.2 C 507.373 1287.53 507.496 1287.73 506.877 1286.79 z" fill="rgb(4,64,110)" transform="translate(0,0)"></path>
<path d="M 912.717 439.376 C 920.802 427.447 965.395 368.482 976.004 365.505 C 979.381 364.558 983.898 365.467 986.762 367.453 C 988.599 368.726 989.533 370.788 989.794 372.962 C 991.498 387.149 960.897 423.079 951.988 434.87 C 949.331 438.074 947.979 438.453 948.009 441.804 L 951.264 444.127 C 968.561 452.251 980.257 486.19 981.349 504.399 C 984.286 503.88 987.986 501.834 990.781 500.491 C 999.446 496.163 1030.19 476.585 1036.44 490.381 C 1043.29 505.519 1020.54 513.012 1010.72 518.735 L 968.919 542.915 C 932.301 563.97 914.832 572.14 873.451 553.583 C 872.134 552.992 870.832 552.367 869.547 551.709 L 868.166 552.116 C 868.836 557.511 892.033 563.415 897.675 564.834 C 881.883 575.504 866.891 588.61 851.744 598.566 C 846.362 602.815 838.763 609.184 833.115 612.642 C 829.661 615.949 825.329 619.356 821.487 622.258 C 798.347 639.74 775.532 659.244 751.519 675.455 C 747.392 658.371 743.806 642.99 737.717 626.424 C 728.859 603.179 721.373 589.104 708.873 567.352 C 719.795 559.856 741.372 548.645 753.688 541.82 C 783.964 525.329 814.075 508.538 844.017 491.449 C 844.703 495.593 844.86 500.3 847.037 503.639 C 848.026 500.127 846.816 482.13 848.536 473.099 C 853.84 445.241 865.141 444.974 878.507 423.374 C 883.675 416.344 886.853 386.855 894.968 383.961 C 924.92 373.281 908.379 428.645 906.766 435.579 C 921.365 457.393 919.233 487.187 900.974 506.564 C 897.911 509.815 894.26 511.763 891.067 514.976 L 891.996 516.117 C 892.603 516.102 893.36 516.141 893.898 515.803 C 918.768 500.188 925.991 464.757 912.717 439.376 z" fill="rgb(191,133,104)" transform="translate(0,0)"></path>
<path d="M 832.175 607.574 C 839.221 602.95 843.47 600.056 851.744 598.566 C 846.362 602.815 838.763 609.184 833.115 612.642 C 829.661 615.949 825.329 619.356 821.487 622.258 C 798.347 639.74 775.532 659.244 751.519 675.455 C 747.392 658.371 743.806 642.99 737.717 626.424 C 770.338 641.763 804.393 624.876 832.175 607.574 z" fill="rgb(168,109,80)" transform="translate(0,0)"></path>
<path d="M 957.698 438.391 C 964.397 433.667 1015.92 396.775 1018.05 396.666 C 1071.83 393.915 981.496 455.962 971.495 463.624 C 966.476 455.332 961.111 447.009 952.86 441.549 L 957.698 438.391 z" fill="rgb(191,133,104)" transform="translate(0,0)"></path>
<path d="M 975.395 469.287 C 985.393 463.269 1029.31 432.504 1036.99 432.339 C 1039.78 432.279 1042.61 433.444 1044.46 435.549 C 1046.4 437.762 1047.22 441.143 1046.72 444.022 C 1044.98 453.94 996.474 487.802 986.728 495.413 L 983.151 497.117 C 983.636 488.934 978.609 476.816 975.395 469.287 z" fill="rgb(191,133,104)" transform="translate(0,0)"></path>
<path d="M 542.056 1158.93 C 541.774 1166.55 541.816 1174.18 542.18 1181.79 C 526.123 1193.86 521.365 1202.31 510.266 1217.65 C 515.499 1203.32 522.726 1186.77 530.958 1173.94 C 534.42 1168.55 538.458 1164.14 542.056 1158.93 z" fill="rgb(2,81,139)" transform="translate(0,0)"></path>
<path d="M 182.274 745.406 C 185.739 746.874 197.99 753.826 192.466 758.369 C 191.063 759.516 187.049 763.157 185.568 763.104 C 184.609 762.002 182.641 747.719 182.274 745.406 z" fill="rgb(237,157,20)" transform="translate(0,0)"></path>
<path d="M 695.325 1670.6 C 700.709 1674.04 713.781 1679.31 720.026 1680.95 C 754.482 1689.97 768.745 1670.17 792.936 1656.31 L 793.921 1655.75 C 799.012 1657.48 810.973 1661.89 815.975 1661.4 C 835.726 1668.12 857.835 1679.66 877.463 1687.51 C 882.553 1689.54 904.31 1697.26 907.148 1699.36 C 941.378 1717.35 923.414 1759.32 888.287 1765.56 C 861.37 1770.35 830.961 1772.12 804.889 1763.18 C 802.117 1763.8 772.788 1761.08 764.893 1761.69 C 738.923 1764.33 708.417 1769.54 683.853 1757.04 C 657.03 1743.38 646.736 1710.95 660.236 1683.99 C 662.854 1678.76 669.657 1671.75 675.621 1670.14 L 678.161 1669.55 L 677.395 1668.83 C 680.082 1667.98 683.17 1667.29 685.931 1666.61 C 688.82 1667.21 694.786 1668.27 697.169 1669.38 L 695.325 1670.6 z" fill="rgb(95,46,23)" transform="translate(0,0)"></path>
<path d="M 685.931 1666.61 C 688.82 1667.21 694.786 1668.27 697.169 1669.38 L 695.325 1670.6 C 690.525 1672.96 689.763 1675.47 688.079 1680.48 C 675.962 1716.52 702.121 1747.99 734.618 1760.41 C 743.677 1763.87 759.22 1758 764.893 1761.69 C 738.923 1764.33 708.417 1769.54 683.853 1757.04 C 657.03 1743.38 646.736 1710.95 660.236 1683.99 C 662.854 1678.76 669.657 1671.75 675.621 1670.14 L 678.161 1669.55 L 677.395 1668.83 C 680.082 1667.98 683.17 1667.29 685.931 1666.61 z" fill="rgb(39,23,22)" transform="translate(0,0)"></path>
<path d="M 907.148 1699.36 C 941.378 1717.35 923.414 1759.32 888.287 1765.56 C 861.37 1770.35 830.961 1772.12 804.889 1763.18 C 808.625 1761.27 821.207 1764.5 826.018 1765.2 C 837.441 1766.78 848.973 1767.43 860.501 1767.15 C 884.611 1766.4 922.193 1757.68 922.753 1727.31 C 922.921 1718.2 919.953 1712.68 913.481 1706.36 C 910.964 1703.91 908.361 1702.72 907.148 1699.36 z" fill="rgb(54,26,14)" transform="translate(0,0)"></path>
<path d="M 1202.47 435.041 L 1203.86 435.613 L 1204.05 436.966 C 1198.65 441.293 1090.87 478.634 1075.72 483.888 L 1074.53 483.003 L 1074.63 481.375 C 1083.88 477.099 1107.75 469.263 1118.11 465.493 C 1146.13 455.054 1174.25 444.903 1202.47 435.041 z" fill="rgb(12,8,7)" transform="translate(0,0)"></path>
<path d="M 1168.99 331.968 C 1169.57 331.948 1170.84 332.31 1171.47 332.458 C 1171.22 332.978 1170.96 333.497 1170.71 334.017 C 1139.15 346.395 1084.17 365.522 1054.27 376.517 L 1052.54 376.736 L 1051.92 375.583 C 1054.46 371.981 1155.38 336.929 1168.99 331.968 z" fill="rgb(12,8,7)" transform="translate(0,0)"></path>
<path d="M 1170.43 390.918 C 1172.4 390.73 1171.43 390.595 1173.37 391.629 C 1169.96 395.649 1079.07 426.747 1066.23 431.279 L 1064.42 431.821 L 1063.45 431.073 C 1066.81 426.312 1158.86 395.063 1170.43 390.918 z" fill="rgb(12,8,7)" transform="translate(0,0)"></path>
<metadata><recraft-signature>{"signed_by": "recraft", "signature_b64": "HUGcuwRG+4TCG2eDkK7FJ4v/7p0ZC92kuimK/dQePRd3BUa7SphAvE+UmBCUPe5uIbZ2rNYNqyNQIGgmhIYJAQ==", "signing_algo": "Ed25519", "generation_timestamp": 1779023373, "identifier": "ab0bf3ed-7f1e-4de6-872f-a96fa3dd1234"}</recraft-signature></metadata></svg>