<svg xmlns="http://www.w3.org/2000/svg" height="1024" preserveAspectRatio="none" style="display: block;" version="1.1" viewBox="0 0 2048 2048" width="1024">
<path d="M 0 0 L 2048 0 L 2048 2048 L 0 2048 L 0 0 z" fill="rgb(255,255,255)" transform="translate(0,0)"></path>
<path d="M 1470.91 1171.75 C 1488.16 1168.23 1505.06 1162.81 1522.06 1158.33 C 1563.43 1147.44 1599.85 1145.44 1642.02 1155.33 C 1661.49 1159.9 1680.48 1168.23 1699.71 1172.47 C 1769.39 1187.82 1835.92 1155.65 1893.03 1119.16 C 1897.79 1122.87 1900.97 1125.58 1905.38 1129.69 C 1908.25 1131.76 1910.26 1133.68 1912.79 1136.12 C 1917.3 1139.55 1928.89 1150.89 1932.32 1155.55 C 1934.73 1158.16 1937.17 1160.74 1939.64 1163.29 C 1940.27 1164.01 1940.91 1164.72 1941.54 1165.44 C 1942.67 1167.02 1943.45 1167.87 1944.76 1169.33 C 1945.68 1170.26 1946.32 1170.98 1947.18 1171.96 L 1945.79 1173.98 L 1947 1174.94 L 1949.43 1174.74 C 1950 1175.44 1950.55 1176.14 1951.09 1176.86 C 1951.89 1177.99 1952.67 1179 1953.52 1180.1 C 1997.15 1233.98 2027.3 1297.52 2040.32 1365.97 C 2044.15 1386.08 2044.72 1407.58 2045.2 1428.05 C 2018.63 1436.18 2005.62 1443.69 1981.99 1455.83 C 1942.31 1479.73 1921.59 1494.33 1887.49 1526.13 C 1869.06 1543.33 1824.1 1592.58 1805.18 1602.92 C 1803.57 1605.16 1797.56 1609.89 1795.16 1610.42 C 1791.05 1614.54 1774.56 1624.65 1769.18 1627.03 C 1762.3 1630.99 1756.05 1633.91 1749.11 1637.44 C 1744.99 1639.87 1740.68 1641.96 1736.22 1643.66 C 1733.89 1645.47 1721.68 1651.81 1719.06 1652.61 C 1715.81 1654.59 1698.85 1664.31 1696.1 1664.46 C 1693.97 1666.52 1692.16 1668.29 1689.1 1668.45 C 1686.71 1670.78 1682.39 1673.92 1679.08 1674.58 C 1676.32 1676.53 1670.33 1681 1667.29 1681.69 C 1664.6 1683.88 1660.2 1687.02 1656.74 1687.65 C 1653.97 1690.42 1617.88 1712.27 1615.1 1712.44 C 1612.52 1714.98 1598.09 1724.39 1595.12 1724.45 C 1591.48 1728.02 1577.96 1735.82 1572.93 1737.63 C 1572.22 1739.89 1568.68 1741.15 1566.63 1742.44 C 1561.29 1746.23 1537.77 1760.23 1532.22 1762.65 C 1531.18 1763.46 1530.3 1764.37 1529.19 1764.69 C 1525.8 1767.41 1522.3 1769.22 1518.56 1771.4 C 1511.65 1775.72 1495.1 1784.38 1491.17 1790.96 C 1481.72 1806.82 1466.11 1817.22 1447.61 1818.54 C 1443.75 1818.74 1438.96 1822.63 1436.12 1824.43 C 1431.87 1828.2 1416.17 1838.31 1410.27 1842.59 C 1403.19 1848.01 1396.93 1851.61 1388 1852.89 C 1375.64 1854.69 1363.08 1851.57 1353.01 1844.19 C 1344.95 1838.38 1337.8 1828.16 1336.28 1818.14 C 1331.91 1816.54 1298.16 1817.59 1291.16 1817.65 C 1243.06 1817.87 1194.96 1817.81 1146.86 1817.48 C 1128.72 1817.46 1110.53 1817.66 1092.38 1817.79 C 1071.76 1817.94 1050.69 1810.28 1038.99 1792.2 C 1034.45 1789.2 1030.56 1777.83 1028.93 1772.5 C 1028.82 1772.82 1027.96 1738.65 1027.95 1735.18 L 1027.88 1638.74 C 1027.88 1630.65 1028.4 1600.6 1027.19 1593.8 C 1025.09 1588.33 1023.07 1582.63 1020.36 1577.43 C 1001.43 1541.09 962.075 1546.93 927.866 1547.01 C 905.511 1547.08 883.157 1547 860.803 1546.76 L 859.35 1547.57 C 850.047 1552.97 840.99 1551.18 830.438 1551.21 L 780.925 1550.95 C 770.084 1551.31 758.245 1552.83 749.002 1546.81 C 743.779 1543.26 740.152 1540.36 736.554 1535.18 C 724.089 1522.4 730.778 1463.27 729.155 1444.89 C 728.044 1432.3 731.876 1421.51 741.152 1412.55 C 733.452 1410.38 719.411 1411.4 711.958 1410.93 C 689.87 1409.52 630.146 1415.04 611.314 1406.83 C 594.427 1401.61 579.88 1384.05 575.387 1367.25 C 570.694 1351.32 573.449 1289.68 573.047 1270.43 C 572.608 1249.39 570.832 1188.99 577.702 1171.86 C 579.41 1165.4 586.641 1157.24 591.476 1152.9 C 598.356 1146.73 606.966 1141.36 615.941 1138.92 C 634.628 1133.86 716.987 1135.56 739.159 1136.77 C 742.331 1136.71 744.964 1136.8 748.182 1136.63 L 750.616 1139.12 L 754.489 1139.42 C 768.002 1140.54 852.102 1142.99 860.617 1136.45 C 882.815 1135.47 907.841 1136.48 930.344 1136.53 C 943.805 1136.56 969.118 1135.83 981.007 1138.47 C 990.595 1140.55 999.474 1145.1 1006.76 1151.67 C 1017.54 1161.45 1021.24 1171.35 1025.85 1184.55 C 1027.74 1177.19 1031.68 1167.5 1036.9 1161.9 C 1038.52 1158.39 1038.89 1158.43 1041.76 1155.94 C 1042.6 1154.41 1042.14 1155.01 1043.4 1153.71 C 1063.91 1132.54 1097.44 1136.42 1123.89 1136.64 C 1147.13 1136.96 1170.37 1137.02 1193.6 1136.83 C 1198.91 1140.51 1207.62 1141.67 1213.97 1141.27 C 1237.21 1139.83 1264.83 1142.87 1287.58 1141.04 C 1296.87 1141.77 1301.87 1140.45 1309.89 1136.22 L 1384.15 1136.89 C 1401.79 1136.94 1429.66 1134.56 1444.96 1142.21 C 1450 1144.75 1453.13 1146.52 1456.91 1150.57 L 1458.29 1151.35 C 1465.06 1156.3 1468.33 1164.17 1470.91 1171.75 z" fill="rgb(237,151,122)" transform="translate(0,0)"></path>
<path d="M 860.617 1136.45 C 882.815 1135.47 907.841 1136.48 930.344 1136.53 C 943.805 1136.56 969.118 1135.83 981.007 1138.47 C 990.595 1140.55 999.474 1145.1 1006.76 1151.67 C 1017.54 1161.45 1021.24 1171.35 1025.85 1184.55 C 1024.98 1198.7 1025.44 1216.25 1025.44 1230.63 L 1025.46 1309.03 C 1025.45 1316.64 1024.25 1358.08 1025.61 1363.23 C 1041.17 1414.96 1077.07 1412.99 1122.71 1411.82 C 1144.43 1411.27 1166.74 1412.41 1188.6 1410.92 L 1184.13 1417.75 C 1173.06 1425.79 1177.59 1479.62 1177.91 1494.15 L 1172.74 1498.25 C 1169.4 1499.86 1166.19 1501.7 1163.12 1503.78 L 1163.06 1506.11 C 1150.15 1511.47 1129.24 1528.09 1117.16 1536.18 C 1111.93 1539.68 1107.84 1550.88 1106.51 1557.05 L 1104.34 1557.18 C 1105.28 1552.72 1106.67 1549.79 1107.91 1545.54 C 1099.69 1544.9 1087.78 1544.52 1079.52 1545.1 C 1074.02 1545.48 1068.82 1549.06 1061.69 1548.85 C 1043.25 1557.8 1032.05 1574.26 1027.19 1593.8 C 1025.09 1588.33 1023.07 1582.63 1020.36 1577.43 C 1001.43 1541.09 962.075 1546.93 927.866 1547.01 C 905.511 1547.08 883.157 1547 860.803 1546.76 L 859.35 1547.57 C 850.047 1552.97 840.99 1551.18 830.438 1551.21 L 780.925 1550.95 C 770.084 1551.31 758.245 1552.83 749.002 1546.81 C 743.779 1543.26 740.152 1540.36 736.554 1535.18 C 724.089 1522.4 730.778 1463.27 729.155 1444.89 C 728.044 1432.3 731.876 1421.51 741.152 1412.55 C 733.452 1410.38 719.411 1411.4 711.958 1410.93 C 689.87 1409.52 630.146 1415.04 611.314 1406.83 C 594.427 1401.61 579.88 1384.05 575.387 1367.25 C 570.694 1351.32 573.449 1289.68 573.047 1270.43 C 572.608 1249.39 570.832 1188.99 577.702 1171.86 C 579.41 1165.4 586.641 1157.24 591.476 1152.9 C 598.356 1146.73 606.966 1141.36 615.941 1138.92 C 634.628 1133.86 716.987 1135.56 739.159 1136.77 C 742.331 1136.71 744.964 1136.8 748.182 1136.63 L 750.616 1139.12 L 754.489 1139.42 C 768.002 1140.54 852.102 1142.99 860.617 1136.45 z" fill="rgb(73,157,82)" transform="translate(0,0)"></path>
<path d="M 865.023 1411.3 C 897.556 1408.18 968.97 1417.78 994.555 1404.16 C 1011.12 1395.35 1020.18 1380.63 1025.61 1363.23 C 1041.17 1414.96 1077.07 1412.99 1122.71 1411.82 C 1144.43 1411.27 1166.74 1412.41 1188.6 1410.92 L 1184.13 1417.75 C 1173.06 1425.79 1177.59 1479.62 1177.91 1494.15 L 1172.74 1498.25 C 1169.4 1499.86 1166.19 1501.7 1163.12 1503.78 L 1163.06 1506.11 C 1150.15 1511.47 1129.24 1528.09 1117.16 1536.18 C 1111.93 1539.68 1107.84 1550.88 1106.51 1557.05 L 1104.34 1557.18 C 1105.28 1552.72 1106.67 1549.79 1107.91 1545.54 C 1099.69 1544.9 1087.78 1544.52 1079.52 1545.1 C 1074.02 1545.48 1068.82 1549.06 1061.69 1548.85 C 1043.25 1557.8 1032.05 1574.26 1027.19 1593.8 C 1025.09 1588.33 1023.07 1582.63 1020.36 1577.43 C 1001.43 1541.09 962.075 1546.93 927.866 1547.01 C 905.511 1547.08 883.157 1547 860.803 1546.76 C 863.945 1543.68 865.926 1541.84 868.656 1538.38 C 872.571 1535.08 876.839 1525.14 876.877 1519.24 C 877.065 1489.92 878.964 1455.24 874.601 1426.53 C 873.977 1422.42 867.439 1414.39 865.023 1411.3 z" fill="rgb(255,255,255)" transform="translate(0,0)"></path>
<path d="M 1163.12 1503.78 L 1163.06 1506.11 C 1150.15 1511.47 1129.24 1528.09 1117.16 1536.18 C 1111.93 1539.68 1107.84 1550.88 1106.51 1557.05 L 1104.34 1557.18 C 1105.28 1552.72 1106.67 1549.79 1107.91 1545.54 C 1099.69 1544.9 1087.78 1544.52 1079.52 1545.1 C 1074.02 1545.48 1068.82 1549.06 1061.69 1548.85 C 1078.8 1541.17 1090.53 1542.67 1108.53 1544.11 C 1122.16 1525.98 1144.85 1516.78 1163.12 1503.78 z" fill="rgb(85,62,52)" transform="translate(0,0)"></path>
<path d="M 741.787 1412.74 C 743.962 1411.94 748.147 1409.44 750.985 1408.29 C 762.066 1403.8 774.677 1402.45 786.337 1405.25 C 790.317 1406.2 794.889 1409.09 798.71 1410.05 L 799.933 1410.34 C 798.271 1407.67 794.952 1406.49 792.001 1404.97 C 810.408 1404.8 833.831 1403.48 851.671 1406.43 C 856.079 1407.16 860.312 1410.6 864.051 1411.84 L 865.023 1411.3 C 867.439 1414.39 873.977 1422.42 874.601 1426.53 C 878.964 1455.24 877.065 1489.92 876.877 1519.24 C 876.839 1525.14 872.571 1535.08 868.656 1538.38 C 865.926 1541.84 863.945 1543.68 860.803 1546.76 L 859.35 1547.57 C 850.047 1552.97 840.99 1551.18 830.438 1551.21 L 780.925 1550.95 C 770.084 1551.31 758.245 1552.83 749.002 1546.81 C 743.779 1543.26 740.152 1540.36 736.554 1535.18 C 724.089 1522.4 730.778 1463.27 729.155 1444.89 C 728.044 1432.3 731.876 1421.51 741.152 1412.55 L 741.787 1412.74 z" fill="rgb(28,96,159)" transform="translate(0,0)"></path>
<path d="M 792.001 1404.97 C 810.408 1404.8 833.831 1403.48 851.671 1406.43 C 856.079 1407.16 860.312 1410.6 864.051 1411.84 L 865.023 1411.3 C 867.439 1414.39 873.977 1422.42 874.601 1426.53 C 878.964 1455.24 877.065 1489.92 876.877 1519.24 C 876.839 1525.14 872.571 1535.08 868.656 1538.38 C 865.926 1541.84 863.945 1543.68 860.803 1546.76 L 859.35 1547.57 C 850.047 1552.97 840.99 1551.18 830.438 1551.21 L 780.925 1550.95 C 786.756 1549.83 785.962 1550.32 791.174 1547.73 C 830.236 1528.82 826.147 1499.57 826.197 1462.25 C 826.224 1442.67 820.888 1417.22 799.933 1410.34 C 798.271 1407.67 794.952 1406.49 792.001 1404.97 z" fill="rgb(28,96,159)" transform="translate(0,0)"></path>
<path d="M 791.174 1547.73 C 795.169 1549.99 796.731 1550.37 801.497 1549.74 C 817.914 1547.58 834.954 1549.75 851.464 1548.52 C 858.046 1548.02 864.282 1539.43 868.656 1538.38 C 865.926 1541.84 863.945 1543.68 860.803 1546.76 L 859.35 1547.57 C 850.047 1552.97 840.99 1551.18 830.438 1551.21 L 780.925 1550.95 C 786.756 1549.83 785.962 1550.32 791.174 1547.73 z" fill="rgb(12,36,66)" transform="translate(0,0)"></path>
<path d="M 799.933 1410.34 C 820.888 1417.22 826.224 1442.67 826.197 1462.25 C 826.147 1499.57 830.236 1528.82 791.174 1547.73 C 785.962 1550.32 786.756 1549.83 780.925 1550.95 C 770.084 1551.31 758.245 1552.83 749.002 1546.81 C 743.779 1543.26 740.152 1540.36 736.554 1535.18 C 745.271 1536.93 747.09 1551.25 771.612 1549.08 C 816.42 1545.12 824.847 1515.2 823.76 1476.74 C 822.856 1444.74 827.473 1433.31 799.933 1410.34 z" fill="rgb(9,22,39)" transform="translate(0,0)"></path>
<path d="M 577.702 1171.86 C 578.154 1178.96 575.053 1184.33 574.98 1191.97 L 574.922 1297.13 C 574.913 1309.84 573.863 1353.19 576.552 1363.37 C 576.497 1364.89 575.963 1365.79 575.387 1367.25 C 570.694 1351.32 573.449 1289.68 573.047 1270.43 C 572.608 1249.39 570.832 1188.99 577.702 1171.86 z" fill="rgb(27,55,33)" transform="translate(0,0)"></path>
<path d="M 741.787 1412.74 C 748.34 1399.71 793.856 1402.8 806.772 1403.15 C 817.85 1403.45 859.776 1400.52 864.051 1411.84 C 860.312 1410.6 856.079 1407.16 851.671 1406.43 C 833.831 1403.48 810.408 1404.8 792.001 1404.97 C 794.952 1406.49 798.271 1407.67 799.933 1410.34 L 798.71 1410.05 C 794.889 1409.09 790.317 1406.2 786.337 1405.25 C 774.677 1402.45 762.066 1403.8 750.985 1408.29 C 748.147 1409.44 743.962 1411.94 741.787 1412.74 z" fill="rgb(8,4,5)" transform="translate(0,0)"></path>
<path d="M 576.552 1363.37 C 577.627 1365.36 577.275 1366.9 577.807 1369.1 C 580.209 1379.02 584.903 1384.1 591.975 1390.84 C 597.282 1395.9 601.207 1401.36 608.705 1404.02 C 610.491 1404.72 611.618 1405.01 611.314 1406.83 C 594.427 1401.61 579.88 1384.05 575.387 1367.25 C 575.963 1365.79 576.497 1364.89 576.552 1363.37 z" fill="rgb(54,120,71)" transform="translate(0,0)"></path>
<path d="M 748.182 1136.63 L 750.616 1139.12 C 748.085 1139.22 721.155 1138.18 720.202 1137.53 C 720.203 1137.53 736.564 1137.01 739.159 1136.77 C 742.331 1136.71 744.964 1136.8 748.182 1136.63 z" fill="rgb(54,120,71)" transform="translate(0,0)"></path>
<path d="M 1287.58 1141.04 C 1296.87 1141.77 1301.87 1140.45 1309.89 1136.22 L 1384.15 1136.89 C 1401.79 1136.94 1429.66 1134.56 1444.96 1142.21 C 1450 1144.75 1453.13 1146.52 1456.91 1150.57 L 1458.29 1151.35 C 1459.93 1157.55 1467.96 1162.83 1468.21 1170.55 C 1464.61 1174.1 1390.36 1181.72 1379.85 1182.61 C 1369.1 1183.44 1358.33 1184.08 1347.56 1184.55 C 1330.9 1185.34 1318.33 1184.76 1302.41 1190.62 C 1267.4 1203.51 1277.53 1234.93 1298.19 1255.21 C 1335.88 1292.22 1391.32 1287 1439.53 1282.93 C 1446.55 1282.34 1465.95 1279.34 1471.31 1280.48 C 1470.98 1287.06 1471.95 1301.33 1467.74 1304.23 C 1454.49 1313.36 1408.9 1346.07 1396.77 1351.43 L 1395.86 1352.32 C 1394.78 1353.33 1394.48 1354.27 1394.16 1355.68 C 1389.72 1359.2 1368.91 1372.56 1364.11 1374.84 C 1362.35 1377.04 1333.03 1396.81 1330.29 1397.62 L 1327.02 1398.35 C 1323.68 1399.11 1320.08 1401.99 1317.96 1404.52 C 1313.1 1406.9 1309.89 1409.14 1305.41 1412.1 C 1282.07 1395.93 1260.77 1404.93 1233.48 1402.79 C 1221.42 1401.85 1197.13 1401.74 1188.6 1410.92 C 1166.74 1412.41 1144.43 1411.27 1122.71 1411.82 C 1077.07 1412.99 1041.17 1414.96 1025.61 1363.23 C 1024.25 1358.08 1025.45 1316.64 1025.46 1309.03 L 1025.44 1230.63 C 1025.44 1216.25 1024.98 1198.7 1025.85 1184.55 C 1027.74 1177.19 1031.68 1167.5 1036.9 1161.9 C 1038.52 1158.39 1038.89 1158.43 1041.76 1155.94 C 1042.6 1154.41 1042.14 1155.01 1043.4 1153.71 C 1063.91 1132.54 1097.44 1136.42 1123.89 1136.64 C 1147.13 1136.96 1170.37 1137.02 1193.6 1136.83 C 1198.91 1140.51 1207.62 1141.67 1213.97 1141.27 C 1237.21 1139.83 1264.83 1142.87 1287.58 1141.04 z" fill="rgb(193,27,40)" transform="translate(0,0)"></path>
<path d="M 1364.11 1374.84 C 1366.01 1372.08 1366.5 1372 1369.11 1370.14 L 1372.11 1368.14 C 1373.3 1367.39 1374.46 1366.6 1375.63 1365.81 L 1378.1 1364.17 C 1384.03 1360.26 1390.38 1354.78 1396.77 1351.43 L 1395.86 1352.32 C 1394.78 1353.33 1394.48 1354.27 1394.16 1355.68 C 1389.72 1359.2 1368.91 1372.56 1364.11 1374.84 z" fill="rgb(154,24,32)" transform="translate(0,0)"></path>
<path d="M 1456.91 1150.57 C 1452.29 1149.11 1446.36 1147.05 1444.96 1142.21 C 1450 1144.75 1453.13 1146.52 1456.91 1150.57 z" fill="rgb(154,24,32)" transform="translate(0,0)"></path>
<path d="M 1036.9 1161.9 C 1038.52 1158.39 1038.89 1158.43 1041.76 1155.94 C 1040.63 1160.8 1041.37 1160.95 1036.9 1161.9 z" fill="rgb(154,24,32)" transform="translate(0,0)"></path>
<path d="M 1298.7 1543.8 L 1299.23 1545.97 C 1287.83 1555.78 1267.17 1566.69 1254.11 1575.07 L 1164.42 1633.44 C 1153.04 1640.88 1131.73 1653.77 1123.07 1663.26 C 1116.71 1670.12 1112.8 1678.89 1111.94 1688.2 C 1109.65 1713.11 1131.73 1735.95 1156.1 1737.44 C 1164.04 1737.96 1171.98 1736.6 1179.29 1733.46 C 1193.23 1727.61 1236.35 1700.17 1251.19 1691.21 C 1296.32 1664.28 1341.3 1637.08 1386.11 1609.62 C 1401.76 1599.87 1417.46 1590.04 1433.66 1581.22 C 1440.38 1577.56 1451.1 1567.69 1458.82 1570.58 C 1461.58 1576.46 1456.54 1581.37 1451.74 1584.34 C 1436.93 1593.48 1421.89 1601.96 1407.1 1611.21 L 1276.78 1691.98 C 1262.36 1700.98 1229.58 1719.45 1220.18 1731.01 C 1211.86 1741.15 1209.23 1754.81 1213.19 1767.31 C 1216.79 1778.8 1224.82 1788.39 1235.52 1793.93 C 1272 1812.72 1308.42 1778.19 1339.06 1760.71 C 1391.88 1730.57 1442.84 1696.14 1495.67 1665.99 L 1493.14 1665.24 C 1501.91 1660.06 1530.13 1637.6 1537.87 1648.31 C 1538.74 1659.31 1507.53 1674.99 1498.23 1681.4 C 1462.21 1706.24 1424.59 1729.18 1388.3 1753.55 C 1367.24 1767.7 1336.09 1780.78 1337.05 1810.11 C 1337.14 1812.51 1337.3 1814.9 1337.52 1817.3 C 1337.21 1817.79 1336.89 1817.83 1336.28 1818.14 C 1331.91 1816.54 1298.16 1817.59 1291.16 1817.65 C 1243.06 1817.87 1194.96 1817.81 1146.86 1817.48 C 1128.72 1817.46 1110.53 1817.66 1092.38 1817.79 C 1071.76 1817.94 1050.69 1810.28 1038.99 1792.2 C 1034.45 1789.2 1030.56 1777.83 1028.93 1772.5 C 1028.82 1772.82 1027.96 1738.65 1027.95 1735.18 L 1027.88 1638.74 C 1027.88 1630.65 1028.4 1600.6 1027.19 1593.8 C 1032.05 1574.26 1043.25 1557.8 1061.69 1548.85 C 1068.82 1549.06 1074.02 1545.48 1079.52 1545.1 C 1087.78 1544.52 1099.69 1544.9 1107.91 1545.54 C 1106.67 1549.79 1105.28 1552.72 1104.34 1557.18 L 1106.51 1557.05 C 1104.12 1587.11 1125.93 1608.09 1155.95 1605.87 C 1173.93 1604.55 1190.57 1591.98 1205.81 1582.75 L 1256.82 1552.11 L 1258.16 1553.23 C 1261.1 1551.52 1264.48 1549.23 1267.37 1547.34 C 1276.32 1547.87 1290.83 1548.23 1298.7 1543.8 z" fill="rgb(235,110,26)" transform="translate(0,0)"></path>
<path d="M 1493.14 1665.24 C 1501.91 1660.06 1530.13 1637.6 1537.87 1648.31 C 1538.74 1659.31 1507.53 1674.99 1498.23 1681.4 C 1462.21 1706.24 1424.59 1729.18 1388.3 1753.55 C 1367.24 1767.7 1336.09 1780.78 1337.05 1810.11 C 1337.14 1812.51 1337.3 1814.9 1337.52 1817.3 C 1337.21 1817.79 1336.89 1817.83 1336.28 1818.14 C 1331.91 1816.54 1298.16 1817.59 1291.16 1817.65 C 1243.06 1817.87 1194.96 1817.81 1146.86 1817.48 C 1128.72 1817.46 1110.53 1817.66 1092.38 1817.79 C 1071.76 1817.94 1050.69 1810.28 1038.99 1792.2 C 1048.77 1799.16 1061.13 1813.17 1074.96 1814.77 C 1097.28 1817.35 1129.84 1816.21 1152.32 1816.2 L 1335.01 1816 C 1334.51 1804.54 1335.67 1795.15 1342.65 1785.54 C 1352.2 1772.39 1369.91 1763.66 1383.26 1754.84 C 1398.2 1744.97 1495.09 1685.05 1497.76 1676.08 C 1498.62 1673.17 1498.5 1668.28 1497.01 1665.68 L 1495.67 1665.99 L 1493.14 1665.24 z" fill="rgb(85,62,52)" transform="translate(0,0)"></path>
<path d="M 1528.76 1645.68 C 1533.25 1646.06 1536.78 1648.13 1535.15 1652.52 C 1532.48 1659.74 1509.92 1672.01 1503.56 1675.94 C 1497.1 1680.57 1499.85 1668.03 1499.88 1663.05 C 1509.63 1657.47 1519.26 1651.67 1528.76 1645.68 z" fill="rgb(255,255,255)" transform="translate(0,0)"></path>
<path d="M 1256.82 1552.11 L 1258.16 1553.23 L 1210.83 1582.13 C 1199.51 1589.04 1179.89 1601.96 1167.85 1605.63 C 1158.26 1608.58 1148.06 1608.85 1138.32 1606.43 C 1126.05 1603.34 1115.79 1595.88 1109.64 1584.75 C 1105.08 1576.32 1103.24 1566.7 1104.34 1557.18 L 1106.51 1557.05 C 1104.12 1587.11 1125.93 1608.09 1155.95 1605.87 C 1173.93 1604.55 1190.57 1591.98 1205.81 1582.75 L 1256.82 1552.11 z" fill="rgb(100,62,51)" transform="translate(0,0)"></path>
<path d="M 1188.6 1410.92 C 1197.13 1401.74 1221.42 1401.85 1233.48 1402.79 C 1260.77 1404.93 1282.07 1395.93 1305.41 1412.1 C 1309.89 1409.14 1313.1 1406.9 1317.96 1404.52 L 1318.07 1405.98 C 1285.4 1426.2 1253.57 1448.81 1220.42 1468.48 C 1213.88 1472.37 1191.64 1487.62 1185.94 1489.57 C 1184.08 1490.31 1181.25 1492.29 1179.16 1493.45 L 1177.91 1494.15 C 1177.59 1479.62 1173.06 1425.79 1184.13 1417.75 L 1188.6 1410.92 z" fill="rgb(254,208,14)" transform="translate(0,0)"></path>
<path d="M 1188.6 1410.92 C 1197.13 1401.74 1221.42 1401.85 1233.48 1402.79 C 1260.77 1404.93 1282.07 1395.93 1305.41 1412.1 C 1309.89 1409.14 1313.1 1406.9 1317.96 1404.52 L 1318.07 1405.98 C 1285.4 1426.2 1253.57 1448.81 1220.42 1468.48 C 1213.88 1472.37 1191.64 1487.62 1185.94 1489.57 C 1191.58 1484.38 1203.44 1477.55 1210.38 1473.12 L 1264.72 1439.21 C 1253.77 1411.07 1232.8 1400.34 1203.52 1405.26 C 1195.21 1406.66 1190.16 1413.05 1184.13 1417.75 L 1188.6 1410.92 z" fill="rgb(56,38,7)" transform="translate(0,0)"></path>
<path d="M 1236.11 1405.06 C 1247.22 1404.69 1258.39 1404.97 1269.47 1405.01 C 1284.83 1405.07 1290.94 1402.67 1303.26 1413.18 C 1298.01 1416.73 1292.79 1420.34 1287.5 1423.83 C 1280.09 1428.75 1273.54 1432.62 1266.07 1437.94 C 1258.59 1419.15 1252.83 1415.32 1236.11 1405.06 z" fill="rgb(203,142,29)" transform="translate(0,0)"></path>
<path d="M 1386.5 1474.7 C 1391.31 1472.35 1395.63 1471.19 1398.92 1476.81 C 1399.31 1483.73 1394.47 1487.73 1389.02 1491.35 C 1375.43 1500.37 1361.19 1508.88 1347.44 1517.63 L 1196.39 1614.98 C 1173.04 1630.24 1142.4 1647.62 1122.03 1666.91 C 1117.05 1671.63 1114.02 1686.4 1114.34 1693.53 C 1114.94 1705.12 1120.08 1716.01 1128.64 1723.84 C 1139.18 1733.34 1151.46 1736.18 1165.22 1735.05 C 1183.76 1733.54 1225.34 1704.73 1243.35 1693.85 L 1374.23 1614.68 C 1391.29 1603.95 1408.51 1593.48 1425.89 1583.27 C 1434.3 1578.29 1443.4 1572.56 1452.27 1568.51 C 1456.9 1566.39 1456.48 1566.84 1459.89 1568.43 C 1464.69 1576.11 1460.14 1580.97 1453.45 1585.21 C 1437.75 1595.18 1421.64 1604.49 1405.85 1614.34 L 1278.18 1693.3 C 1261.02 1704.01 1234.37 1717.9 1221.82 1732.03 C 1203.37 1755.48 1217.44 1788.14 1245.03 1795.68 C 1263.59 1800.75 1279.59 1795.24 1295.32 1785.53 C 1341.94 1756.79 1388.88 1728.54 1435.61 1699.99 C 1454.44 1688.49 1473.89 1675.89 1493.14 1665.24 L 1495.67 1665.99 C 1442.84 1696.14 1391.88 1730.57 1339.06 1760.71 C 1308.42 1778.19 1272 1812.72 1235.52 1793.93 C 1224.82 1788.39 1216.79 1778.8 1213.19 1767.31 C 1209.23 1754.81 1211.86 1741.15 1220.18 1731.01 C 1229.58 1719.45 1262.36 1700.98 1276.78 1691.98 L 1407.1 1611.21 C 1421.89 1601.96 1436.93 1593.48 1451.74 1584.34 C 1456.54 1581.37 1461.58 1576.46 1458.82 1570.58 C 1451.1 1567.69 1440.38 1577.56 1433.66 1581.22 C 1417.46 1590.04 1401.76 1599.87 1386.11 1609.62 C 1341.3 1637.08 1296.32 1664.28 1251.19 1691.21 C 1236.35 1700.17 1193.23 1727.61 1179.29 1733.46 C 1171.98 1736.6 1164.04 1737.96 1156.1 1737.44 C 1131.73 1735.95 1109.65 1713.11 1111.94 1688.2 C 1112.8 1678.89 1116.71 1670.12 1123.07 1663.26 C 1131.73 1653.77 1153.04 1640.88 1164.42 1633.44 L 1254.11 1575.07 C 1267.17 1566.69 1287.83 1555.78 1299.23 1545.97 L 1298.7 1543.8 C 1306.92 1532.82 1306.64 1535.64 1310.88 1520.33 C 1315.74 1517.27 1356.51 1493.59 1357.03 1492.54 C 1360.29 1488.46 1375.28 1480.54 1380.64 1477.31 C 1382.26 1475.75 1384.48 1475.52 1386.5 1474.7 z" fill="rgb(100,62,51)" transform="translate(0,0)"></path>
<path d="M 1388.11 1475.05 C 1401.44 1471.6 1396.74 1483.97 1394.02 1485.52 C 1365.98 1501.43 1327.38 1533.45 1299.23 1545.97 L 1298.7 1543.8 C 1306.92 1532.82 1306.64 1535.64 1310.88 1520.33 C 1315.74 1517.27 1356.51 1493.59 1357.03 1492.54 C 1360.29 1488.46 1375.28 1480.54 1380.64 1477.31 C 1382.26 1475.75 1384.48 1475.52 1386.5 1474.7 L 1388.11 1475.05 z" fill="rgb(255,255,255)" transform="translate(0,0)"></path>
<path d="M 1380.64 1477.31 L 1382.43 1478.33 C 1374.82 1482.8 1365.3 1489.81 1357.03 1492.54 C 1360.29 1488.46 1375.28 1480.54 1380.64 1477.31 z" fill="rgb(130,87,72)" transform="translate(0,0)"></path>
<path d="M 1380.64 1477.31 C 1382.26 1475.75 1384.48 1475.52 1386.5 1474.7 L 1388.11 1475.05 C 1385.43 1476.99 1385.23 1476.86 1382.43 1478.33 L 1380.64 1477.31 z" fill="rgb(186,120,95)" transform="translate(0,0)"></path>
<path d="M 1470.91 1171.75 C 1488.16 1168.23 1505.06 1162.81 1522.06 1158.33 C 1563.43 1147.44 1599.85 1145.44 1642.02 1155.33 C 1661.49 1159.9 1680.48 1168.23 1699.71 1172.47 C 1769.39 1187.82 1835.92 1155.65 1893.03 1119.16 C 1897.79 1122.87 1900.97 1125.58 1905.38 1129.69 L 1903.61 1130.5 C 1899.39 1126.19 1898.06 1124.92 1893.14 1121.36 C 1832.31 1157.6 1768.9 1191.96 1695.02 1173 C 1680.01 1169.15 1666 1163.7 1651.32 1159.43 C 1631.01 1153.72 1610.01 1150.8 1588.91 1150.75 C 1559.32 1150.48 1531.49 1157.27 1503.26 1165.38 C 1466 1176.08 1424.01 1180.74 1385.32 1184.05 C 1372.8 1185.1 1360.26 1186.05 1347.72 1186.92 C 1333.69 1187.82 1319.54 1186.82 1306.06 1191.09 C 1278.55 1199.8 1275.11 1222.69 1291.53 1244.21 C 1328.61 1292.84 1393.83 1285 1447.5 1280.02 C 1455.52 1279.27 1465.49 1277.88 1473.37 1277.81 L 1471.31 1280.48 C 1465.95 1279.34 1446.55 1282.34 1439.53 1282.93 C 1391.32 1287 1335.88 1292.22 1298.19 1255.21 C 1277.53 1234.93 1267.4 1203.51 1302.41 1190.62 C 1318.33 1184.76 1330.9 1185.34 1347.56 1184.55 C 1358.33 1184.08 1369.1 1183.44 1379.85 1182.61 C 1390.36 1181.72 1464.61 1174.1 1468.21 1170.55 C 1467.96 1162.83 1459.93 1157.55 1458.29 1151.35 C 1465.06 1156.3 1468.33 1164.17 1470.91 1171.75 z" fill="rgb(100,62,51)" transform="translate(0,0)"></path>
<path d="M 1473.37 1277.81 C 1478.35 1276.07 1510.01 1272.93 1516.08 1273.18 C 1513.27 1274.39 1513.75 1273.91 1514.88 1275.63 C 1508.3 1281.3 1475.72 1302.59 1466.88 1308 C 1445.67 1320.98 1414.99 1344.48 1394.16 1355.68 C 1394.48 1354.27 1394.78 1353.33 1395.86 1352.32 L 1396.77 1351.43 C 1408.9 1346.07 1454.49 1313.36 1467.74 1304.23 C 1471.95 1301.33 1470.98 1287.06 1471.31 1280.48 L 1473.37 1277.81 z" fill="rgb(85,62,52)" transform="translate(0,0)"></path>
<path d="M 1507.18 1275.47 C 1507.75 1275.38 1511.33 1274.69 1511.61 1275.75 C 1511.09 1277.67 1480.41 1296.92 1476.49 1299.39 C 1475.53 1299.97 1474.31 1301.04 1473.09 1300.65 C 1472.74 1299.92 1473.04 1281.63 1473.05 1279.45 C 1484.52 1278.17 1495.64 1276.65 1507.18 1275.47 z" fill="rgb(255,255,255)" transform="translate(0,0)"></path>
<path d="M 1953.52 1180.1 C 1997.15 1233.98 2027.3 1297.52 2040.32 1365.97 C 2044.15 1386.08 2044.72 1407.58 2045.2 1428.05 C 2018.63 1436.18 2005.62 1443.69 1981.99 1455.83 L 1981.97 1453.64 C 1987.27 1451.68 2002.16 1443.36 2008.33 1440.42 C 2020.79 1434.5 2029.9 1431.1 2042.79 1426.45 L 2042.67 1406.78 C 2041.81 1404.62 2042.04 1403.55 2042.25 1401.2 C 2040.55 1325.16 1998.37 1239.85 1951.85 1181.18 L 1953.52 1180.1 z" fill="rgb(130,87,72)" transform="translate(0,0)"></path>
<path d="M 2042.25 1401.2 C 2043.19 1403.33 2042.91 1404.38 2042.67 1406.78 C 2041.81 1404.62 2042.04 1403.55 2042.25 1401.2 z" fill="rgb(186,120,95)" transform="translate(0,0)"></path>
<path d="M 1256.82 1552.11 C 1266.44 1545.44 1351.05 1492.4 1357.03 1492.54 C 1356.51 1493.59 1315.74 1517.27 1310.88 1520.33 C 1306.64 1535.64 1306.92 1532.82 1298.7 1543.8 C 1290.83 1548.23 1276.32 1547.87 1267.37 1547.34 C 1264.48 1549.23 1261.1 1551.52 1258.16 1553.23 L 1256.82 1552.11 z" fill="rgb(100,62,51)" transform="translate(0,0)"></path>
<path d="M 1306.65 1523.01 C 1308.93 1525.85 1303.63 1534.95 1301.72 1537.4 C 1295.27 1545.71 1282.21 1545.18 1272.46 1545.92 C 1269.68 1544.33 1277.23 1541.4 1278.39 1540.78 C 1288.26 1535.53 1297.08 1528.68 1306.65 1523.01 z" fill="rgb(235,110,26)" transform="translate(0,0)"></path>
<path d="M 1516.66 1770.48 L 1518.56 1771.4 C 1511.65 1775.72 1495.1 1784.38 1491.17 1790.96 C 1481.72 1806.82 1466.11 1817.22 1447.61 1818.54 C 1443.75 1818.74 1438.96 1822.63 1436.12 1824.43 L 1436.11 1822.61 C 1457.68 1808.67 1479.14 1793.53 1501.15 1780.24 C 1506.33 1777.11 1511.71 1773.92 1516.66 1770.48 z" fill="rgb(85,62,52)" transform="translate(0,0)"></path>
<path d="M 1488.45 1789.98 C 1489.75 1800.38 1462.63 1814.61 1452.57 1816.27 L 1450.66 1816.63 C 1450.3 1814.36 1483.64 1792.91 1488.45 1789.98 z" fill="rgb(235,110,26)" transform="translate(0,0)"></path>
<path d="M 1981.97 1453.64 L 1981.99 1455.83 C 1942.31 1479.73 1921.59 1494.33 1887.49 1526.13 C 1869.06 1543.33 1824.1 1592.58 1805.18 1602.92 C 1807.48 1599.62 1811.79 1596.33 1814.96 1593.64 C 1815.65 1593.23 1815.63 1593.33 1816.15 1592.73 C 1846.05 1568.59 1869.9 1538.47 1899.03 1513.51 C 1907.27 1506.45 1915.56 1499.5 1923.91 1492.58 C 1924.61 1492.22 1924.72 1492.27 1925.1 1491.7 C 1945.58 1476.18 1960.46 1467.36 1981.97 1453.64 z" fill="rgb(100,62,51)" transform="translate(0,0)"></path>
<path d="M 1337.52 1817.3 C 1340.14 1822.88 1339.79 1826.53 1344.52 1832.65 C 1347.01 1837.25 1350.33 1839.26 1353.9 1842.17 C 1363.49 1850 1371.18 1851.45 1383 1851.24 C 1397.21 1851 1399.68 1846.47 1410.29 1840.54 L 1410.27 1842.59 C 1403.19 1848.01 1396.93 1851.61 1388 1852.89 C 1375.64 1854.69 1363.08 1851.57 1353.01 1844.19 C 1344.95 1838.38 1337.8 1828.16 1336.28 1818.14 C 1336.89 1817.83 1337.21 1817.79 1337.52 1817.3 z" fill="rgb(130,87,72)" transform="translate(0,0)"></path>
<path d="M 1615.1 1712.44 C 1615.56 1709.72 1622.92 1706.18 1625.54 1704.89 C 1635.54 1700 1646.17 1690.36 1656.74 1687.65 C 1653.97 1690.42 1617.88 1712.27 1615.1 1712.44 z" fill="rgb(186,120,95)" transform="translate(0,0)"></path>
<path d="M 1564.63 1741.27 L 1566.63 1742.44 C 1561.29 1746.23 1537.77 1760.23 1532.22 1762.65 C 1537.31 1755.98 1556.85 1747.07 1564.63 1741.27 z" fill="rgb(186,120,95)" transform="translate(0,0)"></path>
<path d="M 1912.79 1136.12 C 1917.3 1139.55 1928.89 1150.89 1932.32 1155.55 L 1931.55 1157.38 C 1931.76 1157.5 1912.45 1138.49 1911.07 1137.06 L 1912.79 1136.12 z" fill="rgb(186,120,95)" transform="translate(0,0)"></path>
<path d="M 1768.71 1625.39 C 1769.46 1624.54 1774.55 1621.54 1775.54 1621.13 C 1782.71 1618.16 1787.64 1611.99 1795.16 1610.42 C 1791.05 1614.54 1774.56 1624.65 1769.18 1627.03 L 1768.71 1625.39 z" fill="rgb(186,120,95)" transform="translate(0,0)"></path>
<path d="M 1696.1 1664.46 C 1696.72 1661.17 1714.96 1652.42 1719.06 1652.61 C 1715.81 1654.59 1698.85 1664.31 1696.1 1664.46 z" fill="rgb(186,120,95)" transform="translate(0,0)"></path>
<path d="M 1595.12 1724.45 C 1595.77 1720.83 1611.02 1713.64 1615.1 1712.44 C 1612.52 1714.98 1598.09 1724.39 1595.12 1724.45 z" fill="rgb(186,120,95)" transform="translate(0,0)"></path>
<path d="M 1572.93 1737.63 C 1577.29 1732.41 1588.43 1726.4 1595.12 1724.45 C 1591.48 1728.02 1577.96 1735.82 1572.93 1737.63 z" fill="rgb(186,120,95)" transform="translate(0,0)"></path>
<path d="M 1433.99 1823.94 L 1436.12 1824.43 C 1431.87 1828.2 1416.17 1838.31 1410.27 1842.59 L 1410.29 1840.54 C 1416.25 1836.58 1428.84 1828.37 1433.99 1823.94 z" fill="rgb(100,62,51)" transform="translate(0,0)"></path>
<path d="M 1768.71 1625.39 L 1769.18 1627.03 C 1762.3 1630.99 1756.05 1633.91 1749.11 1637.44 L 1749.03 1635.5 C 1755.6 1632.64 1762.37 1628.77 1768.71 1625.39 z" fill="rgb(85,62,52)" transform="translate(0,0)"></path>
<path d="M 1736.22 1643.66 C 1739.36 1639.58 1744.14 1637 1749.03 1635.5 L 1749.11 1637.44 C 1744.99 1639.87 1740.68 1641.96 1736.22 1643.66 z" fill="rgb(186,120,95)" transform="translate(0,0)"></path>
<path d="M 1317.96 1404.52 C 1320.08 1401.99 1323.68 1399.11 1327.02 1398.35 L 1330.29 1397.62 C 1326.5 1400.99 1322.35 1403.23 1318.07 1405.98 L 1317.96 1404.52 z" fill="rgb(154,24,32)" transform="translate(0,0)"></path>
<path d="M 1516.66 1770.48 C 1519.49 1767.2 1525.13 1765.58 1529.19 1764.69 C 1525.8 1767.41 1522.3 1769.22 1518.56 1771.4 L 1516.66 1770.48 z" fill="rgb(186,120,95)" transform="translate(0,0)"></path>
<path d="M 1679.08 1674.58 C 1679.92 1670.15 1685.27 1669.59 1689.1 1668.45 C 1686.71 1670.78 1682.39 1673.92 1679.08 1674.58 z" fill="rgb(186,120,95)" transform="translate(0,0)"></path>
<path d="M 1656.74 1687.65 C 1658.36 1683.19 1663.35 1682.53 1667.29 1681.69 C 1664.6 1683.88 1660.2 1687.02 1656.74 1687.65 z" fill="rgb(186,120,95)" transform="translate(0,0)"></path>
<path d="M 1163.12 1503.78 C 1166.19 1501.7 1169.4 1499.86 1172.74 1498.25 C 1168.91 1504.07 1168.95 1502.29 1163.06 1506.11 L 1163.12 1503.78 z" fill="rgb(186,120,95)" transform="translate(0,0)"></path>
<path d="M 1564.63 1741.27 C 1566.07 1739.99 1571.02 1737.46 1572.93 1737.63 C 1572.22 1739.89 1568.68 1741.15 1566.63 1742.44 L 1564.63 1741.27 z" fill="rgb(186,120,95)" transform="translate(0,0)"></path>
<path d="M 1689.1 1668.45 C 1689.82 1664.71 1692.27 1665.59 1696.1 1664.46 C 1693.97 1666.52 1692.16 1668.29 1689.1 1668.45 z" fill="rgb(186,120,95)" transform="translate(0,0)"></path>
<path d="M 1932.32 1155.55 C 1934.73 1158.16 1937.17 1160.74 1939.64 1163.29 L 1937.77 1164.61 C 1935.9 1161.04 1934.62 1160.07 1931.55 1157.38 L 1932.32 1155.55 z" fill="rgb(55,38,34)" transform="translate(0,0)"></path>
<path d="M 1905.38 1129.69 C 1908.25 1131.76 1910.26 1133.68 1912.79 1136.12 L 1911.07 1137.06 C 1908.84 1134.19 1908.37 1133.85 1905.44 1131.8 L 1905.38 1129.69 z" fill="rgb(55,38,34)" transform="translate(0,0)"></path>
<path d="M 1944.76 1169.33 C 1945.68 1170.26 1946.32 1170.98 1947.18 1171.96 L 1945.79 1173.98 C 1943.8 1172.36 1943.97 1172.5 1943.11 1169.96 L 1944.76 1169.33 z" fill="rgb(130,87,72)" transform="translate(0,0)"></path>
<path d="M 1949.43 1174.74 C 1950 1175.44 1950.55 1176.14 1951.09 1176.86 L 1949.5 1178.13 C 1948.59 1177.57 1948.16 1176.97 1947.64 1176.04 L 1947 1174.94 L 1949.43 1174.74 z" fill="rgb(130,87,72)" transform="translate(0,0)"></path>
<path d="M 1941.54 1165.44 C 1942.67 1167.02 1943.45 1167.87 1944.76 1169.33 L 1943.11 1169.96 C 1941.96 1168.64 1941.31 1167.93 1940.05 1166.71 L 1941.54 1165.44 z" fill="rgb(55,38,34)" transform="translate(0,0)"></path>
<path d="M 1516.08 1273.18 C 1516.46 1273.49 1517.33 1273.98 1517.31 1274.58 C 1516.85 1275.23 1515.51 1275.43 1514.88 1275.63 C 1513.75 1273.91 1513.27 1274.39 1516.08 1273.18 z" fill="rgb(8,4,5)" transform="translate(0,0)"></path>
<path d="M 1939.64 1163.29 C 1940.27 1164.01 1940.91 1164.72 1941.54 1165.44 L 1940.05 1166.71 C 1939 1165.84 1938.65 1165.58 1937.77 1164.61 L 1939.64 1163.29 z" fill="rgb(186,120,95)" transform="translate(0,0)"></path>
<path d="M 1951.09 1176.86 C 1951.89 1177.99 1952.67 1179 1953.52 1180.1 L 1951.85 1181.18 C 1951.16 1180.25 1950.29 1178.99 1949.5 1178.13 L 1951.09 1176.86 z" fill="rgb(55,38,34)" transform="translate(0,0)"></path>
<path d="M 977.781 323.837 C 1019.36 323.418 1060.94 323.502 1102.52 324.088 C 1104.72 324.906 1105.47 325.303 1107.72 325.762 C 1138.59 325.305 1180.23 327.605 1209.68 325.471 L 1211.14 323.82 C 1238.8 323.938 1266.45 323.881 1294.11 323.65 C 1310.53 323.6 1328.49 322.526 1344.98 325.492 C 1364.06 328.925 1384.87 349.351 1388.47 368.674 C 1392.15 388.478 1389 413.512 1390.11 433.762 C 1390.34 467.31 1389.91 500.616 1389.98 534.122 C 1390 547.492 1386.29 562.489 1376.3 572.014 C 1355.25 604.859 1287.28 591.094 1254.82 593.901 C 1249.16 594.391 1234.14 594.196 1228.52 593.708 L 1211.29 593.754 L 1217.75 600.674 C 1229.48 617.499 1225.27 645.198 1225.86 665.238 C 1226.31 680.319 1228.22 711.064 1216.78 721.305 L 1213.13 725.977 C 1200.17 738.613 1138.86 731.084 1118.93 733.367 C 1111.91 734.171 1097.05 731.219 1091.7 725.876 L 1091.22 725.81 C 1052.94 726.689 1031.18 731.205 1015.91 770.262 C 1014.64 780.397 1014.99 831.115 1015.35 843.51 C 1016.33 877.024 1013.6 921.132 1016.08 953.261 C 997.254 1000.72 965.575 997.258 921.479 996.945 C 900.973 996.8 879.969 997.221 859.41 996.89 C 852.53 993.229 793.285 993.296 783.337 994.107 C 776.356 993.362 769.742 993.828 762.735 994.107 C 759.033 993.289 744.004 995.416 740.288 996.547 C 727.476 997.193 711.012 996.782 697.972 996.812 C 676.477 996.99 654.981 996.953 633.487 996.701 C 621.444 996.866 601.98 995.13 591.994 999.041 C 589.772 1001.9 585.821 1003.59 582.679 1005.42 C 577.717 1008.79 564.092 1017.51 558.952 1019.68 C 552.994 1030.07 481.779 1057.75 465.416 1061.12 C 451.246 1064.03 433 1069.29 418.977 1075.04 C 410.48 1078.53 385.647 1095.33 379.985 1096.98 C 377.958 1099.75 376.261 1100.28 373.125 1101.88 C 371.051 1104.23 355.018 1115.47 352.145 1116.46 C 338.925 1128.05 324.038 1138.93 310.543 1150.46 C 283.188 1174.09 257.943 1200.06 235.094 1228.07 C 231.534 1225.9 222.595 1220.7 219.917 1218.31 C 208.31 1212.71 181.973 1193.55 171.451 1185.44 C 113.558 1140.22 65.7124 1083.45 30.9578 1018.73 C 20.0968 998.467 11.4237 978.442 2.27191 957.416 C 60.9764 904.943 122.404 868.055 167.178 802.147 C 187.239 769.984 185.804 745.732 192.918 710.006 C 198.373 682.616 216.54 639.459 233.306 615.871 C 234.04 613.43 241.139 601.521 243.2 599.9 C 245.451 594.769 248.655 588.872 252.496 584.797 C 253.148 581.772 259.91 571.404 262.45 568.834 C 266.087 559.811 275.788 547.215 278.184 538.683 C 287.572 505.262 298.64 472.355 309.917 439.643 C 318.784 413.924 317.873 381.408 317.104 354.441 C 332.676 328.569 366.83 342.264 385.76 356.583 C 389.31 359.268 393.453 363.684 396.285 367.083 C 397.311 368.578 397.605 368.975 398.779 370.34 C 433.996 419.681 416.523 454.166 405.911 506.517 C 399.254 540.081 393.446 573.808 388.493 607.665 C 396.81 604.053 413.378 594.553 419.93 592.563 C 420.527 591.388 518.659 539.497 526.987 536.541 C 527.4 535.678 767.735 409.028 784.027 402.409 C 784.292 402.127 785.56 401.533 785.97 401.319 C 787.466 400.221 788.513 399.434 790.189 398.631 C 808.899 389.67 814.786 381.203 836.042 387.635 C 845.724 392.36 848.177 394.17 855.695 402.128 C 876.251 430.644 864.918 457.016 839.15 476.118 C 839.018 483.793 838.829 490.302 839.473 497.94 C 844.037 495.127 846.139 494.175 851.016 492.429 C 851.283 492.141 852.551 491.537 852.966 491.318 C 856.85 488.516 869.595 481.512 874.308 479.18 C 893.452 469.708 904.8 465.707 925.63 472.134 C 926.224 451.177 925.396 430.119 925.454 409.112 C 925.591 388.419 922.913 368.244 935.167 350.021 C 946.104 333.756 959.411 327.611 977.781 323.837 z" fill="rgb(237,151,122)" transform="translate(0,0)"></path>
<path d="M 977.781 323.837 C 1019.36 323.418 1060.94 323.502 1102.52 324.088 C 1104.72 324.906 1105.47 325.303 1107.72 325.762 C 1138.59 325.305 1180.23 327.605 1209.68 325.471 L 1211.14 323.82 C 1238.8 323.938 1266.45 323.881 1294.11 323.65 C 1310.53 323.6 1328.49 322.526 1344.98 325.492 C 1364.06 328.925 1384.87 349.351 1388.47 368.674 C 1392.15 388.478 1389 413.512 1390.11 433.762 C 1390.34 467.31 1389.91 500.616 1389.98 534.122 C 1390 547.492 1386.29 562.489 1376.3 572.014 C 1355.25 604.859 1287.28 591.094 1254.82 593.901 C 1249.16 594.391 1234.14 594.196 1228.52 593.708 L 1211.29 593.754 L 1217.75 600.674 C 1229.48 617.499 1225.27 645.198 1225.86 665.238 C 1226.31 680.319 1228.22 711.064 1216.78 721.305 L 1213.13 725.977 C 1200.17 738.613 1138.86 731.084 1118.93 733.367 C 1111.91 734.171 1097.05 731.219 1091.7 725.876 L 1091.22 725.81 C 1082.85 719.054 1077.82 711.049 1077.37 700.051 C 1076.28 673.571 1076.4 646.687 1076.8 620.184 C 1076.95 610.054 1082.42 601.264 1089.9 594.748 C 1084.42 592.976 985.71 593.264 975.36 594.197 L 974.608 595.591 L 976.003 598.381 L 974.853 599.237 C 970.834 593.086 961.37 587.012 954.37 584.459 C 938.438 578.649 922.462 589.535 907.892 597.126 L 906.151 595.885 C 920.118 588.959 929.524 582.433 945.096 579.754 C 936.405 571.441 933.727 568.283 928.99 556.883 C 924.612 559.038 919.484 561.895 915.231 564.342 L 914.494 562.91 C 938.285 549.775 959.462 535.204 950.713 503.223 C 947.487 491.736 939.78 482.026 929.324 476.277 C 896.466 458.339 878.41 485.291 852.966 491.318 C 856.85 488.516 869.595 481.512 874.308 479.18 C 893.452 469.708 904.8 465.707 925.63 472.134 C 926.224 451.177 925.396 430.119 925.454 409.112 C 925.591 388.419 922.913 368.244 935.167 350.021 C 946.104 333.756 959.411 327.611 977.781 323.837 z" fill="rgb(254,208,14)" transform="translate(0,0)"></path>
<path d="M 1091.99 592.162 C 1098.21 590.408 1104.5 588.586 1110.97 588.243 C 1134.69 586.986 1158.6 588.122 1182.35 588.049 C 1193.54 588.014 1204.2 590.672 1215.13 592.688 C 1219.48 593.495 1224.21 593.133 1228.52 593.708 L 1211.29 593.754 L 1217.75 600.674 C 1229.48 617.499 1225.27 645.198 1225.86 665.238 C 1226.31 680.319 1228.22 711.064 1216.78 721.305 L 1213.13 725.977 C 1200.17 738.613 1138.86 731.084 1118.93 733.367 C 1111.91 734.171 1097.05 731.219 1091.7 725.876 L 1091.22 725.81 C 1082.85 719.054 1077.82 711.049 1077.37 700.051 C 1076.28 673.571 1076.4 646.687 1076.8 620.184 C 1076.95 610.054 1082.42 601.264 1089.9 594.748 L 1090.91 595.437 L 1091.99 592.162 z" fill="rgb(193,27,40)" transform="translate(0,0)"></path>
<path d="M 1091.99 592.162 C 1098.21 590.408 1104.5 588.586 1110.97 588.243 C 1134.69 586.986 1158.6 588.122 1182.35 588.049 C 1193.54 588.014 1204.2 590.672 1215.13 592.688 C 1219.48 593.495 1224.21 593.133 1228.52 593.708 L 1211.29 593.754 L 1217.75 600.674 C 1229.48 617.499 1225.27 645.198 1225.86 665.238 C 1226.31 680.319 1228.22 711.064 1216.78 721.305 L 1213.13 725.977 C 1200.17 738.613 1138.86 731.084 1118.93 733.367 C 1111.91 734.171 1097.05 731.219 1091.7 725.876 C 1093.04 725.875 1092.84 725.731 1093.96 726.233 C 1105.94 731.562 1119.99 734.534 1132.95 730.709 C 1148.17 726.113 1160.82 715.438 1167.9 701.207 C 1175.76 685.367 1174.85 659.003 1173.88 641.237 C 1171.2 592.409 1129.92 579.911 1090.91 595.437 L 1091.99 592.162 z" fill="rgb(154,24,32)" transform="translate(0,0)"></path>
<path d="M 1091.99 592.162 C 1098.21 590.408 1104.5 588.586 1110.97 588.243 C 1134.69 586.986 1158.6 588.122 1182.35 588.049 C 1193.54 588.014 1204.2 590.672 1215.13 592.688 C 1219.48 593.495 1224.21 593.133 1228.52 593.708 L 1211.29 593.754 L 1217.75 600.674 L 1215.67 601.076 C 1212.92 599.191 1212.74 598.786 1210.6 596.13 C 1197.34 586.295 1160.73 589.852 1142.83 590.161 C 1170.76 606.053 1174.54 618.695 1175.99 648.843 C 1177.82 687.053 1174.58 712.604 1138.08 731.837 C 1157.42 731.69 1181.69 732.9 1200.75 730.487 C 1205.98 729.826 1213.13 722.171 1216.78 721.305 L 1213.13 725.977 C 1200.17 738.613 1138.86 731.084 1118.93 733.367 C 1111.91 734.171 1097.05 731.219 1091.7 725.876 C 1093.04 725.875 1092.84 725.731 1093.96 726.233 C 1105.94 731.562 1119.99 734.534 1132.95 730.709 C 1148.17 726.113 1160.82 715.438 1167.9 701.207 C 1175.76 685.367 1174.85 659.003 1173.88 641.237 C 1171.2 592.409 1129.92 579.911 1090.91 595.437 L 1091.99 592.162 z" fill="rgb(59,8,11)" transform="translate(0,0)"></path>
<path d="M 1210.6 596.13 C 1213.16 598.103 1213.87 598.445 1215.67 601.076 C 1212.92 599.191 1212.74 598.786 1210.6 596.13 z" fill="rgb(154,24,32)" transform="translate(0,0)"></path>
<path d="M 925.63 472.134 C 926.224 451.177 925.396 430.119 925.454 409.112 C 925.591 388.419 922.913 368.244 935.167 350.021 C 946.104 333.756 959.411 327.611 977.781 323.837 L 976 325.995 C 959.269 329.501 946.438 335.995 936.633 350.739 C 932.268 357.391 929.322 364.871 927.978 372.712 C 926.194 382.85 926.746 399.807 926.769 410.603 L 927.086 472.888 C 962.277 490.748 963.891 533.966 930.92 556.075 C 939.722 580.453 952.441 579.66 971 591.927 C 1010.73 593.552 1052.65 591.006 1091.99 592.162 L 1090.91 595.437 L 1089.9 594.748 C 1084.42 592.976 985.71 593.264 975.36 594.197 L 974.608 595.591 L 976.003 598.381 L 974.853 599.237 C 970.834 593.086 961.37 587.012 954.37 584.459 C 938.438 578.649 922.462 589.535 907.892 597.126 L 906.151 595.885 C 920.118 588.959 929.524 582.433 945.096 579.754 C 936.405 571.441 933.727 568.283 928.99 556.883 C 924.612 559.038 919.484 561.895 915.231 564.342 L 914.494 562.91 C 938.285 549.775 959.462 535.204 950.713 503.223 C 947.487 491.736 939.78 482.026 929.324 476.277 C 896.466 458.339 878.41 485.291 852.966 491.318 C 856.85 488.516 869.595 481.512 874.308 479.18 C 893.452 469.708 904.8 465.707 925.63 472.134 z" fill="rgb(100,62,51)" transform="translate(0,0)"></path>
<path d="M 1209.68 325.471 L 1211.14 323.82 C 1238.8 323.938 1266.45 323.881 1294.11 323.65 C 1310.53 323.6 1328.49 322.526 1344.98 325.492 C 1364.06 328.925 1384.87 349.351 1388.47 368.674 C 1392.15 388.478 1389 413.512 1390.11 433.762 C 1390.34 467.31 1389.91 500.616 1389.98 534.122 C 1390 547.492 1386.29 562.489 1376.3 572.014 C 1380.76 561.043 1386.11 557.941 1387.31 544.664 C 1388.49 531.748 1388.03 519.071 1388 506.101 L 1387.82 439.929 C 1387.81 433.084 1388.07 426.082 1387.88 419.27 C 1387.15 393.311 1393.26 369.064 1375.71 347.141 C 1368.46 338.032 1358.58 331.371 1347.42 328.06 C 1335.63 324.652 1322.45 325.394 1310.22 325.425 C 1290.63 325.433 1271.04 325.58 1251.45 325.866 C 1239.19 326.089 1221.66 327.139 1209.68 325.471 z" fill="rgb(203,142,29)" transform="translate(0,0)"></path>
<path d="M 977.781 323.837 C 1019.36 323.418 1060.94 323.502 1102.52 324.088 C 1104.72 324.906 1105.47 325.303 1107.72 325.762 C 1065.1 327.242 1018.47 323.815 976 325.995 L 977.781 323.837 z" fill="rgb(203,142,29)" transform="translate(0,0)"></path>
<path d="M 851.596 724.222 C 874.724 724.492 897.855 724.472 920.982 724.163 C 941.304 723.982 978.919 720.498 994.241 737.064 C 997.959 740.13 1002.01 743.518 1004.13 747.871 C 1009.93 753.408 1014.09 762.506 1015.91 770.262 C 1014.64 780.397 1014.99 831.115 1015.35 843.51 C 1016.33 877.024 1013.6 921.132 1016.08 953.261 C 997.254 1000.72 965.575 997.258 921.479 996.945 C 900.973 996.8 879.969 997.221 859.41 996.89 C 852.53 993.229 793.285 993.296 783.337 994.107 C 776.356 993.362 769.742 993.828 762.735 994.107 C 759.033 993.289 744.004 995.416 740.288 996.547 C 727.476 997.193 711.012 996.782 697.972 996.812 C 676.477 996.99 654.981 996.953 633.487 996.701 C 621.444 996.866 601.98 995.13 591.994 999.041 C 595.436 995.22 600.582 992.558 605.072 989.821 L 606.434 990.47 C 618.496 985.082 631.62 976.058 643.471 969.786 C 647.228 967.797 654.034 965.573 654.989 961.301 L 656.677 960.551 C 661.221 957.761 676.299 949.269 681.054 947.863 L 681.251 947.416 C 685.945 944.204 689.58 942.252 694.876 940.292 C 695.853 938.507 702.668 935.479 704.686 934.564 C 709.021 931.91 711.322 930.307 716.119 928.73 L 716.615 928.616 C 720.285 925.423 728.336 921.437 732.919 919.191 C 737.509 916.574 740.786 914.748 745.679 912.553 C 760.72 903.231 782.855 892.809 798.806 884.02 C 806.65 879.699 834.033 864.705 840.858 862.333 C 841.559 861.162 842.137 861.271 843.819 860.444 C 854.127 854.173 865.392 849.368 875.687 843.293 C 901.908 827.82 939.555 819.944 939.166 782.587 C 939.118 771.733 934.653 761.366 926.798 753.875 C 919.009 746.353 907.587 741.218 896.606 742.023 C 878.412 743.357 846.077 761.731 828.96 770.208 C 815.332 776.957 727.984 820.213 718.472 819.59 C 715.974 819.427 713.831 818.539 712.36 816.434 C 710.429 813.672 710.693 809.344 711.68 806.268 C 712.8 802.774 715.356 799.003 718.278 796.761 C 730.074 787.71 749.102 779.462 762.493 772.047 C 789.762 756.948 816.599 740.995 844.03 726.214 L 846.311 727.309 C 848.148 726.296 850.012 725.633 851.596 724.222 z" fill="rgb(193,27,40)" transform="translate(0,0)"></path>
<path d="M 843.819 860.444 C 854.127 854.173 865.392 849.368 875.687 843.293 C 901.908 827.82 939.555 819.944 939.166 782.587 C 939.118 771.733 934.653 761.366 926.798 753.875 C 919.009 746.353 907.587 741.218 896.606 742.023 C 878.412 743.357 846.077 761.731 828.96 770.208 C 815.332 776.957 727.984 820.213 718.472 819.59 C 715.974 819.427 713.831 818.539 712.36 816.434 C 710.429 813.672 710.693 809.344 711.68 806.268 C 712.8 802.774 715.356 799.003 718.278 796.761 C 730.074 787.71 749.102 779.462 762.493 772.047 C 789.762 756.948 816.599 740.995 844.03 726.214 L 846.311 727.309 C 817.988 743.436 789.581 759.413 761.09 775.24 C 750.41 781.171 709.037 798.766 712.239 812.749 C 714.735 815.799 714.652 815.62 718.241 817.39 C 728.594 817.535 791.202 784.534 807.389 778.104 C 834.381 767.381 865.774 745.694 895.338 739.744 C 903.849 737.922 916.842 744.013 924.061 748.653 C 924.68 749.01 924.682 749.012 925.183 749.527 C 944.003 767.658 947.581 790.453 931.372 812.07 C 931.024 812.691 931.021 812.667 930.499 813.153 C 927.236 816.492 923.986 819.323 920.038 821.861 C 910.826 827.781 851.534 860.401 844.647 860.454 C 844.371 860.456 844.095 860.447 843.819 860.444 z" fill="rgb(154,24,32)" transform="translate(0,0)"></path>
<path d="M 745.679 912.553 C 760.72 903.231 782.855 892.809 798.806 884.02 C 806.65 879.699 834.033 864.705 840.858 862.333 C 837.351 866.881 832.821 868.223 827.98 870.86 C 810.168 880.562 791.955 889.922 774.082 899.431 C 767.447 902.961 752.273 913.01 745.679 912.553 z" fill="rgb(154,24,32)" transform="translate(0,0)"></path>
<path d="M 605.072 989.821 L 606.434 990.47 L 603.03 992.718 L 602.739 994.374 C 610.386 996.889 688.408 995.242 702.992 995.569 C 683.113 995.712 652.43 995.085 633.487 996.701 C 621.444 996.866 601.98 995.13 591.994 999.041 C 595.436 995.22 600.582 992.558 605.072 989.821 z" fill="rgb(8,4,5)" transform="translate(0,0)"></path>
<path d="M 656.677 960.551 C 661.221 957.761 676.299 949.269 681.054 947.863 C 678.735 951.652 661.963 961.108 656.677 960.551 z" fill="rgb(154,24,32)" transform="translate(0,0)"></path>
<path d="M 732.919 919.191 C 732.134 923.631 720.73 928.45 716.615 928.616 C 720.285 925.423 728.336 921.437 732.919 919.191 z" fill="rgb(154,24,32)" transform="translate(0,0)"></path>
<path d="M 1004.13 747.871 C 1000.45 747.384 994.581 740.324 994.241 737.064 C 997.959 740.13 1002.01 743.518 1004.13 747.871 z" fill="rgb(154,24,32)" transform="translate(0,0)"></path>
<path d="M 681.251 947.416 C 685.945 944.204 689.58 942.252 694.876 940.292 C 691.567 944.697 686.804 947.592 681.251 947.416 z" fill="rgb(154,24,32)" transform="translate(0,0)"></path>
<path d="M 704.686 934.564 C 709.021 931.91 711.322 930.307 716.119 928.73 C 713.379 933.313 709.762 935.169 704.686 934.564 z" fill="rgb(154,24,32)" transform="translate(0,0)"></path>
<path d="M 976.003 598.381 L 974.608 595.591 L 975.36 594.197 C 985.71 593.264 1084.42 592.976 1089.9 594.748 C 1082.42 601.264 1076.95 610.054 1076.8 620.184 C 1076.4 646.687 1076.28 673.571 1077.37 700.051 C 1077.82 711.049 1082.85 719.054 1091.22 725.81 C 1052.94 726.689 1031.18 731.205 1015.91 770.262 C 1014.09 762.506 1009.93 753.408 1004.13 747.871 C 1002.01 743.518 997.959 740.13 994.241 737.064 C 978.919 720.498 941.304 723.982 920.982 724.163 C 897.855 724.472 874.724 724.492 851.596 724.222 C 859.54 718.791 873.449 711.35 882.187 706.406 C 890.563 702.386 922.167 686.246 928.114 680.454 C 930.859 680.344 942.099 673.376 945.039 671.605 C 947.628 670.811 953.122 667.594 955.186 665.583 C 955.969 664.52 956.801 663.063 958 662.509 C 976.567 653.914 985.491 636.024 982.593 616.018 C 981.608 609.217 978.837 604.662 974.853 599.237 L 976.003 598.381 z" fill="rgb(255,255,255)" transform="translate(0,0)"></path>
<path d="M 976.003 598.381 C 980.526 601.714 984.283 612.59 984.884 618.008 C 987.353 640.282 974.938 657.338 955.186 665.583 C 955.969 664.52 956.801 663.063 958 662.509 C 976.567 653.914 985.491 636.024 982.593 616.018 C 981.608 609.217 978.837 604.662 974.853 599.237 L 976.003 598.381 z" fill="rgb(130,87,72)" transform="translate(0,0)"></path>
<path d="M 855.695 402.128 C 876.251 430.644 864.918 457.016 839.15 476.118 C 839.018 483.793 838.829 490.302 839.473 497.94 L 840.403 499.45 C 836.047 501.105 830.335 504.289 826.078 506.537 C 759.637 541.627 692.71 575.888 626.181 610.701 C 620.774 613.531 615.282 613.09 612.038 607.405 C 613.066 596.137 652.21 577.81 662.902 571.816 C 697.225 552.392 731.693 533.226 766.304 514.319 C 775.611 509.291 785.108 504.558 794.526 499.163 C 823.768 482.412 868.315 467.787 864.283 425.97 C 863.347 416.258 858.702 410.873 854.326 402.922 L 855.695 402.128 z" fill="rgb(154,24,32)" transform="translate(0,0)"></path>
<path d="M 746.9 527.521 C 748.076 529.414 747.602 541.85 747.569 544.949 C 730.705 553.848 627.359 609.316 617.212 610.942 C 614.876 607.548 614.43 607.738 615.265 603.903 C 623.263 593.847 725.105 539.897 746.9 527.521 z" fill="rgb(193,27,40)" transform="translate(0,0)"></path>
<path d="M 834.378 478.873 C 839.757 479.501 837.307 493.866 837.195 498.888 L 751.522 544.066 C 746.836 543.456 748.901 530.583 748.827 525.827 C 756.902 521.922 768.284 515.564 776.025 510.83 C 793.096 500.39 815.065 491.447 831.434 480.803 L 834.378 478.873 z" fill="rgb(28,96,159)" transform="translate(0,0)"></path>
<path d="M 857.155 623.058 C 847.948 629.008 834.063 635.623 823.934 640.823 L 767.885 669.577 C 745.881 680.848 723.135 692.977 700.481 702.993 C 695.784 705.07 691.641 699.786 691.007 695.224 C 691.601 692.684 691.727 692.121 693.362 689.981 C 694.867 688.009 698.594 684.908 700.575 683.8 C 717.949 674.081 850.035 596.275 858.627 595.432 C 857.237 604.333 856.739 611.616 854.567 620.501 C 855.041 620.947 855.515 621.393 855.989 621.839 L 857.155 623.058 z" fill="rgb(154,24,32)" transform="translate(0,0)"></path>
<path d="M 855.667 598.325 C 856.793 606.083 853.383 616.438 850.974 623.816 C 847.216 625.922 833.247 633.731 830.066 634.943 C 809.937 642.615 710.231 701.613 695.008 700.829 C 691.594 694.236 695.11 689.178 700.786 685.862 C 715.9 677.033 731.363 668.427 746.539 659.701 C 782.623 638.728 819.003 618.267 855.667 598.325 z" fill="rgb(193,27,40)" transform="translate(0,0)"></path>
<path d="M 915.231 564.342 C 919.484 561.895 924.612 559.038 928.99 556.883 C 933.727 568.283 936.405 571.441 945.096 579.754 C 929.524 582.433 920.118 588.959 906.151 595.885 C 894.308 601.691 866.133 615.778 855.989 621.839 C 855.515 621.393 855.041 620.947 854.567 620.501 C 856.739 611.616 857.237 604.333 858.627 595.432 C 859.729 594.921 861.252 594.323 862.235 593.567 C 865.146 593.251 868.988 590.52 871.259 588.667 C 873.814 588.31 878.439 585.553 880.241 583.703 C 883.208 582.503 887.865 581.025 889.278 578.269 C 895.611 576.541 909.492 568.152 915.231 564.342 z" fill="rgb(255,255,255)" transform="translate(0,0)"></path>
<path d="M 2.27191 957.416 C 60.9764 904.943 122.404 868.055 167.178 802.147 L 168.273 804.251 C 159.611 814.815 152.127 826.119 142.987 836.456 C 107.183 876.947 61.5222 908.416 20.746 943.599 C 20.0699 943.94 20.2861 943.812 19.6963 944.399 C 14.2165 949.061 9.48107 953.105 4.35339 958.141 C 44.2825 1049.89 90.8506 1119.55 170.694 1182.6 C 181.633 1191.24 208.128 1210.49 219.977 1216.49 L 219.917 1218.31 C 208.31 1212.71 181.973 1193.55 171.451 1185.44 C 113.558 1140.22 65.7124 1083.45 30.9578 1018.73 C 20.0968 998.467 11.4237 978.442 2.27191 957.416 z" fill="rgb(100,62,51)" transform="translate(0,0)"></path>
<path d="M 397.254 370.906 L 398.779 370.34 C 433.996 419.681 416.523 454.166 405.911 506.517 C 399.254 540.081 393.446 573.808 388.493 607.665 C 396.81 604.053 413.378 594.553 419.93 592.563 C 415.184 597.181 394.355 607.062 387.791 610.292 C 387.248 615.865 387.3 617.057 385.414 622.186 C 384.366 617.732 388.79 593.03 389.759 587.142 C 394.345 559.293 398.885 531.148 404.74 503.501 C 412.224 468.166 425.306 433.728 411.724 397.729 C 408.375 388.855 402.188 379.058 397.254 370.906 z" fill="rgb(130,87,72)" transform="translate(0,0)"></path>
<path d="M 526.987 536.541 C 527.4 535.678 767.735 409.028 784.027 402.409 C 779.531 407.279 748.143 422.503 740.573 426.479 C 681.077 457.818 621.424 488.858 561.617 519.6 C 556.454 522.241 530.986 536.539 526.987 536.541 z" fill="rgb(130,87,72)" transform="translate(0,0)"></path>
<path d="M 317.104 354.441 C 332.676 328.569 366.83 342.264 385.76 356.583 L 383.073 356.987 C 365.673 341.395 317.582 330.539 319.193 363.975 C 318.788 372.316 318.818 383.142 319.135 391.511 C 319.018 426.411 304.791 458.553 293.883 491.05 C 287.115 511.211 278.692 554.587 262.45 568.834 C 266.087 559.811 275.788 547.215 278.184 538.683 C 287.572 505.262 298.64 472.355 309.917 439.643 C 318.784 413.924 317.873 381.408 317.104 354.441 z" fill="rgb(85,62,52)" transform="translate(0,0)"></path>
<path d="M 379.985 1096.98 C 381.679 1093.33 391.108 1088.8 394.663 1086.28 C 420.612 1067.88 447.169 1064.8 476.693 1055.66 C 490.991 1051.2 505.053 1046.02 518.825 1040.13 C 525.188 1037.44 556.783 1019.48 558.952 1019.68 C 552.994 1030.07 481.779 1057.75 465.416 1061.12 C 451.246 1064.03 433 1069.29 418.977 1075.04 C 410.48 1078.53 385.647 1095.33 379.985 1096.98 z" fill="rgb(186,120,95)" transform="translate(0,0)"></path>
<path d="M 167.178 802.147 C 187.239 769.984 185.804 745.732 192.918 710.006 C 198.373 682.616 216.54 639.459 233.306 615.871 C 231.787 623.883 220.899 640.49 216.788 648.995 C 211.518 659.9 206.235 670.444 202.28 682.102 C 185.606 731.245 195.579 757.53 168.273 804.251 L 167.178 802.147 z" fill="rgb(130,87,72)" transform="translate(0,0)"></path>
<path d="M 347.082 1118.65 L 352.145 1116.46 C 338.925 1128.05 324.038 1138.93 310.543 1150.46 C 283.188 1174.09 257.943 1200.06 235.094 1228.07 C 231.534 1225.9 222.595 1220.7 219.917 1218.31 L 221.987 1218 C 225.272 1220.63 231.077 1223.89 234.846 1226.18 C 267.976 1184.11 304.481 1152.71 345.965 1119.64 C 346.58 1119.23 346.729 1119.22 347.082 1118.65 z" fill="rgb(85,62,52)" transform="translate(0,0)"></path>
<path d="M 419.93 592.563 C 420.527 591.388 518.659 539.497 526.987 536.541 C 522.204 541.299 425.467 591.621 419.93 592.563 z" fill="rgb(130,87,72)" transform="translate(0,0)"></path>
<path d="M 654.989 961.301 C 654.034 965.573 647.228 967.797 643.471 969.786 C 631.62 976.058 618.496 985.082 606.434 990.47 L 605.072 989.821 C 609.508 986.513 648.839 964.083 654.989 961.301 z" fill="rgb(154,24,32)" transform="translate(0,0)"></path>
<path d="M 906.151 595.885 L 907.892 597.126 C 905.914 598.273 904.859 598.746 902.825 599.745 C 898.461 601.908 894.137 604.15 889.855 606.469 C 879.387 611.576 867.76 618.697 857.155 623.058 L 855.989 621.839 C 866.133 615.778 894.308 601.691 906.151 595.885 z" fill="rgb(130,87,72)" transform="translate(0,0)"></path>
<path d="M 880.421 705.31 C 880.88 704.961 892.907 698.613 894.023 698.15 C 905.476 693.409 916.592 683.779 928.114 680.454 C 922.167 686.246 890.563 702.386 882.187 706.406 L 880.421 705.31 z" fill="rgb(186,120,95)" transform="translate(0,0)"></path>
<path d="M 785.97 401.319 C 787.466 400.221 788.513 399.434 790.189 398.631 C 808.899 389.67 814.786 381.203 836.042 387.635 L 835.098 388.852 C 811.024 381.964 803.569 397.185 785.97 401.319 z" fill="rgb(130,87,72)" transform="translate(0,0)"></path>
<path d="M 880.421 705.31 L 882.187 706.406 C 873.449 711.35 859.54 718.791 851.596 724.222 C 850.012 725.633 848.148 726.296 846.311 727.309 L 844.03 726.214 C 855.813 718.828 868.793 712.768 880.421 705.31 z" fill="rgb(85,62,52)" transform="translate(0,0)"></path>
<path d="M 889.278 578.269 C 891.09 575.972 911.683 563.736 914.494 562.91 L 915.231 564.342 C 909.492 568.152 895.611 576.541 889.278 578.269 z" fill="rgb(186,120,95)" transform="translate(0,0)"></path>
<path d="M 580.653 1004.42 L 582.679 1005.42 C 577.717 1008.79 564.092 1017.51 558.952 1019.68 C 563.13 1014.39 574.585 1008.86 580.653 1004.42 z" fill="rgb(130,87,72)" transform="translate(0,0)"></path>
<path d="M 928.114 680.454 C 928.722 677.126 941.354 671.438 945.039 671.605 C 942.099 673.376 930.859 680.344 928.114 680.454 z" fill="rgb(186,120,95)" transform="translate(0,0)"></path>
<path d="M 836.042 387.635 C 845.724 392.36 848.177 394.17 855.695 402.128 L 854.326 402.922 C 851.358 399.961 849.597 398.089 846.316 395.365 C 845.611 394.765 845.868 394.929 845.206 394.584 C 841.509 391.903 839.365 390.694 835.098 388.852 L 836.042 387.635 z" fill="rgb(55,38,34)" transform="translate(0,0)"></path>
<path d="M 385.76 356.583 C 389.31 359.268 393.453 363.684 396.285 367.083 L 394.979 368.908 C 395.203 369.067 383.632 357.581 383.073 356.987 L 385.76 356.583 z" fill="rgb(186,120,95)" transform="translate(0,0)"></path>
<path d="M 243.2 599.9 C 245.451 594.769 248.655 588.872 252.496 584.797 C 250.962 590.569 248.096 596.283 243.2 599.9 z" fill="rgb(186,120,95)" transform="translate(0,0)"></path>
<path d="M 580.653 1004.42 C 582.739 1002.12 588.776 999.614 591.994 999.041 C 589.772 1001.9 585.821 1003.59 582.679 1005.42 L 580.653 1004.42 z" fill="rgb(186,120,95)" transform="translate(0,0)"></path>
<path d="M 839.473 497.94 C 844.037 495.127 846.139 494.175 851.016 492.429 C 848.23 495.691 844.296 497.707 840.403 499.45 L 839.473 497.94 z" fill="rgb(186,120,95)" transform="translate(0,0)"></path>
<path d="M 319.193 363.975 C 320.012 371.623 320.535 384.127 319.135 391.511 C 318.818 383.142 318.788 372.316 319.193 363.975 z" fill="rgb(186,120,95)" transform="translate(0,0)"></path>
<path d="M 862.235 593.567 C 862.599 590.386 865.322 589.941 868.569 589.247 L 871.259 588.667 C 868.988 590.52 865.146 593.251 862.235 593.567 z" fill="rgb(186,120,95)" transform="translate(0,0)"></path>
<path d="M 880.241 583.703 C 883.209 579.421 883.94 578.992 889.278 578.269 C 887.865 581.025 883.208 582.503 880.241 583.703 z" fill="rgb(186,120,95)" transform="translate(0,0)"></path>
<path d="M 373.125 1101.88 C 375.829 1097.86 375.318 1097.55 379.985 1096.98 C 377.958 1099.75 376.261 1100.28 373.125 1101.88 z" fill="rgb(186,120,95)" transform="translate(0,0)"></path>
<path d="M 394.979 368.908 L 396.285 367.083 C 397.311 368.578 397.605 368.975 398.779 370.34 L 397.254 370.906 C 396.505 370.23 395.746 369.564 394.979 368.908 z" fill="rgb(55,38,34)" transform="translate(0,0)"></path>
<path d="M 219.977 1216.49 C 220.647 1217 221.317 1217.5 221.987 1218 L 219.917 1218.31 L 219.977 1216.49 z" fill="rgb(186,120,95)" transform="translate(0,0)"></path>
<path d="M 780.925 1550.95 L 830.438 1551.21 C 840.99 1551.18 850.047 1552.97 859.35 1547.57 L 860.803 1546.76 C 883.157 1547 905.511 1547.08 927.866 1547.01 C 962.075 1546.93 1001.43 1541.09 1020.36 1577.43 C 1023.07 1582.63 1025.09 1588.33 1027.19 1593.8 C 1028.4 1600.6 1027.88 1630.65 1027.88 1638.74 L 1027.95 1735.18 C 1027.96 1738.65 1028.82 1772.82 1028.93 1772.5 C 1024.24 1780.11 1024.95 1790.24 1016.03 1799.31 C 1012.13 1803.63 1007.35 1809.21 1002.22 1811.96 C 991.666 1827.05 933.122 1823.02 915.329 1822.99 L 804.28 1822.96 L 681.984 1822.78 C 657.583 1822.66 616.805 1827.02 597.699 1811.04 C 592.457 1807.61 590.229 1804.83 586.281 1800.21 C 579.655 1791.86 575.436 1781.86 574.083 1771.29 C 573.112 1763.78 573.498 1749.85 573.472 1741.8 L 573.27 1688.91 L 573.031 1629.94 C 572.973 1613.75 570.733 1589.91 580.915 1576.93 C 581.932 1574.45 583.206 1572.98 584.755 1570.76 C 585.871 1569.25 587.044 1567.73 588.338 1566.36 C 596.254 1558.02 606.372 1552.1 617.518 1549.28 C 631.216 1545.76 651.224 1547.24 665.644 1546.99 C 692.997 1546.52 721.769 1547.91 749.002 1546.81 C 758.245 1552.83 770.084 1551.31 780.925 1550.95 z" fill="rgb(28,96,159)" transform="translate(0,0)"></path>
<path d="M 1091.7 725.876 C 1097.05 731.219 1111.91 734.171 1118.93 733.367 C 1138.86 731.084 1200.17 738.613 1213.13 725.977 L 1346.11 726.127 C 1363.62 726.121 1382.52 727.046 1400.54 726.081 C 1426.34 724.7 1457.01 741.082 1463.58 767.517 C 1468.21 786.107 1466.11 821.279 1466.08 842.068 L 1466.04 938.509 C 1465.6 1028.29 1365.49 994.687 1311.22 1002.08 C 1303.66 992.957 1277.49 993.286 1266.35 994.042 C 1242.75 995.643 1210.14 989.296 1189.58 1001.88 C 1157.65 1000.96 1125.43 1001.96 1093.49 1001.93 C 1084.54 1001.93 1075.81 1002.4 1066.9 1001.04 C 1058.68 999.785 1050.79 996.931 1043.67 992.634 C 1028.06 983.195 1020.3 970.401 1016.08 953.261 C 1013.6 921.132 1016.33 877.024 1015.35 843.51 C 1014.99 831.115 1014.64 780.397 1015.91 770.262 C 1031.18 731.205 1052.94 726.689 1091.22 725.81 L 1091.7 725.876 z" fill="rgb(28,96,159)" transform="translate(0,0)"></path>
<path d="M 1016.08 953.261 C 1020.3 970.401 1028.06 983.195 1043.67 992.634 C 1050.79 996.931 1058.68 999.785 1066.9 1001.04 C 1075.81 1002.4 1084.54 1001.93 1093.49 1001.93 C 1125.43 1001.96 1157.65 1000.96 1189.58 1001.88 C 1210.14 989.296 1242.75 995.643 1266.35 994.042 C 1277.49 993.286 1303.66 992.957 1311.22 1002.08 L 1317.67 1009.68 C 1329.83 1026.54 1323.98 1089.37 1323.98 1112.34 C 1323.98 1120.24 1315.42 1130.43 1309.89 1136.22 C 1301.87 1140.45 1296.87 1141.77 1287.58 1141.04 C 1264.83 1142.87 1237.21 1139.83 1213.97 1141.27 C 1207.62 1141.67 1198.91 1140.51 1193.6 1136.83 C 1170.37 1137.02 1147.13 1136.96 1123.89 1136.64 C 1097.44 1136.42 1063.91 1132.54 1043.4 1153.71 C 1042.14 1155.01 1042.6 1154.41 1041.76 1155.94 C 1038.89 1158.43 1038.52 1158.39 1036.9 1161.9 C 1031.68 1167.5 1027.74 1177.19 1025.85 1184.55 C 1021.24 1171.35 1017.54 1161.45 1006.76 1151.67 C 999.474 1145.1 990.595 1140.55 981.007 1138.47 C 969.118 1135.83 943.805 1136.56 930.344 1136.53 C 907.841 1136.48 882.815 1135.47 860.617 1136.45 C 852.102 1142.99 768.002 1140.54 754.489 1139.42 L 750.616 1139.12 L 748.182 1136.63 C 725.46 1121.02 728.273 1099.93 729.631 1074.44 C 731.147 1046.01 720.993 1018.77 744.118 998.302 L 743.996 996.897 L 740.288 996.547 C 744.004 995.416 759.033 993.289 762.735 994.107 C 769.742 993.828 776.356 993.362 783.337 994.107 C 793.285 993.296 852.53 993.229 859.41 996.89 C 879.969 997.221 900.973 996.8 921.479 996.945 C 965.575 997.258 997.254 1000.72 1016.08 953.261 z" fill="rgb(255,255,255)" transform="translate(0,0)"></path>
<path d="M 740.288 996.547 C 744.004 995.416 759.033 993.289 762.735 994.107 C 769.742 993.828 776.356 993.362 783.337 994.107 C 793.285 993.296 852.53 993.229 859.41 996.89 C 885.25 1019.77 876.447 1041.47 878.031 1072.79 C 878.803 1088.06 879.561 1123.17 864.681 1132.06 L 860.617 1136.45 C 852.102 1142.99 768.002 1140.54 754.489 1139.42 L 750.616 1139.12 L 748.182 1136.63 C 725.46 1121.02 728.273 1099.93 729.631 1074.44 C 731.147 1046.01 720.993 1018.77 744.118 998.302 L 743.996 996.897 L 740.288 996.547 z" fill="rgb(73,157,82)" transform="translate(0,0)"></path>
<path d="M 783.337 994.107 C 793.285 993.296 852.53 993.229 859.41 996.89 C 885.25 1019.77 876.447 1041.47 878.031 1072.79 C 878.803 1088.06 879.561 1123.17 864.681 1132.06 C 860.463 1132.29 853.75 1138.22 848.131 1137.85 C 839.336 1137.27 799.8 1140.73 794.168 1135.89 L 794.431 1133.11 L 795.602 1132.54 C 803.964 1127.76 811.391 1121.02 816.307 1112.68 C 819.492 1107.23 821.688 1101.27 822.795 1095.06 C 825.006 1083.17 825.224 1041.18 822.089 1028.5 C 818.865 1015.47 808.53 1005.66 796.76 999.285 C 793.197 996.989 785.174 995.909 783.337 994.107 z" fill="rgb(54,120,71)" transform="translate(0,0)"></path>
<path d="M 796.76 999.285 C 801.315 998.807 805.249 1001.6 808.649 1004.44 C 827.727 1020.46 826.366 1041.22 826.295 1063.41 C 826.225 1085.57 827.362 1104.6 811.669 1122.43 C 809.324 1125.1 799.284 1134.73 795.602 1132.54 C 803.964 1127.76 811.391 1121.02 816.307 1112.68 C 819.492 1107.23 821.688 1101.27 822.795 1095.06 C 825.006 1083.17 825.224 1041.18 822.089 1028.5 C 818.865 1015.47 808.53 1005.66 796.76 999.285 z" fill="rgb(27,55,33)" transform="translate(0,0)"></path>
<path d="M 740.288 996.547 C 744.004 995.416 759.033 993.289 762.735 994.107 C 760.693 995.309 760.063 995.209 757.786 995.576 C 734.829 999.278 731.011 1014.82 731.411 1035.1 C 731.917 1060.75 730.454 1086.48 732.611 1112 C 732.957 1116.13 734.997 1120.77 737.378 1124.12 C 737.771 1124.79 737.78 1124.73 738.379 1125.28 C 752.928 1142.42 775.222 1140.91 794.431 1133.11 L 794.168 1135.89 C 799.8 1140.73 839.336 1137.27 848.131 1137.85 C 853.75 1138.22 860.463 1132.29 864.681 1132.06 L 860.617 1136.45 C 852.102 1142.99 768.002 1140.54 754.489 1139.42 L 750.616 1139.12 L 748.182 1136.63 C 725.46 1121.02 728.273 1099.93 729.631 1074.44 C 731.147 1046.01 720.993 1018.77 744.118 998.302 L 743.996 996.897 L 740.288 996.547 z" fill="rgb(27,55,33)" transform="translate(0,0)"></path>
<path d="M 1189.58 1001.88 C 1210.14 989.296 1242.75 995.643 1266.35 994.042 C 1277.49 993.286 1303.66 992.957 1311.22 1002.08 L 1317.67 1009.68 C 1329.83 1026.54 1323.98 1089.37 1323.98 1112.34 C 1323.98 1120.24 1315.42 1130.43 1309.89 1136.22 C 1301.87 1140.45 1296.87 1141.77 1287.58 1141.04 C 1264.83 1142.87 1237.21 1139.83 1213.97 1141.27 C 1207.62 1141.67 1198.91 1140.51 1193.6 1136.83 C 1166.35 1113.68 1180.2 1075.89 1176.86 1043.63 C 1174.98 1025.4 1177.65 1015.86 1189.58 1001.88 z" fill="rgb(9,22,39)" transform="translate(0,0)"></path>
<path d="M 1238.36 995.831 C 1258.17 996.824 1280.8 995.023 1300.38 997.803 C 1305.58 998.541 1312.79 1008.1 1317.67 1009.68 C 1329.83 1026.54 1323.98 1089.37 1323.98 1112.34 C 1323.98 1120.24 1315.42 1130.43 1309.89 1136.22 C 1301.87 1140.45 1296.87 1141.77 1287.58 1141.04 C 1277.73 1138.16 1247.99 1139.83 1236.04 1139.63 C 1249.48 1130.98 1258.53 1128.5 1266.64 1112.98 C 1274.99 1097.58 1274.39 1081.18 1274.33 1064.24 C 1274.21 1028.77 1271.44 1013.01 1238.36 995.831 z" fill="rgb(28,96,159)" transform="translate(0,0)"></path>
<path d="M 1212.01 996.403 C 1219.9 995.591 1228.67 995.687 1236.33 997.836 C 1248.62 1001.15 1258.94 1009.48 1264.8 1020.77 C 1274.08 1038.66 1273.93 1084.45 1268.15 1104.11 C 1263.7 1119.22 1251.95 1129.14 1238.18 1135.95 C 1234.42 1137.77 1231.75 1138.61 1227.67 1139.22 C 1172.51 1147.36 1178.31 1103.53 1178.81 1065.29 C 1178.98 1051.63 1176.87 1035.11 1179.56 1022.17 C 1180.69 1016.79 1183.14 1011.79 1186.71 1007.62 C 1193.78 999.207 1201.91 997.54 1212.01 996.403 z" fill="rgb(28,96,159)" transform="translate(0,0)"></path>
<path d="M 1102.52 324.088 C 1092.6 316.617 1082.34 308.779 1081.29 294.63 C 1080.35 281.992 1081.39 270.357 1081.57 256.989 C 1082 226.091 1073.29 186.48 1117.16 183.505 C 1130.08 182.628 1143.63 184.398 1156.63 183.89 C 1171.41 184.53 1188.68 182.526 1203.21 184.379 C 1220.43 186.577 1231.87 206.614 1231.02 222.957 C 1229.74 247.77 1232.7 274.662 1229.77 299.159 C 1228.49 309.842 1219.52 317.987 1211.14 323.82 L 1209.68 325.471 C 1180.23 327.605 1138.59 325.305 1107.72 325.762 C 1105.47 325.303 1104.72 324.906 1102.52 324.088 z" fill="rgb(56,38,7)" transform="translate(0,0)"></path>
<path d="M 1111.95 184.988 C 1135.82 184.492 1156.23 184.957 1169.99 208.724 C 1172.89 213.73 1174.88 219.204 1175.89 224.898 C 1177.99 236.229 1178.12 275.207 1174.59 287.481 C 1170.19 302.733 1160.02 312.928 1146.5 320.402 C 1118.23 332.133 1077.45 321.44 1082.79 284.82 C 1088.28 247.14 1065.45 198.601 1111.95 184.988 z" fill="rgb(254,208,14)" transform="translate(0,0)"></path>
<path d="M 1154.13 185.401 C 1169.58 183.863 1206.46 182.155 1217.43 192.903 C 1236.73 212.581 1227.17 248.752 1229.35 274.507 C 1232.32 309.6 1221.16 325.578 1185.75 325.15 C 1171.48 325.113 1156.51 325.323 1142.36 323.899 C 1154.12 318.838 1162.73 312.929 1169.85 301.883 C 1173.57 296.058 1176.22 289.614 1177.66 282.856 C 1179.93 272.184 1180.08 234.904 1177.73 223.423 C 1173.51 202.766 1162.7 196.656 1147.7 186.939 L 1148.48 185.97 L 1154.13 185.401 z" fill="rgb(203,142,29)" transform="translate(0,0)"></path>
<path d="M 1947.18 1171.96 C 1947.93 1173.12 1948.5 1173.69 1949.43 1174.74 L 1947 1174.94 L 1945.79 1173.98 L 1947.18 1171.96 z" fill="rgb(55,38,34)" transform="translate(0,0)"></path>
<metadata><recraft-signature>{"signed_by": "recraft", "signature_b64": "9L/b6RP0TbtKHWf/SEAvSHKpLaseLSD1I8WleTJpBxgiAgr75sE+Z3OGwNSga/f21ESuJzvgd2ruEQJfl1RQCA==", "signing_algo": "Ed25519", "generation_timestamp": 1779006439, "identifier": "8729a744-4ca2-480f-906e-839f9dbbdbaa"}</recraft-signature></metadata></svg>