<svg xmlns="http://www.w3.org/2000/svg" height="1280" preserveAspectRatio="none" style="display: block;" version="1.1" viewBox="0 0 1331 2048" width="832">
<path d="M 0 0 L 1051.44 0 L 1091.67 0 L 1331 0 L 1331 246.271 L 1331 272.448 L 1331 2048 L 997.911 2048 L 969.181 2048 L 592.755 2048 L 538.291 2048 L 0 2048 L 0 860.959 L 0 818.04 L 0 0 z" fill="rgb(254,254,254)" transform="translate(0,0)"></path>
<path d="M 1166.56 509.201 C 1187.19 497.353 1196.13 495.129 1216.58 479.893 C 1270.48 440.23 1308.65 382.829 1324.38 317.792 C 1327.85 302.864 1328.77 287.612 1331 272.448 L 1331 2048 L 997.911 2048 L 969.181 2048 L 592.755 2048 L 538.291 2048 C 533.013 2046.68 526.056 2046.58 520.478 2045.49 C 480.783 2037.67 433.931 2025.44 445.999 1973.81 C 447.136 1970.86 448.506 1968.01 450.094 1965.29 C 482.649 1908.35 577.138 1960.31 617.152 1890.39 L 614.54 1880.18 L 611.237 1862.43 C 616.132 1861.47 620.485 1860.77 625.338 1859.89 C 625.635 1855.55 625.125 1850.19 624.833 1845.77 C 607.268 1848.7 588.821 1852.51 571.257 1855.86 C 545.437 1762.18 520.316 1668.31 495.897 1574.25 C 473.589 1486.25 476.907 1415.89 538.216 1343.89 C 548.871 1332.03 568.302 1313.86 580.137 1302.41 L 636.812 1246.95 C 673.788 1210.97 714.094 1169.17 751.811 1135.1 L 758.727 1127.17 L 762.825 1127.67 C 815.256 1139.1 873.044 1149.24 926.108 1159.45 L 1174.11 1207.6 C 1179.28 1209.32 1188.37 1210.82 1193.97 1211.92 C 1197.8 1187.84 1200.53 1158.98 1203.62 1134.32 C 1211.44 1071.86 1218.88 1009.35 1225.93 946.798 L 1237.24 852.369 C 1241.38 818.191 1247.8 772.802 1243.34 739.343 C 1235.55 680.804 1206.32 638.885 1160.64 603.536 C 1161.13 596.786 1164.35 582.596 1165.51 574.914 C 1169.23 550.24 1169.41 533.573 1166.56 509.201 z" fill="rgb(250,123,32)" transform="translate(0,0)"></path>
<path d="M 1166.56 509.201 C 1187.19 497.353 1196.13 495.129 1216.58 479.893 C 1270.48 440.23 1308.65 382.829 1324.38 317.792 C 1327.85 302.864 1328.77 287.612 1331 272.448 L 1331 2048 L 997.911 2048 L 969.181 2048 C 942.299 2041.62 929.006 2033.92 924.349 2004.8 C 923.651 2000 924.396 1992.56 925.904 1987.91 C 939.774 1945.14 992.686 1942.75 1025.77 1923.2 C 1045.99 1911.25 1058.94 1897.11 1064.92 1875.2 L 1059.13 1865.33 C 1055.85 1860.2 1053.95 1857.19 1051.17 1851.82 C 1056.6 1849.12 1060.06 1847.88 1065.63 1844.83 C 1069.93 1843.3 1074.25 1841.84 1078.6 1840.48 C 1091.76 1836.48 1102.83 1836.42 1115.07 1843.11 L 1116.02 1843.22 C 1120.17 1837.8 1151.75 1820.15 1160.1 1814.26 C 1176.87 1802.3 1191.97 1788.15 1205 1772.2 C 1211.42 1781.16 1218.46 1793.59 1223.91 1803.36 L 1225.1 1802.49 C 1221.58 1791.33 1203.59 1765.51 1195.17 1757.14 C 1200.46 1753.02 1214.56 1744.63 1221.09 1740.32 C 1203.28 1716.48 1186.59 1691.86 1169.29 1667.64 L 1050.94 1502.08 C 1054.16 1491.79 1060.07 1477.66 1064.01 1467.36 L 1088.86 1402.94 C 1097.75 1380.09 1106.5 1356.19 1115.94 1333.58 C 1117.36 1330.2 1132.02 1318.26 1136.16 1313.36 C 1161.99 1282.76 1171.37 1246.7 1174.11 1207.6 C 1179.28 1209.32 1188.37 1210.82 1193.97 1211.92 C 1197.8 1187.84 1200.53 1158.98 1203.62 1134.32 C 1211.44 1071.86 1218.88 1009.35 1225.93 946.798 L 1237.24 852.369 C 1241.38 818.191 1247.8 772.802 1243.34 739.343 C 1235.55 680.804 1206.32 638.885 1160.64 603.536 C 1161.13 596.786 1164.35 582.596 1165.51 574.914 C 1169.23 550.24 1169.41 533.573 1166.56 509.201 z" fill="rgb(254,254,254)" transform="translate(0,0)"></path>
<path d="M 1116.02 1843.22 C 1120.17 1837.8 1151.75 1820.15 1160.1 1814.26 C 1176.87 1802.3 1191.97 1788.15 1205 1772.2 C 1211.42 1781.16 1218.46 1793.59 1223.91 1803.36 L 1225.1 1802.49 C 1250.4 1831.52 1261.44 1854.14 1276.76 1888.7 C 1290.79 1914.86 1289.37 1941.44 1259.91 1956.71 C 1241.72 1966.14 1221.04 1973.95 1202.11 1982.05 C 1170.76 1995.75 1139.03 2008.57 1106.97 2020.51 C 1075.72 2032.24 1045.29 2043.74 1011.74 2046.26 C 1007.22 2046.6 1002.39 2047.26 997.911 2048 L 969.181 2048 C 942.299 2041.62 929.006 2033.92 924.349 2004.8 C 923.651 2000 924.396 1992.56 925.904 1987.91 C 939.774 1945.14 992.686 1942.75 1025.77 1923.2 C 1045.99 1911.25 1058.94 1897.11 1064.92 1875.2 L 1059.13 1865.33 C 1055.85 1860.2 1053.95 1857.19 1051.17 1851.82 C 1056.6 1849.12 1060.06 1847.88 1065.63 1844.83 C 1069.93 1843.3 1074.25 1841.84 1078.6 1840.48 C 1091.76 1836.48 1102.83 1836.42 1115.07 1843.11 L 1116.02 1843.22 z" fill="rgb(4,56,94)" transform="translate(0,0)"></path>
<path d="M 1276.76 1888.7 C 1290.79 1914.86 1289.37 1941.44 1259.91 1956.71 C 1241.72 1966.14 1221.04 1973.95 1202.11 1982.05 C 1170.76 1995.75 1139.03 2008.57 1106.97 2020.51 C 1075.72 2032.24 1045.29 2043.74 1011.74 2046.26 C 1007.22 2046.6 1002.39 2047.26 997.911 2048 L 969.181 2048 C 942.299 2041.62 929.006 2033.92 924.349 2004.8 C 924.916 2003.65 925.246 2003.4 926.051 2002.39 C 930.541 2002.53 936.378 2007.85 940.883 2009.76 C 993.526 2031.99 1100.92 1991.23 1153.05 1969.88 C 1175.98 1960.49 1248.69 1931.69 1263.17 1915.83 C 1269.89 1908.47 1272.97 1897.75 1276.76 1888.7 z" fill="rgb(3,39,69)" transform="translate(0,0)"></path>
<path d="M 1116.02 1843.22 C 1120.17 1837.8 1151.75 1820.15 1160.1 1814.26 C 1176.87 1802.3 1191.97 1788.15 1205 1772.2 C 1211.42 1781.16 1218.46 1793.59 1223.91 1803.36 C 1243.05 1855.66 1176.78 1885.93 1136.72 1896.1 C 1138.77 1872.2 1136.77 1857.87 1116.02 1843.22 z" fill="rgb(254,254,254)" transform="translate(0,0)"></path>
<path d="M 1065.63 1844.83 C 1069.93 1843.3 1074.25 1841.84 1078.6 1840.48 C 1091.76 1836.48 1102.83 1836.42 1115.07 1843.11 C 1105.59 1848.41 1092.16 1850.9 1082.51 1856.51 C 1074.68 1861.06 1067.59 1862.75 1059.13 1865.33 C 1055.85 1860.2 1053.95 1857.19 1051.17 1851.82 C 1056.6 1849.12 1060.06 1847.88 1065.63 1844.83 z" fill="rgb(3,39,69)" transform="translate(0,0)"></path>
<path d="M 751.811 1135.1 C 754.389 1137.99 754.018 1142.14 754.276 1146.13 C 756.77 1184.74 770.243 1220.39 789.37 1253.72 C 795.025 1263.57 804.331 1276.66 807.506 1286.99 C 818.201 1321.8 795.341 1365.65 782.907 1398.21 L 745.416 1495.84 C 740.141 1501.35 728.038 1512.42 724.353 1517.22 L 807.832 1811 L 788.875 1814.3 C 787 1814.5 785.068 1814.82 783.257 1815.34 C 786.172 1817.55 787.765 1822.9 787.761 1826.42 C 762.672 1848.37 733.385 1856.4 701.729 1865.37 C 695.933 1867.01 681.535 1869.46 677.294 1872.41 L 676.514 1872.22 C 660.546 1855.87 645.062 1859.54 625.338 1859.89 C 625.635 1855.55 625.125 1850.19 624.833 1845.77 C 607.268 1848.7 588.821 1852.51 571.257 1855.86 C 545.437 1762.18 520.316 1668.31 495.897 1574.25 C 473.589 1486.25 476.907 1415.89 538.216 1343.89 C 548.871 1332.03 568.302 1313.86 580.137 1302.41 L 636.812 1246.95 C 673.788 1210.97 714.094 1169.17 751.811 1135.1 z" fill="rgb(250,123,32)" transform="translate(0,0)"></path>
<path d="M 495.897 1574.25 C 473.589 1486.25 476.907 1415.89 538.216 1343.89 C 563.229 1380.87 572.246 1426.38 563.221 1470.11 C 555.758 1507.77 536.821 1541.48 507.318 1566.62 C 504.607 1568.93 499.178 1572.89 495.897 1574.25 z" fill="rgb(226,68,38)" transform="translate(0,0)"></path>
<path d="M 783.257 1815.34 C 786.172 1817.55 787.765 1822.9 787.761 1826.42 C 762.672 1848.37 733.385 1856.4 701.729 1865.37 C 695.933 1867.01 681.535 1869.46 677.294 1872.41 L 676.514 1872.22 C 660.546 1855.87 645.062 1859.54 625.338 1859.89 C 625.635 1855.55 625.125 1850.19 624.833 1845.77 C 676.845 1835.36 731.762 1826.68 783.257 1815.34 z" fill="rgb(215,215,215)" transform="translate(0,0)"></path>
<path d="M 745.416 1495.84 C 762.928 1478.32 780.527 1460.88 798.215 1443.54 C 794.307 1522.71 812.55 1572.1 858.073 1636.13 L 961.542 1782.57 C 979.135 1807.53 1000.92 1840.11 1019.22 1863.77 C 1029.21 1857.58 1056.47 1839.92 1065.87 1835.51 L 1065.63 1844.83 C 1060.06 1847.88 1056.6 1849.12 1051.17 1851.82 C 1053.95 1857.19 1055.85 1860.2 1059.13 1865.33 L 1064.92 1875.2 C 1058.94 1897.11 1045.99 1911.25 1025.77 1923.2 C 992.686 1942.75 939.774 1945.14 925.904 1987.91 C 924.396 1992.56 923.651 2000 924.349 2004.8 C 929.006 2033.92 942.299 2041.62 969.181 2048 L 592.755 2048 L 538.291 2048 C 533.013 2046.68 526.056 2046.58 520.478 2045.49 C 480.783 2037.67 433.931 2025.44 445.999 1973.81 C 447.136 1970.86 448.506 1968.01 450.094 1965.29 C 482.649 1908.35 577.138 1960.31 617.152 1890.39 L 614.54 1880.18 L 611.237 1862.43 C 616.132 1861.47 620.485 1860.77 625.338 1859.89 C 645.062 1859.54 660.546 1855.87 676.514 1872.22 L 677.294 1872.41 C 681.535 1869.46 695.933 1867.01 701.729 1865.37 C 733.385 1856.4 762.672 1848.37 787.761 1826.42 C 787.765 1822.9 786.172 1817.55 783.257 1815.34 C 785.068 1814.82 787 1814.5 788.875 1814.3 L 807.832 1811 L 724.353 1517.22 C 728.038 1512.42 740.141 1501.35 745.416 1495.84 z" fill="rgb(254,254,254)" transform="translate(0,0)"></path>
<path d="M 677.294 1872.41 C 681.535 1869.46 695.933 1867.01 701.729 1865.37 C 733.385 1856.4 762.672 1848.37 787.761 1826.42 C 788.914 1832.6 793.207 1856.02 794.699 1861.02 L 796.442 1860.93 C 797.271 1862.65 798.116 1864.11 799.038 1865.78 C 811.202 1891.52 819.378 1936.05 823.807 1964.88 C 829.85 2016.96 800.192 2021.06 758.347 2028.21 C 724.594 2033.91 690.681 2038.62 656.654 2042.34 C 643.353 2043.74 630.031 2044.93 616.693 2045.9 C 611.26 2046.29 597.464 2046.95 592.755 2048 L 538.291 2048 C 533.013 2046.68 526.056 2046.58 520.478 2045.49 C 480.783 2037.67 433.931 2025.44 445.999 1973.81 C 447.136 1970.86 448.506 1968.01 450.094 1965.29 C 482.649 1908.35 577.138 1960.31 617.152 1890.39 L 614.54 1880.18 L 611.237 1862.43 C 616.132 1861.47 620.485 1860.77 625.338 1859.89 C 645.062 1859.54 660.546 1855.87 676.514 1872.22 L 677.294 1872.41 z" fill="rgb(4,56,94)" transform="translate(0,0)"></path>
<path d="M 445.999 1973.81 C 464.001 1995.74 482.085 2004.34 510.272 2009.27 C 585.322 2022.39 669.544 2009.92 744.635 1998.96 C 762.011 1995.84 779.345 1993.65 796.023 1987.67 C 808.548 1983.17 814.174 1970.86 823.807 1964.88 C 829.85 2016.96 800.192 2021.06 758.347 2028.21 C 724.594 2033.91 690.681 2038.62 656.654 2042.34 C 643.353 2043.74 630.031 2044.93 616.693 2045.9 C 611.26 2046.29 597.464 2046.95 592.755 2048 L 538.291 2048 C 533.013 2046.68 526.056 2046.58 520.478 2045.49 C 480.783 2037.67 433.931 2025.44 445.999 1973.81 z" fill="rgb(3,39,69)" transform="translate(0,0)"></path>
<path d="M 677.294 1872.41 C 681.535 1869.46 695.933 1867.01 701.729 1865.37 C 733.385 1856.4 762.672 1848.37 787.761 1826.42 C 788.914 1832.6 793.207 1856.02 794.699 1861.02 L 796.442 1860.93 C 797.271 1862.65 798.116 1864.11 799.038 1865.78 C 797.914 1867.08 796.778 1868.36 795.632 1869.64 C 793.373 1885.88 788.948 1898.83 775.094 1909.1 C 752.081 1926.16 711.696 1930.68 683.881 1929.99 C 690.867 1906.27 693.171 1893.42 677.294 1872.41 z" fill="rgb(254,254,254)" transform="translate(0,0)"></path>
<path d="M 796.442 1860.93 C 797.271 1862.65 798.116 1864.11 799.038 1865.78 C 797.914 1867.08 796.778 1868.36 795.632 1869.64 C 795.419 1866.26 795.268 1864.36 794.699 1861.02 L 796.442 1860.93 z" fill="rgb(3,39,69)" transform="translate(0,0)"></path>
<path d="M 625.338 1859.89 C 645.062 1859.54 660.546 1855.87 676.514 1872.22 C 661.353 1876.37 630.346 1879.41 614.54 1880.18 L 611.237 1862.43 C 616.132 1861.47 620.485 1860.77 625.338 1859.89 z" fill="rgb(3,39,69)" transform="translate(0,0)"></path>
<path d="M 783.257 1815.34 C 785.068 1814.82 787 1814.5 788.875 1814.3 C 788.525 1814.6 787 1815.73 787.172 1816.5 C 790.429 1831.12 793.749 1846.18 796.442 1860.93 L 794.699 1861.02 C 793.207 1856.02 788.914 1832.6 787.761 1826.42 C 787.765 1822.9 786.172 1817.55 783.257 1815.34 z" fill="rgb(175,174,176)" transform="translate(0,0)"></path>
<path d="M 758.727 1127.17 L 762.825 1127.67 C 766.2 1155.98 778.116 1183.61 793.811 1207 C 796.02 1210.3 799.167 1214.49 800.975 1217.83 C 802.63 1218.89 810.531 1228.63 812.091 1230.74 C 814.636 1232.5 816.526 1234.38 818.763 1236.46 C 832.077 1248.87 846.91 1260.11 863.672 1267.36 C 842.449 1313.09 826.637 1350.84 808.977 1397.63 C 808.13 1402.08 806.499 1407.63 805.082 1411.97 C 875.731 1450.36 912.022 1537.92 873.012 1612.7 C 868.588 1621.18 862.613 1628.23 858.073 1636.13 C 812.55 1572.1 794.307 1522.71 798.215 1443.54 C 780.527 1460.88 762.928 1478.32 745.416 1495.84 L 782.907 1398.21 C 795.341 1365.65 818.201 1321.8 807.506 1286.99 C 804.331 1276.66 795.025 1263.57 789.37 1253.72 C 770.243 1220.39 756.77 1184.74 754.276 1146.13 C 754.018 1142.14 754.389 1137.99 751.811 1135.1 L 758.727 1127.17 z" fill="rgb(226,68,38)" transform="translate(0,0)"></path>
<path d="M 805.082 1411.97 C 805.058 1415.2 800.138 1443.82 798.045 1443.98 C 797.154 1442.7 804.684 1406.47 806.398 1402.59 C 807.173 1400.83 806.687 1397.32 808.977 1397.63 C 808.13 1402.08 806.499 1407.63 805.082 1411.97 z" fill="rgb(181,67,49)" transform="translate(0,0)"></path>
<path d="M 800.975 1217.83 C 802.63 1218.89 810.531 1228.63 812.091 1230.74 C 809.107 1228.73 800.744 1221.55 800.975 1217.83 z" fill="rgb(181,67,49)" transform="translate(0,0)"></path>
<path d="M 1195.17 1757.14 C 1203.59 1765.51 1221.58 1791.33 1225.1 1802.49 L 1223.91 1803.36 C 1218.46 1793.59 1211.42 1781.16 1205 1772.2 C 1191.97 1788.15 1176.87 1802.3 1160.1 1814.26 C 1151.75 1820.15 1120.17 1837.8 1116.02 1843.22 L 1115.07 1843.11 C 1102.83 1836.42 1091.76 1836.48 1078.6 1840.48 C 1074.25 1841.84 1069.93 1843.3 1065.63 1844.83 L 1065.87 1835.51 C 1077.15 1827.42 1095.61 1816.84 1107.82 1809.39 C 1136.84 1791.81 1165.95 1774.39 1195.17 1757.14 z" fill="rgb(215,215,215)" transform="translate(0,0)"></path>
<path d="M 364.399 800.886 C 388.158 785.273 408.166 778.598 437.118 784.635 C 454.413 788.242 468.541 795.159 482.747 805.6 C 485.71 807.777 495.899 815.588 498.597 816.939 C 503.374 816.828 532.222 809.839 540.945 808.634 C 544.025 830.544 554.121 859.972 558.84 882.171 C 560.265 888.874 563.994 900.537 564.679 906.812 C 566.632 919.071 571.191 935.015 574.629 946.931 C 596.605 939.2 643.953 928.789 667.561 922.934 L 739.08 905.218 C 747.879 902.953 789.798 890.946 794.693 892.082 C 789.786 906.279 784.712 922.077 779.492 936.021 C 759.2 996.802 735.884 1059.08 716.273 1119.67 C 729.048 1122.43 745.739 1125.51 758.727 1127.17 L 751.811 1135.1 C 714.094 1169.17 673.788 1210.97 636.812 1246.95 L 580.137 1302.41 C 568.302 1313.86 548.871 1332.03 538.216 1343.89 C 476.907 1415.89 473.589 1486.25 495.897 1574.25 C 520.316 1668.31 545.437 1762.18 571.257 1855.86 C 588.821 1852.51 607.268 1848.7 624.833 1845.77 C 625.125 1850.19 625.635 1855.55 625.338 1859.89 C 620.485 1860.77 616.132 1861.47 611.237 1862.43 L 614.54 1880.18 L 617.152 1890.39 C 577.138 1960.31 482.649 1908.35 450.094 1965.29 C 448.506 1968.01 447.136 1970.86 445.999 1973.81 C 433.931 2025.44 480.783 2037.67 520.478 2045.49 C 526.056 2046.58 533.013 2046.68 538.291 2048 L 0 2048 L 0 860.959 L 153.696 860.911 C 177.484 860.908 207.27 861.771 230.463 860.754 C 238.355 859.516 340.209 859.993 342.163 860.994 C 357.488 851.147 378.416 842.721 391.713 831.227 C 376.345 828.766 370.724 828.197 357.982 818.888 C 354.524 808.674 359.09 808.421 364.399 800.886 z" fill="rgb(254,254,254)" transform="translate(0,0)"></path>
<path d="M 364.399 800.886 C 388.158 785.273 408.166 778.598 437.118 784.635 C 454.413 788.242 468.541 795.159 482.747 805.6 C 485.71 807.777 495.899 815.588 498.597 816.939 C 503.374 816.828 532.222 809.839 540.945 808.634 C 544.025 830.544 554.121 859.972 558.84 882.171 C 560.265 888.874 563.994 900.537 564.679 906.812 L 524.464 917.055 C 512.184 931.629 500.623 945.554 485.756 957.769 C 459.56 979.292 413.056 1000.48 381.454 980.147 C 370.061 972.815 382.968 957.371 381.86 954.457 C 375.796 953.084 373.968 954.056 368.001 954.183 C 362.472 954.302 359.779 952.835 354.889 951.627 C 344.841 946.214 346.361 932.317 352.29 924.207 L 353.049 924.115 C 352.193 922.662 350.967 921.696 352.871 920.703 L 353.92 920.112 C 328.713 920.155 321.989 915.839 321.183 889.627 C 322.489 885.952 323.941 882.314 325.216 878.643 L 325.325 877.92 C 327.886 875.472 329.605 872.984 331.883 870.223 C 333.545 869.266 335.325 867.112 336.727 865.641 C 338.405 864.183 338.864 863.654 340.291 861.94 L 342.163 860.994 C 357.488 851.147 378.416 842.721 391.713 831.227 C 376.345 828.766 370.724 828.197 357.982 818.888 C 354.524 808.674 359.09 808.421 364.399 800.886 z" fill="rgb(245,152,121)" transform="translate(0,0)"></path>
<path d="M 353.92 920.112 C 354.758 920.19 356.122 920.024 356.679 920.722 C 356.476 921.63 353.882 923.414 353.049 924.115 C 352.193 922.662 350.967 921.696 352.871 920.703 L 353.92 920.112 z" fill="rgb(136,73,66)" transform="translate(0,0)"></path>
<path d="M 230.463 860.754 C 238.355 859.516 340.209 859.993 342.163 860.994 L 340.291 861.94 C 338.864 863.654 338.405 864.183 336.727 865.641 C 335.325 867.112 333.545 869.266 331.883 870.223 C 329.605 872.984 327.886 875.472 325.325 877.92 L 325.216 878.643 C 323.941 882.314 322.489 885.952 321.183 889.627 C 321.989 915.839 328.713 920.155 353.92 920.112 L 352.871 920.703 C 350.967 921.696 352.193 922.662 353.049 924.115 L 352.29 924.207 C 350.837 923.275 287.8 949.359 309.414 895.672 C 279.241 900.121 270.108 891.041 273.528 860.724 C 259.174 860.951 244.817 860.96 230.463 860.754 z" fill="rgb(218,120,96)" transform="translate(0,0)"></path>
<path d="M 321.183 889.627 C 318.244 889.284 322.328 880.482 324.115 879.373 L 325.216 878.643 C 323.941 882.314 322.489 885.952 321.183 889.627 z" fill="rgb(181,67,49)" transform="translate(0,0)"></path>
<path d="M 325.325 877.92 C 326.921 873.632 327.433 871.33 331.883 870.223 C 329.605 872.984 327.886 875.472 325.325 877.92 z" fill="rgb(181,67,49)" transform="translate(0,0)"></path>
<path d="M 336.727 865.641 C 335.158 863.312 338.395 862.715 340.291 861.94 C 338.864 863.654 338.405 864.183 336.727 865.641 z" fill="rgb(136,73,66)" transform="translate(0,0)"></path>
<path d="M 311.103 894.497 C 311.598 894.376 312.093 894.255 312.588 894.135 C 312.426 894.364 311.758 894.704 311.287 894.985 C 311.002 895.249 310.717 895.512 310.432 895.775 C 310.656 895.349 310.879 894.923 311.103 894.497 z" fill="rgb(181,67,49)" transform="translate(0,0)"></path>
<path d="M 354.889 951.627 C 359.779 952.835 362.472 954.302 368.001 954.183 C 373.968 954.056 375.796 953.084 381.86 954.457 C 372.182 956.144 363.27 958.569 354.889 951.627 z" fill="rgb(218,120,96)" transform="translate(0,0)"></path>
<path d="M 1011.92 573.44 C 1060.29 567.187 1089.89 568.467 1135.4 588.924 C 1142.55 592.141 1155.92 601.708 1160.64 603.536 C 1206.32 638.885 1235.55 680.804 1243.34 739.343 C 1247.8 772.802 1241.38 818.191 1237.24 852.369 L 1225.93 946.798 C 1218.88 1009.35 1211.44 1071.86 1203.62 1134.32 C 1200.53 1158.98 1197.8 1187.84 1193.97 1211.92 C 1188.37 1210.82 1179.28 1209.32 1174.11 1207.6 L 926.108 1159.45 C 873.044 1149.24 815.256 1139.1 762.825 1127.67 L 758.727 1127.17 C 745.739 1125.51 729.048 1122.43 716.273 1119.67 C 735.884 1059.08 759.2 996.802 779.492 936.021 C 784.712 922.077 789.786 906.279 794.693 892.082 C 789.798 890.946 747.879 902.953 739.08 905.218 L 667.561 922.934 C 643.953 928.789 596.605 939.2 574.629 946.931 C 571.191 935.015 566.632 919.071 564.679 906.812 C 563.994 900.537 560.265 888.874 558.84 882.171 C 554.121 859.972 544.025 830.544 540.945 808.634 C 540.877 805.804 536.409 789.522 535.468 785.933 C 603.194 769.134 670.793 751.832 738.262 734.029 C 780.809 723.113 828.555 712.041 870.298 699.948 C 867.799 700.068 865.589 700.151 863.088 700.142 L 861.53 698.429 C 861.222 695.254 867.644 684.696 869.586 680.271 C 870.416 679.073 870.822 678.447 871.513 677.126 C 873.058 675.607 875.631 671.027 876.493 668.949 C 878.21 666.384 880.039 663.839 881.802 661.298 C 883.574 659.331 886.732 654.55 888.398 652.157 C 889.027 651.124 889.222 650.738 889.751 649.621 L 891.16 648.032 C 892.7 646.718 892.864 646.841 893.141 644.869 C 895.909 642.648 896.503 642.079 898.913 639.401 C 902.22 637.097 906.874 630.163 909.09 626.805 C 921.695 608.071 960.521 588.949 981.47 581.412 C 991.554 578.682 1001.93 576.35 1011.92 573.44 z" fill="rgb(63,153,211)" transform="translate(0,0)"></path>
<path d="M 870.298 699.948 C 874.801 699.682 897.29 692.792 903.907 691.183 C 944.223 681.112 984.462 670.734 1024.62 660.05 C 1047.6 654.136 1076.32 645.129 1099.64 644.169 C 1111.5 643.681 1124.29 649.839 1134.89 654.775 C 1135.48 655.912 1143.83 661.962 1146.01 663.916 C 1150.89 668.288 1153.15 671.546 1157.33 676.2 C 1170.61 696.772 1175.55 720.261 1170.39 744.44 C 1165.35 768.077 1151.26 787.059 1131.1 800.035 C 1110.76 813.135 1059.15 822.956 1033.96 829.336 L 907.693 861.347 C 880.095 867.938 852.587 874.901 825.175 882.232 C 819.406 883.733 797.365 888.164 794.582 891.161 L 794.693 892.082 C 789.798 890.946 747.879 902.953 739.08 905.218 L 667.561 922.934 C 643.953 928.789 596.605 939.2 574.629 946.931 C 571.191 935.015 566.632 919.071 564.679 906.812 C 563.994 900.537 560.265 888.874 558.84 882.171 C 554.121 859.972 544.025 830.544 540.945 808.634 C 540.877 805.804 536.409 789.522 535.468 785.933 C 603.194 769.134 670.793 751.832 738.262 734.029 C 780.809 723.113 828.555 712.041 870.298 699.948 z" fill="rgb(135,181,217)" transform="translate(0,0)"></path>
<path d="M 1157.33 676.2 L 1159.45 676.078 C 1176.95 696.039 1189.81 705.253 1193.31 735.127 C 1199.27 785.919 1164.47 829.504 1117.77 844.862 C 1094.7 852.393 1071.36 858.244 1047.97 864.526 L 923.189 897.572 L 823.637 924.119 C 810.39 927.672 792.46 933.383 779.492 936.021 C 784.712 922.077 789.786 906.279 794.693 892.082 L 794.582 891.161 C 797.365 888.164 819.406 883.733 825.175 882.232 C 852.587 874.901 880.095 867.938 907.693 861.347 L 1033.96 829.336 C 1059.15 822.956 1110.76 813.135 1131.1 800.035 C 1151.26 787.059 1165.35 768.077 1170.39 744.44 C 1175.55 720.261 1170.61 696.772 1157.33 676.2 z" fill="rgb(55,130,181)" transform="translate(0,0)"></path>
<path d="M 1134.89 654.775 C 1140.52 654.027 1156.72 670.979 1159.45 676.078 L 1157.33 676.2 C 1153.15 671.546 1150.89 668.288 1146.01 663.916 C 1143.83 661.962 1135.48 655.912 1134.89 654.775 z" fill="rgb(55,130,181)" transform="translate(0,0)"></path>
<path d="M 1051.44 0 L 1091.67 0 L 1331 0 L 1331 246.271 L 1331 272.448 C 1328.77 287.612 1327.85 302.864 1324.38 317.792 C 1308.65 382.829 1270.48 440.23 1216.58 479.893 C 1196.13 495.129 1187.19 497.353 1166.56 509.201 C 1169.41 533.573 1169.23 550.24 1165.51 574.914 C 1164.35 582.596 1161.13 596.786 1160.64 603.536 C 1155.92 601.708 1142.55 592.141 1135.4 588.924 C 1089.89 568.467 1060.29 567.187 1011.92 573.44 C 1001.93 576.35 991.554 578.682 981.47 581.412 C 984.318 562.777 986.919 544.105 989.273 525.402 C 965.46 538.917 937.969 544.515 910.767 541.39 C 879.253 537.996 850.399 522.16 830.613 497.398 C 803.121 463.26 797.532 424.461 802.195 382.04 C 791.587 377.47 770.394 366.642 766.762 355.418 C 756.831 324.728 799.739 320.356 810.109 294.393 C 820.215 269.09 811.236 259.382 810.401 234.949 C 809.895 220.139 815.229 202.846 820.45 189.61 C 811.107 187.019 792.938 179.164 784.172 174.971 C 792.457 146.517 803.551 122.721 821.192 98.6425 C 860.593 45.4292 920.398 11.0549 986.211 3.79409 C 1007.58 1.36642 1030.91 3.29456 1050.41 0.169186 L 1051.44 0 z" fill="rgb(107,67,36)" transform="translate(0,0)"></path>
<path d="M 820.45 189.61 C 865.228 204.541 914.483 200.831 957.637 182.255 C 976.976 194.022 988.382 206.737 997.539 227.616 C 1007.27 249.8 1012.04 273.48 1008.03 297.64 C 1011.1 299.228 1014.41 301.019 1017.49 302.513 C 1021.18 283.895 1026.29 269.592 1043.25 258.739 C 1092.39 227.292 1153.46 265.328 1139.58 324.045 C 1131.94 356.335 1108.27 377.132 1079.03 390.588 C 1082.48 414.9 1081.14 417.686 1089.87 442.809 C 1090.42 444.264 1091.53 446.837 1092.74 447.882 C 1116.96 468.776 1142.4 488.212 1166.56 509.201 C 1169.41 533.573 1169.23 550.24 1165.51 574.914 C 1164.35 582.596 1161.13 596.786 1160.64 603.536 C 1155.92 601.708 1142.55 592.141 1135.4 588.924 C 1089.89 568.467 1060.29 567.187 1011.92 573.44 C 1001.93 576.35 991.554 578.682 981.47 581.412 C 984.318 562.777 986.919 544.105 989.273 525.402 C 965.46 538.917 937.969 544.515 910.767 541.39 C 879.253 537.996 850.399 522.16 830.613 497.398 C 803.121 463.26 797.532 424.461 802.195 382.04 C 791.587 377.47 770.394 366.642 766.762 355.418 C 756.831 324.728 799.739 320.356 810.109 294.393 C 820.215 269.09 811.236 259.382 810.401 234.949 C 809.895 220.139 815.229 202.846 820.45 189.61 z" fill="rgb(245,152,121)" transform="translate(0,0)"></path>
<path d="M 1158.26 505.49 C 1147.63 511.656 1131.24 518.731 1119.56 524.07 C 1098.15 533.858 1076.62 543.383 1054.98 552.643 C 1048.78 555.223 1014.89 568.841 1011.71 571.261 C 1011.69 572.46 1011.52 572.419 1011.92 573.44 C 1001.93 576.35 991.554 578.682 981.47 581.412 C 984.318 562.777 986.919 544.105 989.273 525.402 L 989.878 523.549 C 996.534 522.385 1003.92 521.88 1010.7 521.34 C 1059.72 517.435 1109.38 509.382 1158.26 505.49 z" fill="rgb(218,120,96)" transform="translate(0,0)"></path>
<path d="M 1034.83 397.866 C 1051.57 396.268 1062.44 395.96 1079.03 390.588 C 1082.48 414.9 1081.14 417.686 1089.87 442.809 C 1084.95 439.971 1067.28 424.178 1061.93 419.633 C 1053.06 412.186 1044.02 404.929 1034.83 397.866 z" fill="rgb(218,120,96)" transform="translate(0,0)"></path>
<path d="M 1074.3 278.133 C 1091.14 277.385 1106.77 284.249 1112.67 302.624 C 1117.65 318.117 1096.69 315.651 1092.1 324.119 C 1081.81 343.114 1095.26 356.791 1065.81 362.46 C 1053.71 361.293 1050.4 357.383 1043.17 348.065 C 1050.12 347.986 1054.46 348.73 1060.54 344.518 C 1067.64 339.6 1070.81 330.864 1064.71 323.784 C 1059.56 317.8 1054.82 317.139 1047.41 316.516 C 1047.92 294.465 1051.27 283.666 1074.3 278.133 z" fill="rgb(218,120,96)" transform="translate(0,0)"></path>
<path d="M 1091.67 0 L 1331 0 L 1331 246.271 C 1329.1 233.47 1328.65 221.34 1326.31 208.015 C 1319.35 168.244 1303.64 129.185 1279.08 97.0254 C 1245.04 51.9604 1196.27 20.2745 1141.26 7.49459 C 1123.77 3.46142 1109.24 2.33679 1091.67 0 z" fill="rgb(254,254,254)" transform="translate(0,0)"></path>
<path d="M 477.425 734.901 L 736.571 666.976 L 836.242 640.462 C 857.007 634.958 888.524 624.028 909.09 626.805 C 906.874 630.163 902.22 637.097 898.913 639.401 C 896.503 642.079 895.909 642.648 893.141 644.869 C 892.864 646.841 892.7 646.718 891.16 648.032 L 889.751 649.621 C 889.222 650.738 889.027 651.124 888.398 652.157 C 886.732 654.55 883.574 659.331 881.802 661.298 C 880.039 663.839 878.21 666.384 876.493 668.949 C 875.631 671.027 873.058 675.607 871.513 677.126 C 870.822 678.447 870.416 679.073 869.586 680.271 C 867.644 684.696 861.222 695.254 861.53 698.429 L 863.088 700.142 C 865.589 700.151 867.799 700.068 870.298 699.948 C 828.555 712.041 780.809 723.113 738.262 734.029 C 670.793 751.832 603.194 769.134 535.468 785.933 C 536.409 789.522 540.877 805.804 540.945 808.634 C 532.222 809.839 503.374 816.828 498.597 816.939 C 492.789 796.38 488.096 774.285 482.267 753.23 L 477.425 734.901 z" fill="rgb(55,130,181)" transform="translate(0,0)"></path>
<path d="M 876.493 668.949 C 876.635 665.204 878.045 662.361 881.802 661.298 C 880.039 663.839 878.21 666.384 876.493 668.949 z" fill="rgb(44,88,119)" transform="translate(0,0)"></path>
<path d="M 893.141 644.869 C 895.067 641.308 894.912 640.21 898.913 639.401 C 896.503 642.079 895.909 642.648 893.141 644.869 z" fill="rgb(44,88,119)" transform="translate(0,0)"></path>
<path d="M 891.16 648.032 C 891.675 646.319 891.417 645.563 893.141 644.869 C 892.864 646.841 892.7 646.718 891.16 648.032 z" fill="rgb(44,88,119)" transform="translate(0,0)"></path>
<path d="M 888.398 652.157 C 887.044 650.382 887.626 650.435 889.751 649.621 C 889.222 650.738 889.027 651.124 888.398 652.157 z" fill="rgb(44,88,119)" transform="translate(0,0)"></path>
<path d="M 869.586 680.271 C 867.952 678.276 869.571 677.877 871.513 677.126 C 870.822 678.447 870.416 679.073 869.586 680.271 z" fill="rgb(44,88,119)" transform="translate(0,0)"></path>
<path d="M 0 818.04 L 273.238 818.18 C 283.18 818.368 352.44 817.747 356.519 819.264 L 357.982 818.888 C 370.724 828.197 376.345 828.766 391.713 831.227 C 378.416 842.721 357.488 851.147 342.163 860.994 C 340.209 859.993 238.355 859.516 230.463 860.754 C 207.27 861.771 177.484 860.908 153.696 860.911 L 0 860.959 L 0 818.04 z" fill="rgb(250,123,32)" transform="translate(0,0)"></path>
<path d="M 319.391 785.71 C 319.89 773.838 321.288 764.58 329.967 755.975 C 349.365 736.743 376.926 734.754 401.111 745.468 C 413.531 750.97 419.943 757.882 429.352 766.893 C 446.939 762.144 464.579 757.589 482.267 753.23 C 488.096 774.285 492.789 796.38 498.597 816.939 C 495.899 815.588 485.71 807.777 482.747 805.6 C 468.541 795.159 454.413 788.242 437.118 784.635 C 408.166 778.598 388.158 785.273 364.399 800.886 C 359.09 808.421 354.524 808.674 357.982 818.888 L 356.519 819.264 C 352.44 817.747 283.18 818.368 273.238 818.18 C 287.581 798.761 298.323 795.468 319.391 785.71 z" fill="rgb(218,120,96)" transform="translate(0,0)"></path>
<path d="M 356.519 819.264 C 352.951 809.868 360.615 798.085 364.399 800.886 C 359.09 808.421 354.524 808.674 357.982 818.888 L 356.519 819.264 z" fill="rgb(181,67,49)" transform="translate(0,0)"></path>
<metadata><recraft-signature>{"signed_by": "recraft", "signature_b64": "1VlciDJ/mcgOPDC7n7PPNGIHOWpIVE7kYhM9/Bfx/VwZhlGulCsHD5iIeOmT2XAOrUID20eT8a7ycjBRTdGPDw==", "signing_algo": "Ed25519", "generation_timestamp": 1779006619, "identifier": "3efe39ae-644c-44db-9c19-7953cb7c7125"}</recraft-signature></metadata></svg>