<svg xmlns="http://www.w3.org/2000/svg" height="1024" preserveAspectRatio="none" style="display: block;" version="1.1" viewBox="0 0 2048 2048" width="1024">
<path d="M 0 0 L 2048 0 L 2048 2048 L 0 2048 L 0 0 z" fill="rgb(255,255,255)" transform="translate(0,0)"></path>
<path d="M 1073.43 443.05 C 1066.86 425.272 1060.9 408.391 1069.01 388.512 C 1081.69 357.436 1134.26 364.31 1151.82 386.448 C 1166.12 404.472 1161.77 428.786 1146.75 446.509 C 1146.99 451.101 1146.73 455.286 1148.7 459.319 C 1154.15 462.815 1159.83 463.053 1165.94 466.477 C 1183.61 476.381 1196.32 495.192 1201.16 514.638 C 1202.28 519.152 1202.28 528.991 1202.06 533.339 C 1201.22 550.18 1199.75 567.076 1198.47 583.861 L 1190.72 684.043 L 1186.01 743.379 C 1185.16 754.061 1184.38 769.369 1182.44 779.475 C 1180.47 789.463 1176.58 798.973 1170.99 807.477 C 1168.49 811.23 1165.06 815.424 1162.07 818.758 C 1161.08 860.809 1164.36 906.863 1163.76 950.902 C 1222.21 951.384 1269.9 973.863 1324.06 992.654 L 1393.03 1016.62 C 1412.49 1023.38 1437.23 1029.87 1453.17 1043.36 C 1461.8 1050.65 1457.69 1073.24 1458.06 1083.37 C 1458.91 1105.91 1459.84 1112.33 1440.89 1125.66 C 1440.12 1162.87 1432.56 1177.25 1418.64 1210.97 C 1403.36 1247.98 1406.62 1307.27 1408.3 1346.83 C 1411.73 1413.63 1418.17 1480.25 1427.62 1546.47 C 1429.54 1560.92 1431.76 1575.33 1434.26 1589.7 C 1435.66 1597.46 1438.78 1610.72 1439.47 1618 C 1406.29 1635.88 1368.37 1638.19 1332.48 1627.39 C 1323.86 1624.78 1315.47 1621.49 1307.38 1617.54 C 1326.41 1536.72 1336.5 1454.4 1341.92 1371.57 C 1342.79 1358.15 1343.87 1343.51 1344 1330.14 C 1284.63 1308.15 1222.91 1284.97 1163.32 1263.96 C 1159.09 1323.9 1136.38 1474.5 1100.47 1521.99 C 1077.94 1528.79 1060.84 1533.79 1036.77 1533.69 C 1043.64 1579.23 1046.93 1620.7 1055.87 1666.91 C 1022.59 1685.16 985.743 1688.39 949.343 1677.75 C 939.609 1674.83 930.085 1671.25 920.834 1667.05 C 946.325 1567.66 954.047 1477.92 958.534 1376.45 C 938.003 1368.36 916.947 1358.93 896.918 1349.52 C 857.12 1330.82 815.481 1314.8 775.679 1296.38 C 768.213 1374.5 746.348 1495.44 709.981 1565.48 C 686.165 1571.53 655.598 1574.74 631.062 1575.02 C 625.659 1575.82 618.378 1575.53 612.943 1575.03 C 599.922 1574.92 587.29 1573.3 574.399 1571.53 L 575.018 1570.65 C 580.804 1562.58 588.377 1554.47 594.621 1546.36 C 607.282 1529.9 618.879 1512.65 629.341 1494.72 C 698.841 1375.66 717.546 1223.42 717.123 1088.01 C 715.649 1085.9 710.852 1079.3 710.427 1077.11 C 707.327 1061.16 710.361 1041.05 709.063 1025.18 C 707.487 1005.93 703.926 983.569 700.379 964.668 C 683.406 874.21 654.74 786.007 628.031 698.025 C 621.121 675.834 614.383 653.591 607.815 631.298 C 596.747 593.899 583.468 559.487 616.244 528.398 C 597.798 515.161 593.089 501.04 588.404 479.739 C 583.59 457.855 599.482 433.913 621.891 431.637 C 637.073 430.095 662.13 436.92 672.664 448.428 C 686.62 463.675 684.144 479.768 679.191 497.813 C 701.074 484.332 723.731 469.889 744.098 454.043 C 758.582 442.774 770.598 430.023 785.806 418.931 C 837.718 381.07 890.477 374.78 951.906 388.611 C 966.56 391.91 991.996 400.629 1005.18 407.954 C 1030.31 421.912 1045.87 432.846 1073.43 443.05 z" fill="rgb(12,6,4)" transform="translate(0,0)"></path>
<path d="M 720.041 1088.86 L 737.422 1099.23 C 741.556 1227.8 728.998 1369.29 689.423 1491.87 C 684.104 1508.15 677.916 1524.15 670.887 1539.77 C 666.836 1548.75 659.915 1562.29 656.916 1570.92 C 648.673 1571.26 639.442 1571.36 631.419 1572.87 L 630.698 1574.09 L 631.062 1575.02 C 625.659 1575.82 618.378 1575.53 612.943 1575.03 L 613.08 1573.5 C 605.421 1569.8 585.749 1572.05 582.142 1567.23 C 587.73 1559.92 594.274 1553.18 599.638 1545.83 C 695.265 1414.81 721.422 1248.11 720.041 1088.86 z" fill="rgb(104,58,25)" transform="translate(0,0)"></path>
<path d="M 911.408 387.398 C 927.595 385.569 953.659 392.228 969.028 397.239 C 1012.75 411.495 1038.86 436.689 1083.85 451.174 C 1110.94 462.106 1146.53 456.327 1170.7 474.361 C 1201.43 497.303 1199.3 523.33 1196.83 555.821 L 1192.12 617.254 L 1183.99 721.313 C 1182.82 736.352 1181.26 766.318 1178.6 780.027 C 1176.56 790.296 1172.19 799.957 1165.81 808.259 C 1157.86 818.455 1140.02 829.449 1127.75 832.293 C 1104.52 837.68 1075.08 840.813 1051 843.861 C 999.831 850.334 948.573 857.968 897.5 864.202 C 896.906 864.321 896.312 864.44 895.719 864.559 C 858.54 869.216 821.337 873.889 784.208 878.908 C 773.095 880.411 760.265 882.48 749.198 881.682 C 742.492 881.199 730.82 874.784 725.213 870.87 C 701.767 853.883 696.391 822.808 688.66 796.572 L 668.35 729.74 L 641.208 639.29 C 636.413 623.343 629.306 603.337 627.008 587.546 C 622.175 554.343 641.927 524.594 674.148 515.586 C 683.979 512.838 696.12 508.412 705.576 504.751 C 718.007 499.954 729.915 493.899 741.115 486.682 C 750.913 480.44 763.518 471.812 771.846 464.032 C 792.961 444.306 809.027 425.328 835.383 411.572 C 861.108 398.145 882.652 390.371 911.408 387.398 z" fill="rgb(208,147,94)" transform="translate(0,0)"></path>
<path d="M 1141.54 955.412 C 1162.23 952.98 1197.36 955.956 1217.02 960.475 C 1236.43 964.937 1257.32 972.987 1276.24 979.757 L 1350.88 1006.12 C 1366.58 1011.68 1382.32 1017.12 1398.1 1022.45 C 1412.12 1027.17 1426.11 1031.42 1439.29 1038.3 C 1445.71 1040.51 1461.56 1054.81 1452.52 1061.86 C 1420.66 1086.71 1356.64 1089.19 1318.81 1093.64 L 1197.87 1108.24 L 1102.44 1119.33 C 1078.58 1122.25 1050.53 1126.33 1026.75 1127.24 C 1004.6 1128.38 982.389 1126.52 960.733 1121.71 C 940.869 1117.31 918.31 1109.23 898.8 1102.73 C 869.465 1093.23 840.23 1083.42 811.1 1073.31 C 793.655 1067.43 770.268 1059.53 753.191 1054.49 C 706.229 1040.63 696.199 1019.74 749.96 1006.13 C 778.195 998.972 806.399 996.287 835.25 992.826 L 928.991 981.606 C 997.973 973.221 1072.72 961.41 1141.54 955.412 z" fill="rgb(208,147,94)" transform="translate(0,0)"></path>
<path d="M 1089.91 842.607 L 1090.46 854.695 C 1091.27 868.92 1091.01 883.082 1092.04 897.356 C 1091 910.404 1092.46 942.061 1092.81 956.679 C 1073.49 960.67 1037.09 963.98 1015.86 966.63 C 965.799 973.162 915.706 979.414 865.579 985.384 C 838.098 988.716 800.953 992.145 774.189 997.024 C 769.57 957.454 766.101 925.658 759.163 885.812 L 974.936 857.648 C 1012.87 852.656 1052.17 848.243 1089.91 842.607 z" fill="rgb(255,255,255)" transform="translate(0,0)"></path>
<path d="M 712.016 1034.64 C 724.967 1052.83 766.962 1062.42 788.593 1069.78 L 918.787 1113.13 C 1009.18 1142.53 1039.62 1128.41 1129.29 1119.12 C 1190.47 1112.76 1251.58 1105.77 1312.62 1098.14 C 1365.77 1091.55 1405.58 1091.43 1454.76 1066.39 C 1455.3 1076.77 1455.48 1084.79 1455.36 1095.2 C 1455.97 1096.55 1455.97 1096.42 1455.52 1097.81 C 1455.14 1113.06 1446.72 1120.33 1433.31 1125.81 C 1399.37 1139.67 1363.99 1139.84 1328.44 1144.7 C 1272.29 1152.38 1216.28 1160.78 1159.83 1166.08 C 1114.89 1170.58 1070.09 1179.74 1024.82 1182.46 C 1010.51 1183.35 990.183 1182.71 976.247 1178.56 C 896.929 1154.93 818.796 1126.35 741.411 1097.05 C 704.865 1083.21 711.93 1068.22 712.016 1034.64 z" fill="rgb(104,58,25)" transform="translate(0,0)"></path>
<path d="M 1455.36 1095.2 C 1455.97 1096.55 1455.97 1096.42 1455.52 1097.81 C 1455.3 1096.57 1455.22 1096.44 1455.36 1095.2 z" fill="rgb(43,16,4)" transform="translate(0,0)"></path>
<path d="M 979.162 1182.98 C 1007.85 1187.78 1023.7 1186.74 1052 1183.53 C 1048.23 1213.95 1039.34 1230.27 1029.42 1258.1 C 1016.77 1293.57 1019.85 1340.23 1020.88 1377.62 C 1022.7 1444.48 1030.33 1510.7 1038.63 1576.96 C 1040.79 1595.07 1043.27 1613.14 1046.07 1631.16 C 1047.66 1641.2 1049.64 1652.34 1050.85 1662.49 C 1051.18 1665.19 1050.4 1665.21 1048.81 1666.68 C 1017.89 1680 992.482 1683.43 959.276 1676.38 C 979.721 1570.45 982.51 1466.13 982.947 1358.68 C 983.192 1298.17 982.732 1243.5 979.162 1182.98 z" fill="rgb(208,147,94)" transform="translate(0,0)"></path>
<path d="M 1433.5 1128.97 L 1435.04 1128.77 C 1447.39 1139.46 1414.3 1207.98 1411.4 1221.58 C 1396.46 1291.49 1405.42 1375.45 1411.83 1445.9 C 1416.93 1501.84 1424.06 1562.32 1436 1615.88 C 1414.16 1625.22 1402.72 1629.22 1378.76 1630.28 C 1366.44 1630.41 1357.91 1629.39 1345.77 1627.45 C 1364.99 1525.8 1367.29 1420.61 1367.03 1317.49 C 1366.88 1257.94 1367.41 1203.99 1363.67 1144.23 C 1390.34 1141.49 1408.1 1138.34 1433.5 1128.97 z" fill="rgb(208,147,94)" transform="translate(0,0)"></path>
<path d="M 784.88 1117.22 L 940.86 1171.69 C 940.8 1194.91 945.734 1212.21 949.87 1234.79 C 953.396 1253.94 955.973 1273.25 957.593 1292.66 C 958.157 1299.4 959.46 1311.6 958.844 1318.01 L 957.497 1318.62 C 898.947 1291.91 840.192 1265.65 781.237 1239.84 C 781.546 1222.86 783.473 1202.6 784.371 1185.29 C 785.55 1162.62 785.72 1139.91 784.88 1117.22 z" fill="rgb(255,255,255)" transform="translate(0,0)"></path>
<path d="M 1325.4 1149.47 L 1328.04 1149.18 C 1335.45 1158.36 1344.6 1256.06 1345.25 1273.77 C 1310.78 1259.45 1267.22 1244.57 1231.75 1231.51 C 1210.08 1223.64 1188.45 1215.66 1166.86 1207.57 L 1169.86 1168.51 C 1220.68 1162.63 1275.08 1154.12 1325.4 1149.47 z" fill="rgb(255,255,255)" transform="translate(0,0)"></path>
<path d="M 894.745 383.469 C 896.454 383.502 898.163 383.569 899.871 383.668 C 902.919 383.855 905.746 383.763 907.533 385.76 C 906.177 386.659 897.421 387.157 894.631 387.568 C 857.971 392.85 819.732 411.902 793.635 438.267 C 768.275 463.888 745.496 483.606 711.998 498.076 C 697.745 504.234 684.307 507.652 669.77 512.577 C 639.516 522.828 618.844 554.331 623.526 586.338 C 625.612 602.015 630.243 615.074 634.748 629.893 L 651.559 685.154 L 681.169 781.995 C 694.63 827.092 694.269 860.001 739.98 882.085 L 739.476 883.159 L 734.5 883.745 C 717.888 880.618 697.225 874.35 687.205 859.406 C 684.049 854.7 678.958 847.909 676.898 842.64 C 665.854 814.396 658.047 784.781 649.038 755.813 L 623.318 670.657 C 615.976 646.829 608.303 623.101 602.033 598.949 C 597.635 582.011 596.606 561.215 606.267 545.786 C 621.165 521.483 646.891 517.793 669.944 506.512 C 700.559 491.532 732.801 467.491 758.828 445.561 C 777.639 429.711 793.481 414.892 815.917 404.207 C 832.853 396.141 849.25 389.981 867.78 387.189 C 876.548 385.874 884.604 385.91 893.343 383.813 L 894.745 383.469 z" fill="rgb(104,58,25)" transform="translate(0,0)"></path>
<path d="M 943.543 1172.07 C 954.829 1174.96 963.199 1179.06 975.928 1181.72 C 975.712 1207.2 978.81 1240.11 979.365 1267.32 C 979.852 1304.87 979.842 1342.42 979.335 1379.97 C 978.954 1458.6 976.961 1538.04 965.929 1616 C 963.153 1635.62 959.999 1656.57 955.104 1675.77 L 943.356 1672.2 C 916.766 1663.43 925.685 1664.64 930.215 1642.88 C 934.729 1621.05 938.833 1599.13 942.526 1577.14 C 952.33 1517.16 958.536 1456.64 961.109 1395.91 C 963.586 1341.54 964.03 1292.36 953.993 1238.51 C 950.084 1217.53 944.526 1193.09 943.543 1172.07 z" fill="rgb(104,58,25)" transform="translate(0,0)"></path>
<path d="M 1101.65 1177.48 C 1102.53 1177.99 1101.9 1177.55 1102.88 1179.44 C 1100.15 1246.49 1071.98 1346.25 1047.9 1409 C 1044.47 1417.93 1035.05 1442 1030.22 1449.38 L 1029.27 1448.59 C 1024.52 1402.62 1019.44 1314.4 1029.56 1271.1 C 1037.37 1237.7 1051.56 1226.17 1055.48 1182.66 L 1101.65 1177.48 z" fill="rgb(255,255,255)" transform="translate(0,0)"></path>
<path d="M 1124.93 1249.23 C 1136.41 1254.08 1148.47 1258.45 1160.15 1262.86 C 1149.87 1343.51 1139.93 1446.1 1098.68 1518.28 C 1091.28 1521 1082.91 1523.16 1075.25 1525.31 C 1064.71 1527.95 1054.99 1528.76 1044.2 1529.39 C 1091.98 1447.65 1114.34 1342.28 1124.93 1249.23 z" fill="rgb(208,147,94)" transform="translate(0,0)"></path>
<path d="M 737.898 1241.68 L 739.198 1242.03 C 738.918 1245.91 739.545 1245.16 739.733 1248 C 740.254 1255.86 740.081 1270.28 739.172 1277.95 L 738.735 1278.65 C 740.777 1281.1 766.438 1292.41 771.406 1294.76 C 770.624 1314.57 765.477 1349.55 762.165 1369.22 C 751.884 1430.29 736.063 1506.12 707.628 1561.37 C 693.149 1566.36 676.051 1568.11 660.79 1570.03 C 685.013 1520.2 697.447 1483.65 710.212 1430.02 C 724.69 1370.55 733.733 1309.88 737.229 1248.77 C 737.146 1247.02 737.294 1245.43 737.59 1243.69 L 737.898 1241.68 z" fill="rgb(208,147,94)" transform="translate(0,0)"></path>
<path d="M 737.898 1241.68 L 739.198 1242.03 C 738.918 1245.91 739.545 1245.16 739.733 1248 C 740.254 1255.86 740.081 1270.28 739.172 1277.95 C 738.941 1273.98 739.759 1249.26 738.2 1248.27 C 737.808 1248.37 738.087 1248.27 737.229 1248.77 C 737.146 1247.02 737.294 1245.43 737.59 1243.69 L 737.898 1241.68 z" fill="rgb(104,58,25)" transform="translate(0,0)"></path>
<path d="M 1351.75 1145.39 C 1353.19 1145.12 1359.1 1143.75 1359.66 1146.14 C 1361.15 1153 1361.43 1161.5 1361.6 1168.63 C 1364.28 1283.21 1367.33 1399.14 1357.27 1513.4 C 1353.98 1550.72 1350.24 1590.84 1342.41 1627.23 C 1334.76 1625.32 1324.26 1621.38 1316.6 1618.77 C 1312.75 1617.5 1310.53 1616.84 1311.57 1612.5 C 1327.15 1547.55 1335.85 1482.49 1341.69 1415.92 C 1349.73 1324.31 1353.26 1238.45 1332.32 1147.98 C 1338.67 1147 1345.35 1146.23 1351.75 1145.39 z" fill="rgb(104,58,25)" transform="translate(0,0)"></path>
<path d="M 1125.27 1173.41 L 1127.38 1173.39 C 1128.94 1176.69 1126.62 1197.85 1126.21 1203.18 C 1118 1311.08 1096.9 1420.78 1046.81 1517.61 C 1045.3 1520.52 1040.94 1529.26 1038.49 1530.65 L 1036.22 1529.73 C 1033.26 1509.18 1031.36 1481.54 1029.13 1460.3 C 1069.27 1381.66 1097.58 1263.97 1107.17 1176.22 C 1112.08 1175.03 1120.07 1174.13 1125.27 1173.41 z" fill="rgb(104,58,25)" transform="translate(0,0)"></path>
<path d="M 742.882 1250.24 C 749.254 1252.35 755.654 1255.12 761.867 1257.72 C 828.085 1285.41 893.279 1315.81 959.369 1343.79 C 958.943 1352.73 959.117 1363.09 959.054 1372.14 C 944.4 1366.97 927.536 1359.16 913.152 1352.85 L 843.298 1322.09 C 816.301 1310.15 766.446 1289.91 742.166 1275.75 C 742.041 1266.53 742.281 1259.46 742.882 1250.24 z" fill="rgb(104,58,25)" transform="translate(0,0)"></path>
<path d="M 1129.83 1217.52 C 1180.1 1238.72 1232.33 1255.99 1283.48 1274.91 C 1303.12 1282.17 1325.9 1289.77 1344.99 1297.95 L 1344.01 1324.75 C 1331.63 1325.1 1154.12 1256.06 1129.8 1246.17 L 1129.83 1217.52 z" fill="rgb(104,58,25)" transform="translate(0,0)"></path>
<path d="M 699.431 876.362 C 722.196 887.736 730.709 888.147 755.457 886.564 C 760.349 917.07 765.529 947.585 768.665 978.337 C 769.308 984.636 770.001 990.913 769.642 997.253 C 767.485 999.146 766.303 998.757 762.963 999.358 C 751.651 1001.57 740.371 1004.94 729.415 1008.48 C 722.411 964.104 715.429 918.677 699.431 876.362 z" fill="rgb(208,147,94)" transform="translate(0,0)"></path>
<path d="M 740.998 1101.1 C 754.241 1106.28 767.57 1111.24 780.979 1115.97 C 782.25 1139.77 782.178 1163.61 780.766 1187.4 C 779.914 1203.18 777.915 1223.1 777.961 1238.55 C 773.811 1236.48 769.026 1234.24 765.027 1232 C 756.433 1234.98 746.758 1239.5 739.198 1242.03 L 737.898 1241.68 C 741.657 1190.27 742.043 1152.68 740.998 1101.1 z" fill="rgb(208,147,94)" transform="translate(0,0)"></path>
<path d="M 1156.98 822.096 C 1159.33 825.88 1160.08 939.766 1160.07 950.956 C 1152.21 950.871 1126.32 953.057 1122.67 952.515 L 1122.15 951.067 C 1121.76 911.132 1119.94 879.416 1114.07 839.869 C 1133.86 835.125 1140.1 833.127 1156.98 822.096 z" fill="rgb(208,147,94)" transform="translate(0,0)"></path>
<path d="M 1119.29 376.007 L 1122.39 375.929 C 1158.21 375.165 1166.21 420.789 1141.99 445.688 C 1142.88 451.105 1146.88 460.376 1139.78 458.127 C 1130.26 455.943 1121.02 454.902 1111.45 453.285 C 1101.11 426.781 1083.35 392.04 1119.29 376.007 z" fill="rgb(208,147,94)" transform="translate(0,0)"></path>
<path d="M 761.224 1236.85 C 767.888 1236.83 818.585 1260.5 827.647 1264.54 C 871.429 1284.51 915.411 1304.05 959.584 1323.14 C 959.692 1328.65 959.58 1334.46 959.555 1339.99 L 949.753 1335.65 C 880.528 1305.95 811.531 1275.72 742.771 1244.95 L 761.224 1236.85 z" fill="rgb(208,147,94)" transform="translate(0,0)"></path>
<path d="M 1149.58 1205.91 C 1178.17 1214.36 1209.2 1227.78 1237.54 1237.9 C 1273.73 1250.82 1309.55 1263.86 1345.35 1277.83 L 1345.07 1294.39 L 1334.4 1290 C 1306.13 1278.41 1268.57 1265.75 1239.29 1255.24 C 1202.82 1241.94 1166.41 1228.44 1130.07 1214.75 C 1136.51 1212 1143.18 1208.83 1149.58 1205.91 z" fill="rgb(208,147,94)" transform="translate(0,0)"></path>
<path d="M 643.398 440.119 C 678.817 441.748 685.984 472.577 672.913 501.056 C 672.453 501.264 671.994 501.471 671.535 501.678 C 664.604 504.894 657.487 507.694 650.223 510.064 C 645.077 512.286 639.276 514.234 634.019 516.321 C 626.109 497.115 613.732 473.355 625.044 453.993 C 629.696 446.029 634.823 442.602 643.398 440.119 z" fill="rgb(208,147,94)" transform="translate(0,0)"></path>
<path d="M 1093.19 844.455 C 1096.45 839.839 1104.57 840.872 1110.15 840.042 C 1116.26 872.156 1119.05 920.944 1118.92 953.687 C 1111.89 954.585 1103.46 955.879 1096.52 956.383 C 1095.83 939.542 1095.3 922.695 1094.94 905.844 C 1089.79 904.996 1095.91 900.348 1092.04 897.356 C 1091.01 883.082 1091.27 868.92 1090.46 854.695 C 1093.36 848.819 1092.04 851.252 1093.19 844.455 z" fill="rgb(104,58,25)" transform="translate(0,0)"></path>
<path d="M 1090.46 854.695 C 1093.36 848.819 1092.04 851.252 1093.19 844.455 C 1094.55 862.445 1095.81 888.176 1094.94 905.844 C 1089.79 904.996 1095.91 900.348 1092.04 897.356 C 1091.01 883.082 1091.27 868.92 1090.46 854.695 z" fill="rgb(43,16,4)" transform="translate(0,0)"></path>
<path d="M 620.942 435.246 C 626.229 435.006 631.808 434.889 636.963 436.335 L 640.775 437.413 L 639.696 437.917 C 602.063 455.12 619.396 489.902 630.555 519.064 C 627.639 521.088 624.764 523.139 621.781 525.066 C 618.644 527.226 615.991 524.058 613.001 521.911 C 600.137 512.47 593.541 490.949 591.327 475.494 C 588.556 456.155 602.217 438.431 620.942 435.246 z" fill="rgb(104,58,25)" transform="translate(0,0)"></path>
<path d="M 679.597 857.681 C 680.171 858.085 691.483 868.906 692.307 870.801 C 710.163 911.849 720.831 964.441 725.528 1008.96 C 725.673 1010.32 723.926 1011.14 722.528 1012.26 L 712.279 1018.62 C 707.695 984.702 701.535 951.013 693.821 917.664 C 690.431 902.898 681.161 869.852 679.597 857.681 z" fill="rgb(104,58,25)" transform="translate(0,0)"></path>
<path d="M 1099.85 370.236 C 1109.73 369.417 1113.12 370.647 1122.58 372.994 C 1109.79 376.577 1102.84 379.789 1096.95 393.002 C 1089.21 410.399 1099.85 430.845 1105.47 447.35 C 1106.01 448.946 1108.51 452.454 1105.47 452.628 C 1095.93 450.451 1088.54 448.16 1079.36 445.362 L 1078.41 445.081 C 1075.1 438.307 1072.51 431.207 1070.67 423.895 C 1064.22 398.274 1072.4 376.021 1099.85 370.236 z" fill="rgb(104,58,25)" transform="translate(0,0)"></path>
<path d="M 1163.68 1169.49 C 1163.82 1169.47 1165.59 1169.13 1165.62 1169.65 C 1166.19 1181.01 1164.46 1195.62 1164.21 1206.97 C 1159.19 1205.1 1155.83 1203.63 1150.68 1202.08 C 1146.75 1203.4 1142.87 1204.73 1139.13 1206.52 L 1135.31 1208.35 C 1135.33 1208.34 1129.59 1211.36 1129.59 1209.75 C 1129.61 1197.68 1130.91 1185.52 1131.14 1173.28 C 1141.95 1171.72 1152.8 1170.46 1163.68 1169.49 z" fill="rgb(208,147,94)" transform="translate(0,0)"></path>
<path d="M 1542.67 1478.65 C 1589.96 1473.45 1632.46 1507.71 1637.41 1555.03 C 1642.36 1602.35 1607.87 1644.66 1560.53 1649.36 C 1513.54 1654.02 1471.61 1619.85 1466.7 1572.89 C 1461.78 1525.93 1495.73 1483.82 1542.67 1478.65 z" fill="rgb(12,6,4)" transform="translate(0,0)"></path>
<path d="M 1539.84 1482.75 C 1584.95 1476.06 1626.87 1507.44 1633.16 1552.61 C 1639.45 1597.78 1607.7 1639.42 1562.48 1645.31 C 1517.82 1651.13 1476.81 1619.86 1470.59 1575.25 C 1464.38 1530.64 1495.28 1489.36 1539.84 1482.75 z" fill="rgb(233,59,58)" transform="translate(0,0)"></path>
<metadata><recraft-signature>{"signed_by": "recraft", "signature_b64": "bruF2GtfNVmHLsAwhhF1t7HpEh60noVepV+5+vGDubhxOitrq3zxvEpHROk5UTvDJqji0IPAcnmuo90iaaJoAg==", "signing_algo": "Ed25519", "generation_timestamp": 1779098997, "identifier": "d9e4e88b-e7e6-4db5-b354-476493429185"}</recraft-signature></metadata></svg>