<svg xmlns="http://www.w3.org/2000/svg" height="1024" preserveAspectRatio="none" style="display: block;" version="1.1" viewBox="0 0 2048 2048" width="1024">
<path d="M 0 0 L 2048 0 L 2048 2048 L 0 2048 L 0 0 z" fill="rgb(255,255,255)" transform="translate(0,0)"></path>
<path d="M 331.134 534.951 C 333.815 529.816 362.943 496.736 368.281 490.809 C 383.125 474.328 399.674 453.608 414.566 437.692 C 435.723 415.08 482.447 403.293 512.853 403.247 C 590.709 403.128 668.821 403.203 746.736 403.198 L 1219.44 403.231 L 1448.24 403.352 L 1518.66 403.273 C 1569.88 403.227 1614.04 403.574 1653.57 441.661 C 1654.06 442.418 1654.56 443.175 1655.06 443.932 C 1659.3 449.48 1667.65 459.223 1672.65 464.031 C 1673.12 464.657 1673.6 465.283 1674.07 465.909 C 1675.8 468.197 1676.59 469.017 1678.63 471.034 C 1679.1 471.658 1679.57 472.282 1680.04 472.906 C 1682.46 476.096 1687.01 481.308 1689.75 484.332 C 1690.64 485.165 1690.82 485.372 1691.59 486.311 L 1690.99 489.077 C 1691.55 489.546 1692.02 490.258 1692.47 490.845 L 1695.56 491.108 L 1695.85 491.538 L 1697.05 492.942 C 1698.79 495.034 1699.65 496.079 1701.62 498.046 C 1702.09 498.665 1702.56 499.285 1703.03 499.905 C 1704.41 501.741 1705.02 502.429 1706.57 504.093 L 1706.86 504.512 C 1708.77 506.713 1710.59 508.954 1712.58 511.08 L 1712.86 511.493 C 1714.71 513.77 1716.55 515.985 1718.65 518.034 C 1719.13 518.659 1719.61 519.284 1720.09 519.909 C 1721.75 522.079 1722.91 523.323 1724.77 525.312 C 1725.77 526.258 1726.02 526.575 1726.88 527.651 C 1728.66 530.001 1729.51 530.918 1731.56 533.007 C 1732.65 534.105 1733.13 534.684 1734.11 535.887 C 1736.55 539.14 1741.85 545.21 1744.59 548.073 L 1744.88 548.479 C 1746.92 550.82 1748.39 552.754 1750.57 555.082 L 1750.83 555.56 C 1753.01 558.212 1754.2 559.658 1756.66 562.029 C 1757.13 562.661 1757.6 563.294 1758.08 563.926 C 1759.93 566.324 1761.59 568.072 1763.65 570.304 C 1764.04 570.762 1764.44 571.221 1764.84 571.68 C 1766.27 573.557 1766.95 574.35 1768.56 576.007 C 1769.67 577.121 1770.09 577.637 1771.07 578.868 C 1772.82 581.236 1773.53 581.964 1775.62 584.031 C 1776.1 584.658 1776.58 585.286 1777.05 585.914 C 1778.73 588.102 1779.62 589.059 1781.56 591.016 C 1782.65 592.126 1783.09 592.667 1784.05 593.89 C 1785.8 596.251 1786.55 597.008 1788.61 599.042 C 1789.09 599.668 1789.56 600.294 1790.03 600.919 C 1791.65 603.011 1792.74 604.201 1794.57 606.074 L 1794.85 606.533 C 1796.67 608.711 1798.48 610.829 1800.48 612.843 C 1801.53 613.976 1802.09 614.669 1803.04 615.886 L 1801.54 617.116 C 1802.28 617.943 1803.04 619.1 1803.68 620.002 L 1806.63 620.05 C 1807.1 620.671 1807.58 621.293 1808.05 621.915 C 1809.63 623.989 1810.87 625.373 1812.61 627.274 C 1812.94 627.662 1813.27 628.05 1813.6 628.438 L 1812.94 630.931 C 1813.53 631.462 1814.1 632.296 1814.58 632.923 L 1817.63 633.053 C 1818.1 633.675 1818.56 634.297 1819.03 634.919 C 1820.73 637.135 1821.59 638.045 1823.56 640.017 C 1824.58 641.072 1825.12 641.723 1826.05 642.863 L 1824.51 644.112 C 1825.41 645.044 1826.3 645.989 1827.17 646.946 L 1829.38 646.841 C 1830.5 647.977 1831.08 648.644 1832.09 649.872 C 1833.51 651.843 1833.86 652.232 1835.5 653.974 C 1836.63 655.106 1837.06 655.636 1838.06 656.886 C 1839.79 659.179 1840.57 659.994 1842.6 662.016 C 1843.67 663.127 1844.1 663.665 1845.05 664.888 C 1846.72 667.094 1847.65 668.09 1849.57 670.069 L 1849.84 670.56 L 1851.02 671.973 C 1852.47 673.75 1853.99 675.421 1855.58 677.074 L 1855.87 677.504 C 1858.1 680.039 1860.22 682.633 1862.58 685.064 L 1862.85 685.545 C 1865.26 688.385 1866.92 690.361 1869.58 693.012 C 1870.65 694.105 1871.14 694.696 1872.1 695.891 C 1873.81 698.181 1874.74 699.15 1876.73 701.2 C 1877.23 701.809 1877.74 702.418 1878.24 703.026 C 1879.85 705.195 1880.71 706.145 1882.57 708.074 L 1882.84 708.552 L 1884.02 709.962 C 1885.47 711.749 1886.99 713.413 1888.62 715.031 C 1889.1 715.649 1889.58 716.266 1890.06 716.884 C 1891.49 718.811 1891.97 719.339 1893.6 721.071 L 1893.86 721.491 C 1897.02 724.877 1899.18 727.69 1902.59 731.075 L 1903.16 731.984 C 1904.23 733.136 1904.27 733.248 1905.07 734.645 C 1906.86 742.663 1905.92 757.712 1905.76 766.429 C 1905.09 804.482 1914.29 833.359 1876.11 856.509 C 1847.84 873.385 1833.69 868.18 1801.78 868.546 C 1791.46 868.664 1789.5 868.406 1779.48 871.845 C 1771.15 874.705 1757.67 891.42 1754.85 893.123 C 1749.53 901.655 1744.5 910.367 1739.78 919.244 C 1718.66 969.377 1705.85 1024.02 1697.86 1077.72 C 1679.24 1203.04 1678.61 1440.27 1725.86 1556.74 C 1730.78 1568.86 1736.77 1580.89 1745.09 1591.06 C 1760.01 1608.14 1764.04 1600.63 1780.28 1609.32 C 1827.53 1634.62 1826.68 1682.46 1789.19 1717.34 C 1775.44 1730.01 1761.77 1735.01 1743.3 1735.14 C 1710.9 1735.38 1688.03 1732.52 1664.08 1708.54 C 1609.65 1654.07 1592.18 1474.44 1591.96 1400.27 C 1574.55 1402.83 1549.24 1402.62 1531.37 1401.58 C 1503.49 1401.89 1483.67 1371.49 1475.7 1348.07 C 1457.64 1302.25 1450.33 1239.48 1447.37 1190.49 C 1445.22 1155.03 1446.23 1127.85 1440.67 1092.17 C 1440.48 1091.77 1436.2 1075.32 1435.58 1073.26 C 1431.8 1061.14 1427.07 1049.33 1421.42 1037.96 C 1386.9 979.079 1346.75 984.613 1284.62 976.997 C 1238.86 970.962 1192.94 966.276 1146.9 962.943 C 996.005 953.417 844.507 962.36 695.778 989.573 C 683.964 995.742 676.097 1003.81 667.325 1013.66 C 619.682 1073.7 633.618 1136.31 627.375 1206.97 C 623.3 1253.09 612.118 1376.1 563.808 1396.19 C 550.115 1405.88 493.678 1403.35 476.21 1399.43 L 474.673 1399.75 C 472.865 1406.16 473.037 1428.58 472.735 1436.44 C 472.263 1448.72 471.335 1461.65 470.528 1473.94 C 466.552 1534.54 446.761 1649.63 412.471 1698.39 C 404.921 1709.35 394.981 1718.45 383.4 1725 C 360.674 1737.89 350.831 1733.99 326.323 1735.23 C 293.715 1736.89 272.85 1720.36 256.734 1693.07 C 249.399 1680.65 246.29 1663.29 250.725 1649.33 C 255.781 1632.55 267.736 1619.14 283.353 1611.43 C 307.334 1600.46 314.522 1604.94 328.606 1578.23 C 376.951 1493.34 381.755 1270.67 376.076 1172.09 C 373.671 1126.24 367.849 1080.64 358.659 1035.65 C 348.978 990.167 332.378 926.27 303.889 888.552 C 297.668 880.316 289.942 874.654 281.368 869.096 C 245.373 867.129 200.548 876.89 172.84 849.254 C 155.499 831.957 156.36 812.58 156.362 790.088 C 156.365 778.245 156.458 766.402 156.641 754.561 C 156.772 748.45 156.857 742.339 156.895 736.228 C 175.555 712.84 197.828 688.133 217.547 665.294 L 326.573 539.181 C 328.084 537.059 328.801 535.781 331.134 534.951 z" fill="rgb(214,176,117)" transform="translate(0,0)"></path>
<path d="M 331.134 534.951 C 333.815 529.816 362.943 496.736 368.281 490.809 C 383.125 474.328 399.674 453.608 414.566 437.692 C 435.723 415.08 482.447 403.293 512.853 403.247 C 590.709 403.128 668.821 403.203 746.736 403.198 L 1219.44 403.231 L 1448.24 403.352 L 1518.66 403.273 C 1569.88 403.227 1614.04 403.574 1653.57 441.661 C 1654.06 442.418 1654.56 443.175 1655.06 443.932 C 1659.3 449.48 1667.65 459.223 1672.65 464.031 C 1673.12 464.657 1673.6 465.283 1674.07 465.909 C 1675.8 468.197 1676.59 469.017 1678.63 471.034 C 1679.1 471.658 1679.57 472.282 1680.04 472.906 C 1682.46 476.096 1687.01 481.308 1689.75 484.332 C 1690.64 485.165 1690.82 485.372 1691.59 486.311 L 1690.99 489.077 C 1691.55 489.546 1692.02 490.258 1692.47 490.845 L 1695.56 491.108 L 1695.85 491.538 L 1697.05 492.942 C 1698.79 495.034 1699.65 496.079 1701.62 498.046 C 1702.09 498.665 1702.56 499.285 1703.03 499.905 C 1704.41 501.741 1705.02 502.429 1706.57 504.093 L 1706.86 504.512 C 1708.77 506.713 1710.59 508.954 1712.58 511.08 L 1712.86 511.493 C 1714.71 513.77 1716.55 515.985 1718.65 518.034 C 1719.13 518.659 1719.61 519.284 1720.09 519.909 C 1721.75 522.079 1722.91 523.323 1724.77 525.312 C 1725.77 526.258 1726.02 526.575 1726.88 527.651 C 1728.66 530.001 1729.51 530.918 1731.56 533.007 C 1732.65 534.105 1733.13 534.684 1734.11 535.887 C 1736.55 539.14 1741.85 545.21 1744.59 548.073 L 1744.88 548.479 C 1746.92 550.82 1748.39 552.754 1750.57 555.082 L 1750.83 555.56 C 1753.01 558.212 1754.2 559.658 1756.66 562.029 C 1757.13 562.661 1757.6 563.294 1758.08 563.926 C 1759.93 566.324 1761.59 568.072 1763.65 570.304 C 1764.04 570.762 1764.44 571.221 1764.84 571.68 C 1766.27 573.557 1766.95 574.35 1768.56 576.007 C 1769.67 577.121 1770.09 577.637 1771.07 578.868 C 1772.82 581.236 1773.53 581.964 1775.62 584.031 C 1776.1 584.658 1776.58 585.286 1777.05 585.914 C 1778.73 588.102 1779.62 589.059 1781.56 591.016 C 1782.65 592.126 1783.09 592.667 1784.05 593.89 C 1785.8 596.251 1786.55 597.008 1788.61 599.042 C 1789.09 599.668 1789.56 600.294 1790.03 600.919 C 1791.65 603.011 1792.74 604.201 1794.57 606.074 L 1794.85 606.533 C 1796.67 608.711 1798.48 610.829 1800.48 612.843 C 1801.53 613.976 1802.09 614.669 1803.04 615.886 L 1801.54 617.116 C 1802.28 617.943 1803.04 619.1 1803.68 620.002 L 1806.63 620.05 C 1807.1 620.671 1807.58 621.293 1808.05 621.915 C 1809.63 623.989 1810.87 625.373 1812.61 627.274 C 1812.94 627.662 1813.27 628.05 1813.6 628.438 L 1812.94 630.931 C 1813.53 631.462 1814.1 632.296 1814.58 632.923 L 1817.63 633.053 C 1818.1 633.675 1818.56 634.297 1819.03 634.919 C 1820.73 637.135 1821.59 638.045 1823.56 640.017 C 1824.58 641.072 1825.12 641.723 1826.05 642.863 L 1824.51 644.112 C 1825.41 645.044 1826.3 645.989 1827.17 646.946 L 1829.38 646.841 C 1830.5 647.977 1831.08 648.644 1832.09 649.872 C 1833.51 651.843 1833.86 652.232 1835.5 653.974 C 1836.63 655.106 1837.06 655.636 1838.06 656.886 C 1839.79 659.179 1840.57 659.994 1842.6 662.016 C 1843.67 663.127 1844.1 663.665 1845.05 664.888 C 1846.72 667.094 1847.65 668.09 1849.57 670.069 L 1849.84 670.56 L 1851.02 671.973 C 1852.47 673.75 1853.99 675.421 1855.58 677.074 L 1855.87 677.504 C 1858.1 680.039 1860.22 682.633 1862.58 685.064 L 1862.85 685.545 C 1865.26 688.385 1866.92 690.361 1869.58 693.012 C 1870.65 694.105 1871.14 694.696 1872.1 695.891 C 1873.81 698.181 1874.74 699.15 1876.73 701.2 C 1877.23 701.809 1877.74 702.418 1878.24 703.026 C 1879.85 705.195 1880.71 706.145 1882.57 708.074 L 1882.84 708.552 L 1884.02 709.962 C 1885.47 711.749 1886.99 713.413 1888.62 715.031 C 1889.1 715.649 1889.58 716.266 1890.06 716.884 C 1891.49 718.811 1891.97 719.339 1893.6 721.071 L 1893.86 721.491 C 1897.02 724.877 1899.18 727.69 1902.59 731.075 L 1903.16 731.984 C 1902.77 733.489 1902.6 733.535 1902.98 734.879 C 1905.38 740.209 1903.47 745.493 1902.39 751.242 L 1899.5 756.004 C 1878.39 790.747 1838.87 788.2 1803.72 788.264 L 1741.08 788.273 L 1510.55 788.071 L 567.998 788.064 L 324.218 788.077 L 249.669 787.97 C 214.257 787.862 180.561 790.813 160.423 754.753 L 160.133 756.028 L 156.641 754.561 C 156.772 748.45 156.857 742.339 156.895 736.228 C 175.555 712.84 197.828 688.133 217.547 665.294 L 326.573 539.181 C 328.084 537.059 328.801 535.781 331.134 534.951 z" fill="rgb(214,176,117)" transform="translate(0,0)"></path>
<path d="M 331.134 534.951 C 333.815 529.816 362.943 496.736 368.281 490.809 C 383.125 474.328 399.674 453.608 414.566 437.692 C 435.723 415.08 482.447 403.293 512.853 403.247 C 590.709 403.128 668.821 403.203 746.736 403.198 L 1219.44 403.231 L 1448.24 403.352 L 1518.66 403.273 C 1569.88 403.227 1614.04 403.574 1653.57 441.661 L 1651.06 442.55 C 1647.11 437.615 1645.05 436.251 1640.16 432.509 C 1639.59 431.992 1639.59 431.964 1638.9 431.624 C 1637.55 430.878 1636.06 430.147 1634.87 429.192 C 1634.2 428.725 1633.38 428.296 1632.97 427.653 C 1612.93 415.57 1590.36 408.317 1567.03 406.467 C 1548.24 404.947 1523.18 405.468 1503.92 405.475 L 1401.52 405.497 L 1025.23 405.019 L 671.115 405.022 L 573 404.985 C 538.173 404.963 504.373 402.673 470.608 410.884 C 422.919 422.482 410.942 444.365 381.225 478.977 C 380.17 479.794 380.279 479.7 379.727 480.906 C 372.132 489.023 361.167 501.262 354.248 509.971 C 353.666 510.491 353.783 510.413 353.375 511.091 C 348.276 516.871 336.645 531.041 331.134 534.951 z" fill="rgb(108,83,58)" transform="translate(0,0)"></path>
<path d="M 326.573 539.181 C 326.446 540.302 326.325 541.424 326.209 542.547 C 320.188 548.265 314.502 555.526 309.162 561.98 C 308.094 562.756 308.185 562.607 307.619 563.749 C 302.426 569.744 295.918 576.85 291.086 582.97 C 290.216 583.671 290.418 583.458 289.837 584.444 C 270.94 605.641 252.307 627.072 233.943 648.732 C 224.369 659.904 210.923 674.715 202.132 686.014 C 201.577 686.429 201.663 686.405 201.324 687.076 C 191.096 698.039 173.87 717.147 165.139 728.982 C 164.539 729.487 164.723 729.298 164.266 730.02 C 162.326 732.49 160.205 735.096 158.359 737.608 C 158.895 741.128 159.115 741.542 158.643 744.946 C 159.074 747.995 159.478 751.935 160.423 754.753 L 160.133 756.028 L 156.641 754.561 C 156.772 748.45 156.857 742.339 156.895 736.228 C 175.555 712.84 197.828 688.133 217.547 665.294 L 326.573 539.181 z" fill="rgb(78,59,39)" transform="translate(0,0)"></path>
<path d="M 158.359 737.608 C 158.895 741.128 159.115 741.542 158.643 744.946 C 157.549 742.071 157.868 740.604 158.359 737.608 z" fill="rgb(125,100,72)" transform="translate(0,0)"></path>
<path d="M 1653.52 444.993 L 1655.06 443.932 C 1659.3 449.48 1667.65 459.223 1672.65 464.031 L 1669.55 464.176 C 1668.21 461.747 1668.26 461.798 1666.35 459.875 C 1665.86 458.628 1665.95 458.798 1664.8 457.963 C 1662.62 455.317 1660.72 453.261 1658.38 450.785 C 1657.86 449.629 1657.94 449.784 1656.89 448.992 C 1655.78 447.645 1654.66 446.312 1653.52 444.993 z" fill="rgb(52,42,31)" transform="translate(0,0)"></path>
<path d="M 1732.47 537.058 L 1734.11 535.887 C 1736.55 539.14 1741.85 545.21 1744.59 548.073 L 1741.63 548.283 C 1739.67 544.144 1735.73 540.305 1732.47 537.058 z" fill="rgb(52,42,31)" transform="translate(0,0)"></path>
<path d="M 1678.6 474.02 L 1680.04 472.906 C 1682.46 476.096 1687.01 481.308 1689.75 484.332 L 1687.78 485.132 C 1686.18 482.628 1685.56 482.079 1683.49 479.952 C 1682.93 478.666 1683.05 478.78 1681.91 477.943 C 1680.83 476.619 1679.72 475.311 1678.6 474.02 z" fill="rgb(52,42,31)" transform="translate(0,0)"></path>
<path d="M 326.573 539.181 C 328.084 537.059 328.801 535.781 331.134 534.951 C 331.542 537.327 328.307 541.342 326.209 542.547 C 326.325 541.424 326.446 540.302 326.573 539.181 z" fill="rgb(174,136,89)" transform="translate(0,0)"></path>
<path d="M 1894.68 725.461 C 1893.9 723.543 1893.95 723.601 1893.86 721.491 C 1897.02 724.877 1899.18 727.69 1902.59 731.075 L 1899.64 731.044 C 1897.89 728.267 1897.15 727.716 1894.68 725.461 z" fill="rgb(52,42,31)" transform="translate(0,0)"></path>
<path d="M 1855.15 680.057 C 1855.29 678.954 1855.44 678.781 1855.87 677.504 C 1858.1 680.039 1860.22 682.633 1862.58 685.064 L 1859.48 685.127 C 1858.1 682.257 1857.55 682.133 1855.15 680.057 z" fill="rgb(52,42,31)" transform="translate(0,0)"></path>
<path d="M 1842.6 662.016 C 1843.67 663.127 1844.1 663.665 1845.05 664.888 L 1843.5 666.069 C 1841.03 665.153 1840.88 664.348 1839.49 662.058 L 1842.6 662.016 z" fill="rgb(174,136,89)" transform="translate(0,0)"></path>
<path d="M 1768.56 576.007 C 1769.67 577.121 1770.09 577.637 1771.07 578.868 L 1769.44 580.123 C 1767.55 579.317 1766.81 577.793 1765.45 576.11 L 1768.56 576.007 z" fill="rgb(174,136,89)" transform="translate(0,0)"></path>
<path d="M 1781.56 591.016 C 1782.65 592.126 1783.09 592.667 1784.05 593.89 L 1782.47 595.095 C 1779.98 594.109 1779.93 593.409 1778.72 590.947 L 1781.56 591.016 z" fill="rgb(174,136,89)" transform="translate(0,0)"></path>
<path d="M 1731.56 533.007 C 1732.65 534.105 1733.13 534.684 1734.11 535.887 L 1732.47 537.058 C 1730.42 536.294 1729.88 534.712 1728.64 532.84 L 1731.56 533.007 z" fill="rgb(174,136,89)" transform="translate(0,0)"></path>
<path d="M 1862.18 688.095 C 1862.31 686.997 1862.45 686.823 1862.85 685.545 C 1865.26 688.385 1866.92 690.361 1869.58 693.012 L 1866.69 692.984 C 1864.98 690.286 1864.71 690.247 1862.18 688.095 z" fill="rgb(52,42,31)" transform="translate(0,0)"></path>
<path d="M 1823.56 640.017 C 1824.58 641.072 1825.12 641.723 1826.05 642.863 L 1824.51 644.112 C 1822.09 642.639 1821.88 642.322 1820.71 639.954 L 1823.56 640.017 z" fill="rgb(174,136,89)" transform="translate(0,0)"></path>
<path d="M 1835.5 653.974 C 1836.63 655.106 1837.06 655.636 1838.06 656.886 L 1836.57 658.1 C 1833.95 657.029 1834 656.594 1833.14 653.956 L 1835.5 653.974 z" fill="rgb(174,136,89)" transform="translate(0,0)"></path>
<path d="M 1756.51 565.039 L 1758.08 563.926 C 1759.93 566.324 1761.59 568.072 1763.65 570.304 L 1761.65 571.518 C 1760.01 568.218 1759.21 567.745 1756.51 565.039 z" fill="rgb(52,42,31)" transform="translate(0,0)"></path>
<path d="M 1869.58 693.012 C 1870.65 694.105 1871.14 694.696 1872.1 695.891 L 1870.48 697.051 C 1868.54 695.977 1867.97 694.811 1866.69 692.984 L 1869.58 693.012 z" fill="rgb(174,136,89)" transform="translate(0,0)"></path>
<path d="M 1800.48 612.843 C 1801.53 613.976 1802.09 614.669 1803.04 615.886 L 1801.54 617.116 C 1798.98 616.029 1798.99 615.568 1798.31 612.921 L 1800.48 612.843 z" fill="rgb(174,136,89)" transform="translate(0,0)"></path>
<path d="M 1829.38 646.841 C 1830.5 647.977 1831.08 648.644 1832.09 649.872 L 1830.52 651.067 C 1828.3 650.26 1828.24 649.126 1827.17 646.946 L 1829.38 646.841 z" fill="rgb(174,136,89)" transform="translate(0,0)"></path>
<path d="M 1744.18 551.035 C 1744.29 549.983 1744.51 549.568 1744.88 548.479 C 1746.92 550.82 1748.39 552.754 1750.57 555.082 L 1747.69 554.938 C 1746.16 552.821 1746.1 552.751 1744.18 551.035 z" fill="rgb(52,42,31)" transform="translate(0,0)"></path>
<path d="M 1712.19 514.025 C 1712.3 512.98 1712.51 512.577 1712.86 511.493 C 1714.71 513.77 1716.55 515.985 1718.65 518.034 L 1715.72 518.019 C 1714.18 515.835 1714.14 515.78 1712.19 514.025 z" fill="rgb(52,42,31)" transform="translate(0,0)"></path>
<path d="M 1706.38 506.967 C 1706.31 505.985 1706.56 505.545 1706.86 504.512 C 1708.77 506.713 1710.59 508.954 1712.58 511.08 L 1709.52 511.117 C 1708.22 508.738 1708.28 508.817 1706.38 506.967 z" fill="rgb(52,42,31)" transform="translate(0,0)"></path>
<path d="M 1750.17 558.003 C 1750.3 556.957 1750.44 556.774 1750.83 555.56 C 1753.01 558.212 1754.2 559.658 1756.66 562.029 L 1753.68 562.29 C 1752.17 559.838 1752.24 559.878 1750.17 558.003 z" fill="rgb(52,42,31)" transform="translate(0,0)"></path>
<path d="M 1882.26 710.869 C 1882.25 709.954 1882.51 709.492 1882.84 708.552 L 1884.02 709.962 C 1885.47 711.749 1886.99 713.413 1888.62 715.031 L 1885.71 714.983 C 1884.24 712.836 1884.08 712.639 1882.26 710.869 z" fill="rgb(52,42,31)" transform="translate(0,0)"></path>
<path d="M 1794.18 609.017 C 1794.27 608.012 1794.5 607.57 1794.85 606.533 C 1796.67 608.711 1798.48 610.829 1800.48 612.843 L 1798.31 612.921 C 1796.89 611.5 1795.67 610.343 1794.18 609.017 z" fill="rgb(52,42,31)" transform="translate(0,0)"></path>
<path d="M 1695.33 494.116 C 1695.35 493.04 1695.54 492.672 1695.85 491.538 L 1697.05 492.942 C 1698.79 495.034 1699.65 496.079 1701.62 498.046 L 1698.7 497.952 C 1697.24 495.894 1697.14 495.769 1695.33 494.116 z" fill="rgb(52,42,31)" transform="translate(0,0)"></path>
<path d="M 1849.2 673.019 C 1849.32 671.968 1849.46 671.782 1849.84 670.56 L 1851.02 671.973 C 1852.47 673.75 1853.99 675.421 1855.58 677.074 L 1852.7 676.933 C 1851.18 674.81 1851.11 674.742 1849.2 673.019 z" fill="rgb(52,42,31)" transform="translate(0,0)"></path>
<path d="M 1718.48 521.029 L 1720.09 519.909 C 1721.75 522.079 1722.91 523.323 1724.77 525.312 L 1722.79 526.119 C 1721.18 523.662 1720.53 523.102 1718.48 521.029 z" fill="rgb(52,42,31)" transform="translate(0,0)"></path>
<path d="M 1724.77 525.312 C 1725.77 526.258 1726.02 526.575 1726.88 527.651 L 1725.91 530.059 C 1723.84 528.392 1723.97 528.491 1722.79 526.119 L 1724.77 525.312 z" fill="rgb(174,136,89)" transform="translate(0,0)"></path>
<path d="M 1870.48 697.051 L 1872.1 695.891 C 1873.81 698.181 1874.74 699.15 1876.73 701.2 L 1874.79 702.181 C 1873.1 699.506 1872.78 699.321 1870.48 697.051 z" fill="rgb(52,42,31)" transform="translate(0,0)"></path>
<path d="M 1689.75 484.332 C 1690.64 485.165 1690.82 485.372 1691.59 486.311 L 1690.99 489.077 C 1688.89 487.435 1689.01 487.56 1687.78 485.132 L 1689.75 484.332 z" fill="rgb(174,136,89)" transform="translate(0,0)"></path>
<path d="M 1806.45 623.158 L 1808.05 621.915 C 1809.63 623.989 1810.87 625.373 1812.61 627.274 L 1810.79 628.13 C 1809.07 625.545 1808.74 625.332 1806.45 623.158 z" fill="rgb(52,42,31)" transform="translate(0,0)"></path>
<path d="M 1788.61 599.042 C 1789.09 599.668 1789.56 600.294 1790.03 600.919 L 1788.55 602.096 C 1787.41 601.668 1786.77 601.246 1786.16 600.182 L 1785.53 599.172 L 1788.61 599.042 z" fill="rgb(174,136,89)" transform="translate(0,0)"></path>
<path d="M 1888.62 715.031 C 1889.1 715.649 1889.58 716.266 1890.06 716.884 L 1888.56 718.065 C 1886.6 717.376 1886.6 716.794 1885.71 714.983 L 1888.62 715.031 z" fill="rgb(174,136,89)" transform="translate(0,0)"></path>
<path d="M 1701.62 498.046 C 1702.09 498.665 1702.56 499.285 1703.03 499.905 L 1701.49 501.141 C 1699.62 500.356 1699.57 499.732 1698.7 497.952 L 1701.62 498.046 z" fill="rgb(174,136,89)" transform="translate(0,0)"></path>
<path d="M 1817.63 633.053 C 1818.1 633.675 1818.56 634.297 1819.03 634.919 L 1817.47 636.148 C 1815.62 635.351 1815.5 634.669 1814.58 632.923 L 1817.63 633.053 z" fill="rgb(174,136,89)" transform="translate(0,0)"></path>
<path d="M 1672.65 464.031 C 1673.12 464.657 1673.6 465.283 1674.07 465.909 L 1672.43 467.128 C 1671.37 466.674 1670.75 466.199 1670.17 465.183 L 1669.55 464.176 L 1672.65 464.031 z" fill="rgb(174,136,89)" transform="translate(0,0)"></path>
<path d="M 1678.63 471.034 C 1679.1 471.658 1679.57 472.282 1680.04 472.906 L 1678.6 474.02 C 1676.65 473.405 1676.57 472.877 1675.54 471.172 L 1678.63 471.034 z" fill="rgb(174,136,89)" transform="translate(0,0)"></path>
<path d="M 1775.62 584.031 C 1776.1 584.658 1776.58 585.286 1777.05 585.914 L 1775.52 587.109 C 1773.61 586.365 1773.58 585.761 1772.71 583.968 L 1775.62 584.031 z" fill="rgb(174,136,89)" transform="translate(0,0)"></path>
<path d="M 1806.63 620.05 C 1807.1 620.671 1807.58 621.293 1808.05 621.915 L 1806.45 623.158 C 1804.64 622.355 1804.55 621.725 1803.68 620.002 L 1806.63 620.05 z" fill="rgb(174,136,89)" transform="translate(0,0)"></path>
<path d="M 1672.43 467.128 L 1674.07 465.909 C 1675.8 468.197 1676.59 469.017 1678.63 471.034 L 1675.54 471.172 C 1674.23 468.845 1674.31 468.908 1672.43 467.128 z" fill="rgb(52,42,31)" transform="translate(0,0)"></path>
<path d="M 1769.44 580.123 L 1771.07 578.868 C 1772.82 581.236 1773.53 581.964 1775.62 584.031 L 1772.71 583.968 C 1771.23 581.828 1771.23 581.808 1769.44 580.123 z" fill="rgb(52,42,31)" transform="translate(0,0)"></path>
<path d="M 1845.05 664.888 C 1846.72 667.094 1847.65 668.09 1849.57 670.069 L 1846.71 669.994 C 1845.27 667.866 1845.22 667.78 1843.5 666.069 L 1845.05 664.888 z" fill="rgb(52,42,31)" transform="translate(0,0)"></path>
<path d="M 1784.05 593.89 C 1785.8 596.251 1786.55 597.008 1788.61 599.042 L 1785.53 599.172 C 1784.24 596.844 1784.32 596.898 1782.47 595.095 L 1784.05 593.89 z" fill="rgb(52,42,31)" transform="translate(0,0)"></path>
<path d="M 1718.65 518.034 C 1719.13 518.659 1719.61 519.284 1720.09 519.909 L 1718.48 521.029 C 1717.55 520.54 1717.06 519.948 1716.47 519.089 L 1715.72 518.019 L 1718.65 518.034 z" fill="rgb(174,136,89)" transform="translate(0,0)"></path>
<path d="M 1756.66 562.029 C 1757.13 562.661 1757.6 563.294 1758.08 563.926 L 1756.51 565.039 C 1755.01 564.253 1754.79 563.657 1753.68 562.29 L 1756.66 562.029 z" fill="rgb(174,136,89)" transform="translate(0,0)"></path>
<path d="M 1790.03 600.919 C 1791.65 603.011 1792.74 604.201 1794.57 606.074 L 1791.71 605.97 C 1790.3 603.868 1790.25 603.786 1788.55 602.096 L 1790.03 600.919 z" fill="rgb(52,42,31)" transform="translate(0,0)"></path>
<path d="M 1653.57 441.661 C 1654.06 442.418 1654.56 443.175 1655.06 443.932 L 1653.52 444.993 C 1651.78 444.447 1651.79 444.129 1651.06 442.55 L 1653.57 441.661 z" fill="rgb(174,136,89)" transform="translate(0,0)"></path>
<path d="M 1819.03 634.919 C 1820.73 637.135 1821.59 638.045 1823.56 640.017 L 1820.71 639.954 C 1819.25 637.843 1819.24 637.814 1817.47 636.148 L 1819.03 634.919 z" fill="rgb(52,42,31)" transform="translate(0,0)"></path>
<path d="M 1775.52 587.109 L 1777.05 585.914 C 1778.73 588.102 1779.62 589.059 1781.56 591.016 L 1778.72 590.947 C 1777.3 588.893 1777.21 588.771 1775.52 587.109 z" fill="rgb(52,42,31)" transform="translate(0,0)"></path>
<path d="M 1838.06 656.886 C 1839.79 659.179 1840.57 659.994 1842.6 662.016 L 1839.49 662.058 C 1838.28 659.791 1838.35 659.865 1836.57 658.1 L 1838.06 656.886 z" fill="rgb(52,42,31)" transform="translate(0,0)"></path>
<path d="M 1725.91 530.059 L 1726.88 527.651 C 1728.66 530.001 1729.51 530.918 1731.56 533.007 L 1728.64 532.84 C 1727.43 531.192 1727.5 531.196 1725.91 530.059 z" fill="rgb(52,42,31)" transform="translate(0,0)"></path>
<path d="M 1877.11 704.797 L 1878.24 703.026 C 1879.85 705.195 1880.71 706.145 1882.57 708.074 L 1879.71 708.003 C 1878.52 706.179 1878.63 706.201 1877.11 704.797 z" fill="rgb(52,42,31)" transform="translate(0,0)"></path>
<path d="M 1876.73 701.2 C 1877.23 701.809 1877.74 702.418 1878.24 703.026 L 1877.11 704.797 C 1876.09 703.758 1875.64 703.334 1874.79 702.181 L 1876.73 701.2 z" fill="rgb(174,136,89)" transform="translate(0,0)"></path>
<path d="M 1862.58 685.064 L 1862.85 685.545 C 1862.45 686.823 1862.31 686.997 1862.18 688.095 C 1860.52 687.271 1860.56 686.828 1859.48 685.127 L 1862.58 685.064 z" fill="rgb(174,136,89)" transform="translate(0,0)"></path>
<path d="M 1703.03 499.905 C 1704.41 501.741 1705.02 502.429 1706.57 504.093 L 1703.66 504.046 C 1703.02 503.145 1702.24 501.958 1701.49 501.141 L 1703.03 499.905 z" fill="rgb(52,42,31)" transform="translate(0,0)"></path>
<path d="M 1763.65 570.304 C 1764.04 570.762 1764.44 571.221 1764.84 571.68 L 1764.15 573.807 C 1763.04 572.871 1762.6 572.542 1761.65 571.518 L 1763.65 570.304 z" fill="rgb(174,136,89)" transform="translate(0,0)"></path>
<path d="M 1832.09 649.872 C 1833.51 651.843 1833.86 652.232 1835.5 653.974 L 1833.14 653.956 C 1832.28 652.98 1831.41 652.017 1830.52 651.067 L 1832.09 649.872 z" fill="rgb(52,42,31)" transform="translate(0,0)"></path>
<path d="M 1712.58 511.08 L 1712.86 511.493 C 1712.51 512.577 1712.3 512.98 1712.19 514.025 C 1710.62 513.344 1710.37 512.548 1709.52 511.117 L 1712.58 511.08 z" fill="rgb(174,136,89)" transform="translate(0,0)"></path>
<path d="M 1695.56 491.108 L 1695.85 491.538 C 1695.54 492.672 1695.35 493.04 1695.33 494.116 C 1694.51 493.515 1693.94 492.809 1693.33 491.986 L 1692.47 490.845 L 1695.56 491.108 z" fill="rgb(174,136,89)" transform="translate(0,0)"></path>
<path d="M 1888.56 718.065 L 1890.06 716.884 C 1891.49 718.811 1891.97 719.339 1893.6 721.071 L 1891.1 720.938 C 1890.25 719.961 1889.44 719.016 1888.56 718.065 z" fill="rgb(52,42,31)" transform="translate(0,0)"></path>
<path d="M 1855.58 677.074 L 1855.87 677.504 C 1855.44 678.781 1855.29 678.954 1855.15 680.057 C 1853.63 679.329 1853.42 678.415 1852.7 676.933 L 1855.58 677.074 z" fill="rgb(174,136,89)" transform="translate(0,0)"></path>
<path d="M 1750.57 555.082 L 1750.83 555.56 C 1750.44 556.774 1750.3 556.957 1750.17 558.003 C 1748.55 557.318 1748.44 556.477 1747.69 554.938 L 1750.57 555.082 z" fill="rgb(174,136,89)" transform="translate(0,0)"></path>
<path d="M 1794.57 606.074 L 1794.85 606.533 C 1794.5 607.57 1794.27 608.012 1794.18 609.017 C 1792.56 608.319 1792.46 607.511 1791.71 605.97 L 1794.57 606.074 z" fill="rgb(174,136,89)" transform="translate(0,0)"></path>
<path d="M 1849.57 670.069 L 1849.84 670.56 C 1849.46 671.782 1849.32 671.968 1849.2 673.019 C 1847.57 672.323 1847.47 671.541 1846.71 669.994 L 1849.57 670.069 z" fill="rgb(174,136,89)" transform="translate(0,0)"></path>
<path d="M 1812.61 627.274 C 1812.94 627.662 1813.27 628.05 1813.6 628.438 L 1812.94 630.931 C 1811.7 629.573 1811.52 629.561 1810.79 628.13 L 1812.61 627.274 z" fill="rgb(174,136,89)" transform="translate(0,0)"></path>
<path d="M 1893.6 721.071 L 1893.86 721.491 C 1893.95 723.601 1893.9 723.543 1894.68 725.461 C 1893.07 724.561 1892.72 724.064 1891.89 722.418 L 1891.1 720.938 L 1893.6 721.071 z" fill="rgb(174,136,89)" transform="translate(0,0)"></path>
<path d="M 1764.84 571.68 C 1766.27 573.557 1766.95 574.35 1768.56 576.007 L 1765.45 576.11 C 1765.1 575.421 1764.69 574.427 1764.15 573.807 L 1764.84 571.68 z" fill="rgb(52,42,31)" transform="translate(0,0)"></path>
<path d="M 1744.59 548.073 L 1744.88 548.479 C 1744.51 549.568 1744.29 549.983 1744.18 551.035 C 1742.53 550.297 1742.67 549.981 1741.63 548.283 L 1744.59 548.073 z" fill="rgb(174,136,89)" transform="translate(0,0)"></path>
<path d="M 1882.57 708.074 L 1882.84 708.552 C 1882.51 709.492 1882.25 709.954 1882.26 710.869 C 1880.52 710.38 1880.47 709.567 1879.71 708.003 L 1882.57 708.074 z" fill="rgb(174,136,89)" transform="translate(0,0)"></path>
<path d="M 1706.57 504.093 L 1706.86 504.512 C 1706.56 505.545 1706.31 505.985 1706.38 506.967 C 1705.49 506.509 1705.02 505.914 1704.44 505.103 L 1703.66 504.046 L 1706.57 504.093 z" fill="rgb(174,136,89)" transform="translate(0,0)"></path>
<path d="M 1902.59 731.075 L 1903.16 731.984 C 1902.77 733.489 1902.6 733.535 1902.98 734.879 C 1901.34 733.367 1900.98 732.844 1899.64 731.044 L 1902.59 731.075 z" fill="rgb(174,136,89)" transform="translate(0,0)"></path>
<path d="M 1681.91 477.943 C 1683.05 478.78 1682.93 478.666 1683.49 479.952 C 1682.38 479.435 1682.36 479.177 1681.91 477.943 z" fill="rgb(174,136,89)" transform="translate(0,0)"></path>
<path d="M 309.162 561.98 C 309.032 563.479 309.099 563.496 307.619 563.749 C 308.185 562.607 308.094 562.756 309.162 561.98 z" fill="rgb(174,136,89)" transform="translate(0,0)"></path>
<path d="M 1902.98 734.879 C 1902.6 733.535 1902.77 733.489 1903.16 731.984 C 1904.23 733.136 1904.27 733.248 1905.07 734.645 C 1906.86 742.663 1905.92 757.712 1905.76 766.429 C 1905.09 804.482 1914.29 833.359 1876.11 856.509 C 1847.84 873.385 1833.69 868.18 1801.78 868.546 C 1791.46 868.664 1789.5 868.406 1779.48 871.845 C 1771.15 874.705 1757.67 891.42 1754.85 893.123 C 1749.53 901.655 1744.5 910.367 1739.78 919.244 L 1738.45 918.418 C 1733.12 917.032 1691.5 917.392 1683.25 917.378 L 1540.06 917.379 L 943.951 917.591 L 486.795 917.337 L 375.355 917.315 C 366.066 917.316 331.397 916.665 323.878 918.393 C 360.663 999.952 379.53 1122.6 378.952 1211.94 C 379.831 1215.71 380.305 1216.98 379.654 1220.77 C 381.172 1325.28 375.669 1449.79 342.861 1550.08 C 340.755 1556.52 332.824 1576.28 329.292 1581.2 L 328.606 1578.23 C 376.951 1493.34 381.755 1270.67 376.076 1172.09 C 373.671 1126.24 367.849 1080.64 358.659 1035.65 C 348.978 990.167 332.378 926.27 303.889 888.552 C 297.668 880.316 289.942 874.654 281.368 869.096 C 245.373 867.129 200.548 876.89 172.84 849.254 C 155.499 831.957 156.36 812.58 156.362 790.088 C 156.365 778.245 156.458 766.402 156.641 754.561 L 160.133 756.028 L 160.423 754.753 C 180.561 790.813 214.257 787.862 249.669 787.97 L 324.218 788.077 L 567.998 788.064 L 1510.55 788.071 L 1741.08 788.273 L 1803.72 788.264 C 1838.87 788.2 1878.39 790.747 1899.5 756.004 L 1902.39 751.242 C 1903.47 745.493 1905.38 740.209 1902.98 734.879 z" fill="rgb(214,176,117)" transform="translate(0,0)"></path>
<path d="M 286.009 869.51 L 1780.64 869.226 C 1774.09 873.057 1755.64 885.597 1754.85 893.123 C 1749.53 901.655 1744.5 910.367 1739.78 919.244 L 1738.45 918.418 C 1733.12 917.032 1691.5 917.392 1683.25 917.378 L 1540.06 917.379 L 943.951 917.591 L 486.795 917.337 L 375.355 917.315 C 366.066 917.316 331.397 916.665 323.878 918.393 C 313.448 897.4 305.487 883.065 286.009 869.51 z" fill="rgb(174,136,89)" transform="translate(0,0)"></path>
<path d="M 156.641 754.561 L 160.133 756.028 L 159.528 756.802 C 157.619 765.158 158.114 812.536 159.772 821.205 C 160.92 827.28 163.216 833.081 166.536 838.296 C 183.338 864.719 210.999 867.994 239.527 866.904 C 250.662 867.419 269.379 867.403 280.314 866.807 C 302.088 868.029 335.453 867.076 357.78 867.092 L 520.031 866.802 L 987.543 866.886 L 1535.1 866.851 L 1737.57 866.999 C 1771.6 867.007 1805.99 867.476 1840 866.867 C 1852.02 866.652 1863.57 861.937 1873.9 855.945 L 1876.11 856.509 C 1847.84 873.385 1833.69 868.18 1801.78 868.546 C 1791.46 868.664 1789.5 868.406 1779.48 871.845 C 1771.15 874.705 1757.67 891.42 1754.85 893.123 C 1755.64 885.597 1774.09 873.057 1780.64 869.226 L 286.009 869.51 C 305.487 883.065 313.448 897.4 323.878 918.393 C 360.663 999.952 379.53 1122.6 378.952 1211.94 C 379.831 1215.71 380.305 1216.98 379.654 1220.77 C 381.172 1325.28 375.669 1449.79 342.861 1550.08 C 340.755 1556.52 332.824 1576.28 329.292 1581.2 L 328.606 1578.23 C 376.951 1493.34 381.755 1270.67 376.076 1172.09 C 373.671 1126.24 367.849 1080.64 358.659 1035.65 C 348.978 990.167 332.378 926.27 303.889 888.552 C 297.668 880.316 289.942 874.654 281.368 869.096 C 245.373 867.129 200.548 876.89 172.84 849.254 C 155.499 831.957 156.36 812.58 156.362 790.088 C 156.365 778.245 156.458 766.402 156.641 754.561 z" fill="rgb(78,59,39)" transform="translate(0,0)"></path>
<path d="M 378.952 1211.94 C 379.831 1215.71 380.305 1216.98 379.654 1220.77 C 378.081 1218.22 378.772 1215 378.952 1211.94 z" fill="rgb(174,136,89)" transform="translate(0,0)"></path>
<path d="M 1902.98 734.879 C 1902.6 733.535 1902.77 733.489 1903.16 731.984 C 1904.23 733.136 1904.27 733.248 1905.07 734.645 C 1906.86 742.663 1905.92 757.712 1905.76 766.429 C 1905.09 804.482 1914.29 833.359 1876.11 856.509 L 1876.9 853.686 C 1880.64 852.224 1886.92 846.813 1889.84 843.877 C 1895.63 838.01 1899.83 830.768 1902.06 822.831 C 1905.67 809.79 1904.07 766.661 1903.92 751.196 C 1897.54 764.082 1892.5 770.695 1879.81 778.24 C 1865.46 786.772 1847.44 790.58 1830.76 790.7 C 1785.46 791.027 1739.83 790.719 1694.52 790.621 L 1436.91 790.265 L 657.348 790.286 L 325.946 790.39 L 251.948 790.191 C 216.123 790.046 179.717 793.657 159.528 756.802 L 160.133 756.028 L 160.423 754.753 C 180.561 790.813 214.257 787.862 249.669 787.97 L 324.218 788.077 L 567.998 788.064 L 1510.55 788.071 L 1741.08 788.273 L 1803.72 788.264 C 1838.87 788.2 1878.39 790.747 1899.5 756.004 L 1902.39 751.242 C 1903.47 745.493 1905.38 740.209 1902.98 734.879 z" fill="rgb(108,83,58)" transform="translate(0,0)"></path>
<path d="M 1902.98 734.879 C 1902.6 733.535 1902.77 733.489 1903.16 731.984 C 1904.23 733.136 1904.27 733.248 1905.07 734.645 C 1904.98 736.965 1905.04 751.321 1904.52 752.15 C 1903.83 752.111 1902.94 751.527 1902.39 751.242 C 1903.47 745.493 1905.38 740.209 1902.98 734.879 z" fill="rgb(52,42,31)" transform="translate(0,0)"></path>
<path d="M 239.527 866.904 C 246.292 865.663 273.752 865.426 280.314 866.807 C 269.379 867.403 250.662 867.419 239.527 866.904 z" fill="rgb(174,136,89)" transform="translate(0,0)"></path>
<path d="M 536.813 1076.37 C 539.779 1069.91 551.784 1059.6 557.55 1054.73 C 595.236 1022.59 640.52 1000.63 689.092 990.931 L 677.082 1000.68 C 676.186 1002.28 675.327 1003.18 673.735 1004.13 C 671.076 1007.04 667.598 1009.91 667.325 1013.66 C 619.682 1073.7 633.618 1136.31 627.375 1206.97 C 623.3 1253.09 612.118 1376.1 563.808 1396.19 C 550.115 1405.88 493.678 1403.35 476.21 1399.43 L 478.54 1398.5 C 477.898 1398.2 476.808 1397.73 476.283 1397.29 C 472.088 1393.75 474.116 1331.37 474.145 1322.36 C 486.588 1313.6 507.13 1318.49 510.725 1305.13 C 518.788 1292.09 521.654 1284.22 526.73 1269.83 C 539.829 1214.38 538.539 1133.87 534.801 1077.23 L 536.813 1076.37 z" fill="rgb(174,136,89)" transform="translate(0,0)"></path>
<path d="M 536.813 1076.37 C 537.07 1087.25 538.811 1098.34 538.925 1108.76 C 539.396 1152.14 539.433 1196.15 533.389 1239.19 C 531.992 1249.13 531.503 1260.3 527.58 1270.06 L 526.73 1269.83 C 539.829 1214.38 538.539 1133.87 534.801 1077.23 L 536.813 1076.37 z" fill="rgb(78,59,39)" transform="translate(0,0)"></path>
<path d="M 478.54 1398.5 C 500.055 1401.78 523.289 1401.38 544.996 1400.19 C 549.776 1399.93 562.227 1395.29 563.808 1396.19 C 550.115 1405.88 493.678 1403.35 476.21 1399.43 L 478.54 1398.5 z" fill="rgb(108,83,58)" transform="translate(0,0)"></path>
<path d="M 673.735 1004.13 C 674.486 1002.22 675.182 1001.5 677.082 1000.68 C 676.186 1002.28 675.327 1003.18 673.735 1004.13 z" fill="rgb(125,100,72)" transform="translate(0,0)"></path>
<path d="M 1384.17 994.037 C 1421.78 1001.74 1457.21 1017.66 1487.94 1040.66 C 1488.63 1040.98 1488.62 1041 1489.17 1041.51 L 1494.94 1045.87 C 1495.87 1047.04 1495.87 1046.87 1497.41 1047.69 L 1499.81 1049.56 C 1500.74 1050.76 1500.59 1050.65 1501.87 1051.33 L 1506.24 1054.76 C 1508.04 1056.1 1508.7 1056.48 1510.01 1058.23 C 1516.16 1064.09 1522.1 1069.59 1527.69 1076.02 C 1528.49 1076.67 1528.95 1077.27 1529.66 1078.07 L 1530.96 1082.19 C 1528.51 1090.57 1528.73 1117.54 1528.91 1127.1 C 1529.87 1178.61 1527.14 1267.92 1561.66 1309.05 C 1563 1309.86 1563.1 1309.91 1563.92 1311.29 C 1572.73 1316.72 1580.74 1315.76 1590.77 1321.65 L 1590.93 1398.23 C 1582.82 1399.83 1579.57 1400.07 1572.2 1400.58 C 1565.13 1401.07 1536.05 1400.04 1531.37 1401.58 C 1503.49 1401.89 1483.67 1371.49 1475.7 1348.07 C 1457.64 1302.25 1450.33 1239.48 1447.37 1190.49 C 1445.22 1155.03 1446.23 1127.85 1440.67 1092.17 C 1440.48 1091.77 1436.2 1075.32 1435.58 1073.26 C 1431.8 1061.14 1427.07 1049.33 1421.42 1037.96 C 1421.54 1031.82 1411.17 1019.01 1407.37 1013.96 C 1406.08 1013.27 1406.22 1013.46 1405.63 1012.19 L 1398.48 1005.1 C 1397.47 1004.5 1397.66 1004.71 1396.98 1003.83 L 1384.17 994.037 z" fill="rgb(174,136,89)" transform="translate(0,0)"></path>
<path d="M 1440.67 1092.17 L 1441.79 1092.13 C 1445.42 1107.8 1446.4 1121.51 1446.85 1137.6 C 1448.1 1182.1 1450.71 1226.96 1457.61 1270.96 C 1460.39 1288.31 1464.16 1305.48 1468.89 1322.4 C 1470.42 1327.71 1476.28 1344.48 1475.7 1348.07 C 1457.64 1302.25 1450.33 1239.48 1447.37 1190.49 C 1445.22 1155.03 1446.23 1127.85 1440.67 1092.17 z" fill="rgb(108,83,58)" transform="translate(0,0)"></path>
<path d="M 1405.63 1012.19 C 1407.04 1012.64 1406.93 1012.61 1407.37 1013.96 C 1406.08 1013.27 1406.22 1013.46 1405.63 1012.19 z" fill="rgb(174,136,89)" transform="translate(0,0)"></path>
<path d="M 1506.24 1054.76 C 1508.04 1056.1 1508.7 1056.48 1510.01 1058.23 C 1507.63 1057.47 1507.59 1056.79 1506.24 1054.76 z" fill="rgb(108,83,58)" transform="translate(0,0)"></path>
<path d="M 1535.06 1081.82 C 1599.16 1153.62 1588.45 1247.72 1593.77 1336 C 1593.88 1346.6 1593.91 1357.02 1593.85 1367.65 C 1593.37 1453.23 1599.85 1537.26 1623.41 1620.1 C 1637.55 1669.79 1660 1729.24 1721.13 1732.98 C 1740.66 1734.17 1763.9 1735.06 1779.82 1722.25 C 1780.66 1722.04 1780.51 1722.08 1781.23 1721.55 L 1787.66 1716.59 L 1789.19 1717.34 C 1775.44 1730.01 1761.77 1735.01 1743.3 1735.14 C 1710.9 1735.38 1688.03 1732.52 1664.08 1708.54 C 1609.65 1654.07 1592.18 1474.44 1591.96 1400.27 C 1574.55 1402.83 1549.24 1402.62 1531.37 1401.58 C 1536.05 1400.04 1565.13 1401.07 1572.2 1400.58 C 1579.57 1400.07 1582.82 1399.83 1590.93 1398.23 L 1590.77 1321.65 C 1580.74 1315.76 1572.73 1316.72 1563.92 1311.29 C 1563.1 1309.91 1563 1309.86 1561.66 1309.05 C 1527.14 1267.92 1529.87 1178.61 1528.91 1127.1 C 1528.73 1117.54 1528.51 1090.57 1530.96 1082.19 L 1535.06 1081.82 z" fill="rgb(108,83,58)" transform="translate(0,0)"></path>
<path d="M 1532.26 1082.53 C 1539.5 1087.51 1549.83 1105.09 1554.66 1112.74 C 1594.81 1176.37 1585.89 1248.39 1590.87 1319.35 C 1581.47 1314.4 1568.25 1314.14 1561.7 1306 C 1524.85 1260.18 1529.81 1138.92 1532.26 1082.53 z" fill="rgb(255,255,255)" transform="translate(0,0)"></path>
<path d="M 534.801 1077.23 C 538.539 1133.87 539.829 1214.38 526.73 1269.83 C 521.654 1284.22 518.788 1292.09 510.725 1305.13 C 501.659 1314.99 490.175 1313.72 476.051 1317.66 C 474.625 1316.35 475.027 1317.02 474.511 1315.89 C 476.355 1303.05 475.793 1286.14 476.431 1272.95 C 477.787 1244.94 479.188 1209.39 484.807 1182.12 C 487.722 1167.86 491.809 1153.87 497.028 1140.29 C 499.279 1134.57 504.608 1123.41 506.168 1118.42 L 506.57 1117.1 C 510.372 1111.97 514.894 1103.82 517.869 1098.17 C 518.293 1097.86 532.874 1079.56 534.801 1077.23 z" fill="rgb(255,255,255)" transform="translate(0,0)"></path>
<path d="M 907.752 961.377 C 966.129 958.186 1024.61 957.233 1083.06 958.519 C 1097.81 958.729 1112.53 959.819 1126.97 960.003 C 1133.34 959.803 1134.65 960.002 1141.03 961.069 L 1149.32 961.273 C 1151.14 961.158 1151.19 960.965 1152.61 961.872 C 1164.14 962.406 1175.33 963.786 1186.33 964.315 C 1187.4 964.992 1187.39 964.84 1188.83 964.815 L 1198.36 965.315 C 1199.3 965.355 1199.21 965.318 1200.04 965.78 C 1228.1 967.91 1255.77 972.37 1283.68 975.24 C 1372.9 984.416 1467.98 1002.52 1529.52 1074.85 C 1531.43 1077.12 1533.28 1079.45 1535.06 1081.82 L 1530.96 1082.19 L 1529.66 1078.07 C 1528.95 1077.27 1528.49 1076.67 1527.69 1076.02 C 1522.1 1069.59 1516.16 1064.09 1510.01 1058.23 C 1508.7 1056.48 1508.04 1056.1 1506.24 1054.76 L 1501.87 1051.33 C 1500.59 1050.65 1500.74 1050.76 1499.81 1049.56 L 1497.41 1047.69 C 1495.87 1046.87 1495.87 1047.04 1494.94 1045.87 L 1489.17 1041.51 C 1488.62 1041 1488.63 1040.98 1487.94 1040.66 C 1457.21 1017.66 1421.78 1001.74 1384.17 994.037 L 1396.98 1003.83 C 1397.66 1004.71 1397.47 1004.5 1398.48 1005.1 L 1405.63 1012.19 C 1406.22 1013.46 1406.08 1013.27 1407.37 1013.96 C 1411.17 1019.01 1421.54 1031.82 1421.42 1037.96 C 1386.9 979.079 1346.75 984.613 1284.62 976.997 C 1238.86 970.962 1192.94 966.276 1146.9 962.943 C 996.005 953.417 844.507 962.36 695.778 989.573 L 695.235 988.186 C 698.612 987.209 704.306 986.377 707.94 985.724 C 708.82 985.452 708.687 985.477 709.612 985.476 L 719.939 983.712 C 720.816 983.455 720.698 983.477 721.616 983.474 C 746.272 979.081 771.068 975.509 795.962 972.765 C 796.832 972.359 796.652 972.409 797.615 972.351 L 803.984 971.81 C 804.873 971.365 804.675 971.421 805.674 971.373 L 811.974 970.79 C 812.861 970.378 812.672 970.429 813.654 970.389 L 829.962 968.773 C 830.841 968.389 830.661 968.435 831.625 968.4 C 840.929 967.615 849.698 966.474 859.196 965.791 C 860.589 965.799 860.59 965.947 861.614 965.29 L 869.204 964.803 C 870.664 964.839 870.629 964.976 871.771 964.347 L 880.008 963.841 C 880.927 963.372 880.717 963.431 881.754 963.393 L 906.011 961.851 C 906.87 961.377 906.776 961.42 907.752 961.377 z" fill="rgb(78,59,39)" transform="translate(0,0)"></path>
<path d="M 1126.97 960.003 C 1133.34 959.803 1134.65 960.002 1141.03 961.069 C 1134.91 961.371 1133.05 961.182 1126.97 960.003 z" fill="rgb(174,136,89)" transform="translate(0,0)"></path>
<path d="M 1149.32 961.273 C 1151.14 961.158 1151.19 960.965 1152.61 961.872 C 1150.78 962.012 1150.78 962.217 1149.32 961.273 z" fill="rgb(174,136,89)" transform="translate(0,0)"></path>
<path d="M 510.725 1305.13 C 507.13 1318.49 486.588 1313.6 474.145 1322.36 C 474.116 1331.37 472.088 1393.75 476.283 1397.29 C 476.808 1397.73 477.898 1398.2 478.54 1398.5 L 476.21 1399.43 L 474.673 1399.75 C 472.865 1406.16 473.037 1428.58 472.735 1436.44 C 472.263 1448.72 471.335 1461.65 470.528 1473.94 C 466.552 1534.54 446.761 1649.63 412.471 1698.39 C 404.921 1709.35 394.981 1718.45 383.4 1725 C 360.674 1737.89 350.831 1733.99 326.323 1735.23 C 293.715 1736.89 272.85 1720.36 256.734 1693.07 C 249.399 1680.65 246.29 1663.29 250.725 1649.33 C 255.781 1632.55 267.736 1619.14 283.353 1611.43 C 307.334 1600.46 314.522 1604.94 328.606 1578.23 L 329.292 1581.2 C 324.296 1586.91 321.239 1594.38 315.488 1599.54 C 305.914 1608.13 285.719 1610.08 273.02 1619.67 C 261.005 1628.75 252.711 1643.59 251.001 1658.56 C 249.038 1675.74 256.649 1692.89 267.387 1705.93 C 278.704 1719.69 295.251 1731.4 313.368 1733.07 C 343.422 1735.84 372.406 1734.4 396.178 1713.98 C 449.241 1668.4 467.487 1511.37 470.532 1443.11 C 471.6 1421.16 472.082 1399.19 471.978 1377.22 C 471.943 1357.78 471.344 1335.55 472.876 1316.46 L 474.511 1315.89 C 475.027 1317.02 474.625 1316.35 476.051 1317.66 C 490.175 1313.72 501.659 1314.99 510.725 1305.13 z" fill="rgb(78,59,39)" transform="translate(0,0)"></path>
<path d="M 1738.45 918.418 L 1739.78 919.244 C 1718.66 969.377 1705.85 1024.02 1697.86 1077.72 C 1679.24 1203.04 1678.61 1440.27 1725.86 1556.74 C 1730.78 1568.86 1736.77 1580.89 1745.09 1591.06 L 1743.75 1593.05 C 1709.29 1562.43 1691.02 1416.66 1688.52 1371.99 C 1687.05 1345.79 1684.55 1307.84 1684.77 1281.15 C 1685.34 1261.52 1685.17 1232.44 1684.78 1212.6 C 1683.97 1135.17 1704.51 988.268 1738.45 918.418 z" fill="rgb(125,100,72)" transform="translate(0,0)"></path>
<path d="M 517.869 1098.17 C 518.11 1095.56 518.861 1094.93 520.612 1092.48 C 561.324 1035.52 627.649 1000.18 695.235 988.186 L 695.778 989.573 C 683.964 995.742 676.097 1003.81 667.325 1013.66 C 667.598 1009.91 671.076 1007.04 673.735 1004.13 C 675.327 1003.18 676.186 1002.28 677.082 1000.68 L 689.092 990.931 C 640.52 1000.63 595.236 1022.59 557.55 1054.73 C 551.784 1059.6 539.779 1069.91 536.813 1076.37 L 534.801 1077.23 C 532.874 1079.56 518.293 1097.86 517.869 1098.17 z" fill="rgb(52,42,31)" transform="translate(0,0)"></path>
<path d="M 472.876 1316.46 C 472.511 1308.38 473.766 1291.25 474.017 1282.42 C 475.23 1239.78 477.819 1194.17 490.322 1153.2 C 492.15 1147.21 501.788 1119.62 506.57 1117.1 L 506.168 1118.42 C 504.608 1123.41 499.279 1134.57 497.028 1140.29 C 491.809 1153.87 487.722 1167.86 484.807 1182.12 C 479.188 1209.39 477.787 1244.94 476.431 1272.95 C 475.793 1286.14 476.355 1303.05 474.511 1315.89 L 472.876 1316.46 z" fill="rgb(125,100,72)" transform="translate(0,0)"></path>
<path d="M 1745.09 1591.06 C 1760.01 1608.14 1764.04 1600.63 1780.28 1609.32 C 1827.53 1634.62 1826.68 1682.46 1789.19 1717.34 L 1787.66 1716.59 C 1811.06 1694.22 1826.61 1661.9 1804.62 1632.12 C 1804.23 1631.43 1804.34 1631.49 1803.77 1630.94 C 1787.45 1611.77 1776.84 1610.11 1754.2 1602.75 C 1753.4 1602.49 1745.69 1594.72 1743.75 1593.05 L 1745.09 1591.06 z" fill="rgb(78,59,39)" transform="translate(0,0)"></path>
<path d="M 1684.77 1281.15 C 1683.55 1273.35 1683.53 1220.37 1684.78 1212.6 C 1685.17 1232.44 1685.34 1261.52 1684.77 1281.15 z" fill="rgb(174,136,89)" transform="translate(0,0)"></path>
<path d="M 869.204 964.803 C 870.348 964.123 870.38 964.245 871.771 964.347 C 870.629 964.976 870.664 964.839 869.204 964.803 z" fill="rgb(174,136,89)" transform="translate(0,0)"></path>
<path d="M 1186.33 964.315 C 1187.72 964.196 1187.71 964.08 1188.83 964.815 C 1187.39 964.84 1187.4 964.992 1186.33 964.315 z" fill="rgb(174,136,89)" transform="translate(0,0)"></path>
<path d="M 1122.59 1619.29 C 1088.26 1544.01 1104.84 1455.28 1164.03 1397.46 C 1223.23 1339.65 1312.32 1325.17 1386.78 1361.26 C 1464.66 1399.02 1508.61 1483.34 1494.96 1568.81 C 1481.32 1654.27 1413.29 1720.71 1327.53 1732.34 C 1241.76 1743.97 1158.51 1698.04 1122.59 1619.29 z" fill="rgb(217,24,36)" transform="translate(0,0)"></path>
<path d="M 1386.78 1361.26 C 1464.66 1399.02 1508.61 1483.34 1494.96 1568.81 C 1481.32 1654.27 1413.29 1720.71 1327.53 1732.34 C 1241.76 1743.97 1158.51 1698.04 1122.59 1619.29 C 1126.45 1620.51 1126.81 1626.12 1131.09 1629.57 C 1182.66 1671.16 1234.78 1694.03 1302.28 1680.73 C 1351.49 1671.04 1387.97 1643.68 1417.05 1602.04 C 1463.61 1535.38 1453.2 1447.8 1406.96 1383.96 C 1402.79 1378.2 1398.99 1369.81 1392.81 1366.14 C 1390.07 1364.51 1388.87 1363.51 1386.78 1361.26 z" fill="rgb(163,7,24)" transform="translate(0,0)"></path>
<path d="M 1234.11 1467.3 C 1205.45 1498.64 1206.18 1531.46 1188.2 1566.48 C 1184.71 1573.28 1172.24 1580.78 1165.11 1573.78 C 1154.55 1563.43 1151.15 1545.31 1150.35 1530.97 C 1148.83 1467.03 1188.48 1406.71 1249.33 1385.46 C 1254.16 1383.78 1261.24 1383.22 1265.23 1381.66 C 1273.09 1378.59 1279.25 1377.38 1287.73 1377.31 C 1297.99 1375.84 1330.89 1379.79 1328.54 1394.69 C 1326.16 1409.79 1289.41 1424.24 1277.86 1430.73 C 1269.86 1435.13 1262.31 1440.29 1255.29 1446.12 C 1254.82 1447.08 1254.89 1446.97 1253.88 1447.36 C 1247.33 1453.23 1241.01 1459.1 1235.35 1465.87 C 1234.96 1466.9 1235.07 1466.82 1234.11 1467.3 z" fill="rgb(138,10,22)" transform="translate(0,0)"></path>
<path d="M 1281.75 1380.41 C 1318.24 1377.3 1351.28 1390.2 1301.68 1415.8 C 1293.52 1420.02 1284.87 1424.18 1276.91 1428.7 C 1269.72 1432.8 1262.88 1437.47 1256.45 1442.68 C 1231.56 1462.29 1213.09 1488.87 1203.39 1519.04 C 1198.56 1533.92 1195.69 1547.39 1188.99 1561.85 C 1146.89 1628.07 1107.86 1407.14 1281.75 1380.41 z" fill="rgb(217,24,36)" transform="translate(0,0)"></path>
<path d="M 1803.04 615.886 C 1804.58 618.013 1804.8 618.224 1806.63 620.05 L 1803.68 620.002 C 1803.04 619.1 1802.28 617.943 1801.54 617.116 L 1803.04 615.886 z" fill="rgb(52,42,31)" transform="translate(0,0)"></path>
<path d="M 1826.05 642.863 C 1827.45 644.778 1827.74 645.101 1829.38 646.841 L 1827.17 646.946 C 1826.3 645.989 1825.41 645.044 1824.51 644.112 L 1826.05 642.863 z" fill="rgb(52,42,31)" transform="translate(0,0)"></path>
<path d="M 1813.6 628.438 C 1815.18 630.501 1815.8 631.223 1817.63 633.053 L 1814.58 632.923 C 1814.1 632.296 1813.53 631.462 1812.94 630.931 L 1813.6 628.438 z" fill="rgb(52,42,31)" transform="translate(0,0)"></path>
<path d="M 1691.59 486.311 C 1693.07 488.315 1693.86 489.279 1695.56 491.108 L 1692.47 490.845 C 1692.02 490.258 1691.55 489.546 1690.99 489.077 L 1691.59 486.311 z" fill="rgb(52,42,31)" transform="translate(0,0)"></path>
<metadata><recraft-signature>{"signed_by": "recraft", "signature_b64": "2xItO8cyQEb0FAFB7JY8jFLLJm2qsc2JGvxpw5oyDP2PISPzfxBJ8JB5ksNcSSzfjl1k8mWb1P5h4X61szYTCA==", "signing_algo": "Ed25519", "generation_timestamp": 1779099061, "identifier": "2f2b1d86-09f8-45e1-b94c-d4743bdebf00"}</recraft-signature></metadata></svg>