<svg xmlns="http://www.w3.org/2000/svg" height="1024" preserveAspectRatio="none" style="display: block;" version="1.1" viewBox="0 0 2048 2048" width="1024">
<path d="M 0 0 L 2048 0 L 2048 2048 L 0 2048 L 0 0 z" fill="rgb(255,255,255)" transform="translate(0,0)"></path>
<path d="M 927.008 200.876 C 978.981 186.384 1023.8 183.538 1077.17 190.46 C 1114.35 196.221 1148.72 206.476 1183.19 221.865 C 1186.62 223.396 1194.69 227.25 1197.16 229.319 C 1200.55 230.708 1203.05 232.03 1206.31 233.637 C 1208.52 234.933 1210.22 235.775 1212.2 237.414 C 1215.92 238.368 1227.42 246.036 1230.62 248.381 L 1230.88 248.746 C 1232.99 249.692 1235.19 250.287 1235.98 252.314 C 1238.05 253.234 1241.04 254.228 1242.1 256.207 C 1257.77 264.905 1296.87 297.607 1307.99 311.858 C 1311.06 313.581 1316.63 320.776 1318.94 323.881 C 1322.82 326.738 1332.13 338.021 1335.32 342.182 C 1363.59 379.07 1398.32 437.712 1412.26 481.998 C 1437.49 546.565 1448.75 629.984 1443.66 699.193 C 1442.37 713.624 1437.74 756.755 1433.49 769.351 C 1427.99 799.258 1420.44 828.269 1410.15 856.86 C 1408.06 862.657 1404.52 874.174 1401.63 879.448 C 1401.12 883.405 1398.01 892.211 1395.67 895.224 C 1394.05 900.67 1392.44 904.069 1390.35 909.244 C 1369.61 957.963 1345.74 1005.28 1318.87 1050.91 C 1315.37 1056.83 1303.55 1077.31 1299.58 1082.07 C 1298.67 1084.33 1299.26 1083.79 1297.62 1085.2 C 1292.26 1096.46 1274.17 1122.49 1266.57 1133.06 C 1225.4 1190.34 1171.6 1259.18 1103.38 1283.87 C 1093.66 1287.39 1081.39 1290.24 1071.28 1292.37 C 1074.85 1301.09 1078.81 1310.81 1080.99 1320.01 L 1080.95 1320.84 C 1078.97 1323.02 1079.02 1322.6 1077.74 1325.11 L 1076.58 1325.1 C 1074.92 1326.14 1075.02 1326.2 1073.67 1327.77 L 1075.47 1328.4 C 1070.4 1332.09 1043.99 1330.46 1036.5 1331.66 C 1029.39 1332.79 1018.17 1330.55 1017.8 1321.18 C 1019.85 1317.92 1021.69 1314.51 1023.7 1311.17 C 1024.91 1308.82 1027.86 1303.14 1030.05 1301.82 C 1031.26 1299.28 1033.74 1296.44 1035.53 1294.16 C 948.559 1284.92 875.429 1210.83 822.272 1146.45 C 748.756 1057.4 664.737 939.536 627.676 829.668 C 595.869 732.41 594.416 627.775 623.51 529.671 C 635.708 485.165 653.499 442.385 676.459 402.355 C 679.087 397.776 686.88 384.371 690.247 380.839 C 692.32 376.72 694.256 373.371 697.606 370.212 L 698.236 368.861 C 700.219 365.231 704.111 359.561 707.112 356.813 L 707.527 356.345 C 709.317 352.743 714.076 346.256 717.105 343.707 L 717.497 343.396 C 719.916 339.105 723.097 335.29 726.883 332.139 C 729.31 325.882 769.401 286.429 776.059 282.696 L 776.403 282.415 C 778.508 279.931 779.02 279.147 781.955 277.733 C 786.44 272.781 794.068 267.491 799.892 264.15 C 801.047 261.972 804.288 260.588 806.493 259.68 C 808.428 256.471 818.209 250.996 821.828 249.118 C 823.128 247.093 836.984 239.161 840.048 237.426 L 840.91 236.876 C 843.47 235.217 845.074 233.824 848.018 233.5 C 852.608 229.491 868 222.214 873.76 220.323 C 879.933 215.192 917.358 203.604 927.008 200.876 z" fill="rgb(239,86,102)" transform="translate(0,0)"></path>
<path d="M 623.51 529.671 C 624.065 534.008 613.114 578.144 611.474 588.185 C 606.096 621.114 601.429 679.062 606.329 710.919 C 645.026 695.721 681.875 682.019 724.53 681.874 C 730.436 682.118 736.349 682.124 742.256 681.892 C 820.397 683.541 906.432 734.796 959.114 790.532 C 1007.42 841.641 1041.33 903.431 1063.07 969.974 C 1071.09 994.544 1079.7 1024.63 1082.73 1050.16 L 1083.05 1051.38 C 1083.64 1053.9 1084.75 1052.66 1086.56 1052.01 C 1085.75 1054.16 1084.23 1056.03 1083.02 1058.07 C 1030.81 1131.92 1003.19 1196.23 1011.63 1289.01 C 1029.74 1293.01 1051.34 1292.64 1069.7 1290.53 L 1071.28 1292.37 C 1074.85 1301.09 1078.81 1310.81 1080.99 1320.01 L 1080.95 1320.84 C 1078.97 1323.02 1079.02 1322.6 1077.74 1325.11 L 1076.58 1325.1 C 1074.92 1326.14 1075.02 1326.2 1073.67 1327.77 L 1075.47 1328.4 C 1070.4 1332.09 1043.99 1330.46 1036.5 1331.66 C 1029.39 1332.79 1018.17 1330.55 1017.8 1321.18 C 1019.85 1317.92 1021.69 1314.51 1023.7 1311.17 C 1024.91 1308.82 1027.86 1303.14 1030.05 1301.82 C 1031.26 1299.28 1033.74 1296.44 1035.53 1294.16 C 948.559 1284.92 875.429 1210.83 822.272 1146.45 C 748.756 1057.4 664.737 939.536 627.676 829.668 C 595.869 732.41 594.416 627.775 623.51 529.671 z" fill="rgb(244,178,147)" transform="translate(0,0)"></path>
<path d="M 623.51 529.671 C 624.065 534.008 613.114 578.144 611.474 588.185 C 606.096 621.114 601.429 679.062 606.329 710.919 C 645.026 695.721 681.875 682.019 724.53 681.874 C 730.436 682.118 736.349 682.124 742.256 681.892 C 820.397 683.541 906.432 734.796 959.114 790.532 C 1007.42 841.641 1041.33 903.431 1063.07 969.974 C 1071.09 994.544 1079.7 1024.63 1082.73 1050.16 L 1080.66 1048.53 C 1062.8 933.578 1000.31 813.566 904.026 745.128 C 805.017 674.753 718.747 666.656 607.082 712.259 C 606.718 728.07 609.925 748.962 612.835 764.678 C 617.639 791.759 624.882 818.35 634.475 844.126 C 677.872 958.761 777.533 1097.92 861.052 1187.26 C 902.799 1231.92 950.205 1272.07 1010.13 1288.77 C 997.329 1215.28 1031.29 1126.07 1074.17 1067.45 C 1076.74 1063.95 1079.02 1060.41 1082.05 1057.29 L 1083.02 1058.07 C 1030.81 1131.92 1003.19 1196.23 1011.63 1289.01 C 1029.74 1293.01 1051.34 1292.64 1069.7 1290.53 L 1071.28 1292.37 C 1074.85 1301.09 1078.81 1310.81 1080.99 1320.01 L 1080.95 1320.84 C 1078.97 1323.02 1079.02 1322.6 1077.74 1325.11 L 1076.58 1325.1 C 1074.92 1326.14 1075.02 1326.2 1073.67 1327.77 L 1075.47 1328.4 C 1070.4 1332.09 1043.99 1330.46 1036.5 1331.66 C 1029.39 1332.79 1018.17 1330.55 1017.8 1321.18 C 1019.85 1317.92 1021.69 1314.51 1023.7 1311.17 C 1024.91 1308.82 1027.86 1303.14 1030.05 1301.82 C 1031.26 1299.28 1033.74 1296.44 1035.53 1294.16 C 948.559 1284.92 875.429 1210.83 822.272 1146.45 C 748.756 1057.4 664.737 939.536 627.676 829.668 C 595.869 732.41 594.416 627.775 623.51 529.671 z" fill="rgb(129,87,73)" transform="translate(0,0)"></path>
<path d="M 1069.41 1292.91 L 1069.99 1294.04 C 1075.07 1303.66 1079.62 1314.39 1076.58 1325.1 C 1074.92 1326.14 1075.02 1326.2 1073.67 1327.77 L 1075.47 1328.4 C 1070.4 1332.09 1043.99 1330.46 1036.5 1331.66 C 1029.39 1332.79 1018.17 1330.55 1017.8 1321.18 C 1019.85 1317.92 1021.69 1314.51 1023.7 1311.17 C 1024.91 1308.82 1027.86 1303.14 1030.05 1301.82 C 1033.93 1299 1034.6 1298.05 1038.11 1294.48 C 1048.86 1294.15 1058.74 1293.49 1069.41 1292.91 z" fill="rgb(239,86,102)" transform="translate(0,0)"></path>
<path d="M 1023.7 1311.17 C 1023.29 1317.14 1017.67 1320.44 1021.2 1325.65 C 1025.52 1332.04 1035.8 1330.2 1042.69 1329.99 C 1048.1 1330.25 1049.63 1329.89 1055.02 1329.03 C 1059.18 1328.96 1063.21 1328.95 1067.38 1328.81 C 1069.37 1327.76 1070.19 1328.08 1072.62 1328.17 L 1073.67 1327.77 L 1075.47 1328.4 C 1070.4 1332.09 1043.99 1330.46 1036.5 1331.66 C 1029.39 1332.79 1018.17 1330.55 1017.8 1321.18 C 1019.85 1317.92 1021.69 1314.51 1023.7 1311.17 z" fill="rgb(112,46,47)" transform="translate(0,0)"></path>
<path d="M 1067.38 1328.81 C 1069.37 1327.76 1070.19 1328.08 1072.62 1328.17 C 1070.12 1329.14 1070.12 1329.15 1067.38 1328.81 z" fill="rgb(205,72,81)" transform="translate(0,0)"></path>
<path d="M 1042.69 1329.99 C 1047.59 1328.72 1049.85 1328.89 1055.02 1329.03 C 1049.63 1329.89 1048.1 1330.25 1042.69 1329.99 z" fill="rgb(154,50,50)" transform="translate(0,0)"></path>
<path d="M 1080.66 1048.53 L 1082.73 1050.16 L 1083.05 1051.38 C 1083.64 1053.9 1084.75 1052.66 1086.56 1052.01 C 1085.75 1054.16 1084.23 1056.03 1083.02 1058.07 L 1082.05 1057.29 C 1081.66 1054.29 1081.07 1051.53 1080.66 1048.53 z" fill="rgb(52,29,28)" transform="translate(0,0)"></path>
<path d="M 1086.56 1052.01 C 1090.49 1048.36 1098.67 1036.42 1102.09 1031.57 C 1169 936.481 1288.26 869.864 1405.43 866.883 C 1403.31 872.138 1402.78 873.897 1401.63 879.448 C 1401.12 883.405 1398.01 892.211 1395.67 895.224 C 1394.05 900.67 1392.44 904.069 1390.35 909.244 C 1369.61 957.963 1345.74 1005.28 1318.87 1050.91 C 1315.37 1056.83 1303.55 1077.31 1299.58 1082.07 C 1298.67 1084.33 1299.26 1083.79 1297.62 1085.2 C 1292.26 1096.46 1274.17 1122.49 1266.57 1133.06 C 1225.4 1190.34 1171.6 1259.18 1103.38 1283.87 C 1093.66 1287.39 1081.39 1290.24 1071.28 1292.37 L 1069.7 1290.53 C 1051.34 1292.64 1029.74 1293.01 1011.63 1289.01 C 1003.19 1196.23 1030.81 1131.92 1083.02 1058.07 C 1084.23 1056.03 1085.75 1054.16 1086.56 1052.01 z" fill="rgb(237,211,113)" transform="translate(0,0)"></path>
<path d="M 1164.13 1246.68 C 1198.75 1221.27 1242.84 1163.92 1268.03 1128.62 C 1274.14 1120.06 1292.01 1090.59 1297.62 1085.2 C 1292.26 1096.46 1274.17 1122.49 1266.57 1133.06 C 1225.4 1190.34 1171.6 1259.18 1103.38 1283.87 C 1093.66 1287.39 1081.39 1290.24 1071.28 1292.37 L 1069.7 1290.53 C 1099.39 1285.47 1122.25 1276.6 1146.92 1259.57 C 1147.63 1259.18 1147.62 1259.29 1148.14 1258.7 L 1153.97 1254.61 C 1154.67 1254.19 1154.62 1254.32 1155.11 1253.7 C 1157.62 1252.02 1160.49 1249.55 1162.89 1247.59 C 1163.62 1247.18 1163.63 1247.27 1164.13 1246.68 z" fill="rgb(109,96,54)" transform="translate(0,0)"></path>
<path d="M 1388.65 908.792 L 1390.35 909.244 C 1369.61 957.963 1345.74 1005.28 1318.87 1050.91 C 1315.37 1056.83 1303.55 1077.31 1299.58 1082.07 C 1301.25 1074.33 1320.49 1045.75 1325.61 1036.34 C 1348.35 994.578 1371.05 953.11 1388.65 908.792 z" fill="rgb(109,96,54)" transform="translate(0,0)"></path>
<path d="M 1388.65 908.792 C 1389.72 904.678 1392.7 898.319 1395.67 895.224 C 1394.05 900.67 1392.44 904.069 1390.35 909.244 L 1388.65 908.792 z" fill="rgb(181,162,88)" transform="translate(0,0)"></path>
<path d="M 1405.78 864.734 C 1415.1 837.197 1423.9 810.564 1429.45 781.976 C 1430.05 778.838 1431.24 771.239 1433.49 769.351 C 1427.99 799.258 1420.44 828.269 1410.15 856.86 C 1408.06 862.657 1404.52 874.174 1401.63 879.448 C 1402.78 873.897 1403.31 872.138 1405.43 866.883 C 1288.26 869.864 1169 936.481 1102.09 1031.57 C 1098.67 1036.42 1090.49 1048.36 1086.56 1052.01 C 1089.64 1041.83 1119.26 1006.63 1127.69 997.136 C 1199.17 917.885 1299.2 870.262 1405.78 864.734 z" fill="rgb(112,46,47)" transform="translate(0,0)"></path>
<path d="M 1443.66 699.193 C 1441.02 692.215 1443.38 676.66 1443.43 669.158 C 1443.81 617.274 1435.62 564.193 1420.81 514.476 C 1419.32 509.456 1411.16 485.151 1412.26 481.998 C 1437.49 546.565 1448.75 629.984 1443.66 699.193 z" fill="rgb(205,72,81)" transform="translate(0,0)"></path>
<path d="M 927.008 200.876 C 978.981 186.384 1023.8 183.538 1077.17 190.46 C 1068.09 192.312 1061.72 189.005 1054.01 189.096 C 1036.84 189.297 1015.88 188.077 998.997 189.369 C 986.027 190.481 973.118 192.216 960.314 194.567 C 955.202 195.517 930.663 201.773 927.643 201.426 L 927.008 200.876 z" fill="rgb(154,50,50)" transform="translate(0,0)"></path>
<path d="M 726.883 332.139 C 729.31 325.882 769.401 286.429 776.059 282.696 L 775.395 283.896 C 774.454 285.708 772.839 287.244 771.343 288.639 C 757.06 301.954 741.475 315.757 729.771 331.356 C 728.732 332.741 728.525 332.525 726.883 332.139 z" fill="rgb(205,72,81)" transform="translate(0,0)"></path>
<path d="M 848.018 233.5 C 852.608 229.491 868 222.214 873.76 220.323 C 869.549 224.381 854.544 231.651 849.012 233.212 L 848.018 233.5 z" fill="rgb(205,72,81)" transform="translate(0,0)"></path>
<path d="M 1212.2 237.414 C 1215.92 238.368 1227.42 246.036 1230.62 248.381 C 1226.33 248.634 1212.53 240.515 1212.2 237.414 z" fill="rgb(205,72,81)" transform="translate(0,0)"></path>
<path d="M 806.493 259.68 C 808.428 256.471 818.209 250.996 821.828 249.118 C 819.223 253.066 811.095 259.272 806.493 259.68 z" fill="rgb(205,72,81)" transform="translate(0,0)"></path>
<path d="M 1307.99 311.858 C 1311.06 313.581 1316.63 320.776 1318.94 323.881 C 1315.12 322.39 1307.14 315.202 1307.99 311.858 z" fill="rgb(205,72,81)" transform="translate(0,0)"></path>
<path d="M 707.527 356.345 C 709.317 352.743 714.076 346.256 717.105 343.707 C 716.036 348.611 712.646 353.212 708.371 355.82 L 707.527 356.345 z" fill="rgb(205,72,81)" transform="translate(0,0)"></path>
<path d="M 698.236 368.861 C 700.219 365.231 704.111 359.561 707.112 356.813 C 706.344 362.263 703.045 365.427 698.701 368.523 L 698.236 368.861 z" fill="rgb(205,72,81)" transform="translate(0,0)"></path>
<path d="M 717.497 343.396 C 719.916 339.105 723.097 335.29 726.883 332.139 L 725.518 335.538 C 724.309 338.52 720.619 341.454 717.924 343.125 L 717.497 343.396 z" fill="rgb(205,72,81)" transform="translate(0,0)"></path>
<path d="M 690.247 380.839 C 692.32 376.72 694.256 373.371 697.606 370.212 C 696.356 375.21 695.58 377.098 691.179 380.174 L 690.247 380.839 z" fill="rgb(205,72,81)" transform="translate(0,0)"></path>
<path d="M 840.048 237.426 L 840.91 236.876 C 843.47 235.217 845.074 233.824 848.018 233.5 C 847.247 237.007 843.239 237.527 840.048 237.426 z" fill="rgb(205,72,81)" transform="translate(0,0)"></path>
<path d="M 799.892 264.15 C 801.047 261.972 804.288 260.588 806.493 259.68 C 803.907 263.353 804.003 264.743 799.892 264.15 z" fill="rgb(205,72,81)" transform="translate(0,0)"></path>
<path d="M 1197.16 229.319 C 1200.55 230.708 1203.05 232.03 1206.31 233.637 C 1202.88 233.83 1199.92 234.348 1197.94 230.696 L 1197.16 229.319 z" fill="rgb(205,72,81)" transform="translate(0,0)"></path>
<path d="M 724.53 681.874 C 730.786 680.548 736.018 680.45 742.256 681.892 C 736.349 682.124 730.436 682.118 724.53 681.874 z" fill="rgb(205,72,81)" transform="translate(0,0)"></path>
<path d="M 776.403 282.415 C 778.508 279.931 779.02 279.147 781.955 277.733 C 783.125 281.419 779.332 281.54 776.403 282.415 z" fill="rgb(205,72,81)" transform="translate(0,0)"></path>
<path d="M 1230.88 248.746 C 1232.99 249.692 1235.19 250.287 1235.98 252.314 C 1232.09 252.622 1232.89 252.186 1230.88 248.746 z" fill="rgb(205,72,81)" transform="translate(0,0)"></path>
<path d="M 1235.98 252.314 C 1238.05 253.234 1241.04 254.228 1242.1 256.207 C 1238.91 256.595 1239.05 256.515 1237.06 253.686 L 1235.98 252.314 z" fill="rgb(205,72,81)" transform="translate(0,0)"></path>
<path d="M 742.668 541.311 C 713.031 507.341 720.197 448.98 753.968 419.541 C 772.261 403.736 796.19 396.039 820.267 398.215 C 843.462 399.975 864.985 410.951 880.03 428.692 C 895.148 446.719 901.437 471.536 899.94 494.865 C 899.092 508.082 892.978 518.572 888.231 530.875 C 883.745 542.501 863.542 558.947 852.386 564.895 C 832.218 575.752 808.536 578.06 786.651 571.302 C 762.968 564.085 765.957 560.2 750.549 550.231 C 748.626 548.634 748.612 548.797 747.573 546.514 C 745.981 544.74 744.346 543.005 742.668 541.311 z" fill="rgb(244,178,147)" transform="translate(0,0)"></path>
<path d="M 742.668 541.311 C 713.031 507.341 720.197 448.98 753.968 419.541 C 772.261 403.736 796.19 396.039 820.267 398.215 C 843.462 399.975 864.985 410.951 880.03 428.692 C 895.148 446.719 901.437 471.536 899.94 494.865 C 899.092 508.082 892.978 518.572 888.231 530.875 C 883.745 542.501 863.542 558.947 852.386 564.895 C 832.218 575.752 808.536 578.06 786.651 571.302 C 762.968 564.085 765.957 560.2 750.549 550.231 L 751.482 548.271 C 764.294 560.395 776.784 567.988 794.324 571.551 C 816.895 576.096 840.346 571.47 859.501 558.696 C 878.816 545.854 892.162 525.791 896.541 503.014 C 900.913 480.37 896.088 454.516 882.827 435.508 C 869.863 416.918 849.919 404.375 827.548 400.742 C 748.217 387.499 696.391 475.767 743.468 539.625 L 742.668 541.311 z" fill="rgb(112,46,47)" transform="translate(0,0)"></path>
<path d="M 743.468 539.625 C 745.082 541.56 746.347 543.004 748.142 544.79 L 747.573 546.514 C 745.981 544.74 744.346 543.005 742.668 541.311 L 743.468 539.625 z" fill="rgb(52,29,28)" transform="translate(0,0)"></path>
<path d="M 748.142 544.79 C 749.481 546.07 750.272 546.827 751.482 548.271 L 750.549 550.231 C 748.626 548.634 748.612 548.797 747.573 546.514 L 748.142 544.79 z" fill="rgb(154,50,50)" transform="translate(0,0)"></path>
<path d="M 1544.01 483.104 C 1566.75 480.823 1566.84 500.866 1570.33 518.634 C 1595.02 644.271 1584.8 772.569 1556.16 895.997 C 1529.21 1009 1480.25 1115.58 1412.08 1209.65 C 1394.34 1233.91 1362.85 1271.09 1337.39 1286.94 C 1331.67 1287.26 1324.09 1284.39 1320.95 1279.59 C 1309.76 1262.56 1347.39 1238.35 1358.54 1225.53 C 1407.89 1168.78 1446.83 1100.74 1476.71 1032.4 C 1524.38 921.096 1550.04 801.607 1552.27 680.54 C 1553.24 624.218 1548.89 569.061 1536.17 514.076 C 1532.64 498.81 1529.14 492.283 1544.01 483.104 z" fill="rgb(230,80,48)" transform="translate(0,0)"></path>
<path d="M 1080.99 1320.01 C 1088.97 1319.62 1099.89 1322.13 1107.01 1325.56 C 1111 1327.19 1114.08 1328.26 1117.29 1331.24 C 1124.65 1335.48 1130.34 1344.11 1125.48 1351.87 C 1113.4 1371.18 1074.18 1376.63 1054.2 1375.91 C 1052.84 1378.18 1052.32 1384.03 1051.88 1386.94 C 1039.88 1476.84 1069.72 1577.36 1124.45 1649.24 C 1125.92 1651.17 1127.43 1653.08 1128.98 1654.95 C 1130.44 1656.84 1131.48 1658.09 1133.14 1659.83 C 1135.13 1661.91 1136.94 1664.08 1138.81 1666.26 C 1142.23 1669.56 1145.51 1673.03 1148.95 1676.29 C 1151.04 1678.15 1153.19 1679.94 1155.21 1681.86 C 1156.92 1683.6 1159.07 1684.98 1160.03 1687.13 C 1164.33 1689.26 1166.82 1691.2 1170.21 1694.58 C 1171.22 1695.15 1172.51 1695.77 1173.3 1696.52 C 1175.43 1692.18 1176.78 1688.08 1179.3 1683.93 C 1179.86 1680.75 1183.39 1675.7 1185.97 1673.81 C 1191.12 1665.4 1201.85 1658.8 1211.31 1656.82 C 1261.66 1646.26 1288.17 1719.62 1233.24 1731.32 C 1218.8 1734.39 1201.32 1728.9 1187.81 1723.8 C 1192.17 1762.03 1198.81 1787.03 1221.77 1818.69 C 1223.06 1820.34 1224.24 1821.77 1225.61 1823.36 C 1225.93 1823.77 1226.25 1824.19 1226.57 1824.61 C 1227.94 1826.39 1228.62 1827.22 1230.2 1828.81 C 1231.14 1829.91 1232.06 1831.03 1232.96 1832.16 C 1238.71 1838.76 1243.7 1843.01 1249.38 1848.98 C 1252.69 1850.64 1253.58 1851.89 1256.17 1854.61 C 1258.71 1855.83 1257.88 1854.87 1259.13 1857.09 C 1269.05 1863.27 1279.69 1870.8 1289.85 1876.17 C 1331.66 1898.74 1380.25 1905.32 1426.55 1894.7 C 1439.55 1891.67 1447.24 1887.79 1458.22 1884.65 C 1461.86 1883.12 1463.15 1883.57 1466.38 1885.75 C 1469.64 1887.3 1470.25 1889.16 1470.43 1892.57 C 1464.86 1909.93 1400.74 1916.22 1384.81 1916.22 C 1325.71 1916.06 1269.09 1892.4 1227.44 1850.46 C 1190.48 1812.86 1170.24 1767.24 1170.77 1714.39 C 1149.47 1701.35 1122.06 1674.19 1107.26 1653.99 C 1064.69 1595.88 1037.8 1518.59 1032.32 1447 C 1030.64 1425.1 1033.72 1397.23 1036.87 1375.56 C 1021.69 1374.11 957.426 1363.35 981.065 1336.46 C 982.963 1332.53 988.119 1329.97 991.992 1328.34 L 993.854 1327.31 C 1000.05 1323.48 1009.82 1320.61 1017.13 1321.19 L 1017.8 1321.18 C 1018.17 1330.55 1029.39 1332.79 1036.5 1331.66 C 1043.99 1330.46 1070.4 1332.09 1075.47 1328.4 L 1073.67 1327.77 C 1075.02 1326.2 1074.92 1326.14 1076.58 1325.1 L 1077.74 1325.11 C 1079.02 1322.6 1078.97 1323.02 1080.95 1320.84 L 1080.99 1320.01 z" fill="rgb(244,178,147)" transform="translate(0,0)"></path>
<path d="M 1036.87 1375.56 C 1021.69 1374.11 957.426 1363.35 981.065 1336.46 C 974.434 1354.12 984.149 1360.18 999.965 1366.25 C 1012.53 1371.06 1025.51 1372.22 1038.69 1374.16 C 1035.89 1396.25 1032.54 1420.97 1033.94 1443.45 C 1038.58 1517.93 1066.77 1597.26 1111.81 1657.02 C 1125.75 1675.51 1153.82 1702.09 1173.01 1713.68 C 1172.67 1767.7 1190.33 1810.55 1228.74 1849.24 C 1269.83 1890.62 1325.56 1914.15 1383.87 1914.73 C 1401.57 1914.87 1422.83 1911.68 1439.91 1907.1 C 1449.97 1904.4 1475.03 1900.37 1466.38 1885.75 C 1469.64 1887.3 1470.25 1889.16 1470.43 1892.57 C 1464.86 1909.93 1400.74 1916.22 1384.81 1916.22 C 1325.71 1916.06 1269.09 1892.4 1227.44 1850.46 C 1190.48 1812.86 1170.24 1767.24 1170.77 1714.39 C 1149.47 1701.35 1122.06 1674.19 1107.26 1653.99 C 1064.69 1595.88 1037.8 1518.59 1032.32 1447 C 1030.64 1425.1 1033.72 1397.23 1036.87 1375.56 z" fill="rgb(129,87,73)" transform="translate(0,0)"></path>
<path d="M 1185.97 1673.81 C 1191.12 1665.4 1201.85 1658.8 1211.31 1656.82 C 1261.66 1646.26 1288.17 1719.62 1233.24 1731.32 C 1218.8 1734.39 1201.32 1728.9 1187.81 1723.8 C 1192.17 1762.03 1198.81 1787.03 1221.77 1818.69 L 1220.89 1820.14 C 1200.75 1801.36 1187.15 1748.26 1186.35 1721.38 C 1195.56 1724.79 1203.45 1727.78 1213.21 1729.34 C 1234.03 1732.67 1258.57 1726.86 1261.46 1702.14 C 1262.63 1691.47 1259.48 1680.77 1252.72 1672.43 C 1245.85 1664.06 1235.14 1658.75 1224.46 1658 C 1205.42 1656.67 1199.2 1663.15 1185.97 1673.81 z" fill="rgb(129,87,73)" transform="translate(0,0)"></path>
<path d="M 1050.63 1385.9 L 1051.88 1386.94 C 1039.88 1476.84 1069.72 1577.36 1124.45 1649.24 C 1125.92 1651.17 1127.43 1653.08 1128.98 1654.95 L 1127.75 1655.73 C 1120.79 1648.98 1107.99 1629.52 1102.58 1620.34 C 1069.1 1563.49 1045.95 1490.88 1046.85 1424.56 C 1047 1412.86 1047.83 1397.27 1050.63 1385.9 z" fill="rgb(129,87,73)" transform="translate(0,0)"></path>
<path d="M 1259.13 1857.09 C 1269.05 1863.27 1279.69 1870.8 1289.85 1876.17 C 1331.66 1898.74 1380.25 1905.32 1426.55 1894.7 C 1439.55 1891.67 1447.24 1887.79 1458.22 1884.65 L 1458.33 1885.76 C 1437.58 1894.84 1414.24 1900.84 1391.5 1901.2 C 1386.65 1901.18 1381.78 1901.06 1376.94 1901.11 C 1358.77 1901.11 1334.37 1896.12 1317.39 1890.02 C 1302.32 1884.61 1269.24 1869.51 1259.13 1857.09 z" fill="rgb(129,87,73)" transform="translate(0,0)"></path>
<path d="M 1117.29 1331.24 C 1124.65 1335.48 1130.34 1344.11 1125.48 1351.87 C 1113.4 1371.18 1074.18 1376.63 1054.2 1375.91 L 1052.64 1374.53 C 1073.1 1373.92 1114.13 1370.79 1124.79 1348.98 C 1127.72 1342.99 1120.45 1335.5 1117.29 1331.24 z" fill="rgb(129,87,73)" transform="translate(0,0)"></path>
<path d="M 1080.99 1320.01 C 1088.97 1319.62 1099.89 1322.13 1107.01 1325.56 C 1104.41 1327.32 1099.11 1324.13 1095.49 1323.46 C 1090.93 1322.61 1085.37 1321.99 1080.95 1320.84 L 1080.99 1320.01 z" fill="rgb(199,140,114)" transform="translate(0,0)"></path>
<path d="M 1232.96 1832.16 C 1238.71 1838.76 1243.7 1843.01 1249.38 1848.98 L 1247.55 1849.5 C 1246.02 1847.62 1233.89 1835.46 1231.69 1833.97 L 1232.96 1832.16 z" fill="rgb(87,66,59)" transform="translate(0,0)"></path>
<path d="M 993.854 1327.31 C 1000.05 1323.48 1009.82 1320.61 1017.13 1321.19 C 1013.47 1322.89 998.134 1326.45 993.854 1327.31 z" fill="rgb(129,87,73)" transform="translate(0,0)"></path>
<path d="M 981.065 1336.46 C 982.963 1332.53 988.119 1329.97 991.992 1328.34 L 990.933 1329.7 C 988.969 1332.43 984.189 1335.25 981.065 1336.46 z" fill="rgb(199,140,114)" transform="translate(0,0)"></path>
<path d="M 1173.3 1696.52 C 1175.43 1692.18 1176.78 1688.08 1179.3 1683.93 C 1179.1 1684.91 1174.2 1704.32 1173.3 1696.52 z" fill="rgb(45,43,41)" transform="translate(0,0)"></path>
<path d="M 1138.81 1666.26 C 1142.23 1669.56 1145.51 1673.03 1148.95 1676.29 L 1147 1676.98 C 1144.81 1674.04 1140.86 1670.16 1137.93 1667.93 L 1138.81 1666.26 z" fill="rgb(87,66,59)" transform="translate(0,0)"></path>
<path d="M 1160.03 1687.13 C 1164.33 1689.26 1166.82 1691.2 1170.21 1694.58 L 1168.61 1694.11 C 1163.94 1692.81 1164.03 1692.68 1161.09 1688.58 L 1160.03 1687.13 z" fill="rgb(199,140,114)" transform="translate(0,0)"></path>
<path d="M 1052.64 1374.53 L 1054.2 1375.91 C 1052.84 1378.18 1052.32 1384.03 1051.88 1386.94 L 1050.63 1385.9 C 1051.14 1380.96 1051.26 1379.29 1052.64 1374.53 z" fill="rgb(87,66,59)" transform="translate(0,0)"></path>
<path d="M 1148.95 1676.29 C 1151.04 1678.15 1153.19 1679.94 1155.21 1681.86 L 1153.56 1682.29 C 1150.42 1681.36 1148.98 1679.65 1147 1676.98 L 1148.95 1676.29 z" fill="rgb(199,140,114)" transform="translate(0,0)"></path>
<path d="M 1249.38 1848.98 C 1252.69 1850.64 1253.58 1851.89 1256.17 1854.61 C 1252.36 1853.44 1249.76 1852.58 1247.55 1849.5 L 1249.38 1848.98 z" fill="rgb(199,140,114)" transform="translate(0,0)"></path>
<path d="M 1133.14 1659.83 C 1135.13 1661.91 1136.94 1664.08 1138.81 1666.26 L 1137.93 1667.93 C 1134.13 1664.26 1135.1 1665.72 1132.65 1661.16 L 1133.14 1659.83 z" fill="rgb(199,140,114)" transform="translate(0,0)"></path>
<path d="M 1458.22 1884.65 C 1461.86 1883.12 1463.15 1883.57 1466.38 1885.75 C 1463.37 1885.8 1461.37 1885.51 1458.33 1885.76 L 1458.22 1884.65 z" fill="rgb(199,140,114)" transform="translate(0,0)"></path>
<path d="M 1155.21 1681.86 C 1156.92 1683.6 1159.07 1684.98 1160.03 1687.13 C 1157.42 1686.92 1155.69 1684.34 1153.56 1682.29 L 1155.21 1681.86 z" fill="rgb(87,66,59)" transform="translate(0,0)"></path>
<path d="M 1376.94 1901.11 C 1381.78 1901.06 1386.65 1901.18 1391.5 1901.2 C 1385.42 1902.54 1383.06 1902.45 1376.94 1901.11 z" fill="rgb(199,140,114)" transform="translate(0,0)"></path>
<path d="M 1128.98 1654.95 C 1130.44 1656.84 1131.48 1658.09 1133.14 1659.83 L 1132.65 1661.16 C 1130.43 1659 1129.55 1658.2 1127.75 1655.73 L 1128.98 1654.95 z" fill="rgb(87,66,59)" transform="translate(0,0)"></path>
<path d="M 1230.2 1828.81 C 1231.14 1829.91 1232.06 1831.03 1232.96 1832.16 L 1231.69 1833.97 C 1230.23 1832.29 1230.26 1832.41 1229.52 1830.39 L 1230.2 1828.81 z" fill="rgb(199,140,114)" transform="translate(0,0)"></path>
<path d="M 1221.77 1818.69 C 1223.06 1820.34 1224.24 1821.77 1225.61 1823.36 L 1223.8 1824.19 C 1222.57 1822.03 1222.6 1822.05 1220.89 1820.14 L 1221.77 1818.69 z" fill="rgb(87,66,59)" transform="translate(0,0)"></path>
<path d="M 1073.67 1327.77 C 1075.02 1326.2 1074.92 1326.14 1076.58 1325.1 L 1077.74 1325.11 C 1076.73 1326.95 1076.79 1326.93 1075.47 1328.4 L 1073.67 1327.77 z" fill="rgb(205,72,81)" transform="translate(0,0)"></path>
<path d="M 1226.57 1824.61 C 1227.94 1826.39 1228.62 1827.22 1230.2 1828.81 L 1229.52 1830.39 C 1227.92 1828.44 1227.94 1828.48 1225.85 1827.04 L 1226.57 1824.61 z" fill="rgb(87,66,59)" transform="translate(0,0)"></path>
<path d="M 1225.61 1823.36 C 1225.93 1823.77 1226.25 1824.19 1226.57 1824.61 L 1225.85 1827.04 C 1224.88 1825.87 1224.49 1825.52 1223.8 1824.19 L 1225.61 1823.36 z" fill="rgb(199,140,114)" transform="translate(0,0)"></path>
<path d="M 1189.33 1700.53 C 1189.75 1692.14 1197.14 1684.48 1201.88 1678.78 C 1214.32 1663.86 1244.82 1672.82 1246.73 1691.02 C 1250.89 1730.46 1205.24 1713.12 1188.56 1706.23 C 1187.2 1704.74 1186.85 1704.34 1188.06 1702.59 L 1188.86 1701.41 L 1189.33 1700.53 z" fill="rgb(255,255,255)" transform="translate(0,0)"></path>
<path d="M 1189.33 1700.53 C 1189.75 1692.14 1197.14 1684.48 1201.88 1678.78 C 1214.32 1663.86 1244.82 1672.82 1246.73 1691.02 C 1250.89 1730.46 1205.24 1713.12 1188.56 1706.23 L 1189.26 1705.19 C 1195.35 1706.92 1204.95 1711.08 1211.02 1712.82 C 1257.88 1726.27 1255.7 1668.44 1214.36 1673.54 C 1202.38 1675.02 1194.26 1691.83 1189.33 1700.53 z" fill="rgb(129,87,73)" transform="translate(0,0)"></path>
<path d="M 1188.56 1706.23 C 1187.2 1704.74 1186.85 1704.34 1188.06 1702.59 L 1188.86 1701.41 C 1188.97 1702.76 1189.04 1703.85 1189.26 1705.19 L 1188.56 1706.23 z" fill="rgb(45,43,41)" transform="translate(0,0)"></path>
<path d="M 768.382 132.984 C 782.083 131.377 789.993 139.943 788.031 152.839 C 786.845 160.636 761.336 172.201 753.581 176.885 C 594.418 273.041 506.226 473.226 498.595 655.38 C 497.339 683.48 498.394 711.635 501.749 739.562 C 503.084 750.649 507.226 769.742 506.399 780.189 C 506.061 784.455 499.715 788.668 495.932 790.673 C 473.742 792.5 474.131 770.305 471.717 754.141 C 470.451 745.656 469.789 736.659 469.062 728.104 C 460.499 627.489 475.578 526.266 513.095 432.515 C 555.546 324.486 625.774 218.889 725.772 156.65 C 738.667 148.624 754.566 138.992 768.382 132.984 z" fill="rgb(224,117,45)" transform="translate(0,0)"></path>
<path d="M 1707.6 799.299 C 1695.87 892.74 1670.49 979.308 1627.44 1063.32 C 1617.95 1081.84 1575.35 1164.65 1560.6 1168.67 C 1556.65 1169.75 1552.2 1168.92 1548.8 1166.7 C 1544.87 1164.12 1542.08 1160.06 1541.29 1155.41 C 1540.48 1150.65 1542.6 1146.04 1544.66 1141.86 C 1552.33 1126.32 1563.91 1111.58 1572.94 1096.66 C 1586.19 1074.74 1597.69 1051.24 1608.75 1028.15 C 1647.33 947.581 1677.23 845.958 1678.16 756.132 C 1678.39 733.753 1675.66 712.891 1672.36 690.883 C 1671.89 687.778 1670.55 682.577 1671.2 679.501 C 1671.48 678.158 1672.61 676.477 1673.42 675.391 C 1676.43 671.37 1681.32 668.756 1686.28 668.225 C 1690.73 667.79 1695.15 669.269 1698.44 672.293 C 1706.09 679.448 1709.29 716.477 1709.36 727.56 C 1712.1 744.614 1709.21 781.776 1707.6 799.299 z" fill="rgb(230,80,48)" transform="translate(0,0)"></path>
<path d="M 1709.36 727.56 C 1712.1 744.614 1709.21 781.776 1707.6 799.299 C 1706.18 794.221 1706.85 777.663 1708.06 772.504 C 1710.8 760.864 1706.72 737.171 1709.36 727.56 z" fill="rgb(154,50,50)" transform="translate(0,0)"></path>
<path d="M 546.424 166.948 C 564.902 166.276 570.761 181.04 560.425 192.996 C 553.982 200.45 538.713 211.107 530.468 218.563 C 505.529 240.815 483.574 266.199 465.148 294.084 C 418.485 365.569 391.582 454.352 391.068 539.617 C 390.972 555.483 392.775 560.134 377.825 568.045 C 367.813 567.605 365.057 564.67 359.001 556.895 C 357.404 504.229 364.671 451.669 380.498 401.413 C 404.301 325.372 439.846 263.023 496.835 206.746 C 510.725 193.03 529.416 175.829 546.424 166.948 z" fill="rgb(224,117,45)" transform="translate(0,0)"></path>
<metadata><recraft-signature>{"signed_by": "recraft", "signature_b64": "rJxTQySw298uTXv9R+bA2Ci+pRYvejqeB9mOG12zX1lYgeb1J5JzdgSoZSohhVKAJDkHXbqNSyogXRq4ASJNCQ==", "signing_algo": "Ed25519", "generation_timestamp": 1779094018, "identifier": "b26aec30-55ce-44f2-bc96-392f0b66270e"}</recraft-signature></metadata></svg>