<svg xmlns="http://www.w3.org/2000/svg" height="1280" preserveAspectRatio="none" style="display: block;" version="1.1" viewBox="0 0 1331 2048" width="832">
<path d="M 0 0 L 633.119 0 L 661.452 0 L 1331 0 L 1331 1623.62 L 1331 1640.62 L 1331 2048 L 0 2048 L 0 1347.73 L 0 1315.27 L 0 0 z" fill="rgb(255,255,255)" transform="translate(0,0)"></path>
<path d="M 472.276 1005.89 C 478.117 1003.53 511.55 981.106 519.711 976.425 C 563.339 951.405 617.912 930.079 667.776 922.342 C 732.619 912.281 812.406 909.79 867.864 950.117 C 875.654 967.045 881.779 988.824 885.211 1007.2 L 886.332 1013.71 C 889.825 1083.76 881.413 1188.07 869.029 1257.8 C 897.383 1263.69 911.139 1281.14 909.828 1310.33 C 967.967 1326.24 1023.19 1341.1 1077.52 1368.74 C 1088.65 1374.41 1102.29 1381.09 1112.09 1388.88 C 1119.51 1394.69 1125.73 1401.89 1130.39 1410.09 C 1131.76 1412.53 1132.9 1415.31 1133.82 1417.97 C 1145.19 1441.82 1131.17 1461.95 1118.82 1482.33 L 1118.14 1482.28 C 1110.48 1491.3 1086.52 1491.25 1077 1485.4 L 1076.57 1485.95 C 1054.35 1511.29 1038.41 1536.99 1056.12 1570.3 C 1053.52 1579.09 1050.81 1587.84 1048 1596.56 C 1041.63 1595.01 1038.33 1594.1 1031.72 1595.3 L 1030.86 1595.6 C 1024.75 1597.7 1021.89 1596.72 1018.03 1604.49 C 1017.38 1605.79 1016.77 1607.1 1016.19 1608.43 C 1019.08 1615.83 1028.43 1627.4 1028.86 1629.96 L 1027.15 1629.5 C 1011.6 1641.45 995.728 1656.36 975.279 1653.51 C 974.063 1653.34 972.856 1653.12 971.659 1652.85 C 942.232 1647.46 920.65 1617.17 900.98 1596.8 C 873.062 1567.89 845.656 1538.63 814.471 1513.13 C 803.335 1504.32 783.456 1488.22 769.652 1483.96 C 732.168 1472.38 716.672 1461.39 700.571 1424.78 C 689.462 1399.53 685.919 1378.13 681.037 1350.64 L 653.329 1244.42 C 649.605 1230.38 644.371 1208.04 639.427 1194.88 C 621.947 1210.85 596.319 1240.81 578.806 1259.02 C 564.587 1273.8 536.881 1301.04 524.816 1315.61 C 534.326 1326.99 542.881 1336.74 541.464 1352.59 C 540.025 1368.69 529.642 1377.51 515.754 1383.38 C 534.197 1444.89 552.059 1506.56 569.339 1568.41 C 576.424 1594.55 599.701 1668.94 588.895 1691.41 C 583.693 1705.15 579.485 1711.77 565.059 1718.37 C 546.573 1726.83 518.397 1727.1 498.329 1724.82 C 493.229 1724.86 493.44 1724.01 490.2 1726.58 C 488.762 1730.25 489.105 1733.17 489.129 1737.13 C 487.989 1742.87 487.178 1752.96 486.521 1759.13 C 452.288 1777.47 413.91 1758.65 409.023 1719.71 C 408.353 1714.37 406.938 1704.64 402.683 1701.16 C 398.633 1700.15 400.372 1700.08 395.856 1702.2 L 386.413 1709.68 C 366.937 1700.85 355.57 1700.58 340.261 1682.54 C 315.868 1650.01 338.255 1520.14 339.285 1476.84 C 339.6 1463.64 343.096 1448.17 341.896 1433.98 C 336.702 1372.52 302.862 1312.08 321.716 1250.1 C 328.367 1228.55 345.909 1204.54 357.382 1184.55 C 385.658 1135.29 415.399 1084.64 447.932 1038.05 L 450.379 1034.87 C 456.342 1026.27 465.328 1013.27 472.276 1005.89 z" fill="rgb(233,162,127)" transform="translate(0,0)"></path>
<path d="M 971.659 1652.85 C 962.45 1638.48 959.508 1618.86 958.962 1602 C 957.51 1543.56 978.93 1486.86 1018.66 1443.97 C 1046.16 1414.83 1098.53 1384.18 1133.82 1417.97 C 1145.19 1441.82 1131.17 1461.95 1118.82 1482.33 L 1118.14 1482.28 C 1110.48 1491.3 1086.52 1491.25 1077 1485.4 L 1076.57 1485.95 C 1054.35 1511.29 1038.41 1536.99 1056.12 1570.3 C 1053.52 1579.09 1050.81 1587.84 1048 1596.56 C 1041.63 1595.01 1038.33 1594.1 1031.72 1595.3 L 1030.86 1595.6 C 1024.75 1597.7 1021.89 1596.72 1018.03 1604.49 C 1017.38 1605.79 1016.77 1607.1 1016.19 1608.43 C 1019.08 1615.83 1028.43 1627.4 1028.86 1629.96 L 1027.15 1629.5 C 1011.6 1641.45 995.728 1656.36 975.279 1653.51 C 974.063 1653.34 972.856 1653.12 971.659 1652.85 z" fill="rgb(176,96,76)" transform="translate(0,0)"></path>
<path d="M 989.481 1541.41 C 990.248 1534.04 991.66 1526.75 993.702 1519.63 C 1002.31 1490.17 1022.45 1467.22 1049.14 1452.66 C 1058.77 1462.84 1067.85 1474.88 1076.57 1485.95 C 1054.35 1511.29 1038.41 1536.99 1056.12 1570.3 C 1053.52 1579.09 1050.81 1587.84 1048 1596.56 C 1041.63 1595.01 1038.33 1594.1 1031.72 1595.3 C 1028.52 1593.83 994.37 1547.88 989.481 1541.41 z" fill="rgb(225,181,156)" transform="translate(0,0)"></path>
<path d="M 1077 1485.4 C 1091.91 1472.9 1102.06 1466.84 1118.14 1482.28 C 1110.48 1491.3 1086.52 1491.25 1077 1485.4 z" fill="rgb(135,52,41)" transform="translate(0,0)"></path>
<path d="M 340.261 1682.54 C 344.051 1630.74 427.552 1624.48 466.674 1627.82 C 507.148 1631.28 552.135 1646.48 580.26 1677.23 C 583.849 1681.23 587.803 1686.19 588.895 1691.41 C 583.693 1705.15 579.485 1711.77 565.059 1718.37 C 546.573 1726.83 518.397 1727.1 498.329 1724.82 C 493.229 1724.86 493.44 1724.01 490.2 1726.58 C 488.762 1730.25 489.105 1733.17 489.129 1737.13 C 487.989 1742.87 487.178 1752.96 486.521 1759.13 C 452.288 1777.47 413.91 1758.65 409.023 1719.71 C 408.353 1714.37 406.938 1704.64 402.683 1701.16 C 398.633 1700.15 400.372 1700.08 395.856 1702.2 L 386.413 1709.68 C 366.937 1700.85 355.57 1700.58 340.261 1682.54 z" fill="rgb(176,96,76)" transform="translate(0,0)"></path>
<path d="M 395.018 1688.93 C 414.24 1667.95 446.194 1654.24 474.526 1652.98 C 482.306 1652.69 490.097 1652.98 497.835 1653.84 C 496.842 1661.9 488.817 1719.51 490.579 1723.17 C 493.3 1723.84 495.57 1724.33 498.329 1724.82 C 493.229 1724.86 493.44 1724.01 490.2 1726.58 C 488.762 1730.25 489.105 1733.17 489.129 1737.13 C 487.989 1742.87 487.178 1752.96 486.521 1759.13 C 452.288 1777.47 413.91 1758.65 409.023 1719.71 C 408.353 1714.37 406.938 1704.64 402.683 1701.16 C 398.633 1700.15 400.372 1700.08 395.856 1702.2 C 394.688 1697.84 394.985 1693.46 395.018 1688.93 z" fill="rgb(225,181,156)" transform="translate(0,0)"></path>
<path d="M 773.686 1011.79 C 795.309 1066.26 741.076 1106.06 709.509 1140.48 C 758.614 1125.05 778.018 1113.55 817.645 1078.56 C 806.299 1107.97 775.256 1128.83 752.322 1148.76 C 702.22 1192.31 686.768 1250.86 682.204 1314.98 C 681.556 1324.08 683.315 1342.52 681.037 1350.64 L 653.329 1244.42 C 649.605 1230.38 644.371 1208.04 639.427 1194.88 C 640.279 1184.8 703.874 1126.56 714.288 1115.78 C 745.629 1083.36 759.617 1053.09 773.686 1011.79 z" fill="rgb(176,96,76)" transform="translate(0,0)"></path>
<path d="M 397.295 1304.61 C 402.188 1307.71 415.657 1318.9 422.122 1323.09 C 471.491 1355.06 485.245 1339.61 531.62 1329.84 C 529.784 1337.66 528.626 1343.53 525.449 1350.96 C 497.667 1383.25 447.876 1371.12 420.292 1344.7 C 408.425 1333.34 401.389 1320.49 397.295 1304.61 z" fill="rgb(176,96,76)" transform="translate(0,0)"></path>
<path d="M 850.592 1261.38 C 851.47 1261.29 852.35 1261.23 853.231 1261.2 C 865.218 1260.83 872.221 1264.93 880.487 1272.81 C 831.527 1290.36 808.122 1303.15 774.718 1342.98 C 770.363 1348.77 766.133 1354.69 761.152 1359.94 C 767.373 1311.51 798.605 1266.51 850.592 1261.38 z" fill="rgb(176,96,76)" transform="translate(0,0)"></path>
<path d="M 877.537 1308.26 C 901.011 1305.59 913.19 1312.74 931.157 1325.92 C 894.789 1326.22 879.716 1325.88 845.457 1339.99 C 832.126 1345.37 822.922 1351.59 810.911 1359.21 C 821.287 1329.64 847.568 1313.24 877.537 1308.26 z" fill="rgb(176,96,76)" transform="translate(0,0)"></path>
<path d="M 551.875 1267.93 L 552.753 1268.72 C 552.42 1270.09 552.33 1270.46 551.502 1271.65 C 532.27 1299.28 496.015 1321.26 464.472 1298.98 C 458.872 1293.72 457.068 1291.28 452.63 1285.23 C 487.236 1288.05 520.55 1283.12 551.875 1267.93 z" fill="rgb(176,96,76)" transform="translate(0,0)"></path>
<path d="M 569.767 335.946 L 573.057 336.947 C 576.838 368.661 584.318 397.031 610.832 418.137 C 635.407 437.7 666.111 444.903 697.057 442.768 C 668.192 421.018 653.471 407.592 641.591 372.305 L 643.441 368.598 C 676.506 420.618 750.275 447.007 805.158 412.81 C 811.244 409.018 816.078 404.824 820.715 399.375 C 792.421 394.688 774.175 386.008 756.037 362.881 C 781.898 378.103 799.391 385.063 830 386.298 C 842.499 391.179 863.54 395.347 877.036 398.832 L 957.581 420.353 C 996.181 430.624 1001.13 423.85 1003.19 466.566 C 1003.16 470.231 1003.82 473.013 1002.11 475.629 L 1001.6 475.714 C 992.058 472.68 982.242 470.2 972.847 467.164 C 950.815 485.147 937.913 525.613 935.127 553.127 C 934.8 556.579 934.503 560.033 934.235 563.489 C 942.292 564.986 963.828 570.054 970.748 573.181 C 969.054 578.044 967.244 585.168 964.611 589.244 C 963.25 592.951 961.585 596.538 959.634 599.971 C 937.048 639.881 911.02 603.484 885.366 588.909 C 877.323 588.871 871.884 589.082 863.875 589.784 C 853.953 590.751 847.035 591.853 837.259 593.636 C 834.797 629.886 832.256 666.573 820.606 701.253 C 819.405 704.83 817.128 711.696 816.587 715.1 C 821.37 728.075 824.309 734.877 831.014 746.933 C 854.459 783.091 884.209 820.912 874.536 867.711 C 898.766 889.845 920.947 915.961 923.219 950.269 C 925.168 979.687 908.325 997.637 886.332 1013.71 L 885.211 1007.2 C 881.779 988.824 875.654 967.045 867.864 950.117 C 812.406 909.79 732.619 912.281 667.776 922.342 C 617.912 930.079 563.339 951.405 519.711 976.425 C 511.55 981.106 478.117 1003.53 472.276 1005.89 C 465.328 1013.27 456.342 1026.27 450.379 1034.87 L 447.932 1038.05 C 401.042 1000.44 439.18 956.193 459.06 918.208 C 458.509 898.242 458.577 865.831 462.556 846.293 C 463.664 834.168 468.941 808.134 471.332 795.089 C 481.186 741.327 476.401 705.914 461.924 653.525 C 459.308 643.465 456.252 632.613 454.504 622.445 C 434.758 640.554 402.529 669.573 373.895 655.637 L 362.886 650.493 L 366.479 646.382 C 371.238 641.242 399.956 612.949 404.464 609.604 C 402.938 591.825 396.971 574.713 387.111 559.839 C 374.592 540.744 358.356 529.58 336.061 524.937 C 324.662 538.448 309.334 557.699 297.375 570.004 C 295.886 566.535 295.352 564.842 294.35 561.289 C 293.609 559.857 292.932 558.392 292.32 556.9 C 286.564 542.713 283.073 519.407 289.211 504.884 C 289.299 504.48 289.343 504.063 289.474 503.67 C 296.644 482.02 371.387 450.111 393.52 438.872 C 394.402 437.274 395.324 435.698 396.283 434.145 C 427.607 383.107 468.524 354.384 526.055 340.782 L 529.076 340.581 C 528.024 380.016 543.483 403.452 578.651 421.397 C 563.165 390.569 561.585 369.241 569.767 335.946 z" fill="rgb(227,122,8)" transform="translate(0,0)"></path>
<path d="M 528.605 942.423 C 531.814 940.153 537.844 937.4 541.585 935.633 C 627.179 895.22 730.968 879.855 822.201 909.491 C 833.692 913.224 846.716 917.139 857.11 923.188 C 860.692 931.382 865.564 941.717 867.864 950.117 C 812.406 909.79 732.619 912.281 667.776 922.342 C 617.912 930.079 563.339 951.405 519.711 976.425 C 511.55 981.106 478.117 1003.53 472.276 1005.89 C 490.807 980.542 506.489 964.377 528.605 942.423 z" fill="rgb(176,96,76)" transform="translate(0,0)"></path>
<path d="M 462.556 846.293 C 468.537 840.364 477.116 829.537 483.334 822.834 C 534.116 768.097 587.885 736.984 663.121 733.881 L 666.563 736.329 C 654.149 739.21 641.337 744.953 629.586 749.914 C 570.079 775.037 529.941 819.865 492.723 870.871 C 485.707 880.486 466.88 911.923 459.06 918.208 C 458.509 898.242 458.577 865.831 462.556 846.293 z" fill="rgb(163,74,6)" transform="translate(0,0)"></path>
<path d="M 837.259 593.636 C 841.476 545.488 834.852 475.718 825.321 428.838 C 857.994 452.183 860.526 498.87 854.735 535.358 L 856.517 537.677 C 860.971 522.089 871.469 499.068 877.124 482.605 C 881.84 521.038 874.444 552.981 863.875 589.784 C 853.953 590.751 847.035 591.853 837.259 593.636 z" fill="rgb(163,74,6)" transform="translate(0,0)"></path>
<path d="M 856.517 537.677 C 856.243 538.23 855.27 540.695 854.45 540.605 C 854.337 540.594 854.235 540.532 854.173 540.437 C 853.502 539.43 854.463 536.387 854.735 535.358 L 856.517 537.677 z" fill="rgb(196,101,16)" transform="translate(0,0)"></path>
<path d="M 454.504 622.445 C 483.845 587.923 501.82 565.802 516.48 521.324 C 519.979 510.708 526.5 484.717 529.968 475.956 C 534.173 512.133 526.117 537.784 510.306 569.644 C 534.703 557.177 550.093 545.454 578.402 538.663 C 566.189 548.732 553.792 558.127 541.948 568.655 C 512.999 594.711 486.235 623.096 461.924 653.525 C 459.308 643.465 456.252 632.613 454.504 622.445 z" fill="rgb(163,74,6)" transform="translate(0,0)"></path>
<path d="M 292.1 510.175 C 296.635 505.612 296.852 503.232 303.683 500.557 C 318.184 494.88 335.301 503.271 348.677 509.417 C 344.535 514.447 339.971 519.777 336.061 524.937 C 324.662 538.448 309.334 557.699 297.375 570.004 C 295.886 566.535 295.352 564.842 294.35 561.289 C 292.31 540.247 285.816 536.292 292.1 510.175 z" fill="rgb(163,74,6)" transform="translate(0,0)"></path>
<path d="M 964.611 589.244 C 960.255 593.577 958.153 598.156 952.944 602.481 C 942.733 610.957 929.756 611.411 921.55 599.875 C 912.538 587.207 915.439 572.501 917.446 558.159 C 923.264 560.488 928.308 561.627 934.235 563.489 C 942.292 564.986 963.828 570.054 970.748 573.181 C 969.054 578.044 967.244 585.168 964.611 589.244 z" fill="rgb(163,74,6)" transform="translate(0,0)"></path>
<path d="M 450.379 1034.87 C 428.403 1007.1 459.456 984.115 481.15 968.944 C 494.961 959.285 513.209 949.222 528.605 942.423 C 506.489 964.377 490.807 980.542 472.276 1005.89 C 465.328 1013.27 456.342 1026.27 450.379 1034.87 z" fill="rgb(163,74,6)" transform="translate(0,0)"></path>
<path d="M 857.11 923.188 C 872.992 930.397 893.664 941.547 900.477 958.595 C 906.875 974.603 897.058 996.025 885.211 1007.2 C 881.779 988.824 875.654 967.045 867.864 950.117 C 865.564 941.717 860.692 931.382 857.11 923.188 z" fill="rgb(163,74,6)" transform="translate(0,0)"></path>
<path d="M 348.677 509.417 C 386.01 532.153 405.559 552.578 416.332 596.533 L 416.636 597.782 C 412.498 601.864 408.9 605.798 404.464 609.604 C 402.938 591.825 396.971 574.713 387.111 559.839 C 374.592 540.744 358.356 529.58 336.061 524.937 C 339.971 519.777 344.535 514.447 348.677 509.417 z" fill="rgb(176,96,76)" transform="translate(0,0)"></path>
<path d="M 816.587 715.1 C 821.37 728.075 824.309 734.877 831.014 746.933 C 822.456 776.104 780.663 767.512 756.997 766.11 C 790.797 749.97 799.981 749.268 816.587 715.1 z" fill="rgb(163,74,6)" transform="translate(0,0)"></path>
<path d="M 416.636 597.782 C 420.936 622.487 421.324 644.217 392.983 652.553 C 382.627 652.305 375.889 653.712 366.479 646.382 C 371.238 641.242 399.956 612.949 404.464 609.604 C 408.9 605.798 412.498 601.864 416.636 597.782 z" fill="rgb(163,74,6)" transform="translate(0,0)"></path>
<path d="M 960.081 463.373 C 964.141 464.87 968.632 465.95 972.847 467.164 C 950.815 485.147 937.913 525.613 935.127 553.127 C 934.8 556.579 934.503 560.033 934.235 563.489 C 928.308 561.627 923.264 560.488 917.446 558.159 C 924.501 523.903 937.919 490.691 960.081 463.373 z" fill="rgb(176,96,76)" transform="translate(0,0)"></path>
<path d="M 960.081 463.373 C 975.291 439.455 999.127 421.391 1000.77 462.067 C 1000.95 466.499 1001.46 471.228 1001.6 475.714 C 992.058 472.68 982.242 470.2 972.847 467.164 C 968.632 465.95 964.141 464.87 960.081 463.373 z" fill="rgb(163,74,6)" transform="translate(0,0)"></path>
<path d="M 663.121 733.881 C 665.096 733.936 674.085 733.93 666.563 736.329 L 663.121 733.881 z" fill="rgb(196,101,16)" transform="translate(0,0)"></path>
<path d="M 710.235 788.426 C 733.439 785.959 774.933 792.009 797.49 799.391 C 833.205 811.078 859.373 835.86 875.899 869.5 C 834.229 845.191 806.617 831.401 759.755 820.591 C 686.43 807.211 642.533 824.566 574.52 846.687 C 610.36 810.033 659.85 792.113 710.235 788.426 z" fill="rgb(163,74,6)" transform="translate(0,0)"></path>
<path d="M 633.119 0 L 661.452 0 C 670.663 1.30401 682.936 2.7119 691.943 5.46851 C 740.813 20.4243 786.056 59.0684 799.254 109.732 C 803.677 129.16 803.22 149.307 806.006 169.061 C 811.784 210.032 834.013 263.218 879.432 271.631 C 896 274.7 913.718 266.561 926.618 256.795 C 928.629 255.267 930.619 253.711 932.588 252.128 C 928.146 304.1 884.948 320.897 840.767 297.957 L 838.985 299.981 C 869.754 325.058 895.633 332.92 926.982 305.113 C 911.161 350.131 877.753 379.671 830 386.298 C 799.391 385.063 781.898 378.103 756.037 362.881 C 774.175 386.008 792.421 394.688 820.715 399.375 C 816.078 404.824 811.244 409.018 805.158 412.81 C 750.275 447.007 676.506 420.618 643.441 368.598 L 641.591 372.305 C 653.471 407.592 668.192 421.018 697.057 442.768 C 666.111 444.903 635.407 437.7 610.832 418.137 C 584.318 397.031 576.838 368.661 573.057 336.947 L 569.767 335.946 C 561.585 369.241 563.165 390.569 578.651 421.397 C 543.483 403.452 528.024 380.016 529.076 340.581 L 526.055 340.782 C 475.891 312.938 469.195 252.827 481.42 202.546 C 483.355 194.588 488.728 172.385 485.859 165.993 C 451.514 111.703 482.897 44.7547 544.455 29.9563 C 553.65 27.7459 562.517 28.0553 571.908 28.1059 C 590.273 9.11109 608.468 4.43663 633.119 0 z" fill="rgb(52,41,26)" transform="translate(0,0)"></path>
<path d="M 505.355 87.6181 C 495.802 135.652 499.189 168.755 532.175 207.096 C 532.303 198.838 532.69 169.006 541.146 165.085 C 566.988 153.105 574.743 191.353 571.781 209.838 C 566.044 245.642 541.69 274.744 505.95 245.195 C 515.253 269.911 527.223 280.631 552.867 287.53 C 536.893 304.783 531.284 317.147 529.076 340.581 L 526.055 340.782 C 475.891 312.938 469.195 252.827 481.42 202.546 C 483.355 194.588 488.728 172.385 485.859 165.993 C 486.762 135.182 487.692 115.1 505.355 87.6181 z" fill="rgb(225,181,156)" transform="translate(0,0)"></path>
<path d="M 569.767 335.946 C 570.166 335.019 571.928 329.798 573.234 329.884 C 573.718 330.522 573.1 335.812 573.057 336.947 L 569.767 335.946 z" fill="rgb(237,214,203)" transform="translate(0,0)"></path>
<path d="M 838.985 299.981 C 837.931 299.113 834.712 296.817 834.736 295.395 C 835.761 294.404 839.686 297.317 840.767 297.957 L 838.985 299.981 z" fill="rgb(237,214,203)" transform="translate(0,0)"></path>
<path d="M 641.591 372.305 C 641.392 371.451 639.515 365.094 640.614 364.846 C 641.786 365.39 642.767 367.537 643.441 368.598 L 641.591 372.305 z" fill="rgb(196,101,16)" transform="translate(0,0)"></path>
<path d="M 1118.82 1482.33 C 1123.81 1486.72 1125.81 1489.75 1129.65 1495.04 C 1155.77 1494.45 1176.83 1496.21 1197.18 1515.72 C 1199.38 1517.86 1201.54 1520.05 1203.65 1522.29 C 1215.49 1540.12 1217.29 1556.02 1213.09 1577.03 C 1207.32 1605.8 1188.12 1626.41 1179.52 1654.91 C 1172.68 1675.57 1174.34 1696.37 1171.23 1717.8 C 1164.14 1766.64 1137.25 1820.21 1096.07 1848.83 C 1080.27 1859.82 1056.41 1865.79 1038.52 1856.91 C 1006.12 1840.98 1002.1 1792.82 1011.64 1762 C 1016.94 1744.92 1024.01 1731.45 1026.76 1713.22 C 1031.01 1685.02 1029.52 1658.26 1028.86 1629.96 C 1028.43 1627.4 1019.08 1615.83 1016.19 1608.43 C 1016.77 1607.1 1017.38 1605.79 1018.03 1604.49 C 1021.89 1596.72 1024.75 1597.7 1030.86 1595.6 L 1031.72 1595.3 C 1038.33 1594.1 1041.63 1595.01 1048 1596.56 C 1050.81 1587.84 1053.52 1579.09 1056.12 1570.3 C 1038.41 1536.99 1054.35 1511.29 1076.57 1485.95 L 1077 1485.4 C 1086.52 1491.25 1110.48 1491.3 1118.14 1482.28 L 1118.82 1482.33 z" fill="rgb(135,52,41)" transform="translate(0,0)"></path>
<path d="M 1118.82 1482.33 C 1123.81 1486.72 1125.81 1489.75 1129.65 1495.04 C 1155.77 1494.45 1176.83 1496.21 1197.18 1515.72 C 1199.38 1517.86 1201.54 1520.05 1203.65 1522.29 C 1193.75 1520.64 1183.91 1518.98 1173.97 1521.36 C 1137.86 1530.02 1118.69 1564.29 1113.33 1598.58 C 1108.97 1626.45 1115.13 1653.74 1102.87 1680.02 C 1083.67 1723.86 1035.22 1744.86 1027.09 1795.39 C 1023.1 1820.17 1027.49 1835.41 1038.52 1856.91 C 1006.12 1840.98 1002.1 1792.82 1011.64 1762 C 1016.94 1744.92 1024.01 1731.45 1026.76 1713.22 C 1031.01 1685.02 1029.52 1658.26 1028.86 1629.96 C 1028.43 1627.4 1019.08 1615.83 1016.19 1608.43 C 1016.77 1607.1 1017.38 1605.79 1018.03 1604.49 C 1021.89 1596.72 1024.75 1597.7 1030.86 1595.6 L 1031.72 1595.3 C 1038.33 1594.1 1041.63 1595.01 1048 1596.56 C 1050.81 1587.84 1053.52 1579.09 1056.12 1570.3 C 1038.41 1536.99 1054.35 1511.29 1076.57 1485.95 L 1077 1485.4 C 1086.52 1491.25 1110.48 1491.3 1118.14 1482.28 L 1118.82 1482.33 z" fill="rgb(176,96,76)" transform="translate(0,0)"></path>
<path d="M 1003.19 466.566 C 1003.63 469.89 1003.93 472.266 1004.78 475.562 C 1010.2 478.914 1027.71 482.77 1034.53 484.714 C 1064.64 493.297 1085.29 502.169 1097.81 532.431 C 1120.76 586.991 1121.55 645.34 1120.07 703.417 C 1119.78 714.71 1117.3 747.579 1119.43 756.131 C 1129.46 796.318 1159.55 838.769 1136.68 881.286 C 1132.43 889.182 1120.56 897.726 1110.35 896.634 C 1097.88 893.823 1101.19 889.751 1088.11 897.32 C 1086.46 898.279 1077.21 895.442 1074.86 895.601 C 1063.08 896.625 1058.33 902.128 1047.18 894.714 C 1045.37 893.504 1043.59 892.242 1041.84 890.929 C 1037.68 896.344 1033.42 900.434 1026.28 901.029 C 1005.57 902.755 994.052 880.846 988.667 865.009 C 981.589 864.38 972.604 864.428 967.141 860.02 C 965.742 854.665 975.458 844.485 977.488 838.49 C 981.82 825.695 984.268 812.291 989.426 799.837 C 996.936 782.307 1012.98 775.98 1026.74 764.675 C 1033.79 758.873 1041.1 751.565 1047.69 745.044 C 1037.9 701.393 1016.12 624.439 1000.22 582.446 C 990.934 579.586 979.746 576.443 970.748 573.181 C 963.828 570.054 942.292 564.986 934.235 563.489 C 934.503 560.033 934.8 556.579 935.127 553.127 C 937.913 525.613 950.815 485.147 972.847 467.164 C 982.242 470.2 992.058 472.68 1001.6 475.714 L 1002.11 475.629 C 1003.82 473.013 1003.16 470.231 1003.19 466.566 z" fill="rgb(225,181,156)" transform="translate(0,0)"></path>
<path d="M 1013.24 811.43 C 1029.05 831.521 1038.34 825.919 1056.51 812.4 C 1065.65 805.592 1083.95 784.307 1094.48 783.71 C 1096.84 788.436 1074.29 818.466 1070.54 825.58 C 1086.46 826.958 1118.49 829.153 1115.83 851.872 C 1114.67 861.826 1107.06 870.871 1101.32 878.764 C 1101.82 861.311 1102.84 836.158 1077.63 842.418 C 1077.38 845.507 1080.28 850.727 1080.82 854.075 C 1082.05 861.735 1079.87 872.716 1078.12 880.033 C 1077.91 880.939 1077.76 882.962 1076.6 883.259 C 1075.72 882.538 1076.05 871.587 1076.06 869.803 C 1073.7 843.347 1059.2 835.14 1034.66 842.903 C 1049.51 858.868 1049.32 869.972 1043.13 890.271 C 1039.11 869.078 1033.52 840.032 1002.93 843.864 C 992.826 845.13 995.799 851.422 989.056 853.657 C 987.938 842.002 999.904 839.457 1009 838.451 C 1011.65 828.522 1012.33 821.711 1013.24 811.43 z" fill="rgb(176,96,76)" transform="translate(0,0)"></path>
<path d="M 1076.06 869.803 C 1076.97 873.487 1077.18 876.39 1078.12 880.033 C 1077.91 880.939 1077.76 882.962 1076.6 883.259 C 1075.72 882.538 1076.05 871.587 1076.06 869.803 z" fill="rgb(233,162,127)" transform="translate(0,0)"></path>
<path d="M 336.061 524.937 C 358.356 529.58 374.592 540.744 387.111 559.839 C 396.971 574.713 402.938 591.825 404.464 609.604 C 399.956 612.949 371.238 641.242 366.479 646.382 L 362.886 650.493 C 357.534 653.11 319.816 690.616 313.294 697.007 C 324.137 706.095 335.848 716.943 346.499 726.432 C 367.2 719.927 391.973 724.271 408.613 738.39 C 413.078 742.18 416.906 746.661 419.955 751.661 C 423.172 756.994 424.407 766.353 426.918 771.884 C 430.284 779.125 439.644 786.912 439.944 795.15 C 440.364 806.696 426.169 804.718 418.771 804.387 C 418.341 808.842 417.302 813.412 415.938 817.669 C 413.273 825.99 406.647 841.48 396.851 843.699 C 394.042 844.336 389.435 843.118 387.125 843.964 C 384.863 844.793 379.602 860.43 375.866 863.823 C 370.756 868.466 364.192 867.306 358.233 869.846 C 353.622 871.811 349.528 875.192 345.005 877.436 C 336.626 881.593 324.047 879.896 315.496 877.017 C 303.524 873.008 293.639 864.401 288.02 853.096 C 279.667 836.031 282.772 819.682 288.72 802.715 C 274.174 785.41 261.801 766.18 247.056 749.018 C 239.188 739.861 228.77 733.518 221.744 723.471 C 216.779 716.371 213.03 708.098 211.789 699.482 C 206.301 661.365 274.811 599.836 297.375 570.004 C 309.334 557.699 324.662 538.448 336.061 524.937 z" fill="rgb(225,181,156)" transform="translate(0,0)"></path>
<path d="M 306.271 841.655 C 324.347 834.609 330.357 825.358 345.049 814.756 C 367.221 798.757 375.571 779.308 391.442 757.753 C 396.227 768.547 400.678 779.752 407.508 789.368 C 397.887 788.925 390.958 789.339 383.361 796.271 C 377.883 801.256 374.705 808.28 374.579 815.685 C 374.308 825.744 379.11 834.161 385.567 841.462 C 373.741 846.624 363.637 796.535 344.052 835.552 C 343.548 850.158 345.053 853.699 352.153 866.342 C 339.691 858.051 340.637 854.945 331.98 844.447 C 324.976 843.076 319.541 842.537 312.366 843.354 C 311.18 843.543 302.196 845.053 302.51 843.02 C 303.485 842.15 305.023 841.924 306.271 841.655 z" fill="rgb(176,96,76)" transform="translate(0,0)"></path>
<path d="M 306.271 841.655 C 308.936 842.907 309.436 842.854 312.366 843.354 C 311.18 843.543 302.196 845.053 302.51 843.02 C 303.485 842.15 305.023 841.924 306.271 841.655 z" fill="rgb(185,127,106)" transform="translate(0,0)"></path>
<path d="M 395.856 1702.2 C 400.372 1700.08 398.633 1700.15 402.683 1701.16 C 406.938 1704.64 408.353 1714.37 409.023 1719.71 C 413.91 1758.65 452.288 1777.47 486.521 1759.13 C 487.178 1752.96 487.989 1742.87 489.129 1737.13 C 495.79 1739.38 500.182 1740.4 505.142 1745.63 C 516.285 1757.37 512.851 1777.41 507.725 1791.11 C 507.331 1792.16 506.911 1793.21 506.464 1794.24 C 512.155 1827.76 512.361 1842.5 507.125 1876.77 C 499.556 1881.23 498.788 1883.9 488.365 1888.39 C 455.144 1902.71 420.725 1893.01 395.143 1868.79 C 385.162 1859.33 376.515 1846.38 364.935 1839.13 C 347.561 1828.27 326.477 1823.92 307.83 1816.67 C 275.926 1804.53 252.014 1778.7 254.502 1742.95 C 254.817 1738.42 256.757 1728.68 254.737 1725.11 C 262.567 1713.8 271.675 1709.67 283.745 1705 C 313.425 1693.51 324.543 1710.87 348.851 1722.63 C 357.25 1726.7 369.212 1727.02 378.884 1726.79 C 380.711 1719.4 382.462 1716.09 386.413 1709.68 L 395.856 1702.2 z" fill="rgb(176,96,76)" transform="translate(0,0)"></path>
<path d="M 226.581 988.337 L 227.925 989.692 C 214.071 997.571 196.929 1011.76 184.34 1021.91 C 115.289 1077.6 61.3059 1155.66 38.7489 1242.1 C 12.793 1341.57 32.3624 1447.86 83.6163 1536.26 C 109.972 1581.72 142.124 1618.34 181.038 1653.24 C 191.282 1662.43 202.369 1670.78 212.809 1679.74 C 118.521 1625.05 41.0361 1534.02 12.6316 1427.76 C 8.24393 1410.78 5.10483 1393.5 3.2394 1376.06 C 2.51327 1369.71 1.23587 1353.06 0 1347.73 L 0 1315.27 C 1.41675 1309.2 2.68942 1293.5 3.51951 1286.56 C 5.32902 1271.89 7.94847 1257.32 11.3659 1242.94 C 34.9977 1144.96 115.988 1052.58 201.362 1002.6 C 209.681 997.732 218.355 993.375 226.581 988.337 z" fill="rgb(233,162,127)" transform="translate(0,0)"></path>
<path d="M 829.545 2043.22 C 939.639 2031.63 1032.03 2002.03 1125.5 1939.47 C 1203.9 1887 1267.02 1812.14 1303.96 1724.84 C 1318.55 1690.37 1324.24 1659.74 1331 1623.62 L 1331 1640.62 C 1326.55 1664.35 1326.68 1681.69 1320.14 1707.93 C 1294.68 1810.08 1232.31 1899.2 1145.06 1958.12 C 1051.36 2022.07 946.799 2048.4 834.387 2046.02 C 833.31 2045.72 828.977 2045.12 828.85 2044.17 C 829.082 2043.85 829.313 2043.54 829.545 2043.22 z" fill="rgb(233,162,127)" transform="translate(0,0)"></path>
<path d="M 254.737 1725.11 C 256.757 1728.68 254.817 1738.42 254.502 1742.95 C 252.014 1778.7 275.926 1804.53 307.83 1816.67 C 326.477 1823.92 347.561 1828.27 364.935 1839.13 C 376.515 1846.38 385.162 1859.33 395.143 1868.79 C 420.725 1893.01 455.144 1902.71 488.365 1888.39 C 498.788 1883.9 499.556 1881.23 507.125 1876.77 C 505.975 1903.12 492.78 1915.52 468.129 1920.04 C 411.875 1930.36 384.812 1879.35 344.855 1853.34 C 323.001 1840.95 300.576 1839.15 279.025 1825.37 C 246.562 1804.6 231.51 1759.13 254.737 1725.11 z" fill="rgb(135,52,41)" transform="translate(0,0)"></path>
<path d="M 834.387 2046.02 C 828.419 2046.09 822.45 2046.09 816.482 2046.03 C 815.044 2046.02 808.221 2046.16 807.666 2044.7 C 808.055 2044.39 827.602 2043.08 829.545 2043.22 C 829.313 2043.54 829.082 2043.85 828.85 2044.17 C 828.977 2045.12 833.31 2045.72 834.387 2046.02 z" fill="rgb(225,181,156)" transform="translate(0,0)"></path>
<path d="M 226.581 988.337 C 228.352 987.277 237.437 981.276 238.825 982.427 C 239.063 984.26 229.585 988.932 227.925 989.692 L 226.581 988.337 z" fill="rgb(237,214,203)" transform="translate(0,0)"></path>
<path d="M 237.516 1101.09 L 238.394 1103.23 C 231.943 1109.13 222.037 1120.86 216.51 1127.59 C 183.3 1167.4 159.952 1214.48 148.362 1265.02 C 127.255 1356.82 146.599 1450.56 196.088 1529.71 C 192.311 1526.06 187.122 1520.24 183.887 1516.01 C 137.663 1455.59 115.044 1375.39 123.661 1299.98 C 133.067 1217.67 173.913 1151.92 237.516 1101.09 z" fill="rgb(176,96,76)" transform="translate(0,0)"></path>
<path d="M 1095.7 1002.41 C 1201.32 1079.8 1242.49 1204.23 1194.18 1327.66 L 1192.69 1326.71 C 1201.92 1292.25 1203.38 1238.69 1198.49 1203.54 C 1190.15 1140.5 1163.67 1081.24 1122.27 1032.97 C 1115.19 1024.62 1102.52 1010.13 1094 1003.67 L 1095.7 1002.41 z" fill="rgb(233,162,127)" transform="translate(0,0)"></path>
<path d="M 237.516 1101.09 C 240.588 1097.53 246.616 1093.92 250.822 1091.73 C 246.574 1095.85 242.933 1099.39 238.394 1103.23 L 237.516 1101.09 z" fill="rgb(233,162,127)" transform="translate(0,0)"></path>
<path d="M 1194.18 1327.66 C 1193.87 1328.88 1192.48 1335.58 1190.88 1335.36 C 1190.19 1334.1 1192.22 1328.18 1192.69 1326.71 L 1194.18 1327.66 z" fill="rgb(237,214,203)" transform="translate(0,0)"></path>
<path d="M 1094 1003.67 C 1092.89 1002.81 1090.24 1000.8 1089.9 999.437 C 1091.06 997.8 1094.95 1001.76 1095.7 1002.41 L 1094 1003.67 z" fill="rgb(237,214,203)" transform="translate(0,0)"></path>
<metadata><recraft-signature>{"signed_by": "recraft", "signature_b64": "svS+d1asRWWfti6epjWs+E7wqNZ1SOU7bZ9uuOJTAzToCyDQPGTgXDsU4GF2c7LXMZ6HDlxKH3AHmhsW09GkAg==", "signing_algo": "Ed25519", "generation_timestamp": 1779093987, "identifier": "1e5d710f-75cc-4c11-bdcc-0385e5cc88ce"}</recraft-signature></metadata></svg>