<svg xmlns="http://www.w3.org/2000/svg" height="1024" preserveAspectRatio="none" style="display: block;" version="1.1" viewBox="0 0 2048 2048" width="1024">
<path d="M 0 0 L 2048 0 L 2048 2048 L 0 2048 L 0 0 z" fill="rgb(255,255,255)" transform="translate(0,0)"></path>
<path d="M 283.311 481.962 C 253.129 413.417 269.488 319.197 340.101 281.612 C 344.662 279.184 349.489 278.549 354.369 280.184 C 361.684 286.26 376.569 315.65 383.167 325.909 C 421.927 386.178 464.857 441.912 514.394 493.697 C 525.756 505.575 537.938 519.649 550.298 530.556 C 577.46 555.447 607.018 585.551 634.655 609.283 C 698.107 663.771 800.799 739.418 880.763 762.26 C 859.513 714.716 853.489 670.628 872.612 620.768 C 889.478 577.806 922.77 543.337 965.12 524.988 C 1005.52 507.078 1051.38 505.963 1092.61 521.889 C 1109.02 528.339 1123.89 537.203 1138.04 547.665 C 1150.86 544.646 1166.11 539.081 1179 534.998 C 1213.31 524.132 1247.67 512.974 1282.08 502.448 C 1286.73 501.344 1293.33 499.288 1297.52 502.52 C 1307.82 510.464 1297.12 522.28 1290.97 529.22 C 1271.6 556.614 1251.17 583.683 1231.03 610.523 C 1220.36 624.742 1208.07 644.421 1196.58 657.337 C 1198.22 697.779 1194.84 722.74 1176.49 760.074 L 1181.47 758.558 C 1253.67 796.285 1313.41 859.141 1342.26 935.673 C 1344.42 941.396 1352.76 966.513 1354.95 969.295 L 1354.59 970.149 C 1336.16 981.303 1318.58 989.929 1298.54 997.9 C 1295.47 999.124 1288.98 1001.31 1287.38 1003.8 C 1290.3 1039.14 1289.06 1078.95 1282.8 1113.99 C 1282.46 1115.89 1280.78 1124.44 1280.22 1125.68 L 1278.83 1135.58 C 1270.54 1177.81 1253.75 1210.85 1233.27 1247.92 C 1224.3 1266.48 1198.09 1299.14 1183.34 1313.09 C 1177.95 1301.13 1172.72 1289.22 1168.61 1276.74 C 1163.73 1266.1 1159.01 1258.24 1147.05 1253.88 C 1138.09 1250.66 1128.2 1251.32 1119.75 1255.7 C 1111.77 1259.91 1105.79 1267.11 1103.11 1275.72 C 1098.66 1289.84 1103.87 1299.89 1111.61 1311.18 C 1115.67 1316.7 1136.75 1345.04 1138.75 1349.41 C 1124.73 1357.32 1113.42 1363.7 1098.32 1369.67 C 1112.59 1401.85 1124.1 1435.91 1137.77 1467.04 C 1122.42 1471.49 1084.83 1473.75 1068.68 1474.11 L 1068.47 1473.15 C 1053.73 1480.21 958.53 1467.1 938.208 1465.51 L 937.461 1466.26 C 933.813 1463.77 879.035 1452.92 865.511 1446.85 C 875.058 1431.38 883.467 1414.03 892.994 1398.38 C 901.499 1384.4 910.875 1370.92 920.099 1357.41 C 913.268 1354.81 894.742 1342.21 887.421 1337.41 C 896.736 1326.9 912.038 1310.95 922.054 1301.76 C 939.774 1283.74 943.65 1258 920.431 1242.72 C 913 1237.78 903.873 1236.08 895.159 1238.01 C 882.113 1240.88 876.926 1248.49 870.502 1258.79 C 866.129 1268.05 852.084 1290.73 846.15 1300.15 C 826.513 1279.85 804.884 1247.71 792.354 1222.12 C 780.496 1198.62 765.402 1163.12 761.454 1137.35 C 717.773 1151.85 683.262 1163.66 635.862 1155.43 C 581.298 1143.05 535.099 1093.73 542.868 1035.64 C 542.995 1028.78 544.131 1022.37 545.272 1015.62 C 518.829 1015.92 493.328 1014.74 468.478 1004.81 C 449.337 998.438 425.148 979.522 414.128 962.725 C 391.478 928.199 389.53 899.276 396.411 860.501 C 401.587 844.686 406.659 833.939 415.279 819.915 C 360.021 803.972 315.831 777.351 298.275 719.85 C 295.635 710.292 294.441 700.394 294.731 690.483 C 295.567 664.085 306.645 639.048 325.62 620.676 C 337.109 610.079 343.144 606.447 356.787 598.88 C 325.391 565.398 298.45 525.408 283.311 481.962 z" fill="rgb(252,173,47)" transform="translate(0,0)"></path>
<path d="M 818.43 1134.03 C 842.198 1053.76 878.91 962.344 956.618 920.268 C 989.991 902.061 1029.26 897.971 1065.67 908.911 C 1162.08 938.499 1208.39 1056.25 1224.03 1147.24 C 1225.88 1158 1228.18 1188.25 1230.82 1196.3 L 1230.33 1197.85 C 1231.38 1207.98 1229.39 1243.68 1233.27 1247.92 C 1224.3 1266.48 1198.09 1299.14 1183.34 1313.09 C 1177.95 1301.13 1172.72 1289.22 1168.61 1276.74 C 1163.73 1266.1 1159.01 1258.24 1147.05 1253.88 C 1138.09 1250.66 1128.2 1251.32 1119.75 1255.7 C 1111.77 1259.91 1105.79 1267.11 1103.11 1275.72 C 1098.66 1289.84 1103.87 1299.89 1111.61 1311.18 C 1115.67 1316.7 1136.75 1345.04 1138.75 1349.41 C 1124.73 1357.32 1113.42 1363.7 1098.32 1369.67 C 1112.59 1401.85 1124.1 1435.91 1137.77 1467.04 C 1122.42 1471.49 1084.83 1473.75 1068.68 1474.11 L 1068.47 1473.15 C 1053.73 1480.21 958.53 1467.1 938.208 1465.51 L 937.461 1466.26 C 933.813 1463.77 879.035 1452.92 865.511 1446.85 C 875.058 1431.38 883.467 1414.03 892.994 1398.38 C 901.499 1384.4 910.875 1370.92 920.099 1357.41 C 913.268 1354.81 894.742 1342.21 887.421 1337.41 C 896.736 1326.9 912.038 1310.95 922.054 1301.76 C 939.774 1283.74 943.65 1258 920.431 1242.72 C 913 1237.78 903.873 1236.08 895.159 1238.01 C 882.113 1240.88 876.926 1248.49 870.502 1258.79 C 866.129 1268.05 852.084 1290.73 846.15 1300.15 C 826.513 1279.85 804.884 1247.71 792.354 1222.12 C 796.915 1215.56 813.304 1152.23 817.143 1139.08 L 818.43 1134.03 z" fill="rgb(250,198,136)" transform="translate(0,0)"></path>
<path d="M 920.099 1357.41 C 934.75 1364.14 951.201 1372.27 967.034 1375.4 C 997.258 1383.96 1029.06 1385.36 1059.92 1379.5 C 1074.06 1377.29 1084.9 1374.05 1098.32 1369.67 C 1112.59 1401.85 1124.1 1435.91 1137.77 1467.04 C 1122.42 1471.49 1084.83 1473.75 1068.68 1474.11 L 1068.47 1473.15 C 1053.73 1480.21 958.53 1467.1 938.208 1465.51 L 937.461 1466.26 C 933.813 1463.77 879.035 1452.92 865.511 1446.85 C 875.058 1431.38 883.467 1414.03 892.994 1398.38 C 901.499 1384.4 910.875 1370.92 920.099 1357.41 z" fill="rgb(104,67,168)" transform="translate(0,0)"></path>
<path d="M 920.099 1357.41 C 934.75 1364.14 951.201 1372.27 967.034 1375.4 C 958.307 1399.74 943.207 1441.05 938.208 1465.51 L 937.461 1466.26 C 933.813 1463.77 879.035 1452.92 865.511 1446.85 C 875.058 1431.38 883.467 1414.03 892.994 1398.38 C 901.499 1384.4 910.875 1370.92 920.099 1357.41 z" fill="rgb(135,104,198)" transform="translate(0,0)"></path>
<path d="M 1059.92 1379.5 C 1074.06 1377.29 1084.9 1374.05 1098.32 1369.67 C 1112.59 1401.85 1124.1 1435.91 1137.77 1467.04 C 1122.42 1471.49 1084.83 1473.75 1068.68 1474.11 L 1068.47 1473.15 C 1065.2 1439.95 1065.26 1414.88 1059.92 1379.5 z" fill="rgb(135,104,198)" transform="translate(0,0)"></path>
<path d="M 922.054 1301.76 C 932.602 1314.48 965.891 1325.14 981.573 1329.04 C 1022.8 1339.32 1075.06 1332.4 1111.61 1311.18 C 1115.67 1316.7 1136.75 1345.04 1138.75 1349.41 C 1124.73 1357.32 1113.42 1363.7 1098.32 1369.67 C 1084.9 1374.05 1074.06 1377.29 1059.92 1379.5 C 1029.06 1385.36 997.258 1383.96 967.034 1375.4 C 951.201 1372.27 934.75 1364.14 920.099 1357.41 C 913.268 1354.81 894.742 1342.21 887.421 1337.41 C 896.736 1326.9 912.038 1310.95 922.054 1301.76 z" fill="rgb(252,173,47)" transform="translate(0,0)"></path>
<path d="M 792.354 1222.12 C 796.915 1215.56 813.304 1152.23 817.143 1139.08 C 821.216 1149.94 824.228 1161.66 828.039 1172.62 C 836.647 1197.37 855.53 1238.39 870.502 1258.79 C 866.129 1268.05 852.084 1290.73 846.15 1300.15 C 826.513 1279.85 804.884 1247.71 792.354 1222.12 z" fill="rgb(252,173,47)" transform="translate(0,0)"></path>
<path d="M 1168.61 1276.74 C 1193.62 1252.9 1211.42 1226.59 1230.33 1197.85 C 1231.38 1207.98 1229.39 1243.68 1233.27 1247.92 C 1224.3 1266.48 1198.09 1299.14 1183.34 1313.09 C 1177.95 1301.13 1172.72 1289.22 1168.61 1276.74 z" fill="rgb(252,173,47)" transform="translate(0,0)"></path>
<path d="M 283.311 481.962 C 253.129 413.417 269.488 319.197 340.101 281.612 C 344.662 279.184 349.489 278.549 354.369 280.184 C 361.684 286.26 376.569 315.65 383.167 325.909 C 421.927 386.178 464.857 441.912 514.394 493.697 C 525.756 505.575 537.938 519.649 550.298 530.556 C 521.17 573.753 512.15 629.229 515.649 680.504 C 523.038 788.768 583.584 895.875 674.048 956.45 C 683.199 962.465 692.597 968.097 702.216 973.33 L 702.371 973.779 C 696.877 990.47 690.315 1011.36 686.489 1028.34 C 678.987 1061.65 676.616 1085.44 660.71 1116.96 C 650.856 1136.49 646.876 1139.27 635.862 1155.43 C 581.298 1143.05 535.099 1093.73 542.868 1035.64 C 542.995 1028.78 544.131 1022.37 545.272 1015.62 C 518.829 1015.92 493.328 1014.74 468.478 1004.81 C 449.337 998.438 425.148 979.522 414.128 962.725 C 391.478 928.199 389.53 899.276 396.411 860.501 C 401.587 844.686 406.659 833.939 415.279 819.915 C 360.021 803.972 315.831 777.351 298.275 719.85 C 295.635 710.292 294.441 700.394 294.731 690.483 C 295.567 664.085 306.645 639.048 325.62 620.676 C 337.109 610.079 343.144 606.447 356.787 598.88 C 325.391 565.398 298.45 525.408 283.311 481.962 z" fill="rgb(135,104,198)" transform="translate(0,0)"></path>
<path d="M 298.275 719.85 C 303.83 718.819 328.946 739.661 336.049 744.383 C 398.361 785.81 455.899 799.412 528.67 810.821 C 518.972 815.59 490.172 826.316 479.332 830.207 C 461.502 836.606 413.025 858.738 396.411 860.501 C 401.587 844.686 406.659 833.939 415.279 819.915 C 360.021 803.972 315.831 777.351 298.275 719.85 z" fill="rgb(104,67,168)" transform="translate(0,0)"></path>
<path d="M 283.311 481.962 L 285.937 481.488 C 291.541 485.541 304.93 501.805 310.599 507.565 C 326.989 524.044 343.818 540.079 361.069 555.653 C 379.809 572.839 399.221 589.276 419.259 604.928 C 430.032 613.415 450.6 628.481 460.177 637.25 C 445.185 636.866 334.614 624.748 325.62 620.676 C 337.109 610.079 343.144 606.447 356.787 598.88 C 325.391 565.398 298.45 525.408 283.311 481.962 z" fill="rgb(104,67,168)" transform="translate(0,0)"></path>
<path d="M 468.478 1004.81 C 474.187 1001.32 495.276 994.928 502.889 992.374 L 561.002 972.416 C 576.282 967.119 607.667 954.72 621.556 951.193 C 597.548 986.211 567.637 1019.46 543.417 1055.19 C 543.307 1049.81 543.389 1040.71 542.868 1035.64 C 542.995 1028.78 544.131 1022.37 545.272 1015.62 C 518.829 1015.92 493.328 1014.74 468.478 1004.81 z" fill="rgb(104,67,168)" transform="translate(0,0)"></path>
<path d="M 1176.49 760.074 L 1181.47 758.558 C 1253.67 796.285 1313.41 859.141 1342.26 935.673 C 1344.42 941.396 1352.76 966.513 1354.95 969.295 L 1354.59 970.149 C 1336.16 981.303 1318.58 989.929 1298.54 997.9 C 1295.47 999.124 1288.98 1001.31 1287.38 1003.8 C 1286.74 1001.36 1287 1002.85 1286.85 1000.73 C 1286.02 989.152 1283.77 975.675 1280.9 964.378 C 1260.32 883.57 1225.06 833.114 1155.21 789.446 C 1162.52 779.813 1169.61 770.02 1176.49 760.074 z" fill="rgb(222,133,7)" transform="translate(0,0)"></path>
<path d="M 702.371 973.779 C 714.791 980.579 724.753 985.548 737.857 990.963 C 742.876 993.037 757.78 998.643 761.812 1000.85 C 754.286 1040.9 752.287 1079.36 759.047 1119.66 C 759.958 1125.09 761.016 1131.97 761.454 1137.35 C 717.773 1151.85 683.262 1163.66 635.862 1155.43 C 646.876 1139.27 650.856 1136.49 660.71 1116.96 C 676.616 1085.44 678.987 1061.65 686.489 1028.34 C 690.315 1011.36 696.877 990.47 702.371 973.779 z" fill="rgb(104,67,168)" transform="translate(0,0)"></path>
<path d="M 882.464 764.873 C 886.69 772.605 890.847 780.374 894.932 788.181 C 836.736 826.912 804.547 870.232 780.611 935.848 C 770.922 957.037 766.668 978.289 761.812 1000.85 C 757.78 998.643 742.876 993.037 737.857 990.963 C 724.753 985.548 714.791 980.579 702.371 973.779 L 702.216 973.33 C 705.565 970.243 712.55 952.997 714.987 947.693 C 729.216 916.733 748.901 890.157 770.715 864.322 C 803.491 825.506 844.197 797.583 882.464 764.873 z" fill="rgb(222,133,7)" transform="translate(0,0)"></path>
<path d="M 1138.04 547.665 C 1150.86 544.646 1166.11 539.081 1179 534.998 C 1213.31 524.132 1247.67 512.974 1282.08 502.448 C 1286.73 501.344 1293.33 499.288 1297.52 502.52 C 1307.82 510.464 1297.12 522.28 1290.97 529.22 C 1271.6 556.614 1251.17 583.683 1231.03 610.523 C 1220.36 624.742 1208.07 644.421 1196.58 657.337 C 1193.87 645.582 1191.73 633.329 1188.07 621.902 C 1176.78 588.469 1162.34 571.237 1138.04 547.665 z" fill="rgb(239,107,29)" transform="translate(0,0)"></path>
<path d="M 1188.07 621.902 C 1220.83 592.301 1252.49 560.449 1285.43 530.956 C 1287.12 529.444 1288.81 529.262 1290.97 529.22 C 1271.6 556.614 1251.17 583.683 1231.03 610.523 C 1220.36 624.742 1208.07 644.421 1196.58 657.337 C 1193.87 645.582 1191.73 633.329 1188.07 621.902 z" fill="rgb(198,89,23)" transform="translate(0,0)"></path>
<path d="M 761.812 1000.85 C 766.668 978.289 770.922 957.037 780.611 935.848 C 783.59 941.153 785.697 979.392 786.096 988.785 C 787.036 1010.9 810.017 1124.12 818.43 1134.03 L 817.143 1139.08 C 813.304 1152.23 796.915 1215.56 792.354 1222.12 C 780.496 1198.62 765.402 1163.12 761.454 1137.35 C 761.016 1131.97 759.958 1125.09 759.047 1119.66 C 752.287 1079.36 754.286 1040.9 761.812 1000.85 z" fill="rgb(243,154,21)" transform="translate(0,0)"></path>
<path d="M 1233.49 1242.67 C 1249.48 1216.36 1262.02 1188.11 1270.8 1158.6 C 1272.86 1151.51 1277.12 1128.56 1280.22 1125.68 L 1278.83 1135.58 C 1270.54 1177.81 1253.75 1210.85 1233.27 1247.92 C 1229.39 1243.68 1231.38 1207.98 1230.33 1197.85 L 1230.82 1196.3 C 1232.95 1201.75 1233.4 1235.17 1233.49 1242.67 z" fill="rgb(243,154,21)" transform="translate(0,0)"></path>
<path d="M 1051.06 594.736 C 1063.35 592.532 1075.88 597.109 1083.85 606.717 C 1091.82 616.324 1094.01 629.478 1089.58 641.149 C 1085.15 652.821 1074.78 661.207 1062.44 663.102 C 1043.69 665.982 1026.11 653.25 1022.99 634.537 C 1019.88 615.823 1032.39 598.084 1051.06 594.736 z" fill="rgb(0,0,0)" transform="translate(0,0)"></path>
<path d="M 1499.57 531.046 C 1547.46 484.087 1591.25 433.113 1630.44 378.684 C 1644.86 358.523 1658.53 337.841 1671.43 316.681 C 1677.11 307.45 1689.2 283.597 1696.99 278.796 C 1700.03 278.419 1703.34 278.447 1706.15 279.865 C 1777.29 315.786 1796.61 408.316 1768.62 477.687 C 1752.3 521.971 1726.29 565.835 1693.06 599.664 C 1707.14 605.668 1713.35 611.177 1725.13 621.229 C 1745.22 642.72 1755.42 668.209 1754.51 697.862 C 1754.35 702.979 1753.29 714.576 1751.51 719.172 C 1738.06 773.4 1686.62 807.344 1634.64 818.948 C 1643.74 833.763 1649.46 844.937 1653.67 861.845 C 1659.93 898.699 1656.73 932.052 1634.62 963.499 C 1621.28 982.136 1602.75 996.441 1581.35 1004.64 C 1552.9 1014.89 1534.77 1015.49 1504.61 1015.05 C 1506.59 1027.3 1508.41 1041.49 1507.12 1053.91 C 1504.4 1083.52 1490.05 1110.84 1467.21 1129.89 C 1454.22 1140.76 1428.91 1153.86 1412.19 1155.64 C 1368.97 1164.43 1319.7 1148.92 1278.83 1135.58 L 1280.22 1125.68 C 1280.78 1124.44 1282.46 1115.89 1282.8 1113.99 C 1289.06 1078.95 1290.3 1039.14 1287.38 1003.8 C 1288.98 1001.31 1295.47 999.124 1298.54 997.9 C 1318.58 989.929 1336.16 981.303 1354.59 970.149 L 1354.95 969.295 C 1352.76 966.513 1344.42 941.396 1342.26 935.673 C 1313.41 859.141 1253.67 796.285 1181.47 758.558 C 1220.3 744.972 1257.38 728.177 1291.95 705.674 C 1367.99 656.168 1435.5 594.971 1499.57 531.046 z" fill="rgb(135,104,198)" transform="translate(0,0)"></path>
<path d="M 1499.57 531.046 C 1585.62 680.376 1495.45 887.48 1354.95 969.295 C 1352.76 966.513 1344.42 941.396 1342.26 935.673 C 1313.41 859.141 1253.67 796.285 1181.47 758.558 C 1220.3 744.972 1257.38 728.177 1291.95 705.674 C 1367.99 656.168 1435.5 594.971 1499.57 531.046 z" fill="rgb(252,173,47)" transform="translate(0,0)"></path>
<path d="M 1354.59 970.149 C 1357.65 986.029 1361.28 1004.88 1362.96 1020.77 C 1366.46 1053.91 1366.18 1080.46 1382.07 1111.16 C 1388.1 1122.81 1394.26 1131.27 1402.23 1141.83 C 1404.48 1144.81 1410.79 1152.85 1412.19 1155.64 C 1368.97 1164.43 1319.7 1148.92 1278.83 1135.58 L 1280.22 1125.68 C 1280.78 1124.44 1282.46 1115.89 1282.8 1113.99 C 1289.06 1078.95 1290.3 1039.14 1287.38 1003.8 C 1288.98 1001.31 1295.47 999.124 1298.54 997.9 C 1318.58 989.929 1336.16 981.303 1354.59 970.149 z" fill="rgb(104,67,168)" transform="translate(0,0)"></path>
<path d="M 1523.89 811.491 C 1543.84 807.683 1563.73 803.788 1583.64 799.786 C 1639.93 788.477 1691.05 761.073 1737.37 727.908 C 1740.85 725.415 1747.54 719.916 1751.51 719.172 C 1738.06 773.4 1686.62 807.344 1634.64 818.948 C 1643.74 833.763 1649.46 844.937 1653.67 861.845 C 1643.33 860.711 1537.47 818.431 1523.89 811.491 z" fill="rgb(104,67,168)" transform="translate(0,0)"></path>
<path d="M 1589.6 638.372 C 1600.9 627.84 1620.8 613.625 1633.52 603.568 C 1652.41 588.381 1670.77 572.546 1688.57 556.09 C 1711.46 534.999 1733.3 511.991 1754.75 489.415 C 1759 484.937 1762.22 480.307 1767.32 476.702 L 1768.62 477.687 C 1752.3 521.971 1726.29 565.835 1693.06 599.664 C 1707.14 605.668 1713.35 611.177 1725.13 621.229 C 1711.58 624.554 1688.83 626.878 1674.63 628.579 L 1589.6 638.372 z" fill="rgb(104,67,168)" transform="translate(0,0)"></path>
<path d="M 1426.78 951.758 C 1437.46 953.942 1578.08 1001.86 1581.35 1004.64 C 1552.9 1014.89 1534.77 1015.49 1504.61 1015.05 C 1506.59 1027.3 1508.41 1041.49 1507.12 1053.91 C 1500.62 1048.4 1484.66 1026.13 1478.48 1018.02 C 1461.3 995.46 1445.28 973.419 1426.78 951.758 z" fill="rgb(104,67,168)" transform="translate(0,0)"></path>
<path d="M 865.511 1446.85 C 879.035 1452.92 933.813 1463.77 937.461 1466.26 L 938.208 1465.51 C 958.53 1467.1 1053.73 1480.21 1068.47 1473.15 L 1068.68 1474.11 C 1084.83 1473.75 1122.42 1471.49 1137.77 1467.04 C 1150.14 1501.2 1193.19 1639.75 1187.41 1669.87 C 1184.72 1688.89 1176.12 1706.39 1160.57 1718.15 C 1146.51 1728.86 1128.77 1733.57 1111.25 1731.24 C 1095.1 1728.95 1080.58 1720.18 1071.04 1706.95 C 1068.29 1703.2 1065.48 1698 1063.26 1693.84 C 1062.98 1716.09 1050.56 1742.18 1034.29 1757.24 C 999.743 1789.22 943.144 1788.48 911.54 1752.47 C 892.726 1731.04 888 1712.07 889.105 1684.06 C 881.987 1694.84 873.952 1702.51 862.103 1707.87 C 847.097 1714.61 830.046 1715.21 814.605 1709.54 C 786.977 1699.1 767.809 1668.58 773.044 1639.1 C 774.372 1631.62 776.611 1626.12 779.404 1619.1 C 782.781 1609.52 796.787 1581.78 801.573 1571.79 C 821.502 1529.45 842.826 1487.78 865.511 1446.85 z" fill="rgb(135,104,198)" transform="translate(0,0)"></path>
<path d="M 865.511 1446.85 C 879.035 1452.92 933.813 1463.77 937.461 1466.26 C 919.119 1524.59 903.604 1600.64 892.222 1660.24 C 891.868 1664.04 890.381 1681.02 889.105 1684.06 C 881.987 1694.84 873.952 1702.51 862.103 1707.87 C 847.097 1714.61 830.046 1715.21 814.605 1709.54 C 786.977 1699.1 767.809 1668.58 773.044 1639.1 C 774.372 1631.62 776.611 1626.12 779.404 1619.1 C 782.781 1609.52 796.787 1581.78 801.573 1571.79 C 821.502 1529.45 842.826 1487.78 865.511 1446.85 z" fill="rgb(177,154,220)" transform="translate(0,0)"></path>
<path d="M 779.404 1619.1 C 804.316 1669.17 840.453 1681.71 892.222 1660.24 C 891.868 1664.04 890.381 1681.02 889.105 1684.06 C 881.987 1694.84 873.952 1702.51 862.103 1707.87 C 847.097 1714.61 830.046 1715.21 814.605 1709.54 C 786.977 1699.1 767.809 1668.58 773.044 1639.1 C 774.372 1631.62 776.611 1626.12 779.404 1619.1 z" fill="rgb(135,104,198)" transform="translate(0,0)"></path>
<path d="M 1137.77 1467.04 C 1150.14 1501.2 1193.19 1639.75 1187.41 1669.87 C 1184.72 1688.89 1176.12 1706.39 1160.57 1718.15 C 1146.51 1728.86 1128.77 1733.57 1111.25 1731.24 C 1095.1 1728.95 1080.58 1720.18 1071.04 1706.95 C 1068.29 1703.2 1065.48 1698 1063.26 1693.84 C 1063.8 1685.86 1063.37 1674.73 1064.79 1667.74 C 1072.01 1604.61 1071.43 1537.53 1068.68 1474.11 C 1084.83 1473.75 1122.42 1471.49 1137.77 1467.04 z" fill="rgb(177,154,220)" transform="translate(0,0)"></path>
<path d="M 1064.79 1667.74 C 1064.93 1670.81 1064.54 1676.01 1067.79 1677.76 C 1097.38 1693.67 1136.04 1695.63 1166.66 1681.1 C 1171.05 1679.01 1184.79 1669.43 1187.41 1669.87 C 1184.72 1688.89 1176.12 1706.39 1160.57 1718.15 C 1146.51 1728.86 1128.77 1733.57 1111.25 1731.24 C 1095.1 1728.95 1080.58 1720.18 1071.04 1706.95 C 1068.29 1703.2 1065.48 1698 1063.26 1693.84 C 1063.8 1685.86 1063.37 1674.73 1064.79 1667.74 z" fill="rgb(135,104,198)" transform="translate(0,0)"></path>
<path d="M 870.502 1258.79 C 876.926 1248.49 882.113 1240.88 895.159 1238.01 C 903.873 1236.08 913 1237.78 920.431 1242.72 C 943.65 1258 939.774 1283.74 922.054 1301.76 C 912.038 1310.95 896.736 1326.9 887.421 1337.41 C 846.102 1381.84 805.605 1427.02 765.949 1472.94 C 765.744 1501.49 765.776 1530.04 766.045 1558.59 C 766.1 1572.32 766.425 1586.05 765.707 1599.81 C 765.563 1607.47 760.325 1612.06 753.161 1612.98 C 747.423 1613.95 740.328 1608.02 740.283 1602.22 C 740.074 1575.69 739.735 1549.01 739.34 1522.48 C 729.092 1537.62 717.166 1552.99 706.542 1568.09 C 697.876 1579.7 690.069 1591.98 680.119 1602.55 C 672.208 1610.95 658.814 1605.75 657.356 1595.12 C 657 1592.54 657.441 1589.92 658.62 1587.6 C 661.838 1581.16 679.929 1558.11 685.251 1551.05 C 697.764 1534.45 710.069 1517.07 722.633 1500.59 C 706.445 1509.56 689.477 1515.58 672.486 1522.96 C 668.362 1524.75 652.657 1532.28 649.539 1533.17 C 647.284 1533.8 644.912 1533.88 642.618 1533.42 C 630.164 1530.94 628.69 1516.08 640.055 1510.39 C 649.893 1505.47 660.202 1501.41 670.319 1497.04 L 747.533 1464.43 C 780.951 1410.92 813.275 1354.33 846.15 1300.15 C 852.084 1290.73 866.129 1268.05 870.502 1258.79 z" fill="rgb(239,107,29)" transform="translate(0,0)"></path>
<path d="M 1111.61 1311.18 C 1103.87 1299.89 1098.66 1289.84 1103.11 1275.72 C 1105.79 1267.11 1111.77 1259.91 1119.75 1255.7 C 1128.2 1251.32 1138.09 1250.66 1147.05 1253.88 C 1159.01 1258.24 1163.73 1266.1 1168.61 1276.74 C 1172.72 1289.22 1177.95 1301.13 1183.34 1313.09 L 1230.78 1429.23 C 1236.95 1443.95 1245.63 1466.36 1252.33 1479.88 L 1253.29 1480.55 C 1282 1500.02 1317.94 1515.65 1347.78 1533.79 C 1352.97 1536.95 1360.64 1540.51 1361.66 1547.06 C 1362.22 1550.4 1361.39 1553.83 1359.38 1556.55 C 1357.86 1558.63 1355.34 1560.56 1352.7 1560.83 C 1341.49 1561.98 1288.37 1529.08 1275.44 1521.79 C 1292.87 1549.84 1311.45 1582 1327.18 1610.87 C 1332.99 1621.53 1315.92 1645.89 1297.57 1613.1 C 1283.93 1588.74 1267.41 1559.06 1253.01 1535.15 C 1251.63 1552.15 1249.5 1569.04 1247.65 1585.99 C 1246.66 1594.98 1246.48 1604.91 1244.47 1613.7 C 1243.76 1616.83 1241.93 1620.29 1239.25 1622.16 C 1236.39 1624.14 1232.36 1624.51 1229.03 1623.71 C 1225.5 1622.86 1221.86 1620.45 1220.23 1617.12 C 1216.84 1610.21 1229.81 1505.84 1231.24 1489.48 C 1205.25 1447.27 1176.38 1406.65 1149.1 1365.27 C 1145.67 1360.07 1142.34 1354.43 1138.75 1349.41 C 1136.75 1345.04 1115.67 1316.7 1111.61 1311.18 z" fill="rgb(239,107,29)" transform="translate(0,0)"></path>
<path d="M 1754.38 867.083 C 1755.94 867.308 1755.9 867.255 1757.22 867.584 C 1761.57 868.665 1765.14 870.341 1767.37 874.459 C 1775.88 890.225 1738.16 1007.21 1729.6 1029.35 C 1675.14 1170.17 1582.87 1301.37 1457.7 1387.78 C 1437.79 1401.53 1416.52 1416.82 1394.32 1426.62 C 1388.42 1426.08 1381.66 1423.32 1378.4 1418.17 C 1375.77 1406.84 1388.79 1398.94 1397.26 1394.33 C 1411.52 1386.59 1424.9 1377.83 1438.25 1368.64 C 1481.82 1338.94 1521.48 1303.88 1556.31 1264.29 C 1627.91 1183.57 1690.5 1076.79 1720.69 972.893 C 1725.52 956.78 1729.85 940.522 1733.67 924.141 C 1737.12 908.707 1739.63 889.661 1743.49 874.822 C 1744.55 870.792 1750.54 868.398 1754.38 867.083 z" fill="rgb(252,173,47)" transform="translate(0,0)"></path>
<path d="M 290.688 881.023 C 292.754 880.85 295.496 880.606 297.534 880.686 C 299.44 880.769 301.297 881.308 302.951 882.259 C 311.106 887.033 314.398 922.854 316.902 933.536 C 354.472 1093.83 451.607 1256.76 584.662 1355.29 C 595.344 1363.29 606.228 1371.02 617.303 1378.47 C 631.41 1387.9 652.601 1398.77 665.286 1409.78 C 666.593 1410.91 667.125 1415.54 666.567 1417.57 C 664.946 1423.45 662.232 1425.33 657.391 1428.15 C 643.486 1428.04 626.889 1416.26 615.111 1408.8 C 449.95 1304.17 333.915 1125.14 290.383 935.908 C 287.049 921.419 281.817 904.41 283.187 889.614 C 283.581 885.774 287.69 883 290.688 881.023 z" fill="rgb(252,173,47)" transform="translate(0,0)"></path>
<path d="M 1760.8 1110.11 C 1779.15 1109.65 1779.9 1120.14 1775.77 1135.51 C 1766.02 1171.76 1754.47 1208.54 1739.36 1242.94 C 1675.82 1387.38 1565.62 1506.3 1426.43 1580.63 C 1417.19 1582.2 1409.4 1574.96 1411.71 1565.57 C 1414.3 1555.03 1430.21 1549.28 1439.33 1543.79 C 1453.22 1535.27 1466.88 1526.38 1480.29 1517.11 C 1573.03 1453.3 1650.82 1359.74 1701.41 1259.51 C 1719.13 1224.29 1733.33 1187.39 1743.77 1149.37 C 1745.93 1141.46 1750.74 1118.75 1755.96 1113.5 C 1756.48 1112.97 1759.91 1110.68 1760.8 1110.11 z" fill="rgb(239,107,29)" transform="translate(0,0)"></path>
<path d="M 1757.25 1361.97 C 1761.37 1361.7 1764.76 1361.61 1768.47 1363.63 C 1771.41 1365.23 1773.41 1367.72 1774.25 1370.97 C 1779.01 1389.32 1732.33 1468.5 1720.37 1487.21 C 1637.87 1616.36 1509.69 1719.61 1358.21 1753.01 C 1340.67 1755.42 1331.63 1732.03 1355.62 1726.52 C 1425.41 1710.49 1487.13 1680.12 1545.01 1638.19 C 1608.91 1591.22 1662.9 1532.09 1703.86 1464.18 C 1722.19 1433.75 1736.77 1401.3 1751.04 1368.84 C 1752.22 1366.15 1755.01 1363.77 1757.25 1361.97 z" fill="rgb(252,173,47)" transform="translate(0,0)"></path>
<path d="M 286.238 1363.98 C 296.202 1365.47 299.216 1368.65 302.787 1378.1 C 307.505 1390.59 311.692 1403.03 317.34 1415.14 C 345.287 1473.77 382.352 1527.6 427.156 1574.62 C 477.785 1628.51 538.694 1671.71 606.289 1701.68 C 633.225 1713.46 658.002 1720.57 686.363 1727.6 C 702.802 1731.67 702.704 1745.06 687.604 1754.39 C 679.911 1753.65 672.455 1751.94 664.996 1749.95 C 517.822 1710.73 391.069 1600.33 315.985 1469.82 C 308.572 1456.93 271.255 1384.4 275.391 1373.12 C 277.352 1367.78 281.417 1366.14 286.238 1363.98 z" fill="rgb(252,173,47)" transform="translate(0,0)"></path>
<path d="M 280.021 1114.85 C 298.384 1114.13 297.349 1126.2 301.047 1141.21 C 303.722 1152.55 306.756 1163.8 310.144 1174.95 C 323.271 1218.31 341.044 1260.12 363.153 1299.67 C 406.199 1377.73 463.411 1447.08 531.86 1504.19 C 543.338 1513.79 556.484 1523.01 568.516 1532.04 C 579.08 1539.97 610.933 1555.04 585.521 1569.17 L 585.098 1569.22 C 573.576 1570.68 556.122 1556.23 546.586 1549.28 C 482.68 1502.68 429.17 1445.71 382.821 1381.86 C 335.772 1315.88 300.732 1242.12 279.31 1163.97 C 276.292 1153 270.658 1135.88 272.214 1124.73 C 272.875 1120 276.406 1117.48 280.021 1114.85 z" fill="rgb(239,107,29)" transform="translate(0,0)"></path>
<metadata><recraft-signature>{"signed_by": "recraft", "signature_b64": "62pSlrgaR/FOChVbwyosSHczNzOhjuPw7ONTUfm9qPpNhayBX5V70tLH68GaU1zH1irRs+04LyWeNhTz01gxCw==", "signing_algo": "Ed25519", "generation_timestamp": 1779094032, "identifier": "5025978a-fb20-40fb-b52e-e423ea77673b"}</recraft-signature></metadata></svg>