<svg xmlns="http://www.w3.org/2000/svg" height="1216" preserveAspectRatio="none" style="display: block;" version="1.1" viewBox="0 0 1509 2048" width="896">
<defs>
	<linearGradient gradientUnits="userSpaceOnUse" id="Gradient1" x1="1244.69" x2="1261.24" y1="1357.66" y2="1393.4">
		<stop class="stop0" offset="0" stop-color="rgb(29,19,12)" stop-opacity="1"></stop>
		<stop class="stop1" offset="1" stop-color="rgb(61,39,27)" stop-opacity="1"></stop>
	</linearGradient>
	<linearGradient gradientUnits="userSpaceOnUse" id="Gradient2" x1="944.921" x2="1006.1" y1="1321.34" y2="1430.63">
		<stop class="stop0" offset="0" stop-color="rgb(0,0,0)" stop-opacity="1"></stop>
		<stop class="stop1" offset="1" stop-color="rgb(59,38,26)" stop-opacity="1"></stop>
	</linearGradient>
</defs>
<path d="M 0 0 L 1509 0 L 1509 2048 L 0 2048 L 0 0 z" fill="rgb(255,255,255)" transform="translate(0,0)"></path>
<path d="M 667.951 917.576 C 736.967 936.542 791.98 935.582 859.896 911.491 L 862.438 913.168 C 861.384 920.691 862.02 928.142 861.17 934.356 C 861.316 953.139 858.969 973.565 859.603 991.666 C 861.209 1037.54 925.714 1016.23 951.138 1005.9 C 985.891 991.78 1011.03 997.934 1043.39 1016.06 C 1049.56 1019.32 1065.71 1025.45 1073.81 1029.03 C 1078.46 1019.68 1082.2 1012.98 1088.3 1004.63 C 1109.77 975.301 1150.66 957.878 1182.02 983.253 C 1184.5 985.257 1187.41 987.32 1189.98 989.299 C 1179.53 1010.19 1156.81 1064.69 1154.33 1086.28 C 1184.66 1107.45 1216.05 1134.27 1244.31 1158.07 C 1258.17 1169.74 1284.32 1191.36 1294.7 1205 C 1305.03 1218.65 1311.94 1234.57 1314.88 1251.44 C 1318.85 1274.23 1315.55 1301.12 1302.86 1321.35 C 1299.13 1327.3 1288.8 1334.96 1289.19 1341.83 L 1291.48 1347.07 C 1295.66 1353.83 1300.44 1364.58 1303.4 1372 C 1325.23 1417.61 1345.82 1469.78 1366.64 1516.29 C 1377.49 1540.52 1401.16 1592.55 1407.43 1615.6 C 1412.29 1632.94 1413.82 1651.05 1411.92 1668.96 C 1405.02 1735.47 1349.82 1783.08 1282.51 1775.57 C 1263.23 1773.44 1244.89 1766.08 1229.48 1754.3 C 1210.46 1739.67 1189.72 1710.22 1174.17 1690.37 L 1103.9 1600.41 C 1118.07 1668.01 1134.97 1735.74 1150.95 1802.95 C 1156.04 1824.35 1146.76 1838.44 1123.65 1838.47 C 1063.5 1838.55 1003.3 1838.57 943.127 1838.6 L 587.145 1838.72 L 440.658 1838.82 C 419.377 1838.83 394.865 1839.49 373.622 1837.72 C 369.638 1837.39 363.618 1831.27 361.357 1827.72 C 358.379 1823.11 356.944 1817.67 357.259 1812.19 C 357.917 1802.32 364.575 1780.04 367.055 1768.81 C 379.649 1711.8 395.004 1655.27 407.681 1598.25 C 377.063 1636.09 348.158 1675.55 317.65 1713.51 C 308.898 1724.4 301.581 1735.14 291.334 1744.79 C 280.292 1755.23 267.372 1763.48 253.257 1769.11 C 226.701 1779.49 192.147 1778.84 166.336 1767.09 C 112.488 1742.57 87.5386 1684.25 98.2829 1627.49 C 103.108 1601.99 113.475 1580.38 123.814 1556.81 C 132.766 1536.31 141.846 1515.86 151.053 1495.47 L 210.596 1361.8 C 212.792 1355.69 216.631 1346.36 220.411 1341.22 C 220.273 1337.97 215.624 1333.55 213.273 1330.36 C 196.328 1307.39 190.678 1279.75 195.38 1251.71 C 198.193 1234.99 204.857 1219.15 214.847 1205.44 C 226.198 1190.18 261.841 1160.16 277.417 1147.36 C 301.613 1127.48 331.76 1100.73 357.067 1082.74 C 352.175 1058.71 331.976 1012.81 321.486 989.836 C 324.019 987.705 326.574 985.56 329.081 983.424 C 358.095 958.706 397.537 973.952 419.399 1000.33 C 427.397 1009.97 431.805 1017.97 437.395 1028.71 C 456.647 1020.64 475.215 1010.69 493.714 1002.87 C 520.225 991.665 547.051 1001.67 571.67 1011.8 C 582.262 1016.16 602.546 1018.18 614.246 1020.17 C 622.515 1020.91 632.016 1018.71 638.006 1012.64 C 651.565 998.884 648.833 969.765 649.286 951.59 C 649.32 942.036 649.624 925.31 650.983 916.182 C 658.849 916.021 659.227 916.031 666.908 918.816 L 667.951 917.576 z" fill="rgb(228,203,129)" transform="translate(0,0)"></path>
<path d="M 667.951 917.576 C 736.967 936.542 791.98 935.582 859.896 911.491 L 862.438 913.168 C 861.384 920.691 862.02 928.142 861.17 934.356 C 861.316 953.139 858.969 973.565 859.603 991.666 C 861.209 1037.54 925.714 1016.23 951.138 1005.9 C 985.891 991.78 1011.03 997.934 1043.39 1016.06 C 1049.56 1019.32 1065.71 1025.45 1073.81 1029.03 C 1078.46 1019.68 1082.2 1012.98 1088.3 1004.63 C 1109.77 975.301 1150.66 957.878 1182.02 983.253 C 1184.5 985.257 1187.41 987.32 1189.98 989.299 C 1179.53 1010.19 1156.81 1064.69 1154.33 1086.28 C 1184.66 1107.45 1216.05 1134.27 1244.31 1158.07 C 1258.17 1169.74 1284.32 1191.36 1294.7 1205 C 1305.03 1218.65 1311.94 1234.57 1314.88 1251.44 C 1318.85 1274.23 1315.55 1301.12 1302.86 1321.35 C 1299.13 1327.3 1288.8 1334.96 1289.19 1341.83 L 1291.48 1347.07 C 1295.66 1353.83 1300.44 1364.58 1303.4 1372 L 1302.31 1376.15 C 1304.53 1380.68 1309.43 1390.29 1310.59 1394.79 C 1297.91 1421 1284.05 1440.16 1262.32 1459.67 C 1274.69 1473.55 1300.33 1505.19 1311.81 1518.55 C 1322.4 1530.88 1375.96 1592.84 1380.48 1603.12 C 1373.73 1600.45 1142.58 1319.33 1121.11 1291.22 C 1110.46 1309.27 1092.65 1331.93 1079.77 1349.49 C 1061.77 1374.05 1012.79 1428.3 987.046 1443.09 L 985.626 1440.6 C 985.394 1442.97 985.618 1443.32 984.571 1445.38 C 974.497 1434.26 961.555 1415.5 951.67 1403.02 C 912.41 1406.09 886.691 1397.4 856.925 1372.15 C 838.781 1354.86 805.977 1311.42 791.805 1290.08 C 776.253 1266.66 788.271 1236.77 817.539 1226.83 C 805.244 1191.19 826.64 1161.67 864.813 1171.35 C 861.48 1159.19 861.378 1155.69 863.377 1143.27 C 790.963 1187.65 720.912 1190.34 647.843 1145.23 C 648.258 1155.2 648.524 1160.24 646.144 1170.12 C 684.299 1163.91 704.153 1192.22 692.945 1227.42 C 723.516 1234.55 732.205 1272.3 715.712 1294.54 C 697.853 1318.61 675.914 1346.86 656.023 1369 C 633.044 1394.57 594.701 1406.49 561.246 1403.01 C 558.654 1402.77 557.423 1404.35 555.483 1406.06 L 555.082 1403.85 C 553.588 1402.2 519.044 1395.45 513.695 1394.01 C 492.635 1388.3 469.429 1376.66 451.866 1364.73 C 442.194 1358.16 433.877 1345.89 425.283 1343.06 C 413.443 1327.37 399.202 1307.55 389.444 1290.87 C 362.698 1321.35 138.667 1598.75 128.71 1602.32 C 138.618 1586.64 155.041 1569.15 167.039 1554.36 C 192.856 1522.53 221.405 1491.14 246.795 1459.19 C 246.102 1458.08 236.552 1448.8 234.804 1447.42 C 217.785 1433.98 210.625 1412.59 197.779 1396.99 C 200.487 1391.08 203.158 1385.16 205.794 1379.21 C 205.29 1373.96 211.722 1369.59 210.596 1361.8 C 212.792 1355.69 216.631 1346.36 220.411 1341.22 C 220.273 1337.97 215.624 1333.55 213.273 1330.36 C 196.328 1307.39 190.678 1279.75 195.38 1251.71 C 198.193 1234.99 204.857 1219.15 214.847 1205.44 C 226.198 1190.18 261.841 1160.16 277.417 1147.36 C 301.613 1127.48 331.76 1100.73 357.067 1082.74 C 352.175 1058.71 331.976 1012.81 321.486 989.836 C 324.019 987.705 326.574 985.56 329.081 983.424 C 358.095 958.706 397.537 973.952 419.399 1000.33 C 427.397 1009.97 431.805 1017.97 437.395 1028.71 C 456.647 1020.64 475.215 1010.69 493.714 1002.87 C 520.225 991.665 547.051 1001.67 571.67 1011.8 C 582.262 1016.16 602.546 1018.18 614.246 1020.17 C 622.515 1020.91 632.016 1018.71 638.006 1012.64 C 651.565 998.884 648.833 969.765 649.286 951.59 C 649.32 942.036 649.624 925.31 650.983 916.182 C 658.849 916.021 659.227 916.031 666.908 918.816 L 667.951 917.576 z" fill="rgb(5,3,2)" transform="translate(0,0)"></path>
<path d="M 1060.82 1159.42 C 1055.5 1110.95 1059.9 1049.57 1088.74 1008.75 C 1111.67 976.28 1148 961.62 1182.07 986.712 C 1154.44 988.161 1136.3 1003.37 1127.5 1029.39 C 1120.19 1051.01 1138.7 1060.07 1155.69 1063.64 C 1148.5 1092.32 1149.28 1122.57 1149.08 1151.94 C 1148.53 1231.85 1132 1288.34 1074.85 1345.31 C 1075.59 1347.25 1075.69 1348.04 1075.73 1350.12 C 1078.48 1350.4 1077.18 1350.59 1079.77 1349.49 C 1061.77 1374.05 1012.79 1428.3 987.046 1443.09 L 985.626 1440.6 C 985.394 1442.97 985.618 1443.32 984.571 1445.38 C 974.497 1434.26 961.555 1415.5 951.67 1403.02 C 912.41 1406.09 886.691 1397.4 856.925 1372.15 L 858.72 1370.07 C 844.55 1355.82 796.43 1297.81 790.912 1281.16 C 787.563 1271.05 787.936 1258.3 792.804 1248.72 C 798.202 1238.11 807.755 1233.18 818.636 1229.75 C 825.284 1238.8 880.636 1309.76 886.848 1313.92 L 887.71 1313.42 C 883.582 1302.71 835.625 1249.39 826.618 1235.46 C 819.263 1225.36 814.548 1213.26 816.982 1200.64 C 818.813 1191.14 824.508 1182.47 832.554 1177.07 C 842.737 1170.23 853.024 1171.44 864.363 1173.85 C 869.803 1178.9 880.44 1193.01 885.619 1199.49 L 924.252 1247.81 C 928.351 1252.93 938.059 1265.63 942.841 1269.05 C 941.359 1259.03 877.576 1190.13 868.676 1171.98 C 865.935 1166.26 864.655 1159.94 864.95 1153.6 C 866.078 1124.38 896.245 1106.73 920.561 1124.45 C 928.304 1130.09 936.168 1139.98 942.419 1147.32 C 954.328 1161.42 966.094 1175.63 977.717 1189.96 C 981.532 1194.62 993.548 1211.92 998.858 1211.94 C 998.675 1209.67 945.354 1145.41 938.742 1139.13 C 920.656 1121.93 901.621 1096.54 926.248 1071.8 C 932.761 1065.26 941.671 1061.66 950.903 1061.86 C 957.797 1061.99 964.519 1064.04 970.315 1067.77 C 980.256 1074.26 1000.25 1096.38 1009.37 1105.97 C 1026.38 1123.92 1043.53 1141.74 1060.82 1159.42 z" fill="rgb(196,147,98)" transform="translate(0,0)"></path>
<path d="M 1074.85 1345.31 C 1075.59 1347.25 1075.69 1348.04 1075.73 1350.12 C 1078.48 1350.4 1077.18 1350.59 1079.77 1349.49 C 1061.77 1374.05 1012.79 1428.3 987.046 1443.09 L 985.626 1440.6 C 985.394 1442.97 985.618 1443.32 984.571 1445.38 C 974.497 1434.26 961.555 1415.5 951.67 1403.02 C 912.41 1406.09 886.691 1397.4 856.925 1372.15 L 858.72 1370.07 C 902.807 1408.34 948.472 1405.68 1001.12 1389.41 C 1029.84 1380.53 1052.57 1365.14 1074.85 1345.31 z" fill="url(#Gradient2)" transform="translate(0,0)"></path>
<path d="M 667.951 917.576 C 736.967 936.542 791.98 935.582 859.896 911.491 L 862.438 913.168 C 861.384 920.691 862.02 928.142 861.17 934.356 C 860.347 928.985 861.552 918.489 860.205 915.315 C 859.308 917.626 859.252 918.361 858.887 920.732 C 859.03 933.523 858.097 945.932 857.549 958.508 C 856.778 976.22 852.736 1001.5 867.11 1015.16 C 883.802 1031.02 916.909 1017.55 937.496 1015.52 C 931.218 1059.83 918.11 1080.31 892.402 1115.15 C 866.225 1124.16 875.435 1130.22 862.303 1139.82 C 825.572 1166.65 774.322 1180.07 729.095 1173.45 C 704.87 1169.9 659.162 1156.06 643.756 1136.21 C 634.259 1123.97 633.369 1118.81 615.748 1114.59 C 593.13 1087.62 573.57 1051.1 570.695 1015.48 C 611.522 1023.18 652.311 1037.58 651.35 976.008 C 651.194 966.041 652.796 954.18 651.821 944.288 L 650.514 944.997 L 649.286 951.59 C 649.32 942.036 649.624 925.31 650.983 916.182 C 658.849 916.021 659.227 916.031 666.908 918.816 L 667.951 917.576 z" fill="rgb(196,147,98)" transform="translate(0,0)"></path>
<path d="M 667.951 917.576 C 736.967 936.542 791.98 935.582 859.896 911.491 L 862.438 913.168 C 861.384 920.691 862.02 928.142 861.17 934.356 C 860.347 928.985 861.552 918.489 860.205 915.315 C 859.308 917.626 859.252 918.361 858.887 920.732 C 836.477 952.239 809.207 971.613 770.517 978.193 C 736.478 983.982 695.11 977.087 667.097 956.064 C 663.639 953.468 654.189 945.725 651.821 944.288 L 650.514 944.997 L 649.286 951.59 C 649.32 942.036 649.624 925.31 650.983 916.182 C 658.849 916.021 659.227 916.031 666.908 918.816 L 667.951 917.576 z" fill="rgb(50,32,21)" transform="translate(0,0)"></path>
<path d="M 1153.41 1088.98 C 1196.92 1120.94 1238.06 1155.88 1278.59 1191.51 C 1312.9 1221.68 1323.69 1274.41 1302.92 1315.19 C 1298.52 1323.82 1292.26 1330.83 1285.67 1337.8 C 1286.7 1340.35 1288.5 1345.72 1290.32 1347.33 L 1291.48 1347.07 C 1295.66 1353.83 1300.44 1364.58 1303.4 1372 L 1302.31 1376.15 C 1304.53 1380.68 1309.43 1390.29 1310.59 1394.79 C 1297.91 1421 1284.05 1440.16 1262.32 1459.67 C 1260.53 1457.9 1258.29 1454.98 1256.6 1452.96 C 1242.73 1436.44 1229.51 1419.39 1215.21 1403.23 C 1212.81 1400.26 1211.45 1399.18 1212.62 1395.38 L 1211.02 1393.88 C 1209.75 1393.83 1208.32 1393.63 1207.46 1392.56 C 1179.45 1357.91 1149.31 1323.77 1122.62 1288.17 C 1157.87 1224.2 1149.97 1158.21 1153.41 1088.98 z" fill="rgb(228,203,129)" transform="translate(0,0)"></path>
<path d="M 1215.21 1403.23 C 1221.43 1400.5 1236.98 1396.68 1244.07 1394.5 C 1263.42 1388.55 1283.25 1383.01 1302.31 1376.15 C 1304.53 1380.68 1309.43 1390.29 1310.59 1394.79 C 1297.91 1421 1284.05 1440.16 1262.32 1459.67 C 1260.53 1457.9 1258.29 1454.98 1256.6 1452.96 C 1242.73 1436.44 1229.51 1419.39 1215.21 1403.23 z" fill="rgb(137,86,14)" transform="translate(0,0)"></path>
<path d="M 1211.02 1393.88 C 1238.03 1375.67 1261 1359.55 1285.67 1337.8 C 1286.7 1340.35 1288.5 1345.72 1290.32 1347.33 L 1291.48 1347.07 C 1295.66 1353.83 1300.44 1364.58 1303.4 1372 L 1302.31 1376.15 C 1283.25 1383.01 1263.42 1388.55 1244.07 1394.5 C 1236.98 1396.68 1221.43 1400.5 1215.21 1403.23 C 1212.81 1400.26 1211.45 1399.18 1212.62 1395.38 L 1211.02 1393.88 z" fill="url(#Gradient1)" transform="translate(0,0)"></path>
<path d="M 223.312 1337.7 C 181.181 1291.94 190.637 1228.31 235.169 1187.95 C 274.75 1152.53 315.499 1118.44 357.348 1085.73 C 361.842 1107.53 360.91 1133.74 360.902 1156.03 C 360.886 1198.98 367.047 1249.28 388.03 1287.59 L 329.66 1359.17 C 321.255 1369.42 309.151 1385.26 300.387 1394.4 C 297.64 1394.17 297.558 1393.93 295.202 1392.65 C 292.125 1388.82 265.885 1371.25 260.108 1366.96 C 247.555 1357.58 235.284 1347.82 223.312 1337.7 z" fill="rgb(228,203,129)" transform="translate(0,0)"></path>
<path d="M 223.312 1337.7 C 235.284 1347.82 247.555 1357.58 260.108 1366.96 C 265.885 1371.25 292.125 1388.82 295.202 1392.65 C 297.441 1398.81 297.48 1396.22 294.902 1402.43 C 278.616 1420.72 263.192 1440.54 246.795 1459.19 C 246.102 1458.08 236.552 1448.8 234.804 1447.42 C 217.785 1433.98 210.625 1412.59 197.779 1396.99 C 200.487 1391.08 203.158 1385.16 205.794 1379.21 C 205.29 1373.96 211.722 1369.59 210.596 1361.8 C 212.792 1355.69 216.631 1346.36 220.411 1341.22 C 220.738 1341.6 220.437 1341.34 221.846 1341.98 L 223.312 1337.7 z" fill="rgb(137,86,14)" transform="translate(0,0)"></path>
<path d="M 223.312 1337.7 C 235.284 1347.82 247.555 1357.58 260.108 1366.96 C 265.885 1371.25 292.125 1388.82 295.202 1392.65 C 297.441 1398.81 297.48 1396.22 294.902 1402.43 C 276.882 1400.17 246.458 1387.48 228.337 1382.18 C 223.186 1380.67 212.905 1376.16 208.382 1375.71 L 205.794 1379.21 C 205.29 1373.96 211.722 1369.59 210.596 1361.8 C 212.792 1355.69 216.631 1346.36 220.411 1341.22 C 220.738 1341.6 220.437 1341.34 221.846 1341.98 L 223.312 1337.7 z" fill="rgb(50,32,21)" transform="translate(0,0)"></path>
<path d="M 354.774 974.312 C 377.846 972.995 398.543 980.779 414.095 998.418 C 453.384 1042.98 453.881 1102.51 452.012 1158.62 C 457.578 1153.37 465.248 1144.39 470.853 1138.44 C 484.559 1124.01 498.16 1109.49 511.655 1094.87 C 517.8 1088.22 530.975 1073.32 537.73 1068.61 C 543.569 1064.59 550.408 1062.26 557.488 1061.89 C 575.84 1061.03 588.884 1073.13 592.991 1090.39 C 600.097 1118.78 574.317 1131.82 560.718 1150.97 C 554.874 1159.2 511.241 1206.88 511.406 1212.53 C 517.48 1210.85 574.845 1134.5 589.475 1124.25 C 624.118 1099.99 657.019 1143.26 642.225 1170.16 C 625.032 1201.43 587.091 1236.89 566.243 1267.57 L 566.684 1269.38 C 567.968 1269 623.025 1204.17 627.307 1196.46 C 641.997 1170 669.157 1157.42 689.204 1190.86 C 694.113 1202.87 693.981 1207.55 691.288 1220.62 C 687.027 1241.31 625.519 1299.26 622.201 1313.6 C 627.282 1311.19 685.469 1238.57 691.846 1229.25 C 721.138 1238.75 728.834 1268.04 712.851 1293.53 C 706.066 1304.34 696.26 1314.61 688.46 1324.93 C 664.934 1356.06 641.478 1388.76 600.723 1397.49 C 559.849 1406.95 501.358 1392.26 466.471 1369.97 C 400.607 1327.87 366.988 1257.43 364.349 1180.61 C 362.787 1135.12 366.769 1109.15 356.03 1064.71 C 362.832 1062.92 370.643 1060.34 375.895 1056.16 C 401.44 1035.8 367.346 993.667 343.768 988.751 C 338.667 987.687 333.859 987.044 328.902 986.514 C 338.161 979.423 343.559 976.749 354.774 974.312 z" fill="rgb(196,147,98)" transform="translate(0,0)"></path>
<path d="M 979.71 1001.34 C 1007.51 999.683 1020.95 1008.52 1044.67 1019.72 C 1052.63 1023.48 1063.76 1027.68 1072.38 1031.53 C 1056.49 1076.62 1054.61 1104.22 1057.21 1151.61 C 1049.59 1144.2 1041.64 1135.64 1034.21 1127.94 C 1018.51 1111.37 1002.77 1094.84 986.927 1078.41 C 978.706 1069.88 968.916 1061.67 956.876 1059.6 C 944.149 1057.41 935.444 1061.34 925.273 1068.44 C 934.689 1045.32 936.836 1038.25 940.409 1013.38 C 954.738 1006.58 964.147 1003.48 979.71 1001.34 z" fill="rgb(228,203,129)" transform="translate(0,0)"></path>
<path d="M 516.569 1001.39 C 534.587 999.922 552.061 1006.07 567.801 1014.19 C 570.569 1036.11 573.446 1045.71 581.6 1066.2 C 550.36 1048.54 532.646 1066.95 512.634 1089.81 C 503.238 1100.55 492.153 1111.7 482.268 1122.13 C 473.008 1131.73 463.928 1141.5 455.033 1151.44 C 457.491 1105.77 455.247 1072.99 438.32 1031.07 C 444.933 1028.42 457.707 1023.45 463.725 1020.38 C 484.836 1009.62 492.465 1003.97 516.569 1001.39 z" fill="rgb(228,203,129)" transform="translate(0,0)"></path>
<path d="M 325.389 989.876 C 338.758 989.818 354.767 993.015 363.853 1003.18 C 377.147 1018.05 390.699 1036.88 373.91 1053.79 C 365.972 1058.61 363.733 1059.18 355.184 1062.43 C 348.064 1049.08 344.983 1038.51 339.526 1024.46 C 335.032 1012.88 330.085 1001.4 325.389 989.876 z" fill="rgb(137,86,14)" transform="translate(0,0)"></path>
<path d="M 1176.71 990.391 C 1180.14 989.932 1183.11 989.974 1186.53 989.91 C 1175.77 1011.04 1168 1033.24 1159.76 1055.43 C 1156.62 1063.9 1150.41 1059.55 1143.9 1057.03 C 1120.75 1045.26 1128.8 1027.48 1141.25 1009.62 C 1150.04 997.014 1161.78 992.128 1176.71 990.391 z" fill="rgb(137,86,14)" transform="translate(0,0)"></path>
<path d="M 912.468 1092.79 C 913.47 1107.01 910.365 1101.14 916.492 1118.21 C 911.476 1116.5 910.357 1116.23 905.104 1115.01 C 894.184 1114.27 896.017 1115.63 902.793 1105.91 C 905.862 1101.51 908.985 1096.86 912.468 1092.79 z" fill="rgb(228,203,129)" transform="translate(0,0)"></path>
<path d="M 597.002 1094.74 C 598.754 1097.07 610.983 1113.27 611.036 1114.33 C 610.177 1115.18 604.663 1115.41 603.248 1115.57 C 599.094 1116.51 596.635 1117.34 592.588 1118.65 C 595.783 1108.14 596.357 1105.93 597.002 1094.74 z" fill="rgb(228,203,129)" transform="translate(0,0)"></path>
<path d="M 389.444 1290.87 C 399.202 1307.55 413.443 1327.37 425.283 1343.06 C 433.877 1345.89 442.194 1358.16 451.866 1364.73 C 469.429 1376.66 492.635 1388.3 513.695 1394.01 C 519.044 1395.45 553.588 1402.2 555.082 1403.85 L 555.483 1406.06 C 550.209 1415.41 520.715 1453.05 512.191 1463.14 L 510.592 1460.64 L 358.866 1656.16 L 319.563 1706.13 C 309.05 1719.59 300.034 1732.83 287.321 1744.33 C 274.97 1735.26 261.576 1727.69 247.426 1721.8 C 199.345 1702.05 168.181 1707.93 122.187 1727.23 C 83.0601 1669.87 98.7044 1620.07 124.119 1562.76 L 146.447 1512.58 L 197.779 1396.99 C 210.625 1412.59 217.785 1433.98 234.804 1447.42 C 236.552 1448.8 246.102 1458.08 246.795 1459.19 C 221.405 1491.14 192.856 1522.53 167.039 1554.36 C 155.041 1569.15 138.618 1586.64 128.71 1602.32 C 138.667 1598.75 362.698 1321.35 389.444 1290.87 z" fill="rgb(196,147,98)" transform="translate(0,0)"></path>
<path d="M 425.283 1343.06 C 433.877 1345.89 442.194 1358.16 451.866 1364.73 C 469.429 1376.66 492.635 1388.3 513.695 1394.01 C 519.044 1395.45 553.588 1402.2 555.082 1403.85 L 555.483 1406.06 C 550.209 1415.41 520.715 1453.05 512.191 1463.14 L 510.592 1460.64 L 522.672 1444.59 C 495.739 1423.5 441.813 1370.63 425.283 1343.06 z" fill="rgb(50,32,21)" transform="translate(0,0)"></path>
<path d="M 1121.11 1291.22 C 1142.58 1319.33 1373.73 1600.45 1380.48 1603.12 C 1375.96 1592.84 1322.4 1530.88 1311.81 1518.55 C 1300.33 1505.19 1274.69 1473.55 1262.32 1459.67 C 1284.05 1440.16 1297.91 1421 1310.59 1394.79 C 1330.25 1438.99 1349.58 1483.33 1368.6 1527.81 C 1392.46 1582.95 1425.1 1636.92 1402.17 1698.4 C 1398.29 1708.81 1392.94 1718.61 1386.27 1727.5 C 1353.33 1709.41 1317.47 1704.06 1281.32 1715.05 C 1260.24 1721.46 1239.37 1730.37 1223.01 1745.37 C 1208.15 1731.36 1192.56 1709.32 1179.58 1692.71 L 1096.69 1585.23 L 1020.28 1487.31 C 1014.02 1479.26 990.788 1450.2 987.046 1443.09 C 1012.79 1428.3 1061.77 1374.05 1079.77 1349.49 C 1092.65 1331.93 1110.46 1309.27 1121.11 1291.22 z" fill="rgb(196,147,98)" transform="translate(0,0)"></path>
<path d="M 210.596 1361.8 C 211.722 1369.59 205.29 1373.96 205.794 1379.21 C 203.158 1385.16 200.487 1391.08 197.779 1396.99 L 146.447 1512.58 L 124.119 1562.76 C 98.7044 1620.07 83.0601 1669.87 122.187 1727.23 C 168.181 1707.93 199.345 1702.05 247.426 1721.8 C 261.576 1727.69 274.97 1735.26 287.321 1744.33 C 300.034 1732.83 309.05 1719.59 319.563 1706.13 L 358.866 1656.16 L 510.592 1460.64 L 512.191 1463.14 C 489.853 1492.53 466.584 1521.4 444.208 1550.72 C 436.935 1562.35 414.086 1584.7 411.203 1597.01 C 394.419 1668.65 375.702 1739.7 360.13 1811.57 C 358.261 1820.19 366.368 1834.17 375.892 1835.02 C 392.043 1836.47 408.832 1835.91 425.122 1835.9 L 534.204 1835.83 L 971.693 1835.64 L 1071.94 1835.76 C 1090.11 1835.79 1108.66 1836.69 1126.77 1835.49 C 1130.89 1835.21 1135.99 1835.03 1139.5 1832.66 C 1144.81 1829.08 1148.4 1824.06 1149.34 1817.67 C 1151.05 1806.13 1135.14 1749.48 1131.74 1734.88 L 1111.57 1646.89 C 1108.88 1634.97 1102 1603.46 1097.69 1592.92 C 1095.77 1588.22 1071.88 1558.3 1067.63 1552.87 L 1015.66 1486.03 C 1005.67 1473.17 993.732 1458.61 984.571 1445.38 C 985.618 1443.32 985.394 1442.97 985.626 1440.6 L 987.046 1443.09 C 990.788 1450.2 1014.02 1479.26 1020.28 1487.31 L 1096.69 1585.23 L 1179.58 1692.71 C 1192.56 1709.32 1208.15 1731.36 1223.01 1745.37 C 1239.37 1730.37 1260.24 1721.46 1281.32 1715.05 C 1317.47 1704.06 1353.33 1709.41 1386.27 1727.5 C 1392.94 1718.61 1398.29 1708.81 1402.17 1698.4 C 1425.1 1636.92 1392.46 1582.95 1368.6 1527.81 C 1349.58 1483.33 1330.25 1438.99 1310.59 1394.79 C 1309.43 1390.29 1304.53 1380.68 1302.31 1376.15 L 1303.4 1372 C 1325.23 1417.61 1345.82 1469.78 1366.64 1516.29 C 1377.49 1540.52 1401.16 1592.55 1407.43 1615.6 C 1412.29 1632.94 1413.82 1651.05 1411.92 1668.96 C 1405.02 1735.47 1349.82 1783.08 1282.51 1775.57 C 1263.23 1773.44 1244.89 1766.08 1229.48 1754.3 C 1210.46 1739.67 1189.72 1710.22 1174.17 1690.37 L 1103.9 1600.41 C 1118.07 1668.01 1134.97 1735.74 1150.95 1802.95 C 1156.04 1824.35 1146.76 1838.44 1123.65 1838.47 C 1063.5 1838.55 1003.3 1838.57 943.127 1838.6 L 587.145 1838.72 L 440.658 1838.82 C 419.377 1838.83 394.865 1839.49 373.622 1837.72 C 369.638 1837.39 363.618 1831.27 361.357 1827.72 C 358.379 1823.11 356.944 1817.67 357.259 1812.19 C 357.917 1802.32 364.575 1780.04 367.055 1768.81 C 379.649 1711.8 395.004 1655.27 407.681 1598.25 C 377.063 1636.09 348.158 1675.55 317.65 1713.51 C 308.898 1724.4 301.581 1735.14 291.334 1744.79 C 280.292 1755.23 267.372 1763.48 253.257 1769.11 C 226.701 1779.49 192.147 1778.84 166.336 1767.09 C 112.488 1742.57 87.5386 1684.25 98.2829 1627.49 C 103.108 1601.99 113.475 1580.38 123.814 1556.81 C 132.766 1536.31 141.846 1515.86 151.053 1495.47 L 210.596 1361.8 z" fill="rgb(5,3,2)" transform="translate(0,0)"></path>
<path d="M 1223.01 1745.37 C 1239.37 1730.37 1260.24 1721.46 1281.32 1715.05 C 1317.47 1704.06 1353.33 1709.41 1386.27 1727.5 C 1366.61 1753.29 1345.31 1767.93 1312.42 1772.59 C 1283.53 1776.69 1253.62 1769.6 1230.37 1751.54 C 1227.84 1749.58 1225.38 1747.52 1223.01 1745.37 z" fill="rgb(137,86,14)" transform="translate(0,0)"></path>
<path d="M 122.187 1727.23 C 168.181 1707.93 199.345 1702.05 247.426 1721.8 C 261.576 1727.69 274.97 1735.26 287.321 1744.33 C 238.915 1790.45 161.251 1780.93 122.187 1727.23 z" fill="rgb(137,86,14)" transform="translate(0,0)"></path>
<path d="M 431.953 525.445 C 429.326 359.324 582.213 210.336 745.48 206.792 C 831.151 204.933 914.283 238.671 976.227 297.743 C 1042.31 360.764 1074.74 434.432 1077.36 525.03 C 1133.79 464.043 1227.34 501.412 1234.49 581.639 C 1239.73 621.867 1221.5 663.352 1189.86 689.303 C 1152.06 720.309 1106.79 748.446 1061.83 712.678 C 1055.56 727.908 1049.08 742.841 1041.19 757.315 C 1008.95 816.517 960.004 864.93 900.454 896.528 C 889.631 902.209 874.116 909.746 862.438 913.168 L 859.896 911.491 C 791.98 935.582 736.967 936.542 667.951 917.576 L 666.908 918.816 C 659.227 916.031 658.849 916.021 650.983 916.182 C 648.315 913.865 625.419 903.776 621.151 901.754 C 611.455 897.093 601.948 892.048 592.652 886.634 C 544.921 858.589 499.265 810.591 471.768 762.575 C 461.564 744.756 455.238 729.484 447.621 710.648 C 407.332 752.837 347.648 715.156 313.826 683.811 C 289.131 660.925 273.533 631.337 272.591 597.447 C 270.118 508.446 366.928 459.466 431.953 525.445 z" fill="rgb(196,147,98)" transform="translate(0,0)"></path>
<path d="M 431.953 525.445 C 429.326 359.324 582.213 210.336 745.48 206.792 C 831.151 204.933 914.283 238.671 976.227 297.743 C 1042.31 360.764 1074.74 434.432 1077.36 525.03 C 1133.79 464.043 1227.34 501.412 1234.49 581.639 C 1239.73 621.867 1221.5 663.352 1189.86 689.303 C 1152.06 720.309 1106.79 748.446 1061.83 712.678 C 1055.56 727.908 1049.08 742.841 1041.19 757.315 C 1008.95 816.517 960.004 864.93 900.454 896.528 C 889.631 902.209 874.116 909.746 862.438 913.168 L 859.896 911.491 C 959.309 871.859 1022.91 805.566 1060.9 705.923 C 1098.54 749.909 1153.35 715.655 1188.35 686.883 C 1235.84 647.845 1249.94 572.398 1206.58 524.822 C 1191.61 508.498 1170.75 498.819 1148.63 497.931 C 1117.09 496.612 1094.63 510.174 1074.19 532.727 L 1074.17 516.954 C 1002.93 472.154 981.377 395.26 988.603 315.036 C 967.876 288.417 916.888 252.956 885.785 240.122 C 790.1 334.479 662.943 375.668 529.63 362.676 C 512.422 431.658 492.136 473.482 434.938 515.985 L 435.054 533.838 C 381.248 466.016 283.153 500.274 275.904 583.707 C 273.214 614.666 282.418 643.182 302.391 667.447 C 324.796 693.711 362.155 721.908 397.136 726.191 C 418.23 728.774 435.368 720.296 448.678 704.487 C 469.111 759.891 493.746 798.704 536.53 840.118 C 577.914 880.178 615.252 897.757 667.951 917.576 L 666.908 918.816 C 659.227 916.031 658.849 916.021 650.983 916.182 C 648.315 913.865 625.419 903.776 621.151 901.754 C 611.455 897.093 601.948 892.048 592.652 886.634 C 544.921 858.589 499.265 810.591 471.768 762.575 C 461.564 744.756 455.238 729.484 447.621 710.648 C 407.332 752.837 347.648 715.156 313.826 683.811 C 289.131 660.925 273.533 631.337 272.591 597.447 C 270.118 508.446 366.928 459.466 431.953 525.445 z" fill="rgb(5,3,2)" transform="translate(0,0)"></path>
<path d="M 751.761 209.403 C 790.203 208.025 850.087 220.135 883.602 239.167 C 811.177 305.795 750.147 337.747 653.111 355.202 C 613.562 360.618 570.005 365.608 530.171 359.73 C 534.372 340.567 535.799 320.9 534.41 301.331 C 575.405 259.451 642.947 224.213 700.511 214.251 C 718.981 211.055 733.02 210.111 751.761 209.403 z" fill="rgb(137,86,14)" transform="translate(0,0)"></path>
<path d="M 530.784 304.909 C 533.902 309.095 530.475 338.93 529.547 345.983 C 527.389 362.402 522.399 380.664 516.989 396.325 C 499.07 448.202 479.952 478.262 436.693 511.207 C 435.821 510.555 435.793 510.125 435.191 509.037 C 437.564 431.744 477.497 358.791 530.784 304.909 z" fill="rgb(137,86,14)" transform="translate(0,0)"></path>
<path d="M 991.329 318.452 C 992.374 319.063 993.271 319.732 994.09 320.62 C 1041.43 371.888 1073.16 443.403 1073.73 513.003 C 1007.85 475.411 984.013 389.576 991.329 318.452 z" fill="rgb(137,86,14)" transform="translate(0,0)"></path>
<path d="M 591.206 665.123 C 599.783 664.262 639.596 676.858 653.205 679.456 C 674.578 683.485 696.182 686.176 717.891 687.514 C 765.175 690.814 812.688 687.847 859.194 678.691 C 876.279 675.192 892.554 669.393 909.584 665.905 C 920.69 663.63 931.931 672.271 931.262 683.33 C 929.121 718.751 907.969 754.831 885.378 781.132 C 797.011 875.205 643.154 847.591 591.001 731.892 C 584.173 716.742 573.656 691.969 579.174 675.548 C 581.054 669.952 586.246 667.326 591.206 665.123 z" fill="rgb(5,3,2)" transform="translate(0,0)"></path>
<path d="M 742.984 738.415 C 792.102 736.036 836.284 750.538 874.619 781.32 C 846.365 810.239 808.559 827.899 768.248 831.009 C 766.122 831.205 763.992 831.34 761.858 831.413 C 709.869 833.441 671.914 816.365 634.322 781.548 C 665.164 756.2 703.154 741.12 742.984 738.415 z" fill="rgb(198,89,56)" transform="translate(0,0)"></path>
<path d="M 616.569 485.285 C 622.095 485.461 626.209 485.912 631.14 488.719 C 638.322 492.796 643.562 499.591 645.68 507.574 C 651.167 528.31 641.361 544.828 620.691 550.037 C 583.578 548.57 578.208 493.111 616.569 485.285 z" fill="rgb(5,3,2)" transform="translate(0,0)"></path>
<path d="M 886.64 485.228 C 922.669 485.757 930.372 538.54 892.414 549.921 C 856.536 550.595 846.535 494.914 886.64 485.228 z" fill="rgb(5,3,2)" transform="translate(0,0)"></path>
<path d="M 738.692 466.329 C 741.297 466.79 741.602 466.985 743.968 467.953 C 748.308 473.278 744.96 532.112 744.868 541.671 C 744.723 556.725 726.469 565.466 721.356 577.093 C 715.648 594.476 719.504 610.75 738.072 617.436 C 747.05 620.669 764.783 618.192 767.687 625.625 C 767.104 628.7 766.882 628.78 764.628 631.128 C 723.781 631.138 692.682 610.825 717.488 563.341 C 721.019 556.583 729.291 555.175 733.554 544.08 C 739.807 527.812 730.06 477.391 738.692 466.329 z" fill="rgb(5,3,2)" transform="translate(0,0)"></path>
<path d="M 1137.82 553.239 C 1154.97 551.697 1170.25 553.531 1183.06 566.27 C 1187.88 571.068 1195.8 580.047 1195.86 587.079 C 1194.49 586.865 1182.49 566.987 1173.35 562.285 C 1137.4 543.787 1108.34 564.924 1089.01 596.798 C 1098.09 598.28 1101.86 599.332 1110.42 602.752 C 1128.16 612.221 1142.53 630.172 1127.67 650.294 C 1126.09 652.422 1123.22 655.957 1120.63 656.114 C 1120.99 651.336 1131.35 643.882 1131.08 634.68 C 1130.34 609.542 1103.99 601.849 1083.92 599.937 C 1084.58 598.615 1085.28 597.314 1086.02 596.034 C 1098.87 573.785 1112.89 560.013 1137.82 553.239 z" fill="rgb(5,3,2)" transform="translate(0,0)"></path>
<path d="M 357.489 552.324 C 388.033 550.08 412.154 575.277 425.022 600.268 C 402.299 600.064 368.12 616.15 381.727 644.452 C 383.808 648.779 387.753 651.233 389.425 655.683 L 388.63 656.574 C 369.693 643.171 372.714 623.841 388.227 609.087 C 399.869 600.854 406.276 598.724 420.369 597.452 C 417.252 591.617 413.544 586.118 409.303 581.041 C 397.962 567.516 382.554 556.694 364.522 555.312 C 348.322 554.069 332.626 561.261 322.99 574.342 C 321.188 576.782 314.789 586.373 313.187 587.759 L 312.26 586.372 C 317.896 567.557 338.771 554.74 357.489 552.324 z" fill="rgb(5,3,2)" transform="translate(0,0)"></path>
<metadata><recraft-signature>{"signed_by": "recraft", "signature_b64": "2tT1kGWBrxylR8EDTMkg31rhQVaehTubQDqyRULfAGF393g/+SBfuzcFgouvYh3hZY4OewZW9Af1N8o0STOSDg==", "signing_algo": "Ed25519", "generation_timestamp": 1779093203, "identifier": "c3dc3cc4-97d7-4990-a77b-39a060337437"}</recraft-signature></metadata></svg>