<svg xmlns="http://www.w3.org/2000/svg" height="1024" preserveAspectRatio="none" style="display: block;" version="1.1" viewBox="0 0 2048 2048" width="1024">
<path d="M 0 0 L 2048 0 L 2048 2048 L 0 2048 L 0 0 z" fill="rgb(255,255,255)" transform="translate(0,0)"></path>
<path d="M 422.395 992.654 C 416.976 936.133 418.433 879.163 426.735 822.993 C 439.994 735.825 467.995 634.468 542.877 579.938 C 592.531 543.83 658.925 540.786 711.675 572.198 C 716.24 574.974 719.892 578.043 723.926 581.077 C 730.779 586.23 737.915 594.677 746.52 596.141 C 755.706 597.703 760.144 578.531 763.329 573.273 C 827.994 466.527 954.307 438.53 1044.88 532.477 C 1049.42 537.146 1056.03 544.989 1059.69 550.37 C 1065.2 556.212 1072.67 571.707 1075.63 579.501 C 1077.53 580.362 1083.75 582.536 1085.6 581.188 C 1094.41 574.756 1101.31 565.177 1109.58 557.785 C 1194.6 481.848 1306.53 511.808 1362.51 604.051 L 1362.96 604.916 C 1370.13 618.755 1374.51 632.039 1380.01 646.398 C 1382.36 652.551 1389.75 651.168 1393.75 647.993 C 1422.26 625.378 1457.27 618.508 1493.05 626.593 C 1522.76 633.306 1548.08 651.461 1568.6 675.041 L 1568.85 675.493 C 1570.15 677.138 1571.47 678.759 1572.82 680.357 C 1573.28 680.842 1573.74 681.333 1574.18 681.83 C 1574.96 683.051 1575.66 683.961 1576.52 685.114 L 1577.06 685.846 L 1578.73 688.437 C 1580.17 689.795 1580.69 691.052 1581.88 692.753 C 1636.85 780.434 1635.66 891.726 1623.53 990.893 C 1647.67 999.668 1672.83 1007.6 1696.59 1016.83 C 1764.75 1042.91 1830.24 1075.49 1892.16 1114.11 C 1911.95 1126.27 1931.36 1134.45 1945.17 1153.85 C 1964.81 1180.15 1973.15 1209.6 1968.22 1242.28 C 1963.73 1273.75 1946.66 1302.04 1920.92 1320.69 C 1895.22 1339.31 1865.34 1344.94 1834.07 1340.32 C 1808.12 1336.49 1791.36 1323.1 1770.24 1309.65 C 1757.55 1301.74 1744.69 1294.1 1731.68 1286.75 C 1706.93 1273 1682.8 1261.62 1657.75 1248.83 C 1623.36 1233.53 1588.21 1219.97 1552.45 1208.22 C 1524.96 1249.16 1499.03 1277.97 1456.16 1303.37 C 1438.19 1314.02 1433.2 1320.34 1411.43 1324.49 C 1359.75 1334.36 1326.09 1315.34 1295.34 1275.52 C 1259.9 1345.23 1187.32 1357.64 1123.15 1320.52 C 1088.89 1300.69 1093.27 1299.73 1069.6 1270.88 C 1056.82 1288.25 1049.93 1296.79 1033.12 1309.91 C 1059.4 1323.7 1082.98 1338.52 1099.65 1363.74 C 1143.5 1430.04 1122.61 1517.82 1045.66 1546.9 C 1040.55 1559.7 1036.84 1567.87 1029.64 1579.6 C 1019.88 1577.84 982.856 1570.55 975.196 1571.08 C 953.929 1572.55 935.319 1577.09 912.192 1577.21 C 910.698 1577.88 910.883 1577.81 909.304 1577.95 C 646.569 1586.49 521.263 1471.36 468.76 1217.61 C 465.642 1219.12 454.748 1222.72 450.893 1224.12 C 438.578 1228.62 426.339 1233.32 414.18 1238.22 C 388.384 1248.72 359.525 1264.04 334.195 1276.3 C 316.142 1285.86 298.387 1296.24 281.082 1307.09 C 266.449 1316.26 253.428 1326.96 237.225 1333.45 C 140.095 1372.36 46.7255 1272.3 88.1344 1177.51 C 94.3522 1163.18 103.699 1150.42 115.49 1140.17 C 122.314 1134.22 128.34 1130.41 135.92 1125.69 C 214.902 1076.55 297.606 1033.51 386.312 1004.77 C 397.597 1001.12 410.38 997.4 421.387 993.059 L 422.395 992.654 z" fill="rgb(213,151,107)" transform="translate(0,0)"></path>
<path d="M 1072.14 777.437 L 1072.02 683.464 C 1072.01 668.507 1071.38 652.726 1072.54 637.931 C 1073.48 625.838 1084.79 631.272 1090.61 634.123 C 1092.2 645.895 1091.58 665.5 1091.56 677.906 L 1091.52 752.652 L 1092.99 1013.94 C 1094.04 1019.84 1094.14 1022.69 1093.9 1028.57 L 1094.11 1038.48 C 1093.61 1046.43 1093.65 1055.89 1093.93 1063.91 C 1094.67 1085.65 1092.89 1108.66 1094.2 1130.27 L 1094.37 1190.72 C 1094.39 1199.66 1094.61 1208.74 1094.2 1217.65 C 1093.91 1224.12 1087.29 1226.05 1083.65 1229.5 C 1094.88 1300.42 1137.34 1350.13 1214.06 1336.86 C 1225.51 1334.87 1236.27 1331.89 1246.23 1325.64 C 1247.02 1324.86 1247 1324.91 1248.09 1324.61 C 1279.16 1307.65 1293.96 1277.48 1304.4 1245.68 L 1303.44 1244.94 C 1298.48 1245.99 1295.5 1246.62 1291.07 1243.88 C 1286.79 1238.31 1289.72 1231.41 1291.36 1224.44 C 1304.08 1170.16 1316.82 1115.24 1326.29 1060.27 C 1333.46 1016.59 1339.52 972.737 1344.44 928.748 C 1351.61 872.364 1357.59 815.836 1362.38 759.201 C 1362.87 758.336 1362.88 758.42 1362.85 757.44 C 1363.43 743.233 1363.73 703.76 1372.1 694.591 C 1379.05 691.71 1381.71 695.376 1385.48 701.002 L 1385.19 702.933 C 1384.93 704.551 1384.9 706.023 1385.14 707.643 L 1384.61 719.252 C 1384.63 720.248 1384.66 720.14 1384.18 721.028 C 1376.72 838.947 1363.19 956.402 1343.64 1072.93 C 1336.72 1113.98 1327.69 1154.13 1318.69 1194.7 C 1316.24 1205.78 1307.86 1231.46 1308.47 1241.47 C 1310.93 1282.33 1354.16 1321.03 1392.3 1323.32 C 1414.11 1324.77 1435.58 1317.32 1451.8 1302.67 C 1501.5 1257.34 1522.41 1165.32 1540.11 1102.63 C 1555.2 1049.2 1566.34 994.557 1581.06 941.1 C 1584.18 929.751 1597.6 880.812 1603.49 873.425 L 1605.24 873.944 C 1615.53 898.094 1608.57 959.841 1599.83 984.462 C 1604.9 985.407 1616.56 989.081 1621.77 990.562 C 1625.63 970.823 1627.3 942.716 1628.3 922.752 C 1627.57 919.128 1628.16 918.125 1629.05 914.492 L 1628.97 904.274 C 1627.93 898.116 1627.76 876.822 1628.16 870.44 C 1628.49 821.493 1610.56 734.029 1580.81 695.153 L 1581.88 692.753 C 1636.85 780.434 1635.66 891.726 1623.53 990.893 C 1647.67 999.668 1672.83 1007.6 1696.59 1016.83 C 1764.75 1042.91 1830.24 1075.49 1892.16 1114.11 C 1911.95 1126.27 1931.36 1134.45 1945.17 1153.85 C 1964.81 1180.15 1973.15 1209.6 1968.22 1242.28 C 1963.73 1273.75 1946.66 1302.04 1920.92 1320.69 C 1895.22 1339.31 1865.34 1344.94 1834.07 1340.32 C 1808.12 1336.49 1791.36 1323.1 1770.24 1309.65 C 1757.55 1301.74 1744.69 1294.1 1731.68 1286.75 C 1706.93 1273 1682.8 1261.62 1657.75 1248.83 C 1623.36 1233.53 1588.21 1219.97 1552.45 1208.22 C 1524.96 1249.16 1499.03 1277.97 1456.16 1303.37 C 1438.19 1314.02 1433.2 1320.34 1411.43 1324.49 C 1359.75 1334.36 1326.09 1315.34 1295.34 1275.52 C 1259.9 1345.23 1187.32 1357.64 1123.15 1320.52 C 1088.89 1300.69 1093.27 1299.73 1069.6 1270.88 C 1056.82 1288.25 1049.93 1296.79 1033.12 1309.91 C 1059.4 1323.7 1082.98 1338.52 1099.65 1363.74 C 1143.5 1430.04 1122.61 1517.82 1045.66 1546.9 C 1040.55 1559.7 1036.84 1567.87 1029.64 1579.6 C 1019.88 1577.84 982.856 1570.55 975.196 1571.08 C 953.929 1572.55 935.319 1577.09 912.192 1577.21 C 910.698 1577.88 910.883 1577.81 909.304 1577.95 C 646.569 1586.49 521.263 1471.36 468.76 1217.61 C 465.642 1219.12 454.748 1222.72 450.893 1224.12 C 438.578 1228.62 426.339 1233.32 414.18 1238.22 C 388.384 1248.72 359.525 1264.04 334.195 1276.3 C 316.142 1285.86 298.387 1296.24 281.082 1307.09 C 266.449 1316.26 253.428 1326.96 237.225 1333.45 C 140.095 1372.36 46.7255 1272.3 88.1344 1177.51 C 94.3522 1163.18 103.699 1150.42 115.49 1140.17 C 122.314 1134.22 128.34 1130.41 135.92 1125.69 C 214.902 1076.55 297.606 1033.51 386.312 1004.77 C 397.597 1001.12 410.38 997.4 421.387 993.059 L 422.395 992.654 L 424.073 992.307 C 437.656 987.644 475.264 977.077 489.625 973.621 C 485.504 943.713 472.367 837.013 479.682 809.748 L 480.797 808.596 C 492.31 814.369 537.717 1020.32 544.084 1045.39 C 554.549 1086.68 565.861 1127.75 578.012 1168.57 C 588.463 1203 600.432 1227.54 614.641 1259.51 C 663.811 1370.12 813.286 1360.23 844.834 1243.09 C 845.855 1239.3 849.235 1229.18 847.363 1225.76 C 844.195 1224.57 842.021 1224.08 839.635 1221.68 C 837.331 1216.28 832.988 1174.8 831.719 1164.88 C 829.556 1147.72 827.009 1130.62 824.081 1113.57 C 806.134 1004.9 782.408 897.209 766.082 788.849 C 761.779 758.313 758.045 727.7 754.881 697.025 C 753.972 688.6 750.443 668.198 752.681 660.189 C 753.745 656.381 758.505 654.954 762.1 653.871 L 760.35 655.501 C 762.627 656.251 769.078 658.314 769.322 661.247 C 781.646 809.174 816.803 954.371 840.137 1100.76 C 842.907 1118.14 859.608 1212.38 853.355 1223.21 L 853.75 1223.94 L 852.275 1226 C 853.979 1246.64 871.211 1277.97 885.454 1292.88 C 906.218 1314.21 934.533 1326.52 964.291 1327.15 C 1006.48 1327.79 1044.07 1307.8 1066.21 1271.74 C 1073.4 1260.03 1080.42 1242.86 1080.57 1229.03 C 1071 1213.68 1074.26 1203.12 1074.36 1185.48 L 1074.57 1116.32 L 1072.84 888.423 C 1073.51 873.155 1073.85 835.659 1072.96 820.963 C 1073.42 812.223 1073.06 799.099 1073.07 790.059 C 1071.72 784.307 1071.84 783.464 1072.14 777.437 z" fill="rgb(46,32,23)" transform="translate(0,0)"></path>
<path d="M 552.411 1216.08 L 553.25 1217.11 C 562.366 1228.5 569.806 1242.53 577.965 1254.71 C 585.878 1266.53 594.909 1277.04 603.52 1287.96 C 629.646 1321.1 657.629 1344.87 701.094 1349.65 C 737.012 1353.61 775.511 1348.86 804.346 1325.21 C 809.586 1320.91 818.678 1312.88 823.306 1307.77 C 836.128 1306 865.633 1306.3 877.603 1308.63 C 885.463 1309.09 893.335 1309.31 901.209 1309.28 C 919.501 1320.21 937.251 1328.29 958.961 1329.2 C 964.438 1329.08 969.917 1329.09 975.394 1329.23 L 976.664 1329.15 C 997.4 1327.65 1002.68 1320.06 1023.13 1330.28 C 1051.25 1344.25 1073.73 1370.74 1083.75 1400.43 C 1095.35 1435.41 1092.59 1473.56 1076.06 1506.5 C 1068.7 1521.07 1058.44 1533.97 1045.9 1544.42 C 1054.68 1504.39 1058.49 1469.95 1035.88 1432.74 C 1004.8 1381.61 911.187 1365.45 862.749 1397.7 C 841.801 1411.53 827.275 1433.18 822.422 1457.81 C 817.72 1482.78 823.029 1508.6 837.201 1529.7 C 839.154 1532.61 841.28 1535.4 843.571 1538.05 C 843.967 1538.68 843.982 1538.69 844.531 1539.2 C 848.332 1543.46 850.482 1545.85 854.897 1549.66 C 855.805 1550.92 856.211 1551.06 857.53 1552.03 C 865.203 1554.56 888.997 1557.26 898.098 1558.54 C 921.996 1561.85 945.868 1565.36 969.712 1569.04 C 965.316 1569.81 959.925 1570.92 955.582 1571.42 C 954.631 1571.36 954.807 1571.36 953.876 1571.69 C 943.746 1572.79 925.294 1575.38 915.859 1574.8 L 913.99 1574.94 C 912.56 1575.02 911.272 1575.22 909.931 1575.74 C 909.837 1577.08 909.995 1577.1 909.304 1577.95 C 646.569 1586.49 521.263 1471.36 468.76 1217.61 L 470.387 1216.94 C 472.344 1223.7 473.359 1230.26 475.152 1236.37 C 499.788 1231.5 527.84 1222.71 552.411 1216.08 z" fill="rgb(213,151,107)" transform="translate(0,0)"></path>
<path d="M 877.603 1308.63 C 885.463 1309.09 893.335 1309.31 901.209 1309.28 C 919.501 1320.21 937.251 1328.29 958.961 1329.2 C 964.438 1329.08 969.917 1329.09 975.394 1329.23 L 976.664 1329.15 C 997.4 1327.65 1002.68 1320.06 1023.13 1330.28 C 994.055 1341.18 957.519 1344.18 927.176 1337.07 C 911.504 1333.39 886.3 1323.02 877.603 1308.63 z" fill="rgb(160,105,47)" transform="translate(0,0)"></path>
<path d="M 958.961 1329.2 C 964.438 1329.08 969.917 1329.09 975.394 1329.23 C 969.012 1330.37 965.502 1330.39 958.961 1329.2 z" fill="rgb(109,72,36)" transform="translate(0,0)"></path>
<path d="M 470.387 1216.94 C 472.344 1223.7 473.359 1230.26 475.152 1236.37 C 493.969 1338.3 557.744 1474.92 654.067 1524.61 C 655.126 1524.88 655.083 1524.86 655.903 1525.6 C 712.787 1559.61 801.764 1578.69 867.716 1576.87 C 875 1575.85 885.131 1575.83 892.544 1576.3 C 898.342 1576.21 904.139 1576.02 909.931 1575.74 C 909.837 1577.08 909.995 1577.1 909.304 1577.95 C 646.569 1586.49 521.263 1471.36 468.76 1217.61 L 470.387 1216.94 z" fill="rgb(66,49,37)" transform="translate(0,0)"></path>
<path d="M 867.716 1576.87 C 875 1575.85 885.131 1575.83 892.544 1576.3 C 886.16 1577.51 874.324 1577.25 867.716 1576.87 z" fill="rgb(160,105,47)" transform="translate(0,0)"></path>
<path d="M 1624.72 993.591 C 1650.28 1002.85 1674.31 1010.16 1700.01 1020.22 C 1763.57 1045.12 1824.82 1075.55 1883.07 1111.17 C 1897.95 1120.09 1920.39 1131.81 1932.53 1142.95 L 1933.38 1143.61 C 1934.31 1144.31 1934.8 1144.93 1935.44 1145.91 C 1938.4 1149.03 1940.93 1151.34 1943.12 1155.07 L 1945.17 1153.85 C 1964.81 1180.15 1973.15 1209.6 1968.22 1242.28 C 1963.73 1273.75 1946.66 1302.04 1920.92 1320.69 C 1895.22 1339.31 1865.34 1344.94 1834.07 1340.32 C 1808.12 1336.49 1791.36 1323.1 1770.24 1309.65 C 1757.55 1301.74 1744.69 1294.1 1731.68 1286.75 C 1706.93 1273 1682.8 1261.62 1657.75 1248.83 L 1656.02 1245.07 C 1652.52 1244.77 1645.79 1241.41 1642.13 1239.87 C 1616.4 1229.05 1590.28 1218.16 1563.63 1209.81 C 1580.63 1185.14 1608.71 1085.92 1615.82 1052.71 C 1618.73 1039.1 1620.26 1007.1 1624.72 993.591 z" fill="rgb(160,105,47)" transform="translate(0,0)"></path>
<path d="M 1945.17 1153.85 C 1964.81 1180.15 1973.15 1209.6 1968.22 1242.28 C 1963.73 1273.75 1946.66 1302.04 1920.92 1320.69 C 1895.22 1339.31 1865.34 1344.94 1834.07 1340.32 C 1808.12 1336.49 1791.36 1323.1 1770.24 1309.65 C 1757.55 1301.74 1744.69 1294.1 1731.68 1286.75 C 1706.93 1273 1682.8 1261.62 1657.75 1248.83 L 1656.02 1245.07 C 1691.16 1263.84 1727.61 1279.45 1761.58 1301.08 C 1783.51 1315.04 1805.24 1333.28 1831.53 1337.63 C 1899.63 1348.87 1954.2 1308.21 1966.21 1240.85 C 1966.6 1239.68 1966.55 1239.62 1966.58 1238.36 C 1967.54 1201.53 1965.11 1186.24 1943.12 1155.07 L 1945.17 1153.85 z" fill="rgb(109,72,36)" transform="translate(0,0)"></path>
<path d="M 1573.59 978.323 C 1589.51 983.405 1608.68 989.901 1624.72 993.591 C 1620.26 1007.1 1618.73 1039.1 1615.82 1052.71 C 1608.71 1085.92 1580.63 1185.14 1563.63 1209.81 C 1557.24 1206.18 1526.76 1198.72 1515.79 1193.94 C 1538.07 1130.01 1557.97 1044.52 1573.59 978.323 z" fill="rgb(121,79,39)" transform="translate(0,0)"></path>
<path d="M 760.35 655.501 C 762.627 656.251 769.078 658.314 769.322 661.247 C 781.646 809.174 816.803 954.371 840.137 1100.76 C 842.907 1118.14 859.608 1212.38 853.355 1223.21 C 850.909 1223.17 847.711 1223.41 845.348 1222.89 C 843.607 1222.51 842.597 1221.89 841.63 1220.46 C 838.562 1215.94 829.564 1134.35 827.494 1122.01 C 803.546 979.272 771.43 837.93 756.351 693.833 C 755.635 686.994 752.084 668.605 753.591 662.603 C 754.576 658.679 757.102 657.359 760.35 655.501 z" fill="rgb(255,255,255)" transform="translate(0,0)"></path>
<path d="M 470.387 1216.94 L 527.894 1198.31 C 545.486 1192.61 562.577 1186.39 580.901 1183.67 C 594.554 1222.2 613.037 1272.14 640.511 1303.05 C 641.536 1304.49 641.852 1305.18 643.39 1305.96 L 650.056 1311.57 C 650.839 1312.01 650.831 1312.06 651.519 1312.71 L 653.868 1314.45 C 654.827 1314.94 654.895 1315.15 655.648 1315.95 C 656.567 1316.73 656.725 1316.77 657.825 1317.34 C 688.126 1336.19 721.709 1344.01 756.963 1335.76 C 765.208 1333.8 773.224 1330.98 780.879 1327.34 C 781.797 1326.08 782.28 1326.19 783.99 1325.71 C 795.026 1319.88 800.362 1316.11 809.981 1308.12 L 823.306 1307.77 C 818.678 1312.88 809.586 1320.91 804.346 1325.21 C 775.511 1348.86 737.012 1353.61 701.094 1349.65 C 657.629 1344.87 629.646 1321.1 603.52 1287.96 C 594.909 1277.04 585.878 1266.53 577.965 1254.71 C 569.806 1242.53 562.366 1228.5 553.25 1217.11 L 552.411 1216.08 C 527.84 1222.71 499.788 1231.5 475.152 1236.37 C 473.359 1230.26 472.344 1223.7 470.387 1216.94 z" fill="rgb(153,114,83)" transform="translate(0,0)"></path>
<path d="M 780.879 1327.34 C 781.797 1326.08 782.28 1326.19 783.99 1325.71 C 782.931 1327.02 782.672 1326.9 780.879 1327.34 z" fill="rgb(109,72,36)" transform="translate(0,0)"></path>
<path d="M 479.682 809.748 C 487.196 825.857 496.129 858.383 500.892 875.852 C 508.495 903.739 517.292 935.621 522.503 963.872 C 511.618 967.368 500.656 970.619 489.625 973.621 C 485.504 943.713 472.367 837.013 479.682 809.748 z" fill="rgb(153,114,83)" transform="translate(0,0)"></path>
<path d="M 1605.24 873.944 C 1615.53 898.094 1608.57 959.841 1599.83 984.462 C 1591.8 981.456 1581.82 978.603 1573.52 975.997 C 1583.27 946.041 1591.85 901.804 1605.24 873.944 z" fill="rgb(153,114,83)" transform="translate(0,0)"></path>
<path d="M 1628.16 870.44 C 1629.82 877.834 1629.5 896.591 1628.97 904.274 C 1627.93 898.116 1627.76 876.822 1628.16 870.44 z" fill="rgb(153,114,83)" transform="translate(0,0)"></path>
<path d="M 1092.99 1013.94 C 1094.04 1019.84 1094.14 1022.69 1093.9 1028.57 C 1092.3 1022.15 1092.45 1020.67 1092.99 1013.94 z" fill="rgb(153,114,83)" transform="translate(0,0)"></path>
<path d="M 909.931 1575.74 C 911.272 1575.22 912.56 1575.02 913.99 1574.94 L 915.859 1574.8 C 915.129 1575.11 912.219 1576 911.753 1576.45 C 911.8 1576.8 911.722 1576.57 912.192 1577.21 C 910.698 1577.88 910.883 1577.81 909.304 1577.95 C 909.995 1577.1 909.837 1577.08 909.931 1575.74 z" fill="rgb(121,79,39)" transform="translate(0,0)"></path>
<path d="M 1072.14 777.437 C 1073.46 783.05 1073.45 784.291 1073.07 790.059 C 1071.72 784.307 1071.84 783.464 1072.14 777.437 z" fill="rgb(160,105,47)" transform="translate(0,0)"></path>
<path d="M 1628.3 922.752 C 1627.57 919.128 1628.16 918.125 1629.05 914.492 C 1629.19 917.582 1629.95 920.377 1628.3 922.752 z" fill="rgb(153,114,83)" transform="translate(0,0)"></path>
<path d="M 1384.18 721.028 C 1384.22 720.098 1384.12 719.984 1384.61 719.252 C 1384.63 720.248 1384.66 720.14 1384.18 721.028 z" fill="rgb(160,105,47)" transform="translate(0,0)"></path>
<path d="M 497.699 973.272 C 506.343 972.062 515.073 969.109 523.339 966.37 C 536.559 1020.92 547.755 1075.69 564.163 1129.7 C 568.138 1142.78 574.772 1170 579.979 1181 C 569.103 1182.88 561.291 1185.3 550.683 1188.32 C 497.779 1206.01 443.533 1221.78 392.872 1245.49 C 362.188 1259.85 329.817 1274.21 301.514 1292.61 C 294.974 1297.4 281.817 1302.08 276.17 1306.91 C 235.178 1341.97 180.312 1352.41 132.241 1321.13 C 107.02 1304.74 89.4708 1278.87 83.5604 1249.38 C 76.1132 1213.4 83.2321 1186.9 102.716 1157 C 103.349 1155.74 103.252 1155.69 104.336 1154.88 C 109.082 1149.07 114.169 1144.16 119.844 1139.29 C 120.71 1138.23 120.812 1138.29 122.091 1137.51 L 124.469 1135.61 C 125.125 1135.03 125.103 1134.98 125.85 1134.63 C 133.109 1129.28 141.747 1125.29 149.424 1120.54 C 160.382 1113.76 171.325 1107.16 182.43 1100.62 C 246.553 1062.42 314.533 1031.11 385.238 1007.2 C 423.026 994.586 460.74 985.44 497.699 973.272 z" fill="rgb(160,105,47)" transform="translate(0,0)"></path>
<path d="M 497.699 973.272 C 506.343 972.062 515.073 969.109 523.339 966.37 C 536.559 1020.92 547.755 1075.69 564.163 1129.7 C 568.138 1142.78 574.772 1170 579.979 1181 C 569.103 1182.88 561.291 1185.3 550.683 1188.32 C 542.887 1167.26 536.175 1144.96 529.176 1123.54 C 520.433 1096.78 511.705 1070.64 506.495 1042.92 C 504.187 1030.31 502.366 1017.61 501.038 1004.86 C 500.056 994.727 499.667 983.152 497.699 973.272 z" fill="rgb(121,79,39)" transform="translate(0,0)"></path>
<path d="M 906.607 1384.34 C 930.82 1380.49 974.489 1388.28 996.426 1399.91 C 1062.58 1434.98 1061.15 1518.1 1029.12 1577.37 C 1011.52 1574.11 993.886 1571.01 976.225 1568.08 C 940.378 1561.68 895.519 1554.97 859.468 1550.7 C 840.194 1534.68 827.941 1514.65 824.187 1489.72 C 820.496 1465.76 826.536 1441.32 840.961 1421.84 C 857.746 1399.19 879.384 1388.55 906.607 1384.34 z" fill="rgb(240,184,169)" transform="translate(0,0)"></path>
<path d="M 1077.86 631.836 C 1086.57 632.176 1089.41 633.695 1089.49 643.41 C 1089.88 686.404 1089.86 729.404 1089.97 772.4 L 1091.13 994.562 L 1092 1153.05 C 1092.01 1174.73 1092.37 1196.99 1092.11 1218.7 C 1092.08 1221.21 1090.09 1223.19 1088.43 1225 C 1083.36 1225.43 1077.27 1225.86 1076.99 1218.97 C 1076.24 1200.3 1076.66 1181.51 1076.55 1162.8 L 1075.89 1027.12 L 1074.64 800.423 L 1073.83 692.979 C 1073.79 675.438 1073.67 657.569 1073.91 640.007 C 1073.97 635.661 1075.19 635.224 1077.86 631.836 z" fill="rgb(255,255,255)" transform="translate(0,0)"></path>
<path d="M 1371.46 695.854 C 1376.65 695.749 1378.28 695.38 1382.2 698.81 C 1383.83 701.901 1383.72 706.001 1383.46 709.471 C 1371.13 871.775 1355.19 1034.65 1316.85 1193.19 C 1314.65 1202.27 1307.46 1239.18 1302.42 1243.75 C 1298.9 1244.74 1299.13 1244.74 1295.51 1244.37 C 1290 1240.8 1290.28 1235.04 1291.86 1229.05 C 1325.33 1102.66 1341.52 976.622 1355.95 846.806 C 1359.19 815.526 1362.08 784.209 1364.61 752.863 C 1365.51 741.355 1366.53 703.099 1371.46 695.854 z" fill="rgb(255,255,255)" transform="translate(0,0)"></path>
<path d="M 1030.93 1311.1 C 1048 1319.83 1060.4 1326.84 1075.25 1339.61 C 1076.5 1340.21 1076.4 1340.06 1077.15 1341.13 C 1081.2 1344.7 1083.39 1346.6 1086.96 1350.81 C 1088.83 1352.42 1089.29 1353.33 1090.68 1355.4 L 1092.69 1357.8 C 1093.27 1358.35 1093.2 1358.38 1093.62 1359.13 L 1096.68 1363.15 C 1098.95 1365.9 1101.18 1368.64 1102.57 1371.95 L 1103 1372.93 C 1119.02 1399.15 1124.02 1436.36 1117.02 1466.19 C 1110.38 1494.49 1098.15 1505.57 1079.22 1524.82 C 1078.34 1525.76 1078.3 1525.72 1077.18 1526.39 C 1067.5 1534.44 1062.33 1537.67 1051.19 1543.64 C 1067.87 1523.17 1072.37 1522.11 1082.88 1496.38 C 1096.74 1462.49 1096.61 1424.49 1082.52 1390.7 C 1068.05 1356.5 1043.08 1335.48 1009.33 1321.95 C 1018.13 1317.91 1022.49 1316.18 1030.93 1311.1 z" fill="rgb(153,114,83)" transform="translate(0,0)"></path>
<path d="M 1096.68 1363.15 C 1098.95 1365.9 1101.18 1368.64 1102.57 1371.95 L 1103 1372.93 C 1100.17 1369.1 1098.36 1367.53 1096.68 1363.15 z" fill="rgb(121,79,39)" transform="translate(0,0)"></path>
<path d="M 1086.96 1350.81 C 1088.83 1352.42 1089.29 1353.33 1090.68 1355.4 C 1088.53 1353.55 1087.79 1353.54 1086.96 1350.81 z" fill="rgb(160,105,47)" transform="translate(0,0)"></path>
<path d="M 1514.71 1196.31 C 1526.97 1200.72 1537.93 1203.41 1550.16 1207.36 C 1533.44 1236.25 1508.98 1262.91 1482.69 1283.25 C 1475.42 1288.81 1468.81 1293.46 1460.56 1297.4 C 1484.46 1269.45 1504.99 1231.78 1514.71 1196.31 z" fill="rgb(213,151,107)" transform="translate(0,0)"></path>
<path d="M 850.465 1232.1 C 853.143 1238.31 854.777 1245.84 857.289 1252.38 C 865.294 1273.24 877.252 1289.18 894.381 1303.37 L 897.42 1305.92 C 882.898 1305.93 873.208 1305.21 858.75 1304.07 C 845.32 1303.35 827.177 1304.7 813.053 1304.97 C 835.036 1277.24 840.677 1266.79 850.465 1232.1 z" fill="rgb(121,79,39)" transform="translate(0,0)"></path>
<path d="M 1296.89 1273.79 C 1299.89 1265.55 1302.39 1257.69 1305.95 1249.58 C 1312.37 1265.75 1314.95 1273.25 1325.62 1287.93 C 1326.19 1288.3 1326.17 1288.45 1326.57 1289.11 C 1341.62 1306.34 1351.08 1312.6 1372.11 1321.35 L 1370.96 1323.67 C 1369.64 1323.47 1368.32 1323.29 1366.99 1323.12 C 1359.01 1322.18 1353 1319.44 1345.77 1316.38 C 1324.23 1307.28 1310.17 1292.4 1296.89 1273.79 z" fill="rgb(153,114,83)" transform="translate(0,0)"></path>
<path d="M 1082.38 1237.86 C 1089.11 1267.59 1097.79 1292.84 1120.72 1313.87 L 1119.15 1316.06 C 1115.32 1313.83 1111.21 1311.38 1107.46 1309.03 C 1106.41 1308.31 1106.5 1308.48 1105.79 1307.56 L 1104.85 1306.97 C 1103.32 1306.04 1102.91 1305.97 1101.85 1304.73 C 1087.65 1293.18 1081.46 1283.22 1070.4 1269.04 C 1075.9 1257.46 1078.72 1250.3 1082.38 1237.86 z" fill="rgb(153,114,83)" transform="translate(0,0)"></path>
<path d="M 1372.11 1321.35 C 1373.01 1321.55 1380.36 1322.85 1380.1 1324.11 C 1379.33 1324.72 1372.33 1323.8 1370.96 1323.67 L 1372.11 1321.35 z" fill="rgb(153,114,83)" transform="translate(0,0)"></path>
<path d="M 1120.72 1313.87 C 1126.78 1319.28 1125.72 1319.45 1119.15 1316.06 L 1120.72 1313.87 z" fill="rgb(109,72,36)" transform="translate(0,0)"></path>
<path d="M 422.395 992.654 C 416.976 936.133 418.433 879.163 426.735 822.993 C 439.994 735.825 467.995 634.468 542.877 579.938 C 592.531 543.83 658.925 540.786 711.675 572.198 C 716.24 574.974 719.892 578.043 723.926 581.077 C 730.779 586.23 737.915 594.677 746.52 596.141 C 755.706 597.703 760.144 578.531 763.329 573.273 C 827.994 466.527 954.307 438.53 1044.88 532.477 L 1041.34 532.049 C 1040.75 531.103 1038.5 528.767 1037.63 527.814 C 1034.92 524.739 1033.74 523.619 1030.52 521.125 L 1026.25 517.444 C 1025.63 516.861 1025.85 516.991 1025.15 516.644 L 1021.12 513.143 C 1020.16 512.13 1020.18 512.228 1018.89 511.484 L 1016.52 509.645 C 1015.8 509.016 1015.72 508.866 1014.92 508.461 L 1012.49 506.636 C 1011.24 505.762 1010.81 505.439 1009.44 504.774 C 1008.83 504.114 1008.79 503.917 1008 503.577 C 980.009 485.225 947.015 476.008 913.567 477.199 C 912.163 477.141 912.311 477.073 911.127 477.696 C 849.835 482.951 801.528 517.432 768.462 568.308 C 758.117 584.226 757.074 611.483 732.898 591.322 C 731.993 589.742 731.634 589.486 730.05 588.596 C 705.584 565.323 661.039 550.934 627.721 552.568 C 481.982 559.716 431.271 748.623 423.647 866.313 C 423.696 867.775 423.8 867.638 423.142 868.811 C 422.752 876.974 421.918 886.758 421.777 894.744 C 422.191 898.968 421.875 899.912 420.858 904.043 L 420.876 947.954 C 421.596 951.118 422.18 952.524 421.672 955.76 C 422.25 965.723 422.683 982.896 424.073 992.307 L 422.395 992.654 z" fill="rgb(66,49,37)" transform="translate(0,0)"></path>
<path d="M 420.858 904.043 C 420.773 900.376 420.324 898.019 421.777 894.744 C 422.191 898.968 421.875 899.912 420.858 904.043 z" fill="rgb(153,114,83)" transform="translate(0,0)"></path>
<path d="M 420.876 947.954 C 421.596 951.118 422.18 952.524 421.672 955.76 C 420.762 954.339 420.644 953.598 420.715 951.857 L 420.81 949.903 L 420.876 947.954 z" fill="rgb(153,114,83)" transform="translate(0,0)"></path>
<path d="M 423.142 868.811 C 423.109 867.362 422.96 867.39 423.647 866.313 C 423.696 867.775 423.8 867.638 423.142 868.811 z" fill="rgb(153,114,83)" transform="translate(0,0)"></path>
<path d="M 762.1 653.871 C 766.529 655.655 767.89 655.755 770.602 659.392 C 772.718 666.245 774.267 694.123 775.358 704.04 C 778.518 731.432 782.246 758.754 786.54 785.991 C 803.839 896.684 827.24 1005.47 844.617 1115.99 C 847.364 1133.46 858.869 1204.87 856.767 1220.41 C 855.631 1221.9 855.162 1222.79 853.75 1223.94 L 853.355 1223.21 C 859.608 1212.38 842.907 1118.14 840.137 1100.76 C 816.803 954.371 781.646 809.174 769.322 661.247 C 769.078 658.314 762.627 656.251 760.35 655.501 L 762.1 653.871 z" fill="rgb(66,49,37)" transform="translate(0,0)"></path>
<path d="M 1075.63 579.501 C 1077.53 580.362 1083.75 582.536 1085.6 581.188 C 1094.41 574.756 1101.31 565.177 1109.58 557.785 C 1194.6 481.848 1306.53 511.808 1362.51 604.051 L 1359.66 604.104 C 1358.05 599.577 1355.33 596.146 1352.61 592.148 C 1352.23 591.432 1352.34 591.505 1351.77 590.948 L 1346.59 584.015 C 1346.11 583.305 1346.14 583.26 1345.53 582.727 L 1343.76 580.283 C 1342.91 578.991 1342.94 578.892 1341.78 577.94 L 1336.44 571.909 C 1335.73 570.73 1335.84 570.785 1334.7 570.015 C 1332.21 567.114 1328.99 564.182 1326.2 561.501 C 1325.63 560.853 1325.79 561.003 1325.12 560.533 C 1293.67 531.374 1253.47 515.464 1210.49 516.977 C 1172.5 518.681 1136.47 534.313 1109.27 560.89 C 1102.29 567.594 1094.53 576.903 1087.01 582.734 C 1084.16 584.937 1077.97 582.788 1074.72 581.167 L 1075.63 579.501 z" fill="rgb(46,32,23)" transform="translate(0,0)"></path>
<path d="M 1362.96 604.916 C 1370.13 618.755 1374.51 632.039 1380.01 646.398 C 1382.36 652.551 1389.75 651.168 1393.75 647.993 C 1422.26 625.378 1457.27 618.508 1493.05 626.593 C 1522.76 633.306 1548.08 651.461 1568.6 675.041 L 1565.67 675.097 C 1564.22 672.59 1560.54 669.132 1558.41 666.94 C 1557.09 664.615 1555.8 663.884 1553.67 662.201 L 1547.21 656.497 C 1546.55 655.831 1546.76 656.014 1546.06 655.559 L 1542.21 652.461 C 1541.5 651.839 1541.73 652.007 1540.99 651.592 L 1535.19 647.436 C 1534.58 646.901 1534.67 646.908 1533.95 646.619 C 1494.46 621.681 1452.76 618.063 1410.4 638.417 C 1403.55 641.94 1385.68 662.343 1379.02 648.371 C 1372.62 634.933 1368.58 619.981 1361.44 606.048 L 1362.96 604.916 z" fill="rgb(46,32,23)" transform="translate(0,0)"></path>
<path d="M 1094.11 1038.48 C 1095.63 1046.77 1095.17 1119.51 1094.2 1130.27 C 1092.89 1108.66 1094.67 1085.65 1093.93 1063.91 C 1093.65 1055.89 1093.61 1046.43 1094.11 1038.48 z" fill="rgb(160,105,47)" transform="translate(0,0)"></path>
<path d="M 1059.69 550.37 C 1065.2 556.212 1072.67 571.707 1075.63 579.501 L 1074.72 581.167 C 1069.93 574.704 1068.1 565.33 1062.85 558.852 C 1061.01 556.576 1059.54 553.533 1057.87 551.096 L 1059.69 550.37 z" fill="rgb(121,79,39)" transform="translate(0,0)"></path>
<path d="M 1072.96 820.963 C 1073.85 835.659 1073.51 873.155 1072.84 888.423 C 1071.73 878.672 1071.49 830.013 1072.96 820.963 z" fill="rgb(153,114,83)" transform="translate(0,0)"></path>
<path d="M 1044.88 532.477 C 1049.42 537.146 1056.03 544.989 1059.69 550.37 L 1057.87 551.096 C 1054.94 546.229 1048.32 538.512 1044.1 534.764 L 1044.88 532.477 z" fill="rgb(46,32,23)" transform="translate(0,0)"></path>
<path d="M 1578.73 688.437 C 1580.17 689.795 1580.69 691.052 1581.88 692.753 L 1580.81 695.153 C 1579.31 693.252 1578.23 691.105 1576.83 689.133 L 1578.73 688.437 z" fill="rgb(121,79,39)" transform="translate(0,0)"></path>
<path d="M 1568.32 678.052 C 1568.17 676.997 1568.44 676.692 1568.85 675.493 C 1570.15 677.138 1571.47 678.759 1572.82 680.357 L 1570.79 681.559 C 1570.07 680.481 1569.17 678.975 1568.32 678.052 z" fill="rgb(46,32,23)" transform="translate(0,0)"></path>
<path d="M 1572.82 680.357 C 1573.28 680.842 1573.74 681.333 1574.18 681.83 L 1573.16 683.791 C 1572.03 682.832 1571.69 682.586 1570.79 681.559 L 1572.82 680.357 z" fill="rgb(160,105,47)" transform="translate(0,0)"></path>
<path d="M 1385.48 701.002 C 1385.95 703.612 1386.79 705.466 1385.14 707.643 C 1384.9 706.023 1384.93 704.551 1385.19 702.933 L 1385.48 701.002 z" fill="rgb(153,114,83)" transform="translate(0,0)"></path>
<path d="M 1568.6 675.041 L 1568.85 675.493 C 1568.44 676.692 1568.17 676.997 1568.32 678.052 C 1567.52 677.525 1567.01 676.901 1566.45 676.131 L 1565.67 675.097 L 1568.6 675.041 z" fill="rgb(160,105,47)" transform="translate(0,0)"></path>
<path d="M 1573.16 683.791 L 1574.18 681.83 C 1574.96 683.051 1575.66 683.961 1576.52 685.114 L 1573.94 685.578 L 1573.16 683.791 z" fill="rgb(46,32,23)" transform="translate(0,0)"></path>
<path d="M 1030.52 521.125 C 1033.74 523.619 1034.92 524.739 1037.63 527.814 C 1034.06 525.796 1033.28 524.484 1030.52 521.125 z" fill="rgb(153,114,83)" transform="translate(0,0)"></path>
<path d="M 1362.51 604.051 L 1362.96 604.916 L 1361.44 606.048 C 1360.5 605.174 1360.43 605.121 1359.66 604.104 L 1362.51 604.051 z" fill="rgb(121,79,39)" transform="translate(0,0)"></path>
<path d="M 1575.8 687.261 L 1577.06 685.846 L 1578.73 688.437 L 1576.83 689.133 L 1575.8 687.261 z" fill="rgb(46,32,23)" transform="translate(0,0)"></path>
<path d="M 1576.52 685.114 L 1577.06 685.846 L 1575.8 687.261 C 1574.8 686.55 1574.71 686.532 1573.94 685.578 L 1576.52 685.114 z" fill="rgb(160,105,47)" transform="translate(0,0)"></path>
<path d="M 730.05 588.596 C 731.634 589.486 731.993 589.742 732.898 591.322 C 731.237 590.36 730.96 590.388 730.05 588.596 z" fill="rgb(160,105,47)" transform="translate(0,0)"></path>
<path d="M 1041.34 532.049 L 1044.88 532.477 L 1044.1 534.764 C 1042.96 533.736 1042.33 533.185 1041.34 532.049 z" fill="rgb(160,105,47)" transform="translate(0,0)"></path>
<path d="M 1553.67 662.201 C 1555.8 663.884 1557.09 664.615 1558.41 666.94 C 1556.48 666.018 1554.98 663.873 1553.67 662.201 z" fill="rgb(160,105,47)" transform="translate(0,0)"></path>
<path d="M 911.127 477.696 C 912.311 477.073 912.163 477.141 913.567 477.199 C 912.728 477.918 912.251 477.815 911.127 477.696 z" fill="rgb(153,114,83)" transform="translate(0,0)"></path>
<path d="M 1362.85 757.44 C 1362.88 758.42 1362.87 758.336 1362.38 759.201 C 1362.43 758.258 1362.29 758.091 1362.85 757.44 z" fill="rgb(153,114,83)" transform="translate(0,0)"></path>
<path d="M 888.217 1275.14 C 878.865 1223.96 865.258 1155.61 904.299 1113.25 C 918.218 1098.15 941.797 1086.65 962.553 1086.8 C 1019.83 1087.2 1050.05 1141.59 1051.2 1193.29 C 1052.27 1195.31 1051.99 1196.33 1051.73 1198.65 C 1052.03 1206.86 1052.21 1213.64 1051.91 1221.83 C 1051.94 1224.63 1052.41 1228.3 1051.2 1230.71 C 1050.94 1243.98 1050.35 1254.82 1047.93 1267.94 C 1025.31 1273.04 1006.71 1274.74 983.692 1275.19 C 981.926 1276.2 981.529 1275.95 979.292 1275.72 L 969.037 1276.13 C 961.664 1277.33 923.797 1277.39 916.85 1276.12 L 888.217 1275.14 z" fill="rgb(46,32,23)" transform="translate(0,0)"></path>
<path d="M 916.85 1276.12 C 926.839 1275.42 958.972 1275.38 969.037 1276.13 C 961.664 1277.33 923.797 1277.39 916.85 1276.12 z" fill="rgb(121,79,39)" transform="translate(0,0)"></path>
<path d="M 1051.91 1221.83 C 1051.94 1224.63 1052.41 1228.3 1051.2 1230.71 C 1050.21 1226.88 1050.8 1225.73 1051.91 1221.83 z" fill="rgb(109,72,36)" transform="translate(0,0)"></path>
<path d="M 1051.2 1193.29 C 1052.27 1195.31 1051.99 1196.33 1051.73 1198.65 C 1050.35 1196.7 1050.65 1195.59 1051.2 1193.29 z" fill="rgb(109,72,36)" transform="translate(0,0)"></path>
<path d="M 979.292 1275.72 C 981.044 1274.43 981.596 1274.71 983.692 1275.19 C 981.926 1276.2 981.529 1275.95 979.292 1275.72 z" fill="rgb(109,72,36)" transform="translate(0,0)"></path>
<path d="M 955.511 1089.26 C 982.454 1086.65 1008.36 1098.84 1024.79 1120.03 C 1055.37 1159.49 1051.87 1219.12 1046.41 1266.12 C 1021.48 1271.73 1001.84 1272.12 976.776 1273.84 C 946.173 1274.73 920.338 1274.13 890.035 1272.75 C 882.054 1227.23 869.775 1164.33 898.21 1124.32 C 912.56 1104.13 931.501 1093.46 955.511 1089.26 z" fill="rgb(240,184,169)" transform="translate(0,0)"></path>
<path d="M 1194.68 1106.39 C 1225.46 1105.68 1252.69 1123.32 1266.8 1150.04 C 1290.07 1194.07 1277.91 1250.47 1263.95 1295.44 C 1240.99 1296.3 1218 1295.18 1195.23 1292.11 C 1184.24 1291.6 1116.05 1278.89 1107.88 1274.01 C 1106.44 1271.11 1105.87 1268.6 1105.77 1265.34 C 1104.18 1215.88 1104.58 1155.03 1148.99 1122.86 C 1163.16 1112.6 1177.37 1107.71 1194.68 1106.39 z" fill="rgb(46,32,23)" transform="translate(0,0)"></path>
<path d="M 1187.74 1109.28 C 1197.28 1108.29 1205.85 1108.77 1215.11 1111.25 C 1235.71 1116.72 1253.21 1130.31 1263.62 1148.9 C 1288.29 1192.5 1275.23 1247.61 1262.78 1293.13 C 1239.95 1293.69 1223.52 1292.87 1200.97 1290.68 C 1168.2 1286.76 1140.07 1280.43 1108.08 1272.87 C 1107.5 1230.03 1104.3 1183.13 1129.64 1145.9 C 1143.72 1125.2 1163.35 1113.65 1187.74 1109.28 z" fill="rgb(240,184,169)" transform="translate(0,0)"></path>
<path d="M 712.612 1109.33 C 712.811 1109.3 713.009 1109.28 713.207 1109.25 C 733.989 1107.59 754.618 1113.96 770.842 1127.05 C 808.715 1158.04 814.096 1217.77 818.374 1263.4 C 786.73 1274.09 765.141 1283.44 731.281 1292.47 C 708.513 1298.09 685.969 1302.91 662.62 1305.49 C 639.061 1256.16 619.749 1191.95 656.465 1143.17 C 670.594 1124.4 689.151 1112.45 712.612 1109.33 z" fill="rgb(46,32,23)" transform="translate(0,0)"></path>
<path d="M 714.766 1111.35 C 733.712 1110.3 754.236 1116.26 768.857 1128.43 C 807.096 1160.24 811.435 1215.94 815.925 1261.78 C 787.053 1273.5 757.424 1283.28 727.239 1291.03 C 708.004 1296.54 683.325 1300.43 663.585 1303.22 C 652.54 1280.01 642.509 1252.39 638.901 1226.97 C 631.583 1175.4 658.334 1118.02 714.766 1111.35 z" fill="rgb(240,184,169)" transform="translate(0,0)"></path>
<path d="M 1398.96 1127.18 C 1406.14 1126.42 1412.1 1126.49 1419.11 1128.08 C 1435.81 1131.81 1450.35 1142.04 1459.51 1156.5 C 1484.47 1196.66 1465.47 1247.06 1455.72 1289 C 1439.84 1287.44 1424 1285.45 1408.22 1283.05 C 1376.28 1277.27 1360.53 1272.43 1329.36 1262.05 C 1328.87 1246.68 1331.95 1224.04 1334.22 1208.69 C 1340.02 1169.45 1357.85 1136.38 1398.96 1127.18 z" fill="rgb(46,32,23)" transform="translate(0,0)"></path>
<path d="M 1401.52 1129.26 C 1407.72 1128.83 1413.23 1129.12 1419.33 1130.51 C 1435.38 1134.23 1449.28 1144.21 1457.95 1158.22 C 1481.8 1196.97 1463.26 1246.25 1454.05 1286.18 C 1438.79 1285.46 1421.34 1282.72 1406.25 1280.39 C 1380.81 1276.14 1355.85 1269.44 1331.71 1260.36 C 1333.22 1209.32 1339.92 1139.48 1401.52 1129.26 z" fill="rgb(240,184,169)" transform="translate(0,0)"></path>
<metadata><recraft-signature>{"signed_by": "recraft", "signature_b64": "OLM99ha1oMZ6kQrjwrtoRDTpgNxv8VhHr5EVvr2FyxMOFtSfCWDLrocFbf5Vub9DGhIBAzcYXH8zJBxi7yM7AA==", "signing_algo": "Ed25519", "generation_timestamp": 1779093234, "identifier": "62ba9890-d2e7-4fef-99d9-943039056077"}</recraft-signature></metadata></svg>