<svg xmlns="http://www.w3.org/2000/svg" height="1024" preserveAspectRatio="none" style="display: block;" version="1.1" viewBox="0 0 2048 2048" width="1024">
<path d="M 0 0 L 2048 0 L 2048 2048 L 0 2048 L 0 0 z" fill="rgb(255,255,255)" transform="translate(0,0)"></path>
<path d="M 523.198 273.271 C 545.998 270.445 568.135 276.547 585.237 292.104 C 599.334 304.902 607.705 322.824 608.47 341.849 C 609.334 364.356 600.899 381.358 585.98 397.373 L 586.227 434.487 C 606.309 416.021 632.369 398.238 655.778 384.065 C 744.988 330.806 844.819 297.814 948.197 287.427 C 1134.03 266.448 1320.6 320.119 1466.88 436.643 L 1466.23 397.499 C 1452.79 383.999 1444.39 366.837 1443.73 347.67 C 1442.93 328.25 1450.14 309.352 1463.68 295.4 C 1476.7 281.76 1497.29 273.172 1516.14 272.751 C 1536.28 272.32 1555.74 280.002 1570.15 294.069 C 1601 323.962 1597.57 368.129 1568.57 397.975 C 1567.09 417.236 1568.62 458.094 1568.69 478.72 L 1568.76 635.447 L 1568.54 767.366 C 1568.46 791.464 1567.99 817.952 1569.51 842.015 C 1569.86 847.451 1580.72 865.452 1583.34 872.345 C 1593.51 899.152 1598.08 922.427 1599.56 950.719 C 1655.61 994.684 1680.46 1061.16 1681.58 1131.08 C 1682.12 1165.01 1681.35 1201.21 1682.18 1235.16 C 1682.41 1244.26 1694.46 1271.68 1697.89 1282.42 C 1706.54 1308.79 1712.55 1335.95 1715.84 1363.51 C 1720.34 1400.29 1718.83 1435.64 1719.05 1472.61 C 1719.22 1500.91 1718.27 1526.76 1725.94 1554.54 C 1734.58 1585.86 1752.22 1613.96 1776.68 1635.34 C 1788.97 1646.22 1805.62 1651 1811.27 1667.08 C 1813.7 1673.87 1813.25 1681.37 1810.02 1687.83 C 1801.79 1704.73 1777.91 1713.66 1761.25 1719.4 C 1694.95 1740.38 1607.89 1740.69 1540.6 1724.64 C 1512.8 1718.01 1471.24 1706.99 1456.3 1680.91 C 1447.24 1665.09 1449.65 1653.28 1454.04 1637.25 C 1380.92 1638.58 1304.45 1637.81 1231.31 1637.52 L 1008.68 1637.37 L 739.5 1637.51 C 691.747 1637.87 643.991 1637.84 596.239 1637.43 C 601.997 1657.75 600.199 1680.98 581.706 1694.2 C 528.872 1731.94 439.827 1738.68 376.83 1735.04 C 336.248 1732.69 275.19 1724.08 246.242 1695.35 C 224.59 1672.96 249.33 1653 267.059 1640.33 C 292.243 1621.47 318.316 1585.55 325.35 1554.42 C 338.289 1497.19 328.978 1432.45 334.359 1373.65 C 337.273 1340.42 343.915 1307.63 354.16 1275.89 C 358.328 1263.27 367.891 1244.78 370.108 1232.92 C 371.415 1225.94 370.649 1205.68 370.837 1197.45 C 371.61 1163.54 368.842 1127.31 373.339 1093.78 C 380.825 1037.97 407.352 982.816 453.214 948.573 C 456.465 923.029 457.691 907.371 466.093 882.044 C 469.21 872.648 481.781 849.217 482.343 843.162 C 483.725 828.268 483.248 806.625 483.257 791.169 L 483.196 696.607 L 482.894 398.283 C 479.449 394.35 476.486 390.81 473.555 386.481 C 442.446 340.545 470.197 282.661 523.198 273.271 z" fill="rgb(29,27,28)" transform="translate(0,0)"></path>
<path d="M 680.749 1049.48 C 716.452 1049.32 757.549 1048.29 793.076 1049.81 C 792.185 1108.19 811.684 1149.32 864.968 1177.88 C 884.497 1188.35 913.021 1183.26 932.876 1176.15 C 959.85 1166.51 978.89 1145.18 990.73 1119.59 C 1017.88 1122.18 1036.22 1123.67 1063.8 1118.76 C 1079.86 1161.09 1119.57 1184.16 1164.11 1184 C 1188.77 1183.91 1214.37 1163.76 1230.3 1146.58 C 1255.95 1118.93 1262.31 1086.23 1260.57 1049.75 C 1396.27 1047.63 1600.15 1040.9 1659.72 1195.04 C 1661.53 1199.74 1663.17 1204.86 1664.76 1209.65 C 1658.23 1200.33 1626.25 1157.65 1614.99 1158.72 L 1614.21 1160.76 C 1615.5 1164.2 1631.7 1177.59 1635.46 1181.55 C 1661.44 1208.88 1680.21 1247.05 1691.82 1282.57 C 1704 1320.82 1711.05 1360.52 1712.78 1400.62 C 1715.61 1462.29 1704.42 1530.24 1731.33 1585.8 C 1741.84 1607.22 1756.68 1626.23 1774.9 1641.63 C 1782.11 1647.63 1801 1658.21 1804.38 1665.69 C 1822.45 1705.7 1732.22 1721.72 1713.61 1724.59 C 1645.76 1735.2 1574.25 1731.68 1508.91 1709.76 C 1483.37 1701.2 1449.09 1682.87 1457.5 1650.34 C 1475.54 1580.54 1498.56 1510.66 1498.82 1437.76 C 1498.86 1428.33 1500.37 1411.39 1496.31 1403.02 L 1494.9 1403 C 1491.85 1407.9 1492.5 1416.64 1492.59 1422.41 C 1493.18 1463.79 1487.68 1503.1 1479.2 1543.56 C 1472.03 1572.99 1464.24 1602.27 1455.83 1631.38 C 1396.19 1632.18 1335.52 1631.6 1275.79 1631.62 L 988.429 1631.91 L 732.158 1631.49 C 686.368 1631.45 639.448 1632.39 593.843 1631.48 C 575.254 1578.62 562.876 1518.07 557.62 1462.26 C 556.744 1452.96 557.165 1407.26 554.812 1404.3 L 551.909 1404.56 C 549.55 1407.68 550.564 1426.56 550.651 1431.71 C 551.188 1467.13 555.114 1502.43 562.377 1537.1 C 567.817 1563.98 575.595 1592.79 583.489 1619.36 C 592.118 1643.85 603.12 1676.05 573.227 1693.47 C 507.212 1731.95 410.392 1735.8 336.059 1724.65 C 308.172 1720.47 226.688 1703.55 248.913 1662.88 C 251.354 1658.42 268.362 1647.34 272.917 1643.38 C 327.149 1600.21 341.757 1540.27 338.209 1473.97 C 337.02 1451.75 338.094 1419.09 339.01 1396.2 C 341.654 1330.12 359.305 1253 399.36 1198.86 C 403.918 1192.6 408.911 1186.67 414.303 1181.12 C 419.044 1176.32 435.045 1164.01 435.715 1160.08 L 433.434 1159.39 C 418.15 1162.91 392.868 1198.34 383.467 1211.1 C 392.565 1181.79 408.435 1154.68 429.297 1132.19 C 487.174 1069.79 598.901 1051.72 680.749 1049.48 z" fill="rgb(69,127,178)" transform="translate(0,0)"></path>
<path d="M 489.112 394.873 C 476.231 383.283 467.773 366.917 466.799 349.521 C 465.767 331.68 471.918 314.168 483.879 300.891 C 495.746 287.487 512.52 279.439 530.401 278.572 C 549.345 277.705 567.851 284.443 581.804 297.287 C 594.467 308.949 601.949 325.185 602.588 342.389 C 603.371 362.98 595.413 380.669 579.957 394.146 C 579.962 411.951 579.823 429.756 579.538 447.558 C 597.976 432.02 617.423 415.543 637.568 402.337 C 769.392 315.919 930.564 279.064 1086.63 292.278 C 1199.5 301.461 1308.47 337.786 1404.27 398.157 C 1424.33 410.838 1442.54 424.565 1460.99 439.471 C 1464.55 442.346 1468.38 445.43 1472.28 447.805 C 1472.9 430.753 1472.38 412.074 1472.22 394.896 C 1444.44 366.064 1440.64 325.965 1471.04 297.296 C 1484.18 284.759 1501.84 278.084 1519.99 278.793 C 1538.23 279.578 1556.02 287.133 1568.42 300.679 C 1580.19 313.695 1586.3 330.859 1585.4 348.384 C 1584.41 366.781 1575.79 383.06 1562.46 395.513 L 1562.8 700.78 L 1562.61 785.88 C 1562.58 795.162 1563.15 819.612 1562.26 827.912 C 1562.38 835.247 1560.06 830.469 1558.21 827.141 C 1536.07 798.091 1515.45 777.923 1484.15 758.488 C 1486.65 727.707 1485.28 696.734 1480.07 666.295 C 1477.84 653.493 1474.14 640.437 1472.32 627.8 C 1477.52 615.101 1487.72 604.167 1493.73 590.936 C 1501.93 572.891 1506.17 546.101 1483.64 536.484 C 1467.84 530.43 1445.37 539.689 1430.74 546.812 C 1423.68 550.291 1416.77 554.082 1410.04 558.174 C 1353.4 543.815 1293.3 537.59 1235.06 544.241 C 1248.69 525.04 1256.09 505.979 1251.99 481.964 C 1248.47 462.327 1237.2 444.935 1220.7 433.714 C 1203.89 421.986 1183.08 417.462 1162.91 421.149 C 1136.53 426.21 1117.24 443.103 1105.03 466.416 C 1053.6 445.555 1009.86 445.727 957.974 463.87 C 946.085 442.791 931.444 428.988 907.41 422.422 C 887.389 416.891 865.99 419.583 847.962 429.899 C 810.611 451.37 799.655 497.433 821.882 533.765 C 824.852 538.618 828.245 543.008 831.681 547.529 C 763.655 536.478 706.972 543 640.592 557.813 C 621.246 546.62 571.471 518.563 553.496 548.498 C 547.964 557.711 550.957 574.004 554.243 583.608 C 559.87 601.137 573.506 611.774 578.525 629.008 C 568.315 672.477 562.041 714.403 565.98 759.287 C 535.715 779.248 508.427 803.956 489.605 835.265 L 489.511 568.141 C 489.375 510.567 489.937 452.338 489.112 394.873 z" fill="rgb(220,196,179)" transform="translate(0,0)"></path>
<path d="M 1558.21 827.141 C 1559.98 826.807 1560.58 827.252 1562.26 827.912 C 1562.38 835.247 1560.06 830.469 1558.21 827.141 z" fill="rgb(237,209,146)" transform="translate(0,0)"></path>
<path d="M 912.104 757.295 C 912.403 757.427 929.654 768.588 931.571 769.716 C 951.587 781.48 973.605 789.444 996.515 793.207 C 1050.33 802.296 1098.64 788.798 1142.77 757.629 C 1162.17 764.888 1184.42 780.082 1200.05 793.397 C 1214.5 805.937 1227.81 819.724 1239.84 834.598 C 1259.07 858.358 1300.55 921.158 1311.72 949.397 C 1313.92 954.914 1315.24 960.743 1315.63 966.67 C 1318.41 1006.81 1291.26 1024.46 1254.76 1025.34 C 1239.33 992.27 1228.51 977.205 1195.9 959.643 C 1193.63 907.237 1179.56 861.964 1150.89 817.905 C 1148.27 813.887 1145.59 807.769 1141.43 805.51 L 1139.95 806.248 C 1139.53 808.438 1140.28 811.33 1141.5 813.165 C 1171.41 858.177 1186.99 902.9 1190.01 957.118 C 1141.68 941.326 1099.86 968.223 1075.98 1009.67 C 1057.85 1043.81 1054.89 1075.69 1061.82 1113.28 C 1037.63 1117.4 1016.6 1117.68 992.62 1112.92 C 997.901 1089.5 997.255 1065.13 990.741 1042.03 C 974.399 984.361 929.928 939.38 866.759 957.354 C 867.845 904.011 886.19 853.92 915.874 809.904 C 917.16 807.997 916.39 806.771 915.591 805.178 C 910.165 805.931 904.236 816.282 901.509 820.892 C 876.454 863.247 861.169 910.242 860.734 959.696 C 830.905 971.225 811.521 996.097 800.21 1025.09 C 780.625 1025.1 761.453 1020.11 750.473 1002.66 C 730.364 970.699 749.685 941.439 765.48 913.89 C 790.752 869.811 819.156 824.14 858.209 791.263 C 868.974 782.11 880.631 774.061 893.005 767.237 C 899.305 763.786 906.03 761.149 912.104 757.295 z" fill="rgb(178,127,101)" transform="translate(0,0)"></path>
<path d="M 851.939 643.71 C 851.133 631.243 850.47 623.051 851.686 610.196 C 855.631 568.48 878.147 525.111 910.557 498.487 C 948.771 467.179 997.877 452.37 1047.03 457.332 C 1094.21 461.703 1137.7 484.666 1167.93 521.153 C 1196.8 556.633 1208.68 598.412 1204.22 643.742 C 1200.51 676.771 1185.01 705.241 1163.52 730.032 C 1159 735.041 1154.22 739.808 1149.19 744.311 C 1112.88 776.068 1065.56 792.329 1017.4 789.608 C 971.324 786.579 923.024 765.6 892.282 730.651 C 867.199 700.555 858.082 682.31 851.939 643.71 z" fill="rgb(178,127,101)" transform="translate(0,0)"></path>
<path d="M 851.939 643.71 C 852.427 643.521 852.915 643.333 853.403 643.144 C 866.803 634.992 883.999 630.507 900.003 635.98 C 912.12 640.201 922.061 649.066 927.635 660.622 C 941.203 689.133 923.814 724.872 892.282 730.651 C 867.199 700.555 858.082 682.31 851.939 643.71 z" fill="rgb(203,156,124)" transform="translate(0,0)"></path>
<path d="M 1163.52 730.032 C 1100.58 714.487 1120.2 620.526 1184.4 635.394 C 1190.28 636.757 1197.59 639.489 1202.67 642.766 L 1204.22 643.742 C 1200.51 676.771 1185.01 705.241 1163.52 730.032 z" fill="rgb(203,156,124)" transform="translate(0,0)"></path>
<path d="M 1019.73 612.39 C 1130.68 602.403 1152.22 746.221 1042.24 764.727 C 996.991 769.702 952.837 744.221 947.192 696.685 C 944.674 677.123 950.13 657.371 962.331 641.874 C 977.244 623.29 996.632 614.988 1019.73 612.39 z" fill="rgb(29,27,28)" transform="translate(0,0)"></path>
<path d="M 1018.51 618.357 C 1122.89 607.278 1144.76 740.335 1042.24 758.724 C 1000.81 763.648 958.725 740.343 953.009 696.779 C 950.524 678.629 955.431 660.242 966.629 645.744 C 979.864 628.594 997.633 621.185 1018.51 618.357 z" fill="rgb(203,156,124)" transform="translate(0,0)"></path>
<path d="M 1023.86 628.353 C 1068.95 622.679 1077.27 659.159 1038.98 673.703 L 1033.95 675.567 C 1034.1 691.282 1034.31 705.144 1033.67 720.942 C 1045.11 718.522 1052.08 716.006 1060.76 706.832 C 1063.1 705.622 1067.38 694.184 1068.82 694.158 C 1075.38 694.038 1073.18 700.255 1071.67 702.744 C 1062.76 717.415 1053.84 722.767 1037.88 726.877 C 1021.35 728.39 1010.75 726.517 998.297 713.709 C 996.111 711.46 985.252 696.424 993.259 694.093 C 995.421 693.463 996.645 701.052 998.689 704.238 C 1005.66 715.102 1015.16 718.807 1027.28 721.825 C 1028.32 705.88 1027.24 691.588 1027.13 675.679 C 1026.42 675.542 1025.71 675.406 1024.99 675.269 C 1019.54 674.529 1014.37 672.443 1009.93 669.199 C 995.4 658.765 992.458 639.598 1011.02 631.176 C 1015.39 629.188 1019.18 629.001 1023.86 628.353 z" fill="rgb(29,27,28)" transform="translate(0,0)"></path>
<path d="M 964.646 591.44 C 973.528 589.165 982.584 594.476 984.933 603.339 C 987.283 612.202 982.048 621.302 973.205 623.725 C 964.256 626.178 955.024 620.866 952.647 611.898 C 950.269 602.929 955.658 593.742 964.646 591.44 z" fill="rgb(29,27,28)" transform="translate(0,0)"></path>
<path d="M 1088.55 591.731 C 1097.05 588.999 1106.17 593.528 1109.14 601.947 C 1112.1 610.366 1107.82 619.614 1099.48 622.804 C 1093.89 624.946 1087.57 623.88 1082.98 620.021 C 1078.4 616.161 1076.27 610.116 1077.43 604.235 C 1078.59 598.355 1082.84 593.567 1088.55 591.731 z" fill="rgb(29,27,28)" transform="translate(0,0)"></path>
<path d="M 570.801 541.161 C 599.077 538.402 615.676 553.475 639.696 564.333 L 640.602 564.735 C 645.952 562.931 654.446 560.599 660.452 559.431 C 716.505 548.529 784.275 541.009 839.772 556.386 C 841.998 557.002 852.489 564.265 855.544 566.199 C 846.738 590.101 843.311 615.65 845.508 641.027 C 849.684 685.716 873.101 724.975 907.239 753.491 C 866.684 770.436 836.029 800.967 809.231 834.664 C 801.528 844.461 792.935 856.376 786.536 866.986 C 707.015 870.875 635.278 879.474 558.342 899.995 C 561.771 889.843 562.987 886.36 568.503 877.914 C 572.884 871.207 593.318 849.907 592.806 843.009 C 592.014 832.353 582.21 807.241 579.227 795.393 C 576.64 785.027 574.616 774.528 573.163 763.944 C 569.011 734.453 571.524 705.947 574.829 676.366 C 575.122 664.364 586.073 635.274 582.563 624.607 C 575.662 603.634 533.853 559.568 570.801 541.161 z" fill="rgb(237,209,146)" transform="translate(0,0)"></path>
<path d="M 1471.4 540.381 C 1483.01 540.922 1490.56 544.75 1493.49 556.94 C 1498.39 578.907 1482.15 598.353 1471.66 615.906 C 1462.28 631.602 1472.62 655.315 1475.02 672.86 C 1479.22 703.7 1481.21 735.652 1477.02 766.564 C 1475.65 776.77 1473.63 786.879 1470.98 796.829 C 1467.63 809.481 1458.34 830.832 1459.27 842.559 C 1460.18 854.106 1478.15 869.104 1484.53 879.473 C 1489.9 888.207 1490.54 890.02 1493.52 900.08 C 1413.77 878.967 1352.38 872.532 1270.6 866.855 C 1264.8 858.05 1258.96 849.999 1252.78 841.482 C 1224.84 801.536 1190.37 775.974 1148.5 752.646 C 1165.58 738.657 1180 721.706 1191.08 702.606 C 1217.06 657.917 1214.68 615.472 1201.9 567.71 C 1212.44 562.791 1219.69 557.516 1229.06 550.859 C 1286.43 545.107 1354.78 547.941 1410.21 564.686 C 1430.73 554.661 1447.07 542.468 1471.4 540.381 z" fill="rgb(237,209,146)" transform="translate(0,0)"></path>
<path d="M 376.977 1201.84 C 376.682 1116.29 370.36 1039.97 436.796 971.151 C 508.561 896.814 682.322 877.104 783.183 872.96 C 774.357 886.911 765.855 901.065 757.684 915.409 C 744.15 938.884 730.87 958.345 737.281 986.607 C 744.108 1016.71 769.51 1030.26 798.129 1031.34 C 797.096 1035.44 795.968 1039.65 795.05 1043.76 C 768.036 1043.56 741.02 1043.57 714.006 1043.81 C 689.916 1043.9 663.382 1043.4 639.523 1045.74 C 568.2 1052.71 482.287 1071.65 430.021 1123.15 C 413.181 1139.98 399.385 1159.6 389.247 1181.14 C 386.052 1187.85 382.65 1197.26 379.782 1202.95 L 376.977 1201.84 z" fill="rgb(69,127,178)" transform="translate(0,0)"></path>
<path d="M 1275.15 873.379 C 1364.13 875.743 1487.87 894.302 1568.16 936.045 C 1581.14 942.79 1597.62 956.072 1608.45 966.103 C 1651.95 1006.42 1672.32 1061.7 1675.31 1120.13 C 1677.06 1154.28 1674.49 1189.79 1675.78 1224.12 C 1669.7 1204.89 1665.79 1192.78 1657.05 1174.5 C 1628.85 1119.27 1589.95 1091.67 1532.38 1070.92 C 1442.42 1038.5 1353.55 1044.04 1259.68 1043.68 L 1256.24 1030.28 C 1286.1 1030.21 1309.44 1020.77 1319.26 990.123 C 1332.78 947.907 1293.31 910.18 1275.94 875.007 L 1275.15 873.379 z" fill="rgb(69,127,178)" transform="translate(0,0)"></path>
<path d="M 1153.4 992.182 C 1197.44 989.273 1223.44 1025.21 1231.38 1064.8 C 1237.16 1093.25 1231.37 1122.83 1215.29 1147 C 1203.66 1164.18 1189.94 1173.46 1169.75 1177.48 C 1155.34 1179.02 1140.84 1175.57 1128.68 1167.69 C 1108.79 1154.74 1095.01 1129.99 1090.46 1107.06 C 1084.72 1078.17 1090.67 1048.18 1106.99 1023.66 C 1118.95 1005.96 1132.42 996.217 1153.4 992.182 z" fill="rgb(121,68,42)" transform="translate(0,0)"></path>
<path d="M 890.174 991.332 C 930.47 989.032 956.683 1027.03 963.095 1062.81 C 968.696 1092.48 962.057 1123.17 944.686 1147.87 C 932.707 1165 918.015 1173.72 897.573 1177.23 C 852.48 1180.8 826.735 1139.41 821.633 1099.61 C 817.799 1071.08 825.435 1042.19 842.867 1019.28 C 855.621 1002.82 869.475 993.843 890.174 991.332 z" fill="rgb(121,68,42)" transform="translate(0,0)"></path>
<path d="M 1483.19 765.157 C 1494.03 770.671 1507.8 782.364 1517.21 790.644 C 1562.56 830.053 1590 886.157 1593.27 946.148 L 1582.44 938.182 C 1557.88 921.73 1527.82 911.325 1499.91 902.067 C 1497.11 890.427 1493.78 881.769 1486.5 871.72 C 1479.47 862.018 1465.41 850.765 1464.76 838.002 C 1464.57 834.315 1467.96 824.868 1469.49 821.236 C 1477.23 802.828 1479.87 784.801 1483.19 765.157 z" fill="rgb(237,209,146)" transform="translate(0,0)"></path>
<path d="M 566.126 766.871 L 567.561 768.147 C 569.487 776.989 571.504 790.145 573.595 798.717 C 574.374 804.811 587.197 835.508 586.038 839.367 C 577.95 866.307 556.889 869.589 552.418 901.972 C 519.461 911.886 502.59 918.722 472.386 935.685 C 468.251 938.116 463.719 941.314 459.677 944.011 C 460.922 930.399 463.173 916.897 466.414 903.618 C 479.838 848.525 517.778 796.409 566.126 766.871 z" fill="rgb(237,209,146)" transform="translate(0,0)"></path>
<path d="M 885.73 959.256 C 965.436 953.972 1007.57 1055.82 983.237 1121.3 C 975.516 1142.08 953.325 1160.75 933.165 1168.89 L 935.569 1166.72 C 981.951 1124.52 981.857 1050.25 939.908 1004.81 C 931.961 997.851 925.896 993.271 915.911 989.367 C 900.604 983.242 883.453 983.666 868.468 990.541 C 846.754 1000.29 830.217 1022.93 822.063 1044.69 C 809.055 1079.41 813.437 1109.59 828.214 1142.49 C 814.697 1126.3 805.462 1106.97 801.355 1086.29 C 793.602 1046.62 806.326 1008.94 836.36 981.607 C 851.121 968.172 866.409 962.698 885.73 959.256 z" fill="rgb(178,127,101)" transform="translate(0,0)"></path>
<path d="M 1113.66 1165.88 C 1109.16 1163.51 1104.84 1160.83 1100.72 1157.86 C 1050.62 1121.2 1056.78 1043.01 1090.56 997.705 C 1146.83 922.245 1243.91 965.506 1254.38 1050.78 C 1258.68 1085.84 1246.9 1116.6 1225.4 1143.79 C 1232.68 1126 1238.79 1109.5 1239.69 1090 C 1240.66 1062.74 1230.33 1029.52 1211.19 1009.71 C 1151.1 947.525 1083.3 1014.24 1082.54 1082.75 C 1082.17 1115.24 1092.14 1139.94 1113.87 1162.73 C 1114.06 1163.91 1113.84 1164.64 1113.66 1165.88 z" fill="rgb(178,127,101)" transform="translate(0,0)"></path>
<path d="M 1166.41 426.155 C 1255.76 420.937 1276.33 528.268 1199.21 562.172 L 1190.42 543.532 C 1198.52 539.482 1201.38 536.655 1207.26 530.241 C 1221.78 507.583 1219.72 479.992 1197.11 463.522 C 1186.82 456.006 1173.88 453.1 1161.37 455.5 C 1146.28 458.357 1137.29 466.829 1129.3 479.07 C 1123.25 475.532 1116.09 471.99 1109.8 468.709 C 1110.54 467.372 1111.3 466.05 1112.09 464.744 C 1124.99 443.294 1142.62 431.919 1166.41 426.155 z" fill="rgb(178,127,101)" transform="translate(0,0)"></path>
<path d="M 878.54 426.326 C 911.411 422.973 935.85 438.629 952.703 465.798 C 945.733 469.186 939.532 472.576 932.748 476.338 L 932.274 475.665 L 931.47 474.553 C 902.031 433.316 839.142 459.463 847.352 511.713 C 851.349 524.148 856.201 534.05 867.433 541.435 C 864.139 547.22 860.861 554.453 857.92 560.549 C 836.671 549.708 820.355 527.215 816.958 503.573 C 814.393 485.74 818.985 467.616 829.732 453.155 C 841.974 436.932 858.866 429.107 878.54 426.326 z" fill="rgb(178,127,101)" transform="translate(0,0)"></path>
<path d="M 1162.59 461.159 C 1182.66 459.704 1198.91 465.64 1207.41 485.369 C 1211.69 495.444 1211.8 506.808 1207.72 516.965 C 1205.59 522.141 1192.77 540.549 1186.62 537.601 C 1174.44 516.462 1153.89 495.991 1133.88 482.217 C 1143.08 470.261 1147.65 465.485 1162.59 461.159 z" fill="rgb(121,68,42)" transform="translate(0,0)"></path>
<path d="M 887.178 461.098 C 907.653 459.878 915.441 463.353 928.178 479.064 C 905.987 494.03 897.435 499.568 880.388 521.466 C 876.79 526.612 873.342 531.835 870.105 537.216 C 861.801 530.31 855.912 520.939 853.293 510.461 C 850.883 500.111 852.68 489.228 858.289 480.203 C 864.776 469.584 875.38 463.826 887.178 461.098 z" fill="rgb(121,68,42)" transform="translate(0,0)"></path>
<path d="M 1113.87 1162.73 C 1114.68 1163.39 1118.87 1166.58 1118.22 1167.82 C 1116.73 1168.39 1114.77 1166.74 1113.66 1165.88 C 1113.84 1164.64 1114.06 1163.91 1113.87 1162.73 z" fill="rgb(121,68,42)" transform="translate(0,0)"></path>
<path d="M 376.977 1201.84 L 379.782 1202.95 C 379.502 1204.03 379.284 1205.07 379.045 1206.16 L 376.699 1206.78 L 376.977 1201.84 z" fill="rgb(91,129,168)" transform="translate(0,0)"></path>
<path d="M 376.699 1206.78 L 379.045 1206.16 C 378.754 1207.02 377.991 1211.67 376.282 1210.78 C 375.728 1209.22 376.156 1208.33 376.699 1206.78 z" fill="rgb(69,70,92)" transform="translate(0,0)"></path>
<metadata><recraft-signature>{"signed_by": "recraft", "signature_b64": "htgcPn48eWT6oBDdONwbf4jkxAh4E+NQY/J/VGTipr9KbIW6+Efx8Dx84fOdwCfWJ/rbe9JDU8izJHtE/D/oDQ==", "signing_algo": "Ed25519", "generation_timestamp": 1779093351, "identifier": "fd12188b-0fb8-4266-9b9e-154cbc6cce4b"}</recraft-signature></metadata></svg>