<svg xmlns="http://www.w3.org/2000/svg" height="1024" preserveAspectRatio="none" style="display: block;" version="1.1" viewBox="0 0 2048 2048" width="1024">
<path d="M 0 0 L 2048 0 L 2048 2048 L 0 2048 L 0 0 z" fill="rgb(255,255,255)" transform="translate(0,0)"></path>
<path d="M 982.783 849.75 C 984.617 831.659 984.787 808.318 985.489 789.853 L 989.509 695.121 L 1002.71 412.442 L 1006.54 326.47 C 1007.26 309.341 1007.4 291.929 1009.73 274.951 C 1019.03 206.932 1096.68 170.409 1153.07 212.791 C 1171.55 226.518 1184.25 246.635 1188.71 269.218 C 1193.12 290.795 1187.9 349.381 1187.02 374.885 L 1174.88 704.799 C 1174.3 726.026 1173.6 747.25 1172.78 768.47 C 1172.12 786.873 1168.17 836.142 1183.8 847.669 C 1207.99 848.865 1231.77 726.195 1237.22 703.907 C 1256.31 625.454 1274.81 546.86 1292.73 468.132 C 1301.32 431.419 1309.31 393.895 1318.92 357.488 C 1339.46 279.657 1442.1 265.986 1480.29 339.977 C 1487.72 354.407 1490.97 370.625 1489.67 386.802 C 1488.45 402.267 1478.94 439.304 1475.22 455.625 C 1464.63 502.581 1453.7 549.461 1442.44 596.261 L 1410.04 734.716 C 1406.54 749.616 1400.63 780.598 1396.53 793.645 C 1395.76 796.911 1394.89 800.113 1394.08 803.369 C 1392.98 809.904 1390.22 820.303 1388.65 826.988 L 1387.69 830.986 L 1386.76 834.983 L 1384.77 843.484 L 1383.86 847.484 L 1382.82 851.985 L 1381.76 856.483 L 1380.66 860.986 C 1378.31 870.662 1375.86 879.818 1373.59 889.629 C 1375.95 889.48 1379.73 888.368 1382.02 887.519 C 1436.44 867.378 1455.63 805.265 1477.06 756.563 L 1532.07 633.463 C 1541.53 612.103 1550.44 589.77 1560.17 568.877 C 1589.3 506.38 1677.38 509.45 1698.56 576.492 C 1706.19 600.641 1699.36 633.415 1687.98 655.628 L 1599.81 886.24 C 1581.04 935.386 1559.2 985.333 1546.4 1036.21 C 1538.27 1068.52 1535.92 1102.07 1532.03 1135.18 C 1527.18 1178.01 1521.02 1220.68 1513.54 1263.14 C 1505.83 1312.55 1500.58 1355.79 1477.54 1401.62 C 1467.86 1420.88 1456.4 1437.04 1446.43 1455.35 C 1432.58 1483.5 1419.06 1500.14 1402.41 1524.94 C 1380.17 1558.05 1367.52 1616.19 1366.88 1655.91 C 1368.4 1695.84 1364.41 1737.33 1366.87 1778.73 C 1358.56 1783.79 1347.75 1788.5 1339 1792.81 C 1300.06 1811.98 1253.94 1829.79 1211.59 1839.48 C 1109.1 1862.94 1011.51 1857.42 913.113 1820.58 C 882.957 1809.29 846.996 1795.89 819.515 1778.79 C 833.186 1731.67 827.12 1675.06 815.893 1628.07 C 801.962 1579.08 777.24 1541.26 740.587 1506.32 C 739.097 1505.02 737.624 1503.71 736.167 1502.37 C 721.607 1490.81 705.676 1479.02 692.071 1466.31 C 650.13 1427.15 616.956 1376.7 591.871 1325.44 C 578.992 1299.12 568.006 1272.13 554.398 1246.1 C 553.532 1244.29 552.883 1243.06 552.266 1241.14 C 546.702 1231.49 541.791 1220.19 536.433 1210.23 C 494.959 1133.15 456.726 1047.44 394.622 984.672 C 380.722 970.708 365.286 958.362 348.61 947.869 C 319.019 928.913 286.086 916.842 288.22 875.89 C 291.862 854.224 300.57 842.104 318.506 829.214 C 352.379 804.87 400.704 795.054 441.836 802.398 C 508.87 814.366 563.368 862.942 602.216 916.638 C 617.32 937.515 628.535 960.951 642.27 982.216 C 662.097 1012.91 692.238 1038.24 728.986 1044.76 C 730.724 1045.06 731.093 1045.08 732.765 1044.71 C 734.692 1042.73 736.568 1040.71 738.39 1038.64 C 773.364 998.325 774.517 920.692 770.605 869.645 C 769.659 867.302 769.832 864.628 769.636 862.144 C 768.125 858.434 764.996 836.9 764.045 831.838 C 759.687 809.149 755.173 786.489 750.504 763.862 L 694.526 488.66 C 690.368 467.509 686.062 446.388 681.607 425.297 C 674.479 391.006 667.393 368.213 681.865 334.43 C 710.337 267.968 803.193 262.06 839.295 324.933 C 845.866 335.935 849.008 347.872 851.674 360.323 C 879.354 489.597 905.24 619.271 933.589 748.403 C 941.49 784.394 954.221 824.837 982.783 849.75 z" fill="rgb(232,204,176)" transform="translate(0,0)"></path>
<path d="M 1366.01 1690.99 C 1321.98 1656.4 1277.34 1638.22 1225.05 1619.04 C 1213.61 1614.51 1198.16 1612.17 1187.21 1607.13 C 1176.87 1602.38 1142.98 1600.52 1139.69 1590.91 C 1143.1 1585.23 1155.75 1586.9 1162.3 1587.17 C 1203.91 1588.98 1245.5 1582.93 1284.87 1569.33 C 1324.95 1555.73 1353.75 1539.45 1386.78 1513.22 C 1400.07 1502.48 1412.61 1490.82 1424.31 1478.35 C 1428.31 1474.03 1442.45 1456.67 1446.43 1455.35 C 1432.58 1483.5 1419.06 1500.14 1402.41 1524.94 C 1380.17 1558.05 1367.52 1616.19 1366.88 1655.91 C 1365.35 1662.46 1365.95 1683.3 1366.01 1690.99 z" fill="rgb(223,160,130)" transform="translate(0,0)"></path>
<path d="M 288.22 875.89 C 337.078 879.55 389.163 921.451 420.117 957.717 C 473.701 1020.5 511.153 1092.44 536.814 1170.67 C 544.411 1193.82 548.174 1213.69 554.575 1235.9 C 553.793 1237.64 553.023 1239.39 552.266 1241.14 C 546.702 1231.49 541.791 1220.19 536.433 1210.23 C 494.959 1133.15 456.726 1047.44 394.622 984.672 C 380.722 970.708 365.286 958.362 348.61 947.869 C 319.019 928.913 286.086 916.842 288.22 875.89 z" fill="rgb(223,160,130)" transform="translate(0,0)"></path>
<path d="M 743.359 1504.65 C 751.394 1511.4 760.697 1515.85 769.91 1520.67 C 848.998 1562.03 927.698 1570.16 1015.13 1562.56 L 1025.04 1561.69 C 975.071 1609.28 884.069 1629.35 815.893 1628.07 C 801.962 1579.08 777.24 1541.26 740.587 1506.32 L 743.359 1504.65 z" fill="rgb(223,160,130)" transform="translate(0,0)"></path>
<path d="M 770.605 869.645 C 770.869 868.972 770.943 867.998 771.582 867.591 C 772.049 867.593 773.18 868.337 773.53 868.53 C 788.496 920.376 799.869 979.673 831.669 1023.54 C 838.142 1032.47 851.875 1045.78 859.717 1054.59 C 875.303 1071.87 889.357 1090.47 901.719 1110.19 C 861.571 1087.81 819.16 1069.75 775.198 1056.32 C 761.78 1052.12 743.992 1048.35 732.765 1044.71 C 734.692 1042.73 736.568 1040.71 738.39 1038.64 C 773.364 998.325 774.517 920.692 770.605 869.645 z" fill="rgb(223,160,130)" transform="translate(0,0)"></path>
<path d="M 1513.54 1263.14 C 1508.32 1256.67 1512.02 1223.17 1511.14 1212.47 C 1506.07 1150.41 1484.89 1080.23 1509.34 1020.24 C 1523.03 986.639 1538.77 955.408 1553.78 923.385 C 1586.96 853.022 1620.87 783 1655.49 713.33 C 1658.67 706.963 1673.54 674.67 1676.89 671.29 L 1677.07 673.199 C 1672.58 680.642 1666.28 695.893 1662.11 704.415 L 1625.58 778.518 C 1599.71 831.17 1574.31 884.056 1549.39 937.167 C 1533.16 971.873 1505.43 1022.84 1500.7 1059.22 C 1495.06 1102.66 1509.1 1166.44 1512.71 1211.19 C 1513.53 1221.42 1512.1 1239.14 1513.45 1246.99 L 1514.81 1247.72 C 1515.74 1236.66 1517.94 1226.82 1519.6 1216 C 1522.36 1197.08 1524.96 1178.14 1527.38 1159.17 C 1532.39 1119.78 1535.6 1069.16 1545.31 1031.94 C 1558.04 983.141 1581.56 929.444 1599.57 881.45 L 1652.19 743.874 C 1663.06 715.28 1673.71 683.854 1686.38 656.062 L 1687.98 655.628 L 1599.81 886.24 C 1581.04 935.386 1559.2 985.333 1546.4 1036.21 C 1538.27 1068.52 1535.92 1102.07 1532.03 1135.18 C 1527.18 1178.01 1521.02 1220.68 1513.54 1263.14 z" fill="rgb(229,184,155)" transform="translate(0,0)"></path>
<path d="M 1393.09 795.763 C 1393.37 798.304 1393.7 800.84 1394.08 803.369 C 1392.98 809.904 1390.22 820.303 1388.65 826.988 L 1387.69 830.986 L 1386.76 834.983 L 1384.77 843.484 L 1383.86 847.484 L 1382.82 851.985 L 1381.76 856.483 L 1380.66 860.986 C 1378.31 870.662 1375.86 879.818 1373.59 889.629 C 1360.98 895.153 1331.3 892.668 1317.56 891.814 C 1324.86 886.897 1332.21 882.839 1339.02 877.136 C 1364.63 855.665 1380.71 826.407 1393.09 795.763 z" fill="rgb(223,160,130)" transform="translate(0,0)"></path>
<path d="M 769.636 862.144 C 772.975 860.455 773.064 866.186 773.53 868.53 C 773.18 868.337 772.049 867.593 771.582 867.591 C 770.943 867.998 770.869 868.972 770.605 869.645 C 769.659 867.302 769.832 864.628 769.636 862.144 z" fill="rgb(229,184,155)" transform="translate(0,0)"></path>
<path d="M 1393.09 795.763 C 1393.13 795.636 1393.17 795.51 1393.2 795.384 L 1393.55 794.353 C 1394.35 791.913 1394.67 792.199 1396.53 793.645 C 1395.76 796.911 1394.89 800.113 1394.08 803.369 C 1393.7 800.84 1393.37 798.304 1393.09 795.763 z" fill="rgb(229,184,155)" transform="translate(0,0)"></path>
<path d="M 554.575 1235.9 C 555.217 1240.78 555.345 1241.53 554.398 1246.1 C 553.532 1244.29 552.883 1243.06 552.266 1241.14 C 553.023 1239.39 553.793 1237.64 554.575 1235.9 z" fill="rgb(229,184,155)" transform="translate(0,0)"></path>
<path d="M 736.167 1502.37 C 739.807 1500.87 740.062 1502.56 743.359 1504.65 L 740.587 1506.32 C 739.097 1505.02 737.624 1503.71 736.167 1502.37 z" fill="rgb(229,184,155)" transform="translate(0,0)"></path>
<path d="M 925.232 1159.79 C 908.219 1089.63 936.607 1016.28 996.423 975.846 C 1056.24 935.415 1134.88 936.419 1193.65 978.365 C 1252.41 1020.31 1278.92 1094.36 1260.12 1164.07 C 1239.56 1240.3 1169.96 1292.91 1091.01 1291.9 C 1012.07 1290.89 943.837 1236.52 925.232 1159.79 z" fill="rgb(237,32,58)" transform="translate(0,0)"></path>
<path d="M 925.232 1159.79 C 931.722 1160.55 937.555 1169.39 942.052 1174.45 C 951.409 1184.98 960.979 1194.77 972.419 1203.11 C 1032 1246.88 1102.23 1259.99 1171.44 1229.7 C 1182.34 1224.93 1198.93 1216.29 1208.22 1209.01 C 1217.44 1201.9 1226.26 1194.28 1234.62 1186.17 C 1239.37 1181.5 1254.54 1163.58 1260.12 1164.07 C 1239.56 1240.3 1169.96 1292.91 1091.01 1291.9 C 1012.07 1290.89 943.837 1236.52 925.232 1159.79 z" fill="rgb(215,24,49)" transform="translate(0,0)"></path>
<metadata><recraft-signature>{"signed_by": "recraft", "signature_b64": "uKnZQZ9kvCqZF0uf3spUNU6ZLYolGf7jm6Z2MK0LsXU3EpSdbBT6VZzO72A170looIbR36paebJecBO8Q9JqCg==", "signing_algo": "Ed25519", "generation_timestamp": 1779099255, "identifier": "d296d6be-0cec-4ef4-b846-fc68952f7bc7"}</recraft-signature></metadata></svg>