<svg xmlns="http://www.w3.org/2000/svg" height="1024" preserveAspectRatio="none" style="display: block;" version="1.1" viewBox="0 0 2048 2048" width="1024">
<path d="M 0 0 L 2048 0 L 2048 2048 L 0 2048 L 0 0 z" fill="rgb(255,255,255)" transform="translate(0,0)"></path>
<path d="M 969.006 809.323 C 890.164 797.974 818.894 756.221 770.444 692.996 C 726.695 634.855 707.781 557.211 718.424 485.333 C 729.453 410.052 770.45 342.428 832.097 297.834 C 897.406 249.222 979.488 228.844 1059.95 241.269 C 1209.23 264.189 1330.66 412.614 1305.55 565.32 C 1284.48 693.41 1178.76 785.76 1054.29 809.309 L 1054.97 810.71 C 1064.89 811.533 1078.87 811.04 1089.12 810.967 C 1108.4 810.792 1127.69 810.72 1146.97 810.751 L 1352.83 811.111 L 1407.14 810.87 C 1415.77 810.807 1430.31 810.334 1438.51 811.195 L 1613.68 811.111 C 1631.43 811.092 1649.63 811.166 1667.33 811.06 C 1695.76 810.89 1717.16 811.047 1738.39 832.269 C 1763.93 857.795 1760.92 886.494 1760.81 919.784 L 1760.81 971.603 C 1760.66 998.657 1749.24 1019.77 1723.39 1030.35 L 1722.88 1063.47 C 1746.94 1073.06 1760.75 1090.04 1761.54 1116.37 C 1762.23 1139.1 1761.93 1161.82 1761.91 1184.57 L 1761.85 1309.05 L 1761.79 1414.43 C 1761.76 1456.86 1764.16 1497.33 1746.28 1537.13 C 1726.47 1581.22 1687.58 1617.76 1643.27 1636.58 C 1595.36 1657.17 1546.84 1653.74 1496.04 1653.72 L 1366.42 1653.63 L 991.923 1654.95 L 641.073 1655.29 L 533.56 1655.81 C 514.154 1655.98 486.259 1656.88 467.27 1655.72 C 445.498 1654.3 424.149 1649.04 404.209 1640.18 C 355.107 1618.75 316.706 1578.45 297.672 1528.37 C 291.508 1512.29 287.748 1495.4 286.512 1478.22 C 285.143 1459.63 285.891 1433.07 285.893 1413.83 L 285.929 1301.69 L 285.968 1178.98 C 285.959 1154.8 282.5 1117.74 291.266 1094.83 C 296.773 1080.44 311.249 1069.8 325.262 1063.7 L 325.107 1030.32 C 278.741 1006.23 285.903 975.168 285.978 930.022 C 286.007 912.7 284.569 892.35 287.056 875.439 C 288.218 867.391 290.784 859.61 294.639 852.45 C 321.892 801.788 382.486 811.552 431.179 811.626 L 543.908 811.739 L 965.57 812.008 C 967.935 811.377 968.386 811.631 969.006 809.323 z" fill="rgb(12,7,4)" transform="translate(0,0)"></path>
<path d="M 1045.82 810.067 L 1054.29 809.309 L 1054.97 810.71 C 1064.89 811.533 1078.87 811.04 1089.12 810.967 C 1108.4 810.792 1127.69 810.72 1146.97 810.751 L 1352.83 811.111 L 1407.14 810.87 C 1415.77 810.807 1430.31 810.334 1438.51 811.195 C 1412.42 813.443 1366.81 812.077 1339.09 812.073 L 1152.48 811.864 C 1122.47 811.806 1080.71 810.619 1051.22 812.098 L 1045.82 810.067 z" fill="rgb(182,173,171)" transform="translate(0,0)"></path>
<path d="M 969.006 809.323 C 971.035 809.326 971.295 809.323 973.269 809.607 C 975.07 809.934 977.51 810.029 979.074 811.078 L 979.166 811.389 C 978.91 811.508 978.486 811.407 978.246 811.382 C 973.432 812.074 970.454 812.093 965.57 812.008 C 967.935 811.377 968.386 811.631 969.006 809.323 z" fill="rgb(182,173,171)" transform="translate(0,0)"></path>
<path d="M 1051.22 812.098 C 1050.23 812.085 1041.77 812.479 1042.08 810.715 C 1042.87 809.978 1044.97 810.1 1045.82 810.067 L 1051.22 812.098 z" fill="rgb(114,99,98)" transform="translate(0,0)"></path>
<path d="M 535.784 1650.69 C 533.609 1649.53 515.429 1645.47 511.713 1644.27 C 431.321 1618.48 374.164 1541.16 376.272 1456.22 C 376.748 1437.07 376.436 1415.47 376.533 1395.42 L 376.648 1262.32 L 376.45 1165.69 C 376.356 1140.28 371.72 1106.38 389.064 1087.1 C 398.241 1076.89 418.345 1064.77 432.176 1063.85 C 459.51 1062.04 487.746 1062.75 515.154 1062.73 L 680.248 1062.69 L 1176.28 1062.68 L 1339.06 1062.68 C 1362.16 1062.67 1394.36 1063.8 1416.71 1062.67 C 1420.36 1063.8 1424.85 1065.06 1428.37 1066.31 C 1445.01 1072.41 1456.41 1080.91 1464.32 1097.61 C 1467.7 1104.81 1469.67 1112.58 1470.11 1120.52 C 1471.09 1137.45 1470.13 1162.59 1470.09 1180.27 L 1469.96 1299.69 L 1470.05 1411.28 C 1470.06 1428.82 1470.9 1456 1469.61 1472.76 C 1468.48 1489.06 1465.02 1505.11 1459.35 1520.43 C 1440.21 1571.44 1401.47 1612.67 1351.76 1634.96 C 1303.49 1657.1 1265.57 1652.94 1214.56 1652.95 L 1070.49 1652.69 L 731.407 1652.83 C 674.849 1652.86 616.964 1652.16 560.525 1652.94 C 552.968 1651.78 543.542 1651.29 535.784 1650.69 z" fill="rgb(196,138,81)" transform="translate(0,0)"></path>
<path d="M 1038.37 814.078 C 1068.06 814.738 1100.15 814.014 1130.1 813.991 L 1313.29 813.923 L 1377.51 813.909 C 1382.47 813.904 1389.87 814.292 1394.44 813.91 C 1434.71 808.59 1474.48 844.184 1472.16 884.95 C 1470.68 910.897 1476.17 962.101 1469.98 985.987 C 1467.31 996.263 1462.03 1005.67 1454.65 1013.3 C 1443 1025.11 1425.42 1031.8 1408.94 1031.83 C 1338.64 1031.97 1268.2 1031.81 1197.91 1031.77 L 779.25 1031.72 L 542.586 1031.9 L 470.197 1031.93 C 442.244 1031.94 416.289 1035.69 394.459 1013.65 C 374.923 993.921 376.727 973.589 376.826 947.864 C 376.94 934.081 376.971 920.298 376.92 906.515 C 376.797 879.784 377.907 858.398 397.935 838.639 C 427.405 809.564 469.715 814.007 506.99 813.963 L 608.654 813.899 L 977.98 814.084 C 998.108 813.936 1018.24 813.933 1038.37 814.078 z" fill="rgb(196,138,81)" transform="translate(0,0)"></path>
<path d="M 993.768 240.406 C 995.295 240.234 996.826 240.106 998.36 240.022 C 1039.17 237.883 1082.23 246.034 1120.18 260.871 C 1139.91 268.108 1149.91 284.791 1162.64 300.082 C 1252.44 407.963 1247.42 549.432 1151.24 651.611 C 1096.8 709.442 1034.08 744.257 953.099 748.048 C 898.94 749.082 848.477 736.029 801.643 708.651 C 777.277 694.408 772.744 694.701 757.465 669.096 C 735.752 632.415 722.634 591.29 719.097 548.811 C 713.552 474.963 735.444 402.216 784.104 345.91 C 837.458 284.616 912.751 246.728 993.768 240.406 z" fill="rgb(215,37,41)" transform="translate(0,0)"></path>
<path d="M 1432.12 1063.88 C 1434.85 1062.2 1681.2 1062.67 1704.28 1063.16 C 1724.81 1062.25 1744.82 1074.96 1753.95 1093.26 C 1757.81 1101 1759 1111.13 1759.08 1119.76 C 1759.67 1180.95 1759.31 1242.17 1759.4 1303.36 C 1758.88 1360.69 1760.51 1420.37 1758.76 1477.37 C 1759.12 1479.28 1759.31 1479.22 1758.4 1480.77 C 1755.99 1518.07 1737.15 1556.45 1712.42 1584.21 C 1699.71 1598.47 1689.47 1605.46 1674.3 1616.39 C 1625.39 1651.65 1572.25 1651.4 1514.35 1651.51 L 1387.35 1651.21 C 1362.86 1651.26 1337.54 1650.5 1313.33 1653.08 C 1320.21 1649.16 1340.68 1642.89 1350.36 1638.42 C 1392.97 1618.75 1428.42 1587.9 1450.76 1546.35 C 1461.99 1525.41 1469.18 1502.56 1471.98 1478.97 C 1473.69 1463.78 1473.04 1441.24 1473.05 1425.43 L 1473.1 1338.62 L 1473.12 1196.17 C 1473.12 1169.95 1475.01 1131.51 1470.75 1105.88 C 1468.09 1089.89 1450.5 1073.35 1435.91 1065.55 C 1434.89 1065.2 1433.16 1064.35 1432.12 1063.88 z" fill="rgb(125,78,39)" transform="translate(0,0)"></path>
<path d="M 1758.76 1477.37 C 1759.12 1479.28 1759.31 1479.22 1758.4 1480.77 C 1758.24 1479 1758.02 1478.86 1758.76 1477.37 z" fill="rgb(93,60,35)" transform="translate(0,0)"></path>
<path d="M 1426.11 814.262 C 1489.26 813.484 1552.41 813.233 1615.56 813.511 C 1643.56 813.522 1672.7 812.339 1700.52 814.985 C 1711.86 816.064 1727.93 825.828 1736.27 833.695 C 1765.74 861.514 1757.36 901.517 1758.12 937.746 C 1758.69 965.018 1761.87 995.951 1740.56 1016.52 C 1729.97 1026.79 1717.87 1031.8 1703.15 1031.14 C 1696.86 1032.13 1678.6 1031.82 1671.57 1031.81 L 1615.38 1031.77 C 1596.99 1031.79 1436.06 1033.01 1431.36 1030.92 L 1433.35 1030.43 C 1482.47 1004.5 1474.95 975.053 1475.05 925.706 C 1475.08 909.753 1476.41 890.082 1474.2 874.574 C 1472.85 865.137 1469.9 856 1465.47 847.557 C 1456.46 830.62 1443.03 821.968 1426.11 814.262 z" fill="rgb(125,78,39)" transform="translate(0,0)"></path>
<path d="M 1703.15 1031.14 C 1696.86 1032.13 1678.6 1031.82 1671.57 1031.81 L 1615.38 1031.77 C 1596.99 1031.79 1436.06 1033.01 1431.36 1030.92 L 1433.35 1030.43 C 1443.96 1032.21 1487.13 1031.26 1500.06 1031.15 L 1635.53 1030.72 C 1652.2 1030.7 1688.1 1029.57 1703.15 1031.14 z" fill="rgb(93,60,35)" transform="translate(0,0)"></path>
<path d="M 1140.69 269.752 C 1213.58 309.594 1271.29 369.144 1295.2 450.341 C 1314.72 517.314 1307.09 589.281 1273.95 650.669 C 1229.03 732.396 1143.7 792.552 1050.78 806.974 C 1047.61 807.465 1041.54 807.876 1038.8 808.561 C 1018.56 810.422 995.058 809.341 974.78 807.849 C 906.958 795.731 861.297 777.055 808.633 730.32 C 799.438 722.159 792.82 713.297 784.346 705.087 L 783.617 704.389 L 784.072 701.474 C 798.823 709.88 815.715 720.692 831.069 727.147 C 889.588 751.75 951.669 758.751 1013.22 741.903 C 1088.4 721.329 1155.94 664.54 1194.67 597.806 C 1228.25 539.944 1239.69 469.808 1221.36 405.267 C 1205.52 349.475 1179.12 311.736 1140.69 269.752 z" fill="rgb(215,37,41)" transform="translate(0,0)"></path>
<path d="M 340.519 1063.88 C 346.501 1062.93 418.731 1062.69 419.843 1063.49 C 420.246 1064.56 417.439 1065.19 416.856 1065.31 C 364.207 1088.56 373.505 1122.42 373.439 1171.53 L 373.381 1292.91 L 373.419 1411.49 C 373.405 1434.01 372.313 1463.77 375.021 1485.5 C 378.226 1510.9 386.518 1535.4 399.4 1557.53 C 430.24 1609.5 475.629 1638.8 533.253 1653.27 C 465.331 1656.83 410.619 1653.14 355.85 1606.62 C 319.912 1576.09 292.16 1526.5 289.321 1479.18 C 288.001 1457.17 288.823 1428.07 288.839 1405.28 L 288.876 1267.09 L 288.731 1163.93 C 288.713 1146.45 287.782 1127.23 289.534 1110.03 C 292.127 1084.56 315.976 1065.25 340.519 1063.88 z" fill="rgb(243,173,132)" transform="translate(0,0)"></path>
<path d="M 340.519 1063.88 C 346.501 1062.93 418.731 1062.69 419.843 1063.49 C 420.246 1064.56 417.439 1065.19 416.856 1065.31 C 411.892 1062.9 351.915 1064.65 340.519 1063.88 z" fill="rgb(196,138,81)" transform="translate(0,0)"></path>
<path d="M 327.979 1031.62 C 342.55 1035.94 354.268 1034.04 369.199 1034.72 C 371.64 1033.65 404.159 1033.98 409.015 1034.19 C 421.079 1034.08 433.145 1034.26 445.201 1034.71 C 449.5 1033.4 476.038 1033.91 482.064 1034.02 C 532.944 1035 584.893 1032.55 635.658 1034.2 L 1285.73 1034.21 C 1304.98 1033.3 1327.94 1034.34 1347.56 1034.05 C 1356.79 1033.91 1381.91 1033.6 1389.53 1034.69 L 1392.47 1034.64 C 1398.75 1033.76 1413.6 1033.94 1420.22 1034.18 L 1616.98 1034.19 C 1642.07 1034.2 1696.43 1035.67 1719.9 1032.84 C 1719.98 1042.01 1720.27 1052.03 1720.03 1061.14 C 1684.72 1059.09 1644.29 1060.02 1608.62 1060.03 L 1422.06 1060.04 L 800.963 1059.97 L 470.023 1059.99 L 389.838 1060.03 C 371.486 1060.01 345.187 1059.17 328.042 1062.41 L 327.979 1031.62 z" fill="rgb(93,60,35)" transform="translate(0,0)"></path>
<path d="M 445.201 1034.71 C 449.5 1033.4 476.038 1033.91 482.064 1034.02 C 532.944 1035 584.893 1032.55 635.658 1034.2 C 624.277 1035.18 604.827 1034.78 592.983 1034.83 L 512.692 1034.98 L 467.24 1035.07 C 462.738 1035.08 448.947 1035.39 445.201 1034.71 z" fill="rgb(72,43,21)" transform="translate(0,0)"></path>
<path d="M 1285.73 1034.21 C 1304.98 1033.3 1327.94 1034.34 1347.56 1034.05 C 1356.79 1033.91 1381.91 1033.6 1389.53 1034.69 C 1372.78 1036.15 1346.78 1034.43 1329.19 1034.79 C 1318.55 1035 1296.02 1035.06 1285.73 1034.21 z" fill="rgb(72,43,21)" transform="translate(0,0)"></path>
<path d="M 369.199 1034.72 C 371.64 1033.65 404.159 1033.98 409.015 1034.19 C 403.408 1034.7 374.687 1035.81 369.199 1034.72 z" fill="rgb(72,43,21)" transform="translate(0,0)"></path>
<path d="M 1392.47 1034.64 C 1398.75 1033.76 1413.6 1033.94 1420.22 1034.18 C 1412.68 1035.42 1400.18 1035.29 1392.47 1034.64 z" fill="rgb(72,43,21)" transform="translate(0,0)"></path>
<path d="M 418.605 1031.38 C 414.238 1031.57 409.868 1031.7 405.496 1031.76 L 369.772 1031.9 C 344.936 1031.89 324.657 1032.66 305.689 1013.84 C 298.029 1006.2 292.68 996.561 290.261 986.02 C 286.529 970.355 289.908 917.547 288.609 897.994 C 287.107 875.374 292.955 853.2 309.656 836.719 C 337.712 809.032 375.872 813.776 412.634 814.137 C 414.816 814.07 436.523 813.578 437.234 814.608 C 436.558 815.914 433.06 816.249 431.821 816.528 C 428.715 817.557 425.638 818.672 422.594 819.872 C 370.741 840.818 372.925 885.805 373.926 933.407 C 374.225 947.629 372.972 963.317 374.483 977.362 C 375.134 983.87 376.723 990.249 379.199 996.303 C 387.054 1015.21 400.544 1024 418.605 1031.38 z" fill="rgb(243,173,132)" transform="translate(0,0)"></path>
<path d="M 412.634 814.137 C 414.816 814.07 436.523 813.578 437.234 814.608 C 436.558 815.914 433.06 816.249 431.821 816.528 C 428.113 814.641 419.12 815.243 412.634 814.137 z" fill="rgb(196,138,81)" transform="translate(0,0)"></path>
<path d="M 783.617 704.389 C 782.173 702.59 778.932 697.488 784.072 701.474 L 783.617 704.389 z" fill="rgb(162,24,19)" transform="translate(0,0)"></path>
<metadata><recraft-signature>{"signed_by": "recraft", "signature_b64": "gcBV8oQnWKXv9jGaqrM2gHjzKcnmNVQ+nOSiBZNTN/top7jlPdAuJIP7u+JGWRvJeOSxUCQCBWPDf8HkEh5cCw==", "signing_algo": "Ed25519", "generation_timestamp": 1779099334, "identifier": "e234b9bf-2727-40f6-9969-4e750482f349"}</recraft-signature></metadata></svg>