<svg xmlns="http://www.w3.org/2000/svg" height="1024" preserveAspectRatio="none" style="display: block;" version="1.1" viewBox="0 0 2048 2048" width="1024">
<defs>
	<linearGradient gradientUnits="userSpaceOnUse" id="Gradient1" x1="800.221" x2="720.574" y1="987.917" y2="985.995">
		<stop class="stop0" offset="0" stop-color="rgb(206,189,169)" stop-opacity="1"></stop>
		<stop class="stop1" offset="1" stop-color="rgb(209,204,202)" stop-opacity="1"></stop>
	</linearGradient>
</defs>
<path d="M 0 0 L 2048 0 L 2048 2048 L 0 2048 L 0 0 z" fill="rgb(253,253,252)" transform="translate(0,0)"></path>
<path d="M 1441.9 323.102 C 1440.7 279.228 1469.42 249.045 1514.15 265.477 C 1519.13 271.395 1544.56 325.667 1548.17 335.348 C 1572.13 386.157 1598.83 438.646 1624.15 488.865 L 1645.91 532.522 C 1648.94 538.516 1656.33 551.761 1658.43 557.495 L 1659.82 560.765 C 1663.96 566.989 1669.88 582.058 1673.38 589.356 C 1689.11 621.666 1699.7 656.319 1712.51 689.783 C 1717.68 703.285 1723.3 725.525 1729.91 737.614 C 1744.44 764.213 1760.06 781.768 1771.74 810.991 C 1778.24 827.165 1782.52 844.143 1784.47 861.464 C 1789.69 909.977 1774.47 992.798 1769.96 1044.74 C 1763.13 1123.37 1756.14 1184.54 1815.03 1249.44 C 1838.6 1275.42 1865.63 1298.4 1890.67 1322.68 L 2020.19 1446.97 C 2000.21 1518.8 1945.69 1590.09 1880.49 1626.43 C 1837.32 1650.48 1799.58 1660.55 1751.06 1664.6 C 1741.39 1654.15 1732.35 1641.93 1723.46 1630.75 C 1668.83 1562.08 1616.43 1491.14 1561.09 1423.05 C 1540.58 1396.53 1519.4 1371.01 1499.31 1344.09 C 1496.79 1342.56 1486.78 1333.26 1484.05 1330.98 C 1460.96 1311.68 1443.15 1267.87 1441.95 1238.19 L 1439.98 1238.05 C 1436.02 1271.7 1428.28 1299.37 1404.52 1324.94 C 1397.36 1332.64 1389.97 1338.23 1382.8 1345.29 C 1362.32 1370.34 1342.93 1396.32 1322.33 1421.1 C 1314 1432.63 1303.17 1445.71 1294.33 1457.1 C 1270.17 1488.3 1245.81 1519.34 1221.24 1550.22 C 1192.41 1586.99 1163.22 1627.47 1133.17 1662.97 C 998.944 1651.32 903.77 1574.79 862.663 1446.96 C 876.316 1434.31 889.098 1421.08 902.45 1408.16 L 994.867 1318.62 C 1018.83 1295.49 1065.33 1254.05 1083.59 1229.72 C 1097.58 1211.14 1107.39 1189.76 1112.37 1167.05 C 1121.26 1126.76 1115.59 1088.3 1111.67 1047.94 C 1109.57 1024.97 1107.27 1002.02 1104.77 979.093 C 1099.44 932.247 1087.7 882.014 1099.78 835.976 C 1109 800.841 1125.05 776.444 1145.12 747.868 C 1149.27 741.953 1157.97 714.894 1161.39 706.151 C 1173.24 675.824 1184 644.393 1196 614.059 C 1200.47 602.159 1218.19 567.74 1218.99 558.983 C 1219.9 556.644 1220.86 554.558 1221.63 552.173 C 1228.64 545.167 1247.88 502.242 1253.99 490.24 C 1280.45 439.106 1306.58 387.801 1332.38 336.328 C 1335.82 326.864 1361.69 273.021 1366.89 267.621 C 1387.61 253.009 1419.36 261.736 1432.43 283.207 C 1440.46 296.408 1440.72 309.737 1440.08 324.952 L 1441.9 323.102 z" fill="rgb(237,154,99)" transform="translate(0,0)"></path>
<path d="M 1441.9 323.102 C 1440.7 279.228 1469.42 249.045 1514.15 265.477 C 1519.13 271.395 1544.56 325.667 1548.17 335.348 C 1572.13 386.157 1598.83 438.646 1624.15 488.865 L 1645.91 532.522 C 1648.94 538.516 1656.33 551.761 1658.43 557.495 C 1656.01 555.014 1655.38 554.144 1652.29 552.395 C 1640.84 557.642 1630.53 561.664 1618.82 566.09 C 1606.39 556.253 1542.29 416.894 1527.72 395.601 C 1514.44 376.202 1512.06 341.626 1480.48 341.856 C 1462.9 341.985 1453.78 349.193 1442.66 360.307 L 1440.72 360.713 L 1439.22 358.514 C 1439.79 347.645 1439.28 335.317 1440.08 324.952 L 1441.9 323.102 z" fill="rgb(237,154,99)" transform="translate(0,0)"></path>
<path d="M 1514.15 265.477 C 1519.13 271.395 1544.56 325.667 1548.17 335.348 C 1531.75 345.706 1521.97 340.955 1510.57 326.755 C 1504.09 318.667 1494.91 301.039 1495.45 290.591 C 1496.09 278.22 1507.39 272.349 1514.15 265.477 z" fill="rgb(245,186,155)" transform="translate(0,0)"></path>
<path d="M 1440.08 324.952 L 1441.9 323.102 C 1442.12 328.874 1442.7 357.563 1440.72 360.713 L 1439.22 358.514 C 1439.79 347.645 1439.28 335.317 1440.08 324.952 z" fill="rgb(245,186,155)" transform="translate(0,0)"></path>
<path d="M 1641.63 538.008 C 1649.27 537.992 1651.26 548.708 1639.7 550.883 C 1639.84 550.855 1622.24 558.491 1621.4 558.852 C 1617.04 559.301 1614.34 557.126 1616.16 553.002 C 1618.85 546.879 1635.28 540.931 1641.63 538.008 z" fill="rgb(198,76,21)" transform="translate(0,0)"></path>
<path d="M 1440.72 360.713 L 1442.66 360.307 C 1453.78 349.193 1462.9 341.985 1480.48 341.856 C 1512.06 341.626 1514.44 376.202 1527.72 395.601 C 1542.29 416.894 1606.39 556.253 1618.82 566.09 C 1630.53 561.664 1640.84 557.642 1652.29 552.395 C 1655.38 554.144 1656.01 555.014 1658.43 557.495 L 1659.82 560.765 C 1657.1 563.251 1656.42 563.815 1653.36 565.848 L 1653.18 570.454 C 1655.93 574.397 1655.93 573.233 1656.35 577.443 C 1653.16 584.136 1639.1 587.791 1631.55 590.734 C 1637.23 604.909 1645.75 618.392 1651.64 632.607 C 1672.36 682.73 1692.13 733.082 1709.67 784.444 C 1712.82 793.642 1722.51 814.315 1718.77 824.354 C 1718.22 825.837 1717.44 825.556 1715.86 825.924 C 1713.05 824.529 1710.24 822.046 1709.19 818.978 C 1684.68 747.041 1659.13 674.1 1625.75 605.69 C 1603.1 559.288 1576.39 514.647 1552.81 468.718 C 1546.48 456.394 1539.93 444.123 1533.12 432.082 C 1526.26 421.018 1498.25 360.435 1492.47 356.628 C 1469.5 349.831 1454.43 363.881 1447.85 384.864 C 1455.72 420.399 1458.91 451.542 1451.95 487.77 C 1450.75 493.988 1448.53 508.579 1443.8 512.835 C 1442.22 508.81 1440.2 500.261 1437.63 498.321 C 1434.71 500.447 1435.2 501.197 1433.59 505.238 C 1432.37 503.112 1432.37 501.494 1432.59 499.042 C 1436.15 460.987 1448.81 417.708 1434 380.783 C 1426.32 361.642 1410.86 352.789 1390.74 358.731 C 1389.14 359.932 1351.79 428.771 1347.45 435.787 C 1340.51 447.657 1318.11 493.356 1312.07 499.902 C 1304.76 501.977 1301.53 495.191 1305.22 488.519 C 1313.32 473.853 1321.71 459.317 1329.73 444.604 L 1361.75 385.351 C 1366.56 376.597 1374.66 359.474 1381.52 352.888 C 1399.55 335.584 1424.04 344.223 1439.22 358.514 L 1440.72 360.713 z" fill="rgb(198,76,21)" transform="translate(0,0)"></path>
<path d="M 1653.18 570.454 C 1652.03 570.82 1650.87 571.186 1649.72 571.551 C 1643.66 573.355 1637.75 575.607 1632.03 578.29 C 1630 579.217 1626.83 580.975 1624.96 578.692 C 1624.76 578.443 1624.57 577.831 1624.93 577.596 C 1632.01 573.038 1642.15 570.803 1649.81 567.431 L 1653.36 565.848 L 1653.18 570.454 z" fill="rgb(248,112,16)" transform="translate(0,0)"></path>
<path d="M 1316.98 659.455 C 1313.02 665.348 1299.84 697.469 1296.38 706.019 C 1289.43 723.204 1278.12 747.649 1272.74 764.786 C 1269.97 773.608 1267.7 804.689 1266.63 815.81 L 1257.76 902.876 C 1256.44 914.971 1255.01 926.752 1253.63 939.137 C 1250.97 963.161 1240.22 986.463 1232.6 1009.3 C 1229.54 1018.47 1224.34 1037.84 1218.66 1044.47 C 1215.65 1045.65 1215.38 1045.3 1212.24 1044.64 C 1210.62 1042.98 1210.17 1042.59 1209.96 1040.15 C 1209.5 1035.03 1236.26 964.274 1239.51 950.203 C 1244.16 930.056 1245.26 908.576 1247.35 887.994 L 1255.64 809.748 C 1256.95 796.792 1258.3 779.722 1260.37 767.113 C 1261.66 759.269 1270.07 739.655 1273.39 731.402 C 1281.35 711.508 1289.59 691.73 1298.12 672.074 C 1303.58 659.564 1309.5 646.646 1314.69 634.015 C 1318.65 623.985 1317.35 612.319 1320.27 602.041 C 1332.55 558.819 1373.8 549.538 1407.08 577.294 C 1412.92 583.453 1415.87 589.284 1419.51 596.856 C 1416.65 596.695 1402.44 586.232 1392.43 584.566 C 1376.81 581.967 1366.4 583.699 1352.96 592.241 L 1351.7 592.818 C 1339.44 598.127 1339.89 604.167 1334.99 614.995 C 1328.53 629.278 1323.88 645.55 1316.98 659.455 z" fill="rgb(198,76,21)" transform="translate(0,0)"></path>
<path d="M 1499.31 1344.09 C 1504.87 1344.59 1512.9 1349.83 1518.47 1352.11 C 1574.12 1374.77 1632.13 1354.48 1676.67 1318.2 C 1682.82 1313.19 1690.43 1302.43 1699.11 1305.53 C 1703.32 1314.31 1689.13 1329.57 1683.69 1336.71 C 1657.67 1370.85 1624.21 1397.03 1584.63 1413.83 C 1576.89 1417.16 1569.04 1420.24 1561.09 1423.05 C 1540.58 1396.53 1519.4 1371.01 1499.31 1344.09 z" fill="rgb(198,76,21)" transform="translate(0,0)"></path>
<path d="M 1467.7 579.059 C 1478.93 565.957 1486.03 560.26 1503.85 558.38 C 1534.17 555.18 1553.46 577.256 1557.09 605.177 C 1558.17 613.552 1558.16 622.941 1560.99 630.991 C 1575 664.749 1590.55 697.767 1604.85 731.412 C 1609.25 741.747 1614.18 753.907 1617.24 764.845 C 1619.48 779.135 1621.18 796.539 1622.86 811.195 C 1626.65 842.642 1630.24 874.115 1633.62 905.609 C 1634.24 911.423 1637.23 943.446 1638.64 947.829 C 1647.92 976.766 1663.66 1008.63 1670.77 1038.48 C 1671.07 1039.75 1669.85 1040.59 1668.75 1041.91 C 1665.72 1043.24 1665.92 1043.1 1662.65 1042.41 C 1656.79 1036.81 1640.25 980.747 1633.72 969.161 C 1626.22 955.83 1623.87 924.068 1622.14 907.838 L 1612.74 819.528 C 1610.87 802.301 1609.83 784.148 1605.91 767.261 C 1602.23 751.394 1569.27 674.923 1561.62 662.54 C 1555.69 647.598 1551.21 631.763 1545.18 616.784 C 1540.03 603.967 1538.81 595.483 1525.87 588.643 C 1503.57 574.81 1485.76 579.425 1463.74 590.132 C 1462.55 590.709 1462.97 590.555 1461.63 590.68 C 1463.22 587.097 1465.81 582.605 1467.7 579.059 z" fill="rgb(198,76,21)" transform="translate(0,0)"></path>
<path d="M 1322.33 1421.1 C 1271.38 1404.42 1233.95 1375.44 1200.85 1333.94 C 1195.98 1327.83 1179.89 1311.11 1190.21 1305.12 C 1194.45 1305.82 1199.49 1309.97 1202.61 1312.79 C 1246.78 1352.67 1304.94 1374.46 1362.89 1352.28 C 1368.35 1350.19 1377.04 1346.05 1382.8 1345.29 C 1362.32 1370.34 1342.93 1396.32 1322.33 1421.1 z" fill="rgb(198,76,21)" transform="translate(0,0)"></path>
<path d="M 1561.62 662.54 C 1544.5 683.185 1507.54 691.504 1484.27 674.692 C 1467.01 662.216 1465.51 622.154 1481.45 606.875 C 1497.42 591.57 1504.35 589.531 1525.87 588.643 C 1538.81 595.483 1540.03 603.967 1545.18 616.784 C 1551.21 631.763 1555.69 647.598 1561.62 662.54 z" fill="rgb(245,186,155)" transform="translate(0,0)"></path>
<path d="M 1352.96 592.241 L 1354.98 592.528 C 1357.88 592.92 1360.75 592.023 1363.9 592.482 C 1375.71 594.171 1388.91 599.124 1396.67 608.627 C 1401.62 614.684 1406.32 625.074 1406.96 632.999 C 1407.55 640.396 1407.47 647.719 1405.93 654.985 C 1402.15 672.852 1390.28 683.022 1372.47 685.701 C 1355.2 688.266 1331.47 684.089 1320.17 669.381 C 1318.23 666.868 1317.65 662.446 1316.98 659.455 C 1323.88 645.55 1328.53 629.278 1334.99 614.995 C 1339.89 604.167 1339.44 598.127 1351.7 592.818 L 1352.96 592.241 z" fill="rgb(245,186,155)" transform="translate(0,0)"></path>
<path d="M 1261.2 571.212 L 1261.91 569.474 C 1265.01 562.076 1293.28 510.918 1296.65 509.318 C 1300.46 509.595 1300.28 509.673 1303.14 511.908 C 1304.16 514.285 1304.83 514.629 1303.4 517.29 C 1285.6 550.483 1264.74 583.701 1248.47 617.673 C 1220.13 676.846 1198.83 740.864 1175.88 802.36 C 1173.69 808.215 1172.16 816.885 1167.04 820.224 C 1163.2 820.174 1165.04 820.605 1161.45 818.439 C 1156 806.527 1223.82 643.358 1234.73 619.128 C 1237.07 613.943 1246.47 596.977 1249.65 591.583 C 1241.32 588.141 1225.98 583.454 1221.41 576.891 C 1220.94 573.92 1220.75 574.05 1222.04 571.393 C 1232.95 567.243 1252.71 588.576 1259.29 574.325 L 1258.09 573.378 L 1259.61 570.671 L 1261.2 571.212 z" fill="rgb(198,76,21)" transform="translate(0,0)"></path>
<path d="M 1259.61 570.671 L 1261.2 571.212 C 1260.56 572.477 1260.12 573.075 1259.29 574.325 L 1258.09 573.378 L 1259.61 570.671 z" fill="rgb(248,112,16)" transform="translate(0,0)"></path>
<path d="M 1433.59 505.238 C 1435.2 501.197 1434.71 500.447 1437.63 498.321 C 1440.2 500.261 1442.22 508.81 1443.8 512.835 L 1458.02 553.471 C 1460.45 560.45 1464.08 573.236 1467.7 579.059 C 1465.81 582.605 1463.22 587.097 1461.63 590.68 C 1459.45 595.439 1456.37 597.387 1453.09 601.578 C 1445.62 611.147 1441.13 620.132 1437.75 631.747 C 1431.32 616.634 1428.83 610.59 1419.51 596.856 C 1415.87 589.284 1412.92 583.453 1407.08 577.294 C 1416.06 555.107 1425.52 528.015 1433.59 505.238 z" fill="rgb(253,253,252)" transform="translate(0,0)"></path>
<path d="M 1390.74 358.731 C 1428.27 372.177 1415.65 425.271 1390.58 444.559 C 1384.24 449.434 1376.9 449.764 1369.24 448.568 C 1357.14 446.31 1355.26 444.084 1347.45 435.787 C 1351.79 428.771 1389.14 359.932 1390.74 358.731 z" fill="rgb(245,186,155)" transform="translate(0,0)"></path>
<path d="M 1492.47 356.628 C 1498.25 360.435 1526.26 421.018 1533.12 432.082 C 1523.56 443.551 1512.36 448.512 1497.62 442.703 C 1471.47 432.399 1457.9 368.586 1488.51 357.986 L 1492.47 356.628 z" fill="rgb(245,186,155)" transform="translate(0,0)"></path>
<path d="M 1332.38 336.328 C 1335.82 326.864 1361.69 273.021 1366.89 267.621 L 1368.2 268.699 C 1373.52 273.007 1376.52 272.069 1382.17 279.212 C 1395.64 296.244 1379.62 318.75 1368.62 333.621 C 1358.69 347.032 1345.58 346.643 1332.38 336.328 z" fill="rgb(245,186,155)" transform="translate(0,0)"></path>
<path d="M 1229.75 547.541 C 1233.2 550.258 1248.99 559.115 1253.7 561.717 L 1253.16 563.611 C 1257.28 566.316 1257.29 566.564 1259.61 570.671 L 1258.09 573.378 C 1252.27 578.297 1222.15 563.635 1218.99 558.983 C 1219.9 556.644 1220.86 554.558 1221.63 552.173 L 1226.21 552.12 C 1227.9 550.177 1228.35 549.68 1229.75 547.541 z" fill="rgb(198,76,21)" transform="translate(0,0)"></path>
<path d="M 1229.75 547.541 C 1233.2 550.258 1248.99 559.115 1253.7 561.717 L 1253.16 563.611 C 1244.18 561.632 1235.09 554.967 1226.21 552.12 C 1227.9 550.177 1228.35 549.68 1229.75 547.541 z" fill="rgb(248,112,16)" transform="translate(0,0)"></path>
<path d="M 1229.75 547.541 C 1230.31 546.42 1232.95 538.797 1234.47 539.505 C 1252.26 547.794 1258.59 544.637 1253.7 561.717 C 1248.99 559.115 1233.2 550.258 1229.75 547.541 z" fill="rgb(198,76,21)" transform="translate(0,0)"></path>
<path d="M 1439.98 1238.05 C 1439.94 1236.72 1439.3 1225.45 1441.18 1225.45 C 1442.26 1226.24 1441.99 1236.27 1441.95 1238.19 L 1439.98 1238.05 z" fill="rgb(245,186,155)" transform="translate(0,0)"></path>
<path d="M 1439.14 1065.92 C 1439.01 1029.99 1419.23 984.661 1412.87 948.383 C 1407.68 925.653 1404.4 904.156 1407.47 880.724 C 1411.73 848.252 1413.11 814.535 1422.47 782.951 C 1428.7 761.907 1432.9 740.789 1437.01 719.149 C 1439 732.038 1441.85 744.779 1445.55 757.283 C 1448.97 768.408 1454.18 782.552 1456.78 793.532 C 1459.61 805.533 1461.12 823.493 1462.23 836.327 C 1464.95 867.598 1470.14 895.603 1466.17 927.105 C 1462.98 952.447 1458.48 975.52 1453.41 1000.31 C 1450.43 1014.87 1441.55 1049.71 1442.11 1062.63 C 1440.98 1064.26 1440.65 1064.49 1439.14 1065.92 z" fill="rgb(253,253,252)" transform="translate(0,0)"></path>
<path d="M 1284.9 784.449 C 1290.75 785.633 1293.25 788.712 1298.41 791.578 C 1312.53 799.459 1328.46 802.36 1344.48 800.671 C 1347.28 800.936 1359.45 797.199 1361.51 798.079 C 1368.35 801.002 1366.85 805.775 1362.08 808.681 C 1335.77 817.616 1307.34 812.255 1284.8 796.564 C 1279.66 792.99 1279.77 790.244 1283.72 785.82 L 1284.9 784.449 z" fill="rgb(198,76,21)" transform="translate(0,0)"></path>
<path d="M 1590.36 784.788 C 1604.63 788.531 1587.83 799.567 1582.66 802.084 C 1561.95 812.175 1540.09 814.238 1517.84 808.858 C 1506.26 802.79 1515.72 795.908 1517.01 796.293 C 1545.32 804.769 1566 799.44 1590.36 784.788 z" fill="rgb(198,76,21)" transform="translate(0,0)"></path>
<path d="M 1284.31 756.558 C 1290.45 758.818 1292.1 760.722 1297.59 764.123 C 1307.69 770.369 1318.34 773.316 1330 774.951 C 1333.48 775.939 1344.88 774.909 1347.18 777.738 C 1350.26 781.53 1347.5 785.307 1344.75 787.608 C 1339.03 788.006 1331.22 788.191 1323.56 786.629 C 1311.37 784.145 1285.62 775.566 1280.2 763.051 C 1279.58 761.627 1283.37 757.665 1284.31 756.558 z" fill="rgb(198,76,21)" transform="translate(0,0)"></path>
<path d="M 1438.19 630.762 C 1446.66 640.334 1446.07 675.649 1444.17 688.007 C 1443.54 692.199 1442.73 696.362 1441.75 700.484 L 1440.78 704.482 L 1440.37 706.056 C 1439.39 709.931 1438.57 712.932 1437.31 716.728 C 1436.12 720.147 1435.19 718.439 1434.99 715.998 C 1432.83 689.543 1430.47 656.451 1438.19 630.762 z" fill="rgb(198,76,21)" transform="translate(0,0)"></path>
<path d="M 1592.56 756.607 C 1599.65 758.328 1601.6 762.391 1595.58 767.567 C 1579.08 781.744 1558.06 786.243 1536.77 785.747 C 1524.41 782.753 1531.16 774.385 1532.99 774.512 C 1559.29 776.336 1571.81 771.426 1592.56 756.607 z" fill="rgb(198,76,21)" transform="translate(0,0)"></path>
<path d="M 1442.11 1062.63 C 1442.17 1064.04 1440.1 1083.76 1439.18 1086.27 C 1439.04 1086.29 1438.91 1086.31 1438.77 1086.34 C 1438.44 1084.28 1438.87 1067.81 1439.14 1065.92 C 1440.65 1064.49 1440.98 1064.26 1442.11 1062.63 z" fill="rgb(245,186,155)" transform="translate(0,0)"></path>
<path d="M 265.919 1122.1 C 267.389 1103.93 266.852 1081.22 266.855 1062.75 L 266.813 971.47 L 266.79 684.958 L 266.866 639.446 C 266.927 610.032 264.904 585.49 287.608 563.108 C 311.961 539.1 341.412 543.357 372.935 543.264 L 462.107 543.269 C 550.692 543.382 639.378 543.116 727.987 543.289 C 749.959 542.625 768.497 548.704 783.689 564.826 C 804.718 587.142 803.518 612.846 803.162 641.321 C 802.919 660.838 803.396 680.418 802.913 699.976 C 803.775 734.267 803.146 770.74 803.122 805.269 L 803.004 993.193 C 802.959 1112.76 804.683 1236.32 802.855 1355.54 C 804.108 1398.05 779.837 1430.79 735.041 1432.35 C 721.969 1432.8 708.72 1432.19 695.618 1432.13 L 623.405 1432.2 C 615.754 1433.07 600.219 1432.84 592.399 1432.85 L 538.784 1432.85 C 560.11 1460 570.1 1486.29 557.674 1520.25 C 555.083 1527.18 551.791 1533.82 547.85 1540.08 C 531.715 1566.07 512.463 1590.58 494.905 1615.66 C 474.674 1644.57 445.521 1691.29 421.57 1714.78 C 402.368 1733.62 378.899 1748.67 354.507 1759.83 C 292.063 1788.39 220.063 1803.38 153.831 1778.48 C 103.427 1759.52 67.4027 1722.9 45.3959 1674.16 C 13.7837 1604.16 26.3025 1516.25 33.0667 1442.19 C 35.5954 1414.5 35.7733 1383.97 45.7227 1357.85 C 53.4908 1337.46 95.4785 1251.37 108.237 1238.02 C 120.126 1225.57 135.402 1218.41 150.835 1211.47 C 154.075 1210.02 152.379 1210.29 156.14 1211.01 C 159.256 1209.29 163.097 1202.69 166.001 1199.27 C 182.893 1179.34 195.954 1175.4 219.705 1168.42 C 222.324 1161.76 226.49 1148.22 231.799 1144.73 C 246.554 1135.12 246.513 1130.65 265.919 1122.1 z" fill="rgb(253,253,252)" transform="translate(0,0)"></path>
<path d="M 500.894 864.498 C 532.615 852.457 561.472 873.49 559.681 907.381 C 558.513 929.495 548.794 953.622 541.106 974.504 L 537.214 984.087 C 533.116 993.676 529.117 1003.31 525.215 1012.98 L 522.218 1020.29 C 511.161 1047.34 499.405 1074.11 486.962 1100.55 C 480.555 1113.97 460.581 1153.26 456.836 1165.28 C 448.624 1191.65 441.517 1228.39 434.414 1256.1 C 433.735 1259.42 432.598 1262.52 433.76 1265.51 C 442.297 1266.91 471.931 1266.27 481.717 1266.24 L 574.192 1265.98 C 587.047 1265.95 610.021 1265.27 622.019 1266.19 C 601.025 1267.4 575.242 1266.79 553.933 1266.87 L 432.846 1266.96 C 430.266 1278.12 425.6 1296.48 424.211 1307.36 C 447.093 1331.25 469.475 1355.61 491.344 1380.44 C 497.298 1387.11 525.369 1420.41 531.11 1422.6 C 530.673 1426.13 534.926 1429.81 537.376 1432.53 C 545.644 1431.55 566.281 1431.85 575.447 1431.96 C 590.221 1432.14 608.964 1431.36 623.405 1432.2 C 615.754 1433.07 600.219 1432.84 592.399 1432.85 L 538.784 1432.85 C 560.11 1460 570.1 1486.29 557.674 1520.25 C 555.083 1527.18 551.791 1533.82 547.85 1540.08 C 531.715 1566.07 512.463 1590.58 494.905 1615.66 C 474.674 1644.57 445.521 1691.29 421.57 1714.78 C 402.368 1733.62 378.899 1748.67 354.507 1759.83 C 292.063 1788.39 220.063 1803.38 153.831 1778.48 C 103.427 1759.52 67.4027 1722.9 45.3959 1674.16 C 13.7837 1604.16 26.3025 1516.25 33.0667 1442.19 C 35.5954 1414.5 35.7733 1383.97 45.7227 1357.85 C 53.4908 1337.46 95.4785 1251.37 108.237 1238.02 C 120.126 1225.57 135.402 1218.41 150.835 1211.47 C 154.075 1210.02 152.379 1210.29 156.14 1211.01 C 159.256 1209.29 163.097 1202.69 166.001 1199.27 C 182.893 1179.34 195.954 1175.4 219.705 1168.42 C 222.324 1161.76 226.49 1148.22 231.799 1144.73 C 246.554 1135.12 246.513 1130.65 265.919 1122.1 C 269.587 1121.59 272.673 1121.61 275.601 1119.5 C 276.818 1113.95 276.129 1090.27 276.197 1082.95 C 276.47 1053.65 275.458 1023.79 276.228 994.504 C 278.053 1034.85 276.403 1078.94 276.972 1119.7 C 295.914 1117.22 313.252 1116.65 332.351 1115.87 C 345.117 1079.44 364.523 1045.69 389.586 1016.33 L 391.847 1017.61 C 395.504 1012.97 397.451 1009.47 400.386 1004.43 C 405.757 997.248 410.736 988.003 416.26 981.006 C 418.441 977.91 420.522 974.991 422.379 971.684 C 424.396 969.118 427.508 964.157 429.442 961.288 C 436.905 953.127 449.235 931.882 457.524 921.337 C 463.965 911.234 489.455 869.778 497.993 865.87 C 498.385 865.691 498.787 865.534 499.177 865.35 C 499.754 865.077 500.321 864.782 500.894 864.498 z" fill="rgb(237,154,99)" transform="translate(0,0)"></path>
<path d="M 389.586 1016.33 L 391.847 1017.61 C 398.607 1030.84 387.442 1036.18 381.199 1047.16 C 372.732 1062.05 360.483 1074.97 354.512 1091.09 C 330.379 1148.18 313.16 1207.56 293.991 1266.43 C 290.745 1276.39 281.865 1313.51 276.715 1318.25 C 273.191 1319.31 274.873 1319.34 271.493 1318.38 C 266.761 1311.39 272.002 1297.28 274.525 1289.7 C 293.487 1232.75 309.374 1171.32 332.351 1115.87 C 345.117 1079.44 364.523 1045.69 389.586 1016.33 z" fill="rgb(198,76,21)" transform="translate(0,0)"></path>
<path d="M 500.894 864.498 L 502.789 865.084 C 510.705 867.499 517.692 867.097 522.752 875.622 C 545.584 914.087 482.292 952.237 457.524 921.337 C 463.965 911.234 489.455 869.778 497.993 865.87 C 498.385 865.691 498.787 865.534 499.177 865.35 C 499.754 865.077 500.321 864.782 500.894 864.498 z" fill="rgb(245,186,155)" transform="translate(0,0)"></path>
<path d="M 219.705 1168.42 C 222.324 1161.76 226.49 1148.22 231.799 1144.73 C 235.936 1146.12 236.274 1145.5 238.737 1148.29 C 238.74 1151.61 182.485 1300.39 177.327 1317.26 C 176.821 1318.92 174.734 1323.82 173.225 1325.14 C 171.318 1326.81 172.219 1326.09 169.421 1326.6 C 165.325 1324.96 166.861 1326.25 164.447 1322.85 C 163.531 1318.08 164.538 1314.5 166.345 1310.07 C 185.13 1263.97 199.795 1213.97 219.705 1168.42 z" fill="rgb(198,76,21)" transform="translate(0,0)"></path>
<path d="M 150.835 1211.47 C 154.075 1210.02 152.379 1210.29 156.14 1211.01 C 158.962 1212.65 160.586 1212.82 161.42 1215.16 C 157.575 1223.95 153.012 1232.24 148.557 1240.72 C 131.551 1273.11 115.904 1306.2 99.2499 1338.76 C 97.6946 1341.81 97.2077 1342.97 94.3525 1344.48 C 90.8573 1343.58 92.3781 1344.39 89.6929 1341.81 C 86.48 1331.53 106.561 1297.28 111.901 1286.95 L 141.161 1229.76 L 150.835 1211.47 z" fill="rgb(198,76,21)" transform="translate(0,0)"></path>
<path d="M 421.191 1318.61 C 422.583 1319.79 423.116 1320.73 423.892 1322.47 C 440.27 1359.18 437.188 1415.81 424.774 1452.61 C 432.071 1445.22 440.076 1438.23 449.773 1434.18 C 456.176 1431.5 470.394 1424.48 473.454 1434.68 C 469.574 1446.51 430.245 1439.34 420.662 1489.32 C 423.587 1508.88 433.138 1513.95 440.643 1529.53 L 439.243 1533.09 C 428.693 1540.73 408.35 1501.45 407.026 1493.96 C 397.588 1440.63 410.439 1370.57 421.191 1318.61 z" fill="rgb(198,76,21)" transform="translate(0,0)"></path>
<path d="M 365.941 1082.52 C 375.415 1085.39 384.921 1089.1 394.982 1092.17 L 397.997 1093.08 C 407.384 1095.85 408.061 1096.95 405.191 1105.83 C 393.463 1103.94 379.351 1099.44 368.547 1094.45 C 362.871 1091.83 361.823 1088.87 364.983 1084.05 L 365.941 1082.52 z" fill="rgb(198,76,21)" transform="translate(0,0)"></path>
<path d="M 355.168 1104.93 C 364.98 1105 372.821 1107.74 382.456 1110.26 L 386.447 1111.29 C 397.521 1114.26 399.398 1114.57 395.129 1124.23 C 385.611 1123.41 374.191 1119.79 365.013 1116.9 C 356.848 1114.33 351.367 1113.43 355.168 1104.93 z" fill="rgb(198,76,21)" transform="translate(0,0)"></path>
<path d="M 429.442 961.288 C 423.073 953.059 417.249 944.349 414.785 933.964 C 401.348 877.321 400.12 817.565 398.982 759.607 C 398.57 738.608 399.651 727.327 423.668 727.18 C 442.706 726.832 461.889 726.905 480.927 726.891 L 579.75 726.746 L 626.82 726.911 C 634.153 726.947 642.849 726.115 649.975 727.509 C 653.894 728.276 658.095 730.717 660.197 734.174 C 667.475 746.143 664.665 768.83 664.659 782.487 C 664.641 826.009 663.786 865.52 656.785 908.725 C 654.895 920.391 653.26 932.447 650.009 943.823 C 647.238 953.524 642.499 964.34 633.212 969.289 C 616.076 978.42 562.486 974.741 541.106 974.504 C 548.794 953.622 558.513 929.495 559.681 907.381 C 561.472 873.49 532.615 852.457 500.894 864.498 C 500.321 864.782 499.754 865.077 499.177 865.35 C 498.787 865.534 498.385 865.691 497.993 865.87 C 489.455 869.778 463.965 911.234 457.524 921.337 C 449.235 931.882 436.905 953.127 429.442 961.288 z" fill="rgb(248,112,16)" transform="translate(0,0)"></path>
<path d="M 486.283 763.158 C 496.516 762.388 504.497 761.842 513.634 767.577 C 529.299 777.32 531.352 800.034 524.451 815.705 C 520.395 824.915 512.829 829.591 503.75 832.81 C 486.955 833.955 473.703 832.942 465.96 815.508 C 461.429 805.047 461.18 793.227 465.265 782.583 C 469.527 771.538 476.171 767.618 486.283 763.158 z" fill="rgb(253,253,252)" transform="translate(0,0)"></path>
<path d="M 489.281 771.175 C 495.341 770.711 501.892 770.095 506.994 773.842 C 524.382 786.61 520.627 816.424 501.168 825.055 C 497.837 825.235 493.239 825.628 490.013 824.764 C 474.658 820.651 469.362 802.384 473.281 788.565 C 475.273 781.697 480.015 775.957 486.383 772.704 C 487.39 772.185 488.284 771.719 489.281 771.175 z" fill="rgb(248,112,16)" transform="translate(0,0)"></path>
<path d="M 588.558 762.916 C 589.401 762.986 590.242 763.065 591.086 763.113 C 592.158 763.174 594.589 762.974 595.505 763.964 C 596.167 764.679 596.022 766.622 596.029 767.472 C 596.08 774.287 596.588 830.728 595.363 831.633 C 593.97 832.661 589.953 832.197 588.484 832.169 C 587.753 832.155 586.012 832.152 585.423 831.574 C 581.898 828.114 579.055 821.758 576.381 817.492 C 568.751 805.319 560.526 791.217 550.479 780.958 C 550.165 789.046 551.1 829.272 548.602 832.625 C 547.73 832.51 546.857 832.401 545.983 832.299 C 545.018 832.194 541.866 831.951 541.816 831.406 C 540.67 819.103 540.939 774.435 540.803 764.913 L 553.447 764.922 C 562.809 780.907 576.262 801.239 586.965 816.506 C 587.069 809.386 585.979 766.03 588.558 762.916 z" fill="rgb(253,253,252)" transform="translate(0,0)"></path>
<path d="M 522.218 1020.29 C 535.796 1026.55 604.517 1014.74 622.826 1025.24 C 641.786 1034.39 644.602 1055.19 649.844 1074.06 C 662.225 1118.65 665.304 1164.71 664.271 1210.85 C 664.035 1221.36 667.904 1252.33 652.901 1254.58 C 633.528 1257.48 611.588 1254.96 591.922 1255.68 C 539.712 1256.88 486.423 1255.09 434.414 1256.1 C 441.517 1228.39 448.624 1191.65 456.836 1165.28 C 460.581 1153.26 480.555 1113.97 486.962 1100.55 C 499.405 1074.11 511.161 1047.34 522.218 1020.29 z" fill="rgb(198,76,21)" transform="translate(0,0)"></path>
<path d="M 265.919 1122.1 C 267.389 1103.93 266.852 1081.22 266.855 1062.75 L 266.813 971.47 L 266.79 684.958 L 266.866 639.446 C 266.927 610.032 264.904 585.49 287.608 563.108 C 311.961 539.1 341.412 543.357 372.935 543.264 L 462.107 543.269 C 550.692 543.382 639.378 543.116 727.987 543.289 C 749.959 542.625 768.497 548.704 783.689 564.826 C 804.718 587.142 803.518 612.846 803.162 641.321 C 802.919 660.838 803.396 680.418 802.913 699.976 C 803.775 734.267 803.146 770.74 803.122 805.269 L 803.004 993.193 C 802.959 1112.76 804.683 1236.32 802.855 1355.54 C 804.108 1398.05 779.837 1430.79 735.041 1432.35 C 721.969 1432.8 708.72 1432.19 695.618 1432.13 L 623.405 1432.2 C 608.964 1431.36 590.221 1432.14 575.447 1431.96 C 566.281 1431.85 545.644 1431.55 537.376 1432.53 C 534.926 1429.81 530.673 1426.13 531.11 1422.6 C 543.736 1423.47 562.507 1423.06 575.423 1423.09 L 656.457 1423.11 L 708.025 1423.08 C 717.279 1423.07 732.086 1423.49 740.804 1422.29 C 742.81 1418.5 756.307 1411.51 760.917 1407.53 C 774.576 1395.73 784.239 1377.21 784.795 1358.91 C 786.504 1302.62 786.175 1246.21 786.111 1189.86 C 786.404 1098.57 786.225 1007.29 785.572 916 C 785.879 847.953 785.808 779.906 785.357 711.86 C 785.229 682.746 785.134 653.746 784.737 624.572 C 784.336 595.109 767.544 570.765 740.279 559.589 C 734.527 557.231 728.074 555.819 722.762 553.015 L 449.176 553.031 L 372.124 552.91 C 359.49 552.885 337.877 552.203 326.315 554.034 C 313.711 556.024 302.079 562.01 293.134 571.111 C 284.976 579.272 279.559 589.77 277.634 601.147 C 275.492 614.017 276.12 636.032 276.127 649.795 L 276.17 724.953 L 276.228 994.504 C 275.458 1023.79 276.47 1053.65 276.197 1082.95 C 276.129 1090.27 276.818 1113.95 275.601 1119.5 C 272.673 1121.61 269.587 1121.59 265.919 1122.1 z" fill="rgb(133,62,29)" transform="translate(0,0)"></path>
<path d="M 722.762 553.015 C 728.154 552.871 733.71 552.63 739.092 553.051 C 769.501 555.431 793.128 580.972 793.365 611.477 C 793.843 672.757 793.842 734.017 793.854 795.292 L 793.85 1115 L 793.749 1289.76 C 793.687 1308.96 794.659 1355.8 792.657 1373.25 C 791.157 1385.44 785.666 1396.81 777.038 1405.56 C 766.79 1416.08 755.533 1421.47 740.804 1422.29 C 742.81 1418.5 756.307 1411.51 760.917 1407.53 C 774.576 1395.73 784.239 1377.21 784.795 1358.91 C 786.504 1302.62 786.175 1246.21 786.111 1189.86 C 786.404 1098.57 786.225 1007.29 785.572 916 C 785.879 847.953 785.808 779.906 785.357 711.86 C 785.229 682.746 785.134 653.746 784.737 624.572 C 784.336 595.109 767.544 570.765 740.279 559.589 C 734.527 557.231 728.074 555.819 722.762 553.015 z" fill="url(#Gradient1)" transform="translate(0,0)"></path>
<path d="M 802.913 699.976 C 803.775 734.267 803.146 770.74 803.122 805.269 L 803.004 993.193 C 802.959 1112.76 804.683 1236.32 802.855 1355.54 C 800.963 1346.02 801.912 1310.05 801.952 1298.42 L 801.575 1200.53 C 801.507 1174.78 798.827 1150 798.584 1124.26 C 798.299 1094.18 797.734 1065.53 800.576 1035.64 C 801.62 1024.65 799.795 1008.89 799.711 997.55 C 798.993 951.222 799.25 904.883 800.482 858.565 C 801.971 862.642 800.21 867.252 801.403 871.876 C 802.903 817.84 798.756 752.889 802.913 699.976 z" fill="rgb(198,76,21)" transform="translate(0,0)"></path>
<path d="M 389.586 1016.33 C 388.365 1008.8 388.868 990.959 388.861 982.694 L 388.816 917.488 L 388.751 806.259 C 388.761 786.563 388.667 767.01 389.171 747.326 C 390.102 710.938 426.058 717.038 451.574 717.099 L 521.655 717.139 L 603.255 717.079 C 617.946 717.007 632.638 716.543 647.462 717.31 C 661.731 718.049 674.078 730.555 674.746 744.926 C 675.094 776.321 674.901 807.871 674.863 839.327 L 674.835 1026.73 L 674.951 1169.71 C 674.952 1194.4 675.584 1219.93 673.915 1244.55 C 673.608 1249.08 670.307 1252.92 667.555 1256.26 C 656.786 1268.73 637.187 1266.35 622.019 1266.19 C 610.021 1265.27 587.047 1265.95 574.192 1265.98 L 481.717 1266.24 C 471.931 1266.27 442.297 1266.91 433.76 1265.51 C 432.598 1262.52 433.735 1259.42 434.414 1256.1 C 486.423 1255.09 539.712 1256.88 591.922 1255.68 C 611.588 1254.96 633.528 1257.48 652.901 1254.58 C 667.904 1252.33 664.035 1221.36 664.271 1210.85 C 665.304 1164.71 662.225 1118.65 649.844 1074.06 C 644.602 1055.19 641.786 1034.39 622.826 1025.24 C 604.517 1014.74 535.796 1026.55 522.218 1020.29 L 525.215 1012.98 C 529.117 1003.31 533.116 993.676 537.214 984.087 L 541.106 974.504 C 562.486 974.741 616.076 978.42 633.212 969.289 C 642.499 964.34 647.238 953.524 650.009 943.823 C 653.26 932.447 654.895 920.391 656.785 908.725 C 663.786 865.52 664.641 826.009 664.659 782.487 C 664.665 768.83 667.475 746.143 660.197 734.174 C 658.095 730.717 653.894 728.276 649.975 727.509 C 642.849 726.115 634.153 726.947 626.82 726.911 L 579.75 726.746 L 480.927 726.891 C 461.889 726.905 442.706 726.832 423.668 727.18 C 399.651 727.327 398.57 738.608 398.982 759.607 C 400.12 817.565 401.348 877.321 414.785 933.964 C 417.249 944.349 423.073 953.059 429.442 961.288 C 427.508 964.157 424.396 969.118 422.379 971.684 C 420.522 974.991 418.441 977.91 416.26 981.006 C 410.736 988.003 405.757 997.248 400.386 1004.43 C 397.451 1009.47 395.504 1012.97 391.847 1017.61 L 389.586 1016.33 z" fill="rgb(133,62,29)" transform="translate(0,0)"></path>
<path d="M 537.214 984.087 C 558.262 984.102 621.478 987.649 637.658 978.349 C 645.841 973.646 649.72 965.343 656.261 959.087 L 657.385 958.032 C 649.628 990.723 640.378 992.976 629.59 1018.14 C 626.395 1019.96 618.835 1013.11 608.572 1013.02 C 580.788 1012.79 552.986 1012.91 525.215 1012.98 C 529.117 1003.31 533.116 993.676 537.214 984.087 z" fill="rgb(115,16,3)" transform="translate(0,0)"></path>
<path d="M 661.286 943.916 C 662.411 938.537 662.897 936.165 664.861 930.943 C 664.539 937.775 664.04 945.234 664.018 952.014 L 664.121 1043.96 C 664.238 1058.61 665.153 1078.71 664.754 1092.85 C 660.361 1070.14 654.112 1033.96 633.688 1020.62 C 632.345 1019.75 630.978 1018.93 629.59 1018.14 C 640.378 992.976 649.628 990.723 657.385 958.032 C 658.348 955.951 660.591 946.7 661.286 943.916 z" fill="rgb(198,76,21)" transform="translate(0,0)"></path>
<path d="M 399.784 948.377 L 402.745 947.203 L 404.187 953.484 C 406.281 962.576 410.204 973.808 416.26 981.006 C 410.736 988.003 405.757 997.248 400.386 1004.43 C 398.711 991.228 399.154 962.727 399.75 949.276 L 399.784 948.377 z" fill="rgb(198,76,21)" transform="translate(0,0)"></path>
<path d="M 400.795 926.623 L 404.518 929.215 C 407.737 946.521 413.933 956.936 422.379 971.684 C 420.522 974.991 418.441 977.91 416.26 981.006 C 410.204 973.808 406.281 962.576 404.187 953.484 L 402.745 947.203 C 402.454 944.814 402.119 942.431 401.74 940.054 C 401.876 936.89 401.035 930.362 400.795 926.623 z" fill="rgb(115,16,3)" transform="translate(0,0)"></path>
<path d="M 400.188 911.577 C 401.583 917.47 402.596 923.462 404.518 929.215 L 400.795 926.623 C 399.966 921.297 400.207 916.911 400.188 911.577 z" fill="rgb(116,34,10)" transform="translate(0,0)"></path>
<path d="M 399.784 948.377 C 399.815 945.354 398.677 941.12 401.74 940.054 C 402.119 942.431 402.454 944.814 402.745 947.203 L 399.784 948.377 z" fill="rgb(133,62,29)" transform="translate(0,0)"></path>
<path d="M 531.134 591.666 C 554.812 590.888 574.676 609.372 575.604 633.045 C 576.531 656.718 558.173 676.699 534.507 677.776 C 510.627 678.863 490.427 660.304 489.492 636.418 C 488.556 612.532 507.243 592.45 531.134 591.666 z" fill="rgb(133,62,29)" transform="translate(0,0)"></path>
<path d="M 515.1 606.595 C 515.688 606.698 517.037 606.908 517.078 607.013 C 524.131 624.393 528.792 643.976 535.444 661.709 C 539.561 672.684 533.436 669.068 523.599 667.522 C 495.329 656.006 489.018 624.863 515.1 606.595 z" fill="rgb(248,112,16)" transform="translate(0,0)"></path>
<path d="M 528.98 601.166 C 560.061 601.393 578.617 629.94 558.11 656.258 C 554.525 659.97 554.098 660.198 549.911 663.292 C 544.66 650.959 531.348 614.289 528.98 601.166 z" fill="rgb(248,112,16)" transform="translate(0,0)"></path>
<path d="M 526.241 1296.21 C 549.518 1292.35 571.479 1308.2 575.161 1331.5 C 578.844 1354.81 562.837 1376.65 539.506 1380.16 C 516.418 1383.63 494.853 1367.83 491.209 1344.77 C 487.565 1321.71 503.208 1300.02 526.241 1296.21 z" fill="rgb(133,62,29)" transform="translate(0,0)"></path>
<path d="M 530.801 1304.24 C 562.569 1307.12 577.696 1334.04 557.802 1360.76 C 554.14 1364.27 552.892 1365.07 548.88 1368.12 C 545.897 1358.15 530.993 1318.53 528.46 1305.42 C 528.384 1305.03 530.543 1304.33 530.801 1304.24 z" fill="rgb(248,112,16)" transform="translate(0,0)"></path>
<path d="M 513.773 1311.89 C 518.92 1318.54 533.016 1362.33 536.351 1372.27 C 532.821 1371.77 529.561 1371.12 526.081 1370.58 C 518.27 1367.15 514.178 1365.51 508.233 1358.79 C 496.197 1345.2 498.468 1324.82 512.252 1313.21 L 513.773 1311.89 z" fill="rgb(248,112,16)" transform="translate(0,0)"></path>
<metadata><recraft-signature>{"signed_by": "recraft", "signature_b64": "1jmmfLGdiWFVK2ceVYtPyylWcp6dIlrnDCTlUT9tJoVFRi/W9cqwviOR0zGRFc6IeG86T6OnsSF/nLXojONFAQ==", "signing_algo": "Ed25519", "generation_timestamp": 1779100958, "identifier": "be30a4a3-56fc-46dd-aa35-c37d4344200a"}</recraft-signature></metadata></svg>