<svg xmlns="http://www.w3.org/2000/svg" height="1024" preserveAspectRatio="none" style="display: block;" version="1.1" viewBox="0 0 2048 2048" width="1024">
<path d="M 0 0 L 2048 0 L 2048 2048 L 0 2048 L 0 0 z" fill="rgb(255,255,255)" transform="translate(0,0)"></path>
<path d="M 1026.81 1287.05 L 1406.24 1283.55 L 1518.36 1281.9 C 1541.11 1281.6 1572.15 1280.13 1593.85 1283.97 C 1620.85 1288.6 1645.73 1301.52 1665.04 1320.94 C 1678.11 1334 1701.46 1380.1 1712.02 1398.91 L 1791.55 1540.9 L 1878.6 1695.18 C 1895.88 1725.46 1913.88 1755.65 1929.64 1786.79 C 1933.78 1794.97 1933 1806.43 1932.84 1815.52 C 1933.22 1837.19 1934.49 1856.9 1926.98 1877.73 C 1911.01 1922.03 1873.53 1948.44 1826.55 1949.02 L 769.199 1959.96 L 384.846 1963.76 L 276.987 1964.41 C 228.398 1964.82 182.698 1970.21 144.799 1932.55 C 116.315 1904.25 116.951 1874.12 116.982 1837.09 L 117.016 1823.86 C 116.624 1816.17 119.858 1809.94 123.235 1803.14 C 136.226 1776.99 149.921 1751.19 163.241 1725.2 L 252.716 1551.6 L 315.025 1431.52 C 328.138 1405.95 341.084 1379.39 355.05 1354.45 C 370.771 1326.38 408.077 1305.24 438.666 1298.79 C 463.293 1293.6 492.945 1294.9 518.253 1294.5 C 558.079 1293.68 597.912 1293.22 637.746 1293.11 C 712.055 1292.7 784.937 1290.1 858.992 1288.82 C 861.564 1291.93 861.112 1301.23 861.355 1305.76 C 861.972 1317.26 862.471 1328.79 863.05 1340.29 C 865.933 1399.56 869.718 1458.78 874.406 1517.94 C 875.609 1532.36 878.393 1572.26 882.466 1584.83 C 882.103 1586.11 881.713 1587.3 881.308 1588.56 C 885.336 1601.05 887.615 1608.66 896.354 1619.26 C 897.989 1620.2 899.096 1620.86 900.666 1621.87 C 934.674 1660.2 988.782 1653.73 1021.17 1616.85 C 1028.76 1604.78 1031.68 1603.61 1035.7 1587.89 C 1041.88 1563.05 1035.08 1490.69 1033.59 1461.11 L 1027.98 1335.89 C 1027.6 1328.6 1024.96 1292.3 1026.81 1287.05 z" fill="rgb(217,163,49)" transform="translate(0,0)"></path>
<path d="M 117.016 1823.86 C 121.853 1827.67 127.421 1836.72 132.116 1841.48 C 173.562 1883.51 217.047 1881.63 271.126 1880.69 L 340.537 1879.53 L 528.538 1877.22 L 1459.79 1865.39 L 1730.29 1861.47 C 1767.32 1860.79 1807.53 1862.46 1844.17 1858.96 C 1868.2 1856.67 1900.1 1840.94 1917.04 1823.82 C 1920.96 1819.85 1926.25 1810.64 1930.59 1808.2 L 1932 1809.19 L 1932.84 1815.52 C 1933.22 1837.19 1934.49 1856.9 1926.98 1877.73 C 1911.01 1922.03 1873.53 1948.44 1826.55 1949.02 L 769.199 1959.96 L 384.846 1963.76 L 276.987 1964.41 C 228.398 1964.82 182.698 1970.21 144.799 1932.55 C 116.315 1904.25 116.951 1874.12 116.982 1837.09 L 117.016 1823.86 z" fill="rgb(187,131,38)" transform="translate(0,0)"></path>
<path d="M 1038.71 1589.23 C 1050.71 1593.75 1062.16 1595.94 1073.85 1602.23 C 1144.23 1640.03 1094.84 1685.02 1040.48 1698.92 C 975.35 1715.56 905.02 1714.73 843.897 1684.22 C 823.855 1674.21 803.025 1650.89 816.414 1628 C 827.408 1609.26 861.502 1593.62 881.308 1588.56 C 885.336 1601.05 887.615 1608.66 896.354 1619.26 C 897.989 1620.2 899.096 1620.86 900.666 1621.87 C 934.674 1660.2 988.782 1653.73 1021.17 1616.85 C 1028.76 1604.78 1031.68 1603.61 1035.7 1587.89 C 1037.28 1588.41 1037.26 1588.4 1038.71 1589.23 z" fill="rgb(251,212,129)" transform="translate(0,0)"></path>
<path d="M 1021.17 1616.85 L 1022.96 1618.05 C 1033.07 1632.16 1031.29 1645.21 1015.74 1655.63 C 984.417 1676.63 921.677 1676.67 895.615 1646.66 C 888.45 1638.41 891.482 1628.07 896.354 1619.26 C 897.989 1620.2 899.096 1620.86 900.666 1621.87 C 934.674 1660.2 988.782 1653.73 1021.17 1616.85 z" fill="rgb(217,163,49)" transform="translate(0,0)"></path>
<path d="M 1035.7 1587.89 C 1037.28 1588.41 1037.26 1588.4 1038.71 1589.23 C 1035.96 1592.48 1035.23 1598.63 1032.76 1602.96 C 1029.74 1608.23 1026.4 1613.07 1022.96 1618.05 L 1021.17 1616.85 C 1028.76 1604.78 1031.68 1603.61 1035.7 1587.89 z" fill="rgb(222,136,96)" transform="translate(0,0)"></path>
<path d="M 829.346 101.62 C 840.512 98.3584 857.467 95.5455 869.015 93.4054 C 950.989 78.2144 1037.61 80.8454 1120.9 80.9398 C 1167.74 80.9929 1231.81 80.0886 1277.96 85.6648 C 1299.2 87.9779 1327.53 90.4506 1348.16 94.322 L 1323.62 415.643 C 1442.44 551.111 1478.95 735.711 1466.12 912.453 C 1463.63 946.681 1459.5 1002.96 1446.88 1034.01 C 1424.63 1088.75 1366.42 1096.31 1318.95 1075.49 C 1318.44 1108.02 1322.28 1141.31 1295.92 1164.7 C 1258.68 1197.74 1211.42 1192.89 1174.95 1163.38 C 1175.14 1180.41 1176.77 1201.48 1168.12 1216.62 C 1137.04 1271.02 1068.31 1272.14 1026.95 1230.66 L 1026.36 1230.06 L 1025.39 1230.12 C 1025.1 1233.57 1024.97 1235.75 1025.01 1239.21 C 1025.82 1250.2 1027.69 1276.71 1026.81 1287.05 C 1024.96 1292.3 1027.6 1328.6 1027.98 1335.89 L 1033.59 1461.11 C 1035.08 1490.69 1041.88 1563.05 1035.7 1587.89 C 1031.68 1603.61 1028.76 1604.78 1021.17 1616.85 C 988.782 1653.73 934.674 1660.2 900.666 1621.87 C 899.096 1620.86 897.989 1620.2 896.354 1619.26 C 887.615 1608.66 885.336 1601.05 881.308 1588.56 C 881.713 1587.3 882.103 1586.11 882.466 1584.83 C 878.393 1572.26 875.609 1532.36 874.406 1517.94 C 869.718 1458.78 865.933 1399.56 863.05 1340.29 C 862.471 1328.79 861.972 1317.26 861.355 1305.76 C 861.112 1301.23 861.564 1291.93 858.992 1288.82 C 857.758 1284.34 854.961 1229.28 854.85 1222.5 C 854.369 1193.14 849.787 1155.91 850.186 1127.64 C 850.037 1124.25 849.944 1121.23 849.913 1117.84 C 848.981 1117.05 848.676 1116.91 847.458 1116.11 C 840.938 1140.85 830.568 1161.26 807.908 1174.63 C 787.699 1186.54 764.653 1187.59 746.161 1171.34 C 744.244 1169.49 742.681 1166.82 741.37 1164.53 C 736.791 1156.86 726.909 1133.77 723.569 1125 C 711.917 1099.5 698.347 1071.76 687.51 1046.26 C 677.439 1030.07 670.011 987.951 666.311 967.757 C 664.968 961.322 663.875 956.048 662.276 949.694 C 655.412 915.966 646.426 881.855 639.374 848.045 C 635.142 827.752 629.44 807.922 628.288 787.134 C 627.159 765.398 630.544 743.664 638.229 723.301 C 646.86 701.005 666.616 672.487 679.554 651.113 C 718.357 587.012 758.037 523.399 798.042 460.037 C 807.042 445.782 821.934 426.292 828.159 410.981 C 832.501 400.299 830.937 373.92 832.726 361.417 C 836.287 274.728 832.75 188.174 829.346 101.62 z" fill="rgb(233,184,138)" transform="translate(0,0)"></path>
<path d="M 1277.96 85.6648 C 1299.2 87.9779 1327.53 90.4506 1348.16 94.322 L 1323.62 415.643 C 1442.44 551.111 1478.95 735.711 1466.12 912.453 C 1463.63 946.681 1459.5 1002.96 1446.88 1034.01 C 1424.63 1088.75 1366.42 1096.31 1318.95 1075.49 C 1318.44 1108.02 1322.28 1141.31 1295.92 1164.7 C 1258.68 1197.74 1211.42 1192.89 1174.95 1163.38 C 1175.14 1180.41 1176.77 1201.48 1168.12 1216.62 C 1137.04 1271.02 1068.31 1272.14 1026.95 1230.66 L 1026.36 1230.06 L 1025.39 1230.12 C 1025.1 1233.57 1024.97 1235.75 1025.01 1239.21 C 1020.97 1229.43 1011.25 1023.44 1011.01 1004.1 C 1012.59 1002.11 1014.67 999.437 1016.61 997.868 C 1020.63 994.621 1025.85 993.273 1030.94 994.174 C 1046.07 996.898 1044.07 1026.95 1044.6 1038.63 L 1046.74 1090.24 C 1047.9 1121.72 1046.41 1153.31 1064.71 1180.62 C 1077.64 1200.95 1104.76 1210.24 1125.38 1193.56 C 1166.73 1160.12 1160.23 1099.97 1166.36 1052.67 C 1167.85 1041.2 1168.03 1029.89 1169.81 1018.61 L 1169.98 1017.59 C 1170.2 1009.73 1171.09 998.695 1172 991.003 C 1171.85 982.83 1173.08 981.812 1179.07 976.861 C 1186.54 970.698 1201.5 968.787 1202.5 981.594 C 1203.07 989.025 1198.26 999.539 1197.85 1007.36 C 1196.74 1028.44 1197.92 1049.46 1199.58 1070.48 C 1200.18 1093.69 1210.87 1132.2 1238.53 1136.88 C 1296.87 1146.75 1299.87 1067.95 1304.47 1032.19 C 1309.35 994.306 1312.51 957.771 1319.67 923.097 C 1325.07 916.839 1339.1 904.663 1348.11 917.061 C 1351.08 921.14 1344.11 935.646 1342.48 940.979 C 1338.76 953.652 1338.54 968.064 1339.4 981.189 C 1340.9 1004.09 1344.98 1025.55 1369.64 1032.68 C 1404.22 1025.81 1421.22 979.554 1424.15 948.272 C 1437.89 801.679 1416.74 637.59 1325.91 517.052 C 1293.82 474.467 1246.82 444.149 1194.55 437.554 C 1199.46 433.596 1204.13 429.342 1208.52 424.815 C 1283.98 345.976 1280.57 188.506 1277.96 85.6648 z" fill="rgb(222,136,96)" transform="translate(0,0)"></path>
<path d="M 1172 991.003 C 1176.71 998.684 1172.3 1136.71 1175.56 1159.66 L 1174.59 1161.62 C 1172.61 1157.37 1172.92 1138.1 1172.85 1132.46 C 1172.47 1109.23 1172.21 1086 1172.06 1062.77 C 1172.04 1053.54 1173.26 1023.96 1169.98 1017.59 C 1170.2 1009.73 1171.09 998.695 1172 991.003 z" fill="rgb(216,136,92)" transform="translate(0,0)"></path>
<path d="M 729.957 745.616 C 732.044 747.881 733.741 749.76 735.677 752.171 C 790.215 812.848 816.894 883.12 835.842 961.554 C 846.971 1007.62 847.631 1049.4 850.247 1096.43 C 850.084 1109.52 849.734 1101.48 848.463 1110.01 C 848.092 1112.03 847.757 1114.07 847.458 1116.11 C 840.938 1140.85 830.568 1161.26 807.908 1174.63 C 787.699 1186.54 764.653 1187.59 746.161 1171.34 C 744.244 1169.49 742.681 1166.82 741.37 1164.53 C 756.436 1163.05 775.324 1153.48 783.602 1140.63 C 784.331 1139.49 784.56 1139.24 785.461 1138.25 C 792.592 1124.59 793.629 1119.14 792.237 1104.3 C 792.708 1101.72 792.603 1100.54 792.637 1097.94 C 799.098 1085.94 803.844 1025.51 800.826 1011.96 C 781.859 926.737 753.546 842.604 732.627 757.769 C 731.803 752.977 731.116 750.358 729.957 745.616 z" fill="rgb(210,117,81)" transform="translate(0,0)"></path>
<path d="M 732.627 757.769 C 733.331 757.369 733.915 757.057 734.491 756.498 C 737.478 764.061 743.167 781.434 747.158 787.178 L 747.822 788.154 C 753.406 804.653 761.174 820.392 766.893 836.141 C 785.065 886.18 815.49 948.104 819.51 1000.94 C 821.895 1032.26 805.63 1105.36 791.735 1133.52 C 789.662 1135.12 787.571 1136.7 785.461 1138.25 C 792.592 1124.59 793.629 1119.14 792.237 1104.3 C 792.708 1101.72 792.603 1100.54 792.637 1097.94 C 799.098 1085.94 803.844 1025.51 800.826 1011.96 C 781.859 926.737 753.546 842.604 732.627 757.769 z" fill="rgb(222,136,96)" transform="translate(0,0)"></path>
<path d="M 785.461 1138.25 C 787.571 1136.7 789.662 1135.12 791.735 1133.52 C 782.606 1151.71 771.834 1162.53 751.975 1168.77 C 749.484 1169.55 748.498 1170.07 746.161 1171.34 C 744.244 1169.49 742.681 1166.82 741.37 1164.53 C 756.436 1163.05 775.324 1153.48 783.602 1140.63 C 784.331 1139.49 784.56 1139.24 785.461 1138.25 z" fill="rgb(216,136,92)" transform="translate(0,0)"></path>
<path d="M 729.957 745.616 C 732.044 747.881 733.741 749.76 735.677 752.171 C 736.26 758.55 745.079 778.611 747.822 788.154 L 747.158 787.178 C 743.167 781.434 737.478 764.061 734.491 756.498 C 733.915 757.057 733.331 757.369 732.627 757.769 C 731.803 752.977 731.116 750.358 729.957 745.616 z" fill="rgb(216,136,92)" transform="translate(0,0)"></path>
<path d="M 687.51 1046.26 L 690.955 1047.6 C 696.155 1044.03 700.558 1039.09 705.686 1035.61 C 744.734 1009.04 782.87 1066.43 792.637 1097.94 C 792.603 1100.54 792.708 1101.72 792.237 1104.3 C 793.629 1119.14 792.592 1124.59 785.461 1138.25 C 784.56 1139.24 784.331 1139.49 783.602 1140.63 C 775.324 1153.48 756.436 1163.05 741.37 1164.53 C 736.791 1156.86 726.909 1133.77 723.569 1125 C 711.917 1099.5 698.347 1071.76 687.51 1046.26 z" fill="rgb(233,184,138)" transform="translate(0,0)"></path>
<path d="M 687.51 1046.26 L 690.955 1047.6 C 696.155 1044.03 700.558 1039.09 705.686 1035.61 C 744.734 1009.04 782.87 1066.43 792.637 1097.94 C 792.603 1100.54 792.708 1101.72 792.237 1104.3 C 778.933 1063.16 735.524 997.45 691.882 1051.1 C 697.692 1063.49 723.416 1114.95 723.569 1125 C 711.917 1099.5 698.347 1071.76 687.51 1046.26 z" fill="rgb(216,136,92)" transform="translate(0,0)"></path>
<path d="M 662.276 949.694 C 671.494 949.203 686.536 939.517 698.009 938.381 C 708.312 937.36 715.377 936.915 725.88 936.986 C 714.476 943.752 677.226 965.613 666.311 967.757 C 664.968 961.322 663.875 956.048 662.276 949.694 z" fill="rgb(222,136,96)" transform="translate(0,0)"></path>
<path d="M 882.466 1584.83 C 885.503 1599.43 891.541 1610.27 900.666 1621.87 C 899.096 1620.86 897.989 1620.2 896.354 1619.26 C 887.615 1608.66 885.336 1601.05 881.308 1588.56 C 881.713 1587.3 882.103 1586.11 882.466 1584.83 z" fill="rgb(222,136,96)" transform="translate(0,0)"></path>
<path d="M 850.247 1096.43 C 852.31 1105.49 853.06 1118.79 850.186 1127.64 C 850.037 1124.25 849.944 1121.23 849.913 1117.84 C 848.981 1117.05 848.676 1116.91 847.458 1116.11 C 847.757 1114.07 848.092 1112.03 848.463 1110.01 C 849.734 1101.48 850.084 1109.52 850.247 1096.43 z" fill="rgb(222,136,96)" transform="translate(0,0)"></path>
<path d="M 848.463 1110.01 C 850.316 1113.4 849.895 1113.68 849.913 1117.84 C 848.981 1117.05 848.676 1116.91 847.458 1116.11 C 847.757 1114.07 848.092 1112.03 848.463 1110.01 z" fill="rgb(244,224,226)" transform="translate(0,0)"></path>
<path d="M 904.923 1524.97 C 906.615 1474.81 960.964 1450.62 995.275 1489.52 C 1006.16 1501.86 1008.22 1512.48 1010.38 1528.02 C 1013.79 1548.54 1015.68 1577.55 1016.69 1598.26 C 995.535 1640.14 927.658 1641.73 903.957 1601.94 C 903.499 1591.1 903.642 1533.77 904.923 1524.97 z" fill="rgb(233,184,138)" transform="translate(0,0)"></path>
<path d="M 904.923 1524.97 C 906.615 1474.81 960.964 1450.62 995.275 1489.52 C 1006.16 1501.86 1008.22 1512.48 1010.38 1528.02 L 1008.03 1528.85 C 990.333 1483.14 922.621 1479.46 907.291 1532.43 L 906.858 1533.88 C 906.777 1534.17 906.696 1534.47 906.614 1534.76 C 905.248 1531.95 905.246 1528.26 904.923 1524.97 z" fill="rgb(222,136,96)" transform="translate(0,0)"></path>
<path d="M 904.923 1524.97 C 905.246 1528.26 905.248 1531.95 906.614 1534.76 C 908.649 1553.13 904.834 1580.17 907.074 1599.06 C 908.955 1607.01 916.472 1615.05 923.139 1618.86 C 954.89 1637.02 995.068 1629.88 1014.14 1598.28 C 1014.25 1585.01 1009.92 1542.49 1008.03 1528.85 L 1010.38 1528.02 C 1013.79 1548.54 1015.68 1577.55 1016.69 1598.26 C 995.535 1640.14 927.658 1641.73 903.957 1601.94 C 903.499 1591.1 903.642 1533.77 904.923 1524.97 z" fill="rgb(216,136,92)" transform="translate(0,0)"></path>
<path d="M 945.554 1276.42 C 965.076 1274.79 991.821 1279.99 1007.57 1292.31 C 988.313 1300.03 968.283 1301.72 947.707 1302.98 C 927.357 1303.32 901.717 1302.64 881.821 1298.36 C 900.952 1284.16 922.116 1278.32 945.554 1276.42 z" fill="rgb(222,136,96)" transform="translate(0,0)"></path>
<path d="M 932.329 1241.21 C 965.064 1238.89 980.569 1245.69 1002.23 1270.24 C 985.744 1267.2 969.015 1265.66 952.25 1265.63 C 927.897 1266.02 906.42 1270.08 882.626 1274.59 C 883.179 1273.68 883.745 1272.78 884.324 1271.9 C 895.226 1255.01 913.065 1245.33 932.329 1241.21 z" fill="rgb(222,136,96)" transform="translate(0,0)"></path>
<path d="M 731.183 955.315 C 740.173 954.462 750.077 955.054 759.058 956.02 C 753.682 962.207 748.102 967.664 741.424 972.436 C 731.579 979.702 720.366 984.902 708.46 987.722 C 704.927 988.544 701.746 989.12 698.23 989.836 C 688.898 990.897 680.594 991.698 671.136 992.078 C 689.783 969.831 701.362 959.993 731.183 955.315 z" fill="rgb(222,136,96)" transform="translate(0,0)"></path>
<metadata><recraft-signature>{"signed_by": "recraft", "signature_b64": "uC9Bhc71LzixHbc/YZR894dNtFqLslGFEDv2ikwAQyOOTq+EZQqJaACt0jThNSNvT0YATn0WGtlJaREx6lyxAA==", "signing_algo": "Ed25519", "generation_timestamp": 1779099271, "identifier": "e4ccb7a3-c471-42de-a725-f4e4314136e3"}</recraft-signature></metadata></svg>