<svg xmlns="http://www.w3.org/2000/svg" height="1280" preserveAspectRatio="none" style="display: block;" version="1.1" viewBox="0 0 1331 2048" width="832">
<defs>
	<linearGradient gradientUnits="userSpaceOnUse" id="Gradient1" x1="4.12936" x2="5.67825" y1="1938.76" y2="1939.6">
		<stop class="stop0" offset="0" stop-color="rgb(0,0,0)" stop-opacity="1"></stop>
		<stop class="stop1" offset="1" stop-color="rgb(40,20,11)" stop-opacity="1"></stop>
	</linearGradient>
	<linearGradient gradientUnits="userSpaceOnUse" id="Gradient2" x1="441.201" x2="437.269" y1="2037.4" y2="2032">
		<stop class="stop0" offset="0" stop-color="rgb(4,3,2)" stop-opacity="1"></stop>
		<stop class="stop1" offset="1" stop-color="rgb(29,14,7)" stop-opacity="1"></stop>
	</linearGradient>
</defs>
<path d="M 0 0 L 874.306 0 L 923.864 0 L 1331 0 L 1331 1043.31 L 1331 1044.84 L 1331 2048 L 422.433 2048 L 394.005 2048 L 80.4891 2048 L 0 2048 L 0 1959.67 L 0 1948.93 L 0 1947 L 0 0 z" fill="rgb(16,10,7)" transform="translate(0,0)"></path>
<path d="M 0 0 L 874.306 0 C 846.655 4.15531 824.035 5.02908 796.339 14.1865 C 779.329 19.8108 764.687 26.2325 748.146 32.4455 C 744.108 33.9623 727.473 32.7376 721.494 33.1587 C 699.111 34.7355 659.232 47.2598 642.684 62.4358 C 616.092 81.6786 597.689 109.37 592.467 142.012 C 587.707 170.733 594.257 200.182 610.744 224.177 C 609.608 234.93 609.491 245.766 610.393 256.542 C 612.612 280.696 622.299 310.275 600.208 328.474 C 585.65 340.468 557.634 341.265 555.201 364.855 C 552.99 386.299 570.141 400.151 588.41 405.734 C 583.178 455.539 587.203 497.746 620.108 537.639 C 670.575 598.824 742.016 606.484 813.962 586.289 C 815.39 609.028 816.47 638.929 818.894 661.127 C 773.53 685.575 724.329 824.578 709.116 875.322 C 694.359 925.361 682.272 976.149 672.907 1027.47 C 672.027 1032.12 667.764 1055.41 668.211 1059.15 C 662.909 1069.59 606.635 1091.3 594.986 1101.28 C 577.574 1109.91 559.801 1119.85 542.547 1129.07 C 520.902 1140.64 497.728 1152.42 476.484 1164.64 C 379.713 1136.93 308.715 1161.73 275.356 1261.75 C 269.262 1280.02 269.972 1293.82 290.958 1298.46 C 265.548 1366.13 243.013 1441.18 219.295 1509.99 C 209.072 1539.13 199.003 1568.32 189.088 1597.57 C 185.572 1607.91 178.31 1625.45 176.768 1635.45 C 170.776 1674.3 216.203 1699.03 243.285 1711.53 C 236.771 1730.49 229.935 1749.33 222.778 1768.05 C 209.27 1768.22 200.455 1770.45 191.252 1781.01 C 182.341 1791.24 174.261 1802.65 166.134 1813.51 C 156.617 1813.54 148.145 1813.82 138.693 1814.94 C 79.6914 1821.95 19.3253 1864.03 15.201 1927.53 C 13.1216 1928.99 9.92265 1931.08 8.16592 1932.75 C 3.02234 1939.47 3.63 1939.87 0 1947 L 0 0 z" fill="rgb(255,255,255)" transform="translate(0,0)"></path>
<path d="M 1331 1044.84 L 1331 2048 L 422.433 2048 C 437.156 2043.66 445.304 2039 452.575 2025.31 C 461.804 2004.49 456.047 1985.71 437.763 1972.81 C 437.874 1952.67 438.253 1932.53 438.902 1912.39 C 439.418 1892.17 446.295 1868.11 419.991 1867.85 C 424.599 1847.15 427.728 1826.13 432.532 1805.16 C 434.381 1796.11 439.674 1767.4 442.455 1760.04 C 444.759 1758.52 449.226 1758.41 452.172 1758.09 C 464.617 1758.15 479.815 1756.55 492.604 1755.78 C 493.797 1742.88 496.714 1725.79 498.549 1712.68 L 509.045 1635.99 C 515.995 1585.12 522.348 1528.62 530.441 1478.39 L 573.861 1478.3 C 570.083 1480.88 566.83 1483.12 563.614 1486.41 C 555.839 1494.2 551.53 1504.8 551.661 1515.81 C 552.177 1562.05 597.836 1556.71 629.732 1555.94 L 630.617 1553.85 C 652.078 1552.83 675.192 1553.33 696.769 1553.23 C 705.51 1553.19 728.2 1552.8 735.899 1553.83 L 1085.51 1553.89 L 1085.98 1556.1 C 1088.03 1563.86 1090.82 1577.19 1093.5 1584.01 C 1093.91 1584.01 1095.64 1583.94 1095.95 1584.08 C 1113.51 1584.08 1135.73 1586.46 1153.53 1587.74 C 1165 1588.56 1185.5 1589.89 1196.37 1591.83 L 1198.77 1591.87 C 1196.75 1584.69 1190.07 1562.57 1189.8 1556.22 C 1213.16 1555.82 1243.24 1561.74 1259.66 1542.01 C 1266.57 1533.61 1269.82 1522.79 1268.69 1511.98 C 1267.14 1497.4 1260.11 1488.99 1249.26 1480.27 C 1253.45 1451.83 1261.81 1415.91 1267.16 1386.78 L 1301.34 1202.35 C 1310.57 1153.47 1320.8 1102.02 1328.54 1052.98 C 1329.33 1049.71 1329.88 1048.01 1331 1044.84 z" fill="rgb(255,255,255)" transform="translate(0,0)"></path>
<path d="M 735.899 1553.83 L 1085.51 1553.89 L 1085.98 1556.1 C 1088.03 1563.86 1090.82 1577.19 1093.5 1584.01 C 1097.82 1604.7 1104.88 1628.57 1110.92 1649.05 C 1125.92 1699.92 1137.31 1753.41 1152.55 1804.04 L 1145.57 1804.18 C 1140.16 1805.53 1133.07 1805.14 1127.36 1805.09 L 1127.01 1805.91 L 1127.09 1806.05 C 1130.65 1810.84 1158.63 1873.9 1160.02 1880.49 C 1154.01 1879.86 1141.25 1880.34 1134.55 1880.37 L 1083.81 1880.5 L 919.496 1880.53 L 747.514 1880.43 L 691.709 1880.19 C 682.149 1880.14 668.312 1879.69 659.046 1880.58 L 658.534 1881.4 C 654.276 1882.1 643.426 1882.22 639.446 1880.49 C 647.687 1854.99 654.194 1827.84 662.255 1802.02 L 664.432 1803.12 C 682.967 1732.77 705.069 1662.1 723.668 1591.26 C 725.359 1585.37 732.074 1559.02 734.494 1556.08 L 735.899 1553.83 z" fill="rgb(255,255,255)" transform="translate(0,0)"></path>
<path d="M 689.871 1806.18 C 698.614 1807.5 729.407 1806.86 739.357 1806.86 L 839.315 1806.8 L 1047.61 1806.8 C 1059.54 1806.82 1119.25 1808.26 1127.09 1806.05 C 1130.65 1810.84 1158.63 1873.9 1160.02 1880.49 C 1154.01 1879.86 1141.25 1880.34 1134.55 1880.37 L 1083.81 1880.5 L 919.496 1880.53 L 747.514 1880.43 L 691.709 1880.19 C 682.149 1880.14 668.312 1879.69 659.046 1880.58 C 661.036 1873.55 667.836 1858.06 670.936 1850.73 C 677.092 1836.18 683.314 1820.47 689.871 1806.18 z" fill="rgb(154,96,49)" transform="translate(0,0)"></path>
<path d="M 662.255 1802.02 L 664.432 1803.12 L 667.736 1804.74 C 673.746 1806.46 735.64 1804.81 747.357 1805.22 C 735.511 1806.26 696.88 1804.12 689.871 1806.18 C 683.314 1820.47 677.092 1836.18 670.936 1850.73 C 667.836 1858.06 661.036 1873.55 659.046 1880.58 L 658.534 1881.4 C 654.276 1882.1 643.426 1882.22 639.446 1880.49 C 647.687 1854.99 654.194 1827.84 662.255 1802.02 z" fill="rgb(39,22,15)" transform="translate(0,0)"></path>
<path d="M 667.736 1804.74 C 676.265 1803.46 706.236 1804.04 716.024 1804.04 L 813.866 1804.02 L 1145.57 1804.18 C 1140.16 1805.53 1133.07 1805.14 1127.36 1805.09 L 1127.01 1805.91 L 1127.09 1806.05 C 1119.25 1808.26 1059.54 1806.82 1047.61 1806.8 L 839.315 1806.8 L 739.357 1806.86 C 729.407 1806.86 698.614 1807.5 689.871 1806.18 C 696.88 1804.12 735.511 1806.26 747.357 1805.22 C 735.64 1804.81 673.746 1806.46 667.736 1804.74 z" fill="rgb(62,37,19)" transform="translate(0,0)"></path>
<path d="M 735.899 1553.83 L 1085.51 1553.89 L 1085.98 1556.1 C 1047.9 1556.72 1007.86 1556.06 969.577 1556.06 L 734.494 1556.08 L 735.899 1553.83 z" fill="rgb(16,10,7)" transform="translate(0,0)"></path>
<path d="M 630.617 1553.85 C 652.078 1552.83 675.192 1553.33 696.769 1553.23 C 705.51 1553.19 728.2 1552.8 735.899 1553.83 L 734.494 1556.08 C 732.074 1559.02 725.359 1585.37 723.668 1591.26 C 705.069 1662.1 682.967 1732.77 664.432 1803.12 L 662.255 1802.02 C 654.194 1827.84 647.687 1854.99 639.446 1880.49 C 636.372 1895.75 629.041 1918.47 624.6 1934.61 C 615.805 1958.94 611.389 1994.1 600.28 2016.96 C 576.884 2065.13 504.118 2041.75 511.448 1988.48 C 513.397 1974.31 517.166 1963.14 521.061 1949.87 C 525.939 1933.46 530.675 1917.01 535.268 1900.52 C 552.053 1840.22 569.427 1777.19 587.063 1717.18 C 594.858 1690.67 602.455 1664.1 609.852 1637.48 C 613.361 1625.21 620.044 1604.33 622.318 1592.76 L 622.511 1591.76 L 620.969 1590.43 C 622.612 1584.03 629.711 1560.2 629.732 1555.94 L 630.617 1553.85 z" fill="rgb(182,113,62)" transform="translate(0,0)"></path>
<path d="M 630.617 1553.85 C 652.078 1552.83 675.192 1553.33 696.769 1553.23 C 705.51 1553.19 728.2 1552.8 735.899 1553.83 L 734.494 1556.08 C 732.074 1559.02 725.359 1585.37 723.668 1591.26 L 722.788 1585.72 L 722.238 1583.95 C 717.734 1583.21 626.576 1590.44 622.511 1591.76 L 620.969 1590.43 C 622.612 1584.03 629.711 1560.2 629.732 1555.94 L 630.617 1553.85 z" fill="rgb(39,22,15)" transform="translate(0,0)"></path>
<path d="M 722.788 1585.72 L 723.668 1591.26 C 705.069 1662.1 682.967 1732.77 664.432 1803.12 L 662.255 1802.02 L 722.788 1585.72 z" fill="rgb(39,22,15)" transform="translate(0,0)"></path>
<path d="M 1093.5 1584.01 C 1093.91 1584.01 1095.64 1583.94 1095.95 1584.08 C 1113.51 1584.08 1135.73 1586.46 1153.53 1587.74 C 1165 1588.56 1185.5 1589.89 1196.37 1591.83 L 1270.92 1866.85 L 1291.32 1941.98 C 1298.01 1966.65 1310.29 1995.73 1296.35 2019.38 C 1289.75 2030.76 1278.91 2039.06 1266.2 2042.45 C 1254.62 2045.4 1242.34 2043.61 1232.08 2037.47 C 1224.99 2033.21 1219.21 2027.07 1215.39 2019.74 C 1209.63 2008.8 1203.3 1983.04 1199.89 1970.4 C 1192.96 1943.95 1185.86 1917.55 1178.6 1891.19 L 1176.94 1892.98 C 1174.43 1885.66 1175.79 1882.88 1168.03 1882.11 C 1164.98 1881.85 1161.66 1882.23 1160.02 1880.49 C 1158.63 1873.9 1130.65 1810.84 1127.09 1806.05 L 1127.01 1805.91 L 1127.36 1805.09 C 1133.07 1805.14 1140.16 1805.53 1145.57 1804.18 L 1152.55 1804.04 C 1137.31 1753.41 1125.92 1699.92 1110.92 1649.05 C 1104.88 1628.57 1097.82 1604.7 1093.5 1584.01 z" fill="rgb(182,113,62)" transform="translate(0,0)"></path>
<path d="M 1152.55 1804.04 L 1155.43 1806.05 C 1163.31 1829.15 1168.47 1854.27 1175.18 1877.82 C 1176.38 1882.04 1177.73 1886.95 1178.6 1891.19 L 1176.94 1892.98 C 1174.43 1885.66 1175.79 1882.88 1168.03 1882.11 C 1164.98 1881.85 1161.66 1882.23 1160.02 1880.49 C 1158.63 1873.9 1130.65 1810.84 1127.09 1806.05 L 1127.01 1805.91 L 1127.36 1805.09 C 1133.07 1805.14 1140.16 1805.53 1145.57 1804.18 L 1152.55 1804.04 z" fill="rgb(39,22,15)" transform="translate(0,0)"></path>
<path d="M 1093.5 1584.01 C 1093.91 1584.01 1095.64 1583.94 1095.95 1584.08 L 1136.44 1734.17 C 1141.4 1752.68 1152.13 1788.31 1155.43 1806.05 L 1152.55 1804.04 C 1137.31 1753.41 1125.92 1699.92 1110.92 1649.05 C 1104.88 1628.57 1097.82 1604.7 1093.5 1584.01 z" fill="rgb(39,22,15)" transform="translate(0,0)"></path>
<path d="M 620.969 1590.43 L 622.511 1591.76 L 622.318 1592.76 C 620.044 1604.33 613.361 1625.21 609.852 1637.48 C 602.455 1664.1 594.858 1690.67 587.063 1717.18 C 569.427 1777.19 552.053 1840.22 535.268 1900.52 C 530.675 1917.01 525.939 1933.46 521.061 1949.87 C 517.166 1963.14 513.397 1974.31 511.448 1988.48 C 504.118 2041.75 576.884 2065.13 600.28 2016.96 C 611.389 1994.1 615.805 1958.94 624.6 1934.61 C 629.041 1918.47 636.372 1895.75 639.446 1880.49 C 643.426 1882.22 654.276 1882.1 658.534 1881.4 L 659.046 1880.58 C 668.312 1879.69 682.149 1880.14 691.709 1880.19 L 747.514 1880.43 L 919.496 1880.53 L 1083.81 1880.5 L 1134.55 1880.37 C 1141.25 1880.34 1154.01 1879.86 1160.02 1880.49 C 1161.66 1882.23 1164.98 1881.85 1168.03 1882.11 C 1159.63 1883.55 1126.48 1883.01 1116.49 1883 L 1017.83 1883.07 L 641.845 1882.75 L 608.583 2001.74 C 607.031 2007.15 605.429 2011.91 603.085 2017 C 585.556 2055.14 533.321 2055.56 514.055 2018.52 C 503.96 1999.12 508.72 1984.81 514.014 1965.21 C 517.535 1952.17 521.492 1939.05 525.297 1926.07 L 548.544 1843.82 L 592.555 1688.55 C 601.725 1656.08 610.768 1622.48 620.969 1590.43 z" fill="rgb(62,37,19)" transform="translate(0,0)"></path>
<path d="M 1198.77 1591.87 L 1273.51 1867.65 L 1293.65 1941.25 C 1300.66 1966.78 1312.61 1995.98 1298.63 2020.87 C 1292.07 2032.59 1281.08 2041.17 1268.12 2044.7 C 1255.36 2048.09 1241.77 2046.15 1230.46 2039.33 C 1214.48 2029.65 1209.17 2014.65 1204.77 1997.45 C 1195.85 1962.61 1185.51 1927.87 1176.94 1892.98 L 1178.6 1891.19 C 1185.86 1917.55 1192.96 1943.95 1199.89 1970.4 C 1203.3 1983.04 1209.63 2008.8 1215.39 2019.74 C 1219.21 2027.07 1224.99 2033.21 1232.08 2037.47 C 1242.34 2043.61 1254.62 2045.4 1266.2 2042.45 C 1278.91 2039.06 1289.75 2030.76 1296.35 2019.38 C 1310.29 1995.73 1298.01 1966.65 1291.32 1941.98 L 1270.92 1866.85 L 1196.37 1591.83 L 1198.77 1591.87 z" fill="rgb(39,22,15)" transform="translate(0,0)"></path>
<path d="M 923.864 0 L 1331 0 L 1331 1043.31 C 1329.76 1037.64 1329.49 1034.4 1327.42 1028.74 C 1322 1017.27 1315.19 1008.95 1302.79 1004.59 C 1292.71 1001.05 1281.62 1001.75 1272.07 1006.55 C 1262.87 1011.13 1255.91 1019.25 1252.8 1029.06 C 1248.94 1041.04 1245.34 1066.36 1242.81 1079.98 C 1236.19 1114.01 1229.77 1148.08 1223.57 1182.19 C 1211.77 1242.8 1200.38 1303.49 1189.38 1364.26 C 1182.49 1400.88 1174.6 1439.05 1168.98 1475.74 C 1131.45 1475.22 1093.9 1475 1056.36 1475.08 C 1035.4 1475.05 1010.71 1474.44 990.084 1475.29 L 988.236 1472.28 C 1008.47 1465.23 1029.69 1453.1 1046.48 1439.84 C 1097.2 1399.04 1129.56 1339.7 1136.38 1274.96 C 1147.82 1270.5 1159.12 1264.92 1170.23 1259.64 C 1164.14 1180.57 1155.94 1101.68 1145.63 1023.05 C 1131.12 915.324 1095.15 665.784 988.572 613.597 L 985.51 611.661 C 1001.67 598.666 1010.76 585.219 1018.27 566.051 C 1030.08 591.623 1041.98 608.595 1069.68 619.442 C 1097.71 629.26 1118.69 627.604 1146.49 619.603 C 1114.01 606.974 1096.26 588.191 1091.52 553.026 C 1092.12 550.304 1092.41 548.882 1093.38 546.248 C 1100.17 561.4 1107.09 572.443 1120.67 582.785 C 1135.15 596.928 1174.28 607.597 1193.41 602.12 C 1198.94 597.362 1205.63 597.816 1212.09 594.99 C 1217.78 592.495 1223.57 589.839 1229.25 587.297 C 1222.5 585.845 1197.24 580.271 1196.22 572.363 C 1189.27 564.583 1179.62 557.474 1174.32 547.068 C 1152.26 503.694 1156.7 452.474 1169.41 407.247 C 1175.82 384.411 1183.92 363.389 1188.49 341.276 C 1193.49 316.441 1194.81 291.006 1192.4 265.788 C 1191.54 256.545 1189.47 234.954 1186.41 227.184 C 1184.73 225.639 1169.73 176.554 1167.91 171.624 C 1155.58 138.325 1130.41 105.441 1107.41 82.2459 C 1096.66 71.4051 1052.76 37.0799 1053.19 38.5098 C 1051.71 36.8261 1040.52 31.1731 1037.93 29.9549 C 1012.94 18.2227 985.433 9.27972 958.22 4.59589 C 946.862 2.64095 935.29 1.79244 923.864 0 z" fill="rgb(255,255,255)" transform="translate(0,0)"></path>
<path d="M 1053.19 38.5098 C 1106.12 62.7925 1155.64 128.255 1174.02 182.14 C 1178.09 194.051 1185.46 214.725 1186.41 227.184 C 1184.73 225.639 1169.73 176.554 1167.91 171.624 C 1155.58 138.325 1130.41 105.441 1107.41 82.2459 C 1096.66 71.4051 1052.76 37.0799 1053.19 38.5098 z" fill="rgb(62,37,19)" transform="translate(0,0)"></path>
<path d="M 1196.22 572.363 C 1213.89 581.911 1216.89 583.669 1237.46 584.245 C 1223.42 593.66 1210.4 600.157 1193.41 602.12 C 1198.94 597.362 1205.63 597.816 1212.09 594.99 C 1217.78 592.495 1223.57 589.839 1229.25 587.297 C 1222.5 585.845 1197.24 580.271 1196.22 572.363 z" fill="rgb(39,22,15)" transform="translate(0,0)"></path>
<path d="M 874.306 0 L 923.864 0 C 935.29 1.79244 946.862 2.64095 958.22 4.59589 C 985.433 9.27972 1012.94 18.2227 1037.93 29.9549 C 1040.52 31.1731 1051.71 36.8261 1053.19 38.5098 C 1052.76 37.0799 1096.66 71.4051 1107.41 82.2459 C 1130.41 105.441 1155.58 138.325 1167.91 171.624 C 1169.73 176.554 1184.73 225.639 1186.41 227.184 C 1189.47 234.954 1191.54 256.545 1192.4 265.788 C 1194.81 291.006 1193.49 316.441 1188.49 341.276 C 1183.92 363.389 1175.82 384.411 1169.41 407.247 C 1156.7 452.474 1152.26 503.694 1174.32 547.068 C 1179.62 557.474 1189.27 564.583 1196.22 572.363 C 1197.24 580.271 1222.5 585.845 1229.25 587.297 C 1223.57 589.839 1217.78 592.495 1212.09 594.99 C 1205.63 597.816 1198.94 597.362 1193.41 602.12 C 1174.28 607.597 1135.15 596.928 1120.67 582.785 C 1107.09 572.443 1100.17 561.4 1093.38 546.248 C 1092.41 548.882 1092.12 550.304 1091.52 553.026 C 1096.26 588.191 1114.01 606.974 1146.49 619.603 C 1118.69 627.604 1097.71 629.26 1069.68 619.442 L 1070.24 617.615 C 1048.3 609.609 1034.52 592.332 1023.79 571.677 C 1020.96 566.223 1021.46 559.268 1019.11 555.438 C 1016.46 558.126 1013.62 571.81 1011.21 576.697 C 996.106 607.372 963.545 626.845 929.479 628.262 C 963.949 606.071 965.321 571.457 951.16 536.306 C 950.538 544.039 948.8 552.812 946.56 560.175 C 936.249 594.08 900.021 616.286 865.521 616.379 C 853.957 616.41 843.266 614.616 831.907 612.678 C 875.92 599.141 896.125 564.991 903.405 521.345 C 908.203 492.579 904.297 462.666 886.372 438.685 C 928.662 442.815 959.846 414.236 980.068 380.125 C 1009.68 330.184 992.072 251.966 920.146 271.804 C 884.345 281.679 869.94 325.594 854.801 355.451 C 853.427 354.709 852.305 345.719 851.888 343.498 C 846.62 315.478 835.475 291.982 814.251 272.613 C 784.433 245.4 742.266 238.8 716.584 206.91 C 693.891 178.731 688.749 150.698 692.397 115.76 C 644.512 133.333 620.952 172.448 611.799 220.417 C 589.908 189.145 586.969 147.106 603.675 113.315 C 612.146 96.1824 616.713 88.6421 631.712 75.5069 C 634.735 72.8592 641.575 65.7752 642.684 62.4358 C 659.232 47.2598 699.111 34.7355 721.494 33.1587 C 727.473 32.7376 744.108 33.9623 748.146 32.4455 C 764.687 26.2325 779.329 19.8108 796.339 14.1865 C 824.035 5.02908 846.655 4.15531 874.306 0 z" fill="rgb(88,54,21)" transform="translate(0,0)"></path>
<path d="M 1138.17 619.07 C 1096.44 595.754 1084.57 572.719 1090.38 525.022 C 1094.29 541.38 1098 551.432 1107.13 565.867 C 1110.91 571.832 1119.67 577.799 1120.67 582.785 C 1107.09 572.443 1100.17 561.4 1093.38 546.248 C 1092.41 548.882 1092.12 550.304 1091.52 553.026 C 1096.26 588.191 1114.01 606.974 1146.49 619.603 C 1118.69 627.604 1097.71 629.26 1069.68 619.442 L 1070.24 617.615 C 1085.56 622.4 1093.02 624.502 1109.56 623.931 C 1113.25 623.372 1114.87 623.038 1118.69 623.055 C 1120.59 624.086 1135.27 619.848 1138.17 619.07 z" fill="rgb(39,22,15)" transform="translate(0,0)"></path>
<path d="M 1091.52 553.026 C 1091.36 551.617 1090.25 543.228 1091.56 542.544 C 1092.58 543.005 1093.11 545.363 1093.38 546.248 C 1092.41 548.882 1092.12 550.304 1091.52 553.026 z" fill="rgb(212,211,211)" transform="translate(0,0)"></path>
<path d="M 1109.56 623.931 C 1113.25 623.372 1114.87 623.038 1118.69 623.055 C 1114.44 624.238 1113.93 624.022 1109.56 623.931 z" fill="rgb(62,37,19)" transform="translate(0,0)"></path>
<path d="M 381.735 1375.01 C 387.272 1386.15 401.528 1390.53 411.454 1383.73 C 428.604 1371.99 425.122 1344.05 449.116 1335.01 C 478.646 1319.48 493.186 1328.93 522.796 1321.91 C 541.288 1317.52 553.251 1302.87 570.055 1298.14 C 589.571 1292.64 609.881 1287.87 629.584 1282.97 C 670.7 1272.91 711.762 1262.62 752.768 1252.11 C 776.898 1263.16 800.305 1269.91 825.775 1276.98 C 921.075 1303.43 1033.74 1312.74 1127.92 1277.75 C 1129.96 1276.99 1131.99 1276.22 1134.02 1275.42 C 1123.97 1342.41 1095.76 1399.43 1040.59 1441.1 C 1021 1455.89 994.159 1470.23 969.809 1474.2 C 953.653 1476.83 930.432 1475.87 913.391 1475.79 L 828.462 1475.63 L 528.137 1475.99 C 515.849 1567.1 504.295 1662.9 490.196 1753.3 C 473.792 1754.42 457.374 1755.34 440.947 1756.05 C 419.489 1754.86 399.862 1754.78 378.297 1752.4 C 352.598 1749.56 331.424 1744.63 306.625 1738.37 C 278.237 1727.62 246.096 1714.2 231.896 1685.09 C 222.029 1664.85 231.525 1646.85 238.256 1627.09 L 257.31 1571.23 L 329.668 1358.49 C 341.289 1369.7 345.357 1360.08 353.413 1377.07 C 358.362 1387.5 373.728 1381.11 381.735 1375.01 z" fill="rgb(105,172,210)" transform="translate(0,0)"></path>
<path d="M 807.565 684.096 C 817.641 709.11 867.434 697.04 886.576 688.308 C 922.381 671.976 960.208 643.331 989.584 616.99 C 1125.93 687.804 1148.07 1078.89 1164.5 1217.09 C 1165.88 1228.7 1166.92 1245.75 1167.52 1257.79 C 1153.5 1264.58 1141.32 1270.56 1126.48 1275.73 C 1012.21 1315.59 887.652 1297.05 775.726 1258.62 C 769.538 1256.49 762.144 1253.76 756.258 1250.98 C 784.597 1244.65 810.213 1240.58 836.437 1227.32 C 882.064 1204.24 904.433 1166.15 920.972 1119.51 C 924.125 1110.62 929.657 1101.11 932.797 1092.02 C 939.749 1081.86 949.938 1046.89 956.881 1034.44 C 967.6 1038.35 981.034 1042.84 991.311 1047.33 C 1003.24 1002.4 1014.65 957.326 1025.55 912.131 C 1032.56 883.847 1045.39 841.462 1045.34 813.824 C 1045.28 796.257 1040.61 779.013 1031.79 763.816 C 1018.54 741.189 996.86 724.729 971.504 718.031 C 945.317 711.263 915.728 715.051 892.484 729.026 C 880.621 736.172 870.369 745.699 862.375 757.007 C 851.944 772.022 839.301 802.698 831.206 820.498 L 791.315 906.956 C 782.957 925.455 773.734 948.164 764.544 965.836 C 778.499 970.183 792.271 975.095 805.827 980.559 C 793.71 1017.46 778.921 1054.31 765.634 1090.95 L 693.829 1128.05 C 686.483 1131.86 663.84 1144.07 657.123 1146.32 L 655.725 1147.31 C 648.205 1133.53 610.691 1110.94 594.832 1104.66 L 594.986 1101.28 C 606.635 1091.3 662.909 1069.59 668.211 1059.15 L 669.85 1059.9 C 674.693 1034.48 679.058 1008.08 684.459 982.786 C 703.627 893.005 744.641 749.744 802.744 678.024 C 808.254 679.608 805.39 677.732 807.565 684.096 z" fill="rgb(253,178,12)" transform="translate(0,0)"></path>
<path d="M 668.211 1059.15 L 669.85 1059.9 C 665.301 1088.78 661.574 1117.57 657.123 1146.32 L 655.725 1147.31 C 648.205 1133.53 610.691 1110.94 594.832 1104.66 L 594.986 1101.28 C 606.635 1091.3 662.909 1069.59 668.211 1059.15 z" fill="rgb(39,22,15)" transform="translate(0,0)"></path>
<path d="M 592.104 403.848 C 572.35 398.517 552.222 383.731 559.289 359.767 C 564.27 345.074 581.972 342.263 593.524 336.438 C 629.953 318.067 612.992 276.407 612.345 246.774 C 611.857 228.565 614.796 210.427 621.009 193.304 C 633.314 158.724 655.915 135.224 688.972 119.52 C 688.372 129.137 688.061 138.163 689.055 147.761 C 690.806 163.828 695.832 179.365 703.824 193.413 C 730.71 240.494 769.016 239.689 807.912 271.072 C 841.238 297.96 848.168 329.304 852.161 369.212 C 869.535 330.473 889.623 267.969 942.612 271.305 C 978.219 274.133 994.154 301.824 991.014 335.5 C 987.08 377.698 957.804 416.476 918.871 432.755 C 907.167 437.649 897.868 437.476 885.636 436.502 C 881.26 432.237 879.201 429.921 873.919 426.975 C 873.976 428.795 886.625 443.611 888.856 447.287 C 918.051 495.38 899.651 574.002 850.904 602.738 C 844.078 606.762 832.938 609.758 825.174 612.022 C 829.035 613.547 834.008 615.106 838.001 616.139 C 863.716 622.881 891.067 618.883 913.776 605.063 C 938.137 590.23 946.348 572.806 952.716 546.674 C 963.906 584.703 954.686 610.745 920.819 630.975 C 949.45 629.807 961.052 627.263 985.51 611.661 L 988.572 613.597 L 987.933 614.298 C 982.331 620.359 966.639 632.969 959.414 638.618 C 927.265 663.753 886.109 694.487 843.579 695.816 C 834.376 696.048 820.191 695.405 813.145 688.501 C 805.22 680.735 816.447 671.122 821.855 666.467 C 819.486 646.626 817.083 602.109 816.772 582.024 C 808.27 584.926 799.614 587.357 790.844 589.305 C 745.088 599.223 697.66 593.764 657.875 568.067 C 624.547 546.86 601.117 513.171 592.834 474.546 C 631.613 502.219 658.099 464.028 649.726 452.532 C 646.927 455.407 648.01 466.274 641.201 473.132 C 625.929 488.515 607.065 482.989 592.341 470.185 C 586.888 452.003 588.453 422.417 592.104 403.848 z" fill="rgb(209,146,120)" transform="translate(0,0)"></path>
<path d="M 936.837 303.176 C 944.976 302.965 952.231 304.294 958.581 309.825 C 963.107 313.702 965.856 319.256 966.196 325.206 L 965.209 325.98 C 962.47 322.663 962.771 320.396 960.822 317.648 C 940.768 289.368 913.49 315.814 904.962 336.05 C 933.485 346.452 936.171 376.823 904.24 382.317 C 900.852 382.171 896.43 381.577 892.96 381.201 C 892.211 386.249 889.115 401.604 886.903 405.688 C 884.663 401.235 888.217 390.013 889.473 385.142 C 889.872 383.593 890.6 380.08 891.575 378.805 C 892.271 377.896 909.801 380.086 916.164 375.971 C 920.812 372.964 923.206 367.824 924.125 362.527 C 924.917 357.953 924.295 353.641 921.463 349.844 C 917.341 344.318 910.424 341.391 903.764 340.514 L 902.753 340.388 L 901.813 339.167 C 899.52 328.398 918.026 310.811 927.102 306.238 C 929.915 304.821 933.753 303.888 936.837 303.176 z" fill="rgb(16,10,7)" transform="translate(0,0)"></path>
<path d="M 811.796 979.353 C 847.376 992.602 883.065 1005.55 918.86 1018.21 C 925.785 1020.72 952.969 1029.66 957.798 1032.34 L 956.114 1033.6 L 956.881 1034.44 C 949.938 1046.89 939.749 1081.86 932.797 1092.02 L 931.619 1089.88 L 930.182 1090.7 C 928.253 1096.71 922.866 1108.45 920.25 1114.7 C 915.308 1126.48 910.384 1139.28 905.192 1150.84 C 891.592 1181.4 868.445 1206.72 839.228 1222.99 C 814.746 1236.63 793.709 1239.08 766.934 1245.92 L 635.614 1278.68 C 612.533 1284.34 585.977 1290.15 563.668 1297.31 C 552.799 1300.79 538.04 1316.12 521.795 1319.39 C 488.892 1326.03 470.523 1315.84 439.445 1338.03 C 422.168 1347.86 425.473 1369.28 412.032 1379.7 C 407.595 1384.75 386.251 1384.94 385.351 1377.48 C 382.664 1355.25 404.176 1318.48 422.018 1307 C 429.442 1302.22 438.032 1298.66 443.704 1295.75 L 443.498 1294.68 C 439.352 1294.4 434.97 1296.83 431.287 1298.6 C 402.647 1312.37 387.456 1342.77 381.486 1372.4 C 373.907 1378.21 364.003 1382.16 354.895 1375.51 C 352.854 1374.03 350.922 1369.29 351.154 1366.72 C 354.224 1332.65 374.165 1294.94 403.923 1277.07 C 410.636 1273.22 427.684 1269.87 430.828 1266.28 C 426.831 1264.35 410.687 1270.86 406.555 1272.88 C 380.243 1285.79 363.029 1313.48 353.643 1340.39 C 351.223 1347.32 350.888 1354.74 348.473 1361.91 C 346.891 1362.92 345.914 1363.94 343.855 1363.46 C 322.635 1358.5 330.952 1339.36 335.787 1324.92 C 347.674 1289.43 371.174 1255.65 407.848 1242.84 C 412.04 1241.38 422.239 1239.34 425.075 1237.09 L 424.077 1235.74 C 417.225 1235.9 403.352 1241.31 397.207 1244.22 C 370.577 1256.82 352.115 1280.86 339.939 1307.02 C 337.711 1311.8 334.745 1322.8 331.634 1324.88 C 314.345 1308.05 361.983 1250.58 378.608 1239.28 C 431.196 1203.51 480.211 1200.5 540.559 1209.75 C 561.427 1198.73 583.501 1188.03 604.672 1177.01 C 658.964 1148.64 713.42 1120.57 768.039 1092.83 C 772.756 1075.83 785.342 1047.31 791.433 1029.49 C 794.919 1019.28 804.744 990.823 808.671 982.848 L 811.121 982.078 L 811.796 979.353 z" fill="rgb(209,146,120)" transform="translate(0,0)"></path>
<path d="M 811.796 979.353 C 847.376 992.602 883.065 1005.55 918.86 1018.21 C 925.785 1020.72 952.969 1029.66 957.798 1032.34 L 956.114 1033.6 L 956.881 1034.44 C 949.938 1046.89 939.749 1081.86 932.797 1092.02 L 931.619 1089.88 L 930.182 1090.7 C 907.282 1054.89 848.001 1005.02 811.121 982.078 L 811.796 979.353 z" fill="rgb(39,22,15)" transform="translate(0,0)"></path>
<path d="M 768.381 964.262 C 778.121 944.209 786.734 923.649 795.929 903.326 L 833.962 820.921 C 842.6 802.174 855.434 769.879 867.412 754.611 C 879.136 739.835 894.827 728.704 912.649 722.522 C 937.376 714.127 966.556 715.861 989.878 727.644 C 1012.74 739.367 1030.04 759.666 1037.98 784.103 C 1050.73 823.324 1032.18 875.197 1022.29 914.36 C 1011.82 957.52 1000.88 1000.56 989.468 1043.48 C 979.152 1039.84 968.138 1035.7 957.798 1032.34 C 952.969 1029.66 925.785 1020.72 918.86 1018.21 C 883.065 1005.55 847.376 992.602 811.796 979.353 C 797.553 974.272 782.774 968.748 768.381 964.262 z" fill="rgb(253,178,12)" transform="translate(0,0)"></path>
<path d="M 572.03 1482.55 C 577.149 1480.02 580.492 1478.35 586.253 1478.3 C 625.434 1477.99 664.921 1478.1 704.101 1478.1 L 942.334 1478.2 L 1166.07 1477.98 C 1180.29 1478.04 1195.15 1478.12 1209.13 1478 C 1231.52 1477.73 1251.21 1474.86 1262.34 1498.88 C 1265.26 1505.18 1267.06 1511.61 1266.45 1518.51 C 1262.71 1561.35 1216.22 1554 1189.38 1553.91 L 1189.8 1556.22 C 1190.07 1562.57 1196.75 1584.69 1198.77 1591.87 L 1196.37 1591.83 C 1185.5 1589.89 1165 1588.56 1153.53 1587.74 C 1135.73 1586.46 1113.51 1584.08 1095.95 1584.08 C 1095.64 1583.94 1093.91 1584.01 1093.5 1584.01 C 1090.82 1577.19 1088.03 1563.86 1085.98 1556.1 L 1085.51 1553.89 L 735.899 1553.83 C 728.2 1552.8 705.51 1553.19 696.769 1553.23 C 675.192 1553.33 652.078 1552.83 630.617 1553.85 C 618.239 1553.95 605.493 1554.41 593.148 1553.84 C 553.312 1551.97 540.015 1509.24 570.806 1483.51 C 571.341 1482.98 571.39 1482.94 572.03 1482.55 z" fill="rgb(182,113,62)" transform="translate(0,0)"></path>
<path d="M 1085.51 1553.89 C 1120.13 1553.39 1154.76 1553.4 1189.38 1553.91 L 1189.8 1556.22 C 1190.07 1562.57 1196.75 1584.69 1198.77 1591.87 L 1196.37 1591.83 C 1185.5 1589.89 1165 1588.56 1153.53 1587.74 C 1135.73 1586.46 1113.51 1584.08 1095.95 1584.08 C 1095.64 1583.94 1093.91 1584.01 1093.5 1584.01 C 1090.82 1577.19 1088.03 1563.86 1085.98 1556.1 L 1085.51 1553.89 z" fill="rgb(39,22,15)" transform="translate(0,0)"></path>
<path d="M 1171.36 1475.93 C 1176.97 1440.6 1184.02 1405.74 1190.59 1370.6 L 1227.49 1173.68 L 1245.33 1079.77 C 1248.06 1065.04 1250.83 1050.28 1253.7 1035.57 C 1256.31 1022.16 1264.26 1011.62 1277.48 1006.8 C 1286.9 1003.47 1297.27 1004.08 1306.24 1008.49 C 1317.07 1013.81 1323 1023.25 1326.77 1034.31 L 1327.42 1028.74 C 1329.49 1034.4 1329.76 1037.64 1331 1043.31 L 1331 1044.84 C 1329.88 1048.01 1329.33 1049.71 1328.54 1052.98 L 1326.4 1053 L 1247.33 1478.88 C 1232.99 1473.54 1188.93 1475.86 1171.36 1475.93 z" fill="rgb(182,113,62)" transform="translate(0,0)"></path>
<path d="M 1326.77 1034.31 L 1327.42 1028.74 C 1329.49 1034.4 1329.76 1037.64 1331 1043.31 L 1331 1044.84 C 1329.88 1048.01 1329.33 1049.71 1328.54 1052.98 L 1326.4 1053 C 1328 1042.23 1328.11 1044.72 1326.77 1034.31 z" fill="rgb(39,22,15)" transform="translate(0,0)"></path>
<path d="M 72.3895 2043.16 C 43.1733 2030.39 37.4575 1996.25 65.2351 1977.23 C 70.3421 1973.74 75.1244 1973.09 81.3547 1972.98 C 102.928 1972.62 124.576 1972.88 146.177 1972.86 L 281.789 1972.85 L 376.547 1972.88 C 394.358 1972.88 417.188 1971.93 434.799 1974.79 C 439.205 1975.5 446.17 1982.49 448.452 1986.67 C 454.809 1998.3 455.043 2007.4 451.883 2019.78 L 452.575 2025.31 C 445.304 2039 437.156 2043.66 422.433 2048 L 394.005 2048 C 393.862 2047.45 393.305 2046.75 392.95 2046.22 L 379.481 2045.11 L 171.694 2044.88 L 116.466 2045.01 C 102.17 2045.05 86.2964 2045.82 72.3895 2043.16 z" fill="rgb(240,124,69)" transform="translate(0,0)"></path>
<path d="M 451.883 2019.78 L 452.575 2025.31 C 445.304 2039 437.156 2043.66 422.433 2048 L 394.005 2048 C 393.862 2047.45 393.305 2046.75 392.95 2046.22 L 379.481 2045.11 C 409.751 2042.82 436.454 2054.47 451.883 2019.78 z" fill="url(#Gradient2)" transform="translate(0,0)"></path>
<path d="M 594.832 1104.66 C 610.691 1110.94 648.205 1133.53 655.725 1147.31 C 617.201 1166.35 578.836 1187.29 540.212 1206.69 C 500.588 1201.33 465.035 1198.64 426.489 1212.09 C 409.978 1217.85 395.868 1225.46 378.814 1229.71 C 363.078 1233.63 346.394 1257.14 340.716 1271.23 C 337.393 1279.47 334.977 1287.99 330.763 1296.51 C 315.518 1307.35 296.829 1303.54 302.099 1282.62 C 310.612 1248.84 332.228 1212.49 368.064 1203.46 C 371.791 1202.52 377.123 1202.03 380.313 1200.05 L 379.986 1198.91 C 369.193 1197.98 353.405 1205.04 344.466 1211.2 C 320.627 1227.62 303.812 1257.04 299.333 1285.49 C 297.361 1298.02 281.761 1297.15 276.753 1287.63 C 273.969 1282.34 275.506 1274.7 276.534 1269.17 C 284.713 1230.83 310.379 1195.45 346.738 1179.52 C 355.631 1175.62 365.212 1174.58 373.851 1170.46 L 373.663 1169.59 C 358.457 1169.85 340.632 1178.08 328.435 1186.8 C 325.536 1188.87 319.947 1193.59 317.009 1194.45 C 318.739 1191.11 322.402 1188.1 325.248 1185.57 C 366.227 1149.11 428.135 1151.63 476.804 1167.98 C 493.171 1157.27 520.028 1144.09 538.036 1134.41 C 553.294 1126.2 579.506 1111.2 594.832 1104.66 z" fill="rgb(209,146,120)" transform="translate(0,0)"></path>
<path d="M 306.625 1738.37 C 331.424 1744.63 352.598 1749.56 378.297 1752.4 C 399.862 1754.78 419.489 1754.86 440.947 1756.05 C 444.487 1758.06 448.007 1757.83 452.172 1758.09 C 449.226 1758.41 444.759 1758.52 442.455 1760.04 C 439.674 1767.4 434.381 1796.11 432.532 1805.16 L 429.599 1804.69 C 424.903 1805.6 391.126 1802.46 384.803 1801.95 L 285.878 1794.11 C 288.023 1787.25 300.597 1745.67 303.084 1741.39 L 306.625 1738.37 z" fill="rgb(209,146,120)" transform="translate(0,0)"></path>
<path d="M 306.625 1738.37 C 331.424 1744.63 352.598 1749.56 378.297 1752.4 C 399.862 1754.78 419.489 1754.86 440.947 1756.05 C 444.487 1758.06 448.007 1757.83 452.172 1758.09 C 449.226 1758.41 444.759 1758.52 442.455 1760.04 C 439.674 1767.4 434.381 1796.11 432.532 1805.16 L 429.599 1804.69 L 434.26 1782.11 C 389.514 1774.11 343.155 1763.48 303.084 1741.39 L 306.625 1738.37 z" fill="rgb(39,22,15)" transform="translate(0,0)"></path>
<path d="M 9.39874 1935.28 C 17.2415 1927.39 22.5391 1926.99 33.8352 1926.87 C 53.3696 1926.66 73.1905 1927.4 92.7147 1927.05 C 83.2748 1939.11 74.7586 1954.53 71.2868 1970.11 C 71.1352 1970.8 59.829 1977.52 57.3351 1979.44 C 44.9365 1980.09 28.5401 1980.38 16.0321 1979.72 C 9.55467 1975.51 8.16768 1973.9 4.71153 1966.97 L 2.34864 1967.44 C 1.66643 1964.51 0.868854 1962.5 0 1959.67 L 0 1948.93 L 0 1947 C 3.63 1939.87 3.02234 1939.47 8.16592 1932.75 L 9.39874 1935.28 z" fill="rgb(182,113,62)" transform="translate(0,0)"></path>
<path d="M 0 1947 C 3.63 1939.87 3.02234 1939.47 8.16592 1932.75 L 9.39874 1935.28 L 9.0578 1935.82 C 2.27182 1946.39 2.73066 1947.01 2.7031 1959.18 C 3.19767 1962.17 4.00939 1964.09 4.71153 1966.97 L 2.34864 1967.44 C 1.66643 1964.51 0.868854 1962.5 0 1959.67 L 0 1948.93 L 0 1947 z" fill="url(#Gradient1)" transform="translate(0,0)"></path>
<path d="M 0 1948.93 C 3.24447 1949.79 1.98978 1955.1 2.7031 1959.18 C 3.19767 1962.17 4.00939 1964.09 4.71153 1966.97 L 2.34864 1967.44 C 1.66643 1964.51 0.868854 1962.5 0 1959.67 L 0 1948.93 z" fill="rgb(39,22,15)" transform="translate(0,0)"></path>
<path d="M 0 1959.67 C 0.868854 1962.5 1.66643 1964.51 2.34864 1967.44 C 11.9686 1988.74 32.8558 1983.36 53.268 1983.22 C 40.2853 2004.61 42.3594 2032.11 67.0122 2043.37 C 72.417 2045.82 74.7039 2046.49 80.4891 2048 L 0 2048 L 0 1959.67 z" fill="rgb(255,255,255)" transform="translate(0,0)"></path>
<path d="M 808.984 671.44 L 810.213 674.229 C 808.382 678.039 808.173 679.939 807.565 684.096 C 805.39 677.732 808.254 679.608 802.744 678.024 C 804.873 675.6 806.734 673.718 808.984 671.44 z" fill="rgb(250,160,6)" transform="translate(0,0)"></path>
<path d="M 808.984 671.44 C 809.57 670.896 819.275 662.212 818.359 666.217 C 818.253 666.678 811.328 673.102 810.213 674.229 L 808.984 671.44 z" fill="rgb(182,113,62)" transform="translate(0,0)"></path>
<path d="M 990.084 1475.29 C 989.284 1475.26 983.538 1475.29 983.501 1474.34 C 984.208 1473.18 986.972 1472.71 988.236 1472.28 L 990.084 1475.29 z" fill="rgb(212,211,211)" transform="translate(0,0)"></path>
<path d="M 226.873 1871.9 C 238.977 1859.41 247.369 1839.31 262.722 1829.65 C 274.915 1821.98 294.827 1828.57 301.699 1840.49 C 310.809 1856.3 300.244 1883.28 295.75 1899.66 C 289.109 1905.2 280.009 1912.34 274.717 1918.86 C 280.035 1918.46 293.85 1902.67 300.199 1901.09 C 341.086 1890.95 382.661 1878.77 424.041 1871.36 C 439.408 1868.6 436.972 1889.66 436.841 1899.58 C 437.459 1906.52 437.964 1918 436.176 1924.6 L 434.998 1971.09 C 424.654 1969.5 403.472 1969.99 392.18 1969.98 L 320.244 1969.94 C 238.688 1969.92 155.47 1969.19 74.0259 1970.21 C 82.61 1929.45 120.448 1898.14 157.629 1883.6 C 180.969 1874.47 202.132 1871.88 226.873 1871.9 z" fill="rgb(240,124,69)" transform="translate(0,0)"></path>
<path d="M 436.176 1924.6 C 435.9 1916.88 435.894 1907.25 436.841 1899.58 C 437.459 1906.52 437.964 1918 436.176 1924.6 z" fill="rgb(62,37,19)" transform="translate(0,0)"></path>
<path d="M 297.331 1294.53 C 302.353 1299.74 304.549 1303.06 311.795 1305.12 C 318.579 1307.04 320.014 1302.89 326.07 1302.93 C 331.945 1309.84 319.026 1316.09 331.346 1328.24 C 327.183 1342.77 329.495 1350.54 325.407 1362.44 C 318.274 1383.21 310.959 1403.89 303.919 1424.72 L 261.475 1550.73 C 254.359 1571.39 224.704 1650.89 224.699 1666.91 C 224.692 1690.51 239.891 1695.74 242.726 1707.3 L 239.727 1706.68 C 214.748 1695.37 181.844 1674.88 179.109 1645.5 C 177.894 1632.44 190.919 1601.09 195.584 1587.43 L 224.548 1502.22 C 233.629 1475.57 288.073 1305.6 297.331 1294.53 z" fill="rgb(105,172,210)" transform="translate(0,0)"></path>
<path d="M 211.747 1771.14 C 216.849 1770.5 219.401 1770.66 224.211 1772.18 C 257.72 1782.84 240.739 1822.29 233.226 1844.62 C 228.21 1848.69 211.907 1860.72 210.403 1865.71 C 217.84 1863.29 233.776 1844.6 241.776 1845.55 C 241.222 1849.41 228.696 1865.09 225.44 1869.06 L 222.423 1869.04 C 175.058 1868.86 134.124 1884.61 100.486 1917.97 L 94.7931 1923.96 C 75.9462 1923.96 34.2483 1923 17.616 1925.45 C 20.9529 1905.55 24.3693 1892.4 36.6222 1875.56 C 67.6373 1832.94 116.25 1815.43 167.397 1816.17 C 179.524 1800.12 193.068 1775.84 211.747 1771.14 z" fill="rgb(182,113,62)" transform="translate(0,0)"></path>
<path d="M 285.043 1796.84 C 298.906 1797.35 316.257 1799.28 330.335 1800.38 L 428.659 1808.23 C 424.862 1828.52 420.952 1848.78 416.931 1869.03 L 390.781 1875.55 C 361.519 1883.95 328.999 1890.62 298.967 1898.79 C 306.513 1868 321.856 1830.34 276.501 1823.37 L 285.043 1796.84 z" fill="rgb(255,255,255)" transform="translate(0,0)"></path>
<path d="M 234.708 1744.81 C 254.72 1747.76 275.855 1751.77 295.782 1753.75 C 288.516 1776.88 281.125 1799.97 273.608 1823.02 C 268.62 1824.52 265.68 1825.76 260.888 1827.86 C 255.094 1831.75 251.784 1835.79 247.241 1840.92 L 236.153 1843.75 C 244.832 1814.64 260.442 1786.74 225.044 1769.78 C 227.937 1761.7 231.578 1752.88 234.708 1744.81 z" fill="rgb(212,211,211)" transform="translate(0,0)"></path>
<path d="M 247.229 1710.7 C 271.667 1727.95 275.674 1727.72 300.405 1739.61 C 298.174 1746.39 299.115 1751.72 291.733 1750.53 C 275.537 1748.07 250.501 1743.65 234.818 1742.55 C 238.587 1732.48 242.792 1720.11 247.229 1710.7 z" fill="rgb(209,146,120)" transform="translate(0,0)"></path>
<path d="M 386.396 1228.82 C 386.974 1228.99 387.678 1229.07 387.97 1229.55 C 386.369 1231.03 379.032 1235.7 376.237 1237.82 C 364.35 1246.83 350.258 1261.04 343.071 1274.06 C 342.926 1274.16 342.781 1274.27 342.637 1274.37 L 342.541 1274.35 C 340.426 1270.1 359.297 1245.9 364.107 1242.17 C 372.31 1235.8 377.302 1233.28 386.396 1228.82 z" fill="rgb(89,127,151)" transform="translate(0,0)"></path>
<metadata><recraft-signature>{"signed_by": "recraft", "signature_b64": "2CNkMr49zkWzjjDzqcE3tGvFJPUKmI9UJQDOq8lFYI+9XSBwV8wNS7fBxh5Da0rZh1RGj/SC6SjemXJnhzH5AA==", "signing_algo": "Ed25519", "generation_timestamp": 1779093568, "identifier": "5dfaa540-f173-4527-aede-d75326ce5be3"}</recraft-signature></metadata></svg>