<svg xmlns="http://www.w3.org/2000/svg" height="1024" preserveAspectRatio="none" style="display: block;" version="1.1" viewBox="0 0 2048 2048" width="1024">
<path d="M 0 0 L 2048 0 L 2048 2048 L 0 2048 L 0 0 z" fill="rgb(255,255,255)" transform="translate(0,0)"></path>
<path d="M 684.026 579.411 C 708.078 575.989 707.795 583.135 726.269 592.145 C 742.106 599.868 751.774 601.168 766.354 613.145 C 787.888 630.772 801.458 656.293 804.03 684.002 C 805.089 695.97 804.615 716.389 804.67 728.919 L 804.867 810.382 L 804.887 1053.02 L 804.772 1235.56 C 804.759 1257.98 805.98 1310.48 803.367 1330.28 C 800.599 1350.76 792.145 1370.06 778.966 1385.98 C 765.129 1402.3 746.77 1414.15 726.206 1420.04 C 714.342 1423.37 695.489 1424.29 682.905 1425.25 L 625.328 1429.65 C 531.524 1437.44 436.321 1443.34 342.84 1451.83 C 310.11 1454.34 285.533 1452.04 258.807 1429.82 C 237.473 1412.12 224.114 1386.62 221.713 1359.01 C 220.649 1345.98 221.122 1327.42 221.108 1313.89 L 221.091 1235.41 L 221.064 991.488 L 221.034 799.295 C 221.029 772.355 220.942 745.387 221.104 718.453 C 221.018 691.62 229.205 666.584 246.695 646.085 C 274.883 613.047 307.136 611.333 346.934 607.937 L 413.545 602.205 L 684.026 579.411 z" fill="rgb(26,24,24)" transform="translate(0,0)"></path>
<path d="M 706.155 601.429 C 707.034 601.352 707.914 601.292 708.795 601.25 C 727.297 600.41 749.808 611.062 762.87 623.561 C 783.547 643.347 794.163 666.208 794.372 694.864 C 794.71 741.114 794.676 787.481 794.75 833.671 L 794.701 1114.95 L 794.585 1253.36 C 794.568 1300.16 801.771 1348.08 766.846 1384.22 C 737.336 1414.76 709.275 1413.03 670.263 1416.3 C 637.531 1419.11 604.779 1421.67 572.009 1424.01 L 445.065 1433.81 C 420.64 1435.73 391.661 1438.65 367.422 1439.15 C 346.54 1439.64 328.516 1432.47 312.471 1419.22 C 293.662 1403.84 281.847 1381.53 279.696 1357.33 C 278.631 1345.27 279.11 1328.19 279.104 1315.7 L 279.093 1242.83 L 278.871 1010.1 L 278.494 813.408 L 278.231 753.625 C 278.064 716.511 276.887 689.625 302.756 659.455 C 314.718 645.673 330.592 635.859 348.267 631.319 C 360.25 628.2 376.599 627.547 389.183 626.622 C 407.904 625.316 426.615 623.871 445.314 622.289 L 706.155 601.429 z" fill="rgb(229,226,214)" transform="translate(0,0)"></path>
<path d="M 617.588 769.446 C 624.367 768.58 631.565 771.142 636.744 775.505 C 642.759 780.621 646.91 787.585 648.55 795.309 C 650.995 806.467 650.094 838.296 650.077 851.786 L 649.898 954.9 C 649.836 992.759 647.587 988.461 666.828 1021.12 L 693.693 1066.41 C 709.278 1092.23 727.043 1115.24 728.567 1146.66 C 730.631 1189.22 690.988 1184.99 661.898 1185.79 L 661.499 1186.61 C 659.535 1190.69 658.135 1193.94 655.09 1197.39 C 651.823 1201.11 647.584 1203.84 642.849 1205.28 C 635.353 1207.49 614.471 1208.06 606.064 1208.49 L 543.248 1211.6 C 524.153 1212.54 505.089 1214.11 485.961 1215.2 C 474.135 1215.87 460.416 1216.6 450.714 1208.28 C 442.133 1200.92 436.018 1187.69 435.695 1176.35 C 434.991 1151.62 435.201 1126.62 435.177 1101.85 L 435.044 961.811 L 434.982 868.238 C 434.978 858.449 434.344 829.983 435.45 821.487 C 436.845 811.288 441.279 801.746 448.174 794.103 C 465.682 774.474 498.389 776.831 523.102 775.234 L 617.588 769.446 z" fill="rgb(26,24,24)" transform="translate(0,0)"></path>
<path d="M 601.751 779.58 C 610.574 778.932 616.723 778.909 625.604 779.093 C 639.914 787.766 640.663 795.479 640.993 811.376 C 641.327 827.492 641.116 843.706 641.103 859.831 L 640.871 976.637 C 630.532 963.68 631.616 956.177 613.726 951.096 C 577.692 940.863 518.867 944.201 485.942 963.073 C 480.563 966.157 476.438 968.951 474.86 975.186 C 472.336 985.159 471.68 1087.15 475.015 1096.42 C 478.444 1105.94 485.229 1115.06 490.405 1123.79 L 524.099 1180.17 C 528.649 1187.58 533.042 1195.39 537.409 1202.93 C 514.919 1204.6 491.589 1207.03 469.133 1206.57 C 456.172 1206.31 445.758 1191.96 444.978 1179.99 C 443.457 1156.64 444.222 1132.92 444.177 1109.49 L 443.953 979.38 L 443.912 875.977 C 443.91 858.741 443.477 840.172 444.472 823.145 C 445.21 808.283 458.817 790.539 474.207 788.602 C 515.788 783.369 559.907 782.591 601.751 779.58 z" fill="rgb(247,161,39)" transform="translate(0,0)"></path>
<path d="M 508.486 818.311 C 542.799 815.759 551.524 858.716 537.66 880.704 C 533.448 887.429 526.731 892.199 518.994 893.96 C 517.153 894.377 515.254 894.776 513.402 895.168 C 491.406 894.394 475.754 884.734 475.44 860.497 C 475.127 836.314 483.478 821.646 508.486 818.311 z" fill="rgb(237,146,95)" transform="translate(0,0)"></path>
<path d="M 507.51 829.161 C 527.766 829.584 530.405 846.704 528.671 863.996 C 527.631 874.376 522.386 879.355 513.173 883.207 C 506.123 882.989 499.083 882.606 495.29 875.753 C 486.3 859.508 486.76 834.436 507.51 829.161 z" fill="rgb(247,161,39)" transform="translate(0,0)"></path>
<path d="M 562.937 817.771 C 569.831 819.373 570.219 819.861 574.551 825.87 C 584.878 840.198 592.69 855.203 601.262 870.448 C 599.709 855.288 600.163 839.793 601.146 824.968 C 601.704 816.555 613.544 818.5 613.619 822.15 C 614.045 843.017 613.983 866.704 613.49 887.74 C 613.43 890.307 605.18 893.122 603.853 893.646 C 603.54 893.47 603.23 893.29 602.915 893.119 C 594.783 888.698 574.707 849.886 568.927 839.739 C 568.825 847.586 575.032 908.6 556.859 890.524 C 553.881 887.563 555.289 834.317 555.507 826.97 C 555.629 822.85 559.573 819.885 562.937 817.771 z" fill="rgb(237,146,95)" transform="translate(0,0)"></path>
<path d="M 561.534 1117.19 C 539.316 1082.5 518.26 1046.83 495.884 1012.2 C 490.638 1004.08 482.996 992.222 479.147 983.633 C 473.012 969.946 501.851 961.175 510.771 958.539 C 541.697 949.399 596.349 945.156 625.434 961.029 L 676.891 1048.46 C 687.403 1065.95 707.996 1098.39 715.537 1115.59 C 720.757 1129.9 727.176 1149.01 720.13 1163.7 C 716.678 1170.89 710.335 1175.52 702.832 1177.89 C 685.359 1183.39 590.575 1180.04 575.107 1172.01 C 570.167 1169.45 567.683 1164.32 566.184 1159.18 C 562.222 1145.61 564.287 1130.93 561.534 1117.19 z" fill="rgb(247,161,39)" transform="translate(0,0)"></path>
<path d="M 715.537 1115.59 C 720.757 1129.9 727.176 1149.01 720.13 1163.7 C 716.678 1170.89 710.335 1175.52 702.832 1177.89 C 685.359 1183.39 590.575 1180.04 575.107 1172.01 C 570.167 1169.45 567.683 1164.32 566.184 1159.18 C 562.222 1145.61 564.287 1130.93 561.534 1117.19 C 588.158 1130.84 620.547 1138.41 650.54 1136.22 C 669.29 1134.86 700.576 1127.63 715.537 1115.59 z" fill="rgb(237,146,95)" transform="translate(0,0)"></path>
<path d="M 581.875 1225.59 C 587.082 1225.06 593.507 1224.89 598.833 1224.62 C 606.291 1231.24 610.897 1239.89 604.591 1248.94 C 599.057 1256.88 575.219 1256.25 566.417 1256.76 L 517.246 1259.65 C 511.545 1260.15 505.417 1261.32 500.188 1257.84 C 492.792 1253.78 491.538 1240.62 497.305 1234.93 C 502.879 1229.44 523.234 1229.74 530.805 1229.25 C 547.846 1228.28 564.871 1227.06 581.875 1225.59 z" fill="rgb(97,92,90)" transform="translate(0,0)"></path>
<path d="M 1219.48 1252.22 L 1219.34 1250.82 C 1211.21 1175.7 1144.38 1159.82 1104.73 1106.38 C 1030.92 1006.89 1036.55 869.063 1112.6 773.474 C 1159.16 713.948 1227.51 675.408 1302.54 666.366 C 1380.25 657.686 1454.16 678.025 1516.93 726.794 C 1629.83 814.514 1663.69 986.989 1570.74 1101.67 C 1538.62 1141.3 1488.95 1164.39 1474.21 1218.54 C 1469.54 1233.57 1464.86 1247.38 1464.79 1263.89 C 1472.52 1272.02 1480.72 1280.02 1487.04 1289 C 1525.8 1344.08 1499.76 1422.5 1438.82 1448.28 C 1435.1 1449.85 1418.34 1456.73 1416.98 1459.18 C 1413.58 1465.81 1410.51 1469.42 1405.77 1474.92 C 1375.92 1509.59 1322.23 1513.39 1286.04 1486.47 C 1276.17 1479.13 1270.27 1469.91 1264.48 1458.93 C 1239.75 1449.92 1219.86 1440.05 1201.55 1420.8 C 1167.06 1384.54 1165.73 1330.67 1191.17 1288.99 C 1198.69 1276.69 1210.38 1269.4 1219.25 1258.53 C 1219.34 1256.09 1219.41 1253.99 1219.48 1252.22 z" fill="rgb(237,146,95)" transform="translate(0,0)"></path>
<path d="M 1267.49 1154.2 C 1264.36 1155.66 1259.73 1154.37 1256.39 1153.31 C 1201.58 1136.04 1151.32 1101.62 1123.16 1050.85 C 1092.75 996 1087.56 933.056 1104.24 873.283 C 1121.23 812.451 1169.22 755.407 1224.02 724.689 C 1274.25 696.532 1344.04 689.755 1399.38 705.446 C 1449.07 719.532 1492.58 753.768 1517.66 799.198 C 1552.1 861.598 1555.84 923.661 1535.59 991.327 C 1521.31 1039.03 1494.23 1080.32 1453.77 1110.27 C 1442.34 1118.73 1429.88 1125.23 1417.37 1131.98 C 1411.9 1161.61 1410.59 1193.56 1407.96 1223.58 C 1407.01 1234.43 1406.6 1249.8 1404.83 1260 L 1391.87 1259.88 C 1382.06 1258.99 1364.44 1259.63 1354.22 1259.61 L 1288.7 1259.06 C 1282.94 1259.77 1281.94 1259.93 1276.29 1258.83 C 1274.51 1238.56 1272.83 1218.27 1271.25 1197.98 C 1270.41 1186.28 1269.47 1165.49 1267.49 1154.2 z" fill="rgb(229,226,214)" transform="translate(0,0)"></path>
<path d="M 1495.59 901.018 C 1528.23 908.585 1525.83 941.523 1507.42 962.751 C 1492.8 979.611 1474.21 984.747 1452.63 986.399 C 1442.93 1016.57 1435.79 1040.58 1429.2 1072.07 C 1425.16 1091.36 1421.81 1113.26 1417.37 1131.98 C 1411.9 1161.61 1410.59 1193.56 1407.96 1223.58 C 1407.01 1234.43 1406.6 1249.8 1404.83 1260 L 1391.87 1259.88 C 1382.06 1258.99 1364.44 1259.63 1354.22 1259.61 L 1288.7 1259.06 C 1282.94 1259.77 1281.94 1259.93 1276.29 1258.83 C 1274.51 1238.56 1272.83 1218.27 1271.25 1197.98 C 1270.41 1186.28 1269.47 1165.49 1267.49 1154.2 C 1260.77 1089.39 1250.42 1050.78 1231.87 990.072 C 1205.89 990.341 1183.92 984.087 1167.91 960.717 C 1153.48 939.649 1161.6 898.085 1192.99 907.123 C 1216.23 913.81 1231.75 950.47 1242.26 971.632 C 1252.84 962.52 1260.88 938.609 1272.78 936.886 C 1295.93 933.533 1295.71 981.98 1305.34 988.815 C 1307.11 988.482 1308.96 988.318 1309.99 986.295 C 1316.44 973.625 1321.35 936.24 1339.91 935.882 C 1365.22 935.394 1363.63 974.666 1375.56 987.768 C 1383.79 986.281 1387.48 953.397 1395.96 944.91 C 1417.94 922.914 1423.62 968.166 1439.5 968.026 C 1454.23 959.014 1453.82 909.816 1495.59 901.018 z" fill="rgb(247,161,39)" transform="translate(0,0)"></path>
<path d="M 1274.37 955.079 C 1284.33 973.105 1282.97 1010.24 1310.4 1004.74 C 1332.37 1000.34 1328.17 969.634 1340.17 953.422 L 1341.87 953.209 C 1348.61 960.821 1352.19 981.873 1357.89 992.486 C 1373.28 1021.15 1396.22 1002.68 1400.73 978.732 C 1401.9 972.498 1403.81 964.705 1405.34 958.191 C 1415.8 972.12 1418.94 978.491 1435.34 985.586 C 1418.35 1038.09 1410.47 1081.3 1401.41 1134.93 C 1356.19 1156.98 1331.99 1159.51 1283.69 1155.81 C 1279.73 1132.14 1278.05 1107.74 1273.78 1083.74 C 1267.81 1050.19 1257.89 1019.51 1247.37 987.268 C 1262.62 980.982 1266.94 969.161 1274.37 955.079 z" fill="rgb(229,226,214)" transform="translate(0,0)"></path>
<path d="M 1401.41 1134.93 C 1399.58 1152.85 1387.97 1249 1391.87 1259.88 C 1382.06 1258.99 1364.44 1259.63 1354.22 1259.61 L 1288.7 1259.06 C 1289.54 1251.65 1288.78 1235.23 1288.45 1227.27 C 1287.38 1203.42 1285.8 1179.59 1283.69 1155.81 C 1331.99 1159.51 1356.19 1156.98 1401.41 1134.93 z" fill="rgb(237,146,95)" transform="translate(0,0)"></path>
<path d="M 1181.9 921.783 C 1183.37 921.733 1185.04 921.638 1186.5 921.728 C 1190.81 922.021 1194.81 924.076 1197.56 927.41 C 1206.77 938.423 1217.38 958.796 1223.66 971.962 C 1223.92 972.502 1222.28 972.888 1222.04 972.933 L 1220.77 973.193 C 1210.17 970.976 1200.68 968.793 1191.74 962.31 C 1178.68 952.843 1172.12 935.679 1181.9 921.783 z" fill="rgb(229,226,214)" transform="translate(0,0)"></path>
<path d="M 1493.72 917.781 C 1506.95 919.846 1505.73 934.075 1501.02 943.501 C 1494.47 956.609 1482.06 962.617 1468.76 967.072 C 1468.13 967.274 1467.51 967.476 1466.88 967.678 C 1464.49 968.352 1462.08 968.973 1459.66 969.542 C 1465.75 951.046 1473.24 931.218 1490.02 920.197 L 1493.72 917.781 z" fill="rgb(229,226,214)" transform="translate(0,0)"></path>
<path d="M 1296.02 716.128 C 1298.73 717.176 1301.15 719.462 1302.29 722.185 C 1303.26 724.485 1303.66 726.667 1302.53 729.011 C 1300.32 733.568 1272.45 744.046 1266.71 747.002 C 1247.56 756.861 1227.58 769.687 1211.65 784.384 C 1202.61 792.717 1181.93 819.643 1173.88 823.42 C 1169.24 820.136 1167.1 817.642 1163.27 813.566 C 1188.07 769.366 1248.32 730.522 1296.02 716.128 z" fill="rgb(255,255,255)" transform="translate(0,0)"></path>
<path d="M 1151.52 830.582 C 1157.28 831.99 1160.04 834.235 1164.73 837.566 C 1145.89 874.56 1138.38 904.502 1139.84 946.499 C 1140.17 956.076 1143.46 965.138 1143.43 974.557 C 1143.42 978.112 1138.85 981.317 1136.16 983.524 C 1132.04 984.955 1132.16 985.069 1128.7 983.881 C 1121.06 975.401 1122.16 956.44 1121.05 944.98 C 1118.1 914.546 1130.4 853.314 1151.52 830.582 z" fill="rgb(255,255,255)" transform="translate(0,0)"></path>
<path d="M 1144.81 995.087 C 1153.26 994.778 1151.1 1011.13 1155.94 1018 C 1158.11 1021.07 1162.01 1034.14 1161.2 1037.98 C 1160.66 1040.55 1153.69 1043.75 1151.47 1044.9 L 1150.06 1044.74 C 1144.45 1044.17 1142.92 1037.85 1141.52 1032.51 C 1139.03 1023.06 1133.57 1009.47 1134.52 999.914 C 1134.7 998.152 1143.34 995.529 1144.81 995.087 z" fill="rgb(255,255,255)" transform="translate(0,0)"></path>
<path d="M 1219.48 1252.22 L 1220.82 1257.83 C 1231.14 1259.81 1261.89 1256.27 1276.29 1258.83 C 1281.94 1259.93 1282.94 1259.77 1288.7 1259.06 L 1354.22 1259.61 C 1364.44 1259.63 1382.06 1258.99 1391.87 1259.88 L 1404.83 1260 C 1422.28 1260.09 1440.14 1259.28 1457.55 1259.78 C 1459.79 1259.84 1462.2 1263.35 1464.79 1263.89 C 1472.52 1272.02 1480.72 1280.02 1487.04 1289 C 1525.8 1344.08 1499.76 1422.5 1438.82 1448.28 C 1435.1 1449.85 1418.34 1456.73 1416.98 1459.18 C 1413.58 1465.81 1410.51 1469.42 1405.77 1474.92 C 1375.92 1509.59 1322.23 1513.39 1286.04 1486.47 C 1276.17 1479.13 1270.27 1469.91 1264.48 1458.93 C 1239.75 1449.92 1219.86 1440.05 1201.55 1420.8 C 1167.06 1384.54 1165.73 1330.67 1191.17 1288.99 C 1198.69 1276.69 1210.38 1269.4 1219.25 1258.53 C 1219.34 1256.09 1219.41 1253.99 1219.48 1252.22 z" fill="rgb(232,207,141)" transform="translate(0,0)"></path>
<path d="M 1264.48 1458.93 C 1272.99 1459.47 1282.48 1462.59 1291.04 1464.02 C 1306.93 1466.68 1323.55 1468.06 1339.68 1467.75 C 1356.86 1467.45 1373.99 1465.88 1390.93 1463.05 C 1395.93 1462.22 1413.75 1458.14 1416.98 1459.18 C 1413.58 1465.81 1410.51 1469.42 1405.77 1474.92 C 1375.92 1509.59 1322.23 1513.39 1286.04 1486.47 C 1276.17 1479.13 1270.27 1469.91 1264.48 1458.93 z" fill="rgb(26,24,24)" transform="translate(0,0)"></path>
<path d="M 1217.97 1379.64 C 1225.17 1379.81 1231.39 1384.61 1237.51 1388.44 C 1270.72 1409.24 1307.02 1416.17 1346.26 1415.07 C 1374.39 1414.23 1402.07 1407.79 1427.69 1396.14 C 1436.14 1392.29 1454.67 1377.58 1460.56 1382.33 C 1461.04 1386.65 1461.33 1384.58 1459.34 1388.73 C 1457.63 1390.04 1455.89 1391.3 1454.11 1392.51 C 1410.36 1422.3 1344.49 1431.1 1292.65 1420.44 C 1274.11 1416.62 1232.04 1402.58 1217.63 1386.53 C 1215.95 1384.66 1217.29 1381.81 1217.97 1379.64 z" fill="rgb(26,24,24)" transform="translate(0,0)"></path>
<path d="M 1221.69 1339.46 C 1228.81 1343.36 1236.01 1349.64 1245.95 1354.68 C 1296.49 1380.32 1361.79 1380.59 1413.95 1360.67 C 1421.89 1357.62 1429.59 1353.98 1436.98 1349.78 C 1441.75 1347.03 1448.22 1342.35 1453.12 1340.8 C 1456.43 1341.57 1455.11 1340.72 1457.19 1343.48 C 1457.57 1347.96 1458.02 1345.83 1455.11 1349.94 C 1443.99 1357.53 1432.06 1363.85 1419.53 1368.76 C 1368.12 1389.39 1299.44 1390.18 1248.92 1367.11 C 1242.46 1364.17 1220.05 1353.18 1217.6 1346.99 C 1217.65 1343.53 1219.41 1342.18 1221.69 1339.46 z" fill="rgb(26,24,24)" transform="translate(0,0)"></path>
<path d="M 1221.87 1300.33 C 1228.06 1302.45 1244.08 1313.95 1251.99 1317.73 C 1298.14 1339.78 1361.74 1340.36 1408.57 1322.04 C 1415.52 1319.36 1422.27 1316.2 1428.8 1312.6 C 1433.93 1309.72 1442.14 1304.05 1447.19 1302.47 C 1450.75 1303.18 1449.41 1302.29 1451.51 1304.95 C 1451.63 1308.99 1452.05 1307.04 1449.62 1310.82 C 1399.57 1350.16 1310.86 1353.75 1253.49 1329.17 C 1246.64 1326.24 1221.4 1312.98 1219.1 1307.03 C 1219.02 1303.68 1219.88 1303.04 1221.87 1300.33 z" fill="rgb(26,24,24)" transform="translate(0,0)"></path>
<path d="M 1009.06 968.449 C 1010.64 968.208 1011.41 968.497 1013.07 968.724 C 1017.98 972.057 1018.25 976.01 1015.37 980.675 C 1012.88 982.146 1009.25 983.207 1006.4 983.335 C 955.644 985.619 902.228 995.573 851.75 997.283 C 848.143 996.735 848.014 996.982 845.295 994.39 C 844.12 990.155 844.278 992.326 845.428 987.615 C 850.728 982.247 898.703 979.139 908.57 978.175 L 1009.06 968.449 z" fill="rgb(247,161,39)" transform="translate(0,0)"></path>
<path d="M 1817 863.401 C 1822.38 863.71 1824.86 866.547 1824.35 871.798 C 1818.26 880.063 1773.95 883.539 1762.02 885.191 C 1727.7 889.943 1693.43 894.996 1659.2 900.35 C 1648.93 899.164 1646.96 888.94 1661.59 886.386 C 1679.9 883.189 1698.11 880.57 1716.48 877.807 C 1749.92 872.549 1783.43 867.747 1817 863.401 z" fill="rgb(247,161,39)" transform="translate(0,0)"></path>
<path d="M 854.613 860.929 C 858.043 860.815 1015.05 885.807 1017.79 887.086 C 1020.33 888.272 1020.42 889.58 1021.21 892.008 C 1020.54 896.376 1020.43 896.503 1017.88 900.222 C 1001.62 899.366 863.279 877.767 854.186 872.928 C 851.921 871.723 851.51 870.23 850.779 867.935 C 851.326 864.294 852.23 863.703 854.613 860.929 z" fill="rgb(247,161,39)" transform="translate(0,0)"></path>
<path d="M 1661.68 968.294 C 1688.71 970.104 1722.87 975.632 1750.21 978.18 C 1763.77 979.445 1815.41 984.838 1824.1 987.988 C 1829.16 993.222 1826.87 995.633 1822.71 1000.75 C 1803.23 998.794 1667.12 984.05 1659.43 979.61 C 1656.08 974.616 1656.57 971.552 1661.68 968.294 z" fill="rgb(247,161,39)" transform="translate(0,0)"></path>
<path d="M 1769.02 745.961 C 1770.1 745.911 1770.93 745.835 1772.02 745.957 C 1774.22 746.202 1777.05 747.856 1778.18 749.856 C 1779.46 752.115 1779.19 752.893 1778.57 755.209 C 1775 759.644 1764.31 763.929 1758.86 766.128 C 1719.12 782.156 1679.73 803.307 1640.22 819.332 C 1633.91 820.622 1630.13 816.998 1631.36 810.65 C 1635.49 804.543 1668.86 790.911 1678.11 786.704 C 1708.31 772.899 1738.62 759.318 1769.02 745.961 z" fill="rgb(247,161,39)" transform="translate(0,0)"></path>
<path d="M 1707.33 639.721 C 1711.93 641.96 1713.37 642.469 1714.32 647.662 C 1712.46 655.761 1637.47 712.126 1626.45 723.323 C 1622.24 727.599 1596.85 748.041 1592.06 751.138 C 1587.39 748.72 1585.52 747.034 1585.2 741.748 C 1588.28 734.646 1694.38 649.076 1707.33 639.721 z" fill="rgb(247,161,39)" transform="translate(0,0)"></path>
<path d="M 967.366 637.4 C 972.418 637.797 983.116 647.547 987.689 651.483 C 1020.94 680.102 1055.19 707.51 1088.36 736.199 C 1090.88 738.373 1090.85 739.46 1091.31 742.506 C 1090.44 745.771 1088.83 746.652 1086.25 748.886 C 1084.14 748.512 1081.52 747.811 1079.86 746.43 C 1062.93 732.414 1045.56 718.033 1028.68 704.03 L 986.452 668.265 C 980.083 662.88 963.505 651.187 962.276 644.45 C 962.839 641.001 964.756 639.843 967.366 637.4 z" fill="rgb(247,161,39)" transform="translate(0,0)"></path>
<path d="M 902.031 744.735 C 917.543 744.523 996.286 787.304 1014.35 792.057 C 1020.53 793.684 1034.7 801.516 1041.46 804.359 C 1044.52 805.648 1045.42 807.474 1046.22 810.524 C 1045.72 814.094 1044.6 814.944 1042.33 817.733 C 1033.07 819.03 916.634 762.773 902.148 756.974 C 899.971 756.102 899.572 754.499 898.767 752.554 C 899.108 748.534 899.633 748.201 902.031 744.735 z" fill="rgb(247,161,39)" transform="translate(0,0)"></path>
<path d="M 1025.98 1050.92 C 1031.38 1051.32 1033.6 1053.89 1034.14 1058.96 C 1033.26 1060.86 1032.24 1062.68 1030.19 1063.53 C 985.447 1082.14 939.743 1102.42 894.394 1119.36 C 888.462 1118.69 884.713 1116.06 886.738 1109.85 C 894.581 1101.16 1005.15 1059.87 1025.98 1050.92 z" fill="rgb(247,161,39)" transform="translate(0,0)"></path>
<path d="M 1606.1 557.48 C 1608.19 557.825 1610.53 558.34 1612.11 559.9 C 1613.22 561.001 1613.89 562.453 1613.96 563.99 C 1614.16 568.29 1535.9 685.408 1527.52 693.594 C 1525.3 692.86 1522.42 692.004 1520.8 690.227 C 1519.71 689.04 1519.18 687.539 1519.17 685.97 C 1519.13 679.567 1599.24 563.574 1606.1 557.48 z" fill="rgb(247,161,39)" transform="translate(0,0)"></path>
<path d="M 1643.12 1051.64 C 1645.01 1051.69 1647.52 1051.79 1649.3 1052.58 C 1693.26 1072.24 1739.01 1087.6 1783.06 1107.12 C 1786.23 1108.53 1786.41 1109.68 1787.4 1112.53 C 1786.82 1116.33 1785.99 1116.87 1783.53 1119.78 C 1782.33 1119.83 1779.89 1119.88 1778.73 1119.44 C 1739.19 1104.27 1699.94 1088.09 1660.57 1072.43 C 1655.03 1070.23 1642.68 1065.68 1639.99 1060.73 C 1640.05 1056.51 1641.02 1055.5 1643.12 1051.64 z" fill="rgb(247,161,39)" transform="translate(0,0)"></path>
<path d="M 1070.15 556.366 C 1081.31 559.177 1139.75 657.158 1151.91 672.668 C 1153.96 675.278 1158 682.95 1158.89 686.349 C 1157.52 690.356 1157.44 689.445 1153.71 692.666 C 1152.19 692.502 1149.22 691.96 1148.33 690.694 C 1126.05 659.165 1105.13 626.703 1083.78 594.477 C 1078.97 587.217 1068.71 573.237 1065.06 565.39 C 1063.96 563.003 1068.28 558.424 1070.15 556.366 z" fill="rgb(247,161,39)" transform="translate(0,0)"></path>
<path d="M 1339.8 481.669 C 1343.41 481.701 1343.64 481.905 1347 482.861 C 1348.71 484.559 1349.93 485.251 1349.99 487.968 C 1350.38 505.879 1349.91 525.751 1349.9 543.494 L 1350.02 601.57 C 1350.04 610.904 1350.16 620.688 1349.94 630.033 C 1349.87 633.16 1348.55 633.87 1346.48 636.503 C 1342.7 636.406 1342.82 636.353 1339.47 635.143 C 1338.13 633.48 1337.27 633.049 1337.17 631.175 C 1336.32 616.237 1336.57 598.61 1336.53 583.72 L 1336.62 521.391 C 1336.63 512.056 1334.93 488.791 1339.8 481.669 z" fill="rgb(247,161,39)" transform="translate(0,0)"></path>
<path d="M 1479.8 506.541 C 1482.88 506.508 1483.38 506.728 1486.32 507.373 C 1489.52 510.092 1488.43 508.441 1489.59 512.584 C 1488.51 518.181 1479.61 546.297 1477.74 551.849 C 1471.78 569.464 1453.06 637.826 1444.65 651.109 C 1439.4 650.874 1437.65 650.919 1435.06 646.152 C 1434.9 638.915 1475.4 513.342 1479.8 506.541 z" fill="rgb(247,161,39)" transform="translate(0,0)"></path>
<path d="M 1196.4 506.944 C 1203.39 507.113 1203.93 506.624 1206.06 513.475 L 1233.55 605.092 C 1237.11 616.97 1241.44 630.775 1244.56 642.901 C 1245.23 645.508 1243.03 649.199 1241.7 651.706 C 1237.65 650.946 1237.29 650.998 1233.87 648.876 C 1228.2 640.497 1198.04 532.343 1192.79 513.399 C 1192.11 510.957 1194.68 508.806 1196.4 506.944 z" fill="rgb(247,161,39)" transform="translate(0,0)"></path>
<path d="M 1055.98 1130.88 C 1061.2 1130.66 1063.58 1132.12 1065.15 1136.96 C 1064.72 1139.09 1064.83 1140.52 1062.96 1141.95 C 1030.98 1166.36 998.638 1197.23 965.782 1219.87 C 960.021 1220.25 957.784 1218.35 956.409 1213.06 C 956.863 1210.65 957.216 1208.88 959.27 1207.21 C 975.837 1193.73 992.745 1180.59 1009.55 1167.39 C 1024.97 1155.27 1040.26 1142.6 1055.98 1130.88 z" fill="rgb(247,161,39)" transform="translate(0,0)"></path>
<path d="M 1610.01 1131.58 C 1621.29 1133.75 1680.28 1187.47 1695.54 1198.22 C 1699.75 1201.19 1708.77 1208.31 1709.94 1213.38 C 1709.08 1217.05 1707.73 1217.99 1705.18 1220.76 C 1700.72 1219.52 1698.14 1217.95 1694.56 1215.03 C 1665.49 1191.31 1636.14 1167.9 1607.08 1144.18 C 1604.94 1142.44 1605.33 1141.53 1605.02 1139.04 C 1606.38 1134.92 1606.83 1134.74 1610.01 1131.58 z" fill="rgb(247,161,39)" transform="translate(0,0)"></path>
<metadata><recraft-signature>{"signed_by": "recraft", "signature_b64": "YtuaF/y7qg2wKBY34gQkxgA52qlDC9brKSe2+bErkpViXWq0kSRBVMTlICNCVc/Rqhc16uo4YBdi0b6M7mCmAg==", "signing_algo": "Ed25519", "generation_timestamp": 1779100977, "identifier": "30f5cfe1-4539-4b4a-83b2-aff08bd314fe"}</recraft-signature></metadata></svg>