<svg xmlns="http://www.w3.org/2000/svg" height="1216" preserveAspectRatio="none" style="display: block;" version="1.1" viewBox="0 0 1509 2048" width="896">
<defs>
	<linearGradient gradientUnits="userSpaceOnUse" id="Gradient1" x1="1051.55" x2="1053.89" y1="1254.51" y2="1228.4">
		<stop class="stop0" offset="0" stop-color="rgb(28,14,13)" stop-opacity="1"></stop>
		<stop class="stop1" offset="1" stop-color="rgb(67,32,29)" stop-opacity="1"></stop>
	</linearGradient>
	<linearGradient gradientUnits="userSpaceOnUse" id="Gradient2" x1="1091.35" x2="1246.12" y1="1166.96" y2="1155.18">
		<stop class="stop0" offset="0" stop-color="rgb(22,13,11)" stop-opacity="1"></stop>
		<stop class="stop1" offset="1" stop-color="rgb(56,29,24)" stop-opacity="1"></stop>
	</linearGradient>
	<linearGradient gradientUnits="userSpaceOnUse" id="Gradient3" x1="990.359" x2="840.682" y1="1060.85" y2="1165.56">
		<stop class="stop0" offset="0" stop-color="rgb(0,0,0)" stop-opacity="1"></stop>
		<stop class="stop1" offset="1" stop-color="rgb(49,25,22)" stop-opacity="1"></stop>
	</linearGradient>
</defs>
<path d="M 0 0 L 1509 0 L 1509 2048 L 0 2048 L 0 0 z" fill="rgb(255,255,255)" transform="translate(0,0)"></path>
<path d="M 993.685 403.455 C 994.622 403.396 995.559 403.355 996.496 403.332 C 1068.34 401.543 1198.97 414.282 1265.86 443.703 C 1289.38 454.1 1310.91 468.518 1329.48 486.308 C 1401.97 555.086 1414.35 669.438 1422.97 763.667 C 1427.91 817.614 1431.03 871.712 1432.31 925.869 C 1434.15 1021.35 1431.05 1116.86 1423.04 1212.01 C 1415.06 1307.45 1407.7 1415.52 1338.23 1488.67 C 1319.31 1508.68 1296.96 1525.14 1272.23 1537.26 C 1216.7 1564.45 1100.24 1583.17 1038.28 1583.81 C 951.863 1584.71 837.222 1572.87 757.151 1537.55 C 733.796 1527.25 712.022 1511.19 693.734 1493.79 C 685.359 1501.94 677.444 1509.63 669.506 1518.19 C 673.353 1539.87 675.645 1570.22 676.77 1591.84 C 617.829 1627.64 541.437 1639.78 473.558 1643.42 C 393.444 1649.03 269.864 1635.85 200.689 1593.36 C 201.462 1560.69 207.913 1526.79 213.877 1494.78 C 187.607 1466.48 158.594 1438.72 132.103 1410.28 C 116.42 1392.3 91.8693 1372.1 80.1738 1351.57 C 63.7351 1322.71 81.8877 1277.32 90.2486 1248.21 L 114.536 1162.68 C 119.708 1144.54 124.925 1126.55 129.705 1108.31 C 133.973 1092.02 126.79 1080.05 132.576 1064.1 C 138.972 1046.47 148.515 1037.21 164.622 1029.03 C 143.227 1018.54 117.581 998.75 129.664 971.406 C 141.023 945.7 175.617 934.495 201.498 929.881 C 201.583 920.569 202.086 911.265 203.007 901.998 C 209.504 836.938 238.349 777.031 289.279 735.309 C 335.245 697.971 394.194 680.484 453.085 686.717 C 517.214 693.092 567.438 723.841 607.906 773.08 C 609.63 752.402 610.473 731.512 612.713 711.064 C 622.636 615.355 652.427 503.175 744.28 454.237 C 813.677 417.263 915.033 406.586 993.685 403.455 z" fill="rgb(5,3,2)" transform="translate(0,0)"></path>
<path d="M 987.764 406.43 C 1060.99 400.358 1142.72 414.95 1214.12 430.153 C 1384.46 466.428 1407.72 623.567 1420.75 770.688 C 1427.93 851.417 1431.02 932.458 1430.02 1013.5 C 1428.96 1078.49 1425.78 1143.43 1420.49 1208.22 C 1412.41 1307.59 1404.98 1419.97 1329.1 1493.65 C 1309.86 1512.29 1287.5 1527.41 1263.03 1538.31 C 1198.87 1567.15 1071.32 1584.11 1003.26 1580.87 C 907.019 1576.29 765.59 1563.25 695.849 1491.16 L 764.127 1423.32 C 816.709 1482.2 950.04 1496.26 1023.85 1496.04 C 1084.57 1495.85 1170.35 1483.64 1224.17 1456.75 C 1241.43 1446.79 1251.6 1440.73 1265.96 1426.42 C 1283.96 1408.37 1298.11 1386.85 1307.53 1363.16 C 1338.28 1286.09 1341.84 1148.81 1343.33 1064.57 C 1344.09 1035.25 1344.6 1005.93 1344.85 976.611 C 1344.98 879.557 1343.02 713.7 1309.94 624.838 C 1300.76 600.198 1287.61 577.355 1268.91 558.703 C 1254.41 544.211 1237.33 532.555 1218.55 524.335 C 1126.61 483.441 900.846 483.35 811.353 523.213 C 792.939 531.4 776.192 542.913 761.953 557.174 C 704.087 615.539 695.808 720.114 691.66 798.093 C 689.454 840.795 688.494 883.553 688.783 926.311 C 679.455 923.384 668.726 921.113 659.111 919.395 C 655.715 862.167 641.13 824.296 610.914 776.904 C 616.157 683.39 627.455 570.904 693.355 498.121 C 744.756 441.351 817.04 426.128 890.044 415.852 C 922.429 410.997 955.047 407.852 987.764 406.43 z" fill="rgb(230,162,49)" transform="translate(0,0)"></path>
<path d="M 691.764 927.405 C 691.176 867.76 693.308 808.119 698.154 748.669 C 704.262 679.645 718.988 595.568 775.309 548.838 C 789.128 537.504 804.694 528.487 821.4 522.136 C 841.713 514.324 863.648 510.108 885.05 506.524 C 954.511 495.218 1025.16 493.108 1095.17 500.249 C 1130.88 503.696 1167.82 509.645 1202.01 520.932 C 1312.88 557.536 1326.21 677.143 1334.68 777.973 C 1339.54 838.572 1341.95 899.343 1341.9 960.136 C 1341.96 985.596 1342.51 1029.84 1340.15 1054.21 C 1340.33 1056.18 1340.66 1063.96 1339.48 1065.55 C 1339.39 1065.5 1339.3 1065.44 1339.21 1065.38 L 1339.71 1064.62 L 1338.32 1063.72 L 1338.51 1064.2 C 1337.91 1062.14 1337.46 1059.99 1337.14 1057.87 C 1334.17 1049.82 1325.31 1020.13 1324.02 1012.42 C 1321.97 1000.08 1328.88 988.913 1322.28 971.701 C 1314.08 950.31 1299.91 942.226 1280.46 932.593 C 1288.71 924.51 1292.14 912.702 1284.9 902.869 C 1271.93 885.242 1242.19 877.834 1221.67 874.14 C 1221.33 819.351 1203.13 765.608 1165.85 724.891 C 1131.96 687.614 1084.58 665.426 1034.26 663.264 C 984.322 661.373 935.648 679.193 898.739 712.876 C 850.815 756.8 834.019 810.151 831.135 873.438 C 811.087 879.116 779.716 886.004 768.348 904.493 C 757.807 921.635 773.713 936.741 787.533 944.354 C 769.864 952.188 750.324 964.02 744.423 984.645 C 743.144 989.115 744.311 993.592 741.416 996.822 C 740.267 996.926 740.455 996.95 739.405 996.739 C 738.956 996.649 735.61 994.868 735.612 994.853 C 737.125 981.35 743.571 975.63 736.916 961.578 C 728.069 942.896 709.185 934.267 691.764 927.405 z" fill="rgb(236,199,183)" transform="translate(0,0)"></path>
<path d="M 1337.14 1057.87 C 1340.12 1052.83 1337.48 1043.82 1339.33 1037.39 L 1339.58 1037.28 C 1339.67 1037.32 1339.77 1037.36 1339.87 1037.4 C 1339.89 1037.48 1339.66 1050.23 1340.15 1054.21 C 1340.33 1056.18 1340.66 1063.96 1339.48 1065.55 C 1339.39 1065.5 1339.3 1065.44 1339.21 1065.38 L 1339.71 1064.62 L 1338.32 1063.72 L 1338.51 1064.2 C 1337.91 1062.14 1337.46 1059.99 1337.14 1057.87 z" fill="rgb(234,205,192)" transform="translate(0,0)"></path>
<path d="M 517.593 1344.43 C 579.049 1349.38 639.533 1400.64 655.135 1459.72 C 665.406 1498.61 672.017 1550.32 673.497 1589.95 C 644.618 1609.46 605.76 1620.05 572.264 1627.8 C 533.119 1635.89 493.34 1640.55 453.384 1641.71 C 377.691 1643.72 270.3 1630.63 203.811 1591.87 C 204.782 1560.44 216.864 1482.36 227.688 1451.2 C 231.816 1439.13 237.427 1427.61 244.392 1416.92 C 269.848 1377.56 306.358 1354.99 351.6 1345.2 C 353.945 1344.86 353.812 1344.77 356.051 1345.47 C 359.238 1350.97 361.749 1359.73 364.646 1365.76 C 372.686 1382.51 389.885 1395.17 406.952 1401.3 C 428.733 1408.94 452.679 1407.47 473.357 1397.21 C 496.441 1385.93 509.417 1368.16 517.593 1344.43 z" fill="rgb(241,120,90)" transform="translate(0,0)"></path>
<path d="M 425.299 688.445 C 498.736 686.132 570.999 723.651 611.989 784.503 C 646.382 835.561 657.413 888.49 656.319 949.174 C 585.184 967.446 512.102 977.061 438.661 977.808 C 354.345 977.317 286.603 967.874 204.799 949.293 C 204.489 929.338 204.561 912.291 207.295 892.472 C 223.371 775.929 307.216 694.679 425.299 688.445 z" fill="rgb(230,162,49)" transform="translate(0,0)"></path>
<path d="M 816.318 989.228 C 833.376 989.04 849.325 985.652 853.52 968.056 C 853.686 967.358 855.56 964.915 856.364 964.997 C 871.781 966.57 919.996 969.358 931.6 975.131 L 931.684 981.134 C 932.977 978.235 933.32 976.21 935.599 974.497 C 950.475 974.999 964.43 976.935 979.125 977.665 C 1018.76 979.635 1058.47 979.157 1098.04 976.233 C 1107.84 975.563 1126.39 974.58 1135.57 973.107 C 1149.01 1000.52 1167.14 1012.87 1196.13 1019.38 C 1204.93 1045.16 1203.92 1070.61 1200.58 1097.03 C 1197.48 1107.35 1195.01 1118.34 1191.09 1128.35 C 1175.56 1168.05 1147.84 1198.62 1110.41 1218.77 C 1106.4 1220.93 1102.33 1223 1098.23 1224.98 C 1059.66 1239.38 1022.09 1243.66 981.507 1234.56 C 972.405 1232.52 963.596 1228.66 954.651 1226.08 L 954.651 1227.55 L 955.863 1228.02 C 957.339 1228.6 957.531 1228.71 958.815 1229.73 C 958.735 1235.05 958.507 1244.33 957.749 1249.46 C 957.092 1250.78 956.735 1252.47 955.396 1252.62 C 926.186 1255.77 905.932 1265.96 882.445 1284.6 C 863.884 1267.72 843.859 1251.84 825.113 1234.83 L 802.645 1154.38 C 801.636 1149.78 801.806 1100.34 802.274 1093.15 L 802.01 1091.3 L 800.224 1090.86 C 798.575 1100.42 801.782 1119.92 799.493 1130.22 L 795.727 1129.73 C 791.251 1114.25 786.527 1098.84 782.28 1083.29 C 784.97 1073.97 787.25 1067.98 786.811 1057.96 L 785.605 1057.34 C 784.968 1054.18 784.904 1055.46 786.708 1052.12 C 789.362 1054.28 787.834 1053.66 791.602 1053.65 C 793.304 1056.2 793.207 1056.63 793.662 1059.77 C 796.744 1029.55 825.64 1018.34 850.622 1032.93 L 851.411 1029.92 C 841.461 1022.8 827.474 1023.13 816.043 1024.47 C 821.453 1010.69 820.598 1003.08 816.318 989.228 z" fill="rgb(185,139,119)" transform="translate(0,0)"></path>
<path d="M 816.318 989.228 C 833.376 989.04 849.325 985.652 853.52 968.056 C 853.686 967.358 855.56 964.915 856.364 964.997 C 871.781 966.57 919.996 969.358 931.6 975.131 L 931.684 981.134 C 916.891 1007.9 889.237 1024.14 858.57 1015.97 C 838.807 1091.56 858.916 1163.43 925.066 1209.24 C 935.149 1216.22 943.982 1220.35 954.651 1226.08 L 954.651 1227.55 L 955.863 1228.02 C 957.339 1228.6 957.531 1228.71 958.815 1229.73 C 958.735 1235.05 958.507 1244.33 957.749 1249.46 C 957.092 1250.78 956.735 1252.47 955.396 1252.62 C 926.186 1255.77 905.932 1265.96 882.445 1284.6 C 863.884 1267.72 843.859 1251.84 825.113 1234.83 L 802.645 1154.38 C 801.636 1149.78 801.806 1100.34 802.274 1093.15 L 802.01 1091.3 L 800.224 1090.86 C 798.575 1100.42 801.782 1119.92 799.493 1130.22 L 795.727 1129.73 C 791.251 1114.25 786.527 1098.84 782.28 1083.29 C 784.97 1073.97 787.25 1067.98 786.811 1057.96 L 785.605 1057.34 C 784.968 1054.18 784.904 1055.46 786.708 1052.12 C 789.362 1054.28 787.834 1053.66 791.602 1053.65 C 793.304 1056.2 793.207 1056.63 793.662 1059.77 C 796.744 1029.55 825.64 1018.34 850.622 1032.93 L 851.411 1029.92 C 841.461 1022.8 827.474 1023.13 816.043 1024.47 C 821.453 1010.69 820.598 1003.08 816.318 989.228 z" fill="url(#Gradient3)" transform="translate(0,0)"></path>
<path d="M 802.274 1093.15 C 804.06 1096.18 803.901 1096.39 804.385 1100.08 C 825.039 1171.52 888.553 1215.71 957.074 1235.64 C 957.164 1239.68 957.112 1245.68 957.749 1249.46 C 957.092 1250.78 956.735 1252.47 955.396 1252.62 C 926.186 1255.77 905.932 1265.96 882.445 1284.6 C 863.884 1267.72 843.859 1251.84 825.113 1234.83 L 802.645 1154.38 C 801.636 1149.78 801.806 1100.34 802.274 1093.15 z" fill="rgb(236,199,183)" transform="translate(0,0)"></path>
<path d="M 802.274 1093.15 C 804.06 1096.18 803.901 1096.39 804.385 1100.08 C 801.897 1104.72 803.189 1145.16 802.645 1154.38 C 801.636 1149.78 801.806 1100.34 802.274 1093.15 z" fill="rgb(145,128,120)" transform="translate(0,0)"></path>
<path d="M 816.318 989.228 C 833.376 989.04 849.325 985.652 853.52 968.056 C 853.686 967.358 855.56 964.915 856.364 964.997 C 871.781 966.57 919.996 969.358 931.6 975.131 C 914.251 1005.22 890.839 1022.1 855.509 1011.37 C 854.237 1017.57 852.871 1023.75 851.411 1029.92 C 841.461 1022.8 827.474 1023.13 816.043 1024.47 C 821.453 1010.69 820.598 1003.08 816.318 989.228 z" fill="rgb(51,25,22)" transform="translate(0,0)"></path>
<path d="M 793.662 1059.77 C 796.744 1029.55 825.64 1018.34 850.622 1032.93 C 847.522 1050.06 846.635 1066.94 847.991 1084.21 C 848.274 1087.81 848.909 1089.34 846.935 1092.45 L 846.142 1092.82 C 840.387 1095.55 839.086 1096.72 832.324 1098.08 C 803.67 1097.72 797.169 1085.48 793.662 1059.77 z" fill="rgb(185,139,119)" transform="translate(0,0)"></path>
<path d="M 822.352 1043.59 C 823.388 1043.82 824.98 1043.85 825.504 1044.8 C 825.673 1045.1 825.7 1045.46 825.579 1045.79 C 824.103 1049.78 810.345 1055.77 819.629 1069.9 L 821.409 1072.58 C 821.208 1072.63 819.765 1073.07 819.683 1073.03 C 805.88 1066.61 817.898 1048.02 822.352 1043.59 z" fill="rgb(5,3,2)" transform="translate(0,0)"></path>
<path d="M 786.811 1057.96 C 791.899 1056.43 789.914 1061.52 790.221 1065.5 C 790.92 1074.56 794.51 1080.98 799.09 1088.54 C 799.036 1100.13 798.654 1119.05 799.493 1130.22 L 795.727 1129.73 C 791.251 1114.25 786.527 1098.84 782.28 1083.29 C 784.97 1073.97 787.25 1067.98 786.811 1057.96 z" fill="rgb(185,139,119)" transform="translate(0,0)"></path>
<path d="M 846.935 1092.45 C 848.322 1095.04 847.364 1096.14 844.432 1097.39 C 839.539 1099.46 832.72 1102.01 827.475 1100.81 C 827.002 1100.7 826.335 1099.87 826.644 1099.56 C 827.523 1098.66 831.242 1098.33 832.324 1098.08 C 839.086 1096.72 840.387 1095.55 846.142 1092.82 L 846.935 1092.45 z" fill="rgb(5,3,2)" transform="translate(0,0)"></path>
<path d="M 937.514 1040.13 C 952.751 1040.26 956.038 1048.16 959.432 1061.24 C 956.354 1074.26 954.723 1077.9 941.938 1082.51 C 938.283 1082.26 935.958 1082.46 932.5 1080.99 C 926.888 1078.61 922.453 1074.1 920.174 1068.45 C 914.457 1054.28 925.246 1044.52 937.514 1040.13 z" fill="rgb(5,3,2)" transform="translate(0,0)"></path>
<path d="M 1107.58 1040.32 C 1132.17 1044.32 1131.13 1077.67 1109.46 1082.17 L 1106.06 1082.84 C 1080.98 1077.91 1078.15 1045.62 1107.58 1040.32 z" fill="rgb(5,3,2)" transform="translate(0,0)"></path>
<path d="M 998.342 1150.8 C 1006.98 1151.69 1010.93 1159.13 1025.5 1159.08 C 1033.94 1159.04 1047.42 1152.78 1049.35 1152.88 C 1050.19 1153.47 1050.08 1153.88 1050.4 1155.07 C 1037.91 1162.02 1025.59 1165.76 1011.51 1160.21 C 1005.4 1157.8 1000.99 1157.01 998.342 1150.8 z" fill="rgb(5,3,2)" transform="translate(0,0)"></path>
<path d="M 1033.55 1075.5 C 1043.84 1078.44 1040.53 1095.55 1029.02 1097.74 C 1024.5 1098.63 1019.82 1097.57 1016.13 1094.83 C 1015.36 1094.27 1014.52 1093.61 1013.75 1093.03 C 1013.35 1092.3 1010.27 1087.45 1012.57 1086.87 C 1015.53 1086.44 1015.64 1090.84 1018.66 1092.42 C 1023.71 1095.06 1031.82 1095.04 1035.03 1089.56 C 1037.77 1084.89 1034.57 1080.62 1033.55 1075.5 z" fill="rgb(5,3,2)" transform="translate(0,0)"></path>
<path d="M 932.4 1015.07 C 939.518 1014.65 953.565 1015.79 957.276 1023.11 L 956.813 1024.28 C 955.127 1024.76 946.69 1019.77 944.155 1018.67 C 931.124 1017.36 931.921 1019.52 920.504 1024.65 C 920.196 1024.79 919.659 1024.61 919.32 1024.36 C 917.775 1020.72 930.034 1015.96 932.4 1015.07 z" fill="rgb(5,3,2)" transform="translate(0,0)"></path>
<path d="M 1104.52 1015.26 C 1110.68 1015.1 1123.82 1016.53 1126.46 1023.17 L 1125.43 1024.03 C 1124.23 1024.07 1116.05 1019.53 1109.53 1018.19 C 1101.71 1018.47 1097.8 1019.65 1091.48 1024.32 C 1090.36 1025.15 1088.46 1023.18 1089.49 1022.14 C 1093.54 1018.03 1099.05 1016.42 1104.52 1015.26 z" fill="rgb(5,3,2)" transform="translate(0,0)"></path>
<path d="M 181.894 1035.28 C 218.102 1045.07 258.376 1051.3 295.531 1055.55 C 418.908 1070.06 543.824 1064.35 665.362 1038.65 C 668.489 1052.7 669.028 1067.91 670.027 1082.35 C 620.825 1074.28 596.099 1122.44 622.188 1163.65 C 615.761 1181.41 606.19 1197.53 595.977 1213.27 C 581.169 1233.45 567.973 1249.71 548.233 1265.37 C 363.291 1412.16 162.658 1245.24 181.894 1035.28 z" fill="rgb(107,77,35)" transform="translate(0,0)"></path>
<path d="M 1095.63 1256.21 C 1128.61 1259.85 1147.93 1267.55 1173.1 1289.83 C 1208.65 1321.27 1218.28 1360.59 1225.35 1405.4 C 1227.71 1420.31 1229.63 1434.7 1230.28 1450.04 C 1172.9 1482.83 1071.63 1494.36 1006.74 1492.93 C 975.813 1492.1 944.973 1489.17 914.44 1484.16 C 879.254 1477.53 855.442 1472.54 822.282 1459.12 C 827.033 1405.28 833.022 1337.91 873.023 1297.46 C 893.862 1276.38 924.412 1257.36 954.75 1256.64 C 955.956 1260.1 957.319 1263.5 958.835 1266.84 C 966.46 1283.62 980.512 1296.64 997.831 1302.95 C 1016.96 1309.84 1038.03 1308.85 1056.43 1300.21 C 1076.25 1290.99 1088.38 1276.49 1095.63 1256.21 z" fill="rgb(241,120,90)" transform="translate(0,0)"></path>
<path d="M 1014.67 666.418 C 1015.76 666.278 1017.41 666.257 1018.53 666.214 C 1067.86 664.323 1115.95 682.01 1152.3 715.419 C 1202.46 762.054 1216.72 817.331 1218.99 883.057 C 1154.25 899.636 1106.5 906.871 1039.5 908.304 C 970.258 909.581 901.178 901.164 834.268 883.296 C 834.43 827.845 846.126 777.652 882.629 734.221 C 917.193 693.096 961.385 671.065 1014.67 666.418 z" fill="rgb(230,162,49)" transform="translate(0,0)"></path>
<path d="M 690.573 991.227 C 702.456 990.346 714.4 991.626 725.826 995.007 C 769.325 1007.75 793.105 1038.48 778.898 1083.57 C 792.905 1131.35 806.512 1179.24 819.719 1227.25 C 849.396 1333.19 856.49 1325.99 777.786 1405.07 L 677.727 1505.2 L 668.666 1514.96 C 664.69 1469.81 652.559 1429.33 622.369 1394.82 C 661.74 1362.77 702.199 1326.68 741.208 1293.78 C 735.433 1238.71 731.118 1173.49 726.931 1117.86 C 690.485 1110.42 672.466 1075.26 688.306 1041.23 C 643.235 1035.28 647.208 999.112 690.573 991.227 z" fill="rgb(185,139,119)" transform="translate(0,0)"></path>
<path d="M 659.236 922.478 C 693.904 929.685 752.866 945.505 731.881 993.373 C 708.528 986.867 659.572 979.648 653.374 1017.63 C 652.287 1024.29 659.034 1031.69 663.656 1036.21 C 510.234 1068.56 351.751 1068.55 198.334 1036.17 C 100.843 1014.78 113.154 945.022 201.89 933.374 L 202.053 951.571 C 229.88 959.357 264.85 964.995 293.586 969.626 C 414.288 989.078 540.672 982.959 659.183 951.434 L 659.236 922.478 z" fill="rgb(230,162,49)" transform="translate(0,0)"></path>
<path d="M 166.738 1030.83 C 169.442 1031.26 175.992 1033.41 178.935 1034.3 C 177.1 1047.4 177.221 1060.87 177.667 1074.06 C 164.643 1081.41 155.958 1091.37 151.522 1105.89 C 147.211 1119.96 148.679 1135.17 155.603 1148.15 C 162.672 1161.15 172.287 1168 186.142 1172.16 C 184.128 1185.67 182.926 1205.47 181.729 1219.37 L 174.247 1307.21 C 205.426 1332.6 235.797 1359.41 266.567 1385.38 C 235.319 1416.49 222.494 1445.47 214.784 1488.54 L 214.277 1489.33 C 208.819 1486.66 104.12 1376.97 94.1164 1365.83 C 90.4142 1361.77 87.108 1357.37 84.2428 1352.68 C 66.6914 1323.47 84.8787 1277.77 93.7209 1247.09 C 102.207 1217.94 110.465 1188.72 118.496 1159.44 C 123.207 1142.8 128.038 1126.01 132.588 1109.5 C 138.292 1088.8 126.951 1075.91 139.731 1056.02 C 148.443 1042.46 152.634 1038.92 166.738 1030.83 z" fill="rgb(185,139,119)" transform="translate(0,0)"></path>
<path d="M 1240.97 930.228 C 1268.7 928.533 1293.83 937.108 1311.74 958.762 C 1328.35 978.848 1319.24 990.959 1320.42 1011.3 C 1321.32 1026.76 1339.66 1064.56 1339.52 1080 C 1338.92 1147.15 1335.17 1217.53 1325.63 1284.02 C 1315.66 1291.8 1300.37 1308.07 1290.82 1317.42 C 1268.27 1339.24 1245.97 1361.31 1223.91 1383.62 L 1221.32 1368.64 C 1214.57 1336.63 1200.26 1311.98 1176.86 1289.16 C 1209.67 1263 1246.62 1228.81 1279.2 1201.01 C 1276.1 1150.46 1270.5 1088.87 1269.78 1038.7 C 1239.03 1030.89 1235.17 995.302 1251.07 971.493 C 1210.33 969.573 1198.22 941.128 1240.97 930.228 z" fill="rgb(185,139,119)" transform="translate(0,0)"></path>
<path d="M 830.167 877.21 L 831.25 878.524 C 831.23 879.619 831.175 883.638 831.68 883.998 C 840.649 890.388 873.857 895.796 883.532 897.686 C 982.809 917.36 1085.08 916.298 1183.93 894.569 C 1194.66 892.176 1207.71 889.421 1218.36 886.292 C 1220.68 885.61 1221.89 881.767 1222.69 879.455 L 1223.07 878.33 C 1240.73 877.076 1290.11 896.189 1286.06 918.235 C 1285.64 920.494 1280.83 929.755 1279.38 929.621 C 1257.75 927.634 1239.82 922.524 1220.27 935.722 L 1219.16 936.478 C 1211.29 944.979 1211.16 948.741 1212.57 959.768 L 1211.52 960.782 C 1205.26 962.555 1174.22 965.618 1165.46 966.787 C 1057.69 981.177 961.615 976.599 854.576 961.71 C 841.376 937.464 815.127 937.434 791.278 943.084 C 779.074 935.931 760.994 922.922 771.159 906.356 C 782.146 888.45 811.176 882.184 830.167 877.21 z" fill="rgb(230,162,49)" transform="translate(0,0)"></path>
<path d="M 624.226 1166.41 C 640.236 1179.34 648.546 1181.58 668.646 1179.84 C 647.203 1247.59 589.847 1303.76 519.307 1317.37 C 515.266 1348.69 507.01 1374.11 478.014 1391.34 C 456.19 1404.31 434.135 1405.36 409.893 1399.22 C 386.763 1390.07 362.638 1373.05 364.69 1345.01 C 365.288 1336.84 365.937 1328.69 366.65 1320.52 C 472.305 1336.84 573.834 1275.31 618.411 1179.58 C 620.435 1175.23 622.324 1170.81 624.226 1166.41 z" fill="rgb(185,139,119)" transform="translate(0,0)"></path>
<path d="M 1266.31 1050.85 C 1271.3 1098.23 1272.09 1151.03 1276.18 1199.47 C 1255.26 1217.14 1234.5 1235 1213.9 1253.03 C 1201.63 1263.77 1187.33 1277.01 1174.6 1286.93 C 1155.31 1270.55 1134.29 1257.83 1108.7 1254.76 C 1104.71 1254.28 1097.16 1254.13 1097.08 1249.46 L 1096.89 1243.31 C 1097.39 1237.9 1096.14 1235.15 1095.43 1229.75 C 1096.79 1224.5 1097.45 1230.06 1098.23 1224.98 C 1102.33 1223 1106.4 1220.93 1110.41 1218.77 C 1147.84 1198.62 1175.56 1168.05 1191.09 1128.35 C 1195.01 1118.34 1197.48 1107.35 1200.58 1097.03 L 1202.37 1097.01 L 1202.08 1094.64 C 1209.09 1096.71 1214.84 1100.38 1221.87 1101.88 C 1228.38 1103.27 1236.11 1100.12 1241.69 1101.83 L 1242.49 1103.51 C 1240.99 1107.75 1237 1116.45 1238.36 1120.15 C 1241.4 1113.49 1243.93 1104.76 1245.41 1097.6 C 1262.67 1083.78 1266.59 1073.79 1263.06 1051.89 L 1266.31 1050.85 z" fill="rgb(236,199,183)" transform="translate(0,0)"></path>
<path d="M 1200.58 1097.03 L 1202.37 1097.01 L 1202.08 1094.64 C 1209.09 1096.71 1214.84 1100.38 1221.87 1101.88 C 1228.38 1103.27 1236.11 1100.12 1241.69 1101.83 L 1242.49 1103.51 C 1240.99 1107.75 1237 1116.45 1238.36 1120.15 C 1214.61 1177.95 1156.13 1215.4 1098.75 1233.64 C 1098.4 1237.62 1097.87 1245.91 1097.08 1249.46 L 1096.89 1243.31 C 1097.39 1237.9 1096.14 1235.15 1095.43 1229.75 C 1096.79 1224.5 1097.45 1230.06 1098.23 1224.98 C 1102.33 1223 1106.4 1220.93 1110.41 1218.77 C 1147.84 1198.62 1175.56 1168.05 1191.09 1128.35 C 1195.01 1118.34 1197.48 1107.35 1200.58 1097.03 z" fill="url(#Gradient2)" transform="translate(0,0)"></path>
<path d="M 189.155 1172.99 L 199.264 1173.12 C 204.559 1186.46 210.876 1199.38 218.158 1211.75 C 253.268 1270.97 297.344 1303.03 363.226 1319.98 C 363.12 1326.71 363.294 1334.82 361.999 1341.32 C 360.443 1343.33 356.756 1342.15 352.876 1342.43 C 341.621 1343.24 330.864 1347.18 320.304 1350.84 C 299.509 1359.01 285.62 1369.07 268.539 1383.01 C 238.196 1359.07 208.529 1330.78 177.602 1306.16 C 179.298 1265.65 185.486 1214.1 189.155 1172.99 z" fill="rgb(255,255,255)" transform="translate(0,0)"></path>
<path d="M 689.718 1176.44 C 690.853 1179.02 691.233 1193.37 691.521 1197.23 C 694.64 1238.94 698.219 1277.88 706.303 1319.06 C 678.503 1343.69 648.61 1368.44 620.239 1392.53 C 611.28 1377.13 604.399 1301.85 602.651 1281.4 C 644.27 1251.27 667.916 1223.22 689.718 1176.44 z" fill="rgb(230,162,49)" transform="translate(0,0)"></path>
<path d="M 1095.43 1229.75 C 1096.14 1235.15 1097.39 1237.9 1096.89 1243.31 C 1094.91 1246.01 1095.99 1250.43 1096.56 1254.16 L 1096.66 1254.77 L 1093.52 1256.22 L 1091.8 1255.38 L 1091.9 1258.01 C 1087.57 1268.16 1083.69 1275.09 1075.7 1283.04 C 1061.79 1296.69 1043.05 1304.29 1023.56 1304.2 C 1005.78 1304.1 986.339 1297.23 974.128 1284.1 C 956.377 1265 959.6 1254.58 960.143 1231.36 C 969.478 1234.98 979.698 1236.67 988.764 1239.84 C 1004.83 1245.45 1015.19 1250.64 1032.32 1253.49 L 1033.44 1252.75 C 1032.78 1252.3 1009.38 1245.82 1008.27 1245.81 L 1008.72 1244 C 1011.95 1241.59 1016.76 1242.27 1020.67 1242.31 C 1046.05 1242.59 1071.62 1238.74 1095.43 1229.75 z" fill="rgb(185,139,119)" transform="translate(0,0)"></path>
<path d="M 1095.43 1229.75 C 1096.14 1235.15 1097.39 1237.9 1096.89 1243.31 C 1094.91 1246.01 1095.99 1250.43 1096.56 1254.16 L 1096.66 1254.77 L 1093.52 1256.22 L 1091.8 1255.38 L 1091.9 1258.01 C 1087.77 1256.51 1069.09 1257.47 1063.35 1257.24 C 1053.29 1256.84 1042.09 1256.27 1032.32 1253.49 L 1033.44 1252.75 C 1032.78 1252.3 1009.38 1245.82 1008.27 1245.81 L 1008.72 1244 C 1011.95 1241.59 1016.76 1242.27 1020.67 1242.31 C 1046.05 1242.59 1071.62 1238.74 1095.43 1229.75 z" fill="url(#Gradient1)" transform="translate(0,0)"></path>
<path d="M 648.753 1086.53 C 664.74 1083.03 681.38 1088.37 692.327 1100.54 C 703.275 1112.71 706.844 1129.82 701.673 1145.35 C 696.502 1160.88 683.388 1172.43 667.331 1175.6 C 642.863 1180.44 619.062 1164.68 613.969 1140.26 C 608.877 1115.85 624.392 1091.88 648.753 1086.53 z" fill="rgb(185,139,119)" transform="translate(0,0)"></path>
<path d="M 744.785 999.069 C 745.59 994.434 746.588 987.955 748.231 983.65 C 758.943 955.66 794.341 939.131 822.987 943.886 C 834.135 945.736 854.158 953.976 850.637 967.928 C 846.126 985.804 824.169 985.454 810.342 984.53 C 830.196 1029.07 799.639 1021.92 791.602 1053.65 C 787.834 1053.66 789.362 1054.28 786.708 1052.12 C 780.95 1027.66 773.873 1016.9 751.682 1003.22 C 749.4 1001.81 747.101 1000.42 744.785 999.069 z" fill="rgb(185,139,119)" transform="translate(0,0)"></path>
<path d="M 1323 1289.77 C 1323.73 1290.93 1324.22 1291.02 1324.01 1292.3 C 1315.61 1344.99 1295.85 1398.86 1253.56 1433.77 C 1250.45 1436.35 1236.07 1447.28 1233.27 1447 L 1232.54 1444.36 C 1231.8 1425.14 1229.2 1406.04 1224.79 1387.32 C 1254.52 1355.67 1291.67 1320.95 1323 1289.77 z" fill="rgb(236,199,183)" transform="translate(0,0)"></path>
<path d="M 1139.2 973.017 C 1163.68 970.454 1188.17 967.096 1212.37 962.737 C 1214.21 962.404 1219.91 966.255 1221.24 967.577 C 1226.48 972.778 1239.57 972.005 1244.29 975.851 C 1242.6 981.25 1240.16 984.659 1239.18 990.192 C 1236.76 1003.97 1239.69 1016.87 1247.58 1028.29 L 1248.32 1029.35 C 1234.94 1024.43 1219.15 1017.91 1208.07 1030.59 C 1207.53 1031.22 1207 1031.28 1206.17 1031.6 C 1201.24 1028.37 1200.84 1022.99 1199.16 1016.92 C 1173.05 1012.26 1150.26 998.053 1139.2 973.017 z" fill="rgb(51,25,22)" transform="translate(0,0)"></path>
<path d="M 598.396 1284.88 C 600.863 1286.73 603.276 1317.87 603.874 1322.99 C 606.197 1344.34 609.656 1365.55 614.236 1386.52 C 597.442 1372.27 587.507 1364.52 567.459 1355 C 551.993 1347.49 535.296 1343.26 518.277 1341.3 C 519.803 1334.52 521.044 1327.3 522.339 1320.45 C 552.467 1313.98 573.207 1302.17 598.396 1284.88 z" fill="rgb(255,255,255)" transform="translate(0,0)"></path>
<path d="M 713.357 1117.35 C 716.984 1118.35 720.588 1118.92 724.289 1119.58 C 726.124 1165.15 731.655 1218.66 735.414 1264.83 C 732.583 1261.41 729.223 1257.8 726.245 1254.45 C 676.594 1200.54 694.594 1179.65 713.357 1117.35 z" fill="rgb(185,139,119)" transform="translate(0,0)"></path>
<path d="M 1208.07 1030.59 C 1227.32 1023.64 1250.31 1026.6 1258.31 1047.95 C 1262.3 1058.36 1261.81 1069.95 1256.98 1080 C 1246.22 1101.83 1223.56 1102.41 1204.98 1090.44 C 1205.46 1074.04 1207.55 1059.14 1204.59 1042.57 C 1203.47 1036.27 1201.83 1035.4 1206.17 1031.6 C 1207 1031.28 1207.53 1031.22 1208.07 1030.59 z" fill="rgb(185,139,119)" transform="translate(0,0)"></path>
<path d="M 1226.9 1044.09 C 1240.69 1043.04 1244.82 1063.84 1234.88 1074.03 C 1232.99 1071.77 1233.58 1070.9 1235.24 1068.18 C 1239.04 1061.96 1236.69 1052.14 1230.92 1047.96 C 1228.48 1046.2 1228.45 1046.96 1226.9 1044.09 z" fill="rgb(5,3,2)" transform="translate(0,0)"></path>
<path d="M 808.443 1378.69 C 811.885 1380.56 823.909 1393.25 827.282 1396.69 C 822.934 1419.36 821.32 1434.84 819.327 1457.66 C 810.686 1453.9 805.241 1451.02 797.04 1446.44 C 785.624 1439.63 775.123 1431.4 765.792 1421.93 C 779.055 1407.72 794.65 1392.76 808.443 1378.69 z" fill="rgb(236,199,183)" transform="translate(0,0)"></path>
<path d="M 175.34 1078.79 L 176.937 1079.22 C 178.818 1082.81 180.818 1108.79 182.009 1114.9 C 185.653 1133.57 191.376 1150.38 196.761 1168.4 L 195.929 1169.6 C 189.517 1170.72 184.749 1168.5 178.79 1166.26 C 143.692 1147.47 144.015 1101.83 175.34 1078.79 z" fill="rgb(185,139,119)" transform="translate(0,0)"></path>
<path d="M 826.846 1241.47 C 831.285 1243.51 871.114 1278.94 880.888 1285.86 C 851.939 1312.46 840.207 1335.56 831.298 1373.17 C 829.98 1379.16 829.004 1386.89 828.049 1393.07 C 822.808 1387.29 816.618 1381.51 810.991 1376.04 C 859.874 1330.03 842.986 1297.06 826.846 1241.47 z" fill="rgb(185,139,119)" transform="translate(0,0)"></path>
<path d="M 700.045 1225.86 C 705.806 1240.36 726.199 1256.81 736.02 1270.82 C 736.641 1278.08 737.111 1285.36 737.428 1292.65 L 708.708 1316.8 C 702.804 1284.87 699.598 1260.92 696.967 1228.28 L 700.045 1225.86 z" fill="rgb(236,199,183)" transform="translate(0,0)"></path>
<path d="M 672.858 1178.69 C 679.536 1175.65 682.08 1174.01 688.213 1169.85 C 675.522 1199.17 660.783 1225.16 638.079 1248.15 L 636.599 1247.03 C 656.067 1221.31 660.895 1207.66 672.858 1178.69 z" fill="rgb(107,77,35)" transform="translate(0,0)"></path>
<path d="M 668.67 1039.78 C 675.041 1042.01 677.309 1042.49 683.76 1043.7 C 677.395 1060.2 677.726 1069.29 682.942 1085.8 C 683.13 1090.11 677.485 1085.25 673.078 1083.3 C 672.701 1066.45 671.977 1056.09 668.67 1039.78 z" fill="rgb(185,139,119)" transform="translate(0,0)"></path>
<path d="M 1263.06 1051.89 C 1259.97 1043.58 1258.85 1043.03 1254.46 1036.08 L 1254.04 1035.41 C 1267.41 1042.25 1265.94 1037.33 1266.31 1050.85 L 1263.06 1051.89 z" fill="rgb(234,205,192)" transform="translate(0,0)"></path>
<path d="M 702.156 1110.71 C 711.622 1115.81 710.906 1115.31 707.633 1124.79 C 707.266 1125.2 706.899 1125.61 706.532 1126.02 C 706.746 1126.31 702.415 1111.65 702.156 1110.71 z" fill="rgb(255,255,255)" transform="translate(0,0)"></path>
<path d="M 799.493 1130.22 L 799.378 1130.96 C 799.161 1132.41 799.137 1135.44 798.581 1136.54 L 798.384 1136.65 C 797.323 1136.07 796.157 1131.04 795.727 1129.73 L 799.493 1130.22 z" fill="rgb(185,139,119)" transform="translate(0,0)"></path>
<path d="M 695.472 1161.72 C 696.216 1165.5 695.301 1167.45 693.479 1170.83 C 692.093 1165.55 691.931 1166 695.472 1161.72 z" fill="rgb(236,199,183)" transform="translate(0,0)"></path>
<path d="M 636.599 1247.03 L 638.079 1248.15 C 634.589 1252.24 632.121 1254.31 627.905 1257.55 C 630.479 1254.45 634.014 1249.85 636.599 1247.03 z" fill="rgb(107,77,35)" transform="translate(0,0)"></path>
<path d="M 696.967 1228.28 C 696.867 1226.69 696.181 1222.44 696.764 1221.5 C 697.829 1221.34 699.39 1224.84 700.045 1225.86 L 696.967 1228.28 z" fill="rgb(234,205,192)" transform="translate(0,0)"></path>
<metadata><recraft-signature>{"signed_by": "recraft", "signature_b64": "B9htm6TcULmA46bHvAxEZDu6VL16atdVo6aSElUH1jIpzYG14WYBArxewXDm+Qls3dHh9eRpQK4njQ2nyw+XAg==", "signing_algo": "Ed25519", "generation_timestamp": 1779099381, "identifier": "bc9068f5-2668-4102-8931-5badd0e0add5"}</recraft-signature></metadata></svg>