<svg xmlns="http://www.w3.org/2000/svg" height="1152" preserveAspectRatio="none" style="display: block;" version="1.1" viewBox="0 0 1593 2048" width="896">
<path d="M 0 0 L 1593 0 L 1593 2048 L 0 2048 L 0 0 z" fill="rgb(249,248,247)" transform="translate(0,0)"></path>
<path d="M 331.957 528.378 L 332.165 386.976 C 332.172 322.688 323.05 262.401 373.312 212.563 C 392.838 192.979 418.015 180.011 445.297 175.486 C 463.272 172.604 514.115 173.847 534.321 173.876 L 696.48 173.769 L 1282.6 173.867 C 1329.52 174.275 1365.91 194.918 1390.88 235.037 C 1412.6 269.951 1410.35 299.879 1410.33 338.89 L 1410.24 427.035 L 1410.24 720.508 L 1410.22 1494.06 L 1410.3 1758.28 C 1410.33 1801.82 1409.12 1853.21 1410.63 1896.13 L 1020.34 1896.22 C 958.005 1896.19 890.701 1897.42 828.731 1895.87 C 825.435 1896.15 820.821 1896.11 817.463 1896.07 C 791.257 1895.8 764.737 1896.64 738.563 1895.86 C 718.488 1896.59 694.963 1896.09 674.646 1896.12 L 555.625 1896.2 L 212.318 1896.04 C 214.786 1878.64 216.947 1861.13 218.814 1843.66 C 226.583 1770.99 237.736 1698.55 246.09 1626 C 249.864 1592.96 253.852 1559.95 258.055 1526.96 C 263.134 1486.16 265.614 1452.72 279.95 1413.92 C 294.075 1375.69 308.153 1359.45 331.831 1328.36 L 332.193 1068.77 C 326.508 1064.3 320.871 1059.78 315.284 1055.19 C 300.223 1044.64 277.359 1022.02 265.398 1008.17 C 261.622 1004.15 259.871 1002.31 256.727 997.728 C 204.72 936.783 178.556 862.601 184.994 782.446 C 189.834 722.199 213.94 670.418 273.197 647.108 C 273.895 640.962 274.593 634.802 275.451 628.677 C 280.862 590.029 303.911 554.598 331.957 528.378 z" fill="rgb(7,5,4)" transform="translate(0,0)"></path>
<path d="M 433.284 473.313 L 433.22 418.378 C 433.223 378.353 433.234 347.208 464.05 316.14 C 494.337 285.606 521.642 284.987 560.979 284.964 L 953.55 284.979 L 1063.73 285.017 C 1081.28 285.032 1111.87 284.041 1127.97 286.766 C 1149.31 290.175 1169.03 300.225 1184.33 315.486 C 1198.47 329.477 1208.39 347.163 1212.95 366.524 C 1216.56 381.67 1215.89 407.83 1215.9 424.191 L 1215.87 493.123 L 1215.76 1438.86 C 1215.83 1589.5 1214.31 1742.73 1215.87 1893.07 C 1106.95 1892.94 993.78 1891.3 885.241 1893.18 C 882.494 1860.82 875.753 1822.97 871.213 1790.24 L 837.477 1558.91 C 858.775 1539.69 867.138 1520.63 879.502 1495.74 C 887.92 1479.05 896.46 1462.41 905.124 1445.84 L 1010.16 1242.85 C 1032.45 1202.94 1051.81 1160.28 1074.11 1120.24 C 1080.39 1108.96 1087.31 1095.85 1092.56 1084.1 C 1078.22 1079.04 1061.19 1071.4 1046.94 1065.45 C 1057.47 1044.51 1067.7 1023.41 1077.6 1002.17 C 1099.87 989.101 1107.45 979.663 1115.33 953.843 C 1121.76 932.807 1125.26 909.958 1129.2 888.226 L 1143.87 807.513 C 1146.38 793.062 1149.01 778.632 1151.75 764.222 C 1154.12 751.764 1159.89 734.971 1153.39 723.75 C 1150.27 718.472 1145.12 714.698 1139.15 713.303 C 1130.09 711.11 1124.59 713.269 1117.14 717.574 C 1121.57 695.7 1135.26 656.797 1102.13 652.443 C 1096.74 651.734 1089.7 655.808 1085.22 658.427 C 1087.91 647.3 1092.32 634.207 1086.02 623.705 C 1082.7 618.262 1077.35 614.362 1071.16 612.864 C 1046.12 606.679 1042.75 635.781 1039.07 652.449 C 1030.98 641.622 1020.16 631.892 1005.54 639.347 C 996.952 643.723 994.647 653.654 992.493 662.334 C 989.167 675.736 985.848 689.23 982.418 702.66 C 972.27 743.381 961.774 784.014 950.931 824.556 C 942.942 802.817 934.036 775.241 904.424 778.217 C 898.706 778.792 891.953 782.083 887.661 786.009 C 855.056 815.829 898.605 840.383 909.036 867.587 C 924.279 907.309 917.135 947.347 956.017 975.024 C 948.385 989.434 939.523 1004.37 931.35 1018.56 L 918.781 1012.62 C 903.804 1036.88 884.613 1075.41 870.711 1101.23 L 786.944 1256.39 C 774.239 1279.93 761.795 1304.66 748.687 1327.8 C 717.255 1284.92 675.56 1258.6 625.986 1240.49 C 626.038 1229.73 625.981 1218.97 625.815 1208.22 C 626.396 1196.27 624.49 1169.69 626.12 1160 C 634.83 1159.77 647.911 1156.74 656.458 1154.43 C 703.414 1141.34 746.007 1115.91 779.808 1080.78 C 827.88 1030.83 853.673 963.539 851.306 894.254 C 850.039 849.647 836.202 815.522 823.389 773.604 C 814.315 743.916 805.621 714.435 794.642 685.319 C 789.947 672.429 785.268 657.365 779.486 645.068 C 817.707 600.713 844.052 552.937 839.909 492.056 C 839.396 485.423 838.519 478.822 837.282 472.285 C 768.428 508.693 697.806 512.769 623.954 489.144 C 557.842 467.994 502.409 456.857 433.284 473.313 z" fill="rgb(159,112,79)" transform="translate(0,0)"></path>
<path d="M 1130.25 1200.24 C 1145.79 1198.5 1159.72 1201.98 1172.43 1211.58 C 1226.22 1252.18 1195.58 1348.02 1123.99 1332.62 C 1119.28 1331.6 1112.08 1327.69 1107.79 1329.02 C 1098.79 1331.23 1088.64 1332.07 1079.5 1330.38 C 1064.55 1327.51 1051.37 1318.76 1042.93 1306.09 C 1012.42 1260.71 1046.77 1195.44 1107.21 1208.48 C 1116.22 1203.39 1120.07 1202.03 1130.25 1200.24 z" fill="rgb(7,5,4)" transform="translate(0,0)"></path>
<path d="M 1081.41 1210.15 C 1156.46 1202.03 1171.12 1309.23 1101.96 1326.9 C 1087.92 1329.53 1074.69 1327.87 1062.34 1320.48 C 1049.55 1312.65 1040.43 1300.02 1037.02 1285.41 C 1028.7 1251.24 1046.47 1218.28 1081.41 1210.15 z" fill="rgb(97,62,39)" transform="translate(0,0)"></path>
<path d="M 1128.54 1203.17 C 1218.73 1195.54 1219.35 1340.06 1128.73 1330.89 C 1122.63 1329.7 1119.03 1328.35 1113.14 1326.26 C 1125.81 1320.24 1130.17 1316.1 1138.79 1305.06 C 1145.01 1303.49 1148.75 1302.62 1154.09 1298.7 C 1161.97 1292.98 1167.23 1284.36 1168.72 1274.74 C 1171.47 1255.89 1160.53 1237.35 1140.76 1234.82 C 1131.89 1221.58 1124.66 1215.67 1110.27 1209.65 C 1117.13 1205.93 1121.01 1204.81 1128.54 1203.17 z" fill="rgb(97,62,39)" transform="translate(0,0)"></path>
<path d="M 1142.1 1237.58 C 1149.36 1238.95 1150.19 1239.97 1155.52 1244.97 C 1171.46 1259.93 1168.35 1280.89 1153.49 1295.76 C 1147.25 1299.9 1148.12 1299.14 1141.16 1301.56 C 1155.13 1273.46 1152.47 1265.51 1142.1 1237.58 z" fill="rgb(27,22,21)" transform="translate(0,0)"></path>
<path d="M 919.52 1016.74 C 975.743 1040.48 1032.39 1062.36 1088.55 1086.08 C 1063 1136.8 1034.73 1189.18 1008.38 1239.72 L 908.219 1433.19 L 879.511 1488.8 C 868.073 1511.13 861.796 1528.35 844.363 1547.43 C 823.805 1569.94 797.093 1588.99 767.839 1597.74 C 751.309 1602.68 723.645 1609.1 706.824 1607.38 C 673.362 1603.95 634.662 1594.31 601.536 1587.02 L 437.179 1551.02 C 432.12 1549.87 398.308 1541.63 395.501 1542.37 L 395.599 1543.89 C 401.175 1546.65 439.069 1554.71 449.021 1557.63 C 470.339 1562.28 495.157 1569.57 516.382 1575.33 L 618.79 1602.81 C 672.69 1617.17 730.676 1638.21 782.569 1605.15 C 784.028 1604.22 785.468 1603.26 786.89 1602.27 L 788.61 1600.44 C 789.029 1600.77 789.982 1601.42 790.244 1601.8 C 789.06 1684.12 793.208 1769.35 789.449 1851.83 C 789.027 1861.09 783.174 1873.21 776.321 1879.19 C 761.166 1893.42 746.549 1892.39 727.801 1893.1 C 713.39 1892.2 686.29 1893.08 670.814 1893.11 L 557.271 1893.23 L 215.58 1893.25 C 221.387 1859.49 224.108 1821.83 228.464 1787.54 C 235.451 1732.52 243.132 1677.43 249.393 1622.37 C 252.935 1590.85 256.781 1559.36 260.931 1527.91 C 266.577 1483.43 269.478 1442.97 288.084 1401.64 C 316.921 1337.58 369.527 1285.3 435.081 1259.74 C 465.702 1306.01 521.06 1332.06 576.25 1322.4 C 613.892 1315.99 647.384 1294.73 669.213 1263.4 C 704.165 1283.09 722.81 1298.26 747.415 1329.9 C 735.425 1352.74 723.183 1375.45 710.69 1398.01 L 523.001 1349.47 L 454.815 1332.03 C 446.275 1329.85 423.215 1322.53 415.983 1323.56 L 416.038 1324.54 C 421.58 1327.8 475.979 1340.36 486.676 1343.13 C 560.759 1362.91 634.999 1382.1 709.391 1400.69 C 704.969 1408.85 699.308 1418.59 696.91 1427.4 L 697.874 1427.18 C 705.573 1415.99 715.743 1395.48 722.489 1382.99 C 737.777 1355.01 752.823 1326.89 767.625 1298.65 L 871.231 1106.53 C 886.912 1077.65 903.324 1044.8 919.52 1016.74 z" fill="rgb(253,184,90)" transform="translate(0,0)"></path>
<path d="M 449.021 1557.63 C 470.339 1562.28 495.157 1569.57 516.382 1575.33 L 618.79 1602.81 C 672.69 1617.17 730.676 1638.21 782.569 1605.15 C 784.028 1604.22 785.468 1603.26 786.89 1602.27 C 782.969 1619.16 749.5 1634.95 734.302 1639.3 C 676.583 1655.82 632.653 1638.93 583.392 1611.6 C 542.987 1623.84 534.075 1595.88 499.929 1580.53 C 492.781 1577.32 452.401 1561.1 449.021 1557.63 z" fill="rgb(215,151,79)" transform="translate(0,0)"></path>
<path d="M 395.406 734.412 C 415.963 740.036 433.415 744.423 454.618 747.342 C 542.704 758.958 632.18 741.664 709.594 698.061 C 736.345 682.842 754.971 669.133 776.972 647.779 C 782.655 660.013 787.336 674.18 791.81 686.977 C 800.425 711.622 810.026 736.866 816.893 762.05 C 824.894 791.396 837.002 822.124 843.284 851.745 C 852.59 897.592 849.192 945.111 833.459 989.168 C 808.816 1054.76 759.238 1107.94 695.537 1137.13 C 671.071 1148.49 650.459 1153.53 624.061 1157.98 L 626.12 1160 C 624.49 1169.69 626.396 1196.27 625.815 1208.22 C 622.545 1213.81 625.409 1233.86 623.74 1243.08 C 622.74 1238.53 623.111 1214.42 623.128 1208.18 C 569.034 1205.99 518.808 1188.6 469.648 1168.08 L 468.522 1167.92 C 466.726 1183.58 469.835 1207.83 467.819 1223.07 C 466.956 1215.77 467.224 1200.7 467.203 1192.92 L 467.116 1139.11 C 457.084 1136.11 445.355 1131.33 435.108 1127.83 C 433.133 1129.74 433.698 1130.5 433.205 1134.02 L 430.778 1134.55 C 430.894 1131.1 430.87 1130.18 430.254 1126.79 C 427.23 1123.92 393.895 1108.57 386.994 1104.75 L 388.553 1101.52 C 384.918 1100.16 382.873 1099.05 379.488 1097.13 C 377.373 1095.92 378.608 1094.76 377.504 1094.11 C 377.026 1094.33 376.909 1094.84 376.491 1095.15 C 372.474 1094.13 351.91 1078.8 347.029 1075.97 C 337.914 1070.68 325.654 1056.89 315.437 1053.91 L 315.284 1055.19 C 300.223 1044.64 277.359 1022.02 265.398 1008.17 C 268.481 1005.05 267.419 1000.43 267.223 995.772 C 266.682 982.911 266.045 977.142 269.34 964.545 C 271.326 956.966 274.187 949.644 277.865 942.726 C 281.936 935.112 286.577 928.071 292.238 921.577 C 292.249 920.769 292.26 919.961 292.27 919.153 L 293.288 918.677 C 296.736 917.953 304.571 909.085 308.992 905.348 L 310.386 908.317 C 336.205 886.965 366.471 889.917 389.304 914.781 C 391.477 917.148 393.607 921.773 396.422 922.936 C 396.142 921.158 394.417 912.699 394.914 911.786 C 426.5 853.686 422.512 792.371 395.406 734.412 z" fill="rgb(204,155,125)" transform="translate(0,0)"></path>
<path d="M 293.288 918.677 C 296.736 917.953 304.571 909.085 308.992 905.348 L 310.386 908.317 C 256.986 962.484 317.305 1059.68 384.603 1031.36 C 427.19 1115.84 497.946 1159.75 593.462 1159.83 C 603.551 1159.84 614.221 1158.02 624.061 1157.98 L 626.12 1160 C 624.49 1169.69 626.396 1196.27 625.815 1208.22 C 622.545 1213.81 625.409 1233.86 623.74 1243.08 C 622.74 1238.53 623.111 1214.42 623.128 1208.18 C 569.034 1205.99 518.808 1188.6 469.648 1168.08 L 468.522 1167.92 C 466.726 1183.58 469.835 1207.83 467.819 1223.07 C 466.956 1215.77 467.224 1200.7 467.203 1192.92 L 467.116 1139.11 C 457.084 1136.11 445.355 1131.33 435.108 1127.83 C 433.133 1129.74 433.698 1130.5 433.205 1134.02 L 430.778 1134.55 C 430.894 1131.1 430.87 1130.18 430.254 1126.79 C 427.23 1123.92 393.895 1108.57 386.994 1104.75 L 388.553 1101.52 C 384.918 1100.16 382.873 1099.05 379.488 1097.13 C 377.373 1095.92 378.608 1094.76 377.504 1094.11 C 377.026 1094.33 376.909 1094.84 376.491 1095.15 C 372.474 1094.13 351.91 1078.8 347.029 1075.97 C 337.914 1070.68 325.654 1056.89 315.437 1053.91 L 315.284 1055.19 C 300.223 1044.64 277.359 1022.02 265.398 1008.17 C 268.481 1005.05 267.419 1000.43 267.223 995.772 C 266.682 982.911 266.045 977.142 269.34 964.545 C 271.326 956.966 274.187 949.644 277.865 942.726 C 281.936 935.112 286.577 928.071 292.238 921.577 C 292.249 920.769 292.26 919.961 292.27 919.153 L 293.288 918.677 z" fill="rgb(27,22,21)" transform="translate(0,0)"></path>
<path d="M 315.437 1053.91 C 313.474 1051.79 310.47 1049.58 309.622 1046.03 C 309.636 1046.09 337.082 1054.16 338.938 1054.56 C 348.523 1056.61 356.68 1056.63 365.839 1057.43 C 369.439 1066.67 372.061 1073.45 376.665 1082.22 C 378.911 1086.5 387.871 1099.24 388.553 1101.52 C 384.918 1100.16 382.873 1099.05 379.488 1097.13 C 377.373 1095.92 378.608 1094.76 377.504 1094.11 C 377.026 1094.33 376.909 1094.84 376.491 1095.15 C 372.474 1094.13 351.91 1078.8 347.029 1075.97 C 337.914 1070.68 325.654 1056.89 315.437 1053.91 z" fill="rgb(97,62,39)" transform="translate(0,0)"></path>
<path d="M 756.131 783.225 C 758.18 783.62 760.334 783.88 762.255 784.603 C 782.068 792.062 782.784 827.775 761.525 834.184 C 760.382 834.529 759.309 834.905 758.194 835.292 C 732.114 832.604 728.913 790.516 756.131 783.225 z" fill="rgb(27,22,21)" transform="translate(0,0)"></path>
<path d="M 594.073 837.099 C 622.982 836.006 625.46 876.621 605.634 887.347 L 602.726 888.919 C 593.2 889.108 587.521 886.483 582.791 877.581 C 578.54 869.53 577.854 860.068 580.897 851.489 C 583.671 843.451 586.845 840.611 594.073 837.099 z" fill="rgb(27,22,21)" transform="translate(0,0)"></path>
<path d="M 704.985 833.281 L 707.886 834.161 C 710.204 839.037 713.49 850.734 716.704 854.329 C 726.936 865.87 741.881 873.342 744.903 889.979 C 748.812 911.492 736.08 928.729 715.247 932.955 C 713.074 932.772 714.05 933.106 712.216 931.891 C 715.029 927.959 728.464 928.941 736.01 915.983 C 754.972 883.417 727.285 874.115 711.706 852.39 C 707.459 846.468 706.299 840.042 704.985 833.281 z" fill="rgb(7,5,4)" transform="translate(0,0)"></path>
<path d="M 573.54 781.155 C 590.082 779.976 604.333 786.486 613.798 801.594 C 614.509 802.728 612.878 806.231 609.875 802.027 C 600.18 788.45 586.565 782.103 570.044 785.736 C 566.653 787.185 564.458 788.14 561.291 790.349 C 553.445 795.818 548.801 803.148 547.028 812.499 C 546.823 813.583 546.739 814.874 546.49 816.098 C 546.297 817.225 546.448 818.984 545.471 819.809 C 544.899 820.291 543.417 819.6 543.293 818.944 C 542.24 813.375 544.852 805.671 547.473 800.898 C 553.248 790.383 562.201 784.429 573.54 781.155 z" fill="rgb(7,5,4)" transform="translate(0,0)"></path>
<path d="M 752.607 731.263 C 764.113 731.655 772.911 734.722 780.501 743.95 C 781.451 745.105 786.21 751.683 783.392 752.962 C 779.372 752.45 776.663 732.292 748.332 735.396 C 738.655 739.673 728.067 746.649 727.934 759.5 C 729.402 762.701 724.641 764.671 724.617 761.505 C 724.472 742.837 738.345 733.805 752.607 731.263 z" fill="rgb(7,5,4)" transform="translate(0,0)"></path>
<path d="M 256.727 997.728 C 255.954 992.575 237.402 970.408 232.259 962.019 C 185.453 885.664 167.293 779.009 213.299 698.351 C 222.81 681.675 253.229 654.889 273.013 650.53 C 274.173 652.86 274.3 653.952 274.964 656.454 L 276.048 656.322 C 277.472 652.415 277.642 626.565 280.025 617.339 C 292.277 569.9 328.924 526.822 370.326 502.162 C 431.829 465.53 506.349 461.015 574.715 477.952 C 599.9 484.192 622.234 492.028 646.609 498.553 C 704.988 514.181 782.393 508.244 835.119 476.379 C 839.107 502.932 837.098 530.04 829.238 555.714 C 809.579 621.723 758.375 668.405 699.333 700.151 C 605.743 750.015 496.348 761.249 394.577 731.446 C 390.975 726.639 375.196 701.979 370.63 701.896 C 372.474 706.933 382.026 717.56 385.646 723.165 C 421.274 778.325 424.418 855.581 390.904 912.203 C 365.81 886.29 337.879 884.996 308.992 905.348 C 304.571 909.085 296.736 917.953 293.288 918.677 L 292.27 919.153 C 292.26 919.961 292.249 920.769 292.238 921.577 C 286.577 928.071 281.936 935.112 277.865 942.726 C 274.187 949.644 271.326 956.966 269.34 964.545 C 266.045 977.142 266.682 982.911 267.223 995.772 C 267.419 1000.43 268.481 1005.05 265.398 1008.17 C 261.622 1004.15 259.871 1002.31 256.727 997.728 z" fill="rgb(97,62,39)" transform="translate(0,0)"></path>
<path d="M 292.27 919.153 C 288.365 915.567 283.967 908.256 281.113 903.569 C 263.915 875.323 253.205 842.048 251.736 808.98 C 250.131 772.821 260.143 735.191 274.149 702.125 C 276.963 695.48 281.496 684.976 285.904 679.594 L 287.319 679.315 C 286.212 684.614 279.391 697.725 276.839 703.433 C 273.144 711.91 269.848 720.556 266.961 729.341 C 249.549 782.197 249.392 830.412 272.617 881.708 C 278.707 895.16 285.999 905.972 293.288 918.677 L 292.27 919.153 z" fill="rgb(7,5,4)" transform="translate(0,0)"></path>
<path d="M 771.751 578.759 L 773.269 579.371 L 772.672 581.074 C 763.498 590.078 736.575 607.379 724.998 614.058 C 651.043 656.725 565.919 680.593 480.571 665.612 C 461.115 662.197 440.542 655.98 421.435 650.613 C 387.49 641.078 361.785 637.301 326.752 638.94 L 324.789 638.839 L 324.106 637.838 C 327.833 635.55 339.148 635.611 343.991 635.733 C 365.219 636.108 386.343 638.788 406.991 643.726 C 437.894 651.212 463.124 661.215 495.941 665.216 C 593.608 677.125 695.533 638.357 771.751 578.759 z" fill="rgb(7,5,4)" transform="translate(0,0)"></path>
<path d="M 772.873 531.929 C 774.065 532.297 773.455 531.95 774.465 533.304 C 770.873 537.7 747.301 545.684 740.834 547.908 C 703.035 560.508 663.365 566.577 623.528 565.852 C 531.961 564.577 407.965 528.672 325.495 587.446 L 323.743 587.77 L 323.113 586.648 C 325.192 582.108 341.258 574.652 346.501 572.29 C 400.89 547.786 467.057 548.432 525.317 554.527 C 567.226 558.912 599.922 564.665 642.665 562.625 C 693.57 560.196 726.58 552.661 772.873 531.929 z" fill="rgb(7,5,4)" transform="translate(0,0)"></path>
<path d="M 311.865 659.947 C 321.868 665.621 338.77 700.899 343.121 712.979 C 364.276 771.723 358.682 826.111 334.037 881.868 L 332.812 881.663 C 331.688 878.687 334.705 873.034 336.068 869.833 C 360.04 813.428 359.509 746.94 331.337 692.048 C 327.993 685.532 312.438 663.795 311.865 659.947 z" fill="rgb(7,5,4)" transform="translate(0,0)"></path>
<path d="M 794.46 1602.27 C 794.236 1599.43 793.032 1592.55 795.601 1591.13 C 805.033 1585.92 827.554 1564.76 835.781 1561.77 C 837.26 1585.79 843.835 1622.37 847.357 1646.77 L 872.392 1819.5 C 874.857 1837.25 882.065 1878.57 882.286 1893.54 C 870.459 1895.26 835.351 1891.92 828.731 1895.87 C 825.435 1896.15 820.821 1896.11 817.463 1896.07 C 791.257 1895.8 764.737 1896.64 738.563 1895.86 C 733.959 1894.87 731.468 1895.95 727.801 1893.1 C 746.549 1892.39 761.166 1893.42 776.321 1879.19 C 783.174 1873.21 789.027 1861.09 789.449 1851.83 C 793.208 1769.35 789.06 1684.12 790.244 1601.8 L 791.539 1599.02 C 793.435 1600.65 792.857 1600.66 793.419 1603.87 L 794.138 1604.27 L 794.46 1602.27 z" fill="rgb(253,184,90)" transform="translate(0,0)"></path>
<path d="M 790.244 1601.8 L 791.539 1599.02 C 793.435 1600.65 792.857 1600.66 793.419 1603.87 L 794.138 1604.27 L 794.46 1602.27 C 797.875 1617.53 801.67 1657.52 803.941 1675.38 L 821.92 1827.55 C 824.369 1848.74 826.464 1872.14 829.432 1893.06 C 840.95 1893.02 872.03 1892.2 882.286 1893.54 C 870.459 1895.26 835.351 1891.92 828.731 1895.87 C 825.435 1896.15 820.821 1896.11 817.463 1896.07 C 791.257 1895.8 764.737 1896.64 738.563 1895.86 C 733.959 1894.87 731.468 1895.95 727.801 1893.1 C 746.549 1892.39 761.166 1893.42 776.321 1879.19 C 783.174 1873.21 789.027 1861.09 789.449 1851.83 C 793.208 1769.35 789.06 1684.12 790.244 1601.8 z" fill="rgb(27,22,21)" transform="translate(0,0)"></path>
<path d="M 469.648 1168.08 C 518.808 1188.6 569.034 1205.99 623.128 1208.18 C 623.111 1214.42 622.74 1238.53 623.74 1243.08 C 638.074 1247.49 653.149 1254.97 666.675 1261.45 C 658.522 1274.64 644.597 1287.68 631.897 1296.43 C 566.803 1341.25 481.804 1323.3 437.873 1258.46 C 448.586 1253.76 459.241 1249.41 470.418 1245.94 C 470.417 1227.11 471.506 1185.98 469.648 1168.08 z" fill="rgb(204,155,125)" transform="translate(0,0)"></path>
<path d="M 335.58 1070.98 C 350.088 1082.63 371.112 1095.35 386.994 1104.75 C 393.895 1108.57 427.23 1123.92 430.254 1126.79 C 430.87 1130.18 430.894 1131.1 430.778 1134.55 L 430.763 1257.82 C 396.899 1271.35 360.368 1297.96 335.633 1324.47 L 335.58 1070.98 z" fill="rgb(249,248,247)" transform="translate(0,0)"></path>
<path d="M 433.205 1134.02 C 433.698 1130.5 433.133 1129.74 435.108 1127.83 C 445.355 1131.33 457.084 1136.11 467.116 1139.11 L 467.203 1192.92 C 467.224 1200.7 466.956 1215.77 467.819 1223.07 C 467.377 1227.61 467.785 1238.72 467.826 1243.74 C 456.63 1247.12 444.745 1252.11 433.771 1256.45 C 431.811 1219.22 433.551 1172.37 433.205 1134.02 z" fill="rgb(159,112,79)" transform="translate(0,0)"></path>
<path d="M 453.464 177.374 C 460.533 176.763 467.37 176.807 474.46 176.766 L 1017.51 176.681 L 1168.04 176.793 C 1190.15 176.815 1232.69 175.633 1252.31 178.914 C 1278.12 183.489 1301.88 195.945 1320.33 214.569 C 1360.43 254.69 1357.03 293.472 1356.96 344.559 L 1356.85 443.294 L 1356.93 778.07 L 1356.94 1893.01 L 1261.78 1893.01 L 1261.79 1627.5 L 1261.71 757.704 L 1261.74 502.654 L 1261.76 426.004 C 1261.76 412.83 1262.29 391.046 1260.73 378.692 C 1257.58 353.737 1246.29 330.517 1228.61 312.628 C 1191.28 275.212 1151.92 282.272 1104.09 282.48 L 994.304 282.468 L 558.473 282.385 C 524.297 282.416 502.128 281.411 473.415 303.719 C 432.163 335.769 430.612 370.804 430.609 417.874 L 430.663 474.183 C 392.888 484.069 364.435 498.386 335.659 525.099 C 336.319 464.338 335.293 403.4 335.524 342.627 C 335.604 321.617 334.683 300.754 339.175 280.061 C 343.574 260.348 352.429 241.903 365.06 226.142 C 387.374 198.05 417.972 181.435 453.464 177.374 z" fill="rgb(249,248,247)" transform="translate(0,0)"></path>
<path d="M 1269.46 176.91 C 1284.51 176.673 1297 176.267 1311.84 179.897 C 1370.93 194.354 1407.69 247.889 1407.71 307.413 C 1407.74 379.124 1407.83 450.838 1407.83 522.547 L 1407.82 938.653 L 1407.48 1893.05 L 1359.95 1893.02 L 1360.06 781.205 L 1360.04 446.585 L 1360.09 348.443 C 1360.15 329.352 1361.19 306.98 1359.19 288.218 C 1353.88 238.466 1317.07 194.56 1269.52 180.078 L 1269.46 176.91 z" fill="rgb(212,184,164)" transform="translate(0,0)"></path>
<path d="M 1141.44 286.657 C 1140.11 286.561 1138.6 286.439 1137.48 285.591 C 1137.5 285.528 1137.51 285.465 1137.53 285.401 C 1140.25 284.329 1163.52 284.744 1167.31 285.655 C 1197.47 290.765 1219.58 302.552 1237.75 328.175 C 1249.28 344.301 1256.28 363.227 1258.01 382.978 C 1259.48 400.051 1258.74 424.952 1258.7 442.546 L 1258.56 541.533 L 1258.64 860.24 L 1258.91 1892.99 L 1218.88 1893.04 L 1218.89 847.832 L 1218.92 532.037 L 1219 435.35 C 1219.01 419.289 1219.76 394.578 1218.01 379.261 C 1215.38 354.426 1204.34 331.237 1186.71 313.55 C 1174.89 301.764 1157.66 290.987 1141.44 286.657 z" fill="rgb(204,155,125)" transform="translate(0,0)"></path>
<path d="M 1141.44 286.657 C 1140.11 286.561 1138.6 286.439 1137.48 285.591 C 1137.5 285.528 1137.51 285.465 1137.53 285.401 C 1140.25 284.329 1163.52 284.744 1167.31 285.655 C 1157.76 286.19 1151.5 284.713 1141.44 286.657 z" fill="rgb(97,62,39)" transform="translate(0,0)"></path>
<path d="M 952.573 829.492 C 958.123 812.317 965.371 782.165 969.85 764.303 L 995.975 660.612 C 1003.13 632.673 1025.1 633.41 1037.46 657.858 C 1031.9 685.552 1025.24 713.792 1019.12 741.445 C 1014.05 764.389 1009.19 789.829 1003.36 812.242 C 1005.17 813.684 1004.43 813.617 1006.28 813.897 C 1022.45 814.678 1033.34 815.7 1049.22 818.711 L 1051.85 818.676 C 1054.85 820.397 1085.35 830.883 1092.44 833.885 L 1094.06 835.256 L 1095.16 834.02 C 1103.63 799.67 1108.17 758.919 1116.63 723.883 C 1121.07 719.453 1126.07 714.636 1132.73 715.299 C 1163.68 718.38 1151.66 750.287 1148.22 767.947 C 1145.42 782.537 1142.72 797.146 1140.12 811.774 L 1126.36 888.221 C 1121.27 916.532 1115.31 966.034 1093.21 987.144 C 1084.8 995.172 1074.93 998.123 1070.34 1010.85 C 1061.57 1028.54 1053.41 1046.9 1044.28 1064.42 C 1007.45 1049.72 970.726 1034.77 934.105 1019.57 C 942.824 1004.78 951.372 989.893 959.748 974.909 C 917.79 940.392 928.404 912.006 911.125 865.44 C 907.505 855.684 897.809 844.364 891.602 836.032 C 879.583 821.525 873.211 807.411 886.658 791.155 C 897.205 778.406 917.407 777.72 929.094 788.983 C 944.2 803.541 949.548 830.251 954.618 850.082 C 955.808 854.913 956.828 866.113 959.01 869.423 C 959.586 867.803 960.157 866.219 960.691 864.583 C 957.455 854.604 956.824 842.58 952.573 829.492 z" fill="rgb(204,155,125)" transform="translate(0,0)"></path>
<path d="M 1003.36 812.242 C 1005.17 813.684 1004.43 813.617 1006.28 813.897 C 1022.45 814.678 1033.34 815.7 1049.22 818.711 L 1051.85 818.676 C 1054.85 820.397 1085.35 830.883 1092.44 833.885 L 1094.06 835.256 L 1095.16 834.02 C 1100.62 841.488 1117.24 845.355 1118.99 856.051 L 1117.76 857.532 C 1117.06 857.375 1116.36 857.217 1115.66 857.06 C 1108.88 849.678 1101.03 843.968 1092.07 839.345 C 1067.48 825.893 1031.31 819.282 1003.51 819.18 C 996.753 819.155 981.573 821.243 976.664 819.823 L 976.329 818.637 C 982.57 812.05 998.776 816.953 1003.36 812.242 z" fill="rgb(159,112,79)" transform="translate(0,0)"></path>
<path d="M 960.691 864.583 C 984.461 867.572 993.425 901.471 989.757 920.996 C 988.438 928.02 987.072 937.771 982.62 943.584 C 981.822 944.7 976.81 944.11 978.349 941.174 C 985.903 926.758 987.513 903.251 981.433 888.3 C 978.309 880.537 972.184 874.363 964.446 871.176 C 962.445 870.344 961.066 869.968 959.01 869.423 C 959.586 867.803 960.157 866.219 960.691 864.583 z" fill="rgb(159,112,79)" transform="translate(0,0)"></path>
<path d="M 1076.9 886.833 C 1079.07 888.41 1078.25 887.415 1079.29 890.026 C 1077.81 892.807 1072.4 894.882 1069.12 896.83 C 1046.08 910.987 1029.2 938.151 1025.8 964.88 C 1024.97 971.439 1028.61 981.175 1026.85 985.999 C 1024.74 985.016 1023.62 984.999 1022.83 983.147 C 1018.97 974.098 1021.58 956.489 1024.54 947.655 C 1033.78 920.074 1051.32 899.89 1076.9 886.833 z" fill="rgb(159,112,79)" transform="translate(0,0)"></path>
<path d="M 1006.28 813.897 L 1035.68 680.944 C 1039.67 663.602 1042.72 644.96 1048.44 628.229 C 1056.61 604.328 1089.97 616.324 1086.56 639.993 C 1084.54 654.099 1080.48 667.652 1077.61 681.588 C 1072.28 708.152 1066.73 734.669 1060.94 761.137 C 1056.99 779.491 1052.1 800.323 1049.22 818.711 C 1033.34 815.7 1022.45 814.678 1006.28 813.897 z" fill="rgb(204,155,125)" transform="translate(0,0)"></path>
<path d="M 1084.71 664.718 C 1088.76 660.496 1094.46 655.127 1100.58 655.497 C 1131.42 657.361 1118.4 695.405 1115.33 712.07 L 1102.74 778.719 C 1100.19 792.015 1095.73 822.25 1092.44 833.885 C 1085.35 830.883 1054.85 820.397 1051.85 818.676 C 1055.75 798.601 1060.22 778.53 1064.89 758.62 C 1072.15 727.695 1076.73 695.398 1084.71 664.718 z" fill="rgb(204,155,125)" transform="translate(0,0)"></path>
<path d="M 1269.52 180.078 C 1267.08 179.244 1264.57 178.635 1262.11 177.875 L 1262.57 178.074 C 1262.2 177.935 1261.24 177.609 1260.92 177.443 L 1261.12 177.481 C 1262.03 176.898 1268.16 176.898 1269.46 176.91 L 1269.52 180.078 z" fill="rgb(204,155,125)" transform="translate(0,0)"></path>
<metadata><recraft-signature>{"signed_by": "recraft", "signature_b64": "mga7YVHalnacx9WwJtop2D+lsbO+nvvKGgpmlekcR//sIrFHu2rVZsUHZ5lc7Q6aDUQeDmGjBtbjy2uhIVYMBg==", "signing_algo": "Ed25519", "generation_timestamp": 1779099522, "identifier": "9f906265-d26d-4ca6-9f7d-ee2d3a3a5ba3"}</recraft-signature></metadata></svg>