<svg xmlns="http://www.w3.org/2000/svg" height="1280" preserveAspectRatio="none" style="display: block;" version="1.1" viewBox="0 0 1331 2048" width="832">
<path d="M 0 0 L 1331 0 L 1331 2048 L 0 2048 L 0 0 z" fill="rgb(255,255,255)" transform="translate(0,0)"></path>
<path d="M 820.195 291.055 C 792.258 281.637 765.497 265.181 757.146 234.966 C 734.776 154.026 853.073 77.6547 921.444 117.136 C 940.361 127.908 954.151 145.833 959.713 166.879 C 966.001 190.602 959.487 208.976 947.715 229.198 C 1005.79 230.681 1051.89 257.287 1082.81 307.061 C 1113 355.665 1116.42 423.121 1075.78 466.876 C 1068.14 477.104 1041.34 489.588 1037.23 500.622 C 1030.23 519.402 1049.36 550.377 1007.17 538.09 C 999.095 545.176 992.793 553.409 983.847 560.935 C 975.53 550.341 975.131 548.501 962.73 543.174 C 965.841 550.804 969.579 558.858 972.938 566.437 C 941.461 587.691 909.263 612.025 878.548 571.503 C 872.119 563.021 865.386 554.216 858.606 545.984 L 847.308 548.62 C 845.837 554.449 843.233 561.208 840.001 566.268 C 855.061 579.457 865.077 592.738 877.443 608.307 C 895.976 631.639 913.646 654.87 935.552 675.151 C 939.667 678.945 939.446 686.749 937.671 692.057 L 935.436 691.396 C 929.427 701.017 919.129 706.322 911.798 714.157 C 892.15 735.156 870.884 752.313 847.644 769.157 C 841.309 773.749 832.682 781.73 825.592 784.702 L 824.81 785.035 C 824.309 785.226 823.809 785.417 823.308 785.608 L 827.233 787.373 C 823.856 788.009 819.529 788.973 816.233 788.268 C 797.203 784.196 785.717 756.362 775.814 743.024 C 772.739 747.615 770.399 751.497 767.647 756.296 C 757.163 771.35 746.075 782.821 734.116 796.546 C 732.808 798.047 731.988 804.056 731.813 806.17 C 728.526 813.678 721.755 816.158 720.232 822.16 C 721.462 824.709 721.808 824.891 723.882 826.907 C 729.597 833.309 745.556 834.202 754.368 835.879 C 803.427 845.217 857.421 859.795 894.671 894.819 C 902.457 902.147 908.207 912.253 915.109 920.37 C 939.876 948.504 960.841 979.395 982.113 1010.18 C 986.512 1016.54 994.035 1020.59 998.915 1026.36 C 1016.08 1046.68 1029.41 1070.1 1048.95 1088.36 C 1053.04 1092.18 1057.54 1097.25 1058.04 1102.69 C 1060.17 1115.47 1056.77 1126.19 1050.25 1137.14 C 1054.78 1145.5 1067.14 1165.96 1079.53 1157.3 C 1100.31 1142.77 1125.93 1136.09 1148.56 1124.48 C 1151.79 1122.8 1155.18 1121 1158.28 1119.04 C 1182.59 1102.67 1208.97 1094.53 1227.36 1124 C 1241.19 1146.16 1233.98 1164.91 1214.68 1181.33 C 1203.12 1191.17 1191.22 1201.46 1179.91 1211.52 L 1107.6 1275.15 C 1097.35 1284.14 1078.17 1302.86 1066.93 1308.93 C 1043.88 1321.39 1017.23 1287.37 1007.96 1272.2 C 992.702 1247.22 1005.17 1229.99 995.558 1208.85 C 992.866 1205.24 990.032 1201.93 987.131 1198.49 C 973.647 1207.19 960.341 1216.8 943.936 1218.78 C 933.45 1220.04 923.155 1217.65 915.168 1210.52 C 903.344 1199.97 878.362 1139.25 869.973 1119.99 C 866.543 1112.12 863.956 1103.03 859.129 1095.92 C 851.677 1084.94 817.144 1059.64 805.097 1050.14 C 805.13 1046.68 805.675 1036.08 803.405 1033.85 C 796.296 1026.85 782.43 1030.07 773.244 1027.47 C 756.799 1022.82 739.682 1013.52 723.134 1010.7 C 716.053 1009.49 703.362 1010.27 695.852 1009.89 C 679.673 1009.67 663.343 1009.57 647.183 1008.72 C 640.063 1008.35 631.444 1006.21 624.312 1004.89 C 616.4 1003.42 609.471 1002.45 601.379 1001.89 C 599.152 1033.71 584.037 1077.91 574.466 1109.36 C 567.347 1132.76 560.537 1161.22 550.875 1183.16 C 546.895 1192.19 535.327 1206.2 529.313 1214.11 C 502.588 1249.26 470.012 1268.67 435.947 1295.19 C 417.659 1309.42 400.996 1325.14 381.472 1338.85 C 365.917 1350.96 347.467 1361.6 332.235 1373.88 C 319.464 1384.18 313.842 1399.65 294.182 1399.11 C 279.909 1398.72 271.226 1391.88 261.512 1382.23 C 255.731 1385.59 249.074 1389.67 246.287 1396.04 C 240.485 1409.31 259.654 1477.21 265.264 1492.34 C 269.458 1503.64 276.122 1514.01 280.139 1525.38 C 283.226 1534.11 284.292 1544.15 280.126 1552.73 C 276.027 1561.17 267.489 1566.6 258.838 1569.54 C 244.942 1574.25 229.68 1571.87 216.764 1565.42 C 208.956 1561.52 202.409 1555.58 197.03 1548.75 C 189.334 1538.99 182.941 1527.44 176.463 1516.83 L 143.154 1461.97 C 129.145 1439.08 109.661 1411.98 98.8492 1387.53 C 95.6833 1380.37 100.184 1368.56 103.769 1361.76 C 115.392 1339.73 135.772 1328.17 160.499 1327.33 C 169.468 1327.03 181.607 1328.75 189.882 1325.78 C 201.572 1321.59 210.669 1309.79 216.098 1299.23 C 169.686 1188.74 236.335 1208.44 318.522 1167.72 C 342.289 1155.95 340.413 1145.39 371.36 1148.24 C 374.273 1139.43 377.663 1138.69 381.066 1133.23 C 381.806 1132.04 379.696 1115.84 380.57 1110.93 C 384.276 1090.09 392.032 1066.33 395.592 1045.98 C 397.513 1035 393.473 1010.92 394.286 997.088 C 396.044 967.195 400.801 938.727 403.102 908.974 C 382.316 871.578 384.046 821.468 402.658 783.724 C 409.667 769.51 418.117 757.949 427.714 745.422 C 413.548 738.319 399.908 730.093 389.187 718.228 C 379.246 706.994 380.278 700.889 390.461 690.363 C 431.858 647.568 472.749 603.9 515.386 562.39 C 522.607 555.359 540.928 543.873 549.806 537.691 L 605.827 498.624 C 583.256 473.93 560.472 451.28 535.439 429.206 C 519.109 414.807 529.045 395.223 537.808 379.347 C 512.295 359.972 475.16 340.559 445.995 326.975 C 425.78 316.195 393.669 308.237 374.563 325.798 C 354.45 345.624 334.263 346.08 309.022 353.234 C 296.652 356.74 283.66 377.945 272.424 363.83 C 251.834 337.964 307.097 329.481 307.837 316.948 C 294.059 289.094 226.401 303.452 202.443 285.02 C 185.736 272.165 206.424 261.179 206.644 258.695 C 208.361 239.281 212.303 242.013 229.059 240.652 C 235.612 235.285 227.311 221.815 254.972 223.967 C 256.01 224.048 256.77 217.114 258.053 214.986 C 261.498 209.276 269.284 210.099 275.027 210.45 C 298.107 215.992 323.443 216.579 346.111 221.364 C 358.609 224.002 374.874 236.997 387.868 239.417 C 405.783 242.753 423.377 243.026 441.216 246.827 C 503.889 258.725 549.498 278.447 602.561 312.549 C 633.852 297.875 642.111 316.043 664.383 335.92 C 688.006 356.73 711.479 377.712 734.798 398.863 C 750.965 413.453 768.316 428.263 783.928 443.431 C 786.514 445.943 787.906 451.298 788.963 454.878 L 812.66 446.162 C 800.296 430.742 790.681 415.829 788.06 395.643 C 782.85 355.515 796.817 322.32 820.195 291.055 z" fill="rgb(12,9,8)" transform="translate(0,0)"></path>
<path d="M 607.921 497.675 C 593.942 481.846 579.3 466.036 563.951 451.527 C 553.74 441.874 541.235 433.211 532.543 422.176 C 530.653 419.777 530.09 416.126 529.752 413.156 C 527.597 394.188 550.973 362.575 562.348 348.334 C 574.446 333.187 600.858 311.858 620.887 309.827 C 627.726 309.134 632.966 311.396 638.072 315.721 C 655.784 330.724 778.249 438.346 783.149 447.786 C 787.361 455.9 784.546 466.609 785.32 475.478 C 787.613 501.774 805.585 521.488 824.844 537.564 C 826.537 538.604 827.869 539.258 829.182 540.759 L 830.306 537.673 C 836.124 541.122 839.86 543.07 846.02 545.863 C 846.693 541.311 850.178 513.526 851.994 512.045 C 855.988 520.88 852.763 531.032 860.345 544.541 L 858.606 545.984 L 847.308 548.62 C 845.837 554.449 843.233 561.208 840.001 566.268 C 855.061 579.457 865.077 592.738 877.443 608.307 C 895.976 631.639 913.646 654.87 935.552 675.151 C 939.667 678.945 939.446 686.749 937.671 692.057 L 935.436 691.396 C 929.427 701.017 919.129 706.322 911.798 714.157 C 892.15 735.156 870.884 752.313 847.644 769.157 C 841.309 773.749 832.682 781.73 825.592 784.702 L 824.81 785.035 C 824.309 785.226 823.809 785.417 823.308 785.608 L 827.233 787.373 C 823.856 788.009 819.529 788.973 816.233 788.268 C 797.203 784.196 785.717 756.362 775.814 743.024 C 772.739 747.615 770.399 751.497 767.647 756.296 C 757.163 771.35 746.075 782.821 734.116 796.546 C 732.808 798.047 731.988 804.056 731.813 806.17 C 728.526 813.678 721.755 816.158 720.232 822.16 C 721.462 824.709 721.808 824.891 723.882 826.907 L 721.693 829.179 C 710.778 829.222 692.396 823.885 680.124 824.385 C 670.856 824.541 661.658 827.114 652.414 827.888 C 590.378 833.081 534.329 807.319 486.871 769.274 C 454.637 743.432 428.867 702.389 383.791 702.82 C 390.654 692.451 424.199 658.946 434.124 648.657 L 484.021 597.126 C 492.791 588.127 503.805 575.775 513.233 567.939 C 532.52 551.907 554.722 537.775 575.358 523.335 C 622.011 490.69 665.881 456.062 720.238 436.542 C 722.599 435.694 723.854 434.714 724.734 432.469 C 720.087 433.029 709.746 437.868 705.16 439.739 C 667.558 455.08 640.093 473.746 607.921 497.675 z" fill="rgb(243,118,42)" transform="translate(0,0)"></path>
<path d="M 767.119 751.925 C 741.599 734.716 700.714 637.778 693.175 607.605 C 703.805 624.214 713.08 646.998 724.097 663.323 C 741.724 689.445 759.994 715.565 777.69 741.678 L 775.814 743.024 C 772.739 747.615 770.399 751.497 767.647 756.296 L 767.119 751.925 z" fill="rgb(12,9,8)" transform="translate(0,0)"></path>
<path d="M 846.02 545.863 C 846.693 541.311 850.178 513.526 851.994 512.045 C 855.988 520.88 852.763 531.032 860.345 544.541 L 858.606 545.984 L 847.308 548.62 C 845.837 554.449 843.233 561.208 840.001 566.268 L 838.027 567.52 C 822.746 553.366 805.12 545.343 784.748 541.677 C 788.205 539.678 797.604 540.476 803.137 539.958 C 811.72 539.224 820.419 540.715 829.182 540.759 L 830.306 537.673 C 836.124 541.122 839.86 543.07 846.02 545.863 z" fill="rgb(12,9,8)" transform="translate(0,0)"></path>
<path d="M 721.693 829.179 C 707.218 812.176 673.535 792.319 651.429 794.185 C 646.953 794.562 636.733 796.439 634.877 795.564 L 636.04 794.213 C 664.167 786.11 700.177 796.443 727.001 806.656 L 729.103 805.628 L 731.813 806.17 C 728.526 813.678 721.755 816.158 720.232 822.16 C 721.462 824.709 721.808 824.891 723.882 826.907 L 721.693 829.179 z" fill="rgb(12,9,8)" transform="translate(0,0)"></path>
<path d="M 838.027 567.52 L 840.001 566.268 C 855.061 579.457 865.077 592.738 877.443 608.307 C 895.976 631.639 913.646 654.87 935.552 675.151 C 939.667 678.945 939.446 686.749 937.671 692.057 L 935.436 691.396 C 936.268 687.074 936.525 679.125 933.261 676.286 C 918.712 663.631 908.427 650.582 896.286 635.697 C 877.35 612.481 859.884 588.051 838.027 567.52 z" fill="rgb(12,9,8)" transform="translate(0,0)"></path>
<path d="M 784.748 541.677 C 764.837 541.741 749.45 543.335 731.146 553.108 C 725.249 556.256 720.225 561.039 714.075 563.805 L 713.347 562.572 C 720.296 555.522 724.216 554.459 731.896 550.055 C 757.74 535.234 776.143 539.999 803.398 539.101 L 803.137 539.958 C 797.604 540.476 788.205 539.678 784.748 541.677 z" fill="rgb(12,9,8)" transform="translate(0,0)"></path>
<path d="M 777.69 741.678 C 790.29 756.622 799.522 786.966 823.308 785.608 L 827.233 787.373 C 823.856 788.009 819.529 788.973 816.233 788.268 C 797.203 784.196 785.717 756.362 775.814 743.024 L 777.69 741.678 z" fill="rgb(12,9,8)" transform="translate(0,0)"></path>
<path d="M 767.119 751.925 L 767.647 756.296 C 757.163 771.35 746.075 782.821 734.116 796.546 C 732.808 798.047 731.988 804.056 731.813 806.17 L 729.103 805.628 C 730.577 792.324 742.021 783.368 750.705 773.721 C 756.837 766.978 762.332 759.682 767.119 751.925 z" fill="rgb(12,9,8)" transform="translate(0,0)"></path>
<path d="M 688.218 742.789 L 689.762 743.577 C 688.962 746.185 685.893 748.164 683.511 749.511 C 649.317 768.841 610.167 752.611 576.666 775.351 L 575.101 775.035 C 576.218 770.63 584.091 767.23 588.137 765.664 C 621.979 752.564 657.41 765.652 688.218 742.789 z" fill="rgb(12,9,8)" transform="translate(0,0)"></path>
<path d="M 439.4 736.097 C 442.546 738.896 445.546 742.295 448.69 745.318 C 479.281 774.735 524.972 802.281 564.498 818.025 C 582.603 825.237 607.487 829.65 626.736 831.193 C 645.448 832.694 662.736 828.088 680.233 827.389 C 689.953 827.001 714.034 831.206 724.72 833.021 C 779.586 842.339 840.106 854.546 885.026 889.318 C 901.186 901.828 904.833 914.487 916.701 926.298 L 917.536 927.114 C 917.965 927.742 917.961 927.725 918.557 928.203 C 941.498 955.021 960.139 983.033 980.211 1011.96 C 985.06 1018.95 995.129 1025.33 1000 1031.5 C 1010.96 1045.68 1021.41 1060.25 1032.25 1074.53 C 1038.3 1082.49 1048.4 1090.15 1053.63 1098.14 C 1060.95 1109.33 1052.6 1128.48 1046.22 1137.83 L 1047.91 1140.2 C 1030.35 1161.87 1013.97 1183.77 997.124 1205.93 L 995.558 1208.85 C 992.866 1205.24 990.032 1201.93 987.131 1198.49 L 983.561 1197.47 C 963.387 1206.61 944.676 1228.23 917.959 1209.57 C 910.417 1204.3 905.448 1191.24 901.635 1182.87 C 878.521 1132.15 853.861 1081.27 837.366 1027.94 C 831.565 1009.36 834.797 1000.07 832.467 983.02 L 831.749 983.223 C 826.43 1006.95 835.192 1026.04 839.364 1048.76 C 840.515 1055.03 840.27 1067.85 840.252 1074.54 C 829.087 1065.99 818.117 1057.18 807.35 1048.13 C 807.261 1042.09 807.531 1024.44 805.548 1019.59 C 801.965 1023.25 805.852 1027.07 803.156 1030.04 C 788.006 1023.71 788.402 1027.89 774.396 1025.01 C 763.689 1022.8 735.021 1008.97 725.067 1008.32 C 703.846 1006.92 679.634 1007.21 658.004 1006.49 C 639.364 1005.88 625.583 1001.68 607.581 999.956 C 586.908 997.991 566.233 997.936 545.587 995.463 C 473.14 986.786 397.55 937.886 391.351 859.354 C 387.229 807.119 407.15 774.43 439.4 736.097 z" fill="rgb(240,196,178)" transform="translate(0,0)"></path>
<path d="M 983.561 1197.47 C 1007.6 1178.04 1026.61 1162.59 1046.22 1137.83 L 1047.91 1140.2 C 1030.35 1161.87 1013.97 1183.77 997.124 1205.93 L 995.558 1208.85 C 992.866 1205.24 990.032 1201.93 987.131 1198.49 L 983.561 1197.47 z" fill="rgb(12,9,8)" transform="translate(0,0)"></path>
<path d="M 842.331 433.69 C 851.518 442.54 866.505 449.257 876.975 438.228 L 876.272 437.582 C 868.742 440.033 860.566 442.948 853.373 438.664 C 836.148 428.551 837.439 403.031 846.43 388.095 C 853.429 376.468 867.831 359.027 881.829 356.694 C 924.852 349.525 916.423 399.258 910.1 421.471 C 941.257 393.12 976.278 396.004 1014.84 382.118 C 1034.44 375.058 1046.49 368.718 1063.47 356.754 C 1066.8 375.914 1072.91 389.46 1089.36 401.272 C 1093.13 403.936 1097.1 406.287 1101.24 408.302 C 1094.62 439.957 1082.39 461.727 1054.83 480.679 C 1047.12 486.017 1040.17 489.807 1035.08 498.019 C 1027.88 509.643 1040.43 527.365 1028.9 536.318 C 1023.53 540.489 1012.56 536.902 1006.77 534.681 C 999.67 541.811 991.679 550.239 984.403 557.014 C 978.554 549.612 973.295 543.069 963.147 541.794 C 957.536 541.062 951.868 542.627 947.428 546.134 C 936.336 554.891 936.096 569.66 955.503 569.122 C 958.014 569.048 960.524 568.955 963.033 568.84 C 937.701 589.453 907.569 603.394 883.327 573.283 C 877.166 565.631 867.449 550.514 860.345 544.541 C 852.763 531.032 855.988 520.88 851.994 512.045 C 850.178 513.526 846.693 541.311 846.02 545.863 C 839.86 543.07 836.124 541.122 830.306 537.673 C 803.567 517.747 784.057 494.485 788.151 458.791 C 810.27 448.531 819.407 446.379 842.331 433.69 z" fill="rgb(203,151,130)" transform="translate(0,0)"></path>
<path d="M 1028.57 453.918 C 1034.86 461.066 1027.02 471.003 1021.73 476.762 C 1001.93 498.332 985.471 477.493 1006.99 459.05 C 1012.79 454.082 1015.04 451.747 1023.32 452.394 C 1025.08 452.874 1026.83 453.382 1028.57 453.918 z" fill="rgb(12,9,8)" transform="translate(0,0)"></path>
<path d="M 1023.32 452.394 C 1025.08 452.874 1026.83 453.382 1028.57 453.918 L 1027.1 455.322 C 1030.56 461.219 1026.79 466.235 1024.91 464.797 C 1019.79 460.866 1011.3 456.965 1022.83 454.505 L 1023.32 452.394 z" fill="rgb(255,255,255)" transform="translate(0,0)"></path>
<path d="M 1023.32 452.394 C 1025.08 452.874 1026.83 453.382 1028.57 453.918 L 1027.1 455.322 C 1025.66 455.059 1024.26 454.81 1022.83 454.505 L 1023.32 452.394 z" fill="rgb(12,9,8)" transform="translate(0,0)"></path>
<path d="M 1012.21 426.432 C 1026.38 425.398 1066.92 424.039 1058.74 447.436 C 1048.08 449.27 1050.38 446.437 1043.45 439.134 C 1037.59 432.951 1026.93 430.184 1018.67 429.794 C 1015.51 429.645 1012.65 429.779 1012.21 426.432 z" fill="rgb(12,9,8)" transform="translate(0,0)"></path>
<path d="M 888.507 371.217 C 892.707 371.614 896.618 372.086 899.688 375.372 C 906.309 382.461 902.684 395.4 896.239 401.319 C 893.471 403.86 889.76 398.609 884.002 398.895 C 872.534 399.465 866.923 408.074 865.378 418.489 C 865.344 418.786 863.669 418.922 863.443 417.724 C 862.648 413.507 864.609 409.668 866.431 406.065 C 886.982 381.281 891.9 412.04 899.739 389.821 C 900.681 387.152 900.546 382.374 899.371 379.777 C 898.245 377.336 896.203 375.436 893.687 374.491 C 884.832 371.169 876.151 380.873 873.732 379.616 C 873.157 374.984 885.229 371.928 888.507 371.217 z" fill="rgb(12,9,8)" transform="translate(0,0)"></path>
<path d="M 1047.91 1140.2 C 1052.2 1146.7 1059.88 1159.19 1068.34 1160.98 C 1069.63 1161.25 1081.22 1160.71 1083.97 1160.68 C 1097.57 1181.47 1085.86 1208.6 1066.1 1221.35 C 1044.18 1235.51 1026.15 1228.58 1002.49 1223.52 C 1001.55 1215.99 1000.92 1212.56 997.124 1205.93 C 1013.97 1183.77 1030.35 1161.87 1047.91 1140.2 z" fill="rgb(203,151,130)" transform="translate(0,0)"></path>
<path d="M 405.361 915.629 C 411.734 921.179 429.246 946.613 436.094 954.832 C 459.486 982.428 490.935 1002 526.024 1010.81 C 552.07 1017.47 591.65 1015.8 585.328 1054.97 C 579.5 1091.07 564.822 1127.89 555.807 1163.45 C 549.05 1190.11 513.031 1232.62 491.532 1249.74 C 460.895 1274.14 427.104 1297.18 397.547 1323.46 C 375.904 1342.4 346.491 1357.65 324.325 1376.49 C 319.22 1380.82 315.932 1390.19 308.465 1392.95 C 274.014 1407.55 254.839 1370.48 241.94 1345.5 C 233.56 1328.55 225.478 1312.58 217.121 1294.4 C 206.031 1274.51 191.43 1222.87 219.515 1209.54 C 247.428 1196.3 291.084 1183.47 320.286 1169.8 C 327.869 1167.37 342.557 1153.97 349.269 1152.22 C 376.507 1145.15 436.389 1169.06 458.892 1178.66 L 460.276 1177.64 C 454.564 1169.48 387.984 1152.11 375.479 1148.03 C 375.044 1147.36 374.61 1146.68 374.175 1146.01 C 379.225 1128.51 438.963 1131.28 448.278 1124.15 C 443.171 1123 406.087 1129.29 398.426 1130.14 C 395.129 1130.5 389.731 1132.41 385.615 1132.51 C 374.155 1117.47 403.138 1054.08 398.254 1027.44 C 393.024 998.912 402.946 945.576 405.361 915.629 z" fill="rgb(203,151,130)" transform="translate(0,0)"></path>
<path d="M 266.419 211.988 C 276.229 212.733 294.675 216.995 305.192 218.392 C 318.113 220.108 335.813 221.058 347.575 224.668 C 358.004 227.869 375.493 239.882 385.909 241.767 C 403.126 244.881 420.486 245.662 438.131 248.94 C 496.069 259.21 551.237 281.419 600.131 314.155 C 593.115 319.333 585.026 323.818 577.528 329.517 C 560.374 342.557 550.816 359.504 539.447 377.337 C 537.799 375.991 536.115 374.69 534.397 373.434 C 506.792 353.208 447.255 321.184 414.373 313.262 C 406.744 311.424 391.733 313.533 384.735 317.181 C 355.371 332.487 360.175 340.252 325.22 345.806 C 305.585 349.199 299.572 357.578 282.36 365.437 C 277.852 367.495 271.317 361.169 271.181 355.896 C 270.657 335.531 298.511 333.977 309.325 322.254 C 314.008 317.106 307.328 310.992 303.847 307.817 C 288.855 294.144 269.883 297.6 251.353 294.386 C 237.238 291.938 205.146 291.283 199.377 275.473 C 198.38 272.13 203.35 263.47 207.678 263.333 C 233.47 262.519 263.722 273.069 289.051 271.497 L 289.265 270.842 C 267.087 266.384 242.04 264.486 219.505 261.482 C 214.958 260.876 211.548 260.447 208.741 256.706 C 208.503 254.152 208.473 253.05 209.921 250.757 C 219.585 235.447 277.032 252.251 296.286 248.001 C 292.497 243.909 239.035 245.283 234.09 239.948 C 230.247 213.405 296.554 236.471 305.407 231.78 C 291.293 224.659 266.249 229.765 258.767 221.196 L 259.037 218.389 C 260.711 215.133 263.334 213.917 266.419 211.988 z" fill="rgb(203,151,130)" transform="translate(0,0)"></path>
<path d="M 822.471 288.71 C 735.126 260.234 739.331 180.966 806.082 133.806 C 848.4 103.908 912.499 94.4459 945.697 142.875 C 946.577 143.53 947.067 144.689 947.647 145.588 C 948.246 146.196 948.26 146.114 948.56 146.852 C 951.85 151.096 956.164 161.225 957.335 166.495 C 963.066 192.298 956.697 208.341 943.951 229.565 C 936.434 229.7 928.494 230.627 920.978 231.341 C 928.948 195.696 931.529 157.364 902.066 129.273 C 899.019 126.368 893.674 121.116 889.378 121.305 C 889.489 124.195 894.749 126.982 897.251 129.068 C 929.192 155.701 926.006 196.203 918.231 232.325 C 908.854 233.91 899.909 236.903 891.02 240.173 C 892.02 230.564 892.075 220.88 891.183 211.259 C 888.445 178.907 873.014 150.231 846.554 131.061 C 843.005 128.49 840.051 125.335 835.477 125.749 C 835.47 127.343 835.422 126.848 837.102 127.905 C 880.264 155.058 891.578 193.498 888.018 241.319 C 877.673 245.214 867.678 250.97 858.157 256.509 C 822.878 244.557 799.204 216.361 795.695 178.959 C 794.969 171.217 796.025 161.281 795.798 153.065 L 794.748 152.909 C 790.297 162.515 792.558 178.165 794.349 188.434 C 800.305 222.588 823.559 245.889 855.01 258.325 C 848.287 263.801 843.292 268.122 837.032 274.112 C 803.296 265.619 776.348 246.43 769.795 210.774 C 768.595 204.24 769.005 197.656 767.747 191.533 L 766.586 191.821 C 766.472 192.079 766.014 192.938 765.993 193.168 C 762.774 229.218 788.476 260.93 821.515 272.477 C 827.278 274.491 830.218 275.349 834.584 276.682 L 822.471 288.71 z" fill="rgb(105,80,71)" transform="translate(0,0)"></path>
<path d="M 881.775 246.871 C 920.559 231.4 951.335 226.964 992.381 238.502 C 999.617 271.4 1008.46 296.521 1038.09 317.238 C 1042.73 320.483 1055.55 328.586 1060.71 327.63 L 1060.57 326.027 C 1055.65 323.078 1050.74 321.73 1045.21 318.334 C 1012.22 298.087 1003.35 273.933 994.96 239.05 C 1008.18 243.347 1020.49 249.944 1032.1 257.502 C 1032.84 257.778 1032.72 257.752 1033.31 258.357 C 1043.53 264.054 1061.46 282.361 1068.63 291.551 C 1066.23 332.654 1060.75 370.368 1103.2 392.92 C 1103.06 396.876 1102.14 401.269 1101.45 405.214 C 1079.64 393.02 1067.83 377.742 1065.74 352.383 C 1061.2 355.177 1057.28 357.483 1052.58 359.989 L 1050.87 359.868 C 998.58 356.018 954.128 331.45 938.349 278.89 C 937.494 276.044 936.956 272.827 935.025 270.586 L 934 271.472 C 934.042 274.793 935.869 279.972 936.936 283.244 C 953.246 333.292 999.204 359.939 1049.87 362.542 C 1025.62 378.656 1011.61 379.344 984.004 376.114 C 913.894 367.912 873.044 316.79 881.775 246.871 z" fill="rgb(105,80,71)" transform="translate(0,0)"></path>
<path d="M 152.206 1330.39 C 160.94 1329.76 166.05 1329.87 174.821 1330.29 C 168.054 1356.49 164.995 1384.34 186.744 1405.27 C 211.17 1428.78 215.509 1410.9 241.971 1410.01 C 250.099 1448.32 256.109 1485.55 275.164 1519.82 C 277.601 1524.2 281.006 1533.5 280.678 1538.64 C 279.627 1555.12 276.218 1557.13 260.811 1555.95 C 224.506 1549.62 216.057 1528.32 198.549 1499.84 L 162.666 1441.54 C 150.045 1421.06 135.142 1398.37 123.812 1377.34 C 117.13 1364.94 140.184 1335.56 152.206 1330.39 z" fill="rgb(203,151,130)" transform="translate(0,0)"></path>
<path d="M 1187.39 1108.15 C 1194.26 1107.6 1204.81 1105.14 1207.29 1113.91 C 1212.37 1131.92 1204.78 1152.1 1191.38 1164.57 C 1171.01 1183.55 1149.41 1201.13 1128.47 1219.47 C 1105.76 1239.17 1083.29 1259.21 1060.47 1278.77 C 1057.5 1281.31 1052.1 1285.3 1048.4 1286.26 C 1038.68 1288.79 1026.65 1287.06 1017.84 1282.31 C 1003.92 1263.64 1000.44 1248.53 1001.4 1226.02 C 1019.65 1230.08 1039.61 1236.78 1057.49 1229.04 C 1090.39 1214.8 1098.86 1187.39 1086.07 1155.51 C 1106.44 1145.96 1127.23 1137.25 1147.71 1127.92 C 1162.2 1121.32 1171.95 1111.37 1187.39 1108.15 z" fill="rgb(203,151,130)" transform="translate(0,0)"></path>
<path d="M 876.508 248.961 L 878.048 249.054 C 879.375 251.228 877.17 263.887 877.158 267.371 C 876.972 318.295 910.903 361.078 959.878 374.241 C 977.101 378.87 991.14 379.942 1008.84 380.824 C 986.767 387.85 963.438 391.677 942.252 398.719 C 931.646 402.702 925.053 405.562 915.622 411.755 C 916.254 408.949 916.804 406.124 917.271 403.286 C 924.001 361.096 899.908 336.631 861.803 364.899 C 836.659 343.957 835.155 310.554 841.652 280.672 C 845.339 263.711 862.634 256.608 876.508 248.961 z" fill="rgb(105,80,71)" transform="translate(0,0)"></path>
<path d="M 811.45 440.253 C 773.28 399.836 789.941 330.25 822.957 292.294 C 828.111 286.368 834.365 280.526 840.044 275.088 C 832.524 304.533 832.005 347.943 860.584 366.377 C 842.799 384.453 829.117 405.157 841.449 430.805 C 835.986 433.803 818.585 444.588 814.088 443.364 L 812.953 441.969 C 812.249 441.291 811.895 441.102 811.45 440.253 z" fill="rgb(105,80,71)" transform="translate(0,0)"></path>
<path d="M 1209.28 1110.22 C 1216.94 1113.61 1222.98 1120.19 1226.78 1127.55 C 1231.69 1137.05 1232.91 1148.44 1229.45 1158.63 C 1227.27 1165.06 1221.39 1171.04 1216.65 1175.74 C 1204.11 1188.18 1071.74 1304.08 1064.7 1307.1 C 1058.21 1309.88 1050.88 1307.79 1044.65 1305.44 C 1033.7 1299.84 1030.72 1296.51 1022.17 1287.99 C 1035.67 1290.51 1047.57 1292.91 1059.11 1283.38 C 1086.94 1260.4 1113.68 1236.07 1140.97 1212.42 C 1161.03 1193.89 1186.44 1176.85 1202.87 1154.97 C 1212.25 1142.48 1212.79 1124.55 1209.28 1110.22 z" fill="rgb(203,151,130)" transform="translate(0,0)"></path>
<path d="M 139.565 1334.02 L 140.668 1334.74 C 137.773 1338.85 133.906 1342.82 130.757 1346.87 C 110.498 1372.93 123.121 1382.79 137.99 1406.9 L 168.644 1456.44 L 197.351 1502.96 C 218.386 1537.15 227.33 1557.39 272.13 1559.17 C 265.669 1563.8 261.92 1565.62 254.386 1567.93 C 234.768 1572.57 211.972 1564.53 200.056 1548.3 C 193.324 1539.13 187.495 1529.4 181.535 1519.72 L 150.399 1468.66 C 139.072 1450.12 106.657 1401.35 100.194 1383.86 C 103.314 1358.1 116.688 1344.27 139.565 1334.02 z" fill="rgb(203,151,130)" transform="translate(0,0)"></path>
<path d="M 211.74 1311.91 C 213.346 1313.89 217.164 1324.72 218.519 1327.91 C 227.212 1348.36 233.569 1370.06 247.693 1387.5 C 243.58 1395.05 241.968 1398.03 241.421 1406.58 C 224.959 1408.49 224.967 1410.19 209.675 1415.63 C 197.264 1412.05 186.709 1403.83 180.2 1392.67 C 169.102 1373.62 172.504 1351.26 177.666 1331.07 C 194.711 1329.36 200.1 1324.04 211.74 1311.91 z" fill="rgb(203,151,130)" transform="translate(0,0)"></path>
<path d="M 1071.23 295.204 C 1079.24 306.035 1083.86 313.714 1089.78 325.78 C 1090.3 326.352 1090.23 326.391 1090.56 327.159 C 1099.74 347.97 1102.8 367.791 1103.57 390.244 C 1064.64 368.488 1069.43 333.441 1071.23 295.204 z" fill="rgb(105,80,71)" transform="translate(0,0)"></path>
<path d="M 567.159 1590.41 C 590.879 1586.73 627.29 1595.1 648.718 1605.89 C 687.872 1625.48 717.645 1659.82 731.494 1701.35 C 745.003 1742.7 742.139 1792.25 722.236 1831.1 C 702.783 1869.66 668.836 1898.94 627.835 1912.52 C 611.242 1917.83 596.307 1918.6 579.313 1921.81 C 562.779 1924.88 546.835 1928.83 530.058 1930.76 C 462.041 1938.58 385.992 1926.27 331.555 1882.29 C 324.512 1876.6 307.726 1859.34 305.113 1851.06 L 305.96 1850.09 C 307.779 1850.82 315.735 1862.76 318.395 1865.61 C 372.4 1923.61 463.725 1937.65 539.052 1926.7 C 548.972 1925.5 562.127 1922.69 572.138 1920.83 C 566.396 1919.97 559.045 1918.59 553.351 1918.32 C 521.08 1916.91 494.924 1916.89 463.22 1908.47 C 398.587 1891.28 335.449 1842.81 341.246 1769.26 C 341.354 1767.88 342.053 1767.74 343.066 1767.21 C 344.165 1770.46 343.399 1782.15 343.954 1787.48 C 346.455 1812.72 357.192 1836.44 374.509 1854.98 C 415.643 1899.31 476.238 1912.69 534.17 1914.78 C 512.222 1906.09 493.001 1897.49 474.946 1881.79 C 442.083 1853.21 421.707 1811.78 418.413 1768.51 C 414.789 1724.43 428.796 1680.73 457.36 1646.97 C 486.282 1613.41 522.795 1593.75 567.159 1590.41 z" fill="rgb(12,9,8)" transform="translate(0,0)"></path>
<path d="M 486.729 1625.29 C 499.736 1608.65 538.018 1596.23 559.073 1593.86 C 603.021 1588.94 640.977 1599.22 675.695 1626.5 C 709.582 1653.14 731.344 1692.28 736.093 1735.12 C 740.74 1774.52 731.141 1818.26 707.241 1850.78 C 704.254 1854.84 700.818 1857.91 696.336 1860.24 C 697.128 1861.73 697.224 1861.62 696.882 1863.16 C 633.621 1938.38 514.297 1934.06 454.839 1856.7 C 428.009 1821.91 416.207 1777.83 422.061 1734.29 C 428.059 1689.63 446.658 1654.55 482.801 1627.08 C 484.016 1625.92 485.128 1625.73 486.729 1625.29 z" fill="rgb(227,52,50)" transform="translate(0,0)"></path>
<path d="M 482.801 1627.08 C 476.779 1643.13 461.068 1669.14 464.668 1688.26 C 462.344 1698.78 463.002 1720.52 465.399 1731.11 C 466.648 1735.51 478.479 1774.94 478.479 1774.96 C 483.099 1786.41 488.862 1795.36 497.492 1804.24 L 498.188 1804.93 C 504.458 1811.19 509.535 1818.56 515.842 1825.02 C 538.986 1848.71 566.081 1856.85 594.898 1870.13 C 607.694 1873.33 616.438 1874.72 629.652 1875.81 C 635.783 1874.59 644.289 1874.97 651.499 1873.88 C 667.982 1871.39 681.144 1866.47 696.336 1860.24 C 697.128 1861.73 697.224 1861.62 696.882 1863.16 C 633.621 1938.38 514.297 1934.06 454.839 1856.7 C 428.009 1821.91 416.207 1777.83 422.061 1734.29 C 428.059 1689.63 446.658 1654.55 482.801 1627.08 z" fill="rgb(204,16,45)" transform="translate(0,0)"></path>
<path d="M 497.492 1804.24 L 498.188 1804.93 C 504.458 1811.19 509.535 1818.56 515.842 1825.02 C 538.986 1848.71 566.081 1856.85 594.898 1870.13 C 574.267 1873.76 501.591 1826.11 497.492 1804.24 z" fill="rgb(124,3,14)" transform="translate(0,0)"></path>
<path d="M 629.652 1875.81 C 635.783 1874.59 644.289 1874.97 651.499 1873.88 C 667.982 1871.39 681.144 1866.47 696.336 1860.24 C 697.128 1861.73 697.224 1861.62 696.882 1863.16 C 690.959 1863.53 687.198 1866.45 681.887 1868.3 C 668.695 1872.91 642.885 1881.38 629.652 1875.81 z" fill="rgb(124,3,14)" transform="translate(0,0)"></path>
<path d="M 465.399 1731.11 C 466.648 1735.51 478.479 1774.94 478.479 1774.96 C 474.534 1773.72 462.212 1737.48 465.399 1731.11 z" fill="rgb(124,3,14)" transform="translate(0,0)"></path>
<path d="M 482.801 1627.08 C 484.016 1625.92 485.128 1625.73 486.729 1625.29 C 479.046 1640.45 472.787 1651.79 468.681 1668.7 C 467.108 1675.18 466.24 1682.36 464.668 1688.26 C 461.068 1669.14 476.779 1643.13 482.801 1627.08 z" fill="rgb(69,6,11)" transform="translate(0,0)"></path>
<path d="M 1141 612.637 C 1151.65 605.106 1195.65 571.247 1202.95 568.071 C 1205.14 567.104 1207.57 566.824 1209.92 567.266 C 1217.15 568.7 1223.71 576.556 1222.44 584.136 C 1234.02 586.943 1244.62 581.255 1242.83 602.442 C 1241.69 615.974 1256.63 613.933 1250.48 629.095 C 1247.59 637.701 1231.49 646.476 1231.51 649.547 C 1240.23 653.71 1254.86 660.351 1239.93 672.067 C 1224.74 683.986 1205.67 693.126 1189.82 704.416 C 1175.58 713.503 1160.16 724.526 1144.4 730.411 C 1133.89 734.333 1116.5 730.013 1105.76 735.907 C 1027.12 793.431 933.616 871.082 847.425 772.886 C 842.484 776.723 832.277 785.033 827.233 787.373 L 823.308 785.608 C 823.809 785.417 824.309 785.226 824.81 785.035 L 825.592 784.702 C 832.682 781.73 841.309 773.749 847.644 769.157 C 870.884 752.313 892.15 735.156 911.798 714.157 C 919.129 706.322 929.427 701.017 935.436 691.396 L 937.671 692.057 C 933.375 702.446 924.452 704.476 923.882 709.505 C 928.304 713.403 930.505 717.013 933.943 721.737 L 943.903 722.106 C 966.737 718.332 986.014 709.608 1007.75 702.605 C 1024.02 697.364 1042.52 695.686 1057.93 687.389 C 1077.07 676.917 1081.01 654.2 1089.99 636.557 C 1095.38 625.944 1106.48 615.287 1113.22 605.091 C 1119.02 596.309 1130.07 561.482 1144.41 570.272 C 1151.62 581.376 1145.65 601.515 1141 612.637 z" fill="rgb(203,151,130)" transform="translate(0,0)"></path>
<path d="M 1141 612.637 C 1151.65 605.106 1195.65 571.247 1202.95 568.071 C 1205.14 567.104 1207.57 566.824 1209.92 567.266 C 1217.15 568.7 1223.71 576.556 1222.44 584.136 C 1234.02 586.943 1244.62 581.255 1242.83 602.442 C 1241.69 615.974 1256.63 613.933 1250.48 629.095 C 1247.59 637.701 1231.49 646.476 1231.51 649.547 C 1240.23 653.71 1254.86 660.351 1239.93 672.067 C 1224.74 683.986 1205.67 693.126 1189.82 704.416 C 1175.58 713.503 1160.16 724.526 1144.4 730.411 C 1133.89 734.333 1116.5 730.013 1105.76 735.907 C 1027.12 793.431 933.616 871.082 847.425 772.886 C 842.484 776.723 832.277 785.033 827.233 787.373 L 823.308 785.608 C 823.809 785.417 824.309 785.226 824.81 785.035 L 825.592 784.702 C 832.682 781.73 841.309 773.749 847.644 769.157 C 870.884 752.313 892.15 735.156 911.798 714.157 C 919.129 706.322 929.427 701.017 935.436 691.396 L 937.671 692.057 C 933.375 702.446 924.452 704.476 923.882 709.505 L 922.339 710.388 L 921.04 710.174 C 911.318 715.136 871.307 769.906 861.112 783.026 C 865.411 787.511 870.047 791.859 875.01 795.607 C 929.536 836.781 997.312 811.104 1046.72 775.264 C 1062.15 764.068 1090.58 739.234 1106.46 732.647 C 1116.71 728.396 1127.97 730.595 1138.65 728.899 C 1144.14 728.029 1148.93 725.762 1153.81 723.202 C 1165.06 717.297 1236.23 674.209 1240.64 667.464 C 1242.18 665.1 1242.63 662.297 1241.85 659.575 C 1241.05 656.803 1238.96 654.376 1236.32 653.204 C 1226.14 648.685 1198.33 673.813 1187.55 678.198 L 1186.29 677.484 C 1188.65 673.961 1195.45 670.46 1199.24 667.722 C 1211.18 659.103 1241.4 641.012 1247.39 629.023 C 1249.08 625.584 1249.34 621.617 1248.12 617.986 C 1242.5 601.656 1227.18 616.004 1219.97 620.329 C 1204.84 629.411 1187.95 646.086 1171.7 652.052 C 1171.1 646.928 1237.41 610.78 1240.35 601.833 C 1241.29 598.973 1241.47 596.38 1240 593.669 C 1237.6 589.258 1233.8 587.634 1229.31 586.2 C 1227.18 586.691 1227.28 586.854 1225.32 586.387 C 1207.44 593.169 1168.48 626.22 1155.7 629.327 C 1169.91 616.292 1194.88 602.492 1211.36 591.073 C 1227.46 579.92 1214.52 568.777 1207.18 569.456 C 1198.08 570.3 1126.29 630.561 1120.93 627.964 C 1122.69 624.161 1132.43 620.086 1135.04 616.674 C 1141.05 608.84 1150.97 578.492 1140.37 572.159 C 1127.26 572.313 1123.6 595.774 1116.38 604.895 C 1100.42 625.028 1087.8 641.554 1080.18 666.643 C 1071.14 693.199 1031.38 699.449 1008.04 705.25 C 988 711.121 965.772 722.423 944.054 723.969 C 944.905 728.28 943.518 732.473 942.52 736.815 C 939.577 733.303 936.502 729.847 934.041 725.99 L 933.943 721.737 L 943.903 722.106 C 966.737 718.332 986.014 709.608 1007.75 702.605 C 1024.02 697.364 1042.52 695.686 1057.93 687.389 C 1077.07 676.917 1081.01 654.2 1089.99 636.557 C 1095.38 625.944 1106.48 615.287 1113.22 605.091 C 1119.02 596.309 1130.07 561.482 1144.41 570.272 C 1151.62 581.376 1145.65 601.515 1141 612.637 z" fill="rgb(12,9,8)" transform="translate(0,0)"></path>
<path d="M 1225.32 586.387 C 1226.89 585.366 1227.5 585.766 1229.31 586.2 C 1227.18 586.691 1227.28 586.854 1225.32 586.387 z" fill="rgb(105,80,71)" transform="translate(0,0)"></path>
<path d="M 922.339 710.388 L 923.882 709.505 C 928.304 713.403 930.505 717.013 933.943 721.737 L 934.041 725.99 C 929.956 720.795 926.25 715.703 922.339 710.388 z" fill="rgb(12,9,8)" transform="translate(0,0)"></path>
<path d="M 482.399 495.836 L 483.563 496.228 C 482.462 499.972 465.077 511.449 460.416 515.102 C 448.413 524.66 436.809 534.708 425.633 545.22 C 396.831 572.027 371.871 602.685 351.46 636.323 C 281.286 753.528 265.795 882.222 298.859 1013.89 L 296.195 1012.26 C 292.521 1004.03 289.28 985.279 287.572 975.845 C 276.968 917.292 275.564 864.708 286.084 806.074 C 309.961 672.987 372.828 573.069 482.399 495.836 z" fill="rgb(12,9,8)" transform="translate(0,0)"></path>
<path d="M 356.062 533.572 L 357.572 534.512 C 357.223 535.472 329.833 568.291 326.196 573.234 C 243.042 686.353 208.397 827.947 229.928 966.681 L 228.012 966.775 C 223.254 958.468 220.904 900.695 220.619 889.142 C 217.659 769.392 271.583 619.162 356.062 533.572 z" fill="rgb(12,9,8)" transform="translate(0,0)"></path>
<path d="M 763.146 1141.54 C 765.405 1146.68 754.689 1164.58 751.759 1169.81 C 699.337 1263.84 618.306 1338.71 520.433 1383.55 C 501.351 1392.33 479.419 1401.5 459.329 1407.17 C 458.617 1403.19 472.327 1400.16 476.313 1398.71 C 508.994 1386.91 540.459 1371.97 570.273 1354.12 C 635.737 1314.16 691.413 1260.03 733.207 1195.72 C 745.601 1176.24 752.404 1160.13 763.146 1141.54 z" fill="rgb(12,9,8)" transform="translate(0,0)"></path>
<path d="M 686.535 1160.86 L 687.381 1162.09 C 687.106 1163.05 686.578 1164.65 686.057 1165.44 C 619.922 1265.92 515.553 1334.17 402.812 1371.7 L 402.28 1371.18 C 402.352 1369.47 401.962 1369.3 403.286 1368.79 C 414.028 1364.63 425.945 1360.81 436.648 1356.57 C 459.042 1347.65 480.912 1337.48 502.151 1326.08 C 557.75 1296.11 608.116 1256.63 649.979 1209.06 C 663.77 1193.39 673.914 1176.96 686.535 1160.86 z" fill="rgb(12,9,8)" transform="translate(0,0)"></path>
<path d="M 840.315 1821.63 C 840.563 1822.31 841.091 1823.73 840.996 1824.49 C 835.193 1870.55 791.032 1897.71 748.639 1904.99 C 742.458 1906.05 735.738 1906.58 729.39 1907.18 L 729.512 1905.14 C 747.606 1902.92 760.848 1900.67 778.169 1893.73 C 801.285 1884.5 822.246 1867.56 832.714 1844.61 C 836.079 1837.24 836.914 1828.99 840.315 1821.63 z" fill="rgb(12,9,8)" transform="translate(0,0)"></path>
<path d="M 795.736 1753.72 C 798.09 1755.17 798.627 1757.07 799.509 1759.71 C 806.371 1780.99 804.721 1804.11 794.904 1824.2 C 784.139 1845.85 765.98 1859.78 743.419 1867.48 L 742.612 1866.17 C 744.287 1863.45 752.903 1860.94 757.271 1858.62 C 763.713 1855.21 769.711 1851.02 775.129 1846.14 C 795.21 1827.84 803.415 1800.58 800.161 1773.95 C 799.429 1767.96 795.094 1759.02 795.736 1753.72 z" fill="rgb(12,9,8)" transform="translate(0,0)"></path>
<path d="M 718.484 1087.56 C 724.53 1092.67 701.294 1141.91 695.782 1149.27 C 695.655 1149.19 695.528 1149.11 695.401 1149.02 C 695.152 1148.86 694.904 1148.69 694.655 1148.52 C 694.476 1147.28 699.741 1136.94 700.757 1135.13 C 709.268 1119.93 712.589 1103.28 718.484 1087.56 z" fill="rgb(12,9,8)" transform="translate(0,0)"></path>
<path d="M 445.675 1409.22 C 450.775 1412.75 423.442 1417.9 421.137 1418.46 C 420.57 1417.82 419.861 1417.4 420.157 1416.51 C 420.718 1416.07 443.226 1409.81 445.675 1409.22 z" fill="rgb(12,9,8)" transform="translate(0,0)"></path>
<metadata><recraft-signature>{"signed_by": "recraft", "signature_b64": "hmsBq+oiB0hZYwmUXavdIU8mENIUoyUeEW8ixV18EeVCUWQ0dkYKZtX5FOjiWA/RXlFYUBJavbFapSpVtxB4Dw==", "signing_algo": "Ed25519", "generation_timestamp": 1779100993, "identifier": "bcc90ffb-daeb-4a24-8336-3a762bd22c07"}</recraft-signature></metadata></svg>