<svg xmlns="http://www.w3.org/2000/svg" height="1280" preserveAspectRatio="none" style="display: block;" version="1.1" viewBox="0 0 1331 2048" width="832">
<defs>
	<linearGradient gradientUnits="userSpaceOnUse" id="Gradient1" x1="360.445" x2="356.819" y1="1318.88" y2="1313.59">
		<stop class="stop0" offset="0" stop-color="rgb(17,12,10)" stop-opacity="1"></stop>
		<stop class="stop1" offset="1" stop-color="rgb(41,26,24)" stop-opacity="1"></stop>
	</linearGradient>
	<linearGradient gradientUnits="userSpaceOnUse" id="Gradient2" x1="301.238" x2="296.4" y1="1240.3" y2="1229.17">
		<stop class="stop0" offset="0" stop-color="rgb(11,10,9)" stop-opacity="1"></stop>
		<stop class="stop1" offset="1" stop-color="rgb(37,22,20)" stop-opacity="1"></stop>
	</linearGradient>
	<linearGradient gradientUnits="userSpaceOnUse" id="Gradient3" x1="736.139" x2="784.423" y1="1014.08" y2="1057.53">
		<stop class="stop0" offset="0" stop-color="rgb(25,19,17)" stop-opacity="1"></stop>
		<stop class="stop1" offset="1" stop-color="rgb(45,26,23)" stop-opacity="1"></stop>
	</linearGradient>
	<linearGradient gradientUnits="userSpaceOnUse" id="Gradient4" x1="545.499" x2="509.457" y1="983.948" y2="976.256">
		<stop class="stop0" offset="0" stop-color="rgb(18,16,13)" stop-opacity="1"></stop>
		<stop class="stop1" offset="1" stop-color="rgb(40,24,21)" stop-opacity="1"></stop>
	</linearGradient>
</defs>
<path d="M 0 0 L 1331 0 L 1331 2048 L 603.428 2048 L 574.38 2048 L 0 2048 L 0 0 z" fill="rgb(254,250,248)" transform="translate(0,0)"></path>
<path d="M 555.85 276.718 C 559.529 278.229 565.996 281.599 569.617 283.643 C 577.211 287.928 602.521 292.683 607.2 297.959 C 619.895 298.707 640.147 303.72 647.739 303.977 C 661.377 305.347 677.857 308.715 674.877 326.383 C 672.489 340.541 667.207 355.742 662.617 369.322 C 661.876 374.234 660.099 384.091 659.926 388.683 C 667.384 386.079 676.714 381.711 684.164 379.83 C 704.814 374.617 729.186 372.829 749.564 379.526 C 749.51 377.432 748.764 375.428 748.175 373.368 L 746.139 370.745 C 747.371 359.185 742.901 338.069 740.793 325.848 C 748.875 320.429 757.655 316.684 766.95 310.218 C 778.666 302.631 814.549 288.842 828.108 287.496 C 832.099 288.06 834.755 287.101 838.622 287.671 C 842.456 288.235 846.434 285.288 850.529 285.649 C 852.281 285.804 853.374 288.622 854.238 288.531 C 856.314 288.313 858.423 286.197 859.042 284.198 C 891.434 264.002 888.59 313.783 893.413 333.982 C 915.586 426.846 922.734 521.211 909.563 616.04 C 904.552 652.12 900.862 685.178 888.395 719.978 C 880.7 761.673 865.018 798.609 856.818 839.889 C 855.81 844.964 860.14 854.52 860.034 861.004 C 860.226 866.866 862.132 874.564 863.084 880.579 C 866.678 903.289 871.71 925.732 876.225 948.383 C 884.956 992.196 889.62 1036.18 894.503 1080.54 C 895.205 1086.92 896.256 1111.16 897.487 1115.62 L 897.984 1120.84 C 898.838 1136.77 903.153 1152.64 904.264 1169.33 C 899.733 1172.43 869.323 1194.15 866.452 1196.91 C 865.802 1200.4 865.837 1201.58 865.917 1205.15 C 865.554 1202.72 865.488 1199.66 863.882 1198 C 762.826 1247.9 661.885 1261.79 554.601 1225.14 C 548.199 1222.95 517.287 1207.18 514.715 1207.31 C 508.256 1207.24 451.82 1179.45 449.5 1172.15 C 447.556 1166.04 460.033 1131.3 464.662 1124.22 L 465.686 1121 C 467.34 1110 488.087 1066.79 493.266 1051.2 L 493.748 1050.03 C 494.146 1047.17 496.4 1040.25 497.255 1036.74 C 499.719 1026.46 502.093 1016.16 504.378 1005.84 C 507.255 992.733 508.531 978.729 511.276 966.733 L 513.196 953.977 C 513.806 946.9 519.162 926.12 521.157 918.143 C 515.457 909.982 503.256 840.365 500.484 826.677 C 494.937 808.622 490.795 787.36 486.048 768.965 C 483.802 760.262 480.205 730.308 477.12 725.399 C 466.992 724.272 460.169 722.763 450.392 720.266 C 446.736 695.495 457.724 664.831 470.58 643.805 C 471.325 642.52 471.426 642.463 472.881 642.148 C 472.645 600.765 478.843 555.045 482.739 513.871 C 483.548 505.314 489.133 480.912 486.794 475.271 C 490.114 466.037 491.75 445.724 493.798 435.3 C 498.83 409.692 503.005 381.341 509.74 356.197 L 510.409 355.062 C 512.213 341.707 515.834 323.452 519.217 310.314 C 521.952 299.698 540.611 297.439 550.734 297.374 C 552.388 291.979 554.141 282.939 555.85 276.718 z" fill="rgb(228,200,120)" transform="translate(0,0)"></path>
<path d="M 659.926 388.683 C 667.384 386.079 676.714 381.711 684.164 379.83 C 704.814 374.617 729.186 372.829 749.564 379.526 C 763.107 384.973 777.395 388.465 787.166 399.899 C 814.663 399.761 822.663 403.004 843.265 422.168 C 861.982 439.578 867.389 463.235 867.641 487.813 C 867.78 501.373 866.302 522.417 854.558 530.929 C 857.24 540.673 859.638 551.885 863.322 561.19 C 865.839 567.548 870.114 575.175 873.454 581.608 C 887.919 609.463 872.617 645.386 859.548 671.004 C 849.116 691.451 823.256 708.715 803.231 719.02 C 799.562 720.899 790.177 724.081 788.066 726.169 C 785.229 726.903 785.616 726.328 784.143 728.177 C 780.682 725.577 776.198 727.634 772.377 728.96 C 767.999 738.616 756.461 768.561 745.991 771.22 C 742.326 770.699 737.2 775.901 731.604 775.43 C 726.189 774.974 722.961 771.159 718.352 771.466 C 712.941 766.089 688.508 753.348 677.534 743.789 C 661.925 730.192 649.468 712.039 636.029 700.889 C 635.574 685.514 633.264 666.008 631.714 650.486 C 630.591 639.237 629.424 605.212 626.122 596.186 L 627.543 595.506 C 628.334 591.288 628.72 581.909 627.238 577.919 C 622.939 568.476 633.001 510.813 637.394 499.677 C 639.397 496.684 640.776 483.581 641.673 479.566 C 644.777 465.674 654.072 396.742 659.926 388.683 z" fill="rgb(225,164,137)" transform="translate(0,0)"></path>
<path d="M 659.926 388.683 C 667.384 386.079 676.714 381.711 684.164 379.83 C 704.814 374.617 729.186 372.829 749.564 379.526 C 763.107 384.973 777.395 388.465 787.166 399.899 C 814.663 399.761 822.663 403.004 843.265 422.168 C 861.982 439.578 867.389 463.235 867.641 487.813 C 867.78 501.373 866.302 522.417 854.558 530.929 C 852.878 526.452 851.106 519.864 849.676 515.141 C 845.863 505.557 841.398 495.585 837.316 486.06 C 836.456 483.538 833.687 476.959 831.53 475.501 C 821.442 456.092 813.803 446.506 795.774 434.365 L 788.374 431.711 C 789.581 426.351 791.786 416.616 790.275 411.376 L 789.166 411.195 C 785.024 421.234 785.154 429.891 779.809 440.738 C 760.801 479.314 729.645 511.906 693.177 534.406 C 692.462 534.846 689.986 535.539 689.112 535.8 C 696.422 526.569 705.713 518.715 706.664 506.165 C 680.787 530.107 665.464 545.055 632.759 559.321 C 631.547 564.682 630.095 573.635 627.238 577.919 C 622.939 568.476 633.001 510.813 637.394 499.677 C 639.397 496.684 640.776 483.581 641.673 479.566 C 644.777 465.674 654.072 396.742 659.926 388.683 z" fill="rgb(125,84,67)" transform="translate(0,0)"></path>
<path d="M 633.365 554.136 C 665.087 538.331 690.508 517.8 713.6 491.375 C 736.457 465.22 756.667 437.177 761.408 402.107 C 761.915 398.352 763.97 401.66 762.752 398.544 L 761.7 401.409 L 762.793 398.542 C 764.94 401.207 764.244 408.843 763.927 412.115 C 761.118 441.098 726.886 486.339 706.664 506.165 C 680.787 530.107 665.464 545.055 632.759 559.321 C 631.547 564.682 630.095 573.635 627.238 577.919 C 622.939 568.476 633.001 510.813 637.394 499.677 C 640.121 508.854 634.832 543.479 633.365 554.136 z" fill="rgb(37,21,20)" transform="translate(0,0)"></path>
<path d="M 795.774 434.365 C 803.816 432.848 818.168 441.38 824.748 445.805 C 840.099 456.128 848.525 470.581 851.576 488.791 C 852.605 494.926 853.466 508.079 850.448 514.244 C 850.191 514.543 849.934 514.842 849.676 515.141 C 845.863 505.557 841.398 495.585 837.316 486.06 C 836.456 483.538 833.687 476.959 831.53 475.501 C 821.442 456.092 813.803 446.506 795.774 434.365 z" fill="rgb(37,21,20)" transform="translate(0,0)"></path>
<path d="M 714.291 427.67 L 715.9 429.233 C 716.449 432.454 715.79 433.51 714.38 436.697 C 704.819 458.302 672.685 500.285 650.954 509.101 L 649.789 508.139 C 650.428 504.66 657.236 500.212 660.347 497.655 C 683.534 478.597 700.757 454.641 714.291 427.67 z" fill="rgb(37,21,20)" transform="translate(0,0)"></path>
<path d="M 696.088 395.365 C 697.359 395.282 703.684 394.992 704.037 395.174 C 712.458 399.527 688.356 400.788 686.504 401.116 C 678.99 402.449 672.528 404.619 665.187 406.901 C 662.892 407.748 658.134 410.43 656.624 407.887 C 658.581 401.29 689.435 396.187 696.088 395.365 z" fill="rgb(37,21,20)" transform="translate(0,0)"></path>
<path d="M 696.825 723.706 C 707.518 724.29 718.046 728.107 728.315 729.509 C 742.106 731.393 758.252 729.657 772.377 728.96 C 767.999 738.616 756.461 768.561 745.991 771.22 C 745.168 767.296 755.727 751.94 758.705 747.071 C 738.159 746.161 712.002 738.07 696.825 723.706 z" fill="rgb(37,21,20)" transform="translate(0,0)"></path>
<path d="M 689.112 535.8 C 689.986 535.539 692.462 534.846 693.177 534.406 C 729.645 511.906 760.801 479.314 779.809 440.738 C 785.154 429.891 785.024 421.234 789.166 411.195 L 790.275 411.376 C 791.786 416.616 789.581 426.351 788.374 431.711 C 771.38 477.012 719.623 534.405 673.099 549.695 C 678.148 544.321 683.431 540.427 689.112 535.8 z" fill="rgb(37,21,20)" transform="translate(0,0)"></path>
<path d="M 837.316 486.06 C 829.699 491.411 824.634 493.481 815.008 493.016 C 804.844 492.525 797.178 485.281 808.599 478.141 C 815.436 473.866 823.694 473.917 831.53 475.501 C 833.687 476.959 836.456 483.538 837.316 486.06 z" fill="rgb(125,84,67)" transform="translate(0,0)"></path>
<path d="M 696.648 605.249 C 743.794 599.965 747.79 633.353 698.016 642.776 C 643.718 648.828 647.457 613.879 696.648 605.249 z" fill="rgb(187,102,90)" transform="translate(0,0)"></path>
<path d="M 855.701 585.435 C 877.868 580.876 884.105 614.932 843.328 617.319 C 838.855 617.007 833.645 616.96 829.909 614.208 C 822.576 608.809 822.347 602.105 827.911 595.424 C 835.469 586.349 845.186 586.47 855.701 585.435 z" fill="rgb(187,102,90)" transform="translate(0,0)"></path>
<path d="M 724.043 561.863 C 731.491 562.168 730.457 562.35 735.542 568.411 C 737.35 579.238 740.503 593.02 728.929 599.351 C 722.808 597.052 717.435 594.131 716.136 587.057 C 714.226 576.66 712.968 566.791 724.043 561.863 z" fill="rgb(37,21,20)" transform="translate(0,0)"></path>
<path d="M 824.443 535.085 C 838.072 535.059 836.687 538.466 839.881 553.502 C 841.272 560.05 837.569 565.392 833.036 570.259 C 830.971 570.094 826.387 570.081 825.114 568.402 C 816.883 557.549 815.28 544.773 824.443 535.085 z" fill="rgb(37,21,20)" transform="translate(0,0)"></path>
<path d="M 790.654 580.183 C 800.403 579.182 813.668 577.552 817.103 590.481 C 819.897 600.999 810.226 615.436 799.59 615.561 C 789.15 615.684 821.794 597.126 809.177 587.694 C 799.676 580.592 789.216 589.837 786.113 581.573 C 788.616 582.808 790.164 583.488 790.654 580.183 z" fill="rgb(37,21,20)" transform="translate(0,0)"></path>
<path d="M 748.602 643.638 C 755.662 645.176 757.918 652.063 764.647 655.549 C 771.424 659.061 775.647 657.347 781.007 658.195 C 790.222 659.652 798.697 645.606 802.207 656.236 C 796.855 660.208 791.025 663.243 784.445 664.69 C 773.883 667.014 751.322 657.089 749.058 645.902 L 748.602 643.638 z" fill="rgb(37,21,20)" transform="translate(0,0)"></path>
<path d="M 786.113 581.573 C 785.824 579.035 783.613 560.945 784.034 560.025 C 788.621 550.009 790.277 577.931 790.654 580.183 C 790.164 583.488 788.616 582.808 786.113 581.573 z" fill="rgb(37,21,20)" transform="translate(0,0)"></path>
<path d="M 555.85 276.718 C 559.529 278.229 565.996 281.599 569.617 283.643 C 577.211 287.928 602.521 292.683 607.2 297.959 C 619.895 298.707 640.147 303.72 647.739 303.977 C 661.377 305.347 677.857 308.715 674.877 326.383 C 672.489 340.541 667.207 355.742 662.617 369.322 C 659.511 370.343 621.352 357.639 612.179 356.327 C 587.577 352.807 566.616 352.022 541.671 354.022 C 534.198 354.621 514.194 360.021 509.74 356.197 L 510.409 355.062 C 512.213 341.707 515.834 323.452 519.217 310.314 C 521.952 299.698 540.611 297.439 550.734 297.374 C 552.388 291.979 554.141 282.939 555.85 276.718 z" fill="rgb(228,200,120)" transform="translate(0,0)"></path>
<path d="M 510.409 355.062 C 552.135 344.69 598.374 344.246 639.432 358.027 C 645.056 359.914 660.301 364.102 662.617 369.322 C 659.511 370.343 621.352 357.639 612.179 356.327 C 587.577 352.807 566.616 352.022 541.671 354.022 C 534.198 354.621 514.194 360.021 509.74 356.197 L 510.409 355.062 z" fill="rgb(37,21,20)" transform="translate(0,0)"></path>
<path d="M 555.85 276.718 C 559.529 278.229 565.996 281.599 569.617 283.643 C 577.211 287.928 602.521 292.683 607.2 297.959 C 601.405 299.558 581.559 299.491 574.855 298.941 C 570.109 298.551 552.438 300.435 550.734 297.374 C 552.388 291.979 554.141 282.939 555.85 276.718 z" fill="rgb(37,21,20)" transform="translate(0,0)"></path>
<path d="M 626.122 596.186 C 629.424 605.212 630.591 639.237 631.714 650.486 C 633.264 666.008 635.574 685.514 636.029 700.889 C 649.468 712.039 661.925 730.192 677.534 743.789 C 688.508 753.348 712.941 766.089 718.352 771.466 C 697.793 779.537 646.24 720.619 636.378 704.934 C 638.292 718.293 638.723 750.979 643.036 760.503 C 654.336 785.456 673.932 816.835 688.688 839.745 C 690.412 836.934 693.913 832.353 695.868 829.759 C 701.4 822.421 724.105 789.609 731.056 788.937 L 731.849 790.504 C 731.657 791.359 731.42 792.164 731.115 792.988 C 727.602 802.465 697.205 841.839 688.956 844.901 C 677.7 849.079 652.834 783.726 642.834 779.501 C 641.989 779.144 641.014 778.846 640.285 778.267 C 635.577 774.529 628.467 688.416 627.415 676.679 C 621.604 690.588 605.882 745.325 599.999 751.506 L 598.627 751.199 C 598.438 750.551 598.249 749.904 598.061 749.257 C 604.544 706.217 608.913 662.941 619.979 620.666 C 621.573 614.576 622.603 600.326 626.122 596.186 z" fill="rgb(37,21,20)" transform="translate(0,0)"></path>
<path d="M 465.686 1121 C 525.679 1161.42 596.819 1187.53 669.627 1188.79 C 690.407 1189.16 708.285 1186.14 729.461 1188.17 C 716.8 1191.05 697.881 1194.96 684.316 1195.21 C 614.657 1196.5 546.924 1176.84 487.301 1141.31 C 478.418 1136.02 472.218 1130.74 464.662 1124.22 L 465.686 1121 z" fill="rgb(37,21,20)" transform="translate(0,0)"></path>
<path d="M 859.72 802.3 C 866.152 779.854 875.309 757.538 881.863 735.053 C 883.194 730.486 884.484 723.636 886.828 719.72 L 888.395 719.978 C 880.7 761.673 865.018 798.609 856.818 839.889 C 855.81 844.964 860.14 854.52 860.034 861.004 L 857.583 860.652 C 856.478 859.827 855.715 859.178 855.171 857.871 C 850.9 847.595 834.289 745.477 836.949 739.61 L 838.526 739.657 C 845.819 760.696 851.805 781.366 859.72 802.3 z" fill="rgb(37,21,20)" transform="translate(0,0)"></path>
<path d="M 470.58 643.805 C 471.647 646.322 472.108 648.977 472.85 651.601 C 473.261 664.181 473.885 676.976 474.75 689.472 C 475.214 696.168 479.066 721.472 477.12 725.399 C 466.992 724.272 460.169 722.763 450.392 720.266 C 446.736 695.495 457.724 664.831 470.58 643.805 z" fill="rgb(37,21,20)" transform="translate(0,0)"></path>
<path d="M 526.331 975.076 C 530.584 962.932 550.53 922.186 559.443 914.531 L 560.596 914.708 C 559.756 921.161 536.777 962.986 532.521 971.628 L 506.462 1024.58 C 503.68 1030.3 497.176 1046.13 493.748 1050.03 C 494.146 1047.17 496.4 1040.25 497.255 1036.74 C 499.719 1026.46 502.093 1016.16 504.378 1005.84 C 507.255 992.733 508.531 978.729 511.276 966.733 L 513.196 953.977 C 521.737 959.173 518.539 964.838 526.331 975.076 z" fill="url(#Gradient4)" transform="translate(0,0)"></path>
<path d="M 500.484 826.677 L 501.951 825.626 C 504.673 827.591 508.879 842.196 510.951 846.236 C 518.059 860.092 528.902 879.897 537.848 892.116 C 535.548 899.305 526.28 912.878 521.157 918.143 C 515.457 909.982 503.256 840.365 500.484 826.677 z" fill="rgb(37,21,20)" transform="translate(0,0)"></path>
<path d="M 784.143 728.177 C 785.616 726.328 785.229 726.903 788.066 726.169 C 795.812 737.393 801.346 757.068 804.105 770.521 C 806.394 781.689 803.204 812.066 796.078 821.359 C 787.975 824.399 753.776 795.925 749.394 788.454 L 749.826 787.002 C 757.281 787.897 784.317 807.643 791.163 813.191 C 802.619 778.517 795.32 759.862 784.143 728.177 z" fill="rgb(37,21,20)" transform="translate(0,0)"></path>
<path d="M 746.139 370.745 C 773.647 351.527 866.422 328.215 897.666 340.718 C 883.721 342.708 869.574 342.475 855.587 343.823 C 842.674 345.067 829.7 347.764 816.928 350.038 C 796.555 353.665 777.078 360.227 758.71 369.787 C 755.255 371.586 751.933 372.467 748.175 373.368 L 746.139 370.745 z" fill="rgb(37,21,20)" transform="translate(0,0)"></path>
<path d="M 897.487 1115.62 L 897.984 1120.84 C 886.783 1133.5 818.239 1173.31 807.421 1168.41 L 807.361 1166.29 C 810.651 1163.58 817.62 1161.63 821.855 1159.63 C 849.723 1146.48 872.469 1133.86 897.487 1115.62 z" fill="rgb(37,21,20)" transform="translate(0,0)"></path>
<path d="M 470.58 643.805 C 471.325 642.52 471.426 642.463 472.881 642.148 C 472.902 645.299 472.892 648.45 472.85 651.601 C 472.108 648.977 471.647 646.322 470.58 643.805 z" fill="rgb(47,22,19)" transform="translate(0,0)"></path>
<path d="M 828.532 910.359 L 830.453 911.433 C 830.67 912.173 831.098 913.617 831.041 914.417 C 826.983 973.988 798.507 1032.46 765.154 1081.03 C 749.4 1103.98 700.141 1143.78 672.133 1144.29 C 671.076 1143.47 671.143 1143.23 670.382 1142.01 C 671.655 1138.14 688.689 1125.95 692.881 1122.33 C 732.47 1088.13 770.662 1045.61 796.819 1000.14 C 806.812 982.932 814.537 964.503 819.803 945.313 C 822.877 933.855 825.194 921.503 828.532 910.359 z" fill="url(#Gradient3)" transform="translate(0,0)"></path>
<path d="M 620.332 778.3 C 622.557 779.071 624.042 779.238 624.197 781.939 C 624.761 791.725 625.438 801.45 623.662 811.121 C 622.126 810.833 619.698 810.365 619.721 808.551 C 619.839 799.312 619.599 787.324 620.332 778.3 z" fill="rgb(37,21,20)" transform="translate(0,0)"></path>
<path d="M 783.573 1170.21 C 785.126 1170.34 785.721 1170.19 786.404 1171.62 C 783.945 1176.93 770.326 1180.25 765.106 1181.57 C 753.766 1179.8 778.631 1171.99 780.186 1171.44 L 783.573 1170.21 z" fill="rgb(37,21,20)" transform="translate(0,0)"></path>
<path d="M 564.715 852.506 C 570.924 856.069 560.499 868.008 557.433 871.356 C 552.011 866.917 561.294 857.343 564.715 852.506 z" fill="rgb(37,21,20)" transform="translate(0,0)"></path>
<path d="M 633.856 1238.98 C 634.19 1239.05 633.998 1238.98 634.436 1239.27 C 634.242 1239.18 634.049 1239.08 633.856 1238.98 z" fill="rgb(189,161,95)" transform="translate(0,0)"></path>
<path d="M 514.715 1207.31 C 517.287 1207.18 548.199 1222.95 554.601 1225.14 C 661.885 1261.79 762.826 1247.9 863.882 1198 C 865.488 1199.66 865.554 1202.72 865.917 1205.15 C 865.472 1211.12 865.72 1213.95 866.264 1219.98 C 866.503 1224.29 866.911 1229.33 866.956 1233.58 C 867.793 1242.01 870.612 1261.8 869.718 1269.08 L 866.955 1269.61 L 866.574 1271.27 C 867.872 1272.77 868.106 1273.26 869.858 1274.21 C 879.071 1314.01 881.891 1359.5 887.267 1400.2 C 887.991 1405.68 888.825 1412.19 889.126 1417.68 C 889.384 1421.28 889.251 1432.85 891.841 1434.69 C 889.729 1437.74 890.251 1436.3 890.17 1440.35 C 894.497 1461.62 899.56 1508.39 899.018 1529.89 C 900.598 1534.02 904.711 1578.72 905.557 1586.58 C 910.738 1606.23 912.753 1648.58 915.532 1669.63 C 917.935 1687.83 920.885 1705.52 922.529 1723.75 C 923.164 1730.8 924.961 1767.68 926.451 1770.76 C 927.674 1779.64 929.181 1792.01 928.978 1801 C 912.053 1815.7 896.596 1822.17 875.896 1829.36 L 876.154 1838.01 C 851.964 1853.69 816.995 1854.11 789.197 1853.85 C 789.09 1848.07 789.293 1845.23 787.456 1839.79 C 785.678 1837.06 776.635 1837.11 772.688 1836.58 C 752.683 1833.88 737.269 1824.49 719.867 1817.6 C 719.076 1813.87 717.709 1809.62 716.611 1805.9 L 714.94 1805.67 L 714.281 1806.7 C 710.899 1803.19 673.662 1805.87 669.176 1807.94 C 648.904 1800.85 628.314 1790.03 607.487 1783.51 C 601.964 1781.78 595.197 1777.28 589.589 1776.78 C 583.302 1793.78 578.64 1826.4 572.567 1836.44 L 571.96 1837.46 C 571.833 1837.67 571.706 1837.87 571.579 1838.07 C 551.901 1845.52 532.655 1847.59 511.732 1846.86 C 504.866 1844.09 473.807 1843.29 463.753 1841.42 C 451.492 1839.13 435.126 1830.04 425.905 1828.26 C 409.958 1823.99 372.476 1803.51 367.058 1788.95 C 363.488 1779.35 385.163 1720.89 389.808 1709.85 C 392.05 1702.5 396.169 1689.26 399.154 1682.66 C 402.082 1680.34 405.751 1663.71 406.209 1659.66 C 411.064 1648.39 417.074 1624.55 421.057 1611.64 C 434.415 1568.31 445.553 1523.65 459.092 1480.34 C 460.594 1472.15 469.686 1442.88 472.305 1432.93 C 473.399 1420.97 477.906 1405.23 480.103 1393.09 C 483.545 1374.07 487.076 1354.99 490.697 1336 C 492.281 1327.69 495.752 1314.89 496.345 1307.18 C 503.653 1276.43 507.928 1239.95 514.715 1207.31 z" fill="rgb(187,102,90)" transform="translate(0,0)"></path>
<path d="M 702.555 1495.73 C 707.137 1513.69 705.349 1519.28 707.895 1532.9 C 707.707 1574.84 714.735 1615.1 711.879 1657.37 C 710.787 1673.54 713.634 1695.09 712.884 1712.4 C 711.55 1743.24 718.1 1774.74 716.611 1805.9 L 714.94 1805.67 L 714.281 1806.7 C 710.899 1803.19 673.662 1805.87 669.176 1807.94 C 648.904 1800.85 628.314 1790.03 607.487 1783.51 C 601.964 1781.78 595.197 1777.28 589.589 1776.78 C 589.2 1773.38 598.232 1742.19 599.928 1737.36 C 598.164 1735 600.553 1727.68 602.776 1725.62 C 620.127 1734.17 626.625 1739.65 646.841 1741.57 C 649.682 1740.33 653.147 1738.41 655.962 1736.96 C 659.894 1730.92 662.838 1724.28 664.684 1717.31 C 667.193 1707.71 667.142 1689.69 672.124 1684.62 L 672.805 1683.41 C 672.914 1679.88 673.361 1676.49 672.148 1673.27 C 674.456 1666.42 673.508 1582.45 672.298 1576.76 C 673.653 1575.68 673.998 1574.34 673.925 1572.52 C 673.225 1555.06 673.23 1539.59 675.213 1522.2 C 684.725 1511.53 691.426 1504.62 702.555 1495.73 z" fill="rgb(225,164,137)" transform="translate(0,0)"></path>
<path d="M 672.124 1684.62 C 673.781 1689.23 674.894 1755.24 674.019 1761.42 C 663.474 1776.42 612.183 1745.43 599.928 1737.36 C 598.164 1735 600.553 1727.68 602.776 1725.62 C 620.127 1734.17 626.625 1739.65 646.841 1741.57 C 649.682 1740.33 653.147 1738.41 655.962 1736.96 C 659.894 1730.92 662.838 1724.28 664.684 1717.31 C 667.193 1707.71 667.142 1689.69 672.124 1684.62 z" fill="rgb(37,21,20)" transform="translate(0,0)"></path>
<path d="M 514.715 1207.31 C 517.287 1207.18 548.199 1222.95 554.601 1225.14 C 661.885 1261.79 762.826 1247.9 863.882 1198 C 865.488 1199.66 865.554 1202.72 865.917 1205.15 C 865.472 1211.12 865.72 1213.95 866.264 1219.98 C 857.594 1225.59 847.074 1229.84 837.539 1233.87 C 782.388 1257.15 713.069 1272.39 653.165 1272.17 C 637.131 1272.11 569.711 1265.55 559.726 1269.87 C 542.248 1277.45 525.078 1283.82 510.707 1296.93 C 507.73 1299.65 500.172 1309 497.132 1308.96 L 496.345 1307.18 C 503.653 1276.43 507.928 1239.95 514.715 1207.31 z" fill="rgb(37,21,20)" transform="translate(0,0)"></path>
<path d="M 645.64 1552.81 C 649.935 1542.23 652.976 1527.45 656.714 1517.27 C 664.119 1497.09 675.618 1461.02 685.291 1443.12 C 689.669 1461.47 698.85 1480.89 702.555 1495.73 C 691.426 1504.62 684.725 1511.53 675.213 1522.2 C 673.23 1539.59 673.225 1555.06 673.925 1572.52 C 673.998 1574.34 673.653 1575.68 672.298 1576.76 C 673.508 1582.45 674.456 1666.42 672.148 1673.27 C 673.361 1676.49 672.914 1679.88 672.805 1683.41 L 672.124 1684.62 C 667.142 1689.69 667.193 1707.71 664.684 1717.31 C 662.838 1724.28 659.894 1730.92 655.962 1736.96 C 653.147 1738.41 649.682 1740.33 646.841 1741.57 C 626.625 1739.65 620.127 1734.17 602.776 1725.62 C 608.658 1703.28 611.015 1685.45 615.27 1663.27 C 617.734 1650.43 623.093 1638.05 625.699 1623.07 C 630.239 1614.17 633.825 1594.11 636.574 1583.51 C 639.431 1572.48 642.044 1563.8 645.64 1552.81 z" fill="rgb(230,220,207)" transform="translate(0,0)"></path>
<path d="M 672.298 1576.76 C 673.508 1582.45 674.456 1666.42 672.148 1673.27 C 667.987 1658.48 662.229 1586.89 672.298 1576.76 z" fill="rgb(37,21,20)" transform="translate(0,0)"></path>
<path d="M 650.231 1635.54 C 650.553 1635.82 652.177 1637.16 652.1 1637.55 C 650.949 1643.43 649.336 1654.08 648.186 1659.5 C 645.513 1672.07 649.877 1684.46 645.672 1695.35 C 638.292 1683.08 642.659 1647.29 650.231 1635.54 z" fill="rgb(37,21,20)" transform="translate(0,0)"></path>
<path d="M 685.291 1443.12 C 683.955 1440.54 682.887 1439.65 683.904 1436.51 C 691.468 1413.21 749.301 1355.83 769.063 1346.1 L 771.393 1346.09 L 771.937 1347.8 C 769.143 1352.47 749.592 1367.91 744.101 1373.47 C 730.996 1386.76 711.713 1405.15 700.852 1420.12 C 711.265 1412.69 759.85 1381.01 771.009 1382.06 L 771.866 1383.53 C 766.663 1397.73 715.601 1401.48 695.389 1453.29 C 701.809 1498.91 729.297 1549.2 745.338 1592.44 C 748.62 1601.29 761.301 1619.94 758.895 1628.67 C 751.083 1619.99 732.83 1575.41 726.738 1562.97 C 722.087 1553.48 713.617 1542.67 707.895 1532.9 C 705.349 1519.28 707.137 1513.69 702.555 1495.73 C 698.85 1480.89 689.669 1461.47 685.291 1443.12 z" fill="rgb(37,21,20)" transform="translate(0,0)"></path>
<path d="M 625.699 1623.07 C 613.268 1641.08 598.102 1656.92 580.322 1669.68 C 576.096 1672.72 571.824 1679.38 566.56 1677.81 L 565.99 1675.62 C 566.274 1674.64 596.596 1628.79 598.293 1626.77 C 607.57 1615.69 634.783 1557.86 642.558 1552.21 L 645.64 1552.81 C 642.044 1563.8 639.431 1572.48 636.574 1583.51 C 633.825 1594.11 630.239 1614.17 625.699 1623.07 z" fill="rgb(37,21,20)" transform="translate(0,0)"></path>
<path d="M 899.018 1529.89 C 900.598 1534.02 904.711 1578.72 905.557 1586.58 C 900.327 1598.89 878.823 1639.95 864.526 1639.41 L 863.008 1637.75 C 866.524 1618.63 883.307 1588.02 888.527 1567.88 C 890.668 1559.62 895.412 1534.75 899.018 1529.89 z" fill="rgb(37,21,20)" transform="translate(0,0)"></path>
<path d="M 787.456 1839.79 C 791.249 1837.68 836.632 1838.88 845.852 1836.97 C 852.789 1835.53 870.843 1829.51 875.896 1829.36 L 876.154 1838.01 C 851.964 1853.69 816.995 1854.11 789.197 1853.85 C 789.09 1848.07 789.293 1845.23 787.456 1839.79 z" fill="rgb(37,21,20)" transform="translate(0,0)"></path>
<path d="M 472.305 1432.93 L 474.148 1432.55 C 475.37 1434.78 475.112 1455.86 474.449 1459.05 C 472.104 1470.34 477.196 1543.43 472.131 1546.59 C 463.801 1542.01 468.025 1492.56 459.092 1480.34 C 460.594 1472.15 469.686 1442.88 472.305 1432.93 z" fill="rgb(37,21,20)" transform="translate(0,0)"></path>
<path d="M 382.303 1748.72 C 388.32 1750.12 406.109 1764.57 413.884 1769.43 C 452.452 1793.59 498.646 1805.5 543.966 1801.86 C 553.601 1801.08 578.172 1795.45 580.291 1796.38 L 579.574 1798.58 C 523.88 1823.25 438.378 1798.27 393.067 1761.09 C 388.116 1757.03 383.333 1755.3 382.303 1748.72 z" fill="rgb(37,21,20)" transform="translate(0,0)"></path>
<path d="M 920.159 1759.73 C 922.092 1759.94 921.185 1759.62 922.846 1760.99 L 922.113 1762.95 C 912.071 1773.01 872.227 1785.92 857.962 1788.49 C 820.441 1795.28 762.943 1796.84 730.104 1774.03 L 727.121 1771.26 L 727.117 1769.45 C 730.79 1769.54 735.607 1773.79 739.48 1775.43 C 789.322 1796.55 875.684 1788.86 920.159 1759.73 z" fill="rgb(37,21,20)" transform="translate(0,0)"></path>
<path d="M 719.048 1594.61 C 722.436 1595.99 723.158 1596.62 723.846 1600.48 C 725.316 1608.71 729.21 1616.78 729.007 1625.15 C 721.958 1623.53 718.862 1600.85 719.048 1594.61 z" fill="rgb(37,21,20)" transform="translate(0,0)"></path>
<path d="M 473.986 1570.15 C 478.473 1572.32 476.766 1580.88 475.665 1585.26 C 469.827 1582.48 472.434 1574.91 473.986 1570.15 z" fill="rgb(37,21,20)" transform="translate(0,0)"></path>
<path d="M 861.2 1249.94 C 861.369 1250.05 861.538 1250.15 861.707 1250.26 C 861.538 1250.15 861.369 1250.05 861.2 1249.94 z" fill="rgb(214,141,122)" transform="translate(0,0)"></path>
<path d="M 493.266 1051.2 C 488.087 1066.79 467.34 1110 465.686 1121 L 464.662 1124.22 C 460.033 1131.3 447.556 1166.04 449.5 1172.15 C 451.82 1179.45 508.256 1207.24 514.715 1207.31 C 507.928 1239.95 503.653 1276.43 496.345 1307.18 C 495.752 1314.89 492.281 1327.69 490.697 1336 C 487.076 1354.99 483.545 1374.07 480.103 1393.09 C 477.906 1405.23 473.399 1420.97 472.305 1432.93 C 469.686 1442.88 460.594 1472.15 459.092 1480.34 C 445.553 1523.65 434.415 1568.31 421.057 1611.64 C 417.074 1624.55 411.064 1648.39 406.209 1659.66 C 405.751 1663.71 402.082 1680.34 399.154 1682.66 C 379.601 1670.68 368.372 1647.22 351.096 1633.09 C 335.362 1620.23 312.786 1614.36 295.48 1604.27 C 288.042 1599.93 274.898 1587.63 267.881 1581.85 C 247.331 1578.01 234.977 1581.89 215.288 1577.99 C 194.467 1573.99 180.46 1558.96 163.115 1548.3 C 152.019 1541.48 118.021 1536.56 117.365 1521 C 115.467 1519.28 113.215 1512.72 110.584 1509.15 C 131.336 1445.2 149.953 1391.58 189.16 1335.23 C 196.643 1324.25 204.762 1313.73 213.476 1303.71 C 218.018 1298.43 228.236 1287.78 231.43 1282.74 L 230.692 1281.79 C 226.731 1282.48 224.498 1284.63 221.349 1287.07 C 218.592 1286.63 215.843 1286.15 213.101 1285.63 C 174.063 1277.8 155.564 1220.92 155.587 1186.23 C 155.595 1174.06 146.801 1155.11 140.054 1145.03 L 138.723 1145.21 C 123.188 1139.64 120.606 1131.89 120.794 1116.77 C 141.012 1092.96 156.512 1110.9 180.391 1112.89 C 186.801 1113.29 193.085 1108.86 198.816 1107.5 C 228.481 1100.45 256.388 1085.87 285.568 1078.1 C 293.542 1075.98 337.754 1068.84 342.778 1071.96 C 353.641 1063.82 402.778 1072.97 416.014 1077.75 C 421.466 1073.11 449.789 1071.63 461.742 1066.93 C 476.767 1061.02 478.915 1060.56 493.266 1051.2 z" fill="rgb(230,220,207)" transform="translate(0,0)"></path>
<path d="M 117.365 1521 C 143.15 1539.56 149.338 1529.03 172.431 1537.34 C 203.511 1548.53 219.711 1571.47 250.441 1535.66 C 260.476 1568.38 272.594 1582.84 301.817 1600.4 C 322.069 1611.98 345.617 1605.09 367.219 1606.45 C 370.918 1606.68 371.904 1622.71 372.709 1625.98 C 376.693 1642.11 390.965 1654.29 406.209 1659.66 C 405.751 1663.71 402.082 1680.34 399.154 1682.66 C 379.601 1670.68 368.372 1647.22 351.096 1633.09 C 335.362 1620.23 312.786 1614.36 295.48 1604.27 C 288.042 1599.93 274.898 1587.63 267.881 1581.85 C 247.331 1578.01 234.977 1581.89 215.288 1577.99 C 194.467 1573.99 180.46 1558.96 163.115 1548.3 C 152.019 1541.48 118.021 1536.56 117.365 1521 z" fill="rgb(37,21,20)" transform="translate(0,0)"></path>
<path d="M 342.778 1071.96 C 353.641 1063.82 402.778 1072.97 416.014 1077.75 C 419.581 1078.9 420.467 1079.12 423.532 1081.22 L 423.551 1082.83 C 415.908 1084.7 395.467 1078.25 386.478 1076.94 C 376.873 1075.54 349.46 1075.64 342.778 1071.96 z" fill="rgb(37,21,20)" transform="translate(0,0)"></path>
<path d="M 363.76 1283.93 C 364.114 1284.24 364.634 1285.4 364.893 1285.89 C 363.533 1288.6 343.457 1302.6 339.513 1305.98 C 291.157 1347.48 265.613 1402.46 249.527 1463.22 C 246.963 1472.91 240.606 1498.85 236.445 1506.88 L 234.664 1504.52 C 233.32 1497.38 250.314 1443.25 253.545 1433.12 C 267.849 1388.25 287.163 1352.31 320.638 1319.08 C 335.882 1303.96 343.53 1294.22 363.76 1283.93 z" fill="rgb(37,21,20)" transform="translate(0,0)"></path>
<path d="M 414.549 1438.77 L 415.193 1439.59 C 415.306 1441.14 405.865 1459.93 404.412 1463.7 C 396.818 1483.37 392.091 1502.21 393.834 1523.51 C 394.249 1528.59 398.157 1553.68 394.055 1556.2 C 392.44 1554.12 391.693 1553.21 389.82 1551.37 C 387.414 1552.97 384.566 1564.44 383.145 1568.15 C 380.712 1574.51 378.077 1580.26 375.165 1586.4 C 373.938 1589.42 373.865 1589.65 371.823 1592.14 L 370.02 1592.16 C 367.845 1587.15 379.972 1559.95 381.829 1550.92 C 387.615 1522.77 390.597 1457.77 414.549 1438.77 z" fill="rgb(37,21,20)" transform="translate(0,0)"></path>
<path d="M 354.417 1427.58 L 355.801 1429.12 C 355.668 1432.14 351.734 1445.16 350.803 1451.55 C 349.234 1462.32 350.635 1480.54 348.224 1489.12 L 346.297 1489.65 C 344.278 1487.62 344.585 1483.85 343.092 1479.78 L 341.658 1479.85 C 328.26 1492.66 317.972 1532.98 316.69 1551.75 C 316.702 1552.84 316.698 1553.93 316.68 1555.03 C 316.59 1558.53 316.649 1559.04 314.581 1560.99 L 315.557 1561.04 L 314.964 1562.21 C 312.849 1560.14 312.658 1554.88 312.432 1552.15 C 309.737 1519.7 329.411 1492.72 342.092 1464.68 C 346.577 1454.76 346.333 1436.84 354.417 1427.58 z" fill="rgb(37,21,20)" transform="translate(0,0)"></path>
<path d="M 312.496 1362.51 L 314.233 1363.37 C 314.598 1366.33 302.989 1384.88 300.743 1389.28 C 278.495 1432.85 268.866 1477.54 262.502 1525.6 C 260.267 1523.95 258.798 1520.3 258.966 1517.69 C 261.763 1474.31 285.344 1394.64 312.496 1362.51 z" fill="rgb(37,21,20)" transform="translate(0,0)"></path>
<path d="M 474.575 1316.3 C 478.725 1315.6 480.568 1314.74 482.485 1318.78 C 478.011 1324.32 464.368 1324.91 457.494 1327.84 C 434.182 1337.77 416.579 1354.76 401.796 1374.95 C 400.475 1377.41 400.116 1377.9 398.246 1379.98 L 396.888 1379.88 C 394.589 1370.08 410.791 1354.68 417.152 1348.74 C 434.768 1332.28 450.769 1321.31 474.575 1316.3 z" fill="rgb(37,21,20)" transform="translate(0,0)"></path>
<path d="M 351.057 1204.93 C 353.102 1204.8 352.116 1204.59 353.999 1205.95 L 353.731 1207.84 C 348.871 1212.77 317.246 1224.72 307.804 1229.21 C 284.954 1240.07 267.259 1254.15 246.643 1266.13 L 244.503 1265.16 L 244.913 1263.53 C 269.406 1240.37 320.21 1217.98 351.057 1204.93 z" fill="url(#Gradient2)" transform="translate(0,0)"></path>
<path d="M 128.829 1491.78 C 135.867 1492.02 151.541 1502.64 159.743 1506.07 C 178.986 1514.13 197.191 1518.59 217.66 1522.37 C 220.88 1522.97 220.787 1524.3 221.086 1526.77 C 204.725 1529.4 134.041 1507.79 128.829 1491.78 z" fill="rgb(37,21,20)" transform="translate(0,0)"></path>
<path d="M 170.282 1143.24 C 174.605 1146.41 178.487 1157.49 181.08 1163.02 C 187.636 1176.99 194.284 1190.33 202.102 1203.61 C 207.42 1212.65 222.379 1226.53 224.897 1235.58 C 207.302 1232.77 172.119 1160.74 170.282 1143.24 z" fill="rgb(37,21,20)" transform="translate(0,0)"></path>
<path d="M 443.775 1244.34 C 459.124 1243.6 475.903 1243 490.202 1249.36 L 490.063 1250.52 C 481.262 1251.85 477.298 1250.54 468.249 1249.49 C 455.87 1247.88 427.541 1253.53 420.893 1250.56 L 421.131 1249.48 C 425.779 1246.37 437.623 1245.34 443.775 1244.34 z" fill="rgb(37,21,20)" transform="translate(0,0)"></path>
<path d="M 387.977 1296.83 C 391.352 1296.88 392.859 1298.51 389.752 1300.38 C 369.897 1312.34 347.556 1321.7 331.638 1339.18 C 322.597 1337.83 334.942 1329.78 337.447 1327.45 C 352.356 1313.61 370.032 1305.62 387.977 1296.83 z" fill="url(#Gradient1)" transform="translate(0,0)"></path>
<path d="M 383.711 1193.24 C 386.221 1192.92 385.611 1192.54 387.353 1194.04 L 387.609 1193.57 C 387.88 1196.68 372.524 1201.28 369.278 1202.62 C 367.186 1203.24 365.812 1203.38 364.494 1201.41 C 364.34 1196.36 380.015 1193.87 383.711 1193.24 z" fill="rgb(37,21,20)" transform="translate(0,0)"></path>
<path d="M 197.343 1235.81 C 203.544 1237.77 207.719 1241.82 213.63 1244.44 C 216.067 1245.53 216.189 1248.7 216.527 1250.84 C 210.098 1248.11 196.036 1243.53 197.343 1235.81 z" fill="rgb(37,21,20)" transform="translate(0,0)"></path>
<path d="M 422.07 1269.73 C 433.345 1271.5 414.148 1280.05 411.346 1281.56 C 409.359 1282.14 407.076 1281.17 408.008 1279.44 C 410.151 1275.44 417.99 1271.91 422.07 1269.73 z" fill="rgb(37,21,20)" transform="translate(0,0)"></path>
<path d="M 202.46 1467.44 C 208.828 1470.09 211.778 1487.04 212.78 1493.66 C 207.701 1490.59 203.992 1473.79 202.46 1467.44 z" fill="rgb(37,21,20)" transform="translate(0,0)"></path>
<path d="M 66.099 1003.8 C 79.8722 988.576 151.986 950.693 173.791 943.385 C 270.105 911.108 378.894 904.505 473.258 947.137 C 486.22 952.993 497.499 960.883 511.276 966.733 C 508.531 978.729 507.255 992.733 504.378 1005.84 C 502.093 1016.16 499.719 1026.46 497.255 1036.74 C 496.4 1040.25 494.146 1047.17 493.748 1050.03 L 493.266 1051.2 C 478.915 1060.56 476.767 1061.02 461.742 1066.93 C 449.789 1071.63 421.466 1073.11 416.014 1077.75 C 402.778 1072.97 353.641 1063.82 342.778 1071.96 C 337.754 1068.84 293.542 1075.98 285.568 1078.1 C 256.388 1085.87 228.481 1100.45 198.816 1107.5 C 193.085 1108.86 186.801 1113.29 180.391 1112.89 C 156.512 1110.9 141.012 1092.96 120.794 1116.77 C 120.606 1131.89 123.188 1139.64 138.723 1145.21 L 140.054 1145.03 C 146.801 1155.11 155.595 1174.06 155.587 1186.23 C 155.564 1220.92 174.063 1277.8 213.101 1285.63 C 215.843 1286.15 218.592 1286.63 221.349 1287.07 C 224.498 1284.63 226.731 1282.48 230.692 1281.79 L 231.43 1282.74 C 228.236 1287.78 218.018 1298.43 213.476 1303.71 C 204.762 1313.73 196.643 1324.25 189.16 1335.23 C 149.953 1391.58 131.336 1445.2 110.584 1509.15 C 113.215 1512.72 115.467 1519.28 117.365 1521 C 118.021 1536.56 152.019 1541.48 163.115 1548.3 C 180.46 1558.96 194.467 1573.99 215.288 1577.99 C 234.977 1581.89 247.331 1578.01 267.881 1581.85 C 274.898 1587.63 288.042 1599.93 295.48 1604.27 C 312.786 1614.36 335.362 1620.23 351.096 1633.09 C 368.372 1647.22 379.601 1670.68 399.154 1682.66 C 396.169 1689.26 392.05 1702.5 389.808 1709.85 C 376.142 1701.93 346.25 1694.33 329.669 1685.87 C 302.679 1672.08 270.811 1661.94 243.503 1648.81 C 230.823 1642.72 128.609 1595.42 120.974 1598.64 C 120.974 1597.91 121.463 1593.3 121 1593.01 C 112.534 1587.8 102.38 1586.07 93.2611 1581.63 C 88.2247 1579.18 79.2637 1572.35 77.3686 1580.74 C 70.9755 1577.23 68.2054 1575.34 62.9263 1570.42 C 63.3608 1528.37 64.1569 1486.57 65.1627 1444.5 C 64.9617 1429.97 67.5385 1413.86 67.1095 1399.59 C 64.0667 1298.36 66.6414 1196.96 66.0567 1095.7 C 65.8693 1063.24 63.7051 1036.91 66.099 1003.8 z" fill="rgb(225,164,137)" transform="translate(0,0)"></path>
<path d="M 86.2552 1015.75 C 82.0173 1013.93 71.1601 1010.24 70.192 1005.7 C 75.6952 1004.36 92.0523 1008.71 95.1017 1013.76 C 93.3526 1019.3 91.6842 1015.67 90.7663 1019.88 C 89.5056 1025.66 91.9323 1034.79 91.7735 1040.52 C 90.2566 1102.04 90.2649 1163.59 91.7984 1225.11 C 92.0193 1232.33 91.7252 1280.48 93.0328 1282.7 L 94.8135 1282.51 C 118.752 1268 143.765 1206.92 144.934 1178.87 C 145.35 1168.91 138.051 1150.15 140.054 1145.03 C 146.801 1155.11 155.595 1174.06 155.587 1186.23 C 155.564 1220.92 174.063 1277.8 213.101 1285.63 C 215.843 1286.15 218.592 1286.63 221.349 1287.07 C 224.498 1284.63 226.731 1282.48 230.692 1281.79 L 231.43 1282.74 C 228.236 1287.78 218.018 1298.43 213.476 1303.71 C 204.762 1313.73 196.643 1324.25 189.16 1335.23 C 149.953 1391.58 131.336 1445.2 110.584 1509.15 C 109.813 1508.64 108.697 1507.57 107.96 1506.92 C 105.968 1496.64 128.716 1441.16 133.559 1429.68 C 122.584 1426.21 80.0526 1408.45 73.5317 1400.71 L 74.8799 1400.07 L 74.5768 1401.1 L 74.9584 1401.29 L 76.8637 1400.25 C 79.1446 1400.48 85.6757 1403.42 88.1976 1404.47 C 87.5348 1390.44 87.8631 1379.37 83.7408 1365.79 C 89.3117 1349.15 86.1115 1308.45 86.2897 1287.39 L 87.2009 1077.43 C 87.2507 1056.58 85.7445 1036.95 86.2552 1015.75 z" fill="rgb(37,21,20)" transform="translate(0,0)"></path>
<path d="M 158.931 1278.32 C 161.674 1277.91 167.6 1277.83 170.627 1277.72 C 179.741 1291.61 191.671 1298.19 207.175 1302.04 C 200.351 1309.98 193.459 1319.82 186.84 1328.27 C 177.25 1324.6 166.969 1321.31 157.057 1318.63 C 151.584 1317.16 132.846 1309.51 128.469 1312.35 L 129.16 1311.13 L 127.294 1311.59 C 130.909 1315.26 173.723 1331.18 182.581 1335.33 C 174.405 1346.88 168.428 1357.31 161.343 1369.51 C 153.47 1382.74 141.592 1411.46 135.387 1426.04 C 122.952 1420.65 111.092 1414.83 98.3808 1409.45 C 97.9426 1400.5 97.374 1391.37 97.2765 1382.4 C 96.6445 1324.26 89.52 1288.78 158.931 1278.32 z" fill="rgb(230,220,207)" transform="translate(0,0)"></path>
<path d="M 193.449 954.954 C 194.188 955.16 194.552 955.7 195.228 956.325 C 193.702 958.555 191.292 959.935 188.868 961.074 C 161.061 974.145 132.078 985.911 106.487 1003.16 L 104.458 1002.5 L 104.803 1000.9 C 128.45 981.814 165.424 966.056 193.449 954.954 z" fill="rgb(37,21,20)" transform="translate(0,0)"></path>
<path d="M 275.539 934.322 C 279.278 934.105 278.637 933.558 281.241 935.182 C 279.076 938.448 224.449 949.653 217.211 950.402 C 214.48 951.47 215.685 951.391 212.577 950.291 L 213.241 948.872 C 222.561 943.874 263.546 936.103 275.539 934.322 z" fill="rgb(37,21,20)" transform="translate(0,0)"></path>
<path d="M 294.193 931.18 C 297.565 931.185 309.809 929.243 306.776 934.056 C 302.86 934.703 289.968 938.234 294.193 931.18 z" fill="rgb(37,21,20)" transform="translate(0,0)"></path>
<path d="M 889.126 1417.68 C 910.48 1412.23 927.789 1406.6 949.904 1402.13 C 1003.57 1391.52 1058.99 1393.93 1111.53 1409.16 C 1141.03 1417.46 1195.62 1435.71 1221.77 1450.48 C 1232.18 1455.61 1250.57 1458.67 1258.04 1469.2 C 1260.56 1475.42 1260.68 1485.07 1260.88 1491.89 C 1261.89 1525.31 1257.82 1559.1 1259.04 1592.49 C 1260.33 1627.75 1260.74 1662.73 1260.65 1698.01 C 1260.6 1715.24 1261.49 1720.15 1255.67 1737.31 C 1250.61 1739.51 1242.01 1741.97 1238.71 1743.56 C 1238.93 1748.44 1239.35 1753.01 1239.24 1757.88 C 1224.43 1763.82 1210.92 1779.45 1195.68 1783.74 C 1195.17 1775.49 1195.62 1761.01 1194.75 1754.27 C 1194.44 1751.82 1194.14 1749.53 1193.73 1747.1 C 1190.91 1745.66 1178.53 1748.85 1174.41 1749.5 C 1150.19 1753.29 1126.33 1754.07 1101.98 1755.89 L 1000.05 1763.46 C 980.769 1764.79 945.245 1769.12 927.166 1768.34 L 926.451 1770.76 C 924.961 1767.68 923.164 1730.8 922.529 1723.75 C 920.885 1705.52 917.935 1687.83 915.532 1669.63 C 912.753 1648.58 910.738 1606.23 905.557 1586.58 C 904.711 1578.72 900.598 1534.02 899.018 1529.89 C 899.56 1508.39 894.497 1461.62 890.17 1440.35 C 890.251 1436.3 889.729 1437.74 891.841 1434.69 C 889.251 1432.85 889.384 1421.28 889.126 1417.68 z" fill="rgb(225,164,137)" transform="translate(0,0)"></path>
<path d="M 891.841 1434.69 C 926.079 1417.54 995.138 1412.19 1034.02 1410.53 C 1054.79 1409.64 1082.64 1414.91 1103.48 1418.1 C 1108.9 1418.93 1129.06 1421.2 1131.52 1424.6 C 1124.68 1428.3 1094.06 1420.86 1084.43 1419.89 C 1070.85 1418.52 1056.95 1417.35 1043.19 1417.31 C 998.088 1416.96 931.355 1423.01 890.17 1440.35 C 890.251 1436.3 889.729 1437.74 891.841 1434.69 z" fill="rgb(37,21,20)" transform="translate(0,0)"></path>
<path d="M 1194.75 1754.27 C 1194.93 1741.83 1193.65 1745.71 1202.34 1744.24 C 1213.84 1742.3 1225.34 1741.45 1236.74 1739.31 C 1237.66 1739.14 1238.64 1743.3 1238.71 1743.56 C 1238.93 1748.44 1239.35 1753.01 1239.24 1757.88 C 1224.43 1763.82 1210.92 1779.45 1195.68 1783.74 C 1195.17 1775.49 1195.62 1761.01 1194.75 1754.27 z" fill="rgb(37,21,20)" transform="translate(0,0)"></path>
<path d="M 1219.91 1752.95 C 1220.24 1753.03 1220.05 1752.95 1220.49 1753.26 C 1220.3 1753.16 1220.11 1753.05 1219.91 1752.95 z" fill="rgb(47,22,19)" transform="translate(0,0)"></path>
<path d="M 1139.75 1425.98 C 1145.96 1426.08 1161.49 1429.3 1165.95 1433.77 C 1157.22 1433.79 1145.25 1433.4 1139.75 1425.98 z" fill="rgb(37,21,20)" transform="translate(0,0)"></path>
<path d="M 656.7 56.8563 C 658.504 52.8987 663.809 45.6244 667.842 43.8062 C 676.837 39.7506 682.896 48.1009 688.335 49.9984 C 696.769 48.887 702.267 34.4625 711.294 55.7587 L 714.365 55.8666 C 716.831 51.8504 718.978 48.8577 723.744 47.5996 C 730.819 48.0446 732.536 51.7896 736.304 57.1576 C 753.483 39.7441 760.135 50.3408 768.032 67.3182 C 771.276 64.6632 773.448 62.282 777.476 61.5881 C 792.888 63.4757 802.527 101.622 809.311 114.021 C 817.327 126.989 825.143 130.067 830.174 145.233 C 834.882 159.425 830.972 172.83 832.653 184.453 C 834.079 194.312 846.438 250.778 850.578 253.956 C 854.35 261.409 856.958 275.709 859.042 284.198 C 858.423 286.197 856.314 288.313 854.238 288.531 C 853.374 288.622 852.281 285.804 850.529 285.649 C 846.434 285.288 842.456 288.235 838.622 287.671 C 834.755 287.101 832.099 288.06 828.108 287.496 C 814.549 288.842 778.666 302.631 766.95 310.218 C 757.655 316.684 748.875 320.429 740.793 325.848 C 742.901 338.069 747.371 359.185 746.139 370.745 L 748.175 373.368 C 748.764 375.428 749.51 377.432 749.564 379.526 C 729.186 372.829 704.814 374.617 684.164 379.83 C 676.714 381.711 667.384 386.079 659.926 388.683 C 660.099 384.091 661.876 374.234 662.617 369.322 C 667.207 355.742 672.489 340.541 674.877 326.383 C 677.857 308.715 661.377 305.347 647.739 303.977 C 640.147 303.72 619.895 298.707 607.2 297.959 C 602.521 292.683 577.211 287.928 569.617 283.643 C 565.996 281.599 559.529 278.229 555.85 276.718 C 557.498 272.817 559.371 266.794 560.612 262.669 C 568.727 235.695 581.497 208.821 588.83 181.811 C 582.767 168.541 584.005 154.886 589.178 141.466 C 594.037 128.86 604.435 120.698 611.462 109.818 C 618.22 99.3515 633.1 42.7903 653.049 64.3169 C 654.226 61.3848 655.215 59.6222 656.7 56.8563 z" fill="rgb(225,164,137)" transform="translate(0,0)"></path>
<path d="M 714.2 179.843 C 715.639 181.057 718.725 184.392 720.194 185.883 C 732.264 194.385 736.678 196.453 750.498 201.885 C 756.765 229.528 757.484 261.983 764.079 290.039 C 765.506 296.107 766.425 303.952 766.95 310.218 C 757.655 316.684 748.875 320.429 740.793 325.848 C 742.901 338.069 747.371 359.185 746.139 370.745 L 748.175 373.368 C 748.764 375.428 749.51 377.432 749.564 379.526 C 729.186 372.829 704.814 374.617 684.164 379.83 C 676.714 381.711 667.384 386.079 659.926 388.683 C 660.099 384.091 661.876 374.234 662.617 369.322 C 667.207 355.742 672.489 340.541 674.877 326.383 C 677.857 308.715 661.377 305.347 647.739 303.977 C 655.162 272.248 665.525 237.89 672.435 206.813 C 678.12 202.99 695.748 190.421 701.848 189.855 C 706.299 187.119 710.276 183.331 714.2 179.843 z" fill="rgb(254,250,248)" transform="translate(0,0)"></path>
<path d="M 723.477 102.625 C 726.247 93.5859 734.917 62.1591 737.527 56.9093 C 745.959 56.1452 762.444 106.689 767.948 113.173 C 768.967 114.372 771.419 120.863 771.687 122.749 C 763.83 120.559 744 74.3758 739.588 65.1924 C 736.909 73.6829 734.641 83.6902 732.461 92.4373 C 738.888 99.6758 741.401 106.147 745.389 114.852 C 744.255 115.093 742.698 115.188 741.527 115.295 C 737.311 113.373 737.791 113.447 733.95 115.341 C 726.335 90.9076 703.255 126.342 698.698 134.48 C 681.374 140.711 672.148 139.958 654.071 150.684 C 630.174 164.863 641.989 183.606 634.041 188.695 C 632.902 187.328 632.819 187.763 632.502 186.02 C 625.623 148.252 670.971 137.03 698.108 132.241 C 702.46 116.788 708.454 109.179 723.477 102.625 z" fill="rgb(37,21,20)" transform="translate(0,0)"></path>
<path d="M 731.194 97.4245 C 733.84 99.4773 735.87 103.337 736.021 106.635 C 729.088 102.747 728.432 104.711 731.194 97.4245 z" fill="rgb(214,141,122)" transform="translate(0,0)"></path>
<path d="M 733.95 115.341 C 737.791 113.447 737.311 113.373 741.527 115.295 C 742.308 117.08 742.875 118.384 743.521 120.239 L 740.601 122.152 C 740.249 124.256 737.46 138.077 737.437 138.585 C 737.465 140.39 737.215 141.263 736.888 143.075 C 734.028 147.028 723.896 177.336 720.194 185.883 C 718.725 184.392 715.639 181.057 714.2 179.843 C 710.276 183.331 706.299 187.119 701.848 189.855 L 699.541 187.911 L 699.493 186.203 C 714.551 175.887 743.231 132.057 733.95 115.341 z" fill="rgb(37,21,20)" transform="translate(0,0)"></path>
<path d="M 741.527 115.295 C 742.308 117.08 742.875 118.384 743.521 120.239 L 740.601 122.152 C 740.86 119.728 741.122 117.718 741.527 115.295 z" fill="rgb(214,141,122)" transform="translate(0,0)"></path>
<path d="M 828.108 287.496 C 833.876 280.795 839.699 273.108 845.273 266.169 C 846.976 264.048 847.378 258.51 850.578 253.956 C 854.35 261.409 856.958 275.709 859.042 284.198 C 858.423 286.197 856.314 288.313 854.238 288.531 C 853.374 288.622 852.281 285.804 850.529 285.649 C 846.434 285.288 842.456 288.235 838.622 287.671 C 834.755 287.101 832.099 288.06 828.108 287.496 z" fill="rgb(37,21,20)" transform="translate(0,0)"></path>
<path d="M 737.437 138.585 C 760.303 144.26 804.849 147.956 801.894 183.485 C 801.755 185.157 797.695 192.958 795.937 188.491 C 798.935 152.989 763.475 148.731 736.888 143.075 C 737.215 141.263 737.465 140.39 737.437 138.585 z" fill="rgb(37,21,20)" transform="translate(0,0)"></path>
<path d="M 711.294 55.7587 L 714.365 55.8666 C 710.748 69.9787 692.359 110.372 684.245 122.358 C 684.295 120.608 684.206 116.338 684.844 115.017 C 691.523 101.196 703.46 66.8626 711.294 55.7587 z" fill="rgb(37,21,20)" transform="translate(0,0)"></path>
<path d="M 656.7 56.8563 L 658.309 57.7052 C 658.675 57.8991 659.424 58.3026 659.594 58.6961 C 658.784 62.966 636.061 117.083 634.085 117.666 C 629.475 114.232 650.538 70.3063 653.049 64.3169 C 654.226 61.3848 655.215 59.6222 656.7 56.8563 z" fill="rgb(37,21,20)" transform="translate(0,0)"></path>
<path d="M 745.389 114.852 C 746.535 117.307 752.278 126.199 750.311 127.99 C 746.8 128.779 744.571 122.542 743.521 120.239 C 742.875 118.384 742.308 117.08 741.527 115.295 C 742.698 115.188 744.255 115.093 745.389 114.852 z" fill="rgb(47,22,19)" transform="translate(0,0)"></path>
<path d="M 687.474 52.4926 L 689.129 54.1168 C 689.477 61.1728 665.239 112.783 661.132 121.518 C 658.329 120.598 659.152 121.468 658.059 119.407 C 660.197 111.763 682.87 60.8215 687.474 52.4926 z" fill="rgb(37,21,20)" transform="translate(0,0)"></path>
<path d="M 766.412 66.3066 L 767.828 66.7336 C 772.708 68.1678 791.615 115.539 794.171 123.385 C 785.339 121.132 769.893 76.5942 766.412 66.3066 z" fill="rgb(37,21,20)" transform="translate(0,0)"></path>
<path d="M 866.956 1233.58 L 868.637 1235.98 C 878.012 1237.48 889.083 1236 900.827 1238.12 C 936.112 1244.51 969.877 1259.34 991.241 1288.9 C 992.722 1290.95 994.179 1293.02 995.611 1295.11 C 1053.8 1295.14 1104.66 1301.05 1153.03 1336.65 C 1195.76 1368.09 1213.8 1399.1 1221.77 1450.48 C 1195.62 1435.71 1141.03 1417.46 1111.53 1409.16 C 1058.99 1393.93 1003.57 1391.52 949.904 1402.13 C 927.789 1406.6 910.48 1412.23 889.126 1417.68 C 888.825 1412.19 887.991 1405.68 887.267 1400.2 C 881.891 1359.5 879.071 1314.01 869.858 1274.21 C 868.106 1273.26 867.872 1272.77 866.574 1271.27 L 866.955 1269.61 L 869.718 1269.08 C 870.612 1261.8 867.793 1242.01 866.956 1233.58 z" fill="rgb(230,220,207)" transform="translate(0,0)"></path>
<path d="M 869.718 1269.08 C 885.965 1267.33 928.795 1267.71 940.97 1278.49 L 940.757 1279.82 C 937.028 1280.87 929.016 1277.26 923.089 1276.66 C 906.746 1274.98 885.999 1271.72 869.858 1274.21 C 868.106 1273.26 867.872 1272.77 866.574 1271.27 L 866.955 1269.61 L 869.718 1269.08 z" fill="rgb(37,21,20)" transform="translate(0,0)"></path>
<path d="M 1012.52 1328.4 C 1031.77 1327.12 1082.71 1330.17 1096.14 1344.17 L 1095.76 1345.07 C 1086.65 1346.23 1064.15 1337.36 1052.89 1335.65 L 1051.81 1335.5 C 1028.15 1333.58 1013.55 1332.2 989.129 1336.73 C 980.699 1338.29 972.295 1340.5 963.918 1341.75 L 963.188 1340.59 C 969.901 1331.15 1000.78 1329.36 1012.52 1328.4 z" fill="rgb(37,21,20)" transform="translate(0,0)"></path>
<path d="M 893.965 1340.25 C 909.344 1339.38 961.706 1350.43 964.6 1366.97 C 959.765 1366.38 938.4 1355.84 931.677 1353.45 C 920.841 1349.6 904.408 1347.24 894.85 1343.15 L 893.965 1340.25 z" fill="rgb(37,21,20)" transform="translate(0,0)"></path>
<path d="M 425.905 1828.26 C 435.126 1830.04 451.492 1839.13 463.753 1841.42 C 473.807 1843.29 504.866 1844.09 511.732 1846.86 C 508.687 1855.08 506.454 1870.02 503.877 1874.78 L 504.579 1875.43 C 522.462 1884.22 531.785 1902.31 537.976 1920.68 C 538.801 1923.15 539.564 1925.64 540.264 1928.15 C 549.755 1935.82 556.261 1940.83 567.764 1947.38 C 595.425 1963.11 640.232 1975.01 648.036 2010.32 C 649.435 2016.65 644.901 2026.31 640.994 2031.21 C 631.919 2042.58 617.044 2045.35 603.428 2048 L 574.38 2048 C 557.363 2043.09 529.847 2041.75 510.95 2035.25 C 491.511 2028.56 480.883 2016.08 464.696 2007.66 C 445.825 1997.84 416.392 1987.94 398.676 1976.94 C 399.064 1976.42 400.711 1973.86 400.58 1973.49 C 398.132 1966.61 387.047 1954.87 385.916 1946.97 C 384.008 1933.66 389.425 1919.77 391.764 1906.89 C 392.13 1904.87 391.126 1904.47 389.74 1902.98 C 395.371 1893.79 402.737 1885.18 410.526 1877.78 C 415.066 1864.68 419.312 1848.93 423.411 1835.45 C 423.953 1833.1 425.04 1830.55 425.905 1828.26 z" fill="rgb(230,220,207)" transform="translate(0,0)"></path>
<path d="M 425.905 1828.26 C 435.126 1830.04 451.492 1839.13 463.753 1841.42 C 473.807 1843.29 504.866 1844.09 511.732 1846.86 C 508.687 1855.08 506.454 1870.02 503.877 1874.78 L 504.579 1875.43 C 505.342 1879.67 506.385 1884.73 506.872 1888.93 C 495.797 1908.21 486.189 1911.17 466.429 1918.91 C 441.29 1928.76 403.672 1905.86 410.526 1877.78 C 415.066 1864.68 419.312 1848.93 423.411 1835.45 C 423.953 1833.1 425.04 1830.55 425.905 1828.26 z" fill="rgb(225,164,137)" transform="translate(0,0)"></path>
<path d="M 425.905 1828.26 C 435.126 1830.04 451.492 1839.13 463.753 1841.42 C 473.807 1843.29 504.866 1844.09 511.732 1846.86 C 508.687 1855.08 506.454 1870.02 503.877 1874.78 C 477.53 1868.65 443.258 1853.87 423.411 1835.45 C 423.953 1833.1 425.04 1830.55 425.905 1828.26 z" fill="rgb(37,21,20)" transform="translate(0,0)"></path>
<path d="M 582.981 2008.04 C 588.273 2006.56 593.882 2004.47 599.184 2003.49 C 601.289 2003.11 607.171 2000.59 607.881 2001.64 C 610.535 2005.57 589.968 2012.04 588.114 2012.63 C 577.767 2016.51 569.367 2015.35 582.981 2008.04 z" fill="rgb(37,21,20)" transform="translate(0,0)"></path>
<path d="M 588.114 2012.63 C 577.767 2016.51 569.367 2015.35 582.981 2008.04 C 586.606 2009.47 586.329 2009.22 588.114 2012.63 z" fill="rgb(37,21,20)" transform="translate(0,0)"></path>
<path d="M 876.154 1838.01 C 877.463 1843.47 877.427 1850.82 878.385 1854.41 C 909.451 1867.87 916.387 1887.62 940.257 1903.01 C 964.213 1918.45 1029.21 1925.34 1042.58 1954.85 C 1052.11 1975.86 1031.85 2006.69 1009.58 2012.99 C 980.887 2021.12 953.647 2016.43 926.809 2003.73 C 905.32 1992.96 890.744 1983.32 866.589 1977.15 C 855.824 1974.4 819.487 1972.06 812.228 1969.27 C 810.989 1961.58 797.556 1962.86 789.109 1952.44 C 778.598 1939.48 778.319 1922.33 779.615 1906.39 C 779.858 1903.41 779.722 1902.06 778.011 1900.21 L 775.304 1900.97 C 774.703 1890.88 790.752 1882.91 790.292 1869.27 C 790.143 1863.48 790.053 1859.55 789.197 1853.85 C 816.995 1854.11 851.964 1853.69 876.154 1838.01 z" fill="rgb(230,220,207)" transform="translate(0,0)"></path>
<path d="M 876.154 1838.01 C 877.463 1843.47 877.427 1850.82 878.385 1854.41 C 880.504 1861.11 879.844 1862.8 875.869 1870.07 C 858.657 1901.56 810.608 1914.76 792.038 1877.32 C 791.146 1875.53 791.133 1871.09 790.292 1869.27 C 790.143 1863.48 790.053 1859.55 789.197 1853.85 C 816.995 1854.11 851.964 1853.69 876.154 1838.01 z" fill="rgb(225,164,137)" transform="translate(0,0)"></path>
<path d="M 1017.15 1962.3 C 1030.21 1969.88 1000.56 1974.12 996.862 1974.37 C 995.505 1973.85 993.068 1972.53 994.108 1970.58 C 995.282 1968.39 999.386 1969.34 1001.51 1968.95 C 1007.41 1967.87 1012.04 1965.23 1017.15 1962.3 z" fill="rgb(37,21,20)" transform="translate(0,0)"></path>
<path d="M 486.794 475.271 C 489.133 480.912 483.548 505.314 482.739 513.871 C 478.843 555.045 472.645 600.765 472.881 642.148 C 471.426 642.463 471.325 642.52 470.58 643.805 C 457.724 664.831 446.736 695.495 450.392 720.266 C 438.567 717.306 407.849 709.028 403.82 697.243 C 402.39 695.343 401.986 695.179 399.908 694.088 L 397.46 694.591 C 390.772 692.649 385.978 680.056 385.874 673.542 C 385.649 659.538 393.91 641.054 403.149 630.785 C 398.075 631.113 395.56 631.59 390.557 632.657 C 388.345 632.322 387.968 632.309 385.868 631.566 L 385.647 632.302 C 372.884 632.111 368.697 652.745 359.524 655.251 C 349.569 654.433 345.397 645.042 345.236 636.173 C 345.063 626.603 350.295 612.291 354.814 603.945 C 369.635 576.573 394.968 557.016 422.455 543.426 C 439.854 534.725 456.723 526.514 470.333 512.293 L 469.962 510.578 C 460.544 515.64 452.456 522.069 442.204 524.887 C 409.566 533.86 376.222 535.8 349.621 559.359 C 345.791 562.75 332.126 578.727 330.034 579.424 L 328.84 577.584 C 331.677 558.624 376.073 535.418 394.408 531.258 C 427.233 523.808 464.826 518.2 483.525 486.932 C 479.497 489.288 475.536 492.644 471.031 495.194 C 456.816 503.242 438.834 507.459 422.579 508.043 C 414.154 508.345 376.77 505.998 371.858 501.399 L 372.046 499.559 C 379.564 494.615 443.07 520.503 486.794 475.271 z" fill="rgb(125,84,67)" transform="translate(0,0)"></path>
<path d="M 399.432 693.033 C 397.513 692.278 398.421 692.797 397.05 690.601 C 396.297 670.728 436.668 608.895 454.888 603.865 L 456.903 605.024 C 456.769 605.743 456.636 606.462 456.503 607.18 C 447.15 616.176 434.455 627.205 427.234 637.778 C 417.192 652.478 409.146 668.355 404.156 685.044 C 401.518 688.405 401.026 689.059 399.432 693.033 z" fill="rgb(37,21,20)" transform="translate(0,0)"></path>
<path d="M 385.868 631.566 C 390.592 614.531 419.245 587.97 435.091 579.381 C 439.133 577.191 449.232 570.931 453.553 572.108 L 454.003 573.4 C 446.227 579.139 437.204 583.158 428.922 588.492 C 415.491 597.142 404.624 609.98 395.949 623.314 C 393.846 626.547 393.195 629.774 390.557 632.657 C 388.345 632.322 387.968 632.309 385.868 631.566 z" fill="rgb(37,21,20)" transform="translate(0,0)"></path>
<path d="M 404.156 685.044 C 404.925 689.885 404.604 692.424 403.82 697.243 C 402.39 695.343 401.986 695.179 399.908 694.088 L 399.432 693.033 C 401.026 689.059 401.518 688.405 404.156 685.044 z" fill="rgb(230,220,207)" transform="translate(0,0)"></path>
<path d="M 469.962 510.578 C 471.361 508.986 472.861 507.463 474.711 506.398 L 474.391 506.601 L 475.354 506.25 C 477.363 507.047 470.948 511.73 470.333 512.293 L 469.962 510.578 z" fill="rgb(187,102,90)" transform="translate(0,0)"></path>
<path d="M 77.3686 1580.74 C 79.2637 1572.35 88.2247 1579.18 93.2611 1581.63 C 102.38 1586.07 112.534 1587.8 121 1593.01 C 121.463 1593.3 120.974 1597.91 120.974 1598.64 C 121.127 1609.91 123.497 1626.65 120.93 1637.19 C 123.34 1644.57 122.367 1705.33 121.035 1715.19 C 120.425 1715.98 119.801 1716.76 119.162 1717.53 C 107.908 1730.98 81.1862 1721.62 79.6988 1707.81 C 75.8477 1672.06 79.2982 1635.36 76.7716 1599.22 C 75.8655 1593.94 76.8642 1586.11 77.3686 1580.74 z" fill="rgb(225,164,137)" transform="translate(0,0)"></path>
<path d="M 77.3686 1580.74 C 79.2637 1572.35 88.2247 1579.18 93.2611 1581.63 C 102.38 1586.07 112.534 1587.8 121 1593.01 C 121.463 1593.3 120.974 1597.91 120.974 1598.64 C 121.127 1609.91 123.497 1626.65 120.93 1637.19 C 104.408 1627.39 91.392 1607.54 76.7716 1599.22 C 75.8655 1593.94 76.8642 1586.11 77.3686 1580.74 z" fill="rgb(37,21,20)" transform="translate(0,0)"></path>
<path d="M 1239.24 1757.88 C 1238.67 1784.33 1239.59 1810.38 1239.03 1836.81 C 1238.75 1849.95 1239.69 1860.25 1237.55 1873.6 C 1231.28 1879.6 1229.2 1880.62 1221.13 1883.73 C 1212.53 1882.73 1201.94 1881.15 1196.34 1873.65 C 1192.49 1868.49 1194.67 1794.71 1195.68 1783.74 C 1210.92 1779.45 1224.43 1763.82 1239.24 1757.88 z" fill="rgb(225,164,137)" transform="translate(0,0)"></path>
<path d="M 668.808 1826.06 C 678.733 1837.11 700.848 1853.5 713.417 1862.99 C 714.974 1864.17 715.305 1859.06 715.402 1858.38 C 715.965 1859.93 712.79 1885.08 712.552 1889.81 C 711.807 1904.62 714.877 1919.83 711.321 1934.05 C 710.453 1937.52 709.234 1940.82 705.92 1942.51 C 699.439 1945.82 691.327 1944.05 684.995 1942.62 C 679.979 1941.49 670.231 1936.88 668.769 1932.49 C 664.885 1920.81 667.116 1832.06 668.808 1826.06 z" fill="rgb(225,164,137)" transform="translate(0,0)"></path>
<path d="M 669.176 1807.94 C 673.662 1805.87 710.899 1803.19 714.281 1806.7 C 714.023 1811.96 716.298 1840.94 714.108 1843.27 C 713.718 1843.69 713.453 1843.91 713.378 1844.46 C 716.072 1847.58 715.023 1853.71 715.402 1858.38 C 715.305 1859.06 714.974 1864.17 713.417 1862.99 C 700.848 1853.5 678.733 1837.11 668.808 1826.06 C 669.521 1822.16 669.047 1812.59 669.176 1807.94 z" fill="rgb(37,21,20)" transform="translate(0,0)"></path>
<path d="M 775.304 1900.97 L 778.011 1900.21 C 779.722 1902.06 779.858 1903.41 779.615 1906.39 C 778.319 1922.33 778.598 1939.48 789.109 1952.44 C 797.556 1962.86 810.989 1961.58 812.228 1969.27 C 807.404 1968.49 802.346 1967.79 797.716 1966.16 C 769.905 1956.39 765.138 1926.11 775.304 1900.97 z" fill="rgb(37,21,20)" transform="translate(0,0)"></path>
<path d="M 389.74 1902.98 C 391.126 1904.47 392.13 1904.87 391.764 1906.89 C 389.425 1919.77 384.008 1933.66 385.916 1946.97 C 387.047 1954.87 398.132 1966.61 400.58 1973.49 C 400.711 1973.86 399.064 1976.42 398.676 1976.94 C 397.408 1976.2 396.163 1975.41 394.94 1974.59 C 371.158 1958.51 375.357 1924.03 389.74 1902.98 z" fill="rgb(37,21,20)" transform="translate(0,0)"></path>
<path d="M 385.868 631.566 C 387.968 632.309 388.345 632.322 390.557 632.657 L 390.154 633.174 C 383.29 642.129 381.575 651.75 375.616 660.413 C 375.088 661.181 373.453 658.829 373.849 656.996 C 375.869 647.651 380.774 640.284 385.647 632.302 L 385.868 631.566 z" fill="rgb(125,84,67)" transform="translate(0,0)"></path>
<metadata><recraft-signature>{"signed_by": "recraft", "signature_b64": "U/5vhmpjruWJz1iinbGm9eGTX+EuZslRgx3P/f3W9PyBSJPJg+1Xyu9dh3oR+ToulARBywnATXI7LPDmMHwuAQ==", "signing_algo": "Ed25519", "generation_timestamp": 1779099414, "identifier": "c2c9c9f2-ea58-43cb-8577-f2c27ff831e5"}</recraft-signature></metadata></svg>