<svg xmlns="http://www.w3.org/2000/svg" height="1216" preserveAspectRatio="none" style="display: block;" version="1.1" viewBox="0 0 1509 2048" width="896">
<path d="M 0 0 L 796.358 0 L 816.424 0 L 1509 0 L 1509 1457.41 L 1509 1495.89 L 1509 2048 L 1162.59 2048 L 1160.6 2048 L 309.479 2048 L 307.547 2048 L 0 2048 L 0 1375.54 L 0 1336.54 L 0 0 z" fill="rgb(210,157,112)" transform="translate(0,0)"></path>
<path d="M 0 0 L 796.358 0 L 816.424 0 L 1509 0 L 1509 1457.41 C 1507.69 1452.6 1505.82 1435.86 1504.85 1429.79 C 1502.23 1414.32 1498.18 1399.13 1492.75 1384.41 C 1482.24 1355.68 1466.73 1327.8 1453.59 1299.96 C 1428.69 1248.02 1416.21 1191 1417.15 1133.4 C 1418.06 1092.76 1426.51 1053.03 1432.31 1012.95 C 1455.69 851.298 1382.19 576.998 1186.79 559.255 C 1140.77 467.482 1042.47 423.775 946.574 404.293 C 935.875 402.112 925.104 400.303 914.28 398.871 C 907.924 398.046 881.897 395.956 877.455 393.912 C 876.815 391.427 876.484 389.231 876.067 386.699 C 874.891 379.362 865.497 371.754 858.02 371.484 C 826.968 370.362 795.713 371.236 764.623 371.017 C 749.269 370.909 745.339 372.839 737.824 386.18 C 737.091 389.337 736.928 392.829 734.929 394.626 C 558.645 411.603 416.644 492.966 324.975 647.711 C 314.676 665.097 304.913 683.034 294.289 700.223 C 261.166 750.706 208.548 796.248 143.64 782.356 L 140.732 785.249 C 176.984 819.412 221.164 844.07 267.579 861.589 C 270.746 862.785 290.168 869.791 292.817 870.172 C 296.996 871.824 297.808 871.376 300.274 874.629 C 296.392 884.697 294.88 897.979 291.664 908.554 C 271.086 976.229 227.713 1027.45 174.824 1072.95 C 108.32 1130.17 41.1143 1190.51 12.8629 1276.51 C 5.11178 1299.41 4.96647 1314.15 0 1336.54 L 0 0 z" fill="rgb(254,254,253)" transform="translate(0,0)"></path>
<path d="M 796.358 0 L 816.424 0 C 844.854 7.44021 852.531 2.62827 884.145 21.7029 C 919.503 43.2966 944.801 78.0883 954.441 118.382 C 963.557 156.447 956.602 205.088 931.103 235.477 C 910.594 257.919 885.589 284.187 880.28 315.49 C 875.425 344.11 878.604 355.998 843.347 355.527 C 815.82 354.893 788.252 356.314 760.747 355.402 C 732.068 354.451 737.14 332.271 731.549 311.648 C 729.25 303.365 726.193 295.311 722.414 287.589 C 712.299 266.865 698.865 255.058 684.076 238.041 C 669.568 221.348 660.907 197.428 657.293 175.619 C 650.818 136.22 660.274 95.8636 683.577 63.4417 C 702.67 36.9276 733.085 14.9317 764.578 6.08623 C 774.654 3.25604 785.965 1.67615 796.358 0 z" fill="rgb(254,232,7)" transform="translate(0,0)"></path>
<path d="M 140.732 785.249 C 134.129 778.507 136.248 779.38 143.64 782.356 L 140.732 785.249 z" fill="rgb(127,74,24)" transform="translate(0,0)"></path>
<path d="M 737.824 386.18 C 745.339 372.839 749.269 370.909 764.623 371.017 C 795.713 371.236 826.968 370.362 858.02 371.484 C 865.497 371.754 874.891 379.362 876.067 386.699 C 876.484 389.231 876.815 391.427 877.455 393.912 C 881.897 395.956 907.924 398.046 914.28 398.871 C 925.104 400.303 935.875 402.112 946.574 404.293 C 1042.47 423.775 1140.77 467.482 1186.79 559.255 C 1382.19 576.998 1455.69 851.298 1432.31 1012.95 C 1426.51 1053.03 1418.06 1092.76 1417.15 1133.4 C 1416.21 1191 1428.69 1248.02 1453.59 1299.96 C 1466.73 1327.8 1482.24 1355.68 1492.75 1384.41 C 1498.18 1399.13 1502.23 1414.32 1504.85 1429.79 C 1505.82 1435.86 1507.69 1452.6 1509 1457.41 L 1509 1495.89 L 1509 2048 L 1162.59 2048 L 1160.6 2048 C 1159.84 2045.63 1159.24 2043.6 1158.6 2041.19 C 1140.81 1981.47 1107.45 1917.88 1064.62 1872.26 C 1061.31 1867.08 1035.58 1842.01 1030.13 1838.46 L 1028.95 1835.3 C 1025.26 1831.61 1005.2 1815.34 1000.92 1814.67 C 998.594 1812.09 988.719 1805.56 985.433 1803.5 C 953.962 1783.7 905.696 1762.36 869.069 1756.12 L 868.738 1742.11 C 923.549 1750.78 975.806 1743.01 1026.57 1721.29 C 1029.62 1719.98 1033.08 1718.07 1036.28 1718.7 C 1037.46 1717.34 1075.08 1696.88 1081.09 1692.95 C 1097.49 1682.41 1112.89 1670.37 1127.08 1657 C 1185.66 1602.79 1223.12 1532.97 1240.34 1455.29 C 1244.14 1438.17 1247.25 1419.09 1247.92 1401.57 C 1248.15 1396.12 1248.18 1390.97 1248.17 1385.53 C 1251.45 1381.93 1266.03 1367.22 1266.04 1363.83 C 1273.21 1351.3 1279.93 1344.09 1288.29 1327.9 C 1304.77 1292.49 1306.42 1264.87 1295.92 1227.9 C 1290.56 1213.47 1286.51 1206.3 1278.02 1193.2 C 1276.48 1192.26 1275.93 1191.94 1275.66 1190.14 C 1271.4 1186.56 1268.62 1183.44 1264.85 1179.33 C 1262.66 1178.91 1262.31 1177.99 1260.84 1176.17 C 1251.05 1171.04 1246.61 1167.81 1235.94 1164.17 C 1219.9 1159.67 1214.91 1162.28 1200.15 1163.28 C 1177.36 1169.72 1162.84 1177.37 1143.86 1191.38 C 1140.34 1193.98 1129.83 1202.69 1127.18 1204.29 C 1119.51 1206.76 1111.37 1216.44 1106.71 1223.05 C 1098.48 1231.77 1108.44 1214.1 1106.65 1210.97 C 1108.34 1203.81 1115.12 1186.48 1117.8 1179.04 L 1140.13 1116.85 C 1133.94 1113.9 1116.14 1104.68 1111.8 1099.94 C 1107.49 1097.86 1099.6 1092.9 1097 1089 C 1091.16 1086.95 1065.03 1061.44 1063 1056 C 1059.36 1053.67 1058.26 1051.95 1055.86 1048.31 C 1054.99 1047.66 1055.2 1047.46 1054.67 1046.12 C 1049.6 1041.61 1043.04 1032.24 1040.05 1026.2 C 1038 1025 1032.59 1015.24 1031.08 1012.76 C 992.965 950.019 976.101 875.502 978.976 802.445 C 979.181 797.232 979.749 780.895 981.784 776.413 C 983.611 772.496 983.929 769.357 984.666 765.155 C 988.224 744.878 991.368 724.6 996.788 704.715 L 988.974 712.685 C 988.51 713.662 988.634 713.435 987.713 714.184 L 985.801 716.527 C 984.576 718.129 983.4 719.981 981.79 721.132 L 976.819 726.531 C 975.257 728.548 972.868 731.646 970.771 733.133 C 963.159 741.243 949.644 755.894 941.105 762.74 C 940.506 763.664 940.633 763.462 939.602 764.119 C 937.653 765.82 935.089 768.206 933.109 769.736 C 932.509 770.66 932.649 770.453 931.579 771.071 C 925.412 776.473 913.827 786.339 907.118 790.718 C 906.752 791.278 906.642 791.255 906.003 791.635 C 849.01 838.18 759.92 877.74 688.642 893.108 C 678.825 895.224 655.171 900.798 645.633 901.357 C 644.844 901.393 644.74 901.408 643.974 901.61 C 623.996 905.087 582.783 909.25 562.217 909.076 C 555.916 908.728 524.879 908.646 518.958 909.013 C 472.69 909.391 425.363 901.458 380.089 892.467 C 367.749 890.016 295.983 869.815 292.817 870.172 C 290.168 869.791 270.746 862.785 267.579 861.589 C 221.164 844.07 176.984 819.412 140.732 785.249 L 143.64 782.356 C 208.548 796.248 261.166 750.706 294.289 700.223 C 304.913 683.034 314.676 665.097 324.975 647.711 C 416.644 492.966 558.645 411.603 734.929 394.626 C 736.928 392.829 737.091 389.337 737.824 386.18 z" fill="rgb(165,99,18)" transform="translate(0,0)"></path>
<path d="M 1509 1495.89 L 1509 2048 L 1162.59 2048 L 1160.6 2048 C 1159.84 2045.63 1159.24 2043.6 1158.6 2041.19 C 1140.81 1981.47 1107.45 1917.88 1064.62 1872.26 C 1061.31 1867.08 1035.58 1842.01 1030.13 1838.46 L 1028.95 1835.3 C 1025.26 1831.61 1005.2 1815.34 1000.92 1814.67 C 998.594 1812.09 988.719 1805.56 985.433 1803.5 C 953.962 1783.7 905.696 1762.36 869.069 1756.12 L 868.738 1742.11 C 923.549 1750.78 975.806 1743.01 1026.57 1721.29 C 1029.62 1719.98 1033.08 1718.07 1036.28 1718.7 C 1090.45 1760.64 1172.65 1765.19 1234.86 1740.46 C 1299.64 1714.71 1343.43 1673.52 1371.78 1610.18 L 1372.47 1609.04 C 1372.87 1614.69 1370.32 1623.81 1368.8 1629.51 C 1360.91 1659.14 1345.9 1688.21 1325.76 1711.47 C 1318.65 1719.6 1310.96 1727.2 1302.74 1734.2 C 1302.34 1736.96 1300.03 1738.67 1300.33 1739.71 C 1301.88 1740.74 1312.9 1738.09 1318.2 1739.36 C 1409.19 1718.46 1482.04 1626.49 1501.97 1538.62 C 1505.13 1524.7 1506.25 1509.98 1509 1495.89 z" fill="rgb(254,254,253)" transform="translate(0,0)"></path>
<path d="M 1066.38 1871.22 C 1109.74 1920.2 1141.77 1978.13 1160.2 2040.89 L 1158.6 2041.19 C 1140.81 1981.47 1107.45 1917.88 1064.62 1872.26 L 1066.38 1871.22 z" fill="rgb(148,124,104)" transform="translate(0,0)"></path>
<path d="M 1028.95 1835.3 C 1039.5 1842.96 1057.26 1861.71 1066.38 1871.22 L 1064.62 1872.26 C 1061.31 1867.08 1035.58 1842.01 1030.13 1838.46 L 1028.95 1835.3 z" fill="rgb(124,98,78)" transform="translate(0,0)"></path>
<path d="M 1302.74 1734.2 C 1302.34 1736.96 1300.03 1738.67 1300.33 1739.71 C 1301.88 1740.74 1312.9 1738.09 1318.2 1739.36 C 1306.54 1741.53 1301.93 1741.64 1290.43 1743.06 C 1295.17 1739.88 1298.27 1737.77 1302.74 1734.2 z" fill="rgb(127,74,24)" transform="translate(0,0)"></path>
<path d="M 1158.6 2041.19 L 1160.2 2040.89 C 1161.05 2043.43 1161.62 2045.45 1162.59 2048 L 1160.6 2048 C 1159.84 2045.63 1159.24 2043.6 1158.6 2041.19 z" fill="rgb(148,124,104)" transform="translate(0,0)"></path>
<path d="M 737.824 386.18 C 745.339 372.839 749.269 370.909 764.623 371.017 C 795.713 371.236 826.968 370.362 858.02 371.484 C 865.497 371.754 874.891 379.362 876.067 386.699 C 876.289 409.467 880.446 436.208 849.132 438.211 C 839.453 472.11 813.909 490.261 781.667 468.826 C 779.817 467.109 778.25 465.573 776.482 463.786 C 769.741 454.308 767.58 449.719 764.46 438.488 C 732.277 436.133 737.485 410.251 737.824 386.18 z" fill="rgb(254,232,7)" transform="translate(0,0)"></path>
<path d="M 1295.92 1227.9 L 1297.5 1227.75 C 1308.6 1251.65 1305.3 1289.61 1296.24 1313.96 C 1294.98 1317.34 1291.65 1326.53 1288.29 1327.9 C 1304.77 1292.49 1306.42 1264.87 1295.92 1227.9 z" fill="rgb(127,74,24)" transform="translate(0,0)"></path>
<path d="M 1063 1056 C 1068.13 1057.74 1085.33 1078.45 1091.5 1082.91 C 1094.91 1085.36 1096.24 1085.1 1097 1089 C 1091.16 1086.95 1065.03 1061.44 1063 1056 z" fill="rgb(127,74,24)" transform="translate(0,0)"></path>
<path d="M 1200.15 1163.28 C 1198.8 1157.82 1232.9 1158.29 1236.27 1163 C 1236.16 1163.39 1236.05 1163.78 1235.94 1164.17 C 1219.9 1159.67 1214.91 1162.28 1200.15 1163.28 z" fill="rgb(165,99,18)" transform="translate(0,0)"></path>
<path d="M 1040.05 1026.2 C 1045.24 1029.67 1053.19 1040.05 1054.67 1046.12 C 1049.6 1041.61 1043.04 1032.24 1040.05 1026.2 z" fill="rgb(127,74,24)" transform="translate(0,0)"></path>
<path d="M 1097 1089 C 1101.89 1089.65 1109.09 1095.74 1111.8 1099.94 C 1107.49 1097.86 1099.6 1092.9 1097 1089 z" fill="rgb(127,74,24)" transform="translate(0,0)"></path>
<path d="M 1055.86 1048.31 C 1060.93 1050.43 1062.27 1050.46 1063 1056 C 1059.36 1053.67 1058.26 1051.95 1055.86 1048.31 z" fill="rgb(165,99,18)" transform="translate(0,0)"></path>
<path d="M 1275.66 1190.14 C 1279.12 1189.32 1278.53 1190.4 1278.02 1193.2 C 1276.48 1192.26 1275.93 1191.94 1275.66 1190.14 z" fill="rgb(127,74,24)" transform="translate(0,0)"></path>
<path d="M 1371.78 1610.18 C 1371.5 1608.65 1371.24 1607.57 1371.85 1606.04 C 1375.65 1596.5 1375.16 1603.3 1372.47 1609.04 L 1371.78 1610.18 z" fill="rgb(102,58,16)" transform="translate(0,0)"></path>
<path d="M 1260.84 1176.17 C 1263.79 1176.43 1266.14 1175.82 1264.85 1179.33 C 1262.66 1178.91 1262.31 1177.99 1260.84 1176.17 z" fill="rgb(127,74,24)" transform="translate(0,0)"></path>
<path d="M 776.482 463.786 C 778.25 465.573 779.817 467.109 781.667 468.826 C 779.359 468.539 774.251 466.487 776.482 463.786 z" fill="rgb(84,49,18)" transform="translate(0,0)"></path>
<path d="M 976.819 726.531 C 975.257 728.548 972.868 731.646 970.771 733.133 C 971.723 730.486 974.613 728.411 976.819 726.531 z" fill="rgb(127,74,24)" transform="translate(0,0)"></path>
<path d="M 985.801 716.527 C 984.576 718.129 983.4 719.981 981.79 721.132 C 982.601 718.8 983.965 718.102 985.801 716.527 z" fill="rgb(127,74,24)" transform="translate(0,0)"></path>
<path d="M 931.579 771.071 C 932.114 770.074 932.015 770.184 933.109 769.736 C 932.509 770.66 932.649 770.453 931.579 771.071 z" fill="rgb(165,99,18)" transform="translate(0,0)"></path>
<path d="M 939.602 764.119 C 940.091 763.072 940.044 763.172 941.105 762.74 C 940.506 763.664 940.633 763.462 939.602 764.119 z" fill="rgb(165,99,18)" transform="translate(0,0)"></path>
<path d="M 987.713 714.184 C 987.993 713.285 988.13 713.076 988.974 712.685 C 988.51 713.662 988.634 713.435 987.713 714.184 z" fill="rgb(165,99,18)" transform="translate(0,0)"></path>
<path d="M 638.765 1617.42 C 725.796 1630.73 775.114 1630.39 860.249 1605.99 C 863.801 1606.97 863.235 1606.92 864.304 1610.43 C 865.453 1613.77 864.979 1645.9 865.089 1652.02 C 864.05 1676.63 866.199 1715.55 866.882 1741.4 L 868.738 1742.11 L 869.069 1756.12 C 905.696 1762.36 953.962 1783.7 985.433 1803.5 C 988.719 1805.56 998.594 1812.09 1000.92 1814.67 C 1005.2 1815.34 1025.26 1831.61 1028.95 1835.3 L 1030.13 1838.46 C 1035.58 1842.01 1061.31 1867.08 1064.62 1872.26 C 1107.45 1917.88 1140.81 1981.47 1158.6 2041.19 C 1159.24 2043.6 1159.84 2045.63 1160.6 2048 L 309.479 2048 C 318.552 2003.01 352.359 1939.26 378.99 1901.96 L 378.886 1899.53 L 379.573 1898.82 C 382.225 1894.47 396.487 1876.11 400.319 1873.43 L 401.463 1871.25 L 404.338 1871.04 C 411.593 1857.55 466.177 1815.21 482.162 1808.08 C 499.609 1796.04 535.792 1780.7 556.181 1774.1 C 564.358 1784.87 578.879 1802.14 590.531 1809.01 C 590.038 1807.84 589.573 1806.66 588.984 1805.54 L 584.731 1802.39 C 583.615 1801.8 583.754 1801.9 582.986 1800.85 C 572.225 1791.12 566.735 1785.04 557.771 1773.62 C 574.614 1768.75 590.104 1764.52 607.476 1762.29 C 609.34 1748.84 613.614 1733.98 615.634 1719.71 C 617.365 1713.88 619.439 1702.93 620.808 1696.63 C 631.51 1699.59 645.101 1703.39 656.144 1704.39 L 655.939 1702.86 C 646.703 1700.96 629.903 1697.92 621.887 1694.32 C 622.373 1678.84 637.807 1635.48 635.963 1624.5 C 636.925 1622.13 638.325 1619.89 638.765 1617.42 z" fill="rgb(243,207,177)" transform="translate(0,0)"></path>
<path d="M 638.765 1617.42 C 725.796 1630.73 775.114 1630.39 860.249 1605.99 C 863.801 1606.97 863.235 1606.92 864.304 1610.43 C 865.453 1613.77 864.979 1645.9 865.089 1652.02 C 864.05 1676.63 866.199 1715.55 866.882 1741.4 L 866.907 1757.33 C 881.617 1759.94 894.962 1764.06 909.036 1768.93 C 903.857 1777.45 897.79 1785.4 890.938 1792.64 C 889.494 1794.46 888.329 1796.28 886.294 1797.4 C 855.794 1830.86 796.991 1851.08 752.467 1853.04 C 751.189 1853.1 749.911 1853.13 748.631 1853.14 C 745.109 1852.79 741.531 1853.43 737.983 1853.84 C 701.736 1854.38 664.153 1846.97 630.795 1831.87 C 623.709 1828.66 603.801 1814.9 597.989 1813.8 C 594.908 1812.45 592.613 1811.64 590.531 1809.01 C 590.038 1807.84 589.573 1806.66 588.984 1805.54 L 584.731 1802.39 C 583.615 1801.8 583.754 1801.9 582.986 1800.85 C 572.225 1791.12 566.735 1785.04 557.771 1773.62 C 574.614 1768.75 590.104 1764.52 607.476 1762.29 C 609.34 1748.84 613.614 1733.98 615.634 1719.71 C 617.365 1713.88 619.439 1702.93 620.808 1696.63 C 631.51 1699.59 645.101 1703.39 656.144 1704.39 L 655.939 1702.86 C 646.703 1700.96 629.903 1697.92 621.887 1694.32 C 622.373 1678.84 637.807 1635.48 635.963 1624.5 C 636.925 1622.13 638.325 1619.89 638.765 1617.42 z" fill="rgb(210,157,112)" transform="translate(0,0)"></path>
<path d="M 638.765 1617.42 C 725.796 1630.73 775.114 1630.39 860.249 1605.99 C 863.801 1606.97 863.235 1606.92 864.304 1610.43 C 855.794 1620.07 848.735 1631.49 840.094 1640.77 C 803.171 1680.46 753.063 1703.57 699.031 1706.65 C 691.26 1707.09 662.49 1707.26 656.144 1704.39 L 655.939 1702.86 C 646.703 1700.96 629.903 1697.92 621.887 1694.32 C 622.373 1678.84 637.807 1635.48 635.963 1624.5 C 636.925 1622.13 638.325 1619.89 638.765 1617.42 z" fill="rgb(127,74,24)" transform="translate(0,0)"></path>
<path d="M 588.984 1805.54 C 594.061 1808.6 594.53 1809.09 597.989 1813.8 C 594.908 1812.45 592.613 1811.64 590.531 1809.01 C 590.038 1807.84 589.573 1806.66 588.984 1805.54 z" fill="rgb(178,133,95)" transform="translate(0,0)"></path>
<path d="M 890.938 1792.64 C 889.494 1794.46 888.329 1796.28 886.294 1797.4 C 887.059 1795.23 889.11 1794.05 890.938 1792.64 z" fill="rgb(178,133,95)" transform="translate(0,0)"></path>
<path d="M 582.986 1800.85 C 584.486 1800.97 584.498 1800.9 584.731 1802.39 C 583.615 1801.8 583.754 1801.9 582.986 1800.85 z" fill="rgb(178,133,95)" transform="translate(0,0)"></path>
<path d="M 866.882 1741.4 L 868.738 1742.11 L 869.069 1756.12 C 905.696 1762.36 953.962 1783.7 985.433 1803.5 C 988.719 1805.56 998.594 1812.09 1000.92 1814.67 C 995.112 1812.53 980.278 1801.77 973.382 1797.87 C 953.532 1786.67 932.742 1777.22 911.249 1769.63 C 895.721 1791.81 880.589 1808.76 856.903 1823.13 C 793.938 1861.33 711.828 1865.21 643.685 1839 C 635.281 1835.77 602.137 1820.59 597.989 1813.8 C 603.801 1814.9 623.709 1828.66 630.795 1831.87 C 664.153 1846.97 701.736 1854.38 737.983 1853.84 C 741.531 1853.43 745.109 1852.79 748.631 1853.14 C 749.911 1853.13 751.189 1853.1 752.467 1853.04 C 796.991 1851.08 855.794 1830.86 886.294 1797.4 C 888.329 1796.28 889.494 1794.46 890.938 1792.64 C 897.79 1785.4 903.857 1777.45 909.036 1768.93 C 894.962 1764.06 881.617 1759.94 866.907 1757.33 L 866.882 1741.4 z" fill="rgb(124,98,78)" transform="translate(0,0)"></path>
<path d="M 737.983 1853.84 C 741.531 1853.43 745.109 1852.79 748.631 1853.14 C 746.076 1854.36 740.987 1853.91 737.983 1853.84 z" fill="rgb(178,133,95)" transform="translate(0,0)"></path>
<path d="M 1000.92 1814.67 C 1005.2 1815.34 1025.26 1831.61 1028.95 1835.3 L 1027.21 1836.43 C 1024.03 1832.36 1018.48 1828.54 1014.23 1825.42 C 1013.73 1824.91 1013.73 1824.85 1013.1 1824.52 C 1010.48 1822.39 1001.5 1816.71 1000.92 1814.67 z" fill="rgb(124,98,78)" transform="translate(0,0)"></path>
<path d="M 379.573 1898.82 C 382.225 1894.47 396.487 1876.11 400.319 1873.43 L 401.086 1874.92 C 397.071 1878.21 383.771 1894.54 381.265 1899.21 L 379.573 1898.82 z" fill="rgb(124,98,78)" transform="translate(0,0)"></path>
<path d="M 401.463 1871.25 L 404.338 1871.04 C 403.079 1872.75 402.586 1873.43 401.086 1874.92 L 400.319 1873.43 L 401.463 1871.25 z" fill="rgb(210,157,112)" transform="translate(0,0)"></path>
<path d="M 378.886 1899.53 L 379.573 1898.82 L 381.265 1899.21 C 380.484 1900.23 379.823 1901 378.99 1901.96 L 378.886 1899.53 z" fill="rgb(210,157,112)" transform="translate(0,0)"></path>
<path d="M 1027.21 1836.43 L 1028.95 1835.3 L 1030.13 1838.46 C 1029.09 1837.77 1028.19 1837.21 1027.21 1836.43 z" fill="rgb(210,157,112)" transform="translate(0,0)"></path>
<path d="M 0 1375.54 C 2.93353 1391.06 4.20173 1406.63 8.95779 1421.79 C 40.5329 1522.43 132.941 1591.1 238.347 1587.86 C 245.21 1593.69 251.243 1600.43 257.857 1606.55 C 327.807 1671.34 424.787 1692.63 516.52 1672.64 C 546.825 1695.94 575.71 1712.19 614.514 1717.81 L 615.634 1719.71 C 613.614 1733.98 609.34 1748.84 607.476 1762.29 C 590.104 1764.52 574.614 1768.75 557.771 1773.62 C 566.735 1785.04 572.225 1791.12 582.986 1800.85 C 583.754 1801.9 583.615 1801.8 584.731 1802.39 L 588.984 1805.54 C 589.573 1806.66 590.038 1807.84 590.531 1809.01 C 578.879 1802.14 564.358 1784.87 556.181 1774.1 C 535.792 1780.7 499.609 1796.04 482.162 1808.08 C 466.177 1815.21 411.593 1857.55 404.338 1871.04 L 401.463 1871.25 L 400.319 1873.43 C 396.487 1876.11 382.225 1894.47 379.573 1898.82 L 378.886 1899.53 L 378.99 1901.96 C 352.359 1939.26 318.552 2003.01 309.479 2048 L 307.547 2048 L 0 2048 L 0 1375.54 z" fill="rgb(254,254,253)" transform="translate(0,0)"></path>
<path d="M 614.514 1717.81 L 615.634 1719.71 C 613.614 1733.98 609.34 1748.84 607.476 1762.29 C 590.104 1764.52 574.614 1768.75 557.771 1773.62 C 566.735 1785.04 572.225 1791.12 582.986 1800.85 C 583.754 1801.9 583.615 1801.8 584.731 1802.39 L 588.984 1805.54 C 589.573 1806.66 590.038 1807.84 590.531 1809.01 C 578.879 1802.14 564.358 1784.87 556.181 1774.1 C 535.792 1780.7 499.609 1796.04 482.162 1808.08 L 482 1805.94 C 523.101 1781.77 560.246 1769.31 606.459 1760.29 C 608.336 1747.37 612.215 1731.37 614.514 1717.81 z" fill="rgb(124,98,78)" transform="translate(0,0)"></path>
<path d="M 378.886 1899.53 L 378.99 1901.96 C 352.359 1939.26 318.552 2003.01 309.479 2048 L 307.547 2048 C 319.178 2000.51 349.443 1938.34 378.886 1899.53 z" fill="rgb(148,124,104)" transform="translate(0,0)"></path>
<path d="M 401.463 1871.25 C 426.117 1844.19 450.966 1824.82 482 1805.94 L 482.162 1808.08 C 466.177 1815.21 411.593 1857.55 404.338 1871.04 L 401.463 1871.25 z" fill="rgb(124,98,78)" transform="translate(0,0)"></path>
<path d="M 300.274 874.629 L 300.908 875.316 C 304.635 873.34 337.774 884.54 344.982 885.931 C 343.726 915.899 342.783 945.879 342.154 975.866 C 341.801 990.336 340.726 1008.84 340.92 1022.79 C 340.022 1026.65 339.569 1027.82 340.092 1031.69 C 340.043 1037.25 340.905 1046.44 338.038 1050.46 C 336.42 1049.16 335.699 1048.48 334.262 1047.05 L 339.314 1058.29 C 337.891 1069.87 337.401 1107.99 334.329 1115.07 L 334.775 1116.74 C 323.308 1129.79 318.554 1137.86 309.576 1151.91 C 303.896 1163.76 297.331 1174.74 291.977 1186.87 C 287.395 1185.55 282.291 1212.97 278.815 1216.31 C 277.228 1217.83 278.192 1214.23 275.125 1214.82 C 275.641 1216.06 278.15 1220.59 277.981 1221.09 C 275.923 1227.21 273.088 1248.3 270.681 1252.54 C 260.992 1248.21 254.796 1244.29 246.16 1238.53 C 242.851 1241.15 233.29 1227.68 230.376 1226.06 C 229.452 1225.55 227.027 1226.35 226.022 1226.48 C 190.713 1268.39 158.253 1356.85 163.053 1412.56 C 163.208 1414.45 163.515 1416.33 163.97 1418.18 C 163.72 1425.38 164.725 1429.53 165.332 1436.57 C 171.655 1493.63 198.78 1546.66 238.347 1587.86 C 132.941 1591.1 40.5329 1522.43 8.95779 1421.79 C 4.20173 1406.63 2.93353 1391.06 0 1375.54 L 0 1336.54 C 4.96647 1314.15 5.11178 1299.41 12.8629 1276.51 C 41.1143 1190.51 108.32 1130.17 174.824 1072.95 C 227.713 1027.45 271.086 976.229 291.664 908.554 C 294.88 897.979 296.392 884.697 300.274 874.629 z" fill="rgb(165,99,18)" transform="translate(0,0)"></path>
<path d="M 252.11 1038.95 C 268.37 1028.27 279.861 1021.32 300.19 1024.27 C 313.517 1026.2 323.206 1036.65 325.808 1037.36 C 328.717 1041.46 329.794 1042.67 333.559 1045.74 L 334.262 1047.05 L 339.314 1058.29 C 337.891 1069.87 337.401 1107.99 334.329 1115.07 L 334.775 1116.74 C 323.308 1129.79 318.554 1137.86 309.576 1151.91 C 303.896 1163.76 297.331 1174.74 291.977 1186.87 C 287.395 1185.55 282.291 1212.97 278.815 1216.31 C 277.228 1217.83 278.192 1214.23 275.125 1214.82 C 275.641 1216.06 278.15 1220.59 277.981 1221.09 C 275.923 1227.21 273.088 1248.3 270.681 1252.54 C 260.992 1248.21 254.796 1244.29 246.16 1238.53 C 242.851 1241.15 233.29 1227.68 230.376 1226.06 C 229.452 1225.55 227.027 1226.35 226.022 1226.48 C 227.858 1223.94 228.197 1223.95 227.471 1220.9 L 227.954 1219.93 C 194.55 1170.86 199.51 1097.17 239.394 1052.79 C 242.994 1048.78 248.176 1044.13 251.296 1040.04 L 252.11 1038.95 z" fill="rgb(210,157,112)" transform="translate(0,0)"></path>
<path d="M 320.836 1113.44 C 323.738 1111.08 328.467 1121.33 331.51 1118.19 C 332 1117.69 331.332 1111.09 331.513 1108.69 C 332.532 1110.88 333.41 1112.82 334.329 1115.07 L 334.775 1116.74 C 323.308 1129.79 318.554 1137.86 309.576 1151.91 C 303.896 1163.76 297.331 1174.74 291.977 1186.87 C 287.395 1185.55 282.291 1212.97 278.815 1216.31 C 277.228 1217.83 278.192 1214.23 275.125 1214.82 C 260.13 1185.75 270.149 1132.49 304.964 1124.58 C 308.14 1123.12 324.72 1118.47 324.869 1117.53 C 324.518 1116.6 321.755 1114.29 320.836 1113.44 z" fill="rgb(127,74,24)" transform="translate(0,0)"></path>
<path d="M 320.836 1113.44 C 323.738 1111.08 328.467 1121.33 331.51 1118.19 C 332 1117.69 331.332 1111.09 331.513 1108.69 C 332.532 1110.88 333.41 1112.82 334.329 1115.07 L 334.775 1116.74 C 323.308 1129.79 318.554 1137.86 309.576 1151.91 C 309.366 1145.66 325.291 1125.26 329.756 1118.62 C 324.184 1120.13 310.203 1124.51 304.964 1124.58 C 308.14 1123.12 324.72 1118.47 324.869 1117.53 C 324.518 1116.6 321.755 1114.29 320.836 1113.44 z" fill="rgb(31,19,10)" transform="translate(0,0)"></path>
<path d="M 252.512 1102.89 C 264.854 1044.43 316.949 1064.94 331.513 1108.69 C 331.332 1111.09 332 1117.69 331.51 1118.19 C 328.467 1121.33 323.738 1111.08 320.836 1113.44 C 299.426 1099.3 285.862 1090.41 262.224 1104.4 C 259.376 1101.95 255.178 1111.92 252.934 1110.17 C 252.593 1109.36 252.615 1104.47 252.512 1102.89 z" fill="rgb(127,74,24)" transform="translate(0,0)"></path>
<path d="M 227.954 1219.93 C 234.986 1229.47 238.021 1231.14 246.16 1238.53 C 242.851 1241.15 233.29 1227.68 230.376 1226.06 C 229.452 1225.55 227.027 1226.35 226.022 1226.48 C 227.858 1223.94 228.197 1223.95 227.471 1220.9 L 227.954 1219.93 z" fill="rgb(31,19,10)" transform="translate(0,0)"></path>
<path d="M 252.512 1102.89 C 252.615 1104.47 252.593 1109.36 252.934 1110.17 C 255.178 1111.92 259.376 1101.95 262.224 1104.4 C 254.874 1111.04 254.243 1113.3 248.839 1121.21 C 249.967 1114.8 250.94 1109.24 252.512 1102.89 z" fill="rgb(31,19,10)" transform="translate(0,0)"></path>
<path d="M 227.471 1220.9 C 214.795 1211.22 204.926 1172.66 204.035 1157.66 C 201.809 1120.22 211.934 1081.98 236.284 1052.93 C 238.888 1049.82 248.489 1039.21 252.11 1038.95 L 251.296 1040.04 C 248.176 1044.13 242.994 1048.78 239.394 1052.79 C 199.51 1097.17 194.55 1170.86 227.954 1219.93 L 227.471 1220.9 z" fill="rgb(127,74,24)" transform="translate(0,0)"></path>
<path d="M 325.808 1037.36 C 332.104 1041.09 331.854 1038.63 333.559 1045.74 C 329.794 1042.67 328.717 1041.46 325.808 1037.36 z" fill="rgb(127,74,24)" transform="translate(0,0)"></path>
<path d="M 226.022 1226.48 C 227.027 1226.35 229.452 1225.55 230.376 1226.06 C 233.29 1227.68 242.851 1241.15 246.16 1238.53 C 254.796 1244.29 260.992 1248.21 270.681 1252.54 C 270.78 1255.14 271.134 1255.97 271.845 1258.54 C 266.817 1300.79 267.522 1336.97 281.064 1378.1 C 324.785 1510.89 466.619 1579.37 593.69 1608.48 C 606.267 1611.36 622.181 1615.15 634.443 1616.5 L 635.622 1616.63 L 638.765 1617.42 C 638.325 1619.89 636.925 1622.13 635.963 1624.5 C 637.807 1635.48 622.373 1678.84 621.887 1694.32 C 629.903 1697.92 646.703 1700.96 655.939 1702.86 L 656.144 1704.39 C 645.101 1703.39 631.51 1699.59 620.808 1696.63 C 619.439 1702.93 617.365 1713.88 615.634 1719.71 L 614.514 1717.81 C 575.71 1712.19 546.825 1695.94 516.52 1672.64 C 424.787 1692.63 327.807 1671.34 257.857 1606.55 C 251.243 1600.43 245.21 1593.69 238.347 1587.86 C 198.78 1546.66 171.655 1493.63 165.332 1436.57 C 164.725 1429.53 163.72 1425.38 163.97 1418.18 C 163.515 1416.33 163.208 1414.45 163.053 1412.56 C 158.253 1356.85 190.713 1268.39 226.022 1226.48 z" fill="rgb(102,58,16)" transform="translate(0,0)"></path>
<path d="M 163.97 1418.18 C 167.433 1419.04 166.227 1433.15 165.332 1436.57 C 164.725 1429.53 163.72 1425.38 163.97 1418.18 z" fill="rgb(84,49,18)" transform="translate(0,0)"></path>
<path d="M 635.622 1616.63 L 638.765 1617.42 C 638.325 1619.89 636.925 1622.13 635.963 1624.5 C 634.755 1621.24 635.461 1620.57 635.622 1616.63 z" fill="rgb(84,49,18)" transform="translate(0,0)"></path>
<path d="M 1083.55 1390.75 C 1086.69 1389.03 1087.32 1384.48 1089.14 1380.32 C 1090.45 1382.93 1097.82 1400.67 1100.61 1398.37 C 1140.71 1444.55 1185.43 1427.58 1229.13 1398.91 C 1244.63 1397.66 1242.06 1375.82 1247.92 1401.57 C 1247.25 1419.09 1244.14 1438.17 1240.34 1455.29 C 1223.12 1532.97 1185.66 1602.79 1127.08 1657 C 1112.89 1670.37 1097.49 1682.41 1081.09 1692.95 C 1075.08 1696.88 1037.46 1717.34 1036.28 1718.7 C 1033.08 1718.07 1029.62 1719.98 1026.57 1721.29 C 975.806 1743.01 923.549 1750.78 868.738 1742.11 L 866.882 1741.4 C 866.199 1715.55 864.05 1676.63 865.089 1652.02 C 864.979 1645.9 865.453 1613.77 864.304 1610.43 C 863.235 1606.92 863.801 1606.97 860.249 1605.99 C 863.924 1604.7 867.359 1603.64 871.031 1602.21 C 887.677 1595.47 904.686 1588.54 920.507 1580.02 C 981.303 1547.04 1031.01 1496.85 1063.4 1435.74 C 1071.33 1420.82 1076.7 1406.05 1083.55 1390.75 z" fill="rgb(102,58,16)" transform="translate(0,0)"></path>
<path d="M 860.249 1605.99 C 863.924 1604.7 867.359 1603.64 871.031 1602.21 L 870.319 1602.93 C 868.752 1604.34 866.939 1605.35 866.909 1607.47 C 866.688 1623.07 866.974 1636.41 865.089 1652.02 C 864.979 1645.9 865.453 1613.77 864.304 1610.43 C 863.235 1606.92 863.801 1606.97 860.249 1605.99 z" fill="rgb(31,19,10)" transform="translate(0,0)"></path>
<path d="M 988.974 712.685 L 996.788 704.715 C 991.368 724.6 988.224 744.878 984.666 765.155 C 983.929 769.357 983.611 772.496 981.784 776.413 C 982.792 759.036 989.452 728.007 993.444 710.624 C 977.967 728.677 961.494 747.034 943.811 762.925 C 847.443 849.525 726.983 898.923 598.351 908.835 C 530.64 914.166 462.517 910.235 395.868 897.15 C 380.718 894.28 361.925 890.702 347.332 886.365 C 342.533 920.536 344.156 1104.85 334.775 1116.74 L 334.329 1115.07 C 337.401 1107.99 337.891 1069.87 339.314 1058.29 L 334.262 1047.05 C 335.699 1048.48 336.42 1049.16 338.038 1050.46 C 340.905 1046.44 340.043 1037.25 340.092 1031.69 C 339.569 1027.82 340.022 1026.65 340.92 1022.79 C 340.726 1008.84 341.801 990.336 342.154 975.866 C 342.783 945.879 343.726 915.899 344.982 885.931 C 337.774 884.54 304.635 873.34 300.908 875.316 L 300.274 874.629 C 297.808 871.376 296.996 871.824 292.817 870.172 C 295.983 869.815 367.749 890.016 380.089 892.467 C 425.363 901.458 472.69 909.391 518.958 909.013 C 524.879 908.646 555.916 908.728 562.217 909.076 C 582.783 909.25 623.996 905.087 643.974 901.61 C 644.74 901.408 644.844 901.393 645.633 901.357 C 655.171 900.798 678.825 895.224 688.642 893.108 C 759.92 877.74 849.01 838.18 906.003 791.635 C 906.642 791.255 906.752 791.278 907.118 790.718 C 913.827 786.339 925.412 776.473 931.579 771.071 C 932.649 770.453 932.509 770.66 933.109 769.736 C 935.089 768.206 937.653 765.82 939.602 764.119 C 940.633 763.462 940.506 763.664 941.105 762.74 C 949.644 755.894 963.159 741.243 970.771 733.133 C 972.868 731.646 975.257 728.548 976.819 726.531 L 981.79 721.132 C 983.4 719.981 984.576 718.129 985.801 716.527 L 987.713 714.184 C 988.634 713.435 988.51 713.662 988.974 712.685 z" fill="rgb(84,49,18)" transform="translate(0,0)"></path>
<path d="M 518.958 909.013 C 524.879 908.646 555.916 908.728 562.217 909.076 C 554.756 910.794 526.306 910.481 518.958 909.013 z" fill="rgb(127,74,24)" transform="translate(0,0)"></path>
<path d="M 340.92 1022.79 C 340.955 1025.64 341.372 1029.22 340.092 1031.69 C 339.569 1027.82 340.022 1026.65 340.92 1022.79 z" fill="rgb(127,74,24)" transform="translate(0,0)"></path>
<path d="M 275.125 1214.82 C 278.192 1214.23 277.228 1217.83 278.815 1216.31 C 282.291 1212.97 287.395 1185.55 291.977 1186.87 C 281.867 1211.24 276.764 1232.86 271.845 1258.54 C 271.134 1255.97 270.78 1255.14 270.681 1252.54 C 273.088 1248.3 275.923 1227.21 277.981 1221.09 C 278.15 1220.59 275.641 1216.06 275.125 1214.82 z" fill="rgb(84,49,18)" transform="translate(0,0)"></path>
<path d="M 1229.13 1398.91 C 1236.44 1393.07 1242.59 1388.23 1249.37 1381.63 C 1252.65 1378.45 1263.29 1365.6 1266.04 1363.83 C 1266.03 1367.22 1251.45 1381.93 1248.17 1385.53 C 1248.18 1390.97 1248.15 1396.12 1247.92 1401.57 C 1242.06 1375.82 1244.63 1397.66 1229.13 1398.91 z" fill="rgb(84,49,18)" transform="translate(0,0)"></path>
<path d="M 1088.98 1376.27 C 1093.22 1385.36 1096.04 1390.09 1100.61 1398.37 C 1097.82 1400.67 1090.45 1382.93 1089.14 1380.32 C 1087.32 1384.48 1086.69 1389.03 1083.55 1390.75 C 1085.48 1385.34 1086.78 1381.59 1088.98 1376.27 z" fill="rgb(84,49,18)" transform="translate(0,0)"></path>
<path d="M 1106.71 1223.05 C 1111.37 1216.44 1119.51 1206.76 1127.18 1204.29 C 1123.36 1208.78 1112.13 1219.67 1107.35 1224.43 L 1106.71 1223.05 z" fill="rgb(127,74,24)" transform="translate(0,0)"></path>
<path d="M 1106.65 1210.97 C 1108.44 1214.1 1098.48 1231.77 1106.71 1223.05 L 1107.35 1224.43 L 1098.49 1234.8 C 1101.04 1226.99 1103.5 1218.52 1106.65 1210.97 z" fill="rgb(31,19,10)" transform="translate(0,0)"></path>
<path d="M 767.686 1014.83 C 768.592 1013.83 769.559 1012.88 770.581 1012 C 798.608 987.59 839.993 975.649 876.164 986.228 C 886.591 989.278 904.978 997.293 912.279 1005.88 C 917.353 1009.19 923.738 1015.65 927.184 1020.64 C 928.847 1022.26 932.084 1025.46 932.431 1027.86 C 949.814 1046.03 961.626 1091.91 959.309 1116.38 C 958.758 1122.2 958.812 1140.55 954.972 1144.43 L 954.193 1144.28 C 952.427 1147.34 951.566 1148.63 950.449 1151.93 C 952.413 1154.78 951.278 1154.76 948.704 1156.43 L 948.206 1156.6 C 948.579 1158.97 948.461 1158.57 947.524 1161.03 C 946.06 1164.96 943.577 1168.42 940.33 1171.07 C 940.693 1175.38 935.47 1180.24 932.838 1183.63 C 932.429 1184.55 932.446 1184.46 931.54 1184.98 C 903.8 1213.36 878.869 1231.28 836.705 1232.38 C 807.763 1233.13 788.812 1224.94 764.98 1209.21 C 764.251 1208.87 764.428 1208.97 763.839 1208.33 L 760.347 1205.36 C 759.453 1205.16 759.491 1205.4 759.251 1204.63 C 754.415 1200.33 749.147 1194.78 744.515 1190.13 C 737.55 1185 727.376 1165.16 724.484 1156.92 C 714.92 1129.67 709.922 1104.12 722.005 1077.15 C 725.33 1066.69 739.545 1041.85 747.83 1034.67 C 751.703 1029.01 762.092 1018.71 767.686 1014.83 z" fill="rgb(254,254,253)" transform="translate(0,0)"></path>
<path d="M 767.686 1014.83 C 768.592 1013.83 769.559 1012.88 770.581 1012 C 798.608 987.59 839.993 975.649 876.164 986.228 C 886.591 989.278 904.978 997.293 912.279 1005.88 C 917.353 1009.19 923.738 1015.65 927.184 1020.64 C 928.847 1022.26 932.084 1025.46 932.431 1027.86 C 949.814 1046.03 961.626 1091.91 959.309 1116.38 C 958.758 1122.2 958.812 1140.55 954.972 1144.43 L 954.193 1144.28 C 956.777 1138.13 953.915 1127.73 952.704 1120.74 C 951.835 1119.31 949.612 1112.04 948.867 1109.9 C 939.819 1083.9 925.411 1061.96 902.762 1045.39 C 877.088 1026.48 844.891 1018.7 813.418 1023.79 C 775.108 1029.78 745.999 1054.13 723.79 1084.39 C 721.987 1084.44 722.766 1084.74 721.448 1083.51 C 721.906 1081.2 722.275 1079.54 722.005 1077.15 C 725.33 1066.69 739.545 1041.85 747.83 1034.67 C 751.703 1029.01 762.092 1018.71 767.686 1014.83 z" fill="rgb(165,99,18)" transform="translate(0,0)"></path>
<path d="M 932.431 1027.86 C 949.814 1046.03 961.626 1091.91 959.309 1116.38 C 958.758 1122.2 958.812 1140.55 954.972 1144.43 L 954.193 1144.28 C 956.777 1138.13 953.915 1127.73 952.704 1120.74 C 954.096 1122.61 954.84 1124.94 955.714 1127.14 L 956.525 1127.26 C 958.175 1098.53 956.117 1075.37 943.652 1049.05 C 940.433 1042.25 934.658 1034.65 932.431 1027.86 z" fill="rgb(102,58,16)" transform="translate(0,0)"></path>
<path d="M 747.83 1034.67 C 751.703 1029.01 762.092 1018.71 767.686 1014.83 C 765.558 1020.94 754.043 1032.54 747.83 1034.67 z" fill="rgb(127,74,24)" transform="translate(0,0)"></path>
<path d="M 912.279 1005.88 C 917.353 1009.19 923.738 1015.65 927.184 1020.64 C 919.768 1018.07 916.168 1012.19 912.279 1005.88 z" fill="rgb(127,74,24)" transform="translate(0,0)"></path>
<path d="M 932.303 1181.14 L 932.838 1183.63 C 932.429 1184.55 932.446 1184.46 931.54 1184.98 C 903.8 1213.36 878.869 1231.28 836.705 1232.38 C 807.763 1233.13 788.812 1224.94 764.98 1209.21 C 764.251 1208.87 764.428 1208.97 763.839 1208.33 L 760.347 1205.36 C 759.453 1205.16 759.491 1205.4 759.251 1204.63 C 754.415 1200.33 749.147 1194.78 744.515 1190.13 L 745.973 1188.92 C 769.157 1217.82 807.931 1233.99 844.676 1230.4 C 881.27 1226.83 909.144 1208.44 932.303 1181.14 z" fill="rgb(124,98,78)" transform="translate(0,0)"></path>
<path d="M 932.838 1183.63 C 932.429 1184.55 932.446 1184.46 931.54 1184.98 C 932.096 1184.14 932.031 1184.17 932.838 1183.63 z" fill="rgb(178,133,95)" transform="translate(0,0)"></path>
<path d="M 722.005 1077.15 C 722.275 1079.54 721.906 1081.2 721.448 1083.51 C 722.766 1084.74 721.987 1084.44 723.79 1084.39 C 705.926 1115.37 725.276 1163.32 745.973 1188.92 L 744.515 1190.13 C 737.55 1185 727.376 1165.16 724.484 1156.92 C 714.92 1129.67 709.922 1104.12 722.005 1077.15 z" fill="rgb(124,98,78)" transform="translate(0,0)"></path>
<path d="M 932.303 1181.14 C 933.869 1178.99 938.349 1171.83 940.33 1171.07 C 940.693 1175.38 935.47 1180.24 932.838 1183.63 L 932.303 1181.14 z" fill="rgb(178,133,95)" transform="translate(0,0)"></path>
<path d="M 948.206 1156.6 C 948.579 1158.97 948.461 1158.57 947.524 1161.03 C 946.06 1164.96 943.577 1168.42 940.33 1171.07 C 941.975 1166.63 945.452 1160.45 948.206 1156.6 z" fill="rgb(178,133,95)" transform="translate(0,0)"></path>
<path d="M 950.449 1151.93 C 952.413 1154.78 951.278 1154.76 948.704 1156.43 C 949.339 1154.19 949.258 1153.82 950.449 1151.93 z" fill="rgb(178,133,95)" transform="translate(0,0)"></path>
<path d="M 802.927 1081.12 C 848.301 1078.77 852.566 1140.76 817.494 1151.93 L 813.644 1153.13 C 805.231 1153.46 799.002 1154 791.348 1149.6 C 772.789 1138.92 768.511 1114.81 779.081 1097 C 784.806 1087.35 792.636 1083.65 802.927 1081.12 z" fill="rgb(84,49,18)" transform="translate(0,0)"></path>
<path d="M 365.521 1013.73 C 376.492 959.164 434.179 911.101 490.495 929.214 C 496.133 931.028 513.643 937.071 517.123 941.203 C 559.976 960.095 596.033 1042.77 576.892 1089.54 C 574.891 1094.43 568.517 1105.62 564.313 1108.92 L 563.489 1110.16 C 561.777 1116.01 557.399 1121.48 553.185 1125.75 C 550.473 1127.88 546.602 1131.64 544.45 1134.4 C 541.526 1138.67 521.838 1151.54 516.163 1151.55 L 515.51 1151.67 L 514.483 1153.36 C 507.698 1157.95 497.715 1160.36 489.671 1162.16 C 455.952 1169.69 431.242 1159.62 403.575 1142.02 C 401.751 1140.71 401.688 1140.71 400.176 1139.02 C 398.196 1136.72 398.154 1136.62 395.57 1135.13 C 394.633 1134.62 393.881 1134.17 393.113 1133.4 C 374.879 1115.17 362.516 1087.04 360.496 1062.06 C 360.189 1060.96 360.322 1061.52 360.1 1060.38 C 359.751 1054.42 358.888 1042.74 360.779 1037.4 C 361.955 1029.22 363.414 1021.72 365.521 1013.73 z" fill="rgb(254,254,253)" transform="translate(0,0)"></path>
<path d="M 365.521 1013.73 C 376.492 959.164 434.179 911.101 490.495 929.214 C 496.133 931.028 513.643 937.071 517.123 941.203 C 559.976 960.095 596.033 1042.77 576.892 1089.54 C 574.891 1094.43 568.517 1105.62 564.313 1108.92 C 570.367 1096.33 574.991 1090.32 580.851 1075.59 C 579.524 1066.92 577.258 1059.2 574.969 1050.76 C 564.979 1024.29 551.226 1002.38 527.401 986.124 C 504.397 970.464 476.148 964.501 448.777 969.526 C 411.577 976.618 387.877 998.347 367.623 1028.31 C 365.997 1031.35 364.174 1034.93 362.507 1037.87 L 360.779 1037.4 C 361.955 1029.22 363.414 1021.72 365.521 1013.73 z" fill="rgb(165,99,18)" transform="translate(0,0)"></path>
<path d="M 517.123 941.203 C 559.976 960.095 596.033 1042.77 576.892 1089.54 C 574.891 1094.43 568.517 1105.62 564.313 1108.92 C 570.367 1096.33 574.991 1090.32 580.851 1075.59 C 579.524 1066.92 577.258 1059.2 574.969 1050.76 L 576.298 1050.69 L 578.579 1055.11 C 578.683 1054.86 578.788 1054.6 578.892 1054.34 C 578.856 1021.26 562.519 983.91 539.883 960.567 C 530.293 950.676 522.936 948.329 517.123 941.203 z" fill="rgb(102,58,16)" transform="translate(0,0)"></path>
<path d="M 365.521 1013.73 C 365.837 1019.19 362.75 1026.43 364.045 1029.78 L 364.402 1029.99 C 365.905 1029.08 366.049 1028.97 367.623 1028.31 C 365.997 1031.35 364.174 1034.93 362.507 1037.87 L 360.779 1037.4 C 361.955 1029.22 363.414 1021.72 365.521 1013.73 z" fill="rgb(31,19,10)" transform="translate(0,0)"></path>
<path d="M 401.579 1138.38 C 441.989 1165.25 470.185 1170.52 515.51 1151.67 L 514.483 1153.36 C 507.698 1157.95 497.715 1160.36 489.671 1162.16 C 455.952 1169.69 431.242 1159.62 403.575 1142.02 C 401.751 1140.71 401.688 1140.71 400.176 1139.02 L 401.579 1138.38 z" fill="rgb(124,98,78)" transform="translate(0,0)"></path>
<path d="M 400.176 1139.02 L 401.579 1138.38 C 402.367 1139.65 402.903 1140.71 403.575 1142.02 C 401.751 1140.71 401.688 1140.71 400.176 1139.02 z" fill="rgb(178,133,95)" transform="translate(0,0)"></path>
<path d="M 360.779 1037.4 L 362.507 1037.87 C 357.517 1072.87 371.299 1105.77 394.466 1131.44 C 394.851 1132.66 395.22 1133.89 395.57 1135.13 C 394.633 1134.62 393.881 1134.17 393.113 1133.4 C 374.879 1115.17 362.516 1087.04 360.496 1062.06 C 360.189 1060.96 360.322 1061.52 360.1 1060.38 C 359.751 1054.42 358.888 1042.74 360.779 1037.4 z" fill="rgb(148,124,104)" transform="translate(0,0)"></path>
<path d="M 542.622 1133.42 L 544.45 1134.4 C 541.526 1138.67 521.838 1151.54 516.163 1151.55 C 525.483 1145.31 533.453 1139.79 542.622 1133.42 z" fill="rgb(148,124,104)" transform="translate(0,0)"></path>
<path d="M 551.462 1124.49 C 554.201 1121.05 560.807 1112.61 563.489 1110.16 C 561.777 1116.01 557.399 1121.48 553.185 1125.75 L 551.462 1124.49 z" fill="rgb(178,133,95)" transform="translate(0,0)"></path>
<path d="M 551.462 1124.49 L 553.185 1125.75 C 550.473 1127.88 546.602 1131.64 544.45 1134.4 L 542.622 1133.42 C 545.789 1130.61 548.779 1127.78 551.462 1124.49 z" fill="rgb(84,49,18)" transform="translate(0,0)"></path>
<path d="M 394.466 1131.44 C 396.832 1133.52 399.803 1135.89 401.579 1138.38 L 400.176 1139.02 C 398.196 1136.72 398.154 1136.62 395.57 1135.13 C 395.22 1133.89 394.851 1132.66 394.466 1131.44 z" fill="rgb(84,49,18)" transform="translate(0,0)"></path>
<path d="M 461.097 1028.24 C 480.513 1024.89 498.97 1037.91 502.342 1057.32 C 505.714 1076.73 492.726 1095.2 473.319 1098.6 C 453.875 1102 435.358 1088.99 431.98 1069.54 C 428.602 1050.09 441.645 1031.59 461.097 1028.24 z" fill="rgb(84,49,18)" transform="translate(0,0)"></path>
<path d="M 534.379 1459.92 C 515.921 1428.9 502.375 1390.68 515.529 1354.7 C 527.392 1322.24 568.489 1321.68 595.739 1333.7 C 637.874 1352.29 666.626 1387.59 683.684 1429.66 C 685.136 1433.77 685.97 1436.14 687.218 1440.28 C 683.006 1437.72 679.138 1435.7 674.773 1433.43 C 620.17 1412.41 577.226 1419.7 534.379 1459.92 z" fill="rgb(84,49,18)" transform="translate(0,0)"></path>
<path d="M 674.773 1433.43 C 679.242 1429.62 683.083 1442.71 683.684 1429.66 C 685.136 1433.77 685.97 1436.14 687.218 1440.28 C 683.006 1437.72 679.138 1435.7 674.773 1433.43 z" fill="rgb(31,19,10)" transform="translate(0,0)"></path>
<path d="M 1179.99 1230.49 C 1194.57 1221.08 1222.65 1210.58 1238.97 1220.6 C 1247.84 1224.05 1255 1230.85 1258.91 1239.53 C 1259.44 1240.75 1260.17 1242.51 1260.44 1243.76 C 1263.81 1253.9 1263.75 1257.67 1264.48 1268.06 L 1262.9 1264.54 C 1260.41 1258.88 1261.69 1260.11 1257.44 1254.28 C 1229.06 1228.07 1196.4 1246.07 1169.95 1265.65 C 1182.15 1265.74 1199.87 1269.75 1207.35 1280.38 C 1222.73 1296.39 1224.31 1318.38 1210.08 1335.72 C 1208.4 1338.34 1205.34 1341.73 1202.69 1343.38 C 1201.97 1344.01 1181.1 1359.47 1184.97 1351.3 C 1185.18 1350.88 1185.37 1350.45 1185.56 1350.02 C 1185.87 1349.13 1186.16 1348.24 1186.44 1347.34 C 1197.18 1312.22 1165.92 1278.67 1130.72 1298.22 C 1128.05 1298.51 1127.46 1298.88 1124.79 1298.46 C 1132.82 1273.95 1157.46 1242.78 1179.99 1230.49 z" fill="rgb(127,74,24)" transform="translate(0,0)"></path>
<path d="M 1179.99 1230.49 C 1194.57 1221.08 1222.65 1210.58 1238.97 1220.6 C 1237.93 1221.47 1219.75 1217.79 1216.04 1218.57 C 1213.27 1219.15 1210.76 1219.81 1207.99 1220.32 C 1200.26 1220.54 1186.06 1230.36 1179.99 1230.49 z" fill="rgb(102,58,16)" transform="translate(0,0)"></path>
<path d="M 1207.35 1280.38 C 1222.73 1296.39 1224.31 1318.38 1210.08 1335.72 C 1210.75 1330.95 1215.37 1326.38 1216.96 1318.99 C 1219.77 1307.74 1217.61 1295.97 1210.6 1286.63 C 1208.7 1284.11 1207.55 1283.6 1207.35 1280.38 z" fill="rgb(84,49,18)" transform="translate(0,0)"></path>
<path d="M 1257.44 1254.28 C 1265.44 1255.19 1259.58 1253.52 1260.44 1243.76 C 1263.81 1253.9 1263.75 1257.67 1264.48 1268.06 L 1262.9 1264.54 C 1260.41 1258.88 1261.69 1260.11 1257.44 1254.28 z" fill="rgb(31,19,10)" transform="translate(0,0)"></path>
<path d="M 1185.56 1350.02 C 1194.16 1351.83 1195.93 1343.66 1202.69 1343.38 C 1201.97 1344.01 1181.1 1359.47 1184.97 1351.3 C 1185.18 1350.88 1185.37 1350.45 1185.56 1350.02 z" fill="rgb(31,19,10)" transform="translate(0,0)"></path>
<path d="M 810.894 906.752 C 807.461 905.209 804.705 902.473 803.136 899.052 C 799.051 890.371 805.155 880.026 813.998 877.7 C 841.742 870.402 877.32 875.47 903.015 887.543 C 913.354 891.33 939.688 905.617 946.323 913.837 C 949.162 915.783 956.637 921.866 958.176 924.93 C 966.607 931.622 982.571 950.359 985.977 959.837 C 989.674 968.206 986.05 975.828 978.116 979.837 C 968.457 983.006 961.797 975.491 958.649 967.155 C 955.647 964.433 954.494 963.735 952.837 960.167 L 952.45 959.577 C 949.158 957.178 939.02 947.122 936.666 943.94 L 936.5 943.49 C 934.148 942.399 920.383 931.998 916.872 929.53 C 915.313 929.031 910.117 925.782 908.244 924.84 C 893.728 917.538 878.207 910.752 861.999 908.596 C 852.443 907.26 842.789 906.764 833.146 907.114 C 827.34 907.356 815.581 908.979 810.894 906.752 z" fill="rgb(165,99,18)" transform="translate(0,0)"></path>
<path d="M 810.894 906.752 C 807.461 905.209 804.705 902.473 803.136 899.052 C 799.051 890.371 805.155 880.026 813.998 877.7 C 841.742 870.402 877.32 875.47 903.015 887.543 C 899.827 888.708 888.409 883.856 884.04 882.621 C 861.286 876.186 834.571 872.737 811.952 880.988 C 810.011 881.731 806.152 885.565 804.559 887.116 C 803.524 903.661 809.649 899.619 810.894 906.752 z" fill="rgb(127,74,24)" transform="translate(0,0)"></path>
<path d="M 916.872 929.53 C 922.607 929.435 934.646 937.729 936.5 943.49 C 934.148 942.399 920.383 931.998 916.872 929.53 z" fill="rgb(127,74,24)" transform="translate(0,0)"></path>
<path d="M 936.666 943.94 C 943.326 945.276 950.562 953.37 952.45 959.577 C 949.158 957.178 939.02 947.122 936.666 943.94 z" fill="rgb(127,74,24)" transform="translate(0,0)"></path>
<path d="M 978.116 979.837 C 978.971 974.475 982.37 975.194 984.5 970.999 C 986.861 966.352 984.086 964.165 985.977 959.837 C 989.674 968.206 986.05 975.828 978.116 979.837 z" fill="rgb(127,74,24)" transform="translate(0,0)"></path>
<path d="M 946.323 913.837 C 949.162 915.783 956.637 921.866 958.176 924.93 C 955.112 925.977 948.242 919.072 947.28 916.476 L 946.323 913.837 z" fill="rgb(127,74,24)" transform="translate(0,0)"></path>
<path d="M 952.837 960.167 C 957.926 960.93 957.511 962.434 958.649 967.155 C 955.647 964.433 954.494 963.735 952.837 960.167 z" fill="rgb(127,74,24)" transform="translate(0,0)"></path>
<path d="M 549.114 1480.6 C 591.456 1504.31 632.596 1494.02 670.738 1468.24 L 672.96 1472.71 C 661.926 1494.35 644.734 1512.84 621.103 1520.43 C 604.791 1525.83 586.98 1524.35 571.787 1516.32 C 557.059 1508.49 543.392 1492.91 538.514 1476.92 C 538.085 1475.77 536.477 1472.16 536.936 1470.95 C 536.99 1470.81 537.097 1470.69 537.236 1470.63 C 537.696 1470.42 547.661 1479.43 549.114 1480.6 z" fill="rgb(127,74,24)" transform="translate(0,0)"></path>
<path d="M 538.514 1476.92 C 538.085 1475.77 536.477 1472.16 536.936 1470.95 C 536.99 1470.81 537.097 1470.69 537.236 1470.63 C 537.696 1470.42 547.661 1479.43 549.114 1480.6 C 545.946 1483.18 545.741 1476.33 538.514 1476.92 z" fill="rgb(31,19,10)" transform="translate(0,0)"></path>
<path d="M 556.024 1165.73 C 581.147 1162.01 606.783 1172.54 610.99 1199.75 C 609.193 1196.06 607.683 1192.04 605.856 1188.49 C 596.517 1170.34 572.057 1162.11 553.714 1170.95 C 544.853 1175.25 538.113 1182.96 535.032 1192.32 C 531.727 1202.31 533.148 1212.2 535.94 1222.1 C 543.568 1236.97 548.162 1242.66 561.999 1252.8 C 563.593 1253.97 572.346 1259.55 573.273 1260.45 C 580.19 1263.85 590.804 1267.1 576.503 1268.93 C 564.181 1270.5 552.386 1268.2 541.845 1261.63 C 530.466 1257.56 517.183 1236.38 516.255 1224.56 C 514.792 1215.28 514.434 1204.52 519.137 1196.01 C 522.912 1180.61 541.378 1168.96 556.024 1165.73 z" fill="rgb(127,74,24)" transform="translate(0,0)"></path>
<path d="M 556.024 1165.73 C 581.147 1162.01 606.783 1172.54 610.99 1199.75 C 609.193 1196.06 607.683 1192.04 605.856 1188.49 C 596.517 1170.34 572.057 1162.11 553.714 1170.95 C 544.853 1175.25 538.113 1182.96 535.032 1192.32 C 531.727 1202.31 533.148 1212.2 535.94 1222.1 C 534.864 1222.42 535.508 1222.39 534.065 1221.62 C 531.62 1211.85 528.663 1202.41 532.364 1192.63 C 536.192 1182.51 545.239 1172.34 555.314 1168.27 L 556.024 1165.73 z" fill="rgb(84,49,18)" transform="translate(0,0)"></path>
<path d="M 549.779 1252.15 C 553.446 1253.16 559.856 1263.89 562.226 1267.51 C 563.806 1267.5 580.126 1267.89 578.816 1265.83 C 577.158 1263.23 574.764 1264.33 573.273 1260.45 C 580.19 1263.85 590.804 1267.1 576.503 1268.93 C 564.181 1270.5 552.386 1268.2 541.845 1261.63 C 547.969 1261.29 550.995 1267.22 553.225 1262.41 C 561.797 1266.56 551.399 1254.94 549.779 1252.15 z" fill="rgb(84,49,18)" transform="translate(0,0)"></path>
<path d="M 553.225 1262.41 C 549.924 1259.21 546.26 1257.33 544.037 1253.02 C 542.781 1250.58 541.587 1244.3 546.151 1248.82 C 547.451 1250.1 548.191 1251.24 549.779 1252.15 C 551.399 1254.94 561.797 1266.56 553.225 1262.41 z" fill="rgb(210,157,112)" transform="translate(0,0)"></path>
<path d="M 519.137 1196.01 C 520.005 1199.77 518.496 1201.25 517.984 1204.98 C 517.056 1211.76 519.881 1218.99 516.255 1224.56 C 514.792 1215.28 514.434 1204.52 519.137 1196.01 z" fill="rgb(102,58,16)" transform="translate(0,0)"></path>
<path d="M 1124.79 1298.46 C 1127.46 1298.88 1128.05 1298.51 1130.72 1298.22 C 1124.94 1303.38 1124.24 1305.75 1119.93 1312 C 1121.59 1307.5 1123.21 1302.99 1124.79 1298.46 z" fill="rgb(31,19,10)" transform="translate(0,0)"></path>
<path d="M 670.738 1468.24 L 671.663 1467.43 C 674.089 1465.33 676.378 1463.16 678.783 1461.03 C 676.877 1465.01 674.878 1468.78 672.96 1472.71 L 670.738 1468.24 z" fill="rgb(31,19,10)" transform="translate(0,0)"></path>
<metadata><recraft-signature>{"signed_by": "recraft", "signature_b64": "wMzauNm6mB/RpyQmT+Wfg2cOCiq0gABDn8BPMYAs03BQL+ZhTAsEnbTVycb0tEBqOexCfqBULZ6Qpgm6N6ikAw==", "signing_algo": "Ed25519", "generation_timestamp": 1779099398, "identifier": "f446412d-e112-4e34-92c6-efcbbbb14f3d"}</recraft-signature></metadata></svg>