<svg xmlns="http://www.w3.org/2000/svg" height="1024" preserveAspectRatio="none" style="display: block;" version="1.1" viewBox="0 0 2048 2048" width="1024">
<path d="M 0 0 L 2048 0 L 2048 2048 L 0 2048 L 0 0 z" fill="rgb(255,255,255)" transform="translate(0,0)"></path>
<path d="M 615.678 395.787 C 649.19 376.732 680.807 359.361 716.854 345.206 C 874.599 283.262 1044.85 276.131 1207.5 320.886 C 1234.35 328.378 1260.56 337.996 1285.88 349.649 C 1353.59 380.009 1412.6 420.501 1449.58 486.882 C 1467.33 518.744 1478.65 559.196 1478.17 595.726 C 1477.21 635.349 1465.97 686.67 1443.69 719.802 C 1449.58 746.816 1455.63 784.277 1455.06 811.476 C 1454.23 850.235 1445.74 872.68 1457.64 912.294 C 1465.76 939.34 1472.82 955.606 1491.87 977.652 C 1504.28 992.019 1516.85 996.36 1529.33 1008.06 C 1553.35 1030.57 1553.86 1067.76 1536.18 1094.5 C 1521.12 1117.26 1499.31 1129.64 1472.88 1135.59 C 1467.59 1136.78 1441.48 1139.34 1440.4 1140.33 L 1440.38 1140.48 C 1451.12 1143.31 1459.18 1148.27 1465.02 1158.07 C 1470.02 1166.5 1471.42 1176.58 1468.91 1186.05 C 1465.42 1199.76 1451.89 1214.02 1437.1 1213.68 C 1407.76 1235.48 1397.79 1269.59 1401.23 1304.82 C 1432.28 1316.96 1442.62 1341.42 1421.82 1369.13 C 1387.72 1435.88 1341.37 1478.91 1269.04 1503.53 C 1211.41 1523.15 1139.9 1522.41 1081.59 1505.29 C 1080.71 1531.26 1080.23 1573.88 1076.98 1598.13 C 1069.75 1593.72 1062.47 1589.4 1055.14 1585.18 C 1028.49 1567.14 1015.79 1564.64 989.971 1550.77 C 927.603 1533.62 872.59 1531.29 809.985 1550.58 C 800.142 1553.7 790.452 1557.28 780.949 1561.32 C 777.878 1562.6 768.303 1566.95 765.848 1567.67 C 769.634 1542.93 772.742 1513.76 775.523 1488.7 C 778.117 1471.49 781.083 1453.73 781.918 1436.37 C 732.465 1452.7 722.626 1444.45 679.974 1421.24 C 483.273 1314.24 341.065 1103.26 341.803 876.138 C 341.729 875.813 341.655 875.488 341.581 875.163 C 340.108 786.207 368.45 697.862 412.387 621.211 C 421.908 604.6 428.465 591.949 437.961 578.773 C 435.549 579.311 433.039 579.632 430.585 579.905 C 415.481 581.615 400.325 577.17 388.538 567.573 C 375.113 556.468 369.728 542.972 367.835 526.133 C 366.947 472.538 420.971 445.902 468.822 449.925 C 428.628 415.431 433.851 359.01 479.944 332.332 C 497.517 321.056 522.635 319.123 542.763 323.471 C 581.83 331.912 605.423 357.814 615.678 395.787 z" fill="rgb(150,87,5)" transform="translate(0,0)"></path>
<path d="M 1395.58 610.285 C 1419.12 648.003 1431.17 676.893 1443.69 719.802 C 1449.58 746.816 1455.63 784.277 1455.06 811.476 C 1454.23 850.235 1445.74 872.68 1457.64 912.294 C 1465.76 939.34 1472.82 955.606 1491.87 977.652 C 1504.28 992.019 1516.85 996.36 1529.33 1008.06 C 1553.35 1030.57 1553.86 1067.76 1536.18 1094.5 C 1521.12 1117.26 1499.31 1129.64 1472.88 1135.59 C 1467.59 1136.78 1441.48 1139.34 1440.4 1140.33 L 1440.38 1140.48 C 1451.12 1143.31 1459.18 1148.27 1465.02 1158.07 C 1470.02 1166.5 1471.42 1176.58 1468.91 1186.05 C 1465.42 1199.76 1451.89 1214.02 1437.1 1213.68 C 1407.76 1235.48 1397.79 1269.59 1401.23 1304.82 C 1432.28 1316.96 1442.62 1341.42 1421.82 1369.13 C 1387.72 1435.88 1341.37 1478.91 1269.04 1503.53 C 1211.41 1523.15 1139.9 1522.41 1081.59 1505.29 C 1080.71 1531.26 1080.23 1573.88 1076.98 1598.13 C 1069.75 1593.72 1062.47 1589.4 1055.14 1585.18 C 1028.49 1567.14 1015.79 1564.64 989.971 1550.77 C 927.603 1533.62 872.59 1531.29 809.985 1550.58 C 800.142 1553.7 790.452 1557.28 780.949 1561.32 C 777.878 1562.6 768.303 1566.95 765.848 1567.67 C 769.634 1542.93 772.742 1513.76 775.523 1488.7 C 778.117 1471.49 781.083 1453.73 781.918 1436.37 C 785.179 1434.5 791.889 1431.97 795.571 1430.33 C 836.551 1412.06 864.81 1381.68 891.474 1346.1 C 893.813 1341.85 897.681 1336.16 900.427 1332.08 C 921.614 1300.57 936.187 1266.5 951.795 1231.92 L 955.807 1221.96 C 879.221 1259.41 789.567 1229.5 740.672 1162.23 C 707.217 1115.76 693.582 1057.91 702.766 1001.4 C 724.445 871.659 885.375 780.599 1000.66 858.399 C 1026.97 876.157 1042.97 895.766 1061.2 921.271 C 1061.1 916.335 1060.67 910.873 1060.22 905.937 C 1056.38 863.956 1057.75 823.172 1060.67 781.155 C 1068.31 780.867 1075.94 780.353 1083.55 779.612 C 1205.87 766.694 1318.08 705.802 1395.58 610.285 z" fill="rgb(240,151,85)" transform="translate(0,0)"></path>
<path d="M 955.807 1221.96 C 879.221 1259.41 789.567 1229.5 740.672 1162.23 C 707.217 1115.76 693.582 1057.91 702.766 1001.4 C 724.445 871.659 885.375 780.599 1000.66 858.399 C 1026.97 876.157 1042.97 895.766 1061.2 921.271 C 1065.76 934.467 1070.11 947.372 1063.98 961.167 C 1057.43 975.891 1035.56 984.679 1020.68 978.725 C 1012.16 975.313 1010.43 956.53 1007.11 947.535 C 997.423 921.248 974.374 896.311 950.346 882.75 C 920.668 865.648 885.354 861.218 852.371 870.459 C 769.858 894.384 733.666 986.467 757.367 1065.05 C 769.693 1106.4 798.17 1141.03 836.356 1161.12 C 872.581 1180.35 915.047 1184.11 954.089 1171.55 C 964.578 1168.17 972.551 1164.32 982.335 1159.53 C 976.152 1174.57 962.916 1208.4 955.807 1221.96 z" fill="rgb(82,48,8)" transform="translate(0,0)"></path>
<path d="M 1233.45 1239.77 C 1245.38 1229.23 1263.95 1217.32 1277.01 1207.26 C 1328.33 1167.76 1372.73 1140.99 1440.38 1140.48 C 1451.12 1143.31 1459.18 1148.27 1465.02 1158.07 C 1470.02 1166.5 1471.42 1176.58 1468.91 1186.05 C 1465.42 1199.76 1451.89 1214.02 1437.1 1213.68 C 1407.76 1235.48 1397.79 1269.59 1401.23 1304.82 C 1432.28 1316.96 1442.62 1341.42 1421.82 1369.13 C 1418.26 1370.94 1415.39 1372.59 1411.52 1373.72 C 1327.87 1381.11 1269.69 1304.58 1233.45 1239.77 z" fill="rgb(150,87,5)" transform="translate(0,0)"></path>
<path d="M 1275.69 1250.15 C 1285.11 1245.24 1295.74 1241.6 1305.68 1237.86 C 1350.4 1221.01 1389.89 1215.72 1437.1 1213.68 C 1407.76 1235.48 1397.79 1269.59 1401.23 1304.82 C 1360.75 1289.95 1310.82 1276.38 1275.69 1250.15 z" fill="rgb(216,123,80)" transform="translate(0,0)"></path>
<path d="M 1411.52 1373.72 C 1415.39 1372.59 1418.26 1370.94 1421.82 1369.13 C 1387.72 1435.88 1341.37 1478.91 1269.04 1503.53 C 1211.41 1523.15 1139.9 1522.41 1081.59 1505.29 C 1080.71 1531.26 1080.23 1573.88 1076.98 1598.13 C 1069.75 1593.72 1062.47 1589.4 1055.14 1585.18 C 1028.49 1567.14 1015.79 1564.64 989.971 1550.77 C 984.756 1542.76 971.136 1530.01 964.257 1521.45 C 937.68 1488.4 912.736 1453.34 898.015 1413.24 C 1010.71 1474.01 1127.18 1503.73 1253.6 1467.78 C 1301.43 1454.18 1348.6 1430.81 1386.78 1399.1 C 1395.33 1392.01 1406.13 1383.53 1411.52 1373.72 z" fill="rgb(216,123,80)" transform="translate(0,0)"></path>
<path d="M 891.474 1346.1 C 888.914 1388.66 871.858 1424.65 840.152 1453.59 C 826.038 1466.47 794.64 1486.18 775.523 1488.7 C 778.117 1471.49 781.083 1453.73 781.918 1436.37 C 785.179 1434.5 791.889 1431.97 795.571 1430.33 C 836.551 1412.06 864.81 1381.68 891.474 1346.1 z" fill="rgb(216,123,80)" transform="translate(0,0)"></path>
<path d="M 1326.09 757.389 C 1333.87 756.362 1341.19 757.047 1348.31 760.518 C 1357.08 764.841 1363.66 772.602 1366.5 781.956 C 1369.32 791.034 1368.31 800.872 1363.69 809.183 C 1359.9 816.033 1353.81 821.327 1346.5 824.133 C 1341.22 826.179 1337.19 826.532 1331.69 826.939 C 1300.26 829.257 1265.84 842.041 1242.51 863.634 C 1233.03 872.409 1227.84 879.994 1214.94 883.761 C 1179.39 889.559 1159.75 852.303 1182.87 825.277 C 1218.75 783.349 1272.64 763.887 1326.09 757.389 z" fill="rgb(82,48,8)" transform="translate(0,0)"></path>
<path d="M 874.835 925.294 C 926.85 920.394 967.149 954.259 979.501 1003.62 C 973.941 997.293 967.593 991.702 960.612 986.985 C 919.472 959.498 874.412 972.255 847.776 1012.31 C 832.659 1041.7 835.719 1060.64 843.46 1090.7 C 771.743 1040.17 789.899 940.746 874.835 925.294 z" fill="rgb(216,123,80)" transform="translate(0,0)"></path>
<path d="M 1308.06 892.282 C 1337.99 890.963 1347.36 916.182 1345.96 941.874 C 1344.35 971.327 1354.73 1005.78 1314.9 1013.97 C 1281.75 1014.86 1274.71 990.789 1275.97 962.673 C 1277.28 933.437 1267.82 899.474 1308.06 892.282 z" fill="rgb(82,48,8)" transform="translate(0,0)"></path>
<path d="M 1536.42 1043.71 L 1537.73 1045.51 C 1538.33 1052.04 1534.74 1063.78 1532.12 1069.86 C 1523.09 1090.33 1506.34 1106.4 1485.52 1114.58 C 1450.96 1128.22 1417.11 1121.91 1403.27 1083.53 C 1401.68 1064.38 1412.65 1058.23 1428.54 1051.88 C 1419.68 1092 1455.45 1095.71 1484.51 1088.16 C 1511.63 1081.1 1523.27 1066.61 1536.42 1043.71 z" fill="rgb(216,123,80)" transform="translate(0,0)"></path>
<path d="M 341.803 876.138 L 343.023 876.18 C 343.872 886.842 344.114 907.612 344.476 919.066 C 345.225 916.689 347.184 910.07 348.184 908.161 C 351.521 901.788 342.413 886.762 345.571 882.145 C 370.822 1019.31 457.647 1149.46 571.097 1227.43 C 675.196 1298.97 834.962 1353.99 935.197 1249.05 C 939.29 1244.76 947.369 1233.92 951.795 1231.92 C 936.187 1266.5 921.614 1300.57 900.427 1332.08 C 897.681 1336.16 893.813 1341.85 891.474 1346.1 C 864.81 1381.68 836.551 1412.06 795.571 1430.33 C 791.889 1431.97 785.179 1434.5 781.918 1436.37 C 732.465 1452.7 722.626 1444.45 679.974 1421.24 C 483.273 1314.24 341.065 1103.26 341.803 876.138 z" fill="rgb(82,48,8)" transform="translate(0,0)"></path>
<path d="M 1067.63 755.934 C 1041.98 757.812 979.133 764.931 970.581 739.289 C 954.092 680.622 1014.89 687.867 1054.04 688.847 C 1159.16 691.481 1270.77 640.227 1313.35 539.394 C 1323.67 514.961 1327.68 485.535 1365.06 496.362 C 1371.49 498.224 1378.6 505.075 1381.76 510.749 C 1395.13 555.072 1436.54 581.261 1478.17 595.726 C 1477.21 635.349 1465.97 686.67 1443.69 719.802 C 1431.17 676.893 1419.12 648.003 1395.58 610.285 C 1318.08 705.802 1205.87 766.694 1083.55 779.612 C 1075.94 780.353 1068.31 780.867 1060.67 781.155 C 1061.13 773.978 1059.68 764.908 1062.52 758.478 C 1063.34 756.629 1065.04 756.732 1067.63 755.934 z" fill="rgb(82,48,8)" transform="translate(0,0)"></path>
<path d="M 1369.83 575.608 C 1378.98 586.735 1387.57 598.309 1395.58 610.285 C 1318.08 705.802 1205.87 766.694 1083.55 779.612 C 1075.94 780.353 1068.31 780.867 1060.67 781.155 C 1061.13 773.978 1059.68 764.908 1062.52 758.478 C 1063.34 756.629 1065.04 756.732 1067.63 755.934 C 1073.19 756.274 1085.61 755.003 1091.7 754.353 C 1130.98 750.324 1169.47 740.637 1205.98 725.593 C 1272.29 697.645 1342.11 643.63 1369.83 575.608 z" fill="rgb(216,123,80)" transform="translate(0,0)"></path>
<path d="M 479.944 332.332 C 481.527 337.196 475.445 348.208 474.235 354.004 C 467.552 386.015 477.962 417.441 502.728 438.885 C 514.294 449.07 531.032 458.035 544.457 465.687 C 512.955 467.985 495.992 467.729 468.822 449.925 C 428.628 415.431 433.851 359.01 479.944 332.332 z" fill="rgb(82,48,8)" transform="translate(0,0)"></path>
<path d="M 367.835 526.133 C 374.826 527.611 385.06 535.221 393.258 537.732 C 437.06 551.148 479.335 529.389 507.326 495.962 C 508.338 494.75 509.257 493.901 510.468 492.887 C 494.644 521.625 468.304 563.905 437.961 578.773 C 435.549 579.311 433.039 579.632 430.585 579.905 C 415.481 581.615 400.325 577.17 388.538 567.573 C 375.113 556.468 369.728 542.972 367.835 526.133 z" fill="rgb(82,48,8)" transform="translate(0,0)"></path>
<path d="M 765.848 1567.67 C 768.303 1566.95 777.878 1562.6 780.949 1561.32 C 790.452 1557.28 800.142 1553.7 809.985 1550.58 C 872.59 1531.29 927.603 1533.62 989.971 1550.77 C 1015.79 1564.64 1028.49 1567.14 1055.14 1585.18 C 1062.47 1589.4 1069.75 1593.72 1076.98 1598.13 C 1084.65 1602.03 1097.3 1613.13 1104.05 1619.07 C 1148.56 1658.72 1181.71 1709.52 1200.07 1766.23 C 1206.58 1786.26 1208.33 1796.92 1212.32 1816.92 L 1118.75 1817.14 C 1101.72 1816.94 1084.33 1817.12 1067.27 1817.11 L 753.242 1817.13 L 592.686 1816.83 C 596.534 1794.64 599.685 1776.35 606.647 1754.8 C 632.801 1673.78 690.067 1606.47 765.848 1567.67 z" fill="rgb(189,171,3)" transform="translate(0,0)"></path>
<path d="M 1118.75 1817.14 C 1113.29 1775.87 1079.65 1713.13 1052.65 1681.54 C 1018.26 1641.08 972.229 1613.35 918.313 1609.41 C 841.396 1603.78 774.2 1651.85 740.642 1719.05 C 737.266 1725.81 735.125 1733.85 731.165 1740.36 C 723.382 1753.17 707.998 1758.55 693.665 1756.52 C 683.008 1755.04 673.426 1749.25 667.159 1740.51 C 661.491 1732.6 659.294 1722.71 661.072 1713.14 C 667.87 1675.95 724.472 1615.5 756.4 1593.42 C 828.658 1543.45 914.33 1534.47 996.75 1561.79 C 1005.06 1564.5 1013.24 1567.61 1021.26 1571.08 C 1028.99 1574.43 1048.24 1584.39 1055.14 1585.18 C 1062.47 1589.4 1069.75 1593.72 1076.98 1598.13 C 1084.65 1602.03 1097.3 1613.13 1104.05 1619.07 C 1148.56 1658.72 1181.71 1709.52 1200.07 1766.23 C 1206.58 1786.26 1208.33 1796.92 1212.32 1816.92 L 1118.75 1817.14 z" fill="rgb(214,196,5)" transform="translate(0,0)"></path>
<path d="M 753.242 1817.13 C 761.341 1764.07 778.61 1714.07 823.189 1679.92 C 853.126 1656.98 891.245 1648.88 928.072 1655.18 C 974.379 1662.5 1004.27 1689.66 1031.68 1726.31 C 1045.91 1745.34 1066.49 1794.38 1067.27 1817.11 L 753.242 1817.13 z" fill="rgb(214,196,5)" transform="translate(0,0)"></path>
<path d="M 1595.35 1283.48 C 1701.45 1281.56 1804.99 1333.16 1832.19 1443 C 1835.58 1456.68 1835.5 1470.89 1827.26 1482.97 C 1821.78 1491.06 1813.21 1496.53 1803.56 1498.09 C 1774.97 1502.98 1759.39 1483.99 1754.74 1458.09 C 1751.65 1437.98 1740.42 1419.19 1726.57 1404.69 C 1684.12 1360.26 1622.41 1352.48 1564.1 1357.77 C 1541.52 1359.83 1515.46 1373.52 1495.81 1356.94 C 1488.96 1351.19 1484.76 1342.91 1484.17 1333.99 C 1483.47 1324 1486.5 1314.37 1493.28 1307.06 C 1510.83 1288.14 1570.19 1284.39 1595.35 1283.48 z" fill="rgb(251,197,161)" transform="translate(0,0)"></path>
<path d="M 1662.65 1307.43 C 1703.85 1305.96 1753.06 1331.16 1780.06 1362.03 C 1806.51 1392.27 1812.94 1418.47 1810.44 1457.85 C 1807.6 1452.71 1804.58 1446.19 1801.92 1440.84 C 1795.49 1428.47 1788.15 1416.59 1779.98 1405.28 C 1760.46 1378.01 1725.22 1346.48 1695.38 1330.45 C 1678.56 1321.41 1653.6 1314.57 1634.83 1311.51 C 1644.4 1309.88 1652.95 1308.41 1662.65 1307.43 z" fill="rgb(250,210,180)" transform="translate(0,0)"></path>
<path d="M 1797.39 1037.32 C 1800.95 1037.23 1804.51 1037.56 1807.99 1038.3 C 1838.34 1044.77 1837.45 1077.29 1830.36 1100.68 C 1790.35 1232.75 1648.91 1273.77 1527.24 1240.36 C 1513.44 1235.7 1496.82 1229.44 1492.77 1213.96 C 1486.82 1192.81 1498.62 1170.71 1521.64 1168.87 C 1532.4 1168.01 1545.29 1173.53 1556.07 1175.84 C 1587.04 1182.52 1619.05 1182.87 1650.16 1176.85 C 1695.96 1167.53 1744.53 1137.67 1759.59 1091.26 C 1767.83 1065.87 1763.5 1043.32 1797.39 1037.32 z" fill="rgb(251,197,161)" transform="translate(0,0)"></path>
<metadata><recraft-signature>{"signed_by": "recraft", "signature_b64": "z+3+x6jyvdNHQWJ7S5ITM2PfHZGeE9rNy4+eY/mSbtK6qTwMnTBheBwVJOKobvblxeOvtlgK9M+oraSWx7SnBg==", "signing_algo": "Ed25519", "generation_timestamp": 1779092323, "identifier": "04312e78-8506-4e1f-80a5-445d481cf35f"}</recraft-signature></metadata></svg>