<svg xmlns="http://www.w3.org/2000/svg" height="1024" preserveAspectRatio="none" style="display: block;" version="1.1" viewBox="0 0 2048 2048" width="1024">
<path d="M 0 0 L 2048 0 L 2048 2048 L 0 2048 L 0 0 z" fill="rgb(255,255,255)" transform="translate(0,0)"></path>
<path d="M 1003.24 102.567 C 1018.82 101.672 1034.44 101.943 1049.99 103.377 C 1135.69 111.962 1214.44 154.366 1268.79 221.196 C 1326.42 291.907 1349.98 375.804 1340.72 466.198 C 1353.17 468.182 1365.48 470.995 1377.56 474.619 C 1464.59 500.232 1536.82 562.862 1579.87 642.091 C 1623.54 724.321 1633.12 820.426 1606.55 909.661 C 1579.53 999.161 1518.13 1074.3 1435.81 1118.61 C 1355.48 1161.76 1267.75 1164.52 1181.79 1138.54 C 1192.78 1160.98 1202.51 1181.59 1212.03 1204.82 C 1227.05 1241.77 1239.91 1279.56 1250.56 1317.99 C 1257.08 1340.92 1271.32 1370.25 1242.94 1381.86 C 1252.77 1391.95 1262.57 1403.26 1271.02 1416.59 C 1286.65 1441.24 1291.37 1489.81 1264.33 1508.89 C 1259.81 1512.61 1252.49 1510.06 1249.05 1510.63 C 1233.74 1513.2 1240.15 1512.07 1232.98 1504.13 C 1209.53 1505.77 1228.94 1482.98 1234.55 1475.61 C 1215.1 1461.56 1211.33 1440.25 1191.89 1425.96 C 1187.95 1423.07 1181.24 1414.24 1178.11 1410.24 C 1197.22 1523.62 1222.44 1639.09 1243.27 1752.46 C 1328.39 1757.3 1544.15 1777.47 1604.77 1834.09 C 1611.54 1840.41 1617.47 1848.54 1617.52 1858.17 C 1617.56 1867.53 1612.23 1875.55 1605.71 1881.83 C 1581.3 1905.37 1542.43 1916.74 1510.28 1925.55 C 1443.01 1943.99 1372.98 1953.04 1303.67 1959.61 C 1191.23 1969.52 1078.35 1973.33 965.5 1971.05 C 850.172 1970.76 543.426 1955.73 451.516 1890.03 C 442.093 1883.3 431.987 1874.07 430.305 1862.01 C 429.122 1853.52 432.411 1845.32 437.736 1838.83 C 487.261 1778.48 719.381 1759.26 798.7 1752.87 C 809.114 1717.62 818.83 1678.37 828.4 1642.56 L 890.252 1410.39 C 881.642 1409.21 873.393 1407.45 864.889 1405.73 C 869.928 1425.67 875.045 1478.87 855.503 1492.02 C 843.277 1493.63 841.081 1466.7 840.038 1457.96 C 830.703 1476 830.243 1500.96 824.257 1510.4 C 818.92 1513.61 795.559 1513.57 792.809 1506.86 C 789.694 1499.26 782.367 1502.77 778.804 1499.75 C 740.668 1467.47 764.402 1419.17 788.681 1386.71 C 782.479 1383.03 780.595 1381.61 775.902 1376.1 C 771.713 1355.25 784.263 1333.34 791.937 1313.97 C 817.43 1249.62 848.354 1188.81 885.251 1130.27 C 865.362 1138.36 844.814 1144.71 823.834 1149.27 C 741.77 1165.58 656.584 1148.9 586.737 1102.83 C 508.774 1052.19 454.223 972.546 435.17 881.551 C 399.474 711.106 490.98 538.432 656.815 479.086 C 672.431 473.497 688.292 470.213 704.49 466.937 C 703.189 458.517 702.229 450.047 701.611 441.55 C 696.317 357.359 728.016 272.258 783.929 209.51 C 839.865 146.07 918.805 107.575 1003.24 102.567 z" fill="rgb(1,1,1)" transform="translate(0,0)"></path>
<path d="M 755.397 250.93 C 801.297 181.357 875.022 128.098 957.126 111.316 C 1038.61 94.5144 1123.43 110.806 1192.89 156.6 C 1265.92 204.472 1316.87 279.48 1334.44 365.02 C 1337.79 381.386 1339.29 395.627 1340.33 412.228 C 1341.72 414.609 1341.27 443.27 1340.41 446.551 L 1340.01 448.073 C 1339.33 454.849 1338.77 461.835 1337.54 468.52 C 1380.33 475.83 1416.8 488.842 1453.64 511.766 C 1457.27 514.025 1462.67 517.596 1466.26 519.413 C 1466.89 519.46 1467.07 519.78 1467.44 520.256 L 1469.22 521.417 C 1470.82 522.424 1473.12 523.435 1474.16 524.99 C 1476.97 527.147 1483.78 533.187 1486.44 534.216 C 1488.45 535.701 1490.69 537.307 1492.3 539.237 C 1494.35 540.666 1497.85 543.06 1499.13 545.148 C 1589.21 626.021 1626.69 727.363 1616.7 847.363 C 1616.87 848.365 1616.87 848.259 1616.42 849.188 C 1609.94 904.144 1590.46 956.766 1559.59 1002.7 C 1553.41 1012.06 1541.41 1028.7 1533.46 1037.1 C 1533.09 1037.82 1533.14 1037.71 1532.51 1038.27 C 1525.51 1046.14 1517.87 1054.48 1510.16 1061.68 C 1509.38 1062.9 1509.45 1062.78 1508.19 1063.52 C 1498.8 1072.57 1481.88 1086.38 1471.18 1093.74 C 1470.27 1094.76 1470.16 1094.71 1468.9 1095.37 C 1464.29 1098.39 1458.83 1102.18 1454.17 1104.95 C 1453.72 1105.56 1453.5 1105.55 1452.8 1105.91 L 1450.13 1107.46 C 1449.56 1108.43 1449.51 1108.27 1448.24 1108.65 C 1433.5 1116.58 1419.12 1124.36 1403.49 1130.48 C 1337.46 1156.42 1264.7 1159.75 1196.59 1139.95 C 1190.87 1138.23 1185.67 1136.56 1180.1 1134.36 C 1166.96 1113.74 1155.92 1096.38 1137.25 1079.87 C 1141.93 1070.48 1147.5 1058.16 1158.36 1055.26 C 1176.43 1050.43 1192.97 1058.56 1203.02 1037.94 C 1217.55 1008.1 1195.67 1005.18 1184.48 984.382 C 1178.23 972.771 1195.82 951.752 1187.27 938.347 C 1181.28 924.554 1155.22 909.876 1163.86 894.206 C 1176.23 871.794 1195.58 850.194 1208.99 827.948 C 1260.87 808.103 1312.43 786.739 1364.33 766.539 L 1428.75 741.194 C 1438.95 737.16 1466.22 730.413 1466.02 717.801 C 1465.85 706.52 1450.86 705.416 1442.69 708.508 C 1397.08 725.782 1350.6 740.633 1304.85 757.572 C 1285.02 764.913 1264.21 770.742 1244.67 778.703 C 1277.08 729.909 1316.2 684.351 1349.66 636.248 C 1355.07 628.474 1354.03 620.692 1345.93 615.513 C 1340.63 612.152 1334.4 618.067 1331.26 621.675 C 1309.47 646.735 1289.04 672.98 1267.83 698.518 C 1228.17 745.629 1188.88 793.049 1149.95 840.773 C 1129.71 808.056 1100.06 790.718 1062.86 782.058 C 1057.36 780.8 1051.83 779.664 1046.28 778.651 L 1045.77 752.948 L 1046.57 751.942 C 1057.54 738.372 1077.52 718.104 1089.99 704.356 L 1207.15 576.379 C 1215.69 566.709 1224.35 557.137 1233.11 547.664 C 1239.05 541.293 1256.3 525.971 1253.86 516.136 C 1250.31 501.871 1234 508.804 1227.41 516.678 C 1206.87 537.239 1186.88 557.462 1166.57 577.825 C 1125.23 618.652 1084.35 659.934 1043.92 701.664 C 1042.37 625.413 1039.51 547.242 1039.01 471.176 C 1045.41 458.534 1063.26 437.752 1072.65 425.767 L 1128.89 353.705 C 1136.71 343.799 1147.96 330.688 1154.1 320.209 C 1161.3 307.912 1144.66 294.234 1133.28 308.556 C 1102.08 347.798 1064.14 384.873 1034.08 424.663 C 1034.45 374.997 1032.76 325.442 1032.09 275.799 C 1031.98 267.292 1027.09 260.223 1018.04 260.363 C 1011.09 260.47 1006.22 263.851 1005.58 271.072 C 1004.63 281.694 1004.65 292.384 1004.32 303.041 L 1002.41 350.952 C 1000.02 408.481 996.891 469.405 997.237 526.762 C 971.267 496.642 942.511 465.817 915.617 436.205 L 884.67 402.637 C 880.59 398.148 866.847 379.861 860.7 380.144 C 847.811 380.738 843.617 395.543 853.278 404.134 C 866.696 420.331 879.253 435.307 892.018 451.035 L 993.626 575.597 C 991.923 617.232 990.47 658.877 989.265 700.529 C 988.299 728.452 986.647 757.217 986.984 785.057 C 955.834 794.878 933.065 809.655 912.085 834.645 C 847.385 764.531 784.966 691.131 720.98 620.267 C 706.986 604.769 691.82 624.979 702.989 638.647 C 712.986 650.11 722.399 661.541 731.902 673.442 C 759.23 708.146 787.016 742.485 815.255 776.452 C 761.382 759.899 708.834 742.031 655.335 724.42 L 616.407 711.325 C 606.282 707.806 599.882 702.325 588.442 707.135 C 577.363 711.792 581.304 724.655 590.239 728.181 C 617.502 738.943 644.92 749.431 672.346 759.874 L 804.333 811.129 C 812.306 814.274 845.318 826.476 850.136 829.759 C 857.974 835.1 882.481 867.368 887.697 875.859 C 886.16 881.978 882.299 902.993 880.593 906.417 C 870.923 923.133 855.237 921.348 844.644 939.685 C 836.89 948.442 845.134 973.579 841.642 980.667 C 831.288 1001.69 808.362 1006.18 816.282 1035.56 C 826.85 1074.78 856.781 1052.23 876.565 1057.92 C 896.305 1063.6 888.334 1082.82 921.335 1088.12 C 915.12 1094.17 891.163 1122.63 888.908 1123.95 C 856.585 1142.96 806.408 1151.64 769.608 1152.5 C 765.293 1153.48 757.438 1153.14 753.044 1152.45 C 736.068 1151.7 719.158 1149.85 702.421 1146.91 C 614.82 1131.4 539.571 1075.1 489.282 1003.16 C 488.243 1002.3 488.347 1002.23 487.664 1000.88 L 483.436 994.228 C 482.835 993.641 482.84 993.711 482.59 992.951 C 466.152 965.778 453.191 938.96 444.517 908.248 C 418.764 817.061 427.769 719.278 474.515 636.199 C 474.823 635.515 474.786 635.296 475.362 634.882 C 480.571 625.609 486.356 616.671 492.682 608.122 C 545.694 535.966 617.447 483.323 707.426 469.687 C 702.276 431.475 702.946 408.763 708.33 371.063 C 708.33 370.19 708.204 370.068 708.682 369.419 C 714.795 335.536 724.289 310.607 738.676 279.896 C 740.172 275.821 740.681 274.529 743.329 271.097 C 746.401 264.87 750.867 258.223 754.641 252.289 C 754.878 251.552 754.817 251.301 755.397 250.93 z" fill="rgb(3,115,78)" transform="translate(0,0)"></path>
<path d="M 1340.33 412.228 C 1341.72 414.609 1341.27 443.27 1340.41 446.551 L 1340.01 448.073 C 1339.84 445.263 1339.99 414.217 1340.33 412.228 z" fill="rgb(27,72,48)" transform="translate(0,0)"></path>
<path d="M 753.044 1152.45 C 757.83 1151.99 764.825 1151.79 769.608 1152.5 C 765.293 1153.48 757.438 1153.14 753.044 1152.45 z" fill="rgb(27,72,48)" transform="translate(0,0)"></path>
<path d="M 1492.3 539.237 C 1494.35 540.666 1497.85 543.06 1499.13 545.148 C 1496.32 544.06 1494.52 541.544 1492.3 539.237 z" fill="rgb(27,72,48)" transform="translate(0,0)"></path>
<path d="M 743.329 271.097 C 741.764 275.212 741.342 276.426 738.676 279.896 C 740.172 275.821 740.681 274.529 743.329 271.097 z" fill="rgb(27,72,48)" transform="translate(0,0)"></path>
<path d="M 1486.44 534.216 C 1488.45 535.701 1490.69 537.307 1492.3 539.237 C 1489.41 538.123 1488.6 536.639 1486.44 534.216 z" fill="rgb(27,72,48)" transform="translate(0,0)"></path>
<path d="M 1469.22 521.417 C 1470.82 522.424 1473.12 523.435 1474.16 524.99 C 1472.33 524.475 1471.83 523.978 1470.52 522.621 L 1469.22 521.417 z" fill="rgb(27,72,48)" transform="translate(0,0)"></path>
<path d="M 1010.49 1743.71 C 1018.65 1743.68 1026.4 1743.68 1034.55 1744 C 1037.8 1761.96 1039.42 1780.34 1042.51 1798.28 C 1053.77 1799.39 1069.3 1800.07 1080.74 1800.08 C 1081.16 1818.95 1073.43 1912.25 1082.29 1922.85 C 1084.74 1925.78 1089.04 1927.34 1092.72 1927.76 C 1113.66 1930.16 1138.73 1928.4 1160.04 1928.43 C 1196.99 1928.47 1234.31 1929.51 1271.22 1928.26 C 1278.79 1928.01 1287.58 1927.7 1293.08 1921.7 C 1297.23 1917.19 1297.8 1911.07 1297.19 1905.22 C 1295.65 1890.69 1285.93 1876.53 1274.42 1867.77 C 1264.61 1860.29 1252.77 1855.25 1241.06 1851.61 C 1234.06 1849.43 1217.23 1846.82 1211.88 1842.69 C 1208.01 1839.7 1208.21 1834.82 1205.42 1831.73 C 1203.8 1829.95 1187.88 1831.01 1184.74 1831.08 L 1184.65 1793.87 C 1207.12 1790.82 1225.82 1786.84 1248.02 1781.88 C 1246.77 1772.98 1245.4 1764.1 1243.9 1755.24 C 1324.77 1760.64 1552.83 1780.22 1606.02 1839.34 C 1611.36 1845.27 1615.21 1852.4 1614.69 1860.59 C 1614.1 1870.02 1606.54 1878.04 1599.58 1883.71 C 1512.31 1954.79 1197.86 1965.77 1080.55 1968.26 C 1073.86 1969.55 1045.88 1969.4 1038.56 1968.84 L 1005.07 1968.86 C 999.756 1969.27 961.648 1969.74 959.225 1968.28 C 885.758 1967.38 812.364 1963.34 739.24 1956.18 C 663.277 1949.07 585.194 1938.97 512.45 1915.1 C 489.281 1907.49 460.771 1897.58 443.556 1879.63 C 437.907 1873.74 432.355 1865.64 432.798 1857.09 C 433.263 1848.1 439.687 1840.21 446.229 1834.57 C 501.966 1786.57 661.942 1767.97 735.276 1760.71 C 756.072 1758.65 777.167 1758.35 797.877 1755.98 C 795.246 1764.71 792.753 1773.49 790.402 1782.31 C 811.454 1786.79 833.395 1791.62 854.665 1794.59 C 854.825 1806.93 854.913 1819.27 854.93 1831.61 L 843.668 1831.28 L 843.899 1848.38 C 826.428 1863.24 815.262 1881.71 813.19 1905.03 C 811.405 1925.13 822.889 1928.07 840.017 1928.15 C 871.754 1928.35 903.532 1928.41 935.27 1928.26 C 938.423 1928.25 947.195 1928.33 949.659 1927.61 C 979.216 1919.06 957.214 1881.58 952.284 1864.22 C 949.347 1853.87 952.464 1841.64 950.479 1833 L 947.282 1831.33 C 945.897 1823.39 946.94 1811.61 946.704 1803.04 C 963.226 1802.96 982.146 1802.51 998.521 1800.13 C 1002.91 1781.72 1005.99 1761.46 1010.49 1743.71 z" fill="rgb(107,174,86)" transform="translate(0,0)"></path>
<path d="M 959.225 1968.28 C 964.922 1967.73 1000.19 1968.21 1005.07 1968.86 C 999.756 1969.27 961.648 1969.74 959.225 1968.28 z" fill="rgb(27,72,48)" transform="translate(0,0)"></path>
<path d="M 1038.56 1968.84 C 1046.1 1967.97 1072.43 1967.87 1080.55 1968.26 C 1073.86 1969.55 1045.88 1969.4 1038.56 1968.84 z" fill="rgb(27,72,48)" transform="translate(0,0)"></path>
<path d="M 1155.66 1322.05 L 1157.23 1322.43 C 1159.61 1326.7 1164.86 1357.9 1166.15 1364.78 L 1183.31 1456.73 L 1223 1662.71 C 1230.16 1699.95 1239.3 1742.04 1244.59 1779.39 C 1165.24 1796.03 1130.13 1798.91 1048.88 1795.98 L 1064.57 1540.01 C 1065.36 1527.41 1072.7 1438.46 1070.72 1432.63 C 1065.65 1440.13 1044.12 1558.01 1041.09 1573.78 C 1027.1 1648.18 1010.87 1723.42 996.374 1797.96 C 927.391 1804.08 861.571 1794.81 794.262 1779.58 C 817.424 1695.88 840.022 1612.02 862.056 1528.01 L 881.252 1456.01 C 884.073 1445.16 890.037 1419.83 894.027 1410.72 C 912.089 1399.46 904.024 1393 915.171 1383.5 C 936.073 1365.7 958.305 1348.29 979.449 1330.58 C 1033.14 1339.59 1103.62 1337.83 1155.66 1322.05 z" fill="rgb(90,130,182)" transform="translate(0,0)"></path>
<path d="M 967.929 1059.88 C 971.122 1060.54 981.436 1075.21 986.437 1078.21 C 1024.97 1101.36 1075.36 1095.99 1102.97 1060.36 C 1181.92 1098.09 1217.1 1225.51 1243.08 1302.7 C 1272.43 1389.93 1254.77 1379.28 1179.06 1381.94 C 1176.04 1365.61 1171.62 1332.86 1170.53 1316.73 C 1175.42 1310.28 1181.59 1300.84 1180.76 1293.07 C 1178.91 1275.61 1150.52 1140.81 1145.29 1136.38 L 1144.43 1137.56 C 1144.71 1144.7 1152.07 1171.21 1154.11 1179.79 C 1160.43 1206.95 1166.48 1234.18 1172.27 1261.46 C 1175.13 1275.38 1181.38 1296.59 1172.73 1308.02 C 1163.15 1320.69 1128.81 1326.06 1113.23 1328.86 C 1069.32 1335.39 998.332 1335.59 954.968 1321.81 C 942.714 1317.92 938.901 1310.28 934.212 1299.24 C 935.53 1288.62 941.571 1266.52 944.236 1254.93 C 950.058 1229.5 954.925 1203.86 958.827 1178.07 C 959.288 1174.82 960.967 1165.5 960.279 1162.83 C 956.402 1168.12 955.825 1177.39 954.843 1183.72 C 944.346 1251.25 926.308 1317.08 908.618 1383 C 903.356 1402.96 897.839 1411.04 875.441 1405.05 C 847.352 1397.54 817.474 1392.01 789.792 1383.4 C 774.652 1378.69 775.598 1363.68 780.451 1351.01 C 805.419 1285.88 833.435 1222.32 868.888 1162.14 C 895.571 1116.84 919.629 1083.52 967.929 1059.88 z" fill="rgb(254,198,79)" transform="translate(0,0)"></path>
<path d="M 1015.02 262.922 C 1024.58 263.135 1027.76 265.215 1028.67 275.19 C 1029.73 286.699 1029.48 298.796 1029.61 310.335 L 1030.87 379.72 C 1030.94 387.83 1029.63 424.782 1033.63 428.065 C 1040.35 422.402 1045.79 414.458 1051.57 407.816 C 1063.43 394.211 1133.89 309.684 1141.55 306.125 C 1144.04 304.968 1145.84 305.001 1148.44 305.88 C 1152.3 309.13 1154.71 314.007 1151.72 318.824 C 1144.47 330.519 1135.23 341.411 1126.7 352.236 L 1065.93 429.496 C 1057.5 440.254 1042.08 457.989 1035.95 469.329 C 1036.1 495.754 1037.39 522.122 1037.95 548.546 L 1041.14 707.459 C 1055.33 694.936 1075.5 673.134 1089.45 659.162 L 1184.47 564.08 C 1199.31 549.144 1214.31 533.5 1229.68 519.054 C 1234.35 514.664 1242.37 509.296 1248.97 512.267 C 1258.54 521.935 1235.56 540.692 1228.69 548.312 C 1213.4 565.55 1197.9 582.589 1182.17 599.424 C 1136.48 649.429 1089.02 702.173 1042.75 751.122 L 1043.84 779.155 C 1023.45 777.052 1009.62 779.18 989.892 784.143 C 989.669 735.387 993.244 685.67 994.262 636.847 C 994.679 616.835 996.791 594.176 996.32 574.539 C 985.587 559.675 969.793 541.458 957.871 526.859 C 933.615 497.511 909.538 468.014 885.643 438.372 C 875.898 426.362 865.422 415.052 855.969 402.859 C 852.39 398.243 848.949 390.237 854.002 385.336 C 858.425 381.075 862.633 383.098 866.39 386.837 C 874.671 395.078 881.817 404.379 889.965 412.763 C 927.145 451.022 961.317 495.541 999.839 532.167 C 1000.78 460.905 1003.12 389.669 1006.88 318.499 C 1007.66 302.66 1007.21 285.262 1008.5 269.447 C 1008.71 266.919 1012.8 264.462 1015.02 262.922 z" fill="rgb(3,115,78)" transform="translate(0,0)"></path>
<path d="M 1019.19 781.354 C 1036.8 779.246 1055.27 782.896 1072.31 786.966 C 1063.79 843.003 1031.96 893.112 969.422 900.071 C 961.633 900.938 953.772 898.464 946.351 898.84 L 945.53 900.907 C 947.916 903.215 949.206 902.873 952.942 903.837 C 953.812 906.713 953.042 921.641 952.965 925.532 C 944.413 922.137 938.962 920.035 929.467 921.321 C 920.908 922.522 913.244 927.255 908.337 934.37 C 897.241 950.349 902.135 975.001 918.988 985.029 C 930.009 991.588 938.852 990.707 950.611 988.028 C 966.006 1007.79 977.697 1017.13 999.785 1028.87 L 999.549 1046.23 C 985.071 1049.31 973.137 1054.47 959.748 1060.38 C 943.428 1068.49 935.93 1075.63 921.405 1085.78 C 892.831 1079.42 897.765 1063.13 878.46 1055.34 C 861.106 1048.33 827.296 1072.24 819.467 1035.15 C 818.264 1029.42 818.37 1023.49 819.778 1017.81 C 824.59 997.897 836.006 998.563 844.748 984.085 C 846.705 969.626 842.204 955.735 846.483 942.831 C 851.508 927.675 871.045 923.791 880.103 913.413 C 887.378 903.366 886.134 889.498 890.395 878.036 C 911.599 821.005 960.689 788.606 1019.19 781.354 z" fill="rgb(80,53,45)" transform="translate(0,0)"></path>
<path d="M 1072.46 807.744 C 1077.22 815.909 1078.09 824.39 1086.47 835.415 C 1101.48 855.162 1114.7 862.035 1138.45 866.235 C 1147.82 905.76 1158.77 945.282 1137.34 983.822 C 1124.82 1006.51 1103.73 1023.23 1078.79 1030.24 C 1047.21 1039.2 1017.15 1034.43 988.918 1018.54 C 972.302 1008.39 963.217 999.816 951.915 984.117 C 943.103 987.949 932.704 988.768 924.12 984.453 C 891.521 968.069 903.936 915.648 943.046 926.293 C 947.431 927.487 951.99 930.154 955.973 932.269 C 956.109 922.339 956.26 914.093 957.147 904.143 C 1019.08 903.333 1054.55 863.564 1072.46 807.744 z" fill="rgb(191,137,115)" transform="translate(0,0)"></path>
<path d="M 1031.91 893.641 C 1038.15 890.96 1045.39 893.858 1048.05 900.109 C 1050.72 906.36 1047.8 913.587 1041.55 916.237 C 1035.31 918.877 1028.11 915.973 1025.46 909.744 C 1022.8 903.515 1025.69 896.312 1031.91 893.641 z" fill="rgb(1,1,1)" transform="translate(0,0)"></path>
<path d="M 1102.36 884.161 C 1106.28 882.303 1110.9 882.792 1114.34 885.429 C 1117.78 888.065 1119.46 892.406 1118.68 896.671 C 1117.91 900.935 1114.81 904.408 1110.66 905.664 C 1104.87 907.418 1098.71 904.41 1096.53 898.767 C 1094.35 893.123 1096.89 886.754 1102.36 884.161 z" fill="rgb(1,1,1)" transform="translate(0,0)"></path>
<path d="M 1049.9 952.809 C 1055.05 956.256 1054.89 962.982 1062.22 967.742 C 1067.37 971.082 1072.34 972.4 1078.14 971.533 C 1087.84 970.249 1094.52 963.484 1098.57 954.99 C 1099.44 953.165 1101.19 955.836 1101.64 956.365 C 1087.16 991.306 1045.71 970.246 1049.9 952.809 z" fill="rgb(1,1,1)" transform="translate(0,0)"></path>
<path d="M 1081.69 902.693 C 1090.41 904.749 1103.15 926.844 1106.17 935.461 C 1099.48 939.667 1094.98 941.4 1088.47 945.169 C 1077.54 942.971 1101.17 935.653 1103.11 934.761 C 1095.67 918.787 1083.6 911.102 1081.69 902.693 z" fill="rgb(1,1,1)" transform="translate(0,0)"></path>
<path d="M 931.149 939.08 C 931.386 939.066 943.342 938.142 940.797 941.695 C 937.102 943.443 928.413 940.771 925.658 949.946 C 922.318 961.07 928.981 965.402 938.463 968.081 C 939.678 968.251 940.344 968.165 940.972 969.29 C 940.105 976.109 916.331 963.807 922.101 950.498 C 925.315 943.086 923.108 944.692 931.149 939.08 z" fill="rgb(1,1,1)" transform="translate(0,0)"></path>
<path d="M 707.991 617.573 L 708.872 617.579 C 711.936 617.631 714.6 617.534 716.78 619.996 C 769.137 679.109 821.789 738.042 874.084 797.239 C 885.949 810.671 897.896 824.076 910.292 836.943 C 901.015 846.492 894.669 860.427 889.113 872.407 C 877.336 856.79 865.179 841.464 852.652 826.443 C 802.763 808.797 749.551 786.367 699.303 767.352 C 683.345 760.755 590.889 727.78 586.712 722.27 C 585.264 720.36 584.419 717.177 585.029 714.765 C 585.652 712.306 586.797 710.873 589.092 709.799 C 593.593 707.691 600.23 709.139 604.774 710.32 C 623.392 715.16 641.461 723.318 659.8 729.152 C 692.478 739.547 724.854 750.742 757.433 761.449 C 779.594 768.732 801.968 775.341 824.015 782.97 C 816.367 774.881 805.313 760.201 797.874 751.065 C 780.051 729.49 762.494 707.696 745.206 685.689 C 731.282 668.035 716.729 650.811 703.33 632.788 C 698.569 626.385 703.702 621.691 707.991 617.573 z" fill="rgb(3,115,78)" transform="translate(0,0)"></path>
<path d="M 1340.14 617.626 C 1349.35 618.549 1352.39 625.884 1347.74 633.288 C 1338.9 647.355 1328.03 660.577 1317.97 673.826 C 1301.52 695.478 1285.24 717.267 1269.14 739.19 C 1258.73 753.353 1246.97 768.717 1238 783.691 C 1264.06 773.495 1293.62 764.605 1320.38 755.119 L 1406.52 724.839 C 1419.65 720.137 1439.66 711.279 1453.69 709.04 C 1456.52 708.59 1459.69 710.891 1461.57 713.149 C 1466.8 728.659 1431.98 736.726 1420.66 741.21 C 1394.73 751.614 1368.75 761.853 1342.69 771.925 L 1207.42 825.394 C 1192.59 845.255 1178.52 867.674 1162.97 888.278 C 1162.68 867.429 1161.4 861.309 1151.62 843.262 C 1163.01 828.373 1176.9 812.752 1188.99 798.199 L 1268.81 702.197 L 1315.79 645.121 C 1323.11 636.402 1331.8 625.007 1340.14 617.626 z" fill="rgb(3,115,78)" transform="translate(0,0)"></path>
<path d="M 1082.19 1834.47 C 1121.09 1832.8 1162.37 1835.61 1201.47 1834.77 C 1205.28 1834.69 1207.2 1844.96 1211.78 1846.37 C 1244.29 1856.35 1284.12 1863.89 1293.71 1902.29 C 1223.31 1902.47 1152 1901.68 1081.81 1902.45 C 1081.67 1879.79 1081.8 1857.13 1082.19 1834.47 z" fill="rgb(193,141,93)" transform="translate(0,0)"></path>
<path d="M 1155.34 864.473 L 1156.18 864.498 C 1160.99 871.745 1157.71 900.475 1160.46 908.065 C 1165.69 922.477 1183.21 928.141 1185.89 945.465 C 1188.49 956.974 1176.36 972.688 1181.28 983.761 C 1190.58 1004.64 1214.35 1009.23 1199.82 1037.02 C 1189.54 1056.69 1174.13 1047.38 1156.87 1052.7 C 1144.97 1056.37 1139.8 1067.97 1134.96 1078.42 L 1126.46 1071.91 C 1107.66 1058.14 1093.35 1049.8 1070.43 1046.01 L 1072.07 1035.05 C 1072.85 1034.89 1073.63 1034.72 1074.41 1034.54 C 1118.74 1024.25 1148.62 988.239 1152.51 942.997 C 1154.84 915.946 1148.51 892.08 1142.43 865.993 L 1155.34 864.473 z" fill="rgb(80,53,45)" transform="translate(0,0)"></path>
<path d="M 791.893 1387.8 C 813.298 1392.19 839.642 1399.4 861.213 1404.67 C 861.99 1407.25 862.672 1409.86 863.258 1412.5 C 866.068 1425.6 870.978 1483.66 853.549 1487.32 C 843.808 1483.41 843.314 1453.89 842.438 1444.34 C 837.158 1456 833.326 1466.72 829.483 1478.91 C 826.743 1487.6 826.276 1506.88 818.032 1510.11 C 796.725 1508.37 813.448 1459.05 814.651 1447.79 L 813.861 1447.85 C 807.1 1459.41 805.645 1470.27 804.121 1483.35 C 804.127 1494.55 805.784 1496.18 806.716 1506.5 C 804.66 1509.24 799.722 1509.79 797.656 1507.6 C 786.193 1495.41 790.986 1472.1 793.214 1457.18 C 793.933 1452.36 796.871 1447.85 796.399 1443.35 L 794.872 1443.13 C 785.475 1449.75 788.969 1490.54 785.958 1498.34 C 770.336 1500.64 772.773 1472.61 773.273 1463.91 C 773.636 1457.61 780.183 1441.51 778.177 1438.13 C 769.124 1446.04 769.187 1475.01 769.973 1486.26 C 765.458 1478.45 762.791 1473.43 761.975 1464 C 759.817 1439.07 776.466 1406.1 791.893 1387.8 z" fill="rgb(191,137,115)" transform="translate(0,0)"></path>
<path d="M 881.74 1836.35 C 926.87 1833.76 952.859 1859.88 960.997 1902.71 C 940.232 1902.05 918.35 1902.4 897.5 1902.43 L 816.684 1902.44 C 824.178 1867.26 844.211 1841.08 881.74 1836.35 z" fill="rgb(193,141,93)" transform="translate(0,0)"></path>
<path d="M 1249.56 1467.73 C 1248.22 1458.69 1245.64 1437.29 1237.49 1432.06 C 1238.21 1442.19 1248.5 1458.85 1244.92 1471.22 C 1243.68 1472.61 1242.13 1474.42 1240.21 1473.84 C 1220.72 1467.92 1204.7 1435.09 1208.25 1415.77 C 1210.02 1404.68 1216.77 1393.38 1225.86 1386.45 C 1237.14 1377.87 1240.86 1384.58 1248.56 1392.26 C 1272.58 1416.23 1288.17 1449.94 1277.77 1483.92 C 1275.14 1492.49 1266.71 1509.84 1255.98 1508.75 C 1254.84 1507.34 1253.93 1506.8 1254.56 1504.5 C 1258.67 1489.5 1271.92 1473.4 1272.56 1457 L 1271.62 1455.96 C 1267.83 1458.43 1256.96 1510.46 1239.65 1508.61 L 1237.5 1507.32 C 1236.92 1496.43 1260.51 1471.86 1259.19 1454.4 L 1258.16 1453.78 C 1255.33 1459.46 1254.84 1464.55 1251.84 1470.89 C 1250.62 1469.47 1250.38 1469.31 1249.56 1467.73 z" fill="rgb(191,137,115)" transform="translate(0,0)"></path>
<path d="M 1003.19 1029.71 C 1027.01 1038.04 1044.4 1039.19 1069.25 1036.58 C 1068.98 1040.47 1068.31 1044.96 1067.81 1048.88 C 1082.38 1051.73 1087.48 1052.38 1100.84 1058.99 C 1091.72 1070.82 1079.65 1078.75 1065.95 1084.27 C 1032.03 1093.43 992.982 1090.32 972.571 1058.04 C 984.276 1053.2 990.628 1051.37 1003.12 1049.34 L 1003.19 1029.71 z" fill="rgb(191,137,115)" transform="translate(0,0)"></path>
<path d="M 1081.41 1905.32 C 1126.1 1905.18 1170.79 1905.28 1215.48 1905.63 C 1237.31 1905.67 1271.96 1904.65 1292.92 1906.26 L 1294.2 1907.8 C 1295.04 1912.91 1292.52 1917.47 1289.75 1921.56 C 1281.7 1926.89 1253.42 1925.16 1242.52 1925.17 L 1177.42 1925.22 L 1123.97 1925.21 C 1113.59 1925.2 1103.27 1925.44 1092.92 1924.56 C 1081.91 1923.62 1081.59 1914.02 1081.41 1905.32 z" fill="rgb(193,141,93)" transform="translate(0,0)"></path>
<path d="M 1180.79 1794.48 C 1181.77 1795.49 1181.67 1795.78 1181.67 1797.39 L 1181.74 1831.1 L 1084.25 1830.94 C 1083.65 1827.52 1083.94 1804.88 1083.97 1800.41 C 1116.32 1801.45 1148.71 1797.91 1180.79 1794.48 z" fill="rgb(191,137,115)" transform="translate(0,0)"></path>
<path d="M 1073.97 788.408 C 1111.26 796.41 1142.73 827.039 1156.44 861.888 L 1155.21 862.051 C 1109.93 868.325 1075.66 832.219 1073.97 788.408 z" fill="rgb(80,53,45)" transform="translate(0,0)"></path>
<path d="M 858.119 1795.09 C 885.44 1799.09 916.017 1802.84 943.591 1803.1 C 943.591 1812.79 943.697 1822.49 943.909 1832.18 C 916.173 1831.54 886.129 1831.83 858.308 1831.99 C 858.123 1819.69 858.06 1807.39 858.119 1795.09 z" fill="rgb(191,137,115)" transform="translate(0,0)"></path>
<path d="M 816.148 1905.79 C 852.693 1905.18 889.528 1906.18 926.1 1905.79 C 937.148 1905.67 948.855 1905.51 959.84 1906.32 C 963.869 1910.84 959.41 1916.92 956.457 1920.83 C 953.488 1922.88 951.183 1924.27 947.498 1924.47 C 928.432 1925.48 908.705 1925.07 889.572 1925.11 C 869.256 1924.85 848.795 1925.61 828.504 1924.63 C 818.055 1924.13 816.608 1913.9 816.148 1905.79 z" fill="rgb(193,141,93)" transform="translate(0,0)"></path>
<path d="M 1024.38 1671.98 C 1025.66 1672.34 1025.73 1672.34 1026.9 1672.9 C 1029.82 1695.06 1032.83 1718.66 1034.49 1740.9 L 1010.73 1741.15 C 1013.35 1729.24 1015.45 1716.57 1017.76 1704.49 L 1018.82 1698.99 L 1019.89 1693.49 C 1021.29 1686.35 1022.91 1679.13 1024.38 1671.98 z" fill="rgb(255,255,255)" transform="translate(0,0)"></path>
<path d="M 914.965 1834.99 C 925.907 1835.65 936.841 1835.33 947.791 1835.56 L 948.035 1861.14 C 939.739 1851.27 927.477 1840.47 914.754 1837.17 L 914.965 1834.99 z" fill="rgb(193,141,93)" transform="translate(0,0)"></path>
<path d="M 1247.57 1474.2 L 1249.28 1476.27 C 1245.94 1482.47 1243.36 1487.66 1239.12 1493.41 C 1236.77 1496.6 1231.66 1505.01 1226.59 1500.45 C 1220.48 1494.37 1232.29 1484.52 1235.11 1480.02 C 1238.33 1474.91 1240.07 1478.86 1246.38 1474.96 L 1247.57 1474.2 z" fill="rgb(191,137,115)" transform="translate(0,0)"></path>
<path d="M 860.991 1834.95 C 868.563 1834.63 869.692 1834.56 862.342 1838.2 C 858.595 1839.11 850.073 1844.21 846.504 1846.28 C 846.305 1842.36 846.231 1838.93 846.43 1835 C 851.284 1835.03 856.137 1835.01 860.991 1834.95 z" fill="rgb(193,141,93)" transform="translate(0,0)"></path>
<path d="M 1249.56 1467.73 C 1250.38 1469.31 1250.62 1469.47 1251.84 1470.89 L 1251.24 1472.28 C 1250.67 1473.65 1249.99 1474.96 1249.28 1476.27 L 1247.57 1474.2 C 1248.51 1471.78 1249.04 1470.3 1249.56 1467.73 z" fill="rgb(193,141,93)" transform="translate(0,0)"></path>
<path d="M 1025.77 1666.2 C 1025.97 1665.64 1026.08 1664.96 1026.52 1664.56 C 1026.77 1665.06 1026.64 1666.65 1026.64 1667.24 C 1026.86 1669.56 1026.92 1670.58 1026.9 1672.9 C 1025.73 1672.34 1025.66 1672.34 1024.38 1671.98 C 1024.55 1669.65 1025.06 1668.49 1025.77 1666.2 z" fill="rgb(196,189,193)" transform="translate(0,0)"></path>
<path d="M 1025.77 1666.2 C 1025.97 1665.64 1026.08 1664.96 1026.52 1664.56 C 1026.77 1665.06 1026.64 1666.65 1026.64 1667.24 C 1026.17 1666.81 1025.98 1666.74 1025.77 1666.2 z" fill="rgb(119,111,110)" transform="translate(0,0)"></path>
<path d="M 914.754 1837.17 C 913.812 1836.81 911.125 1836.1 910.587 1835.33 C 910.615 1835.01 910.553 1835.18 910.846 1834.82 C 912.081 1834.5 913.786 1834.39 914.965 1834.99 L 914.754 1837.17 z" fill="rgb(80,53,45)" transform="translate(0,0)"></path>
<path d="M 547.18 102.798 C 610.501 95.0555 668.121 140.08 675.918 203.394 C 683.716 266.708 638.741 324.367 575.434 332.219 C 512.049 340.081 454.305 295.039 446.498 231.648 C 438.691 168.257 483.782 110.551 547.18 102.798 z" fill="rgb(1,1,1)" transform="translate(0,0)"></path>
<path d="M 547.291 105.677 C 609.179 97.9456 665.571 141.968 673.09 203.882 C 680.608 265.796 636.391 322.036 574.452 329.341 C 512.813 336.611 456.906 292.656 449.424 231.043 C 441.942 169.43 485.704 113.371 547.291 105.677 z" fill="rgb(254,198,79)" transform="translate(0,0)"></path>
<metadata><recraft-signature>{"signed_by": "recraft", "signature_b64": "X31c0C+FpmUR3D7YV5vy2mt1XdEpWrHCYZg0ZkAO0ZW+9IsJ7C2O6y0xhYj/y3PzVC3SEQmKYLJ4DA1OMIQXCA==", "signing_algo": "Ed25519", "generation_timestamp": 1779091947, "identifier": "35bf056f-b2af-4d5c-b21b-2d52f203a3d5"}</recraft-signature></metadata></svg>