<svg xmlns="http://www.w3.org/2000/svg" height="1216" preserveAspectRatio="none" style="display: block;" version="1.1" viewBox="0 0 1509 2048" width="896">
<path d="M 0 0 L 1509 0 L 1509 2048 L 0 2048 L 0 0 z" fill="rgb(255,255,255)" transform="translate(0,0)"></path>
<path d="M 735.275 440.006 C 760.747 396.645 802.498 365.269 851.232 352.862 C 900.218 339.935 953.315 349.849 996.469 375.665 C 1097.72 436.235 1141.83 562.836 1121.23 675.974 C 1119.03 688.057 1114.79 699.624 1112.51 711.14 L 1111.4 713.573 C 1123.54 761.56 1130.25 799.03 1125.79 849.357 C 1201.57 890.279 1258.93 984.778 1213 1069.01 C 1206.53 1080.89 1198.25 1091.58 1189.82 1102.12 C 1169.02 1124.86 1149.02 1147.63 1149.97 1180.62 C 1150.77 1208.19 1172.05 1232.94 1200.76 1231.04 C 1212.96 1230.3 1224.32 1224.6 1232.2 1215.26 C 1245.81 1199.44 1251.57 1173.14 1232.92 1158.66 L 1235.45 1157.43 C 1267.82 1177.28 1263.12 1227.28 1245.12 1255.12 C 1243.09 1258.27 1237.76 1266.14 1234.83 1268.34 C 1226.52 1278.95 1211.49 1290.27 1199.37 1295.97 C 1133.87 1326.8 1052.89 1299.22 1021.07 1234.77 C 971.551 1278.5 918.874 1310.52 853.744 1325.87 C 853.732 1348.44 851.234 1373.09 868.535 1390.11 C 886.925 1408.21 912.587 1399.84 938.542 1404.25 C 1014.21 1417.13 1085.91 1457.93 1125.16 1525.3 C 1096.25 1547.69 1073.68 1564.1 1041.45 1582.58 C 933.637 1644.97 808.554 1670.88 684.826 1656.43 C 577.126 1642.84 468.325 1593.79 384.313 1525.35 C 421.313 1465.79 480.853 1423.75 549.361 1408.81 C 563.064 1405.69 571.875 1404.36 585.478 1402.92 C 609.784 1400.34 629.799 1407.77 647.185 1387.74 C 648.856 1385.27 650.609 1382.86 652.439 1380.51 C 661.459 1360.69 660.37 1348.01 660.049 1326.66 C 624.168 1319.87 589.459 1307.92 557.003 1291.19 C 476.615 1249.55 425.174 1180.75 398.01 1095.58 C 386.415 1097.96 374.465 1098.03 362.843 1095.79 C 337.789 1090.83 317.858 1075.63 304.03 1054.49 C 290.257 1033.21 285.399 1007.37 290.503 982.546 C 298.678 943.726 331.454 919.499 371.023 928.743 C 368.424 916.356 366.596 905.061 364.676 892.534 C 362.925 878.146 361.957 863.674 361.777 849.181 C 359.386 737.36 401.915 629.246 479.852 549.024 C 547.192 480.288 639.055 441.08 735.275 440.006 z" fill="rgb(219,159,138)" transform="translate(0,0)"></path>
<path d="M 735.275 440.006 C 760.747 396.645 802.498 365.269 851.232 352.862 C 900.218 339.935 953.315 349.849 996.469 375.665 C 1097.72 436.235 1141.83 562.836 1121.23 675.974 C 1119.03 688.057 1114.79 699.624 1112.51 711.14 L 1111.4 713.573 C 1123.54 761.56 1130.25 799.03 1125.79 849.357 L 1124.09 849.045 C 1125.05 847.623 1113.64 889.912 1113.43 890.984 L 1114.73 893.268 C 1112 894.456 1105.3 906.844 1102.78 910.488 C 1091.89 926.242 1070.76 934.796 1072.08 955.897 C 1079.21 960.518 1078.15 960.552 1086.96 963.59 C 1108.51 969.486 1120.52 998.219 1104.44 1014.38 C 1102.31 1014.5 1100.97 1015.88 1100.08 1015.74 C 1099.34 1015.05 1099.19 1010.48 1099 1009.13 C 1098.82 1007.06 1099.43 999.143 1099.57 996.642 C 1099.87 997.117 1093.53 985.901 1093.89 986.649 C 1076.46 980.998 1055.16 982.414 1047.14 962.202 C 1046.88 957.544 1046.57 944.727 1045.49 940.844 C 1046.65 934.584 1051.25 924.987 1056.12 920.701 C 1058.7 917.374 1063.17 912.465 1066.48 909.85 C 1074.67 899.021 1073.05 894.772 1071.71 881.644 C 1038.84 864.627 1015.02 849.249 996.24 815.637 C 977.996 782.978 973.001 749.103 972.082 712.256 C 971.458 710.319 970.848 708.378 970.252 706.432 C 958.278 755.656 934.979 796.138 890.943 823.698 C 876.232 832.905 848.421 843.972 831.077 842.828 C 827.231 840.111 825.866 841.509 824.388 840.458 C 823.805 839.074 830.266 836.159 831.316 835.466 C 834.163 833.423 838.546 831.469 840.985 828.907 C 843.233 826.545 849.107 824.218 847.917 820.835 C 849.955 818.244 852.139 816.318 854.521 814.053 C 854.964 813.302 854.856 813.398 855.429 812.818 C 887.114 773.644 897.192 731.124 903.517 681.824 C 902.744 679.941 902.489 679.43 901.459 677.681 C 883.69 739.897 847.561 787.843 790.766 819.786 C 751.283 841.991 689.519 855.513 644.933 845.712 C 646.434 839.907 646.024 842.669 649.96 838.286 C 656.367 833.675 672.355 826.259 680.418 821.309 C 681.915 819.779 684.046 818.491 685.844 817.238 L 687.552 815.479 C 687.948 815.247 688.345 815.016 688.742 814.784 C 691.855 811.404 695.243 808.526 698.672 805.47 L 699.43 804.77 C 741.927 759.128 757.059 715.474 768.534 655.329 L 767.028 653.92 C 762.751 667.649 759.078 679.887 753.167 692.966 C 730.07 743.271 691.05 784.57 642.136 810.483 C 606.982 829.021 551.895 844.503 513.032 832.572 C 514.446 826.251 514.952 830.316 517.705 825.442 C 520.177 823.628 527.072 820.616 529.98 819.4 C 532.814 817.589 537.289 814.758 540.28 813.33 C 598.39 770.309 627.327 719.108 642.062 649.084 L 640.841 649.375 C 628.836 684.151 605.391 732.892 577.233 757.584 C 576.546 758.471 576.377 758.574 575.527 759.318 C 573.067 762.089 571.316 764.308 568.338 766.553 C 568.084 766.822 567.831 767.091 567.577 767.36 C 563.159 771.672 559.895 774.843 555.07 778.652 C 551.873 781.499 549.705 783.276 546.308 785.861 C 544.635 787.518 544.106 788.271 542.101 789.519 C 533.163 791.581 516.042 806.908 506.782 811.589 C 476.302 826.996 447.021 830.419 422.691 856.785 C 402.861 878.275 395.211 897.113 387.166 924.695 C 386.306 927.645 386.561 931.545 384.988 933.557 C 370.019 933.226 372.234 922.536 369.839 912.149 C 366.302 896.811 366.368 894.566 372.443 880.341 C 378.876 865.28 384.089 852.908 397.532 842.3 C 431.892 812.414 475.881 819.794 513.955 800.883 C 518.954 798.4 524.167 797.187 528.616 793.624 L 528.427 792.636 C 526.492 793.426 524.954 794.07 523.188 795.267 C 516.012 800.129 507.753 801.768 499.818 804.688 C 463.748 817.961 424.81 814.36 395.076 842.458 C 387.518 849.6 384.63 852.907 379.146 861.324 C 374.021 869.194 369.509 887.734 364.676 892.534 C 362.925 878.146 361.957 863.674 361.777 849.181 C 359.386 737.36 401.915 629.246 479.852 549.024 C 547.192 480.288 639.055 441.08 735.275 440.006 z" fill="rgb(79,60,52)" transform="translate(0,0)"></path>
<path d="M 735.275 440.006 C 760.747 396.645 802.498 365.269 851.232 352.862 C 900.218 339.935 953.315 349.849 996.469 375.665 C 1097.72 436.235 1141.83 562.836 1121.23 675.974 C 1119.03 688.057 1114.79 699.624 1112.51 711.14 C 1106.36 703.037 1105.6 697.487 1102.14 688.144 C 1100.39 683.264 1098.51 678.429 1096.51 673.644 L 1094.65 674.371 C 1093.32 671.063 1091.94 667.776 1090.51 664.51 C 1039.97 551.942 937.515 471.256 816.236 448.521 C 801.632 445.64 787.055 444.805 772.474 443.151 C 764.984 442.302 740.832 442.646 735.275 440.006 z" fill="rgb(79,60,52)" transform="translate(0,0)"></path>
<path d="M 735.275 440.006 C 745.237 437.151 751.452 428.128 759.83 423.292 C 803.685 397.981 848.019 414.136 870.724 456.89 C 893.74 450.64 913.447 451.298 936.362 456.955 C 1015.67 476.531 1066.9 548.308 1087.48 623.739 C 1091.84 639.716 1094.44 657.232 1096.51 673.644 L 1094.65 674.371 C 1093.32 671.063 1091.94 667.776 1090.51 664.51 C 1039.97 551.942 937.515 471.256 816.236 448.521 C 801.632 445.64 787.055 444.805 772.474 443.151 C 764.984 442.302 740.832 442.646 735.275 440.006 z" fill="rgb(40,31,29)" transform="translate(0,0)"></path>
<path d="M 971.747 702.173 L 970.554 701.055 C 971.557 690.463 973.387 680.022 974.264 669.11 C 974.844 661.893 974.903 645.465 976.402 639.84 C 978.21 648.731 976.528 668.201 975.759 677.016 C 975.135 684.179 973.113 724.088 974.518 729.278 C 978.851 745.276 989.027 774.447 997.102 788.752 C 1002.63 798.524 1009.46 807.499 1017.41 815.431 C 1033.04 830.767 1073.25 857.536 1071.71 881.644 C 1038.84 864.627 1015.02 849.249 996.24 815.637 C 977.996 782.978 973.001 749.103 972.082 712.256 C 971.458 710.319 970.848 708.378 970.252 706.432 C 970.529 704.125 970.638 704.18 971.747 702.173 z" fill="rgb(40,31,29)" transform="translate(0,0)"></path>
<path d="M 971.747 702.173 C 972.039 705.956 972.095 708.461 972.082 712.256 C 971.458 710.319 970.848 708.378 970.252 706.432 C 970.529 704.125 970.638 704.18 971.747 702.173 z" fill="rgb(196,133,112)" transform="translate(0,0)"></path>
<path d="M 1096.51 673.644 C 1098.51 678.429 1100.39 683.264 1102.14 688.144 C 1105.6 697.487 1106.36 703.037 1112.51 711.14 L 1111.4 713.573 C 1111.12 713.87 1110.85 714.168 1110.57 714.466 C 1104.65 701.975 1099.82 687.492 1094.65 674.371 L 1096.51 673.644 z" fill="rgb(40,31,29)" transform="translate(0,0)"></path>
<path d="M 1072.08 955.897 C 1079.21 960.518 1078.15 960.552 1086.96 963.59 C 1081.85 966.583 1071.85 959.639 1072.08 955.897 z" fill="rgb(40,31,29)" transform="translate(0,0)"></path>
<path d="M 1093.89 986.649 C 1097.86 986.163 1101.94 993.763 1099.57 996.642 C 1099.87 997.117 1093.53 985.901 1093.89 986.649 z" fill="rgb(40,31,29)" transform="translate(0,0)"></path>
<path d="M 901.459 677.681 C 902.503 671.921 903.397 669.193 905.594 663.875 C 905.247 667.229 904.37 678.825 903.517 681.824 C 902.744 679.941 902.489 679.43 901.459 677.681 z" fill="rgb(196,133,112)" transform="translate(0,0)"></path>
<path d="M 1066.48 909.85 C 1068.85 912.48 1058.51 919.635 1056.12 920.701 C 1058.7 917.374 1063.17 912.465 1066.48 909.85 z" fill="rgb(40,31,29)" transform="translate(0,0)"></path>
<path d="M 546.308 785.861 C 547.37 782.812 551.773 776.031 555.07 778.652 C 551.873 781.499 549.705 783.276 546.308 785.861 z" fill="rgb(40,31,29)" transform="translate(0,0)"></path>
<path d="M 540.28 813.33 C 543.346 816.219 532.174 819.064 529.98 819.4 C 532.814 817.589 537.289 814.758 540.28 813.33 z" fill="rgb(40,31,29)" transform="translate(0,0)"></path>
<path d="M 685.844 817.238 C 684.902 819.018 682.768 823.692 680.418 821.309 C 681.915 819.779 684.046 818.491 685.844 817.238 z" fill="rgb(40,31,29)" transform="translate(0,0)"></path>
<path d="M 575.527 759.318 C 573.803 757.432 575.394 755.957 577.233 757.584 C 576.546 758.471 576.377 758.574 575.527 759.318 z" fill="rgb(40,31,29)" transform="translate(0,0)"></path>
<path d="M 767.028 653.92 C 767.838 647.332 769.136 650.261 768.534 655.329 L 767.028 653.92 z" fill="rgb(162,111,94)" transform="translate(0,0)"></path>
<path d="M 640.841 649.375 C 641.046 648.147 641.155 644.967 642.44 644.359 C 643.512 644.93 642.313 648.223 642.062 649.084 L 640.841 649.375 z" fill="rgb(132,92,78)" transform="translate(0,0)"></path>
<path d="M 855.429 812.818 C 855.763 813.177 856.184 813.444 856.234 813.899 C 856.067 813.917 854.82 814.046 854.521 814.053 C 854.964 813.302 854.856 813.398 855.429 812.818 z" fill="rgb(40,31,29)" transform="translate(0,0)"></path>
<path d="M 567.577 767.36 C 566.09 765.708 566.855 765.053 568.338 766.553 C 568.084 766.822 567.831 767.091 567.577 767.36 z" fill="rgb(40,31,29)" transform="translate(0,0)"></path>
<path d="M 687.552 815.479 C 687.948 815.247 688.345 815.016 688.742 814.784 C 688.814 815.235 689.033 815.826 688.837 816.252 C 688.362 816.225 687.924 815.753 687.552 815.479 z" fill="rgb(40,31,29)" transform="translate(0,0)"></path>
<path d="M 699.43 804.77 C 699.585 804.94 700.368 805.596 700.257 806.046 C 700.227 806.171 700.163 806.226 700.039 806.256 C 699.559 806.368 698.9 805.656 698.672 805.47 L 699.43 804.77 z" fill="rgb(40,31,29)" transform="translate(0,0)"></path>
<path d="M 908.144 620.665 C 910.297 627.666 907.8 654.613 906.59 662.796 C 906.569 661.831 906.706 660.319 906.763 659.305 C 906.348 659.004 905.661 658.403 905.128 658.281 C 904.703 658.819 904.821 659.616 904.376 660.103 L 904.152 659.903 C 904.014 658.917 907.71 622.804 908.144 620.665 z" fill="rgb(40,31,29)" transform="translate(0,0)"></path>
<path d="M 772.292 609.674 C 774.073 612.24 773.651 639.346 770.56 640.759 L 769.43 641.313 C 769.013 641.191 768.73 641.186 768.481 640.888 C 768.476 640.73 768.472 640.571 768.468 640.413 C 770.619 630.852 771.238 619.667 772.292 609.674 z" fill="rgb(40,31,29)" transform="translate(0,0)"></path>
<path d="M 647.539 611.904 C 649.227 613.769 645.92 637.623 645.49 638.211 C 645.272 637.206 645.366 637.23 645.382 635.9 C 644.858 636.21 642.796 637.703 642.214 637.765 C 642.071 637.537 646.897 614.066 647.539 611.904 z" fill="rgb(40,31,29)" transform="translate(0,0)"></path>
<path d="M 364.676 892.534 C 369.509 887.734 374.021 869.194 379.146 861.324 C 384.63 852.907 387.518 849.6 395.076 842.458 C 424.81 814.36 463.748 817.961 499.818 804.688 C 507.753 801.768 516.012 800.129 523.188 795.267 C 524.954 794.07 526.492 793.426 528.427 792.636 L 528.616 793.624 C 524.167 797.187 518.954 798.4 513.955 800.883 C 475.881 819.794 431.892 812.414 397.532 842.3 C 384.089 852.908 378.876 865.28 372.443 880.341 C 366.368 894.566 366.302 896.811 369.839 912.149 C 372.234 922.536 370.019 933.226 384.988 933.557 C 386.561 931.545 386.306 927.645 387.166 924.695 C 395.211 897.113 402.861 878.275 422.691 856.785 C 447.021 830.419 476.302 826.996 506.782 811.589 C 516.042 806.908 533.163 791.581 542.101 789.519 C 527.628 801.316 511.757 811.287 494.848 819.206 C 483.045 824.597 470.754 828.688 458.788 833.598 C 421.138 849.047 392.002 893.909 387.853 934.278 L 387.561 937.243 C 378.589 933.838 369.613 929.993 360.097 928.676 C 355.621 928.948 351.135 929.003 346.653 928.841 C 280.163 938.046 274.246 1035.59 322.22 1072.23 C 326.427 1077.12 332.405 1081.13 338.001 1084.24 C 353.163 1092.66 367.795 1095.9 385.013 1095.05 C 387.769 1094.91 392.131 1095.07 394.59 1093.91 C 400.351 1091.2 386.495 1060.18 391.167 1050.62 C 392.986 1055.31 394.043 1066.65 394.983 1072.11 C 396.903 1083.89 399.815 1095.49 403.688 1106.78 C 441.122 1217.89 522.899 1288.05 634.343 1318.87 C 775.983 1358.05 911.054 1331.68 1020.45 1232.26 L 1021.07 1234.77 C 971.551 1278.5 918.874 1310.52 853.744 1325.87 C 853.732 1348.44 851.234 1373.09 868.535 1390.11 C 886.925 1408.21 912.587 1399.84 938.542 1404.25 C 1014.21 1417.13 1085.91 1457.93 1125.16 1525.3 C 1096.25 1547.69 1073.68 1564.1 1041.45 1582.58 C 933.637 1644.97 808.554 1670.88 684.826 1656.43 C 577.126 1642.84 468.325 1593.79 384.313 1525.35 C 421.313 1465.79 480.853 1423.75 549.361 1408.81 C 563.064 1405.69 571.875 1404.36 585.478 1402.92 C 609.784 1400.34 629.799 1407.77 647.185 1387.74 C 648.856 1385.27 650.609 1382.86 652.439 1380.51 C 661.459 1360.69 660.37 1348.01 660.049 1326.66 C 624.168 1319.87 589.459 1307.92 557.003 1291.19 C 476.615 1249.55 425.174 1180.75 398.01 1095.58 C 386.415 1097.96 374.465 1098.03 362.843 1095.79 C 337.789 1090.83 317.858 1075.63 304.03 1054.49 C 290.257 1033.21 285.399 1007.37 290.503 982.546 C 298.678 943.726 331.454 919.499 371.023 928.743 C 368.424 916.356 366.596 905.061 364.676 892.534 z" fill="rgb(64,44,31)" transform="translate(0,0)"></path>
<path d="M 850.944 1329.92 C 851.051 1337.28 850.998 1344.74 851.858 1352.05 C 853.252 1372.12 857.062 1382.19 872.052 1395.57 C 872.789 1395.93 872.659 1395.87 873.218 1396.51 C 890.617 1406.52 899.224 1404.26 919.316 1404.23 C 921.667 1405.21 923.478 1404.93 926.09 1405.02 C 929.704 1405.2 928.246 1404.56 930.817 1406.43 C 930.896 1409.71 928.503 1413.55 927.054 1416.74 C 906.268 1462.6 868.926 1494.04 821.683 1510.92 C 772.3 1528.86 717.79 1526.29 670.314 1503.78 C 627.225 1483.2 594.681 1450.55 578.647 1405.27 C 601.495 1403.26 620.828 1407.76 640.129 1396.97 C 690.884 1406.5 744.336 1409.91 791.658 1385.66 C 819.305 1371.49 833.319 1354.17 850.944 1329.92 z" fill="rgb(219,159,138)" transform="translate(0,0)"></path>
<path d="M 662.654 1327.46 C 726.338 1342.08 788.604 1342.99 852.031 1326.48 C 852.042 1333.8 852.353 1345.08 851.858 1352.05 C 850.998 1344.74 851.051 1337.28 850.944 1329.92 C 833.319 1354.17 819.305 1371.49 791.658 1385.66 C 744.336 1409.91 690.884 1406.5 640.129 1396.97 L 648.079 1389.94 L 647.185 1387.74 C 648.856 1385.27 650.609 1382.86 652.439 1380.51 C 652.775 1380.71 653.11 1380.92 653.445 1381.12 C 654.484 1380.36 655.134 1377.84 656.493 1376.38 C 660.859 1365.37 661.758 1356.96 662.096 1345.13 C 661.904 1340.08 661.593 1332.34 662.654 1327.46 z" fill="rgb(196,133,112)" transform="translate(0,0)"></path>
<path d="M 656.493 1376.38 C 656.156 1379.79 650.661 1387.37 648.079 1389.94 L 647.185 1387.74 C 648.856 1385.27 650.609 1382.86 652.439 1380.51 C 652.775 1380.71 653.11 1380.92 653.445 1381.12 C 654.484 1380.36 655.134 1377.84 656.493 1376.38 z" fill="rgb(132,92,78)" transform="translate(0,0)"></path>
<path d="M 662.096 1345.13 C 661.904 1340.08 661.593 1332.34 662.654 1327.46 C 663.548 1333.34 663.359 1339.32 662.096 1345.13 z" fill="rgb(162,111,94)" transform="translate(0,0)"></path>
<path d="M 346.653 928.841 C 352.442 927.504 354.294 927.372 360.097 928.676 C 355.621 928.948 351.135 929.003 346.653 928.841 z" fill="rgb(132,92,78)" transform="translate(0,0)"></path>
<path d="M 919.316 1404.23 C 922.551 1403.57 922.796 1404.02 926.09 1405.02 C 923.478 1404.93 921.667 1405.21 919.316 1404.23 z" fill="rgb(132,92,78)" transform="translate(0,0)"></path>
<path d="M 521.022 1419.2 L 530.014 1415.87 C 545.588 1456.11 576.66 1497.04 612.916 1520.7 C 613.967 1521.23 614.297 1521.74 615.145 1522.6 C 617.266 1524.01 618.884 1524.76 620.963 1526.4 L 622.659 1524.71 C 678.091 1560.28 745.518 1572.01 809.706 1557.25 C 827.838 1553.27 842.035 1548.25 858.879 1540.7 L 860.693 1541.91 C 865.661 1540.72 881.691 1531.06 886.619 1527.89 C 928.357 1501.02 960.964 1462.12 980.132 1416.33 L 991.843 1420.2 C 1042.55 1438.85 1096.12 1476.91 1122.6 1524.88 C 895.007 1704.77 614.529 1701.8 386.861 1524.88 C 415.421 1473.71 467.405 1439.43 521.022 1419.2 z" fill="rgb(247,165,33)" transform="translate(0,0)"></path>
<path d="M 521.022 1419.2 L 530.014 1415.87 C 545.588 1456.11 576.66 1497.04 612.916 1520.7 C 613.967 1521.23 614.297 1521.74 615.145 1522.6 C 617.266 1524.01 618.884 1524.76 620.963 1526.4 L 622.659 1524.71 C 678.091 1560.28 745.518 1572.01 809.706 1557.25 C 827.838 1553.27 842.035 1548.25 858.879 1540.7 L 860.693 1541.91 C 865.661 1540.72 881.691 1531.06 886.619 1527.89 C 928.357 1501.02 960.964 1462.12 980.132 1416.33 L 991.843 1420.2 C 987.337 1423.66 976.716 1448.04 972.934 1454.61 C 867.32 1638.13 595.963 1617.4 521.022 1419.2 z" fill="rgb(203,132,34)" transform="translate(0,0)"></path>
<path d="M 622.659 1524.71 C 678.091 1560.28 745.518 1572.01 809.706 1557.25 C 827.838 1553.27 842.035 1548.25 858.879 1540.7 L 860.693 1541.91 C 779.383 1578.77 696.906 1572.05 620.963 1526.4 L 622.659 1524.71 z" fill="rgb(64,44,31)" transform="translate(0,0)"></path>
<path d="M 933.843 1405.56 C 947.027 1408.18 965.843 1411.55 978.168 1415.9 C 954.045 1473.11 914.057 1513.09 858.879 1540.7 C 842.035 1548.25 827.838 1553.27 809.706 1557.25 C 745.518 1572.01 678.091 1560.28 622.659 1524.71 L 620.963 1526.4 C 618.884 1524.76 617.266 1524.01 615.145 1522.6 L 616.47 1520.58 C 578.169 1492.92 549.262 1459.86 531.818 1415.39 C 547.165 1411.13 560.898 1408.46 576.579 1405.64 C 616.682 1513.78 747.571 1554.07 847.195 1502.38 C 881.963 1484.34 911.643 1455.78 927.913 1419.79 C 930.005 1415.1 931.982 1410.35 933.843 1405.56 z" fill="rgb(247,165,33)" transform="translate(0,0)"></path>
<path d="M 616.47 1520.58 C 618.53 1522 620.669 1523.26 622.659 1524.71 L 620.963 1526.4 C 618.884 1524.76 617.266 1524.01 615.145 1522.6 L 616.47 1520.58 z" fill="rgb(79,60,52)" transform="translate(0,0)"></path>
<path d="M 1114.73 893.268 L 1113.43 890.984 C 1113.64 889.912 1125.05 847.623 1124.09 849.045 L 1125.79 849.357 C 1201.57 890.279 1258.93 984.778 1213 1069.01 C 1206.53 1080.89 1198.25 1091.58 1189.82 1102.12 C 1169.02 1124.86 1149.02 1147.63 1149.97 1180.62 C 1150.77 1208.19 1172.05 1232.94 1200.76 1231.04 C 1212.96 1230.3 1224.32 1224.6 1232.2 1215.26 C 1245.81 1199.44 1251.57 1173.14 1232.92 1158.66 L 1235.45 1157.43 C 1267.82 1177.28 1263.12 1227.28 1245.12 1255.12 C 1243.09 1258.27 1237.76 1266.14 1234.83 1268.34 C 1226.52 1278.95 1211.49 1290.27 1199.37 1295.97 C 1133.87 1326.8 1052.89 1299.22 1021.07 1234.77 L 1020.45 1232.26 C 1063.65 1187.92 1084.02 1150.17 1103.44 1092.22 L 1104.87 1092.72 L 1106.29 1094.57 C 1130.09 1101.36 1162.08 1088.32 1178.96 1071.39 C 1190.46 1061.25 1199.45 1048.57 1205.2 1034.36 C 1229.11 975.084 1184.9 906.183 1118.48 936.045 C 1117.72 922.223 1115.96 907.215 1114.73 893.268 z" fill="rgb(40,31,29)" transform="translate(0,0)"></path>
<path d="M 1234.83 1268.34 C 1231.57 1266.93 1225.79 1270.71 1222.76 1272.11 C 1124.74 1317.66 1049.74 1215.5 1132.46 1139.93 C 1142.3 1130.93 1179.32 1101.86 1189.82 1102.12 C 1169.02 1124.86 1149.02 1147.63 1149.97 1180.62 C 1150.77 1208.19 1172.05 1232.94 1200.76 1231.04 C 1212.96 1230.3 1224.32 1224.6 1232.2 1215.26 C 1245.81 1199.44 1251.57 1173.14 1232.92 1158.66 L 1235.45 1157.43 C 1267.82 1177.28 1263.12 1227.28 1245.12 1255.12 C 1243.09 1258.27 1237.76 1266.14 1234.83 1268.34 z" fill="rgb(79,60,52)" transform="translate(0,0)"></path>
<path d="M 382.242 983.592 C 389.845 988.316 384.075 1042.44 391.167 1050.62 C 386.495 1060.18 400.351 1091.2 394.59 1093.91 C 392.131 1095.07 387.769 1094.91 385.013 1095.05 C 367.795 1095.9 353.163 1092.66 338.001 1084.24 C 332.405 1081.13 326.427 1077.12 322.22 1072.23 C 335.709 1075.46 367.163 1089.99 374.438 1066.98 C 379.143 1052.11 364.804 1049.75 354.075 1046.73 C 348.597 1041.52 345.987 1036.26 342.627 1029.6 C 344.326 1026.08 342.42 1020.64 343.227 1016 C 344.801 1006.94 348.211 999.083 355.198 993.224 C 366.916 983.398 368.788 984.502 382.242 983.592 z" fill="rgb(196,133,112)" transform="translate(0,0)"></path>
<path d="M 1112.99 1052.33 C 1119.06 1033.79 1118.44 1003.74 1118.74 983.921 C 1133.08 985.223 1137.59 981.817 1149.79 995.189 C 1161.36 1007.87 1156.77 1019.03 1159.91 1028.49 C 1154.65 1037.41 1152.47 1041.81 1144.72 1048.79 C 1139.33 1049.81 1130.47 1050.29 1127.52 1055.06 C 1123.41 1061.69 1125.42 1071.92 1132.31 1076.09 C 1145.74 1083.47 1165.81 1075.8 1178.96 1071.39 C 1162.08 1088.32 1130.09 1101.36 1106.29 1094.57 L 1104.87 1092.72 L 1103.44 1092.22 C 1104.06 1088.95 1112.64 1052.77 1112.99 1052.33 z" fill="rgb(196,133,112)" transform="translate(0,0)"></path>
<path d="M 1112.99 1052.33 C 1115.02 1055.02 1106.62 1087.74 1104.87 1092.72 L 1103.44 1092.22 C 1104.06 1088.95 1112.64 1052.77 1112.99 1052.33 z" fill="rgb(79,60,52)" transform="translate(0,0)"></path>
<path d="M 339.454 969.308 L 338.717 969.669 C 331.793 973.003 329.214 974.79 324.469 981.06 C 323.267 982.647 320.823 988.152 320.011 987.66 C 317.559 985.529 325.422 976.824 326.804 975.33 C 330.364 971.483 334.625 968.714 339.596 967.305 C 359.048 961.795 370.073 971.017 382.242 983.592 C 368.788 984.502 366.916 983.398 355.198 993.224 C 348.211 999.083 344.801 1006.94 343.227 1016 C 342.42 1020.64 344.326 1026.08 342.627 1029.6 C 334.781 1014.37 348.708 993.731 361.776 985.558 C 359.079 975.497 349.185 970.577 339.454 969.308 z" fill="rgb(40,31,29)" transform="translate(0,0)"></path>
<path d="M 339.454 969.308 C 357.728 966.872 363.955 968.745 377.683 980.947 C 368.331 982.972 371.188 981.644 361.776 985.558 C 359.079 975.497 349.185 970.577 339.454 969.308 z" fill="rgb(196,133,112)" transform="translate(0,0)"></path>
<path d="M 1118.74 983.921 C 1124.33 977.056 1129.72 972.468 1137.77 968.463 C 1153.4 960.683 1172.59 969.055 1180.35 983.927 C 1180.91 985.015 1180.59 986.495 1179.35 986.864 C 1176.91 984.866 1173.47 973.337 1165.63 971.54 C 1164.3 971.234 1158.37 968.764 1156.46 968.146 C 1146.77 970.85 1143.57 975.536 1139.13 983.932 C 1153.49 992.479 1165.81 1011.62 1159.91 1028.49 C 1156.77 1019.03 1161.36 1007.87 1149.79 995.189 C 1137.59 981.817 1133.08 985.223 1118.74 983.921 z" fill="rgb(40,31,29)" transform="translate(0,0)"></path>
<path d="M 1122.58 981.486 C 1135.53 970.863 1139.78 967.265 1156.46 968.146 C 1146.77 970.85 1143.57 975.536 1139.13 983.932 C 1129.79 981.818 1132.37 982.031 1122.58 981.486 z" fill="rgb(196,133,112)" transform="translate(0,0)"></path>
<path d="M 1104.44 1014.38 C 1098.61 1021.69 1092.28 1027.01 1082.01 1024.13 C 1073.56 1021.77 1069.4 1003.57 1074.48 1002.28 C 1074.63 1002.36 1074.31 1025.81 1088.74 1021.46 C 1094.51 1019.72 1096.7 1014.14 1099 1009.13 C 1099.19 1010.48 1099.34 1015.05 1100.08 1015.74 C 1100.97 1015.88 1102.31 1014.5 1104.44 1014.38 z" fill="rgb(40,31,29)" transform="translate(0,0)"></path>
<path d="M 810.867 842.816 C 826.624 836.415 833.925 833.502 847.066 821.415 C 847.35 821.222 847.633 821.028 847.917 820.835 C 849.107 824.218 843.233 826.545 840.985 828.907 C 838.546 831.469 834.163 833.423 831.316 835.466 C 830.266 836.159 823.805 839.074 824.388 840.458 C 825.866 841.509 827.231 840.111 831.077 842.828 C 824.222 843.053 817.709 842.926 810.867 842.816 z" fill="rgb(40,31,29)" transform="translate(0,0)"></path>
<path d="M 517.705 825.442 C 514.952 830.316 514.446 826.251 513.032 832.572 L 511.741 832.267 C 510.349 831.952 506.699 831.362 505.74 830.303 C 505.81 828.847 515.505 826.266 517.705 825.442 z" fill="rgb(40,31,29)" transform="translate(0,0)"></path>
<path d="M 1045.49 940.844 C 1046.57 944.727 1046.88 957.544 1047.14 962.202 C 1043.78 953.448 1044.07 950.073 1045.49 940.844 z" fill="rgb(40,31,29)" transform="translate(0,0)"></path>
<path d="M 644.933 845.712 C 644.93 845.711 643.031 845.33 643.026 845.335 C 642.659 845.723 637.521 844.063 638.751 842.943 C 640.798 841.077 647.12 839.311 649.96 838.286 C 646.024 842.669 646.434 839.907 644.933 845.712 z" fill="rgb(40,31,29)" transform="translate(0,0)"></path>
<path d="M 955.385 1043.82 C 1001.3 1037.95 1043.26 1070.43 1049.1 1116.34 C 1054.93 1162.26 1022.41 1204.2 976.487 1209.99 C 930.622 1215.78 888.743 1183.31 882.919 1137.45 C 877.095 1091.59 909.529 1049.68 955.385 1043.82 z" fill="rgb(196,133,112)" transform="translate(0,0)"></path>
<path d="M 535.6 1043.24 C 581.815 1040.33 621.594 1075.53 624.325 1121.76 C 627.056 1167.98 591.698 1207.63 545.462 1210.18 C 499.477 1212.72 460.095 1177.6 457.379 1131.62 C 454.663 1085.64 489.635 1046.13 535.6 1043.24 z" fill="rgb(196,133,112)" transform="translate(0,0)"></path>
<path d="M 677.97 1173.65 C 676.123 1171.85 674.769 1169.7 672.578 1169.84 C 667.998 1170.14 660.348 1175.34 656.325 1174.4 L 655.581 1173.63 C 671.611 1167.94 673.467 1167.65 682.382 1151.72 C 682.167 1157.73 678.144 1163.12 674.427 1167.46 C 681.985 1174.72 690.336 1183.1 698.934 1188.99 C 712.344 1167.27 733.02 1158.53 752.351 1179.76 C 757.968 1175.42 762.336 1171.4 769.262 1169.34 C 786.657 1164.16 799.244 1174.49 807.143 1188.78 C 815.532 1183.5 826.68 1174.56 833.214 1167.09 C 829.557 1162.37 826.266 1158.58 825.738 1152.4 C 830.118 1157.16 833.37 1163.78 837.442 1168.07 C 838.604 1169.3 849.462 1173.22 851.175 1175.31 C 843.208 1174.38 841.165 1172.73 834.41 1168.47 C 825.829 1178.11 818.352 1183.82 807.93 1191.16 C 809.576 1259.13 707.792 1267.39 698.897 1198.16 C 697.445 1186.87 691.897 1187.11 684.344 1180.03 C 683.495 1179.48 683.628 1179.52 682.923 1178.67 L 679.326 1175.08 C 678.475 1174.37 678.514 1174.5 677.97 1173.65 z" fill="rgb(40,31,29)" transform="translate(0,0)"></path>
<path d="M 700.398 1192.57 C 729.646 1206.47 752.029 1209.63 784.493 1201.66 C 791.094 1200.04 801.679 1193.15 805.474 1194.29 C 808.642 1200.68 799.375 1217.92 795.604 1223.67 C 795.265 1224.08 794.918 1224.48 794.565 1224.88 C 784.268 1236.45 771.449 1243.64 755.797 1244.54 C 742.016 1245.31 728.51 1240.48 718.331 1231.16 C 706.895 1220.83 701.06 1207.84 700.398 1192.57 z" fill="rgb(196,133,112)" transform="translate(0,0)"></path>
<path d="M 724.488 1170.17 C 725.536 1170.11 726.586 1170.08 727.636 1170.08 C 739.889 1170.12 744.331 1174.66 752.451 1182.79 C 774.35 1164.72 789.216 1164.94 805.475 1189.87 C 799.346 1193.62 795.102 1195.34 788.559 1198.1 C 759.379 1207.71 727.311 1205.81 700.767 1189.84 C 707.261 1179.58 712.918 1173.65 724.488 1170.17 z" fill="rgb(196,133,112)" transform="translate(0,0)"></path>
<path d="M 782.903 1030.86 C 764.334 990.006 762.058 958.025 775.322 914.111 C 775.786 912.576 776.59 911.51 777.529 910.24 L 778.61 910.508 C 777.936 913.543 777.542 914.286 776.696 917.069 C 766.205 951.334 765.869 988.615 780.831 1021.55 C 787.085 1037.07 810.897 1058.34 803.082 1076.76 C 791.384 1104.32 753.041 1103.8 728.989 1096.33 C 702.89 1088.22 704.502 1050.81 725.003 1042.48 C 724.797 1043.41 716.648 1052.85 713.925 1057.72 C 720.357 1071.49 728.94 1077.64 744.102 1080.37 C 752.83 1081.88 767.482 1081.13 774.623 1074.71 C 799.176 1052.61 772.322 1033.49 750.846 1030.88 C 749.359 1030.02 748.23 1029.32 746.796 1028.37 C 767.572 1024.48 769.129 1030.3 782.903 1030.86 z" fill="rgb(196,133,112)" transform="translate(0,0)"></path>
<path d="M 782.903 1030.86 C 764.334 990.006 762.058 958.025 775.322 914.111 C 775.786 912.576 776.59 911.51 777.529 910.24 L 778.61 910.508 C 777.936 913.543 777.542 914.286 776.696 917.069 C 766.205 951.334 765.869 988.615 780.831 1021.55 C 787.085 1037.07 810.897 1058.34 803.082 1076.76 C 791.384 1104.32 753.041 1103.8 728.989 1096.33 C 702.89 1088.22 704.502 1050.81 725.003 1042.48 C 724.797 1043.41 716.648 1052.85 713.925 1057.72 C 697.79 1101.78 765.403 1106.96 789.703 1090.12 C 816.246 1071.73 794.772 1048.61 782.903 1030.86 z" fill="rgb(40,31,29)" transform="translate(0,0)"></path>
<path d="M 919.094 847.402 C 935.39 847.267 951.431 851.457 965.58 859.544 C 974.384 864.607 985.556 872.476 988.192 883.011 C 989.786 889.386 987.848 897.143 980.008 897.408 C 971.032 897.712 965.586 891.713 959.279 886.293 C 956.51 884.52 953.672 882.858 950.771 881.31 C 934.405 872.487 915.539 870.955 898.029 877.246 C 890.168 880.12 882.416 875.106 881.272 866.943 C 878.756 848.974 906.689 848.331 919.094 847.402 z" fill="rgb(104,74,63)" transform="translate(0,0)"></path>
<path d="M 561.498 945.208 C 580.873 920.988 610.754 933.06 613.067 962.001 C 614.446 979.255 600.862 995.799 583.502 995.112 C 565.681 994.407 555.064 978.169 556.731 961.491 C 557.093 957.871 556.712 957.856 553.997 955.74 L 555.444 954.974 C 558.708 953.069 558.491 951.149 560.264 947.569 C 560.939 946.53 561.121 946.374 561.498 945.208 z" fill="rgb(79,60,52)" transform="translate(0,0)"></path>
<path d="M 572.558 945.116 C 576.498 944.066 580.55 946.378 581.652 950.303 C 582.754 954.229 580.497 958.312 576.586 959.466 C 574.01 960.226 571.223 959.541 569.293 957.673 C 567.363 955.804 566.587 953.042 567.263 950.442 C 567.939 947.842 569.962 945.807 572.558 945.116 z" fill="rgb(255,255,255)" transform="translate(0,0)"></path>
<path d="M 950.491 957.807 C 951.178 967.52 948.8 979.636 941.774 986.768 C 936.427 992.173 929.098 995.15 921.497 995.003 C 883.824 994.381 886.277 927.48 926.003 932.134 C 936.202 933.329 939.797 938.095 945.664 945.474 L 946.123 946.04 C 946.759 946.423 947.394 946.809 948.026 947.199 C 948.961 950.843 949.205 952.234 950.583 955.795 C 950.552 956.466 950.522 957.136 950.491 957.807 z" fill="rgb(79,60,52)" transform="translate(0,0)"></path>
<path d="M 929.957 944.599 C 933.777 943.387 937.859 945.488 939.093 949.301 C 940.326 953.114 938.249 957.208 934.443 958.463 C 930.606 959.729 926.472 957.631 925.228 953.787 C 923.984 949.943 926.106 945.82 929.957 944.599 z" fill="rgb(255,255,255)" transform="translate(0,0)"></path>
<path d="M 575.68 848.311 C 587.854 846.479 600.936 848.249 612.93 851.489 C 621.078 853.691 629.711 859.574 625.537 869.388 C 620.196 881.943 596.06 872.473 585.074 873.414 C 573.046 874.444 569.059 875.204 557.81 880.443 C 553.61 882.689 546.905 886.876 543.612 890.278 C 528.447 905.944 509.22 893.664 522.626 875.37 C 534.048 859.784 556.707 851.259 575.68 848.311 z" fill="rgb(104,74,63)" transform="translate(0,0)"></path>
<path d="M 950.583 955.795 C 952.944 954.053 958.488 949.094 960.506 948.686 C 960.643 948.768 960.781 948.849 960.918 948.931 C 961.769 952.597 953.243 956.654 950.491 957.807 C 950.522 957.136 950.552 956.466 950.583 955.795 z" fill="rgb(40,31,29)" transform="translate(0,0)"></path>
<path d="M 560.264 947.569 C 551.807 940.135 550.567 934.43 561.498 945.208 C 561.121 946.374 560.939 946.53 560.264 947.569 z" fill="rgb(64,44,31)" transform="translate(0,0)"></path>
<path d="M 946.123 946.04 C 948.31 944.174 953.3 938.117 953.399 938.082 C 957.419 939.505 948.652 946.698 948.026 947.199 C 947.394 946.809 946.759 946.423 946.123 946.04 z" fill="rgb(40,31,29)" transform="translate(0,0)"></path>
<path d="M 734.682 1031.87 C 739.663 1030.31 741.538 1029.24 746.796 1028.37 C 748.23 1029.32 749.359 1030.02 750.846 1030.88 C 745.553 1031.27 740.13 1031.48 734.682 1031.87 z" fill="rgb(196,133,112)" transform="translate(0,0)"></path>
<path d="M 553.997 955.74 C 547.248 954.065 545.439 948.942 546.946 949.526 C 549.395 950.476 552.85 953.476 555.444 954.974 L 553.997 955.74 z" fill="rgb(79,60,52)" transform="translate(0,0)"></path>
<path d="M 1232.92 1158.66 C 1228.96 1157.47 1227.2 1156.65 1223 1156.17 C 1219.47 1155.76 1215.9 1158.04 1214.11 1157.82 L 1213.86 1157.48 C 1215.48 1150.7 1231.29 1155.62 1235.45 1157.43 L 1232.92 1158.66 z" fill="rgb(104,74,63)" transform="translate(0,0)"></path>
<metadata><recraft-signature>{"signed_by": "recraft", "signature_b64": "U3BDPTpVe3REosziL50XjaAw4QyZ02GCs9XkExADcvNvzKcPwRUM/IVOYQKgoKgZZlBsMcEFHyWy1UTgQfdsBQ==", "signing_algo": "Ed25519", "generation_timestamp": 1779105479, "identifier": "cea04328-1feb-453f-bb7c-9c13350caafb"}</recraft-signature></metadata></svg>