<svg xmlns="http://www.w3.org/2000/svg" height="1216" preserveAspectRatio="none" style="display: block;" version="1.1" viewBox="0 0 1509 2048" width="896">
<path d="M 0 0 L 1509 0 L 1509 2048 L 1381.68 2048 L 128.043 2048 L 0 2048 L 0 0 z" fill="rgb(255,255,255)" transform="translate(0,0)"></path>
<path d="M 627.767 1138.91 C 637.08 1143.55 646.681 1147.58 656.511 1150.99 C 732.667 1177.71 809.544 1173.11 882.097 1138.3 C 881.838 1156.57 880.263 1200.98 886.863 1217.38 C 890.053 1229.35 894.42 1239.99 899.74 1251.13 C 924.777 1296.13 959.344 1311.72 1007.21 1320.51 C 1027.91 1326.02 1046.45 1331.14 1066.54 1338.89 C 1156.26 1373.09 1231.32 1437.41 1278.86 1520.83 C 1294.22 1547.89 1306.39 1576.64 1315.13 1606.5 C 1325.18 1640.94 1329.91 1683.57 1337.31 1719.57 C 1358.99 1824.95 1379.99 1940.04 1381.68 2048 L 128.043 2048 C 127.713 2021.84 129.778 1997.4 131.888 1971.51 C 139.082 1883.26 157.037 1795.29 174.697 1708.6 C 181.47 1675.35 185.004 1638.72 194.412 1606.55 C 206.194 1566.28 220.886 1535.05 243.372 1499.84 C 303.112 1407.96 396.804 1343.48 503.956 1320.5 C 547.531 1312.1 582.888 1297.48 607.627 1257.42 C 612.503 1249.53 623.517 1227.04 622.898 1217.69 L 621.192 1216.63 L 623.105 1216.28 C 628.922 1210.5 628.862 1166.92 628.946 1157.86 C 628.52 1151.55 628.127 1145.23 627.767 1138.91 z" fill="rgb(228,185,144)" transform="translate(0,0)"></path>
<path d="M 627.767 1138.91 C 637.08 1143.55 646.681 1147.58 656.511 1150.99 C 732.667 1177.71 809.544 1173.11 882.097 1138.3 C 881.838 1156.57 880.263 1200.98 886.863 1217.38 C 890.053 1229.35 894.42 1239.99 899.74 1251.13 C 924.777 1296.13 959.344 1311.72 1007.21 1320.51 C 971.246 1373.08 932.845 1407.47 873.185 1432.22 C 797.817 1463.53 713.105 1463.65 637.646 1432.56 C 592.672 1413.89 555.166 1388.58 524.386 1350.76 C 517.444 1342.23 508.126 1330.59 503.956 1320.5 C 547.531 1312.1 582.888 1297.48 607.627 1257.42 C 612.503 1249.53 623.517 1227.04 622.898 1217.69 L 621.192 1216.63 L 623.105 1216.28 C 628.922 1210.5 628.862 1166.92 628.946 1157.86 C 628.52 1151.55 628.127 1145.23 627.767 1138.91 z" fill="rgb(237,145,104)" transform="translate(0,0)"></path>
<path d="M 627.767 1138.91 C 637.08 1143.55 646.681 1147.58 656.511 1150.99 C 732.667 1177.71 809.544 1173.11 882.097 1138.3 C 881.838 1156.57 880.263 1200.98 886.863 1217.38 C 890.053 1229.35 894.42 1239.99 899.74 1251.13 C 898.046 1253.18 888.375 1255.16 885.229 1255.87 C 853.397 1262.81 820.564 1263.85 788.357 1258.95 C 738.023 1250.93 687.37 1226.19 652.313 1188.65 C 643.658 1179.38 636.406 1168.11 628.946 1157.86 C 628.52 1151.55 628.127 1145.23 627.767 1138.91 z" fill="rgb(233,110,40)" transform="translate(0,0)"></path>
<path d="M 621.192 1216.63 C 508.095 1202.7 391.113 1176.04 316.929 1081.16 C 275.457 1028.17 257.118 960.685 266.065 893.991 C 274.433 827.034 305.304 769.357 330.673 708.088 C 337.865 690.721 344.954 672.994 351.219 655.279 C 358.12 636.041 364.382 616.58 369.995 596.928 C 374.914 579.224 378.65 560.944 383.611 543.496 C 392.145 513.991 403.991 485.547 418.923 458.706 C 443.801 414.193 477.433 375.178 517.79 344.008 C 599.754 281.308 703.105 253.395 805.489 266.305 C 906.209 279.484 997.719 331.706 1060.3 411.719 C 1079.75 437.028 1094.48 461.599 1107.46 490.621 C 1122.43 524.108 1128.04 554.122 1137.51 588.856 C 1143.66 611.429 1152.63 638.248 1160.53 660.454 C 1169.25 684.716 1178.77 708.682 1189.07 732.314 C 1207.55 774.154 1224.68 807.228 1235.52 852.792 C 1244.45 890.346 1248.02 925.649 1242.88 964.27 C 1233.88 1031.95 1195.87 1089.97 1142.2 1131.05 C 1082.35 1176.86 1006.67 1199.3 933.218 1211.03 C 919.025 1213.3 900.992 1216.31 886.863 1217.38 C 880.263 1200.98 881.838 1156.57 882.097 1138.3 C 809.544 1173.11 732.667 1177.71 656.511 1150.99 C 646.681 1147.58 637.08 1143.55 627.767 1138.91 C 628.127 1145.23 628.52 1151.55 628.946 1157.86 C 628.862 1166.92 628.922 1210.5 623.105 1216.28 L 621.192 1216.63 z" fill="rgb(0,0,0)" transform="translate(0,0)"></path>
<path d="M 445.393 664.836 C 462.081 659.659 477.459 655.026 493.518 647.939 C 554.192 621.185 603.983 574.621 634.739 515.874 C 642.794 500.522 648.355 485.158 654.483 468.962 C 751.85 581.267 918.323 646.043 1065.36 650.274 C 1065.45 660.767 1065.11 694.042 1066.36 702.499 C 1067.54 711.461 1067.02 729.079 1067 738.805 C 1067.05 771.874 1068.04 811.509 1064.91 843.851 C 1064.27 849.298 1061.75 879.291 1062.21 883.92 C 1047.08 996.042 985.261 1089.23 882.097 1138.3 C 809.544 1173.11 732.667 1177.71 656.511 1150.99 C 646.681 1147.58 637.08 1143.55 627.767 1138.91 C 593.268 1121.65 567.046 1104.21 539.47 1076.64 C 497.844 1034.54 468.6 981.791 454.939 924.18 C 452.687 914.766 448.931 897.843 448.922 888.333 C 449.454 881.145 447.578 840.974 446.084 833.899 C 445.219 816.704 444.807 799.488 444.848 782.271 C 446.413 758.796 444.576 726.907 445.298 701.849 C 445.513 689.513 445.545 677.174 445.393 664.836 z" fill="rgb(228,185,144)" transform="translate(0,0)"></path>
<path d="M 643.579 960.147 C 644.642 960.063 645.706 960.011 646.772 959.991 C 657.672 959.824 665.659 969.694 673.006 976.882 C 722.879 1025.67 797.146 1023.59 843.142 970.455 C 848.521 964.241 855.106 960.128 863.572 960.212 C 869.555 960.238 875.276 962.678 879.435 966.979 C 895.489 983.665 880.797 1000.7 868.709 1012.72 C 851.046 1029.79 830.019 1042.98 806.971 1051.47 C 748.429 1072.59 689.23 1055.71 643.977 1015.06 C 636.677 1008.5 627.112 1000.16 624.123 990.481 C 619.299 974.865 629.957 964.654 643.579 960.147 z" fill="rgb(237,145,104)" transform="translate(0,0)"></path>
<path d="M 731.041 715.086 C 732.212 714.98 733.386 714.904 734.562 714.857 C 767.592 713.636 760.122 756.096 760.111 778.724 L 760.125 864.765 C 777.37 864.968 805.042 859.843 811.044 880.675 C 812.934 887.274 812.168 894.35 808.91 900.392 C 805.42 906.942 801.074 909.861 794.308 911.925 C 778.442 912.046 753.85 914.755 739.077 909.869 C 730.151 906.916 722.286 898.872 718.164 890.544 C 716.198 886.571 714.888 882.361 714.452 877.944 C 712.785 861.074 711.595 738.435 715.316 728.739 C 717.935 721.915 724.888 718.121 731.041 715.086 z" fill="rgb(237,145,104)" transform="translate(0,0)"></path>
<path d="M 905.394 715.274 C 928.436 714.638 947.616 732.833 948.193 755.878 C 948.77 778.922 930.525 798.054 907.48 798.572 C 884.518 799.088 865.47 780.924 864.895 757.963 C 864.32 735.003 882.435 715.908 905.394 715.274 z" fill="rgb(237,145,104)" transform="translate(0,0)"></path>
<path d="M 605.483 715.329 C 628.203 714.593 647.31 732.226 648.396 754.933 C 649.483 777.639 632.146 797.015 609.459 798.451 C 594.469 799.4 580.131 792.197 571.944 779.605 C 563.756 767.013 562.989 750.986 569.937 737.67 C 576.886 724.354 590.471 715.816 605.483 715.329 z" fill="rgb(237,145,104)" transform="translate(0,0)"></path>
<path d="M 448.922 888.333 L 447.978 886.091 C 445.866 884.903 442.326 885.149 439.816 885.307 C 414.671 886.886 392.413 878.603 374.159 860.388 C 356.648 842.836 346.867 819.02 346.988 794.227 C 347.216 769.4 357.237 745.667 374.869 728.188 C 395.104 708.1 417.681 701.643 445.298 701.849 C 444.576 726.907 446.413 758.796 444.848 782.271 C 444.807 799.488 445.219 816.704 446.084 833.899 C 447.578 840.974 449.454 881.145 448.922 888.333 z" fill="rgb(237,145,104)" transform="translate(0,0)"></path>
<path d="M 446.084 833.899 C 446.037 838.222 446.696 839.445 444.736 842.894 C 433.902 848.623 407.579 835.356 399.16 826.682 C 389.217 816.349 383.809 802.475 384.134 788.139 C 385.102 754.809 413.451 738.137 444.256 739.269 C 444.143 752.358 443.707 769.53 444.848 782.271 C 444.807 799.488 445.219 816.704 446.084 833.899 z" fill="rgb(233,110,40)" transform="translate(0,0)"></path>
<path d="M 1066.36 702.499 C 1120.46 701.224 1162.29 738.306 1163.52 793.196 C 1164.07 818 1154.59 841.977 1137.23 859.697 C 1116.91 880.473 1090.71 888.843 1062.21 883.92 C 1061.75 879.291 1064.27 849.298 1064.91 843.851 C 1068.04 811.509 1067.05 771.874 1067 738.805 C 1067.02 729.079 1067.54 711.461 1066.36 702.499 z" fill="rgb(237,145,104)" transform="translate(0,0)"></path>
<path d="M 1067 738.805 C 1097.41 736.592 1122.88 755.965 1125.18 787.062 C 1126.14 800.956 1121.45 814.651 1112.16 825.03 C 1100.41 838.246 1082.48 845.164 1064.91 843.851 C 1068.04 811.509 1067.05 771.874 1067 738.805 z" fill="rgb(233,110,40)" transform="translate(0,0)"></path>
<metadata><recraft-signature>{"signed_by": "recraft", "signature_b64": "lcmo/aoupHQ57uQtVwDqzWbrTIhuPzY6+Y4Rd2BLvYFydcB0ZUrM5f3LfSsT6dCLobfgez7OwpNTZG6ELKyjCg==", "signing_algo": "Ed25519", "generation_timestamp": 1779106829, "identifier": "8915d9fe-177a-48b3-aca4-69c3d282686d"}</recraft-signature></metadata></svg>