<svg xmlns="http://www.w3.org/2000/svg" height="1216" preserveAspectRatio="none" style="display: block;" version="1.1" viewBox="0 0 1509 2048" width="896">
<path d="M 0 0 L 752.319 0 L 780.435 0 L 1509 0 L 1509 2046.26 L 1509 2048 L 1506.38 2048 L 1432.36 2048 L 1429.47 2048 L 3.8458 2048 L 1.05783 2048 L 0 2048 L 0 0 z" fill="rgb(255,255,255)" transform="translate(0,0)"></path>
<path d="M 696.793 607.119 C 711.131 606.789 723.421 606.71 737.808 607.152 C 741.559 607.824 742.977 608.184 746.781 607.752 L 756.361 608.323 C 757.445 608.947 757.497 608.78 758.954 608.709 C 851.87 615.948 943.841 651.009 1005.43 723.266 C 1042.41 767.058 1065.01 821.167 1070.18 878.248 C 1071.03 888.43 1071.01 898.699 1071.08 908.911 C 1071.44 957.692 1070.28 1006.73 1071.46 1055.48 C 1093.37 1057.77 1112.1 1068.23 1125.9 1085.34 C 1145.64 1109.81 1150.91 1138.03 1147.67 1168.59 C 1142.85 1213.97 1116.53 1257.57 1081.13 1285.81 C 1074.54 1291.07 1064.8 1298.15 1056.94 1300.99 C 1057.29 1321.61 1053.94 1341.52 1050.08 1361.66 C 1028.76 1472.98 957.355 1559.63 847.821 1591.67 C 819.595 1639.57 832.647 1685.92 880.717 1715.81 C 908.605 1733.16 948.586 1735.03 980.195 1742.01 C 1094.83 1759.34 1246.94 1777.62 1335.02 1860.62 C 1335.53 1861.51 1335.51 1861.36 1336.47 1862.05 L 1344.58 1870.05 C 1345.01 1870.74 1344.92 1870.63 1345.57 1871.14 C 1391.36 1920.08 1416.14 1983.08 1429.47 2048 L 3.8458 2048 C 17.2385 1993.95 43.2318 1927.44 78.2158 1883.44 C 143.043 1801.89 265.829 1764.04 365.888 1752.71 C 366.746 1752.71 366.932 1752.83 367.641 1752.43 C 400.347 1748.44 432.993 1743.97 465.569 1739.02 C 485.309 1735.97 516.267 1731.11 534.671 1725.26 C 546.724 1721.52 558.136 1715.96 568.515 1708.78 C 591.852 1692.49 604.366 1671.81 609.307 1644.06 C 608.953 1638.33 608.964 1633.3 609.165 1627.56 C 607.814 1614.29 603.88 1603.44 596.596 1592.36 C 587.697 1588.43 575.204 1585 565.624 1581.24 C 535.465 1569.49 507.564 1552.61 483.153 1531.36 C 423.405 1478.82 395.887 1401.52 390.726 1323.73 C 391.105 1320.5 390.802 1320.03 390.084 1316.8 L 389.863 1301.72 C 316.341 1272.12 264.813 1160.89 313.772 1089.34 C 328.01 1068.54 348.858 1058.53 373.469 1054.74 C 374.59 1016.85 373.255 978.466 373.551 940.554 C 374.077 921.035 372.436 900.551 374.865 881.159 C 394.563 723.931 513.364 626.222 666.885 609.698 C 667.775 609.671 667.958 609.777 668.692 609.355 L 677.022 608.686 C 678.496 608.779 678.552 608.956 679.632 608.313 L 690.225 607.732 C 693.399 608.073 693.606 607.877 696.793 607.119 z" fill="rgb(132,131,133)" transform="translate(0,0)"></path>
<path d="M 609.165 1627.56 C 610.368 1633.78 610.451 1637.87 609.307 1644.06 C 608.953 1638.33 608.964 1633.3 609.165 1627.56 z" fill="rgb(81,81,81)" transform="translate(0,0)"></path>
<path d="M 815.943 614.524 C 822.101 610.313 829.355 613.972 837.79 612.753 C 921.362 616.189 1007.7 648.018 1065.23 710.383 C 1106.88 756.022 1133.49 813.358 1141.46 874.626 C 1144.65 900.041 1143.78 924.196 1143.9 949.669 C 1144.07 984.8 1143.42 1020.21 1143.87 1055.31 C 1201.83 1065.03 1226.46 1122.58 1216.48 1176 C 1207.85 1222.18 1181.51 1265.37 1142.99 1292.38 C 1138.5 1295.51 1133.87 1298.43 1129.12 1301.14 C 1126.52 1322.65 1125.51 1340.59 1121.38 1362.23 C 1107.65 1434.05 1077.61 1494.95 1019.09 1540.21 C 987.814 1564.4 949.44 1582.84 911.367 1593 C 902.578 1619.77 899.994 1639.84 912.698 1666.62 C 924.923 1692.39 955.205 1713.92 982.077 1722.03 C 1041.34 1739.93 1105.22 1746.31 1165.68 1756.26 C 1277.97 1774.75 1409.62 1816.02 1464.57 1925.02 C 1486.41 1968.33 1494.94 2001.47 1506.38 2048 L 1432.36 2048 C 1429.61 2035.8 1426.55 2023.67 1423.18 2011.63 C 1394.41 1911.2 1345.46 1845.85 1249.25 1802.89 C 1154.36 1759.62 1050.57 1752.42 949.106 1733.97 C 900.889 1725.2 853.719 1712.49 837.816 1658.05 C 830.957 1634.58 837.332 1614.76 849.146 1594.02 C 862.51 1589.64 875.068 1585.51 887.916 1579.7 C 1000.11 1528.92 1053.47 1421.3 1059.59 1302.44 C 1102.7 1280.77 1137.4 1231.62 1147.58 1184.96 C 1160.55 1125.52 1137.75 1066.09 1073.95 1052.6 L 1073.97 949.799 C 1073.98 930.22 1074.65 905.534 1073.46 886.372 C 1070.45 840.773 1056.64 796.544 1033.15 757.341 C 982.086 673.45 907.944 636.944 815.943 614.524 z" fill="rgb(252,229,173)" transform="translate(0,0)"></path>
<path d="M 752.319 0 L 780.435 0 C 785.092 1.11505 794.234 1.94639 799.538 2.85641 C 842.865 10.29 885.501 33.3078 910.961 69.8464 C 930.215 97.1098 937.737 130.953 931.845 163.805 C 919.748 231.573 854.612 267.831 802.973 303.048 C 772.989 322.733 757.345 349.382 755.162 385.004 C 754.6 394.171 755.877 419.627 747.018 424.442 C 738.413 429.119 731.172 424.274 726.078 416.852 C 723.823 377.515 729.392 332.347 750.88 298.513 C 772.593 264.779 804.71 237.904 818.474 199.153 C 836.563 148.223 827.018 57.721 768 37.8918 C 725.817 23.7193 673.722 46.003 649.565 82.143 C 643.35 91.4406 640.457 98.4225 636.936 108.834 C 655.123 96.4918 678.881 93.5973 697.956 105.773 C 708.747 112.579 716.312 123.477 718.915 135.967 C 721.654 148.462 719.221 161.535 712.169 172.208 C 704.329 183.875 690.84 192.393 677.078 194.971 C 661.853 197.779 646.136 194.436 633.371 185.677 C 618.015 175.058 609.193 158.461 606.398 140.42 C 594.827 65.7256 667.788 10.1856 735.251 2.6441 C 740.797 2.02413 746.785 0.856579 752.319 0 z" fill="rgb(20,18,16)" transform="translate(0,0)"></path>
<path d="M 750.623 3.41934 C 754.337 2.79737 759.528 2.9812 763.399 2.81993 C 851.042 -0.831246 947.333 67.4837 929.122 164.258 C 918.09 222.89 866.822 257.683 820.467 288.164 C 802.834 299.759 783.313 312.256 771.085 329.731 C 756.436 349.378 752.475 373.733 752.125 397.53 C 751.27 405.895 753.504 420.154 742.989 423.164 C 724.764 428.12 728.411 401.436 728.561 391.527 C 729.195 349.75 740.744 311.079 767.999 278.817 C 784.976 258.721 801.397 238.748 814.169 215.159 C 818.752 205.949 822.327 196.272 824.831 186.294 C 833.916 149.861 829.21 101.967 809.904 69.2277 C 782.592 22.9103 722.161 22.0781 680.553 49.1237 C 655.293 65.5429 639.681 85.7246 633.113 115.482 C 652.077 99.3335 678.027 94.1431 699.202 109.59 C 708.982 116.627 715.457 127.361 717.12 139.295 C 718.897 151.525 715.573 163.947 707.924 173.654 C 699.674 184.348 687.446 191.245 674.027 192.774 C 577.271 203.564 573.544 19.5451 750.623 3.41934 z" fill="rgb(251,173,108)" transform="translate(0,0)"></path>
<path d="M 370.941 1052.48 L 370.822 945.718 C 370.799 926.105 370.066 900.051 372.159 881.112 C 380.379 812.586 410.992 748.691 459.247 699.347 C 524.701 633.581 626.617 604.318 717.574 603.973 C 743.623 603.874 769.009 607.253 794.772 609.891 C 800.74 610.502 813.712 609.897 820.222 609.852 C 907.595 609.244 998.924 639.851 1061.31 702.579 C 1106.66 748.178 1137.09 814.702 1144.51 878.477 C 1147.18 901.465 1146.49 928.21 1146.43 951.64 L 1146.14 1052.83 C 1171.24 1058.39 1195.14 1073.98 1207.36 1096.8 C 1246.06 1169.07 1196.98 1265.79 1131.39 1302.62 C 1129.54 1315.93 1128.71 1329.6 1126.93 1342.9 C 1118 1409.58 1093.79 1472.97 1045.02 1520.72 C 1007.34 1557.59 963.553 1580.69 913.029 1595.08 C 906.46 1616.56 903.651 1630.75 910.131 1653.27 C 917.502 1678.88 942.865 1703.12 966.814 1713.4 C 994.244 1725.18 1035.21 1733.02 1064.97 1738.02 C 1165.89 1754.99 1260.01 1762.3 1352.84 1812.08 C 1427.27 1851.99 1465.5 1904.14 1491.71 1983.71 C 1498.89 2005.5 1502.78 2025.87 1509 2046.26 L 1509 2048 L 1506.38 2048 C 1494.94 2001.47 1486.41 1968.33 1464.57 1925.02 C 1409.62 1816.02 1277.97 1774.75 1165.68 1756.26 C 1105.22 1746.31 1041.34 1739.93 982.077 1722.03 C 955.205 1713.92 924.923 1692.39 912.698 1666.62 C 899.994 1639.84 902.578 1619.77 911.367 1593 C 949.44 1582.84 987.814 1564.4 1019.09 1540.21 C 1077.61 1494.95 1107.65 1434.05 1121.38 1362.23 C 1125.51 1340.59 1126.52 1322.65 1129.12 1301.14 C 1133.87 1298.43 1138.5 1295.51 1142.99 1292.38 C 1181.51 1265.37 1207.85 1222.18 1216.48 1176 C 1226.46 1122.58 1201.83 1065.03 1143.87 1055.31 C 1143.42 1020.21 1144.07 984.8 1143.9 949.669 C 1143.78 924.196 1144.65 900.041 1141.46 874.626 C 1133.49 813.358 1106.88 756.022 1065.23 710.383 C 1007.7 648.018 921.362 616.189 837.79 612.753 C 829.355 613.972 822.101 610.313 815.943 614.524 C 907.944 636.944 982.086 673.45 1033.15 757.341 C 1056.64 796.544 1070.45 840.773 1073.46 886.372 C 1074.65 905.534 1073.98 930.22 1073.97 949.799 L 1073.95 1052.6 C 1137.75 1066.09 1160.55 1125.52 1147.58 1184.96 C 1137.4 1231.62 1102.7 1280.77 1059.59 1302.44 C 1053.47 1421.3 1000.11 1528.92 887.916 1579.7 C 875.068 1585.51 862.51 1589.64 849.146 1594.02 C 837.332 1614.76 830.957 1634.58 837.816 1658.05 C 853.719 1712.49 900.889 1725.2 949.106 1733.97 C 1050.57 1752.42 1154.36 1759.62 1249.25 1802.89 C 1345.46 1845.85 1394.41 1911.2 1423.18 2011.63 C 1426.55 2023.67 1429.61 2035.8 1432.36 2048 L 1429.47 2048 C 1416.14 1983.08 1391.36 1920.08 1345.57 1871.14 C 1344.92 1870.63 1345.01 1870.74 1344.58 1870.05 L 1336.47 1862.05 C 1335.51 1861.36 1335.53 1861.51 1335.02 1860.62 C 1246.94 1777.62 1094.83 1759.34 980.195 1742.01 C 948.586 1735.03 908.605 1733.16 880.717 1715.81 C 832.647 1685.92 819.595 1639.57 847.821 1591.67 C 957.355 1559.63 1028.76 1472.98 1050.08 1361.66 C 1053.94 1341.52 1057.29 1321.61 1056.94 1300.99 C 1064.8 1298.15 1074.54 1291.07 1081.13 1285.81 C 1116.53 1257.57 1142.85 1213.97 1147.67 1168.59 C 1150.91 1138.03 1145.64 1109.81 1125.9 1085.34 C 1112.1 1068.23 1093.37 1057.77 1071.46 1055.48 C 1070.28 1006.73 1071.44 957.692 1071.08 908.911 C 1071.01 898.699 1071.03 888.43 1070.18 878.248 C 1065.01 821.167 1042.41 767.058 1005.43 723.266 C 943.841 651.009 851.87 615.948 758.954 608.709 C 757.497 608.78 757.445 608.947 756.361 608.323 L 746.781 607.752 C 742.977 608.184 741.559 607.824 737.808 607.152 C 723.421 606.71 711.131 606.789 696.793 607.119 C 693.606 607.877 693.399 608.073 690.225 607.732 L 679.632 608.313 C 678.552 608.956 678.496 608.779 677.022 608.686 L 668.692 609.355 C 667.958 609.777 667.775 609.671 666.885 609.698 C 513.364 626.222 394.563 723.931 374.865 881.159 C 372.436 900.551 374.077 921.035 373.551 940.554 C 373.255 978.466 374.59 1016.85 373.469 1054.74 C 348.858 1058.53 328.01 1068.54 313.772 1089.34 C 264.813 1160.89 316.341 1272.12 389.863 1301.72 L 390.084 1316.8 C 390.802 1320.03 391.105 1320.5 390.726 1323.73 C 395.887 1401.52 423.405 1478.82 483.153 1531.36 C 507.564 1552.61 535.465 1569.49 565.624 1581.24 C 575.204 1585 587.697 1588.43 596.596 1592.36 C 603.88 1603.44 607.814 1614.29 609.165 1627.56 C 608.964 1633.3 608.953 1638.33 609.307 1644.06 C 604.366 1671.81 591.852 1692.49 568.515 1708.78 C 558.136 1715.96 546.724 1721.52 534.671 1725.26 C 516.267 1731.11 485.309 1735.97 465.569 1739.02 C 432.993 1743.97 400.347 1748.44 367.641 1752.43 C 366.932 1752.83 366.746 1752.71 365.888 1752.71 C 265.829 1764.04 143.043 1801.89 78.2158 1883.44 C 43.2318 1927.44 17.2385 1993.95 3.8458 2048 L 1.05783 2048 C 16.2356 1985.93 46.9271 1910.26 92.3069 1863.59 C 139.275 1815.29 207.811 1785.19 272.08 1768.07 C 348.769 1747.65 429.772 1745.08 507.488 1729.07 C 527.723 1724.9 543.717 1721.59 561.682 1710.42 C 602.522 1685.03 621.254 1636.78 594.764 1593.97 C 584.709 1590.07 574.048 1587.18 563.551 1583.1 C 532.717 1570.98 504.278 1553.49 479.556 1531.44 C 412.389 1471.44 391.865 1389.57 387.006 1303.2 C 288.068 1265.01 242.294 1077.44 370.941 1052.48 z" fill="rgb(20,18,16)" transform="translate(0,0)"></path>
<path d="M 804.337 612.494 C 809.52 612.214 834.224 611.082 837.79 612.753 C 829.355 613.972 822.101 610.313 815.943 614.524 C 812.07 613.854 808.202 613.225 804.337 612.494 z" fill="rgb(163,149,128)" transform="translate(0,0)"></path>
<path d="M 737.808 607.152 C 740.705 607.049 744.37 606.456 746.781 607.752 C 742.977 608.184 741.559 607.824 737.808 607.152 z" fill="rgb(81,81,81)" transform="translate(0,0)"></path>
<path d="M 390.084 1316.8 C 390.802 1320.03 391.105 1320.5 390.726 1323.73 C 389.38 1321.54 390.019 1319.36 390.084 1316.8 z" fill="rgb(81,81,81)" transform="translate(0,0)"></path>
<path d="M 690.225 607.732 C 692.385 606.591 694.413 607.066 696.793 607.119 C 693.606 607.877 693.399 608.073 690.225 607.732 z" fill="rgb(81,81,81)" transform="translate(0,0)"></path>
<path d="M 677.022 608.686 C 678.262 607.987 678.168 608.074 679.632 608.313 C 678.552 608.956 678.496 608.779 677.022 608.686 z" fill="rgb(81,81,81)" transform="translate(0,0)"></path>
<path d="M 756.361 608.323 C 757.804 608.137 757.728 608.048 758.954 608.709 C 757.497 608.78 757.445 608.947 756.361 608.323 z" fill="rgb(81,81,81)" transform="translate(0,0)"></path>
<path d="M 666.885 609.698 C 667.784 609.268 667.693 609.28 668.692 609.355 C 667.958 609.777 667.775 609.671 666.885 609.698 z" fill="rgb(81,81,81)" transform="translate(0,0)"></path>
<path d="M 365.888 1752.71 C 366.79 1752.31 366.681 1752.33 367.641 1752.43 C 366.932 1752.83 366.746 1752.71 365.888 1752.71 z" fill="rgb(81,81,81)" transform="translate(0,0)"></path>
<path d="M 748.931 465.848 C 778.032 464.439 802.796 486.824 804.324 515.919 C 805.852 545.014 783.57 569.87 754.481 571.517 C 725.223 573.175 700.191 550.734 698.654 521.469 C 697.117 492.205 719.66 467.265 748.931 465.848 z" fill="rgb(20,18,16)" transform="translate(0,0)"></path>
<path d="M 744.715 468.761 C 772.088 465.028 797.368 484.02 801.403 511.35 C 805.439 538.68 786.727 564.167 759.443 568.504 C 741.524 571.353 723.456 564.352 712.134 550.174 C 700.811 535.996 697.981 516.827 704.722 499.982 C 711.464 483.137 726.737 471.213 744.715 468.761 z" fill="rgb(251,173,108)" transform="translate(0,0)"></path>
<metadata><recraft-signature>{"signed_by": "recraft", "signature_b64": "lsWJiI6+58e2D6JxKyjEEpZO7e+powawulK097RbQAl2m326icEHUZN4ghnGPSjjYoCedrDvMyzcn64dPTfsDw==", "signing_algo": "Ed25519", "generation_timestamp": 1779106672, "identifier": "3733591c-51ef-4e76-98a2-374b09a54d22"}</recraft-signature></metadata></svg>