<svg xmlns="http://www.w3.org/2000/svg" height="832" preserveAspectRatio="none" style="display: block;" version="1.1" viewBox="0 0 2048 1331" width="1280">
<path d="M 0 0 L 2048 0 L 2048 1331 L 0 1331 L 0 0 z" fill="rgb(251,249,249)" transform="translate(0,0)"></path>
<path d="M 1002.63 297.949 C 1005.06 257.112 1031.75 227.761 1074.35 231.034 C 1091.59 232.303 1107.58 240.47 1118.71 253.687 C 1136.81 275.445 1136.14 298.13 1125.79 322.825 C 1171.86 350.481 1199.3 384.341 1215.98 434.993 C 1242.34 381.158 1277.54 345.666 1335.29 325.826 C 1385.97 308.336 1441.58 312.058 1489.48 336.149 C 1543.04 362.568 1579 410.256 1598.16 466.105 C 1606.17 489.475 1609.05 512.115 1612.66 536.438 C 1618.85 577 1622.86 617.864 1624.68 658.853 C 1625.83 686.675 1624.28 714.828 1629.98 741.951 C 1635.84 769.891 1646.04 776.4 1660.15 797.185 C 1680.12 826.617 1689.59 868.921 1688.88 904.144 C 1690.46 908.427 1692.55 912.747 1694.4 916.924 C 1708.66 949.133 1718.88 981.924 1706.73 1016.79 C 1690.43 1063.53 1642.59 1093.14 1594.3 1095.15 C 1571 1096.11 1547.02 1095.42 1523.64 1095.38 L 1395.1 1095.34 L 999.249 1095.76 L 617.874 1095.92 L 508.193 1095.92 C 488.19 1095.93 468.024 1096.33 448.046 1095.69 C 397.989 1094.07 355.492 1067.81 334.158 1022.55 C 337.672 997.09 355.098 960.3 369.099 938.995 C 400.262 892.465 445.619 857.244 498.418 838.575 C 519.478 831.027 539.542 826.621 561.279 822.105 C 581.827 793.982 589.198 727.939 571.588 698.014 C 580.803 755.067 523.047 772.555 497.546 737.036 C 491.332 728.518 488.781 717.87 490.459 707.461 C 492.944 692.881 500.385 685.558 511.654 677.478 C 510.066 676.604 508.487 675.712 506.92 674.801 C 477.805 657.817 467.005 622.633 484.666 593.291 C 479.029 547.401 489.332 506.42 513.876 467.614 C 506.34 462.904 500.551 459.327 493.863 453.343 C 474.271 435.846 462.433 411.282 460.954 385.057 C 459.622 358.808 468.858 333.118 486.6 313.727 C 503.128 295.695 528.322 281.813 552.94 280.818 C 561.339 278.232 590.138 281.12 597.114 285.586 C 639.515 297.912 663.58 339.465 664.009 382.007 C 669.992 381.951 677.731 381.658 683.568 382.002 C 689.327 381.875 703.243 382.555 708.424 384.78 C 745.689 388.731 787.219 413.741 810.668 442.847 C 813.065 445.87 815.402 448.941 817.677 452.057 L 818.746 452.015 C 821.2 442.621 822.013 433.504 825.659 424.157 C 855.013 348.911 923.744 304.275 1002.63 297.949 z" fill="rgb(23,20,17)" transform="translate(0,0)"></path>
<path d="M 1002.63 297.949 C 1005.06 257.112 1031.75 227.761 1074.35 231.034 C 1091.59 232.303 1107.58 240.47 1118.71 253.687 C 1136.81 275.445 1136.14 298.13 1125.79 322.825 C 1171.86 350.481 1199.3 384.341 1215.98 434.993 C 1242.34 381.158 1277.54 345.666 1335.29 325.826 C 1385.97 308.336 1441.58 312.058 1489.48 336.149 C 1543.04 362.568 1579 410.256 1598.16 466.105 C 1606.17 489.475 1609.05 512.115 1612.66 536.438 C 1618.85 577 1622.86 617.864 1624.68 658.853 C 1625.83 686.675 1624.28 714.828 1629.98 741.951 C 1635.84 769.891 1646.04 776.4 1660.15 797.185 C 1680.12 826.617 1689.59 868.921 1688.88 904.144 L 1685.92 904.705 C 1669.48 872.289 1646.49 843.633 1618.42 820.546 C 1609.06 812.946 1569.89 785.833 1559.87 786.873 L 1557.85 786.062 C 1554.77 780.896 1519.79 771.506 1512.44 769.599 C 1495.2 801.364 1466.09 825.008 1431.46 835.359 C 1400.95 844.471 1368.07 841.062 1340.07 825.885 C 1322.1 815.971 1310.1 803.949 1298.81 786.906 C 1292.69 789.18 1258.11 801.308 1256.16 806.382 L 1254.71 807.303 C 1250.97 807.105 1242.31 812.845 1237.97 815.134 L 1236.44 813.669 C 1204.67 781.695 1208.13 654.03 1209.85 609.201 L 1209.63 607.279 C 1197.66 618.352 1189.83 625.719 1172.78 627.445 C 1171.39 627.329 1171.39 627.239 1170.15 627.764 L 1164.14 627.767 C 1163.2 627.386 1163.29 627.399 1162.29 627.442 C 1155.01 626.329 1151.64 625.061 1144.84 622.339 C 1134.49 647.486 1129.17 658.537 1111.83 679.633 C 1025.62 778.724 891.212 738.917 866.115 610.332 L 864.002 610.257 L 863.146 609.499 C 859.833 608.943 851.901 610.31 848.155 610.812 C 846.239 607.745 848.025 590.087 846.874 583.348 C 846.998 560.387 844.337 504.287 829.584 487.201 L 830.164 484.892 L 831.153 484.086 C 831.715 478.285 819.291 458.667 815.761 453.156 L 817.677 452.057 L 818.746 452.015 C 821.2 442.621 822.013 433.504 825.659 424.157 C 855.013 348.911 923.744 304.275 1002.63 297.949 z" fill="rgb(8,7,6)" transform="translate(0,0)"></path>
<path d="M 1331.76 376.927 C 1353.11 442.388 1428.45 506.225 1486.5 539.599 C 1499.92 517.576 1525 507.118 1548.25 522.533 C 1588.24 549.055 1562.62 611.458 1520.06 618.352 C 1506.96 620.774 1498.14 618.953 1486.67 613.672 C 1472.15 660.509 1470.48 715.827 1493.79 760.121 C 1494.9 762.237 1496.04 764.342 1497.2 766.435 L 1510.11 769.482 C 1490.49 801.482 1461.73 825.762 1424.69 834.604 C 1394.46 841.761 1362.63 836.742 1336.07 820.63 C 1323.01 812.623 1308.8 799.399 1301.06 785.981 C 1323.87 778.921 1343.95 776.987 1365.68 766.072 C 1399.88 748.889 1421.98 721.726 1442.16 690.061 C 1445.08 685.485 1451.91 681.909 1453.79 677.962 L 1453.04 677.038 C 1449.14 678.652 1437.21 689.108 1433.14 692.561 C 1362.96 752.041 1264.39 743.745 1226.77 652.125 C 1225.13 648.104 1223.56 644.061 1222.03 639.998 L 1221.43 641.434 C 1215.76 629.369 1216.37 616.008 1211.67 603.655 C 1209.31 583.35 1210 556.294 1210.89 535.716 C 1211.42 533.711 1211.71 532.048 1212.78 530.266 L 1213.3 539.047 C 1213.99 526.216 1214.9 515.41 1217.48 502.828 C 1229.68 443.252 1277.99 400.055 1331.76 376.927 z" fill="rgb(207,169,149)" transform="translate(0,0)"></path>
<path d="M 1210.89 535.716 C 1211.42 533.711 1211.71 532.048 1212.78 530.266 L 1213.3 539.047 C 1212.42 585.655 1210.75 594.268 1222.03 639.998 L 1221.43 641.434 C 1215.76 629.369 1216.37 616.008 1211.67 603.655 C 1209.31 583.35 1210 556.294 1210.89 535.716 z" fill="rgb(23,20,17)" transform="translate(0,0)"></path>
<path d="M 1392.87 620.919 L 1393.73 622.472 C 1376.52 674.918 1320.39 707.804 1276.02 662.594 C 1268.17 653.39 1265.47 646.062 1262.09 634.893 C 1307.7 652.897 1352.22 649.009 1392.87 620.919 z" fill="rgb(8,7,6)" transform="translate(0,0)"></path>
<path d="M 1359.21 523.985 C 1380.48 521.83 1378.84 549.42 1368.35 560.166 C 1349.1 562.726 1347.38 536.151 1359.21 523.985 z" fill="rgb(8,7,6)" transform="translate(0,0)"></path>
<path d="M 1248.08 514.892 C 1267.62 516.021 1267.29 541.46 1253.42 552.706 C 1235.81 552.347 1235.12 525.652 1248.08 514.892 z" fill="rgb(8,7,6)" transform="translate(0,0)"></path>
<path d="M 1303.48 519.392 C 1304.6 519.918 1304.7 520.195 1305.65 521.056 C 1306.29 530.725 1297.12 561.977 1291.06 569.615 C 1285.12 575.977 1274.5 580.25 1274.21 590.372 C 1273.86 602.628 1285.61 602.775 1294.58 602.722 C 1298.49 602.699 1299.21 602.449 1301.63 605.113 C 1289.69 608.583 1266.02 604.508 1271.81 586.623 C 1274.49 578.351 1285.83 571.354 1290.28 564.565 C 1298.21 552.485 1300.6 533.565 1303.48 519.392 z" fill="rgb(8,7,6)" transform="translate(0,0)"></path>
<path d="M 1517.12 544.241 C 1527.91 543.31 1534.88 543.286 1542.86 552.128 C 1543.58 552.932 1542.96 554.479 1542.33 554.459 C 1539.59 554.372 1536.53 550.025 1533.6 548.642 C 1527.94 545.964 1523.45 545.801 1517.5 547.883 C 1515.57 548.601 1513.97 548.663 1512.88 550.486 C 1513.32 552.254 1521.5 552.916 1524.51 557.891 C 1530.74 568.182 1526.56 576.415 1518.22 583.283 C 1515.65 584.695 1507.59 589.011 1505.3 587.653 C 1501.38 585.063 1509.98 583.737 1511.21 583.316 C 1529.2 577.159 1529.37 553.374 1507.99 554.279 C 1505.32 554.392 1502.96 558.385 1501.53 560.546 C 1493.72 561.087 1504.89 551.452 1506.05 550.498 C 1509.72 547.464 1512.85 546.033 1517.12 544.241 z" fill="rgb(8,7,6)" transform="translate(0,0)"></path>
<path d="M 1369.88 479.186 C 1382 478.81 1393.14 482.82 1400.17 493.412 C 1402.79 497.35 1400 499.777 1397.48 494.89 C 1396.17 492.347 1393.38 489.852 1391.21 488.02 C 1375.47 479.818 1371.42 480.592 1355.23 487.468 C 1354.9 487.402 1353.97 486.694 1354 486.394 C 1354.47 482.442 1367.03 479.795 1369.88 479.186 z" fill="rgb(8,7,6)" transform="translate(0,0)"></path>
<path d="M 1243.33 476.224 C 1252.95 475.508 1260.42 475.707 1269.11 480.416 C 1270.11 480.959 1273.51 483.265 1271.68 484.666 C 1270.19 485.807 1264.88 481.675 1262.78 480.846 C 1256.88 478.517 1252.07 478.828 1245.84 478.847 C 1236.32 481.823 1231.93 483.27 1226.23 491.544 C 1225.44 492.696 1222.74 490.744 1224.45 488.374 C 1229.16 481.865 1235.93 478.725 1243.33 476.224 z" fill="rgb(8,7,6)" transform="translate(0,0)"></path>
<path d="M 883.88 435.225 C 933.874 446.841 972.331 434.584 997.96 387.553 C 1017.51 437.675 1063.06 462.707 1115.15 463.901 C 1130.38 493.734 1137.52 523.906 1141.46 556.914 C 1143.2 550.297 1144.58 545.364 1148.88 539.86 C 1163.88 520.66 1194.02 515.439 1210.89 535.716 C 1210 556.294 1209.31 583.35 1211.67 603.655 L 1209.63 607.279 C 1197.66 618.352 1189.83 625.719 1172.78 627.445 C 1171.39 627.329 1171.39 627.239 1170.15 627.764 L 1164.14 627.767 C 1163.2 627.386 1163.29 627.399 1162.29 627.442 C 1155.01 626.329 1151.64 625.061 1144.84 622.339 C 1134.49 647.486 1129.17 658.537 1111.83 679.633 C 1025.62 778.724 891.212 738.917 866.115 610.332 C 858.236 560.525 858.052 479.275 883.88 435.225 z" fill="rgb(169,132,112)" transform="translate(0,0)"></path>
<path d="M 1058.84 629.963 C 1059.05 633.057 1055.76 640.716 1054.3 643.629 C 1030.84 690.359 976.561 708.649 939.859 665.257 C 932.595 654.849 930.962 649.927 927.279 638.152 C 936.574 643.097 946.486 646.782 956.754 649.11 C 993.679 657.652 1027.23 649.668 1058.84 629.963 z" fill="rgb(8,7,6)" transform="translate(0,0)"></path>
<path d="M 1040.24 520.737 C 1059.29 520.318 1059.51 546.555 1047.51 557.896 C 1033.89 559.405 1032.63 548.898 1032.07 537.215 C 1031.74 530.207 1035.31 525.353 1040.24 520.737 z" fill="rgb(8,7,6)" transform="translate(0,0)"></path>
<path d="M 920.964 517.875 C 938.776 520.679 938.429 547.48 924.345 556.899 C 907.105 552.617 906.632 526.574 920.964 517.875 z" fill="rgb(8,7,6)" transform="translate(0,0)"></path>
<path d="M 979.009 522.288 L 980.769 523.826 C 982.038 533.854 972.79 563.291 966.594 571.317 C 961.527 577.881 945.571 584.871 950.747 597.242 C 954.528 606.282 968.574 602.333 975.369 604.869 L 975.75 607.443 C 968.355 607.671 964.378 607.455 957.136 606.817 C 931.834 591.631 957.948 577.835 966.455 565.585 C 973.221 555.844 976.328 534.555 979.009 522.288 z" fill="rgb(8,7,6)" transform="translate(0,0)"></path>
<path d="M 1180.75 550.198 C 1186.06 550.429 1190.95 551.428 1195.24 554.7 C 1196.29 555.5 1201.13 559.501 1199.51 560.894 C 1193.85 561.491 1194.53 549.046 1169.36 555.831 C 1178.17 560.001 1188 564.493 1184.62 577.391 C 1182.41 585.78 1175.58 589.99 1168.24 593.774 C 1165.86 594.007 1163.49 594.521 1161.33 593.486 L 1161.29 592.844 L 1161.49 592.571 L 1161.49 592.476 C 1163.32 590.294 1167.52 590.725 1170.56 589.186 C 1183.78 582.487 1186.85 564.997 1170.46 560.286 C 1163.96 558.418 1161.56 563.785 1157.98 567.643 C 1156.48 569.213 1155.57 563.892 1157.37 563.31 C 1164.34 554.929 1170.4 552.212 1180.75 550.198 z" fill="rgb(8,7,6)" transform="translate(0,0)"></path>
<path d="M 1045.39 478.168 C 1058.43 477.184 1066.82 478.337 1076.11 488.293 C 1077.04 489.285 1083.21 495.737 1078.39 495.676 C 1078.41 495.676 1072.13 488.369 1071.38 487.578 C 1051.55 473.01 1036.56 487.68 1033.42 485.279 C 1032.97 482.183 1043.16 478.956 1045.39 478.168 z" fill="rgb(8,7,6)" transform="translate(0,0)"></path>
<path d="M 908.771 475.246 C 914.305 474.843 931.983 476.473 934.264 481.677 C 933.648 483.621 932.214 483.758 930.618 482.746 C 922.708 477.73 916.219 477.399 907.183 478.382 C 902.229 480.268 899.956 481.007 895.51 484.114 C 892.694 486.082 889.868 490.661 887.731 491.21 L 886.769 490.401 C 888.172 482.656 902.145 477.101 908.771 475.246 z" fill="rgb(8,7,6)" transform="translate(0,0)"></path>
<path d="M 1512.44 769.599 C 1519.79 771.506 1554.77 780.896 1557.85 786.062 L 1559.87 786.873 C 1569.89 785.833 1609.06 812.946 1618.42 820.546 C 1646.49 843.633 1669.48 872.289 1685.92 904.705 C 1711.7 957.59 1726.27 1008.73 1678.61 1056.36 C 1661.91 1072.89 1640.89 1084.38 1617.96 1089.53 C 1592.55 1095.35 1540.16 1093.14 1512.02 1093.16 L 1333.26 1093.16 C 1333.4 1060.5 1335.18 1020.37 1329.42 988.761 C 1316.61 918.423 1282.62 864.765 1224.68 823.64 L 1237.97 815.134 C 1242.31 812.845 1250.97 807.105 1254.71 807.303 L 1256.16 806.382 C 1258.11 801.308 1292.69 789.18 1298.81 786.906 C 1310.1 803.949 1322.1 815.971 1340.07 825.885 C 1368.07 841.062 1400.95 844.471 1431.46 835.359 C 1466.09 825.008 1495.2 801.364 1512.44 769.599 z" fill="rgb(229,204,114)" transform="translate(0,0)"></path>
<path d="M 1512.44 769.599 C 1519.79 771.506 1554.77 780.896 1557.85 786.062 C 1513.28 891.152 1381.07 930.251 1292.45 854.601 C 1276.4 840.909 1266.26 824.591 1256.16 806.382 C 1258.11 801.308 1292.69 789.18 1298.81 786.906 C 1310.1 803.949 1322.1 815.971 1340.07 825.885 C 1368.07 841.062 1400.95 844.471 1431.46 835.359 C 1466.09 825.008 1495.2 801.364 1512.44 769.599 z" fill="rgb(207,169,149)" transform="translate(0,0)"></path>
<path d="M 1256.16 806.382 C 1266.26 824.591 1276.4 840.909 1292.45 854.601 C 1381.07 930.251 1513.28 891.152 1557.85 786.062 L 1559.87 786.873 C 1547.18 824.692 1511.25 860.059 1476.02 877.657 C 1435.07 898.436 1387.5 901.933 1343.95 887.368 C 1305.25 874.334 1273.41 846.277 1255.62 809.517 C 1255.23 808.699 1255.03 808.145 1254.71 807.303 L 1256.16 806.382 z" fill="rgb(23,20,17)" transform="translate(0,0)"></path>
<path d="M 566.889 599.753 C 579.124 587.846 592.307 571.598 599.154 555.897 C 610.207 530.548 612.622 516.034 631.801 494.808 C 656.192 467.528 690.471 451.122 727.017 449.236 C 765.582 447.367 801.228 461.369 829.584 487.201 C 844.337 504.287 846.998 560.387 846.874 583.348 C 848.025 590.087 846.239 607.745 848.155 610.812 C 849.518 619.956 848.338 630.373 848.153 639.682 C 846.681 713.468 813.157 779.663 735.438 793.56 L 734.971 790.907 C 670.305 796.977 620.991 762.52 583.94 712.733 C 575.367 700.119 567.222 687.325 562.852 672.594 L 554.302 678.115 C 549.382 675.829 541.17 671.218 536.104 672.467 C 534.578 674.583 535.071 673.914 535.55 677.404 C 531.196 678.196 529.242 678.279 524.846 678.223 C 526.942 677.821 528.044 677.443 530.022 676.784 L 529.319 675.595 C 522.545 673.633 520.329 673.906 514.078 676.368 C 505.183 671.098 499.005 667.476 492.116 659.345 C 482.255 647.734 477.526 632.62 479.01 617.459 C 481.413 592.099 502.628 572.953 528.782 575.585 C 545.166 577.234 556.915 587.192 566.889 599.753 z" fill="rgb(169,132,112)" transform="translate(0,0)"></path>
<path d="M 846.874 583.348 C 848.025 590.087 846.239 607.745 848.155 610.812 C 849.518 619.956 848.338 630.373 848.153 639.682 C 846.681 713.468 813.157 779.663 735.438 793.56 L 734.971 790.907 C 807.834 780.347 840.252 717.151 845.303 649.75 C 845.074 647.499 844.838 647.227 845.754 645.315 C 846.182 633.019 845.323 593.369 846.874 583.348 z" fill="rgb(23,20,17)" transform="translate(0,0)"></path>
<path d="M 845.754 645.315 C 846.172 647.324 846.532 647.99 845.303 649.75 C 845.074 647.499 844.838 647.227 845.754 645.315 z" fill="rgb(88,73,58)" transform="translate(0,0)"></path>
<path d="M 657.961 674.825 C 664.901 678.47 672.412 684.872 681.697 689.352 C 717.931 706.832 751.537 707.06 788.938 694.943 C 786.324 706.706 782.056 713.79 775.237 723.254 C 765.643 734.727 754.499 743.28 739.482 746.033 C 722.82 748.927 705.695 744.96 692.003 735.033 C 672.309 720.981 661.802 698.149 657.961 674.825 z" fill="rgb(8,7,6)" transform="translate(0,0)"></path>
<path d="M 796.306 570.603 C 816.064 570.103 815.165 597.842 802.392 608.681 C 791.231 609.241 787.428 599.413 787.264 589.496 C 787.128 581.268 790.638 576.208 796.306 570.603 z" fill="rgb(8,7,6)" transform="translate(0,0)"></path>
<path d="M 686.118 574.588 C 702.802 579.138 703.494 604.254 688.908 613.461 C 671.463 609.782 671.904 583.176 686.118 574.588 z" fill="rgb(8,7,6)" transform="translate(0,0)"></path>
<path d="M 744.956 575.312 L 747.618 576.446 C 752.041 587.258 750.831 601.103 758.228 615.015 C 765.393 628.493 787.822 641.431 780.181 655.603 C 777.311 660.925 759.018 662.125 753.05 662.001 C 752.644 661.817 751.828 660.931 751.452 660.567 C 753.847 657.912 770.215 659.78 775.698 654.404 C 777.799 652.337 778.877 649.445 778.639 646.507 C 777.99 639.164 770.61 634.59 765.242 630.346 C 752.704 620.434 746.485 590.833 744.956 575.312 z" fill="rgb(8,7,6)" transform="translate(0,0)"></path>
<path d="M 515.132 603.203 C 524.864 602.311 529.373 602.25 538.274 607.667 C 541.25 609.478 551.743 620.433 546.973 621.152 C 543.691 619.328 540.74 612.475 536.025 613.334 C 519.45 616.353 517.521 634.09 532.008 642.126 C 537.145 644.975 542.967 641.942 542.515 647.107 C 537.744 647.085 535.81 647.348 532.15 645.657 C 514.601 637.545 514.029 614.965 534.604 610.563 C 535.161 610.443 535.008 608.916 534.145 608.436 C 527.709 604.859 519.374 604.364 512.544 607.099 C 510.948 607.116 505.44 613.158 504.589 612.759 C 498.566 609.93 513.446 603.859 515.132 603.203 z" fill="rgb(8,7,6)" transform="translate(0,0)"></path>
<path d="M 681.548 530.328 C 683.035 530.468 684.521 530.619 686.007 530.78 C 688.831 531.096 702.324 534.08 701.624 538.221 C 699.642 539.413 698.372 538.036 696.436 537.103 C 687.35 532.73 679.36 532.831 669.919 535.928 C 666.791 537.571 655.102 547.064 654.723 546.983 C 654.05 545.422 655.067 543.819 656.068 542.622 C 663.163 534.141 670.923 531.646 681.548 530.328 z" fill="rgb(8,7,6)" transform="translate(0,0)"></path>
<path d="M 802.865 532.219 C 816.161 532.048 824.63 537.104 832.535 547.68 C 833.307 548.713 831.323 549.892 831.017 549.628 C 827.325 546.445 824.938 543.288 820.854 540.04 C 805.818 531.99 800.557 535.146 786.804 540.534 C 786.554 540.632 786.242 540.134 786.085 539.853 C 786.094 535.408 799.434 532.834 802.865 532.219 z" fill="rgb(8,7,6)" transform="translate(0,0)"></path>
<path d="M 683.568 382.002 C 689.327 381.875 703.243 382.555 708.424 384.78 C 745.689 388.731 787.219 413.741 810.668 442.847 C 813.065 445.87 815.402 448.941 817.677 452.057 L 815.761 453.156 C 819.291 458.667 831.715 478.285 831.153 484.086 L 830.164 484.892 C 810.332 460.333 763.906 446.586 733.409 446.448 C 682.239 446.487 635.294 474.841 611.444 520.113 C 607.118 528.307 603.874 538.184 600.292 546.852 C 592.009 566.897 582.262 580.845 567.043 595.947 C 565.245 593.844 563.378 591.801 561.443 589.822 C 538.292 566.136 509.728 567.785 486.698 590.386 C 483.08 547.48 491.559 504.209 516.088 468.859 C 548.811 421.699 599.404 390.398 656.648 385.111 C 664.856 384.353 674.519 383.681 682.596 382.186 L 683.568 382.002 z" fill="rgb(88,73,58)" transform="translate(0,0)"></path>
<path d="M 708.424 384.78 C 745.689 388.731 787.219 413.741 810.668 442.847 C 813.065 445.87 815.402 448.941 817.677 452.057 L 815.761 453.156 C 792.004 418.632 759.389 399.337 719.615 389.08 C 716.332 388.234 710.75 387.103 708.424 384.78 z" fill="rgb(23,20,17)" transform="translate(0,0)"></path>
<path d="M 552.94 280.818 C 561.339 278.232 590.138 281.12 597.114 285.586 C 596.24 287.616 601.262 288.885 603.006 289.569 C 613.68 293.762 626.505 303.26 634.504 311.361 C 654.498 331.609 660.779 354.419 661.242 382.044 C 599.981 387.372 551.296 416.133 515.597 465.801 C 500.274 456.433 492.425 451.668 481.512 436.383 C 466.078 414.777 459.995 387.866 464.634 361.722 C 470.447 327.962 499.757 296.88 532.644 287.329 C 535.931 286.374 551.622 282.333 552.94 280.818 z" fill="rgb(88,73,58)" transform="translate(0,0)"></path>
<path d="M 848.155 610.812 C 851.901 610.31 859.833 608.943 863.146 609.499 L 864.002 610.257 C 872.153 663.942 904.724 708.374 954.943 729.794 C 951.703 753.827 947.767 764.714 936.51 786.319 L 927.021 789.511 C 888.797 798.806 832.192 831.798 805.944 860.874 C 792 853.215 781.416 848.084 766.453 842.641 C 761.242 840.745 741.933 835.001 738.966 833.382 C 736.809 820.326 737.016 806.932 735.438 793.56 C 813.157 779.663 846.681 713.468 848.153 639.682 C 848.338 630.373 849.518 619.956 848.155 610.812 z" fill="rgb(251,249,249)" transform="translate(0,0)"></path>
<path d="M 583.94 712.733 C 620.991 762.52 670.305 796.977 734.971 790.907 L 735.438 793.56 C 737.016 806.932 736.809 820.326 738.966 833.382 L 738.157 835.441 C 743.205 837.799 748.808 839.415 754.137 841.112 C 710.578 915.515 602.401 914.028 553.304 846.131 C 549.205 840.463 546.283 834.786 543.093 828.603 C 549.978 827.003 556.874 825.452 563.78 823.948 C 579.156 797.861 585.164 769.898 584.046 739.955 C 583.736 731.626 581.232 722.515 581.395 714.52 L 583.94 712.733 z" fill="rgb(169,132,112)" transform="translate(0,0)"></path>
<path d="M 583.94 712.733 C 620.991 762.52 670.305 796.977 734.971 790.907 L 735.438 793.56 C 737.016 806.932 736.809 820.326 738.966 833.382 L 738.157 835.441 C 730.289 834.518 722.451 834.057 714.674 833.081 C 666.156 826.993 628.621 795.119 603.749 754.46 C 597.375 744.042 588.904 723.918 582.009 715.276 L 581.395 714.52 L 583.94 712.733 z" fill="rgb(8,7,6)" transform="translate(0,0)"></path>
<path d="M 1209.85 609.201 C 1208.13 654.03 1204.67 781.695 1236.44 813.669 L 1222.62 822.148 C 1190.8 800.864 1164.39 791.898 1128.46 782.231 C 1114.2 755.547 1112.03 717.121 1113.92 687.598 L 1114.59 680.193 C 1131.03 659.959 1136.41 649.601 1146.23 625.431 C 1171.4 635.307 1192.22 629.092 1209.85 609.201 z" fill="rgb(251,249,249)" transform="translate(0,0)"></path>
<path d="M 524.846 678.223 C 529.242 678.279 531.196 678.196 535.55 677.404 C 536.482 678.269 539.008 679.954 538.831 681.443 C 538.636 681.641 524.738 684.869 524.846 678.223 z" fill="rgb(229,204,114)" transform="translate(0,0)"></path>
<path d="M 1170.15 627.764 C 1171.39 627.239 1171.39 627.329 1172.78 627.445 C 1171.61 628.022 1171.63 627.877 1170.15 627.764 z" fill="rgb(88,73,58)" transform="translate(0,0)"></path>
<path d="M 1162.29 627.442 C 1163.29 627.399 1163.2 627.386 1164.14 627.767 C 1163.25 627.74 1163.04 627.842 1162.29 627.442 z" fill="rgb(88,73,58)" transform="translate(0,0)"></path>
<path d="M 490.991 843.975 C 495.168 844.74 499.729 861.136 502.415 865.768 C 572.114 985.933 738.089 985.045 802.579 861.914 C 820.443 872.373 836.938 885.013 851.684 899.542 C 906.189 953.1 926.63 1018.65 927.361 1093.37 L 866.5 1093.35 L 575.99 1093.39 L 492.883 1093.41 C 476.281 1093.44 459.595 1093.76 443.02 1092.84 C 397.406 1090.31 355.514 1064.12 336.732 1021.86 C 357.695 934.728 410.323 879.615 490.991 843.975 z" fill="rgb(251,249,249)" transform="translate(0,0)"></path>
<path d="M 1178.5 801.327 C 1203.21 809.639 1239.7 835.944 1258.22 854.55 C 1299.52 896.221 1324.84 951.083 1329.78 1009.54 C 1331.92 1033.69 1330.92 1068.21 1330.89 1093.15 L 929.974 1093.27 C 930.335 1073.33 928.725 1053.4 925.166 1033.77 C 908.121 958.199 874.306 904.424 808.346 862.32 C 826.315 843.994 851.599 825.041 874.582 813.545 C 875.703 816.404 876.881 819.241 878.115 822.053 C 894.42 859.511 924.97 886.278 962.724 900.987 C 1004.16 917.267 1050.42 916.069 1090.96 897.666 C 1135.92 877.69 1161.34 846.173 1178.5 801.327 z" fill="rgb(251,249,249)" transform="translate(0,0)"></path>
<path d="M 1133.17 785.855 C 1148.75 790.079 1161.37 793.993 1176.29 800.017 C 1167.16 824.635 1157.01 843.07 1138.35 861.835 C 1107.91 892.413 1066.62 909.718 1023.48 909.975 C 978.459 910.106 938.539 892.758 906.858 861.142 C 891.693 844.762 885.479 832.279 876.24 812.287 C 891.369 804.221 904.06 799.633 920.086 793.781 C 930.776 814.486 946.816 830.156 967.327 841.092 C 995.686 855.953 1028.79 858.927 1059.34 849.359 C 1094.03 838.781 1116.44 817.191 1133.17 785.855 z" fill="rgb(207,169,149)" transform="translate(0,0)"></path>
<path d="M 538.685 829.095 C 541.431 829.362 542.736 833.356 543.946 835.677 C 556.018 858.83 576.66 877.61 600.846 888.223 C 632.459 902.273 668.352 903.221 700.662 890.859 C 723.404 881.923 745.883 864.314 755.79 841.632 C 773.843 847.2 783.748 852.215 800.433 860.805 C 789.939 880.525 784.986 887.897 770.015 904.23 C 752.513 921.928 731.095 935.264 707.49 943.161 C 622.651 972.183 524.953 928.783 495.686 842.666 C 507.83 837.174 525.514 832.71 538.685 829.095 z" fill="rgb(207,169,149)" transform="translate(0,0)"></path>
<path d="M 1110.75 685.095 C 1111.78 693.71 1111.02 706.462 1111.23 715.504 C 1111.77 738.131 1115.7 759.13 1124.33 780.109 C 1125.44 782.791 1127.57 784.013 1129.93 785.677 C 1128.25 797.145 1105.11 820.673 1094.83 828.311 C 1069.15 847.608 1036.78 855.736 1005.04 850.855 C 970.597 845.591 938.573 824.577 922.517 793.286 L 933.09 789.795 L 937.017 789.492 C 937.796 788.728 940.868 785.692 941.749 785.732 C 1021.76 789.387 1064.67 748.166 1110.75 685.095 z" fill="rgb(169,132,112)" transform="translate(0,0)"></path>
<path d="M 538.084 675.901 C 547.808 675.635 561.564 684.862 565.864 693.361 C 575.942 713.279 570.457 736.735 550.63 747.566 C 541.33 752.761 530.306 753.913 520.133 750.754 C 496.511 743.348 488.564 721.375 495.676 698.858 C 499.521 690.712 507.118 680.38 516.719 679.086 L 517.862 680.131 C 513.225 687.788 509.455 689.688 506.341 699.06 C 497.383 726.022 531.415 747.779 551.219 725.927 C 556.523 720.125 559.276 712.437 558.859 704.587 C 557.867 688.303 548.141 684.72 538.084 675.901 z" fill="rgb(229,204,114)" transform="translate(0,0)"></path>
<path d="M 519.109 683.702 C 530.251 684.829 533.551 684.45 544.33 684.335 C 560.012 698.162 561.158 716.602 543.401 729.233 C 511.791 742.029 496.078 704.36 519.109 683.702 z" fill="rgb(251,249,249)" transform="translate(0,0)"></path>
<path d="M 560.09 676.652 C 562.18 678.57 566.561 684.481 564.033 687.111 C 558.579 681.764 555.296 682.111 560.09 676.652 z" fill="rgb(251,249,249)" transform="translate(0,0)"></path>
<metadata><recraft-signature>{"signed_by": "recraft", "signature_b64": "OLJCpZFmUrEeqmoe74dn3MEYpIibdlyIvIckKtItYnFK0PfvtCTsqLQW4WSxwLT2wsfyK8sZTJdfoypusKH5Cg==", "signing_algo": "Ed25519", "generation_timestamp": 1779106941, "identifier": "f143a59c-18dd-4daa-b6c5-7c53f301b0d0"}</recraft-signature></metadata></svg>