<svg xmlns="http://www.w3.org/2000/svg" height="1216" preserveAspectRatio="none" style="display: block;" version="1.1" viewBox="0 0 1509 2048" width="896">
<path d="M 0 0 L 1509 0 L 1509 2048 L 1504.13 2048 L 1221.06 2048 L 1177.42 2048 L 331.581 2048 L 287.806 2048 L 6.03188 2048 L 0 2048 L 0 0 z" fill="rgb(255,255,255)" transform="translate(0,0)"></path>
<path d="M 275.917 921.858 C 260.136 877.403 253.726 825.701 254.817 778.634 C 258.418 663.854 298.472 553.202 369.173 462.711 C 422.332 395.08 499.229 333.456 579.973 303.243 C 633.482 283.221 700.915 268.583 758.159 269.951 L 759.08 270.057 C 769.548 269.964 780.433 271.949 790.813 273.023 C 825.082 276.569 855.222 284.652 888.278 292.98 C 911.6 302.299 935.937 307.733 959.211 319.402 C 1085.15 377.835 1177.39 483.813 1224.5 613.677 C 1257.32 704.16 1270.29 828.849 1233.98 920.036 C 1252.87 905.445 1270.89 896.422 1295.34 899.457 C 1315.92 902.011 1335.8 914.002 1347.8 930.757 C 1400.96 1005.04 1364.98 1124.84 1295.76 1176.74 C 1273.46 1193.46 1247.6 1204.23 1220.24 1197.41 C 1220.19 1266.28 1188.11 1321.01 1140.01 1369.02 C 1111.39 1397.11 1078.7 1420.73 1043.03 1439.08 C 1034.95 1443.17 979.405 1464.84 977.814 1466.75 C 971.369 1466.98 963.375 1469.82 957.215 1471.57 C 945.779 1474.84 909.628 1484.58 899.243 1483.97 C 893.756 1488.42 889.579 1492.78 883.028 1495.07 C 849.553 1522.96 807.859 1539.11 764.331 1541.04 C 716.148 1543 665.097 1528.04 629.29 1494.9 C 618.223 1493.62 617.804 1492.08 609.93 1484.49 C 583.492 1480.19 559.43 1471.93 535.947 1467.59 L 534.34 1468.8 C 532.675 1465.03 499.016 1455.19 492.257 1452.52 C 452.093 1436.88 415.01 1414.27 382.722 1385.73 C 343.713 1350.63 307.13 1297.8 295.009 1246.13 C 291.602 1231.6 290.294 1212.81 289.53 1197.85 C 247.35 1206.13 214.074 1182.07 187.045 1152.31 C 135.806 1095.89 111.649 983.45 167.752 923.063 C 181.517 908.163 200.679 899.403 220.953 898.741 C 242.955 898.01 260.205 907.198 275.917 921.858 z" fill="rgb(236,174,141)" transform="translate(0,0)"></path>
<path d="M 756.704 274.245 C 758.31 277.509 757.789 279.499 758.118 283.185 C 757.989 285.225 757.772 287.257 757.466 289.278 C 740.582 401.275 653.821 513.04 529.692 493.132 C 541.748 488.617 557.015 485.23 570.816 479.915 C 672.306 440.824 714.771 368.059 756.704 274.245 z" fill="rgb(81,55,41)" transform="translate(0,0)"></path>
<path d="M 888.278 292.98 C 898.104 338.142 879.864 412.733 854.604 452.181 C 832.619 486.67 797.906 511.084 758.015 520.112 C 743.843 523.174 738.634 522.76 725.074 523.286 L 722.947 520.399 C 730.253 517.896 737.421 515.005 744.42 511.739 C 816.38 478.379 857.364 409.453 877.25 335.178 C 880.63 322.553 883.72 304.683 888.278 292.98 z" fill="rgb(81,55,41)" transform="translate(0,0)"></path>
<path d="M 959.211 319.402 C 961.39 324.29 962.051 335.509 962.076 341.137 C 962.515 439.422 908.772 528.312 803.088 530.067 L 802.801 529.625 C 803.252 528.606 824.522 518.838 827.677 517.274 C 893.301 484.741 932.775 419.468 951.155 350.617 C 953.808 340.681 955.924 329.726 959.016 320.003 L 959.211 319.402 z" fill="rgb(81,55,41)" transform="translate(0,0)"></path>
<path d="M 883.028 1495.07 L 880.011 1490.26 C 880.613 1486.49 894.534 1471.76 898.206 1469.53 C 915.374 1459.09 926.488 1422.73 937.379 1412.14 L 938.521 1412.49 C 938.684 1433.21 913.436 1470.14 899.243 1483.97 C 893.756 1488.42 889.579 1492.78 883.028 1495.07 z" fill="rgb(136,88,73)" transform="translate(0,0)"></path>
<path d="M 609.93 1484.49 C 594.557 1466.76 571.397 1436.19 569.845 1412.07 L 570.825 1411.43 C 575.982 1416.22 580.733 1428.6 584.637 1435.15 C 592.956 1449.09 598.904 1459.47 611.214 1470.45 C 615.362 1474.14 629.483 1486.23 630.557 1490.79 L 629.29 1494.9 C 618.223 1493.62 617.804 1492.08 609.93 1484.49 z" fill="rgb(136,88,73)" transform="translate(0,0)"></path>
<path d="M 758.159 269.951 L 759.08 270.057 C 759.195 275.261 759.155 278.132 758.118 283.185 C 757.789 279.499 758.31 277.509 756.704 274.245 C 757.155 272.726 757.621 271.433 758.159 269.951 z" fill="rgb(113,73,61)" transform="translate(0,0)"></path>
<path d="M 725.074 523.286 C 723.683 523.225 718.833 523.253 717.917 522.467 C 718.522 521.409 721.839 520.718 722.947 520.399 L 725.074 523.286 z" fill="rgb(113,73,61)" transform="translate(0,0)"></path>
<path d="M 578.345 1228.17 C 558.105 1255.38 535.036 1274.75 503.545 1288.52 C 499.836 1290.14 496.18 1291.81 492.509 1290.32 C 493.12 1286.63 520.053 1269.99 527.433 1263.55 C 551.487 1242.54 569.607 1220.75 579.965 1189.96 C 582.356 1182.85 585.902 1165.65 588.466 1160.98 C 591.595 1159.39 590.608 1159.28 593.277 1159.96 C 603.766 1170.88 585.313 1215.66 578.913 1226.99 L 764.662 1227.34 C 797.618 1227.47 830.575 1227.37 863.53 1227.04 C 885.345 1227 909.021 1227.61 930.655 1226.91 L 932.536 1229.6 L 930.849 1229.3 C 916.171 1278.44 898.267 1308.23 856.32 1339.56 C 783.893 1383.41 725.943 1383.96 652.998 1339.83 C 610.835 1308.08 590.51 1279.02 578.345 1228.17 z" fill="rgb(81,55,41)" transform="translate(0,0)"></path>
<path d="M 652.998 1339.83 C 657.92 1332.86 662.883 1323.67 669.017 1317.72 C 722.521 1265.87 818.068 1274.31 856.32 1339.56 C 783.893 1383.41 725.943 1383.96 652.998 1339.83 z" fill="rgb(195,133,106)" transform="translate(0,0)"></path>
<path d="M 578.345 1228.17 C 558.105 1255.38 535.036 1274.75 503.545 1288.52 C 499.836 1290.14 496.18 1291.81 492.509 1290.32 C 493.12 1286.63 520.053 1269.99 527.433 1263.55 C 551.487 1242.54 569.607 1220.75 579.965 1189.96 C 582.356 1182.85 585.902 1165.65 588.466 1160.98 C 591.595 1159.39 590.608 1159.28 593.277 1159.96 C 603.766 1170.88 585.313 1215.66 578.913 1226.99 L 764.662 1227.34 L 764.88 1228.13 L 636.472 1228.21 C 621.963 1228.19 591.214 1227.12 578.345 1228.17 z" fill="rgb(136,88,73)" transform="translate(0,0)"></path>
<path d="M 930.655 1226.91 L 932.536 1229.6 L 930.849 1229.3 C 925.227 1226.74 784.179 1228.19 764.88 1228.13 L 764.662 1227.34 C 797.618 1227.47 830.575 1227.37 863.53 1227.04 C 885.345 1227 909.021 1227.61 930.655 1226.91 z" fill="rgb(136,88,73)" transform="translate(0,0)"></path>
<path d="M 521.288 908.87 C 549.314 904.373 575.669 923.475 580.12 951.508 C 584.57 979.541 565.425 1005.87 537.384 1010.27 C 509.409 1014.66 483.16 995.573 478.72 967.605 C 474.28 939.637 493.327 913.356 521.288 908.87 z" fill="rgb(19,19,20)" transform="translate(0,0)"></path>
<path d="M 972.032 909.169 C 1000.03 904.165 1026.75 922.919 1031.57 950.954 C 1036.38 978.989 1017.44 1005.58 989.372 1010.2 C 961.577 1014.77 935.299 996.058 930.534 968.294 C 925.769 940.531 944.302 914.125 972.032 909.169 z" fill="rgb(19,19,20)" transform="translate(0,0)"></path>
<path d="M 824.499 285.045 L 827.143 286.971 C 823.579 384.196 774.946 492.786 668.186 511.132 C 655.948 513.235 644.259 513.22 631.876 513.033 C 630.706 513.027 625.286 513.361 624.49 512.367 L 624.536 512.056 C 625.67 511.11 626.639 511.028 628.092 510.725 C 642.697 505.99 656.953 500.243 670.757 493.525 C 758.371 449.967 794.972 373.444 824.499 285.045 z" fill="rgb(81,55,41)" transform="translate(0,0)"></path>
<path d="M 628.092 510.725 L 631.876 513.033 C 630.706 513.027 625.286 513.361 624.49 512.367 L 624.536 512.056 C 625.67 511.11 626.639 511.028 628.092 510.725 z" fill="rgb(136,88,73)" transform="translate(0,0)"></path>
<path d="M 692.61 275.785 C 693.002 279.047 691.981 285.351 691.148 288.557 C 662.584 398.451 571.767 483.587 454.22 460.033 C 452.567 459.755 451.316 459.23 449.73 458.686 C 450.483 458.151 476.968 453.398 480.607 452.604 C 584.113 430.045 641.329 362.791 692.61 275.785 z" fill="rgb(81,55,41)" transform="translate(0,0)"></path>
<path d="M 1283.41 965.358 C 1286.72 965.33 1290.03 965.726 1293.24 966.535 C 1305.95 969.794 1325.44 984.484 1322.23 1000.21 C 1321.79 1002.33 1320.95 1002.39 1319.29 1003.25 C 1310.84 1002.56 1309.09 990.904 1300.18 986.747 C 1270.77 973.038 1244.83 1001.42 1232.86 1026.07 C 1272.76 1036 1289.82 1073.21 1262.56 1106.9 C 1250.22 1117.98 1235.89 1122.98 1219.52 1119.64 C 1220.08 1118.87 1226.71 1116.9 1228.1 1116.29 C 1276.07 1095.2 1264.75 1045.08 1211.57 1044.98 C 1219.48 1008.77 1243.22 969.504 1283.41 965.358 z" fill="rgb(136,88,73)" transform="translate(0,0)"></path>
<path d="M 218.589 966.186 C 262.435 961.732 287.871 1009.44 298.194 1045.13 C 289.498 1044.99 280.705 1045.52 272.981 1048.94 C 240.528 1063.31 245.943 1100.22 275.621 1114.21 C 280.629 1116.58 285.319 1117.7 290.157 1119.59 C 276.972 1123.37 264.018 1118.4 253.057 1111.33 C 245.642 1104.97 240.058 1099.09 236.49 1089.8 C 232.395 1078.89 232.851 1066.79 237.753 1056.22 C 245.671 1038.96 260.426 1031.64 277.113 1025.5 C 266.551 1004.47 242.213 974.984 214.881 984.819 C 205.986 988.02 199.203 997.2 192.129 1003.38 C 188.187 1003.06 186.738 1002.28 184.782 998.95 C 184.433 983.817 205.832 970.415 218.589 966.186 z" fill="rgb(136,88,73)" transform="translate(0,0)"></path>
<path d="M 989.327 757.388 C 1000.84 756.013 1017.92 758.145 1028.8 762.021 C 1066.83 775.571 1086.18 799.977 1103.55 834.055 C 1088.95 821.783 1066.33 807.94 1049.41 799.218 C 1001.22 772.194 965.53 776.483 916.154 795.595 C 937.787 773.45 958.097 760.813 989.327 757.388 z" fill="rgb(19,19,20)" transform="translate(0,0)"></path>
<path d="M 510.212 757.414 L 511.634 757.378 C 544.224 756.86 570.749 774.106 593.376 795.648 C 590.109 794.341 586.828 793.069 583.533 791.835 C 541.052 776.06 509.528 776.435 468.175 795.3 C 447.219 804.996 424.426 820.384 406.279 834.497 C 428.128 788.489 457.64 761.335 510.212 757.414 z" fill="rgb(19,19,20)" transform="translate(0,0)"></path>
<path d="M 747.738 1036.36 C 794.3 1034.12 825.859 1063.8 833.038 1108.84 C 830.367 1104.71 827.591 1100.65 824.715 1096.66 C 809.479 1075.87 789.531 1064.05 764.238 1060.22 C 721.881 1058.37 700.639 1074.47 676.384 1106.9 C 682.601 1067.71 707.366 1040.77 747.738 1036.36 z" fill="rgb(81,55,41)" transform="translate(0,0)"></path>
<path d="M 845.927 1374.52 L 849.436 1370.94 L 850.425 1371.09 C 849.718 1372.51 849.008 1374.02 848.231 1375.39 C 840.226 1389.62 826.619 1401.54 812.445 1409.34 C 784.79 1424.73 752.108 1428.35 721.756 1419.38 C 694.893 1411.28 671.456 1393.39 658.113 1368.53 C 713.215 1418.26 787.513 1420.16 845.927 1374.52 z" fill="rgb(113,73,61)" transform="translate(0,0)"></path>
<path d="M 930.655 1226.91 C 922.489 1215.35 906.03 1172.66 913.346 1160.36 L 915.905 1159.02 C 922.425 1161.95 923.983 1174.39 925.515 1180.83 C 936.952 1228.91 973.904 1261.71 1013.73 1287.56 C 1015.71 1288.84 1015.39 1289.1 1015.09 1290.85 C 1010.35 1292.34 998.034 1284.88 993.126 1282.79 C 976.837 1275.86 937.791 1245.4 932.536 1229.6 L 930.655 1226.91 z" fill="rgb(136,88,73)" transform="translate(0,0)"></path>
<path d="M 815.018 1114.28 C 816.273 1114.15 821.684 1113.68 822.493 1114.53 C 833.567 1126.16 800.885 1133.8 794.478 1135.1 C 791.145 1135.08 785.912 1135.53 782.81 1134.29 C 781.26 1133.67 783.409 1130.34 784.015 1129.53 C 791.361 1119.8 803.561 1116.25 815.018 1114.28 z" fill="rgb(136,88,73)" transform="translate(0,0)"></path>
<path d="M 689.397 1114.05 C 699.666 1114.05 707.051 1115.95 716.007 1121.08 C 719.108 1122.85 732.189 1133.62 723.241 1135.36 C 710.848 1134.66 695.708 1132.38 686.796 1122.59 C 683.155 1118.59 685.779 1116.22 689.397 1114.05 z" fill="rgb(136,88,73)" transform="translate(0,0)"></path>
<path d="M 824.499 285.045 C 824.786 283.69 825.07 280.603 826.435 279.801 C 827.45 280.129 827.139 285.987 827.143 286.971 L 824.499 285.045 z" fill="rgb(113,73,61)" transform="translate(0,0)"></path>
<path d="M 899.243 1483.97 C 909.628 1484.58 945.779 1474.84 957.215 1471.57 C 963.375 1469.82 971.369 1466.98 977.814 1466.75 C 975.987 1473.05 974.365 1479.45 971.51 1485.35 C 976.95 1494.05 982.73 1503.69 988.447 1512.11 C 989.67 1507.97 990.827 1503.66 992.512 1499.69 C 1014.54 1503.42 1034.68 1504.82 1057.02 1510.18 C 1171.05 1537.53 1268.46 1593.95 1337.66 1690.3 C 1364.95 1728.3 1379.92 1758.13 1400.38 1798.93 C 1441.21 1880.38 1471.07 1963.53 1504.13 2048 L 1221.06 2048 L 1177.42 2048 L 331.581 2048 L 287.806 2048 L 6.03188 2048 C 9.94746 2039.07 14.359 2025.55 17.9538 2016.05 L 44.1222 1947.77 C 84.2413 1843.52 138.044 1720.34 215.185 1639.76 C 277.066 1575.13 361.371 1531.64 448.022 1511.73 C 470.193 1506.63 493.995 1501.35 516.85 1500.86 C 518.367 1504.61 519.902 1510.01 521.155 1514 C 526.503 1506.34 533.965 1493.32 538.583 1485.03 C 536.264 1479.61 535.478 1474.54 534.34 1468.8 L 535.947 1467.59 C 559.43 1471.93 583.492 1480.19 609.93 1484.49 C 617.804 1492.08 618.223 1493.62 629.29 1494.9 C 665.097 1528.04 716.148 1543 764.331 1541.04 C 807.859 1539.11 849.553 1522.96 883.028 1495.07 C 889.579 1492.78 893.756 1488.42 899.243 1483.97 z" fill="rgb(240,226,190)" transform="translate(0,0)"></path>
<path d="M 899.243 1483.97 C 909.628 1484.58 945.779 1474.84 957.215 1471.57 C 963.375 1469.82 971.369 1466.98 977.814 1466.75 C 975.987 1473.05 974.365 1479.45 971.51 1485.35 C 976.95 1494.05 982.73 1503.69 988.447 1512.11 C 989.926 1519.59 978.119 1539.01 974.148 1546.05 C 886.863 1700.76 599.112 1695.32 526.241 1528.64 C 524.494 1524.65 521.81 1518.13 521.155 1514 C 526.503 1506.34 533.965 1493.32 538.583 1485.03 C 536.264 1479.61 535.478 1474.54 534.34 1468.8 L 535.947 1467.59 C 559.43 1471.93 583.492 1480.19 609.93 1484.49 C 617.804 1492.08 618.223 1493.62 629.29 1494.9 C 665.097 1528.04 716.148 1543 764.331 1541.04 C 807.859 1539.11 849.553 1522.96 883.028 1495.07 C 889.579 1492.78 893.756 1488.42 899.243 1483.97 z" fill="rgb(236,174,141)" transform="translate(0,0)"></path>
<path d="M 899.243 1483.97 C 909.628 1484.58 945.779 1474.84 957.215 1471.57 C 963.375 1469.82 971.369 1466.98 977.814 1466.75 C 975.987 1473.05 974.365 1479.45 971.51 1485.35 C 959.663 1500.67 945.749 1514.28 930.164 1525.79 C 869.474 1571.26 786.585 1590.14 711.997 1578.81 C 644.918 1568.63 580.045 1540.42 538.583 1485.03 C 536.264 1479.61 535.478 1474.54 534.34 1468.8 L 535.947 1467.59 C 559.43 1471.93 583.492 1480.19 609.93 1484.49 C 617.804 1492.08 618.223 1493.62 629.29 1494.9 C 665.097 1528.04 716.148 1543 764.331 1541.04 C 807.859 1539.11 849.553 1522.96 883.028 1495.07 C 889.579 1492.78 893.756 1488.42 899.243 1483.97 z" fill="rgb(195,133,106)" transform="translate(0,0)"></path>
<path d="M 287.806 2048 C 311.596 1973.57 309.438 1900.15 276.658 1830.83 C 274.089 1825.4 274.871 1820.39 280.77 1817.57 C 291.367 1817.95 297.729 1831.48 302.364 1839.45 C 316.836 1864.33 325.866 1892.31 329.21 1920.88 L 332.106 1920.25 C 336.199 1906.91 354.531 1855.01 366.08 1848.96 C 368.438 1847.72 371.276 1847.42 373.793 1848.36 C 376.42 1849.33 377.779 1851.21 378.842 1853.72 C 379.369 1854.97 380.072 1856.68 379.861 1858.05 C 378.731 1865.36 368.805 1886.27 365.902 1896.3 C 358.876 1920.58 353.072 1945.3 347.194 1969.88 C 341.098 1995.36 334.449 2021.95 331.581 2048 L 287.806 2048 z" fill="rgb(233,201,119)" transform="translate(0,0)"></path>
<path d="M 329.21 1920.88 L 332.106 1920.25 C 330.664 1924.89 328.357 1929.81 329.21 1920.88 z" fill="rgb(237,219,161)" transform="translate(0,0)"></path>
<path d="M 1179.33 1927.25 C 1182.87 1897.19 1190.57 1868.36 1205.41 1841.81 C 1209.87 1833.83 1217.46 1818.27 1228.23 1818.06 C 1231.05 1819.36 1234.83 1823.44 1233.83 1826.26 C 1226.66 1846.6 1217.44 1864.37 1212.73 1885.76 C 1200.24 1942.43 1205.16 1992.66 1221.06 2048 L 1177.42 2048 C 1165.85 1986.39 1155.72 1923.57 1132.63 1864.88 C 1125.22 1846.06 1140.75 1843.98 1144.99 1849.68 C 1160.25 1870.23 1173.3 1902.18 1179.33 1927.25 z" fill="rgb(233,201,119)" transform="translate(0,0)"></path>
<path d="M 440.667 1539.83 C 446.575 1544.61 462.068 1568.35 468.7 1575.92 C 489.611 1599.81 514.407 1624.19 539.656 1643.32 C 616.089 1700.37 712.038 1724.75 806.431 1711.11 C 886.573 1699.81 957.474 1660.79 1014.26 1603.67 C 1034.28 1583.53 1053 1559.53 1070.06 1536.91 C 1066.1 1547.58 1061.62 1558.03 1056.61 1568.25 C 1051.03 1580.77 1044.49 1592.83 1037.06 1604.35 C 987.337 1679.74 909.665 1732.25 821.176 1750.3 C 676.039 1780.29 520.795 1708.1 455.257 1573.97 C 450.851 1564.96 442.658 1549.4 440.667 1539.83 z" fill="rgb(233,201,119)" transform="translate(0,0)"></path>
<metadata><recraft-signature>{"signed_by": "recraft", "signature_b64": "uPDnLsxaBmR8ccWNnw8wv8v72jKQTV44IxWeFHinlzmWxcE7M8oWd3MTwPs5LDfMkYvxh5WFJmYuI3ws++aWBQ==", "signing_algo": "Ed25519", "generation_timestamp": 1779105325, "identifier": "5153542a-54e6-4454-9184-481c1cda626d"}</recraft-signature></metadata></svg>