<svg xmlns="http://www.w3.org/2000/svg" height="1216" preserveAspectRatio="none" style="display: block;" version="1.1" viewBox="0 0 1509 2048" width="896">
<defs>
	<linearGradient gradientUnits="userSpaceOnUse" id="Gradient1" x1="642.119" x2="533.078" y1="1404.93" y2="1359.68">
		<stop class="stop0" offset="0" stop-color="rgb(31,12,8)" stop-opacity="1"></stop>
		<stop class="stop1" offset="1" stop-color="rgb(90,47,36)" stop-opacity="1"></stop>
	</linearGradient>
</defs>
<path d="M 0 0 L 1509 0 L 1509 2048 L 0 2048 L 0 0 z" fill="rgb(255,255,255)" transform="translate(0,0)"></path>
<path d="M 383.897 735.481 C 382.845 730.462 382.345 719.616 381.633 713.855 C 377.443 679.926 378.021 649.087 382.353 615.105 C 394.804 517.434 442.737 426.588 521.141 366.066 C 602.491 303.269 707.597 280.636 808.428 293.708 C 906.617 306.437 993.29 352.893 1053.13 432.393 C 1096.14 489.539 1119.37 552.888 1127.04 623.827 C 1128.59 638.126 1130.93 664.1 1129.07 678.154 C 1129.01 713.413 1122.21 772.231 1116.42 806.048 C 1124.28 805.606 1131.15 804.866 1138.82 807.399 C 1169.66 817.49 1180.02 853.266 1181.51 882.374 C 1183.73 925.984 1169.62 970.362 1140.05 1002.91 C 1118.13 1027.03 1094.06 1038.68 1062.16 1028.45 C 1041.98 1123.86 1007.03 1188.5 936.811 1255.77 C 936.419 1264.8 936.612 1271.53 936.985 1280.52 C 973.478 1288.41 1017.28 1318.78 1036.71 1350.76 C 1050.9 1374.12 1055.15 1390.37 1060.51 1416.48 C 1158.25 1430.98 1300.36 1486.29 1348.32 1579.3 C 1327.89 1603.56 1293.41 1634.61 1269.19 1654.16 C 1155.25 1746.11 1015.81 1799.39 871.94 1821.31 C 850.213 1824.62 830.577 1828.72 808.267 1830.4 C 765.394 1833.64 721.395 1833.05 678.647 1828.16 C 664.527 1826.54 649.608 1823.33 635.517 1821.12 C 485.786 1797.66 344.341 1742.8 227.538 1644.24 C 213.393 1632.43 199.804 1619.97 186.816 1606.89 C 178.334 1598.37 168.925 1587.84 160.388 1579.8 C 166.824 1568.52 172.406 1558.86 180.577 1548.72 C 230.571 1486.69 313.477 1450.19 388.442 1429.63 C 408.261 1424.11 428.387 1419.77 448.717 1416.61 C 462.568 1339.58 501.144 1304.68 572.935 1279.36 L 572.84 1256.32 C 519.08 1204.95 483.523 1153.1 460.719 1081.55 C 455.792 1066.09 449.774 1043.85 447.524 1027.86 C 430.973 1033.77 416.1 1034.94 399.676 1026.4 C 337.671 994.169 310.221 900.766 337.832 838.093 C 340.334 832.413 346.112 823.936 350.706 820.006 C 359.273 806.308 379.473 804.994 393.624 806.684 C 390.078 788.146 384.327 753.828 383.897 735.481 z" fill="rgb(238,163,131)" transform="translate(0,0)"></path>
<path d="M 1129.07 678.154 C 1129.01 713.413 1122.21 772.231 1116.42 806.048 C 1124.28 805.606 1131.15 804.866 1138.82 807.399 C 1169.66 817.49 1180.02 853.266 1181.51 882.374 C 1183.73 925.984 1169.62 970.362 1140.05 1002.91 C 1118.13 1027.03 1094.06 1038.68 1062.16 1028.45 C 1041.98 1123.86 1007.03 1188.5 936.811 1255.77 C 936.419 1264.8 936.612 1271.53 936.985 1280.52 C 973.478 1288.41 1017.28 1318.78 1036.71 1350.76 C 1050.9 1374.12 1055.15 1390.37 1060.51 1416.48 C 1158.25 1430.98 1300.36 1486.29 1348.32 1579.3 C 1327.89 1603.56 1293.41 1634.61 1269.19 1654.16 C 1155.25 1746.11 1015.81 1799.39 871.94 1821.31 C 850.213 1824.62 830.577 1828.72 808.267 1830.4 C 765.394 1833.64 721.395 1833.05 678.647 1828.16 C 664.527 1826.54 649.608 1823.33 635.517 1821.12 C 485.786 1797.66 344.341 1742.8 227.538 1644.24 C 213.393 1632.43 199.804 1619.97 186.816 1606.89 C 178.334 1598.37 168.925 1587.84 160.388 1579.8 C 166.824 1568.52 172.406 1558.86 180.577 1548.72 C 230.571 1486.69 313.477 1450.19 388.442 1429.63 C 408.261 1424.11 428.387 1419.77 448.717 1416.61 C 462.568 1339.58 501.144 1304.68 572.935 1279.36 L 572.84 1256.32 C 519.08 1204.95 483.523 1153.1 460.719 1081.55 C 455.792 1066.09 449.774 1043.85 447.524 1027.86 C 430.973 1033.77 416.1 1034.94 399.676 1026.4 C 337.671 994.169 310.221 900.766 337.832 838.093 C 340.334 832.413 346.112 823.936 350.706 820.006 C 359.273 806.308 379.473 804.994 393.624 806.684 C 390.078 788.146 384.327 753.828 383.897 735.481 L 384.488 725.378 L 386.189 724.783 C 390.875 739.25 391.627 754.311 396.606 769.366 C 403.064 788.894 408.072 808.454 417.113 827.199 C 418.261 829.766 420.062 833.838 420.866 836.406 L 418.868 838.391 L 410.271 819.321 C 388.555 804.508 370.821 805.045 351.8 823.212 C 292.604 888.991 364.645 1063.01 450.217 1022.54 C 459.206 1078.76 480.067 1132.42 511.412 1179.94 C 546.562 1232.84 589.074 1268.71 639.436 1305.85 C 667.324 1326.42 675.254 1341.69 715.545 1349.46 C 755.881 1357.24 802.867 1354 838.157 1331.28 C 847.157 1325.77 855.041 1315.68 863.605 1309.91 C 969.631 1238.49 1034.56 1150.37 1059.67 1023.67 C 1078.66 1031 1095.63 1031.3 1113.57 1020.46 C 1143.91 1001.63 1163.8 967.875 1173.13 933.324 C 1183.18 896.12 1182.1 823.779 1136.58 810.234 C 1123.74 806.411 1110.28 811.756 1099.09 818.736 C 1098.43 813.568 1112.78 810.554 1113.18 809.138 C 1119.39 787.027 1121.35 759.552 1123.59 736.943 C 1124.73 725.508 1124.86 683.936 1129.07 678.154 z" fill="rgb(77,35,23)" transform="translate(0,0)"></path>
<path d="M 164.918 1579.3 C 205.137 1491.88 358.939 1431.65 448.372 1419.79 L 447.955 1425.75 C 443.296 1494.91 458.159 1559.14 487.549 1621.9 C 496.075 1640.11 507.641 1660.68 520.9 1675.85 L 525.068 1681.41 C 527.529 1670.94 531.331 1662.49 535.809 1652.88 C 551.384 1624.17 577.622 1599.96 608.349 1588.71 C 665.123 1567.92 725.867 1612.16 747.883 1663.21 C 750.146 1668.46 752.085 1673.51 754.008 1678.89 C 770.317 1640.82 787.113 1617.09 823.465 1595.45 C 848.448 1582.63 871.146 1579.63 898.493 1588.22 C 928.461 1597.63 958.097 1623.95 972.352 1651.94 C 977.424 1662.47 980.633 1670.27 983.864 1681.69 C 985.598 1679.48 987.639 1677.02 989.246 1674.76 C 1039.5 1608.07 1069.47 1503.08 1060.63 1419.83 C 1077.25 1422.31 1099.39 1427.17 1115.51 1431.89 C 1203.41 1457.61 1297.06 1495.53 1344.32 1578.74 C 1332.16 1592.11 1319.48 1604.99 1306.29 1617.33 C 1189.4 1727.89 1034.35 1792.28 876.916 1817.42 C 822.676 1826.08 787.341 1831.2 731.149 1828.86 C 690.407 1827.16 669.433 1823.37 630.05 1816.96 C 474.204 1791.57 329.346 1731.61 210.807 1625.43 C 194.816 1611.11 179.637 1594.88 164.918 1579.3 z" fill="rgb(211,171,104)" transform="translate(0,0)"></path>
<path d="M 933.862 1258.25 C 933.501 1272.7 933.484 1284.39 933.901 1298.97 C 934.039 1305.19 934.053 1311.89 934.344 1318.07 C 936.046 1345.11 937.553 1368.1 944.682 1394.63 C 898.495 1434.95 841.463 1492.02 808.702 1543.9 C 780.397 1587.93 769.815 1612.05 754.148 1662.67 C 753.104 1659.13 751.748 1654.02 750.523 1650.68 L 746.769 1650.47 C 744.931 1649.28 744.722 1648.26 743.678 1646.24 C 729.836 1608.03 686.562 1542.56 649.699 1522.95 C 606.202 1499.81 560.6 1572.52 545.61 1605.59 C 539.715 1618.62 534.748 1632.05 530.747 1645.78 C 529.168 1652.32 525.518 1669.14 522.751 1674.1 C 466.083 1598.22 425.624 1458.9 466.565 1366.66 C 485.319 1324.41 530.677 1297.51 573.076 1282.95 C 573.036 1292.9 570.861 1310.6 572.525 1319.62 C 573.824 1319.5 573.597 1319.1 574.971 1317.55 L 575.266 1303.81 C 576.238 1288.16 576.135 1274.37 575.913 1258.79 C 597.175 1277.52 616.928 1293.79 640.06 1310.21 C 649.8 1317.38 658.326 1326.38 668.18 1333.38 C 690.02 1348.88 718.842 1355.46 745.235 1356.57 C 778.519 1357.98 813.379 1352.01 841.286 1332.98 C 851.61 1325.88 860.42 1316.63 870.576 1309.34 C 892.876 1293.33 913.563 1276.77 933.862 1258.25 z" fill="rgb(238,163,131)" transform="translate(0,0)"></path>
<path d="M 522.751 1674.1 C 466.083 1598.22 425.624 1458.9 466.565 1366.66 C 485.319 1324.41 530.677 1297.51 573.076 1282.95 C 573.036 1292.9 570.861 1310.6 572.525 1319.62 C 573.824 1319.5 573.597 1319.1 574.971 1317.55 C 572.945 1348.67 571.388 1364.88 564.14 1395.04 C 571.039 1400.97 589.445 1416.2 594.619 1422.42 C 597.548 1424.69 600.525 1427.86 603.078 1430.57 C 610.55 1437.25 617.414 1444.37 624.453 1451.5 L 622.559 1453.47 C 676.497 1511.15 720.86 1568.58 745.638 1645.14 L 743.678 1646.24 C 729.836 1608.03 686.562 1542.56 649.699 1522.95 C 606.202 1499.81 560.6 1572.52 545.61 1605.59 C 539.715 1618.62 534.748 1632.05 530.747 1645.78 C 529.168 1652.32 525.518 1669.14 522.751 1674.1 z" fill="rgb(211,171,104)" transform="translate(0,0)"></path>
<path d="M 572.525 1319.62 C 573.824 1319.5 573.597 1319.1 574.971 1317.55 C 572.945 1348.67 571.388 1364.88 564.14 1395.04 C 571.039 1400.97 589.445 1416.2 594.619 1422.42 C 597.548 1424.69 600.525 1427.86 603.078 1430.57 C 610.55 1437.25 617.414 1444.37 624.453 1451.5 L 622.559 1453.47 C 609.463 1439.92 595.917 1426.97 581.82 1414.32 C 569.705 1402.98 553.286 1392.49 543.169 1379.49 C 534.073 1367.81 533.124 1348 542.653 1336.26 C 551.479 1325.4 558.962 1321.48 572.525 1319.62 z" fill="url(#Gradient1)" transform="translate(0,0)"></path>
<path d="M 594.619 1422.42 C 597.548 1424.69 600.525 1427.86 603.078 1430.57 C 600.428 1430 593.14 1424.85 594.619 1422.42 z" fill="rgb(26,10,7)" transform="translate(0,0)"></path>
<path d="M 933.862 1258.25 C 933.501 1272.7 933.484 1284.39 933.901 1298.97 L 933.062 1299.6 C 923.83 1306.64 914.871 1316.39 905.802 1324 C 853.229 1368.1 808.924 1407.87 734.822 1399.09 C 671.022 1391.53 630.207 1345.69 582.889 1306.94 C 580.243 1304.78 579.419 1303.52 576.161 1303.06 L 575.266 1303.81 C 576.238 1288.16 576.135 1274.37 575.913 1258.79 C 597.175 1277.52 616.928 1293.79 640.06 1310.21 C 649.8 1317.38 658.326 1326.38 668.18 1333.38 C 690.02 1348.88 718.842 1355.46 745.235 1356.57 C 778.519 1357.98 813.379 1352.01 841.286 1332.98 C 851.61 1325.88 860.42 1316.63 870.576 1309.34 C 892.876 1293.33 913.563 1276.77 933.862 1258.25 z" fill="rgb(234,131,77)" transform="translate(0,0)"></path>
<path d="M 624.453 1451.5 C 671.451 1499.94 715.908 1557.35 739.989 1620.75 C 742.589 1627.59 748.982 1643.68 750.523 1650.68 L 746.769 1650.47 C 744.931 1649.28 744.722 1648.26 743.678 1646.24 L 745.638 1645.14 C 720.86 1568.58 676.497 1511.15 622.559 1453.47 L 624.453 1451.5 z" fill="rgb(77,35,23)" transform="translate(0,0)"></path>
<path d="M 745.638 1645.14 C 746.336 1647.34 746.458 1648.21 746.769 1650.47 C 744.931 1649.28 744.722 1648.26 743.678 1646.24 L 745.638 1645.14 z" fill="rgb(188,116,89)" transform="translate(0,0)"></path>
<path d="M 936.949 1283.75 C 1072.06 1325.31 1076.2 1450.33 1039.69 1566.42 C 1026.82 1607.35 1011.5 1639.01 986.247 1673.74 C 984.091 1670.13 979.425 1650.15 977.877 1644.45 C 962.683 1600.87 938.07 1546.31 896.057 1523.69 C 843.528 1495.4 782.882 1607.78 766.271 1642.36 L 764.437 1641.09 C 776.505 1603.75 791.321 1577.66 811.743 1545.12 L 808.702 1543.9 C 841.463 1492.02 898.495 1434.95 944.682 1394.63 C 937.553 1368.1 936.046 1345.11 934.344 1318.07 L 935.89 1318.95 C 937.031 1317.08 936.948 1306.14 937.146 1302.82 L 936.949 1283.75 z" fill="rgb(211,171,104)" transform="translate(0,0)"></path>
<path d="M 937.146 1302.82 C 937.979 1309.01 937.998 1313.08 938.036 1319.37 C 950.033 1322.8 962.587 1328.04 968.546 1339.74 C 986.097 1374.19 946.368 1396.49 925.585 1415.88 C 909.882 1430.53 895.412 1444.51 881.199 1459.54 C 864.29 1477.63 848.149 1496.42 832.82 1515.87 C 828.964 1520.86 814.427 1542.35 811.743 1545.12 L 808.702 1543.9 C 841.463 1492.02 898.495 1434.95 944.682 1394.63 C 937.553 1368.1 936.046 1345.11 934.344 1318.07 L 935.89 1318.95 C 937.031 1317.08 936.948 1306.14 937.146 1302.82 z" fill="rgb(77,35,23)" transform="translate(0,0)"></path>
<path d="M 776.257 1629.43 C 792.361 1597.31 830.964 1536.61 865.946 1523.81 C 904.206 1509.8 946.202 1575.35 959.416 1604.46 C 965.703 1618.31 970.048 1633.19 975.377 1647.41 L 974.54 1648.24 C 970.299 1642.25 966.721 1636.17 962.09 1630.42 C 925.862 1585.42 874.604 1565.68 821.123 1593.17 C 796.692 1607.3 795.022 1612.45 776.257 1629.43 z" fill="rgb(161,112,58)" transform="translate(0,0)"></path>
<path d="M 626.909 1522.16 C 669.975 1519.85 719.347 1598.91 734.177 1633.15 C 705.387 1598.27 672.585 1576.45 625.414 1581.07 C 580.484 1587.85 557.591 1617.15 532.604 1649.02 C 539.517 1625.01 549.617 1602.04 562.633 1580.71 C 576.839 1557.81 599.779 1528.48 626.909 1522.16 z" fill="rgb(161,112,58)" transform="translate(0,0)"></path>
<path d="M 764.437 1641.09 L 766.271 1642.36 C 765.832 1643.36 764.451 1647.61 763.316 1647.68 C 761.983 1646.87 764.065 1642.03 764.437 1641.09 z" fill="rgb(161,112,58)" transform="translate(0,0)"></path>
<path d="M 383.897 735.481 C 382.845 730.462 382.345 719.616 381.633 713.855 C 377.443 679.926 378.021 649.087 382.353 615.105 C 394.804 517.434 442.737 426.588 521.141 366.066 C 602.491 303.269 707.597 280.636 808.428 293.708 C 906.617 306.437 993.29 352.893 1053.13 432.393 C 1096.14 489.539 1119.37 552.888 1127.04 623.827 C 1128.59 638.126 1130.93 664.1 1129.07 678.154 C 1124.86 683.936 1124.73 725.508 1123.59 736.943 C 1121.35 759.552 1119.39 787.027 1113.18 809.138 C 1112.78 810.554 1098.43 813.568 1099.09 818.736 C 1098.2 820.987 1097.82 822.554 1096.39 824.446 C 1081.51 835.472 1076.45 884.131 1047.96 882.382 C 1033.81 881.513 1044.63 847.814 1046.04 838.901 C 1048.87 820.21 1050.72 801.383 1051.58 782.499 C 1055.51 708.819 1046.38 626.928 1011.3 560.992 C 997.567 535.173 968.444 500.004 935.868 507.073 C 923.41 509.777 905.758 517.631 893.261 522.192 C 874.28 529.086 854.78 534.457 834.946 538.254 C 772.702 549.857 708.68 547.791 647.315 532.198 C 636.409 529.321 620.335 524.679 609.951 520.718 C 584.288 510.928 564.735 496.954 537.909 514.893 C 496.122 542.837 475.92 602.797 466.051 649.74 C 452.633 714.739 453.088 782.516 464.116 847.827 C 465.512 856.09 472.585 875.982 463.845 881.129 C 449.932 889.323 438.669 868.537 432.886 859.619 C 429.323 854.126 423.98 839.882 420.866 836.406 C 420.062 833.838 418.261 829.766 417.113 827.199 C 408.072 808.454 403.064 788.894 396.606 769.366 C 391.627 754.311 390.875 739.25 386.189 724.783 L 384.488 725.378 L 383.897 735.481 z" fill="rgb(117,71,32)" transform="translate(0,0)"></path>
<path d="M 420.866 836.406 C 423.98 839.882 429.323 854.126 432.886 859.619 C 438.669 868.537 449.932 889.323 463.845 881.129 C 472.585 875.982 465.512 856.09 464.116 847.827 C 453.088 782.516 452.633 714.739 466.051 649.74 C 475.92 602.797 496.122 542.837 537.909 514.893 C 564.735 496.954 584.288 510.928 609.951 520.718 C 620.335 524.679 636.409 529.321 647.315 532.198 C 708.68 547.791 772.702 549.857 834.946 538.254 C 854.78 534.457 874.28 529.086 893.261 522.192 C 905.758 517.631 923.41 509.777 935.868 507.073 C 968.444 500.004 997.567 535.173 1011.3 560.992 C 1046.38 626.928 1055.51 708.819 1051.58 782.499 C 1050.72 801.383 1048.87 820.21 1046.04 838.901 C 1044.63 847.814 1033.81 881.513 1047.96 882.382 C 1076.45 884.131 1081.51 835.472 1096.39 824.446 C 1088.77 842.275 1071.79 892.217 1044.29 884.018 C 1041.93 883.316 1037.32 877.853 1037.63 875.984 C 1055.4 771.692 1059.33 655.228 1006.72 559.521 C 997.853 543.384 984.478 527.672 969.345 517.103 C 947.964 502.17 932.137 510.79 910.462 519.109 C 899.22 523.551 887.784 527.488 876.189 530.907 C 807.822 551.247 735.453 554.164 665.671 539.392 C 649.091 535.777 632.693 531.377 616.532 526.206 C 608.489 523.624 592.495 517.694 585.148 513.861 C 552.167 496.655 521.448 527.712 506.628 552.344 C 449.825 646.755 451.692 767.553 471.035 872.576 C 473.516 886.048 453.744 888.375 445.859 880.939 C 433.704 871.96 424.633 850.999 418.868 838.391 L 420.866 836.406 z" fill="rgb(77,35,23)" transform="translate(0,0)"></path>
<path d="M 603.483 690.343 C 629.09 688.453 653.439 694.262 675.199 707.975 C 694.819 720.34 679.096 745.639 664.329 738.86 C 634.638 725.227 614.8 719.476 582.422 728.861 C 561.084 735.621 542.921 747.795 524.347 759.738 C 521.943 761.284 520.879 760.853 518.181 760.709 C 510.725 754.701 522.216 737.498 526.708 731.865 C 545.513 708.283 573.767 694.06 603.483 690.343 z" fill="rgb(77,35,23)" transform="translate(0,0)"></path>
<path d="M 603.753 693.284 C 625.257 690.462 669.182 699.147 681.939 719.971 C 684.063 723.437 677.459 736.523 670.723 735.909 C 663.442 735.244 657.721 732.632 651.027 729.76 C 626.561 719.261 605.51 718.647 580.326 725.756 C 562.214 731.7 545.079 741.564 529.689 752.717 C 526.831 754.788 523.924 757.373 520.437 757.841 L 518.988 756.632 C 518.513 750.433 526.588 737.17 530.456 732.356 C 547.66 710.946 576.758 696.485 603.753 693.284 z" fill="rgb(117,71,32)" transform="translate(0,0)"></path>
<path d="M 886.304 690.368 C 920.095 688.041 951.98 699.918 975.895 724.144 C 981.244 729.563 1000.17 754.08 991.55 760.994 C 985.14 761.925 974.795 753.194 969.103 749.562 C 960.814 744.254 952.194 739.481 943.295 735.274 C 917.234 723.874 892.197 718.96 864.697 729.71 C 852.136 735.344 829.473 750.092 825.344 726.228 C 821.061 701.477 869.211 692.295 886.304 690.368 z" fill="rgb(77,35,23)" transform="translate(0,0)"></path>
<path d="M 888.147 693.386 C 917.845 687.554 963.512 710.515 980.53 734.455 C 984.455 739.977 990.835 749.226 989.849 756.307 L 988.442 756.956 C 982.122 754.597 972.454 747.476 966.31 743.701 C 958.564 738.943 952.946 735.936 944.657 732.163 C 904.498 714.497 879.296 718.507 841.954 735.975 C 840.301 736.749 833.872 736.312 832.658 734.661 C 811.931 706.48 870.298 695.327 888.147 693.386 z" fill="rgb(117,71,32)" transform="translate(0,0)"></path>
<path d="M 892.933 788.255 C 924.176 786.703 948.06 814.381 954.786 842.862 C 960.079 865.272 941.797 869.924 936.099 848.371 C 931.446 830.766 922.509 816.463 904.639 810.44 L 903.377 810.02 C 865.366 802.928 862.535 855.222 850.652 861.025 C 848.793 861.933 847.127 862.062 845.231 861.159 C 842.428 859.825 840.112 856.57 839.346 853.621 C 836.685 843.373 846.744 825.772 852.158 817.556 C 861.963 802.675 875.382 791.987 892.933 788.255 z" fill="rgb(77,35,23)" transform="translate(0,0)"></path>
<path d="M 605.059 789.103 C 630.513 787.628 645.754 798.517 659.263 819.934 C 664.485 828.214 676.656 855.578 664.557 862.584 C 647.207 864.54 651.632 822.379 620.13 810.46 L 618.968 810.027 C 580.689 801.587 575.27 856.354 565.264 861.063 C 563.024 862.117 560.527 862.169 558.222 861.146 C 555.893 860.113 554.43 858.194 553.765 855.767 C 551.058 845.893 559.354 829.353 564.204 821.031 C 573.812 804.543 586.666 794.065 605.059 789.103 z" fill="rgb(77,35,23)" transform="translate(0,0)"></path>
<path d="M 708.167 914.278 C 715.499 869.633 719.043 825.395 701.728 782.25 C 700.001 777.948 694.755 773.119 698.101 770.174 C 701.781 772.058 707.474 787.889 708.848 792.259 C 722.037 834.197 718.199 873.773 711.13 916.046 C 699.91 925.146 693.611 939.238 692.18 953.178 C 686.163 1011.81 759.613 1045.74 803.303 1008.94 C 807.811 1005.14 816.776 996.111 821.338 994.337 C 821.237 997.782 814.768 1004.44 812.17 1006.73 C 795.868 1021.1 780.364 1026.09 759.455 1027.88 C 740.475 1036.41 701.125 1025.75 686.702 1010.48 C 666.242 988.804 672.362 953.316 692.691 934.252 C 697.149 927.25 701.614 919.399 708.167 914.278 z" fill="rgb(188,116,89)" transform="translate(0,0)"></path>
<path d="M 708.167 914.278 C 715.499 869.633 719.043 825.395 701.728 782.25 C 700.001 777.948 694.755 773.119 698.101 770.174 C 701.781 772.058 707.474 787.889 708.848 792.259 C 722.037 834.197 718.199 873.773 711.13 916.046 C 699.91 925.146 693.611 939.238 692.18 953.178 C 686.163 1011.81 759.613 1045.74 803.303 1008.94 C 807.811 1005.14 816.776 996.111 821.338 994.337 C 821.237 997.782 814.768 1004.44 812.17 1006.73 C 795.868 1021.1 780.364 1026.09 759.455 1027.88 C 704.863 1020.15 680.218 989.019 692.691 934.252 C 697.149 927.25 701.614 919.399 708.167 914.278 z" fill="rgb(77,35,23)" transform="translate(0,0)"></path>
<path d="M 613.609 1088.75 C 627.94 1096.28 642.249 1107.94 659.291 1116.46 C 728.831 1151.2 791.485 1148.79 859.625 1111.64 C 865.543 1108.41 892.489 1089.77 895.279 1089.64 L 896.34 1091.88 C 890.153 1096.78 879.923 1102.82 873.29 1107.04 C 837.799 1129.63 797.421 1144.22 755.047 1144.35 C 713.719 1144.48 672.265 1128.93 637.381 1107.6 C 630.982 1103.68 618.596 1097 613.468 1091.91 L 613.609 1088.75 z" fill="rgb(77,35,23)" transform="translate(0,0)"></path>
<path d="M 1113.14 861.229 C 1134.33 858.301 1147.65 869.935 1149.08 890.91 L 1147.52 892.318 L 1148.99 891.509 L 1148.77 892.069 L 1147.52 892.292 C 1145.81 887.167 1142.61 876.167 1139.01 872.327 C 1121.73 853.897 1100.15 867.113 1090.98 885.825 C 1088.29 891.304 1087.57 895.779 1086.3 901.796 C 1096.63 904.949 1099.6 907 1106.21 915.451 C 1115.36 933.996 1106.15 946.458 1089.73 955.017 L 1088.36 954.073 L 1089.09 955.298 L 1088.22 954.178 C 1093.6 947.481 1104.01 943.528 1105.75 934.207 C 1108.99 916.881 1097.39 908.121 1082.85 904.814 C 1086.19 882.971 1091.7 870.177 1113.14 861.229 z" fill="rgb(77,35,23)" transform="translate(0,0)"></path>
<path d="M 385.509 860.245 C 403.069 860.565 413.351 868.591 421.623 883.606 C 425.512 890.665 425.667 897.079 426.506 904.982 C 406.835 909.875 393.142 925.627 410.467 944.628 C 413.77 948.25 418.214 950.098 421.768 954.216 L 420.18 954.4 C 405.137 948.825 400.395 941.264 399.674 925.628 C 403.896 910.263 408.99 907.563 423.296 902.25 C 421.524 890.901 419.985 885.74 412.912 876.56 C 399.327 858.93 373.369 858.059 366.252 881.612 C 365.118 885.367 364.754 889.573 361.926 892.107 L 360.908 891.187 C 360.264 875.368 370.349 863.589 385.509 860.245 z" fill="rgb(77,35,23)" transform="translate(0,0)"></path>
<path d="M 630.63 1056.02 C 634.61 1059.57 627.198 1061.42 624.562 1063.17 C 610.421 1072.57 596.119 1087.64 593.382 1105.01 C 592.552 1110.27 593.728 1112.22 591.509 1117.22 C 586.813 1113 589.352 1104.61 591.121 1099.01 C 597.494 1078.85 612.756 1066.04 630.63 1056.02 z" fill="rgb(77,35,23)" transform="translate(0,0)"></path>
<path d="M 877.268 1055.88 C 883.194 1057.27 894.496 1065.6 899.027 1069.93 C 913.334 1083.6 918.674 1096.23 919.651 1115.51 C 915.201 1115.65 916.024 1115.28 915.823 1110.51 C 914.797 1086.18 897.374 1070.12 878.097 1058.53 C 878.138 1058.56 877.347 1056.13 877.268 1055.88 z" fill="rgb(77,35,23)" transform="translate(0,0)"></path>
<metadata><recraft-signature>{"signed_by": "recraft", "signature_b64": "1A5i+5YiZ7VIXp71G1aQUwVAKGnRLcNHgo786DWFQDhMnGW+k8K2rgHMvNv15wlZ0fxGm7ZfUNeKSU2XU/x3Aw==", "signing_algo": "Ed25519", "generation_timestamp": 1779106813, "identifier": "b9ba45a9-af12-4c13-9809-44ee0db97d00"}</recraft-signature></metadata></svg>