<svg xmlns="http://www.w3.org/2000/svg" height="832" preserveAspectRatio="none" style="display: block;" version="1.1" viewBox="0 0 2048 1331" width="1280">
<path d="M 0 0 L 2048 0 L 2048 1331 L 1782.13 1331 L 1376.41 1331 L 816.373 1331 L 264.923 1331 L 0 1331 L 0 0 z" fill="rgb(255,254,254)" transform="translate(0,0)"></path>
<path d="M 472.811 713.122 C 480.563 706.986 502.921 697.921 512.363 693.146 C 575.232 661.357 637.863 651.709 706.933 667.148 C 712.855 669.361 718.793 671.535 724.744 673.67 C 743.193 681.386 756.899 688.239 770.218 704.264 C 789.961 701.7 800.418 702.628 819.607 705.548 C 829.645 711.427 845.283 713.675 854.599 718.161 C 872.14 728.175 881.623 734.202 895.847 748.334 L 899.632 752.894 C 913.759 771.861 923.096 786.46 928.399 810.022 C 929.38 814.379 932.938 832.918 934.102 836.201 C 932.528 857.842 931.854 879.286 932.23 900.451 C 932.83 934.172 935.011 964.455 916.962 994.521 C 915.027 997.746 901.56 1016.34 901.466 1017.27 C 895.658 1021.37 890.564 1028.25 884.357 1032.94 C 877.752 1037.93 863.534 1041.93 857.986 1046.13 L 857.812 1072.23 C 885.872 1082.3 924.071 1092.46 946.174 1115.24 C 964.348 1100.77 1001.61 1083.32 1024.05 1078.55 L 1024.08 1080.41 C 1021.29 1094.26 1017.43 1109.66 1026.44 1121.66 C 1051.65 1155.25 1102.82 1151.41 1134.04 1128.88 C 1150.31 1117.13 1166.46 1101.92 1168.09 1081.62 C 1204.88 1091.74 1220.89 1099.18 1254.23 1117.91 C 1247.93 1121.06 1240.98 1125.14 1244.67 1133.09 C 1248.2 1140.67 1254.06 1140.91 1258.99 1145.94 C 1238.1 1148.56 1169.02 1149.28 1192.02 1182.81 C 1177.58 1186.99 1140.41 1193.86 1168.02 1222.66 C 1171.6 1226.4 1180.16 1218.76 1183.28 1226.55 C 1182.77 1230.09 1181.11 1237.2 1183.87 1239.64 C 1192.55 1247.32 1213.68 1243.08 1224.05 1241.9 C 1224.61 1258.24 1230.61 1262.79 1246.91 1261.63 C 1266.57 1260.25 1286.34 1258.17 1306.04 1257.77 C 1321.65 1257.33 1337.24 1256.44 1352.8 1255.1 C 1365.95 1284.51 1370.82 1299.1 1376.41 1331 L 816.373 1331 L 264.923 1331 C 273.288 1248.14 285.065 1147.25 354.922 1091.04 C 342.548 1080.62 327.418 1077.55 317.69 1058.48 C 305.792 1035.16 312.348 1006.1 330.935 988.16 C 335.4 983.85 345.6 978.738 350.125 973.734 C 350.088 973.775 352.402 965.141 352.725 963.962 C 354.285 958.259 363.628 950.121 368.181 945.891 C 398.132 918.063 437.462 886.754 473.517 867.739 C 472.024 863.596 470.429 857.409 469.155 853.04 C 427.93 866.127 395.814 818.732 404.357 781.591 C 406.312 773.091 419.553 765.395 426.977 761.855 L 427.685 759.293 C 425.958 752.496 424.843 746.312 422.909 739.235 C 424.806 736.209 466.604 715.952 472.811 713.122 z" fill="rgb(156,128,112)" transform="translate(0,0)"></path>
<path d="M 719.776 1013.11 C 723.797 1014.07 736.984 1026.05 741.931 1029.12 C 779.771 1052.55 815.458 1057.81 857.986 1046.13 L 857.812 1072.23 C 885.872 1082.3 924.071 1092.46 946.174 1115.24 C 964.348 1100.77 1001.61 1083.32 1024.05 1078.55 L 1024.08 1080.41 C 1021.29 1094.26 1017.43 1109.66 1026.44 1121.66 C 1051.65 1155.25 1102.82 1151.41 1134.04 1128.88 C 1150.31 1117.13 1166.46 1101.92 1168.09 1081.62 C 1204.88 1091.74 1220.89 1099.18 1254.23 1117.91 C 1247.93 1121.06 1240.98 1125.14 1244.67 1133.09 C 1248.2 1140.67 1254.06 1140.91 1258.99 1145.94 C 1238.1 1148.56 1169.02 1149.28 1192.02 1182.81 C 1177.58 1186.99 1140.41 1193.86 1168.02 1222.66 C 1171.6 1226.4 1180.16 1218.76 1183.28 1226.55 C 1182.77 1230.09 1181.11 1237.2 1183.87 1239.64 C 1192.55 1247.32 1213.68 1243.08 1224.05 1241.9 C 1224.61 1258.24 1230.61 1262.79 1246.91 1261.63 C 1266.57 1260.25 1286.34 1258.17 1306.04 1257.77 C 1321.65 1257.33 1337.24 1256.44 1352.8 1255.1 C 1365.95 1284.51 1370.82 1299.1 1376.41 1331 L 816.373 1331 C 821.109 1299.94 831.179 1276.11 843.431 1247.84 C 838.518 1245.71 825.862 1245.31 820.194 1244.37 C 793.883 1240.01 764.132 1239.46 743.711 1219.85 C 740.528 1216.8 738.066 1212.3 734.185 1210.71 C 735.556 1206.11 730.209 1197.47 730.021 1189.4 C 729.539 1168.76 735.478 1157.6 748 1142.77 C 750.21 1143.31 760.838 1148.07 763.563 1149.23 C 771.572 1145.72 778.431 1142.92 786.637 1139.91 C 769.769 1106.33 746.173 1084.11 717.8 1060.75 C 722.959 1057.39 719.998 1027.63 720.962 1019.59 C 720.402 1017.98 720.052 1014.93 719.776 1013.11 z" fill="rgb(229,211,194)" transform="translate(0,0)"></path>
<path d="M 719.776 1013.11 C 723.797 1014.07 736.984 1026.05 741.931 1029.12 C 779.771 1052.55 815.458 1057.81 857.986 1046.13 L 857.812 1072.23 C 885.872 1082.3 924.071 1092.46 946.174 1115.24 L 938.923 1123.34 C 938.99 1129.6 938.982 1131.28 937.608 1137.33 C 951.908 1140.6 1012.78 1148.85 983.878 1174.11 C 1000.74 1180.01 1021.7 1186.55 1014.04 1209.53 C 1009.01 1224.63 994.736 1214.73 991.604 1219.19 C 992.952 1229.4 995.36 1236.46 981.432 1237.99 C 973.471 1238.86 963.917 1236.55 956.052 1235.16 C 956.008 1248.21 951.874 1255.63 937.888 1253.97 C 914.036 1251.13 882.719 1253.09 859.646 1249.01 C 855.628 1248.8 846.535 1246.7 843.431 1247.84 C 838.518 1245.71 825.862 1245.31 820.194 1244.37 C 793.883 1240.01 764.132 1239.46 743.711 1219.85 C 740.528 1216.8 738.066 1212.3 734.185 1210.71 C 735.556 1206.11 730.209 1197.47 730.021 1189.4 C 729.539 1168.76 735.478 1157.6 748 1142.77 C 750.21 1143.31 760.838 1148.07 763.563 1149.23 C 771.572 1145.72 778.431 1142.92 786.637 1139.91 C 769.769 1106.33 746.173 1084.11 717.8 1060.75 C 722.959 1057.39 719.998 1027.63 720.962 1019.59 C 720.402 1017.98 720.052 1014.93 719.776 1013.11 z" fill="rgb(156,128,112)" transform="translate(0,0)"></path>
<path d="M 719.776 1013.11 C 723.797 1014.07 736.984 1026.05 741.931 1029.12 C 779.771 1052.55 815.458 1057.81 857.986 1046.13 L 857.812 1072.23 C 885.872 1082.3 924.071 1092.46 946.174 1115.24 L 938.923 1123.34 C 931.908 1117.09 927.601 1115.68 917.973 1116.37 C 896.099 1117.93 863.659 1126.56 842.412 1127.05 C 831.835 1129.29 821.314 1130.89 810.643 1133.26 C 804.301 1134.66 792.049 1139.22 786.637 1139.91 C 769.769 1106.33 746.173 1084.11 717.8 1060.75 C 722.959 1057.39 719.998 1027.63 720.962 1019.59 C 720.402 1017.98 720.052 1014.93 719.776 1013.11 z" fill="rgb(10,25,28)" transform="translate(0,0)"></path>
<path d="M 720.962 1019.59 C 753.987 1059.95 796.642 1093.1 850.297 1098.47 C 852.471 1098.68 854.647 1098.88 856.824 1099.06 C 852.609 1109.14 847.964 1117.64 842.412 1127.05 C 831.835 1129.29 821.314 1130.89 810.643 1133.26 C 804.301 1134.66 792.049 1139.22 786.637 1139.91 C 769.769 1106.33 746.173 1084.11 717.8 1060.75 C 722.959 1057.39 719.998 1027.63 720.962 1019.59 z" fill="rgb(229,211,194)" transform="translate(0,0)"></path>
<path d="M 974.768 1171.66 C 980.836 1168.94 985.586 1167.58 984.043 1160.03 C 973.775 1146.51 899.941 1137.72 882.131 1134.93 C 877.001 1134.13 864.579 1134.45 862.077 1129.95 L 863.763 1128.27 C 873.938 1124.79 925.288 1134.52 937.608 1137.33 C 951.908 1140.6 1012.78 1148.85 983.878 1174.11 C 1000.74 1180.01 1021.7 1186.55 1014.04 1209.53 C 1009.01 1224.63 994.736 1214.73 991.604 1219.19 C 992.952 1229.4 995.36 1236.46 981.432 1237.99 C 973.471 1238.86 963.917 1236.55 956.052 1235.16 C 956.008 1248.21 951.874 1255.63 937.888 1253.97 C 914.036 1251.13 882.719 1253.09 859.646 1249.01 C 859.732 1248.19 859.764 1247.63 859.978 1246.81 C 862.828 1235.77 933.728 1253.72 946.178 1245.85 C 948.118 1244.62 949.503 1242.85 949.593 1240.48 C 949.649 1239.01 949.028 1237.65 948.079 1236.58 C 940.147 1227.7 882.526 1227.46 867.938 1226.17 C 864.779 1225.89 862.522 1225.92 860.428 1223.45 L 860.765 1221.27 C 873.768 1212.68 975.886 1236.93 985.972 1229.7 C 1001.44 1205.03 878.319 1195.65 864.163 1192.43 C 863.044 1192.17 863.149 1190.4 862.991 1189.37 C 865.145 1186.16 875.736 1188.07 880.303 1188.44 C 896.779 1189.7 913.177 1191.83 929.429 1194.82 C 947.055 1198.23 964.615 1203.15 982.101 1207.24 C 988.993 1208.85 997.218 1213.66 1003.98 1211.45 C 1009 1207.76 1013.86 1198.08 1007.69 1193.8 C 972.444 1169.36 916.371 1170.75 874.644 1166.04 C 869.568 1165.47 865.201 1166.88 862.469 1161.94 C 870.749 1154.11 961.057 1169.03 974.768 1171.66 z" fill="rgb(10,25,28)" transform="translate(0,0)"></path>
<path d="M 354.922 1091.04 C 359.41 1091.35 384.296 1104.47 390.15 1107.21 C 499.441 1158.33 617.164 1183.61 734.185 1210.71 C 738.066 1212.3 740.528 1216.8 743.711 1219.85 C 764.132 1239.46 793.883 1240.01 820.194 1244.37 C 825.862 1245.31 838.518 1245.71 843.431 1247.84 C 831.179 1276.11 821.109 1299.94 816.373 1331 L 264.923 1331 C 273.288 1248.14 285.065 1147.25 354.922 1091.04 z" fill="rgb(21,53,72)" transform="translate(0,0)"></path>
<path d="M 770.218 704.264 C 789.961 701.7 800.418 702.628 819.607 705.548 C 829.645 711.427 845.283 713.675 854.599 718.161 C 872.14 728.175 881.623 734.202 895.847 748.334 L 899.632 752.894 C 913.759 771.861 923.096 786.46 928.399 810.022 C 929.38 814.379 932.938 832.918 934.102 836.201 C 932.528 857.842 931.854 879.286 932.23 900.451 C 932.83 934.172 935.011 964.455 916.962 994.521 C 915.027 997.746 901.56 1016.34 901.466 1017.27 C 895.658 1021.37 890.564 1028.25 884.357 1032.94 C 877.752 1037.93 863.534 1041.93 857.986 1046.13 C 815.458 1057.81 779.771 1052.55 741.931 1029.12 C 736.984 1026.05 723.797 1014.07 719.776 1013.11 C 719.274 1010.28 713.276 1003.62 711.134 1000.95 C 696.489 982.717 689.568 964.015 686.724 940.952 C 680.384 939.773 675.957 938.56 669.841 936.788 C 672.546 934.643 675.136 932.358 677.602 929.943 C 706.014 902.343 714.578 877.838 715.201 838.554 C 715 808.314 715.133 778.072 715.601 747.835 C 715.685 741.577 715.549 717.188 716.921 712.317 C 716.142 709.548 716.637 707.523 716.806 704.593 C 729.355 703.152 762.62 711.969 774.305 717.367 C 773.796 711.624 772.643 709.438 770.218 704.264 z" fill="rgb(229,211,194)" transform="translate(0,0)"></path>
<path d="M 770.218 704.264 C 789.961 701.7 800.418 702.628 819.607 705.548 C 829.645 711.427 845.283 713.675 854.599 718.161 C 851.631 727.697 848.676 736.157 841.552 743.558 C 823.114 762.713 791.499 765.006 767.363 757.478 C 762.52 755.954 757.79 754.093 753.207 751.909 C 746.581 771.856 737.068 783.798 718.236 793.165 C 717.543 793.509 716.846 793.845 716.146 794.173 C 716.196 802.423 716.832 832.067 715.201 838.554 C 715 808.314 715.133 778.072 715.601 747.835 C 715.685 741.577 715.549 717.188 716.921 712.317 C 716.142 709.548 716.637 707.523 716.806 704.593 C 729.355 703.152 762.62 711.969 774.305 717.367 C 773.796 711.624 772.643 709.438 770.218 704.264 z" fill="rgb(241,180,147)" transform="translate(0,0)"></path>
<path d="M 716.806 704.593 C 729.355 703.152 762.62 711.969 774.305 717.367 C 764.23 728.274 756.216 723.735 743.401 720.409 C 734.528 718.106 725.641 715.146 716.921 712.317 C 716.142 709.548 716.637 707.523 716.806 704.593 z" fill="rgb(10,25,28)" transform="translate(0,0)"></path>
<path d="M 885.121 950.349 C 887.324 951.029 887.427 951.352 889.108 952.873 C 889.232 953.487 889.551 955.038 889.337 955.636 C 879.389 982.671 847.444 997.568 819.86 995.057 C 796.306 992.914 780.248 982.083 765.514 964.431 C 763.305 961.265 762.381 959.912 762.993 956.358 C 769.738 955.343 783.722 975.582 792.301 979.708 C 831.052 998.347 865.217 986.831 885.121 950.349 z" fill="rgb(10,25,28)" transform="translate(0,0)"></path>
<path d="M 833.468 851.267 C 838.108 851.816 840.355 851.93 839.971 857.03 C 839.198 867.323 840.229 885.057 846.832 893.398 C 858.914 908.661 881.073 935.193 845.954 939.647 C 837.712 940.692 830.954 938.406 823.235 936.078 C 820.828 934.878 820.972 934.837 819.44 932.531 C 822.544 925.926 842.504 936.459 850.438 932.797 C 858.524 929.065 861.056 922.644 854.475 914.772 C 835.11 891.609 831.033 881.905 833.468 851.267 z" fill="rgb(10,25,28)" transform="translate(0,0)"></path>
<path d="M 876.897 854.012 C 899.746 852.025 904.589 875.567 887.121 885.489 C 862.625 887.925 860.364 862.833 876.897 854.012 z" fill="rgb(10,25,28)" transform="translate(0,0)"></path>
<path d="M 774.041 856.915 C 793.96 857.606 799.771 879.59 782.031 889.51 C 775.706 889.166 769.025 888.911 765.566 882.74 C 759.354 871.657 764.516 862.459 774.041 856.915 z" fill="rgb(10,25,28)" transform="translate(0,0)"></path>
<path d="M 869.754 816.26 C 882.56 815.564 885.884 816.095 897.404 821.249 C 911.345 827.487 904.912 835.477 900.149 831.494 C 894.814 827.123 888.454 824.182 881.668 822.949 L 880.82 822.804 C 872.597 822.943 858.058 824.385 852.835 830.779 C 847.012 837.906 842.404 833.758 844.889 828.97 C 847.889 823.189 862.767 817.647 869.754 816.26 z" fill="rgb(10,25,28)" transform="translate(0,0)"></path>
<path d="M 769.812 823.199 C 773.735 822.895 804.061 822.446 800.025 833.471 C 798.449 837.777 788.776 830.532 784.009 830.08 C 777.421 829.454 774.212 829.175 767.128 830.69 C 759.397 833.745 752.493 838.105 747.174 844.374 C 746.448 845.229 739.827 842.908 743.359 838.282 C 749.916 829.696 759.231 825.471 769.812 823.199 z" fill="rgb(10,25,28)" transform="translate(0,0)"></path>
<path d="M 473.517 867.739 C 477.537 879.956 479.101 884.647 485.933 895.907 C 485.943 908.363 488.116 974.846 486.137 981.57 L 485.165 982.099 C 487.361 985.177 486.272 1014.58 486.046 1020.67 C 495.235 1027.04 521.959 1039.93 532.733 1045.36 C 543.793 1050.94 566.93 1063.45 577.787 1067.66 C 607.32 1065.7 631.04 1052.78 639.926 1023.45 C 673.633 1032.73 689.321 1040.91 717.8 1060.75 C 746.173 1084.11 769.769 1106.33 786.637 1139.91 C 778.431 1142.92 771.572 1145.72 763.563 1149.23 C 760.838 1148.07 750.21 1143.31 748 1142.77 C 735.478 1157.6 729.539 1168.76 730.021 1189.4 C 730.209 1197.47 735.556 1206.11 734.185 1210.71 C 617.164 1183.61 499.441 1158.33 390.15 1107.21 C 384.296 1104.47 359.41 1091.35 354.922 1091.04 C 342.548 1080.62 327.418 1077.55 317.69 1058.48 C 305.792 1035.16 312.348 1006.1 330.935 988.16 C 335.4 983.85 345.6 978.738 350.125 973.734 C 350.088 973.775 352.402 965.141 352.725 963.962 C 354.285 958.259 363.628 950.121 368.181 945.891 C 398.132 918.063 437.462 886.754 473.517 867.739 z" fill="rgb(210,165,133)" transform="translate(0,0)"></path>
<path d="M 639.926 1023.45 C 673.633 1032.73 689.321 1040.91 717.8 1060.75 C 746.173 1084.11 769.769 1106.33 786.637 1139.91 C 778.431 1142.92 771.572 1145.72 763.563 1149.23 C 760.838 1148.07 750.21 1143.31 748 1142.77 C 692.867 1121.74 630.948 1093.41 577.787 1067.66 C 607.32 1065.7 631.04 1052.78 639.926 1023.45 z" fill="rgb(21,53,72)" transform="translate(0,0)"></path>
<path d="M 485.165 982.099 C 487.361 985.177 486.272 1014.58 486.046 1020.67 C 474.029 1014.64 462.152 1008.32 450.424 1001.74 L 449.647 1001.31 L 451.244 999.8 C 455.139 1001.82 457.9 997.694 461.471 994.942 C 468.454 989.561 473.503 985.703 482.024 983.075 C 483.075 982.762 484.121 982.436 485.165 982.099 z" fill="rgb(21,53,72)" transform="translate(0,0)"></path>
<path d="M 453.125 982.774 C 423.93 970.58 402.176 971.539 372.016 975.839 C 369.894 973.621 370.17 974.577 370.142 972.094 C 374.287 966.446 384.189 967.411 390.614 966.937 C 415.926 965.069 438.504 970.154 462.072 979.156 C 458.987 985.652 454.669 993.336 451.244 999.8 L 449.647 1001.31 C 446.824 999.641 447.42 1000.49 445.905 997.897 C 446.537 993.735 450.866 987.254 453.125 982.774 z" fill="rgb(10,25,28)" transform="translate(0,0)"></path>
<path d="M 472.811 713.122 C 480.563 706.986 502.921 697.921 512.363 693.146 C 575.232 661.357 637.863 651.709 706.933 667.148 C 712.855 669.361 718.793 671.535 724.744 673.67 C 743.193 681.386 756.899 688.239 770.218 704.264 C 772.643 709.438 773.796 711.624 774.305 717.367 C 762.62 711.969 729.355 703.152 716.806 704.593 C 690.932 703.215 663.246 702.316 638.001 710.119 C 597.238 722.718 569.87 756.632 522.975 743.305 C 500.962 737.049 490.1 720.018 473.906 712.99 L 472.811 713.122 z" fill="rgb(21,53,72)" transform="translate(0,0)"></path>
<path d="M 669.841 936.788 C 675.957 938.56 680.384 939.773 686.724 940.952 C 689.568 964.015 696.489 982.717 711.134 1000.95 C 713.276 1003.62 719.274 1010.28 719.776 1013.11 C 720.052 1014.93 720.402 1017.98 720.962 1019.59 C 719.998 1027.63 722.959 1057.39 717.8 1060.75 C 689.321 1040.91 673.633 1032.73 639.926 1023.45 C 638.543 1020.93 638.981 1009.46 638.969 1005.82 C 638.492 989.223 638.995 970.186 639.04 953.395 C 652.823 947.845 657.842 945.418 669.841 936.788 z" fill="rgb(255,254,254)" transform="translate(0,0)"></path>
<path d="M 487.019 897.147 C 523.568 942.99 580.938 969.522 639.04 953.395 C 638.995 970.186 638.492 989.223 638.969 1005.82 C 579.927 1011.15 521.638 964.383 486.861 921.286 L 487.019 897.147 z" fill="rgb(10,25,28)" transform="translate(0,0)"></path>
<path d="M 422.909 739.235 C 424.806 736.209 466.604 715.952 472.811 713.122 L 473.906 712.99 C 474.606 740.425 479.336 760.145 468.566 787.826 C 459.167 776.458 448.287 764.265 432.609 763.086 C 429.401 762.845 430.615 763.382 428.266 761.522 L 427.685 759.293 C 425.958 752.496 424.843 746.312 422.909 739.235 z" fill="rgb(10,25,28)" transform="translate(0,0)"></path>
<path d="M 558.397 857.418 C 559.116 857.504 561.942 858.176 562.212 858.568 C 575.951 878.995 593.319 893.236 618.772 892.864 C 644.691 892.485 661.407 880.838 673.038 858.92 C 673.715 857.645 675.614 858.088 676.771 858.267 C 678.618 861.321 678.137 860.083 677.471 864.438 C 672.054 875.233 663.722 884.294 653.42 890.595 C 622.541 909.138 579.37 897.907 560.163 867.126 C 557.713 863.199 557.256 861.729 558.397 857.418 z" fill="rgb(10,25,28)" transform="translate(0,0)"></path>
<path d="M 632.048 753.514 L 635.015 754.882 C 636.973 757.938 637.575 779.561 639.748 787.491 C 643.289 802.593 658.342 814.05 657.903 830.206 C 657.466 846.246 631.462 842.936 621.218 841.452 C 617.664 839.457 617.93 840.343 616.574 837.338 L 617.383 836.033 C 620.836 834.634 638.206 835.738 643.257 835.884 C 660.794 828.157 640.332 808.072 636.276 797.009 C 632.85 787.665 625.933 761.701 632.048 753.514 z" fill="rgb(10,25,28)" transform="translate(0,0)"></path>
<path d="M 676.039 753.771 C 684.4 751.913 692.706 757.104 694.701 765.434 C 696.695 773.763 691.64 782.153 683.344 784.283 C 677.856 785.692 672.034 784.032 668.114 779.941 C 664.194 775.85 662.785 769.963 664.427 764.54 C 666.069 759.117 670.508 755 676.039 753.771 z" fill="rgb(10,25,28)" transform="translate(0,0)"></path>
<path d="M 566.836 757.057 C 581.848 756.478 587.101 763.115 584.691 779.418 C 584.001 784.084 579.043 787.181 575.007 789.127 C 553.428 788.485 550.861 766.111 566.836 757.057 z" fill="rgb(10,25,28)" transform="translate(0,0)"></path>
<path d="M 426.955 781.557 C 440.018 782.463 451.457 794.235 456.309 805.951 C 457.829 809.62 461.06 819.48 459.329 823.131 C 458.876 824.077 458.013 824.762 456.99 824.988 C 452.29 826.005 452.364 813.387 450.943 809.514 L 449.919 806.713 C 447.03 803.605 445.678 801.776 442.814 807.524 C 440.153 811.251 444.897 817.404 444.851 818.527 C 444.475 827.732 434.247 819.033 435.615 810.481 C 436.806 803.032 436.814 803.49 442.787 797.536 L 443.302 797.016 C 438.053 793.086 432.684 789.882 427.178 786.411 C 426.297 785.856 426.86 782.584 426.955 781.557 z" fill="rgb(10,25,28)" transform="translate(0,0)"></path>
<path d="M 662.832 722.289 C 669.797 721.738 677.198 721.429 684.382 723.431 C 687.46 723.918 701.667 730.695 702.262 733.755 C 703.847 741.906 694.481 735.269 693.75 734.797 C 676.064 725.723 670.749 729.348 652.597 731.851 C 651.921 731.742 651.401 730.878 651.201 730.404 C 648.63 724.307 658.752 723.169 662.832 722.289 z" fill="rgb(10,25,28)" transform="translate(0,0)"></path>
<path d="M 1183.36 652.62 L 1184.58 651.305 C 1192.13 653.279 1199.06 655.589 1206.89 656.491 C 1255.38 662.077 1292.05 642.666 1329.29 614.488 C 1307.21 653.412 1259.8 692.248 1215.79 704.203 C 1214.82 704.471 1213.84 704.724 1212.86 704.964 C 1223.87 719.885 1234.09 733.424 1242.76 749.857 C 1253.54 742.169 1268.29 729.383 1278.72 720.714 C 1298.1 704.452 1317.65 688.398 1337.37 672.554 C 1341.17 670.246 1340.34 669.889 1344.72 670.136 C 1346.07 669.151 1347.12 667.671 1348.23 666.363 C 1359.27 655.542 1368.23 648.074 1381.44 639.961 C 1443.89 601.605 1543.06 610.041 1588.81 671.593 C 1639.48 674.689 1658.99 727.204 1655.64 771.314 C 1653.9 794.367 1645.02 825.991 1632.63 845.558 C 1635.62 861.991 1632.62 869.964 1625.22 885.045 C 1621.39 890.768 1617.91 895.746 1613.24 900.834 C 1611.83 902.37 1606.6 906.97 1605.82 908.083 C 1601.92 908.388 1600.19 909.797 1596.68 911.065 C 1586.1 914.889 1580.35 913.204 1570.44 908.762 C 1558.75 950.852 1544.9 970.181 1506.39 992.832 C 1477.5 1009.82 1445.1 1014.1 1412.13 1009.45 L 1412.05 1046.46 C 1369.67 1054.85 1318.09 1089.55 1292.25 1123.95 C 1287.98 1124.45 1264.21 1117.99 1254.23 1117.91 C 1220.89 1099.18 1204.88 1091.74 1168.09 1081.62 C 1166.46 1101.92 1150.31 1117.13 1134.04 1128.88 C 1102.82 1151.41 1051.65 1155.25 1026.44 1121.66 C 1017.43 1109.66 1021.29 1094.26 1024.08 1080.41 L 1024.05 1078.55 C 1001.61 1083.32 964.348 1100.77 946.174 1115.24 C 924.071 1092.46 885.872 1082.3 857.812 1072.23 L 857.986 1046.13 C 863.534 1041.93 877.752 1037.93 884.357 1032.94 C 890.564 1028.25 895.658 1021.37 901.466 1017.27 C 901.56 1016.34 915.027 997.746 916.962 994.521 C 935.011 964.455 932.83 934.172 932.23 900.451 C 931.854 879.286 932.528 857.842 934.102 836.201 C 932.938 832.918 929.38 814.379 928.399 810.022 C 923.096 786.46 913.759 771.861 899.632 752.894 L 895.847 748.334 C 901.01 741.109 905.236 734.976 909.899 727.431 C 908.384 722.994 921.471 685.448 923.852 678.036 C 929.533 670.031 931.4 649.214 931.385 638.843 L 931.956 638.568 C 932.049 641.695 931.664 645.244 933.446 647.505 C 958.077 658.241 988.704 667.006 1011.99 678.755 C 1040.84 660.793 1072.45 655.489 1105.87 656.143 C 1117.77 655.893 1129.22 653.764 1141.02 652.384 C 1152.47 651.046 1163.87 650.114 1175.26 648.316 C 1179.18 649.101 1180.26 648.666 1182.95 651.082 L 1183.36 652.62 z" fill="rgb(10,25,28)" transform="translate(0,0)"></path>
<path d="M 1423.3 707.511 C 1462.4 753.108 1489.55 777.169 1553.28 768.571 C 1545.59 788.446 1540.04 810.775 1548.39 831.444 C 1553.38 843.781 1569.06 856.445 1582.82 850.952 C 1588.37 843.78 1568.95 825.266 1599.68 821.691 C 1607.2 820.763 1614.77 822.977 1620.6 827.81 C 1627.31 833.302 1629.25 837.762 1632.63 845.558 C 1635.62 861.991 1632.62 869.964 1625.22 885.045 C 1621.39 890.768 1617.91 895.746 1613.24 900.834 C 1611.83 902.37 1606.6 906.97 1605.82 908.083 C 1601.92 908.388 1600.19 909.797 1596.68 911.065 C 1586.1 914.889 1580.35 913.204 1570.44 908.762 C 1558.75 950.852 1544.9 970.181 1506.39 992.832 C 1477.5 1009.82 1445.1 1014.1 1412.13 1009.45 C 1384.24 1001.33 1360.6 990.234 1342.87 966.052 C 1334.2 953.997 1328.15 940.256 1325.13 925.717 C 1322.03 910.744 1321.93 822.178 1324.27 806.255 C 1333.65 770.362 1348.31 736.073 1376.24 710.408 C 1384.2 730.475 1394.78 747.954 1415.41 756.984 C 1423.59 760.563 1449.25 768.928 1456.09 763.601 C 1457.38 756.906 1448.1 751.273 1443.47 746.873 C 1431.9 735.889 1426.47 722.845 1423.3 707.511 z" fill="rgb(241,180,147)" transform="translate(0,0)"></path>
<path d="M 1481.1 908.461 C 1482.13 908.978 1484.1 909.838 1484.52 910.815 C 1487.9 918.622 1471.28 933.287 1467.66 936.124 C 1452.82 947.739 1433.96 952.966 1415.26 950.649 C 1396.35 948.262 1382.38 939.847 1370.77 925.011 C 1368.97 922.095 1368.87 921.577 1368.21 918.195 L 1370.07 917.118 C 1376.77 919.415 1387.21 934.002 1394.53 937.336 C 1429.97 953.474 1462.1 940.283 1481.1 908.461 z" fill="rgb(10,25,28)" transform="translate(0,0)"></path>
<path d="M 1411.45 812.379 C 1413.57 812.731 1416.22 812.659 1417.13 814.334 C 1422.62 824.448 1413.03 847.255 1407.72 856.457 C 1405.41 861.735 1394.21 872.31 1393.31 877.195 C 1390.33 893.479 1416.37 883.836 1420.87 889.416 L 1420.53 892.582 C 1407.32 896.309 1382.11 896.032 1386.93 874.489 C 1389.31 863.879 1401.57 856.912 1405.86 845.748 C 1410.73 833.051 1411.22 825.63 1411.45 812.379 z" fill="rgb(10,25,28)" transform="translate(0,0)"></path>
<path d="M 1465.99 815.011 C 1487.12 814.335 1489.36 837.609 1472.84 846.811 C 1453.15 846.657 1447.56 824.945 1465.99 815.011 z" fill="rgb(10,25,28)" transform="translate(0,0)"></path>
<path d="M 1362.97 808.952 C 1385.18 808.06 1386.47 832.952 1371.23 840.902 C 1350.16 839.884 1346.67 819.765 1362.97 808.952 z" fill="rgb(10,25,28)" transform="translate(0,0)"></path>
<path d="M 1604.1 841.667 C 1606.6 842.008 1611.4 843.645 1608.73 847.356 C 1605.95 849.983 1601.65 850.682 1598.49 852.947 C 1578.65 867.165 1609.68 855.507 1598.82 879.034 C 1597.71 881.437 1594.05 881.644 1593.5 880.01 C 1590.69 871.776 1597.46 873.766 1590.48 865.591 C 1580.77 872.906 1585.86 882.957 1582.94 884.72 C 1573.52 890.416 1578.15 871.975 1579.04 868.503 C 1582.61 854.655 1592.78 848.516 1604.1 841.667 z" fill="rgb(10,25,28)" transform="translate(0,0)"></path>
<path d="M 1362.65 776.273 C 1374.47 775.128 1384.01 775.968 1394.03 782.998 C 1396.45 784.699 1395.03 787.586 1393.44 788.045 C 1390.29 788.949 1383.3 784.925 1379.48 784.054 L 1374.57 782.917 C 1366.92 782.993 1361.2 782.952 1354.17 786.534 C 1352.25 787.511 1346.58 792.109 1344.68 790.606 C 1335.96 783.711 1358.55 777.321 1362.65 776.273 z" fill="rgb(10,25,28)" transform="translate(0,0)"></path>
<path d="M 1469.25 783.34 C 1479.77 783.418 1493.5 787.179 1499.7 797.024 C 1500.6 798.249 1499.68 802.601 1497.87 802.371 C 1494.35 801.922 1489.92 796.453 1486.45 794.149 C 1470.35 787.426 1468.04 790.879 1452.67 794.008 C 1451.81 793.795 1450.46 793.325 1450.34 792.353 C 1449.53 785.236 1464.16 783.991 1469.25 783.34 z" fill="rgb(10,25,28)" transform="translate(0,0)"></path>
<path d="M 1252.4 768.58 C 1255.37 765.283 1259.13 760.113 1261.94 756.492 C 1273.06 771.99 1288.24 793.378 1300.57 807.587 C 1306.66 799.912 1312.46 792.014 1317.97 783.907 L 1324.27 806.255 C 1321.93 822.178 1322.03 910.744 1325.13 925.717 C 1328.15 940.256 1334.2 953.997 1342.87 966.052 C 1360.6 990.234 1384.24 1001.33 1412.13 1009.45 L 1412.05 1046.46 C 1369.67 1054.85 1318.09 1089.55 1292.25 1123.95 C 1287.98 1124.45 1264.21 1117.99 1254.23 1117.91 C 1220.89 1099.18 1204.88 1091.74 1168.09 1081.62 C 1167.86 1076.12 1168.04 1069.59 1168.05 1064 C 1196.66 1062.95 1227.99 1062.14 1255.07 1051.98 C 1263.58 1048.8 1271.77 1044.19 1275.58 1035.54 C 1289.49 1004.01 1279.54 868.897 1271.83 830.253 C 1267.57 808.896 1260.26 788.81 1252.4 768.58 z" fill="rgb(255,254,254)" transform="translate(0,0)"></path>
<path d="M 1167.92 995.807 L 1168.05 1064 C 1168.04 1069.59 1167.86 1076.12 1168.09 1081.62 C 1166.46 1101.92 1150.31 1117.13 1134.04 1128.88 C 1102.82 1151.41 1051.65 1155.25 1026.44 1121.66 C 1017.43 1109.66 1021.29 1094.26 1024.08 1080.41 C 1032.18 1080.61 1040.28 1080.14 1048.31 1079.02 C 1099.22 1071.6 1138.36 1035.56 1167.92 995.807 z" fill="rgb(210,165,133)" transform="translate(0,0)"></path>
<path d="M 857.986 1046.13 C 863.534 1041.93 877.752 1037.93 884.357 1032.94 C 890.564 1028.25 895.658 1021.37 901.466 1017.27 C 939.474 1039.62 979.477 1053.84 1024.05 1055.35 L 1024.05 1078.55 C 1001.61 1083.32 964.348 1100.77 946.174 1115.24 C 924.071 1092.46 885.872 1082.3 857.812 1072.23 L 857.986 1046.13 z" fill="rgb(255,254,254)" transform="translate(0,0)"></path>
<path d="M 931.385 638.843 L 931.956 638.568 C 932.049 641.695 931.664 645.244 933.446 647.505 C 958.077 658.241 988.704 667.006 1011.99 678.755 C 963.276 713.733 948.324 751.584 937.809 810.451 C 936.506 817.747 935.43 829.569 934.102 836.201 C 932.938 832.918 929.38 814.379 928.399 810.022 C 923.096 786.46 913.759 771.861 899.632 752.894 L 895.847 748.334 C 901.01 741.109 905.236 734.976 909.899 727.431 C 908.384 722.994 921.471 685.448 923.852 678.036 C 929.533 670.031 931.4 649.214 931.385 638.843 z" fill="rgb(210,165,133)" transform="translate(0,0)"></path>
<path d="M 936.579 751 C 936.765 738.15 935.568 669.444 942.092 661.673 L 943.975 662.298 L 942.993 660.966 C 945.74 665.795 943.628 755.534 940.567 760.238 C 935.18 758.834 917.652 741.377 911.528 736.421 C 908.246 741.038 903.108 748.765 899.632 752.894 L 895.847 748.334 C 901.01 741.109 905.236 734.976 909.899 727.431 C 918.035 733.105 929.142 743.86 936.579 751 z" fill="rgb(10,25,28)" transform="translate(0,0)"></path>
<path d="M 1337.37 672.554 C 1341.17 670.246 1340.34 669.889 1344.72 670.136 C 1318.9 706.755 1312.29 731.651 1316.24 776.283 C 1311.28 783.222 1305.92 791.06 1300.77 797.76 C 1287.49 781.955 1274.42 763.492 1262.49 746.602 C 1258.07 751.822 1253.76 757.133 1249.56 762.53 L 1242.76 749.857 C 1253.54 742.169 1268.29 729.383 1278.72 720.714 C 1298.1 704.452 1317.65 688.398 1337.37 672.554 z" fill="rgb(255,254,254)" transform="translate(0,0)"></path>
<path d="M 1175.26 648.316 C 1179.18 649.101 1180.26 648.666 1182.95 651.082 L 1183.36 652.62 L 1183.47 679.899 C 1154.84 663.488 1139.02 659.248 1105.87 656.143 C 1117.77 655.893 1129.22 653.764 1141.02 652.384 C 1152.47 651.046 1163.87 650.114 1175.26 648.316 z" fill="rgb(210,165,133)" transform="translate(0,0)"></path>
<path d="M 1063.05 704.763 L 1064.16 704.829 C 1065.69 705.748 1080.68 737.948 1083.22 742.435 C 1108.8 787.729 1140.92 799.067 1190.96 805.087 L 1191.1 862.943 C 1213.94 838.989 1251.04 843.972 1253.13 879.924 C 1253.88 892.715 1249.44 905.268 1240.81 914.745 C 1228.13 928.894 1213.2 933.048 1195.16 934.012 C 1193.06 971.055 1164.2 995.515 1135.03 1013.86 C 1106.12 1031.66 1072.02 1040.13 1038.34 1033.56 C 1010 1028.08 985.026 1011.51 968.976 987.517 C 961.166 975.932 955.741 962.909 953.016 949.206 C 947.608 922.351 951.262 864.428 955.776 836.613 C 965.802 774.836 1012.86 738.319 1063.05 704.763 z" fill="rgb(210,165,133)" transform="translate(0,0)"></path>
<path d="M 999.7 937.504 C 1004.4 939.234 1007.11 943.968 1010.07 948.117 C 1030.76 977.184 1078.38 977.649 1102.34 952.336 C 1106.33 948.119 1110.71 938.672 1116.04 939.865 C 1117.52 942.206 1117.11 941.291 1116.98 944.482 C 1110.68 954.209 1104.95 960.812 1095.02 967.065 C 1079.18 977.063 1059.96 980.235 1041.74 975.861 C 1027.55 972.497 995.301 955.177 999.7 937.504 z" fill="rgb(10,25,28)" transform="translate(0,0)"></path>
<path d="M 1044.11 833.302 C 1046.79 833.566 1046.79 833.445 1049.1 834.697 C 1055.36 844.897 1048.42 875.576 1038.97 883.94 C 1032.91 889.302 1022.44 897.135 1023.29 905.606 C 1024.56 918.294 1043.35 909.232 1049.5 914.155 L 1049.8 917.659 C 1040.65 921.67 1025.57 920.869 1018.9 913.014 C 1006.26 898.128 1034.99 882.608 1039.85 870.273 C 1044.81 857.669 1043.89 846.477 1044.11 833.302 z" fill="rgb(10,25,28)" transform="translate(0,0)"></path>
<path d="M 1109.01 839.053 C 1132.08 837.688 1133.26 860.643 1117.62 870.766 C 1097.27 872.424 1091.44 850.46 1109.01 839.053 z" fill="rgb(10,25,28)" transform="translate(0,0)"></path>
<path d="M 1001.87 831.157 C 1022.34 832.076 1024 856.017 1006.04 863.188 C 984.403 861.97 984.589 838.114 1001.87 831.157 z" fill="rgb(10,25,28)" transform="translate(0,0)"></path>
<path d="M 1110.1 807.189 C 1119.38 806.449 1127.74 806.518 1136.77 810.53 C 1139.74 811.849 1158.8 823.811 1147.88 827.751 C 1146.15 828.372 1141.95 822.404 1139.58 820.222 C 1122.3 810.657 1112.67 812.665 1096.54 818.92 C 1095.73 818.801 1094.39 817.633 1094.19 816.985 C 1092.24 810.884 1106.15 808.198 1110.1 807.189 z" fill="rgb(10,25,28)" transform="translate(0,0)"></path>
<path d="M 1228.95 866.803 C 1240.62 867.384 1232.21 873.784 1226.7 874.928 C 1224.64 875.355 1218.6 879.891 1216.52 881.253 C 1215.45 883.263 1218.54 883.679 1221.07 887.485 C 1224.46 892.575 1218.83 908.104 1213.09 899.422 C 1212.35 898.293 1216.46 892.955 1217.27 891.586 C 1205.78 882.442 1208.21 893.086 1203.46 897.372 C 1201.99 898.696 1196.68 895.765 1199.67 890.414 C 1206.24 878.639 1216.66 871.772 1228.95 866.803 z" fill="rgb(10,25,28)" transform="translate(0,0)"></path>
<path d="M 1001.11 798.134 C 1010.38 797.364 1031.95 799.013 1038.07 812.025 C 1038.49 812.913 1037.78 814.773 1037.19 815.622 C 1033.31 816.566 1028.49 810.854 1022.31 807.375 C 1009.88 803.573 998.57 803.571 987.558 811.279 C 985.099 813.001 980.211 810.188 982.578 807.02 C 986.486 801.791 995.18 799.465 1001.11 798.134 z" fill="rgb(10,25,28)" transform="translate(0,0)"></path>
<path d="M 738.756 211.609 C 750.086 173.535 781.35 146.627 822.021 146.73 C 849.302 146.799 866.666 156.493 885.379 175.178 C 897.447 163.98 907.958 156.086 924.081 151.739 C 958.123 142.561 993.372 156.77 1010.36 187.914 C 1014.36 195.24 1015.92 200.452 1018.09 208.468 C 1083.18 193.407 1125.69 265.315 1076.68 315.459 C 1086.26 322.089 1094.07 330.962 1099.44 341.306 C 1120.8 382.521 1100.71 423.9 1061.13 443.591 C 1065.29 453.961 1067.34 462.682 1064.58 473.885 C 1061.86 484.865 1054.81 494.279 1045.05 499.987 C 1031.89 507.718 1019.23 507.455 1004.96 503.908 C 1005.41 539.918 997.61 568.187 972.109 595.217 C 958.183 609.977 947.971 613.315 931.623 622.14 C 931.688 627.617 931.799 633.093 931.956 638.568 L 931.385 638.843 C 931.4 649.214 929.533 670.031 923.852 678.036 C 921.471 685.448 908.384 722.994 909.899 727.431 C 905.236 734.976 901.01 741.109 895.847 748.334 C 881.623 734.202 872.14 728.175 854.599 718.161 C 845.283 713.675 829.645 711.427 819.607 705.548 C 810.731 684.793 800.403 664.579 791.78 643.532 C 791.207 632.114 791.252 619.56 791.064 608.051 C 790.748 603.67 791.019 596.767 791.061 592.197 C 777.182 580.262 761.635 565.564 752.97 549.223 L 752.17 549.033 C 741.321 552.426 725.672 553.401 714.576 551.681 C 694.663 548.447 676.883 537.35 665.23 520.882 C 652.452 502.877 649.766 484.755 653.342 463.413 C 623.61 457.858 600.504 440.797 592.115 410.604 C 583.023 377.879 597.672 340.795 628.987 326.299 C 635.695 323.193 641.77 321.589 648.913 319.755 C 630.918 274.154 646.561 231.612 694.589 212.846 C 708.48 207.418 724.296 208.797 738.756 211.609 z" fill="rgb(210,165,133)" transform="translate(0,0)"></path>
<path d="M 845.321 300.485 C 882.405 328.232 910.825 349.032 953.757 315.421 C 1001.41 359.663 1007.22 398.951 1004.39 461.79 C 1003.98 470.872 1003.3 496.556 1004.96 503.908 C 1005.41 539.918 997.61 568.187 972.109 595.217 C 958.183 609.977 947.971 613.315 931.623 622.14 C 931.688 627.617 931.799 633.093 931.956 638.568 L 931.385 638.843 C 931.4 649.214 929.533 670.031 923.852 678.036 C 921.471 685.448 908.384 722.994 909.899 727.431 C 905.236 734.976 901.01 741.109 895.847 748.334 C 881.623 734.202 872.14 728.175 854.599 718.161 C 845.283 713.675 829.645 711.427 819.607 705.548 C 810.731 684.793 800.403 664.579 791.78 643.532 C 791.207 632.114 791.252 619.56 791.064 608.051 C 790.748 603.67 791.019 596.767 791.061 592.197 C 777.182 580.262 761.635 565.564 752.97 549.223 L 752.17 549.033 C 745.174 538.2 743.038 524.814 742.488 512.164 C 714.969 517.196 678.094 477.389 698.842 449.424 C 703.66 442.83 710.954 438.481 719.045 437.376 C 732.35 435.686 742.142 442.822 751.965 450.285 C 766.816 418.687 779.591 384.039 767.631 349.578 C 776.254 352.387 782.924 354.367 792.096 354.565 C 806.304 354.844 820.049 349.507 830.347 339.714 C 842.147 328.317 844.948 316.055 845.321 300.485 z" fill="rgb(241,180,147)" transform="translate(0,0)"></path>
<path d="M 791.064 608.051 C 823.338 643.245 875.968 671.926 923.852 678.036 C 921.471 685.448 908.384 722.994 909.899 727.431 C 905.236 734.976 901.01 741.109 895.847 748.334 C 881.623 734.202 872.14 728.175 854.599 718.161 C 845.283 713.675 829.645 711.427 819.607 705.548 C 810.731 684.793 800.403 664.579 791.78 643.532 C 791.207 632.114 791.252 619.56 791.064 608.051 z" fill="rgb(241,180,147)" transform="translate(0,0)"></path>
<path d="M 791.061 592.197 C 838.411 625.971 874.207 637.664 931.071 621.638 C 931.071 626.877 930.871 633.757 931.385 638.843 C 931.4 649.214 929.533 670.031 923.852 678.036 C 875.968 671.926 823.338 643.245 791.064 608.051 C 790.748 603.67 791.019 596.767 791.061 592.197 z" fill="rgb(10,25,28)" transform="translate(0,0)"></path>
<path d="M 742.488 512.164 L 745.068 511.966 C 750.658 511.569 749.58 529.997 753.32 536.409 C 756.547 541.943 758.565 546.226 752.97 549.223 L 752.17 549.033 C 745.174 538.2 743.038 524.814 742.488 512.164 z" fill="rgb(10,25,28)" transform="translate(0,0)"></path>
<path d="M 833.436 525.589 C 833.987 525.589 838.053 525.938 838.363 526.318 C 842.679 531.458 848.21 540.785 852.898 545.07 C 885.932 575.262 929.213 568.1 951.736 529.76 C 952.591 528.304 954.455 528.494 955.982 528.601 C 957.433 531.219 957.123 530.067 956.647 533.386 C 951.849 542.538 945.164 550.569 937.034 556.948 C 906.037 580.911 864.268 571.025 840.272 541.664 C 837.228 537.938 832.689 530.524 833.436 525.589 z" fill="rgb(10,25,28)" transform="translate(0,0)"></path>
<path d="M 899.234 424.362 C 902.739 424.935 902.361 424.331 904.649 426.303 C 907.286 432.738 906.622 450.851 909.831 459.768 C 912.756 470.16 928.688 481.1 928.586 491.934 C 928.431 508.418 907.311 507.523 897.306 506.886 C 894.564 506.213 891.774 505.249 890.225 502.784 C 895.352 495.672 940.806 509.233 911.157 475.336 C 901.034 463.763 897.573 439.895 899.234 424.362 z" fill="rgb(10,25,28)" transform="translate(0,0)"></path>
<path d="M 947.251 424.044 C 967.094 425.147 968.923 449.422 950.705 456.167 C 930.295 455.282 929.149 430.446 947.251 424.044 z" fill="rgb(10,25,28)" transform="translate(0,0)"></path>
<path d="M 835.992 430.987 C 857.219 429.669 861.275 451.061 846.072 461.849 C 844.677 461.969 840.096 462.492 838.988 462.181 C 821.691 457.323 824.054 439.862 835.992 430.987 z" fill="rgb(10,25,28)" transform="translate(0,0)"></path>
<path d="M 833.414 396.288 C 837.273 396.125 866.967 398.47 858.728 408.034 C 857.361 409.62 849.926 405.479 847.283 404.985 C 834.679 402.627 827.315 402.644 815.617 409.26 C 812.803 411.693 808.453 415.446 806.923 418.766 C 800.787 432.087 793.485 423.926 801.976 413.486 C 811.981 401.185 818.553 398.36 833.414 396.288 z" fill="rgb(10,25,28)" transform="translate(0,0)"></path>
<path d="M 940.19 388.221 C 948.365 388.005 956.539 388.927 963.695 393.372 C 965.664 394.594 975.603 401.72 972.505 404.885 C 968.047 409.438 963.782 400.755 958.607 398.67 C 952.611 396.254 951.297 396.074 944.698 395.64 C 937.53 396.122 927.663 397.368 922.115 402.473 C 919.529 404.853 908.846 411.737 912.185 402.056 C 914.382 395.684 932.613 389.583 940.19 388.221 z" fill="rgb(10,25,28)" transform="translate(0,0)"></path>
<path d="M 713.036 455.009 C 725.098 456.135 737.276 459.401 745.12 469.452 C 746.643 470.525 748.664 474.208 746.338 475.646 C 741.797 478.454 734.055 464.074 735.036 480.937 C 735.892 483.287 738.196 488.309 736.909 489.457 C 728.338 497.102 726.016 471.183 732.477 467.474 C 732.737 467.325 732.91 466.667 732.797 466.224 C 726.811 460.009 708.313 466.788 713.036 455.009 z" fill="rgb(10,25,28)" transform="translate(0,0)"></path>
<path d="M 1625.22 885.045 C 1629.78 898.712 1726.27 953.939 1715.42 975.008 C 1714.67 976.461 1713.75 977.881 1712.62 979.066 C 1728.45 987.519 1746.62 1007.13 1751.97 1024.2 C 1756.24 1037.58 1754.91 1052.12 1748.27 1064.5 C 1739.18 1081.68 1719.98 1093.94 1703.08 1102.78 C 1752.12 1150.3 1764.97 1202.44 1775.18 1268.71 C 1777.95 1286.67 1781.36 1312.94 1782.13 1331 L 1376.41 1331 C 1370.82 1299.1 1365.95 1284.51 1352.8 1255.1 C 1337.24 1256.44 1321.65 1257.33 1306.04 1257.77 C 1286.34 1258.17 1266.57 1260.25 1246.91 1261.63 C 1230.61 1262.79 1224.61 1258.24 1224.05 1241.9 C 1213.68 1243.08 1192.55 1247.32 1183.87 1239.64 C 1181.11 1237.2 1182.77 1230.09 1183.28 1226.55 C 1180.16 1218.76 1171.6 1226.4 1168.02 1222.66 C 1140.41 1193.86 1177.58 1186.99 1192.02 1182.81 C 1169.02 1149.28 1238.1 1148.56 1258.99 1145.94 C 1254.06 1140.91 1248.2 1140.67 1244.67 1133.09 C 1240.98 1125.14 1247.93 1121.06 1254.23 1117.91 C 1264.21 1117.99 1287.98 1124.45 1292.25 1123.95 C 1318.09 1089.55 1369.67 1054.85 1412.05 1046.46 L 1412.13 1009.45 C 1445.1 1014.1 1477.5 1009.82 1506.39 992.832 C 1544.9 970.181 1558.75 950.852 1570.44 908.762 C 1580.35 913.204 1586.1 914.889 1596.68 911.065 C 1600.19 909.797 1601.92 908.388 1605.82 908.083 C 1606.6 906.97 1611.83 902.37 1613.24 900.834 C 1617.91 895.746 1621.39 890.768 1625.22 885.045 z" fill="rgb(241,180,147)" transform="translate(0,0)"></path>
<path d="M 1703.08 1102.78 C 1752.12 1150.3 1764.97 1202.44 1775.18 1268.71 C 1777.95 1286.67 1781.36 1312.94 1782.13 1331 L 1376.41 1331 C 1370.82 1299.1 1365.95 1284.51 1352.8 1255.1 C 1382.05 1253.6 1408.3 1249.44 1422.49 1221.37 C 1493.93 1200.6 1572.19 1168.94 1639.57 1137.35 C 1661.32 1127.16 1682.23 1113.19 1703.08 1102.78 z" fill="rgb(10,25,28)" transform="translate(0,0)"></path>
<path d="M 1570.44 908.762 C 1580.35 913.204 1586.1 914.889 1596.68 911.065 C 1600.19 909.797 1601.92 908.388 1605.82 908.083 C 1592.97 928.913 1575.85 945.167 1553.65 955.824 C 1553.47 959.742 1553.43 963.469 1552.69 967.322 C 1530.72 1002.8 1486.42 1040.38 1444.9 1050.33 C 1433.52 1053.06 1422.91 1053.39 1411.29 1052.92 C 1418.38 1090.47 1439.48 1110.09 1478.09 1109.98 C 1462.92 1121.4 1418.32 1145.69 1400.42 1153.79 C 1375.82 1144.16 1351.22 1137.54 1325.68 1131.17 C 1316.05 1128.77 1300.81 1126.92 1292.25 1123.95 C 1318.09 1089.55 1369.67 1054.85 1412.05 1046.46 L 1412.13 1009.45 C 1445.1 1014.1 1477.5 1009.82 1506.39 992.832 C 1544.9 970.181 1558.75 950.852 1570.44 908.762 z" fill="rgb(10,25,28)" transform="translate(0,0)"></path>
<path d="M 1625.22 885.045 C 1629.78 898.712 1726.27 953.939 1715.42 975.008 C 1714.67 976.461 1713.75 977.881 1712.62 979.066 C 1705.92 985.492 1693.78 992.654 1684.84 986.037 L 1684.73 984.906 C 1676.82 981.799 1661.7 982.839 1653 983.567 C 1654.53 983.681 1658.55 983.621 1659.51 984.418 C 1659.56 984.608 1659.61 984.666 1659.47 984.77 C 1650.13 991.963 1627.91 1007.37 1618.56 1013.05 C 1616.11 1014.99 1614.49 1017.04 1611.9 1017.15 C 1609.3 1021.4 1607.55 1024.63 1602.54 1026.06 C 1596.03 1023.84 1589.67 1021.86 1583.12 1019.78 C 1573.26 1017.67 1562.99 1015.64 1553.24 1013.47 C 1552.82 1009.42 1553.1 1002.25 1552.98 997.783 C 1553.01 987.6 1553.1 977.502 1552.69 967.322 C 1553.43 963.469 1553.47 959.742 1553.65 955.824 C 1575.85 945.167 1592.97 928.913 1605.82 908.083 C 1606.6 906.97 1611.83 902.37 1613.24 900.834 C 1617.91 895.746 1621.39 890.768 1625.22 885.045 z" fill="rgb(229,211,194)" transform="translate(0,0)"></path>
<path d="M 1611.9 1017.15 C 1606.69 1013.86 1590.66 1008.95 1588.44 1005.86 C 1590.87 989.418 1670.04 968.002 1685.28 978.898 C 1686.17 982.333 1686 981.081 1684.73 984.906 C 1676.82 981.799 1661.7 982.839 1653 983.567 C 1654.53 983.681 1658.55 983.621 1659.51 984.418 C 1659.56 984.608 1659.61 984.666 1659.47 984.77 C 1650.13 991.963 1627.91 1007.37 1618.56 1013.05 C 1616.11 1014.99 1614.49 1017.04 1611.9 1017.15 z" fill="rgb(10,25,28)" transform="translate(0,0)"></path>
<path d="M 1596.92 1004.29 C 1614.57 993.825 1631.98 986.668 1652.27 983.679 L 1653 983.567 C 1654.53 983.681 1658.55 983.621 1659.51 984.418 C 1659.56 984.608 1659.61 984.666 1659.47 984.77 C 1650.13 991.963 1627.91 1007.37 1618.56 1013.05 L 1596.92 1004.29 z" fill="rgb(229,211,194)" transform="translate(0,0)"></path>
<path d="M 1552.98 997.783 C 1556.92 994.017 1567.04 1003.16 1572.85 1004.82 C 1580.18 1006.91 1582.71 1012.36 1583.12 1019.78 C 1573.26 1017.67 1562.99 1015.64 1553.24 1013.47 C 1552.82 1009.42 1553.1 1002.25 1552.98 997.783 z" fill="rgb(255,254,254)" transform="translate(0,0)"></path>
<path d="M 1258.99 1145.94 C 1266.53 1145.75 1297.65 1144.37 1301.96 1147.7 C 1301.73 1150.94 1298.86 1152.53 1295.97 1152.28 C 1265.51 1149.64 1235.61 1154.21 1205.98 1160.97 C 1200.86 1162.14 1193.29 1163.38 1193.07 1170.07 C 1192.58 1184.97 1223.64 1175.67 1232.33 1174.55 C 1248.98 1172.44 1265.74 1171.23 1282.52 1170.93 C 1287.55 1170.81 1297.68 1170.42 1302.42 1171.31 L 1303.4 1173.11 C 1301.51 1179.47 1290.66 1177.16 1285.12 1177.25 C 1260.46 1177.62 1234.26 1179.17 1210.23 1184.87 C 1197.12 1187.97 1143.8 1196.37 1173.7 1217.51 C 1177.36 1220.12 1206.83 1208.89 1212.69 1208.64 C 1223.62 1206.26 1297.34 1195.59 1304.5 1198.83 C 1305.57 1201.77 1305.45 1200.3 1304.8 1203.41 C 1301.38 1204.98 1282.13 1205.12 1276.01 1206.14 C 1268.34 1207.41 1161.08 1215.32 1193.58 1237.35 C 1199.87 1241.61 1294.07 1224.4 1303.68 1228.81 C 1305.36 1231.68 1305.05 1230.17 1304.51 1233.55 C 1297.91 1238.74 1236.04 1232.69 1230.76 1247.26 C 1235.34 1266.78 1298.06 1244.26 1306.09 1253.41 C 1306.11 1254.75 1306.21 1256.48 1306.04 1257.77 C 1286.34 1258.17 1266.57 1260.25 1246.91 1261.63 C 1230.61 1262.79 1224.61 1258.24 1224.05 1241.9 C 1213.68 1243.08 1192.55 1247.32 1183.87 1239.64 C 1181.11 1237.2 1182.77 1230.09 1183.28 1226.55 C 1180.16 1218.76 1171.6 1226.4 1168.02 1222.66 C 1140.41 1193.86 1177.58 1186.99 1192.02 1182.81 C 1169.02 1149.28 1238.1 1148.56 1258.99 1145.94 z" fill="rgb(10,25,28)" transform="translate(0,0)"></path>
<path d="M 1553.24 1013.47 C 1562.99 1015.64 1573.26 1017.67 1583.12 1019.78 C 1589.67 1021.86 1596.03 1023.84 1602.54 1026.06 C 1583.8 1037.69 1565.13 1053.34 1545.92 1065.37 C 1555.12 1045.58 1553.3 1035.32 1553.24 1013.47 z" fill="rgb(10,25,28)" transform="translate(0,0)"></path>
<path d="M 1175.26 648.316 C 1157.92 639.494 1144.74 631.153 1131.89 616.456 C 1099.19 579.042 1108.33 542.609 1107.99 498.102 C 1107.82 476.207 1106 454.74 1107.61 432.669 C 1110.2 393.057 1128.61 356.15 1158.68 330.242 C 1210.95 285.465 1291.74 281.003 1351.18 315.26 C 1365.28 323.385 1375.5 333.444 1386.01 345.717 C 1414.28 380.367 1423.62 430.115 1409.62 472.642 C 1417.6 477.48 1423.66 484.549 1425.7 493.876 C 1432.08 523.148 1407.46 554.573 1379.37 560.945 C 1373.47 562.282 1367.84 561.462 1362.04 560.532 C 1357.61 574.354 1354.43 582.837 1345.33 594.588 C 1344.27 595.952 1335.63 607.752 1335.25 608.661 C 1333.97 626.799 1335.87 646.674 1335.02 665.006 C 1334.98 665.885 1336.97 670.45 1337.37 672.554 C 1317.65 688.398 1298.1 704.452 1278.72 720.714 C 1268.29 729.383 1253.54 742.169 1242.76 749.857 C 1234.09 733.424 1223.87 719.885 1212.86 704.964 C 1213.84 704.724 1214.82 704.471 1215.79 704.203 C 1259.8 692.248 1307.21 653.412 1329.29 614.488 C 1292.05 642.666 1255.38 662.077 1206.89 656.491 C 1199.06 655.589 1192.13 653.279 1184.58 651.305 L 1183.36 652.62 L 1182.95 651.082 C 1180.26 648.666 1179.18 649.101 1175.26 648.316 z" fill="rgb(156,128,112)" transform="translate(0,0)"></path>
<path d="M 1386.01 345.717 C 1414.28 380.367 1423.62 430.115 1409.62 472.642 C 1387.83 463.05 1373.82 476.312 1362.64 493.8 C 1303.07 466.507 1331.18 367.109 1386.01 345.717 z" fill="rgb(210,165,133)" transform="translate(0,0)"></path>
<path d="M 1271.03 551.463 C 1277.31 553.024 1276.05 557.419 1273.49 562.016 C 1249.76 604.612 1194.73 612.312 1160.75 577.774 C 1158.47 574.81 1157.48 574.01 1156.91 570.3 L 1158.22 569.403 C 1165.65 571.222 1177.09 584.349 1184.51 586.994 C 1223.9 601.024 1253.02 586.327 1271.03 551.463 z" fill="rgb(10,25,28)" transform="translate(0,0)"></path>
<path d="M 1199.53 459.318 C 1217.47 462.876 1194.35 503.699 1188.05 511.876 C 1162.55 544.987 1197.63 534.167 1207.93 538.184 C 1209.14 541.056 1209.06 539.761 1207.79 543.162 C 1197.19 545.597 1182.19 546.883 1174.9 536.784 C 1163.96 521.633 1189.11 503.346 1193.95 489.465 C 1197.89 478.171 1198 470.694 1199.53 459.318 z" fill="rgb(10,25,28)" transform="translate(0,0)"></path>
<path d="M 1252.13 460.014 C 1273.21 458.972 1277.58 481.621 1260.98 491.7 C 1239.52 492.904 1235.39 471.786 1252.13 460.014 z" fill="rgb(10,25,28)" transform="translate(0,0)"></path>
<path d="M 1151.04 455.022 C 1173.03 454.875 1174.22 479.183 1156.87 487.087 C 1154.28 486.974 1152.48 487.064 1149.98 486.201 C 1146.28 484.915 1143.25 482.208 1141.56 478.68 C 1136.64 468.587 1141.17 459.42 1151.04 455.022 z" fill="rgb(10,25,28)" transform="translate(0,0)"></path>
<path d="M 1399.1 487.828 C 1401.56 488.502 1406.08 490.358 1403.46 494.001 C 1402.95 494.708 1401.94 495.202 1401.02 495.118 C 1394.28 494.504 1388.18 501.786 1383.77 506.106 C 1388.03 509.025 1391.9 509.325 1392.74 515.506 C 1393.18 518.723 1390.26 531.298 1385.04 527.021 C 1383.59 525.824 1386.29 517.02 1386.63 514.445 C 1385.97 514.057 1385.17 513.65 1384.56 513.15 C 1377.04 505.324 1379.11 536.427 1370.68 525.595 C 1366.2 519.827 1381.02 495.83 1388.33 493.196 C 1392.31 491.762 1395.4 489.402 1399.1 487.828 z" fill="rgb(10,25,28)" transform="translate(0,0)"></path>
<path d="M 1150.45 421.256 C 1163.49 420.136 1174.46 421.318 1184.98 430.077 C 1186.78 430.812 1185.88 435.111 1184.68 435.362 C 1180.84 436.166 1171.31 430.074 1166.72 428.508 C 1153.91 426.747 1147.75 428.423 1137.1 435.284 C 1136.42 435.761 1134.37 436.33 1133.6 435.815 C 1124.99 430.001 1146.58 422.405 1150.45 421.256 z" fill="rgb(10,25,28)" transform="translate(0,0)"></path>
<path d="M 1251.83 426.258 C 1259.86 426.025 1265.06 426.552 1273.15 430.04 C 1275.9 431.224 1293.13 441.691 1284.83 446.435 C 1283.16 447.392 1277.15 440.701 1274.43 438.442 C 1262.91 432.668 1254.02 430.763 1241.61 436.327 C 1239.03 437.482 1236.12 438.82 1235.18 434.871 C 1233.8 429.07 1247.97 426.918 1251.83 426.258 z" fill="rgb(10,25,28)" transform="translate(0,0)"></path>
<path d="M 411.284 726.078 C 410.766 722.554 410.308 719.022 409.908 715.483 C 393.733 570.475 559.067 499.524 668.979 579.494 C 694.074 597.752 709.181 631.409 712.368 661.758 C 712.72 664.38 712.915 663.309 710.969 665.905 C 709.163 666.181 708.804 666.213 706.98 666.167 L 706.933 667.148 C 637.863 651.709 575.232 661.357 512.363 693.146 C 502.921 697.921 480.563 706.986 472.811 713.122 C 466.604 715.952 424.806 736.209 422.909 739.235 C 412.007 741.501 411.041 735.384 411.284 726.078 z" fill="rgb(21,53,72)" transform="translate(0,0)"></path>
<path d="M 411.284 726.078 C 414.682 726.815 432.376 716.937 436.748 714.69 C 513.33 675.342 594.606 634.229 683.414 653.215 C 687.505 654.09 711 662.231 712.368 661.758 C 712.72 664.38 712.915 663.309 710.969 665.905 C 709.163 666.181 708.804 666.213 706.98 666.167 L 706.933 667.148 C 637.863 651.709 575.232 661.357 512.363 693.146 C 502.921 697.921 480.563 706.986 472.811 713.122 C 466.604 715.952 424.806 736.209 422.909 739.235 C 412.007 741.501 411.041 735.384 411.284 726.078 z" fill="rgb(255,254,254)" transform="translate(0,0)"></path>
<path d="M 791.78 643.532 C 800.403 664.579 810.731 684.793 819.607 705.548 C 800.418 702.628 789.961 701.7 770.218 704.264 C 756.899 688.239 743.193 681.386 724.744 673.67 C 744.661 665.85 772.442 653.113 791.78 643.532 z" fill="rgb(210,165,133)" transform="translate(0,0)"></path>
<path d="M 782.131 655.27 C 783.734 655.737 785.337 656.204 786.94 656.67 C 788.803 669.843 793.662 690.044 792.896 703.052 C 791.986 702.713 788.492 701.958 788.329 701.35 C 786.324 693.876 781.795 660.273 782.131 655.27 z" fill="rgb(10,25,28)" transform="translate(0,0)"></path>
<path d="M 1335.25 608.661 C 1336.78 619.65 1336.01 652.985 1335.91 665.421 C 1340.14 665.732 1343.92 666.153 1348.23 666.363 C 1347.12 667.671 1346.07 669.151 1344.72 670.136 C 1340.34 669.889 1341.17 670.246 1337.37 672.554 C 1336.97 670.45 1334.98 665.885 1335.02 665.006 C 1335.87 646.674 1333.97 626.799 1335.25 608.661 z" fill="rgb(241,180,147)" transform="translate(0,0)"></path>
<metadata><recraft-signature>{"signed_by": "recraft", "signature_b64": "BwWP1ZRyJPlO6+O7y60hkWIw8swTrQCInP18l/mx4s/rvxacrCQWYvMCnf/tfWj2CWwdpwwhAeWZLRefnbc/Dg==", "signing_algo": "Ed25519", "generation_timestamp": 1779106877, "identifier": "7326f9b8-6e85-4160-86c7-6849a976d759"}</recraft-signature></metadata></svg>