<svg xmlns="http://www.w3.org/2000/svg" height="1216" preserveAspectRatio="none" style="display: block;" version="1.1" viewBox="0 0 1509 2048" width="896">
<path d="M 0 0 L 1509 0 L 1509 2048 L 0 2048 L 0 0 z" fill="rgb(255,255,255)" transform="translate(0,0)"></path>
<path d="M 725.233 417.566 C 780.498 412.494 844.721 434.698 880.607 477.998 C 897.043 474.358 910.853 473.597 927.026 479.211 C 951.148 487.489 970.949 505.084 982.006 528.064 C 1005 576.941 988.883 644.293 971.719 692.529 C 972.367 692.673 973.014 692.824 973.659 692.981 C 1007.18 701.244 1021.67 730.4 1012.52 762.999 C 1007.62 780.51 995.93 795.34 980.051 804.202 C 962.241 814.087 947.62 813.831 928.757 808.556 C 928.12 810.304 927.471 812.047 926.809 813.785 C 908.681 861.317 877.852 899.061 830.82 920.187 C 831.35 929.171 831.086 940.69 831.106 949.868 C 843.739 954.535 856.394 959.938 868.862 964.4 C 911.362 979.61 962.284 998.163 993.636 1031.81 C 1012.36 1051.91 1032.39 1078.19 1050.12 1100.11 L 1095.01 1156.18 C 1105.81 1169.43 1120.84 1186.78 1130.48 1200.45 C 1122.29 1206.02 1110.77 1212.31 1102 1217.39 C 1109.75 1228.02 1117.39 1238.74 1124.92 1249.53 C 1142.8 1274.77 1154.76 1290.7 1157.16 1323.32 C 1161.65 1384.36 1103.74 1421.29 1060.87 1454.38 C 1077.33 1454.31 1101.69 1453.22 1117.07 1455.19 C 1128.95 1456.72 1154.85 1494.66 1162.87 1504.63 C 1178.64 1524.21 1196.91 1544.37 1210.44 1565.23 C 1226.65 1590.2 1209.32 1627.89 1179.16 1630.31 C 1164.96 1631.61 1150.48 1631 1136.29 1630.95 L 1056.89 1630.73 L 787.837 1630.56 L 467.072 1630.72 L 378.059 1630.83 C 366.739 1630.88 339.132 1631.63 329.138 1630.45 C 320.336 1629.41 312.074 1625.67 305.496 1619.73 C 296.884 1611.92 291.83 1600.94 291.504 1589.33 C 290.866 1568.51 305.786 1554.33 318.342 1539.56 C 332.063 1523.56 345.864 1507.62 359.745 1491.75 C 367.597 1482.66 376.947 1470.87 384.472 1462.07 C 394.951 1449.8 434.071 1454.31 450.647 1454.19 C 448.739 1453.02 446.848 1451.82 444.973 1450.6 C 411.696 1428.94 361.732 1387.98 354.3 1347.7 C 343.908 1291.38 381.447 1260.97 410.05 1217.39 L 380.494 1199.33 C 391.131 1187.67 404.638 1169.67 415.005 1156.84 L 479.771 1077.08 C 498.593 1053.96 522.315 1019.93 548.727 1005.31 C 589.31 982.851 637.83 966.669 681.185 949.076 C 680.969 939.841 680.947 930.441 680.837 921.19 C 627.083 893.273 601.194 860.468 581.271 804.034 C 563.628 809.583 549.163 811.013 532.042 802.409 C 516.85 794.697 505.365 781.238 500.14 765.021 C 490.471 735.129 502.56 702.886 533.893 693.274 C 528.762 669.99 521.702 653.525 519.463 628.635 C 511.711 542.454 570.644 468.447 647.266 435.824 C 673.225 424.772 696.703 420.047 725.233 417.566 z" fill="rgb(8,5,3)" transform="translate(0,0)"></path>
<path d="M 859.77 548.762 C 861.569 550.927 861.055 555.733 861.011 558.754 C 860.399 601.603 886.886 632.091 926.363 645.303 C 929.913 668.362 931.825 691.643 932.084 714.972 C 947.863 700.297 965.093 689.309 986.7 700.713 C 1013.56 714.89 1017.32 750.601 1003.9 775.643 C 995.921 790.804 982.109 802.062 965.649 806.823 C 952.563 810.699 939.154 810.361 927.075 803.709 C 886.655 915.109 779.217 967.543 670.825 911.937 C 623.076 884.9 599.391 849.981 583.196 798.73 C 562.714 808.961 543.764 807.841 525.035 794.262 C 512.14 784.853 503.551 770.672 501.186 754.885 C 494.298 711.523 534 679.606 572.973 703.83 C 576.428 705.977 579.821 708.624 583.068 711.079 C 582.463 682.58 586.106 657.238 593.497 629.857 C 608.362 632.531 623.407 634.087 638.505 634.513 C 720.746 636.588 800.406 605.716 859.77 548.762 z" fill="rgb(187,136,114)" transform="translate(0,0)"></path>
<path d="M 663.811 674.037 C 665.383 674.034 669.144 673.847 670.489 674.212 C 683.905 677.851 686.033 699.887 683.833 710.994 C 682.03 720.093 679.558 725.273 672.408 730.132 C 647.904 732.874 645.104 689.717 663.811 674.037 z" fill="rgb(8,5,3)" transform="translate(0,0)"></path>
<path d="M 841.92 673.915 C 849.631 674.996 854.301 677.802 857.156 685.457 C 862.876 700.793 862.931 723.372 845.993 731.043 C 822.614 727.241 821.409 686.077 841.92 673.915 z" fill="rgb(8,5,3)" transform="translate(0,0)"></path>
<path d="M 823.087 794.805 C 826.686 797.083 829.549 810.189 834.949 815.017 C 839.564 819.144 848.243 819.823 850.639 823.67 L 848.638 824.673 C 842.431 823.977 837.324 820.676 832.277 817.236 C 813.46 842.695 781.197 861.187 748.992 858.304 C 718.761 855.597 698.008 839.666 678.795 817.544 C 672.85 821.559 669.101 823.127 662.335 825.179 L 661.329 823.713 C 662.629 820.865 670.815 820.145 675.144 816.117 C 681.661 810.054 682.455 802.478 688.183 796.312 L 689.056 797.331 C 688.387 805.552 685.762 808.157 681.064 814.896 C 686.023 821.13 691.515 826.92 697.478 832.202 C 715.454 847.883 737.315 856.799 761.311 855.017 C 791.494 852.774 811.182 836.647 830.117 814.794 C 826.428 809.247 820.97 801.569 823.087 794.805 z" fill="rgb(8,5,3)" transform="translate(0,0)"></path>
<path d="M 753.043 664.921 C 756.206 667.21 757.912 671.626 759.114 675.329 C 765.553 693.98 768.42 721.543 750.454 735.16 C 736.214 745.953 720.124 754.63 729.246 776.254 C 732.04 782.958 737.515 788.184 744.342 790.663 C 750.742 793 757.825 792.585 763.908 789.515 C 775.951 783.383 774.937 774.252 777.906 764.609 L 779.132 764.805 L 779.907 767.259 C 779.725 769.317 779.508 771.355 779.103 773.385 C 777.655 780.912 773.108 787.483 766.574 791.491 C 760.555 795.255 753.002 796.294 746.124 794.68 C 738.777 792.966 732.456 788.309 728.643 781.799 C 726.001 777.354 723.863 770.148 723.964 765.119 C 724.589 734.114 753.29 744.724 759.782 713.188 C 764.033 692.543 751.841 669.641 753.043 664.921 z" fill="rgb(8,5,3)" transform="translate(0,0)"></path>
<path d="M 963.488 724.326 C 965.316 724.476 967.721 724.656 969.508 724.964 C 975.792 726.038 981.358 729.651 984.897 734.954 C 991.89 745.657 988.572 753.791 985.947 745.51 C 982.055 733.23 980.031 731.886 968.184 727.845 C 941.67 728.235 944.548 744.638 940.481 746.92 C 935.574 746.969 942.623 735.868 943.364 734.843 C 948.728 727.429 954.972 725.623 963.488 724.326 z" fill="rgb(8,5,3)" transform="translate(0,0)"></path>
<path d="M 543.515 725.097 C 556.971 724.611 566.967 728.446 572.962 742.002 C 573.563 743.36 573.684 746.017 571.535 746.016 C 566.656 742.784 571.338 733.261 549.852 727.708 C 524.262 729.94 528.901 746.989 526.115 749.225 C 525.753 749.515 525.272 749.607 524.829 749.472 C 520.922 748.28 524.831 740.709 525.81 738.759 C 529.794 730.826 535.247 727.552 543.515 725.097 z" fill="rgb(8,5,3)" transform="translate(0,0)"></path>
<path d="M 963.791 759.149 C 968.935 758.629 974.59 757.743 979.042 761.025 C 979.989 761.724 982.713 764.773 981.521 765.96 C 976.531 766.184 973.732 754.937 959.638 766.903 C 957.764 775.039 962.212 779.6 961.487 780.897 C 956.999 782.938 949.091 769.787 963.791 759.149 z" fill="rgb(8,5,3)" transform="translate(0,0)"></path>
<path d="M 539.985 758.154 C 546.266 758.506 548.764 758.272 554.235 763.811 C 557.478 767.093 559.555 780.49 552.406 781.711 C 550.083 782.108 554.073 775.566 554.439 774.851 C 553.652 768.376 551.308 763.002 544.096 761.541 C 538.632 760.433 537.649 763.103 533.845 765.795 C 532.607 765.558 532.592 765.542 531.777 764.751 C 531.661 760.939 537.202 759.045 539.985 758.154 z" fill="rgb(8,5,3)" transform="translate(0,0)"></path>
<path d="M 394.867 1457.17 C 412.77 1456.03 436.057 1457.56 455.236 1456.99 L 477.431 1469.1 C 486.191 1495.5 501.303 1512.01 528.821 1518.71 C 529.486 1520.5 530.208 1522.27 530.986 1524.02 C 537.876 1539.21 548.08 1541.76 563.634 1541.85 C 589.662 1541.99 615.686 1541.97 641.715 1541.96 L 786.962 1541.97 L 889.868 1541.99 C 909.027 1541.99 928.329 1542.32 947.463 1541.55 C 964.537 1540.87 974.41 1532.21 979.699 1516.65 C 982.765 1515.53 985.818 1514.36 988.857 1513.16 C 1010.88 1504.35 1020.01 1491.88 1028.98 1470.92 C 1039.25 1467.35 1046.28 1462.79 1055.28 1457.02 C 1075.59 1457.89 1095.9 1455.76 1116.03 1457.62 C 1120.44 1458.03 1124.76 1462.01 1127.47 1465.37 C 1153.2 1497.27 1179.26 1528.98 1204.6 1561.19 C 1221.03 1582.08 1214.87 1608.21 1193.55 1622.65 C 1187.79 1626.08 1180.65 1627.74 1174 1627.76 C 1104.21 1627.97 1034.4 1627.88 964.601 1627.87 L 558.58 1627.87 L 394.98 1627.89 C 377.302 1627.91 340.476 1629.84 324.452 1626.9 C 297.126 1621.88 285.076 1584.04 304.357 1561.13 C 331.713 1528.62 361.872 1493.94 389.468 1461.26 C 390.636 1459.85 393.286 1458.11 394.867 1457.17 z" fill="rgb(208,188,179)" transform="translate(0,0)"></path>
<path d="M 305.417 1572.45 C 319.836 1571.26 344.827 1571.97 359.855 1571.96 L 461.177 1571.96 L 779.911 1571.86 L 1064.77 1571.89 L 1153.7 1571.87 C 1166.09 1571.87 1188.67 1571.21 1200.39 1572.3 L 1200.76 1574.49 C 1183.54 1575.61 1156.94 1574.84 1139.23 1574.81 L 1025.59 1574.62 L 677.879 1574.71 L 423.459 1574.79 L 345.472 1574.92 C 337.066 1574.94 313.58 1575.5 306.215 1574.63 L 305.417 1572.45 z" fill="rgb(8,5,3)" transform="translate(0,0)"></path>
<path d="M 729.745 419.496 C 787.137 419.119 842.44 436.422 879.933 481.761 C 917.55 471.049 953.176 487.793 974.559 519.968 C 995.338 551.236 992.1 602.612 984.484 638.241 C 969.506 641.922 956.597 644.723 941.114 643.815 C 902.356 641.544 869.362 610.047 864.585 571.625 C 863.325 561.489 863.715 554.073 864.358 544.039 C 869.121 538.303 870.784 536.748 876.606 532.02 C 873.498 572.789 891.687 609.834 935.503 616.341 C 940.696 617.113 947.732 617.686 952.872 616.686 L 953.201 615.581 C 950.548 614.505 942.143 614.122 938.803 613.726 C 921.384 611.659 910.104 606.058 897.674 594.194 C 876.95 572.911 877.711 543.499 883.451 516.654 C 799.021 626.677 647.832 662.077 522.922 601.744 C 522.909 569.679 541.026 528.706 561.31 504.583 C 609.95 446.74 658.047 428.037 729.745 419.496 z" fill="rgb(78,54,30)" transform="translate(0,0)"></path>
<path d="M 849.611 508.751 C 850.803 513.412 842.36 520.561 839.036 523.715 C 818.789 542.974 795.463 558.71 770.023 570.272 C 715.064 595.097 640.275 605.753 582.836 584.087 C 582.385 583.203 582.548 583.784 582.959 582.281 C 585.209 582.207 600.84 587.119 606.139 588.19 C 619.51 590.931 633.099 592.477 646.745 592.808 C 707.064 594.291 770.752 574.195 818.72 537.424 C 830.255 528.582 839.159 518.672 849.611 508.751 z" fill="rgb(8,5,3)" transform="translate(0,0)"></path>
<path d="M 883.124 972.649 L 914.118 984.683 C 913.677 1029.96 914.748 1075.46 914.683 1120.76 C 914.679 1123.44 914.852 1129.62 915.392 1131.95 C 934.712 1215.57 959.198 1298.17 979.757 1381.52 C 968.249 1379.14 959.54 1378.52 947.966 1380.09 C 936.255 1297.34 943.588 1299.24 858.102 1299.82 L 858.066 1249.09 C 874.641 1249.19 907.012 1254.2 912.639 1234.28 C 917.788 1216.05 917.888 1179.4 890.697 1179.35 C 874.092 1179.33 857.541 1179.71 840.971 1179.69 L 791.51 1179.63 C 779.95 1179.61 757.881 1177.72 749.434 1185.63 C 736.961 1196.99 736.882 1230.83 748.455 1242.21 C 758.981 1252.57 786.991 1249.24 801.181 1249.07 L 801.269 1299.86 L 692.5 1299.81 C 637.793 1300.01 638.811 1292.55 604.548 1337.36 C 592.105 1353.46 579.885 1369.73 567.889 1386.17 C 553.095 1382.16 544.962 1382.7 530.172 1385.6 C 542.071 1340.72 552.706 1295.46 564.806 1250.53 C 571.774 1224.86 578.377 1199.09 584.613 1173.24 C 587.322 1162.24 593.194 1140.75 594.207 1130.36 C 595.632 1115.74 595.044 1093.28 595.043 1077.83 L 594.833 986.102 L 628.432 973.34 C 628.874 1005.15 629.015 1036.96 628.855 1068.77 C 628.809 1091.42 629.172 1116.85 628.121 1139.33 L 789.752 1139.39 C 819.933 1139.4 853.486 1138.65 883.331 1139.95 L 883.124 972.649 z" fill="rgb(208,188,179)" transform="translate(0,0)"></path>
<path d="M 648.758 1303.21 C 658.127 1302.32 680.381 1302.82 690.232 1302.82 L 773.511 1302.8 L 862.162 1302.44 C 877.827 1302.41 893.513 1302.08 909.133 1302.98 C 919.304 1303.57 931.589 1310.77 934.878 1320.75 C 939.209 1333.88 940.585 1349.39 942.575 1363.18 C 946.088 1387.06 949.396 1410.97 952.499 1434.91 C 921.917 1434.57 891.333 1434.46 860.75 1434.58 L 558.149 1434.79 C 557.885 1424.78 558.077 1414.23 558.117 1404.17 C 569.484 1387.14 615.506 1324.25 629.516 1312.38 C 635.694 1307.15 640.888 1304.89 648.758 1303.21 z" fill="rgb(83,83,83)" transform="translate(0,0)"></path>
<path d="M 864.745 1437.5 L 922.468 1437.32 C 930.901 1437.3 950.268 1436.74 957.664 1438.4 C 962.166 1439.44 966.274 1441.74 969.499 1445.05 C 971.355 1446.93 974.975 1451.94 975.324 1454.49 C 977.606 1471.15 976.59 1490.51 976.958 1507.37 C 977.74 1543.24 942.514 1539.18 917.422 1539.23 L 856.751 1539.24 L 646.5 1539.13 L 587.561 1539.25 C 566.027 1539.28 533.475 1544.24 532.537 1513.79 C 532.016 1500.11 532.737 1485.44 532.038 1471.87 C 529.923 1430.84 561.518 1437.38 590.545 1437.6 C 610.373 1437.77 630.201 1437.84 650.03 1437.81 L 864.745 1437.5 z" fill="rgb(83,83,83)" transform="translate(0,0)"></path>
<path d="M 917.132 987.304 C 937.323 995.826 954.459 1003.12 971.952 1016.63 C 999.673 1038.05 1019.33 1067.25 1041.4 1094.33 C 1069.79 1129.16 1097.29 1164.95 1126.23 1199.35 C 1077.22 1228.42 1028.57 1261.21 979.329 1290.99 C 977.731 1283.96 976.702 1274.33 975.712 1267.02 L 965.415 1190.61 C 964.555 1184.1 960.671 1145.78 957.379 1143.58 C 955.939 1150.95 971.559 1262.68 974.199 1277.61 L 961.787 1297.98 C 946.048 1243.48 930.829 1184.64 918.087 1129.19 C 915.992 1120.07 917.298 1091.13 917.277 1080.05 L 917.132 987.304 z" fill="rgb(220,190,141)" transform="translate(0,0)"></path>
<path d="M 589.249 989.941 L 591.025 990.344 C 592.437 992.677 591.918 1027.19 591.925 1033.15 L 591.952 1093.6 C 591.942 1102.59 592.374 1123.02 591.108 1130.95 C 588.583 1146.77 583.14 1166.53 579.182 1182.45 C 569.45 1221.38 559.283 1260.2 548.682 1298.9 C 544.155 1291.87 541.768 1287.87 537.998 1280.26 C 538.111 1271.45 541.377 1250.96 542.682 1241.79 L 551.822 1177.42 C 553.123 1168.25 556.91 1150.35 555.097 1142.54 L 553.989 1143.34 C 551.409 1153.36 551.366 1162.25 549.67 1172.14 C 544.469 1202.48 540.663 1233.22 536.507 1263.76 C 534.946 1273.81 534.236 1280.78 533.617 1290.94 C 483.876 1260.61 434.458 1229.75 385.373 1198.37 C 396.665 1185.76 411.485 1166.32 422.358 1152.79 C 442.493 1127.56 462.779 1102.44 483.216 1077.44 C 520.03 1031.67 532.121 1011.06 589.249 989.941 z" fill="rgb(220,190,141)" transform="translate(0,0)"></path>
<path d="M 879.832 984.426 L 880.22 1136.6 L 631.749 1136.21 L 631.849 1041.39 C 631.869 1029.78 632.555 1002.43 631.485 991.885 L 631.891 987.293 L 632.915 987.181 L 635.279 991.346 C 654.371 1022.65 678.746 1061.36 695.84 1093.31 C 714.647 1071.83 736.337 1048.21 755.801 1027.26 C 775.808 1048.87 795.641 1070.64 815.297 1092.57 C 825.969 1075.9 835.501 1058.71 845.703 1041.78 C 857.231 1022.65 868.788 1003.85 879.832 984.426 z" fill="rgb(220,190,141)" transform="translate(0,0)"></path>
<path d="M 1106.49 1229.78 C 1113.75 1236.26 1141.84 1279.02 1146.35 1289.97 C 1156.19 1313.82 1157.35 1339.6 1147.56 1363.42 C 1132.95 1398.97 1064.12 1452.89 1029.63 1467.41 C 1030.45 1463.96 1031.02 1460.46 1031.34 1456.93 C 1033.48 1435.34 1026.82 1418.21 1013.26 1401.71 C 1008.71 1396.98 1004.65 1393.9 999.541 1389.87 C 1011.62 1345.86 1039.05 1318.21 1086.83 1313.55 C 1092.27 1313.02 1106.51 1315.03 1109.23 1313.24 L 1108.76 1312.15 C 1089.46 1305.29 1060.17 1314.57 1042.91 1323.65 C 1035.21 1312.63 1027.73 1301.45 1020.48 1290.13 C 1045.05 1269.78 1081.29 1250.12 1106.49 1229.78 z" fill="rgb(187,136,114)" transform="translate(0,0)"></path>
<path d="M 404.992 1231.08 C 421.606 1241.72 437.95 1252.77 454.008 1264.24 C 465.214 1272.08 478.739 1282.16 490.806 1288.21 L 468.368 1323.71 C 461.753 1320.17 454.845 1317.2 447.721 1314.84 C 436.335 1311.2 410.84 1307.54 400.409 1312.96 L 400.553 1314.06 C 404.986 1315.05 412.453 1313.35 417.288 1313.31 C 440.343 1313.21 461.243 1320.86 478.724 1335.76 C 498.491 1352.62 504.571 1368.57 510.739 1392.72 C 507.374 1394.75 504.069 1397.08 500.815 1399.3 C 482.052 1417.53 473.807 1438.76 476.842 1464.89 C 463.23 1458.59 440.973 1445.05 429.208 1435.56 C 397.875 1410.27 362.448 1384.17 356.556 1341.79 C 350.039 1294.92 378.919 1265.99 404.992 1231.08 z" fill="rgb(187,136,114)" transform="translate(0,0)"></path>
<path d="M 758.7 1183.16 C 773.438 1181.68 890.607 1181.02 899.09 1184.05 C 903.322 1185.57 907.011 1190.31 908.871 1194.23 C 913.64 1204.29 913.851 1222.59 909.996 1232.9 C 907.443 1239.74 903.369 1242.42 897.095 1245.35 C 884.38 1247.32 773.133 1247.18 761.688 1244.86 C 755.311 1243.56 750.838 1241.76 747.236 1235.97 C 742.073 1227.67 742.115 1208.34 744.642 1198.99 C 746.755 1191.17 751.913 1186.84 758.7 1183.16 z" fill="rgb(83,83,83)" transform="translate(0,0)"></path>
<path d="M 771.247 1213.52 C 780.713 1211.58 878.461 1211.13 883.492 1213.88 C 880.244 1215.13 867.47 1215.47 864.225 1215.13 C 850.247 1213.69 778.653 1217.92 771.247 1213.52 z" fill="rgb(8,5,3)" transform="translate(0,0)"></path>
<path d="M 679.365 952.926 L 681.067 953.576 C 695.758 987.13 720.133 1009.84 753.011 1025.35 C 737.498 1043.55 717.064 1065.56 700.654 1082.93 L 696.087 1087.14 C 686.015 1069.6 633.168 985.789 632.365 974.244 C 635.497 969.691 671.003 956.738 679.365 952.926 z" fill="rgb(220,190,141)" transform="translate(0,0)"></path>
<path d="M 831.609 953.359 C 840.431 956.869 873.023 968.804 878.814 972.858 C 881.722 982.154 847.243 1031.11 841.207 1042.4 C 838.066 1048.28 818.255 1084.17 814.492 1086.25 L 812.467 1084.32 C 794.671 1064.88 776.563 1044.63 758.151 1025.87 C 789.088 1010.96 819.021 986.138 831.609 953.359 z" fill="rgb(220,190,141)" transform="translate(0,0)"></path>
<path d="M 827.036 930.047 L 827.513 930.588 C 837.916 965.067 791.894 1006.2 764.168 1018.88 C 761.197 1020.24 758.207 1021.69 755.233 1023.05 C 730.361 1010.79 719.083 1001.97 701.146 981.465 C 685.216 961.528 683.552 953.832 683.639 929.905 C 728.745 967.765 781.104 963.934 827.036 930.047 z" fill="rgb(187,136,114)" transform="translate(0,0)"></path>
<path d="M 951.597 1382.41 C 973.155 1381.59 990.592 1385.37 1006.95 1400.28 C 1020.24 1412.18 1028.15 1428.96 1028.87 1446.79 C 1029.69 1467.43 1022.95 1481.77 1009.36 1496.67 C 1000.5 1505.37 991.073 1508.96 979.812 1513.23 C 979.646 1500.34 979.958 1486.79 980.119 1473.9 C 980.384 1452.61 977.252 1441.35 955.404 1434.52 C 954.319 1424.65 947.908 1391 949.056 1383.64 L 951.597 1382.41 z" fill="rgb(187,136,114)" transform="translate(0,0)"></path>
<path d="M 538.994 1387.37 C 550.686 1386.17 554.904 1386.29 566.426 1388.55 L 554.728 1403.28 L 554.78 1434.52 C 547.678 1436.29 542.59 1437.55 537.208 1443.13 C 533.742 1446.72 531.301 1451.18 530.136 1456.03 C 527.954 1464.8 529.09 1504.64 529.205 1516.2 C 524.134 1514.5 518.399 1512.05 513.364 1510.04 C 510.76 1508.65 507.04 1506.29 504.676 1504.57 C 491.359 1494.77 482.531 1480.03 480.171 1463.67 C 477.695 1444.99 482.772 1426.1 494.277 1411.19 C 505.478 1396.7 521.175 1389.61 538.994 1387.37 z" fill="rgb(187,136,114)" transform="translate(0,0)"></path>
<path d="M 503.315 1276.56 C 510.228 1280.36 527.619 1292.26 533.865 1293.93 C 536.551 1292.23 536.128 1291.04 537.23 1287.28 C 538.817 1288.29 545.251 1299.89 547.277 1302.75 L 547.817 1303.5 L 533.447 1360.74 C 531.658 1368.14 529.659 1377 527.825 1384.49 C 527.298 1386.65 524.983 1386.9 522.746 1387.7 L 513.759 1391.24 C 505.454 1359.37 497.956 1346.52 471.372 1326.1 C 480.15 1309.32 492.345 1291.99 503.315 1276.56 z" fill="rgb(255,255,255)" transform="translate(0,0)"></path>
<path d="M 1007.37 1277.78 C 1009.74 1278.73 1036.08 1319.12 1040.32 1325.34 C 1014.53 1342.93 1006.6 1358.95 996.326 1386.97 C 993.343 1387.49 991.464 1386.02 988.249 1384.65 L 984.38 1383.24 C 981.317 1379.36 964.73 1311.17 962.615 1301.92 L 974.58 1282.84 L 977.367 1295.24 C 983.368 1292.65 1000.63 1281.73 1007.37 1277.78 z" fill="rgb(255,255,255)" transform="translate(0,0)"></path>
<path d="M 522.094 605.371 C 542.769 616.192 567.235 623.165 589.665 629.016 C 583.906 655.394 581.477 667.673 580.175 694.752 C 580.314 698.76 580.537 699.582 579.386 703.315 L 578.078 703.749 C 575.445 701.583 571.938 698.054 568.684 697.446 C 559.817 695.789 551.55 690.676 542.243 692.132 C 541.215 692.293 537.144 692.714 536.627 691.774 C 533.94 688.569 532.61 682.077 531.469 678.053 C 524.947 655.062 521.277 629.334 522.094 605.371 z" fill="rgb(78,54,30)" transform="translate(0,0)"></path>
<path d="M 804.146 1249.12 L 855.152 1249.01 L 855.127 1299.87 C 838.111 1299.72 821.094 1299.72 804.079 1299.87 L 804.146 1249.12 z" fill="rgb(83,83,83)" transform="translate(0,0)"></path>
<path d="M 982.089 642.232 C 985.644 644.384 971.104 689.142 968.719 692.072 C 968.262 692.155 959.777 693.738 959.992 693.789 C 955.461 692.697 937.239 705.512 936.069 704.955 C 935.52 704.067 935.6 703.89 935.424 702.755 C 934.335 683.687 932.386 664.679 929.581 645.787 C 952.517 648.908 960.479 647.164 982.089 642.232 z" fill="rgb(78,54,30)" transform="translate(0,0)"></path>
<metadata><recraft-signature>{"signed_by": "recraft", "signature_b64": "fa+4F8wGSKDjekZaH6hj/XB4T8nYN7bNQxX9nN2JNWn+eo0MyGxnfV1IVsmr6TUTxNBZKGvh0eRWODHdGTvYDw==", "signing_algo": "Ed25519", "generation_timestamp": 1779108260, "identifier": "4efadebf-fb58-416c-9b78-918310db425b"}</recraft-signature></metadata></svg>