<svg xmlns="http://www.w3.org/2000/svg" height="832" preserveAspectRatio="none" style="display: block;" version="1.1" viewBox="0 0 2048 1331" width="1280">
<path d="M 0 0 L 2048 0 L 2048 1331 L 0 1331 L 0 0 z" fill="rgb(255,255,255)" transform="translate(0,0)"></path>
<path d="M 620.7 122.585 C 622.334 101.13 629.467 84.055 646.104 69.5587 C 662.773 55.3213 684.459 48.3707 706.299 50.266 C 741.056 52.9901 765.917 75.7965 776.296 108.344 C 785.743 85.2617 798.677 68.9217 822.544 58.9517 C 843.401 50.338 866.849 50.4854 887.596 59.3606 C 908.395 68.35 924.667 85.3797 932.701 106.566 C 936.862 117.362 937.72 124.241 938.621 135.372 C 954.201 120.716 970.61 113.021 992.552 113.833 C 1011.36 114.523 1029.1 122.769 1041.75 136.706 C 1066.46 163.752 1066.8 199.491 1044.78 228.163 C 1063.26 232.536 1070.76 235.927 1084.38 249.396 C 1138.88 183.889 1217.28 142.847 1302.16 135.38 C 1393.28 126.702 1484.08 154.769 1554.4 213.346 C 1623.84 270.72 1667.24 353.641 1674.81 443.395 C 1677.72 474.416 1675.86 509.355 1668.63 539.677 C 1670.74 544.676 1679.6 554.76 1683.02 560.915 C 1695.48 583.329 1696.74 610.962 1688.3 634.86 C 1679.62 658.868 1661.86 678.507 1638.84 689.543 C 1614.43 701.089 1592.74 699.542 1567.53 694.34 C 1563.17 702.735 1548.06 726.724 1545.78 733.558 C 1595.01 750.098 1634.89 787.698 1657.3 834.032 C 1667.19 854.5 1669.84 867.771 1677.59 888.03 C 1691.75 925.074 1717.9 959.458 1756.8 972.404 C 1761.76 974.034 1766.78 975.463 1771.86 976.687 C 1760.42 988.392 1751.85 997.268 1736.44 1004.13 C 1704.79 1018.21 1675.68 1010.54 1648.28 992.127 C 1644.02 1013.89 1640.13 1025.52 1629.76 1045.38 C 1713.14 1096.69 1781.43 1171.59 1804.56 1268.79 C 1805.41 1272.23 1806.17 1275.69 1806.85 1279.16 L 1163.55 1279.14 C 1062.46 1279.16 959.052 1280.34 858.24 1279.2 L 241.355 1279.25 C 249.24 1233.84 275.53 1183.63 303.561 1147.38 C 380.682 1047.67 488.493 999.543 611.021 983.577 C 610.543 954.065 610.922 923.435 610.931 893.844 L 610.732 831.578 C 607.21 830.333 590.266 818.405 586.5 815.649 C 538.474 780.509 512.817 747.249 487.54 694.909 C 476.074 697.549 464.278 698.456 452.543 697.602 C 361.14 690.645 321.162 588.139 393.376 528.224 C 334.213 517.178 327.25 446.197 381.293 423.996 C 361.568 408.729 348.709 394.45 345.253 368.131 C 342.749 350.165 347.503 331.942 358.463 317.488 C 370.541 301.755 386.184 293.846 405.007 289.057 C 397.277 274.655 392.377 256.768 398.277 241.099 C 413.393 200.947 449.313 194.456 484.482 209.537 C 467.745 164.41 486.34 119.241 532.513 102.891 C 554.154 95.264 577.957 96.6917 598.531 106.85 C 607.424 111.178 613.573 115.878 620.7 122.585 z" fill="rgb(80,49,18)" transform="translate(0,0)"></path>
<path d="M 1545.78 733.558 C 1595.01 750.098 1634.89 787.698 1657.3 834.032 C 1667.19 854.5 1669.84 867.771 1677.59 888.03 C 1691.75 925.074 1717.9 959.458 1756.8 972.404 C 1761.76 974.034 1766.78 975.463 1771.86 976.687 C 1760.42 988.392 1751.85 997.268 1736.44 1004.13 C 1704.79 1018.21 1675.68 1010.54 1648.28 992.127 C 1644.02 1013.89 1640.13 1025.52 1629.76 1045.38 C 1713.14 1096.69 1781.43 1171.59 1804.56 1268.79 C 1805.41 1272.23 1806.17 1275.69 1806.85 1279.16 L 1163.55 1279.14 C 1062.46 1279.16 959.052 1280.34 858.24 1279.2 C 880.772 1176.11 944.275 1107.67 1028.78 1050.38 C 1085.58 1015.16 1153.83 995.387 1219.23 984.279 C 1218.19 964.508 1218.05 928.257 1218.88 908.486 C 1223.32 910.059 1234.38 915.468 1239.39 917.6 C 1252.35 923.17 1265.92 927.23 1279.82 929.702 C 1339.76 940.961 1392.46 925.668 1442.1 891.82 C 1441.89 876.399 1441.79 860.978 1441.79 845.556 C 1441.95 840.835 1441.82 835.478 1441.83 830.7 L 1454.81 822.068 C 1481.21 803.596 1501.91 787.89 1523.12 762.898 C 1531.15 753.433 1538.05 742.796 1545.78 733.558 z" fill="rgb(225,206,118)" transform="translate(0,0)"></path>
<path d="M 1545.78 733.558 C 1595.01 750.098 1634.89 787.698 1657.3 834.032 C 1667.19 854.5 1669.84 867.771 1677.59 888.03 C 1691.75 925.074 1717.9 959.458 1756.8 972.404 C 1761.76 974.034 1766.78 975.463 1771.86 976.687 C 1760.42 988.392 1751.85 997.268 1736.44 1004.13 C 1704.79 1018.21 1675.68 1010.54 1648.28 992.127 C 1644.02 1013.89 1640.13 1025.52 1629.76 1045.38 C 1576.58 1016.3 1547.73 1007.66 1491.5 991.556 C 1477.58 987.857 1456.46 984.63 1441.69 981.992 C 1442.5 972.97 1442.03 957.84 1442.01 948.522 L 1442.1 891.82 C 1441.89 876.399 1441.79 860.978 1441.79 845.556 C 1441.95 840.835 1441.82 835.478 1441.83 830.7 L 1454.81 822.068 C 1481.21 803.596 1501.91 787.89 1523.12 762.898 C 1531.15 753.433 1538.05 742.796 1545.78 733.558 z" fill="rgb(80,49,18)" transform="translate(0,0)"></path>
<path d="M 1441.83 830.7 L 1454.81 822.068 C 1481.65 866.32 1505.02 938.471 1491.93 989.981 C 1491.8 990.509 1491.65 991.034 1491.5 991.556 C 1477.58 987.857 1456.46 984.63 1441.69 981.992 C 1442.5 972.97 1442.03 957.84 1442.01 948.522 L 1442.1 891.82 C 1441.89 876.399 1441.79 860.978 1441.79 845.556 C 1441.95 840.835 1441.82 835.478 1441.83 830.7 z" fill="rgb(255,255,255)" transform="translate(0,0)"></path>
<path d="M 1442.1 891.82 L 1442.01 948.522 C 1442.03 957.84 1442.5 972.97 1441.69 981.992 C 1432.24 1014.99 1413.19 1041.57 1382.94 1058.2 C 1328.25 1088.28 1258.84 1069.25 1228.94 1014.4 C 1223.78 1005.09 1220.49 994.854 1219.23 984.279 C 1218.19 964.508 1218.05 928.257 1218.88 908.486 C 1223.32 910.059 1234.38 915.468 1239.39 917.6 C 1252.35 923.17 1265.92 927.23 1279.82 929.702 C 1339.76 940.961 1392.46 925.668 1442.1 891.82 z" fill="rgb(183,136,103)" transform="translate(0,0)"></path>
<path d="M 834.209 862.321 C 837.626 861.31 841.025 860.24 844.404 859.112 C 912.785 836.505 970.406 791.999 1005.07 728.249 C 1010.44 718.333 1015.2 708.1 1019.33 697.605 C 1021.73 691.501 1023.63 684.397 1026.66 678.692 C 1052.59 752.376 1101.52 811.348 1172.58 845.532 C 1187.35 852.604 1202.71 858.395 1218.48 862.839 C 1218.41 871.268 1217.68 900.666 1218.85 907.828 L 1218.88 908.486 C 1218.05 928.257 1218.19 964.508 1219.23 984.279 C 1153.83 995.387 1085.58 1015.16 1028.78 1050.38 C 944.275 1107.67 880.772 1176.11 858.24 1279.2 L 241.355 1279.25 C 249.24 1233.84 275.53 1183.63 303.561 1147.38 C 380.682 1047.67 488.493 999.543 611.021 983.577 C 610.543 954.065 610.922 923.435 610.931 893.844 L 610.732 831.578 C 620.268 835.951 629.464 842.039 638.645 846.085 C 692.047 869.615 742.848 878.978 800.925 869.637 C 813.715 867.58 822.317 864.782 834.209 862.321 z" fill="rgb(228,109,83)" transform="translate(0,0)"></path>
<path d="M 834.209 862.321 C 837.626 861.31 841.025 860.24 844.404 859.112 C 912.785 836.505 970.406 791.999 1005.07 728.249 C 1010.44 718.333 1015.2 708.1 1019.33 697.605 C 1021.73 691.501 1023.63 684.397 1026.66 678.692 C 1052.59 752.376 1101.52 811.348 1172.58 845.532 C 1187.35 852.604 1202.71 858.395 1218.48 862.839 C 1218.41 871.268 1217.68 900.666 1218.85 907.828 L 1218.88 908.486 C 1218.05 928.257 1218.19 964.508 1219.23 984.279 C 1153.83 995.387 1085.58 1015.16 1028.78 1050.38 C 957.965 1014.09 913.739 995.783 833.322 984.649 C 834.422 970.155 834.109 952.444 834.331 937.732 C 834.514 925.615 835.149 908.331 834.174 896.58 L 834.209 862.321 z" fill="rgb(255,255,255)" transform="translate(0,0)"></path>
<path d="M 610.732 831.578 C 620.268 835.951 629.464 842.039 638.645 846.085 C 692.047 869.615 742.848 878.978 800.925 869.637 C 813.715 867.58 822.317 864.782 834.209 862.321 L 834.174 896.58 C 835.149 908.331 834.514 925.615 834.331 937.732 C 834.109 952.444 834.422 970.155 833.322 984.649 C 821.543 1025.03 795.115 1056.94 753.219 1068.28 C 724.292 1076.4 693.328 1072.71 667.12 1058.02 C 637.457 1041.05 619.942 1016.29 611.021 983.577 C 610.543 954.065 610.922 923.435 610.931 893.844 L 610.732 831.578 z" fill="rgb(231,186,159)" transform="translate(0,0)"></path>
<path d="M 610.732 831.578 C 620.268 835.951 629.464 842.039 638.645 846.085 C 692.047 869.615 742.848 878.978 800.925 869.637 C 813.715 867.58 822.317 864.782 834.209 862.321 L 834.174 896.58 C 834.09 906.305 829.164 907.833 820.944 911.816 C 752.175 945.13 673.093 938.518 610.931 893.844 L 610.732 831.578 z" fill="rgb(197,155,126)" transform="translate(0,0)"></path>
<path d="M 1010.88 417.983 C 1094.16 392.02 1195.62 316.319 1252.69 250.368 C 1259.49 264.912 1266.13 278.612 1274.53 292.377 C 1326.5 377.532 1416.63 440.946 1509.49 474.651 L 1522.98 479.488 L 1523.21 574.019 L 1536.21 574.326 C 1552.73 528.262 1589.51 502.977 1637.79 519.458 C 1646.55 522.45 1667.74 539.533 1668.63 539.677 C 1670.74 544.676 1679.6 554.76 1683.02 560.915 C 1695.48 583.329 1696.74 610.962 1688.3 634.86 C 1679.62 658.868 1661.86 678.507 1638.84 689.543 C 1614.43 701.089 1592.74 699.542 1567.53 694.34 C 1563.17 702.735 1548.06 726.724 1545.78 733.558 C 1538.05 742.796 1531.15 753.433 1523.12 762.898 C 1501.91 787.89 1481.21 803.596 1454.81 822.068 L 1441.83 830.7 C 1441.82 835.478 1441.95 840.835 1441.79 845.556 C 1441.79 860.978 1441.89 876.399 1442.1 891.82 C 1392.46 925.668 1339.76 940.961 1279.82 929.702 C 1265.92 927.23 1252.35 923.17 1239.39 917.6 C 1234.38 915.468 1223.32 910.059 1218.88 908.486 L 1218.85 907.828 C 1217.68 900.666 1218.41 871.268 1218.48 862.839 C 1202.71 858.395 1187.35 852.604 1172.58 845.532 C 1101.52 811.348 1052.59 752.376 1026.66 678.692 C 1021.48 658.721 1016.72 646.013 1014.09 624.57 C 1010.08 591.833 1011.12 559.66 1011.2 526.787 L 1010.88 417.983 z" fill="rgb(183,136,103)" transform="translate(0,0)"></path>
<path d="M 1219.26 863.419 L 1224.67 864.854 C 1299.8 884.386 1374.22 870.525 1440.8 831.448 C 1440.79 837.31 1440.79 839.839 1441.79 845.556 C 1441.79 860.978 1441.89 876.399 1442.1 891.82 C 1392.46 925.668 1339.76 940.961 1279.82 929.702 C 1265.92 927.23 1252.35 923.17 1239.39 917.6 C 1234.38 915.468 1223.32 910.059 1218.88 908.486 L 1218.85 907.828 C 1219.85 894.909 1219.29 876.727 1219.26 863.419 z" fill="rgb(125,87,57)" transform="translate(0,0)"></path>
<path d="M 1217.94 503.059 C 1265.28 497.098 1218.95 567.942 1209.28 582.271 C 1206.23 586.796 1188.42 608.286 1188.22 611.899 C 1187.18 631.103 1221.66 634.528 1234.77 628.845 C 1252.24 621.203 1277.31 609.857 1275.25 638.415 C 1274.81 644.455 1268.71 648.9 1263.99 652.038 C 1231.71 668.943 1184.83 669.84 1162.08 638.467 C 1137.08 603.994 1171.49 582.566 1187.91 556.237 C 1197.8 540.385 1202.65 524.047 1211.64 508.055 C 1212.36 506.77 1216.59 503.954 1217.94 503.059 z" fill="rgb(125,87,57)" transform="translate(0,0)"></path>
<path d="M 1327 679.015 C 1355.71 675.416 1348.5 700.577 1335.1 715.328 C 1285.58 769.87 1206.37 772.387 1152.23 723.218 C 1149.48 720.718 1146.94 717.985 1144.66 715.048 C 1139.72 708.622 1136.41 694.117 1144.37 688.429 C 1148.12 685.752 1155.81 685.912 1159.93 687.877 C 1166.09 690.819 1169.88 697.786 1174.75 702.355 C 1187.44 714.149 1204.65 722.032 1221.3 725.756 C 1250.5 732.287 1285.76 722.938 1306.64 701.102 C 1313.09 694.363 1319.09 684.622 1326.25 679.449 C 1326.5 679.304 1326.75 679.16 1327 679.015 z" fill="rgb(80,49,18)" transform="translate(0,0)"></path>
<path d="M 1598.21 550.139 C 1626.62 547.189 1646.86 560.713 1657.71 588.028 C 1663.34 602.22 1662.51 623.846 1640.52 621.071 C 1620.68 618.568 1632.1 587.254 1605.3 583.614 L 1604.08 583.454 C 1580.33 591.94 1594.56 625.533 1572.55 634.446 C 1565.29 636.205 1552.73 627.032 1552.23 619.701 C 1549.98 587.071 1565.72 557.84 1598.21 550.139 z" fill="rgb(125,87,57)" transform="translate(0,0)"></path>
<path d="M 1328.85 473.191 C 1358.33 470.652 1377.78 483.879 1387.38 512.139 C 1390.06 518.946 1394.77 541.724 1389.12 548.129 C 1371.32 568.323 1360.49 544.246 1360.48 528.759 C 1360.47 518.937 1352.47 508.713 1346.11 504.339 L 1345.07 503.633 C 1317.24 498.76 1316.3 523.677 1311.55 543.678 C 1307.47 560.855 1286.72 556.814 1282.88 543.647 C 1279.48 531.991 1286.45 511.938 1292.09 501.583 C 1300.2 486.686 1312.63 477.734 1328.85 473.191 z" fill="rgb(80,49,18)" transform="translate(0,0)"></path>
<path d="M 1120.81 472.36 C 1157.67 471.946 1180.57 509.227 1176.28 543.397 C 1174.39 558.511 1150.34 559.06 1147.99 543.518 C 1145.59 527.599 1145.62 510.227 1128.14 503.342 L 1127.14 502.954 C 1111.97 502.23 1105.33 510.238 1101.39 524.402 C 1098.7 534.029 1100.59 552.156 1087.59 554.5 C 1078.09 556.348 1070.28 549.474 1069.91 539.955 C 1068.66 507.789 1086.89 475.541 1120.81 472.36 z" fill="rgb(80,49,18)" transform="translate(0,0)"></path>
<path d="M 1117.42 414.316 C 1132.74 412.256 1178.87 416.003 1175.81 440.176 C 1174.77 449.479 1164.37 455.856 1155.6 452.647 C 1130.79 443.569 1120.58 440.389 1096.48 455.165 C 1088.4 461.194 1086.94 465.138 1080.37 471.679 C 1059.67 492.295 1039.2 469.221 1056.82 447.213 C 1072.77 427.284 1092.51 417.872 1117.42 414.316 z" fill="rgb(80,49,18)" transform="translate(0,0)"></path>
<path d="M 1325.46 414.326 C 1349.63 412.325 1373.62 419.843 1392.32 435.278 C 1400.06 441.605 1411.22 452.432 1412.36 463.142 C 1413.29 471.938 1400.97 478.258 1393.37 478.043 C 1386.59 477.851 1381.72 471.14 1377.58 466.301 C 1363.3 450.245 1339.25 440.343 1318.37 448.562 C 1306.09 453.398 1288.56 457.928 1285.11 439.357 C 1281.76 421.334 1312.64 416.087 1325.46 414.326 z" fill="rgb(80,49,18)" transform="translate(0,0)"></path>
<path d="M 726.892 307.31 C 736.065 330.661 750.999 349.698 774.505 359.936 C 794.979 368.902 818.189 369.308 838.964 361.063 C 859.17 353.012 875.322 337.221 883.829 317.203 C 886.417 311.14 888.194 305.125 890.006 298.82 C 894.659 321.472 904.135 339.962 924.018 353.183 C 941.84 365.023 963.674 369.202 984.608 364.78 C 1008.53 359.623 1020.08 348.27 1035.5 330.99 C 1018.97 370.573 1017.16 375.147 1010.88 417.983 L 1011.2 526.787 C 1011.12 559.66 1010.08 591.833 1014.09 624.57 C 1016.72 646.013 1021.48 658.721 1026.66 678.692 C 1023.63 684.397 1021.73 691.501 1019.33 697.605 C 1015.2 708.1 1010.44 718.333 1005.07 728.249 C 970.406 791.999 912.785 836.505 844.404 859.112 C 841.025 860.24 837.626 861.31 834.209 862.321 C 822.317 864.782 813.715 867.58 800.925 869.637 C 742.848 878.978 692.047 869.615 638.645 846.085 C 629.464 842.039 620.268 835.951 610.732 831.578 C 607.21 830.333 590.266 818.405 586.5 815.649 C 538.474 780.509 512.817 747.249 487.54 694.909 C 476.074 697.549 464.278 698.456 452.543 697.602 C 361.14 690.645 321.162 588.139 393.376 528.224 C 434.317 503.99 469.087 511.047 500.471 545.391 C 559.594 543.624 582.976 484.83 542.974 442.284 C 554.016 440.97 561.293 440.109 571.568 434.936 C 586.745 427.393 598.263 414.079 603.546 397.976 C 608.65 381.912 607.178 364.481 599.452 349.501 L 601.903 347.496 C 621.255 360.619 642.894 366.521 666.2 362.147 C 686.309 358.33 704.097 346.723 715.688 329.853 C 720.579 322.693 723.959 315.418 726.892 307.31 z" fill="rgb(231,186,159)" transform="translate(0,0)"></path>
<path d="M 826.969 501.031 C 847.577 500.24 851.264 528.555 859.342 544.812 C 873.769 573.845 911.623 597.061 891.939 633.422 C 872.618 669.113 825.241 669.505 792.471 652.955 C 782.213 647.288 762.591 632.595 781.563 618.094 C 789.285 612.192 809.066 624.854 817.69 627.841 C 830.731 632.537 841.631 632.411 854.183 626.426 C 877.374 615.367 856.562 598.135 846.85 584.886 C 840.355 575.856 834.566 566.339 829.533 556.42 C 820.883 539.749 803.371 512.266 826.969 501.031 z" fill="rgb(183,136,103)" transform="translate(0,0)"></path>
<path d="M 715.877 679.09 C 734.054 677.295 731.941 685.953 742.311 696.971 C 748.234 703.277 754.93 708.809 762.239 713.437 C 795.738 734.712 838.938 732.887 870.523 708.863 C 880.012 701.653 896.302 677.975 909.05 690.201 C 917.887 698.676 913.818 708.525 906.677 716.706 C 904.583 718.903 902.426 721.039 900.208 723.111 C 874.083 747.398 842.637 759.133 806.784 757.958 C 774.343 756.895 740.969 740.102 719.114 716.345 C 713.221 709.939 706.484 700.687 707.352 691.488 C 707.932 685.347 711.483 682.539 715.877 679.09 z" fill="rgb(80,49,18)" transform="translate(0,0)"></path>
<path d="M 440.141 549.23 C 472.332 546.086 492.55 570.386 498.198 599.901 C 499.979 609.21 502.481 626.896 490.274 631.167 C 462.794 640.783 466.197 607.72 458.943 590.524 C 443.018 572.44 430.558 587.094 425.027 603.811 C 421.075 614.509 410.597 626.593 399.031 616.455 C 389.907 608.457 390.515 606.197 393.054 595.015 C 398.774 569.822 414.971 554.079 440.141 549.23 z" fill="rgb(183,136,103)" transform="translate(0,0)"></path>
<path d="M 929.375 472.395 C 964.621 472.531 983.606 506.333 982.396 538.377 C 981.916 545.682 975.872 557.726 967.148 555.808 C 960.864 554.426 956.502 549.855 953.131 544.833 C 952.466 525.223 951.589 508.673 930.671 501.229 C 929.703 501.393 928.74 501.584 927.782 501.801 C 914.116 504.941 906.083 518.535 905.434 532.319 C 904.847 544.792 897.453 561.619 881.403 551.919 C 873.953 547.416 874.177 534.397 875.658 526.159 C 880.915 496.927 898.283 474.517 929.375 472.395 z" fill="rgb(80,49,18)" transform="translate(0,0)"></path>
<path d="M 710.206 472.305 C 712.584 472.149 715.17 472.245 717.546 472.428 C 730.732 473.545 742.928 479.878 751.427 490.022 C 762.088 502.538 768.018 521.205 767.374 537.616 C 767.081 545.076 761.717 556.703 752.663 555.335 C 745.915 554.316 742.023 549.99 738.136 544.876 C 736.99 527.867 737.261 512.194 720.494 502.993 C 691.147 496.3 693.346 531.378 687.758 547.473 C 679.918 560.668 661.118 553.653 660.695 540.013 C 659.711 508.262 677.18 476.851 710.206 472.305 z" fill="rgb(80,49,18)" transform="translate(0,0)"></path>
<path d="M 920.145 413.366 C 921.931 413.225 923.72 413.134 925.511 413.095 C 950.579 412.6 996.753 429.894 1002.29 461.356 C 1003.33 467.252 993.717 477.627 986.876 476.498 C 978.318 475.084 971.246 464.844 965.818 458.317 C 962.697 455.431 959.261 452.905 955.576 450.786 C 941.861 442.862 923.548 440.432 908.798 446.587 C 899.976 450.269 892.811 458.394 882.515 450.76 C 878.851 448.013 876.446 443.906 875.845 439.365 C 875.387 435.447 876.525 431.51 879.003 428.441 C 886.906 418.502 907.909 414.673 920.145 413.366 z" fill="rgb(80,49,18)" transform="translate(0,0)"></path>
<path d="M 713.768 413.411 C 726.604 412.404 753.889 417.087 762.54 427.211 C 765.571 430.754 766.913 435.439 766.219 440.05 C 762.85 463.195 735.523 446.438 724.378 443.751 C 710.529 440.413 693.902 448.006 682.373 455.494 C 674.46 462.185 665.214 477.588 655.832 477.147 C 635.222 476.178 641.554 452.774 650.649 443.157 C 669.135 423.609 688.219 415.595 713.768 413.411 z" fill="rgb(80,49,18)" transform="translate(0,0)"></path>
<path d="M 599.452 349.501 C 599.149 348.985 596.694 345.354 597.673 344.712 C 598.784 344.732 600.999 346.763 601.903 347.496 L 599.452 349.501 z" fill="rgb(197,155,126)" transform="translate(0,0)"></path>
<metadata><recraft-signature>{"signed_by": "recraft", "signature_b64": "Cebp5L+JmKbw7BQ1v5DNz58FI9llXDLR++/jHnfS34w1PQ5zCKVGpQ+UnJzgqwyqZ1vYg51M5I5VcnhOIUqVAg==", "signing_algo": "Ed25519", "generation_timestamp": 1779106761, "identifier": "10b970eb-528a-4938-9070-2fd176f63d66"}</recraft-signature></metadata></svg>