<svg xmlns="http://www.w3.org/2000/svg" height="1216" preserveAspectRatio="none" style="display: block;" version="1.1" viewBox="0 0 1509 2048" width="896">
<path d="M 0 0 L 1509 0 L 1509 2048 L 0 2048 L 0 0 z" fill="rgb(254,254,253)" transform="translate(0,0)"></path>
<path d="M 662.112 1024.96 C 663.629 1010.78 665.793 994.181 666.3 980.117 C 678.113 996.139 682.085 1010.85 692.831 1027.6 C 725.051 1077.89 777.185 1112.06 836.156 1121.53 C 862.649 1125.53 885.492 1126.59 909.049 1112.82 C 909.879 1112.33 910.018 1112.48 911.14 1112.42 L 911.98 1112.09 C 925.393 1118.1 938.945 1123.81 952.624 1129.19 C 953.153 1125.47 953.118 1123.96 954.956 1120.69 L 956.862 1120.01 C 963.991 1124.5 961.69 1130.92 964.483 1135.48 C 989.512 1143.45 1014.48 1153.68 1039.01 1162.22 C 1099.23 1183.19 1137.51 1196.81 1183.6 1243.06 C 1185.9 1245.26 1187.32 1246.82 1189.39 1249.24 C 1191.08 1251.43 1192.61 1253.04 1194.54 1255.03 L 1195 1255.93 C 1196.22 1257.41 1197.42 1258.9 1198.61 1260.4 C 1228.31 1296.49 1245.66 1336.93 1261.32 1380.48 C 1280.45 1432.74 1300.16 1484.84 1318.84 1537.25 C 1323.03 1548.98 1322.25 1557.29 1313.86 1566.71 C 1297.4 1585.2 1268.43 1599.29 1245.1 1606.86 C 1221.21 1614.68 1197.03 1621.55 1172.6 1627.46 C 1085.56 1646.93 1000.39 1656.69 911.274 1662.37 C 812.376 1669.21 713.136 1669.5 614.2 1663.24 C 582.395 1661.36 533.041 1658.88 501.676 1654.54 C 492.235 1653.19 482.297 1652.19 472.786 1651.1 C 452.389 1647.19 424.54 1645.04 402.951 1641.57 C 351.132 1633.22 298.482 1622.13 249.82 1602.13 C 242.329 1599.12 225.727 1591.71 219.498 1586.91 C 218.024 1586 216.556 1585.07 215.096 1584.14 C 201.104 1575.17 189.877 1565.7 186.219 1549.03 C 188.103 1540.07 194.814 1523.61 198.181 1514.47 C 205.367 1494.47 212.68 1474.53 220.12 1454.63 C 234.513 1415.97 249.583 1370.61 265.592 1333.84 C 294.549 1267.34 345.981 1207.91 412.208 1176.96 C 433.326 1167.1 463.937 1155.63 486.449 1147.02 C 529.663 1130.49 572.961 1114.17 616.342 1098.08 C 614.723 1094.97 614.932 1092.3 615.913 1089.15 C 618.48 1086.85 616.978 1087.55 620.729 1087.35 C 624.576 1089.42 623.821 1089.57 626.178 1093.68 C 636.491 1089.29 645.862 1085.29 655.86 1080.26 C 655.727 1066.13 658.904 1039.73 660.257 1024.97 L 662.112 1024.96 z" fill="rgb(236,128,98)" transform="translate(0,0)"></path>
<path d="M 662.112 1024.96 C 663.629 1010.78 665.793 994.181 666.3 980.117 C 678.113 996.139 682.085 1010.85 692.831 1027.6 C 725.051 1077.89 777.185 1112.06 836.156 1121.53 C 862.649 1125.53 885.492 1126.59 909.049 1112.82 C 909.879 1112.33 910.018 1112.48 911.14 1112.42 L 911.98 1112.09 C 925.393 1118.1 938.945 1123.81 952.624 1129.19 C 953.153 1125.47 953.118 1123.96 954.956 1120.69 L 956.862 1120.01 C 963.991 1124.5 961.69 1130.92 964.483 1135.48 C 964.289 1137.4 963.936 1138.46 964.472 1140.2 C 967.252 1162.22 966.663 1171.32 965.729 1193 C 965.582 1193.81 965.898 1194.02 966.411 1194.94 C 965.63 1196.05 958.675 1245.07 957.519 1250.03 C 946.742 1296.28 930.88 1349.19 890.251 1377.86 C 882.542 1383.3 884.405 1387.99 885.182 1393.45 C 909.627 1397.11 928.498 1402.31 944.115 1423.64 C 955.298 1438.66 959.97 1457.56 957.078 1476.07 C 955.682 1484.63 948.819 1505.71 940.677 1509.92 L 938.469 1509.97 C 941.442 1519.95 945.183 1549.61 943.103 1558.89 C 936.034 1574.87 923.709 1580.05 908.36 1570.29 C 897.76 1563.55 899.288 1545.35 896.613 1535.19 L 896.412 1536.52 C 895.872 1540.63 893.457 1538.5 889.199 1539.29 C 883.363 1539.27 877.185 1538.7 871.503 1537.38 C 853.125 1533.16 837.26 1521.63 827.566 1505.45 C 804.233 1467.35 821.062 1424.14 857.754 1402.21 L 855.299 1391.39 C 763.67 1386.96 689.832 1252.92 651.762 1181.84 L 650.655 1180.28 C 646 1170.69 641.477 1161.02 637.087 1151.3 L 637.071 1150.08 C 634.428 1145.05 631.453 1137.92 629.047 1132.61 L 628.711 1130.89 C 624.775 1120.71 621.503 1109.83 618.205 1099.39 L 616.342 1098.08 C 614.723 1094.97 614.932 1092.3 615.913 1089.15 C 618.48 1086.85 616.978 1087.55 620.729 1087.35 C 624.576 1089.42 623.821 1089.57 626.178 1093.68 C 636.491 1089.29 645.862 1085.29 655.86 1080.26 C 655.727 1066.13 658.904 1039.73 660.257 1024.97 L 662.112 1024.96 z" fill="rgb(3,3,2)" transform="translate(0,0)"></path>
<path d="M 662.112 1024.96 C 663.629 1010.78 665.793 994.181 666.3 980.117 C 678.113 996.139 682.085 1010.85 692.831 1027.6 C 725.051 1077.89 777.185 1112.06 836.156 1121.53 C 862.649 1125.53 885.492 1126.59 909.049 1112.82 C 909.879 1112.33 910.018 1112.48 911.14 1112.42 L 911.98 1112.09 C 925.393 1118.1 938.945 1123.81 952.624 1129.19 L 953.048 1131.09 C 959.202 1138.02 959.451 1194.81 955.29 1203.66 L 956.019 1205.98 C 950.425 1209.43 931.866 1226.55 926.521 1231.43 C 913.137 1243.84 899.471 1255.95 885.535 1267.73 C 872.866 1247.42 860.29 1225.07 848.137 1204.32 C 838.344 1224.02 827.061 1254.59 818.62 1275.74 C 768.061 1253.82 718.011 1234.5 672.684 1203.14 L 674.11 1201.33 C 659.613 1189.92 631.513 1114.68 625.86 1095.63 L 626.178 1093.68 C 636.491 1089.29 645.862 1085.29 655.86 1080.26 C 655.727 1066.13 658.904 1039.73 660.257 1024.97 L 662.112 1024.96 z" fill="rgb(254,254,253)" transform="translate(0,0)"></path>
<path d="M 662.112 1024.96 C 663.629 1010.78 665.793 994.181 666.3 980.117 C 678.113 996.139 682.085 1010.85 692.831 1027.6 C 725.051 1077.89 777.185 1112.06 836.156 1121.53 C 862.649 1125.53 885.492 1126.59 909.049 1112.82 C 909.879 1112.33 910.018 1112.48 911.14 1112.42 C 910.06 1132.94 908.141 1147.53 890.716 1161.26 C 867.508 1179.54 835.43 1182.78 807.031 1180.11 C 749.819 1174.73 709.399 1142.35 674.346 1099.1 L 672.244 1099.75 C 667.575 1093.96 662.741 1087.14 658.266 1081.11 C 646.875 1086.88 637.674 1090.77 625.86 1095.63 L 626.178 1093.68 C 636.491 1089.29 645.862 1085.29 655.86 1080.26 C 655.727 1066.13 658.904 1039.73 660.257 1024.97 L 662.112 1024.96 z" fill="rgb(192,123,107)" transform="translate(0,0)"></path>
<path d="M 660.257 1024.97 L 662.112 1024.96 C 660.994 1038.79 657.903 1065.61 658.163 1078.37 C 663.615 1085.23 669.009 1092.15 674.346 1099.1 L 672.244 1099.75 C 667.575 1093.96 662.741 1087.14 658.266 1081.11 C 646.875 1086.88 637.674 1090.77 625.86 1095.63 L 626.178 1093.68 C 636.491 1089.29 645.862 1085.29 655.86 1080.26 C 655.727 1066.13 658.904 1039.73 660.257 1024.97 z" fill="rgb(91,64,54)" transform="translate(0,0)"></path>
<path d="M 848.078 1199.86 C 859.989 1221.79 874.297 1243.65 885.79 1265.16 C 907.455 1247 934.947 1219.14 955.29 1203.66 L 956.019 1205.98 C 950.425 1209.43 931.866 1226.55 926.521 1231.43 C 913.137 1243.84 899.471 1255.95 885.535 1267.73 C 872.866 1247.42 860.29 1225.07 848.137 1204.32 C 838.344 1224.02 827.061 1254.59 818.62 1275.74 C 768.061 1253.82 718.011 1234.5 672.684 1203.14 L 674.11 1201.33 C 710.928 1229.82 773.412 1253.65 817.409 1273.54 C 826.519 1250.92 837.652 1221.08 848.078 1199.86 z" fill="rgb(66,44,37)" transform="translate(0,0)"></path>
<path d="M 672.244 1099.75 L 674.346 1099.1 C 709.399 1142.35 749.819 1174.73 807.031 1180.11 C 835.43 1182.78 867.508 1179.54 890.716 1161.26 C 908.141 1147.53 910.06 1132.94 911.14 1112.42 L 911.98 1112.09 C 925.393 1118.1 938.945 1123.81 952.624 1129.19 L 953.048 1131.09 C 940.72 1127.11 925.12 1119.75 912.438 1114.71 C 912.452 1118.64 912.522 1124.2 911.974 1128.02 C 905.187 1175.34 847.023 1185.64 808.305 1182.14 C 748.283 1176.72 709.127 1144.35 672.244 1099.75 z" fill="rgb(66,44,37)" transform="translate(0,0)"></path>
<path d="M 672.684 1203.14 C 718.011 1234.5 768.061 1253.82 818.62 1275.74 C 827.061 1254.59 838.344 1224.02 848.137 1204.32 C 860.29 1225.07 872.866 1247.42 885.535 1267.73 C 899.471 1255.95 913.137 1243.84 926.521 1231.43 C 931.866 1226.55 950.425 1209.43 956.019 1205.98 C 954.325 1219.7 952.095 1233.35 949.333 1246.89 C 940.288 1290.52 922.653 1346.29 883.482 1372.08 C 882.349 1369.61 882.235 1369.69 880.28 1367.97 C 876.449 1367.21 856.901 1371.41 851.706 1372.39 L 852.758 1383.5 C 807.23 1375.16 781.517 1354.23 752.372 1319.95 C 726.967 1290.06 688.127 1239.24 672.684 1203.14 z" fill="rgb(236,128,98)" transform="translate(0,0)"></path>
<path d="M 901.441 1495.38 C 901.451 1494.78 878.159 1485.24 880.66 1468.52 C 883.086 1452.29 895.067 1441.12 911.529 1443.84 C 917.651 1444.86 923.098 1448.32 926.638 1453.42 C 931.456 1460.23 932.461 1468.72 930.892 1476.81 C 930.012 1481.35 926.078 1488.9 921.997 1491.36 C 920.144 1492.48 920.831 1491.66 919.314 1493.62 C 921.699 1494.23 929.506 1494.28 932.429 1494.36 C 933.514 1495.25 933.509 1495.63 934.119 1496.96 L 935.275 1494.31 L 936.442 1495.04 C 938.856 1500.85 939.292 1503.77 938.469 1509.97 C 941.442 1519.95 945.183 1549.61 943.103 1558.89 C 936.034 1574.87 923.709 1580.05 908.36 1570.29 C 897.76 1563.55 899.288 1545.35 896.613 1535.19 C 895.747 1529 891.348 1501.77 892.941 1498.16 C 896.134 1496.81 898.084 1496.28 901.441 1495.38 z" fill="rgb(108,107,106)" transform="translate(0,0)"></path>
<path d="M 896.613 1535.19 C 895.747 1529 891.348 1501.77 892.941 1498.16 C 896.134 1496.81 898.084 1496.28 901.441 1495.38 L 901.654 1496.36 C 906.07 1517.2 902.523 1589.81 940.542 1557.11 C 941.392 1557.71 942.246 1558.3 943.103 1558.89 C 936.034 1574.87 923.709 1580.05 908.36 1570.29 C 897.76 1563.55 899.288 1545.35 896.613 1535.19 z" fill="rgb(254,254,253)" transform="translate(0,0)"></path>
<path d="M 932.429 1494.36 C 933.514 1495.25 933.509 1495.63 934.119 1496.96 C 934.101 1497.01 933.467 1499.2 933.312 1499.22 C 925.381 1500.5 913.065 1501.19 905.114 1500.53 C 904.43 1500.48 902.234 1495.22 906.483 1495.08 C 913.783 1494.84 925.361 1495.57 932.429 1494.36 z" fill="rgb(254,254,253)" transform="translate(0,0)"></path>
<path d="M 936.442 1495.04 C 938.856 1500.85 939.292 1503.77 938.469 1509.97 C 941.442 1519.95 945.183 1549.61 943.103 1558.89 C 942.246 1558.3 941.392 1557.71 940.542 1557.11 C 946.938 1540.91 936.214 1512.43 936.442 1495.04 z" fill="rgb(210,195,177)" transform="translate(0,0)"></path>
<path d="M 924.631 1454.19 C 930.511 1463.32 931.261 1472.7 926.38 1482.44 C 915.526 1504.1 886.441 1492.3 883.592 1472.61 C 882.653 1466.15 884.435 1459.59 888.513 1454.5 C 898.065 1442.38 912.64 1443.99 923.693 1453.12 C 924.326 1453.59 924.181 1453.52 924.631 1454.19 z" fill="rgb(3,3,2)" transform="translate(0,0)"></path>
<path d="M 905.167 1502.87 C 908.635 1501.96 908.601 1501.86 912.065 1502.19 C 919.504 1501.82 926.998 1502.01 934.449 1502.14 L 934.626 1503.02 C 937.025 1514.6 939.155 1529.22 940.125 1540.94 C 930.11 1541.89 920.625 1542.65 910.591 1543.13 L 910.181 1539.5 C 908.911 1528.94 905.022 1512.99 905.167 1502.87 z" fill="rgb(254,254,253)" transform="translate(0,0)"></path>
<path d="M 905.167 1502.87 C 908.635 1501.96 908.601 1501.86 912.065 1502.19 C 909.538 1503.46 907.988 1502.98 905.167 1502.87 z" fill="rgb(210,195,177)" transform="translate(0,0)"></path>
<path d="M 924.75 1550.45 C 945.226 1547.39 943.757 1556.09 928.897 1562.83 C 924.623 1562.88 911.18 1562.58 912.559 1552.48 C 912.751 1551.07 923.111 1550.66 924.75 1550.45 z" fill="rgb(254,254,253)" transform="translate(0,0)"></path>
<path d="M 934.784 1543.45 C 938.296 1542.99 941.397 1542.65 939.538 1547.22 C 939.442 1547.46 917.138 1549.11 915.224 1549.27 C 911.105 1550.95 910.552 1547 911.471 1546.37 C 913.965 1544.68 932.254 1543.8 934.784 1543.45 z" fill="rgb(254,254,253)" transform="translate(0,0)"></path>
<path d="M 186.219 1549.03 C 188.103 1540.07 194.814 1523.61 198.181 1514.47 C 205.367 1494.47 212.68 1474.53 220.12 1454.63 C 234.513 1415.97 249.583 1370.61 265.592 1333.84 C 294.549 1267.34 345.981 1207.91 412.208 1176.96 C 433.326 1167.1 463.937 1155.63 486.449 1147.02 C 529.663 1130.49 572.961 1114.17 616.342 1098.08 L 618.205 1099.39 C 621.503 1109.83 624.775 1120.71 628.711 1130.89 C 615.326 1136.59 599.954 1144.82 586.728 1151.33 L 521.973 1182.85 C 509.637 1188.93 494.902 1197.03 482.247 1202.19 C 336.316 1261.7 311.87 1430.99 264.559 1562.35 C 262.314 1568.58 254.318 1599.62 250.609 1601.09 L 249.82 1602.13 C 242.329 1599.12 225.727 1591.71 219.498 1586.91 C 218.024 1586 216.556 1585.07 215.096 1584.14 C 201.104 1575.17 189.877 1565.7 186.219 1549.03 z" fill="rgb(254,254,253)" transform="translate(0,0)"></path>
<path d="M 186.219 1549.03 C 188.103 1540.07 194.814 1523.61 198.181 1514.47 C 205.367 1494.47 212.68 1474.53 220.12 1454.63 C 234.513 1415.97 249.583 1370.61 265.592 1333.84 C 294.549 1267.34 345.981 1207.91 412.208 1176.96 C 433.326 1167.1 463.937 1155.63 486.449 1147.02 C 529.663 1130.49 572.961 1114.17 616.342 1098.08 L 618.205 1099.39 L 488.104 1163.93 C 469.42 1173.23 441.8 1185.5 425.194 1196.12 C 337.771 1252.02 301.763 1332.49 270.395 1426.68 L 234.453 1537.64 C 232.286 1544.33 220.093 1580.36 219.764 1584.82 L 219.498 1586.91 C 218.024 1586 216.556 1585.07 215.096 1584.14 C 201.104 1575.17 189.877 1565.7 186.219 1549.03 z" fill="rgb(66,44,37)" transform="translate(0,0)"></path>
<path d="M 581.689 1113.09 L 582.566 1113.65 C 580.608 1116.67 472.122 1170.04 458.889 1176.18 C 290.832 1254.2 276.378 1425.14 217.265 1583.92 C 210.72 1579.31 207.036 1576.69 201.543 1570.97 C 194.611 1565.65 190.543 1557.63 187.557 1549.66 C 190.763 1538.35 196.74 1523.14 200.899 1511.79 L 225.476 1445.22 C 238.818 1408.99 252.294 1368.22 267.657 1333.53 C 296.151 1269.19 344.241 1213.03 407.577 1181.2 C 425.72 1172.08 449.278 1163.44 468.717 1155.77 C 506.204 1141.1 543.864 1126.87 581.689 1113.09 z" fill="rgb(236,128,98)" transform="translate(0,0)"></path>
<path d="M 219.764 1584.82 C 225.222 1587.29 246.55 1598.01 250.609 1601.09 L 249.82 1602.13 C 242.329 1599.12 225.727 1591.71 219.498 1586.91 L 219.764 1584.82 z" fill="rgb(150,127,102)" transform="translate(0,0)"></path>
<path d="M 628.711 1130.89 L 629.047 1132.61 C 631.453 1137.92 634.428 1145.05 637.071 1150.08 L 637.087 1151.3 C 641.477 1161.02 646 1170.69 650.655 1180.28 L 651.762 1181.84 C 619.383 1199.55 584.251 1215.49 551.126 1231.83 C 531.359 1241.58 509.867 1251.2 491.109 1262.68 C 490.44 1263.01 490.388 1263.05 489.814 1263.53 C 402.588 1320.92 380.235 1415.58 350.488 1509.8 L 328.782 1579.7 C 324.786 1592.7 319.146 1609.53 316.238 1622.48 C 361.037 1634.59 407.369 1641.02 453.306 1646.85 C 460.005 1647.7 466.361 1648.49 472.983 1649.92 L 472.786 1651.1 C 452.389 1647.19 424.54 1645.04 402.951 1641.57 C 351.132 1633.22 298.482 1622.13 249.82 1602.13 L 250.609 1601.09 C 254.318 1599.62 262.314 1568.58 264.559 1562.35 C 311.87 1430.99 336.316 1261.7 482.247 1202.19 C 494.902 1197.03 509.637 1188.93 521.973 1182.85 L 586.728 1151.33 C 599.954 1144.82 615.326 1136.59 628.711 1130.89 z" fill="rgb(254,254,253)" transform="translate(0,0)"></path>
<path d="M 628.711 1130.89 L 629.047 1132.61 C 631.453 1137.92 634.428 1145.05 637.071 1150.08 L 637.087 1151.3 C 587.042 1175.68 536.561 1202.06 487.169 1226.24 C 405.485 1266.22 359.934 1351.68 334.453 1435.03 C 315.381 1493.51 298.382 1553.08 279.142 1611.05 C 291.057 1614.89 302.261 1618.46 314.339 1621.76 C 328.272 1575.17 342.615 1528.71 357.368 1482.38 C 386.236 1392.02 412.503 1301.89 502.974 1253.74 C 551.049 1228.15 602.639 1206.34 650.655 1180.28 L 651.762 1181.84 C 619.383 1199.55 584.251 1215.49 551.126 1231.83 C 531.359 1241.58 509.867 1251.2 491.109 1262.68 C 490.44 1263.01 490.388 1263.05 489.814 1263.53 C 402.588 1320.92 380.235 1415.58 350.488 1509.8 L 328.782 1579.7 C 324.786 1592.7 319.146 1609.53 316.238 1622.48 C 361.037 1634.59 407.369 1641.02 453.306 1646.85 C 460.005 1647.7 466.361 1648.49 472.983 1649.92 L 472.786 1651.1 C 452.389 1647.19 424.54 1645.04 402.951 1641.57 C 351.132 1633.22 298.482 1622.13 249.82 1602.13 L 250.609 1601.09 C 254.318 1599.62 262.314 1568.58 264.559 1562.35 C 311.87 1430.99 336.316 1261.7 482.247 1202.19 C 494.902 1197.03 509.637 1188.93 521.973 1182.85 L 586.728 1151.33 C 599.954 1144.82 615.326 1136.59 628.711 1130.89 z" fill="rgb(236,128,98)" transform="translate(0,0)"></path>
<path d="M 628.711 1130.89 L 629.047 1132.61 C 587.862 1153.25 546.489 1173.5 504.933 1193.38 C 486.394 1202.38 457.366 1215.08 440.889 1226.2 C 361.319 1279.87 329.137 1368.54 301.042 1455.89 C 285.558 1504.04 268.222 1553.72 253.987 1601.84 C 261.65 1604.83 269.365 1607.69 277.128 1610.41 C 282.549 1596.21 287.2 1578.69 291.747 1563.97 L 314.975 1489.85 C 344.94 1393.45 374.392 1295.2 464.239 1237.14 C 474.609 1230.44 485.12 1225.11 496.175 1219.65 C 541.309 1197.34 586.521 1175.2 631.248 1152.08 C 632.645 1151.36 635.471 1150.46 637.071 1150.08 L 637.087 1151.3 C 587.042 1175.68 536.561 1202.06 487.169 1226.24 C 405.485 1266.22 359.934 1351.68 334.453 1435.03 C 315.381 1493.51 298.382 1553.08 279.142 1611.05 C 291.057 1614.89 302.261 1618.46 314.339 1621.76 C 328.272 1575.17 342.615 1528.71 357.368 1482.38 C 386.236 1392.02 412.503 1301.89 502.974 1253.74 C 551.049 1228.15 602.639 1206.34 650.655 1180.28 L 651.762 1181.84 C 619.383 1199.55 584.251 1215.49 551.126 1231.83 C 531.359 1241.58 509.867 1251.2 491.109 1262.68 C 490.44 1263.01 490.388 1263.05 489.814 1263.53 C 402.588 1320.92 380.235 1415.58 350.488 1509.8 L 328.782 1579.7 C 324.786 1592.7 319.146 1609.53 316.238 1622.48 C 361.037 1634.59 407.369 1641.02 453.306 1646.85 C 460.005 1647.7 466.361 1648.49 472.983 1649.92 L 472.786 1651.1 C 452.389 1647.19 424.54 1645.04 402.951 1641.57 C 351.132 1633.22 298.482 1622.13 249.82 1602.13 L 250.609 1601.09 C 254.318 1599.62 262.314 1568.58 264.559 1562.35 C 311.87 1430.99 336.316 1261.7 482.247 1202.19 C 494.902 1197.03 509.637 1188.93 521.973 1182.85 L 586.728 1151.33 C 599.954 1144.82 615.326 1136.59 628.711 1130.89 z" fill="rgb(66,44,37)" transform="translate(0,0)"></path>
<path d="M 1140.32 1387.23 C 1149.29 1409.9 1158.59 1440.44 1166.51 1463.98 L 1217 1613.71 C 1226.02 1611.08 1234.61 1608.56 1243.51 1605.55 L 1245.1 1606.86 C 1221.21 1614.68 1197.03 1621.55 1172.6 1627.46 L 1170.84 1626.2 C 1173.38 1625.59 1173.41 1625.56 1175.72 1624.33 C 1177.01 1619.6 1142.34 1414.75 1140.32 1387.23 z" fill="rgb(84,57,29)" transform="translate(0,0)"></path>
<path d="M 525.236 1462.22 C 525.19 1478.03 521.738 1502.5 519.898 1518.97 L 509.929 1610.74 C 508.9 1620.27 505.59 1644.95 505.694 1653.13 C 503.858 1654.2 503.73 1654.55 501.676 1654.54 C 492.235 1653.19 482.297 1652.19 472.786 1651.1 L 472.983 1649.92 C 478.84 1630.91 484.071 1609.61 489.375 1590.22 C 500.867 1547.43 512.822 1504.76 525.236 1462.22 z" fill="rgb(84,57,29)" transform="translate(0,0)"></path>
<path d="M 857.639 1663.21 C 962.913 1659.94 1067.71 1647.56 1170.84 1626.2 L 1172.6 1627.46 C 1085.56 1646.93 1000.39 1656.69 911.274 1662.37 C 812.376 1669.21 713.136 1669.5 614.2 1663.24 C 582.395 1661.36 533.041 1658.88 501.676 1654.54 C 503.73 1654.55 503.858 1654.2 505.694 1653.13 C 513.738 1653.08 522.414 1654.53 530.481 1655.18 C 570.405 1658.41 611.317 1662.03 651.373 1663.17 C 652.897 1663.92 652.72 1663.73 654.616 1663.74 C 682.656 1664.4 712.776 1665.78 740.545 1665.96 C 778.748 1666.1 816.95 1665.32 855.116 1663.61 C 856.539 1663.56 856.457 1663.68 857.639 1663.21 z" fill="rgb(141,80,62)" transform="translate(0,0)"></path>
<path d="M 964.472 1140.2 C 966.797 1138.82 981.602 1147.97 984.858 1149.57 C 987.441 1151.58 998.22 1157.04 1001.47 1158.21 C 1001.61 1158.4 1002.7 1159.72 1002.42 1160.06 C 995.919 1167.93 972.812 1188.04 965.729 1193 C 966.663 1171.32 967.252 1162.22 964.472 1140.2 z" fill="rgb(254,254,253)" transform="translate(0,0)"></path>
<path d="M 1198.61 1260.4 C 1228.31 1296.49 1245.66 1336.93 1261.32 1380.48 C 1280.45 1432.74 1300.16 1484.84 1318.84 1537.25 C 1323.03 1548.98 1322.25 1557.29 1313.86 1566.71 C 1297.4 1585.2 1268.43 1599.29 1245.1 1606.86 L 1243.51 1605.55 C 1269.27 1597.37 1313.24 1577.38 1320.06 1549.33 C 1318.08 1538.66 1312.02 1523.65 1308.12 1512.96 L 1286.51 1454.42 L 1259.83 1382.09 C 1241.51 1332.39 1228.98 1304.34 1196.75 1261.13 L 1198.61 1260.4 z" fill="rgb(141,80,62)" transform="translate(0,0)"></path>
<path d="M 964.483 1135.48 C 989.512 1143.45 1014.48 1153.68 1039.01 1162.22 C 1099.23 1183.19 1137.51 1196.81 1183.6 1243.06 L 1182.65 1244.38 L 1173.25 1235.46 C 1172.64 1234.84 1172.81 1234.96 1172.12 1234.53 C 1122.81 1186.1 1049.12 1168.54 984.786 1144.4 C 986.06 1150.44 997.115 1152.52 1002.09 1156.87 L 1001.47 1158.21 C 998.22 1157.04 987.441 1151.58 984.858 1149.57 C 981.602 1147.97 966.797 1138.82 964.472 1140.2 C 963.936 1138.46 964.289 1137.4 964.483 1135.48 z" fill="rgb(66,44,37)" transform="translate(0,0)"></path>
<path d="M 969.124 1139.1 C 974.245 1140.45 980.274 1141.57 984.786 1144.4 C 986.06 1150.44 997.115 1152.52 1002.09 1156.87 L 1001.47 1158.21 C 998.22 1157.04 987.441 1151.58 984.858 1149.57 C 983.532 1145.87 973.56 1141.65 969.124 1139.1 z" fill="rgb(192,123,107)" transform="translate(0,0)"></path>
<path d="M 938.469 1509.97 L 940.677 1509.92 C 943.55 1524.24 950.711 1556.38 940.628 1567.65 C 927.742 1582.04 915.409 1577.34 902.314 1567.46 C 898.758 1558.34 896.377 1551.47 895.412 1541.57 C 895.191 1539.3 891.244 1540.11 889.199 1539.29 C 893.457 1538.5 895.872 1540.63 896.412 1536.52 L 896.613 1535.19 C 899.288 1545.35 897.76 1563.55 908.36 1570.29 C 923.709 1580.05 936.034 1574.87 943.103 1558.89 C 945.183 1549.61 941.442 1519.95 938.469 1509.97 z" fill="rgb(66,44,37)" transform="translate(0,0)"></path>
<path d="M 1002.09 1156.87 C 1003.26 1157.77 1004.85 1158.67 1005.25 1160.03 C 1004.51 1163.4 971.27 1191.41 966.411 1194.94 C 965.898 1194.02 965.582 1193.81 965.729 1193 C 972.812 1188.04 995.919 1167.93 1002.42 1160.06 C 1002.7 1159.72 1001.61 1158.4 1001.47 1158.21 L 1002.09 1156.87 z" fill="rgb(66,44,37)" transform="translate(0,0)"></path>
<path d="M 1183.6 1243.06 C 1185.9 1245.26 1187.32 1246.82 1189.39 1249.24 L 1187.92 1250.81 C 1184.68 1247.86 1185.31 1247.36 1182.65 1244.38 L 1183.6 1243.06 z" fill="rgb(159,99,82)" transform="translate(0,0)"></path>
<path d="M 1187.92 1250.81 L 1189.39 1249.24 C 1191.08 1251.43 1192.61 1253.04 1194.54 1255.03 L 1191.74 1255.16 C 1190.24 1252.75 1190.11 1252.66 1187.92 1250.81 z" fill="rgb(66,44,37)" transform="translate(0,0)"></path>
<path d="M 1193.52 1256.99 L 1195 1255.93 C 1196.22 1257.41 1197.42 1258.9 1198.61 1260.4 L 1196.75 1261.13 C 1195.54 1259.35 1194.97 1258.59 1193.52 1256.99 z" fill="rgb(66,44,37)" transform="translate(0,0)"></path>
<path d="M 1194.54 1255.03 L 1195 1255.93 L 1193.52 1256.99 C 1192.47 1256.13 1192.54 1256.23 1191.74 1255.16 L 1194.54 1255.03 z" fill="rgb(141,80,62)" transform="translate(0,0)"></path>
<path d="M 651.373 1663.17 C 653.151 1663.07 653.178 1662.9 654.616 1663.74 C 652.72 1663.73 652.897 1663.92 651.373 1663.17 z" fill="rgb(192,123,107)" transform="translate(0,0)"></path>
<path d="M 713.888 415.532 C 718.085 406.751 722.301 400.306 729.785 393.873 C 742.666 383.012 759.315 377.679 776.109 379.034 C 791.541 380.223 805.457 386.738 815.512 398.629 C 827.86 399.699 840.986 399.933 853.185 401.354 C 885.389 405.39 916.48 415.739 944.678 431.81 C 951.279 435.538 965.043 443.858 969.633 449.428 C 973.38 450.716 978.093 455.386 980.624 458.325 C 984.41 460.352 989.654 465.467 992.852 468.586 C 1015.64 490.809 1036.85 524.5 1046.08 555.031 C 1047.68 560.189 1048.89 565.456 1049.72 570.79 C 1055.82 570.724 1066.89 573.636 1072.99 575.047 C 1117 585.222 1179.03 606.82 1183.16 659.841 C 1183.3 661.568 1183.14 664.154 1182.5 665.735 C 1179.54 681.678 1173.82 692.723 1159.98 701.922 C 1131.92 720.571 1082.98 723.523 1054.04 706.071 C 1053.62 730.596 1052.9 759.908 1057.46 783.799 C 1061.1 802.858 1068.47 821.809 1070.48 841.444 C 1076.79 908.47 1052.22 974.718 1003.74 1021.43 C 978.875 1045.35 944.471 1065.01 910.744 1072.95 C 911.451 1085.56 912.515 1099.56 911.98 1112.09 L 911.14 1112.42 C 910.018 1112.48 909.879 1112.33 909.049 1112.82 C 885.492 1126.59 862.649 1125.53 836.156 1121.53 C 777.185 1112.06 725.051 1077.89 692.831 1027.6 C 682.085 1010.85 678.113 996.139 666.3 980.117 C 665.793 994.181 663.629 1010.78 662.112 1024.96 L 660.257 1024.97 C 656.224 1026.19 652.096 1027.06 647.916 1027.57 C 624.461 1030.28 602.301 1014.98 594.2 993.328 C 591.254 985.454 590.742 979.809 589.919 971.542 C 574.66 975.29 561.013 974.42 547.07 966.447 C 534.464 959.192 525.345 947.128 521.802 933.022 C 517.036 914.635 522.069 900.605 531.442 884.953 C 529.177 884.538 526.931 884.026 524.71 883.419 C 510.095 879.298 497.06 868.625 489.86 855.292 C 483.039 842.514 481.576 827.549 485.794 813.693 C 491.019 796.394 501.79 785.802 517.27 777.48 C 513.664 773 510.541 769.104 507.985 763.917 C 501.165 750.007 500.089 733.974 504.99 719.278 C 509.732 705.514 519.942 694.66 533.01 688.437 C 525.729 624.196 532.964 578.965 567.084 522.044 C 596.404 473.132 658.45 428.522 713.888 415.532 z" fill="rgb(192,123,107)" transform="translate(0,0)"></path>
<path d="M 713.888 415.532 C 718.085 406.751 722.301 400.306 729.785 393.873 C 742.666 383.012 759.315 377.679 776.109 379.034 C 791.541 380.223 805.457 386.738 815.512 398.629 C 827.86 399.699 840.986 399.933 853.185 401.354 C 885.389 405.39 916.48 415.739 944.678 431.81 C 951.279 435.538 965.043 443.858 969.633 449.428 C 973.38 450.716 978.093 455.386 980.624 458.325 C 984.41 460.352 989.654 465.467 992.852 468.586 C 1015.64 490.809 1036.85 524.5 1046.08 555.031 C 1047.68 560.189 1048.89 565.456 1049.72 570.79 C 1047.37 571.557 1031.99 566.239 1028.78 565.294 C 1019.72 562.664 1010.54 560.487 1001.26 558.772 C 992.9 557.181 971.253 555.235 965.618 551.737 C 956.744 548.681 894.253 549.976 888.263 553.771 C 882.569 554.21 878.265 555.392 873.001 556.001 C 865.782 557.295 840.54 562.32 834.819 565.571 C 823.065 568.865 800.635 576.46 789.828 582.135 C 782.726 583.725 760.423 594.838 754.789 599.516 C 751.833 600.138 750.298 601.479 747.791 603.213 C 743.671 604.631 742.087 605.601 738.723 608.509 C 737.137 608.925 736.845 608.972 736.14 610.443 C 733.986 611.252 732.209 611.283 731.083 613.328 C 726.409 615.311 724.749 616.21 721.062 619.555 C 718.266 620.178 706.127 628.002 705.01 630.306 C 696.379 634.26 678.105 649.396 670.1 655.977 C 661.349 664.034 649.459 666.572 638.274 670.541 C 622.57 675.988 606.992 681.793 591.553 687.951 C 574.276 695.07 557.267 702.825 540.562 711.2 C 538.404 702.779 536.672 695.728 535.085 687.152 L 533.01 688.437 C 525.729 624.196 532.964 578.965 567.084 522.044 C 596.404 473.132 658.45 428.522 713.888 415.532 z" fill="rgb(210,195,177)" transform="translate(0,0)"></path>
<path d="M 713.888 415.532 C 718.085 406.751 722.301 400.306 729.785 393.873 C 742.666 383.012 759.315 377.679 776.109 379.034 C 791.541 380.223 805.457 386.738 815.512 398.629 L 816.747 400.992 C 810.807 401.006 807.538 400.824 801.59 401.899 C 778.66 402.79 739.997 408.57 718.151 416.004 L 713.888 415.532 z" fill="rgb(84,57,29)" transform="translate(0,0)"></path>
<path d="M 713.888 415.532 L 718.151 416.004 C 647.842 437.434 594.851 473.606 559.327 539.477 C 544.839 566.342 533.128 604.728 532.707 635.256 C 532.918 637.18 533.103 637.178 532.239 638.771 C 531.727 654.951 532.68 671.144 535.085 687.152 L 533.01 688.437 C 525.729 624.196 532.964 578.965 567.084 522.044 C 596.404 473.132 658.45 428.522 713.888 415.532 z" fill="rgb(91,64,54)" transform="translate(0,0)"></path>
<path d="M 532.239 638.771 C 531.968 636.818 531.721 636.822 532.707 635.256 C 532.918 637.18 533.103 637.178 532.239 638.771 z" fill="rgb(150,127,102)" transform="translate(0,0)"></path>
<path d="M 980.624 458.325 C 984.41 460.352 989.654 465.467 992.852 468.586 C 1015.64 490.809 1036.85 524.5 1046.08 555.031 C 1047.68 560.189 1048.89 565.456 1049.72 570.79 C 1047.37 571.557 1031.99 566.239 1028.78 565.294 C 1019.72 562.664 1010.54 560.487 1001.26 558.772 C 992.9 557.181 971.253 555.235 965.618 551.737 C 990.81 552.722 1023.88 560.834 1047.67 569.252 C 1040.48 536.344 1024.1 507.428 1002.4 481.972 C 1001.48 480.291 1001.26 480.131 999.744 478.964 C 995.178 473.842 989.982 468.951 985.057 464.144 C 983.146 461.371 981.821 461.835 980.624 458.325 z" fill="rgb(91,64,54)" transform="translate(0,0)"></path>
<path d="M 815.512 398.629 C 827.86 399.699 840.986 399.933 853.185 401.354 C 885.389 405.39 916.48 415.739 944.678 431.81 C 951.279 435.538 965.043 443.858 969.633 449.428 L 966.593 448.825 C 964.431 447.548 964.127 447.204 962.272 445.461 C 961.502 444.835 961.742 445.002 960.982 444.58 C 926.076 420.725 887.53 405.991 845.153 402.724 C 844.23 402.316 844.321 402.318 843.345 402.346 L 833.544 401.826 C 827.195 400.558 823.181 400.899 816.747 400.992 L 815.512 398.629 z" fill="rgb(91,64,54)" transform="translate(0,0)"></path>
<path d="M 816.747 400.992 C 823.181 400.899 827.195 400.558 833.544 401.826 C 826.328 402.151 808.591 402.264 801.59 401.899 C 807.538 400.824 810.807 401.006 816.747 400.992 z" fill="rgb(150,127,102)" transform="translate(0,0)"></path>
<path d="M 969.633 449.428 C 973.38 450.716 978.093 455.386 980.624 458.325 L 978.04 457.961 L 976.539 456.589 C 974.44 454.244 973.918 454.023 971.259 452.279 C 970.156 450.959 970.274 451.102 969.633 449.428 z" fill="rgb(66,44,37)" transform="translate(0,0)"></path>
<path d="M 978.04 457.961 L 980.624 458.325 C 981.821 461.835 983.146 461.371 985.057 464.144 C 982.64 463.387 979.928 459.947 978.04 457.961 z" fill="rgb(150,127,102)" transform="translate(0,0)"></path>
<path d="M 969.633 449.428 C 970.274 451.102 970.156 450.959 971.259 452.279 C 969.075 451.495 968.295 450.335 966.593 448.825 L 969.633 449.428 z" fill="rgb(150,127,102)" transform="translate(0,0)"></path>
<path d="M 971.259 452.279 C 973.918 454.023 974.44 454.244 976.539 456.589 C 974.004 455.373 973.235 454.253 971.259 452.279 z" fill="rgb(150,127,102)" transform="translate(0,0)"></path>
<path d="M 999.744 478.964 C 1001.26 480.131 1001.48 480.291 1002.4 481.972 C 1000.72 481.105 1000.53 480.607 999.744 478.964 z" fill="rgb(150,127,102)" transform="translate(0,0)"></path>
<path d="M 843.345 402.346 C 844.321 402.318 844.23 402.316 845.153 402.724 C 844.26 402.683 844.062 402.792 843.345 402.346 z" fill="rgb(150,127,102)" transform="translate(0,0)"></path>
<path d="M 654.094 521.4 L 656.27 523.095 C 656.688 528.571 648.173 552.098 646.669 559.959 C 642.79 580.241 640.581 599.49 640.908 620.227 C 641.011 626.792 643.483 638.906 642.291 644.554 C 626.191 636.24 644.906 537.499 654.094 521.4 z" fill="rgb(84,57,29)" transform="translate(0,0)"></path>
<path d="M 714.502 436.672 C 715.004 437.004 716.713 438.043 716.75 438.587 C 716.901 440.844 701.902 453.449 699.792 455.516 C 684.083 470.908 676.994 484.133 666.412 502.353 C 665.343 501.534 663.371 500.085 663.981 498.535 C 673.067 475.441 696.023 451.207 714.502 436.672 z" fill="rgb(84,57,29)" transform="translate(0,0)"></path>
<path d="M 888.263 553.771 C 894.253 549.976 956.744 548.681 965.618 551.737 C 971.253 555.235 992.9 557.181 1001.26 558.772 C 1010.54 560.487 1019.72 562.664 1028.78 565.294 C 1031.99 566.239 1047.37 571.557 1049.72 570.79 C 1055.82 570.724 1066.89 573.636 1072.99 575.047 C 1117 585.222 1179.03 606.82 1183.16 659.841 C 1183.3 661.568 1183.14 664.154 1182.5 665.735 C 1179.54 681.678 1173.82 692.723 1159.98 701.922 C 1131.92 720.571 1082.98 723.523 1054.04 706.071 L 1051.94 704.67 C 1048.62 674.24 1029.16 609.018 987.439 617.822 C 961.61 623.272 919.338 639.256 895.425 652.161 L 895.153 650.772 C 884.044 658.9 876.506 666.281 864.572 674.051 C 828.939 697.109 786.04 706.181 744.123 699.525 C 732.534 697.674 721.153 694.703 710.138 690.655 C 699.295 685.744 674.069 672.531 668.075 662.802 C 667.88 659.58 667.794 660.732 670.477 657.469 L 670.1 655.977 C 678.105 649.396 696.379 634.26 705.01 630.306 C 706.127 628.002 718.266 620.178 721.062 619.555 C 724.749 616.21 726.409 615.311 731.083 613.328 C 732.209 611.283 733.986 611.252 736.14 610.443 C 736.845 608.972 737.137 608.925 738.723 608.509 C 742.087 605.601 743.671 604.631 747.791 603.213 C 750.298 601.479 751.833 600.138 754.789 599.516 C 760.423 594.838 782.726 583.725 789.828 582.135 C 800.635 576.46 823.065 568.865 834.819 565.571 C 840.54 562.32 865.782 557.295 873.001 556.001 C 878.265 555.392 882.569 554.21 888.263 553.771 z" fill="rgb(150,127,102)" transform="translate(0,0)"></path>
<path d="M 895.153 650.772 C 903.205 645.578 920.9 638.431 930.115 634.598 C 984.189 612.363 1045.79 598.42 1104.1 610.17 C 1127.78 614.944 1157.88 627.707 1171.63 648.311 C 1176.99 656.327 1178.07 659.522 1177.77 668.808 L 1177.71 670.26 L 1179.09 671.853 C 1181.64 669.415 1179.35 666.939 1181.73 664.472 L 1182.5 665.735 C 1179.54 681.678 1173.82 692.723 1159.98 701.922 C 1131.92 720.571 1082.98 723.523 1054.04 706.071 L 1051.94 704.67 C 1048.62 674.24 1029.16 609.018 987.439 617.822 C 961.61 623.272 919.338 639.256 895.425 652.161 L 895.153 650.772 z" fill="rgb(84,57,29)" transform="translate(0,0)"></path>
<path d="M 834.819 565.571 C 833.052 568.439 794.748 581.813 789.828 582.135 C 800.635 576.46 823.065 568.865 834.819 565.571 z" fill="rgb(66,44,37)" transform="translate(0,0)"></path>
<path d="M 670.1 655.977 C 678.105 649.396 696.379 634.26 705.01 630.306 C 700.266 636.227 685.703 645.314 678.748 651.565 C 678.056 651.892 678.243 651.787 677.615 652.323 C 675.03 654.05 673.036 655.807 670.477 657.469 L 670.1 655.977 z" fill="rgb(66,44,37)" transform="translate(0,0)"></path>
<path d="M 705.01 630.306 C 706.127 628.002 718.266 620.178 721.062 619.555 C 720.264 621.656 707.477 630.315 705.01 630.306 z" fill="rgb(66,44,37)" transform="translate(0,0)"></path>
<path d="M 873.001 556.001 C 878.265 555.392 882.569 554.21 888.263 553.771 C 885.434 555.547 874.308 559.632 873.001 556.001 z" fill="rgb(66,44,37)" transform="translate(0,0)"></path>
<path d="M 721.062 619.555 C 724.749 616.21 726.409 615.311 731.083 613.328 C 727.293 617.356 726.17 617.972 721.062 619.555 z" fill="rgb(66,44,37)" transform="translate(0,0)"></path>
<path d="M 747.791 603.213 C 750.298 601.479 751.833 600.138 754.789 599.516 C 754.22 602.596 750.468 602.683 747.791 603.213 z" fill="rgb(66,44,37)" transform="translate(0,0)"></path>
<path d="M 731.083 613.328 C 732.209 611.283 733.986 611.252 736.14 610.443 C 734.181 612.359 733.896 613.469 731.083 613.328 z" fill="rgb(66,44,37)" transform="translate(0,0)"></path>
<path d="M 736.14 610.443 C 736.845 608.972 737.137 608.925 738.723 608.509 C 738.466 610.42 738.13 610.408 736.14 610.443 z" fill="rgb(66,44,37)" transform="translate(0,0)"></path>
<path d="M 1031.5 579.434 C 1044.84 578.715 1081.72 579.231 1092.41 585.726 C 1088.74 587.864 1049.55 583.28 1040.3 583.257 C 999.618 583.133 959.325 591.219 921.838 607.03 C 914.036 610.27 908.643 612.884 901.418 616.795 C 896.009 619.723 883.013 628.446 878.312 629.807 L 877.39 628.812 L 878.281 626.333 C 917.036 595.7 983.135 581.291 1031.5 579.434 z" fill="rgb(84,57,29)" transform="translate(0,0)"></path>
<path d="M 670.1 655.977 L 670.477 657.469 C 667.794 660.732 667.88 659.58 668.075 662.802 C 674.069 672.531 699.295 685.744 710.138 690.655 L 708.763 691.785 C 689.069 698.186 667.93 725.721 658.47 744.091 C 650.487 759.712 645.695 776.767 644.375 794.26 C 637.093 778.395 628.852 765.054 611.185 759.19 C 552.621 739.751 513.005 803.492 538.983 853.859 C 557.666 890.082 590.945 898.307 628.394 888.945 C 650.433 1015.54 784.239 1103.62 909.501 1071.39 L 910.744 1072.95 C 911.451 1085.56 912.515 1099.56 911.98 1112.09 L 911.14 1112.42 C 910.018 1112.48 909.879 1112.33 909.049 1112.82 C 885.492 1126.59 862.649 1125.53 836.156 1121.53 C 777.185 1112.06 725.051 1077.89 692.831 1027.6 C 682.085 1010.85 678.113 996.139 666.3 980.117 C 665.793 994.181 663.629 1010.78 662.112 1024.96 L 660.257 1024.97 C 656.224 1026.19 652.096 1027.06 647.916 1027.57 C 624.461 1030.28 602.301 1014.98 594.2 993.328 C 591.254 985.454 590.742 979.809 589.919 971.542 C 574.66 975.29 561.013 974.42 547.07 966.447 C 534.464 959.192 525.345 947.128 521.802 933.022 C 517.036 914.635 522.069 900.605 531.442 884.953 C 529.177 884.538 526.931 884.026 524.71 883.419 C 510.095 879.298 497.06 868.625 489.86 855.292 C 483.039 842.514 481.576 827.549 485.794 813.693 C 491.019 796.394 501.79 785.802 517.27 777.48 C 513.664 773 510.541 769.104 507.985 763.917 C 501.165 750.007 500.089 733.974 504.99 719.278 C 509.732 705.514 519.942 694.66 533.01 688.437 L 535.085 687.152 C 536.672 695.728 538.404 702.779 540.562 711.2 C 557.267 702.825 574.276 695.07 591.553 687.951 C 606.992 681.793 622.57 675.988 638.274 670.541 C 649.459 666.572 661.349 664.034 670.1 655.977 z" fill="rgb(84,57,29)" transform="translate(0,0)"></path>
<path d="M 1051.94 704.67 L 1054.04 706.071 C 1053.62 730.596 1052.9 759.908 1057.46 783.799 C 1061.1 802.858 1068.47 821.809 1070.48 841.444 C 1076.79 908.47 1052.22 974.718 1003.74 1021.43 C 978.875 1045.35 944.471 1065.01 910.744 1072.95 L 909.501 1071.39 C 930.833 1065.96 942.536 1060.66 961.865 1050.37 C 962.551 1049.8 962.437 1049.83 963.24 1049.53 L 965.684 1047.8 C 968.472 1045.73 969.756 1045.18 972.78 1043.5 C 973.536 1042.9 973.31 1043.06 974.091 1042.65 L 980.118 1038.56 C 980.884 1038.06 980.921 1038.06 981.557 1037.46 C 982.463 1036.74 983.056 1036.16 984.088 1035.65 C 1041.89 994.874 1076.96 911.518 1068.47 841.97 C 1064.19 806.917 1048.63 773.548 1052.01 736.469 C 1052.84 727.317 1051.58 714.516 1051.94 704.67 z" fill="rgb(91,64,54)" transform="translate(0,0)"></path>
<path d="M 972.78 1043.5 C 970.822 1045.25 968.293 1047.38 965.684 1047.8 C 968.472 1045.73 969.756 1045.18 972.78 1043.5 z" fill="rgb(159,99,82)" transform="translate(0,0)"></path>
<path d="M 895.153 650.772 L 895.425 652.161 C 854.928 688.676 815.765 705.593 760.183 703.072 C 744.546 702.363 723.068 698.113 708.763 691.785 L 710.138 690.655 C 721.153 694.703 732.534 697.674 744.123 699.525 C 786.04 706.181 828.939 697.109 864.572 674.051 C 876.506 666.281 884.044 658.9 895.153 650.772 z" fill="rgb(91,64,54)" transform="translate(0,0)"></path>
<path d="M 777.814 913.94 C 777.679 913.159 776.524 909.068 777.553 908.51 C 778.081 908.514 778.091 908.696 778.649 909.154 C 785.028 909.673 797.756 909.299 804.508 909.317 L 854.499 909.598 C 884.023 909.884 913.55 909.958 943.076 909.818 C 952.112 909.803 977.374 910.28 984.759 909.004 C 986.471 908.745 1001.17 906.748 1000.43 909.377 C 1000.07 910.659 998.255 915.766 997.748 917.402 C 996.915 920.557 990.922 931.792 989.01 934.426 C 977.528 950.418 968.456 961.844 951.038 972.294 C 907.442 998.449 858.64 995.04 817.914 965.653 L 817.056 965.031 C 815.93 964.776 815.663 964.683 815.192 963.643 L 811.09 960.054 C 808.382 959.399 801.396 951.394 799.736 949.083 C 798.471 947.106 798.093 946.602 796.559 944.939 C 795.542 944.249 795.569 944.291 794.82 943.291 C 793.295 940.238 792.789 939.68 790.587 936.973 C 788.722 936.176 779.19 917.033 777.814 913.94 z" fill="rgb(254,254,253)" transform="translate(0,0)"></path>
<path d="M 990.408 927.828 C 990.417 930.859 990.013 931.502 989.01 934.426 C 977.528 950.418 968.456 961.844 951.038 972.294 C 907.442 998.449 858.64 995.04 817.914 965.653 L 817.056 965.031 C 815.93 964.776 815.663 964.683 815.192 963.643 L 811.09 960.054 C 808.382 959.399 801.396 951.394 799.736 949.083 L 802.283 948.959 L 802.587 949.441 C 811.805 958.483 819.233 965.23 830.609 972.014 C 857.11 987.654 888.757 992.072 918.528 984.288 C 951.013 975.768 973.639 956.358 990.408 927.828 z" fill="rgb(91,64,54)" transform="translate(0,0)"></path>
<path d="M 802.283 948.959 L 802.587 949.441 C 802.73 953.812 807.698 955.969 811.09 960.054 C 808.382 959.399 801.396 951.394 799.736 949.083 L 802.283 948.959 z" fill="rgb(159,99,82)" transform="translate(0,0)"></path>
<path d="M 815.192 963.643 C 816.362 964.175 816.234 964.074 817.056 965.031 C 815.93 964.776 815.663 964.683 815.192 963.643 z" fill="rgb(159,99,82)" transform="translate(0,0)"></path>
<path d="M 777.814 913.94 L 780.424 913.78 C 783.335 921.823 787.677 928.701 791.996 935.958 L 790.587 936.973 C 788.722 936.176 779.19 917.033 777.814 913.94 z" fill="rgb(141,80,62)" transform="translate(0,0)"></path>
<path d="M 997.748 917.402 C 996.915 920.557 990.922 931.792 989.01 934.426 C 990.013 931.502 990.417 930.859 990.408 927.828 C 991.061 925.547 993.894 919.629 995.325 917.642 C 996.574 917.717 996.882 917.916 997.748 917.402 z" fill="rgb(141,80,62)" transform="translate(0,0)"></path>
<path d="M 984.759 909.004 C 986.471 908.745 1001.17 906.748 1000.43 909.377 C 1000.07 910.659 998.255 915.766 997.748 917.402 C 996.882 917.916 996.574 917.717 995.325 917.642 C 999.795 906.194 996.779 909.062 984.759 909.004 z" fill="rgb(66,44,37)" transform="translate(0,0)"></path>
<path d="M 797.563 943.07 L 798.018 943.906 L 802.283 948.959 L 799.736 949.083 C 798.471 947.106 798.093 946.602 796.559 944.939 C 795.542 944.249 795.569 944.291 794.82 943.291 L 797.563 943.07 z" fill="rgb(66,44,37)" transform="translate(0,0)"></path>
<path d="M 797.563 943.07 L 798.018 943.906 L 796.559 944.939 C 795.542 944.249 795.569 944.291 794.82 943.291 L 797.563 943.07 z" fill="rgb(141,80,62)" transform="translate(0,0)"></path>
<path d="M 790.587 936.973 L 791.996 935.958 C 793.793 938.374 795.649 940.745 797.563 943.07 L 794.82 943.291 C 793.295 940.238 792.789 939.68 790.587 936.973 z" fill="rgb(66,44,37)" transform="translate(0,0)"></path>
<path d="M 777.814 913.94 C 777.679 913.159 776.524 909.068 777.553 908.51 C 778.081 908.514 778.091 908.696 778.649 909.154 L 780.424 913.78 L 777.814 913.94 z" fill="rgb(66,44,37)" transform="translate(0,0)"></path>
<path d="M 793.291 735.221 C 798.359 734.973 801.774 734.77 806.534 736.848 C 831.865 747.907 832.645 787.256 806.501 797.987 C 805.312 798.475 804.194 798.906 803.021 799.425 C 767.338 802.215 754.762 748.633 793.291 735.221 z" fill="rgb(84,57,29)" transform="translate(0,0)"></path>
<path d="M 990.778 735.138 C 1007.16 735.225 1016.61 745.554 1019.48 761.241 C 1021.11 770.49 1019.03 780.008 1013.69 787.733 C 1008.46 795.148 1003.16 797.955 994.544 799.623 C 958.134 796.936 952.205 744.111 990.778 735.138 z" fill="rgb(84,57,29)" transform="translate(0,0)"></path>
<path d="M 898.886 733.502 C 899.251 733.577 899.615 733.652 899.98 733.727 C 904.275 734.432 909.929 747.129 911.992 751.778 C 924.38 779.693 941.596 808.547 950.122 837.664 C 950.972 842.402 950.404 849.366 948.552 853.696 C 937.798 878.842 901.952 874.602 881.767 867.211 C 877.78 865.049 877.02 863.761 876.632 859.283 C 881.079 855.941 899.46 863.287 905.725 863.964 C 913.003 864.75 920.599 864.247 927.645 862.201 C 932.916 860.67 937.641 857.785 940.185 852.76 C 951.022 831.361 903.277 765.094 897.408 739.915 C 896.704 736.894 897.432 736.016 898.886 733.502 z" fill="rgb(84,57,29)" transform="translate(0,0)"></path>
<path d="M 575.671 798.301 C 622.354 792.848 628.842 851.483 619.514 856.974 L 617.267 858.292 C 614.538 854.822 614.72 854.852 614.978 850.54 C 615.741 837.785 611.863 823.141 603.368 813.379 C 598.014 807.227 588.987 804.066 581.001 804.958 C 579.67 804.875 575.09 806.599 573.996 806.151 C 567.306 803.415 572.222 800.233 574.997 798.708 L 575.671 798.301 z" fill="rgb(84,57,29)" transform="translate(0,0)"></path>
<metadata><recraft-signature>{"signed_by": "recraft", "signature_b64": "+gxAtxmxFNzom4rFlIzk+avi0OG136rDQRlJ1G9Z1RlXZjDDQQgWvRgsF3uJKqbxbjKHdE8X1NyfqFUGD0n/Cg==", "signing_algo": "Ed25519", "generation_timestamp": 1779105687, "identifier": "0be2cab7-9a9b-4498-ab30-2ffe958e4eea"}</recraft-signature></metadata></svg>