<svg xmlns="http://www.w3.org/2000/svg" height="1216" preserveAspectRatio="none" style="display: block;" version="1.1" viewBox="0 0 1509 2048" width="896">
<path d="M 0 0 L 1509 0 L 1509 2048 L 1435.33 2048 L 856.263 2048 L 808.526 2048 L 800.375 2048 L 648.766 2048 L 274.889 2048 L 271.607 2048 L 74.0207 2048 L 0 2048 L 0 0 z" fill="rgb(255,255,255)" transform="translate(0,0)"></path>
<path d="M 633.763 648.756 C 700.392 624.204 775.992 626.648 842.966 648.597 L 843.513 649.545 C 852.728 665.688 860.092 684.594 869.061 701.357 C 906.272 770.9 959.625 840.506 1034.43 871.959 C 1035.41 895.055 1035.84 918.172 1035.72 941.289 C 1042.46 934.092 1047.92 928.081 1056.49 922.962 C 1092.78 901.223 1121.88 930.343 1132.35 964.822 C 1146.55 1011.62 1136.65 1066.73 1102.63 1102.75 C 1079.45 1127.29 1051.61 1136.91 1018.81 1127.79 C 1002.49 1219.19 969.123 1271.89 895.317 1326.61 C 895.3 1337.44 895.622 1350.16 895.25 1360.82 C 895.694 1385.61 894.958 1410.43 895.421 1435.06 C 904.843 1435.18 920.11 1434.93 929.053 1435.84 C 918.048 1436.35 906.876 1436.13 895.846 1436.03 L 896.128 1451.39 C 901.116 1467.26 907.002 1477.55 919.557 1488.6 C 892.263 1553.31 825.887 1600.26 766.506 1633.25 C 762.048 1635.27 759.064 1636.31 755.749 1640.05 L 753.803 1640.17 C 750.324 1637.1 749.67 1636.51 745.499 1634.54 L 743.796 1635.22 C 742.669 1632.99 732.463 1627.74 729.627 1626.15 C 713.392 1616.96 697.78 1606.7 682.892 1595.45 C 645.562 1567.76 607.871 1531.25 589.401 1487.85 C 602.322 1478.06 608.399 1467.94 612.788 1452.42 C 613.051 1447.86 614.668 1438.6 611.267 1435.64 L 612.469 1434.68 C 613.398 1429.88 613.033 1413.33 613.025 1407.58 L 613.107 1359.69 L 612.889 1326.17 C 543.396 1280.56 503.075 1209.92 490.57 1128.63 C 457.202 1135.56 433.269 1127.41 409.303 1102.73 C 384.329 1076.3 371.578 1041.26 372.158 1004.7 C 372.7 970.537 388.809 914.339 431.57 915.048 C 448.626 915.331 464.678 928.96 475.883 941.169 C 475.29 893.155 484.508 849.977 496.949 804.146 C 506.473 769.06 513.527 744.884 536.731 716.291 C 564.87 681.618 593.335 665.135 633.763 648.756 z" fill="rgb(224,166,139)" transform="translate(0,0)"></path>
<path d="M 612.889 1326.17 C 651.968 1350.56 707.619 1377.24 754.306 1378.13 C 796.668 1378.93 860.983 1348.79 895.317 1326.61 C 895.3 1337.44 895.622 1350.16 895.25 1360.82 C 895.694 1385.61 894.958 1410.43 895.421 1435.06 C 904.843 1435.18 920.11 1434.93 929.053 1435.84 C 918.048 1436.35 906.876 1436.13 895.846 1436.03 L 896.128 1451.39 C 901.116 1467.26 907.002 1477.55 919.557 1488.6 C 892.263 1553.31 825.887 1600.26 766.506 1633.25 C 762.048 1635.27 759.064 1636.31 755.749 1640.05 L 753.803 1640.17 C 750.324 1637.1 749.67 1636.51 745.499 1634.54 L 743.796 1635.22 C 742.669 1632.99 732.463 1627.74 729.627 1626.15 C 713.392 1616.96 697.78 1606.7 682.892 1595.45 C 645.562 1567.76 607.871 1531.25 589.401 1487.85 C 602.322 1478.06 608.399 1467.94 612.788 1452.42 C 613.051 1447.86 614.668 1438.6 611.267 1435.64 L 612.469 1434.68 C 613.398 1429.88 613.033 1413.33 613.025 1407.58 L 613.107 1359.69 L 612.889 1326.17 z" fill="rgb(224,166,139)" transform="translate(0,0)"></path>
<path d="M 612.889 1326.17 C 651.968 1350.56 707.619 1377.24 754.306 1378.13 C 796.668 1378.93 860.983 1348.79 895.317 1326.61 C 895.3 1337.44 895.622 1350.16 895.25 1360.82 C 883.217 1375.76 868.869 1392.95 853.672 1404.2 C 808.581 1437.58 762.611 1456.45 707.676 1433.91 C 662.728 1415.47 642.875 1396.55 613.107 1359.69 L 612.889 1326.17 z" fill="rgb(190,137,114)" transform="translate(0,0)"></path>
<path d="M 651.451 1159.04 C 660.403 1160.08 673.891 1164.91 682.978 1166.91 C 726.784 1176.55 769.316 1177.68 813.422 1169.33 C 822.916 1167.54 849.576 1159.54 857.164 1160.34 C 867.302 1172.43 841.917 1215.21 834.093 1226.16 L 833.671 1226.69 C 816.153 1248.44 794.708 1261.65 766.566 1264.5 C 739.441 1267.49 712.258 1259.41 691.166 1242.1 C 669.247 1223.92 653.292 1196.18 648.827 1167.25 C 648.19 1163.13 649.305 1161.64 651.451 1159.04 z" fill="rgb(23,21,21)" transform="translate(0,0)"></path>
<path d="M 733.677 921.517 C 743.913 925.553 742.228 937.56 742.154 947.466 C 742.084 970.771 739.809 994.018 735.357 1016.89 C 733.692 1025.63 718.885 1079.71 720.291 1083.06 C 722.056 1087.28 726.388 1090.17 730.305 1092.22 C 756.345 1105.81 779.732 1086.38 792.372 1091.34 C 796.665 1096.81 793.931 1099.01 789.092 1102 C 759.738 1112.76 721.27 1116.02 706.095 1082.25 C 707.137 1075.99 711.554 1063.31 713.526 1056.73 C 717.843 1042.82 721.324 1028.66 723.951 1014.34 C 729.244 984.906 730.878 958.321 729.172 928.723 C 728.981 925.403 731.211 923.59 733.677 921.517 z" fill="rgb(23,21,21)" transform="translate(0,0)"></path>
<path d="M 885.236 930.16 C 920.125 928.102 927.991 983.295 894.573 997.81 C 858.14 1000.49 851.833 943.362 885.236 930.16 z" fill="rgb(23,21,21)" transform="translate(0,0)"></path>
<path d="M 622.46 930.077 C 659.33 929.583 659.606 988.517 631.033 997.156 L 627.858 998.089 C 594.02 997.15 586.632 941.703 622.46 930.077 z" fill="rgb(23,21,21)" transform="translate(0,0)"></path>
<path d="M 421.219 964.246 C 438.71 962.808 448.529 968.415 460.156 981.859 C 465.434 987.865 477.239 1005.95 475.584 1014.22 C 472.933 1027.46 452.349 1010.65 447.918 1030.82 C 443.927 1048.99 463.075 1055.05 462.529 1065.96 C 456.3 1071.62 451.453 1065.56 445.767 1061.14 C 435.508 1050.94 432.722 1033.12 439.695 1020.31 C 444.735 1011.05 451.469 1008.72 461.064 1005.99 C 457.498 997.144 448.998 984.486 440.719 979.351 C 424.245 969.132 415.202 983.7 408.05 985.248 C 405.102 984.16 405.059 983.949 403.087 981.355 C 401.282 971.641 413.818 967.404 421.219 964.246 z" fill="rgb(23,21,21)" transform="translate(0,0)"></path>
<path d="M 1076.43 964.196 C 1078.76 964.056 1081.77 963.788 1084.06 963.887 C 1091.58 964.214 1109.11 971.814 1108.66 980.462 C 1106.5 983.302 1106.27 983.291 1102.82 984.621 C 1099.35 984.215 1095.68 981.593 1092.63 979.655 C 1072.21 966.652 1056.19 991.277 1048.16 1007.24 C 1075.19 1011.42 1079.37 1032.21 1070.22 1054.64 C 1069.69 1055.5 1069.13 1056.33 1068.53 1057.14 C 1063.97 1063.35 1055.31 1071.8 1047.46 1065.98 C 1045.21 1053.94 1060.99 1051.83 1062.05 1044.83 C 1065.7 1020.8 1058.01 1019.88 1038.11 1018.85 C 1031.67 1018.52 1036.33 1003.61 1039.18 998.524 C 1047.83 983.088 1058.67 969.581 1076.43 964.196 z" fill="rgb(23,21,21)" transform="translate(0,0)"></path>
<path d="M 604.442 848.206 C 618.961 846.766 632.052 847.934 645.615 853.65 C 651.915 856.305 673.303 867.413 668.909 876.129 C 667.873 876.857 663.251 877.841 662.779 877.529 C 645.189 865.879 635.779 859.661 613.905 859.007 C 600.762 860.058 594.023 862.114 582.554 868.783 C 575.189 873.065 567.374 883.746 560.35 884.516 C 556.982 883.25 558.405 884.233 556.067 881.269 C 553.398 864.718 591.494 850.935 604.442 848.206 z" fill="rgb(23,21,21)" transform="translate(0,0)"></path>
<path d="M 884.721 848.297 C 912.033 845.646 934.55 854.358 952.524 875.994 C 953.911 877.664 953.147 880.271 952.595 882.005 L 950.232 883.121 C 941.768 882.417 933.168 872.245 925.702 867.968 C 921.867 865.77 918.899 864.476 914.834 862.756 C 895.009 857.015 875.34 858.542 857.863 870.176 C 852.041 874.051 851.726 878.995 844.129 877.69 C 840.839 874.941 839.806 870.177 843.057 867.069 C 854.546 856.088 869.231 850.701 884.721 848.297 z" fill="rgb(23,21,21)" transform="translate(0,0)"></path>
<path d="M 587.123 520.819 C 650.938 397.007 813.818 402.921 922.373 458.227 C 1024.16 510.085 1095 604.083 1128.79 711.999 C 1154.27 793.663 1161.44 881.715 1166.52 966.669 C 1167.93 990.703 1169.15 1014.75 1170.19 1038.8 C 1171.7 1071.81 1171.67 1112.52 1185.84 1142.71 C 1204.82 1183.15 1224.15 1204.06 1228.42 1250.87 C 1231.76 1283.85 1225.55 1317.08 1210.54 1346.63 C 1190.52 1384.81 1156.09 1413.41 1114.89 1426.1 C 1078.52 1437.58 1044.43 1436.01 1007.02 1435.92 L 929.053 1435.84 C 920.11 1434.93 904.843 1435.18 895.421 1435.06 C 894.958 1410.43 895.694 1385.61 895.25 1360.82 C 895.622 1350.16 895.3 1337.44 895.317 1326.61 C 969.123 1271.89 1002.49 1219.19 1018.81 1127.79 C 1051.61 1136.91 1079.45 1127.29 1102.63 1102.75 C 1136.65 1066.73 1146.55 1011.62 1132.35 964.822 C 1121.88 930.343 1092.78 901.223 1056.49 922.962 C 1047.92 928.081 1042.46 934.092 1035.72 941.289 C 1035.84 918.172 1035.41 895.055 1034.43 871.959 C 959.625 840.506 906.272 770.9 869.061 701.357 C 860.092 684.594 852.728 665.688 843.513 649.545 L 842.966 648.597 C 775.992 626.648 700.392 624.204 633.763 648.756 C 593.335 665.135 564.87 681.618 536.731 716.291 C 513.527 744.884 506.473 769.06 496.949 804.146 C 484.508 849.977 475.29 893.155 475.883 941.169 C 464.678 928.96 448.626 915.331 431.57 915.048 C 388.809 914.339 372.7 970.537 372.158 1004.7 C 371.578 1041.26 384.329 1076.3 409.303 1102.73 C 433.269 1127.41 457.202 1135.56 490.57 1128.63 C 503.075 1209.92 543.396 1280.56 612.889 1326.17 L 613.107 1359.69 L 613.025 1407.58 C 613.033 1413.33 613.398 1429.88 612.469 1434.68 L 611.267 1435.64 C 562.772 1437.87 508.191 1434.54 458.544 1436.2 L 451.007 1435.57 C 428.931 1433.73 410.069 1431.17 389.195 1423.48 C 316.197 1396.59 274.764 1329.21 281.241 1252.2 C 282.798 1233.18 287.563 1214.57 295.334 1197.15 C 302.942 1180.33 313.485 1164.76 321.549 1147.74 C 337.577 1113.92 337.48 1083.13 338.959 1046.6 C 339.938 1020.88 341.18 995.159 342.683 969.458 C 349.829 843.525 371.682 645.551 472.625 557.873 C 503.391 531.15 541.519 516.828 582.832 520.336 C 584.267 520.458 585.698 520.619 587.123 520.819 z" fill="rgb(166,108,40)" transform="translate(0,0)"></path>
<path d="M 633.763 648.756 C 634.184 625.002 645.3 599.432 662.483 582.899 C 680.197 565.749 704.11 556.518 728.752 557.318 C 776.344 558.502 816.537 594.514 836.658 635.294 C 838.714 639.461 841.453 644.291 842.966 648.597 C 775.992 626.648 700.392 624.204 633.763 648.756 z" fill="rgb(105,69,35)" transform="translate(0,0)"></path>
<path d="M 451.007 1435.57 C 440.95 1429.25 429.521 1423.65 420.063 1416.95 C 384.13 1391.78 358.746 1354.24 348.773 1311.51 C 342.907 1286.06 344.124 1259.16 349.812 1233.6 C 350.967 1228.41 352.66 1222.87 357.729 1220.39 C 361.491 1220.64 359.955 1219.9 362.509 1222.63 C 365.075 1230.57 360.016 1244.83 358.732 1252.76 C 347.331 1323.17 389.015 1394.02 453.673 1422.29 C 457.32 1423.89 460.125 1425.16 461.667 1428.95 C 460.902 1432.51 460.477 1433.08 458.544 1436.2 L 451.007 1435.57 z" fill="rgb(69,58,53)" transform="translate(0,0)"></path>
<path d="M 726.616 490.399 C 761.551 485.152 804.679 500.573 833.225 520.277 C 923.82 582.81 938.909 701.899 1021.03 771.021 C 1041.11 788.436 1062.8 801.922 1088.44 809.578 C 1094.53 811.397 1111.16 815.399 1109.61 823.318 C 1102.15 829.362 1086.79 822.104 1078.51 819.129 C 1041.84 805.957 1014.76 783.207 988.137 755.4 C 938.982 699.997 918.46 631.877 869.964 570.879 C 809.729 495.114 704.42 470.815 634.577 551.922 C 629.134 558.242 621.384 581.498 612.737 580.687 C 611.122 579.383 609.073 578.128 609.23 575.613 C 609.805 566.382 623.597 547.009 629.201 540.125 C 654.138 509.493 688.201 494.313 726.616 490.399 z" fill="rgb(69,58,53)" transform="translate(0,0)"></path>
<path d="M 1076.17 1222.8 C 1082.27 1225.21 1083.93 1230.72 1085.26 1236.82 C 1105.03 1327.75 1046.95 1413.16 958.195 1434.44 C 955.226 1433.72 952.343 1431.86 950.903 1429.13 C 952.206 1422.26 961.795 1420.52 967.964 1418.76 C 1035.12 1399.59 1081.93 1332.12 1077.14 1262.59 C 1076.37 1251.39 1072.92 1240.19 1071.71 1229.01 C 1071.46 1226.73 1074.62 1224.28 1076.17 1222.8 z" fill="rgb(69,58,53)" transform="translate(0,0)"></path>
<path d="M 428.751 1224.53 C 430.735 1224.72 432.42 1225.03 434.375 1225.36 C 435.116 1226.03 435.856 1226.7 436.596 1227.37 C 437.212 1231.73 434.917 1243.86 434.247 1248.22 C 429.194 1281.06 433.136 1308.86 448.159 1338.73 C 465.973 1375.21 496.11 1402.07 534.031 1416.51 C 541.939 1419.53 556.048 1419.67 559.573 1426.93 C 559.443 1430.57 559.087 1431 556.97 1434.02 C 552.624 1433.92 548.685 1433.3 544.468 1432.23 C 468.1 1412.88 412.85 1335.13 421.192 1256.55 C 422.214 1246.93 423.708 1232.97 428.751 1224.53 z" fill="rgb(69,58,53)" transform="translate(0,0)"></path>
<path d="M 1147.76 1219.64 C 1160.18 1220 1158.83 1233.45 1161.04 1242.98 C 1176.04 1307.91 1144.83 1378.48 1091.1 1416.25 C 1080.36 1423.81 1068.34 1429.48 1056.58 1435.25 C 1052.24 1435.43 1051.04 1435.03 1048.32 1431.61 C 1047.25 1423.31 1053.61 1423.03 1059.36 1420.46 C 1131.07 1388.45 1171.39 1301.53 1145.13 1226.48 C 1144.24 1223.93 1146.38 1221.71 1147.76 1219.64 z" fill="rgb(69,58,53)" transform="translate(0,0)"></path>
<path d="M 574.636 600.168 C 579.809 599.579 580.785 599.268 584.5 601.857 C 585.858 605.088 585.848 603.544 584.889 606.628 C 578.869 612.956 558.001 616.662 547.782 621.676 C 490.873 649.598 467.89 702.536 447.208 756.946 C 444.614 758.817 444.772 758.738 441.556 758.759 C 437.684 755.844 437.785 751.962 439.149 747.489 C 459.753 679.894 502.204 615.818 574.636 600.168 z" fill="rgb(69,58,53)" transform="translate(0,0)"></path>
<path d="M 574.849 1469.25 C 583.602 1461.62 601.31 1455.28 612.788 1452.42 C 608.399 1467.94 602.322 1478.06 589.401 1487.85 C 607.871 1531.25 645.562 1567.76 682.892 1595.45 C 697.78 1606.7 713.392 1616.96 729.627 1626.15 C 732.463 1627.74 742.669 1632.99 743.796 1635.22 L 745.499 1634.54 C 749.67 1636.51 750.324 1637.1 753.803 1640.17 L 755.749 1640.05 C 769.27 1670.42 779.303 1692.72 798.939 1719.65 C 798.919 1753.35 796.948 2041.97 800.375 2048 L 648.766 2048 L 274.889 2048 L 271.607 2048 L 74.0207 2048 C 78.6891 1998.76 85.9626 1949.81 95.8108 1901.34 C 104.003 1860.62 109.644 1829.51 127.857 1791.69 C 174.48 1694.88 278.61 1647.9 373.889 1611.96 C 392.167 1605.07 410.87 1600.22 429.183 1593.81 C 471.745 1529.76 506.297 1502.78 574.849 1469.25 z" fill="rgb(69,58,53)" transform="translate(0,0)"></path>
<path d="M 574.849 1469.25 C 583.602 1461.62 601.31 1455.28 612.788 1452.42 C 608.399 1467.94 602.322 1478.06 589.401 1487.85 C 607.871 1531.25 645.562 1567.76 682.892 1595.45 C 697.78 1606.7 713.392 1616.96 729.627 1626.15 C 732.463 1627.74 742.669 1632.99 743.796 1635.22 L 745.499 1634.54 C 749.67 1636.51 750.324 1637.1 753.803 1640.17 L 755.749 1640.05 C 769.27 1670.42 779.303 1692.72 798.939 1719.65 C 798.919 1753.35 796.948 2041.97 800.375 2048 L 648.766 2048 C 614.236 1945.66 588.078 1840.69 570.55 1734.11 C 568.817 1723.84 562.557 1690.01 563.414 1681.75 C 560.539 1676.11 557.229 1655.6 560.597 1650.12 C 555.789 1637.14 555.36 1628.75 554.303 1615.02 C 550.527 1565.96 552.581 1515.52 574.669 1470.67 C 574.729 1470.2 574.789 1469.72 574.849 1469.25 z" fill="rgb(222,214,202)" transform="translate(0,0)"></path>
<path d="M 574.849 1469.25 C 583.602 1461.62 601.31 1455.28 612.788 1452.42 C 608.399 1467.94 602.322 1478.06 589.401 1487.85 C 607.871 1531.25 645.562 1567.76 682.892 1595.45 C 697.78 1606.7 713.392 1616.96 729.627 1626.15 C 732.463 1627.74 742.669 1632.99 743.796 1635.22 L 745.499 1634.54 C 749.67 1636.51 750.324 1637.1 753.803 1640.17 C 736.248 1688.55 704.433 1734.7 667.62 1770.43 C 647.052 1790.39 648.758 1794.87 628.259 1771.69 C 604.335 1744.63 579.606 1714.23 563.414 1681.75 C 560.539 1676.11 557.229 1655.6 560.597 1650.12 C 555.789 1637.14 555.36 1628.75 554.303 1615.02 C 550.527 1565.96 552.581 1515.52 574.669 1470.67 C 574.729 1470.2 574.789 1469.72 574.849 1469.25 z" fill="rgb(222,214,202)" transform="translate(0,0)"></path>
<path d="M 743.796 1635.22 L 745.499 1634.54 C 749.67 1636.51 750.324 1637.1 753.803 1640.17 C 736.248 1688.55 704.433 1734.7 667.62 1770.43 C 647.052 1790.39 648.758 1794.87 628.259 1771.69 C 604.335 1744.63 579.606 1714.23 563.414 1681.75 C 560.539 1676.11 557.229 1655.6 560.597 1650.12 C 583.875 1699.38 608.491 1734.81 646.725 1773.91 C 692.15 1734.95 720.422 1689.45 743.796 1635.22 z" fill="rgb(23,21,21)" transform="translate(0,0)"></path>
<path d="M 738.073 1839.5 C 755.136 1837.18 770.894 1849.01 773.436 1866.04 C 775.978 1883.07 764.36 1898.98 747.364 1901.74 C 736.17 1903.56 724.863 1899.22 717.766 1890.37 C 710.669 1881.53 708.88 1869.55 713.085 1859.02 C 717.289 1848.48 726.836 1841.03 738.073 1839.5 z" fill="rgb(23,21,21)" transform="translate(0,0)"></path>
<path d="M 271.607 2048 C 267.573 2037.67 264.541 2009.96 262.028 1997.31 C 256.472 1968.47 249.485 1939.92 239.918 1912.12 C 236.46 1902.07 232.685 1892.69 228.631 1882.95 C 224.888 1873.96 213.361 1856.37 214.43 1847.11 C 216.165 1844.4 214.997 1845.33 218.094 1844.29 C 222.933 1845.75 224.153 1848.58 226.54 1853.03 C 253.644 1903.41 267.308 1959.13 276.531 2015.23 C 277.986 2024.08 280.717 2034.84 279.764 2043.74 C 279.563 2045.62 276.541 2047.42 274.889 2048 L 271.607 2048 z" fill="rgb(23,21,21)" transform="translate(0,0)"></path>
<path d="M 411.133 1607.58 C 414.576 1609.04 415.737 1609.5 417.613 1612.57 C 418.256 1617.38 412.443 1626.4 409.992 1630.87 C 387.97 1671.05 374.04 1715.47 362.116 1759.74 C 372.125 1761.22 382.037 1761.79 392.088 1763.27 C 413.369 1766.54 434.4 1771.27 455.036 1777.41 C 462.247 1779.59 479.852 1783.82 481.913 1791.44 C 480.385 1796.27 448.429 1815.86 442.48 1819.96 C 423.175 1833.47 404.292 1847.58 385.857 1862.25 C 412.056 1902.54 435.672 1938.84 463.478 1978.41 C 471.94 1990.58 480.605 2002.6 489.47 2014.48 C 495.023 2021.92 508.832 2037.83 509.167 2045.84 C 505.56 2046.64 504.907 2047 501.377 2046.38 C 495.363 2042.04 483.962 2025.31 478.774 2018.46 C 446.763 1976.22 416.724 1932.19 388.462 1887.37 C 383.031 1878.76 376.863 1869.13 372.475 1859.99 C 390.008 1841.47 443.902 1805.16 465.416 1792.22 C 440.667 1784.14 417.683 1778.11 391.945 1773.84 C 382.55 1772.28 358.451 1771.72 351.691 1768.05 C 350.735 1766.41 350.163 1765.2 350.273 1763.22 C 350.787 1753.94 354.82 1742.29 357.572 1733.25 C 368.532 1697.24 380.472 1661.79 398.39 1628.56 C 402.05 1621.77 405.888 1613.15 411.133 1607.58 z" fill="rgb(23,21,21)" transform="translate(0,0)"></path>
<path d="M 896.128 1451.39 C 911.029 1455.4 921.383 1461.14 934.195 1469.68 C 995.853 1499.15 1044.08 1532.29 1079.2 1593.29 C 1098.41 1599.82 1118.03 1605.42 1136.96 1612.32 C 1229.53 1646.09 1336.71 1697.34 1381.34 1790.84 C 1412.36 1855.81 1427.92 1975.63 1435.33 2048 L 856.263 2048 L 808.526 2048 L 800.375 2048 C 796.948 2041.97 798.919 1753.35 798.939 1719.65 C 779.303 1692.72 769.27 1670.42 755.749 1640.05 C 759.064 1636.31 762.048 1635.27 766.506 1633.25 C 825.887 1600.26 892.263 1553.31 919.557 1488.6 C 907.002 1477.55 901.116 1467.26 896.128 1451.39 z" fill="rgb(69,58,53)" transform="translate(0,0)"></path>
<path d="M 896.128 1451.39 C 911.029 1455.4 921.383 1461.14 934.195 1469.68 C 937.086 1481.18 945.005 1494.48 948.396 1507.32 C 958.018 1543.75 958.944 1580.57 955.8 1617.98 C 955.183 1625.72 954.005 1638.62 951.349 1645.65 C 952.954 1652.65 949.391 1675.26 946.335 1681.91 C 945.172 1683.86 944.426 1684.99 943.588 1687.1 L 945.647 1691.14 C 934.526 1765.88 918.72 1839.86 898.322 1912.62 C 889.81 1942.58 880.829 1972.41 871.381 2002.09 C 866.643 2016.84 860.541 2033.43 856.263 2048 L 808.526 2048 L 800.375 2048 C 796.948 2041.97 798.919 1753.35 798.939 1719.65 C 779.303 1692.72 769.27 1670.42 755.749 1640.05 C 759.064 1636.31 762.048 1635.27 766.506 1633.25 C 825.887 1600.26 892.263 1553.31 919.557 1488.6 C 907.002 1477.55 901.116 1467.26 896.128 1451.39 z" fill="rgb(222,214,202)" transform="translate(0,0)"></path>
<path d="M 896.128 1451.39 C 911.029 1455.4 921.383 1461.14 934.195 1469.68 C 937.086 1481.18 945.005 1494.48 948.396 1507.32 C 958.018 1543.75 958.944 1580.57 955.8 1617.98 C 955.183 1625.72 954.005 1638.62 951.349 1645.65 C 926.588 1698.69 903.253 1732.63 862.719 1774.41 C 816.515 1729.76 789.205 1693.16 766.506 1633.25 C 825.887 1600.26 892.263 1553.31 919.557 1488.6 C 907.002 1477.55 901.116 1467.26 896.128 1451.39 z" fill="rgb(222,214,202)" transform="translate(0,0)"></path>
<path d="M 755.749 1640.05 C 759.064 1636.31 762.048 1635.27 766.506 1633.25 C 789.205 1693.16 816.515 1729.76 862.719 1774.41 C 903.253 1732.63 926.588 1698.69 951.349 1645.65 C 952.954 1652.65 949.391 1675.26 946.335 1681.91 C 945.172 1683.86 944.426 1684.99 943.588 1687.1 C 924.961 1718.23 906.601 1746.64 880.787 1772.43 C 875.647 1777.56 870.36 1784.61 863.497 1786.82 C 854.064 1786.48 817.351 1743.89 810.077 1734.18 L 810.453 1931.45 C 810.487 1944.38 811.88 2042.33 808.526 2048 L 800.375 2048 C 796.948 2041.97 798.919 1753.35 798.939 1719.65 C 779.303 1692.72 769.27 1670.42 755.749 1640.05 z" fill="rgb(23,21,21)" transform="translate(0,0)"></path>
<path d="M 946.335 1681.91 C 946.533 1685.04 946.16 1688.05 945.647 1691.14 L 943.588 1687.1 C 944.426 1684.99 945.172 1683.86 946.335 1681.91 z" fill="rgb(215,205,195)" transform="translate(0,0)"></path>
<path d="M 1094 1609.41 C 1099.92 1609.59 1101.73 1612.72 1104.59 1617.67 C 1128.62 1659.22 1144.67 1705.01 1156.5 1751.38 C 1157.89 1756.82 1159.24 1761.46 1158.09 1766.98 C 1155.58 1769.31 1098.52 1777.75 1090.39 1779.49 C 1074.66 1782.74 1059.16 1787.07 1044.02 1792.44 C 1068.78 1808.05 1116.99 1839.35 1136.53 1860.45 C 1131.77 1869.78 1121.75 1885.06 1116.01 1894.3 C 1092.25 1932.2 1067 1969.14 1040.31 2005.05 C 1031.04 2017.77 1021.17 2031.78 1011.15 2043.96 C 1009.64 2045.8 1006.5 2046.86 1004.24 2047.61 C 1002.07 2046.01 1001.98 2046.12 1000.61 2043.65 C 1000.47 2038.02 1016.66 2018.21 1020.87 2012.52 C 1057.28 1963.78 1091.52 1913.45 1123.49 1861.68 C 1110.93 1851.16 1027.27 1793.68 1026.29 1791.23 C 1026.59 1790.18 1026.95 1788.15 1027.79 1787.69 C 1056.78 1771.98 1117.91 1762.72 1146.8 1759.59 C 1137.83 1726.79 1128.73 1694.75 1115.01 1663.44 C 1111.13 1654.61 1106.92 1645.94 1102.38 1637.44 C 1098.97 1631.13 1094.33 1623.39 1091.2 1616.84 C 1090.04 1614.4 1092.61 1611.52 1094 1609.41 z" fill="rgb(23,21,21)" transform="translate(0,0)"></path>
<path d="M 1289.33 1843.51 C 1293.04 1843.85 1293.7 1845.06 1295.39 1847.89 C 1295.75 1854.38 1291.47 1860.69 1288.61 1866.31 C 1266.29 1910.24 1255.21 1958.29 1245.61 2006.29 C 1243.9 2014.79 1241.05 2042.5 1237.61 2047.87 C 1234.38 2047.65 1233.1 2047.48 1229.94 2046.74 C 1226.93 2042.97 1230.72 2027.66 1231.54 2022.83 C 1240.63 1969.51 1252.77 1914.31 1276.49 1865.38 C 1279.79 1858.57 1284.45 1849.19 1289.33 1843.51 z" fill="rgb(23,21,21)" transform="translate(0,0)"></path>
<metadata><recraft-signature>{"signed_by": "recraft", "signature_b64": "823FOuaBnT3QYZPnbUsQEjIK15qWsms6mNcYh5t0mE7rMhyRqCy7Bshu4gsUDq4emjBtbUFtjV01icV35A+NAA==", "signing_algo": "Ed25519", "generation_timestamp": 1779108832, "identifier": "1e17a04c-2f7b-4919-908c-7d5b8e30705f"}</recraft-signature></metadata></svg>