<svg xmlns="http://www.w3.org/2000/svg" height="1216" preserveAspectRatio="none" style="display: block;" version="1.1" viewBox="0 0 1509 2048" width="896">
<path d="M 729.078 0 L 796.589 0 C 822.835 3.58656 845.824 5.3172 872.429 10.6125 C 966.226 29.281 1077.25 86.7649 1115.56 179.972 C 1184.93 207.324 1240.33 285.38 1269.52 351.395 C 1321.55 469.07 1317.28 577.207 1315.83 701.736 C 1316.22 711.368 1316.05 720.39 1315.9 730.026 C 1354.58 743.952 1386.08 772.776 1403.38 810.071 C 1421.59 848.585 1423.65 892.777 1409.13 932.823 C 1396.26 968.183 1366.67 1001.62 1332.21 1017.05 C 1317.72 1023.53 1307.59 1025.83 1292.3 1029.02 C 1259.96 1132.47 1196.69 1223.52 1111 1289.89 C 1108.75 1291.62 1106.7 1293.07 1104.38 1294.69 L 1103.92 1295.07 C 1092.87 1304.33 1078.07 1321.24 1066.14 1332.16 C 1028.11 1367.02 972.626 1404.45 923.87 1421.79 C 923.819 1430.93 924.224 1473.95 923.159 1480.79 L 923.256 1481.61 C 923.134 1495.24 922.799 1510.67 923.339 1524.22 C 943.118 1530.53 964.343 1537.31 984.344 1542.8 C 977.308 1571.79 971.473 1588.49 956.694 1614.5 C 924.825 1670.57 872.956 1715.16 809.745 1731.68 C 753.692 1746.11 694.214 1737.89 644.171 1708.81 C 580.241 1671.11 543.901 1613.3 525.825 1542.75 C 543.356 1538.96 568.859 1529.95 586.259 1524.2 C 585.8 1490.22 586.652 1456.44 586.172 1422.6 C 514.748 1391.87 456.825 1353.25 404.698 1294.92 C 321.535 1235.39 246.202 1128.36 218.292 1030.02 C 216.99 1028.49 193.413 1023.28 188.139 1021.28 C 92.4871 985.082 62.169 864.481 121.951 783.798 C 143.057 755.312 162.532 742.763 196.021 728.636 C 188.22 522.188 190.414 389.262 323.444 215.422 C 401.896 114.182 512.609 42.8132 637.209 13.1608 C 674.022 4.66333 694.239 4.63212 729.078 0 z" fill="rgb(235,167,127)" transform="translate(0,0)"></path>
<path d="M 729.078 0 L 796.589 0 C 822.835 3.58656 845.824 5.3172 872.429 10.6125 C 966.226 29.281 1077.25 86.7649 1115.56 179.972 C 1184.93 207.324 1240.33 285.38 1269.52 351.395 C 1321.55 469.07 1317.28 577.207 1315.83 701.736 C 1315 711.041 1315.07 720.213 1315 729.548 C 1295.33 723.078 1277.69 719.873 1256.73 722.861 C 1257.25 731.017 1258.17 741.078 1258.07 749.105 C 1257.68 762.783 1256.96 776.266 1254.76 789.796 C 1251.87 808.413 1247.6 826.835 1243.29 845.134 C 1238.76 864.344 1217.58 865.151 1214.35 846.535 C 1207.56 807.372 1201.58 767.768 1190.15 729.624 C 1184.8 711.772 1173.24 698.369 1163.23 682.966 C 1155.3 670.726 1148.07 658.037 1141.6 644.964 C 1102.63 565.259 1082.32 477.73 1082.19 389.01 C 1082.11 364.287 1084.15 338.779 1086.32 314.164 L 1084.97 313.806 C 1081.14 318.326 1072.85 337.145 1068.87 343.697 C 1056 365.177 1040.97 384.527 1023.37 402.366 C 929.89 497.101 795.858 520.771 672.423 554.232 C 554.654 586.157 431.5 628.825 340.188 713.373 C 332.719 720.288 322.792 733.531 314.545 738.524 C 304.824 775.966 300.138 813.691 292.741 851.498 C 290.517 862.863 270.301 864.524 266.303 848.479 C 261.396 828.789 258.632 809.198 256.041 789.071 C 254.53 777.471 254.116 760.911 254.128 749.22 C 254.661 740.621 255.343 732.03 256.172 723.454 C 231.279 720.116 219.818 722.506 196.021 728.636 C 188.22 522.188 190.414 389.262 323.444 215.422 C 401.896 114.182 512.609 42.8132 637.209 13.1608 C 674.022 4.66333 694.239 4.63212 729.078 0 z" fill="rgb(95,62,13)" transform="translate(0,0)"></path>
<path d="M 1088.7 286.307 L 1090.55 290.595 C 1089.44 295.814 1087.72 310.177 1086.32 314.164 L 1084.97 313.806 C 1081.14 318.326 1072.85 337.145 1068.87 343.697 C 1056 365.177 1040.97 384.527 1023.37 402.366 C 929.89 497.101 795.858 520.771 672.423 554.232 C 554.654 586.157 431.5 628.825 340.188 713.373 C 332.719 720.288 322.792 733.531 314.545 738.524 C 327.222 693.978 349.511 660.721 382.749 628.925 C 563.784 455.746 947.636 502.755 1088.7 286.307 z" fill="rgb(218,128,94)" transform="translate(0,0)"></path>
<path d="M 1088.7 286.307 L 1089.67 284.644 C 1090.11 283.864 1090.53 282.937 1091.4 282.584 C 1092.55 283.05 1090.76 289.54 1090.55 290.595 L 1088.7 286.307 z" fill="rgb(212,109,79)" transform="translate(0,0)"></path>
<path d="M 587.152 1422.99 C 608.947 1429.37 626.75 1437.21 650.152 1442.63 C 747.008 1465.05 831.221 1457.16 922.887 1421.92 C 922.751 1439.35 922.006 1463.89 923.159 1480.79 L 923.256 1481.61 C 876.195 1513.08 839.752 1526.8 782.239 1532.33 C 721.471 1538.18 634.561 1522.27 586.861 1481.67 C 587.228 1462.11 587.325 1442.55 587.152 1422.99 z" fill="rgb(212,109,79)" transform="translate(0,0)"></path>
<path d="M 1225.88 1020.45 C 1248.28 1028.39 1268.51 1031.85 1292.3 1029.02 C 1259.96 1132.47 1196.69 1223.52 1111 1289.89 L 1109.94 1285.92 C 1122.83 1271.62 1136.96 1250.04 1147.27 1233.8 C 1189.24 1167.6 1213.36 1097.61 1225.88 1020.45 z" fill="rgb(95,62,13)" transform="translate(0,0)"></path>
<path d="M 218.292 1030.02 C 248.179 1028.44 251.038 1031.35 283.461 1020.45 C 292.112 1096.16 323.879 1176.75 364.924 1240.65 C 372.371 1252.24 380.54 1262.75 388.897 1273.63 C 393.68 1279.85 401.181 1288.51 404.698 1294.92 C 321.535 1235.39 246.202 1128.36 218.292 1030.02 z" fill="rgb(95,62,13)" transform="translate(0,0)"></path>
<path d="M 1258.07 749.105 C 1295.48 752.982 1327.9 763.834 1352.74 794.09 C 1365.86 810.072 1374.94 828.372 1378.56 848.797 C 1379.73 855.441 1382.27 861.386 1376.89 866.607 C 1373.05 867.488 1374.43 867.711 1371.04 866.467 C 1367.57 862.406 1361.22 848.089 1357.92 842.132 C 1342.09 813.558 1310.58 791.291 1277.55 788.708 C 1269.94 788.179 1262.29 788.544 1254.76 789.796 C 1256.96 776.266 1257.68 762.783 1258.07 749.105 z" fill="rgb(218,128,94)" transform="translate(0,0)"></path>
<path d="M 256.041 789.071 C 228.041 786.546 208.346 790.909 184.769 806.764 C 161.781 822.222 151.819 843.427 138.902 866.572 C 135.409 867.769 136.906 867.666 133.295 866.716 C 120.801 854.248 146.452 809.663 155.254 798.356 C 181.83 764.218 213.368 753.986 254.128 749.22 C 254.116 760.911 254.53 777.471 256.041 789.071 z" fill="rgb(218,128,94)" transform="translate(0,0)"></path>
<path d="M 1109.94 1285.92 L 1111 1289.89 C 1108.75 1291.62 1106.7 1293.07 1104.38 1294.69 C 1105.3 1291.01 1107.52 1288.84 1109.94 1285.92 z" fill="rgb(147,96,51)" transform="translate(0,0)"></path>
<path d="M 585.301 1149.47 C 591.473 1150 618.18 1166.37 627.902 1170.41 C 645.646 1177.9 664.028 1183.77 682.826 1187.95 C 746.824 1202.35 813.688 1196.92 874.529 1172.4 C 882.093 1169.38 889.532 1166.05 896.828 1162.42 C 903.338 1159.15 913.309 1151.65 919.21 1150.71 C 922.21 1151.96 921.07 1150.95 922.591 1154.01 C 922.689 1165.58 903.911 1189.36 896.579 1198.73 C 809.72 1298.64 680.412 1292.7 601.639 1185.83 C 595.471 1177.47 581.24 1159.84 585.301 1149.47 z" fill="rgb(212,109,79)" transform="translate(0,0)"></path>
<path d="M 543.623 674.432 C 558.458 673.032 580.779 677.001 593.742 683.837 C 620.58 697.988 632.445 715.073 641.707 742.534 C 604.227 726.588 565.441 725.258 525.381 726.229 C 498.734 728.153 472.324 733.202 447.278 742.834 C 443.074 744.451 439.712 745.856 435.232 746.694 C 432.5 745.428 433.476 746.423 432.337 743.49 C 432.949 736.212 441.554 724.345 446.426 719.242 C 473.448 690.936 505.321 677.03 543.623 674.432 z" fill="rgb(218,128,94)" transform="translate(0,0)"></path>
<path d="M 946.4 675.325 C 982.29 669.263 1026.31 686.999 1052.43 711.621 C 1058.39 717.246 1081.33 739.199 1073.46 747.597 C 1069.23 747.363 1061.47 743.334 1056.92 741.55 C 1039.15 734.569 1022.12 730.804 1003.22 728.11 C 947.133 722.317 919.35 726.593 866.942 741.77 C 879.026 700.984 904.633 681.108 946.4 675.325 z" fill="rgb(218,128,94)" transform="translate(0,0)"></path>
<path d="M 546.945 821.302 C 571.183 818.428 593.218 835.601 596.351 859.807 C 599.483 884.013 582.546 906.23 558.374 909.62 C 542.508 911.846 526.669 905.376 516.898 892.678 C 507.127 879.98 504.931 863.011 511.148 848.245 C 517.364 833.478 531.035 823.189 546.945 821.302 z" fill="rgb(95,62,13)" transform="translate(0,0)"></path>
<path d="M 951.33 821.275 C 975.693 818.175 997.946 835.435 1001.01 859.802 C 1004.06 884.17 986.768 906.395 962.396 909.414 C 938.081 912.425 915.919 895.178 912.867 870.868 C 909.815 846.557 927.025 824.367 951.33 821.275 z" fill="rgb(95,62,13)" transform="translate(0,0)"></path>
<path d="M 659.856 1028.86 C 665.659 1031.08 679.039 1042.15 685.013 1045.8 C 733.999 1075.76 783.316 1073.67 829.921 1040.65 C 833.606 1038.04 844.84 1029.26 848.866 1029.12 L 849.449 1030.46 C 848.042 1037.9 844.937 1040.35 839.836 1045.86 C 826.118 1063.24 807.522 1077.63 785.98 1086.2 C 738.474 1105.1 682.517 1075.44 658.912 1033.08 C 658.026 1031.49 659.072 1030.44 659.856 1028.86 z" fill="rgb(212,109,79)" transform="translate(0,0)"></path>
<path d="M 0 2039.11 C 1.35063 2033.88 2.93609 2020.15 3.79339 2014.25 C 5.7794 2000.41 8.05615 1986.61 10.6221 1972.87 C 39.5582 1818.09 145.106 1665.32 297.982 1613.41 C 320.966 1605.61 345.036 1599.07 368.305 1591.79 L 525.825 1542.75 C 543.901 1613.3 580.241 1671.11 644.171 1708.81 C 694.214 1737.89 753.692 1746.11 809.745 1731.68 C 872.956 1715.16 924.825 1670.57 956.694 1614.5 C 971.473 1588.49 977.308 1571.79 984.344 1542.8 C 1032.67 1559.96 1083.34 1572.76 1132.05 1588.93 C 1161.24 1598.62 1192.57 1606.19 1221.25 1616.82 C 1372.57 1672.95 1471.09 1823.18 1499.85 1976.82 C 1502.17 1989.09 1504.2 2001.42 1505.93 2013.79 C 1506.58 2018.27 1508 2030.27 1509 2034.26 L 1509 2048 L 0 2048 L 0 2039.11 z" fill="rgb(241,217,128)" transform="translate(0,0)"></path>
<path d="M 796.589 0 L 1509 0 L 1509 2034.26 C 1508 2030.27 1506.58 2018.27 1505.93 2013.79 C 1504.2 2001.42 1502.17 1989.09 1499.85 1976.82 C 1471.09 1823.18 1372.57 1672.95 1221.25 1616.82 C 1192.57 1606.19 1161.24 1598.62 1132.05 1588.93 C 1083.34 1572.76 1032.67 1559.96 984.344 1542.8 C 964.343 1537.31 943.118 1530.53 923.339 1524.22 C 922.799 1510.67 923.134 1495.24 923.256 1481.61 L 923.159 1480.79 C 924.224 1473.95 923.819 1430.93 923.87 1421.79 C 972.626 1404.45 1028.11 1367.02 1066.14 1332.16 C 1078.07 1321.24 1092.87 1304.33 1103.92 1295.07 L 1104.38 1294.69 C 1106.7 1293.07 1108.75 1291.62 1111 1289.89 C 1196.69 1223.52 1259.96 1132.47 1292.3 1029.02 C 1307.59 1025.83 1317.72 1023.53 1332.21 1017.05 C 1366.67 1001.62 1396.26 968.183 1409.13 932.823 C 1423.65 892.777 1421.59 848.585 1403.38 810.071 C 1386.08 772.776 1354.58 743.952 1315.9 730.026 C 1316.05 720.39 1316.22 711.368 1315.83 701.736 C 1317.28 577.207 1321.55 469.07 1269.52 351.395 C 1240.33 285.38 1184.93 207.324 1115.56 179.972 C 1077.25 86.7649 966.226 29.281 872.429 10.6125 C 845.824 5.3172 822.835 3.58656 796.589 0 z" fill="rgb(254,254,254)" transform="translate(0,0)"></path>
<path d="M 0 0 L 729.078 0 C 694.239 4.63212 674.022 4.66333 637.209 13.1608 C 512.609 42.8132 401.896 114.182 323.444 215.422 C 190.414 389.262 188.22 522.188 196.021 728.636 C 162.532 742.763 143.057 755.312 121.951 783.798 C 62.169 864.481 92.4871 985.082 188.139 1021.28 C 193.413 1023.28 216.99 1028.49 218.292 1030.02 C 246.202 1128.36 321.535 1235.39 404.698 1294.92 C 456.825 1353.25 514.748 1391.87 586.172 1422.6 C 586.652 1456.44 585.8 1490.22 586.259 1524.2 C 568.859 1529.95 543.356 1538.96 525.825 1542.75 L 368.305 1591.79 C 345.036 1599.07 320.966 1605.61 297.982 1613.41 C 145.106 1665.32 39.5582 1818.09 10.6221 1972.87 C 8.05615 1986.61 5.7794 2000.41 3.79339 2014.25 C 2.93609 2020.15 1.35063 2033.88 0 2039.11 L 0 0 z" fill="rgb(254,254,254)" transform="translate(0,0)"></path>
<metadata><recraft-signature>{"signed_by": "recraft", "signature_b64": "reB8xlSCr3GTkVtJ+buleHl5xi5ZQZW+rggJSgQy3hObWV44/QS2PRN7rWbbbmF/qJVOhJQrKynqYOnO6Ev6Bg==", "signing_algo": "Ed25519", "generation_timestamp": 1779105409, "identifier": "70c255e1-7ba4-400c-9bf0-8c8948b40583"}</recraft-signature></metadata></svg>