<svg xmlns="http://www.w3.org/2000/svg" height="1216" preserveAspectRatio="none" style="display: block;" version="1.1" viewBox="0 0 1509 2048" width="896">
<defs>
	<linearGradient gradientUnits="userSpaceOnUse" id="Gradient1" x1="775.001" x2="727.616" y1="472.782" y2="707.573">
		<stop class="stop0" offset="0" stop-color="rgb(19,13,10)" stop-opacity="1"></stop>
		<stop class="stop1" offset="1" stop-color="rgb(48,31,24)" stop-opacity="1"></stop>
	</linearGradient>
</defs>
<path d="M 0 0 L 1509 0 L 1509 2048 L 0 2048 L 0 0 z" fill="rgb(253,252,251)" transform="translate(0,0)"></path>
<path d="M 705.799 111.747 C 709.773 110.372 723.138 110.56 728.055 110.565 C 772.4 112.114 807.316 121.524 844.747 145.495 C 893.484 176.705 932.123 229.446 943.504 286.343 C 952.028 328.962 958.002 348.771 984.923 383.482 C 1024.23 434.158 1011.66 517.284 964.079 558.648 C 944.687 576.387 927.655 584.987 902.646 592.727 C 885.248 618.034 861.952 637.341 831.014 643.189 C 828.986 643.568 826.952 643.918 824.913 644.237 C 824.82 668.657 819.519 697.847 846.738 707.102 C 864.615 713.18 882.953 718.767 900.925 724.472 L 1000.16 756.043 C 1039.67 769.01 1060.79 774.56 1093.67 801.105 C 1133.28 833.087 1147.46 860.136 1168.2 905.192 L 1195.14 964.341 L 1252.45 1089.13 C 1274.12 1136.52 1296.81 1183.36 1316.17 1231.69 C 1327.03 1258.79 1335.43 1269.69 1335.46 1301.38 C 1335.5 1338.38 1323.34 1373.13 1297.46 1399.72 C 1287.39 1409.95 1275.84 1418.62 1263.2 1425.43 C 1247.82 1433.69 1223.6 1441.46 1206.93 1448.22 C 1175.18 1461.1 1142.32 1473.1 1110.65 1486.04 C 1113.4 1501.41 1115.22 1519.99 1117.46 1535.76 L 1134.4 1654.6 C 1170.45 1647.9 1203.34 1652.74 1234.04 1673.85 C 1261.48 1692.79 1280.24 1721.88 1286.19 1754.69 C 1292.52 1789.68 1285.62 1825.17 1265.07 1854.46 C 1245.74 1882.14 1216.06 1900.86 1182.74 1906.38 C 1149.49 1911.82 1115.45 1903.65 1088.29 1883.72 C 1060.75 1863.58 1042.54 1833.15 1037.81 1799.37 C 1036.69 1791.91 1036.17 1782.15 1036.2 1774.54 C 1011.35 1776.96 986.526 1779.63 961.732 1782.56 L 927.347 1831.02 C 899.715 1869.76 901.871 1873.43 862.811 1845.31 L 847.64 1865.17 C 855.159 1880 858.215 1894.53 852.871 1910.83 C 848.584 1923.84 839.239 1934.58 826.943 1940.62 C 814.71 1946.64 800.555 1947.43 787.728 1942.81 C 774.957 1938.33 764.544 1928.88 758.867 1916.59 C 752.957 1903.93 752.345 1889.43 757.167 1876.32 C 762.085 1863.1 772.105 1852.42 784.977 1846.66 C 796.265 1841.68 805.037 1841.97 816.88 1843.47 C 821.622 1836.2 825.929 1830.67 831.244 1823.86 C 815.764 1813.98 806.585 1811.76 805.582 1791.93 C 680.312 1797.83 566.628 1784.45 443.39 1764.8 C 405.848 1758.81 360.786 1753.11 324.292 1745.72 C 336.522 1679.35 344.071 1606.76 354.98 1539.45 L 250.471 1514.34 C 221.719 1507.37 186.582 1501.3 161.057 1487.72 C 106.955 1458.96 80.9948 1393.18 94.606 1334.48 C 96.5631 1326.04 105.951 1305.91 103.563 1299.59 C 105.633 1291.71 123.072 1255.51 127.854 1245.18 L 178.483 1135.03 L 261.941 953.687 C 274.104 927.178 296.19 875.037 311.229 852.212 C 329.573 824.459 353.962 801.22 382.568 784.237 C 408.652 769.061 435.543 761.478 464.004 752.046 L 552.967 722.853 C 570.398 717.196 613.997 708.27 618.005 688.37 C 620.352 676.717 620.06 656.171 619.51 643.93 C 587.683 632.026 569.713 621.258 549.774 592.684 C 542.352 589.832 526.851 585.381 521.249 581.352 C 514.742 579.112 503.877 571.213 498.666 566.645 C 467.267 543.468 446.623 502.285 445.089 463.504 C 443.783 430.489 452.587 400.448 473.209 374.567 C 481.931 363.62 490.353 350.233 495.872 337.438 C 502.909 320.828 504.632 303.671 508.521 286.284 C 516.874 248.932 536.56 212.27 562.223 184.007 C 597.614 145.031 652.478 114.232 705.799 111.747 z" fill="rgb(17,10,7)" transform="translate(0,0)"></path>
<path d="M 705.799 111.747 C 709.773 110.372 723.138 110.56 728.055 110.565 C 732.15 113.408 743.323 113.177 748.795 113.702 C 837.143 122.167 915.007 190.07 938.584 274.984 C 944.937 297.864 946.682 323.072 957.51 344.965 C 966.75 364.866 978.636 377.819 989.726 395.737 C 1012.88 433.146 1010.55 489.386 987.152 526.534 C 967.512 557.722 937.815 580.28 901.963 589.942 C 877.528 618.98 865.963 633.712 825.018 641.786 C 823.186 643.227 824.224 642.945 822.014 643.048 C 821.172 643.287 820.33 643.526 819.488 643.765 C 812.416 652.834 805.95 663.312 798.074 671.415 C 762.86 707.645 712.35 716.732 667.677 692.179 C 652.714 683.956 641.882 671.997 631.85 658.482 C 629.416 655.203 624.961 648.227 622.238 645.786 C 621.458 644.509 620.689 643.225 619.931 641.935 C 613.158 638.279 605.212 635.478 598.171 632.135 C 576.415 621.801 563.493 609.818 551.276 589.601 C 541.847 588.28 531.687 583.86 522.565 580.426 L 521.249 581.352 C 514.742 579.112 503.877 571.213 498.666 566.645 C 467.267 543.468 446.623 502.285 445.089 463.504 C 443.783 430.489 452.587 400.448 473.209 374.567 C 481.931 363.62 490.353 350.233 495.872 337.438 C 502.909 320.828 504.632 303.671 508.521 286.284 C 516.874 248.932 536.56 212.27 562.223 184.007 C 597.614 145.031 652.478 114.232 705.799 111.747 z" fill="rgb(94,60,28)" transform="translate(0,0)"></path>
<path d="M 638.554 268.085 C 658.643 296.912 684.026 321.659 713.354 341.01 C 771.396 380.12 833.002 396.931 901.926 383.395 L 902.056 408.341 C 915.574 407.038 925.366 407.886 936.591 416.845 C 945.55 423.89 951.275 434.263 952.461 445.598 C 953.778 457.247 950.318 468.932 942.872 477.986 C 933.418 489.538 921.914 494.787 907.022 493.665 C 903.566 493.405 897.233 492.105 894.165 492.884 L 895.975 496.106 C 890.305 543.759 859.895 588.032 824.028 618.71 C 825.18 626.962 825.022 633.493 825.018 641.786 C 823.186 643.227 824.224 642.945 822.014 643.048 C 821.172 643.287 820.33 643.526 819.488 643.765 C 812.416 652.834 805.95 663.312 798.074 671.415 C 762.86 707.645 712.35 716.732 667.677 692.179 C 652.714 683.956 641.882 671.997 631.85 658.482 C 629.416 655.203 624.961 648.227 622.238 645.786 C 621.458 644.509 620.689 643.225 619.931 641.935 C 620.93 633.652 618.909 622.973 620.551 613.356 L 623.818 612.519 C 582.869 572.331 567.741 549.891 556.222 491.898 C 549.96 493.422 544.351 494.41 537.859 493.777 C 526.675 492.722 516.399 487.166 509.392 478.386 C 494.566 459.731 497.254 430.658 516.548 416.004 C 528.26 407.109 540.908 406.959 554.922 408.771 C 555.03 402.53 554.646 395.961 554.389 389.698 C 605.95 377.501 629.87 314.87 638.554 268.085 z" fill="rgb(223,160,130)" transform="translate(0,0)"></path>
<path d="M 894.165 492.884 L 895.975 496.106 C 890.305 543.759 859.895 588.032 824.028 618.71 C 825.18 626.962 825.022 633.493 825.018 641.786 C 823.186 643.227 824.224 642.945 822.014 643.048 C 821.172 643.287 820.33 643.526 819.488 643.765 C 812.416 652.834 805.95 663.312 798.074 671.415 C 762.86 707.645 712.35 716.732 667.677 692.179 C 652.714 683.956 641.882 671.997 631.85 658.482 C 629.416 655.203 624.961 648.227 622.238 645.786 C 621.458 644.509 620.689 643.225 619.931 641.935 C 620.93 633.652 618.909 622.973 620.551 613.356 L 623.818 612.519 C 630.386 617.574 636.692 622.126 643.752 626.45 C 756.923 695.764 872.941 607.91 894.165 492.884 z" fill="url(#Gradient1)" transform="translate(0,0)"></path>
<path d="M 790.64 538.795 C 790.977 539.151 791.584 540.484 791.842 540.992 C 787.815 556.739 773.639 576.11 760.562 585.716 C 725.502 611.47 692.564 596.67 669.211 564.44 C 663.191 555.362 659.679 547.09 655.732 537.139 C 695.855 574.764 749.984 576.582 790.64 538.795 z" fill="rgb(17,10,7)" transform="translate(0,0)"></path>
<path d="M 636.166 257.066 C 650.539 285.45 683.101 316.157 709.178 334.513 C 753.632 365.805 806.594 386.68 861.6 385.809 C 875.635 385.587 890.908 382.61 904.685 380.124 L 905.166 404.702 C 907.451 404.634 909.737 404.625 912.022 404.673 C 924.199 404.992 934.862 409.953 943.187 418.843 C 951.532 427.836 955.899 439.813 955.301 452.066 C 954.836 463.974 949.652 477.086 940.542 484.81 C 923.869 498.949 915.052 496.833 895.975 496.106 L 894.165 492.884 C 897.233 492.105 903.566 493.405 907.022 493.665 C 921.914 494.787 933.418 489.538 942.872 477.986 C 950.318 468.932 953.778 457.247 952.461 445.598 C 951.275 434.263 945.55 423.89 936.591 416.845 C 925.366 407.886 915.574 407.038 902.056 408.341 L 901.926 383.395 C 833.002 396.931 771.396 380.12 713.354 341.01 C 684.026 321.659 658.643 296.912 638.554 268.085 C 629.87 314.87 605.95 377.501 554.389 389.698 C 554.646 395.961 555.03 402.53 554.922 408.771 C 540.908 406.959 528.26 407.109 516.548 416.004 C 497.254 430.658 494.566 459.731 509.392 478.386 C 516.399 487.166 526.675 492.722 537.859 493.777 C 544.351 494.41 549.96 493.422 556.222 491.898 C 567.741 549.891 582.869 572.331 623.818 612.519 L 620.551 613.356 C 618.063 609.513 603.097 596.329 598.31 590.626 C 573.911 561.556 561.584 532.386 554.014 495.668 C 537.437 497.979 522.98 496.186 510.724 483.545 C 501.913 474.374 497.039 462.12 497.143 449.403 C 497.409 437.032 502.64 425.289 511.66 416.818 C 524.211 404.945 536.432 404.544 552.365 404.88 L 551.975 387.232 C 604.417 378.116 633.223 304.803 636.166 257.066 z" fill="rgb(17,10,7)" transform="translate(0,0)"></path>
<path d="M 498.666 566.645 C 467.267 543.468 446.623 502.285 445.089 463.504 C 443.783 430.489 452.587 400.448 473.209 374.567 C 481.931 363.62 490.353 350.233 495.872 337.438 C 502.909 320.828 504.632 303.671 508.521 286.284 C 516.874 248.932 536.56 212.27 562.223 184.007 C 597.614 145.031 652.478 114.232 705.799 111.747 L 706.018 113.03 C 702.455 114.351 699.747 113.876 696.048 114.445 C 655.107 120.74 617.776 137.932 585.933 164.635 C 584.484 165.755 578.132 170.546 577.697 171.874 C 565.552 184.099 554.372 195.288 544.814 209.567 C 529.917 231.611 518.246 256.655 512.206 282.612 C 508.219 300.338 506.774 318.192 499.566 335.069 C 492.894 350.691 485.583 363.848 474.623 376.978 C 455.913 399.393 446.321 432.822 447.548 461.776 C 448.92 494.194 462.056 529.615 486.253 551.996 C 489.077 554.615 498.402 563.191 498.666 566.645 z" fill="rgb(17,10,7)" transform="translate(0,0)"></path>
<path d="M 585.933 164.635 C 583.659 167.324 580.937 171.294 577.697 171.874 C 578.132 170.546 584.484 165.755 585.933 164.635 z" fill="rgb(67,42,18)" transform="translate(0,0)"></path>
<path d="M 622.238 645.786 C 624.961 648.227 629.416 655.203 631.85 658.482 C 641.882 671.997 652.714 683.956 667.677 692.179 C 712.35 716.732 762.86 707.645 798.074 671.415 C 805.95 663.312 812.416 652.834 819.488 643.765 C 820.33 643.526 821.172 643.287 822.014 643.048 C 823.1 673.613 815.613 703.72 853.694 712.453 C 846.155 749.379 827.824 778.962 795.95 799.948 C 766.974 819.234 731.458 826.052 697.4 818.868 C 662.402 811.713 631.765 790.755 612.412 760.73 C 602.921 746.24 596.673 729.871 594.094 712.742 C 629.562 700.085 621.688 676.945 622.238 645.786 z" fill="rgb(223,160,130)" transform="translate(0,0)"></path>
<path d="M 856.342 712.953 C 919.411 734.536 986.211 751.631 1048.33 775.879 C 1079.63 788.095 1113.63 818.864 1133.21 845.961 C 1152.53 872.685 1166.4 907.436 1180.13 937.889 L 1223.1 1031.84 L 1274.82 1144.32 C 1286.13 1168.69 1300.76 1198.67 1310.16 1223.25 C 1300.1 1227.25 1289.75 1231.78 1279.86 1236.19 C 1220.22 1262.82 1159.44 1287.5 1099.81 1314.05 C 1091.63 1296.71 1081.85 1277.06 1074.52 1259.59 C 1090.43 1256.7 1105.83 1251.53 1120.26 1244.23 C 1160.74 1223.91 1191.74 1190 1206.06 1146.8 C 1220.9 1103.04 1217.39 1055.14 1196.33 1014.02 C 1175.26 972.302 1138.57 940.599 1094.23 925.814 C 1020.36 901.786 930.696 931.01 906.028 1010.2 C 893.921 1017.22 883.989 1023.72 874.797 1034.45 C 858.621 1053.54 850.845 1078.35 853.234 1103.25 C 856.128 1136.76 874.721 1162.94 899.757 1183.96 C 862.781 1178.49 843.437 1192.72 813.703 1212.1 C 771.585 1190.12 747.292 1165.57 714.327 1131.82 C 714.107 1114.36 702.289 1095.7 682.101 1103.55 C 675.65 1106.05 671.88 1109.77 666.668 1114.3 C 659.906 1096.05 661.96 1081.06 662.764 1062.11 C 663.025 1055.97 659.486 1045.5 652.911 1043.63 C 638.326 1039.47 634.424 1054.31 630.424 1064.61 C 626.167 1060.03 617.021 1049.83 612.054 1047.46 C 594.411 1039.04 594.603 1056.63 588.507 1058.71 C 575.805 1061.65 578.964 1064.87 575.117 1072.07 C 571.523 1078.79 556.25 1073.23 559.829 1091.08 L 561.108 1097.46 C 559.036 1102.78 547.923 1104.45 549.605 1112.64 C 552.476 1126.61 567.682 1136.35 577.513 1146.22 C 584.574 1153.32 593.98 1161.49 601.913 1168.34 C 601.071 1169.24 600.254 1170.17 599.465 1171.11 C 590.817 1181.61 594.264 1195.88 604.807 1203.71 C 612.719 1209.59 616.336 1209.25 625.516 1207.88 C 638.646 1232.87 650.383 1249.37 672.095 1267.81 L 669.791 1270.27 C 652.148 1261.37 633.724 1254.11 614.751 1248.58 C 512.315 1219.47 442.932 1267.71 395.161 1351.74 C 392.097 1357.13 385.523 1372.61 381.419 1374.9 L 379.813 1374.04 C 378.003 1368.17 397.213 1228.38 399.683 1207.82 L 355.816 1295.03 C 345.446 1315.37 332.75 1338.77 323.53 1359.38 C 301.491 1352.38 271.074 1345.09 248.195 1338.76 C 200.89 1325.53 153.482 1312.66 105.974 1300.17 C 116.585 1274.33 130.612 1245.48 142.375 1219.85 L 211.471 1070.14 L 272.876 936.354 C 281.945 916.629 291.562 893.953 301.262 874.754 C 324.336 829.551 362.501 793.849 409.141 773.839 C 428.006 765.739 458.019 756.755 478.131 750.125 L 591.524 713.044 C 593.529 729.077 600.758 747.014 609.218 760.662 C 628.427 791.519 659.267 813.328 694.763 821.154 C 729.707 829.053 766.36 822.51 796.413 803.009 C 830.281 781.444 848.005 751.291 856.342 712.953 z" fill="rgb(252,166,16)" transform="translate(0,0)"></path>
<path d="M 1106.14 1487.96 L 1107.35 1488.5 C 1110.61 1494.57 1129.22 1636.42 1132.07 1655.26 C 1076.44 1668.5 1041.44 1716.35 1036.48 1771.92 C 1015.25 1773.09 985.614 1777.22 963.804 1779.38 C 976.902 1760.07 991.418 1741.26 1004.81 1722.11 C 1008.66 1716.62 1014.62 1707.3 1012.99 1700.27 C 1010.17 1688.07 995.829 1680.22 986.031 1673.61 C 991.876 1667.53 993.809 1664.7 998.457 1657.82 C 1010.13 1659.57 1019.58 1659.32 1030.49 1654.26 C 1043 1648.5 1052.61 1637.89 1057.13 1624.89 C 1061.81 1611.33 1060.88 1596.47 1054.55 1583.6 C 1025.95 1525.54 930.246 1565.57 967.947 1636.26 C 963.078 1642.16 959.617 1646.66 955.18 1652.86 C 946.099 1646.82 927.657 1633.07 917.942 1638.13 C 908.296 1643.16 888.774 1673.69 882.324 1682.87 L 847.169 1732.17 C 835.991 1747.88 815.528 1773.7 806.405 1789.07 C 750.701 1793.34 692.281 1790.64 636.658 1786.73 C 533.143 1775.89 430.031 1761.51 327.501 1743.61 C 329.891 1722.3 334.672 1696.7 337.854 1675.06 L 357.57 1540.25 C 391.06 1548.88 426.203 1556.48 459.97 1564.49 C 523.381 1580 586.893 1595.09 650.502 1609.76 C 677.649 1616.14 715.783 1626.16 742.994 1630.87 C 746.686 1631.51 791.091 1613 798.057 1610.19 L 900.535 1568.85 L 1106.14 1487.96 z" fill="rgb(252,166,16)" transform="translate(0,0)"></path>
<path d="M 1308.52 1226.89 L 1309.56 1227.01 C 1313.32 1229.5 1323.07 1253.25 1325.14 1258.79 C 1337.24 1291.11 1334.87 1329.37 1320.63 1360.63 C 1309.54 1385.1 1291.31 1405.66 1268.33 1419.59 C 1254.95 1427.76 1231.24 1435.73 1215.92 1441.7 L 1122.95 1478.13 L 888.457 1570.82 C 844.391 1588.36 797.75 1608.52 753.646 1624.86 C 738.448 1618.56 732.03 1602.47 745.983 1590.65 C 752.116 1585.46 762.018 1582.96 769.214 1579.39 C 786.213 1570.95 807.127 1564.46 823.476 1555.24 L 823.397 1553.82 C 816.76 1553.2 767.085 1578.47 756.074 1582.09 C 741.423 1586.91 713.859 1601.05 697.549 1593.6 C 685.834 1588.25 688.659 1573.1 694.534 1563.68 C 708.907 1559.09 818.35 1534.06 820.685 1530.88 L 821.373 1530.85 L 821.493 1531.49 L 822.033 1530.8 C 811.073 1530.12 728.314 1552.07 712.324 1556.06 C 697.176 1560.27 667.347 1571.69 668.062 1540.5 C 668.378 1526.68 691.02 1523.04 702.654 1519.57 C 728.975 1511.68 755.345 1503.96 781.762 1496.4 C 791.462 1493.63 814.118 1488.99 821.36 1483.66 C 818.488 1482.09 692.613 1519.58 677.323 1523.33 C 651.1 1514.45 652.287 1488.6 679.316 1482.14 C 688.709 1479.89 700.71 1475.77 710.277 1472.93 C 739.579 1464.16 768.927 1455.55 798.319 1447.09 C 805.557 1445.03 832 1438.16 835.085 1435 C 855.408 1412.17 807.061 1397.53 789.036 1389.01 C 773.206 1381.53 748.527 1351.93 774.086 1339.24 C 792.696 1336.41 825.663 1358.43 842.302 1363.38 C 870.981 1371.91 916.563 1395.7 945.473 1384.5 C 975.66 1372.79 1005.49 1358 1034.75 1345.43 L 1308.52 1226.89 z" fill="rgb(223,160,130)" transform="translate(0,0)"></path>
<path d="M 108.158 1303.45 C 117.244 1305.2 131.98 1309.73 141.3 1312.27 L 206.614 1330.21 L 378.887 1377.1 C 401.258 1383.37 503.91 1414.68 518.653 1412.32 C 546.932 1407.79 594.79 1374.53 617.442 1356.74 C 626.091 1349.95 633.942 1341.46 643.079 1335.43 C 646.189 1333.38 648.655 1332.16 652.467 1332.38 C 657.204 1332.66 661.622 1334.56 664.588 1338.33 C 669.142 1344.1 669.184 1350.98 668.266 1357.9 C 664.998 1382.52 647.796 1387.46 630.908 1400.86 C 627.25 1403.76 625.089 1406.22 624.734 1411.08 C 624.489 1414.44 625.764 1417.95 628.164 1420.34 C 630.907 1423.06 635.002 1423.33 638.654 1423.58 C 656.002 1424.77 674.442 1423.02 691.862 1422.71 C 722.268 1422.16 752.678 1421.88 783.089 1421.87 C 798.011 1421.8 813.029 1421.55 827.936 1421.64 C 830.606 1421.66 835.162 1421.99 836.727 1424.13 C 838.354 1426.35 837.912 1425.23 837.639 1428.05 C 831.569 1436.43 793.45 1445.29 781.632 1448.82 L 683.916 1477.87 C 680.932 1478.68 675.471 1479.89 672.84 1481.11 C 647.484 1492.84 650.909 1515.22 674.948 1525.33 C 667.063 1531.34 662.766 1539.05 665.649 1549.4 C 670.271 1566 679.614 1560.26 688.448 1564.89 C 690.294 1568.71 685.534 1579.86 688.056 1586.79 C 695.654 1607.67 724.767 1595.59 739.946 1591.13 C 734.721 1602.08 733.315 1612.54 743.114 1621.69 C 745.013 1623.46 747.612 1624.67 748.805 1626.85 C 740.067 1630.03 713.337 1621.76 703.753 1619.5 L 630.766 1602.29 L 397.392 1546.84 C 348.719 1535.44 300.112 1523.75 251.576 1511.78 C 231.466 1506.86 194.674 1499.19 176.675 1492.02 C 144.025 1478.86 118.031 1453.13 104.531 1420.61 C 87.1561 1379.35 92.1044 1343.23 108.158 1303.45 z" fill="rgb(223,160,130)" transform="translate(0,0)"></path>
<path d="M 877.504 1185.32 C 882.107 1184.68 898.002 1185.63 901.643 1187.3 C 910.825 1191.51 920.221 1197.53 929.591 1202.03 C 936.307 1205.25 951.66 1209.84 956.429 1213.3 C 989.123 1237.07 999.966 1256.63 1042.44 1261.98 C 1041.6 1288.55 1034.85 1326.48 1020.03 1348.79 C 1006.91 1354.76 945.411 1383.67 935.293 1384.15 C 893.17 1386.16 827.752 1354.34 788.321 1336.58 C 772.585 1329.49 756.118 1348.17 760.92 1362.28 C 770.481 1390.35 802.476 1396.53 825.549 1408.85 C 828.987 1410.69 833.79 1414.75 834.602 1418.34 C 830.531 1419.71 814.614 1418.9 809.378 1418.83 C 751.299 1418.07 692.935 1420.88 634.938 1420.36 C 626.812 1420.29 626.828 1408.95 627.831 1408.09 C 645.671 1393.36 659.193 1388.69 669.232 1366.67 C 680.016 1343.01 657.909 1316.61 637.955 1335.27 C 607.945 1363.33 575.994 1383.3 539.584 1402.42 C 511.047 1416.01 498.806 1407.23 469.871 1399.41 C 441.675 1391.87 413.542 1384.1 385.476 1376.09 C 412.577 1322.16 449.099 1270.94 507.878 1250.86 C 587.075 1224.29 663.849 1268.12 731.051 1306.03 C 784.846 1336.37 944.848 1362.58 977.377 1292.54 C 983.403 1279.7 983.872 1264.94 978.674 1251.73 C 969.993 1229.22 943.611 1212.18 919.604 1216.08 C 880.65 1222.42 855 1230.31 816.421 1213.22 C 837.304 1200.36 852.658 1188.79 877.504 1185.32 z" fill="rgb(253,252,251)" transform="translate(0,0)"></path>
<path d="M 1008.14 924.286 C 1008.9 924.476 1009.81 925.233 1010.02 925.948 C 1014.44 941.452 1020.03 953.573 1028.9 967.118 C 1053.42 1004.53 1087.06 1028.04 1131.06 1036.84 C 1103.04 1063.58 1090.83 1095.33 1088.79 1133.39 C 1109.58 1139.33 1122.92 1156.65 1118.81 1178.66 C 1116.97 1188.86 1111.1 1197.89 1102.52 1203.71 C 1092.14 1210.71 1081.67 1211.03 1069.83 1208.8 C 1048.62 1223.17 1038.2 1232.01 1035.78 1258.5 C 1027.54 1256.74 1023.72 1255.88 1015.68 1252.81 C 995.443 1243.49 977.673 1225.16 959.467 1212.27 C 950.955 1205.82 940.773 1203.98 931.097 1199.71 C 882.617 1178.31 844.773 1127 858.422 1072.33 C 865.86 1042.54 883.157 1027.05 908.29 1012.06 C 924.52 964.597 959.081 934.758 1008.14 924.286 z" fill="rgb(223,160,130)" transform="translate(0,0)"></path>
<path d="M 917.603 1073.78 C 920.554 1077.57 916.327 1079.63 914.567 1084.37 C 907.396 1103.7 913.322 1125.42 933.618 1133.49 C 944.991 1138.05 957.872 1136.82 968.169 1130.18 C 972.19 1127.58 975.816 1121.53 977.398 1126.42 C 938.657 1162.69 887.353 1114.77 917.603 1073.78 z" fill="rgb(17,10,7)" transform="translate(0,0)"></path>
<path d="M 986.204 1055.32 C 987.75 1056.49 988.708 1057.27 988.11 1059.47 C 981.546 1083.73 1004.06 1103 1027.36 1095.44 C 1030.67 1094.37 1030.4 1093.73 1032.25 1096.36 C 1005.47 1109.99 977.34 1086.49 986.204 1055.32 z" fill="rgb(17,10,7)" transform="translate(0,0)"></path>
<path d="M 924.891 1000.47 C 927.811 1002.75 926.746 1002.57 926.233 1006.51 C 923.435 1028.01 944.221 1042.04 963.952 1036.58 C 966.663 1035.82 967.543 1035.16 969.186 1037.29 C 945.541 1049.53 917.175 1028.86 924.891 1000.47 z" fill="rgb(17,10,7)" transform="translate(0,0)"></path>
<path d="M 712.953 1135.75 C 715.636 1136.33 738.249 1159.74 742.817 1163.98 C 781.146 1199.62 825.558 1233.45 881.278 1225.45 C 907.187 1221.73 933.258 1211.75 957.108 1228.06 C 979.747 1243.53 987.387 1276.52 970.292 1299.11 C 953.931 1320.76 930.318 1327.64 905.074 1331.72 C 865.489 1338.52 805.889 1331.9 768.448 1318.35 C 708.714 1296.74 656.141 1264.43 627.786 1205.88 C 653.871 1183.05 685.726 1158.27 712.953 1135.75 z" fill="rgb(253,252,251)" transform="translate(0,0)"></path>
<path d="M 1031.27 920.402 C 1067.7 915.852 1113.4 932.044 1142.53 953.781 C 1179.76 981.384 1204.45 1022.7 1211.11 1068.57 C 1217.22 1112.92 1205.5 1157.88 1178.52 1193.61 C 1152.21 1228.62 1111.11 1251.7 1067.9 1257.8 C 1059.66 1259.78 1047.23 1259.2 1038.59 1258.92 C 1038.69 1256.72 1038.89 1254.53 1039.19 1252.34 C 1041.99 1232.46 1055.22 1222.82 1070.04 1211.54 C 1091.19 1215.74 1111.12 1207.95 1119.44 1187.16 C 1123.64 1176.8 1123.51 1165.18 1119.08 1154.92 C 1113.33 1141.83 1104.45 1136.21 1091.8 1131.26 C 1094.6 1088.43 1106.72 1064.97 1137.01 1035.39 C 1073.09 1022.15 1031.5 985.034 1011.98 922.77 L 1031.27 920.402 z" fill="rgb(94,60,28)" transform="translate(0,0)"></path>
<path d="M 1219.28 1668.67 C 1243.22 1678.45 1265.53 1704.94 1275.63 1728.24 C 1288.98 1759.72 1289.43 1795.19 1276.86 1826.99 C 1263.11 1861.1 1239.17 1883.3 1205.86 1897.64 C 1188.14 1903.55 1177.5 1904.88 1159.28 1905.28 C 1146.87 1875.46 1144.01 1832.83 1147.45 1800.96 C 1153.43 1745.74 1176.34 1703.56 1219.28 1668.67 z" fill="rgb(252,166,16)" transform="translate(0,0)"></path>
<path d="M 1155.77 1654.4 C 1178.42 1652.7 1197.1 1658.33 1217.39 1667.09 C 1192.4 1687.12 1174.85 1707.83 1161.33 1737.27 C 1138.83 1786.26 1137.54 1855.15 1156.54 1905.39 C 1142.81 1904.23 1135.68 1902.78 1122.75 1898.5 C 1108.54 1893.56 1095.31 1886.17 1083.66 1876.65 C 1058.26 1855.56 1042.38 1825.16 1039.6 1792.27 C 1036.42 1758.36 1046.82 1724.58 1068.52 1698.33 C 1091 1671.5 1121.23 1657.31 1155.77 1654.4 z" fill="rgb(253,252,251)" transform="translate(0,0)"></path>
<path d="M 644.812 1045.91 C 661.926 1045.59 660.36 1058.98 659.574 1072.1 C 658.551 1089.19 658.688 1099.87 664.724 1115.95 L 603.691 1166.86 C 592.103 1156.2 580.585 1145.46 569.137 1134.65 C 563.397 1129.13 551.141 1118.92 552.921 1109.74 C 553.89 1104.74 561.602 1102.91 565.846 1100.27 C 566.263 1093.5 553.256 1084.61 570.622 1077.35 C 574.289 1075.82 576.328 1078.77 579.568 1080.4 C 578.301 1072.3 576.551 1068.53 583.662 1062.95 C 589.217 1061.87 588.554 1063.41 594.983 1064.53 L 596.174 1063.59 L 594.262 1057.73 C 598.491 1031.92 624.751 1061.98 631.581 1069.11 C 635.279 1059.89 637.153 1052 644.812 1045.91 z" fill="rgb(223,160,130)" transform="translate(0,0)"></path>
<path d="M 796.966 1845.98 C 823.508 1841.68 848.508 1859.72 852.778 1886.27 C 857.048 1912.82 838.968 1937.79 812.415 1942.03 C 785.912 1946.25 760.994 1928.22 756.732 1901.72 C 752.47 1875.22 770.475 1850.28 796.966 1845.98 z" fill="rgb(252,166,16)" transform="translate(0,0)"></path>
<path d="M 999.422 1559.95 C 1025.61 1554.26 1051.42 1570.97 1056.96 1597.18 C 1062.5 1623.4 1045.66 1649.12 1019.41 1654.52 C 993.365 1659.87 967.887 1643.19 962.389 1617.17 C 956.891 1591.16 973.438 1565.59 999.422 1559.95 z" fill="rgb(252,166,16)" transform="translate(0,0)"></path>
<path d="M 684.159 1105.23 C 698.072 1103.28 705.608 1108 710.147 1120.84 C 711.918 1125.84 713.219 1131.62 708.383 1135.42 C 680.711 1157.12 652.394 1184.47 624.207 1204.92 C 620.838 1206.06 616.936 1206.84 613.418 1205.92 C 607.816 1204.46 601.85 1197.43 599.254 1192.39 C 596.89 1187.8 596.317 1182.47 598.214 1177.61 C 601.052 1170.35 674.387 1109.76 684.159 1105.23 z" fill="rgb(253,252,251)" transform="translate(0,0)"></path>
<path d="M 393.706 1226.92 L 394.374 1227.85 C 392.167 1258.37 386.248 1289.92 382.896 1320.45 C 380.989 1337.84 378.496 1356.16 375.656 1373.41 C 363.388 1369.83 350.586 1366.5 338.23 1363.09 L 326.214 1359.75 C 345.942 1318.28 372.168 1267.58 393.706 1226.92 z" fill="rgb(253,252,251)" transform="translate(0,0)"></path>
<path d="M 838.242 1749.68 C 842.626 1750.32 851.894 1754.3 856.229 1756.19 C 884.552 1768.55 915.55 1791.44 934.413 1816.07 C 929.399 1823.83 921.476 1834.09 915.903 1841.8 C 892.215 1816.28 853.798 1784.01 819.098 1776.25 C 825.349 1767.3 831.731 1758.44 838.242 1749.68 z" fill="rgb(253,252,251)" transform="translate(0,0)"></path>
<path d="M 898.153 1665.77 C 936.51 1676.7 967.61 1702.78 995.045 1730.69 C 988.663 1739.4 982.327 1748.61 976.073 1757.45 C 974.001 1756.37 958.729 1739.53 955.219 1736.39 C 930.954 1714.7 909.952 1703.1 880.278 1690.95 C 886.193 1682.31 891.797 1674.09 898.153 1665.77 z" fill="rgb(252,166,16)" transform="translate(0,0)"></path>
<path d="M 816.78 1778.87 C 847.051 1780.91 893.929 1822.63 914.391 1844.33 C 910.448 1850.27 908.905 1852.67 903.943 1857.65 C 899.772 1859.92 893.252 1862.68 888.94 1859.67 C 864.935 1842.96 840.103 1827.38 816.334 1810.35 C 802.822 1800.67 808.164 1789.42 816.78 1778.87 z" fill="rgb(252,166,16)" transform="translate(0,0)"></path>
<path d="M 858.561 1721.06 C 895.144 1734.13 929.596 1757.41 953.91 1787.84 C 948.226 1796.45 941.887 1805.15 935.9 1813.6 C 913.303 1783.64 875.125 1758.87 839.751 1747.08 C 845.199 1738.88 852.673 1729.17 858.561 1721.06 z" fill="rgb(252,166,16)" transform="translate(0,0)"></path>
<path d="M 878.441 1693.55 C 907.974 1699.55 954.679 1736.65 973.906 1760.31 C 967.926 1767.71 961.494 1777.51 955.991 1785.48 C 951.354 1781.25 943.674 1771.9 937.83 1766.33 C 915.471 1745.29 888.966 1729.15 860.011 1718.94 L 878.441 1693.55 z" fill="rgb(253,252,251)" transform="translate(0,0)"></path>
<path d="M 918.896 1640.17 C 922.99 1639.77 926.858 1639.76 930.67 1641.47 C 944.973 1647.88 1005.78 1686.41 1009.75 1698.58 C 1011.28 1703.25 1010.58 1707.88 1008.12 1712.07 C 1005.87 1715.89 999.099 1726.62 995.235 1727.67 C 974.198 1702.71 931.732 1671.49 899.704 1663.66 C 905.208 1655.59 911.072 1645.82 918.896 1640.17 z" fill="rgb(253,252,251)" transform="translate(0,0)"></path>
<path d="M 1070.88 1260.56 C 1073.18 1263.38 1081.61 1313.96 1083.18 1321.42 C 1067.31 1328.89 1049.88 1335.96 1033.69 1343.02 L 1024.2 1347.18 C 1038.8 1319.19 1043.88 1293.42 1044.92 1261.94 C 1055.34 1262.12 1060.74 1261.73 1070.88 1260.56 z" fill="rgb(252,166,16)" transform="translate(0,0)"></path>
<path d="M 833.987 1825.92 C 840.467 1830.53 853.455 1839.03 860.358 1843.36 C 855.664 1849.72 851.089 1856.24 846.388 1862.56 C 843.123 1861.02 841.457 1857.74 838.081 1854.85 C 831.06 1848.84 827.576 1847.71 819.574 1844.21 C 824.28 1837.03 828.591 1832.34 833.987 1825.92 z" fill="rgb(253,252,251)" transform="translate(0,0)"></path>
<path d="M 969.329 1638.82 C 981.493 1649.88 979.166 1650.47 995.488 1657.45 C 991.531 1662.71 987.999 1667.19 983.726 1672.25 C 974.054 1665.5 968.334 1660.9 957.654 1654.6 C 961.481 1648.95 965.176 1644.21 969.329 1638.82 z" fill="rgb(253,252,251)" transform="translate(0,0)"></path>
<path d="M 1080.63 1279.26 C 1085.29 1290 1092.32 1304.38 1097.74 1314.8 C 1093.95 1316.36 1089.44 1318.36 1085.64 1320.04 C 1082.89 1306.98 1080.86 1294.41 1078.53 1281.32 L 1080.63 1279.26 z" fill="rgb(253,252,251)" transform="translate(0,0)"></path>
<path d="M 672.095 1267.81 C 678.789 1273.54 677.246 1274.36 669.791 1270.27 L 672.095 1267.81 z" fill="rgb(224,142,39)" transform="translate(0,0)"></path>
<path d="M 1078.53 1281.32 L 1078.08 1278.9 C 1077.93 1278.11 1077.1 1275.4 1077.79 1274.6 C 1079.15 1274.55 1080.23 1278.16 1080.63 1279.26 L 1078.53 1281.32 z" fill="rgb(253,252,251)" transform="translate(0,0)"></path>
<path d="M 1340.1 1439.32 C 1372.11 1439.22 1383.59 1459.97 1396.02 1485.95 C 1431.02 1559.2 1429.3 1646.05 1406.45 1722.59 C 1397.45 1752.72 1386.01 1768.03 1352.77 1765.9 C 1344.21 1764.4 1336.07 1761.08 1328.9 1756.16 C 1288.94 1728.11 1319.62 1687.69 1327.38 1654.36 C 1333.78 1627.92 1334.92 1600.48 1330.73 1573.6 C 1328.79 1561.1 1319.88 1537.88 1312.79 1527.52 C 1296.79 1504.11 1279.68 1488.9 1300.9 1460.71 C 1310.56 1447.87 1323.84 1441.36 1340.1 1439.32 z" fill="rgb(17,10,7)" transform="translate(0,0)"></path>
<path d="M 1317.91 1691.14 C 1346.15 1696.8 1379.57 1704.25 1407.5 1708.38 C 1402.53 1725.36 1400.38 1739.01 1388.52 1752.19 C 1365.72 1773.75 1327.44 1763.02 1314.96 1735.39 C 1307.76 1719.45 1312.03 1706.44 1317.91 1691.14 z" fill="rgb(252,166,16)" transform="translate(0,0)"></path>
<path d="M 1338.07 1442.33 C 1361.66 1440.77 1373.91 1450.94 1384.57 1470.9 C 1366.91 1480.85 1347.84 1493.29 1330.5 1504.15 L 1309.93 1517.43 C 1304.19 1510.54 1295.52 1501.4 1294.32 1492.47 C 1290.63 1465.19 1314.03 1446.66 1338.07 1442.33 z" fill="rgb(252,166,16)" transform="translate(0,0)"></path>
<path d="M 1385.18 1473.05 C 1392.34 1480.11 1403.43 1511.14 1406.8 1521.52 C 1382.08 1530.54 1356.43 1537.85 1332.06 1548 L 1328.68 1549.28 C 1325.42 1547.85 1315.49 1525.53 1311.84 1519.53 C 1335.99 1503.57 1361.67 1488.95 1385.18 1473.05 z" fill="rgb(253,252,251)" transform="translate(0,0)"></path>
<path d="M 1410.21 1616.45 L 1420.3 1616.13 C 1419.98 1631.75 1419.4 1648.37 1416.67 1663.74 C 1396.11 1660.33 1374.48 1657.52 1353.78 1654.48 C 1346.07 1653.39 1338.34 1652.4 1330.6 1651.51 C 1333.12 1640.65 1334.75 1629.6 1335.46 1618.47 C 1360.33 1617.46 1385.3 1617.25 1410.21 1616.45 z" fill="rgb(252,166,16)" transform="translate(0,0)"></path>
<path d="M 1415.93 1565.39 C 1419.69 1571.35 1420.1 1605.82 1420.21 1613.81 C 1393.74 1613.93 1365.18 1615.01 1338.75 1616.01 L 1337.01 1615.64 C 1335.75 1613.3 1335.12 1586.82 1334.87 1582.12 C 1361.92 1576.69 1388.94 1571.11 1415.93 1565.39 z" fill="rgb(253,252,251)" transform="translate(0,0)"></path>
<path d="M 1330.24 1653.88 C 1358.38 1658.5 1387.94 1662 1416.32 1666.23 C 1415.25 1672.66 1410.46 1702.6 1406.79 1705.79 C 1377.44 1700.34 1348.14 1694.68 1318.87 1688.8 C 1323.15 1677.33 1326.95 1665.68 1330.24 1653.88 z" fill="rgb(253,252,251)" transform="translate(0,0)"></path>
<path d="M 1405.35 1524.99 L 1406.32 1524.75 L 1408.13 1525.85 C 1412.16 1534.84 1414.72 1552.57 1416.4 1562.59 C 1391.11 1568.29 1364.69 1573.44 1339.24 1578.76 C 1336.31 1579.25 1337.66 1579.44 1335.04 1578.37 C 1332.51 1571.84 1330.09 1560.25 1327.96 1552.67 C 1355.13 1541.28 1378.3 1534.83 1405.35 1524.99 z" fill="rgb(252,166,16)" transform="translate(0,0)"></path>
<metadata><recraft-signature>{"signed_by": "recraft", "signature_b64": "2IW3j72HH0x7Bx2txY08dIk9PK9dM1TJhxESyxSRbtoPBI9urL4nKUIfYRGQDRKYOyG/7KqU2j5M6EgKOMhqDg==", "signing_algo": "Ed25519", "generation_timestamp": 1779106711, "identifier": "6f942805-2c2a-413a-b0e0-13a11268ccb0"}</recraft-signature></metadata></svg>