<svg xmlns="http://www.w3.org/2000/svg" height="1216" preserveAspectRatio="none" style="display: block;" version="1.1" viewBox="0 0 1509 2048" width="896">
<path d="M 0 0 L 715.447 0 L 781.591 0 L 1509 0 L 1509 1974.38 L 1509 2007.74 L 1509 2048 L 1472.06 2048 L 36.1327 2048 L 0 2048 L 0 2009.09 L 0 1977.53 L 0 0 z" fill="rgb(192,142,118)" transform="translate(0,0)"></path>
<path d="M 580.607 1442.05 C 578.679 1447.36 576.762 1452.85 574.663 1458.07 C 565.026 1484.3 555.549 1512.8 545.485 1538.5 C 543.776 1545.25 536.739 1559.47 533.764 1566.67 C 577.857 1615.6 625.942 1663.47 670.104 1712.49 C 684.743 1728.74 713.744 1756.27 726.28 1772.84 C 731.357 1776.19 749.162 1797.45 751.739 1802.84 L 752.989 1803.95 C 754.728 1803.49 754.722 1803.74 756.058 1802.76 C 758.761 1797.85 777.179 1776.57 781.648 1773.46 L 975.298 1565.98 C 970.33 1556.16 967.924 1547.3 964.046 1539.14 C 954.364 1513.2 945.643 1487.18 935.572 1461.27 C 934.175 1456.06 930.872 1447.57 928.99 1442.24 L 998.855 1463.94 C 1011.72 1467.92 1031.71 1473.4 1043.11 1479.24 C 1051.04 1492.43 1061.88 1519.02 1068.78 1534.02 C 1076.39 1550.57 1088.09 1573.46 1094.31 1590.06 C 1118.43 1590.52 1144.74 1590.33 1168.46 1594.32 C 1253.37 1608.62 1328.44 1648.67 1387.92 1710.36 C 1441.67 1766.67 1479.57 1836.2 1497.75 1911.89 C 1503.1 1934.24 1504.57 1953.87 1509 1974.38 L 1509 2007.74 L 1509 2048 L 1472.06 2048 L 36.1327 2048 L 0 2048 L 0 2009.09 L 0 1977.53 C 1.70875 1970.33 3.11678 1957.67 4.31872 1949.99 C 6.68361 1934.93 9.62567 1919.98 13.1384 1905.15 C 51.1361 1746.75 187.044 1612.75 350.957 1592.89 C 371.801 1590.36 394.136 1590.8 415.147 1590.72 C 416.375 1586.4 418.635 1581.45 420.519 1577.33 C 433.727 1548.4 446.231 1519.24 459.561 1490.36 C 465.76 1476.93 472.624 1476.68 485.593 1472.35 C 492.207 1470.14 499.02 1468.04 505.675 1465.92 L 580.607 1442.05 z" fill="rgb(229,205,179)" transform="translate(0,0)"></path>
<path d="M 928.99 1442.24 L 998.855 1463.94 C 1011.72 1467.92 1031.71 1473.4 1043.11 1479.24 C 1051.04 1492.43 1061.88 1519.02 1068.78 1534.02 C 1076.39 1550.57 1088.09 1573.46 1094.31 1590.06 C 1095.14 1593.04 1096.58 1597.69 1095.78 1600.54 C 1093.27 1609.48 1089.69 1618.82 1086.55 1627.52 L 1067.25 1680.92 C 1046.23 1739.42 1025.25 1800.06 1003.34 1858.1 C 988.128 1830.15 976.442 1811.44 952.172 1790.82 C 899.737 1746.26 833.232 1759.7 778.311 1790.54 C 771.858 1794.16 762.882 1799.95 756.058 1802.76 C 758.761 1797.85 777.179 1776.57 781.648 1773.46 L 975.298 1565.98 C 970.33 1556.16 967.924 1547.3 964.046 1539.14 C 954.364 1513.2 945.643 1487.18 935.572 1461.27 C 934.175 1456.06 930.872 1447.57 928.99 1442.24 z" fill="rgb(229,205,179)" transform="translate(0,0)"></path>
<path d="M 928.99 1442.24 L 998.855 1463.94 C 1011.72 1467.92 1031.71 1473.4 1043.11 1479.24 C 1051.04 1492.43 1061.88 1519.02 1068.78 1534.02 C 1076.39 1550.57 1088.09 1573.46 1094.31 1590.06 C 1095.14 1593.04 1096.58 1597.69 1095.78 1600.54 C 1093.27 1609.48 1089.69 1618.82 1086.55 1627.52 L 1067.25 1680.92 C 1046.23 1739.42 1025.25 1800.06 1003.34 1858.1 C 988.128 1830.15 976.442 1811.44 952.172 1790.82 C 899.737 1746.26 833.232 1759.7 778.311 1790.54 C 771.858 1794.16 762.882 1799.95 756.058 1802.76 C 758.761 1797.85 777.179 1776.57 781.648 1773.46 C 782.243 1773.38 782.838 1773.3 783.434 1773.22 C 794.3 1762.92 817.945 1745.25 829.948 1739.14 C 897.512 1704.71 962.304 1728.51 996.226 1794.82 C 1006.64 1771.69 1018.13 1736.02 1026.82 1711.42 L 1070.5 1591.14 C 1063.04 1572.48 1033.78 1499.01 1018.35 1489.52 C 1002.81 1479.95 955.301 1466.77 935.572 1461.27 C 934.175 1456.06 930.872 1447.57 928.99 1442.24 z" fill="rgb(187,160,129)" transform="translate(0,0)"></path>
<path d="M 989.74 1509.74 L 990.257 1550.01 C 985.19 1555.32 979.842 1560.27 975.298 1565.98 C 970.33 1556.16 967.924 1547.3 964.046 1539.14 C 972.584 1528.18 980.144 1519.78 989.74 1509.74 z" fill="rgb(187,160,129)" transform="translate(0,0)"></path>
<path d="M 580.607 1442.05 C 578.679 1447.36 576.762 1452.85 574.663 1458.07 C 565.026 1484.3 555.549 1512.8 545.485 1538.5 C 543.776 1545.25 536.739 1559.47 533.764 1566.67 C 577.857 1615.6 625.942 1663.47 670.104 1712.49 C 684.743 1728.74 713.744 1756.27 726.28 1772.84 C 731.357 1776.19 749.162 1797.45 751.739 1802.84 C 742.733 1798.47 732.312 1790.85 722.887 1786.24 C 686.023 1768.21 638.017 1754.05 597.653 1767.57 C 551.63 1782.98 526.465 1819.24 505.356 1859.46 L 442.605 1683.3 C 433.33 1657.09 422.732 1630.41 414.211 1603.93 C 412.905 1599.87 414.023 1594.76 415.147 1590.72 C 416.375 1586.4 418.635 1581.45 420.519 1577.33 C 433.727 1548.4 446.231 1519.24 459.561 1490.36 C 465.76 1476.93 472.624 1476.68 485.593 1472.35 C 492.207 1470.14 499.02 1468.04 505.675 1465.92 L 580.607 1442.05 z" fill="rgb(229,205,179)" transform="translate(0,0)"></path>
<path d="M 580.607 1442.05 C 578.679 1447.36 576.762 1452.85 574.663 1458.07 C 568.876 1459.26 559.68 1462.82 554.084 1465.18 C 534.049 1473.63 511.19 1479 491.827 1488.47 C 479.258 1494.62 469.312 1521.15 463.75 1533.87 C 455.424 1552.95 447.316 1572.12 439.429 1591.38 C 446.241 1613.79 454.595 1636.17 462.475 1658.28 L 511.944 1795.25 C 552.169 1725.68 612.95 1702.32 686.516 1743.66 C 691.215 1746.3 727.313 1773.04 726.28 1772.84 C 731.357 1776.19 749.162 1797.45 751.739 1802.84 C 742.733 1798.47 732.312 1790.85 722.887 1786.24 C 686.023 1768.21 638.017 1754.05 597.653 1767.57 C 551.63 1782.98 526.465 1819.24 505.356 1859.46 L 442.605 1683.3 C 433.33 1657.09 422.732 1630.41 414.211 1603.93 C 412.905 1599.87 414.023 1594.76 415.147 1590.72 C 416.375 1586.4 418.635 1581.45 420.519 1577.33 C 433.727 1548.4 446.231 1519.24 459.561 1490.36 C 465.76 1476.93 472.624 1476.68 485.593 1472.35 C 492.207 1470.14 499.02 1468.04 505.675 1465.92 L 580.607 1442.05 z" fill="rgb(187,160,129)" transform="translate(0,0)"></path>
<path d="M 520.055 1509.65 C 527.627 1519.43 537.921 1528.69 545.485 1538.5 C 543.776 1545.25 536.739 1559.47 533.764 1566.67 C 528.724 1561.51 523.809 1556.22 519.025 1550.82 C 519.802 1536.7 519.932 1523.76 520.055 1509.65 z" fill="rgb(187,160,129)" transform="translate(0,0)"></path>
<path d="M 0 2009.09 C 12.7527 2035.56 7.95043 2034.23 36.1327 2048 L 0 2048 L 0 2009.09 z" fill="rgb(254,254,254)" transform="translate(0,0)"></path>
<path d="M 1509 2007.74 L 1509 2048 L 1472.06 2048 C 1495.21 2038.35 1501.62 2032.62 1509 2007.74 z" fill="rgb(254,254,254)" transform="translate(0,0)"></path>
<path d="M 760.161 1946.93 C 766.785 1945.47 773.713 1947.13 778.953 1951.44 C 784.194 1955.75 787.166 1962.22 787.017 1969 C 786.791 1979.23 779.574 1987.97 769.571 1990.12 C 757.659 1992.69 745.92 1985.13 743.326 1973.22 C 740.732 1961.32 748.263 1949.56 760.161 1946.93 z" fill="rgb(76,46,22)" transform="translate(0,0)"></path>
<path d="M 758.874 1850.15 C 770.704 1846.89 782.929 1853.89 786.106 1865.74 C 789.284 1877.59 782.199 1889.77 770.323 1892.86 C 758.569 1895.92 746.547 1888.92 743.401 1877.19 C 740.256 1865.46 747.165 1853.38 758.874 1850.15 z" fill="rgb(76,46,22)" transform="translate(0,0)"></path>
<path d="M 781.591 0 L 1509 0 L 1509 1974.38 C 1504.57 1953.87 1503.1 1934.24 1497.75 1911.89 C 1479.57 1836.2 1441.67 1766.67 1387.92 1710.36 C 1328.44 1648.67 1253.37 1608.62 1168.46 1594.32 C 1144.74 1590.33 1118.43 1590.52 1094.31 1590.06 C 1088.09 1573.46 1076.39 1550.57 1068.78 1534.02 C 1061.88 1519.02 1051.04 1492.43 1043.11 1479.24 C 1031.71 1473.4 1011.72 1467.92 998.855 1463.94 L 928.99 1442.24 C 928.806 1440.91 926.261 1432.67 925.742 1430.9 C 936.812 1423.62 949.186 1417.15 960.424 1409.32 C 986.084 1391.45 1011.75 1370.94 1034.75 1349.83 C 1118.06 1273.38 1168.87 1201.85 1191.46 1090.24 C 1213.15 1088.61 1234.29 1082.64 1253.62 1072.67 C 1338.61 1028.17 1387.16 895.408 1342.95 806.854 C 1323.18 767.273 1289.68 756.407 1250.63 777.792 C 1254.03 758.976 1256.63 735.414 1259.32 716.083 C 1264.81 678.05 1269.91 639.964 1274.65 601.829 C 1277.98 574.703 1281.39 547.711 1284.18 520.335 C 1293.33 430.728 1304.81 321.57 1230.76 254.64 C 1202.19 228.813 1173.76 219.365 1136.7 212.396 C 1133.33 211.475 1124.32 212.119 1118.38 210.46 L 1117.48 208.251 C 1117.68 206.897 1117.87 205.542 1118.05 204.185 C 1135.59 68.5085 958.66 18.3053 856.333 6.73572 C 831.374 3.91378 805.969 3.00572 781.591 0 z" fill="rgb(254,254,254)" transform="translate(0,0)"></path>
<path d="M 0 0 L 715.447 0 C 701.503 1.86722 683.466 2.39517 669.099 3.46685 C 651.832 4.89044 634.642 7.12362 617.585 10.159 C 499.598 29.9165 393.687 94.1863 321.684 189.721 C 275.698 249.528 243.337 318.662 226.866 392.285 C 213.214 450.994 216.447 482.825 225.144 541.724 C 230.25 576.303 233.557 613.643 238.295 648.749 C 241.78 673.962 245.082 699.2 248.201 724.461 C 250.22 740.421 252.166 758.949 255.125 774.616 C 217.097 755.259 182.122 773.106 164.338 809.825 C 141.487 857.006 147.973 913.199 164.139 961.374 C 180.645 1009.82 213.957 1053.6 260.686 1075.99 C 280.52 1085.49 296.595 1087.5 317.856 1090.64 C 328.117 1138.45 344.616 1186.62 371.153 1227.91 C 419.609 1303.3 504.54 1388.99 584.236 1430.45 C 583.387 1433.5 581.935 1439.45 580.607 1442.05 L 505.675 1465.92 C 499.02 1468.04 492.207 1470.14 485.593 1472.35 C 472.624 1476.68 465.76 1476.93 459.561 1490.36 C 446.231 1519.24 433.727 1548.4 420.519 1577.33 C 418.635 1581.45 416.375 1586.4 415.147 1590.72 C 394.136 1590.8 371.801 1590.36 350.957 1592.89 C 187.044 1612.75 51.1361 1746.75 13.1384 1905.15 C 9.62567 1919.98 6.68361 1934.93 4.31872 1949.99 C 3.11678 1957.67 1.70875 1970.33 0 1977.53 L 0 0 z" fill="rgb(254,254,254)" transform="translate(0,0)"></path>
<path d="M 715.447 0 L 781.591 0 C 805.969 3.00572 831.374 3.91378 856.333 6.73572 C 958.66 18.3053 1135.59 68.5085 1118.05 204.185 C 1117.87 205.542 1117.68 206.897 1117.48 208.251 C 1115.89 215.489 1114.62 223.924 1112.64 230.886 C 1093.83 296.979 1051.48 354.481 992.711 390.692 C 885.877 456.516 747.757 483.834 623.181 485.155 C 607.557 485.321 573.515 486.556 560.137 484.786 L 559.126 484.074 C 554.951 481.108 551.355 477.927 550.334 472.62 C 549.295 467.215 550.166 462.17 553.301 457.623 C 555.792 454.011 558.619 451.455 563.014 450.701 C 584.211 447.061 653.643 450.157 665.223 433.454 C 667.129 430.705 667.557 427.618 666.886 424.381 C 666.251 421.314 664.303 416.499 661.489 414.849 C 651.782 409.157 620.251 419.441 607.958 420.737 C 586.837 422.963 565.01 422.729 543.799 421.835 C 510.198 420.417 474.579 415.59 441.986 426.155 C 414.64 435.206 391.984 454.706 378.962 480.4 C 360.357 517.021 361.111 557.81 373.945 595.919 C 374.242 596.806 374.549 597.689 374.866 598.568 C 325.947 670.703 304.828 757.556 305.858 844.132 C 294.551 826.375 283.833 808.849 271.362 791.848 C 267.871 787.089 256.866 777.57 255.125 774.616 C 252.166 758.949 250.22 740.421 248.201 724.461 C 245.082 699.2 241.78 673.962 238.295 648.749 C 233.557 613.643 230.25 576.303 225.144 541.724 C 216.447 482.825 213.214 450.994 226.866 392.285 C 243.337 318.662 275.698 249.528 321.684 189.721 C 393.687 94.1863 499.598 29.9165 617.585 10.159 C 634.642 7.12362 651.832 4.89044 669.099 3.46685 C 683.466 2.39517 701.503 1.86722 715.447 0 z" fill="rgb(76,46,22)" transform="translate(0,0)"></path>
<path d="M 1136.7 212.396 C 1173.76 219.365 1202.19 228.813 1230.76 254.64 C 1304.81 321.57 1293.33 430.728 1284.18 520.335 C 1281.39 547.711 1277.98 574.703 1274.65 601.829 C 1269.91 639.964 1264.81 678.05 1259.32 716.083 C 1256.63 735.414 1254.03 758.976 1250.63 777.792 C 1235.75 791.775 1227.56 806.297 1216.82 823.433 C 1213.33 829 1208.25 837.495 1203.99 842.227 C 1203.17 775.709 1193.48 711.668 1165.7 650.52 C 1157.29 632.013 1146.43 615.783 1134.77 599.209 C 1137.42 591.847 1139.91 584.355 1141.69 576.911 C 1157.05 512.791 1124.69 442.894 1065.65 413.392 C 1049.44 405.293 1036.14 401.155 1018.7 397.045 C 1027.84 390.447 1034.68 386.765 1043.9 379.056 C 1085.49 344.26 1113.03 299.905 1128.21 248.014 C 1130.38 240.596 1134.42 215.391 1136.7 212.396 z" fill="rgb(76,46,22)" transform="translate(0,0)"></path>
<path d="M 916.257 1138.03 C 970.195 1134.37 895.045 1232.87 881.391 1246.47 C 808.645 1318.97 697.309 1316.42 625.136 1244.69 C 603.48 1222.59 587.099 1194.56 575.251 1166.02 C 572.649 1159.75 571.432 1153.42 574.204 1146.75 C 580.345 1131.97 606.136 1143.63 619.983 1147.13 C 696.31 1166.44 788.105 1164.96 865.598 1152.75 C 880.108 1150.46 902.286 1142.66 916.257 1138.03 z" fill="rgb(76,46,22)" transform="translate(0,0)"></path>
<path d="M 612.909 1172.33 C 680.006 1196.89 830.644 1196.09 896.97 1172.09 C 887.22 1190.3 878.707 1202.24 865.529 1217.93 C 852.446 1231.9 836.664 1245.56 819.245 1253.36 C 770.927 1274.98 712.837 1271.88 668.919 1241.18 C 642.379 1222.62 626.464 1201.45 612.909 1172.33 z" fill="rgb(254,254,254)" transform="translate(0,0)"></path>
<path d="M 222.775 800.211 C 262.112 799.919 280.92 851.98 287.295 883.826 C 273.75 885.995 266.501 892.638 262.938 906.064 C 259.548 918.836 260.667 936.115 267.548 947.679 C 273.236 957.239 279.363 959.193 289.697 961.805 C 287.565 962.216 285.439 962.663 283.322 963.145 C 265.037 967.372 265.877 975.583 256.204 991.144 C 254.295 987.533 257.024 972.494 257.848 968.064 C 237.232 958.875 229.241 940.703 227.491 919.251 C 226.629 889.789 245.04 866.856 276.038 873.274 C 266.812 861.096 246.422 832.475 231.262 831.577 C 202.339 829.864 186.321 884.141 182.801 905.818 C 178.181 869.771 176.974 809.23 222.775 800.211 z" fill="rgb(76,46,22)" transform="translate(0,0)"></path>
<path d="M 1222.42 884.05 C 1226.86 856.993 1234.88 830.965 1256.53 812.468 C 1274.83 796.827 1296.87 796.515 1312.46 815.999 C 1332.09 840.541 1329.94 874.133 1327.01 903.55 C 1320.3 877.109 1309.93 837.796 1279.99 830.632 C 1258.78 836.593 1246.26 856.089 1233.9 873.363 C 1291.55 863.517 1297.17 947.593 1251.68 967.711 C 1253.38 975.725 1254.03 979.062 1254.3 987.215 L 1250.84 986.717 C 1245.74 971.485 1236.17 965.866 1221.84 960.967 C 1226.05 960.008 1230.64 959.085 1234.23 956.341 C 1251.75 942.968 1253.15 911.139 1241.18 893.847 C 1236.08 886.496 1230.66 885.294 1222.42 884.05 z" fill="rgb(76,46,22)" transform="translate(0,0)"></path>
<path d="M 948.655 648.389 C 960.583 647.306 972.607 648.128 984.277 650.825 C 1022.68 659.304 1056.04 684.841 1076.94 717.912 C 1080.08 722.891 1085.45 733.179 1084.03 739.137 L 1082.33 740.164 C 1078 739.812 1076.27 737.577 1073.57 734.347 C 1061.34 719.726 1046.08 708.924 1029.76 699.072 C 989.184 677.609 947.897 678.708 906.69 697.314 C 901.88 699.485 896.521 703.232 891.291 704.32 C 887.516 705.087 883.591 704.288 880.416 702.106 C 872.957 696.98 870.431 683.142 876.646 677.179 C 894.422 660.125 925.023 650.797 948.655 648.389 z" fill="rgb(76,46,22)" transform="translate(0,0)"></path>
<path d="M 542.626 648.391 C 571.223 645.652 599.296 655.862 623.237 670.806 C 627.879 673.703 630.817 675.627 633.107 680.956 C 635.219 685.861 635.127 691.436 632.856 696.27 C 625.48 711.569 610.979 701.634 601.357 697.402 C 564.071 681.001 533.882 677.85 494.749 691.593 C 482.22 696.493 470.464 703.179 459.848 711.443 C 448.469 720.231 439.971 730.026 429.523 739.697 C 428.546 739.778 427.568 739.859 426.591 739.94 C 419.849 732.728 438.443 707.289 443.899 700.637 C 469.249 669.729 503.013 652.48 542.626 648.391 z" fill="rgb(76,46,22)" transform="translate(0,0)"></path>
<path d="M 613.606 1447.62 C 617.409 1448.12 620.669 1449.42 624.277 1450.66 C 641.51 1456.56 658.681 1462.87 676.459 1466.94 C 731.492 1480.13 788.964 1479.21 843.545 1464.26 C 859.952 1459.83 875.734 1453.69 892.048 1448.76 C 887.115 1453.38 881.38 1457.92 876.129 1462.25 C 793.964 1523.68 689.088 1515.66 613.606 1447.62 z" fill="rgb(76,46,22)" transform="translate(0,0)"></path>
<path d="M 949.543 777.198 C 971.759 773.364 992.877 788.265 996.71 810.481 C 1000.54 832.697 985.641 853.814 963.425 857.647 C 941.21 861.479 920.095 846.578 916.261 824.363 C 912.428 802.148 927.329 781.032 949.543 777.198 z" fill="rgb(76,46,22)" transform="translate(0,0)"></path>
<path d="M 544.737 777.303 C 567.026 773.334 588.278 788.292 592.064 810.613 C 595.85 832.934 580.719 854.062 558.368 857.666 C 536.274 861.227 515.441 846.308 511.699 824.244 C 507.956 802.18 522.704 781.226 544.737 777.303 z" fill="rgb(76,46,22)" transform="translate(0,0)"></path>
<path d="M 667.881 1004.42 C 667.417 1002.01 666.099 992.462 667.661 990.785 C 667.806 990.813 667.951 990.84 668.096 990.867 L 668.035 991.164 C 668.73 991.865 668.542 991.979 668.623 993.294 C 692.931 1044.2 754.443 1051.84 803.501 1031.88 C 822.432 1024.17 833.299 1007.41 842.082 989.665 C 840.322 1012.44 837.889 1033.12 818.965 1048.69 C 783.96 1077.48 713.457 1077.22 683.084 1041.28 C 675.038 1031.76 668.303 1016.8 667.881 1004.42 z" fill="rgb(76,46,22)" transform="translate(0,0)"></path>
<path d="M 667.881 1004.42 C 667.417 1002.01 666.099 992.462 667.661 990.785 C 667.806 990.813 667.951 990.84 668.096 990.867 L 668.035 991.164 C 668.73 991.865 668.542 991.979 668.623 993.294 C 668.073 997.43 668.15 1000.31 667.881 1004.42 z" fill="rgb(91,54,35)" transform="translate(0,0)"></path>
<path d="M 680.134 1307.65 C 726.64 1335.48 780.132 1336.51 826.271 1307.57 C 822.192 1315.01 820.274 1318.04 814.962 1324.64 C 807.269 1333.84 797.937 1341.53 787.441 1347.33 C 744.451 1370.84 701.921 1347.7 680.134 1307.65 z" fill="rgb(76,46,22)" transform="translate(0,0)"></path>
<path d="M 721.287 1080.7 C 722.408 1080.98 723.28 1081.1 724.165 1081.85 C 724.822 1082.42 725.16 1083.12 725.143 1083.99 C 725.068 1087.61 692.316 1122.38 687.388 1127.38 C 686.77 1126.93 683.204 1124.65 683.955 1123.46 C 693.66 1108.07 708.831 1093.91 721.287 1080.7 z" fill="rgb(76,46,22)" transform="translate(0,0)"></path>
<path d="M 696.168 1083.59 C 696.702 1083.9 700.43 1086.12 699.743 1087.08 C 690.303 1100.23 673.589 1119.87 662.17 1131.33 C 661.741 1130.98 657.622 1127.89 658.377 1126.96 C 669.537 1113.1 683.686 1096.3 696.168 1083.59 z" fill="rgb(76,46,22)" transform="translate(0,0)"></path>
<path d="M 835.396 1085.44 C 843.659 1087.25 869.37 1118.46 876.551 1126.26 C 877.161 1126.92 875.53 1129.94 875.25 1130.54 C 866.977 1129.11 842.5 1096.21 834.355 1089.45 C 833.825 1089.01 835.231 1085.86 835.396 1085.44 z" fill="rgb(76,46,22)" transform="translate(0,0)"></path>
<path d="M 806.723 1081.37 C 813.772 1083.41 841.195 1117.35 847.753 1124.53 C 848.258 1125.08 846.95 1127.87 846.706 1128.48 C 837.489 1126.32 813.762 1093.26 805.143 1085.54 C 804.584 1085.04 806.528 1081.74 806.723 1081.37 z" fill="rgb(76,46,22)" transform="translate(0,0)"></path>
<path d="M 667.47 1086.5 C 667.778 1086.71 672.095 1089.03 671.467 1090.08 C 664.39 1101.89 651.966 1111.05 642.921 1121.47 C 640.029 1124.8 638.201 1127.3 634.883 1130.41 C 626.74 1127.58 632.437 1123.25 636.706 1119.05 C 647.29 1108.63 656.968 1096.87 667.47 1086.5 z" fill="rgb(76,46,22)" transform="translate(0,0)"></path>
<path d="M 779.139 1090.3 C 788.543 1092.21 791.373 1107.76 801.684 1113.59 C 806.435 1116.28 818.753 1122.57 817.612 1127.86 L 817.336 1129.24 C 805.394 1127.86 777.256 1104.25 779.139 1090.3 z" fill="rgb(76,46,22)" transform="translate(0,0)"></path>
<path d="M 989.815 1116.42 C 1003.46 1123.33 1020.32 1148.72 1011.09 1162.54 C 1004.12 1159.21 1009.41 1150.96 1003.54 1140.46 C 996.069 1127.1 996.26 1130.3 987.317 1121.52 C 987.088 1119.86 988.527 1118.38 989.388 1117.1 L 989.815 1116.42 z" fill="rgb(76,46,22)" transform="translate(0,0)"></path>
<path d="M 518.636 1116.66 C 525.037 1121.53 518.457 1123.55 514.555 1128.14 C 509.187 1134.45 504.965 1140.44 503.9 1148.95 C 503.12 1155.19 503.942 1157.51 500.542 1162.64 L 499.894 1162.09 C 494.745 1157.78 496.634 1152.7 497.743 1146.47 C 500.005 1133.77 507.539 1123.17 518.636 1116.66 z" fill="rgb(76,46,22)" transform="translate(0,0)"></path>
<path d="M 742.912 1089.62 C 754.594 1100.2 721.726 1123.25 713.523 1128.49 C 708.649 1123.63 711.203 1122.54 716.433 1118.89 C 728.576 1110.41 734.397 1101.07 742.912 1089.62 z" fill="rgb(76,46,22)" transform="translate(0,0)"></path>
<path d="M 587.661 1091.72 L 588.643 1092.5 C 594.429 1097.37 585.995 1103.17 581.882 1107.94 C 575.135 1115.76 567.388 1124.49 559.858 1131.47 C 558.658 1130.67 554.518 1128.58 556.364 1126.64 C 566.985 1115.47 577.055 1102.79 587.661 1091.72 z" fill="rgb(76,46,22)" transform="translate(0,0)"></path>
<path d="M 918.753 1092.25 C 927.875 1094.68 943.379 1119.61 951.499 1126.63 C 952.235 1127.26 951.129 1129.65 950.882 1130.3 C 943.073 1129.1 945.211 1128.31 939.656 1122.35 C 932.057 1114.19 924.813 1105.69 917.217 1097.57 C 916.784 1097.11 918.577 1092.77 918.753 1092.25 z" fill="rgb(76,46,22)" transform="translate(0,0)"></path>
<path d="M 618.652 1083.65 C 623.384 1087.69 622.575 1088.63 618.364 1093.09 C 609.437 1102.56 603.296 1114.15 597.628 1125.75 C 596.18 1125.04 592.951 1123.73 593.673 1121.52 C 598.274 1107.4 607.983 1093.57 618.652 1083.65 z" fill="rgb(76,46,22)" transform="translate(0,0)"></path>
<path d="M 888.399 1084.47 C 894.354 1085.75 895.603 1089.04 899.325 1093.7 C 905.307 1101.19 910.522 1109.51 914.88 1118.03 C 916.576 1121.34 915.148 1122.66 913.85 1125.71 C 907.64 1123.4 900.383 1103.37 894.363 1097.33 C 889.959 1092.91 886.034 1090.11 888.399 1084.47 z" fill="rgb(76,46,22)" transform="translate(0,0)"></path>
<path d="M 1127.37 1124.3 C 1130.87 1124.96 1133.39 1125.51 1133.94 1129.99 C 1135.2 1140.24 1136.34 1157.4 1131 1166.47 C 1123.52 1164.57 1124.79 1164.03 1126.94 1156.46 C 1130.02 1145.63 1126.81 1134.63 1127.37 1124.3 z" fill="rgb(76,46,22)" transform="translate(0,0)"></path>
<path d="M 322.661 964.199 C 328.55 966.782 327.584 968.339 325.322 974.45 C 321.392 985.068 321.399 996.267 317.985 1006.79 C 311.691 1004.25 313.12 1002.05 313.902 995.442 C 314.978 986.339 316.909 975.008 321.254 966.847 L 322.661 964.199 z" fill="rgb(76,46,22)" transform="translate(0,0)"></path>
<path d="M 1182.14 964.475 C 1184 964.747 1187.42 964.714 1188.26 966.771 C 1192.07 976.06 1197.91 995.91 1196.2 1005.43 C 1189.58 1004.79 1189.46 1001.23 1189.12 993.991 C 1188.67 984.709 1181.42 972.087 1182.14 964.475 z" fill="rgb(76,46,22)" transform="translate(0,0)"></path>
<path d="M 826.898 1408.28 C 828.493 1408.73 830.708 1409.19 831.453 1410.9 C 835.302 1419.73 833.117 1440.83 831.005 1449.7 C 830.185 1449.81 825.89 1450.33 826.2 1448.75 C 828.165 1438.74 824.869 1416.24 826.898 1408.28 z" fill="rgb(76,46,22)" transform="translate(0,0)"></path>
<path d="M 860.759 1081.6 C 868.675 1083.55 882.328 1101.97 888.433 1108.23 C 889.582 1109.41 889.048 1111.46 888.56 1112.79 L 888.089 1114.13 L 887.044 1113.68 C 880.908 1111.21 864.463 1091.24 859.332 1085.45 C 858.835 1084.89 860.531 1082.03 860.759 1081.6 z" fill="rgb(76,46,22)" transform="translate(0,0)"></path>
<path d="M 377.016 1124.17 C 382.688 1125.53 382.233 1125.61 381.106 1131.02 C 379.745 1137.42 379.445 1143.99 380.217 1150.49 C 381.166 1157.94 383.931 1160.42 382.042 1166.29 C 376.939 1164.08 376.459 1163.43 375.079 1157.51 C 372.884 1148.09 372.409 1135.89 375.992 1126.73 L 377.016 1124.17 z" fill="rgb(76,46,22)" transform="translate(0,0)"></path>
<path d="M 644.312 1082.71 C 657.229 1085.98 626.279 1109.1 621.521 1113.36 C 614.204 1111.22 619.738 1107.14 623.31 1103.45 C 630.178 1096.35 637.648 1090.04 644.312 1082.71 z" fill="rgb(76,46,22)" transform="translate(0,0)"></path>
<path d="M 943.128 1094.41 C 952.296 1095.44 965.453 1106.61 973.327 1112.3 C 974.065 1112.83 973.432 1116.15 973.316 1117.05 C 966.226 1116.31 949.878 1105.15 943.578 1100.42 C 942.143 1099.34 942.913 1096.18 943.128 1094.41 z" fill="rgb(76,46,22)" transform="translate(0,0)"></path>
<path d="M 679.384 1410.54 C 680.196 1410.64 683.353 1410.88 683.502 1411.21 C 687.24 1419.54 690.398 1433.73 693.464 1442.39 C 694.941 1446.56 693.618 1447.68 692.543 1449.6 C 690.908 1448.83 688.876 1448.2 688.505 1446.27 C 686.987 1438.33 676.323 1417.41 679.384 1410.54 z" fill="rgb(76,46,22)" transform="translate(0,0)"></path>
<path d="M 364.091 1080.18 C 365.144 1080.64 368.89 1082.42 368.649 1083.32 C 366.304 1092.12 369.698 1113.37 366.712 1120.17 C 365.559 1119.46 362.961 1118.04 362.604 1116.7 C 359.614 1105.52 360.611 1090.61 364.091 1080.18 z" fill="rgb(76,46,22)" transform="translate(0,0)"></path>
<path d="M 1190.35 932.436 C 1192.02 932.477 1195.33 932.089 1196.18 933.924 C 1200.32 942.844 1202.71 959.198 1201.16 968.62 C 1190.73 966.674 1196.16 958.439 1193.63 949.015 C 1192.23 943.802 1189.98 937.481 1190.35 932.436 z" fill="rgb(76,46,22)" transform="translate(0,0)"></path>
<path d="M 317.997 1009.16 C 328.831 1013.49 322.011 1016.97 321.092 1027.01 C 320.564 1032.79 319.563 1039.1 318.45 1044.8 C 307.705 1046 314.987 1018.09 316.881 1012.44 L 317.997 1009.16 z" fill="rgb(76,46,22)" transform="translate(0,0)"></path>
<path d="M 507.059 1164.83 C 515.822 1171.2 504.26 1180.22 504.16 1190.02 C 504.132 1192.7 501.656 1199.96 500.164 1202.57 C 494.926 1200.84 495.122 1198.91 496.637 1193 C 499.094 1183.42 501.074 1172.89 507.059 1164.83 z" fill="rgb(76,46,22)" transform="translate(0,0)"></path>
<path d="M 1084.1 1275.63 L 1084.7 1276.11 C 1085.91 1277.07 1088.79 1279.32 1087.73 1280.97 C 1082.64 1288.84 1073.61 1299.13 1067.03 1305.48 C 1066.65 1305.2 1061.83 1301.94 1062.72 1300.83 C 1069.36 1292.54 1076.87 1283.48 1084.1 1275.63 z" fill="rgb(76,46,22)" transform="translate(0,0)"></path>
<path d="M 326.599 1068.36 C 332.514 1069.22 333.646 1068.94 332.207 1075.53 C 330.349 1084.04 336.726 1095.49 335.418 1102.84 C 330.256 1102.83 329.597 1103.54 328.058 1097.51 C 326.656 1092.01 326.053 1086.8 325.374 1081.16 C 324.639 1075.06 324.184 1073.8 326.599 1068.36 z" fill="rgb(76,46,22)" transform="translate(0,0)"></path>
<path d="M 561.551 1094.82 C 577.258 1096.55 542.032 1116 539.449 1117.32 C 526.969 1113.96 557.623 1097.48 561.551 1094.82 z" fill="rgb(76,46,22)" transform="translate(0,0)"></path>
<path d="M 1002.86 1165.36 C 1004.68 1166.2 1006.19 1166.88 1006.67 1169 C 1008.77 1178.26 1019.26 1194.92 1012.39 1202.92 C 1007.64 1200.21 1009.01 1200.05 1008.01 1194 C 1006.59 1185.45 1003.27 1177.93 1000.05 1170.02 C 999.521 1168.73 1002.17 1166.2 1002.86 1165.36 z" fill="rgb(76,46,22)" transform="translate(0,0)"></path>
<path d="M 1142.53 1080.47 L 1143.88 1080.82 C 1150.82 1082.6 1148.2 1113.69 1145.7 1119.55 L 1144.31 1119.05 C 1143.59 1118.79 1141.65 1117.73 1141.81 1116.9 C 1143.32 1108.95 1139.57 1086.05 1142.53 1080.47 z" fill="rgb(76,46,22)" transform="translate(0,0)"></path>
<path d="M 708.473 1366.56 C 714.779 1371.2 708.936 1374.3 704.854 1380.52 C 701.205 1386.09 695.688 1393.78 690.837 1398 C 690.108 1397.5 686.723 1395.51 687.241 1394.47 C 691.528 1385.81 702.058 1373.49 708.473 1366.56 z" fill="rgb(76,46,22)" transform="translate(0,0)"></path>
<path d="M 371.922 1189.35 C 379.084 1192.62 375.493 1201.56 378.65 1209.02 C 382.112 1217.22 386.827 1217.74 381.821 1224.61 C 373.966 1218.56 365.497 1198.33 371.922 1189.35 z" fill="rgb(76,46,22)" transform="translate(0,0)"></path>
<path d="M 1177.63 1067.35 C 1186.51 1070.01 1183.02 1074.65 1183.09 1083.22 C 1183.14 1089.68 1181.12 1096.82 1178.63 1102.75 C 1168.48 1098.75 1178.39 1089.59 1176.82 1080 C 1176.05 1075.29 1175.7 1071.57 1177.63 1067.35 z" fill="rgb(76,46,22)" transform="translate(0,0)"></path>
<path d="M 1134.75 1188.14 C 1144.42 1190.68 1138.63 1197.3 1138.13 1206.52 C 1137.86 1211.37 1133.02 1219.9 1130.06 1223.87 C 1127.89 1222.4 1123.94 1220.51 1126.35 1217.77 C 1133.85 1209.25 1132.13 1198.56 1134.75 1188.14 z" fill="rgb(76,46,22)" transform="translate(0,0)"></path>
<path d="M 314.089 931.141 C 325.301 935.921 314.288 942.934 314.591 953.413 C 314.739 958.524 314.53 963.542 312.751 968.351 C 305.152 966.401 308.488 959.747 308.86 953.493 C 309.311 945.921 311.548 938.266 314.089 931.141 z" fill="rgb(76,46,22)" transform="translate(0,0)"></path>
<path d="M 1090.49 1185.4 C 1091.92 1185.67 1095.69 1186 1095.89 1187.97 C 1096.79 1196.89 1091.56 1209.9 1087.95 1217.71 C 1081.58 1215.95 1081.64 1213.98 1084.87 1206.95 C 1088.35 1199.39 1087.97 1192.14 1090.49 1185.4 z" fill="rgb(76,46,22)" transform="translate(0,0)"></path>
<path d="M 847.627 1390.21 C 853.817 1391.53 854.128 1392.58 853.014 1400 C 851.789 1408.15 849.993 1417.74 846.532 1425.22 C 844.949 1424.46 843.366 1423.7 841.783 1422.93 C 842.433 1414.66 846.482 1405.78 846.726 1396.98 C 846.791 1394.62 847.178 1392.51 847.627 1390.21 z" fill="rgb(76,46,22)" transform="translate(0,0)"></path>
<path d="M 1190.25 1010.46 C 1194.81 1012.48 1194.76 1021.46 1195.45 1026.7 C 1196.55 1034.95 1200.66 1040.36 1193.44 1044.7 C 1189.82 1040.56 1189.75 1035.07 1189.14 1029.48 C 1188.02 1019.1 1183.2 1018.38 1190.25 1010.46 z" fill="rgb(76,46,22)" transform="translate(0,0)"></path>
<path d="M 414.756 1184.32 C 423.822 1187.16 418.291 1201 424.401 1208.7 C 425.918 1210.62 427.584 1214.13 426.591 1216.68 L 426.122 1217.93 C 422.835 1216.7 420.961 1216.26 419.406 1212.66 C 416.326 1205.54 410.778 1193.21 414.184 1185.65 L 414.756 1184.32 z" fill="rgb(76,46,22)" transform="translate(0,0)"></path>
<path d="M 801.068 1368.8 C 805.231 1371.92 817.153 1388.78 822.399 1392.89 C 822.881 1393.27 820.404 1397.2 820.159 1397.65 C 814.178 1392.8 808.266 1387.3 803.395 1381.32 C 798.225 1374.98 795.011 1374.2 801.068 1368.8 z" fill="rgb(76,46,22)" transform="translate(0,0)"></path>
<path d="M 541.413 1130.62 C 557.144 1131.02 527.579 1150.41 524.685 1152.35 C 508.714 1153.23 539.529 1132.13 541.413 1130.62 z" fill="rgb(76,46,22)" transform="translate(0,0)"></path>
<path d="M 339.085 1022.59 C 347.01 1024.22 342.659 1028.04 339.944 1034.14 C 337.059 1040.62 334.993 1046.8 332.483 1053.34 C 325.806 1051.25 328.149 1049.4 329.425 1043.15 C 331.005 1035.42 334.334 1028.82 339.085 1022.59 z" fill="rgb(76,46,22)" transform="translate(0,0)"></path>
<path d="M 393.074 1161.13 C 401.771 1162.48 398.2 1163.47 397.11 1170.97 C 396.073 1178.11 396.432 1185.52 395.665 1192.77 C 384.016 1194.84 391.363 1167.02 393.074 1161.13 z" fill="rgb(76,46,22)" transform="translate(0,0)"></path>
<path d="M 423.867 1275.62 C 426.215 1277.36 441.95 1295.51 444.247 1299.45 C 445.034 1300.8 444.362 1301.91 443.852 1303.34 C 434.787 1302.67 427.842 1288.33 422.256 1281.46 C 421.301 1280.28 423.319 1276.76 423.867 1275.62 z" fill="rgb(76,46,22)" transform="translate(0,0)"></path>
<path d="M 1111.77 1160.43 C 1113.61 1160.9 1115.79 1161.13 1116.67 1163.11 C 1120.04 1170.68 1121.66 1185.37 1120.02 1193.09 C 1110.61 1191.82 1115.36 1185.99 1113.61 1177.01 C 1112.48 1171.22 1110.3 1165.84 1111.77 1160.43 z" fill="rgb(76,46,22)" transform="translate(0,0)"></path>
<path d="M 1160.59 1053.21 C 1164.45 1054.18 1165.46 1054.13 1166.34 1058.41 C 1168.25 1067.79 1168.37 1076.44 1164.62 1085.33 C 1154.03 1083.4 1164.99 1070.74 1160.09 1061.99 C 1158.9 1059.86 1159.85 1055.62 1160.59 1053.21 z" fill="rgb(76,46,22)" transform="translate(0,0)"></path>
<path d="M 968.622 1305.57 C 978.027 1312.06 965.429 1315.88 962.096 1322.99 C 960.488 1326.42 958.13 1330.76 956.167 1333.98 C 948.224 1329.03 954.605 1323.71 958.382 1317.56 C 961.048 1313.21 964.956 1309.07 968.622 1305.57 z" fill="rgb(76,46,22)" transform="translate(0,0)"></path>
<path d="M 346.012 1052.74 L 346.296 1052.92 C 351.181 1055.99 349.536 1060.52 348.113 1066.02 C 346.522 1072.17 350.236 1082.38 346.921 1085.26 L 345.931 1086.15 C 342.643 1082.3 341.666 1080.61 341.358 1075 C 341.115 1070.57 341.598 1057.59 344.534 1054.34 L 346.012 1052.74 z" fill="rgb(76,46,22)" transform="translate(0,0)"></path>
<path d="M 963.268 1130.4 C 971.274 1131.61 983.169 1142.23 989.6 1147.58 C 990.175 1148.05 989.735 1150.13 989.584 1150.82 L 989.306 1152.18 C 982.04 1151.16 969.719 1139.82 963.503 1135.36 C 962.65 1134.74 963.194 1131.3 963.268 1130.4 z" fill="rgb(76,46,22)" transform="translate(0,0)"></path>
<path d="M 1168.91 1022.44 C 1176.43 1024.94 1183.24 1047.87 1180.73 1052.26 L 1180.08 1053.52 C 1171.04 1051.93 1176.38 1042.51 1171.01 1034.51 C 1167.3 1028.99 1165.74 1027.67 1168.91 1022.44 z" fill="rgb(76,46,22)" transform="translate(0,0)"></path>
<path d="M 346.939 1107.26 C 353.17 1109.61 356.158 1123.86 360.019 1129.51 C 361.292 1131.37 360.46 1133.63 359.662 1135.47 C 353.548 1134.15 353.022 1131.24 350.64 1125.34 C 347.019 1116.38 342.72 1115.69 346.939 1107.26 z" fill="rgb(76,46,22)" transform="translate(0,0)"></path>
<path d="M 1055.93 1276.48 C 1062.97 1280.08 1059.39 1282.85 1055.7 1288.83 C 1052.74 1293.62 1049.49 1298.73 1046.14 1303.23 C 1045.52 1302.97 1040.75 1301.29 1041.13 1300.31 C 1043.87 1293.33 1051.77 1282.74 1055.93 1276.48 z" fill="rgb(76,46,22)" transform="translate(0,0)"></path>
<path d="M 981.832 1359.34 C 982.725 1359.68 987.601 1361.46 987.354 1362.57 C 985.645 1370.29 981.206 1379.58 979.058 1387.57 C 978.181 1387.42 973.967 1386.97 974.084 1385.37 C 974.624 1377.94 978.739 1366 981.832 1359.34 z" fill="rgb(76,46,22)" transform="translate(0,0)"></path>
<path d="M 728.124 1373.22 C 729.576 1373.93 733.652 1375.49 732.975 1377.45 C 730.154 1385.62 727.577 1395.56 724.705 1403.55 C 723.73 1403.3 719.983 1402.64 719.985 1401.35 C 719.997 1393.73 725.766 1380.13 728.124 1373.22 z" fill="rgb(76,46,22)" transform="translate(0,0)"></path>
<path d="M 474.877 1315.52 C 477.633 1316.94 478.443 1318.27 478.196 1321.48 C 477.304 1333.09 488.386 1335.09 482.155 1343.77 C 473.219 1341.2 469.308 1323.52 474.877 1315.52 z" fill="rgb(76,46,22)" transform="translate(0,0)"></path>
<path d="M 449.966 1276.31 C 454.005 1277.61 455.832 1280.56 457.541 1284.42 C 461.071 1292.39 468.429 1294.27 464.795 1302.8 C 459.053 1301.25 458.558 1299.16 455.815 1293.6 C 451.755 1285.38 446.303 1284.84 449.966 1276.31 z" fill="rgb(76,46,22)" transform="translate(0,0)"></path>
<path d="M 538.293 1306.43 C 545.543 1310.37 553.442 1319.81 556.949 1327.51 C 557.829 1329.44 556.179 1331.41 555.249 1333.01 L 554.893 1333.64 C 548.633 1326.34 543.232 1317.51 536.37 1310.5 C 535.827 1309.94 537.619 1307.55 537.908 1307.07 L 538.293 1306.43 z" fill="rgb(76,46,22)" transform="translate(0,0)"></path>
<path d="M 435.062 1217.08 C 436.649 1216.92 441.249 1215.9 442.347 1217.64 C 446.712 1224.55 451.389 1234.54 451.245 1242.83 C 449.677 1242.46 448.108 1242.1 446.54 1241.73 C 443.291 1238.03 443.072 1231.92 440.605 1227.4 C 438.649 1223.82 436.009 1220.92 435.062 1217.08 z" fill="rgb(76,46,22)" transform="translate(0,0)"></path>
<path d="M 929.425 1336.36 C 930.353 1336.46 933.634 1336.59 933.933 1337.23 C 937.006 1343.89 943.058 1356.84 942.661 1363.56 C 932.874 1362.19 935.371 1353.52 930.494 1345.68 C 928.642 1342.7 928.746 1339.74 929.425 1336.36 z" fill="rgb(76,46,22)" transform="translate(0,0)"></path>
<path d="M 1032.07 1315.24 C 1043.51 1319.42 1032.79 1337.47 1028.2 1343.73 C 1023.29 1342.37 1022.81 1340.4 1025.91 1335.97 C 1031.09 1328.56 1029.31 1323.19 1032.07 1315.24 z" fill="rgb(76,46,22)" transform="translate(0,0)"></path>
<path d="M 523.038 1194.61 C 531.797 1198.32 529.481 1215.37 526.973 1222.47 C 517.625 1219.78 523.459 1215.52 521.752 1206.5 C 521.221 1203.69 520.738 1198.33 522.34 1195.8 L 523.038 1194.61 z" fill="rgb(76,46,22)" transform="translate(0,0)"></path>
<path d="M 505.214 1295.57 C 512.456 1298.74 507.748 1302.19 507.116 1309.53 C 506.727 1314.04 505.532 1319.76 503.44 1323.75 C 495.478 1320.03 500.381 1314.03 500.839 1306.48 C 501.081 1302.48 502.797 1298.73 505.214 1295.57 z" fill="rgb(76,46,22)" transform="translate(0,0)"></path>
<path d="M 791.516 1422.33 C 794.442 1422.78 796.542 1422.4 797.052 1425.93 C 798.248 1434.2 800.704 1443.7 800.104 1452.03 C 789.664 1448.88 795.592 1444.17 792.131 1433.49 C 791.223 1430.69 791.106 1425.32 791.516 1422.33 z" fill="rgb(76,46,22)" transform="translate(0,0)"></path>
<path d="M 521.9 1360.47 C 524.435 1360.73 527 1360.39 528.2 1362.94 C 531.847 1370.67 536.133 1379.13 534.342 1387.66 C 525.352 1385.08 529.026 1377.8 524.638 1370.09 C 522.995 1367.2 521.94 1363.82 521.9 1360.47 z" fill="rgb(76,46,22)" transform="translate(0,0)"></path>
<path d="M 400.222 1217.52 C 406.563 1220.14 399.009 1228 399.088 1234.03 C 399.121 1236.53 397.249 1241.91 395.559 1243.92 L 394.125 1245.63 C 387.006 1238.61 394.432 1223.28 400.222 1217.52 z" fill="rgb(76,46,22)" transform="translate(0,0)"></path>
<path d="M 986.016 1195.45 C 992.933 1200.6 987.118 1208.89 988.986 1217.06 C 989.634 1219.9 987.258 1221.34 985.481 1223.01 C 978.907 1216.69 980.85 1202.37 986.016 1195.45 z" fill="rgb(76,46,22)" transform="translate(0,0)"></path>
<path d="M 1068.24 1215.38 C 1069.16 1215.7 1073.17 1217.12 1072.81 1218.11 C 1070.2 1225.26 1065.96 1235.38 1063.4 1242.64 C 1052.92 1238.98 1064.67 1221.95 1068.24 1215.38 z" fill="rgb(76,46,22)" transform="translate(0,0)"></path>
<path d="M 980.213 1239.23 C 987.02 1242.55 985.909 1243.72 982.952 1250.99 C 980.958 1255.89 979.04 1260.82 977.002 1265.69 C 975.689 1265.27 972.933 1264.61 972.777 1263.04 C 972.175 1257 977.967 1244.72 980.213 1239.23 z" fill="rgb(76,46,22)" transform="translate(0,0)"></path>
<path d="M 1160.12 1108.37 C 1168.18 1111.33 1162.32 1116.22 1159.96 1122.84 C 1158.6 1126.63 1154.99 1132.34 1152.6 1135.59 C 1147.33 1133.87 1148.29 1131.84 1150.94 1127.01 C 1154.3 1120.88 1156.8 1114.41 1160.12 1108.37 z" fill="rgb(76,46,22)" transform="translate(0,0)"></path>
<path d="M 880.097 1418.76 C 891.385 1424.06 868.996 1435.18 864.326 1437.61 C 863.748 1437.33 859.766 1435.32 860.557 1434.42 C 865.295 1429.05 874.368 1423.47 880.097 1418.76 z" fill="rgb(76,46,22)" transform="translate(0,0)"></path>
<path d="M 1028.13 1275.63 C 1032.76 1278.1 1033.09 1279.62 1031.28 1285 C 1029.15 1291.34 1026.85 1297.3 1025.07 1303.79 C 1015.82 1300.12 1023.7 1293.33 1024.18 1285.01 C 1024.34 1282.26 1026.48 1277.97 1028.13 1275.63 z" fill="rgb(76,46,22)" transform="translate(0,0)"></path>
<path d="M 764.832 1093.31 C 765.369 1093.47 768.713 1094.18 768.789 1095.1 C 769.429 1102.89 770.174 1115.58 767.851 1122.81 C 766.671 1122.08 763.35 1120.35 763.318 1119.01 C 763.148 1111.7 761.608 1099.43 764.832 1093.31 z" fill="rgb(76,46,22)" transform="translate(0,0)"></path>
<path d="M 947.952 1382.32 C 956.257 1385.07 952.78 1387.82 950.274 1394.76 C 948.621 1399.34 946.635 1403.53 944.416 1407.85 C 935.821 1405.15 940.988 1402.53 943.064 1394.74 C 944.024 1391.14 946.32 1385.6 947.952 1382.32 z" fill="rgb(76,46,22)" transform="translate(0,0)"></path>
<path d="M 752.308 1365.59 C 752.882 1365.87 755.396 1367 755.488 1367.59 C 756.604 1374.67 754.479 1389.25 751.405 1395.19 C 748.14 1393.64 747.016 1393.65 747.652 1389.81 C 749.084 1381.18 748.412 1373.65 752.308 1365.59 z" fill="rgb(76,46,22)" transform="translate(0,0)"></path>
<path d="M 556.53 1382.4 C 564.475 1384.63 561.944 1388.91 566.855 1395.33 C 570.054 1399.51 570.573 1403.07 568.705 1407.93 L 567.29 1407.37 C 564.681 1406.39 563.4 1404.24 562.641 1401.57 C 560.197 1392.98 552.714 1390.85 556.53 1382.4 z" fill="rgb(76,46,22)" transform="translate(0,0)"></path>
<path d="M 577.314 1336.47 C 584.279 1341.08 581.177 1341.59 578.312 1348.6 C 576.199 1353.77 574.088 1358.75 571.594 1363.76 C 570.747 1363.55 567.164 1362.74 567.411 1361.33 C 568.728 1353.82 573.657 1343.11 577.314 1336.47 z" fill="rgb(76,46,22)" transform="translate(0,0)"></path>
<path d="M 507.393 1253.22 C 515.386 1256.64 509.058 1262.96 507.949 1270.52 L 507.433 1274.02 C 506.912 1277.5 507.043 1277.09 505.631 1280.34 C 495.506 1275.55 503.571 1260.94 507.393 1253.22 z" fill="rgb(76,46,22)" transform="translate(0,0)"></path>
<path d="M 1106.27 1217.48 C 1108.62 1217.63 1111.5 1217.52 1112.82 1219.98 C 1116.29 1226.43 1119.24 1236.4 1118.41 1243.67 C 1108.9 1241.61 1113.7 1235.79 1109.46 1227.75 C 1107.42 1223.88 1106.1 1221.88 1106.27 1217.48 z" fill="rgb(76,46,22)" transform="translate(0,0)"></path>
<path d="M 530.18 1157.47 C 531.036 1158.25 533.115 1159.95 533.142 1161.03 C 533.217 1164.02 522.598 1181.73 521.153 1183.74 C 520.141 1182.6 518.041 1180.85 518.235 1179.52 C 519.382 1171.66 525.071 1162.86 530.18 1157.47 z" fill="rgb(76,46,22)" transform="translate(0,0)"></path>
<path d="M 1091.71 1236.31 C 1099.64 1239.24 1100.79 1257.27 1095.88 1263.49 C 1093.11 1261.86 1092.42 1261.61 1092.35 1258.02 C 1092.24 1251.83 1092.21 1246.04 1089.33 1240.38 C 1088.87 1239.46 1091.19 1237 1091.71 1236.31 z" fill="rgb(76,46,22)" transform="translate(0,0)"></path>
<path d="M 792.451 1398.5 C 797.352 1398.7 798.107 1399.65 800.84 1403.95 C 804.589 1409.84 811.22 1413.15 808.797 1420.47 C 801.249 1421.12 801.484 1413.05 795.935 1408 C 793.86 1406.11 791.97 1402.95 792.301 1400 L 792.451 1398.5 z" fill="rgb(76,46,22)" transform="translate(0,0)"></path>
<path d="M 1000.41 1296.46 C 1006.5 1297.42 1006.59 1298.49 1008.22 1304.96 C 1009.67 1310.74 1011.14 1317.09 1010.1 1323.04 C 1004.94 1322.71 1005 1322.42 1004.21 1316.5 C 1003.27 1309.45 1000.37 1303.59 1000.41 1296.46 z" fill="rgb(76,46,22)" transform="translate(0,0)"></path>
<path d="M 1170.19 1127.42 C 1177.93 1132.2 1170.77 1146.67 1167.35 1153.17 L 1166.93 1152.95 C 1158.82 1148.76 1164.39 1144.51 1166 1137.22 C 1166.79 1133.64 1168.28 1130.52 1170.19 1127.42 z" fill="rgb(76,46,22)" transform="translate(0,0)"></path>
<path d="M 999.86 1253.81 C 1004.97 1257.64 1010.57 1274.3 1008.59 1280.61 C 999.86 1278.85 1001.89 1266.83 997.698 1259.45 C 996.777 1257.82 998.852 1255.12 999.86 1253.81 z" fill="rgb(76,46,22)" transform="translate(0,0)"></path>
<path d="M 336.627 997.204 C 343.138 1000.07 341.004 1001.73 338.881 1007.96 C 337.231 1012.8 335.477 1017.58 333.438 1022.28 C 323.152 1019.6 333.332 1003.58 336.627 997.204 z" fill="rgb(76,46,22)" transform="translate(0,0)"></path>
<path d="M 526.628 1240.62 C 533.106 1242.79 539.27 1259.09 537.215 1265.26 C 528.952 1264.56 530.988 1258.57 527.542 1251.65 C 525.707 1247.96 525.35 1244.54 526.628 1240.62 z" fill="rgb(76,46,22)" transform="translate(0,0)"></path>
<path d="M 479.054 1275.35 C 482.611 1277.34 483.797 1280.33 484.27 1284.43 C 485.131 1291.89 491.282 1297.19 485.684 1302.96 C 480.828 1298.5 479.308 1287.18 476.277 1280.97 C 475.498 1279.38 478.074 1276.68 479.054 1275.35 z" fill="rgb(76,46,22)" transform="translate(0,0)"></path>
<path d="M 414.753 1236.4 C 423.103 1240.58 416.329 1244.22 417.928 1253.53 C 418.547 1257.13 417.875 1260.15 415.619 1263 C 406.512 1259.29 413.045 1254.94 411.905 1245.85 C 411.464 1242.33 412.85 1239.33 414.753 1236.4 z" fill="rgb(76,46,22)" transform="translate(0,0)"></path>
<path d="M 999.737 1209.51 L 1000.96 1209.89 C 1004.44 1210.94 1004.38 1214.68 1003.91 1217.86 C 1003.26 1222.23 1006.53 1230.89 1004.76 1233.88 L 1003.46 1236.05 C 996.136 1231.07 995.524 1216.68 999.737 1209.51 z" fill="rgb(76,46,22)" transform="translate(0,0)"></path>
<path d="M 1171.47 997.471 C 1175.82 999.278 1176.69 1001.37 1177.79 1006.08 C 1179.7 1014.25 1185 1016.48 1180.36 1023.71 C 1176.62 1022.33 1175.43 1020.58 1174.79 1016.54 C 1173.61 1009.13 1168.06 1004.39 1171.47 997.471 z" fill="rgb(76,46,22)" transform="translate(0,0)"></path>
<path d="M 1074.38 1244.2 C 1084.3 1248.01 1078.47 1250.07 1075.3 1258.61 C 1074.21 1261.53 1072.34 1265.04 1070.96 1267.87 C 1060.94 1269.17 1072.52 1248.35 1074.38 1244.2 z" fill="rgb(76,46,22)" transform="translate(0,0)"></path>
<path d="M 976.957 1158.38 C 980.543 1159.05 982.846 1159.4 984.694 1163.22 C 987.829 1169.68 993.469 1174.88 992.102 1182.32 C 986.329 1181.34 976.999 1164.26 976.957 1158.38 z" fill="rgb(76,46,22)" transform="translate(0,0)"></path>
<path d="M 431.8 1244.44 C 437.026 1247.09 444.1 1263.07 441.948 1269.24 C 432.283 1266 435.46 1258.69 430.353 1250.36 C 429.254 1248.57 430.991 1245.94 431.8 1244.44 z" fill="rgb(76,46,22)" transform="translate(0,0)"></path>
<path d="M 910.819 1350.17 C 916.234 1351.08 917.173 1351.85 916.761 1357.48 L 915.706 1373.92 C 914.271 1373.95 911.176 1374.1 910.578 1372.5 C 908.525 1366.99 909.68 1355.49 910.819 1350.17 z" fill="rgb(76,46,22)" transform="translate(0,0)"></path>
<path d="M 465.799 1241.35 C 471.541 1245.11 473.12 1262.12 468.78 1265.53 L 467.623 1266.48 C 463.306 1259.86 463.981 1252.66 462.48 1245 C 462.268 1243.92 465.11 1241.9 465.799 1241.35 z" fill="rgb(76,46,22)" transform="translate(0,0)"></path>
<path d="M 337.769 1127.34 C 343.768 1129.02 348.189 1146.26 345.748 1152.05 C 339.181 1149.49 334.225 1133.42 337.769 1127.34 z" fill="rgb(76,46,22)" transform="translate(0,0)"></path>
<path d="M 942.265 1297.3 C 949.223 1299.9 947.623 1300.88 945.988 1308.08 C 944.943 1312.67 943.331 1317.24 942.067 1321.78 C 932.775 1322.11 940.527 1302.02 942.265 1297.3 z" fill="rgb(76,46,22)" transform="translate(0,0)"></path>
<path d="M 874.769 1381.23 C 882.412 1384.27 880.307 1383.66 878.01 1391.85 C 876.656 1396.67 875.367 1401.14 873.556 1405.83 C 872.423 1405.55 869.601 1404.99 869.245 1403.78 C 868.131 1399.99 873.612 1384.47 874.769 1381.23 z" fill="rgb(76,46,22)" transform="translate(0,0)"></path>
<path d="M 661.852 1414.37 C 662.532 1414.51 665.57 1414.92 665.895 1415.61 C 668.371 1420.87 671.941 1433.02 671.561 1438.47 C 670.2 1438.33 666.768 1438.39 666.262 1436.91 C 663.743 1429.54 660.087 1422.07 661.852 1414.37 z" fill="rgb(76,46,22)" transform="translate(0,0)"></path>
<path d="M 1023.26 1238.15 C 1030 1239.94 1028.04 1240.76 1027.13 1247.51 C 1026.4 1252.91 1025.98 1257.49 1024.41 1262.75 C 1023.77 1262.62 1023.12 1262.5 1022.47 1262.38 C 1015.18 1261.08 1021.64 1243.38 1023.26 1238.15 z" fill="rgb(76,46,22)" transform="translate(0,0)"></path>
<path d="M 506.565 1209.2 C 515.864 1212.73 511.189 1227.54 509.366 1235.8 C 501.751 1233.81 504.676 1232.09 505.347 1224.2 C 505.777 1219.14 505.714 1214.1 506.565 1209.2 z" fill="rgb(76,46,22)" transform="translate(0,0)"></path>
<path d="M 482.407 1238.5 C 487.313 1239.77 487.431 1240.94 488.276 1246.47 C 489.205 1252.56 490.967 1257.39 488.812 1263.29 C 480.613 1259.78 484.385 1257.4 482.356 1248.71 C 481.286 1244.13 480.59 1242.64 482.407 1238.5 z" fill="rgb(76,46,22)" transform="translate(0,0)"></path>
<path d="M 773.871 1374.41 L 774.689 1374.87 C 778.831 1377.22 783.662 1393.68 780.592 1397.27 L 779.683 1398.38 C 777.268 1396.78 775.485 1395.61 775.128 1392.51 C 774.107 1383.62 768.088 1381.7 773.871 1374.41 z" fill="rgb(76,46,22)" transform="translate(0,0)"></path>
<path d="M 1041.76 1241.28 C 1048.08 1243.32 1046.76 1245.28 1046.03 1251.78 C 1045.5 1256.53 1045.13 1261.05 1044.66 1265.76 C 1043.55 1265.61 1039.44 1265.41 1039.36 1263.98 C 1038.97 1257.47 1039.42 1247.16 1041.76 1241.28 z" fill="rgb(76,46,22)" transform="translate(0,0)"></path>
<path d="M 355.729 1162.12 C 364.517 1163.31 359.605 1166.31 361.129 1174.5 C 361.968 1179.02 362.738 1182.39 360.607 1186.53 C 353.014 1182.88 353.896 1168.97 355.729 1162.12 z" fill="rgb(76,46,22)" transform="translate(0,0)"></path>
<path d="M 766.055 1403.8 C 767.857 1403.89 771.833 1403.48 772.61 1405.29 C 775.354 1411.67 779.353 1417.55 778.527 1424.55 C 777.364 1424.43 774.18 1424.35 773.685 1423.51 C 771.346 1419.51 766.201 1408.02 766.055 1403.8 z" fill="rgb(76,46,22)" transform="translate(0,0)"></path>
<path d="M 1149.34 1161.22 C 1158.74 1165.63 1155 1176.44 1153.52 1185.8 C 1152.09 1185.3 1148.26 1184.17 1148.23 1182.43 C 1148.1 1176.38 1148.54 1167.13 1149.34 1161.22 z" fill="rgb(76,46,22)" transform="translate(0,0)"></path>
<path d="M 637.627 1384.35 C 645.904 1385.68 642.621 1387.66 644.167 1396 C 645.008 1400.54 645.142 1403.49 643.941 1407.97 C 643.385 1407.96 639.673 1408.22 639.512 1406.92 C 638.614 1399.66 636.366 1391.6 637.627 1384.35 z" fill="rgb(76,46,22)" transform="translate(0,0)"></path>
<path d="M 742.28 1404.32 C 751.656 1406.25 747.688 1409.16 751.34 1417.41 C 752.965 1421.09 753.424 1422.09 752.206 1425.89 C 743.632 1424.73 741.661 1411.35 742.28 1404.32 z" fill="rgb(76,46,22)" transform="translate(0,0)"></path>
<path d="M 564.038 1297.69 C 570.524 1300.87 573.576 1317.85 569.477 1321.82 L 568.605 1322.72 C 566.647 1319.69 560.333 1301.68 562.512 1299.33 L 564.038 1297.69 z" fill="rgb(76,46,22)" transform="translate(0,0)"></path>
<path d="M 591.025 1379.7 C 598.156 1385.08 589.977 1397.73 585.934 1403.21 C 584.744 1402.15 582.811 1400.79 582.782 1399 C 582.711 1394.71 588.736 1382.97 591.025 1379.7 z" fill="rgb(76,46,22)" transform="translate(0,0)"></path>
<path d="M 983.119 1330.47 C 983.879 1330.7 987.883 1331.89 987.669 1332.72 C 986.469 1337.37 979.671 1347.17 977.192 1350.96 C 967.482 1348.5 979.738 1334.15 983.119 1330.47 z" fill="rgb(76,46,22)" transform="translate(0,0)"></path>
<path d="M 593.924 1349.4 C 601.532 1352.3 601.212 1368 597.939 1373.64 C 590.541 1371 595.405 1366.57 593.109 1359.23 C 591.952 1355.54 592.312 1352.82 593.924 1349.4 z" fill="rgb(76,46,22)" transform="translate(0,0)"></path>
<path d="M 915.582 1379.28 C 921.787 1381.27 927.496 1395.98 926.403 1400.99 C 925.748 1400.89 925.091 1400.81 924.432 1400.75 C 917.931 1400.12 914.414 1385.03 915.582 1379.28 z" fill="rgb(76,46,22)" transform="translate(0,0)"></path>
<path d="M 497.233 1333.34 C 503.004 1335.28 505.272 1341.21 509.392 1345.41 C 511.447 1347.5 510.202 1350.31 509.664 1352.75 C 504.509 1351.05 503.913 1349.54 500.704 1345.25 C 495.559 1338.36 493.767 1340.79 497.233 1333.34 z" fill="rgb(76,46,22)" transform="translate(0,0)"></path>
<path d="M 962.454 1273.43 C 970.649 1275.51 970.863 1289.19 968.803 1295.45 C 967.459 1294.91 964.158 1294.04 964.107 1292.57 C 963.846 1285.13 958.954 1279.93 962.454 1273.43 z" fill="rgb(76,46,22)" transform="translate(0,0)"></path>
<path d="M 547.846 1352.2 C 549.711 1352.57 551.577 1352.95 553.442 1353.32 C 553.832 1359.72 553.129 1367.87 552.925 1374.48 C 551.63 1374.27 548.52 1374.11 547.909 1373.05 C 545.829 1369.44 547.443 1356.03 547.846 1352.2 z" fill="rgb(76,46,22)" transform="translate(0,0)"></path>
<path d="M 523.015 1279.7 C 529.085 1282.95 531.169 1296.2 527.238 1300.9 L 526.341 1302.03 C 521.382 1297.64 522.223 1289.73 520.101 1283.47 C 519.694 1282.27 522.164 1280.47 523.015 1279.7 z" fill="rgb(76,46,22)" transform="translate(0,0)"></path>
<path d="M 1011.57 1332.59 C 1012.56 1333.29 1015.06 1335.22 1014.77 1336.06 C 1013.7 1339.19 1004.23 1348.74 1001.89 1351.91 C 992.163 1347.5 1006.88 1336.46 1011.57 1332.59 z" fill="rgb(76,46,22)" transform="translate(0,0)"></path>
<path d="M 633.193 1422.51 C 636.411 1423.15 638.445 1423.56 640.891 1426.03 C 646.985 1432.17 651.437 1430.36 647.331 1438.63 C 641.647 1437.03 631.223 1429.68 633.193 1422.51 z" fill="rgb(76,46,22)" transform="translate(0,0)"></path>
<path d="M 956.779 1351.43 C 963.685 1354.9 963.426 1367.9 961.785 1374.14 C 956.029 1372.37 957.049 1372.66 956.163 1365.99 C 955.293 1359.44 953.862 1357.39 956.779 1351.43 z" fill="rgb(76,46,22)" transform="translate(0,0)"></path>
<path d="M 547.467 1166.55 C 554.324 1171.37 546.922 1180.45 543.186 1186.89 C 533.626 1183.02 542.991 1171.48 547.467 1166.55 z" fill="rgb(76,46,22)" transform="translate(0,0)"></path>
<path d="M 523.033 1330.39 C 530.58 1332.59 536.579 1343.19 536.572 1350.31 C 533.506 1350.44 531.3 1351.08 530.081 1347.52 C 527.468 1339.88 522.449 1338.65 523.033 1330.39 z" fill="rgb(76,46,22)" transform="translate(0,0)"></path>
<path d="M 886.479 1364.4 C 894.347 1366.46 897.438 1379.86 894.853 1386.26 C 889.944 1383.01 884.272 1370.61 886.036 1365.69 L 886.479 1364.4 z" fill="rgb(76,46,22)" transform="translate(0,0)"></path>
<path d="M 545.019 1273.37 C 545.694 1273.76 548.701 1275.26 548.777 1276.05 C 549.269 1281.12 545.305 1291.75 543.303 1296.21 C 535.067 1294.37 542.831 1278.13 545.019 1273.37 z" fill="rgb(76,46,22)" transform="translate(0,0)"></path>
<path d="M 710.124 1403.32 C 711.169 1403.97 714.24 1405.65 714.489 1406.62 C 715.195 1409.37 709.208 1421.98 708.158 1424.21 C 698.667 1422.94 707.507 1408.99 710.124 1403.32 z" fill="rgb(76,46,22)" transform="translate(0,0)"></path>
<path d="M 616.229 1363.77 C 624.465 1368.18 618.406 1377.07 614.981 1384.72 C 614.1 1384.4 610.295 1383.2 610.341 1382.03 C 610.557 1376.54 614.06 1368.74 616.229 1363.77 z" fill="rgb(76,46,22)" transform="translate(0,0)"></path>
<path d="M 615.532 1400.7 C 623.471 1401.49 628.021 1412.83 626.284 1419.16 C 618.619 1418.21 615.267 1407.09 615.532 1400.7 z" fill="rgb(76,46,22)" transform="translate(0,0)"></path>
<path d="M 983.87 1280.22 C 991.724 1283.01 987.998 1294.65 985.549 1300.97 C 976.777 1297.88 981.187 1287.66 983.87 1280.22 z" fill="rgb(76,46,22)" transform="translate(0,0)"></path>
<path d="M 591.586 1406.35 C 598.792 1407.04 601.346 1414.32 605.887 1419.56 C 606.467 1420.23 604.639 1422.66 604.252 1423.27 C 601.096 1422.38 598.965 1421.29 597.183 1418.41 C 593.233 1412.03 588.806 1413.56 591.586 1406.35 z" fill="rgb(76,46,22)" transform="translate(0,0)"></path>
<path d="M 961.856 1166.48 C 968.055 1168.45 972.941 1179.42 971.014 1185.89 C 964.492 1185.45 960.139 1172.5 961.856 1166.48 z" fill="rgb(76,46,22)" transform="translate(0,0)"></path>
<path d="M 768.033 1431.51 C 774.802 1435.55 771.355 1446.59 769.198 1452.8 C 761.553 1449.7 766.16 1447.29 765.783 1439.72 C 765.606 1436.17 766.325 1434.53 768.033 1431.51 z" fill="rgb(76,46,22)" transform="translate(0,0)"></path>
<path d="M 910.694 1405.3 C 918.8 1409.12 910.839 1417.19 907.105 1424.05 C 897.498 1423.45 908.157 1409.83 910.694 1405.3 z" fill="rgb(76,46,22)" transform="translate(0,0)"></path>
<path d="M 709.51 1437.17 C 717.33 1439.52 716.693 1450.07 715.367 1456.8 C 707.463 1454.53 708.036 1444.03 709.51 1437.17 z" fill="rgb(76,46,22)" transform="translate(0,0)"></path>
<path d="M 668.834 1380.59 C 676.412 1385.19 667.057 1391.72 662.765 1396.98 C 654.002 1393.65 664.417 1385.07 668.834 1380.59 z" fill="rgb(76,46,22)" transform="translate(0,0)"></path>
<path d="M 742.523 1436.43 C 748.616 1438.65 751.451 1450.53 749.745 1455.58 C 743.684 1453.97 740.094 1441.49 742.523 1436.43 z" fill="rgb(76,46,22)" transform="translate(0,0)"></path>
<path d="M 726.238 1418.44 C 730.918 1420.58 733.69 1430.08 731.879 1434.78 C 724.063 1432.52 722.671 1425.13 726.238 1418.44 z" fill="rgb(76,46,22)" transform="translate(0,0)"></path>
<path d="M 890.691 1399.33 C 897.393 1402.12 893.138 1411 890.612 1415.83 C 883.455 1410.38 886.531 1407.21 890.691 1399.33 z" fill="rgb(76,46,22)" transform="translate(0,0)"></path>
<path d="M 1250.84 986.717 L 1254.3 987.215 C 1253.55 994.876 1252.57 991.053 1250.84 986.717 z" fill="rgb(91,54,35)" transform="translate(0,0)"></path>
<metadata><recraft-signature>{"signed_by": "recraft", "signature_b64": "ZldvAxKcdFHLC+igOSBpQByB/bmjZsoRpA+WpH3yLqgpQ9gKnKKpV4ZzMgbiyHZTMW35j+MqItUReW2dvj6WAA==", "signing_algo": "Ed25519", "generation_timestamp": 1779105394, "identifier": "981dd0a4-98c4-4aed-84b3-d73d1234aa06"}</recraft-signature></metadata></svg>