<svg xmlns="http://www.w3.org/2000/svg" height="1216" preserveAspectRatio="none" style="display: block;" version="1.1" viewBox="0 0 1509 2048" width="896">
<path d="M 0 0 L 1509 0 L 1509 2048 L 0 2048 L 0 0 z" fill="rgb(255,255,255)" transform="translate(0,0)"></path>
<path d="M 846.124 1171.46 C 851.212 1167.91 863.264 1161.84 869.532 1158.03 C 878.086 1152.84 886.861 1145.58 894.791 1141.06 C 894.051 1142.21 893.528 1143.16 892.637 1144.19 C 889.314 1148.03 895.6 1165.85 890.155 1168.02 C 890.164 1170.35 889.904 1171.09 890.711 1173.18 C 893.762 1173.71 895.12 1185.67 891.479 1183.37 C 890.908 1202.17 895.808 1242.35 901.409 1260.35 L 901.991 1258.48 C 911.939 1279.09 906.847 1276.06 923.447 1297.5 C 925.16 1299.71 926.671 1301.3 928.558 1303.31 C 930.198 1304.76 932.885 1307.46 934.288 1309.16 C 980.372 1350.35 1054.68 1361.07 1114.37 1358.35 C 1115.58 1358.29 1116.37 1358.19 1117.56 1357.96 L 1120.1 1358.36 C 1172.49 1364.56 1234.1 1393.23 1270.19 1432.12 C 1275.01 1436.4 1279.54 1440.99 1283.76 1445.87 C 1331.19 1493.9 1368 1564.24 1385.66 1629.12 C 1391.08 1649.03 1393.94 1668.71 1397.05 1689.06 C 1343.69 1718.93 1285.57 1740.98 1227.19 1758.84 C 973.994 1836.29 602.957 1837.7 346.369 1775.53 C 267.623 1756.46 189.515 1729.18 117.881 1691.12 C 130.425 1598.21 167.162 1512.32 232.253 1443.89 C 235.594 1440.15 239.134 1436.6 242.86 1433.24 C 282.134 1394.88 328.943 1367.51 383.748 1359.35 C 387.595 1358.59 391.353 1358.47 395.224 1358.6 C 445.693 1360.25 496.803 1354.88 542.54 1332.01 C 547.277 1329.64 554.458 1325.11 558.955 1323.71 C 563.173 1319.49 569.037 1316.1 573.919 1311.88 C 585.089 1302.23 591.942 1292.89 599.819 1280.81 L 600.558 1282.48 C 613.133 1260.65 618.073 1230.75 618.75 1205.66 C 616.266 1198.64 620.333 1159.62 617.123 1143.22 C 618.975 1144.55 622.098 1146.38 623.08 1148.17 C 636.465 1155.92 651.452 1165.55 665 1171.29 C 716.923 1193.28 780.76 1198.15 833.388 1175.96 C 835.71 1174.98 843.863 1171.68 846.124 1171.46 z" fill="rgb(182,66,55)" transform="translate(0,0)"></path>
<path d="M 846.124 1171.46 C 851.212 1167.91 863.264 1161.84 869.532 1158.03 C 878.086 1152.84 886.861 1145.58 894.791 1141.06 C 894.051 1142.21 893.528 1143.16 892.637 1144.19 C 889.314 1148.03 895.6 1165.85 890.155 1168.02 C 890.164 1170.35 889.904 1171.09 890.711 1173.18 C 893.762 1173.71 895.12 1185.67 891.479 1183.37 C 890.908 1202.17 895.808 1242.35 901.409 1260.35 L 901.991 1258.48 C 911.939 1279.09 906.847 1276.06 923.447 1297.5 C 925.16 1299.71 926.671 1301.3 928.558 1303.31 C 930.198 1304.76 932.885 1307.46 934.288 1309.16 C 980.372 1350.35 1054.68 1361.07 1114.37 1358.35 C 1115.58 1358.29 1116.37 1358.19 1117.56 1357.96 L 1117.15 1360.04 C 1116.11 1370.03 1107.59 1388.73 1103.3 1398.24 C 1101.75 1401.68 1098.1 1407.45 1097.4 1410.87 C 1094.75 1414.73 1093.41 1416.56 1091.44 1420.85 C 1081.95 1435.47 1073.39 1450.11 1061.97 1463.45 C 1059.23 1466.64 1055.96 1470.17 1053.44 1473.38 C 1038.89 1490.6 1019.98 1506.47 1002.07 1520.15 C 996.105 1524.71 986.82 1530.17 981.867 1534.38 C 978.283 1536.05 968.842 1541.04 965.948 1543.31 C 858.203 1599.38 732.655 1610.56 616.7 1574.4 C 604.423 1570.52 593.019 1566.1 581.076 1561.32 C 561.817 1552.82 548.978 1544.7 531.094 1535.49 C 522.878 1535.28 496.785 1512.97 489.272 1507.38 C 488.672 1506.79 488.844 1506.9 488.163 1506.5 C 485.437 1503.86 483.169 1501.75 480.249 1499.33 C 479.498 1498.46 479.715 1498.6 478.768 1498.05 C 473.4 1492.82 459.822 1480.69 455.744 1475.15 C 453.903 1472.1 452.793 1470.94 449.934 1468.75 C 447.884 1466.99 447.407 1465.13 444.992 1462.97 L 445.618 1460.03 C 444.457 1458.58 443.44 1456.96 441.957 1455.83 C 440.679 1453.76 439.671 1452.2 438.218 1450.22 L 435.943 1451.18 C 434.752 1448.53 434.761 1448.61 432.778 1446.59 C 430.997 1445.1 430.755 1443.9 429.438 1441.83 L 428.951 1441.07 C 427.564 1438.1 423.3 1431.45 421.28 1428.74 C 415.315 1421.23 401.687 1390.92 398.301 1380.64 C 396.511 1375.21 393.789 1367 391.921 1361.49 C 391.318 1359.7 386.163 1359.65 383.748 1359.35 C 387.595 1358.59 391.353 1358.47 395.224 1358.6 C 445.693 1360.25 496.803 1354.88 542.54 1332.01 C 547.277 1329.64 554.458 1325.11 558.955 1323.71 C 563.173 1319.49 569.037 1316.1 573.919 1311.88 C 585.089 1302.23 591.942 1292.89 599.819 1280.81 L 600.558 1282.48 C 613.133 1260.65 618.073 1230.75 618.75 1205.66 C 616.266 1198.64 620.333 1159.62 617.123 1143.22 C 618.975 1144.55 622.098 1146.38 623.08 1148.17 C 636.465 1155.92 651.452 1165.55 665 1171.29 C 716.923 1193.28 780.76 1198.15 833.388 1175.96 C 835.71 1174.98 843.863 1171.68 846.124 1171.46 z" fill="rgb(237,159,129)" transform="translate(0,0)"></path>
<path d="M 846.124 1171.46 C 851.212 1167.91 863.264 1161.84 869.532 1158.03 C 878.086 1152.84 886.861 1145.58 894.791 1141.06 C 894.051 1142.21 893.528 1143.16 892.637 1144.19 C 889.314 1148.03 895.6 1165.85 890.155 1168.02 C 890.164 1170.35 889.904 1171.09 890.711 1173.18 C 893.762 1173.71 895.12 1185.67 891.479 1183.37 C 885.755 1186.25 867.839 1200.21 859.921 1205.17 L 859.43 1205.48 C 833.95 1222.93 800.303 1236.82 769.701 1240.5 C 708.439 1247.88 666.464 1222.85 620.247 1187.22 C 619.713 1193.36 619.214 1199.51 618.75 1205.66 C 616.266 1198.64 620.333 1159.62 617.123 1143.22 C 618.975 1144.55 622.098 1146.38 623.08 1148.17 C 636.465 1155.92 651.452 1165.55 665 1171.29 C 716.923 1193.28 780.76 1198.15 833.388 1175.96 C 835.71 1174.98 843.863 1171.68 846.124 1171.46 z" fill="rgb(192,112,94)" transform="translate(0,0)"></path>
<path d="M 617.123 1143.22 C 618.975 1144.55 622.098 1146.38 623.08 1148.17 L 620.834 1148.66 C 619.885 1152.99 620.354 1178.26 620.268 1184.87 C 654.891 1211.21 688.592 1235.16 733.465 1239.34 C 772.979 1243.02 812.103 1231.39 846.107 1211.67 C 849.079 1209.94 856.637 1203.9 859.43 1205.48 C 833.95 1222.93 800.303 1236.82 769.701 1240.5 C 708.439 1247.88 666.464 1222.85 620.247 1187.22 C 619.713 1193.36 619.214 1199.51 618.75 1205.66 C 616.266 1198.64 620.333 1159.62 617.123 1143.22 z" fill="rgb(100,59,50)" transform="translate(0,0)"></path>
<path d="M 623.08 1148.17 C 636.465 1155.92 651.452 1165.55 665 1171.29 C 716.923 1193.28 780.76 1198.15 833.388 1175.96 C 835.71 1174.98 843.863 1171.68 846.124 1171.46 C 844.956 1174.5 831.945 1178.82 828.212 1180.2 C 795.355 1192.31 760.452 1194.59 725.887 1190.01 C 695.619 1186.03 666.455 1176.03 640.117 1160.59 C 634.502 1157.33 627.014 1153.31 623.08 1148.17 z" fill="rgb(100,59,50)" transform="translate(0,0)"></path>
<path d="M 846.124 1171.46 C 851.212 1167.91 863.264 1161.84 869.532 1158.03 C 878.086 1152.84 886.861 1145.58 894.791 1141.06 C 894.051 1142.21 893.528 1143.16 892.637 1144.19 C 889.314 1148.03 895.6 1165.85 890.155 1168.02 C 889.835 1160.82 889.866 1153.68 889.691 1146.47 L 879.857 1153.64 C 879.226 1153.87 879.278 1153.91 878.757 1154.43 C 873.877 1157.53 868.657 1160.48 863.897 1163.58 C 863.173 1163.82 863.256 1163.84 862.647 1164.39 C 858.924 1166.84 850.57 1171.64 846.124 1171.46 z" fill="rgb(100,59,50)" transform="translate(0,0)"></path>
<path d="M 890.711 1173.18 C 893.762 1173.71 895.12 1185.67 891.479 1183.37 C 885.755 1186.25 867.839 1200.21 859.921 1205.17 C 862.247 1199.26 884.021 1187.2 889.381 1181.63 C 891.544 1179.38 890.757 1176.6 890.711 1173.18 z" fill="rgb(100,59,50)" transform="translate(0,0)"></path>
<path d="M 383.748 1359.35 C 387.595 1358.59 391.353 1358.47 395.224 1358.6 C 445.693 1360.25 496.803 1354.88 542.54 1332.01 C 547.277 1329.64 554.458 1325.11 558.955 1323.71 C 555.898 1329.83 522.618 1342.81 514.338 1345.61 C 471.586 1360.06 438.133 1360.07 394.107 1359.94 C 398.366 1377.94 403.897 1391.47 412.325 1407.99 C 413.77 1410.83 420.516 1422.86 421.299 1424.82 L 421.28 1428.74 C 415.315 1421.23 401.687 1390.92 398.301 1380.64 C 396.511 1375.21 393.789 1367 391.921 1361.49 C 391.318 1359.7 386.163 1359.65 383.748 1359.35 z" fill="rgb(146,97,81)" transform="translate(0,0)"></path>
<path d="M 934.802 1312.26 L 934.288 1309.16 C 980.372 1350.35 1054.68 1361.07 1114.37 1358.35 C 1115.58 1358.29 1116.37 1358.19 1117.56 1357.96 L 1117.15 1360.04 C 1049.41 1360.38 990.407 1356.18 934.802 1312.26 z" fill="rgb(146,97,81)" transform="translate(0,0)"></path>
<path d="M 458.052 1474.44 C 484.499 1502.04 498.957 1514.38 531.094 1535.49 C 522.878 1535.28 496.785 1512.97 489.272 1507.38 C 488.672 1506.79 488.844 1506.9 488.163 1506.5 C 485.437 1503.86 483.169 1501.75 480.249 1499.33 C 479.498 1498.46 479.715 1498.6 478.768 1498.05 C 473.4 1492.82 459.822 1480.69 455.744 1475.15 L 458.052 1474.44 z" fill="rgb(97,38,34)" transform="translate(0,0)"></path>
<path d="M 599.819 1280.81 L 600.558 1282.48 C 592.969 1294.57 572.78 1320.32 558.955 1323.71 C 563.173 1319.49 569.037 1316.1 573.919 1311.88 C 585.089 1302.23 591.942 1292.89 599.819 1280.81 z" fill="rgb(146,97,81)" transform="translate(0,0)"></path>
<path d="M 901.991 1258.48 C 911.939 1279.09 906.847 1276.06 923.447 1297.5 L 921.846 1298.78 C 911.645 1289.15 905.861 1273.14 901.409 1260.35 L 901.991 1258.48 z" fill="rgb(192,112,94)" transform="translate(0,0)"></path>
<path d="M 421.28 1428.74 L 421.299 1424.82 C 424.195 1430.03 427.687 1435.68 431.333 1440.34 L 428.951 1441.07 C 427.564 1438.1 423.3 1431.45 421.28 1428.74 z" fill="rgb(76,38,29)" transform="translate(0,0)"></path>
<path d="M 928.558 1303.31 C 930.198 1304.76 932.885 1307.46 934.288 1309.16 L 934.802 1312.26 C 931.475 1310.03 929.127 1307.44 926.798 1304.14 L 928.558 1303.31 z" fill="rgb(192,112,94)" transform="translate(0,0)"></path>
<path d="M 445.618 1460.03 C 447.446 1462.14 449.198 1464.58 450.975 1466.8 L 449.934 1468.75 C 447.884 1466.99 447.407 1465.13 444.992 1462.97 L 445.618 1460.03 z" fill="rgb(97,38,34)" transform="translate(0,0)"></path>
<path d="M 450.975 1466.8 C 452.897 1468.42 455.954 1472.26 458.052 1474.44 L 455.744 1475.15 C 453.903 1472.1 452.793 1470.94 449.934 1468.75 L 450.975 1466.8 z" fill="rgb(76,38,29)" transform="translate(0,0)"></path>
<path d="M 431.333 1440.34 C 432.035 1441.37 432.717 1442.42 433.38 1443.48 L 432.778 1446.59 C 430.997 1445.1 430.755 1443.9 429.438 1441.83 L 428.951 1441.07 L 431.333 1440.34 z" fill="rgb(139,53,44)" transform="translate(0,0)"></path>
<path d="M 433.38 1443.48 C 435.07 1445.99 436.336 1447.82 438.218 1450.22 L 435.943 1451.18 C 434.752 1448.53 434.761 1448.61 432.778 1446.59 L 433.38 1443.48 z" fill="rgb(76,38,29)" transform="translate(0,0)"></path>
<path d="M 923.447 1297.5 C 925.16 1299.71 926.671 1301.3 928.558 1303.31 L 926.798 1304.14 C 924.993 1301.32 924.484 1300.9 921.846 1298.78 L 923.447 1297.5 z" fill="rgb(100,59,50)" transform="translate(0,0)"></path>
<path d="M 965.948 1543.31 C 962.575 1550.12 914.936 1569.57 904.048 1573.1 C 801.899 1606.19 683.808 1605.45 583.982 1564.2 C 582.44 1563.57 581.909 1562.64 581.076 1561.32 C 593.019 1566.1 604.423 1570.52 616.7 1574.4 C 732.655 1610.56 858.203 1599.38 965.948 1543.31 z" fill="rgb(139,53,44)" transform="translate(0,0)"></path>
<path d="M 1053.44 1473.38 L 1053.93 1475.81 C 1053.75 1475.98 1053.58 1476.16 1053.4 1476.33 C 1035.11 1497.44 1012.93 1514.41 990.597 1530.81 C 987.614 1533.01 985.359 1533.51 981.867 1534.38 C 986.82 1530.17 996.105 1524.71 1002.07 1520.15 C 1019.98 1506.47 1038.89 1490.6 1053.44 1473.38 z" fill="rgb(97,38,34)" transform="translate(0,0)"></path>
<path d="M 1091.44 1420.85 C 1091.47 1429.58 1061.54 1469.54 1053.93 1475.81 L 1053.44 1473.38 C 1055.96 1470.17 1059.23 1466.64 1061.97 1463.45 C 1073.39 1450.11 1081.95 1435.47 1091.44 1420.85 z" fill="rgb(139,53,44)" transform="translate(0,0)"></path>
<path d="M 1117.56 1357.96 L 1120.1 1358.36 L 1119.9 1359.05 C 1118.05 1366.63 1103.28 1409.57 1097.4 1410.87 C 1098.1 1407.45 1101.75 1401.68 1103.3 1398.24 C 1107.59 1388.73 1116.11 1370.03 1117.15 1360.04 L 1117.56 1357.96 z" fill="rgb(139,53,44)" transform="translate(0,0)"></path>
<path d="M 1283.76 1445.87 C 1278.79 1446.06 1270.58 1437.06 1270.19 1432.12 C 1275.01 1436.4 1279.54 1440.99 1283.76 1445.87 z" fill="rgb(139,53,44)" transform="translate(0,0)"></path>
<path d="M 242.86 1433.24 C 243.07 1438.29 236.897 1443.63 232.253 1443.89 C 235.594 1440.15 239.134 1436.6 242.86 1433.24 z" fill="rgb(139,53,44)" transform="translate(0,0)"></path>
<path d="M 435.943 1451.18 L 438.218 1450.22 C 439.671 1452.2 440.679 1453.76 441.957 1455.83 L 441.24 1457.41 C 440.083 1456.17 439.11 1455.19 437.89 1454.03 C 436.927 1452.84 436.57 1452.55 435.943 1451.18 z" fill="rgb(97,38,34)" transform="translate(0,0)"></path>
<path d="M 435.943 1451.18 L 438.218 1450.22 L 437.89 1454.03 C 436.927 1452.84 436.57 1452.55 435.943 1451.18 z" fill="rgb(139,53,44)" transform="translate(0,0)"></path>
<path d="M 441.957 1455.83 C 443.44 1456.96 444.457 1458.58 445.618 1460.03 L 442.746 1460.14 C 442.307 1459.28 441.788 1458.16 441.24 1457.41 L 441.957 1455.83 z" fill="rgb(76,38,29)" transform="translate(0,0)"></path>
<path d="M 445.618 1460.03 L 444.992 1462.97 C 443.846 1461.76 443.504 1461.56 442.746 1460.14 L 445.618 1460.03 z" fill="rgb(139,53,44)" transform="translate(0,0)"></path>
<path d="M 478.768 1498.05 C 479.715 1498.6 479.498 1498.46 480.249 1499.33 C 479.318 1499.1 479.181 1498.91 478.768 1498.05 z" fill="rgb(139,53,44)" transform="translate(0,0)"></path>
<path d="M 394.87 731.625 C 391.026 716.911 389.852 697.099 389.307 681.862 C 387.014 597.13 408.152 513.409 450.393 439.921 C 489.167 373.8 545.095 317.834 620.988 297.669 C 646.645 290.852 671.362 293.293 697.298 291.31 C 702.205 290.935 709.605 285.078 714.527 283.325 C 787.693 253.109 873.024 278.104 938.319 316.256 C 1071.9 394.307 1133.4 558.805 1121.49 708.089 C 1121.21 711.662 1120.37 728.841 1118.83 731.287 C 1120.79 734.686 1126.29 739.969 1129.36 742.706 C 1129.73 743.215 1130.09 743.728 1130.45 744.244 C 1158.88 782.255 1150.85 824.942 1127.6 862.899 C 1124.01 868.762 1117.68 877.684 1115.95 884.108 L 1113.46 881.665 L 1100.71 897.284 C 1097.34 900.644 1092.59 904.671 1089.74 908.085 L 1089.18 908.366 C 1084.54 910.734 1080.22 913.924 1075.65 916.491 C 1060.9 924.756 1047.74 922.644 1032.08 920.861 C 1029.35 921.077 1028.07 920.769 1025.48 920.567 C 1024.83 920.516 1024.37 924.322 1023.65 924.941 C 1023.22 925.032 1023.25 924.921 1022.7 924.629 L 1022.28 926.055 C 1019.01 937.336 1017.37 952.689 1013.93 964.68 C 1002.36 1005 972.872 1070 943.433 1100.14 C 936.768 1107.04 929.741 1113.57 922.382 1119.72 C 919.571 1122.05 895.482 1140.04 894.791 1141.06 C 886.861 1145.58 878.086 1152.84 869.532 1158.03 C 863.264 1161.84 851.212 1167.91 846.124 1171.46 C 843.863 1171.68 835.71 1174.98 833.388 1175.96 C 780.76 1198.15 716.923 1193.28 665 1171.29 C 651.452 1165.55 636.465 1155.92 623.08 1148.17 C 622.098 1146.38 618.975 1144.55 617.123 1143.22 C 600.103 1131.27 581.866 1117.59 567.822 1101.53 C 533.84 1062.67 503.401 1007.87 492.981 957.003 C 490.598 945.37 490.798 931.516 491.421 919.791 C 488.879 918.064 488.469 918.63 485.328 918.439 C 449.674 932.97 414.541 909.167 395.219 879.832 L 394.125 880.329 C 382.899 870.297 371.008 842.235 366.88 827.821 C 361.235 808.11 360.834 775.979 373.05 758.433 L 373.441 757.827 C 374.524 754.918 374.664 754.16 376.415 751.66 C 385.151 740.479 384.82 741.514 394.294 732.199 L 394.87 731.625 z" fill="rgb(237,159,129)" transform="translate(0,0)"></path>
<path d="M 394.87 731.625 C 391.026 716.911 389.852 697.099 389.307 681.862 C 387.014 597.13 408.152 513.409 450.393 439.921 C 489.167 373.8 545.095 317.834 620.988 297.669 C 646.645 290.852 671.362 293.293 697.298 291.31 C 702.205 290.935 709.605 285.078 714.527 283.325 C 787.693 253.109 873.024 278.104 938.319 316.256 C 1071.9 394.307 1133.4 558.805 1121.49 708.089 C 1121.21 711.662 1120.37 728.841 1118.83 731.287 C 1116.43 730.386 1116.45 730.47 1113.96 730.395 C 1086.96 715.765 1063.22 719.574 1043.99 743.669 L 1042.31 746.088 C 1040.73 748.403 1039.18 752.662 1037.47 754.187 C 1037.03 753.901 1037.01 753.212 1036.76 752.323 C 1035.59 746.3 1035.9 725.777 1035.9 718.416 L 1035.89 652.888 C 961.345 636.656 862.289 585.485 802.997 538.288 C 795.133 532.028 778.791 519.547 772.615 512.643 C 767.91 508.572 761.969 502.995 757.923 498.256 C 754.411 497.264 742.286 483.733 739.845 480.231 C 738.567 479.405 738.636 479.482 737.796 478.227 C 734.057 474.793 731.729 472.856 728.77 468.705 C 726.589 466.297 724.468 463.836 722.408 461.324 C 720.995 460.007 719.893 458.346 718.711 456.78 C 717.152 454.877 716.121 453.538 714.72 451.523 L 714.54 450.832 C 709.684 446.361 704.176 436.558 701.058 435.126 C 697.357 445.803 688.24 461.802 682.673 472.131 C 647.091 538.146 586.37 604.838 518.137 637.914 C 504.207 644.728 489.744 650.396 474.893 654.861 C 475.061 676.754 476.658 719.324 475.019 739.772 C 474.357 739.061 474.448 738.623 473.702 738.792 C 472.354 742.768 474.689 741.373 470.674 745.327 C 454.32 726.259 454.362 729.771 434.323 722.656 L 433.349 722.299 C 424.605 721.904 422.28 722.374 413.749 723.958 C 408.644 726.37 403.098 728.863 398.168 731.529 C 397.088 731.533 395.954 731.589 394.87 731.625 z" fill="rgb(126,87,54)" transform="translate(0,0)"></path>
<path d="M 1036.76 752.323 C 1037.59 744.385 1037.12 736.779 1037.51 728.966 L 1037.49 728.999 C 1037.56 731.421 1038.56 745.467 1039.56 746.206 C 1041.08 745.465 1042.5 744.486 1043.99 743.669 L 1042.31 746.088 C 1040.73 748.403 1039.18 752.662 1037.47 754.187 C 1037.03 753.901 1037.01 753.212 1036.76 752.323 z" fill="rgb(100,59,50)" transform="translate(0,0)"></path>
<path d="M 413.749 723.958 C 412.981 720.644 431.401 718.77 434.822 721.546 L 434.809 721.658 C 434.43 721.956 433.796 722.141 433.349 722.299 C 424.605 721.904 422.28 722.374 413.749 723.958 z" fill="rgb(46,30,22)" transform="translate(0,0)"></path>
<path d="M 701.058 435.126 C 700.539 434.003 700.567 434.36 700.648 433.298 C 704.556 433.262 713.092 447.207 714.54 450.832 C 709.684 446.361 704.176 436.558 701.058 435.126 z" fill="rgb(46,30,22)" transform="translate(0,0)"></path>
<path d="M 757.923 498.256 C 761.94 500.189 771.687 508.485 772.615 512.643 C 767.91 508.572 761.969 502.995 757.923 498.256 z" fill="rgb(46,30,22)" transform="translate(0,0)"></path>
<path d="M 722.408 461.324 C 726.198 461.896 728.418 465.04 728.77 468.705 C 726.589 466.297 724.468 463.836 722.408 461.324 z" fill="rgb(46,30,22)" transform="translate(0,0)"></path>
<path d="M 714.72 451.523 C 718.113 452.062 718.494 453.68 718.711 456.78 C 717.152 454.877 716.121 453.538 714.72 451.523 z" fill="rgb(46,30,22)" transform="translate(0,0)"></path>
<path d="M 737.796 478.227 C 739.879 477.928 740.05 478.143 739.845 480.231 C 738.567 479.405 738.636 479.482 737.796 478.227 z" fill="rgb(46,30,22)" transform="translate(0,0)"></path>
<path d="M 1130.08 746.83 L 1130.45 744.244 C 1158.88 782.255 1150.85 824.942 1127.6 862.899 C 1124.01 868.762 1117.68 877.684 1115.95 884.108 L 1113.46 881.665 C 1129.44 858.097 1144.72 833.703 1146.23 804.624 C 1146.09 803.258 1146.12 793.649 1146.24 792.334 C 1146.02 774.626 1140.35 760.86 1130.08 746.83 z" fill="rgb(146,97,81)" transform="translate(0,0)"></path>
<path d="M 1146.24 792.334 C 1147.42 794.631 1147.38 802.189 1146.23 804.624 C 1146.09 803.258 1146.12 793.649 1146.24 792.334 z" fill="rgb(192,112,94)" transform="translate(0,0)"></path>
<path d="M 394.125 880.329 C 382.899 870.297 371.008 842.235 366.88 827.821 C 361.235 808.11 360.834 775.979 373.05 758.433 L 372.886 759.185 C 371.912 763.469 370.447 767.553 369.066 771.721 C 356.744 808.894 372.365 849.952 395.219 879.832 L 394.125 880.329 z" fill="rgb(146,97,81)" transform="translate(0,0)"></path>
<path d="M 394.87 731.625 C 395.954 731.589 397.088 731.533 398.168 731.529 C 391.509 736.827 383.327 743.256 379.31 750.999 L 376.415 751.66 C 385.151 740.479 384.82 741.514 394.294 732.199 L 394.87 731.625 z" fill="rgb(100,59,50)" transform="translate(0,0)"></path>
<path d="M 1113.96 730.395 C 1116.45 730.47 1116.43 730.386 1118.83 731.287 C 1120.79 734.686 1126.29 739.969 1129.36 742.706 L 1128.22 744.48 C 1124.59 739.43 1118.88 734.252 1113.96 730.395 z" fill="rgb(100,59,50)" transform="translate(0,0)"></path>
<path d="M 1022.7 924.629 C 1022.91 921.856 1022.08 915.795 1026.37 917.997 L 1032.08 920.861 C 1029.35 921.077 1028.07 920.769 1025.48 920.567 C 1024.83 920.516 1024.37 924.322 1023.65 924.941 C 1023.22 925.032 1023.25 924.921 1022.7 924.629 z" fill="rgb(100,59,50)" transform="translate(0,0)"></path>
<path d="M 470.674 745.327 C 474.689 741.373 472.354 742.768 473.702 738.792 C 474.448 738.623 474.357 739.061 475.019 739.772 C 474.751 747.64 476.834 752.996 470.674 745.327 z" fill="rgb(100,59,50)" transform="translate(0,0)"></path>
<path d="M 485.328 918.439 C 489.284 916.192 493.951 911.418 491.421 919.791 C 488.879 918.064 488.469 918.63 485.328 918.439 z" fill="rgb(46,30,22)" transform="translate(0,0)"></path>
<path d="M 379.31 750.999 C 377.229 753.898 376.201 755.635 373.441 757.827 C 374.524 754.918 374.664 754.16 376.415 751.66 L 379.31 750.999 z" fill="rgb(192,112,94)" transform="translate(0,0)"></path>
<path d="M 1129.36 742.706 C 1129.73 743.215 1130.09 743.728 1130.45 744.244 L 1130.08 746.83 C 1129.14 745.776 1128.9 745.572 1128.22 744.48 L 1129.36 742.706 z" fill="rgb(192,112,94)" transform="translate(0,0)"></path>
<path d="M 824.568 987.3 C 834.82 988.011 845.366 987.736 855.666 987.658 C 850.175 1001.87 844.033 1012.47 834.16 1024.12 C 792.205 1073.64 734.622 1077.38 685.868 1035.12 C 671.811 1021.06 662.648 1008.63 655.65 989.866 C 666.217 989.895 677.11 989.593 687.723 989.483 C 723.028 1031.05 788.972 1026.62 824.568 987.3 z" fill="rgb(76,38,29)" transform="translate(0,0)"></path>
<path d="M 903.097 811.403 C 874.395 822.099 846.167 804.746 841.208 775.025 C 839.094 762.309 842.186 749.277 849.788 738.867 C 868.305 713.552 905.126 712.137 924.143 737.333 C 928.281 741.992 931.857 748.804 937.188 752.244 C 947.91 759.163 954.289 751.73 959.396 743.681 C 955.087 761.837 952.157 771.037 931.332 771.153 C 930.653 784.332 925.271 794.502 916.157 803.91 C 914.661 805.455 905.189 811.031 903.097 811.403 z" fill="rgb(76,38,29)" transform="translate(0,0)"></path>
<path d="M 901.999 808.803 C 909.11 805.09 915.953 797.713 919.895 790.79 C 926.272 779.796 927.845 766.662 924.246 754.473 C 918.803 735.867 908.129 730.869 893.251 722.529 C 918.304 728.609 929.479 745.99 929.926 771.033 L 931.332 771.153 C 930.653 784.332 925.271 794.502 916.157 803.91 C 914.661 805.455 905.189 811.031 903.097 811.403 L 902.071 811.425 C 900.22 811.451 897.122 812.736 896.073 811.956 C 896.308 810.795 900.716 808.974 901.999 808.803 z" fill="rgb(255,255,255)" transform="translate(0,0)"></path>
<path d="M 929.926 771.033 L 931.332 771.153 C 930.653 784.332 925.271 794.502 916.157 803.91 C 914.661 805.455 905.189 811.031 903.097 811.403 L 902.071 811.425 C 900.22 811.451 897.122 812.736 896.073 811.956 C 896.308 810.795 900.716 808.974 901.999 808.803 C 915.042 807.878 927.354 788.977 928.87 776.999 C 929.15 774.784 929.375 773.285 929.926 771.033 z" fill="rgb(146,97,81)" transform="translate(0,0)"></path>
<path d="M 883.514 740.613 C 888.431 738.12 894.438 740.082 896.935 744.996 C 899.433 749.91 897.477 755.919 892.565 758.421 C 887.647 760.927 881.628 758.967 879.127 754.047 C 876.626 749.126 878.591 743.109 883.514 740.613 z" fill="rgb(255,255,255)" transform="translate(0,0)"></path>
<path d="M 901.821 755.618 C 903.073 754.547 904.81 754.249 906.347 754.84 C 907.883 755.43 908.973 756.816 909.185 758.448 C 909.398 760.081 908.699 761.699 907.364 762.663 C 905.414 764.072 902.699 763.691 901.211 761.8 C 899.724 759.909 899.993 757.181 901.821 755.618 z" fill="rgb(255,255,255)" transform="translate(0,0)"></path>
<path d="M 620.828 719.833 C 649.067 718.899 669.063 738.346 669.539 766.534 C 669.866 779.755 664.85 792.55 655.624 802.027 C 643.697 814.215 629.53 817.153 613.316 813.256 C 604.691 810.554 596.84 806.49 590.326 800.035 C 581.018 790.81 581.844 780.51 578.215 770.759 C 563.976 775.569 557.625 763.409 553.277 752.575 C 552.97 749.749 552.745 749.198 553.748 746.468 L 554.969 746.788 L 556.403 750.407 C 563.474 756.489 569.965 754.146 578.316 752.52 C 586.331 732.461 599.027 721.338 620.828 719.833 z" fill="rgb(76,38,29)" transform="translate(0,0)"></path>
<path d="M 619.85 721.78 C 615.508 724.691 610.804 725.666 606.897 728.251 C 575.954 748.721 578.077 788.009 607.056 807.875 C 609.949 809.089 615.404 810.175 613.316 813.256 C 604.691 810.554 596.84 806.49 590.326 800.035 C 581.018 790.81 581.844 780.51 578.215 770.759 C 579.94 769.939 579.856 769.694 580.735 767.94 C 582.2 743.209 596.505 727.948 619.85 721.78 z" fill="rgb(255,255,255)" transform="translate(0,0)"></path>
<path d="M 580.735 767.94 C 581.609 776.841 581.506 783.111 586.578 791.296 C 590.657 797.878 598.687 807.786 607.056 807.875 C 609.949 809.089 615.404 810.175 613.316 813.256 C 604.691 810.554 596.84 806.49 590.326 800.035 C 581.018 790.81 581.844 780.51 578.215 770.759 C 579.94 769.939 579.856 769.694 580.735 767.94 z" fill="rgb(146,97,81)" transform="translate(0,0)"></path>
<path d="M 611.078 737.576 C 616.383 735.802 622.121 738.666 623.893 743.971 C 625.665 749.276 622.8 755.013 617.495 756.784 C 612.191 758.555 606.456 755.691 604.684 750.388 C 602.912 745.084 605.775 739.348 611.078 737.576 z" fill="rgb(255,255,255)" transform="translate(0,0)"></path>
<path d="M 744.55 761.192 C 746.647 761.863 749.61 762.628 750.444 764.891 C 761.337 794.567 757.199 829.796 736.89 854.672 C 728.58 864.851 722.635 874 719.544 886.82 C 727.22 912.647 752.567 916.825 776.135 910.459 C 783.315 908.519 790.774 901.721 798.048 905.683 C 800.56 911.956 796.015 916.872 791.311 920.257 C 739.926 949.252 669.127 904.541 717.998 852.523 C 736.069 833.288 747.107 806.995 744.458 780.797 C 743.929 775.557 743.349 766.409 744.55 761.192 z" fill="rgb(76,38,29)" transform="translate(0,0)"></path>
<path d="M 408.031 764.502 C 417.72 757.918 428.39 759.237 438.224 764.785 L 439.516 765.499 L 439.966 765.825 C 471.91 786.1 492.386 871.454 462.256 864.109 C 462.034 851.587 456.268 830.619 441.36 827.798 C 436.04 826.791 432.162 830.096 428.075 833.072 C 425.134 830.085 423.799 825.121 423.776 820.997 C 423.705 808.096 431.321 805.753 442.174 805.914 C 431.949 789.868 420.22 770.834 399.059 782.429 C 396.593 782.635 397.839 775.958 398.282 774.588 C 399.766 769.999 402.557 767.479 406.73 765.376 C 407.324 764.736 407.246 764.718 408.031 764.502 z" fill="rgb(192,112,94)" transform="translate(0,0)"></path>
<path d="M 439.966 765.825 C 471.91 786.1 492.386 871.454 462.256 864.109 C 464.171 863.171 467.059 862.179 469.135 861.397 C 470.942 860.66 471.03 860.228 472.19 858.582 L 474.466 853.995 C 474.396 851.932 474.294 849.871 474.16 847.811 C 473.99 845.521 473.943 845.456 474.281 843.212 C 473.866 820.789 466.559 797.803 452.638 780.094 C 452.289 779.451 452.345 779.429 451.822 778.996 L 447.455 773.937 C 446.946 773.045 446.964 773.088 446.077 772.563 C 441.884 770.376 441.267 770.211 439.966 765.825 z" fill="rgb(100,59,50)" transform="translate(0,0)"></path>
<path d="M 474.281 843.212 C 475.664 846.07 474.902 850.956 474.466 853.995 C 474.396 851.932 474.294 849.871 474.16 847.811 C 473.99 845.521 473.943 845.456 474.281 843.212 z" fill="rgb(146,97,81)" transform="translate(0,0)"></path>
<path d="M 428.075 833.072 C 425.134 830.085 423.799 825.121 423.776 820.997 C 423.705 808.096 431.321 805.753 442.174 805.914 C 444.356 807.9 447.565 808.889 449.221 811.436 L 449.204 812.261 L 449.542 811.959 L 449.615 812.681 L 449.799 812.902 C 449.731 812.995 449.662 813.087 449.594 813.179 C 446.769 812.519 445.086 809.417 441.625 808.586 C 430.29 805.864 422.706 813.254 426.137 824.664 C 426.979 827.418 427.626 830.227 428.075 833.072 z" fill="rgb(100,59,50)" transform="translate(0,0)"></path>
<path d="M 408.031 764.502 C 417.72 757.918 428.39 759.237 438.224 764.785 L 439.516 765.499 C 437.652 765.604 436.882 765.714 435.088 764.8 C 423.988 759.142 417.851 763.248 408.031 764.502 z" fill="rgb(100,59,50)" transform="translate(0,0)"></path>
<path d="M 399.059 782.429 C 396.593 782.635 397.839 775.958 398.282 774.588 C 399.766 769.999 402.557 767.479 406.73 765.376 C 399.86 775.153 400.668 769.722 399.059 782.429 z" fill="rgb(100,59,50)" transform="translate(0,0)"></path>
<path d="M 406.73 765.376 C 407.324 764.736 407.246 764.718 408.031 764.502 C 407.751 765.258 407.569 765.205 406.73 765.376 z" fill="rgb(100,59,50)" transform="translate(0,0)"></path>
<path d="M 472.19 858.582 C 471.03 860.228 470.942 860.66 469.135 861.397 C 469.997 859.667 470.486 859.561 472.19 858.582 z" fill="rgb(146,97,81)" transform="translate(0,0)"></path>
<path d="M 1051.06 864.075 C 1046.32 865.323 1042.04 863.39 1039.99 858.937 C 1034.44 846.832 1037.79 828.53 1041.36 816.418 C 1047.07 797.058 1057.52 774.506 1075.86 764.245 C 1089.29 756.739 1107.11 758.579 1114.55 773.433 C 1116.39 775.472 1118.95 784.268 1114.12 781.803 C 1097.74 770.627 1079.34 791.356 1071.66 804.392 L 1071.95 806.206 C 1099.35 804.537 1090.49 832.439 1085.22 832.521 C 1061.96 812.677 1052.8 846.698 1051.06 864.075 z" fill="rgb(192,112,94)" transform="translate(0,0)"></path>
<path d="M 1051.06 864.075 C 1046.32 865.323 1042.04 863.39 1039.99 858.937 C 1034.44 846.832 1037.79 828.53 1041.36 816.418 C 1047.07 797.058 1057.52 774.506 1075.86 764.245 C 1089.29 756.739 1107.11 758.579 1114.55 773.433 C 1106.52 766.732 1101.74 760.749 1089.5 761.512 C 1078.77 762.319 1067.57 770.877 1061.37 779.139 C 1047.03 798.236 1037.83 825.357 1039.05 849.291 C 1039.51 858.52 1042.96 861.617 1051.06 864.075 z" fill="rgb(100,59,50)" transform="translate(0,0)"></path>
<path d="M 1071.95 806.206 C 1099.35 804.537 1090.49 832.439 1085.22 832.521 C 1086.93 826.142 1091.06 822.162 1088.05 814.504 C 1083.15 802.026 1065.63 812.002 1064.22 811.669 L 1064.11 811.394 C 1064.91 808.628 1069.53 808.323 1071.95 806.206 z" fill="rgb(100,59,50)" transform="translate(0,0)"></path>
<path d="M 1114.55 773.433 C 1116.39 775.472 1118.95 784.268 1114.12 781.803 C 1114.27 779.039 1114.31 776.156 1114.55 773.433 z" fill="rgb(100,59,50)" transform="translate(0,0)"></path>
<path d="M 542.876 696.63 C 549.644 682.16 560.402 669.924 573.886 661.359 C 607.456 639.982 656.947 641.872 679.663 677.736 C 677.17 680.524 676.945 679.323 673.076 680.276 C 646.387 667.549 615.7 666.095 587.927 676.239 C 577.741 680 568.02 684.916 558.954 690.889 C 556.781 692.303 551.042 696.528 549.467 697.377 C 545.555 700.583 542.767 702.979 539.011 706.423 C 540.287 703.059 541.536 699.949 542.876 696.63 z" fill="rgb(126,87,54)" transform="translate(0,0)"></path>
<path d="M 542.876 696.63 C 546.3 700.784 544.951 697.624 549.467 697.377 C 545.555 700.583 542.767 702.979 539.011 706.423 C 540.287 703.059 541.536 699.949 542.876 696.63 z" fill="rgb(46,30,22)" transform="translate(0,0)"></path>
<path d="M 830.479 679.069 C 860.057 629.241 940.582 642.384 965.799 693.066 C 968.519 698.112 970.52 702.574 972.911 707.736 C 968.401 703.377 963.983 699.513 959.534 695.295 C 958.006 694.633 949.04 688.74 946.529 687.252 C 937.54 681.926 930.749 678.9 921.115 674.997 C 905.69 671.539 897.636 669.149 881.085 669.201 C 862.704 671.08 853.695 672.97 837.008 681.272 L 825.816 688.493 C 827.346 685.34 828.9 682.198 830.479 679.069 z" fill="rgb(126,87,54)" transform="translate(0,0)"></path>
<path d="M 881.085 669.201 C 878.933 669.005 876.325 668.865 874.247 668.55 L 874.245 668.531 C 881.943 666.795 916.686 669.055 921.294 673.984 C 921.382 674.494 921.36 674.152 921.115 674.997 C 905.69 671.539 897.636 669.149 881.085 669.201 z" fill="rgb(46,30,22)" transform="translate(0,0)"></path>
<path d="M 830.479 679.069 C 833.156 678.967 834.485 680.013 837.008 681.272 L 825.816 688.493 C 827.346 685.34 828.9 682.198 830.479 679.069 z" fill="rgb(46,30,22)" transform="translate(0,0)"></path>
<path d="M 959.534 695.295 C 966.581 697.91 965.348 700.471 965.799 693.066 C 968.519 698.112 970.52 702.574 972.911 707.736 C 968.401 703.377 963.983 699.513 959.534 695.295 z" fill="rgb(46,30,22)" transform="translate(0,0)"></path>
<path d="M 679.663 677.736 C 682.005 681.584 683.456 684.973 685.411 688.925 C 680.945 685.485 678.023 683.079 673.076 680.276 C 676.945 679.323 677.17 680.524 679.663 677.736 z" fill="rgb(76,38,29)" transform="translate(0,0)"></path>
<path d="M 395.219 879.832 C 414.541 909.167 449.674 932.97 485.328 918.439 C 488.469 918.63 488.879 918.064 491.421 919.791 C 490.798 931.516 490.598 945.37 492.981 957.003 C 503.401 1007.87 533.84 1062.67 567.822 1101.53 C 581.866 1117.59 600.103 1131.27 617.123 1143.22 C 620.333 1159.62 616.266 1198.64 618.75 1205.66 C 618.073 1230.75 613.133 1260.65 600.558 1282.48 L 599.819 1280.81 C 604.419 1273.35 607.372 1264.25 610.115 1255.94 C 566.095 1271.31 542.965 1271.15 497.057 1262.82 C 537.635 1253.01 561.942 1234.27 576.144 1194.38 C 567.84 1203.94 556.576 1216.59 546.314 1224.19 C 515.535 1246.98 473.067 1258.47 435.115 1253.45 C 404.067 1249.33 380.864 1233.84 362.216 1209.87 C 406.707 1219.64 447.226 1197.77 466.639 1157.22 C 457.437 1165.92 448.9 1173.39 437.938 1179.94 C 407.566 1198.08 359.561 1200.43 325.73 1191.11 C 280.803 1178.73 252.194 1153.52 229.193 1113.85 C 249.927 1122.92 272.934 1125.46 295.148 1121.12 C 325.181 1115.34 347.712 1097.01 364.302 1071.91 C 398.182 1020.64 401.385 956.999 396.015 897.562 C 395.498 891.834 395.23 885.976 394.125 880.329 L 395.219 879.832 z" fill="rgb(126,87,54)" transform="translate(0,0)"></path>
<path d="M 1100.71 897.284 L 1113.46 881.665 L 1115.95 884.108 L 1115.92 885.058 C 1115.51 899.622 1113.35 915.71 1112.26 930.591 C 1106.58 1007.88 1136.12 1119.64 1232.27 1122.8 C 1248.9 1123.21 1265.41 1119.9 1280.6 1113.1 C 1245.8 1187.26 1152.4 1216.05 1079.01 1182.84 C 1064.59 1176.32 1053.75 1166.78 1042.64 1155.74 C 1062.35 1197.36 1102.7 1216.89 1147.81 1208.46 C 1127.96 1233.19 1101.72 1247.9 1070.06 1251.45 C 1029.35 1255.63 988.618 1243.7 956.593 1218.22 C 948.008 1211.3 941.406 1204.44 933.981 1196.36 C 948.472 1232.92 974.415 1256.68 1014.12 1262.3 C 975.858 1272.19 942.217 1270.79 904.935 1257.25 C 903.551 1256.75 902.707 1257.64 901.991 1258.48 L 901.409 1260.35 C 895.808 1242.35 890.908 1202.17 891.479 1183.37 C 895.12 1185.67 893.762 1173.71 890.711 1173.18 C 889.904 1171.09 890.164 1170.35 890.155 1168.02 C 895.6 1165.85 889.314 1148.03 892.637 1144.19 C 893.528 1143.16 894.051 1142.21 894.791 1141.06 C 895.482 1140.04 919.571 1122.05 922.382 1119.72 C 929.741 1113.57 936.768 1107.04 943.433 1100.14 C 972.872 1070 1002.36 1005 1013.93 964.68 C 1017.37 952.689 1019.01 937.336 1022.28 926.055 L 1022.7 924.629 C 1023.25 924.921 1023.22 925.032 1023.65 924.941 C 1024.37 924.322 1024.83 920.516 1025.48 920.567 C 1028.07 920.769 1029.35 921.077 1032.08 920.861 C 1047.74 922.644 1060.9 924.756 1075.65 916.491 C 1080.22 913.924 1084.54 910.734 1089.18 908.366 L 1089.74 908.085 C 1092.59 904.671 1097.34 900.644 1100.71 897.284 z" fill="rgb(126,87,54)" transform="translate(0,0)"></path>
<path d="M 1100.71 897.284 C 1100.29 901.943 1093.86 906.701 1089.74 908.085 C 1092.59 904.671 1097.34 900.644 1100.71 897.284 z" fill="rgb(46,30,22)" transform="translate(0,0)"></path>
<path d="M 1039.2 1150.5 C 1041.98 1152.39 1044.6 1153.72 1042.73 1157.07 C 1042.32 1157.69 1042.48 1157.55 1042.24 1157.69 C 1041.21 1157 1039.77 1152.04 1039.2 1150.5 z" fill="rgb(46,30,22)" transform="translate(0,0)"></path>
<path d="M 930.708 1191.43 C 931.997 1191.9 935.889 1193.79 935.174 1195.64 C 934.734 1195.95 935.03 1195.78 934.221 1196 C 934.019 1196.69 933.915 1197.47 933.438 1197.97 L 933.449 1197.75 C 933.202 1197.45 931.071 1192.26 930.708 1191.43 z" fill="rgb(46,30,22)" transform="translate(0,0)"></path>
<metadata><recraft-signature>{"signed_by": "recraft", "signature_b64": "5J5XLpcn/h4RMDFVBSsf7+oUAjI5ucS5g4uImHudGCJMcxWoAEKll5SIOweeYGk8UMNQxVMEXMmR8gZV0gh3DQ==", "signing_algo": "Ed25519", "generation_timestamp": 1779106797, "identifier": "2e5d2ce5-c231-47af-ab7d-02ba4ee1600a"}</recraft-signature></metadata></svg>