<svg xmlns="http://www.w3.org/2000/svg" height="1216" preserveAspectRatio="none" style="display: block;" version="1.1" viewBox="0 0 1509 2048" width="896">
<path d="M 0 0 L 1509 0 L 1509 2048 L 0 2048 L 0 0 z" fill="rgb(255,255,255)" transform="translate(0,0)"></path>
<path d="M 725.923 80.8482 C 748.934 51.4378 791.635 37.2282 824.251 59.5428 C 832.513 64.2998 839.81 70.5632 845.764 78.0086 C 853.656 88.4964 856.529 96.4244 859.794 109.202 C 895.962 120.354 921.409 130.437 952.081 154.081 C 958.133 158.746 968.675 167.394 973.342 173.107 C 1046.69 239.737 1080.25 363.981 1049.77 458.298 C 1094.3 456.573 1121.96 487.915 1123.13 531.285 C 1123.96 555.478 1115 578.984 1098.28 596.49 C 1082.02 613.83 1059.35 623.716 1035.58 623.825 C 1030.13 623.883 1025.39 623.462 1020 622.84 C 997.457 689.263 943.821 748.037 881.109 779.097 C 870.517 784.288 859.67 788.945 848.611 793.05 C 849.721 813.132 854.17 828.581 869.046 843.037 C 883.403 856.988 904.383 850.164 922.68 852.001 C 968.805 856.631 1013.28 869.507 1053.15 893.505 C 1057.44 896.071 1072.4 905.806 1075.36 909.007 C 1080.94 912.47 1093.03 922.918 1097.53 927.844 C 1101.27 930.676 1106.28 935.911 1109.41 939.474 C 1149.13 983.41 1185.41 1057.25 1201.71 1114.24 C 1207.92 1132.85 1212.35 1151.16 1217.94 1169.87 L 1175.67 1189.8 C 1183.43 1213.52 1188.8 1241.06 1194.1 1265.55 C 1223.11 1399.53 1236.07 1622.41 1087.76 1693.24 C 1103.18 1755.39 1114.61 1820.36 1119.01 1884.28 C 1121.19 1915.86 1120.94 1946.5 1120.82 1978.12 C 1061.72 1987.79 1008.3 1994.36 948.087 1994.73 C 897.242 1995.05 851.865 1988.95 801.927 1983.46 C 792.887 1949.1 783.452 1914.85 773.624 1880.7 C 768.28 1861.73 761.377 1834.58 755.095 1816.44 C 738.349 1869.73 722.231 1929.49 707.217 1983.53 C 637.038 1991.96 568.191 1998.11 497.535 1991.83 C 462.262 1988.69 423.852 1985.94 389.373 1977.89 C 388.094 1917 390.444 1862.96 399.782 1802.45 C 405.787 1763.53 413.491 1730.44 421.798 1692.19 C 253.396 1608.08 289.302 1338.57 334.889 1190.25 L 323.269 1184.81 L 321.89 1184.23 C 312.261 1179.41 302.19 1174.74 292.452 1170.08 C 313.444 1089.26 346.192 996.213 404.755 934.919 C 450.125 887.433 514.942 859.827 579.62 852.932 C 596.381 851.145 614.143 851.196 631.083 850.868 C 633.496 849.4 635.822 847.795 638.05 846.06 C 655.098 832.62 660.084 814.165 662.686 793.943 C 657.954 792.126 653.253 790.23 648.584 788.256 C 569.198 754.938 521.916 701.117 489.97 622.864 C 484.441 623.697 480.717 623.996 475.075 623.924 C 451.101 623.839 428.187 614.035 411.571 596.754 C 380.198 564.242 377.176 505.953 411.296 474.237 C 426.339 460.255 440.637 457.454 460.25 458.184 C 450.954 429.786 448.683 395.634 449.757 365.909 C 453.247 269.359 512.12 166.934 602.739 127.276 C 605.739 125.473 615.327 121.753 618.998 120.23 C 619.439 116.082 619.826 111.888 620.524 107.756 C 627.101 68.8225 667.616 44.2962 704.077 62.6796 C 712.514 66.9335 719.043 74.6079 725.923 80.8482 z" fill="rgb(232,229,225)" transform="translate(0,0)"></path>
<path d="M 725.923 80.8482 C 748.934 51.4378 791.635 37.2282 824.251 59.5428 C 832.513 64.2998 839.81 70.5632 845.764 78.0086 C 853.656 88.4964 856.529 96.4244 859.794 109.202 C 895.962 120.354 921.409 130.437 952.081 154.081 C 958.133 158.746 968.675 167.394 973.342 173.107 C 1046.69 239.737 1080.25 363.981 1049.77 458.298 C 1094.3 456.573 1121.96 487.915 1123.13 531.285 C 1123.96 555.478 1115 578.984 1098.28 596.49 C 1082.02 613.83 1059.35 623.716 1035.58 623.825 C 1030.13 623.883 1025.39 623.462 1020 622.84 C 997.457 689.263 943.821 748.037 881.109 779.097 C 870.517 784.288 859.67 788.945 848.611 793.05 C 849.721 813.132 854.17 828.581 869.046 843.037 C 883.403 856.988 904.383 850.164 922.68 852.001 C 968.805 856.631 1013.28 869.507 1053.15 893.505 C 1057.44 896.071 1072.4 905.806 1075.36 909.007 L 1079.47 914.805 C 1032.02 876.375 974.214 857.415 913.676 853.306 C 898.878 895.124 867.845 929.21 827.596 947.857 C 786.391 967.407 742.51 969.986 699.526 954.486 C 658.619 939.837 625.204 909.542 606.628 870.262 C 604.124 864.785 601.788 859.233 599.624 853.613 C 412.104 861.594 335.66 1004.81 294.842 1168.79 C 303.956 1173.58 313.171 1178.18 322.482 1182.58 L 321.89 1184.23 C 312.261 1179.41 302.19 1174.74 292.452 1170.08 C 313.444 1089.26 346.192 996.213 404.755 934.919 C 450.125 887.433 514.942 859.827 579.62 852.932 C 596.381 851.145 614.143 851.196 631.083 850.868 C 633.496 849.4 635.822 847.795 638.05 846.06 C 655.098 832.62 660.084 814.165 662.686 793.943 C 657.954 792.126 653.253 790.23 648.584 788.256 C 569.198 754.938 521.916 701.117 489.97 622.864 C 484.441 623.697 480.717 623.996 475.075 623.924 C 451.101 623.839 428.187 614.035 411.571 596.754 C 380.198 564.242 377.176 505.953 411.296 474.237 C 426.339 460.255 440.637 457.454 460.25 458.184 C 450.954 429.786 448.683 395.634 449.757 365.909 C 453.247 269.359 512.12 166.934 602.739 127.276 C 605.739 125.473 615.327 121.753 618.998 120.23 C 619.439 116.082 619.826 111.888 620.524 107.756 C 627.101 68.8225 667.616 44.2962 704.077 62.6796 C 712.514 66.9335 719.043 74.6079 725.923 80.8482 z" fill="rgb(70,58,50)" transform="translate(0,0)"></path>
<path d="M 725.923 80.8482 C 748.934 51.4378 791.635 37.2282 824.251 59.5428 C 832.513 64.2998 839.81 70.5632 845.764 78.0086 C 853.656 88.4964 856.529 96.4244 859.794 109.202 C 895.962 120.354 921.409 130.437 952.081 154.081 C 958.133 158.746 968.675 167.394 973.342 173.107 C 975.562 178.784 981.535 182.452 984.867 187.36 C 1022.1 227.83 1052.29 291.127 1056.32 346.271 C 1056.23 347.642 1056.12 347.653 1056.71 348.814 L 1057.27 357.392 C 1057.29 358.692 1057.21 358.711 1057.74 359.836 C 1058.23 374.277 1058.51 388.742 1057.73 403.18 C 1057.11 404.334 1057.2 404.197 1057.24 405.608 C 1056.64 422.273 1052.91 443.284 1047.14 458.958 C 1032.42 463.185 1025.85 469.318 1016.31 480.692 C 1010.21 426.131 987.038 376.927 953.285 334.144 C 951.718 332.878 951.606 332.751 950.737 331.025 C 935.52 312.792 925.638 304.364 907.235 289.074 C 871.459 305.703 821.729 313.012 782.75 315.281 C 780.905 315.143 780.827 314.987 779.285 315.674 C 761.775 316.084 744.259 316.087 726.749 315.684 C 725.15 314.931 725.138 315.102 723.278 315.277 L 713.069 314.669 C 712.188 314.315 712.342 314.351 711.393 314.293 C 680.988 311.586 630.42 302.257 602.387 289.219 C 543.797 335.069 505.334 401.908 495.133 475.604 C 494.885 477.502 494.669 479.405 494.485 481.311 C 485.169 469.135 476.982 463.762 462.459 458.272 C 456.9 441.923 454.057 423.879 452.708 406.695 C 451.768 404.841 451.965 404.53 452.244 402.38 L 451.944 390.24 C 452.034 388.918 452.005 370.522 451.746 369.272 C 453.348 319.76 467.708 271.499 493.436 229.166 C 493.976 228.581 493.977 228.584 494.332 227.876 C 499.297 219.221 505.672 210.86 511.706 202.943 C 512.434 201.579 512.331 201.647 513.499 200.617 L 514.968 198.531 C 516.107 196.993 516.677 196.007 518.207 194.855 C 532.11 178.319 542.744 168.685 559.703 155.464 C 560.216 154.953 560.202 154.939 560.842 154.601 C 572.403 145.85 589.777 134.667 603.248 129.384 L 602.739 127.276 C 605.739 125.473 615.327 121.753 618.998 120.23 C 619.439 116.082 619.826 111.888 620.524 107.756 C 627.101 68.8225 667.616 44.2962 704.077 62.6796 C 712.514 66.9335 719.043 74.6079 725.923 80.8482 z" fill="rgb(179,123,62)" transform="translate(0,0)"></path>
<path d="M 725.923 80.8482 C 748.934 51.4378 791.635 37.2282 824.251 59.5428 L 823.685 61.3493 C 803.637 51.5736 785.057 47.6227 763.224 55.2792 C 755.877 57.8651 749.032 61.6995 742.989 66.6136 C 737.125 71.3326 729.075 82.9902 724.762 83.5573 C 721.287 80.3886 719.313 76.9756 716.127 74.0262 C 692.717 52.3542 658.522 53.5776 637.248 77.6797 C 624.999 91.5575 622.315 103.358 621.786 121.524 C 615.573 124.063 609.393 126.684 603.248 129.384 L 602.739 127.276 C 605.739 125.473 615.327 121.753 618.998 120.23 C 619.439 116.082 619.826 111.888 620.524 107.756 C 627.101 68.8225 667.616 44.2962 704.077 62.6796 C 712.514 66.9335 719.043 74.6079 725.923 80.8482 z" fill="rgb(120,84,42)" transform="translate(0,0)"></path>
<path d="M 845.764 78.0086 C 853.656 88.4964 856.529 96.4244 859.794 109.202 C 895.962 120.354 921.409 130.437 952.081 154.081 C 958.133 158.746 968.675 167.394 973.342 173.107 C 975.562 178.784 981.535 182.452 984.867 187.36 C 977.441 181.578 972.664 174.281 964.851 167.513 C 934.081 140.856 898.348 120.548 858.314 111.732 C 854.256 95.3866 852.437 91.1987 842.709 77.9897 L 845.764 78.0086 z" fill="rgb(120,84,42)" transform="translate(0,0)"></path>
<path d="M 824.251 59.5428 C 832.513 64.2998 839.81 70.5632 845.764 78.0086 L 842.709 77.9897 C 840.205 74.0322 835.674 70.1397 832.047 67.1528 C 831.186 66.103 831.294 66.2352 830.031 65.5784 C 827.689 63.8741 826.242 62.7669 823.685 61.3493 L 824.251 59.5428 z" fill="rgb(70,58,50)" transform="translate(0,0)"></path>
<path d="M 452.244 402.38 C 453.23 404.211 453.025 404.553 452.708 406.695 C 451.768 404.841 451.965 404.53 452.244 402.38 z" fill="rgb(152,106,69)" transform="translate(0,0)"></path>
<path d="M 518.207 194.855 C 517.467 197.017 516.941 197.16 514.968 198.531 C 516.107 196.993 516.677 196.007 518.207 194.855 z" fill="rgb(152,106,69)" transform="translate(0,0)"></path>
<path d="M 950.737 331.025 C 952.411 332.203 952.518 332.283 953.285 334.144 C 951.718 332.878 951.606 332.751 950.737 331.025 z" fill="rgb(120,84,42)" transform="translate(0,0)"></path>
<path d="M 830.031 65.5784 C 831.294 66.2352 831.186 66.103 832.047 67.1528 C 830.569 66.5522 830.647 66.7726 830.031 65.5784 z" fill="rgb(152,106,69)" transform="translate(0,0)"></path>
<path d="M 513.499 200.617 C 512.868 202.129 513.022 202.24 511.706 202.943 C 512.434 201.579 512.331 201.647 513.499 200.617 z" fill="rgb(152,106,69)" transform="translate(0,0)"></path>
<path d="M 451.944 390.24 C 451.057 385.928 449.875 373.018 451.746 369.272 C 452.005 370.522 452.034 388.918 451.944 390.24 z" fill="rgb(152,106,69)" transform="translate(0,0)"></path>
<path d="M 723.278 315.277 C 725.138 315.102 725.15 314.931 726.749 315.684 C 724.897 315.876 724.84 316.094 723.278 315.277 z" fill="rgb(120,84,42)" transform="translate(0,0)"></path>
<path d="M 779.285 315.674 C 780.827 314.987 780.905 315.143 782.75 315.281 C 781.172 316.097 781.141 315.887 779.285 315.674 z" fill="rgb(120,84,42)" transform="translate(0,0)"></path>
<path d="M 1056.32 346.271 C 1056.92 347.392 1056.78 347.375 1056.71 348.814 C 1056.12 347.653 1056.23 347.642 1056.32 346.271 z" fill="rgb(152,106,69)" transform="translate(0,0)"></path>
<path d="M 1057.73 403.18 C 1057.73 404.566 1057.88 404.58 1057.24 405.608 C 1057.2 404.197 1057.11 404.334 1057.73 403.18 z" fill="rgb(152,106,69)" transform="translate(0,0)"></path>
<path d="M 1057.27 357.392 C 1057.94 358.417 1057.78 358.423 1057.74 359.836 C 1057.21 358.711 1057.29 358.692 1057.27 357.392 z" fill="rgb(152,106,69)" transform="translate(0,0)"></path>
<path d="M 602.186 291.903 C 696.911 327.91 812.132 326.954 907.091 292.018 C 907.797 292.507 908.493 293.009 909.179 293.525 C 970.411 340.308 1005.04 411.724 1015.28 486.986 C 1017.72 482.631 1020.09 478.845 1023.57 475.196 C 1032.6 465.545 1045.21 460.043 1058.43 459.988 C 1075.49 459.91 1088.87 467.181 1100.61 479.014 C 1101.8 479.669 1101.6 479.633 1102.4 480.998 C 1103.16 481.937 1103.91 482.888 1104.64 483.851 C 1118.67 502.377 1123.63 524.625 1120.28 547.511 C 1116.72 570.838 1104.01 591.787 1084.97 605.726 C 1065.51 620.173 1042.41 624.307 1018.77 620.73 C 1014.63 631.81 1011.18 640.336 1005.9 651.013 C 973.027 717.936 914.703 768.892 843.973 792.486 C 773.164 815.796 696.029 810.334 629.212 777.277 C 565.984 745.734 514.249 687.866 491.775 620.665 C 483.225 622.537 471.856 622.377 463.236 621.164 C 440.592 618.084 420.126 606.055 406.419 587.769 C 349.09 511.143 441.682 410 495.683 486.971 C 495.953 483.914 496.289 480.863 496.69 477.821 C 506.208 406.72 545.076 335.743 602.186 291.903 z" fill="rgb(229,166,139)" transform="translate(0,0)"></path>
<path d="M 640.543 639.005 C 716.736 639.471 792.932 639.452 869.125 638.95 C 855.757 672.782 833.096 701.225 798.968 715.964 C 771.127 727.961 739.629 728.248 711.575 716.76 C 704.725 713.913 698.165 710.415 691.985 706.313 C 691.251 705.971 691.419 706.056 690.768 705.472 C 686.498 702.475 681.753 698.455 677.626 695.126 C 675.094 693.212 671.147 689.725 669.679 687.011 L 661.582 677.168 C 661.01 676.656 661.042 676.702 660.675 676.037 C 651.702 663.088 646.802 653.65 640.543 639.005 z" fill="rgb(70,58,50)" transform="translate(0,0)"></path>
<path d="M 669.679 687.011 C 672.102 688.656 675.806 692.821 677.626 695.126 C 675.094 693.212 671.147 689.725 669.679 687.011 z" fill="rgb(152,106,69)" transform="translate(0,0)"></path>
<path d="M 785.442 641.218 C 799.086 640.754 813.315 641.248 827 641.255 C 838.11 641.26 849.438 640.696 860.562 641.317 C 861.822 641.198 863.807 640.697 864.935 641.562 C 866.164 642.504 864.657 644.746 864.246 645.663 C 856.336 663.321 845.268 679.492 831.129 692.756 C 829.52 694.503 826.866 696.598 824.974 698.162 C 780.035 733.055 726.312 730.758 682.074 696.443 C 680.255 694.801 678.249 693.131 676.715 691.243 C 660.783 676.038 652.364 661.214 643.911 641.139 C 649.484 641.055 655.899 640.875 661.414 641.218 C 675.343 640.826 694.769 640.814 708.584 641.253 C 731.4 641.101 763.393 640.077 785.442 641.218 z" fill="rgb(255,255,255)" transform="translate(0,0)"></path>
<path d="M 860.562 641.317 C 861.822 641.198 863.807 640.697 864.935 641.562 C 866.164 642.504 864.657 644.746 864.246 645.663 C 856.336 663.321 845.268 679.492 831.129 692.756 C 828.324 687.278 829.356 650.555 829.428 642.254 C 837.164 642.243 853.913 642.641 860.562 641.317 z" fill="rgb(255,255,255)" transform="translate(0,0)"></path>
<path d="M 643.911 641.139 C 649.484 641.055 655.899 640.875 661.414 641.218 C 667.621 642.802 671.672 642.29 678.082 642.286 C 677.952 650.413 678.792 686.779 676.715 691.243 C 660.783 676.038 652.364 661.214 643.911 641.139 z" fill="rgb(255,255,255)" transform="translate(0,0)"></path>
<path d="M 785.442 641.218 C 799.086 640.754 813.315 641.248 827 641.255 C 838.11 641.26 849.438 640.696 860.562 641.317 C 853.913 642.641 837.164 642.243 829.428 642.254 C 829.356 650.555 828.324 687.278 831.129 692.756 C 829.52 694.503 826.866 696.598 824.974 698.162 C 825.059 679.272 826.015 661.315 825.966 642.234 C 817.672 642.255 792.363 642.679 785.442 641.218 z" fill="rgb(232,229,225)" transform="translate(0,0)"></path>
<path d="M 661.414 641.218 C 675.343 640.826 694.769 640.814 708.584 641.253 C 702.218 642.848 689.092 642.288 681.75 642.309 C 681.41 649.876 681.254 689.765 682.074 696.443 C 680.255 694.801 678.249 693.131 676.715 691.243 C 678.792 686.779 677.952 650.413 678.082 642.286 C 671.672 642.29 667.621 642.802 661.414 641.218 z" fill="rgb(232,229,225)" transform="translate(0,0)"></path>
<path d="M 628.711 469.773 C 643.165 465.891 658.02 474.504 661.832 488.977 C 665.643 503.451 656.957 518.263 642.465 522.004 C 628.074 525.718 613.386 517.105 609.601 502.732 C 605.816 488.359 614.357 473.629 628.711 469.773 z" fill="rgb(27,23,23)" transform="translate(0,0)"></path>
<path d="M 869.92 469.822 C 884.325 465.677 899.347 474.065 903.376 488.502 C 907.405 502.939 898.898 517.894 884.429 521.807 C 870.123 525.676 855.373 517.285 851.389 503.011 C 847.405 488.736 855.678 473.92 869.92 469.822 z" fill="rgb(27,23,23)" transform="translate(0,0)"></path>
<path d="M 747.771 458.288 C 749.448 458.986 752.411 459.995 752.659 462.031 C 755.599 486.188 754.799 518.287 742.573 539.65 C 737.16 549.11 728.092 553.485 725.035 562.771 C 716.071 589.689 766.798 603.539 780.455 584.281 C 782.78 581.002 786.621 577.576 790.502 579.421 C 791.914 583.405 791.838 581.672 790.51 586.011 C 784.651 592.335 778.74 597.028 770.34 599.489 C 758.72 602.894 745.274 601.19 734.742 595.299 C 726.768 590.839 719.173 583.511 716.865 574.388 C 712.691 557.89 726.038 548.378 734.426 536.44 C 752.103 511.283 740.335 470.446 747.771 458.288 z" fill="rgb(27,23,23)" transform="translate(0,0)"></path>
<path d="M 622.559 405.237 C 640.502 404.088 656.004 407.323 670.929 417.736 C 675.892 421.198 693.718 433.297 688.494 440.559 C 680.831 440.932 671.609 426.632 661.242 421.991 C 650.646 417.247 650.532 416.81 638.218 414.116 C 618.045 411.577 602.544 417.935 587.319 431.376 C 583.711 434.562 579.93 439.812 576.141 441.734 C 573.126 440.51 574.17 441.227 572.267 437.974 C 571.979 423.114 609.172 407.428 622.559 405.237 z" fill="rgb(27,23,23)" transform="translate(0,0)"></path>
<path d="M 869.087 405.24 C 892.486 403.742 908.385 408.108 926.644 423.444 C 930.549 426.725 941.101 436.014 936.135 441.507 C 930.179 441.098 919.623 426.858 911.709 422.747 C 902.371 417.895 900.853 416.889 890.04 414.179 C 844.059 408.064 835.598 438.681 820.783 440.822 L 819.6 439.28 C 823.611 421.789 852.81 408.399 869.087 405.24 z" fill="rgb(27,23,23)" transform="translate(0,0)"></path>
<path d="M 419.619 501.16 C 444.136 500.481 461.154 502.711 477.179 523.409 C 479.888 527.309 487.185 539.102 486.351 543.504 C 484.805 551.653 475.905 542.452 474.009 541.834 C 464.802 538.836 454.996 542.655 452.51 552.265 C 452.26 554.145 452.192 557.181 451.415 558.824 C 449.187 564.49 441.793 562.124 442.235 556.531 C 443.855 536.055 456.912 533.657 472.879 532.806 C 461.577 517.303 451.705 508.886 431.343 509.006 C 425.332 509.042 414.542 510.765 419.619 501.16 z" fill="rgb(27,23,23)" transform="translate(0,0)"></path>
<path d="M 1071.58 501.254 C 1076 500.789 1085.49 500.266 1089.58 501.484 C 1093.59 502.921 1092.38 508.236 1088.6 508.39 C 1063.95 509.399 1054.16 510.962 1037.87 531.574 C 1039.49 531.772 1041.11 531.951 1042.74 532.111 C 1058.85 533.819 1070.04 544.541 1067.63 561.419 C 1058.01 562.151 1060.53 557.879 1058.24 549.23 C 1052.2 543.526 1050.17 541.106 1039.99 540.29 C 1033.11 539.738 1028.87 553.818 1024.07 543.471 C 1022.63 540.35 1030.38 527.012 1032.54 524.094 C 1042.84 510.244 1054.82 503.948 1071.58 501.254 z" fill="rgb(27,23,23)" transform="translate(0,0)"></path>
<path d="M 664.448 794.155 C 725.708 812.705 785.394 815.294 846.508 793.544 C 847.528 799.516 848 804.687 848.548 810.731 C 853.242 824.961 857.975 835.074 869.107 845.546 C 869.819 845.928 869.698 845.867 870.235 846.511 C 878.147 852.169 878.967 853.108 888.497 853.088 C 893.788 852.997 907.298 852.579 911.837 853.265 C 904.374 876.682 885.822 902.945 867.543 919.082 C 823.779 957.719 763.366 972.821 707.439 955.139 C 669.522 943.52 637.195 918.378 616.6 884.488 C 609.983 873.464 606.621 864.173 600.869 853.086 C 636.601 853.646 647.984 850.747 661.396 813.457 C 662.804 806.549 663.6 801.162 664.448 794.155 z" fill="rgb(229,166,139)" transform="translate(0,0)"></path>
<path d="M 664.448 794.155 C 725.708 812.705 785.394 815.294 846.508 793.544 C 847.528 799.516 848 804.687 848.548 810.731 C 845.755 811.324 831.209 825.174 826.773 828.212 C 785.478 856.495 737.689 858.582 693.716 835.181 C 680.74 828.275 672.763 820.462 661.396 813.457 C 662.804 806.549 663.6 801.162 664.448 794.155 z" fill="rgb(191,130,99)" transform="translate(0,0)"></path>
<path d="M 888.497 853.088 C 893.788 852.997 907.298 852.579 911.837 853.265 C 904.288 854.084 895.903 854.813 888.497 853.088 z" fill="rgb(152,106,69)" transform="translate(0,0)"></path>
<path d="M 1201.71 1114.24 C 1207.92 1132.85 1212.35 1151.16 1217.94 1169.87 L 1175.67 1189.8 C 1183.43 1213.52 1188.8 1241.06 1194.1 1265.55 C 1223.11 1399.53 1236.07 1622.41 1087.76 1693.24 C 1103.18 1755.39 1114.61 1820.36 1119.01 1884.28 C 1121.19 1915.86 1120.94 1946.5 1120.82 1978.12 C 1061.72 1987.79 1008.3 1994.36 948.087 1994.73 C 897.242 1995.05 851.865 1988.95 801.927 1983.46 C 792.887 1949.1 783.452 1914.85 773.624 1880.7 C 768.28 1861.73 761.377 1834.58 755.095 1816.44 C 738.349 1869.73 722.231 1929.49 707.217 1983.53 C 637.038 1991.96 568.191 1998.11 497.535 1991.83 C 462.262 1988.69 423.852 1985.94 389.373 1977.89 C 388.094 1917 390.444 1862.96 399.782 1802.45 C 405.787 1763.53 413.491 1730.44 421.798 1692.19 C 253.396 1608.08 289.302 1338.57 334.889 1190.25 L 323.269 1184.81 L 325.166 1183.71 C 368.491 1205.52 428.246 1223.1 475.991 1232.95 C 444.712 1344.99 426.206 1460.2 420.827 1576.39 C 638.061 1648.71 872.889 1648.64 1090.08 1576.18 C 1086.84 1546.87 1085.66 1514.67 1082.44 1484.26 C 1075.54 1422.04 1065.02 1360.27 1050.95 1299.27 C 1046.29 1278.98 1040.37 1252.62 1034.18 1233 C 1095.81 1221.86 1159.71 1197.18 1215.37 1168.75 C 1210.71 1150.78 1205.59 1132.93 1200.03 1115.22 L 1201.71 1114.24 z" fill="rgb(70,58,50)" transform="translate(0,0)"></path>
<path d="M 1057.32 1588.53 C 1078.09 1660.1 1097.22 1732.32 1108.46 1806.11 C 1111.04 1822.99 1114.33 1845.47 1115.31 1862.23 C 1116.22 1863.78 1116.01 1863.74 1115.75 1865.6 C 1116.45 1873.48 1116.96 1881.38 1117.26 1889.28 C 1118.34 1891.32 1118.11 1892.32 1117.78 1894.62 L 1118.19 1906.46 C 1119.45 1913.29 1119.26 1924.96 1118.85 1932.12 L 1118.91 1976.4 C 1100.73 1979.52 1077.75 1983.79 1059.63 1985.34 C 1058.96 1985.78 1058.84 1985.67 1057.99 1985.68 C 1052.65 1986.25 1046.95 1986.98 1041.64 1987.3 C 1040.96 1987.77 1040.83 1987.66 1039.96 1987.7 L 1031.71 1988.34 C 1030.98 1988.77 1030.88 1988.67 1029.98 1988.72 L 1020.73 1989.33 C 1019.98 1989.79 1019.8 1989.69 1018.88 1989.76 L 1005.75 1990.3 C 1004.63 1990.97 1004.66 1990.82 1003.19 1990.79 L 988.786 1991.29 C 986.144 1992.6 982.945 1992.12 979.95 1992.04 L 970.474 1992.11 C 965.512 1993.07 930.484 1994.03 927.214 1992.46 L 907.627 1991.85 C 905.413 1992.17 905.071 1992.37 903.224 1991.36 L 891.009 1990.82 C 890.092 1990.77 889.992 1990.86 889.225 1990.45 L 876.831 1989.75 C 875.369 1989.82 875.39 1989.97 874.288 1989.31 L 864.813 1988.77 C 863.375 1988.82 863.393 1988.97 862.313 1988.31 L 854.021 1987.76 C 853.129 1987.7 853.006 1987.8 852.293 1987.33 C 837.447 1986.72 819.095 1982.99 803.483 1981.71 C 790.882 1926.32 769.767 1865.02 755.336 1809.59 C 749.497 1825.88 743.27 1849.76 738.395 1866.76 L 705.654 1981.55 C 698.09 1982.73 690.231 1983.49 682.605 1984.34 C 681.945 1984.79 681.833 1984.67 680.975 1984.65 C 675.804 1985.33 670.876 1986.02 665.664 1986.34 C 664.976 1986.78 664.858 1986.68 664.005 1986.71 L 655.701 1987.34 C 654.984 1987.79 654.852 1987.68 653.958 1987.71 C 646.948 1988.24 639.685 1988.89 632.69 1989.28 C 631.208 1990.21 631.22 1989.99 629.38 1989.77 L 617.771 1990.33 C 616.618 1990.99 616.643 1990.84 615.139 1990.79 L 599.779 1991.29 C 597.207 1992.66 593.939 1992.15 590.958 1992.03 C 569.847 1992.73 548.719 1992.65 527.614 1991.81 C 525.771 1992.03 525.79 1992.23 524.222 1991.38 L 508.089 1990.76 C 507.167 1990.7 506.998 1990.79 506.233 1990.35 L 495.107 1989.73 C 494.188 1989.7 494.003 1989.8 493.224 1989.39 L 482.049 1988.73 C 481.155 1988.68 481.002 1988.77 480.258 1988.34 L 471.064 1987.71 C 470.158 1987.67 470.011 1987.78 469.275 1987.33 C 441.738 1985.24 418.658 1981.14 391.512 1976.62 C 390.672 1971.76 390.987 1967.62 391.176 1962.71 C 390.992 1948.91 390.988 1935.1 391.166 1921.3 C 390.777 1914.2 390.491 1909.54 391.884 1902.54 C 392.085 1893.83 392.547 1886.3 393.236 1877.62 C 392.889 1875.44 392.69 1875.1 393.721 1873.27 C 394.148 1866.52 394.659 1859.77 395.253 1853.04 C 395.3 1852.15 395.204 1852.01 395.642 1851.29 C 397.057 1829.83 401.491 1803.5 405.008 1782.36 C 416.02 1716.15 434.215 1652.65 452.824 1588.32 C 495.433 1604.69 605.231 1624.92 651.366 1627.29 C 652.363 1627.27 652.281 1627.27 653.166 1627.73 C 660.541 1628.27 669.11 1629.1 676.414 1629.22 C 677.813 1629.13 677.754 1629.05 678.989 1629.7 C 682.623 1629.82 686.678 1630.04 690.274 1629.99 C 693.006 1629.92 695.386 1629.45 697.73 1630.75 C 703.688 1630.89 709.811 1631.11 715.756 1631.1 C 722.198 1630.67 727.714 1630.78 734.117 1631.9 C 748.897 1632.18 763.68 1632.18 778.46 1631.91 C 784.441 1630.72 786.354 1630.69 792.29 1630.99 C 798.416 1630.93 805.159 1631 811.224 1630.65 C 812.79 1629.8 812.74 1629.96 814.612 1630.17 L 829.016 1629.64 C 830.25 1628.97 830.165 1629.05 831.606 1629.21 L 843.113 1628.76 C 844.257 1627.96 844.17 1628.06 845.631 1628.25 C 909.172 1624.97 997.068 1607.18 1057.32 1588.53 z" fill="rgb(200,178,141)" transform="translate(0,0)"></path>
<path d="M 927.214 1992.46 C 930.745 1991.69 965.31 1991.81 970.474 1992.11 C 965.512 1993.07 930.484 1994.03 927.214 1992.46 z" fill="rgb(161,143,114)" transform="translate(0,0)"></path>
<path d="M 1118.19 1906.46 C 1119.45 1913.29 1119.26 1924.96 1118.85 1932.12 C 1117.95 1924.97 1117.76 1913.74 1118.19 1906.46 z" fill="rgb(161,143,114)" transform="translate(0,0)"></path>
<path d="M 391.166 1921.3 C 390.777 1914.2 390.491 1909.54 391.884 1902.54 C 392.239 1909.16 391.994 1914.68 391.166 1921.3 z" fill="rgb(161,143,114)" transform="translate(0,0)"></path>
<path d="M 715.756 1631.1 C 722.198 1630.67 727.714 1630.78 734.117 1631.9 C 727.569 1632.21 722.257 1632.22 715.756 1631.1 z" fill="rgb(136,120,92)" transform="translate(0,0)"></path>
<path d="M 778.46 1631.91 C 784.441 1630.72 786.354 1630.69 792.29 1630.99 C 786.338 1632.25 784.47 1632.17 778.46 1631.91 z" fill="rgb(161,143,114)" transform="translate(0,0)"></path>
<path d="M 391.176 1962.71 C 392.009 1968.65 392.24 1970.71 391.512 1976.62 C 390.672 1971.76 390.987 1967.62 391.176 1962.71 z" fill="rgb(161,143,114)" transform="translate(0,0)"></path>
<path d="M 979.95 1992.04 C 983.663 1991.17 985.069 1990.55 988.786 1991.29 C 986.144 1992.6 982.945 1992.12 979.95 1992.04 z" fill="rgb(161,143,114)" transform="translate(0,0)"></path>
<path d="M 590.958 1992.03 C 594.591 1991.26 596.145 1990.64 599.779 1991.29 C 597.207 1992.66 593.939 1992.15 590.958 1992.03 z" fill="rgb(161,143,114)" transform="translate(0,0)"></path>
<path d="M 690.274 1629.99 C 693.006 1629.92 695.386 1629.45 697.73 1630.75 C 694.251 1631.25 693.68 1630.97 690.274 1629.99 z" fill="rgb(161,143,114)" transform="translate(0,0)"></path>
<path d="M 1117.26 1889.28 C 1118.34 1891.32 1118.11 1892.32 1117.78 1894.62 C 1116.7 1892.61 1116.95 1891.5 1117.26 1889.28 z" fill="rgb(161,143,114)" transform="translate(0,0)"></path>
<path d="M 393.236 1877.62 C 392.889 1875.44 392.69 1875.1 393.721 1873.27 C 393.967 1875.41 394.207 1875.75 393.236 1877.62 z" fill="rgb(161,143,114)" transform="translate(0,0)"></path>
<path d="M 903.224 1991.36 C 905.297 1991.12 905.759 1990.89 907.627 1991.85 C 905.413 1992.17 905.071 1992.37 903.224 1991.36 z" fill="rgb(161,143,114)" transform="translate(0,0)"></path>
<path d="M 811.224 1630.65 C 812.79 1629.8 812.74 1629.96 814.612 1630.17 C 813.272 1631.18 812.841 1630.92 811.224 1630.65 z" fill="rgb(161,143,114)" transform="translate(0,0)"></path>
<path d="M 1115.31 1862.23 C 1116.22 1863.78 1116.01 1863.74 1115.75 1865.6 C 1114.82 1864.14 1115.08 1864.13 1115.31 1862.23 z" fill="rgb(161,143,114)" transform="translate(0,0)"></path>
<path d="M 524.222 1991.38 C 526.102 1991.18 526.128 1990.92 527.614 1991.81 C 525.771 1992.03 525.79 1992.23 524.222 1991.38 z" fill="rgb(161,143,114)" transform="translate(0,0)"></path>
<path d="M 829.016 1629.64 C 830.25 1628.97 830.165 1629.05 831.606 1629.21 C 830.567 1629.97 830.543 1629.77 829.016 1629.64 z" fill="rgb(161,143,114)" transform="translate(0,0)"></path>
<path d="M 615.139 1990.79 C 616.357 1990.07 616.291 1990.17 617.771 1990.33 C 616.618 1990.99 616.643 1990.84 615.139 1990.79 z" fill="rgb(161,143,114)" transform="translate(0,0)"></path>
<path d="M 629.38 1989.77 C 630.844 1988.98 630.91 1989.16 632.69 1989.28 C 631.208 1990.21 631.22 1989.99 629.38 1989.77 z" fill="rgb(161,143,114)" transform="translate(0,0)"></path>
<path d="M 1003.19 1990.79 C 1004.36 1990.08 1004.31 1990.18 1005.75 1990.3 C 1004.63 1990.97 1004.66 1990.82 1003.19 1990.79 z" fill="rgb(161,143,114)" transform="translate(0,0)"></path>
<path d="M 843.113 1628.76 C 844.257 1627.96 844.17 1628.06 845.631 1628.25 C 844.58 1628.94 844.566 1628.78 843.113 1628.76 z" fill="rgb(161,143,114)" transform="translate(0,0)"></path>
<path d="M 676.414 1629.22 C 677.813 1629.13 677.754 1629.05 678.989 1629.7 C 677.469 1629.8 677.436 1629.99 676.414 1629.22 z" fill="rgb(161,143,114)" transform="translate(0,0)"></path>
<path d="M 874.288 1989.31 C 875.763 1989.23 875.623 1989.13 876.831 1989.75 C 875.369 1989.82 875.39 1989.97 874.288 1989.31 z" fill="rgb(161,143,114)" transform="translate(0,0)"></path>
<path d="M 862.313 1988.31 C 863.678 1988.25 863.68 1988.15 864.813 1988.77 C 863.375 1988.82 863.393 1988.97 862.313 1988.31 z" fill="rgb(161,143,114)" transform="translate(0,0)"></path>
<path d="M 651.366 1627.29 C 652.363 1627.27 652.281 1627.27 653.166 1627.73 C 652.26 1627.67 652.068 1627.78 651.366 1627.29 z" fill="rgb(161,143,114)" transform="translate(0,0)"></path>
<path d="M 506.233 1990.35 C 507.265 1990.31 507.174 1990.3 508.089 1990.76 C 507.167 1990.7 506.998 1990.79 506.233 1990.35 z" fill="rgb(161,143,114)" transform="translate(0,0)"></path>
<path d="M 493.224 1989.39 C 494.249 1989.33 494.144 1989.31 495.107 1989.73 C 494.188 1989.7 494.003 1989.8 493.224 1989.39 z" fill="rgb(161,143,114)" transform="translate(0,0)"></path>
<path d="M 889.225 1990.45 C 890.209 1990.44 890.113 1990.4 891.009 1990.82 C 890.092 1990.77 889.992 1990.86 889.225 1990.45 z" fill="rgb(161,143,114)" transform="translate(0,0)"></path>
<path d="M 395.253 1853.04 C 395.3 1852.15 395.204 1852.01 395.642 1851.29 C 395.62 1852.31 395.667 1852.11 395.253 1853.04 z" fill="rgb(161,143,114)" transform="translate(0,0)"></path>
<path d="M 1018.88 1989.76 C 1019.79 1989.33 1019.72 1989.32 1020.73 1989.33 C 1019.98 1989.79 1019.8 1989.69 1018.88 1989.76 z" fill="rgb(136,120,92)" transform="translate(0,0)"></path>
<path d="M 653.958 1987.71 C 654.895 1987.34 654.722 1987.34 655.701 1987.34 C 654.984 1987.79 654.852 1987.68 653.958 1987.71 z" fill="rgb(161,143,114)" transform="translate(0,0)"></path>
<path d="M 469.275 1987.33 C 470.303 1987.35 470.111 1987.31 471.064 1987.71 C 470.158 1987.67 470.011 1987.78 469.275 1987.33 z" fill="rgb(161,143,114)" transform="translate(0,0)"></path>
<path d="M 852.293 1987.33 C 853.296 1987.39 853.11 1987.34 854.021 1987.76 C 853.129 1987.7 853.006 1987.8 852.293 1987.33 z" fill="rgb(161,143,114)" transform="translate(0,0)"></path>
<path d="M 480.258 1988.34 C 481.306 1988.34 481.091 1988.3 482.049 1988.73 C 481.155 1988.68 481.002 1988.77 480.258 1988.34 z" fill="rgb(161,143,114)" transform="translate(0,0)"></path>
<path d="M 1029.98 1988.72 C 1030.86 1988.33 1030.78 1988.33 1031.71 1988.34 C 1030.98 1988.77 1030.88 1988.67 1029.98 1988.72 z" fill="rgb(136,120,92)" transform="translate(0,0)"></path>
<path d="M 336.825 1191.38 C 369.669 1205.77 403.62 1217.49 438.349 1226.43 C 450.073 1229.52 461.981 1231.85 473.727 1234.86 C 471.559 1242.97 469.178 1251.33 467.473 1259.52 C 460.373 1283.9 453.698 1315.33 448.545 1340.34 C 435.293 1401.98 426.344 1464.47 421.764 1527.36 C 420.679 1542.61 418.899 1562.98 418.887 1578.14 C 429.613 1581.47 440.368 1584.71 451.152 1587.85 C 440.855 1621.97 432.375 1656.9 422.364 1690.02 C 371.165 1665.6 338.883 1623.32 320.317 1570.55 C 311.211 1544.66 301.415 1498.08 300.74 1470.67 C 299.804 1469.2 300.004 1469.23 300.286 1467.35 C 298.443 1440.57 298.439 1413.7 300.273 1386.92 C 300.173 1385.39 300.002 1385.4 300.713 1384.27 C 301.122 1371.02 303.716 1351.98 305.524 1338.49 C 311.081 1296.52 319.166 1254.92 329.736 1213.91 C 332.185 1206.43 334.548 1198.92 336.825 1191.38 z" fill="rgb(229,166,139)" transform="translate(0,0)"></path>
<path d="M 336.825 1191.38 C 369.669 1205.77 403.62 1217.49 438.349 1226.43 C 450.073 1229.52 461.981 1231.85 473.727 1234.86 C 471.559 1242.97 469.178 1251.33 467.473 1259.52 C 457.983 1256.82 447.559 1255.16 437.872 1252.6 C 400.398 1242.73 365.247 1229.29 329.736 1213.91 C 332.185 1206.43 334.548 1198.92 336.825 1191.38 z" fill="rgb(191,130,99)" transform="translate(0,0)"></path>
<path d="M 300.286 1467.35 C 301.077 1468.84 300.861 1468.88 300.74 1470.67 C 299.804 1469.2 300.004 1469.23 300.286 1467.35 z" fill="rgb(152,106,69)" transform="translate(0,0)"></path>
<path d="M 300.273 1386.92 C 300.173 1385.39 300.002 1385.4 300.713 1384.27 C 300.804 1385.79 300.888 1385.63 300.273 1386.92 z" fill="rgb(152,106,69)" transform="translate(0,0)"></path>
<path d="M 1037.22 1234.84 C 1083.49 1224.59 1130.9 1210.82 1173.86 1190.62 C 1176.14 1197.28 1178.54 1206.41 1180.39 1213.22 C 1196.16 1281.41 1212.18 1361.55 1210.91 1431.85 C 1211.07 1434.86 1211.67 1439.19 1210.33 1441.78 C 1208.6 1537.62 1181.42 1646.22 1087.33 1691.27 C 1078.59 1656.73 1069.25 1622.35 1059.33 1588.13 C 1069.18 1585.55 1082.37 1580.82 1092.31 1577.57 C 1087.49 1507.25 1080.89 1440.29 1068.02 1370.93 C 1061.2 1334.18 1052.5 1296.61 1043.64 1260.3 C 1042.38 1253.51 1039.02 1241.84 1037.22 1234.84 z" fill="rgb(229,166,139)" transform="translate(0,0)"></path>
<path d="M 1037.22 1234.84 C 1083.49 1224.59 1130.9 1210.82 1173.86 1190.62 C 1176.14 1197.28 1178.54 1206.41 1180.39 1213.22 C 1136.31 1236.05 1091.7 1248.83 1043.64 1260.3 C 1042.38 1253.51 1039.02 1241.84 1037.22 1234.84 z" fill="rgb(191,130,99)" transform="translate(0,0)"></path>
<path d="M 1210.91 1431.85 C 1211.07 1434.86 1211.67 1439.19 1210.33 1441.78 C 1209.8 1437.88 1210.28 1435.71 1210.91 1431.85 z" fill="rgb(191,130,99)" transform="translate(0,0)"></path>
<path d="M 1109.41 939.474 C 1149.13 983.41 1185.41 1057.25 1201.71 1114.24 L 1200.03 1115.22 C 1189.62 1083.16 1178.15 1055.98 1164.07 1025.63 C 1161.62 1022.38 1161.01 1020.78 1159.64 1016.99 C 1148.58 994.668 1135.16 973.601 1119.6 954.149 C 1118.98 953.633 1119.07 953.757 1118.68 953.06 C 1115.85 949.516 1111.97 945.405 1108.89 941.951 L 1109.41 939.474 z" fill="rgb(65,63,62)" transform="translate(0,0)"></path>
<path d="M 1159.64 1016.99 C 1161.95 1020.17 1162.94 1021.8 1164.07 1025.63 C 1161.62 1022.38 1161.01 1020.78 1159.64 1016.99 z" fill="rgb(146,143,140)" transform="translate(0,0)"></path>
<path d="M 1075.36 909.007 C 1080.94 912.47 1093.03 922.918 1097.53 927.844 L 1095.62 928.55 C 1093.48 926.466 1085.64 919.637 1083.08 917.386 C 1082.23 916.334 1082.48 916.557 1081.36 915.803 L 1079.47 914.805 L 1075.36 909.007 z" fill="rgb(99,97,94)" transform="translate(0,0)"></path>
<path d="M 1097.53 927.844 C 1101.27 930.676 1106.28 935.911 1109.41 939.474 L 1108.89 941.951 C 1104.52 937.466 1099.9 933.055 1095.62 928.55 L 1097.53 927.844 z" fill="rgb(99,97,94)" transform="translate(0,0)"></path>
<path d="M 322.482 1182.58 L 325.166 1183.71 L 323.269 1184.81 L 321.89 1184.23 L 322.482 1182.58 z" fill="rgb(146,143,140)" transform="translate(0,0)"></path>
<metadata><recraft-signature>{"signed_by": "recraft", "signature_b64": "6mYOUsnW9Hc1rJcvKdQO3mPAofEcPP3HmAxU1AwVRcfolvQJQYq8YmkWVXMpcM2ZplYnJ/FjCvIBxv+elitBAg==", "signing_algo": "Ed25519", "generation_timestamp": 1779108798, "identifier": "4cede3b0-2aa4-4309-b5a4-8920e457c0da"}</recraft-signature></metadata></svg>