<svg xmlns="http://www.w3.org/2000/svg" height="1216" preserveAspectRatio="none" style="display: block;" version="1.1" viewBox="0 0 1509 2048" width="896">
<path d="M 0 0 L 1509 0 L 1509 2048 L 0 2048 L 0 0 z" fill="rgb(255,255,255)" transform="translate(0,0)"></path>
<path d="M 365.823 547.154 C 365.72 530.33 365.834 513.426 365.679 496.622 C 363.743 286.858 542.609 104.891 752.697 104.005 C 854.569 103.596 952.44 143.629 1024.82 215.314 C 1088.3 277.386 1129.23 358.875 1141.13 446.856 C 1145.01 477.535 1144.64 505.958 1144.7 536.734 L 1144.72 546.759 C 1201.78 574.274 1224.3 634.282 1197.62 693.071 C 1188.04 714.194 1166.49 735.047 1144.65 743.643 C 1142.26 783.046 1142.92 818.198 1170.38 849.437 C 1185.32 866.393 1206.38 876.711 1228.93 878.118 C 1253.46 879.68 1267.41 871.145 1284.61 855.108 C 1282.34 870.134 1280.18 884.775 1275.69 899.323 C 1260.76 947.718 1229.4 992.35 1188.63 1022.28 C 1177.92 1030.1 1166.65 1037.14 1154.92 1043.33 C 1080.45 1083.43 973.46 1110.31 888.213 1114.29 C 902.307 1128.04 921.934 1149.87 937.305 1161.1 C 958.179 1172.98 983.211 1168.72 1004.67 1179.83 C 1013.48 1184.4 1019.07 1194.26 1026.96 1197.69 C 1113.9 1235.44 1182.51 1288.98 1241.47 1362.72 C 1269.19 1364.66 1276.93 1379.49 1277.32 1405.04 C 1283.92 1404.93 1291.91 1403.63 1296.38 1407.84 C 1297.36 1410.97 1297.42 1410.8 1296.46 1413.89 C 1294.67 1415.35 1295.17 1415.38 1293.19 1415.87 L 1289.04 1417.17 C 1287.9 1421.1 1301.29 1437.33 1303.86 1442.05 C 1316.75 1465.66 1332.51 1490.34 1341.69 1515.74 L 1343.74 1520.24 C 1352.65 1538.07 1360.09 1556.6 1365.98 1575.64 L 1367.53 1582.44 C 1384.03 1621.76 1398.3 1704.24 1402.28 1745.87 C 1403.43 1758.81 1404.42 1771.76 1405.25 1784.72 C 1405.51 1788.55 1406.06 1800.28 1406.66 1803.2 C 1407.01 1806.61 1407.3 1808.47 1407.01 1811.92 C 1406.68 1817.98 1403.98 1857.47 1404.38 1861.33 C 1406.94 1872.96 1393.82 1899.99 1387.78 1909.88 C 1351.96 1968.64 1291.48 1959.23 1232.9 1959.06 C 1199.36 1958.96 1164.84 1959.99 1131.39 1959.02 C 1107.35 1958.8 1082.84 1959.27 1058.96 1958.93 C 1042.74 1959.03 1024.87 1959.18 1008.8 1958.18 C 1003.23 1959.56 970.342 1959.08 962.502 1959.08 L 869.035 1959.4 L 360.129 1959.01 C 360.185 1954.22 361.058 1944.53 358.265 1941.29 C 349.449 1944.54 325.126 1955.02 317.069 1953.59 C 313.733 1950.73 313.825 1949.46 314.319 1945.17 C 311.948 1944.1 248.866 1962.05 239.273 1963.51 C 228.74 1965.15 218.01 1965.08 207.499 1963.3 C 174.332 1958.04 144.702 1939.59 125.339 1912.15 C 76.6914 1842.55 116.905 1783.46 141.944 1715.36 C 145.911 1704.57 154.83 1685.21 156.528 1674.57 L 156.687 1673.51 C 156.859 1667.26 160.299 1657.89 162.304 1651.67 C 152.675 1647.42 140.201 1645.84 132.2 1638.73 C 128.473 1635.42 125.959 1630.72 125.777 1625.69 C 125.228 1610.53 162.471 1532.25 171.34 1514.63 C 225.826 1406.36 300.422 1310.73 402.783 1243.79 C 428.269 1227.12 455.543 1214.42 481.922 1199.48 C 491.8 1193.88 498.444 1184.33 508.633 1178.92 C 519.57 1173.12 531.51 1172.3 543.476 1170.3 C 553.79 1168.58 566.353 1166.06 575.483 1160.83 C 584.685 1155.55 613.156 1124.01 622.532 1114.32 C 532.049 1107.65 435.434 1085.82 355.07 1043.5 C 346.636 1040.25 322.867 1023.53 315.537 1017.54 C 261.759 973.592 234.684 922.928 226.422 855.186 C 256.512 888.985 307.966 883.79 338.294 852.823 C 370.302 820.139 368.052 786.472 367.762 744.745 C 339.844 732.525 320.176 712.661 308.863 684.135 C 288.465 632.706 312.982 567.131 365.823 547.154 z" fill="rgb(37,23,16)" transform="translate(0,0)"></path>
<path d="M 365.823 547.154 C 365.72 530.33 365.834 513.426 365.679 496.622 C 363.743 286.858 542.609 104.891 752.697 104.005 C 854.569 103.596 952.44 143.629 1024.82 215.314 C 1088.3 277.386 1129.23 358.875 1141.13 446.856 C 1145.01 477.535 1144.64 505.958 1144.7 536.734 L 1144.72 546.759 C 1138.03 544.222 1131.12 542.357 1124.06 541.19 C 1118.25 540.238 1095.44 539.565 1093.28 537.625 C 1093.11 535.544 1092.9 529.75 1090.6 528.869 C 1050.62 513.543 1016.32 491.331 984.095 463.019 C 941.475 424.836 907.101 378.354 883.078 326.419 C 877.429 314.446 872.558 302.738 868.382 290.149 C 866.496 284.466 865.765 278.688 859.29 277.335 C 857.203 278.341 839.787 302.018 836.684 305.963 C 827.351 317.635 817.608 328.972 807.471 339.953 C 732.264 422.855 634.447 481.946 526.072 509.943 C 495.702 517.941 464.171 524.296 432.783 526.29 C 428.401 526.569 422.648 526.31 419.379 529.256 C 417.321 532.363 417.638 535.517 417.459 539.369 C 397.04 539.312 385.127 539.931 365.823 547.154 z" fill="rgb(118,60,8)" transform="translate(0,0)"></path>
<path d="M 825.686 177.592 C 829.516 177.781 830.656 178.817 832.594 181.808 C 832.937 193.622 769.845 263.284 758.997 274.57 C 665.559 371.772 558.904 430.177 428.148 461.467 C 426.537 461.13 426.073 460.744 424.533 459.993 C 417.798 449.668 428.622 449.922 434.708 448.431 C 479.506 437.454 521.707 423.013 563.371 403.212 C 645.118 363.391 717.843 307.251 777.067 238.252 C 786.845 227.069 796.296 215.604 805.409 203.872 C 811.402 196.081 818.714 185.505 824.984 178.382 L 825.686 177.592 z" fill="rgb(37,23,16)" transform="translate(0,0)"></path>
<path d="M 902.572 219.334 C 911.695 219.641 927.562 229.218 935.806 233.974 C 1006.68 274.552 1058.51 341.656 1079.86 420.488 C 1082.7 431.13 1090.06 457.898 1084.87 466.897 C 1077.23 467.439 1076.76 464.25 1075.91 457.717 C 1064.29 368.255 1007.84 288.239 930.195 243.215 C 923.061 239.078 905.763 232.931 901.341 227.285 C 900.392 224.087 901.364 222.676 902.572 219.334 z" fill="rgb(37,23,16)" transform="translate(0,0)"></path>
<path d="M 703.917 198.145 C 706.589 199.429 707.478 201.044 708.263 203.736 C 707.283 206.996 704.845 209.988 701.383 210.889 C 620.552 231.925 542.508 273.683 490.538 340.53 C 484.251 348.617 467.286 377.868 462.267 381.502 C 458.196 379.353 457.794 378.937 456.479 375.486 C 456.723 371.741 463.607 359.87 465.947 356.19 C 520.075 271.081 609.204 223.795 703.917 198.145 z" fill="rgb(37,23,16)" transform="translate(0,0)"></path>
<path d="M 946.738 313.37 C 951.163 315.434 964.349 336.198 968.204 341.489 C 977.738 354.306 987.815 366.711 998.407 378.669 C 1002.83 383.743 1014.65 393.521 1016.8 397.446 C 1016.81 400.845 1015.37 401.963 1013.14 404.75 C 1009.08 404.245 1007.28 402.702 1004.36 399.963 C 993.05 389.361 940.717 330.526 941.927 319.541 C 942.255 316.568 944.653 315.233 946.738 313.37 z" fill="rgb(37,23,16)" transform="translate(0,0)"></path>
<path d="M 556.655 1703.03 C 551.686 1674.93 552.645 1656.25 569.41 1631.11 C 576.021 1621.2 590.3 1607.06 600.654 1601.02 C 602.155 1605.04 604.666 1613.17 606.873 1616.52 C 620.164 1636.71 603.32 1654.03 634.095 1662.33 C 671.215 1672.34 706.224 1673.26 744.146 1674.48 C 798.524 1675.22 849.344 1669.18 900.808 1651.67 C 913.343 1647.4 919.291 1667.01 903.053 1680.08 C 865.698 1710.15 818.391 1716.08 771.881 1716.81 C 765.382 1716.89 753.261 1714.04 751.78 1720.47 L 751.38 1722.2 C 754.435 1729.64 767.406 1727.45 773.893 1727.46 C 820.304 1727.59 865.72 1720.07 904.383 1693 C 906.497 1691.52 910.735 1693.84 912.612 1695.76 C 921.582 1715.7 877.611 1742.62 863.077 1748.82 C 839.487 1758.87 815.532 1764.44 789.959 1766.51 C 780.328 1767.29 755.919 1764.19 751.141 1772.11 C 751.221 1775.86 750.765 1774.39 753.059 1777.47 C 758.758 1779.28 769.104 1778.11 775.448 1777.91 C 811.983 1776.73 845.093 1769.41 878.269 1753.99 C 885.885 1750.45 890.37 1742.68 898.43 1744.06 C 908.048 1750.98 899.82 1764.63 893.753 1771.42 C 865.942 1802.55 818.651 1814.38 778.483 1818.88 C 772 1819.54 761.545 1818.4 757.261 1822.36 C 757.04 1826.48 756.652 1824.91 758.572 1828.38 C 766.723 1833.69 799.203 1827.2 809.572 1825.03 C 825.649 1821.75 841.314 1816.7 856.281 1809.98 C 859.784 1808.44 869.347 1803.41 872.217 1803.89 C 877.143 1817.77 844.436 1840.22 833.788 1846.01 C 762.806 1884.64 682.434 1873.58 611.351 1842.63 L 406.048 1913.13 C 375.932 1923.6 344.527 1935.43 314.319 1945.17 C 311.948 1944.1 248.866 1962.05 239.273 1963.51 C 228.74 1965.15 218.01 1965.08 207.499 1963.3 C 174.332 1958.04 144.702 1939.59 125.339 1912.15 C 76.6914 1842.55 116.905 1783.46 141.944 1715.36 C 145.911 1704.57 154.83 1685.21 156.528 1674.57 L 156.687 1673.51 C 164.081 1679.12 191.424 1687.93 201.245 1691.43 L 284.174 1721.3 C 295.795 1725.41 317.506 1732.19 327.952 1736.76 C 322.979 1747.65 315.751 1762.82 312.365 1774.02 C 272.613 1786.75 232.944 1799.74 193.362 1812.99 L 160.752 1824.14 C 153.587 1826.52 147.707 1826.06 143.798 1833.18 C 143.685 1836.48 143.195 1835.03 145.541 1837.61 C 149.622 1838.84 151.393 1838.41 155.872 1836.95 C 195.899 1823.93 236.144 1810.49 275.966 1796.94 L 434.275 1744.27 L 517.519 1716.84 C 525.833 1714.09 549.923 1706.6 556.655 1703.03 z" fill="rgb(206,130,101)" transform="translate(0,0)"></path>
<path d="M 914.844 1683.86 C 918.293 1679.18 925.474 1670.36 924.297 1664.29 C 923.69 1661.15 921.393 1656.06 922.033 1653.49 C 925.238 1649.82 938 1647.55 943.375 1645.45 C 995.139 1625.26 1028.86 1593.92 1025.04 1535.67 C 1034.33 1548.89 1042.41 1562.11 1057.17 1569.57 C 1064.19 1589.49 1070.82 1612.32 1076.59 1632.74 C 1024.18 1631.98 1022.56 1639.53 1002.17 1685.93 C 991.492 1692.01 978.811 1721.85 973.683 1734.45 C 966.315 1752.55 986.4 1771.68 1004.49 1760.56 C 1029.44 1737.85 1022.94 1685.72 1049.39 1664.89 C 1051.73 1663.25 1081.48 1664.15 1088.18 1663.98 C 1100.38 1714.68 1112.97 1746.75 1119.88 1801.4 C 1114.77 1803.44 1112.76 1804.23 1108.1 1807.11 C 1094.45 1798.07 1086.33 1799.18 1072.8 1807.17 C 1060.45 1798.23 1050.76 1799.01 1038.36 1807.25 C 1025.23 1799.9 1016.07 1796.87 1003 1807.26 C 981.726 1795.06 965.07 1800.18 960.577 1826.38 C 958.781 1836.86 960.809 1849.09 960.118 1859.79 C 960.352 1873.38 959.255 1888.87 960.334 1902.34 C 960.727 1907.68 961.735 1912.96 963.336 1918.07 C 970.58 1940.83 986.832 1951.74 1008.8 1958.18 C 1003.23 1959.56 970.342 1959.08 962.502 1959.08 L 869.035 1959.4 L 360.129 1959.01 C 360.185 1954.22 361.058 1944.53 358.265 1941.29 C 379.972 1933.01 406.683 1924.91 429.073 1917.17 L 611.035 1853.8 C 671.249 1882.11 747.845 1891.11 811.171 1867.91 C 836.918 1858.48 891.689 1831.55 880.96 1797.87 C 896.389 1784.76 931.253 1755.04 904.513 1735.24 C 917.943 1721.75 936.493 1700.12 914.844 1683.86 z" fill="rgb(216,205,186)" transform="translate(0,0)"></path>
<path d="M 1088.21 751.281 C 1107.08 754.963 1127.07 750.389 1144.65 743.643 C 1142.26 783.046 1142.92 818.198 1170.38 849.437 C 1185.32 866.393 1206.38 876.711 1228.93 878.118 C 1253.46 879.68 1267.41 871.145 1284.61 855.108 C 1282.34 870.134 1280.18 884.775 1275.69 899.323 C 1260.76 947.718 1229.4 992.35 1188.63 1022.28 C 1177.92 1030.1 1166.65 1037.14 1154.92 1043.33 C 1148.99 1040.22 1138.38 1039.78 1131.88 1037.56 C 1105.03 1028.38 1080.07 1014.65 1061.98 992.037 C 1042.72 967.948 1029.97 929.832 1034.26 899.008 C 1035.27 891.711 1048.41 873.551 1052.69 865.226 C 1072.32 827.077 1083.46 793.635 1088.21 751.281 z" fill="rgb(118,60,8)" transform="translate(0,0)"></path>
<path d="M 1104.73 850.346 C 1105.73 850.46 1109.97 851.027 1110.49 852.073 C 1113.85 858.811 1114.4 866.297 1117.14 873.535 C 1121.42 884.925 1128.05 895.291 1136.59 903.964 C 1150.08 917.482 1163.6 924.569 1182.82 927.182 C 1189.23 928.053 1198.87 928.177 1202.76 933.367 C 1202.66 937.529 1202.8 936.118 1200.28 940.073 C 1179.61 940.772 1159.25 934.956 1142.07 923.448 C 1121.23 909.222 1108.27 887.83 1102.54 863.105 C 1101.35 857.988 1101.79 854.604 1104.73 850.346 z" fill="rgb(37,23,16)" transform="translate(0,0)"></path>
<path d="M 1076.74 904.345 L 1080.5 904.786 C 1085.61 907.614 1090.86 929.727 1095.76 937.296 C 1100.54 945.525 1107.87 954.282 1115.58 959.981 C 1128.3 969.382 1144.14 972.975 1158.69 978.296 C 1159.15 978.978 1159.6 979.661 1160.05 980.343 C 1160.04 983.91 1159.5 984.314 1157.54 987.505 C 1123.51 985.028 1088.91 959.712 1077.74 927.204 C 1074.81 918.66 1070.24 912.169 1076.74 904.345 z" fill="rgb(37,23,16)" transform="translate(0,0)"></path>
<path d="M 367.762 744.745 C 390.013 752.688 398.098 752.633 421.726 751.913 C 427.481 803.55 448.168 854.462 477 897.471 C 477.193 912.002 477.43 924.052 474.66 937.836 C 463.914 991.313 417.939 1030.75 365.321 1040.31 C 362.689 1040.79 357.256 1042.15 355.07 1043.5 C 346.636 1040.25 322.867 1023.53 315.537 1017.54 C 261.759 973.592 234.684 922.928 226.422 855.186 C 256.512 888.985 307.966 883.79 338.294 852.823 C 370.302 820.139 368.052 786.472 367.762 744.745 z" fill="rgb(118,60,8)" transform="translate(0,0)"></path>
<path d="M 401.824 849.453 C 422.402 855.094 390.676 901.113 383.427 909.445 C 363.929 931.857 340.609 938.808 311.815 940.201 C 307.759 939.008 307.28 937.678 306.391 934.026 C 307.106 932.443 307.744 930.095 309.785 929.933 C 348.072 926.887 380.815 910.817 392.847 871.994 C 394.464 866.779 398.325 852.93 401.824 849.453 z" fill="rgb(37,23,16)" transform="translate(0,0)"></path>
<path d="M 427.859 904.699 C 429.494 904.862 431.374 905.188 433.025 905.429 C 442.08 913.378 428.425 935.544 423.386 943.643 C 407.224 969.625 384.827 981.127 355.745 987.667 C 352.143 987.767 351.633 987.449 349.221 985.657 C 348.025 981.78 347.937 983.268 348.902 979.572 C 355.387 972.647 370.526 973.339 381.369 967.411 C 410.479 951.496 418.131 933.675 427.859 904.699 z" fill="rgb(37,23,16)" transform="translate(0,0)"></path>
<path d="M 1367.53 1582.44 C 1384.03 1621.76 1398.3 1704.24 1402.28 1745.87 C 1403.43 1758.81 1404.42 1771.76 1405.25 1784.72 C 1405.51 1788.55 1406.06 1800.28 1406.66 1803.2 C 1356.4 1801.3 1304.39 1804.39 1254 1803.13 C 1241.66 1802.82 1229.11 1803.48 1216.76 1802.9 C 1207.49 1802.46 1200.08 1800.74 1190.66 1801.19 L 1215.37 1750.36 C 1232.33 1715.64 1247.11 1688.35 1240.1 1647.15 C 1233.57 1608.73 1206.42 1604.98 1178.05 1585.84 C 1237.89 1584.81 1298.29 1586.36 1358.17 1585.71 C 1363.63 1585.65 1364.33 1585.8 1367.53 1582.44 z" fill="rgb(204,187,164)" transform="translate(0,0)"></path>
<path d="M 1024.17 1442.64 C 1038.11 1422.57 1052.78 1416.08 1076.62 1415.92 C 1148.73 1415.44 1221.1 1416.95 1293.19 1415.87 L 1289.04 1417.17 C 1287.9 1421.1 1301.29 1437.33 1303.86 1442.05 C 1316.75 1465.66 1332.51 1490.34 1341.69 1515.74 C 1311.37 1514.54 1274.53 1515.26 1243.69 1515.22 L 1025.47 1515.36 C 1022.76 1506.23 1021.25 1496.49 1020.4 1487.03 C 1046.69 1487.05 1073.56 1497.75 1074.13 1465.99 C 1074.74 1432.42 1049.91 1443.18 1024.17 1442.64 z" fill="rgb(216,205,186)" transform="translate(0,0)"></path>
<path d="M 1343.74 1520.24 C 1352.65 1538.07 1360.09 1556.6 1365.98 1575.64 C 1348.99 1574.22 1315.65 1575.22 1297.82 1575.24 L 1159.72 1575.51 C 1100.08 1575.51 1066.96 1583.9 1031.03 1525.92 L 1249.07 1526.2 L 1309.92 1526.23 C 1316.4 1526.23 1334.58 1526.61 1339.99 1525.73 C 1342.62 1524.08 1342.59 1523.35 1343.74 1520.24 z" fill="rgb(172,142,111)" transform="translate(0,0)"></path>
<path d="M 976.495 1860.17 C 973.618 1860.49 971.715 1860.95 969.782 1858.94 C 969.4 1848.93 967.91 1828.75 971.374 1821.57 C 980.429 1802.8 991.636 1812.18 1001.76 1821.07 C 1005.45 1824.31 1010.49 1813.44 1015.14 1811.46 C 1028.24 1805.92 1030.38 1819.12 1037.54 1821.6 C 1042.74 1820.95 1045.48 1813.42 1050.24 1811.27 C 1063.68 1805.23 1065.79 1819.4 1072.53 1821.42 C 1077.75 1820.73 1080.98 1813.49 1084.94 1811.53 C 1099.32 1804.42 1100.65 1819.58 1109.45 1821.67 C 1116.6 1819.42 1118.02 1806.5 1129.43 1810.15 C 1137.58 1812.75 1136.86 1820.48 1145.66 1821.06 C 1158.55 1816.13 1156.32 1795.09 1179.18 1824.06 C 1191.86 1807.43 1198.64 1803.06 1213.24 1822.4 C 1214.67 1826.04 1214.04 1853.87 1214 1859.65 L 1049.94 1859.74 L 1003.52 1859.64 C 996.489 1859.62 983.103 1859.28 976.495 1860.17 z" fill="rgb(216,205,186)" transform="translate(0,0)"></path>
<path d="M 1213.24 1822.4 C 1220.38 1819.35 1217.06 1814.58 1220.62 1814.2 C 1231.05 1813.1 1246.06 1813.72 1256.47 1813.73 L 1351.05 1813.61 C 1360.61 1813.63 1402.09 1815.08 1407.01 1811.92 C 1406.68 1817.98 1403.98 1857.47 1404.38 1861.33 C 1395.25 1859.89 1373.96 1860.48 1363.81 1860.52 L 1294.25 1860.77 L 1090.25 1860.9 C 1054.82 1860.89 1011.01 1862.14 976.495 1860.17 C 983.103 1859.28 996.489 1859.62 1003.52 1859.64 L 1049.94 1859.74 L 1214 1859.65 C 1214.04 1853.87 1214.67 1826.04 1213.24 1822.4 z" fill="rgb(204,187,164)" transform="translate(0,0)"></path>
<path d="M 1058.96 1958.93 C 1059.22 1956.11 1059.55 1953.3 1059.96 1950.49 C 1064.26 1919.32 1106.12 1907.65 1124 1935 C 1131.36 1946.26 1128.05 1948.15 1131.39 1959.02 C 1107.35 1958.8 1082.84 1959.27 1058.96 1958.93 z" fill="rgb(216,205,186)" transform="translate(0,0)"></path>
<path d="M 857.575 295.783 C 859.349 297.491 865.434 313.898 867.202 317.899 C 910.883 416.741 981.85 495.577 1081.96 536.97 C 1082.27 552.841 1080.46 628.551 1083.64 638.021 C 1091.16 643.59 1091.28 633.749 1095.51 630.013 C 1128.56 623.885 1141.12 669.684 1112.3 684.452 C 1105.93 687.717 1093 691.002 1090.06 696.709 L 1091.08 699.122 C 1105.52 712.211 1138.17 681.518 1139.29 662.642 C 1140.91 635.538 1137.12 625.875 1122.3 604.458 C 1132.99 605.264 1139.22 605.603 1148.29 611.984 C 1151.39 614.17 1154.04 616.456 1157.61 617.566 C 1161.37 616.639 1160.05 617.46 1162.55 614.439 C 1162.67 611.701 1163.03 610.418 1160.83 608.204 C 1140.2 587.46 1113.72 589.184 1093.06 606.996 L 1092.77 549.939 C 1111.26 549.431 1124.4 549.927 1141.83 557.62 C 1164.76 567.987 1182.72 586.915 1191.87 610.356 C 1201.08 634.671 1200.24 661.65 1189.52 685.34 C 1173.29 720.982 1134.31 745.683 1094.75 741.123 C 1091.04 740.694 1084.11 739.535 1080.78 740.798 C 1076.14 746.231 1075.66 769.281 1073.72 777.525 C 1030.32 961.597 849.334 1071.01 665.754 1021.37 C 558.625 990.942 474.446 906.909 441.667 800.672 C 435.769 781.557 434.122 762.089 429.888 742.734 C 429.241 742.03 428.594 741.326 427.947 740.622 C 424.625 739.663 411.736 742.005 405.462 741.886 C 381.554 741.433 357.958 731.487 341.192 714.58 C 322.63 696.174 312.258 671.07 312.415 644.93 C 312.705 619.81 321.965 593.885 340.487 576.708 C 364.866 554.101 386.13 549.335 417.728 549.952 C 417.959 568.987 417.78 588.025 417.19 607.052 C 399.627 591.291 379.391 589.031 358.504 600.808 C 352.491 604.198 345.99 608.813 348.359 616.742 C 349.509 617.451 350.714 618.431 352.087 617.609 C 367.598 608.33 371.604 605.18 390.181 603.96 C 362.85 633.864 360.52 686.472 404.88 700.16 C 409.538 701.598 413.222 703.225 417.933 700.934 C 420.058 697.849 419.418 698.959 419.69 694.766 C 416.062 685.896 387.388 692.268 382.205 663.333 C 380.752 655.281 382.633 646.983 387.418 640.346 C 391.826 634.311 396.953 631.356 404.352 629.879 C 414.079 627.937 418.099 638.136 424.99 638.752 L 427.182 636.68 C 428.529 631.136 428.049 609.771 428.049 603.169 L 428.031 538.192 C 444.77 535.412 462.27 534.43 480.39 531.314 C 632.11 505.225 767.541 420.657 857.575 295.783 z" fill="rgb(206,130,101)" transform="translate(0,0)"></path>
<path d="M 554.224 704.443 C 668.997 703.909 676.394 787.324 563.226 791.248 C 536.653 791.801 507.023 788.135 485.494 771.126 C 471.914 760.398 467.209 742.849 480.665 729.463 C 499.58 710.648 528.549 705.634 554.224 704.443 z" fill="rgb(246,160,145)" transform="translate(0,0)"></path>
<path d="M 945.624 704.435 C 971.255 703.141 1002.82 708.481 1024.03 723.578 C 1037.88 733.437 1044.09 751.209 1031.46 765.083 C 1015.69 782.399 985.892 789.127 963.25 791.02 C 937.356 792.019 868.75 786.22 865.972 749.679 C 863.547 717.77 919.113 705.953 945.624 704.435 z" fill="rgb(246,160,145)" transform="translate(0,0)"></path>
<path d="M 595.085 591.821 C 607.789 589.076 620.987 593.379 629.632 603.084 C 638.277 612.788 641.033 626.394 636.845 638.697 C 632.657 651.001 622.174 660.1 609.404 662.516 C 590.009 666.184 571.268 653.581 567.35 634.236 C 563.432 614.89 575.792 595.988 595.085 591.821 z" fill="rgb(37,23,16)" transform="translate(0,0)"></path>
<path d="M 905.159 591.143 C 924.548 588.43 942.537 601.748 945.604 621.085 C 948.67 640.421 935.684 658.651 916.407 662.071 C 903.619 664.34 890.603 659.528 882.367 649.486 C 874.13 639.445 871.956 625.739 876.682 613.642 C 881.408 601.545 892.296 592.942 905.159 591.143 z" fill="rgb(37,23,16)" transform="translate(0,0)"></path>
<path d="M 657.144 829.46 L 661.823 830.369 C 663.693 833.351 665.195 846.361 666.241 850.892 C 687.945 944.855 812.947 949.799 842.908 858.319 C 845.46 850.527 845.126 833.85 853.119 829.774 L 855.029 830.91 C 857.459 834.654 857.03 839.343 856.9 843.619 C 855.213 859.823 848.819 875.979 839.97 889.584 C 825.337 911.954 802.419 927.597 776.256 933.075 C 749.99 938.652 722.585 933.323 700.321 918.312 C 677.152 902.744 660.989 878.734 655.284 851.41 C 653.739 843.715 652.717 836.087 657.144 829.46 z" fill="rgb(37,23,16)" transform="translate(0,0)"></path>
<path d="M 760.74 553.426 C 769.37 554.8 768.343 559.36 767.14 566.933 C 758.938 619.955 745.751 674.678 733.725 726.58 C 726.459 757.942 770.359 764.467 790.339 752.457 C 795.431 749.397 810.98 740.45 815.529 741.774 C 817.955 746.098 816.372 747.796 813.802 751.211 C 789.251 769.611 729.292 785.091 721.979 731.522 C 721.215 725.922 731.42 689.852 733.339 681.725 C 739.44 656.664 744.797 631.428 749.403 606.049 C 751.145 596.867 756.671 558.924 760.74 553.426 z" fill="rgb(37,23,16)" transform="translate(0,0)"></path>
<path d="M 481.747 1210.92 C 482.617 1215.88 482.178 1233.7 482.137 1239.82 L 481.774 1296.93 C 481.597 1335.17 482.39 1386.97 479.505 1423.97 C 472.286 1516.54 437.753 1666.55 393.256 1747.19 C 388.088 1748.63 382.305 1750.58 377.125 1752.2 C 376.927 1712.55 381.356 1693.75 387.482 1654.4 L 401.888 1562.06 C 403.547 1551.55 405.008 1541.76 407.701 1531.4 C 408.354 1528.88 407.336 1526.66 405.81 1524.65 C 402.438 1523.03 403.928 1523.23 400.216 1523.61 C 395.716 1528.04 393.2 1552.95 391.949 1560.76 C 389.012 1578.85 385.924 1596.93 382.684 1614.97 L 376.503 1653.37 C 328.794 1636.1 280.451 1616.01 233.183 1597.35 C 208.32 1587.53 182.335 1578.31 157.827 1568.04 C 170.945 1543.93 182.193 1514.77 196.328 1489.05 C 253.819 1384.45 329.873 1298.1 433.327 1237 C 449.177 1227.64 465.41 1219.57 481.747 1210.92 z" fill="rgb(118,60,8)" transform="translate(0,0)"></path>
<path d="M 540.807 1181.41 C 543.52 1180.97 544.273 1180.62 546.83 1181.69 C 548.692 1186.54 547.095 1418.08 547.494 1436.89 C 558.828 1437.78 576.439 1437.49 588.259 1437.68 C 587.51 1439.1 586.77 1440.53 586.041 1441.96 C 575.06 1463.57 576.502 1472.99 578.058 1496.21 C 580.339 1530.27 586.384 1559.43 596.938 1591.67 C 584.294 1598 569.412 1612.82 561.34 1624 C 546.079 1644.74 539.879 1670.78 544.155 1696.17 C 520.962 1705.32 484.916 1716.06 460.409 1724.01 C 443.234 1729.94 425.991 1735.68 408.684 1741.21 C 463.316 1614.78 494.457 1477.6 492.535 1339.54 C 491.932 1296.15 491.999 1250.34 493.046 1206.99 C 503.969 1188.79 520.636 1183.19 540.807 1181.41 z" fill="rgb(216,205,186)" transform="translate(0,0)"></path>
<path d="M 558.134 1175.69 C 559.865 1177.01 635.385 1328.12 647.168 1346.32 C 654.039 1342.34 678.374 1322.07 685.338 1316.42 C 708.609 1297.54 732.02 1278.84 755.571 1260.31 C 779.138 1278.37 802.886 1298.43 826.616 1316.46 C 834.774 1322.66 855.763 1341 863.763 1344.82 C 866.213 1344.07 867.423 1343.82 868.844 1340.94 C 874.091 1330.3 879.494 1319.26 884.827 1308.72 L 927.217 1226.23 C 933.64 1213.59 945.158 1188.86 952.219 1177.87 L 952.968 1176.72 C 953.706 1194.85 953.543 1213.56 953.616 1231.75 C 953.955 1296.84 953.939 1361.94 953.57 1427.04 C 940.533 1427.04 928.531 1426.57 915.52 1425.96 C 855.074 1365.84 737.257 1360.52 660.497 1387.7 C 636.099 1396.35 616.246 1408.38 597.392 1426.13 C 584.593 1425.86 570.755 1426.21 557.879 1426.29 L 557.857 1259.48 C 557.809 1237.48 556.157 1195.51 558.134 1175.69 z" fill="rgb(118,60,8)" transform="translate(0,0)"></path>
<path d="M 743.342 1401.43 C 799.758 1396.88 905.564 1419.36 919.774 1486.83 C 920.456 1490.06 920.509 1495.57 920.636 1499.03 C 897.233 1547.93 819.837 1567.12 770.5 1570.05 C 712.861 1574.31 620.097 1553.68 591.992 1497.13 C 592.909 1428.88 689.054 1405.02 743.342 1401.43 z" fill="rgb(206,130,101)" transform="translate(0,0)"></path>
<path d="M 756.656 1556.46 C 714.675 1555.05 657.456 1546.04 631.182 1509.88 C 598.294 1464.62 669.793 1418.19 709.074 1425.75 C 716.497 1432.73 721.706 1446.47 728.563 1449.96 C 731.734 1450.47 731.91 1450.24 734.948 1448.81 C 743.341 1454.7 741.374 1456.61 755.19 1463.35 C 756.077 1463.49 757.019 1463.62 757.895 1463.79 C 758.21 1469.3 757.276 1478.85 759.116 1482.78 C 767.601 1476.37 776.972 1471.94 785.742 1465.94 C 792.158 1461.56 797.883 1449.39 805.856 1449.65 C 815.402 1457.01 808.055 1473.24 802.931 1481.11 C 794.043 1494.76 765.28 1499.49 757.818 1507.63 C 758.139 1512.87 757.816 1517.61 758.485 1522.75 C 768.715 1513.92 792.092 1511.91 803.018 1501.27 C 805.939 1498.42 812.727 1492.31 816.094 1490.88 C 819.701 1491.64 818.305 1490.76 820.566 1493.4 C 821.54 1499.1 819.158 1502.59 816.265 1507.24 L 817.364 1509.26 C 820.474 1505.11 831.368 1488.49 823.84 1486.29 C 812.724 1483.05 824.473 1476.17 826.476 1476.75 C 845.894 1482.35 826.024 1507.96 820 1513.04 L 822.296 1514.22 C 841.374 1496.71 849.582 1476.19 821.514 1461.24 C 829.841 1453.52 837.606 1455.86 844.772 1464.33 C 850.629 1471.21 853.515 1480.13 852.796 1489.14 C 849.337 1528.96 790.304 1541.64 757.963 1543.55 C 757.794 1547.45 757.882 1552.94 756.656 1556.46 z" fill="rgb(216,165,124)" transform="translate(0,0)"></path>
<path d="M 755.283 1543.32 C 719.93 1540.62 705.737 1536.94 676.415 1516.44 C 643.45 1493.39 673.512 1441.35 691.233 1458.44 C 690.687 1464.38 680.853 1468.63 678.008 1473.71 C 665.713 1495.65 689.92 1511.9 703.924 1521.94 L 704.756 1520.3 C 658.159 1487.06 690.569 1468.15 694.006 1483.84 C 693.309 1484.52 692.254 1485.72 691.518 1486.33 C 680.739 1495.31 694.289 1507.48 701.777 1514.25 L 703.73 1513.25 C 698.332 1507.93 690.199 1499.8 695.673 1491.67 C 701.086 1490.46 711.271 1501.89 717.032 1505.04 C 728.638 1511.38 747.268 1514.82 755.633 1524.9 C 757.297 1529.8 758.108 1524.77 758.485 1522.75 C 768.715 1513.92 792.092 1511.91 803.018 1501.27 C 805.939 1498.42 812.727 1492.31 816.094 1490.88 C 819.701 1491.64 818.305 1490.76 820.566 1493.4 C 821.54 1499.1 819.158 1502.59 816.265 1507.24 L 817.364 1509.26 C 820.474 1505.11 831.368 1488.49 823.84 1486.29 C 812.724 1483.05 824.473 1476.17 826.476 1476.75 C 845.894 1482.35 826.024 1507.96 820 1513.04 L 822.296 1514.22 C 841.374 1496.71 849.582 1476.19 821.514 1461.24 C 829.841 1453.52 837.606 1455.86 844.772 1464.33 C 850.629 1471.21 853.515 1480.13 852.796 1489.14 C 849.337 1528.96 790.304 1541.64 757.963 1543.55 C 757.794 1547.45 757.882 1552.94 756.656 1556.46 C 755.296 1552.37 755.419 1547.67 755.283 1543.32 z" fill="rgb(255,255,255)" transform="translate(0,0)"></path>
<path d="M 817.364 1509.26 C 820.474 1505.11 831.368 1488.49 823.84 1486.29 C 812.724 1483.05 824.473 1476.17 826.476 1476.75 C 845.894 1482.35 826.024 1507.96 820 1513.04 C 816.338 1515.6 810.768 1519.36 808.218 1522.65 C 806.258 1524.95 790.327 1532.43 787.933 1530.42 C 787.895 1530 787.659 1527.18 787.643 1527.2 C 789.67 1524.69 805.556 1516.41 807.386 1515.39 C 811.565 1512.45 812.734 1510.81 816.265 1507.24 L 817.364 1509.26 z" fill="rgb(242,236,224)" transform="translate(0,0)"></path>
<path d="M 816.265 1507.24 L 817.364 1509.26 C 815.407 1511.22 810.257 1516.89 807.386 1515.39 C 811.565 1512.45 812.734 1510.81 816.265 1507.24 z" fill="rgb(216,165,124)" transform="translate(0,0)"></path>
<path d="M 704.756 1520.3 C 706.408 1521.07 723.193 1531.67 720.874 1525.89 C 722.383 1526.43 726.721 1527.71 725.415 1530.44 C 722.1 1531.42 707.68 1524.08 703.924 1521.94 L 704.756 1520.3 z" fill="rgb(216,205,186)" transform="translate(0,0)"></path>
<path d="M 820 1513.04 L 822.296 1514.22 C 816.721 1518.83 814.472 1519.98 808.218 1522.65 C 810.768 1519.36 816.338 1515.6 820 1513.04 z" fill="rgb(216,165,124)" transform="translate(0,0)"></path>
<path d="M 703.73 1513.25 C 704.982 1514.23 712.592 1519.67 712.799 1520.67 C 712.725 1520.78 712.652 1520.9 712.578 1521.01 C 710.98 1521.4 703.451 1515.55 701.777 1514.25 L 703.73 1513.25 z" fill="rgb(216,165,124)" transform="translate(0,0)"></path>
<path d="M 716.116 1522.83 C 718.651 1522.6 719.077 1524.04 720.874 1525.89 L 720.112 1525.61 C 717.734 1524.91 716.753 1525.14 716.116 1522.83 z" fill="rgb(216,205,186)" transform="translate(0,0)"></path>
<path d="M 755.736 1507.34 C 753.935 1504.24 746.201 1501.24 741.176 1500.07 C 720.199 1495.19 698.474 1476.45 704.221 1452.98 C 705.939 1445.96 714.779 1448.69 718.974 1455.43 C 726.512 1467.55 744.486 1473.74 755.002 1482.6 C 756.372 1486.66 757.055 1486.86 759.116 1482.78 C 767.601 1476.37 776.972 1471.94 785.742 1465.94 C 792.158 1461.56 797.883 1449.39 805.856 1449.65 C 815.402 1457.01 808.055 1473.24 802.931 1481.11 C 794.043 1494.76 765.28 1499.49 757.818 1507.63 L 755.736 1507.34 z" fill="rgb(255,255,255)" transform="translate(0,0)"></path>
<path d="M 755.19 1463.35 C 756.077 1463.49 757.019 1463.62 757.895 1463.79 C 758.21 1469.3 757.276 1478.85 759.116 1482.78 C 757.055 1486.86 756.372 1486.66 755.002 1482.6 C 755.95 1479.86 755.205 1467.33 755.19 1463.35 z" fill="rgb(216,205,186)" transform="translate(0,0)"></path>
<path d="M 755.736 1507.34 L 757.818 1507.63 C 758.139 1512.87 757.816 1517.61 758.485 1522.75 C 758.108 1524.77 757.297 1529.8 755.633 1524.9 C 756.019 1519.41 755.679 1513.01 755.736 1507.34 z" fill="rgb(216,205,186)" transform="translate(0,0)"></path>
<path d="M 734.948 1448.81 C 730.196 1442.68 724.882 1435.86 726.181 1427.49 C 727.75 1417.39 734.693 1411.66 745.022 1413.88 C 754.708 1415.97 753.23 1423.28 756.534 1426.96 C 758.13 1425.93 759.767 1411.35 774.999 1414.2 C 778.955 1414.93 781.888 1416.82 784.048 1420.46 C 786.67 1424.83 787.329 1430.11 785.863 1434.99 C 781.5 1449.77 767.673 1456.08 757.895 1463.79 C 757.019 1463.62 756.077 1463.49 755.19 1463.35 C 741.374 1456.61 743.341 1454.7 734.948 1448.81 z" fill="rgb(255,255,255)" transform="translate(0,0)"></path>
<path d="M 933.697 1492.74 C 969.9 1492.94 1006.21 1494.84 1014.38 1538.03 C 1025.78 1598.25 960.743 1634.9 911.402 1644.21 C 902.995 1640.4 904.772 1641.96 895.894 1641.19 C 895.633 1638.56 900.827 1630.31 902.502 1627.25 C 929.046 1624.81 954.114 1613.94 974.045 1596.24 C 995.266 1577.36 1007.37 1547.95 987.142 1523.71 C 975.252 1509.47 947.016 1511.12 929.832 1510.67 C 922.4 1557.44 904.506 1607.73 878.76 1647.58 C 864.661 1651.9 851.286 1654.78 836.85 1657.59 C 774.546 1667.13 700.077 1667.68 638.608 1652.54 C 607.07 1605.58 598.817 1566.63 589.33 1512.89 C 608.349 1542.45 649.498 1562.55 682.801 1571.3 C 746.164 1587.93 824.65 1583.41 882.253 1550.18 C 904.107 1537.57 927.013 1517.84 933.697 1492.74 z" fill="rgb(242,236,224)" transform="translate(0,0)"></path>
<path d="M 863.439 1035.71 C 864.505 1042.05 863.981 1067.63 863.982 1075.27 C 864.097 1102.94 864.003 1130.61 863.698 1158.27 C 852.08 1169.45 835.052 1182.53 822.207 1192.93 L 755.08 1247.2 C 736.461 1229.53 700.184 1202.34 678.667 1184.94 C 668.496 1176.5 657.819 1167.33 647.206 1159.58 L 647.128 1071.78 C 722.817 1121.19 810.554 1114.77 863.439 1035.71 z" fill="rgb(206,130,101)" transform="translate(0,0)"></path>
<path d="M 1027.87 1210.1 C 1081.74 1233.52 1131.36 1265.7 1174.71 1305.33 C 1183.75 1313.75 1229.33 1358.16 1229.66 1367.69 C 1222.05 1372.52 1210.07 1350.07 1186.18 1370.26 L 1178.89 1364.65 C 1165.83 1358.58 1156.06 1361.75 1144.87 1369.43 C 1126.03 1358.26 1107.14 1361.28 1096.86 1381.91 C 1092.94 1389.8 1093.61 1397.52 1093.63 1406.04 C 1067.4 1405.8 1050.3 1405.22 1028.69 1422.17 L 1027.87 1210.1 z" fill="rgb(118,60,8)" transform="translate(0,0)"></path>
<path d="M 1154.47 1585.08 C 1163.56 1585.95 1192.9 1608.53 1204.18 1612.98 C 1236.65 1625.78 1235.6 1679.75 1224.59 1705.25 C 1220.43 1714.9 1178.4 1804.47 1175.83 1805.28 L 1170.99 1802.23 C 1160.34 1799.21 1152.73 1800.48 1144.39 1807.99 C 1138.8 1804.32 1137.11 1803.32 1130.95 1800.8 C 1123.74 1754.43 1112.75 1708.72 1098.07 1664.14 C 1123.08 1664.16 1137.1 1655.3 1142.91 1629.6 C 1144.05 1624.55 1145.4 1610.47 1148.05 1606.99 C 1150.37 1606.35 1150.93 1606.23 1153.17 1605.18 C 1154.53 1601.15 1153.93 1590.95 1154.47 1585.08 z" fill="rgb(118,60,8)" transform="translate(0,0)"></path>
<path d="M 963.542 1180.88 C 980.203 1182.59 1016.58 1188.36 1017.22 1210.93 C 1019.31 1284.44 1016.99 1358.3 1018.3 1431.9 C 1011 1447.06 1012.26 1438.83 1001.02 1446.74 C 998.504 1448.51 999.009 1466.02 999.136 1470.2 C 999.494 1481.92 999.247 1483.43 1010.59 1487.56 C 1010.94 1494.88 1012.6 1503.25 1013.83 1510.56 C 1009.72 1505.75 1006.97 1503.06 1002.31 1498.73 C 982.224 1482.62 960.98 1483.15 936.791 1483.02 C 937.892 1462.87 935.15 1455.35 925.561 1437.46 C 934.558 1437.24 953.94 1438.97 961.55 1436.1 C 964.514 1431.46 963.645 1207.88 963.542 1180.88 z" fill="rgb(216,205,186)" transform="translate(0,0)"></path>
<path d="M 635.009 1117.58 C 635.168 1117.64 635.349 1117.66 635.485 1117.76 C 638.231 1119.77 637.016 1157.93 637.008 1163.76 C 642.669 1169.53 656.207 1180.03 662.957 1185.58 C 678.917 1198.82 695.036 1211.87 711.31 1224.73 C 722.716 1233.71 736.662 1244.08 747.28 1253.52 C 723.413 1273.83 694.813 1294.96 669.978 1315.24 C 663.517 1320.23 656.998 1325.9 650.726 1331.18 C 639.404 1312.65 630.509 1294.29 620.64 1275.1 L 572.892 1180.78 C 590.357 1160.55 615.564 1136.9 635.009 1117.58 z" fill="rgb(118,60,8)" transform="translate(0,0)"></path>
<path d="M 874.926 1114.77 C 880.158 1118.42 894.666 1134.49 899.607 1139.64 C 912.739 1153.32 925.747 1167.16 939.589 1180.19 C 929.917 1195.96 923.22 1211.76 914.635 1227.8 C 896.284 1262.08 880.226 1296.08 861.473 1330.21 L 844.5 1316.74 C 818.584 1295.43 790.605 1275.22 764.422 1253.65 C 767.979 1250.33 772.017 1246.98 775.801 1243.9 C 808.651 1217.25 842.263 1191.21 874.626 1163.97 C 875.043 1148.03 874.742 1130.87 874.926 1114.77 z" fill="rgb(118,60,8)" transform="translate(0,0)"></path>
<path d="M 154.312 1578.13 L 281.768 1628.18 C 312.81 1640.35 342.977 1652.97 374.475 1663.98 C 372.837 1677.4 371.917 1692.64 368.692 1705.8 C 367.065 1712.44 363.539 1714.89 356.793 1715.12 C 348.96 1712.9 332.801 1706.19 324.714 1703.1 C 301.261 1694.23 277.885 1685.15 254.59 1675.87 C 235.441 1668.42 148.058 1636.49 136.68 1627.98 C 133.393 1619.47 149.826 1588.63 154.312 1578.13 z" fill="rgb(118,60,8)" transform="translate(0,0)"></path>
<path d="M 587.811 1465.84 C 593.986 1440.91 609.72 1425.13 631.547 1412.23 C 687.72 1379.03 764.913 1374.8 827.238 1390.32 C 861.247 1398.79 900.185 1416.03 918.858 1446.96 C 926.796 1460.1 928.165 1469.02 927.119 1483.74 C 926.085 1480.77 924.934 1477.18 923.708 1474.33 C 878.289 1368.49 638.439 1372.3 592.428 1467.55 C 591.418 1469.66 590.463 1471.81 589.563 1473.97 C 589.182 1475.8 588.625 1477.19 588.017 1478.95 L 587.273 1478.25 C 586.808 1472.55 586.844 1471.46 587.811 1465.84 z" fill="rgb(216,165,124)" transform="translate(0,0)"></path>
<path d="M 1186.26 1387.5 C 1196.19 1372.86 1201.25 1366.57 1219.22 1376.21 C 1229.89 1396.3 1230.47 1370.79 1245.78 1372.28 C 1263.93 1374.04 1267.73 1390.3 1267.81 1405.6 C 1252.4 1405.85 1236.23 1405.59 1220.75 1405.55 L 1102.23 1405.61 C 1102.1 1392.93 1103.67 1376.48 1119.2 1373.31 C 1129.96 1371.12 1138.9 1378.46 1147.27 1384.21 C 1152.58 1378.71 1154.29 1375.31 1161.03 1372 C 1175.5 1371.51 1177.93 1376.77 1186.26 1387.5 z" fill="rgb(216,205,186)" transform="translate(0,0)"></path>
<path d="M 937.369 1520.61 C 962.258 1520.67 995.156 1523.37 986.993 1560.5 C 983.085 1578.28 963.791 1594.27 948.327 1602.98 C 935.637 1609.44 922.226 1613.43 908.344 1616.28 C 918.677 1591.99 935.348 1547.13 937.369 1520.61 z" fill="rgb(216,205,186)" transform="translate(0,0)"></path>
<path d="M 1128.43 1604.88 C 1132.61 1604.94 1134.06 1604.3 1137.35 1606.22 C 1138.27 1609.53 1131.9 1635.63 1129.57 1640.12 C 1115.79 1666.72 1072.23 1648.3 1048.09 1655.13 C 1033.93 1659.13 1028.03 1677.03 1020.94 1689.96 C 1019.03 1689.71 1014.86 1687.45 1012.88 1686.5 C 1016.63 1678.02 1021.82 1665.24 1026.59 1657.66 C 1043.7 1631.04 1083.92 1647.8 1109.44 1642.2 C 1123.27 1639.17 1124.76 1616.54 1128.43 1604.88 z" fill="rgb(204,187,164)" transform="translate(0,0)"></path>
<path d="M 1070.08 1578.24 C 1089.34 1584.03 1093.65 1584.9 1114.32 1585.06 C 1114.34 1590.58 1112.65 1603.46 1117.72 1605.65 C 1118.81 1606.13 1113.16 1625.93 1112.44 1628.3 C 1109.44 1636.21 1095.68 1633.07 1087.3 1633.13 C 1080.72 1616.01 1076.68 1595.73 1070.08 1578.24 z" fill="rgb(118,60,8)" transform="translate(0,0)"></path>
<path d="M 344.886 1721.7 C 355.948 1726.31 356.838 1725.79 367.508 1722.45 C 367.539 1733.38 367.507 1744.31 367.413 1755.23 C 359.715 1757.38 352.876 1760.37 345.586 1762.54 C 338.72 1765.22 332.671 1766.87 325.789 1768.99 L 324.967 1769.25 C 331.767 1753.47 338.407 1737.61 344.886 1721.7 z" fill="rgb(255,255,255)" transform="translate(0,0)"></path>
<path d="M 1124.82 1585.46 C 1127.99 1585.4 1131.29 1585.26 1134.47 1585.35 C 1146.75 1585.7 1146.52 1582.98 1145.4 1596.16 C 1137.29 1595.94 1116.79 1599.53 1124.82 1585.46 z" fill="rgb(255,255,255)" transform="translate(0,0)"></path>
<metadata><recraft-signature>{"signed_by": "recraft", "signature_b64": "D4/0p6xyaxnLM2fhrAecNHZdnJOLkeRoA07W2SQzknQqOz1NuDEaFAZNCZiJMwBv7nqnlH3SfCDTWM1C+AuoAg==", "signing_algo": "Ed25519", "generation_timestamp": 1779108311, "identifier": "2826c29f-2442-4b85-a373-a341e486f5d5"}</recraft-signature></metadata></svg>