<svg xmlns="http://www.w3.org/2000/svg" height="1216" preserveAspectRatio="none" style="display: block;" version="1.1" viewBox="0 0 1509 2048" width="896">
<path d="M 0 0 L 740.053 0 L 782.708 0 L 1509 0 L 1509 2029.48 L 1509 2048 L 0 2048 L 0 2031.58 L 0 0 z" fill="rgb(255,255,255)" transform="translate(0,0)"></path>
<path d="M 587.757 1490.93 L 589.273 1490.52 C 594.958 1496.8 607.329 1506.31 614.464 1511.58 C 654.259 1540.94 694.5 1558.36 744.628 1560.73 C 809.395 1563.79 865.772 1538.02 914.122 1496.21 C 915.138 1495.33 916.044 1494.43 916.959 1493.47 L 917.757 1494.16 C 915.906 1497.66 915.942 1497.15 916.957 1501.93 C 921.724 1507.34 930.651 1525.15 936.473 1533 L 946.031 1542.63 L 948.147 1545.02 C 949.978 1546.17 955.155 1549.42 956.084 1551.23 C 961.006 1553.87 966.183 1556.55 970.973 1559.38 C 988.767 1566.54 999.075 1566.28 1017.93 1566.47 C 1225.54 1568.59 1390.61 1693.96 1470.09 1880.94 C 1483.95 1914.01 1494.4 1948.4 1501.28 1983.59 C 1503.73 1996.07 1506.34 2018.96 1509 2029.48 L 1509 2048 L 0 2048 L 0 2031.58 C 2.27019 2022.85 4.53206 2000.95 6.57396 1990.04 C 12.6369 1956.7 21.8935 1924.02 34.2157 1892.45 C 112.509 1695.14 288.484 1563.81 504.882 1566.21 C 518.763 1566.37 527.955 1563.99 540.528 1558.58 L 541.144 1558.42 C 544.875 1556.06 547.958 1554.09 552.038 1552.28 C 552.244 1551.71 570.341 1535.38 571.413 1535.14 C 573.261 1531.52 582.719 1517.98 585.599 1514.95 C 585.847 1513.37 592.399 1499.45 593.531 1496.9 C 591.477 1494.95 589.685 1493 587.757 1490.93 z" fill="rgb(124,125,123)" transform="translate(0,0)"></path>
<path d="M 587.757 1490.93 L 589.273 1490.52 C 594.958 1496.8 607.329 1506.31 614.464 1511.58 C 654.259 1540.94 694.5 1558.36 744.628 1560.73 C 809.395 1563.79 865.772 1538.02 914.122 1496.21 C 915.138 1495.33 916.044 1494.43 916.959 1493.47 L 917.757 1494.16 C 915.906 1497.66 915.942 1497.15 916.957 1501.93 C 921.724 1507.34 930.651 1525.15 936.473 1533 L 946.031 1542.63 L 948.147 1545.02 C 949.978 1546.17 955.155 1549.42 956.084 1551.23 C 961.006 1553.87 966.183 1556.55 970.973 1559.38 C 974.674 1564.61 986.535 1566.15 992.901 1567.49 C 987.71 1583.24 980.953 1596.97 972.138 1611.02 C 970.729 1613.27 961.849 1626.7 961.585 1627.9 C 960.477 1629.01 953.933 1636.45 953.673 1637.21 C 951.187 1644.48 913.828 1675.23 913 1677.25 C 910.617 1678.38 907.063 1679.8 906.042 1682.29 C 901.959 1684.11 901.079 1684.61 897.542 1687.38 L 896.815 1688.24 L 896.149 1688.55 C 882.276 1695.18 871.228 1703.39 855.802 1709.84 C 797.042 1734.71 731.166 1736.99 670.828 1716.24 C 654.802 1710.7 640.049 1704.35 625.434 1695.81 C 622.372 1694.02 618.199 1691.69 614.978 1690.33 C 614.724 1689.75 584.708 1666.86 583.574 1666.53 C 582.091 1664.6 562.135 1644.5 560.775 1643.97 C 559.31 1641.42 554.16 1634.2 551.816 1632.91 C 551.284 1631.75 541.127 1616.89 539.673 1614.68 C 528.733 1598.01 522.902 1586.27 516.351 1567.66 C 522.697 1566.34 536.941 1563.93 540.528 1558.58 L 541.144 1558.42 C 544.875 1556.06 547.958 1554.09 552.038 1552.28 C 552.244 1551.71 570.341 1535.38 571.413 1535.14 C 573.261 1531.52 582.719 1517.98 585.599 1514.95 C 585.847 1513.37 592.399 1499.45 593.531 1496.9 C 591.477 1494.95 589.685 1493 587.757 1490.93 z" fill="rgb(226,169,112)" transform="translate(0,0)"></path>
<path d="M 587.757 1490.93 L 589.273 1490.52 C 594.958 1496.8 607.329 1506.31 614.464 1511.58 C 654.259 1540.94 694.5 1558.36 744.628 1560.73 C 809.395 1563.79 865.772 1538.02 914.122 1496.21 C 915.138 1495.33 916.044 1494.43 916.959 1493.47 L 917.757 1494.16 C 915.906 1497.66 915.942 1497.15 916.957 1501.93 L 914.153 1499.63 C 912.075 1499.93 905.643 1505.3 903.76 1506.82 C 814.944 1578.61 705.983 1582.14 613.346 1512.58 C 607.162 1507.85 601.082 1502.98 595.11 1497.98 C 593.355 1501.67 588.494 1513.42 585.599 1514.95 C 585.847 1513.37 592.399 1499.45 593.531 1496.9 C 591.477 1494.95 589.685 1493 587.757 1490.93 z" fill="rgb(139,109,83)" transform="translate(0,0)"></path>
<path d="M 552.038 1552.28 C 552.244 1551.71 570.341 1535.38 571.413 1535.14 C 571.554 1538.71 556.206 1553 552.038 1552.28 z" fill="rgb(180,146,114)" transform="translate(0,0)"></path>
<path d="M 571.413 1535.14 C 573.261 1531.52 582.719 1517.98 585.599 1514.95 C 583.611 1521.82 577.855 1531.8 571.413 1535.14 z" fill="rgb(180,146,114)" transform="translate(0,0)"></path>
<path d="M 541.144 1558.42 C 544.875 1556.06 547.958 1554.09 552.038 1552.28 C 548.843 1556.49 546.924 1558.45 541.144 1558.42 z" fill="rgb(180,146,114)" transform="translate(0,0)"></path>
<path d="M 948.147 1545.02 C 949.978 1546.17 955.155 1549.42 956.084 1551.23 C 951.78 1552.51 950.603 1548.66 948.147 1545.02 z" fill="rgb(180,146,114)" transform="translate(0,0)"></path>
<path d="M 896.815 1688.24 C 892.909 1693.64 882.704 1698 876.692 1701.21 C 851.519 1714.67 823.913 1724.24 795.61 1728.77 C 745.505 1736.8 694.143 1729.91 647.928 1708.96 C 639.258 1705.12 621.201 1697.27 614.978 1690.33 C 618.199 1691.69 622.372 1694.02 625.434 1695.81 C 640.049 1704.35 654.802 1710.7 670.828 1716.24 C 731.166 1736.99 797.042 1734.71 855.802 1709.84 C 871.228 1703.39 882.276 1695.18 896.149 1688.55 L 896.815 1688.24 z" fill="rgb(91,89,84)" transform="translate(0,0)"></path>
<path d="M 913 1677.25 C 913.828 1675.23 951.187 1644.48 953.673 1637.21 C 953.933 1636.45 960.477 1629.01 961.585 1627.9 C 957.729 1637.35 919.764 1677.53 913 1677.25 z" fill="rgb(91,89,84)" transform="translate(0,0)"></path>
<path d="M 583.574 1666.53 C 584.708 1666.86 614.724 1689.75 614.978 1690.33 C 611.864 1690.69 585.381 1670.26 583.574 1666.53 z" fill="rgb(91,89,84)" transform="translate(0,0)"></path>
<path d="M 560.775 1643.97 C 562.135 1644.5 582.091 1664.6 583.574 1666.53 C 579.059 1664.19 561.504 1648.17 560.775 1643.97 z" fill="rgb(91,89,84)" transform="translate(0,0)"></path>
<path d="M 551.816 1632.91 C 554.16 1634.2 559.31 1641.42 560.775 1643.97 C 557.942 1641.72 552.037 1636.54 551.816 1632.91 z" fill="rgb(91,89,84)" transform="translate(0,0)"></path>
<path d="M 906.042 1682.29 C 907.063 1679.8 910.617 1678.38 913 1677.25 C 911.304 1679.77 909.46 1682.44 906.042 1682.29 z" fill="rgb(91,89,84)" transform="translate(0,0)"></path>
<path d="M 897.542 1687.38 C 901.079 1684.61 901.959 1684.11 906.042 1682.29 C 903.46 1685.28 901.584 1687.58 897.542 1687.38 z" fill="rgb(91,89,84)" transform="translate(0,0)"></path>
<path d="M 391.814 1027.43 C 427.423 1000.68 423.779 971.802 445.142 936.449 C 467.431 899.562 507.852 871.532 552.785 881.975 C 562.4 884.209 577.307 892.57 586.776 896.949 C 601.616 903.786 616.747 909.975 632.124 915.499 C 735.638 951.778 838.649 940.095 935.576 890.468 C 992.883 861.127 1046.75 897.433 1072.02 950.57 C 1083.72 975.18 1089.53 1007.71 1114.77 1022.89 C 1122.08 1032.38 1112.57 1055.29 1118.73 1058.35 L 1121.29 1057.05 C 1144.66 1044.15 1163.21 1046.26 1176.82 1072.13 C 1192.09 1101.14 1185.73 1142.23 1177.07 1172.51 C 1176.04 1176.06 1171.78 1184.24 1173.34 1187 C 1171.73 1191.91 1167.23 1203.92 1163.7 1207.24 C 1161.13 1213.38 1155 1223.54 1150.47 1228.19 C 1149.6 1229.91 1150.23 1229.52 1148.91 1230.11 C 1145.62 1232.63 1145.49 1232.78 1142.83 1235.94 L 1143.49 1237.42 C 1131.11 1253.16 1108.14 1271.72 1086.54 1266.93 C 1083.28 1266.2 1077.63 1262.99 1075.02 1264.01 C 1073.89 1269.72 1068.56 1287.99 1065.28 1292.1 C 1062.38 1294.38 1054.36 1314.29 1052.28 1318.93 C 1046.11 1332.46 1039.37 1345.72 1032.1 1358.68 C 1030 1362.34 1019.68 1377.06 1019.65 1379.97 C 1018.55 1380.85 989.299 1420.74 988.137 1422.98 C 987.681 1425.79 979.548 1434.09 977.233 1436.72 L 976.501 1437.62 C 974.198 1440.22 971.734 1442.79 969.493 1445.39 C 963.465 1453.17 934.375 1481.25 926.362 1487.5 L 924.918 1486.93 C 922.951 1488.67 921.342 1489.99 919.227 1491.57 L 919.133 1493.8 L 917.757 1494.16 L 916.959 1493.47 C 916.044 1494.43 915.138 1495.33 914.122 1496.21 C 865.772 1538.02 809.395 1563.79 744.628 1560.73 C 694.5 1558.36 654.259 1540.94 614.464 1511.58 C 607.329 1506.31 594.958 1496.8 589.273 1490.52 L 587.757 1490.93 C 587.497 1490.07 587.473 1489.57 586.908 1488.92 C 545.587 1452.89 514.754 1418.72 485.701 1372.06 C 479.279 1361.74 459.695 1323.05 455.413 1318.24 C 453.054 1316.05 447.868 1301.48 446.683 1298.01 C 441.471 1286.34 437.867 1274.11 434.404 1261.88 C 431.066 1263.52 429.989 1264.38 426.216 1265.61 C 418.362 1272.51 396.979 1264.69 389.674 1258.83 C 386.552 1257.22 384.03 1255.88 382.045 1252.97 C 381.417 1252.73 380.464 1252.43 379.912 1252.04 L 379.465 1249.33 C 376.754 1247.29 370.316 1241.5 368.765 1238.53 C 367.886 1237 362.77 1230.88 361.484 1229.7 C 353.085 1222.01 344.306 1196.89 337.737 1190.91 L 337.669 1190.45 C 337.787 1186.59 329.611 1165.99 328.314 1159.85 C 323.729 1138.3 321.069 1116.17 324.684 1094.26 C 325.831 1087.31 328.875 1080.64 329.738 1073.68 C 334.521 1070.89 337.066 1061.07 343.142 1057.58 C 345.272 1056.35 349.639 1052.72 351.029 1050.73 L 351.351 1050.49 C 354.35 1050.52 355.206 1050.39 357.997 1049.81 C 370.519 1047.17 379.645 1052.28 390.142 1057.8 L 391.525 1058.87 L 392.599 1058.04 C 393.151 1054.11 391.827 1033.92 391.814 1027.43 z" fill="rgb(237,195,158)" transform="translate(0,0)"></path>
<path d="M 1075.02 1264.01 C 1072.73 1257.64 1080.04 1263.05 1082.45 1263.89 C 1104.67 1271.69 1126.37 1254.75 1139.97 1238.84 C 1141.71 1236.8 1140.2 1237.62 1142.83 1235.94 L 1143.49 1237.42 C 1131.11 1253.16 1108.14 1271.72 1086.54 1266.93 C 1083.28 1266.2 1077.63 1262.99 1075.02 1264.01 z" fill="rgb(180,146,114)" transform="translate(0,0)"></path>
<path d="M 968.883 1443.82 L 969.493 1445.39 C 963.465 1453.17 934.375 1481.25 926.362 1487.5 L 924.918 1486.93 C 925.414 1486.14 925.693 1485.45 926.591 1484.74 C 940.686 1473.44 954.283 1459.99 966.159 1446.37 C 967.71 1444.59 966.559 1445.42 968.883 1443.82 z" fill="rgb(180,146,114)" transform="translate(0,0)"></path>
<path d="M 426.216 1265.61 C 429.479 1262.58 431.634 1261.71 435.47 1259.47 C 437.073 1265.83 444.307 1289.33 447.187 1297.15 C 447.172 1297.11 446.677 1298.02 446.683 1298.01 C 441.471 1286.34 437.867 1274.11 434.404 1261.88 C 431.066 1263.52 429.989 1264.38 426.216 1265.61 z" fill="rgb(139,109,83)" transform="translate(0,0)"></path>
<path d="M 1150.47 1228.19 C 1151.52 1223.2 1159.74 1210.26 1163.7 1207.24 C 1161.13 1213.38 1155 1223.54 1150.47 1228.19 z" fill="rgb(226,169,112)" transform="translate(0,0)"></path>
<path d="M 976.616 1434.75 C 979.594 1431.9 985.905 1423.91 988.137 1422.98 C 987.681 1425.79 979.548 1434.09 977.233 1436.72 L 976.616 1434.75 z" fill="rgb(139,109,83)" transform="translate(0,0)"></path>
<path d="M 382.045 1252.97 C 387.057 1253.61 386.81 1254.49 389.674 1258.83 C 386.552 1257.22 384.03 1255.88 382.045 1252.97 z" fill="rgb(226,169,112)" transform="translate(0,0)"></path>
<path d="M 974.669 1437.18 L 976.501 1437.62 C 974.198 1440.22 971.734 1442.79 969.493 1445.39 L 968.883 1443.82 C 971.05 1441.53 972.714 1439.67 974.669 1437.18 z" fill="rgb(139,109,83)" transform="translate(0,0)"></path>
<path d="M 379.465 1249.33 C 381.597 1250.51 381.525 1250.6 382.045 1252.97 C 381.417 1252.73 380.464 1252.43 379.912 1252.04 L 379.465 1249.33 z" fill="rgb(226,169,112)" transform="translate(0,0)"></path>
<path d="M 976.616 1434.75 L 977.233 1436.72 L 976.501 1437.62 L 974.669 1437.18 C 975.395 1435.65 975.289 1435.62 976.616 1434.75 z" fill="rgb(226,169,112)" transform="translate(0,0)"></path>
<path d="M 916.959 1493.47 C 917.991 1492.24 917.849 1492.29 919.227 1491.57 L 919.133 1493.8 L 917.757 1494.16 L 916.959 1493.47 z" fill="rgb(226,169,112)" transform="translate(0,0)"></path>
<path d="M 586.908 1488.92 C 588.283 1489.4 588.143 1489.42 589.273 1490.52 L 587.757 1490.93 C 587.497 1490.07 587.473 1489.57 586.908 1488.92 z" fill="rgb(226,169,112)" transform="translate(0,0)"></path>
<path d="M 581.91 688.373 C 598.703 680.329 618.207 674.75 636.389 670.26 C 719.318 649.78 821.93 651.305 902.924 678.558 C 916.166 683.014 969.552 706.336 976.199 715.151 C 978.387 716.337 982.175 718.076 982.933 720.364 C 994.538 725.604 1032.08 760.814 1038.95 771.862 C 1040.98 773.66 1040.76 772.803 1041.37 774.846 C 1045.17 778.466 1049.47 784.201 1051.97 788.813 L 1052.57 789.336 C 1054.39 791.482 1057.09 794.174 1057.31 796.955 C 1060.86 800.272 1062.64 803.372 1064.74 807.758 C 1076.48 822.791 1094.89 865.002 1099.51 883.683 C 1098.56 887.843 1101.34 896.111 1102.6 900.554 C 1109.03 923.261 1124.11 1002.15 1117.19 1022.3 L 1114.77 1022.89 C 1089.53 1007.71 1083.72 975.18 1072.02 950.57 C 1046.75 897.433 992.883 861.127 935.576 890.468 C 838.649 940.095 735.638 951.778 632.124 915.499 C 616.747 909.975 601.616 903.786 586.776 896.949 C 577.307 892.57 562.4 884.209 552.785 881.975 C 507.852 871.532 467.431 899.562 445.142 936.449 C 423.779 971.802 427.423 1000.68 391.814 1027.43 C 391.827 1033.92 393.151 1054.11 392.599 1058.04 L 391.525 1058.87 L 390.142 1057.8 L 390.956 1056.58 C 391.767 1038.17 389.519 1014.61 390.251 993.446 C 388.671 974.881 401.336 909.802 407.44 890.668 C 412.016 872.383 436.024 815.647 448.152 802.815 C 452.428 794.323 464.983 777.356 471.593 770.848 C 472.714 767.671 482.986 757.051 485.897 754.819 C 489.605 750.126 492.058 747.68 496.844 743.992 C 498.494 741.011 511.472 730.616 514.981 728.639 C 518.479 725.052 523.498 721.373 528.043 719.318 C 528.944 716.745 534.656 714.28 537.006 713.275 C 537.833 711.153 540.589 710.324 542.768 709.275 C 545.296 706.852 553.382 702.407 556.788 701.279 C 562.065 697.365 575.469 691.192 581.91 688.373 z" fill="rgb(226,169,112)" transform="translate(0,0)"></path>
<path d="M 391.457 1025.66 C 418.313 1006.86 423.025 979.334 435.053 951.608 C 452.752 910.808 496.059 872.995 542.901 878.403 C 562.358 880.649 584.744 894.534 602.996 902.422 C 665.013 929.225 729.733 941.086 797.125 932.61 C 824.782 928.9 851.978 922.319 878.271 912.973 C 890.158 908.848 901.877 904.253 913.4 899.197 C 936.423 888.844 954.542 875.869 980.859 878.129 C 1026.9 882.083 1059.06 916.41 1076.82 956.679 C 1082.55 969.692 1085.71 982.69 1092.39 995.167 C 1098.79 1007.11 1106.51 1013.15 1114.77 1022.89 C 1089.53 1007.71 1083.72 975.18 1072.02 950.57 C 1046.75 897.433 992.883 861.127 935.576 890.468 C 838.649 940.095 735.638 951.778 632.124 915.499 C 616.747 909.975 601.616 903.786 586.776 896.949 C 577.307 892.57 562.4 884.209 552.785 881.975 C 507.852 871.532 467.431 899.562 445.142 936.449 C 423.779 971.802 427.423 1000.68 391.814 1027.43 C 391.827 1033.92 393.151 1054.11 392.599 1058.04 L 391.525 1058.87 L 390.142 1057.8 L 390.956 1056.58 C 391.767 1038.17 389.519 1014.61 390.251 993.446 C 392.071 1003.51 389.585 1016.79 391.457 1025.66 z" fill="rgb(139,109,83)" transform="translate(0,0)"></path>
<path d="M 407.44 890.668 C 408.532 894.883 404.056 911.604 402.514 917.915 C 396.544 942.344 393.296 968.552 392.202 993.654 C 391.794 1003.02 392.422 1017.82 391.457 1025.66 C 389.585 1016.79 392.071 1003.51 390.251 993.446 C 388.671 974.881 401.336 909.802 407.44 890.668 z" fill="rgb(180,146,114)" transform="translate(0,0)"></path>
<path d="M 982.933 720.364 C 994.538 725.604 1032.08 760.814 1038.95 771.862 C 1032.63 769.439 1014.9 747.702 1007.33 741.904 C 1002.1 737.905 986.941 725.245 982.933 720.364 z" fill="rgb(180,146,114)" transform="translate(0,0)"></path>
<path d="M 448.152 802.815 C 452.428 794.323 464.983 777.356 471.593 770.848 C 470.304 775.185 469.036 778.033 465.744 781.244 C 459.691 787.148 455.029 798.847 448.152 802.815 z" fill="rgb(180,146,114)" transform="translate(0,0)"></path>
<path d="M 581.91 688.373 C 579.244 693.003 562.44 700.119 556.788 701.279 C 562.065 697.365 575.469 691.192 581.91 688.373 z" fill="rgb(180,146,114)" transform="translate(0,0)"></path>
<path d="M 1041.37 774.846 C 1045.17 778.466 1049.47 784.201 1051.97 788.813 C 1046.41 785.3 1042.88 781.254 1041.37 774.846 z" fill="rgb(180,146,114)" transform="translate(0,0)"></path>
<path d="M 485.897 754.819 C 489.605 750.126 492.058 747.68 496.844 743.992 C 494.804 750.056 491.884 752.851 485.897 754.819 z" fill="rgb(180,146,114)" transform="translate(0,0)"></path>
<path d="M 514.981 728.639 C 518.479 725.052 523.498 721.373 528.043 719.318 C 524.766 723.521 521.701 727.102 516.214 728.347 L 514.981 728.639 z" fill="rgb(180,146,114)" transform="translate(0,0)"></path>
<path d="M 528.043 719.318 C 528.944 716.745 534.656 714.28 537.006 713.275 C 534.897 716.383 532.176 719.976 528.043 719.318 z" fill="rgb(180,146,114)" transform="translate(0,0)"></path>
<path d="M 1057.31 796.955 C 1060.86 800.272 1062.64 803.372 1064.74 807.758 C 1059.65 804.388 1058.81 802.831 1057.31 796.955 z" fill="rgb(180,146,114)" transform="translate(0,0)"></path>
<path d="M 1057.31 796.955 C 1055.16 796.651 1050.85 792.566 1052.57 789.336 C 1054.39 791.482 1057.09 794.174 1057.31 796.955 z" fill="rgb(180,146,114)" transform="translate(0,0)"></path>
<path d="M 976.199 715.151 C 978.387 716.337 982.175 718.076 982.933 720.364 C 978.841 721.505 978.623 718.613 976.199 715.151 z" fill="rgb(180,146,114)" transform="translate(0,0)"></path>
<path d="M 537.006 713.275 C 537.833 711.153 540.589 710.324 542.768 709.275 C 540.698 712.325 540.589 714.243 537.006 713.275 z" fill="rgb(180,146,114)" transform="translate(0,0)"></path>
<path d="M 740.053 0 L 782.708 0 C 784.35 0.330534 788.458 0.964346 789.621 1.73191 C 803.281 2.18531 828.482 7.48734 841.315 12.4837 C 849.261 14.9853 860.049 19.0113 867.216 23.3878 C 868.729 23.757 868.653 23.7744 869.987 24.5697 C 872.649 25.6968 881.952 30.0396 883.158 32.106 C 887.416 34.1211 890.848 36.2367 894.227 39.5133 C 896.544 40.4689 900.087 42.922 901.207 45.0746 C 904.292 46.9544 905.439 47.492 907.641 50.3574 C 913.195 53.9198 916.952 58.6169 921.68 63.2045 C 922.391 63.9379 922.448 64.1216 923.028 65.0337 L 922.993 68.0708 C 951.343 95.964 963.065 149.941 955.911 187.706 C 954.694 194.131 949.219 208.24 949.384 213.545 L 949.223 213.935 C 948.148 218.147 947.336 219.601 945.234 223.243 L 944.491 224.551 L 943.914 225.291 C 939.812 228.43 933.618 241.91 928.984 247.422 C 916.52 262.249 903.533 275.858 888.363 287.976 C 884.785 290.834 868.802 302.084 867.977 305.236 C 864.118 309.6 859.803 311.946 855.399 315.641 C 845.893 323.618 835.503 332.148 827.413 341.615 C 825.381 344.387 819.458 352.045 817.422 354.111 L 816.537 355.298 C 803.672 366.474 801.713 397.702 796.965 413.327 C 793.271 425.487 778.588 434.165 775.238 439.706 C 773.248 441.157 773.446 441.398 771.195 441.64 C 765.844 442.333 762.038 444.08 757.004 444.767 C 742.307 446.771 736.275 443.07 723.82 440.618 L 721.734 439.762 C 719.335 438.608 718.837 438.461 716.826 436.806 L 716.848 434.622 C 686.167 409.685 693.611 369.72 707.727 337.984 C 709.498 334.004 711.81 331.16 711.299 326.696 L 711.704 326.48 C 712.699 323.665 716.611 314.966 719.262 314.036 C 720.168 311.893 720.936 308.819 723.306 308.068 L 724.192 307.401 C 724.897 306.879 749.049 278.282 749.135 278.12 C 753.026 272.248 781.229 244.563 787.399 239.089 C 788.029 238.763 797.866 228.193 798.641 227.132 C 803.81 220.064 813.442 209.564 813.751 200.837 C 813.884 199.079 813.997 199.639 815.346 197.777 C 823.982 174.428 825.973 148.906 810.32 127.683 C 806.96 123.127 801.994 119.492 798.959 114.833 C 795.28 113.095 792.206 110.793 788.77 108.532 C 757.877 95.0973 742.923 98.669 714.165 113.932 C 713.238 115.523 708.518 119.473 706.865 120.874 C 698.428 128.022 694.104 137.609 687.642 145.975 C 686.204 150.105 672.946 177.445 670.697 180.233 C 668.34 181.83 657.461 193.85 656.191 195.903 C 649.749 197.395 646.075 201.386 639.019 202.766 C 630.169 204.497 621.382 204.438 612.494 203.156 C 605.246 202.11 601.505 197.905 594.908 196.994 C 592.603 192.573 584.622 186.065 580.996 181.447 C 564.034 159.842 574.395 141.317 576.833 118.837 C 577.669 114.133 585.492 95.7432 589.201 92.8914 C 592.215 91.1306 593.984 87.6033 595.94 84.7716 C 611.628 62.0616 630.086 42.1257 654.625 28.9334 C 660.248 25.9104 674.885 19.1696 678.766 15.3496 C 686.017 8.12893 728.007 1.76109 740.053 0 z" fill="rgb(237,195,158)" transform="translate(0,0)"></path>
<path d="M 798.959 114.833 C 801.601 115.178 802.072 115.757 804.198 117.299 C 804.788 118.925 804.847 119.221 806.401 120.011 C 814.578 130 819.616 137.878 822.3 150.867 C 824.989 163.879 825.134 187.422 815.346 197.777 C 823.982 174.428 825.973 148.906 810.32 127.683 C 806.96 123.127 801.994 119.492 798.959 114.833 z" fill="rgb(180,146,114)" transform="translate(0,0)"></path>
<path d="M 826.607 339.684 C 836.844 329.791 855.125 310.741 867.977 305.236 C 864.118 309.6 859.803 311.946 855.399 315.641 C 845.893 323.618 835.503 332.148 827.413 341.615 L 826.607 339.684 z" fill="rgb(180,146,114)" transform="translate(0,0)"></path>
<path d="M 789.621 1.73191 C 803.281 2.18531 828.482 7.48734 841.315 12.4837 C 836.276 13.2569 830.862 11.104 825.986 9.52782 C 814.876 5.93643 799.988 6.10088 789.621 1.73191 z" fill="rgb(226,169,112)" transform="translate(0,0)"></path>
<path d="M 687.642 145.975 C 689.473 138.515 692.519 136.062 696.826 129.932 C 700.921 124.196 705.801 119.062 711.321 114.68 C 712.637 113.625 712.583 113.717 714.165 113.932 C 713.238 115.523 708.518 119.473 706.865 120.874 C 698.428 128.022 694.104 137.609 687.642 145.975 z" fill="rgb(180,146,114)" transform="translate(0,0)"></path>
<path d="M 711.704 326.48 C 712.699 323.665 716.611 314.966 719.262 314.036 C 719.876 317.664 714.536 324.46 711.704 326.48 z" fill="rgb(226,169,112)" transform="translate(0,0)"></path>
<path d="M 826.607 339.684 L 827.413 341.615 C 825.381 344.387 819.458 352.045 817.422 354.111 C 818.741 349.876 823.592 341.857 826.607 339.684 z" fill="rgb(180,146,114)" transform="translate(0,0)"></path>
<path d="M 907.641 50.3574 C 913.195 53.9198 916.952 58.6169 921.68 63.2045 L 919.904 64.1704 C 918.211 61.6019 913.393 56.3083 910.698 54.8544 L 907.641 50.3574 z" fill="rgb(139,109,83)" transform="translate(0,0)"></path>
<path d="M 883.158 32.106 C 887.416 34.1211 890.848 36.2367 894.227 39.5133 C 888.502 38.325 886.022 37.5475 883.158 32.106 z" fill="rgb(226,169,112)" transform="translate(0,0)"></path>
<path d="M 788.77 108.532 C 794.842 108.523 795.521 109.942 798.959 114.833 C 795.28 113.095 792.206 110.793 788.77 108.532 z" fill="rgb(226,169,112)" transform="translate(0,0)"></path>
<path d="M 944.491 224.551 C 944.294 220.457 946.21 216.664 949.223 213.935 C 948.148 218.147 947.336 219.601 945.234 223.243 L 944.491 224.551 z" fill="rgb(180,146,114)" transform="translate(0,0)"></path>
<path d="M 719.262 314.036 C 720.168 311.893 720.936 308.819 723.306 308.068 C 723.888 311.829 722.32 311.723 719.262 314.036 z" fill="rgb(226,169,112)" transform="translate(0,0)"></path>
<path d="M 716.848 434.622 C 719.908 436.177 719.734 436.715 721.734 439.762 C 719.335 438.608 718.837 438.461 716.826 436.806 L 716.848 434.622 z" fill="rgb(226,169,112)" transform="translate(0,0)"></path>
<path d="M 867.216 23.3878 C 868.729 23.757 868.653 23.7744 869.987 24.5697 C 867.994 26.329 866.846 26.4475 867.216 23.3878 z" fill="rgb(226,169,112)" transform="translate(0,0)"></path>
<path d="M 901.207 45.0746 C 904.292 46.9544 905.439 47.492 907.641 50.3574 L 906.069 51.1005 C 904.294 48.8451 902.944 47.4895 901.207 45.0746 z" fill="rgb(139,109,83)" transform="translate(0,0)"></path>
<path d="M 921.68 63.2045 C 922.391 63.9379 922.448 64.1216 923.028 65.0337 L 922.993 68.0708 C 921.472 66.4904 921.131 65.9891 919.904 64.1704 L 921.68 63.2045 z" fill="rgb(226,169,112)" transform="translate(0,0)"></path>
<path d="M 906.069 51.1005 L 907.641 50.3574 L 910.698 54.8544 C 908.198 53.2603 908.058 53.2876 906.069 51.1005 z" fill="rgb(226,169,112)" transform="translate(0,0)"></path>
<path d="M 804.198 117.299 C 805.77 118.142 805.935 118.276 806.401 120.011 C 804.847 119.221 804.788 118.925 804.198 117.299 z" fill="rgb(226,169,112)" transform="translate(0,0)"></path>
<path d="M 455.413 1318.24 C 459.695 1323.05 479.279 1361.74 485.701 1372.06 C 514.754 1418.72 545.587 1452.89 586.908 1488.92 C 587.473 1489.57 587.497 1490.07 587.757 1490.93 C 583.725 1489.38 568.072 1474.65 564.255 1470.99 C 527.232 1436.12 495.921 1395.65 471.469 1351.06 C 466.425 1341.97 458.704 1328 455.413 1318.24 z" fill="rgb(139,109,83)" transform="translate(0,0)"></path>
<path d="M 1119.92 1055.62 C 1144.2 1042.36 1163.24 1043.53 1177.51 1069.75 C 1194.56 1101.09 1188.25 1155.05 1173.34 1187 C 1171.78 1184.24 1176.04 1176.06 1177.07 1172.51 C 1185.73 1142.23 1192.09 1101.14 1176.82 1072.13 C 1163.21 1046.26 1144.66 1044.15 1121.29 1057.05 L 1119.92 1055.62 z" fill="rgb(180,146,114)" transform="translate(0,0)"></path>
<path d="M 1114.77 1022.89 L 1117.19 1022.3 C 1124.11 1002.15 1109.03 923.261 1102.6 900.554 C 1101.34 896.111 1098.56 887.843 1099.51 883.683 C 1113.25 924.91 1119.7 971.98 1119.83 1015.3 C 1119.86 1027.01 1119.1 1041.95 1118.62 1054.04 C 1119.05 1054.57 1119.48 1055.09 1119.92 1055.62 L 1121.29 1057.05 L 1118.73 1058.35 C 1112.57 1055.29 1122.08 1032.38 1114.77 1022.89 z" fill="rgb(180,146,114)" transform="translate(0,0)"></path>
<path d="M 923.028 65.0337 C 956.013 101.292 972.893 168.884 949.384 213.545 C 949.219 208.24 954.694 194.131 955.911 187.706 C 963.065 149.941 951.343 95.964 922.993 68.0708 L 923.028 65.0337 z" fill="rgb(180,146,114)" transform="translate(0,0)"></path>
<path d="M 589.201 92.8914 C 600.913 62.5603 648.157 25.4005 678.766 15.3496 C 674.885 19.1696 660.248 25.9104 654.625 28.9334 C 630.086 42.1257 611.628 62.0616 595.94 84.7716 C 593.984 87.6033 592.215 91.1306 589.201 92.8914 z" fill="rgb(226,169,112)" transform="translate(0,0)"></path>
<path d="M 337.669 1190.45 C 324.062 1169.85 312.606 1091.12 329.738 1073.68 C 328.875 1080.64 325.831 1087.31 324.684 1094.26 C 321.069 1116.17 323.729 1138.3 328.314 1159.85 C 329.611 1165.99 337.787 1186.59 337.669 1190.45 z" fill="rgb(180,146,114)" transform="translate(0,0)"></path>
<path d="M 711.299 326.696 C 711.81 331.16 709.498 334.004 707.727 337.984 C 693.611 369.72 686.167 409.685 716.848 434.622 L 716.826 436.806 C 680.702 411.616 694.007 359.21 711.299 326.696 z" fill="rgb(180,146,114)" transform="translate(0,0)"></path>
<path d="M 867.977 305.236 C 868.802 302.084 884.785 290.834 888.363 287.976 C 903.533 275.858 916.52 262.249 928.984 247.422 C 933.618 241.91 939.812 228.43 943.914 225.291 C 936.42 249.57 890.986 290.642 869.698 304.699 C 869.179 305.042 868.584 305.117 867.977 305.236 z" fill="rgb(180,146,114)" transform="translate(0,0)"></path>
<path d="M 594.908 196.994 C 583.963 193.346 574.083 176.026 571.46 165.44 C 568.035 151.616 569.701 131.115 576.833 118.837 C 574.395 141.317 564.034 159.842 580.996 181.447 C 584.622 186.065 592.603 192.573 594.908 196.994 z" fill="rgb(226,169,112)" transform="translate(0,0)"></path>
<path d="M 775.238 439.706 C 778.588 434.165 793.271 425.487 796.965 413.327 C 801.713 397.702 803.672 366.474 816.537 355.298 C 814.083 361.018 807.097 374.913 805.959 379.816 C 801.073 400.889 799.667 429.718 775.238 439.706 z" fill="rgb(180,146,114)" transform="translate(0,0)"></path>
<path d="M 1019.65 1379.97 C 1019.68 1377.06 1030 1362.34 1032.1 1358.68 C 1039.37 1345.72 1046.11 1332.46 1052.28 1318.93 C 1054.36 1314.29 1062.38 1294.38 1065.28 1292.1 C 1061.69 1303.74 1028.08 1375.71 1019.65 1379.97 z" fill="rgb(139,109,83)" transform="translate(0,0)"></path>
<path d="M 594.908 196.994 C 601.505 197.905 605.246 202.11 612.494 203.156 C 621.382 204.438 630.169 204.497 639.019 202.766 C 646.075 201.386 649.749 197.395 656.191 195.903 C 645.449 209.019 605.599 209.4 594.908 196.994 z" fill="rgb(226,169,112)" transform="translate(0,0)"></path>
<path d="M 337.737 1190.91 C 344.306 1196.89 353.085 1222.01 361.484 1229.7 C 362.77 1230.88 367.886 1237 368.765 1238.53 C 367.169 1237.43 365.614 1236.51 363.964 1235.51 C 356.573 1229.08 340.326 1200.68 337.737 1190.91 z" fill="rgb(180,146,114)" transform="translate(0,0)"></path>
<path d="M 813.751 200.837 C 813.442 209.564 803.81 220.064 798.641 227.132 C 797.866 228.193 788.029 238.763 787.399 239.089 L 785.942 237.907 C 800.076 220.756 801.402 222.495 813.751 200.837 z" fill="rgb(226,169,112)" transform="translate(0,0)"></path>
<path d="M 988.137 1422.98 C 989.299 1420.74 1018.55 1380.85 1019.65 1379.97 C 1016.12 1388.39 995.612 1417 988.137 1422.98 z" fill="rgb(139,109,83)" transform="translate(0,0)"></path>
<path d="M 747.45 277.303 L 749.135 278.12 C 749.049 278.282 724.897 306.879 724.192 307.401 L 723.306 308.068 C 726.212 301.282 741.545 282.691 747.45 277.303 z" fill="rgb(226,169,112)" transform="translate(0,0)"></path>
<path d="M 785.942 237.907 L 787.399 239.089 C 781.229 244.563 753.026 272.248 749.135 278.12 L 747.45 277.303 C 758.209 265.736 776.853 248.962 785.942 237.907 z" fill="rgb(139,109,83)" transform="translate(0,0)"></path>
<path d="M 723.82 440.618 C 736.275 443.07 742.307 446.771 757.004 444.767 C 762.038 444.08 765.844 442.333 771.195 441.64 C 758.326 449.154 736.389 448.72 723.82 440.618 z" fill="rgb(180,146,114)" transform="translate(0,0)"></path>
<path d="M 351.351 1050.49 C 364.109 1043.48 379.6 1049.4 390.956 1056.58 L 390.142 1057.8 C 379.645 1052.28 370.519 1047.17 357.997 1049.81 C 355.206 1050.39 354.35 1050.52 351.351 1050.49 z" fill="rgb(226,169,112)" transform="translate(0,0)"></path>
<path d="M 329.738 1073.68 C 332.437 1064.62 342.153 1054.05 351.029 1050.73 C 349.639 1052.72 345.272 1056.35 343.142 1057.58 C 337.066 1061.07 334.521 1070.89 329.738 1073.68 z" fill="rgb(180,146,114)" transform="translate(0,0)"></path>
<path d="M 656.191 195.903 C 657.461 193.85 668.34 181.83 670.697 180.233 C 668.092 185.468 661.704 193.723 656.191 195.903 z" fill="rgb(180,146,114)" transform="translate(0,0)"></path>
<path d="M 363.964 1235.51 C 365.614 1236.51 367.169 1237.43 368.765 1238.53 C 370.316 1241.5 376.754 1247.29 379.465 1249.33 L 379.912 1252.04 C 373.8 1246.45 369.048 1242.11 363.964 1235.51 z" fill="rgb(139,109,83)" transform="translate(0,0)"></path>
<path d="M 924.918 1486.93 L 926.362 1487.5 C 923.803 1489.78 921.856 1491.67 919.133 1493.8 L 919.227 1491.57 C 921.342 1489.99 922.951 1488.67 924.918 1486.93 z" fill="rgb(139,109,83)" transform="translate(0,0)"></path>
<path d="M 1142.83 1235.94 C 1145.49 1232.78 1145.62 1232.63 1148.91 1230.11 C 1146.78 1233.72 1146.18 1234.32 1143.49 1237.42 L 1142.83 1235.94 z" fill="rgb(139,109,83)" transform="translate(0,0)"></path>
<path d="M 686.679 510.425 C 695.661 481.136 747.147 459.398 773.957 476.344 C 778.126 476.679 784.748 480.813 788.072 483.287 C 789.298 484.067 789.641 484.012 790.262 485.074 C 793.755 487.173 794.4 487.746 797.368 490.568 C 830.152 521.722 826.771 573.875 791.199 601.807 C 789.251 603.35 788.908 603.436 786.598 604.462 L 786.416 604.857 C 766.403 618.844 731.39 619.426 711.579 604.855 L 711.386 604.469 C 709.104 603.414 708.739 603.308 706.809 601.761 C 679.6 581.879 670.128 540.418 686.296 510.811 L 686.679 510.425 z" fill="rgb(237,195,158)" transform="translate(0,0)"></path>
<path d="M 797.368 490.568 C 830.152 521.722 826.771 573.875 791.199 601.807 L 791.078 599.618 C 809.329 586.045 819.047 563.756 817.979 541.317 C 817.093 522.686 811.411 508.654 798.87 494.94 C 797.265 493.186 797.101 493.35 795.747 491.152 L 797.368 490.568 z" fill="rgb(180,146,114)" transform="translate(0,0)"></path>
<path d="M 686.679 510.425 C 695.661 481.136 747.147 459.398 773.957 476.344 C 742.601 469.847 718.044 471.764 695.861 498.539 C 692.617 502.454 690.707 507.246 686.679 510.425 z" fill="rgb(180,146,114)" transform="translate(0,0)"></path>
<path d="M 686.296 510.811 C 686.561 516.281 682.318 524.583 681.27 530.35 C 676.482 556.691 686.283 582.617 706.897 599.649 L 706.809 601.761 C 679.6 581.879 670.128 540.418 686.296 510.811 z" fill="rgb(180,146,114)" transform="translate(0,0)"></path>
<path d="M 711.579 604.855 C 716.218 604.258 714.816 604.759 719.175 607.094 C 736.251 616.244 760.323 615.321 777.768 607.59 C 781.583 605.9 782.096 604.039 786.416 604.857 C 766.403 618.844 731.39 619.426 711.579 604.855 z" fill="rgb(226,169,112)" transform="translate(0,0)"></path>
<path d="M 773.957 476.344 C 778.126 476.679 784.748 480.813 788.072 483.287 C 783.649 482.307 776.282 480.68 773.957 476.344 z" fill="rgb(226,169,112)" transform="translate(0,0)"></path>
<path d="M 706.897 599.649 C 709.75 601.096 709.668 601.562 711.386 604.469 C 709.104 603.414 708.739 603.308 706.809 601.761 L 706.897 599.649 z" fill="rgb(226,169,112)" transform="translate(0,0)"></path>
<path d="M 786.598 604.462 C 788.191 602.008 788.482 600.846 791.078 599.618 L 791.199 601.807 C 789.251 603.35 788.908 603.436 786.598 604.462 z" fill="rgb(226,169,112)" transform="translate(0,0)"></path>
<path d="M 790.262 485.074 C 793.755 487.173 794.4 487.746 797.368 490.568 L 795.747 491.152 C 793.093 488.487 792.495 488.056 790.262 485.074 z" fill="rgb(139,109,83)" transform="translate(0,0)"></path>
<metadata><recraft-signature>{"signed_by": "recraft", "signature_b64": "pCKpJYXhS8bk+/1UmA1rGg6NQGB9AHlJsjeNp0yy40e5ItRZxLR4Be1lx2BFIJkX5m5P0rzb5AQuAxI644qSBQ==", "signing_algo": "Ed25519", "generation_timestamp": 1779106908, "identifier": "ff163a35-eb9b-46f1-8cba-848986d8fb37"}</recraft-signature></metadata></svg>