<svg xmlns="http://www.w3.org/2000/svg" height="1216" preserveAspectRatio="none" style="display: block;" version="1.1" viewBox="0 0 1509 2048" width="896">
<path d="M 0 0 L 1509 0 L 1509 2048 L 0 2048 L 0 0 z" fill="rgb(255,255,255)" transform="translate(0,0)"></path>
<path d="M 656.909 811.346 C 668.004 806.479 667.749 812.031 677.266 817.949 C 726.007 848.26 781.959 844.614 830.941 817.68 C 840.452 812.458 843.723 807.437 854.128 811.685 C 854.139 813.919 854.267 817.2 854.137 819.332 C 853.5 846.569 854.305 878.482 852.976 904.751 C 870.095 904.986 888.861 904.46 905.618 904.985 L 966.178 904.921 C 1007.28 908.077 1056.01 933.626 1082.83 964.907 C 1093.84 977.598 1103.55 991.354 1111.84 1005.97 C 1122.38 1024.66 1133.52 1050.3 1143.15 1070.14 L 1209.16 1206.43 L 1254.81 1300.23 C 1263.38 1317.81 1274.68 1338.2 1280.85 1356.46 C 1293.44 1393.76 1288.66 1441.49 1265.04 1473.16 C 1228.4 1522.29 1185.38 1521.81 1130.34 1520.05 C 1108.81 1519.36 1085.48 1520.55 1063.46 1519.93 C 1062.42 1541.24 1064.99 1703.68 1062.41 1709.86 C 1061.16 1725.16 1056.98 1737.81 1044.84 1748.06 C 1038.55 1753.33 1031.11 1757.05 1023.12 1758.92 C 1008.75 1762.36 957.938 1760.41 939.546 1760.76 C 937.755 1768.73 934.461 1779.47 932.248 1787.57 C 905.162 1779.07 866.619 1766.59 839.183 1760.08 C 838.045 1760.29 836.145 1760.6 835.004 1760.59 C 813.687 1760.47 792.322 1760.19 771.01 1760.22 L 620.315 1760.54 L 541.037 1760.62 C 508.079 1760.71 461.643 1767.18 451.022 1721.98 C 449.96 1716.82 449.312 1711.24 449.228 1705.99 C 448.304 1648.22 450.096 1590.16 449.166 1532.43 C 448.718 1528.92 448.733 1523.61 448.631 1519.95 L 370.932 1520.2 C 331.511 1520.28 306.603 1523.91 272.342 1498.73 C 246.1 1479.34 228.815 1450.16 224.417 1417.83 C 217.133 1366.76 246.543 1320.32 268.416 1276.31 L 319.081 1172.52 L 374.584 1059.2 C 396.169 1015.21 412.651 974.449 452.243 942.945 C 481.208 919.896 508.92 910.006 545.064 905.152 C 565.66 904.944 586.257 904.871 606.854 904.934 C 617.732 904.921 646.677 905.47 655.794 903.797 C 657.42 901.728 656.967 898.803 657.138 895.647 C 656.861 870.247 657.591 843.892 656.671 818.605 C 655.896 815.593 656.35 814.508 656.909 811.346 z" fill="rgb(183,147,99)" transform="translate(0,0)"></path>
<path d="M 656.909 811.346 C 668.004 806.479 667.749 812.031 677.266 817.949 C 726.007 848.26 781.959 844.614 830.941 817.68 C 840.452 812.458 843.723 807.437 854.128 811.685 C 854.139 813.919 854.267 817.2 854.137 819.332 C 853.5 846.569 854.305 878.482 852.976 904.751 C 870.095 904.986 888.861 904.46 905.618 904.985 L 905.329 1115.01 L 765.922 1115.07 L 765.84 1179.17 L 788.383 1179.97 C 788.671 1198.3 788.704 1216.63 788.484 1234.96 C 734.379 1234.4 680.269 1234.29 626.162 1234.65 L 626.097 1311.53 C 626.081 1324.2 626.574 1342.72 625.609 1354.88 C 623.117 1356.48 620.116 1356 616.717 1356.14 C 604.519 1355.05 591.869 1354.95 579.374 1353.93 C 578.346 1349.41 578.765 1332.89 578.802 1327.29 C 565.884 1330.51 553.986 1335.48 541.203 1338.62 C 541.337 1339.96 541.498 1341.58 541.687 1343.48 C 536.251 1354.62 526.548 1365.42 521.416 1377.03 C 498.973 1427.79 508.552 1477.78 545.562 1517.48 C 544.384 1521.56 544.487 1522.4 541.34 1524.88 C 535.824 1526.72 532.749 1523.41 529.184 1519.68 C 504.748 1520.77 474.527 1519.87 449.645 1519.97 C 449.514 1523.65 449.478 1528.88 449.166 1532.43 C 448.718 1528.92 448.733 1523.61 448.631 1519.95 L 370.932 1520.2 C 331.511 1520.28 306.603 1523.91 272.342 1498.73 C 246.1 1479.34 228.815 1450.16 224.417 1417.83 C 217.133 1366.76 246.543 1320.32 268.416 1276.31 L 319.081 1172.52 L 374.584 1059.2 C 396.169 1015.21 412.651 974.449 452.243 942.945 C 481.208 919.896 508.92 910.006 545.064 905.152 C 565.66 904.944 586.257 904.871 606.854 904.934 C 617.732 904.921 646.677 905.47 655.794 903.797 C 657.42 901.728 656.967 898.803 657.138 895.647 C 656.861 870.247 657.591 843.892 656.671 818.605 C 655.896 815.593 656.35 814.508 656.909 811.346 z" fill="rgb(8,7,7)" transform="translate(0,0)"></path>
<path d="M 448.631 1519.95 L 370.932 1520.2 C 331.511 1520.28 306.603 1523.91 272.342 1498.73 C 246.1 1479.34 228.815 1450.16 224.417 1417.83 C 217.133 1366.76 246.543 1320.32 268.416 1276.31 L 319.081 1172.52 L 374.584 1059.2 C 396.169 1015.21 412.651 974.449 452.243 942.945 C 481.208 919.896 508.92 910.006 545.064 905.152 C 544.426 942.665 545.738 981.829 544.774 1018.95 L 510.839 1019.03 L 510.832 1179.1 L 488.03 1179.02 L 488.062 1018.87 L 441.186 1018.89 C 441.222 1072.07 441.922 1126.83 441.181 1179.87 L 418.346 1179.87 L 418.22 1234.97 L 458.192 1234.89 C 462.834 1234.92 467.735 1234.88 472.353 1235.04 C 480.462 1234.96 489.464 1234.67 497.498 1234.82 C 518.094 1233.32 557.18 1234.96 579.807 1234.93 L 579.911 1316.56 C 579.916 1323.27 580.303 1348.71 579.374 1353.93 C 578.346 1349.41 578.765 1332.89 578.802 1327.29 C 565.884 1330.51 553.986 1335.48 541.203 1338.62 C 541.337 1339.96 541.498 1341.58 541.687 1343.48 C 536.251 1354.62 526.548 1365.42 521.416 1377.03 C 498.973 1427.79 508.552 1477.78 545.562 1517.48 C 544.384 1521.56 544.487 1522.4 541.34 1524.88 C 535.824 1526.72 532.749 1523.41 529.184 1519.68 C 504.748 1520.77 474.527 1519.87 449.645 1519.97 C 449.514 1523.65 449.478 1528.88 449.166 1532.43 C 448.718 1528.92 448.733 1523.61 448.631 1519.95 z" fill="rgb(233,232,231)" transform="translate(0,0)"></path>
<path d="M 497.498 1234.82 C 518.094 1233.32 557.18 1234.96 579.807 1234.93 L 579.911 1316.56 C 579.916 1323.27 580.303 1348.71 579.374 1353.93 C 578.346 1349.41 578.765 1332.89 578.802 1327.29 C 565.884 1330.51 553.986 1335.48 541.203 1338.62 C 531.874 1334.09 444.723 1338.92 425.994 1336.76 L 425.516 1335.76 C 441.61 1304.12 456.846 1267.5 472.353 1235.04 C 480.462 1234.96 489.464 1234.67 497.498 1234.82 z" fill="rgb(183,147,99)" transform="translate(0,0)"></path>
<path d="M 472.353 1235.04 C 480.462 1234.96 489.464 1234.67 497.498 1234.82 C 505.786 1235.19 513.055 1235.2 521.327 1235.11 L 488.675 1295.52 C 482.4 1307.28 473.23 1325.31 466.097 1336.26 C 458.982 1336.27 430.819 1336.8 425.516 1335.76 C 441.61 1304.12 456.846 1267.5 472.353 1235.04 z" fill="rgb(233,232,231)" transform="translate(0,0)"></path>
<path d="M 458.192 1234.89 C 462.834 1234.92 467.735 1234.88 472.353 1235.04 C 456.846 1267.5 441.61 1304.12 425.516 1335.76 L 425.994 1336.76 C 444.723 1338.92 531.874 1334.09 541.203 1338.62 C 541.337 1339.96 541.498 1341.58 541.687 1343.48 C 536.251 1354.62 526.548 1365.42 521.416 1377.03 C 498.973 1427.79 508.552 1477.78 545.562 1517.48 C 544.384 1521.56 544.487 1522.4 541.34 1524.88 C 535.824 1526.72 532.749 1523.41 529.184 1519.68 C 513.242 1500.63 503.464 1482.5 498.869 1457.76 C 491.741 1420.26 499.804 1381.47 521.283 1349.91 C 460.356 1349.84 399.428 1349.87 338.502 1349.95 C 332.988 1349.96 318.416 1351 322.506 1340.84 C 330.304 1334.28 350.031 1336.33 360.266 1336.41 L 411.056 1336.7 C 426.23 1302.52 441.944 1268.58 458.192 1234.89 z" fill="rgb(8,7,7)" transform="translate(0,0)"></path>
<path d="M 656.909 811.346 C 668.004 806.479 667.749 812.031 677.266 817.949 C 726.007 848.26 781.959 844.614 830.941 817.68 C 840.452 812.458 843.723 807.437 854.128 811.685 C 854.139 813.919 854.267 817.2 854.137 819.332 C 853.5 846.569 854.305 878.482 852.976 904.751 C 870.095 904.986 888.861 904.46 905.618 904.985 L 905.329 1115.01 L 765.922 1115.07 L 765.959 1018.64 C 750.05 1018.76 734.141 1018.63 718.236 1018.24 C 717.79 1050.15 718.186 1083.12 718.185 1115.11 L 696.077 1115.09 C 696.226 1107.24 696.129 1099.39 695.787 1091.54 C 695.2 1068.55 695.942 1042.18 696.024 1018.91 L 648.944 1018.91 L 648.77 1051.47 C 647.164 1063.8 647.986 1101.34 647.999 1115.2 C 641.859 1115.15 631.951 1115.36 626.078 1114.99 L 626.016 1018.55 C 621.872 1017.95 611.631 1018.18 607.025 1018.17 L 606.854 904.934 C 617.732 904.921 646.677 905.47 655.794 903.797 C 657.42 901.728 656.967 898.803 657.138 895.647 C 656.861 870.247 657.591 843.892 656.671 818.605 C 655.896 815.593 656.35 814.508 656.909 811.346 z" fill="rgb(233,232,231)" transform="translate(0,0)"></path>
<path d="M 656.909 811.346 C 668.004 806.479 667.749 812.031 677.266 817.949 C 726.007 848.26 781.959 844.614 830.941 817.68 C 840.452 812.458 843.723 807.437 854.128 811.685 C 854.139 813.919 854.267 817.2 854.137 819.332 C 853.5 846.569 854.305 878.482 852.976 904.751 C 850.4 919.588 844.231 933.569 835.008 945.473 C 788.377 1005.73 690.203 993.524 662.74 921.768 C 659.274 912.711 658.223 905.107 657.138 895.647 C 656.861 870.247 657.591 843.892 656.671 818.605 C 655.896 815.593 656.35 814.508 656.909 811.346 z" fill="rgb(225,181,157)" transform="translate(0,0)"></path>
<path d="M 656.909 811.346 C 668.004 806.479 667.749 812.031 677.266 817.949 C 726.007 848.26 781.959 844.614 830.941 817.68 C 840.452 812.458 843.723 807.437 854.128 811.685 C 854.139 813.919 854.267 817.2 854.137 819.332 C 838.687 831 812.597 841.076 794.168 846.948 C 750.774 860.776 690.757 850.476 656.671 818.605 C 655.896 815.593 656.35 814.508 656.909 811.346 z" fill="rgb(8,7,7)" transform="translate(0,0)"></path>
<path d="M 545.064 905.152 C 565.66 904.944 586.257 904.871 606.854 904.934 L 607.025 1018.17 C 611.631 1018.18 621.872 1017.95 626.016 1018.55 C 614.876 1019.66 591.428 1018.57 579.306 1018.42 C 578.203 1070.74 579.21 1126.69 579.201 1179.3 L 557.949 1179.54 L 557.232 1018.98 L 544.774 1018.95 C 545.738 981.829 544.426 942.665 545.064 905.152 z" fill="rgb(183,147,99)" transform="translate(0,0)"></path>
<path d="M 695.232 1179.35 C 695.168 1151.83 694.396 1118.8 695.787 1091.54 C 696.129 1099.39 696.226 1107.24 696.077 1115.09 L 718.185 1115.11 C 718.131 1136.55 718.227 1158 718.472 1179.44 L 695.232 1179.35 z" fill="rgb(183,147,99)" transform="translate(0,0)"></path>
<path d="M 647.999 1115.2 C 647.986 1101.34 647.164 1063.8 648.77 1051.47 C 649.788 1091.67 648.65 1138.32 648.013 1179.08 L 626.672 1179.21 C 626.213 1157.81 626.014 1136.4 626.078 1114.99 C 631.951 1115.36 641.859 1115.15 647.999 1115.2 z" fill="rgb(183,147,99)" transform="translate(0,0)"></path>
<path d="M 966.178 904.921 C 1007.28 908.077 1056.01 933.626 1082.83 964.907 C 1093.84 977.598 1103.55 991.354 1111.84 1005.97 C 1122.38 1024.66 1133.52 1050.3 1143.15 1070.14 L 1209.16 1206.43 L 1254.81 1300.23 C 1263.38 1317.81 1274.68 1338.2 1280.85 1356.46 C 1293.44 1393.76 1288.66 1441.49 1265.04 1473.16 C 1228.4 1522.29 1185.38 1521.81 1130.34 1520.05 C 1108.81 1519.36 1085.48 1520.55 1063.46 1519.93 C 1062.42 1541.24 1064.99 1703.68 1062.41 1709.86 C 1061.16 1725.16 1056.98 1737.81 1044.84 1748.06 C 1038.55 1753.33 1031.11 1757.05 1023.12 1758.92 C 1008.75 1762.36 957.938 1760.41 939.546 1760.76 C 943.242 1750.66 946.35 1738.49 949.502 1728.19 C 958.759 1697.95 964.716 1673.15 954.226 1641.75 C 940.697 1601.25 915.585 1573.45 878.156 1554.2 C 880.092 1543.85 884.722 1528.76 887.497 1517.96 C 893.808 1518.02 935.451 1519.17 938.307 1516.95 C 944.176 1508.72 952.148 1501.63 957.024 1493.04 C 981.768 1449.44 979.021 1393.38 947.735 1353.75 C 943.991 1349.01 941.229 1346.35 941.519 1340.17 C 948.908 1335.31 971.64 1336.96 981.037 1336.98 L 1049.32 1336.97 C 1022.29 1287.63 994.549 1238.69 966.107 1190.16 L 966.178 904.921 z" fill="rgb(233,232,231)" transform="translate(0,0)"></path>
<path d="M 938.307 1516.95 C 939.31 1520.87 939.228 1521.87 941.973 1524.58 C 947.642 1526.5 950.05 1523.73 953.854 1519.68 C 988.661 1520.62 1027.04 1519.83 1062.12 1519.77 L 1062.04 1654.18 C 1062.02 1663.17 1061.27 1703.47 1062.41 1709.86 C 1061.16 1725.16 1056.98 1737.81 1044.84 1748.06 C 1038.55 1753.33 1031.11 1757.05 1023.12 1758.92 C 1008.75 1762.36 957.938 1760.41 939.546 1760.76 C 943.242 1750.66 946.35 1738.49 949.502 1728.19 C 958.759 1697.95 964.716 1673.15 954.226 1641.75 C 940.697 1601.25 915.585 1573.45 878.156 1554.2 C 880.092 1543.85 884.722 1528.76 887.497 1517.96 C 893.808 1518.02 935.451 1519.17 938.307 1516.95 z" fill="rgb(183,147,99)" transform="translate(0,0)"></path>
<path d="M 1084.79 1336.68 C 1083.92 1334.64 1081.09 1328.64 1080.4 1326.85 C 1073.79 1309.61 1010.26 1194.74 1011.97 1184.83 C 1014.41 1181.75 1013.14 1182.71 1016.78 1181.2 C 1025.05 1181.97 1029.41 1193.92 1032.64 1200.49 C 1054.84 1245.71 1076.3 1292.37 1100.03 1336.76 C 1113.43 1336.73 1178.25 1333.46 1187.04 1340.32 C 1189.83 1353.03 1163.74 1350.17 1156.49 1350.1 L 1120.18 1350.06 L 961.364 1349.87 C 982.58 1379.93 991.132 1417.12 985.174 1453.43 C 980.539 1481.38 971.109 1498.19 953.854 1519.68 C 950.05 1523.73 947.642 1526.5 941.973 1524.58 C 939.228 1521.87 939.31 1520.87 938.307 1516.95 C 944.176 1508.72 952.148 1501.63 957.024 1493.04 C 981.768 1449.44 979.021 1393.38 947.735 1353.75 C 943.991 1349.01 941.229 1346.35 941.519 1340.17 C 948.908 1335.31 971.64 1336.96 981.037 1336.98 L 1049.32 1336.97 C 1060.84 1336.88 1073.37 1337.04 1084.79 1336.68 z" fill="rgb(8,7,7)" transform="translate(0,0)"></path>
<path d="M 846.688 1517.67 C 860.217 1518.17 873.946 1518 887.497 1517.96 C 884.722 1528.76 880.092 1543.85 878.156 1554.2 C 915.585 1573.45 940.697 1601.25 954.226 1641.75 C 964.716 1673.15 958.759 1697.95 949.502 1728.19 C 946.35 1738.49 943.242 1750.66 939.546 1760.76 C 937.755 1768.73 934.461 1779.47 932.248 1787.57 C 905.162 1779.07 866.619 1766.59 839.183 1760.08 C 822.192 1754.04 798.498 1747.9 780.595 1742.67 C 743.674 1731.98 706.817 1721.08 670.026 1709.96 C 674.537 1694.53 679.204 1679.14 684.025 1663.8 C 693.97 1631.6 700.502 1604.64 726.628 1580.51 C 760.844 1548.9 790.471 1542.12 835.254 1543.35 C 837.618 1535.98 840.265 1526.67 843.102 1519.54 C 843.707 1518.02 844.707 1518.21 846.688 1517.67 z" fill="rgb(8,7,7)" transform="translate(0,0)"></path>
<path d="M 541.203 1338.62 C 553.986 1335.48 565.884 1330.51 578.802 1327.29 C 578.765 1332.89 578.346 1349.41 579.374 1353.93 C 591.869 1354.95 604.519 1355.05 616.717 1356.14 C 630.421 1359.02 651.835 1353.52 660.912 1366.87 C 668.993 1378.75 663.598 1389.08 655.216 1397.75 C 670.067 1401.13 678.973 1408.6 674.128 1425.11 C 674.151 1426.6 666.963 1438.62 666.912 1438.42 C 669.037 1446.87 678.094 1453.04 675.131 1463.02 C 672.878 1470.61 666.02 1475.66 659.32 1479.11 L 658.695 1479.43 C 665.022 1493.17 664.774 1508.16 648.899 1515.37 C 641.183 1518.87 634.28 1518.12 626.017 1517.87 C 611.352 1517.45 594.628 1517.8 579.809 1517.81 C 568.448 1517.9 556.889 1518.13 545.562 1517.48 C 508.552 1477.78 498.973 1427.79 521.416 1377.03 C 526.548 1365.42 536.251 1354.62 541.687 1343.48 C 541.498 1341.58 541.337 1339.96 541.203 1338.62 z" fill="rgb(225,181,157)" transform="translate(0,0)"></path>
<path d="M 917.865 1328.99 C 922.408 1331.03 938.959 1337.46 941.519 1340.17 C 941.229 1346.35 943.991 1349.01 947.735 1353.75 C 979.021 1393.38 981.768 1449.44 957.024 1493.04 C 952.148 1501.63 944.176 1508.72 938.307 1516.95 C 935.451 1519.17 893.808 1518.02 887.497 1517.96 C 873.946 1518 860.217 1518.17 846.688 1517.67 C 843.868 1516.73 840.682 1517.17 837.02 1515.62 C 822.042 1509.27 819.579 1493.23 825.778 1479.4 C 805.931 1470.11 802.176 1454.74 818.263 1439.14 L 817.814 1438.67 L 817.076 1437.87 C 800.667 1420.53 806.077 1403.92 828.382 1397.04 C 823.269 1391.79 820.691 1387.56 820.503 1379.91 C 819.853 1353.39 846.214 1356.82 864.562 1357.01 C 865.975 1353.45 867.08 1351.29 868.835 1347.93 L 912.694 1347.63 L 917.865 1328.99 z" fill="rgb(225,181,157)" transform="translate(0,0)"></path>
<path d="M 579.809 1517.81 C 594.628 1517.8 611.352 1517.45 626.017 1517.87 L 626.036 1637.21 C 626.024 1657.12 626.597 1678.01 625.234 1697.87 C 624.46 1709.16 614.777 1717.3 603.422 1717.54 C 597.445 1717.7 591.655 1715.44 587.374 1711.26 C 584.848 1708.81 581.02 1703.13 580.732 1699.81 C 579.149 1681.53 579.826 1660.16 579.825 1641.82 L 579.809 1517.81 z" fill="rgb(8,7,7)" transform="translate(0,0)"></path>
<path d="M 868.835 1347.93 C 875.445 1323.7 882.224 1299.52 889.171 1275.39 C 893.095 1261.72 896.707 1248.04 901.741 1234.74 C 905.593 1224.56 915.653 1219.13 926.321 1221.59 C 931.52 1222.78 935.999 1226.06 938.7 1230.66 C 945.442 1242.14 936.135 1265.21 932.524 1277.69 L 917.865 1328.99 L 912.694 1347.63 L 868.835 1347.93 z" fill="rgb(8,7,7)" transform="translate(0,0)"></path>
<path d="M 526.974 549.933 C 527.098 525.761 526.574 498.433 528.466 474.636 C 532.554 423.209 554.604 368.928 590.179 330.993 C 630.384 287.343 686.428 261.66 745.74 259.703 C 881.377 255.382 979.964 358.731 984.151 491.766 C 985.526 504.406 984.862 531.889 984.887 546.01 C 1000.98 552.983 1010.71 560.79 1017.47 577.741 C 1023.03 591.47 1022.81 606.864 1016.86 620.428 C 1009.51 637.508 1004.92 636.579 993.305 647.132 L 996.339 651.645 C 1022.23 660.464 1041.43 674.854 1053.82 700.042 C 1064.66 722.627 1066.29 748.543 1058.37 772.309 C 1050.68 795.011 1034.19 813.671 1012.6 824.099 C 990.736 834.764 965.494 836.175 942.574 828.014 C 918.38 819.426 902.264 803.67 890.701 781.155 C 883.53 788.197 856.915 808.245 854.128 811.685 C 843.723 807.437 840.452 812.458 830.941 817.68 C 781.959 844.614 726.007 848.26 677.266 817.949 C 667.749 812.031 668.004 806.479 656.909 811.346 C 653.9 806.581 632.263 791.704 625.936 785.803 C 587.371 749.834 562.714 707.93 548.23 657.754 C 537.176 657.272 529.399 656.935 519.177 652.001 C 506.005 645.559 495.988 634.079 491.39 620.156 C 486.825 606.752 487.782 590.729 494.207 578.068 C 501.006 564.747 512.778 554.639 526.974 549.933 z" fill="rgb(225,181,157)" transform="translate(0,0)"></path>
<path d="M 526.974 549.933 C 527.098 525.761 526.574 498.433 528.466 474.636 C 532.554 423.209 554.604 368.928 590.179 330.993 C 630.384 287.343 686.428 261.66 745.74 259.703 C 881.377 255.382 979.964 358.731 984.151 491.766 C 983.835 509.632 983.781 527.503 983.991 545.372 C 973.516 542.649 967.328 542.723 956.527 542.647 C 903.442 469.849 844.426 414.974 755.343 390.587 C 737.925 396.122 723.738 400.824 707.154 408.56 C 644.912 437.596 587.628 489.668 551.683 548.143 C 541.569 547.45 536.822 547.506 526.974 549.933 z" fill="rgb(108,81,53)" transform="translate(0,0)"></path>
<path d="M 965.703 652.076 C 977.712 651.945 982.024 651.423 993.305 647.132 L 996.339 651.645 C 1022.23 660.464 1041.43 674.854 1053.82 700.042 C 1064.66 722.627 1066.29 748.543 1058.37 772.309 C 1050.68 795.011 1034.19 813.671 1012.6 824.099 C 990.736 834.764 965.494 836.175 942.574 828.014 C 918.38 819.426 902.264 803.67 890.701 781.155 C 906.839 764.393 913.281 755.746 926.806 736.865 C 943.739 711.177 956.793 681.481 965.703 652.076 z" fill="rgb(108,81,53)" transform="translate(0,0)"></path>
<path d="M 965.703 652.076 C 977.712 651.945 982.024 651.423 993.305 647.132 L 996.339 651.645 C 1000.77 674.019 1001.53 691.358 988.051 711.581 C 979.594 724.548 966.2 733.49 950.981 736.331 C 942.494 737.965 935.316 737.692 926.806 736.865 C 943.739 711.177 956.793 681.481 965.703 652.076 z" fill="rgb(183,147,99)" transform="translate(0,0)"></path>
<path d="M 676.721 699.023 C 680.989 698.693 703.969 698.529 707.132 698.785 C 723.076 700.076 828.281 696.013 834.251 700.526 C 843.003 713.806 822.342 745.866 812.361 755.8 C 775.318 788.355 721.965 785.056 690.136 745.924 C 681.949 735.858 668.807 711.637 676.721 699.023 z" fill="rgb(8,7,7)" transform="translate(0,0)"></path>
<path d="M 718.494 712.114 L 719.977 712.7 C 742.397 712.78 771.616 713.763 793.442 712.734 L 794.511 712.961 C 803.464 712.852 813.145 712.778 822.06 713.099 C 820.536 718.48 819.199 724.385 816.294 729.129 L 815.956 729.984 C 793.552 775.694 721.501 774.645 695.636 730.072 C 691.751 722.82 691.203 720.65 689.072 712.955 C 696.931 712.776 711.53 713.225 718.494 712.114 z" fill="rgb(233,232,231)" transform="translate(0,0)"></path>
<path d="M 719.977 712.7 C 742.397 712.78 771.616 713.763 793.442 712.734 C 792.914 719.348 793.107 723.5 792.898 729.807 C 776.676 730.07 760.404 729.678 744.153 729.965 L 742.226 730.511 C 736.781 729.575 725.998 729.761 720.183 729.902 C 719.897 724.719 720.019 718.031 719.977 712.7 z" fill="rgb(255,255,255)" transform="translate(0,0)"></path>
<path d="M 742.226 730.511 C 741.983 727.708 741.174 715.993 743.278 714.674 C 743.974 715.317 744.027 718.505 744.059 719.498 C 744.159 722.986 744.191 726.476 744.153 729.965 L 742.226 730.511 z" fill="rgb(233,232,231)" transform="translate(0,0)"></path>
<path d="M 718.494 712.114 L 719.977 712.7 C 720.019 718.031 719.897 724.719 720.183 729.902 C 719.43 729.931 718.823 729.959 718.066 729.941 C 710.591 729.664 703.107 729.707 695.636 730.072 C 691.751 722.82 691.203 720.65 689.072 712.955 C 696.931 712.776 711.53 713.225 718.494 712.114 z" fill="rgb(255,255,255)" transform="translate(0,0)"></path>
<path d="M 718.494 712.114 L 719.977 712.7 C 720.019 718.031 719.897 724.719 720.183 729.902 C 719.43 729.931 718.823 729.959 718.066 729.941 C 718.394 723.395 717.769 718.862 718.494 712.114 z" fill="rgb(233,232,231)" transform="translate(0,0)"></path>
<path d="M 793.442 712.734 L 794.511 712.961 C 803.464 712.852 813.145 712.778 822.06 713.099 C 820.536 718.48 819.199 724.385 816.294 729.129 L 815.956 729.984 C 808.073 729.595 800.772 730.129 792.898 729.807 C 793.107 723.5 792.914 719.348 793.442 712.734 z" fill="rgb(255,255,255)" transform="translate(0,0)"></path>
<path d="M 793.442 712.734 L 794.511 712.961 C 794.859 718.384 795.141 723.657 795.155 729.092 C 802.378 728.956 809.063 728.659 816.294 729.129 L 815.956 729.984 C 808.073 729.595 800.772 730.129 792.898 729.807 C 793.107 723.5 792.914 719.348 793.442 712.734 z" fill="rgb(233,232,231)" transform="translate(0,0)"></path>
<path d="M 743.525 559.687 C 745.171 559.815 748.751 560.024 749.905 561 C 759.186 568.84 746.454 602.944 743.194 613.303 C 741.042 620.141 733.202 632.445 733.734 639.306 C 738.846 649.96 753.107 645.748 753.46 656.457 C 752.099 660.041 751.431 660.328 748.161 662.438 C 733.654 661.53 721.975 650.381 717.875 636.865 C 726.634 620.211 733.81 605.601 736.811 586.792 C 737.992 579.393 738.814 564.204 743.525 559.687 z" fill="rgb(8,7,7)" transform="translate(0,0)"></path>
<path d="M 660.874 549.567 C 671.651 546.87 682.566 553.451 685.211 564.24 C 687.857 575.03 681.224 585.913 670.422 588.507 C 659.693 591.084 648.898 584.506 646.27 573.789 C 643.642 563.071 650.17 552.246 660.874 549.567 z" fill="rgb(8,7,7)" transform="translate(0,0)"></path>
<path d="M 836.437 549.793 C 847.12 547.082 857.982 553.526 860.724 564.2 C 863.467 574.875 857.056 585.756 846.389 588.53 C 835.678 591.316 824.741 584.872 821.987 574.152 C 819.233 563.433 825.71 552.515 836.437 549.793 z" fill="rgb(8,7,7)" transform="translate(0,0)"></path>
<path d="M 660.204 496.279 C 675.256 494.609 689.521 498.502 701.491 508.026 C 704.881 510.723 703.853 517.071 700.004 518.996 C 696.332 520.832 693.732 518.126 690.73 516.157 C 686.069 512.833 680.878 511.382 675.674 509.822 C 665.191 508.716 655.301 508.863 646.126 515.08 C 642.431 518.524 635.285 523.213 631.384 516.622 C 623.922 504.016 653.592 497.334 660.204 496.279 z" fill="rgb(8,7,7)" transform="translate(0,0)"></path>
<path d="M 833.208 496.201 C 843.099 495.35 894.05 500.344 874.359 519.471 C 873.576 520.232 855.537 510.994 851.967 509.641 C 843.911 508.585 827.856 507.888 822.005 514.173 C 815.182 521.501 800.919 522.534 806.026 509.569 C 808.278 503.851 826.036 497.763 833.208 496.201 z" fill="rgb(8,7,7)" transform="translate(0,0)"></path>
<metadata><recraft-signature>{"signed_by": "recraft", "signature_b64": "QSbQkLBFIsEuE1+fNrSofFZcOT+BnKrCZw08eO5qu2S+vXoz6F1STLk7VWOIlevFRfrpkgwJ0PixzGRyx/dtBg==", "signing_algo": "Ed25519", "generation_timestamp": 1779105739, "identifier": "0d19f21d-e3f9-4798-ad90-1cd184bb7ca5"}</recraft-signature></metadata></svg>