<svg xmlns="http://www.w3.org/2000/svg" height="1216" preserveAspectRatio="none" style="display: block;" version="1.1" viewBox="0 0 1509 2048" width="896">
<path d="M 0 0 L 1021.53 0 L 1081.21 0 L 1509 0 L 1509 424.511 L 1509 477.599 L 1509 2048 L 1315.8 2048 L 1308.74 2048 L 1300.83 2048 L 1292.72 2048 L 1056.36 2048 L 1048.95 2048 L 974.493 2048 L 967.85 2048 L 485.587 2048 L 478.822 2048 L 403.088 2048 L 396.547 2048 L 158.466 2048 L 151.205 2048 L 144.382 2048 L 137.918 2048 L 0 2048 L 0 851.045 L 0 836.311 L 0 0 z" fill="rgb(29,25,25)" transform="translate(0,0)"></path>
<path d="M 883.266 394.071 C 883.417 384.752 883.48 375.431 883.455 366.111 C 883.602 334.295 883.856 315.471 908.141 291.025 C 936.343 262.636 971.887 267.554 1009.17 267.903 C 1008.87 288.162 1005.9 303.101 1032.74 302.538 C 1048.69 302.204 1077.61 305.693 1091.38 297.075 C 1097.22 293.425 1095.68 274.872 1095.4 268.289 C 1097.25 268.206 1099.1 268.159 1100.95 268.149 C 1138.91 267.786 1178.27 262.527 1206.42 291.601 C 1230.32 316.295 1230.04 337.7 1229.98 368.999 L 1229.9 409.011 C 1190.73 408.337 1187.32 410.742 1187.64 451.007 C 1187.95 489.492 1189.75 492.881 1229.73 492.581 C 1230.35 548.845 1229.03 606.015 1230.15 662.116 C 1230.94 663.111 1233.38 666.038 1234.19 666.841 C 1252.92 685.393 1305.33 690.441 1331.3 691.049 C 1365.12 691.841 1430.37 690.661 1457.74 667.708 C 1459.6 666.144 1462.9 661.811 1463.03 659.385 C 1463.99 641.493 1463.27 621.901 1463.22 604.058 L 1463.99 492.923 C 1483.1 493.047 1498.72 496.685 1509 477.599 L 1509 2048 L 1315.8 2048 C 1309.64 2032.03 1304.28 2015.15 1298.33 1998.98 C 1264.8 1907.73 1229.58 1819.27 1183.02 1733.76 C 1194.13 1734.32 1204.52 1734.64 1215.59 1734.18 C 1281.45 1731.44 1342.87 1692.25 1385.94 1644.4 C 1397.14 1630.48 1419.26 1609.32 1417.17 1590.02 C 1414.13 1561.95 1386.92 1565.76 1366.92 1566.61 L 1316.86 1568.87 C 1273.58 1570.98 1227.99 1571.93 1185.12 1575.14 C 1182.75 1558.98 1181.79 1536.49 1180.65 1519.83 C 1178.75 1490.58 1176.59 1461.35 1174.17 1432.14 C 1191.26 1430.28 1215.77 1429.95 1233.5 1429.19 L 1332.04 1424.76 C 1351.42 1423.97 1371.54 1423.78 1390.58 1421.55 C 1403.21 1420.07 1411.24 1404.61 1411.3 1393.08 C 1411.82 1382.24 1405.22 1374.67 1398.69 1366.55 C 1352.3 1308.84 1275.93 1264.1 1200.84 1262.89 C 1144.75 1261.99 1085.47 1289.17 1048.75 1331.13 C 1035.69 1346.06 1026.44 1363.86 1012.02 1377.61 C 990.587 1398.41 958.933 1411.65 929.408 1414.47 C 916.943 1415.66 899.91 1415.1 887.213 1414.97 C 907.218 1400.82 927.254 1386.9 945.597 1370.6 C 1008.34 1314.52 1051.87 1240.15 1070.05 1157.98 C 1099.47 1158.63 1121.13 1154.04 1144.48 1134.28 C 1166.89 1115.59 1180.76 1088.61 1182.91 1059.5 C 1187.43 999.671 1144.29 944.72 1083.43 940.689 C 1084.44 878.766 1082.26 816.359 1083.41 754.519 C 1084.37 703.044 1083.89 662.032 1068.07 612.139 C 1037.68 516.265 972.038 440.484 883.266 394.071 z" fill="rgb(247,247,245)" transform="translate(0,0)"></path>
<path d="M 1260.2 707.601 C 1275.51 741.279 1288.17 780.929 1295.9 817.082 C 1302.58 848.348 1293.78 874.564 1259.47 880.164 C 1210.61 872.081 1219.31 825.405 1229.5 790.259 C 1237.76 761.762 1247.4 734.39 1260.2 707.601 z" fill="rgb(29,25,25)" transform="translate(0,0)"></path>
<path d="M 1259.73 725.627 C 1266.37 730.463 1286.2 802.926 1288.85 815.281 C 1294.59 842.024 1292.67 867.072 1260.96 873.301 C 1216.67 871.776 1227.2 819.409 1235.99 792.217 C 1243.32 769.543 1249.19 747.323 1259.73 725.627 z" fill="rgb(247,247,245)" transform="translate(0,0)"></path>
<path d="M 1438.45 799.632 C 1444.81 805.17 1460.03 855.861 1462.91 865.961 C 1470.65 893.102 1474.13 922.149 1439.48 930.216 C 1380.07 925.703 1425.12 827.882 1438.45 799.632 z" fill="rgb(29,25,25)" transform="translate(0,0)"></path>
<path d="M 1438.26 815.645 C 1446.42 824.354 1460.84 880.53 1462 894.869 C 1463.2 909.559 1453.27 919.23 1440.06 923.463 L 1438.9 923.389 C 1393.55 920.771 1427.81 837.204 1438.26 815.645 z" fill="rgb(247,247,245)" transform="translate(0,0)"></path>
<path d="M 1366.26 700.805 C 1371 706.666 1382.5 738.819 1385 747.389 C 1388.68 759.973 1394.66 781.387 1387.35 793.489 C 1382.61 801.346 1376.13 804.077 1367.91 806.42 C 1317.63 799.222 1354.75 727.862 1366.26 700.805 z" fill="rgb(29,25,25)" transform="translate(0,0)"></path>
<path d="M 1366.38 718.504 C 1367.42 719.363 1368.24 720.037 1368.65 721.392 C 1375.27 743.217 1400.03 787.249 1368.73 799.434 C 1330.43 796.668 1358.12 737.631 1366.38 718.504 z" fill="rgb(247,247,245)" transform="translate(0,0)"></path>
<path d="M 0 0 L 1021.53 0 C 1007.21 8.47635 1008.92 13.6833 1009.16 28.8552 C 987.478 28.828 961.356 28.1487 940.225 30.2079 C 867.384 37.4579 799.272 69.611 747.381 121.243 C 689.516 179.099 660.525 247.127 654.711 328.056 C 641.094 339.785 636.193 344.49 627.541 360.66 C 532.998 379.558 449.767 435.08 396.007 515.113 C 363.575 563.282 333.471 638.276 333.998 697.255 L 127.143 759.936 L 81.2761 773.815 C 44.309 784.71 12.0908 794.345 0 836.311 L 0 0 z" fill="rgb(247,247,245)" transform="translate(0,0)"></path>
<path d="M 115.508 897.106 C 136.989 893.653 175.711 880.512 197.89 873.876 L 341.965 831.388 L 342.037 940.834 C 310.36 943.101 286.846 953.448 265.595 977.972 C 246.376 1000.39 236.827 1029.51 239.038 1058.96 C 241.09 1087.59 254.417 1114.25 276.097 1133.07 C 299.428 1153 321.403 1158.57 351.085 1158.17 C 372.131 1249.86 424.233 1331.44 498.559 1389.1 C 512.565 1400.15 526.503 1408.13 541.027 1418.01 L 407.9 1419.17 C 373.89 1419.29 340.707 1423.51 311.204 1404.05 C 295.601 1393.77 287.064 1380.51 274.676 1367.2 C 217.066 1309.99 122.763 1328.31 70.0823 1382.43 C 56.6936 1396.19 31.089 1420.49 46.6589 1441.22 C 49.2331 1444.44 55.3148 1446.37 59.3327 1446.81 C 73.2523 1447.39 88.4312 1446.94 102.423 1446.92 L 199.106 1447.1 L 199.238 1585 L 103.519 1584.86 C 88.0634 1584.85 70.255 1584.11 55.0029 1585.48 C 37.8877 1587.02 41.8612 1607.07 48.8632 1617.47 C 99.8594 1693.25 216.231 1735.86 284.653 1655.86 C 302.534 1634.86 310.66 1621.4 338.151 1611.09 C 336.302 1616.72 331.495 1632.11 328.986 1636.8 C 318.604 1656.22 304.53 1674.79 292.94 1693.87 C 277.787 1719.39 263.343 1745.32 249.625 1771.64 C 234.529 1801.19 217.579 1840.85 204.746 1871.55 C 180.154 1929.46 157.861 1988.33 137.918 2048 L 0 2048 L 0 851.045 C 10.3692 880.406 43.8437 898.809 73.8187 899.02 C 85.2667 901.485 104.014 899.368 115.508 897.106 z" fill="rgb(247,247,245)" transform="translate(0,0)"></path>
<path d="M 580.748 1830.43 C 665.211 1816.34 792.366 1817.25 877.011 1832.25 C 875.577 1837.92 868.617 1862.92 869.831 1866.79 C 883.147 1871.52 897.192 1873.88 910.934 1877.3 C 937.115 1883.8 967.83 1891.24 992.613 1901.72 L 995.215 1889.97 C 1003.02 1895.42 1007.67 1899.46 1014.79 1905.72 C 1010.5 1912.84 1008.04 1917.74 1010.21 1926.59 C 1013.4 1939.66 1024.19 1953.08 1028.14 1965.8 C 1036.48 1992.59 1041.77 2020.85 1048.95 2048 L 974.493 2048 L 967.85 2048 L 485.587 2048 L 478.822 2048 L 403.088 2048 C 410.45 2019.64 417.754 1991.21 426.166 1963.15 C 431.806 1944.34 450.265 1930.19 440.116 1909.69 C 448.337 1903.34 456.862 1896.55 465.337 1890.62 L 468.273 1901.41 C 504.809 1883.66 548.771 1876.98 587.312 1867.14 C 586.223 1855.53 583.306 1841.91 580.748 1830.43 z" fill="rgb(201,173,134)" transform="translate(0,0)"></path>
<path d="M 504.758 1947.49 C 622.082 1919.36 743.701 1913.92 863.067 1931.46 C 892.359 1935.7 919.73 1940.33 948.446 1947.97 C 957.493 1980.99 960.626 2014.75 967.85 2048 L 485.587 2048 C 489.935 2019.87 497.899 1974.37 504.758 1947.49 z" fill="rgb(201,173,134)" transform="translate(0,0)"></path>
<path d="M 498.366 1941.63 C 632.195 1913.19 748.51 1904.99 883.898 1927.86 C 908 1931.93 931.962 1937.94 954.557 1941.81 C 962.214 1975.78 968.787 2013.41 974.493 2048 L 967.85 2048 C 960.626 2014.75 957.493 1980.99 948.446 1947.97 C 919.73 1940.33 892.359 1935.7 863.067 1931.46 C 743.701 1913.92 622.082 1919.36 504.758 1947.49 C 497.899 1974.37 489.935 2019.87 485.587 2048 L 478.822 2048 C 484.697 2012.43 491.213 1976.97 498.366 1941.63 z" fill="rgb(29,25,25)" transform="translate(0,0)"></path>
<path d="M 73.8187 899.02 C 78.6005 897.272 82.2253 899.141 85.4153 897.442 C 80.1853 892.985 80.1891 895.169 74.586 893.861 C 53.1482 888.887 32.446 882.757 16.084 867.012 C -3.12056 848.532 9.0877 822.105 25.2454 806.683 C 32.6023 799.741 41.2676 794.333 50.736 790.774 C 71.1708 782.918 104.728 774.037 126.747 767.334 L 283.309 719.975 C 290.093 717.932 342.923 700.707 345.222 701.089 C 389.181 708.395 432.962 720.481 477.18 727.986 C 522.373 735.657 566.784 735.088 612.411 735.919 C 603.476 739.122 593.926 742.24 584.862 745.07 C 510.499 768.291 436.497 795.164 362.095 817.99 L 159.34 878.295 C 154.06 879.855 104.535 895.063 102.958 895.117 C 108.229 897.103 110.237 895.687 115.508 897.106 C 104.014 899.368 85.2667 901.485 73.8187 899.02 z" fill="rgb(40,46,51)" transform="translate(0,0)"></path>
<path d="M 1081.21 0 L 1509 0 L 1509 424.511 C 1497.97 404.059 1483.65 408.426 1463.13 408.869 L 1463.32 348.999 C 1463.13 261.283 1432.7 185.649 1370.09 123.443 C 1317.83 71.0107 1249.19 38.0759 1175.59 30.1301 C 1151.87 27.8011 1120.43 28.7158 1095.94 28.7985 C 1096.08 12.6008 1097.18 7.13342 1081.21 0 z" fill="rgb(247,247,245)" transform="translate(0,0)"></path>
<path d="M 223.581 1910.94 C 256.701 1954.5 299.939 1986.78 355.446 1994.36 C 373.906 1996.96 392.671 1996.41 410.95 1992.76 C 406.09 2010.59 401.616 2030.76 396.547 2048 L 158.466 2048 C 171.659 2021.85 184.483 1995.52 196.933 1969.01 C 205.771 1950.05 214.472 1929.57 223.581 1910.94 z" fill="rgb(247,247,245)" transform="translate(0,0)"></path>
<path d="M 1042.37 1992.04 C 1122.09 2007.58 1181.51 1971.13 1230.33 1911.21 C 1243.64 1939.93 1256.79 1968.72 1269.79 1997.58 C 1276.51 2012.26 1287.32 2033.61 1292.72 2048 L 1056.36 2048 C 1050.97 2029.82 1046.81 2010.55 1042.37 1992.04 z" fill="rgb(247,247,245)" transform="translate(0,0)"></path>
<path d="M 144.382 2048 C 165.708 1984.77 189.65 1922.46 216.147 1861.22 C 229.512 1829.96 244.272 1795.82 259.957 1765.77 C 273.021 1741.13 286.736 1716.84 301.086 1692.92 C 308.045 1681.57 316.16 1670.23 322.821 1659.05 C 314.399 1687.67 308.339 1713.84 304.501 1743.47 C 301.527 1766.42 291.815 1791.42 284.634 1813.82 C 250.847 1817.48 255.981 1819.01 243.147 1850.03 C 241.262 1854.59 239.087 1859.8 237.123 1864.36 C 229.228 1882.54 221.179 1900.66 212.977 1918.71 C 193.412 1962.29 172.815 2005.4 151.205 2048 L 144.382 2048 z" fill="rgb(247,247,245)" transform="translate(0,0)"></path>
<path d="M 1137.98 1722.58 C 1151.63 1728.21 1160.08 1729.95 1174.52 1732.8 C 1213.49 1801.43 1242.64 1871.1 1271 1944.68 C 1283.13 1976.13 1298.79 2015.84 1308.74 2048 L 1300.83 2048 C 1296.78 2040.11 1292.81 2032.03 1289.17 2023.94 C 1270.27 1981.98 1249.73 1940.33 1231.95 1897.9 C 1225.18 1881.54 1218.49 1865.15 1211.89 1848.72 C 1209.24 1842.09 1206.35 1833.27 1203.24 1827.1 C 1197.7 1816.12 1175.56 1814.1 1165.21 1813.89 C 1158.29 1796.1 1150.13 1775.62 1144.49 1757.49 C 1142.19 1750.1 1139.31 1730.54 1137.98 1722.58 z" fill="rgb(247,247,245)" transform="translate(0,0)"></path>
<path d="M 658.725 748.507 C 661.314 749.903 684.35 776.762 688.348 780.923 C 766.759 862.538 870.654 916.09 982.177 934.606 C 1014.05 939.898 1041.83 940.973 1074.07 941.849 C 1073.12 1013.2 1079.54 1087.36 1063.48 1156.63 C 1037.3 1269.62 971.413 1353.95 873.9 1414.84 L 760.254 1415.85 L 554.211 1418.09 C 542.611 1409.87 529.575 1402.6 517.842 1394.44 C 413.531 1321.89 351.636 1202.75 347.313 1076.31 C 346.466 1051.54 347.058 1028.55 347.562 1003.63 C 347.802 983.376 347.907 963.122 347.876 942.869 C 480.265 931.904 595.009 867.324 658.725 748.507 z" fill="rgb(244,171,128)" transform="translate(0,0)"></path>
<path d="M 561.927 1237.94 C 571.695 1237.95 573.138 1240.9 577.917 1249.76 C 630.069 1346.49 787.382 1350.25 840.818 1252.73 C 846.821 1241.78 855.741 1226.46 863.865 1246.8 C 865.14 1250.06 862.095 1255.57 860.517 1258.89 C 802.911 1370.59 634.58 1372.92 566.515 1271.18 C 559.493 1260.69 549.679 1248.23 561.927 1237.94 z" fill="rgb(0,0,0)" transform="translate(0,0)"></path>
<path d="M 704.126 1132.35 C 731.052 1130.77 764.805 1136.03 772.51 1166.24 C 765.852 1190.18 746.029 1196.47 723.414 1199.67 C 645.638 1205.05 630.44 1140.71 704.126 1132.35 z" fill="rgb(0,0,0)" transform="translate(0,0)"></path>
<path d="M 556.228 1019.93 C 593.46 1016.5 599.845 1102.5 564.953 1121.03 C 528.066 1123.66 519.671 1038.78 556.228 1019.93 z" fill="rgb(0,0,0)" transform="translate(0,0)"></path>
<path d="M 856.306 1019.05 C 893.205 1025.38 895.631 1108.04 859.286 1121.32 C 823.084 1118.49 818.021 1031.38 856.306 1019.05 z" fill="rgb(0,0,0)" transform="translate(0,0)"></path>
<path d="M 852.012 930.299 C 854.672 930.1 857.343 930.073 860.007 930.22 C 879.211 931.123 911.007 945.958 912.825 969.264 C 913.039 972.008 911.129 973.978 909.139 975.614 C 898.898 976.956 893.521 960.65 885.554 955.032 C 878.653 950.165 874.481 948.842 866.405 946.762 C 824.106 941.493 825.346 976.147 808.146 975.89 C 801.82 972.337 803.926 962.581 807.548 957.758 C 819.427 941.939 832.436 933.47 852.012 930.299 z" fill="rgb(0,0,0)" transform="translate(0,0)"></path>
<path d="M 554.622 930.316 C 556.281 930.209 557.943 930.164 559.605 930.183 C 570.589 930.35 583.248 934.545 592.163 940.854 C 599.858 946.3 622.479 964.069 609.713 974.278 C 595.82 974.911 594.163 950.423 561.574 946.313 C 526.019 945.555 521.882 977.211 507.974 975.524 C 496.804 967.498 510.02 954.989 516.254 948.59 C 527.589 936.956 538.754 932.418 554.622 930.316 z" fill="rgb(0,0,0)" transform="translate(0,0)"></path>
<path d="M 684.504 359.414 C 692.823 358.984 701.154 358.869 709.482 359.071 C 811.603 361.307 908.62 399.585 979.642 474.01 C 1044.72 542.892 1079.68 634.867 1076.77 729.589 C 1038.6 731.133 993.126 730.042 954.63 730.008 L 736.289 730.125 C 696.561 730.224 656.581 729.25 616.849 728.915 C 582.064 728.622 540.163 729.879 505.645 725.359 C 451.375 718.252 394.165 704.05 340.744 691.858 C 345.22 624.167 368.714 565.606 407.884 510.574 C 415.735 500.466 423.249 487.76 431.851 478.404 C 496.204 408.404 590.797 366.052 684.504 359.414 z" fill="rgb(40,46,51)" transform="translate(0,0)"></path>
<path d="M 1189.52 1269.42 C 1258.09 1262.1 1344.83 1312.86 1387.79 1363.08 C 1401.96 1379.65 1415.51 1397.33 1393.07 1414.97 C 1377.99 1418.05 1343.66 1417.8 1327.08 1418.88 C 1275.61 1422.25 1219.12 1421.63 1167.99 1426.21 C 1167.83 1443.68 1170.63 1465.62 1171.84 1483.34 C 1174.07 1515.99 1176.41 1548.95 1179.26 1581.54 C 1194.35 1581.64 1215.54 1579.88 1231.22 1579.15 L 1347.95 1573.8 C 1353.22 1573.6 1359.2 1573.12 1364.5 1573.18 C 1377.54 1573.3 1402.77 1568.02 1409.36 1583.26 C 1416.5 1599.77 1400.37 1617.44 1390.59 1629.25 C 1361.78 1664.05 1325.7 1693.62 1284.08 1711.71 C 1236.64 1732.34 1184.73 1734.53 1136.53 1715.41 C 1130.18 1678.31 1118.62 1643.16 1106.95 1607.51 C 1092.82 1564.36 1047.35 1535.99 1011.83 1510.58 C 1009.92 1496.71 1005.91 1484.62 995.71 1474.45 C 988.386 1467.27 979.161 1462.33 969.124 1460.22 C 958.278 1457.91 936.498 1458.77 924.297 1458.68 C 889.365 1458.43 854.431 1458.5 819.5 1458.91 L 426.605 1458.8 C 409.618 1458.82 393.558 1451.34 377.175 1455.68 C 346.086 1463.91 328.277 1497.01 337.439 1527.63 C 342.836 1545.67 352.211 1554.45 368.009 1563.54 C 356.194 1575.56 346.682 1586.66 341.12 1602.8 C 324.141 1609.83 315.956 1613.87 301.684 1625.19 C 300.367 1600.41 301.152 1569.3 301.123 1544.19 L 300.824 1404.97 C 338.814 1428.67 355.806 1425.91 398.397 1425.45 L 464.251 1424.8 C 539.703 1424.63 615.152 1423.88 690.593 1422.54 L 856.368 1421.21 C 880.921 1421.01 908.877 1422.2 932.827 1420.38 C 972.461 1417.36 1015.17 1390.9 1036.38 1357.96 C 1071.12 1304.02 1126.22 1274.78 1189.52 1269.42 z" fill="rgb(247,247,245)" transform="translate(0,0)"></path>
<path d="M 1095.65 35.3155 L 1138.63 35.0213 C 1223.75 34.3717 1305.52 68.1178 1365.41 128.607 C 1415.52 177.781 1447.13 242.737 1454.9 312.512 C 1457.87 341.38 1456.92 379.159 1456.93 408.861 L 1236.86 408.844 C 1236.13 365.149 1244.35 319.329 1211.69 287.206 C 1178.83 254.884 1138.2 261.016 1095.48 261.222 L 1095.65 35.3155 z" fill="rgb(201,173,134)" transform="translate(0,0)"></path>
<path d="M 963.658 35.4474 C 978.391 34.8743 994.305 35.21 1009.13 35.2612 L 1009.37 261.11 C 969.179 261.75 935.259 255.015 902.341 286.685 C 871.943 315.929 876.964 351.839 876.944 390.587 C 841.907 374.302 825.184 369.045 787.875 360.451 C 781.808 347.748 770.596 336.253 759.348 327.994 C 726.359 307.646 695.209 308.977 661.356 325.635 C 674.302 163.267 800.909 41.7211 963.658 35.4474 z" fill="rgb(201,173,134)" transform="translate(0,0)"></path>
<path d="M 971.903 1501.1 C 996.015 1501.22 1073.48 1561.14 1086.3 1581.08 C 1106.89 1618.53 1124.62 1676.63 1131.12 1718.92 C 1138.55 1767.22 1151.66 1796.27 1168.04 1841.59 C 1143.19 1878.21 1084.53 1902.96 1040.93 1901.89 C 1035.83 1886.05 1030.62 1870.24 1025.3 1854.47 C 1012.73 1848.92 990.269 1833.55 979.857 1824.44 C 941.229 1790.64 940.038 1732.46 918.648 1689.24 C 906.434 1664.55 878.695 1653.76 876.858 1623.96 C 885.884 1585 925.313 1631.13 937.44 1643.56 C 946.254 1652.59 952.264 1664.1 960.508 1673.08 L 962.377 1673.11 L 964.273 1671.27 L 964.173 1668.94 C 954.084 1652.29 941.91 1636.16 927.229 1623.25 C 919.786 1616.71 911.62 1610.99 904.11 1604.53 C 896.955 1598.37 891.766 1591.22 891.315 1581.49 C 891.076 1576.32 892.424 1570.51 896.136 1566.72 C 899.236 1563.56 903.73 1562.05 908.121 1562.3 C 921.266 1563.04 970.67 1606.32 980.565 1617.39 C 987.357 1624.99 992.308 1635.82 998.697 1642.5 C 1000.17 1644.03 1000.5 1644.03 1002.49 1644.01 L 1004.23 1642 C 1003.74 1626.97 964.203 1591.53 950.991 1582.83 C 936.905 1573.56 908.62 1547.74 931.896 1531.74 C 936.154 1528.84 941.436 1527.88 946.443 1529.08 C 956.525 1531.49 976.649 1550.92 985.461 1558.16 C 1005.42 1574.55 1029.59 1588.58 1039.76 1613.38 C 1040.63 1615.48 1042.32 1616.01 1044.21 1616.34 L 1046.36 1614.27 C 1046.38 1609.51 1043.4 1606.87 1041.46 1602.71 C 1031.55 1582.05 1011.11 1570.53 993.77 1556.43 C 980.092 1545.3 939.644 1517.42 971.903 1501.1 z" fill="rgb(244,171,128)" transform="translate(0,0)"></path>
<path d="M 471.974 1502.18 C 478.757 1501.91 488.095 1505.15 490.021 1512.43 C 493.554 1525.78 476.461 1538.66 467.38 1546.13 C 452.477 1558.39 435.894 1570.19 421.537 1583.25 C 415.268 1589.12 405.135 1604.92 401.602 1612.67 C 402.135 1615.74 401.377 1614.58 403.859 1616.33 C 410.56 1614.67 412.188 1605.75 416.623 1600.11 C 435.962 1575.52 465.496 1557.11 489.247 1536.95 C 499.258 1528.46 517.423 1525.56 524.343 1539.24 C 534.232 1558.8 508.907 1574.89 496.292 1585.26 C 478.947 1598.82 461.649 1611.92 449.214 1630.48 C 446.914 1633.9 443.651 1638.11 442.471 1641.99 C 444.451 1644.43 443.216 1643.69 446.295 1644.28 C 449.235 1642.86 450.023 1641.38 451.689 1638.78 C 464.803 1618.32 483.925 1603.19 502.806 1588.36 C 511.325 1581.67 520.019 1574.11 529.228 1568.41 C 532.204 1566.56 537.663 1565.42 541.168 1565.7 C 545.831 1566.08 550.143 1568.33 553.128 1571.93 C 562.044 1582.66 554.981 1597.25 545.367 1604.95 C 526.143 1620.36 507.96 1636.64 492.663 1656.05 C 488.904 1660.82 481.235 1667.66 485.932 1673.17 C 486.552 1673.17 487.171 1673.18 487.791 1673.19 C 503.494 1659.17 540.102 1596.82 566.154 1615.38 C 566.552 1615.97 566.937 1616.57 567.309 1617.17 C 583.278 1643.44 538.056 1671.68 527.708 1691.54 C 521.743 1702.99 513.913 1722.12 510.727 1734.34 C 494.199 1797.74 480.117 1820.83 423.085 1855.17 C 420.173 1867.96 413.924 1889.77 409.75 1902.07 C 363.993 1902.61 312.603 1876.73 283.191 1842.3 C 289.787 1815.1 301.042 1789.17 308.051 1762.13 C 312.055 1746.68 313.076 1730.11 315.998 1714.38 C 321.334 1685.66 339.766 1613.01 354.411 1589.82 C 371.044 1563.48 441.509 1508.88 471.974 1502.18 z" fill="rgb(244,171,128)" transform="translate(0,0)"></path>
<path d="M 659.047 736.439 L 1075.76 736.786 L 1075.74 934.71 C 1068.06 937.517 1010.26 931.759 999.363 930.335 C 867.449 913.095 740.304 842.266 659.047 736.439 z" fill="rgb(201,173,134)" transform="translate(0,0)"></path>
<path d="M 181.822 1338.45 C 183.785 1338.37 185.751 1338.37 187.714 1338.44 C 220.451 1339.47 248.524 1349.42 271.789 1373.31 C 279.633 1381.36 286.476 1390.77 294.443 1399.29 L 295.221 1631.61 C 235.424 1723.9 129.658 1701.75 66.1791 1629.57 C 59.5599 1622.3 43.3375 1603.19 51.8153 1593.62 C 65.022 1588.47 184.96 1591.13 205.977 1591.15 L 205.455 1440.96 C 158 1440.33 110.196 1441.7 62.7361 1440.53 C 59.6953 1440.45 55.7088 1439.6 53.2419 1437.8 C 38.5759 1427.07 56.8601 1406.72 64.6414 1397.53 C 97.4427 1360.9 132.193 1341.61 181.822 1338.45 z" fill="rgb(247,247,245)" transform="translate(0,0)"></path>
<path d="M 423.583 1464.76 L 800.164 1465.32 L 907.873 1464.89 C 925.379 1464.85 942.975 1464.61 960.444 1465.06 C 973.776 1465.4 986.189 1472.27 994.586 1482.42 C 1001 1490.17 1003.63 1497.7 1006.57 1507.04 C 988.224 1496.2 968.55 1486 954.861 1509 C 952.999 1515.14 954.233 1520.15 955.323 1526.33 C 931.904 1515.69 917.525 1527.61 916.76 1551.89 C 873.968 1550.85 826.376 1551.78 783.278 1551.74 L 533.542 1552.04 C 532.648 1544.79 531.585 1538.82 527.717 1532.62 C 518.602 1518 506.587 1526.34 497.018 1524.29 C 495.265 1519.03 497.002 1513.49 494.248 1507.54 C 484.86 1487.22 460.018 1498.29 445.685 1505.05 C 442.316 1486.51 437.568 1476.96 423.583 1464.76 z" fill="rgb(201,173,134)" transform="translate(0,0)"></path>
<path d="M 716.94 1639.84 C 754.171 1664.57 780.726 1717.82 803.517 1754.61 C 809.808 1749.04 823.296 1733.66 829.825 1726.88 C 850.145 1706.06 870.277 1685.05 890.22 1663.87 C 902.731 1676.66 908.249 1683.15 916.292 1699.13 C 902.612 1741.8 889.762 1781.94 878.185 1825.34 C 833.589 1820.11 792.642 1815.26 747.75 1813.79 C 688.04 1811.97 637.894 1816.72 579.321 1824.02 C 568.482 1777.77 554.822 1732.21 538.417 1687.62 L 552.239 1672.56 C 575.179 1696.56 608.504 1732.24 632.479 1754.31 C 634.931 1750.76 636.872 1746.95 639.067 1743.25 C 660.96 1706.26 682.837 1667.05 716.94 1639.84 z" fill="rgb(247,247,245)" transform="translate(0,0)"></path>
<path d="M 1236.1 492.427 L 1457.19 492.829 L 1456.84 648.007 C 1450.47 644.163 1447.14 642.639 1440.25 639.712 C 1431.37 636.507 1422.28 633.909 1413.05 631.936 C 1366.55 622.167 1278.09 621.364 1236.69 648.314 C 1236.95 596.351 1236.76 544.387 1236.1 492.427 z" fill="rgb(247,247,245)" transform="translate(0,0)"></path>
<path d="M 615.653 735.773 L 657.224 736.224 C 609.681 841.197 496.959 913.895 385.349 931.679 C 373.321 933.602 361.193 934.847 349.025 935.406 L 348.857 829.184 C 399.954 813.643 451.703 795.926 502.633 779.505 L 570.276 757.302 C 584.436 752.719 600.105 748.258 613.851 742.887 C 615.995 739.974 615.301 740.06 615.653 735.773 z" fill="rgb(201,173,134)" transform="translate(0,0)"></path>
<path d="M 1242.91 415.524 C 1256.39 415.222 1270.02 415.107 1283.56 415.305 C 1353.22 416.322 1423.22 413.921 1492.77 416.441 C 1496.42 416.574 1500.08 422.481 1501.94 425.267 C 1501.93 438.254 1501.39 452.911 1502.34 465.719 C 1504.3 492.368 1471.9 485.938 1452.5 485.776 L 1297.1 486.023 C 1280.63 486.023 1209.49 487.675 1199.51 482.779 C 1195.56 477.976 1194.4 472.444 1194.35 466.14 C 1193.99 411.458 1188.4 415.826 1242.91 415.524 z" fill="rgb(171,144,108)" transform="translate(0,0)"></path>
<path d="M 1024.69 7.26976 C 1037.71 6.97699 1078.15 4.74195 1087.4 11.3047 C 1090.26 20.8888 1090.5 281.718 1087.75 289.728 C 1086.63 292.995 1084.66 294.505 1081.64 295.928 C 1069.7 295.953 1025.32 297.874 1018.46 292.195 C 1017.19 287.698 1016.69 283.166 1016.47 278.508 C 1015.27 252.941 1014.9 19.0818 1017.81 11.9039 C 1019.02 8.91604 1021.92 8.44857 1024.69 7.26976 z" fill="rgb(171,144,108)" transform="translate(0,0)"></path>
<path d="M 262.421 1823.34 C 263.194 1823.79 263.966 1824.24 264.739 1824.69 C 266.647 1830.31 274.531 1845.35 278.167 1849.67 C 286.509 1858.38 293.623 1865.3 303.712 1872.52 C 336.301 1895.87 376.228 1909.38 415.668 1915.12 C 418.394 1915.52 432.679 1912.96 435.753 1912.49 C 441.069 1923.65 425.035 1948.62 420.886 1959.91 C 417.578 1968.91 415.45 1976.43 412.881 1985.72 L 403.802 1987.8 C 388.364 1990.09 372.68 1990.18 357.218 1988.05 C 300.46 1980.25 260.156 1948.58 226.569 1904.28 L 248.728 1853.02 C 251.725 1846.02 258.432 1829.02 262.421 1823.34 z" fill="rgb(247,247,245)" transform="translate(0,0)"></path>
<path d="M 1186.43 1824.08 C 1188.31 1824.71 1190.17 1825.42 1192 1826.18 C 1199.21 1829.22 1203.64 1845.82 1206.66 1853.3 L 1227.35 1903.97 C 1184.82 1960.25 1127.66 1996.62 1055.04 1987.7 C 1050.42 1987.12 1045.28 1985.73 1040.71 1984.63 C 1038.53 1975.56 1036.05 1968.81 1032.97 1960.18 C 1029.45 1950.31 1008.13 1919.4 1019.02 1911.15 C 1070.58 1928.86 1173.51 1878.8 1186.43 1824.08 z" fill="rgb(247,247,245)" transform="translate(0,0)"></path>
<path d="M 1080.92 946.531 C 1110.68 950.553 1136.47 962.722 1155.33 987.158 C 1202.03 1047.67 1167.27 1141.6 1089.68 1150.87 C 1083.8 1151.57 1077.38 1151.64 1071.4 1151.88 C 1072.5 1146.56 1076.2 1124.73 1077.89 1121.94 L 1078.81 1121.65 C 1077.1 1116.54 1080.26 1086.44 1080.47 1078.8 C 1081.3 1048.52 1080.26 1018.37 1080.86 988.067 C 1082.63 986.345 1084.9 986.81 1087.96 986.612 C 1084.91 986.107 1083.05 986.378 1081.23 984.515 C 1080.22 974.199 1080.83 957.368 1080.92 946.531 z" fill="rgb(244,171,128)" transform="translate(0,0)"></path>
<path d="M 1078.81 1121.65 C 1077.1 1116.54 1080.26 1086.44 1080.47 1078.8 C 1081.3 1048.52 1080.26 1018.37 1080.86 988.067 C 1082.63 986.345 1084.9 986.81 1087.96 986.612 C 1106.51 991.576 1121.33 1002.19 1130.97 1019.03 C 1140.1 1035 1142.53 1053.94 1137.72 1071.69 C 1133.05 1089.15 1121.53 1103.98 1105.77 1112.83 C 1097.49 1117.39 1088.08 1119.97 1078.81 1121.65 z" fill="rgb(0,0,0)" transform="translate(0,0)"></path>
<path d="M 784.922 1601.45 C 819.138 1600.32 857.587 1600.6 891.877 1600.92 C 881.699 1604.84 872.988 1608.05 870.945 1620.91 C 868.601 1635.66 876.781 1647.83 885.261 1659.09 C 868.199 1679.58 842.778 1704.15 823.646 1723.8 C 817.217 1730.31 810.79 1737.22 804.459 1743.86 C 782.535 1702.62 758.46 1665.92 723.272 1635.06 C 737.328 1624.68 758.696 1608.71 775.113 1602.07 C 776.311 1601.59 783.196 1601.47 784.922 1601.45 z" fill="rgb(247,247,245)" transform="translate(0,0)"></path>
<path d="M 560.892 1602.96 C 591.87 1601.7 629.061 1601.87 660.196 1602.38 C 679.091 1613.75 694.446 1622.6 712.065 1635.93 C 673.465 1664.63 656.297 1706.16 631.014 1743.44 C 614.617 1727.16 598.352 1710.76 582.22 1694.22 C 575.345 1687.26 562.429 1675.15 556.492 1668.11 C 572.629 1648.51 592.721 1621.18 559.802 1604.62 L 560.892 1602.96 z" fill="rgb(247,247,245)" transform="translate(0,0)"></path>
<path d="M 546.131 1557.88 L 664.417 1558.1 C 678.667 1558.1 707.414 1557.2 720.716 1558.24 C 779.588 1557.66 838.776 1558.77 897.515 1558.07 C 883.242 1570.36 882.969 1575.74 886.382 1593.53 C 879.16 1595.55 835.595 1594.55 825.708 1594.66 L 643.778 1595.85 C 620.228 1596.07 583.355 1594.84 560.939 1596.85 C 565.599 1580.99 563.701 1568.78 548.553 1559.47 L 546.001 1559.22 L 546.131 1557.88 z" fill="rgb(247,247,245)" transform="translate(0,0)"></path>
<path d="M 546.131 1557.88 L 664.417 1558.1 C 678.667 1558.1 707.414 1557.2 720.716 1558.24 C 711.593 1563.77 571.614 1554.84 548.553 1559.47 L 546.001 1559.22 L 546.131 1557.88 z" fill="rgb(213,209,205)" transform="translate(0,0)"></path>
<path d="M 533.469 1695.68 C 542.949 1704.28 577.124 1840.67 580.474 1862.07 C 553.998 1867.73 526.046 1873.86 500.439 1882.4 C 491.832 1884.86 481.184 1888.85 472.564 1891.83 C 468.422 1873.29 465.635 1854.76 461.509 1836.36 C 517.598 1792.41 502.571 1749.87 533.469 1695.68 z" fill="rgb(201,173,134)" transform="translate(0,0)"></path>
<path d="M 919.623 1709.81 C 922.561 1712.9 924.583 1723.08 926.044 1727.77 C 936.751 1762.21 945.13 1799.77 972.014 1825.82 C 979.875 1833.44 988.406 1838.72 997.429 1844.58 C 994.329 1859.1 990.052 1878.4 988.418 1892.9 C 980.093 1889.69 970.784 1886.88 962.241 1884.11 C 932.492 1874.82 906.448 1869.97 876.744 1862.25 C 888.121 1810.66 902.437 1759.76 919.623 1709.81 z" fill="rgb(201,173,134)" transform="translate(0,0)"></path>
<path d="M 336.535 947.276 L 339.444 947.323 C 342.614 951.077 341.322 979.117 341.261 985.401 C 330.819 986.929 320.818 990.649 311.916 996.317 C 267.098 1025.28 272.724 1095.18 322 1115.77 C 330.061 1119.14 336.036 1120.3 344.519 1121.93 C 346.228 1131.48 347.682 1141.43 349.302 1151.05 C 337.203 1151.45 332.867 1151.33 321.179 1148.38 C 283.383 1141.09 253.948 1105.99 247.303 1068.96 C 242.398 1041.41 248.665 1013.04 264.718 990.112 C 282.657 964.715 306.461 952.274 336.535 947.276 z" fill="rgb(244,171,128)" transform="translate(0,0)"></path>
<path d="M 1337.61 632.446 C 1352.62 631.566 1428.02 635.653 1436.01 647.578 C 1428.3 663.079 1373.08 666.289 1357.06 667.073 C 1326.42 667.788 1276.91 667.716 1253.2 646.723 C 1278.9 635.53 1309.97 633.805 1337.61 632.446 z" fill="rgb(171,144,108)" transform="translate(0,0)"></path>
<path d="M 707.879 319.397 C 739.646 319.165 760.192 333.811 779.194 357.369 C 753.035 355.445 734.829 351.983 707.171 351.929 C 681.779 350.982 661.983 353.543 637.252 358.141 C 639.383 354.618 641.832 351.296 644.567 348.218 C 662.166 328.087 682.264 321.061 707.879 319.397 z" fill="rgb(0,0,0)" transform="translate(0,0)"></path>
<path d="M 387.52 1460.26 C 396.271 1459.4 409.338 1462.96 416.646 1467.89 C 432.362 1478.49 436.615 1490.75 440.359 1507.95 C 435.065 1511.31 429.389 1515.67 424.276 1519.42 C 425.629 1508.31 424.569 1499.4 417.512 1490.21 C 412.117 1483.11 404.065 1478.51 395.206 1477.46 C 385.954 1476.5 376.705 1479.31 369.551 1485.25 C 361.228 1492.08 358.425 1499.71 357.334 1509.97 C 357.549 1531.82 368.722 1542.4 389.6 1545.15 C 384.566 1549.66 378.42 1554.46 373.135 1558.79 C 369.69 1557.26 365.106 1554.95 362.092 1552.74 C 351.007 1544.48 343.688 1532.13 341.766 1518.44 C 339.771 1505.04 343.219 1491.4 351.343 1480.56 C 360.791 1467.9 372.353 1462.59 387.52 1460.26 z" fill="rgb(201,173,134)" transform="translate(0,0)"></path>
<path d="M 1248.12 648.926 C 1250.32 650.613 1252.95 654.737 1255.96 656.703 C 1292.18 680.339 1417.87 682.614 1444.65 649.14 C 1448.35 651.603 1453.14 654.114 1455.18 657.783 C 1454.9 661.557 1454.88 660.455 1451.79 663.985 C 1420.08 686.552 1345.75 686.092 1307.35 682.922 C 1286.19 680.171 1257.13 677.279 1240.45 663.18 C 1234.17 657.873 1243.99 651.496 1248.12 648.926 z" fill="rgb(171,144,108)" transform="translate(0,0)"></path>
<path d="M 384.764 1484.57 C 399.448 1481.27 414.055 1490.39 417.534 1505.03 C 421.012 1519.68 412.069 1534.39 397.47 1538.05 C 387.866 1540.46 377.709 1537.51 370.882 1530.34 C 364.054 1523.17 361.61 1512.88 364.484 1503.41 C 367.357 1493.94 375.103 1486.74 384.764 1484.57 z" fill="rgb(201,173,134)" transform="translate(0,0)"></path>
<path d="M 454.876 1841.99 C 457.279 1844.43 459.233 1858.36 459.797 1862.01 C 460.9 1869.29 462.467 1876.49 464.489 1883.56 C 454.788 1890.01 446.263 1896.85 437.036 1903.69 C 436.568 1904.04 435.416 1902.31 435.427 1902.32 C 430.749 1897.11 426.416 1892.79 421.459 1887.9 C 423.475 1878.61 426.148 1867.77 429.188 1858.82 C 439.066 1852.96 445.493 1848.57 454.876 1841.99 z" fill="rgb(247,247,245)" transform="translate(0,0)"></path>
<path d="M 674.056 1602.1 C 682.747 1601.36 697.634 1601.77 706.65 1601.82 C 724.402 1601.93 742.154 1601.96 759.906 1601.89 C 752.416 1606.24 747.889 1608.88 740.955 1614.2 L 717.968 1630.8 C 703.923 1620.76 688.667 1611.38 674.056 1602.1 z" fill="rgb(244,171,128)" transform="translate(0,0)"></path>
<path d="M 1003.6 1849.64 C 1009.38 1853.56 1014.46 1856.59 1020.37 1860.19 C 1024.34 1871.42 1026.18 1876.48 1029.25 1888.11 C 1026.01 1892 1022.9 1896 1019.94 1900.11 C 1017.96 1900.88 1016.47 1898.65 1014.9 1897.16 C 1009.27 1891.85 1002.71 1888.26 996.592 1883.58 C 998.155 1872.21 1000.67 1861.51 1003.41 1850.41 L 1003.6 1849.64 z" fill="rgb(247,247,245)" transform="translate(0,0)"></path>
<path d="M 546.001 1559.22 C 543.187 1559.1 531.544 1560.74 530.768 1559.35 C 531.62 1556.82 543.157 1557.88 546.131 1557.88 L 546.001 1559.22 z" fill="rgb(82,80,80)" transform="translate(0,0)"></path>
<path d="M 559.802 1604.62 C 559.208 1604.6 558.418 1604.74 557.979 1604.22 C 557.76 1603.04 560.379 1603.01 560.892 1602.96 L 559.802 1604.62 z" fill="rgb(213,209,205)" transform="translate(0,0)"></path>
<metadata><recraft-signature>{"signed_by": "recraft", "signature_b64": "poC7P7YH3y6dDU+ZVT3YVpmYxp5iDf/Wf8c8C78hB3zp+WBc0e6MxG3dc5gXGabgK0/PdH/ZEN75Nt5vrVAbCg==", "signing_algo": "Ed25519", "generation_timestamp": 1779108777, "identifier": "013877ca-7347-4ed5-bd2d-dcda1dc99163"}</recraft-signature></metadata></svg>