<svg xmlns="http://www.w3.org/2000/svg" height="1216" preserveAspectRatio="none" style="display: block;" version="1.1" viewBox="0 0 1509 2048" width="896">
<defs>
	<linearGradient gradientUnits="userSpaceOnUse" id="Gradient1" x1="366.99" x2="355.19" y1="1588.57" y2="1600.16">
		<stop class="stop0" offset="0" stop-color="rgb(72,32,7)" stop-opacity="1"></stop>
		<stop class="stop1" offset="1" stop-color="rgb(107,57,13)" stop-opacity="1"></stop>
	</linearGradient>
</defs>
<path d="M 0 0 L 742.048 0 L 802.83 0 L 1509 0 L 1509 2036.25 L 1509 2048 L 1506.97 2048 L 1337.58 2048 L 1335.18 2048 L 1277.15 2048 L 1274.32 2048 L 1207.28 2048 L 1201.64 2048 L 1126.09 2048 L 1122.4 2048 L 619.493 2048 L 616.067 2048 L 600.707 2048 L 597.129 2048 L 397.826 2048 L 395.764 2048 L 0 2048 L 0 0 z" fill="rgb(36,24,14)" transform="translate(0,0)"></path>
<path d="M 0 0 L 742.048 0 C 726.646 2.05274 711.086 3.13334 695.723 5.20203 C 674.704 8.24444 653.858 12.3833 633.271 17.6016 C 519.276 46.6754 410.22 118.954 337.55 211.781 C 268.503 299.979 226.641 414.387 241.888 527.499 C 253.102 611.839 297.105 688.36 364.358 740.474 C 373.59 747.484 385.74 755.542 395.774 761.475 C 395.931 811.597 395.053 861.256 397.625 911.325 C 408.632 1125.55 563.592 1341.86 799.757 1301.06 C 799.674 1319.76 800.442 1347.9 799.222 1365.83 C 650.764 1415.95 569.937 1543.63 512.695 1680.94 C 501.787 1671.58 481.975 1655.74 472.395 1646.16 C 479.037 1602.62 475.9 1564.36 448.678 1527.31 C 437.549 1512.1 422.858 1499.85 405.892 1491.63 C 383.347 1480.76 373.739 1476.53 356.984 1456.48 C 346.916 1444.65 338.763 1431.32 332.823 1416.97 C 330.67 1411.65 324.863 1393.64 321.747 1390.37 C 301.761 1369.37 270.706 1392.63 267.819 1416.15 C 263.385 1452.27 284.065 1479.66 311.617 1499.66 C 316.033 1502.8 323.191 1514.72 326.44 1519.87 C 309.611 1521.29 299.836 1522.66 283.623 1528.35 C 226.89 1497.84 171.131 1464.77 114.365 1434.22 C 88.1368 1420.1 71.4265 1422.51 61.1683 1452.04 C 18.1003 1424.75 -5.7184 1473.32 29.5699 1498.8 C 27.2092 1499.88 21.7221 1502.24 19.9336 1503.72 C -16.8587 1534.28 46.2185 1568.5 66.8727 1580.42 C 59.7433 1583.61 55.0134 1586.19 52.0724 1594.11 C 47.2136 1607.21 53.2654 1622.52 64.1114 1630.75 C 83.8867 1645.74 104.476 1659.89 124.667 1674.36 L 174.525 1710.26 C 184.215 1717.29 215.626 1740.8 225.353 1743.57 C 247.855 1749.97 305.688 1756.08 328.477 1755.87 C 337.972 1755.75 347.432 1754.68 356.713 1752.67 C 384.358 1790.18 413.546 1826.54 444.201 1861.63 C 425.002 1922.92 408.837 1985.12 395.764 2048 L 0 2048 L 0 0 z" fill="rgb(255,255,255)" transform="translate(0,0)"></path>
<path d="M 802.83 0 L 1509 0 L 1509 2036.25 C 1507.21 2028.08 1507.26 2016.59 1506.4 2008.05 C 1504.86 1978.85 1500.96 1945.64 1497.43 1916.6 C 1489.81 1852.32 1478.8 1788.48 1464.43 1725.36 C 1459.76 1706.28 1454.67 1687.29 1449.18 1668.43 C 1445.76 1656.79 1441.29 1642.97 1438.65 1631.38 C 1436.87 1620.36 1439.35 1608.35 1439.25 1597.12 C 1438.46 1513.79 1395.53 1442.85 1306.28 1433.63 C 1253.53 1380.85 1174.68 1338.21 1099.85 1330.32 C 1099.4 1278.71 1099.34 1227.11 1099.65 1175.5 C 1160.14 1151.39 1227.29 1097.29 1272.17 1050.32 C 1394.13 920.798 1459.76 748.211 1454.7 570.378 C 1449.72 358.402 1350.9 125.956 1105.71 132.234 C 1044.71 56.7482 932.294 14.8724 838.644 3.92717 C 826.737 2.53546 814.706 1.71696 802.83 0 z" fill="rgb(255,255,255)" transform="translate(0,0)"></path>
<path d="M 880.252 1875.55 C 897.41 1844.93 915.016 1814.56 933.066 1784.45 C 998.587 1677.58 1134.12 1475.9 1257.46 1441.88 C 1292.74 1432.15 1329.75 1433.87 1362.17 1452.16 C 1397.65 1472.17 1419.57 1505.07 1430.08 1543.71 C 1464.77 1671.23 1353.07 1911.47 1288.98 2022.95 C 1284.14 2031.33 1279.25 2039.68 1274.32 2048 L 1207.28 2048 C 1200.86 2043.94 1192.98 2040.11 1186.16 2036.57 L 960.099 1917.85 C 934.003 1903.38 906.766 1890.13 880.252 1875.55 z" fill="rgb(235,218,191)" transform="translate(0,0)"></path>
<path d="M 429.474 1641.06 C 422.8 1637.04 410.55 1634.25 403.096 1630.37 C 371.269 1613.81 348.902 1586.37 337.24 1552.73 C 332.269 1538.39 331.959 1523.79 323.649 1511.08 C 321.61 1507.96 314.213 1497.1 311.509 1495.25 C 301.354 1488.73 295.361 1485.91 288.08 1476.03 C 270.227 1451.8 256.994 1412.18 286.034 1390.62 C 292.487 1385.82 300.402 1383.67 308.548 1385.05 C 325.308 1387.91 327.309 1414.04 334.679 1426.24 C 339.721 1436.41 345.971 1446.85 353.118 1455.62 C 368.515 1474.51 383.956 1484.77 406.37 1494.4 C 421.276 1500.8 438.877 1517.09 448.348 1530.72 C 473.652 1567.12 477.178 1604.79 470.023 1647.31 C 476.966 1654.06 488.541 1663.37 496.149 1669.93 C 515.555 1686.71 535.123 1703.3 554.849 1719.7 C 555.522 1720.51 555.51 1720.42 556.446 1721.09 L 573.873 1735.67 C 574.525 1736.52 574.501 1736.4 575.461 1737.08 L 579.882 1740.67 C 580.524 1741.51 580.498 1741.4 581.45 1742.08 L 587.888 1747.68 C 588.378 1748.28 588.397 1748.2 589.052 1748.63 C 601.904 1759.91 619.428 1775.36 632.914 1785.64 C 633.378 1786.25 633.376 1786.16 634.077 1786.61 L 651.838 1801.71 C 652.504 1802.49 652.59 1802.49 653.445 1803.09 C 678.108 1823.9 703.926 1846.47 728.859 1866.7 C 729.524 1867.52 729.511 1867.42 730.45 1868.09 L 822.479 1946.1 C 850.05 1969.58 877.717 1993.58 906.234 2015.85 L 906.376 2015.2 C 895.949 2003.4 882.633 1993.9 870.738 1983.32 C 881.356 1959.24 892.085 1933.19 903.117 1909.49 C 963.086 1946.7 1022.78 1984.36 1082.18 2022.45 C 1094.83 2030.67 1110.29 2039.83 1122.4 2048 L 619.493 2048 C 553.966 1977.71 484.545 1906.65 422.741 1833.08 C 402.849 1809.11 383.572 1784.65 364.93 1759.7 C 388.459 1747.67 407.577 1737.73 425.49 1717.71 C 417.678 1722.35 410.15 1727.92 401.983 1732.5 C 368.527 1751.23 343.399 1755.56 306.148 1752.76 C 305.237 1752.28 305.328 1752.29 304.306 1752.34 C 284.518 1751.48 259.68 1747.88 239.987 1745.46 C 220.332 1743.03 196.73 1723.68 180.324 1711.8 L 126.485 1672.96 C 114.667 1664.41 102.78 1655.96 90.8255 1647.6 C 75.0901 1636.63 43.3619 1618.83 54.6564 1593.68 C 57.9401 1586.37 68.1217 1580.34 76.0539 1583.81 C 92.2034 1590.87 107.697 1601.74 122.68 1611.22 C 148.498 1627.78 174.504 1644.05 200.692 1660.03 C 201.02 1662.9 201.358 1667.77 203.005 1669.89 C 204.174 1666.43 203.08 1649.59 203.298 1644.54 C 204.69 1612.26 216.856 1584.5 239.017 1561.29 C 264.041 1535.08 292.542 1523.55 328.228 1522.7 C 334.646 1595.22 353.63 1628.36 429.474 1641.06 z" fill="rgb(208,146,93)" transform="translate(0,0)"></path>
<path d="M 1439.67 1644.21 C 1450.39 1674.22 1460.94 1719.35 1467.53 1750.48 C 1480.39 1810.37 1490.3 1870.86 1497.21 1931.72 C 1499.21 1949.14 1500.94 1966.59 1502.37 1984.07 C 1503.1 1992.81 1503.72 2005.91 1504.94 2014.28 C 1505.47 2012.16 1505.97 2010.2 1506.4 2008.05 C 1507.26 2016.59 1507.21 2028.08 1509 2036.25 L 1509 2048 L 1506.97 2048 L 1337.58 2048 C 1398.21 1935.9 1434.25 1793.52 1437.26 1666.58 C 1439.31 1658.13 1436.98 1649.39 1439.67 1644.21 z" fill="rgb(235,218,191)" transform="translate(0,0)"></path>
<path d="M 1506.4 2008.05 C 1507.26 2016.59 1507.21 2028.08 1509 2036.25 L 1509 2048 L 1506.97 2048 C 1506.51 2038.53 1504.45 2022.98 1504.94 2014.28 C 1505.47 2012.16 1505.97 2010.2 1506.4 2008.05 z" fill="rgb(40,37,34)" transform="translate(0,0)"></path>
<path d="M 445.55 1864.45 C 479.559 1911.4 515.765 1956.71 554.047 2000.24 C 567.118 2015.19 583.321 2033.89 597.129 2048 L 397.826 2048 C 410.097 1992.57 427.396 1918.07 445.55 1864.45 z" fill="rgb(235,218,191)" transform="translate(0,0)"></path>
<path d="M 1434.49 1658.99 C 1435.02 1792.38 1395.65 1929.7 1335.18 2048 L 1277.15 2048 L 1279.55 2043.9 C 1280.44 2041.33 1280.85 2041.03 1282.56 2038.96 C 1283.42 2036.35 1283.83 2036.05 1285.55 2033.95 C 1286.72 2033.16 1286.77 2032.29 1287.4 2030.92 L 1289.46 2026.99 C 1290.09 2025.35 1290.05 2024.77 1291.4 2023.92 C 1297.1 2012.87 1303.49 2002.61 1309.25 1991.27 C 1353.32 1904.42 1393.95 1816.64 1419.74 1722.4 C 1425.82 1700.19 1429.48 1681.24 1434.49 1658.99 z" fill="rgb(112,60,12)" transform="translate(0,0)"></path>
<path d="M 1285.55 2033.95 C 1284.69 2035.64 1284.03 2037.97 1282.56 2038.96 C 1283.42 2036.35 1283.83 2036.05 1285.55 2033.95 z" fill="rgb(78,41,8)" transform="translate(0,0)"></path>
<path d="M 1291.4 2023.92 C 1290.84 2025.41 1290.8 2026.14 1289.46 2026.99 C 1290.09 2025.35 1290.05 2024.77 1291.4 2023.92 z" fill="rgb(78,41,8)" transform="translate(0,0)"></path>
<path d="M 1282.56 2038.96 C 1281.7 2040.55 1280.93 2043.05 1279.55 2043.9 C 1280.44 2041.33 1280.85 2041.03 1282.56 2038.96 z" fill="rgb(78,41,8)" transform="translate(0,0)"></path>
<path d="M 903.937 1907.12 C 906.186 1903.19 908.11 1899.85 910.652 1896.09 L 912.288 1895.87 C 915.393 1898.2 928.99 1904.84 933.075 1906.41 C 939.624 1908.1 954.986 1918.56 959.647 1919.06 L 960.099 1917.85 L 1186.16 2036.57 C 1192.98 2040.11 1200.86 2043.94 1207.28 2048 L 1201.64 2048 L 1126.09 2048 C 1119.5 2042.56 1107.4 2035.55 1099.69 2030.57 C 1082.53 2019.35 1065.32 2008.22 1048.04 1997.19 L 969.131 1947.67 C 948.723 1934.72 924.705 1918.65 903.937 1907.12 z" fill="rgb(112,60,12)" transform="translate(0,0)"></path>
<path d="M 933.075 1906.41 C 939.624 1908.1 954.986 1918.56 959.647 1919.06 L 960.099 1917.85 L 1186.16 2036.57 C 1192.98 2040.11 1200.86 2043.94 1207.28 2048 L 1201.64 2048 C 1199.26 2046.11 1187.2 2040.17 1183.89 2038.47 C 1177.62 2035.54 1171.07 2032.21 1165 2028.89 C 1124.88 2006.95 1084.38 1985.74 1043.9 1964.47 C 1022.65 1953.26 1001.33 1942.21 979.916 1931.33 C 966.785 1924.65 945.269 1914.12 933.075 1906.41 z" fill="rgb(78,41,8)" transform="translate(0,0)"></path>
<path d="M 465.382 1885.25 L 532.157 1959.42 C 559.206 1988.89 588.32 2019.12 616.067 2048 L 600.707 2048 C 587.67 2032.23 566.441 2009.63 552.219 1994.17 C 550.78 1992.98 550.598 1992.7 549.68 1991.13 L 538.445 1978.29 C 537.934 1977.76 537.905 1977.75 537.556 1977.09 C 519.669 1956.15 502.366 1934.07 484.922 1912.7 C 478.283 1904.57 470.668 1894.3 465.382 1885.25 z" fill="rgb(112,60,12)" transform="translate(0,0)"></path>
<path d="M 549.68 1991.13 C 551.147 1991.82 551.67 1992.64 552.219 1994.17 C 550.78 1992.98 550.598 1992.7 549.68 1991.13 z" fill="rgb(78,41,8)" transform="translate(0,0)"></path>
<path d="M 1437.26 1666.58 C 1437.14 1658.31 1437.04 1649.19 1437.02 1640.86 C 1437.08 1640.65 1437.18 1639.42 1437.6 1639.42 C 1438.94 1639.42 1439.58 1643.84 1439.67 1644.21 C 1436.98 1649.39 1439.31 1658.13 1437.26 1666.58 z" fill="rgb(235,199,145)" transform="translate(0,0)"></path>
<path d="M 912.288 1895.87 C 916.881 1897.43 929.408 1903.66 933.075 1906.41 C 928.99 1904.84 915.393 1898.2 912.288 1895.87 z" fill="rgb(78,41,8)" transform="translate(0,0)"></path>
<path d="M 304.306 1752.34 C 305.328 1752.29 305.237 1752.28 306.148 1752.76 C 305.171 1752.74 305.027 1752.88 304.306 1752.34 z" fill="rgb(112,60,12)" transform="translate(0,0)"></path>
<path d="M 1287.4 2030.92 C 1286.77 2032.29 1286.72 2033.16 1285.55 2033.95 C 1286.08 2032.25 1286.02 2031.83 1287.4 2030.92 z" fill="rgb(78,41,8)" transform="translate(0,0)"></path>
<path d="M 726.645 4.36405 C 761.18 1.31201 795.931 1.6701 830.396 5.43315 C 831.713 5.34377 831.71 5.24725 832.833 5.81109 C 899.353 10.2071 985.001 39.7294 1040.3 77.1586 C 1044.52 80.0178 1057.01 88.628 1060.08 91.569 C 1061.32 92.2284 1061.32 92.1249 1062.21 93.0833 L 1066.22 96.4402 C 1068.65 97.7516 1072.49 100.899 1074.15 103.156 L 1077.55 106.049 C 1080.67 108.33 1087.1 114.824 1089.59 117.87 C 1094.17 123.736 1100.95 130.035 1106.34 135.357 C 1145.58 128.591 1217.46 144.566 1251.52 164.076 C 1254.53 165.501 1256.22 166.269 1258.94 168.205 C 1265.04 172.455 1270.4 174.071 1276.08 178.5 C 1276.82 178.812 1276.71 178.784 1277.32 179.348 C 1282.23 182.428 1285.21 184.349 1289.68 187.988 C 1290.48 188.481 1290.63 188.622 1291.36 189.236 C 1294.47 191.478 1297.79 193.483 1300.36 196.28 C 1302.75 197.937 1304.78 199.294 1306.59 201.613 L 1308.83 203.36 C 1310.51 204.499 1313 206.467 1314.14 208.148 C 1321.2 214.82 1327.28 220.784 1333.96 227.834 C 1337.28 230.323 1344.87 239.552 1347.45 243.096 L 1348.29 244.373 C 1349.01 244.999 1348.97 245.057 1349.51 245.906 L 1355.54 253.013 C 1356.63 254.384 1356.71 254.427 1357.47 255.924 C 1388.58 295.546 1412.89 351.632 1427.41 399.376 C 1427.78 400.123 1427.76 400.185 1427.97 401.018 L 1429.36 406.385 C 1429.75 407.065 1429.67 407.155 1429.79 408.036 C 1430.87 411.25 1431.99 414.025 1432.39 417.391 C 1432.79 418.062 1432.72 418.146 1432.87 419.024 L 1434.4 425.38 C 1434.78 426.077 1434.69 426.209 1434.76 427.042 C 1441.86 451.187 1448.54 498.47 1450.3 524.284 C 1451.01 525.408 1450.83 525.405 1450.72 526.945 C 1454.08 574.763 1453.04 622.789 1447.6 670.416 C 1446.54 679.646 1444.61 697.09 1442.55 705.387 C 1442.54 706.237 1442.55 706.24 1442.31 707.062 C 1439.22 728.587 1433.68 749.547 1427.79 770.438 C 1427.67 771.376 1427.72 771.214 1427.29 772.055 C 1405.27 851.053 1368.77 925.274 1319.64 990.942 C 1311.79 1001.35 1298.74 1018.19 1289.74 1027.63 C 1287.25 1030.87 1284.84 1033.67 1281.69 1036.28 L 1281.03 1037.54 C 1279.18 1039.97 1277.53 1041.68 1275.3 1043.75 L 1266.81 1052.66 C 1263.39 1056.91 1253.97 1066.35 1249.66 1069.82 C 1246.95 1072.44 1242.89 1076.57 1240.13 1078.87 C 1238.73 1080.99 1235.67 1083.14 1233.6 1084.71 C 1225.14 1092.49 1216.31 1099.85 1207.13 1106.76 C 1206.32 1107.92 1206.41 1107.73 1205 1108.46 C 1201.42 1111.36 1197.97 1114.21 1194.22 1116.9 C 1193.3 1117.85 1193.26 1117.8 1192.08 1118.45 C 1183.13 1125.42 1172.76 1132.8 1162.95 1138.48 C 1162.57 1139.38 1162.21 1139.35 1161.22 1139.62 C 1154.76 1143.88 1148.8 1147.95 1141.91 1151.56 C 1141.3 1152.32 1141.22 1152.51 1140.28 1152.48 C 1131.67 1159.13 1110.07 1168.49 1099.87 1172.61 C 1099.65 1162.66 1096.95 1111.28 1101.42 1105.14 C 1101.87 1104.52 1101.86 1104.34 1102.52 1104.04 C 1132.85 1061.25 1153.25 1013.45 1170.81 964.356 C 1207.53 1015.34 1264.2 976.455 1294.21 939.723 C 1317.08 911.737 1330.26 880.071 1337.43 844.825 C 1337.49 843.685 1337.42 843.607 1337.86 842.575 L 1338.23 840.509 C 1338.22 838.51 1337.97 838.011 1338.8 836.338 L 1339.37 832.02 C 1339.2 829.959 1339 829.881 1339.79 828.057 L 1340.2 825.015 C 1339.87 817.393 1339.97 801.977 1340.12 793.989 L 1339.83 792.005 C 1339.32 790.746 1339.38 790.767 1339.45 789.378 C 1336.35 765.307 1327.71 741.04 1307.71 725.823 C 1294.17 715.52 1277.05 711.107 1260.22 713.583 C 1235.91 717.183 1215.8 731.972 1201.34 751.349 C 1189.47 767.255 1187.7 775.801 1180.36 792.331 L 1182.19 795.232 C 1177.78 811.479 1176.45 823.075 1176.13 839.703 C 1101.99 837.402 1085.66 760.879 1116.94 704.809 C 1123.21 693.57 1128.82 686.248 1137.12 676.668 C 1114.78 665.815 1098.26 658.723 1077.8 643.63 C 1000.36 586.49 956.661 492.972 954.802 397.914 C 954.573 383.415 955.178 368.915 956.617 354.486 C 957.065 349.718 960.49 326.954 960.095 324.52 L 958.528 325.321 L 956.205 324.866 C 950.794 330.183 945.228 339.71 940.157 346.085 C 928.141 361.026 915.305 375.288 901.708 388.806 C 801.04 487.859 668.583 543.921 526.622 529.574 C 525.37 529.557 525.354 529.617 524.147 529.252 C 491.925 524.223 459.727 516.409 429.511 503.896 C 409.245 565.326 400.48 609.187 396.559 673.216 C 396.812 675.683 396.932 677.21 396.158 679.652 L 395.761 692.484 C 395.993 702.492 396.434 749.428 395.44 758.006 L 392.079 756.497 C 391.302 756.138 391.131 756.14 390.571 755.588 C 389.678 754.981 388.39 754.312 387.831 753.477 C 383.505 751.374 376.191 747.094 372.766 743.829 C 366.169 739.374 359.398 733.744 353.114 728.754 C 350.913 726.869 344.245 720.917 342.862 718.887 C 339.506 715.958 335.316 711.426 332.103 708.142 C 329.859 706.603 322.811 699.027 321.277 696.637 L 320.272 695.357 C 317.656 693.022 315.791 690.93 313.704 688.122 C 293.978 663.493 284.837 648.784 271.427 620.777 C 270.488 619.499 270.518 619.747 270.449 618.28 C 261.232 601.635 248.74 557.423 245.701 538.965 C 232.954 461.523 246.129 383.968 278.737 313.019 C 288.25 292.32 299.243 269.804 312.362 251.155 C 312.754 250.419 312.704 250.364 313.263 249.822 C 321.753 234.949 339.204 212.25 350.275 199.391 C 351.995 197.133 353.95 194.407 356.231 192.737 L 358.238 190.351 C 359.891 188.256 363.031 184.339 365.175 182.861 C 368.17 179.269 373.129 174.501 376.526 171.041 C 376.981 170.089 377.008 170.167 377.961 169.611 C 384.09 163.3 390.404 157.171 396.895 151.234 C 398.119 149.288 401.522 146.683 403.362 145.238 L 406.848 142.126 C 408.063 140.412 410.611 138.399 412.349 137.182 L 413.696 136.298 C 416.342 133.179 417.271 132.626 420.66 130.156 C 422.441 128.019 424.396 126.851 426.649 125.294 C 427.661 124.151 427.609 124.283 429.05 123.486 L 431.4 121.569 C 432.046 120.94 432.066 120.847 432.804 120.428 C 435.715 117.848 437.621 116.611 440.801 114.508 C 441.458 113.874 441.304 113.935 442.132 113.647 C 445.882 109.818 447.277 108.836 451.879 106.28 C 452.824 104.888 454.264 104.281 455.684 103.44 C 462.701 98.5589 469.495 93.5927 476.822 89.1299 C 478.298 87.3331 478.938 87.1963 481.102 86.6122 C 489.729 80.0074 507.961 70.0442 517.532 65.0677 C 564.35 40.3243 614.559 22.6151 666.54 12.5107 C 672.882 11.236 690.896 7.50109 696.127 7.66986 C 697.28 7.12593 697.26 7.22186 698.587 7.3851 C 703.102 6.25983 708.381 6.10117 713.1 5.77322 C 714.284 5.16265 714.268 5.25835 715.628 5.38424 L 722.372 4.80168 C 724.161 3.96352 724.539 4.20032 726.645 4.36405 z" fill="rgb(112,60,12)" transform="translate(0,0)"></path>
<path d="M 956.205 324.866 C 959.346 320.472 962.319 315.959 965.117 311.339 C 962.085 333.709 958.319 357.039 957.54 379.507 C 954.644 452.798 977.135 524.841 1021.21 583.467 C 1050.67 622.236 1085.85 650.992 1130.22 670.586 C 1133.77 672.154 1137.86 674.125 1141.25 675.928 C 1119.48 702.212 1110.24 716.832 1104.88 751.356 C 1105.15 753.658 1105.08 770.93 1104.88 772.919 C 1108.58 794.621 1114.04 807.958 1131.9 822.793 C 1132.54 823.362 1132.76 823.409 1133.5 823.812 L 1135.74 825.44 C 1136.37 826.122 1136.39 826.092 1137.14 826.626 C 1140.91 828.207 1142.49 828.712 1145.83 831.163 L 1157.94 835.231 C 1158.89 835.553 1158.64 835.516 1159.61 835.512 C 1164.24 836.281 1169 836.655 1173.67 837.106 C 1174.22 818.834 1176.2 809.986 1180.36 792.331 L 1182.19 795.232 C 1177.78 811.479 1176.45 823.075 1176.13 839.703 C 1101.99 837.402 1085.66 760.879 1116.94 704.809 C 1123.21 693.57 1128.82 686.248 1137.12 676.668 C 1114.78 665.815 1098.26 658.723 1077.8 643.63 C 1000.36 586.49 956.661 492.972 954.802 397.914 C 954.573 383.415 955.178 368.915 956.617 354.486 C 957.065 349.718 960.49 326.954 960.095 324.52 L 958.528 325.321 L 956.205 324.866 z" fill="rgb(47,25,5)" transform="translate(0,0)"></path>
<path d="M 1104.88 751.356 C 1105.15 753.658 1105.08 770.93 1104.88 772.919 C 1103.8 769.195 1103.63 754.954 1104.88 751.356 z" fill="rgb(78,41,8)" transform="translate(0,0)"></path>
<path d="M 1137.14 826.626 C 1140.91 828.207 1142.49 828.712 1145.83 831.163 C 1141.89 829.796 1140.4 829.271 1137.14 826.626 z" fill="rgb(78,41,8)" transform="translate(0,0)"></path>
<path d="M 395.44 758.006 C 394.662 749.524 394.48 700.652 395.761 692.484 C 395.993 702.492 396.434 749.428 395.44 758.006 z" fill="rgb(78,41,8)" transform="translate(0,0)"></path>
<path d="M 1340.12 793.989 C 1341.61 807.237 1341.43 811.608 1340.2 825.015 C 1339.87 817.393 1339.97 801.977 1340.12 793.989 z" fill="rgb(78,41,8)" transform="translate(0,0)"></path>
<path d="M 1266.81 1052.66 C 1263.39 1056.91 1253.97 1066.35 1249.66 1069.82 C 1253.79 1064.54 1261.53 1056.82 1266.81 1052.66 z" fill="rgb(78,41,8)" transform="translate(0,0)"></path>
<path d="M 1333.96 227.834 C 1337.28 230.323 1344.87 239.552 1347.45 243.096 C 1345.31 241.357 1334.53 229.723 1333.96 227.834 z" fill="rgb(78,41,8)" transform="translate(0,0)"></path>
<path d="M 321.277 696.637 C 323.516 698.219 331.159 705.497 332.103 708.142 C 329.859 706.603 322.811 699.027 321.277 696.637 z" fill="rgb(78,41,8)" transform="translate(0,0)"></path>
<path d="M 372.766 743.829 C 376.209 745.146 384.896 750.95 387.831 753.477 C 383.505 751.374 376.191 747.094 372.766 743.829 z" fill="rgb(78,41,8)" transform="translate(0,0)"></path>
<path d="M 342.862 718.887 C 346.247 720.08 351.009 725.786 353.114 728.754 C 350.913 726.869 344.245 720.917 342.862 718.887 z" fill="rgb(78,41,8)" transform="translate(0,0)"></path>
<path d="M 1077.55 106.049 C 1080.67 108.33 1087.1 114.824 1089.59 117.87 C 1086.32 115.377 1079.69 109.303 1077.55 106.049 z" fill="rgb(78,41,8)" transform="translate(0,0)"></path>
<path d="M 1066.22 96.4402 C 1068.65 97.7516 1072.49 100.899 1074.15 103.156 C 1072.79 102.646 1066.62 97.9815 1066.22 96.4402 z" fill="rgb(78,41,8)" transform="translate(0,0)"></path>
<path d="M 1291.36 189.236 C 1294.47 191.478 1297.79 193.483 1300.36 196.28 L 1299.56 195.953 C 1296.68 194.789 1293.49 191.505 1291.36 189.236 z" fill="rgb(78,41,8)" transform="translate(0,0)"></path>
<path d="M 1289.74 1027.63 C 1287.25 1030.87 1284.84 1033.67 1281.69 1036.28 L 1281.95 1035.89 C 1284.14 1032.42 1286.59 1030.24 1289.74 1027.63 z" fill="rgb(78,41,8)" transform="translate(0,0)"></path>
<path d="M 365.175 182.861 C 364.057 185.74 360.684 188.368 358.238 190.351 C 359.891 188.256 363.031 184.339 365.175 182.861 z" fill="rgb(78,41,8)" transform="translate(0,0)"></path>
<path d="M 442.132 113.647 C 445.882 109.818 447.277 108.836 451.879 106.28 C 448.969 109.063 445.548 111.513 442.132 113.647 z" fill="rgb(78,41,8)" transform="translate(0,0)"></path>
<path d="M 396.158 679.652 C 395.762 677.203 395.455 675.444 396.559 673.216 C 396.812 675.683 396.932 677.21 396.158 679.652 z" fill="rgb(78,41,8)" transform="translate(0,0)"></path>
<path d="M 356.231 192.737 C 354.958 195.99 352.894 197.175 350.275 199.391 C 351.995 197.133 353.95 194.407 356.231 192.737 z" fill="rgb(78,41,8)" transform="translate(0,0)"></path>
<path d="M 1233.6 1084.71 C 1235.58 1082.38 1237.33 1079.88 1240.13 1078.87 C 1238.73 1080.99 1235.67 1083.14 1233.6 1084.71 z" fill="rgb(78,41,8)" transform="translate(0,0)"></path>
<path d="M 406.848 142.126 C 408.063 140.412 410.611 138.399 412.349 137.182 C 410.839 139.517 409.417 141.179 406.848 142.126 z" fill="rgb(78,41,8)" transform="translate(0,0)"></path>
<path d="M 396.895 151.234 C 398.119 149.288 401.522 146.683 403.362 145.238 C 401.422 147.622 399.693 150.02 396.895 151.234 z" fill="rgb(78,41,8)" transform="translate(0,0)"></path>
<path d="M 1308.83 203.36 C 1310.51 204.499 1313 206.467 1314.14 208.148 C 1311.77 207.267 1310.11 205.527 1308.83 203.36 z" fill="rgb(78,41,8)" transform="translate(0,0)"></path>
<path d="M 313.704 688.122 C 316.505 690.472 317.873 691.383 319.769 694.538 L 320.272 695.357 C 317.656 693.022 315.791 690.93 313.704 688.122 z" fill="rgb(78,41,8)" transform="translate(0,0)"></path>
<path d="M 722.372 4.80168 C 724.161 3.96352 724.539 4.20032 726.645 4.36405 C 725.002 5.643 724.356 5.27478 722.372 4.80168 z" fill="rgb(78,41,8)" transform="translate(0,0)"></path>
<path d="M 1281.03 1037.54 C 1279.18 1039.97 1277.53 1041.68 1275.3 1043.75 C 1277.37 1039.73 1277.11 1039.96 1281.03 1037.54 z" fill="rgb(78,41,8)" transform="translate(0,0)"></path>
<path d="M 420.66 130.156 C 417.93 133.14 417.075 134.143 413.696 136.298 C 416.342 133.179 417.271 132.626 420.66 130.156 z" fill="rgb(78,41,8)" transform="translate(0,0)"></path>
<path d="M 426.649 125.294 C 424.335 127.685 423.634 129.135 420.66 130.156 C 422.441 128.019 424.396 126.851 426.649 125.294 z" fill="rgb(78,41,8)" transform="translate(0,0)"></path>
<path d="M 1300.36 196.28 C 1302.75 197.937 1304.78 199.294 1306.59 201.613 C 1303.41 199.954 1302.91 198.954 1300.36 196.28 z" fill="rgb(78,41,8)" transform="translate(0,0)"></path>
<path d="M 1450.3 524.284 C 1451.01 525.408 1450.83 525.405 1450.72 526.945 C 1450.02 525.699 1450.11 525.773 1450.3 524.284 z" fill="rgb(78,41,8)" transform="translate(0,0)"></path>
<path d="M 476.822 89.1299 C 478.298 87.3331 478.938 87.1963 481.102 86.6122 C 480.163 88.021 478.434 88.532 476.822 89.1299 z" fill="rgb(78,41,8)" transform="translate(0,0)"></path>
<path d="M 1251.52 164.076 C 1254.53 165.501 1256.22 166.269 1258.94 168.205 C 1254.72 166.708 1254.5 167.068 1251.52 164.076 z" fill="rgb(78,41,8)" transform="translate(0,0)"></path>
<path d="M 696.127 7.66986 C 697.28 7.12593 697.26 7.22186 698.587 7.3851 C 697.672 8.1223 697.345 7.92295 696.127 7.66986 z" fill="rgb(78,41,8)" transform="translate(0,0)"></path>
<path d="M 713.1 5.77322 C 714.284 5.16265 714.268 5.25835 715.628 5.38424 C 714.605 6.14436 714.591 5.97366 713.1 5.77322 z" fill="rgb(78,41,8)" transform="translate(0,0)"></path>
<path d="M 1339.79 828.057 C 1339.97 830.153 1340.13 830.145 1339.37 832.02 C 1339.2 829.959 1339 829.881 1339.79 828.057 z" fill="rgb(78,41,8)" transform="translate(0,0)"></path>
<path d="M 1338.8 836.338 C 1338.81 838.463 1338.81 838.485 1338.23 840.509 C 1338.22 838.51 1337.97 838.011 1338.8 836.338 z" fill="rgb(78,41,8)" transform="translate(0,0)"></path>
<path d="M 1355.54 253.013 C 1356.63 254.384 1356.71 254.427 1357.47 255.924 C 1355.85 255.227 1355.48 254.73 1355.54 253.013 z" fill="rgb(78,41,8)" transform="translate(0,0)"></path>
<path d="M 426.649 125.294 C 427.661 124.151 427.609 124.283 429.05 123.486 C 428.438 124.651 428.441 124.548 427.18 125.07 L 426.649 125.294 z" fill="rgb(78,41,8)" transform="translate(0,0)"></path>
<path d="M 1205 1108.46 C 1205.66 1107.21 1205.59 1107.44 1207.13 1106.76 C 1206.32 1107.92 1206.41 1107.73 1205 1108.46 z" fill="rgb(78,41,8)" transform="translate(0,0)"></path>
<path d="M 270.449 618.28 C 271.285 619.213 271.509 619.234 271.449 620.408 L 271.427 620.777 C 270.488 619.499 270.518 619.747 270.449 618.28 z" fill="rgb(78,41,8)" transform="translate(0,0)"></path>
<path d="M 830.396 5.43315 C 831.713 5.34377 831.71 5.24725 832.833 5.81109 C 831.426 5.91343 831.421 6.07658 830.396 5.43315 z" fill="rgb(78,41,8)" transform="translate(0,0)"></path>
<path d="M 1140.28 1152.48 C 1140.88 1151.65 1140.82 1151.77 1141.91 1151.56 C 1141.3 1152.32 1141.22 1152.51 1140.28 1152.48 z" fill="rgb(78,41,8)" transform="translate(0,0)"></path>
<path d="M 1339.45 789.378 C 1340.02 790.47 1339.87 790.575 1339.83 792.005 C 1339.32 790.746 1339.38 790.767 1339.45 789.378 z" fill="rgb(78,41,8)" transform="translate(0,0)"></path>
<path d="M 1192.08 1118.45 C 1192.43 1117.65 1192.64 1117.42 1193.48 1117.15 L 1194.22 1116.9 C 1193.3 1117.85 1193.26 1117.8 1192.08 1118.45 z" fill="rgb(78,41,8)" transform="translate(0,0)"></path>
<path d="M 451.879 106.28 C 452.824 104.888 454.264 104.281 455.684 103.44 C 454.027 105.046 453.908 105.329 451.879 106.28 z" fill="rgb(78,41,8)" transform="translate(0,0)"></path>
<path d="M 1060.08 91.569 C 1061.32 92.2284 1061.32 92.1249 1062.21 93.0833 C 1060.98 92.6858 1060.57 92.6957 1060.08 91.569 z" fill="rgb(78,41,8)" transform="translate(0,0)"></path>
<path d="M 524.147 529.252 C 525.526 529.17 525.562 529.02 526.622 529.574 C 525.37 529.557 525.354 529.617 524.147 529.252 z" fill="rgb(78,41,8)" transform="translate(0,0)"></path>
<path d="M 958.528 325.321 L 960.095 324.52 C 960.49 326.954 957.065 349.718 956.617 354.486 C 955.178 368.915 954.573 383.415 954.802 397.914 C 956.661 492.972 1000.36 586.49 1077.8 643.63 C 1098.26 658.723 1114.78 665.815 1137.12 676.668 C 1128.82 686.248 1123.21 693.57 1116.94 704.809 C 1085.66 760.879 1101.99 837.402 1176.13 839.703 C 1176.45 823.075 1177.78 811.479 1182.19 795.232 C 1196.19 753.249 1229.04 710.889 1278.46 716.353 C 1310.41 719.885 1330.38 751.154 1335.59 780.602 C 1346.88 844.405 1320.07 915.869 1272.16 958.898 C 1258.28 971.32 1241.88 981.341 1223.67 985.159 C 1196.24 990.909 1172.68 972.918 1167.41 946.092 C 1167.02 944.127 1167.2 944.929 1165.83 943.397 L 1165.02 944.518 C 1164.89 949.315 1167.46 955.428 1169.1 960.126 C 1167.85 964.01 1166.57 967.883 1165.25 971.747 C 1123.29 1094.99 1041.37 1200.31 923.257 1258.29 C 840.18 1299.3 738.003 1319.51 648.426 1288.43 C 506.457 1239.15 424.344 1096.99 404.553 954.223 C 396.956 899.413 398.171 847.671 398.15 792.575 C 398.127 734.369 396.485 678.968 404.022 621.018 C 409.238 582.408 418.246 544.406 430.917 507.562 C 506.016 534.79 567.389 542.077 647.167 528.171 C 766.584 507.356 889.914 425.148 958.528 325.321 z" fill="rgb(208,146,93)" transform="translate(0,0)"></path>
<path d="M 546.66 1045.64 C 566.342 1054.01 587.326 1061.57 608.056 1066.87 C 690.202 1087.88 784.664 1074.52 854.194 1024.37 C 843.63 1069.32 823.12 1111.86 788.18 1142.81 C 787.516 1143.59 787.514 1143.52 786.648 1144.1 C 699.192 1217.47 595.414 1169.03 556.515 1073.85 C 552.675 1064.46 549.731 1055.31 546.66 1045.64 z" fill="rgb(36,24,14)" transform="translate(0,0)"></path>
<path d="M 551.125 1050.4 C 568.869 1057.35 587.219 1064.1 605.689 1068.82 C 689.165 1090.17 777.109 1077.85 849.803 1030.96 C 843.939 1058.35 831.975 1080.59 818.026 1104.49 C 815.438 1103.76 812.836 1103.09 810.223 1102.46 C 780.038 1095.41 743.726 1101.16 717.319 1117.53 C 697.275 1129.96 685.753 1148.67 680.499 1171.35 C 680.502 1172.71 680.257 1173.3 679.925 1174.63 C 679.152 1175.35 678.657 1175.35 677.538 1175.76 C 617.427 1167.6 565.03 1107.26 551.125 1050.4 z" fill="rgb(112,60,12)" transform="translate(0,0)"></path>
<path d="M 773.583 1102.42 C 789.047 1101.34 801.763 1103.68 816.734 1106.66 C 793.992 1140.92 763.527 1163.17 723.574 1173.65 C 707.781 1177.05 698.189 1177.2 682.4 1176.65 C 687.737 1129.39 730.267 1106.64 773.583 1102.42 z" fill="rgb(208,146,93)" transform="translate(0,0)"></path>
<path d="M 848.036 719.15 C 917.246 711.994 935.139 829.36 861.721 848.611 C 850.09 850.071 838.312 847.459 828.389 841.22 C 785.123 814.29 791.236 731.391 848.036 719.15 z" fill="rgb(36,24,14)" transform="translate(0,0)"></path>
<path d="M 853.321 721.34 C 869.287 721.584 885.482 728.916 893.794 743.074 L 893.403 743.932 C 885.837 739.422 881.233 736.172 872.05 740.289 C 865.685 743.208 860.793 748.605 858.51 755.225 C 851.632 775.412 874.99 791.439 891.673 780.059 C 900.442 774.077 900.709 767.584 902.561 758.162 C 908.887 780.508 907.563 799.347 896.956 819.844 C 895.382 822.278 893.723 824.657 891.983 826.976 C 884.428 836.842 872.535 844.316 860.099 845.906 C 847.82 847.396 835.456 843.898 825.776 836.197 C 787.393 806.191 797.3 727.6 853.321 721.34 z" fill="rgb(112,60,12)" transform="translate(0,0)"></path>
<path d="M 874.029 742.622 C 884.462 739.712 895.276 745.821 898.169 756.259 C 901.062 766.697 894.936 777.501 884.494 780.377 C 874.075 783.247 863.3 777.138 860.414 766.724 C 857.527 756.31 863.619 745.525 874.029 742.622 z" fill="rgb(208,146,93)" transform="translate(0,0)"></path>
<path d="M 497.63 710.163 C 570.608 703.75 584.548 816.672 516.358 838.308 C 446.515 848.26 425.815 732.731 497.63 710.163 z" fill="rgb(36,24,14)" transform="translate(0,0)"></path>
<path d="M 468.238 732.96 C 494.307 701.804 527.93 706.775 550.034 739.357 C 543.926 735.509 535.209 730.473 528.079 733.532 C 486.222 751.49 536.458 809.433 556.188 754.519 C 558.666 778.475 559.203 797.367 543.44 817.46 C 523.637 842.704 490.531 842.806 470.225 818.061 C 469.153 817.214 469.318 817.336 468.847 815.901 C 453.501 794.335 451.957 768.265 461.576 743.992 C 462.421 740.904 463.601 739.4 465.5 736.909 C 466.009 736.114 466.169 735.855 466.813 735.154 C 467.25 734.375 467.604 733.531 468.238 732.96 z" fill="rgb(112,60,12)" transform="translate(0,0)"></path>
<path d="M 465.5 736.909 C 464.574 738.667 463.01 743.249 461.576 743.992 C 462.421 740.904 463.601 739.4 465.5 736.909 z" fill="rgb(78,41,8)" transform="translate(0,0)"></path>
<path d="M 528.21 736.65 C 538.336 733.937 548.744 739.94 551.468 750.063 C 554.191 760.186 548.2 770.601 538.08 773.336 C 527.944 776.075 517.509 770.072 514.781 759.933 C 512.054 749.795 518.068 739.366 528.21 736.65 z" fill="rgb(208,146,93)" transform="translate(0,0)"></path>
<path d="M 628.823 739.353 C 630.601 740.098 630.025 739.81 631.514 741.113 C 646.677 796.84 633.648 866.646 591.47 905.587 C 589.97 907.582 586.385 911.678 585.577 913.971 C 560.614 984.805 644.777 974.699 683.368 961.414 C 678.135 967.605 673.203 971.497 666.817 976.403 C 632.624 999.959 577.461 987.112 564.808 944.336 C 560.464 925.374 575.607 913.932 585.591 901.987 C 624.608 855.301 639.814 797.673 628.823 739.353 z" fill="rgb(47,25,5)" transform="translate(0,0)"></path>
<path d="M 583.727 909.218 C 581.708 921.579 574.502 929.97 578.892 944.588 C 590.49 983.211 643.389 975.722 672.929 967.938 C 667.486 972.601 664.782 974.265 658.578 978.003 C 647.721 984.048 635.251 986.564 622.899 985.201 C 584.576 981.097 542.354 940.184 583.727 909.218 z" fill="rgb(112,60,12)" transform="translate(0,0)"></path>
<path d="M 1271.25 781.141 C 1272.42 781.066 1273.59 781.007 1274.76 780.965 C 1298.46 780.135 1310.57 802.334 1311.3 823.422 C 1308.79 819.552 1307.63 809.261 1305.43 804.937 C 1287.87 770.368 1259.46 782.109 1244.4 810.784 C 1241.05 817.161 1238.43 823.066 1235.76 829.821 C 1258.9 840.759 1272.27 854.885 1277.61 880.309 L 1277.11 880.814 C 1274.23 875.642 1273.12 872.424 1271.08 866.826 C 1259.09 847.156 1235.03 842.772 1217.89 859.531 C 1202.91 874.178 1200.67 899.04 1201.13 919.23 C 1200.4 917.522 1199.71 915.683 1199.34 913.857 C 1189.57 865.242 1219.25 793.234 1271.25 781.141 z" fill="rgb(36,24,14)" transform="translate(0,0)"></path>
<path d="M 1257.88 788.069 C 1257.52 789.969 1249.81 798.464 1247.58 801.87 C 1240.34 812.93 1236.94 819.547 1233.25 832.132 C 1245.01 837.319 1253.53 841.695 1261.91 851.499 C 1242.09 844.011 1227.78 844.259 1213.36 861.302 C 1208.27 867.468 1206.94 874.023 1202.53 878.903 L 1201.7 877.954 C 1202.35 847.432 1230.16 800.179 1257.88 788.069 z" fill="rgb(112,60,12)" transform="translate(0,0)"></path>
<path d="M 1099.98 1332.66 C 1163.36 1339.91 1214.41 1365.13 1265.92 1401.8 C 1267.91 1402.66 1268.04 1402.94 1269.69 1404.44 C 1270.86 1404.99 1270.74 1404.9 1271.33 1406.01 C 1281.94 1414.25 1293.66 1424.59 1303.41 1433.81 C 1275.57 1433.17 1263.08 1430.78 1234.46 1439.79 C 1111.58 1478.48 1021.37 1614.61 959.913 1721.07 C 942.557 1751.13 929.053 1783.08 913.214 1813.31 C 902.038 1834.65 888.489 1855.8 876.92 1877.18 C 886.425 1881.44 898.644 1888.28 908.092 1893.23 C 893.82 1922.02 882.23 1952.73 868.92 1982.03 C 851.33 1968.19 832.976 1951.93 815.81 1937.33 L 727.01 1862.01 C 656.459 1802.26 584.396 1742.8 514.554 1682.34 C 570.917 1546.37 652.632 1417.22 799.692 1367.85 C 799.495 1418.3 804.592 1458.85 842.647 1497.45 C 868.138 1523.69 903.128 1538.54 939.707 1538.65 C 1020.35 1538.82 1088.94 1472.49 1098.71 1393.11 C 1101.05 1374.06 1100.01 1351.98 1099.98 1332.66 z" fill="rgb(235,218,191)" transform="translate(0,0)"></path>
<path d="M 1265.92 1401.8 C 1267.91 1402.66 1268.04 1402.94 1269.69 1404.44 C 1267.98 1403.45 1267.2 1403.27 1265.92 1401.8 z" fill="rgb(106,98,83)" transform="translate(0,0)"></path>
<path d="M 1269.69 1404.44 C 1270.86 1404.99 1270.74 1404.9 1271.33 1406.01 C 1270.38 1405.46 1270.48 1405.41 1269.69 1404.44 z" fill="rgb(106,98,83)" transform="translate(0,0)"></path>
<path d="M 1095.6 1113.84 C 1097.79 1116.18 1097.19 1264.81 1097.23 1277.59 L 1097.53 1341.51 C 1097.6 1364.84 1098.8 1389.55 1092.9 1412.28 C 1064.94 1520.1 933.086 1582.01 844.802 1496.26 C 806.524 1458.17 802.41 1418.61 802.13 1368.8 C 813.724 1366.1 825.167 1362.79 836.413 1358.89 C 931.353 1325.87 1011.77 1260.72 1063.78 1174.69 C 1078.12 1151.43 1084.23 1137.1 1095.6 1113.84 z" fill="rgb(208,146,93)" transform="translate(0,0)"></path>
<path d="M 818.6 1297.4 C 932.037 1272.71 1014.91 1216 1086.73 1126.84 C 1037.37 1231.27 952.463 1314.25 842.991 1353.86 C 829.808 1358.63 815.594 1362.77 802.082 1366.68 C 801.983 1344.63 802.014 1322.59 802.177 1300.55 C 807.741 1299.74 811.527 1299.19 816.946 1297.75 C 817.82 1297.4 817.656 1297.44 818.6 1297.4 z" fill="rgb(112,60,12)" transform="translate(0,0)"></path>
<path d="M 31.2264 1497.58 C 12.6941 1482.69 2.76932 1452.21 37.0219 1445.86 C 46.8301 1444.05 75.1038 1463.64 85.0913 1469.82 C 106.204 1482.89 127.238 1496.1 148.192 1509.43 C 173.872 1525.61 210.024 1546.16 234.036 1562.76 C 226.349 1572.26 219.858 1581.45 214.316 1592.37 C 213.193 1594.58 210.224 1601.29 208.253 1602.28 L 206.98 1601.88 L 205.53 1602.81 C 202.154 1601.4 201.981 1601.23 198.993 1599.1 L 199.022 1596.29 C 149.701 1566.31 101.52 1533.34 52.0418 1503.6 C 45.8608 1499.88 38.3684 1498.22 31.2264 1497.58 z" fill="rgb(208,146,93)" transform="translate(0,0)"></path>
<path d="M 199.022 1596.29 C 201.913 1598.09 204.473 1599.55 206.98 1601.88 L 205.53 1602.81 C 202.154 1601.4 201.981 1601.23 198.993 1599.1 L 199.022 1596.29 z" fill="rgb(112,60,12)" transform="translate(0,0)"></path>
<path d="M 200.758 1657.41 C 175.641 1641.81 150.611 1626.06 125.67 1610.18 C 106.505 1598.09 89.311 1586.17 68.1928 1577.75 C 59.1373 1574.13 49.0941 1565.57 40.4133 1560.56 C 22.0491 1549.98 5.76908 1535.4 14.1895 1512.37 C 19.3782 1502.7 36.2019 1498.08 45.1701 1502.75 C 64.4709 1512.8 82.497 1525.14 100.677 1536.81 C 133.257 1557.87 166.03 1578.64 198.993 1599.1 C 201.981 1601.23 202.154 1601.4 205.53 1602.81 C 206.415 1603.71 207.84 1604.94 207.43 1606.45 C 202.689 1623.89 200.849 1639.39 200.758 1657.41 z" fill="rgb(208,146,93)" transform="translate(0,0)"></path>
<path d="M 88.1132 1428.27 C 92.4565 1428.13 97.7255 1428.74 101.653 1430.72 C 162.178 1461.26 221.004 1497.38 280.79 1529.16 C 264.679 1536.82 261.388 1538.69 247.717 1549.79 C 243.785 1553.41 239.707 1557.55 235.85 1561.3 C 221.432 1551.32 202.016 1540.02 186.783 1530.58 C 161.956 1515.16 137.206 1499.61 112.536 1483.94 C 95.933 1473.56 78.7921 1463.54 62.5739 1452.65 C 68.2945 1438.14 71.6442 1431.4 88.1132 1428.27 z" fill="rgb(208,146,93)" transform="translate(0,0)"></path>
<path d="M 1253.87 1436.6 C 1255.46 1437.85 1255.37 1437.77 1256.2 1439.65 C 1204.44 1455.77 1166.79 1486.77 1127.55 1523.67 C 1118.85 1531.86 1110.41 1542.04 1101.87 1550.59 C 1100.31 1552.51 1095.83 1557.67 1093.8 1559.14 C 1054.41 1600.11 1019.1 1650.82 986.183 1697.2 C 969.768 1720.32 955.784 1745.09 940.076 1768.65 L 937.896 1767.95 C 952.226 1737.91 967.714 1712.68 984.56 1684.21 C 984.848 1683.52 984.793 1683.31 985.374 1682.92 L 987.47 1679.12 C 987.843 1678.44 987.809 1678.29 988.373 1677.92 L 990.472 1674.03 C 990.894 1673.23 990.9 1673.08 991.488 1672.48 C 992.041 1671.63 992.506 1670.51 993.36 1669.9 L 995.44 1666.12 C 995.869 1665.35 995.815 1665.25 996.374 1664.81 C 997.098 1663.55 997.833 1662.11 998.766 1661.02 C 999.225 1660.3 999.72 1659.34 1000.4 1658.83 C 1001.12 1657.54 1001.84 1656.09 1002.77 1654.96 C 1003.24 1654.25 1003.7 1653.37 1004.36 1652.91 C 1009.49 1644.47 1015.89 1635.42 1021.5 1627.16 C 1021.87 1626.44 1021.84 1626.25 1022.47 1625.81 L 1024.23 1623.27 C 1024.78 1622.36 1024.94 1622.03 1025.63 1621.2 C 1026.15 1620.43 1026.74 1619.34 1027.5 1618.79 L 1029.24 1616.3 C 1029.74 1615.55 1029.79 1615.28 1030.45 1614.78 L 1032.21 1612.2 C 1032.75 1611.46 1032.8 1611.3 1033.5 1610.69 L 1035.17 1608.42 C 1035.65 1607.61 1035.69 1607.39 1036.34 1606.78 C 1038.01 1604.19 1038.51 1603.44 1040.58 1601.2 C 1040.9 1600.45 1040.87 1600.23 1041.49 1599.78 L 1043.2 1597.22 C 1043.66 1596.54 1043.73 1596.34 1044.33 1595.78 C 1045.51 1593.98 1045.84 1593.07 1047.42 1591.72 L 1049.25 1589.26 C 1049.71 1588.53 1049.7 1588.4 1050.32 1587.88 L 1053.59 1583.91 C 1054.38 1582.66 1054.3 1582.66 1055.44 1581.74 L 1057.22 1579.25 C 1057.71 1578.53 1057.71 1578.41 1058.35 1577.91 L 1063.44 1572.05 C 1063.84 1571.35 1063.72 1571.38 1064.32 1570.87 L 1067.59 1566.79 C 1068.34 1565.71 1068.29 1565.66 1069.3 1564.86 L 1074.66 1558.83 C 1075.3 1557.67 1075.22 1557.66 1076.23 1556.84 L 1080.17 1552.44 C 1081.78 1550.38 1083.18 1548.49 1085.26 1546.86 L 1091.13 1540.41 C 1093.08 1537.99 1096.03 1534.46 1098.51 1532.67 L 1100.31 1530.53 C 1100.56 1530.29 1100.82 1530.05 1101.07 1529.8 C 1143.84 1486.22 1194.49 1452.06 1253.87 1436.6 z" fill="rgb(112,60,12)" transform="translate(0,0)"></path>
<path d="M 1101.87 1550.59 C 1100.31 1552.51 1095.83 1557.67 1093.8 1559.14 C 1094.73 1556.39 1099.53 1552.49 1101.87 1550.59 z" fill="rgb(78,41,8)" transform="translate(0,0)"></path>
<path d="M 1098.51 1532.67 C 1097.08 1535.61 1093.65 1538.36 1091.13 1540.41 C 1093.08 1537.99 1096.03 1534.46 1098.51 1532.67 z" fill="rgb(78,41,8)" transform="translate(0,0)"></path>
<path d="M 1085.26 1546.86 C 1083.98 1549.67 1082.58 1550.42 1080.17 1552.44 C 1081.78 1550.38 1083.18 1548.49 1085.26 1546.86 z" fill="rgb(78,41,8)" transform="translate(0,0)"></path>
<path d="M 1055.44 1581.74 C 1054.77 1583.19 1054.89 1583.23 1053.59 1583.91 C 1054.38 1582.66 1054.3 1582.66 1055.44 1581.74 z" fill="rgb(78,41,8)" transform="translate(0,0)"></path>
<path d="M 1047.42 1591.72 C 1046.56 1593.81 1046.31 1593.84 1044.67 1595.44 L 1044.33 1595.78 C 1045.51 1593.98 1045.84 1593.07 1047.42 1591.72 z" fill="rgb(78,41,8)" transform="translate(0,0)"></path>
<path d="M 1040.58 1601.2 C 1038.85 1604.08 1038.72 1604.31 1036.34 1606.78 C 1038.01 1604.19 1038.51 1603.44 1040.58 1601.2 z" fill="rgb(78,41,8)" transform="translate(0,0)"></path>
<path d="M 1076.23 1556.84 C 1075.84 1557.95 1075.7 1558.33 1074.66 1558.83 C 1075.3 1557.67 1075.22 1557.66 1076.23 1556.84 z" fill="rgb(78,41,8)" transform="translate(0,0)"></path>
<path d="M 1069.3 1564.86 C 1068.78 1566.15 1068.92 1566.22 1067.75 1566.73 L 1067.59 1566.79 C 1068.34 1565.71 1068.29 1565.66 1069.3 1564.86 z" fill="rgb(78,41,8)" transform="translate(0,0)"></path>
<path d="M 333.968 1552.91 C 347.505 1577.88 350.755 1594.63 376.976 1615.55 C 383.862 1621.04 391.635 1625.6 398.431 1630.98 C 362.428 1622.48 340.365 1587.2 333.968 1552.91 z" fill="url(#Gradient1)" transform="translate(0,0)"></path>
<path d="M 394.949 1739.28 L 395.315 1739.44 L 395.338 1739.55 C 393.333 1742.42 367.729 1756 363.156 1757.99 C 362.824 1757.31 360.271 1752.83 361.249 1752.42 C 372.079 1747.95 384.496 1744.79 394.949 1739.28 z" fill="rgb(78,41,8)" transform="translate(0,0)"></path>
<path d="M 1253.87 1436.6 L 1254.8 1436.55 C 1258.78 1436.27 1269.38 1434.05 1272.63 1435.55 C 1272.51 1435.5 1272.4 1435.46 1272.28 1435.41 L 1271.75 1436.03 C 1266.41 1437.6 1262.07 1437.33 1256.2 1439.65 C 1255.37 1437.77 1255.46 1437.85 1253.87 1436.6 z" fill="rgb(78,41,8)" transform="translate(0,0)"></path>
<path d="M 937.896 1767.95 L 940.076 1768.65 C 939.316 1770.05 936.159 1775.71 934.675 1776.67 C 934.608 1776.65 934.541 1776.64 934.473 1776.62 C 933.629 1775.09 937.402 1768.84 937.896 1767.95 z" fill="rgb(78,41,8)" transform="translate(0,0)"></path>
<metadata><recraft-signature>{"signed_by": "recraft", "signature_b64": "ZRxaA4iviwSWpJRw3q6mawpsMBMG0hW0hcabG0AjD18eBbEPRT95ozRjJZggtmmjBqEaXoR/kY33rjlXRxCBBg==", "signing_algo": "Ed25519", "generation_timestamp": 1779105528, "identifier": "8b4dd19c-137f-4d24-94ee-8fd2e6d326ca"}</recraft-signature></metadata></svg>