<svg xmlns="http://www.w3.org/2000/svg" height="1216" preserveAspectRatio="none" style="display: block;" version="1.1" viewBox="0 0 1509 2048" width="896">
<defs>
	<linearGradient gradientUnits="userSpaceOnUse" id="Gradient1" x1="875.005" x2="734.164" y1="1151.76" y2="1687.92">
		<stop class="stop0" offset="0" stop-color="rgb(200,147,113)" stop-opacity="1"></stop>
		<stop class="stop1" offset="1" stop-color="rgb(192,166,110)" stop-opacity="1"></stop>
	</linearGradient>
</defs>
<path d="M 0 0 L 1509 0 L 1509 2048 L 0 2048 L 0 0 z" fill="rgb(255,255,255)" transform="translate(0,0)"></path>
<path d="M 446.859 1331.41 C 417.952 1325.75 394.454 1305.85 393.59 1276.2 C 392.325 1232.77 393.112 1240.17 353.747 1234.94 C 335.585 1232.55 319.109 1223.06 307.921 1208.55 C 287 1181.33 293.78 1159.42 301.254 1130.47 C 307.178 1107.53 277.588 1104.53 262.199 1097.43 C 251.416 1092.41 241.975 1084.91 234.648 1075.54 C 218.362 1054.57 214.689 1025.21 227.352 1001.67 C 231.595 993.781 239.554 982.488 240.132 973.97 C 241.435 954.732 222.358 949.104 209.626 940.932 C 202.379 936.381 195.906 930.702 190.452 924.108 C 170.713 900.056 169.269 865.845 186.911 840.214 C 194.969 828.416 210.508 820.146 211.821 804.739 C 213.106 790.407 199.899 783.375 190.02 775.961 C 169.159 760.306 157.748 737.583 160.534 711.207 C 162.599 692.713 172.286 675.919 187.261 664.873 C 192.499 661.003 202.096 655.802 206.432 651.948 C 231.053 630.06 202.581 611.905 192.515 593.646 C 185.331 580.622 182.258 565.729 183.7 550.926 C 186.191 523.633 201.207 502.168 226.579 490.934 C 235.126 487.15 247.099 484.739 254.084 478.505 C 270.409 463.936 256.431 443.751 251.418 427.289 C 248.394 417.537 247.219 407.306 247.955 397.123 C 250.223 367.757 272.252 343.566 300.486 336.449 C 312.991 333.297 329.933 334.027 339.582 325.507 C 352.655 313.549 347.037 292.251 347.832 276.428 C 350.031 232.661 382.657 197.351 427.964 201.337 C 435.305 201.983 442.859 203.624 450.257 204.066 C 480.663 205.883 479.752 178.928 485.985 157.814 C 489.78 145.662 498.245 132.613 507.984 124.445 C 530.251 105.769 556.661 102.149 583.412 113.258 C 593.315 117.37 605.059 124.383 615.566 125.202 C 637.19 126.886 641.562 106.093 650.145 90.8217 C 654.219 83.61 659.511 77.1587 665.788 71.7542 C 675.017 63.8716 686.224 59.1462 698.123 57.0166 C 753.608 47.0865 769.106 100.153 796.455 98.8301 C 820.219 97.6806 831.006 62.4979 875.928 66.0543 C 901.897 67.882 924.652 84.1089 934.841 108.066 C 938.383 116.29 941.786 128.595 947.682 135.022 C 963.81 152.602 981.889 138.314 998.644 132.757 C 1007.54 129.849 1016.92 128.696 1026.26 129.362 C 1059.88 131.715 1082.77 154.674 1092.14 186.701 C 1095.76 199.096 1090.55 214.547 1102.06 226.826 C 1116.34 242.064 1133.24 236.159 1151.33 237.564 C 1169.28 238.807 1185.95 247.336 1197.46 261.173 C 1210.83 277.018 1216.38 298.031 1212.57 318.412 C 1211.02 326.771 1207.57 336.653 1206.99 344.983 C 1204.95 373.976 1228.01 370.779 1246.68 377.978 C 1257.62 382.215 1267.33 389.13 1274.91 398.089 C 1291.66 417.743 1296.4 447.176 1284.82 470.669 C 1279.38 481.713 1267.11 492.215 1266.61 504.261 C 1265.8 523.474 1285.35 527.851 1298.47 535.494 C 1304.44 539.012 1309.79 543.48 1314.32 548.721 C 1326.83 563.174 1332.19 581.421 1330.71 600.047 C 1329.01 621.465 1318.82 636.795 1302.19 649.497 C 1296.39 653.929 1289.94 660.783 1289.78 668.718 C 1289.43 686.666 1310.09 692.878 1320.78 706.149 C 1333.28 721.674 1338.17 733.058 1337.08 753.226 C 1335.93 774.546 1326.27 790.626 1309.7 803.627 C 1304.42 807.767 1295.06 812.412 1290.64 816.865 C 1270.53 837.117 1294.05 853.134 1302.89 868.463 C 1309.06 879.073 1311.96 891.268 1311.22 903.518 C 1309.76 928.304 1297.29 948.204 1274.87 959.489 C 1267.57 963.163 1255.15 966.964 1249.74 972.608 C 1235.21 987.754 1251.03 1004.57 1256.43 1019.22 C 1259.25 1026.95 1260.52 1035.15 1260.18 1043.36 C 1259.02 1070.31 1242.21 1094.53 1216.51 1103.69 C 1207.92 1106.75 1193.36 1108.97 1187.16 1115.47 C 1176.7 1128.14 1188.71 1148.1 1188.15 1163.78 C 1187.09 1193.5 1172 1214.16 1143.52 1223.27 C 1130.28 1227.5 1119.75 1226.95 1106.07 1226.82 C 1094.61 1234.62 1095.55 1243.25 1094.8 1255.95 C 1091.86 1305.28 1058.15 1321.99 1014.06 1320.89 C 1017.03 1324.56 1022.06 1331.22 1025.08 1334.46 L 1038.72 1337.57 C 1143.31 1362.38 1257.84 1397.17 1315.6 1495.72 C 1355.94 1564.55 1387.78 1638.48 1419.83 1711.48 C 1432.27 1739.81 1453.01 1776.58 1445.51 1807.39 C 1437.08 1841.99 1407.78 1863.83 1378.96 1881.36 L 1378.33 1881.75 C 1364.05 1890.03 1349.43 1897.73 1334.51 1904.8 C 1129.8 1993.73 831.516 2010.28 610.688 1995.31 C 581.319 1993.51 551.993 1991.07 522.73 1988 C 519.119 1987.64 501.704 1986.27 499.256 1985.48 C 488.747 1984.36 478.253 1983.11 467.774 1981.74 C 442.33 1977.83 416.938 1973.58 391.605 1969.01 C 304.37 1953.22 135.823 1914.37 80.0151 1839.29 C 72.2212 1828.81 66.4577 1811.95 65.53 1798.66 C 64.3897 1782.31 69.8644 1767.81 71.816 1752.61 C 75.8892 1720.89 79.2746 1689.53 85.0992 1658.35 C 117.392 1485.5 188.703 1412.94 354.931 1360.18 C 364.58 1357.12 383.756 1351.16 393.858 1348.15 C 399.759 1346.39 446.599 1333.85 448.336 1332.67 L 446.859 1331.41 z" fill="rgb(82,66,42)" transform="translate(0,0)"></path>
<path d="M 576.42 1043.17 C 649.036 1114.87 782.879 1198.57 887.902 1154.46 C 887.39 1170.7 885.692 1196.5 886.038 1212.08 C 885.456 1226.05 884.354 1245.3 884.892 1258.96 C 884.925 1263.76 884.124 1277.73 884.921 1281.24 C 901.094 1290.15 905.379 1298.25 915.307 1312.08 C 931.227 1285.65 942.929 1280.55 970.652 1272.06 C 984.205 1286.12 1002.33 1305.41 1014.06 1320.89 C 1017.03 1324.56 1022.06 1331.22 1025.08 1334.46 L 1038.72 1337.57 C 1143.31 1362.38 1257.84 1397.17 1315.6 1495.72 C 1355.94 1564.55 1387.78 1638.48 1419.83 1711.48 C 1432.27 1739.81 1453.01 1776.58 1445.51 1807.39 C 1437.08 1841.99 1407.78 1863.83 1378.96 1881.36 L 1378.33 1881.75 C 1364.05 1890.03 1349.43 1897.73 1334.51 1904.8 C 1129.8 1993.73 831.516 2010.28 610.688 1995.31 C 581.319 1993.51 551.993 1991.07 522.73 1988 C 519.119 1987.64 501.704 1986.27 499.256 1985.48 C 488.747 1984.36 478.253 1983.11 467.774 1981.74 C 442.33 1977.83 416.938 1973.58 391.605 1969.01 C 304.37 1953.22 135.823 1914.37 80.0151 1839.29 C 72.2212 1828.81 66.4577 1811.95 65.53 1798.66 C 64.3897 1782.31 69.8644 1767.81 71.816 1752.61 C 75.8892 1720.89 79.2746 1689.53 85.0992 1658.35 C 117.392 1485.5 188.703 1412.94 354.931 1360.18 C 364.58 1357.12 383.756 1351.16 393.858 1348.15 C 399.759 1346.39 446.599 1333.85 448.336 1332.67 L 446.859 1331.41 L 450.306 1331.52 C 454.475 1331.41 456.024 1331.91 458.14 1328.23 C 458.134 1324.39 458.387 1322.24 458.845 1318.48 C 459.192 1299.87 464.467 1277.89 471.87 1260.91 C 490.33 1218.57 517.268 1197.4 558.363 1181.03 C 563.655 1179.19 569.466 1177.76 574.91 1176.31 C 576.859 1173.9 576.076 1081.04 576.087 1069.95 C 575.79 1061.39 576.223 1051.8 576.42 1043.17 z" fill="rgb(223,203,153)" transform="translate(0,0)"></path>
<path d="M 576.42 1043.17 C 649.036 1114.87 782.879 1198.57 887.902 1154.46 C 887.39 1170.7 885.692 1196.5 886.038 1212.08 C 885.456 1226.05 884.354 1245.3 884.892 1258.96 C 884.925 1263.76 884.124 1277.73 884.921 1281.24 C 901.094 1290.15 905.379 1298.25 915.307 1312.08 C 931.227 1285.65 942.929 1280.55 970.652 1272.06 C 984.205 1286.12 1002.33 1305.41 1014.06 1320.89 C 1017.03 1324.56 1022.06 1331.22 1025.08 1334.46 L 1038.72 1337.57 C 1041.17 1342.45 1046.83 1350 1049.97 1354.8 C 1077.05 1396.14 1098.54 1441.16 1118.98 1486.05 C 1129.53 1509.21 1140.79 1532.87 1149.3 1556.78 C 1127.42 1541.31 1091.19 1529.41 1064.5 1530.03 C 976.54 1532.07 955.038 1609.94 956.178 1683.02 C 960.505 1690.11 968.13 1699.67 959.202 1706.71 C 952.913 1705.26 932.832 1669.24 925.733 1660.78 C 871.01 1595.62 779.211 1539.09 691.125 1556.29 C 639.749 1566.32 611.504 1612.87 586.13 1653.27 C 555.061 1597.21 518.398 1544.26 487.24 1488.21 C 458.398 1436.32 441.677 1391.02 450.306 1331.52 C 454.475 1331.41 456.024 1331.91 458.14 1328.23 C 458.134 1324.39 458.387 1322.24 458.845 1318.48 C 459.192 1299.87 464.467 1277.89 471.87 1260.91 C 490.33 1218.57 517.268 1197.4 558.363 1181.03 C 563.655 1179.19 569.466 1177.76 574.91 1176.31 C 576.859 1173.9 576.076 1081.04 576.087 1069.95 C 575.79 1061.39 576.223 1051.8 576.42 1043.17 z" fill="url(#Gradient1)" transform="translate(0,0)"></path>
<path d="M 558.363 1181.03 C 563.655 1179.19 569.466 1177.76 574.91 1176.31 C 577.257 1181.69 575.807 1207.09 576.557 1215.47 C 576.964 1221.83 577.225 1285.55 575.98 1288.66 C 593.476 1306.67 622.469 1331.42 642.053 1349.37 C 695.297 1397.73 747.797 1446.89 799.535 1496.86 C 826.009 1522.69 856.533 1551.78 880.133 1580.03 C 798.107 1519.22 688.822 1453.8 608.913 1564.27 C 600.302 1576.17 592.355 1588.41 584.225 1600.66 C 544.027 1525.15 484.461 1455.18 464.097 1371.98 C 459.302 1352.38 459.781 1337.79 458.845 1318.48 C 459.192 1299.87 464.467 1277.89 471.87 1260.91 C 490.33 1218.57 517.268 1197.4 558.363 1181.03 z" fill="rgb(223,203,153)" transform="translate(0,0)"></path>
<path d="M 575.98 1288.66 C 564.305 1277.26 548.051 1263.5 542.997 1247.5 C 537.529 1230.19 553.461 1220.14 568.514 1217.11 L 576.557 1215.47 C 576.964 1221.83 577.225 1285.55 575.98 1288.66 z" fill="rgb(158,120,87)" transform="translate(0,0)"></path>
<path d="M 970.652 1272.06 C 984.205 1286.12 1002.33 1305.41 1014.06 1320.89 C 1017.03 1324.56 1022.06 1331.22 1025.08 1334.46 C 1026.39 1340.39 1052.81 1384.05 1057.98 1394.35 C 1076.35 1431.47 1093.35 1469.25 1108.92 1507.63 C 1010.39 1440.92 962.163 1520.41 937.547 1607.24 C 933.792 1602.33 936.656 1589.01 935.853 1579.47 C 935.56 1568.02 937.859 1542.5 938.75 1530.36 C 943.799 1461.5 950.866 1423.18 933.686 1354.2 C 927.639 1333.66 925.381 1330.16 915.307 1312.08 C 931.227 1285.65 942.929 1280.55 970.652 1272.06 z" fill="rgb(223,203,153)" transform="translate(0,0)"></path>
<path d="M 576.42 1043.17 C 649.036 1114.87 782.879 1198.57 887.902 1154.46 C 887.39 1170.7 885.692 1196.5 886.038 1212.08 C 885.456 1226.05 884.354 1245.3 884.892 1258.96 C 884.567 1263.14 884 1267.35 878.933 1266.5 C 869.724 1264.95 857.912 1261.03 848.828 1258.73 C 769.152 1238.17 696.127 1197.41 636.812 1140.37 C 623.408 1127.36 610.84 1113.52 599.182 1098.92 C 594.589 1093.21 580.885 1073.75 576.087 1069.95 C 575.79 1061.39 576.223 1051.8 576.42 1043.17 z" fill="rgb(158,120,87)" transform="translate(0,0)"></path>
<path d="M 882.93 1339.38 C 883.037 1331.06 883.187 1285.6 884.921 1281.24 C 901.094 1290.15 905.379 1298.25 915.307 1312.08 C 925.381 1330.16 927.639 1333.66 933.686 1354.2 C 933.032 1354.46 931.738 1355.16 931.006 1354.83 C 915.585 1347.81 899.246 1343.85 882.93 1339.38 z" fill="rgb(158,120,87)" transform="translate(0,0)"></path>
<path d="M 937.547 1607.24 C 937.415 1608.27 935.419 1618.39 935.127 1618.71 C 934.906 1618.59 934.685 1618.47 934.464 1618.36 C 936.187 1606.17 933.725 1592.18 935.853 1579.47 C 936.656 1589.01 933.792 1602.33 937.547 1607.24 z" fill="rgb(197,152,112)" transform="translate(0,0)"></path>
<path d="M 467.774 1981.74 C 473.11 1839.42 459.257 1669.4 359.111 1557.99 C 337.832 1534.32 304.513 1510.94 273.844 1502.1 C 267.594 1500.3 256.394 1497.92 255.043 1490.25 C 254.942 1489.67 254.909 1489.08 254.946 1488.49 C 256.297 1467.4 285.206 1482.26 295.91 1486.32 C 336.963 1502.07 375.128 1535.56 401.23 1570.64 C 472.204 1666.02 493.22 1790.98 500.454 1907.01 C 501.036 1916.34 503.921 1980.56 500.362 1984.93 L 499.256 1985.48 C 488.747 1984.36 478.253 1983.11 467.774 1981.74 z" fill="rgb(197,152,112)" transform="translate(0,0)"></path>
<path d="M 1209.77 1603.74 C 1209.28 1577.14 1207.65 1557.27 1198.12 1532.07 C 1193.81 1520.66 1208.52 1511.7 1214.76 1519.62 C 1228.37 1536.92 1232.68 1571.92 1233.21 1593.38 C 1233.64 1593.72 1234.07 1594.06 1234.49 1594.41 C 1303.26 1656.38 1346.62 1738.52 1368.55 1827.84 C 1372.75 1844.96 1376.84 1864.52 1378.33 1881.75 C 1364.05 1890.03 1349.43 1897.73 1334.51 1904.8 C 1334.58 1898.49 1334.48 1892.17 1334.24 1885.86 C 1331.4 1794.44 1303.72 1709.07 1244.15 1638.63 C 1233.43 1625.96 1221.83 1615.08 1209.77 1603.74 z" fill="rgb(197,152,112)" transform="translate(0,0)"></path>
<path d="M 935.724 1784.15 C 953.964 1781.3 971.079 1793.73 974.019 1811.95 C 976.959 1830.18 964.62 1847.36 946.409 1850.39 C 928.067 1853.44 910.741 1841 907.78 1822.64 C 904.819 1804.28 917.353 1787.02 935.724 1784.15 z" fill="rgb(255,255,255)" transform="translate(0,0)"></path>
<path d="M 819.962 370.841 C 840.302 387.115 857.901 393.048 883.876 386.33 C 895.008 430.579 925.423 450.096 970.11 445.944 C 979.237 494.271 1011.91 512.049 1058.38 507.678 C 1056.27 541.202 1072.4 567.69 1107.99 569.981 C 1110.25 570.108 1112.51 570.16 1114.77 570.134 C 1100.69 722.808 1109.13 879.176 1031.88 1018.04 C 1011.42 1054.82 986.875 1086.32 954.643 1113.63 C 931.077 1133.6 915.554 1141.75 887.902 1154.46 C 782.879 1198.57 649.036 1114.87 576.42 1043.17 C 537.566 1003.76 508.784 964.26 501.761 907.616 C 442.114 918.276 404.453 885.771 376.27 837.174 C 368.468 819.438 360.339 803.182 358.123 782.856 C 354.994 754.17 357.801 698.396 395.869 694.111 C 411.503 692.352 422.623 701.84 433.975 711.196 C 419.32 733.614 418.192 765.952 441.653 782.768 C 449.853 788.685 460.09 791.051 470.054 789.333 C 480.384 787.705 489.617 781.969 495.653 773.429 C 513.334 748.482 503.873 718.386 479.567 701.92 C 514.258 682.812 518.376 653.329 505.228 618.055 C 507.949 616.457 517.289 618.708 520.863 618.268 C 561.274 613.296 573.201 573.481 574.114 539.174 C 622.692 539.209 654.413 510.839 657.133 461.933 C 701.486 462.848 730.048 446.522 742.163 401.575 C 778.1 408.512 797.778 397.589 819.962 370.841 z" fill="rgb(197,152,112)" transform="translate(0,0)"></path>
<path d="M 699.618 904.695 C 716.145 911.448 734.638 918.985 751.963 923.608 C 804.149 937.533 864.897 939.809 917.607 927.549 C 939.03 922.567 961.223 913.539 981.36 905.244 C 971.036 922.82 967.23 929.82 954.3 945.177 C 936.154 965.521 922.103 978.053 897.637 989.62 C 831.502 1020.88 759.779 989.898 719.209 934.095 C 711.795 923.896 704.997 916.836 699.618 904.695 z" fill="rgb(241,204,200)" transform="translate(0,0)"></path>
<path d="M 954.098 550.416 C 974.015 547.905 1001.98 551.089 1023.83 558.915 C 1043.5 566.589 1113.76 593.254 1073.62 619.743 C 1065.57 625.056 1037.8 605.255 1028.41 600.544 C 979.81 579 952.242 586.201 903.839 597.599 C 894.491 594.044 888.045 589.008 887.249 578.447 C 885.524 555.559 938.525 551.868 954.098 550.416 z" fill="rgb(82,66,42)" transform="translate(0,0)"></path>
<path d="M 698.055 550.412 C 719.635 547.167 749.477 553.308 770.353 558.679 C 793.412 564.612 799.231 586.548 775.245 597.976 C 767.092 596.527 756.051 593.367 747.59 591.467 C 719.861 585.239 696.061 585.269 668.733 592.933 C 654.854 596.566 643.468 602.779 631.417 610.067 C 621.761 615.908 610.074 625.708 599.601 616.727 C 572.577 593.552 619.606 574.976 635.596 566.917 C 654.508 557.386 677.443 552.207 698.055 550.412 z" fill="rgb(82,66,42)" transform="translate(0,0)"></path>
<path d="M 971.687 630.946 C 974.857 630.882 977.995 631.579 980.839 632.979 C 1014.2 649.616 1015.13 742.374 975.989 754.676 C 934.109 754.843 926.507 646.704 971.687 630.946 z" fill="rgb(82,66,42)" transform="translate(0,0)"></path>
<path d="M 696.332 630.944 C 737.701 628.277 747.957 736.52 703.812 754.903 C 662.192 754.607 653.303 652.078 696.332 630.944 z" fill="rgb(82,66,42)" transform="translate(0,0)"></path>
<path d="M 864.936 696.871 C 868.998 697.173 872.312 697.469 875.373 700.447 C 878.307 703.301 884.093 735.616 887.093 743.846 C 896.468 769.571 923.979 787.329 923.755 816.251 C 923.657 828.813 918.618 842.329 909.505 851.119 C 888.769 871.122 853.028 865.633 826.75 865.196 C 822.347 865.2 819.318 864.638 816.49 860.934 C 814.581 858.394 813.779 855.192 814.265 852.053 C 816.12 840.457 827.904 842.474 836.25 842.298 C 858.6 841.829 895.472 849.676 901.464 819.094 C 904.53 803.446 886.374 788.44 878.883 776.762 C 866.275 756.47 855.719 730.519 856.916 706.204 C 857.203 701.735 861.621 698.882 864.936 696.871 z" fill="rgb(82,66,42)" transform="translate(0,0)"></path>
<path d="M 1114.77 570.134 C 1131.1 569.559 1142.3 570.305 1155.19 582.343 C 1164.96 591.364 1170.68 603.952 1171.05 617.25 C 1171.22 626.537 1168.6 636.467 1163.46 644.233 C 1152.57 660.701 1131.94 671.067 1152.75 691.395 C 1166.65 704.985 1180.7 717.67 1181.13 738.684 C 1181.48 755.731 1177.04 771.1 1165.05 783.61 C 1156.29 792.754 1136.14 800.699 1136.64 815.111 C 1137.34 835.531 1173.45 843.333 1167.09 890.125 C 1165.5 901.813 1160.95 912.935 1153.16 921.874 C 1143.94 932.464 1117.35 941.299 1118.55 957.371 C 1119.18 965.739 1125.09 974.1 1128.44 981.72 C 1137.45 1002.22 1133.35 1025.23 1119.19 1042.35 C 1102.43 1062.61 1071.26 1064.06 1065.6 1073.2 C 1062.84 1077.67 1063.32 1085.69 1063.74 1090.73 C 1065.98 1117.68 1066.39 1138.4 1047.92 1160.47 C 1027.28 1185.13 996.033 1183.49 985.64 1196.64 C 974.56 1210.66 990.833 1230.34 960.388 1262.56 C 963.68 1265.59 967.513 1268.95 970.652 1272.06 C 942.929 1280.55 931.227 1285.65 915.307 1312.08 C 905.379 1298.25 901.094 1290.15 884.921 1281.24 C 884.124 1277.73 884.925 1263.76 884.892 1258.96 C 884.354 1245.3 885.456 1226.05 886.038 1212.08 C 885.692 1196.5 887.39 1170.7 887.902 1154.46 C 915.554 1141.75 931.077 1133.6 954.643 1113.63 C 986.875 1086.32 1011.42 1054.82 1031.88 1018.04 C 1109.13 879.176 1100.69 722.808 1114.77 570.134 z" fill="rgb(41,34,25)" transform="translate(0,0)"></path>
<path d="M 886.038 1212.08 C 910.993 1222.37 941.148 1243.57 960.388 1262.56 C 963.68 1265.59 967.513 1268.95 970.652 1272.06 C 942.929 1280.55 931.227 1285.65 915.307 1312.08 C 905.379 1298.25 901.094 1290.15 884.921 1281.24 C 884.124 1277.73 884.925 1263.76 884.892 1258.96 C 884.354 1245.3 885.456 1226.05 886.038 1212.08 z" fill="rgb(197,152,112)" transform="translate(0,0)"></path>
<path d="M 376.27 837.174 C 404.453 885.771 442.114 918.276 501.761 907.616 C 508.784 964.26 537.566 1003.76 576.42 1043.17 C 576.223 1051.8 575.79 1061.39 576.087 1069.95 C 576.076 1081.04 576.859 1173.9 574.91 1176.31 C 569.466 1177.76 563.655 1179.19 558.363 1181.03 C 553.095 1178.61 547.49 1177.01 542.335 1174.36 C 518.691 1162.2 501.722 1138.22 502.491 1111.04 C 502.741 1102.2 505.155 1092.18 502.179 1083.61 C 496.301 1066.69 473.837 1069.02 460.093 1061.78 C 436.446 1049.34 422.218 1023.1 428.253 996.55 C 430.334 987.392 435.58 979.051 437.208 969.828 C 438.081 964.88 437.493 959.514 434.928 955.127 C 424.973 938.096 389.236 939.674 375.201 892.138 C 370.655 876.742 368.357 851.852 376.27 837.174 z" fill="rgb(41,34,25)" transform="translate(0,0)"></path>
<path d="M 813.064 342.748 C 834.147 372.843 862.109 382.749 895.995 365.666 C 895.801 375.346 896 382.498 899.173 391.82 C 904.001 406.319 914.512 418.236 928.296 424.837 C 947.607 434.089 963.305 431.596 982.443 424.707 C 980.216 463.367 999.805 494.964 1042.88 493.798 C 1050.58 493.59 1058.51 490.491 1065.81 487.996 C 1062.19 495.059 1060.58 500.097 1058.38 507.678 C 1011.91 512.049 979.237 494.271 970.11 445.944 C 925.423 450.096 895.008 430.579 883.876 386.33 C 857.901 393.048 840.302 387.115 819.962 370.841 C 797.778 397.589 778.1 408.512 742.163 401.575 C 730.048 446.522 701.486 462.848 657.133 461.933 C 654.413 510.839 622.692 539.209 574.114 539.174 C 573.201 573.481 561.274 613.296 520.863 618.268 C 517.289 618.708 507.949 616.457 505.228 618.055 C 503.023 615.129 498.717 606.561 494.652 601.049 C 547.171 610.612 576.441 565.283 557.924 517.184 C 610.897 529.589 648.729 492.902 639.838 439.767 C 686.382 455.555 730.005 429.17 725.201 377.821 C 762.503 395.613 800.94 384.307 813.064 342.748 z" fill="rgb(158,120,87)" transform="translate(0,0)"></path>
<metadata><recraft-signature>{"signed_by": "recraft", "signature_b64": "FIq5UyNMbaUIQHKNpm/bi3HpwjiQuvLwwT7NPuzJ+JaUZYixZoI+/pJE+PhbLemrkS0Px9KFbJqW/1DXjtGTBg==", "signing_algo": "Ed25519", "generation_timestamp": 1779105379, "identifier": "f3abaf1c-d688-4f99-8930-4678bfc554c5"}</recraft-signature></metadata></svg>