<svg xmlns="http://www.w3.org/2000/svg" height="1216" preserveAspectRatio="none" style="display: block;" version="1.1" viewBox="0 0 1509 2048" width="896">
<path d="M 0 0 L 1509 0 L 1509 2048 L 0 2048 L 0 0 z" fill="rgb(255,255,255)" transform="translate(0,0)"></path>
<path d="M 312.703 760.196 C 310.614 747.295 305.198 728.533 298.942 717.701 C 284.185 692.154 271.961 678.689 265.208 648.734 C 256.293 609.182 262.648 562.491 288.454 530.366 C 307.478 506.685 320.572 498.134 329.567 466.357 C 338.69 434.127 333.248 423.185 330.697 393.166 C 327.628 356.782 339.533 320.72 363.661 293.313 C 410.567 239.493 450.423 266.861 494.414 218.883 C 501.164 211.521 509.644 198.529 514.787 189.684 C 544.898 137.893 608.241 111.27 665.78 128.593 C 697.499 138.142 709.199 152.712 747.336 154.019 C 785.221 155.317 794.346 142.998 825.686 135.61 C 862.912 126.835 912.883 137.588 944.59 158.877 C 988.513 188.369 1009.54 222.023 1020.51 272.953 C 1088.99 263.725 1159.31 315.104 1170.06 383.381 C 1174.31 410.358 1169.62 432.207 1179.99 458.992 C 1190.08 485.07 1203.6 498.093 1221.73 517.925 C 1266.34 572.819 1259.76 651.853 1215.96 704.979 C 1206.24 716.765 1199.07 742.605 1197.54 757.928 C 1197.88 759.709 1197.65 761.377 1199.37 762.101 C 1259.24 787.213 1279.33 865.904 1226.44 909.41 C 1223.8 911.583 1206.77 925.642 1205.51 927.658 C 1213.2 965.397 1209.56 996.34 1189.03 1029.31 C 1171.16 1059.35 1140.33 1070.32 1114.96 1091.33 C 1101.02 1102.87 1095.49 1120.78 1087.04 1135.85 C 1061.65 1181.21 1002.23 1207.88 951.883 1192.79 C 923.417 1212.42 894.997 1228.68 862.083 1239.81 L 861.91 1291.32 C 861.875 1307.25 863.052 1335.01 861.244 1351.88 C 860.866 1355.4 856.38 1364.05 854.664 1367.37 C 820.977 1432.52 789.207 1499.12 754.739 1563.82 C 745.724 1547.88 736.701 1529.04 728.362 1512.63 L 681.571 1420.17 C 671.82 1400.79 656.297 1374.25 649.508 1354.15 C 648.559 1351.34 649.017 1327.44 649.019 1322.18 L 648.879 1256.12 L 648.744 1249.4 C 648.984 1247.12 648.908 1241.66 648.953 1239.12 C 639.87 1233.64 617.231 1225.53 605.685 1219.05 C 591.469 1211.07 576.491 1200.73 562.901 1193.51 C 548.488 1197.13 533.506 1197.9 518.799 1195.77 C 481.636 1190.45 447.864 1168.26 429.461 1135.34 C 419.47 1117.47 415.976 1102.48 399.66 1087.56 C 373.882 1063.98 350.098 1061.21 328.396 1029.88 C 305.845 997.336 300.482 965.34 306.434 927.078 C 306.081 926.048 278.872 900.959 275.256 896.829 C 240.396 857.02 257.42 794.951 300.829 769.034 C 304.999 766.544 310.992 764.387 312.703 760.196 z" fill="rgb(210,161,129)" transform="translate(0,0)"></path>
<path d="M 312.703 760.196 C 310.614 747.295 305.198 728.533 298.942 717.701 C 284.185 692.154 271.961 678.689 265.208 648.734 C 256.293 609.182 262.648 562.491 288.454 530.366 C 307.478 506.685 320.572 498.134 329.567 466.357 C 338.69 434.127 333.248 423.185 330.697 393.166 C 327.628 356.782 339.533 320.72 363.661 293.313 C 410.567 239.493 450.423 266.861 494.414 218.883 C 501.164 211.521 509.644 198.529 514.787 189.684 C 544.898 137.893 608.241 111.27 665.78 128.593 C 697.499 138.142 709.199 152.712 747.336 154.019 C 785.221 155.317 794.346 142.998 825.686 135.61 C 862.912 126.835 912.883 137.588 944.59 158.877 C 988.513 188.369 1009.54 222.023 1020.51 272.953 C 1088.99 263.725 1159.31 315.104 1170.06 383.381 C 1174.31 410.358 1169.62 432.207 1179.99 458.992 C 1190.08 485.07 1203.6 498.093 1221.73 517.925 C 1266.34 572.819 1259.76 651.853 1215.96 704.979 C 1206.24 716.765 1199.07 742.605 1197.54 757.928 C 1197.15 758.922 1196.85 760.725 1195.43 760.511 C 1151.19 753.856 1126.53 778.709 1116.12 821.32 C 1099.56 810.803 1095.38 789.904 1095.02 771.546 C 1093.7 705.587 1096.19 639.241 1094.37 573.318 C 1036.8 532.27 999.489 490.638 985.631 419.185 C 934.883 373.271 882.286 383.413 825.233 408.682 C 791.666 464.08 728.923 504.103 662.333 488.721 C 649.941 486.087 638.675 481.914 626.634 479.027 C 599.918 472.622 570.153 476.345 546.933 491.628 C 505.587 518.843 509.937 550.672 462.615 576.362 C 448.758 583.89 433.718 588.996 418.142 591.461 C 417.458 637.121 416.325 682.772 414.741 728.409 C 414.107 747.34 414.341 766.457 412.438 785.212 C 411.279 796.63 403.416 809.368 401.867 816.626 C 399.99 817.366 399.472 817.433 397.475 817.821 C 387.576 786.879 373.295 763.871 338.545 759.171 C 328.633 757.83 322.785 761.553 313.67 761.797 L 312.703 760.196 z" fill="rgb(108,69,31)" transform="translate(0,0)"></path>
<path d="M 825.233 408.682 C 826.525 394.82 845.422 376.405 855.404 367.676 C 887.747 339.392 934.607 326.868 966.1 363.892 C 976.271 375.849 987.516 402.959 985.631 419.185 C 934.883 373.271 882.286 383.413 825.233 408.682 z" fill="rgb(89,55,27)" transform="translate(0,0)"></path>
<path d="M 418.142 591.461 C 433.718 588.996 448.758 583.89 462.615 576.362 C 509.937 550.672 505.587 518.843 546.933 491.628 C 570.153 476.345 599.918 472.622 626.634 479.027 C 638.675 481.914 649.941 486.087 662.333 488.721 C 611.111 489.466 567.397 502.964 531.239 540.11 C 520.928 550.562 512.188 562.454 505.29 575.415 C 469.201 643.448 459.921 762.177 460.577 839.482 C 461.61 961.116 496.268 1076.88 585.532 1162.87 C 617.149 1193.33 654.619 1219.16 694.684 1237.41 C 712.048 1245.32 727.664 1250.44 745.137 1257.15 C 722.191 1260.68 671.094 1244.98 648.953 1239.12 C 639.87 1233.64 617.231 1225.53 605.685 1219.05 C 591.469 1211.07 576.491 1200.73 562.901 1193.51 C 548.488 1197.13 533.506 1197.9 518.799 1195.77 C 481.636 1190.45 447.864 1168.26 429.461 1135.34 C 419.47 1117.47 415.976 1102.48 399.66 1087.56 C 373.882 1063.98 350.098 1061.21 328.396 1029.88 C 305.845 997.336 300.482 965.34 306.434 927.078 C 306.081 926.048 278.872 900.959 275.256 896.829 C 240.396 857.02 257.42 794.951 300.829 769.034 C 304.999 766.544 310.992 764.387 312.703 760.196 L 313.67 761.797 C 322.785 761.553 328.633 757.83 338.545 759.171 C 373.295 763.871 387.576 786.879 397.475 817.821 C 399.472 817.433 399.99 817.366 401.867 816.626 C 403.416 809.368 411.279 796.63 412.438 785.212 C 414.341 766.457 414.107 747.34 414.741 728.409 C 416.325 682.772 417.458 637.121 418.142 591.461 z" fill="rgb(171,126,100)" transform="translate(0,0)"></path>
<path d="M 312.703 760.196 L 313.67 761.797 C 322.785 761.553 328.633 757.83 338.545 759.171 C 373.295 763.871 387.576 786.879 397.475 817.821 C 399.472 817.433 399.99 817.366 401.867 816.626 C 403.61 818.831 403.479 835.47 403.618 839.515 C 404.741 865.192 406.895 890.815 410.074 916.32 C 410.928 923.194 414.988 946.444 415.083 951.656 C 361.269 967.223 310.909 925.843 306.434 927.078 C 306.081 926.048 278.872 900.959 275.256 896.829 C 240.396 857.02 257.42 794.951 300.829 769.034 C 304.999 766.544 310.992 764.387 312.703 760.196 z" fill="rgb(210,161,129)" transform="translate(0,0)"></path>
<path d="M 322.707 791.229 C 366.336 787.072 389.16 821.066 397.189 859.739 C 357.28 828.017 323.149 858.469 349.845 900.105 L 355.897 909.216 C 352.356 907.113 348.946 904.798 345.685 902.284 C 328.373 888.769 315.699 865.128 321.611 842.87 C 324.067 833.625 328.835 827.599 334.623 820.278 C 313.14 819.166 306.059 821.838 287.763 832.553 C 293.091 808.745 297.933 798.55 322.707 791.229 z" fill="rgb(171,126,100)" transform="translate(0,0)"></path>
<path d="M 306.434 927.078 C 310.909 925.843 361.269 967.223 415.083 951.656 C 432.507 1039.38 457.571 1098.89 525.06 1161.57 C 529.616 1165.8 561.688 1190.24 562.901 1193.51 C 548.488 1197.13 533.506 1197.9 518.799 1195.77 C 481.636 1190.45 447.864 1168.26 429.461 1135.34 C 419.47 1117.47 415.976 1102.48 399.66 1087.56 C 373.882 1063.98 350.098 1061.21 328.396 1029.88 C 305.845 997.336 300.482 965.34 306.434 927.078 z" fill="rgb(89,55,27)" transform="translate(0,0)"></path>
<path d="M 1102.44 951.743 C 1136.52 960.184 1167.38 951.529 1196.51 932.899 C 1199.75 930.827 1201.74 928.858 1205.51 927.658 C 1213.2 965.397 1209.56 996.34 1189.03 1029.31 C 1171.16 1059.35 1140.33 1070.32 1114.96 1091.33 C 1101.02 1102.87 1095.49 1120.78 1087.04 1135.85 C 1061.65 1181.21 1002.23 1207.88 951.883 1192.79 C 964.482 1181.1 980.133 1171.08 994.561 1157.15 C 1057.72 1096.18 1084.39 1035.52 1102.44 951.743 z" fill="rgb(89,55,27)" transform="translate(0,0)"></path>
<path d="M 648.953 1239.12 C 671.094 1244.98 722.191 1260.68 745.137 1257.15 C 773.052 1265.42 833.639 1250.26 861.131 1240.04 L 860.74 1254.3 C 840.376 1287.5 787.153 1320.04 748.23 1316.39 C 706.412 1312.48 675.402 1285.96 648.879 1256.12 L 648.744 1249.4 C 648.984 1247.12 648.908 1241.66 648.953 1239.12 z" fill="rgb(158,114,88)" transform="translate(0,0)"></path>
<path d="M 621.207 1018.96 C 627.76 1018.48 632.905 1018.19 639.46 1018.23 C 691.108 1018.92 742.762 1019.11 794.414 1018.81 C 821.06 1018.77 850.381 1018.21 876.837 1019.02 L 890.922 1018.57 C 887.752 1041.46 878.652 1063.13 864.524 1081.42 C 842.582 1109.77 810.35 1128.34 774.812 1133.1 C 738.16 1138.16 701.012 1128.26 671.739 1105.63 C 643.003 1083.61 625.93 1054.73 621.207 1018.96 z" fill="rgb(158,114,88)" transform="translate(0,0)"></path>
<path d="M 639.46 1018.23 C 691.108 1018.92 742.762 1019.11 794.414 1018.81 C 821.06 1018.77 850.381 1018.21 876.837 1019.02 C 865.271 1038.29 848.639 1054.01 828.752 1064.48 C 792.183 1083.58 749.494 1087.25 710.198 1074.69 C 679.531 1064.7 654.337 1047.45 639.46 1018.23 z" fill="rgb(241,241,241)" transform="translate(0,0)"></path>
<path d="M 907.178 625.351 C 920.688 623.258 940.534 625.971 954.233 630.209 C 966.382 633.967 1013.11 656.227 1004.76 675.387 C 994.871 698.079 975.138 678.458 963.692 669.732 C 960.529 667.321 953.583 664.35 949.258 662.57 C 928.523 655.272 907.383 654.236 887.11 664.301 C 880.216 667.938 873.848 672.534 866.376 674.953 C 857.494 677.829 848.423 672.09 847.099 662.664 C 846.505 658.624 847.588 654.518 850.096 651.297 C 861.151 637.02 889.588 627.657 907.178 625.351 z" fill="rgb(89,55,27)" transform="translate(0,0)"></path>
<path d="M 580.73 625.363 C 605.253 621.573 634.638 630.736 655.05 644.46 C 663.915 650.421 670.529 661.772 661.731 670.912 C 648.736 684.414 631.092 664.057 616.29 660.435 C 602.659 657.099 597.572 656.625 583.656 657.023 C 564.689 660.588 547.151 668.848 532.542 681.354 C 514.691 696.635 499.559 671.884 512.202 658.325 C 529.6 639.666 555.697 628.382 580.73 625.363 z" fill="rgb(89,55,27)" transform="translate(0,0)"></path>
<path d="M 729.632 775.488 C 732.876 777.45 736.342 782.478 738.078 785.905 C 746.8 802.942 747.109 826.555 736.979 843.107 C 730.167 854.237 722.394 861.456 718.63 874.623 C 712.474 896.154 720.621 915.15 743.439 920.452 C 772.414 927.186 796.923 917.786 821.573 903.355 C 814.146 915.484 808.447 922.677 796.895 931.059 C 791.517 934.864 783.415 938.779 777.244 940.792 C 755.84 947.772 734.447 948.306 714.169 937.706 C 700.747 930.69 688.674 921.074 683.928 905.998 C 673.779 873.757 715.169 862.24 726.369 837.211 C 735.707 816.344 736.722 796.605 729.632 775.488 z" fill="rgb(171,126,100)" transform="translate(0,0)"></path>
<path d="M 1182.58 790.326 C 1192.17 790.008 1201.58 792.911 1209.33 798.571 C 1221.13 807.368 1224.83 818.513 1226.75 832.373 C 1210.59 822.256 1198.7 818.703 1180.09 820.841 C 1182.35 823.426 1184.86 826.505 1186.84 829.317 C 1193.7 838.92 1196.37 850.904 1194.22 862.512 C 1190.6 881.742 1178.27 896.309 1162.65 907.194 C 1161.55 907.66 1162.2 907.523 1160.67 907.343 C 1191.96 867.827 1170.44 826.117 1118.07 858.746 C 1125.26 823.896 1144.84 794.58 1182.58 790.326 z" fill="rgb(171,126,100)" transform="translate(0,0)"></path>
<path d="M 592.081 716.017 C 630.917 713.21 638.546 778.894 602.629 796.705 C 565.427 801.06 554.663 733.091 592.081 716.017 z" fill="rgb(89,55,27)" transform="translate(0,0)"></path>
<path d="M 911.186 716.182 C 949.56 714.656 955.895 783.151 919.153 796.104 C 880.863 798.521 873.792 727.089 911.186 716.182 z" fill="rgb(89,55,27)" transform="translate(0,0)"></path>
<path d="M 648.021 1290.75 C 647.783 1282.13 646.668 1257.05 648.744 1249.4 L 648.879 1256.12 L 649.019 1322.18 C 649.017 1327.44 648.559 1351.34 649.508 1354.15 C 656.297 1374.25 671.82 1400.79 681.571 1420.17 L 728.362 1512.63 C 736.701 1529.04 745.724 1547.88 754.739 1563.82 C 789.207 1499.12 820.977 1432.52 854.664 1367.37 C 856.38 1364.05 860.866 1355.4 861.244 1351.88 C 863.052 1335.01 861.875 1307.25 861.91 1291.32 C 893.22 1293.07 898.176 1308.09 909.188 1334.62 C 939.117 1351.3 952.958 1366.96 973.379 1393.85 C 988.382 1394.97 1004.44 1395.98 1019.22 1398.69 C 1090.54 1412.07 1160.36 1449.23 1208.62 1503.69 C 1253.39 1554.59 1278 1616 1296.52 1680.38 C 1301.41 1695.58 1307.39 1711.71 1310 1727.37 C 1314.23 1752.73 1301.68 1782.15 1281.49 1798.01 C 1258.94 1815.72 1223.15 1826.65 1196.65 1838.17 C 1027.08 1911.87 837.347 1947.24 652.833 1927.9 C 650.621 1927.66 648.595 1927.43 646.392 1927.05 L 644.278 1926.92 C 518.056 1918.95 406.512 1881.91 292.202 1829.12 C 265.124 1816.62 240.097 1808.86 219.865 1785.57 C 206.663 1770.56 200.066 1750.85 201.561 1730.91 C 202.846 1712.83 211.692 1687.29 217.103 1669.5 C 240.612 1592.2 268.485 1530.22 330.748 1476.18 C 343.285 1464.47 360.886 1452.51 375.578 1443.71 C 428.737 1411.86 476.611 1398.88 537.547 1393.01 C 557.578 1365.59 570.649 1351.25 600.708 1334.3 C 611.814 1308.81 615.114 1291.36 648.021 1290.75 z" fill="rgb(241,241,241)" transform="translate(0,0)"></path>
<path d="M 330.748 1476.18 C 330.743 1476.68 330.738 1477.18 330.733 1477.68 C 294.662 1590.84 293.107 1695.62 378.763 1791.7 C 412.137 1828.69 452.707 1858.48 497.991 1879.26 C 545.185 1901.27 591.689 1914.81 642.476 1924.41 C 644.04 1924.71 645.333 1925.94 646.392 1927.05 L 644.278 1926.92 C 518.056 1918.95 406.512 1881.91 292.202 1829.12 C 265.124 1816.62 240.097 1808.86 219.865 1785.57 C 206.663 1770.56 200.066 1750.85 201.561 1730.91 C 202.846 1712.83 211.692 1687.29 217.103 1669.5 C 240.612 1592.2 268.485 1530.22 330.748 1476.18 z" fill="rgb(213,212,212)" transform="translate(0,0)"></path>
<path d="M 600.708 1334.3 C 594.869 1348.55 589.478 1365.71 583.347 1379.63 C 579.235 1388.97 563.185 1400.54 558.459 1410.63 C 526.311 1463.41 522.639 1517.79 551.409 1572.89 C 617.033 1563.23 654.407 1590.98 685.141 1646.86 L 684.905 1648.89 C 680.767 1650.48 669.681 1655.9 666.542 1658.86 C 662.552 1659.97 663.479 1660.34 660.098 1659.32 C 652.607 1649.25 646.829 1637.84 638.755 1627.88 C 595.492 1574.48 508.654 1594.36 499.703 1664.87 C 496.82 1687.58 503.864 1699 508.116 1720.45 C 508.271 1721.23 503.885 1723.37 503.258 1723.65 C 499.15 1724.38 491.59 1725.71 488.068 1727.94 L 484.912 1728.84 C 475.347 1726.13 471.892 1682.03 472.114 1673.08 C 472.336 1664.43 473.575 1655.84 475.807 1647.48 C 483.676 1617.73 499.065 1598.46 525.421 1583.13 C 490.628 1520.78 499.723 1451.2 537.547 1393.01 C 557.578 1365.59 570.649 1351.25 600.708 1334.3 z" fill="rgb(88,85,84)" transform="translate(0,0)"></path>
<path d="M 974.954 1660.39 C 999.95 1680.12 1005.96 1715.57 988.857 1742.45 C 971.758 1769.32 937.1 1778.89 908.632 1764.61 C 880.164 1750.33 867.121 1716.82 878.44 1687.05 C 889.758 1657.28 921.768 1640.9 952.534 1649.14 C 960.695 1651.32 968.324 1655.15 974.954 1660.39 z" fill="rgb(110,108,107)" transform="translate(0,0)"></path>
<path d="M 934.376 1669.02 C 955.606 1667.35 974.171 1683.2 975.85 1704.43 C 977.528 1725.66 961.683 1744.23 940.455 1745.92 C 919.215 1747.61 900.631 1731.75 898.951 1710.51 C 897.272 1689.27 913.135 1670.69 934.376 1669.02 z" fill="rgb(88,85,84)" transform="translate(0,0)"></path>
<path d="M 934.571 1684.52 C 947.05 1682.68 958.643 1691.34 960.413 1703.83 C 962.182 1716.32 953.451 1727.87 940.952 1729.56 C 928.552 1731.25 917.119 1722.6 915.364 1710.21 C 913.609 1697.82 922.19 1686.34 934.571 1684.52 z" fill="rgb(110,108,107)" transform="translate(0,0)"></path>
<path d="M 909.188 1334.62 C 939.117 1351.3 952.958 1366.96 973.379 1393.85 C 1011.31 1451.26 1014.09 1513.17 999.392 1578.35 C 994.25 1601.15 984.815 1639.51 974.954 1660.39 C 968.324 1655.15 960.695 1651.32 952.534 1649.14 C 960.184 1627.76 966.405 1603.78 971.578 1582.05 C 985.995 1521.47 986.919 1470.76 954.284 1415.74 C 944.801 1399.76 936.24 1392.94 926.746 1380.11 C 924.53 1377.12 911.277 1340.39 909.188 1334.62 z" fill="rgb(88,85,84)" transform="translate(0,0)"></path>
<path d="M 666.542 1658.86 C 669.681 1655.9 680.767 1650.48 684.905 1648.89 C 681.712 1665.3 759.1 1744.97 734.522 1797.65 C 730.449 1806.38 725.297 1812.89 717.349 1818.33 C 713.554 1820.92 709.51 1823.29 705.467 1825.48 C 703.872 1814.07 702.516 1815.86 699.772 1806.84 C 703.763 1806.47 711.574 1800.79 714.444 1797.98 C 720.177 1792.38 722.529 1782.63 722.909 1774.93 C 723.268 1767.64 720.622 1757.04 718.071 1750.54 C 710.358 1730.88 679.117 1672.58 666.542 1658.86 z" fill="rgb(110,108,107)" transform="translate(0,0)"></path>
<path d="M 488.068 1727.94 C 491.59 1725.71 499.15 1724.38 503.258 1723.65 C 512.136 1757.96 529.626 1841.73 570.699 1851.41 C 575.214 1852.47 589.321 1852.51 593.114 1849.84 C 596.021 1859.3 595.559 1858.6 600.958 1866.92 C 582.819 1870.45 566.457 1871.19 549.782 1861.88 C 513.718 1841.75 498.951 1765.89 488.068 1727.94 z" fill="rgb(110,108,107)" transform="translate(0,0)"></path>
<path d="M 593.114 1849.84 C 594.307 1845.56 608.635 1834.06 612.406 1832.77 C 648.781 1820.26 650.937 1884.08 600.958 1866.92 C 595.559 1858.6 596.021 1859.3 593.114 1849.84 z" fill="rgb(88,85,84)" transform="translate(0,0)"></path>
<path d="M 705.467 1825.48 C 700.227 1837.12 687.249 1849.43 673.509 1843.91 C 668.557 1841.96 664.668 1838 662.811 1833.01 C 657.858 1820.09 667.108 1806.23 680.986 1806.27 C 687.657 1806.29 694.107 1803.76 699.772 1806.84 C 702.516 1815.86 703.872 1814.07 705.467 1825.48 z" fill="rgb(88,85,84)" transform="translate(0,0)"></path>
<metadata><recraft-signature>{"signed_by": "recraft", "signature_b64": "1a+ZK5dbY83ggpIqOHpF8QkGt4SUt6REkHwqXOzylH4ys4MGDrkBlVxscc8fMkc4AzVkrsB/nbUeFMepwlIIAA==", "signing_algo": "Ed25519", "generation_timestamp": 1779108191, "identifier": "5f9b7291-733c-4bc6-9f5f-ab67e5ff90e0"}</recraft-signature></metadata></svg>