<svg xmlns="http://www.w3.org/2000/svg" height="1216" preserveAspectRatio="none" style="display: block;" version="1.1" viewBox="0 0 1509 2048" width="896">
<path d="M 0 0 L 752.238 0 L 801.639 0 L 1509 0 L 1509 2044.24 L 1509 2048 L 2.30602 2048 L 0 2048 L 0 0 z" fill="rgb(215,158,131)" transform="translate(0,0)"></path>
<path d="M 576.755 1163.18 C 591.009 1175 603.564 1190.9 616.289 1201.6 C 660.646 1238.94 718.129 1256.92 775.858 1251.52 C 822.564 1247.09 869.133 1228.13 901.638 1194.35 C 906.793 1188.99 931.148 1165.45 936.253 1162.67 C 935.076 1174.95 932.691 1203.24 933.359 1215.26 C 935.3 1267.12 942.39 1323.53 1003.34 1336.9 C 1007.38 1336.81 1055.63 1349.58 1062.68 1351.5 C 1089.88 1358.91 1122.41 1365.15 1148.84 1372.88 C 1205.01 1389.31 1266.15 1426.91 1308.11 1467.98 C 1368.11 1526.72 1412.97 1605.46 1432.14 1687.39 C 1438.45 1714.35 1440.78 1741.61 1446.75 1769.67 L 1483.75 1936.8 C 1487.78 1955.53 1503.04 2031.4 1509 2044.24 L 1509 2048 L 2.30602 2048 C 4.71633 2039.92 6.71067 2030.73 8.35523 2022.44 C 25.2752 1937.14 44.9943 1852.4 63.2043 1767.37 C 67.752 1746.13 69.6665 1724.52 73.8498 1703.26 C 85.2755 1644.59 108.473 1588.85 142.042 1539.39 C 192.059 1465.72 261.157 1409.58 345.237 1378.34 C 367.298 1370.14 403.524 1362.29 427.312 1356.42 C 452.599 1350.19 484.043 1341.11 508.874 1336.33 C 521.846 1335.04 538.924 1325.05 548.026 1315.92 C 577.908 1285.93 578.941 1238.29 579.112 1198.94 C 578.82 1187.49 577.666 1174.64 576.755 1163.18 z" fill="rgb(228,226,220)" transform="translate(0,0)"></path>
<path d="M 576.755 1163.18 C 591.009 1175 603.564 1190.9 616.289 1201.6 C 660.646 1238.94 718.129 1256.92 775.858 1251.52 C 822.564 1247.09 869.133 1228.13 901.638 1194.35 C 906.793 1188.99 931.148 1165.45 936.253 1162.67 C 935.076 1174.95 932.691 1203.24 933.359 1215.26 C 935.3 1267.12 942.39 1323.53 1003.34 1336.9 C 985.847 1383.38 941.322 1431.49 898.509 1454.61 C 766.757 1525.74 587.933 1493.84 515.65 1354.5 C 513.27 1349.91 507.535 1341.03 508.874 1336.33 C 521.846 1335.04 538.924 1325.05 548.026 1315.92 C 577.908 1285.93 578.941 1238.29 579.112 1198.94 C 578.82 1187.49 577.666 1174.64 576.755 1163.18 z" fill="rgb(215,158,131)" transform="translate(0,0)"></path>
<path d="M 576.755 1163.18 C 591.009 1175 603.564 1190.9 616.289 1201.6 C 660.646 1238.94 718.129 1256.92 775.858 1251.52 C 822.564 1247.09 869.133 1228.13 901.638 1194.35 C 906.793 1188.99 931.148 1165.45 936.253 1162.67 C 935.076 1174.95 932.691 1203.24 933.359 1215.26 C 920.381 1232.94 900.563 1252.06 882.748 1264.83 C 835.673 1298.48 777.186 1312.12 720.081 1302.76 C 663.849 1293.83 613.447 1262.98 579.907 1216.96 C 580 1210.77 580.32 1205.04 579.112 1198.94 C 578.82 1187.49 577.666 1174.64 576.755 1163.18 z" fill="rgb(184,124,97)" transform="translate(0,0)"></path>
<path d="M 0 0 L 752.238 0 C 740.681 1.57777 728.86 2.1661 717.235 3.40366 C 558.204 20.3344 390.002 121.251 346.164 282.995 L 348.841 286.207 C 365.253 259.417 386.57 240.405 417.587 232.199 C 409.679 238.582 401.47 244.621 394.552 252.049 C 340.574 310.009 331.648 392.804 347.792 467.607 C 353.189 492.62 359.61 517.839 365.724 542.881 C 374.661 579.896 383.884 616.842 393.392 653.715 C 393.006 653.568 392.619 653.421 392.233 653.273 C 347.98 618.073 290.961 632.154 268.083 684.728 C 253.32 718.654 259.854 758.838 273.32 792.535 C 287.584 827.234 318.537 863.675 353.579 878.242 C 378.455 888.583 398.12 885.897 422.655 876.748 C 425.168 899.072 431.086 927.343 434.915 950.314 C 437.995 968.784 442.526 1002.05 447.358 1018.46 C 450.709 1030.2 455.9 1041.33 462.737 1051.45 C 473.8 1067.63 502.242 1091.88 517.578 1106.44 C 530.061 1118.48 542.628 1130.44 555.278 1142.31 C 559.684 1146.46 573.359 1158.82 576.755 1163.18 C 577.666 1174.64 578.82 1187.49 579.112 1198.94 C 578.941 1238.29 577.908 1285.93 548.026 1315.92 C 538.924 1325.05 521.846 1335.04 508.874 1336.33 C 484.043 1341.11 452.599 1350.19 427.312 1356.42 C 403.524 1362.29 367.298 1370.14 345.237 1378.34 C 261.157 1409.58 192.059 1465.72 142.042 1539.39 C 108.473 1588.85 85.2755 1644.59 73.8498 1703.26 C 69.6665 1724.52 67.752 1746.13 63.2043 1767.37 C 44.9943 1852.4 25.2752 1937.14 8.35523 2022.44 C 6.71067 2030.73 4.71633 2039.92 2.30602 2048 L 0 2048 L 0 0 z" fill="rgb(254,254,254)" transform="translate(0,0)"></path>
<path d="M 346.164 282.995 L 348.841 286.207 C 343.047 295.312 345.407 288.528 346.164 282.995 z" fill="rgb(119,78,55)" transform="translate(0,0)"></path>
<path d="M 801.639 0 L 1509 0 L 1509 2044.24 C 1503.04 2031.4 1487.78 1955.53 1483.75 1936.8 L 1446.75 1769.67 C 1440.78 1741.61 1438.45 1714.35 1432.14 1687.39 C 1412.97 1605.46 1368.11 1526.72 1308.11 1467.98 C 1266.15 1426.91 1205.01 1389.31 1148.84 1372.88 C 1122.41 1365.15 1089.88 1358.91 1062.68 1351.5 C 1055.63 1349.58 1007.38 1336.81 1003.34 1336.9 C 942.39 1323.53 935.3 1267.12 933.359 1215.26 C 932.691 1203.24 935.076 1174.95 936.253 1162.67 C 938.984 1157.63 971.672 1128.25 978.166 1121.55 C 1000.72 1098.39 1026.52 1078.29 1046.49 1052.8 C 1066.03 1027.87 1067.23 1002.97 1072.47 973.462 C 1078.14 941.553 1085.55 909.52 1089.5 877.312 C 1147.15 898.677 1194.31 864.279 1224.95 817.305 C 1246.29 782.437 1258.8 740.358 1250.24 699.52 C 1240.8 653.29 1193.37 620.014 1147.56 639.243 C 1142.8 641.239 1131.69 646.934 1127.44 647.722 C 1139.7 606.587 1151.4 565.285 1162.52 523.826 C 1188.14 425.659 1202.1 333.219 1133.6 248.576 C 1153.86 259.606 1166.57 270.784 1179.47 289.809 C 1180.25 287.929 1180.98 286.03 1181.66 284.113 C 1167.74 222.137 1129.82 167.375 1062.82 157.502 C 1056.23 139.664 1049.92 124.723 1038.56 109.125 C 997.124 51.695 930.618 21.1193 862.725 7.91198 C 841.683 3.81857 822.09 3.29589 801.639 0 z" fill="rgb(254,254,254)" transform="translate(0,0)"></path>
<path d="M 1181.66 284.113 L 1181.8 284.954 C 1182.07 286.403 1183.96 292.729 1182.44 293.665 C 1181.04 293.312 1180.12 290.96 1179.47 289.809 C 1180.25 287.929 1180.98 286.03 1181.66 284.113 z" fill="rgb(119,78,55)" transform="translate(0,0)"></path>
<path d="M 752.238 0 L 801.639 0 C 822.09 3.29589 841.683 3.81857 862.725 7.91198 C 930.618 21.1193 997.124 51.695 1038.56 109.125 C 1049.92 124.723 1056.23 139.664 1062.82 157.502 C 1129.82 167.375 1167.74 222.137 1181.66 284.113 C 1180.98 286.03 1180.25 287.929 1179.47 289.809 C 1166.57 270.784 1153.86 259.606 1133.6 248.576 C 1202.1 333.219 1188.14 425.659 1162.52 523.826 C 1151.4 565.285 1139.7 606.587 1127.44 647.722 C 1121.85 660.976 1109.61 715.934 1100.29 722.32 C 1098.36 723.619 1095.92 723.924 1093.73 723.141 C 1091.59 722.387 1089.32 720.208 1088.86 718.086 C 1084.33 697.222 1085.48 673.631 1082.91 652.219 C 1078.56 616.045 1067.67 582.474 1063.89 546.547 C 1062.39 530.991 1063.89 514.14 1064.87 498.607 C 1068.55 440.165 1053.15 382.798 1009.36 341.936 C 988.962 322.909 973.319 315.415 947.514 305.108 C 911.764 361.305 846.577 403.678 780.824 414.43 C 741.573 420.848 693.959 419.816 658.538 399.981 C 722.234 401.675 763.068 385.305 810.059 341.312 L 808.115 340.225 C 761.1 374.823 676.049 389.104 619.126 380.297 C 607.249 378.459 596.474 374.949 585.307 370.726 C 582.662 369.726 574.963 366.487 573.064 366.055 L 574.018 363.059 C 623.01 363.074 680.57 349.452 718.341 316.89 C 614.497 280.428 507.416 306.627 467.902 417.389 C 450.23 466.925 459.13 509.857 453.676 560.436 C 448.75 606.125 426.352 646.657 428.165 694.037 C 428.374 699.503 428.443 727.328 416.022 722.957 C 406.067 717.771 395.855 663.98 393.392 653.715 C 383.884 616.842 374.661 579.896 365.724 542.881 C 359.61 517.839 353.189 492.62 347.792 467.607 C 331.648 392.804 340.574 310.009 394.552 252.049 C 401.47 244.621 409.679 238.582 417.587 232.199 C 386.57 240.405 365.253 259.417 348.841 286.207 L 346.164 282.995 C 390.002 121.251 558.204 20.3344 717.235 3.40366 C 728.86 2.1661 740.681 1.57777 752.238 0 z" fill="rgb(109,85,47)" transform="translate(0,0)"></path>
<path d="M 808.115 340.225 C 809.274 339.183 813.601 334.951 815.243 335.491 C 815.616 336.802 811.028 340.484 810.059 341.312 L 808.115 340.225 z" fill="rgb(184,124,97)" transform="translate(0,0)"></path>
<path d="M 573.064 366.055 C 572.176 365.52 568.829 363.872 568.823 362.735 L 568.955 362.617 C 570.264 362.321 571.793 362.774 573.084 362.965 L 574.018 363.059 L 573.064 366.055 z" fill="rgb(119,78,55)" transform="translate(0,0)"></path>
<path d="M 743.692 643.932 C 755.864 644.088 758.015 647.628 761.429 658.398 C 752.179 703.495 739.236 749.178 728.646 794.104 C 724.067 813.53 718.21 833.55 714.683 853.151 C 713.06 862.176 713.86 870.896 719.854 878.245 C 738.228 900.772 776.603 897.894 801.639 890.754 C 813.158 888.142 826.582 879.26 838.442 880.505 C 847.642 881.472 850.265 892.136 848.13 899.493 C 844.43 912.246 823.256 924.975 812.484 930.905 C 768.239 952.964 702.544 956.937 670.752 910.351 C 650.496 880.67 669.084 840.761 679.637 810.018 C 689.966 779.41 700.676 748.932 711.766 718.592 C 719.341 697.495 725.654 675.036 734.408 654.468 C 736.595 649.328 738.911 646.801 743.692 643.932 z" fill="rgb(184,124,97)" transform="translate(0,0)"></path>
<path d="M 607.789 966.398 C 613.401 967.723 628.628 982.641 634.488 987.029 C 701.245 1037.02 789.057 1042.01 860.107 997.663 C 867.965 992.758 897.5 968.792 902.576 967.557 C 911.444 974.182 893.566 1001.91 889.09 1009.84 C 867.41 1045.43 832.609 1072.21 791.855 1081.89 C 752.014 1091.53 709.977 1084.84 675.09 1063.32 C 643.753 1044.02 617.407 1011.48 605.467 975.271 C 604.205 971.443 605.811 969.481 607.789 966.398 z" fill="rgb(168,79,61)" transform="translate(0,0)"></path>
<path d="M 597.375 651.37 C 625.77 650.863 649.22 673.431 649.801 701.824 C 650.382 730.218 627.875 753.726 599.483 754.381 C 570.986 755.038 547.372 732.43 546.789 703.932 C 546.206 675.434 568.876 651.879 597.375 651.37 z" fill="rgb(228,226,220)" transform="translate(0,0)"></path>
<path d="M 595.976 682 C 607.352 679.735 618.42 687.085 620.747 698.448 C 623.074 709.811 615.785 720.92 604.435 723.309 C 592.997 725.717 581.783 718.359 579.438 706.907 C 577.093 695.456 584.512 684.282 595.976 682 z" fill="rgb(119,78,55)" transform="translate(0,0)"></path>
<path d="M 905.876 651.995 C 933.99 647.296 960.569 666.344 965.153 694.477 C 969.738 722.61 950.583 749.11 922.432 753.581 C 894.441 758.026 868.125 739.004 863.567 711.032 C 859.008 683.06 877.923 656.667 905.876 651.995 z" fill="rgb(228,226,220)" transform="translate(0,0)"></path>
<path d="M 912.967 682.14 C 924.183 680.45 934.708 687.989 936.719 699.152 C 938.729 710.315 931.494 721.052 920.393 723.381 C 912.924 724.947 905.194 722.331 900.212 716.55 C 895.23 710.769 893.784 702.737 896.436 695.582 C 899.089 688.426 905.42 683.277 912.967 682.14 z" fill="rgb(119,78,55)" transform="translate(0,0)"></path>
<path d="M 1171.27 679.243 C 1179.81 678.375 1187.06 679.148 1195.15 681.924 C 1209 686.681 1231.54 708.66 1225.35 724.563 C 1218.31 729.909 1206.14 717.326 1197.04 712.935 C 1191.74 710.382 1185.98 708.954 1180.1 708.743 C 1167.84 708.398 1155.45 714.29 1146.71 722.66 L 1145.74 723.595 C 1146.38 723.89 1147.01 724.188 1147.65 724.49 C 1175.31 737.678 1190.24 763.628 1176.12 792.859 C 1167.2 807.521 1151.5 817.1 1134.12 820.254 C 1122.52 824.64 1100.78 814.905 1114.88 802.247 C 1134.3 784.818 1140.6 773.629 1116.48 752.977 C 1109.98 716.096 1135.41 685.546 1171.27 679.243 z" fill="rgb(184,124,97)" transform="translate(0,0)"></path>
<path d="M 329.079 681.213 C 360.792 679.015 389.317 701.246 397.708 731.191 C 403.15 750.613 394.002 755.586 384.143 769.38 C 379.336 776.104 380.967 789.549 388.108 794.46 C 393.929 798.463 401.574 803.657 403.184 811.013 C 405.249 818.971 398.761 822.136 391.836 822.654 C 374.373 823.704 360.495 816.074 347.551 805.134 C 344.785 802.243 341.04 797.423 339.16 793.943 C 333.567 783.666 332.338 771.573 335.751 760.382 C 341.113 742.629 353.099 734.029 368.582 725.687 C 331.894 687.659 302.796 731.134 290.601 727.299 C 284.902 721.12 287.921 713.558 291.912 707.337 C 301.701 692.077 311.198 684.767 329.079 681.213 z" fill="rgb(184,124,97)" transform="translate(0,0)"></path>
<path d="M 580.858 570.379 C 595.456 569.345 610.744 570.012 624.585 574.622 C 631.701 577.136 647.659 582.897 650.088 590.97 C 660.097 624.235 624.028 611.893 609.455 609.26 C 603.491 608.233 597.453 607.694 591.401 607.648 C 574.141 607.389 560.592 609.875 544.709 616.267 C 532.207 622.054 524.257 628.078 513.663 636.716 C 508.797 640.684 500.767 645.771 494.476 642.604 C 487.71 634.575 498.785 617.248 504.242 610.622 C 523.161 587.652 551.472 573.636 580.858 570.379 z" fill="rgb(109,85,47)" transform="translate(0,0)"></path>
<path d="M 908.521 570.349 C 947.145 565.724 999.171 586.964 1017.21 623.785 C 1019.61 628.695 1021.62 635.535 1019.59 640.81 C 1010.43 648.21 994.426 630.24 985.959 624.11 C 954.326 605.011 919.054 603.204 883.963 613.119 C 877.958 614.815 871.614 615.258 866.156 611.674 C 862.806 609.472 860.554 605.946 859.966 601.98 C 856.573 580.042 893.386 572.275 908.521 570.349 z" fill="rgb(109,85,47)" transform="translate(0,0)"></path>
<metadata><recraft-signature>{"signed_by": "recraft", "signature_b64": "3YMIFs+WO+En/hQ2s+frdAlzIL1ouacpl/cJK7POv+JLSo0nZtqc12Jlxln99J8OhYgfuzMNUoZRViuh12odBA==", "signing_algo": "Ed25519", "generation_timestamp": 1779108757, "identifier": "9c53bdaa-f8a2-4ffb-88f9-eec03d85fb7a"}</recraft-signature></metadata></svg>