<svg xmlns="http://www.w3.org/2000/svg" height="1216" preserveAspectRatio="none" style="display: block;" version="1.1" viewBox="0 0 1509 2048" width="896">
<path d="M 0 0 L 1509 0 L 1509 2048 L 1420.58 2048 L 1115.89 2048 L 394.106 2048 L 128.94 2048 L 0 2048 L 0 1459.43 L 0 1453.31 L 0 0 z" fill="rgb(255,255,255)" transform="translate(0,0)"></path>
<path d="M 661.79 962.059 C 719.812 989.97 765.244 996.343 828.157 975.456 C 836.646 972.638 848.585 967.359 856.196 962.777 L 858.689 968.839 C 858.379 986.704 859.197 1004.24 858.773 1022.43 C 858.769 1039.71 858.515 1056.91 859.104 1074.18 C 867.324 1066.5 874.656 1057.8 883.206 1050.84 C 894.937 1062.06 932.631 1100.8 934.511 1115.67 C 934.735 1117.94 935.089 1120.41 934.944 1122.67 C 937.514 1124.22 955.08 1127.85 959.472 1128.82 C 971.507 1131.5 1023.85 1147.42 1030.49 1155 L 1049.91 1337.37 C 1052.96 1366.51 1055.39 1406.45 1060.02 1434.47 C 1053.97 1432.7 1049.37 1431.58 1044.47 1436.9 C 1042.11 1445.96 1055.49 1449.66 1062 1452.29 C 1068.63 1508.25 1073.28 1562.7 1078.98 1618.5 C 1086.62 1689.4 1093.8 1760.34 1100.53 1831.33 C 1103.79 1867.08 1105.83 1902.78 1108.55 1938.56 C 1109.23 1947.5 1109.24 1956.23 1110.34 1965.13 L 1111.2 1965.75 L 1111.75 1965.39 C 1110.85 1973.55 1107.61 1992.01 1110.19 1998.89 C 1112.49 2001.32 1112.83 2001.26 1116.2 2002.17 C 1114.28 2007.34 1115.67 2040.13 1115.89 2048 L 394.106 2048 C 393.975 2039.12 395.898 2007.75 393.275 2001.97 L 396.919 1999.01 C 400.017 1992.9 397.053 1981.36 396.306 1973.64 L 396.678 1973.61 C 398.379 1971.96 399.253 1949.97 399.559 1945.79 C 402.819 1903.93 406.748 1862.12 411.345 1820.39 C 425.895 1675.35 441.892 1530.46 459.332 1385.74 L 477.082 1239.67 C 480.084 1215.33 484.994 1183.29 486.576 1159.29 C 490.013 1147.9 569.099 1123.57 584.817 1123.96 L 585.756 1119.46 C 583.872 1108.78 591.275 1099.43 598.162 1092.18 C 610.522 1079.17 622.406 1063.57 635.848 1051.86 C 643.353 1056.73 652.642 1067.34 658.974 1074.22 C 660.096 1048.97 658.904 1016.26 658.881 990.351 C 657.994 984.07 658.829 977.535 658.503 970.918 C 659.801 967.999 660.746 965.075 661.79 962.059 z" fill="rgb(134,90,52)" transform="translate(0,0)"></path>
<path d="M 661.79 962.059 C 719.812 989.97 765.244 996.343 828.157 975.456 C 836.646 972.638 848.585 967.359 856.196 962.777 L 858.689 968.839 C 858.379 986.704 859.197 1004.24 858.773 1022.43 C 858.769 1039.71 858.515 1056.91 859.104 1074.18 C 867.324 1066.5 874.656 1057.8 883.206 1050.84 C 894.937 1062.06 932.631 1100.8 934.511 1115.67 C 934.735 1117.94 935.089 1120.41 934.944 1122.67 C 931.933 1124.83 933.009 1123.49 931.465 1126.73 C 934.516 1147.84 936.02 1172.77 938.277 1194.4 C 943.737 1250.26 949.861 1306.04 956.647 1361.75 C 923.296 1361.78 804.526 1362.2 763.511 1361.7 C 763.301 1361.7 761.854 1360.42 761.631 1360.25 L 761.033 1361.53 C 758.536 1362.78 758.45 1363.09 755.637 1362.73 C 751.314 1358.35 753.331 1350.1 752.395 1342.47 L 752.263 1341.47 C 751.918 1347.65 752.186 1355.57 752.222 1361.89 L 556.688 1361.76 C 560.992 1314.03 568.496 1263.82 573.458 1215.77 C 575.776 1193.31 579.113 1146.09 583.788 1125.58 L 584.817 1123.96 L 585.756 1119.46 C 583.872 1108.78 591.275 1099.43 598.162 1092.18 C 610.522 1079.17 622.406 1063.57 635.848 1051.86 C 643.353 1056.73 652.642 1067.34 658.974 1074.22 C 660.096 1048.97 658.904 1016.26 658.881 990.351 C 657.994 984.07 658.829 977.535 658.503 970.918 C 659.801 967.999 660.746 965.075 661.79 962.059 z" fill="rgb(230,228,226)" transform="translate(0,0)"></path>
<path d="M 661.79 962.059 C 719.812 989.97 765.244 996.343 828.157 975.456 C 836.646 972.638 848.585 967.359 856.196 962.777 L 858.689 968.839 C 858.379 986.704 859.197 1004.24 858.773 1022.43 C 858.769 1039.71 858.515 1056.91 859.104 1074.18 C 856.813 1078.38 840.465 1094.6 835.704 1099.48 L 760.82 1174.8 L 754.913 1174.27 C 751.816 1168.4 737.374 1156.38 733.035 1151.68 C 723.674 1141.56 662.784 1082.41 658.974 1074.22 C 660.096 1048.97 658.904 1016.26 658.881 990.351 C 657.994 984.07 658.829 977.535 658.503 970.918 C 659.801 967.999 660.746 965.075 661.79 962.059 z" fill="rgb(215,149,126)" transform="translate(0,0)"></path>
<path d="M 661.79 962.059 C 719.812 989.97 765.244 996.343 828.157 975.456 C 836.646 972.638 848.585 967.359 856.196 962.777 L 858.689 968.839 C 858.379 986.704 859.197 1004.24 858.773 1022.43 C 857.441 1027.38 857.745 1034.97 857.723 1040.32 C 779.566 1054.97 719.225 1044.03 658.881 990.351 C 657.994 984.07 658.829 977.535 658.503 970.918 C 659.801 967.999 660.746 965.075 661.79 962.059 z" fill="rgb(200,119,96)" transform="translate(0,0)"></path>
<path d="M 556.688 1361.76 C 560.992 1314.03 568.496 1263.82 573.458 1215.77 C 575.776 1193.31 579.113 1146.09 583.788 1125.58 L 584.311 1126.44 C 589.328 1134.77 598.641 1156.25 603.13 1165.94 L 644.695 1254.59 C 648.503 1262.71 661.673 1294.73 666.755 1297.79 C 667.655 1297.66 668.734 1297.5 669.993 1297.31 C 694.571 1269.49 730.326 1219.71 752.218 1192.58 L 752.263 1341.47 C 751.918 1347.65 752.186 1355.57 752.222 1361.89 L 556.688 1361.76 z" fill="rgb(230,228,226)" transform="translate(0,0)"></path>
<path d="M 883.206 1050.84 C 894.937 1062.06 932.631 1100.8 934.511 1115.67 C 930.009 1114.61 930.748 1114.02 927.342 1115.49 C 921.617 1124.08 906.873 1156.99 901.324 1168.23 C 881.881 1206.71 862.857 1245.4 844.258 1284.29 C 817.244 1248.87 786.55 1210.6 760.82 1174.8 L 835.704 1099.48 C 840.465 1094.6 856.813 1078.38 859.104 1074.18 C 867.324 1066.5 874.656 1057.8 883.206 1050.84 z" fill="rgb(230,228,226)" transform="translate(0,0)"></path>
<path d="M 635.848 1051.86 C 643.353 1056.73 652.642 1067.34 658.974 1074.22 C 662.784 1082.41 723.674 1141.56 733.035 1151.68 C 737.374 1156.38 751.816 1168.4 754.913 1174.27 C 751.044 1178.72 746.917 1184.08 743.384 1188.83 C 719.434 1221.05 692.628 1251.8 668.961 1284.13 C 642.278 1230.77 619.459 1174.29 592.447 1120.98 C 591.516 1119.14 587.552 1119.53 585.756 1119.46 C 583.872 1108.78 591.275 1099.43 598.162 1092.18 C 610.522 1079.17 622.406 1063.57 635.848 1051.86 z" fill="rgb(230,228,226)" transform="translate(0,0)"></path>
<path d="M 844.258 1284.29 C 862.857 1245.4 881.881 1206.71 901.324 1168.23 C 906.873 1156.99 921.617 1124.08 927.342 1115.49 C 930.748 1114.02 930.009 1114.61 934.511 1115.67 C 934.735 1117.94 935.089 1120.41 934.944 1122.67 C 931.933 1124.83 933.009 1123.49 931.465 1126.73 C 912.483 1168.18 870.158 1253.07 848.154 1296.67 C 847.362 1297.08 846.569 1297.5 845.776 1297.91 C 840.334 1297.06 781.82 1219.17 773.235 1207.38 C 769.416 1202.16 765.696 1196.87 762.078 1191.5 L 761.972 1304.23 C 761.926 1320.07 762.619 1345.21 761.631 1360.25 L 761.033 1361.53 C 758.536 1362.78 758.45 1363.09 755.637 1362.73 C 751.314 1358.35 753.331 1350.1 752.395 1342.47 L 752.263 1341.47 L 752.218 1192.58 C 730.326 1219.71 694.571 1269.49 669.993 1297.31 C 668.734 1297.5 667.655 1297.66 666.755 1297.79 C 661.673 1294.73 648.503 1262.71 644.695 1254.59 L 603.13 1165.94 C 598.641 1156.25 589.328 1134.77 584.311 1126.44 L 583.788 1125.58 L 584.817 1123.96 L 585.756 1119.46 C 587.552 1119.53 591.516 1119.14 592.447 1120.98 C 619.459 1174.29 642.278 1230.77 668.961 1284.13 C 692.628 1251.8 719.434 1221.05 743.384 1188.83 C 746.917 1184.08 751.044 1178.72 754.913 1174.27 L 760.82 1174.8 C 786.55 1210.6 817.244 1248.87 844.258 1284.29 z" fill="rgb(28,25,25)" transform="translate(0,0)"></path>
<path d="M 540.238 1527.92 C 559.716 1527.6 579.828 1527.68 599.305 1527.93 C 722.702 1529.52 846.855 1525.85 970.196 1528.12 C 970.421 1530.88 970.541 1534.02 970.536 1536.79 C 970.477 1573.73 970.979 1611.17 970.731 1648.07 C 970.212 1725.25 979.359 1777.4 922.227 1837.36 C 912.197 1847.09 903.002 1854.92 891.015 1862.21 C 873.824 1872.5 854.869 1879.49 835.119 1882.84 C 815.118 1886.4 782.887 1885.74 761.743 1885.42 C 730.264 1884.94 692.349 1887.85 662.203 1880.4 C 621.421 1870.32 584.799 1841.58 563.258 1805.7 C 552.622 1788.06 545.391 1768.58 541.941 1748.27 C 540.668 1740.55 539.918 1732.75 539.695 1724.93 C 538.325 1687.08 540.062 1645.59 539.225 1607.37 C 538.953 1594.96 538.343 1535.57 540.238 1527.92 z" fill="rgb(28,25,25)" transform="translate(0,0)"></path>
<path d="M 548.208 1602.29 L 961.949 1602.48 L 962.03 1684.96 C 962.045 1747.41 960.942 1781.45 916.266 1831.03 C 868.198 1878.46 824.216 1877.1 762.087 1876.81 C 696.924 1876.5 644.958 1883.26 594.257 1831.56 C 548.725 1785.14 548.393 1742.2 548.288 1682.25 L 548.208 1602.29 z" fill="rgb(134,90,52)" transform="translate(0,0)"></path>
<path d="M 548.257 1537.06 L 961.869 1536.98 L 961.923 1593.3 L 548.238 1593.07 L 548.257 1537.06 z" fill="rgb(134,90,52)" transform="translate(0,0)"></path>
<path d="M 185.655 960.135 C 192.303 974.301 199.055 995.997 204.759 1011.55 L 241.351 1110.08 C 249.449 1132.43 256.074 1154.56 265.761 1176.3 C 272.289 1197.94 282.366 1221.43 290.006 1242.92 C 291.744 1247.81 299.594 1270.5 301.357 1273.89 C 305.434 1285.19 309.611 1295.29 314.293 1306.37 C 319.548 1301.17 328.009 1287.55 333.41 1280.83 C 343.496 1268.22 355.27 1255.69 366.648 1244.4 C 401.467 1209.85 442.796 1182.43 486.041 1159.67 C 486.219 1159.54 486.398 1159.41 486.576 1159.29 C 484.994 1183.29 480.084 1215.33 477.082 1239.67 L 459.332 1385.74 C 441.892 1530.46 425.895 1675.35 411.345 1820.39 C 406.748 1862.12 402.819 1903.93 399.559 1945.79 C 399.253 1949.97 398.379 1971.96 396.678 1973.61 L 396.306 1973.64 C 397.053 1981.36 400.017 1992.9 396.919 1999.01 L 393.275 2001.97 C 395.898 2007.75 393.975 2039.12 394.106 2048 L 128.94 2048 L 0 2048 L 0 1459.43 C 5.98398 1472.47 18.1985 1484.88 27.9815 1495.72 C 30.4818 1498.78 32.3249 1500.77 35.1049 1503.55 C 44.1407 1510.58 54.2208 1511.74 62.5443 1503.13 C 63.2673 1499.16 64.338 1497.71 67.1781 1494.71 C 69.7157 1493.75 69.9753 1493.67 72.2171 1492.25 L 72.661 1492.15 C 77.2622 1496.88 83.9679 1492.62 88.3676 1489.49 L 91.4645 1492.27 C 92.5506 1490.87 100.04 1479.94 100.648 1479.74 C 109.028 1477.36 118.113 1477.12 124.532 1470.97 C 134.219 1461.71 124.128 1450.62 136.561 1447.66 C 154.525 1443.4 157.483 1428.82 153.307 1411.96 C 153.469 1410.73 153.622 1409.73 153.827 1408.52 C 151.814 1406.62 150.986 1405.74 149.174 1403.64 C 146.654 1398.18 140.643 1390.22 138.514 1385.05 C 153.309 1372.74 157.483 1375.21 171.622 1366.77 C 170.156 1362.81 169.323 1362.47 169.998 1358.66 C 173.505 1355.8 178.13 1351.16 181.53 1347.93 C 189.068 1338.98 223.931 1291.24 228.551 1281.98 C 229.326 1277.29 222.326 1249.04 221.139 1243.1 C 205.807 1166.42 189.214 1089.97 174.003 1013.25 C 169.747 991.791 175.876 978.839 185.655 960.135 z" fill="rgb(230,228,226)" transform="translate(0,0)"></path>
<path d="M 0 1459.43 C 5.98398 1472.47 18.1985 1484.88 27.9815 1495.72 C 30.4818 1498.78 32.3249 1500.77 35.1049 1503.55 C 44.1407 1510.58 54.2208 1511.74 62.5443 1503.13 C 64.8756 1506.88 67.0158 1509.8 68.2758 1514.03 C 92.7547 1591.76 130.985 1614.05 175.949 1672.41 L 174.887 1676.73 C 150.757 1678.06 130.473 1677.11 133.299 1708.95 C 134.518 1722.68 135.851 1740.68 139.291 1753.74 C 142.193 1756.9 151.247 1765.27 154.978 1767.39 L 155.182 1769.76 C 153.097 1777.47 149.599 1820.3 148.615 1830.4 C 143.558 1878.46 139.215 1926.6 135.586 1974.79 L 131.356 2023.03 C 130.755 2029.8 130.108 2041.7 128.94 2048 L 0 2048 L 0 1459.43 z" fill="rgb(255,255,255)" transform="translate(0,0)"></path>
<path d="M 155.182 1769.76 C 157.052 1771.18 158.442 1772.05 160.908 1771.83 C 182.389 1769.91 204.597 1767.6 225.985 1765.49 L 358.721 1752.58 C 367.026 1809.59 373.366 1869.02 380.644 1926.42 L 386.499 1972.43 C 387.392 1979.4 388.368 1998 393.275 2001.97 C 395.898 2007.75 393.975 2039.12 394.106 2048 L 128.94 2048 C 130.108 2041.7 130.755 2029.8 131.356 2023.03 L 135.586 1974.79 C 139.215 1926.6 143.558 1878.46 148.615 1830.4 C 149.599 1820.3 153.097 1777.47 155.182 1769.76 z" fill="rgb(230,228,226)" transform="translate(0,0)"></path>
<path d="M 181.53 1347.93 C 187.012 1354.01 211.156 1379.16 213.075 1384.7 C 212.383 1397.54 214.849 1416.06 215.202 1429.76 C 223.457 1437.53 241.436 1448.62 251.553 1455.11 C 256.877 1458.49 278.755 1473.47 283.677 1473.13 L 284.952 1472.73 C 285.952 1475.26 287.094 1477.77 287.526 1480.44 L 289.07 1481.48 C 291.71 1480.67 307.619 1468.05 311.48 1465.24 C 322.296 1457.3 333.704 1447.88 344.289 1439.48 C 346.926 1452.97 363.381 1472.87 372.018 1484.49 C 362.321 1492.43 345.741 1506.87 335.931 1513.51 C 331.873 1516.07 327.852 1519.42 324.334 1521.57 C 324.01 1525.75 322.864 1537.56 323.033 1541.16 C 320.684 1567.42 318.113 1593.66 315.321 1619.87 C 314.284 1629.72 312.439 1651.93 309.836 1660.37 C 301.962 1666.25 196.659 1676.75 179.351 1680.07 C 177.566 1680.41 175.825 1678.18 174.887 1676.73 L 175.949 1672.41 C 130.985 1614.05 92.7547 1591.76 68.2758 1514.03 C 67.0158 1509.8 64.8756 1506.88 62.5443 1503.13 C 63.2673 1499.16 64.338 1497.71 67.1781 1494.71 C 69.7157 1493.75 69.9753 1493.67 72.2171 1492.25 L 72.661 1492.15 C 77.2622 1496.88 83.9679 1492.62 88.3676 1489.49 L 91.4645 1492.27 C 92.5506 1490.87 100.04 1479.94 100.648 1479.74 C 109.028 1477.36 118.113 1477.12 124.532 1470.97 C 134.219 1461.71 124.128 1450.62 136.561 1447.66 C 154.525 1443.4 157.483 1428.82 153.307 1411.96 C 153.469 1410.73 153.622 1409.73 153.827 1408.52 C 151.814 1406.62 150.986 1405.74 149.174 1403.64 C 146.654 1398.18 140.643 1390.22 138.514 1385.05 C 153.309 1372.74 157.483 1375.21 171.622 1366.77 C 170.156 1362.81 169.323 1362.47 169.998 1358.66 C 173.505 1355.8 178.13 1351.16 181.53 1347.93 z" fill="rgb(215,149,126)" transform="translate(0,0)"></path>
<path d="M 181.53 1347.93 C 187.012 1354.01 211.156 1379.16 213.075 1384.7 C 212.383 1397.54 214.849 1416.06 215.202 1429.76 C 215.101 1443.27 214.754 1452.23 212.521 1465.34 C 201.709 1528.8 138.051 1584.97 81.7441 1528.85 C 77.49 1524.61 72.4692 1517.78 68.2758 1514.03 C 67.0158 1509.8 64.8756 1506.88 62.5443 1503.13 C 63.2673 1499.16 64.338 1497.71 67.1781 1494.71 C 69.7157 1493.75 69.9753 1493.67 72.2171 1492.25 L 72.661 1492.15 C 77.2622 1496.88 83.9679 1492.62 88.3676 1489.49 L 91.4645 1492.27 C 92.5506 1490.87 100.04 1479.94 100.648 1479.74 C 109.028 1477.36 118.113 1477.12 124.532 1470.97 C 134.219 1461.71 124.128 1450.62 136.561 1447.66 C 154.525 1443.4 157.483 1428.82 153.307 1411.96 C 153.469 1410.73 153.622 1409.73 153.827 1408.52 C 151.814 1406.62 150.986 1405.74 149.174 1403.64 C 146.654 1398.18 140.643 1390.22 138.514 1385.05 C 153.309 1372.74 157.483 1375.21 171.622 1366.77 C 170.156 1362.81 169.323 1362.47 169.998 1358.66 C 173.505 1355.8 178.13 1351.16 181.53 1347.93 z" fill="rgb(65,33,15)" transform="translate(0,0)"></path>
<path d="M 172.93 1403.28 C 173.438 1405.19 173.821 1406.83 174.225 1408.76 C 184.542 1419.38 187.637 1428.24 187.309 1443.24 C 186.56 1477.44 169.393 1523.49 128.868 1523.75 C 112.806 1523.86 93.1127 1508.55 91.4645 1492.27 C 92.5506 1490.87 100.04 1479.94 100.648 1479.74 C 109.028 1477.36 118.113 1477.12 124.532 1470.97 C 134.219 1461.71 124.128 1450.62 136.561 1447.66 C 154.525 1443.4 157.483 1428.82 153.307 1411.96 C 153.469 1410.73 153.622 1409.73 153.827 1408.52 C 162.976 1408.51 165.246 1408.68 172.93 1403.28 z" fill="rgb(215,149,126)" transform="translate(0,0)"></path>
<path d="M 172.93 1403.28 C 173.438 1405.19 173.821 1406.83 174.225 1408.76 C 163.403 1412.12 165.064 1412.36 153.307 1411.96 C 153.469 1410.73 153.622 1409.73 153.827 1408.52 C 162.976 1408.51 165.246 1408.68 172.93 1403.28 z" fill="rgb(49,33,27)" transform="translate(0,0)"></path>
<path d="M 171.622 1366.77 C 176.152 1373.94 176.601 1379.48 179.42 1385.68 C 178.345 1398.47 177.14 1394.98 172.93 1403.28 C 165.246 1408.68 162.976 1408.51 153.827 1408.52 C 151.814 1406.62 150.986 1405.74 149.174 1403.64 C 146.654 1398.18 140.643 1390.22 138.514 1385.05 C 153.309 1372.74 157.483 1375.21 171.622 1366.77 z" fill="rgb(200,119,96)" transform="translate(0,0)"></path>
<path d="M 149.174 1403.64 C 154.09 1397.66 172.245 1388.28 179.42 1385.68 C 178.345 1398.47 177.14 1394.98 172.93 1403.28 C 165.246 1408.68 162.976 1408.51 153.827 1408.52 C 151.814 1406.62 150.986 1405.74 149.174 1403.64 z" fill="rgb(215,149,126)" transform="translate(0,0)"></path>
<path d="M 175.949 1672.41 C 178.73 1671.57 214.371 1666.34 219.359 1665.84 C 244.395 1663.34 281.764 1654.79 305.893 1654.1 C 308.496 1655.86 308.41 1657.13 309.836 1660.37 C 301.962 1666.25 196.659 1676.75 179.351 1680.07 C 177.566 1680.41 175.825 1678.18 174.887 1676.73 L 175.949 1672.41 z" fill="rgb(28,25,25)" transform="translate(0,0)"></path>
<path d="M 283.677 1473.13 L 284.952 1472.73 C 285.952 1475.26 287.094 1477.77 287.526 1480.44 C 269.415 1482.93 243.762 1528.33 240.889 1544.94 C 239.739 1551.58 238.621 1564.49 235.507 1569.89 C 232.579 1571.35 234.024 1571.25 231.053 1570.45 C 230.44 1569.79 229.002 1568.26 228.951 1567.32 C 227.425 1538.81 257.225 1480.35 283.677 1473.13 z" fill="rgb(28,25,25)" transform="translate(0,0)"></path>
<path d="M 328.9 1339.32 C 333.89 1342.21 352.575 1367.82 358.813 1374.6 C 496.77 1412.77 427.987 1603.03 323.033 1541.16 C 322.864 1537.56 324.01 1525.75 324.334 1521.57 C 327.852 1519.42 331.873 1516.07 335.931 1513.51 C 345.741 1506.87 362.321 1492.43 372.018 1484.49 C 363.381 1472.87 346.926 1452.97 344.289 1439.48 C 333.704 1447.88 322.296 1457.3 311.48 1465.24 C 307.619 1468.05 291.71 1480.67 289.07 1481.48 L 287.526 1480.44 C 287.094 1477.77 285.952 1475.26 284.952 1472.73 C 275.674 1444.1 293.189 1384.29 300.458 1353.31 C 301.783 1349.11 323.814 1341.42 328.9 1339.32 z" fill="rgb(65,33,15)" transform="translate(0,0)"></path>
<path d="M 311.48 1465.24 C 307.647 1447.74 308.445 1433.21 317.938 1417.45 C 331.707 1394.59 358.101 1392.64 379.025 1406.74 C 408.761 1426.77 420.144 1476.33 399.299 1506.24 C 384.37 1527.78 359.763 1530.91 339 1515.83 C 337.963 1515.08 336.94 1514.3 335.931 1513.51 C 345.741 1506.87 362.321 1492.43 372.018 1484.49 C 363.381 1472.87 346.926 1452.97 344.289 1439.48 C 333.704 1447.88 322.296 1457.3 311.48 1465.24 z" fill="rgb(230,228,226)" transform="translate(0,0)"></path>
<path d="M 344.289 1439.48 C 350.171 1435.04 357.18 1429.07 364.992 1430.36 C 379.943 1432.83 390.174 1448.78 387.612 1463.43 C 385.873 1473.37 379.605 1478.88 372.018 1484.49 C 363.381 1472.87 346.926 1452.97 344.289 1439.48 z" fill="rgb(200,119,96)" transform="translate(0,0)"></path>
<path d="M 228.551 1281.98 C 235.405 1289.63 258.062 1306.67 260.671 1310.73 C 271.319 1322.77 285.361 1332.41 295.235 1344.14 C 273.655 1375.67 258.209 1417.64 251.553 1455.11 C 241.436 1448.62 223.457 1437.53 215.202 1429.76 C 214.849 1416.06 212.383 1397.54 213.075 1384.7 C 211.156 1379.16 187.012 1354.01 181.53 1347.93 C 189.068 1338.98 223.931 1291.24 228.551 1281.98 z" fill="rgb(255,255,255)" transform="translate(0,0)"></path>
<path d="M 228.551 1281.98 C 235.405 1289.63 258.062 1306.67 260.671 1310.73 C 252.717 1319.14 242.17 1327.96 235.486 1334.6 C 227.125 1342.91 218.764 1372.18 213.075 1384.7 C 211.156 1379.16 187.012 1354.01 181.53 1347.93 C 189.068 1338.98 223.931 1291.24 228.551 1281.98 z" fill="rgb(209,206,204)" transform="translate(0,0)"></path>
<path d="M 357.32 1742.67 C 354.825 1725.26 352.475 1707.83 350.268 1690.38 C 349.374 1683.57 342.536 1651.79 351.393 1650.96 C 357.879 1656.38 357.395 1672.3 358.617 1681.11 L 367.602 1745.88 C 373.911 1792.75 379.81 1839.67 385.299 1886.65 C 388.81 1914.34 394.328 1946.08 396.306 1973.64 C 397.053 1981.36 400.017 1992.9 396.919 1999.01 L 393.275 2001.97 C 388.368 1998 387.392 1979.4 386.499 1972.43 L 380.644 1926.42 C 373.366 1869.02 367.026 1809.59 358.721 1752.58 L 225.985 1765.49 C 204.597 1767.6 182.389 1769.91 160.908 1771.83 C 158.442 1772.05 157.052 1771.18 155.182 1769.76 L 154.978 1767.39 C 155.858 1765.27 156.173 1763.08 158.144 1762.77 C 174.61 1760.19 194.819 1758.52 211.126 1756.93 L 357.32 1742.67 z" fill="rgb(28,25,25)" transform="translate(0,0)"></path>
<path d="M 258.302 1242.8 C 267.55 1241.32 276.284 1247.51 277.946 1256.73 C 279.608 1265.94 273.587 1274.8 264.403 1276.64 C 258.302 1277.86 252.015 1275.69 247.966 1270.97 C 243.917 1266.24 242.737 1259.7 244.881 1253.85 C 247.024 1248.01 252.157 1243.78 258.302 1242.8 z" fill="rgb(28,25,25)" transform="translate(0,0)"></path>
<path d="M 257.705 1252.35 C 260.286 1251.05 263.366 1251.26 265.748 1252.89 C 268.131 1254.52 269.441 1257.32 269.171 1260.19 C 268.9 1263.07 267.092 1265.57 264.447 1266.73 C 260.501 1268.45 255.898 1266.72 254.07 1262.82 C 252.242 1258.92 253.854 1254.27 257.705 1252.35 z" fill="rgb(230,228,226)" transform="translate(0,0)"></path>
<path d="M 842.238 353.249 C 878.276 443.805 931.965 517.809 1020.95 562.789 C 1032.87 568.816 1045.04 576.299 1057.8 580.451 C 1064.01 582.468 1072.22 582.483 1079.15 584.074 C 1100.61 588.288 1119.48 600.941 1131.52 619.193 C 1157.28 657.574 1146.18 708.768 1108.55 734.611 C 1100.38 740.221 1090.31 742.502 1082.8 747.059 L 1079.38 744.92 C 1077.2 756.95 1066.94 765.841 1054.72 766.286 C 1042.5 766.732 1031.62 758.613 1028.57 746.774 C 1010.15 825.241 951.766 906.842 882.672 948.007 C 873.712 953.345 865.304 957.802 856.196 962.777 C 848.585 967.359 836.646 972.638 828.157 975.456 C 765.244 996.343 719.812 989.97 661.79 962.059 C 573.277 912.41 519.458 846.065 491.638 747.468 C 487.581 753.443 487.248 758.793 479.744 762.673 C 458.498 773.662 449.456 762.056 439.749 745.793 L 439.283 745.025 L 437.07 745.583 C 430.749 744.452 426.753 742.905 420.961 739.963 C 401.149 730.018 386.161 712.531 379.365 691.431 C 372.555 669.463 374.532 645.71 384.88 625.171 C 394.71 606.201 411.671 591.913 432.035 585.448 C 459.297 580.774 469.373 584.757 496.006 585.864 C 538.576 587.642 581.087 581.142 621.181 566.725 C 728.822 527.903 794.551 454.399 842.238 353.249 z" fill="rgb(215,149,126)" transform="translate(0,0)"></path>
<path d="M 439.283 745.025 C 441.599 703.029 495.18 703.992 491.638 747.468 C 487.581 753.443 487.248 758.793 479.744 762.673 C 458.498 773.662 449.456 762.056 439.749 745.793 L 439.283 745.025 z" fill="rgb(250,186,47)" transform="translate(0,0)"></path>
<path d="M 1028.57 746.774 C 1025.91 736.461 1029.8 725.57 1038.4 719.278 C 1046.99 712.987 1058.55 712.565 1067.57 718.213 C 1076.6 723.862 1081.28 734.441 1079.38 744.92 C 1077.2 756.95 1066.94 765.841 1054.72 766.286 C 1042.5 766.732 1031.62 758.613 1028.57 746.774 z" fill="rgb(250,186,47)" transform="translate(0,0)"></path>
<path d="M 665.523 801.339 C 673.993 802.777 676.66 815.533 681.172 822.937 C 718.947 884.921 814.433 881.954 845.787 815.336 C 848.38 809.826 848.556 804.785 854.24 802.028 C 857.845 802.46 856.269 801.762 859.018 804.432 C 860.245 807.783 859.636 808.623 858.595 812.28 C 856.842 817.346 853.691 824.083 850.988 828.648 C 836.937 851.968 814.156 868.711 787.705 875.159 C 759.484 882.035 729.682 877.189 705.094 861.726 C 687.079 850.588 670.1 831.44 663.199 810.014 C 662.04 806.419 663.68 804.285 665.523 801.339 z" fill="rgb(28,25,25)" transform="translate(0,0)"></path>
<path d="M 866.326 612.815 C 875.886 610.33 886.043 613.181 892.913 620.278 C 899.783 627.374 902.304 637.618 899.511 647.092 C 896.718 656.566 889.044 663.804 879.423 666.039 C 864.814 669.433 850.19 660.454 846.607 645.891 C 843.023 631.327 851.811 616.588 866.326 612.815 z" fill="rgb(28,25,25)" transform="translate(0,0)"></path>
<path d="M 636.906 612.713 C 646.451 610.291 656.561 613.205 663.353 620.335 C 670.146 627.466 672.566 637.705 669.685 647.122 C 666.803 656.539 659.068 663.67 649.448 665.778 C 634.908 668.965 620.499 659.901 617.075 645.415 C 613.651 630.929 622.477 616.374 636.906 612.713 z" fill="rgb(28,25,25)" transform="translate(0,0)"></path>
<path d="M 754.815 621.502 C 758.159 622.087 758.374 622.034 760.956 624.082 C 763.586 629.046 762.132 637.167 761.705 643.104 C 760.377 657.681 755.049 684.594 745.019 696.078 C 730.134 713.12 708.62 740.311 742.074 753.741 C 753.241 758.224 765.909 755.951 777.611 756.41 C 779.376 756.479 779.994 757.86 780.858 759.095 C 781.242 762.999 780.945 763.471 778.982 766.909 C 763.489 769.922 741.577 767.94 728.515 758.372 C 721.206 753.12 716.365 745.106 715.117 736.192 C 710.945 707.227 739.301 697.101 745.959 670.231 C 749.135 659.951 750.202 649.674 751.257 639.041 C 751.82 633.359 751.374 626.09 754.815 621.502 z" fill="rgb(28,25,25)" transform="translate(0,0)"></path>
<path d="M 445.596 629.21 C 460.457 628.137 475.948 631.212 481.73 648.503 C 482.839 654.264 476.543 656.241 473.443 651.576 C 464.883 638.696 457.626 637.963 444.089 640.484 C 432.48 646.49 432.761 646.533 428.085 658.889 C 422.044 674.851 411.985 659.927 421.748 646.649 C 429.711 635.817 431.924 633.108 445.596 629.21 z" fill="rgb(28,25,25)" transform="translate(0,0)"></path>
<path d="M 1067.91 628.3 C 1085.85 627.325 1100.99 640.66 1103.79 658.018 C 1104.39 661.777 1102.19 664.271 1098.39 664.49 C 1092.01 664.858 1094.03 655.004 1091.49 651.501 C 1088.83 647.017 1087.15 645.555 1083.19 642.173 L 1081.94 641.593 C 1070.15 636.039 1054.31 638.376 1048.47 651.876 C 1045.6 658.494 1033.62 652.296 1042.46 641.873 C 1050.85 631.973 1055 630.389 1067.91 628.3 z" fill="rgb(28,25,25)" transform="translate(0,0)"></path>
<path d="M 432.035 585.448 C 433.942 475.75 467.584 367.487 544.118 286.365 C 618.629 207.386 750.587 172.453 835.621 255.936 C 849.36 250.535 864.01 247.828 878.771 247.964 C 920.67 248.088 962.326 268.74 991.037 298.416 C 1062.76 372.549 1079.24 485.91 1079.15 584.074 C 1072.22 582.483 1064.01 582.468 1057.8 580.451 C 1045.04 576.299 1032.87 568.816 1020.95 562.789 C 931.965 517.809 878.276 443.805 842.238 353.249 C 794.551 454.399 728.822 527.903 621.181 566.725 C 581.087 581.142 538.576 587.642 496.006 585.864 C 469.373 584.757 459.297 580.774 432.035 585.448 z" fill="rgb(134,90,52)" transform="translate(0,0)"></path>
<path d="M 1062 1452.29 C 1089.6 1463.74 1117.03 1475.59 1144.7 1486.83 C 1156.39 1491.58 1165.14 1493.34 1176.73 1487.16 C 1179.1 1492 1180.19 1493.75 1183.31 1498.16 C 1182.54 1517.78 1178.72 1547.86 1175.83 1567.73 C 1190.06 1566.83 1301.29 1561.38 1304.19 1558.63 C 1304.29 1558.53 1304.33 1558.39 1304.39 1558.27 C 1315.92 1563.76 1349.33 1545.23 1357.94 1570.86 C 1362.56 1584.63 1367.26 1611.75 1363.57 1626.48 C 1361.65 1631.83 1357.19 1636.29 1353.32 1639.96 L 1392.49 1872.49 C 1401.79 1931.03 1410.07 1989.6 1420.58 2048 L 1115.89 2048 C 1115.67 2040.13 1114.28 2007.34 1116.2 2002.17 C 1112.83 2001.26 1112.49 2001.32 1110.19 1998.89 C 1107.61 1992.01 1110.85 1973.55 1111.75 1965.39 L 1111.2 1965.75 L 1110.34 1965.13 C 1109.24 1956.23 1109.23 1947.5 1108.55 1938.56 C 1105.83 1902.78 1103.79 1867.08 1100.53 1831.33 C 1093.8 1760.34 1086.62 1689.4 1078.98 1618.5 C 1073.28 1562.7 1068.63 1508.25 1062 1452.29 z" fill="rgb(230,228,226)" transform="translate(0,0)"></path>
<path d="M 1111.75 1965.39 C 1117.95 1886.65 1126.28 1806.12 1133.51 1727.4 L 1142.19 1632.91 C 1143.21 1621.52 1146.04 1573.8 1150.47 1567.28 L 1152.63 1566.31 C 1157.86 1570.52 1157.01 1579.44 1156.45 1585.52 C 1154.27 1609.05 1151.52 1632.68 1149.72 1656.23 C 1187.1 1651.38 1231.39 1648.35 1269.19 1645.08 C 1282.37 1643.98 1295.54 1642.81 1308.7 1641.56 C 1317.46 1640.65 1333.13 1637.72 1341.08 1639.9 L 1342.98 1641.59 C 1342.78 1643.69 1342.26 1646.06 1340.35 1646.96 C 1333.2 1650.31 1311.28 1650.9 1304.01 1651.59 L 1200.18 1661.17 C 1185.68 1662.52 1162.73 1663.97 1148.86 1666.24 C 1145.42 1697.34 1143.21 1729.23 1140.45 1760.43 L 1130.9 1861.29 C 1129.4 1878.13 1120.62 1993.74 1116.2 2002.17 C 1112.83 2001.26 1112.49 2001.32 1110.19 1998.89 C 1107.61 1992.01 1110.85 1973.55 1111.75 1965.39 z" fill="rgb(28,25,25)" transform="translate(0,0)"></path>
<path d="M 1030.49 1155 C 1059.51 1168.83 1085.58 1181.55 1112.73 1198.99 C 1115.33 1200.65 1126.34 1206.43 1127.27 1207.26 C 1112.98 1215.48 1123.72 1220.16 1134 1223.97 C 1142.29 1227.04 1150.39 1230.57 1158.95 1232.95 C 1166.62 1224.08 1173.43 1226.33 1183.78 1228.54 C 1185.61 1228.88 1187.12 1228.97 1188.85 1229.59 C 1194.12 1230.05 1195.67 1230.08 1201.01 1229.71 C 1205.99 1230.62 1211.96 1232.24 1216.78 1232.24 C 1221.91 1233.54 1266.42 1242.19 1269.22 1242.08 L 1269.93 1242.35 C 1279.7 1246.12 1290.73 1247.95 1300.11 1252.45 C 1324.66 1264.23 1338.02 1294.78 1337.28 1320.94 C 1336.48 1349.01 1330.89 1377.04 1326.86 1404.78 C 1319.8 1456.01 1312.31 1507.17 1304.39 1558.27 C 1304.33 1558.39 1304.29 1558.53 1304.19 1558.63 C 1301.29 1561.38 1190.06 1566.83 1175.83 1567.73 C 1178.72 1547.86 1182.54 1517.78 1183.31 1498.16 C 1180.19 1493.75 1179.1 1492 1176.73 1487.16 C 1165.14 1493.34 1156.39 1491.58 1144.7 1486.83 C 1117.03 1475.59 1089.6 1463.74 1062 1452.29 C 1055.49 1449.66 1042.11 1445.96 1044.47 1436.9 C 1049.37 1431.58 1053.97 1432.7 1060.02 1434.47 C 1055.39 1406.45 1052.96 1366.51 1049.91 1337.37 L 1030.49 1155 z" fill="rgb(215,149,126)" transform="translate(0,0)"></path>
<path d="M 1030.49 1155 C 1059.51 1168.83 1085.58 1181.55 1112.73 1198.99 C 1115.33 1200.65 1126.34 1206.43 1127.27 1207.26 C 1112.98 1215.48 1123.72 1220.16 1134 1223.97 C 1142.29 1227.04 1150.39 1230.57 1158.95 1232.95 C 1153.36 1243.21 1154.4 1240.58 1153.88 1252.31 C 1145.63 1249.63 1116.26 1238.15 1111.65 1247.36 C 1114.53 1257.69 1145.98 1266.81 1156.25 1268.94 L 1159.96 1269.93 C 1163.66 1270.14 1172.37 1271.32 1175.75 1272.43 C 1174.92 1273.33 1174.17 1274.07 1174.41 1275.44 C 1176.58 1287.89 1171.67 1299.91 1169.45 1311.84 L 1148.68 1309.71 C 1140.73 1310.63 1136.94 1310.33 1131.56 1316.38 L 1130.84 1317.39 C 1130.15 1318.82 1123.57 1328.95 1122.47 1330.12 C 1120.98 1339.12 1124.89 1346.83 1124.01 1350.67 C 1115.31 1347.86 1092.33 1338.82 1085.26 1342.27 C 1077.25 1354.83 1110.09 1361.12 1118.29 1364.42 C 1120.14 1363.97 1124.88 1361.89 1126.02 1361.93 C 1131.5 1362.13 1139.64 1362.91 1145.07 1363.62 C 1144.13 1383.92 1140.56 1384.43 1137.89 1399.12 C 1153.57 1401.02 1221.88 1408.82 1230.93 1420.33 L 1230.81 1423.15 C 1225.61 1427.05 1213.29 1421.87 1207.08 1419.96 C 1203.29 1431.05 1199.71 1443.11 1196.56 1454.41 C 1191.76 1471.58 1190.22 1476.23 1176.73 1487.16 C 1165.14 1493.34 1156.39 1491.58 1144.7 1486.83 C 1117.03 1475.59 1089.6 1463.74 1062 1452.29 C 1055.49 1449.66 1042.11 1445.96 1044.47 1436.9 C 1049.37 1431.58 1053.97 1432.7 1060.02 1434.47 C 1055.39 1406.45 1052.96 1366.51 1049.91 1337.37 L 1030.49 1155 z" fill="rgb(230,228,226)" transform="translate(0,0)"></path>
<path d="M 1118.29 1364.42 C 1120.14 1363.97 1124.88 1361.89 1126.02 1361.93 C 1131.5 1362.13 1139.64 1362.91 1145.07 1363.62 C 1144.13 1383.92 1140.56 1384.43 1137.89 1399.12 C 1153.57 1401.02 1221.88 1408.82 1230.93 1420.33 L 1230.81 1423.15 C 1225.61 1427.05 1213.29 1421.87 1207.08 1419.96 C 1203.29 1431.05 1199.71 1443.11 1196.56 1454.41 C 1191.76 1471.58 1190.22 1476.23 1176.73 1487.16 C 1165.14 1493.34 1156.39 1491.58 1144.7 1486.83 C 1117.03 1475.59 1089.6 1463.74 1062 1452.29 C 1055.49 1449.66 1042.11 1445.96 1044.47 1436.9 C 1049.37 1431.58 1053.97 1432.7 1060.02 1434.47 C 1081.77 1439.82 1116.19 1449.72 1138.91 1453.14 C 1141.09 1453.47 1141.91 1451.64 1143.11 1450.01 C 1143.91 1431.83 1063.16 1424.06 1066.12 1406.05 C 1078.68 1394.7 1145.17 1434.35 1152.95 1417.49 C 1150.7 1404.17 1088.96 1393.61 1076.95 1382.34 C 1074.85 1380.37 1074.7 1379.31 1074.7 1376.52 C 1080.45 1367.82 1100.86 1377.18 1109.17 1379.89 C 1111.63 1378.31 1117.6 1367.11 1118.29 1364.42 z" fill="rgb(65,33,15)" transform="translate(0,0)"></path>
<path d="M 1118.29 1364.42 C 1120.14 1363.97 1124.88 1361.89 1126.02 1361.93 C 1131.5 1362.13 1139.64 1362.91 1145.07 1363.62 C 1144.13 1383.92 1140.56 1384.43 1137.89 1399.12 C 1129.75 1398.19 1124.87 1397.39 1117.09 1395.03 C 1115.08 1391.28 1111.74 1380.7 1109.17 1379.89 C 1111.63 1378.31 1117.6 1367.11 1118.29 1364.42 z" fill="rgb(200,119,96)" transform="translate(0,0)"></path>
<path d="M 1156.25 1268.94 L 1159.96 1269.93 C 1163.66 1270.14 1172.37 1271.32 1175.75 1272.43 C 1174.92 1273.33 1174.17 1274.07 1174.41 1275.44 C 1176.58 1287.89 1171.67 1299.91 1169.45 1311.84 L 1148.68 1309.71 C 1148.37 1307.33 1143.95 1303.18 1142.04 1301.79 C 1143.17 1299.32 1142.14 1285.02 1141.09 1283.57 C 1144.96 1279.75 1145.93 1274.51 1153.78 1272.5 L 1156.25 1268.94 z" fill="rgb(200,119,96)" transform="translate(0,0)"></path>
<path d="M 1156.25 1268.94 L 1159.96 1269.93 C 1157.56 1271.08 1156.3 1271.63 1153.78 1272.5 L 1156.25 1268.94 z" fill="rgb(209,206,204)" transform="translate(0,0)"></path>
<path d="M 1142.04 1301.79 C 1133.39 1297.82 1088.22 1286.87 1104.84 1275.65 C 1107.07 1274.15 1135.86 1282.37 1141.09 1283.57 C 1142.14 1285.02 1143.17 1299.32 1142.04 1301.79 z" fill="rgb(65,33,15)" transform="translate(0,0)"></path>
<path d="M 1122.47 1330.12 C 1113.62 1326.24 1098.99 1322.6 1092.49 1316.52 C 1090.08 1309.6 1095.32 1307.11 1101.07 1308.53 C 1110.86 1310.96 1121.71 1314.56 1130.84 1317.39 C 1130.15 1318.82 1123.57 1328.95 1122.47 1330.12 z" fill="rgb(65,33,15)" transform="translate(0,0)"></path>
<path d="M 1156.25 1268.94 C 1145.98 1266.81 1114.53 1257.69 1111.65 1247.36 C 1116.26 1238.15 1145.63 1249.63 1153.88 1252.31 C 1162.59 1261.67 1165.09 1263.01 1178.13 1264.59 C 1215.14 1270.84 1248.85 1275.02 1284.7 1287.32 C 1289.33 1288.91 1293.07 1289.3 1292.54 1295.16 C 1290.81 1296.53 1289.74 1297.57 1287 1296.95 C 1272.57 1293.7 1252.51 1285.71 1238.47 1282.95 C 1218.49 1279.02 1196 1275.84 1175.75 1272.43 C 1172.37 1271.32 1163.66 1270.14 1159.96 1269.93 L 1156.25 1268.94 z" fill="rgb(49,33,27)" transform="translate(0,0)"></path>
<path d="M 1118.29 1364.42 C 1110.09 1361.12 1077.25 1354.83 1085.26 1342.27 C 1092.33 1338.82 1115.31 1347.86 1124.01 1350.67 C 1130.26 1353.9 1144.13 1355.52 1151.37 1355.93 C 1188.41 1360.46 1220.38 1364.31 1255.7 1377.41 C 1257.81 1378.19 1259.83 1380.59 1261.06 1382.34 L 1260.66 1383.88 C 1251.54 1387.2 1231.34 1378.89 1221.55 1375.9 C 1196.52 1368.27 1171.06 1366.63 1145.07 1363.62 C 1139.64 1362.91 1131.5 1362.13 1126.02 1361.93 C 1124.88 1361.89 1120.14 1363.97 1118.29 1364.42 z" fill="rgb(49,33,27)" transform="translate(0,0)"></path>
<path d="M 1148.68 1309.71 L 1169.45 1311.84 C 1187.33 1313.74 1206.01 1315.31 1223.73 1318.21 C 1235.09 1320.06 1246.97 1324.6 1258.02 1327.77 C 1264.35 1329.79 1276.49 1330.17 1279.05 1337.32 L 1278.33 1338.97 C 1267.63 1342.65 1234.19 1328.12 1221.71 1326.26 C 1199.18 1322.89 1176.29 1320.93 1153.65 1318.6 C 1148.5 1316.48 1135.37 1318.9 1131.56 1316.38 C 1136.94 1310.33 1140.73 1310.63 1148.68 1309.71 z" fill="rgb(28,25,25)" transform="translate(0,0)"></path>
<path d="M 1131.56 1316.38 C 1135.37 1318.9 1148.5 1316.48 1153.65 1318.6 C 1149.17 1320.45 1155.6 1322.99 1155.27 1327.97 C 1154.64 1337.39 1152.64 1346.51 1151.37 1355.93 C 1144.13 1355.52 1130.26 1353.9 1124.01 1350.67 C 1124.89 1346.83 1120.98 1339.12 1122.47 1330.12 C 1123.57 1328.95 1130.15 1318.82 1130.84 1317.39 L 1131.56 1316.38 z" fill="rgb(200,119,96)" transform="translate(0,0)"></path>
<path d="M 1158.95 1232.95 C 1166.62 1224.08 1173.43 1226.33 1183.78 1228.54 C 1185.61 1228.88 1187.12 1228.97 1188.85 1229.59 C 1188.21 1231.88 1188.26 1232.69 1187.96 1234.99 C 1186.64 1245.42 1181.28 1254.82 1178.13 1264.59 C 1165.09 1263.01 1162.59 1261.67 1153.88 1252.31 C 1154.4 1240.58 1153.36 1243.21 1158.95 1232.95 z" fill="rgb(200,119,96)" transform="translate(0,0)"></path>
<path d="M 1079.38 744.92 L 1082.8 747.059 C 1083.93 768.663 1084.71 806.958 1094.55 824.699 C 1113.98 859.743 1149.25 868.758 1140.93 918.448 C 1134.82 954.919 1107.51 976.504 1070.54 979.334 C 1046.22 980.863 1027.33 968.795 1009.75 952.912 C 1006.19 970.962 993.663 990.031 978.028 999.52 C 932.852 1026.94 884.435 1012.51 858.689 968.839 L 856.196 962.777 C 865.304 957.802 873.712 953.345 882.672 948.007 C 951.766 906.842 1010.15 825.241 1028.57 746.774 C 1031.62 758.613 1042.5 766.732 1054.72 766.286 C 1066.94 765.841 1077.2 756.95 1079.38 744.92 z" fill="rgb(134,90,52)" transform="translate(0,0)"></path>
<path d="M 439.283 745.025 L 439.749 745.793 C 449.456 762.056 458.498 773.662 479.744 762.673 C 487.248 758.793 487.581 753.443 491.638 747.468 C 519.458 846.065 573.277 912.41 661.79 962.059 C 660.746 965.075 659.801 967.999 658.503 970.918 C 655.523 975.62 652.897 979.359 649.411 983.75 C 616.391 1025.34 548.03 1022.74 519.593 977.373 C 514.883 969.858 512.572 963.484 509.55 955.088 C 492.841 969.848 478.674 979.573 455.289 979.402 C 413.844 979.1 379.107 946.663 379.872 904.497 C 380.336 878.887 394.411 862.026 412.384 845.83 C 438.602 822.206 436.686 778.067 437.07 745.583 L 439.283 745.025 z" fill="rgb(134,90,52)" transform="translate(0,0)"></path>
<path d="M 1216.78 1232.24 C 1217.84 1229.1 1219.24 1226.49 1218.34 1223.51 C 1207.09 1213.5 1169.66 1205.14 1154.52 1198.15 C 1146.56 1194.46 1133.41 1193.46 1130.62 1183.37 C 1131.24 1180.05 1130.42 1181.42 1133.42 1179.33 C 1148.87 1176.85 1203.45 1200.82 1222.72 1201.79 C 1225.01 1201.91 1225.89 1200.64 1227.64 1199.27 C 1229.18 1195.45 1229.18 1196.91 1228.48 1193.18 C 1224.07 1187.68 1214.3 1186.07 1207.57 1183.68 L 1163.35 1167.77 C 1156.05 1165.21 1138.75 1161.33 1138.96 1151.8 C 1150.57 1141.4 1223.78 1175.35 1235.89 1172.68 C 1247.59 1160.71 1222.13 1156.76 1215.39 1153.57 C 1203.21 1147.81 1157.08 1135.47 1149.8 1127 C 1149.29 1123.11 1148.96 1124.64 1150.75 1121.24 C 1155.57 1118.48 1161.2 1119.71 1166.32 1121.06 C 1178.73 1124.34 1239.44 1145.35 1246.41 1140.9 C 1247.7 1140.08 1247.65 1139.44 1248.19 1138.08 C 1246.64 1133.3 1245.62 1132.92 1240.99 1130.31 C 1228.27 1123.13 1162.74 1106.98 1158.41 1095.6 C 1158.82 1091.72 1158.13 1093.1 1160.74 1090.42 C 1171.48 1086.83 1220.37 1106.96 1234.89 1109.23 C 1243.01 1110.51 1250.37 1117.24 1256.63 1109.97 C 1256.94 1107.6 1257.04 1106.51 1255.37 1104.62 C 1244.47 1092.24 1168.5 1080.55 1167.87 1063.52 C 1169.01 1061.9 1169.65 1060.34 1171.93 1060.31 C 1186.28 1060.14 1254.05 1085.4 1263.34 1083.22 C 1265.82 1079.96 1265.11 1081.48 1265.69 1077.03 C 1263.72 1072.81 1259.5 1071.78 1255.35 1070.28 C 1243.4 1065.96 1182.11 1047.15 1177.97 1038.8 C 1176.89 1036.64 1177.44 1035.91 1178.08 1033.8 C 1180.78 1031.36 1181.14 1031.19 1184.93 1031.42 C 1199.69 1032.3 1268.04 1058.4 1273.99 1053.19 C 1275.18 1052.14 1275.77 1050.45 1276.37 1049.02 C 1276.04 1041.5 1257.98 1039.05 1250.8 1035.93 C 1231.23 1027.44 1208.79 1022.17 1190.05 1011.84 C 1187.75 1010.58 1187.41 1008.17 1186.98 1006.05 C 1188.39 1002.43 1187.36 1003.63 1190.63 1001.61 C 1205.5 1000.67 1272.5 1028.11 1283.29 1023.87 C 1285.68 1020.68 1284.99 1022.01 1285.39 1017.68 C 1280.38 1006 1207.67 991.604 1197.36 978.918 C 1196.46 975.224 1196.23 976.896 1197.72 973.694 C 1201.47 971.235 1206.48 972.019 1210.67 972.884 C 1222.49 975.325 1287.45 997.126 1294.41 992.611 C 1295.84 991.687 1295.7 991.225 1296.25 989.72 C 1292.83 974.356 1210.74 960.874 1205.58 945.744 C 1206.07 943.854 1205.94 942.913 1207.78 941.909 C 1218.83 935.878 1291.26 967.228 1301.86 962.948 C 1304.36 961.936 1304.46 960.634 1305.34 958.366 C 1303.3 948.526 1280.96 944.541 1272.83 939.885 C 1261.56 933.431 1216.36 921.443 1213.22 910.445 C 1213.93 907.206 1213.98 907.118 1216.55 904.886 C 1222.9 902.59 1244.04 908.874 1251.25 910.912 C 1279.52 918.911 1309 924.284 1336.85 933.416 C 1347.67 936.962 1355.05 957.065 1352.82 967.527 C 1350.19 979.881 1346.16 992.137 1342.42 1004.2 L 1323.68 1064.69 C 1305.79 1122.63 1287.97 1184.64 1269.22 1242.08 C 1266.42 1242.19 1221.91 1233.54 1216.78 1232.24 z" fill="rgb(65,33,15)" transform="translate(0,0)"></path>
<path d="M 112.731 1350.59 C 115.349 1335.01 124.751 1319.69 144.072 1325.15 C 157.709 1329.01 164.096 1346.85 169.998 1358.66 C 169.323 1362.47 170.156 1362.81 171.622 1366.77 C 157.483 1375.21 153.309 1372.74 138.514 1385.05 C 140.643 1390.22 146.654 1398.18 149.174 1403.64 C 150.986 1405.74 151.814 1406.62 153.827 1408.52 C 153.622 1409.73 153.469 1410.73 153.307 1411.96 C 157.483 1428.82 154.525 1443.4 136.561 1447.66 C 124.128 1450.62 134.219 1461.71 124.532 1470.97 C 118.113 1477.12 109.028 1477.36 100.648 1479.74 C 100.04 1479.94 92.5506 1490.87 91.4645 1492.27 L 88.3676 1489.49 C 83.9679 1492.62 77.2622 1496.88 72.661 1492.15 L 72.2171 1492.25 C 69.9753 1493.67 69.7157 1493.75 67.1781 1494.71 C 64.338 1497.71 63.2673 1499.16 62.5443 1503.13 C 54.2208 1511.74 44.1407 1510.58 35.1049 1503.55 C 32.3249 1500.77 30.4818 1498.78 27.9815 1495.72 C 18.1985 1484.88 5.98398 1472.47 0 1459.43 L 0 1453.31 C 6.99887 1428.74 9.69604 1438.14 23.0759 1426.95 C 26.0078 1424.5 18.9493 1405.75 43.6903 1399.53 L 48.8677 1397.52 C 48.1619 1381.85 57.7423 1370.91 73.6223 1370.86 L 77.1292 1366.6 C 76.3855 1347.61 100.157 1348.25 112.731 1350.59 z" fill="rgb(28,25,25)" transform="translate(0,0)"></path>
<path d="M 0 1453.31 C 6.99887 1428.74 9.69604 1438.14 23.0759 1426.95 C 26.0078 1424.5 18.9493 1405.75 43.6903 1399.53 C 44.2034 1406.61 72.4577 1446.33 78.5718 1455.69 C 81.4626 1459.68 89.6792 1473.37 93.3252 1474.88 C 96.747 1480.19 91.8047 1484.82 88.3676 1489.49 C 83.9679 1492.62 77.2622 1496.88 72.661 1492.15 L 72.2171 1492.25 C 69.9753 1493.67 69.7157 1493.75 67.1781 1494.71 C 64.338 1497.71 63.2673 1499.16 62.5443 1503.13 C 54.2208 1511.74 44.1407 1510.58 35.1049 1503.55 C 32.3249 1500.77 30.4818 1498.78 27.9815 1495.72 C 18.1985 1484.88 5.98398 1472.47 0 1459.43 L 0 1453.31 z" fill="rgb(215,149,126)" transform="translate(0,0)"></path>
<path d="M 50.8703 1474.45 C 52.6871 1476.9 63.8763 1491.81 64.4528 1493.13 L 67.1781 1494.71 C 64.338 1497.71 63.2673 1499.16 62.5443 1503.13 C 54.2208 1511.74 44.1407 1510.58 35.1049 1503.55 C 32.3249 1500.77 30.4818 1498.78 27.9815 1495.72 C 31.0946 1484.91 42.0452 1480.25 50.8703 1474.45 z" fill="rgb(200,119,96)" transform="translate(0,0)"></path>
<path d="M 64.4528 1493.13 L 67.1781 1494.71 C 64.338 1497.71 63.2673 1499.16 62.5443 1503.13 C 54.2208 1511.74 44.1407 1510.58 35.1049 1503.55 C 36.0917 1503.65 38.2602 1503.89 39.0897 1504.14 C 55.0609 1508.84 58.3597 1495.17 64.4528 1493.13 z" fill="rgb(215,149,126)" transform="translate(0,0)"></path>
<path d="M 78.5718 1455.69 C 81.4626 1459.68 89.6792 1473.37 93.3252 1474.88 C 96.747 1480.19 91.8047 1484.82 88.3676 1489.49 C 83.9679 1492.62 77.2622 1496.88 72.661 1492.15 L 72.2171 1492.25 C 67.8031 1486.03 62.3666 1479.13 57.7225 1472.88 C 65.0016 1470.51 74.1443 1461.91 78.5718 1455.69 z" fill="rgb(200,119,96)" transform="translate(0,0)"></path>
<path d="M 93.3252 1474.88 C 96.747 1480.19 91.8047 1484.82 88.3676 1489.49 C 83.9679 1492.62 77.2622 1496.88 72.661 1492.15 C 75.0993 1488.33 89.0321 1477.17 93.3252 1474.88 z" fill="rgb(215,149,126)" transform="translate(0,0)"></path>
<path d="M 50.8703 1474.45 C 42.2658 1462.54 29.0691 1447.98 21.8791 1435 C 21.1419 1433.67 24.3902 1430.76 25.028 1431.47 C 36.4168 1444.11 47.5783 1458.93 57.7225 1472.88 C 62.3666 1479.13 67.8031 1486.03 72.2171 1492.25 C 69.9753 1493.67 69.7157 1493.75 67.1781 1494.71 L 64.4528 1493.13 C 63.8763 1491.81 52.6871 1476.9 50.8703 1474.45 z" fill="rgb(28,25,25)" transform="translate(0,0)"></path>
<path d="M 112.731 1350.59 C 115.349 1335.01 124.751 1319.69 144.072 1325.15 C 157.709 1329.01 164.096 1346.85 169.998 1358.66 C 169.323 1362.47 170.156 1362.81 171.622 1366.77 C 157.483 1375.21 153.309 1372.74 138.514 1385.05 C 134.388 1377.95 122.176 1354.68 116.637 1351.36 L 114.443 1351.19 C 111.732 1356.72 138.1 1397.58 142.907 1404.37 C 129.477 1406.54 122.188 1412.65 111.673 1420.18 C 107.677 1412.92 81.6263 1370.38 77.1292 1366.6 C 76.3855 1347.61 100.157 1348.25 112.731 1350.59 z" fill="rgb(215,149,126)" transform="translate(0,0)"></path>
<path d="M 48.8677 1397.52 C 48.1619 1381.85 57.7423 1370.91 73.6223 1370.86 C 77.7264 1380.75 104.752 1421.04 112.411 1432.82 C 106.052 1436.24 89.598 1446.53 82.8792 1450.96 C 75.2105 1439.37 67.7229 1427.66 60.419 1415.84 C 57.6771 1411.42 51.8354 1400.59 48.8677 1397.52 z" fill="rgb(215,149,126)" transform="translate(0,0)"></path>
<path d="M 142.907 1404.37 C 145.279 1408.44 148.414 1409.65 147.535 1413.29 C 147.191 1414.72 148.601 1419.82 148.977 1421.43 L 149.255 1422.65 C 142.033 1426.91 135.811 1433.97 126.994 1435.19 C 124.859 1435.48 123.757 1436.39 121.97 1437.45 C 119.995 1434.58 112.936 1423.02 111.673 1420.18 C 122.188 1412.65 129.477 1406.54 142.907 1404.37 z" fill="rgb(200,119,96)" transform="translate(0,0)"></path>
<path d="M 82.8792 1450.96 C 89.598 1446.53 106.052 1436.24 112.411 1432.82 C 114.45 1435.86 120.411 1446.71 122.806 1447.96 C 118.543 1450.38 115.913 1453.55 111.572 1456.57 C 105.703 1460.64 98.0352 1463.31 92.6507 1467.18 C 90.4861 1462.87 85.6592 1455.2 82.8792 1450.96 z" fill="rgb(200,119,96)" transform="translate(0,0)"></path>
<path d="M 92.6507 1467.18 C 98.0352 1463.31 105.703 1460.64 111.572 1456.57 C 115.913 1453.55 118.543 1450.38 122.806 1447.96 C 129.162 1469.45 104.708 1484.8 92.6507 1467.18 z" fill="rgb(215,149,126)" transform="translate(0,0)"></path>
<path d="M 121.97 1437.45 C 123.757 1436.39 124.859 1435.48 126.994 1435.19 C 135.811 1433.97 142.033 1426.91 149.255 1422.65 C 148.406 1437.74 134.585 1454.67 122.626 1438.32 L 121.97 1437.45 z" fill="rgb(215,149,126)" transform="translate(0,0)"></path>
<path d="M 265.761 1176.3 C 275.274 1155.36 283.225 1128.44 290.982 1106.35 L 322.748 1018.32 C 329.513 999.31 336.534 977.461 343.661 958.938 C 363.117 997.422 360.658 995.329 351.912 1036.82 L 339.937 1093.44 C 330.948 1136.78 321.63 1180.05 311.985 1223.24 C 308.45 1239.42 305.308 1258.29 301.357 1273.89 C 299.594 1270.5 291.744 1247.81 290.006 1242.92 C 282.366 1221.43 272.289 1197.94 265.761 1176.3 z" fill="rgb(183,176,172)" transform="translate(0,0)"></path>
<path d="M 1127.27 1207.26 C 1144.18 1213.78 1168.04 1219.29 1185.99 1225.44 L 1183.78 1228.54 C 1173.43 1226.33 1166.62 1224.08 1158.95 1232.95 C 1150.39 1230.57 1142.29 1227.04 1134 1223.97 C 1123.72 1220.16 1112.98 1215.48 1127.27 1207.26 z" fill="rgb(65,33,15)" transform="translate(0,0)"></path>
<path d="M 1185.99 1225.44 C 1190.93 1226.48 1196.17 1228.2 1201.01 1229.71 C 1195.67 1230.08 1194.12 1230.05 1188.85 1229.59 C 1187.12 1228.97 1185.61 1228.88 1183.78 1228.54 L 1185.99 1225.44 z" fill="rgb(49,33,27)" transform="translate(0,0)"></path>
<metadata><recraft-signature>{"signed_by": "recraft", "signature_b64": "/+zRTpUOFPTQie68NdRqy0oWzvuCFt/FH/gpVbCaJb5jYDMmQ5GkApCzahddyzurNqhvFxKbWtINMYVfGBjVAA==", "signing_algo": "Ed25519", "generation_timestamp": 1779106386, "identifier": "457695c9-3ec4-4a50-a1f2-3ddaa53fcedc"}</recraft-signature></metadata></svg>