<svg xmlns="http://www.w3.org/2000/svg" height="1024" preserveAspectRatio="none" style="display: block;" version="1.1" viewBox="0 0 2048 2048" width="1024">
<defs>
	<linearGradient gradientUnits="userSpaceOnUse" id="Gradient1" x1="1786.67" x2="1294.67" y1="1164.81" y2="1149.84">
		<stop class="stop0" offset="0" stop-color="rgb(244,145,5)" stop-opacity="1"></stop>
		<stop class="stop1" offset="1" stop-color="rgb(255,221,21)" stop-opacity="1"></stop>
	</linearGradient>
</defs>
<path d="M 0 0 L 2048 0 L 2048 2048 L 0 2048 L 0 0 z" fill="rgb(255,255,255)" transform="translate(0,0)"></path>
<path d="M 980.085 214.644 C 1007.01 194.563 1047.73 189.717 1080.23 195.263 C 1236.74 221.969 1285.55 393.717 1264.97 531.131 C 1253.86 605.298 1233.19 659.775 1203.14 727.277 C 1234.15 726.989 1265.16 726.948 1296.17 727.153 C 1319.09 727.307 1344.68 727.998 1367.61 726.822 C 1413.3 682.75 1456.99 635.832 1502.26 591.01 C 1527.74 565.778 1544.6 547.178 1584.53 548.114 C 1621.42 548.98 1637.7 565.185 1662.38 589.81 C 1672.68 599.932 1682.83 610.201 1692.83 620.614 C 1709.69 638.512 1721.65 656.753 1720.69 682.282 C 1720.25 693.969 1717.23 707.156 1711.55 717.411 C 1701.64 735.328 1648.98 785.27 1631.87 800.933 L 1629.93 802.696 C 1648.11 803.724 1664.88 804.175 1682.14 810.668 C 1780.7 847.747 1799.23 972.754 1721.77 1040.73 C 1718.83 1043.31 1715.85 1045.87 1712.86 1048.4 C 1745.64 1064.16 1768.83 1092.82 1780.79 1126.9 C 1793.26 1161.5 1791.24 1199.66 1775.2 1232.76 C 1756.9 1270.57 1728.42 1290.79 1689.58 1304.16 C 1688.3 1304.61 1687.01 1305.04 1685.72 1305.45 C 1743.18 1355.32 1749.78 1438.66 1699.67 1496.25 C 1691.95 1505.12 1682.82 1512.1 1675.08 1520.47 C 1698.7 1542.7 1716.02 1560.94 1717.4 1594.93 C 1719.4 1636.24 1691.02 1657.65 1664.7 1684.61 C 1642.22 1707.64 1626.75 1721.73 1592.32 1723.48 C 1540.23 1726.14 1512.68 1675.7 1477.52 1645.54 C 1471.52 1640.39 1463.24 1631.87 1457.67 1625.99 C 1445.39 1625.02 1430.22 1625.41 1417.71 1625.41 L 1356.79 1625.33 L 1116 1625.38 C 1083.91 1625.11 1045.49 1625.99 1013.83 1623.72 C 976.43 1620.77 939.255 1615.48 902.519 1607.89 C 880.971 1603.45 859.686 1597.95 838.099 1593.57 C 806.798 1623.12 777.596 1656.43 745.974 1685.98 C 721.136 1709.19 702.997 1724.95 666.917 1724.22 C 630.569 1723.49 611.644 1700.6 588.333 1676.22 C 579.926 1667.38 570.691 1659.25 562.376 1650.38 C 547.204 1634.37 539.195 1612.88 540.188 1590.85 C 541.872 1548.53 573.64 1519.89 602.975 1492.85 C 594.846 1490.36 565.087 1486.49 554.681 1484.84 C 533.049 1481.4 508.446 1475.58 487.186 1473.12 C 484.057 1522.98 450.167 1566.34 399.036 1570.97 C 380.533 1572.64 347.289 1573.03 329.014 1571.21 C 310.647 1571.92 284.949 1558.61 272.058 1546.24 C 251.002 1526.02 241.475 1505.71 241.255 1476.62 C 240.913 1431.35 240.957 1386.09 240.95 1340.94 L 241.065 1075.28 L 241.078 935.417 C 241.08 919.679 240.092 879.229 242.11 865.409 C 245.254 844.896 254.644 825.851 269.001 810.867 C 287.437 791.306 312.59 781.201 339.21 780.282 C 382.95 779.941 421.834 774.893 455.191 808.971 C 474.116 828.306 486.932 852.516 487.117 880.014 C 495.615 879.728 512.118 877.313 520.615 876.017 C 549.056 871.551 577.253 865.641 605.094 858.312 C 620.184 854.474 635.531 849.778 650.636 846.478 C 655.212 843.4 659.472 836.2 662.639 831.438 C 652.393 822.075 641.588 810.439 631.539 800.509 L 569.46 739.04 C 550.337 719.866 540.646 705.69 540.759 677.504 C 540.896 643.612 557.256 627.783 579.41 605.85 L 609.179 576.417 C 651.48 535.175 694.966 537.165 734.739 579.428 C 762.818 609.264 794.313 637.968 822.78 667.827 C 837.939 654.225 864.192 614.168 875.397 596.92 C 917.326 532.379 945.179 457.874 947.027 380.357 C 947.815 347.3 946.099 312.52 947.481 279.498 C 948.519 254.712 961.305 231.008 980.085 214.644 z" fill="rgb(0,0,0)" transform="translate(0,0)"></path>
<path d="M 339.21 780.282 C 382.95 779.941 421.834 774.893 455.191 808.971 C 474.116 828.306 486.932 852.516 487.117 880.014 C 495.615 879.728 512.118 877.313 520.615 876.017 C 549.056 871.551 577.253 865.641 605.094 858.312 C 620.184 854.474 635.531 849.778 650.636 846.478 C 655.212 843.4 659.472 836.2 662.639 831.438 C 701.575 868.958 740.991 909.694 779.43 948.015 L 962.98 1130.75 C 853.98 1238.81 745.747 1347.65 638.289 1457.25 C 632.781 1463.04 607.652 1489.91 602.975 1492.85 C 594.846 1490.36 565.087 1486.49 554.681 1484.84 C 533.049 1481.4 508.446 1475.58 487.186 1473.12 C 484.057 1522.98 450.167 1566.34 399.036 1570.97 C 380.533 1572.64 347.289 1573.03 329.014 1571.21 C 310.647 1571.92 284.949 1558.61 272.058 1546.24 C 251.002 1526.02 241.475 1505.71 241.255 1476.62 C 240.913 1431.35 240.957 1386.09 240.95 1340.94 L 241.065 1075.28 L 241.078 935.417 C 241.08 919.679 240.092 879.229 242.11 865.409 C 245.254 844.896 254.644 825.851 269.001 810.867 C 287.437 791.306 312.59 781.201 339.21 780.282 z" fill="rgb(254,192,15)" transform="translate(0,0)"></path>
<path d="M 339.21 780.282 C 382.95 779.941 421.834 774.893 455.191 808.971 C 474.116 828.306 486.932 852.516 487.117 880.014 L 487.488 1248.26 L 487.1 1400.3 C 487.087 1419.78 485.991 1454.39 487.186 1473.12 C 484.057 1522.98 450.167 1566.34 399.036 1570.97 C 380.533 1572.64 347.289 1573.03 329.014 1571.21 C 310.647 1571.92 284.949 1558.61 272.058 1546.24 C 251.002 1526.02 241.475 1505.71 241.255 1476.62 C 240.913 1431.35 240.957 1386.09 240.95 1340.94 L 241.065 1075.28 L 241.078 935.417 C 241.08 919.679 240.092 879.229 242.11 865.409 C 245.254 844.896 254.644 825.851 269.001 810.867 C 287.437 791.306 312.59 781.201 339.21 780.282 z" fill="rgb(250,61,15)" transform="translate(0,0)"></path>
<path d="M 339.21 780.282 C 382.95 779.941 421.834 774.893 455.191 808.971 C 474.116 828.306 486.932 852.516 487.117 880.014 L 487.488 1248.26 L 487.1 1400.3 C 487.087 1419.78 485.991 1454.39 487.186 1473.12 C 484.057 1522.98 450.167 1566.34 399.036 1570.97 C 380.533 1572.64 347.289 1573.03 329.014 1571.21 C 333.833 1567.4 342.135 1564.83 348.043 1561.63 C 366.825 1551.37 382.434 1536.15 393.174 1517.63 C 403.367 1499.66 406.142 1480.61 406.424 1460.28 C 406.793 1433.68 406.571 1407.1 406.526 1380.49 L 407.082 1236.84 L 407.03 1001.33 L 407.027 929.95 C 407.014 870.77 409.333 826.547 352.333 791.507 C 348.561 789.188 336.078 784.841 335.235 781.458 L 339.21 780.282 z" fill="rgb(235,19,22)" transform="translate(0,0)"></path>
<path d="M 487.117 880.014 C 495.615 879.728 512.118 877.313 520.615 876.017 C 549.056 871.551 577.253 865.641 605.094 858.312 C 620.184 854.474 635.531 849.778 650.636 846.478 C 649.117 852.283 633.676 870.737 629.89 877.372 C 618.024 898.163 606.727 918.93 597.547 941.086 C 540.515 1073.39 540.202 1237.83 592.386 1371.56 C 600.08 1391.28 624.383 1442.25 638.289 1457.25 C 632.781 1463.04 607.652 1489.91 602.975 1492.85 C 594.846 1490.36 565.087 1486.49 554.681 1484.84 C 533.049 1481.4 508.446 1475.58 487.186 1473.12 C 485.991 1454.39 487.087 1419.78 487.1 1400.3 L 487.488 1248.26 L 487.117 880.014 z" fill="rgb(250,61,15)" transform="translate(0,0)"></path>
<path d="M 980.085 214.644 C 1007.01 194.563 1047.73 189.717 1080.23 195.263 C 1236.74 221.969 1285.55 393.717 1264.97 531.131 C 1253.86 605.298 1233.19 659.775 1203.14 727.277 C 1234.15 726.989 1265.16 726.948 1296.17 727.153 C 1319.09 727.307 1344.68 727.998 1367.61 726.822 C 1339.16 755.298 1310.52 785.303 1281.83 813.282 C 1230.52 866.275 1178.36 918.441 1125.37 969.76 C 1053.75 896.907 979.684 825.175 907.537 752.735 L 850.194 695.513 C 842.248 687.576 829.722 676.109 822.78 667.827 C 837.939 654.225 864.192 614.168 875.397 596.92 C 917.326 532.379 945.179 457.874 947.027 380.357 C 947.815 347.3 946.099 312.52 947.481 279.498 C 948.519 254.712 961.305 231.008 980.085 214.644 z" fill="rgb(254,192,15)" transform="translate(0,0)"></path>
<path d="M 980.085 214.644 C 1007.01 194.563 1047.73 189.717 1080.23 195.263 C 1236.74 221.969 1285.55 393.717 1264.97 531.131 C 1253.86 605.298 1233.19 659.775 1203.14 727.277 C 1234.15 726.989 1265.16 726.948 1296.17 727.153 C 1319.09 727.307 1344.68 727.998 1367.61 726.822 C 1339.16 755.298 1310.52 785.303 1281.83 813.282 C 1278.11 809.579 1244.96 811.058 1237.91 811.086 L 1154.14 811.589 C 1137.24 811.694 1117.71 813.274 1101.42 809.118 C 1091.02 807.662 1081.06 789.258 1085.19 779.706 C 1099.33 747.008 1116.56 714.674 1130.03 681.437 C 1172.07 578.862 1197.49 453.553 1155.01 347.346 C 1128.76 281.711 1074.8 229.634 1005.18 218.5 C 998.978 217.509 984.771 216.909 980.085 214.644 z" fill="rgb(243,141,5)" transform="translate(0,0)"></path>
<path d="M 1629.93 802.696 C 1648.11 803.724 1664.88 804.175 1682.14 810.668 C 1780.7 847.747 1799.23 972.754 1721.77 1040.73 C 1718.83 1043.31 1715.85 1045.87 1712.86 1048.4 C 1745.64 1064.16 1768.83 1092.82 1780.79 1126.9 C 1793.26 1161.5 1791.24 1199.66 1775.2 1232.76 C 1756.9 1270.57 1728.42 1290.79 1689.58 1304.16 C 1688.3 1304.61 1687.01 1305.04 1685.72 1305.45 C 1743.18 1355.32 1749.78 1438.66 1699.67 1496.25 C 1691.95 1505.12 1682.82 1512.1 1675.08 1520.47 C 1665.65 1513.35 1644.05 1490.13 1634.4 1480.57 L 1543.63 1390.59 L 1292.24 1139.55 C 1317.17 1115.87 1341.41 1089.88 1366.2 1065.69 C 1454.93 979.119 1541.05 889.045 1629.93 802.696 z" fill="url(#Gradient1)" transform="translate(0,0)"></path>
<path d="M 1131 1300.56 C 1211.82 1381.96 1293.17 1462.83 1375.05 1543.17 C 1391.25 1558.87 1407.46 1575.57 1423.34 1591.67 C 1431.8 1600.25 1450.99 1617.4 1457.67 1625.99 C 1445.39 1625.02 1430.22 1625.41 1417.71 1625.41 L 1356.79 1625.33 L 1116 1625.38 C 1083.91 1625.11 1045.49 1625.99 1013.83 1623.72 C 976.43 1620.77 939.255 1615.48 902.519 1607.89 C 880.971 1603.45 859.686 1597.95 838.099 1593.57 C 854.699 1578.29 870.938 1559.51 888.17 1543.69 L 1131 1300.56 z" fill="rgb(254,192,15)" transform="translate(0,0)"></path>
<path d="M 1375.05 1543.17 C 1391.25 1558.87 1407.46 1575.57 1423.34 1591.67 C 1431.8 1600.25 1450.99 1617.4 1457.67 1625.99 C 1445.39 1625.02 1430.22 1625.41 1417.71 1625.41 L 1356.79 1625.33 L 1116 1625.38 C 1083.91 1625.11 1045.49 1625.99 1013.83 1623.72 C 976.43 1620.77 939.255 1615.48 902.519 1607.89 C 880.971 1603.45 859.686 1597.95 838.099 1593.57 C 854.699 1578.29 870.938 1559.51 888.17 1543.69 C 894.525 1546.54 984.3 1545.91 997.307 1545.93 L 1176.42 1546.04 C 1221.24 1546.18 1266.07 1545.96 1310.89 1545.39 C 1322.57 1545.27 1367.12 1545.87 1375.05 1543.17 z" fill="rgb(243,141,5)" transform="translate(0,0)"></path>
<path d="M 972.015 1129.86 C 971.198 1129.23 970.071 1128.37 969.342 1127.65 C 941.291 1099.79 913.298 1071.65 885.323 1043.75 L 713.658 872.874 L 612.119 771.492 C 595.398 754.85 576.034 736.881 560.656 719.18 C 552.124 708.083 548.068 693.827 547.481 680.333 C 545.81 641.898 574.792 621.516 598.876 596.66 C 619.677 575.193 637.778 554.511 670.357 553.979 C 684.756 553.605 698.868 558.044 710.46 566.593 C 721.748 574.777 739.673 593.446 750.214 603.906 L 826.447 680.742 L 1023.07 876.644 C 1056.67 910.118 1090.98 945.664 1125.16 978.24 C 1159.2 948.251 1199.55 904.683 1232.41 871.747 L 1436.69 666.867 L 1491.37 611.746 C 1503.49 599.414 1516.72 585.197 1529.66 573.99 C 1546.37 559.537 1569 553.746 1590.77 555.666 C 1620.25 558.265 1639 574.011 1657.37 595.853 C 1664.12 600.399 1671.92 608.493 1677.75 614.445 C 1692.94 629.948 1707.71 643.465 1712.08 665.674 C 1715.97 684.565 1712.01 704.223 1701.12 720.142 C 1692.6 732.579 1663.86 759.789 1652.09 771.44 L 1560.65 861.914 L 1377.33 1045.36 L 1314.66 1107.94 C 1304.54 1118.04 1293.4 1129.94 1283.07 1139.45 C 1356.71 1210.73 1430.24 1286.5 1502.95 1359.23 L 1587.93 1443.54 C 1604.28 1459.89 1621.94 1477.01 1637.01 1494.37 C 1645.87 1500.43 1656.83 1512.17 1664.48 1519.94 C 1683.27 1540.02 1704.62 1553.81 1709.29 1583.16 C 1716.09 1625.92 1696.49 1640.51 1670.9 1668.97 C 1636.24 1707.52 1596.39 1736.17 1545.99 1702.04 C 1535.72 1695.09 1516.24 1675.53 1508.07 1665.19 C 1501.55 1660.9 1473.28 1631.39 1465.28 1623.56 C 1420.65 1579.71 1376.36 1535.52 1332.4 1491 L 1201.36 1361.28 C 1179.71 1339.94 1151.14 1313.45 1131.35 1291.2 L 850.242 1572.17 C 821.68 1600.97 792.874 1629.53 763.827 1657.84 C 751.351 1670.18 731.469 1691.47 717.499 1701.76 C 703.785 1711.84 687.237 1717.34 670.215 1717.46 C 635.211 1717.54 608.593 1691.97 588.874 1665.44 C 566.372 1650.32 547.268 1623.82 547.208 1595.58 C 547.111 1549.64 585.475 1518.71 615.988 1488.29 L 692.878 1411.63 L 972.015 1129.86 z" fill="rgb(235,19,22)" transform="translate(0,0)"></path>
<path d="M 1657.37 595.853 C 1664.12 600.399 1671.92 608.493 1677.75 614.445 C 1692.94 629.948 1707.71 643.465 1712.08 665.674 C 1715.97 684.565 1712.01 704.223 1701.12 720.142 C 1692.6 732.579 1663.86 759.789 1652.09 771.44 L 1560.65 861.914 L 1377.33 1045.36 L 1314.66 1107.94 C 1304.54 1118.04 1293.4 1129.94 1283.07 1139.45 C 1274.71 1131.7 1260.21 1115.33 1252.96 1106.45 L 1519.46 839.988 L 1601.73 757.732 C 1621.62 737.884 1651.93 711.541 1663.28 686.832 C 1672.65 665.989 1674.02 642.429 1667.14 620.639 C 1664.43 612.199 1660.52 604.238 1657.37 595.853 z" fill="rgb(173,9,13)" transform="translate(0,0)"></path>
<path d="M 588.874 1665.44 C 609.21 1671.18 614.891 1677.83 640.697 1677.68 C 661.248 1677.41 681.212 1670.79 697.856 1658.73 C 712.07 1648.55 733.409 1625.99 746.298 1613.09 L 822.562 1536.7 L 1103.18 1256.25 C 1110.37 1266.21 1126.34 1281.25 1131.35 1291.2 L 850.242 1572.17 C 821.68 1600.97 792.874 1629.53 763.827 1657.84 C 751.351 1670.18 731.469 1691.47 717.499 1701.76 C 703.785 1711.84 687.237 1717.34 670.215 1717.46 C 635.211 1717.54 608.593 1691.97 588.874 1665.44 z" fill="rgb(173,9,13)" transform="translate(0,0)"></path>
<path d="M 1637.01 1494.37 C 1645.87 1500.43 1656.83 1512.17 1664.48 1519.94 C 1683.27 1540.02 1704.62 1553.81 1709.29 1583.16 C 1716.09 1625.92 1696.49 1640.51 1670.9 1668.97 C 1636.24 1707.52 1596.39 1736.17 1545.99 1702.04 C 1535.72 1695.09 1516.24 1675.53 1508.07 1665.19 C 1510.49 1665.62 1518.14 1669.06 1521 1670.27 C 1547.84 1681.69 1573.4 1681.06 1600.17 1669.57 C 1623.09 1659.73 1646.19 1635.66 1655.17 1612.26 C 1665.76 1584.67 1663.28 1550.07 1651.85 1523.05 C 1647.67 1513.15 1641.71 1504.72 1637.4 1495.24 L 1637.01 1494.37 z" fill="rgb(173,9,13)" transform="translate(0,0)"></path>
<metadata><recraft-signature>{"signed_by": "recraft", "signature_b64": "F/pspMeQBfo1laGsnFUa2Ahac3WHrEMmlMKvu0pzL1vsMW3Q8Mhd2yacMm8GJqzurfohvit+f+GJIYMhpDnwBA==", "signing_algo": "Ed25519", "generation_timestamp": 1779006090, "identifier": "2cf3603c-df10-476a-9f76-562130e89df7"}</recraft-signature></metadata></svg>