<svg xmlns="http://www.w3.org/2000/svg" height="832" preserveAspectRatio="none" style="display: block;" version="1.1" viewBox="0 0 2048 1331" width="1280">
<path d="M 0 0 L 2048 0 L 2048 1331 L 0 1331 L 0 0 z" fill="rgb(254,254,254)" transform="translate(0,0)"></path>
<path d="M 1292.8 364.775 C 1301.75 348.081 1313.54 329.244 1323.66 313.065 C 1333.73 296.98 1350.02 264.775 1364.12 254.003 C 1379.06 242.388 1398.04 237.266 1416.79 239.79 C 1435.35 242.438 1452.06 252.43 1463.17 267.52 C 1475.7 284.752 1476.51 300.311 1473.52 320.315 C 1481 311.147 1486.79 305.243 1497.56 299.643 C 1514.2 291.031 1533.58 289.378 1551.43 295.047 C 1590.39 307.487 1606.24 342.718 1593.48 380.755 C 1645.77 328.457 1735.63 380.021 1702.56 452.176 C 1705.23 450.245 1708.34 447.985 1711.13 446.236 C 1725.99 437 1743.94 434.118 1760.95 438.239 C 1778.11 442.318 1792.95 453.015 1802.25 467.996 C 1820.13 497.148 1806.61 516.179 1800.02 544.91 C 1786.84 602.397 1774.95 659.577 1761.08 716.971 C 1749.96 762.974 1713.59 811.982 1679.76 844.493 C 1670.81 852.756 1658.4 860.36 1647.95 866.611 C 1648.92 872.908 1649.67 878.366 1650.27 884.752 C 1654.17 901.824 1658.34 944.096 1660.75 963.146 C 1663.23 983.425 1665.9 1003.68 1668.76 1023.91 C 1674.33 1064.73 1681.04 1097.83 1644.07 1127.69 C 1617.07 1149.49 1583.35 1145.04 1550.81 1145.05 L 1459.31 1145.01 L 1386.47 1145.03 C 1373.26 1145.07 1352.85 1145.68 1340.38 1144.17 C 1319.9 1141.5 1301.33 1130.78 1288.78 1114.37 C 1261.86 1079.42 1277.66 1043.15 1282.07 1003.93 C 1282.47 1000.35 1283.19 996.671 1283.73 993.094 C 1291.12 945.037 1297.82 896.878 1303.85 848.631 C 1291.47 841.277 1279.9 832.634 1269.33 822.846 C 1252.02 806.873 1229.7 781.314 1213.5 762.784 C 1184.26 729.315 1148.2 688.137 1125.93 649.823 C 1110.71 623.648 1113.45 580.116 1123.11 552.345 C 1128.37 537.242 1137.85 521.105 1145.89 506.627 L 1177.05 450.876 C 1186.53 434.093 1196.69 417.074 1205.85 400.197 C 1224.25 366.281 1255.21 352.188 1292.8 364.775 z" fill="rgb(43,22,19)" transform="translate(0,0)"></path>
<path d="M 1545.59 895.391 C 1585.74 892.528 1611.39 886.899 1646.57 867.284 C 1646.83 872.059 1647.51 877.035 1648.07 881.805 L 1650.27 884.752 C 1654.17 901.824 1658.34 944.096 1660.75 963.146 L 1658.93 963.746 L 1658.31 964.156 C 1656.7 963.975 1640.55 947.266 1638.13 944.987 C 1611.3 919.709 1580.28 906.281 1545.59 895.391 z" fill="rgb(233,30,1)" transform="translate(0,0)"></path>
<path d="M 1648.07 881.805 L 1650.27 884.752 C 1654.17 901.824 1658.34 944.096 1660.75 963.146 L 1658.93 963.746 C 1657.99 960.688 1655.72 941.893 1655.19 937.623 C 1652.89 919.159 1650.02 900.27 1648.07 881.805 z" fill="rgb(124,14,3)" transform="translate(0,0)"></path>
<path d="M 1293.56 939.683 C 1314.82 917.236 1355.38 899.002 1385.26 892.765 C 1397.96 890.144 1410.9 888.886 1423.86 889.013 C 1426.69 889.036 1431 889.323 1433.13 887.538 C 1429.37 886.502 1414.83 885.963 1408.88 885.067 C 1386.37 881.676 1364.35 875.602 1343.28 866.974 C 1321.03 857.934 1298.44 844.834 1279.94 829.515 C 1245.13 800.713 1140.52 680.973 1124.16 641.446 C 1112.43 613.108 1115.95 574.747 1127.45 546.864 C 1139.35 517.981 1160.46 484.404 1175.92 456.757 C 1186.77 437.367 1205.16 400.448 1218.65 384.566 C 1225.32 376.71 1234.26 370.67 1243.77 366.803 C 1254.23 362.552 1264.51 360.853 1275.69 362.557 C 1297.93 365.947 1326.14 381.581 1347.09 390.84 L 1410.39 418.083 C 1386.45 428.409 1361.29 453.175 1381.74 481.015 C 1385.55 486.197 1403.56 492.624 1410.42 495.931 C 1433.42 507.013 1451.25 511.242 1473.59 496.14 C 1474.04 495.095 1474.08 495.199 1475.17 494.715 C 1486.33 483.845 1489.04 476.611 1490.29 461.227 C 1493.89 467.999 1498.89 478.134 1498.45 485.438 C 1492.63 581.552 1353.74 543.036 1302.86 511.549 C 1288.29 502.526 1278.67 489.009 1267.66 479.381 L 1266.77 478.613 C 1269.71 482.967 1272.6 487.346 1275.45 491.749 C 1288.59 503.673 1299.55 513.778 1315.56 521.952 C 1316.9 522.637 1317.46 522.895 1317.74 524.299 C 1311.45 537.236 1305.08 550.135 1298.64 562.994 C 1288.38 563.673 1249.52 569.422 1247.4 579.835 C 1249.51 579.859 1257.13 574.762 1260.42 573.303 C 1312.31 549.808 1370.72 584.123 1410.53 616.249 C 1462.42 658.122 1486.55 723.414 1492.3 788.108 L 1493.04 787.863 C 1494.51 780.957 1492.11 776.428 1492.42 769.785 C 1494.47 726.402 1525.89 680.207 1568.62 668.1 C 1579.66 664.972 1588.98 664.908 1600.13 664.816 C 1607.23 699.475 1639.81 714.068 1672.65 708.348 C 1705.34 702.654 1714.58 677.424 1731.22 653.185 L 1794.58 560.05 C 1788.99 585.964 1783.21 611.837 1777.25 637.669 C 1769.24 673.99 1759.94 728.42 1742.35 759.523 C 1704.28 828.425 1651.24 880.65 1570.16 890.901 C 1559 892.312 1517.33 890.436 1513.32 891.52 C 1573.72 900.183 1620.39 923.892 1659.59 970.696 C 1662.48 991.35 1673.34 1060.59 1670.93 1077.77 C 1668.16 1097.69 1657.45 1115.64 1641.25 1127.54 C 1614.51 1147.4 1583.5 1143.01 1551.92 1143.05 L 1456.17 1143 L 1382.76 1143.11 C 1345.17 1143.16 1314.21 1146.04 1288.75 1111.14 C 1281.27 1100.73 1276.73 1088.49 1275.59 1075.72 C 1274.23 1061.04 1279.52 1032.6 1281.9 1016.96 L 1293.56 939.683 z" fill="rgb(251,117,99)" transform="translate(0,0)"></path>
<path d="M 1275.45 491.749 C 1288.59 503.673 1299.55 513.778 1315.56 521.952 C 1316.9 522.637 1317.46 522.895 1317.74 524.299 C 1297.04 521.731 1282.98 511.482 1275.45 491.749 z" fill="rgb(134,68,67)" transform="translate(0,0)"></path>
<path d="M 1473.59 496.14 C 1474.04 495.095 1474.08 495.199 1475.17 494.715 C 1474.53 495.461 1474.38 495.533 1473.59 496.14 z" fill="rgb(134,68,67)" transform="translate(0,0)"></path>
<path d="M 1279.17 577.245 C 1353.25 571.248 1432.36 635.629 1455.78 702.414 C 1458.47 710.078 1469.43 731.657 1465.16 738.27 C 1461.94 739.876 1461.49 740.128 1457.93 740.08 C 1430.14 665.488 1366.89 592.599 1281.84 587.715 C 1277.46 587.464 1270.59 587.739 1267.32 585.137 C 1266.67 581.44 1266.34 582.697 1267.95 579.901 C 1271.39 577.816 1275.09 577.763 1279.17 577.245 z" fill="rgb(254,162,98)" transform="translate(0,0)"></path>
<path d="M 1759.06 641.496 C 1760.39 642.14 1761.91 643.001 1762.6 644.345 C 1765.89 650.822 1761.87 669.305 1760.62 676.002 C 1752.37 719.88 1733.1 759.37 1706.8 795.21 C 1697.92 807.309 1690.28 818.492 1677.54 827.078 C 1674.97 824.985 1674.49 824.852 1673.43 821.867 C 1673.82 819.243 1675.21 817.791 1676.92 815.644 C 1703.23 782.525 1719.68 752.102 1735.54 713.481 C 1741.28 699.518 1753.7 648.454 1759.06 641.496 z" fill="rgb(254,162,98)" transform="translate(0,0)"></path>
<path d="M 1152.27 522.855 C 1154.58 523.76 1159.4 525.64 1158.35 528.838 C 1156.02 535.928 1152.57 543.093 1150 550.163 C 1147.17 557.881 1145.05 565.84 1143.67 573.943 C 1137.93 607.407 1145.32 628.416 1161.15 656.351 C 1162.08 657.995 1161.15 659.445 1160.31 660.931 C 1157.38 661.947 1157.27 661.914 1154.16 661.395 C 1140.33 648.91 1129.96 625.94 1127.43 607.693 C 1123.41 578.661 1134.94 545.99 1152.27 522.855 z" fill="rgb(254,162,98)" transform="translate(0,0)"></path>
<path d="M 1263.08 372.187 C 1272.15 371.915 1275.51 378.523 1265.77 380.067 C 1251.63 382.31 1243.74 389.814 1233.32 398.334 C 1228.56 399.37 1223.7 395.513 1226.66 391.745 C 1235.01 381.126 1249.99 374.514 1263.08 372.187 z" fill="rgb(254,162,98)" transform="translate(0,0)"></path>
<path d="M 1217.57 407.545 C 1233.05 411.033 1218.85 420.346 1215.5 429 C 1213.83 433.308 1209.83 439.621 1207.17 443.443 C 1189.26 442.539 1212.61 413.995 1217.57 407.545 z" fill="rgb(254,162,98)" transform="translate(0,0)"></path>
<path d="M 1172.63 482.382 C 1185.25 483.516 1177.89 490.007 1174.52 495.967 C 1171.3 501.658 1169.4 505.959 1165.19 511.151 C 1152.07 507.451 1160.86 502.103 1164.95 493.528 C 1166.88 489.48 1169.72 485.788 1172.63 482.382 z" fill="rgb(254,162,98)" transform="translate(0,0)"></path>
<path d="M 1465.09 753.695 C 1466.82 753.748 1471.39 753.504 1472.24 754.732 C 1476.88 761.454 1478.92 770.344 1474.13 776.79 C 1472.04 777.276 1468.6 778.842 1467.86 776.038 C 1466.04 769.131 1462.59 760.557 1465.09 753.695 z" fill="rgb(254,162,98)" transform="translate(0,0)"></path>
<path d="M 1493.77 572.115 C 1496.62 555.591 1511.13 532.614 1519.52 517.539 C 1543 475.354 1565.3 432.518 1589.02 390.495 C 1601.8 368.069 1631.23 357.962 1655.8 362.419 C 1673.06 365.679 1688.3 375.714 1698.11 390.284 C 1720.15 422.859 1699.56 459.758 1679.6 488.069 C 1657.33 519.644 1624.47 600.326 1599.04 624.539 C 1586.06 634.708 1569.86 639.881 1553.38 639.119 C 1536.33 638.335 1520.28 630.817 1508.76 618.214 C 1496.12 604.422 1493.03 590.201 1493.77 572.115 z" fill="rgb(251,117,99)" transform="translate(0,0)"></path>
<path d="M 1734.94 439.229 C 1751.59 437.631 1764.56 439.037 1779.23 448.001 C 1806.93 465.053 1818.32 499.065 1801.43 527.92 C 1776.02 571.36 1749.37 613.888 1723.63 657.118 C 1713.81 673.611 1702.5 681.367 1683.75 685.549 C 1676.61 686.928 1669.28 687.131 1662.07 686.151 C 1628.83 681.884 1594.47 643.746 1612.53 611.496 C 1640.46 561.584 1669 511.876 1697.23 462.132 C 1704.67 449.038 1720.9 442.305 1734.94 439.229 z" fill="rgb(251,117,99)" transform="translate(0,0)"></path>
<path d="M 1521.16 294.291 C 1525.99 293.676 1529.96 293.576 1534.86 293.851 C 1552.74 295.024 1569.44 303.206 1581.33 316.619 C 1612.04 351.756 1590.39 383.128 1572.2 416.071 L 1546.71 463.04 L 1512.36 526.044 C 1505.22 539.167 1492.58 566.005 1481.95 575.058 C 1468.07 586.986 1449.91 592.731 1431.69 590.966 C 1411.78 589.126 1397.67 579.557 1385.26 564.535 C 1379.32 556.01 1378.16 550.963 1375.28 541.148 C 1402.25 548.231 1425.26 554.056 1453.28 545.894 C 1484.32 537.653 1509.39 503.895 1498.76 471.64 C 1488.23 439.708 1444.55 431.159 1416.77 417.307 C 1435.8 386.736 1453.68 354.852 1473.09 324.604 C 1484.47 306.875 1500.67 297.939 1521.16 294.291 z" fill="rgb(251,117,99)" transform="translate(0,0)"></path>
<path d="M 1401.78 241.366 C 1440.67 235.24 1483.82 277.819 1471.63 317.441 C 1467.35 331.371 1453.8 351.059 1445.94 363.954 C 1435.19 381.442 1424.67 399.079 1414.41 416.859 L 1382.68 403.05 C 1353.42 391.07 1323.79 377.705 1294.79 364.99 C 1302.59 349.936 1313.59 332.348 1323.02 317.818 C 1346.94 280.985 1353.68 248.528 1401.78 241.366 z" fill="rgb(251,117,99)" transform="translate(0,0)"></path>
<path d="M 1320.01 524.481 C 1338.45 533.07 1353.61 536.399 1373.32 540.931 C 1376.19 553.667 1379.8 562.405 1388.91 572.19 C 1400.98 585.245 1417.83 592.843 1435.61 593.243 C 1461.5 594.047 1474.28 584.966 1491.39 568.947 L 1492.19 571.45 L 1493.77 572.115 C 1493.03 590.201 1496.12 604.422 1508.76 618.214 C 1520.28 630.817 1536.33 638.335 1553.38 639.119 C 1569.86 639.881 1586.06 634.708 1599.04 624.539 L 1601.24 625.451 C 1602.81 623.754 1602.73 623.873 1604.83 622.883 C 1607.3 626.924 1605.57 637.485 1607.04 641.987 C 1615.74 668.022 1637.41 686.823 1665.24 688.672 C 1687.98 690.183 1701.04 684.07 1717.75 669.938 C 1715.95 673.32 1713.99 676.61 1711.86 679.796 C 1702.46 693.786 1687.78 703.361 1671.18 706.329 C 1639.62 711.98 1607.17 696.277 1601.56 662.772 C 1538.66 662.177 1503.33 702.181 1491.05 759.685 C 1487.52 748.697 1484.37 732.908 1480.97 721.019 C 1471.37 687.1 1453.57 656.066 1429.13 630.66 C 1399.85 599.892 1344.3 564.293 1300.81 563.151 L 1320.01 524.481 z" fill="rgb(233,30,1)" transform="translate(0,0)"></path>
<path d="M 1493.77 572.115 C 1493.03 590.201 1496.12 604.422 1508.76 618.214 C 1520.28 630.817 1536.33 638.335 1553.38 639.119 C 1569.86 639.881 1586.06 634.708 1599.04 624.539 L 1601.24 625.451 C 1571.99 653.081 1516.4 643.124 1498.16 607.933 C 1492.92 597.823 1488.9 582.527 1492.19 571.45 L 1493.77 572.115 z" fill="rgb(124,14,3)" transform="translate(0,0)"></path>
<path d="M 1411.11 419.901 C 1418.41 419.091 1457.07 438.577 1466.66 442.126 C 1504.4 456.089 1486.32 493.714 1455.17 502.619 C 1450.22 503.522 1442.4 504.156 1437.5 502.836 C 1423.3 499.005 1384.62 487.216 1379.01 472.685 C 1369.23 447.387 1390.3 429.413 1411.11 419.901 z" fill="rgb(254,162,98)" transform="translate(0,0)"></path>
<path d="M 1305.71 849.858 C 1334.25 867.26 1374.15 883.518 1407.45 886.932 C 1362.87 894.041 1328.32 905.309 1293.94 936.068 C 1295.5 926.664 1298.96 908.033 1299.31 899.176 C 1299.24 898.255 1299.1 898.072 1299.6 897.43 C 1301.81 882.181 1304.25 865.21 1305.71 849.858 z" fill="rgb(233,30,1)" transform="translate(0,0)"></path>
<path d="M 1299.6 897.43 C 1299.66 898.372 1299.67 898.279 1299.31 899.176 C 1299.24 898.255 1299.1 898.072 1299.6 897.43 z" fill="rgb(124,14,3)" transform="translate(0,0)"></path>
<path d="M 1795.09 542.957 L 1797.75 538.571 L 1798.66 538.653 C 1798.36 541.537 1798.05 544.42 1797.71 547.299 C 1797.51 548.002 1797.31 548.705 1797.11 549.408 L 1796.78 550.457 C 1792.9 562.815 1748.07 625.859 1737.4 639.719 C 1736.15 641.34 1737.11 638.775 1736.44 641.065 L 1737.39 639.821 L 1736.93 639.226 C 1743.15 627.163 1752.23 613.168 1759.44 601.422 L 1795.09 542.957 z" fill="rgb(233,30,1)" transform="translate(0,0)"></path>
<path d="M 413.519 606.157 L 407.813 600.728 C 390.769 584.48 373.453 568.367 357.014 551.536 C 348.568 542.89 346.626 531.796 346.635 520.08 C 346.665 482.327 346.464 444.57 346.604 406.816 C 346.677 387.132 345.914 366.854 347.717 347.307 C 349.749 339.001 354.403 331.134 360.268 325.387 C 400.096 286.355 440.637 248.167 480.309 208.984 C 496.646 192.849 505.992 184.74 529.979 184.974 C 585.292 185.515 640.738 184.446 696.025 185.284 C 701.316 185.365 711.074 188.475 715.935 191.216 C 740.219 210.851 762.941 234.645 785.358 256.599 C 796.169 265.993 808.68 278.992 819.066 289.084 C 829.092 298.602 839.389 308.603 849.439 317.937 C 864.363 331.797 871.189 340.61 871.054 361.694 C 870.854 392.836 871.666 424.323 871.199 455.445 C 870.785 483.048 873.188 511.904 868.655 538.989 C 867.004 547.696 835.737 575.3 828.696 582.053 L 774.755 633.993 C 755.814 652.137 734.729 674.427 713.966 689.912 C 704.379 697.062 662.466 695.002 649.015 695.019 C 649.004 705.519 649.391 718.972 648.894 729.226 L 649.251 738.137 C 624.408 716.301 588.643 728.279 572.433 754.515 L 571.829 742.595 C 571.252 728.21 571.834 709.508 571.855 694.786 C 568.59 694.94 565.322 695.043 562.053 695.095 C 545.758 695.335 525.102 697.597 509.482 692.655 C 492.575 687.306 432.658 624.807 415.368 608.017 C 414.247 607.367 414.361 607.328 413.519 606.157 z" fill="rgb(254,254,254)" transform="translate(0,0)"></path>
<path d="M 413.519 606.157 L 407.813 600.728 C 390.769 584.48 373.453 568.367 357.014 551.536 C 348.568 542.89 346.626 531.796 346.635 520.08 C 346.665 482.327 346.464 444.57 346.604 406.816 C 346.677 387.132 345.914 366.854 347.717 347.307 C 349.749 339.001 354.403 331.134 360.268 325.387 C 400.096 286.355 440.637 248.167 480.309 208.984 C 496.646 192.849 505.992 184.74 529.979 184.974 C 585.292 185.515 640.738 184.446 696.025 185.284 C 701.316 185.365 711.074 188.475 715.935 191.216 C 740.219 210.851 762.941 234.645 785.358 256.599 L 783.438 257.498 L 774.838 249.354 C 772.396 247.431 770.265 245.71 768.573 243.089 C 757.862 232.86 746.883 222.408 736.276 212.101 C 721.04 197.294 714.293 187.465 691.344 187.369 C 635.516 187.135 579.748 187.646 523.922 187.292 C 502.057 187.141 488.394 204.393 473.923 218.433 L 432.954 258.261 L 383.075 306.615 C 364.503 324.55 348.818 332.611 348.83 361.367 C 348.839 383.684 348.801 406.401 348.863 428.743 L 348.945 487.94 C 348.902 494.948 348.729 502.148 348.753 509.029 C 348.791 520.399 347.52 534.44 354.275 544.264 C 360.163 552.827 369.135 560.313 376.548 567.64 C 414.793 604.009 452.201 641.172 490.499 677.502 C 507.32 693.459 516.631 693.806 538.603 693.196 C 589.471 692.908 640.376 693.304 691.237 692.809 C 697.053 692.753 706.448 691.941 711.253 688.855 C 726.691 678.938 740.408 664.221 753.62 651.449 L 798.463 608.245 L 837.407 570.7 C 873.639 535.858 869.621 538.17 868.921 486.77 C 868.341 444.232 869.285 400.324 868.639 357.663 C 868.493 348.011 865.497 338.57 859.377 331.043 C 858.239 330.358 858.379 330.321 857.629 329.022 C 844.068 316.55 830.792 303.773 817.809 290.7 L 819.066 289.084 C 829.092 298.602 839.389 308.603 849.439 317.937 C 864.363 331.797 871.189 340.61 871.054 361.694 C 870.854 392.836 871.666 424.323 871.199 455.445 C 870.785 483.048 873.188 511.904 868.655 538.989 C 867.004 547.696 835.737 575.3 828.696 582.053 L 774.755 633.993 C 755.814 652.137 734.729 674.427 713.966 689.912 C 704.379 697.062 662.466 695.002 649.015 695.019 C 649.004 705.519 649.391 718.972 648.894 729.226 L 649.251 738.137 C 624.408 716.301 588.643 728.279 572.433 754.515 L 571.829 742.595 C 571.252 728.21 571.834 709.508 571.855 694.786 C 568.59 694.94 565.322 695.043 562.053 695.095 C 545.758 695.335 525.102 697.597 509.482 692.655 C 492.575 687.306 432.658 624.807 415.368 608.017 C 414.247 607.367 414.361 607.328 413.519 606.157 z" fill="rgb(74,80,87)" transform="translate(0,0)"></path>
<path d="M 571.855 694.786 C 578.939 692.531 636.892 694.064 648.092 694.14 C 648.044 702.046 647.559 722.552 648.894 729.226 L 649.251 738.137 C 624.408 716.301 588.643 728.279 572.433 754.515 L 571.829 742.595 C 571.252 728.21 571.834 709.508 571.855 694.786 z" fill="rgb(9,9,9)" transform="translate(0,0)"></path>
<path d="M 768.573 243.089 C 770.711 244.059 773.317 247.483 774.838 249.354 C 772.396 247.431 770.265 245.71 768.573 243.089 z" fill="rgb(130,127,120)" transform="translate(0,0)"></path>
<path d="M 413.519 606.157 C 414.805 606.617 414.571 606.578 415.368 608.017 C 414.247 607.367 414.361 607.328 413.519 606.157 z" fill="rgb(130,127,120)" transform="translate(0,0)"></path>
<path d="M 857.629 329.022 C 858.805 329.675 858.605 329.649 859.377 331.043 C 858.239 330.358 858.379 330.321 857.629 329.022 z" fill="rgb(130,127,120)" transform="translate(0,0)"></path>
<path d="M 785.358 256.599 C 796.169 265.993 808.68 278.992 819.066 289.084 L 817.809 290.7 L 783.438 257.498 L 785.358 256.599 z" fill="rgb(74,80,87)" transform="translate(0,0)"></path>
<path d="M 571.765 221.492 L 648.6 221.291 C 662.336 221.26 682.219 220.609 695.261 222.219 C 704.412 228.98 714.854 240.022 723.344 248.215 L 773.386 296.685 L 809.449 331.44 C 816.662 338.367 824.806 345.788 831.085 353.502 C 832.818 355.631 833.814 364.308 833.847 367.117 C 834.171 394.98 834.456 422.087 834.197 450.064 C 833.977 473.885 835.33 499.667 832.894 523.42 C 832.631 525.987 831.339 528.19 829.516 530.004 C 808.048 551.363 786.09 572.272 764.571 593.584 L 724.081 633.44 C 716.857 640.62 703.966 654.168 696.588 659.589 C 681.1 660.283 662.241 659.85 646.5 659.881 L 522.16 659.91 C 512.32 653.791 482.392 622.24 472.026 612.195 L 415.71 557.607 C 405.872 548.067 394.845 537.986 385.966 527.572 C 384.273 525.586 383.495 517.64 383.461 514.971 C 383.092 485.937 382.935 456.862 383.155 427.785 C 383.323 405.678 382.142 381.173 384.472 359.417 C 384.767 356.656 386.135 353.386 388.01 351.342 C 404.695 333.143 424.157 315.661 441.899 298.376 C 460.052 280.379 478.453 262.636 497.099 245.151 C 504.003 238.699 515.701 227.205 522.894 222.111 C 537.712 221.312 556.629 221.647 571.765 221.492 z" fill="rgb(124,14,3)" transform="translate(0,0)"></path>
<path d="M 658.255 223.501 L 693.076 223.508 C 701.666 228.966 728.958 256.539 738.221 265.417 L 787.995 313.643 C 794.25 319.646 831.758 353.913 831.687 360.133 C 831.066 414.359 833.919 471.015 831.623 525.049 C 822.361 536.02 793.177 562.755 781.484 574.08 C 753.36 601.319 724.705 630.774 696.395 657.521 C 682.838 658.459 661.79 657.858 647.762 657.857 L 558.25 657.828 L 522.149 657.668 C 513.604 652.23 486.856 623.917 477.489 614.711 C 447.948 585.681 413.605 554.792 385.648 524.565 C 384.755 513.144 385.202 496.01 385.166 484.19 L 385.044 412.508 C 385.057 395.661 384.611 377.18 385.47 360.486 C 385.797 354.136 404.805 336.648 409.958 331.852 C 443.833 300.326 476.004 266.963 510.037 235.597 C 514.628 231.362 518.421 227.228 523.878 224.094 C 568.668 223.476 613.462 223.278 658.255 223.501 z" fill="rgb(233,30,1)" transform="translate(0,0)"></path>
<path d="M 571.93 1041.74 C 583.293 1047.17 596.214 1045.48 608.235 1042.42 C 636.94 1034.32 638.163 995.466 643.916 971.477 C 645.392 965.325 645.844 956.925 648.961 951.69 C 648.95 959.892 649.267 970.789 648.851 978.766 C 649.656 1006.44 649.088 1036.11 649.036 1063.93 C 661.746 1063.82 698.466 1061.85 707.102 1066.63 C 746.063 1080.89 742.254 1111.93 742.011 1146.01 L 544.737 1146 C 533.292 1146.01 481.105 1147.57 473.763 1145.4 C 472.27 1142.97 472.597 1141.09 472.595 1138.2 C 472.73 1121.11 470.698 1099 482.31 1085.71 C 489.477 1076.14 497.629 1070.57 508.871 1066.66 C 515.963 1062.5 562.685 1062.58 572.018 1064.28 L 571.93 1041.74 z" fill="rgb(74,80,87)" transform="translate(0,0)"></path>
<path d="M 707.102 1066.63 C 746.063 1080.89 742.254 1111.93 742.011 1146.01 L 544.737 1146 C 533.292 1146.01 481.105 1147.57 473.763 1145.4 C 472.27 1142.97 472.597 1141.09 472.595 1138.2 C 477.611 1138.95 523.154 1137.04 532.082 1136.75 C 580.012 1135.17 630.026 1138.84 677.269 1132.1 C 690.68 1129.77 708.917 1125.3 716.892 1113.35 C 725.123 1101.02 719.963 1076.98 707.901 1068.71 L 706.979 1068.09 L 707.102 1066.63 z" fill="rgb(9,9,9)" transform="translate(0,0)"></path>
<path d="M 571.93 1041.74 C 583.293 1047.17 596.214 1045.48 608.235 1042.42 C 636.94 1034.32 638.163 995.466 643.916 971.477 C 645.392 965.325 645.844 956.925 648.961 951.69 C 648.95 959.892 649.267 970.789 648.851 978.766 C 647.208 1001.99 647.963 1041.06 648.189 1065.08 C 639.859 1065.21 575.059 1066.67 572.018 1064.28 L 571.93 1041.74 z" fill="rgb(9,9,9)" transform="translate(0,0)"></path>
<path d="M 508.871 1066.66 C 509.206 1067.53 509.153 1067.22 509.17 1067.68 C 508.926 1068.17 502.651 1071.11 502.101 1071.25 C 495.848 1072.84 486.78 1084.99 482.31 1085.71 C 489.477 1076.14 497.629 1070.57 508.871 1066.66 z" fill="rgb(9,9,9)" transform="translate(0,0)"></path>
<path d="M 572.433 754.515 C 588.643 728.279 624.408 716.301 649.251 738.137 C 650.297 752.337 649.851 771.12 649.86 785.758 L 649.837 864.101 L 649.743 920.072 C 649.711 928.084 649.981 943.989 648.961 951.69 C 645.844 956.925 645.392 965.325 643.916 971.477 C 638.163 995.466 636.94 1034.32 608.235 1042.42 C 596.214 1045.48 583.293 1047.17 571.93 1041.74 C 569.839 989.287 571.221 927.055 571.203 873.81 L 571.2 794.126 C 571.207 777.803 570.827 758.73 571.829 742.595 L 572.433 754.515 z" fill="rgb(74,80,87)" transform="translate(0,0)"></path>
<metadata><recraft-signature>{"signed_by": "recraft", "signature_b64": "yhUeNqaXC+4kO33cQVPSbyANMWILXguS6CPtzYGJ1KqDJOkEOd4jlmdPWCZf7/KRk9WgFP2PCkjAJ5wsJeb1BA==", "signing_algo": "Ed25519", "generation_timestamp": 1779023167, "identifier": "f5d47b80-a1bf-44a1-8dbb-9ede2efab167"}</recraft-signature></metadata></svg>