<svg xmlns="http://www.w3.org/2000/svg" height="832" preserveAspectRatio="none" style="display: block;" version="1.1" viewBox="0 0 2048 1331" width="1280">
<path d="M 0 0 L 2048 0 L 2048 1331 L 0 1331 L 0 0 z" fill="rgb(255,255,255)" transform="translate(0,0)"></path>
<path d="M 441.994 758.967 C 404.678 759.532 397.858 757.052 370.803 730.818 L 246.273 609.716 C 233.838 597.611 221.027 585.975 208.515 573.96 C 195.421 561.054 185.19 550.497 184.672 531.017 C 182.632 454.322 184.398 377.335 183.968 300.597 C 183.724 257.1 196.942 254.204 224.487 227.325 L 323.271 131.445 C 342.289 113.31 360.543 94.4144 379.724 76.4453 C 397.869 59.4459 416.693 58.9729 440.098 59.0522 C 511.889 59.2956 583.674 59.1276 655.463 59.2053 C 693.87 59.1782 704.532 75.0167 730.124 99.4938 L 776.378 143.938 L 844.021 209.649 C 859.915 224.924 883.699 245.287 896.075 263.107 C 903.406 273.663 902.007 305.484 902.007 319.293 L 901.995 373.725 C 901.975 423.51 901.928 473.389 901.972 523.176 C 901.976 527.835 900.164 543.339 898.295 547.291 C 890.709 563.334 870.415 580.894 857.583 593.115 L 745.61 700.899 C 734.02 712.066 721.897 724.583 710.751 736.2 C 688.955 758.919 672.048 759.614 642.538 758.882 L 641.247 758.85 L 641.195 811.896 C 651.423 811.421 657.49 810.229 666.086 817.601 C 671.237 822.018 674.296 829.236 674.508 836.005 C 674.802 843.254 672.076 850.301 666.979 855.464 C 660.256 862.379 653.313 864.324 644.089 864.316 C 643.138 864.314 642.188 864.306 641.238 864.291 C 641.199 868.67 641.348 875.891 640.829 880.017 C 640.375 876.341 640.452 867.883 640.373 863.857 C 599.503 863.349 558.63 863.101 517.757 863.113 C 494.47 863.11 464.113 862.378 441.223 863.811 C 430.072 864.266 420.332 863.885 412.298 854.962 C 407.588 849.633 405.205 842.64 405.681 835.544 C 406.901 815.043 424.53 810.127 442.018 811.762 L 441.994 758.967 z" fill="rgb(232,228,221)" transform="translate(0,0)"></path>
<path d="M 441.994 758.967 L 640.435 758.498 L 640.211 812.456 L 506.173 812.17 C 493.245 812.156 453.044 813.059 442.018 811.762 L 441.994 758.967 z" fill="rgb(240,164,106)" transform="translate(0,0)"></path>
<path d="M 419.883 110.002 C 424.774 109.615 431.078 109.603 436.077 109.656 C 512.281 110.476 588.677 109.105 664.854 109.994 C 675.184 116.049 727.513 168.054 739.155 179.826 C 774.628 215.697 814.948 252.12 849.52 288.245 C 851.152 311.292 849.495 351.883 849.327 375.757 L 848.951 527.087 C 837.786 540.706 806.194 569.891 792.121 583.724 L 664.784 707.783 C 658.279 708.553 643.248 708.192 636.396 708.162 L 587.063 707.982 L 418.988 707.874 C 412.922 702.969 400.971 690.352 395.022 684.452 L 352.985 643.16 C 314.335 605.048 273.581 566.401 235.636 527.907 C 234.711 496.031 235.122 462.216 235.12 430.232 L 235.327 288.403 C 274.536 247.691 318.407 207.989 358.871 168.205 C 371.286 155.998 408.174 117.78 419.883 110.002 z" fill="rgb(236,27,49)" transform="translate(0,0)"></path>
<path d="M 1439.07 123.332 C 1440.08 123.288 1441.09 123.279 1442.11 123.305 C 1475.73 123.98 1474.08 155.234 1478.84 178.498 C 1487.27 221.492 1510.46 252.208 1536.32 285.239 C 1606.06 374.324 1719.61 387.682 1795.58 467.051 C 1845.65 519.361 1870.24 583.081 1868.1 655.377 C 1867.29 682.536 1855.39 772.527 1835.4 791.365 C 1828.93 797.375 1820.35 800.573 1811.52 800.258 C 1802.53 800.005 1793.54 796.346 1787.33 789.576 C 1772.42 773.282 1783.81 750.641 1787.05 732.023 C 1793.48 695.083 1790.63 658.322 1773 624.783 C 1734.53 551.594 1647.59 532.73 1579.37 497.954 C 1538.85 477.299 1506.84 456.488 1476.02 423.065 L 1476.04 826.25 L 1476.06 923.05 C 1476.07 964.623 1479.93 1009.92 1462.9 1049.44 C 1412.64 1166.08 1252.69 1241.62 1131.96 1196.02 C 1106.5 1186.4 1081.55 1164.4 1072.02 1138.53 C 1032.2 1030.4 1129.18 929.574 1223.45 893.445 C 1288.13 868.777 1345.55 864.122 1408.42 891.228 L 1408.23 380.499 L 1408.14 231.264 C 1408.12 205.712 1407.76 179.786 1408.49 154.255 C 1409.01 136.365 1421.97 125.78 1439.07 123.332 z" fill="rgb(0,60,156)" transform="translate(0,0)"></path>
<path d="M 441.223 863.811 C 464.113 862.378 494.47 863.11 517.757 863.113 C 558.63 863.101 599.503 863.349 640.373 863.857 C 640.452 867.883 640.375 876.341 640.829 880.017 L 640.824 1193.86 C 655.898 1193.76 667.897 1193.05 680.32 1203.54 C 698.162 1218.61 701.329 1245.55 685.772 1263.41 C 678.498 1271.76 665.732 1277.8 654.558 1277.91 C 604.801 1278.4 555.009 1278.16 505.24 1278.09 L 457.294 1278.02 C 437.101 1278.03 417.031 1281.2 401.232 1266.34 C 392.922 1258.62 388.118 1247.84 387.927 1236.5 C 387.694 1220.69 397.353 1204.16 412.099 1197.98 C 422.343 1193.68 430.945 1194.08 441.729 1194.17 L 441.223 863.811 z" fill="rgb(240,164,106)" transform="translate(0,0)"></path>
<metadata><recraft-signature>{"signed_by": "recraft", "signature_b64": "Pr1Lo+6lwn474PkER2ChjKDvU0df6qzyD01Z/wIqa09BBX+kiq3pNGOSEo3qhijBehUroLIKaV8wHyA4BXubBg==", "signing_algo": "Ed25519", "generation_timestamp": 1779023181, "identifier": "658803fe-ab2e-46dc-9dcf-2b1f796eb2cd"}</recraft-signature></metadata></svg>