<svg xmlns="http://www.w3.org/2000/svg" height="1024" preserveAspectRatio="none" style="display: block;" version="1.1" viewBox="0 0 2048 2048" width="1024">
<path d="M 0 0 L 2048 0 L 2048 2048 L 0 2048 L 0 0 z" fill="rgb(255,255,255)" transform="translate(0,0)"></path>
<path d="M 1157.21 571.106 C 1164.78 573.239 1177.7 579.844 1185.04 583.475 C 1190.39 585.498 1197.4 586.606 1202.81 584.376 C 1255.71 632.862 1305.52 688.62 1357.45 737.74 C 1365.07 745.388 1406.4 788.247 1411.69 791.835 L 1411.94 792.473 C 1420.68 803.48 1435.7 815.58 1445.81 825.783 C 1458.65 838.747 1464.44 844.686 1463.6 863.915 C 1463.84 929.662 1463.85 995.408 1463.92 1061.15 L 1463.96 1139.65 C 1463.95 1153.55 1465.37 1189.16 1459.89 1201.48 C 1456.95 1208.08 1437.42 1225.38 1431.16 1231.67 L 1374.41 1288.48 C 1350.66 1312.85 1326.51 1336.33 1302.63 1360.53 C 1295.24 1368.02 1284.73 1377.94 1277.89 1385.53 C 1274.01 1389.13 1261.68 1401.08 1258.86 1405.15 C 1245.11 1417.36 1217.81 1447.85 1204.88 1455.9 C 1190.69 1457.38 1171.01 1456.86 1156.31 1456.84 C 1127.5 1456.61 1098.69 1456.69 1069.89 1457.08 L 921.788 1457.13 C 899 1457.15 874.059 1457.81 851.341 1456.31 C 846.212 1455.97 842.4 1453.74 838.279 1450.85 C 823.975 1435.09 802.919 1415.98 787.263 1400.97 L 670.358 1283.8 L 630.36 1244.17 C 621.488 1235.31 611.131 1224.37 601.849 1216.36 C 598.985 1213.03 591.387 1204.58 590.677 1200.92 C 586.143 1177.53 589.113 1142.31 588.48 1117.8 L 588.257 1021.67 L 588.395 942.866 C 588.416 932.753 589.989 908.102 585.597 900.108 L 586.726 900.41 C 590.546 898.923 588.149 866.214 588.313 860.195 C 588.767 843.616 594.166 837.617 605.045 826.616 L 767.163 663.489 C 782.015 648.64 796.776 633.701 811.446 618.672 C 815.742 614.258 825.535 605.018 828.295 600.599 L 827.13 598.811 C 831.051 598.174 842.944 587.86 848.226 584.765 C 857.233 585.529 875.768 584.898 885.892 584.894 L 960.8 584.914 L 1033.54 584.954 C 1040.31 584.956 1064.21 585.388 1068.98 584.225 C 1076.82 585.489 1136.15 585.06 1144.24 584.01 C 1150.25 579.164 1152.48 574.641 1157.21 571.106 z" fill="rgb(243,26,45)" transform="translate(0,0)"></path>
<path d="M 1157.21 571.106 C 1164.78 573.239 1177.7 579.844 1185.04 583.475 C 1180.83 586.414 1148.43 585.974 1144.24 584.01 C 1150.25 579.164 1152.48 574.641 1157.21 571.106 z" fill="rgb(249,225,3)" transform="translate(0,0)"></path>
<path d="M 860.566 602.466 C 933.667 600.882 1012.77 601.74 1086.06 602.148 L 1152.58 602.218 C 1166.75 602.2 1183.4 601.741 1197.23 602.947 C 1205.47 608.954 1220.65 626.294 1228.7 634.118 C 1245.08 650.06 1261.68 666.206 1277.85 682.349 C 1319.25 723.342 1360.25 764.746 1400.83 806.554 C 1416.42 822.52 1431.05 835.455 1446.38 852.382 L 1446 1060.99 C 1446.19 1104.5 1446.01 1148.01 1445.43 1191.51 C 1439.94 1199.37 1425.75 1212.74 1418.23 1220.25 C 1405.79 1232.74 1393.43 1245.31 1381.13 1257.94 C 1328.43 1311.58 1275.21 1364.71 1221.47 1417.32 C 1214.5 1424.17 1208.32 1431.86 1201.21 1438.64 C 1198.03 1441.67 1196.7 1441.32 1192.25 1441.27 L 852.227 1440.79 C 834.535 1422.55 815.541 1404.54 797.512 1386.41 C 763.873 1352.26 730.023 1318.32 695.963 1284.6 C 676.499 1265.61 657.294 1246.87 638.419 1227.28 C 627.947 1216.41 614.213 1205.03 604.854 1193.45 L 604.967 852.778 C 606.647 850.747 608.372 848.754 610.143 846.801 C 625.258 830.209 646.334 810.282 662.536 793.992 L 762.375 693.335 C 788.47 666.966 824.474 629.5 852.433 603.538 C 853.371 602.667 858.872 602.533 860.566 602.466 z" fill="rgb(255,255,255)" transform="translate(0,0)"></path>
<path d="M 866.21 631.174 L 1183.87 631.146 C 1196.84 642.794 1212.69 659.722 1225.06 672.273 L 1291.63 739.237 L 1360.96 808.315 C 1379.14 826.32 1398.59 844.91 1415.39 864.064 C 1417.33 895.85 1415.98 943.171 1415.96 975.863 L 1415.84 1180.03 C 1410.16 1186.62 1400.69 1195.32 1394.35 1201.79 L 1334.32 1262.35 L 1249.33 1347.94 C 1229.55 1367.98 1205.59 1393.3 1185.26 1412 L 865.213 1411.65 L 634.028 1180.15 L 634.117 864.675 C 645.443 851.193 661.977 835.568 674.719 822.847 L 736.895 760.577 C 778.124 719.354 824.025 670.192 866.21 631.174 z" fill="rgb(243,26,45)" transform="translate(0,0)"></path>
<path d="M 1374.41 1288.48 C 1385.14 1301.45 1396.57 1318.42 1406.66 1332.36 L 1464.05 1411.54 C 1467.36 1416.1 1487.2 1443.89 1489.93 1446.09 L 1494.19 1445.07 C 1499.04 1439.45 1541.88 1420.68 1551.13 1414.79 C 1556.23 1411.53 1574.22 1402.23 1580.37 1399.48 C 1618.89 1382.29 1658.05 1347.67 1702.31 1365.73 L 1704.13 1366.23 C 1708.31 1367.43 1710.95 1369.62 1714.97 1367.95 C 1718.12 1372.79 1719.3 1372.35 1725.2 1375.44 C 1735.82 1381 1743.92 1388.37 1752.97 1395.89 L 1753.26 1398.78 L 1756.43 1402.37 C 1767.36 1413.78 1789.83 1444.09 1791.65 1459.7 C 1803.6 1483.91 1804.83 1521.02 1799.64 1547.39 C 1797.81 1556.71 1792.65 1571.84 1791.55 1579.16 C 1789.02 1593.88 1767.61 1619.71 1756.7 1629.89 C 1750.36 1635.82 1743.38 1641.03 1735.89 1645.4 C 1705.59 1663.16 1664.17 1682.02 1632.24 1698.63 L 1562.33 1734.55 C 1544.89 1743.58 1523.87 1755.57 1505.56 1761.74 C 1444.9 1781.76 1368.08 1772.28 1315.94 1734.44 C 1285.11 1712.07 1255.38 1671.77 1230.09 1642.31 L 1129.13 1525.26 C 1110.19 1503.31 1089.43 1478.12 1069.89 1457.08 C 1098.69 1456.69 1127.5 1456.61 1156.31 1456.84 C 1171.01 1456.86 1190.69 1457.38 1204.88 1455.9 C 1217.81 1447.85 1245.11 1417.36 1258.86 1405.15 C 1261.68 1401.08 1274.01 1389.13 1277.89 1385.53 C 1284.73 1377.94 1295.24 1368.02 1302.63 1360.53 C 1326.51 1336.33 1350.66 1312.85 1374.41 1288.48 z" fill="rgb(55,59,218)" transform="translate(0,0)"></path>
<path d="M 1258.86 1405.15 C 1255.33 1416.01 1246.44 1426.26 1242.62 1438.19 C 1229.29 1478.95 1240.56 1525.94 1257.76 1563.43 C 1285.18 1623.2 1341.81 1668.14 1402.26 1689.41 C 1471.67 1713.83 1546.61 1703.89 1611.28 1671.68 C 1630.64 1662.03 1653.16 1654.7 1672.62 1644.68 C 1737.82 1615.95 1792.24 1554.86 1792.02 1480.76 C 1792.01 1475.26 1790.74 1464.52 1791.65 1459.7 C 1803.6 1483.91 1804.83 1521.02 1799.64 1547.39 C 1797.81 1556.71 1792.65 1571.84 1791.55 1579.16 C 1789.02 1593.88 1767.61 1619.71 1756.7 1629.89 C 1750.36 1635.82 1743.38 1641.03 1735.89 1645.4 C 1705.59 1663.16 1664.17 1682.02 1632.24 1698.63 L 1562.33 1734.55 C 1544.89 1743.58 1523.87 1755.57 1505.56 1761.74 C 1444.9 1781.76 1368.08 1772.28 1315.94 1734.44 C 1285.11 1712.07 1255.38 1671.77 1230.09 1642.31 L 1129.13 1525.26 C 1110.19 1503.31 1089.43 1478.12 1069.89 1457.08 C 1098.69 1456.69 1127.5 1456.61 1156.31 1456.84 C 1171.01 1456.86 1190.69 1457.38 1204.88 1455.9 C 1217.81 1447.85 1245.11 1417.36 1258.86 1405.15 z" fill="rgb(22,25,177)" transform="translate(0,0)"></path>
<path d="M 1374.41 1288.48 C 1385.14 1301.45 1396.57 1318.42 1406.66 1332.36 L 1464.05 1411.54 C 1467.36 1416.1 1487.2 1443.89 1489.93 1446.09 L 1494.19 1445.07 C 1491.43 1448.27 1491.49 1448.18 1493.25 1451.95 C 1498.06 1462.29 1531.46 1504.21 1509.79 1509.97 C 1499.72 1507.49 1489.73 1480.1 1482.58 1469.99 C 1439.33 1408.84 1391.99 1346.14 1307.31 1373.14 C 1298.1 1376.07 1286.19 1384.1 1277.89 1385.53 C 1284.73 1377.94 1295.24 1368.02 1302.63 1360.53 C 1326.51 1336.33 1350.66 1312.85 1374.41 1288.48 z" fill="rgb(22,25,177)" transform="translate(0,0)"></path>
<path d="M 1702.31 1365.73 L 1704.13 1366.23 C 1708.31 1367.43 1710.95 1369.62 1714.97 1367.95 C 1718.12 1372.79 1719.3 1372.35 1725.2 1375.44 C 1735.82 1381 1743.92 1388.37 1752.97 1395.89 L 1753.26 1398.78 C 1741.9 1389.21 1735.09 1382.9 1721.63 1375.61 C 1717.1 1373.15 1704.45 1367.98 1702.31 1365.73 z" fill="rgb(7,6,45)" transform="translate(0,0)"></path>
<path d="M 1026.3 158.601 C 1039.52 128.425 1065.44 68.7587 1101.2 58.2901 C 1110.75 55.4947 1121.93 62.2006 1122 73.4257 C 1122.17 102.855 1099.41 130.781 1081.02 152.063 C 1102.19 142.731 1137.9 125.928 1161.12 136.098 C 1169.62 139.82 1170.19 150.494 1164.46 157.373 C 1146.32 179.149 1117.97 184.404 1091.43 188.16 C 1095.2 190.566 1098.95 192.995 1102.69 195.446 C 1161.36 233.982 1195.12 287.531 1209.27 355.64 C 1209.42 356.497 1210.17 363.492 1210.53 363.567 C 1217.7 365.065 1229.17 365.339 1235.11 370.253 C 1243.04 374.112 1248.6 378.86 1252.82 386.734 C 1253.58 387.462 1253.43 387.538 1253.62 388.769 C 1260.79 400.52 1260.7 415.813 1255.32 428.245 C 1252.47 439.978 1233.84 452.13 1222.26 453.576 C 1215.41 454.451 1213.59 454.638 1206.57 454.186 C 1205.32 463.344 1203.6 470.283 1201.42 479.204 C 1199.02 489.977 1179.29 543.841 1170.8 549.15 C 1169.69 551.365 1168.86 554.181 1166.7 554.969 C 1165.78 557.052 1164.81 560.05 1162.8 561.1 C 1161.6 563.155 1157.48 569.375 1157.21 571.106 C 1152.48 574.641 1150.25 579.164 1144.24 584.01 C 1136.15 585.06 1076.82 585.489 1068.98 584.225 C 1064.21 585.388 1040.31 584.956 1033.54 584.954 L 960.8 584.914 L 885.892 584.894 C 875.768 584.898 857.233 585.529 848.226 584.765 C 842.944 587.86 831.051 598.174 827.13 598.811 C 825.819 598.009 825.514 598.029 824.852 596.899 C 820.167 594.268 814.997 589.846 810.858 586.345 C 794.509 570.425 786.225 561.027 772.123 543.281 C 765.094 533.522 758.836 523.229 753.406 512.496 C 749.532 504.803 745.836 495.785 741.502 488.543 C 737.785 491.789 734.941 492.925 730.342 494.518 C 719.47 497.597 718.462 496.963 707.665 495.616 C 704.451 494.873 701.876 494.629 699.087 492.675 L 697.552 492.06 C 695.251 491.161 691.865 490.24 691.075 487.694 C 675.793 479.681 668.813 457.781 672.641 441.438 C 674.195 434.33 677.34 427.666 681.84 421.948 C 688.132 413.808 700.069 405.932 710.445 404.649 C 711.095 379.129 712.562 359.656 719.14 334.452 C 736.001 270.575 777.447 215.961 834.432 182.534 C 893.643 148.189 960.657 141.36 1026.3 158.601 z" fill="rgb(238,161,157)" transform="translate(0,0)"></path>
<path d="M 1026.3 158.601 C 1039.52 128.425 1065.44 68.7587 1101.2 58.2901 C 1110.75 55.4947 1121.93 62.2006 1122 73.4257 C 1122.17 102.855 1099.41 130.781 1081.02 152.063 C 1102.19 142.731 1137.9 125.928 1161.12 136.098 C 1169.62 139.82 1170.19 150.494 1164.46 157.373 C 1146.32 179.149 1117.97 184.404 1091.43 188.16 C 1095.2 190.566 1098.95 192.995 1102.69 195.446 C 1161.36 233.982 1195.12 287.531 1209.27 355.64 L 1209.26 359.81 C 1209.23 361.621 1209.17 361.918 1208.79 363.646 L 1206.18 364.873 C 1189.57 364.827 1180.47 363.183 1164.31 360.264 C 1097.54 341.773 1053.65 308.74 1018.96 247.537 C 1017.5 244.982 1016.07 242.414 1014.67 239.833 C 999.448 258.775 984.274 278.027 966.664 295.162 C 909.602 350.685 834.724 395.189 754.66 405.092 C 750.019 405.666 744.4 406.153 739.778 406.266 C 733.551 406.017 727.683 406.398 721.468 406.706 C 717.769 406.468 714.705 406.059 710.907 405.935 L 710.445 404.649 C 711.095 379.129 712.562 359.656 719.14 334.452 C 736.001 270.575 777.447 215.961 834.432 182.534 C 893.643 148.189 960.657 141.36 1026.3 158.601 z" fill="rgb(3,3,3)" transform="translate(0,0)"></path>
<path d="M 1209.27 355.64 C 1209.42 356.497 1210.17 363.492 1210.53 363.567 C 1217.7 365.065 1229.17 365.339 1235.11 370.253 C 1243.04 374.112 1248.6 378.86 1252.82 386.734 C 1253.58 387.462 1253.43 387.538 1253.62 388.769 C 1260.79 400.52 1260.7 415.813 1255.32 428.245 C 1252.47 439.978 1233.84 452.13 1222.26 453.576 C 1215.41 454.451 1213.59 454.638 1206.57 454.186 C 1205.32 463.344 1203.6 470.283 1201.42 479.204 C 1199.02 489.977 1179.29 543.841 1170.8 549.15 C 1169.69 551.365 1168.86 554.181 1166.7 554.969 C 1165.78 557.052 1164.81 560.05 1162.8 561.1 C 1161.6 563.155 1157.48 569.375 1157.21 571.106 C 1152.48 574.641 1150.25 579.164 1144.24 584.01 C 1136.15 585.06 1076.82 585.489 1068.98 584.225 C 1073.62 581.171 1079.09 578.248 1083.95 575.358 C 1108.33 560.837 1131.96 541.495 1147.89 517.765 C 1178.68 471.904 1174.91 412.167 1164.31 360.264 C 1180.47 363.183 1189.57 364.827 1206.18 364.873 L 1208.79 363.646 C 1209.17 361.918 1209.23 361.621 1209.26 359.81 L 1209.27 355.64 z" fill="rgb(227,105,105)" transform="translate(0,0)"></path>
<path d="M 1209.27 355.64 C 1209.42 356.497 1210.17 363.492 1210.53 363.567 C 1217.7 365.065 1229.17 365.339 1235.11 370.253 C 1243.04 374.112 1248.6 378.86 1252.82 386.734 C 1253.58 387.462 1253.43 387.538 1253.62 388.769 C 1260.79 400.52 1260.7 415.813 1255.32 428.245 C 1252.47 439.978 1233.84 452.13 1222.26 453.576 C 1216.91 453.12 1212.17 453.328 1206.82 453.429 C 1208.92 433.983 1210.23 415.263 1210.03 395.594 C 1209.92 385.061 1208.14 374.192 1208.79 363.646 C 1209.17 361.918 1209.23 361.621 1209.26 359.81 L 1209.27 355.64 z" fill="rgb(227,105,105)" transform="translate(0,0)"></path>
<path d="M 1253.62 388.769 C 1260.79 400.52 1260.7 415.813 1255.32 428.245 C 1254.89 422.677 1256.24 422.663 1256.88 416.999 C 1258.34 404.186 1255.86 400.106 1253.62 388.769 z" fill="rgb(145,73,72)" transform="translate(0,0)"></path>
<path d="M 1235.11 370.253 C 1243.04 374.112 1248.6 378.86 1252.82 386.734 C 1248.7 384.374 1238.11 374.416 1235.11 370.253 z" fill="rgb(243,26,45)" transform="translate(0,0)"></path>
<path d="M 1206.18 364.873 L 1208.79 363.646 C 1208.14 374.192 1209.92 385.061 1210.03 395.594 C 1210.23 415.263 1208.92 433.983 1206.82 453.429 C 1212.17 453.328 1216.91 453.12 1222.26 453.576 C 1215.41 454.451 1213.59 454.638 1206.57 454.186 C 1205.32 463.344 1203.6 470.283 1201.42 479.204 C 1200.62 474.407 1205.65 455.357 1206.11 447.441 C 1207.7 419.627 1209.31 392.652 1206.18 364.873 z" fill="rgb(99,38,40)" transform="translate(0,0)"></path>
<path d="M 1166.7 554.969 C 1166.1 551.327 1167.68 551.265 1170.8 549.15 C 1169.69 551.365 1168.86 554.181 1166.7 554.969 z" fill="rgb(243,26,45)" transform="translate(0,0)"></path>
<path d="M 1162.8 561.1 C 1162.18 558.004 1162.72 557.894 1165.33 556.053 L 1166.7 554.969 C 1165.78 557.052 1164.81 560.05 1162.8 561.1 z" fill="rgb(243,26,45)" transform="translate(0,0)"></path>
<path d="M 691.075 487.694 C 675.793 479.681 668.813 457.781 672.641 441.438 C 674.195 434.33 677.34 427.666 681.84 421.948 C 688.132 413.808 700.069 405.932 710.445 404.649 L 710.907 405.935 C 714.705 406.059 717.769 406.468 721.468 406.706 C 723.08 415.736 724.2 426.02 725.545 435.273 C 725.715 436.012 725.886 436.752 726.056 437.491 C 726.961 441.519 727.936 445.531 728.981 449.525 C 732.361 462.705 737.343 475.59 741.502 488.543 C 737.785 491.789 734.941 492.925 730.342 494.518 C 719.47 497.597 718.462 496.963 707.665 495.616 C 704.451 494.873 701.876 494.629 699.087 492.675 L 697.552 492.06 C 695.251 491.161 691.865 490.24 691.075 487.694 z" fill="rgb(227,105,105)" transform="translate(0,0)"></path>
<path d="M 691.075 487.694 C 675.793 479.681 668.813 457.781 672.641 441.438 C 674.195 434.33 677.34 427.666 681.84 421.948 C 688.132 413.808 700.069 405.932 710.445 404.649 L 710.907 405.935 C 714.705 406.059 717.769 406.468 721.468 406.706 C 723.08 415.736 724.2 426.02 725.545 435.273 C 719.379 445.535 684.733 452.92 673.003 452.714 C 675.466 461.662 675.244 469.077 682.211 476.947 C 686.547 481.845 688.365 481.338 691.075 487.694 z" fill="rgb(238,161,157)" transform="translate(0,0)"></path>
<path d="M 691.075 487.694 C 675.793 479.681 668.813 457.781 672.641 441.438 C 674.195 434.33 677.34 427.666 681.84 421.948 C 688.132 413.808 700.069 405.932 710.445 404.649 L 710.907 405.935 C 685.586 414.278 675.389 425.394 673.003 452.714 C 675.466 461.662 675.244 469.077 682.211 476.947 C 686.547 481.845 688.365 481.338 691.075 487.694 z" fill="rgb(145,73,72)" transform="translate(0,0)"></path>
<path d="M 707.665 495.616 C 711.843 494.528 725.922 493.505 730.342 494.518 C 719.47 497.597 718.462 496.963 707.665 495.616 z" fill="rgb(243,26,45)" transform="translate(0,0)"></path>
<path d="M 691.075 487.694 C 695.31 487.724 696.971 489.614 699.087 492.675 L 697.552 492.06 C 695.251 491.161 691.865 490.24 691.075 487.694 z" fill="rgb(243,26,45)" transform="translate(0,0)"></path>
<path d="M 767.576 533.119 C 773.988 536.201 788.124 547.993 794.607 552.87 C 798.16 555.49 801.74 558.073 805.348 560.618 C 824.489 574.061 829.979 574.849 848.226 584.765 C 842.944 587.86 831.051 598.174 827.13 598.811 C 825.819 598.009 825.514 598.029 824.852 596.899 C 820.167 594.268 814.997 589.846 810.858 586.345 C 794.509 570.425 786.225 561.027 772.123 543.281 L 773.619 541.806 C 770.739 538.736 769.639 536.778 767.576 533.119 z" fill="rgb(227,105,105)" transform="translate(0,0)"></path>
<path d="M 773.619 541.806 C 779.579 552.927 802.478 577.509 812.612 585.387 L 810.858 586.345 C 794.509 570.425 786.225 561.027 772.123 543.281 L 773.619 541.806 z" fill="rgb(99,38,40)" transform="translate(0,0)"></path>
<path d="M 812.612 585.387 C 816.803 586.724 822.528 593.441 824.852 596.899 C 820.167 594.268 814.997 589.846 810.858 586.345 L 812.612 585.387 z" fill="rgb(243,26,45)" transform="translate(0,0)"></path>
<path d="M 721.468 406.706 C 727.683 406.398 733.551 406.017 739.778 406.266 C 736.251 407.654 727.76 407.27 723.554 407.298 C 728.74 450.506 742.516 497.107 767.576 533.119 C 769.639 536.778 770.739 538.736 773.619 541.806 L 772.123 543.281 C 765.094 533.522 758.836 523.229 753.406 512.496 C 749.532 504.803 745.836 495.785 741.502 488.543 C 737.343 475.59 732.361 462.705 728.981 449.525 C 727.936 445.531 726.961 441.519 726.056 437.491 C 725.886 436.752 725.715 436.012 725.545 435.273 C 724.2 426.02 723.08 415.736 721.468 406.706 z" fill="rgb(120,82,82)" transform="translate(0,0)"></path>
<path d="M 822.636 458.282 C 844.291 454.58 864.824 469.202 868.409 490.876 C 871.993 512.551 857.261 533.004 835.568 536.472 C 814.039 539.914 793.774 525.318 790.217 503.808 C 786.659 482.299 801.146 461.955 822.636 458.282 z" fill="rgb(227,105,105)" transform="translate(0,0)"></path>
<path d="M 1089.61 440.207 C 1111.06 436.219 1131.65 450.441 1135.51 471.906 C 1139.38 493.371 1125.04 513.883 1103.55 517.625 C 1082.24 521.337 1061.93 507.138 1058.1 485.846 C 1054.26 464.554 1068.34 444.163 1089.61 440.207 z" fill="rgb(227,105,105)" transform="translate(0,0)"></path>
<path d="M 1056.88 383.791 C 1069.97 381.616 1082.35 390.451 1084.55 403.537 C 1086.75 416.623 1077.94 429.018 1064.85 431.238 C 1051.74 433.464 1039.31 424.624 1037.1 411.506 C 1034.9 398.388 1043.76 385.972 1056.88 383.791 z" fill="rgb(3,3,3)" transform="translate(0,0)"></path>
<path d="M 858.097 404.483 C 870.742 401.02 883.797 408.48 887.233 421.133 C 890.668 433.786 883.179 446.824 870.518 450.231 C 857.897 453.628 844.909 446.167 841.484 433.554 C 838.06 420.941 845.492 407.936 858.097 404.483 z" fill="rgb(3,3,3)" transform="translate(0,0)"></path>
<path d="M 1027.61 499.607 C 1031.61 500.168 1032.32 500.522 1033.65 503.985 C 1032.52 508.979 1029.68 511.852 1026.17 515.414 C 992.172 549.859 931.528 553.475 897.366 518.076 C 894.331 514.591 893.265 513.181 893.567 508.649 C 899.395 502.319 908.679 516.039 914.019 520.505 C 927.246 531.564 948.714 533.964 965.231 532.833 C 992.318 530.979 1010.27 519.624 1027.61 499.607 z" fill="rgb(3,3,3)" transform="translate(0,0)"></path>
<path d="M 961.204 407.457 C 963.317 408.204 965.179 409.219 966.377 410.643 C 969.68 419.243 946.92 442.399 946.917 450.993 C 946.911 465.476 964.322 461.079 973.047 461.29 C 977.992 461.41 979.077 466.448 975.572 469.619 C 943.24 473.661 925.909 459.843 946.425 431.679 C 951.651 424.506 955.826 414.933 961.204 407.457 z" fill="rgb(3,3,3)" transform="translate(0,0)"></path>
<path d="M 601.849 1216.36 C 611.131 1224.37 621.488 1235.31 630.36 1244.17 L 670.358 1283.8 L 787.263 1400.97 C 802.919 1415.98 823.975 1435.09 838.279 1450.85 C 779.983 1474.63 721.499 1497.95 662.832 1520.8 C 650.316 1541.31 636.79 1568 624.964 1589.48 L 550.495 1724.57 C 536.503 1750 523.515 1779.62 505.276 1801.83 C 493.158 1816.58 460.63 1835.62 441.556 1837.22 C 440.473 1841.37 439.206 1845.85 438.34 1850.02 C 437.968 1846.8 438.888 1840.63 437.959 1839.21 C 437.564 1838.61 422.875 1841.12 421.645 1841.49 C 381.85 1845.63 351.717 1835.36 318.824 1814.05 C 316.176 1811.99 313.357 1810.54 311.621 1807.94 C 305.11 1803.71 297.84 1796.01 292.619 1790.25 L 291.363 1788.87 L 292.502 1786.66 C 286.642 1781.41 276.777 1765.54 274.722 1757.88 L 274.196 1756.04 C 268.92 1748.06 264.004 1734.32 261.521 1725.02 L 260.398 1720.65 C 259.322 1716.47 257.65 1711.09 256.753 1707.04 C 247.654 1656.45 278.077 1613.28 300.921 1571.66 L 359.576 1464.91 L 407.286 1377.3 C 416.103 1361 425.19 1342.32 435.153 1326.95 C 472.308 1269.65 545.569 1249.02 601.849 1216.36 z" fill="rgb(55,59,218)" transform="translate(0,0)"></path>
<path d="M 787.263 1400.97 C 802.919 1415.98 823.975 1435.09 838.279 1450.85 C 779.983 1474.63 721.499 1497.95 662.832 1520.8 C 650.316 1541.31 636.79 1568 624.964 1589.48 L 550.495 1724.57 C 536.503 1750 523.515 1779.62 505.276 1801.83 C 493.158 1816.58 460.63 1835.62 441.556 1837.22 C 440.473 1841.37 439.206 1845.85 438.34 1850.02 C 437.968 1846.8 438.888 1840.63 437.959 1839.21 C 437.564 1838.61 422.875 1841.12 421.645 1841.49 C 381.85 1845.63 351.717 1835.36 318.824 1814.05 C 316.176 1811.99 313.357 1810.54 311.621 1807.94 C 305.11 1803.71 297.84 1796.01 292.619 1790.25 L 291.363 1788.87 L 292.502 1786.66 C 286.642 1781.41 276.777 1765.54 274.722 1757.88 L 274.196 1756.04 C 278.055 1757.67 282.874 1761.66 286.447 1763.97 C 360.529 1812.07 445.813 1769.11 495.463 1706.74 C 506.089 1693.39 515.321 1676.43 524.161 1661.59 C 547.361 1622.79 568.897 1583.03 588.71 1542.4 C 594.094 1531.48 615.984 1482.58 621.854 1479.34 C 639.529 1469.56 670.431 1456.13 690.013 1446.94 C 722.336 1431.42 754.753 1416.1 787.263 1400.97 z" fill="rgb(22,25,177)" transform="translate(0,0)"></path>
<path d="M 318.824 1814.05 L 320.164 1812.2 C 350.896 1832.89 377.899 1841.71 415.517 1840.07 C 424.414 1839.69 433.677 1837.52 441.556 1837.22 C 440.473 1841.37 439.206 1845.85 438.34 1850.02 C 437.968 1846.8 438.888 1840.63 437.959 1839.21 C 437.564 1838.61 422.875 1841.12 421.645 1841.49 C 381.85 1845.63 351.717 1835.36 318.824 1814.05 z" fill="rgb(8,10,85)" transform="translate(0,0)"></path>
<path d="M 292.619 1790.25 L 294.483 1789.45 C 298.526 1794.32 303.186 1798.79 307.938 1802.95 C 309.545 1804.76 310.388 1805.84 311.621 1807.94 C 305.11 1803.71 297.84 1796.01 292.619 1790.25 z" fill="rgb(7,6,45)" transform="translate(0,0)"></path>
<path d="M 307.938 1802.95 C 309.312 1803.41 318.887 1810.84 320.164 1812.2 L 318.824 1814.05 C 316.176 1811.99 313.357 1810.54 311.621 1807.94 C 310.388 1805.84 309.545 1804.76 307.938 1802.95 z" fill="rgb(8,10,85)" transform="translate(0,0)"></path>
<path d="M 292.502 1786.66 C 293.649 1788.03 293.567 1787.93 294.483 1789.45 L 292.619 1790.25 L 291.363 1788.87 L 292.502 1786.66 z" fill="rgb(8,10,85)" transform="translate(0,0)"></path>
<path d="M 1202.81 584.376 C 1260.53 536.531 1296.14 540.814 1364.58 555.207 L 1435.11 569.927 L 1526.65 589.042 C 1559.37 595.712 1597.85 601.744 1627.98 615.204 C 1660.69 630.106 1689.53 652.333 1712.28 680.165 C 1774.86 757.382 1765.11 823.225 1767.59 914.602 L 1769.28 968.54 C 1769.69 980.156 1770.73 995.789 1769.58 1006.88 C 1768 1023.38 1759.93 1038.57 1747.14 1049.11 C 1741.89 1053.35 1732.73 1058.8 1726.1 1060.23 C 1705.01 1063.78 1694.67 1063.29 1673.21 1063.12 C 1629.16 1063.97 1627.03 1067.64 1586.02 1048.38 C 1569.64 1041.87 1559.15 1014.44 1559.19 997.771 C 1559.35 938.944 1556.13 880.142 1556.11 821.315 C 1511.83 811.482 1456.35 800.276 1411.94 792.473 L 1411.69 791.835 C 1406.4 788.247 1365.07 745.388 1357.45 737.74 C 1305.52 688.62 1255.71 632.862 1202.81 584.376 z" fill="rgb(249,225,3)" transform="translate(0,0)"></path>
<path d="M 1357.45 737.74 C 1422.62 747.829 1487.55 762.418 1552.69 772.929 C 1570.33 775.776 1586.06 776.823 1592.53 796.091 C 1596.95 809.273 1596.98 823.431 1597.77 837.165 C 1599.32 866.129 1601.14 895.078 1603.23 924.008 C 1604.91 947.099 1605.58 976.244 1612.98 997.638 C 1619.61 1016.53 1631.14 1033.32 1646.39 1046.3 C 1652.79 1051.71 1665.3 1061.16 1673.21 1063.12 C 1629.16 1063.97 1627.03 1067.64 1586.02 1048.38 C 1569.64 1041.87 1559.15 1014.44 1559.19 997.771 C 1559.35 938.944 1556.13 880.142 1556.11 821.315 C 1511.83 811.482 1456.35 800.276 1411.94 792.473 L 1411.69 791.835 C 1406.4 788.247 1365.07 745.388 1357.45 737.74 z" fill="rgb(210,177,2)" transform="translate(0,0)"></path>
<path d="M 429.081 713.238 C 459.351 713.555 475.447 743.077 490.134 764.455 L 532.144 824.855 C 544.379 842.221 557.26 859.391 569.505 876.736 C 572.512 880.995 583.891 896.143 585.597 900.108 C 589.989 908.102 588.416 932.753 588.395 942.866 L 588.257 1021.67 L 588.48 1117.8 C 523.33 1137.94 445.339 1106.65 410.434 1049.11 C 406.497 1042.63 400.494 1035.13 395.984 1028.83 C 374.026 998.296 352.374 967.54 331.032 936.569 L 298.724 891.368 C 282.779 869.118 267.998 851.873 270.93 823.098 C 272.175 810.888 277.372 792.366 286.764 784.294 C 291.3 780.026 295.537 777.678 300.82 774.421 C 319.729 763.591 338.715 751.06 357.373 739.747 C 385.015 722.988 395.695 712.117 429.081 713.238 z" fill="rgb(249,225,3)" transform="translate(0,0)"></path>
<path d="M 286.764 784.294 C 291.3 780.026 295.537 777.678 300.82 774.421 C 308.293 802.795 317.272 831.141 335.244 854.693 C 339.975 860.894 344.584 867.281 349.244 873.544 L 392.856 932.066 C 406.626 950.32 420.242 968.69 433.703 987.173 C 441.916 998.44 449.861 1009.76 458.488 1020.8 C 479.147 1047.24 517.558 1054.29 548.73 1046.02 C 564.68 1041.79 576.002 1032.33 588.257 1021.67 L 588.48 1117.8 C 523.33 1137.94 445.339 1106.65 410.434 1049.11 C 406.497 1042.63 400.494 1035.13 395.984 1028.83 C 374.026 998.296 352.374 967.54 331.032 936.569 L 298.724 891.368 C 282.779 869.118 267.998 851.873 270.93 823.098 C 272.175 810.888 277.372 792.366 286.764 784.294 z" fill="rgb(210,177,2)" transform="translate(0,0)"></path>
<path d="M 124.285 1698.45 C 151.911 1697.22 168.277 1704.5 193.499 1712.59 C 202.412 1715.45 259.608 1735.71 262.701 1734.86 C 260.062 1725.58 257.848 1716.65 256.753 1707.04 C 257.65 1711.09 259.322 1716.47 260.398 1720.65 L 261.521 1725.02 C 264.004 1734.32 268.92 1748.06 274.196 1756.04 L 274.722 1757.88 C 276.777 1765.54 286.642 1781.41 292.502 1786.66 L 291.363 1788.87 L 292.619 1790.25 C 297.84 1796.01 305.11 1803.71 311.621 1807.94 C 313.357 1810.54 316.176 1811.99 318.824 1814.05 C 351.717 1835.36 381.85 1845.63 421.645 1841.49 C 422.875 1841.12 437.564 1838.61 437.959 1839.21 C 438.888 1840.63 437.968 1846.8 438.34 1850.02 L 438.123 1851.29 C 437.909 1852.72 437.591 1854.11 437.283 1855.52 L 435.817 1862.49 L 434.816 1866.98 L 433.828 1871.49 L 432.821 1875.98 L 431.829 1880.48 L 430.817 1884.98 L 429.825 1889.49 C 428.441 1895.87 426.625 1902.21 425.689 1908.67 C 420.774 1927.13 416.448 1941.68 404.394 1957.27 C 382.488 1985.59 345.632 1995.4 312.167 1983.31 C 298.131 1978.24 283.919 1969.27 270.729 1961.84 L 217.737 1932.1 L 141.251 1889.28 C 125.916 1880.66 109.782 1872.4 95.6892 1861.82 C 38.557 1818.93 38.0209 1706.33 124.285 1698.45 z" fill="rgb(55,59,218)" transform="translate(0,0)"></path>
<path d="M 124.285 1698.45 L 126.276 1699.79 C 125.857 1700.8 115.667 1711.49 112.436 1716.42 C 95.2741 1742.99 92.3447 1776.32 104.609 1805.48 C 120.632 1843.78 160.751 1860.69 195.088 1879.34 L 262.766 1916.17 C 291.332 1895.82 313.184 1887.49 349.438 1887.96 C 358.471 1888.07 367.55 1890.4 374.634 1890.76 C 391.473 1895.5 410.058 1900.71 425.689 1908.67 C 420.774 1927.13 416.448 1941.68 404.394 1957.27 C 382.488 1985.59 345.632 1995.4 312.167 1983.31 C 298.131 1978.24 283.919 1969.27 270.729 1961.84 L 217.737 1932.1 L 141.251 1889.28 C 125.916 1880.66 109.782 1872.4 95.6892 1861.82 C 38.557 1818.93 38.0209 1706.33 124.285 1698.45 z" fill="rgb(243,26,45)" transform="translate(0,0)"></path>
<path d="M 421.645 1841.49 C 422.875 1841.12 437.564 1838.61 437.959 1839.21 C 438.888 1840.63 437.968 1846.8 438.34 1850.02 L 438.123 1851.29 C 437.909 1852.72 437.591 1854.11 437.283 1855.52 L 435.817 1862.49 L 434.816 1866.98 L 433.828 1871.49 L 432.821 1875.98 L 431.829 1880.48 L 430.817 1884.98 L 429.825 1889.49 C 428.441 1895.87 426.625 1902.21 425.689 1908.67 C 410.058 1900.71 391.473 1895.5 374.634 1890.76 C 377.881 1890.69 385.204 1891.45 387.066 1890.28 C 408.834 1876.54 413.731 1863.19 421.645 1841.49 z" fill="rgb(22,25,177)" transform="translate(0,0)"></path>
<path d="M 256.753 1707.04 C 257.65 1711.09 259.322 1716.47 260.398 1720.65 L 261.521 1725.02 C 264.004 1734.32 268.92 1748.06 274.196 1756.04 L 274.722 1757.88 C 276.777 1765.54 286.642 1781.41 292.502 1786.66 L 291.363 1788.87 C 279.428 1774.11 272.029 1760.85 265.529 1742.91 C 264.322 1739.59 262.779 1738 262.701 1734.86 C 260.062 1725.58 257.848 1716.65 256.753 1707.04 z" fill="rgb(7,6,45)" transform="translate(0,0)"></path>
<path d="M 1797.73 1302.72 L 1801.79 1301.49 C 1814.61 1297.71 1834.35 1297.62 1845.94 1304.83 C 1875.66 1315.21 1885.54 1345.15 1900.06 1370.04 C 1904.01 1376.81 1907.73 1383.88 1911.57 1390.73 L 1962.2 1481.63 C 1971.15 1497.79 1982.51 1517.31 1990.53 1533.71 C 1991.48 1535.69 1992.37 1537.7 1993.21 1539.73 C 2005.68 1567.24 2010.8 1612.39 1998.36 1640.28 C 1989.45 1667.68 1965.91 1685.23 1938.88 1692.39 C 1933.22 1694.56 1919.18 1694.89 1913.01 1694.09 C 1900.44 1692.39 1888.54 1687.38 1878.55 1679.57 C 1872.83 1675.13 1867.5 1669.55 1863.08 1663.84 C 1840.88 1635.13 1816.21 1608.16 1794.31 1579.25 L 1791.55 1579.16 C 1792.65 1571.84 1797.81 1556.71 1799.64 1547.39 C 1804.83 1521.02 1803.6 1483.91 1791.65 1459.7 C 1789.83 1444.09 1767.36 1413.78 1756.43 1402.37 L 1753.26 1398.78 L 1752.97 1395.89 C 1743.92 1388.37 1735.82 1381 1725.2 1375.44 C 1719.3 1372.35 1718.12 1372.79 1714.97 1367.95 C 1718 1363.82 1745.85 1339.94 1751.31 1335.13 C 1765.05 1323.84 1781.23 1308.77 1797.73 1302.72 z" fill="rgb(55,59,218)" transform="translate(0,0)"></path>
<path d="M 1797.73 1302.72 L 1801.79 1301.49 C 1814.61 1297.71 1834.35 1297.62 1845.94 1304.83 C 1875.66 1315.21 1885.54 1345.15 1900.06 1370.04 C 1904.01 1376.81 1907.73 1383.88 1911.57 1390.73 L 1962.2 1481.63 C 1971.15 1497.79 1982.51 1517.31 1990.53 1533.71 C 1991.48 1535.69 1992.37 1537.7 1993.21 1539.73 C 2005.68 1567.24 2010.8 1612.39 1998.36 1640.28 C 1989.45 1667.68 1965.91 1685.23 1938.88 1692.39 C 1941.55 1687.84 1944.8 1683.69 1947.86 1678.38 C 1990.95 1607.5 1958.75 1543.26 1917.67 1481.82 C 1905.85 1464.15 1896.06 1444.15 1883.68 1426.62 C 1856.98 1425.97 1823.88 1412.81 1802.36 1397.31 C 1785.26 1384.99 1772.2 1367.16 1759.94 1350.27 C 1756.35 1345.73 1751.27 1340.5 1751.31 1335.13 C 1765.05 1323.84 1781.23 1308.77 1797.73 1302.72 z" fill="rgb(243,26,45)" transform="translate(0,0)"></path>
<path d="M 1998.36 1640.28 C 1998.61 1633.61 1999.23 1634.59 2000.54 1628.49 C 2005.96 1603.23 2004.04 1575.46 1995.6 1551.03 C 1994.05 1546.55 1992.67 1544.42 1993.21 1539.73 C 2005.68 1567.24 2010.8 1612.39 1998.36 1640.28 z" fill="rgb(177,49,38)" transform="translate(0,0)"></path>
<path d="M 1797.73 1302.72 L 1801.79 1301.49 C 1814.61 1297.71 1834.35 1297.62 1845.94 1304.83 C 1844.24 1305.97 1834.56 1302.93 1832.04 1301.97 C 1821.84 1298.08 1805.77 1303.9 1797.73 1302.72 z" fill="rgb(177,49,38)" transform="translate(0,0)"></path>
<path d="M 1751.31 1335.13 C 1751.27 1340.5 1756.35 1345.73 1759.94 1350.27 L 1755.93 1348.29 C 1753.47 1352.06 1755.58 1375.08 1756.51 1380.54 C 1759.09 1395.8 1770.24 1403.14 1778.15 1415.26 C 1808.52 1461.78 1824.97 1503.18 1814.35 1557.93 L 1859.86 1613.49 C 1883.42 1642.23 1897.91 1667.82 1936.62 1676.32 C 1940.2 1677.11 1944.62 1677.25 1947.86 1678.38 C 1944.8 1683.69 1941.55 1687.84 1938.88 1692.39 C 1933.22 1694.56 1919.18 1694.89 1913.01 1694.09 C 1900.44 1692.39 1888.54 1687.38 1878.55 1679.57 C 1872.83 1675.13 1867.5 1669.55 1863.08 1663.84 C 1840.88 1635.13 1816.21 1608.16 1794.31 1579.25 L 1791.55 1579.16 C 1792.65 1571.84 1797.81 1556.71 1799.64 1547.39 C 1804.83 1521.02 1803.6 1483.91 1791.65 1459.7 C 1789.83 1444.09 1767.36 1413.78 1756.43 1402.37 L 1753.26 1398.78 L 1752.97 1395.89 C 1743.92 1388.37 1735.82 1381 1725.2 1375.44 C 1719.3 1372.35 1718.12 1372.79 1714.97 1367.95 C 1718 1363.82 1745.85 1339.94 1751.31 1335.13 z" fill="rgb(22,25,177)" transform="translate(0,0)"></path>
<path d="M 1752.97 1395.89 L 1758.95 1401.89 C 1796.35 1442.68 1811.79 1491.85 1801.34 1546.51 C 1799.79 1554.59 1793.67 1572.21 1794.31 1579.25 L 1791.55 1579.16 C 1792.65 1571.84 1797.81 1556.71 1799.64 1547.39 C 1804.83 1521.02 1803.6 1483.91 1791.65 1459.7 C 1789.83 1444.09 1767.36 1413.78 1756.43 1402.37 L 1753.26 1398.78 L 1752.97 1395.89 z" fill="rgb(8,10,85)" transform="translate(0,0)"></path>
<path d="M 244.112 575.636 C 287.736 550.412 332.857 553.321 371.071 587.487 C 375.436 591.39 379.127 598.09 383.413 601.918 C 385.677 578.533 404.649 560.921 425.711 577.815 L 426.245 578.458 C 433.225 586.306 433.838 593.944 433.045 604.387 C 431.12 629.727 428.147 655.206 426.073 680.534 C 425.386 688.925 423.515 703.361 423.868 711.12 C 426.216 712.726 426.26 712.571 429.081 713.238 C 395.695 712.117 385.015 722.988 357.373 739.747 C 338.715 751.06 319.729 763.591 300.82 774.421 C 295.537 777.678 291.3 780.026 286.764 784.294 C 288.23 781.547 288.323 782.681 287.856 780.454 C 284.237 778.365 278.523 778.551 272.811 776.867 L 271.669 776.521 C 268.198 775.657 267.001 775.075 263.819 773.658 C 258.249 771.89 250.374 768.481 246.058 764.422 C 242.933 763.973 239.868 761.479 237.889 759.129 C 235.424 758.188 235.576 758.043 233.808 756.004 C 224.942 750.406 213.861 735.52 209.145 726.186 C 207.384 725.043 205.453 720.163 204.694 718.188 L 203.913 716.608 C 193.307 695.672 190.434 670.409 195.227 647.513 C 196.456 641.421 198.229 635.452 200.526 629.677 C 202.16 625.515 202.701 623.469 205.334 619.944 C 208.79 611.92 214.048 602.639 220.817 597.018 C 221.261 593.728 234.798 581.258 238.381 580.626 C 240.519 577.913 241.16 577.626 244.112 575.636 z" fill="rgb(238,161,157)" transform="translate(0,0)"></path>
<path d="M 247.775 575.846 L 249.537 574.903 C 245.861 583.3 238.805 591.198 235.408 600.304 C 220.171 641.148 229.709 705.594 272.858 726.186 C 297.15 737.779 329.352 734.865 354.713 728.854 C 359.359 727.796 372.785 724.986 376.889 725.396 C 362.746 735.193 345.642 745.128 330.814 754.405 C 319.926 761.217 301.148 773.258 289.753 778.409 C 285.57 777.754 275.141 775.709 271.669 776.521 C 268.198 775.657 267.001 775.075 263.819 773.658 C 258.249 771.89 250.374 768.481 246.058 764.422 C 242.933 763.973 239.868 761.479 237.889 759.129 C 235.424 758.188 235.576 758.043 233.808 756.004 C 224.942 750.406 213.861 735.52 209.145 726.186 C 207.384 725.043 205.453 720.163 204.694 718.188 L 203.913 716.608 C 193.307 695.672 190.434 670.409 195.227 647.513 C 196.456 641.421 198.229 635.452 200.526 629.677 C 202.16 625.515 202.701 623.469 205.334 619.944 C 208.79 611.92 214.048 602.639 220.817 597.018 C 221.261 593.728 234.798 581.258 238.381 580.626 C 240.519 577.913 241.16 577.626 244.112 575.636 L 247.775 575.846 z" fill="rgb(227,105,105)" transform="translate(0,0)"></path>
<path d="M 200.526 629.677 C 201.258 635.418 198.618 639.028 197.524 644.749 C 194.406 661.049 193.72 678.33 197.858 694.544 L 198.895 698.541 C 200.432 704.406 204.631 713.036 204.694 718.188 L 203.913 716.608 C 193.307 695.672 190.434 670.409 195.227 647.513 C 196.456 641.421 198.229 635.452 200.526 629.677 z" fill="rgb(145,73,72)" transform="translate(0,0)"></path>
<path d="M 209.145 726.186 C 215.97 730.818 218.03 738.209 224.595 744.299 C 226.168 745.758 232.937 754.636 233.808 756.004 C 224.942 750.406 213.861 735.52 209.145 726.186 z" fill="rgb(145,73,72)" transform="translate(0,0)"></path>
<path d="M 220.817 597.018 C 221.261 593.728 234.798 581.258 238.381 580.626 C 235.925 586.444 226.361 590.159 223.524 596.329 C 222.821 597.858 222.223 597.204 220.817 597.018 z" fill="rgb(243,26,45)" transform="translate(0,0)"></path>
<path d="M 205.334 619.944 C 208.79 611.92 214.048 602.639 220.817 597.018 C 219.13 601.305 208.511 617.424 205.334 619.944 z" fill="rgb(243,26,45)" transform="translate(0,0)"></path>
<path d="M 246.058 764.422 C 253.211 766.692 258.256 768.465 263.819 773.658 C 258.249 771.89 250.374 768.481 246.058 764.422 z" fill="rgb(243,26,45)" transform="translate(0,0)"></path>
<path d="M 237.889 759.129 L 239.447 759.055 C 241.654 758.903 245.362 762.483 246.058 764.422 C 242.933 763.973 239.868 761.479 237.889 759.129 z" fill="rgb(243,26,45)" transform="translate(0,0)"></path>
<path d="M 244.112 575.636 L 247.775 575.846 C 243.692 578.839 242.885 579.418 238.381 580.626 C 240.519 577.913 241.16 577.626 244.112 575.636 z" fill="rgb(243,26,45)" transform="translate(0,0)"></path>
<path d="M 426.245 578.458 C 433.225 586.306 433.838 593.944 433.045 604.387 C 431.12 629.727 428.147 655.206 426.073 680.534 C 425.386 688.925 423.515 703.361 423.868 711.12 C 426.216 712.726 426.26 712.571 429.081 713.238 C 395.695 712.117 385.015 722.988 357.373 739.747 C 338.715 751.06 319.729 763.591 300.82 774.421 C 295.537 777.678 291.3 780.026 286.764 784.294 C 288.23 781.547 288.323 782.681 287.856 780.454 C 284.237 778.365 278.523 778.551 272.811 776.867 L 271.669 776.521 C 275.141 775.709 285.57 777.754 289.753 778.409 C 301.148 773.258 319.926 761.217 330.814 754.405 C 345.642 745.128 362.746 735.193 376.889 725.396 C 383.464 722.92 394.646 715.158 402.536 713.055 C 409.088 711.309 414.562 711.596 421.39 710.159 C 423.471 700.569 424.344 680.581 425.41 669.641 C 427.612 647.051 429.629 623.926 431.369 601.276 C 432.032 592.638 431.463 586.73 425.668 580.275 L 426.245 578.458 z" fill="rgb(120,82,82)" transform="translate(0,0)"></path>
<path d="M 244.112 575.636 C 287.736 550.412 332.857 553.321 371.071 587.487 C 375.436 591.39 379.127 598.09 383.413 601.918 C 385.677 578.533 404.649 560.921 425.711 577.815 L 423.657 578.438 C 413.998 570.056 400.829 571.913 392.099 580.826 C 387.629 585.39 386.698 601.001 383.834 604.568 C 382.767 603.921 382.289 603.785 381.476 602.905 C 378.138 599.133 376.135 595.452 372.114 591.295 C 359.101 577.84 341.61 567.504 323.423 563.177 C 298.205 557.388 271.724 561.59 249.537 574.903 L 247.775 575.846 L 244.112 575.636 z" fill="rgb(120,82,82)" transform="translate(0,0)"></path>
<path d="M 425.711 577.815 L 426.245 578.458 L 425.668 580.275 C 424.353 579.559 424.42 579.653 423.657 578.438 L 425.711 577.815 z" fill="rgb(197,134,127)" transform="translate(0,0)"></path>
<path d="M 1586.02 1048.38 C 1627.03 1067.64 1629.16 1063.97 1673.21 1063.12 C 1694.67 1063.29 1705.01 1063.78 1726.1 1060.23 L 1724.64 1062.16 C 1726.87 1066.36 1732.35 1070.61 1735.79 1074.41 C 1736.27 1074.96 1736.75 1075.52 1737.23 1076.08 C 1760.69 1109.96 1764.16 1150.38 1751.29 1189.23 C 1749.04 1196 1738.36 1218.98 1732.79 1222.07 C 1730.21 1226.27 1729.97 1226.62 1726.46 1229.94 C 1724.53 1232.03 1723.19 1233.75 1720.92 1235.46 C 1717.39 1239.17 1714.63 1241.44 1710.19 1243.98 C 1705.22 1249.51 1690.15 1256.87 1683 1259.29 C 1665.7 1267.64 1641.31 1268.03 1622.66 1265.52 C 1613.96 1263.8 1598.57 1257.83 1592.89 1250.85 C 1584.22 1244.87 1568.89 1229.19 1564.21 1220.2 C 1561.4 1217.52 1558.12 1209.6 1556.85 1205.96 C 1546.53 1189.49 1550.16 1162.91 1551.76 1144.93 C 1549.25 1146.17 1547.89 1146.51 1545.26 1147.4 L 1544.15 1148.39 C 1514.75 1164.02 1490.64 1128.04 1508.4 1111.99 C 1531.15 1091.43 1566.3 1074.04 1590.19 1053.72 L 1590.25 1052.21 L 1586.02 1048.38 z" fill="rgb(238,161,157)" transform="translate(0,0)"></path>
<path d="M 1562.15 1120.78 C 1571.06 1180.74 1609.65 1234.47 1676.48 1223.66 C 1704.24 1219.4 1729.05 1203.97 1745.14 1180.95 C 1748.25 1176.56 1750.92 1172.34 1754.2 1168.02 C 1753.84 1175.01 1750.64 1185.06 1751.29 1189.23 C 1749.04 1196 1738.36 1218.98 1732.79 1222.07 C 1730.21 1226.27 1729.97 1226.62 1726.46 1229.94 C 1724.53 1232.03 1723.19 1233.75 1720.92 1235.46 C 1717.39 1239.17 1714.63 1241.44 1710.19 1243.98 C 1705.22 1249.51 1690.15 1256.87 1683 1259.29 C 1665.7 1267.64 1641.31 1268.03 1622.66 1265.52 C 1613.96 1263.8 1598.57 1257.83 1592.89 1250.85 C 1584.22 1244.87 1568.89 1229.19 1564.21 1220.2 C 1561.4 1217.52 1558.12 1209.6 1556.85 1205.96 C 1546.53 1189.49 1550.16 1162.91 1551.76 1144.93 L 1550.96 1143.38 L 1552.07 1143.4 C 1554.96 1136.2 1558.45 1127.49 1562.15 1120.78 z" fill="rgb(227,105,105)" transform="translate(0,0)"></path>
<path d="M 1552.07 1143.4 C 1554.52 1146.96 1552.08 1155.25 1551.68 1160 C 1550.7 1171.78 1551.97 1183.47 1554.54 1194.96 C 1555.32 1198.46 1558.21 1202.91 1556.85 1205.96 C 1546.53 1189.49 1550.16 1162.91 1551.76 1144.93 L 1550.96 1143.38 L 1552.07 1143.4 z" fill="rgb(243,26,45)" transform="translate(0,0)"></path>
<path d="M 1622.66 1265.52 C 1635.82 1263.15 1654.74 1267.21 1669.01 1261.93 C 1671.8 1260.9 1680.85 1258.07 1683 1259.29 C 1665.7 1267.64 1641.31 1268.03 1622.66 1265.52 z" fill="rgb(243,26,45)" transform="translate(0,0)"></path>
<path d="M 1564.21 1220.2 C 1566.06 1221.44 1573.08 1227.7 1573.96 1229.54 C 1578.07 1238.16 1590.24 1243.53 1592.89 1250.85 C 1584.22 1244.87 1568.89 1229.19 1564.21 1220.2 z" fill="rgb(243,26,45)" transform="translate(0,0)"></path>
<path d="M 1710.19 1243.98 C 1714.1 1238.13 1714.66 1237.33 1720.92 1235.46 C 1717.39 1239.17 1714.63 1241.44 1710.19 1243.98 z" fill="rgb(243,26,45)" transform="translate(0,0)"></path>
<path d="M 1726.46 1229.94 C 1728.12 1224.5 1727.58 1224.45 1732.79 1222.07 C 1730.21 1226.27 1729.97 1226.62 1726.46 1229.94 z" fill="rgb(243,26,45)" transform="translate(0,0)"></path>
<path d="M 1586.02 1048.38 C 1627.03 1067.64 1629.16 1063.97 1673.21 1063.12 C 1694.67 1063.29 1705.01 1063.78 1726.1 1060.23 L 1724.64 1062.16 C 1726.87 1066.36 1732.35 1070.61 1735.79 1074.41 L 1733.75 1075.56 C 1730.9 1070.84 1725.54 1066.12 1721.32 1062.43 C 1706.54 1066.28 1640.09 1066.25 1624.67 1063.85 C 1613.83 1062.06 1603.26 1058.93 1593.2 1054.53 C 1573.13 1066.21 1552.71 1084.43 1532.53 1095.47 C 1505.4 1110.31 1487.6 1138.57 1527.74 1151.4 C 1531.61 1150.6 1540.68 1148.5 1544.15 1148.39 C 1514.75 1164.02 1490.64 1128.04 1508.4 1111.99 C 1531.15 1091.43 1566.3 1074.04 1590.19 1053.72 L 1590.25 1052.21 L 1586.02 1048.38 z" fill="rgb(120,82,82)" transform="translate(0,0)"></path>
<path d="M 1736.06 1077.76 L 1737.23 1076.08 C 1760.69 1109.96 1764.16 1150.38 1751.29 1189.23 C 1750.64 1185.06 1753.84 1175.01 1754.2 1168.02 C 1761.1 1142.82 1754.06 1097.2 1736.06 1077.76 z" fill="rgb(120,82,82)" transform="translate(0,0)"></path>
<path d="M 1545.26 1147.4 C 1546.63 1145.57 1547.26 1144.42 1549.56 1143.8 L 1550.96 1143.38 L 1551.76 1144.93 C 1549.25 1146.17 1547.89 1146.51 1545.26 1147.4 z" fill="rgb(197,134,127)" transform="translate(0,0)"></path>
<path d="M 1735.79 1074.41 C 1736.27 1074.96 1736.75 1075.52 1737.23 1076.08 L 1736.06 1077.76 C 1735.03 1076.86 1734.63 1076.54 1733.75 1075.56 L 1735.79 1074.41 z" fill="rgb(197,134,127)" transform="translate(0,0)"></path>
<metadata><recraft-signature>{"signed_by": "recraft", "signature_b64": "hAusSHmVbLmX8Na6dItMws+oMmeENdUTg0z9smhEAA0C+hj7xRpqEPthaxoLDaEwiqn3G5z1d+BZ4Ko5vtg8AQ==", "signing_algo": "Ed25519", "generation_timestamp": 1779005977, "identifier": "76b3c7fc-960d-423c-bc0f-651c8251bd3c"}</recraft-signature></metadata></svg>