<svg xmlns="http://www.w3.org/2000/svg" height="1216" preserveAspectRatio="none" style="display: block;" version="1.1" viewBox="0 0 1509 2048" width="896">
<path d="M 0 0 L 1509 0 L 1509 2048 L 0 2048 L 0 0 z" fill="rgb(255,255,255)" transform="translate(0,0)"></path>
<path d="M 235.842 851.503 C 236.657 825.873 238.004 800.807 242.008 775.424 C 260.888 657.356 317.921 548.721 404.384 466.133 C 502.324 373.691 632.878 323.782 767.508 327.313 C 903.966 330.579 1033.54 387.919 1127.72 486.719 C 1194.29 556.604 1240.71 643.198 1262.07 737.324 C 1270.14 771.474 1276.24 816.464 1275.87 851.728 C 1299.75 861.562 1318 877.278 1330.67 900.211 C 1378.75 987.258 1343.79 1114.91 1259.5 1166.81 C 1240.53 1178.49 1221.29 1178.84 1200.51 1172.93 C 1185.32 1250.21 1163.36 1312.46 1117.67 1377.94 C 1050.18 1474.64 941.218 1549.58 824.447 1570.03 C 714.385 1588.83 601.375 1562.85 510.576 1497.87 C 401.162 1420.94 333.039 1304.2 310.169 1173.11 C 291.782 1178.1 272.843 1178.5 255.541 1169.05 C 169.322 1121.98 132.416 997.399 174.199 909.639 C 187.789 881.093 205.8 861.597 235.842 851.503 z" fill="rgb(240,151,86)" transform="translate(0,0)"></path>
<path d="M 235.842 851.503 C 236.657 825.873 238.004 800.807 242.008 775.424 C 260.888 657.356 317.921 548.721 404.384 466.133 C 502.324 373.691 632.878 323.782 767.508 327.313 C 903.966 330.579 1033.54 387.919 1127.72 486.719 C 1194.29 556.604 1240.71 643.198 1262.07 737.324 C 1270.14 771.474 1276.24 816.464 1275.87 851.728 C 1275.95 890.194 1269.55 986.84 1220.91 1000.58 C 1186.47 1010.3 1162.82 964.047 1158.82 934.876 C 1153.31 894.64 1157.14 865.234 1181.57 830.502 C 1138.91 752.247 1078.41 694.768 999.068 653.728 C 873.485 589.464 727.655 577.207 593.107 619.608 C 482.623 655.062 382.027 726.553 328.263 831.377 C 346.003 851.821 352.187 878.881 353.427 906.219 C 356.985 936.851 337.791 1003.06 298.801 1001.52 C 241.412 999.252 235.86 886.733 235.842 851.503 z" fill="rgb(101,59,5)" transform="translate(0,0)"></path>
<path d="M 925.063 898.362 C 982.777 893.395 1043.5 935.351 1081.97 975.669 C 1041.96 1015.96 997.846 1048.94 939.437 1053.73 C 878.919 1055.44 824.284 1016.13 782.069 976.484 C 814.829 941.95 877.374 904.298 925.063 898.362 z" fill="rgb(255,255,255)" transform="translate(0,0)"></path>
<path d="M 925.687 912.051 C 947.375 908.986 969.039 917.808 982.416 935.154 C 995.792 952.499 998.82 975.693 990.345 995.891 C 981.87 1016.09 963.197 1030.18 941.449 1032.78 C 908.313 1036.75 878.156 1013.31 873.836 980.215 C 869.516 947.123 892.642 916.721 925.687 912.051 z" fill="rgb(101,59,5)" transform="translate(0,0)"></path>
<path d="M 429.499 975.985 C 467.122 938.25 531.717 898.597 586.793 897.349 C 629.407 896.383 691.967 937.959 721.853 968.263 C 724.543 970.938 727.153 973.692 729.678 976.524 C 701.256 1004.08 679.339 1023.12 642.457 1039.51 C 598.13 1059.2 568.433 1059.54 524.02 1041.61 C 522.092 1039.33 516.178 1027.69 513.194 1023.12 C 511.439 1025.41 508.711 1030.33 507.133 1032.98 C 479.35 1016.25 452.141 999.774 429.499 975.985 z" fill="rgb(255,255,255)" transform="translate(0,0)"></path>
<path d="M 572.305 912.269 C 605.491 906.932 636.708 929.545 641.982 962.742 C 647.256 995.938 624.584 1027.11 591.377 1032.32 C 558.259 1037.52 527.187 1014.92 521.927 981.814 C 516.667 948.706 539.207 917.591 572.305 912.269 z" fill="rgb(101,59,5)" transform="translate(0,0)"></path>
<path d="M 847.075 747.338 C 877.112 744.83 925.97 757.182 953.587 768.97 C 1027.36 800.461 1079.13 846.829 1109.89 920.78 C 1100.82 912.904 1092.73 907.03 1082.74 900.5 C 1045.66 877.234 1012.45 857.174 969.727 845.09 C 940.288 836.763 912.012 830.836 881.33 828.818 C 866.386 827.583 851.703 828.923 836.814 826.781 C 808.694 822.733 789.912 792.068 809.095 767.792 C 819.461 754.674 830.827 749.615 847.075 747.338 z" fill="rgb(101,59,5)" transform="translate(0,0)"></path>
<path d="M 644.187 747.412 C 674.396 743.403 713.147 759.803 707.628 796.801 C 704.724 813.532 683.152 828.23 667.192 827.828 C 583.071 825.709 512.12 848.38 441.44 892.48 C 428.122 901.177 415.079 911.375 402.353 920.993 C 411.783 895.657 425.345 872.057 442.488 851.152 C 490.548 793.53 569.797 754.245 644.187 747.412 z" fill="rgb(101,59,5)" transform="translate(0,0)"></path>
<path d="M 507.133 1032.98 C 508.711 1030.33 511.439 1025.41 513.194 1023.12 C 516.178 1027.69 522.092 1039.33 524.02 1041.61 C 541.012 1072.78 555.403 1103.07 566.415 1136.98 C 573.621 1159.17 577.197 1184.13 565.83 1205.67 C 558.452 1219.66 545.702 1230.05 530.509 1234.46 C 514.851 1239.1 497.988 1237.3 483.664 1229.46 C 469.259 1221.44 458.675 1207.97 454.284 1192.08 C 442.036 1149.07 485.907 1070.92 507.133 1032.98 z" fill="rgb(105,183,225)" transform="translate(0,0)"></path>
<path d="M 736.206 1269.4 C 742.981 1268.41 754.431 1268.54 761.105 1268.71 C 835.81 1270.64 903.931 1313.33 949.462 1370.85 C 956.545 1379.8 961.262 1392.12 945.998 1398.27 C 936.662 1402.03 927.494 1387.72 922.033 1381.25 C 885.169 1337.55 834.079 1303.32 775.853 1296.97 C 714.089 1286.73 644.657 1322.74 602.819 1365.34 C 592.678 1375.67 582.876 1393.53 570.188 1398.45 C 562.558 1401.42 551.476 1388.99 555.405 1381.15 C 557.786 1375.07 560.748 1369.97 565.324 1364.94 C 609.19 1314.03 668.234 1275.94 736.206 1269.4 z" fill="rgb(101,59,5)" transform="translate(0,0)"></path>
<metadata><recraft-signature>{"signed_by": "recraft", "signature_b64": "abppd41WWS3+wMBW3LBbSMb/qRK0V5iCHyTP9+HsJGGAdx8f7V0iY4tz4i73V+GMJibJ+rmrD/B7VpKekm85Ag==", "signing_algo": "Ed25519", "generation_timestamp": 1779006274, "identifier": "d013f524-819d-4455-bc3a-414ff4906f07"}</recraft-signature></metadata></svg>