<svg xmlns="http://www.w3.org/2000/svg" height="1216" preserveAspectRatio="none" style="display: block;" version="1.1" viewBox="0 0 1509 2048" width="896">
<defs>
	<linearGradient gradientUnits="userSpaceOnUse" id="Gradient1" x1="8.95644" x2="21.0399" y1="662.782" y2="665.729">
		<stop class="stop0" offset="0" stop-color="rgb(2,1,1)" stop-opacity="1"></stop>
		<stop class="stop1" offset="1" stop-color="rgb(32,19,15)" stop-opacity="1"></stop>
	</linearGradient>
</defs>
<path d="M 0 0 L 659.456 0 L 720.622 0 L 1509 0 L 1509 1342.21 L 1509 1351.47 L 1509 2048 L 641.748 2048 L 618.123 2048 L 0 2048 L 0 728.875 L 0 707.165 L 0 0 z" fill="rgb(206,152,124)" transform="translate(0,0)"></path>
<path d="M 720.622 0 L 1509 0 L 1509 1342.21 L 1509 1351.47 L 1509 2048 L 641.748 2048 C 649.49 2046.07 657.728 2045.12 665.59 2043.06 C 727.098 2026.98 783.679 1970.18 796.676 1907.59 C 802.292 1880.54 806.238 1852.47 811.635 1825.24 C 843.724 1852.28 881.327 1857.02 917.299 1833.56 C 940.709 1818.24 957.046 1794.22 962.693 1766.81 C 968.782 1736.05 962.141 1712.42 945.077 1687.06 C 955.651 1665.94 956.402 1647.49 951.551 1624.65 C 985.266 1614.8 1010.78 1592.3 1018.17 1556.56 C 1025.59 1520.66 1004.4 1484.54 967.37 1477.83 C 947.702 1474.26 931.024 1481.04 915.109 1492.52 C 882.026 1467.94 856.426 1473.95 817.653 1473.85 L 716.569 1473.69 C 718.3 1464.32 719.783 1454.51 721.403 1445.07 C 726.024 1444.84 730.641 1444.55 735.252 1444.17 C 790.009 1439.82 916.068 1410.38 888.7 1327.59 C 885.526 1317.99 877.374 1309.83 869.713 1303.48 C 887.596 1295.73 903.257 1286.97 919.813 1276.81 C 965.984 1250.08 1013.46 1208.66 1048.09 1168.33 C 1066.29 1170.2 1088.28 1168.39 1106.85 1168.92 C 1124.91 1169.44 1146.78 1169.21 1163.88 1163.9 C 1235.06 1141.76 1268.22 1067.49 1273.22 998.438 C 1275.35 966.497 1273.83 933.331 1274.29 901.421 C 1350.4 856.282 1400.43 739.92 1364.29 655.653 C 1344.89 610.41 1304.71 586.8 1257.3 607.019 C 1256.19 590.021 1252.23 570.388 1249.18 553.343 C 1203.73 299.85 1026.36 46.1388 757.453 4.39684 C 745.324 2.5141 732.848 1.91828 720.622 0 z" fill="rgb(253,253,253)" transform="translate(0,0)"></path>
<path d="M 1111.7 1261.08 C 1150.6 1212.35 1197.82 1187.72 1259.61 1178.75 C 1354.79 1164.94 1470.83 1209.2 1502.49 1306.86 C 1505.97 1317.58 1507.45 1331.02 1509 1342.21 L 1509 1351.47 C 1508.01 1360.07 1507 1370.74 1504.77 1378.95 C 1474.29 1490.96 1338.56 1535.39 1235.46 1510.81 C 1159.65 1492.73 1089.99 1437.94 1082.42 1358.61 C 1062.87 1336.97 1043.47 1315.18 1024.25 1293.24 C 1013.78 1281.39 1000.17 1264.93 988.845 1254.78 C 1026.7 1258.15 1073.38 1259.56 1111.7 1261.08 z" fill="rgb(54,32,17)" transform="translate(0,0)"></path>
<path d="M 1276.08 1180.41 C 1301.41 1178.5 1326.89 1180.39 1351.67 1186.01 C 1403.71 1197.79 1454.59 1227.23 1483.49 1273.15 C 1503.16 1303.93 1509.65 1341.31 1501.51 1376.92 C 1483.13 1455.97 1399.39 1504.94 1323.37 1512.38 C 1289.98 1515.64 1264.09 1513.72 1231.53 1506.23 C 1158.1 1484.8 1093.95 1438.77 1085.5 1357 C 1077.2 1349.18 1064.48 1333.88 1056.51 1324.85 C 1037.14 1302.71 1017.58 1280.75 997.835 1258.95 C 1033.9 1260.89 1078.31 1261.73 1113.47 1264.79 C 1116.54 1260.4 1119.8 1256.15 1123.24 1252.05 C 1160.45 1207.42 1219.54 1185.63 1276.08 1180.41 z" fill="rgb(253,253,253)" transform="translate(0,0)"></path>
<path d="M 1255.52 1260.4 C 1258.6 1260.52 1258.64 1260.55 1261.61 1261.46 C 1262.16 1262.11 1262.82 1262.9 1263.6 1263.82 C 1264.65 1284.98 1264.28 1315.79 1264.65 1336.27 C 1275.55 1322.88 1293.08 1313.93 1307.87 1329.02 C 1319.8 1341.19 1315.72 1364.37 1316.57 1379.82 C 1316.89 1385.7 1317.31 1397.75 1312.73 1401.76 C 1309.06 1402 1310.52 1402.27 1307.22 1400.37 C 1303.47 1395.28 1305.13 1361.54 1305.18 1353.81 C 1304.91 1341.38 1295.89 1329.59 1282.1 1334.22 C 1265.75 1339.71 1263.76 1357.52 1264.17 1372.21 C 1264.42 1381.08 1266.52 1391.23 1263.14 1399.48 C 1262.22 1401.73 1259.96 1401.84 1258.13 1402.13 C 1253.18 1399.92 1253.34 1387.83 1253.87 1383.3 C 1256.32 1362.43 1249.3 1274.5 1255.52 1260.4 z" fill="rgb(13,7,6)" transform="translate(0,0)"></path>
<path d="M 1349.75 1259.88 C 1351.97 1260.47 1352.34 1260.76 1354.32 1261.8 C 1357.36 1267.53 1355.61 1325.87 1355.41 1336.85 C 1362.13 1328.16 1370.42 1320.37 1382.02 1321.5 C 1413.28 1324.54 1406.75 1363.09 1407.49 1384.73 C 1407.7 1390.66 1408.34 1399.88 1402.69 1402.2 C 1392.74 1399.4 1396.44 1364.45 1396.57 1353.82 C 1395.47 1336.95 1380.6 1325.91 1365.47 1337.79 C 1349.28 1350.52 1361.82 1392.33 1351.98 1401.82 C 1348.54 1402.16 1350.17 1402.45 1346.98 1400.67 C 1342.62 1394.68 1346.3 1302.1 1344.89 1288.69 C 1344.35 1283.52 1345.1 1270.32 1345.34 1264.68 C 1345.44 1262.38 1348.05 1261.04 1349.75 1259.88 z" fill="rgb(13,7,6)" transform="translate(0,0)"></path>
<path d="M 1199.51 1323.08 C 1208.57 1322.57 1229.54 1323.7 1229.49 1338.52 C 1229.49 1340.17 1228.7 1340.14 1227.32 1341 C 1220.36 1340.2 1213.98 1333.65 1206.57 1332.13 C 1198.85 1330.55 1192.02 1334.58 1190.75 1342.62 C 1193.67 1355.75 1215.2 1355.95 1223.64 1363 C 1244.82 1380.7 1229.7 1399.85 1207.13 1402.61 C 1196.12 1402.27 1181.49 1399.21 1177.53 1387.21 C 1179.95 1373.78 1195.42 1393.66 1202.55 1393.43 C 1211.42 1393.15 1223.47 1389.44 1223.73 1379.09 C 1219.44 1369.66 1205.97 1367.22 1197.14 1363.48 C 1174.02 1353.68 1175.18 1331.45 1199.51 1323.08 z" fill="rgb(13,7,6)" transform="translate(0,0)"></path>
<path d="M 0 728.875 C 0.82915 734.092 1.58327 739.321 2.26213 744.559 C 8.84056 804.905 46.3828 865.152 96.8127 898.706 C 96.8062 943.619 94.4711 990.286 102.572 1033.17 C 116.86 1108.8 168.44 1171.2 251.038 1168.96 C 260.054 1168.72 317.326 1167.71 321.725 1168.94 C 373.126 1229.39 432.706 1271.8 504.42 1304.94 C 476.021 1334.82 475.761 1365.8 506.007 1395 C 531.059 1419.18 566.736 1432.79 600.518 1439.26 C 596.968 1459.81 590.653 1490.56 588.568 1510.52 C 559.537 1547.25 561.488 1567.45 554.355 1611.04 C 548.267 1646.32 542.496 1681.66 537.045 1717.05 L 517.04 1842.9 C 513.141 1866.85 508.896 1890.71 505.605 1914.88 C 497.481 1974.56 540.452 2031.74 598.677 2044.17 C 605.156 2045.55 611.619 2046.79 618.123 2048 L 0 2048 L 0 728.875 z" fill="rgb(253,253,253)" transform="translate(0,0)"></path>
<path d="M 0 0 L 659.456 0 L 720.622 0 C 732.848 1.91828 745.324 2.5141 757.453 4.39684 C 1026.36 46.1388 1203.73 299.85 1249.18 553.343 C 1252.23 570.388 1256.19 590.021 1257.3 607.019 C 1304.71 586.8 1344.89 610.41 1364.29 655.653 C 1400.43 739.92 1350.4 856.282 1274.29 901.421 C 1273.83 933.331 1275.35 966.497 1273.22 998.438 C 1268.22 1067.49 1235.06 1141.76 1163.88 1163.9 C 1146.78 1169.21 1124.91 1169.44 1106.85 1168.92 C 1088.28 1168.39 1066.29 1170.2 1048.09 1168.33 C 1013.46 1208.66 965.984 1250.08 919.813 1276.81 L 917.05 1274.77 C 918.247 1274.09 919.434 1273.39 920.611 1272.68 C 1052.18 1192.27 1147.36 1044.99 1183.09 896.619 C 1184.86 897.994 1186.65 899.342 1188.46 900.662 C 1203.28 911.435 1217.45 916.175 1235.87 913.056 C 1274.01 906.596 1309.16 873.252 1331.01 842.811 C 1361.52 800.313 1379.63 742.174 1370.9 689.902 C 1366.26 662.13 1353.54 632.238 1329.87 615.709 C 1314.43 604.934 1295.82 600.719 1277.36 604.186 C 1246.81 609.925 1222.2 631.165 1204.93 655.893 C 1200.84 631.471 1199.02 603.093 1194.8 576.95 C 1182.65 498.316 1161.88 421.259 1132.87 347.17 C 1099.28 344.772 1070.91 340.332 1039.07 328.306 C 970.063 302.241 906.363 250.459 874.736 183.247 C 864.622 195.596 854.559 207.58 842.376 217.967 C 732.127 311.976 571.384 322.915 437.222 355.011 C 361.368 373.065 287.178 397.504 215.445 428.067 C 191.628 502.167 180.053 577.802 170.812 654.713 C 154.758 634.243 145.227 626.358 123.913 612.693 L 121.876 608.55 C 86.317 594.54 55.6873 595.804 29.5425 626.952 C 5.03232 655.872 6.66832 675.329 0 707.165 L 0 0 z" fill="rgb(54,32,17)" transform="translate(0,0)"></path>
<path d="M 0 0 L 659.456 0 C 624.417 4.69341 599.089 6.9401 563.838 16.3889 C 445.1 48.2163 345.913 125.404 272.091 221.997 C 205.922 309.796 159.592 410.907 136.298 518.352 C 129.236 549.584 123.927 576.407 121.876 608.55 C 86.317 594.54 55.6873 595.804 29.5425 626.952 C 5.03232 655.872 6.66832 675.329 0 707.165 L 0 0 z" fill="rgb(253,253,253)" transform="translate(0,0)"></path>
<path d="M 645.716 1053.64 C 650.985 1048.47 657.065 1042.68 664.138 1040.23 C 704.62 1026.26 730.735 1056.37 741.59 1090.61 C 787.138 1091.59 808.405 1093.72 851.917 1105.45 C 817.331 1120.63 780.712 1126.08 743.128 1126.85 L 743.254 1229.49 C 743.278 1252.06 743.571 1274.9 743.168 1297.45 C 742.937 1310.4 739.669 1326.64 737.505 1339.5 C 790.18 1330.09 836.102 1317.35 884.2 1292.97 C 893.072 1288.47 909.059 1280.42 917.05 1274.77 L 919.813 1276.81 C 903.257 1286.97 887.596 1295.73 869.713 1303.48 C 877.374 1309.83 885.526 1317.99 888.7 1327.59 C 916.068 1410.38 790.009 1439.82 735.252 1444.17 C 730.641 1444.55 726.024 1444.84 721.403 1445.07 C 719.783 1454.51 718.3 1464.32 716.569 1473.69 L 817.653 1473.85 C 856.426 1473.95 882.026 1467.94 915.109 1492.52 C 931.024 1481.04 947.702 1474.26 967.37 1477.83 C 1004.4 1484.54 1025.59 1520.66 1018.17 1556.56 C 1010.78 1592.3 985.266 1614.8 951.551 1624.65 C 956.402 1647.49 955.651 1665.94 945.077 1687.06 C 962.141 1712.42 968.782 1736.05 962.693 1766.81 C 957.046 1794.22 940.709 1818.24 917.299 1833.56 C 881.327 1857.02 843.724 1852.28 811.635 1825.24 C 806.238 1852.47 802.292 1880.54 796.676 1907.59 C 783.679 1970.18 727.098 2026.98 665.59 2043.06 C 657.728 2045.12 649.49 2046.07 641.748 2048 L 618.123 2048 C 611.619 2046.79 605.156 2045.55 598.677 2044.17 C 540.452 2031.74 497.481 1974.56 505.605 1914.88 C 508.896 1890.71 513.141 1866.85 517.04 1842.9 L 537.045 1717.05 C 542.496 1681.66 548.267 1646.32 554.355 1611.04 C 561.488 1567.45 559.537 1547.25 588.568 1510.52 C 590.653 1490.56 596.968 1459.81 600.518 1439.26 C 566.736 1432.79 531.059 1419.18 506.007 1395 C 475.761 1365.8 476.021 1334.82 504.42 1304.94 C 432.706 1271.8 373.126 1229.39 321.725 1168.94 L 323.919 1167 C 404.413 1259.61 498.638 1310.98 617.648 1336.6 C 626.873 1283.06 638.442 1231.52 638.712 1177.14 C 638.792 1161.04 640.8 1144.29 641.052 1128.17 C 590.767 1124.67 574.251 1121.27 528.071 1105.36 C 571.578 1091.47 598.18 1092.04 643.432 1090.1 C 644.041 1078.21 644.469 1065.4 645.716 1053.64 z" fill="rgb(13,7,6)" transform="translate(0,0)"></path>
<path d="M 660.203 1477.36 C 670.19 1476.05 692.023 1476.45 702.75 1476.45 C 728.912 1476.38 755.073 1476.49 781.233 1476.76 C 805.512 1476.95 845.63 1475.37 867.79 1477.03 C 876.089 1477.59 884.257 1479.39 892.025 1482.36 C 911.539 1489.91 927.288 1504.9 935.127 1524.18 C 945.624 1550 944.303 1568.12 934.489 1592.99 L 934.066 1592.51 C 919.435 1576.03 895.753 1562.64 874.35 1563.4 C 858.044 1563.98 713.788 1561.15 709.622 1564.9 C 709.945 1565.41 710.048 1566.17 710.591 1566.43 C 715.968 1569.09 854.752 1564.07 880.846 1567.2 C 889.771 1568.28 898.46 1570.81 906.568 1574.69 C 947.249 1594.1 962.264 1644.97 942.898 1684.85 C 932.328 1673.79 923.254 1666.26 908.722 1660.64 C 901.37 1657.85 893.659 1656.13 885.82 1655.51 C 872.045 1654.37 776.672 1653.66 769.175 1656.92 C 780.761 1662.06 868.206 1655.21 888.271 1658.9 C 983.84 1676.46 984.682 1798.85 901.407 1838.7 C 866.07 1852.21 840.131 1845.31 812.081 1821.53 C 821.348 1796.18 836.299 1773.47 864.896 1768.5 C 873.338 1767.03 904.726 1769.44 909.444 1766.68 C 903.464 1763.59 870.612 1764.54 863.461 1765.91 C 795.695 1779.71 806.699 1868.26 790.597 1919.33 C 761.263 2012.36 641.484 2085.7 553.392 2019.52 C 529.278 2001.68 513.33 1974.92 509.12 1945.22 C 507.775 1935.68 507.639 1926.01 508.717 1916.43 C 510.946 1894.74 516.54 1866.17 520.087 1844.17 L 540.034 1718 L 556.279 1618.55 C 559.454 1598.65 561.875 1575.04 567.12 1555.95 C 579.266 1511.75 616.384 1483.03 660.203 1477.36 z" fill="rgb(206,152,124)" transform="translate(0,0)"></path>
<path d="M 676.277 1040.14 C 710.443 1038.69 734.496 1063.32 738.95 1096.62 C 740.656 1109.37 740.009 1121.96 740.016 1134.81 L 740.074 1193.92 L 740.12 1264.35 C 740.125 1274.5 741.204 1294.56 739.657 1303.73 C 730.205 1359.75 723.659 1417.49 713.237 1473.23 C 670.381 1473.05 642.116 1469.84 604.825 1495.74 C 600.908 1498.69 595.954 1503.44 592.196 1506.84 L 625.475 1310.2 C 629.925 1283.48 636.335 1251.9 639.451 1225.5 C 641.569 1207.54 642.006 1178.92 642.829 1160.12 C 655.956 1158.74 665.607 1156.15 676.398 1148.16 C 688.268 1139.41 696.058 1126.2 697.97 1111.58 C 702.051 1080.79 683.234 1055.13 652.079 1051.53 C 662.051 1044.65 664.581 1042.75 676.277 1040.14 z" fill="rgb(206,152,124)" transform="translate(0,0)"></path>
<path d="M 865.898 1304.98 C 867.252 1305.66 867.75 1305.93 868.986 1306.87 C 880.541 1315.58 888.039 1328.63 889.74 1342.99 C 897.702 1406.41 794.944 1434.92 746.761 1440.05 C 738.119 1441.14 730.254 1441.63 721.572 1442.18 L 737.23 1341.92 C 781.637 1335.69 824.949 1323.25 865.898 1304.98 z" fill="rgb(250,162,12)" transform="translate(0,0)"></path>
<path d="M 507.399 1306.24 C 542.766 1321.43 579.737 1332.56 617.608 1339.43 C 613.943 1360.8 610.412 1382.2 607.012 1403.61 C 605.967 1409.96 602.775 1430.61 600.745 1435.42 L 598.683 1435.73 C 591.462 1434.03 584.318 1432.28 577.173 1430.28 C 522.637 1415 449.555 1365.01 507.399 1306.24 z" fill="rgb(250,162,12)" transform="translate(0,0)"></path>
<path d="M 951.555 1480.31 C 959.255 1479.62 967.013 1480.47 974.386 1482.79 C 989.342 1487.43 1001.84 1497.82 1009.13 1511.68 C 1030.35 1551.95 1005.43 1595.94 967.911 1615.42 C 962.303 1618.03 956.708 1620.24 950.981 1622.55 C 946.593 1611.95 943.231 1604.62 936.54 1595.14 C 954.809 1561.87 944.772 1519.51 917.401 1494.38 C 929.183 1485.5 937.177 1482.61 951.555 1480.31 z" fill="rgb(178,127,101)" transform="translate(0,0)"></path>
<path d="M 648.723 1054.77 C 650.215 1054.71 651.708 1054.69 653.202 1054.72 C 663.799 1054.96 674.722 1060.93 681.836 1068.61 C 691.278 1078.88 696.104 1092.57 695.189 1106.49 C 694.305 1122.27 687.826 1134.23 676.181 1144.53 C 664.066 1153.35 657.289 1154.62 642.898 1157.26 C 643.842 1127.4 645.843 1084.05 648.723 1054.77 z" fill="rgb(206,152,124)" transform="translate(0,0)"></path>
<path d="M 608.549 1094.42 C 618.915 1093.58 632.537 1093.67 643.161 1093.46 C 642.907 1103.81 642.059 1114.56 641.376 1124.92 C 623.041 1124.21 599.162 1121.31 581.226 1117.85 C 565.003 1114.46 553.651 1111.06 537.936 1105.7 C 559.248 1098.1 586.255 1095.94 608.549 1094.42 z" fill="rgb(206,152,124)" transform="translate(0,0)"></path>
<path d="M 742.097 1093.92 C 778.953 1093.55 807.467 1097.05 842.83 1105.8 C 838.445 1107.59 833.294 1109.26 828.778 1110.84 C 800.409 1119.99 772.721 1122.49 743.191 1123.6 C 743.141 1113.67 743.505 1103.75 742.097 1093.92 z" fill="rgb(206,152,124)" transform="translate(0,0)"></path>
<path d="M 2.26213 744.559 C 2.91292 741.42 3.44871 735.106 3.8187 731.732 C 11.6376 795.465 36.2021 847.183 87.2788 887.557 C 117.524 911.466 158.251 927.958 189.978 896.814 C 210.374 993.992 262.078 1090.07 323.919 1167 L 321.725 1168.94 C 317.326 1167.71 260.054 1168.72 251.038 1168.96 C 168.44 1171.2 116.86 1108.8 102.572 1033.17 C 94.4711 990.286 96.8062 943.619 96.8127 898.706 C 46.3828 865.152 8.84056 804.905 2.26213 744.559 z" fill="rgb(54,32,17)" transform="translate(0,0)"></path>
<path d="M 29.5425 626.952 L 31.3814 629.229 C 7.23891 660.748 2.03506 693.239 3.8187 731.732 C 3.44871 735.106 2.91292 741.42 2.26213 744.559 C 1.58327 739.321 0.82915 734.092 0 728.875 L 0 707.165 C 6.66832 675.329 5.03232 655.872 29.5425 626.952 z" fill="url(#Gradient1)" transform="translate(0,0)"></path>
<path d="M 29.5425 626.952 C 55.6873 595.804 86.317 594.54 121.876 608.55 L 123.913 612.693 C 87.8434 595.689 58.5755 600.107 31.3814 629.229 L 29.5425 626.952 z" fill="rgb(13,7,6)" transform="translate(0,0)"></path>
<path d="M 439.67 574.545 C 455.011 570.924 484.069 570.474 498.706 575.513 C 556.781 587.056 599.746 624.104 640.619 664.123 C 598.715 705.577 544.176 748.218 483.289 754.36 C 479.137 755.373 463.891 756.438 460.213 755.143 L 458.746 755.15 C 396.217 755.223 334.96 706.25 293.191 664.425 C 331.669 624.677 383.905 584.748 439.67 574.545 z" fill="rgb(54,32,17)" transform="translate(0,0)"></path>
<path d="M 293.191 664.425 C 331.669 624.677 383.905 584.748 439.67 574.545 L 437.931 578.21 C 438.117 577.717 413.658 599.519 410.099 604.678 C 377.878 651.386 391.052 724.659 444.939 748.699 C 447.323 749.338 451.685 750.23 453.283 752.153 C 455.563 752.916 458.202 753.801 460.213 755.143 L 458.746 755.15 C 396.217 755.223 334.96 706.25 293.191 664.425 z" fill="rgb(253,253,253)" transform="translate(0,0)"></path>
<path d="M 293.191 664.425 C 331.669 624.677 383.905 584.748 439.67 574.545 L 437.931 578.21 C 386.967 587.808 332.646 627.219 298.027 664.51 C 338.667 705.431 383.11 739.581 441.18 750.718 C 443.282 750.338 443.205 750.144 444.939 748.699 C 447.323 749.338 451.685 750.23 453.283 752.153 C 455.563 752.916 458.202 753.801 460.213 755.143 L 458.746 755.15 C 396.217 755.223 334.96 706.25 293.191 664.425 z" fill="rgb(13,7,6)" transform="translate(0,0)"></path>
<path d="M 444.939 748.699 C 447.323 749.338 451.685 750.23 453.283 752.153 C 449.216 752.011 445.167 751.532 441.18 750.718 C 443.282 750.338 443.205 750.144 444.939 748.699 z" fill="rgb(205,194,189)" transform="translate(0,0)"></path>
<path d="M 498.706 575.513 C 556.781 587.056 599.746 624.104 640.619 664.123 C 598.715 705.577 544.176 748.218 483.289 754.36 L 484.122 751.954 C 487.669 749.664 489.581 749.123 493.437 747.638 C 545.228 723.985 558.475 649.823 527.603 605.211 C 520.04 594.281 510.213 587.327 500.342 578.962 L 497.929 577.352 L 498.706 575.513 z" fill="rgb(253,253,253)" transform="translate(0,0)"></path>
<path d="M 498.706 575.513 C 556.781 587.056 599.746 624.104 640.619 664.123 C 598.715 705.577 544.176 748.218 483.289 754.36 L 484.122 751.954 C 487.669 749.664 489.581 749.123 493.437 747.638 L 494.867 749.668 C 550.382 739.171 596.512 702.585 635.689 664.293 C 595.377 622.663 556.967 593.974 500.342 578.962 L 497.929 577.352 L 498.706 575.513 z" fill="rgb(13,7,6)" transform="translate(0,0)"></path>
<path d="M 484.122 751.954 C 487.669 749.664 489.581 749.123 493.437 747.638 L 494.867 749.668 C 491.622 750.784 487.544 751.425 484.122 751.954 z" fill="rgb(205,194,189)" transform="translate(0,0)"></path>
<path d="M 461.533 626.54 C 479.948 622.468 498.177 634.092 502.254 652.505 C 506.331 670.918 494.712 689.151 476.3 693.233 C 457.881 697.316 439.639 685.692 435.561 667.271 C 431.483 648.851 443.112 630.613 461.533 626.54 z" fill="rgb(253,253,253)" transform="translate(0,0)"></path>
<path d="M 882.616 575.238 C 899.598 572.497 922.56 569.184 939.073 574.617 C 994.256 584.007 1049.44 623.688 1086.51 664.297 C 1044.23 706.799 991.172 748.336 929.202 754.309 C 924.897 755.287 909.104 756.579 905.358 755.187 C 892.034 755.543 876.108 751.163 863.375 747.101 C 813.07 731.053 776.962 699.836 739.533 664.129 C 780.598 620.465 824.439 589.965 882.616 575.238 z" fill="rgb(54,32,17)" transform="translate(0,0)"></path>
<path d="M 739.533 664.129 C 780.598 620.465 824.439 589.965 882.616 575.238 L 880.637 579.106 C 878.952 581.844 878.229 581.894 875.592 583.866 C 853.705 601.889 841.014 622.962 838.345 651.667 C 835.64 678.573 843.821 705.442 861.063 726.275 C 868.099 734.642 875.133 740.153 884.29 745.93 C 885.032 746.271 885.769 746.621 886.502 746.98 C 889.964 748.646 893.567 749.996 896.829 752.022 C 900.626 752.843 902.259 752.928 905.358 755.187 C 892.034 755.543 876.108 751.163 863.375 747.101 C 813.07 731.053 776.962 699.836 739.533 664.129 z" fill="rgb(253,253,253)" transform="translate(0,0)"></path>
<path d="M 739.533 664.129 C 780.598 620.465 824.439 589.965 882.616 575.238 L 880.637 579.106 C 878.952 581.844 878.229 581.894 875.592 583.866 L 871.927 581.081 C 822.937 597.028 779.052 625.681 744.747 664.12 C 783.634 704.098 827.732 735.475 882.491 749.437 L 884.29 745.93 C 885.032 746.271 885.769 746.621 886.502 746.98 C 889.964 748.646 893.567 749.996 896.829 752.022 C 900.626 752.843 902.259 752.928 905.358 755.187 C 892.034 755.543 876.108 751.163 863.375 747.101 C 813.07 731.053 776.962 699.836 739.533 664.129 z" fill="rgb(13,7,6)" transform="translate(0,0)"></path>
<path d="M 884.29 745.93 C 885.032 746.271 885.769 746.621 886.502 746.98 C 889.964 748.646 893.567 749.996 896.829 752.022 C 892.097 751.178 887.169 750.438 882.491 749.437 L 884.29 745.93 z" fill="rgb(205,194,189)" transform="translate(0,0)"></path>
<path d="M 880.637 579.106 C 878.952 581.844 878.229 581.894 875.592 583.866 L 871.927 581.081 C 875.249 580.377 876.948 579.598 880.637 579.106 z" fill="rgb(205,194,189)" transform="translate(0,0)"></path>
<path d="M 939.073 574.617 C 994.256 584.007 1049.44 623.688 1086.51 664.297 C 1044.23 706.799 991.172 748.336 929.202 754.309 L 932.199 751.515 C 934.522 749.712 939.957 747.352 942.833 745.923 C 995.106 714.609 1004.65 639.773 964.064 594.806 C 958.423 588.555 950.825 583.96 944.301 578.682 C 941.104 577.43 941.037 577.351 939.073 574.617 z" fill="rgb(253,253,253)" transform="translate(0,0)"></path>
<path d="M 939.073 574.617 C 994.256 584.007 1049.44 623.688 1086.51 664.297 C 1044.23 706.799 991.172 748.336 929.202 754.309 L 932.199 751.515 C 934.522 749.712 939.957 747.352 942.833 745.923 L 944.207 749.357 C 1002.47 733.826 1039.86 707.151 1082.08 664.224 C 1044.34 622.876 998.468 592.921 944.301 578.682 C 941.104 577.43 941.037 577.351 939.073 574.617 z" fill="rgb(13,7,6)" transform="translate(0,0)"></path>
<path d="M 942.833 745.923 L 944.207 749.357 C 938.992 750.546 937.235 750.718 932.199 751.515 C 934.522 749.712 939.957 747.352 942.833 745.923 z" fill="rgb(205,194,189)" transform="translate(0,0)"></path>
<path d="M 908.261 625.23 C 925.654 623.492 938.839 629.284 946.045 645.995 C 949.791 654.785 949.84 664.714 946.182 673.54 C 941.485 685.005 934.516 690.1 923.693 694.667 C 906.473 696.563 891.466 691.84 885.35 674.822 C 877.14 651.981 886.383 633.065 908.261 625.23 z" fill="rgb(253,253,253)" transform="translate(0,0)"></path>
<path d="M 683.081 810.363 C 724.331 806.389 756.404 832.833 772.168 869.047 C 779.586 872.96 784.576 876.651 789.54 883.663 C 795.947 892.525 798.476 903.612 796.545 914.376 C 794.774 924.245 789.138 933 780.886 938.697 C 768.971 946.827 757.579 945.38 744.339 942.943 C 728.504 956.663 719.267 961.46 698.586 964.953 C 696.575 965.167 694.556 965.294 692.534 965.335 C 668.946 966.011 653.15 959.319 636.181 943.39 C 627.449 945.124 619.942 946.045 611.227 943.647 C 601.683 941.028 593.578 934.712 588.707 926.097 C 576.997 905.433 586.88 881.237 606.932 870.267 C 610.391 860.588 615.373 851.523 621.691 843.414 C 637.678 823.123 657.81 813.281 683.081 810.363 z" fill="rgb(13,7,6)" transform="translate(0,0)"></path>
<path d="M 686.747 813.441 C 696.475 812.3 713.124 815.975 722.086 820.068 C 746.75 831.331 759.706 846.898 769.511 871.345 C 777.049 875.475 781.747 878.309 786.869 885.473 C 792.678 893.588 795.005 903.687 793.332 913.526 C 789.065 938.328 768.377 943.939 746.496 940.263 C 749.058 937.482 754.193 932.673 754.205 929.242 C 753.596 929.016 752.987 928.79 752.377 928.564 C 748.806 932.271 740.137 942.161 736.759 944.923 C 723.823 955.501 712.368 959.274 696.579 962.015 C 673.641 962.933 657.359 958.303 639.545 942.473 C 634.948 938.388 630.598 931.603 625.627 928.362 L 624.627 929.562 C 626.21 933.647 630.29 937.667 633.322 941.107 C 616.06 943.387 600.206 940.721 591.146 923.987 C 586.63 915.565 585.699 905.678 588.563 896.561 C 592.141 885.027 599.525 877.871 609.852 872.321 C 622.187 836.448 649.26 816.428 686.747 813.441 z" fill="rgb(206,152,124)" transform="translate(0,0)"></path>
<path d="M 464.749 449.411 C 505.577 442.401 567.033 461.497 603.764 477.863 C 619.873 485.04 625.675 508.991 615.872 523.679 C 598.648 549.49 575.498 531.396 553.91 524.304 C 504.4 507.396 458.58 503.529 407.786 515.96 C 376.579 524.398 347.359 538.95 321.821 558.771 C 313.558 565.297 303.507 576.501 294.45 580.503 C 291.443 580.583 289.647 580.3 287.09 578.357 C 285.424 577.072 284.38 575.143 284.214 573.046 C 283.51 563.911 297.23 547.77 303.199 540.616 C 343.556 492.248 401.222 455.427 464.749 449.411 z" fill="rgb(54,32,17)" transform="translate(0,0)"></path>
<path d="M 878.357 449.395 C 906.007 445.076 943.474 452.479 969.331 462.097 C 1013.66 479.076 1052.61 507.662 1082.1 544.859 C 1087.57 551.849 1091.66 557.236 1096.07 565.103 C 1102.58 573.047 1091.58 587.339 1084.14 580.184 C 1060.81 557.752 1038.05 541.69 1008.2 528.033 C 948.118 500.209 879.534 503.898 818.585 527.182 C 797.069 535.402 768.165 547.92 760.933 511.951 C 755.125 483.061 786.547 473.123 807.792 465.692 C 830.608 457.711 853.562 452.026 878.357 449.395 z" fill="rgb(54,32,17)" transform="translate(0,0)"></path>
<metadata><recraft-signature>{"signed_by": "recraft", "signature_b64": "H8hm+FZ6hl2hs9Tr7MpBnvQnR5yb0oQGjsUEoco7b5A3Yjzju5PbKFtvzln76pi9e2CkttYxWjt9BJVLFhrzBg==", "signing_algo": "Ed25519", "generation_timestamp": 1779023953, "identifier": "0abbd979-5db7-4764-9196-6a26d4eb4bf4"}</recraft-signature></metadata></svg>