<svg xmlns="http://www.w3.org/2000/svg" height="1216" preserveAspectRatio="none" style="display: block;" version="1.1" viewBox="0 0 1509 2048" width="896">
<path d="M 0 0 L 1509 0 L 1509 2048 L 0 2048 L 0 0 z" fill="rgb(254,254,254)" transform="translate(0,0)"></path>
<path d="M 1107.86 840.327 C 1058.39 815.244 1075.35 756.874 1035.01 722.882 C 1025.25 714.662 1007.97 698.206 1017.21 683.619 C 1041.12 650.52 1073.85 689.161 1086.63 711.857 C 1089.37 716.728 1094.51 722.083 1099.08 722.017 C 1106.56 717.313 1106.04 699.384 1107.28 690.803 C 1111.05 665.302 1114.49 639.755 1117.61 614.168 C 1118.14 610.152 1120.44 596.814 1120.32 593.668 C 1119.29 568.423 1149.27 558.86 1161.14 580.052 C 1169.28 594.586 1144.53 685.679 1153.6 690.073 C 1157.88 687.48 1158.49 684.304 1159.6 679.393 C 1167.06 646.263 1172.77 611.938 1181.7 579.247 C 1184.51 568.963 1195.48 561.13 1206.68 564.646 C 1212.79 566.58 1217.87 570.899 1220.75 576.624 C 1225.53 586.185 1218.84 606.117 1216.32 616.856 L 1202.81 673.406 C 1201.55 678.575 1195.39 696.264 1200.49 698.485 C 1207.48 692.838 1223.89 609.778 1233.34 599.037 C 1248.6 581.689 1274.04 593.434 1268.95 619.792 C 1265.87 635.72 1238.31 705.109 1241.88 714.726 L 1243.64 715.842 C 1247.43 713.594 1254.68 686.77 1257.01 680.651 C 1262.86 665.246 1267.25 635.116 1290.77 641.003 C 1296.72 642.474 1301.78 646.388 1304.7 651.783 C 1308.38 659.394 1307.7 662.333 1305.2 670.354 C 1297.46 695.104 1287.64 719.255 1279.5 743.884 C 1271.05 772.877 1266.21 802.517 1252.84 830.194 C 1246.92 842.442 1232.61 852.86 1220.07 857.457 C 1217.46 858.404 1214.81 859.27 1212.15 860.055 L 1195.95 938.834 C 1208.2 947.241 1210.23 956.636 1207.85 970.785 C 1205.54 984.555 1202.43 998.296 1199.61 1011.98 L 1184.53 1086.12 C 1180.05 1109.5 1175.37 1132.85 1170.5 1156.15 C 1166.99 1172.97 1166 1188.17 1155.93 1202.35 C 1100.27 1280.69 1041.35 1356.83 985.182 1434.78 C 1004.81 1502.15 996.887 1569.84 997.804 1639.41 C 997.908 1647.34 995.162 1657.98 985.585 1659 C 973.725 1660.04 961.211 1659.58 949.265 1659.59 L 865.535 1659.6 L 655.862 1659.62 C 619.07 1659.59 582.188 1659.71 545.396 1659.32 C 540.06 1659.27 533.379 1659.52 528.948 1656.78 C 524.972 1654.32 523.677 1650.95 523.149 1646.26 C 521.254 1629.43 521.942 1609.93 521.996 1592.94 C 522.184 1532.79 518.439 1496.32 534.667 1437.71 C 477.013 1362.72 423.113 1284.18 365.97 1208.75 C 349.631 1187.19 348.437 1162.88 343.019 1136.69 L 323.513 1045.52 C 319.833 1027.95 304.813 970.278 306.56 956.484 C 307.637 947.982 311.512 944.04 317.879 939.011 C 311.894 916.012 304.863 882.703 300.28 859.242 C 277.429 853.677 265.2 843.977 256.409 822.224 C 250.49 807.67 245.492 792.758 241.444 777.576 C 238.872 767.673 236.183 753.468 232.966 744.328 C 223.338 717.246 211.631 690.655 203.745 663.002 C 202.867 659.923 205.61 651.923 207.68 649.802 C 248.518 607.954 254.985 708.613 269.715 716.641 C 271.749 706.954 242.677 630.174 238.707 612.642 C 242.27 599.636 250.516 589.862 266.054 592.216 C 270.81 592.936 276.79 598.406 278.93 602.636 C 287.898 625.09 294.276 649.886 301.672 672.974 C 303.881 679.869 306.325 693.065 309.91 698.094 L 311.465 698.132 C 314.72 689.37 282.725 592.441 289.717 576.507 C 296.989 559.934 320.808 558.117 329.567 581.152 C 336.089 598.303 346.966 679.321 353.98 688.979 L 355.879 689.229 C 360.643 682.109 339.619 605.198 340.395 591.04 C 340.91 581.623 347.207 572.774 356.662 570.958 C 362.614 569.842 368.762 571.269 373.615 574.893 C 377.114 577.499 381.791 583.839 382.594 588.305 C 390.558 632.552 395.544 678.367 405.398 722.233 C 410.264 720.874 415.135 719.738 419.642 717.476 C 428.799 701.513 440.618 678.464 459.514 672.791 C 473.842 668.489 491.071 673.044 492.774 689.945 C 494.96 711.641 465.625 725.038 455.693 744.447 C 436.839 781.29 442.962 812.486 405.551 838.052 C 412.843 863.176 418.219 888.528 425.125 913.657 C 441.756 917.84 443.352 929.819 446.312 944.487 C 449.658 961.069 452.944 977.697 456.256 994.287 L 476.03 1092.94 C 484.132 1133.11 480.119 1127.22 505.96 1159.35 C 521.147 1178.52 536.501 1197.55 552.021 1216.45 C 565.618 1232.3 583.964 1255.03 596.591 1271.39 C 601.359 1275.78 622.445 1302.34 628.482 1309.37 C 644.173 1298.45 663.816 1287.38 681.727 1280.79 L 681.385 1237.01 C 680.017 1236.48 678.658 1235.93 677.308 1235.35 C 666.821 1230.86 654.383 1222.76 645.15 1215.87 C 602.247 1183.86 581.821 1150.62 562.497 1102.37 C 548.267 1102.01 540.045 1101.42 527.101 1094.23 C 512.316 1086.03 501.442 1072.24 496.919 1055.95 C 491.226 1036.01 494.783 1020.32 504.515 1002.69 C 496.024 995.422 494.682 952.808 495.052 940.542 C 495.573 923.272 499.242 905.382 502.841 888.521 L 501.679 886.558 C 493.903 885.591 499.34 875.517 500.521 870.554 C 532.8 734.934 684.126 648.638 818.034 680.851 C 818.784 680.531 819.534 680.21 820.284 679.89 L 822.637 677.217 C 824.861 694.165 823.146 727.438 810.368 740.187 C 809.305 741.767 808.24 743.23 807.127 744.77 C 829.847 740.901 857.34 717.216 873.885 701.763 C 876.467 703.123 878.495 702.62 881.462 702.412 L 882.014 701.979 C 891.389 704.28 902.957 711.645 911.332 716.625 C 999.293 768.927 1056.1 883.607 1031.03 985.441 C 1030.1 989.128 1028.98 992.761 1027.66 996.325 C 1023.17 1009.16 1032.67 1015.29 1033.54 1027.49 C 1036.93 1074.96 1007.67 1103.99 961.901 1102.06 C 941.553 1163.86 902.501 1206.78 844.676 1235.92 C 842.156 1237.22 839.594 1238.42 836.996 1239.55 L 837.164 1280.08 C 855.407 1287.17 882.446 1299.47 897.294 1312.52 C 940.908 1252.95 991.37 1192.34 1033.66 1131.67 C 1037.37 1118.2 1039.94 1102.8 1042.76 1089.19 C 1051.18 1048.6 1059.25 1006.91 1066.93 966.322 C 1070.5 947.473 1070.09 921.717 1088.67 913.899 C 1089.28 913.388 1089.89 912.877 1090.51 912.366 C 1096.78 890.67 1101.87 861.531 1107.86 840.327 z" fill="rgb(94,40,25)" transform="translate(0,0)"></path>
<path d="M 906.832 813.486 C 906.945 845.402 910.127 868.006 922.735 897.106 C 928.116 909.912 940.288 930.403 950.16 940.314 C 956.519 948.023 960.952 952.601 968.114 959.603 C 970.85 988.806 975.087 1017.91 971.709 1047.06 C 963.877 1111.47 936.432 1167.6 885.058 1207.81 C 792.903 1279.92 671.507 1261.69 601.179 1169.31 C 571.848 1130.8 551.647 1075.01 552.088 1026.19 C 552.387 993.106 556.945 948.668 561.302 914.956 C 679.149 947.898 828.497 910.271 906.832 813.486 z" fill="rgb(220,160,135)" transform="translate(0,0)"></path>
<path d="M 755.069 1143.37 C 778.065 1142.31 800.098 1145.21 816.347 1163.24 C 830.584 1179.04 826.982 1192.58 811.675 1205.07 C 798.182 1200.08 791.74 1198.86 777.902 1196.89 C 758.071 1194.2 735.975 1197.84 717.139 1204.5 C 685.221 1173.68 723.147 1146.73 755.069 1143.37 z" fill="rgb(94,40,25)" transform="translate(0,0)"></path>
<path d="M 753.346 1146.35 C 772.743 1143.55 797.57 1148.13 811.895 1162.41 C 827.917 1178.39 826.47 1209.97 796.455 1197.61 C 792.549 1196.01 783.423 1194.63 779.111 1194.11 C 756.774 1190.46 739.598 1196.68 718.312 1200.25 C 713.205 1199.78 708.631 1190.27 708.438 1186.81 C 706.918 1159.61 731.781 1149.59 753.346 1146.35 z" fill="rgb(160,70,44)" transform="translate(0,0)"></path>
<path d="M 705.68 925.161 C 725.815 925.027 732.599 943.267 719.49 955.628 C 696.712 977.106 664.975 988.617 633.752 989.327 C 622.601 989.1 612.689 983.165 614.206 970.097 C 614.715 965.707 621.108 959.122 625.422 958.217 C 641.075 954.931 657.795 955.938 672.64 948.666 C 688.298 941.717 693.438 933.458 705.68 925.161 z" fill="rgb(94,40,25)" transform="translate(0,0)"></path>
<path d="M 815.162 925.069 C 825.167 924.705 833.447 933.298 841.192 939.434 C 859.247 953.737 879.518 955.247 901.385 958.012 C 905.035 958.474 911.339 962.545 912.976 966.101 C 917.76 977.746 911.792 984.757 902.251 989.204 C 889.81 989.946 877.33 988.716 865.274 985.558 C 845.252 980.371 772.575 946.003 815.162 925.069 z" fill="rgb(94,40,25)" transform="translate(0,0)"></path>
<path d="M 846.134 987.001 C 868.87 986.157 871.017 1012.58 868.871 1030 C 867.618 1040.17 862.57 1048.12 853.946 1053.72 C 825.052 1053.86 824.059 1001.04 843.374 988.724 L 846.134 987.001 z" fill="rgb(94,40,25)" transform="translate(0,0)"></path>
<path d="M 670.821 987.083 L 672.184 987.183 C 693.312 988.553 695.283 1020.01 690.592 1035.39 C 687.634 1045.09 684.692 1048.96 675.967 1053.7 C 667.186 1053.17 663.541 1051.37 659.226 1043 C 650.329 1025.74 651.804 996.965 670.821 987.083 z" fill="rgb(94,40,25)" transform="translate(0,0)"></path>
<path d="M 759.761 1033.51 C 764.597 1037.61 761.269 1048.02 759.321 1053.07 C 753.015 1069.41 726.99 1070.89 737.393 1092.4 C 744.945 1108.01 780.042 1094.7 783.014 1102.55 C 770.764 1103.42 742.064 1106.51 735.193 1094.43 C 723.828 1074.45 745.283 1067.71 754.788 1054.99 C 759.536 1048.64 758.385 1040.67 759.761 1033.51 z" fill="rgb(94,40,25)" transform="translate(0,0)"></path>
<path d="M 501.679 886.558 C 493.903 885.591 499.34 875.517 500.521 870.554 C 532.8 734.934 684.126 648.638 818.034 680.851 C 818.784 680.531 819.534 680.21 820.284 679.89 L 822.637 677.217 C 824.861 694.165 823.146 727.438 810.368 740.187 C 809.305 741.767 808.24 743.23 807.127 744.77 C 829.847 740.901 857.34 717.216 873.885 701.763 C 876.467 703.123 878.495 702.62 881.462 702.412 L 882.014 701.979 C 891.389 704.28 902.957 711.645 911.332 716.625 C 999.293 768.927 1056.1 883.607 1031.03 985.441 C 1030.1 989.128 1028.98 992.761 1027.66 996.325 C 1025.88 997.219 1024.74 997.827 1022.83 998.485 L 1018.42 998.52 C 1013.68 992.848 1006.12 987.279 1003.78 984.174 L 1003.45 982.792 C 998.098 978.406 991.006 976.076 984.524 973.482 L 985.639 971.453 C 978.479 966.261 972.319 960.492 965.916 954.475 C 962.026 950.819 954.874 941.37 950.16 940.314 C 940.288 930.403 928.116 909.912 922.735 897.106 C 923.591 890.385 914.535 872.088 913.586 863.814 C 911.225 843.238 901.543 819.767 915.627 802.078 C 923.65 791.628 942.331 762.418 946.682 750.827 L 946.044 750.435 C 937.106 759.27 931.986 774.4 925.047 785.016 C 850.379 899.264 683.84 954.134 554.884 909.938 C 541.891 905.583 529.286 900.146 517.202 893.686 C 513.131 891.561 505.454 886.622 501.679 886.558 z" fill="rgb(105,83,75)" transform="translate(0,0)"></path>
<path d="M 922.735 897.106 C 923.591 890.385 914.535 872.088 913.586 863.814 C 911.225 843.238 901.543 819.767 915.627 802.078 L 916.087 803.019 C 919.927 811.061 921.776 820.588 924.182 829.162 C 927.999 842.76 931.925 856.22 936.934 869.439 C 957.513 923.751 987.927 954.216 1022.83 998.485 L 1018.42 998.52 C 1013.68 992.848 1006.12 987.279 1003.78 984.174 L 1003.45 982.792 C 998.098 978.406 991.006 976.076 984.524 973.482 L 985.639 971.453 C 978.479 966.261 972.319 960.492 965.916 954.475 C 962.026 950.819 954.874 941.37 950.16 940.314 C 940.288 930.403 928.116 909.912 922.735 897.106 z" fill="rgb(95,68,62)" transform="translate(0,0)"></path>
<path d="M 796.667 751.099 C 799.237 748.192 806.516 738.188 810.368 740.187 C 809.305 741.767 808.24 743.23 807.127 744.77 C 806.729 745.012 806.435 745.089 806.231 745.457 C 806.836 746.379 807.372 746.014 807.532 746.334 C 808.444 748.149 798.047 750.635 796.667 751.099 z" fill="rgb(94,40,25)" transform="translate(0,0)"></path>
<path d="M 307.604 956.659 C 312.113 944.124 315.488 941.987 328.302 938.956 C 338.079 936.644 348.114 934.617 357.888 932.301 C 380.202 927.012 402.427 921.353 424.553 915.327 C 439.156 921.39 440.323 928.612 443.5 943.032 C 445.466 951.954 447.146 961.048 448.926 970.014 L 470.357 1076.81 C 471.78 1083.98 479.842 1127.94 482.398 1131.75 C 502.128 1161.13 527.32 1189.51 549.578 1217.34 L 552.021 1216.45 C 565.618 1232.3 583.964 1255.03 596.591 1271.39 L 593.549 1271.25 C 604.629 1284.51 615.277 1298.36 626.726 1311.26 C 581.936 1341.37 553.236 1385.47 535.766 1435.78 C 524.749 1419.84 511.542 1402.77 499.962 1386.83 L 403.184 1254.79 C 396.846 1246.16 360.032 1198.38 358.555 1192.59 C 342.179 1128.43 330.556 1062.04 315.791 997.322 C 312.791 984.174 309.807 969.96 307.604 956.659 z" fill="rgb(239,160,43)" transform="translate(0,0)"></path>
<path d="M 549.578 1217.34 L 552.021 1216.45 C 565.618 1232.3 583.964 1255.03 596.591 1271.39 L 593.549 1271.25 C 588.404 1264.02 579.708 1254.14 573.899 1247.17 C 566.026 1237.73 557.641 1226.34 549.578 1217.34 z" fill="rgb(94,40,25)" transform="translate(0,0)"></path>
<path d="M 897.294 1312.52 C 940.908 1252.95 991.37 1192.34 1033.66 1131.67 C 1037.37 1118.2 1039.94 1102.8 1042.76 1089.19 C 1051.18 1048.6 1059.25 1006.91 1066.93 966.322 C 1070.5 947.473 1070.09 921.717 1088.67 913.899 L 1089.87 914.989 C 1095.14 915.27 1105.91 917.75 1113.15 920.097 C 1135.62 927.377 1182.57 934.318 1201.18 945.694 C 1211.3 951.886 1202.38 986.087 1200.01 997.803 L 1187.61 1058.11 L 1171.31 1140.3 C 1168.29 1155.33 1164.15 1180.38 1158.2 1193.94 C 1155.89 1199.18 1142.23 1217.22 1138.01 1222.96 L 1105.04 1267.74 C 1065.2 1321.51 1022.86 1377.77 984.085 1432.15 C 971.288 1390.23 936.286 1338.25 899.661 1314.12 L 897.294 1312.52 z" fill="rgb(239,160,43)" transform="translate(0,0)"></path>
<path d="M 897.294 1312.52 C 940.908 1252.95 991.37 1192.34 1033.66 1131.67 C 1037.37 1118.2 1039.94 1102.8 1042.76 1089.19 C 1051.18 1048.6 1059.25 1006.91 1066.93 966.322 C 1070.5 947.473 1070.09 921.717 1088.67 913.899 L 1089.87 914.989 C 1079.13 921.965 1077.39 923.939 1074.88 936.898 C 1072.09 951.235 1069.81 965.716 1067.03 980.057 L 1046.76 1081.56 C 1045.28 1088.96 1037.59 1131.28 1035.17 1134.69 C 992.94 1194.34 940.814 1254.37 899.661 1314.12 L 897.294 1312.52 z" fill="rgb(94,40,25)" transform="translate(0,0)"></path>
<path d="M 502.841 888.521 C 522.657 900.247 536.665 906.74 558.587 914.196 C 558.523 922.29 556.168 965.641 552.946 970.684 C 546.692 975.679 533.774 973.208 532.088 980.423 C 519.712 987.929 515.542 992.42 506.781 1004.17 C 505.746 1002.7 506.402 1003.31 504.515 1002.69 C 496.024 995.422 494.682 952.808 495.052 940.542 C 495.573 923.272 499.242 905.382 502.841 888.521 z" fill="rgb(95,68,62)" transform="translate(0,0)"></path>
<path d="M 972.465 973.321 C 988.123 975.788 989.86 978.067 1003.78 984.174 C 1006.12 987.279 1013.68 992.848 1018.42 998.52 C 1026.45 1010.46 1031.05 1022.37 1031.17 1036.96 C 1031.43 1053.94 1024.86 1070.32 1012.94 1082.41 C 998.429 1097.01 982.39 1099.79 962.803 1099.76 C 966.189 1089.23 968.605 1080.52 971.278 1069.78 C 975.808 1068.78 979.843 1067.88 983.977 1065.68 C 991.367 1061.73 996.883 1055 999.306 1046.98 C 1004.98 1027.84 993.899 1011.45 975.236 1006.33 C 974.025 995.824 973.324 983.959 972.465 973.321 z" fill="rgb(220,160,135)" transform="translate(0,0)"></path>
<path d="M 532.088 980.423 C 540.395 977.327 544.209 976.303 552.935 974.761 C 551.641 985.53 550.522 996.319 549.581 1007.12 C 517.386 1017.47 519.801 1063.86 554.132 1069.38 C 556.498 1079.6 558.769 1089.14 562.256 1099.05 C 553.462 1099.22 547.601 1099.54 539.114 1096.63 C 499.621 1083.08 486.144 1039.06 506.781 1004.17 C 515.542 992.42 519.712 987.929 532.088 980.423 z" fill="rgb(220,160,135)" transform="translate(0,0)"></path>
<path d="M 837.278 1282.54 C 930.833 1319.09 988.767 1400.71 994.828 1500.79 C 997.341 1542.28 994.605 1584.46 995.582 1626.06 C 995.697 1630.95 995.719 1636.05 995.154 1640.82 C 993.676 1653.3 990.181 1657.19 977.737 1657.08 C 961.973 1657.45 946.846 1657.37 931.373 1657.39 L 844.088 1657.45 L 577.5 1657.39 C 564.273 1657.36 546.645 1659.95 534.092 1655.98 C 531.167 1655.05 527.992 1653.44 526.672 1650.51 C 522.653 1641.61 524.286 1508.8 526.135 1492.59 C 528.584 1471.09 532.911 1449.68 540.471 1429.37 C 566.887 1358.4 613.843 1313.98 681.919 1282.96 C 682.071 1314.09 677.229 1343.46 701.299 1367.93 C 730.532 1397.64 787.127 1399.01 816.812 1369.27 C 841.206 1344.83 837.347 1314.12 837.278 1282.54 z" fill="rgb(239,160,43)" transform="translate(0,0)"></path>
<path d="M 1196.94 567.105 C 1229.81 565.074 1218.03 595.916 1213.62 614.753 L 1201.14 668.895 C 1198.99 678.007 1190.58 696.564 1200.02 702.089 C 1211.88 697.741 1226.02 599.624 1240.5 595.735 C 1282.84 584.357 1261.69 633.351 1258.12 646.166 C 1254.04 660.85 1230.04 716.18 1242.68 718.503 C 1257.57 710.972 1261.4 649.297 1279.72 643.788 C 1296.23 638.825 1308.12 653.893 1302.31 670.924 C 1293.75 696.005 1284.05 720.665 1275.96 745.725 C 1263.25 785.092 1260.82 849.34 1209.6 857.027 C 1205.96 880.957 1198.58 913.952 1192.94 937.725 C 1159.68 929.545 1126.49 921.116 1093.37 912.441 C 1095.92 903.409 1108.31 844.035 1111.48 841.708 L 1116.11 842.587 C 1124.52 844.766 1131.03 845.103 1139.48 843.944 L 1139.75 843.104 C 1131.81 840.254 1118.88 841.776 1111.62 838.987 C 1069.78 823.392 1073.92 773.226 1053.56 741.209 C 1048.3 734.521 1040.85 723.078 1033.78 717.952 C 1020.49 708.322 1007.25 685.82 1028.79 675.954 C 1057.79 662.676 1075.3 704.491 1090.15 720.873 C 1093.66 724.746 1112.78 727.002 1118 730.166 C 1145.45 741.637 1161.32 760.105 1169.33 788.737 C 1171.23 795.529 1171.12 805.199 1173.12 810.048 L 1174.46 810.093 C 1177.96 802.024 1167.81 775.595 1163.78 767.81 C 1150.84 742.794 1131.52 731.357 1105.5 723.162 C 1108.34 703.454 1122.06 588.436 1126.44 579.856 C 1128.42 575.988 1132.63 572.875 1136.77 571.701 C 1141.84 570.262 1147.24 571.101 1151.78 573.714 C 1156.85 576.633 1160.02 581.653 1160.85 587.407 C 1161.81 594.019 1159.5 602.512 1158.5 609.213 C 1156.36 623.655 1146.09 678.15 1149.95 689.309 C 1150.82 691.828 1151.52 692.598 1153.84 693.705 L 1155.65 692.954 C 1164.51 683.192 1178.12 595.746 1184.74 577.71 C 1186.86 571.938 1191.64 569.512 1196.94 567.105 z" fill="rgb(220,160,135)" transform="translate(0,0)"></path>
<path d="M 306.263 567.138 C 312.316 567.092 319.51 567.877 323.45 574.127 C 336.489 594.808 341.39 675.773 351.382 691.32 C 354.764 692.726 353.324 692.491 357.179 691.672 C 367.862 678.454 334.373 598.494 346.108 580.61 C 348.627 576.772 352.566 574.415 357.059 573.612 C 362.221 572.737 367.518 573.943 371.793 576.965 C 375.075 579.274 379.498 585.046 380.11 589.016 C 387.033 633.857 394.71 678.401 402.546 723.086 C 366.887 734.703 346.396 752.493 337.115 789.754 C 335.763 795.182 332.922 805.114 335.818 810.203 L 337.054 809.885 C 339.362 790.642 339.114 784.584 349.146 766.198 C 365.879 735.531 390.185 729.513 420.839 720.296 C 430.567 704.465 441.622 680.788 460.893 674.984 C 467.158 673.097 475.823 673.574 481.53 676.957 C 485.632 679.395 488.578 683.382 489.703 688.019 C 493.088 702.134 484.096 708.263 475.55 716.941 C 468.671 724.038 460.951 731.455 455.495 739.719 C 437.781 766.55 440.467 803.14 416.44 826.394 C 410.461 832.181 400.052 839.36 391.644 840.678 C 384.058 841.866 376.581 841.725 368.847 843.419 L 369.497 844.111 C 379.536 845.136 384.359 845.708 393.981 842.936 L 403.065 838.95 C 410.198 862.574 416.184 889.747 422.414 914.023 C 388.691 921.387 353.996 930.728 319.817 938.443 C 315.233 911.084 307.147 883.71 302.65 856.903 C 289.278 854.132 269.917 844.959 263.669 831.967 C 255.59 815.169 249.189 795.907 244.226 777.958 C 241.17 767.076 239.666 755.109 235.908 744.484 C 226.288 717.285 214.61 690.443 206.353 662.795 C 206.117 659.281 207.558 653.181 209.781 650.664 C 219.116 640.099 229.7 642.556 239.379 649.651 C 245.919 662.111 260.073 715.76 268.996 718.563 L 271.534 717.236 C 273.323 714.413 273.065 712.445 272.532 709.209 C 271.282 701.62 267.789 694.058 265.282 686.798 C 259.86 671.098 245.281 631.254 243.311 617.026 C 242.673 612.416 242.442 606.939 245.593 603.146 C 249.308 598.674 254.568 593.78 260.604 593.247 C 267.253 592.661 272.946 598.366 276.158 603.587 C 285.968 619.534 301.036 694.574 309.082 700.733 C 310.347 701.702 310.779 701.289 312.263 701.12 C 312.916 700.475 313.795 699.997 314.221 699.184 C 319.34 689.403 283.924 590.253 293.182 575.571 C 296.265 570.68 300.914 568.538 306.263 567.138 z" fill="rgb(220,160,135)" transform="translate(0,0)"></path>
<path d="M 684.106 1238.37 C 733.837 1259.8 782.799 1260.89 833.356 1240.6 L 834.576 1240.1 C 835.025 1262.31 836.519 1318.94 832.446 1338.28 C 804.846 1416.02 688.525 1398.06 684.924 1324.03 C 683.761 1315.48 684.131 1301.16 684.127 1292 L 684.106 1238.37 z" fill="rgb(220,160,135)" transform="translate(0,0)"></path>
<path d="M 684.106 1238.37 C 733.837 1259.8 782.799 1260.89 833.356 1240.6 L 834.576 1240.1 C 835.025 1262.31 836.519 1318.94 832.446 1338.28 C 816.661 1327.79 796.751 1318.57 780.298 1309.09 C 749.068 1291.11 716.181 1273.91 685.33 1255.55 C 685.3 1276.19 686.214 1304.2 684.924 1324.03 C 683.761 1315.48 684.131 1301.16 684.127 1292 L 684.106 1238.37 z" fill="rgb(202,139,116)" transform="translate(0,0)"></path>
<path d="M 975.028 1008.41 C 980.76 1009.76 984.143 1011.3 988.547 1015.45 C 994.48 1021.05 997.875 1028.82 997.948 1036.97 C 998.091 1047.45 995.393 1053 988.156 1060.39 C 986.302 1061.67 975.394 1068.41 972.244 1065.73 C 971.464 1065.07 972.945 1057.64 973.249 1055.99 C 976.249 1039.66 976.007 1024.83 975.028 1008.41 z" fill="rgb(202,139,116)" transform="translate(0,0)"></path>
<path d="M 547.317 1009.56 C 547.788 1009.72 549.444 1010.16 549.571 1010.63 C 550.393 1013.67 549.421 1020.96 549.37 1023.97 C 549.132 1038.03 551.418 1051.29 552.987 1065.04 C 553.012 1065.26 552.664 1065.65 552.429 1065.73 C 549.762 1066.71 544.192 1064.04 541.944 1063.06 C 531.231 1053.68 527.727 1041.99 531.094 1027.98 C 533.427 1018.28 539.422 1014.58 547.317 1009.56 z" fill="rgb(202,139,116)" transform="translate(0,0)"></path>
<path d="M 811.931 652.139 C 775.895 635.283 747.406 612.093 733.15 573.172 C 722.145 542.862 723.735 509.406 737.565 480.276 C 756.076 441.414 791.544 414.066 831.636 400.044 C 878.09 383.542 929.199 386.185 973.704 407.39 C 1008.49 424.293 1036.88 453.214 1049.37 490.221 C 1059.23 519.491 1057.05 551.485 1043.3 579.143 C 1026.93 612.175 992.922 637.784 958.233 648.86 C 940.047 654.667 930.449 655.589 911.898 657.841 C 907.357 666.244 905.055 669.513 899.491 676.831 C 896.279 681.055 882.766 696.74 881.35 700.088 L 882.014 701.979 L 881.462 702.412 C 878.495 702.62 876.467 703.123 873.885 701.763 C 857.34 717.216 829.847 740.901 807.127 744.77 C 808.24 743.23 809.305 741.767 810.368 740.187 C 823.146 727.438 824.861 694.165 822.637 677.217 L 820.284 679.89 C 818.877 669.881 816.194 661.334 811.931 652.139 z" fill="rgb(254,254,254)" transform="translate(0,0)"></path>
<path d="M 811.931 652.139 C 775.895 635.283 747.406 612.093 733.15 573.172 C 722.145 542.862 723.735 509.406 737.565 480.276 C 756.076 441.414 791.544 414.066 831.636 400.044 C 878.09 383.542 929.199 386.185 973.704 407.39 C 1008.49 424.293 1036.88 453.214 1049.37 490.221 C 1059.23 519.491 1057.05 551.485 1043.3 579.143 C 1026.93 612.175 992.922 637.784 958.233 648.86 C 940.047 654.667 930.449 655.589 911.898 657.841 C 907.357 666.244 905.055 669.513 899.491 676.831 C 896.279 681.055 882.766 696.74 881.35 700.088 L 882.014 701.979 L 881.462 702.412 C 878.495 702.62 876.467 703.123 873.885 701.763 C 888.749 687.01 900.58 672.517 910.648 654.203 C 992.124 656.306 1076.64 577.381 1047.06 492.052 C 1001.93 361.915 798.407 361.489 740.719 480.384 C 726.919 508.359 724.946 540.707 735.244 570.151 C 749.654 610.956 778.227 632.848 815.167 650.747 C 818.48 659.523 821.019 667.973 822.637 677.217 L 820.284 679.89 C 818.877 669.881 816.194 661.334 811.931 652.139 z" fill="rgb(94,40,25)" transform="translate(0,0)"></path>
<path d="M 885.041 469.244 C 926.116 466.731 923.407 538.262 914.104 563.189 C 910.018 574.139 903.254 580.135 892.713 584.525 C 871.311 585.604 863.667 567.701 860.143 549.649 C 855.188 524.272 856.407 480.373 885.041 469.244 z" fill="rgb(220,124,132)" transform="translate(0,0)"></path>
<path d="M 884.883 479.033 C 911.213 476.416 910.67 508.07 910.531 526.447 C 910.39 545.145 909.602 567.43 890.869 576.718 C 858.836 575.912 863.448 510.873 872.902 491.821 C 876.425 484.721 878.236 482.989 884.883 479.033 z" fill="rgb(254,254,254)" transform="translate(0,0)"></path>
<path d="M 970.683 470.311 C 998.594 470.493 999.78 505.679 990.112 506.95 C 985.439 502.497 986.769 496.448 986.96 490.33 C 982.588 482.274 980.108 478.549 970.735 478.692 C 960.749 478.845 952.712 489.514 953.852 498.851 C 955.568 512.912 970.156 521.477 980.118 529.547 C 994.604 540.62 1003.6 560.931 991.794 577.414 C 987.598 583.274 977.351 584.683 970.257 585.167 C 954.29 583.708 939.175 574.007 943.381 554.718 C 943.877 552.443 945.545 551.607 947.475 550.916 C 955.649 555.086 949.205 567.476 957.228 572.517 C 983.468 589.005 1001.18 559.707 980.325 541.475 C 960.859 524.458 932.08 512.707 950.825 480.678 C 954.944 473.64 963.518 471.571 970.683 470.311 z" fill="rgb(99,141,100)" transform="translate(0,0)"></path>
<path d="M 804.606 470.107 C 826.638 469.067 837.039 490.418 828.754 508.421 L 826.865 508.834 C 822.25 500.891 824.144 487.71 816.086 481.091 C 809.372 475.576 799.383 479.431 794.801 485.926 C 777.74 509.921 811.466 523.122 824.205 537.897 C 840.143 556.383 835.247 583.426 807.632 585.542 C 777.25 583.579 773.308 552.451 785.516 550.894 L 787.507 552.809 C 789.193 556.576 788.701 558.164 788.271 562.289 L 788.111 563.762 C 802.014 588.175 828.133 576.141 824.894 556.681 C 821.79 538.029 787.448 526.58 782.72 506.144 C 778.247 486.807 786.318 475.166 804.606 470.107 z" fill="rgb(220,124,53)" transform="translate(0,0)"></path>
<metadata><recraft-signature>{"signed_by": "recraft", "signature_b64": "TjMcdj1h3WxzKlKQY7p/iy4xhi0+h6oNBUvyrpN5doI9L1L9iSeQaV6e7omAhHNfDGcslzKyNb9E2ATCD0cvDg==", "signing_algo": "Ed25519", "generation_timestamp": 1779023136, "identifier": "b2795232-e046-4fba-a09d-30063e075248"}</recraft-signature></metadata></svg>