<svg xmlns="http://www.w3.org/2000/svg" height="1024" preserveAspectRatio="none" style="display: block;" version="1.1" viewBox="0 0 2048 2048" width="1024">
<path d="M 0 0 L 2048 0 L 2048 2048 L 0 2048 L 0 0 z" fill="rgb(255,255,255)" transform="translate(0,0)"></path>
<path d="M 1006.43 187.414 C 1007.74 187.283 1009.17 187.123 1010.49 187.103 C 1160.13 184.765 1304.01 254.683 1412.38 353.596 C 1531.57 462.377 1614.48 611.215 1649.03 767.546 C 1659.57 816.153 1665.89 865.581 1667.91 915.277 C 1679.5 909.373 1689.56 905.528 1702.99 907.391 C 1723.93 910.296 1746.54 927.549 1759.02 943.979 C 1789.92 984.678 1797.18 1040.61 1790.33 1090.43 C 1782.98 1143.8 1762.5 1210.07 1719.25 1245.13 C 1707.69 1254.5 1688.66 1262.94 1673.96 1260.31 C 1658.35 1257.52 1651.27 1250.01 1642.43 1238.43 C 1640.62 1247.65 1639.42 1262.78 1637.92 1272.82 C 1635.01 1291.39 1631.31 1309.82 1626.81 1328.07 C 1569.41 1567.36 1372.39 1792.26 1128.12 1848.88 C 1101 1855.16 1073.51 1858.02 1045.8 1859.94 C 717.896 1872.96 436.105 1548.93 406.641 1239.03 C 392.105 1260.67 371.659 1266.85 347.86 1256 C 310.34 1238.88 288.499 1195.44 274.791 1158.66 C 253.149 1100.58 246.264 1031.44 272.583 973.711 C 283.834 949.242 305.814 920.091 332.082 910.75 C 351.403 903.88 362.924 906.719 380.286 915.001 C 387.476 728.602 458.253 550.279 580.847 409.684 C 659.561 318.554 774.79 240.499 890.818 207.258 C 929.836 196.08 966.105 190.37 1006.43 187.414 z" fill="rgb(28,23,23)" transform="translate(0,0)"></path>
<path d="M 382.778 919.76 C 382.676 901.557 383.995 883.983 385.818 865.771 C 406.31 661.055 505.27 464.066 664.271 332.102 C 763.42 249.813 890.083 192.445 1020.44 189.149 C 1036.53 189.355 1053.33 190.33 1069.3 192.134 C 1241.15 211.555 1385.59 311.808 1492.57 443.029 C 1493.17 443.336 1493.15 443.579 1493.48 444.249 L 1499.57 452.028 C 1500.17 452.335 1500.15 452.579 1500.48 453.25 L 1506.54 461.061 C 1507.16 461.345 1507.11 461.574 1507.43 462.266 C 1591.18 576.316 1638.29 696.19 1658.85 835.613 C 1661.36 853.476 1663.21 871.427 1664.38 889.428 C 1664.97 898.228 1665.04 910.683 1666.16 919.035 C 1679.86 911.448 1694.79 905.39 1709.98 911.115 C 1798.24 944.382 1801.52 1066.66 1777.15 1142.89 C 1764.06 1183.84 1744.77 1228.23 1706.78 1250.69 C 1676.74 1267.22 1657.91 1257.67 1641.05 1230.68 C 1620.1 1425.12 1522.72 1603.27 1370.35 1725.87 C 1300.04 1782.86 1212.3 1828.08 1123.61 1847.61 C 1095.4 1853.82 1067.37 1856.57 1038.59 1858.25 C 1032.09 1859.91 1022.85 1859.93 1016.41 1858.24 C 985.645 1857.06 960.077 1854.77 929.706 1848.56 C 820.784 1826.28 713.525 1764.12 633.852 1687.26 C 536.965 1594.29 466.558 1477.22 429.855 1348.06 C 420.252 1314.83 409.418 1264.31 408.773 1229.65 C 393.322 1261.77 366.637 1267.54 337.776 1247.9 C 296.06 1219.52 273.882 1158.96 263.603 1111.21 C 252.491 1059.59 256.333 997.31 286.906 952.625 C 308.263 920.784 345.471 893.787 382.778 919.76 z" fill="rgb(248,163,132)" transform="translate(0,0)"></path>
<path d="M 1016.41 1858.24 C 1023.8 1857.91 1031.2 1857.91 1038.59 1858.25 C 1032.09 1859.91 1022.85 1859.93 1016.41 1858.24 z" fill="rgb(128,85,65)" transform="translate(0,0)"></path>
<path d="M 1006.61 1194.56 C 1178.37 1183.74 1362.48 1319.81 1375.87 1496.83 C 1380.83 1561.58 1355.22 1631.41 1281.21 1635.54 C 1232.03 1638.28 1197.88 1609.67 1158.63 1585.29 C 1110.71 1555.52 1071.01 1537.48 1013.67 1537.77 C 971.231 1541.5 927.507 1561.26 891.734 1583.93 C 842.604 1615.06 794.126 1654.14 732.001 1627.1 C 685.92 1601.96 674.241 1560.85 672.967 1510.5 C 671.565 1455.05 692.993 1401.6 723.528 1356.25 C 731.781 1343.99 740.85 1330.52 751.153 1319.84 C 814.059 1247.82 911.028 1199.5 1006.61 1194.56 z" fill="rgb(28,23,23)" transform="translate(0,0)"></path>
<path d="M 735.327 1618.24 C 738.473 1612.82 740.806 1605.33 743.985 1599.57 C 826.733 1449.62 1038.11 1406.19 1184.38 1484.82 C 1243.64 1516.67 1294.16 1560.89 1315.04 1625.04 C 1255.49 1651.29 1205.97 1611.99 1158.78 1582.22 C 1113.89 1553.89 1061.55 1530.1 1007.15 1535.62 L 1012.92 1536.27 L 1013.67 1537.77 C 971.231 1541.5 927.507 1561.26 891.734 1583.93 C 842.604 1615.06 794.126 1654.14 732.001 1627.1 C 733.153 1623.06 731.96 1622.33 734.082 1617.98 L 735.327 1618.24 z" fill="rgb(248,163,132)" transform="translate(0,0)"></path>
<path d="M 1007.15 1535.62 L 1012.92 1536.27 L 1013.67 1537.77 C 971.231 1541.5 927.507 1561.26 891.734 1583.93 C 842.604 1615.06 794.126 1654.14 732.001 1627.1 C 733.153 1623.06 731.96 1622.33 734.082 1617.98 L 735.327 1618.24 L 734.413 1622.83 C 734.825 1624.03 735.037 1625.73 736.284 1626.23 C 764.497 1637.67 797.103 1634.05 824.485 1622 C 843.918 1613.44 860.102 1601.15 877.585 1589.86 C 892.093 1580.51 907.045 1571.88 922.39 1563.99 C 951.588 1549.08 974.544 1540.25 1007.15 1535.62 z" fill="rgb(28,23,23)" transform="translate(0,0)"></path>
<path d="M 751.153 1319.84 C 814.059 1247.82 911.028 1199.5 1006.61 1194.56 C 1008.61 1195.16 1010.95 1195.72 1012.73 1196.67 C 1109.72 1194.52 1203.54 1231.24 1273.3 1298.64 C 1280.97 1306.15 1288.48 1313.82 1295.84 1321.63 C 1265.86 1337.58 1231.47 1334.4 1200.48 1323.07 C 1106.77 1288.79 1030.99 1272.01 931.501 1297.29 C 917.96 1300.72 904.542 1304.61 891.272 1308.97 C 853.229 1321.6 809.809 1341.19 768.768 1328.85 C 764.327 1327.52 756.418 1323.98 753.141 1320.95 L 751.153 1319.84 z" fill="rgb(248,163,132)" transform="translate(0,0)"></path>
<path d="M 751.153 1319.84 C 814.059 1247.82 911.028 1199.5 1006.61 1194.56 C 1008.61 1195.16 1010.95 1195.72 1012.73 1196.67 C 910.599 1200.24 822.223 1247.48 753.141 1320.95 L 751.153 1319.84 z" fill="rgb(28,23,23)" transform="translate(0,0)"></path>
<path d="M 1277.16 611.401 C 1277.25 611.388 1277.33 611.375 1277.42 611.362 C 1330.32 607.184 1382.85 623.186 1424.43 656.153 C 1469.17 691.109 1498.67 746.663 1505.24 802.839 C 1508.87 833.855 1505.95 845.333 1500.45 874.454 C 1492.74 915.328 1481.93 946.13 1455.4 979.375 C 1421.07 1023.08 1370.51 1051.02 1315.24 1056.83 C 1260.95 1062.87 1206.51 1046.89 1164.09 1012.47 C 1112.46 971.281 1089.49 911.194 1083.84 847.134 C 1073.28 727.12 1157.8 623.869 1277.16 611.401 z" fill="rgb(28,23,23)" transform="translate(0,0)"></path>
<path d="M 1276.32 637.059 C 1387.48 627.201 1485.56 709.378 1495.32 820.546 C 1505.08 931.714 1422.81 1029.72 1311.64 1039.38 C 1200.6 1049.02 1102.75 966.885 1093 855.859 C 1083.26 744.832 1165.31 646.904 1276.32 637.059 z" fill="rgb(255,255,255)" transform="translate(0,0)"></path>
<path d="M 1295.49 717.766 C 1359.76 717.566 1412.2 769.172 1413.03 833.441 C 1413.86 897.709 1362.77 950.653 1298.51 952.112 C 1233.36 953.592 1179.52 901.632 1178.67 836.467 C 1177.83 771.302 1230.32 717.969 1295.49 717.766 z" fill="rgb(28,23,23)" transform="translate(0,0)"></path>
<path d="M 1183.47 811.278 C 1191.89 771.334 1220.86 738.854 1259.59 725.948 C 1298.31 713.042 1340.98 721.647 1371.68 748.556 C 1373.71 750.096 1374.79 750.665 1376.19 752.735 C 1377.91 754.412 1379.58 756.142 1381.19 757.923 C 1384.07 760.498 1384.01 760.449 1386.04 763.667 C 1386.4 764.116 1386.75 764.568 1387.1 765.023 C 1388.07 766.152 1388.31 766.496 1389.13 767.754 C 1390.15 769.166 1391.14 770.601 1392.09 772.057 C 1392.83 773.086 1393.19 773.724 1393.83 774.806 C 1422.8 821.938 1414.07 883.018 1373.07 920.154 C 1371.96 921.324 1371.83 921.423 1370.52 922.391 C 1327.97 958.711 1265.44 959.105 1222.43 923.325 C 1220.46 922 1220.44 922.053 1218.88 920.251 C 1216.03 917.675 1213.31 914.958 1210.73 912.109 C 1208.69 910.683 1208.13 909.491 1206.69 907.395 C 1185.68 881.507 1176.95 847.771 1182.76 814.941 C 1182.97 813.296 1182.95 812.849 1183.47 811.278 z" fill="rgb(128,85,65)" transform="translate(0,0)"></path>
<path d="M 1381.19 757.923 C 1384.07 760.498 1384.01 760.449 1386.04 763.667 C 1384.49 761.7 1382.87 759.784 1381.19 757.923 z" fill="rgb(102,68,53)" transform="translate(0,0)"></path>
<path d="M 1206.69 907.395 C 1207.99 909.003 1209.34 910.575 1210.73 912.109 C 1208.69 910.683 1208.13 909.491 1206.69 907.395 z" fill="rgb(102,68,53)" transform="translate(0,0)"></path>
<path d="M 1371.68 748.556 C 1373.71 750.096 1374.79 750.665 1376.19 752.735 C 1374.73 751.302 1373.22 749.908 1371.68 748.556 z" fill="rgb(102,68,53)" transform="translate(0,0)"></path>
<path d="M 1287.81 768.291 C 1324.98 762.668 1359.65 788.298 1365.18 825.485 C 1370.71 862.672 1344.99 897.281 1307.79 902.717 C 1270.72 908.134 1236.26 882.528 1230.75 845.473 C 1225.24 808.417 1250.76 773.893 1287.81 768.291 z" fill="rgb(28,23,23)" transform="translate(0,0)"></path>
<path d="M 544.374 858.543 C 535.779 803.299 549.017 746.877 581.285 701.221 C 615.313 653.742 662.763 622.729 720.691 613.311 C 775.168 604.52 830.894 617.95 875.387 650.592 C 922.889 685.186 954.526 737.391 963.209 795.51 C 967.857 826.282 965.04 848.81 960.11 878.73 C 953.967 916.016 941.608 945.724 918.899 976.018 C 886.002 1019.79 837.033 1048.67 782.807 1056.27 C 663.321 1072.98 565.306 987.316 548.017 871.098 C 546.695 866.442 545.304 863.441 544.374 858.543 z" fill="rgb(28,23,23)" transform="translate(0,0)"></path>
<path d="M 544.374 858.543 C 547.396 858.443 544.861 853.202 545.72 850.521 C 546.213 850.095 545.947 850.187 546.474 850.139 C 548.521 852.298 548.203 867.903 548.017 871.098 C 546.695 866.442 545.304 863.441 544.374 858.543 z" fill="rgb(81,71,75)" transform="translate(0,0)"></path>
<path d="M 735.847 636.989 C 847.189 626.726 945.685 708.869 955.584 820.245 C 965.483 931.62 883.018 1029.85 771.611 1039.38 C 660.718 1048.87 563.042 966.87 553.189 856.009 C 543.336 745.147 625.018 647.205 735.847 636.989 z" fill="rgb(255,255,255)" transform="translate(0,0)"></path>
<path d="M 735.089 719.182 C 799.126 710.162 858.338 754.797 867.298 818.842 C 876.258 882.887 831.568 942.057 767.514 950.957 C 703.545 959.845 644.471 915.227 635.523 851.267 C 626.575 787.306 671.137 728.19 735.089 719.182 z" fill="rgb(28,23,23)" transform="translate(0,0)"></path>
<path d="M 663.789 760.914 C 704.276 712.998 775.737 706.471 824.234 746.261 C 872.731 786.051 880.289 857.409 841.205 906.477 C 840.44 907.529 839.995 908.026 839.139 908.996 C 835.442 913.376 831.422 917.473 827.113 921.253 C 826.046 922.308 825.703 922.543 824.525 923.455 C 823.746 924.098 822.959 924.731 822.164 925.354 C 821.05 926.292 820.7 926.528 819.547 927.342 C 768.908 964.679 697.647 954.281 659.789 904.03 C 659.13 903.156 658.499 902.274 657.859 901.39 C 628.258 859.677 629.837 803.409 661.731 763.422 C 662.589 762.291 662.797 761.962 663.789 760.914 z" fill="rgb(128,85,65)" transform="translate(0,0)"></path>
<path d="M 743.311 768.51 C 780.372 762.974 814.911 788.507 820.487 825.562 C 826.063 862.616 800.569 897.183 763.521 902.801 C 726.415 908.427 691.781 882.884 686.196 845.771 C 680.611 808.659 706.192 774.054 743.311 768.51 z" fill="rgb(28,23,23)" transform="translate(0,0)"></path>
<path d="M 1015.39 1001.4 C 1050.9 997.007 1094.01 1015.06 1119.11 1039.57 C 1142.39 1062.3 1175.36 1114.35 1144.71 1143.38 C 1116.61 1170 1069.47 1164.31 1033.75 1164.05 C 995.064 1164.01 939.704 1170.3 907.11 1146.38 C 874.451 1122.4 900.59 1073.78 920.288 1050.08 C 944.46 1021.01 977.87 1004.9 1015.39 1001.4 z" fill="rgb(28,23,23)" transform="translate(0,0)"></path>
<path d="M 1010.51 1004.36 C 1037.49 1000.92 1067.1 1007.82 1090.6 1021.34 C 1121.22 1038.7 1143.68 1067.54 1153.02 1101.49 C 1129.38 1104.26 1108.2 1119.3 1086.71 1128.88 C 1068.96 1136.79 1057.17 1140.1 1038.24 1142.58 C 976.659 1147.95 948.759 1115.55 895.794 1100.26 C 913.217 1046.7 954.305 1011.37 1010.51 1004.36 z" fill="rgb(248,163,132)" transform="translate(0,0)"></path>
<path d="M 895.455 1102.66 C 933.49 1114.34 961.128 1136.48 1000.51 1143.06 C 1039.46 1149.56 1071.04 1141.45 1105.32 1122.72 C 1116.73 1116.48 1139.79 1103.49 1152.53 1105.07 C 1155.45 1108.63 1154.22 1117.07 1153.92 1121.94 C 1143 1169.81 1067.7 1161.7 1031.36 1161.47 C 989.745 1161.19 882.85 1173.43 895.455 1102.66 z" fill="rgb(248,163,132)" transform="translate(0,0)"></path>
<path d="M 1121.49 334.747 C 1123.14 336.389 1128.63 350.302 1130.36 353.611 C 1137.99 368.175 1145.72 379.947 1157.65 391.215 C 1196.04 427.458 1239.41 422.153 1287.02 431.532 C 1316.33 437.031 1344.97 445.647 1372.45 457.234 C 1441.49 486.396 1500.61 534.543 1529.32 605.638 C 1532.21 612.788 1543.2 643 1540.41 649.567 L 1538.51 648.452 C 1477.22 568.145 1392.01 521.422 1292.12 509.827 C 1264.56 506.628 1234.28 508.344 1208.39 503.003 C 1178.43 496.821 1143.39 475.23 1127.46 448.541 C 1109.76 418.896 1113.08 366.786 1121.49 334.747 z" fill="rgb(28,23,23)" transform="translate(0,0)"></path>
<path d="M 1122.37 343.739 C 1123.89 345.85 1129.33 356.938 1130.96 359.932 C 1138.92 374.523 1146.76 385.123 1159.31 396.053 C 1197.06 429.853 1246.98 425.613 1293.72 435.425 C 1394.15 456.504 1493.08 512.841 1529.99 613.93 C 1532.7 621.374 1536.88 633.226 1537.57 640.949 L 1536.54 641.193 C 1468.88 560.665 1397.2 521.531 1292.12 507.065 C 1266.97 501.878 1238.58 507.161 1213.96 501.448 C 1125.58 480.941 1106.1 423.316 1122.37 343.739 z" fill="rgb(128,85,65)" transform="translate(0,0)"></path>
<path d="M 926.254 335.668 C 928.315 338.432 929.378 345.905 929.807 349.459 C 934.249 386.277 938.46 426.452 914.435 457.789 C 892.72 486.115 857.788 502.452 822.898 506.407 C 813.996 507.416 800.906 506.978 791.73 507.167 C 774.869 507.484 758.043 508.836 741.347 511.216 C 649.179 524.472 566.072 573.853 510.361 648.466 C 509.055 649.77 509.876 649.108 507.752 650.255 C 505.956 646.484 510.218 634.29 511.326 630.077 C 544.128 505.286 674.281 440.714 793.316 426.362 C 814.055 423.862 834.452 422.544 853.807 414.242 C 891.102 399.433 911.333 371.592 926.254 335.668 z" fill="rgb(28,23,23)" transform="translate(0,0)"></path>
<path d="M 917.22 360.931 C 919.933 355.478 923.008 349.572 925.491 344.074 C 927.691 356.192 929.85 368.847 930.361 381.16 C 931.311 383.725 931.486 399.302 930.389 401.795 C 928.9 430.295 921.038 452.091 899.045 471.239 C 854.051 510.41 813.456 502.223 761.195 506.36 C 760.216 506.698 760.349 506.697 759.349 506.636 C 757.344 506.816 755.343 507.037 753.346 507.297 C 653.598 519.358 571.6 565.855 509.581 644.818 C 515.284 622.12 524.98 594.269 537.261 574.081 C 582.907 499.05 662.413 457.423 745.148 437.306 C 809.311 421.704 853.789 435.24 901.354 383.114 C 901.698 382.434 901.636 382.398 902.186 381.977 C 907.974 374.854 911.384 369.887 916.431 362.163 C 916.747 361.49 916.719 361.392 917.22 360.931 z" fill="rgb(128,85,65)" transform="translate(0,0)"></path>
<path d="M 930.361 381.16 C 931.311 383.725 931.486 399.302 930.389 401.795 C 930.118 399.78 930.025 383.171 930.361 381.16 z" fill="rgb(102,68,53)" transform="translate(0,0)"></path>
<metadata><recraft-signature>{"signed_by": "recraft", "signature_b64": "GS34X0mOM3QjgauxuUf1dqxz8LPVvVuShUTUAxD7vrxcWB3c9ZdUdwTJ84+1XqBE4MU0bhldcGkfCoaPl1zyAg==", "signing_algo": "Ed25519", "generation_timestamp": 1779010737, "identifier": "e6729c4a-7da5-40ef-9191-6de594bcd1ff"}</recraft-signature></metadata></svg>