<svg xmlns="http://www.w3.org/2000/svg" height="1024" preserveAspectRatio="none" style="display: block;" version="1.1" viewBox="0 0 2048 2048" width="1024">
<path d="M 0 0 L 2048 0 L 2048 2048 L 0 2048 L 0 0 z" fill="rgb(255,255,255)" transform="translate(0,0)"></path>
<path d="M 689.249 1198.17 C 688.922 1192.44 665.663 1171.1 659.983 1165.41 C 636.947 1142.43 614.056 1119.31 591.308 1096.05 C 582.538 1087.24 551.936 1060.36 550.908 1049.43 C 548.471 1023.52 549.346 995.211 549.329 968.963 L 549.306 821.034 L 549.311 724.061 C 549.278 715.489 549.108 706.845 549.206 698.273 C 549.374 683.66 547.036 667.112 558.175 655.618 C 574.867 638.394 591.548 621.216 608.338 604.124 L 713.838 496.924 L 791.197 418.004 C 807.713 400.835 824.849 381.518 842.728 366.127 C 847.229 362.252 849.373 361.947 855.421 361.755 C 883.383 360.866 912.012 361.295 939.999 361.327 L 1085.51 361.22 L 1180.95 361.324 C 1199.44 361.283 1219.49 360.552 1237.78 362.078 C 1243.07 362.52 1246.42 364.674 1250.34 368.333 C 1270.27 386.95 1289.92 407.525 1308.99 427.008 L 1406.43 525.021 C 1419.61 541.084 1444.39 565.089 1459.74 579.86 C 1464.71 585.857 1469.68 588.961 1475.62 593.877 C 1480.05 603.423 1520.47 641.358 1529.69 651.188 C 1534.86 657.13 1540.96 663.841 1541.4 672.069 C 1542.19 686.961 1541.92 703.388 1541.94 718.286 L 1541.95 815.794 L 1541.77 965.504 C 1541.76 991.379 1542.06 1017.24 1541.53 1043.14 C 1541.2 1059.01 1525.88 1069.39 1516.12 1080.24 C 1501.74 1096.23 1482.9 1111.51 1469.12 1127.8 C 1466.89 1196.94 1469.41 1266.65 1467.88 1335.85 C 1467.74 1342.01 1468.08 1348.6 1467.74 1354.7 C 1467.79 1362.83 1467.13 1382.94 1468.31 1390.26 C 1476.38 1440.31 1471.53 1490.39 1443.45 1533.62 C 1352.13 1674.21 1090.45 1727.28 960.976 1618.16 C 957.57 1615.23 952.666 1610.63 949.39 1607.42 C 930.339 1591.74 920.489 1570.73 912.511 1547.78 C 891.657 1487.8 911.783 1404.55 954.336 1357.97 C 956.403 1355.4 957.486 1354.34 958.758 1351.24 C 938.616 1351.39 859.929 1353.37 847.352 1349.12 C 841.827 1347.25 836.784 1343.31 832.422 1339.49 C 823.114 1331.34 814.877 1321.66 806.212 1312.82 C 790.022 1296.25 773.599 1279.9 756.946 1263.79 C 753.805 1258.89 752.191 1257.56 747.622 1254.02 C 743.282 1248.3 696.726 1201.62 691.46 1197.66 L 689.249 1198.17 z" fill="rgb(247,17,52)" transform="translate(0,0)"></path>
<path d="M 1469.12 1127.8 C 1466.89 1196.94 1469.41 1266.65 1467.88 1335.85 C 1467.74 1342.01 1468.08 1348.6 1467.74 1354.7 C 1467.79 1362.83 1467.13 1382.94 1468.31 1390.26 C 1476.38 1440.31 1471.53 1490.39 1443.45 1533.62 C 1352.13 1674.21 1090.45 1727.28 960.976 1618.16 C 957.57 1615.23 952.666 1610.63 949.39 1607.42 C 930.339 1591.74 920.489 1570.73 912.511 1547.78 C 891.657 1487.8 911.783 1404.55 954.336 1357.97 C 956.403 1355.4 957.486 1354.34 958.758 1351.24 L 960.876 1351.98 C 966.592 1350.86 985.765 1351.66 992.468 1351.84 C 1008.89 1351.82 1025.74 1352.01 1042.12 1351.76 C 1059.2 1351 1080.83 1351.53 1098.19 1351.47 L 1220.53 1351.31 C 1257.63 1351.22 1260.47 1338.38 1284.86 1313.94 L 1354.48 1244.12 C 1369.01 1228.53 1390.19 1206.8 1405.97 1192.48 C 1419.28 1176.26 1443.24 1153.73 1458.67 1137.32 L 1459.71 1134.18 L 1460.44 1133.64 L 1465.74 1130.16 L 1469.12 1127.8 z" fill="rgb(31,32,178)" transform="translate(0,0)"></path>
<path d="M 1469.12 1127.8 C 1466.89 1196.94 1469.41 1266.65 1467.88 1335.85 C 1467.74 1342.01 1468.08 1348.6 1467.74 1354.7 C 1467.79 1362.83 1467.13 1382.94 1468.31 1390.26 C 1476.38 1440.31 1471.53 1490.39 1443.45 1533.62 C 1352.13 1674.21 1090.45 1727.28 960.976 1618.16 L 961.871 1616.13 C 963.778 1617.86 967.11 1620.44 969.442 1621.48 C 1067.34 1665 1171.44 1641 1263.57 1595.67 C 1337.01 1559.54 1402.08 1499.18 1436.33 1423.61 C 1445.26 1403.7 1451.32 1382.63 1454.35 1361.02 C 1456.47 1345.78 1457.9 1330.44 1458.61 1315.07 C 1460.16 1279.39 1457.17 1244.29 1460.9 1208.48 C 1461.49 1202.84 1459.31 1139.06 1458.67 1137.32 L 1459.71 1134.18 L 1460.44 1133.64 L 1465.74 1130.16 L 1469.12 1127.8 z" fill="rgb(1,1,138)" transform="translate(0,0)"></path>
<path d="M 992.468 1351.84 C 1008.89 1351.82 1025.74 1352.01 1042.12 1351.76 C 1038.39 1355.27 1034.73 1358.85 1031.13 1362.5 C 991.086 1403.24 960.309 1455.07 952.039 1512.22 C 949.8 1527.7 949.927 1539.42 950.049 1554.86 C 902.776 1482.98 941.553 1408.95 992.468 1351.84 z" fill="rgb(75,82,207)" transform="translate(0,0)"></path>
<path d="M 1405.97 1192.48 C 1405.39 1217.77 1405.53 1245.34 1405.7 1270.66 C 1390.91 1260 1371.95 1249.45 1354.48 1244.12 C 1369.01 1228.53 1390.19 1206.8 1405.97 1192.48 z" fill="rgb(255,255,255)" transform="translate(0,0)"></path>
<path d="M 949.39 1607.42 C 955.217 1608.85 958.078 1611.65 961.871 1616.13 L 960.976 1618.16 C 957.57 1615.23 952.666 1610.63 949.39 1607.42 z" fill="rgb(1,1,138)" transform="translate(0,0)"></path>
<path d="M 689.249 1198.17 C 688.922 1192.44 665.663 1171.1 659.983 1165.41 C 636.947 1142.43 614.056 1119.31 591.308 1096.05 C 582.538 1087.24 551.936 1060.36 550.908 1049.43 C 548.471 1023.52 549.346 995.211 549.329 968.963 L 549.306 821.034 L 549.311 724.061 C 549.278 715.489 549.108 706.845 549.206 698.273 C 549.374 683.66 547.036 667.112 558.175 655.618 C 574.867 638.394 591.548 621.216 608.338 604.124 L 713.838 496.924 L 791.197 418.004 C 807.713 400.835 824.849 381.518 842.728 366.127 C 847.229 362.252 849.373 361.947 855.421 361.755 C 883.383 360.866 912.012 361.295 939.999 361.327 L 1085.51 361.22 L 1180.95 361.324 C 1199.44 361.283 1219.49 360.552 1237.78 362.078 C 1243.07 362.52 1246.42 364.674 1250.34 368.333 C 1270.27 386.95 1289.92 407.525 1308.99 427.008 L 1406.43 525.021 C 1419.61 541.084 1444.39 565.089 1459.74 579.86 C 1464.71 585.857 1469.68 588.961 1475.62 593.877 C 1480.05 603.423 1520.47 641.358 1529.69 651.188 L 1527.79 652.096 C 1517.26 640.822 1505.76 630.125 1494.85 619.148 L 1438.2 561.711 L 1322.29 443.579 L 1275 395.495 C 1271.19 391.616 1245.18 365.208 1242.85 365.103 C 1131.36 360.073 1016.07 364.766 903.953 363.052 C 882.504 362.724 868.656 362.159 848.259 364.741 C 834.907 373.313 795.932 415.439 784.372 427.367 L 696.798 516.74 L 606.211 608.791 C 590.632 624.595 574.546 640.697 559.375 656.886 C 555.378 661.151 551.158 668.568 551.003 674.46 C 550.628 688.75 550.771 703.647 550.766 717.951 L 550.793 808.295 C 550.802 833.556 548.495 1039.04 552.578 1051.63 C 553.64 1054.91 558.898 1060.25 561.245 1062.94 C 577.493 1081.53 596.375 1098.61 613.813 1116.16 C 650.346 1153.15 687.098 1189.93 724.068 1226.48 L 797.226 1300.87 C 807.123 1310.97 840.204 1348.47 852.407 1348.71 C 876.363 1349.18 904.156 1349.13 928.407 1349.2 L 1089.52 1349.08 L 1187.38 1349.04 C 1204.9 1349.03 1223.13 1349.56 1240.58 1348.14 C 1247.77 1347.55 1253.43 1341.87 1258.69 1337.48 C 1276.6 1320.05 1294.29 1301.87 1311.87 1284.1 L 1407.4 1187.87 C 1424.97 1169.99 1441.65 1151.6 1459.71 1134.18 L 1458.67 1137.32 C 1443.24 1153.73 1419.28 1176.26 1405.97 1192.48 C 1390.19 1206.8 1369.01 1228.53 1354.48 1244.12 L 1284.86 1313.94 C 1260.47 1338.38 1257.63 1351.22 1220.53 1351.31 L 1098.19 1351.47 C 1080.83 1351.53 1059.2 1351 1042.12 1351.76 C 1025.74 1352.01 1008.89 1351.82 992.468 1351.84 C 985.765 1351.66 966.592 1350.86 960.876 1351.98 L 958.758 1351.24 C 938.616 1351.39 859.929 1353.37 847.352 1349.12 C 841.827 1347.25 836.784 1343.31 832.422 1339.49 C 823.114 1331.34 814.877 1321.66 806.212 1312.82 C 790.022 1296.25 773.599 1279.9 756.946 1263.79 C 753.805 1258.89 752.191 1257.56 747.622 1254.02 C 743.282 1248.3 696.726 1201.62 691.46 1197.66 L 689.249 1198.17 z" fill="rgb(8,4,5)" transform="translate(0,0)"></path>
<path d="M 1529.69 651.188 C 1534.86 657.13 1540.96 663.841 1541.4 672.069 C 1542.19 686.961 1541.92 703.388 1541.94 718.286 L 1541.95 815.794 L 1541.77 965.504 C 1541.76 991.379 1542.06 1017.24 1541.53 1043.14 C 1541.2 1059.01 1525.88 1069.39 1516.12 1080.24 C 1501.74 1096.23 1482.9 1111.51 1469.12 1127.8 L 1465.74 1130.16 L 1460.44 1133.64 C 1479.4 1109.4 1525.21 1073.67 1539.9 1048.64 L 1539.98 789.156 L 1540.13 712.269 C 1540.15 699.134 1540.54 684.201 1539.38 671.187 C 1538.74 664.082 1532.4 657.377 1527.79 652.096 L 1529.69 651.188 z" fill="rgb(97,11,16)" transform="translate(0,0)"></path>
<path d="M 865.097 401.059 C 873.96 400.797 939.117 400.259 942.684 402.795 C 983.301 403.138 1023.92 403.234 1064.54 403.084 C 1086.69 403.077 1117.86 403.934 1139.34 402.821 C 1145.79 401.024 1206.42 401.544 1216.72 401.152 C 1219.8 401.035 1229.16 401.852 1231.77 404.094 C 1240.69 411.728 1250.13 421.717 1258.48 430.102 C 1278.66 450.348 1298.74 470.696 1318.71 491.144 L 1413.02 587.22 C 1442.43 616.824 1473.44 647.244 1502.07 677.542 C 1503.03 690.459 1502.3 711.437 1502.25 724.923 L 1502.17 811.185 L 1502.61 935.405 C 1502.8 969.65 1503.4 1004.67 1502.08 1038.88 C 1500.68 1041.01 1499.15 1043.06 1497.49 1045 C 1487.8 1056.24 1470.75 1072.5 1459.93 1083.57 C 1433.46 1110.89 1406.78 1137.99 1379.89 1164.89 L 1291.48 1254.36 C 1283.61 1262.4 1238.7 1311.42 1231.21 1311.6 C 1188.78 1312.62 1145.37 1312 1102.87 1312.02 L 858.996 1312.1 C 850.023 1305.75 831.54 1286.29 823.056 1277.73 L 754.261 1207.72 C 714.901 1168.56 675.942 1129 637.39 1089.04 C 624.991 1076.36 597.633 1051.16 588.767 1038.03 C 587.847 1025.06 588.418 1006.28 588.443 992.919 L 588.552 912.358 C 588.592 835.393 587.975 757.052 588.886 680.193 C 593.188 671.997 622.932 643.077 631.386 634.424 C 656.519 608.346 681.871 582.481 707.441 556.831 L 810.892 452.134 C 824.925 438.088 849.303 410.2 865.097 401.059 z" fill="rgb(255,255,255)" transform="translate(0,0)"></path>
<path d="M 865.097 401.059 C 873.96 400.797 939.117 400.259 942.684 402.795 C 917.131 403.007 891.233 402.671 865.773 403.062 C 852.253 411.799 827.651 438.515 815.406 450.774 C 778.319 487.822 741.491 525.128 704.925 562.689 C 678.27 589.573 651.779 616.619 625.455 643.826 C 617.14 652.358 597.045 671.592 591.151 680.049 C 590.112 703.185 590.686 728.913 590.629 752.276 L 590.674 894.11 L 590.539 986.311 C 590.518 1001.05 589.895 1023.88 591.14 1038.24 C 602.554 1052.21 629.483 1077.92 642.808 1091.6 L 760.326 1210.63 L 824.422 1275.81 C 833.52 1285.06 849.146 1301.73 858.9 1309.74 C 886.667 1310.97 920.968 1310.12 949.252 1310.1 L 1115.43 1310.01 L 1195.18 1310.1 C 1206.7 1310.11 1220.24 1310.33 1231.7 1309.45 C 1234.29 1309.25 1245.3 1298.7 1247.68 1296.23 C 1276.25 1266.57 1305.32 1237.38 1334.22 1208.02 L 1448.01 1092.57 C 1457 1083.26 1495.92 1045.2 1500.5 1037.52 C 1501.54 1011.07 1501.38 982.574 1500.97 955.999 C 1499.57 864.307 1502.75 771.496 1500.47 679.913 C 1494.16 671.641 1476.22 654.161 1468.32 646.163 L 1408.69 585.777 L 1292.55 467.904 C 1281.65 456.857 1236.66 408.813 1226.34 403.199 C 1197.44 402.571 1167.91 403.601 1139.34 402.821 C 1145.79 401.024 1206.42 401.544 1216.72 401.152 C 1219.8 401.035 1229.16 401.852 1231.77 404.094 C 1240.69 411.728 1250.13 421.717 1258.48 430.102 C 1278.66 450.348 1298.74 470.696 1318.71 491.144 L 1413.02 587.22 C 1442.43 616.824 1473.44 647.244 1502.07 677.542 C 1503.03 690.459 1502.3 711.437 1502.25 724.923 L 1502.17 811.185 L 1502.61 935.405 C 1502.8 969.65 1503.4 1004.67 1502.08 1038.88 C 1500.68 1041.01 1499.15 1043.06 1497.49 1045 C 1487.8 1056.24 1470.75 1072.5 1459.93 1083.57 C 1433.46 1110.89 1406.78 1137.99 1379.89 1164.89 L 1291.48 1254.36 C 1283.61 1262.4 1238.7 1311.42 1231.21 1311.6 C 1188.78 1312.62 1145.37 1312 1102.87 1312.02 L 858.996 1312.1 C 850.023 1305.75 831.54 1286.29 823.056 1277.73 L 754.261 1207.72 C 714.901 1168.56 675.942 1129 637.39 1089.04 C 624.991 1076.36 597.633 1051.16 588.767 1038.03 C 587.847 1025.06 588.418 1006.28 588.443 992.919 L 588.552 912.358 C 588.592 835.393 587.975 757.052 588.886 680.193 C 593.188 671.997 622.932 643.077 631.386 634.424 C 656.519 608.346 681.871 582.481 707.441 556.831 L 810.892 452.134 C 824.925 438.088 849.303 410.2 865.097 401.059 z" fill="rgb(97,11,16)" transform="translate(0,0)"></path>
<path d="M 878.936 442.023 C 890.793 441.046 908.319 441.582 920.653 441.617 L 991.576 441.791 L 1211.35 441.955 C 1219.95 447.841 1240.67 469.183 1248.31 477.012 L 1297.5 527.259 C 1344.01 574.601 1396.24 624.664 1440.99 672.786 C 1448.99 679.886 1455.07 686.507 1461.86 694.713 L 1462.06 914.732 C 1462.04 948.606 1463.13 990.212 1461.83 1023.58 C 1415.24 1074.96 1356.83 1129.98 1307.3 1180.53 L 1247.62 1241.48 C 1241.54 1247.7 1223.34 1267.07 1216.94 1271.79 C 1151.33 1272.93 1083.6 1271.63 1017.72 1271.65 L 926.452 1271.8 C 910.414 1271.83 892.052 1272.34 876.27 1271.63 C 865.529 1263.27 847.748 1244.11 837.587 1233.75 L 768.305 1163.26 L 675.354 1069.76 C 667.686 1062.09 634.563 1029.59 630.302 1023.09 C 627.4 1017.88 630.263 727.295 629.595 699.206 C 629.711 697.914 629.778 696.457 630.09 695.183 C 631.43 689.726 678.052 644.473 685.73 636.707 L 816.63 503.616 C 827.425 492.585 869.296 448.571 878.936 442.023 z" fill="rgb(247,17,52)" transform="translate(0,0)"></path>
<path d="M 1434.07 668.819 C 1437.88 672.089 1436.7 672.027 1440.99 672.786 C 1448.99 679.886 1455.07 686.507 1461.86 694.713 L 1462.06 914.732 C 1462.04 948.606 1463.13 990.212 1461.83 1023.58 C 1415.24 1074.96 1356.83 1129.98 1307.3 1180.53 L 1247.62 1241.48 C 1241.54 1247.7 1223.34 1267.07 1216.94 1271.79 C 1151.33 1272.93 1083.6 1271.63 1017.72 1271.65 L 926.452 1271.8 C 910.414 1271.83 892.052 1272.34 876.27 1271.63 C 865.529 1263.27 847.748 1244.11 837.587 1233.75 L 768.305 1163.26 L 675.354 1069.76 C 667.686 1062.09 634.563 1029.59 630.302 1023.09 C 631.974 1022.7 632.759 1023.53 633.983 1024.83 C 686.494 1080.54 742.814 1132.96 795.908 1188.02 L 846.07 1239.16 C 853.76 1247.01 869.175 1264.98 877.841 1269.64 L 884.502 1269.69 L 966.804 1269.87 C 977.027 1269.87 999.946 1271.14 1008.95 1269.61 C 1123.16 1250.12 1226.18 1208.31 1309.44 1125.99 C 1404.3 1031.58 1454.89 901.511 1448.74 767.82 C 1447.94 749.163 1445.43 730.988 1442.51 712.571 C 1440.46 699.57 1433.53 681.594 1434.07 668.819 z" fill="rgb(205,3,24)" transform="translate(0,0)"></path>
<path d="M 878.936 442.023 C 890.793 441.046 908.319 441.582 920.653 441.617 L 991.576 441.791 L 1211.35 441.955 C 1219.95 447.841 1240.67 469.183 1248.31 477.012 L 1297.5 527.259 C 1344.01 574.601 1396.24 624.664 1440.99 672.786 C 1436.7 672.027 1437.88 672.089 1434.07 668.819 C 1366.45 602.619 1301.27 532.414 1233.92 465.786 C 1226.87 458.809 1218.77 449.81 1210.73 444.193 C 1131.67 443.438 1052.61 443.171 973.547 443.392 L 909.372 443.385 C 888.226 443.398 882.702 439.178 866.998 455.088 C 823.885 498.764 781.459 543.456 738.13 586.884 L 670.987 654.993 C 657.836 668.523 641.744 683.074 630.789 698.047 C 630.391 698.433 629.993 698.819 629.595 699.206 C 629.711 697.914 629.778 696.457 630.09 695.183 C 631.43 689.726 678.052 644.473 685.73 636.707 L 816.63 503.616 C 827.425 492.585 869.296 448.571 878.936 442.023 z" fill="rgb(205,3,24)" transform="translate(0,0)"></path>
<path d="M 689.249 1198.17 L 691.46 1197.66 C 696.726 1201.62 743.282 1248.3 747.622 1254.02 C 752.191 1257.56 753.805 1258.89 756.946 1263.79 C 756.905 1271.45 757.026 1279.72 756.775 1287.31 C 757.135 1362.23 757.015 1437.15 756.416 1512.07 L 756.162 1588.42 C 756.049 1600.01 756.48 1614.14 755.382 1625.49 C 748.219 1684.26 715.423 1731.49 669.002 1767.06 C 594.64 1824.04 485.088 1850.02 392.55 1838.28 C 355.151 1833.54 312.004 1819.72 279.63 1800.48 C 277.589 1799.27 268.311 1793.3 266.97 1791.66 C 259.917 1787.67 252.616 1781.14 246.769 1775.58 L 246.346 1775.14 C 241.86 1771.64 233.025 1761.94 229.866 1757.32 C 229.021 1756.62 228.131 1755.18 227.43 1754.21 C 225.198 1751.7 223.106 1749.07 221.576 1746.05 L 220.158 1743.23 C 217.646 1740.67 212.159 1729.35 210.48 1725.5 C 156.151 1600.99 252.909 1475.16 362.669 1426.47 C 366.286 1424.69 369.261 1423.13 373.083 1421.75 C 399.894 1410.22 427.763 1401.32 456.298 1395.18 C 539.439 1377.71 617.868 1384.82 690.25 1432.06 C 691.163 1354.79 687.653 1274.73 689.249 1198.17 z" fill="rgb(31,32,178)" transform="translate(0,0)"></path>
<path d="M 747.622 1254.02 C 752.191 1257.56 753.805 1258.89 756.946 1263.79 C 756.905 1271.45 757.026 1279.72 756.775 1287.31 C 757.135 1362.23 757.015 1437.15 756.416 1512.07 L 756.162 1588.42 C 756.049 1600.01 756.48 1614.14 755.382 1625.49 C 748.219 1684.26 715.423 1731.49 669.002 1767.06 C 594.64 1824.04 485.088 1850.02 392.55 1838.28 C 355.151 1833.54 312.004 1819.72 279.63 1800.48 C 277.589 1799.27 268.311 1793.3 266.97 1791.66 C 259.917 1787.67 252.616 1781.14 246.769 1775.58 C 252.449 1776.14 257.641 1783.79 262.051 1785.67 C 267.423 1787.96 271.258 1787.25 277.967 1790.22 C 299.642 1797.95 326.235 1805.2 349.469 1806.14 C 517.197 1812.88 717.625 1702.42 742.555 1523.89 C 746.911 1492.7 746.02 1454.91 746.054 1423.57 L 746.848 1312.05 C 747.007 1295.46 746.165 1271.15 747.506 1255.28 L 747.622 1254.02 z" fill="rgb(1,1,138)" transform="translate(0,0)"></path>
<path d="M 229.866 1757.32 C 235.407 1759.62 244.742 1770.13 246.346 1775.14 C 241.86 1771.64 233.025 1761.94 229.866 1757.32 z" fill="rgb(1,1,138)" transform="translate(0,0)"></path>
<path d="M 220.158 1743.23 C 225.36 1746.75 225.517 1746.4 227.028 1752.61 L 227.43 1754.21 C 225.198 1751.7 223.106 1749.07 221.576 1746.05 L 220.158 1743.23 z" fill="rgb(1,1,138)" transform="translate(0,0)"></path>
<path d="M 362.669 1426.47 C 366.286 1424.69 369.261 1423.13 373.083 1421.75 C 370.363 1426.52 368.19 1427.67 362.669 1426.47 z" fill="rgb(1,1,138)" transform="translate(0,0)"></path>
<path d="M 506.962 1410.41 C 525.747 1409.51 540.003 1411.78 558.166 1415.29 C 478.652 1419.53 402.877 1450.41 343.037 1502.94 C 291.347 1547.91 244.643 1615.14 239.848 1685 C 238.957 1693.64 239.108 1705.47 238.972 1714.37 C 194.014 1651.9 229.017 1572.14 274.453 1520.95 C 335.017 1452.73 416.26 1416.01 506.962 1410.41 z" fill="rgb(75,82,207)" transform="translate(0,0)"></path>
<path d="M 1406.43 525.021 C 1404.37 478.768 1405.09 424.988 1404.4 377.972 C 1404.09 354.14 1403.92 330.306 1403.9 306.471 C 1403.86 292.155 1403 275.266 1404.96 261.297 C 1410.21 223.982 1453.87 190.531 1489.14 215.164 C 1513.1 236.19 1509.35 263.983 1519.41 291.809 C 1556.51 394.372 1635.62 461.224 1718.99 525.947 C 1723.45 528.688 1742.38 541.899 1745.29 545.289 C 1801.06 590.274 1843.28 645.228 1851.61 718.629 C 1857.87 773.734 1843.98 826.914 1819.25 875.714 C 1813.17 887.71 1800.41 920.624 1787.9 924.074 C 1784.17 923.668 1782.75 922.663 1779.85 920.228 C 1775.9 906.78 1790.51 881.603 1792.75 864.815 C 1794.74 849.957 1795.4 840.736 1795.91 825.8 C 1795.16 820.688 1794.3 810.245 1793.84 804.637 C 1792.49 801.544 1790.97 789.885 1789.77 785.489 C 1747.49 630.399 1567.94 609.998 1476.27 496.649 C 1475.65 518.677 1475.35 540.714 1475.37 562.751 C 1475.37 571.844 1476.13 585.523 1475.62 593.877 C 1469.68 588.961 1464.71 585.857 1459.74 579.86 C 1444.39 565.089 1419.61 541.084 1406.43 525.021 z" fill="rgb(31,32,178)" transform="translate(0,0)"></path>
<path d="M 1745.29 545.289 C 1801.06 590.274 1843.28 645.228 1851.61 718.629 C 1857.87 773.734 1843.98 826.914 1819.25 875.714 C 1813.17 887.71 1800.41 920.624 1787.9 924.074 C 1784.17 923.668 1782.75 922.663 1779.85 920.228 C 1781.3 918.383 1783.02 914.463 1784.42 912.083 C 1815.63 859.042 1826.56 785.905 1819.71 725.07 C 1818.75 716.559 1816.64 699.725 1814.36 691.674 C 1812.74 683.132 1810.98 677.545 1808.34 669.183 C 1803.75 632.893 1774.07 586.976 1753.67 556.551 C 1751.26 552.966 1746.1 548.876 1745.29 545.289 z" fill="rgb(1,1,138)" transform="translate(0,0)"></path>
<path d="M 1489.14 215.164 C 1513.1 236.19 1509.35 263.983 1519.41 291.809 C 1556.51 394.372 1635.62 461.224 1718.99 525.947 C 1714.43 525.592 1696.84 513.175 1690.83 509.744 C 1657.22 490.8 1623.85 473.435 1594.75 447.693 C 1536.65 396.31 1491.88 318.189 1488.84 239.722 C 1488.56 232.314 1489.77 224.303 1489.27 216.977 L 1489.14 215.164 z" fill="rgb(1,1,138)" transform="translate(0,0)"></path>
<path d="M 1593 466.777 C 1613.22 477.331 1641.96 497.998 1661.59 510.853 C 1733.01 557.637 1768.88 594.707 1808.34 669.183 C 1810.98 677.545 1812.74 683.132 1814.36 691.674 C 1812.03 690.03 1792.23 653.357 1787.85 646.615 C 1775.86 628.347 1762.33 611.134 1747.41 595.162 C 1717.61 563.336 1673.36 532.747 1639.12 505.308 C 1625.59 494.465 1604.65 479.196 1593 466.777 z" fill="rgb(75,82,207)" transform="translate(0,0)"></path>
<path d="M 1459.74 579.86 C 1462.97 555.241 1459.81 525.548 1460.99 500.471 C 1461.26 494.636 1459.6 485.028 1464.68 481.66 C 1471.71 482.679 1473.73 489.409 1476.75 495.159 L 1476.27 496.649 C 1475.65 518.677 1475.35 540.714 1475.37 562.751 C 1475.37 571.844 1476.13 585.523 1475.62 593.877 C 1469.68 588.961 1464.71 585.857 1459.74 579.86 z" fill="rgb(1,1,138)" transform="translate(0,0)"></path>
<path d="M 1793.84 804.637 C 1798.58 809.776 1798.15 819.522 1795.91 825.8 C 1795.16 820.688 1794.3 810.245 1793.84 804.637 z" fill="rgb(1,1,138)" transform="translate(0,0)"></path>
<path d="M 1431.49 343.191 C 1425.1 321.928 1424.16 300.396 1426.53 278.356 C 1430.32 243.237 1459.86 214.796 1486.5 254.021 C 1445.06 264.027 1436.6 290.846 1433.85 329.717 C 1434.18 340.788 1434.58 345.67 1435.45 356.493 C 1433.83 351.476 1432.74 348.279 1431.49 343.191 z" fill="rgb(75,82,207)" transform="translate(0,0)"></path>
<path d="M 1433.85 329.717 C 1434.18 340.788 1434.58 345.67 1435.45 356.493 C 1433.83 351.476 1432.74 348.279 1431.49 343.191 C 1434.5 338.758 1432.63 336.722 1433.85 329.717 z" fill="rgb(69,71,202)" transform="translate(0,0)"></path>
<metadata><recraft-signature>{"signed_by": "recraft", "signature_b64": "GfMT0SIvES82OXe8lX2hGxxPVnZTKZLGMGBgdJxG6PBFXt5WgsD9TO+eyvuzmZQYfPV+veksfanVZqne5H5uBA==", "signing_algo": "Ed25519", "generation_timestamp": 1779010766, "identifier": "68525841-c697-4d36-ad52-5a6cea7ea8b6"}</recraft-signature></metadata></svg>