<svg xmlns="http://www.w3.org/2000/svg" height="1216" preserveAspectRatio="none" style="display: block;" version="1.1" viewBox="0 0 1509 2048" width="896">
<path d="M 0 0 L 1509 0 L 1509 2048 L 0 2048 L 0 0 z" fill="rgb(255,255,255)" transform="translate(0,0)"></path>
<path d="M 491.846 1218.46 C 479.94 1216.14 450.98 1206.55 438.334 1202.42 C 371.144 1180.48 303.318 1156.39 241.889 1121.02 C 165.506 1077.05 98.2107 1014.62 74.787 926.933 C 45.128 815.901 94.331 702.446 177.253 627.854 C 201.474 606.067 224.109 592.095 249.548 573.274 C 278.968 551.508 313.23 516.643 335.782 487.831 C 355.377 463.232 372.037 436.432 385.423 407.973 C 395.284 386.715 402.097 365.319 410.723 343.63 C 421.243 317.513 433.61 292.179 447.731 267.82 C 514.318 153.926 613.295 76.8712 741.31 43.543 C 883.38 6.55545 1043.84 34.0053 1169.59 107.944 C 1263.07 162.524 1335.42 247.033 1374.94 347.812 C 1385.04 374.198 1389.61 395.122 1396.57 421.871 C 1409.91 434.213 1421.4 448.417 1430.68 464.045 C 1466.56 524.393 1460.96 604.808 1418.21 660.371 C 1410.27 670.691 1397.03 685.564 1385.87 692.193 C 1381.55 695.604 1378.52 697.735 1373.89 700.727 C 1369.38 713.148 1366.76 731.868 1364.69 745.021 C 1360.92 789.271 1360.07 831.654 1376.01 873.96 C 1388.19 906.267 1397.53 928.467 1406.49 962.36 C 1434.86 1069.7 1411.17 1184.03 1323.73 1257.47 C 1242.94 1325.32 1131 1339.36 1029.01 1330.61 C 1010.3 1329 904.962 1314.6 895.459 1308.9 C 885.016 1308.02 852.63 1298.85 842.156 1295.54 C 841.502 1300.49 838.854 1307.08 837.105 1311.96 L 835.545 1311.92 C 834.656 1314.21 833.926 1316.08 833.233 1318.45 C 819.342 1316.31 802.293 1309.92 788.841 1305.56 C 724.829 1284.81 675.584 1252.68 620.887 1214.75 C 614.901 1235.13 609.491 1254.46 601.636 1274.24 C 600.864 1274.68 600.378 1274.55 599.413 1274.55 C 603.273 1265.18 605.92 1257.77 609.06 1248.12 C 567.088 1238.59 533.206 1231.21 491.846 1218.46 z" fill="rgb(91,59,23)" transform="translate(0,0)"></path>
<path d="M 861.016 385.899 L 863.25 380.476 C 883.362 473.237 830.242 564.117 736.851 586.543 C 761.224 612.215 788.595 630.016 822.971 639.669 C 886.754 657.581 960.139 644.441 1012.93 604.042 C 1017.54 601.318 1025.41 594.862 1029.16 591.015 C 1070.83 552.856 1097.81 498.081 1100.38 441.399 C 1100.58 436.682 1100.73 431.964 1100.82 427.244 C 1115.5 462.767 1111.23 511.04 1096.69 546 C 1078.15 590.846 1042.29 626.308 997.233 644.348 C 992.179 646.408 985.259 648.782 980.015 649.973 C 1017.52 679.923 1065.48 693.555 1113.13 687.81 C 1131.94 685.565 1175.13 673.922 1188.19 660.927 C 1193.78 658.066 1198.46 654.606 1203.3 650.67 C 1204.03 647.369 1224.95 628.596 1230.43 621.664 C 1263.53 579.76 1275.08 538.405 1270.3 486.08 C 1280.39 507.582 1284.07 518.146 1286.23 541.843 C 1286.14 548.399 1286.15 555.484 1286.2 562.056 C 1283.33 591.971 1276.72 611.571 1259.97 636.7 C 1239.65 667.188 1215.94 680.707 1182.99 694.233 C 1185.5 700.33 1205.89 709.09 1212.57 712.024 C 1259.41 732.594 1303.87 730.535 1350.61 710.902 C 1358.04 707.782 1382.45 692.387 1385.87 692.193 C 1381.55 695.604 1378.52 697.735 1373.89 700.727 C 1369.38 713.148 1366.76 731.868 1364.69 745.021 C 1360.92 789.271 1360.07 831.654 1376.01 873.96 C 1388.19 906.267 1397.53 928.467 1406.49 962.36 C 1434.86 1069.7 1411.17 1184.03 1323.73 1257.47 C 1242.94 1325.32 1131 1339.36 1029.01 1330.61 C 1010.3 1329 904.962 1314.6 895.459 1308.9 C 885.016 1308.02 852.63 1298.85 842.156 1295.54 C 841.89 1288.25 848.522 1278.67 847.674 1269.92 L 847.308 1267.61 C 772.669 1254.53 715.119 1233.19 652.031 1190.3 C 646.543 1187.39 632.22 1175.88 627.121 1171.9 C 591.149 1143.85 566.107 1116.49 540.555 1079.05 C 537.581 1074.04 534.949 1069.56 531.599 1064.8 C 503.066 1014.83 491.025 972.585 488.103 915.718 L 488.243 896.614 C 493.789 894.823 517.228 887.084 518.266 882.453 C 513.359 882.652 506.306 887.767 500.484 889.825 C 490.751 893.266 483.445 895.888 473.047 897.227 C 439.323 901.563 405.281 892.062 378.677 870.888 C 350.881 849.154 332.805 815.214 327.958 780.292 C 323.726 749.802 332.087 707.32 351.105 682.796 C 355.486 682.456 368.72 672.759 373.836 669.787 C 411.278 648.339 455.527 642.091 497.444 652.334 C 500.683 653.093 501.769 653.829 504.713 652.636 C 526.138 673.737 536.058 695.003 538.204 724.961 C 544.054 723.044 550.249 721.298 556.17 719.533 C 563.846 660.124 602.742 609.371 658.113 586.514 C 712.745 563.749 748.496 568.098 797.025 521.012 C 832.602 486.492 859.92 436.173 861.016 385.899 z" fill="rgb(187,123,105)" transform="translate(0,0)"></path>
<path d="M 1344.87 715.246 C 1354.17 712.036 1362.42 707.564 1371.05 702.942 C 1368.6 710.689 1363.54 736.217 1363.24 743.992 L 1364.69 745.021 C 1360.92 789.271 1360.07 831.654 1376.01 873.96 C 1388.19 906.267 1397.53 928.467 1406.49 962.36 C 1434.86 1069.7 1411.17 1184.03 1323.73 1257.47 C 1242.94 1325.32 1131 1339.36 1029.01 1330.61 C 1010.3 1329 904.962 1314.6 895.459 1308.9 C 885.016 1308.02 852.63 1298.85 842.156 1295.54 C 841.89 1288.25 848.522 1278.67 847.674 1269.92 L 847.308 1267.61 C 876.546 1272.27 911.978 1274.85 941.601 1272.04 L 946.349 1273.94 C 959.612 1271.39 976.097 1270.6 989.026 1268 C 1029.15 1259.92 1080.88 1239.74 1114.07 1215.18 C 1115.07 1214.42 1115.12 1214.38 1116.23 1213.81 C 1117.93 1212.91 1118.03 1212.95 1119.42 1211.67 C 1159.32 1181.85 1193.61 1139.96 1212.81 1093.81 C 1241 1095.17 1262.85 1086.85 1286.72 1073.43 C 1287.33 1072.89 1287.21 1072.93 1287.95 1072.68 C 1341.37 1033.4 1364.95 965.278 1327.44 905.701 C 1318.05 890.784 1307.51 883.891 1293.26 874.381 C 1295.93 863.547 1303.08 843.892 1306.89 832.434 C 1319.68 793.92 1331.82 753.579 1344.87 715.246 z" fill="rgb(91,59,23)" transform="translate(0,0)"></path>
<path d="M 847.308 1267.61 C 876.546 1272.27 911.978 1274.85 941.601 1272.04 L 946.349 1273.94 C 930.689 1276.04 911.733 1280.25 895.954 1283.42 C 878.54 1286.93 858.17 1289.5 841.243 1293.29 C 849.508 1295.94 892.504 1306.55 895.459 1308.9 C 885.016 1308.02 852.63 1298.85 842.156 1295.54 C 841.89 1288.25 848.522 1278.67 847.674 1269.92 L 847.308 1267.61 z" fill="rgb(26,23,22)" transform="translate(0,0)"></path>
<path d="M 1270.3 486.08 C 1280.39 507.582 1284.07 518.146 1286.23 541.843 C 1286.14 548.399 1286.15 555.484 1286.2 562.056 C 1283.33 591.971 1276.72 611.571 1259.97 636.7 C 1239.65 667.188 1215.94 680.707 1182.99 694.233 C 1185.5 700.33 1205.89 709.09 1212.57 712.024 C 1259.41 732.594 1303.87 730.535 1350.61 710.902 C 1358.04 707.782 1382.45 692.387 1385.87 692.193 C 1381.55 695.604 1378.52 697.735 1373.89 700.727 C 1369.38 713.148 1366.76 731.868 1364.69 745.021 L 1363.24 743.992 C 1363.54 736.217 1368.6 710.689 1371.05 702.942 C 1362.42 707.564 1354.17 712.036 1344.87 715.246 C 1331.82 753.579 1319.68 793.92 1306.89 832.434 C 1303.08 843.892 1295.93 863.547 1293.26 874.381 C 1307.51 883.891 1318.05 890.784 1327.44 905.701 C 1364.95 965.278 1341.37 1033.4 1287.95 1072.68 C 1287.21 1072.93 1287.33 1072.89 1286.72 1073.43 C 1262.85 1086.85 1241 1095.17 1212.81 1093.81 C 1193.61 1139.96 1159.32 1181.85 1119.42 1211.67 C 1118.03 1212.95 1117.93 1212.91 1116.23 1213.81 C 1115.12 1214.38 1115.07 1214.42 1114.07 1215.18 C 1080.88 1239.74 1029.15 1259.92 989.026 1268 C 976.097 1270.6 959.612 1271.39 946.349 1273.94 L 941.601 1272.04 C 1050.21 1265.82 1160.7 1203.87 1206.73 1101.55 C 1226.47 1057.66 1241.77 1013.63 1257.61 968.275 C 1279.41 905.869 1301.84 843.808 1321.41 780.604 C 1328.04 759.18 1336.07 738.014 1342.18 716.409 C 1284.98 739.119 1225.46 729.854 1176.47 693.145 C 1177.1 692.993 1177.72 692.83 1178.35 692.657 C 1214.7 682.568 1245.62 658.584 1264.44 625.885 C 1285.95 588.167 1288.55 549.271 1277.16 508.043 L 1273.89 506.88 C 1273.81 555.597 1254.26 602.262 1219.61 636.499 C 1214.09 641.912 1209.39 645.905 1203.3 650.67 C 1204.03 647.369 1224.95 628.596 1230.43 621.664 C 1263.53 579.76 1275.08 538.405 1270.3 486.08 z" fill="rgb(40,29,22)" transform="translate(0,0)"></path>
<path d="M 1273.89 506.88 C 1273.92 505.781 1273.8 503.409 1274.35 502.46 L 1274.54 502.345 C 1275.47 502.71 1276.68 506.88 1277.16 508.043 L 1273.89 506.88 z" fill="rgb(178,114,96)" transform="translate(0,0)"></path>
<path d="M 1116.23 1213.81 C 1117.57 1212.29 1117.48 1212.38 1119.42 1211.67 C 1118.03 1212.95 1117.93 1212.91 1116.23 1213.81 z" fill="rgb(85,45,28)" transform="translate(0,0)"></path>
<path d="M 1291.98 876.622 C 1316.38 889.769 1330.03 907.373 1338.7 933.81 C 1347.37 964.414 1343.71 997.194 1328.51 1025.14 C 1312.08 1055.14 1284.26 1077.25 1251.32 1086.5 C 1236.99 1090.59 1228.54 1091.15 1214.16 1091.23 C 1224.16 1066.6 1235.71 1034.26 1246.42 1010.95 C 1247.66 997.092 1268.39 945.787 1273.7 928.778 C 1275.71 924.002 1278.23 916.048 1280.05 910.933 C 1284.53 899.68 1288.51 888.231 1291.98 876.622 z" fill="rgb(187,123,105)" transform="translate(0,0)"></path>
<path d="M 1273.7 928.778 C 1305.18 937.954 1308.12 983.922 1300.19 1010.3 C 1297.66 1018.58 1294.37 1026.59 1290.35 1034.25 L 1288.5 1031.36 C 1296.16 1008.35 1294.15 983.838 1274.57 967.787 C 1265.17 979.383 1255.37 997.862 1246.42 1010.95 C 1247.66 997.092 1268.39 945.787 1273.7 928.778 z" fill="rgb(85,45,28)" transform="translate(0,0)"></path>
<path d="M 1291.98 876.622 C 1316.38 889.769 1330.03 907.373 1338.7 933.81 C 1312.91 920.377 1313.34 913.213 1280.05 910.933 C 1284.53 899.68 1288.51 888.231 1291.98 876.622 z" fill="rgb(217,174,154)" transform="translate(0,0)"></path>
<path d="M 1290.35 1034.25 C 1285.92 1040.86 1287.54 1035.66 1288.33 1032.14 L 1288.5 1031.36 L 1290.35 1034.25 z" fill="rgb(116,70,55)" transform="translate(0,0)"></path>
<path d="M 488.103 915.718 L 489.656 917.363 C 495.863 917.386 548.949 898.046 559.871 894.464 C 551.691 1003.83 598.521 1099.94 686.644 1164.46 C 680.729 1168.89 654.352 1186.29 652.031 1190.3 C 646.543 1187.39 632.22 1175.88 627.121 1171.9 C 591.149 1143.85 566.107 1116.49 540.555 1079.05 C 537.581 1074.04 534.949 1069.56 531.599 1064.8 C 503.066 1014.83 491.025 972.585 488.103 915.718 z" fill="rgb(178,114,96)" transform="translate(0,0)"></path>
<path d="M 830.552 740.289 C 887.986 735.766 938.242 778.587 942.893 836.01 C 947.544 893.434 904.834 943.785 847.421 948.564 C 789.827 953.358 739.283 910.484 734.617 852.88 C 729.951 795.275 772.938 744.826 830.552 740.289 z" fill="rgb(40,29,22)" transform="translate(0,0)"></path>
<path d="M 835.3 742.216 C 891.678 740.345 938.927 784.474 940.903 840.849 C 942.879 897.224 898.837 944.554 842.466 946.635 C 785.948 948.721 738.466 904.538 736.485 848.015 C 734.503 791.493 778.774 744.093 835.3 742.216 z" fill="rgb(231,216,199)" transform="translate(0,0)"></path>
<path d="M 845.105 827.055 C 853.938 826.153 862.574 830.073 867.71 837.317 C 872.846 844.56 873.687 854.007 869.911 862.044 C 866.136 870.081 858.329 875.465 849.474 876.137 C 836.03 877.158 824.262 867.183 823.066 853.753 C 821.87 840.323 831.691 828.426 845.105 827.055 z" fill="rgb(26,23,22)" transform="translate(0,0)"></path>
<path d="M 1056.99 973.159 C 1023.74 932.432 1027.85 872.877 1066.39 837.112 C 1104.93 801.346 1164.63 801.68 1202.76 837.875 C 1240.9 874.069 1244.35 933.667 1210.64 974.018 C 1176.93 1014.37 1117.67 1021.59 1075.27 990.505 C 1073.98 989.561 1072.72 988.586 1071.47 987.581 C 1070.13 986.491 1068.81 985.366 1067.52 984.207 C 1065.67 982.543 1063.89 980.81 1062.17 979.012 C 1061.13 977.929 1060.12 976.822 1059.13 975.693 C 1058.41 974.86 1057.69 974.015 1056.99 973.159 z" fill="rgb(40,29,22)" transform="translate(0,0)"></path>
<path d="M 1062.17 979.012 C 1064.65 980.478 1065.77 981.946 1067.52 984.207 C 1065.67 982.543 1063.89 980.81 1062.17 979.012 z" fill="rgb(116,70,55)" transform="translate(0,0)"></path>
<path d="M 1071.47 987.581 C 1073.56 988.704 1073.61 988.78 1075.27 990.505 C 1073.98 989.561 1072.72 988.586 1071.47 987.581 z" fill="rgb(116,70,55)" transform="translate(0,0)"></path>
<path d="M 1122.77 813.374 C 1176.24 807.088 1224.67 845.36 1230.92 898.832 C 1237.16 952.304 1198.85 1000.71 1145.38 1006.91 C 1091.96 1013.11 1043.62 974.85 1037.38 921.435 C 1031.14 868.02 1069.36 819.652 1122.77 813.374 z" fill="rgb(231,216,199)" transform="translate(0,0)"></path>
<path d="M 1135.31 898.072 C 1148.4 895.722 1160.98 904.203 1163.71 917.214 C 1166.44 930.224 1158.33 943.048 1145.41 946.159 C 1136.7 948.254 1127.55 945.451 1121.51 938.841 C 1115.47 932.232 1113.5 922.862 1116.38 914.382 C 1119.25 905.902 1126.5 899.654 1135.31 898.072 z" fill="rgb(26,23,22)" transform="translate(0,0)"></path>
<path d="M 863.568 1060.41 C 895.361 1056.46 935.434 1068.83 960.722 1087.62 C 978.099 1100.54 992.393 1116.45 1003.14 1135.19 C 1007.11 1142.11 1010.75 1147.74 1012.08 1155.54 C 1013.9 1166.14 1000.44 1174.91 993.007 1166.33 C 988.56 1161.19 985.842 1153.98 982.215 1148.22 C 975.302 1135.66 967.676 1126.3 957.344 1116.49 C 920.954 1082.63 867.437 1075.11 822.479 1094.57 C 811.936 1099.13 802.214 1107.31 791.06 1110 C 784.27 1111.63 778.71 1107.95 778 1101.14 C 776.048 1089.82 786.927 1086.05 795.198 1081.16 C 816.613 1068.49 838.91 1062.53 863.568 1060.41 z" fill="rgb(85,45,28)" transform="translate(0,0)"></path>
<path d="M 370.337 749.224 C 377.697 690.306 441.704 650.783 486.319 701.445 C 510.46 728.857 513.839 760.752 511.532 795.438 C 511.078 796.072 511.175 796.187 510.66 796.225 C 510.113 795.386 510.48 794.159 510.643 793.254 C 509.665 781.786 508.358 775.275 504.745 764.113 C 493.377 728.992 460.902 734.609 441.563 759.113 C 432.099 771.105 428.267 783.581 426.537 799.235 C 426.718 800.515 427.475 810.84 427.089 811.457 L 426.8 811.613 L 426.913 811.37 L 426.636 811.607 C 425.237 809.856 425.144 809.222 424.563 806.904 C 414.382 779.145 422.648 740.525 448.907 724.576 C 457.347 719.45 463.6 717.778 473.166 715.965 C 433.471 680.95 392.046 710.614 370.337 749.224 z" fill="rgb(85,45,28)" transform="translate(0,0)"></path>
<path d="M 424.563 806.904 C 426.829 803.042 424.884 802.033 426.537 799.235 C 426.718 800.515 427.475 810.84 427.089 811.457 L 426.8 811.613 L 426.913 811.37 L 426.636 811.607 C 425.237 809.856 425.144 809.222 424.563 806.904 z" fill="rgb(116,70,55)" transform="translate(0,0)"></path>
<path d="M 510.643 793.254 C 511.199 794.079 511.225 794.472 511.532 795.438 C 511.078 796.072 511.175 796.187 510.66 796.225 C 510.113 795.386 510.48 794.159 510.643 793.254 z" fill="rgb(178,114,96)" transform="translate(0,0)"></path>
<path d="M 963.386 671.823 C 965.18 671.838 966.963 672.113 968.679 672.639 C 971.441 673.483 977.183 676.294 978.03 678.915 C 982.669 693.265 957.697 704.726 948.568 708.837 C 902.678 729.502 849.956 728.76 803.282 711.221 C 781.637 702.716 797.171 682.328 805.425 685.637 C 861.311 708.046 912.664 704.46 963.386 671.823 z" fill="rgb(85,45,28)" transform="translate(0,0)"></path>
<path d="M 1117.24 701.981 C 1118.2 701.931 1119.16 701.894 1120.12 701.872 C 1133.26 701.58 1134.24 713.847 1138.41 724.341 C 1144.31 739.233 1153.49 752.605 1165.26 763.462 C 1177.37 774.538 1194.22 783.589 1209.97 788.813 C 1223.41 793.41 1242.06 791.286 1252.95 801.252 C 1259.41 807.163 1252.59 815.14 1247.35 819.004 C 1243.19 819.748 1238.7 819.756 1234.56 819.36 C 1183.75 814.526 1136.28 782.527 1116.11 735.019 C 1110.89 722.716 1105.03 711.488 1117.24 701.981 z" fill="rgb(85,45,28)" transform="translate(0,0)"></path>
<path d="M 1026.78 966.797 C 1015.28 938.801 1007.43 922.613 1018.67 890.866 C 1020 887.127 1024.35 880.006 1027.1 877.057 C 1028.33 880.791 1019.67 895.797 1018.36 901.033 C 1013.82 918.181 1015.99 934.369 1023.21 950.416 C 1031.29 968.378 1043.69 988.282 1032.71 1007.88 C 1011.17 1046.32 952.687 1040.1 929.491 1006.9 C 933.385 1009.02 937.287 1011.06 941.024 1013.44 C 952.879 1018.54 965.735 1020.89 978.627 1020.31 C 992.597 1019.67 1009.29 1015.25 1018.86 1004.37 C 1029.14 992.679 1027.53 981.042 1026.78 966.797 z" fill="rgb(85,45,28)" transform="translate(0,0)"></path>
<path d="M 1026.78 966.797 C 1015.28 938.801 1007.43 922.613 1018.67 890.866 C 1020 887.127 1024.35 880.006 1027.1 877.057 C 1028.33 880.791 1019.67 895.797 1018.36 901.033 C 1013.82 918.181 1015.99 934.369 1023.21 950.416 C 1031.29 968.378 1043.69 988.282 1032.71 1007.88 C 1011.17 1046.32 952.687 1040.1 929.491 1006.9 C 933.385 1009.02 937.287 1011.06 941.024 1013.44 C 945.875 1021.12 958.666 1026.84 967.207 1029.47 C 1005.48 1041.25 1052.09 1008.24 1026.78 966.797 z" fill="rgb(26,23,22)" transform="translate(0,0)"></path>
<path d="M 620.887 1214.75 C 624.471 1203.52 628.423 1189.38 632.299 1178.53 C 641.31 1186.83 661.135 1199.91 671.828 1206.35 C 725.59 1239.11 785.39 1260.73 847.674 1269.92 C 848.522 1278.67 841.89 1288.25 842.156 1295.54 C 841.502 1300.49 838.854 1307.08 837.105 1311.96 L 835.545 1311.92 C 834.656 1314.21 833.926 1316.08 833.233 1318.45 C 819.342 1316.31 802.293 1309.92 788.841 1305.56 C 724.829 1284.81 675.584 1252.68 620.887 1214.75 z" fill="rgb(85,45,28)" transform="translate(0,0)"></path>
<path d="M 553.999 717.352 C 559.341 658.489 607.844 602.44 662.128 582.281 C 705.981 565.996 744.342 562.432 781.917 531.482 C 833.313 489.148 864.263 426.562 858.896 359.201 C 860.767 364.657 862.964 371.046 864.419 376.608 C 875.944 420.889 869.335 467.938 846.056 507.33 C 821.096 549.789 788.471 575.277 740.819 587.567 C 745.719 593.127 765.321 609.357 771.852 613.708 C 831.08 653.165 908.593 653.675 972.606 625.466 C 986.492 619.347 998.196 610.904 1011.43 604.168 C 1011.93 604.126 1012.43 604.084 1012.93 604.042 C 960.139 644.441 886.754 657.581 822.971 639.669 C 788.595 630.016 761.224 612.215 736.851 586.543 C 830.242 564.117 883.362 473.237 863.25 380.476 L 861.016 385.899 C 859.92 436.173 832.602 486.492 797.025 521.012 C 748.496 568.098 712.745 563.749 658.113 586.514 C 602.742 609.371 563.846 660.124 556.17 719.533 C 550.249 721.298 544.054 723.044 538.204 724.961 C 536.058 695.003 526.138 673.737 504.713 652.636 L 506.002 651.798 C 514.061 654.709 530.942 683.929 534.236 693.134 C 536.316 698.948 538.308 716.967 541.522 720.752 C 545.752 720.451 549.961 718.746 553.999 717.352 z" fill="rgb(40,29,22)" transform="translate(0,0)"></path>
<path d="M 861.016 385.899 C 861.029 384.885 860.602 377.574 862.017 377.496 C 862.912 378.311 862.987 379.32 863.25 380.476 L 861.016 385.899 z" fill="rgb(132,89,75)" transform="translate(0,0)"></path>
<path d="M 393.161 642.56 C 426.718 627.781 446.461 626.584 481.06 637.931 C 489.994 642.547 496.77 646.132 504.713 652.636 C 501.769 653.829 500.683 653.093 497.444 652.334 C 455.527 642.091 411.278 648.339 373.836 669.787 C 368.72 672.759 355.486 682.456 351.105 682.796 C 358.036 672.149 363.383 666.432 372.204 657.7 C 380.309 651.201 384.438 648.273 393.161 642.56 z" fill="rgb(217,174,154)" transform="translate(0,0)"></path>
<path d="M 1029.16 591.015 C 1030.28 585.445 1061.15 554.171 1066.95 543.097 C 1085.97 506.775 1101.04 470.197 1098.06 428.192 C 1097.87 425.45 1096.64 414.917 1098.12 413.553 C 1100.49 416.166 1101.65 421.739 1102.86 425.168 C 1135.41 517.409 1078.42 623.787 985.579 651.339 C 1018.13 677.742 1068 690.297 1109.53 686.021 C 1127.64 684.128 1145.35 679.511 1162.08 672.327 C 1166.59 670.376 1185.67 660.519 1188.19 660.927 C 1175.13 673.922 1131.94 685.565 1113.13 687.81 C 1065.48 693.555 1017.52 679.923 980.015 649.973 C 985.259 648.782 992.179 646.408 997.233 644.348 C 1042.29 626.308 1078.15 590.846 1096.69 546 C 1111.23 511.04 1115.5 462.767 1100.82 427.244 C 1100.73 431.964 1100.58 436.682 1100.38 441.399 C 1097.81 498.081 1070.83 552.856 1029.16 591.015 z" fill="rgb(40,29,22)" transform="translate(0,0)"></path>
<path d="M 630.739 1177.61 C 600.562 1152.82 558.98 1115.46 539.733 1080.94 L 540.555 1079.05 C 566.107 1116.49 591.149 1143.85 627.121 1171.9 C 632.22 1175.88 646.543 1187.39 652.031 1190.3 C 715.119 1233.19 772.669 1254.53 847.308 1267.61 L 847.674 1269.92 C 785.39 1260.73 725.59 1239.11 671.828 1206.35 C 661.135 1199.91 641.31 1186.83 632.299 1178.53 C 628.423 1189.38 624.471 1203.52 620.887 1214.75 C 614.901 1235.13 609.491 1254.46 601.636 1274.24 C 600.864 1274.68 600.378 1274.55 599.413 1274.55 C 603.273 1265.18 605.92 1257.77 609.06 1248.12 C 567.088 1238.59 533.206 1231.21 491.846 1218.46 C 497.381 1217.46 534.942 1228.89 544.051 1231.2 C 565.4 1236.63 587.26 1241.17 608.634 1246.33 C 615.382 1224.45 622.896 1198.84 630.739 1177.61 z" fill="rgb(40,29,22)" transform="translate(0,0)"></path>
<path d="M 485.86 897.286 C 379.44 921.924 295.094 808.787 334.071 709.735 C 339.756 695.285 358.24 665.936 370.431 656.874 L 372.204 657.7 C 363.383 666.432 358.036 672.149 351.105 682.796 C 332.087 707.32 323.726 749.802 327.958 780.292 C 332.805 815.214 350.881 849.154 378.677 870.888 C 405.281 892.062 439.323 901.563 473.047 897.227 C 483.445 895.888 490.751 893.266 500.484 889.825 C 506.306 887.767 513.359 882.652 518.266 882.453 C 517.228 887.084 493.789 894.823 488.243 896.614 L 488.103 915.718 C 491.025 972.585 503.066 1014.83 531.599 1064.8 L 529.616 1064.23 C 497.604 1016.06 485.219 954.372 485.86 897.286 z" fill="rgb(40,29,22)" transform="translate(0,0)"></path>
<path d="M 393.161 642.56 L 393.549 640.845 C 398.089 636.322 408.81 633.827 414.837 631.582 C 431.503 625.376 465.903 627.965 481.389 636.415 L 481.06 637.931 C 446.461 626.584 426.718 627.781 393.161 642.56 z" fill="rgb(40,29,22)" transform="translate(0,0)"></path>
<path d="M 1286.23 541.843 C 1287.51 548.522 1287.66 555.399 1286.2 562.056 C 1286.15 555.484 1286.14 548.399 1286.23 541.843 z" fill="rgb(85,45,28)" transform="translate(0,0)"></path>
<path d="M 620.887 1214.75 C 675.584 1252.68 724.829 1284.81 788.841 1305.56 C 802.293 1309.92 819.342 1316.31 833.233 1318.45 C 833.926 1316.08 834.656 1314.21 835.545 1311.92 L 837.105 1311.96 C 833.944 1323.07 829.624 1334.81 826.786 1345.52 C 871.969 1358.92 918.88 1368.63 963.317 1384.01 C 979.852 1389.73 1022.54 1409.52 1033.85 1422.6 C 1037.02 1424.32 1037.09 1424.34 1039.31 1427.15 C 1059.72 1437.24 1092.39 1483.82 1103.19 1504.43 C 1114.93 1527.44 1122.83 1550.99 1128.64 1576.14 C 1152.49 1584.46 1155.71 1602.62 1141.38 1621.79 C 1141.94 1626.39 1142.15 1630.29 1143.93 1634.44 C 1145.75 1638.68 1152.64 1649.88 1152.29 1654.15 C 1151.29 1666.52 1148.09 1668.3 1149.37 1682.01 C 1154.15 1734.61 1156.51 1787.69 1153.97 1840.48 C 1153.16 1857.32 1153.61 1872.21 1150.1 1888.56 C 1131.93 1973.28 1063.34 2034.16 973.586 2000.66 C 948.622 1991.34 927.501 1980.84 903.469 1969.3 C 865.779 1950.98 827.982 1932.88 790.08 1915.01 C 772.263 1906.46 745.249 1892.48 727.604 1885.48 C 723.647 1889.06 719.972 1889.97 714.864 1891.51 L 522.962 1966.81 C 466.93 1988.85 393.209 2030.45 336.016 1994.96 C 262.736 1949.49 252.458 1834.91 246.535 1756.76 C 243.249 1713.38 252.891 1659.09 257.458 1615.57 C 263.402 1558.68 273.434 1503.08 302.487 1453.51 C 362.412 1347.32 473.522 1339.24 579.713 1311.36 C 585.426 1302.46 593.795 1286.47 597.946 1276.87 C 598.444 1276.05 598.883 1275.35 599.413 1274.55 C 600.378 1274.55 600.864 1274.68 601.636 1274.24 C 609.491 1254.46 614.901 1235.13 620.887 1214.75 z" fill="rgb(40,29,22)" transform="translate(0,0)"></path>
<path d="M 249.845 1707.23 C 268.015 1707.26 288.326 1707.48 306.317 1706.97 C 305.991 1719.06 308.312 1725.32 319.015 1732.09 C 333.594 1736.54 368.131 1741.56 384.354 1744.66 C 395.031 1747.34 401.459 1750.47 411.279 1755.55 C 415.784 1758.11 420.666 1760.77 425.069 1763.43 C 435.078 1768.67 446.032 1774.68 456.277 1779.18 L 458.841 1780.56 L 461.676 1782.39 L 469.11 1780.13 L 479.25 1777.35 C 485.029 1776.48 491.66 1775.05 497.474 1773.94 C 505.572 1772.42 512.112 1771.17 520.093 1768.95 C 525.829 1767.55 531.406 1765.24 536.926 1763.12 L 542.854 1760.04 L 541.406 1758.53 C 544.276 1757.25 543.99 1756.94 547.687 1758.33 C 560.78 1763.25 575.172 1771.71 588.015 1776.44 L 589.39 1778.36 C 586.717 1784.68 577.673 1804.8 576.188 1810.39 C 593.895 1818.75 611.517 1827.29 629.054 1836 L 643.103 1842.85 C 653.465 1847.88 663.904 1852.76 674.416 1857.47 L 690.93 1865.52 C 696.617 1868.2 716.769 1877.01 720.547 1879.8 L 728.058 1883.66 L 727.604 1885.48 C 723.647 1889.06 719.972 1889.97 714.864 1891.51 L 714.287 1889.4 C 694.836 1898.09 674.417 1904.83 654.811 1912.83 L 638.401 1919.32 C 627.598 1923.67 616.753 1927.91 605.868 1932.04 C 600.704 1934.27 595.463 1936.61 590.204 1938.57 L 557.878 1950.86 C 551.988 1953.42 546.061 1955.89 540.098 1958.27 L 509.621 1970.1 C 504.563 1971.94 499.516 1973.72 494.546 1975.79 C 486.55 1978.96 475.087 1983.12 467.541 1986.64 L 450.984 1993.15 C 437.836 1997.96 424.406 2003.37 410.587 2005.51 C 403.742 2007.06 400.275 2007.2 393.18 2007.57 C 378.874 2010.05 350.687 2001.15 338.179 1993.91 C 298.423 1970.89 281.487 1932.67 269.393 1891.19 C 267.61 1885.93 266.151 1879.55 264.233 1873.76 C 263.962 1869.8 260.313 1853.8 259.306 1849.04 L 256.373 1828.97 C 255.129 1824.01 254.182 1816.74 253.345 1811.53 C 252.791 1806.26 252.172 1801.01 251.49 1795.76 C 248.989 1789.23 248.008 1744.31 248.128 1735.69 C 249.154 1733.65 248.877 1732.48 248.604 1730.25 L 249.204 1712.75 C 249.938 1711.32 249.785 1711.14 249.73 1709.44 L 249.845 1707.23 z" fill="rgb(226,191,137)" transform="translate(0,0)"></path>
<path d="M 249.845 1707.23 C 268.015 1707.26 288.326 1707.48 306.317 1706.97 C 305.991 1719.06 308.312 1725.32 319.015 1732.09 C 333.594 1736.54 368.131 1741.56 384.354 1744.66 C 395.031 1747.34 401.459 1750.47 411.279 1755.55 C 415.784 1758.11 420.666 1760.77 425.069 1763.43 C 435.078 1768.67 446.032 1774.68 456.277 1779.18 L 458.841 1780.56 L 461.676 1782.39 C 458.992 1783.3 455.351 1784.41 452.816 1785.46 C 445.069 1788.06 438.307 1791.33 430.905 1794.74 C 425.401 1797.59 417.788 1801.24 412.606 1804.31 C 411.487 1804.96 405.13 1808.59 404.561 1809.12 C 396.187 1814.2 388.66 1818.39 382.273 1826 C 381.854 1825.29 381.14 1823.38 380.791 1822.52 C 362.571 1824.85 285.944 1878.42 269.393 1891.19 C 267.61 1885.93 266.151 1879.55 264.233 1873.76 C 263.962 1869.8 260.313 1853.8 259.306 1849.04 L 256.373 1828.97 C 255.129 1824.01 254.182 1816.74 253.345 1811.53 C 252.791 1806.26 252.172 1801.01 251.49 1795.76 C 248.989 1789.23 248.008 1744.31 248.128 1735.69 C 249.154 1733.65 248.877 1732.48 248.604 1730.25 L 249.204 1712.75 C 249.938 1711.32 249.785 1711.14 249.73 1709.44 L 249.845 1707.23 z" fill="rgb(230,154,87)" transform="translate(0,0)"></path>
<path d="M 249.845 1707.23 C 268.015 1707.26 288.326 1707.48 306.317 1706.97 C 305.991 1719.06 308.312 1725.32 319.015 1732.09 C 333.594 1736.54 368.131 1741.56 384.354 1744.66 C 360.71 1752.76 333.18 1757.8 310.115 1767.9 C 303.257 1770.91 254.111 1790.51 251.554 1794.45 L 251.49 1795.76 C 248.989 1789.23 248.008 1744.31 248.128 1735.69 C 249.154 1733.65 248.877 1732.48 248.604 1730.25 L 249.204 1712.75 C 249.938 1711.32 249.785 1711.14 249.73 1709.44 L 249.845 1707.23 z" fill="rgb(226,191,137)" transform="translate(0,0)"></path>
<path d="M 456.277 1779.18 L 458.841 1780.56 L 461.676 1782.39 C 458.992 1783.3 455.351 1784.41 452.816 1785.46 C 445.069 1788.06 438.307 1791.33 430.905 1794.74 C 425.401 1797.59 417.788 1801.24 412.606 1804.31 C 411.487 1804.96 405.13 1808.59 404.561 1809.12 C 396.187 1814.2 388.66 1818.39 382.273 1826 C 381.854 1825.29 381.14 1823.38 380.791 1822.52 C 362.571 1824.85 285.944 1878.42 269.393 1891.19 C 267.61 1885.93 266.151 1879.55 264.233 1873.76 C 263.962 1869.8 260.313 1853.8 259.306 1849.04 C 299.691 1830.53 335.074 1814.86 377.279 1800.77 C 394.164 1792.99 419.975 1786.06 437.927 1781.46 C 445.473 1779.97 448.663 1779.41 456.277 1779.18 z" fill="rgb(231,216,199)" transform="translate(0,0)"></path>
<path d="M 259.306 1849.04 C 299.691 1830.53 335.074 1814.86 377.279 1800.77 C 375.182 1802.38 371.645 1804.82 371.053 1807.33 C 330.21 1824.75 299.147 1847.42 264.233 1873.76 C 263.962 1869.8 260.313 1853.8 259.306 1849.04 z" fill="rgb(226,191,137)" transform="translate(0,0)"></path>
<path d="M 377.279 1800.77 C 394.164 1792.99 419.975 1786.06 437.927 1781.46 C 434.12 1786.53 431.287 1787.34 424.988 1788.64 C 407.337 1792.29 387.844 1803.19 371.053 1807.33 C 371.645 1804.82 375.182 1802.38 377.279 1800.77 z" fill="rgb(233,197,138)" transform="translate(0,0)"></path>
<path d="M 458.841 1780.56 L 461.676 1782.39 C 458.992 1783.3 455.351 1784.41 452.816 1785.46 C 445.069 1788.06 438.307 1791.33 430.905 1794.74 C 425.401 1797.59 417.788 1801.24 412.606 1804.31 C 411.487 1804.96 405.13 1808.59 404.561 1809.12 C 396.187 1814.2 388.66 1818.39 382.273 1826 C 381.854 1825.29 381.14 1823.38 380.791 1822.52 C 396.223 1812.41 408.582 1803.36 425.496 1795.01 C 436.747 1789.45 447.933 1785.72 458.841 1780.56 z" fill="rgb(40,29,22)" transform="translate(0,0)"></path>
<path d="M 384.354 1744.66 C 395.031 1747.34 401.459 1750.47 411.279 1755.55 C 403.617 1760.23 358.887 1770.5 346.428 1774.16 C 313.847 1783.74 284.266 1800.68 253.345 1811.53 C 252.791 1806.26 252.172 1801.01 251.49 1795.76 L 251.554 1794.45 C 254.111 1790.51 303.257 1770.91 310.115 1767.9 C 333.18 1757.8 360.71 1752.76 384.354 1744.66 z" fill="rgb(231,216,199)" transform="translate(0,0)"></path>
<path d="M 411.279 1755.55 C 415.784 1758.11 420.666 1760.77 425.069 1763.43 C 418.868 1766.87 400.819 1772.44 393.433 1774.95 C 375.214 1781.1 357.099 1787.56 339.095 1794.32 C 320.249 1801.55 301.385 1810.01 282.703 1817.7 C 274.321 1821.15 264.695 1826.07 256.373 1828.97 C 255.129 1824.01 254.182 1816.74 253.345 1811.53 C 284.266 1800.68 313.847 1783.74 346.428 1774.16 C 358.887 1770.5 403.617 1760.23 411.279 1755.55 z" fill="rgb(226,191,137)" transform="translate(0,0)"></path>
<path d="M 380.791 1822.52 C 381.14 1823.38 381.854 1825.29 382.273 1826 C 382.372 1833.9 376.186 1854 375.272 1864.13 C 370.868 1912.93 375.531 1961.67 393.18 2007.57 C 378.874 2010.05 350.687 2001.15 338.179 1993.91 C 298.423 1970.89 281.487 1932.67 269.393 1891.19 C 285.944 1878.42 362.571 1824.85 380.791 1822.52 z" fill="rgb(226,191,137)" transform="translate(0,0)"></path>
<path d="M 541.406 1758.53 C 544.276 1757.25 543.99 1756.94 547.687 1758.33 C 560.78 1763.25 575.172 1771.71 588.015 1776.44 L 589.39 1778.36 C 586.717 1784.68 577.673 1804.8 576.188 1810.39 C 593.895 1818.75 611.517 1827.29 629.054 1836 L 643.103 1842.85 C 653.465 1847.88 663.904 1852.76 674.416 1857.47 L 690.93 1865.52 C 696.617 1868.2 716.769 1877.01 720.547 1879.8 L 728.058 1883.66 L 727.604 1885.48 C 723.647 1889.06 719.972 1889.97 714.864 1891.51 L 714.287 1889.4 C 694.836 1898.09 674.417 1904.83 654.811 1912.83 L 638.401 1919.32 C 627.598 1923.67 616.753 1927.91 605.868 1932.04 C 587.184 1895.27 569.665 1852.11 554.813 1813.64 C 549.17 1799.03 540.985 1777.82 536.926 1763.12 L 542.854 1760.04 L 541.406 1758.53 z" fill="rgb(226,191,137)" transform="translate(0,0)"></path>
<path d="M 618.252 1837.22 C 620.377 1838.27 630.403 1843.26 631.769 1844.28 C 639.611 1850.11 712.773 1885.21 714.348 1889.05 L 714.287 1889.4 C 694.836 1898.09 674.417 1904.83 654.811 1912.83 C 649.978 1908.23 618.245 1843.39 618.252 1837.22 z" fill="rgb(226,191,137)" transform="translate(0,0)"></path>
<path d="M 541.406 1758.53 C 544.276 1757.25 543.99 1756.94 547.687 1758.33 C 560.78 1763.25 575.172 1771.71 588.015 1776.44 L 589.39 1778.36 C 586.717 1784.68 577.673 1804.8 576.188 1810.39 C 593.895 1818.75 611.517 1827.29 629.054 1836 L 643.103 1842.85 C 653.465 1847.88 663.904 1852.76 674.416 1857.47 L 690.93 1865.52 C 696.617 1868.2 716.769 1877.01 720.547 1879.8 L 728.058 1883.66 L 727.604 1885.48 C 723.647 1889.06 719.972 1889.97 714.864 1891.51 L 714.287 1889.4 L 714.348 1889.05 C 712.773 1885.21 639.611 1850.11 631.769 1844.28 C 630.403 1843.26 620.377 1838.27 618.252 1837.22 C 615.521 1834.74 592.62 1822.92 588.719 1820.91 C 583.87 1817.7 574.432 1813.6 568.884 1810.99 C 565.999 1803.73 547.239 1763.13 542.854 1760.04 L 541.406 1758.53 z" fill="rgb(26,23,22)" transform="translate(0,0)"></path>
<path d="M 588.719 1820.91 C 592.62 1822.92 615.521 1834.74 618.252 1837.22 C 618.245 1843.39 649.978 1908.23 654.811 1912.83 L 638.401 1919.32 C 620.246 1887.35 603.666 1854.5 588.719 1820.91 z" fill="rgb(230,154,87)" transform="translate(0,0)"></path>
<path d="M 404.561 1809.12 C 405.13 1808.59 411.487 1804.96 412.606 1804.31 C 419.624 1872.27 424.452 1928.64 450.984 1993.15 C 437.836 1997.96 424.406 2003.37 410.587 2005.51 C 403.742 2007.06 400.275 2007.2 393.18 2007.57 C 375.531 1961.67 370.868 1912.93 375.272 1864.13 C 376.186 1854 382.372 1833.9 382.273 1826 C 388.66 1818.39 396.187 1814.2 404.561 1809.12 z" fill="rgb(226,191,137)" transform="translate(0,0)"></path>
<path d="M 382.273 1826 C 388.66 1818.39 396.187 1814.2 404.561 1809.12 C 403.855 1821.31 396.954 1837.99 394.846 1850.9 C 386.134 1902.92 391.571 1956.31 410.587 2005.51 C 403.742 2007.06 400.275 2007.2 393.18 2007.57 C 375.531 1961.67 370.868 1912.93 375.272 1864.13 C 376.186 1854 382.372 1833.9 382.273 1826 z" fill="rgb(231,216,199)" transform="translate(0,0)"></path>
<path d="M 520.093 1768.95 C 525.829 1767.55 531.406 1765.24 536.926 1763.12 C 540.985 1777.82 549.17 1799.03 554.813 1813.64 C 569.665 1852.11 587.184 1895.27 605.868 1932.04 C 600.704 1934.27 595.463 1936.61 590.204 1938.57 L 557.878 1950.86 C 555.719 1948.35 550.868 1937.1 549.298 1933.72 C 535.95 1904.95 526.114 1874.85 516.996 1844.5 C 510.34 1822.35 502.188 1796.53 497.474 1773.94 C 505.572 1772.42 512.112 1771.17 520.093 1768.95 z" fill="rgb(226,191,137)" transform="translate(0,0)"></path>
<path d="M 520.093 1768.95 C 525.829 1767.55 531.406 1765.24 536.926 1763.12 C 540.985 1777.82 549.17 1799.03 554.813 1813.64 C 569.665 1852.11 587.184 1895.27 605.868 1932.04 C 600.704 1934.27 595.463 1936.61 590.204 1938.57 C 583.901 1929.85 575.215 1908.6 570.541 1897.84 C 552.233 1855.48 535.407 1812.49 520.093 1768.95 z" fill="rgb(231,216,199)" transform="translate(0,0)"></path>
<path d="M 479.25 1777.35 C 485.029 1776.48 491.66 1775.05 497.474 1773.94 C 502.188 1796.53 510.34 1822.35 516.996 1844.5 C 526.114 1874.85 535.95 1904.95 549.298 1933.72 C 550.868 1937.1 555.719 1948.35 557.878 1950.86 C 551.988 1953.42 546.061 1955.89 540.098 1958.27 L 509.621 1970.1 C 508.082 1959.23 501.054 1942.31 498.27 1930.89 C 488.547 1891.02 478.031 1851.71 473.671 1810.78 C 472.796 1802.57 471.294 1787.25 469.11 1780.13 L 479.25 1777.35 z" fill="rgb(226,191,137)" transform="translate(0,0)"></path>
<path d="M 479.25 1777.35 C 485.029 1776.48 491.66 1775.05 497.474 1773.94 C 502.188 1796.53 510.34 1822.35 516.996 1844.5 C 526.114 1874.85 535.95 1904.95 549.298 1933.72 C 550.868 1937.1 555.719 1948.35 557.878 1950.86 C 551.988 1953.42 546.061 1955.89 540.098 1958.27 C 536.872 1949.12 529.91 1934.69 525.84 1924.94 C 518.101 1906.26 511.034 1887.3 504.651 1868.11 C 494.734 1838.18 488.929 1805.67 479.25 1777.35 z" fill="rgb(230,154,87)" transform="translate(0,0)"></path>
<path d="M 412.606 1804.31 C 417.788 1801.24 425.401 1797.59 430.905 1794.74 C 435.739 1869.49 442.895 1915.48 467.541 1986.64 L 450.984 1993.15 C 424.452 1928.64 419.624 1872.27 412.606 1804.31 z" fill="rgb(230,154,87)" transform="translate(0,0)"></path>
<path d="M 461.676 1782.39 L 469.11 1780.13 C 471.294 1787.25 472.796 1802.57 473.671 1810.78 C 478.031 1851.71 488.547 1891.02 498.27 1930.89 C 501.054 1942.31 508.082 1959.23 509.621 1970.1 C 504.563 1971.94 499.516 1973.72 494.546 1975.79 C 473.468 1914.13 459.468 1850.28 452.816 1785.46 C 455.351 1784.41 458.992 1783.3 461.676 1782.39 z" fill="rgb(231,216,199)" transform="translate(0,0)"></path>
<path d="M 620.887 1214.75 C 675.584 1252.68 724.829 1284.81 788.841 1305.56 C 802.293 1309.92 819.342 1316.31 833.233 1318.45 C 833.926 1316.08 834.656 1314.21 835.545 1311.92 L 837.105 1311.96 C 833.944 1323.07 829.624 1334.81 826.786 1345.52 C 871.969 1358.92 918.88 1368.63 963.317 1384.01 C 979.852 1389.73 1022.54 1409.52 1033.85 1422.6 L 1031.8 1423.2 L 1031.24 1423.07 C 1026.01 1424.54 989.473 1424.02 982.168 1424.04 L 867.048 1424.17 C 858.629 1429.95 851.584 1434.55 842.805 1439.75 C 763.532 1478.4 691.552 1477.79 612.133 1439.66 C 602.886 1434.98 594.078 1429.47 585.198 1424.12 L 384.347 1424.59 C 365.065 1424.45 343.802 1425.31 324.807 1424.48 C 320.842 1429.67 316.533 1435.1 312.831 1440.44 C 302.491 1455.93 293.827 1472.47 286.986 1489.79 L 279.699 1509.13 L 272.909 1532.02 C 271.947 1535.03 269.884 1544.78 269.303 1548.2 C 266.523 1562.56 264.702 1575.7 262.751 1590.15 C 262.138 1596.04 261.392 1603.27 260.439 1609.08 C 259.243 1615.24 258.429 1621.89 257.512 1628.14 C 256.528 1633.27 256.07 1639.62 255.373 1644.82 C 254.919 1647.07 254.816 1649.81 254.49 1652.27 C 254.301 1653.29 253.102 1666.86 253.066 1668.3 L 250.926 1690.39 L 250.656 1695.25 C 250.825 1696.75 250.929 1696.69 250.191 1697.91 C 250.111 1701.02 249.996 1704.12 249.845 1707.23 L 249.73 1709.44 C 249.785 1711.14 249.938 1711.32 249.204 1712.75 L 248.604 1730.25 C 248.877 1732.48 249.154 1733.65 248.128 1735.69 C 248.008 1744.31 248.989 1789.23 251.49 1795.76 C 252.172 1801.01 252.791 1806.26 253.345 1811.53 C 254.182 1816.74 255.129 1824.01 256.373 1828.97 L 259.306 1849.04 C 260.313 1853.8 263.962 1869.8 264.233 1873.76 C 266.151 1879.55 267.61 1885.93 269.393 1891.19 C 281.487 1932.67 298.423 1970.89 338.179 1993.91 C 350.687 2001.15 378.874 2010.05 393.18 2007.57 C 400.275 2007.2 403.742 2007.06 410.587 2005.51 C 424.406 2003.37 437.836 1997.96 450.984 1993.15 L 467.541 1986.64 C 475.087 1983.12 486.55 1978.96 494.546 1975.79 C 499.516 1973.72 504.563 1971.94 509.621 1970.1 L 540.098 1958.27 C 546.061 1955.89 551.988 1953.42 557.878 1950.86 L 590.204 1938.57 C 595.463 1936.61 600.704 1934.27 605.868 1932.04 C 616.753 1927.91 627.598 1923.67 638.401 1919.32 L 654.811 1912.83 C 674.417 1904.83 694.836 1898.09 714.287 1889.4 L 714.864 1891.51 L 522.962 1966.81 C 466.93 1988.85 393.209 2030.45 336.016 1994.96 C 262.736 1949.49 252.458 1834.91 246.535 1756.76 C 243.249 1713.38 252.891 1659.09 257.458 1615.57 C 263.402 1558.68 273.434 1503.08 302.487 1453.51 C 362.412 1347.32 473.522 1339.24 579.713 1311.36 C 585.426 1302.46 593.795 1286.47 597.946 1276.87 C 598.444 1276.05 598.883 1275.35 599.413 1274.55 C 600.378 1274.55 600.864 1274.68 601.636 1274.24 C 609.491 1254.46 614.901 1235.13 620.887 1214.75 z" fill="rgb(187,123,105)" transform="translate(0,0)"></path>
<path d="M 324.807 1424.48 C 380.024 1360.97 425.023 1353.06 502.606 1331.48 C 521.58 1369.66 550.047 1400.08 585.198 1424.12 L 384.347 1424.59 C 365.065 1424.45 343.802 1425.31 324.807 1424.48 z" fill="rgb(226,191,137)" transform="translate(0,0)"></path>
<path d="M 917.183 1372.3 C 953.739 1380.16 992.063 1395.45 1022.96 1416.62 C 1023.63 1416.97 1023.65 1416.99 1024.22 1417.5 C 1026.12 1418.94 1029.73 1421.48 1031.24 1423.07 C 1026.01 1424.54 989.473 1424.02 982.168 1424.04 L 867.048 1424.17 C 886.007 1411.06 904.247 1391.34 917.183 1372.3 z" fill="rgb(226,191,137)" transform="translate(0,0)"></path>
<path d="M 597.946 1276.87 L 599.737 1278.21 C 593.72 1290.21 587.927 1301.85 581.345 1313.58 C 556.058 1319.33 530.045 1325.58 504.692 1330.74 C 528.537 1384.12 586.089 1428.96 639.893 1449.58 C 662.785 1458.43 686.9 1463.73 711.397 1465.27 C 712.858 1465.2 712.706 1465.13 713.97 1465.72 C 723.216 1465.86 732.045 1466.02 741.296 1465.71 C 742.782 1465.03 742.824 1465.16 744.597 1465.26 C 810.777 1461.54 878.076 1427.55 915.003 1371.62 C 909.832 1370 904.222 1368.57 898.957 1367.26 C 873.809 1361.02 848.822 1353.4 823.66 1347.34 C 826.642 1337.64 829.834 1328.01 833.233 1318.45 C 833.926 1316.08 834.656 1314.21 835.545 1311.92 L 837.105 1311.96 C 833.944 1323.07 829.624 1334.81 826.786 1345.52 C 871.969 1358.92 918.88 1368.63 963.317 1384.01 C 979.852 1389.73 1022.54 1409.52 1033.85 1422.6 L 1031.8 1423.2 L 1031.24 1423.07 C 1029.73 1421.48 1026.12 1418.94 1024.22 1417.5 C 1023.65 1416.99 1023.63 1416.97 1022.96 1416.62 C 992.063 1395.45 953.739 1380.16 917.183 1372.3 C 904.247 1391.34 886.007 1411.06 867.048 1424.17 C 858.629 1429.95 851.584 1434.55 842.805 1439.75 C 763.532 1478.4 691.552 1477.79 612.133 1439.66 C 602.886 1434.98 594.078 1429.47 585.198 1424.12 C 550.047 1400.08 521.58 1369.66 502.606 1331.48 C 425.023 1353.06 380.024 1360.97 324.807 1424.48 C 320.842 1429.67 316.533 1435.1 312.831 1440.44 C 302.491 1455.93 293.827 1472.47 286.986 1489.79 L 279.699 1509.13 L 272.909 1532.02 C 271.947 1535.03 269.884 1544.78 269.303 1548.2 C 266.523 1562.56 264.702 1575.7 262.751 1590.15 C 262.138 1596.04 261.392 1603.27 260.439 1609.08 C 259.243 1615.24 258.429 1621.89 257.512 1628.14 C 256.528 1633.27 256.07 1639.62 255.373 1644.82 C 254.919 1647.07 254.816 1649.81 254.49 1652.27 C 254.301 1653.29 253.102 1666.86 253.066 1668.3 L 250.926 1690.39 L 250.656 1695.25 C 250.825 1696.75 250.929 1696.69 250.191 1697.91 C 250.111 1701.02 249.996 1704.12 249.845 1707.23 L 249.73 1709.44 C 249.785 1711.14 249.938 1711.32 249.204 1712.75 L 248.604 1730.25 C 248.877 1732.48 249.154 1733.65 248.128 1735.69 C 248.008 1744.31 248.989 1789.23 251.49 1795.76 C 252.172 1801.01 252.791 1806.26 253.345 1811.53 C 254.182 1816.74 255.129 1824.01 256.373 1828.97 L 259.306 1849.04 C 260.313 1853.8 263.962 1869.8 264.233 1873.76 C 266.151 1879.55 267.61 1885.93 269.393 1891.19 C 281.487 1932.67 298.423 1970.89 338.179 1993.91 C 350.687 2001.15 378.874 2010.05 393.18 2007.57 C 400.275 2007.2 403.742 2007.06 410.587 2005.51 C 424.406 2003.37 437.836 1997.96 450.984 1993.15 L 467.541 1986.64 C 475.087 1983.12 486.55 1978.96 494.546 1975.79 C 499.516 1973.72 504.563 1971.94 509.621 1970.1 L 540.098 1958.27 C 546.061 1955.89 551.988 1953.42 557.878 1950.86 L 590.204 1938.57 C 595.463 1936.61 600.704 1934.27 605.868 1932.04 C 616.753 1927.91 627.598 1923.67 638.401 1919.32 L 654.811 1912.83 C 674.417 1904.83 694.836 1898.09 714.287 1889.4 L 714.864 1891.51 L 522.962 1966.81 C 466.93 1988.85 393.209 2030.45 336.016 1994.96 C 262.736 1949.49 252.458 1834.91 246.535 1756.76 C 243.249 1713.38 252.891 1659.09 257.458 1615.57 C 263.402 1558.68 273.434 1503.08 302.487 1453.51 C 362.412 1347.32 473.522 1339.24 579.713 1311.36 C 585.426 1302.46 593.795 1286.47 597.946 1276.87 z" fill="rgb(40,29,22)" transform="translate(0,0)"></path>
<path d="M 248.128 1735.69 C 247.699 1733.36 247.172 1732.23 248.604 1730.25 C 248.877 1732.48 249.154 1733.65 248.128 1735.69 z" fill="rgb(160,136,108)" transform="translate(0,0)"></path>
<path d="M 250.191 1697.91 C 250.032 1696.35 249.875 1696.36 250.656 1695.25 C 250.825 1696.75 250.929 1696.69 250.191 1697.91 z" fill="rgb(134,116,99)" transform="translate(0,0)"></path>
<path d="M 249.204 1712.75 C 249.046 1710.91 248.99 1711.04 249.73 1709.44 C 249.785 1711.14 249.938 1711.32 249.204 1712.75 z" fill="rgb(160,136,108)" transform="translate(0,0)"></path>
<path d="M 741.296 1465.71 C 742.782 1465.03 742.824 1465.16 744.597 1465.26 C 743.184 1466.26 743.157 1465.98 741.296 1465.71 z" fill="rgb(116,70,55)" transform="translate(0,0)"></path>
<path d="M 711.397 1465.27 C 712.858 1465.2 712.706 1465.13 713.97 1465.72 C 712.467 1465.81 712.435 1466 711.397 1465.27 z" fill="rgb(116,70,55)" transform="translate(0,0)"></path>
<path d="M 601.636 1274.24 C 601.299 1276.05 601.039 1276.81 599.737 1278.21 L 597.946 1276.87 C 598.444 1276.05 598.883 1275.35 599.413 1274.55 C 600.378 1274.55 600.864 1274.68 601.636 1274.24 z" fill="rgb(132,89,75)" transform="translate(0,0)"></path>
<path d="M 1033.85 1422.6 C 1037.02 1424.32 1037.09 1424.34 1039.31 1427.15 C 1059.72 1437.24 1092.39 1483.82 1103.19 1504.43 L 1101.82 1506.12 L 1103.27 1508.82 C 1068.96 1508.73 1034.56 1510.32 1000.23 1509.82 C 996.416 1509.77 991.079 1509.58 987.384 1510.01 C 977.589 1499.85 960.28 1493.01 952.762 1509.82 C 948.665 1518.14 944.418 1525.55 938.777 1532.98 C 933.533 1539.84 930.588 1543.69 924.399 1549.85 C 788.728 1552.11 650.09 1548.39 514.152 1549.91 C 508.589 1545.32 503.566 1538.4 499.071 1532.65 C 493.507 1525.04 489.474 1518.2 485.1 1509.91 C 476.084 1491.34 460.739 1498.58 449.668 1510.1 C 443.432 1507.71 299.491 1509.12 279.699 1509.13 L 286.986 1489.79 C 293.827 1472.47 302.491 1455.93 312.831 1440.44 C 316.533 1435.1 320.842 1429.67 324.807 1424.48 C 343.802 1425.31 365.065 1424.45 384.347 1424.59 L 585.198 1424.12 C 594.078 1429.47 602.886 1434.98 612.133 1439.66 C 691.552 1477.79 763.532 1478.4 842.805 1439.75 C 851.584 1434.55 858.629 1429.95 867.048 1424.17 L 982.168 1424.04 C 989.473 1424.02 1026.01 1424.54 1031.24 1423.07 L 1031.8 1423.2 L 1033.85 1422.6 z" fill="rgb(226,191,137)" transform="translate(0,0)"></path>
<path d="M 485.1 1509.91 C 490.299 1507.98 947.768 1507.92 952.762 1509.82 C 948.665 1518.14 944.418 1525.55 938.777 1532.98 C 933.533 1539.84 930.588 1543.69 924.399 1549.85 C 788.728 1552.11 650.09 1548.39 514.152 1549.91 C 508.589 1545.32 503.566 1538.4 499.071 1532.65 C 493.507 1525.04 489.474 1518.2 485.1 1509.91 z" fill="rgb(226,191,137)" transform="translate(0,0)"></path>
<path d="M 499.071 1532.65 C 507.72 1531.3 534.628 1531.95 544.828 1531.97 L 634.484 1532.08 L 931.418 1531.84 C 934.134 1531.86 936.314 1531.86 938.777 1532.98 C 933.533 1539.84 930.588 1543.69 924.399 1549.85 C 788.728 1552.11 650.09 1548.39 514.152 1549.91 C 508.589 1545.32 503.566 1538.4 499.071 1532.65 z" fill="rgb(231,216,199)" transform="translate(0,0)"></path>
<path d="M 1092.04 1488.86 C 1093.86 1491.94 1100.36 1504.35 1101.82 1506.12 L 1103.27 1508.82 C 1068.96 1508.73 1034.56 1510.32 1000.23 1509.82 C 996.416 1509.77 991.079 1509.58 987.384 1510.01 C 977.589 1499.85 960.28 1493.01 952.762 1509.82 C 947.768 1507.92 490.299 1507.98 485.1 1509.91 C 476.084 1491.34 460.739 1498.58 449.668 1510.1 C 443.432 1507.71 299.491 1509.12 279.699 1509.13 L 286.986 1489.79 C 297.271 1490.98 331.828 1490.25 344.455 1490.33 C 391.499 1490.61 438.544 1490.57 485.587 1490.21 L 926.732 1490.69 C 943.998 1490.8 1086.26 1491.57 1092.04 1488.86 z" fill="rgb(230,154,87)" transform="translate(0,0)"></path>
<path d="M 585.198 1424.12 C 594.078 1429.47 602.886 1434.98 612.133 1439.66 C 606.683 1443.23 552.466 1442.13 541.63 1442.16 L 412.874 1442.03 L 351.982 1442.17 C 343.5 1442.19 323.296 1442.56 315.898 1441.14 C 314.867 1440.95 313.843 1440.71 312.831 1440.44 C 316.533 1435.1 320.842 1429.67 324.807 1424.48 C 343.802 1425.31 365.065 1424.45 384.347 1424.59 L 585.198 1424.12 z" fill="rgb(231,216,199)" transform="translate(0,0)"></path>
<path d="M 1033.85 1422.6 C 1037.02 1424.32 1037.09 1424.34 1039.31 1427.15 C 1039.8 1428.19 1040.21 1429.11 1040.67 1430.16 L 1043.12 1431.7 C 1045.99 1433.89 1046.89 1434.68 1049.21 1437.43 L 1050.17 1438.34 C 1042.71 1445.32 879.34 1441.23 856.204 1442.02 C 852.835 1442.14 845.572 1441.94 842.805 1439.75 C 851.584 1434.55 858.629 1429.95 867.048 1424.17 L 982.168 1424.04 C 989.473 1424.02 1026.01 1424.54 1031.24 1423.07 L 1031.8 1423.2 L 1033.85 1422.6 z" fill="rgb(231,216,199)" transform="translate(0,0)"></path>
<path d="M 1033.85 1422.6 C 1037.02 1424.32 1037.09 1424.34 1039.31 1427.15 L 1037.47 1427.43 L 1035.86 1426.29 C 1035.21 1425.05 1034.54 1423.82 1033.85 1422.6 z" fill="rgb(40,29,22)" transform="translate(0,0)"></path>
<path d="M 1043.12 1431.7 C 1045.99 1433.89 1046.89 1434.68 1049.21 1437.43 C 1045.93 1435.22 1045.71 1434.82 1043.12 1431.7 z" fill="rgb(160,136,108)" transform="translate(0,0)"></path>
<path d="M 1033.85 1422.6 C 1034.54 1423.82 1035.21 1425.05 1035.86 1426.29 C 1034.48 1425.29 1033.12 1424.26 1031.8 1423.2 L 1033.85 1422.6 z" fill="rgb(134,116,99)" transform="translate(0,0)"></path>
<path d="M 1039.31 1427.15 C 1059.72 1437.24 1092.39 1483.82 1103.19 1504.43 L 1101.82 1506.12 C 1100.36 1504.35 1093.86 1491.94 1092.04 1488.86 C 1086.5 1479.67 1080.33 1471.44 1073.64 1463.09 C 1073.2 1462.42 1073.32 1462.5 1072.71 1462 L 1067.42 1455.94 C 1066.74 1454.74 1066.85 1454.79 1065.7 1454.03 C 1061.74 1449.24 1054.83 1442.23 1050.17 1438.34 L 1049.21 1437.43 C 1046.89 1434.68 1045.99 1433.89 1043.12 1431.7 L 1040.67 1430.16 C 1040.21 1429.11 1039.8 1428.19 1039.31 1427.15 z" fill="rgb(40,29,22)" transform="translate(0,0)"></path>
<path d="M 457.039 1557.15 C 444.812 1541.32 439.613 1519.66 458.337 1505.18 C 481.235 1489.12 488.051 1525.01 500.002 1537.81 C 529.737 1569.67 558.704 1588.73 582.611 1625.93 C 582.828 1626.7 582.824 1626.63 583.403 1627.24 L 590.609 1641.94 C 605.986 1649.61 621.733 1655.55 637.226 1662.76 C 626.097 1689.88 614.574 1716.84 602.661 1743.63 C 598.716 1752.65 591.214 1768.02 588.015 1776.44 C 575.172 1771.71 560.78 1763.25 547.687 1758.33 C 543.99 1756.94 544.276 1757.25 541.406 1758.53 L 542.854 1760.04 L 536.926 1763.12 C 531.406 1765.24 525.829 1767.55 520.093 1768.95 C 512.112 1771.17 505.572 1772.42 497.474 1773.94 C 491.66 1775.05 485.029 1776.48 479.25 1777.35 L 469.11 1780.13 L 461.676 1782.39 L 458.841 1780.56 L 456.277 1779.18 C 446.032 1774.68 435.078 1768.67 425.069 1763.43 C 420.666 1760.77 415.784 1758.11 411.279 1755.55 C 401.459 1750.47 395.031 1747.34 384.354 1744.66 C 368.131 1741.56 333.594 1736.54 319.015 1732.09 L 319.909 1730.3 C 313.264 1725.64 308.783 1720.59 308.232 1711.95 C 307.836 1705.89 309.999 1699.94 314.195 1695.55 C 327.173 1682.1 359.444 1693.93 377.187 1692.96 C 382.59 1692.67 390.084 1695.07 395.897 1694.8 L 396.706 1693.27 C 393.832 1690.59 306.749 1681.85 297.285 1673.06 C 287.827 1664.29 283.544 1652.88 292.2 1641.22 C 295.121 1637.29 299.405 1634.59 304.212 1633.66 C 319.985 1630.59 366.793 1641.35 384.593 1643.99 C 389.442 1644.71 398.256 1647.21 402.699 1646.49 C 399.843 1640.38 309.475 1628.91 294.642 1614.93 C 290.647 1611.17 288.036 1606.54 287.951 1600.95 C 287.86 1594.95 291.107 1586.75 295.422 1582.46 C 298.141 1579.75 301.555 1578.19 305.345 1577.74 C 320.826 1575.9 379.621 1590.42 397.241 1594.63 C 406.197 1596.77 416.567 1600.58 425.747 1600.75 L 425.841 1600.04 C 414.408 1591.62 360.831 1582.96 344.456 1573.82 C 317.505 1558.78 333.446 1528.78 351.124 1531.29 C 385.58 1536.16 426.862 1551.58 460.943 1561.02 C 476.146 1565.23 489.578 1573.53 505.029 1575.05 L 504.696 1574.22 C 495.242 1569.44 468.294 1560.97 457.039 1557.15 z" fill="rgb(187,123,105)" transform="translate(0,0)"></path>
<path d="M 319.909 1730.3 C 341.961 1735.29 365.501 1738.1 387.28 1743.25 C 394.411 1744.94 413.698 1753.31 421.233 1756.25 C 460.662 1771.6 501.735 1777.87 541.406 1758.53 L 542.854 1760.04 L 536.926 1763.12 C 531.406 1765.24 525.829 1767.55 520.093 1768.95 C 512.112 1771.17 505.572 1772.42 497.474 1773.94 C 491.66 1775.05 485.029 1776.48 479.25 1777.35 L 469.11 1780.13 L 461.676 1782.39 L 458.841 1780.56 L 456.277 1779.18 C 446.032 1774.68 435.078 1768.67 425.069 1763.43 C 420.666 1760.77 415.784 1758.11 411.279 1755.55 C 401.459 1750.47 395.031 1747.34 384.354 1744.66 C 368.131 1741.56 333.594 1736.54 319.015 1732.09 L 319.909 1730.3 z" fill="rgb(26,23,22)" transform="translate(0,0)"></path>
<path d="M 843.088 1644.81 C 848.025 1642.31 863.269 1613.3 869.067 1606 C 897.968 1569.42 933.733 1555.25 954.535 1511.55 C 966.45 1486.52 1011.26 1518.62 983.017 1556.05 C 975.828 1559.33 933.725 1572.35 932.171 1575.92 C 939.965 1577.87 1074.21 1524.01 1093.89 1534.21 C 1096.97 1535.8 1099.41 1538.32 1101.67 1540.89 C 1102.27 1541.38 1102.19 1541.41 1102.62 1542.13 C 1110.49 1561.4 1103.5 1570.07 1086.58 1577.45 C 1074.93 1582.52 1015.46 1596.11 1011.58 1601.23 L 1011.94 1600.83 C 1015.94 1601.52 1033.82 1596.52 1038.7 1595.43 C 1063.62 1589.84 1088.71 1584.82 1113.88 1580.45 C 1122.71 1578.92 1130.11 1577.79 1138.1 1582.44 C 1138.85 1582.87 1138.68 1582.75 1139.35 1583.34 C 1144.52 1588.34 1147.26 1593.7 1147.46 1600.97 C 1147.62 1607.12 1145.68 1613.17 1141.3 1617.59 C 1132.79 1626.18 1070.39 1637.81 1054.86 1641.04 C 1049.19 1642.22 1036.27 1643.21 1032.15 1646.57 C 1036.03 1649.93 1118.4 1629.23 1140.04 1635.66 C 1187.34 1691.83 1064.07 1684.17 1040.61 1694.37 L 1040.68 1695.65 C 1060.96 1698.9 1107.95 1680.8 1123.99 1699.48 C 1130.61 1707.2 1129.14 1723.96 1119.84 1729.71 C 1111.7 1734.75 1103.2 1734.49 1094.18 1737.02 L 1094.82 1738.74 C 1073.86 1742.54 1052.11 1745.07 1032.94 1754.1 C 1023.54 1758.16 1015.98 1761.91 1006.87 1766.62 C 1008.47 1767.62 1009.78 1768.33 1011.44 1769.2 C 1008.96 1770.88 1007.6 1771.44 1004.98 1772.81 L 1000.71 1770.63 L 999.664 1771.64 L 998.292 1771.86 C 996.457 1772.08 996.076 1772.67 994.972 1774.13 L 992.636 1776.46 L 984.253 1773.33 L 954.795 1762.53 C 949.812 1760.97 942.814 1758.03 937.787 1756.1 C 928.047 1752.49 918.33 1748.82 908.635 1745.09 L 891.769 1739.28 C 873.875 1733.31 856.11 1725.83 838.234 1720.22 L 842.419 1719.5 C 833.388 1704.29 820.734 1675.26 812.783 1658.25 C 821.751 1653.97 832.379 1649.71 841.714 1645.44 C 842.438 1645.24 842.581 1645.31 843.088 1644.81 z" fill="rgb(187,123,105)" transform="translate(0,0)"></path>
<path d="M 842.419 1719.5 C 860.154 1724.75 878.748 1732.78 896.544 1738.29 C 926.919 1747.69 957.816 1757.12 988.383 1765.84 C 1025.99 1755.04 1053.99 1741.07 1094.18 1737.02 L 1094.82 1738.74 C 1073.86 1742.54 1052.11 1745.07 1032.94 1754.1 C 1023.54 1758.16 1015.98 1761.91 1006.87 1766.62 C 1008.47 1767.62 1009.78 1768.33 1011.44 1769.2 C 1008.96 1770.88 1007.6 1771.44 1004.98 1772.81 L 1000.71 1770.63 L 999.664 1771.64 L 998.292 1771.86 C 996.457 1772.08 996.076 1772.67 994.972 1774.13 L 992.636 1776.46 L 984.253 1773.33 L 954.795 1762.53 C 949.812 1760.97 942.814 1758.03 937.787 1756.1 C 928.047 1752.49 918.33 1748.82 908.635 1745.09 L 891.769 1739.28 C 873.875 1733.31 856.11 1725.83 838.234 1720.22 L 842.419 1719.5 z" fill="rgb(26,23,22)" transform="translate(0,0)"></path>
<path d="M 1000.71 1770.63 C 1002.88 1768.54 1004.03 1767.81 1006.87 1766.62 C 1008.47 1767.62 1009.78 1768.33 1011.44 1769.2 C 1008.96 1770.88 1007.6 1771.44 1004.98 1772.81 L 1000.71 1770.63 z" fill="rgb(233,197,138)" transform="translate(0,0)"></path>
<path d="M 710.023 1672.64 C 715.786 1674.84 721.571 1676.99 727.376 1679.08 C 739.219 1683.88 749.113 1687.72 761.232 1691.66 C 766.404 1693.61 771.603 1695.48 776.827 1697.28 C 784.484 1700.12 797.36 1705.31 804.832 1707.32 L 823.136 1714.34 L 838.234 1720.22 C 856.11 1725.83 873.875 1733.31 891.769 1739.28 C 887.948 1752.45 879.52 1771.15 874.426 1784.17 C 855.388 1832.83 833.9 1876.77 805.63 1920.78 C 792.452 1912.68 752.281 1894.8 736.672 1887.74 L 728.058 1883.66 L 720.547 1879.8 C 716.769 1877.01 696.617 1868.2 690.93 1865.52 L 674.416 1857.47 C 663.904 1852.76 653.465 1847.88 643.103 1842.85 L 629.054 1836 C 649.205 1797.03 668.941 1757.85 688.259 1718.45 C 694.821 1704.9 704.325 1686.13 710.023 1672.64 z" fill="rgb(226,191,137)" transform="translate(0,0)"></path>
<path d="M 710.023 1672.64 C 715.786 1674.84 721.571 1676.99 727.376 1679.08 C 739.219 1683.88 749.113 1687.72 761.232 1691.66 C 738.619 1742.83 704.574 1810.85 674.416 1857.47 C 663.904 1852.76 653.465 1847.88 643.103 1842.85 L 629.054 1836 C 649.205 1797.03 668.941 1757.85 688.259 1718.45 C 694.821 1704.9 704.325 1686.13 710.023 1672.64 z" fill="rgb(226,191,137)" transform="translate(0,0)"></path>
<path d="M 710.023 1672.64 C 715.786 1674.84 721.571 1676.99 727.376 1679.08 C 716.678 1699.2 650.54 1836.24 643.103 1842.85 L 629.054 1836 C 649.205 1797.03 668.941 1757.85 688.259 1718.45 C 694.821 1704.9 704.325 1686.13 710.023 1672.64 z" fill="rgb(231,216,199)" transform="translate(0,0)"></path>
<path d="M 761.232 1691.66 C 766.404 1693.61 771.603 1695.48 776.827 1697.28 C 784.484 1700.12 797.36 1705.31 804.832 1707.32 C 801.984 1718.75 790.923 1741.69 785.502 1753.31 C 765.448 1796.27 743.781 1838.47 720.547 1879.8 C 716.769 1877.01 696.617 1868.2 690.93 1865.52 L 674.416 1857.47 C 704.574 1810.85 738.619 1742.83 761.232 1691.66 z" fill="rgb(226,191,137)" transform="translate(0,0)"></path>
<path d="M 761.232 1691.66 C 766.404 1693.61 771.603 1695.48 776.827 1697.28 C 763.747 1738.63 730.363 1796.28 709.41 1834.9 C 703.983 1844.91 696.466 1855.51 690.93 1865.52 L 674.416 1857.47 C 704.574 1810.85 738.619 1742.83 761.232 1691.66 z" fill="rgb(230,154,87)" transform="translate(0,0)"></path>
<path d="M 804.832 1707.32 L 823.136 1714.34 C 817.568 1723.43 812.419 1733.13 808.265 1742.95 C 787.247 1792.63 760.045 1839.28 736.672 1887.74 L 728.058 1883.66 L 720.547 1879.8 C 743.781 1838.47 765.448 1796.27 785.502 1753.31 C 790.923 1741.69 801.984 1718.75 804.832 1707.32 z" fill="rgb(231,216,199)" transform="translate(0,0)"></path>
<path d="M 891.769 1739.28 L 908.635 1745.09 C 918.33 1748.82 928.047 1752.49 937.787 1756.1 C 942.814 1758.03 949.812 1760.97 954.795 1762.53 L 984.253 1773.33 C 977.51 1786.12 969.7 1811.23 964.736 1825.64 C 957.426 1847.07 949.262 1868.21 940.264 1888.99 C 930.108 1912.31 917.348 1934.31 904.788 1956.38 C 903.055 1959.42 901.143 1962.38 899.879 1965.66 L 865.923 1949.34 C 862.629 1948.28 852.902 1942.95 849.351 1941.11 C 840.091 1936.82 830.848 1932.66 821.823 1927.9 C 816.477 1925.71 810.933 1923.13 805.63 1920.78 C 833.9 1876.77 855.388 1832.83 874.426 1784.17 C 879.52 1771.15 887.948 1752.45 891.769 1739.28 z" fill="rgb(226,191,137)" transform="translate(0,0)"></path>
<path d="M 891.769 1739.28 L 908.635 1745.09 C 918.33 1748.82 928.047 1752.49 937.787 1756.1 C 916.782 1811.71 895.905 1866.33 864.947 1917.31 C 861.484 1923.01 853.901 1936.95 849.351 1941.11 C 840.091 1936.82 830.848 1932.66 821.823 1927.9 C 816.477 1925.71 810.933 1923.13 805.63 1920.78 C 833.9 1876.77 855.388 1832.83 874.426 1784.17 C 879.52 1771.15 887.948 1752.45 891.769 1739.28 z" fill="rgb(226,191,137)" transform="translate(0,0)"></path>
<path d="M 891.769 1739.28 L 908.635 1745.09 C 886.247 1799.54 865.4 1854.43 835.726 1905.53 C 833.33 1909.65 824.803 1924.61 821.823 1927.9 C 816.477 1925.71 810.933 1923.13 805.63 1920.78 C 833.9 1876.77 855.388 1832.83 874.426 1784.17 C 879.52 1771.15 887.948 1752.45 891.769 1739.28 z" fill="rgb(231,216,199)" transform="translate(0,0)"></path>
<path d="M 937.787 1756.1 C 942.814 1758.03 949.812 1760.97 954.795 1762.53 C 950.992 1769.93 946.305 1784.36 943.24 1792.89 C 937.88 1808.11 932.057 1823.15 925.777 1838.01 C 914.18 1865.84 900.634 1892.82 885.241 1918.75 C 878.896 1929.49 871.953 1939.23 865.923 1949.34 C 862.629 1948.28 852.902 1942.95 849.351 1941.11 C 853.901 1936.95 861.484 1923.01 864.947 1917.31 C 895.905 1866.33 916.782 1811.71 937.787 1756.1 z" fill="rgb(230,154,87)" transform="translate(0,0)"></path>
<path d="M 514.152 1549.91 C 650.09 1548.39 788.728 1552.11 924.399 1549.85 C 908.612 1563.75 893.139 1577.1 878.328 1592.09 C 872.505 1598.34 868.211 1603.58 862.896 1610.22 C 858.939 1608.49 841.219 1609.03 836.054 1609.03 C 750.458 1609.04 664.847 1608.76 579.254 1609.14 C 577.302 1609.15 576.645 1609.47 574.953 1610.26 C 569.371 1603.22 564.859 1597.65 558.734 1591.04 C 545.575 1577.68 528.245 1562.76 514.152 1549.91 z" fill="rgb(226,191,137)" transform="translate(0,0)"></path>
<path d="M 558.734 1591.04 C 634.372 1590.58 710.012 1590.49 785.651 1590.79 L 842.997 1590.95 C 852.438 1590.97 869.586 1590.62 878.328 1592.09 C 872.505 1598.34 868.211 1603.58 862.896 1610.22 C 858.939 1608.49 841.219 1609.03 836.054 1609.03 C 750.458 1609.04 664.847 1608.76 579.254 1609.14 C 577.302 1609.15 576.645 1609.47 574.953 1610.26 C 569.371 1603.22 564.859 1597.65 558.734 1591.04 z" fill="rgb(230,154,87)" transform="translate(0,0)"></path>
<path d="M 984.253 1773.33 L 992.636 1776.46 L 1000.16 1778.85 C 1006.52 1781.33 1016.51 1785.85 1022.95 1786.35 C 1026.74 1786.02 1037.5 1793.69 1041.08 1796.21 C 1037.58 1800.66 1028.5 1841.12 1025.44 1850.24 C 1021.24 1862.79 1017.33 1877.5 1012.09 1890.72 C 1001.7 1916.88 989.92 1940.53 976.559 1965.27 C 973.117 1971.64 960.713 1988.92 958.96 1993.42 C 952.403 1991 947.649 1988.5 941.47 1985.35 C 932.51 1981.23 923.621 1976.97 914.808 1972.55 L 899.879 1965.66 C 901.143 1962.38 903.055 1959.42 904.788 1956.38 C 917.348 1934.31 930.108 1912.31 940.264 1888.99 C 949.262 1868.21 957.426 1847.07 964.736 1825.64 C 969.7 1811.23 977.51 1786.12 984.253 1773.33 z" fill="rgb(226,191,137)" transform="translate(0,0)"></path>
<path d="M 1022.95 1786.35 C 1026.74 1786.02 1037.5 1793.69 1041.08 1796.21 C 1037.58 1800.66 1028.5 1841.12 1025.44 1850.24 C 1021.24 1862.79 1017.33 1877.5 1012.09 1890.72 C 1001.7 1916.88 989.92 1940.53 976.559 1965.27 C 973.117 1971.64 960.713 1988.92 958.96 1993.42 C 952.403 1991 947.649 1988.5 941.47 1985.35 C 948.773 1973.63 955.747 1963.62 962.815 1951.37 C 981.67 1918.21 996.777 1883.06 1007.85 1846.56 C 1013.26 1828.35 1016.71 1802.54 1022.95 1786.35 z" fill="rgb(230,154,87)" transform="translate(0,0)"></path>
<path d="M 984.253 1773.33 L 992.636 1776.46 L 1000.16 1778.85 C 989.893 1802.36 982.746 1827.12 973.838 1850.94 C 960.053 1887.8 937.232 1940.62 914.808 1972.55 L 899.879 1965.66 C 901.143 1962.38 903.055 1959.42 904.788 1956.38 C 917.348 1934.31 930.108 1912.31 940.264 1888.99 C 949.262 1868.21 957.426 1847.07 964.736 1825.64 C 969.7 1811.23 977.51 1786.12 984.253 1773.33 z" fill="rgb(231,216,199)" transform="translate(0,0)"></path>
<path d="M 1149.59 1707.52 C 1150.82 1722.15 1152.05 1739.68 1152.14 1754.45 C 1151.85 1761.22 1151.81 1767.48 1152.99 1774.18 C 1153.01 1787.36 1153.71 1811.28 1152.42 1823.73 L 1152.04 1839.94 L 1151.98 1844.86 C 1151.17 1848.48 1150.81 1849.18 1151.39 1852.76 C 1151.44 1856.12 1151.4 1859.49 1151.27 1862.85 C 1151.03 1873.04 1150.99 1873.24 1149.39 1883.18 C 1142.15 1878.77 1125.4 1865.35 1119.55 1862.89 C 1121.75 1866.02 1128.18 1874.65 1127.99 1878.4 C 1118.06 1864.89 1097.94 1837.96 1084.12 1828.57 C 1078.94 1823.08 1066.41 1813.44 1060.21 1809.12 C 1055.99 1805.8 1045.84 1799.39 1041.08 1796.21 C 1037.5 1793.69 1026.74 1786.02 1022.95 1786.35 C 1016.51 1785.85 1006.52 1781.33 1000.16 1778.85 L 992.636 1776.46 L 994.972 1774.13 C 996.076 1772.67 996.457 1772.08 998.292 1771.86 L 999.664 1771.64 L 1000.71 1770.63 L 1004.98 1772.81 C 1007.6 1771.44 1008.96 1770.88 1011.44 1769.2 C 1009.78 1768.33 1008.47 1767.62 1006.87 1766.62 C 1015.98 1761.91 1023.54 1758.16 1032.94 1754.1 C 1052.11 1745.07 1073.86 1742.54 1094.82 1738.74 C 1115.82 1735.68 1131.27 1733.41 1130.29 1708.15 C 1136.52 1708.04 1143.42 1707.93 1149.59 1707.52 z" fill="rgb(226,191,137)" transform="translate(0,0)"></path>
<path d="M 1000.71 1770.63 L 1004.98 1772.81 C 1012.13 1776.71 1019.54 1780.2 1026.87 1783.76 C 1037.71 1784.97 1059.39 1792.34 1070.25 1795.8 C 1097.83 1804.53 1125.23 1813.84 1152.42 1823.73 L 1152.04 1839.94 L 1151.98 1844.86 C 1151.17 1848.48 1150.81 1849.18 1151.39 1852.76 C 1151.44 1856.12 1151.4 1859.49 1151.27 1862.85 C 1151.03 1873.04 1150.99 1873.24 1149.39 1883.18 C 1142.15 1878.77 1125.4 1865.35 1119.55 1862.89 C 1121.75 1866.02 1128.18 1874.65 1127.99 1878.4 C 1118.06 1864.89 1097.94 1837.96 1084.12 1828.57 C 1078.94 1823.08 1066.41 1813.44 1060.21 1809.12 C 1055.99 1805.8 1045.84 1799.39 1041.08 1796.21 C 1037.5 1793.69 1026.74 1786.02 1022.95 1786.35 C 1016.51 1785.85 1006.52 1781.33 1000.16 1778.85 L 992.636 1776.46 L 994.972 1774.13 C 996.076 1772.67 996.457 1772.08 998.292 1771.86 L 999.664 1771.64 L 1000.71 1770.63 z" fill="rgb(231,216,199)" transform="translate(0,0)"></path>
<path d="M 1026.87 1783.76 C 1037.71 1784.97 1059.39 1792.34 1070.25 1795.8 C 1097.83 1804.53 1125.23 1813.84 1152.42 1823.73 L 1152.04 1839.94 C 1132.26 1838.55 1106.1 1826.48 1085.9 1820.12 C 1081.02 1819.45 1081.1 1816.45 1075.85 1818.35 C 1060.7 1805.89 1043.43 1794.19 1026.87 1783.76 z" fill="rgb(230,154,87)" transform="translate(0,0)"></path>
<path d="M 1085.9 1820.12 C 1106.1 1826.48 1132.26 1838.55 1152.04 1839.94 L 1151.98 1844.86 C 1151.17 1848.48 1150.81 1849.18 1151.39 1852.76 C 1151.44 1856.12 1151.4 1859.49 1151.27 1862.85 C 1150.74 1862.52 1150.21 1862.18 1149.68 1861.85 L 1090.82 1826.52 C 1089.3 1824.23 1087.59 1822.3 1085.9 1820.12 z" fill="rgb(226,191,137)" transform="translate(0,0)"></path>
<path d="M 1000.71 1770.63 L 1004.98 1772.81 C 1012.13 1776.71 1019.54 1780.2 1026.87 1783.76 C 1043.43 1794.19 1060.7 1805.89 1075.85 1818.35 C 1081.1 1816.45 1081.02 1819.45 1085.9 1820.12 C 1087.59 1822.3 1089.3 1824.23 1090.82 1826.52 C 1089.9 1827.39 1089.06 1828.18 1088.18 1829.09 C 1102.61 1842.52 1107.42 1849.82 1119.55 1862.89 C 1121.75 1866.02 1128.18 1874.65 1127.99 1878.4 C 1118.06 1864.89 1097.94 1837.96 1084.12 1828.57 C 1078.94 1823.08 1066.41 1813.44 1060.21 1809.12 C 1055.99 1805.8 1045.84 1799.39 1041.08 1796.21 C 1037.5 1793.69 1026.74 1786.02 1022.95 1786.35 C 1016.51 1785.85 1006.52 1781.33 1000.16 1778.85 L 992.636 1776.46 L 994.972 1774.13 C 996.076 1772.67 996.457 1772.08 998.292 1771.86 L 999.664 1771.64 L 1000.71 1770.63 z" fill="rgb(40,29,22)" transform="translate(0,0)"></path>
<path d="M 994.972 1774.13 C 996.076 1772.67 996.457 1772.08 998.292 1771.86 L 999.664 1771.64 C 1003.95 1774.63 1017.76 1781.88 1023.74 1785.49 C 1019.91 1784.3 998.145 1775.84 994.972 1774.13 z" fill="rgb(226,191,137)" transform="translate(0,0)"></path>
<path d="M 1075.85 1818.35 C 1081.1 1816.45 1081.02 1819.45 1085.9 1820.12 C 1087.59 1822.3 1089.3 1824.23 1090.82 1826.52 C 1089.9 1827.39 1089.06 1828.18 1088.18 1829.09 C 1086.18 1827.73 1077.61 1820.07 1075.85 1818.35 z" fill="rgb(233,197,138)" transform="translate(0,0)"></path>
<path d="M 1032.94 1754.1 C 1065.82 1758 1120.85 1772.76 1152.3 1785.85 C 1152.31 1791.91 1152.38 1797.97 1152.07 1804.02 C 1127.4 1795.27 1034.47 1766.97 1011.44 1769.2 C 1009.78 1768.33 1008.47 1767.62 1006.87 1766.62 C 1015.98 1761.91 1023.54 1758.16 1032.94 1754.1 z" fill="rgb(231,216,199)" transform="translate(0,0)"></path>
<path d="M 644.91 1648.58 L 710.023 1672.64 C 704.325 1686.13 694.821 1704.9 688.259 1718.45 C 668.941 1757.85 649.205 1797.03 629.054 1836 C 611.517 1827.29 593.895 1818.75 576.188 1810.39 C 577.673 1804.8 586.717 1784.68 589.39 1778.36 C 591.788 1773.55 594.098 1768.26 596.236 1763.31 C 612.655 1725.32 630.315 1687.3 644.91 1648.58 z" fill="rgb(226,191,137)" transform="translate(0,0)"></path>
<path d="M 958.96 1993.42 C 960.713 1988.92 973.117 1971.64 976.559 1965.27 C 989.92 1940.53 1001.7 1916.88 1012.09 1890.72 C 1017.33 1877.5 1021.24 1862.79 1025.44 1850.24 C 1028.5 1841.12 1037.58 1800.66 1041.08 1796.21 C 1045.84 1799.39 1055.99 1805.8 1060.21 1809.12 C 1066.41 1813.44 1078.94 1823.08 1084.12 1828.57 C 1080.9 1828.44 1078.82 1827.81 1076.37 1829.2 C 1075.76 1843.98 1074.78 1867.96 1071.97 1882.01 C 1063.49 1924.39 1041.74 1976.51 1011.32 2007.59 C 1005.24 2006.49 999.169 2005.29 993.123 2004 C 981.88 2001.87 969.586 1997.67 958.96 1993.42 z" fill="rgb(226,191,137)" transform="translate(0,0)"></path>
<path d="M 1060.21 1809.12 C 1066.41 1813.44 1078.94 1823.08 1084.12 1828.57 C 1080.9 1828.44 1078.82 1827.81 1076.37 1829.2 C 1075.76 1843.98 1074.78 1867.96 1071.97 1882.01 C 1063.49 1924.39 1041.74 1976.51 1011.32 2007.59 C 1005.24 2006.49 999.169 2005.29 993.123 2004 C 993.536 2001.09 1009.96 1983.33 1012.97 1979.11 C 1040.37 1940.72 1055.52 1895.21 1059.06 1848.31 C 1059.84 1837.97 1057.26 1818.55 1060.21 1809.12 z" fill="rgb(231,216,199)" transform="translate(0,0)"></path>
<path d="M 1084.12 1828.57 C 1097.94 1837.96 1118.06 1864.89 1127.99 1878.4 C 1128.18 1874.65 1121.75 1866.02 1119.55 1862.89 C 1125.4 1865.35 1142.15 1878.77 1149.39 1883.18 C 1137.58 1945.77 1093.46 2008.41 1022.79 2008.13 C 1018.94 2008.12 1015.16 2008.11 1011.32 2007.59 C 1041.74 1976.51 1063.49 1924.39 1071.97 1882.01 C 1074.78 1867.96 1075.76 1843.98 1076.37 1829.2 C 1078.82 1827.81 1080.9 1828.44 1084.12 1828.57 z" fill="rgb(226,191,137)" transform="translate(0,0)"></path>
<path d="M 574.953 1610.26 C 576.645 1609.47 577.302 1609.15 579.254 1609.14 C 664.847 1608.76 750.458 1609.04 836.054 1609.03 C 841.219 1609.03 858.939 1608.49 862.896 1610.22 C 860.617 1613.78 852.504 1627.57 850.738 1629.88 L 848.439 1628.6 C 784.725 1630.29 719.204 1628.2 655.342 1629.11 C 646.25 1629.24 593.678 1628.39 587.526 1630.27 C 583.153 1622.64 580.014 1617.5 574.953 1610.26 z" fill="rgb(226,191,137)" transform="translate(0,0)"></path>
<path d="M 279.699 1509.13 C 299.491 1509.12 443.432 1507.71 449.668 1510.1 C 444.929 1519.26 444.404 1522.86 443.572 1533.23 C 436.034 1532.42 386.817 1532.53 381.966 1535.53 C 363.929 1530.33 353.415 1524.56 336.749 1533.3 C 329.498 1540.63 330.281 1540.56 327.907 1549.88 C 319.425 1550.06 272.945 1551.2 269.303 1548.2 C 269.884 1544.78 271.947 1535.03 272.909 1532.02 L 279.699 1509.13 z" fill="rgb(226,191,137)" transform="translate(0,0)"></path>
<path d="M 272.909 1532.02 C 288.02 1532.41 323.801 1530.59 336.749 1533.3 C 329.498 1540.63 330.281 1540.56 327.907 1549.88 C 319.425 1550.06 272.945 1551.2 269.303 1548.2 C 269.884 1544.78 271.947 1535.03 272.909 1532.02 z" fill="rgb(231,216,199)" transform="translate(0,0)"></path>
<path d="M 587.526 1630.27 C 593.678 1628.39 646.25 1629.24 655.342 1629.11 C 719.204 1628.2 784.725 1630.29 848.439 1628.6 L 850.738 1629.88 L 845.262 1641.15 C 839.55 1644.07 834.696 1646.43 828.815 1648.97 C 820.703 1647.27 815.837 1647.46 807.7 1648 L 805.157 1647.79 C 798.413 1647.06 783.291 1647.33 776.095 1647.29 L 718.649 1647.11 C 705.623 1647.1 657.06 1646.37 648.552 1647.89 L 643.906 1646.79 C 631.952 1648.61 621.358 1647.14 610.024 1648.42 C 603.84 1646 597.879 1643.08 591.875 1640.25 L 587.526 1630.27 z" fill="rgb(231,216,199)" transform="translate(0,0)"></path>
<path d="M 254.49 1652.27 C 260.422 1652.15 281.002 1652.41 285.429 1651.31 C 285.964 1661.05 285.553 1659.3 289.049 1668.38 C 301.237 1681.28 313.699 1681.66 330.875 1684.3 C 330.309 1686.52 328.822 1686.16 326.585 1686.82 C 321.351 1688.08 320.421 1688.47 315.683 1690.94 C 309.741 1697.42 309.474 1698.85 306.317 1706.97 C 288.326 1707.48 268.015 1707.26 249.845 1707.23 C 249.996 1704.12 250.111 1701.02 250.191 1697.91 C 250.929 1696.69 250.825 1696.75 250.656 1695.25 L 250.926 1690.39 L 253.066 1668.3 C 253.102 1666.86 254.301 1653.29 254.49 1652.27 z" fill="rgb(226,191,137)" transform="translate(0,0)"></path>
<path d="M 250.926 1690.39 C 260.751 1690.96 310.947 1688.55 315.683 1690.94 C 309.741 1697.42 309.474 1698.85 306.317 1706.97 C 288.326 1707.48 268.015 1707.26 249.845 1707.23 C 249.996 1704.12 250.111 1701.02 250.191 1697.91 C 250.929 1696.69 250.825 1696.75 250.656 1695.25 L 250.926 1690.39 z" fill="rgb(231,216,199)" transform="translate(0,0)"></path>
<path d="M 254.49 1652.27 C 260.422 1652.15 281.002 1652.41 285.429 1651.31 C 285.964 1661.05 285.553 1659.3 289.049 1668.38 C 279.593 1667.93 262.546 1667.79 253.066 1668.3 C 253.102 1666.86 254.301 1653.29 254.49 1652.27 z" fill="rgb(230,154,87)" transform="translate(0,0)"></path>
<path d="M 987.384 1510.01 C 991.079 1509.58 996.416 1509.77 1000.23 1509.82 C 1034.56 1510.32 1068.96 1508.73 1103.27 1508.82 C 1106.85 1516.64 1110.23 1524.01 1113.41 1532.02 C 1106.94 1532.19 1103.92 1532.02 1097.69 1533.44 C 1078.4 1524.68 1074.37 1533.23 1059.36 1534.89 C 1052.98 1531.17 1008.71 1534.26 994.87 1532.19 C 994.389 1522.74 992.146 1517.87 987.384 1510.01 z" fill="rgb(226,191,137)" transform="translate(0,0)"></path>
<path d="M 648.552 1647.89 C 657.06 1646.37 705.623 1647.1 718.649 1647.11 L 776.095 1647.29 C 783.291 1647.33 798.413 1647.06 805.157 1647.79 C 783.284 1657.69 752.479 1668.92 729.618 1677.9 C 705.527 1669.59 672.091 1657.41 648.552 1647.89 z" fill="rgb(226,191,137)" transform="translate(0,0)"></path>
<path d="M 262.751 1590.15 C 264.702 1575.7 266.523 1562.56 269.303 1548.2 C 272.945 1551.2 319.425 1550.06 327.907 1549.88 C 327.728 1574.2 345.185 1578.01 364.996 1582.96 C 363.279 1583.31 361.568 1583.68 359.861 1584.08 C 337.013 1579.51 300.138 1563.51 287.56 1590.12 C 279.29 1590.22 271.02 1590.23 262.751 1590.15 z" fill="rgb(226,191,137)" transform="translate(0,0)"></path>
<path d="M 262.751 1590.15 C 271.02 1590.23 279.29 1590.22 287.56 1590.12 C 284.785 1600.81 285.75 1599.1 287.291 1608.72 C 293.231 1619.91 299.606 1622.91 311.85 1625.51 C 303.81 1628.63 304.696 1627.76 296.063 1627.94 C 298.521 1628.32 302.502 1628.83 304.072 1630.86 C 294.201 1634.68 291.352 1636.33 286.968 1645.83 C 286.509 1647.81 286.032 1649.37 285.429 1651.31 C 281.002 1652.41 260.422 1652.15 254.49 1652.27 C 254.816 1649.81 254.919 1647.07 255.373 1644.82 C 256.07 1639.62 256.528 1633.27 257.512 1628.14 C 258.429 1621.89 259.243 1615.24 260.439 1609.08 C 261.392 1603.27 262.138 1596.04 262.751 1590.15 z" fill="rgb(226,191,137)" transform="translate(0,0)"></path>
<path d="M 257.512 1628.14 C 272.042 1627.37 282.179 1628.04 296.063 1627.94 C 298.521 1628.32 302.502 1628.83 304.072 1630.86 C 294.201 1634.68 291.352 1636.33 286.968 1645.83 C 286.509 1647.81 286.032 1649.37 285.429 1651.31 C 281.002 1652.41 260.422 1652.15 254.49 1652.27 C 254.816 1649.81 254.919 1647.07 255.373 1644.82 C 256.07 1639.62 256.528 1633.27 257.512 1628.14 z" fill="rgb(231,216,199)" transform="translate(0,0)"></path>
<path d="M 254.49 1652.27 C 254.816 1649.81 254.919 1647.07 255.373 1644.82 C 266.669 1645.8 275.471 1646.34 286.968 1645.83 C 286.509 1647.81 286.032 1649.37 285.429 1651.31 C 281.002 1652.41 260.422 1652.15 254.49 1652.27 z" fill="rgb(226,191,137)" transform="translate(0,0)"></path>
<path d="M 262.751 1590.15 C 271.02 1590.23 279.29 1590.22 287.56 1590.12 C 284.785 1600.81 285.75 1599.1 287.291 1608.72 C 279.374 1607.73 269.043 1608.97 260.439 1609.08 C 261.392 1603.27 262.138 1596.04 262.751 1590.15 z" fill="rgb(230,154,87)" transform="translate(0,0)"></path>
<path d="M 994.87 1532.19 C 1008.71 1534.26 1052.98 1531.17 1059.36 1534.89 C 1041.38 1540.42 1022.71 1545.79 1004.59 1550.96 C 1000.28 1549.52 994.946 1548.81 991.299 1547.31 C 993.992 1540.83 993.951 1539.16 994.87 1532.19 z" fill="rgb(231,216,199)" transform="translate(0,0)"></path>
<path d="M 381.966 1535.53 C 386.817 1532.53 436.034 1532.42 443.572 1533.23 C 444.707 1539.61 445.445 1541.9 447.852 1547.65 C 440.22 1548.69 436.38 1548.29 429.471 1548.99 C 423.543 1547.85 388.63 1537.76 381.966 1535.53 z" fill="rgb(231,216,199)" transform="translate(0,0)"></path>
<path d="M 1118.95 1548.15 C 1122.45 1556.71 1124.55 1567.67 1126.4 1576.71 C 1110.14 1577.69 1099.29 1580.93 1083.81 1583.59 L 1081.8 1581.15 C 1099.22 1575.93 1109.12 1571.07 1107.83 1550.03 C 1111.62 1549.49 1115.67 1549.48 1118.95 1548.15 z" fill="rgb(226,191,137)" transform="translate(0,0)"></path>
<path d="M 1118.69 1691.43 C 1124.38 1689.14 1141.53 1689.99 1148.06 1690.54 L 1148.16 1691.25 C 1149.12 1697.62 1148.92 1701.35 1149.59 1707.52 C 1143.42 1707.93 1136.52 1708.04 1130.29 1708.15 C 1126.9 1698.88 1126.48 1697.75 1118.69 1691.43 z" fill="rgb(231,216,199)" transform="translate(0,0)"></path>
<path d="M 1118.69 1691.43 C 1116.38 1690.75 1102.81 1687.63 1102.74 1687.42 C 1103.79 1685.59 1117.21 1683.78 1120.02 1683.27 C 1131.63 1681.16 1137.01 1679.8 1146.59 1672.98 C 1147.19 1679.52 1147.99 1683.85 1148.06 1690.54 C 1141.53 1689.99 1124.38 1689.14 1118.69 1691.43 z" fill="rgb(226,191,137)" transform="translate(0,0)"></path>
<path d="M 610.024 1648.42 C 621.358 1647.14 631.952 1648.61 643.906 1646.79 C 642.083 1651.4 639.889 1656.49 637.973 1661.11 C 629.464 1656.51 619.041 1652.62 610.024 1648.42 z" fill="rgb(233,197,138)" transform="translate(0,0)"></path>
<path d="M 1097.69 1533.44 C 1103.92 1532.02 1106.94 1532.19 1113.41 1532.02 C 1114.5 1536.03 1117.5 1543.98 1118.95 1548.15 C 1115.67 1549.48 1111.62 1549.49 1107.83 1550.03 C 1105.13 1541.45 1104.28 1539.38 1097.69 1533.44 z" fill="rgb(231,216,199)" transform="translate(0,0)"></path>
<path d="M 311.85 1625.51 C 320.705 1628.05 329.994 1629.73 338.745 1632.07 L 339.262 1634.28 C 327.129 1631.85 316.479 1630.27 304.072 1630.86 C 302.502 1628.83 298.521 1628.32 296.063 1627.94 C 304.696 1627.76 303.81 1628.63 311.85 1625.51 z" fill="rgb(217,174,154)" transform="translate(0,0)"></path>
<path d="M 807.7 1648 C 815.837 1647.46 820.703 1647.27 828.815 1648.97 C 823.284 1650.95 817.268 1653.83 811.946 1656.31 C 809.917 1652.88 809.651 1652.07 807.979 1648.57 L 807.7 1648 z" fill="rgb(226,191,137)" transform="translate(0,0)"></path>
<path d="M 447.852 1547.65 C 449.137 1549.24 452.009 1554.11 453.373 1556.23 L 429.471 1548.99 C 436.38 1548.29 440.22 1548.69 447.852 1547.65 z" fill="rgb(226,191,137)" transform="translate(0,0)"></path>
<path d="M 991.299 1547.31 C 994.946 1548.81 1000.28 1549.52 1004.59 1550.96 C 998.355 1552.9 992.927 1555 986.468 1556.56 C 987.906 1553.98 989.095 1551.88 990.381 1549.23 L 991.299 1547.31 z" fill="rgb(230,154,87)" transform="translate(0,0)"></path>
<path d="M 330.875 1684.3 C 332.826 1684.47 348.999 1687.05 350.135 1687.96 L 350.239 1688.37 C 350.647 1688.08 328.441 1686.88 326.585 1686.82 C 328.822 1686.16 330.309 1686.52 330.875 1684.3 z" fill="rgb(160,136,108)" transform="translate(0,0)"></path>
<path d="M 1060.93 1587.45 C 1062.96 1586.82 1065 1586.22 1067.05 1585.66 C 1071.84 1584.29 1077.07 1582.72 1081.8 1581.15 L 1083.81 1583.59 C 1077.53 1585.48 1067.53 1586.72 1060.93 1587.45 z" fill="rgb(186,154,123)" transform="translate(0,0)"></path>
<path d="M 364.996 1582.96 C 367.366 1583.77 369.73 1584.38 372.106 1585.11 C 372.587 1585.26 373.646 1585.67 373.659 1585.87 C 373.777 1587.76 361.417 1584.47 359.861 1584.08 C 361.568 1583.68 363.279 1583.31 364.996 1582.96 z" fill="rgb(186,154,123)" transform="translate(0,0)"></path>
<path d="M 1152.14 1754.45 C 1153.55 1761.27 1153.69 1767.27 1152.99 1774.18 C 1151.81 1767.48 1151.85 1761.22 1152.14 1754.45 z" fill="rgb(134,116,99)" transform="translate(0,0)"></path>
<path d="M 338.745 1632.07 C 339.949 1631.83 346.425 1633.8 347.221 1634.58 C 345.799 1635.41 341.017 1634.46 339.262 1634.28 L 338.745 1632.07 z" fill="rgb(134,116,99)" transform="translate(0,0)"></path>
<path d="M 1151.98 1844.86 L 1152.27 1848.17 C 1152.45 1850.19 1152.49 1851.12 1151.39 1852.76 C 1150.81 1849.18 1151.17 1848.48 1151.98 1844.86 z" fill="rgb(160,136,108)" transform="translate(0,0)"></path>
<path d="M 746.954 1672.93 C 766.976 1665.7 786.486 1657.05 806.454 1649.7 L 838.907 1718.36 L 758.068 1688.3 C 748.945 1685.06 741.092 1682.61 732.037 1678.63 C 736.015 1677.16 743.387 1674.77 746.954 1672.93 z" fill="rgb(226,191,137)" transform="translate(0,0)"></path>
<path d="M 732.037 1678.63 C 736.015 1677.16 743.387 1674.77 746.954 1672.93 L 752.347 1679.92 C 754.472 1682.72 756.179 1685.37 758.068 1688.3 C 748.945 1685.06 741.092 1682.61 732.037 1678.63 z" fill="rgb(230,154,87)" transform="translate(0,0)"></path>
<path d="M 1139.4 1622.72 C 1140.21 1626.23 1140.88 1630.66 1141.39 1634.25 C 1129.35 1630.11 1127.37 1630.78 1114.82 1632.59 C 1113.54 1631.9 1112.27 1631.19 1111.01 1630.46 C 1122.48 1627.51 1128 1626.42 1139.4 1622.72 z" fill="rgb(233,197,138)" transform="translate(0,0)"></path>
<path d="M 1114.82 1632.59 C 1111.46 1633.47 1091.44 1636.33 1089.11 1635.5 C 1094.26 1635.1 1104.81 1631.51 1111.01 1630.46 C 1112.27 1631.19 1113.54 1631.9 1114.82 1632.59 z" fill="rgb(186,154,123)" transform="translate(0,0)"></path>
<metadata><recraft-signature>{"signed_by": "recraft", "signature_b64": "VrE+R2LnwxJb1pp2Zbw944Z6JYxFwuykCwvBtDC++Y1unkpGHqOjGDALw2MiR7WGOyr483rR+/dTmnG/c2SJBA==", "signing_algo": "Ed25519", "generation_timestamp": 1779010691, "identifier": "e220fb10-6da2-48ad-b776-8cc959f67008"}</recraft-signature></metadata></svg>