<svg xmlns="http://www.w3.org/2000/svg" height="1024" preserveAspectRatio="none" style="display: block;" version="1.1" viewBox="0 0 2048 2048" width="1024">
<path d="M 0 0 L 2048 0 L 2048 2048 L 0 2048 L 0 0 z" fill="rgb(255,255,255)" transform="translate(0,0)"></path>
<path d="M 903.131 266.876 C 904.443 264.188 907.23 260.698 909.323 258.44 C 935.873 229.799 987.051 225.357 1016.45 251.277 C 1020.91 254.974 1023.99 258.201 1028.03 262.298 C 1051.86 290.237 1047.73 326.98 1050.84 361.903 C 1055.94 414.761 1060.3 467.687 1063.93 520.666 C 1068.94 583.08 1073.59 645.522 1077.89 707.989 C 1079.5 731.831 1083.46 772.69 1083.11 795.23 C 1090.54 784.851 1094.66 778.396 1100.03 766.837 L 1100.98 764.315 C 1106.88 748.195 1108.85 726.274 1111.1 708.856 C 1113.42 690.804 1115.88 672.77 1118.48 654.757 C 1130.49 565.22 1143.15 475.769 1156.44 386.413 C 1156.57 383.194 1157.79 374.457 1158.5 371.357 C 1159.45 361.349 1164.15 322.511 1172.35 317.766 C 1184.69 288.061 1233.5 273.315 1261.81 284.644 C 1272.89 289.077 1278.03 291.442 1287.59 298.649 C 1292.45 302.353 1298.08 308.364 1300.75 313.992 C 1304.94 316.82 1311.09 330.803 1312.6 336.112 C 1319.75 361.266 1312.35 391.419 1309.08 417.116 C 1306.37 438.592 1303.81 460.087 1301.4 481.599 L 1265.92 799.85 C 1263.44 821.651 1259.64 848.425 1258.75 870.409 C 1258.67 872.178 1264.45 887.172 1265.4 890.704 C 1269.34 905.311 1275.44 948.315 1272.75 961.97 C 1276.84 967.639 1289.45 974.179 1296.01 978.644 C 1294.22 981.588 1292.67 984.442 1290.79 987.353 C 1285.53 983.357 1280.63 979.511 1275.12 975.807 C 1274.34 987.439 1274.96 1000.06 1277.08 1011.5 C 1277.74 1015.08 1280.44 1020.85 1280.56 1023.82 C 1283.24 1028.12 1284.02 1029.22 1285.72 1033.89 C 1286.45 1034.28 1296.88 1048.16 1298.02 1049.89 L 1298.64 1050.48 C 1302.77 1053.01 1303.79 1054.11 1307.14 1057.65 C 1310.69 1059.05 1317.19 1063.15 1320.72 1065.23 C 1321.47 1065.54 1322.23 1065.83 1322.99 1066.11 C 1338.18 1071.84 1350.68 1072.81 1366.37 1068.12 C 1368.55 1066.66 1370.61 1065.86 1372.99 1064.8 C 1370.54 1056.18 1353.42 1050.8 1363.53 1043.93 C 1370.15 1039.44 1376.72 1062.24 1383.01 1056.24 C 1385.16 1053.58 1398.6 1039.04 1400.97 1037.86 C 1403.42 1034.18 1405.48 1031.47 1409 1028.86 C 1412.4 1023.79 1415.07 1020.91 1419.71 1016.85 C 1420.85 1013.84 1439.31 993.625 1442.91 990.802 C 1444.59 988.292 1444.96 987.338 1447.34 985.586 C 1455.58 976.365 1474.1 957.459 1483.6 949.372 C 1485.2 947.275 1486.68 946.559 1488.88 945.045 C 1490.44 942.357 1492.17 941.628 1494.8 939.965 C 1497.8 935.043 1528.15 914.416 1534.87 911.235 C 1535.68 909.879 1537.38 909.319 1539.02 908.405 C 1543.82 905.444 1548.78 902.731 1553.87 900.276 C 1557.19 898.254 1560.41 897.076 1563.98 895.602 C 1601.56 877.378 1647.2 872.557 1686.05 889.367 C 1689.34 890.667 1692.16 892.518 1695.08 894.467 C 1695.81 894.941 1696.8 895.41 1697.19 896.034 C 1705.31 900.629 1711.33 907.494 1716.98 914.732 C 1726.3 925.654 1738.64 959.522 1730.28 971.91 C 1724.76 985.625 1678.35 1018.95 1664.9 1032.49 C 1660.51 1036.92 1634.15 1060.14 1629.01 1063.14 C 1617.16 1077.73 1569.32 1113.83 1552.31 1125.07 C 1546.34 1129.42 1543.91 1130.36 1539.31 1136.22 C 1536.67 1139.58 1529.2 1152.91 1526.7 1154.01 C 1525.19 1157.51 1516.95 1170.75 1513.83 1172.04 C 1511.43 1176.74 1509.16 1179.48 1505.4 1183.15 C 1504.38 1185.6 1501.21 1189.83 1499.01 1191.17 C 1496.5 1195.32 1492.35 1200.54 1488.49 1203.53 L 1488.31 1203.94 C 1486.31 1207.96 1481.62 1213.03 1478.3 1216.07 C 1476.92 1218.46 1477.62 1218 1475.58 1219.42 C 1473.32 1222.12 1471.51 1223.98 1469.04 1226.48 C 1470.18 1231 1471.24 1234.86 1472.29 1239.47 L 1473.18 1243.49 L 1474.09 1247.47 C 1475.52 1252.61 1475.48 1254.06 1469.52 1255.17 C 1462.3 1256.5 1465.64 1238.75 1460.09 1236.95 C 1446.29 1265.57 1435.68 1296.81 1421.36 1325.38 C 1418.53 1331.05 1411.04 1347.38 1407.65 1352.14 C 1399.49 1369.18 1368.12 1420.11 1355.47 1433.13 C 1354.28 1435.58 1351.31 1439.79 1348.94 1441.13 C 1345.78 1445.97 1344.61 1447.38 1340.16 1450.95 C 1339.16 1454.95 1323.26 1469.9 1319.16 1473 C 1317.56 1475.05 1314.62 1478.39 1312.17 1479.31 C 1307.92 1484.03 1302.57 1488.64 1297.5 1492.48 C 1296.28 1496.36 1305.66 1523.46 1307.03 1530.27 C 1312.64 1545.83 1319.19 1570.49 1323.13 1586.88 C 1324.03 1589.84 1325.17 1594.16 1326.41 1596.87 C 1327.2 1599.92 1328.06 1602.98 1328.9 1606.03 L 1329.4 1607.94 L 1330.46 1611.73 C 1330.59 1612.16 1330.71 1612.6 1330.84 1613.03 L 1331.94 1617.03 L 1332.43 1618.84 C 1332.55 1619.24 1332.66 1619.63 1332.78 1620.03 L 1333.89 1624.03 C 1339.8 1644.62 1346.94 1658.9 1335.91 1678.41 C 1332.15 1685.16 1327.15 1691.13 1321.16 1696 C 1319.38 1698.56 1312.84 1704.82 1310.17 1705.38 C 1306.78 1708.87 1305.7 1709.54 1301.16 1711.9 C 1299.27 1713.87 1294.75 1716.83 1292.24 1717.67 C 1283.54 1724.7 1263.37 1733.46 1252.74 1737.92 C 1239.6 1743.67 1205.3 1756.31 1191.32 1758.6 C 1190.03 1758.95 1188.75 1759.29 1187.46 1759.62 C 1130.66 1774.23 954.176 1801.21 901.873 1741.94 C 895.696 1734.93 884.84 1686.65 881.645 1674.11 C 879.437 1669.57 872.251 1643.75 870.709 1638.12 C 864.836 1616.64 857.478 1593.87 852.448 1572.31 L 849.516 1559.66 C 845.99 1558.01 842.393 1556.69 838.763 1555.29 C 828.734 1550.58 801.268 1537.32 793.828 1530.52 C 790.223 1529.22 782.328 1523.89 779.812 1520.99 C 773.921 1517.63 767.8 1512.33 762.753 1507.78 C 743.261 1491.43 709.82 1453.04 700.806 1428.88 L 700.536 1428.51 C 697.507 1423.84 697.319 1423.19 695.328 1418.04 C 691.974 1414.44 684.442 1393.14 682.672 1388.01 C 664.448 1343.21 663.97 1281.96 656.808 1234.31 C 651.074 1196.16 646.073 1157.31 642.763 1118.89 C 641.804 1107.76 639.569 1090.51 640.855 1079.87 C 638.496 1076.62 635.769 1074.53 632.678 1071.99 C 635.307 1069.51 636.85 1068.18 638.985 1065.27 C 639.489 1038.36 639.996 1013.91 641.091 986.823 C 602.377 922.35 565.99 856.241 527.555 791.603 C 501.572 750.203 475.694 708.672 450.965 666.516 C 440.031 647.877 439.231 615.558 454.603 598.959 C 455.123 594.51 464.344 586.527 467.873 584.058 C 469.239 581.532 473.334 579.399 475.997 578.369 C 503.168 559.207 545.467 569.373 562.634 596.684 C 565.692 601.55 577.746 619.72 578.38 623.995 C 583.459 629.672 669.274 771.015 669.266 770.963 C 675.297 776.791 688.776 796.049 694.045 803.522 C 712.055 829.38 729.638 855.532 746.785 881.97 L 750.533 869.103 C 752.684 848.263 739.666 803.073 734.573 780.4 C 716.964 699.295 697.874 618.519 677.312 538.112 L 657.299 457.404 C 649.084 425.245 633.516 387.626 656.297 358.033 L 657.117 356.863 C 673.125 327.693 723.989 313.214 751.358 332.342 C 768.457 340.872 780.073 354.007 785.402 372.525 C 805.017 440.689 822.532 509.567 841.456 577.946 C 848.765 604.376 857.401 630.591 864.064 657.133 C 870.543 677.089 878.285 705.986 883.556 726.678 C 890.126 744.456 895.353 771.358 901.78 790.028 C 903.442 794.857 907.906 810.243 908.693 814.745 C 911.713 819.86 912.325 813.958 913.223 810.851 C 920.265 776.844 914.722 740.87 912.342 705.812 L 907.034 617.191 L 895.031 401.216 L 890.949 343.011 C 889.115 318.483 884.796 288.57 902.349 268.061 L 903.131 266.876 z" fill="rgb(205,137,101)" transform="translate(0,0)"></path>
<path d="M 1627.16 963.419 C 1629.95 962.427 1639.48 955.908 1642.47 953.54 C 1668.54 932.908 1706.33 919.672 1728.66 953.724 C 1731.29 957.726 1730.45 966.136 1729.72 970.904 L 1730.28 971.91 C 1724.76 985.625 1678.35 1018.95 1664.9 1032.49 C 1660.51 1036.92 1634.15 1060.14 1629.01 1063.14 C 1625.22 1064.27 1619.89 1069.73 1616.67 1072.61 C 1574.84 1056.08 1573.46 1002.43 1608.46 978.022 C 1613.86 974.258 1621.6 968.486 1626.46 964.064 L 1627.16 963.419 z" fill="rgb(254,196,11)" transform="translate(0,0)"></path>
<path d="M 852.448 1572.31 C 852.917 1568.24 852.73 1565.57 852.438 1561.46 C 855.628 1561.61 875.726 1568.45 880.712 1569.85 C 894.569 1573.79 908.604 1577.06 922.771 1579.66 C 946.803 1584.12 973.685 1586.11 998.135 1587.61 C 1009.27 1588.3 1020.62 1587.53 1031.74 1588.23 C 1030.76 1591.39 1028.52 1591.09 1025.58 1590.75 C 1018.33 1589.91 1010.74 1593.23 1003.73 1594.85 C 973.628 1603.35 942.207 1615.84 917.86 1635.86 C 901.492 1649.31 892.533 1662.96 885.809 1682.79 C 884.883 1679.58 884.352 1676.3 882.366 1673.86 L 881.645 1674.11 C 879.437 1669.57 872.251 1643.75 870.709 1638.12 C 864.836 1616.64 857.478 1593.87 852.448 1572.31 z" fill="rgb(168,106,77)" transform="translate(0,0)"></path>
<path d="M 1293.63 1496.44 L 1295.45 1496.5 C 1298.94 1503.43 1303.88 1528.29 1306.72 1530.34 L 1307.03 1530.27 C 1312.64 1545.83 1319.19 1570.49 1323.13 1586.88 C 1318.51 1585.51 1308.14 1572.48 1301.68 1567.33 C 1277.98 1548.46 1241.5 1540.93 1211.98 1544.38 C 1237.06 1533.65 1260.85 1520.14 1282.92 1504.11 C 1283.78 1503.13 1283.67 1503.26 1284.91 1502.69 L 1291.16 1498.12 C 1292.29 1497.22 1292.38 1497.13 1293.63 1496.44 z" fill="rgb(168,106,77)" transform="translate(0,0)"></path>
<path d="M 839.238 1553.45 C 904.418 1580.71 983.304 1590.48 1053.67 1583.77 C 1060.05 1583.16 1066.69 1582.14 1073.08 1582.73 C 1062.93 1585.91 1046.13 1587.61 1034.13 1590.1 C 984.515 1600.42 920.423 1620 894.124 1667.01 C 884.857 1683.58 888.179 1696.87 893.779 1713.36 C 895.488 1718.4 896.637 1725.77 898.354 1731.31 C 900.627 1738.88 905.433 1745.44 911.967 1749.88 C 912.489 1750.44 912.255 1750.23 913.031 1750.75 C 918.864 1753.29 923.682 1757.93 930.724 1760.55 C 997.221 1785.34 1074.57 1778.25 1143.36 1767.64 C 1151.9 1766.32 1186.15 1757.51 1191.32 1758.6 C 1190.03 1758.95 1188.75 1759.29 1187.46 1759.62 C 1130.66 1774.23 954.176 1801.21 901.873 1741.94 C 895.696 1734.93 884.84 1686.65 881.645 1674.11 L 882.366 1673.86 C 884.352 1676.3 884.883 1679.58 885.809 1682.79 C 892.533 1662.96 901.492 1649.31 917.86 1635.86 C 942.207 1615.84 973.628 1603.35 1003.73 1594.85 C 1010.74 1593.23 1018.33 1589.91 1025.58 1590.75 C 1028.52 1591.09 1030.76 1591.39 1031.74 1588.23 C 1020.62 1587.53 1009.27 1588.3 998.135 1587.61 C 973.685 1586.11 946.803 1584.12 922.771 1579.66 C 908.604 1577.06 894.569 1573.79 880.712 1569.85 C 875.726 1568.45 855.628 1561.61 852.438 1561.46 C 852.73 1565.57 852.917 1568.24 852.448 1572.31 L 849.516 1559.66 C 845.99 1558.01 842.393 1556.69 838.763 1555.29 L 839.238 1553.45 z" fill="rgb(95,63,49)" transform="translate(0,0)"></path>
<path d="M 1300.75 313.992 C 1304.94 316.82 1311.09 330.803 1312.6 336.112 C 1319.75 361.266 1312.35 391.419 1309.08 417.116 C 1306.37 438.592 1303.81 460.087 1301.4 481.599 L 1265.92 799.85 C 1263.44 821.651 1259.64 848.425 1258.75 870.409 C 1258.67 872.178 1264.45 887.172 1265.4 890.704 C 1269.34 905.311 1275.44 948.315 1272.75 961.97 L 1271.04 961.854 C 1272 941.034 1268.83 917.46 1264.76 897.093 C 1263.57 891.199 1255.47 866.98 1256.14 863.564 C 1258.36 852.188 1259.66 839.934 1260.92 828.101 L 1274.12 711.026 L 1301.11 468.495 C 1303.47 446.379 1306.21 424.305 1309.32 402.283 C 1312.83 376.599 1318.69 352.244 1307.22 327.725 C 1305.38 323.781 1301.47 317.916 1300.75 313.992 z" fill="rgb(134,88,68)" transform="translate(0,0)"></path>
<path d="M 1028.03 262.298 C 1051.86 290.237 1047.73 326.98 1050.84 361.903 C 1055.94 414.761 1060.3 467.687 1063.93 520.666 C 1068.94 583.08 1073.59 645.522 1077.89 707.989 C 1079.5 731.831 1083.46 772.69 1083.11 795.23 C 1090.54 784.851 1094.66 778.396 1100.03 766.837 C 1101.27 774.605 1086.99 792.529 1082.25 799.412 C 1080.29 785.668 1079.63 764.612 1078.71 750.265 L 1072.78 659.099 C 1066.54 573.092 1059.84 487.118 1052.68 401.183 C 1050.83 381.079 1049.12 360.962 1047.54 340.834 C 1045.58 314.72 1046.62 289.123 1029.73 268.269 C 1028.05 266.192 1027.52 265.355 1026.54 262.89 L 1028.03 262.298 z" fill="rgb(134,88,68)" transform="translate(0,0)"></path>
<path d="M 750.533 869.103 C 752.684 848.263 739.666 803.073 734.573 780.4 C 716.964 699.295 697.874 618.519 677.312 538.112 L 657.299 457.404 C 649.084 425.245 633.516 387.626 656.297 358.033 C 654.864 363.579 652.439 368.097 650.442 373.383 C 638.992 403.681 656.641 444.311 663.85 474.66 L 717.516 700.978 C 726.455 736.102 734.799 771.376 742.546 806.782 C 746.449 824.016 756.219 853.623 752.12 870.078 L 750.533 869.103 z" fill="rgb(168,106,77)" transform="translate(0,0)"></path>
<path d="M 641.091 986.823 C 602.377 922.35 565.99 856.241 527.555 791.603 C 501.572 750.203 475.694 708.672 450.965 666.516 C 440.031 647.877 439.231 615.558 454.603 598.959 C 447.412 617.816 439.437 636.939 448.91 657.094 C 456.682 673.63 467.999 691.354 477.617 707.112 L 532.623 795.674 C 543.512 813.366 555.423 835.761 566.128 854.157 L 643.161 986.405 C 643.515 997.493 641.816 1008.27 641.463 1019.32 C 640.99 1034.11 641.147 1049.1 641.215 1063.9 L 638.985 1065.27 C 639.489 1038.36 639.996 1013.91 641.091 986.823 z" fill="rgb(134,88,68)" transform="translate(0,0)"></path>
<path d="M 913.223 810.851 C 920.265 776.844 914.722 740.87 912.342 705.812 L 907.034 617.191 L 895.031 401.216 L 890.949 343.011 C 889.115 318.483 884.796 288.57 902.349 268.061 C 899.064 279.408 892.171 288.333 891.297 301.119 C 890.287 315.884 891.823 330.096 892.909 344.79 L 897.117 405.636 C 899.124 436.237 899.997 467.301 901.567 497.98 L 910.307 647.077 C 911.923 675.125 913.733 703.162 915.737 731.185 C 917.541 756.085 922.555 789.142 914.389 812.644 L 913.223 810.851 z" fill="rgb(134,88,68)" transform="translate(0,0)"></path>
<path d="M 1156.44 386.413 C 1158.15 393.219 1146.98 464.709 1145.39 475.897 L 1128.35 599.242 C 1124.46 626.347 1120.87 654.24 1116.61 681.211 C 1112.95 704.37 1111.46 743.324 1102.78 763.982 C 1102.18 764.117 1101.59 764.389 1100.98 764.315 C 1106.88 748.195 1108.85 726.274 1111.1 708.856 C 1113.42 690.804 1115.88 672.77 1118.48 654.757 C 1130.49 565.22 1143.15 475.769 1156.44 386.413 z" fill="rgb(168,106,77)" transform="translate(0,0)"></path>
<path d="M 751.358 332.342 C 768.457 340.872 780.073 354.007 785.402 372.525 C 805.017 440.689 822.532 509.567 841.456 577.946 C 848.765 604.376 857.401 630.591 864.064 657.133 C 863.559 657.094 863.054 657.055 862.549 657.016 C 855.863 631.055 846.661 605.349 840.019 580.267 C 823.161 514.03 805.348 448.039 786.585 382.316 C 780.337 360.672 774.019 346.85 752.997 335.239 L 751.358 332.342 z" fill="rgb(134,88,68)" transform="translate(0,0)"></path>
<path d="M 642.656 1080.05 C 641.168 1155.97 664.488 1244.73 668.916 1321.57 C 669.493 1331.6 683.291 1386.91 682.672 1388.01 C 664.448 1343.21 663.97 1281.96 656.808 1234.31 C 651.074 1196.16 646.073 1157.31 642.763 1118.89 C 641.804 1107.76 639.569 1090.51 640.855 1079.87 L 642.656 1080.05 z" fill="rgb(168,106,77)" transform="translate(0,0)"></path>
<path d="M 1297.04 1490.55 L 1297.5 1492.48 C 1296.28 1496.36 1305.66 1523.46 1307.03 1530.27 L 1306.72 1530.34 C 1303.88 1528.29 1298.94 1503.43 1295.45 1496.5 L 1293.63 1496.44 C 1292.38 1497.13 1292.29 1497.22 1291.16 1498.12 L 1284.91 1502.69 C 1283.67 1503.26 1283.78 1503.13 1282.92 1504.11 C 1260.85 1520.14 1237.06 1533.65 1211.98 1544.38 C 1241.5 1540.93 1277.98 1548.46 1301.68 1567.33 C 1308.14 1572.48 1318.51 1585.51 1323.13 1586.88 C 1324.03 1589.84 1325.17 1594.16 1326.41 1596.87 L 1324.92 1598.33 C 1321.64 1586.75 1305.25 1571.25 1295.32 1564.75 C 1270.76 1548.66 1241.06 1544.92 1212.33 1544.85 C 1210.05 1544.84 1199.53 1549.6 1195.44 1550.44 C 1197.03 1548.21 1233.01 1533.02 1239.44 1529.2 C 1258.71 1517.76 1280.65 1506.06 1297.04 1490.55 z" fill="rgb(74,48,38)" transform="translate(0,0)"></path>
<path d="M 1614.16 1074.35 C 1580.93 1057.95 1571.87 1021 1593.09 990.268 C 1598.68 982.178 1617.87 966.965 1627.16 963.419 L 1626.46 964.064 C 1621.6 968.486 1613.86 974.258 1608.46 978.022 C 1573.46 1002.43 1574.84 1056.08 1616.67 1072.61 C 1619.89 1069.73 1625.22 1064.27 1629.01 1063.14 C 1617.16 1077.73 1569.32 1113.83 1552.31 1125.07 L 1551.7 1123.63 C 1554.39 1121.01 1559.25 1118.19 1562.43 1115.94 C 1580.66 1103.08 1597.36 1088.99 1614.16 1074.35 z" fill="rgb(95,63,49)" transform="translate(0,0)"></path>
<path d="M 578.38 623.995 C 583.459 629.672 669.274 771.015 669.266 770.963 L 668.335 770.711 C 661.772 764.037 655.607 753.903 650.836 745.759 C 628.039 706.851 604.465 668.433 580.573 630.191 C 579.249 628.071 578.856 626.38 578.38 623.995 z" fill="rgb(134,88,68)" transform="translate(0,0)"></path>
<path d="M 669.266 770.963 C 675.297 776.791 688.776 796.049 694.045 803.522 C 712.055 829.38 729.638 855.532 746.785 881.97 L 750.533 869.103 L 752.12 870.078 C 751.597 873.811 749.971 880.604 747.338 883.309 C 740.559 880.265 682.47 787.262 671.332 776.221 C 670.267 775.165 669.613 772.509 669.266 770.963 z" fill="rgb(168,106,77)" transform="translate(0,0)"></path>
<path d="M 1460.09 1236.95 C 1459.88 1236.6 1459.23 1227.65 1459.27 1227.54 C 1460.69 1223.96 1468.01 1224.13 1470.77 1222.63 C 1472.56 1221.66 1473.32 1220.5 1475.58 1219.42 C 1473.32 1222.12 1471.51 1223.98 1469.04 1226.48 C 1470.18 1231 1471.24 1234.86 1472.29 1239.47 L 1473.18 1243.49 L 1474.09 1247.47 C 1475.52 1252.61 1475.48 1254.06 1469.52 1255.17 C 1462.3 1256.5 1465.64 1238.75 1460.09 1236.95 z" fill="rgb(27,23,22)" transform="translate(0,0)"></path>
<path d="M 650.99 1050.9 L 652.441 1052.26 C 653.46 1053.2 657.799 1057 657.261 1058 C 652.861 1066.23 646.41 1070.42 642.656 1080.05 L 640.855 1079.87 C 638.496 1076.62 635.769 1074.53 632.678 1071.99 C 635.307 1069.51 636.85 1068.18 638.985 1065.27 L 641.215 1063.9 C 642.868 1061.79 644.189 1060.03 645.767 1057.85 C 647.463 1055.5 649.204 1053.18 650.99 1050.9 z" fill="rgb(27,23,22)" transform="translate(0,0)"></path>
<path d="M 1271.04 961.854 L 1272.75 961.97 C 1276.84 967.639 1289.45 974.179 1296.01 978.644 C 1294.22 981.588 1292.67 984.442 1290.79 987.353 C 1285.53 983.357 1280.63 979.511 1275.12 975.807 C 1274.54 975.426 1273.95 975.044 1273.37 974.663 C 1264.01 970.694 1267.48 969.937 1271.04 961.854 z" fill="rgb(27,23,22)" transform="translate(0,0)"></path>
<path d="M 1372.99 1064.8 C 1370.54 1056.18 1353.42 1050.8 1363.53 1043.93 C 1370.15 1039.44 1376.72 1062.24 1383.01 1056.24 L 1384 1056.39 C 1378.77 1063.54 1387.48 1061.93 1383.93 1065.81 C 1377.95 1072.38 1377.23 1067.97 1372.99 1064.8 z" fill="rgb(27,23,22)" transform="translate(0,0)"></path>
<path d="M 1172.35 317.766 C 1184.69 288.061 1233.5 273.315 1261.81 284.644 C 1272.89 289.077 1278.03 291.442 1287.59 298.649 L 1285.72 299.504 C 1257.27 276.573 1214.94 277.625 1187.07 302.057 C 1181.88 306.604 1178.23 313.775 1172.35 317.766 z" fill="rgb(168,106,77)" transform="translate(0,0)"></path>
<path d="M 475.997 578.369 C 503.168 559.207 545.467 569.373 562.634 596.684 C 565.692 601.55 577.746 619.72 578.38 623.995 C 572.397 622.224 560.162 588.41 542.688 579.44 C 528.971 571.246 510.732 569.28 495.151 572.101 C 490.139 573.009 482.196 576.949 475.997 578.369 z" fill="rgb(168,106,77)" transform="translate(0,0)"></path>
<path d="M 903.131 266.876 C 904.443 264.188 907.23 260.698 909.323 258.44 C 935.873 229.799 987.051 225.357 1016.45 251.277 C 1016.68 252.388 1016.81 253.4 1016.97 254.52 C 1015.54 253.452 1014.34 252.093 1013.24 251.233 C 1000.63 241.378 983.499 236.155 967.559 236.019 C 950.717 236.165 931.954 241.788 918.948 252.339 C 913.625 256.657 908.427 262.995 903.131 266.876 z" fill="rgb(134,88,68)" transform="translate(0,0)"></path>
<path d="M 657.117 356.863 C 673.125 327.693 723.989 313.214 751.358 332.342 L 752.997 335.239 L 752.019 334.753 C 744.663 331.031 740.003 328.629 731.508 327.231 C 721.685 325.615 711.669 325.428 701.964 328.047 C 695.011 329.808 688.434 332.245 682.026 335.426 C 673.068 339.874 666.366 350.51 658.082 356.19 L 657.117 356.863 z" fill="rgb(168,106,77)" transform="translate(0,0)"></path>
<path d="M 1563.98 895.602 C 1601.56 877.378 1647.2 872.557 1686.05 889.367 L 1682.9 889.932 C 1646.81 873.126 1601.08 881.428 1565.41 896.309 C 1564.93 896.073 1564.46 895.838 1563.98 895.602 z" fill="rgb(95,63,49)" transform="translate(0,0)"></path>
<path d="M 1326.41 1596.87 C 1327.2 1599.92 1328.06 1602.98 1328.9 1606.03 L 1329.4 1607.94 L 1330.46 1611.73 C 1330.59 1612.16 1330.71 1612.6 1330.84 1613.03 L 1331.94 1617.03 L 1332.43 1618.84 C 1332.55 1619.24 1332.66 1619.63 1332.78 1620.03 L 1333.89 1624.03 C 1339.8 1644.62 1346.94 1658.9 1335.91 1678.41 C 1332.15 1685.16 1327.15 1691.13 1321.16 1696 C 1324.81 1687.31 1337.16 1677.85 1338.6 1667.5 C 1341.54 1646.28 1330.29 1619.35 1324.92 1598.33 L 1326.41 1596.87 z" fill="rgb(168,106,77)" transform="translate(0,0)"></path>
<path d="M 700.806 1428.88 C 702.151 1429.88 718.639 1454.45 720.904 1458.34 C 725.811 1466.76 732.784 1473.12 737.728 1480.1 C 737.969 1480.75 737.995 1480.68 738.544 1481.21 C 743.065 1486.49 752.627 1497.16 758.226 1501.22 C 760.944 1504.07 762.104 1504.05 762.753 1507.78 C 743.261 1491.43 709.82 1453.04 700.806 1428.88 z" fill="rgb(95,63,49)" transform="translate(0,0)"></path>
<path d="M 907.302 815.041 C 902.25 796.84 896.326 779.044 891.416 760.657 L 888.398 749.657 C 886.818 744.081 882.434 731.89 883.556 726.678 C 890.126 744.456 895.353 771.358 901.78 790.028 C 903.442 794.857 907.906 810.243 908.693 814.745 L 907.302 815.041 z" fill="rgb(168,106,77)" transform="translate(0,0)"></path>
<path d="M 1355.47 1433.13 C 1357.01 1426.03 1356.57 1429.65 1360.71 1423.94 C 1376.33 1402.41 1390.66 1379.99 1403.39 1356.63 C 1405.08 1353.52 1404.44 1352.99 1407.65 1352.14 C 1399.49 1369.18 1368.12 1420.11 1355.47 1433.13 z" fill="rgb(134,88,68)" transform="translate(0,0)"></path>
<path d="M 1158.5 371.357 C 1159.45 361.349 1164.15 322.511 1172.35 317.766 C 1172.63 320.939 1165.13 334.91 1164.59 341.651 C 1164.35 344.618 1159.84 372.603 1159.4 372.855 C 1159.02 372.708 1158.69 371.751 1158.5 371.357 z" fill="rgb(168,106,77)" transform="translate(0,0)"></path>
<path d="M 793.828 1530.52 C 796.27 1531.16 839.623 1553.96 839.238 1553.45 L 838.763 1555.29 C 828.734 1550.58 801.268 1537.32 793.828 1530.52 z" fill="rgb(168,106,77)" transform="translate(0,0)"></path>
<path d="M 1494.8 939.965 C 1497.8 935.043 1528.15 914.416 1534.87 911.235 C 1532.26 914.811 1527.82 917.681 1524.12 920.146 L 1521.64 921.804 C 1517.58 924.478 1497.12 940.605 1494.8 939.965 z" fill="rgb(168,106,77)" transform="translate(0,0)"></path>
<path d="M 1273.37 974.663 C 1273.95 975.044 1274.54 975.426 1275.12 975.807 C 1274.34 987.439 1274.96 1000.06 1277.08 1011.5 C 1277.74 1015.08 1280.44 1020.85 1280.56 1023.82 C 1273.04 1022.13 1272.81 981.792 1273.37 974.663 z" fill="rgb(95,63,49)" transform="translate(0,0)"></path>
<path d="M 1252.74 1737.92 C 1252.25 1735.43 1263.19 1730.99 1266.37 1729.57 C 1273.53 1726.38 1285.21 1719.2 1292.24 1717.67 C 1283.54 1724.7 1263.37 1733.46 1252.74 1737.92 z" fill="rgb(168,106,77)" transform="translate(0,0)"></path>
<path d="M 1320.72 1065.23 C 1321.47 1065.54 1322.23 1065.83 1322.99 1066.11 C 1338.18 1071.84 1350.68 1072.81 1366.37 1068.12 C 1367.06 1073.19 1343.08 1072.96 1340 1072.83 C 1339.17 1072.74 1339.07 1072.83 1338.4 1072.4 C 1335.49 1071.68 1320.04 1068.53 1320.72 1065.23 z" fill="rgb(95,63,49)" transform="translate(0,0)"></path>
<path d="M 1483.6 949.372 C 1482.74 952.489 1481.26 953.297 1479.18 955.802 C 1476.72 957.463 1456.37 977.87 1454.73 980.133 C 1451.78 982.721 1450.75 984.71 1447.34 985.586 C 1455.58 976.365 1474.1 957.459 1483.6 949.372 z" fill="rgb(74,48,38)" transform="translate(0,0)"></path>
<path d="M 1551.7 1123.63 L 1552.31 1125.07 C 1546.34 1129.42 1543.91 1130.36 1539.31 1136.22 C 1536.67 1139.58 1529.2 1152.91 1526.7 1154.01 C 1526.68 1151.22 1531.99 1144.92 1533.56 1141.68 C 1537.92 1132.7 1543.87 1129.15 1551.7 1123.63 z" fill="rgb(95,63,49)" transform="translate(0,0)"></path>
<path d="M 1319.16 1473 C 1320.83 1468.52 1337.85 1450.33 1340.16 1450.95 C 1339.16 1454.95 1323.26 1469.9 1319.16 1473 z" fill="rgb(185,124,90)" transform="translate(0,0)"></path>
<path d="M 1697.19 896.034 C 1705.31 900.629 1711.33 907.494 1716.98 914.732 C 1712.64 914.338 1700.58 901.27 1698.17 897.512 L 1697.19 896.034 z" fill="rgb(185,124,90)" transform="translate(0,0)"></path>
<path d="M 1383.01 1056.24 C 1385.16 1053.58 1398.6 1039.04 1400.97 1037.86 C 1402.01 1041.29 1387.53 1054.94 1384 1056.39 L 1383.01 1056.24 z" fill="rgb(185,124,90)" transform="translate(0,0)"></path>
<path d="M 758.226 1501.22 C 761.604 1503.03 776.87 1516.46 779.155 1520 L 779.812 1520.99 C 773.921 1517.63 767.8 1512.33 762.753 1507.78 C 762.104 1504.05 760.944 1504.07 758.226 1501.22 z" fill="rgb(185,124,90)" transform="translate(0,0)"></path>
<path d="M 1287.59 298.649 C 1292.45 302.353 1298.08 308.364 1300.75 313.992 C 1296.55 310.77 1288.77 303.741 1285.72 299.504 L 1287.59 298.649 z" fill="rgb(185,124,90)" transform="translate(0,0)"></path>
<path d="M 1513.83 1172.04 C 1513.2 1169.06 1523.75 1156.22 1526.7 1154.01 C 1525.19 1157.51 1516.95 1170.75 1513.83 1172.04 z" fill="rgb(168,106,77)" transform="translate(0,0)"></path>
<path d="M 1297.04 1490.55 C 1298.49 1487.32 1308.08 1480.63 1312.17 1479.31 C 1307.92 1484.03 1302.57 1488.64 1297.5 1492.48 L 1297.04 1490.55 z" fill="rgb(185,124,90)" transform="translate(0,0)"></path>
<path d="M 454.603 598.959 C 455.123 594.51 464.344 586.527 467.873 584.058 C 466.497 587.595 457.031 598.369 454.603 598.959 z" fill="rgb(185,124,90)" transform="translate(0,0)"></path>
<path d="M 1285.72 1033.89 C 1286.45 1034.28 1296.88 1048.16 1298.02 1049.89 L 1297.52 1049.54 C 1293.46 1046.83 1284.98 1039.32 1285.72 1033.89 z" fill="rgb(168,106,77)" transform="translate(0,0)"></path>
<path d="M 1553.87 900.276 C 1552.93 904.896 1543.01 908.569 1539.02 908.405 C 1543.82 905.444 1548.78 902.731 1553.87 900.276 z" fill="rgb(168,106,77)" transform="translate(0,0)"></path>
<path d="M 1409 1028.86 C 1412.4 1023.79 1415.07 1020.91 1419.71 1016.85 C 1417.66 1023.07 1415.08 1026.57 1409 1028.86 z" fill="rgb(185,124,90)" transform="translate(0,0)"></path>
<path d="M 1478.3 1216.07 C 1479.49 1211.04 1482.34 1207.08 1487.11 1204.61 L 1488.31 1203.94 C 1486.31 1207.96 1481.62 1213.03 1478.3 1216.07 z" fill="rgb(168,106,77)" transform="translate(0,0)"></path>
<path d="M 1488.49 1203.53 C 1489.76 1198.23 1492.81 1195.17 1497.5 1192.17 L 1499.01 1191.17 C 1496.5 1195.32 1492.35 1200.54 1488.49 1203.53 z" fill="rgb(185,124,90)" transform="translate(0,0)"></path>
<path d="M 1340.16 1450.95 C 1341.86 1445.13 1342.96 1443.46 1348.94 1441.13 C 1345.78 1445.97 1344.61 1447.38 1340.16 1450.95 z" fill="rgb(185,124,90)" transform="translate(0,0)"></path>
<path d="M 1686.05 889.367 C 1689.34 890.667 1692.16 892.518 1695.08 894.467 C 1690.62 894.538 1686.64 892.207 1682.9 889.932 L 1686.05 889.367 z" fill="rgb(168,106,77)" transform="translate(0,0)"></path>
<path d="M 913.223 810.851 L 914.389 812.644 L 913.974 813.631 C 910.612 821.779 911.019 823.806 907.302 815.041 L 908.693 814.745 C 911.713 819.86 912.325 813.958 913.223 810.851 z" fill="rgb(27,23,22)" transform="translate(0,0)"></path>
<path d="M 1454.73 980.133 C 1452.32 984.938 1448.04 988.996 1442.91 990.802 C 1444.59 988.292 1444.96 987.338 1447.34 985.586 C 1450.75 984.71 1451.78 982.721 1454.73 980.133 z" fill="rgb(185,124,90)" transform="translate(0,0)"></path>
<path d="M 1016.45 251.277 C 1020.91 254.974 1023.99 258.201 1028.03 262.298 L 1026.54 262.89 C 1023.46 259.976 1020.59 256.252 1016.97 254.52 C 1016.81 253.4 1016.68 252.388 1016.45 251.277 z" fill="rgb(74,48,38)" transform="translate(0,0)"></path>
<path d="M 1505.4 1183.15 C 1507.37 1176.6 1507.88 1176.44 1513.83 1172.04 C 1511.43 1176.74 1509.16 1179.48 1505.4 1183.15 z" fill="rgb(168,106,77)" transform="translate(0,0)"></path>
<path d="M 1298.64 1050.48 C 1302.77 1053.01 1303.79 1054.11 1307.14 1057.65 C 1301.67 1056.33 1300.01 1056.44 1298.64 1050.48 z" fill="rgb(185,124,90)" transform="translate(0,0)"></path>
<path d="M 695.328 1418.04 C 699.42 1421.1 701.092 1423.2 700.536 1428.51 C 697.507 1423.84 697.319 1423.19 695.328 1418.04 z" fill="rgb(185,124,90)" transform="translate(0,0)"></path>
<path d="M 1483.6 949.372 C 1485.2 947.275 1486.68 946.559 1488.88 945.045 C 1486.83 950.32 1483.93 952.52 1479.18 955.802 C 1481.26 953.297 1482.74 952.489 1483.6 949.372 z" fill="rgb(185,124,90)" transform="translate(0,0)"></path>
<path d="M 1301.16 1711.9 C 1304.9 1706.46 1303.83 1706.86 1310.17 1705.38 C 1306.78 1708.87 1305.7 1709.54 1301.16 1711.9 z" fill="rgb(185,124,90)" transform="translate(0,0)"></path>
<path d="M 940.925 442.634 C 919.189 422.951 921.211 401.045 920.671 373.968 C 921.242 348.659 909.371 316.335 927.454 295.195 C 952.581 265.822 1009.42 272.662 1017.75 313.175 C 1020.73 327.707 1021.21 349.826 1022.34 365.406 C 1022.78 366.07 1022.69 366.172 1022.8 367.012 C 1023.42 374.787 1023.93 382.571 1024.32 390.361 C 1024.78 391.056 1024.68 391.224 1024.73 392.103 C 1025.81 412.446 1024.64 426.513 1008.94 441.594 C 1008.66 442.171 1008.45 442.14 1007.8 442.449 L 1000.96 446.407 C 999.374 448.281 999.512 448.114 997.125 448.99 C 995.95 449.438 994.763 449.856 993.568 450.245 C 975.135 456.4 963.426 455.026 946.209 446.403 C 945.507 446.179 945.285 446.244 944.837 445.714 C 943.417 444.777 941.892 444.067 940.925 442.634 z" fill="rgb(243,187,153)" transform="translate(0,0)"></path>
<path d="M 940.925 442.634 C 919.189 422.951 921.211 401.045 920.671 373.968 C 921.242 348.659 909.371 316.335 927.454 295.195 C 952.581 265.822 1009.42 272.662 1017.75 313.175 C 1020.73 327.707 1021.21 349.826 1022.34 365.406 C 1022.78 366.07 1022.69 366.172 1022.8 367.012 C 1023.42 374.787 1023.93 382.571 1024.32 390.361 C 1024.78 391.056 1024.68 391.224 1024.73 392.103 C 1025.81 412.446 1024.64 426.513 1008.94 441.594 C 1008.66 442.171 1008.45 442.14 1007.8 442.449 L 1000.96 446.407 L 1000.75 444.707 C 1026.15 430.104 1024.88 400.845 1021.49 375.639 C 1019 357.143 1020.02 316.015 1010.87 301.095 C 1004.23 290.178 993.337 282.522 980.816 279.968 C 966.336 276.983 950.284 280.303 938.01 288.543 C 928.75 294.76 921.472 304.134 919.663 315.325 C 918.381 323.258 923.536 405.246 925.453 414.429 C 926.814 420.953 929.308 426.894 933.333 432.236 C 941.758 443.239 954.336 450.292 968.118 451.741 C 979.063 452.951 987.236 450.979 997.178 446.859 L 997.125 448.99 C 995.95 449.438 994.763 449.856 993.568 450.245 C 975.135 456.4 963.426 455.026 946.209 446.403 C 945.507 446.179 945.285 446.244 944.837 445.714 C 943.417 444.777 941.892 444.067 940.925 442.634 z" fill="rgb(95,63,49)" transform="translate(0,0)"></path>
<path d="M 997.178 446.859 C 998.36 446.128 999.55 445.41 1000.75 444.707 L 1000.96 446.407 C 999.374 448.281 999.512 448.114 997.125 448.99 L 997.178 446.859 z" fill="rgb(168,106,77)" transform="translate(0,0)"></path>
<path d="M 959.659 292.227 C 980.069 290.353 992.379 295.173 1002.26 313.419 C 995.261 308.7 991.146 304.127 983.535 300.204 C 972.105 295.821 959.845 295.088 948.185 299.367 C 945.038 300.523 942.631 302.661 939.655 304.026 C 937.697 303.22 938.803 301.421 939.78 300.262 C 944.425 294.755 953.042 293.355 959.659 292.227 z" fill="rgb(255,255,255)" transform="translate(0,0)"></path>
<path d="M 1227.92 321.578 C 1232.95 320.655 1233.97 320.642 1238.99 321.619 C 1253.45 324.749 1265.49 329.396 1274.18 342.524 C 1278.64 349.353 1281.28 357.212 1281.83 365.349 C 1283.15 385.12 1271.91 430.581 1269.82 452.099 C 1266.74 483.738 1224.79 494.143 1197.24 477.45 C 1196.23 477.133 1196.58 477.45 1196.23 476.589 C 1185.9 470.346 1173.11 449.851 1174.79 437.812 C 1179.08 407.174 1182.43 371.76 1193.34 342.874 C 1197.64 331.484 1216.76 324.037 1227.92 321.578 z" fill="rgb(95,63,49)" transform="translate(0,0)"></path>
<path d="M 1227.92 321.578 C 1232.95 320.655 1233.97 320.642 1238.99 321.619 C 1234.28 321.915 1232.58 321.909 1227.92 321.578 z" fill="rgb(168,106,77)" transform="translate(0,0)"></path>
<path d="M 1231.77 323.386 C 1242.49 322.841 1256.4 327.01 1264.47 334.035 C 1290.53 356.937 1276.37 390.71 1272.77 419.353 C 1268.59 452.5 1268.9 480.607 1227.15 484.188 C 1176.84 483.367 1171.36 439.496 1182.02 399.863 C 1191.26 365.532 1182.55 328.645 1231.77 323.386 z" fill="rgb(243,187,153)" transform="translate(0,0)"></path>
<path d="M 1225.46 337.188 C 1234.59 336.545 1261.41 336.241 1264.66 352.545 C 1265.34 355.951 1256.55 348.216 1254.86 347.287 L 1253.37 346.436 C 1234.33 337.53 1226.76 341.17 1208.01 347.755 C 1215.09 341.448 1216.07 340.041 1225.46 337.188 z" fill="rgb(255,255,255)" transform="translate(0,0)"></path>
<path d="M 700.667 509.022 C 691.996 493.9 680.327 441.275 675.102 421.877 C 672.188 411.057 674.643 398.817 681.648 389.385 C 689.806 378.591 702.037 371.621 715.481 370.103 C 752.654 366.111 766.422 392.269 772.756 423.307 C 777.366 445.894 798.236 484.217 780.467 504.039 C 780.544 507.752 772.524 515.026 769.803 517.483 C 769.61 518.12 769.417 518.102 768.8 518.512 C 766.891 519.272 765.14 519.997 763.184 520.633 C 760.053 527.184 739.483 527.855 732.992 527.174 C 723.265 526.155 719.516 522.948 711.237 520.026 L 707.834 517.036 L 701.558 510.145 C 700.995 509.637 701.029 509.679 700.667 509.022 z" fill="rgb(243,187,153)" transform="translate(0,0)"></path>
<path d="M 700.667 509.022 C 691.996 493.9 680.327 441.275 675.102 421.877 C 672.188 411.057 674.643 398.817 681.648 389.385 C 689.806 378.591 702.037 371.621 715.481 370.103 C 752.654 366.111 766.422 392.269 772.756 423.307 C 777.366 445.894 798.236 484.217 780.467 504.039 C 794.519 468.154 772.863 444.856 767.11 410.635 C 759.211 363.649 697.382 357.967 678.204 399.064 C 669.527 417.516 686.394 450.361 689.827 469.687 C 693.601 487.987 697.615 503.494 710.595 517.395 L 707.834 517.036 L 701.558 510.145 C 700.995 509.637 701.029 509.679 700.667 509.022 z" fill="rgb(95,63,49)" transform="translate(0,0)"></path>
<path d="M 710.595 517.395 C 712.893 518.021 714.037 518.801 716.109 519.947 C 726.012 525.425 738.412 527.223 749.486 524.938 C 756.029 523.809 759.249 521.344 763.184 520.633 C 760.053 527.184 739.483 527.855 732.992 527.174 C 723.265 526.155 719.516 522.948 711.237 520.026 L 707.834 517.036 L 710.595 517.395 z" fill="rgb(95,63,49)" transform="translate(0,0)"></path>
<path d="M 763.184 520.633 C 764.728 519.325 782.081 503.218 780.467 504.039 C 780.544 507.752 772.524 515.026 769.803 517.483 C 769.61 518.12 769.417 518.102 768.8 518.512 C 766.891 519.272 765.14 519.997 763.184 520.633 z" fill="rgb(95,63,49)" transform="translate(0,0)"></path>
<path d="M 711.78 384.111 C 731.754 382.882 739.466 383.577 750.851 400.475 C 743.232 396.281 739.231 393.128 731.058 389.709 C 720.088 388.296 708.045 388.08 699.002 395.485 C 697.635 396.605 695.15 399.343 693.586 396.904 C 694.56 390.202 706.03 385.535 711.78 384.111 z" fill="rgb(255,255,255)" transform="translate(0,0)"></path>
<path d="M 481.661 619.404 C 490.963 609.982 501.041 602.642 515.091 602.744 C 523.927 602.885 532.345 606.528 538.497 612.872 C 540.424 614.875 542.75 617.825 544.52 620.017 C 545.133 620.321 545.088 620.512 545.409 621.197 L 548.528 626.056 C 549.138 626.337 549.096 626.531 549.423 627.201 C 559.821 643.825 575.829 665.972 582.925 683.278 C 592.661 707.022 569.356 730.727 545.756 732.501 C 544.159 733.18 542.913 733.184 541.357 732.447 C 532.483 731.557 529.588 729.842 522.171 725.459 C 521.507 725.134 521.318 725.184 520.971 724.586 L 515.533 719.117 C 514.834 718.613 514.833 718.702 514.672 717.906 C 510.485 711.944 506.474 705.359 502.562 699.167 C 501.995 698.607 502 698.621 501.619 697.926 L 500.224 694.7 C 499.289 693.799 499.045 693.689 498.428 692.572 C 497.732 691.545 497.271 690.998 496.788 689.92 L 483.59 668.19 C 483.059 667.631 483.069 667.656 482.732 666.967 L 478.569 660.186 C 478.083 659.606 478.077 659.603 477.767 658.917 C 470.938 644.888 471.787 634.331 480.618 621.099 C 481.005 620.212 480.976 620.047 481.661 619.404 z" fill="rgb(74,48,38)" transform="translate(0,0)"></path>
<path d="M 483.377 620.874 C 495.061 605.726 519.657 598.134 534.536 611.847 C 550.043 626.139 559.76 650.196 572.267 667.104 C 582.132 680.44 586.874 694.011 578.851 709.56 C 568.115 731.565 536.773 738.257 519.324 720.238 C 508.022 708.228 500.424 690.98 491.444 677.126 C 478.815 658.031 467.008 644.082 482.392 621.621 L 483.377 620.874 z" fill="rgb(243,187,153)" transform="translate(0,0)"></path>
<path d="M 541.357 732.447 C 543.622 731.896 543.444 731.916 545.756 732.501 C 544.159 733.18 542.913 733.184 541.357 732.447 z" fill="rgb(168,106,77)" transform="translate(0,0)"></path>
<path d="M 481.661 619.404 L 483.377 620.874 L 482.392 621.621 L 480.618 621.099 C 481.005 620.212 480.976 620.047 481.661 619.404 z" fill="rgb(168,106,77)" transform="translate(0,0)"></path>
<path d="M 1259.7 1068.53 C 1261.52 1068.27 1276.6 1068.07 1278.18 1068.36 L 1277.36 1069.2 L 1278.18 1068.53 C 1272.99 1071.01 1247.14 1076.35 1238.76 1078.74 C 1201.52 1089.52 1166.52 1106.92 1135.44 1130.1 C 1055.06 1190.68 1008.2 1276.89 994.315 1375.99 C 994.089 1379.66 993.666 1392.25 991.658 1394.49 C 991.173 1391.44 991.071 1389.71 990.87 1386.69 C 985.21 1301.72 1014.25 1217.7 1072.29 1154.6 C 1120.98 1102.33 1188.33 1071.4 1259.7 1068.53 z" fill="rgb(74,48,38)" transform="translate(0,0)"></path>
<path d="M 1155.98 1095.6 C 1192.47 1078.91 1224.52 1072.01 1264.21 1069.44 C 1255.62 1073.07 1244.97 1075.15 1235.87 1077.63 C 1225.5 1080.53 1215.32 1084.1 1205.4 1088.3 C 1122.7 1123.7 1056.68 1189.41 1020.9 1271.96 C 1012.39 1291.91 1005.45 1312.49 1000.16 1333.53 C 998.262 1341.32 995.08 1358.93 992.856 1365.51 C 988.491 1310.21 1013.29 1239.94 1043.63 1193.89 C 1043.9 1193.2 1043.94 1193.27 1044.5 1192.57 C 1044.95 1191.82 1045.57 1190.57 1046.27 1189.99 L 1050.43 1184.1 C 1050.82 1183.4 1050.68 1183.51 1051.26 1182.99 L 1057.44 1175.09 C 1057.82 1174.46 1057.77 1174.4 1058.32 1174.01 L 1061.63 1169.81 C 1062.31 1168.58 1062.23 1168.72 1063.34 1167.77 L 1065.15 1165.41 C 1066.58 1163.58 1067.34 1162.36 1069.18 1160.96 C 1090.96 1134.3 1124.13 1111.5 1154.65 1096.22 C 1155.39 1095.77 1155.2 1095.86 1155.98 1095.6 z" fill="rgb(168,106,77)" transform="translate(0,0)"></path>
<path d="M 1069.18 1160.96 C 1068.85 1163.46 1067.19 1163.83 1065.15 1165.41 C 1066.58 1163.58 1067.34 1162.36 1069.18 1160.96 z" fill="rgb(134,88,68)" transform="translate(0,0)"></path>
<path d="M 710.78 994.161 C 712.922 995.974 716.135 999.868 717.998 1002.11 C 714.996 1004.43 712.01 1006.76 709.062 1009.15 C 704.552 1012.8 700.1 1016.51 695.706 1020.3 C 692.332 1018.59 691.004 1015.92 688.51 1012.81 C 695.792 1006.43 703.218 1000.21 710.78 994.161 z" fill="rgb(27,23,22)" transform="translate(0,0)"></path>
<path d="M 1235.21 941.431 C 1243.22 945.287 1253.83 951.543 1261.96 955.824 C 1260.05 958.844 1258.47 961.307 1256.49 964.282 C 1248.31 959.22 1238.81 954.721 1230.3 950.074 C 1231.96 947.196 1233.44 944.245 1235.21 941.431 z" fill="rgb(27,23,22)" transform="translate(0,0)"></path>
<path d="M 1415.73 1107.8 C 1416.02 1108 1416.67 1108.4 1416.98 1108.71 C 1418.87 1110.63 1430.88 1132.52 1430.6 1134.3 C 1430.44 1135.28 1425.18 1137.67 1424.27 1138.16 C 1419.95 1137.76 1411.26 1118.16 1408.81 1113.48 C 1410.87 1111.51 1413.47 1109.59 1415.73 1107.8 z" fill="rgb(27,23,22)" transform="translate(0,0)"></path>
<path d="M 779.477 948.01 C 782.402 951.126 782.752 953.062 784.538 956.845 C 776.116 961.545 767.746 966.339 759.43 971.226 C 757.883 968.509 756.478 965.345 754.953 962.473 C 763.539 957.016 771.393 953.033 779.477 948.01 z" fill="rgb(27,23,22)" transform="translate(0,0)"></path>
<path d="M 1436.03 1145.87 C 1440.48 1146.87 1445.41 1163.47 1448.21 1167.45 C 1451.65 1172.33 1446.66 1172.76 1442.42 1174.35 C 1438.87 1174.93 1433.5 1159.95 1431.39 1156.42 C 1426.62 1148.48 1429.12 1149.04 1436.03 1145.87 z" fill="rgb(27,23,22)" transform="translate(0,0)"></path>
<path d="M 1197.17 924.276 C 1206.09 927.601 1216.35 932.484 1225.06 936.572 C 1223.89 939.085 1222.13 941.904 1220.76 944.406 C 1219.39 944.545 1219.43 944.497 1218.06 943.892 L 1197.48 934.865 C 1196.1 934.268 1194.78 933.71 1193.4 933.095 C 1194.69 929.851 1195.81 928.079 1197.17 924.276 z" fill="rgb(27,23,22)" transform="translate(0,0)"></path>
<path d="M 680.488 1020.79 C 682.988 1023.12 685.416 1025.66 687.794 1028.12 C 681.293 1034.33 673.481 1042.18 666.754 1047.76 C 663.76 1045.6 662.19 1044.53 659.402 1042.03 L 680.488 1020.79 z" fill="rgb(27,23,22)" transform="translate(0,0)"></path>
<path d="M 854.818 914.149 C 856.913 916.106 858.452 920.066 859.837 922.76 C 850.586 925.945 841.598 929.396 832.286 932.58 C 830.244 930.126 829.328 927.006 828.109 924.094 C 836.226 920.905 844.007 918.276 851.994 915.219 C 852.931 914.852 853.872 914.495 854.818 914.149 z" fill="rgb(27,23,22)" transform="translate(0,0)"></path>
<path d="M 991.717 886.499 C 994.331 886.384 1018.1 884.985 1020.95 886.558 C 1021.33 886.77 1022.58 893.751 1019.68 895.533 C 1011.34 895.464 1000.37 896.142 992.065 895.462 C 990.865 895.364 991.668 887.253 991.717 886.499 z" fill="rgb(27,23,22)" transform="translate(0,0)"></path>
<path d="M 743.395 970.785 C 746.483 971.336 748.609 975.95 750.192 978.469 C 742.664 983.615 735.08 988.676 727.441 993.654 C 724.462 993.878 722.415 989.115 720.745 986.77 C 728.186 981.543 736.274 976.242 743.395 970.785 z" fill="rgb(27,23,22)" transform="translate(0,0)"></path>
<path d="M 1117.69 898.371 C 1125.81 900.246 1137.11 902.681 1144.55 906.384 C 1145.31 906.758 1143.56 914.663 1143.43 915.525 C 1134.03 912.524 1124.63 910.177 1115.07 907.826 C 1115.6 904.932 1116.83 901.249 1117.69 898.371 z" fill="rgb(27,23,22)" transform="translate(0,0)"></path>
<path d="M 1076.12 889.81 C 1082.62 891.474 1089.89 892.404 1096.53 893.77 C 1107.04 895.932 1105.54 894.943 1103.45 904.763 C 1100.03 903.927 1075.98 899.877 1075.32 899.45 C 1074.19 897.317 1075.66 892.188 1076.12 889.81 z" fill="rgb(27,23,22)" transform="translate(0,0)"></path>
<path d="M 814.803 929.948 C 818.005 930.171 819.374 934.975 821.176 938.077 C 812.844 941.986 804.187 945.813 796.032 950.109 C 793.761 948.852 791.921 944.773 790.362 942.463 C 798.893 937.82 806.404 934.298 814.803 929.948 z" fill="rgb(27,23,22)" transform="translate(0,0)"></path>
<path d="M 1034.04 886.854 C 1037.94 886.969 1058.2 887.025 1062.47 888.618 C 1063.45 888.983 1062.77 896.308 1062.68 898.001 C 1058.29 897.781 1039.2 896.703 1034.41 895.682 C 1033.43 895.473 1034 888.424 1034.04 886.854 z" fill="rgb(27,23,22)" transform="translate(0,0)"></path>
<path d="M 891.894 902.126 C 895.274 901.429 895.096 901.083 896.431 904.402 C 899.172 911.215 898.153 909.967 891.021 912.34 C 886.409 913.875 878.137 916.681 873.234 918.287 C 869.234 919.724 868.97 913.58 867.819 910.089 C 875.636 907.272 883.872 904.286 891.894 902.126 z" fill="rgb(27,23,22)" transform="translate(0,0)"></path>
<path d="M 1157.92 909.55 C 1164.87 912.528 1177.73 915.489 1184.2 919.366 C 1185 919.85 1182.65 927.269 1182.36 928.2 L 1180.92 927.726 C 1172.46 925.003 1162.63 921.355 1154.18 918.301 C 1155.38 915.382 1156.69 912.463 1157.92 909.55 z" fill="rgb(27,23,22)" transform="translate(0,0)"></path>
<path d="M 935.737 892.403 C 937.779 893.607 938.201 899.011 938.86 901.405 C 935.074 902.267 931.29 903.058 927.487 903.832 C 922.375 904.844 917.288 905.981 912.231 907.241 C 909.911 905.914 906.641 898.468 912.454 897.125 L 916.519 896.208 L 921.025 895.226 C 926.027 894.177 930.68 893.195 935.737 892.403 z" fill="rgb(27,23,22)" transform="translate(0,0)"></path>
<path d="M 977.019 887.463 C 979.843 887.813 981.727 896.756 976.041 896.972 C 968.403 897.261 959.696 898.795 951.835 899.418 C 950.629 898.645 947.007 890.511 952.439 889.967 L 977.019 887.463 z" fill="rgb(27,23,22)" transform="translate(0,0)"></path>
<path d="M 1453.07 1184.05 C 1456.48 1184.93 1461.93 1206 1464.08 1210.04 C 1465.64 1212.98 1459.12 1213.45 1457.26 1213.88 C 1453.4 1212.26 1448.86 1192.84 1446.42 1188.62 C 1444.49 1185.28 1450.56 1184.69 1453.07 1184.05 z" fill="rgb(27,23,22)" transform="translate(0,0)"></path>
<path d="M 1392 1073.87 C 1393.72 1075.55 1395.19 1077.42 1396.64 1079.33 C 1398.5 1081.78 1410.21 1096.73 1409.56 1098.64 C 1409.1 1100 1404.51 1101.61 1403.41 1102.15 C 1402.97 1102.44 1402.69 1102.72 1402.19 1102.83 C 1401.94 1102.89 1401.59 1102.74 1401.39 1102.6 C 1400.35 1101.82 1386.4 1080.16 1386.38 1079.53 C 1386.34 1077.95 1390.93 1074.79 1392 1073.87 z" fill="rgb(27,23,22)" transform="translate(0,0)"></path>
<path d="M 1474.26 1391.11 C 1477.84 1391.45 1480.77 1391.72 1484.39 1391.9 C 1483.72 1402.13 1482.54 1412.08 1481.46 1422.27 C 1479 1421.9 1471.85 1421.12 1471.76 1420.36 C 1471.44 1417.66 1474.1 1393.79 1474.26 1391.11 z" fill="rgb(27,23,22)" transform="translate(0,0)"></path>
<path d="M 543.607 1277.53 C 545.052 1277.66 552.22 1277.98 553.029 1278.69 C 553.575 1281.14 549.415 1303.91 548.526 1308.07 C 538.653 1307.85 538.418 1309.77 539.866 1299.99 C 540.97 1292.53 542.526 1284.96 543.607 1277.53 z" fill="rgb(27,23,22)" transform="translate(0,0)"></path>
<path d="M 553.632 1235.68 C 557.089 1236.45 559.826 1236.74 563.204 1237.34 C 560.931 1246.88 558.598 1256.9 555.788 1266.3 C 543.769 1264.85 545.996 1265.51 548.638 1253.98 C 550.057 1247.79 551.529 1241.69 553.632 1235.68 z" fill="rgb(27,23,22)" transform="translate(0,0)"></path>
<path d="M 565.805 1194.88 C 568.953 1196.17 572.122 1197.37 575.276 1198.66 C 572.178 1208.1 569.047 1218.08 565.485 1227.34 C 562.51 1225.65 559.611 1224.63 556.495 1223.22 C 559.512 1214.72 563.45 1203.46 565.805 1194.88 z" fill="rgb(27,23,22)" transform="translate(0,0)"></path>
<path d="M 602.255 1118.43 C 605.36 1119.55 607.938 1120.83 610.822 1122.4 C 606.456 1130.44 602.269 1139.72 597.63 1147.44 L 596.714 1149.02 C 593.437 1147.79 591.091 1147.06 587.781 1145.59 C 592.301 1136.38 597.128 1127.32 602.255 1118.43 z" fill="rgb(27,23,22)" transform="translate(0,0)"></path>
<path d="M 1469.29 1432.71 C 1470.42 1432.81 1478.84 1433.32 1478.81 1434.63 C 1478.65 1442.96 1476.17 1455.46 1474.29 1463.6 C 1471 1462.85 1467.67 1462.18 1464.36 1461.42 C 1466.42 1451.65 1468.33 1442.76 1469.29 1432.71 z" fill="rgb(27,23,22)" transform="translate(0,0)"></path>
<path d="M 582.425 1155.39 C 585.355 1156.74 588.503 1158.01 591.343 1159.43 C 587.437 1168.21 583.164 1178.06 579.895 1187.15 C 576.78 1185.81 573.5 1185.09 570.214 1184.3 C 574.125 1174.63 578.53 1165.05 582.425 1155.39 z" fill="rgb(27,23,22)" transform="translate(0,0)"></path>
<path d="M 624.623 1082.96 C 627.066 1084.1 628.43 1084.82 630.701 1086.35 L 632.058 1087.28 L 633.446 1088.21 C 627.684 1096.39 622.688 1104.29 617.373 1112.77 C 614.08 1110.81 612.08 1109.59 608.998 1107.23 C 609.322 1106.71 609.645 1106.19 609.969 1105.67 C 614.711 1098.01 619.597 1090.43 624.623 1082.96 z" fill="rgb(27,23,22)" transform="translate(0,0)"></path>
<path d="M 537.051 1404.16 C 539.204 1404.09 541.356 1404.01 543.508 1403.91 C 544.255 1403.88 546.572 1403.85 546.628 1404.4 C 547.114 1409.2 549.501 1430.82 548.745 1433.74 C 538.118 1435.6 540.263 1436.09 538.911 1424.51 C 538.122 1417.76 537.496 1410.96 537.051 1404.16 z" fill="rgb(27,23,22)" transform="translate(0,0)"></path>
<path d="M 550.014 1445.61 C 552.504 1447.87 556.081 1469.63 555.719 1473.7 C 555.626 1474.76 548.973 1475.5 547.912 1475.68 C 545.264 1474.46 544.722 1465.52 544.217 1462.49 L 543.176 1456.49 C 541.318 1445.77 539.964 1446.8 550.014 1445.61 z" fill="rgb(27,23,22)" transform="translate(0,0)"></path>
<path d="M 1473.49 1307.33 C 1475.38 1307.22 1482.4 1306.61 1482.78 1307.48 C 1484.37 1311.1 1485.06 1334.02 1485.15 1336.98 C 1481.02 1337.21 1476.18 1339.21 1475.87 1334.56 C 1475.3 1325.46 1474.5 1316.38 1473.49 1307.33 z" fill="rgb(27,23,22)" transform="translate(0,0)"></path>
<path d="M 1469.43 1266.19 C 1470.73 1266.14 1472.03 1266.08 1473.33 1266 C 1473.73 1265.97 1477.27 1265.58 1477.45 1265.96 C 1479.44 1270.2 1482.45 1292.37 1480.62 1294.98 C 1479.52 1294.99 1478.43 1295.01 1477.34 1295.04 C 1476.16 1295.07 1473.73 1295.49 1472.57 1294.8 C 1471.49 1294.15 1469.43 1275.57 1469.09 1272.99 C 1469.02 1272.49 1468.98 1271.98 1468.91 1271.49 C 1468.6 1269.18 1468.32 1268.25 1469.43 1266.19 z" fill="rgb(27,23,22)" transform="translate(0,0)"></path>
<path d="M 538.1 1319.04 C 549.918 1319.54 546.974 1319.19 546.403 1332.01 C 546.147 1337.77 545.527 1343.67 545.062 1349.43 C 544.097 1349.51 536.663 1350.43 536.581 1349.29 C 536.013 1341.39 537.098 1326.39 538.1 1319.04 z" fill="rgb(27,23,22)" transform="translate(0,0)"></path>
<path d="M 1305.9 986.444 C 1306.33 986.64 1306.77 986.822 1307.18 987.048 C 1310.01 988.581 1327.84 1002.69 1327.95 1004.92 C 1327.99 1005.7 1327.05 1006.67 1326.57 1007.17 L 1323.57 1010.27 C 1322.63 1010.79 1321.59 1011.3 1320.53 1010.44 C 1314.46 1005.47 1306.7 1000.4 1301.67 994.486 C 1301.1 993.814 1305.46 987.158 1305.9 986.444 z" fill="rgb(27,23,22)" transform="translate(0,0)"></path>
<path d="M 535.979 1362.04 C 544.244 1362.35 545.242 1360.45 545.106 1368.69 C 544.987 1375.85 545.195 1383.92 545.803 1391.08 C 533.858 1393.09 536.472 1392.22 535.741 1379.5 C 535.419 1373.89 535.808 1367.66 535.979 1362.04 z" fill="rgb(27,23,22)" transform="translate(0,0)"></path>
<path d="M 1476.29 1348.88 C 1478.02 1348.87 1484.44 1348.53 1484.64 1349.48 C 1485.73 1354.71 1485.04 1374.01 1485 1379.1 C 1483.17 1379.07 1477.81 1379.73 1476.3 1378.51 C 1474.62 1377.15 1476.23 1352.44 1476.29 1348.88 z" fill="rgb(27,23,22)" transform="translate(0,0)"></path>
<path d="M 1337.3 1013.76 C 1341.7 1015.49 1354.62 1028.46 1356.96 1033.43 C 1357.49 1034.55 1352.3 1038.5 1351.43 1039.2 C 1344.88 1032.42 1337.87 1026.11 1330.45 1020.3 C 1332.7 1018.09 1334.99 1015.91 1337.3 1013.76 z" fill="rgb(27,23,22)" transform="translate(0,0)"></path>
<metadata><recraft-signature>{"signed_by": "recraft", "signature_b64": "QJ0VvOm9TNYkpTg73qZpZ8WyUht8xDtD7Z7ltOXbjXSjD7iMsDP3vhyTemVHeY4RI1HCAktFk2ucZHnagLN4AQ==", "signing_algo": "Ed25519", "generation_timestamp": 1779010795, "identifier": "1fa8a2d8-b98a-402f-bec4-1f53fad19778"}</recraft-signature></metadata></svg>