<svg xmlns="http://www.w3.org/2000/svg" height="1024" preserveAspectRatio="none" style="display: block;" version="1.1" viewBox="0 0 2048 2048" width="1024">
<path d="M 0 0 L 2048 0 L 2048 2048 L 1374.41 2048 L 1340.05 2048 L 780.721 2048 L 745.092 2048 L 0 2048 L 0 0 z" fill="rgb(254,254,254)" transform="translate(0,0)"></path>
<path d="M 585.788 1327.34 C 508.497 1249.85 427.862 1174.6 349.73 1097.87 C 313.438 1062.23 318.051 1039.53 318.157 992.351 L 318.402 899.268 L 318.26 553.61 C 317.901 462.802 317.492 472.302 382.488 408.626 L 432.442 359.006 L 694.852 97.4611 C 725.392 66.7195 747.087 59.1384 789.006 59.0291 L 1119.03 59.0688 L 1227.38 58.9693 C 1319.29 58.8922 1310.58 57.57 1376.22 122.418 L 1461.77 207.225 L 1695.91 438.216 C 1700.69 442.971 1707.13 449.01 1711.13 454.257 C 1731.86 481.461 1728.47 521.2 1728.69 553.004 L 1728.87 655.495 L 1729.1 1002.59 C 1729.14 1024.43 1730.78 1045.82 1721.24 1066.15 C 1709.34 1091.48 1659.81 1135.7 1638.29 1157.07 L 1510.61 1282.81 C 1502 1291.19 1491.74 1301.15 1483.58 1309.9 C 1469.85 1322.38 1456.46 1336.58 1443.15 1349.66 C 1419.24 1372.87 1395.47 1396.23 1371.85 1419.75 C 1357.26 1434.26 1342.72 1449.24 1327.44 1463.01 C 1315.85 1473.45 1301.61 1478.23 1286.43 1480.65 C 1276.96 1481.45 1259.27 1481.04 1249.19 1481.11 L 1087.51 1481.06 L 1035.35 1481.1 C 1015.84 1480.28 991.528 1480.99 971.681 1480.9 C 907.28 1480.75 842.88 1481.01 778.478 1480.73 C 765.781 1480.67 747.114 1477.56 735.716 1471.47 C 725.016 1465.07 715.342 1455.74 706.637 1446.93 C 675.023 1414.91 641.71 1384.12 610.653 1351.61 C 603.741 1343.88 593.471 1334.64 585.788 1327.34 z" fill="rgb(242,0,34)" transform="translate(0,0)"></path>
<path d="M 773.546 149.054 C 793.512 149.677 815.54 149.184 835.679 149.174 L 951.813 149.128 L 1276.32 149.063 C 1288.55 159.116 1304.48 175.418 1316.13 186.859 L 1392.5 262.81 L 1641.1 509.712 L 1640.81 1028.59 C 1612.79 1058.56 1577.44 1092.02 1548.09 1121.28 C 1494.9 1174.34 1441.29 1228.31 1387.49 1280.62 C 1364.62 1303 1341.98 1325.6 1319.56 1348.43 C 1306.01 1362.01 1290.57 1378.28 1275.92 1390.14 C 1239.61 1390.88 1201.35 1390.44 1164.91 1390.54 L 926.176 1390.49 C 878.963 1390.37 821.572 1388.8 774.812 1390.73 C 762.882 1380.69 741.88 1358.56 730.152 1346.84 L 647.257 1264.04 L 410.368 1029.2 C 410.18 987.365 410.324 945.533 410.803 903.704 C 411.051 773.558 412.454 639.332 410.165 509.486 C 420.205 496.523 442.244 476.641 454.836 464.206 L 547.93 372.439 L 691.773 229.723 L 741.885 179.709 C 751.591 170.036 763.254 157.772 773.546 149.054 z" fill="rgb(254,254,254)" transform="translate(0,0)"></path>
<path d="M 791.06 188.891 C 808.206 189.712 829.607 189.158 847.158 189.176 L 955.379 189.13 L 1260.69 189.039 C 1268.63 198.889 1287.32 216.218 1296.96 225.744 L 1359.38 287.911 L 1521.49 449.046 C 1547.44 474.515 1573.18 500.21 1598.69 526.127 C 1600.12 579.756 1598.88 638.525 1598.86 692.636 L 1598.98 1012.24 C 1595.9 1016.4 1592.67 1019.7 1589.04 1023.37 C 1568.29 1044.34 1546.72 1064.5 1525.83 1085.33 L 1352.13 1258.71 C 1341.18 1269.55 1265.55 1346.88 1260.22 1349.38 L 948.982 1349.84 L 845.42 1349.9 C 829.624 1349.9 805.175 1350.65 790.047 1349.48 L 594.816 1155.19 C 547.182 1107.23 499.223 1059.59 450.945 1012.28 L 450.79 690.596 C 450.797 635.85 450.291 580.194 451.001 525.503 C 474.778 504.479 502.637 474.328 526.002 451.528 L 680.817 298.395 C 716.383 262.75 754.611 223.379 791.06 188.891 z" fill="rgb(242,0,34)" transform="translate(0,0)"></path>
<path d="M 1483.58 1309.9 C 1491.74 1301.15 1502 1291.19 1510.61 1282.81 C 1571.4 1326.02 1588.51 1367.8 1579.65 1440.57 C 1562.36 1582.37 1553.07 1739.5 1471.27 1861.81 C 1448.77 1895.42 1409.07 1926.29 1373.91 1945.99 C 1373.78 1979.99 1373.95 2014 1374.41 2048 L 1340.05 2048 L 780.721 2048 L 780.857 1971.45 C 781.199 1868.69 776.281 1867.47 726.923 1780.29 L 659.52 1660.24 C 628.346 1603.82 583.671 1526.9 574.209 1462.55 C 567.741 1418.55 584.597 1384.99 610.653 1351.61 C 641.71 1384.12 675.023 1414.91 706.637 1446.93 C 715.342 1455.74 725.016 1465.07 735.716 1471.47 C 747.114 1477.56 765.781 1480.67 778.478 1480.73 C 842.88 1481.01 907.28 1480.75 971.681 1480.9 C 991.528 1480.99 1015.84 1480.28 1035.35 1481.1 L 1087.51 1481.06 L 1249.19 1481.11 C 1259.27 1481.04 1276.96 1481.45 1286.43 1480.65 C 1301.61 1478.23 1315.85 1473.45 1327.44 1463.01 C 1342.72 1449.24 1357.26 1434.26 1371.85 1419.75 C 1395.47 1396.23 1419.24 1372.87 1443.15 1349.66 C 1456.46 1336.58 1469.85 1322.38 1483.58 1309.9 z" fill="rgb(201,148,119)" transform="translate(0,0)"></path>
<path d="M 1483.58 1309.9 C 1491.74 1301.15 1502 1291.19 1510.61 1282.81 C 1571.4 1326.02 1588.51 1367.8 1579.65 1440.57 C 1562.36 1582.37 1553.07 1739.5 1471.27 1861.81 C 1448.77 1895.42 1409.07 1926.29 1373.91 1945.99 C 1373.78 1979.99 1373.95 2014 1374.41 2048 L 1340.05 2048 C 1340.01 2018.67 1340.69 1989.38 1340.51 1960.04 C 1292.9 1980.4 1233.46 1980.67 1182.4 1977.9 C 1172.27 1977.36 1152.84 1976.21 1143.44 1973.86 C 1135.81 1967.16 1132.08 1961.13 1135.9 1950.81 C 1137.56 1946.34 1143.44 1940.35 1148.51 1940.4 C 1162.56 1940.52 1176.73 1943.16 1190.81 1943.75 C 1237.8 1946.42 1291.12 1944.68 1334.97 1926.61 C 1400.81 1899.48 1447.51 1848.98 1475 1784.25 C 1488.27 1752.89 1499.07 1720.53 1507.28 1687.48 C 1522.16 1628.11 1529.57 1569.79 1537.45 1509.24 C 1541.88 1475.17 1547.21 1437.07 1548.04 1402.69 C 1548.3 1391.53 1544.61 1377.14 1540.38 1366.81 C 1529.73 1341.06 1509.3 1320.6 1483.58 1309.9 z" fill="rgb(150,93,63)" transform="translate(0,0)"></path>
<path d="M 1286.43 1480.65 C 1284.05 1485.89 1261.03 1527.62 1260.85 1527.22 C 1294.04 1604.56 1404.72 1581.1 1425.76 1505.26 C 1433.29 1478.12 1431 1462.18 1437.35 1436.25 C 1439.36 1428.01 1450.33 1423.34 1457.38 1424.92 C 1480.65 1428.95 1465.01 1484.65 1461.99 1502.59 C 1471.47 1497.09 1479.08 1489.86 1488.26 1484.17 C 1500.46 1475.6 1518.19 1494.62 1511.01 1505.98 C 1498.32 1526.07 1460.37 1542.45 1439.64 1551.04 C 1402.01 1613.37 1317.26 1628.41 1258.92 1583.28 C 1246.74 1573.87 1238.76 1560.74 1231.31 1547.46 C 1229.45 1548.42 1227.59 1549.37 1225.73 1550.3 C 1195.91 1565.27 1163.24 1568.19 1131.51 1557.7 C 1156.8 1615.63 1168.32 1675.38 1159.99 1738.55 C 1157.32 1758.8 1135.88 1762.18 1127.33 1744.83 C 1125.22 1740.56 1126.9 1727.74 1126.89 1722.99 C 1134.56 1646.24 1109.14 1574.47 1062.61 1514.1 C 1054.13 1503.1 1044.12 1492.35 1035.35 1481.1 L 1087.51 1481.06 L 1249.19 1481.11 C 1259.27 1481.04 1276.96 1481.45 1286.43 1480.65 z" fill="rgb(150,93,63)" transform="translate(0,0)"></path>
<path d="M 1087.51 1481.06 L 1249.19 1481.11 C 1239.1 1496.35 1229.51 1509.54 1212.92 1518.19 C 1165.86 1542.74 1112.95 1527.07 1087.51 1481.06 z" fill="rgb(201,148,119)" transform="translate(0,0)"></path>
<path d="M 585.788 1327.34 C 593.471 1334.64 603.741 1343.88 610.653 1351.61 C 584.597 1384.99 567.741 1418.55 574.209 1462.55 C 583.671 1526.9 628.346 1603.82 659.52 1660.24 L 726.923 1780.29 C 776.281 1867.47 781.199 1868.69 780.857 1971.45 L 780.721 2048 L 745.092 2048 C 745.468 2015.86 745.59 1983.72 745.458 1951.57 C 745.335 1931.38 746.256 1904.34 741.367 1885.15 C 733.529 1854.37 711.348 1823.4 695.461 1795.36 L 630.319 1678.58 C 571.22 1571.49 486.943 1438.86 585.788 1327.34 z" fill="rgb(150,93,63)" transform="translate(0,0)"></path>
<metadata><recraft-signature>{"signed_by": "recraft", "signature_b64": "vVrXjEsZtlZ4xueLRZLJrJpIboeVqroAomLNgkJUdB5ZCafusovSBclsLHmuuUKeW++QeR+JJw04O+5c95U6Dw==", "signing_algo": "Ed25519", "generation_timestamp": 1779010752, "identifier": "4854755a-6e9d-416e-8faf-f192a2c1342f"}</recraft-signature></metadata></svg>