<?xml version="1.0" encoding="utf-8" ?><svg xmlns="http://www.w3.org/2000/svg" xmlns:xlink="http://www.w3.org/1999/xlink" width="1024" height="1024" viewBox="0 0 1024 1024"><path fill="white" d="M0 0L1024 0L1024 1024L0 1024L0 0Z"/><path fill="#FC9F14" d="M482.018 228.815C547.334 220.112 616.983 242.112 668.598 282.378C708.284 313.338 739.016 354.918 758.035 401.444C760.638 407.823 765.746 421.69 766.963 428.179C797.086 446.271 817.994 469.691 826.816 504.634C834.816 536.102 829.917 569.462 813.207 597.302C809.399 603.62 800.58 615.682 795.059 620.658C779.467 636.219 755.585 651.05 733.578 654.588C732.195 655.588 721.611 671.378 719.721 673.993C715.795 679.404 711.726 684.711 707.52 689.908C653.624 755.73 573.54 792.937 488.412 784.424C440.855 779.668 400.52 762.696 362.608 733.607C339.112 715.579 321.66 696.898 304.413 672.634C300.411 667.008 295.985 659.58 291.494 654.548C287.311 653.747 283.174 652.716 279.104 651.46C248.529 641.532 223.006 620.117 207.918 591.731C192.612 563.124 189.401 529.577 199.003 498.586C208.593 468.006 230.069 442.562 258.604 427.973C267.21 396.231 284.473 361.781 304.059 335.363C346.582 277.301 410.757 238.879 482.018 228.815Z"/><path fill="#272863" d="M482.018 228.815C547.334 220.112 616.983 242.112 668.598 282.378C708.284 313.338 739.016 354.918 758.035 401.444C760.638 407.823 765.746 421.69 766.963 428.179C797.086 446.271 817.994 469.691 826.816 504.634C834.816 536.102 829.917 569.462 813.207 597.302C809.399 603.62 800.58 615.682 795.059 620.658C790.464 617.345 779.71 624.781 774.439 611.305C770.254 600.603 775.802 562.195 772.506 554.835C773.434 548.008 775.07 539.806 775.719 533.163C777.566 514.282 777.249 484.986 773.164 466.619C766.687 467.231 757.895 466.067 751.38 465.141C721.626 461.189 693.661 448.679 670.884 429.131C641.575 404.256 618.603 365.067 615.348 326.444C614.044 328.909 613.741 340.152 612.881 344.178C609.233 361.249 602.691 376.152 592.927 390.602C591.422 392.828 588.055 397.584 586.003 399.098C584.643 399.715 581.797 401.648 579.889 402.6C571.449 406.811 563.302 410.539 554.138 413.004C526.936 420.406 497.906 416.661 473.473 402.598C438.883 382.58 419.492 349.64 409.596 312.007C409.026 316.392 409.001 321.151 408.871 325.597C407.339 328.966 406.691 335.73 405.848 339.608C395.105 389.058 357.574 433.96 310.752 454.073L309.997 454.392C293.509 461.089 276.345 465.819 258.535 466.293C256.783 466.34 252.253 466.133 251.155 467.299C249.428 484.036 247.993 498.51 248.372 515.506C249.248 554.828 261.634 599.875 280.143 634.533C283.9 641.196 287.363 648.18 291.494 654.548C287.311 653.747 283.174 652.716 279.104 651.46C248.529 641.532 223.006 620.117 207.918 591.731C192.612 563.124 189.401 529.577 199.003 498.586C208.593 468.006 230.069 442.562 258.604 427.973C267.21 396.231 284.473 361.781 304.059 335.363C346.582 277.301 410.757 238.879 482.018 228.815Z"/><path fill="#0E0B3A" d="M258.604 427.973C267.21 396.231 284.473 361.781 304.059 335.363C346.582 277.301 410.757 238.879 482.018 228.815C481.405 230.896 481.59 230.773 478.984 232.035C473.434 234.722 467.413 236.781 461.729 239.239C452.005 243.501 442.578 248.413 433.513 253.94C366.598 294.535 317.313 376.833 309.997 454.392C293.509 461.089 276.345 465.819 258.535 466.293C256.783 466.34 252.253 466.133 251.155 467.299C249.428 484.036 247.993 498.51 248.372 515.506C249.248 554.828 261.634 599.875 280.143 634.533C283.9 641.196 287.363 648.18 291.494 654.548C287.311 653.747 283.174 652.716 279.104 651.46C248.529 641.532 223.006 620.117 207.918 591.731C192.612 563.124 189.401 529.577 199.003 498.586C208.593 468.006 230.069 442.562 258.604 427.973Z"/><path fill="#272863" d="M280.143 634.533C278.698 634.266 279.573 634.569 278.515 633.917C237.452 608.592 212.543 559.448 224.647 511.406C227.937 498.348 239.402 474.433 251.155 467.299C249.428 484.036 247.993 498.51 248.372 515.506C249.248 554.828 261.634 599.875 280.143 634.533Z"/><path fill="#0E0B3A" d="M616.115 312.582C631.755 366.58 675.562 419.316 724.673 446.399C734.515 451.775 744.732 456.432 755.245 460.335C759.621 461.928 769.712 464.926 773.164 466.619C766.687 467.231 757.895 466.067 751.38 465.141C721.626 461.189 693.661 448.679 670.884 429.131C641.575 404.256 618.603 365.067 615.348 326.444C615.646 324.214 615.418 315.734 615.364 313.043L616.115 312.582Z"/><path fill="#1B1A55" d="M615.364 313.043C615.28 312.598 614.846 311.295 615.305 310.828C615.766 310.859 615.885 311.478 615.962 311.881L616.115 312.582L615.364 313.043Z"/><path fill="#0E0B3A" d="M409.596 312.007C419.492 349.64 438.883 382.58 473.473 402.598C497.906 416.661 526.936 420.406 554.138 413.004C563.302 410.539 571.449 406.811 579.889 402.6C581.797 401.648 584.643 399.715 586.003 399.098C585.647 399.611 585.358 400.042 584.939 400.509C567.751 419.688 543.837 432.459 518.175 434.344C492.968 435.993 468.142 427.546 449.172 410.865C423.19 388.179 411.101 359.632 408.871 325.597C409.001 321.151 409.026 316.392 409.596 312.007Z"/><path fill="#0E0B3A" d="M772.506 554.835C775.802 562.195 770.254 600.603 774.439 611.305C779.71 624.781 790.464 617.345 795.059 620.658C779.467 636.219 755.585 651.05 733.578 654.588C733.878 653.134 741.265 640.364 742.646 637.772C745.259 632.892 747.707 627.924 749.983 622.877C760.836 599.005 766.801 580.272 772.506 554.835Z"/><path fill="white" d="M314.151 537.477C318.041 529.073 320.901 523.413 326.579 516.021C342.899 494.625 367.097 480.644 393.784 477.19C434.04 472.128 473.055 491.646 492.563 527.699C493.618 529.648 495.038 532.321 495.294 534.511L494.823 535.061L494.164 536.494C494.264 543.042 488.346 554.977 485.001 560.507C451.869 615.268 385.484 627.817 339.065 581.019C329.526 571.402 316.265 552.488 314.985 538.882L314.151 537.477Z"/><path fill="#E99280" d="M314.151 537.477C318.041 529.073 320.901 523.413 326.579 516.021C342.899 494.625 367.097 480.644 393.784 477.19C434.04 472.128 473.055 491.646 492.563 527.699C493.618 529.648 495.038 532.321 495.294 534.511L494.823 535.061C492.804 534.4 455.831 535.092 451.727 535.496C422.085 535.842 390.727 535.911 361.212 537.02C346.749 537.569 328.434 537.978 314.151 537.477Z"/><path fill="#EB663D" d="M314.985 538.882C351.556 592.591 434.078 600.803 479.672 554.346C485.132 548.782 489.56 542.734 494.164 536.494C494.264 543.042 488.346 554.977 485.001 560.507C451.869 615.268 385.484 627.817 339.065 581.019C329.526 571.402 316.265 552.488 314.985 538.882Z"/><path fill="#272863" d="M361.212 537.02C390.727 535.911 422.085 535.842 451.727 535.496C448.445 562.488 427.293 579.638 400.135 576.455C388.392 574.962 377.71 568.902 370.403 559.589C364.904 552.587 362.657 545.65 361.212 537.02Z"/><path fill="white" d="M529.705 533.713C540.654 509.57 559.102 491.949 584.056 482.529C608.606 473.305 635.828 474.299 659.64 485.29C682.289 495.685 702.331 513.565 710.265 537.764L709.22 539.808C709.563 542.468 708.074 546.678 706.988 549.186C692.727 582.132 660.722 607.94 624.251 609.92C591.129 611.718 562.628 592.44 543.78 566.555C538.932 559.925 531.817 546.23 531.376 537.903L529.705 533.713Z"/><path fill="#E99280" d="M529.705 533.713C540.654 509.57 559.102 491.949 584.056 482.529C608.606 473.305 635.828 474.299 659.64 485.29C682.289 495.685 702.331 513.565 710.265 537.764C695.552 537.459 677.701 538.015 663.343 537.117C656.678 536.412 645.888 536.585 638.973 536.52L601.936 536.023C596.486 535.954 578.323 534.95 573.84 535.741L573.221 536.837L572.668 535.765C569.856 534.952 565.819 535.415 562.893 535.216C554.783 534.664 537.066 535.518 529.705 533.713Z"/><path fill="#EB663D" d="M531.376 537.903C535.681 543.498 540.678 550.015 545.649 554.932C560.969 570.087 584.125 581.132 605.469 583.823C634.929 587.731 664.73 579.719 688.258 561.565C696.657 555.032 702.686 548.08 709.22 539.808C709.563 542.468 708.074 546.678 706.988 549.186C692.727 582.132 660.722 607.94 624.251 609.92C591.129 611.718 562.628 592.44 543.78 566.555C538.932 559.925 531.817 546.23 531.376 537.903Z"/><path fill="#272863" d="M573.221 536.837L573.84 535.741C578.323 534.95 596.486 535.954 601.936 536.023L638.973 536.52C645.888 536.585 656.678 536.412 663.343 537.117C661.896 545.487 659.311 552.907 654.064 559.67C646.703 569.013 635.963 575.087 624.163 576.579C598.5 579.577 576.146 562.678 573.221 536.837Z"/><path fill="#EB663D" d="M512.457 659.034C517.99 657.638 522.389 655.952 528.124 655.349C543.542 653.629 552.06 661.636 563.304 670.107C579.209 682.09 584.03 697.449 569.849 713.663C560.827 723.978 550.836 730.596 536.625 731.499C518.017 732.015 495.627 732.759 477.471 730.073C465.091 726.908 452.887 715.106 447.961 704.224C438.038 682.301 471.338 656.531 491.432 655.22C500.209 655.524 504.036 656.792 512.457 659.034Z"/><path fill="white" d="M492.806 681.118C499.741 681.014 504.643 684.502 511.253 684.743C517.422 685.052 524.369 681.706 530.217 681.373C536.446 681.018 548.146 689.952 552.523 694.132C548.45 699.47 543.633 703.593 536.923 704.983C523.234 705.349 509.241 704.761 495.534 704.755C484.877 704.749 479.305 705.221 472.806 695.635C477.211 689.405 485.302 683.069 492.806 681.118Z"/><defs><linearGradient id="gradient_0" gradientUnits="userSpaceOnUse" x1="516.34747" y1="513.71118" x2="510.92038" y2="638.2807"><stop offset="0" stop-color="#F49109"/><stop offset="1" stop-color="#ED6D16"/></linearGradient></defs><path fill="url(#gradient_0)" d="M511.601 511.906C514.525 515.139 525.086 540.662 527.653 546.264L544.673 583.171C552.286 599.896 562.872 616.003 546.6 631.889C537.024 641.237 524.651 639.127 512.375 638.851C503.362 638.594 493.503 639.645 484.895 636.561C475.392 633.156 467.409 618.253 469.711 608.335C472.149 597.833 478.778 586.3 483.074 576.033C492.091 554.486 502.407 533.385 511.601 511.906Z"/><path fill="#272863" d="M603.603 429.209C642.814 426.213 675.92 455.647 696.899 485.538C690.172 481.545 683.078 476.138 676.195 471.942C666.534 466.052 658.812 462.734 648.367 458.941C620.381 449.175 591.446 453.036 565.75 467.291C557.765 471.721 548.516 475.308 545.581 462.204C543.76 454.071 551.205 449.222 557.185 445.256C571.413 435.818 586.495 430.408 603.603 429.209Z"/><path fill="#272863" d="M415.081 429.211C427.87 428.912 440.558 431.534 452.181 436.877C460.021 440.397 475.167 448.253 478.267 456.587C481.236 464.572 476.599 469.512 469.352 471.605C463.039 470.081 456.74 465.748 450.624 463.088C426.657 452.662 408.72 450.913 383.749 456.838C360.357 463.645 347.945 471.843 328.781 485.912C331.402 480.32 339.631 469.818 344.17 464.979C363.549 444.317 386.594 430.881 415.081 429.211Z"/></svg>