<svg xmlns="http://www.w3.org/2000/svg" height="1024" preserveAspectRatio="none" style="display: block;" version="1.1" viewBox="0 0 2048 2048" width="1024">
<defs>
	<linearGradient gradientUnits="userSpaceOnUse" id="Gradient1" x1="937.479" x2="798.185" y1="1403.02" y2="1839.99">
		<stop class="stop0" offset="0" stop-color="rgb(220,210,120)" stop-opacity="1"></stop>
		<stop class="stop1" offset="1" stop-color="rgb(253,210,141)" stop-opacity="1"></stop>
	</linearGradient>
</defs>
<path d="M 0 0 L 2048 0 L 2048 2048 L 0 2048 L 0 0 z" fill="rgb(255,255,255)" transform="translate(0,0)"></path>
<path d="M 1000.28 360.954 C 1016.28 360.835 1035.12 360.141 1050.81 360.927 C 1087.27 362.296 1149.55 370.017 1184.28 381.707 C 1209.67 390.072 1229.44 395.989 1254.65 405.755 C 1300.96 422.394 1368.6 462.649 1407.49 491.69 C 1416.54 499.748 1434.52 515.175 1444.26 522.409 C 1468.23 543.44 1490.63 566.205 1511.27 590.519 C 1515.78 595.759 1525.81 607.379 1529.14 612.933 C 1537.53 623.862 1550.87 640.42 1557.74 651.62 C 1561.89 658.05 1565.99 664.506 1570.14 670.935 C 1654.14 801.222 1699.24 959.689 1673.03 1114.55 C 1672.7 1140.03 1666.08 1168.64 1660.35 1193.37 C 1632.92 1312.74 1571.16 1421.48 1482.68 1506.18 C 1473.09 1515.46 1463.23 1524.47 1453.13 1533.2 C 1442.48 1524.27 1422.87 1512.53 1410.97 1506.41 C 1397.83 1516.07 1373.31 1532.39 1359 1540.72 C 1385.24 1542.77 1394.62 1546 1416.98 1560.68 C 1387.19 1583.87 1354.98 1606.94 1321.78 1625.01 C 1309.39 1631.77 1296.84 1638.22 1284.12 1644.34 C 1280.75 1645.97 1268.06 1651.72 1265.73 1653.16 C 1257 1656.39 1221.55 1668.85 1215.05 1672.41 C 1208.63 1673.68 1195.08 1678.24 1187.99 1680.19 C 1171.07 1684.78 1154.02 1688.84 1136.85 1692.37 C 1061.51 1707.02 984.023 1706.67 908.82 1691.36 C 883.123 1685.87 863.916 1679.62 839.122 1672.11 C 808.315 1689.02 803.762 1706.31 778.535 1728.5 C 756.126 1748.21 727.895 1758.75 698.299 1756.37 C 650.693 1752.54 623.444 1721.83 595.624 1687.25 C 577.807 1665.1 544.571 1650.22 517.475 1664.91 C 507.24 1670.48 498.145 1678.87 489.133 1686.33 C 443.599 1724.05 374.924 1722.98 332.993 1680.31 C 325.583 1672.77 326.665 1654.75 336.344 1648.71 C 355.942 1636.48 365.717 1650.19 381.23 1659.22 C 388.182 1663.31 395.872 1665.99 403.86 1667.12 C 440.226 1672.08 457.767 1650.68 482.307 1632.46 C 527.526 1598.89 581.282 1612.42 620.675 1648.19 C 645.744 1670.96 665.393 1706.53 699.527 1710.13 C 742.73 1714.69 758.238 1675.1 787.395 1652.23 C 770.542 1643.08 749.36 1634.84 731.415 1625.19 C 697.229 1606.81 664.226 1584.88 633.669 1561.04 C 648.282 1547.78 672.275 1542.81 691.078 1540.34 C 674.34 1529.47 656.575 1518.31 640.372 1506.8 C 625.778 1514.88 610.663 1525.8 597.901 1532.77 C 581.666 1518.28 567.177 1505.15 551.9 1489.58 C 468.93 1403.61 411.802 1296.05 387.037 1179.17 C 383.213 1160.57 377.913 1132.49 378.105 1113.56 C 353.543 942.532 397.625 795.32 492.2 653.027 C 501.203 639.359 511.635 626.196 521.633 613.197 C 541.151 586.613 583.141 542.291 608.081 521.26 C 616.895 515.385 636.021 498.494 644.904 490.975 C 692.593 455.212 741.834 428.943 796.465 405.585 C 802.031 404.042 815.246 398.506 821.433 396.245 C 836.092 390.951 850.887 386.044 865.803 381.528 C 902.024 369.905 962.791 363.374 1000.28 360.954 z" fill="rgb(251,153,97)" transform="translate(0,0)"></path>
<path d="M 691.078 1540.34 C 722.022 1556.38 744.832 1570.74 778.165 1584.77 C 917.16 1644.19 1072.96 1651.34 1216.81 1604.89 C 1250.28 1594.31 1282.83 1581.03 1314.15 1565.18 C 1325.96 1559.11 1348.39 1545.35 1359 1540.72 C 1385.24 1542.77 1394.62 1546 1416.98 1560.68 C 1387.19 1583.87 1354.98 1606.94 1321.78 1625.01 C 1309.39 1631.77 1296.84 1638.22 1284.12 1644.34 C 1280.75 1645.97 1268.06 1651.72 1265.73 1653.16 C 1257 1656.39 1221.55 1668.85 1215.05 1672.41 C 1208.63 1673.68 1195.08 1678.24 1187.99 1680.19 C 1171.07 1684.78 1154.02 1688.84 1136.85 1692.37 C 1061.51 1707.02 984.023 1706.67 908.82 1691.36 C 883.123 1685.87 863.916 1679.62 839.122 1672.11 C 808.315 1689.02 803.762 1706.31 778.535 1728.5 C 756.126 1748.21 727.895 1758.75 698.299 1756.37 C 650.693 1752.54 623.444 1721.83 595.624 1687.25 C 577.807 1665.1 544.571 1650.22 517.475 1664.91 C 507.24 1670.48 498.145 1678.87 489.133 1686.33 C 443.599 1724.05 374.924 1722.98 332.993 1680.31 C 325.583 1672.77 326.665 1654.75 336.344 1648.71 C 355.942 1636.48 365.717 1650.19 381.23 1659.22 C 388.182 1663.31 395.872 1665.99 403.86 1667.12 C 440.226 1672.08 457.767 1650.68 482.307 1632.46 C 527.526 1598.89 581.282 1612.42 620.675 1648.19 C 645.744 1670.96 665.393 1706.53 699.527 1710.13 C 742.73 1714.69 758.238 1675.1 787.395 1652.23 C 770.542 1643.08 749.36 1634.84 731.415 1625.19 C 697.229 1606.81 664.226 1584.88 633.669 1561.04 C 648.282 1547.78 672.275 1542.81 691.078 1540.34 z" fill="url(#Gradient1)" transform="translate(0,0)"></path>
<path d="M 1050.81 360.927 C 1087.27 362.296 1149.55 370.017 1184.28 381.707 C 1209.67 390.072 1229.44 395.989 1254.65 405.755 C 1300.96 422.394 1368.6 462.649 1407.49 491.69 C 1416.54 499.748 1434.52 515.175 1444.26 522.409 C 1468.23 543.44 1490.63 566.205 1511.27 590.519 C 1515.78 595.759 1525.81 607.379 1529.14 612.933 C 1414.86 635.499 1300.63 625.785 1200.53 562.521 C 1125.91 515.367 1070.82 448.06 1050.81 360.927 z" fill="rgb(251,153,97)" transform="translate(0,0)"></path>
<path d="M 865.803 381.528 C 902.024 369.905 962.791 363.374 1000.28 360.954 C 995.118 380.965 989.754 400.653 980.851 419.418 C 951.725 480.814 903.072 531.693 844.761 566.01 C 767.072 611.413 677.111 631.335 587.516 622.978 C 564.916 621.079 543.94 616.986 521.633 613.197 C 541.151 586.613 583.141 542.291 608.081 521.26 C 616.895 515.385 636.021 498.494 644.904 490.975 C 692.593 455.212 741.834 428.943 796.465 405.585 C 802.031 404.042 815.246 398.506 821.433 396.245 C 836.092 390.951 850.887 386.044 865.803 381.528 z" fill="rgb(251,153,97)" transform="translate(0,0)"></path>
<path d="M 1000.28 360.954 C 1016.28 360.835 1035.12 360.141 1050.81 360.927 C 1070.82 448.06 1125.91 515.367 1200.53 562.521 C 1300.63 625.785 1414.86 635.499 1529.14 612.933 C 1537.53 623.862 1550.87 640.42 1557.74 651.62 C 1545.21 656.333 1521.3 661.28 1507.68 663.443 C 1417.05 677.841 1317.6 669.587 1233.61 631.419 C 1136.08 587.098 1073.96 528.362 1025.91 433.672 C 1013 456.301 1001.09 478.653 985.657 499.72 C 882.528 640.485 694.899 694.086 527.96 660.566 C 520.285 659.025 498.647 655.868 492.2 653.027 C 501.203 639.359 511.635 626.196 521.633 613.197 C 543.94 616.986 564.916 621.079 587.516 622.978 C 677.111 631.335 767.072 611.413 844.761 566.01 C 903.072 531.693 951.725 480.814 980.851 419.418 C 989.754 400.653 995.118 380.965 1000.28 360.954 z" fill="rgb(167,158,18)" transform="translate(0,0)"></path>
<path d="M 1410.97 1506.41 C 1431.72 1489.47 1447.1 1478.96 1467.91 1460.03 C 1543.45 1391.55 1602.68 1307.03 1641.28 1212.67 C 1655.24 1177.78 1663.06 1150.23 1673.03 1114.55 C 1672.7 1140.03 1666.08 1168.64 1660.35 1193.37 C 1632.92 1312.74 1571.16 1421.48 1482.68 1506.18 C 1473.09 1515.46 1463.23 1524.47 1453.13 1533.2 C 1442.48 1524.27 1422.87 1512.53 1410.97 1506.41 z" fill="rgb(245,209,136)" transform="translate(0,0)"></path>
<path d="M 378.105 1113.56 C 384.215 1135.58 388.907 1155.31 396.383 1177.02 C 433.242 1284.61 496.481 1381.25 580.318 1458.09 C 599.358 1475.46 620.001 1491.01 640.372 1506.8 C 625.778 1514.88 610.663 1525.8 597.901 1532.77 C 581.666 1518.28 567.177 1505.15 551.9 1489.58 C 468.93 1403.61 411.802 1296.05 387.037 1179.17 C 383.213 1160.57 377.913 1132.49 378.105 1113.56 z" fill="rgb(245,209,136)" transform="translate(0,0)"></path>
<path d="M 1148.12 852.127 C 1178.94 848.872 1176.91 872.309 1183.35 892.881 C 1193.89 926.518 1224.14 953.763 1258.75 961.089 C 1285.23 966.6 1312.82 961.454 1335.53 946.766 C 1354.94 934.081 1370.47 912.681 1377.73 890.711 C 1381.86 878.229 1379.63 863.033 1393.11 855.25 C 1404.94 848.422 1421.69 852.506 1427.88 864.96 C 1434.04 878.565 1426.61 899.467 1422.08 912.741 C 1405.93 951.218 1386.01 977.973 1347.31 996.983 C 1310.99 1015.15 1268.86 1017.78 1230.56 1004.29 C 1192.21 990.746 1160.83 962.5 1143.34 925.784 C 1136.77 911.866 1125.87 881.852 1131.83 866.672 C 1135.05 858.476 1140.54 855.329 1148.12 852.127 z" fill="rgb(129,52,51)" transform="translate(0,0)"></path>
<path d="M 641.71 852.106 C 671.181 851.205 667.465 871.221 674.093 892.009 C 684.777 925.523 714.527 953.988 748.996 961.186 C 796.83 971.176 839.9 948.66 862.204 905.989 C 871.17 888.835 869.596 866.491 884.185 854.99 C 895.371 847.617 913.993 853.581 919.091 865.396 C 925.056 879.219 917.652 899.09 913.283 912.245 C 910.985 918.118 908.378 923.867 905.475 929.466 C 887.162 965.519 855.305 992.843 816.884 1005.45 C 778.491 1017.56 736.875 1014.06 701.043 995.714 C 666.461 977.807 638.579 943.264 627.146 906.246 C 620.594 885.029 614.372 859.825 641.71 852.106 z" fill="rgb(129,52,51)" transform="translate(0,0)"></path>
<path d="M 877.412 1319.06 C 891.275 1318.24 901.124 1325.77 911.2 1333.77 C 982.127 1390.09 1060.6 1392.79 1133.05 1337.82 C 1141.2 1332.74 1158.03 1317.2 1168.07 1318.93 C 1203.63 1325.09 1198.31 1353.21 1176.5 1370.8 C 1158.43 1385.11 1138.8 1397.34 1117.99 1407.25 C 1034.74 1446.45 954.389 1430.79 881.826 1376.87 C 874.737 1371.6 861.98 1362.03 858.663 1353.67 C 851.87 1336.56 861.784 1324.92 877.412 1319.06 z" fill="rgb(226,120,108)" transform="translate(0,0)"></path>
<path d="M 944.147 1083.15 C 977.274 1079.66 982.04 1107.04 968.631 1130.85 C 965.068 1137.18 961.231 1144.7 958.183 1151.25 C 973.294 1152.21 993.488 1151.82 1008.99 1151.85 L 1093.99 1151.97 C 1087.71 1138.69 1071.85 1113.49 1077.44 1099.8 C 1085.8 1079.34 1112.64 1075.44 1123 1097.6 C 1128.84 1110.09 1134.62 1123.16 1140.23 1135.92 C 1151.85 1168.59 1132.23 1197.06 1098.06 1200.95 C 1092.02 1201.46 1085.81 1201.36 1079.75 1201.25 C 1038.8 1200.45 997.739 1201.35 956.823 1201.23 C 932.671 1200.53 914.079 1186.79 908.459 1163.05 C 904.074 1144.52 914.041 1130.76 920.771 1114.47 C 924.331 1105.86 928.645 1096.54 934.496 1089.37 C 936.659 1086.72 941.093 1084.66 944.147 1083.15 z" fill="rgb(129,52,51)" transform="translate(0,0)"></path>
<path d="M 796.465 405.585 C 786.545 396.908 777.044 387.765 767.993 378.185 C 751.65 361.105 737.611 341.115 711.959 338.985 C 668.339 335.364 646.409 381.587 617.439 405.401 C 579.683 436.437 531.652 450.097 488.006 421.523 C 464.669 406.245 448.446 384.31 418.556 381.499 C 382.601 378.117 366.273 408.537 348.21 406.186 C 341.865 405.36 335.769 401.647 331.981 396.511 C 328.39 391.641 326.679 385.479 327.755 379.481 C 329.44 370.09 338.593 362.349 346.151 357.213 C 388.892 328.165 440.666 328.415 482.656 358.448 C 498.901 370.067 510.524 385.973 531.405 389.516 C 583.016 398.272 607.17 339.342 642.614 313.84 C 684.725 283.542 740.322 286.584 778.339 321.687 C 794.768 336.856 808.224 358.209 827.069 370.064 C 839.026 377.586 852.143 379.37 865.803 381.528 C 850.887 386.044 836.092 390.951 821.433 396.245 C 815.246 398.506 802.031 404.042 796.465 405.585 z" fill="rgb(245,209,136)" transform="translate(0,0)"></path>
<path d="M 1184.28 381.707 C 1198.19 380.045 1213.09 378.152 1224.92 369.78 C 1242.79 357.131 1254.72 336.584 1271.97 321.402 C 1314.4 284.063 1368.7 283.767 1413.18 318.488 C 1449.48 346.814 1463.31 394.358 1515.99 390.12 C 1540.83 388.166 1554.08 367.293 1572.97 354.774 C 1613.6 327.854 1670.06 329.616 1707.85 361.042 C 1718.88 370.218 1728.75 384.302 1717.77 398.181 C 1714.07 402.774 1708.68 405.677 1702.81 406.228 C 1682.45 408.27 1667.6 376.381 1629.46 382.269 C 1595.31 387.542 1592.18 401.655 1565.42 419.95 C 1521.01 450.324 1471.31 438.26 1432.39 404.688 C 1403.85 380.066 1383.5 336.356 1340.54 339.257 C 1312.08 341.179 1296.19 364.54 1278.55 383.336 C 1270.67 391.726 1263.01 398.077 1254.65 405.755 C 1229.44 395.989 1209.67 390.072 1184.28 381.707 z" fill="rgb(245,209,136)" transform="translate(0,0)"></path>
<path d="M 1265.73 1653.16 C 1275 1662.72 1287.57 1675.83 1295.31 1685.67 C 1318.91 1715.67 1364.31 1718.92 1390.31 1690.35 C 1427.83 1649.14 1451.1 1615.62 1511.36 1613.14 C 1566.24 1610.87 1583.39 1661.34 1627.68 1667.23 C 1644.82 1669.5 1662.2 1665.26 1676.38 1655.36 C 1679.89 1652.92 1687.3 1646.72 1690.84 1645.37 C 1716.98 1635.44 1733.12 1667.66 1712.54 1685.56 C 1673.32 1719.64 1616.5 1723.95 1573.18 1694.81 C 1561.31 1686.87 1551.98 1676.36 1541.02 1669.01 C 1495.99 1638.84 1460.84 1679.21 1435.56 1710.62 C 1412.2 1739.65 1374.07 1760.23 1337.15 1756.01 C 1296.73 1752.38 1273.22 1731.56 1247.59 1701.96 C 1236.34 1688.97 1230.73 1679.96 1215.05 1672.41 C 1221.55 1668.85 1257 1656.39 1265.73 1653.16 z" fill="rgb(167,158,18)" transform="translate(0,0)"></path>
<path d="M 1453.13 1533.2 C 1472.9 1545.85 1493.39 1557.95 1517.56 1552.24 C 1563.68 1541.33 1570.05 1490.71 1609.91 1467.33 C 1648.31 1444.82 1667.59 1466.68 1705.49 1459.82 C 1719.87 1457.21 1734.75 1426.83 1754.78 1440.28 C 1767.91 1448.11 1770.37 1461.85 1761.85 1474.39 C 1750 1491.83 1726.86 1502.04 1706.82 1506.38 C 1697.08 1508.43 1691.17 1508.38 1681.56 1507.76 C 1667.63 1506.86 1647.93 1499.83 1635.13 1505.72 C 1619.57 1512.89 1609.6 1533.07 1599.07 1546.07 C 1567.8 1584.7 1522.2 1610.09 1472.33 1592.58 C 1455.27 1586.59 1441.98 1577.63 1427.21 1567.67 L 1416.98 1560.68 C 1394.62 1546 1385.24 1542.77 1359 1540.72 C 1373.31 1532.39 1397.83 1516.07 1410.97 1506.41 C 1422.87 1512.53 1442.48 1524.27 1453.13 1533.2 z" fill="rgb(221,225,226)" transform="translate(0,0)"></path>
<path d="M 633.669 1561.04 C 613.545 1577.58 575.726 1598.65 549.504 1598.04 C 511.625 1597.16 477.904 1577.7 453.965 1548.82 C 444.658 1537.59 437.362 1525.09 427.482 1514.83 C 408.102 1495.97 387.739 1506.6 361.381 1508.16 C 334.643 1509.75 257.874 1477.13 292.792 1442.17 C 313.709 1421.23 329.399 1459.08 352.23 1461.37 C 372.678 1463.41 392.126 1456.55 412.574 1458.18 C 441.341 1461.15 460.325 1479.71 475.589 1502.38 C 491.445 1525.92 510.379 1550.54 540.54 1553.23 C 558.961 1554.87 584.499 1545.11 597.901 1532.77 C 610.663 1525.8 625.778 1514.88 640.372 1506.8 C 656.575 1518.31 674.34 1529.47 691.078 1540.34 C 672.275 1542.81 648.282 1547.78 633.669 1561.04 z" fill="rgb(221,225,226)" transform="translate(0,0)"></path>
<path d="M 1407.49 491.69 C 1448.06 470.404 1487.39 441.403 1535.31 457.346 C 1564.52 467.062 1587.69 487.94 1605.86 512.557 C 1615.73 526.258 1625.97 546.129 1645.66 545.907 C 1652.5 545.83 1664.82 543.453 1672.11 541.856 C 1704.99 534.66 1747.33 549.249 1765.01 578.656 C 1772.8 591.599 1763.32 605.917 1750.87 611.159 C 1732.62 618.941 1723.15 595.096 1708.88 589.932 C 1678.55 578.956 1647.69 600.564 1617.41 586.043 C 1571.76 566.852 1565.23 507.146 1515.75 498.437 C 1505.68 496.618 1495.3 497.424 1485.62 500.777 C 1475.71 504.148 1453.91 516.584 1444.26 522.409 C 1434.52 515.175 1416.54 499.748 1407.49 491.69 z" fill="rgb(221,225,226)" transform="translate(0,0)"></path>
<path d="M 608.081 521.26 C 604.136 518.228 596.696 514.961 592.149 512.471 C 569.004 499.798 547.819 490.85 521.882 502.527 C 487.855 517.58 476.691 556.936 447.935 578.123 C 434.155 588.387 420.443 591.539 403.338 591.205 C 384.02 591.206 350.944 577.858 334.763 593.795 C 321.713 606.648 304.613 622.623 287.758 600.814 C 276.169 585.817 291.804 568.296 304.349 558.986 C 327.022 542.158 355.376 535.886 383.106 542.413 C 392.114 544.467 406.88 547.298 415.5 543.899 C 433.549 536.329 442.707 514.968 454.743 500.182 C 488.948 458.159 545.76 437.827 595.475 465.594 C 610.93 474.226 627.128 486.662 644.904 490.975 C 636.021 498.494 616.895 515.385 608.081 521.26 z" fill="rgb(221,225,226)" transform="translate(0,0)"></path>
<metadata><recraft-signature>{"signed_by": "recraft", "signature_b64": "wWb+IqAg8utyIqK65QBN2ovDkMJR3gpeN8CC4gc0Yedum/sMuMCEFrdJtU13KbwhOmuvx9tQv26mKMZhITXxBQ==", "signing_algo": "Ed25519", "generation_timestamp": 1779006174, "identifier": "733bdde2-4e40-4e10-9b35-86dbe7a56919"}</recraft-signature></metadata></svg>