<svg xmlns="http://www.w3.org/2000/svg" height="1024" preserveAspectRatio="none" style="display: block;" version="1.1" viewBox="0 0 2048 2048" width="1024">
<path d="M 0 0 L 2048 0 L 2048 2048 L 0 2048 L 0 0 z" fill="rgb(255,255,255)" transform="translate(0,0)"></path>
<path d="M 467.273 348.203 C 470.758 348.051 474.245 347.944 477.733 347.881 C 501.48 347.514 567.235 344.983 586.51 350.365 C 596.26 353.14 605.146 358.344 612.336 365.491 C 630.503 383.438 630.231 402.144 630.286 425.478 L 630.293 461.008 L 699.731 460.821 C 734.44 423.222 770.821 375.756 823.182 365.945 C 844.592 361.933 868.248 363.043 890.083 363.054 L 973.129 363.103 L 1123.68 363.014 C 1150.27 362.993 1177.8 362.487 1204.32 363.159 C 1255.19 364.447 1281.37 387.342 1314.21 421.923 L 1350.83 460.845 L 1421 460.97 C 1420.98 429.7 1415.65 388.123 1438.32 366.034 C 1452.91 351.82 1473.31 346.991 1492.81 347.84 C 1516.41 348.867 1571.49 345.008 1591.58 350.121 C 1602.21 352.81 1611.93 358.296 1619.72 366.008 C 1637.45 383.868 1637.16 403.76 1637.15 426.753 L 1637.07 460.979 C 1676.24 460.699 1706.04 465.656 1735.38 494.577 C 1762.64 521.45 1775.23 553.459 1775.4 591.493 C 1775.66 648.593 1775.53 705.729 1775.54 762.853 L 1775.39 1107.24 L 1775.31 1263.04 C 1775.31 1281.21 1776.47 1326.4 1774.03 1342.91 C 1770.4 1367.66 1758.96 1390.61 1741.36 1408.39 C 1725.39 1424.68 1704.95 1435.86 1682.63 1440.54 C 1666.05 1443.92 1643.63 1443.1 1626.29 1443.07 L 1557.7 1442.95 L 1306.31 1443.16 C 1287.55 1464.57 1268.36 1478.61 1242.16 1489.45 C 1260.34 1508.05 1273.49 1524.52 1286.77 1546.94 C 1311.57 1592.88 1321.8 1631.12 1323.71 1683.13 C 1337.81 1683.19 1387.08 1681.76 1398.18 1684.11 C 1404.79 1685.45 1410.98 1688.37 1416.21 1692.62 C 1425.2 1700.07 1430.85 1710.8 1431.91 1722.43 C 1433.17 1734.16 1429.53 1745.88 1421.85 1754.84 C 1412.93 1765.28 1403.77 1768.41 1390.74 1768.76 C 1374.24 1769.21 1357.64 1769.06 1341.14 1769.05 L 1251.44 1769.05 L 977.659 1769.19 L 761.379 1769.26 L 692.719 1769.21 C 671.853 1769.16 647.121 1773.11 631.076 1758.26 C 622.623 1750.33 617.676 1739.35 617.329 1727.76 C 616.989 1716.37 621.097 1704.85 629.088 1696.54 C 645.083 1679.92 665.712 1683.03 686.653 1682.99 C 700.101 1682.97 713.731 1683.14 727.262 1683.24 C 726.101 1607.26 756.297 1543.12 808.215 1489.1 C 779.643 1476.51 767.75 1464.79 746.819 1443.17 C 661.991 1441.32 571.148 1442.81 485.899 1442.96 L 422.835 1443.1 C 406.24 1443.13 385.071 1443.97 369.247 1440.71 C 347.851 1436.17 328.18 1425.66 312.515 1410.39 C 288.954 1387.29 277.897 1360.42 277.819 1327.55 L 278.104 795.293 L 278.059 643.66 C 278.043 589.84 270.589 537.97 313.954 496.443 C 345.426 466.306 371.505 460.765 413.603 460.787 C 412.418 410.906 406.386 361.3 467.273 348.203 z" fill="rgb(11,2,2)" transform="translate(0,0)"></path>
<path d="M 465.928 752.979 C 470.165 695.042 491.429 679.18 529.475 640.43 L 604.272 564.13 C 634.617 532.755 664.799 501.082 695.237 469.773 C 717.89 446.472 741.279 418.035 765.723 396.787 C 783.053 381.946 804.051 372.033 826.523 368.083 C 846.05 364.706 878.141 365.909 898.887 365.928 L 1013.58 366.024 L 1145.11 365.973 C 1167.75 365.946 1193.55 364.824 1215.92 366.579 C 1272.75 371.037 1308.22 419.717 1344.87 458.537 L 1440.77 558.663 C 1465.84 584.254 1491.13 609.629 1516.64 634.783 C 1584.57 702.726 1586.66 706.897 1586.33 803.089 L 1586.12 905.934 L 1586.3 1040.65 C 1586.38 1093.54 1593.44 1148.35 1553.38 1189.18 C 1540.21 1202.6 1526.87 1215.78 1513.53 1229.01 L 1426.79 1315.65 C 1390.62 1352.21 1356.33 1389.81 1319.32 1425.48 C 1306.66 1437.69 1296.99 1450.23 1283.19 1461.69 C 1263.97 1477.64 1242.65 1488.68 1217.87 1492.8 C 1202.64 1495.34 1180.78 1494.3 1164.94 1494.41 L 1047.32 1494.26 C 1011.68 1494.18 976.026 1494.3 940.378 1494.63 C 906.926 1495.1 872.308 1495.53 838.958 1493.42 C 787.892 1490.18 751.834 1444.2 718.549 1410.18 L 619.653 1309.51 L 539.345 1228.74 C 511.436 1200.92 469.115 1165.06 466.971 1122.41 C 463.969 1116.85 463.797 1000.71 465.087 986.735 C 466.36 956.257 465.12 916.412 465.099 885.176 C 463.859 871.407 464.586 841.164 464.674 826.456 C 464.802 805.098 463.677 773.33 465.928 752.979 z" fill="rgb(199,4,31)" transform="translate(0,0)"></path>
<path d="M 465.928 752.979 C 466.082 781.281 466.057 809.584 465.854 837.886 C 465.812 848.629 466.267 875.926 465.099 885.176 C 463.859 871.407 464.586 841.164 464.674 826.456 C 464.802 805.098 463.677 773.33 465.928 752.979 z" fill="rgb(82,5,16)" transform="translate(0,0)"></path>
<path d="M 465.087 986.735 C 465.994 997.739 465.638 1013.13 465.674 1024.49 L 465.895 1085.89 C 465.948 1097.39 465.66 1111.16 466.971 1122.41 C 463.969 1116.85 463.797 1000.71 465.087 986.735 z" fill="rgb(82,5,16)" transform="translate(0,0)"></path>
<path d="M 870.55 447.414 C 893.385 446.465 920.137 447.011 943.3 446.999 L 1069.62 447.005 L 1141.89 447.044 C 1177.82 447.072 1211.88 443.208 1239.94 470.104 C 1258.23 487.632 1275.74 505.673 1293.53 523.694 L 1380.61 611.242 L 1448.84 679.786 C 1461.6 692.703 1480.77 711.347 1490.94 725.922 C 1509.75 752.867 1504.39 804.913 1504.3 837.478 L 1504.16 956.901 L 1504.47 1036.55 C 1504.61 1059.45 1505.9 1085.78 1501.43 1108.01 C 1498.59 1122.08 1488.97 1137.84 1479.29 1148.26 C 1459.75 1169.32 1438.87 1189.66 1418.55 1210.02 L 1328.52 1301.05 C 1305.93 1324.32 1283.07 1347.33 1259.96 1370.08 C 1231.15 1398.41 1219.25 1413.16 1176.25 1415.46 C 1157.44 1417.32 1130.25 1415.94 1110.89 1415.94 L 990.446 1415.88 L 909.677 1415.77 C 872.734 1415.68 840.856 1418.96 811.558 1391.82 C 792.281 1373.97 774.357 1355.88 755.895 1337.16 C 725.775 1306.85 695.837 1276.36 666.083 1245.68 L 601.601 1179.97 C 536.192 1112.82 542.098 1114.07 542.575 1022.05 L 542.901 915.215 L 542.743 820.144 C 542.737 799.695 541.788 775.43 545.173 755.582 C 547.933 739.398 556.748 725.801 567.749 713.807 C 587.403 692.379 609.096 671.275 629.823 650.761 L 718.335 562.308 C 736.29 544.448 754.053 526.395 771.621 508.152 C 802.897 476.187 823.234 450.809 870.55 447.414 z" fill="rgb(11,2,2)" transform="translate(0,0)"></path>
<path d="M 881.745 450.491 L 1099.94 450.468 C 1226.26 450.804 1204.66 438.357 1293.87 528.324 L 1392.46 627.632 L 1447.78 683.336 C 1462.38 698.083 1479 713.793 1490.51 730.958 C 1499.2 743.912 1501.33 761.181 1501.51 776.629 C 1501.8 801.205 1501.63 826.172 1501.64 850.835 L 1501.72 989.706 L 1501.73 1055.55 C 1501.73 1098.72 1503.4 1120.63 1470.69 1153.63 C 1418.1 1206.69 1365.41 1259.74 1312.9 1312.89 C 1294.77 1331.33 1276.53 1349.65 1258.18 1367.87 C 1226.51 1399.35 1216.35 1411.27 1169.25 1412.38 C 1099.03 1412.84 1028.82 1412.88 958.601 1412.49 C 945.436 1412.47 931.869 1412.51 918.74 1412.42 C 868.294 1412.08 841.422 1418.34 802.979 1380.14 C 752.68 1330.16 703.387 1279.28 653.64 1228.73 L 603.487 1177.97 C 588.255 1162.55 570.558 1145.48 558.798 1127.39 C 548.813 1112.03 545.752 1096.31 545.685 1078.21 C 545.47 1020.68 546.249 963.081 546.181 905.543 L 545.99 820.635 C 545.86 768.645 539.147 745.172 578.316 706.542 C 633.585 652.035 688.007 595.832 743.248 541.214 C 768.829 515.922 793.193 487.916 821.515 465.835 C 837.954 453.272 861.525 450.787 881.745 450.491 z" fill="rgb(239,73,68)" transform="translate(0,0)"></path>
<path d="M 992.323 604.528 C 1171.39 586.789 1330.99 717.447 1348.96 896.494 C 1366.93 1075.54 1236.47 1235.31 1057.45 1253.5 C 878.1 1271.73 717.984 1140.99 699.984 961.619 C 681.984 782.248 812.929 622.299 992.323 604.528 z" fill="rgb(3,159,213)" transform="translate(0,0)"></path>
<path d="M 911.287 716.809 C 919.635 716.34 927.036 717.735 934.32 722.006 C 954.088 733.596 973.356 746.071 992.881 758.087 L 1091.33 817.924 L 1178.57 870.558 C 1192.82 879.127 1206.92 887.448 1221.18 896.337 C 1242.49 907.916 1247.07 944.291 1228.89 960.3 C 1217.82 970.044 1197.34 981.137 1184.24 989.025 L 1099.37 1040.08 C 1063.27 1060.91 1027.7 1083.56 991.676 1104.78 C 973.669 1113.11 944.519 1138.02 925.749 1142.38 C 883.58 1152.17 867.557 1112.52 871.625 1077.94 C 872.642 1069.3 871.592 1052.23 871.59 1044.27 L 871.568 936.668 L 871.546 817.597 C 871.545 797.679 871.346 777.079 871.814 757.148 C 871.926 752.389 875.738 741.645 878.567 737.663 C 888.229 724.067 896.112 720.355 911.287 716.809 z" fill="rgb(248,125,13)" transform="translate(0,0)"></path>
<path d="M 405.012 539.16 C 426.28 537.638 459.899 538.667 482.385 538.702 L 624.755 538.879 C 613.376 551.875 596.961 567.853 584.738 580.398 C 559.201 606.799 533.437 632.979 507.45 658.937 C 459.575 706.988 463.132 736.737 463.124 800.765 L 463.147 873.916 L 463.061 1099.52 C 463.358 1167.35 496.761 1190.12 541.262 1234.74 C 565.247 1259.13 589.413 1283.34 613.758 1307.37 C 632.755 1326.72 651.637 1346.19 670.404 1365.77 C 583.225 1363.6 494.158 1367.52 406.993 1365.16 C 387.764 1364.64 362.432 1342.15 359.986 1324.16 C 357.015 1302.32 358.492 1270.76 358.569 1248.21 L 358.575 1113.01 L 358.553 769.385 L 358.443 656.882 C 358.392 635.9 358.225 614.993 358.601 594.012 C 359.119 565.142 377.861 545.483 405.012 539.16 z" fill="rgb(255,255,255)" transform="translate(0,0)"></path>
<path d="M 1425.59 538.726 C 1474.23 537.912 1523.83 539.11 1572.65 538.655 C 1597.12 540.038 1625.48 536.109 1649.42 540.027 C 1675.42 544.281 1693.98 569.62 1693.68 594.98 C 1693.1 644.117 1693.25 692.882 1693.22 741.801 L 1693.19 1067.88 L 1693.39 1232.95 C 1693.47 1252.1 1694.9 1300.96 1692.96 1317.88 C 1691.56 1330.01 1686.03 1341.29 1677.29 1349.83 C 1659.74 1367.28 1642.55 1366.22 1619.6 1365.92 C 1609.32 1365.79 1598.76 1365.84 1588.46 1365.79 L 1489.5 1365.6 L 1381.99 1365.79 C 1421.26 1323.28 1464.85 1281.99 1505.65 1240.83 C 1526.21 1218.48 1553.82 1196.72 1570.29 1171.34 C 1595.04 1133.18 1589.29 1078.09 1589.33 1034.4 L 1589.35 893.303 L 1589.33 798.307 C 1589.31 762.398 1591.84 721.164 1570.25 690.245 C 1545.82 655.257 1507.49 623.995 1478.12 592.522 C 1460.88 574.049 1442.43 557.638 1425.59 538.726 z" fill="rgb(255,255,255)" transform="translate(0,0)"></path>
<path d="M 1559.68 463.526 C 1561.2 463.455 1562.73 463.404 1564.26 463.371 C 1583.53 463.066 1604.42 463.94 1623.24 463.555 C 1666.93 462.662 1701.13 463.859 1734.14 497.107 C 1763.94 527.121 1772.85 556.719 1773.08 597.759 L 1772.86 1108.41 L 1772.91 1258.39 C 1772.9 1312.96 1781.1 1364.73 1739 1406.82 C 1723.17 1422.52 1703.13 1433.3 1681.31 1437.87 C 1664.15 1441.3 1641.51 1440.47 1623.64 1440.4 L 1555 1440.21 L 1308.46 1440.29 C 1328.72 1418.72 1353.6 1395.05 1374.68 1373.89 L 1380.18 1368.71 C 1443.1 1367.48 1508.45 1369.86 1571.65 1368.87 C 1596.86 1368.47 1626.48 1370.58 1651.36 1367.42 C 1659.53 1366.38 1672.49 1358.41 1678.3 1352.53 C 1692.4 1338.26 1696.04 1325.95 1696.01 1306.39 C 1695.92 1254.12 1695.73 1201.83 1695.68 1149.58 L 1695.69 821.862 L 1695.9 662.151 L 1696.01 613.555 C 1696.02 604.065 1696.1 593.662 1695.32 584.221 C 1693.41 563.316 1671.14 539.542 1649.75 537.068 C 1627.42 534.486 1597.71 535.732 1574.57 535.777 L 1423.42 535.953 C 1399.53 512.317 1377.37 487.298 1353.05 463.674 L 1559.68 463.526 z" fill="rgb(252,186,18)" transform="translate(0,0)"></path>
<path d="M 408.25 463.489 C 433.087 462.405 469.985 463.75 495.977 463.743 L 697.406 463.852 C 673.895 487.535 650.67 511.9 627.374 535.832 C 575.653 537.4 520.504 534.813 468.461 535.927 C 447.665 537.624 420.585 532.637 400.529 537.502 C 369.812 544.954 356.107 570.596 355.937 599.307 L 356.006 1092.02 L 355.947 1240.99 C 355.895 1266.67 355.145 1292.75 356.711 1318.46 C 357.383 1333.93 372.088 1354.77 386.366 1361.47 C 409.734 1372.44 448.87 1368.76 474.352 1368.67 L 598.5 1368.57 C 623.337 1368.44 648.174 1368.54 673.01 1368.85 C 695.379 1388.9 721.982 1417.96 744.4 1440 C 715.498 1440.83 684.523 1440.27 655.458 1440.23 L 504.618 1440.17 L 428.467 1440.36 C 410.691 1440.42 387.698 1441.45 370.769 1438.12 C 349.36 1433.91 330.274 1423.2 314.691 1408.2 C 292.345 1386.68 280.533 1360.74 280.51 1329.57 C 280.466 1271.99 280.597 1214.22 280.632 1156.64 L 280.663 815.24 L 280.663 647.041 L 280.715 597.554 C 280.742 589.333 280.544 580.408 281.119 572.279 C 284.537 523.943 321.377 481.156 367.522 467.756 C 381.703 463.637 393.822 463.634 408.25 463.489 z" fill="rgb(252,186,18)" transform="translate(0,0)"></path>
<path d="M 944.96 1497.5 L 1059.54 1497.21 C 1067.61 1497.21 1112.7 1496.31 1117.95 1498.59 C 1193.88 1531.52 1237.82 1602.49 1242.13 1682.98 L 1106.5 1683.06 L 808.723 1683.06 C 809.445 1604.16 858.832 1528.67 932.156 1498.44 C 934.503 1497.48 942.124 1497.52 944.96 1497.5 z" fill="rgb(255,255,255)" transform="translate(0,0)"></path>
<path d="M 656.067 1686.32 C 694.081 1685.02 737.394 1686.39 775.87 1686.35 L 1015.83 1685.95 L 1258.77 1685.95 C 1300.62 1685.95 1342.65 1685.87 1384.51 1686.12 C 1391.75 1686.69 1400.28 1686.16 1406.85 1689.5 C 1429.2 1700.83 1437.21 1731.77 1421.08 1751.6 C 1414.13 1760.14 1406.41 1763.66 1395.77 1766.18 C 1354.64 1767.74 1302 1766.36 1260.11 1766.39 L 994.458 1766.63 L 770.975 1766.65 L 698.4 1766.64 C 679.153 1766.63 644.969 1770.4 632.261 1755.58 C 609.096 1728.57 620.874 1692.71 656.067 1686.32 z" fill="rgb(239,73,68)" transform="translate(0,0)"></path>
<path d="M 1423.61 461.069 C 1423.49 410.061 1415.4 350.368 1489.23 350.361 C 1520.74 350.359 1573.98 345.434 1601.92 356.8 C 1641.84 373.035 1634.83 425.048 1634.77 461.071 L 1570.68 460.974 C 1570.99 449.024 1571.8 432.275 1562.72 423.58 C 1550.83 412.193 1507.13 411.799 1495.35 424.1 C 1488.84 430.906 1488.08 440.557 1488.14 449.411 C 1489.4 454.201 1490.02 456.238 1488.66 461.043 L 1423.61 461.069 z" fill="rgb(248,125,13)" transform="translate(0,0)"></path>
<path d="M 1488.14 449.411 C 1489.4 454.201 1490.02 456.238 1488.66 461.043 C 1487.74 456.086 1487.99 454.505 1488.14 449.411 z" fill="rgb(66,30,5)" transform="translate(0,0)"></path>
<path d="M 474.454 350.447 C 475.228 350.43 476.002 350.421 476.776 350.421 C 497.352 350.311 570.153 348.453 585.529 352.871 C 595.247 355.752 604.068 361.068 611.156 368.315 C 628.853 386.112 627.805 403.433 627.876 426.286 L 627.909 461.069 L 562.937 461.064 C 563.272 447.003 564.474 440.076 558.203 427.378 C 549.58 414.753 535.287 415.761 522.078 415.522 C 505.516 415.222 486.43 415.003 480.93 434.078 C 478.192 443.573 478.911 451.496 479.075 461.06 L 416.15 460.884 C 415.925 413.754 408.87 354.872 474.454 350.447 z" fill="rgb(248,125,13)" transform="translate(0,0)"></path>
<path d="M 811.13 1490.57 C 846.407 1500.13 886.975 1497.64 924.02 1497.56 C 908.809 1506.97 894.496 1515.46 880.642 1526.99 C 841.728 1559.37 819.527 1599.22 809.371 1648.24 C 807.181 1661.08 806.264 1670.65 805.915 1683.61 C 781.845 1684.29 754.056 1684.01 729.953 1683.36 L 729.939 1679.22 C 730.027 1606.08 759.917 1541.78 811.13 1490.57 z" fill="rgb(3,159,213)" transform="translate(0,0)"></path>
<path d="M 1236.43 1491.1 L 1238.44 1490.97 C 1240.73 1492.33 1241.77 1493.28 1243.61 1495.09 C 1292.99 1543.87 1319.84 1614.48 1320.99 1683.1 L 1244.68 1683 C 1244.63 1673.01 1243.41 1661.92 1241.78 1652.06 C 1233.71 1600.18 1201.36 1550.14 1159.44 1519.11 C 1148.36 1510.91 1136.25 1504.05 1124.29 1497.2 C 1160.01 1496.45 1203.08 1500.77 1236.43 1491.1 z" fill="rgb(3,159,213)" transform="translate(0,0)"></path>
<path d="M 499.058 419.206 C 503.033 418.934 507.016 418.786 511 418.763 C 529.124 418.574 552.778 414.206 558.927 435.504 C 560.983 442.627 560.285 453.385 560.281 460.918 L 542.5 460.917 L 481.512 461.052 C 481.418 441.067 478.339 428.633 499.058 419.206 z" fill="rgb(255,255,255)" transform="translate(0,0)"></path>
<path d="M 1516.31 418.462 C 1559.12 418.739 1567.86 414.136 1567.96 460.941 L 1542.5 460.945 L 1490.79 460.892 C 1490.47 440.093 1488.71 419.821 1516.31 418.462 z" fill="rgb(255,255,255)" transform="translate(0,0)"></path>
<metadata><recraft-signature>{"signed_by": "recraft", "signature_b64": "WQWK+Wkj1zOlXBEdadviF9jSvg0dFqc3fZk56Xldx69rAlQrkXeBUBNCQ3n2HGTvFSkTgghZOsJyZ2toOSfaBQ==", "signing_algo": "Ed25519", "generation_timestamp": 1779005960, "identifier": "ccf120ab-3c20-457b-96af-fa4cd5bdf57c"}</recraft-signature></metadata></svg>