<svg xmlns="http://www.w3.org/2000/svg" height="1024" preserveAspectRatio="none" style="display: block;" version="1.1" viewBox="0 0 2048 2048" width="1024">
<path d="M 0 0 L 2048 0 L 2048 2048 L 0 2048 L 0 0 z" fill="rgb(249,253,251)" transform="translate(0,0)"></path>
<path d="M 698.234 453.474 C 708.702 450.481 734.593 434.699 745.798 428.958 C 771.078 416.082 797.212 404.956 824.016 395.66 C 1017.52 328.591 1210.54 338.734 1394.09 431.772 C 1560.27 515.988 1686.66 662.181 1745.98 838.788 C 1805.31 1020.65 1792.59 1200.21 1705.31 1371.25 C 1616.19 1542.11 1463.76 1671.33 1280.6 1731.26 C 1093.97 1791.06 891.229 1774.34 716.911 1684.77 C 583.221 1616.12 478.668 1511.24 399.737 1384.21 C 395.403 1377.24 390.958 1370.32 386.662 1363.32 C 346.424 1309.32 368.877 1237.54 434.02 1218.03 C 458.232 1211.04 484.213 1213.71 506.494 1225.49 C 536.808 1241.8 546.168 1270.62 562.742 1299.23 C 634.989 1423.94 753.836 1520.23 892.289 1561.43 C 903.899 1564.88 934.385 1573.82 945.996 1574.24 C 960.553 1579.98 972.605 1582.36 988.233 1581.3 C 994.209 1582.56 1000.89 1583.59 1006.97 1584.22 C 1290.97 1613.47 1561.35 1406.46 1595.13 1120.17 C 1612.11 982.565 1573.45 843.872 1487.73 734.891 C 1399.61 623.918 1270.86 552.698 1130.02 537.032 C 986.514 520.674 842.329 561.426 728.613 650.485 C 722.419 650.015 685.48 638.899 677.242 636.782 C 633.616 625.573 589.505 611.743 545.857 601.153 C 580.17 566.454 617.744 531.976 652.317 497.312 C 659.833 489.776 692.159 457.299 698.234 453.474 z" fill="rgb(248,91,69)" transform="translate(0,0)"></path>
<path d="M 728.613 650.485 C 736.915 651.355 759.514 658.57 768.422 661.163 C 784.279 665.779 807.771 670.165 822.287 676.514 C 831.743 680.672 840.409 686.435 847.9 693.548 C 884.902 728.762 887.592 786.121 851.671 822.943 C 804.764 871.027 749.972 844.229 695.942 830.108 L 472.99 770.11 L 383.872 746.087 C 369.266 742.134 353.871 738.687 340.312 733.984 C 278.014 712.373 259.103 632.364 305.354 585.374 C 314.147 576.44 323.175 567.37 331.904 558.644 L 390.73 499.902 L 618.547 274.171 C 648.061 245.115 669.295 218.779 714.001 219.432 C 739.431 219.655 763.716 230.036 781.449 248.265 C 798.898 266.564 807.041 289.978 806.296 315.15 C 805.869 329.533 801.756 343.566 794.35 355.903 C 786.276 369.319 770.905 382.958 759.607 394.147 C 739.359 414.139 718.9 433.915 698.234 453.474 C 692.159 457.299 659.833 489.776 652.317 497.312 C 617.744 531.976 580.17 566.454 545.857 601.153 C 589.505 611.743 633.616 625.573 677.242 636.782 C 685.48 638.899 722.419 650.015 728.613 650.485 z" fill="rgb(254,174,3)" transform="translate(0,0)"></path>
<path d="M 1055.82 875.249 C 1057.54 874.63 1097.36 885.807 1105.08 883.204 C 1106.02 882.886 1116.55 883.012 1119.74 882.254 C 1120.17 882.309 1130.35 883.952 1130.2 884.016 C 1140.04 887.893 1159.23 901.011 1164.23 910.051 L 1165.02 910.573 C 1168.01 912.586 1169.83 914.318 1173.26 915.615 C 1169.35 918.443 1171.97 919.646 1174.46 924.432 C 1179.18 933.496 1182.28 942.562 1185.54 952.2 L 1184.37 954.619 C 1184.97 963.063 1185.78 971.167 1186.17 979.656 C 1185.95 986.322 1185.26 1038.08 1186.93 1040.36 L 1188.05 1040.16 C 1186.2 1086.1 1189.78 1132.82 1187.53 1178.73 C 1186.87 1192.17 1171.52 1188.87 1165.67 1190.64 L 1164.77 1191.84 C 1156.89 1190.61 1137.11 1191.17 1128.26 1191.17 L 1046.99 1190.97 C 1038.1 1190.99 1014.36 1191.83 1006.74 1191.04 C 1006.07 1190.86 992.753 1189.83 989.649 1189.33 C 986.425 1185.98 986.375 1185.68 984.466 1181.34 C 981.421 1172.34 982.71 1122.78 982.662 1110.04 C 961.04 1129.09 939.601 1148.34 918.345 1167.8 C 915.078 1170.42 913.292 1172.43 909.676 1174.59 L 909.288 1174.94 C 907.101 1177.49 906.546 1178.44 903.507 1179.52 C 901.096 1182.72 900.627 1183.22 897.256 1185.43 L 896.323 1186.21 C 891.414 1191.17 879.462 1201.73 873.353 1204.54 L 872.262 1205.38 C 823.06 1227.84 771.737 1158.75 827.462 1120.13 C 828.853 1118.66 830.248 1117.6 831.808 1116.32 C 833.546 1114.96 835.297 1113.61 837.061 1112.29 C 838.493 1110.99 839.185 1110.32 840.783 1109.27 C 842.803 1107.45 849.417 1101.41 851.951 1100.66 C 854.379 1098.01 855.027 1097.39 857.879 1095.19 C 912.699 1048.42 963.494 1020.04 984.689 949.545 C 985.395 947.197 993.347 937.454 995.523 932.912 L 996.109 931.449 C 1008.17 902.136 1027.17 887.309 1055.82 875.249 z" fill="rgb(68,198,201)" transform="translate(0,0)"></path>
<path d="M 995.523 932.912 C 1015.07 926.641 1026.84 915.207 1049.97 926.379 C 1060.38 931.406 1072.94 942.626 1076.47 954.014 C 1074.66 956.589 1077.53 962.231 1077.73 966.993 C 1078.05 974.967 1078.32 979.402 1077.02 987.513 C 1076.37 991.538 1072.97 1000.76 1074.36 1002.99 C 1063.03 1037.01 1032.34 1067.47 1005.54 1089.76 C 1000.56 1093.9 987.768 1105.08 984.886 1109.83 L 982.662 1110.04 C 961.04 1129.09 939.601 1148.34 918.345 1167.8 C 915.078 1170.42 913.292 1172.43 909.676 1174.59 L 909.288 1174.94 C 907.101 1177.49 906.546 1178.44 903.507 1179.52 C 901.096 1182.72 900.627 1183.22 897.256 1185.43 L 896.323 1186.21 C 891.414 1191.17 879.462 1201.73 873.353 1204.54 L 872.262 1205.38 C 823.06 1227.84 771.737 1158.75 827.462 1120.13 C 828.853 1118.66 830.248 1117.6 831.808 1116.32 C 833.546 1114.96 835.297 1113.61 837.061 1112.29 C 838.493 1110.99 839.185 1110.32 840.783 1109.27 C 842.803 1107.45 849.417 1101.41 851.951 1100.66 C 854.379 1098.01 855.027 1097.39 857.879 1095.19 C 912.699 1048.42 963.494 1020.04 984.689 949.545 C 985.395 947.197 993.347 937.454 995.523 932.912 z" fill="rgb(3,163,175)" transform="translate(0,0)"></path>
<path d="M 851.951 1100.66 C 854.379 1098.01 855.027 1097.39 857.879 1095.19 C 858.211 1096.03 858.385 1096.81 858.615 1097.67 C 877.369 1120.85 896.86 1143.75 915.872 1166.76 L 918.345 1167.8 C 915.078 1170.42 913.292 1172.43 909.676 1174.59 L 909.288 1174.94 C 907.101 1177.49 906.546 1178.44 903.507 1179.52 C 901.096 1182.72 900.627 1183.22 897.256 1185.43 L 896.323 1186.21 C 891.414 1191.17 879.462 1201.73 873.353 1204.54 L 872.262 1205.38 C 823.06 1227.84 771.737 1158.75 827.462 1120.13 C 828.853 1118.66 830.248 1117.6 831.808 1116.32 C 833.546 1114.96 835.297 1113.61 837.061 1112.29 C 838.493 1110.99 839.185 1110.32 840.783 1109.27 C 842.803 1107.45 849.417 1101.41 851.951 1100.66 z" fill="rgb(240,184,169)" transform="translate(0,0)"></path>
<path d="M 827.462 1120.13 L 828.956 1121.03 C 818.793 1129.96 809.417 1136.65 806.286 1150.53 C 802.272 1168.32 809.548 1188.3 824.911 1198.17 C 831.567 1202.84 835.369 1206.34 844.605 1207.57 C 854.873 1210.1 863.364 1204.92 872.262 1205.38 C 823.06 1227.84 771.737 1158.75 827.462 1120.13 z" fill="rgb(161,128,118)" transform="translate(0,0)"></path>
<path d="M 894.78 1185.58 L 896.323 1186.21 C 891.414 1191.17 879.462 1201.73 873.353 1204.54 C 878.583 1198.45 888.647 1191.56 894.78 1185.58 z" fill="rgb(161,128,118)" transform="translate(0,0)"></path>
<path d="M 840.783 1109.27 C 842.803 1107.45 849.417 1101.41 851.951 1100.66 C 851.378 1102.79 843.249 1109.7 841.049 1111.3 L 840.783 1109.27 z" fill="rgb(161,128,118)" transform="translate(0,0)"></path>
<path d="M 915.872 1166.76 L 918.345 1167.8 C 915.078 1170.42 913.292 1172.43 909.676 1174.59 C 912.017 1171.21 913.857 1170.07 915.872 1166.76 z" fill="rgb(129,107,106)" transform="translate(0,0)"></path>
<path d="M 851.951 1100.66 C 854.379 1098.01 855.027 1097.39 857.879 1095.19 C 858.211 1096.03 858.385 1096.81 858.615 1097.67 C 856.082 1098.22 854.393 1099.58 851.951 1100.66 z" fill="rgb(145,93,85)" transform="translate(0,0)"></path>
<path d="M 896.733 1184.05 C 899.393 1182.17 900.673 1181.02 903.507 1179.52 C 901.096 1182.72 900.627 1183.22 897.256 1185.43 L 896.733 1184.05 z" fill="rgb(129,107,106)" transform="translate(0,0)"></path>
<path d="M 903.507 1179.52 C 905.294 1176.52 906.103 1176.13 909.288 1174.94 C 907.101 1177.49 906.546 1178.44 903.507 1179.52 z" fill="rgb(129,107,106)" transform="translate(0,0)"></path>
<path d="M 831.808 1116.32 C 833.546 1114.96 835.297 1113.61 837.061 1112.29 L 835.505 1115.78 C 835.026 1116.05 834.507 1116.65 834.12 1117.05 L 831.808 1116.32 z" fill="rgb(129,107,106)" transform="translate(0,0)"></path>
<path d="M 827.462 1120.13 C 828.853 1118.66 830.248 1117.6 831.808 1116.32 L 830.902 1119.33 C 830.272 1119.75 829.509 1120.52 828.956 1121.03 L 827.462 1120.13 z" fill="rgb(129,107,106)" transform="translate(0,0)"></path>
<path d="M 837.061 1112.29 C 838.493 1110.99 839.185 1110.32 840.783 1109.27 L 841.049 1111.3 C 840.364 1111.74 839.513 1112.6 838.923 1113.15 L 837.061 1112.29 z" fill="rgb(129,107,106)" transform="translate(0,0)"></path>
<path d="M 837.061 1112.29 L 838.923 1113.15 C 837.823 1114.18 836.725 1114.89 835.505 1115.78 L 837.061 1112.29 z" fill="rgb(203,156,143)" transform="translate(0,0)"></path>
<path d="M 831.808 1116.32 L 834.12 1117.05 C 833.019 1118.01 832.129 1118.52 830.902 1119.33 L 831.808 1116.32 z" fill="rgb(203,156,143)" transform="translate(0,0)"></path>
<path d="M 989.649 1189.33 C 1006.58 1188.75 1160.21 1187.45 1165.67 1190.64 L 1164.77 1191.84 C 1156.89 1190.61 1137.11 1191.17 1128.26 1191.17 L 1046.99 1190.97 C 1038.1 1190.99 1014.36 1191.83 1006.74 1191.04 C 1006.07 1190.86 992.753 1189.83 989.649 1189.33 z" fill="rgb(1,141,151)" transform="translate(0,0)"></path>
<path d="M 1074.36 1002.99 C 1072.97 1000.76 1076.37 991.538 1077.02 987.513 C 1078.32 979.402 1078.05 974.967 1077.73 966.993 C 1077.53 962.231 1074.66 956.589 1076.47 954.014 C 1082.81 966.443 1080.89 990.859 1074.36 1002.99 z" fill="rgb(1,141,151)" transform="translate(0,0)"></path>
<path d="M 1164.23 910.051 L 1165.02 910.573 C 1168.01 912.586 1169.83 914.318 1173.26 915.615 C 1169.35 918.443 1171.97 919.646 1174.46 924.432 C 1179.18 933.496 1182.28 942.562 1185.54 952.2 L 1184.37 954.619 C 1178.63 931.648 1174.86 929.489 1164.72 910.951 L 1164.23 910.051 z" fill="rgb(11,91,99)" transform="translate(0,0)"></path>
<path d="M 1157.96 639.223 C 1186.39 578.305 1266.68 582.196 1286.62 642.328 C 1292.42 659.497 1291.11 678.274 1282.97 694.467 C 1271.81 716.157 1252.81 726.714 1229.72 731.594 C 1234.75 766.73 1228.54 783.765 1216.23 815.271 L 1213.76 819.059 C 1211.43 824.22 1206.88 831.943 1202.52 835.561 L 1202.28 835.976 C 1199.51 841.289 1182.52 859.423 1177.03 860.248 C 1173.82 863.879 1173.87 863.657 1169.08 865.789 L 1167.85 866.593 C 1164.56 869.435 1163.54 869.743 1159.5 871.249 L 1159.28 871.667 C 1155.39 873.759 1128.46 883.28 1128.93 882.528 C 1129.1 883 1129.93 883.73 1130.2 884.016 C 1130.35 883.952 1120.17 882.309 1119.74 882.254 C 1116.55 883.012 1106.02 882.886 1105.08 883.204 C 1097.36 885.807 1057.54 874.63 1055.82 875.249 L 1050.92 872.644 C 1045.43 870.152 1037.49 866.743 1033.13 862.588 L 1031.9 861.801 C 1026.65 859.523 1025.17 858.218 1020.65 854.565 L 1019.28 853.482 C 1008.43 843.867 995.206 829.519 989.788 815.899 L 989.443 815.635 C 966.236 774.939 971.56 723.707 997.031 685.426 C 1008.96 665.939 1027.81 651.724 1047.91 641.423 C 1083.7 623.073 1121.4 623.685 1157.96 639.223 z" fill="rgb(89,38,21)" transform="translate(0,0)"></path>
<path d="M 997.906 685.748 C 1012 682.075 1034.25 676.216 1048.43 674.522 C 1068.04 725.235 1083.85 768.497 1138.62 792.833 C 1153.45 799.323 1168.89 804.301 1184.72 807.691 C 1190.81 809.047 1211.52 813.194 1216.23 815.271 L 1213.76 819.059 C 1211.43 824.22 1206.88 831.943 1202.52 835.561 L 1202.28 835.976 C 1199.51 841.289 1182.52 859.423 1177.03 860.248 C 1173.82 863.879 1173.87 863.657 1169.08 865.789 L 1167.85 866.593 C 1164.56 869.435 1163.54 869.743 1159.5 871.249 L 1159.28 871.667 C 1155.39 873.759 1128.46 883.28 1128.93 882.528 C 1129.1 883 1129.93 883.73 1130.2 884.016 C 1130.35 883.952 1120.17 882.309 1119.74 882.254 C 1116.55 883.012 1106.02 882.886 1105.08 883.204 C 1097.36 885.807 1057.54 874.63 1055.82 875.249 L 1050.92 872.644 C 1045.43 870.152 1037.49 866.743 1033.13 862.588 L 1031.9 861.801 C 1026.65 859.523 1025.17 858.218 1020.65 854.565 L 1019.28 853.482 C 1008.43 843.867 995.206 829.519 989.788 815.899 L 989.443 815.635 C 966.236 774.939 971.56 723.707 997.031 685.426 L 997.906 685.748 z" fill="rgb(240,184,169)" transform="translate(0,0)"></path>
<path d="M 997.031 685.426 L 997.906 685.748 C 997.24 689.69 989.921 699.533 987.587 704.795 C 976.898 728.891 974.341 756.298 978.663 782.168 C 980.077 790.744 989.615 811.441 989.443 815.635 C 966.236 774.939 971.56 723.707 997.031 685.426 z" fill="rgb(161,128,118)" transform="translate(0,0)"></path>
<path d="M 989.788 815.899 C 994.035 818.244 993.779 820.651 996.42 824.69 C 1002.98 834.723 1010.24 844.158 1019.87 851.581 L 1019.28 853.482 C 1008.43 843.867 995.206 829.519 989.788 815.899 z" fill="rgb(161,128,118)" transform="translate(0,0)"></path>
<path d="M 1119.74 882.254 C 1128.26 879.478 1138.18 879.049 1146.73 875.544 C 1150.37 874.053 1155.52 871.375 1159.28 871.667 C 1155.39 873.759 1128.46 883.28 1128.93 882.528 C 1129.1 883 1129.93 883.73 1130.2 884.016 C 1130.35 883.952 1120.17 882.309 1119.74 882.254 z" fill="rgb(161,128,118)" transform="translate(0,0)"></path>
<path d="M 1177.03 860.248 C 1176.7 861.096 1201.76 836.302 1202.28 835.976 C 1199.51 841.289 1182.52 859.423 1177.03 860.248 z" fill="rgb(161,128,118)" transform="translate(0,0)"></path>
<path d="M 1033.13 862.588 C 1037.82 863.915 1048.86 868.169 1050.92 872.644 C 1045.43 870.152 1037.49 866.743 1033.13 862.588 z" fill="rgb(203,156,143)" transform="translate(0,0)"></path>
<path d="M 1202.52 835.561 L 1202.78 834.464 C 1203.54 831.119 1211.19 821.336 1213.76 819.059 C 1211.43 824.22 1206.88 831.943 1202.52 835.561 z" fill="rgb(203,156,143)" transform="translate(0,0)"></path>
<path d="M 1019.87 851.581 C 1022.5 852.24 1030.16 859.784 1031.9 861.801 C 1026.65 859.523 1025.17 858.218 1020.65 854.565 L 1019.28 853.482 L 1019.87 851.581 z" fill="rgb(203,156,143)" transform="translate(0,0)"></path>
<path d="M 1169.08 865.789 C 1172.05 861.646 1171.88 862.127 1177.03 860.248 C 1173.82 863.879 1173.87 863.657 1169.08 865.789 z" fill="rgb(203,156,143)" transform="translate(0,0)"></path>
<path d="M 1159.5 871.249 C 1162.67 868.176 1163.61 867.774 1167.85 866.593 C 1164.56 869.435 1163.54 869.743 1159.5 871.249 z" fill="rgb(161,128,118)" transform="translate(0,0)"></path>
<path d="M 1006.74 1191.04 C 1014.36 1191.83 1038.1 1190.99 1046.99 1190.97 L 1128.26 1191.17 C 1137.11 1191.17 1156.89 1190.61 1164.77 1191.84 L 1161.44 1195.72 C 1162.04 1198.18 1162.29 1198.72 1163.24 1201.14 L 1163.53 1201.91 C 1156.86 1198.37 1158.89 1202.94 1153.48 1208.13 C 1151.41 1210.11 1149.17 1213.88 1147.38 1216.29 L 1144.82 1219.83 C 1142.39 1223.2 1138.69 1229.8 1134.54 1230.89 L 1134.15 1231.36 C 1131.75 1234.22 1131.4 1234.63 1129.52 1237.84 L 1128.57 1239.28 C 1128.03 1239.92 1127.2 1241.26 1126.76 1241.92 L 1125.56 1243.09 L 1124.49 1244.49 L 1120.22 1250.5 L 1119.47 1251.49 L 1115.24 1257.56 C 1114.69 1258.36 1114.27 1259.12 1113.78 1259.96 L 1113.25 1260.4 C 1111.17 1262.92 1110.37 1264.12 1108.61 1266.92 L 1107.59 1268.06 L 1106.47 1269.45 L 1102.23 1275.57 L 1100.92 1277.06 L 1099.42 1279.38 C 1098.84 1280.24 1098.37 1281.08 1097.84 1281.97 L 1097.27 1282.39 C 1094.72 1285.32 1094.55 1285.4 1092.52 1288.87 L 1091.59 1290.05 C 1091.03 1290.77 1090.22 1292.14 1089.76 1292.89 L 1088.56 1294.1 C 1087.91 1295.06 1087.4 1295.99 1086.81 1296.99 L 1086.26 1297.4 C 1083.42 1300.56 1082.89 1301.4 1080.63 1304.96 L 1080.22 1305.41 C 1080.54 1307.9 1080.41 1308.25 1078.71 1310.42 C 1077.82 1311.55 1076.91 1312.66 1076 1313.77 L 1076.62 1314.46 C 1069.44 1319.67 1047.77 1351.31 1046.76 1360.87 C 1045.89 1369.25 1046.02 1383.03 1045.74 1391.96 C 1044.83 1416.73 1044.23 1441.52 1043.93 1466.31 C 1043.61 1483.41 1044.03 1523.36 1039.48 1538.03 C 1035.72 1550.18 1028.22 1560.84 1018.04 1568.47 C 1008.13 1575.91 999.968 1578.2 988.233 1581.3 C 972.605 1582.36 960.553 1579.98 945.996 1574.24 L 941.307 1570.88 C 901.766 1542.41 915.587 1504.95 914.81 1462.97 C 914.678 1455.88 915.287 1448.36 915.49 1441.24 C 915.97 1418.87 916.566 1396.49 917.278 1374.12 C 917.684 1361.16 917.056 1346.84 920.027 1334.21 C 925.119 1312.58 990.269 1213.76 1006.74 1191.04 z" fill="rgb(3,163,175)" transform="translate(0,0)"></path>
<path d="M 1134.54 1230.89 C 1136.82 1227.35 1159.53 1196.74 1161.44 1195.72 C 1162.04 1198.18 1162.29 1198.72 1163.24 1201.14 L 1163.53 1201.91 C 1156.86 1198.37 1158.89 1202.94 1153.48 1208.13 C 1151.41 1210.11 1149.17 1213.88 1147.38 1216.29 L 1144.82 1219.83 C 1142.39 1223.2 1138.69 1229.8 1134.54 1230.89 z" fill="rgb(11,91,99)" transform="translate(0,0)"></path>
<path d="M 1080.22 1305.41 C 1080.54 1307.9 1080.41 1308.25 1078.71 1310.42 C 1077.82 1311.55 1076.91 1312.66 1076 1313.77 C 1075.11 1310.47 1078.08 1308.03 1080.22 1305.41 z" fill="rgb(11,91,99)" transform="translate(0,0)"></path>
<path d="M 1134.54 1230.89 C 1138.69 1229.8 1142.39 1223.2 1144.82 1219.83 L 1147.38 1216.29 C 1149.17 1213.88 1151.41 1210.11 1153.48 1208.13 C 1158.89 1202.94 1156.86 1198.37 1163.53 1201.91 L 1163.8 1202.91 C 1166.15 1211.6 1169.49 1221.17 1172.55 1229.71 C 1184.62 1263.44 1192.77 1299.79 1207.36 1332.37 C 1209.22 1336.51 1226.65 1351.11 1230.66 1354.58 L 1282.08 1398.99 C 1314.54 1427.07 1349.9 1452.96 1323.75 1502.9 C 1314.92 1519.75 1301.04 1529.75 1282.71 1534.67 C 1266.64 1539.15 1249.44 1536.95 1235.01 1528.57 C 1216.98 1517.9 1184.89 1479.29 1169.15 1463.34 C 1146.87 1440.75 1122.18 1415.59 1103.51 1390.12 C 1095.84 1378.41 1081.18 1329.38 1076.62 1314.46 L 1076 1313.77 C 1076.91 1312.66 1077.82 1311.55 1078.71 1310.42 C 1080.41 1308.25 1080.54 1307.9 1080.22 1305.41 L 1080.63 1304.96 C 1082.89 1301.4 1083.42 1300.56 1086.26 1297.4 L 1086.81 1296.99 C 1087.4 1295.99 1087.91 1295.06 1088.56 1294.1 L 1089.76 1292.89 C 1090.22 1292.14 1091.03 1290.77 1091.59 1290.05 L 1092.52 1288.87 C 1094.55 1285.4 1094.72 1285.32 1097.27 1282.39 L 1097.84 1281.97 C 1098.37 1281.08 1098.84 1280.24 1099.42 1279.38 L 1100.92 1277.06 L 1102.23 1275.57 L 1106.47 1269.45 L 1107.59 1268.06 L 1108.61 1266.92 C 1110.37 1264.12 1111.17 1262.92 1113.25 1260.4 L 1113.78 1259.96 C 1114.27 1259.12 1114.69 1258.36 1115.24 1257.56 L 1119.47 1251.49 L 1120.22 1250.5 L 1124.49 1244.49 L 1125.56 1243.09 L 1126.76 1241.92 C 1127.2 1241.26 1128.03 1239.92 1128.57 1239.28 L 1129.52 1237.84 C 1131.4 1234.63 1131.75 1234.22 1134.15 1231.36 L 1134.54 1230.89 z" fill="rgb(1,141,151)" transform="translate(0,0)"></path>
<path d="M 1086.26 1297.4 C 1086.23 1300.95 1084.02 1303.89 1080.63 1304.96 C 1082.89 1301.4 1083.42 1300.56 1086.26 1297.4 z" fill="rgb(11,91,99)" transform="translate(0,0)"></path>
<path d="M 1134.15 1231.36 C 1134.39 1234.76 1132.85 1237.04 1129.52 1237.84 C 1131.4 1234.63 1131.75 1234.22 1134.15 1231.36 z" fill="rgb(11,91,99)" transform="translate(0,0)"></path>
<path d="M 1097.27 1282.39 C 1097.33 1285.76 1095.81 1288.03 1092.52 1288.87 C 1094.55 1285.4 1094.72 1285.32 1097.27 1282.39 z" fill="rgb(11,91,99)" transform="translate(0,0)"></path>
<path d="M 1113.25 1260.4 C 1113.34 1263.69 1111.79 1265.98 1108.61 1266.92 C 1110.37 1264.12 1111.17 1262.92 1113.25 1260.4 z" fill="rgb(11,91,99)" transform="translate(0,0)"></path>
<path d="M 1088.56 1294.1 C 1089.24 1296.23 1088.93 1296.23 1086.81 1296.99 C 1087.4 1295.99 1087.91 1295.06 1088.56 1294.1 z" fill="rgb(11,91,99)" transform="translate(0,0)"></path>
<path d="M 1091.59 1290.05 C 1092.26 1292.22 1091.93 1292.24 1089.76 1292.89 C 1090.22 1292.14 1091.03 1290.77 1091.59 1290.05 z" fill="rgb(11,91,99)" transform="translate(0,0)"></path>
<path d="M 1099.42 1279.38 C 1100.39 1281.27 1099.75 1281.29 1097.84 1281.97 C 1098.37 1281.08 1098.84 1280.24 1099.42 1279.38 z" fill="rgb(11,91,99)" transform="translate(0,0)"></path>
<path d="M 1102.23 1275.57 C 1103 1277.08 1103.58 1277.47 1100.92 1277.06 L 1102.23 1275.57 z" fill="rgb(11,91,99)" transform="translate(0,0)"></path>
<path d="M 1128.57 1239.28 C 1129.31 1241.29 1128.77 1241.29 1126.76 1241.92 C 1127.2 1241.26 1128.03 1239.92 1128.57 1239.28 z" fill="rgb(11,91,99)" transform="translate(0,0)"></path>
<path d="M 1107.59 1268.06 C 1108.09 1269.62 1108.35 1270.86 1106.47 1269.45 L 1107.59 1268.06 z" fill="rgb(11,91,99)" transform="translate(0,0)"></path>
<path d="M 1125.56 1243.09 C 1126.09 1244.6 1126.36 1245.86 1124.49 1244.49 L 1125.56 1243.09 z" fill="rgb(11,91,99)" transform="translate(0,0)"></path>
<path d="M 1115.24 1257.56 C 1116.56 1259.32 1115.61 1259.27 1113.78 1259.96 C 1114.27 1259.12 1114.69 1258.36 1115.24 1257.56 z" fill="rgb(11,91,99)" transform="translate(0,0)"></path>
<path d="M 1120.22 1250.5 C 1120.68 1251.42 1121.81 1253.18 1119.47 1251.49 L 1120.22 1250.5 z" fill="rgb(11,91,99)" transform="translate(0,0)"></path>
<path d="M 1173.26 915.615 C 1223.53 945.44 1264.75 988.367 1292.52 1039.81 C 1304.07 1061.33 1311.22 1080.23 1320.94 1101.76 C 1327.45 1122.78 1336.93 1143.56 1341.73 1165.01 C 1343.27 1171.89 1341.33 1181.58 1337.84 1187.7 C 1337.12 1189.82 1336.05 1192.98 1333.97 1194.22 C 1328.22 1204.25 1317.22 1210.79 1305.98 1212.77 C 1297.63 1214.24 1279.85 1213.67 1273.96 1207.06 C 1272.32 1206.56 1271.92 1206.62 1270.79 1205.69 C 1266.02 1201.96 1263.32 1199.57 1260.29 1194.44 L 1259.43 1193.1 C 1252.52 1184.9 1241.8 1149.11 1237.71 1137.27 C 1228.09 1110.33 1207.24 1060.14 1188.05 1040.16 L 1186.93 1040.36 C 1185.26 1038.08 1185.95 986.322 1186.17 979.656 C 1185.78 971.167 1184.97 963.063 1184.37 954.619 L 1185.54 952.2 C 1182.28 942.562 1179.18 933.496 1174.46 924.432 C 1171.97 919.646 1169.35 918.443 1173.26 915.615 z" fill="rgb(3,163,175)" transform="translate(0,0)"></path>
<path d="M 1320.94 1101.76 C 1327.45 1122.78 1336.93 1143.56 1341.73 1165.01 C 1343.27 1171.89 1341.33 1181.58 1337.84 1187.7 C 1337.12 1189.82 1336.05 1192.98 1333.97 1194.22 C 1328.22 1204.25 1317.22 1210.79 1305.98 1212.77 C 1297.63 1214.24 1279.85 1213.67 1273.96 1207.06 C 1272.32 1206.56 1271.92 1206.62 1270.79 1205.69 C 1266.02 1201.96 1263.32 1199.57 1260.29 1194.44 L 1259.43 1193.1 C 1252.52 1184.9 1241.8 1149.11 1237.71 1137.27 L 1239.61 1137.85 C 1265.97 1125.63 1294.02 1116.6 1319.66 1104.56 C 1320.07 1103.56 1320.36 1102.63 1320.94 1101.76 z" fill="rgb(240,184,169)" transform="translate(0,0)"></path>
<path d="M 1320.94 1101.76 C 1327.45 1122.78 1336.93 1143.56 1341.73 1165.01 C 1343.27 1171.89 1341.33 1181.58 1337.84 1187.7 C 1337.64 1186.79 1337.48 1186.4 1337.81 1185.49 C 1346.47 1161.51 1327.93 1131.74 1321.2 1108.49 C 1320.69 1106.71 1320.47 1106.2 1319.66 1104.56 C 1320.07 1103.56 1320.36 1102.63 1320.94 1101.76 z" fill="rgb(161,128,118)" transform="translate(0,0)"></path>
<path d="M 1273.96 1207.06 C 1279.92 1208.36 1284.1 1211 1291.01 1211.66 C 1302.59 1212.77 1313.33 1210.69 1322.97 1203.96 C 1326.44 1201.54 1329.63 1197.04 1332.09 1195.42 L 1333.97 1194.22 C 1328.22 1204.25 1317.22 1210.79 1305.98 1212.77 C 1297.63 1214.24 1279.85 1213.67 1273.96 1207.06 z" fill="rgb(161,128,118)" transform="translate(0,0)"></path>
<path d="M 1237.71 1137.27 L 1239.61 1137.85 C 1245.32 1154.81 1251.8 1174.62 1259.05 1191.12 C 1259.17 1191.78 1259.3 1192.44 1259.43 1193.1 C 1252.52 1184.9 1241.8 1149.11 1237.71 1137.27 z" fill="rgb(161,128,118)" transform="translate(0,0)"></path>
<path d="M 1260.29 1194.44 C 1264.41 1197.55 1266.49 1200.38 1270.75 1203.6 L 1270.79 1205.69 C 1266.02 1201.96 1263.32 1199.57 1260.29 1194.44 z" fill="rgb(129,107,106)" transform="translate(0,0)"></path>
<path d="M 1270.75 1203.6 C 1273.24 1204.14 1272.99 1204.68 1273.96 1207.06 C 1272.32 1206.56 1271.92 1206.62 1270.79 1205.69 L 1270.75 1203.6 z" fill="rgb(203,156,143)" transform="translate(0,0)"></path>
<path d="M 1185.54 952.2 C 1187.53 959.875 1188.65 972.04 1186.17 979.656 C 1185.78 971.167 1184.97 963.063 1184.37 954.619 L 1185.54 952.2 z" fill="rgb(1,141,151)" transform="translate(0,0)"></path>
<metadata><recraft-signature>{"signed_by": "recraft", "signature_b64": "L3SIlo/Ph6aZ7Vt3XwpYGgVJP6x1L3WNfc3sHyYSEuzWOz/gzcdyDIG1IW4aoOhWXFyHTjJR7RlASYwTaGlnAQ==", "signing_algo": "Ed25519", "generation_timestamp": 1779092714, "identifier": "1487676c-e69d-4ede-a21f-1a3ec6149572"}</recraft-signature></metadata></svg>