<svg xmlns="http://www.w3.org/2000/svg" height="1152" preserveAspectRatio="none" style="display: block;" version="1.1" viewBox="0 0 1593 2048" width="896">
<path d="M 0 0 L 1593 0 L 1593 2048 L 0 2048 L 0 0 z" fill="rgb(255,255,255)" transform="translate(0,0)"></path>
<path d="M 819.971 598.326 C 840.587 596.117 856.353 607.532 863.555 626.416 C 894.084 619.971 931.944 606.061 959.403 625.959 C 968.082 632.219 974.863 640.756 978.997 650.627 C 983.631 661.608 985.399 676.087 987.156 687.981 C 991.087 714.588 996.393 740.993 1000.63 767.523 C 1014.01 763.701 1024.51 764.746 1037.46 770.302 C 1054.59 777.652 1057.91 790.461 1064 806.554 L 1073.98 833.044 C 1097.39 841.751 1116.84 844.911 1108.91 875.348 C 1112.52 883.228 1143.18 885.087 1122.16 919.138 C 1153.21 943.182 1139.3 967.906 1132.16 1001.11 L 1114.41 1085.12 C 1146.74 1134.76 1180.7 1184.27 1213.71 1233.56 L 1325.89 1400.89 C 1291.2 1413.95 1256.63 1427.31 1222.17 1440.95 C 1201.48 1449.05 1177.86 1457.76 1157.82 1466.89 C 1154.41 1454.45 1148.46 1439.6 1143.86 1427.28 C 1136.26 1406.89 1128.53 1386.55 1120.69 1366.26 C 1096.56 1303.63 1070.98 1241.58 1043.97 1180.14 C 1034.26 1158.15 1023.53 1136.29 1013.62 1114.29 C 1009.26 1112.59 1004.98 1110.69 1000.79 1108.6 C 971.991 1094.2 944.301 1058.92 933.951 1028.23 L 681.78 1077.97 L 576.908 1098.49 C 577.987 1139.4 564.337 1176.66 536.489 1206.74 C 534.824 1247.39 534.73 1290.21 533.734 1331.02 L 528.101 1578.05 C 466.953 1578.05 404.64 1580.34 343.407 1581.09 C 354.589 1542.67 364.076 1500.87 374.76 1462.07 C 396.852 1381.83 416.433 1300.56 438.427 1220.33 C 424.623 1201.92 357.791 1113.24 353.485 1099.97 C 349.271 1086.97 352.674 1076.74 358.518 1065 C 339.268 1054.55 342.027 1038.18 353.58 1022.88 C 335.546 997.778 351.417 986.782 368.08 968.16 C 367.315 949.479 363.757 928.784 363.884 910.824 C 371.551 896.529 382.696 880.998 398.529 875.356 C 395.429 848.739 381.01 788.06 383.211 764.622 C 384.237 754.409 387.802 744.615 393.582 736.132 C 411.577 709.462 446.385 708.478 477.209 702.697 C 476.928 682.57 486.447 667.111 506.029 660.343 C 532.76 651.103 568.02 650.252 578.364 682.702 C 598.694 679.621 623.935 673.9 644.472 669.817 L 763.188 645.999 C 761.331 609.071 791.348 603.138 819.971 598.326 z" fill="rgb(3,3,2)" transform="translate(0,0)"></path>
<path d="M 401.274 874.919 C 398.925 852.162 393.352 827.089 390.377 804.271 C 388.678 791.237 385.369 778.244 386.46 764.921 C 387.193 755.838 390.155 747.076 395.082 739.41 C 404.802 724.236 416.659 718.043 433.597 714.434 C 488.866 703.126 544.216 692.213 599.642 681.697 L 789.413 644.26 C 816.564 639.04 843.675 633.616 870.745 627.987 C 897.686 622.317 930.825 610.529 955.493 626.866 C 964.511 632.878 971.614 641.352 975.958 651.281 C 981.396 663.712 984.931 692.814 987.338 708.003 C 990.408 728.457 994.014 748.827 998.151 769.092 C 994.274 770.357 990.404 771.645 986.542 772.955 C 974.615 776.978 951.008 782.865 946.328 794.406 C 944.33 798.814 943.706 805.411 945.937 809.979 C 955.95 830.473 978.85 817.818 992.624 811.762 L 993.897 813.854 C 978.594 824.114 962.613 834.264 947.904 845.27 C 933.955 855.709 934.798 869.489 945.798 881.584 C 925.764 895.357 922.895 917.869 948.568 925.285 C 946.864 928.713 944.923 932.481 944.317 936.293 C 943.344 942.405 944.683 948.079 948.354 953.059 C 951.646 957.528 956.144 960.583 961.712 961.288 C 976.945 963.216 1012.74 931.935 1025.38 922.556 C 1034.43 931.266 1042.41 940.237 1050.61 949.72 C 1049.61 983.525 1035.54 1004.53 1001.1 1011.55 C 983.931 1015.05 966.329 1018.48 949.165 1022.02 L 757.279 1059.67 L 592.715 1092.41 C 566.077 1097.77 530.291 1106.2 504.004 1110.05 C 496.122 1111.22 488.079 1110.57 480.486 1108.15 C 466.097 1103.53 452.535 1093.29 446.163 1079.56 C 434.874 1055.24 440.431 1048.72 448.048 1026.03 C 464.125 1030.62 480.255 1034.82 496.41 1038.88 C 512.47 1042.92 527.626 1039.69 529.832 1020.75 C 530.993 1010.77 525.075 1005.35 518.036 999.758 C 524.304 995.195 528.174 991.772 530.168 983.906 C 531.418 978.859 530.592 973.522 527.873 969.091 C 522.779 960.649 515.128 958.52 506.42 956.473 C 506.794 954.133 507.129 951.787 507.424 949.435 C 510.698 922.472 485.397 922.584 466.647 919.215 C 454.711 917.07 442.328 914.064 430.195 914.067 C 424.993 914.068 417.777 919.488 412.742 919.17 L 411.246 916.678 C 411.034 905.487 459.11 906.545 463.731 891.115 C 477.254 845.961 417.024 870.262 401.274 874.919 z" fill="rgb(210,153,75)" transform="translate(0,0)"></path>
<path d="M 433.211 983.171 C 451.575 981.16 493.738 995.791 512.773 1001.2 C 526.184 1005 533.526 1026.78 517.397 1035.74 C 514.929 1037.12 512.143 1037.82 509.318 1037.79 C 500.445 1037.58 457.256 1025.29 446.057 1022.26 C 440.979 1039.85 432.034 1061.98 425.74 1079.77 C 487.87 1116.59 538.661 1142.91 533.176 1224.33 C 531.73 1245.79 531.614 1272.02 531.265 1293.75 L 525.117 1575.34 C 509.102 1575.11 492.318 1575.68 476.25 1575.98 C 433.15 1576.33 390.076 1578.16 347.049 1577.94 C 358.015 1543.82 369.131 1496.06 378.515 1460.67 L 441.689 1219.44 C 425.784 1199.95 409.147 1175.1 395.332 1155.9 C 359.655 1105.31 332.781 1093.08 382.766 1038.07 C 398.823 1020.4 406.876 993.622 433.211 983.171 z" fill="rgb(188,139,111)" transform="translate(0,0)"></path>
<path d="M 1024.35 875.208 C 1049.43 876.007 1096.85 909.202 1120.46 921.858 C 1149.4 937.371 1134.7 974.168 1129.19 999.987 L 1111.13 1086.06 C 1129.02 1111.22 1146.6 1139.23 1164.1 1164.95 C 1216.84 1242.47 1267.94 1322.06 1321.15 1399.19 L 1173.74 1456.41 L 1159.91 1461.83 C 1134.3 1391.86 1107.27 1322.4 1078.85 1253.52 C 1067.97 1227.2 1056.66 1201.06 1044.94 1175.11 C 1037.56 1158.57 1029.61 1141.12 1022.03 1124.98 C 1000.15 1078.34 1017.32 1033.18 1045.91 994.344 C 1053.53 983.995 1059.82 973.136 1068.44 962.813 C 1053.96 949.783 1040.42 932.645 1025.6 918.439 C 1007.68 931.15 990.378 946.402 971.277 957.05 C 957.524 964.717 941.047 944.873 949.152 931.948 C 955.313 922.701 967.213 913.533 976.449 907.17 C 990.25 897.661 1008.57 879.478 1024.35 875.208 z" fill="rgb(188,139,111)" transform="translate(0,0)"></path>
<path d="M 1019.27 842.327 C 1041.73 843.714 1089.85 874.013 1113.46 882.313 C 1129.1 887.813 1127.61 904.629 1119.77 917.59 C 1102.58 907.687 1052.5 877.904 1035.25 872.978 C 1030.99 872.002 1026.45 871.602 1022.17 872.668 C 1005.86 876.723 981.758 899.565 967.742 910.318 C 962.524 914.322 956.778 919.354 950.248 920.873 C 946.798 921.676 943.153 921.378 940.229 919.225 C 936.64 916.583 934.468 911.438 933.766 907.164 C 932.897 901.872 934.472 896.989 937.727 892.801 C 942.528 886.623 993.154 851.939 1002.09 847.379 C 1007.85 844.437 1012.87 843.123 1019.27 842.327 z" fill="rgb(188,139,111)" transform="translate(0,0)"></path>
<path d="M 429.186 949.305 C 450.617 945.936 489.618 958.752 512.165 961.306 C 527.645 963.06 530.954 987.104 524.378 991.395 C 502.645 1005.58 461.262 976.274 435.515 979.697 C 422.005 981.493 412.508 992.703 404.619 1002.8 C 393.217 1018.4 373.829 1046.65 359.735 1061.59 C 357.12 1064.37 351.744 1057.23 350.402 1054.13 C 347.637 1047.7 347.673 1040.42 350.5 1034.02 C 353.871 1026.21 402.729 970.443 412.371 959.962 C 416.616 955.349 423.315 951.782 429.186 949.305 z" fill="rgb(188,139,111)" transform="translate(0,0)"></path>
<path d="M 1045.82 984.93 L 1048.08 985.058 C 1047.23 986.52 1045.86 988.537 1044.89 989.973 C 1016.37 1032.28 1002.25 1059.03 1012.79 1110.5 C 1011.52 1109.99 1010.24 1109.46 1008.98 1108.93 C 973.783 1093.98 950.908 1061.97 937.098 1027.51 C 953.499 1023.56 971.22 1020.82 987.771 1017.34 C 1015.64 1011.48 1029.68 1009.17 1045.82 984.93 z" fill="rgb(188,139,111)" transform="translate(0,0)"></path>
<path d="M 425.271 918.223 C 441.519 916.599 458.452 920.922 474.442 923.435 C 499.917 927.439 505.777 930.501 503.525 956.619 C 483.119 953.448 454.77 944.953 434.716 945.751 C 417.324 946.443 403.864 963.565 393.707 976.003 C 381.379 991.092 368.763 1005.94 355.864 1020.55 C 348.401 1010.62 348.77 1006.94 349.231 995.159 C 351.023 992.717 355.12 987.651 357.291 985.597 C 377.678 966.307 398.82 927.753 425.271 918.223 z" fill="rgb(188,139,111)" transform="translate(0,0)"></path>
<path d="M 1003.22 813.196 C 1005.21 812.885 1007.22 812.727 1009.24 812.721 C 1020.12 812.674 1096.74 843.233 1103.57 850.427 C 1106.8 853.838 1107.72 858.083 1107.57 862.662 C 1107.43 866.672 1106.92 870.846 1103.89 873.629 C 1097.58 872.826 1048.53 848.405 1038.05 843.651 C 996.367 825.385 966.098 880.726 945.976 877.376 C 940.329 873.804 939.788 858.663 942.295 855.833 C 952.982 843.771 989.393 818.451 1003.22 813.196 z" fill="rgb(188,139,111)" transform="translate(0,0)"></path>
<path d="M 572.728 1099.29 L 573.719 1100.13 C 573.921 1101.21 574.248 1102.87 574.198 1103.96 C 572.494 1141.04 561.161 1175.53 536.465 1202.58 C 535.362 1185.39 532.807 1177.03 526.084 1161.49 C 515.568 1140.42 503.362 1126.32 484.248 1112.91 C 504.722 1115.47 550.313 1104.01 572.728 1099.29 z" fill="rgb(188,139,111)" transform="translate(0,0)"></path>
<path d="M 1013.58 768.336 C 1055.2 769.876 1057.91 798.035 1069.51 830.953 C 1052.48 823.718 1034.7 817.022 1017.63 809.81 C 1014.28 808.397 1014.47 806.791 1013.29 803.415 L 1012.83 801.9 C 1000.51 800.813 966.116 826.671 954.895 816.529 C 938.686 801.878 953.91 786.038 970.488 781.502 C 985.502 777.393 998.249 770.448 1013.58 768.336 z" fill="rgb(188,139,111)" transform="translate(0,0)"></path>
<path d="M 445.954 866.265 C 458.974 866.428 467.248 879.826 461.832 888.823 C 454.527 900.96 420.125 906.31 407.104 910.485 C 407.755 914.47 408.743 918.215 409.705 922.13 C 399.346 931.647 389.527 943.941 380.071 954.665 L 371.184 965.289 C 370.724 947.176 367.116 929.019 367.008 911.288 C 384.785 877.941 410.686 872.637 445.954 866.265 z" fill="rgb(188,139,111)" transform="translate(0,0)"></path>
<path d="M 536.716 657.363 C 556.942 656.819 567.227 665.901 575.759 683.38 C 555.547 687.541 535.303 691.541 515.027 695.381 C 508.999 696.671 484.417 702.622 480.484 701.202 C 478.85 693.89 483.101 683.094 487.384 677.138 C 498.43 661.781 519.461 660.024 536.716 657.363 z" fill="rgb(210,153,75)" transform="translate(0,0)"></path>
<path d="M 820.608 601.313 C 835.354 599.345 847.948 606.539 856.076 618.386 C 858.23 621.525 859.489 622.854 858.957 626.557 C 853.492 629.312 809.297 637.44 800.151 639.248 L 765.843 645.667 C 768.059 609.255 789.912 606.43 820.608 601.313 z" fill="rgb(210,153,75)" transform="translate(0,0)"></path>
<path d="M 436.403 1059.73 C 439.031 1062.29 439.492 1073.44 441.951 1077.51 C 442.489 1078.4 446.565 1086.87 445.897 1087.65 C 445.028 1087.75 444.424 1087.23 443.575 1086.78 C 438.947 1083.99 434.281 1081.26 429.58 1078.6 C 431.902 1072.37 434.006 1065.98 436.403 1059.73 z" fill="rgb(210,153,75)" transform="translate(0,0)"></path>
<path d="M 1048.41 979.86 C 1052.28 970.325 1053.25 963.241 1054.25 953.093 L 1064.26 962.693 C 1060.16 968.611 1055.69 974.514 1051.37 980.303 L 1048.41 979.86 z" fill="rgb(255,255,255)" transform="translate(0,0)"></path>
<path d="M 992.624 811.762 C 996.384 810.504 1009.81 803.642 1011.96 807.145 C 1011.95 810.182 1009.37 809.941 1007.01 809.887 C 1002.21 809.776 998.096 811.755 993.897 813.854 L 992.624 811.762 z" fill="rgb(188,139,111)" transform="translate(0,0)"></path>
<path d="M 1048.41 979.86 L 1051.37 980.303 C 1050.29 981.907 1049.17 983.458 1048.08 985.058 L 1045.82 984.93 C 1046.73 983.002 1047.33 981.714 1048.41 979.86 z" fill="rgb(212,202,188)" transform="translate(0,0)"></path>
<path d="M 753.629 1103.29 L 758.029 1104.56 C 761.693 1108.32 768.071 1144.41 769.566 1151.57 C 776.365 1182.93 782.853 1214.34 789.028 1245.82 L 805.574 1326.81 C 808.064 1339.09 810.789 1351.88 812.975 1364.26 C 813.392 1366.62 811.997 1369.14 810.89 1371.22 C 808.006 1370.48 807.733 1370.32 805.03 1369 C 804.021 1367.65 803.503 1367 803.15 1365.28 C 786.463 1283.81 769.937 1202.31 752.863 1120.92 C 751.257 1113.27 749.243 1109.73 753.629 1103.29 z" fill="rgb(3,3,2)" transform="translate(0,0)"></path>
<path d="M 858.505 1154.43 C 860.532 1154.57 861.988 1154.81 863.978 1155.1 C 868.841 1158.42 936.129 1294.05 944.441 1307.92 C 950.77 1318.48 970.21 1356.07 976.733 1369.7 C 977.819 1371.97 975.737 1374.66 974.522 1376.7 C 968.736 1375.68 968.284 1374.35 965.593 1369.23 C 929.335 1300.2 893.557 1230.92 857.161 1161.97 C 855.661 1159.13 857.307 1157 858.505 1154.43 z" fill="rgb(3,3,2)" transform="translate(0,0)"></path>
<path d="M 690.037 1200.36 C 692.837 1201.94 695.54 1204.36 695.187 1207.91 C 693.945 1220.44 692.468 1232.92 691.287 1245.45 C 687.951 1281.25 684.238 1317.02 680.148 1352.75 C 678.254 1370.15 676.531 1387.56 674.98 1404.99 C 674.092 1414.48 673.281 1424.5 671.746 1433.95 C 671.128 1437.75 669.354 1438.47 666.53 1440.93 C 661.589 1437.24 660.977 1436.91 661.527 1430.88 C 662.889 1415.97 664.768 1401.11 666.49 1386.24 C 669.302 1362.21 671.88 1338.16 674.224 1314.08 L 681.321 1242.53 C 682.495 1230.88 683.723 1218.68 685.219 1207.03 C 685.678 1203.45 687.435 1202.68 690.037 1200.36 z" fill="rgb(3,3,2)" transform="translate(0,0)"></path>
<path d="M 883.173 1063.59 C 885.09 1063.74 887.083 1063.97 889.003 1064.17 C 900.441 1071.79 967.035 1183.61 982.292 1199.31 C 986.781 1203.92 992.422 1212.7 989.648 1219.53 C 986.313 1219.61 983.718 1219.55 981.627 1216.52 C 948.951 1169.23 916.275 1121.87 884.411 1074.02 C 881.595 1069.8 882.011 1068.47 883.173 1063.59 z" fill="rgb(3,3,2)" transform="translate(0,0)"></path>
<path d="M 622.609 1119.48 L 627.181 1121.8 C 627.893 1123.03 628.703 1123.87 628.585 1124.92 C 626.551 1143.06 623.183 1162.49 620.512 1180.53 C 616.733 1206.26 612.815 1231.97 608.759 1257.66 C 607.259 1267.21 604.666 1295.45 598.711 1301.3 C 595.537 1300.32 592.326 1299.5 592.552 1295.3 C 593.042 1286.21 594.899 1276.98 596.371 1267.97 L 604.939 1214.68 L 613.898 1156.96 C 615.228 1148.31 617.262 1124.93 622.609 1119.48 z" fill="rgb(3,3,2)" transform="translate(0,0)"></path>
<metadata><recraft-signature>{"signed_by": "recraft", "signature_b64": "jlzuMzMjr7TQM82sCVP5xCRb1HkOJTiIntrEiQLNwn/9HnY2t3ka3q9yZqdbh2h/LA/nodsj4PQ+S5jxg5g1AQ==", "signing_algo": "Ed25519", "generation_timestamp": 1779099581, "identifier": "4a912f0e-89f4-4789-9b0c-c3c52a5a9bfd"}</recraft-signature></metadata></svg>