<svg xmlns="http://www.w3.org/2000/svg" height="1280" preserveAspectRatio="none" style="display: block;" version="1.1" viewBox="0 0 1331 2048" width="832">
<path d="M 0 0 L 1331 0 L 1331 2048 L 0 2048 L 0 0 z" fill="rgb(255,255,255)" transform="translate(0,0)"></path>
<path d="M 717.763 685.032 C 718.758 679.46 744.129 655.476 749.845 652.071 C 755.586 654.557 759.689 663.059 764.568 666.594 C 797.365 690.357 832.207 687.332 865.605 668.138 C 867.739 670.361 871.504 673.831 872.671 676.45 L 874.652 675.402 L 875.347 676.646 C 876.494 677.851 877.627 679.07 878.745 680.302 C 954.602 775.826 974.178 983.292 969.008 1102.43 L 968.179 1103.44 C 961.118 1105.57 948.698 1107.02 943.114 1109.59 C 942.98 1124.54 940.413 1145.15 938.711 1160.19 C 935.489 1188.45 931.884 1216.66 927.896 1244.82 C 913.912 1342.28 898.039 1439.47 880.287 1536.31 C 875.265 1563.79 869.89 1591.21 864.164 1618.55 C 862.356 1627.27 854.619 1659.43 854.863 1665.7 C 856.253 1667.64 857.218 1668.54 857.36 1670.97 C 865.242 1680.17 867.84 1685.35 878.279 1692.47 C 904.592 1710.42 949.694 1691.18 973.99 1710.67 C 980.819 1712.13 989.881 1723.64 992.582 1729.81 L 992.96 1730.39 C 997.824 1736.67 999.892 1749.1 1000.22 1756.89 C 1000.06 1762.02 1000.9 1771.73 996.916 1774.9 C 989.974 1780.42 969.678 1784.81 961.206 1786.77 L 961.16 1791.91 C 962.527 1794.7 963.543 1799.22 963.177 1802.3 C 962.813 1805.37 961.064 1807.65 958.731 1809.55 C 952.241 1814.84 942.739 1816.6 934.762 1818.52 C 894.063 1828.29 854.956 1827.36 813.614 1822.87 C 797.647 1821.14 703.935 1810.04 696.933 1800.51 C 693.488 1795.83 695.196 1788.4 695.88 1783.08 L 697.186 1783.03 C 698.993 1750.71 704.937 1716.76 707.474 1684.4 C 711.445 1686.03 715.867 1687.2 720.004 1688.42 L 720.12 1686.77 C 715.649 1685.28 712.576 1684.16 708.266 1682.28 C 708.904 1661.61 708.602 1641.94 709.744 1620.91 C 710.797 1601.53 714.651 1564.74 712.235 1547.51 C 715.266 1531.21 716.903 1510.54 719.416 1493.44 C 723.457 1467.09 728.775 1440.94 735.351 1415.1 C 733.373 1409.51 731.63 1403.68 729.924 1398.01 C 717.205 1355.78 706.172 1313.7 698.285 1270.33 C 697.099 1263.82 685.283 1248.58 681.555 1241.24 C 660.471 1199.71 647.696 1159.04 650.503 1111.61 C 639.776 1109.94 627.318 1106.81 616.937 1103.58 C 618.864 1083.62 618.619 1061.5 620.899 1040.35 C 630.321 952.956 644.313 829.454 679.838 748.276 L 680.611 746.892 C 682.683 740.942 684.059 738.004 687.305 732.481 L 687.84 731.833 C 688.443 729.753 688.306 729.852 689.463 727.986 C 690.687 724.847 695.697 714.925 698.232 712.905 C 701.428 705.979 711.891 690.01 717.763 685.032 z" fill="rgb(100,58,42)" transform="translate(0,0)"></path>
<path d="M 717.763 685.032 C 718.758 679.46 744.129 655.476 749.845 652.071 C 755.586 654.557 759.689 663.059 764.568 666.594 C 797.365 690.357 832.207 687.332 865.605 668.138 C 867.739 670.361 871.504 673.831 872.671 676.45 L 874.652 675.402 L 875.347 676.646 C 876.494 677.851 877.627 679.07 878.745 680.302 C 954.602 775.826 974.178 983.292 969.008 1102.43 L 968.179 1103.44 C 961.118 1105.57 948.698 1107.02 943.114 1109.59 L 942.904 1109.21 L 943.286 1107.79 C 932.015 1109.75 916.371 1112.07 905.604 1114.92 C 903.189 1114.85 901.77 1114.53 899.702 1115.75 L 879.614 1118.52 C 874.967 1109.37 827.934 970.851 827.831 965.283 C 827.622 954.011 832.561 941.678 834.602 930.526 C 842.447 887.67 856.474 823.55 844.101 781.548 C 844.126 780.699 844.126 779.849 844.102 779 C 843.657 763.33 836.92 738.843 825.283 727.985 C 810.872 705.001 771.237 699.862 749.741 715.579 C 728.799 730.891 719.615 747.793 714.978 773.201 C 708.269 810.862 701.267 849.315 695.416 887.099 C 692.265 907.449 686.548 931.437 686.635 951.588 C 680.953 980.331 713.76 1062.57 724.44 1091.59 C 726.426 1096.99 735.191 1116.25 735.212 1120.49 C 717.119 1119.22 696.752 1116.54 678.486 1114.77 C 676.062 1113.69 667.389 1112.82 664.304 1112.44 C 659.976 1111.77 654.8 1110.86 650.574 1109.89 L 650.503 1111.61 C 639.776 1109.94 627.318 1106.81 616.937 1103.58 C 618.864 1083.62 618.619 1061.5 620.899 1040.35 C 630.321 952.956 644.313 829.454 679.838 748.276 L 680.611 746.892 C 682.683 740.942 684.059 738.004 687.305 732.481 L 687.84 731.833 C 688.443 729.753 688.306 729.852 689.463 727.986 C 690.687 724.847 695.697 714.925 698.232 712.905 C 701.428 705.979 711.891 690.01 717.763 685.032 z" fill="rgb(230,201,137)" transform="translate(0,0)"></path>
<path d="M 878.745 680.302 C 954.602 775.826 974.178 983.292 969.008 1102.43 L 968.179 1103.44 C 967.058 1103.35 965.9 1103.18 964.78 1103.04 C 970.214 1099.02 967.236 1047.23 967.007 1036.61 C 966.067 962.25 956.172 888.27 937.536 816.273 C 924.151 764.388 909.989 724.151 876.786 681.169 L 878.745 680.302 z" fill="rgb(177,146,75)" transform="translate(0,0)"></path>
<path d="M 679.838 748.276 C 679.991 749.081 680.144 749.885 680.298 750.689 C 649.897 830.103 637.087 915.74 627.092 999.737 C 622.973 1034.36 620.49 1068.13 619.08 1102.64 C 626.049 1104.28 645.021 1108.11 650.574 1109.89 L 650.503 1111.61 C 639.776 1109.94 627.318 1106.81 616.937 1103.58 C 618.864 1083.62 618.619 1061.5 620.899 1040.35 C 630.321 952.956 644.313 829.454 679.838 748.276 z" fill="rgb(177,146,75)" transform="translate(0,0)"></path>
<path d="M 717.763 685.032 C 718.758 679.46 744.129 655.476 749.845 652.071 C 748.296 654.183 718.398 684.877 717.763 685.032 z" fill="rgb(152,102,47)" transform="translate(0,0)"></path>
<path d="M 698.232 712.905 C 701.428 705.979 711.891 690.01 717.763 685.032 C 716.101 689.314 701.746 710.243 698.232 712.905 z" fill="rgb(225,168,91)" transform="translate(0,0)"></path>
<path d="M 964.78 1103.04 C 965.9 1103.18 967.058 1103.35 968.179 1103.44 C 961.118 1105.57 948.698 1107.02 943.114 1109.59 L 942.904 1109.21 L 943.286 1107.79 C 947.721 1106.11 959.863 1103.85 964.78 1103.04 z" fill="rgb(152,102,47)" transform="translate(0,0)"></path>
<path d="M 687.305 732.481 C 687.761 737.468 684.754 744.178 680.611 746.892 C 682.683 740.942 684.059 738.004 687.305 732.481 z" fill="rgb(225,168,91)" transform="translate(0,0)"></path>
<path d="M 689.463 727.986 C 690.685 729.716 691.017 730.406 688.909 731.34 L 687.84 731.833 C 688.443 729.753 688.306 729.852 689.463 727.986 z" fill="rgb(225,168,91)" transform="translate(0,0)"></path>
<path d="M 875.347 676.646 C 876.494 677.851 877.627 679.07 878.745 680.302 L 876.786 681.169 C 876.283 680.416 875.69 679.465 875.11 678.81 L 875.347 676.646 z" fill="rgb(94,66,36)" transform="translate(0,0)"></path>
<path d="M 874.652 675.402 L 875.347 676.646 L 875.11 678.81 C 874.155 677.963 873.533 677.421 872.671 676.45 L 874.652 675.402 z" fill="rgb(225,168,91)" transform="translate(0,0)"></path>
<path d="M 650.574 1109.89 C 654.8 1110.86 659.976 1111.77 664.304 1112.44 C 667.389 1112.82 676.062 1113.69 678.486 1114.77 C 681.691 1117.67 740.288 1122.44 749.533 1123.14 C 752.132 1130.14 765.303 1167.87 768.809 1170.47 C 773.238 1170.68 775.531 1169.88 779.807 1168.78 C 774.706 1187.17 773.601 1205.69 781.329 1223.74 C 790.112 1244.26 785.467 1267.17 795.595 1287.23 C 805.889 1307.26 815.931 1285.79 821.879 1296.67 C 831.023 1313.39 838.946 1300.29 846.922 1300.82 C 851.596 1306.76 857.193 1311.84 865.921 1307.07 C 873.362 1303.01 868.483 1299.04 878.137 1298.65 C 899.638 1297.78 890.043 1260.06 887.638 1245.62 C 887.586 1244.72 887.599 1244.83 887.389 1243.94 C 885.164 1231.11 882.685 1221.98 878.711 1209.5 C 884.901 1215.8 887.664 1223.5 894.32 1228.82 C 897.971 1231.74 901.912 1230.96 901.402 1235.67 C 895.276 1292.11 885.328 1347.48 873.935 1403.09 C 854.534 1497.89 834.032 1592.47 812.432 1686.8 C 810.896 1687.56 808.286 1688.89 807.108 1690.1 L 806.56 1690.55 C 781.349 1695.21 767.854 1694.49 743.208 1692.96 C 734.463 1691.93 728.437 1690.84 720.004 1688.42 L 720.12 1686.77 C 715.649 1685.28 712.576 1684.16 708.266 1682.28 C 708.904 1661.61 708.602 1641.94 709.744 1620.91 C 710.797 1601.53 714.651 1564.74 712.235 1547.51 C 715.266 1531.21 716.903 1510.54 719.416 1493.44 C 723.457 1467.09 728.775 1440.94 735.351 1415.1 C 733.373 1409.51 731.63 1403.68 729.924 1398.01 C 717.205 1355.78 706.172 1313.7 698.285 1270.33 C 697.099 1263.82 685.283 1248.58 681.555 1241.24 C 660.471 1199.71 647.696 1159.04 650.503 1111.61 L 650.574 1109.89 z" fill="rgb(184,102,82)" transform="translate(0,0)"></path>
<path d="M 743.208 1692.96 C 745.488 1691.05 789.35 1692.99 795.79 1690.62 C 797.715 1689.92 804.24 1689.27 806.56 1690.55 C 781.349 1695.21 767.854 1694.49 743.208 1692.96 z" fill="rgb(161,87,67)" transform="translate(0,0)"></path>
<path d="M 650.574 1109.89 C 654.8 1110.86 659.976 1111.77 664.304 1112.44 C 656.854 1114.51 658.131 1112.58 653.437 1112.63 C 651.198 1114.16 652.979 1118.4 651.549 1120.54 L 651.463 1120.55 L 651.21 1120.34 L 651.546 1118.97 C 650.937 1118.29 650.949 1113.58 650.503 1111.61 L 650.574 1109.89 z" fill="rgb(161,87,67)" transform="translate(0,0)"></path>
<path d="M 769.15 1169.21 L 717.358 1034.45 C 709.465 1013.75 701.502 993.16 693.883 972.362 C 684.766 947.478 691.019 923.997 695.098 898.861 C 698.6 876.451 702.352 854.082 706.353 831.757 C 711.039 805.487 714.064 780.15 721.816 754.531 C 734.94 711.159 790.45 690.203 822.333 727.031 C 823.175 728.061 823.523 728.447 824.454 729.375 C 827.007 732.224 830.177 736.985 832.055 740.329 C 837.974 750.805 841.365 762.519 841.957 774.537 C 843.533 811.316 816.785 923.187 805.758 961.497 C 828.955 1019.75 851.613 1078.22 873.728 1136.9 C 832.17 1158.64 813.804 1161.08 769.15 1169.21 z" fill="rgb(230,201,137)" transform="translate(0,0)"></path>
<path d="M 707.474 1684.4 C 711.445 1686.03 715.867 1687.2 720.004 1688.42 C 728.437 1690.84 734.463 1691.93 743.208 1692.96 C 767.854 1694.49 781.349 1695.21 806.56 1690.55 L 807.108 1690.1 L 811.464 1689.42 C 813.925 1691.58 815.67 1695.69 817.35 1698.73 C 824.375 1711.4 830.96 1720.55 844 1727.79 C 884.654 1750.35 928.3 1717.39 955.845 1769.82 C 957.63 1775.99 958.686 1780.58 959.068 1786.94 L 961.206 1786.77 L 961.16 1791.91 C 962.527 1794.7 963.543 1799.22 963.177 1802.3 C 962.813 1805.37 961.064 1807.65 958.731 1809.55 C 952.241 1814.84 942.739 1816.6 934.762 1818.52 C 894.063 1828.29 854.956 1827.36 813.614 1822.87 C 797.647 1821.14 703.935 1810.04 696.933 1800.51 C 693.488 1795.83 695.196 1788.4 695.88 1783.08 L 697.186 1783.03 C 698.993 1750.71 704.937 1716.76 707.474 1684.4 z" fill="rgb(218,201,186)" transform="translate(0,0)"></path>
<path d="M 697.186 1783.03 C 771.003 1800.94 888.187 1821.98 958.983 1792.34 L 961.16 1791.91 C 962.527 1794.7 963.543 1799.22 963.177 1802.3 C 962.813 1805.37 961.064 1807.65 958.731 1809.55 C 952.241 1814.84 942.739 1816.6 934.762 1818.52 C 894.063 1828.29 854.956 1827.36 813.614 1822.87 C 797.647 1821.14 703.935 1810.04 696.933 1800.51 C 693.488 1795.83 695.196 1788.4 695.88 1783.08 L 697.186 1783.03 z" fill="rgb(117,78,41)" transform="translate(0,0)"></path>
<path d="M 959.068 1786.94 L 961.206 1786.77 L 961.16 1791.91 L 958.983 1792.34 C 958.997 1790.54 959.025 1788.74 959.068 1786.94 z" fill="rgb(161,87,67)" transform="translate(0,0)"></path>
<path d="M 942.904 1109.21 L 943.114 1109.59 C 942.98 1124.54 940.413 1145.15 938.711 1160.19 C 935.489 1188.45 931.884 1216.66 927.896 1244.82 C 913.912 1342.28 898.039 1439.47 880.287 1536.31 C 875.265 1563.79 869.89 1591.21 864.164 1618.55 C 862.356 1627.27 854.619 1659.43 854.863 1665.7 L 853.7 1666.02 C 839.189 1667.8 836.355 1671.15 818.5 1670.73 C 819.821 1660.8 825.029 1640.47 827.417 1629.81 L 841.63 1564.06 C 857.856 1492.33 872.909 1420.33 886.782 1348.11 C 893.966 1310.14 898.729 1272.31 903.736 1234.02 C 904.091 1231.3 910.09 1225.71 910.947 1221.52 C 912.678 1213.06 908.069 1206.2 908.508 1197.86 C 911.599 1185.76 915.147 1121.71 919.911 1114.47 C 925.226 1112 936.535 1110.39 942.904 1109.21 z" fill="rgb(161,87,67)" transform="translate(0,0)"></path>
<path d="M 854.863 1665.7 C 856.253 1667.64 857.218 1668.54 857.36 1670.97 C 865.242 1680.17 867.84 1685.35 878.279 1692.47 C 904.592 1710.42 949.694 1691.18 973.99 1710.67 C 980.819 1712.13 989.881 1723.64 992.582 1729.81 L 992.96 1730.39 C 997.824 1736.67 999.892 1749.1 1000.22 1756.89 C 1000.06 1762.02 1000.9 1771.73 996.916 1774.9 C 989.974 1780.42 969.678 1784.81 961.206 1786.77 L 959.068 1786.94 C 958.686 1780.58 957.63 1775.99 955.845 1769.82 L 956.623 1768.83 C 956.344 1767.58 956.09 1766.5 955.493 1765.33 C 929.646 1714.55 869.784 1753.29 834.616 1718.55 C 823.934 1708 820.736 1703.37 814.442 1689.76 C 814.967 1683.3 815.59 1676.6 818.5 1670.73 C 836.355 1671.15 839.189 1667.8 853.7 1666.02 L 854.863 1665.7 z" fill="rgb(218,201,186)" transform="translate(0,0)"></path>
<path d="M 998.122 1756.64 L 1000.22 1756.89 C 1000.06 1762.02 1000.9 1771.73 996.916 1774.9 C 989.974 1780.42 969.678 1784.81 961.206 1786.77 L 959.068 1786.94 C 958.686 1780.58 957.63 1775.99 955.845 1769.82 L 956.623 1768.83 C 965.743 1767.79 988.627 1759.66 998.122 1756.64 z" fill="rgb(117,78,41)" transform="translate(0,0)"></path>
<path d="M 857.36 1670.97 C 865.242 1680.17 867.84 1685.35 878.279 1692.47 C 904.592 1710.42 949.694 1691.18 973.99 1710.67 C 966.108 1709.08 956.003 1703.87 947.206 1703.42 C 923.453 1702.19 901.79 1706.82 879.453 1695.23 C 870.6 1690.64 860.402 1680.75 857.36 1670.97 z" fill="rgb(170,133,116)" transform="translate(0,0)"></path>
<path d="M 973.99 1710.67 C 980.819 1712.13 989.881 1723.64 992.582 1729.81 C 991.62 1729.05 973.934 1710.38 973.99 1710.67 z" fill="rgb(170,133,116)" transform="translate(0,0)"></path>
<path d="M 992.96 1730.39 C 997.824 1736.67 999.892 1749.1 1000.22 1756.89 L 998.122 1756.64 C 997.49 1740.55 995.136 1742.52 992.96 1730.39 z" fill="rgb(170,133,116)" transform="translate(0,0)"></path>
<path d="M 854.863 1665.7 C 856.253 1667.64 857.218 1668.54 857.36 1670.97 C 855.184 1670.02 854.778 1668.1 853.7 1666.02 L 854.863 1665.7 z" fill="rgb(170,133,116)" transform="translate(0,0)"></path>
<path d="M 844.101 781.548 C 856.474 823.55 842.447 887.67 834.602 930.526 C 832.561 941.678 827.622 954.011 827.831 965.283 C 827.934 970.851 874.967 1109.37 879.614 1118.52 C 876.788 1118.85 869.498 1120.28 868.18 1116.89 C 848.701 1066.84 829.856 1016.54 809.973 966.648 C 809.268 964.879 808.436 962.094 808.577 960.075 C 816.459 924.26 825.435 888.604 832.919 852.669 C 834.08 847.097 835.259 841.607 836.221 836.003 C 836.569 835.13 836.544 835.297 836.572 834.366 C 837.025 830.122 838.464 823.379 839.255 818.999 C 839.613 818.131 839.586 818.283 839.652 817.355 C 839.848 813.747 840.765 809.676 841.443 806.08 C 841.717 804.986 841.61 805.54 841.764 804.416 C 842.985 798.007 844.07 787.952 844.101 781.548 z" fill="rgb(177,146,75)" transform="translate(0,0)"></path>
<path d="M 905.604 1114.92 C 908.029 1115.13 915.316 1114.32 916.424 1115.13 C 913.431 1142.89 908.689 1172.04 906.142 1199.39 L 862.212 1145.13 L 875.995 1137.93 C 873.901 1132.11 871.901 1126.26 869.998 1120.39 C 875.224 1120.06 896.522 1119.32 899.702 1115.75 C 901.77 1114.53 903.189 1114.85 905.604 1114.92 z" fill="rgb(184,102,82)" transform="translate(0,0)"></path>
<path d="M 735.212 1120.49 C 735.191 1116.25 726.426 1096.99 724.44 1091.59 C 713.76 1062.57 680.953 980.331 686.635 951.588 C 692.141 978.834 704.53 1005.77 714.289 1031.94 C 725.362 1061.63 738.095 1092.29 748.908 1121.97 C 746.762 1121.66 735.641 1120.63 735.212 1120.49 z" fill="rgb(177,146,75)" transform="translate(0,0)"></path>
<path d="M 822.333 727.031 C 823.097 727.459 824.403 727.743 825.283 727.985 L 824.454 729.375 C 823.523 728.447 823.175 728.061 822.333 727.031 z" fill="rgb(177,146,75)" transform="translate(0,0)"></path>
<path d="M 857.779 1146.94 L 859.37 1147 C 868.871 1152.23 891.42 1186.54 900.213 1195.83 C 906.092 1202.05 915.929 1225.34 902.761 1229.64 C 890.011 1227.88 883.224 1207.75 871.337 1198.64 L 870.28 1197.85 C 872.473 1203.44 876.41 1209 877.932 1214.9 C 881.696 1229.5 903.911 1299.99 875.376 1296.84 C 871.043 1290.47 865.035 1247.51 862.538 1237.73 C 861.579 1233.98 860.931 1226.25 859.09 1222.57 L 857.648 1222.68 C 856.867 1235.88 875.516 1286.59 868.949 1301.38 C 867.748 1303.59 865.212 1305.51 862.831 1306.02 C 845.862 1309.68 844.249 1284.89 842.124 1273.21 C 840.593 1259.44 837.114 1242.94 834.163 1229.48 C 832.905 1238.69 842.99 1287.91 845.588 1297.54 C 814.535 1318.06 817.535 1264.85 812.485 1248.17 C 811.519 1244.98 812.199 1238.04 810.017 1235.62 C 807.408 1241.87 816.52 1277.34 817.277 1288.52 C 815.698 1291.38 816.248 1291.17 813.294 1292.87 C 807.317 1296.3 800.8 1292.86 797.934 1287.23 C 789.617 1270.88 789.975 1252.23 787.799 1234.48 C 787.481 1231.89 784.08 1227.04 783.153 1224.43 C 780.087 1216.77 778.682 1208.12 778.127 1199.98 C 777.301 1187.85 778.854 1179.84 782.031 1168.54 C 807.432 1165.84 834.6 1157.52 857.779 1146.94 z" fill="rgb(224,151,125)" transform="translate(0,0)"></path>
<path d="M 323.628 903.196 C 324.524 897.579 324.533 892.49 327.339 887.265 C 335.943 871.247 357.23 870.743 368.667 884.374 C 370.972 888.414 370.636 889.046 374.054 892.312 C 378.104 895.029 380.602 898.585 382.896 902.82 C 385.595 905.519 389.017 912.318 390.407 915.975 C 402.557 941.322 415.135 987.356 411.252 1017.36 C 410.881 1020.22 406.095 1023.14 403.532 1024.56 L 403.138 1025.94 C 410.843 1058.71 416.953 1107.36 421.069 1141.3 C 424.364 1168.48 430.17 1218.96 429.843 1246.22 C 430.749 1261.14 431.173 1276.09 431.114 1291.04 L 610.923 1290.93 C 622.929 1290.9 673.865 1289.34 682.331 1291.51 C 686.742 1293.31 689.836 1295.35 691.462 1300 C 692.061 1302.27 692.583 1304.34 693.067 1306.65 L 689.295 1307.27 C 683.43 1326.18 680.323 1331.94 670.184 1348.47 L 671.442 1350.2 C 661.702 1363.46 655.638 1372.25 641.403 1381.1 L 640.783 1417.94 L 639.039 1418.35 L 637.614 1420.74 L 639.327 1421.43 L 640.196 1420.69 C 641.349 1419.83 641.505 1419.6 642.832 1419.1 C 645.494 1446.42 647.965 1473.76 650.246 1501.12 C 654.017 1501.11 660.381 1500.91 663.93 1501.2 C 669.513 1499.36 672.847 1492.91 679.209 1493.05 C 682.278 1497.31 682.681 1511.34 683.098 1517.08 C 678.898 1523.71 673.152 1532.39 669.448 1539.22 L 667.507 1538.84 L 667.758 1540.37 C 664.857 1546.5 661.598 1551.55 657.405 1556.85 C 654.649 1560.92 659.838 1601.66 660.553 1608.99 C 664.105 1648.24 667.885 1687.47 671.892 1726.68 C 673.684 1744.31 678.775 1787.67 677.819 1803.65 C 673.954 1809.25 672.41 1811.56 666.15 1814.86 C 654.007 1819.06 633.315 1819.83 625.648 1807.27 C 625.48 1806.91 625.317 1806.55 625.145 1806.19 C 620.457 1796.46 618.155 1684.74 617.97 1663.63 C 616.625 1661.12 616.395 1637.2 616.263 1633.01 L 614.982 1615.11 C 594.756 1615.08 402.226 1614.4 399.646 1616.13 C 394.255 1614.79 359.873 1615.57 352.669 1615.75 C 349.016 1615.03 345.437 1614.01 341.817 1614.8 C 338.108 1617.74 338.519 1618.84 337.505 1624.3 C 334.539 1646.65 303.56 1802.63 292.176 1811.15 C 283.706 1817.49 264.533 1818.07 254.611 1815.82 C 254.141 1815.72 253.464 1815.45 253.044 1815.3 C 236.615 1810.67 239.774 1798.25 245.666 1785.99 C 248.082 1777.73 251.433 1767.91 254.427 1759.84 C 275.55 1702.9 284.94 1645.17 297.874 1586.25 C 299.772 1567.62 303.301 1547.1 305.609 1528.11 C 308.577 1502.53 310.814 1476.86 312.317 1451.15 C 318.454 1355.02 312.345 1277.48 301.56 1183.05 C 299.677 1178.16 297.704 1159.11 296.574 1152.81 C 285.218 1089.45 271.535 1021.84 242.41 963.955 C 240.227 960.565 239.148 959.377 237.778 955.538 C 234.71 953.839 233.762 951.381 232.183 948.234 C 227.647 943.028 228.173 932.176 232.172 926.72 C 235.569 920.171 238.191 918.152 244.947 915.447 C 253.404 912.094 265.519 913.28 272.383 919.561 C 278.106 924.618 278.593 927.277 285.84 923.42 C 288.218 920.538 298.225 915.702 301.837 913.992 C 305.414 912.008 306.362 911.717 310.101 910.336 C 312.679 908.337 319.424 905.717 322.871 905.251 L 323.628 903.196 z" fill="rgb(152,102,47)" transform="translate(0,0)"></path>
<path d="M 323.628 903.196 C 324.524 897.579 324.533 892.49 327.339 887.265 C 335.943 871.247 357.23 870.743 368.667 884.374 C 370.972 888.414 370.636 889.046 374.054 892.312 C 378.104 895.029 380.602 898.585 382.896 902.82 C 385.595 905.519 389.017 912.318 390.407 915.975 C 402.557 941.322 415.135 987.356 411.252 1017.36 C 410.881 1020.22 406.095 1023.14 403.532 1024.56 L 403.138 1025.94 C 410.843 1058.71 416.953 1107.36 421.069 1141.3 C 424.364 1168.48 430.17 1218.96 429.843 1246.22 C 428.699 1248.65 429.467 1285.17 429.49 1290.6 C 417.824 1291.29 403.57 1293.77 394.107 1301 C 394.131 1293.92 394.531 1279.3 393.532 1272.97 C 392.674 1274.25 392.94 1273.63 392.593 1274.76 C 390.929 1258.63 392.825 1229.98 389.954 1215.12 C 391.707 1214.37 409.605 1194.35 412.353 1191.22 C 411.598 1181.08 410.173 1167.06 407.934 1157.16 L 406.687 1157.73 L 404.214 1158.84 L 403.009 1157.93 C 397.347 1162.74 354.811 1203.2 353.428 1203.8 L 352.069 1202.8 C 351.79 1200.28 351.588 1197.74 351.462 1195.21 L 350.667 1194.7 C 348.48 1199.21 354.534 1254.76 355.657 1272.16 C 361.821 1367.69 357.896 1468.44 346.179 1563.71 C 344.399 1578.17 336.052 1616.12 337.505 1624.3 C 334.539 1646.65 303.56 1802.63 292.176 1811.15 C 283.706 1817.49 264.533 1818.07 254.611 1815.82 C 254.141 1815.72 253.464 1815.45 253.044 1815.3 C 236.615 1810.67 239.774 1798.25 245.666 1785.99 C 248.082 1777.73 251.433 1767.91 254.427 1759.84 C 275.55 1702.9 284.94 1645.17 297.874 1586.25 C 299.772 1567.62 303.301 1547.1 305.609 1528.11 C 308.577 1502.53 310.814 1476.86 312.317 1451.15 C 318.454 1355.02 312.345 1277.48 301.56 1183.05 C 299.677 1178.16 297.704 1159.11 296.574 1152.81 C 285.218 1089.45 271.535 1021.84 242.41 963.955 C 240.227 960.565 239.148 959.377 237.778 955.538 C 234.71 953.839 233.762 951.381 232.183 948.234 C 227.647 943.028 228.173 932.176 232.172 926.72 C 235.569 920.171 238.191 918.152 244.947 915.447 C 253.404 912.094 265.519 913.28 272.383 919.561 C 278.106 924.618 278.593 927.277 285.84 923.42 C 288.218 920.538 298.225 915.702 301.837 913.992 C 305.414 912.008 306.362 911.717 310.101 910.336 C 312.679 908.337 319.424 905.717 322.871 905.251 L 323.628 903.196 z" fill="rgb(225,168,91)" transform="translate(0,0)"></path>
<path d="M 323.628 903.196 C 324.524 897.579 324.533 892.49 327.339 887.265 C 335.943 871.247 357.23 870.743 368.667 884.374 C 370.972 888.414 370.636 889.046 374.054 892.312 C 378.104 895.029 380.602 898.585 382.896 902.82 C 385.595 905.519 389.017 912.318 390.407 915.975 C 402.557 941.322 415.135 987.356 411.252 1017.36 C 410.881 1020.22 406.095 1023.14 403.532 1024.56 L 403.138 1025.94 C 395.706 1023.89 371.916 1040.03 366.111 1045.56 L 364.967 1045.14 C 362.204 1048.62 360.763 1049.38 357.106 1051.86 C 357.227 1051.64 337.042 1073.47 336.331 1074.13 C 335.478 1075.57 334.836 1076.83 333.695 1078.07 C 330.8 1071.9 327.324 1048.91 325.42 1040.86 C 316.81 1004.45 303.431 959.529 281.929 928.816 C 282.439 925.781 283.234 925.894 285.84 923.42 C 288.218 920.538 298.225 915.702 301.837 913.992 C 305.414 912.008 306.362 911.717 310.101 910.336 C 312.679 908.337 319.424 905.717 322.871 905.251 L 323.628 903.196 z" fill="rgb(225,168,91)" transform="translate(0,0)"></path>
<path d="M 323.628 903.196 C 324.524 897.579 324.533 892.49 327.339 887.265 C 335.943 871.247 357.23 870.743 368.667 884.374 C 368.693 887.152 369.085 887.252 369.208 889.384 C 367.606 890.791 340.862 895.715 336.561 898.523 C 335.481 899.228 325.214 902.828 323.628 903.196 z" fill="rgb(203,132,46)" transform="translate(0,0)"></path>
<path d="M 364.967 1045.14 C 370.54 1033.37 407.555 1022.17 408.796 1017.36 C 415.675 990.736 399.137 939.979 389.743 917.527 L 390.407 915.975 C 402.557 941.322 415.135 987.356 411.252 1017.36 C 410.881 1020.22 406.095 1023.14 403.532 1024.56 L 403.138 1025.94 C 395.706 1023.89 371.916 1040.03 366.111 1045.56 L 364.967 1045.14 z" fill="rgb(152,102,47)" transform="translate(0,0)"></path>
<path d="M 368.667 884.374 C 370.972 888.414 370.636 889.046 374.054 892.312 L 371.432 892.727 C 362.59 889.848 333.114 902.767 322.871 905.251 L 323.628 903.196 C 325.214 902.828 335.481 899.228 336.561 898.523 C 340.862 895.715 367.606 890.791 369.208 889.384 C 369.085 887.252 368.693 887.152 368.667 884.374 z" fill="rgb(117,78,41)" transform="translate(0,0)"></path>
<path d="M 336.331 1074.13 C 338.158 1068.69 351.875 1050.92 357.106 1051.86 C 357.227 1051.64 337.042 1073.47 336.331 1074.13 z" fill="rgb(203,132,46)" transform="translate(0,0)"></path>
<path d="M 374.054 892.312 C 378.104 895.029 380.602 898.585 382.896 902.82 C 378.026 899.627 375.535 896.525 371.432 892.727 L 374.054 892.312 z" fill="rgb(203,132,46)" transform="translate(0,0)"></path>
<path d="M 301.837 913.992 C 305.414 912.008 306.362 911.717 310.101 910.336 L 308.729 912.062 C 306.518 914.829 304.996 914.666 301.837 913.992 z" fill="rgb(203,132,46)" transform="translate(0,0)"></path>
<path d="M 366.111 1045.56 C 371.916 1040.03 395.706 1023.89 403.138 1025.94 C 410.843 1058.71 416.953 1107.36 421.069 1141.3 C 424.364 1168.48 430.17 1218.96 429.843 1246.22 C 428.699 1248.65 429.467 1285.17 429.49 1290.6 C 417.824 1291.29 403.57 1293.77 394.107 1301 C 394.131 1293.92 394.531 1279.3 393.532 1272.97 C 392.674 1274.25 392.94 1273.63 392.593 1274.76 C 390.929 1258.63 392.825 1229.98 389.954 1215.12 C 391.707 1214.37 409.605 1194.35 412.353 1191.22 C 411.598 1181.08 410.173 1167.06 407.934 1157.16 C 407.373 1154.55 406.963 1154.25 404.383 1154.01 C 401.653 1154.6 398.873 1154.37 397.423 1155.51 C 394.285 1158.35 388.822 1163.02 385.248 1165.04 C 383.275 1167.81 382.932 1168.49 380.013 1170.16 L 378.804 1170.03 C 379.613 1168.52 383.012 1165.65 384.465 1164.3 C 382.362 1154.33 381.932 1141.71 380.308 1131.48 C 376.221 1105.75 372.659 1070.42 366.111 1045.56 z" fill="rgb(203,132,46)" transform="translate(0,0)"></path>
<path d="M 385.248 1165.04 C 391.091 1156.08 394.121 1153.27 404.383 1154.01 C 401.653 1154.6 398.873 1154.37 397.423 1155.51 C 394.285 1158.35 388.822 1163.02 385.248 1165.04 z" fill="rgb(152,102,47)" transform="translate(0,0)"></path>
<path d="M 364.967 1045.14 L 366.111 1045.56 C 372.659 1070.42 376.221 1105.75 380.308 1131.48 C 381.932 1141.71 382.362 1154.33 384.465 1164.3 C 383.012 1165.65 379.613 1168.52 378.804 1170.03 C 373.092 1173.34 356.361 1189.88 350.766 1195.27 C 347.988 1165.49 342.781 1135.54 338.166 1105.99 C 337.355 1100.79 336.413 1095.39 335.078 1090.31 C 334.78 1086.35 332.435 1080.98 333.695 1078.07 C 334.836 1076.83 335.478 1075.57 336.331 1074.13 C 337.042 1073.47 357.227 1051.64 357.106 1051.86 C 360.763 1049.38 362.204 1048.62 364.967 1045.14 z" fill="rgb(255,255,255)" transform="translate(0,0)"></path>
<path d="M 301.56 1183.05 L 302.881 1182.91 C 306.75 1204.33 309.032 1233.63 310.899 1255.24 C 319.618 1350.04 317.914 1445.52 305.817 1539.96 C 304.943 1546.92 300.747 1581.85 298.886 1586.38 L 297.874 1586.25 C 299.772 1567.62 303.301 1547.1 305.609 1528.11 C 308.577 1502.53 310.814 1476.86 312.317 1451.15 C 318.454 1355.02 312.345 1277.48 301.56 1183.05 z" fill="rgb(203,132,46)" transform="translate(0,0)"></path>
<path d="M 272.383 919.561 C 278.106 924.618 278.593 927.277 285.84 923.42 C 283.234 925.894 282.439 925.781 281.929 928.816 C 303.431 959.529 316.81 1004.45 325.42 1040.86 C 327.324 1048.91 330.8 1071.9 333.695 1078.07 C 332.435 1080.98 334.78 1086.35 335.078 1090.31 L 334.645 1091.7 C 334.496 1091.54 317.203 1013.05 313.653 1003.89 C 306.486 985.38 298.981 958.298 287.169 940.008 C 283.536 934.382 274.734 923.925 272.383 919.561 z" fill="rgb(94,66,36)" transform="translate(0,0)"></path>
<path d="M 245.666 1785.99 C 247.888 1789.81 240.449 1799.94 243.678 1806.35 C 245.392 1809.75 252.43 1813.4 253.044 1815.3 C 236.615 1810.67 239.774 1798.25 245.666 1785.99 z" fill="rgb(203,132,46)" transform="translate(0,0)"></path>
<path d="M 244.947 915.447 C 243.834 917.257 234.178 925.431 232.172 926.72 C 235.569 920.171 238.191 918.152 244.947 915.447 z" fill="rgb(203,132,46)" transform="translate(0,0)"></path>
<path d="M 404.383 1154.01 C 406.963 1154.25 407.373 1154.55 407.934 1157.16 L 406.687 1157.73 L 404.214 1158.84 L 403.009 1157.93 C 403.057 1157.76 403.479 1156.86 403.245 1156.47 C 402.81 1155.74 399.474 1156.06 398.614 1155.84 C 398.214 1155.74 397.82 1155.62 397.423 1155.51 C 398.873 1154.37 401.653 1154.6 404.383 1154.01 z" fill="rgb(47,27,15)" transform="translate(0,0)"></path>
<path d="M 232.183 948.234 C 236.448 951.139 237.376 950.509 237.778 955.538 C 234.71 953.839 233.762 951.381 232.183 948.234 z" fill="rgb(203,132,46)" transform="translate(0,0)"></path>
<path d="M 237.778 955.538 C 241.912 958.519 242.588 958.512 242.41 963.955 C 240.227 960.565 239.148 959.377 237.778 955.538 z" fill="rgb(203,132,46)" transform="translate(0,0)"></path>
<path d="M 429.49 1290.6 C 429.467 1285.17 428.699 1248.65 429.843 1246.22 C 430.749 1261.14 431.173 1276.09 431.114 1291.04 L 610.923 1290.93 C 622.929 1290.9 673.865 1289.34 682.331 1291.51 C 686.742 1293.31 689.836 1295.35 691.462 1300 C 692.061 1302.27 692.583 1304.34 693.067 1306.65 L 689.295 1307.27 C 683.43 1326.18 680.323 1331.94 670.184 1348.47 C 643.833 1385.18 638.885 1381.05 596.037 1381.07 L 541.675 1381.06 L 359.776 1380.87 C 360.002 1366.66 359.849 1351.98 359.877 1337.73 C 366.196 1330.63 377.961 1324.22 380.754 1316 C 381.687 1313.87 384.999 1310.99 387.054 1309.75 C 395.709 1300.12 392.896 1288.45 392.593 1274.76 C 392.94 1273.63 392.674 1274.25 393.532 1272.97 C 394.531 1279.3 394.131 1293.92 394.107 1301 C 403.57 1293.77 417.824 1291.29 429.49 1290.6 z" fill="rgb(225,168,91)" transform="translate(0,0)"></path>
<path d="M 429.49 1290.6 C 429.467 1285.17 428.699 1248.65 429.843 1246.22 C 430.749 1261.14 431.173 1276.09 431.114 1291.04 L 610.923 1290.93 C 622.929 1290.9 673.865 1289.34 682.331 1291.51 C 668.981 1293.06 630.592 1292.04 615.338 1292.01 L 481.556 1291.83 C 458.724 1291.82 434.872 1290.62 412.356 1294.79 C 400.249 1297.04 391.648 1308.37 387.054 1309.75 C 395.709 1300.12 392.896 1288.45 392.593 1274.76 C 392.94 1273.63 392.674 1274.25 393.532 1272.97 C 394.531 1279.3 394.131 1293.92 394.107 1301 C 403.57 1293.77 417.824 1291.29 429.49 1290.6 z" fill="rgb(152,102,47)" transform="translate(0,0)"></path>
<path d="M 691.462 1300 C 692.061 1302.27 692.583 1304.34 693.067 1306.65 L 689.295 1307.27 C 690.013 1304.54 690.517 1302.66 691.462 1300 z" fill="rgb(47,27,15)" transform="translate(0,0)"></path>
<path d="M 642.832 1419.1 C 645.494 1446.42 647.965 1473.76 650.246 1501.12 C 654.017 1501.11 660.381 1500.91 663.93 1501.2 C 669.513 1499.36 672.847 1492.91 679.209 1493.05 C 682.278 1497.31 682.681 1511.34 683.098 1517.08 C 678.898 1523.71 673.152 1532.39 669.448 1539.22 L 667.507 1538.84 L 667.758 1540.37 C 664.857 1546.5 661.598 1551.55 657.405 1556.85 C 654.649 1560.92 659.838 1601.66 660.553 1608.99 C 664.105 1648.24 667.885 1687.47 671.892 1726.68 C 673.684 1744.31 678.775 1787.67 677.819 1803.65 C 673.954 1809.25 672.41 1811.56 666.15 1814.86 C 654.007 1819.06 633.315 1819.83 625.648 1807.27 C 625.48 1806.91 625.317 1806.55 625.145 1806.19 C 620.457 1796.46 618.155 1684.74 617.97 1663.63 C 616.625 1661.12 616.395 1637.2 616.263 1633.01 C 616.889 1624.11 616.367 1570.75 613.211 1565 C 612.772 1557.23 612.375 1549.47 612.019 1541.71 C 612.355 1542.7 612.8 1544.59 613.489 1545.21 C 614.677 1542.28 613.204 1508.53 613.181 1501.88 L 611.608 1501.5 C 610.902 1496.97 610.565 1484.12 610.292 1478.77 C 609.385 1461.89 608.661 1445.01 608.119 1428.11 L 610.213 1428.26 C 613.666 1428.31 617.12 1428.3 620.573 1428.23 C 627.814 1428.03 634.097 1426.98 639.327 1421.43 L 640.196 1420.69 C 641.349 1419.83 641.505 1419.6 642.832 1419.1 z" fill="rgb(225,168,91)" transform="translate(0,0)"></path>
<path d="M 663.93 1501.2 C 669.513 1499.36 672.847 1492.91 679.209 1493.05 C 682.278 1497.31 682.681 1511.34 683.098 1517.08 C 678.898 1523.71 673.152 1532.39 669.448 1539.22 L 667.507 1538.84 L 667.758 1540.37 C 664.857 1546.5 661.598 1551.55 657.405 1556.85 C 654.649 1560.92 659.838 1601.66 660.553 1608.99 C 664.105 1648.24 667.885 1687.47 671.892 1726.68 C 673.684 1744.31 678.775 1787.67 677.819 1803.65 C 673.954 1809.25 672.41 1811.56 666.15 1814.86 C 669.033 1811.15 672.203 1807.98 675.448 1804.6 C 679.685 1792.32 666.415 1684.09 664.641 1666.17 L 650.709 1522 L 652.317 1520.22 C 654.256 1517.44 663.82 1504.12 663.842 1502.4 L 663.93 1501.2 z" fill="rgb(117,78,41)" transform="translate(0,0)"></path>
<path d="M 679.792 1497.56 C 679.921 1504.53 680.097 1509.67 680.652 1516.62 C 677.052 1522.47 670.012 1533.18 667.507 1538.84 L 667.758 1540.37 C 664.857 1546.5 661.598 1551.55 657.405 1556.85 C 654.786 1553.02 654.166 1540.03 653.603 1534.76 C 662.587 1522.45 671.014 1509.95 679.792 1497.56 z" fill="rgb(225,168,91)" transform="translate(0,0)"></path>
<path d="M 674.889 1494.55 C 675.894 1495.05 676.899 1495.55 677.904 1496.05 C 671.926 1507.45 662.229 1519.26 654.84 1530.09 C 654.325 1530.56 653.96 1531.02 653.235 1530.94 C 648.085 1524.16 669.814 1499.63 674.889 1494.55 z" fill="rgb(203,132,46)" transform="translate(0,0)"></path>
<path d="M 642.832 1419.1 C 645.494 1446.42 647.965 1473.76 650.246 1501.12 C 654.017 1501.11 660.381 1500.91 663.93 1501.2 L 663.842 1502.4 C 663.82 1504.12 654.256 1517.44 652.317 1520.22 L 650.709 1522 C 648.298 1507.7 643.768 1424.94 640.196 1420.69 C 641.349 1419.83 641.505 1419.6 642.832 1419.1 z" fill="rgb(152,102,47)" transform="translate(0,0)"></path>
<path d="M 663.842 1502.4 C 663.82 1504.12 654.256 1517.44 652.317 1520.22 C 652.208 1513.54 651.661 1510.02 650.807 1503.4 C 655.037 1503.2 660.105 1503.69 663.842 1502.4 z" fill="rgb(203,132,46)" transform="translate(0,0)"></path>
<path d="M 617.97 1663.63 C 621.271 1673.39 621.902 1747.88 623.08 1763.44 C 623.369 1767.26 625.614 1802.51 625.648 1807.27 C 625.48 1806.91 625.317 1806.55 625.145 1806.19 C 620.457 1796.46 618.155 1684.74 617.97 1663.63 z" fill="rgb(203,132,46)" transform="translate(0,0)"></path>
<path d="M 608.119 1428.11 L 610.213 1428.26 C 609.985 1452.64 613.789 1479.41 613.181 1501.88 L 611.608 1501.5 C 610.902 1496.97 610.565 1484.12 610.292 1478.77 C 609.385 1461.89 608.661 1445.01 608.119 1428.11 z" fill="rgb(203,132,46)" transform="translate(0,0)"></path>
<path d="M 413.446 1534 C 412.442 1531.46 417.464 1501.73 418.395 1496.84 L 418.75 1496.94 L 418.537 1496.83 C 418.688 1497.79 418.664 1498.63 418.743 1499.59 L 420.179 1501.81 C 432.105 1500.8 449.207 1501.26 461.479 1501.25 L 530.907 1501.18 C 539.719 1501.17 592.682 1500.72 598.392 1501.91 C 603.05 1501.8 606.92 1501.91 611.608 1501.5 L 613.181 1501.88 C 613.204 1508.53 614.677 1542.28 613.489 1545.21 C 612.8 1544.59 612.355 1542.7 612.019 1541.71 C 612.375 1549.47 612.772 1557.23 613.211 1565 L 613.804 1580.07 L 460.443 1580.13 C 452.446 1580.13 411.219 1580.96 406 1579.79 C 408.134 1566.95 412.924 1546.01 413.446 1534 z" fill="rgb(255,255,255)" transform="translate(0,0)"></path>
<path d="M 413.446 1534 C 412.442 1531.46 417.464 1501.73 418.395 1496.84 L 418.75 1496.94 L 418.537 1496.83 C 418.688 1497.79 418.664 1498.63 418.743 1499.59 L 420.179 1501.81 C 432.105 1500.8 449.207 1501.26 461.479 1501.25 L 530.907 1501.18 C 539.719 1501.17 592.682 1500.72 598.392 1501.91 C 603.05 1501.8 606.92 1501.91 611.608 1501.5 L 613.181 1501.88 C 613.204 1508.53 614.677 1542.28 613.489 1545.21 C 612.8 1544.59 612.355 1542.7 612.019 1541.71 C 612.044 1539.09 612.026 1536.47 611.966 1533.85 C 554.511 1534.01 487.224 1535.74 430.645 1533.84 C 425.114 1533.91 418.727 1533.56 413.446 1534 z" fill="rgb(203,132,46)" transform="translate(0,0)"></path>
<path d="M 611.608 1501.5 L 613.181 1501.88 C 613.204 1508.53 614.677 1542.28 613.489 1545.21 C 612.8 1544.59 612.355 1542.7 612.019 1541.71 C 612.044 1539.09 612.026 1536.47 611.966 1533.85 C 610.314 1533.68 605.526 1533.81 604.751 1532.63 C 605.515 1531.25 611.199 1532.71 611.39 1531.41 C 612.15 1526.25 611.038 1508.15 610.866 1503.38 C 604.645 1502.84 604.639 1503.71 598.392 1501.91 C 603.05 1501.8 606.92 1501.91 611.608 1501.5 z" fill="rgb(152,102,47)" transform="translate(0,0)"></path>
<path d="M 413.446 1534 C 412.442 1531.46 417.464 1501.73 418.395 1496.84 L 418.75 1496.94 L 418.537 1496.83 C 418.688 1497.79 418.664 1498.63 418.743 1499.59 L 420.179 1501.81 C 422.85 1502.31 434.468 1502.4 434.589 1502.52 C 433.054 1502.83 421.886 1502.88 419.598 1502.94 C 417.562 1512.59 415.857 1522.31 414.487 1532.08 C 421.375 1532.1 424.016 1531.69 430.645 1533.84 C 425.114 1533.91 418.727 1533.56 413.446 1534 z" fill="rgb(117,78,41)" transform="translate(0,0)"></path>
<path d="M 427.545 1428.46 C 432.994 1426.31 597.503 1426.66 608.119 1428.11 C 608.661 1445.01 609.385 1461.89 610.292 1478.77 C 610.565 1484.12 610.902 1496.97 611.608 1501.5 C 606.92 1501.91 603.05 1501.8 598.392 1501.91 C 592.682 1500.72 539.719 1501.17 530.907 1501.18 L 461.479 1501.25 C 449.207 1501.26 432.105 1500.8 420.179 1501.81 L 418.743 1499.59 C 421.627 1495.36 426.987 1436.97 427.545 1428.46 z" fill="rgb(255,255,255)" transform="translate(0,0)"></path>
<path d="M 359.924 1383.13 L 556.826 1383.39 C 575.603 1383.32 624.28 1385.05 638.972 1380.82 C 638.808 1392.01 638.148 1407.53 639.039 1418.35 L 637.614 1420.74 C 633.31 1423.37 629.765 1425.2 624.618 1425.41 C 595.947 1426.63 565.827 1426.18 537.143 1426.18 L 359.224 1426.06 C 360.013 1411.48 359.949 1397.71 359.924 1383.13 z" fill="rgb(225,168,91)" transform="translate(0,0)"></path>
<path d="M 385.591 1428.73 C 390.9 1428.1 424.21 1427.47 426.899 1429.63 L 427.545 1428.46 C 426.987 1436.97 421.627 1495.36 418.743 1499.59 C 418.664 1498.63 418.688 1497.79 418.537 1496.83 L 418.75 1496.94 L 418.395 1496.84 C 417.464 1501.73 412.442 1531.46 413.446 1534 C 412.924 1546.01 408.134 1566.95 406 1579.79 C 390.809 1579.37 375.363 1580.33 360.168 1579.57 C 372.15 1539.51 380.321 1469.36 385.591 1428.73 z" fill="rgb(203,132,46)" transform="translate(0,0)"></path>
<path d="M 358.125 1428 C 365.755 1427.56 378.546 1426.6 385.591 1428.73 C 380.321 1469.36 372.15 1539.51 360.168 1579.57 C 358.277 1580.13 348.191 1579.97 345.558 1579.97 C 346.098 1574.2 347.029 1568.59 347.696 1562.86 C 352.87 1518.44 357.07 1472.74 358.125 1428 z" fill="rgb(255,255,255)" transform="translate(0,0)"></path>
<path d="M 389.954 1215.12 C 392.825 1229.98 390.929 1258.63 392.593 1274.76 C 392.896 1288.45 395.709 1300.12 387.054 1309.75 C 384.999 1310.99 381.687 1313.87 380.754 1316 C 375.022 1320.36 365.625 1330.03 360.137 1335.38 C 358.862 1326.44 358.706 1312.65 358.253 1303.18 C 357.25 1284.76 356.46 1266.34 355.884 1247.91 C 359.967 1243.74 363.985 1239.51 367.934 1235.22 C 370.485 1233.93 376.337 1227.95 378.408 1225.76 L 389.954 1215.12 z" fill="rgb(255,255,255)" transform="translate(0,0)"></path>
<path d="M 406.687 1157.73 L 407.934 1157.16 C 410.173 1167.06 411.598 1181.08 412.353 1191.22 C 409.605 1194.35 391.707 1214.37 389.954 1215.12 L 378.408 1225.76 C 376.337 1227.95 370.485 1233.93 367.934 1235.22 C 363.251 1237.62 359.067 1242.52 355.327 1246.38 C 354.541 1233.5 353.68 1220.63 352.744 1207.76 C 366.404 1193.95 393.257 1171.44 404.214 1158.84 L 406.687 1157.73 z" fill="rgb(225,168,91)" transform="translate(0,0)"></path>
<path d="M 406.687 1157.73 L 407.934 1157.16 C 410.173 1167.06 411.598 1181.08 412.353 1191.22 C 409.605 1194.35 391.707 1214.37 389.954 1215.12 L 378.408 1225.76 C 379.22 1222.62 406.422 1195.47 410.956 1190.08 C 409.267 1180.56 407.664 1167.26 406.687 1157.73 z" fill="rgb(117,78,41)" transform="translate(0,0)"></path>
<path d="M 344.835 1581.94 C 372.622 1580.37 407.004 1581.88 435.494 1581.91 L 613.952 1581.92 C 614.078 1587.97 615.919 1608.89 613.851 1612.72 L 611.25 1613.28 L 473.176 1613.2 C 428.796 1613.23 383.552 1613.84 339.318 1613.35 C 341.647 1604.26 343.326 1591.47 344.835 1581.94 z" fill="rgb(225,168,91)" transform="translate(0,0)"></path>
<path d="M 548.532 602.599 C 576.208 612.45 606.914 610.584 615.291 576.625 C 622.93 545.655 596.678 526.741 587.335 500.675 C 577.556 473.393 572.354 441.695 574.557 412.589 C 578.106 359.781 603.001 310.694 643.51 276.63 C 724.769 207.08 885.269 202.597 958.541 288.287 C 980.405 313.856 989.709 343.973 986.951 377.554 C 987.56 381.712 989.304 387.005 989.764 391.019 C 992.371 413.78 993.638 427.161 1016.24 437.666 C 1016.93 438.014 1018.63 438.797 1019.16 439.215 C 1022.95 441.078 1023.79 441.42 1026.38 444.665 C 1028.7 447.736 1030.44 452.033 1029.87 455.993 C 1027.98 469.149 1022.68 471.929 1014.2 479.46 C 1013.85 490.88 1010.65 510.482 1007.57 521.337 C 1006.83 523.906 1005.87 528.038 1004.53 530.173 C 1002.47 537.434 995.188 554.44 990.639 560.148 C 989.472 563.746 981.942 575.393 979.036 577.201 C 975.45 583.122 966.965 592.199 961.001 595.882 C 960.025 598.468 957.565 599.579 955.204 601.035 C 951.35 606.068 936.053 615.131 930.017 617.428 C 926.695 619.068 924.437 620.134 920.96 621.498 C 915.708 624.024 913.821 624.777 908.227 626.375 C 895.323 629.94 875.144 634.001 861.79 632.786 C 862.03 639.463 862.44 642.35 863.127 648.83 C 863.819 653.717 865.015 660.667 865.216 665.43 L 874.652 675.402 L 872.671 676.45 C 871.504 673.831 867.739 670.361 865.605 668.138 C 832.207 687.332 797.365 690.357 764.568 666.594 C 759.689 663.059 755.586 654.557 749.845 652.071 C 751.234 650.287 751.168 650.024 751.794 647.909 C 684.466 669.435 597.742 656.186 548.532 602.599 z" fill="rgb(117,78,41)" transform="translate(0,0)"></path>
<path d="M 934.751 365.973 C 941.732 350.464 945.567 335.613 948.388 319.006 C 948.488 318.42 949.341 318.256 949.768 318.139 C 967.629 341.92 971.517 342.519 983.826 373.145 L 986.951 377.554 C 987.56 381.712 989.304 387.005 989.764 391.019 C 992.371 413.78 993.638 427.161 1016.24 437.666 C 1016.93 438.014 1018.63 438.797 1019.16 439.215 C 1022.95 441.078 1023.79 441.42 1026.38 444.665 C 1028.7 447.736 1030.44 452.033 1029.87 455.993 C 1027.98 469.149 1022.68 471.929 1014.2 479.46 C 1013.85 490.88 1010.65 510.482 1007.57 521.337 C 1006.83 523.906 1005.87 528.038 1004.53 530.173 C 1002.47 537.434 995.188 554.44 990.639 560.148 C 989.472 563.746 981.942 575.393 979.036 577.201 C 975.45 583.122 966.965 592.199 961.001 595.882 C 960.025 598.468 957.565 599.579 955.204 601.035 C 951.35 606.068 936.053 615.131 930.017 617.428 C 926.695 619.068 924.437 620.134 920.96 621.498 C 915.708 624.024 913.821 624.777 908.227 626.375 C 895.323 629.94 875.144 634.001 861.79 632.786 C 862.03 639.463 862.44 642.35 863.127 648.83 C 863.819 653.717 865.015 660.667 865.216 665.43 L 874.652 675.402 L 872.671 676.45 C 871.504 673.831 867.739 670.361 865.605 668.138 C 832.207 687.332 797.365 690.357 764.568 666.594 C 759.689 663.059 755.586 654.557 749.845 652.071 C 751.234 650.287 751.168 650.024 751.794 647.909 L 752.501 647.933 C 755.346 645.94 763.287 642.486 766.653 640.956 C 790.522 630.101 807.595 611.307 819.144 588.077 C 828.94 568.376 829.838 553.155 828.926 531.739 C 815.81 546.334 801.638 554.628 781.528 549.019 C 771.188 546.161 762.427 539.272 757.21 529.898 C 738.604 496.748 766.098 456.587 806.522 468.578 C 806.863 466.627 807.972 456.845 810.667 461.953 L 812.122 461.302 C 816.362 460.784 820.556 459.935 824.664 458.764 C 835.537 455.776 842.231 453.502 852.333 448.57 C 860.973 445.212 878.51 433.865 885.342 427.568 C 889.1 424.601 892.305 421.581 895.776 418.294 C 898.468 416.442 899.222 415.281 901.292 412.78 C 904.061 409.833 908.117 405.704 910.504 402.581 C 917.978 395.24 931.437 375.77 934.751 365.973 z" fill="rgb(224,151,125)" transform="translate(0,0)"></path>
<path d="M 801.37 620.237 C 818.271 626.467 829.031 630.173 847.589 631.113 C 852.101 632.024 859.84 631.794 861.79 632.786 C 862.03 639.463 862.44 642.35 863.127 648.83 L 861.794 649.084 C 833.811 645.353 821.845 638.339 801.37 620.237 z" fill="rgb(100,58,42)" transform="translate(0,0)"></path>
<path d="M 751.794 647.909 L 752.501 647.933 C 754.475 656.531 766.096 665.917 773.264 670.314 C 803.256 688.715 835.279 683.658 864.203 667.004 C 863.197 660.934 862.783 654.935 861.794 649.084 L 863.127 648.83 C 863.819 653.717 865.015 660.667 865.216 665.43 L 874.652 675.402 L 872.671 676.45 C 871.504 673.831 867.739 670.361 865.605 668.138 C 832.207 687.332 797.365 690.357 764.568 666.594 C 759.689 663.059 755.586 654.557 749.845 652.071 C 751.234 650.287 751.168 650.024 751.794 647.909 z" fill="rgb(161,87,67)" transform="translate(0,0)"></path>
<path d="M 983.826 373.145 L 986.951 377.554 C 987.56 381.712 989.304 387.005 989.764 391.019 C 992.371 413.78 993.638 427.161 1016.24 437.666 C 989.181 437.521 988.724 391.939 983.826 373.145 z" fill="rgb(184,102,82)" transform="translate(0,0)"></path>
<path d="M 1026.38 444.665 C 1028.7 447.736 1030.44 452.033 1029.87 455.993 C 1027.98 469.149 1022.68 471.929 1014.2 479.46 L 1012.75 480.046 C 994.505 479.474 998.444 468.761 1000.45 468.721 C 1001.92 469.823 1000.57 473.303 1001.47 474.162 C 1015.67 487.776 1034.68 459.995 1025.91 446.415 L 1026.38 444.665 z" fill="rgb(100,58,42)" transform="translate(0,0)"></path>
<path d="M 847.589 631.113 C 862.284 630.722 875.918 632.062 890.502 628.971 C 896.014 627.802 902.859 625.741 908.227 626.375 C 895.323 629.94 875.144 634.001 861.79 632.786 C 859.84 631.794 852.101 632.024 847.589 631.113 z" fill="rgb(161,87,67)" transform="translate(0,0)"></path>
<path d="M 1012.75 480.046 L 1014.2 479.46 C 1013.85 490.88 1010.65 510.482 1007.57 521.337 C 1006.56 516.187 1007.89 513.225 1009 508.026 C 1010.95 498.842 1010.86 489.16 1012.75 480.046 z" fill="rgb(184,102,82)" transform="translate(0,0)"></path>
<path d="M 990.639 560.148 C 991.807 555.228 1001.21 533.938 1004.53 530.173 C 1002.47 537.434 995.188 554.44 990.639 560.148 z" fill="rgb(161,87,67)" transform="translate(0,0)"></path>
<path d="M 961.001 595.882 C 963.772 589.894 973.622 580.738 979.036 577.201 C 975.45 583.122 966.965 592.199 961.001 595.882 z" fill="rgb(203,133,106)" transform="translate(0,0)"></path>
<path d="M 806.522 468.578 C 806.863 466.627 807.972 456.845 810.667 461.953 C 810.223 466.763 815.816 475.355 806.522 468.578 z" fill="rgb(100,58,42)" transform="translate(0,0)"></path>
<path d="M 920.96 621.498 C 922.637 619.333 927.327 614.995 930.017 617.428 C 926.695 619.068 924.437 620.134 920.96 621.498 z" fill="rgb(203,133,106)" transform="translate(0,0)"></path>
<path d="M 1019.16 439.215 C 1022.95 441.078 1023.79 441.42 1026.38 444.665 L 1025.91 446.415 C 1021.58 443.141 1022.19 443.658 1019.16 439.215 z" fill="rgb(203,133,106)" transform="translate(0,0)"></path>
<path d="M 955.204 601.035 C 956.982 598.471 957.811 595.427 961.001 595.882 C 960.025 598.468 957.565 599.579 955.204 601.035 z" fill="rgb(203,133,106)" transform="translate(0,0)"></path>
<path d="M 948.456 425.432 C 955.271 423.668 962.248 427.669 964.167 434.442 C 966.086 441.215 962.246 448.281 955.519 450.355 C 951.028 451.739 946.14 450.583 942.744 447.334 C 939.349 444.085 937.98 439.252 939.166 434.705 C 940.352 430.158 943.907 426.609 948.456 425.432 z" fill="rgb(100,58,42)" transform="translate(0,0)"></path>
<path d="M 955.345 429.439 C 957.396 428.957 959.464 430.171 960.044 432.197 C 960.623 434.222 959.51 436.346 957.515 437.022 C 956.136 437.489 954.612 437.16 953.549 436.165 C 952.486 435.17 952.057 433.67 952.433 432.264 C 952.809 430.857 953.928 429.771 955.345 429.439 z" fill="rgb(255,255,255)" transform="translate(0,0)"></path>
<path d="M 948.593 521.543 C 952.354 523.273 951.605 523.725 953.644 527.296 C 961.71 541.418 975.544 547.211 991.215 547.463 C 991.754 547.472 992.109 550.611 992.162 550.949 C 974.585 551.526 957.929 544.599 949.856 528.201 C 948.313 525.067 948.226 525.041 948.593 521.543 z" fill="rgb(100,58,42)" transform="translate(0,0)"></path>
<path d="M 948.015 399.24 C 948.967 399.374 954.381 400.508 952.724 402.768 C 950.679 404.933 946.466 403.635 943.551 404.339 C 935.161 406.368 932.451 409.418 928.058 416.416 C 925.148 420.967 922.95 415.153 927.363 409.771 C 934.204 401.428 938.157 400.929 948.015 399.24 z" fill="rgb(100,58,42)" transform="translate(0,0)"></path>
<path d="M 934.751 365.973 C 934.966 363.381 934.707 361.964 935.695 359.493 C 941.23 345.65 944.641 331.862 946.275 317.03 C 946.632 313.793 951.677 315.186 949.768 318.139 C 949.341 318.256 948.488 318.42 948.388 319.006 C 945.567 335.613 941.732 350.464 934.751 365.973 z" fill="rgb(47,27,15)" transform="translate(0,0)"></path>
<path d="M 812.122 461.302 C 813.658 459.259 815.867 458.553 818.352 458.37 C 828.004 457.659 844.097 447.229 852.333 448.57 C 842.231 453.502 835.537 455.776 824.664 458.764 C 820.556 459.935 816.362 460.784 812.122 461.302 z" fill="rgb(94,66,36)" transform="translate(0,0)"></path>
<path d="M 901.292 412.78 C 901.523 409.277 907.875 402.233 909.657 401.857 C 910.176 402.062 909.847 401.891 910.504 402.581 C 908.117 405.704 904.061 409.833 901.292 412.78 z" fill="rgb(47,27,15)" transform="translate(0,0)"></path>
<path d="M 885.342 427.568 C 885.607 424.029 891.998 418.542 895.776 418.294 C 892.305 421.581 889.1 424.601 885.342 427.568 z" fill="rgb(47,27,15)" transform="translate(0,0)"></path>
<path d="M 689.295 1307.27 L 693.067 1306.65 C 694.119 1316.23 695.57 1333.16 697.58 1342.35 C 693.201 1349.88 692.578 1350.82 693.197 1359.52 C 694.787 1366.48 696.263 1387.11 697.009 1394.95 L 703.716 1466.12 L 708.318 1515.54 C 708.737 1519.87 710.706 1536.26 710.621 1539.71 L 712.235 1547.51 C 714.651 1564.74 710.797 1601.53 709.744 1620.91 C 708.602 1641.94 708.904 1661.61 708.266 1682.28 C 712.576 1684.16 715.649 1685.28 720.12 1686.77 L 720.004 1688.42 C 715.867 1687.2 711.445 1686.03 707.474 1684.4 C 704.937 1716.76 698.993 1750.71 697.186 1783.03 L 695.88 1783.08 C 696.052 1764.53 700.053 1745.16 700.46 1726.93 C 698.278 1724.56 697.351 1725.03 693.698 1724.27 C 679.277 1721.21 680.989 1698.68 679.603 1687.35 C 678.794 1680.73 678.418 1673.47 677.851 1666.78 C 675.085 1635.22 672.65 1603.64 670.546 1572.03 C 670.182 1566.54 669.353 1544.36 667.758 1540.37 L 667.507 1538.84 L 669.448 1539.22 C 673.152 1532.39 678.898 1523.71 683.098 1517.08 C 682.681 1511.34 682.278 1497.31 679.209 1493.05 C 672.847 1492.91 669.513 1499.36 663.93 1501.2 C 660.381 1500.91 654.017 1501.11 650.246 1501.12 C 647.965 1473.76 645.494 1446.42 642.832 1419.1 C 641.505 1419.6 641.349 1419.83 640.196 1420.69 L 639.327 1421.43 L 637.614 1420.74 L 639.039 1418.35 L 640.783 1417.94 L 641.403 1381.1 C 655.638 1372.25 661.702 1363.46 671.442 1350.2 L 670.184 1348.47 C 680.323 1331.94 683.43 1326.18 689.295 1307.27 z" fill="rgb(203,132,46)" transform="translate(0,0)"></path>
<path d="M 689.295 1307.27 L 693.067 1306.65 C 694.119 1316.23 695.57 1333.16 697.58 1342.35 C 693.201 1349.88 692.578 1350.82 693.197 1359.52 C 692.387 1357.99 691.808 1356.48 691.27 1354.84 C 689.86 1355.43 670.502 1382.44 669.459 1385 L 666.046 1386.22 C 663.814 1388.44 661.574 1392 660.037 1394.73 C 657.816 1397.44 653.753 1401.77 653.01 1404.91 C 651.886 1407.76 648.599 1412.66 645.989 1414.25 C 644.903 1415.84 643.85 1417.46 642.832 1419.1 C 641.505 1419.6 641.349 1419.83 640.196 1420.69 L 639.327 1421.43 L 637.614 1420.74 L 639.039 1418.35 L 640.783 1417.94 L 641.403 1381.1 C 655.638 1372.25 661.702 1363.46 671.442 1350.2 L 670.184 1348.47 C 680.323 1331.94 683.43 1326.18 689.295 1307.27 z" fill="rgb(225,168,91)" transform="translate(0,0)"></path>
<path d="M 689.295 1307.27 L 693.067 1306.65 C 694.119 1316.23 695.57 1333.16 697.58 1342.35 C 693.201 1349.88 692.578 1350.82 693.197 1359.52 C 692.387 1357.99 691.808 1356.48 691.27 1354.84 C 689.86 1355.43 670.502 1382.44 669.459 1385 L 666.046 1386.22 C 676.439 1372.49 686.202 1358.29 695.305 1343.67 C 695.052 1338.39 694.292 1332.14 693.782 1326.81 C 693.114 1325.7 693.223 1325.68 693.287 1324.33 C 693.169 1317.17 692.539 1312.94 691.481 1305.98 C 686.002 1325.75 682.242 1332.6 671.442 1350.2 L 670.184 1348.47 C 680.323 1331.94 683.43 1326.18 689.295 1307.27 z" fill="rgb(117,78,41)" transform="translate(0,0)"></path>
<path d="M 693.287 1324.33 C 694.011 1325.38 693.852 1325.35 693.782 1326.81 C 693.114 1325.7 693.223 1325.68 693.287 1324.33 z" fill="rgb(203,132,46)" transform="translate(0,0)"></path>
<path d="M 640.783 1417.94 C 642.533 1416.73 644.268 1415.5 645.989 1414.25 C 644.903 1415.84 643.85 1417.46 642.832 1419.1 C 641.505 1419.6 641.349 1419.83 640.196 1420.69 L 639.327 1421.43 L 637.614 1420.74 L 639.039 1418.35 L 640.783 1417.94 z" fill="rgb(47,27,15)" transform="translate(0,0)"></path>
<path d="M 653.01 1404.91 L 656.499 1402.64 C 658.701 1405.53 664.393 1492.08 663.93 1501.2 C 660.381 1500.91 654.017 1501.11 650.246 1501.12 C 647.965 1473.76 645.494 1446.42 642.832 1419.1 C 643.85 1417.46 644.903 1415.84 645.989 1414.25 C 648.599 1412.66 651.886 1407.76 653.01 1404.91 z" fill="rgb(255,255,255)" transform="translate(0,0)"></path>
<path d="M 710.621 1539.71 L 712.235 1547.51 C 714.651 1564.74 710.797 1601.53 709.744 1620.91 C 708.602 1641.94 708.904 1661.61 708.266 1682.28 C 712.576 1684.16 715.649 1685.28 720.12 1686.77 L 720.004 1688.42 C 715.867 1687.2 711.445 1686.03 707.474 1684.4 C 704.937 1716.76 698.993 1750.71 697.186 1783.03 L 695.88 1783.08 C 696.052 1764.53 700.053 1745.16 700.46 1726.93 C 698.278 1724.56 697.351 1725.03 693.698 1724.27 C 695.776 1724.09 697.857 1723.94 699.939 1723.82 C 706.78 1716.44 706.951 1640.8 707.47 1627.13 C 708.185 1608.33 710.032 1586.75 710.787 1567.62 C 711.101 1559.66 709.627 1546.25 710.621 1539.71 z" fill="rgb(161,87,67)" transform="translate(0,0)"></path>
<path d="M 669.459 1385 C 666.059 1389.73 664.985 1391.59 660.037 1394.73 C 661.574 1392 663.814 1388.44 666.046 1386.22 L 669.459 1385 z" fill="rgb(152,102,47)" transform="translate(0,0)"></path>
<path d="M 352.669 1615.75 C 359.873 1615.57 394.255 1614.79 399.646 1616.13 C 395.605 1634.52 381.689 1716.1 370.163 1725.4 C 362.681 1731.43 348.141 1731.12 339.077 1729.74 C 334.312 1729.01 328.121 1726.82 325.462 1722.54 C 323.824 1719.91 323.554 1718.15 324.023 1715.15 C 326.062 1702.11 332.216 1688.75 336.112 1676.09 C 342.242 1656.18 347.313 1635.89 352.669 1615.75 z" fill="rgb(203,132,46)" transform="translate(0,0)"></path>
<metadata><recraft-signature>{"signed_by": "recraft", "signature_b64": "j1r6hFcq123/HECGVZzja/NtDqE41Up3sN4e8M8Rqya+ApBMkLc8RMzStHDfnBn9G3lea9PrXkhRgwzgMBcpBA==", "signing_algo": "Ed25519", "generation_timestamp": 1779101473, "identifier": "66aca7f6-e3e4-4974-b68e-eee271aa7963"}</recraft-signature></metadata></svg>