<svg xmlns="http://www.w3.org/2000/svg" height="1024" preserveAspectRatio="none" style="display: block;" version="1.1" viewBox="0 0 2048 2048" width="1024">
<path d="M 0 0 L 2048 0 L 2048 2048 L 0 2048 L 0 0 z" fill="rgb(255,255,255)" transform="translate(0,0)"></path>
<path d="M 809.03 430.839 C 814.727 421.823 840.337 391.81 848.424 382.133 C 867.333 359.484 886.599 337.136 906.215 315.097 C 915.764 304.368 927.673 290.611 937.635 280.897 C 963.733 255.449 1004.14 241.361 1040.56 243.116 C 1083.53 245.186 1111.64 260.382 1140.52 290.673 C 1141.05 291.424 1141.58 292.174 1142.1 292.925 C 1144.24 295.638 1146.25 297.803 1148.6 300.312 C 1149.22 300.976 1149.84 301.639 1150.45 302.303 C 1152.32 304.865 1154.41 306.936 1156.62 309.184 C 1157.65 310.242 1158.26 311 1159.19 312.144 C 1160.99 314.501 1162.61 316.179 1164.64 318.33 C 1165.26 319.004 1165.88 319.678 1166.49 320.352 C 1168.09 322.595 1169.29 323.77 1171.26 325.728 C 1172.26 326.82 1172.72 327.379 1173.61 328.543 C 1175.28 330.622 1176.83 332.407 1178.6 334.399 C 1179.08 334.925 1179.56 335.451 1180.05 335.976 C 1181.29 337.643 1182.26 338.828 1183.6 340.386 C 1185.25 341.897 1188.8 346.33 1190.34 348.207 C 1191.52 349.894 1192.04 350.469 1193.42 351.998 C 1195.21 353.869 1199.3 358.818 1201.01 360.892 C 1202.4 362.76 1203.05 363.497 1204.62 365.197 C 1205.53 366.135 1205.99 366.684 1206.81 367.701 C 1208.18 369.549 1209.11 370.685 1210.6 372.384 C 1211.04 372.851 1211.48 373.318 1211.92 373.786 C 1213.2 375.526 1214.19 376.772 1215.57 378.401 C 1215.98 378.863 1216.4 379.325 1216.82 379.787 C 1218.16 381.52 1219.18 382.747 1220.62 384.362 C 1221.08 384.826 1221.54 385.294 1222 385.765 C 1222.85 387.01 1223.57 387.763 1224.57 388.901 C 1225.06 389.568 1225.54 390.235 1226.03 390.903 C 1227.21 392.543 1228.25 393.882 1229.53 395.464 C 1233.2 398.846 1238.69 406.606 1241.96 410.756 L 1240.79 413.077 L 1241.8 413.905 L 1244.61 413.966 C 1245.1 414.583 1245.59 415.203 1246.07 415.826 C 1246.83 416.951 1247.56 417.909 1248.37 418.991 C 1250.3 421.074 1252.17 423.623 1254.03 425.824 C 1254.87 427.056 1255.67 427.933 1256.63 429.065 C 1257.1 429.674 1257.55 430.293 1257.99 430.921 C 1259.22 432.594 1260.23 433.852 1261.55 435.428 L 1262.72 436.526 C 1263.67 437.846 1264.57 438.833 1265.64 440.059 C 1266.11 440.655 1266.58 441.255 1267.04 441.86 C 1267.88 443.054 1268.67 443.901 1269.62 444.995 C 1270.13 445.597 1270.62 446.203 1271.12 446.811 C 1271.87 447.934 1272.61 448.911 1273.41 449.991 C 1276.32 453.129 1279.34 457.43 1282.02 460.842 L 1280.72 462.33 L 1281.97 463.956 L 1284.31 463.924 C 1286 465.801 1287.47 467.886 1288.96 469.929 C 1290.55 472.146 1292.2 474.13 1293.79 476.347 C 1295.23 477.786 1297.65 481.078 1299.08 482.858 C 1299.9 484.076 1300.63 484.85 1301.6 485.965 C 1302.05 486.621 1302.5 487.284 1302.93 487.956 C 1304.7 490.314 1306.51 492.649 1308.34 494.958 C 1311.91 498.993 1314.72 503.614 1318.1 507.798 L 1319.7 510.451 C 1321.91 512.582 1324.1 516.264 1326.05 518.799 L 1327.83 521.343 C 1328.21 521.716 1328.6 522.086 1328.99 522.452 L 1330.69 525.424 C 1334.3 528.91 1339.86 537.683 1343.19 541.985 L 1344.73 544.3 C 1364.21 568.325 1383.44 596.478 1400.84 622.248 C 1432.93 669.746 1466.78 699.815 1460.51 761.228 C 1456.77 796.341 1439.11 828.49 1411.49 850.486 C 1381.99 873.805 1344.46 884.513 1307.1 880.275 C 1282.09 877.437 1252.64 861.408 1228.83 851.09 L 1227.79 851.194 C 1226.6 856.8 1228.01 869.336 1227.86 876.32 L 1229.37 939.76 C 1229.56 947.052 1229.65 965.454 1230.66 972.091 C 1231.77 987.511 1232.4 1010.65 1232.04 1025.92 C 1232.25 1049.06 1232.87 1075.83 1234 1098.92 C 1234.46 1116.58 1234.06 1153.27 1235.78 1168.52 C 1235.72 1181.08 1235.88 1193.64 1236.26 1206.2 C 1235.99 1211.55 1236.9 1217.24 1236.99 1223.01 C 1237.24 1240.49 1238.36 1257.6 1238.16 1275.12 C 1238.63 1297.05 1239.22 1318.96 1239.96 1340.88 C 1240.6 1345.56 1241.49 1375.46 1240.97 1379.71 L 1241.23 1389.99 C 1240.95 1395.97 1240.96 1408.97 1241.85 1414.9 C 1241.77 1439.92 1242.16 1464.94 1243.01 1489.95 C 1243.05 1514.28 1244.84 1538.13 1244.97 1561.96 C 1245.05 1592.32 1246.03 1622.07 1246.68 1652.41 C 1246.4 1677.04 1241.1 1704.01 1230.77 1726.49 C 1226.11 1735.17 1219.5 1747.48 1213.87 1755.35 C 1195.3 1781.28 1164.03 1803.02 1133.59 1812.33 C 1124.66 1815 1115.51 1816.83 1106.24 1817.8 C 1080.32 1820.66 1044.37 1820.38 1017.88 1820.57 C 994.844 1820.73 957.065 1821.15 934.82 1817.48 C 917.365 1814.48 900.522 1808.64 884.96 1800.18 C 862.702 1788.18 843.801 1770.31 829.592 1749.29 C 824.926 1742.38 821.022 1733.34 816.822 1726.91 C 807.356 1709.79 800.33 1672.35 799.774 1652.97 C 799.064 1628.6 801.383 1589.71 802.819 1564.96 C 802.816 1550.7 803.542 1535.93 804.069 1521.64 C 803.898 1518.9 804.057 1517.63 804.874 1514.97 C 804.833 1506.11 805.014 1497.95 805.963 1489.12 C 806.32 1463.9 807.681 1434.57 808.879 1409.25 C 808.778 1387.73 810.608 1361.79 811.325 1339.86 C 811.839 1333.34 811.967 1325.5 812.251 1318.87 C 812.941 1308.19 812.955 1296.77 813.154 1286.03 C 813.993 1280.94 814.121 1267.53 814.302 1261.81 C 814.713 1245.45 815.291 1229.09 816.037 1212.74 C 817.791 1202.33 817.911 1164.14 818.203 1151.92 C 818.037 1135.88 819.1 1118.45 819.884 1102.42 C 819.902 1085.25 821.57 1064.89 822.179 1047.35 C 822.926 1043.32 822.936 1027.21 823.069 1022.28 C 823.504 1005.44 824.112 988.607 824.895 971.779 C 824.902 966.438 825.262 960.852 825.525 955.504 C 827.288 919.607 827.618 883.56 829.603 847.686 C 826.635 849.17 823.528 850.889 820.586 852.468 C 803.372 865.359 778.133 877.245 756.393 880.057 C 719.934 884.675 683.118 874.816 653.845 852.596 C 625.941 831.458 607.758 799.944 603.422 765.206 C 600.599 742.161 604.759 705.525 619.389 686.798 C 621.595 675.538 796.596 440.172 809.03 430.839 z" fill="rgb(244,165,103)" transform="translate(0,0)"></path>
<path d="M 829.603 847.686 L 830.657 847.412 C 831.389 861.58 829.239 899.401 828.749 915.306 L 822.702 1076.25 C 820.681 1143.29 818.283 1210.31 815.508 1277.33 C 815.176 1285.87 814.96 1326.28 813.088 1331.65 C 813.532 1357.53 811.395 1385.91 810.713 1412.22 C 810.877 1414.08 811.075 1414.16 810.244 1415.67 L 803.738 1584.22 C 802.726 1586.13 802.976 1586.44 803.225 1588.78 C 802.903 1599.89 801.768 1615 801.839 1625.45 C 800.637 1631.42 800.747 1634.02 801.037 1640.16 C 799.486 1682.79 817.464 1738.85 847.738 1769.15 C 890.208 1811.65 925.115 1817.06 980.67 1818.71 C 1023.75 1819.74 1066.86 1818.73 1109.84 1815.66 C 1110.7 1815.64 1110.89 1815.74 1111.63 1815.38 C 1194.63 1801.12 1244.1 1732.89 1244.8 1650.95 C 1244.84 1646.44 1244.89 1641.93 1244.89 1637.42 C 1243.98 1630.85 1243.86 1625.21 1244.12 1618.59 C 1244.06 1582.41 1242.2 1542.64 1241.24 1506.32 L 1238.81 1368.02 C 1238.97 1361.36 1239.17 1354.71 1239.41 1348.05 C 1239.62 1351.79 1240.45 1378.73 1240.97 1379.71 L 1241.23 1389.99 C 1240.95 1395.97 1240.96 1408.97 1241.85 1414.9 C 1241.77 1439.92 1242.16 1464.94 1243.01 1489.95 C 1243.05 1514.28 1244.84 1538.13 1244.97 1561.96 C 1245.05 1592.32 1246.03 1622.07 1246.68 1652.41 C 1246.4 1677.04 1241.1 1704.01 1230.77 1726.49 C 1226.11 1735.17 1219.5 1747.48 1213.87 1755.35 C 1195.3 1781.28 1164.03 1803.02 1133.59 1812.33 C 1124.66 1815 1115.51 1816.83 1106.24 1817.8 C 1080.32 1820.66 1044.37 1820.38 1017.88 1820.57 C 994.844 1820.73 957.065 1821.15 934.82 1817.48 C 917.365 1814.48 900.522 1808.64 884.96 1800.18 C 862.702 1788.18 843.801 1770.31 829.592 1749.29 C 824.926 1742.38 821.022 1733.34 816.822 1726.91 C 807.356 1709.79 800.33 1672.35 799.774 1652.97 C 799.064 1628.6 801.383 1589.71 802.819 1564.96 C 802.816 1550.7 803.542 1535.93 804.069 1521.64 C 803.898 1518.9 804.057 1517.63 804.874 1514.97 C 804.833 1506.11 805.014 1497.95 805.963 1489.12 C 806.32 1463.9 807.681 1434.57 808.879 1409.25 C 808.778 1387.73 810.608 1361.79 811.325 1339.86 C 811.839 1333.34 811.967 1325.5 812.251 1318.87 C 812.941 1308.19 812.955 1296.77 813.154 1286.03 C 813.993 1280.94 814.121 1267.53 814.302 1261.81 C 814.713 1245.45 815.291 1229.09 816.037 1212.74 C 817.791 1202.33 817.911 1164.14 818.203 1151.92 C 818.037 1135.88 819.1 1118.45 819.884 1102.42 C 819.902 1085.25 821.57 1064.89 822.179 1047.35 C 822.926 1043.32 822.936 1027.21 823.069 1022.28 C 823.504 1005.44 824.112 988.607 824.895 971.779 C 824.902 966.438 825.262 960.852 825.525 955.504 C 827.288 919.607 827.618 883.56 829.603 847.686 z" fill="rgb(112,69,43)" transform="translate(0,0)"></path>
<path d="M 1244.12 1618.59 C 1245.48 1625.4 1245.34 1630.5 1244.89 1637.42 C 1243.98 1630.85 1243.86 1625.21 1244.12 1618.59 z" fill="rgb(198,101,38)" transform="translate(0,0)"></path>
<path d="M 804.874 1514.97 C 805.045 1517.61 805.172 1519.17 804.069 1521.64 C 803.898 1518.9 804.057 1517.63 804.874 1514.97 z" fill="rgb(164,90,42)" transform="translate(0,0)"></path>
<path d="M 810.244 1415.67 C 810.065 1413.81 809.874 1413.8 810.713 1412.22 C 810.877 1414.08 811.075 1414.16 810.244 1415.67 z" fill="rgb(164,90,42)" transform="translate(0,0)"></path>
<path d="M 1344.73 544.3 C 1364.21 568.325 1383.44 596.478 1400.84 622.248 C 1432.93 669.746 1466.78 699.815 1460.51 761.228 C 1456.77 796.341 1439.11 828.49 1411.49 850.486 C 1381.99 873.805 1344.46 884.513 1307.1 880.275 C 1282.09 877.437 1252.64 861.408 1228.83 851.09 L 1230.07 849.936 C 1248.89 858.074 1280.58 874.243 1299.17 877.491 C 1335.51 883.004 1370.16 876.196 1401.06 855.917 C 1450.63 823.386 1471.64 760.017 1452.1 704.24 C 1446.28 687.624 1426.46 663.211 1416.11 647.663 C 1392.99 612.93 1366.88 579.3 1343.04 545.019 L 1344.73 544.3 z" fill="rgb(128,82,52)" transform="translate(0,0)"></path>
<path d="M 1226.9 899.021 C 1227.24 893.011 1227.21 886.986 1226.83 880.979 C 1226.65 878.428 1226.05 877.882 1227.86 876.32 L 1229.37 939.76 C 1229.56 947.052 1229.65 965.454 1230.66 972.091 C 1231.77 987.511 1232.4 1010.65 1232.04 1025.92 C 1232.25 1049.06 1232.87 1075.83 1234 1098.92 C 1234.46 1116.58 1234.06 1153.27 1235.78 1168.52 C 1235.72 1181.08 1235.88 1193.64 1236.26 1206.2 C 1235.99 1211.55 1236.9 1217.24 1236.99 1223.01 C 1237.24 1240.49 1238.36 1257.6 1238.16 1275.12 C 1238.63 1297.05 1239.22 1318.96 1239.96 1340.88 C 1240.6 1345.56 1241.49 1375.46 1240.97 1379.71 C 1240.45 1378.73 1239.62 1351.79 1239.41 1348.05 C 1239.17 1354.71 1238.97 1361.36 1238.81 1368.02 C 1237.65 1358.02 1238.48 1347.51 1238.01 1337.51 C 1237.07 1317.55 1237.42 1297.53 1236.77 1277.63 C 1234.19 1198.67 1232.18 1119.7 1230.72 1040.71 C 1230.93 1038.38 1231.15 1038.11 1230.31 1036.2 C 1228.99 991.272 1227.14 943.668 1226.9 899.021 z" fill="rgb(128,82,52)" transform="translate(0,0)"></path>
<path d="M 809.03 430.839 C 814.727 421.823 840.337 391.81 848.424 382.133 C 867.333 359.484 886.599 337.136 906.215 315.097 C 915.764 304.368 927.673 290.611 937.635 280.897 C 963.733 255.449 1004.14 241.361 1040.56 243.116 C 1083.53 245.186 1111.64 260.382 1140.52 290.673 L 1138.24 291.47 C 1116.34 265.135 1086.7 249.863 1052.9 245.579 C 1051.67 245.041 1051.69 245.116 1050.31 245.207 C 974.828 242.81 951.262 266.645 904.604 319.35 C 884.364 342.3 864.403 365.493 844.725 388.925 C 837.774 397.228 814.972 426.832 809.03 430.839 z" fill="rgb(88,47,26)" transform="translate(0,0)"></path>
<path d="M 820.586 852.468 C 803.372 865.359 778.133 877.245 756.393 880.057 C 719.934 884.675 683.118 874.816 653.845 852.596 C 625.941 831.458 607.758 799.944 603.422 765.206 C 600.599 742.161 604.759 705.525 619.389 686.798 C 616.615 696.755 611.122 705.933 608.418 716.198 C 600.56 746.027 604.225 780.602 618.626 807.873 C 635.362 839.845 664.433 863.593 699.102 873.612 C 717.755 879.149 735.147 879.626 754.363 878.625 C 755.332 878.578 755.109 878.614 756.051 878.308 C 786.55 872.837 792.982 866.898 819.903 850.877 L 820.586 852.468 z" fill="rgb(128,82,52)" transform="translate(0,0)"></path>
<path d="M 1226.06 849.226 C 1226.64 849.882 1227.21 850.538 1227.79 851.194 C 1226.6 856.8 1228.01 869.336 1227.86 876.32 C 1226.05 877.882 1226.65 878.428 1226.83 880.979 C 1227.21 886.986 1227.24 893.011 1226.9 899.021 C 1226.14 892.483 1224.56 854.412 1226.06 849.226 z" fill="rgb(198,101,38)" transform="translate(0,0)"></path>
<path d="M 1330.69 525.424 C 1334.3 528.91 1339.86 537.683 1343.19 541.985 L 1344.73 544.3 L 1343.04 545.019 L 1342.11 543.733 C 1337.28 538.178 1333.13 532.051 1328.74 526.141 L 1330.69 525.424 z" fill="rgb(128,82,52)" transform="translate(0,0)"></path>
<path d="M 1342.11 543.733 L 1343.19 541.985 L 1344.73 544.3 L 1343.04 545.019 L 1342.11 543.733 z" fill="rgb(43,30,23)" transform="translate(0,0)"></path>
<path d="M 1229.53 395.464 C 1233.2 398.846 1238.69 406.606 1241.96 410.756 L 1240.79 413.077 C 1236.66 407.925 1231.55 401.435 1227.79 396.13 L 1229.53 395.464 z" fill="rgb(164,90,42)" transform="translate(0,0)"></path>
<path d="M 1308.34 494.958 C 1311.91 498.993 1314.72 503.614 1318.1 507.798 L 1319.7 510.451 L 1317.8 511.178 L 1316.84 509.256 C 1313.98 506.335 1308.11 498.581 1305.99 494.966 L 1308.34 494.958 z" fill="rgb(128,82,52)" transform="translate(0,0)"></path>
<path d="M 1316.84 509.256 L 1318.1 507.798 L 1319.7 510.451 L 1317.8 511.178 L 1316.84 509.256 z" fill="rgb(43,30,23)" transform="translate(0,0)"></path>
<path d="M 1273.41 449.991 C 1276.32 453.129 1279.34 457.43 1282.02 460.842 L 1280.72 462.33 C 1279.39 461.438 1271.94 451.633 1270.9 449.987 L 1273.41 449.991 z" fill="rgb(128,82,52)" transform="translate(0,0)"></path>
<path d="M 1319.7 510.451 C 1321.91 512.582 1324.1 516.264 1326.05 518.799 L 1327.83 521.343 L 1325.92 522.077 L 1325.1 520.776 C 1322.19 517.246 1320.5 514.844 1317.8 511.178 L 1319.7 510.451 z" fill="rgb(128,82,52)" transform="translate(0,0)"></path>
<path d="M 1325.1 520.776 L 1326.05 518.799 L 1327.83 521.343 L 1325.92 522.077 L 1325.1 520.776 z" fill="rgb(43,30,23)" transform="translate(0,0)"></path>
<path d="M 1193.42 351.998 C 1195.21 353.869 1199.3 358.818 1201.01 360.892 L 1199.51 362.129 C 1199.03 361.826 1192.08 353.901 1191.8 353.379 L 1190.92 351.888 L 1193.42 351.998 z" fill="rgb(164,90,42)" transform="translate(0,0)"></path>
<path d="M 1248.37 418.991 C 1250.3 421.074 1252.17 423.623 1254.03 425.824 C 1254.87 427.056 1255.67 427.933 1256.63 429.065 L 1253.88 428.965 L 1252.73 427.298 C 1251.48 426.499 1246.75 420.336 1245.91 418.981 L 1248.37 418.991 z" fill="rgb(128,82,52)" transform="translate(0,0)"></path>
<path d="M 1254.03 425.824 C 1254.87 427.056 1255.67 427.933 1256.63 429.065 L 1253.88 428.965 L 1252.73 427.298 L 1254.03 425.824 z" fill="rgb(43,30,23)" transform="translate(0,0)"></path>
<path d="M 1293.79 476.347 C 1295.23 477.786 1297.65 481.078 1299.08 482.858 C 1299.9 484.076 1300.63 484.85 1301.6 485.965 L 1298.83 485.919 L 1297.95 484.954 C 1296.21 483.224 1293.29 479.179 1292.02 477.024 L 1293.79 476.347 z" fill="rgb(128,82,52)" transform="translate(0,0)"></path>
<path d="M 1299.08 482.858 C 1299.9 484.076 1300.63 484.85 1301.6 485.965 L 1298.83 485.919 L 1297.95 484.954 L 1299.08 482.858 z" fill="rgb(43,30,23)" transform="translate(0,0)"></path>
<path d="M 1183.6 340.386 C 1185.25 341.897 1188.8 346.33 1190.34 348.207 L 1188.73 349.918 C 1187.98 349.308 1182.65 342.504 1181.62 341.311 L 1183.6 340.386 z" fill="rgb(164,90,42)" transform="translate(0,0)"></path>
<path d="M 819.903 850.877 C 823.494 849.253 830.372 842.87 830.657 847.412 L 829.603 847.686 C 826.635 849.17 823.528 850.889 820.586 852.468 L 819.903 850.877 z" fill="rgb(43,30,23)" transform="translate(0,0)"></path>
<path d="M 1284.31 463.924 C 1286 465.801 1287.47 467.886 1288.96 469.929 L 1287.45 471.162 C 1286.54 470.515 1283.28 466.269 1282.83 465.407 L 1281.97 463.956 L 1284.31 463.924 z" fill="rgb(128,82,52)" transform="translate(0,0)"></path>
<path d="M 1142.1 292.925 C 1144.24 295.638 1146.25 297.803 1148.6 300.312 L 1146.65 301.261 C 1144.71 298.073 1143.16 296.718 1140.52 294.101 L 1142.1 292.925 z" fill="rgb(43,30,23)" transform="translate(0,0)"></path>
<path d="M 1150.45 302.303 C 1152.32 304.865 1154.41 306.936 1156.62 309.184 L 1154.93 310.017 C 1152.86 307.426 1151.45 305.967 1149 303.745 L 1150.45 302.303 z" fill="rgb(43,30,23)" transform="translate(0,0)"></path>
<path d="M 1302.93 487.956 C 1304.7 490.314 1306.51 492.649 1308.34 494.958 L 1305.99 494.966 C 1304.41 492.719 1303.21 491.248 1301.45 489.19 L 1302.93 487.956 z" fill="rgb(43,30,23)" transform="translate(0,0)"></path>
<path d="M 1269.62 444.995 C 1270.13 445.597 1270.62 446.203 1271.12 446.811 C 1271.87 447.934 1272.61 448.911 1273.41 449.991 L 1270.9 449.987 L 1269.76 448.301 C 1268 447.199 1268.07 446.853 1266.91 444.965 L 1269.62 444.995 z" fill="rgb(128,82,52)" transform="translate(0,0)"></path>
<path d="M 1271.12 446.811 C 1271.87 447.934 1272.61 448.911 1273.41 449.991 L 1270.9 449.987 L 1269.76 448.301 L 1271.12 446.811 z" fill="rgb(50,24,13)" transform="translate(0,0)"></path>
<path d="M 1244.61 413.966 C 1245.1 414.583 1245.59 415.203 1246.07 415.826 C 1246.83 416.951 1247.56 417.909 1248.37 418.991 L 1245.91 418.981 L 1244.74 417.284 C 1242.98 416.186 1242.99 415.76 1241.8 413.905 L 1244.61 413.966 z" fill="rgb(164,90,42)" transform="translate(0,0)"></path>
<path d="M 1246.07 415.826 C 1246.83 416.951 1247.56 417.909 1248.37 418.991 L 1245.91 418.981 L 1244.74 417.284 L 1246.07 415.826 z" fill="rgb(43,30,23)" transform="translate(0,0)"></path>
<path d="M 1265.64 440.059 C 1266.11 440.655 1266.58 441.255 1267.04 441.86 C 1267.88 443.054 1268.67 443.901 1269.62 444.995 L 1266.91 444.965 L 1265.73 443.289 C 1263.99 442.19 1264.02 441.793 1262.84 439.944 L 1265.64 440.059 z" fill="rgb(128,82,52)" transform="translate(0,0)"></path>
<path d="M 1267.04 441.86 C 1267.88 443.054 1268.67 443.901 1269.62 444.995 L 1266.91 444.965 L 1265.73 443.289 L 1267.04 441.86 z" fill="rgb(43,30,23)" transform="translate(0,0)"></path>
<path d="M 1288.96 469.929 C 1290.55 472.146 1292.2 474.13 1293.79 476.347 L 1292.02 477.024 C 1290.47 474.78 1289.2 473.237 1287.45 471.162 L 1288.96 469.929 z" fill="rgb(43,30,23)" transform="translate(0,0)"></path>
<path d="M 1159.19 312.144 C 1160.99 314.501 1162.61 316.179 1164.64 318.33 L 1162.73 319.242 C 1160.89 316.295 1160.51 315.919 1157.66 313.954 L 1159.19 312.144 z" fill="rgb(43,30,23)" transform="translate(0,0)"></path>
<path d="M 801.037 1640.16 C 800.747 1634.02 800.637 1631.42 801.839 1625.45 C 802.221 1631.74 802.269 1634.05 801.037 1640.16 z" fill="rgb(212,150,105)" transform="translate(0,0)"></path>
<path d="M 1166.49 320.352 C 1168.09 322.595 1169.29 323.77 1171.26 325.728 L 1170.55 327.468 C 1168.57 325.168 1167.26 323.772 1164.99 321.73 L 1166.49 320.352 z" fill="rgb(43,30,23)" transform="translate(0,0)"></path>
<path d="M 1220.62 384.362 C 1221.08 384.826 1221.54 385.294 1222 385.765 C 1222.85 387.01 1223.57 387.763 1224.57 388.901 L 1221.96 388.955 L 1221.09 387.786 C 1220.05 386.873 1219.63 386.54 1218.73 385.548 L 1220.62 384.362 z" fill="rgb(164,90,42)" transform="translate(0,0)"></path>
<path d="M 1222 385.765 C 1222.85 387.01 1223.57 387.763 1224.57 388.901 L 1221.96 388.955 L 1221.09 387.786 L 1222 385.765 z" fill="rgb(43,30,23)" transform="translate(0,0)"></path>
<path d="M 1327.83 521.343 C 1328.21 521.716 1328.6 522.086 1328.99 522.452 L 1330.69 525.424 L 1328.74 526.141 L 1328.06 524.871 C 1327.09 523.713 1326.71 523.296 1325.92 522.077 L 1327.83 521.343 z" fill="rgb(128,82,52)" transform="translate(0,0)"></path>
<path d="M 1328.99 522.452 L 1330.69 525.424 L 1328.74 526.141 L 1328.06 524.871 L 1328.99 522.452 z" fill="rgb(43,30,23)" transform="translate(0,0)"></path>
<path d="M 1173.61 328.543 C 1175.28 330.622 1176.83 332.407 1178.6 334.399 L 1176.76 335.205 C 1175.19 332.801 1175.13 332.682 1172.86 330.955 L 1173.61 328.543 z" fill="rgb(43,30,23)" transform="translate(0,0)"></path>
<path d="M 1261.55 435.428 L 1262.72 436.526 C 1263.67 437.846 1264.57 438.833 1265.64 440.059 L 1262.84 439.944 L 1262.06 438.853 C 1261.07 437.82 1260.6 437.354 1259.75 436.261 L 1261.55 435.428 z" fill="rgb(128,82,52)" transform="translate(0,0)"></path>
<path d="M 1262.72 436.526 C 1263.67 437.846 1264.57 438.833 1265.64 440.059 L 1262.84 439.944 L 1262.06 438.853 L 1262.72 436.526 z" fill="rgb(43,30,23)" transform="translate(0,0)"></path>
<path d="M 1156.62 309.184 C 1157.65 310.242 1158.26 311 1159.19 312.144 L 1157.66 313.954 C 1156.46 312.466 1155.94 311.626 1154.93 310.017 L 1156.62 309.184 z" fill="rgb(164,90,42)" transform="translate(0,0)"></path>
<path d="M 1204.62 365.197 C 1205.53 366.135 1205.99 366.684 1206.81 367.701 L 1205.74 370.027 C 1204.45 368.457 1204.03 367.746 1202.98 365.999 L 1204.62 365.197 z" fill="rgb(164,90,42)" transform="translate(0,0)"></path>
<path d="M 1257.99 430.921 C 1259.22 432.594 1260.23 433.852 1261.55 435.428 L 1259.75 436.261 C 1258.42 434.305 1258.14 433.865 1256.5 432.138 L 1257.99 430.921 z" fill="rgb(43,30,23)" transform="translate(0,0)"></path>
<path d="M 1226.03 390.903 C 1227.21 392.543 1228.25 393.882 1229.53 395.464 L 1227.79 396.13 C 1226.44 394.23 1226.08 393.75 1224.5 392.101 L 1226.03 390.903 z" fill="rgb(43,30,23)" transform="translate(0,0)"></path>
<path d="M 1224.57 388.901 C 1225.06 389.568 1225.54 390.235 1226.03 390.903 L 1224.5 392.101 C 1223.58 391.562 1223.14 390.97 1222.61 390.052 L 1221.96 388.955 L 1224.57 388.901 z" fill="rgb(164,90,42)" transform="translate(0,0)"></path>
<path d="M 1140.52 290.673 C 1141.05 291.424 1141.58 292.174 1142.1 292.925 L 1140.52 294.101 C 1139.13 293.303 1139.14 292.976 1138.24 291.47 L 1140.52 290.673 z" fill="rgb(128,82,52)" transform="translate(0,0)"></path>
<path d="M 1256.63 429.065 C 1257.1 429.674 1257.55 430.293 1257.99 430.921 L 1256.5 432.138 C 1254.94 431.129 1254.95 430.666 1253.88 428.965 L 1256.63 429.065 z" fill="rgb(128,82,52)" transform="translate(0,0)"></path>
<path d="M 1201.01 360.892 C 1202.4 362.76 1203.05 363.497 1204.62 365.197 L 1202.98 365.999 C 1201.65 364.377 1200.97 363.596 1199.51 362.129 L 1201.01 360.892 z" fill="rgb(50,24,13)" transform="translate(0,0)"></path>
<path d="M 1301.6 485.965 C 1302.05 486.621 1302.5 487.284 1302.93 487.956 L 1301.45 489.19 C 1300.01 488.167 1299.82 487.464 1298.83 485.919 L 1301.6 485.965 z" fill="rgb(128,82,52)" transform="translate(0,0)"></path>
<path d="M 1171.26 325.728 C 1172.26 326.82 1172.72 327.379 1173.61 328.543 L 1172.86 330.955 C 1171.49 329.246 1171.39 329.293 1170.55 327.468 L 1171.26 325.728 z" fill="rgb(164,90,42)" transform="translate(0,0)"></path>
<path d="M 1206.81 367.701 C 1208.18 369.549 1209.11 370.685 1210.6 372.384 L 1208.78 373.08 C 1207.41 371.335 1207.44 371.249 1205.74 370.027 L 1206.81 367.701 z" fill="rgb(43,30,23)" transform="translate(0,0)"></path>
<path d="M 1211.92 373.786 C 1213.2 375.526 1214.19 376.772 1215.57 378.401 L 1213.75 379.537 C 1212.57 377.498 1212.6 377.314 1211.01 375.814 L 1211.92 373.786 z" fill="rgb(43,30,23)" transform="translate(0,0)"></path>
<path d="M 1216.82 379.787 C 1218.16 381.52 1219.18 382.747 1220.62 384.362 L 1218.73 385.548 C 1217.6 383.579 1217.63 383.352 1216.04 381.826 L 1216.82 379.787 z" fill="rgb(43,30,23)" transform="translate(0,0)"></path>
<path d="M 1180.05 335.976 C 1181.29 337.643 1182.26 338.828 1183.6 340.386 L 1181.62 341.311 C 1180.51 339.321 1180.58 339.239 1179.02 337.786 L 1180.05 335.976 z" fill="rgb(43,30,23)" transform="translate(0,0)"></path>
<path d="M 1148.6 300.312 C 1149.22 300.976 1149.84 301.639 1150.45 302.303 L 1149 303.745 C 1147.97 302.741 1147.53 302.336 1146.65 301.261 L 1148.6 300.312 z" fill="rgb(164,90,42)" transform="translate(0,0)"></path>
<path d="M 1164.64 318.33 C 1165.26 319.004 1165.88 319.678 1166.49 320.352 L 1164.99 321.73 C 1163.97 320.702 1163.59 320.345 1162.73 319.242 L 1164.64 318.33 z" fill="rgb(164,90,42)" transform="translate(0,0)"></path>
<path d="M 1190.34 348.207 C 1191.52 349.894 1192.04 350.469 1193.42 351.998 L 1190.92 351.888 C 1190.17 351.194 1189.51 350.572 1188.73 349.918 L 1190.34 348.207 z" fill="rgb(43,30,23)" transform="translate(0,0)"></path>
<path d="M 1178.6 334.399 C 1179.08 334.925 1179.56 335.451 1180.05 335.976 L 1179.02 337.786 C 1178.02 336.734 1177.6 336.323 1176.76 335.205 L 1178.6 334.399 z" fill="rgb(164,90,42)" transform="translate(0,0)"></path>
<path d="M 1210.6 372.384 C 1211.04 372.851 1211.48 373.318 1211.92 373.786 L 1211.01 375.814 C 1210.04 374.706 1209.61 374.249 1208.78 373.08 L 1210.6 372.384 z" fill="rgb(164,90,42)" transform="translate(0,0)"></path>
<path d="M 1215.57 378.401 C 1215.98 378.863 1216.4 379.325 1216.82 379.787 L 1216.04 381.826 C 1215.15 380.992 1214.56 380.436 1213.75 379.537 L 1215.57 378.401 z" fill="rgb(164,90,42)" transform="translate(0,0)"></path>
<path d="M 803.225 1588.78 C 802.976 1586.44 802.726 1586.13 803.738 1584.22 C 803.998 1586.45 804.259 1586.88 803.225 1588.78 z" fill="rgb(198,101,38)" transform="translate(0,0)"></path>
<path d="M 1226.06 849.226 C 1227.83 849.399 1228.45 849.336 1230.07 849.936 L 1228.83 851.09 L 1227.79 851.194 C 1227.21 850.538 1226.64 849.882 1226.06 849.226 z" fill="rgb(43,30,23)" transform="translate(0,0)"></path>
<path d="M 1230.31 1036.2 C 1231.15 1038.11 1230.93 1038.38 1230.72 1040.71 C 1229.77 1038.84 1230.04 1038.42 1230.31 1036.2 z" fill="rgb(198,101,38)" transform="translate(0,0)"></path>
<path d="M 1050.31 245.207 C 1051.69 245.116 1051.67 245.041 1052.9 245.579 C 1051.39 245.777 1051.38 245.941 1050.31 245.207 z" fill="rgb(164,90,42)" transform="translate(0,0)"></path>
<path d="M 726.092 673.769 C 729.358 668.016 737.546 657.457 741.644 651.841 L 770.371 612.489 C 818.383 547.409 868.552 483.949 920.794 422.213 C 937.555 402.262 956.549 378.448 974.529 359.962 C 989.811 344.249 1017.45 337.243 1039.12 338.81 C 1069 340.97 1088.71 352.75 1108.48 374.567 C 1108.89 375.034 1109.31 375.497 1109.73 375.957 C 1111.01 377.766 1112.32 379.55 1113.67 381.31 C 1115.69 383.284 1116.93 385.093 1118.68 387.298 C 1120.6 389.195 1121.9 390.901 1123.65 392.951 L 1124.77 394.165 L 1127 396.995 C 1127.93 398.156 1128.65 398.889 1129.68 399.988 L 1130.24 400.777 C 1132.19 402.913 1133.84 405.102 1135.65 407.351 C 1137.62 409.208 1138.98 411.216 1140.66 413.352 C 1142.11 414.8 1143.32 416.385 1144.7 417.954 C 1145.19 418.532 1145.68 419.114 1146.17 419.698 C 1147.44 421.531 1148.26 422.548 1149.69 424.263 C 1151.42 426.072 1152.98 428.289 1154.68 430.279 C 1157.12 432.829 1161.57 438.482 1163.68 441.304 C 1165.93 443.528 1167.63 445.893 1169.68 448.327 C 1171.08 449.839 1172.36 451.63 1173.69 453.267 C 1176.5 456.176 1179.99 461.041 1182.66 464.326 C 1184.06 465.747 1185.26 467.313 1186.59 468.84 L 1188.17 470.724 C 1188.93 471.838 1189.52 472.527 1190.37 473.56 L 1192.18 475.606 C 1192.93 476.726 1193.49 477.397 1194.34 478.434 L 1196.21 480.651 C 1196.99 481.908 1197.79 483.149 1198.62 484.376 C 1200.44 486.053 1201.17 487.288 1202.67 489.326 C 1204.48 491.321 1208.06 495.977 1209.73 498.185 C 1211.21 499.881 1212.32 501.569 1213.63 503.38 C 1215.04 504.72 1215.21 505.114 1216.44 506.69 L 1217.69 508.263 C 1219.05 509.8 1220.34 511.653 1221.66 513.311 C 1223.17 514.887 1224.32 516.583 1225.66 518.323 C 1226.75 519.488 1227.44 520.315 1228.45 521.549 L 1230.2 523.657 C 1230.99 524.931 1231.8 526.113 1232.63 527.357 C 1234.01 528.764 1234.55 529.548 1235.75 531.14 C 1236.77 532.376 1237.78 533.618 1238.79 534.866 C 1239.88 536.522 1240.57 537.437 1241.78 539.005 C 1243.78 541.799 1245.77 544.258 1247.32 547.31 C 1249.55 548.984 1249.99 549.87 1251.72 552.191 L 1254.32 555.392 L 1256.2 557.67 C 1256.99 558.944 1257.8 560.107 1258.64 561.345 C 1259.94 562.767 1260.56 563.686 1261.7 565.262 C 1263.8 567.585 1266.43 571.455 1268.58 574.099 L 1269.12 574.734 C 1269.94 575.949 1270.77 577.155 1271.62 578.352 C 1272.85 579.706 1273.63 580.719 1274.73 582.159 C 1276 583.664 1276.67 584.651 1277.79 586.287 C 1279.22 587.884 1280.35 589.618 1281.63 591.359 C 1282.9 592.805 1283.52 593.762 1284.63 595.362 C 1285.95 596.703 1286.6 597.564 1287.78 599.054 C 1288.56 600.06 1289.34 601.071 1290.12 602.086 L 1292.18 604.596 C 1293 605.902 1293.8 606.996 1294.69 608.246 C 1295.58 609.206 1296.45 610.187 1297.3 611.189 C 1297.93 612.03 1298.55 612.875 1299.16 613.725 C 1299.96 614.999 1300.76 616.139 1301.61 617.373 C 1302.99 618.838 1303.49 619.647 1304.66 621.316 C 1305.97 622.806 1306.51 623.682 1307.64 625.347 C 1309.16 626.894 1309.42 627.399 1310.69 629.247 C 1313.89 632.881 1318.17 639.32 1321.7 643.667 C 1322.77 645.312 1323.6 646.489 1324.77 648.07 C 1325.84 649.505 1326.73 650.78 1327.74 652.242 C 1328.89 653.688 1329.62 654.749 1330.67 656.283 C 1331.96 657.772 1332.54 658.696 1333.66 660.342 C 1335.04 661.805 1335.52 662.574 1336.7 664.237 C 1337.96 665.701 1338.61 666.658 1339.72 668.257 C 1340.65 669.325 1341.55 670.413 1342.43 671.52 C 1343.02 672.304 1343.55 673.067 1344.11 673.873 C 1345.8 676.369 1347.79 678.949 1349.63 681.34 C 1350.88 682.789 1351.56 683.781 1352.66 685.333 C 1354.04 686.851 1355.21 688.542 1356.57 690.085 L 1357.11 690.821 C 1357.95 692.023 1358.79 693.098 1359.68 694.257 L 1362.66 698.291 C 1363.69 699.616 1364.36 700.602 1365.29 701.999 C 1377.16 717.833 1380.72 733.999 1377.53 753.261 C 1366.47 793.41 1336.45 810.968 1294.79 797.925 C 1291.03 796.749 1285.93 794.5 1282.62 792.427 C 1264.57 784.822 1239.2 769.877 1221.72 764.357 C 1220.64 763.744 1219.79 763.256 1218.74 762.586 C 1210.16 758.83 1201.15 755.023 1192.88 750.643 C 1180.96 746.591 1172.93 738.535 1158.06 745.538 C 1153.44 747.716 1152.84 750.049 1149.62 752.442 C 1144.63 763.119 1146.48 782.18 1146.71 794.411 C 1147.04 813.657 1147.48 832.9 1148.01 852.141 C 1149.32 907.73 1150.92 963.312 1152.79 1018.88 C 1153.56 1044.85 1155.49 1077.03 1155.15 1102.36 C 1156.15 1104.69 1155.95 1107.81 1155.87 1110.35 L 1161.33 1287.4 C 1162.07 1309.31 1162.7 1331.22 1163.23 1353.14 C 1163.36 1359.25 1164.17 1376.3 1163.78 1381.35 C 1165.89 1433.32 1167.43 1485.32 1168.39 1537.33 C 1169.01 1561.27 1169.22 1585.6 1169.9 1609.52 C 1170.65 1636.12 1159.61 1677.49 1139.64 1696.61 C 1110.15 1732.21 1070.8 1740.77 1026.94 1739.02 C 1011.14 1738.39 995.972 1739.85 979.934 1737.37 C 970.698 1735.88 961.684 1733.25 953.105 1729.52 C 917.901 1714.46 891.668 1683.93 882.083 1646.86 C 873.68 1615.29 878.539 1584.33 879.926 1551.78 L 884 1456.91 L 903.386 986.004 L 909.719 834.487 C 910.74 809.342 912.251 783.823 912.587 758.676 C 912.678 751.895 911.664 749.304 909.193 743.119 C 893.78 726.676 883.122 735.145 867.227 743.553 C 860.358 749.198 829.891 764.664 820.175 770.474 C 805.524 777.773 790.291 790.784 774.996 796.221 C 733.403 811.007 691.557 784.167 692.424 739.155 C 692.839 717.633 705.185 696.919 719.747 682.959 C 719.938 680.542 723.989 674.983 726.092 673.769 z" fill="rgb(198,101,38)" transform="translate(0,0)"></path>
<path d="M 910.696 742.516 C 917.614 750.499 913.984 785.42 913.486 796.361 L 911.332 849.969 C 908.211 923.745 903.369 1002.85 902.011 1076.23 C 902.169 1081.06 901.786 1082.71 901.037 1087.6 C 901.263 1116.43 898.371 1153.6 897.086 1183 L 890.286 1349.48 C 888.354 1403.62 886.15 1457.75 883.673 1511.86 C 882.6 1536.27 882.26 1567.42 879.751 1591.37 C 878.941 1593.2 879.116 1593.48 879.199 1595.63 C 878.489 1635.24 885.748 1670.7 914.264 1700.31 C 922.991 1709.23 933.021 1716.78 944.012 1722.69 C 945.068 1722.9 945.042 1722.87 945.906 1723.52 C 980.274 1741.69 1025.47 1737.23 1063.96 1735.66 C 1064.77 1735.38 1064.79 1735.39 1065.64 1735.33 C 1082.65 1733.39 1095.29 1728.06 1109.79 1719.42 C 1110.54 1718.89 1110.12 1719.17 1111.04 1718.62 L 1115.77 1715.45 C 1116.57 1714.78 1116.16 1715.08 1116.99 1714.54 C 1120.03 1712.05 1122.37 1710.36 1125.59 1708.11 C 1126.5 1707.4 1126.48 1707.51 1127.1 1706.66 C 1131.17 1703.24 1134.22 1699.81 1137.82 1695.94 L 1139.64 1696.61 C 1110.15 1732.21 1070.8 1740.77 1026.94 1739.02 C 1011.14 1738.39 995.972 1739.85 979.934 1737.37 C 970.698 1735.88 961.684 1733.25 953.105 1729.52 C 917.901 1714.46 891.668 1683.93 882.083 1646.86 C 873.68 1615.29 878.539 1584.33 879.926 1551.78 L 884 1456.91 L 903.386 986.004 L 909.719 834.487 C 910.74 809.342 912.251 783.823 912.587 758.676 C 912.678 751.895 911.664 749.304 909.193 743.119 L 910.696 742.516 z" fill="rgb(114,55,24)" transform="translate(0,0)"></path>
<path d="M 902.011 1076.23 C 902.169 1081.06 901.786 1082.71 901.037 1087.6 C 900.956 1083.22 900.934 1080.51 902.011 1076.23 z" fill="rgb(164,90,42)" transform="translate(0,0)"></path>
<path d="M 726.092 673.769 C 729.358 668.016 737.546 657.457 741.644 651.841 L 770.371 612.489 C 818.383 547.409 868.552 483.949 920.794 422.213 C 937.555 402.262 956.549 378.448 974.529 359.962 C 989.811 344.249 1017.45 337.243 1039.12 338.81 C 1069 340.97 1088.71 352.75 1108.48 374.567 L 1106.45 375.475 C 1097.58 365.709 1088.24 356.154 1076.06 350.706 C 1028.23 329.302 987.31 341.584 957.198 381.977 C 956.598 382.479 956.772 382.318 956.303 383.034 C 953.242 386.602 949.969 390.27 947.119 393.987 C 946.246 394.663 946.449 394.463 945.847 395.431 C 934.872 408.275 914.902 430.692 905.16 443.982 C 904.564 444.471 904.73 444.314 904.255 445.002 L 900.131 450.006 C 899.601 450.434 899.669 450.428 899.312 451.062 L 895.187 455.93 C 894.167 456.798 894.25 456.757 893.549 457.905 C 869.908 485.611 837.652 525.481 816.215 554.958 C 815.142 555.818 815.244 555.79 814.639 557.052 C 811.874 560.774 807.043 567.883 804.352 571.042 C 803.614 572.331 803.755 572.359 802.629 573.049 C 797.604 579.515 792.01 586.416 787.196 592.964 C 786.597 594.316 786.733 594.328 785.709 595.162 C 784.108 596.813 783.573 597.121 782.643 599.055 L 773.148 611.913 C 772.27 612.731 772.263 612.864 771.507 613.943 L 770.709 615.328 C 769.359 616.631 769.417 616.456 768.62 618.033 L 765.163 622.922 C 764.15 623.827 764.234 623.809 763.627 625.041 L 743.191 652.956 C 742.612 654.279 742.728 654.313 741.769 655.176 C 739.206 658.518 732.112 667.522 730.551 670.895 C 729.039 671.847 727.571 672.763 726.092 673.769 z" fill="rgb(88,47,26)" transform="translate(0,0)"></path>
<path d="M 1146.31 754.194 L 1149.62 752.442 C 1144.63 763.119 1146.48 782.18 1146.71 794.411 C 1147.04 813.657 1147.48 832.9 1148.01 852.141 C 1149.32 907.73 1150.92 963.312 1152.79 1018.88 C 1153.56 1044.85 1155.49 1077.03 1155.15 1102.36 C 1151.97 1094.42 1154.64 1092.21 1153.01 1088.36 C 1149.49 993.986 1146.73 899.589 1144.73 805.175 C 1145.24 789.939 1144.17 775.212 1145.01 759.972 L 1146.31 754.194 z" fill="rgb(114,55,24)" transform="translate(0,0)"></path>
<path d="M 1162.82 1403.02 C 1163.84 1394.79 1161.24 1388.76 1163.78 1381.35 C 1165.89 1433.32 1167.43 1485.32 1168.39 1537.33 C 1169.01 1561.27 1169.22 1585.6 1169.9 1609.52 C 1170.65 1636.12 1159.61 1677.49 1139.64 1696.61 L 1137.82 1695.94 C 1162.12 1668.03 1167.72 1637.78 1167.89 1602.02 C 1167.19 1597.14 1166.62 1592.28 1167.12 1587.35 C 1165.79 1547.54 1165.84 1506.86 1164.64 1466.92 C 1164 1445.77 1162.89 1424.07 1162.82 1403.02 z" fill="rgb(88,47,26)" transform="translate(0,0)"></path>
<path d="M 1167.12 1587.35 C 1168.03 1590.09 1167.97 1599.14 1167.89 1602.02 C 1167.19 1597.14 1166.62 1592.28 1167.12 1587.35 z" fill="rgb(112,69,43)" transform="translate(0,0)"></path>
<path d="M 867.227 743.553 C 860.358 749.198 829.891 764.664 820.175 770.474 C 805.524 777.773 790.291 790.784 774.996 796.221 C 733.403 811.007 691.557 784.167 692.424 739.155 C 692.839 717.633 705.185 696.919 719.747 682.959 C 717.69 691.817 703.354 705.427 699.247 716.023 C 692.478 733.487 692.222 751.71 701.146 768.429 C 708.078 781.436 719.913 791.14 734.026 795.389 C 742.908 798.132 749.45 798.097 758.395 797.678 C 759.633 797.616 759.664 797.669 760.854 797.281 C 777.534 795.512 799.023 780.579 813.904 771.891 L 868.062 740.773 L 867.227 743.553 z" fill="rgb(114,55,24)" transform="translate(0,0)"></path>
<path d="M 1154.8 1132.66 C 1156.43 1123.4 1152.55 1120.15 1155.87 1110.35 L 1161.33 1287.4 C 1162.07 1309.31 1162.7 1331.22 1163.23 1353.14 C 1163.36 1359.25 1164.17 1376.3 1163.78 1381.35 C 1161.24 1388.76 1163.84 1394.79 1162.82 1403.02 C 1161.12 1386.15 1160.78 1356.27 1160.74 1339.42 C 1160 1332.57 1159.74 1319.82 1160.08 1312.98 C 1157.57 1252.9 1155.81 1192.78 1154.8 1132.66 z" fill="rgb(114,55,24)" transform="translate(0,0)"></path>
<path d="M 1160.08 1312.98 C 1161.13 1321.44 1161.1 1330.88 1160.74 1339.42 C 1160 1332.57 1159.74 1319.82 1160.08 1312.98 z" fill="rgb(164,90,42)" transform="translate(0,0)"></path>
<path d="M 1376.77 744.591 C 1376.95 747.852 1377.07 750.005 1377.53 753.261 C 1366.47 793.41 1336.45 810.968 1294.79 797.925 C 1291.03 796.749 1285.93 794.5 1282.62 792.427 C 1281.35 790.13 1280.67 790.582 1278.9 788.906 C 1288.03 791.981 1294.9 797.341 1305 798.916 C 1346.13 805.333 1371.21 783.475 1376.77 744.591 z" fill="rgb(88,47,26)" transform="translate(0,0)"></path>
<path d="M 1222.3 762.312 C 1224.75 763.516 1226.75 764.405 1229.28 765.459 C 1230.42 766.466 1230.31 766.505 1231.73 766.566 C 1235.45 768.127 1238.71 769.954 1242.44 771.541 C 1243.54 772.543 1243.3 772.478 1244.71 772.6 C 1255.29 777.914 1268.98 783.453 1278.9 788.906 C 1280.67 790.582 1281.35 790.13 1282.62 792.427 C 1264.57 784.822 1239.2 769.877 1221.72 764.357 L 1222.3 762.312 z" fill="rgb(50,24,13)" transform="translate(0,0)"></path>
<path d="M 1365.29 701.999 C 1377.16 717.833 1380.72 733.999 1377.53 753.261 C 1377.07 750.005 1376.95 747.852 1376.77 744.591 C 1376.66 727.092 1372.63 716.227 1362.74 701.954 L 1365.29 701.999 z" fill="rgb(88,47,26)" transform="translate(0,0)"></path>
<path d="M 1146.31 754.194 C 1160.46 734.483 1178.73 739.453 1197.13 750.485 C 1195.71 750.548 1194.29 750.601 1192.88 750.643 C 1180.96 746.591 1172.93 738.535 1158.06 745.538 C 1153.44 747.716 1152.84 750.049 1149.62 752.442 L 1146.31 754.194 z" fill="rgb(112,69,43)" transform="translate(0,0)"></path>
<path d="M 879.072 734.564 C 888.662 730.842 891.203 731.323 900.716 733.826 C 902.582 734.518 902.745 734.599 904.274 735.997 C 907.504 738.767 908.008 739.263 910.696 742.516 L 909.193 743.119 C 893.78 726.676 883.122 735.145 867.227 743.553 L 868.062 740.773 C 871.495 738.985 873.907 737.593 877.176 735.544 C 877.998 734.767 877.962 734.81 879.072 734.564 z" fill="rgb(50,24,13)" transform="translate(0,0)"></path>
<path d="M 900.716 733.826 C 902.582 734.518 902.745 734.599 904.274 735.997 C 903.065 735.716 902.378 735.439 901.479 734.553 L 900.716 733.826 z" fill="rgb(128,82,52)" transform="translate(0,0)"></path>
<path d="M 1153.01 1088.36 C 1154.64 1092.21 1151.97 1094.42 1155.15 1102.36 C 1156.15 1104.69 1155.95 1107.81 1155.87 1110.35 C 1152.55 1120.15 1156.43 1123.4 1154.8 1132.66 C 1154.12 1130.16 1152.7 1091.55 1153.01 1088.36 z" fill="rgb(112,69,43)" transform="translate(0,0)"></path>
<path d="M 1192.88 750.643 C 1194.29 750.601 1195.71 750.548 1197.13 750.485 C 1199.74 752.119 1204.35 754.246 1207.27 755.483 C 1208.1 756.194 1208.05 756.203 1209.12 756.372 C 1211.89 757.686 1214.13 758.786 1217.11 759.498 L 1218.74 762.586 C 1210.16 758.83 1201.15 755.023 1192.88 750.643 z" fill="rgb(50,24,13)" transform="translate(0,0)"></path>
<path d="M 1310.69 629.247 C 1313.89 632.881 1318.17 639.32 1321.7 643.667 L 1318.99 643.971 C 1316.84 640.199 1312.98 635.083 1310.02 631.952 L 1310.69 629.247 z" fill="rgb(50,24,13)" transform="translate(0,0)"></path>
<path d="M 730.551 670.895 C 728.337 673.68 722.815 682.151 719.747 682.959 C 719.938 680.542 723.989 674.983 726.092 673.769 C 727.571 672.763 729.039 671.847 730.551 670.895 z" fill="rgb(164,90,42)" transform="translate(0,0)"></path>
<path d="M 1145.01 759.972 C 1144.17 775.212 1145.24 789.939 1144.73 805.175 C 1143.79 797.081 1143.2 767.536 1145.01 759.972 z" fill="rgb(128,82,52)" transform="translate(0,0)"></path>
<path d="M 1154.68 430.279 C 1157.12 432.829 1161.57 438.482 1163.68 441.304 L 1161.04 440.962 C 1158.74 437.881 1156.92 435.29 1153.94 432.922 L 1154.68 430.279 z" fill="rgb(50,24,13)" transform="translate(0,0)"></path>
<path d="M 1173.69 453.267 C 1176.5 456.176 1179.99 461.041 1182.66 464.326 L 1179.71 464.108 C 1178.01 461.042 1175.64 458.232 1173.12 455.804 L 1173.69 453.267 z" fill="rgb(50,24,13)" transform="translate(0,0)"></path>
<path d="M 1202.67 489.326 C 1204.48 491.321 1208.06 495.977 1209.73 498.185 L 1206.96 497.956 C 1205.01 495.044 1204.47 494.179 1202.05 491.799 L 1202.67 489.326 z" fill="rgb(50,24,13)" transform="translate(0,0)"></path>
<path d="M 1261.7 565.262 C 1263.8 567.585 1266.43 571.455 1268.58 574.099 L 1266.04 574.685 C 1264.28 571.42 1263.72 570.428 1261.11 567.808 L 1261.7 565.262 z" fill="rgb(50,24,13)" transform="translate(0,0)"></path>
<path d="M 1241.78 539.005 C 1243.78 541.799 1245.77 544.258 1247.32 547.31 L 1245.53 547.511 C 1243.76 544.883 1243.27 543.986 1241.1 541.811 L 1241.78 539.005 z" fill="rgb(50,24,13)" transform="translate(0,0)"></path>
<path d="M 1163.68 441.304 C 1165.93 443.528 1167.63 445.893 1169.68 448.327 L 1166.78 448.151 C 1165.19 445.572 1165.24 445.706 1162.86 443.7 L 1163.68 441.304 z" fill="rgb(50,24,13)" transform="translate(0,0)"></path>
<path d="M 1342.46 675.019 L 1344.11 673.873 C 1345.8 676.369 1347.79 678.949 1349.63 681.34 L 1347.24 681.758 C 1345.47 678.782 1344.66 677.753 1342.46 675.019 z" fill="rgb(50,24,13)" transform="translate(0,0)"></path>
<path d="M 1190.37 473.56 L 1192.18 475.606 C 1192.93 476.726 1193.49 477.397 1194.34 478.434 L 1192.15 478.979 L 1190.78 477.169 C 1189.75 476.644 1189.21 476.113 1188.7 475.071 L 1188.12 473.981 L 1190.37 473.56 z" fill="rgb(112,69,43)" transform="translate(0,0)"></path>
<path d="M 1190.78 477.169 L 1192.18 475.606 C 1192.93 476.726 1193.49 477.397 1194.34 478.434 L 1192.15 478.979 L 1190.78 477.169 z" fill="rgb(50,24,13)" transform="translate(0,0)"></path>
<path d="M 1186.59 468.84 L 1188.17 470.724 C 1188.93 471.838 1189.52 472.527 1190.37 473.56 L 1188.12 473.981 L 1186.75 472.226 C 1185.74 471.656 1185.18 471.071 1184.65 470.051 L 1184.03 468.947 L 1186.59 468.84 z" fill="rgb(112,69,43)" transform="translate(0,0)"></path>
<path d="M 1186.75 472.226 L 1188.17 470.724 C 1188.93 471.838 1189.52 472.527 1190.37 473.56 L 1188.12 473.981 L 1186.75 472.226 z" fill="rgb(50,24,13)" transform="translate(0,0)"></path>
<path d="M 1138.6 413.808 L 1140.66 413.352 C 1142.11 414.8 1143.32 416.385 1144.7 417.954 L 1142 417.947 C 1141.34 417.189 1140.72 416.474 1140.03 415.742 C 1139.23 414.823 1139.11 414.773 1138.6 413.808 z" fill="rgb(50,24,13)" transform="translate(0,0)"></path>
<path d="M 1113.67 381.31 C 1115.69 383.284 1116.93 385.093 1118.68 387.298 L 1116.12 386.894 C 1114.67 385.316 1114.44 385.06 1112.86 383.675 L 1113.67 381.31 z" fill="rgb(50,24,13)" transform="translate(0,0)"></path>
<path d="M 1118.68 387.298 C 1120.6 389.195 1121.9 390.901 1123.65 392.951 L 1121.17 392.919 C 1119.86 391.511 1119.28 390.921 1117.84 389.652 L 1118.68 387.298 z" fill="rgb(50,24,13)" transform="translate(0,0)"></path>
<path d="M 1135.65 407.351 C 1137.62 409.208 1138.98 411.216 1140.66 413.352 L 1138.6 413.808 C 1137.21 412.017 1136.67 411.25 1135.1 409.737 L 1135.65 407.351 z" fill="rgb(50,24,13)" transform="translate(0,0)"></path>
<path d="M 1130.24 400.777 C 1132.19 402.913 1133.84 405.102 1135.65 407.351 L 1132.77 407.084 C 1131.45 405.154 1131.46 405.091 1129.78 403.617 L 1130.24 400.777 z" fill="rgb(50,24,13)" transform="translate(0,0)"></path>
<path d="M 1149.69 424.263 C 1151.42 426.072 1152.98 428.289 1154.68 430.279 L 1151.95 430.446 C 1150.74 428.536 1150.73 428.306 1149.12 426.798 L 1149.69 424.263 z" fill="rgb(50,24,13)" transform="translate(0,0)"></path>
<path d="M 1217.11 759.498 C 1219 760.288 1220.89 760.847 1222.3 762.312 L 1221.72 764.357 C 1220.64 763.744 1219.79 763.256 1218.74 762.586 L 1217.11 759.498 z" fill="rgb(112,69,43)" transform="translate(0,0)"></path>
<path d="M 1123.8 396.317 L 1124.77 394.165 L 1127 396.995 C 1127.93 398.156 1128.65 398.889 1129.68 399.988 L 1127.01 399.954 C 1125.91 398.644 1125 397.553 1123.8 396.317 z" fill="rgb(50,24,13)" transform="translate(0,0)"></path>
<path d="M 1290.12 602.086 L 1292.18 604.596 L 1290.86 606.358 C 1288.7 605.396 1288.87 605.184 1288.26 602.926 L 1290.12 602.086 z" fill="rgb(128,82,52)" transform="translate(0,0)"></path>
<path d="M 1209.73 498.185 C 1211.21 499.881 1212.32 501.569 1213.63 503.38 L 1211.57 503.823 C 1210.91 502.969 1209.88 501.575 1209.12 500.76 L 1209.73 498.185 z" fill="rgb(50,24,13)" transform="translate(0,0)"></path>
<path d="M 1194.34 478.434 L 1196.21 480.651 L 1194.81 482.189 C 1192.67 481.402 1192.83 481.139 1192.15 478.979 L 1194.34 478.434 z" fill="rgb(112,69,43)" transform="translate(0,0)"></path>
<path d="M 1198.62 484.376 C 1200.44 486.053 1201.17 487.288 1202.67 489.326 L 1200.39 489.748 C 1199.79 488.925 1198.82 487.506 1198.13 486.725 L 1198.62 484.376 z" fill="rgb(50,24,13)" transform="translate(0,0)"></path>
<path d="M 1213.63 503.38 C 1215.04 504.72 1215.21 505.114 1216.44 506.69 L 1217.69 508.263 L 1214.68 508.055 C 1214.23 507.347 1213.64 506.321 1213.08 505.686 L 1213.63 503.38 z" fill="rgb(50,24,13)" transform="translate(0,0)"></path>
<path d="M 1277.79 586.287 C 1279.22 587.884 1280.35 589.618 1281.63 591.359 L 1278.77 591.128 C 1278.32 590.414 1277.7 589.337 1277.14 588.694 L 1277.79 586.287 z" fill="rgb(50,24,13)" transform="translate(0,0)"></path>
<path d="M 1169.68 448.327 C 1171.08 449.839 1172.36 451.63 1173.69 453.267 L 1170.65 453.028 C 1170.21 452.349 1169.64 451.37 1169.1 450.768 L 1169.68 448.327 z" fill="rgb(50,24,13)" transform="translate(0,0)"></path>
<path d="M 1221.66 513.311 C 1223.17 514.887 1224.32 516.583 1225.66 518.323 L 1222.72 518.121 C 1222.3 517.446 1221.7 516.412 1221.17 515.808 L 1221.66 513.311 z" fill="rgb(50,24,13)" transform="translate(0,0)"></path>
<path d="M 1247.32 547.31 C 1249.55 548.984 1249.99 549.87 1251.72 552.191 L 1248.67 552.049 L 1247.83 550.358 C 1247.67 549.224 1247.56 548.428 1247.32 547.31 z" fill="rgb(50,24,13)" transform="translate(0,0)"></path>
<path d="M 1217.69 508.263 C 1219.05 509.8 1220.34 511.653 1221.66 513.311 L 1219.02 513.532 C 1218.55 512.805 1217.75 511.474 1217.16 510.808 L 1217.69 508.263 z" fill="rgb(50,24,13)" transform="translate(0,0)"></path>
<path d="M 1228.45 521.549 L 1230.2 523.657 L 1228.82 525.171 C 1227.76 524.648 1227.2 524.114 1226.67 523.065 L 1226.05 521.97 L 1228.45 521.549 z" fill="rgb(112,69,43)" transform="translate(0,0)"></path>
<path d="M 1254.32 555.392 L 1256.2 557.67 L 1254.82 559.167 C 1253.76 558.649 1253.21 558.122 1252.68 557.068 L 1252.07 555.976 L 1254.32 555.392 z" fill="rgb(112,69,43)" transform="translate(0,0)"></path>
<path d="M 1352.66 685.333 C 1354.04 686.851 1355.21 688.542 1356.57 690.085 L 1353.68 690.132 C 1353.24 689.451 1352.62 688.41 1352.08 687.794 L 1352.66 685.333 z" fill="rgb(50,24,13)" transform="translate(0,0)"></path>
<path d="M 1144.7 417.954 C 1145.19 418.532 1145.68 419.114 1146.17 419.698 L 1144.52 420.86 C 1143.03 420.349 1142.73 419.268 1142 417.947 L 1144.7 417.954 z" fill="rgb(114,55,24)" transform="translate(0,0)"></path>
<path d="M 1297.3 611.189 C 1297.93 612.03 1298.55 612.875 1299.16 613.725 L 1297.81 615.185 C 1296.76 614.652 1296.2 614.111 1295.67 613.061 L 1295.06 611.964 L 1297.3 611.189 z" fill="rgb(112,69,43)" transform="translate(0,0)"></path>
<path d="M 1182.66 464.326 C 1184.06 465.747 1185.26 467.313 1186.59 468.84 L 1184.03 468.947 C 1183.4 468.2 1182.82 467.513 1182.15 466.796 L 1182.66 464.326 z" fill="rgb(50,24,13)" transform="translate(0,0)"></path>
<path d="M 1342.43 671.52 C 1343.02 672.304 1343.55 673.067 1344.11 673.873 L 1342.46 675.019 C 1341.53 674.533 1341.15 673.97 1340.65 673.061 L 1340.04 671.97 L 1342.43 671.52 z" fill="rgb(112,69,43)" transform="translate(0,0)"></path>
<path d="M 1123.65 392.951 L 1124.77 394.165 L 1123.8 396.317 L 1123.62 396.202 C 1122.11 395.283 1121.91 394.456 1121.17 392.919 L 1123.65 392.951 z" fill="rgb(112,69,43)" transform="translate(0,0)"></path>
<path d="M 1144.52 420.86 L 1146.17 419.698 C 1147.44 421.531 1148.26 422.548 1149.69 424.263 L 1146.71 424.094 C 1146.06 423.091 1145.27 421.793 1144.52 420.86 z" fill="rgb(50,24,13)" transform="translate(0,0)"></path>
<path d="M 1108.48 374.567 C 1108.89 375.034 1109.31 375.497 1109.73 375.957 C 1109.51 376.75 1109.26 377.581 1109.06 378.376 C 1106.96 377.903 1107.41 377.346 1106.45 375.475 L 1108.48 374.567 z" fill="rgb(112,69,43)" transform="translate(0,0)"></path>
<path d="M 1109.06 378.376 C 1109.26 377.581 1109.51 376.75 1109.73 375.957 C 1111.01 377.766 1112.32 379.55 1113.67 381.31 L 1111.06 380.944 L 1109.06 378.376 z" fill="rgb(50,24,13)" transform="translate(0,0)"></path>
<path d="M 1307.64 625.347 C 1309.16 626.894 1309.42 627.399 1310.69 629.247 L 1308.13 629.567 L 1307.15 627.846 L 1307.64 625.347 z" fill="rgb(50,24,13)" transform="translate(0,0)"></path>
<path d="M 1327.74 652.242 C 1328.89 653.688 1329.62 654.749 1330.67 656.283 L 1327.81 656.414 L 1327.15 654.869 L 1327.74 652.242 z" fill="rgb(50,24,13)" transform="translate(0,0)"></path>
<path d="M 1304.66 621.316 C 1305.97 622.806 1306.51 623.682 1307.64 625.347 L 1305.27 625.563 L 1304.15 623.851 L 1304.66 621.316 z" fill="rgb(50,24,13)" transform="translate(0,0)"></path>
<path d="M 1274.73 582.159 C 1276 583.664 1276.67 584.651 1277.79 586.287 L 1274.73 585.769 L 1273.88 584.852 L 1274.73 582.159 z" fill="rgb(50,24,13)" transform="translate(0,0)"></path>
<path d="M 1301.61 617.373 C 1302.99 618.838 1303.49 619.647 1304.66 621.316 L 1302.21 621.562 L 1301.17 619.874 L 1301.61 617.373 z" fill="rgb(50,24,13)" transform="translate(0,0)"></path>
<path d="M 1349.63 681.34 C 1350.88 682.789 1351.56 683.781 1352.66 685.333 L 1350.2 685.568 L 1349.17 683.874 L 1349.63 681.34 z" fill="rgb(50,24,13)" transform="translate(0,0)"></path>
<path d="M 1324.77 648.07 C 1325.84 649.505 1326.73 650.78 1327.74 652.242 L 1324.67 651.787 L 1323.87 650.882 L 1324.77 648.07 z" fill="rgb(50,24,13)" transform="translate(0,0)"></path>
<path d="M 1330.67 656.283 C 1331.96 657.772 1332.54 658.696 1333.66 660.342 L 1330.7 659.889 L 1330.04 659.131 L 1330.67 656.283 z" fill="rgb(50,24,13)" transform="translate(0,0)"></path>
<path d="M 1333.66 660.342 C 1335.04 661.805 1335.52 662.574 1336.7 664.237 L 1333.63 664.011 L 1333.14 662.849 L 1333.66 660.342 z" fill="rgb(50,24,13)" transform="translate(0,0)"></path>
<path d="M 1281.63 591.359 C 1282.9 592.805 1283.52 593.762 1284.63 595.362 L 1281.67 595.116 L 1281.16 593.854 L 1281.63 591.359 z" fill="rgb(50,24,13)" transform="translate(0,0)"></path>
<path d="M 1336.7 664.237 C 1337.96 665.701 1338.61 666.658 1339.72 668.257 L 1336.75 667.848 L 1336.12 666.875 L 1336.7 664.237 z" fill="rgb(50,24,13)" transform="translate(0,0)"></path>
<path d="M 1321.7 643.667 C 1322.77 645.312 1323.6 646.489 1324.77 648.07 L 1322 647.884 L 1321.08 646.831 L 1321.7 643.667 z" fill="rgb(50,24,13)" transform="translate(0,0)"></path>
<path d="M 1238.79 534.866 C 1239.88 536.522 1240.57 537.437 1241.78 539.005 L 1238.96 538.899 L 1238.09 537.845 L 1238.79 534.866 z" fill="rgb(50,24,13)" transform="translate(0,0)"></path>
<path d="M 1235.75 531.14 C 1236.77 532.376 1237.78 533.618 1238.79 534.866 L 1235.96 534.9 L 1235.09 533.831 L 1235.75 531.14 z" fill="rgb(50,24,13)" transform="translate(0,0)"></path>
<path d="M 1194.81 482.189 L 1196.21 480.651 C 1196.99 481.908 1197.79 483.149 1198.62 484.376 L 1196.36 484.816 L 1194.81 482.189 z" fill="rgb(50,24,13)" transform="translate(0,0)"></path>
<path d="M 1228.82 525.171 L 1230.2 523.657 C 1230.99 524.931 1231.8 526.113 1232.63 527.357 L 1230.29 527.788 L 1228.82 525.171 z" fill="rgb(50,24,13)" transform="translate(0,0)"></path>
<path d="M 1232.63 527.357 C 1234.01 528.764 1234.55 529.548 1235.75 531.14 L 1232.97 530.908 L 1232.09 529.819 L 1232.63 527.357 z" fill="rgb(50,24,13)" transform="translate(0,0)"></path>
<path d="M 1254.82 559.167 L 1256.2 557.67 C 1256.99 558.944 1257.8 560.107 1258.64 561.345 L 1256.24 561.77 L 1254.82 559.167 z" fill="rgb(50,24,13)" transform="translate(0,0)"></path>
<path d="M 1258.64 561.345 C 1259.94 562.767 1260.56 563.686 1261.7 565.262 L 1258.91 564.902 L 1258.11 563.82 L 1258.64 561.345 z" fill="rgb(50,24,13)" transform="translate(0,0)"></path>
<path d="M 1359.68 694.257 L 1362.66 698.291 L 1360.08 698.577 L 1359.14 696.866 L 1359.68 694.257 z" fill="rgb(50,24,13)" transform="translate(0,0)"></path>
<path d="M 1284.63 595.362 C 1285.95 596.703 1286.6 597.564 1287.78 599.054 L 1285 598.903 L 1284.1 597.837 L 1284.63 595.362 z" fill="rgb(50,24,13)" transform="translate(0,0)"></path>
<path d="M 1271.62 578.352 C 1272.85 579.706 1273.63 580.719 1274.73 582.159 L 1272.01 581.9 L 1271.08 580.84 L 1271.62 578.352 z" fill="rgb(50,24,13)" transform="translate(0,0)"></path>
<path d="M 1355.81 692.242 L 1357.11 690.821 C 1357.95 692.023 1358.79 693.098 1359.68 694.257 L 1357.04 694.688 L 1355.81 692.242 z" fill="rgb(50,24,13)" transform="translate(0,0)"></path>
<path d="M 1129.68 399.988 L 1130.24 400.777 L 1129.78 403.617 C 1128.13 402.205 1128.17 401.981 1127.01 399.954 L 1129.68 399.988 z" fill="rgb(112,69,43)" transform="translate(0,0)"></path>
<path d="M 1297.81 615.185 L 1299.16 613.725 C 1299.96 614.999 1300.76 616.139 1301.61 617.373 L 1299.28 617.789 L 1297.81 615.185 z" fill="rgb(50,24,13)" transform="translate(0,0)"></path>
<path d="M 1294.69 608.246 C 1295.58 609.206 1296.45 610.187 1297.3 611.189 L 1295.06 611.964 L 1293.95 611.018 L 1294.69 608.246 z" fill="rgb(50,24,13)" transform="translate(0,0)"></path>
<path d="M 1362.66 698.291 C 1363.69 699.616 1364.36 700.602 1365.29 701.999 L 1362.74 701.954 L 1362.11 700.864 L 1362.66 698.291 z" fill="rgb(50,24,13)" transform="translate(0,0)"></path>
<path d="M 1225.66 518.323 C 1226.75 519.488 1227.44 520.315 1228.45 521.549 L 1226.05 521.97 L 1225.07 520.85 L 1225.66 518.323 z" fill="rgb(50,24,13)" transform="translate(0,0)"></path>
<path d="M 1339.72 668.257 C 1340.65 669.325 1341.55 670.413 1342.43 671.52 L 1340.04 671.97 L 1339.07 670.86 L 1339.72 668.257 z" fill="rgb(50,24,13)" transform="translate(0,0)"></path>
<path d="M 1267.82 576.162 L 1269.12 574.734 C 1269.94 575.949 1270.77 577.155 1271.62 578.352 L 1268.79 578.198 L 1267.82 576.162 z" fill="rgb(50,24,13)" transform="translate(0,0)"></path>
<path d="M 1287.78 599.054 C 1288.56 600.06 1289.34 601.071 1290.12 602.086 L 1288.26 602.926 L 1287.09 601.809 L 1287.78 599.054 z" fill="rgb(50,24,13)" transform="translate(0,0)"></path>
<path d="M 1290.86 606.358 L 1292.18 604.596 C 1293 605.902 1293.8 606.996 1294.69 608.246 L 1291.67 608.029 L 1290.86 606.358 z" fill="rgb(50,24,13)" transform="translate(0,0)"></path>
<path d="M 1251.72 552.191 L 1254.32 555.392 L 1252.07 555.976 L 1251.11 554.878 L 1251.72 552.191 z" fill="rgb(50,24,13)" transform="translate(0,0)"></path>
<path d="M 1356.57 690.085 L 1357.11 690.821 L 1355.81 692.242 C 1354.69 691.34 1354.55 691.278 1353.68 690.132 L 1356.57 690.085 z" fill="rgb(112,69,43)" transform="translate(0,0)"></path>
<path d="M 1268.58 574.099 L 1269.12 574.734 L 1267.82 576.162 C 1266.81 575.558 1266.77 575.597 1266.04 574.685 L 1268.58 574.099 z" fill="rgb(128,82,52)" transform="translate(0,0)"></path>
<path d="M 1151.95 430.446 L 1154.68 430.279 L 1153.94 432.922 C 1152.8 431.74 1152.6 431.712 1151.95 430.446 z" fill="rgb(128,82,52)" transform="translate(0,0)"></path>
<path d="M 1291.67 608.029 L 1294.69 608.246 L 1293.95 611.018 C 1292.76 609.685 1292.46 609.492 1291.67 608.029 z" fill="rgb(128,82,52)" transform="translate(0,0)"></path>
<path d="M 1327.81 656.414 L 1330.67 656.283 L 1330.04 659.131 C 1329.01 658.049 1328.54 657.691 1327.81 656.414 z" fill="rgb(128,82,52)" transform="translate(0,0)"></path>
<path d="M 1247.32 547.31 C 1247.56 548.428 1247.67 549.224 1247.83 550.358 C 1246.11 549.241 1246.23 549.379 1245.53 547.511 L 1247.32 547.31 z" fill="rgb(128,82,52)" transform="translate(0,0)"></path>
<path d="M 879.751 1591.37 C 880.055 1593.49 880.157 1593.74 879.199 1595.63 C 879.116 1593.48 878.941 1593.2 879.751 1591.37 z" fill="rgb(164,90,42)" transform="translate(0,0)"></path>
<path d="M 1173.69 453.267 L 1173.12 455.804 C 1172.05 454.714 1171.54 454.231 1170.65 453.028 L 1173.69 453.267 z" fill="rgb(128,82,52)" transform="translate(0,0)"></path>
<path d="M 1322 647.884 L 1324.77 648.07 L 1323.87 650.882 C 1322.72 649.386 1322.59 649.425 1322 647.884 z" fill="rgb(128,82,52)" transform="translate(0,0)"></path>
<path d="M 1214.68 508.055 L 1217.69 508.263 L 1217.16 510.808 C 1216.06 509.711 1215.58 509.275 1214.68 508.055 z" fill="rgb(128,82,52)" transform="translate(0,0)"></path>
<path d="M 1333.63 664.011 L 1336.7 664.237 L 1336.12 666.875 C 1335.02 665.712 1334.55 665.243 1333.63 664.011 z" fill="rgb(128,82,52)" transform="translate(0,0)"></path>
<path d="M 1149.69 424.263 L 1149.12 426.798 C 1148.07 425.728 1147.59 425.279 1146.71 424.094 L 1149.69 424.263 z" fill="rgb(128,82,52)" transform="translate(0,0)"></path>
<path d="M 1248.67 552.049 L 1251.72 552.191 L 1251.11 554.878 C 1250.04 553.733 1249.57 553.261 1248.67 552.049 z" fill="rgb(128,82,52)" transform="translate(0,0)"></path>
<path d="M 1235.96 534.9 L 1238.79 534.866 L 1238.09 537.845 C 1237.13 536.661 1236.71 536.183 1235.96 534.9 z" fill="rgb(128,82,52)" transform="translate(0,0)"></path>
<path d="M 1318.99 643.971 L 1321.7 643.667 L 1321.08 646.831 C 1320.14 645.677 1319.73 645.223 1318.99 643.971 z" fill="rgb(128,82,52)" transform="translate(0,0)"></path>
<path d="M 1219.02 513.532 L 1221.66 513.311 L 1221.17 515.808 C 1220.19 514.888 1219.8 514.583 1219.02 513.532 z" fill="rgb(128,82,52)" transform="translate(0,0)"></path>
<path d="M 1272.01 581.9 L 1274.73 582.159 L 1273.88 584.852 C 1272.72 583.379 1272.59 583.429 1272.01 581.9 z" fill="rgb(128,82,52)" transform="translate(0,0)"></path>
<path d="M 1179.71 464.108 L 1182.66 464.326 L 1182.15 466.796 C 1181.06 465.721 1180.6 465.308 1179.71 464.108 z" fill="rgb(128,82,52)" transform="translate(0,0)"></path>
<path d="M 1118.68 387.298 L 1117.84 389.652 C 1116.7 388.259 1116.62 388.38 1116.12 386.894 L 1118.68 387.298 z" fill="rgb(112,69,43)" transform="translate(0,0)"></path>
<path d="M 1238.96 538.899 L 1241.78 539.005 L 1241.1 541.811 C 1240.12 540.636 1239.73 540.207 1238.96 538.899 z" fill="rgb(112,69,43)" transform="translate(0,0)"></path>
<path d="M 1163.68 441.304 L 1162.86 443.7 C 1161.69 442.33 1161.6 442.429 1161.04 440.962 L 1163.68 441.304 z" fill="rgb(112,69,43)" transform="translate(0,0)"></path>
<path d="M 1111.06 380.944 L 1113.67 381.31 L 1112.86 383.675 C 1111.69 382.307 1111.6 382.415 1111.06 380.944 z" fill="rgb(112,69,43)" transform="translate(0,0)"></path>
<path d="M 1285 598.903 L 1287.78 599.054 L 1287.09 601.809 C 1286.13 600.631 1285.75 600.212 1285 598.903 z" fill="rgb(128,82,52)" transform="translate(0,0)"></path>
<path d="M 1330.7 659.889 L 1333.66 660.342 L 1333.14 662.849 C 1332.08 661.683 1331.57 661.164 1330.7 659.889 z" fill="rgb(128,82,52)" transform="translate(0,0)"></path>
<path d="M 1232.97 530.908 L 1235.75 531.14 L 1235.09 533.831 C 1234.13 532.642 1233.73 532.201 1232.97 530.908 z" fill="rgb(112,69,43)" transform="translate(0,0)"></path>
<path d="M 1166.78 448.151 L 1169.68 448.327 L 1169.1 450.768 C 1168.06 449.719 1167.63 449.318 1166.78 448.151 z" fill="rgb(112,69,43)" transform="translate(0,0)"></path>
<path d="M 1206.96 497.956 L 1209.73 498.185 L 1209.12 500.76 C 1208.1 499.602 1207.75 499.271 1206.96 497.956 z" fill="rgb(112,69,43)" transform="translate(0,0)"></path>
<path d="M 1135.65 407.351 L 1135.1 409.737 C 1134.03 408.654 1133.63 408.294 1132.77 407.084 L 1135.65 407.351 z" fill="rgb(128,82,52)" transform="translate(0,0)"></path>
<path d="M 1222.72 518.121 L 1225.66 518.323 L 1225.07 520.85 C 1224.04 519.748 1223.59 519.287 1222.72 518.121 z" fill="rgb(128,82,52)" transform="translate(0,0)"></path>
<path d="M 1258.91 564.902 L 1261.7 565.262 L 1261.11 567.808 C 1260.11 566.635 1259.71 566.212 1258.91 564.902 z" fill="rgb(112,69,43)" transform="translate(0,0)"></path>
<path d="M 1305.27 625.563 L 1307.64 625.347 L 1307.15 627.846 C 1306.27 626.906 1305.94 626.625 1305.27 625.563 z" fill="rgb(128,82,52)" transform="translate(0,0)"></path>
<path d="M 1278.77 591.128 L 1281.63 591.359 L 1281.16 593.854 C 1280.12 592.781 1279.63 592.314 1278.77 591.128 z" fill="rgb(128,82,52)" transform="translate(0,0)"></path>
<path d="M 1281.67 595.116 L 1284.63 595.362 L 1284.1 597.837 C 1283 596.701 1282.57 596.296 1281.67 595.116 z" fill="rgb(128,82,52)" transform="translate(0,0)"></path>
<path d="M 1324.67 651.787 L 1327.74 652.242 L 1327.15 654.869 C 1326.07 653.656 1325.56 653.11 1324.67 651.787 z" fill="rgb(128,82,52)" transform="translate(0,0)"></path>
<path d="M 1274.73 585.769 L 1277.79 586.287 L 1277.14 588.694 C 1275.99 587.481 1275.63 587.163 1274.73 585.769 z" fill="rgb(128,82,52)" transform="translate(0,0)"></path>
<path d="M 1268.79 578.198 L 1271.62 578.352 L 1271.08 580.84 C 1270.06 579.755 1269.64 579.352 1268.79 578.198 z" fill="rgb(128,82,52)" transform="translate(0,0)"></path>
<path d="M 1336.75 667.848 L 1339.72 668.257 L 1339.07 670.86 C 1338.1 669.705 1337.57 669.089 1336.75 667.848 z" fill="rgb(112,69,43)" transform="translate(0,0)"></path>
<path d="M 1310.69 629.247 L 1310.02 631.952 C 1309.23 631.012 1308.81 630.509 1308.13 629.567 L 1310.69 629.247 z" fill="rgb(128,82,52)" transform="translate(0,0)"></path>
<path d="M 1003.15 388.486 C 1003.53 387.183 1003.6 387.23 1004.91 386.493 C 1020.16 377.882 1042.21 386.173 1049.27 401.911 C 1051.46 406.772 1052.72 410.648 1053.51 415.879 C 1054.2 417.827 1054.43 418.84 1053.32 420.632 C 1052.27 431.67 1049.52 435.279 1043.16 443.967 C 1043.06 445.122 1042.9 445.052 1041.8 445.333 C 1038.59 448.664 1036.02 451.279 1033.08 454.9 C 1033.04 456.151 1033.02 455.993 1031.88 456.415 C 1030.36 457.465 1028.96 458.449 1027.39 459.425 L 1027.06 459.708 C 1026.14 464.331 1020.31 470.536 1015.81 472.016 C 1013.1 479.184 1014.11 476.426 1009.15 481.389 C 1010.58 479.96 1001.08 491.678 1001.85 489.878 C 1000.56 493.739 996.321 495.134 994.826 497.863 C 992.582 501.956 988.446 504.626 986.138 507.376 C 981.649 512.724 984.664 512.233 977.824 514.649 C 975.699 516.592 968.288 524.328 967.579 526.852 C 965.781 532.969 965.834 533.586 959.824 535.639 C 954.252 541.247 930.491 569.508 926.998 575.817 C 927.778 579.697 923.177 584.106 919.751 587.93 C 916.02 592.094 911.011 597.612 907.736 602.937 C 905.638 606.348 900.667 609.95 898.667 614.574 C 894.763 619.888 890.522 626.581 885.002 630.155 L 884.004 630.813 C 881.158 633.16 879.945 635.671 878.003 638.81 C 878.476 640.454 877.129 642.926 876.196 643.928 C 868.908 651.745 862.805 664.993 854.036 670.821 C 851.614 673.114 844.465 682.714 843.521 685.783 C 841.559 693.033 840.06 694.56 834.156 699.017 C 834.919 703.303 824.427 711.765 821.015 711.296 C 804.653 715.015 803.1 718.276 785.163 709.833 C 779.997 710.113 776.881 705.294 776.259 700.617 C 775.764 696.269 770.355 684.812 771.661 677.69 C 774.733 660.941 799.625 631.157 810.084 617.053 C 844.616 570.521 880.644 525.118 918.112 480.915 C 938.752 456.237 978.905 409.445 1003.15 388.486 z" fill="rgb(241,202,168)" transform="translate(0,0)"></path>
<path d="M 1003.15 388.486 C 1003.53 387.183 1003.6 387.23 1004.91 386.493 C 1020.16 377.882 1042.21 386.173 1049.27 401.911 C 1051.46 406.772 1052.72 410.648 1053.51 415.879 C 1054.2 417.827 1054.43 418.84 1053.32 420.632 C 1052.27 431.67 1049.52 435.279 1043.16 443.967 C 1043.06 445.122 1042.9 445.052 1041.8 445.333 C 1038.59 448.664 1036.02 451.279 1033.08 454.9 C 1033.04 456.151 1033.02 455.993 1031.88 456.415 C 1030.36 457.465 1028.96 458.449 1027.39 459.425 C 1039.39 440.572 1063.11 430.116 1046.48 400.05 C 1039.05 386.63 1021.32 382.029 1007.47 386.828 C 1005.91 387.369 1004.82 387.96 1003.15 388.486 z" fill="rgb(50,24,13)" transform="translate(0,0)"></path>
<path d="M 1053.51 415.879 C 1054.2 417.827 1054.43 418.84 1053.32 420.632 C 1052.67 418.221 1052.76 418.415 1053.51 415.879 z" fill="rgb(164,90,42)" transform="translate(0,0)"></path>
<path d="M 884.004 630.813 C 887.586 624.571 923.581 577.788 926.998 575.817 C 927.778 579.697 923.177 584.106 919.751 587.93 C 916.02 592.094 911.011 597.612 907.736 602.937 C 905.638 606.348 900.667 609.95 898.667 614.574 C 894.763 619.888 890.522 626.581 885.002 630.155 L 884.004 630.813 z" fill="rgb(164,90,42)" transform="translate(0,0)"></path>
<path d="M 977.824 514.649 C 981.217 509.693 1011.93 475.105 1015.81 472.016 C 1013.1 479.184 1014.11 476.426 1009.15 481.389 C 1010.58 479.96 1001.08 491.678 1001.85 489.878 C 1000.56 493.739 996.321 495.134 994.826 497.863 C 992.582 501.956 988.446 504.626 986.138 507.376 C 981.649 512.724 984.664 512.233 977.824 514.649 z" fill="rgb(164,90,42)" transform="translate(0,0)"></path>
<path d="M 854.036 670.821 C 856.24 666.755 875.145 640.533 878.003 638.81 C 878.476 640.454 877.129 642.926 876.196 643.928 C 868.908 651.745 862.805 664.993 854.036 670.821 z" fill="rgb(164,90,42)" transform="translate(0,0)"></path>
<path d="M 821.015 711.296 C 821.905 710.297 833.596 699.216 834.156 699.017 C 834.919 703.303 824.427 711.765 821.015 711.296 z" fill="rgb(164,90,42)" transform="translate(0,0)"></path>
<path d="M 1015.81 472.016 C 1016.28 469.055 1024.53 461.44 1027.06 459.708 C 1026.14 464.331 1020.31 470.536 1015.81 472.016 z" fill="rgb(164,90,42)" transform="translate(0,0)"></path>
<path d="M 834.156 699.017 C 836.567 694.005 839.655 689.765 843.521 685.783 C 841.559 693.033 840.06 694.56 834.156 699.017 z" fill="rgb(164,90,42)" transform="translate(0,0)"></path>
<path d="M 785.163 709.833 C 779.997 710.113 776.881 705.294 776.259 700.617 C 778.505 702.687 783.28 707.568 785.163 709.833 z" fill="rgb(164,90,42)" transform="translate(0,0)"></path>
<path d="M 959.824 535.639 C 962.53 531.606 963.902 530.074 967.579 526.852 C 965.781 532.969 965.834 533.586 959.824 535.639 z" fill="rgb(164,90,42)" transform="translate(0,0)"></path>
<path d="M 652.727 731.91 C 661.014 731.833 661.448 731.764 663.235 740.961 C 669.458 772.986 689.637 795.154 719.333 807.669 C 726.096 810.519 722.797 816.263 720.102 821.229 C 709.353 820.169 707.433 815.917 698.626 812.647 C 679.168 805.422 640.973 750.977 652.727 731.91 z" fill="rgb(241,202,168)" transform="translate(0,0)"></path>
<path d="M 802.819 1564.96 C 791.903 1564.05 776.229 1564.5 765.049 1564.54 L 701.454 1564.79 L 507.125 1564.71 L 451.432 1564.73 C 440.045 1564.73 426.447 1565.53 415.159 1563.62 C 374.172 1556.66 374.943 1497.6 414.849 1489.98 C 427.351 1487.59 446.354 1488.84 459.573 1488.86 L 536.715 1488.98 L 805.963 1489.12 C 805.014 1497.95 804.833 1506.11 804.874 1514.97 C 804.057 1517.63 803.898 1518.9 804.069 1521.64 C 803.542 1535.93 802.816 1550.7 802.819 1564.96 z" fill="rgb(198,101,38)" transform="translate(0,0)"></path>
<path d="M 1239.96 1340.88 L 1436.81 1340.85 L 1491.64 1340.81 C 1509.27 1340.77 1532.47 1337.61 1545.72 1350.65 C 1553.2 1358.07 1557.34 1368.22 1557.18 1378.76 C 1557.2 1388.64 1553.11 1398.09 1545.9 1404.84 C 1541.24 1409.29 1533.8 1413.49 1527.39 1413.96 C 1500.66 1415.92 1472.39 1414.98 1445.64 1414.95 L 1310.59 1414.9 C 1288.59 1414.89 1263.48 1414.23 1241.85 1414.9 C 1240.96 1408.97 1240.95 1395.97 1241.23 1389.99 L 1240.97 1379.71 C 1241.49 1375.46 1240.6 1345.56 1239.96 1340.88 z" fill="rgb(198,101,38)" transform="translate(0,0)"></path>
<path d="M 1241.23 1389.99 C 1241.82 1397.18 1242.6 1408.02 1241.85 1414.9 C 1240.96 1408.97 1240.95 1395.97 1241.23 1389.99 z" fill="rgb(164,90,42)" transform="translate(0,0)"></path>
<path d="M 1593.35 1492.32 C 1629.17 1490.27 1680.07 1492 1717.07 1491.92 L 1808.49 1491.71 C 1824.78 1491.69 1841.1 1491.89 1857.38 1491.92 C 1875.19 1491.95 1888.57 1499.92 1893.8 1518.07 C 1896.53 1527.29 1895.33 1537.23 1890.48 1545.54 C 1884.74 1555.36 1875.96 1560.29 1865.25 1563.05 C 1821.68 1564.89 1767.45 1563.33 1722.59 1563.42 L 1645.8 1563.6 C 1630.46 1563.62 1593.33 1565.48 1581.15 1558.63 C 1572.7 1553.87 1566.58 1545.83 1564.24 1536.41 C 1561.89 1526.95 1563.51 1516.94 1568.73 1508.71 C 1574.56 1499.38 1582.93 1494.79 1593.35 1492.32 z" fill="rgb(241,202,168)" transform="translate(0,0)"></path>
<path d="M 1234 1098.92 L 1523.29 1098.89 L 1607.63 1098.59 C 1618.03 1098.52 1640.44 1097.44 1649.34 1098.48 C 1655.65 1099.27 1661.54 1102.02 1666.19 1106.35 C 1668.49 1108.52 1670.1 1110.88 1671.4 1113.72 C 1674.07 1121.35 1674.23 1127.7 1671.44 1135.31 C 1668.02 1142.42 1663.55 1146.83 1655.92 1149.35 C 1643.16 1153.57 1553.67 1150.77 1533.11 1150.77 L 1235.8 1150.95 C 1235.94 1156.62 1236.29 1162.93 1235.78 1168.52 C 1234.06 1153.27 1234.46 1116.58 1234 1098.92 z" fill="rgb(241,202,168)" transform="translate(0,0)"></path>
<path d="M 1671.44 1135.31 C 1670.81 1131.22 1670.77 1117.7 1671.4 1113.72 C 1674.07 1121.35 1674.23 1127.7 1671.44 1135.31 z" fill="rgb(244,165,103)" transform="translate(0,0)"></path>
<path d="M 818.203 1151.92 C 790.174 1150.87 756.093 1151.81 727.692 1151.86 L 554.202 1152.36 C 537.156 1152.46 458.953 1155.02 447.639 1149.19 C 441.276 1145.98 436.493 1140.32 434.389 1133.51 C 431.871 1125.5 433.043 1117.48 436.785 1109.96 C 445.946 1091.56 469.699 1096.46 486.585 1096.1 C 499.289 1095.83 512.019 1096.15 524.603 1096.16 L 676.679 1096.14 L 758.584 1096 C 773.23 1095.96 788.317 1095.75 802.966 1096.31 C 809.65 1096.56 814.148 1099.29 819.884 1102.42 C 819.1 1118.45 818.037 1135.88 818.203 1151.92 z" fill="rgb(212,150,105)" transform="translate(0,0)"></path>
<path d="M 808.879 1409.25 C 742.732 1407.74 675.849 1410.31 609.63 1409.72 C 584.071 1409.17 558.607 1411.06 533.089 1409.25 C 493.145 1406.42 490.798 1345.17 530.461 1340.63 C 543.279 1339.17 556.123 1339.57 569.038 1339.59 L 626.31 1339.69 L 811.325 1339.86 C 810.608 1361.79 808.778 1387.73 808.879 1409.25 z" fill="rgb(241,202,168)" transform="translate(0,0)"></path>
<path d="M 1243.01 1489.95 L 1402.31 1489.95 C 1426.16 1489.99 1453.07 1489.12 1476.79 1491.17 C 1482.13 1491.64 1490.97 1497.54 1494.87 1501.5 C 1501.71 1508.34 1505.4 1517.72 1505.08 1527.38 C 1504.61 1537.01 1500.37 1546.07 1493.26 1552.57 C 1487.29 1558.08 1479.8 1561.26 1471.71 1561.52 C 1449.71 1562.22 1427.46 1561.9 1405.44 1561.88 L 1244.97 1561.96 C 1244.84 1538.13 1243.05 1514.28 1243.01 1489.95 z" fill="rgb(241,202,168)" transform="translate(0,0)"></path>
<path d="M 799.774 1652.97 C 800.33 1672.35 807.356 1709.79 816.822 1726.91 C 754.453 1726.07 691.889 1727.38 629.503 1726.94 C 614.992 1726.84 601.256 1726.93 590.188 1715.96 C 583.244 1709.14 579.32 1699.83 579.292 1690.1 C 579.282 1680.04 583.258 1670.95 590.339 1663.87 C 595.693 1658.44 602.586 1654.79 610.084 1653.4 C 620.355 1651.54 656.342 1652.8 668.651 1652.77 C 712.295 1652.66 756.104 1653.41 799.774 1652.97 z" fill="rgb(198,101,38)" transform="translate(0,0)"></path>
<path d="M 1246.68 1652.41 L 1373.2 1652.36 C 1391.92 1652.44 1413.9 1651.79 1432.28 1653.98 C 1438.38 1654.71 1445.15 1658.66 1449.59 1663.03 C 1457.18 1670.52 1461.35 1680.82 1461.1 1691.48 C 1460.92 1700.89 1456.78 1709.79 1449.7 1715.99 C 1433.25 1730.6 1396.71 1725.94 1375.04 1725.95 L 1285.29 1726.18 C 1268.21 1726.19 1247.59 1725.62 1230.77 1726.49 C 1241.1 1704.01 1246.4 1677.04 1246.68 1652.41 z" fill="rgb(212,150,105)" transform="translate(0,0)"></path>
<path d="M 1230.66 972.091 L 1418.75 972.28 L 1466.35 972.311 C 1477.37 972.264 1491.86 971.368 1502.33 973.21 C 1531.75 978.389 1529.38 1023.14 1498.58 1025.33 C 1485.76 1026.25 1474.44 1026.09 1461.8 1026.03 L 1403.76 1025.71 L 1232.04 1025.92 C 1232.4 1010.65 1231.77 987.511 1230.66 972.091 z" fill="rgb(212,150,105)" transform="translate(0,0)"></path>
<path d="M 816.037 1212.74 C 815.291 1229.09 814.713 1245.45 814.302 1261.81 C 814.121 1267.53 813.993 1280.94 813.154 1286.03 C 813.187 1278.11 815.002 1274.97 806.618 1274.85 C 748.568 1274.03 689.806 1276.94 631.941 1273.85 C 619.424 1273.18 607.402 1257.16 607.117 1244.51 C 606.864 1235.75 610.316 1227.28 616.625 1221.18 C 624.58 1213.61 633.89 1212.79 644.387 1212.69 C 660.392 1212.54 676.411 1212.69 692.419 1212.68 L 816.037 1212.74 z" fill="rgb(212,150,105)" transform="translate(0,0)"></path>
<path d="M 1236.26 1206.2 L 1236.53 1207.98 C 1236.83 1209.91 1236.87 1210.27 1237.72 1212.09 C 1245.56 1213.15 1270.68 1212.34 1280.07 1212.34 L 1367.86 1212.51 C 1378.21 1212.48 1400.09 1211.8 1408.89 1213.7 C 1414.9 1214.99 1420.29 1218.3 1424.15 1223.09 C 1429.85 1230.18 1431.99 1240.25 1430.64 1249.16 C 1429.49 1257 1425.19 1264.03 1418.74 1268.63 C 1414.9 1271.33 1410.47 1273.08 1405.82 1273.75 C 1393.56 1275.49 1372.16 1274.32 1358.91 1274.81 C 1320.29 1276.25 1276.43 1273.38 1238.16 1275.12 C 1238.36 1257.6 1237.24 1240.49 1236.99 1223.01 C 1236.9 1217.24 1235.99 1211.55 1236.26 1206.2 z" fill="rgb(212,150,105)" transform="translate(0,0)"></path>
<path d="M 824.895 971.779 C 824.112 988.607 823.504 1005.44 823.069 1022.28 C 822.936 1027.21 822.926 1043.32 822.179 1047.35 C 821.673 1040.75 821.981 1032.59 822.065 1025.85 L 691.454 1025.81 C 672.018 1025.76 648.652 1026.91 629.674 1024.96 C 600.059 1021.91 597.411 978.711 628.278 972.517 C 635.822 971.003 645.753 971.359 653.44 971.484 C 710.276 972.403 768.187 969.77 824.895 971.779 z" fill="rgb(241,202,168)" transform="translate(0,0)"></path>
<path d="M 1637.92 1341.23 C 1668.94 1339.54 1706.95 1340.69 1738.05 1340.98 C 1777.46 1341.36 1791.47 1397.66 1744.47 1413.21 C 1722.51 1416.93 1665.85 1412.97 1641.44 1413.53 C 1603.7 1414.41 1587.64 1354.33 1637.92 1341.23 z" fill="rgb(198,101,38)" transform="translate(0,0)"></path>
<path d="M 223.534 1489.34 C 235.331 1488.48 250.543 1488.91 262.508 1489.05 C 280.063 1489.26 304.37 1486.26 319.35 1495.86 C 328.094 1501.44 334.178 1510.36 336.191 1520.53 C 338.082 1530.67 335.619 1541.13 329.405 1549.36 C 321.518 1559.9 312.498 1563.11 300.204 1564.69 C 285.615 1565.1 270.159 1564.82 255.442 1564.95 C 242.517 1564.7 229.752 1565.91 216.935 1563.78 C 189.145 1559.26 176.406 1524.77 194.871 1503.42 C 203.582 1493.35 210.899 1490.56 223.534 1489.34 z" fill="rgb(198,101,38)" transform="translate(0,0)"></path>
<path d="M 535.61 1007.3 C 529.791 1029.58 499.246 1026.48 481.311 1026.08 C 447.125 1025.32 412.213 1027.43 378.253 1024.75 C 371.552 1024.22 363.502 1017.72 360.155 1012.01 C 356.556 1005.97 355.547 998.729 357.358 991.934 C 360.61 979.475 372.337 971.506 385.001 971.537 C 428.826 971.647 473.732 969.385 517.337 972.527 C 522.043 972.866 529.453 979.468 531.666 983.797 C 535.681 988.772 537.56 995.135 536.89 1001.49 C 536.684 1003.31 536.055 1005.48 535.61 1007.3 z" fill="rgb(241,202,168)" transform="translate(0,0)"></path>
<path d="M 531.666 983.797 C 535.681 988.772 537.56 995.135 536.89 1001.49 C 536.684 1003.31 536.055 1005.48 535.61 1007.3 C 533.971 992.407 535.428 997.363 531.666 983.797 z" fill="rgb(244,165,103)" transform="translate(0,0)"></path>
<path d="M 1536.24 1652.17 C 1548.04 1651.54 1597.75 1650.9 1607.91 1652.53 C 1613.09 1653.32 1618.06 1655.13 1622.53 1657.86 C 1630.73 1662.88 1636.51 1671.06 1638.49 1680.47 C 1643.39 1702.92 1629.37 1721.62 1607.26 1725.79 C 1589.89 1727.05 1570.91 1725.68 1553.37 1726.41 C 1542.47 1726.87 1529.51 1725.97 1520.13 1719.98 C 1512.44 1715.09 1507.06 1707.31 1505.19 1698.39 C 1500.16 1675.33 1513.63 1656.84 1536.24 1652.17 z" fill="rgb(198,101,38)" transform="translate(0,0)"></path>
<path d="M 353.11 1340.22 C 359.724 1339.83 369.846 1339.49 376.312 1339.95 C 403.443 1341.86 447.741 1329.68 456.918 1365.16 C 459.387 1374.59 457.957 1384.62 452.952 1392.98 C 446.727 1403.26 438.791 1407.43 427.661 1409.98 C 407.936 1410.4 353.21 1413.77 337.557 1404.82 C 329.487 1400.26 323.698 1392.52 321.595 1383.5 C 316.4 1361.33 331.871 1344.1 353.11 1340.22 z" fill="rgb(241,202,168)" transform="translate(0,0)"></path>
<path d="M 439.792 1652.3 C 453.505 1651.03 493.494 1651.1 506.752 1652.83 C 545.779 1657.94 550.391 1715.99 504.874 1724.89 C 492.157 1724.98 444.521 1726.15 434.248 1724.06 C 429.183 1723.05 424.374 1721.03 420.107 1718.12 C 411.965 1712.53 406.972 1704.44 405.592 1694.66 C 404.114 1684.74 406.717 1674.64 412.808 1666.66 C 420.099 1657.24 428.583 1653.97 439.792 1652.3 z" fill="rgb(212,150,105)" transform="translate(0,0)"></path>
<path d="M 267.537 1093.19 C 285.758 1092.43 306.2 1092.98 324.618 1092.81 C 335.116 1092.71 357.737 1092.04 367.088 1093.29 C 372.235 1093.93 377.2 1095.59 381.687 1098.19 C 403.653 1111.17 397.191 1146.07 369.164 1152.46 C 343.175 1153.47 316.71 1151.77 290.675 1152.56 C 273.651 1153.31 249.295 1153.11 243.573 1132.7 C 237.728 1111.85 248.099 1098.5 267.537 1093.19 z" fill="rgb(212,150,105)" transform="translate(0,0)"></path>
<path d="M 1586.5 972.334 C 1618.65 971.189 1651.93 972.815 1684.16 972.214 C 1691.47 972.077 1699.56 973.178 1705.75 977.284 C 1711.7 981.17 1715.75 987.365 1716.92 994.371 C 1719.94 1012.05 1708.31 1023.49 1691.51 1025.7 C 1668.01 1025.42 1644.5 1025.41 1621 1025.69 C 1608.95 1025.77 1597.96 1026.08 1585.47 1025.42 C 1561.84 1024.16 1554.56 998.853 1567.42 981.446 C 1571.99 975.261 1578.93 973.252 1586.5 972.334 z" fill="rgb(212,150,105)" transform="translate(0,0)"></path>
<path d="M 1738.07 1098.13 C 1755.93 1097.35 1809.31 1094.52 1823.47 1101.68 C 1829.79 1104.87 1835.71 1109.94 1837.86 1116.9 C 1840.12 1124.17 1838.16 1133.22 1834.43 1139.69 C 1830.3 1146.84 1823.54 1150.79 1815.77 1152.95 C 1796.31 1154.26 1777.34 1153.46 1757.66 1154 C 1737.49 1154.55 1714.74 1151.63 1713.94 1125.91 C 1713.44 1109.69 1722.61 1101.55 1738.07 1098.13 z" fill="rgb(241,202,168)" transform="translate(0,0)"></path>
<path d="M 1241.96 410.756 C 1242.83 412.008 1243.6 412.816 1244.61 413.966 L 1241.8 413.905 L 1240.79 413.077 L 1241.96 410.756 z" fill="rgb(43,30,23)" transform="translate(0,0)"></path>
<path d="M 1282.02 460.842 C 1282.78 461.941 1283.5 462.867 1284.31 463.924 L 1281.97 463.956 L 1280.72 462.33 L 1282.02 460.842 z" fill="rgb(43,30,23)" transform="translate(0,0)"></path>
<metadata><recraft-signature>{"signed_by": "recraft", "signature_b64": "QKcAeYkSJjA8acbT1M35BsqQ2g+GiIHxfoQq1uf6abIbYJ6uvrT+DBqN/GAvx+QudCJfPUtTtiM9ccAp8L4/AQ==", "signing_algo": "Ed25519", "generation_timestamp": 1779099611, "identifier": "0dc26acd-6fe8-4e07-9bd6-014047314bd7"}</recraft-signature></metadata></svg>