<svg xmlns="http://www.w3.org/2000/svg" height="1024" preserveAspectRatio="none" style="display: block;" version="1.1" viewBox="0 0 2048 2048" width="1024">
<path d="M 0 0 L 2048 0 L 2048 2048 L 0 2048 L 0 0 z" fill="rgb(250,250,248)" transform="translate(0,0)"></path>
<path d="M 905.808 467.426 C 960.847 464.809 1015.98 470.037 1069.55 482.952 C 1219.94 519.316 1349.94 613.515 1431.33 745.113 C 1440.08 735.354 1442.59 734.381 1455.08 731.641 C 1476.76 737.423 1499.46 765.191 1515.55 781.485 C 1540.89 806.738 1565.79 832.432 1590.23 858.555 C 1609.63 862.255 1622.34 865.174 1639.13 876.691 C 1644.22 879.255 1652.88 888.432 1657.63 890.593 C 1702.37 910.982 1707.47 936.402 1712.85 984.08 C 1774.06 1002.14 1764.78 1057.52 1758.65 1107.66 C 1762.74 1110.68 1770.4 1116.45 1773.74 1120.01 C 1812.41 1161.27 1768.65 1224.8 1749.98 1264.36 C 1743.17 1278.77 1742.61 1296.77 1734.49 1314.79 C 1712.35 1363.92 1679.21 1398.85 1680.74 1456.4 C 1681.25 1475.38 1685.67 1492.51 1700.17 1506.26 C 1705.36 1511.31 1714.33 1516.19 1718.97 1521.45 C 1752.1 1559.02 1704.68 1620.63 1677.69 1645.85 C 1630.8 1689.69 1568.9 1721.89 1504.05 1722.39 C 1491.22 1722.49 1476.67 1719.08 1464.96 1714.05 C 1456.9 1710.46 1446.35 1704.32 1441.4 1697.11 C 1426.59 1675.5 1422.78 1644.6 1407.07 1622.24 C 1388.41 1595.7 1362.79 1569.76 1340.37 1546.29 C 1329.66 1534.77 1318.54 1524.17 1307.95 1512.3 C 1294.54 1524.54 1272.1 1539.82 1256.81 1549.75 C 1172.06 1605.16 1074.42 1637.68 973.369 1644.17 C 814.446 1654.71 662.742 1598.28 543.661 1493.93 C 426.886 1391.63 355.641 1247.05 345.662 1092.13 C 335.633 936.04 388.65 782.456 492.831 665.796 C 600.492 543.614 744.323 477.651 905.808 467.426 z" fill="rgb(2,0,0)" transform="translate(0,0)"></path>
<path d="M 924.406 470.458 C 1195.38 462.44 1446.53 662.429 1501.28 927.041 C 1502.21 931.548 1502.9 936.899 1503.04 941.494 C 1503.94 970.965 1511.29 999.696 1512.7 1029.13 C 1517.9 1103.68 1476.32 1202.54 1391.48 1207.68 C 1354.34 1209.93 1326.63 1190.78 1300.42 1166.95 C 1320.19 1103.26 1323.39 1035.58 1309.73 970.298 C 1287.62 869.349 1226.6 781.189 1139.9 724.942 C 1055.26 669.837 952.064 650.938 853.383 672.468 C 752.601 694.363 664.627 755.358 608.778 842.06 C 552.759 928.853 533.987 1034.52 556.684 1135.3 C 579.546 1240.92 639.934 1323.1 730.508 1381.33 C 795.556 1420.53 864.913 1441.54 941.293 1440.52 C 1043.91 1439.27 1141.82 1397.26 1213.43 1323.75 C 1216.37 1330.06 1219 1336.94 1221.2 1343.54 C 1237.78 1393.22 1250.25 1447.74 1286.32 1487.71 C 1292.87 1494.96 1299.38 1502.28 1305.97 1509.52 C 1205.89 1591.68 1081.29 1638.16 951.856 1641.61 C 791.751 1645.75 642.619 1584.1 527.035 1474.29 C 415.732 1367.83 351.365 1221.45 348.139 1067.47 C 344.618 913.879 402.204 765.172 508.248 654.012 C 616.488 539.139 766.591 472.933 924.406 470.458 z" fill="rgb(235,55,8)" transform="translate(0,0)"></path>
<path d="M 918.712 667.43 C 952.325 663.669 1013.65 674.052 1045.62 684.183 C 1144.46 715.504 1223.21 783.886 1271.41 875.004 C 1318.26 964.213 1327.61 1068.42 1297.37 1164.54 C 1271.15 1140.33 1250.97 1108.22 1225.81 1082.97 C 1201.53 1058.61 1164.69 1014.21 1130.63 1005.69 C 1116.06 1001.9 1100.56 1004.24 1087.75 1012.18 C 1003.74 1063.46 1128.32 1203.23 1164.21 1252.1 C 1181.22 1275.26 1196.63 1295.22 1211.79 1320 C 1200.19 1332.47 1190.42 1340.99 1177.47 1351.8 C 1116.24 1401.05 1041.51 1430.57 963.156 1436.44 C 862.843 1444.16 759.385 1408.09 683.449 1342.6 C 606.148 1276 558.721 1181.23 551.747 1079.43 C 544.479 977.202 578.248 876.292 645.581 799.029 C 717.104 716.808 811.146 674.928 918.712 667.43 z" fill="rgb(250,250,248)" transform="translate(0,0)"></path>
<path d="M 917.735 723.433 C 950.569 720.701 995.562 725.537 1027.99 730.445 C 1002.29 788.503 973.222 847.334 946.755 905.5 C 943.904 911.811 940.841 918.024 937.572 924.129 C 927.733 906.278 913.295 869.85 904.265 849.575 C 892.547 823.448 880.964 797.261 869.514 771.016 C 863.636 757.647 857.045 743.942 851.787 730.425 C 872.761 726.548 896.613 724.865 917.735 723.433 z" fill="rgb(2,0,0)" transform="translate(0,0)"></path>
<path d="M 913.533 727.418 C 950.045 725.621 986.645 727.654 1022.73 733.486 C 996.926 787.54 971.682 841.861 947.005 896.441 L 937.665 916.291 C 910.344 855.51 883.433 794.545 856.935 733.401 C 875.696 730.514 894.583 728.518 913.533 727.418 z" fill="rgb(218,141,108)" transform="translate(0,0)"></path>
<path d="M 1433.67 748.139 C 1447.7 731.723 1458.94 731.899 1474.99 746.504 C 1494.5 764.262 1512.23 784.074 1531.03 802.587 C 1560.34 834.276 1603.16 868.168 1618.9 908.968 C 1624.38 923.18 1627.06 953.471 1629.13 968.628 C 1632.81 995.756 1636.7 1022.86 1640.79 1049.93 C 1642.34 1060.18 1646.45 1092.87 1651.12 1099.76 L 1652.18 1099.16 C 1652.61 1093.97 1645.66 1056.93 1644.44 1048.67 L 1632.69 966.143 C 1628.6 937.015 1628.18 916.076 1613.97 889.87 C 1637.93 888.135 1662.37 892.428 1681.01 908.893 C 1709.45 934.024 1706.93 968.486 1710.27 1000.29 C 1712.62 1022.75 1707.97 1135.45 1714.65 1146.74 C 1715.21 1145.42 1715.05 1030.04 1714.84 1019.86 C 1714.52 1009.18 1713.92 998.508 1713.06 987.857 C 1773.08 1008.25 1761.06 1063.43 1754.23 1113.67 L 1746.28 1176.22 C 1745.24 1184.9 1744.33 1193.88 1742.92 1202.56 C 1742.48 1205.26 1743.6 1206.53 1745.38 1207.76 L 1744.56 1207.79 C 1746.99 1205.85 1747.3 1203.83 1747.59 1200.23 C 1750 1170.63 1754.94 1141.43 1757.75 1111.78 C 1770.82 1120.61 1781.23 1130.46 1784.11 1146.85 C 1789.98 1180.94 1771.61 1213.32 1756.92 1242.7 C 1753.85 1248.85 1746.5 1260.89 1744.75 1266.94 C 1738.96 1286.81 1736.66 1302.63 1727.41 1321.79 C 1709.63 1358.63 1683.48 1391.06 1678.73 1432.97 C 1675.54 1457.53 1676.18 1482.06 1691.94 1503.2 C 1697.71 1510.94 1707.91 1516.65 1714.94 1522.91 C 1736.47 1542.05 1724.76 1574.65 1712.65 1596.27 C 1711.36 1598.57 1710.01 1600.83 1708.61 1603.06 C 1707.45 1604.91 1706.26 1606.74 1705.04 1608.54 C 1661.64 1672.48 1535.28 1751.58 1455.05 1704.33 C 1439.35 1695.08 1433.85 1675.14 1428.19 1659.12 C 1418.46 1626.43 1396.9 1600.12 1373.42 1576.22 C 1349.68 1552.33 1326.45 1524.1 1302.85 1500.51 C 1255.23 1452.92 1241.9 1395.75 1221.72 1334.13 C 1213.48 1308.97 1195.05 1288.5 1180.26 1267.29 C 1150.47 1224.57 1109.29 1181.14 1086.26 1134.46 L 1089.11 1132.93 C 1115.52 1149.66 1143.75 1118.79 1154.72 1096.65 C 1160.04 1085.91 1160.77 1072.92 1155.71 1061.8 C 1145.53 1039.45 1140.43 1021.43 1116.32 1010.72 C 1117.92 1009.27 1118.72 1008.61 1120.77 1007.96 L 1122.5 1007.38 C 1149.47 1013.16 1163.83 1026.71 1183.78 1045.44 C 1205.31 1066.06 1225.78 1087.74 1245.13 1110.42 C 1283.12 1154.49 1325.29 1214.15 1389.1 1211.46 C 1483.57 1207.46 1526.17 1095.5 1515.19 1014.55 C 1511.54 987.649 1505.36 958.302 1508.08 931.98 C 1509.92 920.63 1522.69 911.64 1524.71 906.374 C 1518.58 904.214 1507.5 922.619 1504.85 927.651 C 1494.13 878.961 1480.86 837.931 1458.33 793.009 C 1450.44 777.28 1441.91 763.368 1433.67 748.139 z" fill="rgb(218,141,108)" transform="translate(0,0)"></path>
<path d="M 1099.85 1013.14 C 1124.07 1011.38 1131.43 1024.1 1143.06 1042.17 C 1166.25 1078.21 1152.53 1113.23 1114.54 1132.68 C 1088.81 1142.65 1075.91 1111.26 1068.52 1092.26 C 1055.66 1059.2 1063.1 1024.67 1099.85 1013.14 z" fill="rgb(218,141,108)" transform="translate(0,0)"></path>
<path d="M 1594.73 864.033 C 1614.38 866.768 1634.91 872.871 1648.25 888.924 C 1633.22 886.378 1626.51 885.349 1611.24 887.151 L 1610.88 886.536 C 1605.96 878.032 1601.12 871.44 1594.73 864.033 z" fill="rgb(218,141,108)" transform="translate(0,0)"></path>
<path d="M 1116.32 1010.72 C 1114.28 1010.61 1112.81 1009.98 1111.01 1009.85 L 1109.8 1009.77 L 1109.14 1008.23 C 1109.11 1008.23 1109.09 1008.23 1109.07 1008.24 C 1108.59 1008.39 1108.1 1008.54 1107.62 1008.69 C 1109.48 1006.2 1119.7 1007.09 1122.5 1007.38 L 1120.77 1007.96 C 1118.72 1008.61 1117.92 1009.27 1116.32 1010.72 z" fill="rgb(208,115,95)" transform="translate(0,0)"></path>
<path d="M 1086.26 1134.46 C 1079.99 1124.07 1083.23 1126.65 1089.11 1132.93 L 1086.26 1134.46 z" fill="rgb(208,115,95)" transform="translate(0,0)"></path>
<path d="M 1038.58 242.942 L 1039.44 243.858 C 1034.94 260.689 1023.25 288.595 1017.21 307.049 C 1035.25 308.684 1053.13 309.876 1071.07 312.423 C 1142.36 322.68 1211.62 343.966 1276.37 375.518 C 1412.51 443.038 1529.53 549.485 1579.05 696.195 C 1562.04 701.301 1544.99 706.254 1527.89 711.054 C 1521.44 687.796 1495.24 643.287 1482.29 622.749 C 1378.8 469.501 1201.23 376.589 1018.39 363.828 C 1018.74 381.994 1019.04 404.123 1020.96 422.034 C 1014.68 417.136 1008.11 412.379 1001.54 407.888 C 964.013 382.253 927.286 354.741 889.571 329.459 C 939.07 300.328 988.739 271.488 1038.58 242.942 z" fill="rgb(2,0,0)" transform="translate(0,0)"></path>
<path d="M 1032.82 249.962 C 1031.94 256.63 1014.59 303.097 1011.39 311.135 C 1024.84 310.709 1046.42 312.93 1060.06 314.576 C 1138.43 324.498 1214.5 347.879 1284.91 383.687 C 1410.27 447.844 1530.36 556.954 1574.66 694.099 C 1562.78 696.486 1542.55 703.206 1530.1 706.855 C 1517.6 674.641 1505.25 652.179 1486.97 622.838 C 1378.6 462.541 1204.93 375.538 1014.93 359.827 C 1014.96 378.053 1015.53 396.273 1016.63 414.466 C 978.743 387.325 934.204 354.652 895.605 329.521 C 910.101 322.317 932.054 308.738 946.52 300.344 C 975.422 283.781 1004.19 266.986 1032.82 249.962 z" fill="rgb(218,141,108)" transform="translate(0,0)"></path>
<metadata><recraft-signature>{"signed_by": "recraft", "signature_b64": "zwWvZMOQHGrTQpfWWQ1WejVYCKg76wEtp99DBKpw53c9c9fKPjpmWki9/pTWC84T61x1S6EBBsu1t3/jTIKiAg==", "signing_algo": "Ed25519", "generation_timestamp": 1779099645, "identifier": "f9f6c102-ed87-41cb-a589-20f3f7089c86"}</recraft-signature></metadata></svg>