<svg xmlns="http://www.w3.org/2000/svg" height="1216" preserveAspectRatio="none" style="display: block;" version="1.1" viewBox="0 0 1509 2048" width="896">
<defs>
	<linearGradient gradientUnits="userSpaceOnUse" id="Gradient1" x1="963.023" x2="1508.56" y1="1750.26" y2="1594.11">
		<stop class="stop0" offset="0" stop-color="rgb(55,36,21)" stop-opacity="1"></stop>
		<stop class="stop1" offset="1" stop-color="rgb(83,50,18)" stop-opacity="1"></stop>
	</linearGradient>
</defs>
<path d="M 0 0 L 1509 0 L 1509 2048 L 1070.32 2048 L 1054.53 2048 L 463.473 2048 L 448.493 2048 L 0 2048 L 0 0 z" fill="rgb(255,255,255)" transform="translate(0,0)"></path>
<path d="M 754.124 814.665 C 764.578 815.59 773.696 816.232 784.257 817.535 L 785.851 817.627 C 847.619 829.77 884.629 843.162 939.837 874.545 C 949.818 881.255 961.859 888.461 971.145 895.606 C 1022.35 935.002 1066.01 984.514 1095.02 1042.47 C 1099 1050.43 1103.04 1059.64 1107.48 1067.32 C 1111.73 1077.4 1115.51 1087.28 1119.63 1097.21 C 1128.9 1125.31 1137.65 1153.76 1143.05 1182.87 C 1143.79 1186.91 1146.27 1202.85 1147.53 1205.69 L 1151.01 1231.01 L 1153.32 1231.81 C 1157.56 1278.48 1162.27 1350.48 1147.83 1395.56 L 1146.49 1395.21 C 1138.58 1424.21 1134.49 1439.1 1122.4 1466.67 C 1102.89 1506.93 1082.01 1533.17 1048.15 1562.31 L 1048.99 1564.02 C 1038.35 1572.69 1010.9 1590.88 1004.76 1599.32 L 1002.6 1598.6 C 945.189 1632.32 903.57 1646.56 837.487 1657.72 C 839.194 1673.51 842.183 1690.41 844.686 1706.18 L 843.151 1707.31 C 835.732 1705.86 816.776 1708.9 808.282 1708.93 C 764.698 1709.09 720.589 1703.1 681.243 1683.46 C 679.371 1682.52 678.187 1683.36 676.797 1684.28 L 675.827 1689.21 L 673.65 1691.01 C 675.532 1680.01 677.476 1669.02 679.482 1658.05 C 616.977 1647.09 579.735 1637.86 523.48 1607.59 L 521.626 1607.13 L 520.364 1607.94 C 511.382 1599.28 496.508 1592.57 485.691 1585.57 C 467.342 1573.82 450.448 1559.95 435.365 1544.23 C 420.502 1528.38 407.312 1511.04 396.004 1492.48 C 393.033 1487.5 385.708 1471.56 382.79 1469.77 L 381.531 1468.49 C 381.374 1466.3 378.553 1461.17 377.402 1458.8 C 368.889 1441.26 363.215 1423.44 357.461 1404.84 C 320.462 1408.46 287.015 1399.33 257.784 1375.9 C 229.865 1353.76 212.027 1321.31 208.286 1285.88 L 209.423 1285.46 L 210.46 1280.92 C 207.751 1230.26 240.211 1187.26 292.811 1186.68 C 318.621 1190.24 331.344 1198.65 349.949 1217.23 C 353.11 1220.39 358.779 1227.18 361.35 1229.53 L 364.451 1229.29 C 366.601 1214.16 369.152 1199.08 372.104 1184.07 C 377.803 1156.13 384.371 1132.9 392.938 1105.94 C 399.71 1090.96 405.282 1074.99 412.379 1059.52 C 435.609 1008.87 462.026 976.386 498.42 935.926 C 501.713 932.976 504.008 930.758 506.997 927.456 C 512.775 923.742 535.18 903.064 543.403 896.866 C 574.157 873.683 597.273 861.928 631.646 845.989 C 647.923 839.974 663.563 833.636 680.522 829.119 C 681.974 828.733 681.521 828.904 682.998 828.268 C 710.002 822.398 727.037 819.315 754.124 814.665 z" fill="rgb(193,123,88)" transform="translate(0,0)"></path>
<path d="M 210.46 1280.92 C 207.751 1230.26 240.211 1187.26 292.811 1186.68 C 318.621 1190.24 331.344 1198.65 349.949 1217.23 C 353.11 1220.39 358.779 1227.18 361.35 1229.53 L 364.451 1229.29 C 354.985 1290.26 352.534 1332.74 366.551 1393.65 L 364.465 1395.26 C 359.156 1396.93 351.824 1398.15 346.292 1398.69 C 313.389 1402.01 280.555 1391.78 255.349 1370.37 C 227.402 1346.98 213.457 1316.71 210.46 1280.92 z" fill="rgb(193,123,88)" transform="translate(0,0)"></path>
<path d="M 364.451 1229.29 C 354.985 1290.26 352.534 1332.74 366.551 1393.65 L 364.465 1395.26 C 356.061 1353.59 352.676 1321.53 355.656 1278.77 C 356.411 1267.93 361.88 1237.21 361.35 1229.53 L 364.451 1229.29 z" fill="rgb(49,34,26)" transform="translate(0,0)"></path>
<path d="M 248.475 1238.84 C 259.692 1228.88 269.651 1224.67 284.966 1225.14 C 310.008 1225.91 342.15 1249.83 350.474 1273.22 L 349.879 1273.89 C 345.361 1273 343.207 1267.85 341.563 1267.51 C 315.903 1262.14 291.729 1286.18 280.874 1305.71 C 285.122 1291.44 289.081 1285.35 298.708 1273.86 C 329.598 1237.01 276.642 1223.43 249.516 1241.31 L 248.475 1238.84 z" fill="rgb(33,22,20)" transform="translate(0,0)"></path>
<path d="M 243.373 1243.62 L 246.24 1244.14 C 245.361 1245.04 240.551 1250.3 239.523 1249.63 C 239.317 1249.18 239.338 1249.28 239.482 1248.77 L 240.083 1249.2 L 239.93 1247.96 C 240.814 1246.76 242.408 1244.69 243.373 1243.62 z" fill="rgb(100,63,47)" transform="translate(0,0)"></path>
<path d="M 248.475 1238.84 L 249.516 1241.31 C 248.359 1242.26 247.35 1243.14 246.24 1244.14 L 243.373 1243.62 C 245.058 1242.01 246.759 1240.42 248.475 1238.84 z" fill="rgb(12,6,5)" transform="translate(0,0)"></path>
<path d="M 210.46 1280.92 C 213.457 1316.71 227.402 1346.98 255.349 1370.37 C 280.555 1391.78 313.389 1402.01 346.292 1398.69 C 351.824 1398.15 359.156 1396.93 364.465 1395.26 L 366.551 1393.65 C 380.766 1467.46 432.167 1533.78 493.946 1575.16 C 651.051 1680.38 897.63 1683.04 1048.15 1562.31 L 1048.99 1564.02 C 1038.35 1572.69 1010.9 1590.88 1004.76 1599.32 L 1002.6 1598.6 C 945.189 1632.32 903.57 1646.56 837.487 1657.72 C 839.194 1673.51 842.183 1690.41 844.686 1706.18 L 843.151 1707.31 C 835.732 1705.86 816.776 1708.9 808.282 1708.93 C 764.698 1709.09 720.589 1703.1 681.243 1683.46 C 679.371 1682.52 678.187 1683.36 676.797 1684.28 L 675.827 1689.21 L 673.65 1691.01 C 675.532 1680.01 677.476 1669.02 679.482 1658.05 C 616.977 1647.09 579.735 1637.86 523.48 1607.59 L 521.626 1607.13 L 520.364 1607.94 C 511.382 1599.28 496.508 1592.57 485.691 1585.57 C 467.342 1573.82 450.448 1559.95 435.365 1544.23 C 420.502 1528.38 407.312 1511.04 396.004 1492.48 C 393.033 1487.5 385.708 1471.56 382.79 1469.77 L 381.531 1468.49 C 381.374 1466.3 378.553 1461.17 377.402 1458.8 C 368.889 1441.26 363.215 1423.44 357.461 1404.84 C 320.462 1408.46 287.015 1399.33 257.784 1375.9 C 229.865 1353.76 212.027 1321.31 208.286 1285.88 L 209.423 1285.46 L 210.46 1280.92 z" fill="rgb(33,22,20)" transform="translate(0,0)"></path>
<path d="M 1151.01 1231.01 L 1153.32 1231.81 C 1157.56 1278.48 1162.27 1350.48 1147.83 1395.56 L 1146.49 1395.21 C 1151.75 1366.59 1154.3 1349.83 1155.41 1320.78 C 1154.8 1316.77 1154.79 1292.72 1155.32 1288.22 L 1154.76 1271.87 C 1154.13 1270.66 1154.24 1270.64 1154.33 1269.23 C 1153.87 1257.53 1152.06 1242.97 1151.01 1231.01 z" fill="rgb(49,34,26)" transform="translate(0,0)"></path>
<path d="M 1155.32 1288.22 C 1156.49 1290.31 1156.5 1318.43 1155.41 1320.78 C 1154.8 1316.77 1154.79 1292.72 1155.32 1288.22 z" fill="rgb(136,83,59)" transform="translate(0,0)"></path>
<path d="M 1154.33 1269.23 C 1155.03 1270.38 1154.87 1270.34 1154.76 1271.87 C 1154.13 1270.66 1154.24 1270.64 1154.33 1269.23 z" fill="rgb(136,83,59)" transform="translate(0,0)"></path>
<path d="M 880.983 982.645 C 930.737 962.124 983.33 981.495 1004.05 1032.05 C 1008.12 1041.83 1010.62 1052.19 1011.44 1062.74 C 1012.54 1066.88 1012.06 1074.53 1011.5 1078.71 C 1002.46 1133.75 968.877 1166.02 911.287 1159.7 C 888.929 1156.72 868.3 1146.07 852.925 1129.56 C 837.192 1112.81 827.405 1086.94 828.469 1064.03 C 829.859 1034.09 840.941 1014.6 861.978 994.672 C 862.484 993.986 862.336 994.1 863.105 993.752 C 867.418 990.622 872.701 987.423 877.258 984.519 C 878.83 983.192 878.995 983.034 880.983 982.645 z" fill="rgb(255,255,255)" transform="translate(0,0)"></path>
<path d="M 880.983 982.645 C 930.737 962.124 983.33 981.495 1004.05 1032.05 C 1008.12 1041.83 1010.62 1052.19 1011.44 1062.74 L 1009.03 1061.19 C 1000.7 1010.2 955.484 969.21 902.499 978.257 C 879.819 982.334 859.694 995.267 846.562 1014.2 C 832.727 1033.93 827.323 1058.35 831.546 1082.08 C 839.013 1123.08 872.834 1155.65 915.179 1157.04 L 911.287 1159.7 C 888.929 1156.72 868.3 1146.07 852.925 1129.56 C 837.192 1112.81 827.405 1086.94 828.469 1064.03 C 829.859 1034.09 840.941 1014.6 861.978 994.672 C 862.484 993.986 862.336 994.1 863.105 993.752 C 867.418 990.622 872.701 987.423 877.258 984.519 C 878.83 983.192 878.995 983.034 880.983 982.645 z" fill="rgb(33,22,20)" transform="translate(0,0)"></path>
<path d="M 877.258 984.519 C 878.83 983.192 878.995 983.034 880.983 982.645 C 879.995 983.961 878.905 984.476 877.258 984.519 z" fill="rgb(136,83,59)" transform="translate(0,0)"></path>
<path d="M 1009.45 1075.16 L 1011.5 1078.71 C 1002.46 1133.75 968.877 1166.02 911.287 1159.7 L 915.179 1157.04 C 964.338 1153.29 999.709 1124.39 1009.45 1075.16 z" fill="rgb(33,22,20)" transform="translate(0,0)"></path>
<path d="M 1009.03 1061.19 L 1011.44 1062.74 C 1012.54 1066.88 1012.06 1074.53 1011.5 1078.71 L 1009.45 1075.16 C 1009.63 1068.81 1009.6 1067.39 1009.03 1061.19 z" fill="rgb(75,45,18)" transform="translate(0,0)"></path>
<path d="M 907.753 1006.69 C 921.995 1005.59 934.415 1016.28 935.449 1030.53 C 936.483 1044.78 925.737 1057.15 911.486 1058.12 C 897.325 1059.08 885.049 1048.42 884.021 1034.26 C 882.994 1020.11 893.602 1007.78 907.753 1006.69 z" fill="rgb(33,22,20)" transform="translate(0,0)"></path>
<path d="M 505.637 1075.66 C 505.398 1074.42 505.24 1073.16 505.163 1071.89 C 502.203 1022.4 541.148 977.432 591.278 974.905 C 615.487 973.623 639.2 982.105 657.103 998.451 C 676.456 1016.13 685.965 1038.2 687.113 1064.31 C 689.334 1066.84 687.807 1070.43 686.997 1073.39 C 686.054 1084.78 677.816 1113.74 669.741 1121.21 C 668.164 1123.1 666.621 1125.02 665.115 1126.97 C 664.51 1128.53 664.138 1129.23 662.569 1129.91 C 661.828 1130.68 661.092 1131.46 660.361 1132.24 C 658.236 1134.83 657.868 1135.98 655.007 1137.16 C 639.145 1149.31 630.138 1154.8 609.84 1158.8 C 604.336 1159.72 598.789 1160.36 593.219 1160.7 C 543.751 1163.3 508.068 1123.39 505.637 1075.66 z" fill="rgb(255,255,255)" transform="translate(0,0)"></path>
<path d="M 505.637 1075.66 L 507.631 1074.97 C 521.064 1123.87 556.145 1159.13 609.314 1156.93 L 609.84 1158.8 C 604.336 1159.72 598.789 1160.36 593.219 1160.7 C 543.751 1163.3 508.068 1123.39 505.637 1075.66 z" fill="rgb(33,22,20)" transform="translate(0,0)"></path>
<path d="M 505.637 1075.66 C 505.398 1074.42 505.24 1073.16 505.163 1071.89 C 502.203 1022.4 541.148 977.432 591.278 974.905 C 615.487 973.623 639.2 982.105 657.103 998.451 C 676.456 1016.13 685.965 1038.2 687.113 1064.31 C 689.334 1066.84 687.807 1070.43 686.997 1073.39 C 686.054 1084.78 677.816 1113.74 669.741 1121.21 L 668.182 1119.94 C 679.076 1103.71 684.56 1088.84 685.42 1069.25 C 688.118 1022.63 647.557 976.6 600.046 977.202 C 546.958 977.874 507.287 1023.15 507.631 1074.97 L 505.637 1075.66 z" fill="rgb(33,22,20)" transform="translate(0,0)"></path>
<path d="M 687.113 1064.31 C 689.334 1066.84 687.807 1070.43 686.997 1073.39 C 686.802 1069.85 686.498 1067.84 687.113 1064.31 z" fill="rgb(172,107,76)" transform="translate(0,0)"></path>
<path d="M 668.182 1119.94 L 669.741 1121.21 C 668.164 1123.1 666.621 1125.02 665.115 1126.97 C 664.51 1128.53 664.138 1129.23 662.569 1129.91 C 661.828 1130.68 661.092 1131.46 660.361 1132.24 C 658.236 1134.83 657.868 1135.98 655.007 1137.16 C 639.145 1149.31 630.138 1154.8 609.84 1158.8 L 609.314 1156.93 C 636.718 1149.69 649.777 1143.3 668.182 1119.94 z" fill="rgb(49,34,26)" transform="translate(0,0)"></path>
<path d="M 655.007 1137.16 C 656.385 1135.2 658.47 1133.69 660.361 1132.24 C 658.236 1134.83 657.868 1135.98 655.007 1137.16 z" fill="rgb(136,83,59)" transform="translate(0,0)"></path>
<path d="M 665.115 1126.97 C 664.51 1128.53 664.138 1129.23 662.569 1129.91 C 663.475 1128.4 663.706 1128.07 665.115 1126.97 z" fill="rgb(136,83,59)" transform="translate(0,0)"></path>
<path d="M 583.442 1007.56 C 597.248 1003.91 611.393 1012.18 614.982 1026 C 618.57 1039.83 610.235 1053.93 596.395 1057.45 C 582.647 1060.96 568.655 1052.69 565.091 1038.96 C 561.526 1025.22 569.728 1011.19 583.442 1007.56 z" fill="rgb(33,22,20)" transform="translate(0,0)"></path>
<path d="M 668.433 1366.47 C 672.391 1357.14 688.555 1343.07 696.157 1336.42 C 743.407 1295.08 797.112 1308.88 835.612 1353.44 C 839.172 1357.56 843.006 1361.44 845.077 1366.61 C 844.613 1367.37 844.513 1368.86 844.348 1369.82 C 844.188 1370.05 844.027 1370.28 843.866 1370.52 C 804.104 1399.66 750.387 1404.92 704.703 1388.49 C 689.522 1383.03 678.217 1377.36 668.508 1369.75 C 668.505 1368.61 668.531 1367.61 668.433 1366.47 z" fill="rgb(75,45,18)" transform="translate(0,0)"></path>
<path d="M 702.121 1421.67 C 741.382 1444.29 776.426 1445.3 815.29 1421.31 C 812.69 1424.98 809.579 1428.83 806.799 1432.4 C 803 1436.72 798.752 1440.63 794.127 1444.05 C 759.96 1469.12 724.64 1453.11 702.121 1421.67 z" fill="rgb(33,22,20)" transform="translate(0,0)"></path>
<path d="M 739.173 1104.17 L 739.803 1105.57 C 720.252 1113.53 686.775 1141.18 698.705 1169.21 C 699.307 1170.62 702.921 1174.09 702.461 1175.25 C 699.489 1175.27 694.484 1166.79 693.856 1164 C 686.677 1132.08 714.401 1113.22 739.173 1104.17 z" fill="rgb(12,6,5)" transform="translate(0,0)"></path>
<path d="M 819.911 1172.54 C 838.877 1148.51 803.141 1111.53 780.29 1105.44 C 779.598 1105.25 774.902 1103.75 774.743 1103.41 C 774.87 1103.26 774.874 1103.23 775.237 1103.26 C 799.798 1105.15 827.394 1128.4 828.584 1154 C 828.998 1162.9 826.679 1166.11 822.178 1173.16 L 819.911 1172.54 z" fill="rgb(12,6,5)" transform="translate(0,0)"></path>
<path d="M 845.077 1366.61 L 845.831 1366.07 C 848.199 1364.34 860.88 1353.64 862.432 1353.65 C 862.702 1353.81 862.56 1353.68 862.827 1354.13 C 861.963 1357.32 848.533 1367.42 845.701 1369.05 L 844.348 1369.82 C 844.513 1368.86 844.613 1367.37 845.077 1366.61 z" fill="rgb(33,22,20)" transform="translate(0,0)"></path>
<path d="M 668.508 1369.75 C 666.159 1367.94 648.69 1354.93 649.811 1353.12 C 652.09 1352.78 665.752 1364.48 668.433 1366.47 C 668.531 1367.61 668.505 1368.61 668.508 1369.75 z" fill="rgb(33,22,20)" transform="translate(0,0)"></path>
<path d="M 739.173 1104.17 C 739.965 1103.87 744.966 1101.76 745.552 1102.98 C 745.279 1104.37 741.024 1105.28 739.803 1105.57 L 739.173 1104.17 z" fill="rgb(75,45,18)" transform="translate(0,0)"></path>
<path d="M 822.178 1173.16 C 821.524 1173.69 817.499 1177.13 816.73 1175.55 C 816.975 1174.34 818.897 1173.26 819.911 1172.54 L 822.178 1173.16 z" fill="rgb(100,63,47)" transform="translate(0,0)"></path>
<path d="M 1122.4 1466.67 L 1123.73 1467.46 C 1128.36 1468.32 1129.44 1468.78 1133.66 1470.56 L 1133.19 1467.73 C 1166.13 1482.61 1197.39 1496.13 1227.92 1516.05 C 1231.63 1518.47 1246.59 1528.49 1249.8 1528.02 L 1251.63 1526.49 C 1250.74 1532.58 1253.29 1531.74 1253.76 1535.58 C 1262.12 1541.9 1273.83 1550.14 1281.48 1556.73 C 1227.21 1655.42 1164.27 1749.09 1093.42 1836.64 C 1071.61 1863.56 1050.38 1889.68 1026.22 1914.61 C 1017.02 1893.97 1003.7 1866.02 991.825 1846.43 L 990.877 1848.05 C 1021.92 1915.39 1040.29 1975.23 1054.53 2048 L 463.473 2048 C 471.694 2010.1 481.197 1973.87 493.016 1936.92 C 498.235 1920.6 508.506 1898.95 512.637 1883.42 C 517.971 1872.8 523.466 1859.29 528.29 1848.23 L 527.225 1846.56 C 513.316 1871.29 502.634 1891.64 491.9 1918.2 C 469.098 1892.44 446.784 1866.26 424.972 1839.66 C 353.972 1750.88 290.401 1656.41 234.904 1557.2 C 243.586 1549.86 258.757 1539.54 268.341 1532.57 L 267.659 1530.43 C 298.313 1507.68 346.968 1483.7 381.531 1468.49 L 382.79 1469.77 C 385.708 1471.56 393.033 1487.5 396.004 1492.48 C 407.312 1511.04 420.502 1528.38 435.365 1544.23 C 450.448 1559.95 467.342 1573.82 485.691 1585.57 C 496.508 1592.57 511.382 1599.28 520.364 1607.94 L 521.626 1607.13 L 523.48 1607.59 C 579.735 1637.86 616.977 1647.09 679.482 1658.05 C 677.476 1669.02 675.532 1680.01 673.65 1691.01 L 675.827 1689.21 L 676.797 1684.28 C 678.187 1683.36 679.371 1682.52 681.243 1683.46 C 720.589 1703.1 764.698 1709.09 808.282 1708.93 C 816.776 1708.9 835.732 1705.86 843.151 1707.31 L 844.686 1706.18 C 842.183 1690.41 839.194 1673.51 837.487 1657.72 C 903.57 1646.56 945.189 1632.32 1002.6 1598.6 L 1004.76 1599.32 C 1010.9 1590.88 1038.35 1572.69 1048.99 1564.02 L 1048.15 1562.31 C 1082.01 1533.17 1102.89 1506.93 1122.4 1466.67 z" fill="rgb(213,202,124)" transform="translate(0,0)"></path>
<path d="M 675.827 1689.21 L 676.797 1684.28 C 678.187 1683.36 679.371 1682.52 681.243 1683.46 C 720.589 1703.1 764.698 1709.09 808.282 1708.93 C 816.776 1708.9 835.732 1705.86 843.151 1707.31 C 844.937 1724.19 845.271 1744.93 856.149 1758.1 C 873.752 1799.84 843.522 1848.7 803.489 1863.95 C 791.532 1868.51 783.086 1870.5 770.386 1872.32 C 769.434 1872.17 747.846 1872.17 746.552 1872.34 C 733.216 1870.46 722.946 1868.31 710.347 1862.94 C 671.411 1846.32 641.819 1799.34 660.665 1757.62 L 666.551 1750.48 C 668.98 1729.85 672.79 1709.75 675.827 1689.21 z" fill="rgb(193,123,88)" transform="translate(0,0)"></path>
<path d="M 1002.6 1598.6 C 997.803 1607.81 982.476 1627.05 975.699 1636.41 C 959.974 1658.39 944.429 1680.5 929.068 1702.73 C 922.329 1712.5 911.039 1728.05 905.435 1737.75 C 885.825 1724.22 869.879 1719.68 846.456 1716.61 L 844.686 1706.18 C 842.183 1690.41 839.194 1673.51 837.487 1657.72 C 903.57 1646.56 945.189 1632.32 1002.6 1598.6 z" fill="rgb(255,255,255)" transform="translate(0,0)"></path>
<path d="M 523.48 1607.59 C 579.735 1637.86 616.977 1647.09 679.482 1658.05 C 677.476 1669.02 675.532 1680.01 673.65 1691.01 C 672.384 1699.46 670.877 1708.06 669.484 1716.51 C 647.722 1718 630.063 1725.65 612.127 1737.38 C 604.672 1724.63 593.631 1709.56 585.051 1697.3 L 542.473 1636.24 C 538.925 1631.13 524.774 1611.94 523.48 1607.59 z" fill="rgb(255,255,255)" transform="translate(0,0)"></path>
<path d="M 657.943 1754.98 L 660.665 1757.62 C 641.819 1799.34 671.411 1846.32 710.347 1862.94 C 722.946 1868.31 733.216 1870.46 746.552 1872.34 C 744.477 1872.77 742.446 1873.2 740.355 1873.55 C 715.008 1870.1 691.304 1859.03 672.373 1841.83 C 646.1 1817.87 630.685 1784.6 657.943 1754.98 z" fill="rgb(33,22,20)" transform="translate(0,0)"></path>
<path d="M 859.143 1756.69 C 884.567 1785.16 867.254 1821.82 841.769 1843.09 C 820.817 1860.59 803.642 1868.38 777.236 1873.47 C 774.663 1873.25 772.885 1872.83 770.386 1872.32 C 783.086 1870.5 791.532 1868.51 803.489 1863.95 C 843.522 1848.7 873.752 1799.84 856.149 1758.1 L 859.143 1756.69 z" fill="rgb(33,22,20)" transform="translate(0,0)"></path>
<path d="M 520.364 1607.94 L 521.626 1607.13 L 523.48 1607.59 C 524.774 1611.94 538.925 1631.13 542.473 1636.24 L 585.051 1697.3 C 593.631 1709.56 604.672 1724.63 612.127 1737.38 C 630.063 1725.65 647.722 1718 669.484 1716.51 C 670.877 1708.06 672.384 1699.46 673.65 1691.01 L 675.827 1689.21 C 672.79 1709.75 668.98 1729.85 666.551 1750.48 L 660.665 1757.62 L 657.943 1754.98 L 664.261 1749.58 C 665.575 1739.2 667.174 1728.85 669.055 1718.56 C 649.187 1721.95 640.867 1723.04 622.96 1732.61 C 622.263 1732.84 622.339 1732.86 621.753 1733.39 L 611.739 1739.81 L 606.43 1732.11 C 605.769 1731.34 605.841 1731.49 605.473 1730.56 C 604.705 1729.54 604.13 1728.93 603.61 1727.78 C 602.735 1726.53 601.999 1725.57 601.278 1724.22 C 600.567 1723.34 600.154 1722.96 599.663 1721.96 C 598.65 1720.51 597.812 1719.43 597.007 1717.84 C 596.307 1717.07 596.075 1716.96 595.648 1716.05 L 591.579 1710.21 C 591.053 1709.67 591.052 1709.68 590.702 1709.02 L 584.497 1700.25 C 583.963 1699.68 583.977 1699.73 583.664 1699.03 L 577.509 1690.24 C 577.007 1689.68 577.004 1689.7 576.685 1689.02 L 572.582 1683.21 C 572.053 1682.66 572.055 1682.68 571.707 1682.01 L 565.585 1673.2 C 565.052 1672.65 565.059 1672.67 564.713 1672 L 556.396 1659.91 C 555.637 1659.02 555.623 1659 555.043 1657.98 C 554.377 1657.17 554.091 1656.96 553.662 1656.03 L 543.572 1641.21 C 543.064 1640.66 543.056 1640.66 542.719 1639.99 L 531.589 1624.19 C 531.052 1623.63 531.067 1623.66 530.727 1622.98 L 524.597 1614.18 C 524.045 1613.64 524.067 1613.68 523.72 1612.99 L 520.364 1607.94 z" fill="rgb(49,34,26)" transform="translate(0,0)"></path>
<path d="M 1002.6 1598.6 L 1004.76 1599.32 C 972.287 1646.57 938.087 1692.26 905.812 1740.31 C 885.589 1725.92 871.124 1722.08 846.602 1718.72 L 851.663 1749.28 L 859.143 1756.69 L 856.149 1758.1 C 845.271 1744.93 844.937 1724.19 843.151 1707.31 L 844.686 1706.18 L 846.456 1716.61 C 869.879 1719.68 885.825 1724.22 905.435 1737.75 C 911.039 1728.05 922.329 1712.5 929.068 1702.73 C 944.429 1680.5 959.974 1658.39 975.699 1636.41 C 982.476 1627.05 997.803 1607.81 1002.6 1598.6 z" fill="rgb(49,34,26)" transform="translate(0,0)"></path>
<path d="M 1133.66 1470.56 L 1133.19 1467.73 C 1166.13 1482.61 1197.39 1496.13 1227.92 1516.05 C 1231.63 1518.47 1246.59 1528.49 1249.8 1528.02 L 1251.63 1526.49 C 1250.74 1532.58 1253.29 1531.74 1253.76 1535.58 C 1216.25 1509.53 1175.97 1487.73 1133.66 1470.56 z" fill="rgb(49,34,26)" transform="translate(0,0)"></path>
<path d="M 381.531 1468.49 L 382.79 1469.77 C 370.145 1477.19 353.351 1483.03 340.301 1489.91 C 317.73 1501.81 289.205 1517.6 268.341 1532.57 L 267.659 1530.43 C 298.313 1507.68 346.968 1483.7 381.531 1468.49 z" fill="rgb(49,34,26)" transform="translate(0,0)"></path>
<path d="M 1122.4 1466.67 L 1123.73 1467.46 C 1112.94 1499.74 1074.98 1542.3 1048.99 1564.02 L 1048.15 1562.31 C 1082.01 1533.17 1102.89 1506.93 1122.4 1466.67 z" fill="rgb(49,34,26)" transform="translate(0,0)"></path>
<path d="M 746.552 1872.34 C 747.846 1872.17 769.434 1872.17 770.386 1872.32 C 772.885 1872.83 774.663 1873.25 777.236 1873.47 C 765.002 1875.15 752.597 1875.18 740.355 1873.55 C 742.446 1873.2 744.477 1872.77 746.552 1872.34 z" fill="rgb(49,34,26)" transform="translate(0,0)"></path>
<path d="M 527.225 1846.56 C 528.128 1844.56 529.165 1842.63 530.329 1840.77 L 530.006 1841.2 L 530.492 1840.59 C 530.901 1840.08 530.926 1839.88 531.46 1839.74 C 532.693 1840.6 528.891 1847.15 528.29 1848.23 L 527.225 1846.56 z" fill="rgb(93,87,57)" transform="translate(0,0)"></path>
<path d="M 990.877 1848.05 C 990.152 1846.9 986.462 1841.15 987.296 1839.89 C 987.916 1840.05 987.893 1840.09 988.779 1841.04 L 988.449 1840.64 C 989.781 1842.47 990.843 1844.39 991.825 1846.43 L 990.877 1848.05 z" fill="rgb(134,126,81)" transform="translate(0,0)"></path>
<path d="M 1265.84 252.256 C 1276.05 228.603 1278.29 200.63 1282.74 174.869 L 1295.72 103.568 C 1297.6 92.7875 1298.97 76.6721 1302.17 67.1187 C 1304.28 60.5985 1308.09 54.7545 1313.19 50.1803 C 1330.07 35.2475 1357.27 43.5252 1357.53 67.0323 C 1357.68 79.8319 1352.27 96.9446 1350.75 110.491 L 1337.56 238.913 C 1338.08 242.247 1337.97 242.196 1339.53 245.087 C 1358.15 196.312 1370.95 144.159 1390.57 95.7554 C 1392.34 91.4027 1396.26 87.9501 1399.95 85.2682 C 1401.6 84.903 1403.05 84.8662 1404.73 84.7462 C 1411.96 82.8224 1423.72 84.7589 1427.34 91.9302 C 1440.27 107.767 1430.19 127.91 1425.92 145.537 C 1421.19 165.039 1414.8 184.765 1410.87 204.438 C 1408.72 214.506 1405.82 224.227 1403.04 234.134 C 1403.37 235.574 1403.71 237.01 1404.07 238.443 C 1400.11 259.164 1398.03 267.886 1399.3 289.697 C 1402.49 283.269 1406.58 276.339 1409.56 270.088 C 1411.69 262.398 1445.59 197.207 1451.65 187.278 L 1453.46 187.903 C 1462.52 173.417 1477.55 170.839 1488.66 184.814 C 1492.07 195.759 1492.43 197.487 1490.01 209.637 C 1477.52 240.274 1465.28 271.014 1453.3 301.853 C 1443.75 326.293 1435.84 338.589 1435.79 365.394 C 1434.89 366.797 1435.12 366.816 1435.32 368.587 L 1434.25 378.081 L 1436.5 378.804 C 1429.57 438.203 1406.63 487.378 1359.55 524.95 C 1359.44 525.671 1359.33 526.392 1359.22 527.112 L 1357.77 529.529 C 1378.91 605.271 1392.48 682.924 1398.27 761.346 C 1398.79 762.435 1398.67 762.482 1398.67 763.854 C 1399.44 776.978 1400.32 790.095 1401.31 803.205 C 1401.99 804.762 1401.86 804.775 1401.7 806.603 C 1403.19 852.998 1404.21 887.151 1402.87 933.925 C 1402.04 937.045 1401.67 937.508 1402.14 940.628 C 1402.03 944.572 1401.71 950.463 1401.89 954.221 C 1401.17 957.2 1400.88 957.671 1401.15 960.635 C 1400.16 974.495 1399.3 988.365 1398.58 1002.24 C 1398.55 1003.57 1398.62 1003.64 1398.16 1004.82 L 1397.53 1013.31 C 1397.17 1014.03 1397.24 1014.11 1397.16 1015.02 C 1396.16 1031.68 1393.25 1052.07 1391.08 1068.77 C 1382.83 1133.97 1369.5 1198.42 1351.21 1261.54 C 1347.47 1274.34 1342.91 1291.21 1338.46 1303.58 C 1335.34 1317.45 1329.01 1331.68 1325.62 1344.82 C 1321.05 1354.98 1315.78 1371.42 1311.8 1382.58 C 1304.54 1403.17 1296.74 1423.57 1288.4 1443.75 C 1285.52 1450.66 1251.72 1525.38 1251.63 1526.49 L 1249.8 1528.02 C 1246.59 1528.49 1231.63 1518.47 1227.92 1516.05 C 1197.39 1496.13 1166.13 1482.61 1133.19 1467.73 L 1133.66 1470.56 C 1129.44 1468.78 1128.36 1468.32 1123.73 1467.46 L 1122.4 1466.67 C 1134.49 1439.1 1138.58 1424.21 1146.49 1395.21 L 1147.83 1395.56 C 1162.27 1350.48 1157.56 1278.48 1153.32 1231.81 L 1151.01 1231.01 L 1147.53 1205.69 L 1148.77 1204.51 L 1150.33 1206.16 C 1153.51 1205.64 1170.43 1188.49 1176.64 1184.58 C 1189.83 1176.26 1194.21 1174.77 1208.77 1170.39 C 1207.64 1165.06 1204.91 1154.71 1205.58 1149.76 L 1208.46 1159.33 L 1209.32 1159.46 C 1212.27 1152.3 1221.47 1110.77 1223.4 1101.49 C 1245.73 994.154 1252.68 889.452 1252.02 780.22 C 1251.71 717.261 1243.21 649.661 1235.29 587.282 C 1232.36 564.771 1225.88 536.396 1220.45 514.012 C 1212.86 510.017 1205.46 505.683 1198.27 501.021 C 1155.69 472.916 1134.5 437.626 1124.46 388.248 L 1126.48 386.64 C 1123.89 362.346 1121.95 351.428 1112.01 327.264 C 1098.87 295.33 1070.51 291.289 1056.64 263.705 C 1055.35 261.144 1057.2 255.104 1058.99 252.793 C 1066.12 243.604 1076.14 240.228 1087.25 238.515 C 1088.37 238.651 1103.43 238.98 1105.06 238.978 C 1122.16 241.723 1141.4 250.862 1151.25 265.627 L 1151.66 266.253 C 1153.43 268.891 1155.15 271.016 1156.87 273.842 L 1160.45 279.69 C 1161.04 280.714 1161.64 281.732 1162.26 282.736 L 1164.65 287.171 L 1166.43 285.393 C 1171.4 293.391 1188.01 321.955 1195.39 323.928 C 1197.41 304.238 1206.99 278.487 1209.4 258.445 C 1210.81 246.682 1208.81 226.061 1207.99 213.752 L 1203.62 148.142 C 1202.18 126.402 1193 76.9602 1222.53 70.9413 C 1229.01 69.6436 1235.73 71.0499 1241.15 74.8341 C 1256.64 85.8133 1254.97 112.607 1256.22 129.802 L 1261.95 207.392 C 1262.7 218.199 1263.58 241.447 1265.59 251.095 L 1265.84 252.256 z" fill="rgb(193,123,88)" transform="translate(0,0)"></path>
<path d="M 1220.19 1186.42 C 1270.27 1186.25 1302.67 1227.3 1302.42 1275.41 C 1302.38 1279.01 1302.26 1282.62 1302.04 1286.21 C 1297.13 1322.72 1280.99 1352.31 1251.4 1374.81 C 1226.17 1394.14 1194.24 1402.56 1162.76 1398.18 C 1158.14 1397.52 1151.87 1395.98 1147.83 1395.56 C 1162.27 1350.48 1157.56 1278.48 1153.32 1231.81 C 1170.08 1206.3 1189.74 1191.12 1220.19 1186.42 z" fill="rgb(193,123,88)" transform="translate(0,0)"></path>
<path d="M 1163.41 1269.24 C 1186.55 1234.29 1225.66 1206.87 1263.99 1239 L 1262.66 1241.28 C 1245.78 1231.72 1219.38 1227.11 1205.16 1246.81 C 1202.81 1250.07 1202.69 1256.15 1203.92 1259.89 C 1213.19 1280.13 1223.14 1280.28 1230.92 1304.07 C 1226.82 1298.08 1223.42 1293.79 1218.74 1288.22 C 1208.91 1276.54 1179.93 1258.18 1165.29 1270.39 L 1163.41 1269.24 z" fill="rgb(33,22,20)" transform="translate(0,0)"></path>
<path d="M 1263.99 1239 C 1265.86 1241 1267.69 1243.04 1269.48 1245.12 L 1267.67 1246.47 C 1265.75 1243.75 1265.16 1243.44 1262.66 1241.28 L 1263.99 1239 z" fill="rgb(33,22,20)" transform="translate(0,0)"></path>
<path d="M 1269.48 1245.12 C 1270.04 1246.06 1271.09 1247.39 1270.91 1248.48 C 1270.14 1249.43 1268 1246.77 1267.67 1246.47 L 1269.48 1245.12 z" fill="rgb(100,63,47)" transform="translate(0,0)"></path>
<path d="M 1163.41 1269.24 L 1165.29 1270.39 C 1164.89 1270.78 1162.99 1273.21 1162.23 1272.48 C 1161.95 1271.4 1162.87 1270.19 1163.41 1269.24 z" fill="rgb(75,45,18)" transform="translate(0,0)"></path>
<path d="M 1252.02 780.22 L 1253.69 781.051 L 1254.44 780.756 C 1256.08 798.625 1255.34 827.125 1255.3 845.618 C 1255.1 929.531 1248.63 1013.31 1235.96 1096.26 C 1233.07 1115.55 1229.66 1134.75 1225.73 1153.85 C 1224.31 1161.03 1220.66 1177.09 1220.18 1183.83 L 1220.19 1186.42 C 1189.74 1191.12 1170.08 1206.3 1153.32 1231.81 L 1151.01 1231.01 L 1147.53 1205.69 L 1148.77 1204.51 L 1150.33 1206.16 C 1153.51 1205.64 1170.43 1188.49 1176.64 1184.58 C 1189.83 1176.26 1194.21 1174.77 1208.77 1170.39 C 1207.64 1165.06 1204.91 1154.71 1205.58 1149.76 L 1208.46 1159.33 L 1209.32 1159.46 C 1212.27 1152.3 1221.47 1110.77 1223.4 1101.49 C 1245.73 994.154 1252.68 889.452 1252.02 780.22 z" fill="rgb(33,22,20)" transform="translate(0,0)"></path>
<path d="M 1208.46 1159.33 L 1209.32 1159.46 C 1209.6 1162.95 1208.47 1162.22 1208.46 1159.33 z" fill="rgb(187,177,173)" transform="translate(0,0)"></path>
<path d="M 1265.84 252.256 C 1276.05 228.603 1278.29 200.63 1282.74 174.869 L 1295.72 103.568 C 1297.6 92.7875 1298.97 76.6721 1302.17 67.1187 C 1304.28 60.5985 1308.09 54.7545 1313.19 50.1803 C 1330.07 35.2475 1357.27 43.5252 1357.53 67.0323 C 1357.68 79.8319 1352.27 96.9446 1350.75 110.491 L 1337.56 238.913 C 1338.08 242.247 1337.97 242.196 1339.53 245.087 C 1358.15 196.312 1370.95 144.159 1390.57 95.7554 C 1392.34 91.4027 1396.26 87.9501 1399.95 85.2682 C 1401.6 84.903 1403.05 84.8662 1404.73 84.7462 C 1387.78 96.7856 1387.36 107.716 1381.2 126.632 L 1365.82 173.6 C 1356.3 202.552 1340.53 244.516 1333.09 273.068 C 1332.74 265.45 1333.53 258.198 1334.17 250.618 C 1334.17 249.315 1334.09 249.347 1334.61 248.164 C 1334.99 238.171 1336.72 227.277 1337.73 217.227 C 1341.19 182.812 1344.88 148.379 1348.52 113.986 C 1350.39 96.3087 1355.56 78.2318 1354.56 60.594 C 1354.35 56.9653 1347.86 49.7245 1344.62 48.1937 C 1338.94 44.7348 1331.81 43.3088 1325.21 45.4945 C 1299.7 54.2244 1301.97 82.2885 1297.88 103.521 C 1289.7 145.87 1282.97 188.129 1275.42 230.538 C 1274.58 235.288 1268.89 253.917 1264.17 255.081 C 1262.33 252.34 1262.7 249.245 1262.6 245.783 C 1262.64 243.826 1262.83 243.956 1262.14 242.363 L 1261.66 229.835 C 1261.13 228.709 1261.2 228.682 1261.14 227.385 C 1260.61 215.002 1259.25 202.463 1258.66 189.921 C 1258.69 188.456 1258.83 188.423 1258.26 187.271 C 1257.57 179.166 1257.02 171.049 1256.63 162.924 C 1256 161.696 1256.07 161.849 1256.14 160.388 C 1254.85 141.469 1256.15 93.858 1244.18 80.737 C 1239.69 75.823 1233.7 72.8965 1227.01 72.8308 C 1221.18 72.7737 1215.44 74.9439 1211.44 79.2362 C 1200.42 91.0558 1203.52 112.766 1204.37 127.388 C 1204.35 128.702 1204.26 128.711 1204.83 129.833 L 1205.14 139.918 C 1205.15 142.186 1204.78 144.542 1205.84 146.626 C 1206.58 159.641 1208.01 175.655 1208.31 188.355 C 1208.13 189.755 1208.05 189.715 1208.6 190.993 C 1209.22 200.662 1210 210.734 1210.3 220.39 C 1210.19 221.86 1210.13 221.705 1210.68 222.997 L 1211.36 234.26 C 1211.26 236.198 1211.11 236.847 1211.82 238.643 C 1213.23 265.12 1204.28 288.486 1199.97 314.31 C 1199.29 318.359 1198.36 322.77 1197.34 326.748 L 1195.39 323.928 C 1197.41 304.238 1206.99 278.487 1209.4 258.445 C 1210.81 246.682 1208.81 226.061 1207.99 213.752 L 1203.62 148.142 C 1202.18 126.402 1193 76.9602 1222.53 70.9413 C 1229.01 69.6436 1235.73 71.0499 1241.15 74.8341 C 1256.64 85.8133 1254.97 112.607 1256.22 129.802 L 1261.95 207.392 C 1262.7 218.199 1263.58 241.447 1265.59 251.095 L 1265.84 252.256 z" fill="rgb(100,63,47)" transform="translate(0,0)"></path>
<path d="M 1335.48 255.64 C 1336.11 250.62 1336.78 243.743 1337.56 238.913 C 1338.08 242.247 1337.97 242.196 1339.53 245.087 C 1338.36 249.855 1337.6 250.553 1335.84 254.769 L 1335.48 255.64 z" fill="rgb(223,225,226)" transform="translate(0,0)"></path>
<path d="M 1256.14 160.388 C 1256.79 161.441 1256.63 161.492 1256.63 162.924 C 1256 161.696 1256.07 161.849 1256.14 160.388 z" fill="rgb(136,83,59)" transform="translate(0,0)"></path>
<path d="M 1334.61 248.164 C 1334.62 249.544 1334.77 249.571 1334.17 250.618 C 1334.17 249.315 1334.09 249.347 1334.61 248.164 z" fill="rgb(136,83,59)" transform="translate(0,0)"></path>
<path d="M 1302.04 1286.21 L 1304.23 1283.37 C 1303.06 1314.4 1284.75 1348.67 1261.85 1368.94 C 1231.66 1395.66 1201.42 1406.81 1161.69 1405.03 C 1160.65 1404.98 1159.61 1404.92 1158.57 1404.85 C 1154.53 1426.46 1143.41 1448.36 1133.19 1467.73 L 1133.66 1470.56 C 1129.44 1468.78 1128.36 1468.32 1123.73 1467.46 L 1122.4 1466.67 C 1134.49 1439.1 1138.58 1424.21 1146.49 1395.21 L 1147.83 1395.56 C 1151.87 1395.98 1158.14 1397.52 1162.76 1398.18 C 1194.24 1402.56 1226.17 1394.14 1251.4 1374.81 C 1280.99 1352.31 1297.13 1322.72 1302.04 1286.21 z" fill="rgb(33,22,20)" transform="translate(0,0)"></path>
<path d="M 1164.65 287.171 L 1166.43 285.393 C 1171.4 293.391 1188.01 321.955 1195.39 323.928 L 1197.34 326.748 C 1208.09 328.856 1221.47 335.573 1230.85 340.982 C 1264.98 360.649 1284.99 390.567 1289.17 429.614 C 1288.22 433.785 1287.18 433.85 1286.11 437.333 C 1285.53 427.818 1283.39 418.463 1279.78 409.641 C 1262.72 367.686 1226.4 347.843 1187.56 331.532 C 1177.34 317.482 1171.22 303.086 1164.65 287.171 z" fill="rgb(33,22,20)" transform="translate(0,0)"></path>
<path d="M 1124.46 388.248 L 1126.48 386.64 C 1137.64 437.921 1176.52 485.184 1224.69 506.229 C 1227.39 521.588 1234.2 559.274 1235.39 574.329 C 1235.79 575.035 1235.71 575.135 1235.78 575.987 L 1236.29 581.405 C 1236.76 582.054 1236.67 582.178 1236.75 583.015 L 1237.26 587.898 L 1235.29 587.282 C 1232.36 564.771 1225.88 536.396 1220.45 514.012 C 1212.86 510.017 1205.46 505.683 1198.27 501.021 C 1155.69 472.916 1134.5 437.626 1124.46 388.248 z" fill="rgb(33,22,20)" transform="translate(0,0)"></path>
<path d="M 1235.39 574.329 C 1235.79 575.035 1235.71 575.135 1235.78 575.987 C 1235.36 575.099 1235.4 575.299 1235.39 574.329 z" fill="rgb(100,63,47)" transform="translate(0,0)"></path>
<path d="M 1236.29 581.405 C 1236.76 582.054 1236.67 582.178 1236.75 583.015 C 1236.29 582.204 1236.3 582.298 1236.29 581.405 z" fill="rgb(100,63,47)" transform="translate(0,0)"></path>
<path d="M 1434.25 378.081 L 1436.5 378.804 C 1429.57 438.203 1406.63 487.378 1359.55 524.95 C 1359.44 525.671 1359.33 526.392 1359.22 527.112 L 1357.77 529.529 C 1357.13 526.367 1354.58 519.568 1353.41 516.188 C 1399.71 481.322 1423.26 433.99 1434.25 378.081 z" fill="rgb(33,22,20)" transform="translate(0,0)"></path>
<path d="M 1235.29 587.282 L 1237.26 587.898 C 1241.18 610.45 1243.59 638.412 1246.38 661.399 C 1246.81 662.093 1246.7 662.233 1246.76 663.099 L 1247.26 671.414 C 1247.11 672.83 1247.02 672.754 1247.72 673.924 L 1248.3 682.371 C 1248.18 683.751 1248.09 683.722 1248.74 684.917 L 1249.33 694.344 C 1249.76 695.048 1249.68 695.168 1249.8 696.026 L 1250.29 705.309 C 1251.14 706.804 1250.93 706.824 1250.75 708.624 C 1252.35 732.631 1254.32 756.705 1254.44 780.756 L 1253.69 781.051 L 1252.02 780.22 C 1251.71 717.261 1243.21 649.661 1235.29 587.282 z" fill="rgb(49,34,26)" transform="translate(0,0)"></path>
<path d="M 1250.29 705.309 C 1251.14 706.804 1250.93 706.824 1250.75 708.624 C 1249.89 707.177 1250.09 707.133 1250.29 705.309 z" fill="rgb(100,63,47)" transform="translate(0,0)"></path>
<path d="M 1220.18 1183.83 C 1270.77 1183.89 1304.41 1225.93 1304.93 1274.77 C 1304.95 1277.12 1304.92 1281.16 1304.23 1283.37 L 1302.04 1286.21 C 1302.26 1282.62 1302.38 1279.01 1302.42 1275.41 C 1302.67 1227.3 1270.27 1186.25 1220.19 1186.42 L 1220.18 1183.83 z" fill="rgb(33,22,20)" transform="translate(0,0)"></path>
<path d="M 1403.04 234.134 C 1403.37 235.574 1403.71 237.01 1404.07 238.443 C 1400.11 259.164 1398.03 267.886 1399.3 289.697 C 1402.49 283.269 1406.58 276.339 1409.56 270.088 C 1409.46 272.884 1409.2 273.081 1408.3 275.872 C 1405.12 282.499 1400.59 291.933 1396.78 298.001 C 1389.05 272.847 1394.72 258.887 1403.04 234.134 z" fill="rgb(12,6,5)" transform="translate(0,0)"></path>
<path d="M 1451.65 187.278 L 1453.46 187.903 C 1451.66 193.005 1409.44 275.305 1408.3 275.872 C 1409.2 273.081 1409.46 272.884 1409.56 270.088 C 1411.69 262.398 1445.59 197.207 1451.65 187.278 z" fill="rgb(136,83,59)" transform="translate(0,0)"></path>
<path d="M 1286.11 437.333 C 1287.18 433.85 1288.22 433.785 1289.17 429.614 C 1289.14 441.913 1288.67 444.038 1286.32 456.119 C 1286.07 449.861 1286 443.596 1286.11 437.333 z" fill="rgb(49,34,26)" transform="translate(0,0)"></path>
<path d="M 1205.14 139.918 C 1205.98 143.015 1206.42 143.529 1205.84 146.626 C 1204.78 144.542 1205.15 142.186 1205.14 139.918 z" fill="rgb(172,107,76)" transform="translate(0,0)"></path>
<path d="M 1401.31 803.205 C 1401.99 804.762 1401.86 804.775 1401.7 806.603 C 1400.72 805.158 1401.01 805.1 1401.31 803.205 z" fill="rgb(172,107,76)" transform="translate(0,0)"></path>
<path d="M 1208.31 188.355 C 1209.03 189.301 1208.83 189.767 1208.6 190.993 C 1208.05 189.715 1208.13 189.755 1208.31 188.355 z" fill="rgb(172,107,76)" transform="translate(0,0)"></path>
<path d="M 1211.36 234.26 C 1212.29 236.08 1212.05 236.432 1211.82 238.643 C 1211.11 236.847 1211.26 236.198 1211.36 234.26 z" fill="rgb(136,83,59)" transform="translate(0,0)"></path>
<path d="M 1247.26 671.414 C 1248.01 672.426 1247.82 672.438 1247.72 673.924 C 1247.02 672.754 1247.11 672.83 1247.26 671.414 z" fill="rgb(136,83,59)" transform="translate(0,0)"></path>
<path d="M 1262.14 242.363 C 1262.83 243.956 1262.64 243.826 1262.6 245.783 C 1261.8 244.198 1261.96 244.223 1262.14 242.363 z" fill="rgb(136,83,59)" transform="translate(0,0)"></path>
<path d="M 1258.26 187.271 C 1258.83 188.423 1258.69 188.456 1258.66 189.921 C 1257.98 188.687 1258.08 188.748 1258.26 187.271 z" fill="rgb(136,83,59)" transform="translate(0,0)"></path>
<path d="M 1210.3 220.39 C 1211.07 221.431 1210.86 221.448 1210.68 222.997 C 1210.13 221.705 1210.19 221.86 1210.3 220.39 z" fill="rgb(172,107,76)" transform="translate(0,0)"></path>
<path d="M 1248.3 682.371 C 1248.98 683.427 1248.81 683.447 1248.74 684.917 C 1248.09 683.722 1248.18 683.751 1248.3 682.371 z" fill="rgb(136,83,59)" transform="translate(0,0)"></path>
<path d="M 1398.27 761.346 C 1398.79 762.435 1398.67 762.482 1398.67 763.854 C 1398.01 762.702 1398.12 762.713 1398.27 761.346 z" fill="rgb(136,83,59)" transform="translate(0,0)"></path>
<path d="M 1398.16 1004.82 C 1398.14 1003.38 1398.01 1003.39 1398.58 1002.24 C 1398.55 1003.57 1398.62 1003.64 1398.16 1004.82 z" fill="rgb(136,83,59)" transform="translate(0,0)"></path>
<path d="M 1242.73 164.453 C 1244.02 163.959 1245.55 163.539 1246.82 164.307 C 1246.85 164.428 1246.87 164.549 1246.9 164.67 C 1245.07 166.739 1231.11 167.642 1227.99 167.964 C 1226.94 168.006 1223.08 168.594 1222.99 167.023 C 1223.88 166.087 1240.22 164.675 1242.73 164.453 z" fill="rgb(100,63,47)" transform="translate(0,0)"></path>
<path d="M 1307.75 120.278 C 1313.4 119.741 1330.02 122.348 1335.1 124.672 C 1329.04 125.18 1313.38 122.64 1307.75 120.278 z" fill="rgb(100,63,47)" transform="translate(0,0)"></path>
<path d="M 1243.24 229.593 C 1245.69 229.451 1248.38 228.602 1250.36 229.717 L 1250.58 229.448 C 1252.23 231.665 1237.25 232.112 1235.8 232.103 C 1234.2 232.454 1229.13 234.025 1227.71 232.277 L 1227.86 231.731 C 1229.48 230.678 1240.68 229.914 1243.24 229.593 z" fill="rgb(136,83,59)" transform="translate(0,0)"></path>
<path d="M 1371.55 203.152 C 1377.03 203.301 1390.66 208.323 1395.7 210.908 C 1389.04 210.329 1377.05 206.922 1371.55 203.152 z" fill="rgb(100,63,47)" transform="translate(0,0)"></path>
<path d="M 1442.23 227.755 C 1448.94 228.085 1460.26 233.186 1465.04 237.542 C 1458.23 236.146 1448.71 231.009 1442.23 227.755 z" fill="rgb(136,83,59)" transform="translate(0,0)"></path>
<path d="M 1164.55 320.897 C 1165.12 321.002 1165.31 320.954 1165.74 321.309 C 1165.72 323.485 1153.79 328.196 1151.27 329.172 C 1150.79 329.138 1149.91 329.233 1149.61 328.748 C 1149.94 326.891 1162.42 321.898 1164.55 320.897 z" fill="rgb(136,83,59)" transform="translate(0,0)"></path>
<path d="M 1301.35 182.36 C 1310.38 181.508 1316.86 182.686 1325.5 184.764 C 1318.51 185.106 1307.93 184.81 1301.35 182.36 z" fill="rgb(100,63,47)" transform="translate(0,0)"></path>
<path d="M 1386.8 153.144 C 1392.68 154.244 1402.46 157.734 1408.29 159.891 C 1400.6 160.166 1393.21 157.31 1386.8 153.144 z" fill="rgb(100,63,47)" transform="translate(0,0)"></path>
<path d="M 1431.03 259.9 C 1436.37 260.528 1445.73 265.281 1449.49 268.979 C 1444.27 267.993 1435.74 262.71 1431.03 259.9 z" fill="rgb(100,63,47)" transform="translate(0,0)"></path>
<path d="M 183.056 233.939 C 181.846 206.942 178.438 179.506 176.466 152.506 C 174.679 128.039 172.31 103.344 168.647 79.1049 C 167.049 68.5248 165.08 59.0329 173.103 50.3679 C 177.74 45.3479 184.192 42.3917 191.022 42.1583 C 199.008 41.9334 206.835 45.9208 212.377 51.4905 C 234.163 73.3845 236.665 208.892 254.812 249.241 L 256.266 250.539 L 256.519 249.576 C 258.306 242.501 259.459 221.046 260.122 212.18 L 265.967 127.483 C 267.021 112.385 266.5 87.5087 277.825 77.4603 C 297.789 59.7462 321.055 78.4025 320.705 101.954 C 320.507 115.272 319.583 127.286 318.76 140.139 L 314.355 211.704 C 313.628 223.823 312.22 241.138 312.414 252.962 C 312.594 263.988 318.66 284.481 320.754 296.168 C 322.918 306.193 325.199 314.599 328.015 324.472 C 340.115 312.131 349.655 298.084 358.666 283.406 L 360.238 285.013 C 364.329 276.486 371.753 263.66 379.259 257.697 C 395.892 244.822 400.636 242.194 420.954 238.902 C 425.65 239.003 430.347 239.018 435.043 238.947 C 446.122 240.582 452.781 242.652 460.93 250.571 C 461.826 254.034 463.781 253.139 464.37 258.511 C 465.175 265.853 464.558 266.33 460.687 272.101 C 453.875 281.508 440.562 289.399 431.71 297.494 C 402.325 324.366 401.387 354.562 394.413 389.686 L 396.534 391.297 C 384.007 443.521 350.99 492.749 299.744 513.638 C 296.642 525.277 292.78 538.551 290.215 550.183 C 273.267 617.06 264.602 712.361 263.714 781.301 C 264.036 919.143 270.77 1029.05 307.929 1163.3 C 310.821 1147.37 315.599 1127.84 321.465 1112.73 C 322.279 1118.33 309.773 1157.41 308.234 1170.6 C 330.726 1176.32 345.72 1188.04 361.943 1203.79 C 363.428 1205.23 364.395 1204.89 366.007 1204.56 C 369.041 1198.57 366.823 1190.17 370.826 1184.67 L 372.104 1184.07 C 369.152 1199.08 366.601 1214.16 364.451 1229.29 L 361.35 1229.53 C 358.779 1227.18 353.11 1220.39 349.949 1217.23 C 331.344 1198.65 318.621 1190.24 292.811 1186.68 C 240.211 1187.26 207.751 1230.26 210.46 1280.92 L 209.423 1285.46 L 208.286 1285.88 C 212.027 1321.31 229.865 1353.76 257.784 1375.9 C 287.015 1399.33 320.462 1408.46 357.461 1404.84 C 363.215 1423.44 368.889 1441.26 377.402 1458.8 C 378.553 1461.17 381.374 1466.3 381.531 1468.49 C 346.968 1483.7 298.313 1507.68 267.659 1530.43 C 266.195 1525.05 258.35 1508.78 255.826 1503.33 C 247.491 1485.68 239.364 1467.93 231.447 1450.09 C 210.822 1401.61 192.824 1352.05 177.531 1301.63 L 175.59 1302.37 C 166.982 1275.05 159.222 1247.47 152.323 1219.67 C 103.248 1022.84 98.2672 817.607 137.736 618.633 C 140.213 606.142 156.45 533.727 161.155 525.996 C 155.63 519.876 146.881 512.838 140.963 506.647 C 96.5257 460.153 84.4903 407.802 83.7209 346.496 L 84.9419 344.248 C 81.8857 333.668 75.4745 318.716 71.3718 307.983 L 46.3129 241.771 C 40.6533 226.827 12.8531 172.422 57.7888 176.447 C 67.0525 177.277 84.2325 216.676 88.985 226.488 C 98.5158 245.792 107.933 265.151 117.237 284.566 L 119.235 283.695 L 120.106 285.679 C 129.151 300.328 119.893 233.037 117.1 231.678 C 117.349 231.8 115.626 226.371 115.436 225.778 C 106.934 187.313 93.5581 148.138 86.9603 109.276 C 82.3884 82.3469 123.648 71.8697 132.057 94.1672 C 150.461 142.973 162.838 195.153 181.247 244.042 C 183.721 240.215 182.559 239.263 183.056 233.939 z" fill="rgb(193,123,88)" transform="translate(0,0)"></path>
<path d="M 260.691 788.872 C 261.51 798.122 261.125 814.494 261.562 824.96 L 262.166 825.033 C 263.067 816.411 262.071 786.031 263.714 781.301 C 264.036 919.143 270.77 1029.05 307.929 1163.3 C 310.821 1147.37 315.599 1127.84 321.465 1112.73 C 322.279 1118.33 309.773 1157.41 308.234 1170.6 C 330.726 1176.32 345.72 1188.04 361.943 1203.79 C 363.428 1205.23 364.395 1204.89 366.007 1204.56 C 369.041 1198.57 366.823 1190.17 370.826 1184.67 L 372.104 1184.07 C 369.152 1199.08 366.601 1214.16 364.451 1229.29 L 361.35 1229.53 C 358.779 1227.18 353.11 1220.39 349.949 1217.23 C 331.344 1198.65 318.621 1190.24 292.811 1186.68 L 292.242 1185.67 L 294.837 1184.72 L 296.481 1183.81 C 297.023 1181.52 293.856 1168.81 293.152 1165.74 C 284.348 1127.26 277.905 1088.08 272.486 1048.97 C 263.963 982.876 259.779 916.298 259.961 849.659 C 259.962 830.148 259.638 808.242 260.691 788.872 z" fill="rgb(33,22,20)" transform="translate(0,0)"></path>
<path d="M 183.056 233.939 C 181.846 206.942 178.438 179.506 176.466 152.506 C 174.679 128.039 172.31 103.344 168.647 79.1049 C 167.049 68.5248 165.08 59.0329 173.103 50.3679 C 177.74 45.3479 184.192 42.3917 191.022 42.1583 C 199.008 41.9334 206.835 45.9208 212.377 51.4905 C 234.163 73.3845 236.665 208.892 254.812 249.241 L 253.856 250.117 C 240.071 230.18 234.653 139.11 227.575 110.92 C 221.644 87.2974 226.345 55.6278 197.059 44.869 C 192.798 45.0457 190.199 44.9853 185.945 44.7993 C 179.027 47.9303 176.44 49.4404 171.361 55.4057 C 170.009 60.305 169.292 62.2356 169.256 67.3407 C 169.203 69.0421 169.059 69.191 169.731 70.6313 C 172.987 93.4801 178.83 139.213 179.36 162.384 C 179.252 164.089 179.095 164.204 179.798 165.629 C 180.436 172.876 180.96 180.134 181.371 187.398 C 181.396 188.679 181.327 188.71 181.812 189.841 C 183.047 205.086 185.825 229.331 186.055 243.93 C 186.884 247.009 187.284 247.542 186.856 250.627 L 186.853 258.09 C 186.81 258.015 186.767 257.939 186.726 257.863 C 186.478 257.404 186.084 256.312 185.439 256.061 C 184.83 255.824 183.822 256.464 183.421 256.641 C 181.918 253.97 175.396 233.635 174.077 229.68 C 165.138 202.918 156.48 176.063 148.104 149.12 C 143.258 133.584 138.716 117.987 133.352 102.619 C 126.021 81.6158 107.514 77.1079 92.5634 94.3268 C 91.1454 96.0363 91.1531 95.9791 90.6738 98.1315 C 86.0455 114.932 94.3115 133.852 98.379 150.524 C 104.51 175.656 112.37 200.653 117.673 226.01 L 115.436 225.778 C 106.934 187.313 93.5581 148.138 86.9603 109.276 C 82.3884 82.3469 123.648 71.8697 132.057 94.1672 C 150.461 142.973 162.838 195.153 181.247 244.042 C 183.721 240.215 182.559 239.263 183.056 233.939 z" fill="rgb(100,63,47)" transform="translate(0,0)"></path>
<path d="M 183.056 233.939 C 184.187 238.949 184.776 250.424 185.184 255.969 C 183.99 252.7 181.811 247.279 181.247 244.042 C 183.721 240.215 182.559 239.263 183.056 233.939 z" fill="rgb(255,255,255)" transform="translate(0,0)"></path>
<path d="M 185.945 44.7993 C 191.131 43.9056 191.882 43.9037 197.059 44.869 C 192.798 45.0457 190.199 44.9853 185.945 44.7993 z" fill="rgb(136,83,59)" transform="translate(0,0)"></path>
<path d="M 186.055 243.93 C 186.884 247.009 187.284 247.542 186.856 250.627 C 185.546 248.58 186.066 246.284 186.055 243.93 z" fill="rgb(172,107,76)" transform="translate(0,0)"></path>
<path d="M 358.666 283.406 L 360.238 285.013 C 352.012 303.688 347.544 313.792 336.717 331.153 C 289.285 344.121 232.78 389.238 234.168 442.337 L 232.194 443.9 C 230.411 426.725 233.354 409.389 240.706 393.764 C 256.2 360.095 288.592 338.263 322.449 325.947 C 321.068 316.343 319.518 306.654 318.805 296.986 L 320.754 296.168 C 322.918 306.193 325.199 314.599 328.015 324.472 C 340.115 312.131 349.655 298.084 358.666 283.406 z" fill="rgb(33,22,20)" transform="translate(0,0)"></path>
<path d="M 163.117 525.079 C 139.614 607.08 124.411 691.236 117.735 776.278 C 117.19 777.403 117.314 777.402 117.325 778.807 C 116.778 786.656 116.273 794.509 115.811 802.364 C 115.029 804.208 115.196 804.512 115.318 806.619 L 114.809 819.374 C 114.052 820.912 114.249 820.773 114.308 822.617 C 113.262 862.177 113.258 901.758 114.295 941.318 C 114.152 943.117 113.959 943.183 114.809 944.613 C 115.286 954.074 115.644 963.998 116.363 973.4 C 116.804 974.095 116.699 974.243 116.775 975.109 C 117.189 982.716 117.588 989.661 118.433 997.263 C 118.385 998.616 118.292 998.645 118.814 999.821 C 119.989 1019.54 123.094 1043.5 125.598 1063.28 C 135.653 1144.14 153.035 1223.92 177.531 1301.63 L 175.59 1302.37 C 166.982 1275.05 159.222 1247.47 152.323 1219.67 C 103.248 1022.84 98.2672 817.607 137.736 618.633 C 140.213 606.142 156.45 533.727 161.155 525.996 L 163.117 525.079 z" fill="rgb(100,63,47)" transform="translate(0,0)"></path>
<path d="M 84.9419 344.248 L 85.0263 344.934 C 84.532 350.928 84.4853 354.367 85.9134 360.186 C 88.7465 416.131 113.558 468.695 154.949 506.439 C 158.45 509.593 161.997 512.696 165.589 515.746 L 163.117 525.079 L 161.155 525.996 C 155.63 519.876 146.881 512.838 140.963 506.647 C 96.5257 460.153 84.4903 407.802 83.7209 346.496 L 84.9419 344.248 z" fill="rgb(33,22,20)" transform="translate(0,0)"></path>
<path d="M 394.413 389.686 L 396.534 391.297 C 384.007 443.521 350.99 492.749 299.744 513.638 C 296.642 525.277 292.78 538.551 290.215 550.183 L 287.642 550.019 C 289.556 535.853 293.25 519.713 295.458 504.862 C 344.597 487.498 380.313 438.224 394.413 389.686 z" fill="rgb(33,22,20)" transform="translate(0,0)"></path>
<path d="M 256.266 250.539 L 256.519 249.576 C 258.306 242.501 259.459 221.046 260.122 212.18 L 265.967 127.483 C 267.021 112.385 266.5 87.5087 277.825 77.4603 C 297.789 59.7462 321.055 78.4025 320.705 101.954 C 320.507 115.272 319.583 127.286 318.76 140.139 L 314.355 211.704 C 313.628 223.823 312.22 241.138 312.414 252.962 C 312.594 263.988 318.66 284.481 320.754 296.168 L 318.805 296.986 C 306.742 257.047 311.067 233.288 313.289 192.984 C 313.801 191.683 313.73 191.697 313.643 190.258 C 313.808 180.804 314.645 170.171 315.203 160.639 C 314.762 157.167 315.101 156.309 315.786 152.794 C 315.895 141.224 317.381 125.439 318.142 113.627 C 318.048 110.957 318.134 110.644 318.764 108.019 C 318.659 98.7746 317.15 85.9434 309.949 79.1493 C 301.065 70.7664 286.148 70.2199 278.059 80.4856 C 267.229 94.2295 268.515 114.501 267.452 131.6 C 266.114 152.183 264.9 172.774 263.81 193.371 C 263.274 194.464 263.412 194.559 263.413 195.958 L 262.796 205.374 C 262.257 206.449 262.388 206.516 262.375 207.89 C 261.843 215.256 259.857 250.411 258.019 255.163 C 257.982 252.346 258.672 251.881 256.266 250.539 z" fill="rgb(100,63,47)" transform="translate(0,0)"></path>
<path d="M 315.786 152.794 C 315.811 155.307 316.15 158.388 315.203 160.639 C 314.762 157.167 315.101 156.309 315.786 152.794 z" fill="rgb(136,83,59)" transform="translate(0,0)"></path>
<path d="M 318.764 108.019 C 318.816 110.443 319.162 111.57 318.142 113.627 C 318.048 110.957 318.134 110.644 318.764 108.019 z" fill="rgb(136,83,59)" transform="translate(0,0)"></path>
<path d="M 287.642 550.019 L 290.215 550.183 C 273.267 617.06 264.602 712.361 263.714 781.301 C 262.071 786.031 263.067 816.411 262.166 825.033 L 261.562 824.96 C 261.125 814.494 261.51 798.122 260.691 788.872 C 260.308 783.77 261.032 772.217 261.224 766.659 C 261.028 764.228 260.864 763.423 261.639 761.22 C 261.734 740.009 264.499 712.472 266.334 691.202 C 266.765 690.308 266.771 690.392 266.698 689.408 C 267.213 678.282 270.084 656.589 271.652 645.351 C 275.766 615.854 280.039 578.65 287.642 550.019 z" fill="rgb(49,34,26)" transform="translate(0,0)"></path>
<path d="M 261.224 766.659 C 261.028 764.228 260.864 763.423 261.639 761.22 C 261.903 763.422 262.196 764.634 261.224 766.659 z" fill="rgb(75,45,18)" transform="translate(0,0)"></path>
<path d="M 208.286 1285.88 C 204.829 1235.11 238.832 1178.26 294.837 1184.72 L 292.242 1185.67 L 292.811 1186.68 C 240.211 1187.26 207.751 1230.26 210.46 1280.92 L 209.423 1285.46 L 208.286 1285.88 z" fill="rgb(33,22,20)" transform="translate(0,0)"></path>
<path d="M 115.436 225.778 L 117.673 226.01 C 123.371 246.129 135.619 273.319 126.555 293.191 C 124.329 298.071 121.013 290.439 119.382 288.489 L 120.106 285.679 C 129.151 300.328 119.893 233.037 117.1 231.678 C 117.349 231.8 115.626 226.371 115.436 225.778 z" fill="rgb(12,6,5)" transform="translate(0,0)"></path>
<path d="M 183.421 256.641 C 183.822 256.464 184.83 255.824 185.439 256.061 C 186.084 256.312 186.478 257.404 186.726 257.863 C 186.767 257.939 186.81 258.015 186.853 258.09 C 186.907 259.068 187.97 266.368 186.918 266.276 C 185.724 265.394 184.001 258.416 183.421 256.641 z" fill="rgb(33,22,20)" transform="translate(0,0)"></path>
<path d="M 85.0263 344.934 C 86.7152 349.204 86.1739 355.495 85.9134 360.186 C 84.4853 354.367 84.532 350.928 85.0263 344.934 z" fill="rgb(136,83,59)" transform="translate(0,0)"></path>
<path d="M 234.168 442.337 C 234.516 444.046 235.761 448.802 234.341 450.222 C 232.739 450.065 232.466 445.192 232.194 443.9 L 234.168 442.337 z" fill="rgb(75,45,18)" transform="translate(0,0)"></path>
<path d="M 254.812 249.241 L 256.266 250.539 C 258.672 251.881 257.982 252.346 258.019 255.163 C 255.714 254.086 255.503 252.583 253.856 250.117 L 254.812 249.241 z" fill="rgb(12,6,5)" transform="translate(0,0)"></path>
<path d="M 119.235 283.695 L 120.106 285.679 L 119.382 288.489 C 118.499 287.057 117.96 286.087 117.237 284.566 L 119.235 283.695 z" fill="rgb(136,83,59)" transform="translate(0,0)"></path>
<path d="M 114.295 941.318 C 115.258 942.786 115.035 942.768 114.809 944.613 C 113.959 943.183 114.152 943.117 114.295 941.318 z" fill="rgb(172,107,76)" transform="translate(0,0)"></path>
<path d="M 115.811 802.364 C 116.058 804.47 116.278 804.839 115.318 806.619 C 115.196 804.512 115.029 804.208 115.811 802.364 z" fill="rgb(136,83,59)" transform="translate(0,0)"></path>
<path d="M 313.289 192.984 C 313.155 191.432 312.977 191.419 313.643 190.258 C 313.73 191.697 313.801 191.683 313.289 192.984 z" fill="rgb(172,107,76)" transform="translate(0,0)"></path>
<path d="M 169.256 67.3407 C 170.169 68.8022 169.943 68.8128 169.731 70.6313 C 169.059 69.191 169.203 69.0421 169.256 67.3407 z" fill="rgb(136,83,59)" transform="translate(0,0)"></path>
<path d="M 114.809 819.374 C 114.951 821.153 115.134 821.176 114.308 822.617 C 114.249 820.773 114.052 820.912 114.809 819.374 z" fill="rgb(136,83,59)" transform="translate(0,0)"></path>
<path d="M 92.5634 94.3268 C 92.103 95.748 91.9024 97.2037 90.6738 98.1315 C 91.1531 95.9791 91.1454 96.0363 92.5634 94.3268 z" fill="rgb(136,83,59)" transform="translate(0,0)"></path>
<path d="M 179.36 162.384 C 180.175 163.82 179.959 163.882 179.798 165.629 C 179.095 164.204 179.252 164.089 179.36 162.384 z" fill="rgb(136,83,59)" transform="translate(0,0)"></path>
<path d="M 117.325 778.807 C 117.314 777.402 117.19 777.403 117.735 776.278 C 117.856 777.643 117.974 777.669 117.325 778.807 z" fill="rgb(172,107,76)" transform="translate(0,0)"></path>
<path d="M 266.698 689.408 C 266.771 690.392 266.765 690.308 266.334 691.202 C 266.358 690.309 266.233 690.096 266.698 689.408 z" fill="rgb(136,83,59)" transform="translate(0,0)"></path>
<path d="M 262.796 205.374 C 262.901 206.826 262.985 206.676 262.375 207.89 C 262.388 206.516 262.257 206.449 262.796 205.374 z" fill="rgb(136,83,59)" transform="translate(0,0)"></path>
<path d="M 263.81 193.371 C 263.891 194.755 263.964 194.731 263.413 195.958 C 263.412 194.559 263.274 194.464 263.81 193.371 z" fill="rgb(136,83,59)" transform="translate(0,0)"></path>
<path d="M 118.433 997.263 C 119.004 998.396 118.868 998.388 118.814 999.821 C 118.292 998.645 118.385 998.616 118.433 997.263 z" fill="rgb(136,83,59)" transform="translate(0,0)"></path>
<path d="M 181.371 187.398 C 182.037 188.42 181.876 188.426 181.812 189.841 C 181.327 188.71 181.396 188.679 181.371 187.398 z" fill="rgb(136,83,59)" transform="translate(0,0)"></path>
<path d="M 89.3468 257.743 C 94.7641 259.261 74.3735 267.901 72.4565 268.678 C 71.6564 268.642 71.9115 268.699 71.5576 268.575 C 71.143 266.346 87.0333 258.779 89.3468 257.743 z" fill="rgb(136,83,59)" transform="translate(0,0)"></path>
<path d="M 274.322 165.249 C 279.685 164.825 297.031 164.95 301.398 166.892 C 295.083 168.765 280.789 166.725 274.322 165.249 z" fill="rgb(136,83,59)" transform="translate(0,0)"></path>
<path d="M 204.762 121.403 C 205.735 121.169 206.481 120.988 207.479 120.906 L 210.066 120.662 L 211.001 121.571 C 211.144 121.495 211.288 121.418 211.432 121.342 L 211.456 121.445 C 210.235 123.229 201.237 123.829 199.219 123.829 C 197.188 124.039 190.303 125.583 189.473 124.267 C 189.377 122.334 202.491 121.611 204.762 121.403 z" fill="rgb(136,83,59)" transform="translate(0,0)"></path>
<path d="M 208.775 182.552 C 210.815 182.358 216.945 181.65 218.27 182.407 C 221.122 184.039 206.639 184.724 206.23 184.784 C 204.901 184.906 197.967 185.86 197.498 183.883 C 199.194 182.317 205.962 182.944 208.775 182.552 z" fill="rgb(100,63,47)" transform="translate(0,0)"></path>
<path d="M 75.8507 227.187 C 75.258 231.111 62.1535 235.838 58.5291 237.319 C 58.0992 233.709 72.1516 228.797 75.8507 227.187 z" fill="rgb(100,63,47)" transform="translate(0,0)"></path>
<path d="M 270.236 230.463 C 275.513 229.624 288.987 229.898 293.62 232.6 C 289.14 233.19 274.323 232.067 270.236 230.463 z" fill="rgb(136,83,59)" transform="translate(0,0)"></path>
<path d="M 147.598 201.873 C 148.121 201.944 149.197 201.887 149.376 202.488 C 148.292 204.06 133.22 208.445 130.203 209.393 C 129.371 209.846 128.624 210.179 127.769 209.577 L 127.796 209.062 C 128.882 207.745 144.87 202.783 147.598 201.873 z" fill="rgb(100,63,47)" transform="translate(0,0)"></path>
<path d="M 129.594 152.854 C 130.28 152.805 131.04 152.757 131.702 152.758 C 132.438 152.759 132.639 153.694 132.349 153.83 C 127.589 156.058 121.277 157.738 116.197 159.264 C 115.319 159.53 113.936 160.057 113.349 159.066 C 114.938 157.674 126.84 153.901 129.594 152.854 z" fill="rgb(100,63,47)" transform="translate(0,0)"></path>
<path d="M 363.211 311.921 C 368.888 312.787 378.533 318.039 382.515 321.973 C 377.747 320.854 367.605 314.646 363.211 311.921 z" fill="rgb(100,63,47)" transform="translate(0,0)"></path>
<path d="M 177.531 1301.63 C 192.824 1352.05 210.822 1401.61 231.447 1450.09 C 239.364 1467.93 247.491 1485.68 255.826 1503.33 C 258.35 1508.78 266.195 1525.05 267.659 1530.43 L 268.341 1532.57 C 258.757 1539.54 243.586 1549.86 234.904 1557.2 C 290.401 1656.41 353.972 1750.88 424.972 1839.66 C 446.784 1866.26 469.098 1892.44 491.9 1918.2 C 502.634 1891.64 513.316 1871.29 527.225 1846.56 L 528.29 1848.23 C 523.466 1859.29 517.971 1872.8 512.637 1883.42 C 508.506 1898.95 498.235 1920.6 493.016 1936.92 C 481.197 1973.87 471.694 2010.1 463.473 2048 L 448.493 2048 C 454.232 2012.78 473.486 1963.09 487.191 1929.93 C 459.618 1897.46 425.119 1856.72 400.792 1822.1 C 378.23 1840.95 354.539 1854.88 325.491 1860.91 C 287.826 1868.75 248.589 1861.28 216.446 1840.14 C 185.033 1819.37 162.666 1788.55 155.171 1751.36 C 127.005 1751.74 105.587 1749.14 80.412 1734.26 C 18.8995 1697.87 -1.88574 1614.89 34.3535 1553.59 C 39.978 1539.29 61.367 1517.05 75.8853 1510.15 C 73.406 1504.67 69.9582 1501.04 66.7655 1496.09 C 59.0228 1484.08 51.3304 1464.56 49.7954 1450.24 C 42.4806 1416.17 58.4955 1371.63 83.2592 1347.58 C 112.142 1319.52 139.732 1312.47 178.726 1312.18 L 175.59 1302.37 L 177.531 1301.63 z" fill="rgb(75,45,18)" transform="translate(0,0)"></path>
<path d="M 34.3535 1553.59 C 34.8703 1562.33 30.1213 1583.29 29.6204 1592.51 C 25.2165 1673.56 75.4558 1737.04 155.942 1749.87 C 155.948 1749.87 158.872 1759.4 159.131 1760.14 C 161.751 1769.23 164.703 1776.53 169.039 1785 C 194.43 1833.81 245.524 1863.76 300.511 1862.08 C 326.608 1861.15 351.976 1853.22 373.957 1839.12 C 380.883 1834.77 397.075 1820.97 402.449 1821.59 C 419.169 1843.97 436.436 1865.93 454.236 1887.46 C 457.872 1891.88 489.18 1927.5 488.105 1931.48 C 484.483 1944.91 475.433 1962.45 470.766 1976.14 C 462.441 1998.69 457.4 2021.98 450.541 2044.49 L 462.162 2044.55 C 466.008 2032.18 468.374 2016.85 471.856 2004.15 C 481.37 1969.46 495.557 1914.9 511.493 1883.53 L 512.637 1883.42 C 508.506 1898.95 498.235 1920.6 493.016 1936.92 C 481.197 1973.87 471.694 2010.1 463.473 2048 L 448.493 2048 C 454.232 2012.78 473.486 1963.09 487.191 1929.93 C 459.618 1897.46 425.119 1856.72 400.792 1822.1 C 378.23 1840.95 354.539 1854.88 325.491 1860.91 C 287.826 1868.75 248.589 1861.28 216.446 1840.14 C 185.033 1819.37 162.666 1788.55 155.171 1751.36 C 127.005 1751.74 105.587 1749.14 80.412 1734.26 C 18.8995 1697.87 -1.88574 1614.89 34.3535 1553.59 z" fill="rgb(33,22,20)" transform="translate(0,0)"></path>
<path d="M 49.7954 1450.24 C 50.1182 1447.57 50.1654 1447.26 49.9386 1444.72 L 50.7669 1443.64 L 50.6926 1443.64 L 50.7627 1443.61 L 51.2304 1444.13 L 50.6535 1443.64 L 50.6343 1443.65 L 51.2977 1444.72 C 51.4136 1446.78 51.1074 1448.5 51.1534 1450.37 L 51.24 1450.44 C 52.1157 1450.29 52.4543 1449.51 53.4406 1449.45 C 53.8685 1449.96 53.4969 1449.47 53.9053 1450.98 C 59.2089 1470.59 73.3884 1491.96 87.719 1506.14 C 85.9603 1507.08 77.3394 1511.75 75.8822 1511.16 C 75.7683 1510.79 75.8118 1511.07 75.8853 1510.15 C 73.406 1504.67 69.9582 1501.04 66.7655 1496.09 C 59.0228 1484.08 51.3304 1464.56 49.7954 1450.24 z" fill="rgb(33,22,20)" transform="translate(0,0)"></path>
<path d="M 1338.46 1303.58 L 1340.11 1304.97 L 1340.06 1307.85 C 1344.39 1310.08 1368.42 1311.82 1375.52 1313.8 C 1448.07 1334.04 1492.87 1417.1 1456.65 1486.15 C 1453.75 1491.7 1450.38 1496.99 1446.57 1501.95 C 1444.34 1504.83 1441.35 1506.8 1441.8 1510.08 L 1444.05 1512.86 C 1455.53 1516.59 1474.73 1544.5 1480.06 1555.05 C 1496.58 1588.45 1499.3 1627.01 1487.65 1662.4 C 1476.9 1695.51 1453.32 1722.93 1422.19 1738.51 C 1400.64 1749.16 1384.69 1750.65 1361.63 1752.06 C 1350.14 1792.81 1327.66 1825.12 1290.25 1846.05 C 1255.62 1865.04 1214.87 1869.51 1176.96 1858.46 C 1153.08 1851.61 1135.32 1839.31 1115.88 1824.37 C 1092.54 1856 1059.01 1901.71 1032 1929.57 C 1049.19 1971.66 1059.28 2003.77 1070.32 2048 L 1054.53 2048 C 1040.29 1975.23 1021.92 1915.39 990.877 1848.05 L 991.825 1846.43 C 1003.7 1866.02 1017.02 1893.97 1026.22 1914.61 C 1050.38 1889.68 1071.61 1863.56 1093.42 1836.64 C 1164.27 1749.09 1227.21 1655.42 1281.48 1556.73 C 1273.83 1550.14 1262.12 1541.9 1253.76 1535.58 C 1253.29 1531.74 1250.74 1532.58 1251.63 1526.49 C 1251.72 1525.38 1285.52 1450.66 1288.4 1443.75 C 1296.74 1423.57 1304.54 1403.17 1311.8 1382.58 C 1315.78 1371.42 1321.05 1354.98 1325.62 1344.82 C 1329.01 1331.68 1335.34 1317.45 1338.46 1303.58 z" fill="url(#Gradient1)" transform="translate(0,0)"></path>
<path d="M 1338.46 1303.58 L 1340.11 1304.97 L 1340.06 1307.85 C 1344.39 1310.08 1368.42 1311.82 1375.52 1313.8 C 1448.07 1334.04 1492.87 1417.1 1456.65 1486.15 C 1453.75 1491.7 1450.38 1496.99 1446.57 1501.95 C 1444.34 1504.83 1441.35 1506.8 1441.8 1510.08 L 1444.05 1512.86 C 1440.28 1511.93 1429.72 1505.95 1425.85 1503.8 C 1481.53 1446.73 1464.31 1364 1392.28 1330.93 C 1373.66 1322.37 1355.99 1319.73 1335.79 1318.45 C 1334.16 1323.77 1329.17 1342.01 1325.62 1344.82 C 1329.01 1331.68 1335.34 1317.45 1338.46 1303.58 z" fill="rgb(33,22,20)" transform="translate(0,0)"></path>
<path d="M 321.465 1112.73 C 323.302 1104.17 332.848 1081.63 336.361 1073.69 C 363.911 1010.09 406.007 953.835 459.263 909.467 C 525.544 854.637 606.82 821.069 692.476 813.146 C 709.978 811.473 733.498 810.268 751.024 811.859 C 754.342 811.603 759.27 811.509 762.524 811.826 C 767.75 812.383 780.974 812.06 783.804 812.591 C 783.764 815.274 785.569 813.91 784.257 817.535 C 773.696 816.232 764.578 815.59 754.124 814.665 C 727.037 819.315 710.002 822.398 682.998 828.268 C 681.521 828.904 681.974 828.733 680.522 829.119 C 663.563 833.636 647.923 839.974 631.646 845.989 C 597.273 861.928 574.157 873.683 543.403 896.866 C 535.18 903.064 512.775 923.742 506.997 927.456 C 504.008 930.758 501.713 932.976 498.42 935.926 C 462.026 976.386 435.609 1008.87 412.379 1059.52 C 405.282 1074.99 399.71 1090.96 392.938 1105.94 C 384.371 1132.9 377.803 1156.13 372.104 1184.07 L 370.826 1184.67 C 366.823 1190.17 369.041 1198.57 366.007 1204.56 C 364.395 1204.89 363.428 1205.23 361.943 1203.79 C 345.72 1188.04 330.726 1176.32 308.234 1170.6 C 309.773 1157.41 322.279 1118.33 321.465 1112.73 z" fill="rgb(75,45,18)" transform="translate(0,0)"></path>
<path d="M 370.826 1184.67 C 368.577 1178.99 387.665 1113.03 391.528 1104.92 L 392.938 1105.94 C 384.371 1132.9 377.803 1156.13 372.104 1184.07 L 370.826 1184.67 z" fill="rgb(33,22,20)" transform="translate(0,0)"></path>
<path d="M 751.024 811.859 C 754.342 811.603 759.27 811.509 762.524 811.826 C 767.75 812.383 780.974 812.06 783.804 812.591 C 783.764 815.274 785.569 813.91 784.257 817.535 C 773.696 816.232 764.578 815.59 754.124 814.665 C 749.282 811.851 741.505 813.739 735.24 812.836 L 735.327 812.765 C 735.215 812.74 735.103 812.714 734.991 812.689 L 735.003 812.616 C 739.612 812.005 744.773 812.698 751.024 811.859 z" fill="rgb(33,22,20)" transform="translate(0,0)"></path>
<path d="M 631.646 845.989 C 631.312 842.397 648.717 836.01 651.512 835.928 C 657.952 835.738 679.966 825.149 682.998 828.268 C 681.521 828.904 681.974 828.733 680.522 829.119 C 663.563 833.636 647.923 839.974 631.646 845.989 z" fill="rgb(33,22,20)" transform="translate(0,0)"></path>
<path d="M 498.42 935.926 C 500.397 929.547 500.859 929.226 506.997 927.456 C 504.008 930.758 501.713 932.976 498.42 935.926 z" fill="rgb(33,22,20)" transform="translate(0,0)"></path>
<path d="M 762.524 811.826 C 786.451 809.859 817.272 812.09 841.042 815.519 C 926.795 827.894 997.225 859.578 1062.92 915.313 C 1123.38 967.511 1168.68 1035.02 1194.04 1110.76 C 1196.92 1119.24 1204.15 1141.22 1205.58 1149.76 C 1204.91 1154.71 1207.64 1165.06 1208.77 1170.39 C 1194.21 1174.77 1189.83 1176.26 1176.64 1184.58 C 1170.43 1188.49 1153.51 1205.64 1150.33 1206.16 L 1148.77 1204.51 L 1147.53 1205.69 C 1146.27 1202.85 1143.79 1186.91 1143.05 1182.87 C 1137.65 1153.76 1128.9 1125.31 1119.63 1097.21 C 1115.51 1087.28 1111.73 1077.4 1107.48 1067.32 C 1103.04 1059.64 1099 1050.43 1095.02 1042.47 C 1066.01 984.514 1022.35 935.002 971.145 895.606 C 961.859 888.461 949.818 881.255 939.837 874.545 C 884.629 843.162 847.619 829.77 785.851 817.627 L 784.257 817.535 C 785.569 813.91 783.764 815.274 783.804 812.591 C 780.974 812.06 767.75 812.383 762.524 811.826 z" fill="rgb(75,45,18)" transform="translate(0,0)"></path>
<path d="M 785.851 817.627 C 803.527 810.504 937.836 862.181 939.837 874.545 C 884.629 843.162 847.619 829.77 785.851 817.627 z" fill="rgb(33,22,20)" transform="translate(0,0)"></path>
<path d="M 1107.48 1067.32 C 1112.61 1069.95 1121.18 1089.88 1119.63 1097.21 C 1115.51 1087.28 1111.73 1077.4 1107.48 1067.32 z" fill="rgb(33,22,20)" transform="translate(0,0)"></path>
<path d="M 1359.22 527.112 C 1418.41 738.308 1419.88 982.432 1370.37 1195.67 C 1364.33 1221.8 1357.53 1247.76 1349.98 1273.49 C 1347.7 1281.3 1343.13 1298.04 1340.11 1304.97 L 1338.46 1303.58 C 1342.91 1291.21 1347.47 1274.34 1351.21 1261.54 C 1369.5 1198.42 1382.83 1133.97 1391.08 1068.77 C 1393.25 1052.07 1396.16 1031.68 1397.16 1015.02 C 1397.24 1014.11 1397.17 1014.03 1397.53 1013.31 L 1398.16 1004.82 C 1398.62 1003.64 1398.55 1003.57 1398.58 1002.24 C 1399.3 988.365 1400.16 974.495 1401.15 960.635 C 1400.88 957.671 1401.17 957.2 1401.89 954.221 C 1401.71 950.463 1402.03 944.572 1402.14 940.628 C 1401.67 937.508 1402.04 937.045 1402.87 933.925 C 1404.21 887.151 1403.19 852.998 1401.7 806.603 C 1401.86 804.775 1401.99 804.762 1401.31 803.205 C 1400.32 790.095 1399.44 776.978 1398.67 763.854 C 1398.67 762.482 1398.79 762.435 1398.27 761.346 C 1392.48 682.924 1378.91 605.271 1357.77 529.529 L 1359.22 527.112 z" fill="rgb(100,63,47)" transform="translate(0,0)"></path>
<path d="M 1402.87 933.925 C 1402.85 936.194 1403.19 938.545 1402.14 940.628 C 1401.67 937.508 1402.04 937.045 1402.87 933.925 z" fill="rgb(172,107,76)" transform="translate(0,0)"></path>
<path d="M 1401.89 954.221 C 1401.84 956.406 1402.06 958.601 1401.15 960.635 C 1400.88 957.671 1401.17 957.2 1401.89 954.221 z" fill="rgb(136,83,59)" transform="translate(0,0)"></path>
<path d="M 83.7209 346.496 C 72.3938 313.493 58.0156 280.716 46.3475 247.714 C 41.2334 233.249 34.9637 219.665 30.7615 204.627 C 23.9528 180.263 53.1151 161.268 68.9918 183.3 C 81.2446 202.167 90.4175 225.024 100.748 245.129 C 107.184 257.656 113.533 270.971 119.235 283.695 L 117.237 284.566 C 107.933 265.151 98.5158 245.792 88.985 226.488 C 84.2325 216.676 67.0525 177.277 57.7888 176.447 C 12.8531 172.422 40.6533 226.827 46.3129 241.771 L 71.3718 307.983 C 75.4745 318.716 81.8857 333.668 84.9419 344.248 L 83.7209 346.496 z" fill="rgb(100,63,47)" transform="translate(0,0)"></path>
<path d="M 1124.46 388.248 C 1121.01 354.771 1116.31 326.154 1090.52 301.503 C 1082.8 294.003 1073.32 287.891 1065.75 280.302 C 1035.47 249.943 1074.65 233.27 1101.86 236.415 C 1123.45 238.911 1139.74 248.035 1153.41 264.554 L 1151.25 265.627 C 1141.4 250.862 1122.16 241.723 1105.06 238.978 C 1103.43 238.98 1088.37 238.651 1087.25 238.515 C 1076.14 240.228 1066.12 243.604 1058.99 252.793 C 1057.2 255.104 1055.35 261.144 1056.64 263.705 C 1070.51 291.289 1098.87 295.33 1112.01 327.264 C 1121.95 351.428 1123.89 362.346 1126.48 386.64 L 1124.46 388.248 z" fill="rgb(75,45,18)" transform="translate(0,0)"></path>
<path d="M 1087.25 238.515 C 1090.77 237.038 1101.09 238.041 1105.06 238.978 C 1103.43 238.98 1088.37 238.651 1087.25 238.515 z" fill="rgb(136,83,59)" transform="translate(0,0)"></path>
<path d="M 1490.01 209.637 L 1491.43 211.238 C 1478.88 241.548 1466.65 271.989 1454.75 302.557 C 1450.07 314.493 1442.14 333.399 1438.92 345.049 C 1437.62 349.721 1437.43 370.826 1436.5 378.804 L 1434.25 378.081 L 1435.32 368.587 C 1435.12 366.816 1434.89 366.797 1435.79 365.394 C 1435.84 338.589 1443.75 326.293 1453.3 301.853 C 1465.28 271.014 1477.52 240.274 1490.01 209.637 z" fill="rgb(33,22,20)" transform="translate(0,0)"></path>
<path d="M 1435.79 365.394 C 1436.07 367.268 1436.32 367.187 1435.32 368.587 C 1435.12 366.816 1434.89 366.797 1435.79 365.394 z" fill="rgb(136,83,59)" transform="translate(0,0)"></path>
<path d="M 460.687 272.101 L 463.619 271.288 L 462.97 272.182 C 455.488 282.342 442.975 289.773 433.906 298.372 C 401.628 328.976 403.333 354.577 396.534 391.297 L 394.413 389.686 C 401.387 354.562 402.325 324.366 431.71 297.494 C 440.562 289.399 453.875 281.508 460.687 272.101 z" fill="rgb(49,34,26)" transform="translate(0,0)"></path>
<path d="M 1430.74 92.0108 C 1436.95 101.316 1436.99 109.611 1434.66 120.354 C 1428.75 147.707 1417.58 179.381 1412.51 206.534 L 1410.87 204.438 C 1414.8 184.765 1421.19 165.039 1425.92 145.537 C 1430.19 127.91 1440.27 107.767 1427.34 91.9302 L 1430.74 92.0108 z" fill="rgb(136,83,59)" transform="translate(0,0)"></path>
<path d="M 382.618 252.371 C 401.664 233.244 441.25 230.523 462.291 248.831 L 460.93 250.571 C 452.781 242.652 446.122 240.582 435.043 238.947 C 430.347 239.018 425.65 239.003 420.954 238.902 C 400.636 242.194 395.892 244.822 379.259 257.697 C 380.922 255.628 381.84 254.964 382.618 252.371 z" fill="rgb(100,63,47)" transform="translate(0,0)"></path>
<path d="M 420.954 238.902 C 426.984 237.858 429.056 237.859 435.043 238.947 C 430.347 239.018 425.65 239.003 420.954 238.902 z" fill="rgb(136,83,59)" transform="translate(0,0)"></path>
<path d="M 1451.65 187.278 C 1461.36 170.696 1479.12 168.939 1490.72 184.304 L 1488.66 184.814 C 1477.55 170.839 1462.52 173.417 1453.46 187.903 L 1451.65 187.278 z" fill="rgb(33,22,20)" transform="translate(0,0)"></path>
<path d="M 382.618 252.371 C 381.84 254.964 380.922 255.628 379.259 257.697 C 371.753 263.66 364.329 276.486 360.238 285.013 L 358.666 283.406 C 365.628 270.774 370.679 261.432 382.618 252.371 z" fill="rgb(49,34,26)" transform="translate(0,0)"></path>
<path d="M 1490.72 184.304 C 1495.59 194.691 1494.21 200.695 1491.43 211.238 L 1490.01 209.637 C 1492.43 197.487 1492.07 195.759 1488.66 184.814 L 1490.72 184.304 z" fill="rgb(136,83,59)" transform="translate(0,0)"></path>
<path d="M 1410.87 204.438 L 1412.51 206.534 C 1409.55 215.649 1406.55 228.806 1404.07 238.443 C 1403.71 237.01 1403.37 235.574 1403.04 234.134 C 1405.82 224.227 1408.72 214.506 1410.87 204.438 z" fill="rgb(33,22,20)" transform="translate(0,0)"></path>
<path d="M 1399.95 85.2682 C 1412.58 78.716 1421.24 82.1786 1430.74 92.0108 L 1427.34 91.9302 C 1423.72 84.7589 1411.96 82.8224 1404.73 84.7462 C 1403.05 84.8662 1401.6 84.903 1399.95 85.2682 z" fill="rgb(75,45,18)" transform="translate(0,0)"></path>
<path d="M 1153.41 264.554 C 1157.21 269.12 1160.99 275.439 1163.86 280.669 L 1162.26 282.736 C 1161.64 281.732 1161.04 280.714 1160.45 279.69 L 1156.87 273.842 C 1155.15 271.016 1153.43 268.891 1151.66 266.253 L 1151.25 265.627 L 1153.41 264.554 z" fill="rgb(136,83,59)" transform="translate(0,0)"></path>
<path d="M 462.291 248.831 C 465.78 254.382 465.71 255.295 467.53 261.532 C 466.206 265.492 466.083 267.898 463.619 271.288 L 460.687 272.101 C 464.558 266.33 465.175 265.853 464.37 258.511 C 463.781 253.139 461.826 254.034 460.93 250.571 L 462.291 248.831 z" fill="rgb(136,83,59)" transform="translate(0,0)"></path>
<path d="M 1163.86 280.669 C 1164.7 282.289 1165.55 283.801 1166.43 285.393 L 1164.65 287.171 L 1162.26 282.736 L 1163.86 280.669 z" fill="rgb(33,22,20)" transform="translate(0,0)"></path>
<metadata><recraft-signature>{"signed_by": "recraft", "signature_b64": "QB1Cisp7zR9Yz7DCqopc4064+AutvBiECAfZ9Zi3qZXGkjwkL2Mg3Eb5AaFbzhhjdmfPNbaceLDWytfsgy3pDQ==", "signing_algo": "Ed25519", "generation_timestamp": 1779092373, "identifier": "c166f520-2e8c-4aca-aff9-6921a4c66f44"}</recraft-signature></metadata></svg>