<svg xmlns="http://www.w3.org/2000/svg" height="1280" preserveAspectRatio="none" style="display: block;" version="1.1" viewBox="0 0 1331 2048" width="832">
<path d="M 0 0 L 1331 0 L 1331 2048 L 0 2048 L 0 0 z" fill="rgb(255,255,255)" transform="translate(0,0)"></path>
<path d="M 457.334 331.68 C 466.915 331.366 473.491 333.047 481.176 326.631 C 486.93 321.827 490.085 314.093 490.427 306.896 C 492.82 281.254 477.033 272.799 463.201 256.614 C 435.024 223.642 445.829 163.312 484.335 142.733 C 491.613 138.843 500.516 133.583 505.287 127.185 C 511.183 119.277 511.673 107.928 516.036 99.1748 C 533.691 64.7399 576.319 55.097 611.735 62.1605 C 627.887 65.3818 638.603 66.6925 653.244 58.3458 C 683.206 41.2638 718.455 45.7818 740.182 73.37 C 751.157 74.6462 754.108 74.1796 764.449 80.2467 C 777.311 87.7384 786.663 100.041 790.441 114.439 C 796.225 137.04 787.542 153.861 764.58 159.32 C 763.574 184.248 763.401 202.486 764.017 227.339 C 771.786 237.226 781.75 242.302 789.543 251.389 C 800.48 264.142 781.547 280.502 771.877 287.076 C 771.347 314.936 769.127 361.026 739.518 373.606 C 727.21 378.835 691.782 380.089 679.331 374.733 C 675.404 381.577 672.058 388.738 669.328 396.141 C 664.554 410.074 660.108 422.695 657.582 437.298 C 670.906 457.601 679.981 476.725 685.806 500.392 C 687.956 509.131 690.436 524.976 693.281 532.559 C 705.132 564.149 721.489 593.681 738.982 622.309 C 726.563 636.672 713.478 650.445 699.77 663.583 C 701.899 669.399 702.71 675.789 703.727 681.922 C 736.013 691.676 799.777 727.916 829.381 746.851 C 853.905 727.402 885.619 705.879 911.436 687.409 L 1048.2 589.223 L 1145.6 519.093 C 1158.07 510.084 1184.93 489.708 1196.55 482.822 C 1197.76 476.243 1198.42 472.206 1201.44 466.223 C 1214.4 440.581 1250.82 439.137 1265.93 463.628 C 1271.45 472.56 1273.94 482.376 1271.57 492.963 C 1269.39 502.717 1263.4 511.194 1254.93 516.503 C 1246.22 521.915 1238.1 522.519 1228.1 522.883 L 1206.13 538.821 L 1206.01 1235.56 C 1210.75 1235.53 1222.62 1236.07 1227.3 1235.49 C 1263.07 1231.04 1286.28 1263.89 1261.12 1292.54 C 1255.29 1299.18 1245.92 1301.12 1236.43 1301.48 C 1236.7 1357.64 1243.75 1407.97 1200.53 1451.22 C 1186.16 1465.59 1173.85 1473.51 1157.39 1485.34 L 1105.69 1522.56 L 909.513 1665.22 L 627.502 1870.3 L 556.153 1921.94 C 508.955 1956.57 491.885 1973.85 430.886 1973.99 L 195.832 1973.94 L 125.528 1973.97 C 108.587 1973.96 83.214 1977.3 70.7354 1964.92 C 64.4445 1958.58 61.0045 1949.96 61.2085 1941.04 C 61.8015 1903.01 100.945 1908.85 126.86 1909.13 L 126.729 1524.66 L 126.787 1402.11 C 126.802 1380.06 127.403 1354.35 126.461 1332.51 C 116.019 1354.09 96.7674 1366.55 73.3085 1355.05 C 64.3671 1350.59 57.6145 1342.69 54.5901 1333.17 C 51.2553 1323.16 52.158 1312.23 57.0885 1302.91 C 61.7101 1294.11 69.7004 1287.56 79.2355 1284.75 C 87.8992 1282.26 92.4609 1283.04 101.285 1284.38 C 189.188 1222.19 276.708 1159.46 363.842 1096.2 C 386.771 1079.84 410.588 1061.84 433.627 1046.02 C 431.456 1039.78 428.046 989.169 427.135 978.815 C 417.497 975.557 407.033 972.657 400.557 964.521 C 385.972 946.928 402.623 887.09 407.194 865.402 C 392.922 885.467 384.049 902.391 372.715 924.027 C 373.223 926.153 373.704 928.285 374.158 930.423 C 377.159 944.599 378.817 959.229 379.614 973.689 C 380.517 990.092 380.587 1058.24 372.055 1070.16 C 370.568 1072.24 368.312 1073.92 365.691 1074.08 C 363.1 1074.24 360.387 1073.13 358.458 1071.44 C 348.651 1062.85 350.027 1031.37 348.66 1018.64 C 331.306 1034.47 320.884 1060.37 309.583 1081.09 C 306.191 1087.31 303.272 1095.9 299.542 1102.12 C 298.433 1103.97 297.197 1105.2 295.17 1106.13 C 292.044 1107.55 290.204 1108.6 286.68 1109 C 280.103 1109.74 276.545 1101.03 273.273 1099.26 C 268.977 1096.95 259.365 1098.75 254.547 1093.98 C 248.373 1087.86 250.343 1081.73 250.184 1074.01 C 250.078 1068.85 237.416 1072.78 231.962 1066.24 C 224.129 1056.85 232.302 1049.38 230.824 1041.4 C 230.648 1040.45 222.528 1033.29 223.481 1027 C 229.32 988.491 284.624 927.296 311.377 903.003 C 324.307 818.904 353.197 716.307 412.696 653.778 C 397.791 643.772 389.091 634.356 380.951 618.489 C 391.637 582.811 428.487 560.686 449.431 532.066 C 452.383 528.031 457.219 510.796 458.726 505.225 C 470.73 460.834 495.48 427.392 534.323 402.81 C 537.157 401.017 549.648 394.599 551.351 392.627 C 560.829 381.658 568.178 366.426 575.113 353.543 C 568.731 356.444 561.976 358.44 555.042 359.476 C 535.79 362.266 521.584 356.169 506.477 344.932 C 486.804 344.363 475.037 339.326 457.334 331.68 z" fill="rgb(1,1,1)" transform="translate(0,0)"></path>
<path d="M 961.058 1301.21 L 1233.49 1301.51 C 1232.08 1332.94 1236.83 1369.46 1227.86 1399.24 C 1221.39 1420.82 1209.03 1440.17 1192.17 1455.11 C 1183.66 1462.76 1170.96 1471.49 1161.55 1478.31 L 1106.64 1517.79 L 917.276 1655.38 L 634.213 1861.29 L 556.132 1917.99 C 538.781 1930.65 518.362 1946.73 499.787 1956.7 C 464.716 1974.51 431.489 1970.92 393.543 1970.91 L 282.062 1970.89 L 282.006 1766.82 C 354.72 1765.76 427.611 1766.82 500.341 1766.88 C 518.513 1766.9 611.468 1769.23 622.742 1764.6 C 630.686 1761.34 636.531 1754.49 639.64 1746.61 C 642.884 1738.4 643.098 1728.59 639.516 1720.44 C 635.273 1710.79 627.504 1705.45 617.956 1701.84 L 617.318 1535.16 L 935.059 1535.76 C 957.757 1535.71 974.619 1528.56 975.018 1501.45 C 975.19 1489.8 969.393 1481.44 960.936 1473.7 L 961.058 1301.21 z" fill="rgb(224,213,189)" transform="translate(0,0)"></path>
<path d="M 905.73 755.254 L 1150.64 578.694 L 1150.24 1235.49 L 1010.17 1235.35 C 998.904 1235.39 987.47 1235.24 976.216 1235.51 C 961.571 1235.87 945.825 1233.31 934.527 1244.48 C 927.962 1251.01 924.291 1259.91 924.335 1269.18 C 924.562 1288.21 939.793 1300.1 957.804 1301.52 L 957.359 1471.88 C 946.328 1469.03 938.38 1469.57 927.187 1469.86 C 937.016 1464.65 945.987 1459.1 949.54 1447.88 C 953.018 1436.88 950.587 1421.98 945.279 1411.92 C 932.818 1388.3 821.305 1359.29 814.494 1346.86 C 813.432 1344.92 813.678 1341.11 813.681 1338.96 C 815.748 1339.53 817.828 1340.05 819.921 1340.52 C 830.488 1342.82 838.458 1342.99 847.576 1337.1 C 857.09 1326.24 862.161 1297.05 865.997 1281.98 C 871.03 1262.19 876.946 1242.63 883.729 1223.37 C 891.835 1200.56 902.348 1179.52 910.992 1157.36 C 923.469 1125.37 937.307 1092.29 946.153 1059.38 C 954.602 1027.95 943.218 987.286 917.748 966.441 C 893.064 946.239 852.918 931.491 823.182 918.591 C 797.484 907.724 772.018 896.314 746.802 884.371 C 771.492 865.896 810.084 837.545 835.406 820.92 C 859.666 847.853 882.578 842.439 915.349 840.32 C 922.739 839.843 931.674 840.232 939.169 840.474 C 946.549 855.97 953.715 873.171 974.942 864.773 C 976.886 864.004 979.628 860.457 980.957 858.839 C 986.846 857.036 999.066 866.965 1007.6 853.373 C 1010.35 851.135 1005.63 839.384 1006.5 838.452 C 1009.28 835.49 1015.8 823.726 1011.6 819.447 C 1006.2 813.934 1007.61 799.836 1006.37 797.547 C 997.251 780.664 974.137 769.462 957.002 762.102 C 938.655 754.484 924.168 754.246 905.73 755.254 z" fill="rgb(255,255,255)" transform="translate(0,0)"></path>
<path d="M 647.069 950.336 L 670.579 939.449 C 654.723 993.761 643.501 1057.6 633.87 1113.51 C 622.548 1179.25 608.81 1231.44 584.629 1293.68 C 553.399 1374.07 522.39 1456.03 499.984 1539.35 C 498.783 1543.97 495.618 1551.4 491.762 1554.41 C 483.979 1550.5 477.373 1541.91 468.417 1538.13 C 424.84 1519.74 378.513 1502.62 332.95 1489.87 C 324.176 1487.42 312.258 1487.18 303.608 1488.99 L 302.546 1488.32 C 305.334 1479.84 319.632 1459.77 325.371 1451.75 C 357.407 1406.97 374.005 1355.69 402.688 1309.23 C 413.71 1291.38 398.656 1265.51 406.288 1246.89 C 409.19 1238.83 424.487 1232.81 432.642 1225.14 C 439.699 1229.77 471.52 1251.59 476.935 1252.21 C 474.985 1247.4 441.213 1226.56 434.162 1222.2 C 437.566 1203.36 427.051 1180.4 427.147 1160.76 C 427.206 1148.71 437.665 1135.92 439.435 1127.1 C 443.331 1107.7 438.965 1067.31 436.2 1046.91 C 435.479 1024.24 431.706 998.062 430.595 974.346 C 458.429 951.829 504.01 939.358 538.424 948.691 C 582.891 960.749 601.646 967.538 647.069 950.336 z" fill="rgb(168,121,103)" transform="translate(0,0)"></path>
<path d="M 533.616 1303.71 L 534.68 1304.84 C 535.655 1309.98 525.921 1322.93 522.688 1327.47 C 488.758 1375.15 446.211 1414.56 398.605 1448.28 L 397.439 1447.14 C 397.423 1442.9 402.984 1440.88 406.242 1438.56 C 455.758 1403.3 502.392 1355.93 533.616 1303.71 z" fill="rgb(1,1,1)" transform="translate(0,0)"></path>
<path d="M 182.211 1293.11 C 222.599 1265.72 265.306 1233.55 305.026 1204.95 C 348.597 1173.57 396.089 1141.08 438.583 1108.76 C 437.5 1136.59 427.19 1137.86 423.795 1161.61 C 422.009 1174.11 435.668 1207.44 430.06 1221.06 C 425.193 1232.89 404.972 1234.16 401.78 1248.16 C 397.969 1264.88 405.483 1281.72 402.494 1299.23 C 400.608 1314.73 386.864 1326.6 380.934 1339.83 C 364.273 1377 347.203 1412.67 324.826 1446.87 C 319.018 1455.75 301.069 1478.35 298.865 1487.01 C 292.046 1513.78 331.403 1529.05 351.05 1534.73 L 344.056 1558.96 C 330.371 1556.44 326.206 1559.87 321.095 1572.72 C 316.293 1585.32 314.02 1599.67 310.73 1612.61 C 303.514 1641 292.323 1670.36 324.388 1687.01 C 362.257 1706.67 392.728 1692.22 431.748 1699.32 C 435.124 1699.7 436.739 1699.59 439.621 1701.4 C 435.338 1702.29 386.208 1702.47 378.621 1702.19 C 346.517 1701.01 306.198 1703.87 274.946 1701.87 C 240.481 1706.02 236.475 1760.95 278.662 1766.56 L 278.775 1909.12 L 182.059 1909.11 L 182.211 1293.11 z" fill="rgb(255,255,255)" transform="translate(0,0)"></path>
<path d="M 431.748 1699.32 C 435.124 1699.7 436.739 1699.59 439.621 1701.4 C 435.338 1702.29 386.208 1702.47 378.621 1702.19 C 346.517 1701.01 306.198 1703.87 274.946 1701.87 C 280.098 1700.73 303.29 1701.12 309.754 1701.13 L 389.418 1701.23 C 399.467 1701.23 421.757 1701.8 430.992 1700.65 L 431.748 1699.32 z" fill="rgb(97,93,95)" transform="translate(0,0)"></path>
<path d="M 551.547 396.748 C 576.919 416.709 622.643 434.6 654.955 439.354 C 666.434 456.399 678.868 482.039 683.031 502.255 C 705.779 612.716 660.728 730.261 697.175 839.199 C 704.383 860.743 718.306 886.249 739.361 896.517 C 720.12 912.642 669.18 936.63 645.034 947.581 C 590.503 966.715 572.974 954.263 520.56 938.833 C 484.296 928.158 427.158 927.509 401.883 961.048 C 390.527 939.502 407.511 880.201 413.803 856.148 C 414.796 852.351 428.926 833.84 432.455 828.203 C 450.107 800.012 461.852 774.662 469.539 741.922 C 476.701 734.498 481.969 728.807 488.458 720.823 C 501.488 721.157 530.305 726.44 538.224 713.139 C 560.778 675.256 596.839 611.475 608.142 569.543 C 612.774 551.746 614.533 533.322 613.351 514.97 C 609.732 464.454 576.405 434.279 523.517 454.903 C 498.683 464.586 474.179 503.492 456.73 524.483 C 457.308 522.259 457.898 520.039 458.499 517.821 C 474.923 457.299 496.934 428.109 551.547 396.748 z" fill="rgb(230,173,71)" transform="translate(0,0)"></path>
<path d="M 661.28 728.671 L 662.283 729.831 C 662.868 732.045 662.729 732.826 662.207 735.102 C 651.696 780.922 600.474 876.211 561.568 901.317 L 560.482 898.537 C 599.135 864.447 626.964 817.111 646.618 769.893 C 651.912 757.174 655.402 740.397 661.28 728.671 z" fill="rgb(1,1,1)" transform="translate(0,0)"></path>
<path d="M 718.706 874.564 C 743.8 886.048 768.472 898.348 793.929 909.527 L 849.192 933.614 C 887.784 950.365 925.116 963.231 940.572 1006.41 C 951.428 1035.13 942.869 1065.47 932.163 1092.89 C 922.737 1117.03 913.652 1142.23 903.678 1166.24 C 895.8 1185.19 887.404 1202.69 880.581 1222.35 C 874.029 1241.09 868.269 1260.09 863.314 1279.32 C 859.49 1294.18 854.528 1322.55 845.683 1333.97 C 844.051 1331.73 842.196 1329.67 840.146 1327.81 C 818.797 1308.74 777.153 1297.38 750.681 1286.94 C 725.093 1276.84 700.706 1267.09 672.835 1268.35 C 674.823 1249.49 696.416 1230.65 708.001 1214.76 C 734.084 1178.98 738.625 1137.66 753.721 1097.3 C 755.006 1093.87 758.452 1090.06 761.185 1087.74 C 770.721 1078.25 837.98 1066.77 844.186 1061.06 L 844.236 1060.03 C 839.693 1059.32 789.189 1073.91 779.017 1075.97 C 775.766 1069.42 774.521 1067.08 769.665 1061.64 C 781.242 1053.69 818.407 1035.15 822.971 1028.15 L 822.82 1028.31 C 818.925 1027.4 760.795 1061.95 752.09 1067.23 C 721.736 1064.62 691.575 1060.11 661.784 1053.74 C 667.509 1049.65 713.031 1018.14 714.259 1014.67 C 707.481 1015.48 680.363 1036.05 671.922 1041.77 C 680.977 1008.15 688.775 975.958 692.931 941.352 C 693.478 936.795 694.28 931.385 695.3 926.933 C 714.287 917.066 729.335 910.261 744.79 895.335 C 732.194 890.803 726.725 885.288 718.706 874.564 z" fill="rgb(168,121,103)" transform="translate(0,0)"></path>
<path d="M 894.263 1108.6 C 895.05 1109.43 895.104 1109.89 895.621 1110.99 C 894.372 1115.56 889.454 1123.37 886.822 1127.77 C 862.684 1168.14 824.962 1205.87 786.507 1232.51 L 785.558 1230.55 C 787.444 1227.39 801.406 1216.88 805.005 1214.27 C 846.335 1184.29 867.524 1150.15 894.263 1108.6 z" fill="rgb(1,1,1)" transform="translate(0,0)"></path>
<path d="M 648.08 1053.41 C 672.101 1061.3 725.516 1068.54 751.875 1070.12 L 765.726 1080.07 C 748.234 1090.8 744.024 1112.81 739.534 1130.94 C 728.493 1175.52 712.088 1211.06 679.88 1244.41 C 673.168 1251.35 669.502 1260.88 670.687 1270.97 C 676.603 1288.8 688.568 1300.64 704.964 1309.39 C 701.743 1316.55 697.485 1326.9 694.009 1333.63 C 689.666 1332.85 679.502 1331.87 676.415 1335.93 C 664.93 1350.99 664.741 1375.5 659.116 1392.52 C 645.656 1433.26 647.965 1454.93 692.288 1468.36 L 694.649 1469.01 L 694.588 1469.73 C 672.279 1471.37 647.987 1469.39 625.503 1470.03 C 621.04 1470.15 615.201 1470.09 610.789 1469.68 C 606.465 1470.48 602.326 1472.07 598.576 1474.37 C 590.947 1479.06 585.801 1485.74 583.877 1494.58 C 581.974 1503.45 583.691 1512.72 588.647 1520.32 C 595.171 1530.28 603.119 1533.15 614.092 1535.42 C 613.802 1590.85 614.02 1646.27 614.746 1701.69 C 598.192 1701.91 575.325 1702.46 559.157 1701.17 C 571.438 1696.84 590.238 1693.31 597.212 1681.8 C 609.19 1662.05 602.943 1634.46 581.886 1623.99 C 551.209 1608.73 522.042 1599.32 490.749 1586.06 C 482.674 1582.64 463.608 1577.27 462.471 1568.63 C 466.364 1561.2 484.317 1568.03 491.54 1560.64 C 504.938 1546.93 509.641 1516.06 515.06 1497.91 C 523.816 1469.33 533.279 1440.97 543.443 1412.86 C 572.478 1332.02 608.952 1251.1 627.111 1166.89 C 635.153 1129.6 641.322 1091.03 648.08 1053.41 z" fill="rgb(255,255,255)" transform="translate(0,0)"></path>
<path d="M 692.288 1468.36 L 694.649 1469.01 L 694.588 1469.73 C 672.279 1471.37 647.987 1469.39 625.503 1470.03 C 621.04 1470.15 615.201 1470.09 610.789 1469.68 C 617.04 1468.46 626.078 1469.2 632.523 1469.01 C 650.001 1468.5 675.771 1470.81 692.288 1468.36 z" fill="rgb(145,142,146)" transform="translate(0,0)"></path>
<path d="M 679.233 52.2056 C 706.03 49.8391 722.506 56.4448 739.043 77.1035 C 778.851 76.2341 811.615 133.924 769.169 154.936 C 768.112 155.46 764.719 154.929 764.263 153.592 C 761.042 144.142 750.857 112.207 742.913 106.904 C 742.061 111.623 752.038 129.416 748.24 141.003 C 747.587 145.686 744.588 151.831 739.996 154.329 C 723.933 163.069 712.405 131.557 708.222 123.129 C 708.49 135.623 712.888 143.95 710.342 157.472 C 704.617 187.888 674.244 172.991 657.912 190.872 C 646.827 202.605 644.087 221.576 633.987 233.742 C 620.435 248.683 620.689 234.285 611.455 227.604 C 586.198 209.327 568.924 240.426 574.114 263.397 C 577.566 278.672 581.261 285.017 593.793 294.076 C 595.093 311.101 594.964 320.336 587.04 335.574 C 567.473 364.519 535.648 360.764 509.313 343.69 C 520.005 339.779 537.175 327.942 542.637 318.562 C 536.044 319.37 525.286 332.888 515.937 337.119 C 500.608 344.055 490.18 340.314 475.106 335.283 C 488.034 328.33 492.973 320.271 493.837 305.429 C 495.943 269.237 458.577 260.817 452.332 226.512 C 444.995 204.686 458.75 160.549 479.812 149.729 C 513.491 132.429 507.787 126.169 522.329 94.8053 C 532.529 72.8048 576.377 59.5225 599.377 63.8243 C 609.482 65.7145 626.421 68.1758 637.069 67.6157 C 652.334 64.7823 661.733 56.2913 679.233 52.2056 z" fill="rgb(168,121,103)" transform="translate(0,0)"></path>
<path d="M 423.914 648.039 C 447.376 647.447 471.045 657.588 483.388 678.387 C 489.792 689.178 490.445 699.266 490.861 711.374 C 484.678 721.019 475.491 731.582 466.582 738.817 C 454.485 796.495 427.662 827.882 396.359 875.293 C 386.44 890.315 378.295 907.275 369.042 922.853 C 378.415 958.669 377.928 997.534 374.727 1034.18 C 373.894 1043.71 374.654 1066.05 366.284 1070.95 C 352.098 1072.41 352.496 1023.92 351.44 1012.19 C 329.075 1028.55 319.281 1056.6 306.027 1080.1 C 300.984 1089.05 298.861 1107.29 284.477 1104.61 C 270.362 1101.02 278.117 1087.32 279.412 1079.28 C 282.776 1058.37 307.522 1021.16 310.131 1004.32 L 309.08 1004.53 C 298.173 1020.07 283.893 1056.02 277.738 1073.77 C 276.038 1079.07 274.933 1090.85 270.526 1094.09 C 268.678 1095.45 267.163 1095.97 264.878 1095.5 C 261.049 1094.73 257.811 1091.58 255.688 1088.44 C 243.109 1069.83 281.91 1015.35 285.672 996.554 L 284.741 995.48 C 275.551 1000.52 254.558 1065.68 249.404 1066.34 C 202.065 1072.35 266.245 997.477 268.835 988.156 L 267.583 987.205 C 257.712 993.032 238.138 1034.23 232.027 1036.94 C 205.037 1016.6 299.394 919.086 314.433 904.973 C 315.831 895.796 317.405 886.646 319.155 877.529 C 333.372 805.883 354.986 731.706 400.264 672.858 C 405.495 666.059 417.024 652.659 423.914 648.039 z" fill="rgb(230,160,137)" transform="translate(0,0)"></path>
<path d="M 714.926 145.24 C 736.448 171.184 750.61 158.08 752.601 129.714 C 764.914 155.921 759.971 167.159 759.97 194.528 C 759.969 205.282 760.522 218.238 760.928 229.142 C 768.653 238.758 783.824 248.223 787.625 254.82 C 789.306 257.693 789.751 261.124 788.861 264.331 C 786.757 272.021 775.13 281.16 768.37 284.686 C 769.643 307.619 765.444 353.029 744.483 366.858 C 728.194 377.604 696.179 375.378 677.398 371.705 C 660.455 366.133 651.162 362.796 635.177 354.722 L 633.806 355.556 C 632.138 369.648 656.471 387.895 666.966 394.273 C 662.418 402.426 655.973 426.707 654.303 436.411 C 616.928 429.747 585.976 415.696 554.536 394.914 L 555.233 394.051 C 562.74 384.575 592.416 334.484 595.45 323.919 C 598.216 314.285 597.893 305.695 596.733 295.923 C 601.854 296.879 611.277 298.525 614.745 294.063 C 612.546 291.875 604.985 293.719 601.571 293.156 C 576.298 288.989 568.294 243.137 587.467 228.534 C 604.683 215.422 614.404 241.487 625.613 242.832 C 645.559 238.31 648.572 199.758 663.118 190.873 C 691.938 173.27 711.761 191.449 714.926 145.24 z" fill="rgb(230,160,137)" transform="translate(0,0)"></path>
<path d="M 1201.69 541.781 L 1202.25 542.304 C 1204.95 548.673 1202.91 1178.14 1202.88 1235.74 L 1155.3 1235.6 C 1154.84 1235.07 1154.37 1234.54 1153.91 1234 C 1153.8 1057.61 1153.41 736.53 1154.02 576.384 L 1201.69 541.781 z" fill="rgb(224,213,189)" transform="translate(0,0)"></path>
<path d="M 545.421 452.243 C 584.129 449.802 604.022 470 608.956 507.167 C 611.506 527.711 610.085 548.555 604.77 568.563 C 597.958 594.985 551.185 690.285 535.435 710.937 C 519.682 691.983 512.745 685.559 493.426 670.443 C 465.374 647.256 421.245 622.981 385.186 616.084 C 395.245 587.602 433.909 555.977 454.484 532.658 C 481.918 501.565 501.602 460.073 545.421 452.243 z" fill="rgb(230,173,71)" transform="translate(0,0)"></path>
<path d="M 177.367 1296.83 C 178.116 1296.99 178.287 1297.33 178.99 1297.93 L 178.924 1909.17 L 131.941 1909.14 L 130.216 1908.01 C 129.083 1896.51 129.998 1863.2 130.005 1849.48 L 130.045 1727.63 L 129.885 1330.24 C 145.779 1319.2 161.607 1308.06 177.367 1296.83 z" fill="rgb(224,213,189)" transform="translate(0,0)"></path>
<path d="M 687.796 682.709 C 717.15 688.239 728.655 694.264 755.411 708.511 C 791.507 727.731 826.016 747.137 859.563 770.712 C 887.943 758.709 922.62 752.822 952.306 763.729 C 963.598 767.879 1010.35 790.406 1002.71 805.6 C 1001.08 805.089 990.742 796.21 987.915 793.911 C 981.624 788.795 947.054 773.476 940.843 773.171 C 945.781 779.406 962.974 783.807 971.264 788.273 C 982.433 793.686 991.667 800.15 1000.42 809.049 C 1006.57 815.301 1013.3 827.814 1004.44 834.868 C 998.438 832.797 972.022 787.264 932.214 785.494 C 933.037 786.533 963.382 800.362 968.079 803.126 C 969.852 804.162 971.579 805.275 973.254 806.463 C 983.946 814.145 1001.06 834.395 1004.44 847.387 C 1007.5 859.185 985.801 859.105 983.154 854.297 C 969.701 829.859 957.91 802.819 925.027 804.95 C 919.846 805.286 904.417 806.952 901.122 810.459 C 904.064 812.912 917.863 809.018 922.474 808.576 C 948.989 806.035 959.379 820.627 972.377 840.76 C 979.53 851.84 978.767 868.266 961.362 862.889 C 951.239 859.762 945.3 845.602 941.387 837.004 C 906.836 835.342 857.054 850.08 836.546 815.738 C 789.192 811.728 733.314 791.922 687.998 778.426 C 684.88 748.435 685.698 712.716 687.796 682.709 z" fill="rgb(230,160,137)" transform="translate(0,0)"></path>
<path d="M 273.422 1705.1 C 298.856 1703.66 330.396 1705.14 356.398 1704.85 C 388.081 1705.25 419.961 1704.33 451.622 1704.86 C 472.527 1705.49 494.081 1708.79 514.962 1706.97 C 540.271 1704.77 565.385 1704.46 590.761 1704.66 C 599.301 1704.73 613.067 1703.92 620.75 1706.64 C 634.812 1711.62 643.368 1730.93 636.631 1744.6 C 631.828 1755.35 629.184 1757.66 619.098 1762.55 C 606.703 1764.77 590.532 1763.83 577.606 1763.83 L 507.78 1763.78 L 362.655 1763.78 C 337.377 1763.79 312.284 1763.79 286.831 1763.67 C 272.185 1764.29 258.77 1759.68 253.247 1744.72 C 246.352 1726.03 256.068 1711.39 273.422 1705.1 z" fill="rgb(224,213,189)" transform="translate(0,0)"></path>
<path d="M 609.254 1473.15 C 632.319 1471.65 663.133 1473.46 687.087 1472.9 C 714.071 1472.26 743.346 1472.52 770.366 1472.95 C 777.239 1473.06 797.107 1477.08 804.693 1478.3 C 818.967 1480.53 833.381 1481.76 847.826 1481.96 C 858.824 1482.04 874.655 1481.07 887.411 1478.82 C 916.956 1473.62 979.109 1457.75 970.744 1510.15 C 969.349 1518.89 962.333 1525.75 954.6 1530.23 C 941.633 1534.14 908.494 1532.47 893.378 1532.49 L 796.233 1532.61 L 688.339 1532.26 C 666.001 1532.25 643.684 1532.25 621.346 1532.05 C 606.345 1531.92 594.033 1528.21 588.35 1512.89 C 585.539 1505.26 585.884 1496.81 589.31 1489.43 C 593.382 1480.57 600.442 1476.35 609.254 1473.15 z" fill="rgb(224,213,189)" transform="translate(0,0)"></path>
<path d="M 1037.77 1238.5 L 1173.49 1238.75 C 1196.57 1238.78 1220.63 1238.15 1243.61 1239.8 C 1256.99 1240.77 1268.57 1254.27 1268.18 1267.78 C 1267.13 1303.07 1233.78 1298.44 1208.98 1298.26 L 1159.5 1298.15 L 1021.8 1298.13 C 999.256 1298.13 976.184 1298.72 953.861 1297.29 C 939.08 1296.33 927.376 1283.32 927.849 1268.74 C 928.932 1235.33 960.018 1238.64 983.085 1238.59 L 1037.77 1238.5 z" fill="rgb(224,213,189)" transform="translate(0,0)"></path>
<path d="M 1195.97 487.132 C 1196.28 487.549 1199 495.472 1199.42 496.699 C 1204.25 510.763 1210.59 516.061 1224.79 521.246 C 1199.41 537.94 1167.14 562.674 1141.87 580.916 L 981.906 696.121 L 930.511 733.172 C 925.417 736.873 904.032 752.87 899.296 754.692 C 887.954 759.053 874.231 761.245 861.205 766.16 C 856.956 765.805 837.479 751.836 832.681 748.616 C 852.156 733.048 877.223 715.974 897.757 701.29 L 992.601 633.186 C 1060.21 585.024 1128.1 534.606 1195.97 487.132 z" fill="rgb(224,213,189)" transform="translate(0,0)"></path>
<path d="M 432.791 1050.97 C 434.359 1053.14 437.64 1098.13 438.21 1105.03 C 424.751 1115.58 408.036 1126.84 394.018 1136.86 L 321.009 1189.41 C 256.747 1236.01 192.185 1282.19 127.327 1327.96 L 126.826 1313.96 C 126.615 1313.13 126.399 1312.3 126.177 1311.48 C 122.34 1297.25 117.371 1293.16 104.791 1285.89 C 131.802 1267.71 158.693 1247.46 185.271 1228.43 L 371.867 1094.49 C 391.618 1080.47 412.95 1064.19 432.791 1050.97 z" fill="rgb(224,213,189)" transform="translate(0,0)"></path>
<path d="M 91.4673 1912.45 L 278.816 1912.41 L 278.862 1970.77 L 253.5 1970.74 L 143.289 1970.88 C 125.037 1970.9 105.929 1971.5 87.7371 1970.04 C 83.2229 1969.68 76.9143 1966.51 73.7384 1963.19 C 55.9782 1944.63 64.414 1915.13 91.4673 1912.45 z" fill="rgb(224,213,189)" transform="translate(0,0)"></path>
<path d="M 308.98 1630.86 C 313.702 1634.47 315.93 1637.03 321.275 1640.44 C 351.812 1659.93 386.172 1651.52 419.946 1653.58 C 433.606 1654.41 447.517 1659.17 461.375 1661.63 C 489.957 1666.72 521.608 1664.87 549.865 1658.61 C 566.68 1654.88 582.521 1648.84 591.849 1633.82 C 592.414 1634.79 592.961 1635.77 593.49 1636.76 C 600.33 1649.59 601.648 1661.3 597.517 1675.1 C 591.044 1686.79 580.378 1691.8 567.891 1695.36 C 533.658 1705.13 496.603 1705.98 461.443 1701.64 C 445.718 1699.71 430.08 1694.74 414.207 1693.84 C 389.476 1693.08 369.222 1697.8 344.711 1691.28 C 312.031 1682.59 298.955 1665.26 308.98 1630.86 z" fill="rgb(224,213,189)" transform="translate(0,0)"></path>
<path d="M 658.402 1404.62 C 661.481 1406.5 666.947 1412.2 670.171 1414.22 C 700.842 1433.48 737.449 1425.41 771.214 1427.87 C 783.546 1428.77 796.903 1433.48 808.688 1435.63 C 834.24 1440.29 860.601 1439.57 886.086 1435.41 C 906.76 1432.04 927.393 1426.48 940.169 1408.89 C 947.86 1423.03 949.928 1434.01 945.581 1449.37 C 929.347 1482.25 841.119 1479.74 809.985 1475.99 C 793.262 1474.36 777.894 1468.16 760.944 1467.72 C 728.333 1466.89 680.407 1475.64 658.856 1443.47 C 653.261 1435.12 655.33 1413.94 658.402 1404.62 z" fill="rgb(224,213,189)" transform="translate(0,0)"></path>
<path d="M 333.823 1560.8 C 351.47 1561.54 340.651 1574.06 353.673 1585.42 C 371.566 1601.02 398.665 1594.01 413.459 1578 C 422.271 1580.39 432.808 1583.99 441.702 1586.73 C 449.319 1583.5 454.642 1580.68 461.912 1576.74 L 469.815 1581.27 C 465.27 1583.85 454.798 1588.71 451.825 1591.26 L 451.723 1592.81 C 455.983 1593.71 469.563 1585 473.865 1582.52 C 478.842 1584.18 481.102 1585.3 485.799 1587.73 C 475.877 1592.42 472.226 1594.88 464.224 1602.36 C 472.627 1599.9 481.828 1593.65 489.356 1588.96 C 494.992 1590.85 497.029 1591.65 502.222 1594.47 C 498.05 1596.91 489.691 1601.07 488.052 1605.27 C 493.526 1606.17 502.284 1599.43 507.014 1596.25 C 512.141 1598.1 515.49 1599.59 520.418 1601.96 C 517.278 1603.67 513.394 1606.22 510.275 1608.15 C 507.762 1609.67 507.828 1609.54 506.152 1611.91 L 507.115 1612.77 C 513.299 1610.68 519.197 1607.24 524.968 1604.13 C 531.849 1606.32 535.834 1607.5 542.365 1610.8 C 522.134 1623.45 513.82 1636.53 512.491 1660.69 C 478.568 1662.47 455.56 1657.2 422.584 1650.76 C 412.304 1648.76 390.512 1650.45 379.377 1650.88 C 378.009 1612.27 351.616 1601.28 321.054 1586.05 C 323.501 1573.11 323.485 1569.33 333.823 1560.8 z" fill="rgb(10,78,71)" transform="translate(0,0)"></path>
<path d="M 683.128 1335.91 C 696.997 1335.28 692.549 1348.43 701.026 1357.46 C 719.763 1377.44 747.515 1366.96 765.4 1351.74 C 773.977 1354.93 782.626 1357.92 791.34 1360.71 C 800.554 1357.27 804.857 1353.07 812.036 1350.41 C 815.026 1351.7 815.572 1351.73 817.659 1354.08 C 817.416 1360.39 804.835 1360.87 801.643 1367.02 C 808.857 1367.46 818.747 1360.35 825.09 1356.51 C 829.164 1358.14 833.298 1360.05 837.318 1361.84 C 831.534 1365.05 824.284 1368.49 819.781 1373.2 L 820.958 1373.54 C 828.733 1371.22 833.896 1367.75 840.836 1363.64 C 845.165 1365.34 850.268 1367.94 854.548 1369.99 C 847.639 1373.08 842.632 1374.74 837.082 1380 L 837.813 1380.46 C 845.484 1378.43 852.066 1374.75 859.623 1371.63 C 862.895 1372.82 868.568 1374.63 870.359 1377.44 L 868.488 1378.86 C 864.622 1381.16 858.973 1384.32 856.308 1387.92 L 856.972 1388.32 C 863.898 1386.15 868.946 1382.4 875.459 1378.81 C 880.163 1380.12 885.549 1382.45 890.165 1384.29 C 868.804 1399.73 862.736 1408.6 861.132 1434.82 C 845.938 1435.6 821.189 1435.99 806.52 1431.88 C 777.089 1423.61 759.477 1422.98 729.29 1423.92 C 726.787 1387.47 699.5 1374.05 670.054 1359.84 C 672.962 1349.55 673.798 1341.34 683.128 1335.91 z" fill="rgb(10,78,71)" transform="translate(0,0)"></path>
<path d="M 365.813 1502.9 C 389.558 1511.19 419.111 1521.66 442.081 1531.22 C 440.632 1537.16 438.705 1543.45 437.012 1549.35 C 420.573 1555.16 411.899 1559.75 409.167 1577.7 C 386.969 1599.07 355.818 1596.12 346.319 1563.88 C 350.757 1545.71 359.669 1521.14 365.813 1502.9 z" fill="rgb(224,213,189)" transform="translate(0,0)"></path>
<path d="M 721.089 1279.85 C 743.469 1287.01 772.105 1298.28 794.308 1306.73 C 792.544 1310.6 791.111 1313.96 789.572 1317.92 C 783.757 1330.41 756.872 1327.72 760.591 1351.76 C 748.467 1359.4 735.361 1368.16 720.245 1364.58 C 706.321 1361.29 694.395 1348.69 697.117 1333.68 C 700.423 1330.98 717.962 1287.39 721.089 1279.85 z" fill="rgb(224,213,189)" transform="translate(0,0)"></path>
<path d="M 769.351 806.821 C 772.603 806.874 785.335 809.953 789.2 810.765 C 803.713 813.816 817.447 817.15 832.251 818.951 C 808.061 836.47 783.719 853.779 759.229 870.877 L 742.575 882.968 L 715.058 868.925 C 711.841 863.506 709.068 857.877 706.214 852.259 C 726.996 836.05 748.347 822.225 769.351 806.821 z" fill="rgb(224,213,189)" transform="translate(0,0)"></path>
<path d="M 1230.56 449.901 C 1249.62 447.64 1266.9 461.301 1269.09 480.373 C 1271.28 499.445 1257.56 516.668 1238.48 518.791 C 1219.49 520.903 1202.38 507.266 1200.2 488.29 C 1198.02 469.315 1211.59 452.15 1230.56 449.901 z" fill="rgb(224,213,189)" transform="translate(0,0)"></path>
<path d="M 85.947 1286.83 C 104.777 1284.61 121.868 1298.01 124.2 1316.82 C 126.532 1335.64 113.229 1352.81 94.426 1355.25 C 75.4685 1357.71 58.129 1344.27 55.778 1325.3 C 53.4269 1306.33 66.9623 1289.07 85.947 1286.83 z" fill="rgb(224,213,189)" transform="translate(0,0)"></path>
<path d="M 693.863 565.318 C 693.394 561.403 692.441 547.369 693.211 542.956 C 693.227 542.861 693.313 542.858 693.423 542.834 C 694.487 543.764 695.051 545.817 695.501 547.17 C 708.863 577.292 718.067 593.781 734.75 621.997 C 722.076 635.936 703.208 656.937 688.624 668.296 C 690.874 633.264 693.177 600.412 693.863 565.318 z" fill="rgb(230,173,71)" transform="translate(0,0)"></path>
<path d="M 693.863 565.318 C 693.394 561.403 692.441 547.369 693.211 542.956 C 693.227 542.861 693.313 542.858 693.423 542.834 C 694.487 543.764 695.051 545.817 695.501 547.17 C 693.733 551.498 694.583 559.139 693.863 565.318 z" fill="rgb(209,151,74)" transform="translate(0,0)"></path>
<path d="M 688.058 781.996 C 712.737 788.712 738.963 798.178 765.158 805.345 C 757.319 811.83 746.182 819.073 737.601 824.972 L 704.756 849.311 C 695.38 828.341 690.781 804.693 688.058 781.996 z" fill="rgb(255,255,255)" transform="translate(0,0)"></path>
<path d="M 319.538 1589.98 C 339.834 1599.06 362.764 1610.06 372.986 1631.15 C 375.547 1636.44 376.265 1642.05 376.838 1647.82 C 377.247 1651.94 373.923 1650.88 370.763 1650.6 C 346.681 1648.92 328.919 1645.93 311.777 1627.94 C 313.039 1612.43 316.973 1603.65 319.538 1589.98 z" fill="rgb(10,78,71)" transform="translate(0,0)"></path>
<path d="M 669.375 1363.84 C 692.957 1376.97 722.346 1388.03 725.458 1420.02 C 725.876 1424.31 724.74 1423.76 720.749 1423.58 C 696.448 1422.16 679.171 1419.91 661.312 1401.8 C 662.762 1390.69 665.855 1374.51 669.375 1363.84 z" fill="rgb(10,78,71)" transform="translate(0,0)"></path>
<path d="M 545.361 1612.83 C 554.505 1612.58 581.464 1627.44 589.467 1632.67 C 578.768 1646.58 568.974 1648.86 552.82 1654.1 C 540.36 1657.62 528.695 1658.87 515.844 1660.25 C 517.774 1635.85 525.913 1626.09 545.361 1612.83 z" fill="rgb(10,78,71)" transform="translate(0,0)"></path>
<path d="M 894.623 1386.89 C 901.898 1388.53 931.139 1402.03 936.162 1406.29 C 938.104 1415.39 911.032 1425.42 903.292 1428.07 C 895.855 1429.99 872.964 1434.87 865.903 1433.54 C 864.394 1431.03 865.436 1423.12 866.158 1420.26 C 870.193 1404.28 881.396 1395.03 894.623 1386.89 z" fill="rgb(10,78,71)" transform="translate(0,0)"></path>
<path d="M 791.982 1325.55 C 801.572 1324.78 805.089 1322.75 809.357 1331.78 C 809.251 1334.21 810.66 1342.47 810.942 1346.27 C 803.574 1352.24 800.53 1353.8 791.988 1357.06 C 787.756 1355.93 764.186 1349.44 763.91 1346.52 C 762.743 1334.17 783.521 1327.34 791.982 1325.55 z" fill="rgb(10,78,71)" transform="translate(0,0)"></path>
<path d="M 445.099 1552.18 C 460.343 1551.16 459.562 1562.93 459.457 1573.75 C 453.945 1577.53 448.694 1580.1 442.732 1583.12 C 439.469 1582.24 436.989 1581.65 433.756 1580.48 C 428.941 1578.76 423.247 1576.61 418.492 1575.05 L 412.608 1573.13 C 421.291 1556.51 427.038 1555.91 445.099 1552.18 z" fill="rgb(10,78,71)" transform="translate(0,0)"></path>
<path d="M 696.611 666.783 C 699.4 670.119 699.707 674.889 700.322 679.049 C 700.809 682.343 694.225 680.619 692.231 680.404 C 681.765 678.236 693.134 669.452 696.611 666.783 z" fill="rgb(230,160,137)" transform="translate(0,0)"></path>
<metadata><recraft-signature>{"signed_by": "recraft", "signature_b64": "q5A55SCgzPEp8Af8E+aisebOblv7fJ9LXDjIqq0t4H4vXU+B6O4+VzwAPAWsapKYgL1QnzntBxQjfYfsaxCzBQ==", "signing_algo": "Ed25519", "generation_timestamp": 1779005444, "identifier": "8bfd8ac4-05cf-463d-9d5f-a81b89fa3e78"}</recraft-signature></metadata></svg>