<svg xmlns="http://www.w3.org/2000/svg" height="1280" preserveAspectRatio="none" style="display: block;" version="1.1" viewBox="0 0 1331 2048" width="832">
<path d="M 0 0 L 1331 0 L 1331 2048 L 0 2048 L 0 0 z" fill="rgb(255,252,251)" transform="translate(0,0)"></path>
<path d="M 455.315 789.754 C 462.605 790.31 473.452 793.811 480.873 795.796 C 530.683 809.12 582.176 816.508 633.796 816.882 C 648.697 817.002 663.599 816.965 678.5 816.771 C 686.208 816.599 708.512 814.304 714.047 815.815 L 714.831 815.522 C 717.507 817.572 722.878 821.426 725.193 823.511 C 727.74 825.543 730.047 827.193 732.15 829.691 C 734.319 830.289 739.395 834.874 741.214 836.494 C 743.386 838.209 754.12 846.462 755.293 847.917 C 757.852 849.574 763.113 852.837 764.082 855.558 C 767.642 857.106 782.62 868.526 784.191 870.997 C 789.539 874.53 823.747 901.187 826.181 904.964 C 833.519 910.198 838.907 917.35 843.72 924.894 C 853.829 941.158 856.855 958.267 862.456 976.184 C 880.617 1034.27 895.845 1095.04 915.853 1152.42 C 911.335 1153.85 905.735 1155.88 901.126 1156.21 C 915.182 1183.66 937.678 1169.67 960.254 1165.76 C 978.374 1162.62 1004.57 1167.12 1013.17 1185.62 C 1022.87 1206.06 1016.51 1218.05 1000.1 1230.94 C 1011.13 1229.93 1036.73 1219.45 1048.7 1216.1 C 1097.73 1202.38 1162.58 1180.22 1213.1 1192.82 C 1227.07 1196.44 1240.13 1202.94 1251.44 1211.91 C 1293.3 1244.5 1311.86 1313.45 1318 1363.51 C 1319.37 1375.36 1320.53 1387.23 1321.46 1399.12 C 1323.92 1422.65 1321.78 1456.44 1321.1 1480.3 L 1318.48 1592.64 L 1315.43 1738.14 C 1314.4 1788.07 1313.84 1896.38 1292.33 1939 C 1278.47 1972.27 1256.53 2001.17 1222.3 2015.31 C 1220.55 2016.03 1218.78 2016.71 1217 2017.36 C 1172.81 2035.8 1120.67 2024.97 1074.84 2026.27 C 913.636 2031.56 752.329 2033.13 591.051 2030.98 C 472.35 2030.04 352.834 2022.47 234.4 2031.29 C 202.432 2033.67 170.42 2036.67 138.654 2030.48 C 135.826 2029.87 133.01 2029.2 130.21 2028.47 C 93.0554 2018.88 56.9008 1995.47 37.21 1961.95 C 19.5906 1931.96 17.8945 1896.45 26.6858 1863.34 C 33.2397 1838.65 45.711 1815.54 60.5475 1794.88 C 140.694 1683.3 336.116 1556.45 456.343 1484.51 C 483.855 1468.05 511.897 1452.58 539.655 1436.55 C 538.542 1436.44 538.464 1436.46 537.342 1436.6 L 533.493 1437.06 C 529.338 1437.58 524.906 1437.28 520.751 1436.41 C 478.467 1426.9 432.315 1419.13 390.667 1408.36 C 359.799 1400.37 364.523 1356.88 375.689 1335.38 C 381.575 1324.05 386.952 1307.78 391.864 1295.83 C 386.756 1294.61 378.718 1293.42 375.014 1290.12 C 373.654 1286.54 374.245 1287.11 375.547 1282.9 C 378.03 1272.65 384.385 1254.71 387.792 1244.66 L 409.825 1179.84 C 422.881 1141.15 438.317 1089.46 452.992 1052.11 C 460.015 1031.57 461 1014.89 463.939 993.543 L 474.154 918.857 C 475.977 905.402 477.824 888.413 480.41 875.302 L 480.577 872.467 C 474.281 868.134 465.296 847.043 462.745 839.141 C 457.376 824.604 454.415 805.224 455.315 789.754 z" fill="rgb(229,180,39)" transform="translate(0,0)"></path>
<path d="M 455.315 789.754 C 462.605 790.31 473.452 793.811 480.873 795.796 C 530.683 809.12 582.176 816.508 633.796 816.882 C 648.697 817.002 663.599 816.965 678.5 816.771 C 686.208 816.599 708.512 814.304 714.047 815.815 L 714.831 815.522 C 717.507 817.572 722.878 821.426 725.193 823.511 C 727.74 825.543 730.047 827.193 732.15 829.691 C 734.319 830.289 739.395 834.874 741.214 836.494 C 743.386 838.209 754.12 846.462 755.293 847.917 C 757.852 849.574 763.113 852.837 764.082 855.558 C 767.642 857.106 782.62 868.526 784.191 870.997 C 789.539 874.53 823.747 901.187 826.181 904.964 C 833.519 910.198 838.907 917.35 843.72 924.894 C 853.829 941.158 856.855 958.267 862.456 976.184 C 880.617 1034.27 895.845 1095.04 915.853 1152.42 C 911.335 1153.85 905.735 1155.88 901.126 1156.21 C 889.074 1154.56 800.683 1191.5 789.36 1189.12 L 791.027 1191.05 C 795.364 1191.12 803.931 1187.7 808.479 1186.21 L 817.221 1235.85 C 821.394 1253.73 824.786 1265.86 841.245 1276.52 C 850.489 1282.51 852.089 1280.47 858.95 1283.37 C 778.847 1312.58 698.986 1353.29 622.93 1391.74 C 613.712 1396.4 564.887 1423.8 559.561 1424.74 C 555.341 1429.97 547.137 1434.45 540.956 1436.92 L 539.655 1436.55 C 538.542 1436.44 538.464 1436.46 537.342 1436.6 L 533.493 1437.06 C 529.338 1437.58 524.906 1437.28 520.751 1436.41 C 478.467 1426.9 432.315 1419.13 390.667 1408.36 C 359.799 1400.37 364.523 1356.88 375.689 1335.38 C 381.575 1324.05 386.952 1307.78 391.864 1295.83 C 386.756 1294.61 378.718 1293.42 375.014 1290.12 C 373.654 1286.54 374.245 1287.11 375.547 1282.9 C 378.03 1272.65 384.385 1254.71 387.792 1244.66 L 409.825 1179.84 C 422.881 1141.15 438.317 1089.46 452.992 1052.11 C 460.015 1031.57 461 1014.89 463.939 993.543 L 474.154 918.857 C 475.977 905.402 477.824 888.413 480.41 875.302 L 480.577 872.467 C 474.281 868.134 465.296 847.043 462.745 839.141 C 457.376 824.604 454.415 805.224 455.315 789.754 z" fill="rgb(255,252,251)" transform="translate(0,0)"></path>
<path d="M 455.315 789.754 C 462.605 790.31 473.452 793.811 480.873 795.796 C 530.683 809.12 582.176 816.508 633.796 816.882 C 648.697 817.002 663.599 816.965 678.5 816.771 C 686.208 816.599 708.512 814.304 714.047 815.815 L 714.831 815.522 C 717.507 817.572 722.878 821.426 725.193 823.511 C 727.74 825.543 730.047 827.193 732.15 829.691 C 734.319 830.289 739.395 834.874 741.214 836.494 C 743.386 838.209 754.12 846.462 755.293 847.917 C 757.852 849.574 763.113 852.837 764.082 855.558 C 767.642 857.106 782.62 868.526 784.191 870.997 C 789.539 874.53 823.747 901.187 826.181 904.964 C 833.519 910.198 838.907 917.35 843.72 924.894 C 853.829 941.158 856.855 958.267 862.456 976.184 C 880.617 1034.27 895.845 1095.04 915.853 1152.42 C 911.335 1153.85 905.735 1155.88 901.126 1156.21 C 889.074 1154.56 800.683 1191.5 789.36 1189.12 C 788.683 1182.89 777.447 1147.48 774.79 1138.73 L 735.307 1010.91 C 711.684 997.698 682.065 985.555 657.738 972.648 C 649.211 968.124 635.85 962.654 628.326 957.625 C 627.278 957.656 625.694 957.611 624.752 957.879 C 621.775 954.853 614.861 951.867 610.848 949.895 C 578.524 934.008 545.547 919.34 513.298 903.329 C 499.6 896.528 492.208 885.153 481.027 875.694 C 480.821 875.563 480.616 875.433 480.41 875.302 L 480.577 872.467 C 474.281 868.134 465.296 847.043 462.745 839.141 C 457.376 824.604 454.415 805.224 455.315 789.754 z" fill="rgb(52,115,179)" transform="translate(0,0)"></path>
<path d="M 455.315 789.754 C 462.605 790.31 473.452 793.811 480.873 795.796 C 530.683 809.12 582.176 816.508 633.796 816.882 C 648.697 817.002 663.599 816.965 678.5 816.771 C 686.208 816.599 708.512 814.304 714.047 815.815 L 714.831 815.522 C 717.507 817.572 722.878 821.426 725.193 823.511 L 723.648 824.376 C 716.913 820.144 710.936 825.506 703.125 827.53 C 624.146 847.998 535.883 824.919 457.972 805.208 C 458.18 814.264 463.561 836.135 462.745 839.141 C 457.376 824.604 454.415 805.224 455.315 789.754 z" fill="rgb(35,87,135)" transform="translate(0,0)"></path>
<path d="M 480.577 872.467 C 484.003 873.917 500.235 893.137 511.808 899.552 C 529.359 909.28 544.264 915.767 562.239 924.234 C 584.41 934.857 606.508 945.63 628.532 956.553 L 628.326 957.625 C 627.278 957.656 625.694 957.611 624.752 957.879 C 621.775 954.853 614.861 951.867 610.848 949.895 C 578.524 934.008 545.547 919.34 513.298 903.329 C 499.6 896.528 492.208 885.153 481.027 875.694 C 480.821 875.563 480.616 875.433 480.41 875.302 L 480.577 872.467 z" fill="rgb(5,33,59)" transform="translate(0,0)"></path>
<path d="M 764.082 855.558 C 767.642 857.106 782.62 868.526 784.191 870.997 C 780.21 872.181 766.203 859.769 764.082 855.558 z" fill="rgb(35,87,135)" transform="translate(0,0)"></path>
<path d="M 826.181 904.964 C 833.519 910.198 838.907 917.35 843.72 924.894 C 839.141 924.09 829.032 909.341 826.181 904.964 z" fill="rgb(35,87,135)" transform="translate(0,0)"></path>
<path d="M 732.15 829.691 C 734.319 830.289 739.395 834.874 741.214 836.494 C 741.037 836.638 740.387 837.351 739.925 837.355 C 739.438 837.359 738.784 836.787 738.437 836.479 C 737.661 835.79 736.904 834.948 735.933 834.522 C 734.197 833.76 733.129 833.479 732.037 831.854 C 731.616 831.226 732.002 830.343 732.15 829.691 z" fill="rgb(35,87,135)" transform="translate(0,0)"></path>
<path d="M 755.293 847.917 C 757.852 849.574 763.113 852.837 764.082 855.558 C 758.585 855.041 757.168 852.363 755.293 847.917 z" fill="rgb(35,87,135)" transform="translate(0,0)"></path>
<path d="M 452.992 1052.11 C 460.015 1031.57 461 1014.89 463.939 993.543 L 474.154 918.857 C 475.977 905.402 477.824 888.413 480.41 875.302 C 480.616 875.433 480.821 875.563 481.027 875.694 C 492.208 885.153 499.6 896.528 513.298 903.329 C 545.547 919.34 578.524 934.008 610.848 949.895 C 614.861 951.867 621.775 954.853 624.752 957.879 C 617.43 980.762 607.544 1013.09 599.449 1035.31 C 569.911 1132.03 534.061 1229.15 504.466 1325.68 C 500.018 1324.36 491.123 1322 487.281 1320.13 C 485.044 1317.05 389.523 1294.93 378.221 1290.15 C 374.678 1288.65 375.713 1286.7 375.547 1282.9 C 378.03 1272.65 384.385 1254.71 387.792 1244.66 L 409.825 1179.84 C 422.881 1141.15 438.317 1089.46 452.992 1052.11 z" fill="rgb(52,115,179)" transform="translate(0,0)"></path>
<path d="M 452.992 1052.11 C 460.015 1031.57 461 1014.89 463.939 993.543 L 474.154 918.857 C 475.977 905.402 477.824 888.413 480.41 875.302 C 480.616 875.433 480.821 875.563 481.027 875.694 C 492.208 885.153 499.6 896.528 513.298 903.329 C 545.547 919.34 578.524 934.008 610.848 949.895 C 614.861 951.867 621.775 954.853 624.752 957.879 C 617.43 980.762 607.544 1013.09 599.449 1035.31 C 599.013 1032.11 599.718 1031.55 599.662 1029.6 C 599.212 1013.84 592.451 993.92 590.356 978.548 L 515.383 942.136 C 504.027 936.608 485.781 928.329 475.359 922.25 C 475.165 926.475 473.301 943.032 472.328 946.839 C 467.797 964.574 462.986 1042.4 454.095 1052.4 L 452.992 1052.11 z" fill="rgb(35,87,135)" transform="translate(0,0)"></path>
<path d="M 375.547 1282.9 C 375.713 1286.7 374.678 1288.65 378.221 1290.15 C 389.523 1294.93 485.044 1317.05 487.281 1320.13 C 488.782 1351.91 509.118 1349.06 534.045 1356.39 C 566.707 1366.01 583.618 1396.05 559.561 1424.74 C 555.341 1429.97 547.137 1434.45 540.956 1436.92 L 539.655 1436.55 C 538.542 1436.44 538.464 1436.46 537.342 1436.6 L 533.493 1437.06 C 529.338 1437.58 524.906 1437.28 520.751 1436.41 C 478.467 1426.9 432.315 1419.13 390.667 1408.36 C 359.799 1400.37 364.523 1356.88 375.689 1335.38 C 381.575 1324.05 386.952 1307.78 391.864 1295.83 C 386.756 1294.61 378.718 1293.42 375.014 1290.12 C 373.654 1286.54 374.245 1287.11 375.547 1282.9 z" fill="rgb(5,33,59)" transform="translate(0,0)"></path>
<path d="M 789.36 1189.12 C 800.683 1191.5 889.074 1154.56 901.126 1156.21 C 915.182 1183.66 937.678 1169.67 960.254 1165.76 C 978.374 1162.62 1004.57 1167.12 1013.17 1185.62 C 1022.87 1206.06 1016.51 1218.05 1000.1 1230.94 L 999.243 1231.78 L 1000.21 1232.19 C 992.561 1235.97 980.665 1239.86 972.289 1242.47 C 938.223 1254.19 904.529 1265.75 871.241 1279.59 C 868.265 1280.83 862.002 1283.59 858.95 1283.37 C 852.089 1280.47 850.489 1282.51 841.245 1276.52 C 824.786 1265.86 821.394 1253.73 817.221 1235.85 L 808.479 1186.21 C 803.931 1187.7 795.364 1191.12 791.027 1191.05 L 789.36 1189.12 z" fill="rgb(5,33,59)" transform="translate(0,0)"></path>
<path d="M 817.221 1235.85 C 818.058 1235.74 820.805 1235.51 821.433 1235.87 C 833.078 1242.55 842.967 1248.13 856.147 1251.43 C 869.877 1254.87 882.097 1254.49 896.189 1253.42 C 920.392 1251.58 945.121 1247.73 968.534 1241.22 C 969.576 1240.93 971.467 1241.86 972.289 1242.47 C 938.223 1254.19 904.529 1265.75 871.241 1279.59 C 868.265 1280.83 862.002 1283.59 858.95 1283.37 C 852.089 1280.47 850.489 1282.51 841.245 1276.52 C 824.786 1265.86 821.394 1253.73 817.221 1235.85 z" fill="rgb(5,25,45)" transform="translate(0,0)"></path>
<path d="M 138.654 2030.48 C 142.962 2029.06 186.94 2033.59 198.398 2032.33 C 297.462 2021.44 397.544 2026.19 497.003 2027.61 C 603.402 2029.3 709.816 2029.7 816.224 2028.82 C 868.789 2028.7 922.01 2029.36 974.507 2028.41 C 1009.63 2027.09 1046.42 2024.51 1081.41 2024.48 C 1126.94 2024.43 1171.19 2032.21 1215.09 2016.6 C 1215.73 2016.85 1216.36 2017.11 1217 2017.36 C 1172.81 2035.8 1120.67 2024.97 1074.84 2026.27 C 913.636 2031.56 752.329 2033.13 591.051 2030.98 C 472.35 2030.04 352.834 2022.47 234.4 2031.29 C 202.432 2033.67 170.42 2036.67 138.654 2030.48 z" fill="rgb(195,150,36)" transform="translate(0,0)"></path>
<path d="M 1321.46 1399.12 C 1323.92 1422.65 1321.78 1456.44 1321.1 1480.3 L 1318.48 1592.64 L 1315.43 1738.14 C 1314.4 1788.07 1313.84 1896.38 1292.33 1939 C 1292.09 1938.36 1291.86 1937.71 1291.62 1937.07 C 1302.42 1911.99 1309.17 1857.82 1310.33 1834.06 C 1314.07 1757.58 1314.64 1682.51 1316.42 1606.69 L 1318.79 1492.93 C 1319.26 1475.56 1319.77 1457.93 1320.65 1440.57 C 1321.19 1430.04 1319.23 1408.52 1321.46 1399.12 z" fill="rgb(195,150,36)" transform="translate(0,0)"></path>
<path d="M 761.032 331.221 L 760.653 333.681 C 738.711 349.963 718.244 354.255 691.306 355.147 C 679.66 365.86 675.583 381.064 670.305 395.854 C 711.91 420.871 733.388 448.825 746.443 496.789 C 754.954 528.061 750.067 561.016 747.455 592.889 L 766.325 593.126 C 806.005 591.745 850.219 592.79 890.108 592.958 C 890.033 597.835 889.36 606.81 891.185 610.965 C 898.729 599.938 933.864 569.731 946.68 562.216 C 949.265 560.7 957.725 565.251 957.328 570.896 C 956.708 579.737 949.764 588.365 944.916 595.617 C 975.426 589.816 993.318 580.423 998.574 622.216 C 1000.11 634.408 1000.11 645.254 996.52 657.265 C 995.571 660.269 993.81 664.832 991.33 666.8 C 973.365 698.829 918.976 688.04 890.071 679.905 L 890.302 699.801 C 853.843 699.24 817.377 699.181 780.916 699.623 C 774.49 699.658 744.363 699.477 740.362 700.383 C 738.913 703.29 739.089 704.069 738.918 707.423 C 738.708 741.215 732.813 779.097 732.03 813.001 C 727.919 813.278 717.573 813.309 714.831 815.522 L 714.047 815.815 C 708.512 814.304 686.208 816.599 678.5 816.771 C 663.599 816.965 648.697 817.002 633.796 816.882 C 582.176 816.508 530.683 809.12 480.873 795.796 C 473.452 793.811 462.605 790.31 455.315 789.754 C 446.963 786.792 435.427 784.141 426.627 781.876 C 434.772 759.01 481.796 637.687 477.633 625.515 C 473.938 629.006 461.059 638.66 456.593 640.311 C 446.7 650.601 411.634 771.635 409.379 773.129 C 408.895 773.449 408.241 773.36 407.671 773.475 L 405.29 772.283 L 405.471 771.087 C 385.139 763.027 357.022 754.083 336.017 746.597 L 335.461 747.683 C 330.628 746.699 323.597 743.973 318.768 742.268 C 319.873 739.211 320.947 735.493 321.949 732.353 L 354.372 634.074 C 359.803 617.498 368.107 589.256 375.408 574.067 C 380.652 563.155 411.396 536.252 421.528 526.498 L 481.909 467.931 C 494.637 455.608 563.279 387.663 572.601 382.85 L 573.716 382.702 C 582.433 377.042 584.087 353.199 585.138 343.188 L 585.78 342.998 C 586.031 352.568 585.754 357.279 583.136 366.616 C 582.115 371.228 579.936 376.884 578.325 381.449 C 606.484 386.727 641.163 390.34 668.136 396.426 C 674.502 380.719 677.199 367.239 689.239 354.607 C 727.787 350.28 729.213 351.54 761.032 331.221 z" fill="rgb(241,116,88)" transform="translate(0,0)"></path>
<path d="M 891.185 610.965 C 898.729 599.938 933.864 569.731 946.68 562.216 C 949.265 560.7 957.725 565.251 957.328 570.896 C 956.708 579.737 949.764 588.365 944.916 595.617 C 975.426 589.816 993.318 580.423 998.574 622.216 C 1000.11 634.408 1000.11 645.254 996.52 657.265 C 995.571 660.269 993.81 664.832 991.33 666.8 L 990.299 667.552 C 985.924 670.769 981.307 676.277 977.933 678.692 C 964.911 688.014 929.662 689.308 914.567 683.734 C 905.504 682.293 899.138 680.927 890.234 678.678 C 890.611 668.687 889.787 614.6 891.185 610.965 z" fill="rgb(225,177,160)" transform="translate(0,0)"></path>
<path d="M 997.434 647.597 L 996.102 652.002 L 996.52 657.265 C 995.571 660.269 993.81 664.832 991.33 666.8 L 990.299 667.552 C 985.924 670.769 981.307 676.277 977.933 678.692 C 964.911 688.014 929.662 689.308 914.567 683.734 C 918.964 679.131 949.24 677.028 957.161 672.142 C 966.056 668.712 973.231 664.018 980.907 658.508 C 985.339 655.327 992.624 649.505 997.434 647.597 z" fill="rgb(211,155,131)" transform="translate(0,0)"></path>
<path d="M 996.102 652.002 L 996.52 657.265 C 995.571 660.269 993.81 664.832 991.33 666.8 C 991.492 664.593 995.082 655.261 996.102 652.002 z" fill="rgb(173,135,121)" transform="translate(0,0)"></path>
<path d="M 891.185 610.965 C 898.729 599.938 933.864 569.731 946.68 562.216 C 949.265 560.7 957.725 565.251 957.328 570.896 C 956.708 579.737 949.764 588.365 944.916 595.617 C 975.426 589.816 993.318 580.423 998.574 622.216 C 1000.11 634.408 1000.11 645.254 996.52 657.265 L 996.102 652.002 L 997.434 647.597 L 997.112 646.219 C 997.06 639.964 996.886 631.998 997.036 625.949 C 997.136 617.175 993.546 599.857 985.407 595.163 C 974.734 589.009 953.91 595.563 942.184 597.84 C 946.459 588.079 958.399 577.804 955.01 566.073 C 946.375 557.177 921.202 584.406 914.265 590.861 C 913.291 591.502 913.518 591.3 912.804 592.229 C 908.692 595.904 894.981 608.596 891.185 610.965 z" fill="rgb(86,70,65)" transform="translate(0,0)"></path>
<path d="M 997.036 625.949 C 998.533 632.62 998.559 639.537 997.112 646.219 C 997.06 639.964 996.886 631.998 997.036 625.949 z" fill="rgb(173,135,121)" transform="translate(0,0)"></path>
<path d="M 914.265 590.861 C 913.929 591.861 913.787 591.895 912.804 592.229 C 913.518 591.3 913.291 591.502 914.265 590.861 z" fill="rgb(211,155,131)" transform="translate(0,0)"></path>
<path d="M 605.409 569.831 C 617.058 589.638 627.102 610.563 638.11 630.714 C 643.796 641.123 651.264 656.203 658.778 664.968 C 660.357 666.222 667.798 673.607 668.977 675.224 L 676.058 680.539 C 676.73 680.856 676.655 680.862 677.205 681.427 L 680.942 683.663 C 681.673 683.887 681.59 683.895 682.233 684.385 C 697.692 692.458 709.428 695.856 726.514 698.784 C 730.574 699.48 736.252 699.693 738.036 702.476 L 738.139 707.089 C 736.624 709.887 736.616 710.304 736.64 713.501 C 712.334 716.753 693.086 714.571 671.647 700.674 C 666.837 697.556 659.138 689.39 656.823 684.699 C 648.796 668.432 607.432 581.425 605.409 569.831 z" fill="rgb(190,78,54)" transform="translate(0,0)"></path>
<path d="M 658.778 664.968 C 660.357 666.222 667.798 673.607 668.977 675.224 C 667.176 674.585 659.039 666.865 658.778 664.968 z" fill="rgb(150,78,60)" transform="translate(0,0)"></path>
<path d="M 452.942 640.796 C 454.421 630.289 511.819 478.043 518.293 469.676 C 515.791 483.594 510.32 502.336 506.625 516.62 L 485.796 597.881 C 485.023 600.924 477.68 624.946 477.633 625.515 C 473.938 629.006 461.059 638.66 456.593 640.311 L 452.942 640.796 z" fill="rgb(190,78,54)" transform="translate(0,0)"></path>
<path d="M 605.409 569.831 C 600.707 559.907 574.313 513.458 573.219 507.176 L 574.686 507.326 C 577.8 511.381 587.23 530.692 590.636 537.008 C 603.556 560.738 616.284 584.571 628.818 608.507 C 654.999 658.311 664.062 687.13 728.298 696.996 C 742.905 699.24 769.399 698.141 784.843 698.136 L 888.866 698.121 C 889.259 695.1 889.046 668.963 888.84 665.725 C 888.939 641.922 888.096 618.381 888.209 594.817 C 882.387 595.479 833.811 594.863 828.643 594.066 C 814.283 593.919 799.921 593.953 785.561 594.168 C 773.601 594.413 756.982 595.186 745.592 594.247 C 752.684 593.791 759.224 594.74 766.325 593.126 C 806.005 591.745 850.219 592.79 890.108 592.958 C 890.033 597.835 889.36 606.81 891.185 610.965 C 889.787 614.6 890.611 668.687 890.234 678.678 C 899.138 680.927 905.504 682.293 914.567 683.734 C 929.662 689.308 964.911 688.014 977.933 678.692 C 981.307 676.277 985.924 670.769 990.299 667.552 L 991.33 666.8 C 973.365 698.829 918.976 688.04 890.071 679.905 L 890.302 699.801 C 853.843 699.24 817.377 699.181 780.916 699.623 C 774.49 699.658 744.363 699.477 740.362 700.383 C 738.913 703.29 739.089 704.069 738.918 707.423 L 738.139 707.089 L 738.036 702.476 C 736.252 699.693 730.574 699.48 726.514 698.784 C 709.428 695.856 697.692 692.458 682.233 684.385 C 681.59 683.895 681.673 683.887 680.942 683.663 L 677.205 681.427 C 676.655 680.862 676.73 680.856 676.058 680.539 L 668.977 675.224 C 667.798 673.607 660.357 666.222 658.778 664.968 C 651.264 656.203 643.796 641.123 638.11 630.714 C 627.102 610.563 617.058 589.638 605.409 569.831 z" fill="rgb(80,38,30)" transform="translate(0,0)"></path>
<path d="M 828.643 594.066 C 835.729 593.582 883.691 593.229 888.209 594.817 C 882.387 595.479 833.811 594.863 828.643 594.066 z" fill="rgb(190,78,54)" transform="translate(0,0)"></path>
<path d="M 761.032 331.221 L 760.653 333.681 C 738.711 349.963 718.244 354.255 691.306 355.147 C 679.66 365.86 675.583 381.064 670.305 395.854 C 711.91 420.871 733.388 448.825 746.443 496.789 C 754.954 528.061 750.067 561.016 747.455 592.889 L 766.325 593.126 C 759.224 594.74 752.684 593.791 745.592 594.247 C 745.029 591.319 736.097 572.566 734.131 569.101 C 715.774 536.748 695.111 468.933 667.017 446.613 L 666.449 443.473 C 687.411 460.157 693.947 478.556 705.067 502.009 C 714.365 521.539 723.507 541.144 732.491 560.821 C 735.148 566.641 741.893 582.365 744.721 586.981 L 745.656 586.865 L 746.105 584.837 C 746.451 583.603 746.558 583.419 746.612 582.183 C 747.531 571.859 748.314 561.898 749.173 551.23 C 753.996 491.376 725.504 425.377 669.658 398.527 C 666.17 396.85 645.403 394.416 640.086 393.566 C 619.124 390.215 596.628 386.204 575.711 383.356 L 573.716 382.702 C 582.433 377.042 584.087 353.199 585.138 343.188 L 585.78 342.998 C 586.031 352.568 585.754 357.279 583.136 366.616 C 582.115 371.228 579.936 376.884 578.325 381.449 C 606.484 386.727 641.163 390.34 668.136 396.426 C 674.502 380.719 677.199 367.239 689.239 354.607 C 727.787 350.28 729.213 351.54 761.032 331.221 z" fill="rgb(102,56,45)" transform="translate(0,0)"></path>
<path d="M 518.293 469.676 C 519.708 464.951 524.771 446.264 527.18 443.422 C 527.049 450.056 514.198 494.496 511.533 504.902 L 483.63 614.195 C 477.684 637.622 473.804 660.427 464.177 682.728 C 462.142 687.442 460.323 693.073 458.523 697.942 C 448.475 724.879 438.739 751.932 429.317 779.094 C 429.642 779.544 429.809 780.165 429.998 780.697 C 514.761 808.183 625.457 823.126 714.151 812.941 L 714.047 815.815 C 708.512 814.304 686.208 816.599 678.5 816.771 C 663.599 816.965 648.697 817.002 633.796 816.882 C 582.176 816.508 530.683 809.12 480.873 795.796 C 473.452 793.811 462.605 790.31 455.315 789.754 C 446.963 786.792 435.427 784.141 426.627 781.876 C 434.772 759.01 481.796 637.687 477.633 625.515 C 477.68 624.946 485.023 600.924 485.796 597.881 L 506.625 516.62 C 510.32 502.336 515.791 483.594 518.293 469.676 z" fill="rgb(80,38,30)" transform="translate(0,0)"></path>
<path d="M 318.768 742.268 C 319.873 739.211 320.947 735.493 321.949 732.353 L 354.372 634.074 C 359.803 617.498 368.107 589.256 375.408 574.067 C 380.652 563.155 411.396 536.252 421.528 526.498 L 481.909 467.931 C 494.637 455.608 563.279 387.663 572.601 382.85 L 571.947 385.142 C 562.475 391.827 548.931 405.505 540.124 413.935 L 485.008 467.292 C 463.847 487.523 442.803 507.877 421.88 528.354 C 413.993 535.937 382.077 565.432 378.254 572.761 C 369.222 590.078 360.177 622.881 353.543 642.345 C 342.362 675.146 331.291 708.12 321.052 741.177 C 324.504 742.466 332.81 745.817 336.017 746.597 L 335.461 747.683 C 330.628 746.699 323.597 743.973 318.768 742.268 z" fill="rgb(102,56,45)" transform="translate(0,0)"></path>
<path d="M 452.942 640.796 L 456.593 640.311 C 446.7 650.601 411.634 771.635 409.379 773.129 C 408.895 773.449 408.241 773.36 407.671 773.475 L 405.29 772.283 L 405.471 771.087 L 407.687 770.679 C 409.942 767.122 416.603 744.501 418.627 739.05 C 430.311 707.588 440.45 671.62 452.942 640.796 z" fill="rgb(150,78,60)" transform="translate(0,0)"></path>
<path d="M 738.139 707.089 L 738.918 707.423 C 738.708 741.215 732.813 779.097 732.03 813.001 C 727.919 813.278 717.573 813.309 714.831 815.522 L 714.047 815.815 L 714.151 812.941 C 718.889 811.981 724.939 811.91 729.878 811.695 C 731.744 784.593 736.645 739.165 736.64 713.501 C 736.616 710.304 736.624 709.887 738.139 707.089 z" fill="rgb(150,78,60)" transform="translate(0,0)"></path>
<path d="M 667.017 446.613 C 636.982 423.118 604.611 431.493 582.011 459.836 L 581.087 459.502 C 581.337 458.634 581.665 457.369 582.231 456.62 C 604.001 427.798 635.968 423.753 666.449 443.473 L 667.017 446.613 z" fill="rgb(102,56,45)" transform="translate(0,0)"></path>
<path d="M 888.866 698.121 C 887.313 690.321 887.886 673.692 888.84 665.725 C 889.046 668.963 889.259 695.1 888.866 698.121 z" fill="rgb(150,78,60)" transform="translate(0,0)"></path>
<path d="M 572.601 382.85 L 573.716 382.702 L 575.711 383.356 C 574.429 384.012 573.258 384.541 571.947 385.142 L 572.601 382.85 z" fill="rgb(190,78,54)" transform="translate(0,0)"></path>
<path d="M 746.612 582.183 C 746.558 583.419 746.451 583.603 746.105 584.837 C 745.608 583.326 745.221 583.174 746.612 582.183 z" fill="rgb(190,78,54)" transform="translate(0,0)"></path>
<path d="M 477.738 16.5261 C 504.168 -0.729833 541.394 8.37339 558.22 34.796 C 566.953 48.5107 568.361 60.8006 566.787 76.5836 C 606.205 56.6151 645.92 48.8812 688.988 62.9137 C 713.717 70.8768 735.628 85.7982 752.096 105.892 C 752.831 106.936 753.569 107.919 754.337 108.939 C 765.039 124.11 770.73 135.328 777.272 152.876 C 780.756 162.218 784.261 180.708 789.431 187.586 C 802.016 204.328 820.941 194.122 828.596 217.296 C 823.443 237.268 811.806 242.305 792.931 247.301 C 792.122 270.13 789.402 296.132 776.845 315.79 L 776.388 316.112 C 772.087 323.272 766.945 328.353 760.653 333.681 L 761.032 331.221 C 729.213 351.54 727.787 350.28 689.239 354.607 C 677.199 367.239 674.502 380.719 668.136 396.426 C 641.163 390.34 606.484 386.727 578.325 381.449 C 579.936 376.884 582.115 371.228 583.136 366.616 C 585.754 357.279 586.031 352.568 585.78 342.998 L 585.138 343.188 C 566.255 336.577 556.108 334.62 538.879 321.716 C 509.378 299.563 489.945 266.548 484.894 230.004 C 480.875 201.842 485.379 163.582 502.807 140.265 L 503.315 138.95 C 500.625 136.711 495.573 137.953 491.644 137.463 C 470.403 134.817 454.083 122.908 444.796 103.711 C 437.376 88.5004 436.375 70.9469 442.017 54.9906 C 448.395 37.0264 460.784 24.6922 477.738 16.5261 z" fill="rgb(86,70,65)" transform="translate(0,0)"></path>
<path d="M 657.38 207.305 C 695.906 194.579 728.279 156.927 743.683 120.131 C 745.361 116.124 746.696 107.77 748.978 105.294 L 750.692 106.461 L 752.096 105.892 C 752.831 106.936 753.569 107.919 754.337 108.939 C 765.039 124.11 770.73 135.328 777.272 152.876 C 780.756 162.218 784.261 180.708 789.431 187.586 C 802.016 204.328 820.941 194.122 828.596 217.296 C 823.443 237.268 811.806 242.305 792.931 247.301 C 792.122 270.13 789.402 296.132 776.845 315.79 L 776.388 316.112 C 772.087 323.272 766.945 328.353 760.653 333.681 L 761.032 331.221 C 729.213 351.54 727.787 350.28 689.239 354.607 C 677.199 367.239 674.502 380.719 668.136 396.426 C 641.163 390.34 606.484 386.727 578.325 381.449 C 579.936 376.884 582.115 371.228 583.136 366.616 C 585.754 357.279 586.031 352.568 585.78 342.998 C 587.843 340.435 596.922 335.539 600.255 332.163 C 615.586 316.632 619.847 298.938 624.665 278.943 C 571.096 263.006 575.939 203.124 620.745 204.467 L 630.929 207.478 C 638.527 212.596 641.27 216.119 646.672 223.261 C 649.873 217.773 652.963 211.813 657.38 207.305 z" fill="rgb(225,177,160)" transform="translate(0,0)"></path>
<path d="M 624.665 278.943 C 627.387 279.727 630.845 280.082 631.675 282.677 C 634.486 291.464 628.546 313.114 625.033 320.625 C 614.244 343.689 603.371 353.035 583.136 366.616 C 585.754 357.279 586.031 352.568 585.78 342.998 C 587.843 340.435 596.922 335.539 600.255 332.163 C 615.586 316.632 619.847 298.938 624.665 278.943 z" fill="rgb(211,155,131)" transform="translate(0,0)"></path>
<path d="M 823.68 210.145 C 833.47 229.644 807.325 243.907 791.072 245.186 C 787.387 241.332 780.643 241.054 775.32 240.099 C 793.159 235.237 814.815 227.991 823.68 210.145 z" fill="rgb(211,155,131)" transform="translate(0,0)"></path>
<path d="M 754.337 108.939 C 765.039 124.11 770.73 135.328 777.272 152.876 C 780.756 162.218 784.261 180.708 789.431 187.586 C 802.016 204.328 820.941 194.122 828.596 217.296 C 823.443 237.268 811.806 242.305 792.931 247.301 C 792.122 270.13 789.402 296.132 776.845 315.79 L 775.744 313.891 C 787.7 299.927 790.863 263.165 791.072 245.186 C 807.325 243.907 833.47 229.644 823.68 210.145 C 821.719 207.507 821.787 207.5 819.064 205.456 C 812.892 202.081 798.006 198.182 794.381 195.342 C 781.579 185.312 779.884 161.504 773.018 146.5 C 766.604 132.484 762.572 122.479 752.86 110.297 L 754.337 108.939 z" fill="rgb(86,70,65)" transform="translate(0,0)"></path>
<path d="M 774.442 315.989 L 776.388 316.112 C 772.087 323.272 766.945 328.353 760.653 333.681 L 761.032 331.221 C 768.915 324.312 768.846 323.528 774.442 315.989 z" fill="rgb(86,70,65)" transform="translate(0,0)"></path>
<path d="M 752.096 105.892 C 752.831 106.936 753.569 107.919 754.337 108.939 L 752.86 110.297 C 752.105 108.838 751.625 107.835 750.692 106.461 L 752.096 105.892 z" fill="rgb(71,57,55)" transform="translate(0,0)"></path>
<path d="M 819.064 205.456 C 821.787 207.5 821.719 207.507 823.68 210.145 C 821.157 208.276 820.885 208.01 819.064 205.456 z" fill="rgb(211,155,131)" transform="translate(0,0)"></path>
<path d="M 775.744 313.891 L 776.845 315.79 L 776.388 316.112 L 774.442 315.989 C 774.921 315.111 775.144 314.698 775.744 313.891 z" fill="rgb(173,135,121)" transform="translate(0,0)"></path>
<path d="M 722.344 231.572 C 738.979 228.628 754.904 239.56 758.134 256.142 C 761.363 272.724 750.706 288.835 734.182 292.349 C 723.238 294.677 711.889 290.919 704.496 282.519 C 697.104 274.12 694.818 262.385 698.518 251.825 C 702.217 241.265 711.326 233.522 722.344 231.572 z" fill="rgb(211,155,131)" transform="translate(0,0)"></path>
<path d="M 477.738 16.5261 C 476.566 18.8842 476.283 18.9166 473.974 20.3892 C 463.705 44.9112 450.004 64.4441 461.358 92.7098 C 466.632 105.79 476.897 116.231 489.886 121.724 C 499.979 125.969 508.761 126.209 519.504 125.575 C 515.338 128.936 510.896 132.361 507.09 136.094 C 504.353 135.521 504.803 136.477 503.315 138.95 C 500.625 136.711 495.573 137.953 491.644 137.463 C 470.403 134.817 454.083 122.908 444.796 103.711 C 437.376 88.5004 436.375 70.9469 442.017 54.9906 C 448.395 37.0264 460.784 24.6922 477.738 16.5261 z" fill="rgb(71,57,55)" transform="translate(0,0)"></path>
<path d="M 620.745 204.467 L 621.665 204.305 C 661.563 196.922 702.084 138.715 703.851 138.289 C 703.966 142.213 688.256 161.094 684.614 165.043 C 672.631 178.038 658.442 189.546 642.962 198.123 C 638.175 200.775 631.834 202.549 630.929 207.478 L 620.745 204.467 z" fill="rgb(37,30,28)" transform="translate(0,0)"></path>
<path d="M 503.315 138.95 C 504.803 136.477 504.353 135.521 507.09 136.094 C 506.102 138.508 505.356 139.751 502.807 140.265 L 503.315 138.95 z" fill="rgb(37,30,28)" transform="translate(0,0)"></path>
<path d="M 565.588 78.0558 C 566.16 77.6438 566.681 77.1222 567.428 77.2666 L 567.445 77.3041 L 567.363 77.4822 C 566.787 77.8581 566.333 77.9376 565.655 78.1655 C 565.093 78.782 564.634 79.4585 563.832 79.6938 L 563.768 79.6008 C 564.19 78.8826 564.866 78.5607 565.588 78.0558 z" fill="rgb(37,30,28)" transform="translate(0,0)"></path>
<path d="M 336.017 746.597 C 357.022 754.083 385.139 763.027 405.471 771.087 L 405.29 772.283 L 401.972 771.627 C 398.552 774.442 398.599 777.622 397.428 782.399 C 400.671 794.451 420.972 854.894 406.493 859.316 C 397.906 857.868 384.772 840.963 379.751 833.824 L 379.408 833.327 C 377.411 844.128 376.587 879.301 367.144 883.995 C 347.828 893.597 314.005 874.372 304.488 856.68 C 296.046 842.003 297.052 822.279 306.268 807.86 C 307.126 805.443 307.733 804.696 309.017 802.498 C 309.923 800.487 309.994 800.42 311.411 798.73 C 317.105 790.183 340.757 757.745 335.461 747.683 L 336.017 746.597 z" fill="rgb(225,177,160)" transform="translate(0,0)"></path>
<path d="M 336.017 746.597 C 357.022 754.083 385.139 763.027 405.471 771.087 L 405.29 772.283 L 401.972 771.627 C 398.552 774.442 398.599 777.622 397.428 782.399 C 400.671 794.451 420.972 854.894 406.493 859.316 C 397.906 857.868 384.772 840.963 379.751 833.824 L 379.408 833.327 C 377.411 844.128 376.587 879.301 367.144 883.995 C 347.828 893.597 314.005 874.372 304.488 856.68 C 296.046 842.003 297.052 822.279 306.268 807.86 L 308.055 807.864 C 305.561 812.475 304.443 814.995 302.54 819.889 C 314.116 847.446 340.915 866.07 362.835 883.872 C 369.318 882.057 371.545 878.764 372.616 872.202 C 374.976 857.73 376.248 842.578 377.191 827.935 C 381.848 834.077 398.613 855.762 404.687 857.883 C 407.883 857.712 406.509 858.274 408.912 856.049 C 413.959 843.673 399.235 796.003 395.383 781.279 L 398.568 770.859 C 386.313 766.206 373.865 762.593 361.374 757.65 C 353.383 762.439 336.506 773.29 329.269 776.9 C 327.153 779.831 315.258 795.779 314.294 797.848 L 311.411 798.73 C 317.105 790.183 340.757 757.745 335.461 747.683 L 336.017 746.597 z" fill="rgb(86,70,65)" transform="translate(0,0)"></path>
<path d="M 362.835 883.872 C 350.992 885.036 346.161 884.032 335.099 879.677 C 318.076 872.974 302.791 858.929 300.704 839.993 C 299.805 831.841 301.432 827.546 302.54 819.889 C 314.116 847.446 340.915 866.07 362.835 883.872 z" fill="rgb(211,155,131)" transform="translate(0,0)"></path>
<path d="M 338.964 749.788 C 342.018 751.084 358.855 757.16 361.374 757.65 C 353.383 762.439 336.506 773.29 329.269 776.9 C 332.522 767.435 335.066 759.047 338.964 749.788 z" fill="rgb(211,155,131)" transform="translate(0,0)"></path>
<path d="M 314.294 797.848 C 312.798 800.285 312.362 801.276 310.302 803.313 L 309.017 802.498 C 309.923 800.487 309.994 800.42 311.411 798.73 L 314.294 797.848 z" fill="rgb(173,135,121)" transform="translate(0,0)"></path>
<path d="M 309.017 802.498 L 310.302 803.313 C 309.192 805.195 308.877 805.838 308.055 807.864 L 306.268 807.86 C 307.126 805.443 307.733 804.696 309.017 802.498 z" fill="rgb(86,70,65)" transform="translate(0,0)"></path>
<metadata><recraft-signature>{"signed_by": "recraft", "signature_b64": "aWTigQ6z7MzDFz6+Vbf+8gaFlt5H3yzeePSYG7JIsyxY38KpOw6Gbx4E5MgfMGAtXjuTqFLn8gX/rHsbCIu2Bg==", "signing_algo": "Ed25519", "generation_timestamp": 1779092574, "identifier": "ed45d022-6ba1-49c3-a7a7-822e48a4f2dc"}</recraft-signature></metadata></svg>