<svg xmlns="http://www.w3.org/2000/svg" height="1024" preserveAspectRatio="none" style="display: block;" version="1.1" viewBox="0 0 2048 2048" width="1024">
<path d="M 0 0 L 2048 0 L 2048 2048 L 0 2048 L 0 0 z" fill="rgb(255,255,255)" transform="translate(0,0)"></path>
<path d="M 1150.62 857.923 C 1154.26 850.581 1156.64 839.275 1159.76 830.993 C 1168.83 806.958 1190.46 784.255 1214.39 775.083 C 1237.53 766.414 1263.16 767.333 1285.62 777.636 C 1309.2 788.397 1327.4 808.265 1336.06 832.693 C 1339.86 843.331 1341.25 851.747 1341.79 862.886 C 1342.38 876.784 1343.3 906.432 1341.48 920.203 L 1342.45 923.934 C 1355.32 897.223 1368.47 879.149 1398.26 868.848 C 1419.04 861.715 1441.81 863.162 1461.52 872.866 C 1484.43 884.178 1501.94 904.094 1510.22 928.265 C 1512.56 935.1 1517.09 953.603 1516.98 960.73 C 1522.15 985.364 1521.16 1054.79 1521.07 1082.78 C 1520.81 1148.09 1517.51 1213.34 1511.18 1278.33 C 1498.4 1400.7 1473.46 1524.01 1394.82 1623.08 C 1378.16 1644.07 1360.33 1660.67 1339.95 1677.97 C 1339.98 1710.43 1340.89 1742.7 1341.06 1775.11 C 1341.14 1789.43 1342.23 1815.13 1339.11 1828.24 C 1336.41 1839.4 1330.68 1849.6 1322.55 1857.71 C 1292.6 1887.99 1213.33 1907.94 1170.68 1910.32 C 1161.17 1913.75 1099.6 1915.26 1084.53 1915.18 C 999.157 1913.68 889.015 1913.94 819.652 1857.53 C 796.29 1838.53 801.234 1791.05 801.257 1763.63 L 801.159 1679.4 C 747.328 1655.04 673.612 1590.63 638.563 1543.47 C 551.626 1424.8 497.778 1262.62 545.804 1117.72 C 575.32 1028.68 619.949 966.325 704.464 922.531 L 706.857 921.603 C 715.69 918.414 726.215 912.972 735.126 909.081 C 780.159 889.421 827.679 875.403 871.218 852.45 C 884.889 845.243 898.798 848.947 912.243 854.607 C 915.806 856.106 919.191 858.677 922.74 859.577 L 923.578 857.606 C 926.564 857.974 929.538 858.44 932.494 859.001 C 936.415 859.744 942.228 862.097 946.085 863.493 C 967.125 871.115 982.111 888.56 993.515 906.965 C 995.18 917.573 999.602 927.608 1000.51 938.357 C 1004.6 986.619 986.898 1035.71 959.339 1074.72 C 952.758 1084.01 945.605 1092.88 937.923 1101.28 C 933.774 1105.83 926.057 1113.61 922.689 1118.24 C 922.269 1124.53 921.87 1129.83 922.044 1136.14 L 922.056 1156.37 C 921.754 1185.31 921.924 1197.37 940.265 1221 C 970.783 1248.03 1004.65 1253.24 1042.03 1233.82 C 1067.9 1220.38 1083.33 1192.29 1091.07 1164.93 C 1095.29 1174.07 1096.6 1198.21 1101.87 1207.21 C 1107.34 1167.66 1164.27 878.056 1157.3 860.987 C 1154.58 858.955 1154.03 858.215 1150.62 857.923 z" fill="rgb(231,169,107)" transform="translate(0,0)"></path>
<path d="M 1150.62 857.923 C 1154.26 850.581 1156.64 839.275 1159.76 830.993 C 1168.83 806.958 1190.46 784.255 1214.39 775.083 C 1237.53 766.414 1263.16 767.333 1285.62 777.636 C 1309.2 788.397 1327.4 808.265 1336.06 832.693 C 1339.86 843.331 1341.25 851.747 1341.79 862.886 C 1342.38 876.784 1343.3 906.432 1341.48 920.203 L 1342.45 923.934 C 1355.32 897.223 1368.47 879.149 1398.26 868.848 C 1419.04 861.715 1441.81 863.162 1461.52 872.866 C 1484.43 884.178 1501.94 904.094 1510.22 928.265 C 1512.56 935.1 1517.09 953.603 1516.98 960.73 C 1522.15 985.364 1521.16 1054.79 1521.07 1082.78 C 1520.81 1148.09 1517.51 1213.34 1511.18 1278.33 C 1498.4 1400.7 1473.46 1524.01 1394.82 1623.08 C 1378.16 1644.07 1360.33 1660.67 1339.95 1677.97 C 1339.98 1710.43 1340.89 1742.7 1341.06 1775.11 C 1341.14 1789.43 1342.23 1815.13 1339.11 1828.24 C 1336.41 1839.4 1330.68 1849.6 1322.55 1857.71 C 1292.6 1887.99 1213.33 1907.94 1170.68 1910.32 C 1193.76 1886.02 1208.85 1877.92 1219.85 1843.17 C 1234.81 1795.89 1211.38 1748.36 1162.96 1734.91 C 1150.32 1731.4 1129.68 1738.72 1121.18 1729.48 C 1114.45 1713.16 1147.71 1711.12 1157.79 1708.78 C 1172.09 1705.48 1186.08 1700.93 1199.58 1695.18 C 1336.83 1638 1406.43 1475.85 1427.31 1337.73 C 1429.5 1323.27 1431.22 1308.38 1433.15 1293.84 C 1426.28 1301.22 1419.62 1308.28 1411.4 1314.14 C 1365.1 1347.2 1304.44 1336.87 1271.1 1292.41 C 1241.93 1323.4 1207.61 1336.74 1165.4 1325.2 C 1129.72 1315.44 1111.39 1300.55 1093.03 1268.89 C 1086.65 1274.76 1079.43 1279.64 1071.59 1283.36 C 1044.53 1296.49 1015.09 1291.96 987.793 1282.55 C 1028.88 1336.8 1047.13 1390.46 1046.47 1459.09 C 1046.21 1489.47 1040.58 1518.65 1028.78 1546.7 C 1025.02 1554.84 1018.92 1573.19 1007.74 1572.38 C 1003.67 1572.08 998.41 1564.25 999.021 1559.83 C 1000.25 1550.96 1004.47 1542.75 1006.62 1534.13 C 1026.56 1454.24 1003.48 1366.82 952.289 1303.23 C 919.565 1262.67 862.96 1229.99 811.006 1224.46 C 816.717 1213.06 820.228 1200.7 823.915 1188.53 C 844.416 1184.08 863.746 1179.28 883.473 1171.95 C 896.432 1167.13 909.121 1161.11 922.056 1156.37 C 921.754 1185.31 921.924 1197.37 940.265 1221 C 970.783 1248.03 1004.65 1253.24 1042.03 1233.82 C 1067.9 1220.38 1083.33 1192.29 1091.07 1164.93 C 1095.29 1174.07 1096.6 1198.21 1101.87 1207.21 C 1107.34 1167.66 1164.27 878.056 1157.3 860.987 C 1154.58 858.955 1154.03 858.215 1150.62 857.923 z" fill="rgb(173,124,84)" transform="translate(0,0)"></path>
<path d="M 1150.62 857.923 C 1154.26 850.581 1156.64 839.275 1159.76 830.993 C 1168.83 806.958 1190.46 784.255 1214.39 775.083 C 1237.53 766.414 1263.16 767.333 1285.62 777.636 C 1309.2 788.397 1327.4 808.265 1336.06 832.693 C 1339.86 843.331 1341.25 851.747 1341.79 862.886 C 1338.01 868.829 1331.77 904.747 1329.37 913.712 C 1310.47 984.4 1294.9 1055.92 1278.31 1127.17 C 1274.48 1143.62 1270.75 1159.04 1265.52 1175.15 C 1265.09 1176.57 1264.78 1177.72 1264.42 1179.16 C 1254.05 1210.23 1242.67 1254.03 1211.42 1269.67 C 1195.69 1277.54 1174.65 1280.14 1158.02 1274.27 C 1132.71 1265.96 1105.95 1233.48 1101.87 1207.21 C 1107.34 1167.66 1164.27 878.056 1157.3 860.987 C 1154.58 858.955 1154.03 858.215 1150.62 857.923 z" fill="rgb(231,169,107)" transform="translate(0,0)"></path>
<path d="M 1178.59 1116.17 C 1201.13 1114.25 1210.75 1121.19 1229.2 1132.42 C 1254.98 1149.1 1251.13 1172.44 1245.76 1197.4 C 1238.42 1231.48 1234.32 1253.03 1194.24 1258.66 C 1162.41 1261.35 1114.53 1240.69 1122.62 1199.8 C 1130.9 1157.96 1128.33 1127.29 1178.59 1116.17 z" fill="rgb(173,124,84)" transform="translate(0,0)"></path>
<path d="M 1178.8 1138.32 C 1206.33 1137.95 1238.33 1157.63 1228.31 1188.54 C 1219.36 1216.12 1222.61 1231.92 1189.24 1238.91 C 1176.34 1239.29 1169.47 1237.05 1158 1231.88 C 1128.97 1218.83 1139.08 1199.49 1142.89 1175.48 C 1146.62 1151.97 1154.23 1142.13 1178.8 1138.32 z" fill="rgb(231,169,107)" transform="translate(0,0)"></path>
<path d="M 1265.52 1175.15 C 1270.75 1159.04 1274.48 1143.62 1278.31 1127.17 C 1294.9 1055.92 1310.47 984.4 1329.37 913.712 C 1331.77 904.747 1338.01 868.829 1341.79 862.886 C 1342.38 876.784 1343.3 906.432 1341.48 920.203 L 1342.45 923.934 C 1355.32 897.223 1368.47 879.149 1398.26 868.848 C 1419.04 861.715 1441.81 863.162 1461.52 872.866 C 1484.43 884.178 1501.94 904.094 1510.22 928.265 C 1512.56 935.1 1517.09 953.603 1516.98 960.73 C 1514.59 964.837 1513.61 976.097 1512.94 981.164 C 1510.49 999.892 1505.92 1018.02 1501.59 1036.37 C 1486.87 1019.4 1479.36 1027.83 1474.31 1046.14 C 1463.93 1083.61 1456.32 1118.57 1443.38 1155.66 C 1425.93 1205.67 1405.51 1279.19 1344.51 1288.82 C 1316.96 1293.17 1275.64 1267.89 1271.87 1240.23 C 1267.34 1231.87 1267.16 1199.72 1266.91 1189.22 C 1266.03 1184.99 1266.24 1183.1 1264.42 1179.16 C 1264.78 1177.72 1265.09 1176.57 1265.52 1175.15 z" fill="rgb(231,169,107)" transform="translate(0,0)"></path>
<path d="M 1265.52 1175.15 C 1270.75 1159.04 1274.48 1143.62 1278.31 1127.17 C 1294.9 1055.92 1310.47 984.4 1329.37 913.712 C 1331.77 904.747 1338.01 868.829 1341.79 862.886 C 1342.38 876.784 1343.3 906.432 1341.48 920.203 C 1340.25 925.339 1340.19 925.247 1342.25 929.987 C 1344.73 935.698 1340.98 946.142 1339.88 952.777 C 1325.16 1041.83 1299.82 1128.23 1278.67 1215.84 C 1276.7 1224.02 1274.84 1232.47 1271.87 1240.23 C 1267.34 1231.87 1267.16 1199.72 1266.91 1189.22 C 1266.03 1184.99 1266.24 1183.1 1264.42 1179.16 C 1264.78 1177.72 1265.09 1176.57 1265.52 1175.15 z" fill="rgb(173,124,84)" transform="translate(0,0)"></path>
<path d="M 1265.52 1175.15 C 1267.55 1178.79 1267 1185.06 1266.91 1189.22 C 1266.03 1184.99 1266.24 1183.1 1264.42 1179.16 C 1264.78 1177.72 1265.09 1176.57 1265.52 1175.15 z" fill="rgb(151,106,72)" transform="translate(0,0)"></path>
<path d="M 1342.53 1152.41 C 1366.1 1150.68 1392.17 1169.64 1393.54 1195.85 C 1394.13 1207.12 1392.22 1213.95 1390.78 1224.79 C 1386.76 1255.15 1377.98 1275.33 1343.71 1278.11 C 1308.95 1275.07 1282.11 1256.42 1291.7 1217.87 C 1299.97 1184.64 1301.97 1155.54 1342.53 1152.41 z" fill="rgb(173,124,84)" transform="translate(0,0)"></path>
<path d="M 1342.15 1172.32 C 1365.53 1172.44 1381.48 1191.34 1374.35 1214.02 C 1367.52 1235.7 1372.74 1255.5 1342.56 1257.23 C 1292.06 1254.57 1307.16 1226.47 1315.49 1194.89 C 1319.83 1178.41 1326.8 1174.71 1342.15 1172.32 z" fill="rgb(231,169,107)" transform="translate(0,0)"></path>
<path d="M 1271.87 1240.23 C 1275.64 1267.89 1316.96 1293.17 1344.51 1288.82 C 1405.51 1279.19 1425.93 1205.67 1443.38 1155.66 C 1456.32 1118.57 1463.93 1083.61 1474.31 1046.14 C 1479.36 1027.83 1486.87 1019.4 1501.59 1036.37 C 1494.96 1085.68 1478.34 1133.42 1464.05 1181.13 C 1444.21 1247.4 1419.32 1335.32 1331.24 1322.36 C 1298.65 1317.56 1284.59 1302.59 1265.36 1277.32 C 1247.05 1298.68 1228.95 1309.96 1200.56 1312.06 C 1151.45 1315.69 1117.16 1293.23 1098.92 1248.63 C 1077.13 1270.87 1065.14 1280.33 1032.64 1282.28 C 996.63 1284.43 946.972 1259.61 940.265 1221 C 970.783 1248.03 1004.65 1253.24 1042.03 1233.82 C 1067.9 1220.38 1083.33 1192.29 1091.07 1164.93 C 1095.29 1174.07 1096.6 1198.21 1101.87 1207.21 C 1105.95 1233.48 1132.71 1265.96 1158.02 1274.27 C 1174.65 1280.14 1195.69 1277.54 1211.42 1269.67 C 1242.67 1254.03 1254.05 1210.23 1264.42 1179.16 C 1266.24 1183.1 1266.03 1184.99 1266.91 1189.22 C 1267.16 1199.72 1267.34 1231.87 1271.87 1240.23 z" fill="rgb(139,100,72)" transform="translate(0,0)"></path>
<path d="M 706.857 921.603 C 715.69 918.414 726.215 912.972 735.126 909.081 C 780.159 889.421 827.679 875.403 871.218 852.45 C 884.889 845.243 898.798 848.947 912.243 854.607 C 915.806 856.106 919.191 858.677 922.74 859.577 L 922.834 861.226 C 924.932 862.332 925.307 862.531 927.151 863.876 L 925.289 865.604 C 934.51 876.957 940.605 888.07 942.418 902.129 C 948.42 948.683 927.788 975.141 887.635 994.995 C 871.189 1003.13 852.639 1020.78 831.073 1017.62 C 816.237 1015.55 799.325 999.973 790.976 988.035 C 776.407 967.441 770.808 941.821 775.459 917.027 C 775.757 915.461 776.042 914.22 776.442 912.684 C 766.433 913.4 708.217 924.018 704.464 922.531 L 706.857 921.603 z" fill="rgb(173,124,84)" transform="translate(0,0)"></path>
<path d="M 922.834 861.226 C 924.932 862.332 925.307 862.531 927.151 863.876 L 925.289 865.604 C 923.661 864.194 922.267 863.353 922.834 861.226 z" fill="rgb(192,139,93)" transform="translate(0,0)"></path>
<path d="M 885.083 871.025 C 885.917 871.071 886.752 871.117 887.586 871.163 C 924.827 871.766 928.313 940.554 902.95 957.415 C 885.078 969.297 861.341 982.678 841.029 990.45 C 838.427 991.446 833.962 991.067 831.148 990.773 C 814.911 981.82 807.495 967.746 801.61 951.018 C 797.063 938.093 792.631 930.355 796.125 916.403 C 799.066 904.66 809.126 904.553 819.004 900.22 C 828.368 896.113 837.466 893.436 846.723 889.194 C 860.441 884.138 872.1 877.32 885.083 871.025 z" fill="rgb(247,203,167)" transform="translate(0,0)"></path>
<path d="M 923.578 857.606 C 926.564 857.974 929.538 858.44 932.494 859.001 C 936.415 859.744 942.228 862.097 946.085 863.493 C 967.125 871.115 982.111 888.56 993.515 906.965 C 995.18 917.573 999.602 927.608 1000.51 938.357 C 1004.6 986.619 986.898 1035.71 959.339 1074.72 C 952.758 1084.01 945.605 1092.88 937.923 1101.28 C 933.774 1105.83 926.057 1113.61 922.689 1118.24 C 922.269 1124.53 921.87 1129.83 922.044 1136.14 L 922.056 1156.37 C 909.121 1161.11 896.432 1167.13 883.473 1171.95 C 863.746 1179.28 844.416 1184.08 823.915 1188.53 C 820.228 1200.7 816.717 1213.06 811.006 1224.46 C 804.876 1237.81 794.357 1253.95 784.639 1264.96 C 777.983 1272.5 763.106 1261.52 769.461 1252.96 C 786.285 1230.3 796.583 1208.47 806.511 1182.16 C 807.19 1179.25 808.116 1176.5 808.784 1173.48 L 809.779 1168.98 C 811.103 1162.85 811.975 1158.43 814.159 1152.49 C 904.863 1116.41 982.124 1025.64 964.557 923.429 C 961.125 903.455 943.747 875.542 927.151 863.876 C 925.307 862.531 924.932 862.332 922.834 861.226 L 922.74 859.577 L 923.578 857.606 z" fill="rgb(139,100,72)" transform="translate(0,0)"></path>
<path d="M 806.511 1182.16 C 787.32 1178.45 763.212 1176.52 747.009 1163.49 C 740.222 1158.03 748.031 1142.87 756.014 1146.65 C 777.002 1156.61 791.352 1158.32 814.159 1152.49 C 811.975 1158.43 811.103 1162.85 809.779 1168.98 L 808.784 1173.48 C 808.116 1176.5 807.19 1179.25 806.511 1182.16 z" fill="rgb(173,124,84)" transform="translate(0,0)"></path>
<path d="M 659.132 999.163 C 674.516 997.916 687.072 1003.62 690.818 1019.89 C 694.759 1037 674.6 1048.88 664.14 1061.64 C 640.83 1090.06 625.17 1120.48 614.515 1155.71 C 608.653 1175.09 608.409 1193.88 603.269 1213.12 C 601.581 1219.34 595.789 1223.23 590.219 1226 C 585.007 1227.31 580.374 1227.23 575.064 1225.96 C 547.006 1219.24 562.767 1163.73 567.841 1144.25 C 578.631 1102.81 601.908 1061.4 629.08 1028.34 C 638.481 1016.91 645.704 1006.65 659.132 999.163 z" fill="rgb(247,203,167)" transform="translate(0,0)"></path>
<path d="M 706.857 921.603 C 707.28 897.665 705.818 868.096 705.76 843.362 L 705.039 596.492 C 704.855 490.623 700.057 385.985 722.895 281.721 C 728.151 256.113 734.751 236.148 744.671 211.93 C 784.718 114.163 903.361 102.364 940.513 208.476 C 948.489 231.256 944.877 266.805 944.434 293.097 C 944.155 313.672 944.04 334.249 944.089 354.826 L 941.985 709.78 C 941.917 721.318 940.329 790.589 942.39 796.54 L 944.028 797.239 C 949.768 793.084 952.784 773.821 958.021 763.332 C 962.911 753.708 969.313 744.93 976.982 737.333 C 996.334 717.746 1022.84 706.908 1050.37 707.324 C 1076 707.432 1100.53 717.738 1118.54 735.964 C 1143.14 760.839 1150.25 787.415 1149.93 821.017 C 1149.89 828.975 1149.37 850.966 1150.62 857.923 C 1154.03 858.215 1154.58 858.955 1157.3 860.987 C 1164.27 878.056 1107.34 1167.66 1101.87 1207.21 C 1096.6 1198.21 1095.29 1174.07 1091.07 1164.93 C 1083.33 1192.29 1067.9 1220.38 1042.03 1233.82 C 1004.65 1253.24 970.783 1248.03 940.265 1221 C 921.924 1197.37 921.754 1185.31 922.056 1156.37 L 922.044 1136.14 C 921.87 1129.83 922.269 1124.53 922.689 1118.24 C 926.057 1113.61 933.774 1105.83 937.923 1101.28 C 945.605 1092.88 952.758 1084.01 959.339 1074.72 C 986.898 1035.71 1004.6 986.619 1000.51 938.357 C 999.602 927.608 995.18 917.573 993.515 906.965 C 982.111 888.56 967.125 871.115 946.085 863.493 C 942.228 862.097 936.415 859.744 932.494 859.001 C 929.538 858.44 926.564 857.974 923.578 857.606 L 922.74 859.577 C 919.191 858.677 915.806 856.106 912.243 854.607 C 898.798 848.947 884.889 845.243 871.218 852.45 C 827.679 875.403 780.159 889.421 735.126 909.081 C 726.215 912.972 715.69 918.414 706.857 921.603 z" fill="rgb(231,169,107)" transform="translate(0,0)"></path>
<path d="M 993.515 906.965 C 1010.55 927.503 1015.5 960.738 1013.07 986.535 C 1009.4 1025.4 987.011 1063.89 962.785 1093.69 C 979.556 1082.99 1000.1 1075.49 1019.34 1079.88 C 1043.37 1085.35 1077.9 1105.95 1075.42 1134 C 1070.41 1190.8 1055.08 1242.14 985.357 1219.91 C 933.68 1203.43 935.109 1182.07 944.671 1134.92 C 946.364 1127.62 947.909 1117.28 950.068 1109.18 C 939.985 1120.9 933.972 1126.29 922.044 1136.14 C 921.87 1129.83 922.269 1124.53 922.689 1118.24 C 926.057 1113.61 933.774 1105.83 937.923 1101.28 C 945.605 1092.88 952.758 1084.01 959.339 1074.72 C 986.898 1035.71 1004.6 986.619 1000.51 938.357 C 999.602 927.608 995.18 917.573 993.515 906.965 z" fill="rgb(173,124,84)" transform="translate(0,0)"></path>
<path d="M 999.055 1101.29 C 1016.04 1100.56 1047.58 1112.31 1052.64 1129.96 C 1056.39 1143.04 1048.82 1174.74 1042.76 1187.39 C 1037.93 1197.48 1024.75 1202.67 1014.3 1205.19 C 994.974 1205.27 965.715 1196.39 956.585 1177.86 C 956.353 1165.13 959.164 1152.02 961.038 1139.47 C 964.429 1116.75 976.257 1105.16 999.055 1101.29 z" fill="rgb(231,169,107)" transform="translate(0,0)"></path>
<path d="M 1145.75 822.648 C 1146.54 819.045 1146.55 818.21 1148.53 814.985 C 1149.89 817.097 1149.29 817.921 1149.18 821.017 L 1149.93 821.017 C 1149.89 828.975 1149.37 850.966 1150.62 857.923 C 1154.03 858.215 1154.58 858.955 1157.3 860.987 C 1164.27 878.056 1107.34 1167.66 1101.87 1207.21 C 1096.6 1198.21 1095.29 1174.07 1091.07 1164.93 C 1091.53 1149.5 1100.21 1118.93 1102.45 1100.88 C 1113.89 1008.75 1125.49 913.274 1145.75 822.648 z" fill="rgb(173,124,84)" transform="translate(0,0)"></path>
<path d="M 923.578 857.606 C 925.568 849.482 926.632 839.89 928.204 831.513 L 929.165 826.512 L 930.139 821.51 C 931.605 814.938 933.989 797.578 945.009 800.84 C 954.922 803.774 951.492 812.825 950.911 820.495 C 948.738 834.822 947.377 849.026 946.085 863.493 C 942.228 862.097 936.415 859.744 932.494 859.001 C 929.538 858.44 926.564 857.974 923.578 857.606 z" fill="rgb(173,124,84)" transform="translate(0,0)"></path>
<path d="M 826.312 175.162 C 842.613 172.751 853.376 181.113 854.055 197.83 C 854.742 214.715 837.898 216.481 828.186 225.414 C 821.874 232.09 816.265 241.978 812.516 250.118 C 795.167 287.781 794.458 329.761 788.766 369.934 C 788.02 375.201 779.246 380.252 774.385 382.302 C 742.534 387.271 746.114 355.191 748.156 334.485 C 753.683 278.442 765.909 197.664 826.312 175.162 z" fill="rgb(247,203,167)" transform="translate(0,0)"></path>
<path d="M 825.662 645.212 C 851.062 642.328 877.395 649.394 894.194 669.837 C 907.428 685.943 892.867 699.531 877.361 686.318 C 868.324 678.617 859.539 673.561 848.237 670.017 C 834.311 667.057 817.09 669.738 805.171 677.963 C 798.318 682.692 786.666 694.693 777.499 690.83 C 771.398 688.259 771.591 676.285 775.443 671.869 C 788.061 657.402 807.001 648.727 825.662 645.212 z" fill="rgb(173,124,84)" transform="translate(0,0)"></path>
<metadata><recraft-signature>{"signed_by": "recraft", "signature_b64": "RHQmMzeQLC/Z1mGEdjEVnpSGlKiVSGaDc/i1EKjrNV3iqxglONCZ3RPWH16ChHQhiFo+ZOItjqnHcS+1bjKeCQ==", "signing_algo": "Ed25519", "generation_timestamp": 1779099659, "identifier": "1548d648-0e0d-47fc-85db-b2c6191c270d"}</recraft-signature></metadata></svg>