<svg xmlns="http://www.w3.org/2000/svg" height="1024" preserveAspectRatio="none" style="display: block;" version="1.1" viewBox="0 0 2048 2048" width="1024">
<path d="M 0 0 L 2048 0 L 2048 2048 L 0 2048 L 0 0 z" fill="rgb(255,255,255)" transform="translate(0,0)"></path>
<path d="M 1103.26 616.867 C 1113.32 616.61 1121.03 616.387 1130.73 613.749 C 1131.01 650.829 1133.04 689.043 1134.9 726.16 C 1135.87 745.578 1136.18 775.055 1138.52 793.432 C 1134.99 798.154 1131 802.883 1127.04 807.277 C 1109.81 826.427 1093.22 846.625 1075.45 865.245 C 1080.36 873.092 1103.2 893.63 1110.7 902.747 C 1111.84 904.137 1128.12 922.023 1129.1 922.872 C 1132.72 926.083 1138.69 933.259 1142.27 937.283 L 1143.57 935.73 C 1154.83 925.278 1165.49 912.335 1175.62 900.666 C 1189.69 884.522 1203.66 868.297 1217.55 851.991 C 1237.28 828.726 1264.77 786.913 1301.77 820.239 C 1312.62 830.01 1314.04 854.231 1306.88 866.394 C 1295.93 884.023 1279.79 899.459 1266.98 915.856 C 1249.45 936.276 1232.22 959.559 1214.58 979.281 C 1214.6 982.675 1214.1 985.162 1213.87 988.485 C 1213.43 994.748 1211.14 1002.53 1212.39 1008.58 C 1212.43 1008.77 1215.07 1009.22 1215.72 1009.49 C 1220.88 1010.15 1223.08 1010.17 1228.19 1010.23 C 1252.5 982.714 1275.52 954.012 1300.09 926.592 C 1324.86 898.933 1369.44 912.059 1369.48 950.281 C 1369.5 972.122 1345.37 992.029 1332.14 1008.8 L 1404.98 1009.11 C 1417.08 1009.17 1435.69 1008.75 1447.36 1009.81 L 1614.49 1009.73 C 1639 1009.7 1669 1008.6 1693.13 1011.2 C 1700.78 1012.02 1712.47 1019.77 1718.01 1025.52 C 1727.8 1035.74 1733.13 1049.44 1732.83 1063.59 C 1732.41 1077.8 1726.41 1091.28 1716.12 1101.1 C 1704 1112.64 1685.94 1117.17 1669.49 1115.51 C 1667.4 1126.52 1665.89 1139.46 1663.53 1149.99 C 1643.01 1256.85 1596.86 1344.73 1523.03 1424.88 C 1509.49 1439.58 1485.5 1464.25 1469.84 1476.24 C 1484.25 1490.48 1512.55 1530.1 1525.74 1547.19 L 1595.55 1636.53 C 1613.61 1659.86 1633.04 1686.08 1651.7 1708.69 C 1621.19 1707.83 1588.36 1708.46 1557.65 1708.54 L 1398.01 1708.78 C 1376.64 1708.78 1353.22 1709.29 1332.12 1708.73 C 1310.67 1685.23 1291.97 1656.09 1271.71 1631.33 C 1267.17 1625.78 1257.25 1614.72 1253.9 1609.38 C 1228.04 1617.48 1200.59 1625.48 1174.01 1631.14 C 1070.31 1653.19 955.076 1652.69 851.932 1627.71 C 835.918 1623.83 806.681 1616.12 791.42 1610.23 C 787.089 1612.71 721.514 1699.17 714.668 1708.72 C 681.32 1709.88 641.452 1708.88 607.757 1708.84 L 392.668 1708.33 C 400.107 1700.46 407.194 1690.34 414.127 1681.88 C 431.909 1660.17 448.253 1637.19 465.533 1615.19 L 529.622 1533.1 C 539.682 1520.27 564.464 1490.36 570.606 1477.66 C 564.258 1471.51 557.193 1465.69 550.628 1459.72 C 463.368 1380.37 393.146 1266.73 374.333 1149.28 C 372.256 1138.05 371.046 1127.35 369.687 1116.04 C 355.382 1116.19 341.855 1114.36 330.008 1105.69 C 318.556 1097.31 311.016 1084.63 309.129 1070.57 C 304.526 1037.65 325.754 1013.11 358.475 1009.52 C 367.249 1006.67 527.14 1008.79 546.069 1008.87 C 529.128 999.111 515.186 984.892 505.759 967.762 C 492.898 944.341 489.892 916.763 497.405 891.12 C 505.724 862.933 524.355 842.35 549.862 828.588 C 594.286 803.61 660.048 825.193 684.127 869.346 C 690.925 881.812 695.228 897.918 697.701 911.859 L 698.719 912.719 L 700.234 912.902 C 744.854 924.685 762.806 959.876 764.621 1003.3 C 781.988 992.521 795.092 996.853 810.794 1008.16 C 813.605 1008.1 816.416 1008.09 819.227 1008.1 C 818.431 1000.7 809.26 990.696 805.426 981.929 C 795.655 968.24 788.216 957.683 787.109 940.203 L 786.61 932.889 C 778.798 920.434 770.728 908.439 762.514 896.262 C 752.705 881.72 741.056 867.318 742.727 848.711 C 743.64 837.951 749.037 828.073 757.598 821.491 C 765.796 815.149 776.275 812.527 786.495 814.261 C 794.87 815.787 802.581 819.832 808.596 825.856 C 817.926 835.094 838.486 870.501 847.375 884.553 C 860.322 904.7 873.577 924.648 887.133 944.39 C 891.403 939.03 895.835 933.801 900.422 928.71 C 887.152 910.028 848.982 858.617 845.305 838.807 C 843.402 828.556 845.07 817.396 851.108 808.755 C 856.238 801.414 865.214 794.233 874.298 792.949 C 889.084 790.859 901.25 795.316 912.777 804.301 C 913.071 781.432 914.779 756.025 915.813 733.025 C 917.861 693.551 919.163 654.041 919.716 614.518 C 928.649 615.646 935.315 616.108 944.336 616.495 C 996.765 616.783 1051.17 615.902 1103.26 616.867 z" fill="rgb(232,151,114)" transform="translate(0,0)"></path>
<path d="M 630.427 1402.7 C 659.989 1457.86 707.769 1505.25 768.736 1523.5 C 795.031 1531.47 822.517 1534.79 849.952 1533.28 C 845.481 1539.15 839.435 1547.61 834.729 1553 C 827.19 1562.71 816.849 1575.02 809.952 1584.68 C 806.413 1588.91 792.058 1606.21 791.42 1610.23 C 787.089 1612.71 721.514 1699.17 714.668 1708.72 C 681.32 1709.88 641.452 1708.88 607.757 1708.84 L 392.668 1708.33 C 400.107 1700.46 407.194 1690.34 414.127 1681.88 C 431.909 1660.17 448.253 1637.19 465.533 1615.19 L 529.622 1533.1 C 539.682 1520.27 564.464 1490.36 570.606 1477.66 C 575.51 1475.86 609.922 1429.86 615.497 1422.62 L 626.583 1407.99 L 630.427 1402.7 z" fill="rgb(230,227,212)" transform="translate(0,0)"></path>
<path d="M 630.427 1402.7 C 659.989 1457.86 707.769 1505.25 768.736 1523.5 C 795.031 1531.47 822.517 1534.79 849.952 1533.28 C 845.481 1539.15 839.435 1547.61 834.729 1553 C 831.504 1550.37 814.64 1552.76 809.867 1553.27 C 776.766 1556.78 748.082 1548.07 718.474 1533.95 C 668.69 1510.21 634.688 1463.89 627.103 1409.29 C 626.93 1408.86 626.757 1408.42 626.583 1407.99 L 630.427 1402.7 z" fill="rgb(212,195,158)" transform="translate(0,0)"></path>
<path d="M 1411.42 1401.84 L 1418.21 1410.22 C 1429.3 1423.89 1440.21 1437.7 1450.93 1451.66 C 1455.47 1457.6 1465.2 1471.21 1469.84 1476.24 C 1484.25 1490.48 1512.55 1530.1 1525.74 1547.19 L 1595.55 1636.53 C 1613.61 1659.86 1633.04 1686.08 1651.7 1708.69 C 1621.19 1707.83 1588.36 1708.46 1557.65 1708.54 L 1398.01 1708.78 C 1376.64 1708.78 1353.22 1709.29 1332.12 1708.73 C 1310.67 1685.23 1291.97 1656.09 1271.71 1631.33 C 1267.17 1625.78 1257.25 1614.72 1253.9 1609.38 C 1250.54 1603.94 1239.23 1590.52 1234.76 1584.92 C 1226.82 1574.28 1218.39 1563.56 1210.25 1553.03 L 1198.95 1539.03 C 1222.49 1537.33 1244.76 1536.12 1267.39 1528.62 C 1337.34 1505.41 1377.81 1464.77 1411.42 1401.84 z" fill="rgb(230,227,212)" transform="translate(0,0)"></path>
<path d="M 1411.42 1401.84 L 1418.21 1410.22 C 1418.05 1410.63 1417.89 1411.03 1417.73 1411.43 C 1406.01 1490.36 1334.64 1549.07 1256.13 1553.19 C 1247.29 1553.66 1214.79 1551.1 1210.25 1553.03 L 1198.95 1539.03 C 1222.49 1537.33 1244.76 1536.12 1267.39 1528.62 C 1337.34 1505.41 1377.81 1464.77 1411.42 1401.84 z" fill="rgb(212,195,158)" transform="translate(0,0)"></path>
<path d="M 1228.19 1010.23 C 1252.5 982.714 1275.52 954.012 1300.09 926.592 C 1324.86 898.933 1369.44 912.059 1369.48 950.281 C 1369.5 972.122 1345.37 992.029 1332.14 1008.8 L 1404.98 1009.11 C 1417.08 1009.17 1435.69 1008.75 1447.36 1009.81 L 1614.49 1009.73 C 1639 1009.7 1669 1008.6 1693.13 1011.2 C 1700.78 1012.02 1712.47 1019.77 1718.01 1025.52 C 1727.8 1035.74 1733.13 1049.44 1732.83 1063.59 C 1732.41 1077.8 1726.41 1091.28 1716.12 1101.1 C 1704 1112.64 1685.94 1117.17 1669.49 1115.51 C 1667.4 1126.52 1665.89 1139.46 1663.53 1149.99 C 1630.72 1150.6 1596.46 1149.97 1563.5 1149.96 C 1526.01 1150.3 1488.52 1150.27 1451.04 1149.86 L 1445.48 1147.08 C 1419.68 1134.39 1396.3 1134.5 1369.6 1143.63 C 1360.77 1147.3 1353.97 1150.38 1345.81 1155.47 L 1310.65 1117.34 C 1297.86 1104.38 1285.25 1091.24 1272.83 1077.93 C 1255.52 1057.9 1235.35 1039.53 1219.48 1021.09 C 1216.25 1017.59 1214.12 1014.86 1211.11 1011.4 C 1213.23 1010.31 1213.4 1010.22 1215.72 1009.49 C 1220.88 1010.15 1223.08 1010.17 1228.19 1010.23 z" fill="rgb(110,74,20)" transform="translate(0,0)"></path>
<path d="M 1228.19 1010.23 C 1252.5 982.714 1275.52 954.012 1300.09 926.592 C 1324.86 898.933 1369.44 912.059 1369.48 950.281 C 1369.5 972.122 1345.37 992.029 1332.14 1008.8 L 1404.98 1009.11 C 1417.08 1009.17 1435.69 1008.75 1447.36 1009.81 C 1409.09 1011.22 1368.99 1008.6 1331.06 1009.75 C 1312.21 1031.91 1290.92 1055.59 1272.83 1077.93 C 1255.52 1057.9 1235.35 1039.53 1219.48 1021.09 C 1216.25 1017.59 1214.12 1014.86 1211.11 1011.4 C 1213.23 1010.31 1213.4 1010.22 1215.72 1009.49 C 1220.88 1010.15 1223.08 1010.17 1228.19 1010.23 z" fill="rgb(228,124,81)" transform="translate(0,0)"></path>
<path d="M 1215.72 1009.49 C 1220.88 1010.15 1223.08 1010.17 1228.19 1010.23 C 1225.51 1014.34 1222.82 1017.5 1219.48 1021.09 C 1216.25 1017.59 1214.12 1014.86 1211.11 1011.4 C 1213.23 1010.31 1213.4 1010.22 1215.72 1009.49 z" fill="rgb(110,74,20)" transform="translate(0,0)"></path>
<path d="M 1480.76 1113.58 C 1488.93 1116.21 1515.09 1115.21 1524.92 1115.14 L 1621.11 1114.84 C 1630.78 1114.83 1660.93 1114.24 1669.49 1115.51 C 1667.4 1126.52 1665.89 1139.46 1663.53 1149.99 C 1630.72 1150.6 1596.46 1149.97 1563.5 1149.96 C 1526.01 1150.3 1488.52 1150.27 1451.04 1149.86 L 1445.48 1147.08 C 1419.68 1134.39 1396.3 1134.5 1369.6 1143.63 C 1360.77 1147.3 1353.97 1150.38 1345.81 1155.47 L 1310.65 1117.34 C 1318.46 1113.86 1424.67 1116.45 1442.85 1115.92 C 1459.42 1120.82 1465.06 1121.03 1480.76 1113.58 z" fill="rgb(93,62,15)" transform="translate(0,0)"></path>
<path d="M 1442.85 1115.92 C 1424.4 1105.41 1415.85 1087.15 1423.24 1066.57 C 1427.82 1053.79 1434.86 1049.44 1446.12 1043.55 C 1446.98 1047.85 1447.37 1051.68 1447.99 1056 C 1450.52 1073.6 1465.89 1086.71 1480.94 1094.26 C 1485.22 1096.4 1489.53 1097.7 1493.74 1099.93 C 1489.34 1107.12 1486.39 1108.24 1480.76 1113.58 C 1465.06 1121.03 1459.42 1120.82 1442.85 1115.92 z" fill="rgb(170,202,226)" transform="translate(0,0)"></path>
<path d="M 1446.12 1043.55 C 1448.56 1043.06 1447.57 1043.3 1450 1042.66 C 1482.33 1034.14 1510.57 1069.11 1494.25 1098.99 L 1493.74 1099.93 C 1489.53 1097.7 1485.22 1096.4 1480.94 1094.26 C 1465.89 1086.71 1450.52 1073.6 1447.99 1056 C 1447.37 1051.68 1446.98 1047.85 1446.12 1043.55 z" fill="rgb(188,214,235)" transform="translate(0,0)"></path>
<path d="M 549.862 828.588 C 594.286 803.61 660.048 825.193 684.127 869.346 C 690.925 881.812 695.228 897.918 697.701 911.859 L 698.719 912.719 C 696.223 916.144 697.263 934.581 695.654 940.947 C 692.386 953.876 687.47 964.73 680.538 975.925 C 677.358 980.484 670.881 988.873 668.363 993.021 C 666.797 998.325 666.55 1008.47 661.196 1009.55 L 663.365 1010.72 C 663.288 1018.11 655.182 1045.2 653.242 1054.16 C 647.847 1074.67 642.693 1095.24 637.783 1115.87 C 633.728 1114.39 378.939 1114.09 369.687 1116.04 C 355.382 1116.19 341.855 1114.36 330.008 1105.69 C 318.556 1097.31 311.016 1084.63 309.129 1070.57 C 304.526 1037.65 325.754 1013.11 358.475 1009.52 C 367.249 1006.67 527.14 1008.79 546.069 1008.87 C 529.128 999.111 515.186 984.892 505.759 967.762 C 492.898 944.341 489.892 916.763 497.405 891.12 C 505.724 862.933 524.355 842.35 549.862 828.588 z" fill="rgb(110,74,20)" transform="translate(0,0)"></path>
<path d="M 549.862 828.588 C 594.286 803.61 660.048 825.193 684.127 869.346 C 690.925 881.812 695.228 897.918 697.701 911.859 L 698.719 912.719 C 696.223 916.144 697.263 934.581 695.654 940.947 C 692.386 953.876 687.47 964.73 680.538 975.925 C 679.492 975.349 677.376 973.926 676.116 974.73 C 644.904 994.638 606.954 992.67 574.961 973.913 C 553.978 961.684 538.738 941.593 532.619 918.09 C 525.813 891.778 531.135 862.372 546.422 840.222 C 550.073 834.932 553.546 832.509 556.479 827.546 L 549.862 828.588 z" fill="rgb(188,214,235)" transform="translate(0,0)"></path>
<path d="M 629.037 843.252 C 635.406 842.706 643.326 842.033 649.276 844.476 C 677.731 856.158 703.284 900.167 665.199 917.41 C 647.002 919.675 635.33 908.36 623.607 895.752 C 620.304 891.141 615.409 885.579 613.676 880.15 C 608.107 862.704 612.948 849.909 629.037 843.252 z" fill="rgb(170,202,226)" transform="translate(0,0)"></path>
<path d="M 549.862 828.588 L 556.479 827.546 C 553.546 832.509 550.073 834.932 546.422 840.222 C 531.135 862.372 525.813 891.778 532.619 918.09 C 538.738 941.593 553.978 961.684 574.961 973.913 C 606.954 992.67 644.904 994.638 676.116 974.73 C 677.376 973.926 679.492 975.349 680.538 975.925 C 677.358 980.484 670.881 988.873 668.363 993.021 C 666.797 998.325 666.55 1008.47 661.196 1009.55 C 655.413 1009.79 649.667 1009.78 643.876 1009.95 C 623.728 1017 615.59 1019.75 594.123 1020.65 C 573.751 1022.12 557.202 1010.12 537.315 1009.9 C 485.7 1009.32 434.042 1009.86 382.419 1009.78 C 374.432 1009.77 366.455 1009.93 358.475 1009.52 C 367.249 1006.67 527.14 1008.79 546.069 1008.87 C 529.128 999.111 515.186 984.892 505.759 967.762 C 492.898 944.341 489.892 916.763 497.405 891.12 C 505.724 862.933 524.355 842.35 549.862 828.588 z" fill="rgb(170,202,226)" transform="translate(0,0)"></path>
<path d="M 668.363 993.021 C 666.797 998.325 666.55 1008.47 661.196 1009.55 C 655.413 1009.79 649.667 1009.78 643.876 1009.95 C 651.2 1004.2 659.123 999.639 666.729 994.177 L 668.363 993.021 z" fill="rgb(255,255,255)" transform="translate(0,0)"></path>
<path d="M 369.687 1116.04 C 378.939 1114.09 633.728 1114.39 637.783 1115.87 C 632.155 1139.01 626.374 1162.1 620.439 1185.16 C 606.126 1239.44 592.927 1279.14 605.91 1336.99 C 609.426 1351.96 614.338 1366.56 620.581 1380.61 C 622.204 1384.32 629.906 1400.38 630.427 1402.7 L 626.583 1407.99 L 615.497 1422.62 C 609.922 1429.86 575.51 1475.86 570.606 1477.66 C 564.258 1471.51 557.193 1465.69 550.628 1459.72 C 463.368 1380.37 393.146 1266.73 374.333 1149.28 C 372.256 1138.05 371.046 1127.35 369.687 1116.04 z" fill="rgb(110,74,20)" transform="translate(0,0)"></path>
<path d="M 369.687 1116.04 C 378.939 1114.09 633.728 1114.39 637.783 1115.87 C 632.155 1139.01 626.374 1162.1 620.439 1185.16 C 606.126 1239.44 592.927 1279.14 605.91 1336.99 C 609.426 1351.96 614.338 1366.56 620.581 1380.61 C 622.204 1384.32 629.906 1400.38 630.427 1402.7 L 626.583 1407.99 L 615.497 1422.62 L 611.936 1424.07 C 602.781 1422.85 596.209 1401.54 592.681 1393.59 C 569.889 1342.13 576.059 1291.99 588.029 1239.16 C 593.63 1214.45 598.623 1175.08 600.382 1149.54 C 546.921 1148.42 491.959 1150.62 438.35 1149.81 C 424.163 1149.6 385.816 1151.32 374.333 1149.28 C 372.256 1138.05 371.046 1127.35 369.687 1116.04 z" fill="rgb(93,62,15)" transform="translate(0,0)"></path>
<path d="M 1015.65 1465.71 C 1068.9 1501.1 1116.27 1535.18 1182.45 1537.66 C 1186.74 1537.82 1194.95 1538.24 1198.95 1539.03 L 1210.25 1553.03 C 1218.39 1563.56 1226.82 1574.28 1234.76 1584.92 C 1239.23 1590.52 1250.54 1603.94 1253.9 1609.38 C 1228.04 1617.48 1200.59 1625.48 1174.01 1631.14 C 1070.31 1653.19 955.076 1652.69 851.932 1627.71 C 835.918 1623.83 806.681 1616.12 791.42 1610.23 C 792.058 1606.21 806.413 1588.91 809.952 1584.68 C 816.849 1575.02 827.19 1562.71 834.729 1553 C 839.435 1547.61 845.481 1539.15 849.952 1533.28 C 907.908 1525.97 927.539 1520.47 977.802 1491 C 989.719 1484.47 1005.57 1474.36 1015.65 1465.71 z" fill="rgb(110,74,20)" transform="translate(0,0)"></path>
<path d="M 1015.65 1465.71 C 1068.9 1501.1 1116.27 1535.18 1182.45 1537.66 C 1186.74 1537.82 1194.95 1538.24 1198.95 1539.03 L 1210.25 1553.03 C 1218.39 1563.56 1226.82 1574.28 1234.76 1584.92 C 1230.36 1588.38 1208.56 1587.09 1201.74 1587.46 C 1122.64 1591.71 1066.16 1559.18 999.712 1522.12 C 973.51 1534.15 950.409 1550.71 921.387 1563.18 C 910.387 1567.95 899.091 1572 887.569 1575.31 C 874.048 1579.12 822.746 1589.8 809.952 1584.68 C 816.849 1575.02 827.19 1562.71 834.729 1553 C 839.435 1547.61 845.481 1539.15 849.952 1533.28 C 907.908 1525.97 927.539 1520.47 977.802 1491 C 989.719 1484.47 1005.57 1474.36 1015.65 1465.71 z" fill="rgb(93,62,15)" transform="translate(0,0)"></path>
<path d="M 1103.26 616.867 C 1113.32 616.61 1121.03 616.387 1130.73 613.749 C 1131.01 650.829 1133.04 689.043 1134.9 726.16 C 1135.87 745.578 1136.18 775.055 1138.52 793.432 C 1134.99 798.154 1131 802.883 1127.04 807.277 C 1109.81 826.427 1093.22 846.625 1075.45 865.245 C 1070.91 856.944 1055.58 842.147 1048.49 829.901 C 1032.5 811.863 1019.04 811.995 998.545 822.067 C 986.378 833.168 985.009 836.799 983.201 853.749 C 981.524 862.32 980.882 868.608 981.103 877.446 C 979.095 886.105 982.692 887.853 974.326 883.993 C 964.39 873.91 957.583 861.969 948.852 852.657 C 945.991 848.005 939.566 840.177 936.133 835.415 C 928.611 824.983 921.115 814.044 912.777 804.301 C 913.071 781.432 914.779 756.025 915.813 733.025 C 917.861 693.551 919.163 654.041 919.716 614.518 C 928.649 615.646 935.315 616.108 944.336 616.495 C 996.765 616.783 1051.17 615.902 1103.26 616.867 z" fill="rgb(84,163,209)" transform="translate(0,0)"></path>
<path d="M 919.716 614.518 C 928.649 615.646 935.315 616.108 944.336 616.495 L 944.725 708.617 C 944.77 722.328 943.672 742.068 945.826 755.207 C 949.999 780.662 981.299 782.384 997.838 767.124 C 999.709 772.052 998.854 813.683 998.545 822.067 C 986.378 833.168 985.009 836.799 983.201 853.749 C 981.524 862.32 980.882 868.608 981.103 877.446 C 979.095 886.105 982.692 887.853 974.326 883.993 C 964.39 873.91 957.583 861.969 948.852 852.657 C 945.991 848.005 939.566 840.177 936.133 835.415 C 928.611 824.983 921.115 814.044 912.777 804.301 C 913.071 781.432 914.779 756.025 915.813 733.025 C 917.861 693.551 919.163 654.041 919.716 614.518 z" fill="rgb(188,214,235)" transform="translate(0,0)"></path>
<path d="M 1103.26 616.867 C 1113.32 616.61 1121.03 616.387 1130.73 613.749 C 1131.01 650.829 1133.04 689.043 1134.9 726.16 C 1135.87 745.578 1136.18 775.055 1138.52 793.432 C 1134.99 798.154 1131 802.883 1127.04 807.277 C 1109.81 826.427 1093.22 846.625 1075.45 865.245 C 1070.91 856.944 1055.58 842.147 1048.49 829.901 C 1047.88 810.222 1047.68 785.437 1048.21 765.844 C 1056.26 772.743 1062.62 777.158 1074.02 777.093 C 1111.8 776.877 1103.76 732.28 1103.56 705.122 C 1103.31 675.704 1103.21 646.286 1103.26 616.867 z" fill="rgb(188,214,235)" transform="translate(0,0)"></path>
<path d="M 1016.09 663.122 C 1023.6 662.598 1038.07 662.902 1040.96 672.263 C 1049.14 698.783 1037.67 741.106 1048.21 765.844 C 1047.68 785.437 1047.88 810.222 1048.49 829.901 C 1032.5 811.863 1019.04 811.995 998.545 822.067 C 998.854 813.683 999.709 772.052 997.838 767.124 C 1016.43 742.604 989.605 681.517 1016.09 663.122 z" fill="rgb(170,202,226)" transform="translate(0,0)"></path>
<path d="M 1451.04 1149.86 C 1488.52 1150.27 1526.01 1150.3 1563.5 1149.96 C 1596.46 1149.97 1630.72 1150.6 1663.53 1149.99 C 1643.01 1256.85 1596.86 1344.73 1523.03 1424.88 C 1509.49 1439.58 1485.5 1464.25 1469.84 1476.24 C 1465.2 1471.21 1455.47 1457.6 1450.93 1451.66 C 1440.21 1437.7 1429.3 1423.89 1418.21 1410.22 L 1411.42 1401.84 C 1411.43 1401.91 1425.37 1362.5 1426.75 1357.82 C 1429.11 1347.32 1431.3 1336.78 1433.33 1326.21 C 1453.76 1317.08 1463.21 1312.38 1478.59 1295.62 C 1494.75 1274.1 1504.15 1249.12 1500.13 1221.89 C 1499.84 1215.35 1497.47 1205.08 1494.49 1199.33 C 1487.12 1177 1469.66 1162.48 1451.04 1149.86 z" fill="rgb(110,74,20)" transform="translate(0,0)"></path>
<path d="M 1369.6 1143.63 C 1396.3 1134.5 1419.68 1134.39 1445.48 1147.08 L 1451.04 1149.86 C 1469.66 1162.48 1487.12 1177 1494.49 1199.33 C 1497.47 1205.08 1499.84 1215.35 1500.13 1221.89 C 1504.15 1249.12 1494.75 1274.1 1478.59 1295.62 C 1463.21 1312.38 1453.76 1317.08 1433.33 1326.21 C 1378.27 1339.97 1329.64 1316.09 1309.62 1262.32 C 1304.27 1239.03 1305.28 1218.55 1313.73 1196.15 C 1313.85 1195.99 1319.76 1185.26 1320.31 1184.3 C 1328.11 1170.71 1333.83 1165.29 1345.81 1155.47 C 1353.97 1150.38 1360.77 1147.3 1369.6 1143.63 z" fill="rgb(188,214,235)" transform="translate(0,0)"></path>
<path d="M 1345.81 1155.47 C 1353.97 1150.38 1360.77 1147.3 1369.6 1143.63 C 1366.46 1151.82 1359.13 1159.52 1355.1 1167.7 C 1331.56 1215.55 1352.64 1273.99 1402.36 1294.37 C 1420.89 1301.97 1440.62 1303.3 1459.86 1298.28 C 1465.07 1296.9 1473.41 1294.98 1478.59 1295.62 C 1463.21 1312.38 1453.76 1317.08 1433.33 1326.21 C 1378.27 1339.97 1329.64 1316.09 1309.62 1262.32 C 1304.27 1239.03 1305.28 1218.55 1313.73 1196.15 C 1313.85 1195.99 1319.76 1185.26 1320.31 1184.3 C 1328.11 1170.71 1333.83 1165.29 1345.81 1155.47 z" fill="rgb(170,202,226)" transform="translate(0,0)"></path>
<path d="M 1500.13 1221.89 C 1500 1222.99 1499.88 1224.09 1499.78 1225.19 C 1497.95 1246.15 1481.74 1254.8 1462.63 1247.59 C 1437.08 1237.95 1411.92 1194.26 1444.97 1178.67 C 1455.35 1173.78 1477.89 1183.47 1485.34 1191.41 C 1488.66 1194.85 1489.91 1196.95 1494.49 1199.33 C 1497.47 1205.08 1499.84 1215.35 1500.13 1221.89 z" fill="rgb(170,202,226)" transform="translate(0,0)"></path>
<path d="M 753.001 1057.8 C 754.695 1053.81 754.123 1053.36 757.079 1051.21 C 761.513 1053.82 782.07 1075.97 785.589 1080.7 C 804.663 1104.67 823.807 1126.83 843.189 1150.38 L 931.555 1258.69 C 950.411 1281.65 987.465 1323.7 1001.37 1347.2 C 982.65 1333.24 964.426 1321.28 944.867 1307.95 C 906.376 1281.71 870.402 1249.64 820.192 1255.49 C 812.716 1256.36 802.241 1259.67 796.53 1264.35 C 774.14 1280.07 771.998 1305.42 795.885 1320.5 C 801.786 1324.22 807.548 1328.31 813.726 1331.64 C 822.454 1339.13 839.913 1348.64 850.087 1355.8 C 888.812 1383.06 929.831 1407.73 968.817 1434.6 C 980.234 1442.47 1006.46 1458.04 1015.65 1465.71 C 1005.57 1474.36 989.719 1484.47 977.802 1491 C 973.268 1486.34 949.662 1471.69 942.984 1467.01 L 875.074 1419.21 C 854.647 1405.1 768.003 1349.29 758.955 1334.91 C 751.837 1323.6 750.579 1309.03 753.218 1296.17 C 757.018 1277.67 768.286 1262.04 784.046 1251.77 C 809.624 1235.1 840.345 1236.7 868.893 1242.79 C 861.17 1234.77 851.455 1222.53 844.065 1213.84 L 791.951 1151.91 C 783.813 1142.21 768.416 1122.96 759.481 1115.49 C 761.923 1111.9 772.613 1098.01 775.229 1095.56 C 767.789 1083.65 760.85 1069.96 753.001 1057.8 z" fill="rgb(228,124,81)" transform="translate(0,0)"></path>
<path d="M 1292.99 1263.46 C 1260.4 1265.19 1228.95 1276.02 1202.2 1294.72 C 1169.28 1318.03 1149.17 1349.5 1138.19 1388.14 C 1131.51 1411.62 1137.19 1442.77 1115.19 1457.35 C 1100.11 1467.33 1076.79 1464.55 1068.02 1447.96 C 1056.75 1426.65 1066.07 1392.14 1072.13 1369.62 C 1088.14 1309.16 1127.46 1257.52 1181.49 1226.01 C 1213.71 1207.34 1249.97 1196.72 1287.17 1195.06 C 1294.55 1194.69 1306.86 1194.3 1313.73 1196.15 C 1305.28 1218.55 1304.27 1239.03 1309.62 1262.32 C 1306.46 1264.93 1297.78 1263.73 1292.99 1263.46 z" fill="rgb(254,187,6)" transform="translate(0,0)"></path>
<path d="M 900.422 928.71 C 887.152 910.028 848.982 858.617 845.305 838.807 C 843.402 828.556 845.07 817.396 851.108 808.755 C 856.238 801.414 865.214 794.233 874.298 792.949 C 889.084 790.859 901.25 795.316 912.777 804.301 C 921.115 814.044 928.611 824.983 936.133 835.415 C 939.566 840.177 945.991 848.005 948.852 852.657 C 926.649 840.099 905.245 831.981 888.125 859.114 C 876.955 876.817 889.33 893.507 899.021 908.332 C 916.663 932.806 937.505 956.242 957.04 979.662 L 1048.13 1090.18 C 1058.39 1102.71 1073.78 1116.9 1079.41 1132.16 C 1082.43 1140.34 1078.24 1150.95 1074.9 1158.58 L 907.888 977.078 C 896.114 964.217 884.767 951.042 873.239 937.838 C 859.013 921.545 848.58 900.83 824.046 900.482 C 807.292 900.244 801.298 905.319 793.372 919.571 C 791.103 923.65 789.711 929.878 786.61 932.889 C 778.798 920.434 770.728 908.439 762.514 896.262 C 752.705 881.72 741.056 867.318 742.727 848.711 C 743.64 837.951 749.037 828.073 757.598 821.491 C 765.796 815.149 776.275 812.527 786.495 814.261 C 794.87 815.787 802.581 819.832 808.596 825.856 C 817.926 835.094 838.486 870.501 847.375 884.553 C 860.322 904.7 873.577 924.648 887.133 944.39 C 891.403 939.03 895.835 933.801 900.422 928.71 z" fill="rgb(228,124,81)" transform="translate(0,0)"></path>
<path d="M 847.73 1012.08 L 849.373 1011.34 C 860.844 1027.42 877.944 1046.53 890.865 1062.02 L 961.947 1147.5 C 970.853 1158.19 995.679 1186.89 1001.57 1197.63 C 1004.54 1203.02 1005.6 1209.25 1004.57 1215.31 C 1003.79 1219.75 1002.61 1221.44 999.713 1224.65 C 997.152 1225.54 994.685 1226.15 992.338 1224.48 C 979.554 1215.41 965.985 1196.01 956.186 1184.4 C 933.01 1157.08 910.076 1129.56 887.385 1101.83 L 849.351 1056.09 C 844.206 1049.88 833.192 1037.14 829.544 1030.88 L 831.868 1028.84 C 837.219 1026.98 844.281 1016.74 847.73 1012.08 z" fill="rgb(228,124,81)" transform="translate(0,0)"></path>
<path d="M 983.201 853.749 C 988.077 860.435 990.408 869.42 995.843 875.818 C 1004.22 885.677 1012.98 895.313 1021.32 905.22 L 1091.84 989.101 L 1126.2 1029.83 C 1136.32 1041.84 1154.95 1059.81 1151.73 1076.24 C 1149.57 1087.27 1142.56 1092.15 1133.91 1082.04 C 1104.74 1047.98 1077.06 1012.75 1048.54 978.205 L 1008.52 929.819 C 1001.06 920.761 987.183 904.422 981.523 894.451 L 982.323 893.107 C 979.03 889.717 977.173 887.865 974.326 883.993 C 982.692 887.853 979.095 886.105 981.103 877.446 C 980.882 868.608 981.524 862.32 983.201 853.749 z" fill="rgb(228,124,81)" transform="translate(0,0)"></path>
<path d="M 981.103 877.446 C 982.486 883.915 983.63 887.03 982.323 893.107 C 979.03 889.717 977.173 887.865 974.326 883.993 C 982.692 887.853 979.095 886.105 981.103 877.446 z" fill="rgb(170,202,226)" transform="translate(0,0)"></path>
<path d="M 1309.62 1262.32 C 1329.64 1316.09 1378.27 1339.97 1433.33 1326.21 C 1431.3 1336.78 1429.11 1347.32 1426.75 1357.82 C 1422.52 1356.5 1406.11 1359.54 1400.49 1359.56 C 1339.53 1359.79 1297.11 1323.84 1292.99 1263.46 C 1297.78 1263.73 1306.46 1264.93 1309.62 1262.32 z" fill="rgb(228,124,81)" transform="translate(0,0)"></path>
<path d="M 698.719 912.719 L 700.234 912.902 C 703.329 919.618 709.287 925.577 712.813 932.583 C 721.537 949.918 721.035 972.622 715.255 990.838 C 705.437 1020.8 680.495 1040.45 653.242 1054.16 C 655.182 1045.2 663.288 1018.11 663.365 1010.72 L 661.196 1009.55 C 666.55 1008.47 666.797 998.325 668.363 993.021 C 670.881 988.873 677.358 980.484 680.538 975.925 C 687.47 964.73 692.386 953.876 695.654 940.947 C 697.263 934.581 696.223 916.144 698.719 912.719 z" fill="rgb(228,124,81)" transform="translate(0,0)"></path>
<path d="M 796.53 1264.35 L 801.971 1266.12 C 811.896 1269.43 837.477 1285.81 844.991 1293.51 C 845.371 1315.04 838.103 1332.95 813.726 1331.64 C 807.548 1328.31 801.786 1324.22 795.885 1320.5 C 771.998 1305.42 774.14 1280.07 796.53 1264.35 z" fill="rgb(242,172,144)" transform="translate(0,0)"></path>
<path d="M 753.001 1057.8 C 760.85 1069.96 767.789 1083.65 775.229 1095.56 C 772.613 1098.01 761.923 1111.9 759.481 1115.49 C 758.569 1116.31 758.223 1116.6 757.216 1117.39 C 750.973 1116.63 742.538 1116.68 736.329 1117.65 C 736.499 1117.04 736.66 1116.42 736.811 1115.8 C 741.624 1096.19 747.866 1077.05 753.001 1057.8 z" fill="rgb(110,74,20)" transform="translate(0,0)"></path>
<path d="M 805.426 981.929 C 812.609 986.634 820.594 996.583 829.549 1002.92 C 838.812 1009.47 841.877 1008.5 847.73 1012.08 C 844.281 1016.74 837.219 1026.98 831.868 1028.84 C 827.727 1020.92 823.657 1015.49 819.227 1008.1 C 818.431 1000.7 809.26 990.696 805.426 981.929 z" fill="rgb(170,202,226)" transform="translate(0,0)"></path>
<path d="M 736.329 1117.65 C 742.538 1116.68 750.973 1116.63 757.216 1117.39 C 749.372 1127.89 740.292 1138.05 732.093 1148.4 L 729.124 1145.05 C 731.393 1135.93 733.6 1126.63 736.329 1117.65 z" fill="rgb(93,62,15)" transform="translate(0,0)"></path>
<path d="M 1214.58 979.281 C 1214.6 982.675 1214.1 985.162 1213.87 988.485 C 1213.43 994.748 1211.14 1002.53 1212.39 1008.58 C 1212.43 1008.77 1215.07 1009.22 1215.72 1009.49 C 1213.4 1010.22 1213.23 1010.31 1211.11 1011.4 C 1206.31 1007.46 1204.36 1002.35 1198.2 998.47 C 1204.01 992.225 1208.66 985.597 1214.58 979.281 z" fill="rgb(188,214,235)" transform="translate(0,0)"></path>
<path d="M 819.227 1008.1 C 823.657 1015.49 827.727 1020.92 831.868 1028.84 L 829.544 1030.88 C 824.682 1024.53 812.796 1014.08 810.794 1008.16 C 813.605 1008.1 816.416 1008.09 819.227 1008.1 z" fill="rgb(110,74,20)" transform="translate(0,0)"></path>
<path d="M 732.093 1148.4 C 731.526 1149.05 728.677 1153.06 727.767 1152.37 C 727.313 1151.25 728.826 1146.46 729.124 1145.05 L 732.093 1148.4 z" fill="rgb(110,74,20)" transform="translate(0,0)"></path>
<path d="M 784.729 1003.24 C 793.601 1003.73 818.039 1012.7 815.861 1023.5 C 813.769 1033.87 795.009 1048.71 786.493 1055.6 C 784.385 1056.94 783.165 1058.63 780.63 1056.84 C 772.162 1050.87 760.718 1040.17 757.817 1030.01 C 755.653 1022.43 765.107 1012.39 770.884 1008.81 C 775.86 1005.59 779.179 1004.37 784.729 1003.24 z" fill="rgb(242,172,144)" transform="translate(0,0)"></path>
<path d="M 828.261 907.148 C 838.613 908.005 847.225 917.397 852.83 925.601 L 855.278 929.206 C 848.457 941.775 834.647 952.657 823.515 961.461 C 815.606 963.802 799.151 939.129 795.853 932.117 C 802.905 916.631 811.376 910.693 828.261 907.148 z" fill="rgb(242,172,144)" transform="translate(0,0)"></path>
<path d="M 1024 816.875 C 1033.89 818.502 1044.41 832.534 1050.54 840.428 C 1042.62 854.727 1030.22 863.985 1016.91 873.06 C 1013.34 875.139 993.776 848.471 991.038 844.059 C 998.221 830.402 1009.47 822.063 1024 816.875 z" fill="rgb(242,172,144)" transform="translate(0,0)"></path>
<path d="M 918.599 848.011 C 927.873 847.91 950.849 856.132 949.036 867.991 C 947.487 878.119 928.878 892.553 920.44 898.538 C 911.721 903.346 902.114 885.533 896.703 880.281 C 882.475 866.468 907.006 851.471 918.599 848.011 z" fill="rgb(242,172,144)" transform="translate(0,0)"></path>
<path d="M 971.989 482.898 L 971.948 411.066 C 971.941 392.735 971.199 371.826 973.899 353.866 C 981.209 305.252 1003.37 262.745 1037.89 228.233 C 1080.72 185.507 1138.89 161.746 1199.38 162.272 C 1260.93 161.857 1319.97 186.633 1362.79 230.845 C 1447.16 316.278 1423.79 408.445 1427.69 513.974 L 1490.9 513.993 L 1490.92 615.863 C 1495.4 615.82 1501.74 615.548 1506.02 616.147 C 1492.61 618.159 1467.53 616.963 1453.26 616.998 L 1370.16 617.163 L 1320.15 617.222 C 1297.21 617.239 1277.44 619.937 1259.16 603.13 C 1248.9 593.658 1242.98 580.391 1242.78 566.43 C 1242.52 552.619 1247.86 539.292 1257.59 529.486 C 1275.98 511.022 1297.92 514.061 1321.91 514.348 L 1321.88 483.875 L 1322.02 417.191 C 1322.04 401.707 1322.49 382.357 1320.24 367.278 C 1318.77 357.662 1316.16 348.254 1312.47 339.252 C 1298.18 304.248 1275.24 285.928 1241.47 271.767 C 1225.38 266.896 1213.32 263.836 1196.16 264.096 C 1144.87 264.873 1095.94 298.448 1081 348.262 C 1073.49 373.304 1075.45 408.419 1075.52 435.49 L 1075.71 514.13 C 1093.63 514.195 1119.47 512.142 1136.1 518.762 C 1153.29 525.604 1165.71 546.695 1165.55 565.371 C 1165.3 579.286 1159.61 592.55 1149.7 602.323 C 1144.79 607.127 1137.43 611.865 1130.73 613.749 C 1121.03 616.387 1113.32 616.61 1103.26 616.867 C 1051.17 615.902 996.765 616.783 944.336 616.495 C 935.315 616.108 928.649 615.646 919.716 614.518 C 894.99 606.104 879.23 584.603 883.251 558.512 C 890.915 508.793 936.43 514.137 971.993 513.904 L 971.989 482.898 z" fill="rgb(159,159,53)" transform="translate(0,0)"></path>
<path d="M 1241.47 271.767 C 1247.05 262.103 1288.78 284.156 1296.66 289.782 C 1331.02 314.308 1353.83 356.693 1354.63 398.992 C 1355.15 426.904 1354.81 455.019 1354.19 482.914 C 1366.51 482.901 1385.43 482.311 1397.23 483.178 C 1372.77 484.874 1346.61 483.217 1321.88 483.875 L 1322.02 417.191 C 1322.04 401.707 1322.49 382.357 1320.24 367.278 C 1318.77 357.662 1316.16 348.254 1312.47 339.252 C 1298.18 304.248 1275.24 285.928 1241.47 271.767 z" fill="rgb(144,142,47)" transform="translate(0,0)"></path>
<path d="M 1397.23 483.178 L 1426.8 483.27 C 1426.78 493.381 1426.61 503.922 1426.75 513.998 L 1358.78 514.421 C 1348.66 514.489 1331.62 515.073 1321.91 514.348 L 1321.88 483.875 C 1346.61 483.217 1372.77 484.874 1397.23 483.178 z" fill="rgb(125,122,36)" transform="translate(0,0)"></path>
<path d="M 971.989 482.898 C 979.05 482.603 986.722 482.306 993.768 482.654 C 1020.78 483.989 1047.72 483.741 1074.77 483.748 L 1074.73 513.897 L 971.993 513.904 L 971.989 482.898 z" fill="rgb(125,122,36)" transform="translate(0,0)"></path>
<path d="M 1530.49 500.64 C 1543.61 478.372 1572.45 461.414 1596.98 455.137 C 1627.81 447.072 1660.58 451.635 1688.02 467.814 C 1715.04 483.765 1734.55 509.858 1742.21 540.279 C 1749.48 570.392 1743.82 599.417 1728 625.637 C 1693.62 682.637 1619.71 697.659 1563.59 664.245 C 1561.1 662.761 1555.13 658.829 1553.56 656.653 C 1540.08 647.619 1528.02 630.096 1519.74 616.523 L 1506.02 616.147 C 1501.74 615.548 1495.4 615.82 1490.92 615.863 L 1490.9 513.993 C 1501.5 513.961 1512.09 513.804 1522.68 513.524 C 1525.64 507.6 1526.69 505.939 1530.49 500.64 z" fill="rgb(159,159,53)" transform="translate(0,0)"></path>
<path d="M 1530.49 500.64 C 1530.27 505.669 1521.38 519.164 1518.71 525.724 C 1506.86 554.893 1509.97 585.815 1520.24 614.884 C 1523.66 624.579 1552.95 653.747 1553.56 656.653 C 1540.08 647.619 1528.02 630.096 1519.74 616.523 L 1506.02 616.147 C 1501.74 615.548 1495.4 615.82 1490.92 615.863 L 1490.9 513.993 C 1501.5 513.961 1512.09 513.804 1522.68 513.524 C 1525.64 507.6 1526.69 505.939 1530.49 500.64 z" fill="rgb(125,122,36)" transform="translate(0,0)"></path>
<path d="M 1622.05 533.355 C 1639.38 529.861 1656.3 540.973 1659.98 558.27 C 1663.66 575.567 1652.73 592.601 1635.47 596.464 C 1624.14 599 1612.32 595.254 1604.53 586.656 C 1596.73 578.058 1594.15 565.933 1597.77 554.905 C 1601.4 543.878 1610.67 535.648 1622.05 533.355 z" fill="rgb(125,122,36)" transform="translate(0,0)"></path>
<path d="M 1138.52 793.432 C 1147.53 783.335 1156.29 775.181 1171 774.473 C 1181.66 774.064 1192.02 778.056 1199.65 785.513 C 1218.51 804.233 1210.36 828.939 1194.47 845.964 C 1176.76 864.943 1160.49 886.483 1143.38 906.133 C 1144.07 912.54 1144.02 929.127 1143.57 935.73 L 1142.27 937.283 C 1138.69 933.259 1132.72 926.083 1129.1 922.872 C 1128.12 922.023 1111.84 904.137 1110.7 902.747 C 1103.2 893.63 1080.36 873.092 1075.45 865.245 C 1093.22 846.625 1109.81 826.427 1127.04 807.277 C 1131 802.883 1134.99 798.154 1138.52 793.432 z" fill="rgb(228,124,81)" transform="translate(0,0)"></path>
<path d="M 1143.38 906.133 C 1144.07 912.54 1144.02 929.127 1143.57 935.73 L 1142.27 937.283 C 1138.69 933.259 1132.72 926.083 1129.1 922.872 C 1133.44 917.48 1138.6 911.084 1143.38 906.133 z" fill="rgb(170,202,226)" transform="translate(0,0)"></path>
<path d="M 663.724 713.352 C 680.949 704.466 701.926 707.575 715.833 721.075 C 729.74 734.575 733.47 755.45 725.099 772.931 C 716.61 790.657 697.623 800.849 678.159 798.126 C 658.695 795.404 643.233 780.394 639.934 761.019 C 636.635 741.644 646.258 722.363 663.724 713.352 z" fill="rgb(170,202,226)" transform="translate(0,0)"></path>
<path d="M 663.724 713.352 C 680.949 704.466 701.926 707.575 715.833 721.075 C 729.74 734.575 733.47 755.45 725.099 772.931 C 720.529 771.896 717.449 772.313 713.493 771.674 C 691.743 768.16 667.267 745.159 665.364 722.643 C 664.982 718.121 665.781 717.29 663.724 713.352 z" fill="rgb(188,214,235)" transform="translate(0,0)"></path>
<metadata><recraft-signature>{"signed_by": "recraft", "signature_b64": "2LabXhSjPm57ReruuDypXK36h94YkWOKI8PspokNXF0qRDJSfUm+QdLKGkMiNggH1e5FkhywlmMOx5pprPqhCg==", "signing_algo": "Ed25519", "generation_timestamp": 1779092494, "identifier": "bded9483-f4c2-4ba6-aef1-1bf5439d4a97"}</recraft-signature></metadata></svg>