<svg xmlns="http://www.w3.org/2000/svg" height="1024" preserveAspectRatio="none" style="display: block;" version="1.1" viewBox="0 0 2048 2048" width="1024">
<path d="M 0 0 L 2048 0 L 2048 2048 L 0 2048 L 0 0 z" fill="rgb(255,255,255)" transform="translate(0,0)"></path>
<path d="M 1358.87 753.679 C 1394.52 768.151 1431.77 785.338 1467.28 800.841 L 1617.13 864.781 L 1721.2 908.513 C 1731.28 912.743 1762.54 925.126 1770.76 930.026 C 1759.87 935.271 1746.56 940.133 1734.41 940.562 C 1696.95 941.885 1658.82 941.904 1621.35 942.014 L 1436.13 943.341 L 1199.48 947.116 C 1159.29 948.085 1112.92 951.438 1073.47 950.929 L 1073.52 954.059 C 1191.21 959.85 1311.83 969.899 1429.68 977.345 L 1619.19 989.052 L 1673.25 992.55 C 1693.71 993.881 1702.85 993.062 1722.23 1000.79 L 1722.95 1003.47 C 1745.06 1017.57 1756.48 1046.47 1757.43 1071.63 C 1758.52 1100.58 1757.59 1130.91 1757.22 1159.88 L 1754.01 1356.88 C 1753.89 1416.67 1753.28 1476.46 1752.17 1536.25 C 1751.07 1582.66 1758.34 1642.33 1706.52 1668.12 C 1694.1 1674.3 1674.08 1679.25 1660.31 1683.46 C 1639.67 1689.77 1619.07 1696.24 1598.51 1702.85 L 1363.34 1777.84 C 1313.52 1793.74 1263.69 1809.5 1213.84 1825.28 C 1179.02 1836.3 1144.94 1850.37 1109.68 1860.35 C 1098.29 1863.57 1086.11 1868.17 1074.56 1870.55 C 1068.13 1871.83 1061.56 1872.32 1055.01 1871.99 C 1037.92 1872.88 1026.18 1862.44 1009.23 1859.05 C 869.383 1830.38 729.791 1800.46 590.474 1769.3 L 407.328 1729.31 C 376.347 1722.55 345.418 1716.19 314.458 1709.03 C 274.477 1699.79 250.953 1659.29 247.908 1620.54 C 246.649 1604.51 247.049 1587.73 246.928 1571.55 L 246.102 1508.88 L 243.959 1328.13 L 241.99 1159.64 C 241.744 1138.73 241.125 1117.74 240.967 1096.84 C 240.767 1070.19 245.342 1047.52 262.761 1026.67 C 282.048 1003.59 305.669 1003.46 333.315 1000.99 C 346.819 1000.58 369.211 997.721 383.597 996.452 L 485.034 987.844 L 812.797 960.271 C 866.69 955.789 926.182 949.576 979.936 946.948 C 990.526 947.454 1000.31 948.392 1010.85 949.418 L 1014.75 947.551 C 1001.56 942.948 995.981 938.573 986.233 928.866 L 996.998 925.316 C 973.443 883.087 1010.92 849.63 1031.95 815.106 C 1031.9 802.222 1030.98 796.53 1038.67 785.644 C 1041.8 785.19 1054.35 776.348 1059.74 775.623 C 1069.19 774.352 1078.37 774.015 1087.87 773.454 L 1135.46 770.377 L 1300.35 758.678 C 1308.72 758.16 1353.35 756.065 1358.87 753.679 z" fill="rgb(196,126,57)" transform="translate(0,0)"></path>
<path d="M 1072.66 1069.18 C 1094.54 1067.79 1121.82 1064.12 1143.96 1061.73 L 1261.63 1049.18 L 1552.42 1018.2 C 1579.66 1015.29 1707.62 999.115 1722.95 1003.47 C 1745.06 1017.57 1756.48 1046.47 1757.43 1071.63 C 1758.52 1100.58 1757.59 1130.91 1757.22 1159.88 L 1754.01 1356.88 C 1753.89 1416.67 1753.28 1476.46 1752.17 1536.25 C 1751.07 1582.66 1758.34 1642.33 1706.52 1668.12 C 1694.1 1674.3 1674.08 1679.25 1660.31 1683.46 C 1639.67 1689.77 1619.07 1696.24 1598.51 1702.85 L 1363.34 1777.84 C 1313.52 1793.74 1263.69 1809.5 1213.84 1825.28 C 1179.02 1836.3 1144.94 1850.37 1109.68 1860.35 C 1098.29 1863.57 1086.11 1868.17 1074.56 1870.55 C 1068.13 1871.83 1061.56 1872.32 1055.01 1871.99 C 1052.39 1869.62 1051.24 1869.77 1047.72 1869.28 L 1046.54 1869.13 L 1046.99 1868.49 C 1055.51 1869.6 1056.55 1868.25 1064.41 1866.68 C 1105.62 1858.45 1128.83 1810.53 1130.4 1772.03 C 1131.61 1742.38 1131.58 1712.22 1132.17 1682.46 L 1135.33 1464.43 L 1138.15 1275.63 C 1138.72 1240.33 1139.65 1204.07 1139.2 1168.78 C 1139.05 1157.22 1133.41 1132.54 1128.54 1122.05 C 1116.65 1096.38 1099.28 1081.54 1073.52 1071.52 L 1072.66 1069.18 z" fill="rgb(140,72,9)" transform="translate(0,0)"></path>
<path d="M 333.315 1000.99 C 346.819 1000.58 369.211 997.721 383.597 996.452 L 485.034 987.844 L 812.797 960.271 C 866.69 955.789 926.182 949.576 979.936 946.948 C 979.893 985.729 978.354 1024.46 978.709 1063.28 C 933.689 1060.44 882.983 1055.07 838.027 1050.72 C 786.134 1045.69 734.211 1040.97 682.262 1036.56 L 469.971 1018.3 C 428.753 1014.78 387.49 1010.86 346.305 1006.91 C 340.973 1006.4 333.561 1007.06 329.495 1003.5 C 331.04 1001.57 330.742 1002.17 333.315 1000.99 z" fill="rgb(140,72,9)" transform="translate(0,0)"></path>
<path d="M 1073.52 954.059 C 1070 954.158 1040.91 952.006 1040.47 950.886 C 1044.22 949.967 1068.35 950.608 1073.47 950.929 L 1073.52 954.059 z" fill="rgb(235,209,177)" transform="translate(0,0)"></path>
<path d="M 1014.75 947.551 C 1015.66 947.754 1018.93 948.224 1019.27 949.44 C 1018.08 950.704 1012.31 949.687 1010.85 949.418 L 1014.75 947.551 z" fill="rgb(235,209,177)" transform="translate(0,0)"></path>
<path d="M 1073.52 1071.52 C 1072.84 1071.42 1067.2 1070.92 1067.42 1069.62 C 1068.4 1068.76 1071.47 1069.11 1072.66 1069.18 L 1073.52 1071.52 z" fill="rgb(159,86,26)" transform="translate(0,0)"></path>
<path d="M 345.087 358.221 C 340.398 352.194 333.951 349.873 328.507 345.39 C 255.701 285.433 364.328 199.354 421.565 184.323 C 449.222 177.06 480.762 181.416 499.833 204.558 C 505.35 211.252 509.185 219.274 513.639 226.665 C 547.121 272.529 591.779 316.523 627.416 360.156 C 677.158 308.717 750.16 331.758 795.087 376.906 C 810.407 392.301 820.553 404.528 827.021 425.513 C 841.67 422.284 858.984 419.916 874.016 417.476 C 902.66 412.779 931.332 408.258 960.032 403.913 C 1004.43 396.992 1048.66 388.786 1093.21 382.506 C 1114.09 379.562 1132.01 381.038 1149.46 394.367 L 1150.03 395.721 C 1153.9 404.673 1161.8 411.946 1162.85 422.065 C 1164.35 436.549 1141.32 539.764 1135 556.531 C 1126.96 577.862 1114.85 591.623 1095.6 603.469 C 1087.07 608.716 1079.89 613.121 1072.95 620.464 C 1095.33 630.861 1117.53 645.473 1140.22 656.059 C 1174.44 672.023 1208.93 687.165 1243.41 702.507 C 1281.71 719.991 1320.19 737.049 1358.87 753.679 C 1353.35 756.065 1308.72 758.16 1300.35 758.678 L 1135.46 770.377 L 1087.87 773.454 C 1078.37 774.015 1069.19 774.352 1059.74 775.623 C 1054.35 776.348 1041.8 785.19 1038.67 785.644 C 1030.98 796.53 1031.9 802.222 1031.95 815.106 C 1010.92 849.63 973.443 883.087 996.998 925.316 L 986.233 928.866 C 948.322 944.542 936.154 938.962 898.667 927.47 C 878.748 921.408 858.91 915.085 839.158 908.503 L 696.417 863.194 L 381.424 764.305 C 339.025 750.877 289.452 736.8 247.803 721.742 C 230.282 710.279 220.386 674.3 227.805 655.05 C 239.133 623.329 263.306 592.938 278.496 563.96 C 309.352 505.093 325.47 502.317 388.367 492.267 L 461.878 480.503 C 462.967 478.548 463.248 474.133 463.571 471.633 C 446.992 459.962 426.35 440.743 411.457 426.533 C 391.801 407.778 358.193 381.147 345.087 358.221 z" fill="rgb(250,169,119)" transform="translate(0,0)"></path>
<path d="M 247.803 721.742 C 230.282 710.279 220.386 674.3 227.805 655.05 C 239.133 623.329 263.306 592.938 278.496 563.96 C 309.352 505.093 325.47 502.317 388.367 492.267 L 461.878 480.503 C 464.305 489.363 461.803 509.694 464.307 521.905 C 476.055 579.207 503.819 643.144 551.14 679.746 C 554.901 682.528 559.024 684.978 562.721 687.853 C 580.132 697.896 605.003 709.676 612.865 682.274 C 613.15 681.923 627.205 681.474 629.77 681.198 C 650.081 692.241 678.495 697.429 689.445 671.189 C 690.068 668.604 690.651 666.54 691.423 663.995 C 699.853 667.188 700.943 665.207 708.118 670.775 L 715.957 672.31 C 787.378 698.877 862.453 720.215 934.387 745.434 C 961.279 754.862 1017.69 769.597 1038.67 785.644 C 1030.98 796.53 1031.9 802.222 1031.95 815.106 C 1010.92 849.63 973.443 883.087 996.998 925.316 L 986.233 928.866 C 948.322 944.542 936.154 938.962 898.667 927.47 C 878.748 921.408 858.91 915.085 839.158 908.503 L 696.417 863.194 L 381.424 764.305 C 339.025 750.877 289.452 736.8 247.803 721.742 z" fill="rgb(140,72,9)" transform="translate(0,0)"></path>
<path d="M 247.803 721.742 C 230.282 710.279 220.386 674.3 227.805 655.05 C 239.133 623.329 263.306 592.938 278.496 563.96 C 309.352 505.093 325.47 502.317 388.367 492.267 L 461.878 480.503 C 464.305 489.363 461.803 509.694 464.307 521.905 C 476.055 579.207 503.819 643.144 551.14 679.746 C 554.901 682.528 559.024 684.978 562.721 687.853 C 538.47 689.548 508.973 693.703 484.195 696.266 C 427.777 701.829 371.402 707.82 315.074 714.238 C 305.147 715.362 253.415 719.825 247.803 721.742 z" fill="rgb(196,126,57)" transform="translate(0,0)"></path>
<path d="M 691.423 663.995 C 699.853 667.188 700.943 665.207 708.118 670.775 C 701.519 672.187 695.849 673.445 689.445 671.189 C 690.068 668.604 690.651 666.54 691.423 663.995 z" fill="rgb(240,108,51)" transform="translate(0,0)"></path>
<path d="M 827.021 425.513 C 841.67 422.284 858.984 419.916 874.016 417.476 C 902.66 412.779 931.332 408.258 960.032 403.913 C 1004.43 396.992 1048.66 388.786 1093.21 382.506 C 1114.09 379.562 1132.01 381.038 1149.46 394.367 L 1150.03 395.721 C 1153.9 404.673 1161.8 411.946 1162.85 422.065 C 1164.35 436.549 1141.32 539.764 1135 556.531 C 1126.96 577.862 1114.85 591.623 1095.6 603.469 C 1087.07 608.716 1079.89 613.121 1072.95 620.464 C 1095.33 630.861 1117.53 645.473 1140.22 656.059 C 1174.44 672.023 1208.93 687.165 1243.41 702.507 C 1281.71 719.991 1320.19 737.049 1358.87 753.679 C 1353.35 756.065 1308.72 758.16 1300.35 758.678 L 1135.46 770.377 L 1087.87 773.454 C 1078.37 774.015 1069.19 774.352 1059.74 775.623 C 1054.35 776.348 1041.8 785.19 1038.67 785.644 C 1017.69 769.597 961.279 754.862 934.387 745.434 C 862.453 720.215 787.378 698.877 715.957 672.31 L 708.118 670.775 C 700.943 665.207 699.853 667.188 691.423 663.995 C 682.473 658.151 672.555 653.716 663.651 646.995 C 626.087 618.637 604.426 590.981 582.857 550.264 C 587.665 550.045 591.675 549.423 596.416 548.758 C 614.386 587.529 651.343 625.16 686.955 648.077 C 700.784 656.671 718.022 666.436 734.88 662.074 C 752.684 657.468 760.209 641.677 754.978 624.551 C 761.112 621.57 768.326 624.65 774.262 621.573 C 791.532 626.306 813.157 615.174 815.778 596.5 C 816.826 589.267 814.967 581.914 810.607 576.049 C 803.752 566.822 766.793 535.301 756.479 524.784 C 732.82 500.661 720.793 482.832 701.34 455.582 C 704.874 451.183 708.707 447.238 712.3 443.083 C 715.313 436.689 718.692 430.393 721.565 423.994 C 726.046 429.16 733.713 434.613 739.164 439.103 C 760.43 450.137 781.26 464.227 806.523 460.327 C 825.747 457.36 829.94 442.609 827.021 425.513 z" fill="rgb(196,126,57)" transform="translate(0,0)"></path>
<path d="M 1072.95 620.464 C 1095.33 630.861 1117.53 645.473 1140.22 656.059 C 1174.44 672.023 1208.93 687.165 1243.41 702.507 C 1281.71 719.991 1320.19 737.049 1358.87 753.679 C 1353.35 756.065 1308.72 758.16 1300.35 758.678 L 1135.46 770.377 L 1087.87 773.454 C 1078.37 774.015 1069.19 774.352 1059.74 775.623 C 1054.35 776.348 1041.8 785.19 1038.67 785.644 C 1017.69 769.597 961.279 754.862 934.387 745.434 C 862.453 720.215 787.378 698.877 715.957 672.31 C 778.82 667.657 842.697 660.084 905.6 654.271 L 975.685 647.15 C 1014.48 643.479 1039.93 644.664 1072.95 620.464 z" fill="rgb(255,255,255)" transform="translate(0,0)"></path>
<path d="M 721.565 423.994 C 726.046 429.16 733.713 434.613 739.164 439.103 C 730.679 440.525 720.743 443.016 712.3 443.083 C 715.313 436.689 718.692 430.393 721.565 423.994 z" fill="rgb(255,255,255)" transform="translate(0,0)"></path>
<path d="M 345.087 358.221 C 352.684 358.271 387.678 385.252 396.789 391.762 L 470.329 443.531 C 465.499 455.768 466.51 460.737 463.571 471.633 C 446.992 459.962 426.35 440.743 411.457 426.533 C 391.801 407.778 358.193 381.147 345.087 358.221 z" fill="rgb(240,108,51)" transform="translate(0,0)"></path>
<path d="M 643.584 516.34 C 647.801 515.948 652.136 515.315 656.349 514.768 C 678.195 559.817 726.959 605.162 774.262 621.573 C 768.326 624.65 761.112 621.57 754.978 624.551 C 713.958 614.89 658.503 554.981 643.584 516.34 z" fill="rgb(240,108,51)" transform="translate(0,0)"></path>
<path d="M 531.37 571.461 L 543.188 570.521 C 558.081 614.945 593.237 652.957 629.77 681.198 C 627.205 681.474 613.15 681.923 612.865 682.274 C 610.856 679.524 592.892 665.963 588.864 661.95 C 563.042 636.226 541.303 606.582 531.37 571.461 z" fill="rgb(240,108,51)" transform="translate(0,0)"></path>
<path d="M 701.34 455.582 C 697.687 449.176 688.293 436.437 690.18 429.02 C 694.687 411.304 711.683 408.893 721.565 423.994 C 718.692 430.393 715.313 436.689 712.3 443.083 C 708.707 447.238 704.874 451.183 701.34 455.582 z" fill="rgb(240,108,51)" transform="translate(0,0)"></path>
<path d="M 1521.12 440.77 C 1550.67 398.997 1585.03 359.121 1616.49 318.624 C 1623.74 309.303 1627.29 295.807 1636.02 285.417 C 1646.45 273.004 1661.68 267.27 1677.52 265.827 C 1718.47 263.346 1755.35 284.413 1786.52 308.955 C 1824.48 338.842 1851.41 392.18 1804.12 428.062 C 1798.32 432.463 1791.46 435.568 1786.8 441.415 C 1773.55 461.65 1762.38 470.179 1746.4 486.766 C 1725.55 508.418 1701 529.889 1680.95 551.793 C 1688.26 593.253 1680.85 616.643 1668.82 655.746 C 1715.94 675.551 1766.41 700.595 1813.07 722.238 L 1816.41 797.33 C 1817.32 817.898 1819.84 848.217 1815.8 867.595 C 1812.54 883.959 1804.89 899.129 1793.67 911.478 C 1786.97 918.735 1779.25 924.982 1770.76 930.026 C 1762.54 925.126 1731.28 912.743 1721.2 908.513 L 1617.13 864.781 L 1467.28 800.841 C 1431.77 785.338 1394.52 768.151 1358.87 753.679 C 1320.19 737.049 1281.71 719.991 1243.41 702.507 C 1208.93 687.165 1174.44 672.023 1140.22 656.059 C 1117.53 645.473 1095.33 630.861 1072.95 620.464 C 1079.89 613.121 1087.07 608.716 1095.6 603.469 C 1114.85 591.623 1126.96 577.862 1135 556.531 C 1141.32 539.764 1164.35 436.549 1162.85 422.065 C 1161.8 411.946 1153.9 404.673 1150.03 395.721 L 1149.46 394.367 C 1169.3 402.452 1190.05 413.169 1209.68 422.211 L 1333.47 479.42 C 1338.9 470.499 1346.39 462.28 1353.63 454.81 C 1391.44 415.842 1452.24 393.352 1501.92 424.027 C 1509.22 428.533 1515.12 434.727 1521.12 440.77 z" fill="rgb(250,169,119)" transform="translate(0,0)"></path>
<path d="M 1149.46 394.367 C 1169.3 402.452 1190.05 413.169 1209.68 422.211 L 1333.47 479.42 C 1326.76 490.861 1316.53 508.899 1320.85 522.071 C 1334.14 562.608 1393.9 527.304 1413 514.821 C 1419.22 510.422 1425.27 505.785 1431.13 500.919 C 1438.74 511.747 1442.58 519.693 1449.03 530.858 L 1448.88 532.337 C 1446.09 555.511 1391.04 612.508 1371.19 630.374 C 1351.95 647.681 1317.98 666.444 1339.58 697.019 C 1346.73 707.125 1358.26 709.953 1370.09 708.634 C 1379.23 710.598 1383.7 711.185 1393.26 710.992 C 1383.15 722.378 1387.11 737.453 1398.23 746.792 C 1406.72 753.913 1412.84 755.121 1423.44 755.507 C 1437.97 757.174 1447.58 753.098 1460.86 747.842 C 1463.33 771.208 1472.06 785.08 1497.93 781.386 L 1498.86 781.244 C 1513.64 780.032 1523 771.082 1535.69 767.344 C 1536.32 788.645 1558.34 793.568 1574.09 784.893 C 1617.58 760.943 1650.81 701.167 1668.82 655.746 C 1715.94 675.551 1766.41 700.595 1813.07 722.238 L 1816.41 797.33 C 1817.32 817.898 1819.84 848.217 1815.8 867.595 C 1812.54 883.959 1804.89 899.129 1793.67 911.478 C 1786.97 918.735 1779.25 924.982 1770.76 930.026 C 1762.54 925.126 1731.28 912.743 1721.2 908.513 L 1617.13 864.781 L 1467.28 800.841 C 1431.77 785.338 1394.52 768.151 1358.87 753.679 C 1320.19 737.049 1281.71 719.991 1243.41 702.507 C 1208.93 687.165 1174.44 672.023 1140.22 656.059 C 1117.53 645.473 1095.33 630.861 1072.95 620.464 C 1079.89 613.121 1087.07 608.716 1095.6 603.469 C 1114.85 591.623 1126.96 577.862 1135 556.531 C 1141.32 539.764 1164.35 436.549 1162.85 422.065 C 1161.8 411.946 1153.9 404.673 1150.03 395.721 L 1149.46 394.367 z" fill="rgb(140,72,9)" transform="translate(0,0)"></path>
<path d="M 1413 514.821 C 1419.22 510.422 1425.27 505.785 1431.13 500.919 C 1438.74 511.747 1442.58 519.693 1449.03 530.858 L 1448.88 532.337 C 1438.15 526.476 1424.27 520.291 1413 514.821 z" fill="rgb(255,255,255)" transform="translate(0,0)"></path>
<path d="M 1672.1 526.009 C 1686.27 514.191 1776.44 444.759 1786.8 441.415 C 1773.55 461.65 1762.38 470.179 1746.4 486.766 C 1725.55 508.418 1701 529.889 1680.95 551.793 C 1679.05 549.138 1673.48 530.36 1672.1 526.009 z" fill="rgb(240,108,51)" transform="translate(0,0)"></path>
<path d="M 1490.75 601.28 C 1494.91 601.278 1499.41 601.377 1503.53 601.085 C 1490.34 639.673 1443.52 686.687 1407.01 704.794 C 1402.92 706.819 1397.54 709.146 1393.26 710.992 C 1383.7 711.185 1379.23 710.598 1370.09 708.634 C 1416.3 692.558 1468.37 645.005 1490.75 601.28 z" fill="rgb(240,108,51)" transform="translate(0,0)"></path>
<path d="M 1549.73 635.224 C 1553.59 635.752 1558.2 635.917 1562.14 636.161 C 1543.14 681.828 1504.34 724.142 1460.86 747.842 C 1447.58 753.098 1437.97 757.174 1423.44 755.507 C 1474.07 732.168 1526.38 686.202 1549.73 635.224 z" fill="rgb(240,108,51)" transform="translate(0,0)"></path>
<path d="M 1498.86 781.244 C 1502.55 777.986 1512.48 773.642 1517.46 769.629 C 1533.97 756.343 1549.18 741.35 1562.55 725.01 C 1572.52 712.831 1581.4 699.79 1589.06 686.043 C 1593.37 678.298 1600.65 659.892 1608.58 657.199 C 1612.01 657.711 1610.36 657.146 1613.47 659.556 C 1611.84 685.872 1559.32 753.478 1535.69 767.344 C 1523 771.082 1513.64 780.032 1498.86 781.244 z" fill="rgb(240,108,51)" transform="translate(0,0)"></path>
<path d="M 1431.13 500.919 C 1430.79 495.417 1440.42 495.511 1444.51 495.07 C 1450.83 494.387 1458.83 500.489 1457.92 507.488 C 1457.26 512.553 1454.53 529.719 1449.03 530.858 C 1442.58 519.693 1438.74 511.747 1431.13 500.919 z" fill="rgb(240,108,51)" transform="translate(0,0)"></path>
<metadata><recraft-signature>{"signed_by": "recraft", "signature_b64": "qOtnfZU4w/r7r+gLxodD7ZkHO3RIpZCLMWv8o00Aui2Imr2G4mIQ9/+oltkkU8GYhjf+EmEpPrsqM/uuPaeGCg==", "signing_algo": "Ed25519", "generation_timestamp": 1779005000, "identifier": "4312ed98-6da0-4a99-9fac-a983fdf5df3d"}</recraft-signature></metadata></svg>