<svg xmlns="http://www.w3.org/2000/svg" height="1216" preserveAspectRatio="none" style="display: block;" version="1.1" viewBox="0 0 1509 2048" width="896">
<defs>
	<linearGradient gradientUnits="userSpaceOnUse" id="Gradient1" x1="414.729" x2="428.726" y1="516.823" y2="532.118">
		<stop class="stop0" offset="0" stop-color="rgb(39,26,25)" stop-opacity="1"></stop>
		<stop class="stop1" offset="1" stop-color="rgb(99,72,70)" stop-opacity="1"></stop>
	</linearGradient>
</defs>
<path d="M 0 0 L 1509 0 L 1509 2048 L 0 2048 L 0 0 z" fill="rgb(255,255,255)" transform="translate(0,0)"></path>
<path d="M 600.47 118.608 C 604.194 109.634 607.628 102.166 617.554 98.3118 C 623.343 96.0646 629.803 96.2999 635.413 98.9623 C 642.904 102.474 646.639 107.778 650.211 114.793 C 663.367 105.355 678.419 102.401 689.845 117.721 C 695.387 125.153 693.9 132.728 693.271 141.303 C 694.047 141.792 694.824 142.281 695.6 142.77 C 703.935 143.153 709.027 142.286 714.948 149.412 C 725.024 161.539 721.292 179.132 709.551 188.183 C 709.094 188.532 708.631 188.875 708.162 189.209 C 720.782 199.527 723.874 213.254 712.298 226.5 C 707.641 231.829 703.053 232.555 696.457 234.341 L 692.454 243.803 L 695.155 248.426 C 700.661 254.672 723.161 283.008 724.086 290.146 C 724.782 291.176 726.705 294.697 727.639 294.433 C 768.343 282.928 813.629 316.157 809.031 367.164 C 807.466 385.406 798.694 402.273 784.656 414.028 C 776.817 420.555 770.847 423.423 761.515 427.323 C 767.624 452.67 772.801 462.331 784.357 485.42 C 793.689 504.166 803.133 522.856 812.686 541.491 C 887.556 519.71 968.628 521.992 1037.88 560.002 C 1146.91 619.844 1286.82 804.374 1321.48 924.83 C 1336.08 975.578 1331.65 1026.12 1305.98 1072.54 C 1298.79 1085.56 1289.81 1097.05 1279.91 1108.11 C 1292.65 1166.69 1302.5 1225.87 1309.42 1285.43 C 1312.5 1313.88 1312.97 1346.88 1316.18 1372.88 C 1339.3 1372.75 1358.35 1370.55 1376.59 1388.19 C 1388.03 1399.25 1393.95 1414.04 1394.09 1429.93 C 1394.3 1445.26 1388.37 1460.04 1377.61 1470.97 C 1362.1 1486.61 1347.46 1487.33 1327.05 1487.23 L 1320.83 1487.17 C 1317.45 1500.71 1314 1515.43 1309.33 1528.48 C 1265.06 1652.05 1172.23 1760.78 1060.17 1827.91 C 929.376 1905.55 773.11 1928.1 625.699 1890.61 C 481.195 1854.34 350.022 1753.17 274.903 1625.3 C 251.06 1584.71 227.348 1533.78 216.776 1487.43 C 196.88 1487.97 179.809 1487.19 164.353 1472.43 C 152.894 1461.53 146.37 1446.44 146.286 1430.63 C 146.123 1414.79 152.279 1399.54 163.391 1388.26 C 183.676 1367.97 207.305 1373.77 233.314 1372.79 C 241.65 1372.47 250.286 1372.77 258.653 1372.76 L 373.911 1372.46 C 391.81 1372.39 414.379 1372.95 431.983 1372.18 C 441.192 1371.31 455.234 1371.91 464.882 1372.11 L 464.287 1371.73 C 442.723 1358.07 412.181 1358.85 398.129 1338.15 C 377.275 1307.44 393.736 1277.5 419.562 1259.01 C 419.631 1258.13 419.725 1257.24 419.844 1256.37 L 410.174 1250.29 C 368.351 1276.63 323.31 1257.4 291.294 1225.01 C 260.857 1194.69 244.003 1153.32 244.576 1110.36 C 245.062 1056.82 271.79 1023.96 300.116 981.902 L 359.6 893.208 L 443.902 767.456 C 462.679 739.45 485.766 701.488 508.883 678.745 C 449.444 650.582 402.224 594.352 374.705 535.368 C 370.643 526.661 367.498 517.673 363.003 509.122 L 362.39 507.967 C 359.059 504.831 346.568 487.047 343.646 482.668 L 340.341 480.207 C 339.32 482.339 338.635 483.61 337.209 485.546 C 333.084 491.199 326.865 494.963 319.944 495.996 C 313.427 496.944 306.804 495.215 301.582 491.202 C 295.015 486.135 292.725 480.608 291.632 472.819 C 282.811 477.555 274.942 480.837 264.648 477.49 C 258.092 475.365 252.694 470.648 249.709 464.436 C 243.317 450.974 249.736 446.894 250.76 436.406 C 238.518 432.729 229.827 430.939 225.752 417.013 C 223.817 410.208 224.692 402.911 228.18 396.756 C 233.047 388.168 238.08 385.995 246.658 383.48 C 246.312 382.998 245.974 382.51 245.642 382.018 C 234.541 365.464 237.438 341.425 263.048 337.325 C 265.177 336.984 274.549 339.878 277.306 340.654 L 278.423 339.871 C 280.541 311.966 309.147 304.816 325.508 328.18 C 340.642 312.762 358.894 311.379 370.75 331.576 C 372.625 327.364 374.178 324.972 376.612 321.078 L 377.47 319.723 C 381.886 310.699 395.274 294.186 402.084 286.566 C 433.453 251.468 471.698 225.871 517.255 213.219 C 525.87 210.827 539.319 207.38 548.114 206.848 L 550.008 205.397 C 548.217 202.554 545.746 199.978 543.801 197.074 C 534.252 182.818 539.363 168.096 553.242 159.651 C 556.45 157.699 559.816 156.136 562.92 153.843 C 559.829 142.851 556.966 135.711 563.355 124.657 C 566.696 118.902 572.205 114.727 578.648 113.066 C 587.794 110.775 593.588 112.977 600.47 118.608 z" fill="rgb(8,5,3)" transform="translate(0,0)"></path>
<path d="M 619.08 975.656 C 635.777 975.696 655.652 975.237 672.087 975.886 L 672.051 1041.38 L 672.262 1044.33 L 672.896 1074.02 C 697.542 1071.29 713.231 1079.55 727.94 1099.18 L 728.679 1101.17 C 733.114 1107.18 734.929 1110.52 736.341 1117.97 L 737.095 1121.69 C 737.953 1140.88 736.187 1145.42 728.196 1163.67 C 742.522 1164.83 752.19 1168.89 762.661 1178.71 L 764.447 1180.63 C 776.972 1195.04 780.172 1202.2 781.274 1221.57 C 790.266 1216.16 794.765 1214.21 805.421 1213.57 L 812.643 1215.26 C 822.227 1222.79 828.254 1227.83 829.789 1240.81 C 830.697 1248.16 828.536 1255.56 823.815 1261.27 C 818.129 1268.17 810.194 1271.71 801.403 1272.58 C 822.53 1302.59 807.888 1343.68 769.658 1344.58 C 766.933 1356.93 763.754 1363.03 751.916 1368.83 L 749.067 1369.3 C 745.339 1370.78 740.476 1369.5 736.51 1369.14 C 716.134 1367.3 705.292 1375.25 691.489 1387.88 L 689.168 1392.22 C 682.827 1401.12 685.019 1414.12 675.347 1423.62 C 662.657 1436.07 645.922 1438.82 630.837 1428.91 C 622.215 1423.31 616.29 1414.39 614.463 1404.27 C 613.812 1400.77 613.491 1396.78 613.196 1393.21 C 605.859 1379.18 587.985 1372.15 572.999 1369.99 C 567.73 1369.23 544.402 1367.35 541.528 1371.69 C 534.864 1374.31 533.984 1371.36 524.039 1375.51 C 500.154 1388.77 491.22 1391.6 468.875 1374.51 C 465.067 1371.93 439.023 1372.59 431.983 1372.18 C 441.192 1371.31 455.234 1371.91 464.882 1372.11 L 464.287 1371.73 C 442.723 1358.07 412.181 1358.85 398.129 1338.15 C 377.275 1307.44 393.736 1277.5 419.562 1259.01 C 419.631 1258.13 419.725 1257.24 419.844 1256.37 C 419.96 1255.51 420.1 1254.65 420.263 1253.8 C 398.139 1236.25 363.727 1223.85 355.091 1194.84 C 335.164 1127.92 393.494 1065.54 451.235 1045.13 C 453.205 1045.88 455.194 1046.58 457.198 1047.24 C 477.014 1053.79 534.75 1051.56 557.741 1050.21 C 563.511 1049.87 575.966 1046.77 581.189 1043.76 C 585.623 1041.2 585.015 1042.04 586.184 1038.13 L 585.146 1037.53 C 589.165 1031.9 589.408 1026.19 596.816 1022.02 C 604.401 1017.75 611.494 1019.68 619.281 1021.28 C 619.521 1015.83 619.882 1010.19 618.634 1004.91 C 620.142 1002.03 619.32 999.422 618.873 996.033 C 619.122 989.369 619.044 982.36 619.08 975.656 z" fill="rgb(193,114,89)" transform="translate(0,0)"></path>
<path d="M 728.196 1163.67 C 742.522 1164.83 752.19 1168.89 762.661 1178.71 L 764.447 1180.63 C 776.972 1195.04 780.172 1202.2 781.274 1221.57 C 790.266 1216.16 794.765 1214.21 805.421 1213.57 L 812.643 1215.26 C 822.227 1222.79 828.254 1227.83 829.789 1240.81 C 830.697 1248.16 828.536 1255.56 823.815 1261.27 C 818.129 1268.17 810.194 1271.71 801.403 1272.58 C 822.53 1302.59 807.888 1343.68 769.658 1344.58 C 766.933 1356.93 763.754 1363.03 751.916 1368.83 L 749.067 1369.3 C 745.339 1370.78 740.476 1369.5 736.51 1369.14 C 716.134 1367.3 705.292 1375.25 691.489 1387.88 L 689.168 1392.22 C 682.827 1401.12 685.019 1414.12 675.347 1423.62 C 662.657 1436.07 645.922 1438.82 630.837 1428.91 C 622.215 1423.31 616.29 1414.39 614.463 1404.27 C 613.812 1400.77 613.491 1396.78 613.196 1393.21 C 605.859 1379.18 587.985 1372.15 572.999 1369.99 C 567.73 1369.23 544.402 1367.35 541.528 1371.69 C 534.864 1374.31 533.984 1371.36 524.039 1375.51 C 500.154 1388.77 491.22 1391.6 468.875 1374.51 C 465.067 1371.93 439.023 1372.59 431.983 1372.18 C 441.192 1371.31 455.234 1371.91 464.882 1372.11 L 464.287 1371.73 C 442.723 1358.07 412.181 1358.85 398.129 1338.15 C 377.275 1307.44 393.736 1277.5 419.562 1259.01 C 418.119 1277.39 427.466 1294.94 443.524 1303.99 C 459.581 1313.05 479.434 1311.97 494.415 1301.23 C 494.843 1301.63 495.271 1302.03 495.699 1302.43 C 519.607 1318.58 546.145 1334.88 570.363 1350.25 C 589.261 1362.25 615.209 1381.79 633.972 1359.43 C 640.99 1351.06 641.403 1341.9 640.072 1331.61 C 660.394 1345.12 691.012 1359.71 702.733 1323.71 C 704.861 1317.17 703.859 1309.94 702.947 1303.17 C 711.172 1308.45 719.878 1313.37 730.101 1312.62 C 737.794 1312.09 744.92 1308.39 749.767 1302.39 C 755.316 1295.54 757.937 1286.77 757.059 1278 C 755.941 1266.89 750.455 1260.53 742.195 1253.88 C 748.292 1250.08 751.954 1247.37 755.57 1241.09 C 767.603 1220.2 754.75 1192.98 736.427 1180.35 C 731.411 1176.89 725.88 1173.8 720.62 1170.77 C 723.043 1166.95 724.435 1166.04 728.196 1163.67 z" fill="rgb(148,199,223)" transform="translate(0,0)"></path>
<path d="M 778.298 1259.49 C 786.507 1267.54 790.3 1269.46 801.403 1272.58 C 822.53 1302.59 807.888 1343.68 769.658 1344.58 C 735.852 1340.7 748.711 1327.05 762.027 1309.46 C 769.841 1299.14 768.492 1278.32 769.894 1265.17 C 772.853 1263.24 775.276 1261.31 778.298 1259.49 z" fill="rgb(223,204,181)" transform="translate(0,0)"></path>
<path d="M 769.894 1265.17 C 770.438 1258.46 771.032 1255.66 772.851 1249.23 C 774.581 1252.7 776.397 1256.12 778.298 1259.49 C 775.276 1261.31 772.853 1263.24 769.894 1265.17 z" fill="rgb(169,102,80)" transform="translate(0,0)"></path>
<path d="M 619.08 975.656 C 635.777 975.696 655.652 975.237 672.087 975.886 L 672.051 1041.38 L 672.262 1044.33 L 672.896 1074.02 C 656.331 1078.29 647.508 1084.58 638.57 1099.55 C 635.694 1104.37 633.537 1110.37 631.098 1114.47 L 618.917 1106.64 C 619.612 1098.6 620.29 1082.53 619.372 1074.41 C 618.997 1066.77 619.255 1056.71 619.245 1048.88 C 604.445 1062.06 589.919 1058.17 586.184 1038.13 L 585.146 1037.53 C 589.165 1031.9 589.408 1026.19 596.816 1022.02 C 604.401 1017.75 611.494 1019.68 619.281 1021.28 C 619.521 1015.83 619.882 1010.19 618.634 1004.91 C 620.142 1002.03 619.32 999.422 618.873 996.033 C 619.122 989.369 619.044 982.36 619.08 975.656 z" fill="rgb(148,199,223)" transform="translate(0,0)"></path>
<path d="M 420.263 1253.8 C 423.841 1235.13 438.242 1220.4 456.836 1216.4 C 475.43 1212.4 494.614 1219.9 505.557 1235.46 C 513.466 1246.7 516.103 1260.83 512.781 1274.17 C 510.179 1284.62 504.094 1293.87 495.528 1300.4 C 495.161 1300.68 494.79 1300.96 494.415 1301.23 C 479.434 1311.97 459.581 1313.05 443.524 1303.99 C 427.466 1294.94 418.119 1277.39 419.562 1259.01 C 419.631 1258.13 419.725 1257.24 419.844 1256.37 C 419.96 1255.51 420.1 1254.65 420.263 1253.8 z" fill="rgb(223,204,181)" transform="translate(0,0)"></path>
<path d="M 672.896 1074.02 C 697.542 1071.29 713.231 1079.55 727.94 1099.18 L 728.679 1101.17 C 733.114 1107.18 734.929 1110.52 736.341 1117.97 L 737.095 1121.69 C 737.953 1140.88 736.187 1145.42 728.196 1163.67 C 724.435 1166.04 723.043 1166.95 720.62 1170.77 C 713.501 1166.85 702.5 1159.28 695.069 1154.66 L 631.098 1114.47 C 633.537 1110.37 635.694 1104.37 638.57 1099.55 C 647.508 1084.58 656.331 1078.29 672.896 1074.02 z" fill="rgb(223,204,181)" transform="translate(0,0)"></path>
<path d="M 557.941 1073.11 C 574.879 1087.49 577.83 1112.52 564.702 1130.44 C 551.574 1148.37 526.828 1153.11 508.004 1141.31 C 489.18 1129.5 482.675 1105.16 493.1 1085.53 C 503.524 1065.91 527.337 1057.67 547.658 1066.66 C 551.377 1068.31 554.84 1070.48 557.941 1073.11 z" fill="rgb(148,199,223)" transform="translate(0,0)"></path>
<path d="M 547.658 1066.66 C 553.191 1065.28 563.282 1072.02 568.396 1075.08 C 575.072 1079.13 581.721 1083.22 588.344 1087.35 C 598.962 1075.85 604.456 1075.33 619.372 1074.41 C 620.29 1082.53 619.612 1098.6 618.917 1106.64 L 631.098 1114.47 L 695.069 1154.66 C 702.5 1159.28 713.501 1166.85 720.62 1170.77 C 725.88 1173.8 731.411 1176.89 736.427 1180.35 C 754.75 1192.98 767.603 1220.2 755.57 1241.09 C 751.954 1247.37 748.292 1250.08 742.195 1253.88 C 750.455 1260.53 755.941 1266.89 757.059 1278 C 757.937 1286.77 755.316 1295.54 749.767 1302.39 C 744.92 1308.39 737.794 1312.09 730.101 1312.62 C 719.878 1313.37 711.172 1308.45 702.947 1303.17 C 703.859 1309.94 704.861 1317.17 702.733 1323.71 C 691.012 1359.71 660.394 1345.12 640.072 1331.61 C 641.403 1341.9 640.99 1351.06 633.972 1359.43 C 615.209 1381.79 589.261 1362.25 570.363 1350.25 C 546.145 1334.88 519.607 1318.58 495.699 1302.43 C 495.271 1302.03 494.843 1301.63 494.415 1301.23 C 494.79 1300.96 495.161 1300.68 495.528 1300.4 C 498.705 1301.76 501.558 1303.81 504.475 1305.66 C 533.272 1323.95 561.805 1342.56 590.968 1360.24 C 609.724 1373.13 633.341 1365.7 638.321 1343.02 C 641.664 1327.8 624.815 1323.8 617.212 1317.43 C 603.45 1305.89 556.04 1282.71 547.252 1271.26 L 547.548 1269.95 C 552.175 1270.88 587.067 1294.32 593.613 1298.47 C 613.063 1310.8 633.224 1323.71 653.029 1335.76 C 682.4 1353.63 708.828 1334.71 698.374 1300.79 C 682.588 1286.05 578.736 1226.23 575.24 1218.25 C 581.079 1219.03 596.721 1230.22 602.759 1234.12 L 674.619 1280.32 C 687.021 1288.35 699.232 1296.57 712.112 1304.61 C 740.604 1324.42 766.212 1284.4 748.007 1263.7 C 737.563 1251.83 702.546 1232.58 688.385 1223.63 L 632.031 1187.63 C 627.386 1184.71 610.312 1174.69 607.696 1171.08 L 608.237 1169.63 C 613.069 1169.39 714.329 1237.68 729.05 1245.86 C 733.765 1248.49 739.566 1250.65 744.928 1248.82 C 749.597 1247.22 752.651 1242.72 754.742 1238.47 C 759.214 1229.36 758.373 1218.51 755.003 1209.2 C 752.395 1202 747.777 1193.89 741.873 1188.88 C 731.936 1180.46 718.729 1173.83 707.703 1166.82 C 679.398 1148.76 650.965 1130.9 622.407 1113.25 C 609.764 1105.45 597.194 1097.54 584.7 1089.5 C 576.763 1084.4 566.247 1077.05 557.941 1073.11 C 554.84 1070.48 551.377 1068.31 547.658 1066.66 z" fill="rgb(8,5,3)" transform="translate(0,0)"></path>
<path d="M 619.372 1074.41 C 620.29 1082.53 619.612 1098.6 618.917 1106.64 C 608.98 1101.35 597.74 1093.69 588.344 1087.35 C 598.962 1075.85 604.456 1075.33 619.372 1074.41 z" fill="rgb(223,204,181)" transform="translate(0,0)"></path>
<path d="M 505.557 1235.46 C 512.925 1235.58 516.353 1234.48 521.602 1240.08 C 525.66 1244.47 527.837 1250.27 527.669 1256.25 C 527.323 1266.3 520.394 1269.91 512.781 1274.17 C 516.103 1260.83 513.466 1246.7 505.557 1235.46 z" fill="rgb(148,199,223)" transform="translate(0,0)"></path>
<path d="M 425.42 1157.87 C 435.198 1156.09 445.177 1159.72 451.531 1167.36 C 457.885 1175 459.629 1185.48 456.093 1194.76 C 452.557 1204.05 444.29 1210.72 434.463 1212.2 C 419.585 1214.44 405.659 1204.33 403.189 1189.49 C 400.718 1174.65 410.617 1160.57 425.42 1157.87 z" fill="rgb(223,204,181)" transform="translate(0,0)"></path>
<path d="M 527.405 1168.94 C 536.264 1166.39 545.808 1168.83 552.363 1175.31 C 558.919 1181.79 561.464 1191.3 559.019 1200.19 C 556.573 1209.08 549.519 1215.95 540.572 1218.17 C 527.089 1221.51 513.415 1213.43 509.826 1200.02 C 506.238 1186.6 514.055 1172.78 527.405 1168.94 z" fill="rgb(148,199,223)" transform="translate(0,0)"></path>
<path d="M 541.528 1371.69 C 544.402 1367.35 567.73 1369.23 572.999 1369.99 C 587.985 1372.15 605.859 1379.18 613.196 1393.21 C 613.491 1396.78 613.812 1400.77 614.463 1404.27 C 616.29 1414.39 622.215 1423.31 630.837 1428.91 C 645.922 1438.82 662.657 1436.07 675.347 1423.62 C 685.019 1414.12 682.827 1401.12 689.168 1392.22 C 697.784 1417.73 719.554 1411.28 739.347 1405.83 C 764.556 1398.9 775.791 1392.49 795.716 1375.71 C 817.22 1373.89 858.135 1375.36 881.242 1375.44 L 1045.44 1375.72 L 1247.52 1375.54 C 1279.42 1375.56 1311.92 1375.45 1343.86 1375.89 C 1351.21 1375.99 1361.43 1380.27 1367.49 1384.52 C 1379.56 1393.06 1387.75 1406.04 1390.26 1420.62 C 1392.82 1435.32 1389.41 1450.43 1380.8 1462.62 C 1361.56 1489.62 1330.94 1484.66 1301.63 1484.48 C 1280.39 1484.31 1259.16 1484.26 1237.92 1484.34 L 978.188 1484.85 L 448.278 1484.65 L 278.733 1484.67 C 251.07 1484.61 217.124 1485.91 189.85 1482.67 C 169.525 1480.25 152.967 1458.46 149.903 1438.17 C 147.715 1423.24 151.576 1408.05 160.63 1395.97 C 180.851 1369.19 216.214 1376.02 246.352 1375.9 L 401.188 1375.23 C 418.023 1375.17 453.348 1377.08 468.875 1374.51 C 491.22 1391.6 500.154 1388.77 524.039 1375.51 C 533.984 1371.36 534.864 1374.31 541.528 1371.69 z" fill="rgb(242,130,37)" transform="translate(0,0)"></path>
<path d="M 541.528 1371.69 C 544.402 1367.35 567.73 1369.23 572.999 1369.99 C 587.985 1372.15 605.859 1379.18 613.196 1393.21 C 594.087 1419.29 547.624 1406.54 543.885 1374.95 C 543.116 1373.85 542.33 1372.77 541.528 1371.69 z" fill="rgb(223,204,181)" transform="translate(0,0)"></path>
<path d="M 541.528 1371.69 C 542.33 1372.77 543.116 1373.85 543.885 1374.95 C 539.471 1376.32 528.996 1375.85 524.039 1375.51 C 533.984 1371.36 534.864 1374.31 541.528 1371.69 z" fill="rgb(54,7,3)" transform="translate(0,0)"></path>
<path d="M 689.173 905.464 C 695.626 866.834 722.259 831.847 753.496 809.088 C 863.357 729.046 1012.82 816.473 1021.51 945.239 C 1022.08 953.621 1022.12 961.724 1022.06 970.156 C 996.754 981.857 971.555 993.781 946.463 1005.93 C 930.796 1013.4 911.766 1021.03 897.836 1030.91 C 880.841 1042.96 886.42 1062.01 895.174 1076.57 L 862.702 1092.49 C 818.381 1069.43 766.567 1076.07 736.341 1117.97 C 734.929 1110.52 733.114 1107.18 728.679 1101.17 L 727.94 1099.18 C 713.231 1079.55 697.542 1071.29 672.896 1074.02 L 672.262 1044.33 L 672.051 1041.38 L 672.087 975.886 C 686.054 976.157 704.412 978.755 715.207 968.6 C 729.46 955.191 720.927 929.338 708.8 917.313 C 702.555 911.029 697.444 908.513 689.173 905.464 z" fill="rgb(245,193,31)" transform="translate(0,0)"></path>
<path d="M 672.262 1044.33 L 673.403 1044.67 C 691.661 1050.09 703.316 1039.72 719.768 1034.83 C 753.596 1024.79 757.185 1067.58 741.033 1086.36 C 736.588 1091.63 733.11 1094.74 727.94 1099.18 C 713.231 1079.55 697.542 1071.29 672.896 1074.02 L 672.262 1044.33 z" fill="rgb(193,114,89)" transform="translate(0,0)"></path>
<path d="M 714.156 1039.53 C 723.986 1038.31 732.941 1045.29 734.148 1055.12 C 735.356 1064.95 728.358 1073.9 718.525 1075.09 C 708.711 1076.29 699.786 1069.3 698.581 1059.49 C 697.376 1049.68 704.346 1040.74 714.156 1039.53 z" fill="rgb(148,199,223)" transform="translate(0,0)"></path>
<path d="M 672.051 1041.38 L 673.353 1041.74 C 690.796 1046.46 698.701 1039.49 713.777 1033.16 C 756.175 1015.36 763.826 1071.29 738.82 1092.85 C 735.281 1095.9 732.652 1098.62 728.679 1101.17 L 727.94 1099.18 C 733.11 1094.74 736.588 1091.63 741.033 1086.36 C 757.185 1067.58 753.596 1024.79 719.768 1034.83 C 703.316 1039.72 691.661 1050.09 673.403 1044.67 L 672.262 1044.33 L 672.051 1041.38 z" fill="rgb(8,5,3)" transform="translate(0,0)"></path>
<path d="M 862.66 1096.42 C 880.993 1086.7 903.897 1076.61 920.585 1065.88 C 957.942 1082.83 998.897 1130.63 1013.7 1168.43 C 980.353 1180.46 966.495 1200.32 960.736 1234.62 C 898.573 1283.36 838.833 1337.57 776.876 1386.71 C 769.948 1392.21 755.616 1398.35 746.865 1400.06 C 756.055 1387.66 756.45 1383.42 751.916 1368.83 C 763.754 1363.03 766.933 1356.93 769.658 1344.58 C 807.888 1343.68 822.53 1302.59 801.403 1272.58 C 810.194 1271.71 818.129 1268.17 823.815 1261.27 C 828.536 1255.56 830.697 1248.16 829.789 1240.81 C 828.254 1227.83 822.227 1222.79 812.643 1215.26 L 805.421 1213.57 C 794.765 1214.21 790.266 1216.16 781.274 1221.57 C 780.172 1202.2 776.972 1195.04 764.447 1180.63 L 762.661 1178.71 C 752.19 1168.89 742.522 1164.83 728.196 1163.67 C 736.187 1145.42 737.953 1140.88 737.095 1121.69 C 746.485 1108.99 754.645 1099.99 769.157 1092.74 C 799.397 1077.62 833.995 1078.01 862.66 1096.42 z" fill="rgb(193,114,89)" transform="translate(0,0)"></path>
<path d="M 833.116 1150.89 C 832.944 1142.44 832.947 1137.53 836.278 1129.61 C 844.886 1109.16 873.328 1103.29 889.004 1120.05 C 895.203 1126.62 898.453 1135.43 898.001 1144.45 C 896.872 1170.53 874.386 1182.01 850.83 1172.92 C 853.86 1200.1 840.557 1216.29 812.643 1215.26 L 805.421 1213.57 C 768.85 1189.19 786.161 1137.45 833.116 1150.89 z" fill="rgb(223,204,181)" transform="translate(0,0)"></path>
<path d="M 762.661 1178.71 C 764.525 1176.04 782.488 1160.74 785.255 1162.42 C 786.478 1164.59 766.86 1178.97 764.447 1180.63 L 762.661 1178.71 z" fill="rgb(8,5,3)" transform="translate(0,0)"></path>
<path d="M 384.917 312.685 C 413.379 272.906 450.186 241.291 495.888 223.039 C 506.304 218.879 520.004 216.23 530.719 211.687 C 535.667 209.589 547.116 209.068 552.629 209.375 C 553.355 209.415 556.384 209.962 557.029 210.96 C 556.483 224.373 552.791 236.921 562.247 248.355 C 568.517 255.937 575.377 259.425 585.454 258.384 C 593.017 257.603 597.581 254.109 603.313 249.477 C 612.687 263.743 624.256 269.872 641.29 262.694 C 648.743 259.553 648.887 256.739 654.384 251.458 C 675.322 267.007 682.999 247.617 695.155 248.426 C 700.661 254.672 723.161 283.008 724.086 290.146 C 724.182 291.337 724.483 294.864 723.373 295.539 C 696.205 312.067 682.031 330.71 686.315 363.948 C 648.839 353.551 647.685 362.91 612.553 373.351 C 522.852 400.009 435.494 407.673 384.917 312.685 z" fill="rgb(71,48,46)" transform="translate(0,0)"></path>
<path d="M 600.47 118.608 C 604.194 109.634 607.628 102.166 617.554 98.3118 C 623.343 96.0646 629.803 96.2999 635.413 98.9623 C 642.904 102.474 646.639 107.778 650.211 114.793 C 663.367 105.355 678.419 102.401 689.845 117.721 C 695.387 125.153 693.9 132.728 693.271 141.303 C 694.047 141.792 694.824 142.281 695.6 142.77 C 703.935 143.153 709.027 142.286 714.948 149.412 C 725.024 161.539 721.292 179.132 709.551 188.183 C 709.094 188.532 708.631 188.875 708.162 189.209 C 720.782 199.527 723.874 213.254 712.298 226.5 C 707.641 231.829 703.053 232.555 696.457 234.341 L 692.454 243.803 L 691.05 243.106 L 688.673 245.328 C 676.911 256.373 664.325 257.86 652.998 245.44 C 649.521 252.82 644.765 258.275 636.974 261.164 C 631.222 263.35 624.829 263.112 619.255 260.505 C 610.743 256.423 608.575 250.682 605.777 242.635 C 595.229 254.099 580.943 261.583 567.161 249.27 C 561.973 244.599 558.865 238.05 558.527 231.078 C 558.109 222.319 561.328 216.603 566.821 210.371 C 560.079 207.962 555.338 206.65 548.114 206.848 L 550.008 205.397 C 548.217 202.554 545.746 199.978 543.801 197.074 C 534.252 182.818 539.363 168.096 553.242 159.651 C 556.45 157.699 559.816 156.136 562.92 153.843 C 559.829 142.851 556.966 135.711 563.355 124.657 C 566.696 118.902 572.205 114.727 578.648 113.066 C 587.794 110.775 593.588 112.977 600.47 118.608 z" fill="rgb(71,48,46)" transform="translate(0,0)"></path>
<path d="M 246.658 383.48 C 246.312 382.998 245.974 382.51 245.642 382.018 C 234.541 365.464 237.438 341.425 263.048 337.325 C 265.177 336.984 274.549 339.878 277.306 340.654 L 278.423 339.871 C 280.541 311.966 309.147 304.816 325.508 328.18 C 340.642 312.762 358.894 311.379 370.75 331.576 C 372.625 327.364 374.178 324.972 376.612 321.078 C 376.861 326.507 375.168 326.819 374.564 331.565 C 373.019 343.698 375.597 350.334 369.699 361.407 C 402.038 373.49 403.894 402.462 375.875 419.845 C 381.612 428.432 384.684 435.015 382.752 445.999 C 380.557 458.473 368.436 467.176 356.237 468.11 C 353.074 468.352 348.769 467.148 345.49 467.341 C 343.76 467.421 343.785 481.68 343.646 482.668 L 340.341 480.207 C 339.32 482.339 338.635 483.61 337.209 485.546 C 333.084 491.199 326.865 494.963 319.944 495.996 C 313.427 496.944 306.804 495.215 301.582 491.202 C 295.015 486.135 292.725 480.608 291.632 472.819 C 282.811 477.555 274.942 480.837 264.648 477.49 C 258.092 475.365 252.694 470.648 249.709 464.436 C 243.317 450.974 249.736 446.894 250.76 436.406 C 238.518 432.729 229.827 430.939 225.752 417.013 C 223.817 410.208 224.692 402.911 228.18 396.756 C 233.047 388.168 238.08 385.995 246.658 383.48 z" fill="rgb(71,48,46)" transform="translate(0,0)"></path>
<path d="M 376.612 321.078 C 376.861 326.507 375.168 326.819 374.564 331.565 C 373.019 343.698 375.597 350.334 369.699 361.407 C 402.038 373.49 403.894 402.462 375.875 419.845 C 381.612 428.432 384.684 435.015 382.752 445.999 C 380.557 458.473 368.436 467.176 356.237 468.11 C 353.074 468.352 348.769 467.148 345.49 467.341 C 343.76 467.421 343.785 481.68 343.646 482.668 L 340.341 480.207 C 339.952 478.297 340.544 462.621 340.534 459.361 C 343.345 459.531 346.242 462.175 348.666 463.944 C 357.9 464.266 364.164 464.138 371.782 457.821 C 376.533 453.88 379.513 448.205 380.061 442.056 C 380.946 431.702 376.49 425.624 370.258 418.249 C 401.713 403.356 399.743 367.414 364.266 365.377 C 372.99 351.586 371.708 347.918 370.75 331.576 C 372.625 327.364 374.178 324.972 376.612 321.078 z" fill="rgb(8,5,3)" transform="translate(0,0)"></path>
<path d="M 377.47 319.723 C 382.642 318.422 379.019 316.444 383.499 316.233 C 390.993 330.92 399.289 343.506 411.705 354.575 C 413.659 356.318 421.055 363.443 421.194 366.183 C 423.445 410.636 386.959 443.947 370.141 482.063 C 366.36 490.633 364.393 498.65 362.39 507.967 C 359.059 504.831 346.568 487.047 343.646 482.668 C 343.785 481.68 343.76 467.421 345.49 467.341 C 348.769 467.148 353.074 468.352 356.237 468.11 C 368.436 467.176 380.557 458.473 382.752 445.999 C 384.684 435.015 381.612 428.432 375.875 419.845 C 403.894 402.462 402.038 373.49 369.699 361.407 C 375.597 350.334 373.019 343.698 374.564 331.565 C 375.168 326.819 376.861 326.507 376.612 321.078 L 377.47 319.723 z" fill="rgb(71,48,46)" transform="translate(0,0)"></path>
<path d="M 526.715 1048.32 C 542.723 1022.81 564.001 993.159 581.16 967.806 C 591.301 976.202 595.525 975.788 608.486 976.067 C 611.669 985.923 615.051 995.195 618.634 1004.91 C 619.882 1010.19 619.521 1015.83 619.281 1021.28 C 611.494 1019.68 604.401 1017.75 596.816 1022.02 C 589.408 1026.19 589.165 1031.9 585.146 1037.53 C 566.103 1049.73 548.279 1048.49 526.715 1048.32 z" fill="rgb(255,255,255)" transform="translate(0,0)"></path>
<path d="M 691.489 1387.88 C 705.292 1375.25 716.134 1367.3 736.51 1369.14 C 740.476 1369.5 745.339 1370.78 749.067 1369.3 C 749.079 1369.72 749.091 1370.14 749.102 1370.56 C 764.814 1400.94 712.337 1419.77 695.412 1399.33 C 692.787 1396.16 693.151 1391.77 691.489 1387.88 z" fill="rgb(193,114,89)" transform="translate(0,0)"></path>
<path d="M 618.873 996.033 C 617.584 993.618 611.264 978.382 611.519 976.516 C 612.446 975.564 617.527 975.746 619.08 975.656 C 619.044 982.36 619.122 989.369 618.873 996.033 z" fill="rgb(249,175,26)" transform="translate(0,0)"></path>
<path d="M 440.746 1488.44 C 450.191 1487.65 464.848 1487.98 474.638 1487.98 L 533.518 1488 L 716.424 1487.95 L 963.057 1487.93 C 1052.98 1487.95 1140.05 1484.66 1228.69 1503.83 C 1250.82 1508.62 1287.81 1516.53 1300.67 1536.23 C 1302.67 1546.72 1282.59 1583.57 1277.06 1594.26 C 1222.37 1698 1137.96 1783.05 1034.65 1838.55 C 1011.23 1851.09 986.944 1861.94 961.972 1871 C 820.734 1922.71 664.706 1915.93 528.478 1852.19 C 399.79 1792.16 284.789 1672.65 236.021 1538.52 C 269.031 1497.81 388.646 1491.87 440.746 1488.44 z" fill="rgb(242,130,37)" transform="translate(0,0)"></path>
<path d="M 814.188 543.862 C 842.668 535.795 872.064 531.41 901.659 530.813 C 993.041 529.402 1057.44 565.006 1122.31 627.727 C 1199.61 702.477 1325.54 869.515 1327 979.458 C 1327.57 1022.43 1312.76 1064.18 1285.24 1097.18 C 1269.94 1115.29 1251.73 1131.44 1235.05 1148.52 L 1235.29 1093.21 C 1235.34 1075.59 1239.22 1042.46 1214.1 1041.34 C 1184.39 1040.03 1190.2 1080.79 1190.31 1099.75 L 1190.63 1165.67 C 1162.18 1164.63 1133.03 1165.4 1104.51 1165.78 C 1103.99 1090.8 1105.43 1014.22 1103.87 939.505 C 1123.55 929.981 1139.21 928.542 1161.07 930.815 C 1165.7 931.296 1168.79 933.211 1174.47 933.697 L 1175 932.523 C 1163.33 922.224 1126.3 928.274 1111.87 932.008 C 1127.55 918.645 1136.32 918.505 1146.92 910.408 C 1137.16 907.067 1110.78 928.587 1103.36 935.646 C 1100.82 884.048 1077.01 829.749 1043.82 790.569 C 999.63 737.952 936.431 704.941 868.001 698.734 C 801.301 692.815 735.005 713.822 683.886 757.075 C 640.052 794.377 607.49 848.235 602.755 906.333 C 598.357 908.418 594.51 911.055 590.426 913.695 C 574.841 885.396 564.062 854.706 558.527 822.877 C 556.952 813.762 557.193 805.236 555.388 796.153 L 553.901 795.548 C 552.415 799.196 553.901 806.897 554.259 811.178 C 557.465 849.496 571.988 881.9 588.024 916.03 C 582.966 921.325 579.113 927.65 576.727 934.572 C 572.725 946.239 573.709 954.887 579.063 965.653 C 563.081 991.159 540.006 1023.15 522.879 1048.29 L 503.175 1048.01 C 488.262 1018.24 453.162 999.248 421.363 992.83 C 415.806 991.708 398.694 989.526 394.228 992.54 L 395.098 993.695 C 401.678 994.321 407.803 994.047 414.388 994.882 C 446.368 999.008 475.493 1015.4 495.615 1040.6 L 492.766 1043.12 C 475.371 1025.73 430.457 1046.1 412.961 1057.22 C 372.335 1083.04 344.467 1120.23 332.93 1166.97 C 323.083 1206.85 340.634 1266.07 391.475 1253.06 C 396.773 1251.7 399.514 1246.21 405.584 1247.58 L 406.098 1249.12 C 402.713 1252.7 397.5 1254.08 392.981 1255.75 C 355.228 1269.74 314.922 1246.14 289.048 1218.48 C 260.95 1188.26 246.05 1148.09 247.643 1106.86 C 248.256 1085.28 253.685 1064.11 263.531 1044.9 C 273.036 1025.91 287.954 1005.18 299.963 987.316 L 356.206 903.586 L 441.639 775.944 C 461.459 746.339 486.96 703.977 511.973 680.582 C 569.218 705.713 618.049 701.287 671.938 670.833 C 677.24 673.031 682.605 675.077 688.025 676.967 C 716.871 686.798 749.49 685.94 776.917 672.134 C 801.035 660.009 819.293 638.731 827.612 613.051 C 837.431 582.371 827.501 570.014 814.188 543.862 z" fill="rgb(245,193,31)" transform="translate(0,0)"></path>
<path d="M 738.879 295.25 C 744.178 294.82 749.511 295.084 754.742 296.033 C 771.326 299.109 785.95 308.789 795.261 322.853 C 817.652 356.652 805.616 405.341 767.053 421.485 C 761.415 423.846 749.841 425.43 745.241 428.496 C 750.866 429.345 753.023 428.781 758.613 427.865 C 760.496 435.476 761.984 443.181 763.069 450.946 C 777.126 550.832 714.897 677.554 605.752 692.219 C 551.963 699.446 507.806 680.056 465.615 648.033 C 448.702 634.606 433.373 619.296 419.926 602.399 C 405.487 584.502 368.413 528.836 367.195 506.019 C 365.763 479.189 404.737 436.049 414.859 410.748 C 421.22 394.848 423.14 384.175 424.973 367.015 C 483.238 407.203 546.925 395.092 610.769 376.735 C 645.184 366.84 654.216 354.374 690.09 369.856 C 689.736 368.345 689.407 366.828 689.104 365.306 C 686.102 349.991 689.348 334.112 698.12 321.205 C 707.822 307.156 722.192 298.299 738.879 295.25 z" fill="rgb(193,114,89)" transform="translate(0,0)"></path>
<path d="M 444.814 550.45 C 460.419 538.874 482.186 540.65 495.708 554.603 C 509.23 568.555 510.323 590.367 498.264 605.602 C 486.205 620.836 464.725 624.78 448.04 614.822 C 446.691 614.016 445.392 613.129 444.15 612.166 C 442.173 610.633 440.35 608.912 438.705 607.027 C 437.969 606.183 437.27 605.308 436.61 604.404 C 432.669 599.008 430.192 592.684 429.418 586.047 C 429.069 583.057 429.07 580.035 429.421 577.044 C 430.666 566.437 436.236 556.814 444.814 550.45 z" fill="rgb(71,48,46)" transform="translate(0,0)"></path>
<path d="M 446.044 551.956 C 462.061 540.096 484.622 543.217 496.817 558.981 C 509.012 574.746 506.367 597.367 490.863 609.892 C 475.359 622.416 452.686 620.247 439.838 605.01 C 439.524 604.638 439.218 604.26 438.919 603.875 C 432.867 596.087 430.21 586.188 431.551 576.416 C 432.892 566.644 438.117 557.826 446.044 551.956 z" fill="rgb(255,255,255)" transform="translate(0,0)"></path>
<path d="M 466.664 559.798 C 473.909 558.042 481.558 559.818 487.29 564.585 C 493.021 569.353 496.16 576.551 495.753 583.995 C 495.178 594.511 487.697 603.371 477.426 605.699 C 464.795 608.562 452.22 600.699 449.263 588.09 C 446.307 575.481 454.076 562.847 466.664 559.798 z" fill="rgb(8,5,3)" transform="translate(0,0)"></path>
<path d="M 429.421 577.044 C 429.661 581.003 429.83 582.073 429.418 586.047 C 429.069 583.057 429.07 580.035 429.421 577.044 z" fill="rgb(169,102,80)" transform="translate(0,0)"></path>
<path d="M 438.919 603.875 C 439.218 604.26 439.524 604.638 439.838 605.01 L 438.705 607.027 C 437.969 606.183 437.27 605.308 436.61 604.404 L 438.919 603.875 z" fill="rgb(121,76,62)" transform="translate(0,0)"></path>
<path d="M 444.15 612.166 C 446.184 613.148 446.386 613.308 448.04 614.822 C 446.691 614.016 445.392 613.129 444.15 612.166 z" fill="rgb(169,102,80)" transform="translate(0,0)"></path>
<path d="M 578.558 453.303 C 599.514 451.528 618.024 466.879 620.154 487.802 C 622.285 508.724 607.249 527.492 586.366 529.977 C 572.538 531.623 558.899 525.681 550.686 514.435 C 542.474 503.19 540.967 488.388 546.744 475.718 C 552.52 463.048 564.683 454.479 578.558 453.303 z" fill="rgb(71,48,46)" transform="translate(0,0)"></path>
<path d="M 574.125 456.063 C 586.975 453.3 600.316 457.672 609.038 467.504 C 617.76 477.336 620.511 491.104 616.236 503.533 C 611.962 515.961 601.325 525.124 588.4 527.511 C 568.816 531.128 549.957 518.35 546.055 498.821 C 542.153 479.292 554.655 460.249 574.125 456.063 z" fill="rgb(255,255,255)" transform="translate(0,0)"></path>
<path d="M 581.445 470.286 C 593.966 467.56 606.329 475.487 609.077 488.003 C 611.825 500.518 603.92 512.896 591.41 515.666 C 578.867 518.444 566.452 510.514 563.697 497.967 C 560.942 485.42 568.893 473.018 581.445 470.286 z" fill="rgb(8,5,3)" transform="translate(0,0)"></path>
<path d="M 569.283 412.227 C 572.126 412.519 573.676 413.204 576.321 414.204 C 578.715 423.059 576.948 424.778 568.992 422.906 C 554.108 420.336 538.235 430.249 530.47 442.814 C 529.89 443.753 521.294 465.247 516.047 449.511 C 514.415 444.617 526.707 428.412 531.57 424.071 C 542.769 414.074 554.096 411.27 569.283 412.227 z" fill="rgb(8,5,3)" transform="translate(0,0)"></path>
<path d="M 569.283 412.227 C 572.126 412.519 573.676 413.204 576.321 414.204 C 575.841 415.367 574.07 419.791 573.417 420.436 C 571.362 420.622 569.483 419.98 567.5 419.823 C 552.009 418.603 536.515 428.109 528.067 440.726 C 527.082 441.951 523.551 450.035 522.447 450.4 C 513.756 453.279 524.765 436.719 525.715 435.334 C 532.707 425.136 544.38 416.985 556.528 414.454 C 562.17 413.279 563.591 415.419 569.283 412.227 z" fill="rgb(71,48,46)" transform="translate(0,0)"></path>
<path d="M 433.633 504.276 C 453.11 495.387 452.011 509.642 447.445 510.805 C 432.808 514.142 425.455 519.041 417.166 531.328 C 413.215 537.185 410.561 555.091 409.044 555.5 C 394.759 559.348 404.148 535.318 406.549 529.923 C 407.954 526.334 409.702 523.669 412.218 520.803 L 412.629 520.329 C 414.916 516.973 419.185 512.014 423.001 510.384 C 426.352 507.638 426.83 507.379 430.771 505.537 C 432.068 504.459 431.959 504.51 433.633 504.276 z" fill="url(#Gradient1)" transform="translate(0,0)"></path>
<path d="M 433.633 504.276 C 453.11 495.387 452.011 509.642 447.445 510.805 C 432.808 514.142 425.455 519.041 417.166 531.328 C 413.215 537.185 410.561 555.091 409.044 555.5 C 394.759 559.348 404.148 535.318 406.549 529.923 C 408.239 532.939 406.257 540.316 405.121 542.513 C 401.849 548.842 406.832 557.133 407.76 551.031 C 410.591 530.421 423.675 512.249 445.015 508.656 C 450.587 507.718 442.816 501.513 439.009 503.671 C 437.977 504.256 434.968 504.274 433.633 504.276 z" fill="rgb(8,5,3)" transform="translate(0,0)"></path>
<path d="M 430.771 505.537 C 429.707 508.932 427.542 509.603 424.222 510.165 L 423.001 510.384 C 426.352 507.638 426.83 507.379 430.771 505.537 z" fill="rgb(8,5,3)" transform="translate(0,0)"></path>
<path d="M 412.629 520.329 C 413.293 520.551 413.759 520.552 414.15 521.034 L 414.14 521.175 C 413.568 521.564 412.702 520.986 412.218 520.803 L 412.629 520.329 z" fill="rgb(8,5,3)" transform="translate(0,0)"></path>
<path d="M 654.574 561.487 L 656.154 562.426 C 659.104 574.286 642.492 602.031 634.071 610.58 C 615.725 629.203 595.695 636.576 569.939 637.153 L 568.464 636.507 L 568.067 635.008 C 569.719 633.838 586.814 632.873 592.527 631.532 C 599.553 629.902 606.308 627.27 612.585 623.719 C 637.747 609.497 647.446 587.911 654.574 561.487 z" fill="rgb(8,5,3)" transform="translate(0,0)"></path>
<path d="M 517.911 527.138 C 531.482 525.565 542.356 541.795 542.892 553.999 C 543.272 562.636 537.759 571.354 544.021 579.36 C 552.996 590.834 565.469 586.221 573.016 576.001 C 573.76 575.006 575.226 575.533 576.167 575.772 C 565.419 595.508 540.757 592.048 538.098 572.996 C 536.131 558.901 545.496 543.252 526.294 532.19 C 522.423 529.96 521.045 530.79 517.911 527.138 z" fill="rgb(8,5,3)" transform="translate(0,0)"></path>
<path d="M 759.484 337.172 C 781.773 336.413 786.926 351.342 779.968 346.547 C 756.293 330.233 740.1 347.013 740.844 372.548 C 741.222 373.982 741.575 375.422 741.903 376.868 C 742.43 379.281 748.01 393.859 747.977 393.97 C 746.262 398.084 743.918 391.703 743.444 390.737 C 733.487 370.435 734.553 344.923 759.484 337.172 z" fill="rgb(8,5,3)" transform="translate(0,0)"></path>
<path d="M 829.449 701.401 C 834.742 701.04 840.197 701.008 845.507 700.973 C 913.569 701.014 978.816 728.144 1026.84 776.373 C 1068.25 817.375 1094.09 871.517 1099.92 929.5 C 1102.35 955.364 1101.2 995.326 1101.29 1022.45 L 1101.72 1165.89 L 1025.13 1166.14 L 1025.05 1026.91 C 1025.05 988.852 1027.57 950.023 1019.15 913.191 C 1016.29 902.455 1012.56 891.971 1008 881.842 C 988.67 839.296 950.07 803.093 906.322 786.735 C 813.008 751.846 722.194 801.365 688.727 891.928 L 607.426 891.904 C 629.241 782.765 720.327 710.397 829.449 701.401 z" fill="rgb(193,114,89)" transform="translate(0,0)"></path>
<path d="M 1276.42 1111.71 C 1279.51 1114.8 1283.58 1141.31 1284.87 1147.21 C 1301.44 1222.76 1308.01 1296.1 1312.92 1372.91 C 1268.26 1372.45 1222.93 1372.88 1178.22 1372.93 C 1176.93 1362.54 1176.39 1358.18 1171.78 1348.92 C 1162.87 1333.7 1149.43 1324.41 1132.92 1318.99 C 1172.62 1308.96 1210.82 1322.35 1241.78 1288.97 C 1270.58 1257.93 1264.71 1214.35 1235.24 1187.45 L 1235.1 1152.71 C 1247.18 1139.2 1263.29 1125.27 1276.42 1111.71 z" fill="rgb(245,193,31)" transform="translate(0,0)"></path>
<path d="M 1024.13 1169.43 C 1059.94 1168.4 1099.52 1169.13 1135.63 1169.05 C 1123.69 1174.54 1113.34 1182.96 1105.55 1193.53 C 1078.7 1230.41 1090.16 1278.22 1126.32 1304.19 L 1106.75 1304.49 C 1075.3 1305.08 1043.42 1304.77 1011.91 1305 C 1009.7 1306.42 1009.21 1306.88 1006.58 1307.54 C 962.218 1290.14 951.48 1231.79 979.5 1195.52 C 990.42 1181.35 1006.43 1171.99 1024.13 1169.43 z" fill="rgb(193,114,89)" transform="translate(0,0)"></path>
<path d="M 959.879 1238.92 C 960.672 1240.01 962.108 1254.31 962.924 1257.87 C 969.922 1288.43 982.397 1297.34 1007.55 1312.86 L 1007.99 1315.18 C 1002.91 1326.95 968.373 1317.79 961.049 1372.87 L 849.615 1372.53 C 832.854 1372.49 816.093 1372.54 799.333 1372.68 C 851.653 1327.51 906.911 1283.58 959.879 1238.92 z" fill="rgb(245,193,31)" transform="translate(0,0)"></path>
<path d="M 1198.41 1178.35 C 1270.34 1177.64 1279.81 1291.71 1206.24 1304.79 C 1135.37 1309.45 1124.12 1188.16 1198.41 1178.35 z" fill="rgb(223,204,181)" transform="translate(0,0)"></path>
<path d="M 767.627 461.805 C 767.442 460.983 767.238 460.686 767.536 460.022 C 768.773 459.357 771.401 465.372 771.722 466.039 C 772.504 468.554 779.817 482.897 781.348 485.965 C 790.159 503.638 799.099 521.247 808.167 538.79 C 813.721 549.592 823.661 566.838 826.681 578.198 C 833.931 605.466 814.978 640.133 794.646 656.802 C 768.01 678.641 740.971 682.318 708.389 679.613 C 762.219 625.042 773.649 534.715 767.627 461.805 z" fill="rgb(193,114,89)" transform="translate(0,0)"></path>
<path d="M 767.627 461.805 C 767.442 460.983 767.238 460.686 767.536 460.022 C 768.773 459.357 771.401 465.372 771.722 466.039 C 770.343 464.641 768.978 463.23 767.627 461.805 z" fill="rgb(121,76,62)" transform="translate(0,0)"></path>
<path d="M 1020.59 973.969 L 1021.37 974.56 C 1022.24 977.294 1023 1158.9 1021.57 1163.47 C 1020.81 1165.87 1020.11 1166.51 1017.92 1167.61 C 1015.76 1165.78 1010.27 1148.11 1008.6 1143.82 C 1001.13 1124.56 992.026 1110.19 980.01 1093.61 C 957.109 1064 937.418 1047.08 904.139 1029.8 C 942.761 1010.79 981.579 992.175 1020.59 973.969 z" fill="rgb(245,193,31)" transform="translate(0,0)"></path>
<path d="M 1007.01 1322.16 C 1047.68 1318.58 1131.83 1321.71 1164.61 1347.2 C 1173.48 1354.09 1174.05 1362.54 1175.32 1372.92 L 1133.5 1372.84 L 963.722 1372.86 C 967.411 1346.08 979.596 1328.45 1007.01 1322.16 z" fill="rgb(223,204,181)" transform="translate(0,0)"></path>
<path d="M 676.745 908.499 C 688.551 908.425 695.635 909.436 705.023 917.68 C 713.595 925.278 718.805 935.965 719.511 947.398 C 720.232 958.711 713.168 970.903 702.339 971.863 C 677.181 974.094 646.487 972.988 621.5 972.909 C 616.909 972.953 612.215 972.989 607.628 972.98 C 561.089 972.895 573.47 926.058 602.513 909.091 C 625.258 908.034 653.516 908.628 676.745 908.499 z" fill="rgb(193,114,89)" transform="translate(0,0)"></path>
<path d="M 1152.92 1168.34 C 1161.45 1168.13 1187.39 1165.55 1191.8 1172.24 C 1191.44 1173.34 1191.1 1175.17 1190.28 1175.49 C 1181.2 1179.01 1176.59 1179.15 1167.73 1184.36 C 1152.67 1193.27 1141.79 1207.82 1137.51 1224.79 C 1133.05 1242.72 1135.97 1261.7 1145.62 1277.46 C 1154.18 1291.5 1168.25 1302.32 1184.34 1306.22 C 1189.4 1307.45 1194.47 1307.2 1200.03 1308.5 L 1198.84 1309.9 C 1175.84 1311.19 1147.25 1314.56 1127.44 1301.24 C 1111.16 1290.29 1099.63 1273.6 1095.65 1254.32 C 1091.63 1234.79 1095.55 1214.46 1106.55 1197.83 C 1118.67 1179.66 1132.27 1172.39 1152.92 1168.34 z" fill="rgb(223,204,181)" transform="translate(0,0)"></path>
<path d="M 1209.1 1044.17 C 1220.11 1044.22 1229.8 1047.92 1231.22 1060.42 C 1232.89 1075.12 1232.21 1090.77 1232.18 1105.63 L 1232.22 1185.07 C 1229.19 1183.04 1225.76 1181.28 1222.55 1179.52 C 1212.32 1175.5 1204.06 1174.76 1193.27 1175.42 C 1194.68 1153.87 1190.57 1067.45 1195.75 1055.28 C 1198.25 1049.38 1203.53 1046.52 1209.1 1044.17 z" fill="rgb(223,204,181)" transform="translate(0,0)"></path>
<path d="M 495.615 1040.6 C 499.16 1047 497.448 1049.24 492.766 1043.12 L 495.615 1040.6 z" fill="rgb(249,175,26)" transform="translate(0,0)"></path>
<metadata><recraft-signature>{"signed_by": "recraft", "signature_b64": "hTSAC5FMSLIN6EbNfj2wqE56i7hulujpOJf5zzSKKQt2aRlX9FB0E465tdlCPA+x5vAgsJ1RY9P11XKcYGLxCg==", "signing_algo": "Ed25519", "generation_timestamp": 1779004882, "identifier": "17ad482c-22bd-4ea1-8ab8-d518b461198a"}</recraft-signature></metadata></svg>