<svg xmlns="http://www.w3.org/2000/svg" height="1024" preserveAspectRatio="none" style="display: block;" version="1.1" viewBox="0 0 2048 2048" width="1024">
<path d="M 0 0 L 2048 0 L 2048 2048 L 0 2048 L 0 0 z" fill="rgb(255,255,255)" transform="translate(0,0)"></path>
<path d="M 1080.35 429.979 C 1062.73 413.576 1052.28 400.055 1051.25 374.587 C 1050.39 356.874 1056.66 339.553 1068.68 326.508 C 1095.88 297.083 1124.17 308.532 1157.82 299.999 C 1202.05 287.781 1245.77 266.852 1284.6 242.511 C 1294.04 236.587 1305.63 226.215 1314.64 218.948 C 1377.25 168.474 1465.04 144.129 1544.68 139.83 C 1624.42 135.526 1710.14 166.085 1769.08 220.185 C 1812.97 260.461 1840.62 315.49 1861.3 370.244 C 1872.6 400.151 1880.31 419.535 1887.48 451.098 L 1938.67 452.462 C 1955.31 509.962 1976.46 566.529 1992.43 624.315 C 1997.41 642.329 2005.88 659.838 2010.12 678.072 C 2013.03 689.393 2007.13 706.078 1994.49 708.071 C 1981.77 710.076 1966.79 710.043 1953.69 710.53 L 1869.51 713.196 C 1863.2 743.353 1852.28 772.162 1818.31 777.797 C 1814.67 778.962 1814.76 777.416 1812.01 780.42 L 1909.69 815.879 C 1916.42 818.312 1946.06 828.531 1950.64 831.377 C 1944.48 912.318 1937.51 993.195 1929.72 1074 C 1924.29 1143.44 1918.37 1212.85 1911.96 1282.21 C 1910.96 1293.47 1905.31 1378.07 1903.4 1382.69 C 1899.66 1430.14 1895.52 1477.56 1890.98 1524.94 C 1655.47 1598.72 1420.72 1674.87 1186.75 1753.38 C 1108.03 1780.31 1028.46 1804.69 950.384 1833.67 C 942.734 1836.51 934.448 1838.76 926.952 1841.82 C 923.388 1841.9 777.54 1765.4 762.61 1757.72 L 424.734 1583.22 L 324.368 1531.86 C 289.538 1514.33 250.029 1494.84 216.101 1475.82 L 211.777 1077.44 C 211.048 1001.56 208.65 922.56 209.37 847.003 C 204.201 848.347 198.271 849.367 192.959 850.379 C 149.751 858.613 106.772 868.128 63.6151 876.51 C 59.0962 877.388 51.5465 877.769 47.3022 875.933 C 14.5375 861.764 28.3576 834.956 36.995 810.476 C 43.0753 793.24 49.2463 776.036 55.5079 758.865 C 72.2899 712.691 88.8816 663.907 107.13 618.529 C 113.534 616.592 125.133 614.867 131.942 613.545 C 155.692 608.934 181.193 606.097 204.595 600.434 C 207.65 582.919 213.559 564.736 216.754 547.468 C 236.703 439.654 281.306 343.465 385.481 292.972 C 476.033 249.082 588.51 241.501 682.659 280.976 C 698.44 287.592 711.07 295.988 725.825 304.418 C 755.178 319.664 799.235 333.801 831.794 339.285 C 849.222 342.277 867.016 342.471 884.506 339.86 C 910.641 335.819 936.402 322.457 961.427 331.046 C 976.377 336.345 988.585 347.406 995.328 361.762 C 1003.36 378.897 1002.34 398.629 995.605 416.181 C 993.084 422.751 988.167 428.359 986.024 435.348 L 1000.21 433.516 C 1019.24 425.728 1058.12 429.228 1080.35 429.979 z" fill="rgb(197,164,109)" transform="translate(0,0)"></path>
<path d="M 204.595 600.434 C 207.65 582.919 213.559 564.736 216.754 547.468 C 236.703 439.654 281.306 343.465 385.481 292.972 C 476.033 249.082 588.51 241.501 682.659 280.976 C 698.44 287.592 711.07 295.988 725.825 304.418 C 755.178 319.664 799.235 333.801 831.794 339.285 C 849.222 342.277 867.016 342.471 884.506 339.86 C 910.641 335.819 936.402 322.457 961.427 331.046 C 976.377 336.345 988.585 347.406 995.328 361.762 C 1003.36 378.897 1002.34 398.629 995.605 416.181 C 993.084 422.751 988.167 428.359 986.024 435.348 L 1000.21 433.516 L 1000.21 435.176 C 998.472 441.629 997.142 446.289 998.625 453.072 C 1001.89 468.028 1006.97 483.246 1011.61 497.838 C 1019.53 522.69 1027.59 547.495 1035.81 572.251 C 1049.47 613.644 1062.41 659.377 1077.31 700.021 L 921.967 726.793 C 910.621 728.638 872.371 735.807 863.096 735.932 C 856.235 739.478 848.578 743.786 841.097 745.548 C 833.592 747.317 821.714 745.497 814.403 746.894 C 773.519 754.709 731.289 759.137 690.437 766.604 L 706.514 819.243 C 712.052 836.777 722.822 867.004 723.945 884.054 C 724.811 896.133 722.731 908.242 717.885 919.34 C 730.193 924.645 752.056 931.484 765.272 936.028 C 801.079 948.305 836.974 960.327 872.952 972.092 C 890.91 978.111 908.819 984.277 926.677 990.588 C 933.832 993.11 949.648 999.134 956.218 1000.53 L 939.012 1525.29 C 937.575 1573.45 933.232 1626.7 933.03 1673.83 C 931.576 1678.36 931.237 1712.04 930.93 1718.74 C 929.071 1759.43 929.117 1801.21 926.952 1841.82 C 923.388 1841.9 777.54 1765.4 762.61 1757.72 L 424.734 1583.22 L 324.368 1531.86 C 289.538 1514.33 250.029 1494.84 216.101 1475.82 L 211.777 1077.44 C 211.048 1001.56 208.65 922.56 209.37 847.003 C 204.201 848.347 198.271 849.367 192.959 850.379 C 149.751 858.613 106.772 868.128 63.6151 876.51 C 59.0962 877.388 51.5465 877.769 47.3022 875.933 C 14.5375 861.764 28.3576 834.956 36.995 810.476 C 43.0753 793.24 49.2463 776.036 55.5079 758.865 C 72.2899 712.691 88.8816 663.907 107.13 618.529 C 113.534 616.592 125.133 614.867 131.942 613.545 C 155.692 608.934 181.193 606.097 204.595 600.434 z" fill="rgb(179,141,93)" transform="translate(0,0)"></path>
<path d="M 204.595 600.434 C 207.65 582.919 213.559 564.736 216.754 547.468 C 236.703 439.654 281.306 343.465 385.481 292.972 C 476.033 249.082 588.51 241.501 682.659 280.976 C 698.44 287.592 711.07 295.988 725.825 304.418 C 755.178 319.664 799.235 333.801 831.794 339.285 C 849.222 342.277 867.016 342.471 884.506 339.86 C 910.641 335.819 936.402 322.457 961.427 331.046 C 976.377 336.345 988.585 347.406 995.328 361.762 C 1003.36 378.897 1002.34 398.629 995.605 416.181 C 993.084 422.751 988.167 428.359 986.024 435.348 L 1000.21 433.516 L 1000.21 435.176 C 998.472 441.629 997.142 446.289 998.625 453.072 C 1001.89 468.028 1006.97 483.246 1011.61 497.838 C 1019.53 522.69 1027.59 547.495 1035.81 572.251 C 1049.47 613.644 1062.41 659.377 1077.31 700.021 L 921.967 726.793 C 910.621 728.638 872.371 735.807 863.096 735.932 C 856.235 739.478 848.578 743.786 841.097 745.548 C 833.592 747.317 821.714 745.497 814.403 746.894 C 773.519 754.709 731.289 759.137 690.437 766.604 L 706.514 819.243 C 712.052 836.777 722.822 867.004 723.945 884.054 C 724.811 896.133 722.731 908.242 717.885 919.34 C 705.901 932.485 703.483 946.891 682.153 952.631 C 639.087 964.218 614.426 931.322 604.309 895.463 C 601.468 897.704 598.562 899.883 595.977 902.407 C 605.013 927.798 612.154 951.265 599.481 977.624 C 592.897 991.35 581.213 1001.96 566.919 1007.2 C 553.517 1011.98 539.662 1010.89 526.944 1004.71 C 505.468 994.278 499.129 977.11 489.587 956.903 C 484.055 944.995 478.432 933.13 472.719 921.308 L 471.249 925.12 C 484.336 986.392 414.023 1026.63 378.104 965.84 C 364.559 942.918 351.341 920.116 340.242 895.773 L 339.017 896.7 C 333.09 909.709 325.36 921.11 311.206 926.317 C 301.1 930.07 289.918 929.665 280.109 925.191 C 258.754 915.33 252.162 892.028 245.044 871.764 L 233.798 840.216 C 227.465 843.235 216.636 845.239 209.37 847.003 C 204.201 848.347 198.271 849.367 192.959 850.379 C 149.751 858.613 106.772 868.128 63.6151 876.51 C 59.0962 877.388 51.5465 877.769 47.3022 875.933 C 14.5375 861.764 28.3576 834.956 36.995 810.476 C 43.0753 793.24 49.2463 776.036 55.5079 758.865 C 72.2899 712.691 88.8816 663.907 107.13 618.529 C 113.534 616.592 125.133 614.867 131.942 613.545 C 155.692 608.934 181.193 606.097 204.595 600.434 z" fill="rgb(248,163,121)" transform="translate(0,0)"></path>
<path d="M 1000.21 433.516 L 1000.21 435.176 C 998.472 441.629 997.142 446.289 998.625 453.072 C 1001.89 468.028 1006.97 483.246 1011.61 497.838 C 1019.53 522.69 1027.59 547.495 1035.81 572.251 C 1049.47 613.644 1062.41 659.377 1077.31 700.021 L 921.967 726.793 C 910.621 728.638 872.371 735.807 863.096 735.932 C 856.235 739.478 848.578 743.786 841.097 745.548 C 833.592 747.317 821.714 745.497 814.403 746.894 C 773.519 754.709 731.289 759.137 690.437 766.604 C 670.51 702.508 649.362 639.267 673.797 573.936 C 682.849 549.733 685.219 538.314 701.682 517.319 C 710.635 509.757 721.804 499.165 732.248 494.496 C 728.795 488.876 766.253 477.81 771.003 477.09 C 779.523 475.797 789.428 476.784 796.736 475.061 C 804.066 474.897 816.106 475.598 822.937 478.673 C 840.389 479.092 857.337 482.496 875.149 482.206 C 919.003 481.492 959.72 472.573 986.024 435.348 L 1000.21 433.516 z" fill="rgb(169,113,25)" transform="translate(0,0)"></path>
<path d="M 863.096 735.932 C 880.294 722.125 884.392 706.232 892.682 686.516 C 901.119 666.497 909.454 646.435 917.687 626.332 C 934.614 585.007 952.737 544.122 969.905 502.872 C 975.393 489.687 992.445 444.973 1000.21 435.176 C 998.472 441.629 997.142 446.289 998.625 453.072 C 1001.89 468.028 1006.97 483.246 1011.61 497.838 C 1019.53 522.69 1027.59 547.495 1035.81 572.251 C 1049.47 613.644 1062.41 659.377 1077.31 700.021 L 921.967 726.793 C 910.621 728.638 872.371 735.807 863.096 735.932 z" fill="rgb(69,43,14)" transform="translate(0,0)"></path>
<path d="M 796.736 475.061 C 804.066 474.897 816.106 475.598 822.937 478.673 C 792.694 483.793 762.433 489.442 732.248 494.496 C 728.795 488.876 766.253 477.81 771.003 477.09 C 779.523 475.797 789.428 476.784 796.736 475.061 z" fill="rgb(255,255,255)" transform="translate(0,0)"></path>
<path d="M 204.595 600.434 C 200.142 621.954 192.603 652.883 191.328 674.071 C 189.053 711.897 204.516 751.838 216.348 787.148 C 222.154 804.476 227.617 823.125 233.798 840.216 C 227.465 843.235 216.636 845.239 209.37 847.003 C 204.201 848.347 198.271 849.367 192.959 850.379 C 149.751 858.613 106.772 868.128 63.6151 876.51 C 59.0962 877.388 51.5465 877.769 47.3022 875.933 C 14.5375 861.764 28.3576 834.956 36.995 810.476 C 43.0753 793.24 49.2463 776.036 55.5079 758.865 C 72.2899 712.691 88.8816 663.907 107.13 618.529 C 113.534 616.592 125.133 614.867 131.942 613.545 C 155.692 608.934 181.193 606.097 204.595 600.434 z" fill="rgb(169,113,25)" transform="translate(0,0)"></path>
<path d="M 595.977 902.407 C 574.471 883.456 541.605 799.709 533.728 771.473 C 519.56 721.079 500.298 675.138 514.365 621.74 C 517.459 609.993 532.796 544.061 555.91 553.237 C 566.169 560.343 556.616 570.7 553.237 576.407 C 503.379 660.605 552.648 762.92 582.345 845.759 C 588.586 863.168 601.173 876.705 604.309 895.463 C 601.468 897.704 598.562 899.883 595.977 902.407 z" fill="rgb(211,108,81)" transform="translate(0,0)"></path>
<path d="M 471.249 925.12 C 470.357 925.336 469.458 925.518 468.554 925.666 C 462.269 926.722 459.285 922.592 456.129 917.563 C 424.565 868.475 408.517 815.972 393.935 760.229 C 378.888 702.709 376.627 654.387 400.724 598.459 C 404.79 589.022 412.448 572.446 424.607 584.615 C 429.095 589.106 419.881 603.844 418.722 608.973 C 409.677 633.858 404.338 661.27 404.041 687.868 C 403.96 704.104 405.535 720.307 408.742 736.224 C 417.834 783.163 438.106 837.524 456.667 881.761 C 461.399 893.039 475.6 909.613 472.719 921.308 L 471.249 925.12 z" fill="rgb(211,108,81)" transform="translate(0,0)"></path>
<path d="M 339.017 896.7 C 337.641 896.156 333.847 894.624 333.295 893.61 C 315.402 860.727 290.11 792.283 281.081 759.371 C 276.442 742.83 273.185 725.931 271.345 708.85 C 268.441 679.49 275.138 646.379 285.59 619 C 288.583 611.161 292.275 597.647 301.988 596.686 C 306.07 598.24 304.461 596.999 307.005 600.534 C 308.428 607.391 299.51 624.189 296.919 632.547 C 290.888 651.998 285.167 681.04 286.323 701.562 C 289.262 753.743 312.565 809.685 328.726 859.576 C 331.642 868.576 339.288 883.193 341.393 893.039 C 341.01 893.95 340.626 894.861 340.242 895.773 L 339.017 896.7 z" fill="rgb(211,108,81)" transform="translate(0,0)"></path>
<path d="M 695.281 510.702 C 695.851 509.565 696.466 508.45 697.123 507.361 C 711.845 483.15 735.451 467.201 762.873 460.67 C 771.527 458.609 798.237 453.083 800.622 466.538 C 801.192 469.757 798.649 472.685 796.736 475.061 C 789.428 476.784 779.523 475.797 771.003 477.09 C 766.253 477.81 728.795 488.876 732.248 494.496 C 721.804 499.165 710.635 509.757 701.682 517.319 L 695.281 510.702 z" fill="rgb(211,108,81)" transform="translate(0,0)"></path>
<path d="M 951.375 344.948 C 957.902 344.842 960.85 345.087 963.243 352.466 C 963.745 354.014 963.28 357.253 962.073 358.514 C 950.032 371.099 927.499 375.434 910.996 379.137 C 893.784 381.746 874.334 382.211 860.08 371.859 C 855.622 363.954 851.224 350.367 862.873 346.233 C 871.629 346.768 871.565 353.862 872.514 360.668 L 874.253 361.034 C 900.177 366.421 929.423 359.429 951.375 344.948 z" fill="rgb(211,108,81)" transform="translate(0,0)"></path>
<path d="M 1080.35 429.979 C 1062.73 413.576 1052.28 400.055 1051.25 374.587 C 1050.39 356.874 1056.66 339.553 1068.68 326.508 C 1095.88 297.083 1124.17 308.532 1157.82 299.999 C 1202.05 287.781 1245.77 266.852 1284.6 242.511 C 1294.04 236.587 1305.63 226.215 1314.64 218.948 C 1377.25 168.474 1465.04 144.129 1544.68 139.83 C 1624.42 135.526 1710.14 166.085 1769.08 220.185 C 1812.97 260.461 1840.62 315.49 1861.3 370.244 C 1872.6 400.151 1880.31 419.535 1887.48 451.098 L 1938.67 452.462 C 1955.31 509.962 1976.46 566.529 1992.43 624.315 C 1997.41 642.329 2005.88 659.838 2010.12 678.072 C 2013.03 689.393 2007.13 706.078 1994.49 708.071 C 1981.77 710.076 1966.79 710.043 1953.69 710.53 L 1869.51 713.196 C 1863.2 743.353 1852.28 772.162 1818.31 777.797 C 1812.49 776.878 1812.7 777.146 1806.95 775.566 C 1804.39 775.521 1802.2 775.532 1799.65 775.614 C 1794.24 774.098 1784.8 769.811 1778.67 767.787 C 1775.97 769.763 1772.56 777.669 1770.65 781.317 C 1757.5 806.397 1743.86 848.071 1709.98 849.703 C 1696.68 850.343 1681.96 842.297 1673.03 832.883 C 1661.41 820.584 1658.83 809.651 1656.6 793.743 C 1655.89 790.148 1655.69 789.998 1654.15 786.826 C 1643.69 817.182 1635.36 859.133 1606.2 873.682 C 1594.01 879.87 1579.79 880.705 1566.96 875.987 C 1537.63 865.194 1519.73 827.115 1529.39 797.98 C 1529.49 795.351 1528.92 795.132 1527.44 792.807 C 1514.46 849.66 1458 875.004 1421.12 819.441 C 1403.64 793.117 1417.74 756.078 1425.78 727.476 L 1427.85 720.952 C 1422.76 719.175 1382.04 721.179 1374.99 721.408 C 1314.51 723.492 1254.01 725.027 1193.5 726.01 C 1182.82 726.199 1172.12 726.542 1161.45 726.659 C 1129.84 727.005 1095.25 732.799 1077.31 700.021 C 1062.41 659.377 1049.47 613.644 1035.81 572.251 C 1027.59 547.495 1019.53 522.69 1011.61 497.838 C 1006.97 483.246 1001.89 468.028 998.625 453.072 C 997.142 446.289 998.472 441.629 1000.21 435.176 L 1000.21 433.516 C 1019.24 425.728 1058.12 429.228 1080.35 429.979 z" fill="rgb(248,163,121)" transform="translate(0,0)"></path>
<path d="M 1000.21 433.516 C 1019.24 425.728 1058.12 429.228 1080.35 429.979 C 1120.54 452.735 1143.9 450.503 1189.64 439.72 C 1197.1 437.962 1210.54 432.5 1217.42 431.766 C 1241.54 433.123 1266.54 433.113 1290.84 433.675 C 1332.84 434.76 1374.86 435.254 1416.88 435.157 C 1422.41 440.743 1428.37 452.225 1432.26 459.365 C 1445.16 483.013 1463.64 518.902 1463.55 546.021 C 1463.4 588.509 1452.68 626.416 1441.31 666.818 C 1436.38 684.332 1432.29 703.156 1427.85 720.952 C 1422.76 719.175 1382.04 721.179 1374.99 721.408 C 1314.51 723.492 1254.01 725.027 1193.5 726.01 C 1182.82 726.199 1172.12 726.542 1161.45 726.659 C 1129.84 727.005 1095.25 732.799 1077.31 700.021 C 1062.41 659.377 1049.47 613.644 1035.81 572.251 C 1027.59 547.495 1019.53 522.69 1011.61 497.838 C 1006.97 483.246 1001.89 468.028 998.625 453.072 C 997.142 446.289 998.472 441.629 1000.21 435.176 L 1000.21 433.516 z" fill="rgb(197,164,109)" transform="translate(0,0)"></path>
<path d="M 1887.48 451.098 L 1938.67 452.462 C 1955.31 509.962 1976.46 566.529 1992.43 624.315 C 1997.41 642.329 2005.88 659.838 2010.12 678.072 C 2013.03 689.393 2007.13 706.078 1994.49 708.071 C 1981.77 710.076 1966.79 710.043 1953.69 710.53 L 1869.51 713.196 L 1890.27 637.975 C 1896.26 616.059 1904.54 585.693 1907.08 563.317 C 1908.48 551.719 1908.39 539.991 1906.82 528.416 C 1904.67 513.196 1899.43 499.834 1895.03 485.221 C 1891.49 473.474 1889.39 463.168 1887.48 451.098 z" fill="rgb(197,164,109)" transform="translate(0,0)"></path>
<path d="M 1527.44 792.807 C 1527.16 784.513 1539.19 761.16 1543.13 751.891 C 1555.71 722.342 1562.07 692.376 1570.37 661.538 C 1588.84 593.233 1608.26 516.796 1560.74 455.032 C 1546.2 436.136 1568.12 429.174 1577.34 443.037 C 1615.88 500.96 1617.3 546.622 1603.29 611.754 C 1598.71 633.31 1593.84 654.804 1588.67 676.228 C 1580.28 710.817 1570.54 743.431 1553.4 774.828 C 1548.5 783.816 1541.57 801.367 1529.39 797.98 C 1529.49 795.351 1528.92 795.132 1527.44 792.807 z" fill="rgb(211,108,81)" transform="translate(0,0)"></path>
<path d="M 1654.15 786.826 C 1656.25 770.235 1670.16 751.229 1675.17 736.636 C 1691.22 689.897 1717.77 615.025 1718.05 567.101 C 1718.02 538.809 1712.03 510.84 1700.46 485.02 C 1696.84 476.885 1692.12 469.42 1688.51 461.551 C 1685.57 455.137 1694.25 447.179 1700.4 450.01 C 1710.5 454.67 1715.94 470.174 1720.37 479.613 C 1727.91 495.898 1730.22 510.577 1734.09 526.886 C 1745.57 575.323 1733.7 610.242 1722.03 656.968 C 1715.83 681.766 1708.78 710.522 1698.62 734.904 C 1693.54 747.079 1675.97 786.363 1663.95 794.005 C 1662.33 795.035 1658.59 794.288 1656.6 793.743 C 1655.89 790.148 1655.69 789.998 1654.15 786.826 z" fill="rgb(211,108,81)" transform="translate(0,0)"></path>
<path d="M 1290.71 407.024 C 1315.65 404.684 1332.04 394.114 1359.6 401.615 C 1383.97 408.246 1394.56 414.253 1412.99 430.879 C 1415.54 431.75 1416.16 431.933 1416.88 435.157 C 1374.86 435.254 1332.84 434.76 1290.84 433.675 C 1266.54 433.113 1241.54 433.123 1217.42 431.766 C 1223.28 428.285 1283.25 408.429 1290.71 407.024 z" fill="rgb(255,255,255)" transform="translate(0,0)"></path>
<path d="M 1290.71 407.024 C 1288.22 404.335 1286.98 403.499 1286.24 399.908 C 1288.22 390.904 1297 392.026 1305.1 389.398 C 1342.81 377.175 1392.56 384.168 1419.64 414.768 C 1425.05 420.879 1418.16 427.316 1412.99 430.879 C 1394.56 414.253 1383.97 408.246 1359.6 401.615 C 1332.04 394.114 1315.65 404.684 1290.71 407.024 z" fill="rgb(211,108,81)" transform="translate(0,0)"></path>
<path d="M 1778.67 767.787 C 1778.89 766.842 1782.15 758.356 1783.73 759.367 C 1786.2 760.934 1788.6 765.927 1791.64 767.586 C 1796.61 771.151 1801.48 773.138 1806.95 775.566 C 1804.39 775.521 1802.2 775.532 1799.65 775.614 C 1794.24 774.098 1784.8 769.811 1778.67 767.787 z" fill="rgb(255,255,255)" transform="translate(0,0)"></path>
<path d="M 1799.16 444.819 C 1800.61 444.917 1802.45 445.21 1803.93 445.399 C 1814.44 452.137 1822.14 474.501 1826.48 486.223 C 1834.1 506.788 1839.68 529.207 1840.1 551.22 C 1841.13 604.959 1807.5 706.718 1784.96 755.982 C 1783.78 757.714 1784.6 757.03 1782.29 757.778 C 1779.75 755.692 1777.64 752.351 1778.57 749.429 C 1781.94 738.816 1786.25 726.807 1789.55 716.253 C 1796.84 692.698 1803.54 668.966 1809.65 645.078 C 1824.58 587.782 1833.24 553.601 1812.5 494.014 C 1810.01 486.864 1807.72 481.129 1804.55 474.065 C 1802.06 468.509 1795.85 457.926 1794.58 452.802 C 1795.24 448.789 1796.37 448.066 1799.16 444.819 z" fill="rgb(211,108,81)" transform="translate(0,0)"></path>
<path d="M 1184.05 309.007 C 1200.38 310.166 1202.9 319.678 1190.99 330.047 C 1167.71 350.322 1141.87 353.688 1112.34 351.865 C 1090.25 347.168 1091.88 329.896 1116.5 334.991 C 1132.11 338.222 1164.99 330.137 1176.77 318.769 C 1178.79 316.814 1181.82 311.71 1184.05 309.007 z" fill="rgb(211,108,81)" transform="translate(0,0)"></path>
<path d="M 933.03 1673.83 C 1023.55 1647.9 1894.97 1378.82 1902.37 1380.24 L 1903.4 1382.69 C 1899.66 1430.14 1895.52 1477.56 1890.98 1524.94 C 1655.47 1598.72 1420.72 1674.87 1186.75 1753.38 C 1108.03 1780.31 1028.46 1804.69 950.384 1833.67 C 942.734 1836.51 934.448 1838.76 926.952 1841.82 C 929.117 1801.21 929.071 1759.43 930.93 1718.74 C 931.237 1712.04 931.576 1678.36 933.03 1673.83 z" fill="rgb(169,113,25)" transform="translate(0,0)"></path>
<path d="M 863.096 735.932 C 872.371 735.807 910.621 728.638 921.967 726.793 L 1077.31 700.021 C 1095.25 732.799 1129.84 727.005 1161.45 726.659 C 1172.12 726.542 1182.82 726.199 1193.5 726.01 C 1254.01 725.027 1314.51 723.492 1374.99 721.408 C 1382.04 721.179 1422.76 719.175 1427.85 720.952 L 1425.78 727.476 C 1417.32 727.077 1407.15 727.332 1398.56 727.8 C 1339.5 731.013 1280.39 732.841 1221.34 736.079 C 1215.67 736.39 1209.89 736.961 1204.25 737.003 C 1202.09 810.034 1197.5 883.814 1195.86 956.494 C 1116.06 971.621 1036.18 986.3 956.218 1000.53 C 949.648 999.134 933.832 993.11 926.677 990.588 C 908.819 984.277 890.91 978.111 872.952 972.092 C 836.974 960.327 801.079 948.305 765.272 936.028 C 752.056 931.484 730.193 924.645 717.885 919.34 C 722.731 908.242 724.811 896.133 723.945 884.054 C 722.822 867.004 712.052 836.777 706.514 819.243 L 690.437 766.604 C 731.289 759.137 773.519 754.709 814.403 746.894 C 821.714 745.497 833.592 747.317 841.097 745.548 C 848.578 743.786 856.235 739.478 863.096 735.932 z" fill="rgb(106,72,37)" transform="translate(0,0)"></path>
<path d="M 1204.25 737.003 C 1209.89 736.961 1215.67 736.39 1221.34 736.079 C 1280.39 732.841 1339.5 731.013 1398.56 727.8 C 1407.15 727.332 1417.32 727.077 1425.78 727.476 C 1417.74 756.078 1403.64 793.117 1421.12 819.441 C 1458 875.004 1514.46 849.66 1527.44 792.807 C 1528.92 795.132 1529.49 795.351 1529.39 797.98 C 1519.73 827.115 1537.63 865.194 1566.96 875.987 C 1579.79 880.705 1594.01 879.87 1606.2 873.682 C 1635.36 859.133 1643.69 817.182 1654.15 786.826 C 1655.69 789.998 1655.89 790.148 1656.6 793.743 C 1658.83 809.651 1661.41 820.584 1673.03 832.883 C 1681.96 842.297 1696.68 850.343 1709.98 849.703 C 1743.86 848.071 1757.5 806.397 1770.65 781.317 C 1772.56 777.669 1775.97 769.763 1778.67 767.787 C 1784.8 769.811 1794.24 774.098 1799.65 775.614 C 1802.2 775.532 1804.39 775.521 1806.95 775.566 C 1812.7 777.146 1812.49 776.878 1818.31 777.797 C 1814.67 778.962 1814.76 777.416 1812.01 780.42 L 1909.69 815.879 C 1916.42 818.312 1946.06 828.531 1950.64 831.377 C 1940.7 835.176 1909.22 840.291 1897.2 842.415 C 1861.17 848.809 1825.09 854.88 1788.95 860.628 C 1670.77 879.777 1552.43 897.871 1433.93 914.908 C 1374.55 923.711 1315.69 930.571 1257.1 944.134 C 1237.37 948.699 1215.21 951.074 1195.86 956.494 C 1197.5 883.814 1202.09 810.034 1204.25 737.003 z" fill="rgb(69,43,14)" transform="translate(0,0)"></path>
<path d="M 1799.65 775.614 C 1802.2 775.532 1804.39 775.521 1806.95 775.566 C 1812.7 777.146 1812.49 776.878 1818.31 777.797 C 1814.67 778.962 1814.76 777.416 1812.01 780.42 C 1807.58 779.254 1803.81 777.453 1799.65 775.614 z" fill="rgb(255,250,236)" transform="translate(0,0)"></path>
<metadata><recraft-signature>{"signed_by": "recraft", "signature_b64": "9idJLAhDHpnwhgmVvdcnTGkkNI6L0JrIZKNiyzt6mR/0zPtrN2am7MKOCmW4rNTRsnRV33LuxuQjecUJYkJfBw==", "signing_algo": "Ed25519", "generation_timestamp": 1779005013, "identifier": "cf23d4b8-0e7b-4e03-8fae-ad163f79f2a1"}</recraft-signature></metadata></svg>