<svg xmlns="http://www.w3.org/2000/svg" height="1024" preserveAspectRatio="none" style="display: block;" version="1.1" viewBox="0 0 2048 2048" width="1024">
<path d="M 0 0 L 2048 0 L 2048 2048 L 0 2048 L 0 0 z" fill="rgb(255,255,255)" transform="translate(0,0)"></path>
<path d="M 1504.2 993.729 C 1516 993.278 1525.12 992.079 1537.54 992.167 C 1544.04 992.214 1563.52 993.976 1566.8 993.689 C 1647.52 1004.81 1711.49 1037.83 1760.94 1103.1 C 1811.24 1169.49 1815.19 1219.85 1815.43 1298.19 L 1815.64 1383.21 L 1815.69 1685.15 L 1260.05 1685.06 C 1260.09 1665.68 1259.89 1645.76 1260.35 1626.43 L 1260.89 1579.19 C 1231.44 1589.77 1201.34 1607.55 1171.23 1616.97 C 1168.53 1617.81 1162.86 1617.73 1159.93 1617.74 C 1095.29 1634.34 1059.04 1637.22 993.152 1618.59 C 969.799 1617.26 911.096 1587.96 885.771 1578.55 C 879.403 1575.5 873.702 1573.22 867.138 1570.61 C 855.697 1566.46 841.762 1560.21 830.046 1555.55 C 832.946 1544.19 839.925 1525.64 843.968 1513.94 C 853.877 1485.68 863.588 1457.35 873.102 1428.95 L 873.231 1427.98 L 877.638 1413.47 C 856.754 1406.32 835.918 1397.45 815.052 1389.92 C 831.284 1325.2 853.191 1290.66 901.558 1244.67 C 936.444 1218.56 949.998 1211.27 990.029 1194.65 C 1040.62 1182.49 1071.56 1176.91 1124.75 1186.53 C 1135.33 1188.44 1149.52 1192.89 1158.49 1194.42 C 1190.06 1207.8 1221.97 1223.77 1247.83 1246.78 C 1249.25 1244.04 1252.9 1217.25 1254.2 1211.34 C 1263.24 1170.2 1281.72 1132.34 1308.2 1099.7 C 1356.83 1039.7 1427.37 1001.57 1504.2 993.729 z" fill="rgb(240,77,29)" transform="translate(0,0)"></path>
<path d="M 990.029 1194.65 C 1040.62 1182.49 1071.56 1176.91 1124.75 1186.53 C 1135.33 1188.44 1149.52 1192.89 1158.49 1194.42 C 1190.06 1207.8 1221.97 1223.77 1247.83 1246.78 C 1294.65 1287.27 1316.02 1325.7 1334.54 1384.33 C 1316.77 1392.97 1289.77 1403.35 1271.04 1411.13 C 1272.18 1414.48 1274.68 1421.1 1275.09 1424.32 L 1274.46 1424.64 C 1283.05 1436.18 1316.79 1534.45 1323.07 1552.35 C 1305.76 1559 1281.85 1569.04 1264.93 1576.67 C 1262.97 1577.74 1262.58 1577.92 1260.89 1579.19 C 1231.44 1589.77 1201.34 1607.55 1171.23 1616.97 C 1168.53 1617.81 1162.86 1617.73 1159.93 1617.74 C 1095.29 1634.34 1059.04 1637.22 993.152 1618.59 C 969.799 1617.26 911.096 1587.96 885.771 1578.55 C 879.403 1575.5 873.702 1573.22 867.138 1570.61 C 855.697 1566.46 841.762 1560.21 830.046 1555.55 C 832.946 1544.19 839.925 1525.64 843.968 1513.94 C 853.877 1485.68 863.588 1457.35 873.102 1428.95 L 873.231 1427.98 L 877.638 1413.47 C 856.754 1406.32 835.918 1397.45 815.052 1389.92 C 831.284 1325.2 853.191 1290.66 901.558 1244.67 C 936.444 1218.56 949.998 1211.27 990.029 1194.65 z" fill="rgb(210,30,42)" transform="translate(0,0)"></path>
<path d="M 873.102 1428.95 C 899.587 1433.18 923.685 1430.89 946.51 1415.06 C 956.567 1408.08 963.781 1396.29 977.316 1398.56 C 982.012 1399.35 986.174 1402.04 988.823 1406 C 1003.62 1427.75 973.337 1455.4 957.203 1466.78 L 1010.51 1484.11 C 1020.86 1487.48 1030.14 1490.01 1040.5 1494.77 C 1052.42 1500.25 1052.86 1516.76 1041.2 1522.11 C 1035.3 1524.81 1022.37 1521.76 1015.26 1520.89 L 1014.16 1522.73 C 1024.11 1525.86 1040.48 1529.27 1045.87 1538.63 C 1050.32 1546.34 1045.6 1557.9 1037.34 1560.75 C 1027.66 1564.09 1014.77 1557.72 1005.1 1555.37 L 1004.32 1558.09 C 1014.01 1561.36 1025 1564.1 1030.26 1573.82 C 1034.72 1582.09 1031.15 1591.81 1022.15 1594.94 C 1013.13 1598.09 1008.08 1595.61 999.892 1592.17 L 998.157 1593.68 C 1009.11 1603.93 1003.92 1609.66 993.418 1617.63 L 993.152 1618.59 C 969.799 1617.26 911.096 1587.96 885.771 1578.55 C 879.403 1575.5 873.702 1573.22 867.138 1570.61 C 855.697 1566.46 841.762 1560.21 830.046 1555.55 C 832.946 1544.19 839.925 1525.64 843.968 1513.94 C 853.877 1485.68 863.588 1457.35 873.102 1428.95 z" fill="rgb(252,162,104)" transform="translate(0,0)"></path>
<path d="M 987.08 1585.71 C 992.065 1587.8 995.307 1589.32 999.892 1592.17 L 998.157 1593.68 C 994.235 1591.11 990.85 1588.47 987.08 1585.71 z" fill="rgb(245,70,47)" transform="translate(0,0)"></path>
<path d="M 1004.32 1558.09 C 1003.02 1557.65 997.008 1556.24 996.788 1554.6 C 997.557 1553.82 1003.98 1555.12 1005.1 1555.37 L 1004.32 1558.09 z" fill="rgb(245,70,47)" transform="translate(0,0)"></path>
<path d="M 1014.16 1522.73 C 1011.74 1522.15 1008.77 1521.65 1007.27 1519.65 L 1007.01 1519.81 L 1006.93 1519.67 C 1007.87 1518.72 1013.89 1520.52 1015.26 1520.89 L 1014.16 1522.73 z" fill="rgb(245,70,47)" transform="translate(0,0)"></path>
<path d="M 1193.58 1467.46 C 1179.36 1457.36 1149.37 1430.24 1157.92 1410.39 C 1160.04 1405.38 1164.18 1401.49 1169.31 1399.68 C 1194.7 1390.79 1212.23 1446.07 1274.46 1424.64 C 1283.05 1436.18 1316.79 1534.45 1323.07 1552.35 C 1305.76 1559 1281.85 1569.04 1264.93 1576.67 C 1262.97 1577.74 1262.58 1577.92 1260.89 1579.19 C 1231.44 1589.77 1201.34 1607.55 1171.23 1616.97 C 1168.53 1617.81 1162.86 1617.73 1159.93 1617.74 C 1149.97 1613.28 1139.82 1605.53 1140.43 1593.19 C 1141.12 1579.08 1153.45 1572.58 1163.04 1564.46 C 1153.2 1569.41 1140.62 1578.15 1129.44 1576.95 C 1124.15 1576.4 1119.34 1573.65 1116.17 1569.39 C 1107.3 1557.55 1112.17 1540.6 1125.18 1534.79 C 1135.11 1530.36 1143.91 1525.58 1152.73 1519.19 C 1142.36 1522.63 1126.39 1532.08 1116.03 1529.34 C 1103.86 1525.72 1103.06 1504.8 1114.11 1499.58 C 1139.18 1487.72 1167.7 1477.27 1193.58 1467.46 z" fill="rgb(252,162,104)" transform="translate(0,0)"></path>
<path d="M 1748.75 1167.41 C 1750.95 1184.12 1750.88 1202.26 1753.29 1218.44 C 1749.03 1226.58 1736.52 1243.22 1730.82 1251.26 L 1682.53 1319.02 C 1655.08 1358.46 1627.34 1397.7 1599.31 1436.74 C 1588.81 1451.55 1579.2 1467.23 1568.21 1481.66 C 1563.17 1488.27 1557.38 1495.17 1550.83 1500.31 C 1531.19 1515.71 1476.64 1535.57 1451.27 1545.94 L 1329.85 1595.82 C 1315.67 1601.76 1301.54 1607.8 1287.46 1613.96 C 1281.79 1616.46 1270.34 1622.42 1264.97 1623.53 C 1262 1620.36 1264.57 1615.03 1263.1 1611.63 L 1262.92 1611.52 L 1262.86 1611.55 L 1262.62 1611.3 C 1260.86 1616.66 1263.51 1617.74 1260.35 1626.43 L 1260.89 1579.19 C 1262.58 1577.92 1262.97 1577.74 1264.93 1576.67 C 1281.85 1569.04 1305.76 1559 1323.07 1552.35 C 1372.12 1532.87 1421.27 1513.66 1470.53 1494.71 C 1482.06 1490.2 1530.72 1472.83 1535.77 1466 C 1593.65 1387.82 1648.32 1306.89 1705.56 1228.22 C 1714.11 1216.64 1722.46 1204.92 1730.62 1193.07 C 1735.77 1185.58 1743.19 1174.01 1748.75 1167.41 z" fill="rgb(210,30,42)" transform="translate(0,0)"></path>
<path d="M 1260.89 1579.19 C 1262.58 1577.92 1262.97 1577.74 1264.93 1576.67 L 1264.97 1623.53 C 1262 1620.36 1264.57 1615.03 1263.1 1611.63 L 1262.92 1611.52 L 1262.86 1611.55 L 1262.62 1611.3 C 1260.86 1616.66 1263.51 1617.74 1260.35 1626.43 L 1260.89 1579.19 z" fill="rgb(245,70,47)" transform="translate(0,0)"></path>
<path d="M 1599.96 1107.41 C 1606.36 1107.38 1612.94 1107.28 1619.31 1107.42 C 1607.05 1126.79 1591.93 1145.87 1578.76 1164.72 L 1503.33 1273.3 C 1492.79 1288.02 1482.5 1302.92 1472.48 1318 C 1465.4 1328.53 1458.58 1339.5 1450.54 1349.3 C 1448.04 1352.35 1445.61 1353.71 1441.95 1355.33 C 1428.24 1361.39 1414.25 1366.87 1400.48 1372.82 C 1383.53 1379.35 1286.82 1423.03 1275.09 1424.32 C 1274.68 1421.1 1272.18 1414.48 1271.04 1411.13 C 1289.77 1403.35 1316.77 1392.97 1334.54 1384.33 C 1349.45 1378.15 1434.03 1344.13 1440.41 1336.54 L 1441.65 1335.08 C 1447.74 1327.82 1455.52 1315.48 1461.12 1307.17 C 1468.99 1295.59 1477.01 1284.1 1485.18 1272.72 C 1524.33 1218.24 1562.6 1163.13 1599.96 1107.41 z" fill="rgb(210,30,42)" transform="translate(0,0)"></path>
<path d="M 590.824 993.526 C 608.938 992.689 626.393 994.525 641.905 993.92 C 763.686 1010.06 857.989 1079.71 892.622 1201.82 C 896.635 1215.97 898.459 1230.37 901.558 1244.67 C 853.191 1290.66 831.284 1325.2 815.052 1389.92 C 835.918 1397.45 856.754 1406.32 877.638 1413.47 L 873.231 1427.98 L 873.102 1428.95 C 863.588 1457.35 853.877 1485.68 843.968 1513.94 C 839.925 1525.64 832.946 1544.19 830.046 1555.55 C 841.762 1560.21 855.697 1566.46 867.138 1570.61 C 873.702 1573.22 879.403 1575.5 885.771 1578.55 L 885.897 1686.06 L 332.409 1685.74 C 331.165 1590.04 332.443 1492.6 332.37 1396.76 L 332.204 1305.43 C 332.152 1275.98 331.102 1244.59 336.634 1215.79 C 345.086 1172.95 363.622 1132.75 390.707 1098.5 C 425.66 1054.8 470.454 1023.84 523.762 1006.11 C 543.1 999.68 570.304 995.832 590.824 993.526 z" fill="rgb(1,126,210)" transform="translate(0,0)"></path>
<path d="M 396.133 1181.86 L 540.27 1378.54 C 563.489 1410.57 586.926 1442.43 609.605 1474.84 C 616.985 1485.39 638.791 1490.69 651.057 1495.07 L 701.909 1513.31 C 717.813 1519.04 821.72 1558.62 828.386 1557.96 L 830.046 1555.55 C 841.762 1560.21 855.697 1566.46 867.138 1570.61 C 865.367 1581.98 866.228 1609.69 866.369 1622.47 L 689.123 1550.82 C 664.399 1540.8 620.008 1525.74 599.945 1511.45 C 568.74 1489.23 540.207 1438.04 517.575 1406.38 C 486.891 1364.06 456.795 1321.31 427.294 1278.16 C 416.171 1262.11 403.927 1245.64 393.282 1229.43 C 392.595 1212.95 393.846 1198.16 396.133 1181.86 z" fill="rgb(2,87,151)" transform="translate(0,0)"></path>
<path d="M 522.199 1108.93 C 528.777 1108.4 535.444 1108.24 542.043 1107.99 C 565.548 1144.16 591.452 1178.65 616.22 1213.95 C 628.911 1232.04 700.333 1337.43 712.616 1346.08 C 721.863 1352.6 734.787 1356.45 745.303 1360.73 C 768.568 1370.19 792.417 1379.04 815.052 1389.92 C 835.918 1397.45 856.754 1406.32 877.638 1413.47 L 873.231 1427.98 C 852.234 1420.85 822.899 1408.18 801.229 1399.86 C 777.844 1390.93 754.518 1381.84 731.255 1372.6 C 726.229 1370.59 702.187 1361.38 699.959 1358.92 C 682.854 1340.05 660.986 1305.73 646.891 1285.67 C 618.948 1245.89 593.065 1208.9 564.535 1170.13 C 549.765 1150.06 537.367 1127.98 522.199 1108.93 z" fill="rgb(2,87,151)" transform="translate(0,0)"></path>
<path d="M 331.072 602.891 C 344.546 560.83 366.944 522.174 396.734 489.566 C 448.146 432.759 526.349 394.733 602.997 391.2 C 683.346 387.646 761.759 416.495 820.645 471.276 C 874.407 520.436 913.861 596.593 917.233 669.676 C 922.666 751.197 898.06 827.83 844.362 889.707 C 787.372 955.378 724.393 979.623 641.905 993.92 C 626.393 994.525 608.938 992.689 590.824 993.526 C 577.775 992.35 551.931 986.613 539.198 983.141 C 470.456 964.458 410.593 921.95 370.298 863.208 C 360.113 848.4 352.978 833.512 344.177 818.011 C 335.899 932.193 236.64 988.073 132.789 944.124 C 207.251 934.625 224.723 864.028 211.786 799.345 C 207.78 779.317 201.131 762.138 200.176 741.316 C 198.788 705.362 211.875 670.352 236.507 644.123 C 262.538 615.928 293.335 604.265 331.072 602.891 z" fill="rgb(252,162,104)" transform="translate(0,0)"></path>
<path d="M 331.072 602.891 C 344.546 560.83 366.944 522.174 396.734 489.566 C 448.146 432.759 526.349 394.733 602.997 391.2 C 683.346 387.646 761.759 416.495 820.645 471.276 C 874.407 520.436 913.861 596.593 917.233 669.676 C 902.538 667.194 872.205 656.095 859.701 649.84 C 812.463 626.214 776.153 590.47 758.768 540.075 C 740.459 625.373 690.649 659.214 606.19 666.318 C 626.945 645.624 643.542 612.667 645.127 583.449 C 644.856 577.496 646.041 569.428 643.581 565.149 C 631.223 606.735 611.863 633.63 573.206 654.941 C 545.381 670.279 505.043 677.886 473.441 676.368 C 503.267 655.048 519.733 629.889 525.854 593.115 C 527.183 585.135 527.906 577.066 528.016 568.976 L 524.631 569.051 C 487.432 663.627 413.209 683.823 319.15 673.701 C 316.339 740.034 324.908 758.349 344.177 818.011 C 335.899 932.193 236.64 988.073 132.789 944.124 C 207.251 934.625 224.723 864.028 211.786 799.345 C 207.78 779.317 201.131 762.138 200.176 741.316 C 198.788 705.362 211.875 670.352 236.507 644.123 C 262.538 615.928 293.335 604.265 331.072 602.891 z" fill="rgb(80,61,18)" transform="translate(0,0)"></path>
<path d="M 643.581 565.149 C 643.805 563.621 643.904 562.096 644.979 560.872 L 645.306 560.764 C 646.991 561.64 645.616 580.756 645.127 583.449 C 644.856 577.496 646.041 569.428 643.581 565.149 z" fill="rgb(162,116,71)" transform="translate(0,0)"></path>
<path d="M 526.308 563.161 C 526.675 561.813 526.993 558.096 528.375 557.763 C 529.383 558.568 528.725 565.103 528.711 566.38 C 528.047 564.517 528.317 563.644 526.308 563.161 z" fill="rgb(162,116,71)" transform="translate(0,0)"></path>
<path d="M 526.308 563.161 C 528.317 563.644 528.047 564.517 528.711 566.38 L 528.016 568.976 L 524.631 569.051 C 525.21 567.094 525.769 565.13 526.308 563.161 z" fill="rgb(230,149,93)" transform="translate(0,0)"></path>
<path d="M 489.399 810.816 C 495.214 812.515 496.346 814.992 499.071 820.199 C 517.553 855.509 549.501 880.821 589.533 889.685 C 641.419 901.114 695.241 881.588 727.73 839.551 C 734.11 831.404 741.723 814.635 748.246 810.508 C 749.872 810.293 750.879 809.748 752.11 810.656 C 759.954 816.442 756.44 824.155 753.446 830.197 C 740.781 852.649 724.849 870.466 703.09 884.587 C 668.535 906.641 626.693 914.223 586.597 905.694 C 545.984 896.979 510.902 872.511 489.177 837.271 C 485.196 830.814 480.533 823.955 482.25 816.179 C 484.263 812.733 485.758 812.486 489.399 810.816 z" fill="rgb(0,0,0)" transform="translate(0,0)"></path>
<path d="M 686.423 711.532 C 699.076 709.75 710.808 718.481 712.733 731.114 C 714.658 743.747 706.058 755.576 693.448 757.642 C 685.164 759 676.789 755.8 671.52 749.265 C 666.251 742.73 664.901 733.867 667.985 726.059 C 671.068 718.252 678.11 712.704 686.423 711.532 z" fill="rgb(0,0,0)" transform="translate(0,0)"></path>
<path d="M 548.048 711.617 C 560.793 710.872 571.711 720.638 572.386 733.387 C 573.061 746.137 563.235 757.001 550.482 757.606 C 537.828 758.206 527.066 748.472 526.396 735.822 C 525.726 723.171 535.401 712.355 548.048 711.617 z" fill="rgb(0,0,0)" transform="translate(0,0)"></path>
<path d="M 1237.65 663.292 C 1240.05 643.956 1242.68 626.672 1248.15 607.767 C 1266.15 547.507 1302.29 494.262 1351.65 455.292 C 1483.34 353.23 1674.99 375.932 1776.11 509.114 C 1813.89 558.867 1830.15 606.466 1837.1 668.146 C 1843.75 749.186 1817.35 829.473 1763.91 890.751 C 1724.73 936.04 1672.86 968.513 1615.01 983.958 C 1606.95 986.13 1599.51 988.03 1591.37 989.757 C 1585.48 991.007 1571.35 991.759 1566.8 993.689 C 1563.52 993.976 1544.04 992.214 1537.54 992.167 C 1525.12 992.079 1516 993.278 1504.2 993.729 C 1501.42 992.137 1465.14 985.477 1459.7 984.09 C 1340.8 953.772 1247.92 846.231 1238.13 723.508 C 1236.68 705.362 1235.65 681.377 1237.65 663.292 z" fill="rgb(252,162,104)" transform="translate(0,0)"></path>
<path d="M 1237.65 663.292 C 1240.05 643.956 1242.68 626.672 1248.15 607.767 C 1266.15 547.507 1302.29 494.262 1351.65 455.292 C 1483.34 353.23 1674.99 375.932 1776.11 509.114 C 1813.89 558.867 1830.15 606.466 1837.1 668.146 C 1758.1 667.654 1688.53 653.347 1629.4 595.617 C 1618.91 585.382 1610.33 574.948 1600.78 563.91 C 1576.13 587.503 1542.45 610.792 1512.52 627.367 C 1441.82 666 1361.27 682.87 1281 675.856 C 1270.19 674.973 1249.13 673.5 1239.19 670.656 C 1237.22 668.023 1237.88 667.264 1237.65 663.292 z" fill="rgb(80,61,18)" transform="translate(0,0)"></path>
<path d="M 1666.63 810.7 C 1693.61 811.869 1665.84 844.429 1658.57 853.631 C 1610.68 914.187 1518.34 926.489 1454.45 884.464 C 1431.4 869.299 1420.96 856.774 1406.4 834.025 C 1402.72 827.915 1397.21 813.608 1407.21 810.682 C 1415.68 812.105 1425.05 832.489 1431.35 840.787 C 1436.33 847.357 1441.97 853.401 1448.18 858.825 C 1475.85 883.235 1512.27 895.303 1549.04 892.243 C 1594.39 888.58 1635.25 864.431 1657.88 824.644 C 1660.73 819.638 1662.69 814.999 1666.63 810.7 z" fill="rgb(0,0,0)" transform="translate(0,0)"></path>
<path d="M 1463.64 711.588 C 1476.22 709.677 1488 718.198 1490.13 730.739 C 1492.26 743.28 1483.95 755.214 1471.45 757.561 C 1463.16 759.116 1454.68 756.081 1449.27 749.622 C 1443.86 743.163 1442.35 734.285 1445.33 726.401 C 1448.31 718.517 1455.31 712.854 1463.64 711.588 z" fill="rgb(0,0,0)" transform="translate(0,0)"></path>
<path d="M 1606.23 711.804 C 1618.83 710.474 1630.16 719.557 1631.59 732.152 C 1633.03 744.747 1624.04 756.144 1611.45 757.683 C 1598.72 759.242 1587.16 750.123 1585.71 737.379 C 1584.26 724.634 1593.47 713.149 1606.23 711.804 z" fill="rgb(0,0,0)" transform="translate(0,0)"></path>
<path d="M 1035.31 887.318 C 1065.44 897.173 1087.65 894.418 1118.07 887.664 L 1119.52 888.253 C 1131.1 892.835 1145.98 894.283 1159.45 900.529 C 1208.16 923.109 1246.97 959.523 1269.15 1008.69 C 1278.49 1029.38 1281.93 1045.63 1286.57 1067.13 C 1270.88 1067.08 1253.33 1066.63 1237.79 1067.14 C 1234.87 1097.76 1227.08 1119.1 1210.16 1145.03 C 1194.87 1168.47 1181.21 1179.32 1158.49 1194.42 C 1149.52 1192.89 1135.33 1188.44 1124.75 1186.53 C 1071.56 1176.91 1040.62 1182.49 990.029 1194.65 C 940.583 1157.77 920.445 1128.59 910.609 1067.08 L 867.794 1066.97 C 873.563 1012.23 903.973 961.096 947.529 928.079 C 974.872 907.352 1002.34 895.967 1035.31 887.318 z" fill="rgb(239,211,7)" transform="translate(0,0)"></path>
<path d="M 910.609 1067.08 L 1127.21 1067.06 C 1162.23 1067.06 1203.1 1066.05 1237.79 1067.14 C 1234.87 1097.76 1227.08 1119.1 1210.16 1145.03 C 1194.87 1168.47 1181.21 1179.32 1158.49 1194.42 C 1149.52 1192.89 1135.33 1188.44 1124.75 1186.53 C 1071.56 1176.91 1040.62 1182.49 990.029 1194.65 C 940.583 1157.77 920.445 1128.59 910.609 1067.08 z" fill="rgb(5,145,93)" transform="translate(0,0)"></path>
<path d="M 1035.31 887.318 C 1018.64 880.777 986.641 867.888 995.178 842.665 C 999.43 831.688 1014.97 821.505 1025.4 817.614 C 1055.34 806.439 1099.23 804.673 1128.82 818.391 C 1181.35 842.743 1157.85 872.027 1118.07 887.664 C 1087.65 894.418 1065.44 897.173 1035.31 887.318 z" fill="rgb(0,0,0)" transform="translate(0,0)"></path>
<metadata><recraft-signature>{"signed_by": "recraft", "signature_b64": "9tjGOa8wTo2Dh1UbzeKjV2/WA68dO2860YemH2LtLl9Xt2WkjOp7mv4r5Ux892JHDjSDW9sEaSjijdxDjC2kDw==", "signing_algo": "Ed25519", "generation_timestamp": 1779004968, "identifier": "13eef0c1-fecc-4832-828f-f139bd68c42f"}</recraft-signature></metadata></svg>