<svg xmlns="http://www.w3.org/2000/svg" height="1216" preserveAspectRatio="none" style="display: block;" version="1.1" viewBox="0 0 1509 2048" width="896">
<path d="M 0 0 L 829.528 0 L 885.459 0 L 1509 0 L 1509 2048 L 1094.94 2048 L 1065.96 2048 L 914.501 2048 L 877.494 2048 L 871.272 2048 L 0 2048 L 0 1503.88 L 0 1473.44 L 0 0 z" fill="rgb(8,4,2)" transform="translate(0,0)"></path>
<path d="M 0 0 L 829.528 0 C 814.567 2.01103 799.35 2.64206 784.354 4.59972 C 520.619 39.0279 312.029 258.277 275.429 519.343 C 272.118 542.963 270.264 566.477 267.124 589.753 C 232.845 603.769 206.505 627.591 191.961 662.103 C 177.7 696.62 177.715 735.384 192 769.89 C 204.856 800.617 230.207 826.417 261.225 838.839 C 271.507 842.963 282.321 845.613 293.345 846.713 C 312.371 912.301 348.913 992.318 395.655 1042.84 C 384.41 1047.13 373.461 1052.36 362.682 1056.45 C 313.669 1046.87 269.46 1061.26 228.882 1089.88 C 122.039 1165.25 33.9804 1302.37 6.80344 1430.27 C 3.71826 1444.79 2.72547 1460.01 0 1473.44 L 0 0 z" fill="rgb(254,254,254)" transform="translate(0,0)"></path>
<path d="M 885.459 0 L 1509 0 L 1509 2048 L 1094.94 2048 C 1100.95 2046.58 1114.42 2045.11 1120.95 2044.17 C 1133.63 2042.36 1146.22 2039.94 1158.66 2036.9 C 1286.22 2006.45 1430.9 1919.68 1484.62 1793.48 C 1491 1778.5 1497.88 1752.91 1499.27 1736.81 C 1501.68 1724.17 1500.2 1716.25 1501.23 1704.47 C 1502.69 1689.48 1504.2 1674.42 1504.76 1659.36 C 1512.47 1451.18 1416.36 1227.05 1250.73 1098.74 C 1277.86 1071.97 1302.6 1042.88 1324.65 1011.8 C 1334.72 1013.61 1346.1 1013.75 1356.25 1012.65 C 1391.12 1008.81 1422.99 991.106 1444.67 963.524 C 1467.52 934.636 1477.88 897.82 1473.47 861.254 C 1469.92 831.703 1453.89 797.601 1430.32 778.924 C 1437.35 752.699 1442.6 726.03 1446.03 699.098 C 1466.97 536.853 1425.29 363.713 1324.62 233.694 C 1240.8 124.45 1122.06 47.2476 988.204 14.9662 C 970.813 10.9202 951.287 7.13102 933.565 4.83398 C 917.771 2.78676 901.339 2.03136 885.459 0 z" fill="rgb(254,254,254)" transform="translate(0,0)"></path>
<path d="M 746.292 1365.02 C 756.636 1362.85 767.205 1360.27 777.524 1357.88 C 782.255 1378.67 786.528 1400.13 791.228 1421.1 C 791.314 1420.31 791.774 1418.83 791.999 1417.99 L 793.855 1417.61 C 799 1416.82 804.16 1416.13 809.331 1415.53 C 813.298 1406.69 815.806 1395.85 820.679 1387.18 C 822.604 1383.76 822.699 1384.37 826.193 1383.56 L 826.145 1386.42 C 889.763 1374.07 943.74 1362.7 1000.38 1402.32 C 1089.07 1464.37 1097.53 1588.63 1089.66 1686.11 C 1069.1 1689.54 1045.63 1692.94 1025.47 1697.28 C 997.212 1681.48 984.025 1674.66 964.944 1647.04 C 954.628 1632.11 936.008 1602.3 914.483 1609.31 C 884.63 1620.01 877.208 1660.98 886.62 1687.63 C 894.614 1710.27 910.523 1730.58 928.815 1744.4 C 921.824 1745.16 894.073 1749.99 888.161 1752.52 C 885.209 1752.71 882.909 1752.71 879.984 1752.68 C 877.764 1751.59 871.981 1750.28 869.303 1749.43 C 849.888 1743.23 830.129 1737.51 811.304 1729.62 C 793.924 1722.3 776.846 1714.28 760.112 1705.59 C 746.375 1698.4 733.615 1691.16 719.032 1684.92 C 692.004 1673.35 661.053 1688.47 664.308 1720.27 C 665.767 1734.51 673.403 1742.89 684.309 1751.54 C 674.898 1747.78 667.294 1744.82 656.965 1745.62 C 647.156 1746.41 638.058 1751.05 631.651 1758.52 C 617.204 1775.6 623.769 1798.77 639.766 1812.24 C 619.555 1816.38 599.306 1820.33 579.022 1824.09 C 579.513 1794.14 579.304 1755.38 576.719 1726.02 C 570.262 1652.69 546.303 1507.07 504.88 1449.03 C 522.001 1446.62 540.332 1442.26 557.645 1439.47 C 613.433 1430.49 669.241 1418.72 724.933 1409.51 C 728.069 1414.94 732.228 1423.94 735.232 1429.75 L 736.726 1427.39 C 744.126 1426.99 748.911 1426.4 756.241 1425.22 L 759.079 1426.82 C 754.506 1406.82 750.46 1385.22 746.292 1365.02 z" fill="rgb(228,73,32)" transform="translate(0,0)"></path>
<path d="M 746.292 1365.02 C 756.636 1362.85 767.205 1360.27 777.524 1357.88 C 782.255 1378.67 786.528 1400.13 791.228 1421.1 C 791.314 1420.31 791.774 1418.83 791.999 1417.99 L 793.855 1417.61 C 799 1416.82 804.16 1416.13 809.331 1415.53 C 813.298 1406.69 815.806 1395.85 820.679 1387.18 C 822.604 1383.76 822.699 1384.37 826.193 1383.56 L 826.145 1386.42 C 825.583 1392.12 848.159 1447.88 851.779 1457.39 C 871.733 1457.64 891.676 1458.45 911.584 1459.82 C 894.101 1474.78 869.964 1494.43 853.491 1509.77 C 848.02 1514.87 832.69 1558.5 828.377 1569.03 C 851.055 1573.82 873.58 1579.31 895.918 1585.49 C 879.745 1597.09 863.813 1609.02 848.132 1621.28 C 841.465 1626.41 829.344 1635.33 823.42 1641.02 C 834.095 1646.49 844.82 1651.86 855.595 1657.13 C 845.585 1673.56 836.029 1690.27 826.938 1707.23 L 824.41 1706.77 C 828.579 1695.01 832.701 1673.36 837.045 1659.25 C 824.392 1658.61 811.734 1658.05 799.072 1657.59 C 807.899 1638.51 820.497 1615.64 830.271 1596.75 C 808.373 1587.94 786.796 1581.94 763.93 1572.08 C 771.396 1558 778.697 1543.83 785.83 1529.58 C 751.008 1520.43 716.335 1510.72 681.826 1500.46 C 704.784 1487.54 728.751 1475.85 751.665 1463.04 C 747.585 1453.31 740.133 1439.79 735.232 1429.75 L 736.726 1427.39 C 744.126 1426.99 748.911 1426.4 756.241 1425.22 L 759.079 1426.82 C 754.506 1406.82 750.46 1385.22 746.292 1365.02 z" fill="rgb(8,4,2)" transform="translate(0,0)"></path>
<path d="M 746.292 1365.02 C 756.636 1362.85 767.205 1360.27 777.524 1357.88 C 782.255 1378.67 786.528 1400.13 791.228 1421.1 C 796.856 1447.53 803.623 1476.19 808.603 1502.47 C 798.216 1505 787.801 1507.41 777.358 1509.71 C 771.337 1482.2 764.759 1454.33 759.079 1426.82 C 754.506 1406.82 750.46 1385.22 746.292 1365.02 z" fill="rgb(249,188,167)" transform="translate(0,0)"></path>
<path d="M 824.41 1706.77 L 826.938 1707.23 C 826.607 1708.02 824.786 1712.68 823.744 1712.35 C 823.194 1711.43 824.205 1707.93 824.41 1706.77 z" fill="rgb(68,18,11)" transform="translate(0,0)"></path>
<path d="M 963.02 1409.54 C 968.574 1422.37 973.861 1435.3 978.881 1448.35 C 988.813 1451.7 1000.66 1456.09 1010.53 1459.03 L 1008.27 1460.46 C 999.2 1457.12 988.275 1454.05 978.895 1451.19 C 973.661 1462.16 968.522 1473.17 963.477 1484.23 C 978.738 1494.71 993.873 1506.9 1008.32 1518.53 C 1013.77 1514.38 1018.98 1510.06 1025.15 1507.09 L 1025.23 1507.84 C 1019.49 1513.63 1014.47 1517.3 1008.04 1522.21 C 1003.15 1518.01 998.747 1514.18 993.484 1510.39 C 986.441 1519.79 978.454 1530.33 970.661 1539.15 C 969.79 1546.51 968.97 1555.45 967.693 1562.63 L 965.507 1562.39 C 966.121 1554.49 967.265 1546.01 968.18 1538.1 C 961.444 1530.94 953.609 1520.79 947.267 1512.99 C 940.056 1516.25 933.162 1519.71 926.089 1523.24 L 924.509 1521.61 C 931.976 1517.66 939.499 1513.81 947.076 1510.07 C 956.856 1492.1 967.601 1467.87 976.371 1449.2 C 971.403 1436.81 966.938 1423.23 961.706 1411.28 L 963.02 1409.54 z" fill="rgb(8,4,2)" transform="translate(0,0)"></path>
<path d="M 961.914 1486.92 C 970.939 1492.71 982.447 1501.87 990.933 1508.61 C 985.646 1516.55 979.689 1523.88 973.744 1531.33 C 973.375 1531.85 970.599 1535.55 969.856 1534.84 C 963.141 1528.44 956.114 1518.7 949.678 1511.69 C 954.208 1503.35 957.652 1495.26 961.914 1486.92 z" fill="rgb(228,73,32)" transform="translate(0,0)"></path>
<path d="M 924.509 1521.61 L 926.089 1523.24 C 916.151 1528.68 911.474 1528.72 924.509 1521.61 z" fill="rgb(68,18,11)" transform="translate(0,0)"></path>
<path d="M 965.507 1562.39 L 967.693 1562.63 C 967.354 1565.81 966.832 1569.41 966.4 1572.61 L 964.693 1571.33 C 964.872 1568.08 964.927 1565.59 965.507 1562.39 z" fill="rgb(68,18,11)" transform="translate(0,0)"></path>
<path d="M 1010.53 1459.03 C 1012.48 1459.58 1018.55 1461.44 1020.07 1462.57 C 1018.37 1463.62 1010.44 1460.97 1008.27 1460.46 L 1010.53 1459.03 z" fill="rgb(126,40,24)" transform="translate(0,0)"></path>
<path d="M 961.706 1411.28 C 961.365 1410.43 957.762 1403.01 959.415 1402.65 C 959.767 1402.81 959.554 1402.66 960.119 1403.43 L 960.609 1404.1 L 960.298 1403.62 C 960.977 1404.86 961.591 1406.13 962.137 1407.43 C 962.438 1408.16 962.7 1408.81 963.02 1409.54 L 961.706 1411.28 z" fill="rgb(126,40,24)" transform="translate(0,0)"></path>
<path d="M 964.693 1571.33 L 966.4 1572.61 C 965.254 1580.48 962.833 1575.32 964.693 1571.33 z" fill="rgb(126,40,24)" transform="translate(0,0)"></path>
<path d="M 0 1503.88 C 1.81521 1516.18 2.56803 1528.51 5.45452 1540.6 C 15.7562 1583.74 42.0014 1616.26 76.8635 1642.24 C 85.8791 1648.84 95.1976 1655.01 104.789 1660.74 C 106.623 1726.49 131.23 1863.64 178.945 1916.25 C 183.055 1920.78 190.527 1925.01 196.951 1924.13 C 215.599 1921.57 235.563 1917.54 254.144 1914.28 L 319.66 1902.64 C 328.726 1900.95 346.027 1898.04 354.195 1895.26 C 380.563 1868.52 383.381 1811.31 383.215 1775.33 C 424.014 1768.99 463.72 1760.87 504.263 1754.1 C 508.336 1772.82 533.974 1887.4 562.927 1894.88 C 565.381 1895.52 617.203 1885.18 624.959 1884.09 C 638.875 1893.78 652.238 1902.87 666.961 1911.41 C 647.177 1917.93 635.166 1933.31 642.09 1953.2 C 649.866 1975.53 705.266 1999.67 724.477 2008.32 C 757.772 2023.62 792.784 2034.86 828.76 2041.81 C 842.696 2044.37 858.41 2045.52 871.272 2048 L 0 2048 L 0 1503.88 z" fill="rgb(254,254,254)" transform="translate(0,0)"></path>
<path d="M 1268.58 1116.57 C 1405.33 1237.9 1488.83 1408.19 1501.01 1590.6 C 1503.35 1622.81 1503.04 1655.17 1500.07 1687.33 C 1496.64 1676.08 1493.93 1664.91 1489.69 1653.9 C 1466 1592.32 1399 1559.92 1335.32 1565.64 C 1334.39 1531.68 1325.25 1505.64 1300.1 1481.56 C 1278.94 1461.46 1250.7 1450.53 1221.52 1451.16 C 1217.2 1451.25 1212.99 1451.86 1208.72 1452.51 C 1200.75 1444.9 1190.63 1379.43 1187.94 1364.44 C 1187.92 1359.89 1188.17 1351.39 1187.21 1347.34 C 1182.31 1357.15 1177.91 1446.66 1177.97 1462.33 C 1150.14 1477.58 1134.99 1495.37 1124.85 1525.5 C 1111.69 1527.48 1097.4 1529.44 1084.55 1532.58 C 1070.59 1476.52 1045.94 1426.99 995.089 1395.74 C 936.424 1359.67 889.64 1372.41 826.193 1383.56 C 822.699 1384.37 822.604 1383.76 820.679 1387.18 C 815.806 1395.85 813.298 1406.69 809.331 1415.53 C 804.16 1416.13 799 1416.82 793.855 1417.61 C 789.887 1408.54 782.493 1368.88 780.242 1357.53 C 799.886 1352.63 830.944 1348.22 818.911 1315.07 C 815.19 1304.82 804.974 1300.1 795.139 1296.64 C 800.99 1295.31 809.954 1297.08 816.156 1297.87 C 850.897 1302.31 885.972 1302.4 920.713 1297.98 C 1020.85 1284.73 1115.82 1245.68 1196.31 1184.65 C 1221.84 1165.54 1248.99 1141.86 1268.58 1116.57 z" fill="rgb(59,136,206)" transform="translate(0,0)"></path>
<path d="M 965.574 1770.65 C 932.374 1744.93 892.026 1716.06 885.911 1672.05 C 882.708 1649 893.656 1615.95 919.332 1611.24 C 935.058 1608.35 949.079 1630.52 957.158 1641.25 C 966.835 1654.1 976.393 1666.97 988.364 1677.85 C 1000.16 1688.39 1016.48 1693.93 1029.06 1703.57 C 1043.94 1715.24 1080.96 1742.87 1092.11 1756.03 C 1109.77 1776.87 1126.8 1821.27 1131.81 1848.25 C 1133.55 1857.59 1133.98 1867.86 1135.72 1877.17 C 1136.33 1912.36 1126.08 1946.69 1101.39 1972.81 C 1090.21 1984.64 1074.79 1993.87 1060.59 2001.75 C 1011.34 2029.59 955.865 2044.55 899.299 2045.25 L 897.729 2045.27 C 830.478 2044.26 771.921 2028.63 711.529 1999.15 C 693.022 1987.97 650.646 1973.2 644.088 1950.34 C 638.403 1930.53 652.62 1918.31 669.879 1913.35 C 683.956 1920.5 697.125 1928.12 711.597 1935.18 C 736.453 1947.13 762.114 1957.32 788.392 1965.69 C 792.92 1967.13 805.553 1971.29 809.91 1970.76 L 810.047 1969.67 C 806.207 1967.54 786.664 1962.04 780.852 1960.07 C 763.705 1954.29 746.823 1947.75 730.255 1940.48 C 705.536 1929.65 622.926 1890.32 613.462 1865.17 C 610.549 1857.46 610.854 1848.91 614.308 1841.43 C 634.147 1798.61 690.416 1846.08 714.316 1858.13 C 729.619 1865.84 818.93 1908.85 829.85 1905.4 C 827.281 1901.54 801.764 1894.15 795.494 1891.79 C 761.996 1879.19 648.709 1826.54 632.594 1799.97 C 627.476 1791.53 625.518 1780.61 628.163 1771.02 C 630.318 1763.21 636.005 1756.82 642.928 1752.81 C 651.807 1747.68 661.166 1747.12 670.888 1749.91 C 693.575 1756.42 715.11 1772.23 735.491 1783.94 C 769.844 1803.68 818.976 1827.98 857.032 1837.36 C 859.315 1837.92 861.346 1838.52 863.406 1837.3 L 861.703 1835.72 C 860.641 1835.51 859.583 1835.28 858.53 1835.02 C 824.183 1826.76 690.381 1765.72 672.571 1735.57 C 667.508 1727 665.697 1715.54 668.315 1705.89 C 670.39 1698.24 675.458 1692.18 682.38 1688.44 C 691.783 1683.35 703.244 1683.22 713.363 1686.02 C 732.302 1691.25 763.818 1711.11 783.537 1720.56 C 814.045 1735.2 847.179 1746.23 879.641 1755.49 L 879.984 1752.68 C 882.909 1752.71 885.209 1752.71 888.161 1752.52 C 889.16 1754.98 888.972 1755.24 888.925 1757.91 C 904.257 1761.51 971.053 1777.22 983.168 1774.7 L 982.952 1773.63 C 977.952 1771.13 971.289 1771.3 965.574 1770.65 z" fill="rgb(249,188,167)" transform="translate(0,0)"></path>
<path d="M 879.984 1752.68 C 882.909 1752.71 885.209 1752.71 888.161 1752.52 C 889.16 1754.98 888.972 1755.24 888.925 1757.91 C 885.598 1757.05 883.033 1756.2 879.641 1755.49 L 879.984 1752.68 z" fill="rgb(8,4,2)" transform="translate(0,0)"></path>
<path d="M 1335.28 1567.96 C 1438.2 1564.94 1507.98 1629.95 1497.56 1735.69 L 1499.27 1736.81 C 1497.88 1752.91 1491 1778.5 1484.62 1793.48 C 1430.9 1919.68 1286.22 2006.45 1158.66 2036.9 C 1146.22 2039.94 1133.63 2042.36 1120.95 2044.17 C 1114.42 2045.11 1100.95 2046.58 1094.94 2048 L 1065.96 2048 L 914.501 2048 L 877.494 2048 C 882.931 2043.6 892.926 2048.55 897.729 2045.27 L 899.299 2045.25 C 955.865 2044.55 1011.34 2029.59 1060.59 2001.75 C 1074.79 1993.87 1090.21 1984.64 1101.39 1972.81 C 1126.08 1946.69 1136.33 1912.36 1135.72 1877.17 L 1136.9 1876.76 L 1137.95 1877.61 C 1136.5 1838.46 1121.35 1797.79 1101.59 1764.34 C 1096.78 1756.21 1089.4 1748.02 1084.45 1739.75 L 1084.05 1739.07 L 1084.32 1738.18 C 1087.8 1735.44 1121.66 1726.71 1128.77 1724.12 C 1156.49 1714.04 1187.87 1701.43 1213.25 1686.92 C 1289.09 1692.77 1329.66 1638.29 1335.28 1567.96 z" fill="rgb(251,160,8)" transform="translate(0,0)"></path>
<path d="M 1077.05 2046.03 C 1088.24 2046.2 1102.1 2044.29 1113.2 2042.67 C 1272.81 2019.33 1468.53 1906.62 1497.56 1735.69 L 1499.27 1736.81 C 1497.88 1752.91 1491 1778.5 1484.62 1793.48 C 1430.9 1919.68 1286.22 2006.45 1158.66 2036.9 C 1146.22 2039.94 1133.63 2042.36 1120.95 2044.17 C 1114.42 2045.11 1100.95 2046.58 1094.94 2048 L 1065.96 2048 L 914.501 2048 L 877.494 2048 C 882.931 2043.6 892.926 2048.55 897.729 2045.27 L 899.299 2045.25 C 955.865 2044.55 1011.34 2029.59 1060.59 2001.75 C 1074.79 1993.87 1090.21 1984.64 1101.39 1972.81 C 1126.08 1946.69 1136.33 1912.36 1135.72 1877.17 L 1136.9 1876.76 L 1137.95 1877.61 C 1140.48 1904.05 1138.84 1930.72 1133.07 1956.64 C 1124.79 1992.16 1109.06 2026.13 1077.05 2046.03 z" fill="rgb(8,4,2)" transform="translate(0,0)"></path>
<path d="M 914.501 2048 C 940.586 2044.07 959.46 2043.01 985.759 2035.75 C 1004.53 2030.56 1017.44 2024.9 1035.21 2018.63 C 1044.02 2035.46 1047.78 2041.29 1065.96 2048 L 914.501 2048 z" fill="rgb(254,254,254)" transform="translate(0,0)"></path>
<path d="M 775.216 1245.25 C 799.119 1250.72 823.498 1253.85 848.008 1254.6 C 992.947 1258.67 1144.18 1199.82 1249.3 1100.3 C 1253.42 1103.5 1267.54 1113.27 1268.58 1116.57 C 1248.99 1141.86 1221.84 1165.54 1196.31 1184.65 C 1115.82 1245.68 1020.85 1284.73 920.713 1297.98 C 885.972 1302.4 850.897 1302.31 816.156 1297.87 C 809.954 1297.08 800.99 1295.31 795.139 1296.64 C 795.548 1285.14 780.99 1256.16 775.216 1245.25 z" fill="rgb(6,51,95)" transform="translate(0,0)"></path>
<path d="M 682.92 1268.8 C 699.194 1296.29 695.454 1294.13 701.757 1323.8 C 687.685 1335.41 685.07 1357.47 702.739 1367.91 C 713.833 1374.46 731.252 1368.28 743.207 1365.38 C 748.172 1385.15 751.238 1405.99 756.241 1425.22 C 748.911 1426.4 744.126 1426.99 736.726 1427.39 C 732.601 1418.54 731.208 1414.64 725.643 1406.41 C 694.236 1411.54 658.371 1418.72 626.843 1424.62 C 620.317 1407.17 615.242 1381.63 613.554 1363.09 L 614.85 1363.05 C 663.968 1361.24 683.821 1321.07 681.781 1276.51 C 682.194 1273.95 682.574 1271.38 682.92 1268.8 z" fill="rgb(59,136,206)" transform="translate(0,0)"></path>
<path d="M 1180.58 1461.04 C 1181.31 1443.44 1183.3 1377.76 1187.94 1364.44 C 1190.63 1379.43 1200.75 1444.9 1208.72 1452.51 C 1199.03 1454.21 1189.58 1457.07 1180.58 1461.04 z" fill="rgb(6,51,95)" transform="translate(0,0)"></path>
<path d="M 681.781 1276.51 C 681.762 1276.4 679.483 1261.79 682.323 1267.67 L 682.92 1268.8 C 682.574 1271.38 682.194 1273.95 681.781 1276.51 z" fill="rgb(54,121,182)" transform="translate(0,0)"></path>
<path d="M 1084.05 1739.07 C 1076.66 1737.97 1079.81 1735.82 1082.3 1737.11 L 1084.32 1738.18 L 1084.05 1739.07 z" fill="rgb(125,82,43)" transform="translate(0,0)"></path>
<path d="M 648.119 337.771 C 654.366 382.4 692.268 452.277 719.179 488.231 C 797.497 592.87 911.856 652.116 1039.08 671.654 C 1001.07 625.087 981.168 582.863 968.26 523.784 C 965.043 509.056 961.139 490.11 960.901 475.066 C 960.462 472.323 959.297 460.781 960.497 458.9 C 961.52 458.388 961.7 460.1 961.805 460.688 C 1022.87 599.333 1134.26 698.329 1274.71 752.722 C 1306.41 764.716 1339.02 774.127 1372.23 780.862 C 1389.67 784.249 1407.12 786.349 1424.44 789.476 C 1398.4 882.526 1359.08 969.643 1296.51 1044.42 C 1256.79 1095.69 1197.29 1145.5 1141.01 1176.54 C 1135.35 1179.66 1115.82 1190.67 1110.31 1192.6 C 1010.48 1243.17 881.293 1267.67 771.343 1241.1 C 769.772 1227.63 769.092 1213.42 767.112 1200.01 C 763.407 1174.92 758.512 1149.74 753.798 1124.82 C 779.724 1130.04 801.355 1131.6 827.541 1127.27 C 833.145 1126.34 841.049 1125.39 845.941 1122.78 L 845.558 1121.76 C 840.199 1121.51 824.43 1125.17 817.855 1125.76 C 793.49 1127.97 776.957 1126.27 753.398 1121.54 C 748.873 1099.66 747.32 1076.17 725.856 1064.16 C 714.942 1058.17 702.097 1056.77 690.15 1060.26 C 674.635 1064.76 667.354 1073.13 659.826 1086.52 C 624.799 1056 599.294 1043.37 554.927 1030.14 C 551.905 1029.81 547.77 1028.86 544.712 1028.28 C 494.817 1018.84 446.539 1026.3 398.45 1041.69 C 365.665 1005.09 338.552 957.272 319.362 912.253 C 281.286 822.864 261.22 689.534 269.844 592.431 C 286.235 589.91 303.228 587.331 319.378 583.785 C 441.01 557.077 541.166 484.79 615.415 385.955 C 627.379 370.029 637.4 354.425 648.119 337.771 z" fill="rgb(249,188,167)" transform="translate(0,0)"></path>
<path d="M 1110.31 1192.6 C 1107.93 1190.9 1102.17 1189.01 1099.09 1187.74 C 1068.23 1174.98 1042.74 1144.11 1030.6 1113.45 C 1016.74 1077.69 1017.76 1037.86 1033.43 1002.85 C 1064.24 933.464 1146.5 902.344 1215.72 934.152 C 1253.01 951.286 1278.9 982.665 1289.97 1022.02 C 1291.99 1029.19 1293.82 1037.59 1296.51 1044.42 C 1256.79 1095.69 1197.29 1145.5 1141.01 1176.54 C 1135.35 1179.66 1115.82 1190.67 1110.31 1192.6 z" fill="rgb(236,143,118)" transform="translate(0,0)"></path>
<path d="M 319.362 912.253 C 322.239 908.299 323.589 902.721 325.079 898.042 C 333.335 872.145 352.609 848.685 375.011 833.392 C 425.814 798.709 500.191 803.407 544.026 847.372 C 590.049 893.531 598.69 962.17 564.065 1017.7 C 561.368 1022.02 556.9 1025.08 554.927 1030.14 C 551.905 1029.81 547.77 1028.86 544.712 1028.28 C 494.817 1018.84 446.539 1026.3 398.45 1041.69 C 365.665 1005.09 338.552 957.272 319.362 912.253 z" fill="rgb(236,143,118)" transform="translate(0,0)"></path>
<path d="M 960.901 475.066 C 960.462 472.323 959.297 460.781 960.497 458.9 C 961.52 458.388 961.7 460.1 961.805 460.688 C 960.871 465.917 961.469 469.51 960.901 475.066 z" fill="rgb(249,188,167)" transform="translate(0,0)"></path>
<path d="M 1031.35 804.997 C 1064.67 800.29 1095.5 823.478 1100.22 856.795 C 1104.94 890.113 1081.77 920.952 1048.45 925.687 C 1015.12 930.424 984.254 907.232 979.531 873.895 C 974.808 840.557 998.012 809.706 1031.35 804.997 z" fill="rgb(8,4,2)" transform="translate(0,0)"></path>
<path d="M 592.339 724.206 C 625.74 722.734 654.063 748.503 655.747 781.893 C 657.431 815.284 631.843 843.771 598.464 845.667 C 564.783 847.58 535.982 821.71 534.283 788.018 C 532.585 754.326 558.637 725.69 592.339 724.206 z" fill="rgb(8,4,2)" transform="translate(0,0)"></path>
<path d="M 786.112 772.917 C 807.451 774.834 801.189 794.606 799.689 809.815 C 795.652 850.76 778.445 887.083 759.016 922.763 C 750.451 938.492 731.442 958.886 738.551 977.85 C 750.96 1005.91 796.25 990.888 819.182 1002.83 C 833.643 1010.37 826.279 1026.41 811.511 1028.39 C 789.3 1025.41 763.691 1024.85 742.307 1019.02 C 729.228 1014.98 717.767 1007.39 711.616 995.009 C 695.605 962.792 720.401 936.794 736.071 910.758 C 745.291 895.207 753.264 878.949 759.914 862.138 C 765.538 847.605 769.968 828.52 772.115 812.974 C 773.512 802.858 773.412 791.369 776.529 781.503 C 778.263 776.015 781.235 775.024 786.112 772.917 z" fill="rgb(8,4,2)" transform="translate(0,0)"></path>
<path d="M 785.318 775.84 C 803.923 775.87 797.934 797.608 796.656 810.147 C 792.463 851.31 774.874 888.185 754.933 923.776 C 745.669 941.796 723.716 963.808 739.184 984.995 C 754.231 1005.61 792.903 995.659 814.579 1003.84 C 827.453 1008.7 825.985 1022.21 813.165 1025.37 C 786.724 1023.6 734.886 1022.54 718.288 1000.38 C 695.03 968.603 721.845 939.814 737.973 913.198 C 760.83 875.481 775.852 833.316 777.056 789.073 C 777.256 781.71 780.098 779.851 785.318 775.84 z" fill="rgb(236,143,118)" transform="translate(0,0)"></path>
<path d="M 1026.69 691.405 C 1074.75 686.435 1155.04 709.247 1185.84 753.06 C 1193.46 763.909 1176.16 781.627 1166.23 774.782 C 1150.29 763.799 1139.5 753.465 1121.78 744.014 C 1076.31 721.03 1023.6 717.895 976.81 739.245 C 973.531 740.741 969.266 742.61 965.784 743.25 C 961.833 744.018 957.741 743.132 954.461 740.799 C 947.085 735.661 943.807 720.859 950.422 715.708 C 969.487 700.862 1003.12 693.828 1026.69 691.405 z" fill="rgb(8,4,2)" transform="translate(0,0)"></path>
<path d="M 574.539 612.4 C 621.12 605.708 697.865 630.889 726.057 672.189 C 728.021 675.066 727.984 682.522 726.266 685.748 C 713.013 710.624 692.198 681.334 678.849 673.095 C 670.208 667.442 665.291 664.387 656.332 660.224 C 619.108 642.381 576.557 640.908 537.422 653.443 C 526.723 656.87 516.682 663.081 505.589 666.329 L 504.363 666.678 C 489.562 661.974 481.335 649.729 492.571 638.495 C 508.975 622.095 553.427 614.24 574.539 612.4 z" fill="rgb(8,4,2)" transform="translate(0,0)"></path>
<path d="M 838.077 3.44931 C 896.621 1.02324 955.177 7.94601 1011.54 23.957 C 1165.87 68.0267 1296.05 172.186 1372.91 313.083 C 1449.48 453.329 1470.25 632.856 1425.03 786.275 C 1405.03 783.098 1385.94 780.819 1365.96 776.687 C 1310.75 764.795 1257.43 745.384 1207.49 718.997 C 1100.78 661.928 992.627 554.513 957.108 436.958 C 955.581 518.488 978.211 594.491 1026.16 660.49 L 1032.66 667.812 C 959.796 654.091 898.65 634.088 835.374 593.368 C 744.932 535.165 671.536 436.28 648.893 330.404 C 592.728 428.566 497.936 516.715 392.365 558.52 C 351.259 574.797 312.638 581.801 269.602 589.473 C 273.568 559.323 275.005 535.868 280.613 504.756 C 302.452 383.584 352.963 278.812 437.586 188.282 C 541.151 75.8091 685.296 9.28423 838.077 3.44931 z" fill="rgb(125,82,43)" transform="translate(0,0)"></path>
<path d="M 355.009 1063.81 C 536.888 977.439 672.75 1049.15 752.178 1225.07 C 763.471 1251.1 781.751 1281.41 771.989 1310.63 C 765.957 1328.29 746.52 1336.39 729.575 1329.92 C 715.206 1324.42 705.415 1302.19 697.895 1289.16 C 669.382 1239.73 644.65 1188.66 601.654 1149.56 C 598.934 1147.08 591.141 1138.83 587.787 1139.68 C 588.95 1142.89 605.758 1156.84 609.776 1161.57 C 645.477 1203.57 699.991 1262.68 671.949 1321.96 C 655.955 1355.77 626.085 1366.36 591.547 1355.33 C 602.417 1326.52 599.561 1303.83 587.82 1275.13 C 585.779 1270.15 575.028 1254.57 572.105 1251.52 C 560.383 1239.27 526.288 1201.17 514.93 1193.46 L 513.198 1193.34 C 513.97 1197.77 521.223 1203.17 524.534 1206.58 C 558.167 1241.24 594.34 1266.49 595.279 1319.86 C 596.182 1371.13 556.001 1396.73 508.38 1382.51 C 514.506 1358.62 512.056 1338.45 499.954 1316.69 C 493.473 1305.04 447.806 1260.39 438.207 1254.64 L 436.781 1254.52 C 439.98 1259.59 449.598 1268.38 454.331 1272.66 C 483.27 1298.78 517.232 1328.03 507.423 1372.64 C 504.923 1384.42 497.84 1394.72 487.736 1401.27 C 472.55 1410.96 452.69 1409.36 438.28 1399.25 C 435.312 1397.17 433.23 1394.34 430.545 1391.99 L 427.542 1392.66 L 414.455 1401.87 L 414.623 1398.85 C 411.767 1400.17 397.889 1411.52 394.9 1413.99 C 367.798 1436.46 343.121 1461.71 321.271 1489.31 C 312.709 1500.12 305.33 1511.47 296.909 1522.12 C 275.685 1526.88 133.176 1547.89 124.185 1555.92 C 105.303 1572.77 104.854 1632.91 104.571 1657.51 C 10.9965 1600.79 -8.92651 1535.65 9.37835 1430.3 C 32.7196 1295.98 201.324 1027.37 360.086 1058.45 L 350.247 1062.28 L 355.009 1063.81 z" fill="rgb(249,188,167)" transform="translate(0,0)"></path>
<path d="M 104.571 1657.51 C 10.9965 1600.79 -8.92651 1535.65 9.37835 1430.3 C 32.7196 1295.98 201.324 1027.37 360.086 1058.45 L 350.247 1062.28 C 218.56 1093.6 193.6 1287.33 308.408 1357.83 C 337.143 1375.64 371.384 1382.37 404.724 1376.76 C 408.219 1381.83 414.642 1389.98 417.189 1395.02 C 416.527 1397.79 417.085 1396.44 414.623 1398.85 C 411.767 1400.17 397.889 1411.52 394.9 1413.99 C 367.798 1436.46 343.121 1461.71 321.271 1489.31 C 312.709 1500.12 305.33 1511.47 296.909 1522.12 C 275.685 1526.88 133.176 1547.89 124.185 1555.92 C 105.303 1572.77 104.854 1632.91 104.571 1657.51 z" fill="rgb(251,160,8)" transform="translate(0,0)"></path>
<path d="M 350.247 1062.28 L 355.009 1063.81 C 303.869 1090.29 260.699 1130.15 242.547 1185.82 C 233.376 1213.95 236.189 1257.76 250.747 1283.87 C 276.143 1329.41 327.593 1351.27 377.369 1347.67 C 364.497 1317.05 357.405 1315.32 333.14 1293.45 L 335.21 1291.7 C 351.045 1306.1 367.039 1320.32 383.187 1334.36 C 407.193 1355.39 417.378 1361.4 430.545 1391.99 L 427.542 1392.66 L 414.455 1401.87 L 414.623 1398.85 C 417.085 1396.44 416.527 1397.79 417.189 1395.02 C 414.642 1389.98 408.219 1381.83 404.724 1376.76 C 371.384 1382.37 337.143 1375.64 308.408 1357.83 C 193.6 1287.33 218.56 1093.6 350.247 1062.28 z" fill="rgb(8,4,2)" transform="translate(0,0)"></path>
<path d="M 333.14 1293.45 C 326.858 1287.93 329.135 1285.92 335.21 1291.7 L 333.14 1293.45 z" fill="rgb(64,46,41)" transform="translate(0,0)"></path>
<path d="M 291.045 1526.33 C 302.112 1524.42 311.459 1534.83 317.593 1542.9 C 370.36 1612.25 386.905 1736.56 378.251 1819.68 L 227.195 1847.12 L 216.009 1849.16 C 216.891 1818.05 215.374 1786.91 211.471 1756.04 C 205.107 1701.54 183.87 1589.39 138.167 1553.27 C 189.069 1543.96 240.029 1534.99 291.045 1526.33 z" fill="rgb(137,180,93)" transform="translate(0,0)"></path>
<path d="M 506.622 1384.54 C 539.031 1395.85 571.957 1387.75 590.363 1357.46 C 598.717 1360.71 601.943 1361.74 610.645 1363.8 C 614.013 1386.91 616.895 1402.43 624.178 1424.71 L 538.549 1439.99 C 525.999 1442.24 513.111 1444.22 500.799 1447.44 C 493.608 1449.32 490.638 1458.37 489.042 1464.83 C 478.241 1508.56 479.43 1553.8 481.204 1598.43 C 454.056 1604.12 425.834 1608.13 398.56 1613.39 C 386.534 1615.71 371.662 1617.78 360.055 1620.88 C 348.6 1588.82 330.26 1541.92 299.847 1523.34 C 329.751 1481.24 360.768 1443.38 402.211 1412.01 C 405.015 1409.89 412.335 1404.28 414.455 1401.87 L 427.542 1392.66 C 452.768 1420.16 487.092 1415.77 506.622 1384.54 z" fill="rgb(254,254,254)" transform="translate(0,0)"></path>
<path d="M 1214.59 1454.36 C 1228.36 1453.02 1244.56 1455.07 1257.55 1459.33 C 1285.46 1468.75 1308.48 1488.89 1321.53 1515.3 C 1362.43 1598.21 1288.05 1679.3 1199.95 1648.05 C 1179.74 1639.58 1166.88 1629.33 1151.93 1613.85 L 1153.45 1600.21 C 1138.32 1604.58 1111.03 1608.67 1095.04 1611.47 C 1092.03 1580.74 1090.92 1565.93 1084.7 1534.74 C 1098.78 1532.6 1112.84 1530.27 1126.86 1527.75 C 1139.56 1486.77 1172.1 1459.78 1214.59 1454.36 z" fill="rgb(228,73,32)" transform="translate(0,0)"></path>
<path d="M 130.727 1554.77 C 157.542 1555.72 185.631 1641.08 191.063 1662.41 C 207.284 1726.1 216.888 1794.26 212.304 1860.01 C 211.107 1877.17 208.525 1914.08 192.071 1922.56 C 185.634 1918.71 179.934 1913.75 175.236 1907.9 C 134.915 1858.67 111.176 1732.06 107.633 1668.61 C 106.559 1649.8 107.038 1630.93 109.066 1612.21 C 111.164 1592.53 114.682 1567.76 130.727 1554.77 z" fill="rgb(6,117,83)" transform="translate(0,0)"></path>
<path d="M 137.198 1623.29 C 166.334 1628.56 196.395 1798.36 176.365 1822.79 L 175.403 1822.57 C 144.183 1815.75 116.764 1654.25 137.198 1623.29 z" fill="rgb(8,4,2)" transform="translate(0,0)"></path>
<path d="M 500.324 1449.4 C 509.216 1454.26 523.535 1489.06 527.271 1499.89 C 561.524 1599.12 578.826 1707.27 576.79 1812.35 C 576.356 1834.8 573.375 1870.52 563.848 1891.46 C 563.234 1892.48 561.793 1891.94 560.128 1891.77 C 553.376 1887.56 549.134 1878.94 545.037 1872.02 C 527.053 1836.7 515.042 1792.1 506.981 1753.45 C 514.659 1752.34 521.946 1751.34 529.556 1749.73 C 547.367 1709.84 537.989 1624.04 505.217 1594.32 C 498.18 1595.59 491.166 1596.99 484.179 1598.51 C 483.384 1568.67 478.587 1469.87 500.324 1449.4 z" fill="rgb(6,117,83)" transform="translate(0,0)"></path>
<path d="M 499.748 1598.32 C 502.862 1597.87 505.024 1597.39 507.364 1600.14 C 529.735 1626.35 533.908 1670.4 536.102 1702.5 L 395.245 1727.65 C 390.707 1728.42 385.862 1729.49 381.318 1730.41 C 375.459 1690.8 372.543 1663.6 360.954 1623.58 C 377.701 1619.65 397.292 1616.55 414.32 1613.48 C 442.767 1608.26 471.244 1603.21 499.748 1598.32 z" fill="rgb(137,180,93)" transform="translate(0,0)"></path>
<path d="M 263.822 593.938 L 265.402 593.964 C 265.738 594.322 266.074 594.681 266.411 595.039 C 265.688 611.783 264.879 639.393 265.286 654.671 C 266.809 718.659 276.02 782.232 292.72 844.021 C 270.655 840.717 256.832 835.297 238.161 823.124 C 220.999 810.957 207.128 794.719 197.793 775.867 C 167.024 713.986 188.689 635.659 249.386 601.334 C 254.111 598.661 258.94 596.301 263.822 593.938 z" fill="rgb(236,143,118)" transform="translate(0,0)"></path>
<path d="M 1429.75 781.428 C 1448.35 798.849 1461.6 821.212 1467.93 845.894 C 1476.56 879.338 1470.67 917.833 1452.63 947.086 C 1431.07 982.056 1405.05 998.671 1366.27 1008.57 C 1349.34 1011.12 1342.68 1011.17 1325.77 1009.71 C 1377.38 941.725 1406.65 862.534 1429.75 781.428 z" fill="rgb(236,143,118)" transform="translate(0,0)"></path>
<path d="M 373.78 1823.35 C 375.617 1822.89 375.568 1823.03 377.428 1823.54 C 377.529 1823.83 377.631 1824.12 377.732 1824.41 C 375.946 1843.11 367.943 1887.92 348.305 1893.73 C 330.71 1898.95 314.139 1901.3 299.352 1903.95 L 204.216 1920.54 L 201.836 1920.22 C 201.682 1916.27 204.832 1912.9 206.213 1909.21 C 212.812 1891.57 214.23 1870.14 215.791 1851.73 C 229.259 1848.95 244.435 1846.8 258.229 1844.24 C 296.674 1836.88 335.193 1829.92 373.78 1823.35 z" fill="rgb(6,117,83)" transform="translate(0,0)"></path>
<path d="M 701.204 1061.35 C 707.221 1061.17 713.216 1062.16 718.854 1064.27 C 727.715 1067.67 738.168 1076.22 741.192 1084.45 C 748.292 1103.78 771.641 1226.94 766.842 1238.44 L 764.546 1238.85 C 759.047 1235.95 754.418 1223.39 751.66 1217.32 C 732.163 1171.94 696.895 1124.16 662.588 1088.87 C 671.177 1070.62 681.327 1063.62 701.204 1061.35 z" fill="rgb(228,73,32)" transform="translate(0,0)"></path>
<path d="M 534.196 1705.29 L 535.051 1705.51 L 535.92 1707.42 C 534.913 1721.7 533.205 1734.05 527.434 1747.33 C 495.973 1751.84 463.794 1759.18 432.385 1764.61 C 416.232 1767.4 399.968 1771.18 383.574 1772.32 C 383.014 1758.71 382.359 1746.63 381.099 1733.05 L 534.196 1705.29 z" fill="rgb(6,117,83)" transform="translate(0,0)"></path>
<path d="M 1136.75 1643.31 C 1142.15 1642.94 1142.04 1643.27 1145.48 1647.89 C 1161.79 1669.78 1183.39 1680.19 1209.02 1686.52 C 1190.4 1696.6 1163.08 1708.32 1143.8 1716.04 C 1123.77 1723.5 1106.54 1728.3 1086.02 1733.86 C 1090.35 1703.51 1092.45 1681.5 1095.09 1651.07 L 1136.75 1643.31 z" fill="rgb(254,254,254)" transform="translate(0,0)"></path>
<path d="M 763.467 1242.15 C 764.963 1242.5 766.77 1243.08 768.279 1243.52 C 779.656 1252.8 790.221 1285.56 793.558 1300.52 C 813.184 1302.5 824.911 1321.65 814.612 1339.38 C 810.142 1347.07 800.087 1349.5 791.901 1351.49 C 770.018 1356.81 747.888 1362.1 725.728 1366.25 C 713.472 1368.49 710.743 1369.79 700.315 1362.59 C 688.92 1349.3 691.556 1335.04 704.932 1324.83 C 702.265 1316.33 701.355 1307.35 700.556 1298.52 C 706.69 1310.49 712.633 1323.68 724.376 1330.75 C 732.031 1335.43 741.241 1336.84 749.948 1334.68 C 785.559 1325.73 781.491 1277.26 767.445 1253.13 C 766.062 1250.76 764.108 1244.98 763.467 1242.15 z" fill="rgb(228,73,32)" transform="translate(0,0)"></path>
<path d="M 1323.5 1609.77 C 1323.56 1610.41 1323.61 1611.05 1323.67 1611.69 C 1297.52 1691.41 1199.08 1711.16 1146.76 1644.73 C 1144.56 1640.37 1150.1 1624.24 1151.66 1618.39 C 1182.41 1647.96 1218.54 1665.09 1262.03 1655.33 C 1290.34 1648.98 1308.52 1633.84 1323.5 1609.77 z" fill="rgb(155,54,32)" transform="translate(0,0)"></path>
<path d="M 579.103 1826.53 C 600.574 1823.28 622.105 1817.92 643.62 1815.78 C 643.621 1815.77 647.406 1817.69 647.79 1817.89 L 648.025 1821.19 C 637.19 1820.01 628.595 1821.67 620.262 1829.09 C 613.446 1835.19 609.37 1843.78 608.952 1852.92 C 608.48 1864.87 613.475 1873.29 621.21 1881.75 C 603.903 1884.34 584.755 1888.43 567.39 1891.8 C 574.816 1870.54 576.925 1848.76 579.103 1826.53 z" fill="rgb(155,54,32)" transform="translate(0,0)"></path>
<path d="M 1145.35 1605.27 C 1145.7 1605.21 1149.42 1604.48 1149.44 1605.63 C 1149.69 1616.42 1145.9 1628.4 1143.2 1638.72 C 1128.6 1641.76 1113.91 1644.47 1099.3 1647.57 C 1099.04 1647.59 1095.62 1648.14 1095.57 1647.34 C 1094.88 1637.17 1095.23 1624.69 1095.02 1614.46 C 1111.18 1611.31 1128.95 1608.29 1145.35 1605.27 z" fill="rgb(155,54,32)" transform="translate(0,0)"></path>
<path d="M 1087.99 1689.47 C 1090.96 1691.78 1083.91 1727.74 1083.15 1734.04 C 1083.43 1735.28 1075.27 1734.61 1075.55 1734.73 C 1069.33 1732.26 1054.78 1719.72 1049.94 1715.77 C 1042.47 1710.09 1035.77 1704.95 1028.15 1699.33 C 1034.17 1698.05 1040.22 1696.99 1046.32 1696.17 C 1060.19 1694.16 1074.17 1691.25 1087.99 1689.47 z" fill="rgb(155,54,32)" transform="translate(0,0)"></path>
<path d="M 887.622 1754.88 C 902.241 1752.47 916.19 1749 930.904 1746.73 C 938.972 1752.91 946.035 1759.45 953.852 1765.79 L 951.14 1768.36 C 949.476 1767.9 947.706 1767.37 945.995 1767.07 C 926.511 1763.7 906.898 1759.16 887.622 1754.88 z" fill="rgb(155,54,32)" transform="translate(0,0)"></path>
<path d="M 953.852 1765.79 C 959.432 1769.73 954.848 1768.8 951.14 1768.36 L 953.852 1765.79 z" fill="rgb(126,40,24)" transform="translate(0,0)"></path>
<path d="M 647.79 1817.89 C 648.565 1818.46 652.023 1820.65 652.164 1821.39 C 651.559 1821.97 648.768 1821.28 648.025 1821.19 L 647.79 1817.89 z" fill="rgb(126,40,24)" transform="translate(0,0)"></path>
<metadata><recraft-signature>{"signed_by": "recraft", "signature_b64": "+cB1IwPZprA4lx8hCfp6cJ3bOyR0uLSab4SI0HwZcSTEgoHsd9K1UBTyvzqu8dFPTrnb3XOYUPMhRPjfm66zBg==", "signing_algo": "Ed25519", "generation_timestamp": 1779004984, "identifier": "a7438f4c-f54f-49c3-9f3e-ec75192fa231"}</recraft-signature></metadata></svg>