<?xml version="1.0" encoding="utf-8" ?><svg xmlns="http://www.w3.org/2000/svg" xmlns:xlink="http://www.w3.org/1999/xlink" width="1024" height="1024" viewBox="0 0 1024 1024"><path fill="white" d="M0 0L1024 0L1024 1024L0 1024L0 0Z"/><path fill="#D28862" d="M616.419 282.549C629.963 264.16 645.674 244.844 659.893 226.845L702.215 172.526L728.7 138.724C731.376 135.277 739.345 124.484 742.032 121.849C743.712 121.919 743.737 122.586 745.343 124.211C748.17 126.985 751.204 129.861 753.951 132.685L823.183 198.462C835.29 209.957 849.03 222.212 860.701 233.922C864.071 237.087 869.985 242.24 872.773 245.522L876.291 248.535L819.976 302.13C802.33 318.791 779.489 339.064 765.991 359.096C748.891 384.474 767.41 420.482 760.394 448.777C755.588 468.157 744.977 480.974 737.226 498.96C729.321 517.51 728.045 536.994 722.543 555.948C719.263 567.249 708.201 578.893 705.667 591.149C701.987 603.149 703.413 618.215 700.338 629.507C695.072 648.844 667.443 637.163 659.386 626C649.112 611.767 647.557 598.192 648.309 581.664C642.712 589.475 640.243 590.775 632.01 595.661C646.808 604.987 649.765 625.404 640.575 639.38C631.988 652.44 609.338 665.261 595.137 670.576C597.944 672.725 597.63 671.751 601.157 672.053C611.766 672.093 619.512 681.262 618.586 690.943C616.326 714.555 583.419 722.211 564.14 720.967C557.502 720.539 553.298 718.309 549.145 713.846C541.524 719.528 529.921 726.466 521.619 731.812C511.524 738.309 501.372 744.716 491.163 751.03C475.191 760.926 458.869 771.599 439.363 773.77C426.463 775.206 409.602 774.429 397.596 780.386C394.1 782.584 379.591 799.739 376.051 803.778L313.62 875.941C308.938 881.284 304.302 886.668 299.714 892.092C296.771 895.63 293.005 900.664 289.764 903.707C288.267 903.307 287.82 902.441 286.615 901.073C283.548 897.652 277.84 892.786 274.28 889.535C270.421 886.314 264.531 880.316 260.718 876.649C251.653 867.962 242.633 859.227 233.66 850.445L165.106 785.072C162.411 782.744 159.927 780.409 157.333 777.969C156.179 776.9 155.997 776.71 155.054 775.455C155.528 772.924 171.482 759.478 174.626 756.599C197.881 735.487 220.631 713.826 242.858 691.635C255.334 679.211 271.503 665.187 279.84 649.909C278.678 642.315 276.675 635.78 276.043 627.575C274.228 602.822 277.508 571.238 288.24 548.543C297.863 528.195 308.848 510.555 315.38 488.41C319.227 475.372 337.367 463.585 344.379 450.355C351.665 436.609 351.938 422.915 359.783 410.292C366.521 400.58 382.631 406.076 389.732 413.316C398.667 422.426 402.088 430.536 402.632 443.217C406.03 438.064 409.577 433.011 413.269 428.065C423.661 414.206 436.302 402.726 447.775 389.863C491.726 340.59 548.715 292.257 616.419 282.549Z"/><path fill="#F8B58C" d="M362.776 412.977C370.278 405.05 381.762 410.799 388.281 417.175C394.11 422.875 397.174 430.267 398.236 438.298C396.499 440.783 396.256 444.94 395.926 447.997C395.459 452.329 392.793 456.549 392.13 460.284C386.315 472.145 380.524 482.608 372.432 493.194C369.205 497.415 363.08 503.233 360.701 507.138L354.945 506.922C353.012 506.842 351.064 507.174 349.453 508.275L349.609 509.016C353.677 511.362 358.001 511.077 362.545 510.745C364.8 517.082 364.983 524.292 368.799 530.034C362.773 547.067 348.882 577.334 375.125 584.499C379.355 586.511 380.099 589.062 385.491 589.595C390.724 590.113 395.222 590.674 400.23 588.419C403.962 587.058 405.58 584.394 406.813 585.878L402.486 607.388C399.129 624.245 394.18 645.063 409.553 657.646C414.403 666.388 424.795 670.872 434.499 669.323C446.056 667.477 451.555 659.664 458.082 651.468C456.941 668.465 451.179 687.29 468.101 698.153C469.784 700.798 470.312 700.434 473.055 701.94C485.598 708.829 498.561 703.492 507.383 693.4C511.145 689.104 513.191 683.463 514.607 678.008C515.168 675.846 514.972 675.578 516.126 673.567C516.666 674.696 518.92 679.199 519.256 680.153L519.931 682.506C521.698 688.465 528.215 694.875 533.763 697.714C534.851 698.279 535.954 698.814 537.072 699.318C511.998 714.414 478.392 740.836 451.536 751.094C441.392 754.929 430.774 757.371 419.974 758.352C402.019 760.097 397.027 757.258 379.054 768.201C375.966 770.081 372.919 773.186 370.523 775.95C363.538 784.01 356.786 792.393 349.973 800.609L316.813 840.043C307.571 850.936 298.271 861.78 288.914 872.574C284.856 877.26 277.91 884.767 274.28 889.535C270.421 886.314 264.531 880.316 260.718 876.649C251.653 867.962 242.633 859.227 233.66 850.445L165.106 785.072C167.951 780.585 178.565 772.466 183.022 768.347C212.59 741.018 242.881 715.079 269.571 684.759C274.773 678.85 279.697 672.514 284.972 666.549C287.597 672.735 294.558 688.928 299.209 692.499L300.334 692.661C300.863 692.103 301.6 691.6 301.401 691.098C298.844 684.619 293.854 676.971 290.874 670.458C289.667 667.662 288.563 664.823 287.563 661.947C273.781 622.37 277.676 573.326 298.964 536.902C302.571 530.731 306.121 523.237 309.101 516.727C311.373 511.778 313.395 506.719 315.162 501.569C319.947 487.657 320.829 482.932 331.806 472.468C338.687 465.907 346.39 455.732 350.508 447.182L351.653 444.641C354.605 436.788 358.983 418.617 362.776 412.977Z"/><path fill="#F8C8AF" d="M350.508 447.182C354.367 450.112 360.466 448.112 364.72 446.401C356.432 463.857 345.564 471.975 334.43 485.784C329.748 491.591 323.089 514.74 318.362 522.98C312.097 533.903 306.269 548.806 300.637 560.349C287.442 595.455 291.3 636.076 302.922 671.091C297.832 670.002 295.956 669.23 290.874 670.458C289.667 667.662 288.563 664.823 287.563 661.947C273.781 622.37 277.676 573.326 298.964 536.902C302.571 530.731 306.121 523.237 309.101 516.727C311.373 511.778 313.395 506.719 315.162 501.569C319.947 487.657 320.829 482.932 331.806 472.468C338.687 465.907 346.39 455.732 350.508 447.182Z"/><path fill="#F8C8AF" d="M362.776 412.977C366.095 414.938 368.347 416.744 369.141 420.709C370.972 429.857 369.124 441.899 359.252 445.49C357.395 446.165 353.019 446.297 351.653 444.641C354.605 436.788 358.983 418.617 362.776 412.977Z"/><path fill="#D28862" d="M368.108 680.395C365.441 683.168 349.724 697.769 346.391 694.384C346.574 690.604 352.837 688.068 356.144 685.638C381.559 666.96 390.877 629.62 384.518 599.812C384.043 597.582 382.564 594.117 383.734 592.109C385.518 591.602 384.722 591.483 386.222 592.29C388.463 595.726 389.391 604.209 390.097 608.584L392.189 607.978C392.388 605.647 392.412 603.156 393.291 601.041L393.964 600.85C398.486 608.949 398.973 628.574 396.095 637.763C391.419 652.698 385.28 670.8 371.141 679.663C370.085 680.325 369.269 680.384 368.108 680.395Z"/><path fill="#141110" d="M368.108 680.395C365.441 683.168 349.724 697.769 346.391 694.384C346.574 690.604 352.837 688.068 356.144 685.638C381.559 666.96 390.877 629.62 384.518 599.812C384.043 597.582 382.564 594.117 383.734 592.109C385.518 591.602 384.722 591.483 386.222 592.29C388.463 595.726 389.391 604.209 390.097 608.584C390.11 610.151 390.325 611.509 390.493 613.062C390.472 638.56 385.226 660.795 368.108 680.395Z"/><path fill="#D59272" d="M390.097 608.584L392.189 607.978L392.125 608.999C392.032 611.073 391.71 611.336 390.493 613.062C390.325 611.509 390.11 610.151 390.097 608.584Z"/><path fill="#141110" d="M616.419 282.549C629.963 264.16 645.674 244.844 659.893 226.845L702.215 172.526L728.7 138.724C731.376 135.277 739.345 124.484 742.032 121.849C743.712 121.919 743.737 122.586 745.343 124.211C748.17 126.985 751.204 129.861 753.951 132.685C745.934 140.043 730.107 161.991 722.541 171.505C701.376 198.455 679.902 225.161 658.123 251.617C653.774 256.885 649.733 261.6 645.181 266.568C642.64 269.341 632.136 279.656 630.665 282.074C634.842 282.067 645.949 281.587 649.246 283.237C649.906 284.518 649.745 285.169 648.858 286.362C639.326 285.805 624.374 285.412 615.01 286.671C565.357 293.345 521.284 325.231 484.532 357.304C472.946 367.415 462.862 379.384 452.438 390.669C442.349 401.592 431.867 412.331 422.105 423.478C417.869 428.315 412.688 436.016 408.937 441.371C408.304 441.935 408.194 442.176 407.681 442.902C394.444 464.561 381.975 502.918 373.66 527.407C373.291 528.525 372.938 529.65 372.547 530.762C369.453 539.76 365.977 550.546 363.647 559.686C363.481 561.24 363.493 562.629 363.414 564.173C364.021 572.427 367.188 578.022 375.446 580.574C379.451 577.488 388.251 575.959 392.325 571.548C405.295 557.504 411.011 536.361 417.489 518.741C420.629 510.2 424.934 502.411 428.584 494.79C432.285 487.06 453.176 454.61 458.772 452.876C464.469 445.063 482.72 420.61 490.092 414.945L491.025 414.82C493.087 419.022 479.421 432.64 476.349 436.395C444.999 474.729 424.268 518.785 414.964 567.407C412.305 581.304 407.791 596.931 405.713 611.477C405.443 612.514 405.333 613.22 405.163 614.282L405.083 614.731C403.114 625.497 400.674 638.716 406.729 648.643C407.788 650.487 409.223 652.483 411.026 653.652C419.316 659.542 430.663 659.16 439.161 653.902C441.937 652.309 443.862 649.991 445.706 647.45C452.051 639.18 454.836 622.593 456.551 611.042C460.029 587.604 465.736 564.058 476.219 542.48C478.738 537.295 481.844 531.058 483.903 526.064C491.933 513.247 528.704 453.566 539.498 447.765L540.834 447.698L541.815 448.606C541.756 450.914 529.893 464.113 527.368 467.606C513.33 487.026 495.659 511.92 485.783 533.587C475.157 556.899 469.955 592.924 466.092 618.355C464.666 627.74 462.187 645.13 461.843 654.11C461.371 655.368 461.519 656.605 461.527 657.977C461.13 666.838 458.312 677.802 462.113 685.989C463.143 688.371 463.479 689.049 465.131 691.112C474.245 700.844 488.639 699.243 497.528 690.209C500.894 686.789 502.456 684.299 504.884 680.129C509.29 671.852 510.725 645.357 512.902 634.428C515.706 620.349 516.776 605.683 520.454 591.31C523.264 580.33 528.379 569.667 531.124 559.434L531.277 558.844C540.808 539.845 551.909 521.245 565.418 504.772C568.828 500.613 586.363 477.41 590.005 475.824C591.541 476.23 590.928 475.81 591.838 477.218C591.652 479.615 584.029 487.796 581.948 490.379C574.373 499.624 567.074 509.091 560.058 518.768C553.089 528.479 540.965 546.577 536.721 557.312C527.128 581.572 524.217 613.892 522.28 640.131C521.855 641.302 521.944 642.92 521.871 644.236L521.758 645.106C520.081 657.424 516.28 668.74 523.723 679.42C524.913 680.611 525.974 681.801 527.404 682.693C528.052 683.15 528.566 683.502 529.247 683.914C534.348 686.965 540.452 687.862 546.215 686.408C555.014 684.126 559.773 677.169 564.223 669.908C544.725 651.143 561.601 633.404 578.072 621.888C579.371 614.062 581.353 605.343 582.962 597.503C578.085 584.791 579.612 575.798 588.503 565.37C593.947 558.985 600.497 553.826 606.558 548.073C621.994 533.421 637.47 518.67 655.51 507.206C667.206 499.732 677.516 495.336 690.176 489.865C692.679 489.528 696.774 488.116 699.121 487.176C701.234 489.681 701.854 490.322 698.837 491.72C683.212 498.96 673.102 509.354 663.413 523.325C665.692 528.457 665.646 529.339 665.372 535.004C662.928 541.16 659.947 547.638 657.919 553.888C649.502 579.831 646.292 621.473 677.018 634.228C681.84 636.23 686.175 636.394 691.144 634.854C692.151 634.385 693.124 633.891 694.09 633.339C695.692 631.426 696.492 630.041 696.875 627.495C698.428 617.177 698.992 606.763 700.263 596.388C700.588 595.659 700.612 595.595 700.81 594.823C702.031 584.221 712.231 568.38 717.395 558.459C718.211 557.103 718.455 556 718.844 554.482C721.383 545.841 723.213 534.715 725.193 525.693C727.31 516.047 729.442 509.134 732.381 499.664C744.339 472.453 760.527 456.931 757.91 425.457C757 415.602 755.775 405.682 754.604 395.843C750.431 360.781 776.643 337.917 799.88 315.784L842.133 275.487C851.677 266.5 864.561 255.11 872.773 245.522L876.291 248.535L819.976 302.13C802.33 318.791 779.489 339.064 765.991 359.096C748.891 384.474 767.41 420.482 760.394 448.777C755.588 468.157 744.977 480.974 737.226 498.96C729.321 517.51 728.045 536.994 722.543 555.948C719.263 567.249 708.201 578.893 705.667 591.149C701.987 603.149 703.413 618.215 700.338 629.507C695.072 648.844 667.443 637.163 659.386 626C649.112 611.767 647.557 598.192 648.309 581.664C642.712 589.475 640.243 590.775 632.01 595.661C646.808 604.987 649.765 625.404 640.575 639.38C631.988 652.44 609.338 665.261 595.137 670.576C597.944 672.725 597.63 671.751 601.157 672.053C611.766 672.093 619.512 681.262 618.586 690.943C616.326 714.555 583.419 722.211 564.14 720.967C557.502 720.539 553.298 718.309 549.145 713.846C541.524 719.528 529.921 726.466 521.619 731.812C511.524 738.309 501.372 744.716 491.163 751.03C475.191 760.926 458.869 771.599 439.363 773.77C426.463 775.206 409.602 774.429 397.596 780.386C394.1 782.584 379.591 799.739 376.051 803.778L313.62 875.941C308.938 881.284 304.302 886.668 299.714 892.092C296.771 895.63 293.005 900.664 289.764 903.707C288.267 903.307 287.82 902.441 286.615 901.073C283.548 897.652 277.84 892.786 274.28 889.535C277.91 884.767 284.856 877.26 288.914 872.574C298.271 861.78 307.571 850.936 316.813 840.043L349.973 800.609C356.786 792.393 363.538 784.01 370.523 775.95C372.919 773.186 375.966 770.081 379.054 768.201C397.027 757.258 402.019 760.097 419.974 758.352C430.774 757.371 441.392 754.929 451.536 751.094C478.392 740.836 511.998 714.414 537.072 699.318C535.954 698.814 534.851 698.279 533.763 697.714C528.215 694.875 521.698 688.465 519.931 682.506L519.256 680.153C518.92 679.199 516.666 674.696 516.126 673.567C514.972 675.578 515.168 675.846 514.607 678.008C513.191 683.463 511.145 689.104 507.383 693.4C498.561 703.492 485.598 708.829 473.055 701.94C470.312 700.434 469.784 700.798 468.101 698.153C451.179 687.29 456.941 668.465 458.082 651.468C451.555 659.664 446.056 667.477 434.499 669.323C424.795 670.872 414.403 666.388 409.553 657.646C394.18 645.063 399.129 624.245 402.486 607.388L406.813 585.878C405.58 584.394 403.962 587.058 400.23 588.419C395.222 590.674 390.724 590.113 385.491 589.595C380.099 589.062 379.355 586.511 375.125 584.499C348.882 577.334 362.773 547.067 368.799 530.034C364.983 524.292 364.8 517.082 362.545 510.745C358.001 511.077 353.677 511.362 349.609 509.016L349.453 508.275C351.064 507.174 353.012 506.842 354.945 506.922L360.701 507.138C363.08 503.233 369.205 497.415 372.432 493.194C380.524 482.608 386.315 472.145 392.13 460.284C392.793 456.549 395.459 452.329 395.926 447.997C396.256 444.94 396.499 440.783 398.236 438.298C397.174 430.267 394.11 422.875 388.281 417.175C381.762 410.799 370.278 405.05 362.776 412.977C358.983 418.617 354.605 436.788 351.653 444.641L350.508 447.182C346.39 455.732 338.687 465.907 331.806 472.468C320.829 482.932 319.947 487.657 315.162 501.569C313.395 506.719 311.373 511.778 309.101 516.727C306.121 523.237 302.571 530.731 298.964 536.902C277.676 573.326 273.781 622.37 287.563 661.947C288.563 664.823 289.667 667.662 290.874 670.458C293.854 676.971 298.844 684.619 301.401 691.098C301.6 691.6 300.863 692.103 300.334 692.661L299.209 692.499C294.558 688.928 287.597 672.735 284.972 666.549C279.697 672.514 274.773 678.85 269.571 684.759C242.881 715.079 212.59 741.018 183.022 768.347C178.565 772.466 167.951 780.585 165.106 785.072C162.411 782.744 159.927 780.409 157.333 777.969C156.179 776.9 155.997 776.71 155.054 775.455C155.528 772.924 171.482 759.478 174.626 756.599C197.881 735.487 220.631 713.826 242.858 691.635C255.334 679.211 271.503 665.187 279.84 649.909C278.678 642.315 276.675 635.78 276.043 627.575C274.228 602.822 277.508 571.238 288.24 548.543C297.863 528.195 308.848 510.555 315.38 488.41C319.227 475.372 337.367 463.585 344.379 450.355C351.665 436.609 351.938 422.915 359.783 410.292C366.521 400.58 382.631 406.076 389.732 413.316C398.667 422.426 402.088 430.536 402.632 443.217C406.03 438.064 409.577 433.011 413.269 428.065C423.661 414.206 436.302 402.726 447.775 389.863C491.726 340.59 548.715 292.257 616.419 282.549Z"/><path fill="#D28862" d="M537.072 699.318C539.404 699.781 543.713 700.039 546.071 700.169C545.925 704.507 545.98 706.074 547.146 710.444C528.816 721.972 510.915 734.314 492.285 745.498C476.165 755.176 460.685 766.326 441.675 769.487C425.46 772.184 401.813 768.609 389.801 781.885C382.313 790.161 374.973 798.898 367.68 807.335L310.516 873.564C304.288 880.712 292.853 894.79 286.615 901.073C283.548 897.652 277.84 892.786 274.28 889.535C277.91 884.767 284.856 877.26 288.914 872.574C298.271 861.78 307.571 850.936 316.813 840.043L349.973 800.609C356.786 792.393 363.538 784.01 370.523 775.95C372.919 773.186 375.966 770.081 379.054 768.201C397.027 757.258 402.019 760.097 419.974 758.352C430.774 757.371 441.392 754.929 451.536 751.094C478.392 740.836 511.998 714.414 537.072 699.318Z"/><path fill="#D59272" d="M745.343 124.211C748.17 126.985 751.204 129.861 753.951 132.685C745.934 140.043 730.107 161.991 722.541 171.505C701.376 198.455 679.902 225.161 658.123 251.617C653.774 256.885 649.733 261.6 645.181 266.568C642.64 269.341 632.136 279.656 630.665 282.074C627.693 282.414 624.344 282.411 621.327 282.49C625.653 276.307 631.204 269.79 635.926 263.768C645.849 250.905 655.91 238.15 666.108 225.505L745.343 124.211Z"/><path fill="#F8C8AF" d="M157.333 777.969C168.518 767.345 180.48 756.864 191.848 746.356C210.194 729.356 228.238 712.033 245.969 694.393C258.803 681.548 270.704 670.579 281.462 655.792C282.448 659.3 283.796 663.066 284.972 666.549C279.697 672.514 274.773 678.85 269.571 684.759C242.881 715.079 212.59 741.018 183.022 768.347C178.565 772.466 167.951 780.585 165.106 785.072C162.411 782.744 159.927 780.409 157.333 777.969Z"/><path fill="#B46B47" d="M375.446 580.574C379.451 577.488 388.251 575.959 392.325 571.548C405.295 557.504 411.011 536.361 417.489 518.741C420.629 510.2 424.934 502.411 428.584 494.79C432.285 487.06 453.176 454.61 458.772 452.876C441.971 479.239 426.576 505.327 418.497 535.888C416.789 542.349 416.07 549.329 412.655 555.14C405.818 565.732 397.5 578.067 384.375 580.728C381.421 581.303 378.379 581.251 375.446 580.574Z"/><path fill="#B46B47" d="M458.84 633.138L459.811 635.266C458.992 640.846 458.803 646.502 458.082 651.468C451.555 659.664 446.056 667.477 434.499 669.323C424.795 670.872 414.403 666.388 409.553 657.646C425.028 665.31 439.932 662.557 450.397 648.358C454.004 643.463 455.827 638.247 458.84 633.138Z"/><path fill="#D28862" d="M392.13 460.284C393.212 460.754 393.161 460.761 393.382 461.903C387.203 476.654 382.662 489.609 377.22 504.366C371.629 505.948 366.506 506.916 360.701 507.138C363.08 503.233 369.205 497.415 372.432 493.194C380.524 482.608 386.315 472.145 392.13 460.284Z"/><path fill="#B46B47" d="M514.193 660.519C515.676 660.893 515.054 662.612 515.165 664.27C514.882 667.949 515.373 670.099 516.126 673.567C514.972 675.578 515.168 675.846 514.607 678.008C513.191 683.463 511.145 689.104 507.383 693.4C498.561 703.492 485.598 708.829 473.055 701.94C470.312 700.434 469.784 700.798 468.101 698.153C478.109 702.283 486.129 702.97 495.691 696.853C505.519 690.567 510.2 680.357 512.385 669.244L513.384 664.211C513.49 663.68 513.596 663.149 513.702 662.617L514.193 660.519Z"/><path fill="#B46B47" d="M375.125 584.499C391.977 585.326 399.564 580.025 409.361 566.633L411.735 563.346L410.875 566.675C409.407 572.231 408.454 581.065 406.813 585.878C405.58 584.394 403.962 587.058 400.23 588.419C395.222 590.674 390.724 590.113 385.491 589.595C380.099 589.062 379.355 586.511 375.125 584.499Z"/><path fill="#B46B47" d="M519.256 680.153C528.239 690.26 539.415 693.104 551.947 688.046C548.306 693.332 547.826 694.157 546.071 700.169C543.713 700.039 539.404 699.781 537.072 699.318C535.954 698.814 534.851 698.279 533.763 697.714C528.215 694.875 521.698 688.465 519.931 682.506L519.256 680.153Z"/><path fill="#D28862" d="M362.545 510.745C367.196 509.837 370.284 509.785 376.075 508.41C373.769 515.816 371.273 522.731 368.799 530.034C364.983 524.292 364.8 517.082 362.545 510.745Z"/><defs><linearGradient id="gradient_0" gradientUnits="userSpaceOnUse" x1="398.36661" y1="452.09082" x2="393.63065" y2="447.40646"><stop offset="0" stop-color="#E07956"/><stop offset="1" stop-color="#E99D6D"/></linearGradient></defs><path fill="url(#gradient_0)" d="M398.236 438.298C399.499 448.629 397.949 452.739 393.382 461.903C393.161 460.761 393.212 460.754 392.13 460.284C392.793 456.549 395.459 452.329 395.926 447.997C396.256 444.94 396.499 440.783 398.236 438.298Z"/><path fill="#F8C8AF" d="M585.422 673.739C588.603 672.516 591.846 671.461 595.137 670.576C597.944 672.725 597.63 671.751 601.157 672.053C597.858 672.685 588.819 673.528 585.422 673.739Z"/><path fill="#8D4F35" d="M516.287 653.008C515.964 656.075 515.591 661.555 515.165 664.27C515.054 662.612 515.676 660.893 514.193 660.519C514.586 658.113 515.539 655.359 516.287 653.008Z"/><path fill="#D28862" d="M458.84 633.138C459.17 632.51 459.603 631.333 460.244 630.942C460.649 631.561 459.963 634.512 459.811 635.266L458.84 633.138Z"/><path fill="#F8B58C" d="M627.071 598.958C637.154 597.878 641.967 614.273 641.686 622.301C641.742 629.539 637.239 639.369 631.434 644.077C615.351 657.123 596.374 670 574.9 669.513C573.762 669.252 572.632 668.959 571.511 668.633C561.591 665.665 557.629 654.547 561.307 645.421C566.906 631.708 581.766 624.951 592.997 616.882C604.294 608.767 614.851 604.856 627.071 598.958Z"/><path fill="#F8B58C" d="M595.117 662.514C592.142 663.691 590.728 664.541 587.499 665.533C575.485 669.222 567.635 652.041 574.392 643.425C578.136 638.651 583.154 637.701 588.771 637.094C595.502 640.086 588.438 643.851 591.942 651.512C594.398 656.879 599.88 658.285 595.517 662.153L595.117 662.514Z"/><path fill="#B46B47" d="M595.117 662.514C592.142 663.691 590.728 664.541 587.499 665.533C575.485 669.222 567.635 652.041 574.392 643.425C578.136 638.651 583.154 637.701 588.771 637.094C588.308 638.074 588.044 638.58 587.74 639.616C578.666 640.66 572.818 645.639 575.033 654.996C577.55 665.63 586.807 663.323 594.181 661.497C594.478 661.833 594.787 662.221 595.117 662.514Z"/><path fill="#9E5738" d="M588.771 637.094C595.502 640.086 588.438 643.851 591.942 651.512C594.398 656.879 599.88 658.285 595.517 662.153L595.117 662.514C594.787 662.221 594.478 661.833 594.181 661.497C588.712 654.551 585.275 651.264 587.364 641.437L587.74 639.616C588.044 638.58 588.308 638.074 588.771 637.094Z"/><path fill="#F8B58C" d="M631.48 538.658L635.001 538.318C644.515 537.396 651.73 543.487 652.507 552.75C652.948 558.013 649.06 572.862 646.29 577.171C638.781 589.97 617.435 600.585 603.745 604.623C596.743 603.099 588.226 600.584 585.339 592.938C578.805 575.633 598.635 560.135 610.166 550.395C615.355 546.012 625.371 540.982 631.48 538.658Z"/><path fill="#D28862" d="M631.48 538.658L635.001 538.318C644.515 537.396 651.73 543.487 652.507 552.75C652.948 558.013 649.06 572.862 646.29 577.171C645.066 570.555 648.771 564.61 647.346 557.505C645.388 547.738 637.93 544.901 631.855 539.026L631.48 538.658Z"/><path fill="#F8B58C" d="M606.206 567.635C610.223 566.96 610.699 567.216 610.505 572.25C610.15 581.457 623.06 584.408 618.236 590.853L617.954 591.052C597.076 606.08 586.308 572.843 606.206 567.635Z"/><path fill="#B46B47" d="M606.206 567.635C605.998 568.97 606.074 569.04 605.406 570.14C591.018 577.939 600.896 599.209 616.947 589.808C617.552 590.267 617.709 590.379 618.236 590.853L617.954 591.052C597.076 606.08 586.308 572.843 606.206 567.635Z"/><path fill="#9E5738" d="M606.206 567.635C610.223 566.96 610.699 567.216 610.505 572.25C610.15 581.457 623.06 584.408 618.236 590.853C617.709 590.379 617.552 590.267 616.947 589.808C610.366 584.049 606.955 578.968 605.406 570.14C606.074 569.04 605.998 568.97 606.206 567.635Z"/><path fill="#F8B58C" d="M597.949 676.693C623.954 672.536 623.807 715.87 567.363 717.1C550.925 716.565 545.324 704.259 554.15 691.63C560.81 682.101 586.898 678.202 597.949 676.693Z"/><path fill="#F8B58C" d="M577.606 713.43C575.231 715.122 568.378 715.683 565.736 714.021C559.811 710.294 559.693 701.643 563.217 696.202C565.955 691.972 569.759 690.711 574.495 690.046L576.038 689.815C577.069 691.356 577.401 691.871 576.943 693.736L576.422 695.737C575.47 699.514 576.271 704.844 578.48 707.994C580.819 711.331 581.573 710.459 577.606 713.43Z"/><path fill="#D28862" d="M577.606 713.43C575.231 715.122 568.378 715.683 565.736 714.021C559.811 710.294 559.693 701.643 563.217 696.202C565.955 691.972 569.759 690.711 574.495 690.046L576.038 689.815C577.069 691.356 577.401 691.871 576.943 693.736C574.886 694.15 574.329 694.73 572.376 694.097L572.438 693.304C565.489 692.939 560.802 706.671 566.635 711.375C569.71 713.855 573.133 712.593 576.842 712.292C577.097 712.671 577.351 713.051 577.606 713.43Z"/><path fill="#8D4F35" d="M576.038 689.815C577.069 691.356 577.401 691.871 576.943 693.736C574.886 694.15 574.329 694.73 572.376 694.097L572.438 693.304C573.933 691.977 574.342 690.918 576.038 689.815Z"/><path fill="#9E5738" d="M572.376 694.097C574.329 694.73 574.886 694.15 576.943 693.736L576.422 695.737C575.47 699.514 576.271 704.844 578.48 707.994C580.819 711.331 581.573 710.459 577.606 713.43C577.351 713.051 577.097 712.671 576.842 712.292L576.53 711.92C573.234 708.067 570.068 698.848 572.376 694.097Z"/><path fill="white" d="M651.21 514.925C651.941 515.336 651.97 515.318 652.48 515.982L656.406 521.042C665.191 532.513 661.122 534.932 655.433 547.636C652.038 541.559 651.36 539.488 645.397 535.892C637.112 533.223 634.209 533.384 626.111 536.397L623.537 537.375C631.564 529.721 642.123 521.34 651.21 514.925Z"/><path fill="#B46B47" d="M586.103 601.219C592.161 605.593 591.614 605.826 599.696 607.987C597.342 609.584 594.177 611.816 591.791 613.194C588.795 614.999 585.864 616.998 582.85 618.833C583.402 616.144 583.916 613.448 584.393 610.745L585.117 606.505C585.446 604.668 585.704 603.059 586.103 601.219Z"/><path fill="#B46B47" d="M568.193 671.805C575.177 673.988 579.857 673.296 586.945 673.702C583.233 674.918 579.279 675.948 575.456 676.762C571.164 677.937 566.718 679.2 562.502 680.614C564.945 677.295 566.164 675.443 568.193 671.805Z"/><path fill="#B46B47" d="M860.701 233.922C864.071 237.087 869.985 242.24 872.773 245.522C864.561 255.11 851.677 266.5 842.133 275.487L799.88 315.784C776.643 337.917 750.431 360.781 754.604 395.843C755.775 405.682 757 415.602 757.91 425.457C760.527 456.931 744.339 472.453 732.381 499.664C730.868 490.906 740.679 466.958 743.308 457.425C744.957 451.317 746.082 445.08 746.672 438.78C748.266 421.758 744.545 409.886 741.834 394.344C739.409 382.723 744.524 350.122 752.956 341.654C789.42 305.032 828.558 275.102 860.701 233.922Z"/><path fill="#D59272" d="M408.937 441.371C412.688 436.016 417.869 428.315 422.105 423.478C431.867 412.331 442.349 401.592 452.438 390.669C462.862 379.384 472.946 367.415 484.532 357.304C521.284 325.231 565.357 293.345 615.01 286.671C624.374 285.412 639.326 285.805 648.858 286.362C647.882 289.546 647.664 293.073 647.494 296.41C598.306 294.703 567.448 308.089 526.738 335.834C512.479 345.543 498.85 355.638 486.424 367.659C478.557 375.269 470.821 383.025 463.077 390.731C450.238 403.51 437.124 415.953 426.333 430.582C423.341 434.639 420.241 439.727 416.708 443.267C413.474 441.573 412.493 441.791 408.937 441.371Z"/><path fill="#D59272" d="M461.527 657.977C467.162 654.869 471.18 650.039 479.244 652.102C484.628 653.48 486.812 654.609 489.853 659.085C490.639 673.086 493.734 692.732 473.247 690.499C468.316 689.962 466.187 687.773 462.113 685.989C458.312 677.802 461.13 666.838 461.527 657.977Z"/><path fill="#B46B47" d="M578.072 621.888C578.161 610.355 573.542 596.014 574.329 586.401C576.719 571.093 590.632 556.316 600.953 545.573C623.091 522.528 647.38 498.819 679.611 491.786C683.042 491.037 686.748 489.566 690.176 489.865C677.516 495.336 667.206 499.732 655.51 507.206C637.47 518.67 621.994 533.421 606.558 548.073C600.497 553.826 593.947 558.985 588.503 565.37C579.612 575.798 578.085 584.791 582.962 597.503C581.353 605.343 579.371 614.062 578.072 621.888Z"/><path fill="#D59272" d="M405.163 614.282C426.847 609.087 427.095 620.922 426.582 637.815C426.174 651.237 416.933 651.057 406.729 648.643C400.674 638.716 403.114 625.497 405.083 614.731L405.163 614.282Z"/><path fill="#D59272" d="M372.547 530.762C383.519 531.247 393.122 535.552 390.49 548.247C388.893 555.95 388.407 562.101 383.83 568.823C377.824 568.722 365.374 566.584 363.647 559.686C365.977 550.546 369.453 539.76 372.547 530.762Z"/><path fill="#D59272" d="M521.871 644.236C529.617 642.882 536.553 640.983 538.072 651.995C538.804 657.301 539.732 669.442 537.819 674.309C536.375 677.984 527.498 679.611 523.723 679.42C516.28 668.74 520.081 657.424 521.758 645.106L521.871 644.236Z"/><path fill="#B46B47" d="M699.121 487.176C700.187 486.743 703.136 485.734 704.188 486.606C708.568 490.237 702.453 493.664 699.816 495.577C689.292 503.213 685.658 510.272 684.389 523.19C675.504 524.602 671.68 529.038 665.372 535.004C665.646 529.339 665.692 528.457 663.413 523.325C673.102 509.354 683.212 498.96 698.837 491.72C701.854 490.322 701.234 489.681 699.121 487.176Z"/><path fill="#B46B47" d="M446.719 641.427C451.093 627.355 451.524 610.01 455.203 595.036C460.21 574.654 465.736 552.483 477.413 534.78C479.527 531.576 480.627 528.175 483.903 526.064C481.844 531.058 478.738 537.295 476.219 542.48C465.736 564.058 460.029 587.604 456.551 611.042C454.836 622.593 452.051 639.18 445.706 647.45C443.862 649.991 441.937 652.309 439.161 653.902C439.744 651.103 444.702 645.355 446.719 641.427Z"/><path fill="#B46B47" d="M504.884 680.129C503.991 673.444 508.737 637.727 509.673 629.417C511.472 613.438 519.937 569.493 531.277 558.844L531.124 559.434C528.379 569.667 523.264 580.33 520.454 591.31C516.776 605.683 515.706 620.349 512.902 634.428C510.725 645.357 509.29 671.852 504.884 680.129Z"/><path fill="#D59272" d="M694.09 633.339C692.639 631.978 691.872 631.575 690.313 630.461C682.549 624.843 682.884 611.649 688.26 604.515C690.224 601.908 696.807 595.152 700.263 596.388C698.992 606.763 698.428 617.177 696.875 627.495C696.492 630.041 695.692 631.426 694.09 633.339Z"/><path fill="#B46B47" d="M461.843 654.11C462.066 654.194 462.5 654.45 462.745 654.196C468.864 647.844 481.192 647.897 487.892 653.11C493.095 657.158 492.181 663.707 492.186 669.487C492.633 684.68 490.044 693.711 472.751 692.342C469.198 692.054 468.534 689.982 465.131 691.112C463.479 689.049 463.143 688.371 462.113 685.989C466.187 687.773 468.316 689.962 473.247 690.499C493.734 692.732 490.639 673.086 489.853 659.085C486.812 654.609 484.628 653.48 479.244 652.102C471.18 650.039 467.162 654.869 461.527 657.977C461.519 656.605 461.371 655.368 461.843 654.11Z"/><path fill="#B46B47" d="M373.66 527.407C393.838 529.474 394.969 540.298 391.404 557.745C388.611 571.42 382.421 573.874 369.435 568.133C366.987 567.051 365.605 565.591 363.414 564.173C363.493 562.629 363.481 561.24 363.647 559.686C365.374 566.584 377.824 568.722 383.83 568.823C388.407 562.101 388.893 555.95 390.49 548.247C393.122 535.552 383.519 531.247 372.547 530.762C372.938 529.65 373.291 528.525 373.66 527.407Z"/><path fill="#B46B47" d="M405.163 614.282C405.333 613.22 405.443 612.514 405.713 611.477C408.413 612.453 414.756 608.81 421.363 612.782C430.683 618.385 428.572 625.397 428.99 634.955C429.316 643.837 426.605 651.692 416.669 652.744C414.421 652.947 412.449 651.801 411.026 653.652C409.223 652.483 407.788 650.487 406.729 648.643C416.933 651.057 426.174 651.237 426.582 637.815C427.095 620.922 426.847 609.087 405.163 614.282Z"/><path fill="#B46B47" d="M521.871 644.236C521.944 642.92 521.855 641.302 522.28 640.131C522.261 640.083 522.693 641.293 522.886 641.247C533.297 638.786 540.568 643.325 540.845 654.502C541.001 660.791 541.42 666.685 540.478 673.53C534.729 681.603 529.774 679.929 527.404 682.693C525.974 681.801 524.913 680.611 523.723 679.42C527.498 679.611 536.375 677.984 537.819 674.309C539.732 669.442 538.804 657.301 538.072 651.995C536.553 640.983 529.617 642.882 521.871 644.236Z"/><path fill="#B46B47" d="M691.144 634.854C689.329 632.889 687.369 631.743 685.293 629.377C675.715 618.462 685.643 593.184 700.81 594.823C700.612 595.595 700.588 595.659 700.263 596.388C696.807 595.152 690.224 601.908 688.26 604.515C682.884 611.649 682.549 624.843 690.313 630.461C691.872 631.575 692.639 631.978 694.09 633.339C693.124 633.891 692.151 634.385 691.144 634.854Z"/><path fill="#9E5738" d="M717.395 558.459C714.897 557.506 709.33 559.085 706.497 559.514L703.745 559.958C703.275 560.034 699.807 560.938 699.509 559.843C698.287 555.352 705.804 555.948 708.752 555.026C710.878 554.362 716.341 554.481 718.844 554.482C718.455 556 718.211 557.103 717.395 558.459Z"/><path fill="#B46B47" d="M407.681 442.902C408.194 442.176 408.304 441.935 408.937 441.371C412.493 441.791 413.474 441.573 416.708 443.267C417.94 444.438 419.046 444.829 420.541 446.269C417.042 445.729 417.365 445.015 413.959 445.884C411.12 443.99 411.005 443.976 407.681 442.902Z"/><path fill="#9E5738" d="M413.959 445.884C417.365 445.015 417.042 445.729 420.541 446.269C421.509 446.887 423.549 448.216 423.251 449.491C421.223 451.333 415.481 447.181 413.959 445.884Z"/><path fill="#9E5738" d="M540.075 562.844C545.141 563.163 548.356 565.778 553.227 566.649C556.856 567.299 557.05 566.72 557.557 570.516C553.297 570.669 540.297 568.92 540.134 563.556L540.075 562.844Z"/><path fill="#9E5738" d="M541.082 557.39C544.63 557.42 561.172 558.487 555.382 565.398C551.337 561.734 553.438 562.711 546.748 561.543C543.283 560.939 538.915 562.428 540.749 558.192L541.082 557.39Z"/><path fill="#9E5738" d="M430.525 525.047C436.274 524.97 446.472 525.432 447.58 532.689C446.227 532.473 443.493 531.643 442.501 530.827C438.023 527.146 430.501 531.364 430.525 525.047Z"/><path fill="#9E5738" d="M431.549 531.063C433.174 531.004 437.624 531.301 438.713 532.144C442.415 535.012 448.046 532.163 448.652 536.608L448.78 537.417C444.411 537.623 432.219 536.411 431.549 531.063Z"/><path fill="#9E5738" d="M489.132 540.729C493.642 542.264 495.728 545.956 500.793 546.276C502.879 546.407 502.68 547.809 502.076 549.332L501.803 550.067C497.434 550.029 487.241 547.054 488.952 541.36L489.132 540.729Z"/><path fill="#9E5738" d="M489.465 536.401C494.035 536.594 498.923 537.667 502.356 541.302C502.865 541.841 502.336 544.26 502.202 544.87C498.97 543.415 496.211 541.347 492.747 540.571C489.98 539.952 488.254 540.223 489.266 537.059L489.465 536.401Z"/><path fill="#9E5738" d="M707.883 560.161C715.503 558.934 710.665 563.851 707.005 564.492C705.883 564.688 704.772 564.843 703.641 565.051C698.431 565.411 698.093 562.034 702.759 561.043C704.598 560.652 706.044 560.43 707.883 560.161Z"/><path fill="#B46B47" d="M410.032 447.03C410.888 447.005 414.103 446.765 414.607 447.542C416.627 450.651 421.453 449.968 421.559 453.891C417.263 455.077 411.152 451.65 410.252 447.878L410.032 447.03Z"/></svg>