<svg xmlns="http://www.w3.org/2000/svg" height="1024" preserveAspectRatio="none" style="display: block;" version="1.1" viewBox="0 0 2048 2048" width="1024">
<path d="M 0 0 L 797.052 0 L 800.903 0 L 1329 0 L 1332.52 0 L 2048 0 L 2048 2048 L 0 2048 L 0 0 z" fill="rgb(255,255,255)" transform="translate(0,0)"></path>
<path d="M 797.052 0 L 800.903 0 L 1329 0 L 1332.52 0 C 1317.1 118.028 1302.54 236.167 1288.85 354.408 L 1280.84 427.171 C 1279.16 441.27 1275.84 462.79 1275.53 476.453 C 1440.56 564.236 1566.29 748.361 1621.23 923.958 C 1654.7 1030.95 1663.84 1116.9 1636.21 1226.39 C 1624.47 1272.89 1609.68 1314.01 1587.51 1357 C 1570.78 1389.46 1552.38 1413.45 1532.06 1443.02 L 1635.06 1442.88 C 1658.98 1442.87 1683.59 1441.38 1707.13 1445.76 C 1767.55 1457.02 1793.54 1504.53 1826.7 1549.92 L 1903.36 1653.94 C 1922.97 1680.78 1947.52 1709.8 1964.14 1738.52 C 1971 1750.36 1971.17 1768 1971.13 1781.37 L 1971.13 1831.71 C 1971.28 1867.41 1972.67 1891.46 1945.43 1918.66 C 1910.62 1953.43 1862.83 1947.04 1818.39 1947.03 L 1693.74 1947.01 L 1286.93 1946.98 L 551.489 1947.04 L 302.841 1947.03 C 259.897 1947.03 216.837 1947.09 174.005 1946.9 C 147.526 1946.97 120.485 1935.49 101.985 1916.63 C 89.3921 1903.79 79.8831 1884.72 79.0612 1866.55 C 77.5812 1833.81 78.6885 1800.31 78.4834 1767.52 C 78.3143 1740.47 98.4337 1716.84 113.862 1696.23 L 154.753 1641.68 C 182.651 1603.04 210.94 1564.69 239.616 1526.63 C 251.839 1510.48 262.9 1492.92 277.471 1479.09 C 294.325 1463.09 320.048 1449.87 342.916 1445.55 C 367.742 1440.86 400.012 1443.35 425.887 1442.95 C 478.128 1442.14 533.111 1444.39 585.131 1442.57 C 557.868 1366.7 547.754 1314.37 549.778 1233.27 C 523.362 1239.99 481.161 1243.51 470.751 1209.86 C 467.068 1197.96 470.013 1163.55 470.543 1150.09 C 480.551 896.34 587.59 588.112 827.336 465.459 C 826.663 455.523 826.392 446.72 826.228 436.813 C 825.878 429.231 825.761 420.611 825.854 412.977 C 826.556 355.659 820.442 299.539 815.632 242.447 C 808.608 161.697 802.415 80.8771 797.052 0 z" fill="rgb(2,1,1)" transform="translate(0,0)"></path>
<path d="M 800.903 0 L 1329 0 C 1309.32 150.303 1291.23 300.81 1274.73 451.495 C 1257.14 448.154 1184.29 431.784 1170.19 435.82 C 1171.61 438.528 1175.88 439.656 1178.96 440.633 C 1215.22 451.818 1250.23 466.669 1283.47 484.958 C 1399.62 550.138 1496.47 664.577 1557.8 781.584 C 1586.25 835.434 1608.96 892.131 1625.55 950.737 C 1656.31 1061.34 1658.32 1147.4 1623.58 1258.18 C 1612.45 1294.34 1597.93 1329.37 1580.22 1362.8 C 1563.79 1350.25 1556.54 1346.61 1535.41 1346.82 C 1597.56 1220.99 1607.43 1086.88 1562.47 953.628 C 1555.97 934.358 1540.9 893.711 1528.49 879.24 L 1527.38 879.137 C 1527.95 885.683 1538.88 912.695 1541.87 922.02 C 1549.87 946.42 1556.36 971.292 1561.28 996.494 C 1592.17 1154.53 1552.91 1302.85 1467.2 1437.13 C 1457.78 1429.92 1449.85 1426.3 1438.15 1424.1 C 1402.82 1417.47 1378.64 1444.06 1359.62 1469.75 C 1347.65 1485.91 1340.74 1507.16 1344.08 1527.48 C 1346.44 1541.04 1352.71 1550.61 1362.57 1560.08 C 1330.67 1552.69 1314.33 1537.13 1306.52 1505.05 C 1323.98 1487.17 1332.64 1464.29 1346.51 1445.07 C 1418.01 1346.02 1462.99 1230.17 1460.01 1106.78 C 1458.77 1055.01 1449.34 1005.34 1434.04 955.65 C 1431.47 946.956 1426.79 927.836 1422.01 920.588 L 1420.9 920.744 C 1421.08 928.381 1427.69 948.332 1429.99 957.836 C 1436.03 982.788 1440.79 1006.61 1443.87 1032.13 C 1459.32 1160.23 1414.64 1326.03 1341.45 1431.94 C 1309.73 1399.6 1274.89 1395.32 1240.11 1428.69 C 1221.94 1446.13 1204.54 1464.31 1204.27 1491.16 C 1204.04 1506.49 1210.08 1521.25 1220.97 1532.03 C 1222.81 1533.87 1225.08 1535.84 1227.05 1537.56 C 1185.97 1526.48 1164.29 1494.77 1176.08 1452.88 C 1181.74 1432.76 1204.98 1409.89 1217.82 1392.12 C 1228.06 1377.93 1237.5 1363.18 1246.09 1347.94 C 1295.45 1260.54 1318.22 1160.63 1311.58 1060.48 C 1309.18 1019.4 1302.54 980.722 1288.23 942.018 C 1285.63 935.004 1282.59 926.188 1278.41 920 C 1276.07 924.679 1284.08 947.279 1285.67 954.117 C 1294.58 993.588 1299.01 1033.94 1298.88 1074.4 C 1297.79 1171.56 1263.24 1286.85 1209.01 1367.66 C 1180.02 1335.3 1144.27 1329.36 1111 1360.89 C 1076.19 1393.87 1055.15 1426.4 1082.24 1472.23 C 1060.76 1459.5 1048.47 1444.16 1042.11 1420.22 C 1034.49 1391.59 1041.35 1349.59 1058.36 1325.64 C 1126.75 1229.36 1163.59 1116.25 1136.03 998.192 C 1120.11 930.027 1081.46 861.817 1019.4 824.502 C 967.683 792.742 911.598 784.232 852.463 798.445 C 745.533 824.146 686.976 930.025 670.659 1031.55 C 667.549 1052.37 667.141 1073.69 661.059 1094.02 C 643.544 1152.56 601.367 1214.71 539.709 1232.14 C 515.094 1239.1 491.703 1233.45 474.752 1213.84 C 536.995 1216.39 548.325 1166.3 553.348 1115.38 C 554.945 1099.19 548.868 1080.54 537.722 1068.51 C 521.605 1051.8 504.426 1049.3 482.455 1048.18 C 486.299 1026.68 489.205 1005.02 493.611 983.63 C 525.613 828.263 591.824 670.794 705.844 557.589 C 724.23 539.334 743.235 521.98 764.51 507.175 C 785.703 492.39 807.925 479.139 831.007 467.522 C 869.857 450.446 898.758 439.391 940.752 430.556 C 952.152 428.158 993.242 423.228 998.326 420.021 L 996.886 419.015 L 996.953 420.657 L 995.813 418.804 C 961.377 413.785 903.425 420.124 868.706 426.803 C 856.448 429.161 843.166 433.783 830.923 435.754 L 829.407 434.324 C 828.852 408.695 830.315 380.775 828.605 355.468 C 820.625 237.338 806.248 118.231 800.903 0 z" fill="rgb(245,135,111)" transform="translate(0,0)"></path>
<path d="M 1529.67 1446.33 L 1629.59 1445.86 C 1660.98 1445.74 1688.9 1443.13 1719.51 1452.41 C 1765.47 1466.33 1784.16 1497.04 1810.92 1533.48 L 1868.7 1612.04 L 1922.39 1684.61 C 1935.41 1701.93 1949.25 1719.6 1960.56 1738.01 C 1966.99 1748.49 1968.61 1765.32 1967.31 1777.3 C 1968.23 1785.82 1968.04 1795.3 1968.08 1803.94 C 1968.2 1844.81 1975.35 1884.62 1943.58 1915.76 C 1909.64 1949.03 1868.73 1943.83 1825.3 1943.89 L 1714.6 1943.96 L 1353.09 1943.86 L 187.531 1943.88 C 152.612 1943.76 131.37 1939.73 103.913 1914.15 C 76.0787 1888.21 81.6643 1842.73 81.8268 1805.71 C 80.2782 1799.8 81.5378 1784.55 82.0032 1777.81 C 81.7305 1774.87 81.5898 1771.91 81.5817 1768.96 C 81.5299 1760.03 83.4136 1750.46 87.0131 1742.28 C 93.6816 1727.12 146.327 1655.61 158.826 1642.93 C 161.274 1638.55 167.213 1630.01 170.25 1625.78 C 177.743 1617 190.898 1597.85 198.227 1587.84 L 244.841 1525.03 C 254.12 1512.47 265.666 1495.74 276.368 1484.98 C 295.036 1466.47 318.636 1453.73 344.351 1448.28 C 362.611 1444.38 416.379 1445.86 437.639 1445.92 L 586.254 1445.85 C 600.881 1477.18 610.752 1497.41 628.801 1526.77 C 633.109 1532.31 640.253 1541.82 643.542 1548.02 C 661.484 1571.99 681.271 1597.81 702.925 1618.67 C 710.746 1625.26 722.583 1635.96 729.757 1643.42 C 775.692 1679.02 816.871 1703.81 878.583 1697.62 C 919.779 1693.49 935.462 1666.85 976.51 1666.92 C 1008.89 1666.97 1016.44 1676.97 1042.91 1688.72 C 1084.03 1706.99 1138.82 1697.75 1176.63 1675.35 C 1194.37 1664.84 1205.42 1656 1221.35 1643.16 C 1227.65 1636.18 1245.92 1620.43 1255.03 1618.77 C 1283.33 1598.33 1304.71 1574.4 1324.92 1546.31 C 1346.52 1563.01 1377.01 1573.15 1397.85 1549.34 L 1412.24 1528.02 C 1428.1 1504.24 1445.89 1476.24 1462.89 1453.76 C 1471.11 1471.27 1488.09 1478.88 1506.24 1470.16 C 1516.86 1465.06 1523.24 1455.76 1529.67 1446.33 z" fill="rgb(165,97,35)" transform="translate(0,0)"></path>
<path d="M 1968.08 1803.94 C 1968.2 1844.81 1975.35 1884.62 1943.58 1915.76 C 1909.64 1949.03 1868.73 1943.83 1825.3 1943.89 L 1714.6 1943.96 L 1353.09 1943.86 L 187.531 1943.88 C 152.612 1943.76 131.37 1939.73 103.913 1914.15 C 76.0787 1888.21 81.6643 1842.73 81.8268 1805.71 C 87.3379 1810.23 92.1539 1818.75 101.305 1825.34 C 116.604 1836.36 134.627 1842.91 153.537 1843.08 C 193.032 1843.45 232.95 1843.03 272.428 1843.01 L 513.205 1842.98 L 1255.02 1843 L 1706.85 1842.91 L 1834.63 1842.92 C 1889.86 1843.07 1930.37 1852.11 1968.08 1803.94 z" fill="rgb(165,97,35)" transform="translate(0,0)"></path>
<path d="M 170.25 1625.78 C 177.743 1617 190.898 1597.85 198.227 1587.84 L 244.841 1525.03 C 254.12 1512.47 265.666 1495.74 276.368 1484.98 C 295.036 1466.47 318.636 1453.73 344.351 1448.28 C 362.611 1444.38 416.379 1445.86 437.639 1445.92 L 586.254 1445.85 C 600.881 1477.18 610.752 1497.41 628.801 1526.77 C 633.109 1532.31 640.253 1541.82 643.542 1548.02 C 661.484 1571.99 681.271 1597.81 702.925 1618.67 C 691.476 1619.83 670.555 1619.48 658.365 1619.61 L 574.841 1620.62 L 305.522 1625.05 C 294.78 1625.15 173.887 1627.25 170.25 1625.78 z" fill="rgb(165,97,35)" transform="translate(0,0)"></path>
<path d="M 628.801 1526.77 C 633.109 1532.31 640.253 1541.82 643.542 1548.02 C 612.265 1547.72 336.674 1543.16 328.768 1538.13 C 331.276 1535.17 345.109 1536.47 349.423 1536.36 C 363.87 1535.95 378.315 1535.45 392.757 1534.87 C 448.341 1532.33 503.955 1530.48 559.585 1529.34 C 569.813 1529.13 623.059 1529.2 628.801 1526.77 z" fill="rgb(55,33,17)" transform="translate(0,0)"></path>
<path d="M 82.0032 1777.81 C 87.8094 1786.88 91.5077 1794.16 99.071 1802.19 C 125.551 1830.31 163.035 1825.83 198.498 1825.61 L 280.345 1825.31 L 604.76 1825.27 L 1557.23 1825.34 L 1786.06 1825.17 C 1821.51 1825.17 1857.09 1825.46 1892.46 1825.07 C 1917.99 1824.79 1943.33 1812.46 1958.57 1791.97 C 1962.28 1787 1964.15 1782.17 1967.31 1777.3 C 1968.23 1785.82 1968.04 1795.3 1968.08 1803.94 C 1930.37 1852.11 1889.86 1843.07 1834.63 1842.92 L 1706.85 1842.91 L 1255.02 1843 L 513.205 1842.98 L 272.428 1843.01 C 232.95 1843.03 193.032 1843.45 153.537 1843.08 C 134.627 1842.91 116.604 1836.36 101.305 1825.34 C 92.1539 1818.75 87.3379 1810.23 81.8268 1805.71 C 80.2782 1799.8 81.5378 1784.55 82.0032 1777.81 z" fill="rgb(123,70,29)" transform="translate(0,0)"></path>
<path d="M 702.925 1618.67 C 710.746 1625.26 722.583 1635.96 729.757 1643.42 C 707.268 1644.46 680.665 1643.44 657.81 1643.26 L 547.215 1643.04 L 158.826 1642.93 C 161.274 1638.55 167.213 1630.01 170.25 1625.78 C 173.887 1627.25 294.78 1625.15 305.522 1625.05 L 574.841 1620.62 L 658.365 1619.61 C 670.555 1619.48 691.476 1619.83 702.925 1618.67 z" fill="rgb(55,33,17)" transform="translate(0,0)"></path>
<path d="M 1221.35 1643.16 C 1227.65 1636.18 1245.92 1620.43 1255.03 1618.77 C 1292.94 1620.24 1671.85 1624.8 1680 1630.03 L 1679.59 1631.52 C 1674.14 1633.54 1607.47 1634.84 1596.64 1635.19 C 1471.58 1639.48 1346.47 1642.13 1221.35 1643.16 z" fill="rgb(55,33,17)" transform="translate(0,0)"></path>
<path d="M 1397.85 1549.34 L 1412.24 1528.02 C 1435.96 1529.78 1466.68 1529.07 1491.11 1529.71 C 1552.54 1530.88 1613.95 1532.84 1675.33 1535.59 C 1683.2 1535.94 1711.42 1535.75 1716.53 1538.5 C 1715.81 1538.28 1715.09 1538.07 1714.37 1537.85 L 1713.98 1539.35 C 1699.22 1540.7 1684.11 1540.22 1669.25 1541 C 1640.53 1542.51 1611.99 1543.63 1583.24 1544.4 L 1397.85 1549.34 z" fill="rgb(55,33,17)" transform="translate(0,0)"></path>
<path d="M 785.364 1714.5 C 853.702 1713.86 922.043 1713.73 990.383 1714.09 C 1146.52 1714.15 1302.64 1715.53 1458.75 1718.23 C 1542.77 1719.35 1626.77 1721.4 1710.74 1724.38 C 1733.17 1725.13 1755.6 1725.74 1778.04 1726.19 C 1788 1726.4 1806.42 1726.23 1815.8 1727.41 L 1816.11 1728.61 C 1814.63 1729.71 1814.02 1730.34 1812.1 1730.37 C 1796.31 1730.6 1780.07 1730.8 1764.33 1731.09 L 1659.8 1733.12 L 1264.25 1738.84 C 957.115 1741.41 649.96 1739.28 342.89 1732.45 C 329.313 1732.18 238.916 1732.08 232.808 1728.62 C 242.444 1725.53 283.037 1725.53 296.077 1725.18 L 364.424 1723 C 504.691 1718.21 645.018 1715.38 785.364 1714.5 z" fill="rgb(55,33,17)" transform="translate(0,0)"></path>
<path d="M 1092.71 937.413 C 1097.87 936.78 1105.73 937.076 1111.18 937.119 C 1116.3 945.946 1122.15 961.965 1125.23 971.832 C 1154.33 1064.85 1142.52 1167.37 1097.71 1253.42 C 1083.61 1280.5 1065.91 1304.89 1051.22 1330.92 C 1036.22 1357.49 1029.96 1397.76 1040.29 1426.84 C 1048.65 1450.4 1070.46 1480.14 1093.89 1491.45 C 1121.15 1504.15 1143.83 1502.63 1171.29 1493.6 C 1185.48 1527.31 1209.3 1540.58 1245.09 1544.25 C 1265.64 1546.35 1280.55 1545.99 1299.7 1538.14 C 1273.35 1577.43 1252.13 1609.82 1216.48 1641.95 C 1171.21 1682.74 1106.46 1710.43 1046.42 1686.98 C 1022.34 1675.08 997.87 1659.48 969.117 1663.87 C 921.02 1671.21 902.75 1700.92 848.142 1694.92 C 774.854 1686.87 718.862 1634.1 673.218 1581.13 C 588.823 1479.72 553.252 1372.31 552.737 1241.99 C 601.497 1242.75 633.451 1224.13 662.162 1184.04 C 679.501 1158.51 691.793 1131.59 694.036 1100.61 C 696.001 1073.48 696.84 984.164 722.629 970.59 C 788.863 935.728 847.188 937.968 916.648 956.884 C 922.432 978.249 924.992 1009.69 925.986 1031.67 C 893.227 1024.54 847.543 1015.14 814.191 1023.33 C 830.903 1026.36 843.443 1027.6 860.163 1032.58 C 880.632 1038.67 903.784 1048.48 924.408 1052.33 C 966.07 1060.12 1002.39 1034.71 1040.3 1021.58 C 1060.74 1014.5 1072.22 1012.5 1093.16 1008 C 1078.82 1005.85 1049.49 1007.47 1035.03 1009.12 C 1007.3 1012.29 998.045 1017.35 971.328 1008.88 L 969.414 968.974 C 995.116 967.732 1013.39 957.93 1037.49 950.025 C 1056.67 943.736 1072.53 939.286 1092.71 937.413 z" fill="rgb(228,3,18)" transform="translate(0,0)"></path>
<path d="M 887.886 796.594 C 913.605 793.732 946.891 797.452 971.358 805.744 C 1036.53 827.834 1079.67 872.958 1109.97 933.01 C 1082.45 934.497 1068.39 936.745 1041.42 945.239 C 1016.23 953.171 996.022 964.146 969.644 965.599 C 969.948 937.827 970.433 910.056 971.099 882.29 C 971.52 867.349 973.506 846.649 972.431 831.53 C 972.227 828.662 967.068 824.494 964.127 823.159 C 946.332 816.063 919.556 821.157 901.99 827.288 C 883.062 833.894 879.599 844.086 886.01 860.943 C 897.59 891.05 907.602 921.737 916.004 952.882 C 907.752 950.347 899.406 948.132 890.984 946.243 C 829.999 932.412 777.046 939.472 721.159 968.189 C 707.185 975.369 695.64 983.878 682.462 992.194 C 698.183 944.54 713.036 906.938 746.576 867.936 C 782.268 826.247 833.148 800.559 887.886 796.594 z" fill="rgb(255,255,255)" transform="translate(0,0)"></path>
<path d="M 1151.72 1344.37 C 1176.61 1343.01 1190.81 1352.51 1206.59 1370.35 C 1196.26 1389.31 1141.49 1472.06 1126.54 1482.49 C 1075.38 1498.16 1058.79 1421.29 1089.17 1389.98 C 1109.77 1368.75 1119.61 1348.65 1151.72 1344.37 z" fill="rgb(241,184,169)" transform="translate(0,0)"></path>
<path d="M 1286.33 1409.36 C 1287.79 1409.33 1289.24 1409.34 1290.7 1409.38 C 1313.04 1410.18 1324.82 1419.74 1339.23 1434.97 C 1328.03 1454.61 1277.33 1527.7 1260.57 1538.59 C 1217.23 1555.17 1192.08 1485.86 1220.55 1455.63 C 1242.13 1432.72 1252.65 1413.39 1286.33 1409.36 z" fill="rgb(241,184,169)" transform="translate(0,0)"></path>
<path d="M 968.932 843.924 C 970.118 857.296 966.96 880.897 967.234 895.391 C 967.742 922.238 965.829 950.312 966.148 977.093 C 966.417 999.72 969.423 1022.85 971.67 1045.38 C 956.445 1049.7 945.334 1050.11 929.671 1050.05 C 929.798 1037.53 929.531 1025 928.871 1012.5 C 923.089 953.913 909.543 912.222 887.911 856.849 C 913.488 866.139 948.38 862.752 968.932 843.924 z" fill="rgb(165,97,35)" transform="translate(0,0)"></path>
<path d="M 482.362 1052 C 556.196 1052.42 556.846 1109.83 540.827 1163.52 C 536.863 1176.81 533.283 1183.68 523.88 1193.76 C 514.489 1202.19 486.215 1217.55 474.935 1207.75 C 468.911 1192.96 480.121 1072.84 482.362 1052 z" fill="rgb(241,184,169)" transform="translate(0,0)"></path>
<path d="M 1425.07 1426.37 C 1441.2 1426.67 1452.29 1429.87 1465.02 1440.24 C 1446.12 1476.84 1414.61 1515.82 1391.69 1550.62 C 1390.48 1552.47 1386.43 1555.35 1384.48 1556.68 C 1361.27 1565.86 1348.58 1541.15 1346.74 1521.57 C 1344.59 1498.61 1356.72 1477.41 1371.37 1460.68 C 1387.17 1442.63 1399.81 1428.51 1425.07 1426.37 z" fill="rgb(241,184,169)" transform="translate(0,0)"></path>
<path d="M 1534.63 1350.15 C 1553.91 1350.18 1563.39 1353.58 1578.24 1365.69 C 1567.13 1388.31 1523.39 1455.18 1504.73 1467.28 C 1492.24 1472.72 1470.01 1468.72 1466.23 1453.25 C 1464.51 1446.19 1475.95 1437.4 1480.48 1432.2 C 1495.07 1415.45 1507.54 1396.53 1518.86 1377.41 C 1523.37 1369.84 1529.69 1356.57 1534.63 1350.15 z" fill="rgb(241,184,169)" transform="translate(0,0)"></path>
<path d="M 935.818 823.386 C 977.005 817.589 982.963 846.549 937.986 855.832 C 932.579 856.951 927.106 857.717 921.599 858.126 C 912.65 858.411 877.069 859.241 887.521 841.017 C 894.161 829.439 923.7 825.032 935.818 823.386 z" fill="rgb(123,70,29)" transform="translate(0,0)"></path>
<metadata><recraft-signature>{"signed_by": "recraft", "signature_b64": "GVHh7kYz52vTfu1IWuAWP6v5DDy5MwaX0helpjytsT2mBJ/r0Z0hgVKF9Ch2Di6l0G+U3t59nnFyGTFnojmFBA==", "signing_algo": "Ed25519", "generation_timestamp": 1779010877, "identifier": "8eb31d43-bc75-4882-b005-bac70b43a787"}</recraft-signature></metadata></svg>