<svg xmlns="http://www.w3.org/2000/svg" height="1024" preserveAspectRatio="none" style="display: block;" version="1.1" viewBox="0 0 2048 2048" width="1024">
<path d="M 0 0 L 2048 0 L 2048 2048 L 0 2048 L 0 0 z" fill="rgb(255,255,255)" transform="translate(0,0)"></path>
<path d="M 917.955 1171.59 C 934.044 1175.57 952.724 1180.46 968.745 1183.54 C 1015.28 1192.48 1084.75 1196.84 1131.05 1183.9 C 1130.94 1188.81 1131 1195.13 1130.52 1199.91 C 1149.68 1200.05 1168.84 1200.08 1187.99 1199.99 C 1203.94 1200.01 1222.38 1199.73 1237.93 1201.56 C 1278.95 1206.38 1323.55 1228.34 1352.2 1258.31 C 1378.49 1285.8 1404.17 1318.07 1427.23 1348.42 C 1435.3 1359.03 1447.44 1373.38 1454.32 1384.03 L 1465.38 1399.45 C 1467.55 1393.21 1471.22 1372.59 1472.96 1364.76 L 1489.22 1294.97 C 1496.63 1262.71 1499.94 1232.29 1543.33 1242.51 C 1559.05 1245.88 1581.24 1248.38 1597.8 1250.97 C 1631.87 1256.45 1665.99 1261.61 1700.15 1266.47 C 1743.96 1272.3 1729.85 1312.04 1723.25 1340.99 C 1718.21 1364.07 1712.45 1386.99 1706.01 1409.72 C 1682.51 1493.75 1644.77 1618.81 1571.96 1673.63 C 1542.76 1695.61 1506.61 1702.9 1470.77 1697.09 C 1438.83 1691.91 1413.69 1678.97 1387.15 1660.71 C 1385.23 1659.39 1374.64 1651.8 1373.77 1650.82 C 1364.62 1644.81 1354.07 1635.62 1346.32 1627.96 C 1345.64 1637.5 1363.5 1706.9 1366.87 1721.76 L 937.49 1722.07 L 777.232 1721.96 C 746.226 1721.95 711.364 1721.27 680.593 1722.61 C 685.24 1704.27 689.183 1685.49 693.41 1667.03 C 694.728 1661.28 703.249 1631.86 701.626 1628.22 C 692.383 1637.07 682.552 1645.29 672.201 1652.81 C 651.049 1673.21 611.481 1690.57 583.049 1696.18 C 494.936 1713.61 440.697 1650.83 404.38 1579.15 C 362.192 1495.87 339.854 1402.52 319.401 1311.8 C 313.823 1287.06 323.447 1269.23 349.975 1265.87 C 366.512 1264.39 389.185 1260.21 405.95 1257.62 C 439.282 1252.47 472.647 1247.55 506.043 1242.84 C 519.518 1240.92 529.755 1238.94 541.633 1247.4 C 553.506 1255.86 555.287 1270.64 558.325 1283.91 C 565.877 1316.91 572.37 1350.19 580.367 1383.09 C 581.56 1388 582.519 1393.15 584.118 1397.93 C 587.78 1393.75 592.313 1387.55 595.819 1383.03 C 603.972 1370.36 617.314 1354.48 626.893 1342.61 C 664.076 1296.52 694.847 1247.31 749.555 1220.48 C 797.247 1197.08 832.077 1199.86 882.647 1200.27 L 917.965 1200.11 C 917.903 1190.6 917.9 1181.09 917.955 1171.59 z" fill="rgb(254,165,4)" transform="translate(0,0)"></path>
<path d="M 917.955 1171.59 C 934.044 1175.57 952.724 1180.46 968.745 1183.54 C 1015.28 1192.48 1084.75 1196.84 1131.05 1183.9 C 1130.94 1188.81 1131 1195.13 1130.52 1199.91 C 1149.68 1200.05 1168.84 1200.08 1187.99 1199.99 C 1180.53 1346.99 1001.17 1414.2 902.62 1303.65 C 879.107 1277.28 861.086 1236.75 860.925 1201.11 C 867.337 1201.1 876.717 1201.38 882.885 1200.91 L 882.647 1200.27 L 917.965 1200.11 C 917.903 1190.6 917.9 1181.09 917.955 1171.59 z" fill="rgb(247,130,1)" transform="translate(0,0)"></path>
<path d="M 917.955 1171.59 C 934.044 1175.57 952.724 1180.46 968.745 1183.54 C 1015.28 1192.48 1084.75 1196.84 1131.05 1183.9 C 1130.94 1188.81 1131 1195.13 1130.52 1199.91 C 1123.22 1234.54 1113.7 1263.4 1082.24 1284.18 C 1059.16 1299.67 1030.81 1305.21 1003.6 1299.54 C 975.446 1293.88 950.833 1276.95 935.469 1252.7 C 925.02 1236.42 920.414 1219.66 917.793 1200.62 C 907.417 1200.68 892.932 1200.33 882.885 1200.91 L 882.647 1200.27 L 917.965 1200.11 C 917.903 1190.6 917.9 1181.09 917.955 1171.59 z" fill="rgb(176,130,119)" transform="translate(0,0)"></path>
<path d="M 1295.09 1409.19 C 1299.98 1401.78 1308.65 1392.71 1317.24 1398.93 C 1324.5 1404.18 1328.69 1432.92 1330.62 1441.93 C 1333.91 1457.26 1337.41 1472.55 1341.11 1487.78 L 1364.36 1588.26 C 1368.22 1605.43 1372.29 1622.84 1375.57 1640.13 C 1376.47 1644.85 1376.59 1646.91 1373.77 1650.82 C 1364.62 1644.81 1354.07 1635.62 1346.32 1627.96 C 1343.75 1623.56 1342.19 1617.53 1341.19 1612.54 C 1327.62 1544.96 1308.36 1476.63 1295.09 1409.19 z" fill="rgb(247,130,1)" transform="translate(0,0)"></path>
<path d="M 672.201 1652.81 C 669.21 1645.53 688.292 1571.49 691.534 1557.04 L 712.151 1467.63 C 716.573 1448.45 720.906 1428.94 725.888 1409.9 C 727.37 1404.24 728.456 1399.97 733.886 1397.27 C 736.294 1396.07 739.093 1395.94 741.6 1396.91 C 748.427 1399.54 750.799 1404.37 753.617 1410.45 L 723.741 1538.93 C 720.825 1551.83 705.835 1620.07 701.626 1628.22 C 692.383 1637.07 682.552 1645.29 672.201 1652.81 z" fill="rgb(247,130,1)" transform="translate(0,0)"></path>
<path d="M 1465.38 1399.45 C 1456.61 1440.14 1444.21 1480.84 1434.87 1521.39 C 1432.62 1531.14 1415.26 1529.87 1419.14 1514.44 C 1422.94 1499.37 1448.42 1388.46 1454.32 1384.03 L 1465.38 1399.45 z" fill="rgb(247,130,1)" transform="translate(0,0)"></path>
<path d="M 595.819 1383.03 C 599.282 1385.95 616.182 1459.24 619.84 1470.48 C 623.637 1482.15 628.589 1504.8 631.945 1517.37 C 633.027 1521.43 628.548 1526.4 623.99 1527.46 C 621.209 1527.09 619.504 1526.56 617.616 1524.33 C 612.985 1518.86 587.933 1413.12 584.118 1397.93 C 587.78 1393.75 592.313 1387.55 595.819 1383.03 z" fill="rgb(247,130,1)" transform="translate(0,0)"></path>
<path d="M 1023.8 447.206 C 1097.7 409.472 1192.42 435.202 1238.19 503.852 C 1273 512.953 1301.42 526.41 1327.04 552.393 C 1399.6 625.98 1405.97 739.096 1357.15 827.624 C 1389.68 843.99 1400.45 880.638 1383.99 912.601 C 1364.23 950.975 1328.19 967.435 1287.85 976.268 C 1264.63 1044.89 1216.96 1095.7 1152.68 1128.09 C 1146.42 1131.25 1137.5 1135.34 1131.07 1137.56 L 1131.05 1183.9 C 1084.75 1196.84 1015.28 1192.48 968.745 1183.54 C 952.724 1180.46 934.044 1175.57 917.955 1171.59 L 918.083 1135.22 C 915.706 1133.46 886.061 1120.52 879.061 1116.73 C 825.897 1087.96 777.744 1034.37 760.641 975.931 C 754.538 974.643 748.467 973.209 742.433 971.631 C 695.294 958.974 646.463 918.353 660.293 862.538 C 664.594 845.18 677.534 835.724 692.474 827.543 C 632.717 729.972 655.243 586.035 756.924 525.159 C 773.259 515.503 790.898 508.25 809.3 503.621 C 819.544 492.385 830.352 480.005 841.772 470.068 C 869.908 446.03 905.142 431.867 942.088 429.745 C 968.444 428.434 1000.81 433.703 1023.8 447.206 z" fill="rgb(176,130,119)" transform="translate(0,0)"></path>
<path d="M 1023.8 447.206 C 1097.7 409.472 1192.42 435.202 1238.19 503.852 C 1273 512.953 1301.42 526.41 1327.04 552.393 C 1399.6 625.98 1405.97 739.096 1357.15 827.624 C 1342.47 824.753 1331.6 824.463 1318.49 816.17 C 1301.4 805.349 1292.5 787.26 1288.33 768.016 C 1252.83 749.176 1228.78 733.523 1210.27 696.783 C 1192.54 712.586 1163.4 726.776 1139.97 730.626 C 1091.18 738.642 1060.53 722.951 1022.51 696.444 C 985.055 725.728 948.391 739.177 900.392 729.208 C 875.125 723.96 857.785 711.855 836.837 697.824 C 817.922 731.672 798.384 747.141 764.705 764.869 C 761.236 779.195 757.022 793.586 747.102 804.875 C 730.233 824.074 715.73 825.545 692.474 827.543 C 632.717 729.972 655.243 586.035 756.924 525.159 C 773.259 515.503 790.898 508.25 809.3 503.621 C 819.544 492.385 830.352 480.005 841.772 470.068 C 869.908 446.03 905.142 431.867 942.088 429.745 C 968.444 428.434 1000.81 433.703 1023.8 447.206 z" fill="rgb(83,62,59)" transform="translate(0,0)"></path>
<path d="M 918.083 1135.22 C 988.673 1156.32 1060.34 1166.02 1131.07 1137.56 L 1131.05 1183.9 C 1084.75 1196.84 1015.28 1192.48 968.745 1183.54 C 952.724 1180.46 934.044 1175.57 917.955 1171.59 L 918.083 1135.22 z" fill="rgb(83,62,59)" transform="translate(0,0)"></path>
<path d="M 1019.6 888.416 C 1082.17 882.24 1113.64 945.594 1031.69 956.976 C 953.487 958.535 941.973 894.598 1019.6 888.416 z" fill="rgb(238,192,174)" transform="translate(0,0)"></path>
<path d="M 1024.13 1005.45 C 1047.03 1005.97 1102.27 1011.57 1110.72 1042.95 C 1111.69 1049.55 1104.52 1053.93 1099.24 1050.62 C 1085.64 1042.08 1078.09 1033.74 1062.05 1029.77 C 1047.92 1026.28 1039.01 1025.06 1024.31 1024.89 C 1006.79 1024.68 981.936 1028.56 967.267 1038.97 C 962.063 1042.66 953.509 1050.6 948.026 1052.51 C 937.73 1050.35 935.708 1039.47 942.619 1032.8 C 964.465 1011.72 994.968 1006.69 1024.13 1005.45 z" fill="rgb(83,62,59)" transform="translate(0,0)"></path>
<path d="M 1137.35 830.133 C 1153.19 828.977 1163.83 832.166 1170.47 848.268 C 1174.21 857.337 1173.57 866.833 1169.46 875.711 C 1166.35 882.486 1160.58 887.673 1153.51 890.041 C 1152.52 890.369 1151.53 890.697 1150.54 891.025 C 1111.8 896.88 1100.6 842.685 1137.35 830.133 z" fill="rgb(32,30,30)" transform="translate(0,0)"></path>
<path d="M 899.501 830.207 C 939.214 827.438 946.487 882.123 908.044 891.918 C 872.038 893.255 860.443 842.519 899.501 830.207 z" fill="rgb(32,30,30)" transform="translate(0,0)"></path>
<path d="M 889.965 782.416 C 901.98 781.323 950.724 782.343 952.777 798.847 C 951.77 802.837 948.497 808.456 943.855 807.443 C 925.616 803.465 912.085 800.763 893.228 801.043 C 882.825 802.016 874.425 803.247 864.379 806.417 C 857.646 808.541 847.207 813.838 840.966 812.099 C 816.893 790.855 879.849 783.173 889.965 782.416 z" fill="rgb(83,62,59)" transform="translate(0,0)"></path>
<path d="M 1141.69 782.432 C 1160.91 781.162 1175.09 784.589 1193.5 789.029 C 1210.51 793.131 1221.87 808.637 1202.15 812.695 C 1202.49 812.626 1176.64 804.245 1171.91 803.296 C 1160.72 801.188 1149.3 800.553 1137.95 801.408 C 1130.46 802.039 1104.57 810.003 1099.98 807.069 C 1097.82 805.682 1096.46 802.97 1096.16 800.476 C 1095.85 797.891 1096.56 795.574 1098.18 793.577 C 1105.79 784.239 1130.66 783.099 1141.69 782.432 z" fill="rgb(83,62,59)" transform="translate(0,0)"></path>
<path d="M 700.737 858.01 C 714.255 857.904 721.575 864.333 730.426 874.246 C 737.821 883.073 743.177 893.51 745.411 904.849 C 747.63 916.12 750.093 916.248 742.477 924.091 C 735.548 923.439 732.991 921.76 732.137 914.501 C 730.415 899.875 722.209 883.4 708.52 876.569 C 706.34 874.71 698.746 873.255 697.283 871.352 C 692.857 865.592 697.789 860.564 700.737 858.01 z" fill="rgb(83,62,59)" transform="translate(0,0)"></path>
<path d="M 1340.19 859.113 C 1347.63 858.457 1354.53 856.789 1353.45 867.609 C 1353.2 869.893 1351.9 871.777 1349.64 872.427 C 1329.78 878.146 1317.58 895.517 1315.13 915.51 C 1314.74 918.634 1314.23 919.711 1312.99 922.778 C 1305.91 925.429 1298.96 923 1300.05 915.007 C 1303.56 889.252 1317.68 869.546 1340.19 859.113 z" fill="rgb(83,62,59)" transform="translate(0,0)"></path>
<path d="M 1503.15 1029.1 C 1501.4 1015.08 1503.92 989.733 1508.6 976.118 C 1522.41 935.952 1560.92 937.631 1580.13 972.44 C 1604.35 948.835 1633.67 952.22 1647.35 984.36 C 1672.21 961.098 1699.66 967.931 1714.48 997.692 C 1722.91 990.936 1731.55 987.835 1742.51 988.948 C 1752.91 990.044 1762.41 995.324 1768.83 1003.57 C 1776.54 1013.62 1777.59 1025.19 1774.96 1036.92 C 1773.34 1044.13 1769.03 1075.41 1767.23 1079.97 C 1765.36 1088.84 1763.53 1098.43 1761.19 1107.13 C 1756.98 1128.21 1753.62 1149.83 1747.35 1170.35 C 1740.69 1192.11 1724.79 1202.07 1710.46 1217.01 C 1706.21 1232.89 1703.85 1250.15 1700.15 1266.47 C 1665.99 1261.61 1631.87 1256.45 1597.8 1250.97 C 1581.24 1248.38 1559.05 1245.88 1543.33 1242.51 C 1546.15 1233.75 1547.73 1227.74 1549.69 1218.74 C 1543.44 1215.49 1537.23 1212.14 1531.08 1208.69 C 1498.18 1189.93 1470.1 1162.9 1459.53 1125.59 C 1450.37 1093.27 1463.51 1060.59 1498.49 1052.51 C 1499.95 1044.69 1501.51 1036.89 1503.15 1029.1 z" fill="rgb(176,130,119)" transform="translate(0,0)"></path>
<path d="M 1503.15 1029.1 C 1501.4 1015.08 1503.92 989.733 1508.6 976.118 C 1522.41 935.952 1560.92 937.631 1580.13 972.44 C 1604.35 948.835 1633.67 952.22 1647.35 984.36 C 1672.21 961.098 1699.66 967.931 1714.48 997.692 C 1722.91 990.936 1731.55 987.835 1742.51 988.948 C 1752.91 990.044 1762.41 995.324 1768.83 1003.57 C 1776.54 1013.62 1777.59 1025.19 1774.96 1036.92 C 1773.34 1044.13 1769.03 1075.41 1767.23 1079.97 C 1760.25 1083.27 1755.45 1089.25 1747.48 1091.68 C 1724.49 1098.69 1708.5 1083.48 1702.4 1062.44 C 1695.45 1070.36 1688.02 1076.4 1677.36 1078.58 C 1668.09 1080.49 1658.45 1078.49 1650.71 1073.06 C 1640.45 1065.89 1637.29 1057.8 1635.39 1046.29 C 1613.56 1074.99 1577.31 1067.09 1568.52 1033.71 C 1551.09 1053.85 1527.86 1057.43 1509.84 1035.99 C 1507.51 1033.21 1506.36 1030.75 1503.15 1029.1 z" fill="rgb(176,130,119)" transform="translate(0,0)"></path>
<path d="M 1503.15 1029.1 C 1506.36 1030.75 1507.51 1033.21 1509.84 1035.99 C 1527.86 1057.43 1551.09 1053.85 1568.52 1033.71 C 1577.31 1067.09 1613.56 1074.99 1635.39 1046.29 C 1637.29 1057.8 1640.45 1065.89 1650.71 1073.06 C 1658.45 1078.49 1668.09 1080.49 1677.36 1078.58 C 1688.02 1076.4 1695.45 1070.36 1702.4 1062.44 C 1708.5 1083.48 1724.49 1098.69 1747.48 1091.68 C 1755.45 1089.25 1760.25 1083.27 1767.23 1079.97 C 1765.36 1088.84 1763.53 1098.43 1761.19 1107.13 C 1735.03 1123.18 1713.99 1117.69 1695.33 1094.43 C 1668.88 1109.85 1658.62 1095.25 1635.5 1104.11 C 1610.43 1113.72 1625.92 1153.08 1588.65 1141.64 C 1576.22 1137.83 1544.37 1127.44 1533.59 1125.58 L 1537.18 1123.27 C 1551.07 1123.69 1563.78 1123.85 1574.68 1113.35 C 1580.89 1107.43 1584.45 1099.26 1584.57 1090.68 C 1584.66 1082.06 1581.19 1073.79 1574.98 1067.81 C 1571.37 1064.3 1567.03 1061.63 1562.27 1059.98 C 1551.76 1056.38 1510.4 1052.6 1498.49 1052.51 C 1499.95 1044.69 1501.51 1036.89 1503.15 1029.1 z" fill="rgb(83,62,59)" transform="translate(0,0)"></path>
<path d="M 1517.89 1121.74 C 1526.2 1121.13 1528.94 1122.39 1537.18 1123.27 L 1533.59 1125.58 C 1528.23 1124.12 1523.29 1123 1517.89 1121.74 z" fill="rgb(112,77,73)" transform="translate(0,0)"></path>
<path d="M 470.869 972.946 C 472.086 970.711 473.398 968.529 474.803 966.408 C 495.786 934.971 535.814 946.522 541.546 981.897 C 543.291 992.66 546.512 1003.61 547.159 1014.69 C 547.501 1020.54 545.504 1026.29 546.482 1031.93 C 547.748 1038.92 549.125 1045.89 550.61 1052.84 C 567.751 1060.4 580.645 1061.87 588.177 1082.09 C 610.748 1142.68 547.365 1197.31 500.375 1218.22 C 502.101 1226.46 503.991 1234.67 506.043 1242.84 C 472.647 1247.55 439.282 1252.47 405.95 1257.62 C 389.185 1260.21 366.512 1264.39 349.975 1265.87 C 346.555 1249.25 343.027 1232.66 339.39 1216.09 C 296.963 1184.64 297.363 1156.54 288.294 1106.29 L 282.536 1078.04 C 278.918 1066.32 275.138 1039.82 274.101 1027.35 C 271.219 992.672 313.268 975.259 337.917 999.988 C 350.295 969.807 381.258 959.676 404.331 984.956 C 407.862 977.376 410.42 972.294 416.862 966.75 C 424.135 960.45 433.627 957.325 443.22 958.074 C 454.916 958.984 463.39 964.419 470.869 972.946 z" fill="rgb(176,130,119)" transform="translate(0,0)"></path>
<path d="M 470.869 972.946 C 472.086 970.711 473.398 968.529 474.803 966.408 C 495.786 934.971 535.814 946.522 541.546 981.897 C 543.291 992.66 546.512 1003.61 547.159 1014.69 C 547.501 1020.54 545.504 1026.29 546.482 1031.93 C 542.451 1033.06 540.822 1036.54 537.453 1039.35 C 517.42 1056.05 496.773 1053 480.971 1032.81 C 470.761 1067.76 440.658 1072.79 414.299 1050.06 C 406.191 1083.91 372.148 1088.18 348.734 1065.01 C 344.113 1076.68 338.974 1086.06 326.511 1091.23 C 317.768 1094.91 307.888 1094.8 299.233 1090.92 C 292.203 1087.79 287.857 1083.47 282.536 1078.04 C 278.918 1066.32 275.138 1039.82 274.101 1027.35 C 271.219 992.672 313.268 975.259 337.917 999.988 C 350.295 969.807 381.258 959.676 404.331 984.956 C 407.862 977.376 410.42 972.294 416.862 966.75 C 424.135 960.45 433.627 957.325 443.22 958.074 C 454.916 958.984 463.39 964.419 470.869 972.946 z" fill="rgb(176,130,119)" transform="translate(0,0)"></path>
<path d="M 480.971 1032.81 C 496.773 1053 517.42 1056.05 537.453 1039.35 C 540.822 1036.54 542.451 1033.06 546.482 1031.93 C 547.748 1038.92 549.125 1045.89 550.61 1052.84 C 537.433 1053.5 497.56 1055.54 486.757 1059.47 C 481.571 1061.35 476.956 1064.53 473.353 1068.71 C 467.475 1075.44 464.62 1084.28 465.455 1093.18 C 466.278 1102.05 470.693 1110.2 477.673 1115.73 C 489.761 1125.3 504.364 1123.65 518.725 1122.65 L 519.397 1124.6 C 499.039 1128.17 470.429 1140.68 449.795 1144.49 C 430.444 1146.16 432.638 1109.08 414.548 1104.17 C 387.523 1096.84 380.718 1107.28 353.188 1094.65 C 352.485 1095.65 351.771 1096.64 351.048 1097.63 C 334.953 1119.48 309.759 1122.26 288.294 1106.29 L 282.536 1078.04 C 287.857 1083.47 292.203 1087.79 299.233 1090.92 C 307.888 1094.8 317.768 1094.91 326.511 1091.23 C 338.974 1086.06 344.113 1076.68 348.734 1065.01 C 372.148 1088.18 406.191 1083.91 414.299 1050.06 C 440.658 1072.79 470.761 1067.76 480.971 1032.81 z" fill="rgb(83,62,59)" transform="translate(0,0)"></path>
<path d="M 518.725 1122.65 C 520.545 1121.95 525.497 1120.73 527.371 1121.22 C 528.3 1122.59 520.153 1124.38 519.397 1124.6 L 518.725 1122.65 z" fill="rgb(112,77,73)" transform="translate(0,0)"></path>
<path d="M 1023.03 174.446 C 1033.74 177.332 1030.49 184.916 1031.1 194.179 C 1033.88 236.214 1069.29 268.813 1110.99 270.431 C 1118.3 270.715 1121.9 270.795 1123.1 278.559 C 1122.41 280.235 1121.77 282.62 1119.56 282.668 C 1078.33 283.605 1041.33 307.61 1032.57 349.487 C 1030.4 359.871 1033.1 372.442 1024.69 378.648 C 1023.86 378.247 1018.97 375.577 1018.77 374.546 C 1016.6 363.003 1018.45 353.312 1014.55 341.734 C 1005.16 313.881 981.626 291.261 952.363 285.764 C 943.938 284.146 931.681 284.189 924.377 280.376 L 924.03 278.101 C 926.383 270.497 934.461 270.49 941.623 269.841 C 980.027 266.362 1013.65 237.046 1016.66 197.654 C 1017.31 189.2 1016.89 180.46 1023.03 174.446 z" fill="rgb(254,165,4)" transform="translate(0,0)"></path>
<metadata><recraft-signature>{"signed_by": "recraft", "signature_b64": "ur1oouG39dhPXkPmKLRjFE0NbTsbwWZSRxavmNdDj51M/TaoR6Nkxau20UV98P04xDfgEyH+bsBbak1N91HzDA==", "signing_algo": "Ed25519", "generation_timestamp": 1779010896, "identifier": "d0d80002-2a4b-4928-b4f8-affb50ff3aa0"}</recraft-signature></metadata></svg>