<svg xmlns="http://www.w3.org/2000/svg" height="1024" preserveAspectRatio="none" style="display: block;" version="1.1" viewBox="0 0 2048 2048" width="1024">
<path d="M 0 0 L 2048 0 L 2048 2048 L 0 2048 L 0 0 z" fill="rgb(255,255,255)" transform="translate(0,0)"></path>
<path d="M 543.688 674.768 C 553.837 544.877 615.598 424.465 715.17 340.441 C 813.204 257.505 940.369 217.284 1068.27 228.76 C 1195.75 240.746 1313.3 302.75 1395.18 401.201 C 1459.74 478.487 1498.37 574.115 1505.61 674.56 C 1535.99 669.164 1558.26 670.553 1584.32 688.427 C 1645.6 730.47 1632.66 809.421 1592.1 861.408 C 1555.76 907.99 1522.46 939.702 1461.68 919.199 C 1451.98 941.946 1441.62 964.682 1429.13 986.056 C 1389.08 1053.36 1332.8 1109.55 1265.43 1149.48 C 1246.19 1160.71 1225.7 1170.38 1205.2 1178.95 C 1202.36 1180.14 1193.43 1183.43 1191.44 1185.13 C 1186.27 1201.59 1181.72 1211.07 1171.22 1224.91 C 1163.3 1233.98 1155.59 1242.79 1146.1 1250.29 C 1067.71 1312.31 940.823 1303.33 877.778 1224.85 C 867.186 1210.24 863.761 1201.76 857.367 1185.31 C 739.456 1140.17 644.6 1049.58 594.077 933.874 C 591.813 928.773 589.669 923.62 587.648 918.418 C 567.742 927.064 544.944 930.341 524.745 920.827 C 486.235 902.687 451.233 859.274 434.417 821.513 C 409.902 766.463 426.52 702.612 484.145 678.223 C 504.677 669.444 522.03 671.068 543.688 674.768 z" fill="rgb(200,112,52)" transform="translate(0,0)"></path>
<path d="M 857.367 1185.31 C 876.358 1191.61 894.78 1197.83 914.255 1202.51 C 972.884 1216.61 1033.91 1218.66 1093.59 1210.6 C 1127.13 1206.07 1159.56 1196.25 1191.44 1185.13 C 1186.27 1201.59 1181.72 1211.07 1171.22 1224.91 C 1163.3 1233.98 1155.59 1242.79 1146.1 1250.29 C 1067.71 1312.31 940.823 1303.33 877.778 1224.85 C 867.186 1210.24 863.761 1201.76 857.367 1185.31 z" fill="rgb(87,43,15)" transform="translate(0,0)"></path>
<path d="M 1088.74 772.158 C 1082.38 745.844 1090.7 715.502 1104.53 692.832 C 1124.68 660.426 1156.79 637.266 1193.89 628.37 C 1227.59 620.646 1262.97 626.522 1292.36 644.721 C 1323.86 664.3 1349.76 698.541 1357.79 735.02 C 1359.68 743.644 1363.6 766.56 1358.34 774.046 C 1341.63 793.426 1324.28 808.642 1300.44 818.836 C 1253.53 838.895 1194.81 838.668 1147.53 820.006 C 1126.54 811.72 1097.9 793.929 1088.74 772.158 z" fill="rgb(255,255,255)" transform="translate(0,0)"></path>
<path d="M 1088.74 772.158 C 1082.38 745.844 1090.7 715.502 1104.53 692.832 C 1124.68 660.426 1156.79 637.266 1193.89 628.37 C 1227.59 620.646 1262.97 626.522 1292.36 644.721 C 1323.86 664.3 1349.76 698.541 1357.79 735.02 C 1359.68 743.644 1363.6 766.56 1358.34 774.046 C 1338.63 720.285 1311.62 673.025 1252.31 658.31 C 1173.99 638.88 1106.95 700.415 1088.74 772.158 z" fill="rgb(87,43,15)" transform="translate(0,0)"></path>
<path d="M 1216.18 679.986 C 1252.68 675.787 1285.72 701.812 1290.2 738.273 C 1294.67 774.733 1268.89 807.975 1232.47 812.721 C 1195.65 817.518 1161.98 791.406 1157.46 754.557 C 1152.94 717.707 1179.3 684.23 1216.18 679.986 z" fill="rgb(87,43,15)" transform="translate(0,0)"></path>
<path d="M 691.118 773.797 C 681.8 754.653 693.561 718.373 703.323 700.319 C 764.032 588.05 923.146 606.402 958.239 728.387 C 961.279 738.953 965.887 760.123 960.231 770.268 C 957.278 784.475 939.053 798.019 927.671 805.63 C 886.015 833.482 833.867 840.141 785.388 829.862 C 752.44 822.875 709.28 804.239 691.118 773.797 z" fill="rgb(255,255,255)" transform="translate(0,0)"></path>
<path d="M 691.118 773.797 C 681.8 754.653 693.561 718.373 703.323 700.319 C 764.032 588.05 923.146 606.402 958.239 728.387 C 961.279 738.953 965.887 760.123 960.231 770.268 C 947.565 729.119 920.285 688.971 881.44 668.677 C 852.859 653.616 819.404 650.748 788.676 660.724 C 748.823 673.432 724.68 700.264 706.147 736.521 C 700.138 748.52 695.112 760.986 691.118 773.797 z" fill="rgb(87,43,15)" transform="translate(0,0)"></path>
<path d="M 825.633 679.587 C 862.416 678.173 893.432 706.736 895.048 743.51 C 896.663 780.284 868.271 811.457 831.506 813.274 C 794.455 815.106 762.986 786.444 761.358 749.383 C 759.73 712.322 788.564 681.011 825.633 679.587 z" fill="rgb(87,43,15)" transform="translate(0,0)"></path>
<path d="M 1110.82 874.195 C 1124.38 856.18 1134.74 873.188 1133.65 889.329 C 1130.57 945.746 1060.2 961.783 1014.58 958.635 C 986.106 956.671 950.283 946.965 930.947 924.517 C 911.28 901.683 907.565 872.124 933.312 851.97 C 944.041 843.573 989.741 818.275 983.404 850.27 L 983.133 851.59 C 1016.33 838.552 1085.01 847.404 1110.82 874.195 z" fill="rgb(219,153,140)" transform="translate(0,0)"></path>
<path d="M 1110.82 874.195 C 1124.38 856.18 1134.74 873.188 1133.65 889.329 C 1130.57 945.746 1060.2 961.783 1014.58 958.635 C 986.106 956.671 950.283 946.965 930.947 924.517 C 911.28 901.683 907.565 872.124 933.312 851.97 C 944.041 843.573 989.741 818.275 983.404 850.27 L 983.133 851.59 C 978.817 856.029 972.966 857.898 967.084 859.54 C 955.986 862.637 937.164 871.23 937.98 885.385 C 940.406 927.503 996.147 938.128 1029.63 937.116 C 1054.72 936.248 1083.55 929.546 1101.99 911.834 C 1112.46 901.402 1111.58 892.12 1111.02 878.75 L 1110.82 874.195 z" fill="rgb(138,65,40)" transform="translate(0,0)"></path>
<path d="M 1208.06 502.354 C 1267.23 495.848 1318.74 540.904 1330.98 597.256 C 1294.96 575.999 1278.82 556.28 1233.77 547.802 C 1185.94 541.193 1146.07 571.253 1109.47 597.126 C 1113.04 577.041 1118.25 563.545 1130.88 546.972 C 1149.7 522.479 1177.45 506.436 1208.06 502.354 z" fill="rgb(87,43,15)" transform="translate(0,0)"></path>
<path d="M 824.729 502.416 C 879.425 495.921 931.07 544.483 941.008 596.563 C 906.804 576.062 882.978 549.795 837.337 546.744 C 799.597 544.957 766.339 563.699 737.141 585.578 C 731.977 589.448 726.751 593.401 721.232 596.745 L 720.272 597.316 C 726.551 545.049 773.868 507.26 824.729 502.416 z" fill="rgb(87,43,15)" transform="translate(0,0)"></path>
<path d="M 909.46 1019.67 C 917.211 1020.46 923.528 1029.08 931.736 1033.61 C 989.363 1065.44 1041.54 1068.92 1101.82 1042.56 C 1111.52 1039.95 1129.7 1021.84 1138.41 1020.93 C 1153.82 1019.32 1153.17 1034.08 1143.36 1043 C 1076.22 1095.84 968.815 1094.56 903.123 1039.93 C 894.055 1032.38 902.374 1023.96 909.46 1019.67 z" fill="rgb(87,43,15)" transform="translate(0,0)"></path>
<path d="M 1533.52 725.174 C 1553.35 723.476 1567 729.822 1581.26 742.411 C 1606.36 764.572 1588.57 783.698 1564.19 757.833 C 1551.65 744.522 1533.08 745.011 1518.85 758.882 C 1547.56 777.176 1557.28 805.392 1531.69 831.984 C 1523.49 839.899 1511.55 847.675 1501.5 852.858 C 1493.79 856.84 1483.51 853.162 1483.55 844.962 C 1483.25 828.941 1515.93 822.746 1521.15 810.152 C 1532.07 783.844 1506.75 781.072 1489.37 774.75 C 1482.63 772.294 1482.58 762.075 1487.33 756.876 C 1499.79 743.212 1514.59 728.662 1533.52 725.174 z" fill="rgb(87,43,15)" transform="translate(0,0)"></path>
<path d="M 502.496 725.178 C 527.268 723.847 535.509 730.805 553.179 747.209 C 591.008 782.326 537.379 770.54 527.936 794.257 C 523.896 804.403 528.776 809.865 535.854 816.551 C 544.314 824.541 584.643 844.108 556.086 854.497 C 550.296 856.501 534.724 844.112 528.491 839.681 C 505.319 822.218 493.369 799.166 515.18 772.997 C 519.15 768.233 526.011 764.35 531.228 760.881 C 519.236 742.435 501.538 746.138 485.599 758.166 C 483.222 759.96 472.075 770.348 469.938 770.632 C 460.336 771.906 452.703 760.905 459.366 752.488 C 470.645 738.362 484.955 728.675 502.496 725.178 z" fill="rgb(87,43,15)" transform="translate(0,0)"></path>
<path d="M 877.778 1224.85 C 940.823 1303.33 1067.71 1312.31 1146.1 1250.29 C 1155.59 1242.79 1163.3 1233.98 1171.22 1224.91 C 1175.06 1226.51 1192.72 1227.5 1199.26 1228.42 C 1218.4 1231.1 1255.58 1237.61 1272.84 1245.28 C 1314.87 1257.95 1338.78 1273.87 1375.53 1293.94 C 1334.54 1336.19 1314.13 1375.05 1304.87 1434.19 C 1303.13 1445.27 1303.89 1467.07 1302.69 1473.89 C 1297.82 1485.71 1280.45 1519.45 1279.08 1529.46 C 1269.17 1601.52 1264.58 1679.99 1256.07 1751.89 C 1260.35 1751.97 1265.28 1751.94 1269.49 1752.19 C 1256.47 1753.72 1218.21 1752.37 1203.14 1752.3 L 1067.21 1752.09 L 838.05 1752.15 C 801.004 1752.18 761.216 1754.17 724.621 1752.2 C 741.688 1750.84 773.548 1752.1 791.485 1752.28 C 790.869 1735.78 788.622 1716.6 787.042 1700 L 778.973 1616.25 L 773.483 1561.78 C 772.808 1555.32 770.782 1534.6 769.116 1529.12 C 764.037 1512.39 753.709 1489.01 745.607 1473.51 C 745.77 1470.68 745.848 1467.85 745.84 1465.01 C 745.459 1398.79 720.745 1340.38 673.519 1294.23 C 708.182 1271.9 737.621 1258.84 776.02 1244.98 C 810.294 1233.24 841.956 1227.63 877.778 1224.85 z" fill="rgb(221,215,112)" transform="translate(0,0)"></path>
<path d="M 877.778 1224.85 C 940.823 1303.33 1067.71 1312.31 1146.1 1250.29 C 1155.59 1242.79 1163.3 1233.98 1171.22 1224.91 C 1175.06 1226.51 1192.72 1227.5 1199.26 1228.42 C 1218.4 1231.1 1255.58 1237.61 1272.84 1245.28 C 1274.42 1261.36 1274.84 1273.62 1273.69 1290 C 1268.99 1356.8 1237.63 1418.91 1186.67 1462.35 C 1136.29 1505.65 1070.62 1526.88 1004.43 1521.26 C 938.462 1516.33 877.204 1485.23 834.291 1434.88 C 789.161 1381.53 770.268 1314.06 776.02 1244.98 C 810.294 1233.24 841.956 1227.63 877.778 1224.85 z" fill="rgb(200,112,52)" transform="translate(0,0)"></path>
<path d="M 1375.53 1293.94 C 1397.9 1272.12 1418.87 1248.63 1440.71 1226.26 C 1444.37 1222.51 1447.97 1218.63 1452.27 1215.57 C 1477.8 1197.42 1512.61 1212.2 1517.1 1243.45 C 1518.28 1251.92 1517 1260.56 1513.4 1268.32 C 1506.07 1284.29 1464.6 1327.47 1450.63 1345.46 C 1457.32 1352.82 1462 1360.14 1472.43 1354.13 C 1485.97 1346.32 1498.81 1336.12 1511.47 1326.94 L 1602.22 1262.51 C 1617.86 1251.41 1633.07 1239.61 1649.15 1229.19 C 1663.73 1219.74 1682 1218.56 1696.55 1228.74 C 1707.06 1236.03 1714.07 1247.36 1715.92 1260.02 L 1715.64 1269.22 L 1716.5 1271.38 C 1719.64 1270.39 1725.39 1264.89 1728.7 1262.51 C 1740.94 1253.69 1759.25 1252.27 1772.81 1259.01 C 1782.46 1263.79 1789.75 1272.29 1793 1282.56 C 1799.58 1303.42 1789.49 1319.66 1775.06 1333.55 C 1798.29 1343.23 1813.82 1364.87 1803.97 1390.9 C 1796.88 1409.65 1772.54 1420.29 1756.94 1431.9 C 1769.89 1437.94 1776.63 1443.11 1782.13 1457.09 C 1788.84 1474.18 1785.22 1495.07 1770.32 1506.76 C 1735.85 1533.83 1698.12 1557 1662.69 1582.86 C 1649.12 1592.76 1634.39 1601.22 1621.03 1611.41 C 1642.68 1657.72 1663.99 1700.65 1671.41 1752.41 C 1632.99 1752.05 1594.56 1752.09 1556.15 1752.55 C 1545.67 1752.6 1513.87 1753.46 1504.24 1752.37 C 1483.45 1750.72 1446.65 1751.91 1424.57 1751.93 L 1269.49 1752.19 C 1265.28 1751.94 1260.35 1751.97 1256.07 1751.89 C 1264.58 1679.99 1269.17 1601.52 1279.08 1529.46 C 1280.45 1519.45 1297.82 1485.71 1302.69 1473.89 C 1303.89 1467.07 1303.13 1445.27 1304.87 1434.19 C 1314.13 1375.05 1334.54 1336.19 1375.53 1293.94 z" fill="rgb(219,153,140)" transform="translate(0,0)"></path>
<path d="M 1302.69 1473.89 C 1304.91 1479.26 1306.01 1489.75 1307.04 1495.78 C 1308.38 1503.96 1310.24 1512.04 1312.59 1519.99 C 1334.81 1595.57 1408.99 1650.56 1487.25 1653.08 L 1503.2 1716.18 C 1505.33 1724.55 1510.6 1743.31 1511.28 1750.93 C 1508.77 1752.35 1507.12 1752.19 1504.24 1752.37 C 1483.45 1750.72 1446.65 1751.91 1424.57 1751.93 L 1269.49 1752.19 C 1265.28 1751.94 1260.35 1751.97 1256.07 1751.89 C 1264.58 1679.99 1269.17 1601.52 1279.08 1529.46 C 1280.45 1519.45 1297.82 1485.71 1302.69 1473.89 z" fill="rgb(200,112,52)" transform="translate(0,0)"></path>
<path d="M 1621.03 1611.41 C 1642.68 1657.72 1663.99 1700.65 1671.41 1752.41 C 1632.99 1752.05 1594.56 1752.09 1556.15 1752.55 C 1545.67 1752.6 1513.87 1753.46 1504.24 1752.37 C 1507.12 1752.19 1508.77 1752.35 1511.28 1750.93 C 1510.6 1743.31 1505.33 1724.55 1503.2 1716.18 L 1487.25 1653.08 C 1539.66 1653.45 1577.54 1642.48 1621.03 1611.41 z" fill="rgb(221,215,112)" transform="translate(0,0)"></path>
<path d="M 1715.64 1269.22 C 1712.86 1275.74 1714.6 1284.27 1706.49 1290.38 C 1658.74 1326.4 1609.07 1360.41 1560.44 1395.31 C 1554.37 1399.66 1548.3 1398.22 1544.08 1392.38 C 1539.61 1386.18 1546.4 1378.9 1551.43 1375.88 C 1587.54 1350.21 1623.84 1323.67 1660.36 1298.72 C 1671.28 1291.26 1706.97 1263.08 1715.92 1260.02 L 1715.64 1269.22 z" fill="rgb(138,65,40)" transform="translate(0,0)"></path>
<path d="M 1750.81 1329.29 C 1759.75 1328.76 1765.79 1330.38 1774.23 1332.79 C 1753.38 1342.03 1719.79 1368.96 1700.18 1382.82 C 1667.89 1405.64 1635.21 1428.93 1603.41 1452.41 C 1601.68 1453.53 1599.75 1454.96 1597.84 1455.72 C 1595.04 1456.83 1591.72 1455.95 1589.22 1454.44 C 1586.62 1452.86 1584.6 1450.32 1584.23 1447.22 C 1583.89 1444.38 1585.1 1440.63 1586.87 1438.45 C 1590.91 1433.47 1716.1 1344.48 1727.9 1337.59 C 1735.29 1333.28 1742.32 1330.52 1750.81 1329.29 z" fill="rgb(138,65,40)" transform="translate(0,0)"></path>
<path d="M 1461.37 1357.24 C 1465.18 1357.02 1466.06 1356.98 1469.81 1357.48 C 1476.85 1361.82 1476.75 1374.05 1478.36 1381.43 C 1495.31 1458.82 1464.67 1489.98 1398.15 1525.18 C 1391.27 1525.46 1384.79 1521.26 1385.05 1514.18 C 1385.35 1505.7 1403.07 1498.03 1409.69 1494.21 C 1420.61 1487.9 1427.95 1482.66 1437.18 1474.71 C 1461.4 1453.89 1465.2 1425.94 1459.32 1395.92 C 1457.79 1387.05 1455.1 1375.88 1455.28 1366.89 C 1455.38 1362.12 1458.05 1360.12 1461.37 1357.24 z" fill="rgb(138,65,40)" transform="translate(0,0)"></path>
<path d="M 1731.36 1426.2 C 1737.05 1425.83 1752.69 1425.56 1754.81 1431.91 C 1752.73 1433.87 1732.06 1446.86 1726.87 1450.7 C 1699.14 1471.22 1668.51 1491.22 1641.31 1512.24 C 1638.09 1514.44 1635.39 1516.4 1631.27 1515.64 C 1627.97 1515.03 1624.19 1513.09 1622.59 1510.03 C 1621.03 1507.05 1621.67 1503.92 1623.14 1501.08 C 1626.89 1493.85 1701.07 1442.77 1713.14 1435.23 C 1719.09 1431.5 1724.66 1428.37 1731.36 1426.2 z" fill="rgb(138,65,40)" transform="translate(0,0)"></path>
<path d="M 598.624 1345.9 C 579.128 1319.44 555.278 1297.38 536.732 1270.61 C 519.057 1245.09 541.64 1207.54 571.022 1207.9 C 579.753 1208.04 588.266 1210.65 595.576 1215.43 C 604.287 1221.22 621.595 1240.14 629.377 1248.4 C 644.131 1264.07 658.138 1279.05 673.519 1294.23 C 720.745 1340.38 745.459 1398.79 745.84 1465.01 C 745.848 1467.85 745.77 1470.68 745.607 1473.51 C 753.709 1489.01 764.037 1512.39 769.116 1529.12 C 770.782 1534.6 772.808 1555.32 773.483 1561.78 L 778.973 1616.25 L 787.042 1700 C 788.622 1716.6 790.869 1735.78 791.485 1752.28 C 773.548 1752.1 741.688 1750.84 724.621 1752.2 L 609.728 1751.98 C 585.771 1751.98 559.233 1751.49 535.542 1752.42 C 522.773 1753.48 495.793 1752.31 482.157 1752.22 L 376.47 1751.81 C 386.476 1705.57 403.91 1653.74 427.347 1612.41 C 398.617 1587.9 281.792 1516.61 269.047 1496.17 C 262.712 1486.01 261.02 1473.9 263.894 1462.3 C 267.647 1447.16 277.575 1438.45 290.474 1430.96 C 273.06 1418.13 249.04 1407.38 243.332 1386.62 C 240.285 1375.53 241.941 1363.68 247.911 1353.85 C 254.054 1343.63 262.932 1336.36 274.497 1333.32 C 256.384 1320.11 246.517 1297.93 256.951 1276.6 C 261.712 1267.02 270.107 1259.74 280.266 1256.39 C 296.726 1250.9 309.135 1255.13 322.18 1264.91 C 325.132 1267.13 329.617 1270.67 332.919 1271.98 L 332.753 1259.96 C 335.452 1246.7 340.729 1235.78 352.571 1228.22 C 362.218 1222.02 374.008 1220.11 385.12 1222.94 C 399.671 1226.61 466.106 1277.25 481.851 1288.49 L 542.368 1330.81 C 550.76 1336.76 571.047 1352.42 579.317 1356.05 L 584.411 1356.37 C 591.492 1353.94 593.549 1351.21 598.624 1345.9 z" fill="rgb(219,153,140)" transform="translate(0,0)"></path>
<path d="M 561.827 1654.07 C 562.035 1653.83 590.199 1649.7 594.899 1648.51 C 622.293 1641.59 647.342 1632.33 669.746 1614.6 C 719.997 1574.83 736.84 1534.02 745.607 1473.51 C 753.709 1489.01 764.037 1512.39 769.116 1529.12 C 770.782 1534.6 772.808 1555.32 773.483 1561.78 L 778.973 1616.25 L 787.042 1700 C 788.622 1716.6 790.869 1735.78 791.485 1752.28 C 773.548 1752.1 741.688 1750.84 724.621 1752.2 L 609.728 1751.98 C 585.771 1751.98 559.233 1751.49 535.542 1752.42 C 543.586 1719.03 552.74 1687.14 561.827 1654.07 z" fill="rgb(200,112,52)" transform="translate(0,0)"></path>
<path d="M 427.347 1612.41 L 428.817 1613.13 C 463.125 1630.21 489.462 1650.5 530.508 1652.14 C 534.63 1652.31 559.857 1653.11 561.827 1654.07 C 552.74 1687.14 543.586 1719.03 535.542 1752.42 C 522.773 1753.48 495.793 1752.31 482.157 1752.22 L 376.47 1751.81 C 386.476 1705.57 403.91 1653.74 427.347 1612.41 z" fill="rgb(221,215,112)" transform="translate(0,0)"></path>
<path d="M 579.317 1356.05 L 584.411 1356.37 C 590.809 1358.1 594.922 1361.29 594.358 1368.44 C 592.749 1388.83 587.219 1406.51 588.667 1427.39 C 590.679 1456.42 610.309 1476.74 633.882 1491.52 C 642.119 1496.6 653.115 1500.46 660.419 1506.71 C 667.351 1512.68 661.957 1526.3 652.75 1523.99 C 632.464 1518.9 604.936 1499.58 591.367 1484.75 C 573.845 1465.6 564.37 1438.1 567.232 1412.56 C 569.099 1395.91 570.238 1377.36 574.795 1361.35 C 575.333 1359.59 577.891 1357.28 579.317 1356.05 z" fill="rgb(138,65,40)" transform="translate(0,0)"></path>
<path d="M 332.753 1259.96 C 346.164 1269.97 360.956 1279.26 374.762 1288.99 L 449.366 1342.14 C 466.541 1354.12 484.226 1365.86 500.771 1378.67 C 513.347 1388.41 500.439 1404.03 488.343 1395.34 C 479.951 1389.48 471.537 1383.39 463.182 1377.45 L 409.379 1339.23 C 388.663 1324.53 365.624 1309.16 345.849 1293.31 C 340.433 1288.96 334.731 1278.97 332.919 1271.98 L 332.753 1259.96 z" fill="rgb(138,65,40)" transform="translate(0,0)"></path>
<path d="M 290.259 1329.29 C 313.763 1327.32 335.193 1346.85 353.427 1359.96 L 405.425 1397.18 C 423.487 1410.01 442.06 1422.36 459.754 1435.63 C 469.269 1442.76 464.676 1452.67 454.238 1456.2 C 444.464 1453.21 422.692 1435.14 412.668 1428.23 C 366.753 1396.58 323.03 1360.36 274.725 1332.51 C 280.385 1330.96 284.495 1330.27 290.259 1329.29 z" fill="rgb(138,65,40)" transform="translate(0,0)"></path>
<path d="M 307.006 1426.25 C 319.686 1425.39 326.758 1428.72 336.988 1435.9 C 365.836 1456.18 395.367 1476.08 423.078 1497.86 C 433.106 1505.74 425.663 1516.13 414.555 1516.33 C 398.961 1504.85 382.511 1494.1 366.763 1482.65 C 341.599 1464.35 318.26 1447.02 291.5 1430.93 C 298.197 1428.04 300.049 1427.54 307.006 1426.25 z" fill="rgb(138,65,40)" transform="translate(0,0)"></path>
<metadata><recraft-signature>{"signed_by": "recraft", "signature_b64": "++EgvmIFghXHF4AlDZ15iXtRifSUIKkQdV9bCIR1qY3V7Dsop+9LFskijalOKLy1FjqGna7OsfwlYCZEbr9JDg==", "signing_algo": "Ed25519", "generation_timestamp": 1779024271, "identifier": "d6672fe1-9b16-4d8b-a77e-4b9d8afd31ca"}</recraft-signature></metadata></svg>